<svg xmlns="http://www.w3.org/2000/svg" width="1140" height="600" font-family="sans-serif" font-size="13"><rect width="1140" height="600" fill="white"/><text x="20" y="26" font-size="15" fill="#333">Coludo flight</text><rect x="20" y="40" width="540" height="540" fill="#fbfbfb" stroke="#ddd"/><rect x="50" y="305" width="292" height="63" fill="#cde" stroke="#369" opacity="0.7"/><text x="50" y="300" fill="#369" font-size="12">landing zone</text><circle cx="235" cy="403" r="5" fill="black"/><text x="243" y="407" font-size="12">pad</text><path d="M235.3,403.2 L235.3,403.2 L235.3,403.2 L235.3,403.2 L235.3,403.2 L235.3,403.2 L235.3,403.2 L235.3,403.2 L235.3,403.2 L235.3,403.2 L235.3,403.2 L235.3,403.2 L235.3,403.2 L235.3,403.2 L235.3,403.2 L235.3,403.2 L235.3,403.2 L235.3,403.2 L235.3,403.2 L235.3,403.2 L235.3,403.2 L235.3,403.2 L235.3,403.2 L235.3,403.2 L235.3,403.2 L235.3,403.2 L235.3,403.2 L235.3,403.2 L235.3,403.2 L235.3,403.2 L235.3,403.2 L235.3,403.2 L235.3,403.2 L235.3,403.2 L235.3,403.2 L235.3,403.2 L235.3,403.2 L235.3,403.2 L235.3,403.2 L235.3,403.2 L235.3,403.2 L235.3,403.2 L235.3,403.2 L235.3,403.2 L235.3,403.2 L235.3,403.2 L236.2,401.5 L236.9,398.7 L238.4,396.9 L241.2,394.2 L241.6,391.4 L244.7,388.9 L246.3,386.5 L247.8,384.1 L251.0,382.3 L251.3,380.6 L254.1,378.9 L255.7,377.1 L257.2,374.7 L260.4,372.6 L261.3,371.6 L265.1,369.5 L266.3,368.1 L268.2,366.4 L271.3,364.6 L274.5,362.9 L276.0,361.5 L277.6,359.4 L280.8,357.3 L282.3,355.9 L283.9,354.2 L286.4,352.1 L287.0,350.7 L290.2,348.3 L291.7,346.6 L293.3,344.1 L294.9,341.4 L296.4,339.6 L298.0,337.2 L299.6,334.1 L301.1,332.0 L301.4,329.5 L302.7,326.4 L304.3,323.3 L305.8,321.6 L306.5,319.1 L306.5,317.0 L307.4,313.9 L309.0,310.8 L309.0,308.7 L309.0,306.6 L310.5,303.5 L310.5,301.1 L310.5,298.3 L311.5,296.2 L311.5,294.1 L311.5,290.6 L312.1,287.5 L312.1,284.7 L313.7,281.3 L315.2,279.2 L315.2,277.1 L316.8,275.0 L317.1,272.2 L318.4,269.4 L319.9,267.4 L321.5,264.2 L322.8,261.5 L324.6,258.7 L326.2,257.3 L326.5,254.2 L327.8,252.4 L330.9,250.3 L332.5,247.6 L334.0,245.8 L337.2,243.7 L338.8,241.3 L340.3,239.9 L342.2,237.5 L345.0,235.7 L348.5,234.4 L349.7,232.6 L351.6,230.5 L354.4,229.8 L356.6,228.1 L357.6,227.1 L362.9,225.0 L365.4,223.6 L367.3,222.9 L368.5,222.2 L372.3,221.2 L376.4,220.1 L376.7,219.8 L381.1,218.7 L382.6,218.4 L385.8,218.0 L388.0,217.7 L390.5,217.0 L393.0,217.0 L395.2,216.6 L398.0,216.6 L401.5,216.6 L404.6,216.6 L407.7,217.0 L410.9,217.0 L412.4,217.3 L415.6,218.0 L418.7,218.4 L421.8,219.1 L423.1,219.4 L426.5,220.5 L429.7,221.5 L432.8,222.5 L434.4,223.2 L437.5,224.6 L439.1,225.7 L442.2,227.1 L445.3,228.8 L446.9,229.8 L450.1,231.6 L453.2,233.3 L454.8,235.0 L457.9,237.1 L459.5,238.5 L462.6,240.6 L464.2,242.7 L467.3,244.8 L468.9,246.5 L470.4,247.9 L473.9,250.0 L475.1,252.1 L478.3,254.2 L479.8,256.6 L483.0,258.7 L483.3,260.1 L486.1,261.8 L487.7,263.2 L489.2,265.6 L492.4,267.0 L492.7,269.1 L495.5,271.2 L497.7,272.9 L500.2,275.0 L501.8,276.4 L504.6,279.2 L506.5,280.2 L508.1,281.9 L509.6,284.0 L511.2,285.8 L513.4,287.9 L515.9,289.9 L517.5,291.7 L519.0,293.1 L522.2,295.5 L524.7,297.6 L525.3,300.0 L528.4,301.1 L530.0,303.8" fill="none" stroke="#1f77b4" stroke-width="1.7" opacity="0.85"/><circle cx="530" cy="304" r="4.5" fill="#1f77b4"/><text x="28" y="572" font-size="11" fill="#888">ground track — m from pad (N up)</text><rect x="580" y="40" width="540" height="540" fill="#fbfbfb" stroke="#ddd"/><text x="586" y="54" fill="#1f77b4" font-size="11">alt 112</text><text x="586" y="558" fill="#1f77b4" font-size="11">-47</text><path d="M616.7,399.1 L617.6,398.7 L618.6,398.6 L619.5,398.0 L620.4,397.6 L621.3,396.2 L622.1,396.0 L623.0,394.6 L623.9,393.0 L624.8,391.6 L625.7,390.2 L626.6,388.4 L627.5,386.0 L628.5,384.0 L629.4,381.4 L630.3,378.2 L631.2,378.2 L632.1,371.6 L633.0,369.9 L634.0,368.6 L634.9,365.5 L635.8,359.9 L636.7,358.6 L637.5,356.5 L638.4,349.6 L639.3,349.3 L640.2,342.7 L641.1,338.5 L642.0,334.2 L642.9,331.9 L643.9,325.2 L644.8,318.5 L645.7,313.4 L646.6,313.3 L647.5,306.7 L648.4,297.7 L649.2,292.4 L650.1,284.8 L651.0,280.4 L651.9,273.4 L652.8,277.9 L653.8,266.0 L654.7,257.5 L655.6,247.4 L656.5,252.4 L657.4,248.2 L658.4,237.0 L659.1,230.1 L660.0,228.1 L660.9,231.0 L661.8,230.9 L662.8,211.8 L663.7,222.3 L664.6,209.3 L665.5,197.6 L666.4,198.8 L667.3,193.9 L668.3,193.9 L669.2,182.4 L670.1,180.1 L670.9,184.2 L671.7,172.2 L672.5,186.9 L673.4,178.6 L674.3,161.0 L675.2,167.6 L676.1,172.8 L677.1,151.6 L678.0,145.2 L678.8,156.5 L679.6,158.3 L680.5,134.7 L681.5,143.5 L682.4,130.5 L683.3,148.7 L684.2,140.6 L685.1,122.4 L686.0,123.0 L687.0,124.7 L687.9,132.1 L688.8,125.1 L689.7,127.5 L690.6,134.0 L691.5,113.3 L692.3,111.5 L693.2,106.2 L694.1,103.1 L695.0,99.7 L695.9,101.5 L696.9,120.0 L697.8,95.1 L698.7,110.6 L699.6,103.6 L700.5,102.0 L701.4,102.2 L702.4,91.9 L703.3,90.8 L704.2,82.8 L705.1,103.4 L705.9,86.4 L706.8,83.9 L707.7,105.9 L708.6,101.9 L709.5,87.2 L710.4,87.8 L711.4,95.3 L712.3,91.3 L713.2,87.8 L714.1,87.6 L715.0,87.4 L715.9,84.3 L716.9,76.0 L717.6,91.4 L718.5,97.2 L719.4,105.6 L720.3,102.7 L721.3,94.2 L722.2,78.7 L723.1,100.9 L724.0,84.7 L724.9,80.9 L725.8,86.1 L726.6,93.6 L727.6,107.1 L728.4,85.3 L729.3,93.0 L730.2,97.0 L731.2,85.8 L732.1,98.4 L733.0,103.5 L733.9,93.2 L734.8,111.2 L735.7,93.3 L736.7,86.3 L737.5,81.6 L738.3,101.1 L739.2,83.5 L740.1,85.1 L741.1,106.2 L742.0,95.4 L742.9,105.3 L743.8,84.8 L744.7,93.0 L745.6,105.6 L746.6,96.4 L747.5,114.0 L748.4,104.2 L749.3,89.3 L750.2,101.6 L751.0,86.1 L751.9,108.3 L752.8,101.7 L753.7,105.8 L754.6,107.3 L755.5,112.9 L756.5,101.8 L757.4,107.5 L758.3,118.8 L759.2,100.3 L760.1,108.6 L761.0,100.4 L762.0,105.2 L762.8,97.0 L763.6,97.5 L764.5,115.8 L765.5,95.1 L766.4,119.7 L767.2,120.3 L768.0,113.8 L768.9,121.4 L769.9,116.0 L770.8,96.3 L771.7,108.6 L772.5,122.3 L773.3,99.3 L774.3,116.5 L775.2,121.8 L776.1,120.0 L777.0,120.6 L777.9,120.7 L778.8,127.8 L779.8,116.1 L780.7,121.3 L781.6,106.1 L782.5,106.4 L783.4,109.4 L784.3,106.2 L785.3,117.7 L786.1,111.8 L786.9,115.2 L787.8,126.1 L788.7,119.0 L789.7,121.8 L790.6,134.6 L791.5,134.2 L792.4,128.4 L793.3,110.4 L794.2,122.0 L795.2,121.3 L796.1,119.8 L797.0,132.5 L797.8,116.8 L798.6,142.2 L799.6,131.5 L800.5,142.4 L801.4,117.2 L802.3,118.3 L803.2,137.3 L804.2,132.8 L805.1,135.6 L806.0,137.3 L806.9,146.9 L807.8,140.7 L808.7,136.4 L809.6,131.8 L810.6,137.6 L811.4,136.1 L812.2,148.1 L813.1,130.1 L814.1,135.9 L815.0,144.3 L815.9,134.4 L816.8,135.3 L817.7,143.8 L818.6,150.8 L819.6,159.3 L820.5,150.0 L821.7,138.6 L822.5,158.6 L823.4,145.3 L824.3,157.0 L825.1,164.3 L826.0,157.2 L826.9,144.3 L827.8,149.2 L828.7,164.6 L829.6,149.5 L830.6,165.1 L831.5,162.4 L832.4,162.9 L833.3,152.2 L834.2,154.8 L835.1,152.5 L836.1,150.9 L836.8,164.2 L837.7,171.3 L838.6,173.6 L839.5,172.0 L840.6,158.5 L841.4,165.5 L842.3,174.3 L843.2,179.6 L844.1,178.5 L845.0,161.1 L846.0,180.2 L846.8,172.5 L847.6,184.8 L848.5,177.2 L849.4,179.5 L850.4,177.7 L851.3,189.6 L852.2,175.3 L853.1,188.4 L854.0,182.1 L854.9,174.6 L855.9,190.7 L856.8,177.4 L857.7,184.9 L858.5,176.5 L859.5,193.8 L860.3,197.7 L861.2,183.3 L862.1,192.5 L863.0,199.9 L863.9,183.5 L864.8,189.8 L865.8,186.6 L866.7,204.8 L867.6,207.7 L868.5,200.2 L869.4,190.2 L870.2,195.5 L871.1,203.4 L872.0,197.7 L872.9,196.9 L873.8,198.7 L874.8,201.2 L875.7,213.1 L876.6,204.0 L877.5,217.5 L878.4,202.8 L879.3,216.4 L880.3,222.1 L881.2,221.7 L882.1,212.6 L883.0,211.4 L883.9,216.2 L884.8,212.9 L885.8,219.5 L886.7,219.3 L887.6,216.6 L888.5,228.5 L889.4,222.5 L890.2,222.8 L891.1,225.0 L892.0,218.6 L892.9,233.0 L893.8,237.6 L894.7,228.6 L895.7,232.0 L896.6,236.3 L897.5,238.9 L898.4,229.9 L899.3,229.5 L901.2,242.8 L902.1,237.2 L903.0,243.7 L903.8,243.1 L904.6,252.1 L905.6,240.5 L906.5,246.3 L907.4,241.6 L908.3,254.1 L909.2,256.3 L910.1,245.9 L911.1,254.0 L912.0,259.2 L912.9,253.4 L913.8,252.7 L914.7,257.7 L916.4,258.0 L917.3,265.0 L918.2,257.1 L919.1,264.5 L920.1,262.6 L921.0,261.4 L921.9,263.9 L922.8,264.5 L923.7,271.5 L924.6,278.4 L925.6,272.5 L926.5,280.2 L927.3,275.7 L928.1,282.5 L929.0,284.4 L930.0,286.0 L930.9,277.8 L931.8,283.5 L932.7,285.3 L933.6,280.9 L934.5,285.6 L935.7,289.7 L936.6,290.6 L937.5,287.9 L938.4,295.0 L939.3,299.0 L940.2,297.2 L941.1,300.7 L942.1,294.3 L943.0,297.7 L943.9,297.6 L944.8,299.0 L945.7,301.2 L946.6,310.7 L947.4,303.3 L948.3,308.5 L949.2,315.4 L950.1,316.4 L951.0,310.4 L952.0,318.5 L952.9,317.8 L953.8,316.2 L954.9,321.8 L955.8,318.6 L956.7,326.0 L957.6,326.1 L958.6,328.8 L959.5,325.0 L960.4,329.8 L961.3,326.9 L962.2,330.3 L963.0,333.1 L963.9,337.4 L964.8,333.6 L965.7,339.0 L966.6,336.1 L967.5,340.9 L968.5,340.1 L969.4,342.1 L970.3,345.9 L971.2,344.5 L972.1,346.5 L973.0,349.6 L974.2,349.5 L975.1,351.9 L976.0,353.0 L976.9,353.5 L977.8,357.9 L978.7,359.2 L979.7,360.5 L980.4,361.4 L981.3,363.7 L982.2,362.2 L983.1,368.1 L984.1,368.7 L985.0,368.5 L985.9,369.4 L986.8,371.7 L987.7,374.1 L988.6,374.9 L989.6,377.6 L990.5,379.7 L991.4,379.0 L992.2,380.1 L993.5,382.7 L994.3,385.5 L995.2,386.1 L996.0,388.9 L996.9,389.4 L997.8,391.7 L998.7,392.6 L999.6,393.9 L1000.6,395.2 L1001.5,398.1 L1002.4,399.0 L1003.3,400.8 L1004.2,402.3 L1005.1,403.9 L1006.1,405.2 L1007.0,407.3 L1007.8,408.5 L1008.6,409.7 L1009.5,411.6 L1010.5,412.5 L1011.4,414.9 L1012.7,417.2 L1013.6,419.3 L1014.5,419.3 L1015.4,421.9 L1016.3,422.2 L1017.3,426.0 L1018.2,425.4 L1019.1,427.2 L1020.0,429.6 L1020.9,432.2 L1021.8,431.6 L1022.8,433.0 L1023.7,437.0 L1024.6,439.3 L1025.5,439.0 L1026.4,440.2 L1027.2,441.2 L1028.1,443.1 L1029.0,446.6 L1029.9,446.4 L1030.8,446.7 L1032.0,452.6 L1032.8,451.0 L1033.8,455.9 L1034.7,456.5 L1035.6,457.7 L1036.5,457.5 L1037.4,460.4 L1038.3,460.4 L1039.3,462.8 L1040.2,461.6 L1041.1,468.8 L1042.0,466.6 L1042.8,469.2 L1043.7,473.1 L1044.6,474.0 L1045.5,472.5 L1046.4,473.8 L1047.3,474.9 L1048.2,480.4 L1049.2,483.7 L1050.1,484.3 L1051.3,480.2 L1052.1,484.8 L1053.0,485.3 L1053.9,491.1 L1054.8,487.7 L1055.8,489.5 L1056.7,492.5 L1057.6,497.5 L1058.5,493.4 L1060.5,500.6 L1061.4,497.4 L1062.4,504.1 L1063.1,508.2 L1064.0,501.5 L1064.9,503.3 L1065.8,506.9 L1066.8,508.2 L1067.7,513.6 L1068.6,513.0 L1069.5,510.3 L1070.4,515.1 L1071.3,521.4 L1072.3,523.5 L1073.2,522.6 L1074.1,518.7 L1074.9,528.2 L1075.7,521.5 L1076.7,527.8 L1077.6,528.4 L1078.5,524.9 L1079.4,534.1 L1080.3,534.6 L1081.2,538.6 L1082.2,540.6 L1083.1,530.4 L1084.0,544.0" fill="none" stroke="#1f77b4" stroke-width="1.4" opacity="0.85"/><text x="1040" y="54" fill="#ff7f0e" font-size="11">roll 17</text><text x="1090" y="558" fill="#ff7f0e" font-size="11">-18</text><path d="M616.7,307.3 L617.6,307.3 L618.6,307.3 L619.5,307.3 L620.4,307.3 L621.3,307.3 L622.1,307.3 L623.0,307.3 L623.9,307.3 L624.8,307.3 L625.7,307.3 L626.6,307.3 L627.5,307.3 L628.5,307.3 L629.4,307.3 L630.3,307.3 L631.2,307.3 L632.1,307.3 L633.0,307.3 L634.0,307.3 L634.9,307.3 L635.8,307.3 L636.7,307.3 L637.5,307.3 L638.4,307.3 L639.3,307.3 L640.2,308.7 L641.1,307.3 L642.0,308.7 L642.9,307.3 L643.9,308.7 L644.8,308.7 L645.7,307.3 L646.6,308.7 L647.5,308.7 L648.4,307.3 L649.2,308.7 L650.1,308.7 L651.0,308.7 L651.9,308.7 L652.8,308.7 L653.8,308.7 L654.7,308.7 L655.6,308.7 L656.5,308.7 L657.4,308.7 L658.3,308.7 L659.1,308.7 L660.0,308.7 L660.9,307.3 L661.8,310.0 L662.7,308.7 L663.7,308.7 L664.6,308.7 L665.5,308.7 L666.4,308.7 L667.3,308.7 L668.2,308.7 L669.2,308.7 L670.1,308.7 L670.9,308.7 L671.7,310.0 L672.5,308.7 L673.4,308.7 L674.3,308.7 L675.2,308.7 L676.1,308.7 L677.1,308.7 L678.0,308.7 L678.8,310.0 L679.6,308.7 L680.5,308.7 L681.5,308.7 L682.4,308.7 L683.3,308.7 L684.2,308.7 L685.1,308.7 L686.0,308.7 L687.0,308.7 L687.9,308.7 L688.8,308.7 L689.7,308.7 L690.6,308.7 L691.5,308.7 L692.3,310.0 L693.2,308.7 L694.1,308.7 L695.0,307.3 L695.9,308.7 L696.9,308.7 L697.8,308.7 L698.7,308.7 L699.6,308.7 L700.5,308.7 L701.4,308.7 L702.4,310.0 L703.3,308.7 L704.2,308.7 L705.1,308.7 L705.9,308.7 L706.8,308.7 L707.7,308.7 L708.6,308.7 L709.5,308.7 L710.4,308.7 L711.3,308.7 L712.3,308.7 L713.2,308.7 L714.1,308.7 L715.0,308.7 L715.9,308.7 L716.8,308.7 L717.6,308.7 L718.5,308.7 L719.4,308.7 L720.3,308.7 L721.2,308.7 L722.2,308.7 L723.1,307.3 L724.0,308.7 L724.9,307.3 L725.8,308.7 L726.6,293.9 L727.6,256.2 L728.4,237.4 L729.3,203.8 L730.2,187.6 L731.2,159.4 L732.1,158.0 L733.0,129.8 L733.9,121.7 L734.8,109.6 L735.7,111.0 L736.7,117.7 L737.4,94.8 L738.3,113.7 L739.2,105.6 L740.1,89.4 L741.1,102.9 L742.0,82.7 L742.9,104.2 L743.8,93.5 L744.7,102.9 L745.6,80.0 L746.6,86.8 L747.5,88.1 L748.4,96.2 L749.3,88.1 L750.2,90.8 L751.0,93.5 L751.9,81.4 L752.8,86.8 L753.7,94.8 L754.6,105.6 L755.5,113.7 L756.5,115.0 L757.4,116.3 L758.3,115.0 L759.2,113.7 L760.1,132.5 L761.0,128.4 L762.0,137.9 L762.8,135.2 L763.6,141.9 L764.5,151.3 L765.5,147.3 L766.4,163.4 L767.1,195.7 L768.0,238.7 L768.9,283.1 L769.8,312.7 L770.8,349.0 L771.7,375.9 L772.5,398.8 L773.3,428.3 L774.2,444.5 L775.2,462.0 L776.1,478.1 L777.0,487.5 L777.9,498.3 L778.8,502.3 L779.8,503.7 L780.7,515.8 L781.6,507.7 L782.5,523.8 L783.4,523.8 L784.3,511.7 L785.3,523.8 L786.0,531.9 L786.9,521.1 L787.8,526.5 L788.7,529.2 L789.7,537.3 L790.6,523.8 L791.5,533.2 L792.4,529.2 L793.3,526.5 L794.2,519.8 L795.2,540.0 L796.1,529.2 L797.0,521.1 L797.8,522.5 L798.6,519.8 L799.6,535.9 L800.5,534.6 L801.4,531.9 L802.3,529.2 L803.2,522.5 L804.1,535.9 L805.1,530.6 L806.0,533.2 L806.9,523.8 L807.8,533.2 L808.7,527.9 L809.6,530.6 L810.6,535.9 L811.4,526.5 L812.2,527.9 L813.1,519.8 L814.0,525.2 L815.0,527.9 L815.9,521.1 L816.8,538.6 L817.7,530.6 L818.6,537.3 L819.5,527.9 L820.5,525.2 L821.7,526.5 L822.5,537.3 L823.4,526.5 L824.3,534.6 L825.1,538.6 L826.0,518.4 L826.9,521.1 L827.8,522.5 L828.7,519.8 L829.6,526.5 L830.6,523.8 L831.5,527.9 L832.4,544.0 L833.3,537.3 L834.2,471.4 L835.1,431.0 L836.1,371.9 L836.8,342.3 L837.7,311.3 L838.6,272.3 L839.5,245.4 L840.6,217.2 L841.4,197.0 L842.3,174.2 L843.2,158.0 L844.1,140.6 L845.0,137.9 L846.0,120.4 L846.7,121.7 L847.6,98.9 L848.5,115.0 L849.4,101.6 L850.4,90.8 L851.3,96.2 L852.2,85.4 L853.1,97.5 L854.0,104.2 L854.9,102.9 L855.9,97.5 L856.8,80.0 L857.7,81.4 L858.5,92.1 L859.5,98.9 L860.3,89.4 L861.2,97.5 L862.1,80.0 L863.0,97.5 L863.9,81.4 L864.8,94.8 L865.8,97.5 L866.7,76.0 L867.6,97.5 L868.5,84.1 L869.4,92.1 L870.2,93.5 L871.1,93.5 L872.0,82.7 L872.9,97.5 L873.8,97.5 L874.7,98.9 L875.7,86.8 L876.6,98.9 L877.5,97.5 L878.4,78.7 L879.3,96.2 L880.2,82.7 L881.2,84.1 L882.1,94.8 L883.0,78.7 L883.9,97.5 L884.8,81.4 L885.7,78.7 L886.7,94.8 L887.6,92.1 L888.5,82.7 L889.4,94.8 L890.2,97.5 L891.1,85.4 L892.0,92.1 L892.9,85.4 L893.8,78.7 L894.7,98.9 L895.7,97.5 L896.6,93.5 L897.5,89.4 L898.4,90.8 L899.3,89.4 L901.2,77.3 L902.1,90.8 L903.0,88.1 L903.8,82.7 L904.6,101.6 L905.6,82.7 L906.5,86.8 L907.4,90.8 L908.3,100.2 L909.2,80.0 L910.1,94.8 L911.1,94.8 L912.0,80.0 L912.9,90.8 L913.8,90.8 L914.7,81.4 L916.4,101.6 L917.3,90.8 L918.2,85.4 L919.1,92.1 L920.0,96.2 L921.0,88.1 L921.9,100.2 L922.8,94.8 L923.7,86.8 L924.6,92.1 L925.5,90.8 L926.5,86.8 L927.3,80.0 L928.1,88.1 L929.0,84.1 L930.0,88.1 L930.9,97.5 L931.8,86.8 L932.7,92.1 L933.6,96.2 L934.5,82.7 L935.7,84.1 L936.6,86.8 L937.5,85.4 L938.4,82.7 L939.3,96.2 L940.2,94.8 L941.1,92.1 L942.1,86.8 L943.0,84.1 L943.9,78.7 L944.8,94.8 L945.7,82.7 L946.6,89.4 L947.4,82.7 L948.3,82.7 L949.2,102.9 L950.1,85.4 L951.0,81.4 L952.0,84.1 L952.9,89.4 L953.8,84.1 L954.9,82.7 L955.8,85.4 L956.7,90.8 L957.6,98.9 L958.6,93.5 L959.5,81.4 L960.4,89.4 L961.3,97.5 L962.2,94.8 L963.0,89.4 L963.9,89.4 L964.8,94.8 L965.7,78.7 L966.6,94.8 L967.5,92.1 L968.5,98.9 L969.4,97.5 L970.3,86.8 L971.2,82.7 L972.1,80.0 L973.0,93.5 L974.2,93.5 L975.1,80.0 L976.0,97.5 L976.9,94.8 L977.8,84.1 L978.7,85.4 L979.6,97.5 L980.4,77.3 L981.3,86.8 L982.2,86.8 L983.1,84.1 L984.0,98.9 L985.0,92.1 L985.9,100.2 L986.8,84.1 L987.7,86.8 L988.6,85.4 L989.5,93.5 L990.5,88.1 L991.4,88.1 L992.2,93.5 L993.5,90.8 L994.3,94.8 L995.2,80.0 L996.0,94.8 L996.9,82.7 L997.8,105.6 L998.7,129.8 L999.6,145.9 L1000.6,166.1 L1001.5,160.7 L1002.4,182.2 L1003.3,178.2 L1004.2,197.0 L1005.1,214.5 L1006.1,211.8 L1007.0,237.4 L1007.8,246.8 L1008.6,234.7 L1009.5,258.9 L1010.5,260.2 L1011.4,272.3 L1012.7,276.4 L1013.6,281.8 L1014.5,283.1 L1015.4,269.7 L1016.3,273.7 L1017.2,252.2 L1018.2,268.3 L1019.1,256.2 L1020.0,267.0 L1020.9,262.9 L1021.8,271.0 L1022.7,288.5 L1023.7,275.0 L1024.6,267.0 L1025.5,275.0 L1026.4,284.4 L1027.2,275.0 L1028.1,267.0 L1029.0,283.1 L1029.9,296.6 L1030.8,297.9 L1032.0,310.0 L1032.8,306.0 L1033.8,318.1 L1034.7,308.7 L1035.6,320.8 L1036.5,316.7 L1037.4,295.2 L1038.3,304.6 L1039.3,307.3 L1040.2,300.6 L1041.1,306.0 L1042.0,308.7 L1042.8,308.7 L1043.7,308.7 L1044.6,300.6 L1045.5,293.9 L1046.4,299.2 L1047.3,301.9 L1048.2,301.9 L1049.2,310.0 L1050.1,301.9 L1051.3,304.6 L1052.1,293.9 L1053.0,281.8 L1053.9,269.7 L1054.8,279.1 L1055.8,285.8 L1056.7,277.7 L1057.6,277.7 L1058.5,291.2 L1060.5,276.4 L1061.4,279.1 L1062.4,284.4 L1063.1,284.4 L1064.0,287.1 L1064.9,291.2 L1065.8,292.5 L1066.8,292.5 L1067.7,293.9 L1068.6,295.2 L1069.5,295.2 L1070.4,297.9 L1071.3,297.9 L1072.3,297.9 L1073.2,299.2 L1074.1,300.6 L1074.9,301.9 L1075.7,300.6 L1076.7,303.3 L1077.6,303.3 L1078.5,303.3 L1079.4,304.6 L1080.3,304.6 L1081.2,303.3 L1082.2,303.3 L1083.1,304.6 L1084.0,304.6" fill="none" stroke="#ff7f0e" stroke-width="1.1" opacity="0.85"/><text x="616" y="572" font-size="11" fill="#888">time 0..26 s — altitude (blue) &amp; roll (orange)</text></svg>