<svg xmlns="http://www.w3.org/2000/svg" width="1140" height="600" font-family="sans-serif" font-size="13"><rect width="1140" height="600" fill="white"/><text x="20" y="26" font-size="15" fill="#333">Coludo flight</text><rect x="20" y="40" width="540" height="540" fill="#fbfbfb" stroke="#ddd"/><rect x="50" y="304" width="316" height="68" fill="#cde" stroke="#369" opacity="0.7"/><text x="50" y="299" fill="#369" font-size="12">landing zone</text><circle cx="250" cy="410" r="5" fill="black"/><text x="258" y="414" font-size="12">pad</text><path d="M250.9,409.9 L250.9,409.9 L250.9,409.9 L250.9,409.9 L250.9,409.9 L250.9,409.9 L250.9,409.9 L250.9,409.9 L250.9,409.9 L250.9,409.9 L250.9,409.9 L250.9,409.9 L250.9,409.9 L250.9,409.9 L250.9,409.9 L250.9,409.9 L250.9,409.9 L250.9,409.9 L250.9,409.9 L250.9,409.9 L250.9,409.9 L250.9,409.9 L250.9,409.9 L250.9,409.9 L250.9,409.9 L250.9,409.9 L250.9,409.9 L250.9,409.9 L250.9,409.9 L250.9,409.9 L250.9,409.9 L250.9,409.9 L250.9,409.9 L250.9,409.9 L250.9,409.9 L250.9,409.9 L250.9,409.9 L250.9,409.9 L250.9,409.9 L250.9,409.9 L250.9,409.9 L250.9,409.9 L250.9,409.9 L250.9,409.9 L250.9,409.9 L250.9,409.9 L250.9,409.9 L250.9,409.9 L250.9,409.9 L250.9,409.9 L250.9,409.9 L250.9,409.9 L250.9,409.9 L250.9,409.9 L250.9,409.9 L250.9,409.9 L250.9,409.9 L250.9,409.9 L250.9,409.9 L250.9,409.9 L250.9,409.9 L251.9,407.7 L252.6,404.6 L254.3,402.8 L257.4,400.1 L257.7,396.7 L261.1,394.1 L262.8,391.8 L264.5,389.2 L267.9,387.3 L269.6,384.7 L271.3,383.2 L273.7,380.5 L274.7,379.0 L278.1,376.8 L279.1,375.6 L283.2,373.4 L284.9,371.5 L286.6,370.0 L291.4,368.1 L293.4,366.2 L295.4,364.0 L298.5,361.7 L300.2,360.6 L301.9,358.3 L305.3,356.0 L307.0,354.2 L308.7,352.3 L312.1,349.6 L313.1,347.8 L315.5,345.1 L318.6,342.1 L318.9,339.1 L322.3,336.5 L322.6,334.2 L324.0,330.8 L325.7,328.9 L327.4,325.9 L328.1,322.5 L329.1,319.9 L330.8,316.9 L332.5,314.2 L332.5,310.8 L333.5,308.2 L333.5,305.2 L334.2,301.8 L334.2,298.8 L335.9,295.0 L335.9,292.4 L335.9,290.5 L337.6,286.4 L337.6,283.7 L339.3,281.5 L339.6,277.7 L339.6,275.8 L341.0,272.4 L342.7,269.8 L344.4,267.2 L345.8,263.8 L346.1,260.7 L347.8,258.1 L349.5,255.9 L351.2,252.8 L352.9,251.0 L354.6,249.1 L356.3,245.7 L359.7,243.4 L361.4,240.8 L363.1,238.5 L364.8,237.0 L366.8,234.8 L369.9,232.1 L373.6,230.2 L375.0,228.7 L377.0,227.2 L380.1,225.0 L382.5,223.1 L385.2,222.3 L388.6,220.8 L392.0,218.9 L394.0,217.8 L397.1,216.3 L400.5,215.2 L403.9,214.0 L407.3,213.3 L409.7,212.9 L410.7,212.2 L415.8,211.4 L417.5,211.0 L421.9,210.7 L424.3,210.3 L427.3,209.9 L429.4,209.9 L432.8,209.9 L436.2,209.9 L439.6,210.3 L443.0,210.7 L446.4,211.0 L449.1,211.4 L453.2,212.2 L454.5,212.5 L458.3,213.3 L460.0,214.0 L463.4,214.8 L464.7,215.5 L468.5,217.1 L471.9,218.6 L475.3,219.3 L477.0,221.2 L480.4,222.3 L482.1,223.5 L485.5,225.3 L487.2,226.8 L490.6,229.1 L492.6,230.2 L495.7,232.5 L498.7,235.1 L500.8,237.4 L502.5,238.9 L504.2,241.5 L505.9,243.8 L509.6,246.1 L509.3,247.9 L512.7,250.6 L514.4,253.2 L516.1,255.9 L517.8,258.1 L519.5,260.7 L519.8,264.1 L521.2,267.5 L522.9,269.4 L524.6,271.7 L525.2,275.1 L525.2,277.7 L526.3,281.5 L528.0,283.7 L528.0,287.5 L529.7,290.9 L529.7,293.9 L530.0,297.3 L530.0,299.5 L530.0,303.3 L530.0,307.1 L530.0,310.5 L530.0,313.5 L530.0,316.5 L530.0,319.1 L529.7,322.5 L529.7,325.5 L529.7,329.3 L528.0,331.6 L528.0,335.0 L526.3,337.6 L525.2,341.0 L524.6,343.6 L522.9,346.3 L521.2,349.6 L521.2,351.9 L519.5,354.9 L517.8,357.9 L516.1,360.6 L514.4,362.5 L514.4,365.1 L511.0,368.1 L509.3,370.4 L507.6,372.2 L505.9,374.9 L502.8,377.1 L502.5,379.0 L499.1,381.7 L497.4,383.5 L495.7,385.1 L492.6,386.9 L490.6,388.4 L488.9,389.9 L487.2,391.8 L482.1,393.3 L481.7,394.5 L477.0,396.4 L475.6,397.5 L473.6,398.2 L470.2,399.4 L466.8,400.5 L463.4,401.3 L460.0,402.0 L458.3,402.8 L454.9,402.8 L453.2,403.1 L449.1,403.5 L444.7,403.5 L443.0,403.5 L439.6,403.5 L437.9,403.1 L432.8,402.8 L429.4,402.0 L427.3,401.6 L422.6,400.5 L421.9,400.1 L417.5,398.6 L415.8,397.5 L412.4,396.7 L409.0,394.8 L405.6,393.3 L403.9,392.6 L400.5,391.8 L398.8,389.9 L394.0,388.4 L393.7,387.7" fill="none" stroke="#1f77b4" stroke-width="1.7" opacity="0.85"/><circle cx="394" cy="388" r="4.5" fill="#1f77b4"/><text x="28" y="572" font-size="11" fill="#888">ground track — m from pad (N up)</text><rect x="580" y="40" width="540" height="540" fill="#fbfbfb" stroke="#ddd"/><text x="586" y="54" fill="#1f77b4" font-size="11">alt 200</text><text x="586" y="558" fill="#1f77b4" font-size="11">-51</text><path d="M616.5,445.9 L617.2,445.7 L617.8,445.4 L618.5,444.8 L619.2,444.2 L619.8,443.2 L620.5,442.3 L621.2,440.9 L621.9,439.8 L622.5,437.9 L623.1,436.5 L623.7,435.1 L624.3,432.7 L624.9,431.0 L625.6,429.1 L626.3,426.0 L626.9,424.0 L627.6,420.6 L628.3,418.3 L628.9,414.5 L629.5,411.9 L630.1,409.2 L630.8,404.9 L631.5,400.5 L632.1,397.4 L632.8,394.2 L633.5,389.1 L634.1,385.6 L634.8,380.4 L635.5,376.7 L636.1,370.6 L636.8,366.7 L637.5,360.7 L638.2,356.6 L638.8,350.3 L639.5,345.7 L640.2,339.0 L640.8,334.8 L641.5,328.2 L642.2,324.0 L642.7,317.3 L643.4,312.9 L644.0,308.8 L644.7,302.9 L645.4,298.6 L646.0,293.2 L646.7,288.6 L647.4,282.8 L648.0,279.4 L648.7,273.8 L649.4,269.4 L650.0,264.7 L650.7,260.5 L651.4,255.7 L652.0,251.8 L652.6,246.4 L653.3,243.4 L653.9,237.7 L654.6,234.5 L655.3,231.2 L655.9,226.2 L656.6,223.2 L657.1,220.3 L657.8,216.0 L658.5,212.3 L659.1,208.0 L659.8,205.1 L660.5,201.2 L661.1,198.1 L661.8,193.6 L662.5,191.4 L663.1,187.8 L663.7,184.7 L664.3,181.4 L665.0,177.4 L665.7,176.0 L666.3,172.4 L667.0,169.1 L667.7,165.5 L668.3,163.6 L669.0,159.6 L669.7,157.9 L670.4,153.7 L671.0,152.6 L671.7,148.4 L672.3,146.3 L672.9,144.8 L673.5,142.1 L674.1,139.3 L674.8,137.3 L675.4,134.0 L676.1,133.4 L676.8,129.9 L677.4,128.4 L678.1,126.2 L678.8,123.9 L679.4,121.6 L680.1,120.3 L680.8,117.1 L681.4,115.9 L682.1,113.3 L682.8,112.5 L683.4,109.1 L684.1,108.5 L684.7,107.3 L685.3,104.4 L686.0,104.4 L686.7,101.8 L687.3,100.0 L688.0,98.1 L688.7,97.0 L689.3,97.1 L690.0,95.0 L690.7,93.8 L691.3,93.3 L692.0,90.9 L692.7,90.4 L693.3,89.9 L694.0,87.4 L694.7,87.1 L695.3,86.3 L695.9,84.7 L696.5,84.7 L697.3,82.8 L697.9,83.7 L698.5,81.7 L699.2,81.5 L699.9,81.2 L700.5,80.4 L701.2,80.4 L701.9,78.4 L702.6,79.5 L703.2,78.6 L703.9,78.6 L704.6,76.8 L705.2,77.9 L705.9,76.9 L706.6,77.0 L707.1,77.5 L707.8,77.6 L708.4,76.0 L709.1,76.2 L709.8,76.4 L710.4,76.6 L711.1,76.1 L711.8,77.6 L712.4,76.9 L713.1,77.9 L713.8,78.8 L714.4,78.3 L715.1,78.4 L715.8,79.0 L716.4,79.3 L717.1,80.3 L717.8,80.9 L718.4,81.1 L719.0,82.6 L719.7,82.1 L720.3,82.8 L721.0,85.0 L721.7,86.1 L722.3,86.9 L723.0,87.7 L723.7,86.9 L724.5,86.8 L725.1,87.3 L725.8,87.6 L726.5,88.3 L727.2,87.1 L727.8,88.9 L728.5,87.7 L729.1,87.8 L729.8,88.8 L730.5,88.8 L731.1,88.5 L731.8,88.8 L732.5,88.8 L733.2,90.1 L733.8,90.0 L734.5,89.9 L735.1,89.7 L735.7,89.9 L736.4,89.5 L736.9,90.4 L737.6,89.6 L738.2,90.4 L738.9,90.6 L739.6,90.5 L740.2,90.8 L740.9,91.3 L741.6,91.0 L742.2,91.6 L742.9,91.4 L743.5,92.8 L744.1,92.1 L744.8,93.3 L745.4,93.3 L746.1,94.1 L746.7,93.0 L747.3,94.5 L748.0,94.0 L748.6,94.6 L749.3,94.9 L750.0,94.7 L750.7,94.6 L751.3,95.6 L752.0,95.5 L752.5,95.8 L753.2,96.3 L753.9,96.3 L754.5,97.8 L755.2,97.4 L755.9,98.3 L756.5,98.6 L757.2,98.6 L757.9,99.2 L758.5,99.4 L759.2,98.4 L759.9,100.2 L760.4,99.1 L761.1,100.7 L761.7,101.3 L762.4,101.6 L763.1,102.0 L763.7,100.9 L764.4,102.2 L765.1,103.1 L765.7,103.3 L766.3,102.3 L767.0,103.6 L767.6,104.0 L768.3,103.6 L768.9,105.0 L769.5,105.1 L770.2,105.3 L770.7,105.3 L771.4,105.6 L772.0,106.1 L772.7,106.2 L773.4,107.6 L774.0,107.0 L774.7,108.1 L775.4,107.9 L776.0,108.3 L776.7,108.7 L777.3,109.9 L777.9,110.9 L778.6,111.0 L779.5,111.5 L780.1,111.9 L780.7,112.3 L781.4,113.3 L782.1,113.5 L782.7,113.4 L783.4,114.6 L784.1,114.8 L784.7,114.6 L785.4,114.6 L786.1,116.7 L786.7,116.8 L787.4,116.8 L788.0,118.3 L788.6,118.0 L789.3,118.8 L789.8,119.4 L790.5,120.1 L791.1,120.4 L791.8,120.5 L792.5,121.7 L793.2,122.2 L793.8,122.0 L794.5,122.6 L795.0,123.4 L795.7,124.4 L796.3,124.2 L797.0,124.7 L797.7,125.5 L798.4,126.3 L799.0,125.8 L799.6,127.7 L800.2,128.0 L800.8,127.5 L801.4,129.2 L802.1,129.4 L802.8,130.3 L803.4,129.7 L804.1,131.4 L804.8,131.8 L805.4,132.7 L806.1,132.7 L807.0,132.8 L807.6,134.3 L808.2,134.1 L808.9,134.6 L809.6,135.3 L810.2,136.0 L810.8,137.4 L811.4,137.8 L812.0,138.5 L812.6,138.8 L813.3,139.1 L814.0,140.0 L814.6,139.9 L815.3,141.1 L816.0,142.4 L816.7,142.0 L817.3,143.7 L818.0,143.7 L818.7,144.2 L819.2,144.9 L819.9,145.3 L820.8,146.4 L821.3,147.6 L822.0,147.3 L822.7,148.9 L823.3,148.2 L824.0,149.2 L824.7,150.8 L825.3,150.9 L825.9,151.3 L826.5,152.5 L827.2,153.5 L827.8,153.7 L828.4,154.3 L829.1,154.6 L829.7,155.5 L830.4,156.9 L831.1,156.8 L831.8,158.3 L832.4,158.9 L833.1,159.7 L833.8,160.3 L834.5,161.2 L835.1,161.2 L835.8,161.4 L836.4,162.7 L837.1,164.1 L837.8,164.6 L838.4,164.7 L839.0,165.0 L839.6,166.6 L840.2,167.6 L840.8,168.2 L841.5,167.9 L842.2,168.7 L842.8,170.2 L843.5,171.0 L844.2,172.0 L844.8,172.2 L845.5,173.0 L846.2,173.3 L846.8,174.7 L847.5,174.7 L848.6,176.1 L849.1,177.0 L849.8,178.2 L850.5,179.0 L851.1,178.9 L851.8,180.8 L852.5,181.1 L853.1,181.5 L853.8,182.7 L854.5,183.1 L855.1,184.1 L855.7,184.9 L856.3,186.3 L857.0,186.7 L857.7,188.0 L858.3,188.3 L859.0,188.4 L859.7,190.1 L860.3,190.1 L861.0,191.1 L861.7,192.8 L862.6,193.2 L863.2,193.8 L863.8,195.1 L864.5,195.2 L865.2,197.1 L865.8,197.2 L866.5,198.0 L867.2,199.3 L867.8,200.3 L868.5,200.2 L869.2,201.9 L869.7,202.6 L870.4,202.8 L871.0,204.6 L871.7,204.7 L872.4,206.2 L873.0,206.7 L873.7,207.5 L874.4,208.9 L875.0,209.9 L875.7,210.1 L876.6,211.6 L877.3,212.4 L878.0,212.8 L878.6,213.8 L879.3,214.8 L880.0,216.0 L880.7,216.6 L881.3,217.4 L882.0,218.7 L882.7,219.5 L883.3,220.5 L884.0,221.8 L884.7,222.4 L885.2,223.2 L885.9,224.0 L886.5,225.0 L887.1,225.8 L887.7,226.0 L888.4,227.1 L889.1,228.4 L889.7,229.6 L890.7,229.8 L891.3,231.4 L892.0,232.5 L892.7,233.7 L893.3,233.6 L894.0,235.2 L894.7,235.5 L895.3,237.1 L896.0,237.6 L896.7,238.6 L897.4,239.3 L898.0,240.4 L898.7,242.1 L899.4,243.1 L900.0,243.6 L900.6,244.4 L901.2,245.3 L901.9,246.4 L902.6,247.6 L903.2,247.8 L903.9,249.6 L904.8,250.0 L905.4,251.6 L906.0,252.0 L906.7,252.8 L907.4,254.4 L908.0,255.4 L908.7,256.4 L909.4,256.8 L910.0,258.0 L910.7,258.9 L911.4,260.3 L912.0,260.9 L912.6,262.3 L913.2,263.2 L913.8,263.8 L914.5,264.7 L915.1,266.0 L915.7,266.2 L916.3,267.0 L917.0,268.9 L917.7,269.4 L918.7,270.6 L919.4,271.7 L920.1,273.3 L920.7,274.3 L921.4,274.6 L922.1,276.2 L922.7,277.3 L923.4,277.8 L924.1,279.2 L924.7,280.3 L925.4,281.3 L926.1,282.0 L926.7,282.8 L927.3,284.1 L927.9,285.0 L928.6,286.3 L929.3,287.4 L930.0,288.2 L930.5,288.8 L931.2,289.8 L931.8,290.4 L932.8,292.7 L933.4,293.1 L934.1,294.5 L934.8,295.4 L935.4,296.9 L936.1,297.7 L936.7,298.5 L937.3,299.5 L938.0,300.0 L938.5,301.4 L939.2,302.2 L939.8,303.4 L940.4,304.7 L941.0,305.6 L941.7,306.5 L942.4,307.6 L943.0,308.4 L943.7,309.2 L944.3,310.1 L944.9,311.3 L945.5,312.2 L946.1,313.1 L946.9,314.3 L947.5,315.2 L948.1,316.2 L948.8,317.6 L949.5,318.6 L950.1,319.4 L950.8,320.3 L951.5,322.0 L952.1,322.5 L952.8,323.9 L953.5,325.0 L954.0,325.8 L954.7,326.7 L955.3,327.5 L956.0,328.8 L956.7,329.8 L957.3,331.4 L958.0,331.9 L958.7,333.3 L959.3,334.0 L960.0,335.7 L960.9,336.7 L961.5,337.7 L962.2,339.3 L962.8,339.9 L963.4,341.1 L964.0,342.0 L964.7,342.8 L965.3,344.5 L965.9,345.3 L966.6,346.2 L967.2,347.3 L967.9,348.4 L968.6,349.6 L969.2,350.5 L969.9,351.5 L970.6,352.3 L971.2,354.0 L971.9,354.8 L972.6,356.1 L973.2,357.0 L973.9,358.2 L974.9,359.9 L975.5,361.1 L976.2,361.9 L976.7,363.1 L977.4,364.2 L978.0,364.9 L978.7,366.4 L979.3,367.0 L979.9,368.0 L980.6,369.2 L981.3,370.2 L981.9,371.7 L982.6,372.5 L983.3,373.8 L983.9,374.8 L984.6,376.0 L985.3,377.0 L985.9,378.3 L986.6,379.3 L987.3,380.7 L987.9,381.4 L988.9,383.2 L989.5,384.1 L990.2,385.7 L990.9,386.3 L991.5,387.8 L992.2,388.8 L992.9,389.9 L993.5,390.8 L994.2,392.4 L994.9,393.3 L995.6,394.6 L996.1,395.4 L996.8,396.3 L997.4,397.6 L998.1,398.7 L998.8,399.9 L999.4,401.0 L1000.1,402.3 L1000.8,403.1 L1001.4,404.6 L1002.1,405.5 L1003.0,407.3 L1003.6,408.3 L1004.2,409.2 L1004.9,410.6 L1005.6,411.4 L1006.1,412.8 L1006.8,413.8 L1007.4,414.7 L1008.0,415.5 L1008.6,417.0 L1009.2,417.8 L1009.8,418.8 L1010.5,420.2 L1011.2,421.1 L1011.9,422.4 L1012.5,423.4 L1013.1,424.8 L1013.7,425.8 L1014.3,426.7 L1014.9,427.6 L1015.6,429.1 L1016.3,429.9 L1017.1,431.4 L1017.7,432.8 L1018.4,433.6 L1019.1,435.0 L1019.7,436.0 L1020.4,437.4 L1021.1,438.3 L1021.7,439.7 L1022.4,440.6 L1023.1,442.0 L1023.7,443.0 L1024.4,444.4 L1025.1,445.3 L1025.7,446.7 L1026.4,447.7 L1027.1,449.1 L1027.8,450.0 L1028.3,451.4 L1029.0,452.3 L1029.6,453.3 L1030.3,454.7 L1031.1,456.1 L1031.8,457.0 L1032.4,458.4 L1033.1,459.3 L1033.8,460.7 L1034.4,461.6 L1035.1,463.0 L1035.8,464.0 L1036.4,465.4 L1037.1,466.3 L1037.8,467.7 L1038.4,468.6 L1039.1,469.9 L1039.8,470.8 L1040.4,472.3 L1041.0,473.2 L1041.6,474.1 L1042.3,475.5 L1043.0,476.3 L1043.7,477.7 L1044.3,478.6 L1045.2,480.4 L1045.8,481.3 L1046.5,482.2 L1047.1,483.5 L1047.8,484.5 L1048.5,485.9 L1049.1,486.7 L1049.8,488.1 L1050.5,488.9 L1051.1,490.2 L1051.8,491.3 L1052.6,492.6 L1053.2,493.9 L1053.7,494.7 L1054.3,495.8 L1055.0,496.5 L1055.7,497.8 L1056.3,498.8 L1057.0,500.1 L1057.7,501.1 L1058.3,502.5 L1059.8,504.5 L1060.4,505.9 L1061.0,506.7 L1061.7,507.8 L1062.4,509.0 L1063.0,509.9 L1063.7,511.1 L1064.4,512.1 L1065.0,513.5 L1065.7,514.2 L1066.4,515.6 L1067.0,516.4 L1068.6,519.2 L1069.2,520.6 L1069.8,521.3 L1070.5,522.4 L1071.2,523.7 L1071.8,524.4 L1072.5,525.8 L1073.2,526.5 L1074.2,528.3 L1074.8,529.7 L1075.4,530.5 L1076.1,531.2 L1076.8,532.5 L1077.5,533.3 L1078.1,534.6 L1078.8,535.6 L1079.5,536.7 L1080.1,537.8 L1080.8,538.9 L1081.4,539.9 L1082.0,540.5 L1082.7,541.6 L1083.3,542.6 L1084.0,544.0" fill="none" stroke="#1f77b4" stroke-width="1.4" opacity="0.85"/><text x="1040" y="54" fill="#ff7f0e" font-size="11">roll 23</text><text x="1090" y="558" fill="#ff7f0e" font-size="11">-17</text><path d="M616.5,343.4 L617.2,343.4 L617.8,343.4 L618.5,343.4 L619.2,343.4 L619.8,343.4 L620.5,343.4 L621.2,343.4 L621.8,343.4 L622.5,343.4 L623.1,343.4 L623.7,343.4 L624.3,343.4 L624.9,343.4 L625.6,343.4 L626.3,343.4 L626.9,343.4 L627.6,343.4 L628.3,343.4 L628.9,344.6 L629.5,344.6 L630.1,343.4 L630.8,343.4 L631.5,344.6 L632.1,344.6 L632.8,343.4 L633.5,344.6 L634.1,344.6 L634.8,345.7 L635.5,344.6 L636.1,344.6 L636.8,345.7 L637.5,344.6 L638.1,345.7 L638.8,345.7 L639.5,344.6 L640.2,344.6 L640.8,345.7 L641.5,345.7 L642.2,345.7 L642.7,345.7 L643.4,344.6 L644.0,345.7 L644.7,345.7 L645.4,344.6 L646.0,345.7 L646.7,344.6 L647.4,345.7 L648.0,344.6 L648.7,344.6 L649.4,344.6 L650.0,344.6 L650.7,345.7 L651.4,344.6 L652.0,345.7 L652.6,344.6 L653.2,344.6 L653.9,345.7 L654.6,345.7 L655.3,344.6 L655.9,344.6 L656.5,345.7 L657.1,345.7 L657.8,344.6 L658.5,345.7 L659.1,344.6 L659.8,344.6 L660.5,344.6 L661.1,345.7 L661.8,345.7 L662.5,345.7 L663.1,345.7 L663.7,345.7 L664.3,344.6 L665.0,345.7 L665.7,344.6 L666.3,345.7 L667.0,345.7 L667.7,345.7 L668.3,344.6 L669.0,344.6 L669.7,345.7 L670.4,345.7 L671.0,345.7 L671.7,345.7 L672.2,345.7 L672.9,344.6 L673.5,345.7 L674.1,344.6 L674.8,345.7 L675.4,345.7 L676.1,344.6 L676.8,344.6 L677.4,344.6 L678.1,345.7 L678.8,345.7 L679.4,344.6 L680.1,344.6 L680.8,345.7 L681.4,345.7 L682.1,344.6 L682.8,344.6 L683.4,344.6 L684.1,344.6 L684.7,344.6 L685.3,345.7 L686.0,344.6 L686.7,344.6 L687.3,344.6 L688.0,345.7 L688.7,345.7 L689.3,345.7 L690.0,345.7 L690.7,345.7 L691.3,344.6 L692.0,345.7 L692.7,344.6 L693.3,345.7 L694.0,345.7 L694.7,345.7 L695.3,345.7 L695.9,345.7 L696.5,344.6 L697.2,345.7 L697.9,345.7 L698.5,344.6 L699.2,344.6 L699.9,345.7 L700.5,344.6 L701.2,344.6 L701.9,345.7 L702.5,344.6 L703.2,345.7 L703.9,345.7 L704.6,345.7 L705.2,345.7 L705.9,345.7 L706.6,345.7 L707.1,344.6 L707.8,344.6 L708.4,345.7 L709.1,344.6 L709.8,345.7 L710.4,344.6 L711.1,344.6 L711.8,345.7 L712.4,344.6 L713.1,344.6 L713.8,345.7 L714.4,344.6 L715.1,345.7 L715.8,344.6 L716.4,345.7 L717.1,344.6 L717.8,344.6 L718.4,344.6 L719.0,344.6 L719.6,344.6 L720.3,344.6 L721.0,344.6 L721.7,345.7 L722.3,345.7 L723.0,344.6 L723.7,330.7 L724.5,288.1 L725.1,270.8 L725.8,255.8 L726.5,230.5 L727.2,225.9 L727.8,207.4 L728.5,193.6 L729.1,179.7 L729.8,185.5 L730.5,170.5 L731.1,174.0 L731.8,165.9 L732.5,168.2 L733.1,167.1 L733.8,160.1 L734.5,165.9 L735.1,157.8 L735.7,162.5 L736.4,154.4 L736.9,153.2 L737.6,154.4 L738.2,168.2 L738.9,160.1 L739.6,159.0 L740.2,164.8 L740.9,168.2 L741.6,156.7 L742.2,169.4 L742.9,169.4 L743.5,168.2 L744.1,165.9 L744.8,165.9 L745.4,177.4 L746.1,174.0 L746.7,172.8 L747.3,190.1 L748.0,184.4 L748.6,195.9 L749.3,198.2 L750.0,198.2 L750.6,214.3 L751.3,212.0 L752.0,216.6 L752.5,200.5 L753.2,209.7 L753.9,217.8 L754.5,267.3 L755.2,295.0 L755.9,334.2 L756.5,357.3 L757.2,389.5 L757.9,408.0 L758.5,433.3 L759.2,451.8 L759.9,466.8 L760.4,479.4 L761.1,489.8 L761.7,506.0 L762.4,503.7 L763.1,508.3 L763.7,525.6 L764.4,529.0 L765.1,527.9 L765.7,522.1 L766.3,518.6 L766.9,529.0 L767.6,524.4 L768.3,532.5 L768.9,537.1 L769.5,531.3 L770.2,538.2 L770.7,527.9 L771.4,541.7 L772.0,524.4 L772.7,540.5 L773.4,541.7 L774.0,539.4 L774.7,522.1 L775.4,539.4 L776.0,540.5 L776.7,532.5 L777.3,531.3 L777.9,529.0 L778.6,532.5 L779.5,535.9 L780.1,523.3 L780.7,529.0 L781.4,542.8 L782.0,532.5 L782.7,523.3 L783.4,524.4 L784.0,542.8 L784.7,542.8 L785.4,531.3 L786.1,526.7 L786.7,535.9 L787.4,527.9 L788.0,531.3 L788.6,542.8 L789.3,526.7 L789.8,540.5 L790.5,526.7 L791.1,538.2 L791.8,540.5 L792.5,529.0 L793.2,539.4 L793.8,525.6 L794.5,524.4 L795.0,534.8 L795.7,535.9 L796.3,529.0 L797.0,544.0 L797.7,527.9 L798.3,537.1 L799.0,533.6 L799.6,532.5 L800.2,534.8 L800.8,532.5 L801.4,541.7 L802.1,525.6 L802.8,501.3 L803.4,439.1 L804.1,416.0 L804.8,369.9 L805.4,344.6 L806.1,310.0 L807.0,283.5 L807.6,261.6 L808.2,238.5 L808.9,230.5 L809.6,204.0 L810.2,204.0 L810.8,179.7 L811.4,177.4 L812.0,175.1 L812.6,179.7 L813.3,165.9 L814.0,171.7 L814.6,159.0 L815.3,159.0 L816.0,164.8 L816.6,163.6 L817.3,168.2 L818.0,159.0 L818.7,159.0 L819.2,147.5 L819.9,148.6 L820.8,163.6 L821.3,156.7 L822.0,159.0 L822.7,148.6 L823.3,148.6 L824.0,165.9 L824.7,160.1 L825.3,147.5 L825.9,165.9 L826.5,153.2 L827.2,156.7 L827.8,150.9 L828.4,162.5 L829.1,161.3 L829.7,149.8 L830.4,150.9 L831.1,150.9 L831.7,163.6 L832.4,162.5 L833.1,163.6 L833.8,148.6 L834.5,163.6 L835.1,164.8 L835.8,163.6 L836.4,159.0 L837.1,153.2 L837.8,154.4 L838.4,150.9 L839.0,148.6 L839.6,154.4 L840.2,161.3 L840.8,157.8 L841.5,150.9 L842.2,155.5 L842.8,154.4 L843.5,155.5 L844.2,156.7 L844.8,165.9 L845.5,147.5 L846.2,153.2 L846.8,157.8 L847.5,163.6 L848.6,149.8 L849.1,162.5 L849.8,159.0 L850.5,149.8 L851.1,154.4 L851.8,157.8 L852.5,149.8 L853.1,153.2 L853.8,155.5 L854.5,162.5 L855.1,147.5 L855.7,161.3 L856.3,164.8 L857.0,165.9 L857.7,147.5 L858.3,148.6 L859.0,150.9 L859.7,167.1 L860.3,159.0 L861.0,161.3 L861.7,154.4 L862.6,162.5 L863.2,163.6 L863.8,149.8 L864.5,162.5 L865.2,161.3 L865.8,154.4 L866.5,152.1 L867.2,148.6 L867.8,154.4 L868.5,156.7 L869.2,146.3 L869.7,157.8 L870.4,148.6 L871.0,150.9 L871.7,153.2 L872.4,153.2 L873.0,165.9 L873.7,150.9 L874.4,149.8 L875.0,159.0 L875.7,149.8 L876.6,160.1 L877.3,165.9 L878.0,163.6 L878.6,162.5 L879.3,156.7 L880.0,150.9 L880.6,162.5 L881.3,149.8 L882.0,164.8 L882.7,149.8 L883.3,153.2 L884.0,152.1 L884.7,153.2 L885.2,153.2 L885.9,149.8 L886.4,163.6 L887.1,153.2 L887.7,157.8 L888.4,167.1 L889.1,163.6 L889.7,154.4 L890.7,155.5 L891.3,164.8 L892.0,154.4 L892.7,156.7 L893.3,147.5 L894.0,160.1 L894.7,149.8 L895.3,159.0 L896.0,161.3 L896.7,165.9 L897.3,146.3 L898.0,148.6 L898.7,150.9 L899.4,152.1 L900.0,160.1 L900.6,162.5 L901.2,150.9 L901.9,163.6 L902.6,153.2 L903.2,161.3 L903.9,163.6 L904.8,153.2 L905.4,159.0 L906.0,150.9 L906.7,156.7 L907.4,160.1 L908.0,148.6 L908.7,154.4 L909.4,161.3 L910.0,146.3 L910.7,155.5 L911.4,155.5 L912.0,152.1 L912.6,152.1 L913.2,167.1 L913.8,163.6 L914.4,150.9 L915.1,157.8 L915.7,156.7 L916.3,148.6 L917.0,164.8 L917.7,162.5 L918.7,148.6 L919.4,160.1 L920.1,163.6 L920.7,155.5 L921.4,159.0 L922.1,159.0 L922.7,160.1 L923.4,154.4 L924.1,150.9 L924.7,150.9 L925.4,148.6 L926.1,150.9 L926.7,167.1 L927.3,160.1 L927.9,161.3 L928.6,150.9 L929.3,160.1 L929.9,161.3 L930.5,157.8 L931.1,157.8 L931.8,164.8 L932.8,145.2 L933.4,155.5 L934.1,152.1 L934.8,165.9 L935.4,161.3 L936.1,155.5 L936.7,154.4 L937.3,164.8 L938.0,147.5 L938.5,154.4 L939.2,147.5 L939.8,161.3 L940.4,146.3 L941.0,160.1 L941.7,160.1 L942.4,150.9 L943.0,165.9 L943.7,149.8 L944.3,146.3 L944.9,152.1 L945.5,154.4 L946.1,147.5 L946.9,150.9 L947.5,169.4 L948.1,154.4 L948.8,161.3 L949.5,149.8 L950.1,155.5 L950.8,159.0 L951.5,154.4 L952.1,157.8 L952.8,167.1 L953.5,157.8 L954.0,161.3 L954.7,161.3 L955.3,156.7 L956.0,150.9 L956.7,146.3 L957.3,160.1 L958.0,155.5 L958.7,161.3 L959.3,150.9 L960.0,159.0 L960.9,148.6 L961.5,153.2 L962.1,167.1 L962.8,162.5 L963.4,152.1 L964.0,165.9 L964.7,164.8 L965.3,156.7 L965.9,159.0 L966.6,149.8 L967.2,149.8 L967.9,160.1 L968.6,164.8 L969.2,152.1 L969.9,149.8 L970.6,147.5 L971.2,162.5 L971.9,152.1 L972.6,153.2 L973.2,165.9 L973.9,155.5 L974.9,147.5 L975.5,157.8 L976.2,147.5 L976.7,167.1 L977.4,164.8 L978.0,150.9 L978.7,159.0 L979.3,157.8 L979.9,147.5 L980.6,154.4 L981.3,160.1 L981.9,164.8 L982.6,157.8 L983.3,162.5 L983.9,159.0 L984.6,150.9 L985.3,152.1 L985.9,162.5 L986.6,152.1 L987.3,155.5 L987.9,149.8 L988.9,161.3 L989.5,147.5 L990.2,159.0 L990.9,163.6 L991.5,162.5 L992.2,147.5 L992.9,148.6 L993.5,165.9 L994.2,154.4 L994.9,149.8 L995.6,149.8 L996.1,165.9 L996.8,148.6 L997.4,150.9 L998.1,162.5 L998.8,152.1 L999.4,156.7 L1000.1,161.3 L1000.8,161.3 L1001.4,156.7 L1002.1,161.3 L1003.0,164.8 L1003.6,148.6 L1004.2,162.5 L1004.9,161.3 L1005.6,148.6 L1006.1,156.7 L1006.8,149.8 L1007.4,150.9 L1008.0,163.6 L1008.6,161.3 L1009.2,156.7 L1009.8,155.5 L1010.5,150.9 L1011.2,163.6 L1011.9,157.8 L1012.5,159.0 L1013.1,162.5 L1013.7,146.3 L1014.3,161.3 L1014.9,163.6 L1015.6,146.3 L1016.3,152.1 L1017.1,161.3 L1017.7,160.1 L1018.4,145.2 L1019.1,154.4 L1019.7,155.5 L1020.4,148.6 L1021.1,164.8 L1021.7,163.6 L1022.4,144.0 L1023.1,149.8 L1023.7,132.5 L1024.4,129.0 L1025.1,114.0 L1025.7,119.8 L1026.4,124.4 L1027.1,117.5 L1027.7,96.7 L1028.3,100.2 L1029.0,89.8 L1029.6,94.4 L1030.3,95.6 L1031.1,96.7 L1031.8,106.0 L1032.4,88.7 L1033.1,102.5 L1033.8,89.8 L1034.4,96.7 L1035.1,86.4 L1035.8,99.1 L1036.4,89.8 L1037.1,104.8 L1037.8,84.1 L1038.4,89.8 L1039.1,82.9 L1039.8,102.5 L1040.4,86.4 L1041.0,91.0 L1041.6,100.2 L1042.3,79.5 L1043.0,95.6 L1043.6,99.1 L1044.3,78.3 L1045.2,116.3 L1045.8,115.2 L1046.5,109.4 L1047.1,117.5 L1047.8,117.5 L1048.5,114.0 L1049.1,103.7 L1049.8,93.3 L1050.5,101.4 L1051.1,101.4 L1051.8,93.3 L1052.6,97.9 L1053.2,96.7 L1053.7,82.9 L1054.3,85.2 L1055.0,100.2 L1055.7,76.0 L1056.3,78.3 L1057.0,92.1 L1057.7,93.3 L1058.3,93.3 L1059.8,100.2 L1060.4,87.5 L1061.0,82.9 L1061.7,85.2 L1062.4,93.3 L1063.0,100.2 L1063.7,84.1 L1064.4,102.5 L1065.0,94.4 L1065.7,86.4 L1066.4,101.4 L1067.0,104.8 L1068.6,145.2 L1069.2,180.9 L1069.8,193.6 L1070.5,197.0 L1071.2,220.1 L1071.8,224.7 L1072.5,235.1 L1073.2,245.4 L1074.2,265.0 L1074.8,272.0 L1075.4,276.6 L1076.1,281.2 L1076.8,291.6 L1077.4,295.0 L1078.1,300.8 L1078.8,300.8 L1079.5,306.5 L1080.1,312.3 L1080.8,315.8 L1081.4,315.8 L1082.0,316.9 L1082.7,322.7 L1083.3,322.7 L1084.0,326.1" fill="none" stroke="#ff7f0e" stroke-width="1.1" opacity="0.85"/><text x="616" y="572" font-size="11" fill="#888">time 0..35 s — altitude (blue) &amp; roll (orange)</text></svg>