<svg xmlns="http://www.w3.org/2000/svg" width="1140" height="600" font-family="sans-serif" font-size="13"><rect width="1140" height="600" fill="white"/><text x="20" y="26" font-size="15" fill="#333">Coludo flight</text><rect x="20" y="40" width="540" height="540" fill="#fbfbfb" stroke="#ddd"/><rect x="50" y="304" width="295" height="63" fill="#cde" stroke="#369" opacity="0.7"/><text x="50" y="299" fill="#369" font-size="12">landing zone</text><circle cx="236" cy="403" r="5" fill="black"/><text x="244" y="407" font-size="12">pad</text><path d="M237.1,402.9 L237.1,402.9 L237.1,402.9 L237.1,402.9 L237.1,402.9 L237.1,402.9 L237.1,402.9 L237.1,402.9 L237.1,402.9 L237.1,402.9 L237.1,402.9 L237.1,402.9 L237.1,402.9 L237.1,402.9 L237.1,402.9 L237.1,402.9 L237.1,402.9 L237.1,402.9 L237.1,402.9 L237.1,402.9 L237.1,402.9 L237.1,402.9 L237.1,402.9 L237.1,402.9 L237.1,402.9 L237.1,402.9 L237.1,402.9 L237.1,402.9 L237.1,402.9 L237.1,402.9 L237.1,402.9 L237.1,402.9 L237.1,402.9 L237.1,402.9 L237.1,402.9 L237.1,402.9 L237.1,402.9 L237.1,402.9 L237.1,402.9 L237.1,402.9 L237.1,402.9 L237.1,402.9 L237.1,402.9 L237.1,402.9 L237.1,402.9 L237.1,402.9 L237.1,402.9 L237.1,402.9 L237.1,402.2 L238.7,399.4 L240.3,397.3 L241.9,395.2 L243.1,393.8 L243.5,391.0 L246.6,388.5 L248.2,386.7 L249.8,384.3 L253.0,381.8 L253.3,380.1 L256.1,378.3 L257.7,376.6 L259.3,374.5 L260.9,373.1 L263.4,371.3 L265.6,369.9 L268.5,367.8 L270.4,366.4 L273.5,365.0 L274.8,363.2 L278.3,361.1 L278.6,359.7 L281.5,358.0 L283.7,356.6 L284.6,355.2 L287.8,353.1 L289.4,350.6 L290.9,349.2 L294.1,346.8 L295.7,344.3 L298.9,341.8 L300.1,340.1 L300.4,337.3 L303.6,334.5 L303.9,332.7 L305.2,329.9 L306.8,327.5 L308.4,325.3 L309.0,321.8 L309.9,319.0 L311.5,315.5 L313.1,313.1 L313.1,310.6 L314.1,308.5 L314.1,305.7 L314.7,302.5 L314.7,299.0 L316.3,296.9 L316.3,293.8 L317.9,290.3 L317.9,287.1 L319.4,285.4 L319.4,282.2 L319.8,280.1 L321.0,276.9 L322.6,273.8 L322.6,271.7 L324.2,269.2 L325.8,265.7 L327.4,262.9 L328.9,260.8 L329.3,258.0 L330.5,256.6 L333.7,253.4 L335.3,251.0 L336.9,248.9 L340.0,246.4 L341.6,243.6 L344.8,241.8 L345.1,240.1 L347.9,238.0 L351.4,235.9 L352.7,234.8 L354.6,232.7 L355.9,231.7 L359.7,229.6 L362.2,228.2 L365.4,227.5 L366.0,226.4 L368.5,225.4 L370.4,224.0 L373.3,223.3 L376.4,221.9 L379.6,220.8 L382.8,220.1 L385.9,219.4 L387.5,219.0 L391.3,218.3 L393.9,218.0 L397.0,217.6 L400.2,217.3 L401.8,217.3 L404.9,216.9 L408.1,217.3 L409.7,217.3 L412.8,217.3 L417.3,217.6 L419.2,218.0 L422.3,218.7 L426.8,219.4 L428.7,220.1 L431.8,220.8 L433.4,221.2 L436.6,222.2 L439.8,223.3 L441.3,224.3 L444.5,225.4 L446.4,226.8 L450.8,228.2 L452.1,229.6 L454.0,230.6 L457.2,232.4 L457.2,233.4 L461.9,235.2 L463.5,237.3 L466.7,239.4 L469.8,241.5 L471.4,242.6 L473.0,244.7 L476.2,246.1 L478.1,247.8 L477.8,249.2 L480.9,251.0 L482.5,252.7 L484.1,254.1 L487.6,256.6 L488.8,258.3 L492.0,260.1 L493.6,262.5 L495.2,264.0 L497.1,265.0 L499.9,267.8 L501.5,269.2 L503.1,271.3 L506.3,273.1 L507.8,274.8 L511.0,278.0 L512.9,279.7 L514.2,281.5 L517.3,282.9 L518.9,285.4 L520.5,286.8 L523.0,288.9 L523.7,290.6 L526.8,292.7 L528.4,294.1 L530.0,296.6" fill="none" stroke="#1f77b4" stroke-width="1.7" opacity="0.85"/><circle cx="530" cy="297" r="4.5" fill="#1f77b4"/><text x="28" y="572" font-size="11" fill="#888">ground track — m from pad (N up)</text><rect x="580" y="40" width="540" height="540" fill="#fbfbfb" stroke="#ddd"/><text x="586" y="54" fill="#1f77b4" font-size="11">alt 107</text><text x="586" y="558" fill="#1f77b4" font-size="11">-44</text><path d="M616.7,401.5 L617.6,401.3 L618.5,400.9 L619.5,400.4 L620.4,399.5 L621.3,398.7 L622.2,397.4 L623.1,396.3 L623.9,395.2 L624.7,393.4 L625.6,391.9 L626.6,389.6 L627.5,387.9 L628.4,385.2 L629.3,383.2 L630.2,380.0 L631.1,377.8 L632.0,374.2 L632.9,371.7 L633.8,367.7 L634.8,365.1 L635.5,362.2 L636.4,357.6 L637.3,354.5 L638.2,349.5 L639.1,346.1 L640.0,340.7 L641.0,337.3 L641.9,331.6 L642.8,327.2 L643.7,321.4 L644.6,317.3 L645.5,310.6 L646.4,306.3 L647.3,299.2 L648.2,294.3 L649.0,289.6 L649.9,283.0 L650.8,278.2 L651.7,271.0 L652.6,267.1 L653.5,260.3 L654.4,255.6 L655.3,249.4 L656.3,244.9 L657.2,238.5 L658.1,234.5 L658.9,230.9 L659.7,224.9 L660.6,220.9 L661.5,215.3 L662.4,211.5 L663.4,206.3 L664.3,202.5 L665.2,196.9 L666.1,193.5 L667.0,188.8 L667.9,185.5 L668.8,180.5 L669.7,176.6 L670.5,174.3 L671.3,170.4 L672.1,166.5 L673.0,162.7 L673.9,158.7 L674.8,155.5 L675.7,151.2 L676.7,149.2 L677.6,144.7 L678.5,141.8 L679.4,138.6 L680.2,136.8 L681.0,133.3 L682.0,129.8 L682.9,128.5 L683.8,125.1 L684.7,122.4 L685.6,119.9 L686.5,116.9 L687.4,113.9 L688.3,113.0 L689.2,110.2 L690.1,108.5 L691.1,105.6 L692.0,104.5 L692.9,101.6 L693.7,100.5 L694.5,98.8 L695.4,95.8 L696.3,95.5 L697.2,92.8 L698.2,91.5 L699.1,89.4 L700.0,88.1 L700.9,87.4 L701.8,87.1 L702.7,84.5 L703.5,84.6 L704.3,83.2 L705.3,82.7 L706.2,80.8 L707.1,79.8 L708.0,80.1 L708.9,78.9 L709.8,77.9 L710.7,77.4 L711.6,78.1 L712.5,78.0 L713.5,77.9 L714.4,77.5 L715.3,77.4 L716.2,76.0 L717.0,77.2 L717.8,77.0 L718.7,77.2 L719.7,78.1 L720.6,77.6 L721.5,77.3 L722.4,79.4 L723.3,79.5 L724.2,79.1 L725.1,80.6 L726.0,81.6 L726.9,82.8 L727.7,83.2 L728.6,84.3 L729.5,84.8 L730.4,86.3 L731.3,87.5 L732.2,89.4 L733.1,89.3 L734.0,92.0 L734.8,92.3 L735.7,93.8 L736.6,95.7 L737.5,96.5 L738.4,96.1 L739.3,97.0 L740.2,97.3 L741.2,96.7 L742.1,97.8 L743.0,97.4 L743.9,98.5 L744.8,98.1 L745.7,98.9 L746.6,98.2 L747.5,98.1 L748.3,99.3 L749.2,99.6 L750.1,99.1 L751.0,100.5 L751.9,100.4 L752.8,101.0 L753.7,100.4 L754.6,101.2 L755.5,101.5 L756.5,101.7 L757.4,101.8 L758.3,102.7 L759.2,102.3 L760.1,102.3 L761.0,103.2 L761.8,103.1 L762.6,104.2 L763.6,104.8 L764.5,104.7 L765.3,104.8 L766.1,104.8 L767.0,106.5 L767.9,106.9 L768.8,106.1 L769.6,107.4 L770.5,108.0 L771.4,108.7 L772.3,109.1 L773.2,109.5 L774.1,110.0 L775.0,109.9 L775.9,110.7 L776.9,110.9 L777.8,112.1 L778.7,111.4 L779.6,112.9 L780.5,112.7 L781.4,113.8 L782.8,113.6 L783.6,115.4 L784.5,115.7 L785.4,115.9 L786.3,116.4 L787.2,116.3 L788.1,117.0 L788.9,117.4 L789.8,118.2 L790.7,119.6 L791.6,120.4 L792.5,119.9 L793.4,121.4 L794.3,121.8 L795.3,122.5 L796.2,122.3 L797.1,123.9 L798.0,124.2 L798.9,124.9 L799.8,124.7 L800.7,126.6 L801.6,126.7 L802.4,127.6 L803.3,127.7 L804.2,128.4 L805.1,129.5 L806.0,129.8 L806.9,129.9 L807.8,131.8 L808.7,132.6 L809.6,132.6 L810.6,133.9 L811.5,134.1 L812.4,135.0 L813.3,135.2 L814.2,136.9 L815.1,137.7 L816.0,138.2 L816.9,138.2 L817.8,140.3 L818.8,140.5 L819.7,141.3 L820.6,141.5 L821.4,142.0 L822.2,144.2 L823.1,143.9 L824.0,145.1 L824.9,145.7 L825.9,146.6 L826.8,148.3 L827.7,149.1 L828.6,149.8 L829.5,151.1 L830.4,151.4 L831.3,151.7 L832.2,153.4 L833.1,154.2 L834.1,154.2 L834.8,156.0 L835.7,156.0 L836.6,157.9 L837.5,158.4 L838.4,159.2 L839.3,159.8 L840.3,160.8 L841.0,161.9 L841.9,163.4 L842.8,163.3 L843.7,164.7 L844.6,165.7 L845.5,166.8 L846.4,167.5 L847.4,169.2 L848.3,170.3 L849.2,170.5 L850.1,171.3 L851.0,172.6 L851.9,174.3 L852.8,174.6 L853.7,175.2 L854.6,176.4 L855.6,177.5 L856.3,179.0 L857.2,179.3 L858.1,180.7 L859.0,182.3 L859.9,182.6 L860.8,184.3 L861.7,184.3 L862.7,186.5 L863.6,186.7 L864.5,188.0 L865.4,189.3 L866.3,190.6 L867.2,191.0 L868.1,192.0 L869.0,193.6 L869.9,194.5 L870.9,195.5 L871.6,196.6 L872.5,197.5 L873.4,198.4 L874.3,200.3 L875.2,200.8 L876.5,202.1 L877.3,203.6 L878.1,204.5 L879.1,205.3 L880.0,206.4 L880.9,208.5 L881.8,209.3 L882.7,210.5 L883.6,211.7 L884.5,213.1 L885.4,213.7 L886.3,215.4 L887.3,216.3 L888.2,217.2 L889.1,218.0 L890.0,219.6 L890.9,220.7 L891.8,222.2 L892.6,223.1 L893.4,223.7 L894.4,225.2 L895.2,226.1 L896.0,227.3 L896.9,229.2 L897.8,229.8 L898.7,231.2 L899.6,232.9 L900.4,233.4 L901.3,235.3 L902.2,236.4 L903.1,237.1 L904.0,238.2 L904.9,239.8 L905.8,240.9 L906.8,242.4 L907.7,243.3 L908.6,245.1 L909.5,245.9 L910.4,247.6 L911.3,249.0 L912.2,250.4 L913.1,251.8 L914.1,253.0 L915.0,254.5 L915.9,255.4 L916.8,257.2 L917.7,258.2 L918.6,259.7 L919.5,261.4 L920.4,262.5 L921.3,264.1 L922.2,264.7 L923.1,266.6 L924.1,267.5 L925.0,269.6 L925.9,270.1 L926.8,272.2 L927.6,273.5 L928.4,274.5 L929.3,276.3 L930.2,276.8 L931.2,278.7 L932.1,279.6 L933.1,281.3 L933.9,282.8 L934.8,284.5 L935.7,285.5 L936.6,287.0 L937.5,288.3 L938.4,290.1 L939.2,291.1 L940.1,292.4 L941.0,294.3 L941.9,295.0 L942.8,296.9 L943.7,297.9 L944.6,299.7 L945.5,301.1 L946.5,302.6 L947.4,303.8 L948.3,305.9 L949.2,307.1 L950.1,308.7 L951.0,309.8 L952.3,312.2 L953.2,313.6 L954.1,315.1 L955.0,316.5 L955.9,318.4 L956.8,319.6 L957.8,321.4 L958.5,322.4 L959.4,323.7 L960.3,325.6 L961.2,326.7 L962.1,328.6 L963.0,329.8 L964.0,331.6 L964.9,332.7 L965.8,334.7 L966.7,335.9 L967.6,337.7 L968.5,338.9 L969.4,340.7 L970.3,342.0 L971.5,344.0 L972.3,345.9 L973.2,346.8 L974.2,348.8 L975.1,350.2 L976.0,351.9 L976.9,353.1 L977.7,354.3 L978.5,356.3 L979.4,357.7 L980.3,359.4 L981.3,360.8 L982.2,362.8 L983.1,364.0 L984.0,365.8 L984.9,367.1 L985.8,369.0 L986.7,370.4 L987.6,372.2 L988.5,373.7 L989.5,375.5 L990.5,376.7 L991.3,378.7 L992.2,380.1 L993.0,381.3 L993.8,383.3 L994.7,384.6 L995.7,386.5 L996.6,387.8 L997.5,389.8 L998.4,391.1 L999.3,393.1 L1000.2,394.4 L1001.1,396.4 L1002.0,397.7 L1002.9,399.7 L1003.8,401.0 L1004.8,403.0 L1005.7,404.3 L1006.5,405.6 L1007.3,407.6 L1008.2,408.9 L1009.7,411.5 L1010.6,413.5 L1011.5,414.8 L1012.3,416.1 L1013.1,418.1 L1014.0,419.4 L1015.0,421.5 L1015.9,422.7 L1016.8,424.8 L1017.7,426.1 L1018.6,428.0 L1019.5,429.4 L1020.4,431.4 L1021.3,432.7 L1022.2,434.7 L1023.2,436.1 L1024.1,438.0 L1025.0,439.3 L1025.9,441.2 L1026.8,442.6 L1027.6,444.0 L1028.9,446.5 L1029.7,447.9 L1030.6,449.7 L1031.6,451.3 L1032.4,453.0 L1033.4,454.4 L1034.3,456.4 L1035.2,457.8 L1036.1,459.8 L1037.0,461.0 L1037.9,463.0 L1038.8,464.2 L1039.7,466.3 L1040.6,467.5 L1041.6,469.5 L1042.5,470.9 L1043.4,473.1 L1044.3,474.3 L1045.2,476.2 L1046.1,477.4 L1047.0,479.4 L1048.1,481.3 L1049.0,482.8 L1049.9,484.7 L1050.7,486.1 L1051.6,487.5 L1052.5,489.3 L1053.4,490.7 L1054.3,492.8 L1055.2,494.0 L1056.1,496.0 L1057.0,497.4 L1058.0,499.4 L1058.9,500.5 L1060.6,503.9 L1061.4,504.9 L1062.3,507.3 L1063.2,508.3 L1064.1,510.2 L1065.1,511.8 L1066.0,513.3 L1066.9,514.9 L1067.8,516.7 L1068.7,518.2 L1069.6,520.0 L1070.5,521.0 L1071.4,523.1 L1072.3,524.6 L1073.3,526.7 L1074.2,527.9 L1075.1,529.4 L1076.0,530.9 L1076.8,531.9 L1077.6,534.0 L1078.5,535.3 L1079.4,537.2 L1080.4,538.3 L1081.3,539.9 L1082.2,541.0 L1083.1,542.9 L1084.0,544.0" fill="none" stroke="#1f77b4" stroke-width="1.4" opacity="0.85"/><text x="1040" y="54" fill="#ff7f0e" font-size="11">roll 18</text><text x="1090" y="558" fill="#ff7f0e" font-size="11">-17</text><path d="M616.7,312.7 L617.6,312.7 L618.5,312.7 L619.5,312.7 L620.4,312.7 L621.3,312.7 L622.2,312.7 L623.1,312.7 L623.9,312.7 L624.7,312.7 L625.6,312.7 L626.6,312.7 L627.5,312.7 L628.4,312.7 L629.3,312.7 L630.2,312.7 L631.1,312.7 L632.0,312.7 L632.9,314.0 L633.8,312.7 L634.8,312.7 L635.5,312.7 L636.4,312.7 L637.3,312.7 L638.2,312.7 L639.1,312.7 L640.0,312.7 L640.9,312.7 L641.9,314.0 L642.8,312.7 L643.7,312.7 L644.6,314.0 L645.5,312.7 L646.4,314.0 L647.3,314.0 L648.2,312.7 L649.0,312.7 L649.9,312.7 L650.8,314.0 L651.7,314.0 L652.6,312.7 L653.5,312.7 L654.4,314.0 L655.3,314.0 L656.2,312.7 L657.2,314.0 L658.1,314.0 L658.9,314.0 L659.7,314.0 L660.6,312.7 L661.5,314.0 L662.4,314.0 L663.4,314.0 L664.3,314.0 L665.2,314.0 L666.1,314.0 L667.0,314.0 L667.9,314.0 L668.8,314.0 L669.7,314.0 L670.5,314.0 L671.3,314.0 L672.1,314.0 L673.0,314.0 L673.9,314.0 L674.8,314.0 L675.7,314.0 L676.7,314.0 L677.6,314.0 L678.5,314.0 L679.4,314.0 L680.2,314.0 L681.0,314.0 L681.9,314.0 L682.8,314.0 L683.8,314.0 L684.7,314.0 L685.6,314.0 L686.5,312.7 L687.4,314.0 L688.3,314.0 L689.2,314.0 L690.1,314.0 L691.0,314.0 L692.0,314.0 L692.9,314.0 L693.6,314.0 L694.5,314.0 L695.4,312.7 L696.3,314.0 L697.2,314.0 L698.2,314.0 L699.1,314.0 L700.0,314.0 L700.9,314.0 L701.8,314.0 L702.7,314.0 L703.5,314.0 L704.3,314.0 L705.3,314.0 L706.2,314.0 L707.1,314.0 L708.0,314.0 L708.9,314.0 L709.8,314.0 L710.7,314.0 L711.6,314.0 L712.5,314.0 L713.5,314.0 L714.4,312.7 L715.3,312.7 L716.2,314.0 L717.0,314.0 L717.8,314.0 L718.7,314.0 L719.6,314.0 L720.6,314.0 L721.5,314.0 L722.4,314.0 L723.3,314.0 L724.2,314.0 L725.1,314.0 L726.0,314.0 L726.9,314.0 L727.7,314.0 L728.6,314.0 L729.5,314.0 L730.4,314.0 L731.3,314.0 L732.2,314.0 L733.1,314.0 L734.0,314.0 L734.8,314.0 L735.7,314.0 L736.6,314.0 L737.5,299.4 L738.4,264.8 L739.3,242.2 L740.2,215.6 L741.1,198.3 L742.1,167.7 L743.0,163.8 L743.9,147.8 L744.8,131.8 L745.7,127.9 L746.6,114.6 L747.5,119.9 L748.3,106.6 L749.2,106.6 L750.1,101.3 L751.0,103.9 L751.9,106.6 L752.8,107.9 L753.7,106.6 L754.6,93.3 L755.5,109.2 L756.4,106.6 L757.4,103.9 L758.3,103.9 L759.2,98.6 L760.1,95.9 L761.0,88.0 L761.8,103.9 L762.6,98.6 L763.6,114.6 L764.5,101.3 L765.2,103.9 L766.1,102.6 L767.0,110.6 L767.9,121.2 L768.8,130.5 L769.6,137.2 L770.5,143.8 L771.4,145.1 L772.3,135.8 L773.2,149.1 L774.1,158.4 L775.0,141.1 L775.9,154.4 L776.9,163.8 L777.8,167.7 L778.7,158.4 L779.6,222.3 L780.5,256.8 L781.4,299.4 L782.8,341.9 L783.6,373.8 L784.5,396.4 L785.4,433.6 L786.3,449.6 L787.2,470.9 L788.1,476.2 L788.9,481.5 L789.8,496.1 L790.7,506.8 L791.6,517.4 L792.5,521.4 L793.4,517.4 L794.3,524.1 L795.3,521.4 L796.2,536.0 L797.1,525.4 L798.0,537.4 L798.9,524.1 L799.8,529.4 L800.7,518.7 L801.6,526.7 L802.4,538.7 L803.3,521.4 L804.2,521.4 L805.1,530.7 L806.0,534.7 L806.9,525.4 L807.8,533.4 L808.7,537.4 L809.6,538.7 L810.6,528.0 L811.5,521.4 L812.4,532.0 L813.3,530.7 L814.2,540.0 L815.1,528.0 L816.0,533.4 L816.9,526.7 L817.8,522.7 L818.8,536.0 L819.7,533.4 L820.6,530.7 L821.4,522.7 L822.2,533.4 L823.1,533.4 L824.0,530.7 L824.9,529.4 L825.9,526.7 L826.8,528.0 L827.7,538.7 L828.6,541.3 L829.5,525.4 L830.4,537.4 L831.3,534.7 L832.2,533.4 L833.1,536.0 L834.1,522.7 L834.8,538.7 L835.7,532.0 L836.6,521.4 L837.5,544.0 L838.4,522.7 L839.3,525.4 L840.2,534.7 L841.0,538.7 L841.9,541.3 L842.8,524.1 L843.7,529.4 L844.6,532.0 L845.5,466.9 L846.4,432.3 L847.4,373.8 L848.3,347.2 L849.2,302.0 L850.1,278.1 L851.0,246.2 L851.9,220.9 L852.8,189.0 L853.7,174.4 L854.6,149.1 L855.6,151.8 L856.3,130.5 L857.2,126.5 L858.1,122.5 L859.0,121.2 L859.9,110.6 L860.8,114.6 L861.7,101.3 L862.7,97.3 L863.6,111.9 L864.5,98.6 L865.4,103.9 L866.3,95.9 L867.2,97.3 L868.1,99.9 L869.0,94.6 L869.9,103.9 L870.9,105.3 L871.6,102.6 L872.5,86.6 L873.4,106.6 L874.3,86.6 L875.2,88.0 L876.5,105.3 L877.3,102.6 L878.1,105.3 L879.1,89.3 L880.0,106.6 L880.9,98.6 L881.8,88.0 L882.7,102.6 L883.6,95.9 L884.5,86.6 L885.4,99.9 L886.3,86.6 L887.2,101.3 L888.2,103.9 L889.1,102.6 L890.0,89.3 L890.9,86.6 L891.8,101.3 L892.6,93.3 L893.4,101.3 L894.4,103.9 L895.2,89.3 L896.0,107.9 L896.9,95.9 L897.8,94.6 L898.7,101.3 L899.6,88.0 L900.4,95.9 L901.3,89.3 L902.2,101.3 L903.1,93.3 L904.0,107.9 L904.9,101.3 L905.8,95.9 L906.7,84.0 L907.7,90.6 L908.6,95.9 L909.5,95.9 L910.4,103.9 L911.3,102.6 L912.2,93.3 L913.1,103.9 L914.0,99.9 L915.0,102.6 L915.9,94.6 L916.8,93.3 L917.7,106.6 L918.6,99.9 L919.5,95.9 L920.4,88.0 L921.3,102.6 L922.2,98.6 L923.1,88.0 L924.0,90.6 L925.0,97.3 L925.9,105.3 L926.8,106.6 L927.6,93.3 L928.4,102.6 L929.3,105.3 L930.2,88.0 L931.2,89.3 L932.1,107.9 L933.1,93.3 L933.9,89.3 L934.8,94.6 L935.7,81.3 L936.6,86.6 L937.5,88.0 L938.4,97.3 L939.2,84.0 L940.1,95.9 L941.0,101.3 L941.9,105.3 L942.8,93.3 L943.7,94.6 L944.6,93.3 L945.5,86.6 L946.5,95.9 L947.4,92.0 L948.3,98.6 L949.2,95.9 L950.1,101.3 L951.0,88.0 L952.3,103.9 L953.2,92.0 L954.1,106.6 L955.0,103.9 L955.9,101.3 L956.8,98.6 L957.8,95.9 L958.5,95.9 L959.4,85.3 L960.3,88.0 L961.2,105.3 L962.1,94.6 L963.0,88.0 L963.9,89.3 L964.9,93.3 L965.8,109.2 L966.7,86.6 L967.6,105.3 L968.5,94.6 L969.4,103.9 L970.3,97.3 L971.5,85.3 L972.3,90.6 L973.2,88.0 L974.1,101.3 L975.1,99.9 L976.0,97.3 L976.9,93.3 L977.7,105.3 L978.5,99.9 L979.4,93.3 L980.3,94.6 L981.2,107.9 L982.2,86.6 L983.1,85.3 L984.0,98.6 L984.9,103.9 L985.8,88.0 L986.7,94.6 L987.6,95.9 L988.5,105.3 L989.5,103.9 L990.5,93.3 L991.3,90.6 L992.2,107.9 L993.0,89.3 L993.8,86.6 L994.7,102.6 L995.6,94.6 L996.6,95.9 L997.5,92.0 L998.4,76.0 L999.3,123.9 L1000.2,143.8 L1001.1,161.1 L1002.0,169.1 L1002.9,181.0 L1003.8,171.7 L1004.8,174.4 L1005.7,194.3 L1006.4,199.6 L1007.3,214.3 L1008.2,212.9 L1009.7,194.3 L1010.6,203.6 L1011.5,183.7 L1012.3,197.0 L1013.1,190.3 L1014.0,194.3 L1015.0,207.6 L1015.9,226.2 L1016.8,224.9 L1017.7,227.6 L1018.6,240.9 L1019.5,251.5 L1020.4,244.9 L1021.3,259.5 L1022.2,255.5 L1023.2,256.8 L1024.1,246.2 L1025.0,264.8 L1025.9,280.8 L1026.8,266.1 L1027.6,268.8 L1028.9,263.5 L1029.7,276.8 L1030.6,272.8 L1031.6,260.8 L1032.4,243.5 L1033.4,262.1 L1034.3,268.8 L1035.2,274.1 L1036.1,278.1 L1037.0,263.5 L1037.9,264.8 L1038.8,272.8 L1039.7,284.7 L1040.6,292.7 L1041.6,304.7 L1042.5,307.3 L1043.4,314.0 L1044.3,310.0 L1045.2,315.3 L1046.1,319.3 L1047.0,302.0 L1048.1,291.4 L1049.0,298.0 L1049.9,300.7 L1050.7,291.4 L1051.6,287.4 L1052.5,299.4 L1053.4,291.4 L1054.3,272.8 L1055.2,276.8 L1056.1,287.4 L1057.0,284.7 L1057.9,302.0 L1058.9,295.4 L1060.6,296.7 L1061.4,298.0 L1062.3,299.4 L1063.2,300.7 L1064.1,302.0 L1065.1,303.4 L1066.0,304.7 L1066.9,304.7 L1067.8,307.3 L1068.7,306.0 L1069.6,306.0 L1070.5,308.7 L1071.4,308.7 L1072.3,308.7 L1073.2,308.7 L1074.2,310.0 L1075.1,310.0 L1076.0,310.0 L1076.8,311.3 L1077.6,310.0 L1078.5,310.0 L1079.4,310.0 L1080.4,311.3 L1081.3,311.3 L1082.2,311.3 L1083.1,311.3 L1084.0,311.3" fill="none" stroke="#ff7f0e" stroke-width="1.1" opacity="0.85"/><text x="616" y="572" font-size="11" fill="#888">time 0..26 s — altitude (blue) &amp; roll (orange)</text></svg>