<svg xmlns="http://www.w3.org/2000/svg" width="1140" height="600" font-family="sans-serif" font-size="13"><rect width="1140" height="600" fill="white"/><text x="20" y="26" font-size="15" fill="#333">Coludo flight</text><rect x="20" y="40" width="540" height="540" fill="#fbfbfb" stroke="#ddd"/><rect x="50" y="304" width="318" height="68" fill="#cde" stroke="#369" opacity="0.7"/><text x="50" y="299" fill="#369" font-size="12">landing zone</text><circle cx="251" cy="411" r="5" fill="black"/><text x="259" y="415" font-size="12">pad</text><path d="M251.8,410.7 L251.8,410.7 L251.8,410.7 L251.8,410.7 L251.8,410.7 L251.8,410.7 L251.8,410.7 L251.8,410.7 L251.8,410.7 L251.8,410.7 L251.8,410.7 L251.8,410.7 L251.8,410.7 L251.8,410.7 L251.8,410.7 L251.8,410.7 L251.8,410.7 L251.8,410.7 L251.8,410.7 L251.8,410.7 L251.8,410.7 L251.8,410.7 L251.8,410.7 L251.8,410.7 L251.8,410.7 L251.8,410.7 L251.8,410.7 L251.8,410.7 L251.8,410.7 L251.8,410.7 L251.8,410.7 L251.8,410.7 L251.8,410.7 L251.8,410.7 L251.8,410.7 L251.8,410.7 L251.8,410.7 L251.8,410.7 L251.8,410.7 L251.8,410.7 L251.8,410.7 L251.8,410.7 L251.8,410.7 L251.8,410.7 L251.8,410.7 L252.8,408.1 L253.5,405.4 L256.9,402.4 L258.3,400.1 L258.6,397.5 L262.0,394.8 L263.7,392.6 L265.4,390.3 L268.8,387.6 L270.5,385.4 L272.2,383.5 L274.6,380.8 L277.4,378.9 L280.1,377.1 L282.5,374.8 L285.6,372.9 L287.6,371.0 L291.0,369.5 L292.7,367.6 L296.1,365.3 L297.9,363.4 L299.6,361.9 L301.9,359.3 L304.7,357.8 L306.4,355.1 L308.1,353.2 L311.5,350.9 L313.2,348.3 L314.9,345.7 L316.6,343.4 L318.3,340.4 L320.0,337.7 L321.7,334.7 L323.5,332.0 L323.8,329.4 L325.2,326.4 L326.9,323.0 L328.6,320.7 L329.3,317.3 L330.3,314.3 L330.3,311.2 L332.0,307.8 L332.0,304.8 L332.0,301.8 L333.7,298.7 L333.7,295.3 L334.7,292.3 L334.7,289.3 L334.7,286.3 L335.4,283.2 L337.1,280.2 L337.1,277.2 L338.8,274.2 L340.5,271.1 L340.9,268.1 L342.2,265.1 L343.9,262.4 L345.6,259.4 L347.4,256.4 L349.1,253.7 L350.8,251.5 L352.5,248.4 L354.2,246.2 L356.6,243.9 L357.6,241.2 L361.0,239.0 L362.7,237.1 L364.4,234.4 L367.8,232.5 L369.5,230.3 L373.0,228.8 L374.7,226.5 L378.1,225.0 L379.8,223.1 L383.2,221.6 L386.6,220.1 L388.3,218.5 L390.7,217.8 L393.4,216.3 L396.9,215.1 L400.3,214.0 L402.0,213.3 L405.7,212.5 L408.8,211.7 L412.2,211.0 L415.6,210.6 L418.0,209.8 L422.5,209.5 L424.2,209.5 L427.6,209.1 L431.0,209.1 L434.4,209.1 L437.8,209.5 L441.2,209.5 L444.7,209.8 L446.4,210.6 L450.8,211.0 L453.2,211.7 L456.3,212.5 L460.0,213.6 L463.4,214.4 L466.8,215.5 L468.5,216.7 L473.3,218.2 L475.4,219.7 L477.4,221.2 L480.5,222.3 L483.6,224.2 L485.6,225.4 L489.0,227.6 L490.7,229.5 L494.2,231.0 L495.9,233.3 L497.6,235.6 L500.6,237.8 L502.7,240.1 L504.4,242.0 L506.1,244.7 L507.8,246.5 L511.6,249.2 L511.2,252.2 L514.6,254.9 L516.3,257.9 L516.3,260.2 L518.1,262.1 L519.8,265.5 L521.5,268.5 L521.8,270.8 L523.2,274.2 L524.9,277.2 L526.6,280.2 L526.6,283.6 L527.3,285.9 L527.3,289.3 L528.3,291.9 L528.3,295.3 L528.3,298.7 L530.0,301.8 L530.0,305.2 L530.0,307.8 L530.0,310.5 L530.0,313.9 L528.3,316.9 L528.3,320.3 L528.3,323.0 L527.3,326.4 L527.3,329.8 L526.6,332.4 L526.6,335.4 L524.9,338.1 L523.2,341.1 L523.2,344.5 L521.8,347.2 L521.5,349.8 L519.8,353.2 L516.3,355.9 L516.3,358.1 L514.6,361.2 L512.9,363.1 L511.2,366.1 L509.5,368.7 L507.8,370.6 L504.7,373.6 L502.7,375.9 L501.0,377.8 L499.3,380.1 L495.9,382.3 L494.2,384.6 L492.4,386.1 L489.0,388.4 L487.3,390.3 L483.9,392.2 L482.2,393.3 L478.8,394.8 L475.4,396.3 L473.3,397.9 L470.3,399.0 L466.5,400.1 L463.4,401.3 L461.7,401.6 L458.3,402.4 L456.3,402.8 L451.5,403.2 L449.8,403.5 L446.0,403.9 L442.9,403.9 L439.5,403.9 L436.1,403.5 L432.7,403.2 L429.3,402.4 L425.9,401.6 L423.5,401.3 L420.8,400.5 L417.3,399.4 L412.2,397.1 L408.8,395.6 L405.4,394.1 L402.0,392.9 L398.6,391.0 L395.5,389.5 L391.7,387.6 L390.7,386.5 L388.3,385.8" fill="none" stroke="#1f77b4" stroke-width="1.7" opacity="0.85"/><circle cx="388" cy="386" r="4.5" fill="#1f77b4"/><text x="28" y="572" font-size="11" fill="#888">ground track — m from pad (N up)</text><rect x="580" y="40" width="540" height="540" fill="#fbfbfb" stroke="#ddd"/><text x="586" y="54" fill="#1f77b4" font-size="11">alt 203</text><text x="586" y="558" fill="#1f77b4" font-size="11">-52</text><path d="M616.6,444.2 L617.2,444.1 L617.9,444.0 L618.7,443.1 L619.4,442.6 L620.0,441.7 L620.6,441.0 L621.2,440.3 L621.9,439.4 L622.5,436.9 L623.2,435.5 L623.8,434.3 L624.4,433.8 L625.0,430.6 L625.7,429.6 L626.3,427.6 L627.0,425.5 L627.6,420.8 L628.3,421.1 L628.9,418.5 L629.5,414.8 L630.1,410.0 L630.8,408.4 L631.5,407.6 L632.1,399.2 L632.8,398.5 L633.4,395.0 L634.0,391.7 L634.6,384.9 L635.3,386.5 L635.9,381.4 L636.6,373.4 L637.2,368.0 L637.9,365.4 L638.5,363.3 L639.1,361.5 L639.7,353.9 L640.4,344.8 L641.0,345.0 L641.7,341.7 L642.3,327.6 L642.9,331.1 L643.5,324.3 L644.2,324.7 L644.8,316.7 L645.5,303.2 L646.2,305.7 L646.8,296.7 L647.5,290.7 L648.1,289.7 L648.7,282.2 L649.3,287.8 L649.9,272.6 L650.6,275.0 L651.2,269.5 L651.8,272.6 L652.4,265.0 L653.1,251.1 L653.7,250.4 L654.3,257.1 L654.9,247.2 L655.5,233.6 L656.2,234.4 L656.8,247.4 L657.5,232.7 L658.1,234.0 L658.7,234.3 L659.4,219.5 L660.0,218.0 L660.6,205.4 L661.3,205.7 L661.9,215.5 L662.6,205.6 L663.2,199.6 L663.9,195.8 L664.6,184.6 L665.2,193.8 L665.8,181.5 L666.4,186.9 L667.1,190.9 L667.7,174.0 L668.4,173.5 L669.0,180.7 L670.2,183.2 L670.9,164.4 L671.5,178.7 L672.2,171.9 L672.8,160.7 L673.5,149.5 L674.2,166.9 L674.8,148.0 L675.4,150.4 L676.0,143.2 L676.7,136.1 L677.3,154.2 L677.9,128.3 L678.5,127.8 L679.1,127.1 L679.8,123.6 L680.4,138.7 L681.1,138.6 L681.7,124.0 L682.3,119.2 L682.9,118.7 L683.5,127.9 L684.2,117.1 L684.8,117.1 L685.5,114.0 L686.1,125.6 L686.6,118.9 L687.5,123.7 L688.2,96.4 L688.8,98.3 L689.4,93.3 L690.1,96.1 L690.7,114.1 L691.4,112.9 L692.0,99.7 L692.6,97.6 L693.2,87.2 L693.8,87.6 L694.5,92.0 L695.1,103.3 L695.8,96.4 L696.4,108.1 L697.1,87.2 L697.7,110.1 L698.3,79.2 L699.0,99.1 L699.6,101.1 L700.3,89.4 L700.9,100.0 L701.5,82.5 L702.1,83.0 L702.7,86.3 L703.4,106.9 L704.0,84.5 L704.7,94.3 L705.3,93.4 L705.9,100.2 L706.5,92.0 L707.1,94.4 L707.8,97.1 L708.4,83.9 L709.0,101.7 L709.6,81.1 L710.2,91.4 L710.9,82.2 L711.5,88.8 L712.1,76.3 L712.7,94.3 L713.4,108.3 L714.0,104.2 L714.6,80.4 L715.3,83.2 L715.9,95.4 L716.5,79.1 L717.1,76.0 L717.8,103.9 L718.4,90.7 L719.1,99.2 L719.7,95.7 L720.3,78.7 L720.9,85.6 L721.6,86.4 L722.3,97.2 L722.9,85.0 L723.6,107.0 L724.3,104.3 L724.9,98.0 L725.6,90.0 L726.2,92.9 L726.8,89.1 L727.4,105.7 L728.1,85.7 L728.7,108.0 L729.3,111.7 L729.9,101.4 L730.6,103.6 L731.2,114.2 L731.8,95.3 L732.4,105.8 L733.0,107.3 L733.6,113.7 L734.3,90.4 L734.9,95.1 L735.6,93.4 L736.2,105.8 L736.8,114.6 L737.4,95.7 L738.0,101.5 L738.7,104.1 L739.3,95.4 L740.0,114.9 L740.6,90.6 L741.2,110.7 L741.8,93.0 L742.4,94.2 L743.1,109.1 L743.7,114.5 L744.3,112.1 L745.1,120.6 L745.8,120.6 L746.4,111.2 L747.1,102.5 L747.7,98.4 L748.3,103.3 L749.0,91.9 L749.6,104.0 L750.3,94.4 L750.9,92.9 L751.5,91.9 L752.1,122.3 L752.7,107.4 L753.4,99.7 L754.0,101.4 L754.7,109.8 L755.3,120.8 L755.9,94.3 L756.5,113.7 L757.1,104.2 L757.8,97.9 L758.4,99.5 L759.0,102.0 L759.7,112.9 L760.3,125.9 L761.0,109.5 L761.6,114.2 L762.3,102.4 L762.9,104.0 L763.6,128.6 L764.2,120.3 L764.8,98.8 L765.4,114.1 L766.1,106.8 L766.8,109.0 L767.4,110.2 L768.1,105.7 L768.7,117.9 L769.3,126.3 L769.9,134.7 L770.5,122.9 L771.2,133.2 L771.8,118.8 L772.5,104.8 L773.1,109.8 L773.7,120.2 L774.3,106.8 L774.9,134.2 L775.6,128.2 L776.2,131.3 L776.8,122.9 L777.4,115.3 L778.1,121.1 L778.7,120.2 L779.3,139.5 L779.9,125.1 L780.5,114.7 L781.2,113.2 L781.8,130.2 L782.5,116.4 L783.1,126.5 L783.7,136.6 L784.3,138.0 L784.9,146.6 L785.6,144.0 L786.2,124.1 L786.9,125.4 L787.5,124.9 L788.1,133.3 L788.7,149.4 L789.3,120.6 L790.0,142.0 L790.6,144.5 L791.2,146.3 L791.8,141.8 L792.4,122.4 L793.1,124.8 L793.7,123.7 L794.3,123.9 L794.9,136.7 L795.6,139.5 L796.2,146.1 L796.8,135.4 L797.4,152.4 L798.0,126.7 L798.7,141.3 L799.3,157.1 L800.0,133.9 L800.6,139.8 L801.2,141.8 L801.8,132.7 L802.4,146.6 L803.2,150.5 L803.8,148.0 L804.4,149.8 L805.1,148.0 L805.7,154.1 L806.4,138.8 L806.9,163.3 L807.6,154.6 L808.2,154.3 L808.9,157.7 L809.5,154.0 L810.2,148.1 L810.8,140.0 L811.5,141.2 L812.1,165.4 L812.7,165.2 L813.4,144.4 L814.0,155.5 L814.7,158.2 L815.3,161.9 L815.9,150.8 L816.5,164.8 L817.1,146.0 L817.7,152.2 L818.3,166.8 L818.9,149.6 L819.6,157.9 L820.3,161.0 L820.9,175.7 L821.5,165.6 L822.2,176.4 L822.8,161.1 L823.4,173.4 L824.0,153.0 L824.6,173.7 L825.3,170.1 L825.9,173.0 L826.5,178.2 L827.1,157.2 L827.8,177.5 L828.4,177.1 L829.0,169.4 L829.6,175.0 L830.2,168.9 L830.9,161.4 L831.5,169.8 L832.2,188.2 L832.9,175.1 L833.5,165.6 L834.2,189.4 L834.8,184.2 L835.4,191.1 L836.0,176.1 L836.6,185.2 L837.3,190.2 L837.9,181.0 L838.5,173.4 L839.1,184.7 L839.8,172.0 L840.4,177.8 L841.1,189.6 L841.7,190.5 L842.4,180.9 L843.0,182.3 L843.6,176.6 L844.2,184.1 L844.9,196.3 L845.5,189.9 L846.2,192.4 L847.0,185.1 L847.6,187.1 L848.2,203.2 L848.9,186.9 L849.5,201.4 L850.1,200.4 L850.7,201.5 L851.4,189.0 L852.0,210.2 L852.7,207.9 L853.3,202.9 L853.9,197.7 L854.5,194.2 L855.2,189.3 L855.8,193.6 L856.5,207.0 L857.1,212.6 L857.8,202.4 L858.4,209.5 L859.0,218.4 L859.6,213.1 L860.3,205.8 L861.0,202.2 L861.9,214.8 L862.5,206.4 L863.1,202.0 L863.7,209.3 L864.4,212.9 L865.0,207.5 L865.7,218.0 L866.3,220.8 L866.9,207.2 L867.5,220.8 L868.2,207.2 L868.8,218.8 L869.5,213.1 L870.1,231.1 L870.8,215.3 L871.5,225.2 L872.1,221.5 L872.7,233.5 L873.3,232.7 L874.0,229.0 L874.6,221.3 L875.3,231.6 L875.9,231.1 L876.6,236.7 L877.2,229.6 L877.8,234.4 L878.5,224.6 L879.1,241.3 L879.8,224.2 L880.4,224.1 L881.1,235.8 L881.7,244.0 L882.3,238.7 L883.6,244.0 L884.2,236.5 L884.9,243.8 L885.5,241.1 L886.1,237.8 L886.7,234.0 L887.4,247.0 L888.0,241.7 L888.7,234.6 L889.3,239.7 L890.0,249.4 L890.7,256.2 L891.5,243.2 L892.1,257.6 L892.7,251.3 L893.3,254.5 L893.9,254.8 L894.6,254.0 L895.2,247.0 L895.9,256.0 L896.5,261.4 L897.2,261.2 L897.8,246.6 L898.4,252.7 L899.0,266.0 L899.7,249.5 L900.3,257.9 L901.0,257.8 L901.6,265.2 L902.2,257.6 L902.8,264.1 L903.5,272.1 L904.1,266.0 L904.8,269.8 L905.5,270.0 L906.3,266.0 L906.9,275.2 L907.5,268.3 L908.2,263.6 L908.8,274.2 L909.4,271.9 L910.0,267.5 L910.7,270.8 L911.3,274.0 L912.0,272.3 L912.6,282.9 L913.3,275.1 L913.9,284.9 L914.5,282.9 L915.1,275.6 L915.8,285.4 L916.4,278.5 L917.1,291.4 L917.7,282.8 L918.3,289.3 L918.9,280.3 L919.6,283.2 L920.3,294.4 L921.2,281.7 L921.8,283.6 L922.4,293.3 L923.0,287.6 L923.7,297.0 L924.3,299.1 L925.0,301.8 L925.6,296.6 L926.3,301.9 L926.9,295.1 L927.5,302.1 L928.1,305.9 L928.8,307.0 L929.4,307.4 L930.1,297.2 L930.8,296.8 L931.4,298.1 L932.0,310.1 L932.6,304.8 L933.3,305.9 L933.9,306.5 L934.5,312.2 L935.1,314.0 L936.0,313.5 L936.6,312.4 L937.2,315.6 L937.8,307.7 L938.4,319.6 L939.1,315.7 L939.7,315.1 L940.4,314.4 L941.0,318.4 L941.6,316.6 L942.2,315.2 L942.9,323.0 L943.5,324.5 L944.2,324.0 L944.8,321.8 L945.5,327.9 L946.1,326.2 L946.7,325.3 L947.3,331.8 L948.0,326.5 L948.6,333.0 L949.3,327.5 L950.0,328.8 L950.8,332.4 L951.4,334.9 L952.1,329.3 L952.7,340.0 L953.4,341.4 L954.0,332.2 L954.6,337.2 L955.2,343.3 L955.9,337.6 L956.5,336.4 L957.2,346.0 L957.8,347.1 L958.4,342.7 L959.1,347.8 L959.7,348.0 L960.4,346.6 L961.0,349.9 L961.7,351.3 L962.3,354.8 L963.0,355.2 L963.6,354.0 L964.2,350.8 L964.8,349.6 L965.6,358.3 L966.2,356.5 L966.9,360.1 L967.5,358.4 L968.2,361.4 L968.8,358.1 L969.5,364.5 L970.1,366.4 L970.7,361.6 L971.3,362.2 L972.0,367.5 L972.6,364.6 L973.3,367.9 L973.9,365.5 L974.5,369.3 L975.1,370.0 L975.7,368.1 L976.4,368.3 L977.0,371.7 L977.7,377.0 L978.3,375.5 L978.9,374.3 L979.5,374.0 L980.4,377.5 L981.0,382.2 L981.6,380.9 L982.3,378.5 L982.9,385.5 L983.6,382.8 L984.2,385.6 L984.9,388.2 L985.6,389.4 L986.2,386.8 L986.8,389.2 L987.4,392.4 L988.1,393.1 L988.7,391.7 L989.3,393.4 L989.9,394.0 L990.5,396.0 L991.2,395.3 L991.8,395.7 L992.5,396.6 L993.1,396.4 L993.7,397.5 L994.3,401.3 L995.3,404.0 L995.9,402.7 L996.5,405.4 L997.1,404.1 L997.7,407.4 L998.3,408.8 L999.0,406.3 L999.6,410.2 L1000.3,408.7 L1000.9,410.9 L1001.5,410.1 L1002.1,413.6 L1002.7,413.4 L1003.4,414.4 L1004.0,415.7 L1004.6,416.8 L1005.2,419.4 L1005.9,420.7 L1006.5,420.2 L1007.1,421.8 L1007.7,420.8 L1008.3,424.6 L1009.0,423.1 L1010.1,425.1 L1010.7,426.1 L1011.3,428.0 L1012.0,429.7 L1012.6,429.6 L1013.2,431.4 L1013.8,432.7 L1014.4,432.7 L1015.1,433.4 L1015.7,435.4 L1016.4,436.4 L1017.0,437.0 L1017.6,438.5 L1018.2,439.6 L1018.9,439.9 L1019.6,440.9 L1020.2,442.5 L1020.9,443.4 L1021.5,444.8 L1022.1,445.3 L1022.7,446.7 L1023.3,447.7 L1024.0,448.8 L1024.9,450.2 L1025.5,450.8 L1026.1,452.6 L1026.8,453.6 L1027.4,454.4 L1028.1,455.2 L1028.7,456.7 L1029.4,456.9 L1030.1,458.3 L1030.7,459.4 L1031.3,460.3 L1031.9,460.9 L1032.6,462.4 L1033.2,463.8 L1033.8,464.1 L1034.4,466.1 L1035.0,466.7 L1035.7,467.1 L1036.3,467.8 L1037.0,469.3 L1037.6,471.0 L1038.2,472.4 L1038.8,471.1 L1039.7,474.1 L1040.4,475.1 L1041.0,474.8 L1041.6,475.8 L1042.2,478.2 L1042.9,478.3 L1043.5,481.5 L1044.2,480.4 L1044.9,482.2 L1045.5,482.9 L1046.2,484.7 L1046.8,484.4 L1047.4,484.5 L1048.0,488.8 L1048.6,486.2 L1049.3,488.2 L1049.9,491.3 L1050.5,491.9 L1051.3,494.1 L1051.9,493.0 L1052.5,493.0 L1053.2,497.4 L1053.8,496.6 L1055.2,497.6 L1055.9,500.6 L1056.5,500.4 L1057.2,501.4 L1057.8,504.3 L1058.4,502.7 L1059.0,506.5 L1059.6,504.6 L1060.3,508.7 L1060.9,509.7 L1061.5,510.8 L1062.1,510.6 L1062.8,512.7 L1063.4,513.9 L1064.0,512.2 L1064.7,511.6 L1065.3,516.6 L1065.9,514.0 L1067.8,519.2 L1068.5,522.4 L1069.1,520.4 L1070.4,519.3 L1071.0,521.5 L1071.6,522.0 L1072.3,524.2 L1073.0,529.6 L1073.7,523.8 L1074.4,530.5 L1075.1,525.5 L1075.8,527.0 L1076.5,528.9 L1077.2,528.3 L1077.9,531.9 L1078.6,538.4 L1079.3,532.8 L1080.0,533.6 L1080.6,541.2 L1081.3,536.4 L1081.9,538.3 L1082.6,543.7 L1083.3,541.8 L1084.0,544.0" fill="none" stroke="#1f77b4" stroke-width="1.4" opacity="0.85"/><text x="1040" y="54" fill="#ff7f0e" font-size="11">roll 24</text><text x="1090" y="558" fill="#ff7f0e" font-size="11">-17</text><path d="M616.6,346.8 L617.2,346.8 L617.9,346.8 L618.7,346.8 L619.4,346.8 L620.0,346.8 L620.6,346.8 L621.2,346.8 L621.9,346.8 L622.5,346.8 L623.2,346.8 L623.8,346.8 L624.4,346.8 L625.0,346.8 L625.7,346.8 L626.3,348.0 L627.0,346.8 L627.6,346.8 L628.3,346.8 L628.9,346.8 L629.5,346.8 L630.1,348.0 L630.8,346.8 L631.5,346.8 L632.1,346.8 L632.8,348.0 L633.4,346.8 L634.0,346.8 L634.6,348.0 L635.3,346.8 L635.9,348.0 L636.6,348.0 L637.2,348.0 L637.9,346.8 L638.5,346.8 L639.1,346.8 L639.7,348.0 L640.4,348.0 L641.0,346.8 L641.7,348.0 L642.3,346.8 L642.9,346.8 L643.5,346.8 L644.2,348.0 L644.8,348.0 L645.5,348.0 L646.2,348.0 L646.8,348.0 L647.5,348.0 L648.1,348.0 L648.7,346.8 L649.3,346.8 L649.9,348.0 L650.6,346.8 L651.2,348.0 L651.8,348.0 L652.4,348.0 L653.1,348.0 L653.7,348.0 L654.3,346.8 L654.9,348.0 L655.5,348.0 L656.2,348.0 L656.8,348.0 L657.5,346.8 L658.1,346.8 L658.7,348.0 L659.3,348.0 L660.0,348.0 L660.6,348.0 L661.3,348.0 L661.9,348.0 L662.6,348.0 L663.2,348.0 L663.9,348.0 L664.6,348.0 L665.1,348.0 L665.8,348.0 L666.4,348.0 L667.1,346.8 L667.7,348.0 L668.4,348.0 L669.0,348.0 L670.2,346.8 L670.9,348.0 L671.5,348.0 L672.2,348.0 L672.8,348.0 L673.5,348.0 L674.2,348.0 L674.8,348.0 L675.4,346.8 L676.0,348.0 L676.7,348.0 L677.3,348.0 L677.9,348.0 L678.5,348.0 L679.1,348.0 L679.8,348.0 L680.4,348.0 L681.1,348.0 L681.7,348.0 L682.3,348.0 L682.9,348.0 L683.5,348.0 L684.2,348.0 L684.8,346.8 L685.5,348.0 L686.1,348.0 L686.6,348.0 L687.5,348.0 L688.2,348.0 L688.8,348.0 L689.4,348.0 L690.1,348.0 L690.7,348.0 L691.4,348.0 L692.0,348.0 L692.6,348.0 L693.2,348.0 L693.8,348.0 L694.5,348.0 L695.1,348.0 L695.8,348.0 L696.4,346.8 L697.1,348.0 L697.7,348.0 L698.3,348.0 L699.0,348.0 L699.6,348.0 L700.3,348.0 L700.9,348.0 L701.5,335.5 L702.1,304.9 L702.7,289.0 L703.4,272.0 L704.0,252.8 L704.7,242.6 L705.3,222.2 L705.9,210.8 L706.5,200.6 L707.1,198.4 L707.8,197.2 L708.4,182.5 L709.0,178.0 L709.6,168.9 L710.2,174.6 L710.9,173.5 L711.5,179.1 L712.1,166.7 L712.7,166.7 L713.4,158.7 L714.0,172.3 L714.6,174.6 L715.2,173.5 L715.8,158.7 L716.5,164.4 L717.1,167.8 L717.8,155.3 L718.4,172.3 L719.1,165.5 L719.7,172.3 L720.3,157.6 L720.9,172.3 L721.6,163.3 L722.3,168.9 L722.9,182.5 L723.6,188.2 L724.3,178.0 L724.9,192.7 L725.6,195.0 L726.2,189.3 L726.8,190.5 L727.4,197.2 L728.1,185.9 L728.7,189.3 L729.3,209.7 L729.9,208.6 L730.6,221.0 L731.2,217.6 L731.8,219.9 L732.4,250.5 L733.0,278.8 L733.6,310.6 L734.3,336.6 L734.9,369.5 L735.6,389.9 L736.2,408.0 L736.8,425.0 L737.4,438.6 L738.0,460.1 L738.7,482.8 L739.3,487.3 L740.0,502.1 L740.6,505.5 L741.2,505.5 L741.8,510.0 L742.4,511.1 L743.1,520.2 L743.7,522.5 L744.3,525.9 L745.1,530.4 L745.8,536.1 L746.4,534.9 L747.1,525.9 L747.7,532.7 L748.3,521.3 L749.0,524.7 L749.6,533.8 L750.3,533.8 L750.9,523.6 L751.5,531.5 L752.1,544.0 L752.7,541.7 L753.4,525.9 L754.0,524.7 L754.7,533.8 L755.3,540.6 L755.9,538.3 L756.5,534.9 L757.1,523.6 L757.8,528.1 L758.4,524.7 L759.0,534.9 L759.7,530.4 L760.3,539.5 L761.0,541.7 L761.6,538.3 L762.3,528.1 L762.9,537.2 L763.6,541.7 L764.2,539.5 L764.8,531.5 L765.4,529.3 L766.1,531.5 L766.8,532.7 L767.4,540.6 L768.1,539.5 L768.7,534.9 L769.3,534.9 L769.9,541.7 L770.5,524.7 L771.2,532.7 L771.8,532.7 L772.4,534.9 L773.0,540.6 L773.7,539.5 L774.3,531.5 L774.9,538.3 L775.6,530.4 L776.2,539.5 L776.8,533.8 L777.4,528.1 L778.1,527.0 L778.7,538.3 L779.3,539.5 L779.9,538.3 L780.5,538.3 L781.2,539.5 L781.8,534.9 L782.5,531.5 L783.1,533.8 L783.7,489.6 L784.3,464.7 L784.9,414.8 L785.6,386.5 L786.2,361.6 L786.9,336.6 L787.5,304.9 L788.1,285.6 L788.7,272.0 L789.3,247.1 L790.0,241.4 L790.6,224.4 L791.2,210.8 L791.8,201.8 L792.4,192.7 L793.1,184.8 L793.7,180.3 L794.3,187.1 L794.9,182.5 L795.6,176.9 L796.2,174.6 L796.8,166.7 L797.4,165.5 L798.0,172.3 L798.7,158.7 L799.3,161.0 L800.0,172.3 L800.6,170.1 L801.2,165.5 L801.8,165.5 L802.4,161.0 L803.2,153.1 L803.8,164.4 L804.4,161.0 L805.1,165.5 L805.7,158.7 L806.3,172.3 L806.9,161.0 L807.6,157.6 L808.2,172.3 L808.9,164.4 L809.5,162.1 L810.2,162.1 L810.8,161.0 L811.5,170.1 L812.1,158.7 L812.7,154.2 L813.4,159.9 L814.0,161.0 L814.7,163.3 L815.3,162.1 L815.9,170.1 L816.5,171.2 L817.1,168.9 L817.7,157.6 L818.3,156.5 L818.9,155.3 L819.6,172.3 L820.2,162.1 L820.9,156.5 L821.5,168.9 L822.2,166.7 L822.8,151.9 L823.4,155.3 L824.0,167.8 L824.6,168.9 L825.3,167.8 L825.9,157.6 L826.5,157.6 L827.1,156.5 L827.8,170.1 L828.4,171.2 L829.0,159.9 L829.6,172.3 L830.2,168.9 L830.9,151.9 L831.5,165.5 L832.2,163.3 L832.9,146.3 L833.5,164.4 L834.2,163.3 L834.8,149.7 L835.4,154.2 L836.0,164.4 L836.6,166.7 L837.3,162.1 L837.9,158.7 L838.5,157.6 L839.1,164.4 L839.8,163.3 L840.4,156.5 L841.1,168.9 L841.7,155.3 L842.4,166.7 L843.0,157.6 L843.6,170.1 L844.2,172.3 L844.9,157.6 L845.5,167.8 L846.2,171.2 L847.0,158.7 L847.6,155.3 L848.2,167.8 L848.9,165.5 L849.5,149.7 L850.1,158.7 L850.7,161.0 L851.4,156.5 L852.0,155.3 L852.7,155.3 L853.3,155.3 L853.9,170.1 L854.5,166.7 L855.2,158.7 L855.8,156.5 L856.5,164.4 L857.1,159.9 L857.8,156.5 L858.4,164.4 L859.0,171.2 L859.6,163.3 L860.3,164.4 L861.0,165.5 L861.8,157.6 L862.4,157.6 L863.1,159.9 L863.7,154.2 L864.4,156.5 L865.0,174.6 L865.7,156.5 L866.3,167.8 L866.9,163.3 L867.5,155.3 L868.2,159.9 L868.8,166.7 L869.5,171.2 L870.1,165.5 L870.8,157.6 L871.4,164.4 L872.0,164.4 L872.7,170.1 L873.3,172.3 L874.0,170.1 L874.6,161.0 L875.3,154.2 L875.9,164.4 L876.6,164.4 L877.2,172.3 L877.8,161.0 L878.5,154.2 L879.1,170.1 L879.8,166.7 L880.4,153.1 L881.1,161.0 L881.7,155.3 L882.3,167.8 L883.6,171.2 L884.2,164.4 L884.9,158.7 L885.5,171.2 L886.1,154.2 L886.7,171.2 L887.4,159.9 L888.0,164.4 L888.7,156.5 L889.3,165.5 L890.0,171.2 L890.7,166.7 L891.5,159.9 L892.1,168.9 L892.7,163.3 L893.3,156.5 L893.9,155.3 L894.6,162.1 L895.2,163.3 L895.9,154.2 L896.5,155.3 L897.2,172.3 L897.8,170.1 L898.4,172.3 L899.0,166.7 L899.7,162.1 L900.3,167.8 L901.0,151.9 L901.6,163.3 L902.2,172.3 L902.8,162.1 L903.5,156.5 L904.1,156.5 L904.8,157.6 L905.5,166.7 L906.3,168.9 L906.9,165.5 L907.5,151.9 L908.2,156.5 L908.8,166.7 L909.4,162.1 L910.0,156.5 L910.7,171.2 L911.3,157.6 L912.0,171.2 L912.6,168.9 L913.3,158.7 L913.9,168.9 L914.5,171.2 L915.1,161.0 L915.8,155.3 L916.4,155.3 L917.1,163.3 L917.7,155.3 L918.3,162.1 L918.9,170.1 L919.6,165.5 L920.3,163.3 L921.2,164.4 L921.8,167.8 L922.4,170.1 L923.0,159.9 L923.7,151.9 L924.3,155.3 L925.0,165.5 L925.6,162.1 L926.2,154.2 L926.8,161.0 L927.5,173.5 L928.1,167.8 L928.8,171.2 L929.4,170.1 L930.1,158.7 L930.8,168.9 L931.4,158.7 L932.0,161.0 L932.6,157.6 L933.3,154.2 L933.9,172.3 L934.5,157.6 L935.1,170.1 L936.0,161.0 L936.6,161.0 L937.2,153.1 L937.8,164.4 L938.4,162.1 L939.1,162.1 L939.7,156.5 L940.4,154.2 L941.0,154.2 L941.6,158.7 L942.2,158.7 L942.9,162.1 L943.5,173.5 L944.2,155.3 L944.8,165.5 L945.5,171.2 L946.1,157.6 L946.7,172.3 L947.3,153.1 L948.0,168.9 L948.6,153.1 L949.3,154.2 L950.0,161.0 L950.8,161.0 L951.4,159.9 L952.1,155.3 L952.7,154.2 L953.4,172.3 L954.0,155.3 L954.6,159.9 L955.2,170.1 L955.9,170.1 L956.5,166.7 L957.2,168.9 L957.8,154.2 L958.4,165.5 L959.0,165.5 L959.7,166.7 L960.4,166.7 L961.0,164.4 L961.7,172.3 L962.3,153.1 L963.0,153.1 L963.6,154.2 L964.2,163.3 L964.8,170.1 L965.6,162.1 L966.2,159.9 L966.9,163.3 L967.5,168.9 L968.2,168.9 L968.8,164.4 L969.5,154.2 L970.1,154.2 L970.7,168.9 L971.3,161.0 L972.0,170.1 L972.6,163.3 L973.3,170.1 L973.9,159.9 L974.5,157.6 L975.1,153.1 L975.7,163.3 L976.4,171.2 L977.0,168.9 L977.7,167.8 L978.3,162.1 L978.9,163.3 L979.5,162.1 L980.4,165.5 L981.0,161.0 L981.6,168.9 L982.3,165.5 L982.9,162.1 L983.6,170.1 L984.2,166.7 L984.9,168.9 L985.6,163.3 L986.2,163.3 L986.8,158.7 L987.4,157.6 L988.1,166.7 L988.7,163.3 L989.3,154.2 L989.9,172.3 L990.5,155.3 L991.2,159.9 L991.8,158.7 L992.5,159.9 L993.1,171.2 L993.7,161.0 L994.3,168.9 L995.2,164.4 L995.9,163.3 L996.5,167.8 L997.1,158.7 L997.7,168.9 L998.3,156.5 L999.0,168.9 L999.6,162.1 L1000.3,151.9 L1000.8,159.9 L1001.5,164.4 L1002.1,172.3 L1002.7,154.2 L1003.4,167.8 L1004.0,166.7 L1004.6,154.2 L1005.2,168.9 L1005.9,168.9 L1006.5,159.9 L1007.1,162.1 L1007.7,162.1 L1008.3,156.5 L1009.0,163.3 L1010.1,167.8 L1010.7,171.2 L1011.3,166.7 L1012.0,161.0 L1012.6,162.1 L1013.2,159.9 L1013.8,164.4 L1014.4,166.7 L1015.1,161.0 L1015.7,162.1 L1016.4,155.3 L1016.9,158.7 L1017.6,154.2 L1018.2,163.3 L1018.9,144.0 L1019.6,132.7 L1020.2,146.3 L1020.9,130.4 L1021.5,133.8 L1022.1,119.1 L1022.7,113.4 L1023.3,128.1 L1024.0,123.6 L1024.9,121.3 L1025.5,106.6 L1026.1,120.2 L1026.8,108.9 L1027.4,107.7 L1028.1,114.5 L1028.7,115.7 L1029.4,116.8 L1030.0,119.1 L1030.7,116.8 L1031.3,114.5 L1031.9,108.9 L1032.6,112.3 L1033.2,94.1 L1033.8,107.7 L1034.4,99.8 L1035.0,110.0 L1035.7,108.9 L1036.3,102.1 L1037.0,103.2 L1037.6,105.5 L1038.2,95.3 L1038.8,86.2 L1039.7,103.2 L1040.4,83.9 L1041.0,100.9 L1041.6,94.1 L1042.2,82.8 L1042.9,86.2 L1043.5,100.9 L1044.2,106.6 L1044.9,89.6 L1045.5,85.1 L1046.1,99.8 L1046.7,100.9 L1047.4,80.5 L1048.0,89.6 L1048.6,95.3 L1049.3,105.5 L1049.9,106.6 L1050.5,93.0 L1051.3,105.5 L1051.9,80.5 L1052.5,89.6 L1053.2,91.9 L1053.8,87.3 L1055.2,76.0 L1055.9,76.0 L1056.5,100.9 L1057.2,89.6 L1057.8,103.2 L1058.4,110.0 L1059.0,96.4 L1059.6,93.0 L1060.3,88.5 L1060.9,96.4 L1061.5,96.4 L1062.1,105.5 L1062.8,99.8 L1063.4,153.1 L1064.0,148.5 L1064.6,132.7 L1065.2,146.3 L1065.9,131.5 L1067.8,187.1 L1068.5,205.2 L1069.1,210.8 L1070.4,231.2 L1071.0,247.1 L1071.6,260.7 L1072.3,259.6 L1073.0,268.6 L1073.7,275.4 L1074.4,287.9 L1075.1,291.3 L1075.8,298.1 L1076.5,300.4 L1077.2,302.6 L1077.9,309.4 L1078.6,312.8 L1079.3,318.5 L1080.0,319.6 L1080.6,321.9 L1081.3,325.3 L1081.9,327.6 L1082.6,328.7 L1083.3,329.8 L1084.0,332.1" fill="none" stroke="#ff7f0e" stroke-width="1.1" opacity="0.85"/><text x="616" y="572" font-size="11" fill="#888">time 0..33 s — altitude (blue) &amp; roll (orange)</text></svg>