<svg xmlns="http://www.w3.org/2000/svg" width="1140" height="600" font-family="sans-serif" font-size="13"><rect width="1140" height="600" fill="white"/><text x="20" y="26" font-size="15" fill="#333">Coludo flight</text><rect x="20" y="40" width="540" height="540" fill="#fbfbfb" stroke="#ddd"/><rect x="50" y="304" width="319" height="69" fill="#cde" stroke="#369" opacity="0.7"/><text x="50" y="299" fill="#369" font-size="12">landing zone</text><circle cx="252" cy="411" r="5" fill="black"/><text x="260" y="415" font-size="12">pad</text><path d="M252.5,411.1 L252.5,411.1 L252.5,411.1 L252.5,411.1 L252.5,411.1 L252.5,411.1 L252.5,411.1 L252.5,411.1 L252.5,411.1 L252.5,411.1 L252.5,411.1 L252.5,411.1 L252.5,411.1 L252.5,411.1 L252.5,411.1 L252.5,411.1 L252.5,411.1 L252.5,411.1 L252.5,411.1 L252.5,411.1 L252.5,411.1 L252.5,411.1 L252.5,411.1 L252.5,411.1 L252.5,411.1 L252.5,411.1 L252.5,411.1 L252.5,411.1 L252.5,411.1 L252.5,411.1 L252.5,411.1 L252.5,411.1 L252.5,411.1 L252.5,411.1 L252.5,411.1 L252.5,411.1 L252.5,411.1 L252.5,411.1 L252.5,411.1 L252.5,411.1 L252.5,411.1 L252.5,411.1 L252.5,411.1 L252.5,411.1 L252.5,411.1 L252.5,411.1 L252.5,411.1 L252.5,411.1 L252.5,411.1 L252.5,411.1 L252.5,411.1 L252.5,411.1 L252.5,411.1 L252.5,411.1 L252.5,411.1 L252.5,411.1 L252.5,411.1 L252.5,411.1 L252.5,411.1 L253.5,409.2 L254.2,407.3 L255.9,404.2 L259.0,401.6 L259.3,398.2 L262.8,395.5 L264.5,393.6 L266.2,391.3 L269.6,388.3 L270.0,386.4 L273.0,384.5 L274.8,382.6 L276.5,380.3 L279.9,377.7 L280.9,376.5 L283.3,374.3 L286.4,372.7 L288.5,370.8 L291.9,369.7 L293.3,367.8 L295.3,365.9 L297.4,363.6 L300.4,362.5 L302.2,361.0 L303.9,357.9 L307.3,355.7 L309.0,353.4 L310.7,351.5 L314.2,348.4 L315.2,346.5 L317.6,344.3 L319.3,341.2 L321.0,338.2 L322.7,335.2 L324.4,332.9 L324.8,330.2 L326.1,326.4 L327.9,324.1 L329.6,321.5 L330.3,317.7 L330.3,314.7 L331.3,311.2 L331.3,307.8 L333.0,304.0 L333.0,300.6 L334.7,298.7 L334.7,296.0 L334.7,293.8 L335.7,290.7 L335.7,288.1 L336.4,284.7 L336.4,281.2 L338.1,279.0 L339.9,275.9 L339.9,272.5 L341.6,270.2 L341.9,266.8 L343.3,263.8 L346.7,260.7 L348.1,257.3 L348.4,254.7 L350.1,252.8 L352.2,250.1 L353.6,246.7 L357.0,244.8 L357.7,243.3 L358.7,241.0 L362.1,238.3 L365.2,236.1 L365.5,234.2 L369.0,232.6 L370.7,230.4 L372.4,229.2 L376.2,227.7 L377.5,225.8 L379.6,223.9 L381.0,222.8 L384.4,221.3 L386.1,220.1 L389.5,218.6 L393.0,217.1 L396.4,215.9 L398.1,214.8 L401.5,213.7 L404.9,213.3 L407.0,212.1 L410.1,211.4 L413.5,210.6 L415.2,210.3 L419.3,209.9 L422.1,209.5 L425.5,209.1 L428.9,209.1 L430.6,208.7 L436.5,209.1 L437.5,209.1 L440.9,209.1 L442.6,209.5 L446.1,209.9 L447.8,210.3 L451.2,210.6 L452.9,211.4 L456.3,212.1 L458.1,212.5 L463.2,213.7 L463.2,214.0 L468.3,215.6 L470.0,216.3 L473.5,217.8 L475.2,219.0 L478.6,220.1 L480.3,221.6 L483.7,223.5 L485.5,224.7 L488.9,227.0 L490.6,228.1 L492.3,229.6 L495.7,231.9 L497.5,234.2 L500.9,236.8 L502.6,239.1 L504.3,240.6 L506.4,243.3 L507.7,244.8 L511.2,248.2 L513.2,250.1 L514.6,253.1 L516.3,256.2 L518.0,258.1 L518.0,260.4 L519.7,263.0 L521.4,266.1 L523.1,269.5 L523.5,272.1 L524.9,275.5 L526.6,279.0 L528.3,282.4 L528.3,285.8 L529.0,288.5 L529.0,291.9 L530.0,294.9 L530.0,297.9 L530.0,301.0 L530.0,303.3 L530.0,307.4 L530.0,310.5 L530.0,313.9 L530.0,317.7 L530.0,321.5 L529.0,324.9 L529.0,327.2 L528.3,331.0 L528.3,333.3 L526.6,336.7 L526.6,338.9 L524.9,340.8 L523.5,344.3 L523.1,346.5 L521.4,350.0 L521.4,352.2 L519.7,354.9 L518.0,357.2 L516.3,360.6 L514.6,363.2 L512.9,365.1 L513.2,367.8 L509.4,370.1 L506.4,373.1 L506.0,375.0 L502.6,377.7 L500.9,379.9 L497.5,382.6 L496.1,384.1 L495.7,385.6 L490.6,387.9 L488.9,390.2 L485.5,392.5 L483.7,394.0 L479.0,395.5 L478.6,396.7 L474.8,398.5 L473.5,399.7 L470.0,400.8 L468.3,401.6 L464.9,402.7 L463.2,403.5 L458.1,404.6 L456.3,405.8 L452.9,406.1 L449.5,407.3 L446.1,408.0 L442.6,408.4 L440.9,408.8 L435.8,409.2 L434.1,409.2 L430.3,409.2 L425.5,409.2 L423.8,409.2 L419.3,408.8 L418.7,408.4 L415.2,408.0 L411.8,407.7 L408.4,407.3 L407.0,406.5 L403.2,405.8 L401.5,405.0 L398.1,403.9 L394.7,402.3 L391.9,401.6 L387.8,400.1 L385.1,398.5 L381.0,397.0 L379.6,395.9 L375.8,394.0 L374.1,392.9 L370.7,391.0 L369.0,389.4 L367.3,388.3 L365.2,386.4 L362.1,385.3 L358.7,383.0 L357.7,381.8 L353.6,379.2 L352.2,377.7 L350.1,375.8 L348.1,373.5 L345.0,371.2 L341.6,369.3 L339.9,367.8 L336.4,365.9 L334.7,363.2 L333.0,362.1 L329.6,359.4 L327.9,357.9 L326.1,356.4 L324.4,354.1 L321.0,353.0 L320.7,351.1 L317.6,348.8 L315.2,347.3" fill="none" stroke="#1f77b4" stroke-width="1.7" opacity="0.85"/><circle cx="315" cy="347" r="4.5" fill="#1f77b4"/><text x="28" y="572" font-size="11" fill="#888">ground track — m from pad (N up)</text><rect x="580" y="40" width="540" height="540" fill="#fbfbfb" stroke="#ddd"/><text x="586" y="54" fill="#1f77b4" font-size="11">alt 253</text><text x="586" y="558" fill="#1f77b4" font-size="11">-55</text><path d="M616.5,457.9 L617.1,457.6 L617.7,457.3 L618.3,457.0 L618.9,457.1 L619.5,456.5 L620.0,456.3 L620.6,455.9 L621.2,454.8 L621.8,454.7 L622.4,453.5 L623.0,453.3 L623.6,451.9 L624.3,451.0 L624.9,450.6 L625.5,449.2 L626.1,448.9 L626.7,446.5 L627.3,445.3 L627.9,444.9 L628.5,443.7 L629.0,441.1 L629.6,440.9 L630.2,438.3 L630.8,435.9 L631.4,437.0 L632.0,432.6 L632.6,433.6 L633.2,430.1 L633.8,427.7 L634.5,426.7 L635.1,423.8 L635.7,420.2 L636.3,420.6 L636.8,418.4 L637.4,413.6 L638.0,413.4 L638.6,411.6 L639.2,409.8 L639.8,403.6 L640.4,405.2 L641.0,397.2 L641.6,397.9 L642.2,392.6 L642.8,389.4 L643.4,388.6 L644.0,385.7 L644.6,380.6 L645.1,382.1 L645.7,375.6 L646.3,377.2 L647.0,368.8 L647.6,367.2 L648.2,360.4 L648.8,358.1 L649.4,357.8 L650.0,356.2 L650.6,345.6 L651.2,339.0 L651.8,346.1 L652.3,340.5 L652.9,341.0 L653.4,327.6 L654.0,330.0 L654.6,328.3 L655.2,317.9 L655.8,314.5 L656.4,317.4 L657.0,298.6 L657.6,309.1 L658.1,301.4 L658.7,293.3 L659.3,293.3 L659.9,283.1 L660.6,273.4 L661.2,267.9 L661.8,275.7 L662.4,272.2 L663.0,265.0 L663.6,252.6 L664.2,266.9 L664.8,261.4 L665.4,244.0 L666.0,240.2 L666.5,250.8 L667.1,236.4 L667.7,230.4 L668.3,229.0 L668.9,217.0 L669.5,219.5 L670.1,229.4 L670.7,213.9 L671.4,205.3 L672.0,217.8 L672.6,214.8 L673.2,210.5 L673.8,201.0 L674.3,192.1 L674.9,186.4 L675.5,206.0 L676.1,195.0 L676.7,177.6 L677.3,188.4 L677.9,169.9 L678.5,192.3 L679.1,163.2 L679.7,169.6 L680.3,169.9 L680.9,171.7 L681.6,170.9 L682.1,158.8 L682.6,150.6 L683.3,160.1 L683.9,164.3 L684.5,140.9 L685.1,144.6 L685.7,153.6 L686.3,138.0 L686.9,133.4 L687.5,135.0 L688.1,148.5 L688.7,148.6 L689.3,134.5 L689.9,149.3 L690.4,138.4 L691.0,130.7 L691.6,114.3 L692.2,112.1 L692.8,127.2 L693.5,135.0 L694.1,120.5 L694.7,137.5 L695.3,132.8 L695.9,129.3 L696.4,110.6 L697.0,129.5 L697.6,104.4 L698.2,95.1 L698.8,122.6 L699.4,114.6 L700.0,102.5 L700.6,99.2 L701.2,97.7 L701.8,114.0 L702.4,101.3 L703.0,102.7 L703.6,97.4 L704.2,102.9 L704.7,96.9 L705.3,101.9 L706.0,103.0 L706.6,96.0 L707.2,113.3 L707.8,107.4 L708.4,79.2 L709.0,79.3 L709.6,76.0 L710.2,77.1 L710.8,94.6 L711.4,82.1 L712.0,76.9 L712.5,83.9 L713.1,100.4 L713.7,95.9 L714.3,94.6 L714.9,86.4 L715.4,96.1 L716.0,86.5 L716.6,77.9 L717.2,98.9 L717.9,78.5 L718.4,105.9 L718.9,87.2 L719.6,97.5 L720.2,111.3 L720.8,92.6 L721.4,105.2 L722.0,84.5 L722.6,98.5 L723.2,78.9 L723.8,110.3 L724.4,106.2 L725.0,110.9 L725.6,104.5 L726.1,101.4 L726.7,111.2 L727.3,113.1 L727.9,82.0 L728.5,83.0 L729.1,103.4 L729.8,82.6 L730.4,109.3 L731.0,108.8 L731.6,95.5 L732.2,81.9 L732.8,106.3 L733.4,109.8 L733.9,95.5 L734.5,114.6 L735.1,111.3 L735.7,84.0 L736.3,97.0 L736.9,98.1 L737.5,99.2 L738.1,95.8 L738.7,109.0 L739.5,110.2 L740.1,113.3 L740.7,103.2 L741.3,86.9 L741.9,84.8 L742.5,115.8 L743.0,95.6 L743.6,105.6 L744.2,110.0 L744.8,97.3 L745.4,108.8 L746.0,102.5 L746.6,91.6 L747.2,99.5 L747.8,106.0 L748.4,110.2 L749.1,116.6 L749.7,100.4 L750.3,99.0 L750.8,120.5 L751.4,95.3 L752.1,108.2 L752.6,99.5 L753.2,103.8 L753.8,96.5 L754.4,89.7 L755.0,101.7 L755.6,111.0 L756.2,104.4 L756.8,121.5 L757.4,97.7 L757.9,100.1 L758.5,114.2 L759.1,115.0 L759.7,111.9 L760.3,108.1 L761.0,127.4 L761.6,128.1 L762.2,129.1 L762.8,107.0 L763.4,118.2 L764.0,125.9 L764.6,126.4 L765.1,124.5 L765.7,118.3 L766.3,114.7 L766.9,132.0 L767.5,104.8 L768.1,100.8 L768.7,114.5 L769.3,102.0 L769.9,125.5 L770.5,117.2 L771.2,102.8 L771.8,114.4 L772.4,115.3 L773.0,120.2 L773.6,123.2 L774.1,119.2 L774.7,106.6 L775.3,116.6 L775.9,115.1 L776.5,137.8 L777.1,129.5 L777.6,109.6 L778.2,116.3 L778.8,136.4 L779.4,116.1 L780.0,132.8 L780.5,115.6 L781.1,138.2 L781.7,141.2 L782.3,131.5 L782.9,112.6 L783.5,132.1 L784.1,131.1 L784.7,113.0 L785.4,140.7 L786.0,140.0 L786.6,141.6 L787.2,114.7 L787.8,116.8 L788.3,129.3 L788.9,147.1 L789.6,139.5 L790.1,135.2 L790.7,130.1 L791.3,140.6 L791.9,118.3 L792.5,127.8 L793.1,126.6 L793.6,145.5 L794.2,121.5 L794.8,140.6 L795.4,132.8 L796.0,129.1 L796.6,149.1 L797.3,146.8 L797.9,148.1 L798.5,143.4 L799.1,147.8 L799.7,134.7 L800.3,145.6 L800.9,134.7 L801.4,133.1 L802.1,147.6 L802.6,158.4 L803.2,156.6 L803.8,155.3 L804.4,134.6 L805.0,150.8 L805.6,140.3 L806.2,132.7 L806.8,152.0 L807.4,160.5 L808.1,135.0 L808.7,147.9 L809.2,151.0 L809.8,147.4 L810.4,151.9 L811.0,151.9 L811.6,151.3 L812.2,146.5 L812.8,144.4 L813.4,166.5 L814.0,143.7 L814.9,158.3 L815.5,168.9 L816.1,153.5 L816.7,146.2 L817.3,168.0 L817.9,148.0 L818.5,147.2 L819.1,164.3 L819.7,164.6 L820.3,153.7 L820.9,161.9 L821.5,175.4 L822.1,148.9 L822.6,168.0 L823.2,157.6 L823.8,175.4 L824.4,172.0 L825.1,177.1 L825.7,152.1 L826.3,152.8 L826.9,162.5 L827.6,155.8 L828.2,178.1 L828.8,164.2 L829.4,168.0 L830.0,168.3 L830.6,167.2 L831.2,159.1 L831.9,162.2 L832.5,171.7 L833.1,166.9 L833.7,169.4 L834.2,171.4 L834.8,175.2 L835.4,182.1 L836.0,179.9 L836.6,166.0 L837.2,184.7 L837.8,165.8 L838.4,193.2 L839.0,193.7 L839.6,172.3 L840.4,173.5 L841.0,172.6 L841.6,192.9 L842.2,178.0 L842.8,182.4 L843.3,176.3 L843.9,191.1 L844.5,184.0 L845.1,191.8 L845.7,186.1 L846.3,181.1 L846.9,193.5 L847.5,199.0 L848.1,194.9 L848.7,203.9 L849.3,200.8 L849.9,205.8 L850.5,182.5 L851.1,187.2 L851.6,186.5 L852.2,202.9 L853.1,189.5 L853.6,204.9 L854.2,189.2 L854.8,197.7 L855.4,192.3 L856.0,193.9 L856.6,213.3 L857.2,195.4 L857.8,213.2 L858.4,206.3 L859.0,197.9 L859.7,193.1 L860.3,206.5 L860.9,218.4 L861.4,210.2 L862.0,217.1 L862.6,214.0 L863.2,208.4 L863.8,200.0 L864.4,222.3 L865.0,221.6 L865.9,223.7 L866.5,205.4 L867.1,222.8 L867.7,205.2 L868.3,215.6 L868.9,207.4 L869.5,223.8 L870.1,223.9 L870.7,223.3 L871.3,208.4 L871.9,216.0 L872.5,217.3 L873.1,218.7 L873.7,231.7 L874.3,222.8 L874.8,231.6 L875.4,231.6 L876.0,226.5 L876.6,232.1 L877.3,239.0 L877.9,218.8 L878.6,237.6 L879.2,220.3 L879.8,231.2 L880.4,231.4 L881.0,232.8 L881.6,236.6 L882.2,241.0 L882.8,244.5 L883.4,243.6 L884.1,245.5 L884.7,228.7 L885.3,240.3 L885.9,235.0 L886.4,244.6 L887.0,251.3 L887.6,251.7 L888.2,249.2 L888.8,251.3 L889.4,253.0 L890.0,237.5 L890.6,256.0 L891.4,239.1 L891.9,245.0 L892.6,246.0 L893.2,256.5 L893.8,256.7 L894.4,249.1 L895.0,242.2 L895.5,256.3 L896.1,251.0 L896.7,245.0 L897.3,257.7 L897.9,257.5 L898.5,261.5 L899.1,250.5 L899.7,251.0 L900.3,268.0 L900.9,251.3 L901.5,253.8 L902.1,252.2 L902.7,268.0 L903.4,253.3 L904.1,256.4 L904.7,269.7 L905.3,270.3 L905.8,266.7 L906.4,263.7 L907.0,259.1 L907.6,277.9 L908.2,266.0 L908.8,278.3 L909.4,270.0 L910.0,265.9 L910.6,266.7 L911.3,269.0 L911.9,271.5 L912.5,276.7 L913.1,268.1 L913.6,278.0 L914.2,287.1 L914.8,273.0 L915.4,271.1 L916.0,277.6 L916.9,273.2 L917.4,279.7 L918.0,286.2 L918.7,276.5 L919.3,289.2 L919.9,285.0 L920.5,291.9 L921.1,287.8 L921.7,294.5 L922.3,295.7 L922.9,291.4 L923.5,298.1 L924.1,287.1 L924.7,300.8 L925.3,294.6 L925.9,294.8 L926.5,294.9 L927.0,293.7 L927.6,297.7 L928.2,301.4 L928.8,293.2 L929.6,304.1 L930.2,306.4 L930.8,302.4 L931.4,311.0 L932.0,298.2 L932.6,304.4 L933.2,302.8 L933.8,310.1 L934.4,306.0 L935.0,306.8 L935.6,310.0 L936.3,306.3 L936.8,317.8 L937.3,304.4 L938.0,315.6 L938.6,320.8 L939.2,316.8 L939.8,315.5 L940.4,321.5 L941.0,315.2 L941.6,315.4 L942.4,319.6 L942.9,326.6 L943.5,318.3 L944.1,328.2 L944.8,317.9 L945.4,320.6 L946.0,331.0 L946.6,328.7 L947.2,321.6 L947.8,323.4 L948.4,334.3 L948.9,335.9 L949.5,326.8 L950.1,331.4 L950.7,333.7 L951.3,333.0 L951.9,329.0 L952.5,340.1 L953.1,338.8 L953.7,336.7 L954.3,337.9 L955.1,338.5 L955.7,333.6 L956.3,336.2 L956.9,343.5 L957.5,337.8 L958.1,339.0 L958.7,339.6 L959.2,346.2 L959.8,343.4 L960.4,349.7 L961.0,348.1 L961.6,346.0 L962.2,350.9 L962.8,354.2 L963.5,356.1 L964.1,356.8 L964.7,358.8 L965.3,359.5 L965.9,360.2 L966.5,356.2 L967.0,358.9 L967.9,363.3 L968.4,361.5 L969.0,356.2 L969.7,363.4 L970.2,362.4 L970.9,361.6 L971.5,366.0 L972.1,367.9 L972.7,363.3 L973.3,368.4 L973.9,367.2 L974.5,373.2 L975.1,371.8 L975.7,369.5 L976.3,374.3 L976.9,374.7 L977.4,371.1 L978.0,373.6 L978.6,372.9 L979.2,372.7 L979.8,374.1 L980.6,381.1 L981.2,375.3 L981.8,382.5 L982.4,382.2 L983.0,381.2 L983.6,383.5 L984.2,381.9 L984.8,382.6 L985.4,388.8 L986.0,390.5 L986.6,388.2 L987.2,388.7 L987.8,390.4 L988.3,392.5 L988.9,391.4 L989.6,392.4 L990.2,391.1 L990.8,390.9 L991.4,392.2 L992.0,393.2 L992.6,394.3 L993.4,400.6 L993.9,401.2 L994.5,400.8 L995.1,403.5 L995.7,403.8 L996.4,401.3 L997.0,405.6 L997.6,405.1 L998.2,404.7 L998.8,405.0 L999.4,410.4 L999.9,410.5 L1000.5,408.4 L1001.1,412.2 L1001.7,409.1 L1002.3,410.7 L1002.9,414.5 L1003.5,412.3 L1004.1,414.8 L1004.7,415.8 L1005.3,419.0 L1006.2,417.6 L1006.8,418.0 L1007.4,421.7 L1008.0,422.6 L1008.6,422.8 L1009.2,425.4 L1009.8,425.0 L1010.4,426.9 L1011.1,427.3 L1011.6,428.0 L1012.3,429.0 L1012.8,429.4 L1013.3,429.0 L1014.0,431.4 L1014.6,431.4 L1015.2,434.2 L1015.8,434.0 L1016.4,434.7 L1017.0,434.8 L1017.6,437.5 L1018.2,438.5 L1019.5,439.3 L1020.0,441.5 L1020.6,442.1 L1021.2,442.6 L1021.8,444.8 L1022.5,446.0 L1023.1,445.3 L1023.7,447.1 L1024.3,447.8 L1024.8,448.9 L1025.4,450.1 L1026.0,451.3 L1026.6,451.5 L1027.2,453.0 L1027.8,453.7 L1028.4,454.5 L1029.0,456.1 L1029.6,457.0 L1030.2,457.9 L1030.8,458.5 L1031.4,459.9 L1032.8,461.9 L1033.4,463.1 L1034.0,463.7 L1034.6,464.8 L1035.2,465.8 L1035.8,467.0 L1036.4,467.4 L1037.0,469.4 L1037.6,469.5 L1038.2,470.4 L1038.7,471.8 L1039.3,473.1 L1039.9,473.2 L1040.5,474.3 L1041.1,475.7 L1041.8,476.6 L1042.4,477.2 L1043.0,478.6 L1043.6,479.5 L1044.2,481.1 L1044.8,481.9 L1046.2,483.8 L1046.7,483.7 L1047.3,486.3 L1047.9,485.6 L1048.6,488.6 L1049.2,487.8 L1049.8,490.0 L1050.4,489.9 L1051.0,490.6 L1051.5,491.8 L1052.1,494.1 L1052.7,494.8 L1053.3,495.3 L1053.9,496.5 L1054.5,496.0 L1055.1,497.1 L1055.7,498.8 L1056.3,499.0 L1056.9,499.0 L1057.5,499.8 L1058.1,502.1 L1059.6,502.5 L1060.1,504.2 L1060.7,504.9 L1061.3,509.2 L1061.9,508.0 L1062.5,511.4 L1063.1,510.6 L1063.7,513.4 L1064.3,511.2 L1064.9,511.1 L1065.4,514.2 L1066.0,515.2 L1066.6,517.1 L1067.2,515.0 L1067.9,516.8 L1069.6,519.3 L1070.2,520.1 L1070.8,520.2 L1071.4,520.7 L1072.6,524.6 L1073.2,524.8 L1073.8,528.0 L1074.4,530.5 L1075.0,528.0 L1075.6,526.4 L1076.2,527.1 L1076.8,533.7 L1077.4,529.1 L1078.0,531.6 L1078.5,531.5 L1079.1,533.8 L1079.8,534.8 L1080.4,536.0 L1081.0,534.5 L1081.6,539.6 L1082.2,539.0 L1082.8,539.1 L1083.4,544.0 L1084.0,539.7" fill="none" stroke="#1f77b4" stroke-width="1.4" opacity="0.85"/><text x="1040" y="54" fill="#ff7f0e" font-size="11">roll 18</text><text x="1090" y="558" fill="#ff7f0e" font-size="11">-17</text><path d="M616.5,315.3 L617.1,315.3 L617.7,315.3 L618.3,315.3 L618.9,315.3 L619.5,315.3 L620.0,315.3 L620.6,315.3 L621.2,315.3 L621.8,315.3 L622.4,315.3 L623.0,315.3 L623.6,315.3 L624.2,315.3 L624.9,315.3 L625.5,315.3 L626.1,315.3 L626.7,315.3 L627.3,315.3 L627.9,315.3 L628.5,315.3 L629.0,315.3 L629.6,315.3 L630.2,315.3 L630.8,315.3 L631.4,316.6 L632.0,316.6 L632.6,315.3 L633.2,315.3 L633.8,316.6 L634.4,315.3 L635.1,316.6 L635.7,315.3 L636.3,316.6 L636.8,316.6 L637.4,316.6 L638.0,316.6 L638.6,315.3 L639.2,316.6 L639.8,315.3 L640.4,316.6 L641.0,316.6 L641.6,316.6 L642.2,316.6 L642.8,315.3 L643.4,315.3 L644.0,316.6 L644.6,316.6 L645.1,315.3 L645.7,316.6 L646.3,316.6 L646.9,315.3 L647.6,316.6 L648.2,316.6 L648.8,316.6 L649.4,316.6 L650.0,316.6 L650.6,316.6 L651.2,316.6 L651.8,315.3 L652.3,315.3 L652.9,316.6 L653.4,316.6 L654.0,316.6 L654.6,316.6 L655.2,316.6 L655.8,316.6 L656.4,315.3 L657.0,315.3 L657.6,316.6 L658.1,316.6 L658.7,315.3 L659.3,316.6 L659.9,315.3 L660.6,316.6 L661.2,315.3 L661.8,316.6 L662.4,316.6 L663.0,315.3 L663.6,316.6 L664.2,316.6 L664.8,316.6 L665.4,315.3 L666.0,316.6 L666.5,315.3 L667.1,315.3 L667.7,315.3 L668.3,315.3 L668.9,315.3 L669.5,315.3 L670.1,316.6 L670.7,316.6 L671.4,315.3 L672.0,315.3 L672.6,316.6 L673.2,316.6 L673.8,316.6 L674.3,316.6 L674.9,315.3 L675.5,316.6 L676.1,316.6 L676.7,316.6 L677.3,315.3 L677.9,316.6 L678.5,316.6 L679.1,316.6 L679.7,316.6 L680.3,315.3 L680.9,316.6 L681.6,315.3 L682.1,315.3 L682.6,316.6 L683.3,316.6 L683.9,316.6 L684.5,315.3 L685.1,315.3 L685.7,316.6 L686.3,316.6 L686.9,316.6 L687.5,315.3 L688.1,316.6 L688.7,316.6 L689.3,316.6 L689.9,316.6 L690.4,315.3 L691.0,315.3 L691.6,315.3 L692.2,316.6 L692.8,316.6 L693.4,316.6 L694.1,316.6 L694.7,315.3 L695.3,316.6 L695.9,316.6 L696.4,316.6 L697.0,315.3 L697.6,316.6 L698.2,316.6 L698.8,316.6 L699.4,316.6 L700.0,316.6 L700.6,316.6 L701.2,316.6 L701.8,316.6 L702.4,316.6 L703.0,316.6 L703.6,315.3 L704.2,315.3 L704.7,316.6 L705.3,315.3 L706.0,316.6 L706.6,316.6 L707.2,316.6 L707.8,316.6 L708.4,315.3 L709.0,316.6 L709.6,315.3 L710.2,295.5 L710.8,270.6 L711.4,244.3 L712.0,216.7 L712.5,208.8 L713.1,177.2 L713.7,173.3 L714.3,149.6 L714.9,137.8 L715.4,136.5 L716.0,131.2 L716.6,116.8 L717.2,111.5 L717.9,118.1 L718.4,107.6 L718.9,116.8 L719.6,104.9 L720.2,112.8 L720.8,110.2 L721.4,107.6 L722.0,111.5 L722.6,99.7 L723.2,103.6 L723.8,93.1 L724.4,103.6 L725.0,98.3 L725.6,95.7 L726.1,115.4 L726.7,107.6 L727.3,118.1 L727.9,110.2 L728.5,122.0 L729.1,115.4 L729.7,115.4 L730.4,116.8 L731.0,135.2 L731.6,148.3 L732.2,150.9 L732.8,149.6 L733.4,157.5 L733.9,150.9 L734.5,156.2 L735.1,157.5 L735.7,162.8 L736.3,158.8 L736.9,216.7 L737.5,248.2 L738.1,296.9 L738.7,325.8 L739.5,363.9 L740.1,395.4 L740.7,416.5 L741.3,445.4 L741.9,454.6 L742.5,478.3 L743.0,486.2 L743.6,501.9 L744.2,508.5 L744.8,501.9 L745.4,523.0 L746.0,519.0 L746.6,511.1 L747.2,534.8 L747.8,515.1 L748.4,530.9 L749.1,530.9 L749.7,528.2 L750.3,526.9 L750.8,519.0 L751.4,523.0 L752.1,528.2 L752.6,534.8 L753.2,530.9 L753.8,521.7 L754.4,533.5 L755.0,525.6 L755.6,524.3 L756.2,536.1 L756.8,529.5 L757.3,532.2 L757.9,544.0 L758.5,524.3 L759.1,532.2 L759.7,534.8 L760.3,521.7 L760.9,528.2 L761.6,542.7 L762.2,526.9 L762.8,540.1 L763.4,521.7 L764.0,525.6 L764.6,544.0 L765.1,538.7 L765.7,529.5 L766.3,520.3 L766.9,528.2 L767.5,542.7 L768.1,538.7 L768.7,519.0 L769.3,536.1 L769.9,537.4 L770.5,538.7 L771.1,537.4 L771.8,528.2 L772.4,529.5 L773.0,528.2 L773.6,540.1 L774.1,534.8 L774.7,520.3 L775.3,524.3 L775.9,530.9 L776.5,541.4 L777.1,533.5 L777.6,536.1 L778.2,528.2 L778.8,542.7 L779.4,537.4 L780.0,530.9 L780.5,486.2 L781.1,424.4 L781.7,391.5 L782.3,344.2 L782.9,316.6 L783.5,279.8 L784.1,256.1 L784.7,221.9 L785.3,200.9 L786.0,181.2 L786.6,172.0 L787.2,145.7 L787.8,137.8 L788.3,129.9 L788.9,131.2 L789.6,129.9 L790.1,112.8 L790.7,111.5 L791.3,114.1 L791.9,111.5 L792.5,116.8 L793.1,108.9 L793.6,101.0 L794.2,99.7 L794.8,110.2 L795.4,93.1 L796.0,97.0 L796.6,110.2 L797.2,112.8 L797.9,110.2 L798.5,98.3 L799.1,91.8 L799.7,97.0 L800.3,103.6 L800.9,99.7 L801.4,103.6 L802.1,110.2 L802.6,102.3 L803.2,97.0 L803.8,108.9 L804.4,107.6 L805.0,97.0 L805.6,94.4 L806.2,103.6 L806.8,95.7 L807.4,108.9 L808.1,114.1 L808.7,93.1 L809.2,112.8 L809.8,95.7 L810.4,106.2 L811.0,90.5 L811.6,104.9 L812.2,104.9 L812.8,103.6 L813.4,90.5 L814.0,111.5 L814.9,91.8 L815.5,94.4 L816.1,102.3 L816.7,91.8 L817.3,98.3 L817.9,102.3 L818.5,93.1 L819.1,93.1 L819.7,114.1 L820.3,110.2 L820.9,112.8 L821.5,102.3 L822.1,103.6 L822.6,103.6 L823.2,93.1 L823.8,93.1 L824.4,95.7 L825.1,111.5 L825.7,111.5 L826.3,111.5 L826.9,90.5 L827.6,93.1 L828.2,95.7 L828.8,94.4 L829.4,108.9 L830.0,112.8 L830.6,91.8 L831.2,107.6 L831.8,95.7 L832.5,99.7 L833.1,107.6 L833.7,102.3 L834.2,97.0 L834.8,110.2 L835.4,102.3 L836.0,104.9 L836.6,95.7 L837.2,108.9 L837.8,106.2 L838.4,102.3 L839.0,97.0 L839.6,94.4 L840.4,97.0 L841.0,106.2 L841.6,99.7 L842.2,110.2 L842.8,97.0 L843.3,95.7 L843.9,103.6 L844.5,94.4 L845.1,107.6 L845.7,111.5 L846.3,98.3 L846.9,104.9 L847.5,107.6 L848.1,107.6 L848.7,93.1 L849.3,102.3 L849.9,111.5 L850.5,103.6 L851.1,106.2 L851.6,95.7 L852.2,108.9 L853.1,103.6 L853.6,98.3 L854.2,101.0 L854.8,107.6 L855.4,97.0 L856.0,91.8 L856.6,93.1 L857.2,95.7 L857.8,114.1 L858.4,102.3 L859.0,95.7 L859.6,114.1 L860.3,102.3 L860.9,104.9 L861.4,102.3 L862.0,91.8 L862.6,104.9 L863.2,98.3 L863.8,102.3 L864.4,102.3 L865.0,94.4 L865.9,93.1 L866.5,107.6 L867.1,106.2 L867.7,106.2 L868.3,102.3 L868.9,91.8 L869.5,104.9 L870.1,101.0 L870.7,101.0 L871.3,108.9 L871.9,106.2 L872.5,106.2 L873.1,94.4 L873.7,104.9 L874.3,99.7 L874.8,93.1 L875.4,108.9 L876.0,103.6 L876.6,94.4 L877.3,102.3 L877.9,91.8 L878.6,111.5 L879.2,103.6 L879.8,97.0 L880.4,99.7 L881.0,103.6 L881.6,101.0 L882.2,107.6 L882.8,102.3 L883.4,101.0 L884.1,110.2 L884.7,107.6 L885.3,98.3 L885.9,110.2 L886.4,97.0 L887.0,91.8 L887.6,93.1 L888.2,104.9 L888.8,98.3 L889.4,107.6 L890.0,107.6 L890.6,107.6 L891.4,106.2 L891.9,111.5 L892.5,93.1 L893.2,111.5 L893.8,89.1 L894.4,106.2 L895.0,106.2 L895.5,91.8 L896.1,98.3 L896.7,112.8 L897.3,106.2 L897.9,106.2 L898.5,93.1 L899.1,90.5 L899.7,112.8 L900.3,108.9 L900.9,94.4 L901.5,106.2 L902.1,107.6 L902.7,104.9 L903.4,110.2 L904.1,97.0 L904.7,107.6 L905.3,107.6 L905.8,101.0 L906.4,98.3 L907.0,91.8 L907.6,106.2 L908.2,101.0 L908.8,99.7 L909.4,110.2 L910.0,99.7 L910.6,103.6 L911.2,111.5 L911.9,108.9 L912.5,106.2 L913.1,110.2 L913.6,102.3 L914.2,107.6 L914.8,99.7 L915.4,110.2 L916.0,93.1 L916.9,95.7 L917.4,95.7 L918.0,111.5 L918.7,101.0 L919.3,101.0 L919.9,102.3 L920.5,98.3 L921.1,101.0 L921.7,108.9 L922.3,101.0 L922.9,112.8 L923.5,90.5 L924.1,103.6 L924.7,98.3 L925.3,106.2 L925.9,104.9 L926.5,91.8 L927.0,99.7 L927.6,106.2 L928.2,99.7 L928.8,93.1 L929.6,103.6 L930.2,103.6 L930.8,112.8 L931.4,94.4 L932.0,94.4 L932.6,99.7 L933.2,102.3 L933.8,106.2 L934.4,103.6 L935.0,108.9 L935.6,101.0 L936.3,99.7 L936.8,94.4 L937.3,101.0 L938.0,95.7 L938.6,106.2 L939.2,95.7 L939.8,98.3 L940.4,95.7 L941.0,101.0 L941.6,97.0 L942.4,95.7 L942.9,97.0 L943.5,99.7 L944.1,95.7 L944.8,103.6 L945.4,111.5 L946.0,108.9 L946.6,97.0 L947.2,106.2 L947.8,107.6 L948.4,103.6 L948.9,95.7 L949.5,110.2 L950.1,98.3 L950.7,97.0 L951.3,102.3 L951.9,106.2 L952.5,108.9 L953.1,95.7 L953.7,98.3 L954.3,94.4 L955.1,111.5 L955.7,102.3 L956.3,91.8 L956.9,110.2 L957.5,104.9 L958.1,94.4 L958.7,104.9 L959.2,110.2 L959.8,110.2 L960.4,107.6 L961.0,111.5 L961.6,95.7 L962.2,90.5 L962.8,91.8 L963.4,101.0 L964.1,94.4 L964.7,98.3 L965.3,104.9 L965.9,102.3 L966.5,97.0 L967.0,111.5 L967.9,106.2 L968.4,99.7 L969.0,91.8 L969.7,110.2 L970.2,106.2 L970.9,95.7 L971.5,103.6 L972.1,95.7 L972.7,98.3 L973.3,114.1 L973.9,111.5 L974.5,91.8 L975.1,93.1 L975.7,103.6 L976.3,111.5 L976.9,106.2 L977.4,95.7 L978.0,104.9 L978.6,98.3 L979.2,103.6 L979.8,93.1 L980.6,104.9 L981.2,108.9 L981.8,101.0 L982.4,102.3 L983.0,95.7 L983.6,94.4 L984.2,95.7 L984.8,112.8 L985.4,107.6 L986.0,108.9 L986.6,98.3 L987.2,111.5 L987.8,98.3 L988.3,99.7 L988.9,103.6 L989.5,95.7 L990.2,91.8 L990.8,114.1 L991.4,99.7 L992.0,95.7 L992.6,99.7 L993.4,111.5 L993.9,103.6 L994.5,106.2 L995.1,106.2 L995.7,95.7 L996.3,101.0 L997.0,99.7 L997.6,102.3 L998.2,95.7 L998.8,94.4 L999.4,102.3 L999.9,93.1 L1000.5,111.5 L1001.1,107.6 L1001.7,108.9 L1002.3,94.4 L1002.9,94.4 L1003.5,97.0 L1004.1,111.5 L1004.7,98.3 L1005.3,99.7 L1006.2,95.7 L1006.8,93.1 L1007.4,112.8 L1008.0,104.9 L1008.6,101.0 L1009.2,104.9 L1009.8,104.9 L1010.4,101.0 L1011.0,102.3 L1011.6,102.3 L1012.3,106.2 L1012.8,94.4 L1013.3,97.0 L1014.0,95.7 L1014.6,94.4 L1015.2,102.3 L1015.8,114.1 L1016.4,98.3 L1017.0,110.2 L1017.6,110.2 L1018.2,104.9 L1019.5,99.7 L1020.0,110.2 L1020.6,104.9 L1021.2,98.3 L1021.8,108.9 L1022.4,95.7 L1023.1,94.4 L1023.7,110.2 L1024.3,108.9 L1024.8,94.4 L1025.4,104.9 L1026.0,93.1 L1026.6,97.0 L1027.2,91.8 L1027.8,89.1 L1028.4,85.2 L1029.0,95.7 L1029.6,89.1 L1030.2,86.5 L1030.8,76.0 L1031.4,83.9 L1032.8,103.6 L1033.4,95.7 L1034.0,123.3 L1034.6,132.5 L1035.2,135.2 L1035.8,137.8 L1036.4,116.8 L1037.0,110.2 L1037.6,147.0 L1038.1,129.9 L1038.7,110.2 L1039.3,133.8 L1039.9,137.8 L1040.5,140.4 L1041.1,152.2 L1041.7,127.3 L1042.4,164.1 L1043.0,149.6 L1043.6,164.1 L1044.2,150.9 L1044.8,153.6 L1046.2,137.8 L1046.7,182.5 L1047.3,173.3 L1047.9,186.4 L1048.5,182.5 L1049.2,158.8 L1049.8,169.3 L1050.4,164.1 L1051.0,170.7 L1051.5,186.4 L1052.1,207.5 L1052.7,202.2 L1053.3,244.3 L1053.9,253.5 L1054.5,225.9 L1055.1,229.8 L1055.7,254.8 L1056.3,243.0 L1056.9,252.2 L1057.5,233.8 L1058.1,248.2 L1059.6,264.0 L1060.1,257.4 L1060.7,271.9 L1061.3,245.6 L1061.9,229.8 L1062.5,257.4 L1063.1,249.5 L1063.7,269.2 L1064.3,279.8 L1064.9,291.6 L1065.4,271.9 L1066.0,294.2 L1066.6,296.9 L1067.2,312.6 L1067.9,325.8 L1069.5,296.9 L1070.2,298.2 L1070.8,300.8 L1071.4,302.1 L1072.6,303.4 L1073.2,306.1 L1073.8,306.1 L1074.4,307.4 L1075.0,308.7 L1075.6,310.0 L1076.2,310.0 L1076.8,311.3 L1077.4,311.3 L1078.0,310.0 L1078.5,311.3 L1079.1,312.6 L1079.7,312.6 L1080.4,312.6 L1081.0,312.6 L1081.6,312.6 L1082.2,312.6 L1082.8,313.9 L1083.4,312.6 L1084.0,313.9" fill="none" stroke="#ff7f0e" stroke-width="1.1" opacity="0.85"/><text x="616" y="572" font-size="11" fill="#888">time 0..39 s — altitude (blue) &amp; roll (orange)</text></svg>