<svg xmlns="http://www.w3.org/2000/svg" width="1140" height="600" font-family="sans-serif" font-size="13"><rect width="1140" height="600" fill="white"/><text x="20" y="26" font-size="15" fill="#333">Coludo flight</text><rect x="20" y="40" width="540" height="540" fill="#fbfbfb" stroke="#ddd"/><rect x="50" y="303" width="318" height="68" fill="#cde" stroke="#369" opacity="0.7"/><text x="50" y="298" fill="#369" font-size="12">landing zone</text><circle cx="251" cy="409" r="5" fill="black"/><text x="259" y="413" font-size="12">pad</text><path d="M251.8,409.3 L251.8,409.3 L251.8,409.3 L251.8,409.3 L251.8,409.3 L251.8,409.3 L251.8,409.3 L251.8,409.3 L251.8,409.3 L251.8,409.3 L251.8,409.3 L251.8,409.3 L251.8,409.3 L251.8,409.3 L251.8,409.3 L251.8,409.3 L251.8,409.3 L251.8,409.3 L251.8,409.3 L251.8,409.3 L251.8,409.3 L251.8,409.3 L251.8,409.3 L251.8,409.3 L251.8,409.3 L251.8,409.3 L251.8,409.3 L251.8,409.3 L251.8,409.3 L251.8,409.3 L251.8,409.3 L251.8,409.3 L251.8,409.3 L251.8,409.3 L251.8,409.3 L251.8,409.3 L251.8,409.3 L251.8,409.3 L251.8,409.3 L251.8,409.3 L251.8,409.3 L251.8,409.3 L251.8,409.3 L251.8,409.3 L251.8,409.3 L251.8,409.3 L251.8,409.3 L251.8,409.3 L251.8,409.3 L251.8,409.3 L251.8,409.3 L251.8,409.3 L251.8,409.3 L251.8,409.3 L251.8,409.3 L251.8,409.3 L251.8,409.3 L251.8,409.3 L251.8,409.3 L251.8,409.3 L251.8,409.3 L251.8,409.3 L251.8,409.3 L251.8,409.3 L251.8,409.3 L251.8,409.3 L251.8,409.3 L251.8,409.3 L251.8,409.3 L251.8,409.3 L251.8,409.3 L251.8,409.3 L251.8,409.3 L251.8,409.3 L251.8,409.3 L251.8,409.3 L251.8,409.3 L251.8,409.3 L251.8,409.3 L251.8,409.3 L251.8,409.3 L251.8,409.3 L251.8,409.3 L251.8,409.3 L251.8,409.3 L252.8,408.2 L253.5,405.5 L255.2,403.2 L256.9,399.8 L258.6,397.6 L260.3,395.3 L262.0,392.7 L263.7,390.0 L267.1,388.1 L269.2,385.1 L270.5,382.8 L274.0,380.6 L275.7,379.0 L279.1,376.4 L280.1,375.3 L282.5,373.7 L285.6,371.5 L287.6,369.6 L289.3,368.4 L292.4,366.6 L294.4,365.0 L296.5,362.8 L299.6,360.9 L301.9,359.4 L303.0,356.7 L307.4,354.1 L308.1,351.8 L311.5,350.3 L313.2,348.4 L314.2,345.4 L314.9,343.9 L318.3,340.8 L319.7,338.6 L320.0,337.0 L323.5,334.0 L323.8,331.0 L325.2,329.1 L326.9,325.3 L328.6,323.1 L328.6,320.4 L329.3,317.0 L330.3,314.0 L332.0,311.7 L332.0,308.3 L333.7,304.5 L333.7,301.1 L334.7,298.8 L334.7,295.1 L335.4,291.3 L335.4,288.2 L337.1,284.5 L337.1,281.4 L338.8,279.2 L340.5,275.0 L340.9,272.4 L340.9,270.1 L342.2,267.4 L343.9,264.4 L345.6,262.1 L347.0,259.5 L347.4,257.2 L349.1,255.3 L351.1,252.3 L352.5,250.8 L355.9,247.4 L356.6,245.1 L359.3,242.9 L361.0,241.0 L364.1,238.3 L366.1,236.0 L368.2,233.8 L371.3,231.1 L375.0,228.9 L376.4,227.3 L378.4,225.8 L381.5,223.9 L383.9,222.4 L386.6,220.9 L390.0,219.8 L393.4,217.9 L395.5,217.1 L400.3,215.6 L401.0,214.9 L405.4,213.7 L405.7,213.3 L410.5,212.6 L413.9,211.8 L417.3,211.5 L419.0,211.1 L423.5,210.7 L427.6,210.3 L429.3,210.3 L435.1,210.3 L436.1,210.3 L440.6,210.7 L442.9,210.7 L444.7,211.1 L446.4,211.5 L450.8,212.2 L454.9,212.6 L456.3,213.0 L460.0,214.1 L463.4,215.2 L466.8,216.4 L468.5,217.5 L472.0,219.0 L475.4,220.5 L477.4,221.7 L480.5,222.8 L483.6,224.7 L487.3,227.0 L489.0,228.5 L490.7,229.2 L492.4,230.7 L494.5,233.4 L497.6,234.9 L500.6,237.2 L501.0,238.7 L504.4,241.3 L504.7,243.2 L507.8,245.9 L509.5,247.8 L511.2,250.4 L512.9,251.9 L514.6,255.3 L516.3,257.6 L518.1,260.3 L518.1,262.5 L521.5,265.6 L521.8,267.8 L523.2,271.6 L524.9,274.6 L526.6,278.0 L526.6,281.4 L527.3,284.8 L528.3,288.2 L528.3,290.5 L528.3,292.8 L530.0,295.4 L530.0,298.8 L530.0,301.5 L530.0,303.8 L530.0,306.8 L530.0,310.6 L530.0,314.0 L530.0,316.6 L530.0,320.4 L530.0,322.7 L528.3,326.1 L528.3,329.9 L527.3,332.1 L527.3,335.5 L526.6,337.4 L524.9,341.2 L523.2,344.6 L521.8,348.0 L521.5,351.0 L521.5,352.9 L518.1,356.0 L516.3,359.4 L516.3,361.3 L514.6,363.9 L511.2,366.6 L511.6,369.6 L507.8,372.2 L504.7,375.3 L504.4,376.8 L501.0,379.4 L499.3,381.7 L497.6,384.0 L494.5,385.8 L492.4,388.1 L489.0,390.4 L487.3,391.9 L485.6,392.7 L482.2,394.5 L478.8,396.4 L477.1,398.0 L473.7,399.5 L470.3,400.6 L466.5,402.1 L463.4,403.2 L461.7,404.4 L458.3,405.1 L454.9,406.3 L451.5,407.0 L449.8,407.4 L446.4,407.8 L444.7,408.2 L440.6,408.5 L439.5,408.9 L436.1,408.9 L435.1,408.9 L429.3,409.3 L427.6,408.9 L423.5,408.9 L420.8,408.5 L418.0,408.5 L413.9,407.8 L412.2,407.4 L408.8,407.0 L405.7,406.7 L403.7,405.5 L401.0,405.1 L396.9,403.6 L395.1,402.5 L391.7,401.7 L390.0,400.2 L384.9,399.1 L383.2,398.0 L381.5,396.4 L378.1,394.2 L375.0,391.9 L373.0,390.8 L369.5,389.3 L367.8,387.4 L366.1,385.8 L364.1,384.3 L361.0,382.1 L357.6,379.4 L356.6,377.5 L354.2,374.9 L351.1,372.2 L350.8,369.6 L347.4,366.9 L347.0,364.7 L343.9,362.0 L342.2,360.5 L340.5,357.5 L337.1,354.4 L335.4,352.6 L334.7,351.0 L332.0,348.8 L330.3,346.9 L328.6,345.0 L325.2,343.5 L323.5,341.2 L321.7,339.7 L318.3,337.4 L316.6,336.3 L313.2,334.8 L311.5,333.6 L308.1,331.8 L304.7,330.2 L301.9,329.5 L297.9,327.6 L294.4,326.5 L292.4,325.7 L289.3,324.6 L285.6,323.8 L282.5,323.1 L279.1,322.3 L275.7,321.9 L272.2,321.5 L268.8,321.2 L267.1,321.2 L263.7,320.8 L258.6,320.8 L256.9,320.4 L252.8,320.8 L248.3,320.8 L246.6,320.8 L241.9,321.5 L239.8,321.5 L236.4,321.9 L233.0,322.7 L230.9,323.1 L226.2,323.8 L225.5,324.2 L221.0,325.7 L217.6,326.5 L214.6,327.6 L210.8,329.1 L209.1,329.9 L205.7,331.0 L203.6,332.5 L200.6,333.6 L197.1,335.9 L193.7,337.8 L192.0,339.7 L187.2,341.6 L185.2,344.2 L183.5,345.4 L180.4,347.6 L180.1,349.5 L176.3,352.6 L175.0,354.1 L171.5,356.7 L170.9,358.6 L169.8,360.5 L166.4,363.1 L165.4,365.0 L164.7,368.4 L163.0,370.0 L159.6,373.0 L159.2,376.0 L156.2,378.7 L153.1,381.3 L152.8,384.3 L149.3,385.8 L147.6,388.1 L145.9,390.8 L143.5,392.7 L140.8,394.2 L138.1,396.1 L137.4,397.6 L134.0,398.7 L131.9,400.2 L127.2,402.1 L125.4,403.6 L122.0,404.4 L120.3,405.5 L118.6,406.3 L116.2,407.0 L111.8,407.4 L110.1,408.2 L106.7,408.5 L104.6,408.9 L99.2,409.3 L94.7,409.7 L91.3,409.7 L87.9,409.3 L84.5,409.3 L81.1,408.9 L76.6,408.5 L74.2,408.5 L71.2,408.2 L69.1,408.2" fill="none" stroke="#1f77b4" stroke-width="1.7" opacity="0.85"/><circle cx="69" cy="408" r="4.5" fill="#1f77b4"/><text x="28" y="572" font-size="11" fill="#888">ground track — m from pad (N up)</text><rect x="580" y="40" width="540" height="540" fill="#fbfbfb" stroke="#ddd"/><text x="586" y="54" fill="#1f77b4" font-size="11">alt 404</text><text x="586" y="558" fill="#1f77b4" font-size="11">-53</text><path d="M616.3,487.3 L616.8,487.2 L617.2,487.0 L617.7,486.8 L618.1,486.4 L618.5,486.1 L618.9,485.7 L619.3,485.0 L619.7,484.5 L620.1,483.7 L620.6,483.1 L621.0,482.1 L621.4,481.4 L621.9,480.2 L622.3,479.3 L622.7,478.0 L623.2,477.0 L623.5,476.0 L623.9,474.4 L624.4,473.3 L624.8,472.1 L625.2,470.2 L625.6,468.9 L626.0,467.0 L626.5,465.6 L626.9,463.4 L627.3,461.8 L627.7,460.3 L628.1,457.8 L628.5,456.2 L629.0,453.6 L629.4,451.8 L629.8,449.1 L630.3,447.2 L630.7,444.3 L631.1,442.2 L631.6,439.2 L631.9,437.1 L632.3,435.2 L632.8,431.8 L633.2,429.4 L633.6,426.2 L634.1,423.8 L634.5,420.4 L634.9,417.8 L635.4,414.1 L635.8,411.6 L636.2,407.5 L636.7,404.9 L637.1,400.9 L637.5,398.6 L637.9,395.8 L638.3,391.7 L638.7,388.5 L639.2,384.2 L639.6,381.3 L640.0,377.1 L640.5,374.2 L640.9,369.3 L641.3,366.5 L641.8,361.9 L642.2,358.4 L642.6,353.7 L643.0,350.2 L643.5,345.5 L643.8,341.9 L644.3,338.7 L644.7,333.7 L645.1,330.6 L645.6,324.8 L646.0,321.8 L646.4,316.4 L646.9,312.6 L647.2,309.9 L647.6,304.4 L648.1,301.4 L648.4,297.9 L648.8,293.7 L649.3,289.7 L649.7,285.5 L650.1,281.9 L650.6,277.7 L651.0,274.4 L651.4,269.9 L651.9,266.9 L652.3,262.5 L652.7,260.4 L653.2,256.3 L653.6,253.3 L654.0,249.3 L654.5,246.2 L654.8,244.0 L655.2,239.1 L655.7,236.6 L656.1,232.6 L656.5,229.9 L657.0,226.2 L657.4,224.5 L657.8,220.0 L658.3,217.7 L658.7,213.9 L659.1,212.6 L659.6,208.3 L660.0,206.7 L660.4,204.7 L660.8,200.2 L661.2,199.1 L661.6,194.7 L662.1,193.6 L662.5,189.3 L662.9,188.2 L663.4,184.3 L663.8,183.0 L664.2,179.6 L664.7,177.9 L665.1,174.2 L665.5,172.9 L665.9,171.1 L666.3,167.8 L666.7,167.0 L667.2,163.7 L667.6,162.2 L668.0,159.2 L668.5,156.9 L668.9,155.2 L669.3,153.9 L669.8,151.3 L670.2,148.9 L670.6,146.7 L671.0,145.7 L671.4,144.3 L671.8,140.9 L672.3,139.3 L672.7,137.3 L673.1,135.4 L673.6,133.8 L674.0,131.7 L674.4,130.8 L674.9,128.3 L675.2,127.0 L675.6,126.3 L676.1,123.6 L676.5,122.4 L676.9,121.1 L677.4,118.4 L677.8,117.3 L678.2,117.2 L678.7,115.5 L679.1,113.4 L679.5,111.6 L680.0,111.5 L680.4,109.4 L680.8,108.9 L681.2,107.0 L681.6,105.5 L682.0,105.4 L682.5,104.6 L682.9,102.6 L683.3,101.8 L683.8,99.7 L684.2,98.2 L684.6,98.4 L685.1,96.7 L685.5,96.1 L685.9,94.2 L686.4,93.3 L686.8,94.1 L687.2,91.5 L687.6,90.4 L688.0,89.9 L688.4,89.3 L688.9,89.0 L689.3,88.8 L689.7,87.5 L690.2,86.4 L690.6,85.9 L691.0,85.3 L691.4,83.7 L691.9,83.5 L692.3,82.7 L692.7,83.6 L693.1,82.0 L693.5,82.9 L694.0,81.4 L694.4,81.9 L694.8,81.4 L695.3,81.1 L695.7,80.0 L696.1,79.3 L696.5,79.5 L697.0,78.9 L697.3,79.3 L697.8,78.6 L698.2,77.2 L698.6,77.3 L699.1,77.3 L699.5,77.1 L699.9,76.3 L700.4,76.0 L700.8,77.0 L701.2,76.9 L701.6,76.2 L702.1,77.0 L702.5,76.9 L702.9,76.3 L703.3,76.6 L703.7,76.8 L704.2,77.8 L704.6,76.6 L705.0,77.0 L705.4,77.8 L705.8,77.1 L706.2,78.4 L706.7,78.7 L707.1,77.4 L707.5,78.3 L708.0,79.2 L708.4,80.1 L708.8,79.6 L709.3,79.8 L709.7,80.5 L710.1,79.9 L710.5,82.2 L711.0,82.0 L711.3,82.9 L711.8,82.8 L712.2,83.4 L712.6,83.4 L713.1,82.6 L713.5,82.9 L713.9,82.8 L714.4,83.8 L714.8,84.1 L715.2,83.5 L715.6,84.7 L716.1,83.7 L716.5,83.2 L716.9,83.5 L717.3,84.1 L717.7,84.7 L718.2,83.5 L718.6,84.1 L719.0,84.2 L719.5,83.8 L719.9,84.3 L720.3,83.9 L720.7,84.9 L721.2,84.3 L721.8,85.0 L722.1,85.8 L722.6,85.5 L723.0,85.9 L723.4,84.6 L723.9,85.8 L724.2,85.0 L724.6,85.3 L725.1,85.1 L725.5,85.9 L725.9,85.9 L726.4,86.5 L726.8,85.8 L727.2,87.3 L727.7,87.1 L728.1,86.4 L728.5,86.4 L729.0,86.9 L729.4,86.5 L729.8,87.7 L730.2,87.2 L730.7,86.9 L731.0,87.8 L731.5,89.0 L731.9,88.2 L732.3,87.8 L732.8,88.4 L733.2,89.0 L733.6,88.8 L734.0,89.6 L734.4,88.8 L734.8,89.7 L735.3,90.2 L735.7,89.0 L736.1,90.4 L736.6,90.5 L737.0,90.3 L737.4,89.7 L737.9,90.7 L738.3,91.0 L738.7,90.6 L739.1,90.9 L739.6,92.0 L739.9,91.9 L740.4,91.4 L740.8,91.5 L741.2,92.3 L741.7,93.1 L742.1,92.5 L742.5,93.7 L743.0,93.7 L743.4,93.7 L743.8,94.5 L744.3,94.5 L744.6,94.0 L745.0,94.5 L745.5,93.5 L745.9,95.0 L746.3,94.7 L746.8,95.1 L747.2,94.9 L747.6,95.3 L748.1,95.7 L748.5,95.7 L748.9,96.5 L749.4,96.2 L749.8,96.6 L750.2,96.7 L750.6,97.4 L751.0,97.9 L751.4,98.1 L751.9,97.6 L752.3,98.5 L752.7,99.1 L753.2,98.2 L753.6,100.2 L754.0,100.2 L754.5,100.5 L754.9,100.0 L755.3,99.5 L755.7,101.0 L756.1,101.5 L756.5,101.7 L757.0,100.8 L757.4,101.0 L757.7,101.5 L758.2,101.4 L758.6,101.6 L759.0,103.4 L759.5,104.1 L759.9,103.4 L760.3,102.8 L760.7,105.0 L761.1,103.7 L761.5,105.2 L762.0,104.8 L762.4,105.8 L762.8,106.0 L763.3,106.6 L763.7,106.2 L764.1,107.3 L764.6,107.8 L765.0,107.6 L765.4,106.5 L765.8,107.5 L766.5,108.9 L766.9,108.9 L767.3,109.5 L767.7,109.2 L768.1,109.8 L768.5,109.9 L769.0,109.8 L769.4,110.4 L769.8,110.8 L770.3,111.4 L770.7,111.3 L771.1,111.7 L771.6,112.2 L772.0,112.5 L772.4,112.3 L772.9,112.6 L773.2,112.9 L773.6,114.7 L774.1,114.3 L774.5,115.5 L774.9,114.4 L775.5,115.7 L775.9,115.2 L776.3,116.6 L776.8,116.7 L777.2,116.7 L777.6,116.8 L778.0,118.4 L778.5,118.4 L778.9,118.3 L779.3,118.8 L779.8,119.3 L780.2,118.6 L780.6,119.9 L781.1,120.6 L781.4,121.5 L781.9,121.6 L782.3,121.9 L782.7,122.2 L783.1,121.7 L783.6,121.6 L784.0,123.2 L784.6,122.6 L785.1,124.0 L785.5,123.6 L785.9,125.3 L786.3,125.4 L786.8,125.7 L787.2,126.1 L787.6,126.6 L788.1,126.5 L788.5,127.3 L788.9,127.3 L789.4,127.1 L789.8,128.6 L790.2,128.0 L790.6,128.5 L791.0,129.4 L791.4,129.8 L791.9,130.2 L792.3,131.7 L792.7,130.9 L793.2,131.6 L793.7,131.8 L794.1,132.9 L794.6,133.8 L795.0,133.2 L795.4,134.6 L795.9,134.1 L796.3,135.1 L796.7,134.2 L797.2,135.1 L797.6,135.1 L798.0,135.6 L798.4,136.7 L798.9,136.6 L799.3,137.3 L799.7,138.6 L800.1,139.0 L800.5,139.8 L801.0,140.2 L801.4,139.1 L801.8,140.4 L802.2,139.9 L802.8,141.2 L803.2,141.3 L803.6,142.4 L804.1,142.2 L804.5,143.6 L804.9,143.3 L805.4,143.7 L805.7,144.4 L806.1,144.8 L806.6,145.7 L807.0,146.4 L807.4,147.0 L807.9,146.4 L808.3,147.7 L808.7,147.2 L809.2,148.5 L809.6,148.3 L810.0,149.5 L810.5,149.3 L810.9,149.9 L811.3,151.4 L811.9,151.6 L812.3,151.9 L812.7,151.5 L813.2,152.3 L813.6,153.9 L814.0,153.5 L814.4,154.5 L814.9,155.2 L815.3,155.2 L815.7,155.2 L816.2,156.6 L816.6,157.0 L817.0,156.8 L817.5,158.1 L817.9,158.5 L818.3,157.8 L818.7,159.8 L819.1,159.8 L819.5,159.6 L820.0,161.4 L820.4,160.6 L820.9,161.8 L821.4,161.5 L821.8,163.2 L822.2,163.0 L822.6,163.4 L823.1,163.9 L823.5,164.1 L823.9,165.9 L824.4,165.3 L824.8,166.4 L825.2,166.7 L825.7,167.1 L826.1,167.6 L826.5,168.9 L826.9,168.5 L827.3,168.5 L827.7,170.2 L828.2,169.8 L828.6,170.4 L829.0,171.9 L829.5,171.7 L830.0,172.8 L830.4,172.9 L830.9,173.4 L831.3,173.7 L831.7,175.4 L832.2,175.0 L832.6,175.2 L833.0,175.9 L833.4,176.9 L833.9,177.3 L834.3,178.7 L834.7,178.9 L835.2,178.8 L835.5,179.8 L836.0,180.3 L836.4,181.3 L836.8,181.6 L837.3,182.0 L837.7,182.7 L838.1,182.8 L838.5,183.4 L839.1,183.9 L839.5,185.0 L839.9,185.4 L840.4,186.2 L840.8,185.9 L841.2,186.1 L841.7,186.6 L842.1,187.9 L842.5,187.6 L842.9,189.2 L843.3,190.0 L843.7,189.5 L844.2,190.7 L844.6,190.7 L845.0,190.9 L845.5,192.5 L845.9,192.8 L846.3,192.7 L846.8,193.3 L847.2,194.0 L847.6,194.8 L848.2,195.7 L848.6,196.4 L849.0,197.1 L849.4,196.9 L849.8,198.4 L850.2,199.0 L850.6,198.3 L851.1,199.7 L851.5,199.7 L851.9,200.0 L852.4,200.9 L852.8,201.8 L853.2,201.6 L853.7,203.6 L854.1,203.0 L854.5,203.9 L855.0,204.8 L855.4,204.7 L855.8,205.1 L856.2,206.1 L856.6,207.1 L857.2,207.0 L857.6,208.8 L858.1,208.2 L858.5,209.6 L858.9,210.2 L859.4,210.9 L859.8,211.1 L860.2,212.3 L860.7,212.8 L861.1,213.2 L861.5,213.1 L862.0,213.7 L862.4,214.0 L862.8,215.9 L863.3,215.1 L863.7,216.7 L864.1,217.5 L864.5,217.5 L864.9,217.7 L865.3,218.9 L865.8,219.4 L866.3,219.8 L866.7,219.9 L867.2,220.7 L867.6,222.3 L868.0,222.5 L868.5,222.8 L868.9,223.7 L869.3,223.6 L869.7,224.2 L870.2,225.6 L870.6,225.6 L871.0,226.5 L871.5,227.4 L871.9,228.2 L872.3,228.6 L872.8,228.8 L873.1,229.0 L873.6,230.0 L874.0,230.5 L874.4,231.4 L874.8,231.9 L875.4,232.3 L875.8,233.4 L876.2,233.5 L876.7,233.9 L877.1,234.3 L877.5,235.6 L878.0,235.9 L878.4,236.9 L878.8,237.2 L879.3,237.8 L879.7,238.3 L880.1,239.1 L880.6,239.4 L881.0,240.0 L881.4,241.0 L881.8,241.5 L882.2,242.0 L882.6,242.4 L883.1,243.4 L883.5,243.7 L883.9,245.1 L884.5,245.4 L884.9,246.5 L885.3,246.6 L885.7,247.2 L886.2,248.2 L886.6,247.9 L887.0,248.7 L887.5,249.6 L887.9,250.7 L888.3,251.2 L888.8,251.3 L889.2,252.7 L889.6,252.2 L890.0,253.8 L890.4,254.0 L890.8,254.7 L891.3,255.5 L891.7,256.3 L892.1,256.0 L892.6,256.6 L893.0,257.1 L893.7,258.6 L894.0,259.2 L894.5,260.4 L894.9,260.5 L895.3,261.1 L895.8,261.9 L896.2,262.5 L896.6,262.8 L897.1,263.6 L897.5,264.5 L897.9,264.4 L898.4,265.2 L898.8,266.6 L899.2,267.1 L899.7,267.4 L900.0,267.9 L900.4,268.9 L900.9,268.9 L901.3,269.5 L901.7,270.6 L902.2,271.3 L902.7,271.4 L903.1,272.4 L903.5,273.6 L904.0,273.7 L904.4,274.7 L904.8,274.8 L905.3,275.9 L905.7,277.0 L906.1,276.7 L906.5,277.9 L906.9,278.2 L907.3,278.5 L907.8,279.3 L908.2,280.4 L908.6,281.0 L909.1,281.8 L909.5,281.9 L909.9,282.6 L910.4,283.4 L910.8,283.6 L911.2,284.4 L912.2,285.9 L912.6,286.6 L913.0,287.0 L913.5,288.1 L913.9,288.4 L914.3,289.7 L914.8,289.8 L915.2,290.5 L915.6,291.1 L916.1,291.9 L916.5,292.9 L916.9,292.5 L917.3,293.3 L917.7,293.9 L918.1,294.7 L918.6,295.2 L919.0,296.2 L919.4,296.6 L919.9,298.0 L920.3,298.7 L920.7,299.1 L921.7,299.8 L922.1,301.1 L922.6,301.2 L923.0,302.4 L923.4,302.5 L923.9,303.9 L924.3,304.5 L924.7,305.4 L925.1,306.0 L925.5,305.9 L925.9,307.0 L926.4,307.8 L926.8,308.2 L927.2,308.4 L927.7,309.9 L928.1,309.7 L928.5,311.2 L929.0,311.4 L929.4,311.9 L929.8,313.1 L930.2,313.8 L931.3,314.4 L931.6,315.5 L932.1,316.4 L932.5,317.1 L932.9,317.2 L933.4,318.3 L933.8,318.4 L934.2,319.2 L934.7,319.9 L935.0,320.8 L935.4,321.3 L935.9,322.0 L936.3,322.8 L936.7,322.9 L937.2,323.7 L937.6,324.8 L938.0,325.3 L938.5,325.9 L938.9,326.5 L939.3,327.4 L939.8,328.0 L940.8,329.3 L941.1,329.9 L941.6,330.7 L942.0,331.6 L942.4,331.8 L942.9,332.8 L943.3,333.2 L943.7,334.6 L944.2,334.9 L944.5,335.0 L944.9,336.1 L945.4,336.6 L945.8,337.7 L946.2,338.1 L946.7,339.0 L947.1,339.2 L947.5,340.3 L948.0,340.9 L948.4,341.7 L948.8,341.8 L949.3,343.0 L950.3,343.9 L950.6,345.0 L951.1,345.6 L951.5,346.6 L951.9,346.6 L952.4,347.7 L952.8,348.5 L953.2,349.2 L953.7,349.6 L954.0,349.8 L954.4,351.3 L954.9,351.4 L955.3,352.4 L955.7,353.0 L956.2,353.4 L956.6,354.1 L957.0,354.8 L957.5,355.4 L957.9,356.5 L958.3,356.8 L958.8,357.9 L959.8,359.3 L960.2,360.2 L960.6,360.2 L961.0,361.4 L961.4,361.7 L961.9,362.9 L962.3,363.3 L962.7,364.3 L963.2,364.3 L963.6,365.4 L964.0,366.1 L964.4,366.4 L964.8,367.0 L965.3,367.8 L965.7,368.6 L966.1,369.1 L966.5,370.2 L967.0,370.7 L967.4,371.2 L967.8,372.0 L968.3,372.7 L969.3,374.0 L969.7,374.8 L970.1,375.3 L970.5,375.8 L971.0,376.8 L971.4,377.2 L971.8,377.6 L972.3,379.0 L972.7,379.2 L973.1,379.6 L973.5,380.6 L973.9,381.1 L974.3,381.6 L974.8,382.3 L975.2,382.9 L975.6,383.9 L976.1,384.4 L976.5,385.0 L976.9,385.8 L977.3,386.4 L977.8,387.1 L978.8,388.4 L979.2,388.9 L979.6,389.8 L980.0,390.7 L980.5,390.9 L980.9,391.6 L981.3,392.5 L981.7,392.7 L982.1,393.4 L982.5,394.1 L983.0,394.9 L983.4,395.7 L983.8,396.1 L984.3,396.8 L984.7,397.4 L985.1,398.0 L985.6,398.7 L986.0,399.4 L986.4,400.4 L986.9,400.6 L987.2,401.1 L988.3,402.8 L988.7,403.7 L989.1,404.3 L989.5,404.8 L990.0,405.5 L990.4,406.1 L990.8,406.9 L991.3,407.5 L991.7,408.3 L992.1,408.7 L992.5,409.4 L992.9,410.1 L993.3,410.7 L993.8,411.2 L994.2,412.0 L994.6,412.5 L995.1,413.3 L995.5,414.0 L995.9,414.7 L996.4,415.3 L996.8,416.3 L997.8,417.6 L998.2,418.1 L998.6,418.7 L999.0,419.7 L999.5,420.2 L999.9,421.0 L1000.3,421.5 L1000.7,422.1 L1001.1,422.9 L1001.5,423.2 L1001.9,423.9 L1002.3,424.7 L1002.8,425.2 L1003.2,425.9 L1003.6,426.3 L1004.0,426.9 L1004.4,427.6 L1004.8,428.1 L1005.3,429.2 L1005.7,429.4 L1006.1,430.5 L1007.3,431.9 L1007.7,432.7 L1008.1,433.2 L1008.6,434.1 L1009.0,434.6 L1009.4,435.3 L1009.8,435.8 L1010.3,436.7 L1010.7,437.3 L1011.1,437.6 L1011.5,438.4 L1011.9,439.1 L1012.3,439.6 L1012.7,440.2 L1013.1,440.9 L1013.6,441.6 L1013.9,442.2 L1014.3,442.8 L1014.8,443.4 L1015.2,444.0 L1015.6,444.7 L1016.8,446.4 L1017.3,447.0 L1017.7,447.9 L1018.1,448.4 L1018.6,449.2 L1019.0,449.6 L1019.4,450.4 L1019.9,450.9 L1020.3,451.8 L1020.7,452.3 L1021.2,453.0 L1021.6,453.6 L1022.0,454.3 L1022.4,454.8 L1022.8,455.4 L1023.2,456.2 L1023.7,456.7 L1024.1,457.4 L1024.5,457.9 L1025.0,458.7 L1025.4,459.3 L1026.3,460.5 L1026.7,461.3 L1027.1,461.9 L1027.6,462.6 L1028.0,463.2 L1028.4,463.9 L1028.9,464.5 L1029.3,465.3 L1029.7,465.8 L1030.1,466.4 L1030.5,467.1 L1030.9,467.7 L1031.4,468.4 L1031.8,469.0 L1032.2,469.7 L1032.7,470.2 L1033.1,471.1 L1033.5,471.5 L1034.0,472.3 L1034.4,472.9 L1034.8,473.7 L1035.9,475.3 L1036.3,475.8 L1036.7,476.6 L1037.2,477.1 L1037.6,477.9 L1038.0,478.4 L1038.5,479.2 L1038.9,479.7 L1039.3,480.5 L1039.8,481.1 L1040.2,481.9 L1040.6,482.4 L1041.0,483.0 L1041.4,483.7 L1041.8,484.3 L1042.3,485.1 L1042.7,485.6 L1043.1,486.4 L1043.6,486.9 L1044.0,487.7 L1044.4,488.2 L1045.3,489.6 L1045.7,490.3 L1046.1,490.9 L1046.6,491.6 L1047.0,492.2 L1047.4,492.9 L1047.9,493.4 L1048.3,494.2 L1048.7,494.7 L1049.1,495.3 L1049.5,496.0 L1049.9,496.5 L1050.4,497.3 L1050.8,497.8 L1051.2,498.5 L1051.7,499.1 L1052.1,499.8 L1052.5,500.3 L1052.9,500.8 L1053.3,501.6 L1053.7,502.1 L1054.9,503.8 L1055.3,504.3 L1055.7,505.1 L1056.2,505.5 L1056.6,506.3 L1057.0,506.8 L1057.5,507.6 L1057.9,508.0 L1058.3,508.8 L1058.8,509.3 L1059.2,510.0 L1059.6,510.5 L1060.0,511.0 L1060.4,511.7 L1060.8,512.2 L1061.3,512.9 L1061.7,513.4 L1062.1,514.2 L1062.6,514.7 L1063.0,515.5 L1063.4,515.9 L1064.4,517.4 L1064.8,517.9 L1065.2,518.6 L1065.7,519.1 L1066.1,519.9 L1066.5,520.3 L1067.0,521.0 L1067.4,521.6 L1067.8,522.2 L1068.3,522.8 L1068.7,523.5 L1069.1,524.0 L1069.5,524.5 L1069.9,525.1 L1070.3,525.6 L1070.8,526.4 L1071.2,526.9 L1072.5,528.5 L1072.9,529.2 L1073.8,530.5 L1074.1,530.9 L1074.6,531.6 L1075.0,532.1 L1075.4,532.9 L1075.9,533.3 L1076.3,534.1 L1076.7,534.4 L1077.2,535.2 L1077.5,535.8 L1078.0,536.1 L1078.4,536.8 L1078.8,537.2 L1079.2,538.0 L1079.7,538.6 L1080.1,539.1 L1080.5,539.7 L1081.0,540.4 L1081.4,540.7 L1081.8,541.3 L1082.3,541.8 L1083.2,543.1 L1083.6,543.7 L1084.0,544.0" fill="none" stroke="#1f77b4" stroke-width="1.4" opacity="0.85"/><text x="1040" y="54" fill="#ff7f0e" font-size="11">roll 24</text><text x="1090" y="558" fill="#ff7f0e" font-size="11">-18</text><path d="M616.3,345.5 L616.8,345.5 L617.2,345.5 L617.7,345.5 L618.1,345.5 L618.5,345.5 L618.9,345.5 L619.3,345.5 L619.7,345.5 L620.1,345.5 L620.6,345.5 L621.0,345.5 L621.4,345.5 L621.9,345.5 L622.3,345.5 L622.7,345.5 L623.2,345.5 L623.5,345.5 L623.9,345.5 L624.4,345.5 L624.8,345.5 L625.2,345.5 L625.6,345.5 L626.0,345.5 L626.5,345.5 L626.9,345.5 L627.3,345.5 L627.7,345.5 L628.1,345.5 L628.5,345.5 L629.0,345.5 L629.4,345.5 L629.8,345.5 L630.3,345.5 L630.7,345.5 L631.1,345.5 L631.6,345.5 L631.9,345.5 L632.3,345.5 L632.8,345.5 L633.2,345.5 L633.6,345.5 L634.1,345.5 L634.5,345.5 L634.9,345.5 L635.4,345.5 L635.8,345.5 L636.2,345.5 L636.7,345.5 L637.1,345.5 L637.5,345.5 L637.9,345.5 L638.3,345.5 L638.7,345.5 L639.2,345.5 L639.6,345.5 L640.0,345.5 L640.5,345.5 L640.9,345.5 L641.3,345.5 L641.8,345.5 L642.2,345.5 L642.6,345.5 L643.5,345.5 L643.8,345.5 L644.3,345.5 L644.7,345.5 L645.1,345.5 L645.6,345.5 L646.0,345.5 L646.4,345.5 L646.8,345.5 L647.2,345.5 L647.6,345.5 L648.1,345.5 L648.4,345.5 L648.8,345.5 L649.3,345.5 L649.7,345.5 L650.1,345.5 L650.6,345.5 L651.0,345.5 L651.4,345.5 L651.9,345.5 L652.3,345.5 L652.7,345.5 L653.2,345.5 L653.6,345.5 L654.0,345.5 L654.5,345.5 L654.8,345.5 L655.2,345.5 L655.7,345.5 L656.1,345.5 L656.5,345.5 L657.0,345.5 L657.4,345.5 L657.8,345.5 L658.3,345.5 L658.7,345.5 L659.1,345.5 L659.6,345.5 L660.0,345.5 L660.4,345.5 L660.8,345.5 L661.2,345.5 L661.6,345.5 L662.1,345.5 L662.5,345.5 L662.9,345.5 L663.4,345.5 L663.8,345.5 L664.2,345.5 L664.7,345.5 L665.1,345.5 L665.5,345.5 L665.9,345.5 L666.3,345.5 L666.7,345.5 L667.2,345.5 L667.6,345.5 L668.0,345.5 L668.5,345.5 L668.9,345.5 L669.3,345.5 L669.8,345.5 L670.2,345.5 L670.6,345.5 L671.0,345.5 L671.4,345.5 L671.8,345.5 L672.3,345.5 L672.7,345.5 L673.1,345.5 L673.6,345.5 L674.0,345.5 L674.4,345.5 L674.9,345.5 L675.2,345.5 L675.6,345.5 L676.1,345.5 L676.5,345.5 L676.9,345.5 L677.4,345.5 L677.8,345.5 L678.2,346.7 L678.7,345.5 L679.1,346.7 L679.5,345.5 L680.0,345.5 L680.4,346.7 L680.8,346.7 L681.2,345.5 L681.6,345.5 L682.0,345.5 L682.5,345.5 L682.9,345.5 L683.3,346.7 L683.8,345.5 L684.2,346.7 L684.6,345.5 L685.0,345.5 L685.5,345.5 L685.9,345.5 L686.3,345.5 L686.8,345.5 L687.2,345.5 L687.6,345.5 L688.0,345.5 L688.4,345.5 L688.9,345.5 L689.3,346.7 L689.7,345.5 L690.1,345.5 L690.6,345.5 L691.0,346.7 L691.4,346.7 L691.9,345.5 L692.3,345.5 L692.7,346.7 L693.1,345.5 L693.5,345.5 L694.0,346.7 L694.4,345.5 L694.8,345.5 L695.3,345.5 L695.7,345.5 L696.1,345.5 L696.5,345.5 L697.0,346.7 L697.3,346.7 L697.8,346.7 L698.2,345.5 L698.6,346.7 L699.1,345.5 L699.5,346.7 L699.9,345.5 L700.3,345.5 L700.8,346.7 L701.2,345.5 L701.6,346.7 L702.1,345.5 L702.5,345.5 L702.9,345.5 L703.3,345.5 L703.7,345.5 L704.2,346.7 L704.6,345.5 L705.0,346.7 L705.4,345.5 L705.8,345.5 L706.2,345.5 L706.7,346.7 L707.1,345.5 L707.5,346.7 L708.0,345.5 L708.4,345.5 L708.8,345.5 L709.2,345.5 L709.7,346.7 L710.1,345.5 L710.5,345.5 L711.0,345.5 L711.3,345.5 L711.8,345.5 L712.2,345.5 L712.6,326.4 L713.1,307.2 L713.5,283.5 L713.9,266.6 L714.4,245.2 L714.8,236.1 L715.2,214.7 L715.6,207.9 L716.1,192.2 L716.5,187.6 L716.9,178.6 L717.3,176.4 L717.7,176.4 L718.2,180.9 L718.6,177.5 L719.0,167.3 L719.4,166.2 L719.9,154.9 L720.3,164.0 L720.7,160.6 L721.2,162.8 L721.8,157.2 L722.1,169.6 L722.6,161.7 L723.0,166.2 L723.4,167.3 L723.9,170.7 L724.2,157.2 L724.6,168.5 L725.1,164.0 L725.5,170.7 L725.9,173.0 L726.4,167.3 L726.8,184.3 L727.2,191.0 L727.7,196.7 L728.1,202.3 L728.5,194.4 L729.0,200.0 L729.4,203.4 L729.8,206.8 L730.2,211.3 L730.7,217.0 L731.0,205.7 L731.5,207.9 L731.9,249.7 L732.3,294.8 L732.8,319.6 L733.2,354.5 L733.6,376.0 L734.0,399.7 L734.4,427.8 L734.8,434.6 L735.3,466.2 L735.7,476.3 L736.1,486.5 L736.6,498.9 L737.0,497.8 L737.4,511.3 L737.9,506.8 L738.3,524.8 L738.7,521.4 L739.1,515.8 L739.6,522.6 L739.9,532.7 L740.4,523.7 L740.8,523.7 L741.2,526.0 L741.7,522.6 L742.1,538.4 L742.5,528.2 L743.0,535.0 L743.4,524.8 L743.8,535.0 L744.3,522.6 L744.6,531.6 L745.0,538.4 L745.5,540.6 L745.9,528.2 L746.3,529.3 L746.8,531.6 L747.2,522.6 L747.6,530.5 L748.1,530.5 L748.5,538.4 L748.9,524.8 L749.4,526.0 L749.8,522.6 L750.2,523.7 L750.6,532.7 L751.0,523.7 L751.4,538.4 L751.9,522.6 L752.3,536.1 L752.7,535.0 L753.2,535.0 L753.6,540.6 L754.0,529.3 L754.5,524.8 L754.9,531.6 L755.3,538.4 L755.7,537.2 L756.1,539.5 L756.5,531.6 L757.0,530.5 L757.4,527.1 L757.7,535.0 L758.2,538.4 L758.6,521.4 L759.0,526.0 L759.5,540.6 L759.9,523.7 L760.3,540.6 L760.7,524.8 L761.1,533.9 L761.5,528.2 L762.0,522.6 L762.4,524.8 L762.8,502.3 L763.3,448.1 L763.7,410.9 L764.1,373.7 L764.6,348.9 L765.0,315.1 L765.4,298.2 L765.8,272.2 L766.5,246.3 L766.9,221.5 L767.3,217.0 L767.7,198.9 L768.1,189.9 L768.5,194.4 L769.0,182.0 L769.4,186.5 L769.8,175.2 L770.3,178.6 L770.7,162.8 L771.1,166.2 L771.6,166.2 L772.0,174.1 L772.4,161.7 L772.9,153.8 L773.2,165.1 L773.6,161.7 L774.1,159.5 L774.5,171.9 L774.9,157.2 L775.5,159.5 L775.9,171.9 L776.3,156.1 L776.8,154.9 L777.2,161.7 L777.6,160.6 L778.0,159.5 L778.5,169.6 L778.9,171.9 L779.3,159.5 L779.8,154.9 L780.2,171.9 L780.6,152.7 L781.1,167.3 L781.4,168.5 L781.8,170.7 L782.3,165.1 L782.7,160.6 L783.1,164.0 L783.6,161.7 L784.0,164.0 L784.6,161.7 L785.1,166.2 L785.5,170.7 L785.9,153.8 L786.3,162.8 L786.8,153.8 L787.2,169.6 L787.6,168.5 L788.1,168.5 L788.5,162.8 L788.9,164.0 L789.4,151.6 L789.8,157.2 L790.2,162.8 L790.6,166.2 L791.0,170.7 L791.4,167.3 L791.9,162.8 L792.3,167.3 L792.7,152.7 L793.2,168.5 L793.7,156.1 L794.1,154.9 L794.6,165.1 L795.0,168.5 L795.4,160.6 L795.9,165.1 L796.3,162.8 L796.7,169.6 L797.1,167.3 L797.6,161.7 L798.0,170.7 L798.4,161.7 L798.9,165.1 L799.2,165.1 L799.7,157.2 L800.1,156.1 L800.5,168.5 L801.0,158.3 L801.4,171.9 L801.8,158.3 L802.2,164.0 L802.8,161.7 L803.2,158.3 L803.6,169.6 L804.1,165.1 L804.5,164.0 L804.9,170.7 L805.4,161.7 L805.7,153.8 L806.1,153.8 L806.6,157.2 L807.0,161.7 L807.4,170.7 L807.9,168.5 L808.3,164.0 L808.7,157.2 L809.2,164.0 L809.6,167.3 L810.0,157.2 L810.5,166.2 L810.9,169.6 L811.3,165.1 L811.9,151.6 L812.3,157.2 L812.7,156.1 L813.2,166.2 L813.6,166.2 L814.0,161.7 L814.4,156.1 L814.9,165.1 L815.3,170.7 L815.7,167.3 L816.2,159.5 L816.6,167.3 L817.0,157.2 L817.5,152.7 L817.9,171.9 L818.3,153.8 L818.7,170.7 L819.1,154.9 L819.5,158.3 L820.0,168.5 L820.4,169.6 L820.9,156.1 L821.3,168.5 L821.8,162.8 L822.2,162.8 L822.6,160.6 L823.1,167.3 L823.5,167.3 L823.9,157.2 L824.4,162.8 L824.8,168.5 L825.2,159.5 L825.7,152.7 L826.1,168.5 L826.5,156.1 L826.9,164.0 L827.3,165.1 L827.7,161.7 L828.2,152.7 L828.6,160.6 L829.0,153.8 L829.5,160.6 L830.0,148.2 L830.4,164.0 L830.9,166.2 L831.3,161.7 L831.7,156.1 L832.2,151.6 L832.6,164.0 L833.0,157.2 L833.4,157.2 L833.9,164.0 L834.3,157.2 L834.7,160.6 L835.2,162.8 L835.5,160.6 L836.0,171.9 L836.4,165.1 L836.8,164.0 L837.2,169.6 L837.7,169.6 L838.1,166.2 L838.5,156.1 L839.1,179.7 L839.5,166.2 L839.9,164.0 L840.4,168.5 L840.8,160.6 L841.2,169.6 L841.7,169.6 L842.1,160.6 L842.5,161.7 L842.9,170.7 L843.3,169.6 L843.7,164.0 L844.2,170.7 L844.6,153.8 L845.0,174.1 L845.5,171.9 L845.9,152.7 L846.3,156.1 L846.8,167.3 L847.2,153.8 L847.6,157.2 L848.2,156.1 L848.6,164.0 L849.0,169.6 L849.4,170.7 L849.8,156.1 L850.2,170.7 L850.6,170.7 L851.1,157.2 L851.5,170.7 L851.9,168.5 L852.4,167.3 L852.8,167.3 L853.2,165.1 L853.7,153.8 L854.1,165.1 L854.5,168.5 L855.0,159.5 L855.4,168.5 L855.8,152.7 L856.2,170.7 L856.6,159.5 L857.2,169.6 L857.6,170.7 L858.1,165.1 L858.5,154.9 L858.9,157.2 L859.4,168.5 L859.8,164.0 L860.2,166.2 L860.7,159.5 L861.1,159.5 L861.5,168.5 L862.0,156.1 L862.4,171.9 L862.8,156.1 L863.3,167.3 L863.7,156.1 L864.1,152.7 L864.5,154.9 L864.9,165.1 L865.3,173.0 L865.8,162.8 L866.3,170.7 L866.7,162.8 L867.2,158.3 L867.6,154.9 L868.0,165.1 L868.4,157.2 L868.9,166.2 L869.3,167.3 L869.7,171.9 L870.2,165.1 L870.6,152.7 L871.0,167.3 L871.5,164.0 L871.9,164.0 L872.3,166.2 L872.8,165.1 L873.1,158.3 L873.6,167.3 L874.0,152.7 L874.4,157.2 L874.8,156.1 L875.4,162.8 L875.8,166.2 L876.2,169.6 L876.7,158.3 L877.1,157.2 L877.5,164.0 L878.0,166.2 L878.4,156.1 L878.8,164.0 L879.3,164.0 L879.7,162.8 L880.1,165.1 L880.6,168.5 L881.0,165.1 L881.4,156.1 L881.8,160.6 L882.2,158.3 L882.6,162.8 L883.1,168.5 L883.5,154.9 L883.9,165.1 L884.5,160.6 L884.9,160.6 L885.3,169.6 L885.7,166.2 L886.2,161.7 L886.6,166.2 L887.0,167.3 L887.5,161.7 L887.9,158.3 L888.3,153.8 L888.8,160.6 L889.2,171.9 L889.6,158.3 L890.0,166.2 L890.4,168.5 L890.8,152.7 L891.3,162.8 L891.7,154.9 L892.1,166.2 L892.6,165.1 L893.0,161.7 L893.7,159.5 L894.0,160.6 L894.5,168.5 L894.9,157.2 L895.3,166.2 L895.8,168.5 L896.2,153.8 L896.6,160.6 L897.1,170.7 L897.5,161.7 L897.9,156.1 L898.4,169.6 L898.8,169.6 L899.2,164.0 L899.7,156.1 L900.0,159.5 L900.4,168.5 L900.9,153.8 L901.3,170.7 L901.7,157.2 L902.2,167.3 L902.7,157.2 L903.1,168.5 L903.5,153.8 L904.0,166.2 L904.4,168.5 L904.8,170.7 L905.3,157.2 L905.7,166.2 L906.1,156.1 L906.5,168.5 L906.9,158.3 L907.3,161.7 L907.8,159.5 L908.2,152.7 L908.6,159.5 L909.1,154.9 L909.5,160.6 L909.9,161.7 L910.4,162.8 L910.8,165.1 L911.2,161.7 L912.2,173.0 L912.6,154.9 L913.0,165.1 L913.5,154.9 L913.9,167.3 L914.3,169.6 L914.8,159.5 L915.2,160.6 L915.6,153.8 L916.1,164.0 L916.5,166.2 L916.9,156.1 L917.3,158.3 L917.7,166.2 L918.1,165.1 L918.6,166.2 L919.0,160.6 L919.4,158.3 L919.9,161.7 L920.3,160.6 L920.7,156.1 L921.7,169.6 L922.1,171.9 L922.6,168.5 L923.0,159.5 L923.4,169.6 L923.9,164.0 L924.3,170.7 L924.7,169.6 L925.1,154.9 L925.5,152.7 L925.9,160.6 L926.4,162.8 L926.8,156.1 L927.2,169.6 L927.7,160.6 L928.1,158.3 L928.5,165.1 L928.9,161.7 L929.4,166.2 L929.8,161.7 L930.2,160.6 L931.3,158.3 L931.6,165.1 L932.1,170.7 L932.5,162.8 L932.9,166.2 L933.4,161.7 L933.8,151.6 L934.2,168.5 L934.7,162.8 L935.0,164.0 L935.4,157.2 L935.9,168.5 L936.3,153.8 L936.7,158.3 L937.2,171.9 L937.6,165.1 L938.0,161.7 L938.5,152.7 L938.9,156.1 L939.3,166.2 L939.8,164.0 L940.8,170.7 L941.1,167.3 L941.6,157.2 L942.0,169.6 L942.4,170.7 L942.9,152.7 L943.3,156.1 L943.7,157.2 L944.2,157.2 L944.5,169.6 L944.9,156.1 L945.4,168.5 L945.8,154.9 L946.2,167.3 L946.7,168.5 L947.1,171.9 L947.5,165.1 L948.0,151.6 L948.4,158.3 L948.8,170.7 L949.3,170.7 L950.3,153.8 L950.6,153.8 L951.1,169.6 L951.5,159.5 L951.9,171.9 L952.4,161.7 L952.8,167.3 L953.2,161.7 L953.7,168.5 L954.0,165.1 L954.4,159.5 L954.9,151.6 L955.3,167.3 L955.7,158.3 L956.2,170.7 L956.6,154.9 L957.0,154.9 L957.5,158.3 L957.9,168.5 L958.3,154.9 L958.8,162.8 L959.8,173.0 L960.2,171.9 L960.6,157.2 L961.0,157.2 L961.4,171.9 L961.9,158.3 L962.3,166.2 L962.7,165.1 L963.2,157.2 L963.6,188.8 L964.0,245.2 L964.4,264.3 L964.8,302.7 L965.2,326.4 L965.7,357.9 L966.1,376.0 L966.5,406.4 L967.0,421.1 L967.4,441.4 L967.8,447.0 L968.3,475.2 L969.3,482.0 L969.7,503.4 L970.1,500.0 L970.5,511.3 L971.0,505.7 L971.4,519.2 L971.8,511.3 L972.3,520.3 L972.7,530.5 L973.1,531.6 L973.5,527.1 L973.9,519.2 L974.3,538.4 L974.8,537.2 L975.2,538.4 L975.6,523.7 L976.1,531.6 L976.5,532.7 L976.9,529.3 L977.3,536.1 L977.8,522.6 L978.8,539.5 L979.2,529.3 L979.6,529.3 L980.0,528.2 L980.5,532.7 L980.9,537.2 L981.3,524.8 L981.7,526.0 L982.1,538.4 L982.5,529.3 L983.0,529.3 L983.4,533.9 L983.8,523.7 L984.3,515.8 L984.7,519.2 L985.1,529.3 L985.6,519.2 L986.0,537.2 L986.4,516.9 L986.9,513.6 L987.2,515.8 L988.3,522.6 L988.7,527.1 L989.1,537.2 L989.5,537.2 L990.0,524.8 L990.4,531.6 L990.8,523.7 L991.3,510.2 L991.7,509.0 L992.1,512.4 L992.5,522.6 L992.9,516.9 L993.3,488.7 L993.8,498.9 L994.2,506.8 L994.6,519.2 L995.1,509.0 L995.5,513.6 L995.9,526.0 L996.4,515.8 L996.8,530.5 L997.8,473.0 L998.2,466.2 L998.6,457.2 L999.0,440.3 L999.5,435.7 L999.9,456.0 L1000.3,468.4 L1000.7,473.0 L1001.1,484.2 L1001.5,498.9 L1001.9,489.9 L1002.3,505.7 L1002.8,507.9 L1003.2,485.4 L1003.6,493.3 L1004.0,483.1 L1004.4,492.1 L1004.8,497.8 L1005.3,505.7 L1005.7,518.1 L1006.1,518.1 L1007.3,513.6 L1007.7,528.2 L1008.1,510.2 L1008.6,493.3 L1009.0,475.2 L1009.4,462.8 L1009.8,475.2 L1010.3,474.1 L1010.7,475.2 L1011.1,463.9 L1011.5,487.6 L1011.9,493.3 L1012.3,498.9 L1012.7,495.5 L1013.1,509.0 L1013.6,514.7 L1013.9,511.3 L1014.3,507.9 L1014.8,497.8 L1015.2,476.3 L1015.6,498.9 L1016.8,504.5 L1017.3,505.7 L1017.7,498.9 L1018.1,505.7 L1018.6,522.6 L1019.0,506.8 L1019.4,527.1 L1019.9,519.2 L1020.3,532.7 L1020.7,526.0 L1021.2,533.9 L1021.6,532.7 L1022.0,529.3 L1022.4,528.2 L1022.8,533.9 L1023.2,521.4 L1023.7,538.4 L1024.1,522.6 L1024.5,532.7 L1025.0,531.6 L1025.4,530.5 L1026.3,537.2 L1026.7,530.5 L1027.1,522.6 L1027.6,532.7 L1028.0,526.0 L1028.4,535.0 L1028.9,524.8 L1029.3,532.7 L1029.7,524.8 L1030.1,526.0 L1030.5,526.0 L1030.9,537.2 L1031.4,544.0 L1031.8,523.7 L1032.2,538.4 L1032.7,528.2 L1033.1,532.7 L1033.5,532.7 L1034.0,535.0 L1034.4,533.9 L1034.8,529.3 L1035.9,522.6 L1036.3,523.7 L1036.7,524.8 L1037.2,535.0 L1037.6,529.3 L1038.0,533.9 L1038.5,533.9 L1038.9,529.3 L1039.3,524.8 L1039.7,526.0 L1040.2,544.0 L1040.6,541.7 L1041.0,528.2 L1041.4,530.5 L1041.8,500.0 L1042.3,457.2 L1042.7,424.5 L1043.1,390.6 L1043.6,369.2 L1044.0,334.2 L1044.4,313.9 L1045.3,272.2 L1045.7,247.4 L1046.1,239.5 L1046.6,221.5 L1047.0,207.9 L1047.4,197.8 L1047.9,185.4 L1048.3,173.0 L1048.7,164.0 L1049.1,173.0 L1049.5,158.3 L1049.9,148.2 L1050.4,138.0 L1050.8,147.0 L1051.2,134.6 L1051.7,135.8 L1052.1,123.4 L1052.5,112.1 L1052.9,130.1 L1053.3,125.6 L1053.7,112.1 L1054.9,118.9 L1055.3,98.6 L1055.7,96.3 L1056.2,106.4 L1056.6,94.0 L1057.0,103.1 L1057.5,92.9 L1057.9,106.4 L1058.3,94.0 L1058.8,90.7 L1059.2,105.3 L1059.6,97.4 L1060.0,98.6 L1060.4,91.8 L1060.8,81.6 L1061.3,78.3 L1061.7,101.9 L1062.1,96.3 L1062.6,92.9 L1063.0,78.3 L1063.4,80.5 L1064.4,97.4 L1064.8,91.8 L1065.2,99.7 L1065.7,90.7 L1066.1,91.8 L1066.5,99.7 L1067.0,89.5 L1067.4,80.5 L1067.8,97.4 L1068.3,83.9 L1068.7,97.4 L1069.1,89.5 L1069.5,76.0 L1069.9,95.2 L1070.3,91.8 L1070.8,82.8 L1071.2,77.1 L1072.4,78.3 L1072.9,116.6 L1073.8,160.6 L1074.1,177.5 L1074.6,188.8 L1075.0,211.3 L1075.4,217.0 L1075.9,229.4 L1076.3,249.7 L1076.7,249.7 L1077.2,264.3 L1077.5,272.2 L1077.9,275.6 L1078.4,283.5 L1078.8,292.5 L1079.2,292.5 L1079.7,299.3 L1080.1,307.2 L1080.5,307.2 L1081.0,312.8 L1081.4,316.2 L1081.8,317.3 L1082.3,321.8 L1083.2,326.4 L1083.6,327.5 L1084.0,328.6" fill="none" stroke="#ff7f0e" stroke-width="1.1" opacity="0.85"/><text x="616" y="572" font-size="11" fill="#888">time 0..54 s — altitude (blue) &amp; roll (orange)</text></svg>