<svg xmlns="http://www.w3.org/2000/svg" width="1140" height="600" font-family="sans-serif" font-size="13"><rect width="1140" height="600" fill="white"/><text x="20" y="26" font-size="15" fill="#333">Coludo flight</text><rect x="20" y="40" width="540" height="540" fill="#fbfbfb" stroke="#ddd"/><rect x="50" y="304" width="317" height="68" fill="#cde" stroke="#369" opacity="0.7"/><text x="50" y="299" fill="#369" font-size="12">landing zone</text><circle cx="250" cy="411" r="5" fill="black"/><text x="258" y="415" font-size="12">pad</text><path d="M251.0,410.7 L251.0,410.7 L251.0,410.7 L251.0,410.7 L251.0,410.7 L251.0,410.7 L251.0,410.7 L251.0,410.7 L251.0,410.7 L251.0,410.7 L251.0,410.7 L251.0,410.7 L251.0,410.7 L251.0,410.7 L251.0,410.7 L251.0,410.7 L251.0,410.7 L251.0,410.7 L251.0,410.7 L251.0,410.7 L251.0,410.7 L251.0,410.7 L251.0,410.7 L251.0,410.7 L251.0,410.7 L251.0,410.7 L251.0,410.7 L251.0,410.7 L251.0,410.7 L251.0,410.7 L251.0,410.7 L251.0,410.7 L251.0,410.7 L251.0,410.7 L251.0,410.7 L251.0,410.7 L251.0,410.7 L251.0,410.7 L251.0,410.7 L251.0,410.7 L251.0,410.7 L251.0,410.7 L251.0,410.7 L251.0,410.7 L251.0,410.7 L251.0,410.7 L251.0,410.7 L251.0,410.7 L251.0,410.7 L251.0,410.7 L251.0,410.7 L251.0,410.7 L251.0,410.7 L251.0,410.7 L251.0,410.7 L251.0,410.7 L251.0,410.7 L251.0,410.7 L251.0,410.7 L251.0,410.7 L252.1,408.9 L252.7,407.0 L254.5,404.0 L256.2,401.7 L257.9,399.4 L259.6,396.0 L263.0,393.4 L263.0,391.9 L266.4,388.9 L268.1,387.0 L269.8,384.7 L273.2,382.8 L273.8,380.6 L276.6,378.3 L279.3,376.8 L281.7,374.6 L284.7,372.3 L288.5,370.0 L290.2,368.9 L291.9,367.0 L295.3,365.1 L297.0,363.6 L300.4,361.4 L302.1,359.1 L305.5,356.5 L306.5,355.0 L308.9,352.3 L312.3,349.7 L313.3,347.0 L314.0,345.5 L317.4,342.1 L318.7,339.1 L319.1,337.6 L322.5,334.6 L322.8,331.6 L324.2,328.2 L325.9,325.9 L327.6,323.3 L328.3,320.6 L328.3,317.6 L329.3,314.2 L331.0,311.6 L331.0,308.2 L332.7,305.2 L332.7,301.4 L333.7,299.2 L333.7,295.8 L333.7,292.4 L334.4,289.0 L334.4,286.3 L336.1,284.5 L336.1,281.1 L337.8,277.7 L339.5,274.3 L339.8,270.9 L339.8,269.0 L342.9,266.0 L344.6,262.2 L346.0,259.6 L346.3,257.3 L348.0,254.3 L350.0,252.0 L351.4,249.8 L353.1,246.8 L355.5,245.3 L356.5,242.6 L359.9,240.4 L361.6,238.1 L363.3,236.6 L365.0,234.7 L366.7,233.2 L370.1,230.6 L373.9,228.7 L375.2,226.8 L377.3,224.9 L380.3,223.4 L382.7,221.5 L387.1,220.0 L389.5,218.1 L392.2,217.4 L394.3,215.9 L397.3,215.1 L399.7,214.4 L402.4,213.2 L405.8,212.1 L409.2,211.7 L412.6,211.0 L414.3,210.6 L416.7,210.2 L419.4,209.8 L422.2,209.4 L426.2,209.1 L427.9,209.1 L433.7,209.1 L436.4,209.4 L439.2,209.4 L441.6,209.8 L445.0,210.2 L448.4,210.6 L450.1,211.3 L453.5,212.1 L455.2,212.5 L460.3,213.6 L462.0,214.7 L465.0,215.5 L468.8,216.6 L470.5,217.4 L472.2,218.5 L475.6,220.4 L479.0,221.9 L482.0,223.8 L484.1,224.9 L487.5,226.8 L487.5,228.3 L490.9,230.6 L492.9,232.1 L496.0,234.3 L497.7,235.8 L499.4,238.1 L502.8,239.6 L503.1,241.5 L506.2,244.5 L507.9,246.0 L509.9,248.7 L511.3,251.3 L513.0,253.9 L514.7,255.8 L514.7,258.8 L518.1,261.8 L519.8,264.1 L520.1,267.1 L521.5,269.4 L521.5,272.0 L523.2,275.0 L524.9,278.4 L525.6,281.1 L525.6,284.5 L526.6,287.9 L528.3,291.2 L528.3,294.3 L528.3,297.3 L528.3,300.3 L530.0,302.9 L530.0,306.7 L530.0,309.7 L530.0,313.5 L528.3,315.7 L528.3,318.0 L528.3,321.0 L528.3,324.0 L526.6,326.3 L526.6,328.9 L525.6,332.3 L525.6,335.7 L524.9,338.0 L523.2,341.0 L523.2,343.3 L521.5,345.9 L520.1,348.2 L519.8,351.6 L518.1,354.2 L516.4,357.2 L514.7,361.0 L513.0,363.2 L511.3,365.5 L509.9,367.8 L507.9,369.7 L506.2,372.3 L503.1,373.8 L502.8,376.8 L499.4,379.1 L497.7,380.6 L496.0,383.2 L492.9,385.1 L490.9,387.0 L487.5,388.5 L485.8,390.8 L482.4,391.9 L482.0,393.4 L479.0,394.5 L475.9,396.0 L473.9,397.5 L471.8,399.1 L467.1,400.2 L465.0,401.3 L462.0,402.1 L460.3,402.8 L456.9,404.0 L454.8,404.7 L450.1,405.5 L448.4,406.2 L445.0,406.6 L441.6,407.3 L439.2,407.7 L434.7,407.7 L433.7,408.1 L429.6,408.1 L426.2,408.1 L422.2,407.7 L419.4,407.3 L416.7,407.3 L412.6,406.6 L409.9,406.2 L407.5,405.8 L404.5,405.1 L400.7,404.0 L399.7,403.6 L397.3,402.8 L393.9,401.3 L390.5,400.9 L389.5,399.8 L385.4,398.3 L383.7,397.5 L382.0,396.4 L378.6,394.5 L375.2,393.0 L373.5,391.5 L371.8,389.6 L367.1,387.4 L365.0,385.5 L363.0,383.6 L359.9,381.0 L358.2,379.1 L355.5,377.6 L353.1,374.9 L351.4,372.3 L350.0,370.4 L348.0,368.9 L346.3,367.0 L346.0,364.0 L342.9,361.4 L341.2,359.5 L339.5,357.6 L336.1,355.0 L334.4,352.7 L332.7,351.2 L329.3,348.5 L327.6,346.7 L325.9,345.2 L322.8,343.3 L320.8,341.8 L317.4,339.1 L313.3,337.6 L310.6,335.7 L306.5,334.2 L303.8,332.7 L300.4,331.6 L297.0,330.4 L295.3,329.7 L291.9,328.9 L290.2,327.8 L286.8,327.4 L283.4,326.7 L281.7,325.9 L279.3,325.5 L274.9,324.8 L273.2,324.8 L269.8,324.4 L266.4,324.0 L263.0,323.7 L261.3,323.7 L257.9,323.7 L256.2,323.7 L252.7,323.7 L251.0,323.7 L246.6,324.0 L244.2,324.4 L240.8,324.8 L237.4,325.2 L235.7,325.5 L230.6,326.3 L228.9,327.1 L224.9,327.8 L222.1,328.6 L219.4,329.7 L215.3,330.8 L211.9,331.6 L210.2,332.3 L206.8,333.8 L203.4,335.3 L201.7,336.5 L198.3,338.0 L194.9,339.9 L192.2,341.8 L189.8,343.3 L186.8,345.5 L184.7,346.7 L183.0,348.2 L180.0,350.1 L177.9,351.2 L175.9,353.1 L172.8,354.6 L170.4,356.1 L167.7,357.6 L164.3,359.5 L160.9,360.2 L158.9,361.4 L155.8,362.5 L152.4,363.2 L149.0,363.6 L145.6,364.4 L143.2,364.8 L140.5,365.1 L137.8,365.5 L135.4,365.5 L131.6,365.5 L128.6,365.1 L124.8,365.1 L121.8,364.4 L120.1,364.0 L116.7,363.2 L113.3,362.5 L109.9,362.1 L109.2,361.4 L104.8,360.2 L103.1,359.5 L99.7,358.0 L94.6,356.1 L92.9,355.0 L89.5,354.2 L88.8,353.4" fill="none" stroke="#1f77b4" stroke-width="1.7" opacity="0.85"/><circle cx="89" cy="353" r="4.5" fill="#1f77b4"/><text x="28" y="572" font-size="11" fill="#888">ground track — m from pad (N up)</text><rect x="580" y="40" width="540" height="540" fill="#fbfbfb" stroke="#ddd"/><text x="586" y="54" fill="#1f77b4" font-size="11">alt 395</text><text x="586" y="558" fill="#1f77b4" font-size="11">-53</text><path d="M616.4,486.6 L616.9,486.6 L617.3,486.5 L617.8,486.2 L618.3,485.6 L618.8,485.6 L619.2,485.1 L619.6,484.3 L620.1,483.8 L620.6,483.3 L621.1,482.1 L621.5,481.1 L622.0,480.7 L622.5,479.4 L623.0,478.9 L623.4,477.2 L623.9,476.4 L624.4,475.3 L624.9,473.6 L625.3,472.0 L625.7,471.8 L626.1,469.2 L626.6,468.2 L627.1,465.6 L627.6,465.5 L628.0,461.6 L628.4,460.5 L628.9,459.6 L629.4,457.7 L629.8,456.0 L630.3,451.0 L630.8,452.3 L631.3,448.8 L631.8,443.8 L632.2,442.5 L632.7,440.7 L633.2,437.4 L633.7,436.4 L634.1,430.2 L634.6,427.3 L635.0,425.3 L635.5,421.1 L636.0,421.9 L636.4,419.6 L636.9,416.7 L637.4,411.7 L637.9,413.0 L638.3,402.8 L638.8,399.4 L639.3,402.4 L639.8,391.6 L640.3,396.1 L640.7,390.7 L641.1,388.2 L641.6,380.4 L642.1,377.1 L642.6,368.6 L643.0,373.7 L643.5,365.2 L644.0,368.5 L644.5,359.9 L644.9,353.5 L645.4,353.6 L645.9,349.1 L646.4,341.6 L646.8,337.3 L647.2,333.7 L647.7,336.9 L648.2,322.5 L648.7,321.1 L649.1,320.3 L649.6,314.4 L650.1,312.2 L650.6,294.3 L651.1,309.3 L651.5,291.1 L652.0,286.2 L652.5,292.5 L652.9,283.9 L653.3,281.6 L653.8,270.0 L654.3,263.3 L654.7,276.1 L655.2,271.4 L655.6,256.7 L656.1,251.3 L656.6,260.5 L657.0,249.0 L657.5,238.7 L657.9,253.9 L658.4,233.8 L658.9,245.2 L659.4,228.1 L659.8,235.0 L660.3,227.5 L660.8,230.6 L661.3,221.1 L661.8,224.3 L662.2,219.3 L662.7,208.7 L663.1,199.6 L663.6,207.9 L664.0,207.5 L664.5,206.0 L664.9,203.5 L665.4,189.6 L665.9,197.8 L666.3,195.1 L666.8,171.3 L667.2,180.2 L667.7,184.0 L668.2,193.0 L668.6,162.0 L669.1,162.3 L669.6,164.8 L670.1,182.3 L670.5,161.9 L671.0,149.6 L671.5,149.7 L672.0,167.1 L672.5,154.3 L672.9,144.9 L673.3,154.9 L673.8,145.4 L674.2,150.2 L674.6,131.3 L675.1,129.5 L675.6,134.5 L676.1,144.4 L676.6,144.6 L677.0,121.4 L677.4,120.9 L677.9,115.9 L678.4,113.6 L678.9,116.1 L679.3,122.1 L679.8,134.3 L680.3,106.7 L680.8,125.5 L681.2,123.4 L681.7,111.8 L682.2,119.3 L682.7,131.3 L683.2,98.5 L683.6,105.1 L684.0,95.3 L684.5,117.8 L685.0,112.0 L685.4,117.8 L685.9,105.4 L686.4,122.2 L686.9,90.3 L687.4,94.1 L687.8,108.8 L688.3,100.8 L688.8,95.9 L689.3,114.5 L689.7,110.7 L690.1,101.2 L690.6,108.7 L691.1,97.8 L691.6,95.7 L692.0,89.5 L692.5,76.0 L693.0,86.1 L693.5,97.0 L693.9,86.0 L694.4,114.1 L694.8,80.6 L695.3,108.7 L695.8,82.6 L696.2,89.0 L696.7,104.9 L697.2,104.2 L697.7,112.6 L698.2,93.3 L698.6,87.1 L699.1,86.5 L699.6,97.1 L700.1,113.4 L700.5,101.8 L701.0,96.2 L701.5,85.5 L702.0,95.5 L702.4,96.1 L702.9,97.7 L703.6,101.3 L704.0,87.9 L704.5,99.9 L704.9,98.0 L705.4,104.4 L705.8,97.3 L706.3,115.6 L706.7,96.7 L707.2,107.1 L707.7,99.5 L708.2,110.7 L708.7,99.7 L709.1,100.4 L709.6,95.1 L710.1,92.7 L710.6,81.7 L711.0,84.8 L711.5,115.8 L712.0,105.1 L712.5,114.7 L712.9,98.7 L713.4,100.9 L713.8,114.1 L714.3,115.4 L714.8,87.8 L715.3,114.6 L715.7,91.6 L716.2,110.4 L716.7,85.2 L717.2,92.0 L717.6,116.2 L718.1,110.6 L718.6,121.1 L719.0,117.6 L719.5,102.7 L719.9,108.6 L720.4,122.9 L720.9,93.0 L721.4,90.1 L721.8,93.2 L722.3,102.5 L722.8,102.2 L723.3,98.6 L723.8,91.9 L724.2,100.9 L724.7,115.9 L725.1,113.2 L725.6,118.9 L726.0,96.4 L726.5,111.6 L727.0,118.5 L727.5,120.0 L728.0,114.4 L728.4,104.9 L728.9,98.0 L729.4,120.3 L729.9,122.0 L730.3,104.9 L730.8,91.5 L731.2,95.0 L731.7,112.7 L732.2,104.0 L732.6,127.4 L733.1,124.9 L733.5,126.3 L734.0,105.0 L734.5,99.3 L734.9,115.0 L735.4,117.0 L735.9,95.3 L736.3,127.7 L736.7,97.8 L737.2,126.3 L737.7,118.7 L738.2,118.8 L738.7,131.6 L739.1,122.5 L739.6,120.8 L740.1,114.3 L740.6,130.0 L741.0,114.7 L741.5,116.5 L742.0,99.5 L742.4,102.6 L742.9,130.1 L743.3,130.8 L743.8,122.2 L744.3,131.7 L744.8,111.4 L745.2,120.8 L745.7,110.3 L746.2,129.3 L746.7,124.1 L747.2,104.8 L747.6,112.1 L748.1,122.9 L748.5,118.1 L749.0,116.8 L749.5,138.2 L749.9,138.3 L750.4,130.4 L750.9,134.8 L751.4,134.0 L751.8,132.8 L752.3,127.5 L752.8,133.4 L753.3,117.5 L753.8,112.0 L754.2,113.7 L754.6,127.9 L755.1,131.4 L755.6,109.1 L756.0,141.6 L756.5,117.9 L757.0,122.8 L757.5,134.9 L758.0,139.9 L758.4,126.1 L758.9,135.0 L759.4,122.8 L759.9,118.2 L760.3,136.9 L760.8,127.3 L761.2,126.9 L761.7,136.4 L762.2,141.4 L762.6,131.9 L763.0,149.2 L763.5,130.8 L764.0,139.6 L764.5,129.2 L764.9,144.3 L765.4,136.3 L765.8,116.2 L766.3,132.2 L766.7,131.9 L767.2,134.7 L767.7,152.7 L768.2,122.3 L768.7,129.9 L769.1,131.2 L769.6,119.9 L770.1,142.9 L770.6,133.6 L771.0,148.2 L771.5,150.3 L771.9,153.0 L772.7,122.3 L773.1,137.4 L773.6,142.6 L774.0,134.0 L774.5,143.9 L775.0,129.4 L775.4,147.4 L775.9,126.5 L776.4,136.7 L776.9,141.4 L777.3,158.3 L777.8,153.4 L778.3,159.5 L778.8,146.7 L779.3,138.4 L779.7,141.1 L780.1,152.7 L780.6,130.7 L781.1,152.5 L781.5,153.3 L782.0,138.1 L782.7,152.5 L783.1,154.9 L783.6,145.4 L784.0,150.1 L784.5,145.8 L785.0,162.8 L785.5,149.1 L785.9,141.0 L786.4,146.9 L786.9,159.9 L787.4,148.0 L787.9,142.2 L788.3,138.3 L788.8,159.8 L789.3,151.0 L789.8,154.9 L790.2,169.1 L790.6,157.0 L791.1,161.0 L791.6,150.2 L792.1,149.9 L792.7,174.9 L793.2,158.2 L793.7,154.0 L794.2,150.9 L794.6,166.9 L795.1,158.2 L795.6,150.3 L796.1,147.5 L796.5,151.4 L797.0,161.3 L797.5,161.9 L798.0,156.5 L798.5,165.3 L798.9,169.2 L799.4,153.8 L799.9,158.8 L800.4,166.5 L800.8,161.0 L801.3,170.4 L801.7,163.7 L802.2,176.6 L802.8,170.3 L803.2,160.3 L803.7,171.1 L804.2,177.2 L804.7,171.9 L805.1,175.5 L805.6,187.1 L806.1,164.7 L806.6,174.5 L807.1,188.8 L807.5,171.5 L808.0,186.3 L808.5,176.8 L809.0,169.2 L809.4,172.1 L809.9,170.5 L810.3,186.1 L810.8,179.6 L811.3,166.3 L811.7,165.2 L812.2,175.6 L812.8,178.6 L813.3,170.1 L813.7,194.0 L814.2,168.3 L814.7,181.3 L815.2,182.4 L815.7,167.7 L816.1,196.7 L816.6,188.8 L817.1,179.8 L817.6,196.9 L818.0,173.0 L818.5,191.6 L819.0,198.5 L819.4,186.9 L819.9,195.8 L820.3,177.4 L820.8,199.9 L821.3,180.9 L821.8,186.3 L822.2,200.2 L822.9,200.1 L823.3,195.6 L823.8,196.6 L824.3,199.8 L824.7,199.5 L825.2,192.1 L825.7,190.3 L826.2,203.0 L826.6,207.8 L827.1,196.1 L827.6,192.0 L828.1,207.1 L828.5,185.4 L829.0,192.0 L829.4,209.6 L829.9,188.9 L830.4,195.8 L830.8,205.8 L831.3,202.4 L831.8,210.8 L832.3,215.3 L832.9,190.6 L833.3,203.9 L833.8,210.8 L834.3,214.8 L834.8,215.0 L835.2,218.9 L835.7,216.0 L836.1,220.4 L836.6,217.9 L837.1,193.7 L837.5,214.1 L838.0,204.2 L838.5,203.5 L839.0,212.9 L839.4,205.3 L839.9,207.5 L840.4,208.4 L840.9,198.3 L841.4,201.5 L841.8,208.9 L842.3,224.9 L842.9,224.4 L843.4,205.5 L843.8,205.7 L844.2,210.8 L844.7,227.1 L845.2,208.1 L845.7,206.0 L846.1,223.2 L846.6,216.5 L847.1,224.8 L847.6,212.1 L848.0,215.0 L848.5,208.7 L849.0,226.0 L849.5,232.6 L849.9,220.0 L850.4,230.2 L850.8,228.7 L851.3,234.9 L851.8,230.3 L852.2,233.4 L852.9,238.9 L853.4,235.6 L853.9,230.2 L854.4,215.6 L854.8,224.9 L855.3,222.2 L855.8,219.6 L856.3,224.5 L856.7,241.9 L857.2,220.3 L857.7,229.9 L858.2,240.9 L858.6,233.6 L859.1,229.7 L859.6,239.7 L860.1,244.9 L860.6,235.2 L861.0,230.1 L861.4,247.1 L861.9,229.3 L862.4,235.7 L863.0,238.0 L863.4,248.4 L863.9,244.2 L864.4,236.7 L864.9,234.7 L865.3,240.6 L865.8,231.9 L866.3,253.7 L866.8,246.4 L867.2,237.8 L867.7,238.7 L868.2,257.6 L868.7,248.5 L869.2,243.5 L869.6,245.0 L870.0,247.6 L870.5,256.3 L871.0,259.0 L871.4,247.8 L871.9,245.3 L872.4,252.5 L873.0,255.6 L873.4,245.3 L873.9,244.6 L874.4,248.7 L874.9,248.0 L875.4,243.9 L875.8,248.8 L876.3,248.7 L876.8,252.9 L877.3,264.9 L877.8,260.5 L878.2,262.7 L878.6,267.6 L879.1,264.0 L879.6,259.8 L880.0,273.1 L880.5,252.9 L881.0,255.2 L881.5,254.6 L882.0,260.6 L882.4,267.9 L883.2,257.1 L883.6,255.6 L884.1,256.4 L884.5,269.9 L885.0,277.7 L885.5,278.9 L886.0,263.2 L886.4,268.1 L886.9,268.8 L887.4,270.6 L887.9,281.8 L888.4,272.1 L888.8,281.0 L889.2,278.0 L889.7,281.3 L890.2,267.8 L890.6,273.7 L891.1,282.5 L891.6,268.7 L892.1,269.3 L892.6,288.8 L893.2,283.0 L893.6,280.1 L894.1,286.2 L894.6,279.5 L895.0,276.5 L895.5,277.7 L896.0,275.5 L896.5,283.0 L897.0,275.4 L897.4,292.9 L897.9,293.1 L898.4,287.6 L898.8,284.0 L899.2,277.8 L899.7,296.1 L900.2,293.9 L900.7,290.1 L901.2,289.0 L901.6,284.8 L902.1,295.9 L902.6,295.3 L903.3,298.0 L903.7,298.2 L904.2,293.1 L904.7,300.2 L905.2,290.0 L905.6,294.5 L906.1,291.9 L906.6,300.0 L907.1,297.9 L907.6,291.4 L908.0,301.2 L908.5,307.3 L909.0,297.0 L909.5,305.3 L909.9,298.4 L910.3,298.0 L910.8,306.1 L911.3,304.6 L911.8,296.6 L912.2,298.0 L912.7,303.2 L913.4,299.9 L913.9,316.5 L914.3,311.2 L914.8,305.8 L915.2,303.4 L915.7,302.6 L916.2,311.7 L916.6,316.8 L917.1,317.9 L917.6,304.5 L918.1,310.0 L918.5,312.0 L919.0,314.2 L919.5,313.7 L920.0,315.7 L920.5,318.1 L920.9,321.2 L921.4,323.9 L921.8,322.1 L922.3,322.6 L922.7,318.2 L923.4,313.9 L923.9,328.8 L924.4,322.5 L924.9,316.7 L925.3,331.0 L925.8,318.6 L926.4,327.4 L926.9,319.9 L927.3,324.5 L927.8,326.9 L928.3,326.9 L928.8,328.3 L929.2,336.9 L929.7,335.9 L930.2,334.5 L930.7,338.8 L931.2,332.8 L931.6,326.0 L932.0,325.3 L932.5,327.8 L933.0,335.1 L934.0,341.4 L934.4,332.4 L934.9,334.9 L935.4,333.8 L935.8,343.1 L936.3,340.1 L936.8,339.6 L937.3,347.1 L937.7,347.0 L938.2,344.4 L938.7,341.0 L939.2,348.5 L939.7,340.4 L940.1,342.6 L940.5,344.7 L941.0,350.2 L941.5,350.9 L941.9,348.3 L942.4,341.0 L942.9,343.0 L943.4,344.4 L944.4,352.2 L944.8,353.7 L945.3,353.4 L945.8,358.5 L946.2,356.1 L946.7,359.3 L947.2,351.0 L947.7,361.3 L948.2,362.1 L948.6,354.1 L949.0,355.0 L949.5,355.6 L950.0,361.0 L950.4,364.1 L950.9,355.7 L951.4,356.8 L951.9,362.3 L952.4,364.1 L952.8,358.7 L953.3,368.3 L953.8,363.0 L954.8,369.5 L955.2,365.1 L955.7,362.2 L956.2,363.1 L956.7,370.1 L957.1,366.6 L957.6,367.8 L958.0,374.6 L958.5,369.2 L959.0,366.6 L959.4,376.5 L959.9,377.4 L960.4,373.9 L960.9,369.9 L961.3,373.5 L961.8,377.6 L962.3,374.0 L962.8,372.6 L963.2,374.5 L963.7,381.6 L964.2,377.0 L965.3,376.4 L965.7,381.1 L966.2,386.2 L966.7,378.8 L967.2,387.0 L967.6,387.5 L968.1,385.5 L968.6,386.9 L969.1,386.3 L969.6,384.1 L970.0,385.2 L970.4,385.6 L970.9,391.9 L971.4,391.7 L971.8,388.2 L972.3,395.2 L972.8,388.1 L973.3,391.8 L973.8,389.6 L974.2,392.0 L974.7,392.9 L975.8,397.5 L976.2,397.7 L976.7,398.9 L977.2,396.0 L977.7,394.1 L978.2,397.2 L978.6,396.8 L979.1,396.3 L979.6,404.6 L980.0,400.4 L980.4,405.9 L980.9,401.9 L981.4,404.0 L981.9,406.4 L982.4,401.4 L982.8,402.6 L983.3,403.1 L983.8,402.9 L984.3,405.2 L984.7,409.3 L985.2,407.5 L986.3,407.9 L986.7,410.8 L987.2,412.7 L987.7,414.4 L988.2,409.8 L988.7,414.3 L989.1,412.4 L989.6,412.0 L990.1,418.9 L990.5,420.0 L991.0,416.6 L991.4,420.0 L991.9,420.6 L992.4,422.1 L992.9,419.4 L993.3,421.5 L993.8,418.7 L994.3,424.6 L994.8,423.0 L995.3,420.0 L995.7,424.5 L996.9,423.2 L997.3,427.0 L997.7,427.5 L998.2,423.9 L998.7,427.9 L999.2,428.3 L999.6,427.6 L1000.1,431.9 L1000.5,433.0 L1001.0,433.4 L1001.5,433.9 L1001.9,433.8 L1002.4,435.7 L1002.9,436.0 L1003.4,432.6 L1003.9,434.1 L1004.3,433.6 L1004.8,435.7 L1005.3,436.7 L1005.8,438.8 L1006.2,436.7 L1007.4,439.6 L1007.8,440.9 L1008.2,443.0 L1008.7,441.5 L1009.2,440.7 L1009.7,442.2 L1010.2,443.1 L1010.6,442.7 L1011.1,447.0 L1011.5,445.2 L1012.0,445.0 L1012.4,448.2 L1012.9,448.8 L1013.4,447.9 L1013.9,448.3 L1014.4,450.4 L1014.8,449.6 L1015.3,452.6 L1015.8,451.8 L1016.3,450.7 L1016.7,451.5 L1017.9,454.8 L1018.3,454.8 L1018.8,454.6 L1019.2,456.0 L1019.7,457.3 L1020.2,457.2 L1020.7,458.4 L1021.1,458.2 L1021.6,459.6 L1022.1,459.3 L1022.6,460.7 L1023.0,461.0 L1023.4,461.2 L1023.9,464.1 L1024.4,464.3 L1024.9,463.4 L1025.3,464.9 L1025.8,465.7 L1026.3,465.4 L1026.8,466.7 L1027.3,467.9 L1028.4,469.6 L1028.8,470.0 L1029.3,470.0 L1029.7,470.2 L1030.2,471.0 L1030.7,473.0 L1031.2,473.4 L1031.6,473.5 L1032.1,474.1 L1032.5,475.2 L1033.0,476.2 L1033.5,476.0 L1033.9,477.4 L1034.4,478.0 L1034.9,478.5 L1035.4,479.3 L1035.9,479.6 L1036.3,480.1 L1036.8,481.2 L1037.3,481.8 L1037.8,481.8 L1038.9,483.6 L1039.4,484.2 L1039.9,484.8 L1040.3,485.8 L1040.8,486.2 L1041.3,487.1 L1041.8,487.6 L1042.3,488.5 L1042.7,489.0 L1043.2,489.8 L1043.7,490.2 L1044.1,490.7 L1044.5,491.6 L1045.0,492.2 L1045.5,492.7 L1046.0,493.4 L1046.5,494.2 L1046.9,494.9 L1047.4,495.5 L1047.8,495.8 L1048.3,496.2 L1049.4,497.6 L1049.8,498.3 L1050.3,499.5 L1050.8,499.9 L1051.2,501.0 L1051.7,501.4 L1052.2,501.3 L1052.7,501.6 L1053.1,503.2 L1053.6,503.8 L1054.0,503.8 L1054.4,505.0 L1054.9,504.4 L1055.3,506.2 L1055.8,506.0 L1056.3,506.0 L1056.7,507.5 L1057.2,507.8 L1057.6,508.8 L1058.1,509.9 L1058.6,509.2 L1059.9,512.0 L1060.4,511.3 L1060.9,513.9 L1061.4,513.1 L1061.8,514.2 L1062.3,514.3 L1062.8,516.2 L1063.3,517.5 L1063.7,517.8 L1064.2,516.4 L1064.6,518.1 L1065.1,517.9 L1065.6,517.7 L1066.0,519.1 L1066.5,521.3 L1067.0,521.9 L1067.5,522.7 L1068.0,520.5 L1068.4,523.2 L1068.9,524.7 L1069.4,523.4 L1070.4,523.8 L1070.8,525.2 L1071.3,525.7 L1071.8,528.7 L1073.0,527.3 L1073.5,528.7 L1074.0,529.7 L1074.4,530.4 L1074.9,531.7 L1075.4,532.3 L1075.9,533.1 L1076.4,533.3 L1076.8,534.4 L1077.3,533.5 L1077.8,535.6 L1078.2,535.3 L1078.6,533.9 L1079.1,536.7 L1079.6,536.1 L1080.7,536.0 L1081.1,536.7 L1081.6,540.2 L1082.1,538.9 L1082.6,543.0 L1083.0,543.2 L1083.5,539.8 L1084.0,544.0" fill="none" stroke="#1f77b4" stroke-width="1.4" opacity="0.85"/><text x="1040" y="54" fill="#ff7f0e" font-size="11">roll 24</text><text x="1090" y="558" fill="#ff7f0e" font-size="11">-18</text><path d="M616.4,344.6 L616.8,344.6 L617.3,344.6 L617.8,344.6 L618.3,344.6 L618.8,344.6 L619.2,344.6 L619.6,344.6 L620.1,344.6 L620.6,344.6 L621.1,344.6 L621.5,344.6 L622.0,344.6 L622.5,344.6 L623.0,344.6 L623.4,344.6 L623.9,344.6 L624.4,344.6 L624.9,344.6 L625.3,344.6 L625.7,344.6 L626.1,344.6 L626.6,344.6 L627.1,344.6 L627.6,344.6 L628.0,344.6 L628.4,344.6 L628.9,344.6 L629.4,344.6 L629.8,344.6 L630.3,344.6 L630.8,345.7 L631.3,345.7 L631.8,344.6 L632.2,345.7 L632.7,344.6 L633.2,345.7 L633.7,344.6 L634.1,345.7 L634.6,345.7 L635.0,344.6 L635.5,345.7 L636.0,345.7 L636.4,344.6 L636.9,345.7 L637.4,344.6 L637.9,344.6 L638.3,345.7 L638.8,344.6 L639.3,345.7 L639.8,345.7 L640.3,344.6 L640.7,344.6 L641.1,344.6 L641.6,344.6 L642.1,344.6 L642.5,345.7 L643.0,345.7 L643.5,345.7 L644.0,345.7 L644.5,344.6 L644.9,345.7 L645.4,344.6 L645.9,344.6 L646.4,345.7 L646.8,345.7 L647.2,344.6 L647.7,345.7 L648.2,345.7 L648.7,344.6 L649.1,345.7 L649.6,344.6 L650.1,344.6 L650.6,345.7 L651.0,344.6 L651.5,345.7 L652.0,344.6 L652.5,344.6 L652.9,344.6 L653.3,345.7 L653.8,344.6 L654.3,344.6 L654.7,345.7 L655.2,345.7 L655.6,344.6 L656.1,344.6 L656.6,344.6 L657.0,344.6 L657.5,344.6 L657.9,344.6 L658.4,344.6 L658.9,344.6 L659.4,345.7 L659.8,345.7 L660.3,344.6 L660.8,345.7 L661.3,344.6 L661.7,345.7 L662.2,344.6 L662.7,344.6 L663.1,345.7 L663.6,344.6 L664.0,345.7 L664.5,344.6 L664.9,345.7 L665.4,344.6 L665.9,344.6 L666.3,344.6 L666.8,345.7 L667.2,344.6 L667.7,345.7 L668.2,344.6 L668.6,345.7 L669.1,344.6 L669.6,345.7 L670.1,344.6 L670.5,345.7 L671.0,345.7 L671.5,345.7 L672.0,345.7 L672.5,345.7 L672.9,345.7 L673.3,345.7 L673.8,344.6 L674.2,344.6 L674.6,344.6 L675.1,345.7 L675.6,344.6 L676.1,345.7 L676.6,344.6 L677.0,345.7 L677.4,345.7 L677.9,344.6 L678.4,345.7 L678.9,345.7 L679.3,345.7 L679.8,345.7 L680.3,345.7 L680.8,345.7 L681.2,344.6 L681.7,344.6 L682.2,344.6 L682.7,345.7 L683.1,344.6 L683.6,344.6 L684.0,345.7 L684.5,345.7 L685.0,345.7 L685.4,345.7 L685.9,345.7 L686.4,345.7 L686.9,345.7 L687.4,344.6 L687.8,345.7 L688.3,345.7 L688.8,344.6 L689.3,345.7 L689.7,337.8 L690.1,310.6 L690.6,292.4 L691.1,267.5 L691.6,248.2 L692.0,224.4 L692.5,223.3 L693.0,204.0 L693.5,191.6 L693.9,180.3 L694.4,176.9 L694.8,172.3 L695.3,179.1 L695.8,172.3 L696.2,174.6 L696.7,165.5 L697.2,166.7 L697.7,157.6 L698.1,171.2 L698.6,164.4 L699.1,162.1 L699.6,166.7 L700.1,159.9 L700.5,154.2 L701.0,162.1 L701.5,158.7 L702.0,174.6 L702.4,157.6 L702.9,158.7 L703.6,171.2 L704.0,175.7 L704.5,184.8 L704.9,181.4 L705.4,175.7 L705.8,179.1 L706.3,190.5 L706.7,190.5 L707.2,197.2 L707.7,196.1 L708.2,208.6 L708.7,206.3 L709.1,209.7 L709.6,209.7 L710.1,218.8 L710.6,210.8 L711.0,249.4 L711.5,290.2 L712.0,318.5 L712.5,354.8 L712.9,377.4 L713.4,397.8 L713.8,420.5 L714.3,444.3 L714.8,464.7 L715.2,468.1 L715.7,490.7 L716.2,494.1 L716.7,513.4 L717.2,507.7 L717.6,513.4 L718.1,520.2 L718.6,530.4 L719.0,525.9 L719.5,517.9 L719.9,521.3 L720.4,530.4 L720.9,529.3 L721.4,523.6 L721.8,531.5 L722.3,539.5 L722.8,537.2 L723.3,533.8 L723.8,521.3 L724.2,538.3 L724.7,523.6 L725.1,534.9 L725.6,525.9 L726.0,524.7 L726.5,539.5 L727.0,530.4 L727.5,533.8 L728.0,523.6 L728.4,536.1 L728.9,530.4 L729.4,525.9 L729.9,530.4 L730.3,541.7 L730.8,539.5 L731.2,533.8 L731.7,520.2 L732.2,532.7 L732.6,522.5 L733.1,528.1 L733.5,540.6 L734.0,528.1 L734.5,534.9 L734.9,533.8 L735.4,522.5 L735.9,540.6 L736.3,534.9 L736.7,530.4 L737.2,525.9 L737.7,527.0 L738.2,529.3 L738.7,537.2 L739.1,529.3 L739.6,531.5 L740.1,523.6 L740.6,538.3 L741.0,528.1 L741.5,528.1 L742.0,533.8 L742.4,532.7 L742.9,528.1 L743.3,531.5 L743.8,524.7 L744.3,536.1 L744.8,540.6 L745.2,534.9 L745.7,481.7 L746.2,445.4 L746.7,397.8 L747.2,372.9 L747.6,336.6 L748.1,316.2 L748.5,291.3 L749.0,268.6 L749.4,252.8 L749.9,234.6 L750.4,212.0 L750.9,205.2 L751.4,192.7 L751.8,180.3 L752.3,180.3 L752.8,168.9 L753.3,174.6 L753.7,173.5 L754.2,167.8 L754.6,159.9 L755.1,171.2 L755.6,164.4 L756.0,155.3 L756.5,156.5 L757.0,168.9 L757.5,156.5 L758.0,166.7 L758.4,165.5 L758.9,163.3 L759.4,158.7 L759.9,170.1 L760.3,168.9 L760.8,165.5 L761.2,165.5 L761.7,154.2 L762.2,168.9 L762.6,155.3 L763.0,157.6 L763.5,168.9 L764.0,156.5 L764.4,167.8 L764.9,165.5 L765.4,154.2 L765.8,151.9 L766.3,156.5 L766.7,170.1 L767.2,167.8 L767.7,163.3 L768.2,163.3 L768.7,168.9 L769.1,151.9 L769.6,163.3 L770.1,165.5 L770.6,159.9 L771.0,156.5 L771.5,151.9 L771.9,162.1 L772.7,153.1 L773.1,158.7 L773.6,159.9 L774.0,159.9 L774.5,164.4 L775.0,162.1 L775.4,153.1 L775.9,158.7 L776.4,157.6 L776.9,155.3 L777.3,154.2 L777.8,164.4 L778.3,170.1 L778.8,161.0 L779.3,151.9 L779.7,158.7 L780.1,155.3 L780.6,159.9 L781.1,162.1 L781.5,154.2 L782.0,164.4 L782.7,157.6 L783.1,162.1 L783.6,154.2 L784.0,156.5 L784.5,163.3 L785.0,156.5 L785.5,157.6 L785.9,164.4 L786.4,167.8 L786.9,167.8 L787.4,167.8 L787.9,164.4 L788.3,156.5 L788.8,151.9 L789.3,168.9 L789.8,168.9 L790.2,162.1 L790.6,154.2 L791.1,162.1 L791.6,170.1 L792.1,153.1 L792.7,153.1 L793.2,154.2 L793.7,157.6 L794.2,171.2 L794.6,165.5 L795.1,158.7 L795.6,161.0 L796.1,150.8 L796.5,162.1 L797.0,166.7 L797.5,159.9 L798.0,167.8 L798.5,167.8 L798.9,161.0 L799.4,168.9 L799.9,159.9 L800.4,150.8 L800.8,168.9 L801.3,161.0 L801.7,157.6 L802.2,166.7 L802.8,145.1 L803.2,150.8 L803.7,150.8 L804.2,165.5 L804.7,155.3 L805.1,167.8 L805.6,165.5 L806.1,156.5 L806.6,156.5 L807.1,153.1 L807.5,163.3 L808.0,156.5 L808.5,165.5 L809.0,167.8 L809.4,166.7 L809.9,153.1 L810.3,149.7 L810.8,159.9 L811.3,156.5 L811.7,163.3 L812.2,156.5 L812.8,161.0 L813.3,163.3 L813.7,172.3 L814.2,164.4 L814.7,168.9 L815.2,155.3 L815.7,155.3 L816.1,157.6 L816.6,168.9 L817.1,161.0 L817.6,170.1 L818.0,171.2 L818.5,164.4 L819.0,166.7 L819.4,162.1 L819.9,153.1 L820.3,155.3 L820.8,158.7 L821.3,170.1 L821.8,155.3 L822.2,151.9 L822.9,157.6 L823.3,155.3 L823.8,156.5 L824.3,156.5 L824.7,164.4 L825.2,155.3 L825.7,163.3 L826.2,162.1 L826.6,155.3 L827.1,165.5 L827.6,153.1 L828.1,170.1 L828.5,154.2 L829.0,165.5 L829.4,156.5 L829.9,154.2 L830.4,156.5 L830.8,153.1 L831.3,156.5 L831.8,158.7 L832.3,166.7 L832.9,165.5 L833.3,161.0 L833.8,165.5 L834.3,157.6 L834.8,155.3 L835.2,151.9 L835.7,165.5 L836.1,163.3 L836.6,159.9 L837.1,153.1 L837.5,153.1 L838.0,170.1 L838.5,156.5 L839.0,156.5 L839.4,164.4 L839.9,161.0 L840.4,158.7 L840.9,154.2 L841.3,161.0 L841.8,163.3 L842.3,156.5 L842.9,157.6 L843.4,155.3 L843.8,170.1 L844.2,154.2 L844.7,161.0 L845.2,168.9 L845.7,168.9 L846.1,162.1 L846.6,162.1 L847.1,154.2 L847.6,153.1 L848.0,158.7 L848.5,151.9 L849.0,171.2 L849.5,168.9 L849.9,153.1 L850.4,154.2 L850.8,159.9 L851.3,164.4 L851.8,150.8 L852.2,159.9 L852.9,164.4 L853.4,166.7 L853.9,167.8 L854.4,150.8 L854.8,170.1 L855.3,155.3 L855.8,161.0 L856.3,158.7 L856.7,166.7 L857.2,158.7 L857.7,150.8 L858.2,164.4 L858.6,167.8 L859.1,165.5 L859.6,159.9 L860.1,168.9 L860.6,153.1 L861.0,157.6 L861.4,151.9 L861.9,151.9 L862.4,167.8 L863.0,168.9 L863.4,151.9 L863.9,159.9 L864.4,167.8 L864.8,155.3 L865.3,151.9 L865.8,154.2 L866.3,166.7 L866.8,159.9 L867.2,167.8 L867.7,154.2 L868.2,170.1 L868.7,166.7 L869.1,151.9 L869.6,166.7 L870.0,150.8 L870.5,164.4 L871.0,163.3 L871.4,164.4 L871.9,154.2 L872.4,166.7 L873.0,166.7 L873.4,166.7 L873.9,165.5 L874.4,159.9 L874.9,153.1 L875.4,168.9 L875.8,151.9 L876.3,166.7 L876.8,150.8 L877.3,166.7 L877.7,162.1 L878.2,151.9 L878.6,165.5 L879.1,158.7 L879.6,164.4 L880.0,149.7 L880.5,159.9 L881.0,154.2 L881.5,163.3 L882.0,151.9 L882.4,167.8 L883.2,158.7 L883.6,159.9 L884.1,162.1 L884.5,159.9 L885.0,167.8 L885.5,159.9 L886.0,162.1 L886.4,150.8 L886.9,157.6 L887.4,163.3 L887.9,161.0 L888.3,161.0 L888.8,158.7 L889.2,151.9 L889.7,157.6 L890.2,163.3 L890.6,156.5 L891.1,164.4 L891.6,162.1 L892.1,170.1 L892.6,163.3 L893.2,164.4 L893.6,164.4 L894.1,161.0 L894.6,167.8 L895.0,163.3 L895.5,156.5 L896.0,155.3 L896.5,154.2 L896.9,154.2 L897.4,156.5 L897.9,171.2 L898.4,162.1 L898.8,153.1 L899.2,154.2 L899.7,154.2 L900.2,154.2 L900.7,155.3 L901.2,158.7 L901.6,157.6 L902.1,165.5 L902.6,161.0 L903.3,170.1 L903.7,163.3 L904.2,154.2 L904.7,153.1 L905.2,161.0 L905.6,165.5 L906.1,162.1 L906.6,162.1 L907.1,163.3 L907.6,166.7 L908.0,158.7 L908.5,155.3 L909.0,164.4 L909.5,150.8 L909.9,162.1 L910.3,162.1 L910.8,163.3 L911.3,168.9 L911.8,157.6 L912.2,155.3 L912.7,165.5 L913.4,168.9 L913.9,161.0 L914.3,161.0 L914.7,161.0 L915.2,161.0 L915.7,161.0 L916.2,162.1 L916.6,153.1 L917.1,155.3 L917.6,162.1 L918.1,157.6 L918.5,165.5 L919.0,161.0 L919.5,156.5 L920.0,161.0 L920.4,153.1 L920.9,154.2 L921.4,159.9 L921.8,156.5 L922.3,168.9 L922.7,164.4 L923.4,162.1 L923.9,167.8 L924.4,164.4 L924.9,155.3 L925.3,155.3 L925.8,163.3 L926.4,153.1 L926.9,157.6 L927.3,167.8 L927.8,156.5 L928.3,161.0 L928.8,162.1 L929.2,171.2 L929.7,158.7 L930.2,158.7 L930.7,164.4 L931.1,150.8 L931.6,162.1 L932.0,165.5 L932.5,154.2 L933.0,163.3 L934.0,140.6 L934.4,159.9 L934.9,153.1 L935.4,149.7 L935.8,153.1 L936.3,158.7 L936.8,164.4 L937.3,165.5 L937.7,155.3 L938.2,163.3 L938.7,165.5 L939.2,156.5 L939.7,161.0 L940.1,166.7 L940.5,159.9 L941.0,167.8 L941.5,148.5 L941.9,168.9 L942.4,153.1 L942.9,164.4 L943.4,161.0 L944.4,164.4 L944.8,161.0 L945.3,164.4 L945.8,157.6 L946.2,159.9 L946.7,158.7 L947.2,163.3 L947.7,163.3 L948.2,166.7 L948.6,163.3 L949.0,159.9 L949.5,151.9 L950.0,161.0 L950.4,167.8 L950.9,166.7 L951.4,159.9 L951.9,159.9 L952.4,150.8 L952.8,168.9 L953.3,171.2 L953.8,158.7 L954.8,150.8 L955.2,153.1 L955.7,157.6 L956.2,154.2 L956.7,159.9 L957.1,159.9 L957.6,155.3 L958.0,168.9 L958.5,167.8 L958.9,156.5 L959.4,164.4 L959.9,155.3 L960.4,167.8 L960.9,154.2 L961.3,151.9 L961.8,159.9 L962.3,162.1 L962.8,161.0 L963.2,161.0 L963.7,159.9 L964.2,161.0 L965.3,158.7 L965.7,168.9 L966.2,166.7 L966.7,153.1 L967.2,165.5 L967.6,189.3 L968.1,234.6 L968.6,265.2 L969.1,306.0 L969.6,327.6 L970.0,349.1 L970.4,376.3 L970.9,395.6 L971.4,418.2 L971.8,428.4 L972.3,454.5 L972.8,462.4 L973.3,469.2 L973.8,485.1 L974.2,497.5 L974.7,497.5 L975.8,508.9 L976.2,519.1 L976.7,521.3 L977.2,511.1 L977.7,528.1 L978.1,521.3 L978.6,527.0 L979.1,534.9 L979.6,522.5 L980.0,532.7 L980.4,536.1 L980.9,525.9 L981.4,532.7 L981.9,534.9 L982.4,537.2 L982.8,522.5 L983.3,531.5 L983.8,534.9 L984.3,533.8 L984.7,522.5 L985.2,531.5 L986.3,531.5 L986.7,536.1 L987.2,533.8 L987.7,520.2 L988.2,532.7 L988.7,538.3 L989.1,524.7 L989.6,516.8 L990.1,517.9 L990.5,529.3 L991.0,537.2 L991.4,538.3 L991.9,529.3 L992.4,531.5 L992.9,523.6 L993.3,534.9 L993.8,514.5 L994.3,517.9 L994.8,513.4 L995.3,520.2 L995.7,525.9 L996.8,490.7 L997.3,496.4 L997.7,512.3 L998.2,506.6 L998.7,493.0 L999.2,508.9 L1000.1,520.2 L1000.5,503.2 L1001.0,495.3 L1001.5,479.4 L1001.9,485.1 L1002.4,495.3 L1002.9,494.1 L1003.4,512.3 L1003.8,487.3 L1004.3,493.0 L1004.8,511.1 L1005.3,516.8 L1005.8,474.9 L1006.2,485.1 L1007.4,504.3 L1007.8,482.8 L1008.2,489.6 L1008.7,478.3 L1009.2,469.2 L1009.7,468.1 L1010.2,491.9 L1010.6,487.3 L1011.1,479.4 L1011.5,480.5 L1012.0,498.7 L1012.4,470.3 L1012.9,464.7 L1013.4,472.6 L1013.9,479.4 L1014.4,496.4 L1014.8,506.6 L1015.3,476.0 L1015.8,490.7 L1016.3,496.4 L1016.7,498.7 L1017.9,516.8 L1018.3,506.6 L1018.8,514.5 L1019.2,522.5 L1019.7,485.1 L1020.2,481.7 L1020.7,473.7 L1021.1,480.5 L1021.6,476.0 L1022.1,491.9 L1022.6,469.2 L1023.0,474.9 L1023.4,485.1 L1023.9,469.2 L1024.4,470.3 L1024.9,466.9 L1025.3,482.8 L1025.8,466.9 L1026.3,472.6 L1026.8,483.9 L1027.3,496.4 L1028.4,505.5 L1028.8,507.7 L1029.3,521.3 L1029.7,508.9 L1030.2,514.5 L1030.7,527.0 L1031.2,534.9 L1031.6,528.1 L1032.1,529.3 L1032.5,537.2 L1033.0,531.5 L1033.5,529.3 L1033.9,522.5 L1034.4,521.3 L1034.9,523.6 L1035.4,522.5 L1035.8,534.9 L1036.3,534.9 L1036.8,523.6 L1037.3,538.3 L1037.8,527.0 L1038.9,540.6 L1039.4,544.0 L1039.9,536.1 L1040.3,486.2 L1040.8,455.6 L1041.3,412.6 L1041.8,391.0 L1042.3,357.0 L1042.7,334.4 L1043.2,307.2 L1043.7,286.8 L1044.1,273.2 L1044.5,252.8 L1045.0,234.6 L1045.5,216.5 L1046.0,208.6 L1046.5,190.5 L1046.9,193.8 L1047.4,168.9 L1047.8,178.0 L1048.3,162.1 L1049.4,138.3 L1049.8,153.1 L1050.3,134.9 L1050.8,131.5 L1051.2,132.7 L1051.7,127.0 L1052.2,113.4 L1052.7,113.4 L1053.1,110.0 L1053.6,99.8 L1054.0,100.9 L1054.4,99.8 L1054.9,107.7 L1055.3,114.5 L1055.8,105.5 L1056.3,86.2 L1056.7,107.7 L1057.2,87.3 L1057.6,91.9 L1058.1,94.1 L1058.6,80.5 L1059.9,96.4 L1060.4,87.3 L1060.9,87.3 L1061.4,76.0 L1061.8,98.7 L1062.3,80.5 L1062.8,98.7 L1063.3,98.7 L1063.7,88.5 L1064.2,91.9 L1064.6,86.2 L1065.1,80.5 L1065.6,100.9 L1066.0,102.1 L1066.5,88.5 L1067.0,80.5 L1067.5,99.8 L1067.9,94.1 L1068.4,82.8 L1068.9,88.5 L1069.4,91.9 L1070.4,97.5 L1070.8,104.3 L1071.3,115.7 L1071.8,115.7 L1073.0,120.2 L1073.5,139.5 L1074.0,161.0 L1074.4,178.0 L1074.9,193.8 L1075.4,198.4 L1075.9,219.9 L1076.4,227.8 L1076.8,240.3 L1077.3,250.5 L1077.8,263.0 L1078.2,270.9 L1078.6,272.0 L1079.1,285.6 L1079.6,286.8 L1080.7,302.6 L1081.1,301.5 L1081.6,307.2 L1082.1,310.6 L1082.6,317.4 L1083.0,319.6 L1083.5,320.8 L1084.0,323.0" fill="none" stroke="#ff7f0e" stroke-width="1.1" opacity="0.85"/><text x="616" y="572" font-size="11" fill="#888">time 0..49 s — altitude (blue) &amp; roll (orange)</text></svg>