<svg xmlns="http://www.w3.org/2000/svg" width="1140" height="600" font-family="sans-serif" font-size="13"><rect width="1140" height="600" fill="white"/><text x="20" y="26" font-size="15" fill="#333">Coludo flight</text><rect x="20" y="40" width="540" height="540" fill="#fbfbfb" stroke="#ddd"/><rect x="50" y="304" width="317" height="68" fill="#cde" stroke="#369" opacity="0.7"/><text x="50" y="299" fill="#369" font-size="12">landing zone</text><circle cx="250" cy="411" r="5" fill="black"/><text x="258" y="415" font-size="12">pad</text><path d="M251.0,410.6 L251.0,410.6 L251.0,410.6 L251.0,410.6 L251.0,410.6 L251.0,410.6 L251.0,410.6 L251.0,410.6 L251.0,410.6 L251.0,410.6 L251.0,410.6 L251.0,410.6 L251.0,410.6 L251.0,410.6 L251.0,410.6 L251.0,410.6 L251.0,410.6 L251.0,410.6 L251.0,410.6 L251.0,410.6 L251.0,410.6 L251.0,410.6 L251.0,410.6 L251.0,410.6 L251.0,410.6 L251.0,410.6 L251.0,410.6 L251.0,410.6 L251.0,410.6 L251.0,410.6 L251.0,410.6 L251.0,410.6 L251.0,410.6 L251.0,410.6 L251.0,410.6 L251.0,410.6 L251.0,410.6 L251.0,410.6 L251.0,410.6 L251.0,410.6 L251.0,410.6 L251.0,410.6 L251.0,410.6 L251.0,410.6 L251.0,410.6 L251.0,410.6 L251.0,410.6 L251.0,410.6 L251.0,410.6 L251.0,410.6 L251.0,410.6 L251.0,410.6 L251.0,410.6 L251.0,410.6 L251.0,410.6 L251.0,410.6 L251.0,410.6 L251.0,410.6 L251.0,410.6 L251.0,410.6 L251.0,410.6 L251.0,410.6 L251.0,410.6 L251.0,410.6 L251.0,410.6 L251.0,410.6 L251.0,410.6 L251.0,410.6 L251.0,410.6 L251.0,410.6 L251.0,410.6 L251.0,410.6 L251.0,410.6 L251.0,410.6 L251.0,410.6 L251.0,410.6 L251.0,410.6 L252.1,407.9 L254.5,404.9 L256.2,403.0 L257.5,400.4 L257.9,397.4 L261.3,395.5 L263.0,392.8 L264.7,390.9 L266.4,388.3 L268.4,386.4 L269.8,384.5 L273.2,382.7 L274.9,380.0 L278.3,377.8 L279.3,376.6 L283.4,374.4 L285.1,372.1 L286.8,370.6 L290.2,369.5 L291.9,367.6 L295.3,365.3 L297.0,363.1 L300.4,361.2 L301.1,359.7 L303.8,357.0 L306.5,355.1 L308.9,352.9 L310.6,349.9 L313.3,347.2 L314.0,345.7 L317.4,342.7 L318.7,339.7 L319.1,337.8 L322.5,334.8 L322.8,331.8 L324.2,328.8 L325.9,326.5 L327.6,323.1 L328.3,320.1 L328.3,316.7 L329.3,314.8 L331.0,311.0 L331.0,308.4 L332.7,305.4 L332.7,301.6 L332.7,298.6 L333.7,296.0 L333.7,292.6 L333.7,290.7 L334.4,286.5 L334.4,284.3 L336.1,282.0 L337.8,278.2 L337.8,275.6 L339.5,273.0 L339.8,269.9 L341.2,266.6 L342.9,263.5 L344.6,261.3 L346.3,257.5 L348.0,254.9 L350.0,251.9 L351.4,248.8 L354.8,246.2 L355.5,244.7 L358.2,241.3 L361.6,238.7 L363.3,236.8 L366.7,234.1 L367.1,232.3 L370.1,230.4 L371.8,228.9 L373.5,227.4 L376.9,225.5 L380.3,223.6 L382.7,221.7 L385.4,220.2 L389.5,218.7 L390.5,217.6 L394.3,216.4 L397.3,214.9 L399.7,214.2 L404.1,213.4 L407.5,212.3 L409.9,211.5 L414.3,210.8 L416.7,210.4 L419.4,210.0 L422.8,209.6 L427.6,209.3 L431.3,209.3 L433.0,209.3 L438.2,209.6 L441.6,210.0 L444.6,210.4 L446.7,210.8 L449.4,211.5 L453.5,212.3 L455.2,213.0 L460.3,213.8 L462.0,214.5 L465.4,215.3 L467.1,216.8 L471.8,217.9 L473.9,219.4 L475.9,220.9 L479.0,222.5 L482.0,224.0 L484.1,225.5 L485.8,226.6 L489.2,228.9 L492.6,230.7 L494.3,232.6 L496.0,234.1 L497.7,236.0 L499.4,237.9 L501.1,239.8 L503.1,242.4 L506.2,245.4 L507.9,247.0 L509.6,250.0 L511.3,253.0 L514.7,255.2 L514.7,258.3 L518.1,261.3 L518.1,263.5 L520.1,266.9 L521.5,269.6 L523.2,273.0 L523.2,276.0 L524.9,279.0 L525.6,281.3 L525.6,283.9 L526.6,286.9 L526.6,289.2 L528.3,292.2 L528.3,295.6 L528.3,299.4 L528.3,301.2 L530.0,305.4 L530.0,308.4 L530.0,311.0 L528.3,314.4 L528.3,317.8 L528.3,320.8 L528.3,323.9 L526.6,326.9 L526.6,330.3 L525.6,332.5 L525.6,334.8 L524.9,338.2 L523.2,341.2 L521.5,344.6 L520.1,347.6 L520.1,349.9 L519.8,352.9 L516.4,355.5 L514.7,357.8 L514.7,361.2 L513.0,363.4 L509.6,366.8 L509.9,369.5 L506.2,371.7 L503.1,374.4 L502.8,377.0 L499.4,378.5 L497.7,381.1 L496.0,383.0 L492.9,385.3 L490.9,386.8 L487.5,389.1 L485.8,390.6 L482.4,392.8 L480.7,394.0 L477.3,395.5 L475.6,397.0 L471.8,398.9 L468.8,400.0 L465.0,401.1 L463.7,402.3 L460.3,403.4 L456.9,404.1 L453.5,405.3 L450.1,405.6 L446.7,406.8 L444.6,407.2 L439.9,407.5 L438.2,407.9 L433.0,408.3 L431.3,408.3 L427.9,408.3 L424.5,408.3 L421.1,407.9 L417.7,407.5 L416.0,407.2 L412.6,406.8 L409.9,406.4 L407.5,406.0 L404.5,404.9 L400.7,404.1 L399.0,403.4 L395.6,401.9 L392.2,401.1 L390.5,400.4 L387.1,398.5 L383.7,397.0 L380.3,395.5 L377.3,393.6 L375.2,392.5 L373.9,390.9 L368.4,389.1 L366.7,386.8 L365.0,385.7 L361.6,383.8 L358.2,381.5 L355.5,379.3 L353.1,377.4 L350.0,375.9 L348.0,373.6 L346.0,371.0 L344.6,369.8 L339.8,366.8 L337.8,364.6 L334.4,362.3 L333.7,361.2 L331.0,358.9 L328.3,356.3 L327.6,354.8 L324.2,352.9 L322.5,351.0 L320.8,348.7" fill="none" stroke="#1f77b4" stroke-width="1.7" opacity="0.85"/><circle cx="321" cy="349" r="4.5" fill="#1f77b4"/><text x="28" y="572" font-size="11" fill="#888">ground track — m from pad (N up)</text><rect x="580" y="40" width="540" height="540" fill="#fbfbfb" stroke="#ddd"/><text x="586" y="54" fill="#1f77b4" font-size="11">alt 247</text><text x="586" y="558" fill="#1f77b4" font-size="11">-53</text><path d="M616.5,458.2 L617.0,458.1 L617.6,457.9 L618.2,457.7 L618.8,457.5 L619.3,457.0 L619.9,456.7 L620.5,456.1 L621.1,455.6 L621.7,454.8 L622.1,454.2 L622.7,453.6 L623.3,452.6 L623.8,451.9 L624.4,450.7 L625.0,449.9 L625.6,448.6 L626.2,447.6 L626.7,446.0 L627.3,445.0 L627.9,443.3 L628.5,442.1 L629.0,440.4 L629.6,439.0 L630.2,437.0 L630.8,435.7 L631.4,433.5 L631.9,432.0 L632.5,429.6 L633.0,428.0 L633.6,426.4 L634.1,423.8 L634.7,422.0 L635.3,419.5 L635.9,417.5 L636.4,414.7 L637.0,412.7 L637.6,409.7 L638.2,407.7 L638.8,404.5 L639.3,402.2 L639.9,398.9 L640.5,396.7 L641.1,393.1 L641.6,390.8 L642.2,387.0 L642.7,384.4 L643.3,381.9 L643.8,378.4 L644.4,375.8 L645.0,371.5 L645.6,369.0 L646.2,364.8 L646.7,361.9 L647.3,357.5 L647.9,354.9 L648.5,350.1 L649.0,347.3 L649.6,342.5 L650.2,339.6 L650.8,334.7 L651.4,331.4 L651.9,326.8 L652.4,323.6 L653.0,320.4 L653.6,314.8 L654.1,311.5 L654.7,306.4 L655.3,302.9 L655.9,297.6 L656.4,294.3 L657.0,288.5 L657.6,285.8 L658.2,280.1 L658.8,276.5 L659.3,271.4 L659.9,268.2 L660.5,263.9 L661.1,260.1 L661.6,255.8 L662.1,251.8 L662.7,249.3 L663.3,244.3 L663.8,241.7 L664.4,236.5 L665.0,233.6 L665.6,230.2 L666.2,227.0 L666.7,222.7 L667.3,220.1 L667.9,215.5 L668.5,213.3 L669.0,209.0 L669.6,206.3 L670.2,201.6 L670.8,200.0 L671.4,195.5 L671.8,192.7 L672.4,190.3 L673.0,186.5 L673.5,184.2 L674.1,181.2 L674.6,179.1 L675.2,176.5 L675.7,172.7 L676.3,170.7 L676.9,166.8 L677.5,165.3 L678.1,162.3 L678.6,159.4 L679.2,157.2 L679.8,155.2 L680.3,152.1 L680.8,149.4 L681.4,148.3 L682.0,145.7 L682.6,143.9 L683.1,141.2 L683.7,138.1 L684.3,136.5 L684.9,134.9 L685.5,131.2 L686.0,130.9 L686.6,128.0 L687.2,125.4 L687.7,123.9 L688.2,123.0 L688.8,121.4 L689.4,118.8 L690.0,116.4 L690.5,114.5 L691.1,112.8 L691.7,111.9 L692.3,110.5 L692.9,107.8 L693.4,107.8 L694.0,104.4 L694.6,104.2 L695.2,102.4 L695.7,102.0 L696.3,99.6 L696.9,98.7 L697.4,96.8 L697.9,96.2 L698.5,94.2 L699.1,94.4 L699.7,92.9 L700.2,91.4 L700.8,90.9 L701.4,89.3 L702.0,87.7 L702.6,87.5 L703.1,87.2 L703.7,86.0 L704.3,84.8 L704.9,84.4 L705.4,83.6 L706.0,82.2 L706.6,83.1 L707.1,81.8 L707.6,80.5 L708.2,80.1 L708.8,79.1 L709.4,79.8 L709.9,79.6 L710.4,78.5 L711.0,77.5 L711.6,77.4 L712.2,77.8 L712.7,76.8 L713.3,77.4 L713.9,77.7 L714.5,76.0 L715.0,76.0 L715.5,76.5 L716.1,76.5 L716.7,77.3 L717.2,77.2 L717.8,76.7 L718.4,77.2 L719.0,77.1 L719.6,77.2 L720.1,78.4 L720.7,76.9 L721.3,77.4 L721.8,79.2 L722.3,77.8 L722.9,78.2 L723.5,79.9 L724.1,80.6 L724.6,80.6 L725.2,80.6 L725.8,82.2 L726.4,81.7 L726.9,82.4 L727.5,83.4 L728.1,84.2 L728.7,85.7 L729.2,85.6 L729.7,84.7 L730.3,86.1 L730.9,86.5 L731.5,86.5 L732.0,86.8 L732.6,86.7 L733.2,86.6 L733.7,87.3 L734.2,87.1 L734.8,86.6 L735.3,86.7 L735.8,87.6 L736.4,87.0 L737.0,87.7 L737.6,87.4 L738.2,87.1 L738.7,88.3 L739.3,87.6 L739.9,87.4 L740.5,88.4 L741.1,87.7 L741.6,88.3 L742.2,88.1 L742.8,88.8 L743.4,88.1 L743.9,88.5 L744.4,89.0 L745.0,89.0 L745.6,88.7 L746.1,90.2 L746.7,90.5 L747.3,90.6 L747.9,89.5 L748.4,91.0 L749.0,89.9 L749.6,91.3 L750.2,92.0 L750.8,91.6 L751.3,92.5 L751.9,91.6 L752.4,92.0 L753.0,91.6 L753.5,92.0 L754.1,92.3 L754.7,93.8 L755.3,93.8 L755.8,94.0 L756.4,94.4 L757.0,93.1 L757.6,93.7 L758.2,94.2 L758.7,94.0 L759.3,95.5 L759.9,95.4 L760.5,95.4 L761.0,96.3 L761.6,95.3 L762.1,95.7 L762.7,97.6 L763.2,96.5 L763.8,97.8 L764.4,97.0 L765.0,97.4 L765.6,98.3 L766.1,99.3 L766.7,98.9 L767.3,99.1 L767.9,99.9 L768.4,99.7 L769.0,100.6 L769.6,100.6 L770.2,100.0 L770.7,102.0 L771.2,101.9 L771.8,101.0 L772.4,101.7 L773.0,103.1 L773.5,102.2 L774.1,102.5 L774.7,104.3 L775.3,104.4 L775.8,104.0 L776.4,105.3 L777.0,105.1 L777.6,105.5 L778.2,105.5 L778.7,106.4 L779.3,106.3 L779.9,106.6 L780.4,107.9 L780.9,108.4 L781.5,108.6 L782.0,107.8 L782.5,109.6 L783.1,109.6 L783.7,109.3 L784.3,110.8 L784.9,110.5 L785.4,111.5 L786.0,112.2 L786.6,112.2 L787.2,112.6 L787.7,112.0 L788.2,112.2 L788.8,114.0 L789.4,114.2 L789.9,114.0 L790.5,114.3 L791.1,115.7 L791.7,116.0 L792.3,116.6 L792.8,116.1 L793.4,117.2 L794.0,117.0 L794.6,117.6 L795.1,118.1 L795.7,119.6 L796.3,118.9 L796.9,120.0 L797.4,120.8 L797.9,120.9 L798.5,121.6 L799.1,122.6 L799.7,122.4 L800.2,122.1 L800.8,123.6 L801.4,124.2 L802.0,124.2 L802.5,125.5 L803.1,126.3 L803.7,125.5 L804.3,126.0 L805.1,127.7 L805.5,128.3 L806.1,128.3 L806.7,128.3 L807.3,129.3 L807.9,129.9 L808.4,129.7 L809.0,130.7 L809.5,130.7 L810.1,131.2 L810.6,132.6 L811.2,132.3 L811.8,133.2 L812.4,133.3 L812.9,134.3 L813.5,135.7 L814.1,136.0 L814.7,135.6 L815.3,136.0 L815.8,137.7 L816.4,138.4 L817.2,137.9 L817.8,138.6 L818.4,139.9 L819.0,140.1 L819.5,141.0 L820.1,141.0 L820.7,141.9 L821.3,143.3 L821.8,143.0 L822.4,143.1 L823.0,144.7 L823.6,145.0 L824.2,145.0 L824.7,145.7 L825.3,146.4 L825.8,147.6 L826.4,147.9 L826.9,148.9 L827.5,148.8 L828.1,150.4 L828.7,150.0 L829.4,151.6 L829.9,151.5 L830.5,151.9 L831.1,152.8 L831.7,153.8 L832.3,155.0 L832.8,155.6 L833.4,154.9 L834.0,155.5 L834.6,157.0 L835.1,156.8 L835.7,157.4 L836.3,159.2 L836.8,159.7 L837.3,159.4 L837.9,160.4 L838.5,161.0 L839.1,161.3 L839.7,162.7 L840.2,162.9 L840.8,163.9 L841.5,164.5 L842.1,165.8 L842.7,165.5 L843.2,165.8 L843.8,167.3 L844.4,168.5 L845.0,168.3 L845.5,168.9 L846.0,170.8 L846.6,170.0 L847.2,171.4 L847.7,172.2 L848.2,172.7 L848.8,173.5 L849.4,174.4 L849.9,174.7 L850.5,176.0 L851.1,176.3 L851.7,177.3 L852.2,177.6 L852.8,177.8 L853.6,179.4 L854.2,180.2 L854.8,180.5 L855.4,180.8 L855.9,181.9 L856.5,183.3 L857.1,183.3 L857.7,184.0 L858.3,185.2 L858.8,186.0 L859.4,186.9 L859.9,186.6 L860.5,188.1 L861.0,188.3 L861.6,189.1 L862.2,189.6 L862.8,190.9 L863.3,191.9 L863.9,192.5 L864.5,192.6 L865.1,193.3 L865.8,194.1 L866.3,195.4 L866.9,196.7 L867.5,197.0 L868.1,197.2 L868.7,197.6 L869.2,198.9 L869.8,200.3 L870.4,199.9 L870.9,201.8 L871.4,202.5 L872.0,202.7 L872.6,203.8 L873.2,203.8 L873.7,205.0 L874.3,206.4 L874.9,207.0 L875.5,207.2 L876.1,207.7 L876.6,208.4 L877.2,209.8 L878.0,211.1 L878.5,211.6 L879.0,212.6 L879.5,212.5 L880.1,214.3 L880.6,214.4 L881.1,214.9 L881.7,216.2 L882.3,216.6 L882.9,217.1 L883.5,217.5 L884.0,219.4 L884.5,219.4 L885.1,220.5 L885.7,221.1 L886.2,221.6 L886.7,222.7 L887.3,224.1 L887.8,223.8 L888.3,224.6 L888.9,225.4 L889.5,226.9 L890.1,227.4 L890.6,227.9 L891.2,228.5 L891.8,229.8 L892.4,230.7 L892.9,231.7 L893.5,232.6 L894.1,232.7 L894.7,234.3 L895.2,234.4 L895.7,235.3 L896.3,236.9 L896.9,237.0 L897.4,238.1 L898.0,238.8 L898.6,239.5 L899.2,240.5 L899.8,241.7 L900.3,241.8 L900.9,242.5 L901.5,243.2 L902.2,245.4 L902.8,246.2 L903.3,246.8 L903.9,247.2 L904.5,247.6 L905.1,248.8 L905.6,250.0 L906.1,250.7 L906.7,251.4 L907.3,251.9 L907.8,253.4 L908.4,254.2 L909.0,254.9 L909.6,255.5 L910.2,257.0 L910.7,257.1 L911.3,258.7 L911.9,259.5 L912.5,259.8 L913.0,260.8 L913.5,261.9 L914.4,262.4 L914.9,263.5 L915.5,264.1 L916.1,265.8 L916.6,266.4 L917.1,266.7 L917.7,268.2 L918.2,269.1 L918.7,269.4 L919.3,269.9 L919.9,271.1 L920.4,272.1 L921.0,272.6 L921.6,274.1 L922.2,274.5 L922.8,275.9 L923.2,276.5 L923.8,276.9 L924.3,278.0 L924.8,279.0 L925.4,279.7 L926.5,281.8 L927.0,282.5 L927.6,283.3 L928.1,284.1 L928.6,284.4 L929.1,285.1 L929.7,286.1 L930.3,287.1 L930.8,288.0 L931.4,289.1 L932.0,289.7 L932.6,291.1 L933.2,291.6 L933.7,292.5 L934.3,293.7 L934.9,294.9 L935.5,295.3 L936.0,296.4 L936.5,297.0 L937.1,297.8 L937.6,298.6 L938.6,300.2 L939.2,300.8 L939.7,301.9 L940.3,302.8 L940.9,303.9 L941.5,304.4 L942.1,305.7 L942.6,306.4 L943.2,308.0 L943.7,308.1 L944.3,309.2 L944.8,310.1 L945.4,311.0 L946.0,312.0 L946.6,312.7 L947.1,313.8 L947.7,314.8 L948.3,315.8 L948.9,316.8 L949.5,317.6 L950.0,318.2 L950.8,319.7 L951.3,320.4 L951.9,321.3 L952.4,322.7 L952.9,323.4 L953.4,324.1 L954.0,324.7 L954.5,325.9 L955.0,326.3 L955.6,327.6 L956.2,328.7 L956.7,329.4 L957.3,330.5 L957.9,330.9 L958.4,332.1 L958.9,332.9 L959.4,334.0 L960.0,334.6 L960.6,335.9 L961.1,336.6 L961.6,337.7 L962.2,338.4 L962.9,339.2 L963.4,340.3 L964.0,341.4 L964.6,341.8 L965.2,343.1 L965.8,344.0 L966.2,345.4 L966.8,345.9 L967.4,346.6 L967.9,347.8 L968.4,348.6 L969.0,349.5 L969.6,350.2 L970.1,351.1 L970.7,352.5 L971.3,352.8 L971.8,354.4 L972.3,355.0 L972.8,355.8 L973.4,356.5 L973.9,357.5 L974.4,358.5 L975.1,359.7 L975.7,360.3 L976.3,361.6 L976.8,362.4 L977.3,362.9 L977.9,364.4 L978.5,365.2 L979.0,366.1 L979.5,367.2 L980.0,367.9 L980.5,368.7 L981.1,369.5 L981.7,370.7 L982.3,371.5 L982.9,372.4 L983.4,373.6 L984.0,374.5 L984.6,375.3 L985.2,376.3 L985.8,377.6 L986.3,378.2 L987.3,380.4 L987.8,381.1 L988.4,381.8 L989.0,383.1 L989.6,383.7 L990.1,384.8 L990.7,385.8 L991.3,386.8 L991.9,387.7 L992.5,388.9 L993.0,389.5 L993.6,390.7 L994.2,391.5 L994.7,392.8 L995.2,393.7 L995.8,394.1 L996.5,395.6 L997.0,396.5 L997.5,397.4 L998.1,398.3 L998.7,399.5 L999.9,401.4 L1000.4,402.6 L1001.0,403.3 L1001.6,404.2 L1002.2,405.4 L1002.7,406.2 L1003.3,407.2 L1003.9,408.2 L1004.4,409.4 L1004.9,410.2 L1005.5,410.9 L1006.0,412.2 L1006.6,413.0 L1007.1,413.7 L1007.7,414.8 L1008.3,415.6 L1008.9,417.0 L1009.4,417.7 L1010.0,418.8 L1010.6,419.7 L1011.2,420.9 L1012.6,423.3 L1013.1,424.2 L1013.7,425.3 L1014.3,426.1 L1014.9,427.3 L1015.5,428.1 L1016.0,429.3 L1016.6,430.1 L1017.2,431.3 L1017.8,432.1 L1018.3,433.3 L1018.8,434.1 L1019.4,434.9 L1020.0,436.1 L1020.5,436.9 L1021.1,438.1 L1021.7,438.9 L1022.3,440.1 L1022.9,440.9 L1023.4,442.2 L1024.0,442.9 L1025.3,445.4 L1025.9,446.1 L1026.4,447.4 L1027.0,448.2 L1027.6,449.4 L1028.2,450.3 L1028.8,451.4 L1029.3,452.3 L1029.9,453.5 L1030.5,454.3 L1031.1,455.5 L1031.6,456.3 L1032.2,457.5 L1032.7,458.3 L1033.3,459.5 L1033.8,460.3 L1034.4,461.2 L1035.0,462.4 L1035.6,463.2 L1036.1,464.4 L1036.7,465.2 L1038.1,467.6 L1038.6,468.4 L1039.2,469.6 L1039.7,470.5 L1040.3,471.7 L1040.9,472.4 L1041.5,473.6 L1042.0,474.4 L1042.6,475.7 L1043.2,476.5 L1043.8,477.7 L1044.3,478.4 L1044.8,479.2 L1045.4,480.5 L1046.0,481.2 L1046.6,482.4 L1047.1,483.2 L1047.7,484.4 L1048.3,485.2 L1048.9,486.5 L1049.4,487.1 L1050.8,489.6 L1051.3,490.3 L1051.9,491.5 L1052.4,492.3 L1053.0,493.5 L1053.6,494.4 L1054.2,495.4 L1054.8,496.3 L1055.3,497.4 L1055.9,498.2 L1056.5,499.3 L1057.1,500.1 L1057.6,501.4 L1058.1,502.0 L1058.7,502.9 L1059.3,503.9 L1059.8,504.7 L1060.4,506.0 L1061.0,506.8 L1061.6,507.9 L1062.2,508.6 L1063.5,510.9 L1064.0,511.8 L1064.6,513.1 L1065.2,513.6 L1065.7,514.9 L1066.3,515.7 L1066.9,516.6 L1067.5,517.4 L1068.1,518.7 L1068.6,519.3 L1070.0,522.2 L1070.6,522.8 L1071.2,523.7 L1071.7,524.8 L1072.3,525.4 L1072.9,526.8 L1073.5,527.5 L1074.1,528.4 L1074.6,529.1 L1076.1,531.9 L1076.6,532.8 L1077.2,533.2 L1077.8,534.3 L1078.3,535.0 L1078.9,536.3 L1079.5,537.1 L1080.1,538.0 L1080.6,538.9 L1081.2,539.7 L1081.8,540.5 L1082.3,541.6 L1082.8,542.4 L1083.4,542.9 L1084.0,544.0" fill="none" stroke="#1f77b4" stroke-width="1.4" opacity="0.85"/><text x="1040" y="54" fill="#ff7f0e" font-size="11">roll 20</text><text x="1090" y="558" fill="#ff7f0e" font-size="11">-17</text><path d="M616.5,326.3 L617.0,326.3 L617.6,326.3 L618.2,326.3 L618.8,326.3 L619.3,326.3 L619.9,326.3 L620.5,326.3 L621.1,326.3 L621.6,326.3 L622.1,326.3 L622.7,326.3 L623.3,326.3 L623.8,326.3 L624.4,326.3 L625.0,326.3 L625.6,326.3 L626.2,326.3 L626.7,326.3 L627.3,326.3 L627.9,326.3 L628.5,326.3 L629.0,327.5 L629.6,326.3 L630.2,326.3 L630.8,326.3 L631.4,326.3 L631.9,327.5 L632.5,326.3 L633.0,327.5 L633.6,326.3 L634.1,327.5 L634.7,326.3 L635.3,327.5 L635.9,326.3 L636.4,327.5 L637.0,327.5 L637.6,327.5 L638.2,327.5 L638.8,327.5 L639.3,327.5 L639.9,327.5 L640.5,327.5 L641.1,327.5 L641.6,327.5 L642.2,328.8 L642.7,327.5 L643.3,328.8 L643.8,328.8 L644.4,327.5 L645.0,328.8 L645.6,328.8 L646.2,327.5 L646.7,328.8 L647.3,327.5 L647.9,327.5 L648.5,327.5 L649.0,327.5 L649.6,327.5 L650.2,328.8 L650.8,327.5 L651.4,327.5 L651.9,327.5 L652.4,328.8 L653.0,328.8 L653.5,327.5 L654.1,327.5 L654.7,327.5 L655.3,327.5 L655.9,327.5 L656.4,328.8 L657.0,327.5 L657.6,327.5 L658.2,327.5 L658.7,327.5 L659.3,327.5 L659.9,327.5 L660.5,327.5 L661.1,328.8 L661.6,327.5 L662.1,327.5 L662.7,327.5 L663.3,327.5 L663.8,328.8 L664.4,328.8 L665.0,327.5 L665.6,327.5 L666.1,328.8 L666.7,327.5 L667.3,327.5 L667.9,328.8 L668.5,327.5 L669.0,327.5 L669.6,327.5 L670.2,327.5 L670.8,328.8 L671.4,327.5 L671.8,327.5 L672.4,327.5 L673.0,327.5 L673.5,327.5 L674.1,327.5 L674.6,327.5 L675.2,327.5 L675.7,327.5 L676.3,327.5 L676.9,328.8 L677.5,327.5 L678.1,328.8 L678.6,328.8 L679.2,327.5 L679.8,327.5 L680.3,327.5 L680.8,327.5 L681.4,327.5 L682.0,327.5 L682.6,327.5 L683.1,327.5 L683.7,328.8 L684.3,328.8 L684.9,327.5 L685.5,327.5 L686.0,328.8 L686.6,328.8 L687.2,327.5 L687.7,328.8 L688.2,327.5 L688.8,327.5 L689.4,328.8 L690.0,327.5 L690.5,328.8 L691.1,327.5 L691.7,327.5 L692.3,328.8 L692.8,327.5 L693.4,327.5 L694.0,327.5 L694.6,327.5 L695.2,328.8 L695.7,327.5 L696.3,328.8 L696.9,327.5 L697.4,327.5 L697.9,327.5 L698.5,327.5 L699.1,327.5 L699.7,327.5 L700.2,328.8 L700.8,327.5 L701.4,328.8 L702.0,327.5 L702.6,327.5 L703.1,328.8 L703.7,327.5 L704.3,327.5 L704.9,327.5 L705.4,328.8 L706.0,327.5 L706.6,327.5 L707.1,327.5 L707.6,327.5 L708.2,328.8 L708.8,327.5 L709.4,327.5 L709.9,327.5 L710.4,327.5 L711.0,327.5 L711.6,327.5 L712.2,327.5 L712.7,327.5 L713.3,327.5 L713.9,327.5 L714.5,327.5 L715.0,328.8 L715.5,327.5 L716.1,328.8 L716.7,327.5 L717.2,328.8 L717.8,328.8 L718.4,327.5 L719.0,327.5 L719.5,328.8 L720.1,327.5 L720.7,327.5 L721.3,328.8 L721.8,327.5 L722.3,328.8 L722.9,327.5 L723.5,327.5 L724.1,328.8 L724.6,328.8 L725.2,327.5 L725.8,327.5 L726.4,327.5 L726.9,327.5 L727.5,327.5 L728.1,327.5 L728.7,327.5 L729.2,312.5 L729.7,292.5 L730.3,258.7 L730.9,242.4 L731.5,221.2 L732.0,199.9 L732.6,186.1 L733.2,177.4 L733.7,151.1 L734.2,151.1 L734.8,151.1 L735.3,138.6 L735.8,134.8 L736.4,128.6 L737.0,127.3 L737.6,139.8 L738.2,121.0 L738.7,133.6 L739.3,121.0 L739.9,134.8 L740.5,124.8 L741.0,124.8 L741.6,117.3 L742.2,128.6 L742.8,117.3 L743.4,116.0 L743.9,112.3 L744.4,119.8 L745.0,124.8 L745.6,122.3 L746.1,141.1 L746.7,128.6 L747.3,134.8 L747.9,136.1 L748.4,153.6 L749.0,159.8 L749.6,158.6 L750.2,161.1 L750.8,158.6 L751.3,167.3 L751.9,173.6 L752.4,196.1 L753.0,201.1 L753.5,207.4 L754.1,191.1 L754.7,199.9 L755.3,248.7 L755.8,280.0 L756.4,322.5 L757.0,347.5 L757.6,383.8 L758.2,401.3 L758.7,431.4 L759.3,452.7 L759.9,466.4 L760.5,472.7 L761.0,500.2 L761.6,505.2 L762.1,506.5 L762.7,514.0 L763.2,524.0 L763.8,529.0 L764.4,521.5 L765.0,514.0 L765.6,522.7 L766.1,534.0 L766.7,531.5 L767.3,526.5 L767.9,536.5 L768.4,522.7 L769.0,532.7 L769.6,540.2 L770.2,519.0 L770.7,524.0 L771.2,531.5 L771.8,525.2 L772.4,529.0 L773.0,542.7 L773.5,544.0 L774.1,525.2 L774.7,531.5 L775.3,537.7 L775.8,535.2 L776.4,527.7 L777.0,524.0 L777.6,544.0 L778.2,534.0 L778.7,534.0 L779.3,529.0 L779.9,521.5 L780.4,540.2 L780.9,524.0 L781.5,544.0 L782.0,527.7 L782.5,529.0 L783.1,540.2 L783.7,526.5 L784.3,529.0 L784.9,537.7 L785.4,526.5 L786.0,524.0 L786.6,529.0 L787.2,526.5 L787.7,530.2 L788.2,535.2 L788.8,535.2 L789.4,524.0 L789.9,532.7 L790.5,536.5 L791.1,539.0 L791.7,539.0 L792.3,527.7 L792.8,524.0 L793.4,534.0 L794.0,534.0 L794.6,527.7 L795.1,534.0 L795.7,542.7 L796.3,527.7 L796.9,467.7 L797.4,432.6 L797.9,397.6 L798.5,355.0 L799.1,328.8 L799.7,293.7 L800.2,267.5 L800.8,241.2 L801.4,221.2 L802.0,204.9 L802.5,177.4 L803.1,162.3 L803.7,166.1 L804.3,159.8 L805.0,144.8 L805.5,146.1 L806.1,134.8 L806.7,126.1 L807.3,127.3 L807.9,124.8 L808.4,118.5 L809.0,121.0 L809.5,121.0 L810.1,123.6 L810.6,129.8 L811.2,121.0 L811.8,127.3 L812.4,132.3 L812.9,121.0 L813.5,129.8 L814.1,118.5 L814.7,121.0 L815.3,123.6 L815.8,123.6 L816.4,117.3 L817.2,128.6 L817.8,113.5 L818.4,133.6 L819.0,132.3 L819.5,118.5 L820.1,118.5 L820.7,122.3 L821.3,118.5 L821.8,128.6 L822.4,134.8 L823.0,113.5 L823.6,114.8 L824.2,122.3 L824.7,119.8 L825.3,121.0 L825.8,126.1 L826.4,119.8 L826.9,131.1 L827.5,133.6 L828.1,126.1 L828.7,118.5 L829.4,128.6 L829.9,127.3 L830.5,118.5 L831.1,118.5 L831.7,126.1 L832.2,122.3 L832.8,119.8 L833.4,129.8 L834.0,122.3 L834.6,116.0 L835.1,121.0 L835.7,133.6 L836.3,123.6 L836.8,126.1 L837.3,129.8 L837.9,112.3 L838.5,127.3 L839.1,129.8 L839.6,124.8 L840.2,127.3 L840.8,131.1 L841.5,113.5 L842.1,124.8 L842.7,132.3 L843.2,123.6 L843.8,128.6 L844.4,116.0 L845.0,112.3 L845.5,124.8 L846.0,122.3 L846.6,127.3 L847.2,127.3 L847.7,126.1 L848.2,116.0 L848.8,132.3 L849.4,119.8 L849.9,117.3 L850.5,133.6 L851.1,121.0 L851.7,124.8 L852.2,116.0 L852.8,126.1 L853.6,128.6 L854.2,124.8 L854.8,117.3 L855.4,121.0 L855.9,126.1 L856.5,131.1 L857.1,112.3 L857.7,119.8 L858.3,114.8 L858.8,123.6 L859.4,121.0 L859.9,123.6 L860.5,122.3 L861.0,122.3 L861.6,133.6 L862.2,116.0 L862.8,119.8 L863.3,117.3 L863.9,133.6 L864.5,116.0 L865.1,117.3 L865.8,127.3 L866.3,123.6 L866.9,121.0 L867.5,128.6 L868.1,113.5 L868.7,128.6 L869.2,113.5 L869.8,132.3 L870.4,123.6 L870.9,126.1 L871.4,126.1 L872.0,113.5 L872.6,117.3 L873.2,121.0 L873.7,126.1 L874.3,113.5 L874.9,116.0 L875.5,132.3 L876.1,116.0 L876.6,119.8 L877.2,123.6 L878.0,119.8 L878.5,136.1 L879.0,133.6 L879.5,119.8 L880.1,121.0 L880.6,121.0 L881.1,116.0 L881.7,114.8 L882.3,127.3 L882.9,126.1 L883.5,124.8 L884.0,121.0 L884.5,122.3 L885.1,114.8 L885.6,117.3 L886.2,131.1 L886.7,128.6 L887.3,118.5 L887.8,128.6 L888.3,114.8 L888.9,131.1 L889.5,113.5 L890.1,129.8 L890.6,136.1 L891.2,129.8 L891.8,118.5 L892.4,118.5 L892.9,118.5 L893.5,124.8 L894.1,121.0 L894.7,136.1 L895.2,131.1 L895.7,133.6 L896.3,124.8 L896.9,117.3 L897.4,123.6 L898.0,116.0 L898.6,118.5 L899.2,127.3 L899.8,113.5 L900.3,127.3 L900.9,129.8 L901.5,119.8 L902.2,121.0 L902.8,119.8 L903.3,117.3 L903.9,134.8 L904.5,124.8 L905.1,114.8 L905.6,113.5 L906.1,114.8 L906.7,117.3 L907.3,133.6 L907.8,129.8 L908.4,127.3 L909.0,129.8 L909.6,132.3 L910.2,131.1 L910.7,112.3 L911.3,113.5 L911.9,131.1 L912.5,123.6 L913.0,123.6 L913.5,119.8 L914.4,129.8 L914.9,123.6 L915.5,124.8 L916.0,126.1 L916.6,126.1 L917.1,114.8 L917.7,116.0 L918.2,118.5 L918.7,123.6 L919.3,134.8 L919.9,128.6 L920.4,116.0 L921.0,131.1 L921.6,116.0 L922.2,126.1 L922.8,122.3 L923.2,119.8 L923.8,128.6 L924.3,133.6 L924.8,112.3 L925.4,124.8 L926.5,133.6 L927.0,122.3 L927.6,126.1 L928.1,129.8 L928.6,127.3 L929.1,119.8 L929.7,121.0 L930.3,112.3 L930.8,122.3 L931.4,123.6 L932.0,127.3 L932.6,133.6 L933.2,114.8 L933.7,117.3 L934.3,123.6 L934.9,128.6 L935.5,116.0 L936.0,123.6 L936.5,126.1 L937.1,126.1 L937.6,116.0 L938.6,134.8 L939.2,116.0 L939.7,116.0 L940.3,127.3 L940.9,132.3 L941.5,127.3 L942.1,122.3 L942.6,126.1 L943.2,116.0 L943.7,132.3 L944.3,131.1 L944.8,118.5 L945.4,114.8 L946.0,121.0 L946.6,126.1 L947.1,123.6 L947.7,122.3 L948.3,126.1 L948.9,111.0 L949.5,114.8 L950.0,117.3 L950.8,122.3 L951.3,129.8 L951.9,122.3 L952.4,118.5 L952.9,129.8 L953.4,127.3 L954.0,126.1 L954.5,127.3 L955.0,113.5 L955.6,133.6 L956.2,119.8 L956.7,131.1 L957.3,129.8 L957.9,127.3 L958.4,129.8 L958.9,112.3 L959.4,112.3 L960.0,124.8 L960.6,122.3 L961.1,133.6 L961.6,126.1 L962.2,126.1 L962.9,111.0 L963.4,121.0 L964.0,113.5 L964.6,128.6 L965.2,124.8 L965.8,132.3 L966.2,123.6 L966.8,117.3 L967.4,132.3 L967.9,121.0 L968.4,119.8 L969.0,113.5 L969.6,127.3 L970.1,116.0 L970.7,124.8 L971.3,118.5 L971.8,116.0 L972.3,127.3 L972.8,126.1 L973.4,129.8 L973.9,131.1 L974.4,124.8 L975.1,131.1 L975.7,128.6 L976.3,127.3 L976.8,126.1 L977.3,119.8 L977.9,118.5 L978.5,114.8 L979.0,132.3 L979.5,122.3 L980.0,131.1 L980.5,119.8 L981.1,124.8 L981.7,121.0 L982.3,129.8 L982.9,129.8 L983.4,111.0 L984.0,123.6 L984.6,127.3 L985.2,113.5 L985.7,116.0 L986.3,129.8 L987.3,114.8 L987.8,132.3 L988.4,117.3 L989.0,132.3 L989.6,114.8 L990.1,119.8 L990.7,118.5 L991.3,121.0 L991.9,128.6 L992.5,118.5 L993.0,126.1 L993.6,119.8 L994.2,121.0 L994.7,122.3 L995.2,122.3 L995.8,133.6 L996.4,116.0 L997.0,121.0 L997.5,117.3 L998.1,121.0 L998.7,127.3 L999.9,127.3 L1000.4,128.6 L1001.0,129.8 L1001.6,112.3 L1002.2,124.8 L1002.7,113.5 L1003.3,124.8 L1003.9,126.1 L1004.4,122.3 L1004.9,122.3 L1005.5,132.3 L1006.0,117.3 L1006.6,121.0 L1007.1,127.3 L1007.7,128.6 L1008.3,124.8 L1008.9,117.3 L1009.4,114.8 L1010.0,122.3 L1010.6,117.3 L1011.2,134.8 L1012.6,122.3 L1013.1,116.0 L1013.7,121.0 L1014.3,117.3 L1014.9,122.3 L1015.5,119.8 L1016.0,121.0 L1016.6,114.8 L1017.2,121.0 L1017.8,127.3 L1018.3,113.5 L1018.8,123.6 L1019.4,126.1 L1020.0,124.8 L1020.5,112.3 L1021.1,118.5 L1021.7,133.6 L1022.3,119.8 L1022.9,114.8 L1023.4,128.6 L1024.0,114.8 L1025.3,116.0 L1025.9,117.3 L1026.4,126.1 L1027.0,119.8 L1027.6,127.3 L1028.2,118.5 L1028.7,134.8 L1029.3,119.8 L1029.9,118.5 L1030.5,121.0 L1031.1,117.3 L1031.6,107.3 L1032.2,99.8 L1032.7,97.3 L1033.3,76.0 L1033.8,94.8 L1034.4,89.8 L1035.0,98.5 L1035.6,89.8 L1036.1,98.5 L1036.7,102.3 L1038.1,146.1 L1038.6,143.6 L1039.2,138.6 L1039.7,134.8 L1040.3,148.6 L1040.9,168.6 L1041.5,164.8 L1042.0,163.6 L1042.6,176.1 L1043.2,166.1 L1043.8,153.6 L1044.3,151.1 L1044.8,174.9 L1045.4,174.9 L1046.0,172.4 L1046.5,181.1 L1047.1,183.6 L1047.7,167.3 L1048.3,183.6 L1048.9,193.6 L1049.4,216.1 L1050.8,174.9 L1051.3,174.9 L1051.9,167.3 L1052.4,181.1 L1053.0,199.9 L1053.6,206.1 L1054.2,204.9 L1054.8,187.4 L1055.3,178.6 L1055.9,216.1 L1056.5,212.4 L1057.1,202.4 L1057.6,204.9 L1058.1,226.2 L1058.7,247.4 L1059.3,257.4 L1059.8,244.9 L1060.4,244.9 L1061.0,223.7 L1061.6,208.6 L1062.2,223.7 L1063.5,305.0 L1064.0,300.0 L1064.6,295.0 L1065.2,290.0 L1065.7,287.5 L1066.3,263.7 L1066.9,281.2 L1067.5,302.5 L1068.0,271.2 L1068.6,280.0 L1070.0,247.4 L1070.6,251.2 L1071.2,257.4 L1071.7,268.7 L1072.3,272.5 L1072.9,280.0 L1073.5,280.0 L1074.1,288.7 L1074.6,288.7 L1076.1,300.0 L1076.6,300.0 L1077.2,303.7 L1077.8,306.2 L1078.3,308.7 L1078.9,308.7 L1079.5,311.3 L1080.1,311.3 L1080.6,313.8 L1081.2,315.0 L1081.8,315.0 L1082.3,316.3 L1082.8,317.5 L1083.4,318.8 L1084.0,320.0" fill="none" stroke="#ff7f0e" stroke-width="1.1" opacity="0.85"/><text x="616" y="572" font-size="11" fill="#888">time 0..40 s — altitude (blue) &amp; roll (orange)</text></svg>