<svg xmlns="http://www.w3.org/2000/svg" width="840" height="860" font-family="sans-serif" font-size="13"><rect width="840" height="860" fill="white"/><text x="20" y="26" font-size="15" fill="#333">TMS-7 guarded — noise sweep</text><rect x="20" y="40" width="800" height="800" fill="#fbfbfb" stroke="#ddd"/><rect x="50" y="391" width="269" height="58" fill="#cde" stroke="#369" opacity="0.7"/><text x="50" y="386" fill="#369" font-size="12">landing zone</text><circle cx="220" cy="482" r="5" fill="black"/><text x="228" y="486" font-size="12">pad</text><path d="M220.4,481.9 L220.4,481.9 L220.4,481.9 L220.4,481.9 L220.4,481.9 L220.4,481.9 L220.4,481.9 L220.4,481.9 L220.4,481.9 L220.4,481.9 L220.4,481.9 L220.4,481.9 L220.4,481.9 L220.4,481.9 L220.4,481.9 L220.4,481.9 L220.4,481.9 L220.4,481.9 L220.4,481.9 L220.4,481.9 L220.4,481.9 L220.4,481.9 L220.4,481.9 L220.4,481.9 L220.4,481.9 L220.4,481.9 L220.4,481.9 L220.4,481.9 L220.4,481.9 L220.4,481.9 L220.4,481.9 L220.4,481.9 L220.4,481.9 L220.4,481.9 L220.4,481.9 L220.4,481.9 L220.4,481.9 L220.4,481.9 L220.4,481.9 L220.4,481.9 L220.4,481.9 L220.4,481.9 L220.4,481.9 L220.4,481.9 L220.4,481.9 L220.4,481.9 L220.4,481.9 L220.4,481.9 L220.4,481.9 L220.4,481.9 L220.4,481.9 L220.4,481.9 L220.4,481.9 L220.4,481.9 L220.4,481.9 L220.4,481.9 L220.4,481.9 L220.4,481.9 L221.5,480.1 L222.8,478.0 L223.9,475.9 L225.2,474.0 L226.7,471.9 L228.1,470.0 L229.6,468.1 L231.0,466.2 L232.6,464.4 L234.2,462.5 L235.9,460.7 L237.5,459.1 L239.4,457.3 L241.2,455.7 L242.9,454.1 L244.8,452.7 L246.7,451.1 L248.7,449.6 L250.6,448.2 L252.5,446.7 L254.5,445.3 L256.4,443.7 L258.2,442.2 L260.0,440.6 L261.9,439.0 L263.6,437.3 L265.3,435.7 L266.9,433.9 L268.5,432.0 L270.1,430.2 L271.6,428.3 L273.0,426.4 L274.5,424.3 L275.8,422.3 L277.1,420.3 L278.2,418.2 L279.4,415.9 L280.4,413.8 L281.4,411.6 L282.4,409.4 L283.3,407.1 L284.2,404.9 L284.9,402.6 L285.5,400.2 L286.2,398.0 L286.6,395.6 L287.2,393.1 L287.6,390.7 L287.9,388.3 L288.4,385.9 L288.7,383.7 L289.1,381.3 L289.5,378.9 L290.1,376.5 L290.7,374.0 L291.3,371.8 L292.0,369.4 L292.7,367.1 L293.6,364.9 L294.4,362.7 L295.5,360.4 L296.5,358.2 L297.6,356.1 L298.8,354.0 L299.9,351.9 L301.3,349.8 L302.6,347.7 L304.0,345.8 L305.5,343.9 L306.9,342.0 L308.5,340.2 L310.1,338.3 L311.8,336.5 L313.6,334.9 L315.3,333.3 L317.0,331.7 L318.9,330.1 L320.9,328.6 L322.8,327.2 L324.9,325.8 L326.9,324.5 L328.9,323.2 L331.1,322.1 L333.1,320.9 L335.3,319.8 L337.6,318.9 L339.8,317.9 L342.1,317.1 L344.3,316.3 L346.6,315.5 L348.9,314.8 L351.4,314.2 L353.7,313.7 L356.0,313.2 L358.5,312.8 L360.8,312.4 L363.2,312.3 L365.7,312.1 L368.0,312.0 L370.5,312.0 L372.9,312.0 L375.4,312.0 L377.7,312.3 L380.2,312.4 L382.6,312.8 L385.0,313.1 L387.3,313.6 L389.7,314.0 L392.1,314.7 L394.4,315.3 L396.7,316.0 L399.0,316.8 L401.3,317.7 L403.5,318.5 L405.7,319.7 L407.8,320.6 L410.0,321.7 L412.2,322.9 L414.2,324.1 L416.2,325.4 L418.3,326.7 L420.3,328.2 L422.2,329.6 L424.1,331.2 L425.9,332.8 L427.7,334.4 L429.4,336.0 L431.2,337.8 L432.7,339.6 L434.3,341.5 L435.9,343.2 L437.4,345.2 L438.8,347.1 L440.1,349.2 L441.4,351.3 L442.7,353.4 L443.9,355.4 L445.1,357.5 L446.1,359.8 L447.1,361.9 L448.1,364.1 L449.0,366.3 L449.7,368.8 L450.6,371.0 L451.1,373.2 L451.9,375.7 L452.3,378.1 L452.9,380.3 L453.2,382.7 L453.6,385.1 L453.9,387.5 L454.0,389.9 L454.2,392.3 L454.3,394.7 L454.3,397.3 L454.2,399.7 L454.0,402.1 L453.9,404.5 L453.6,406.9 L453.3,409.4 L452.9,411.8 L452.4,414.0 L451.9,416.4 L451.3,418.8 L450.6,421.1 L449.8,423.3 L449.0,425.7 L448.1,428.0 L447.2,430.2 L446.2,432.3 L445.2,434.5 L444.0,436.6 L442.9,438.9 L441.6,441.0 L440.3,442.9 L439.0,445.0 L437.5,446.9 L436.1,448.8 L434.5,450.8 L432.9,452.5 L431.3,454.3 L429.7,456.0 L428.0,457.8 L426.1,459.4 L424.3,461.0 L422.5,462.6 L420.6,464.1 L418.6,465.5 L416.7,467.0 L414.6,468.2 L412.6,469.5 L410.4,470.8 L408.3,471.9 L406.1,473.1 L403.9,474.0 L401.8,475.0 L399.6,475.9 L397.3,476.7 L394.9,477.5 L392.6,478.2 L390.3,478.8 L388.0,479.5 L385.5,480.0 L383.2,480.4 L380.9,480.9 L378.4,481.2 L376.0,481.6 L373.7,481.7 L371.2,481.9 L368.7,481.9 L366.4,481.9 L364.0,481.9 L361.5,481.7 L359.2,481.6 L356.7,481.4 L354.3,481.1 L352.4,480.8 L350.3,480.3 L348.3,480.0 L346.4,479.5 L344.4,479.0 L342.5,478.5 L340.5,477.9 L338.6,477.2 L336.7,476.6 L334.8,475.8 L333.0,475.0 L331.1,474.2 L329.3,473.4 L327.5,472.6 L325.7,471.6 L323.8,470.6 L322.1,469.7 L320.4,468.6 L318.8,467.4 L317.0,466.5 L315.4,465.2 L313.7,464.1 L312.1,462.8 L310.5,461.7 L309.1,460.4 L307.5,459.1 L305.9,457.7 L304.4,456.4" fill="none" stroke="#1f77b4" stroke-width="1.7" opacity="0.85"/><circle cx="304" cy="456" r="4.5" fill="#1f77b4"/><rect x="28" y="48" width="13" height="13" fill="#1f77b4"/><text x="46" y="59" font-size="12">5%</text><path d="M220.4,481.9 L220.4,481.9 L220.4,481.9 L220.4,481.9 L220.4,481.9 L220.4,481.9 L220.4,481.9 L220.4,481.9 L220.4,481.9 L220.4,481.9 L220.4,481.9 L220.4,481.9 L220.4,481.9 L220.4,481.9 L220.4,481.9 L220.4,481.9 L220.4,481.9 L220.4,481.9 L220.4,481.9 L220.4,481.9 L220.4,481.9 L220.4,481.9 L220.4,481.9 L220.4,481.9 L220.4,481.9 L220.4,481.9 L220.4,481.9 L220.4,481.9 L220.4,481.9 L220.4,481.9 L220.4,481.9 L220.4,481.9 L220.4,481.9 L220.4,481.9 L220.4,481.9 L220.4,481.9 L220.4,481.9 L220.4,481.9 L220.4,481.9 L220.4,481.9 L220.4,481.9 L220.4,481.9 L220.4,481.9 L220.4,481.9 L220.4,481.9 L220.4,481.9 L220.4,481.9 L220.4,481.9 L220.4,481.9 L220.4,481.9 L220.4,481.9 L220.4,481.9 L220.4,481.9 L220.4,481.9 L220.4,481.9 L220.4,481.9 L220.4,481.9 L220.4,481.9 L221.5,480.1 L222.8,478.0 L223.9,475.9 L225.2,474.0 L226.7,471.9 L228.1,470.0 L229.6,468.1 L231.0,466.2 L232.6,464.4 L234.2,462.5 L235.8,460.7 L237.5,458.9 L239.3,457.3 L241.0,455.7 L242.9,454.0 L244.6,452.4 L246.5,450.9 L248.4,449.3 L250.3,447.9 L252.2,446.3 L254.0,444.7 L255.8,443.2 L257.7,441.4 L259.4,439.8 L261.1,438.1 L262.7,436.5 L264.3,434.5 L265.9,432.8 L267.5,430.9 L269.0,428.9 L270.4,427.0 L271.7,424.9 L273.0,423.0 L274.3,420.9 L275.5,418.8 L276.6,416.6 L277.6,414.5 L278.7,412.2 L279.5,410.0 L280.4,407.7 L281.3,405.5 L282.0,403.1 L282.7,400.8 L283.3,398.4 L283.9,396.0 L284.3,393.8 L284.7,391.4 L285.0,389.0 L285.3,386.6 L285.8,384.2 L286.0,381.8 L286.5,379.3 L287.1,376.9 L287.5,374.7 L288.1,372.3 L288.8,370.0 L289.5,367.6 L290.2,365.4 L291.1,363.1 L292.0,360.9 L293.0,358.6 L294.0,356.4 L295.2,354.3 L296.3,352.1 L297.5,350.0 L298.8,348.1 L300.1,346.0 L301.5,344.0 L303.0,342.0 L304.4,340.2 L306.0,338.3 L307.6,336.5 L309.2,334.7 L311.0,333.0 L312.7,331.4 L314.6,329.8 L316.5,328.2 L318.3,326.7 L320.2,325.1 L322.3,323.8 L324.3,322.4 L326.3,321.1 L328.3,320.0 L330.5,318.9 L332.7,317.7 L334.8,316.6 L337.0,315.6 L339.3,314.7 L341.5,313.9 L343.8,313.1 L346.1,312.3 L348.5,311.6 L350.8,311.1 L353.2,310.5 L355.6,310.0 L357.9,309.7 L360.3,309.4 L362.8,309.1 L365.1,308.9 L367.6,308.7 L370.0,308.7 L372.4,308.7 L374.8,308.7 L377.3,308.9 L379.7,309.2 L382.1,309.5 L384.5,309.9 L386.8,310.2 L389.2,310.7 L391.6,311.3 L393.9,312.0 L396.3,312.6 L398.6,313.4 L400.9,314.2 L403.1,315.0 L405.4,316.0 L407.5,317.1 L409.7,318.0 L411.9,319.2 L413.9,320.5 L415.9,321.6 L418.1,322.9 L420.0,324.3 L422.0,325.8 L423.9,327.2 L425.8,328.6 L427.7,330.2 L429.4,331.8 L431.2,333.6 L432.9,335.4 L434.6,337.1 L436.2,338.9 L437.7,340.7 L439.3,342.6 L440.7,344.5 L442.2,346.6 L443.5,348.5 L444.8,350.6 L445.9,352.7 L447.1,354.8 L448.2,357.0 L449.3,359.1 L450.3,361.4 L451.3,363.6 L452.1,365.9 L452.9,368.1 L453.6,370.5 L454.3,372.8 L454.9,375.2 L455.5,377.4 L455.9,379.8 L456.3,382.2 L456.8,384.6 L457.1,387.0 L457.2,389.5 L457.4,391.9 L457.5,394.3 L457.5,396.7 L457.5,399.1 L457.4,401.5 L457.2,403.9 L456.9,406.3 L456.6,408.7 L456.2,411.1 L455.8,413.5 L455.3,415.9 L454.8,418.3 L454.2,420.6 L453.5,423.0 L452.7,425.2 L451.9,427.5 L451.1,429.7 L450.1,432.0 L449.1,434.2 L448.1,436.5 L447.1,438.6 L445.9,440.8 L444.8,442.9 L443.5,445.0 L442.2,446.9 L440.9,449.0 L439.4,450.9 L438.0,452.8 L436.5,454.8 L434.9,456.7 L433.3,458.5 L431.6,460.2 L430.0,462.0 L428.3,463.6 L426.5,465.4 L424.6,467.0 L422.8,468.4 L420.9,470.0 L419.0,471.5 L417.0,472.7 L414.9,474.2 L412.9,475.5 L410.9,476.7 L408.7,477.9 L406.7,479.0 L404.5,480.1 L402.3,481.2 L400.0,482.2 L397.8,483.2 L395.5,484.0 L393.2,484.8 L391.0,485.6 L388.7,486.2 L386.3,486.9 L383.9,487.5 L381.6,488.0 L379.2,488.3 L376.8,488.8 L374.4,489.1 L372.1,489.4 L369.6,489.6 L367.6,489.7 L365.5,489.7 L363.5,489.7 L361.5,489.7 L359.5,489.7 L357.4,489.6 L355.6,489.4 L353.5,489.3 L351.5,489.1 L349.5,488.8 L347.4,488.5 L345.4,488.1 L343.5,487.8 L341.5,487.3 L339.6,486.9 L337.6,486.4 L335.7,485.9 L333.7,485.3 L331.8,484.6 L329.9,484.0 L328.0,483.2 L326.2,482.5 L324.3,481.7 L322.5,480.8 L320.7,480.0 L318.9,479.0 L317.0,478.0 L315.3,477.1 L313.6,476.1 L311.8,475.0 L310.2,473.9 L308.5,472.7 L306.9,471.6 L305.2,470.5 L303.6,469.2 L302.1,467.9 L300.5,466.6 L298.9,465.4 L297.5,463.9 L296.0,462.6 L294.4,461.3" fill="none" stroke="#17becf" stroke-width="1.7" opacity="0.85"/><circle cx="294" cy="461" r="4.5" fill="#17becf"/><rect x="28" y="68" width="13" height="13" fill="#17becf"/><text x="46" y="79" font-size="12">10%</text><path d="M220.4,481.9 L220.4,481.9 L220.4,481.9 L220.4,481.9 L220.4,481.9 L220.4,481.9 L220.4,481.9 L220.4,481.9 L220.4,481.9 L220.4,481.9 L220.4,481.9 L220.4,481.9 L220.4,481.9 L220.4,481.9 L220.4,481.9 L220.4,481.9 L220.4,481.9 L220.4,481.9 L220.4,481.9 L220.4,481.9 L220.4,481.9 L220.4,481.9 L220.4,481.9 L220.4,481.9 L220.4,481.9 L220.4,481.9 L220.4,481.9 L220.4,481.9 L220.4,481.9 L220.4,481.9 L220.4,481.9 L220.4,481.9 L220.4,481.9 L220.4,481.9 L220.4,481.9 L220.4,481.9 L220.4,481.9 L220.4,481.9 L220.4,481.9 L220.4,481.9 L220.4,481.9 L220.4,481.9 L220.4,481.9 L220.4,481.9 L220.4,481.9 L220.4,481.9 L220.4,481.9 L220.4,481.9 L220.4,481.9 L220.4,481.9 L220.4,481.9 L220.4,481.9 L220.4,481.9 L220.4,481.9 L220.4,481.9 L220.4,481.9 L220.4,481.9 L220.4,481.9 L221.3,480.4 L222.5,478.4 L223.8,476.3 L225.1,474.3 L226.4,472.3 L227.8,470.3 L229.1,468.4 L230.6,466.3 L232.2,464.6 L233.6,462.6 L235.2,460.7 L236.8,458.9 L238.5,457.2 L240.1,455.4 L241.9,453.6 L243.6,452.0 L245.4,450.3 L247.1,448.7 L249.0,447.1 L250.7,445.5 L252.5,443.7 L254.2,442.1 L255.8,440.3 L257.5,438.6 L259.1,436.6 L260.7,434.9 L262.2,432.9 L263.6,431.0 L265.0,429.1 L266.5,427.0 L267.8,425.1 L269.1,423.0 L270.3,420.9 L271.4,418.8 L272.6,416.6 L273.6,414.5 L274.6,412.2 L275.5,410.0 L276.5,407.7 L277.2,405.5 L278.1,403.3 L278.8,400.8 L279.5,398.6 L280.1,396.2 L280.7,393.8 L281.1,391.5 L281.6,389.1 L282.0,386.7 L282.4,384.3 L282.9,381.9 L283.4,379.7 L284.0,377.3 L284.6,374.9 L285.3,372.6 L285.9,370.2 L286.8,368.0 L287.5,365.7 L288.4,363.5 L289.4,361.2 L290.4,359.0 L291.4,356.7 L292.4,354.6 L293.6,352.5 L294.7,350.3 L296.0,348.2 L297.3,346.3 L298.6,344.2 L299.9,342.3 L301.4,340.4 L303.0,338.4 L304.4,336.5 L306.0,334.7 L307.6,332.8 L309.4,331.0 L311.1,329.4 L312.8,327.7 L314.6,326.1 L316.5,324.6 L318.3,323.0 L320.2,321.6 L322.3,320.1 L324.3,318.7 L326.3,317.4 L328.3,316.1 L330.4,315.0 L332.5,313.7 L334.7,312.8 L336.9,311.6 L339.0,310.7 L341.4,309.7 L343.5,308.9 L345.9,307.9 L348.2,307.3 L350.5,306.5 L352.8,305.9 L355.1,305.4 L357.6,304.7 L359.9,304.4 L362.4,303.9 L364.7,303.6 L367.1,303.3 L369.5,303.1 L371.9,303.0 L374.4,302.8 L376.7,302.8 L379.2,302.8 L381.6,302.8 L384.1,303.0 L386.4,303.1 L388.9,303.3 L391.2,303.6 L393.6,304.1 L396.0,304.4 L398.4,304.9 L400.7,305.5 L403.1,306.0 L405.4,306.7 L407.7,307.5 L410.0,308.1 L412.3,308.9 L414.6,309.9 L416.8,310.7 L419.1,311.6 L421.3,312.8 L423.5,313.7 L425.6,314.8 L427.7,316.1 L429.8,317.2 L431.9,318.5 L433.9,319.8 L435.9,321.3 L438.0,322.5 L439.8,324.0 L441.7,325.6 L443.6,327.0 L445.5,328.6 L447.2,330.2 L449.0,332.0 L450.7,333.6 L452.4,335.4 L454.0,337.3 L455.6,339.1 L457.2,340.8 L458.7,342.8 L460.1,344.7 L461.6,346.6 L462.9,348.7 L464.3,350.6 L465.6,352.7 L466.8,354.8 L467.9,356.9 L469.1,359.1 L470.3,361.2 L471.3,363.5 L472.3,365.5 L473.3,367.8 L474.2,370.0 L475.0,372.3 L475.8,374.7 L476.5,376.9 L477.2,379.2 L477.9,381.6 L478.5,384.0 L479.1,386.2 L479.5,388.7 L480.0,391.1 L480.2,393.5 L480.7,395.9 L481.0,398.3 L481.1,400.7 L481.3,403.1 L481.4,405.5 L481.4,407.9 L481.4,410.3 L481.4,412.7 L481.4,415.1 L481.3,417.5 L481.0,419.9 L480.7,422.3 L480.4,424.8 L480.1,427.2 L479.7,429.6 L479.2,432.0 L478.6,434.4 L478.1,436.6 L477.5,439.0 L476.8,441.4 L476.0,443.7 L475.3,445.9 L474.5,448.2 L473.6,450.4 L472.7,452.7 L471.7,454.9 L470.7,457.2 L469.7,459.3 L468.5,461.5 L467.4,463.6 L466.1,465.7 L464.9,467.8 L463.6,469.8 L462.1,471.8 L460.8,473.9 L459.4,475.8 L457.9,477.7 L456.3,479.5 L454.8,481.4 L453.2,483.2 L451.6,484.9 L450.0,486.7 L448.2,488.5 L446.5,490.2 L444.8,491.8 L442.9,493.4 L441.1,495.0 L439.3,496.5 L437.2,498.1 L435.6,499.2 L434.0,500.5 L432.5,501.6 L430.7,502.7 L429.0,503.7 L427.2,504.8 L425.5,505.8 L423.8,506.9 L422.0,507.9 L420.3,508.7 L418.4,509.6 L416.7,510.6 L414.8,511.4 L412.9,512.2 L411.0,513.0 L409.1,513.8 L407.3,514.5 L405.4,515.1 L403.5,515.9 L401.6,516.5 L399.7,517.2 L397.7,517.7 L395.8,518.3 L393.9,518.8 L391.9,519.3 L390.0,519.8 L388.0,520.2 L386.0,520.6 L384.1,521.0 L382.1,521.4 L380.0,521.7 L378.0,522.0 L376.1,522.2 L374.1,522.5 L372.1,522.6 L370.0,522.8 L368.0,523.0 L366.0,523.1 L364.0,523.1 L361.9,523.1 L359.9,523.1 L357.9,523.1 L355.8,523.1 L354.0,523.0 L351.9,523.0 L349.9,522.8 L347.9,522.6 L345.9,522.5 L343.8,522.2 L341.8,522.0 L339.8,521.7 L337.9,521.4 L335.9,521.0 L333.8,520.7 L332.0,520.2 L329.9,519.8 L327.9,519.3 L326.0,518.8 L324.0,518.3 L322.1,517.8 L320.2,517.2 L318.2,516.5 L316.3,515.9 L314.4,515.3 L312.5,514.6 L310.7,514.0 L308.8,513.2" fill="none" stroke="#2ca02c" stroke-width="1.7" opacity="0.85"/><circle cx="309" cy="513" r="4.5" fill="#2ca02c"/><rect x="28" y="88" width="13" height="13" fill="#2ca02c"/><text x="46" y="99" font-size="12">25%</text><path d="M220.4,481.9 L220.4,481.9 L220.4,481.9 L220.4,481.9 L220.4,481.9 L220.4,481.9 L220.4,481.9 L220.4,481.9 L220.4,481.9 L220.4,481.9 L220.4,481.9 L220.4,481.9 L220.4,481.9 L220.4,481.9 L220.4,481.9 L220.4,481.9 L220.4,481.9 L220.4,481.9 L220.4,481.9 L220.4,481.9 L220.4,481.9 L220.4,481.9 L220.4,481.9 L220.4,481.9 L220.4,481.9 L220.4,481.9 L220.4,481.9 L220.4,481.9 L220.4,481.9 L220.4,481.9 L220.4,481.9 L220.4,481.9 L220.4,481.9 L220.4,481.9 L220.4,481.9 L220.4,481.9 L220.4,481.9 L220.4,481.9 L220.4,481.9 L220.4,481.9 L220.4,481.9 L220.4,481.9 L220.4,481.9 L220.4,481.9 L220.4,481.9 L220.4,481.9 L220.4,481.9 L220.4,481.9 L220.4,481.9 L220.4,481.9 L220.4,481.9 L220.4,481.9 L220.4,481.9 L220.4,481.9 L220.4,481.9 L220.4,481.9 L220.4,481.9 L220.4,481.9 L220.4,481.9 L220.6,481.6 L221.9,479.5 L223.1,477.4 L224.4,475.3 L225.7,473.2 L227.0,471.3 L228.4,469.2 L229.7,467.3 L231.2,465.4 L232.6,463.3 L234.1,461.5 L235.7,459.6 L237.1,457.7 L238.7,455.7 L240.3,454.0 L241.7,452.0 L243.5,450.3 L245.1,448.5 L246.7,446.7 L248.3,444.8 L249.8,443.0 L251.4,441.3 L253.0,439.4 L254.5,437.4 L255.9,435.5 L257.4,433.6 L258.7,431.5 L260.0,429.6 L261.3,427.5 L262.6,425.4 L263.7,423.3 L264.9,421.2 L266.1,419.0 L267.1,416.9 L268.2,414.6 L269.1,412.4 L270.1,410.2 L271.0,407.9 L271.9,405.7 L272.7,403.4 L273.4,401.2 L274.2,398.8 L274.8,396.5 L275.5,394.1 L276.1,391.9 L276.6,389.5 L277.1,387.0 L277.6,384.6 L278.2,382.4 L278.8,380.0 L279.5,377.7 L280.3,375.3 L281.0,373.1 L281.7,370.8 L282.6,368.4 L283.4,366.2 L284.5,363.9 L285.3,361.9 L286.3,359.6 L287.5,357.4 L288.7,355.3 L289.8,353.2 L291.0,351.1 L292.3,349.0 L293.6,346.9 L294.9,345.0 L296.2,342.9 L297.6,341.0 L299.1,339.1 L300.7,337.1 L302.1,335.4 L303.7,333.5 L305.3,331.7 L307.0,329.9 L308.8,328.2 L310.4,326.4 L312.3,324.8 L314.0,323.2 L315.9,321.6 L317.6,320.0 L319.6,318.5 L321.5,317.1 L323.4,315.6 L325.4,314.2 L327.5,312.9 L329.5,311.6 L331.5,310.3 L333.7,309.1 L335.7,307.9 L337.9,306.7 L340.1,305.5 L342.2,304.6 L344.4,303.4 L346.6,302.5 L348.9,301.5 L351.1,300.7 L353.4,299.9 L355.7,299.1 L358.0,298.3 L360.3,297.7 L362.7,297.0 L365.0,296.4 L367.3,295.9 L369.7,295.4 L372.1,294.9 L374.4,294.5 L376.8,294.1 L379.3,293.8 L381.6,293.7 L384.1,293.3 L386.5,293.3 L388.9,293.2 L391.3,293.2 L393.8,293.2 L396.1,293.2 L398.6,293.3 L401.0,293.5 L403.5,293.7 L405.8,293.8 L408.3,294.1 L410.6,294.5 L413.0,294.8 L415.4,295.3 L417.8,295.6 L420.1,296.1 L422.6,296.7 L424.9,297.2 L427.2,297.8 L429.6,298.5 L431.9,299.3 L434.2,299.9 L436.5,300.7 L438.8,301.5 L441.0,302.3 L443.3,303.3 L445.5,304.2 L447.7,305.2 L450.0,306.2 L452.1,307.3 L454.3,308.4 L456.3,309.5 L458.5,310.7 L460.5,312.0 L462.7,313.2 L464.7,314.5 L466.8,315.8 L468.8,317.2 L470.7,318.5 L472.7,320.0 L474.6,321.4 L476.5,323.0 L478.4,324.5 L480.2,326.1 L482.1,327.7 L483.9,329.3 L485.6,330.9 L487.3,332.7 L489.1,334.4 L490.7,336.0 L492.4,337.9 L494.0,339.7 L495.6,341.5 L497.0,343.4 L498.6,345.3 L500.1,347.3 L501.5,349.2 L502.8,351.1 L504.3,353.2 L505.6,355.1 L506.9,357.2 L508.2,359.3 L509.4,361.4 L510.5,363.5 L511.7,365.7 L512.8,367.8 L513.8,370.0 L514.9,372.1 L515.9,374.4 L516.9,376.6 L517.7,378.9 L518.6,381.1 L519.5,383.4 L520.2,385.6 L521.1,388.0 L521.8,390.3 L522.4,392.7 L523.1,394.9 L523.7,397.3 L524.3,399.6 L524.7,402.0 L525.3,404.4 L525.7,406.8 L526.0,409.2 L526.4,411.6 L526.7,414.0 L527.0,416.4 L527.3,418.8 L527.5,421.2 L527.7,423.6 L527.9,426.0 L527.9,428.4 L528.0,430.9 L528.0,433.3 L528.0,435.7 L528.0,438.1 L527.9,440.5 L527.7,442.9 L527.6,445.3 L527.5,447.7 L527.2,450.1 L526.9,452.5 L526.6,454.9 L526.3,457.3 L526.0,459.7 L525.6,462.1 L525.1,464.1 L524.8,466.2 L524.4,468.1 L524.0,470.0 L523.5,472.1 L523.1,474.0 L522.5,475.9 L522.1,477.9 L521.5,479.8 L520.9,481.9 L520.4,483.8 L519.8,485.7 L519.1,487.5 L518.5,489.4 L517.7,491.3 L517.0,493.3 L516.3,495.2 L515.6,497.0 L514.7,498.9 L514.0,500.7 L513.1,502.6 L512.2,504.3 L511.4,506.3 L510.5,508.0 L509.6,509.8 L508.8,511.7 L507.9,513.5 L506.9,515.3 L505.9,517.0 L505.0,518.8 L504.0,520.6 L503.0,522.3 L502.0,524.1 L501.0,525.7 L499.8,527.5 L498.8,529.2 L497.6,530.8 L496.6,532.6 L495.4,534.2 L494.3,535.8 L493.0,537.4 L491.8,539.2 L490.7,540.8 L489.4,542.4 L488.2,543.8 L486.9,545.4 L485.6,547.0 L484.3,548.6 L483.0,550.1 L481.7,551.7 L480.4,553.1 L479.1,554.7 L477.6,556.2 L476.3,557.6 L474.9,559.1 L473.6,560.7 L472.1,562.1 L470.7,563.4 L469.2,564.8 L467.8,566.3 L466.3,567.7 L464.9,569.0 L463.4,570.5 L461.9,571.7 L460.4,573.2 L458.8,574.5 L457.4,575.8 L455.8,577.0 L454.3,578.3 L452.7,579.6 L451.1,580.9 L449.5,582.2 L447.9,583.5 L446.4,584.7 L444.8,585.9 L443.2,587.1 L441.4,588.3 L439.8,589.4 L438.2,590.5 L436.5,591.8 L434.9,592.9 L433.2,594.0 L431.4,595.0 L429.8,596.1 L428.1,597.3 L426.4,598.4 L424.6,599.3 L422.9,600.5 L421.2,601.4 L419.4,602.5 L417.7,603.5 L415.9,604.5 L414.2,605.4 L412.5,606.4 L410.6,607.4 L408.8,608.3 L407.1,609.3 L405.2,610.3 L403.5,611.1 L401.6,612.0 L399.9,612.8 L398.0,613.8 L396.3,614.6 L394.4,615.5 L392.6,616.3 L390.7,617.2 L388.9,618.1 L387.1,618.9 L385.2,619.7 L383.4,620.5" fill="none" stroke="#bcbd22" stroke-width="1.7" opacity="0.85"/><circle cx="383" cy="621" r="4.5" fill="#bcbd22"/><rect x="28" y="108" width="13" height="13" fill="#bcbd22"/><text x="46" y="119" font-size="12">50%</text><path d="M220.4,481.9 L220.4,481.9 L220.4,481.9 L220.4,481.9 L220.4,481.9 L220.4,481.9 L220.4,481.9 L220.4,481.9 L220.4,481.9 L220.4,481.9 L220.4,481.9 L220.4,481.9 L220.4,481.9 L220.4,481.9 L220.4,481.9 L220.4,481.9 L220.4,481.9 L220.4,481.9 L220.4,481.9 L220.4,481.9 L220.4,481.9 L220.4,481.9 L220.4,481.9 L220.4,481.9 L220.4,481.9 L220.4,481.9 L220.4,481.9 L220.4,481.9 L220.4,481.9 L220.4,481.9 L220.4,481.9 L220.4,481.9 L220.4,481.9 L220.4,481.9 L220.4,481.9 L220.4,481.9 L220.4,481.9 L220.4,481.9 L220.4,481.9 L220.4,481.9 L220.4,481.9 L220.4,481.9 L220.4,481.9 L220.4,481.9 L220.4,481.9 L220.4,481.9 L220.4,481.9 L220.4,481.9 L220.4,481.9 L220.4,481.9 L220.4,481.9 L220.4,481.9 L220.4,481.9 L220.4,481.9 L220.4,481.9 L220.4,481.9 L220.4,481.9 L220.4,481.9 L221.3,480.4 L222.5,478.4 L223.8,476.3 L224.9,474.2 L226.2,472.3 L227.5,470.2 L228.8,468.1 L230.3,466.2 L231.6,464.1 L232.9,462.1 L234.3,460.1 L235.8,458.1 L237.2,456.2 L238.5,454.3 L240.1,452.4 L241.6,450.4 L243.0,448.5 L244.5,446.6 L245.9,444.7 L247.4,442.7 L248.8,440.8 L250.3,438.7 L251.6,436.8 L253.0,434.7 L254.3,432.8 L255.5,430.7 L256.8,428.6 L258.0,426.5 L259.3,424.4 L260.4,422.2 L261.4,420.1 L262.6,417.9 L263.6,415.8 L264.6,413.5 L265.6,411.3 L266.6,409.2 L267.5,406.9 L268.4,404.7 L269.2,402.3 L270.1,400.0 L270.8,397.8 L271.6,395.4 L272.1,393.1 L272.9,390.7 L273.4,388.5 L274.2,386.1 L274.8,383.8 L275.5,381.4 L276.2,379.2 L277.1,376.9 L277.8,374.5 L278.7,372.3 L279.5,370.0 L280.4,367.8 L281.4,365.5 L282.4,363.5 L283.4,361.2 L284.6,359.1 L285.8,356.9 L286.9,354.8 L288.1,352.7 L289.2,350.6 L290.5,348.5 L291.8,346.5 L293.1,344.5 L294.6,342.4 L295.9,340.5 L297.3,338.6 L298.8,336.7 L300.4,334.7 L301.8,332.8 L303.4,331.0 L305.0,329.1 L306.6,327.4 L308.2,325.6 L309.9,323.8 L311.5,322.1 L313.3,320.3 L315.0,318.7 L316.7,316.9 L318.6,315.3 L320.5,313.9 L322.3,312.3 L324.1,310.7 L326.0,309.2 L328.0,307.8 L329.9,306.3 L332.0,304.9 L333.8,303.4 L335.9,302.0 L337.9,300.7 L339.8,299.3 L341.8,298.0 L344.0,296.7 L346.0,295.4 L348.0,294.1 L350.1,292.9 L352.2,291.7 L354.4,290.6 L356.4,289.3 L358.6,288.2 L360.8,287.1 L362.9,286.0 L365.1,284.8 L367.3,283.9 L369.5,282.7 L371.6,281.8 L373.8,280.8 L376.0,279.7 L378.3,278.9 L380.5,277.9 L382.8,277.0 L385.0,276.2 L387.3,275.2 L389.6,274.4 L391.8,273.6 L394.1,272.8 L396.4,272.2 L398.7,271.4 L401.0,270.7 L403.3,269.9 L405.7,269.3 L408.0,268.6 L410.3,268.0 L412.8,267.3 L415.1,266.9 L417.4,266.2 L419.7,265.7 L422.2,265.3 L424.5,264.6 L426.8,264.1 L429.3,263.7 L431.6,263.3 L434.0,262.8 L436.4,262.5 L438.8,262.2 L441.1,261.9 L443.6,261.6 L446.1,261.2 L448.4,260.9 L450.8,260.8 L453.2,260.6 L455.6,260.3 L458.1,260.1 L460.4,260.0 L462.9,259.8 L465.3,259.8 L467.8,259.6 L470.1,259.6 L472.6,259.5 L475.0,259.5 L477.3,259.5 L479.8,259.5 L482.3,259.5 L484.7,259.5 L487.0,259.5 L489.5,259.5 L492.0,259.6 L494.4,259.6 L496.8,259.8 L499.2,259.8 L501.7,260.0 L504.0,260.1 L506.5,260.3 L508.9,260.4 L511.2,260.6 L513.7,260.8 L516.2,261.1 L518.5,261.4 L520.9,261.6 L523.4,261.9 L525.7,262.2 L528.2,262.5 L530.5,262.8 L533.0,263.3 L535.3,263.7 L537.7,264.1 L540.1,264.5 L542.5,264.9 L544.8,265.4 L547.1,266.1 L549.6,266.5 L551.9,267.0 L554.2,267.7 L556.6,268.3 L558.9,268.9 L561.2,269.6 L563.5,270.2 L566.0,271.0 L568.1,271.7 L570.5,272.5 L572.8,273.1 L575.1,273.9 L577.4,274.7 L579.7,275.5 L582.0,276.3 L584.2,277.1 L586.5,278.1 L588.7,278.9 L591.0,279.9 L593.2,280.8 L595.5,281.6 L597.7,282.6 L599.9,283.7 L602.2,284.7 L604.3,285.6 L606.5,286.8 L608.7,287.7 L610.9,288.8 L613.0,290.0 L615.2,291.1 L617.4,292.2 L619.4,293.3 L621.6,294.5 L623.6,295.7 L625.8,297.0 L627.5,298.0 L629.3,299.0 L631.0,300.1 L632.6,301.0 L634.3,302.2 L636.1,303.3 L637.8,304.4 L639.4,305.4 L641.1,306.5 L642.9,307.6 L644.5,308.9 L646.2,310.0 L647.8,311.1 L649.4,312.3 L651.1,313.6 L652.7,314.7 L654.3,315.8 L655.9,317.1 L657.5,318.2 L659.2,319.5 L660.8,320.8 L662.4,322.1 L663.9,323.2 L665.5,324.5 L667.1,325.8 L668.6,327.2 L670.1,328.5 L671.5,329.8 L673.1,331.2 L674.6,332.5 L676.0,333.8 L677.6,335.2 L679.1,336.7 L680.5,337.9 L682.0,339.4 L683.4,340.8 L684.7,342.3 L686.2,343.7 L687.6,345.2 L689.1,346.6 L690.4,348.1 L691.8,349.5 L693.3,350.9 L694.6,352.4 L696.0,353.8 L697.3,355.4 L698.8,356.9 L700.1,358.3 L701.5,359.8 L702.8,361.4 L704.1,362.8 L705.4,364.4 L706.7,365.9 L708.0,367.5 L709.3,369.1 L710.6,370.5 L711.9,372.1 L713.2,373.7 L714.4,375.3 L715.7,376.9 L716.9,378.5 L718.0,380.1 L719.3,381.8 L720.5,383.4 L721.6,385.0 L722.8,386.7 L724.0,388.3 L725.1,390.1 L726.1,391.7 L727.3,393.3 L728.5,395.1 L729.5,396.8 L730.6,398.4 L731.6,400.2 L732.8,401.8 L733.8,403.6 L735.0,405.2 L736.0,406.9 L737.0,408.7 L738.2,410.5 L739.2,412.1 L740.2,413.8 L741.2,415.6 L742.2,417.4 L743.2,419.1 L744.2,420.9 L745.3,422.7 L746.3,424.4 L747.3,426.2 L748.1,428.0 L749.2,429.7 L750.0,431.5 L751.0,433.3 L751.9,435.0 L752.8,436.8 L753.8,438.7 L754.7,440.5 L755.5,442.2 L756.5,444.0 L757.4,445.9 L758.3,447.7 L759.2,449.5 L760.0,451.4 L760.7,453.2 L761.6,454.9 L762.5,456.8 L763.4,458.6 L764.1,460.5 L764.9,462.3 L765.7,464.2 L766.5,466.2 L767.3,467.9 L768.0,469.8 L768.9,471.8 L769.6,473.5 L770.3,475.5 L771.0,477.4 L771.8,479.2 L772.5,481.1 L773.3,483.0 L774.1,484.8 L774.8,486.7 L775.5,488.6 L776.2,490.4 L777.1,492.3 L777.8,494.2 L778.6,496.0 L779.3,497.9 L780.0,499.9 L780.7,501.8 L781.3,503.5 L782.0,505.5 L782.8,507.4 L783.5,509.3 L784.2,511.2 L784.8,513.2 L785.5,514.9 L786.1,516.9 L786.8,518.8 L787.4,520.7 L788.1,522.6 L788.7,524.6 L789.4,526.5 L790.0,528.4" fill="none" stroke="#ff7f0e" stroke-width="1.7" opacity="0.85"/><circle cx="790" cy="528" r="4.5" fill="#ff7f0e"/><rect x="28" y="128" width="13" height="13" fill="#ff7f0e"/><text x="46" y="139" font-size="12">100%</text><text x="28" y="832" font-size="11" fill="#888">ground track — m from pad (N up)</text></svg>