<svg xmlns="http://www.w3.org/2000/svg" width="840" height="860" font-family="sans-serif" font-size="13"><rect width="840" height="860" fill="white"/><text x="20" y="26" font-size="15" fill="#333">TMS-7 guarded — wind sweep</text><rect x="20" y="40" width="800" height="800" fill="#fbfbfb" stroke="#ddd"/><rect x="187" y="366" width="399" height="86" fill="#cde" stroke="#369" opacity="0.7"/><text x="187" y="361" fill="#369" font-size="12">landing zone</text><circle cx="439" cy="501" r="5" fill="black"/><text x="447" y="505" font-size="12">pad</text><path d="M439.1,500.7 L439.1,500.7 L439.1,500.7 L439.1,500.7 L439.1,500.7 L439.1,500.7 L439.1,500.7 L439.1,500.7 L439.1,500.7 L439.1,500.7 L439.1,500.7 L439.1,500.7 L439.1,500.7 L439.1,500.7 L439.1,500.7 L439.1,500.7 L439.1,500.7 L439.1,500.7 L439.1,500.7 L439.1,500.7 L439.1,500.7 L439.1,500.7 L439.1,500.7 L439.1,500.7 L439.1,500.7 L439.1,500.7 L439.1,500.7 L439.1,500.7 L439.1,500.7 L439.1,500.7 L439.1,500.7 L439.1,500.7 L439.1,500.7 L439.1,500.7 L439.1,500.7 L439.1,500.7 L439.1,500.7 L439.1,500.7 L439.1,500.7 L439.1,500.7 L439.1,500.7 L439.1,500.7 L439.1,500.7 L439.1,500.7 L439.1,500.7 L439.1,500.7 L439.1,500.7 L439.1,500.7 L439.1,500.7 L439.1,500.7 L439.1,500.7 L439.1,500.7 L439.1,500.7 L439.1,500.7 L439.1,500.7 L439.1,500.7 L439.1,500.7 L439.1,500.7 L440.6,498.1 L442.5,495.0 L444.2,491.9 L446.2,489.1 L448.3,486.0 L450.5,483.1 L452.6,480.3 L454.7,477.4 L457.1,474.6 L459.5,472.0 L461.8,469.4 L464.4,466.7 L467.0,464.4 L469.5,461.7 L472.1,459.4 L474.9,457.0 L477.7,454.9 L480.5,452.5 L483.3,450.3 L486.1,448.2 L488.9,445.8 L491.6,443.7 L494.4,441.3 L497.0,438.7 L499.6,436.3 L502.2,433.7 L504.5,431.1 L507.1,428.5 L509.2,425.9 L511.6,423.0 L513.7,420.2 L515.7,417.1 L517.8,414.2 L519.7,411.1 L521.5,408.0 L523.2,404.9 L524.9,401.6 L526.4,398.5 L527.9,395.2 L529.2,391.9 L530.5,388.5 L531.5,385.2 L532.6,381.7 L533.7,378.3 L534.5,374.8 L535.4,371.2 L536.0,367.6 L536.5,364.3 L537.1,360.7 L537.5,357.2 L538.2,353.6 L538.8,350.0 L539.7,346.5 L540.3,342.9 L541.2,339.6 L542.3,336.0 L543.3,332.7 L544.4,329.4 L545.7,325.8 L547.0,322.5 L548.5,319.4 L550.0,316.1 L551.7,312.7 L553.4,309.6 L555.1,306.5 L557.1,303.5 L559.0,300.6 L560.9,297.5 L563.1,294.7 L565.4,291.8 L567.6,289.2 L569.9,286.3 L572.5,283.7 L575.1,281.4 L577.7,278.7 L580.2,276.4 L583.0,274.0 L585.8,271.8 L588.6,269.7 L591.6,267.6 L594.6,265.7 L597.6,263.8 L600.8,261.9 L603.8,260.2 L607.0,258.5 L610.3,257.1 L613.7,255.4 L616.9,254.3 L620.3,252.8 L623.6,251.6 L627.0,250.7 L630.4,249.7 L634.1,248.8 L637.5,248.1 L640.9,247.4 L644.6,246.9 L648.2,246.4 L651.7,245.9 L655.3,245.7 L658.9,245.7 L662.4,245.5 L666.0,245.7 L669.7,245.7 L673.1,245.9 L676.7,246.4 L680.4,246.9 L683.8,247.4 L687.5,248.1 L690.9,248.8 L694.3,249.7 L697.8,250.7 L701.2,251.6 L704.6,252.8 L708.1,254.0 L711.3,255.4 L714.7,256.9 L717.9,258.3 L721.1,260.0 L724.2,261.6 L727.4,263.5 L730.4,265.4 L733.4,267.3 L736.4,269.5 L739.2,271.6 L742.0,273.7 L744.7,276.1 L747.5,278.3 L750.1,280.9 L752.7,283.3 L755.3,285.9 L757.6,288.5 L760.0,291.3 L762.1,294.2 L764.3,297.0 L766.4,299.9 L768.6,302.7 L770.5,305.8 L772.2,308.9 L773.9,312.0 L775.6,315.1 L777.3,318.4 L778.8,321.8 L780.1,325.1 L781.4,328.4 L782.7,331.7 L783.8,335.1 L784.9,338.6 L785.7,342.0 L786.6,345.5 L787.4,349.1 L788.1,352.4 L788.7,356.0 L789.1,359.5 L789.4,363.1 L789.8,366.7 L789.8,370.2 L790.0,373.8 L790.0,377.6 L789.8,381.2 L789.6,384.7 L789.1,388.3 L788.9,391.9 L788.3,395.4 L787.9,399.0 L787.0,402.3 L786.4,405.9 L785.5,409.5 L784.4,412.8 L783.4,416.4 L782.3,419.7 L781.0,423.0 L779.7,426.3 L778.2,429.7 L776.7,433.0 L775.2,436.1 L773.5,439.4 L771.8,442.5 L770.1,445.6 L768.1,448.7 L766.0,451.5 L764.0,454.6 L761.9,457.5 L759.8,460.3 L757.4,462.9 L755.0,465.8 L752.7,468.4 L750.1,471.0 L747.5,473.4 L745.0,476.0 L742.4,478.4 L739.6,480.8 L736.8,482.9 L734.0,485.0 L731.0,487.2 L728.2,489.3 L725.2,491.2 L722.0,493.1 L719.0,495.0 L715.8,496.7 L712.8,498.3 L709.4,500.0 L706.1,501.4 L702.9,502.9 L699.5,504.1 L696.3,505.2 L692.8,506.4 L689.4,507.6 L686.0,508.6 L682.5,509.5 L678.9,510.2 L675.5,510.9 L671.8,511.7 L668.4,512.1 L664.7,512.6 L661.3,512.8 L657.7,513.1 L654.7,513.3 L651.7,513.3 L648.6,513.3 L645.6,513.3 L642.6,513.1 L639.6,513.1 L636.6,512.8 L633.8,512.4 L630.8,512.1 L627.8,511.7 L624.8,511.2 L621.8,510.7 L619.0,510.0 L616.0,509.5 L613.3,508.8 L610.3,507.9 L607.5,507.1 L604.7,506.2 L601.7,505.2 L598.9,504.3 L596.1,503.1 L593.3,502.2 L590.7,501.0 L587.9,499.5 L585.2,498.3 L582.6,496.9 L580.0,495.5 L577.2,494.1 L574.6,492.6 L572.3,491.0 L569.7,489.3 L567.1,487.7 L564.8,486.0 L562.4,484.1 L560.1,482.2 L557.7,480.3 L555.3,478.4 L553.2,476.5 L550.8,474.6 L548.7,472.7 L546.6,470.5" fill="none" stroke="#1f77b4" stroke-width="1.7" opacity="0.85"/><circle cx="547" cy="471" r="4.5" fill="#1f77b4"/><rect x="28" y="48" width="13" height="13" fill="#1f77b4"/><text x="46" y="59" font-size="12">calm</text><path d="M439.1,500.7 L439.1,500.7 L439.1,500.7 L439.1,500.7 L439.1,500.7 L439.1,500.7 L439.1,500.7 L439.1,500.7 L439.1,500.7 L439.1,500.7 L439.1,500.7 L439.1,500.7 L439.1,500.7 L439.1,500.7 L439.1,500.7 L439.1,500.7 L439.1,500.7 L439.1,500.7 L439.1,500.7 L439.1,500.7 L439.1,500.7 L439.1,500.7 L439.1,500.7 L439.1,500.7 L439.1,500.7 L439.1,500.7 L439.1,500.7 L439.1,500.7 L439.1,500.7 L439.1,500.7 L439.1,500.7 L439.1,500.7 L439.1,500.7 L439.1,500.7 L439.1,500.7 L439.1,500.7 L439.1,500.7 L439.1,500.7 L439.1,500.7 L439.1,500.7 L439.1,500.7 L439.1,500.7 L439.1,500.7 L439.1,500.7 L439.1,500.7 L439.1,500.7 L439.1,500.7 L439.1,500.7 L439.1,500.7 L439.1,500.7 L439.1,500.7 L439.1,500.7 L439.1,500.7 L439.1,500.7 L439.1,500.7 L439.1,500.7 L439.1,500.7 L439.1,500.7 L440.4,498.6 L441.7,496.2 L443.2,493.8 L444.9,491.5 L446.4,489.3 L448.1,486.9 L449.8,484.8 L451.7,482.7 L453.7,480.5 L455.6,478.6 L457.8,476.5 L459.9,474.6 L462.0,472.7 L464.2,471.0 L466.3,469.4 L468.7,467.5 L471.0,465.8 L473.4,464.1 L475.8,462.7 L478.3,461.0 L480.7,459.6 L483.3,458.2 L485.8,456.8 L488.4,455.3 L491.0,453.9 L493.6,452.7 L496.1,451.3 L498.7,450.1 L501.3,448.7 L503.9,447.2 L506.2,445.8 L508.8,444.2 L511.2,442.5 L513.5,440.8 L515.7,438.9 L517.8,437.3 L520.0,435.1 L521.9,433.2 L523.8,431.1 L525.7,428.9 L527.5,426.8 L529.2,424.7 L530.9,422.3 L532.4,419.9 L533.9,417.5 L535.2,415.2 L536.5,412.5 L537.8,409.9 L538.8,407.3 L539.9,404.7 L540.8,402.1 L541.6,399.5 L542.3,396.6 L542.9,393.8 L543.5,391.2 L544.0,388.3 L544.2,385.5 L544.4,382.6 L544.6,379.8 L544.6,376.7 L544.4,373.8 L544.4,371.0 L544.0,368.1 L543.8,365.0 L543.3,362.2 L542.9,359.3 L542.5,356.2 L542.0,353.4 L541.8,350.5 L541.6,347.7 L541.6,344.6 L541.6,341.7 L541.6,338.9 L541.8,336.0 L542.3,333.2 L542.5,330.3 L543.1,327.5 L543.5,324.6 L544.4,322.0 L545.0,319.1 L545.9,316.5 L547.0,313.9 L548.1,311.3 L549.1,308.7 L550.4,306.1 L551.9,303.7 L553.2,301.3 L554.9,298.9 L556.4,296.6 L558.1,294.4 L559.8,292.0 L561.8,289.9 L563.7,288.0 L565.6,285.9 L567.8,284.0 L569.9,282.1 L572.3,280.4 L574.4,278.7 L576.8,277.1 L579.4,275.4 L581.7,274.0 L584.3,272.6 L587.1,271.4 L589.7,270.2 L592.5,269.0 L595.2,268.0 L598.0,267.1 L600.8,266.1 L603.8,265.4 L606.6,264.7 L609.6,264.0 L612.6,263.5 L615.6,263.3 L618.8,262.8 L621.8,262.8 L625.1,262.6 L628.1,262.6 L631.3,262.8 L634.5,262.8 L637.7,263.3 L640.9,263.5 L643.9,264.0 L647.1,264.7 L650.4,265.4 L653.6,266.1 L656.8,267.1 L660.0,268.0 L663.2,269.2 L666.5,270.4 L669.5,271.8 L672.7,273.3 L675.7,274.7 L678.9,276.4 L681.9,278.0 L684.9,279.9 L687.9,281.8 L690.7,283.7 L693.7,285.9 L696.5,288.0 L699.5,290.4 L702.3,292.5 L704.8,295.1 L707.6,297.5 L710.2,300.1 L712.8,303.0 L715.4,305.6 L717.7,308.4 L720.3,311.3 L722.4,314.4 L724.8,317.5 L726.9,320.6 L729.1,323.9 L731.2,327.2 L733.2,330.6 L735.1,333.9 L737.0,337.4 L738.7,341.0 L740.5,344.6 L742.0,348.1 L743.5,351.9 L745.0,355.7 L746.2,359.5 L747.5,363.4 L748.6,367.4 L749.7,371.2 L750.5,375.2 L751.6,379.3 L752.2,383.3 L752.9,387.4 L753.5,391.4 L754.2,395.7 L754.6,399.7 L754.8,404.0 L755.0,408.3 L755.3,412.3 L755.3,416.6 L755.3,420.9 L755.0,425.1 L754.8,429.4 L754.4,433.7 L754.0,438.0 L753.5,442.0 L752.9,446.3 L752.0,450.6 L751.4,454.9 L750.3,459.1 L749.5,463.2 L748.2,467.5 L747.1,471.5 L745.8,475.8 L744.3,479.8 L742.8,483.9 L741.3,487.9 L739.6,491.9 L737.9,496.0 L735.9,499.8 L734.0,503.8 L732.1,507.6 L729.9,511.4 L727.8,515.2 L725.4,518.8 L723.1,522.6 L720.7,526.2 L718.1,529.7 L715.6,533.3 L712.8,536.6 L710.2,539.9 L707.4,543.3 L704.4,546.6 L701.4,549.7 L698.4,552.8 L695.4,555.9 L692.2,558.7 L689.0,561.8 L685.8,564.4 L682.5,567.3 L679.8,569.4 L676.7,571.6 L674.0,573.7 L671.2,575.8 L668.2,577.7 L665.2,579.6 L662.2,581.5 L659.2,583.4 L656.2,585.1 L652.9,587.0 L649.9,588.4 L646.7,590.1 L643.5,591.5 L640.5,593.2 L637.3,594.4 L634.1,595.8 L630.8,597.0 L627.6,598.4 L624.4,599.4 L621.0,600.5 L617.8,601.5 L614.5,602.4 L611.3,603.4 L607.9,604.1 L604.7,605.1 L601.2,605.8 L598.0,606.3 L594.6,607.0 L591.4,607.4 L588.2,607.9 L584.7,608.2 L581.5,608.4 L578.3,608.6 L574.9,608.9 L571.6,608.9 L568.4,609.1 L565.2,609.1 L561.8,608.9 L558.6,608.9 L555.3,608.6 L552.1,608.4 L549.1,608.2 L545.9,607.7" fill="none" stroke="#17becf" stroke-width="1.7" opacity="0.85"/><circle cx="546" cy="608" r="4.5" fill="#17becf"/><rect x="28" y="68" width="13" height="13" fill="#17becf"/><text x="46" y="79" font-size="12">3</text><path d="M439.1,500.7 L439.1,500.7 L439.1,500.7 L439.1,500.7 L439.1,500.7 L439.1,500.7 L439.1,500.7 L439.1,500.7 L439.1,500.7 L439.1,500.7 L439.1,500.7 L439.1,500.7 L439.1,500.7 L439.1,500.7 L439.1,500.7 L439.1,500.7 L439.1,500.7 L439.1,500.7 L439.1,500.7 L439.1,500.7 L439.1,500.7 L439.1,500.7 L439.1,500.7 L439.1,500.7 L439.1,500.7 L439.1,500.7 L439.1,500.7 L439.1,500.7 L439.1,500.7 L439.1,500.7 L439.1,500.7 L439.1,500.7 L439.1,500.7 L439.1,500.7 L439.1,500.7 L439.1,500.7 L439.1,500.7 L439.1,500.7 L439.1,500.7 L439.1,500.7 L439.1,500.7 L439.1,500.7 L439.1,500.7 L439.1,500.7 L439.1,500.7 L439.1,500.7 L439.1,500.7 L439.1,500.7 L439.1,500.7 L439.1,500.7 L439.1,500.7 L439.1,500.7 L439.1,500.7 L439.1,500.7 L439.1,500.7 L439.1,500.7 L439.1,500.7 L439.1,500.7 L439.9,499.3 L441.0,497.4 L442.1,495.7 L443.4,494.1 L444.5,492.4 L445.7,490.7 L447.2,489.3 L448.7,487.9 L450.2,486.5 L451.7,485.0 L453.5,483.6 L455.2,482.4 L456.9,481.2 L458.6,480.0 L460.3,478.9 L462.3,477.7 L464.2,476.5 L465.9,475.5 L467.8,474.3 L469.8,473.4 L471.9,472.4 L473.8,471.5 L475.8,470.5 L477.7,469.6 L479.8,468.6 L481.8,467.7 L483.9,466.7 L485.8,466.0 L488.0,465.1 L490.1,464.4 L492.3,463.4 L494.4,462.7 L496.6,462.0 L498.7,461.0 L500.9,460.3 L503.0,459.6 L505.2,458.9 L507.3,458.2 L509.4,457.5 L511.8,457.0 L513.9,456.3 L516.1,455.6 L518.5,454.9 L520.6,454.1 L522.7,453.4 L524.9,453.0 L527.2,452.2 L529.4,451.5 L531.5,450.8 L533.7,449.9 L535.8,449.2 L537.8,448.2 L539.7,447.2 L541.6,446.1 L543.5,445.1 L545.3,443.9 L547.0,442.5 L548.5,441.3 L550.2,439.9 L551.5,438.2 L553.0,436.8 L554.3,435.1 L555.6,433.5 L556.6,431.8 L557.7,430.1 L558.6,428.2 L559.4,426.3 L560.3,424.4 L560.9,422.5 L561.6,420.6 L562.0,418.5 L562.4,416.4 L562.9,414.5 L563.1,412.3 L563.1,410.2 L563.1,408.0 L563.1,405.7 L562.9,403.5 L562.6,401.4 L562.2,399.0 L561.8,396.9 L561.1,394.5 L560.5,392.3 L559.6,390.0 L558.8,387.8 L557.7,385.7 L556.6,383.3 L555.6,381.2 L554.3,378.8 L552.8,376.7 L551.3,374.5 L549.8,372.4 L548.1,370.2 L546.3,368.1 L544.6,366.0 L542.7,363.8 L540.8,361.9 L538.8,359.8 L536.9,357.6 L535.0,355.7 L533.0,353.6 L531.1,351.5 L529.4,349.3 L527.7,347.2 L526.2,345.1 L524.5,342.9 L523.0,340.8 L521.7,338.6 L520.4,336.3 L519.1,334.1 L518.0,332.0 L517.0,329.6 L516.1,327.5 L515.2,325.1 L514.6,322.9 L513.9,320.6 L513.3,318.4 L512.9,316.1 L512.7,313.9 L512.2,311.8 L512.2,309.4 L512.2,307.3 L512.2,305.1 L512.4,303.0 L512.7,300.8 L512.9,298.7 L513.3,296.8 L513.9,294.7 L514.6,292.8 L515.2,290.9 L516.1,289.0 L517.0,287.1 L518.0,285.4 L519.1,283.5 L520.2,281.8 L521.5,280.4 L523.0,278.7 L524.2,277.3 L525.7,275.7 L527.5,274.5 L529.0,273.0 L530.7,271.8 L532.6,270.7 L534.3,269.5 L536.3,268.5 L538.4,267.6 L540.3,266.6 L542.5,265.9 L544.6,265.2 L547.0,264.5 L549.1,264.0 L551.5,263.5 L554.1,263.3 L556.4,262.8 L559.0,262.8 L561.4,262.6 L563.9,262.6 L566.5,262.8 L569.3,263.1 L571.9,263.3 L574.6,263.5 L577.2,264.0 L580.0,264.7 L582.8,265.4 L585.6,266.1 L588.4,267.1 L591.2,268.0 L594.0,269.0 L596.7,270.2 L599.5,271.6 L602.3,273.0 L605.3,274.5 L608.1,276.1 L610.9,277.8 L613.7,279.5 L616.5,281.4 L619.0,283.3 L621.8,285.4 L624.6,287.5 L627.2,289.9 L630.0,292.3 L632.6,294.7 L635.1,297.3 L637.7,299.9 L640.3,302.7 L642.9,305.6 L645.2,308.4 L647.6,311.5 L649.9,314.6 L652.3,317.7 L654.4,321.0 L656.8,324.4 L658.9,327.7 L660.9,331.3 L663.0,334.8 L665.0,338.4 L666.9,342.2 L668.6,346.0 L670.5,349.8 L672.2,353.8 L673.7,357.9 L675.2,361.9 L676.7,366.0 L678.2,370.2 L679.5,374.5 L680.6,378.8 L681.9,383.1 L683.0,387.6 L684.0,392.1 L684.9,396.6 L685.8,401.1 L686.4,405.7 L687.0,410.4 L687.7,414.9 L688.1,419.7 L688.3,424.4 L688.8,428.5 L688.8,432.3 L689.0,436.3 L689.0,440.4 L689.0,444.4 L689.0,448.4 L688.8,452.5 L688.5,456.5 L688.1,460.6 L687.9,464.8 L687.5,468.9 L686.8,472.9 L686.4,477.0 L685.8,481.2 L685.1,485.3 L684.3,489.3 L683.4,493.4 L682.5,497.4 L681.5,501.7 L680.6,505.7 L679.5,509.8 L678.2,513.8 L677.0,517.8 L675.7,521.9 L674.4,525.9 L672.9,529.7 L671.4,533.8 L669.9,537.8 L668.2,541.6 L666.5,545.6 L664.7,549.4 L663.0,553.3 L661.1,557.1 L659.2,560.9 L657.0,564.7 L655.1,568.5 L652.9,572.3 L650.8,575.8 L648.4,579.4 L646.3,583.0 L643.9,586.5 L641.6,590.1 L639.0,593.7 L636.4,597.0 L633.8,600.5 L631.3,603.9 L628.7,607.2 L625.9,610.5 L623.1,613.6 L620.3,616.7 L617.5,619.8 L614.5,622.9 L611.8,626.0 L608.8,628.8 L605.5,631.7 L602.5,634.5" fill="none" stroke="#2ca02c" stroke-width="1.7" opacity="0.85"/><circle cx="603" cy="635" r="4.5" fill="#2ca02c"/><rect x="28" y="88" width="13" height="13" fill="#2ca02c"/><text x="46" y="99" font-size="12">6</text><path d="M439.1,500.7 L439.1,500.7 L439.1,500.7 L439.1,500.7 L439.1,500.7 L439.1,500.7 L439.1,500.7 L439.1,500.7 L439.1,500.7 L439.1,500.7 L439.1,500.7 L439.1,500.7 L439.1,500.7 L439.1,500.7 L439.1,500.7 L439.1,500.7 L439.1,500.7 L439.1,500.7 L439.1,500.7 L439.1,500.7 L439.1,500.7 L439.1,500.7 L439.1,500.7 L439.1,500.7 L439.1,500.7 L439.1,500.7 L439.1,500.7 L439.1,500.7 L439.1,500.7 L439.1,500.7 L439.1,500.7 L439.1,500.7 L439.1,500.7 L439.1,500.7 L439.1,500.7 L439.1,500.7 L439.1,500.7 L439.1,500.7 L439.1,500.7 L439.1,500.7 L439.1,500.7 L439.1,500.7 L439.1,500.7 L439.1,500.7 L439.1,500.7 L439.1,500.7 L439.1,500.7 L439.1,500.7 L439.1,500.7 L439.1,500.7 L439.1,500.7 L439.1,500.7 L439.1,500.7 L439.1,500.7 L439.1,500.7 L439.1,500.7 L439.1,500.7 L439.1,500.7 L439.3,500.2 L439.9,499.3 L440.6,498.1 L441.4,497.2 L442.3,496.2 L443.2,495.3 L444.0,494.3 L445.1,493.4 L446.2,492.6 L447.5,491.9 L448.5,491.2 L449.8,490.5 L451.1,490.0 L452.6,489.3 L453.9,488.8 L455.4,488.4 L456.9,487.9 L458.4,487.7 L459.9,487.2 L461.4,486.7 L462.9,486.5 L464.4,486.0 L466.1,485.8 L467.6,485.3 L469.3,485.0 L470.8,484.8 L472.6,484.6 L474.3,484.3 L475.8,484.1 L477.5,483.9 L479.2,483.6 L480.9,483.4 L482.6,483.4 L484.3,483.1 L486.1,482.9 L487.8,482.9 L489.5,482.7 L491.2,482.4 L492.9,482.2 L494.6,482.2 L496.4,481.9 L498.1,481.7 L499.8,481.7 L501.5,481.5 L503.2,481.2 L504.9,481.2 L506.4,481.0 L508.2,480.8 L509.9,480.8 L511.6,480.5 L513.3,480.3 L515.0,480.0 L516.5,479.8 L518.2,479.6 L519.7,479.1 L521.5,478.9 L523.0,478.6 L524.5,478.1 L526.2,477.9 L527.7,477.4 L529.2,477.2 L530.7,476.7 L532.2,476.2 L533.7,475.8 L535.2,475.3 L536.5,474.8 L538.0,474.3 L539.3,473.9 L540.8,473.2 L542.0,472.7 L543.3,472.0 L544.6,471.5 L545.9,470.8 L547.2,470.1 L548.3,469.4 L549.6,468.6 L550.8,467.9 L551.9,467.2 L553.0,466.5 L554.3,465.8 L555.3,464.8 L556.4,464.1 L557.5,463.2 L558.3,462.5 L559.4,461.5 L560.3,460.6 L561.4,459.6 L562.2,458.7 L563.1,457.7 L563.9,456.8 L564.8,455.8 L565.6,454.9 L566.5,453.9 L567.1,452.7 L568.0,451.8 L568.6,450.6 L569.3,449.6 L569.7,448.4 L570.1,447.2 L570.6,445.8 L570.8,444.6 L571.0,443.2 L571.0,441.8 L571.0,440.6 L571.0,439.2 L570.8,437.5 L570.6,436.1 L570.1,434.7 L569.7,433.0 L569.1,431.6 L568.4,429.9 L567.6,428.5 L566.7,426.8 L565.6,425.1 L564.6,423.7 L563.3,422.1 L562.0,420.4 L560.7,419.0 L559.0,417.3 L557.5,415.9 L555.8,414.2 L554.1,412.8 L552.1,411.1 L550.2,409.7 L548.1,408.3 L545.9,406.8 L543.5,405.4 L541.2,404.0 L538.8,402.6 L536.3,401.4 L533.7,400.0 L530.9,398.8 L528.1,397.6 L525.3,396.4 L522.3,395.4 L519.3,394.2 L516.1,393.3 L512.9,392.3 L509.7,391.4 L506.4,390.7 L503.0,389.7 L499.4,389.0 L495.9,388.3 L492.3,387.8 L488.6,387.4 L484.8,386.9 L481.1,386.4 L477.1,385.9 L473.2,385.7 L469.3,385.5 L465.3,385.5 L461.2,385.5 L456.9,385.5 L452.8,385.5 L448.5,385.7 L444.2,385.9 L439.9,386.2 L435.7,386.6 L431.2,387.1 L426.6,387.6 L422.4,388.3 L417.9,389.0 L413.4,389.7 L408.6,390.7 L404.1,391.6 L399.4,392.6 L394.9,393.8 L390.2,395.0 L385.5,396.4 L380.7,397.8 L376.0,399.2 L371.3,400.9 L366.6,402.6 L361.9,404.5 L357.2,406.4 L352.4,408.3 L347.7,410.4 L343.0,412.5 L338.3,414.7 L333.6,416.8 L328.8,419.0 L324.1,421.3 L319.4,423.5 L314.5,425.6 L309.8,427.8 L305.0,429.9 L300.3,432.0 L295.6,434.2 L290.9,436.3 L286.2,438.2 L281.4,440.4 L276.7,442.3 L272.0,444.2 L267.3,446.1 L262.6,447.7 L257.6,449.6 L252.9,451.3 L248.2,452.7 L243.7,454.1 L239.0,455.6 L234.2,457.0 L229.5,458.4 L224.8,459.6 L220.3,460.8 L215.6,461.7 L211.1,462.7 L206.4,463.6 L201.9,464.6 L197.4,465.3 L192.9,466.0 L188.6,466.5 L184.1,467.0 L179.8,467.5 L175.5,467.7 L171.2,467.9 L166.9,468.2 L163.3,468.2 L159.8,468.2 L156.4,468.2 L153.2,468.2 L149.7,467.9 L146.5,467.9 L143.1,467.7 L139.9,467.2 L136.7,467.0 L133.7,466.5 L130.4,466.3 L127.4,465.8 L124.4,465.1 L121.4,464.6 L118.6,463.9 L115.8,463.4 L112.8,462.7 L110.3,462.0 L107.5,461.0 L104.9,460.3 L102.3,459.6 L99.8,458.7 L97.2,457.7 L94.8,456.8 L92.5,455.8 L90.1,454.9 L88.0,453.7 L85.8,452.7 L83.7,451.5 L81.5,450.6 L79.6,449.4 L77.7,448.2 L75.7,447.0 L73.8,445.8 L72.1,444.6 L70.4,443.4 L68.9,442.0 L67.4,440.8 L65.9,439.6 L64.4,438.2 L63.1,437.0 L61.8,435.6 L60.5,434.4 L59.2,433.0 L58.2,431.8 L57.3,430.4 L56.2,429.2 L55.4,427.8 L54.5,426.3 L53.9,425.1 L53.0,423.7 L52.6,422.5 L51.9,421.1 L51.5,419.9 L51.1,418.7 L50.6,417.3 L50.4,416.1 L50.2,414.9 L50.0,413.7 L50.0,412.5 L50.0,411.4 L50.0,410.2 L50.2,409.0 L50.4,408.0 L50.6,406.8 L50.9,405.9 L51.3,404.9 L51.7,403.8 L52.1,402.8 L52.8,402.1 L53.4,401.1 L54.1,400.2 L54.7,399.5 L55.6,398.8 L56.4,398.1 L57.3,397.3 L58.4,396.9 L59.4,396.1" fill="none" stroke="#bcbd22" stroke-width="1.7" opacity="0.85"/><circle cx="59" cy="396" r="4.5" fill="#bcbd22"/><rect x="28" y="108" width="13" height="13" fill="#bcbd22"/><text x="46" y="119" font-size="12">9</text><path d="M439.1,500.7 L439.1,500.7 L439.1,500.7 L439.1,500.7 L439.1,500.7 L439.1,500.7 L439.1,500.7 L439.1,500.7 L439.1,500.7 L439.1,500.7 L439.1,500.7 L439.1,500.7 L439.1,500.7 L439.1,500.7 L439.1,500.7 L439.1,500.7 L439.1,500.7 L439.1,500.7 L439.1,500.7 L439.1,500.7 L439.1,500.7 L439.1,500.7 L439.1,500.7 L439.1,500.7 L439.1,500.7 L439.1,500.7 L439.1,500.7 L439.1,500.7 L439.1,500.7 L439.1,500.7 L439.1,500.7 L439.1,500.7 L439.1,500.7 L439.1,500.7 L439.1,500.7 L439.1,500.7 L439.1,500.7 L439.1,500.7 L439.1,500.7 L439.1,500.7 L439.1,500.7 L439.1,500.7 L439.1,500.7 L439.1,500.7 L439.1,500.7 L439.1,500.7 L439.1,500.7 L439.1,500.7 L439.1,500.7 L439.1,500.7 L439.1,500.7 L439.1,500.7 L439.1,500.7 L439.1,500.7 L439.1,500.7 L439.1,500.7 L439.1,500.7 L439.1,500.7 L439.3,500.2 L439.5,500.0 L439.9,499.5 L440.4,499.3 L440.8,498.8 L441.4,498.6 L441.9,498.3 L442.7,498.3 L443.4,498.1 L444.2,498.1 L444.9,498.1 L446.0,498.1 L446.8,498.1 L447.7,498.1 L448.7,498.3 L449.8,498.3 L450.9,498.6 L452.0,498.8 L453.0,499.1 L454.1,499.3 L455.4,499.8 L456.5,500.0 L457.8,500.2 L458.8,500.7 L460.1,501.0 L461.4,501.4 L462.7,501.9 L464.0,502.4 L465.0,502.6 L466.3,503.1 L467.6,503.6 L468.9,504.1 L470.2,504.5 L471.5,505.0 L472.8,505.5 L474.1,505.7 L475.3,506.2 L476.6,506.7 L477.9,507.1 L479.2,507.6 L480.5,508.1 L481.8,508.3 L483.1,508.8 L484.1,509.0 L485.4,509.5 L486.7,510.0 L487.8,510.2 L489.1,510.5 L490.1,510.9 L491.4,511.2 L492.5,511.4 L493.8,511.9 L494.9,512.1 L495.9,512.4 L497.0,512.6 L498.3,512.8 L499.4,513.1 L500.4,513.3 L501.5,513.6 L502.6,513.6 L503.4,513.8 L504.5,514.0 L505.6,514.0 L506.4,514.3 L507.5,514.3 L508.4,514.3 L509.4,514.5 L510.3,514.5 L511.2,514.5 L512.2,514.5 L513.1,514.5 L513.9,514.5 L514.8,514.5 L515.7,514.5 L516.5,514.5 L517.2,514.5 L518.0,514.5 L518.9,514.3 L519.5,514.3 L520.4,514.0 L521.0,514.0 L521.7,513.8 L522.3,513.8 L523.2,513.6 L523.8,513.3 L524.5,513.3 L525.1,513.1 L525.7,512.8 L526.4,512.6 L526.8,512.4 L527.5,512.1 L528.1,511.9 L528.5,511.7 L529.2,511.4 L529.6,511.2 L530.2,510.9 L530.7,510.5 L531.1,510.2 L531.5,510.0 L532.0,509.5 L532.4,509.3 L532.8,508.8 L533.3,508.6 L533.7,508.1 L533.9,507.9 L534.3,507.4 L534.8,507.1 L535.0,506.7 L535.4,506.2 L535.6,505.7 L536.0,505.5 L536.3,505.0 L536.5,504.5 L536.9,504.1 L537.1,503.6 L537.3,503.3 L537.5,502.9 L537.8,502.4 L538.0,501.9 L538.2,501.4 L538.4,501.0 L538.6,500.5 L538.8,500.0 L539.0,499.5 L539.3,499.1 L539.3,498.6 L539.5,498.1 L539.7,497.4 L539.9,496.9 L540.1,496.4 L540.1,496.0 L540.3,495.5 L540.5,495.0 L540.5,494.5 L540.8,494.1 L541.0,493.6 L541.2,493.1 L541.2,492.4 L541.4,491.9 L541.6,491.5 L541.8,491.0 L541.8,490.5 L542.0,490.0 L542.3,489.6 L542.5,489.1 L542.5,488.6 L542.7,488.1 L542.9,487.7 L543.1,487.2 L543.3,486.5 L543.3,486.0 L543.5,485.5 L543.8,485.0 L544.0,484.6 L544.2,484.1 L544.4,483.6 L544.6,483.1 L544.8,482.7 L545.0,482.2 L545.3,481.7 L545.5,481.2 L545.5,480.8 L545.7,480.3 L545.9,479.8 L546.1,479.3 L546.3,478.9 L546.6,478.4 L546.8,477.9 L547.0,477.4 L547.2,477.2 L547.4,476.7 L547.6,476.2 L547.8,475.8 L548.1,475.3 L548.3,474.8 L548.5,474.3 L548.9,473.9 L549.1,473.4 L549.3,472.9 L549.6,472.4 L549.8,472.0 L550.0,471.5 L550.2,471.0 L550.4,470.5 L550.6,470.1 L550.8,469.8 L551.3,469.4 L551.5,468.9 L551.7,468.4 L551.9,467.9 L552.1,467.5 L552.3,467.0 L552.8,466.5 L553.0,466.3 L553.2,465.8 L553.4,465.3 L553.8,464.8 L554.1,464.4 L554.3,463.9 L554.5,463.6 L554.9,463.2 L555.1,462.7 L555.3,462.2 L555.6,461.7 L555.8,461.3 L556.2,460.8 L556.4,460.6 L556.6,460.1 L556.8,459.6 L557.1,459.1 L557.5,458.7 L557.7,458.2 L557.9,457.7 L558.1,457.2 L558.3,457.0 L558.8,456.5 L558.8,456.0 L559.0,455.8 L559.2,455.3 L559.4,454.9 L559.6,454.6 L559.8,454.1 L560.1,453.9 L560.3,453.4 L560.5,453.2 L560.7,452.7 L560.9,452.5 L561.1,452.0 L561.4,451.8 L561.6,451.3 L561.8,450.8 L561.8,450.3 L561.8,449.9 L561.8,449.4 L561.8,448.9 L561.6,448.4 L561.4,447.7 L561.1,447.2 L560.9,446.5 L560.5,446.1 L560.1,445.3 L559.4,444.6 L559.0,443.9 L558.1,443.2 L557.5,442.5 L556.6,441.8 L555.8,441.1 L554.9,440.4 L553.8,439.6 L552.8,438.7 L551.7,438.0 L550.4,437.3 L549.1,436.6 L547.8,435.6 L546.3,434.9 L544.8,434.2 L543.3,433.5 L541.8,432.8 L540.1,432.0 L538.4,431.1 L536.5,430.4 L534.5,429.7 L532.6,429.2 L530.7,428.5 L528.5,427.8 L526.6,427.0 L524.2,426.6 L522.1,425.9 L519.7,425.1 L517.4,424.7 L515.0,424.2 L512.4,423.7 L509.9,423.2 L507.3,422.8 L504.7,422.3 L501.9,421.8 L499.1,421.3 L496.4,421.1 L493.6,420.9 L490.6,420.6 L487.6,420.4 L484.6,420.2 L481.6,419.9 L478.3,419.7 L475.1,419.7 L471.9,419.7 L468.7,419.7 L465.5,419.7 L462.0,419.7 L458.6,419.7 L455.2,419.9 L451.7,420.2 L448.3,420.2 L444.9,420.4 L441.2,420.6 L437.8,421.1 L434.2,421.3 L430.5,421.6 L426.9,422.1 L423.2,422.3 L419.6,422.8 L415.9,423.2 L412.3,423.5 L408.6,424.0 L405.0,424.4 L401.1,424.9 L397.5,425.4 L393.8,425.9 L390.2,426.3 L386.3,426.8 L382.7,427.3 L379.0,427.8 L375.4,428.0 L371.7,428.5 L368.1,428.7 L364.7,429.2 L361.0,429.4 L357.4,429.9" fill="none" stroke="#ff7f0e" stroke-width="1.7" opacity="0.85"/><circle cx="357" cy="430" r="4.5" fill="#ff7f0e"/><rect x="28" y="128" width="13" height="13" fill="#ff7f0e"/><text x="46" y="139" font-size="12">12 m/s</text><text x="28" y="832" font-size="11" fill="#888">ground track — m from pad (N up)</text></svg>