<svg xmlns="http://www.w3.org/2000/svg" width="1140" height="600" font-family="sans-serif" font-size="13"><rect width="1140" height="600" fill="white"/><text x="20" y="26" font-size="15" fill="#333">Coludo flight</text><rect x="20" y="40" width="540" height="540" fill="#fbfbfb" stroke="#ddd"/><rect x="50" y="303" width="320" height="69" fill="#cde" stroke="#369" opacity="0.7"/><text x="50" y="298" fill="#369" font-size="12">landing zone</text><circle cx="252" cy="411" r="5" fill="black"/><text x="260" y="415" font-size="12">pad</text><path d="M252.3,411.0 L252.3,411.0 L252.3,411.0 L252.3,411.0 L252.3,411.0 L252.3,411.0 L252.3,411.0 L252.3,411.0 L252.3,411.0 L252.3,411.0 L252.3,411.0 L252.3,411.0 L252.3,411.0 L252.3,411.0 L252.3,411.0 L252.3,411.0 L252.3,411.0 L252.3,411.0 L252.3,411.0 L252.3,411.0 L252.3,411.0 L252.3,411.0 L252.3,411.0 L252.3,411.0 L252.3,411.0 L252.3,411.0 L252.3,411.0 L252.3,411.0 L252.3,411.0 L252.3,411.0 L252.3,411.0 L252.3,411.0 L252.3,411.0 L252.3,411.0 L252.3,411.0 L252.3,411.0 L252.3,411.0 L252.3,411.0 L252.3,411.0 L252.3,411.0 L252.3,411.0 L252.3,411.0 L252.3,411.0 L252.3,411.0 L252.3,411.0 L252.3,411.0 L252.3,411.0 L252.3,411.0 L252.3,411.0 L252.3,411.0 L252.3,411.0 L252.3,411.0 L252.3,411.0 L252.3,411.0 L252.3,411.0 L252.3,411.0 L252.3,411.0 L252.3,411.0 L253.6,408.9 L255.1,406.4 L256.5,403.9 L258.0,401.6 L259.7,399.2 L261.5,396.9 L263.2,394.6 L264.9,392.3 L266.8,390.2 L268.7,387.9 L270.7,386.0 L272.8,383.9 L274.9,381.8 L276.9,379.9 L279.2,378.0 L281.4,376.3 L283.6,374.4 L285.9,372.7 L288.1,371.0 L290.3,369.2 L292.8,367.5 L295.0,365.6 L297.2,363.9 L299.3,362.0 L301.5,360.1 L303.6,358.0 L305.6,356.1 L307.5,354.0 L309.4,351.7 L311.3,349.6 L313.0,347.3 L314.8,345.1 L316.5,342.6 L318.0,340.3 L319.6,337.8 L320.9,335.3 L322.3,332.7 L323.5,330.2 L324.7,327.5 L325.9,324.9 L327.0,322.2 L327.8,319.5 L328.9,316.9 L329.5,314.0 L330.4,311.3 L330.9,308.5 L331.6,305.6 L331.9,302.8 L332.5,299.9 L332.8,297.0 L333.3,294.2 L333.8,291.5 L334.4,288.7 L335.0,285.8 L335.7,282.9 L336.4,280.3 L337.3,277.4 L338.1,274.8 L339.2,272.1 L340.2,269.4 L341.4,266.8 L342.6,264.1 L343.8,261.6 L345.2,259.1 L346.7,256.5 L348.3,254.2 L349.8,251.7 L351.4,249.4 L353.1,247.1 L355.0,244.8 L356.9,242.6 L358.8,240.5 L360.7,238.4 L362.7,236.5 L364.8,234.4 L367.0,232.5 L369.3,230.8 L371.5,228.8 L373.7,227.1 L376.1,225.6 L378.5,224.1 L381.1,222.6 L383.5,221.0 L386.1,219.7 L388.7,218.6 L391.3,217.2 L393.8,216.1 L396.6,215.1 L399.3,214.2 L402.1,213.2 L404.8,212.5 L407.6,211.7 L410.3,211.1 L413.3,210.6 L416.0,210.2 L418.9,209.6 L421.7,209.4 L424.6,209.2 L427.5,209.0 L430.3,209.0 L433.2,209.0 L436.1,209.0 L439.1,209.2 L441.8,209.6 L444.7,210.0 L447.5,210.4 L450.4,210.9 L453.2,211.5 L455.9,212.3 L458.7,213.0 L461.4,213.8 L464.2,214.8 L466.9,215.7 L469.5,216.8 L472.2,218.0 L474.8,219.3 L477.4,220.7 L479.8,222.0 L482.4,223.5 L484.8,225.0 L487.2,226.6 L489.4,228.3 L491.8,230.0 L494.1,231.7 L496.1,233.6 L498.4,235.5 L500.4,237.6 L502.3,239.7 L504.4,241.8 L506.3,243.9 L508.0,246.2 L509.9,248.5 L511.6,250.8 L513.2,253.0 L514.7,255.5 L516.2,258.0 L517.6,260.5 L519.0,262.9 L520.2,265.6 L521.4,268.3 L522.6,270.8 L523.6,273.4 L524.5,276.3 L525.5,278.9 L526.2,281.6 L527.1,284.5 L527.8,287.3 L528.3,290.2 L528.8,292.9 L529.1,295.7 L529.5,298.6 L529.8,301.4 L530.0,304.3 L530.0,307.1 L530.0,310.2 L530.0,313.0 L529.8,315.9 L529.7,318.8 L529.3,321.6 L529.0,324.5 L528.5,327.3 L527.9,330.0 L527.2,332.9 L526.6,335.7 L525.7,338.4 L524.8,341.2 L523.8,343.9 L522.8,346.6 L521.7,349.2 L520.5,351.9 L519.3,354.4 L518.0,357.1 L516.6,359.5 L515.0,362.0 L513.7,364.5 L511.9,366.8 L510.4,369.1 L508.5,371.3 L506.8,373.6 L504.9,375.9 L503.0,378.0 L500.9,380.1 L498.9,382.0 L496.8,384.1 L494.8,386.0 L492.5,387.7 L490.3,389.6 L487.9,391.3 L485.6,392.9 L483.2,394.6 L480.7,396.1 L478.3,397.4 L475.7,398.8 L473.1,400.1 L470.5,401.4 L467.9,402.6 L465.4,403.7 L462.6,404.7 L459.9,405.6 L457.1,406.6 L454.4,407.3 L451.6,408.1 L448.9,408.7 L445.9,409.2 L443.2,409.6 L440.3,410.2 L437.5,410.4 L434.6,410.8 L431.7,410.8 L428.9,411.0 L426.0,411.0 L423.1,411.0 L420.1,410.8 L417.4,410.6 L414.5,410.2 L411.7,409.8 L409.3,409.4 L406.9,409.1 L404.5,408.5 L402.3,407.9 L399.9,407.3 L397.6,406.8 L395.4,406.0 L393.0,405.2 L390.7,404.5 L388.5,403.7 L386.3,402.8 L384.0,401.8 L382.0,400.9 L379.7,399.9 L377.7,398.8 L375.4,397.6 L373.4,396.5 L371.3,395.3 L369.3,394.0 L367.4,392.7 L365.3,391.3 L363.4,390.0 L361.5,388.5 L359.6,387.0 L357.7,385.4 L355.8,383.9 L354.0,382.4 L352.2,380.9" fill="none" stroke="#1f77b4" stroke-width="1.7" opacity="0.85"/><circle cx="352" cy="381" r="4.5" fill="#1f77b4"/><text x="28" y="572" font-size="11" fill="#888">ground track — m from pad (N up)</text><rect x="580" y="40" width="540" height="540" fill="#fbfbfb" stroke="#ddd"/><text x="586" y="54" fill="#1f77b4" font-size="11">alt 287</text><text x="586" y="558" fill="#1f77b4" font-size="11">2</text><path d="M616.0,543.7 L616.3,543.6 L616.5,544.0 L616.8,543.5 L617.1,543.8 L617.3,543.4 L617.6,543.6 L617.9,543.6 L618.1,543.1 L618.4,543.2 L618.7,542.8 L619.0,542.8 L619.2,542.6 L619.5,542.3 L619.8,542.1 L620.0,541.8 L620.3,541.4 L620.6,541.4 L620.8,540.8 L621.1,541.0 L621.4,540.5 L621.6,539.9 L621.9,539.7 L622.2,539.1 L622.4,538.8 L622.7,539.0 L623.0,538.3 L623.2,538.3 L623.5,537.1 L623.8,537.4 L624.1,537.0 L624.3,536.6 L624.6,535.3 L624.9,534.6 L625.1,535.0 L625.4,534.4 L625.7,533.6 L625.9,533.1 L626.2,532.3 L626.5,532.4 L626.7,531.3 L627.0,530.3 L627.3,529.0 L627.5,529.2 L627.8,528.6 L628.1,527.7 L628.4,527.4 L628.6,525.8 L628.9,525.0 L629.2,524.8 L629.4,525.0 L629.7,523.3 L630.0,521.5 L630.2,521.4 L630.5,520.8 L630.8,519.3 L631.0,520.0 L631.3,518.0 L631.6,515.9 L631.8,517.3 L632.1,514.2 L632.4,513.1 L632.6,513.2 L632.9,511.9 L633.2,513.5 L633.5,512.6 L633.7,509.5 L634.0,507.7 L634.3,509.2 L634.5,508.1 L634.8,506.0 L635.1,506.0 L635.3,503.6 L635.6,504.5 L635.9,499.1 L636.1,501.1 L636.4,501.3 L636.7,498.2 L636.9,498.5 L637.2,495.3 L637.5,493.1 L637.7,493.6 L638.0,493.9 L638.3,490.3 L638.6,486.9 L638.8,488.6 L639.1,484.2 L639.4,482.0 L639.6,483.1 L639.9,484.9 L640.2,482.6 L640.4,482.4 L640.7,476.4 L641.0,478.7 L641.2,475.2 L641.5,477.6 L641.8,469.8 L642.0,468.9 L642.3,469.2 L642.6,469.0 L642.9,470.1 L643.1,467.8 L643.4,460.3 L643.7,458.3 L643.9,459.7 L644.2,456.6 L644.5,453.2 L644.7,454.3 L645.0,450.3 L645.3,451.0 L645.5,449.5 L645.8,448.5 L646.1,452.5 L646.3,445.8 L646.6,440.8 L646.9,443.6 L647.1,439.4 L647.4,434.3 L647.7,442.4 L648.0,433.5 L648.2,434.3 L648.5,426.8 L648.8,435.5 L649.0,427.4 L649.3,429.6 L649.6,423.4 L649.8,417.4 L650.1,416.5 L650.4,419.6 L650.6,422.4 L650.9,419.1 L651.2,414.1 L651.4,407.3 L651.7,407.6 L652.0,401.7 L652.2,402.6 L652.5,401.5 L652.8,407.9 L653.1,401.1 L653.3,396.5 L653.6,389.9 L653.9,392.3 L654.1,389.8 L654.4,389.3 L654.7,387.0 L654.9,387.2 L655.2,377.0 L655.5,376.8 L655.7,383.8 L656.0,374.1 L656.3,383.4 L656.5,371.7 L656.8,367.3 L657.1,360.8 L657.3,358.2 L657.6,359.9 L657.9,356.6 L658.2,353.7 L658.4,359.5 L658.7,358.3 L659.0,359.9 L659.2,343.7 L659.5,344.8 L659.8,340.0 L660.0,340.3 L660.3,340.7 L660.6,348.2 L660.8,334.8 L661.1,344.3 L661.4,343.3 L661.6,334.9 L661.9,338.3 L662.2,322.8 L662.5,332.6 L662.7,331.5 L663.0,321.6 L663.3,306.6 L663.5,317.5 L663.8,308.0 L664.1,315.3 L664.3,304.1 L664.6,300.5 L664.9,312.4 L665.1,298.4 L665.4,309.4 L665.7,304.1 L665.9,287.7 L666.2,279.0 L666.5,285.2 L666.7,294.2 L667.0,275.1 L667.3,295.9 L667.6,272.0 L667.8,275.6 L668.1,286.0 L668.4,278.6 L668.6,276.9 L668.9,268.6 L669.2,257.9 L669.4,275.3 L669.7,262.7 L670.0,261.3 L670.2,265.2 L670.5,246.1 L670.8,241.9 L671.0,248.2 L671.3,253.3 L671.6,252.6 L671.8,242.6 L672.1,246.7 L672.4,251.8 L672.7,256.1 L672.9,238.8 L673.2,226.6 L673.5,230.2 L673.7,232.3 L674.0,225.0 L674.3,236.4 L674.5,220.1 L674.8,227.1 L675.1,238.6 L675.3,213.7 L675.6,219.1 L675.9,222.9 L676.1,220.8 L676.4,200.0 L676.7,221.8 L677.0,200.6 L677.2,225.1 L677.5,222.6 L677.8,194.1 L678.0,204.8 L678.3,212.0 L678.6,209.9 L678.8,182.4 L679.1,190.3 L679.4,194.6 L679.6,190.6 L679.9,180.0 L680.2,208.1 L680.4,192.9 L680.7,193.9 L681.0,184.3 L681.2,170.7 L681.5,186.0 L681.8,197.2 L682.1,180.3 L682.3,173.9 L682.6,169.5 L682.9,186.0 L683.1,153.5 L683.4,183.6 L683.7,169.6 L683.9,151.2 L684.2,177.5 L684.5,146.3 L684.7,148.6 L685.0,161.5 L685.3,171.6 L685.5,142.1 L685.8,155.0 L686.1,152.7 L686.3,148.8 L686.6,138.6 L686.9,144.8 L687.2,148.1 L687.4,133.3 L687.7,134.7 L688.0,137.0 L688.2,157.0 L688.5,132.2 L688.8,133.1 L689.0,145.3 L689.3,143.6 L689.6,115.7 L689.8,146.3 L690.1,140.5 L690.4,124.1 L690.6,110.0 L690.9,112.0 L691.2,136.1 L691.4,132.1 L691.7,128.4 L692.0,138.8 L692.3,118.4 L692.5,135.3 L692.8,133.7 L693.1,104.9 L693.3,125.8 L693.6,100.4 L693.9,116.2 L694.1,126.2 L694.4,114.2 L694.7,90.7 L694.9,130.0 L695.2,94.0 L695.5,113.1 L695.7,85.3 L696.0,114.5 L696.3,98.6 L696.6,103.3 L696.8,123.0 L697.1,89.2 L697.4,92.9 L697.6,77.0 L697.9,76.1 L698.2,83.5 L698.4,115.1 L698.7,112.7 L699.0,85.7 L699.2,93.9 L699.5,89.1 L699.8,111.6 L700.0,96.0 L700.3,106.8 L700.6,86.6 L700.8,86.6 L701.1,96.2 L701.4,104.3 L701.7,90.2 L701.9,82.1 L702.2,90.4 L702.5,113.3 L702.7,86.4 L703.0,104.4 L703.3,102.6 L703.5,76.0 L703.8,87.5 L704.1,113.3 L704.3,100.8 L704.6,89.0 L704.9,105.2 L705.1,94.7 L705.4,107.3 L705.7,117.2 L705.9,99.3 L706.2,94.8 L706.5,99.3 L706.8,101.1 L707.0,83.6 L707.3,106.3 L707.6,111.2 L707.8,90.1 L708.1,101.2 L708.4,79.5 L708.6,81.8 L708.9,93.2 L709.2,86.6 L709.4,83.6 L709.7,96.4 L710.0,112.9 L710.2,82.8 L710.5,114.3 L710.8,88.7 L711.0,109.4 L711.3,104.4 L711.6,112.8 L711.9,115.6 L712.1,114.2 L712.4,85.4 L712.7,88.4 L712.9,89.9 L713.2,82.0 L713.5,88.3 L713.7,108.8 L714.0,100.3 L714.3,90.0 L714.5,118.7 L714.8,119.1 L715.1,88.9 L715.3,106.5 L715.6,110.7 L715.9,114.3 L716.2,80.2 L716.4,119.5 L716.7,100.8 L717.0,111.4 L717.2,102.6 L717.5,111.5 L717.8,87.0 L718.0,88.6 L718.3,110.4 L718.6,105.1 L718.8,110.9 L719.1,104.3 L719.4,105.3 L719.6,101.6 L719.9,86.0 L720.2,111.0 L720.4,107.0 L720.7,117.4 L721.0,83.7 L721.3,118.4 L721.5,112.1 L721.8,112.6 L722.1,97.9 L722.3,112.1 L722.6,85.2 L722.9,114.6 L723.1,99.3 L723.4,80.1 L723.7,120.3 L723.9,97.4 L724.2,110.2 L724.5,101.5 L724.7,106.6 L725.0,109.8 L725.3,124.2 L725.5,91.8 L725.8,122.4 L726.1,111.5 L726.4,100.7 L726.6,113.6 L726.9,81.1 L727.2,108.5 L727.4,103.0 L727.7,94.4 L728.0,98.5 L728.2,125.0 L728.5,120.2 L728.8,108.4 L729.0,121.3 L729.3,99.2 L729.6,88.0 L729.8,108.7 L730.1,109.6 L730.4,109.7 L730.7,95.2 L730.9,99.4 L731.2,88.0 L731.5,88.0 L731.7,88.8 L732.0,103.5 L732.3,113.7 L732.5,85.6 L732.8,88.6 L733.1,105.8 L733.3,94.0 L733.6,96.8 L733.9,95.5 L734.1,93.9 L734.4,110.6 L734.7,102.2 L734.9,125.3 L735.2,99.8 L735.5,106.1 L735.8,123.5 L736.0,123.0 L736.3,96.1 L736.6,128.2 L736.8,119.9 L737.1,103.8 L737.4,85.3 L737.6,86.2 L737.9,122.6 L738.2,120.8 L738.4,123.4 L738.7,128.5 L739.0,121.7 L739.2,97.0 L739.5,104.9 L739.8,113.5 L740.0,117.0 L740.3,97.3 L740.6,114.0 L740.9,121.9 L741.1,117.8 L741.4,113.8 L741.7,110.6 L741.9,93.6 L742.2,125.8 L742.5,99.9 L742.7,97.7 L743.0,97.0 L743.3,113.0 L743.5,126.3 L743.8,97.6 L744.1,132.1 L744.3,113.8 L744.6,120.8 L744.9,122.0 L745.1,125.6 L745.4,103.0 L745.7,111.2 L746.0,104.0 L746.2,105.9 L746.5,102.2 L746.8,99.9 L747.0,99.9 L747.3,120.4 L747.6,125.0 L747.8,101.1 L748.1,94.1 L748.4,112.1 L748.6,113.4 L748.9,132.8 L749.2,109.5 L749.4,132.7 L749.7,99.1 L750.0,116.2 L750.3,123.3 L750.5,93.4 L750.8,117.9 L751.1,104.9 L751.3,93.9 L751.6,107.4 L751.9,118.9 L752.1,108.7 L752.4,132.6 L752.7,134.6 L752.9,113.9 L753.2,112.9 L753.5,100.8 L753.7,101.0 L754.0,105.0 L754.3,124.0 L754.5,98.9 L754.8,119.9 L755.1,131.0 L755.4,106.8 L755.6,134.0 L755.9,119.9 L756.2,135.6 L756.4,134.6 L756.7,110.5 L757.0,130.6 L757.2,105.5 L757.5,131.7 L757.8,118.2 L758.0,123.0 L758.3,129.6 L758.6,129.0 L758.8,102.5 L759.1,127.4 L759.4,126.7 L759.6,123.0 L759.9,102.9 L760.2,115.1 L760.5,108.0 L760.7,128.3 L761.0,138.2 L761.3,122.1 L761.5,115.0 L761.8,132.7 L762.1,135.4 L762.3,124.1 L762.6,102.2 L762.9,139.9 L763.1,105.0 L763.4,114.0 L763.7,101.9 L763.9,124.9 L764.2,108.9 L764.5,136.3 L764.8,127.3 L765.0,127.3 L765.3,107.6 L765.6,133.1 L765.8,117.0 L766.1,143.7 L766.4,116.2 L766.6,118.1 L766.9,137.3 L767.2,105.9 L767.4,108.6 L767.7,134.9 L768.0,120.8 L768.2,140.9 L768.5,124.8 L768.8,139.5 L769.0,119.0 L769.3,133.4 L769.6,120.8 L769.9,106.4 L770.1,138.2 L770.4,140.7 L770.7,146.2 L770.9,134.6 L771.2,107.9 L771.5,130.9 L771.7,137.4 L772.0,122.6 L772.3,133.8 L772.5,118.7 L772.8,134.8 L773.1,145.9 L773.3,134.0 L773.6,121.9 L773.9,150.4 L774.1,144.1 L774.4,111.3 L774.7,115.5 L775.0,145.9 L775.2,135.1 L775.5,130.9 L775.8,118.2 L776.0,137.8 L776.3,137.2 L776.6,135.2 L776.8,140.4 L777.1,127.7 L777.4,130.8 L777.6,153.1 L777.9,134.8 L778.2,140.7 L778.4,129.5 L778.7,133.6 L779.0,113.9 L779.2,119.2 L779.5,147.1 L779.8,152.0 L780.1,119.9 L780.3,117.7 L780.6,123.3 L780.9,135.3 L781.1,153.1 L781.4,117.9 L781.7,153.8 L781.9,119.5 L782.2,117.1 L782.5,153.8 L782.7,130.2 L783.0,119.7 L783.3,150.0 L783.5,121.3 L783.8,151.7 L784.1,135.1 L784.4,124.1 L784.6,139.6 L784.9,126.3 L785.2,151.8 L785.4,126.6 L785.7,126.5 L786.0,138.5 L786.2,125.4 L786.5,130.4 L786.8,150.6 L787.0,159.6 L787.3,148.4 L787.6,152.5 L787.8,159.3 L788.1,142.1 L788.4,137.3 L788.6,147.4 L788.9,152.5 L789.2,140.5 L789.5,127.2 L789.7,146.5 L790.0,140.4 L790.3,140.8 L790.5,147.3 L790.8,124.8 L791.1,153.1 L791.3,142.2 L791.6,135.6 L791.9,130.7 L792.1,155.5 L792.4,134.6 L792.7,161.2 L792.9,148.9 L793.2,161.9 L793.5,159.7 L793.7,134.2 L794.0,128.1 L794.3,157.0 L794.6,163.5 L794.8,163.8 L795.1,146.5 L795.4,155.5 L795.6,131.1 L795.9,149.6 L796.2,137.5 L796.4,140.3 L796.7,138.4 L797.0,159.5 L797.2,136.7 L797.5,136.2 L797.8,154.2 L798.0,156.5 L798.3,167.1 L798.6,168.6 L798.9,144.9 L799.1,135.0 L799.4,144.7 L799.7,131.9 L799.9,147.5 L800.2,167.5 L800.5,145.5 L800.7,143.5 L801.0,160.5 L801.3,166.8 L801.5,153.1 L801.8,168.3 L802.1,139.7 L802.3,135.8 L802.6,165.7 L802.9,155.4 L803.1,170.7 L803.4,163.7 L803.7,150.2 L804.0,161.8 L804.2,148.5 L804.5,174.8 L804.8,139.8 L805.0,137.2 L805.3,172.4 L805.6,161.5 L805.8,157.6 L806.1,154.4 L806.4,144.9 L806.6,143.5 L806.9,175.3 L807.2,175.9 L807.4,148.7 L807.7,171.0 L808.0,141.7 L808.2,163.1 L808.5,170.4 L808.8,148.1 L809.1,170.1 L809.3,176.1 L809.6,146.3 L809.9,171.8 L810.1,149.2 L810.4,178.7 L810.7,160.8 L810.9,174.7 L811.2,175.5 L811.5,146.8 L811.7,167.1 L812.0,177.6 L812.3,165.3 L812.5,180.9 L812.8,144.6 L813.1,171.4 L813.3,163.8 L813.6,173.1 L813.9,179.1 L814.2,173.5 L814.4,157.2 L814.7,173.6 L815.0,151.4 L815.2,179.1 L815.5,166.6 L815.8,162.9 L816.0,169.2 L816.3,169.4 L816.6,173.9 L816.8,157.9 L817.1,173.2 L817.4,159.4 L817.6,167.4 L817.9,171.0 L818.2,170.1 L818.5,158.0 L818.7,154.1 L819.0,185.6 L819.3,167.6 L819.5,168.3 L819.8,160.0 L820.1,157.0 L820.3,174.4 L820.6,159.7 L820.9,172.9 L821.1,189.1 L821.4,175.7 L821.7,156.8 L821.9,165.2 L822.2,191.0 L822.5,181.7 L822.7,155.1 L823.0,185.8 L823.3,157.5 L823.6,192.0 L823.8,180.5 L824.1,160.0 L824.4,187.5 L824.6,179.7 L824.9,177.8 L825.2,162.7 L825.4,166.0 L825.7,165.3 L826.0,188.1 L826.2,175.3 L826.5,171.0 L826.8,174.0 L827.0,165.5 L827.3,195.2 L827.6,164.1 L827.8,195.8 L828.1,170.2 L828.4,166.4 L828.7,170.7 L828.9,172.8 L829.2,163.9 L829.5,168.4 L829.7,191.6 L830.0,194.2 L830.3,164.2 L830.5,167.2 L830.8,186.6 L831.1,170.1 L831.3,197.1 L831.6,189.7 L831.9,174.1 L832.1,195.4 L832.4,184.4 L832.7,171.5 L833.0,191.0 L833.2,198.2 L833.5,194.5 L833.8,179.4 L834.0,201.1 L834.3,195.3 L834.6,168.5 L834.8,173.5 L835.1,174.8 L835.4,196.7 L835.6,175.8 L835.9,190.3 L836.2,180.7 L836.4,190.6 L836.7,181.7 L837.0,175.1 L837.2,177.2 L837.5,183.1 L837.8,201.7 L838.1,194.3 L838.3,191.2 L838.6,188.2 L838.9,200.1 L839.1,185.0 L839.4,206.3 L839.7,196.3 L839.9,206.6 L840.2,183.5 L840.5,201.6 L840.7,179.7 L841.0,204.4 L841.3,195.4 L841.5,205.3 L841.8,182.6 L842.1,210.2 L842.3,212.3 L842.6,194.1 L842.9,211.3 L843.2,192.2 L843.4,190.9 L843.7,206.1 L844.0,183.3 L844.2,182.4 L844.5,189.2 L844.8,202.5 L845.0,195.4 L845.3,181.7 L845.6,207.0 L845.8,183.7 L846.1,216.2 L846.4,195.5 L846.6,193.0 L846.9,185.6 L847.2,209.0 L847.4,199.4 L847.7,193.2 L848.0,214.7 L848.3,216.2 L848.5,203.5 L848.8,216.3 L849.1,188.5 L849.3,192.2 L849.6,214.3 L849.9,199.3 L850.1,216.9 L850.4,200.0 L850.7,200.7 L850.9,204.5 L851.2,205.9 L851.5,210.6 L851.7,212.7 L852.0,201.7 L852.3,198.0 L852.6,203.7 L852.8,199.8 L853.1,213.8 L853.4,199.9 L853.6,215.3 L853.9,216.3 L854.2,211.1 L854.4,213.0 L854.7,224.0 L855.0,195.8 L855.2,208.1 L855.5,217.1 L855.8,214.2 L856.0,195.9 L856.3,203.8 L856.6,212.8 L856.8,202.8 L857.1,221.4 L857.4,222.4 L857.7,219.5 L857.9,223.5 L858.2,203.2 L858.5,222.4 L858.7,221.0 L859.0,225.5 L859.3,216.2 L859.5,214.1 L859.8,216.6 L860.1,204.8 L860.3,231.3 L860.6,199.9 L860.9,222.1 L861.1,227.9 L861.4,222.8 L861.7,213.7 L861.9,226.3 L862.2,207.2 L862.5,235.1 L862.8,211.0 L863.0,228.9 L863.3,209.6 L863.6,229.3 L863.8,230.8 L864.1,236.5 L864.4,232.4 L864.6,237.4 L864.9,227.3 L865.2,208.7 L865.4,221.5 L865.7,221.4 L866.0,211.4 L866.2,224.2 L866.5,231.7 L866.8,231.9 L867.0,232.3 L867.3,212.4 L867.6,224.2 L867.9,233.9 L868.1,241.3 L868.4,231.6 L868.7,239.2 L868.9,218.4 L869.2,238.3 L869.5,237.6 L869.7,212.0 L870.0,219.6 L870.3,234.6 L870.5,215.3 L870.8,230.3 L871.1,231.5 L871.3,218.8 L871.6,229.6 L871.9,236.3 L872.2,246.3 L872.4,231.6 L872.7,224.7 L873.0,217.0 L873.2,243.9 L873.5,233.0 L873.8,218.0 L874.0,248.6 L874.3,234.1 L874.6,229.0 L874.8,236.2 L875.1,240.0 L875.4,223.1 L875.6,245.5 L875.9,235.5 L876.2,221.4 L876.4,246.4 L876.7,241.2 L877.0,250.6 L877.3,234.3 L877.5,251.9 L877.8,244.0 L878.1,232.2 L878.3,248.8 L878.6,252.4 L878.9,241.5 L879.1,229.2 L879.4,237.4 L879.7,235.9 L879.9,239.7 L880.2,228.9 L880.5,231.5 L880.7,247.8 L881.0,255.9 L881.3,256.9 L881.5,235.6 L881.8,233.9 L882.1,239.2 L882.4,245.9 L882.6,243.8 L882.9,243.7 L883.2,258.9 L883.4,244.8 L883.7,250.0 L884.0,246.7 L884.2,246.4 L884.5,255.3 L884.8,257.5 L885.0,246.3 L885.3,262.1 L885.6,236.0 L885.8,247.6 L886.1,243.2 L886.4,255.4 L886.7,247.9 L886.9,261.5 L887.2,258.0 L887.5,243.9 L887.7,236.2 L888.0,244.2 L888.3,264.0 L888.5,238.3 L888.8,257.7 L889.1,247.3 L889.3,258.0 L889.6,238.9 L889.9,265.4 L890.1,258.6 L890.4,254.5 L890.7,242.7 L890.9,250.3 L891.2,254.7 L891.5,243.0 L891.8,255.8 L892.0,267.5 L892.3,263.2 L892.6,252.9 L892.8,256.6 L893.1,251.2 L893.4,261.8 L893.6,253.9 L893.9,266.9 L894.2,265.3 L894.4,266.1 L894.7,248.7 L895.0,270.0 L895.2,247.0 L895.5,257.4 L895.8,264.6 L896.0,264.6 L896.3,276.3 L896.6,255.0 L896.9,263.2 L897.1,254.8 L897.4,265.0 L897.7,264.1 L897.9,250.5 L898.2,257.4 L898.5,262.4 L898.7,279.5 L899.0,252.9 L899.3,274.2 L899.5,277.7 L899.8,254.6 L900.1,254.4 L900.3,264.4 L900.6,273.4 L900.9,278.4 L901.1,262.8 L901.4,259.9 L901.7,257.5 L902.0,283.6 L902.2,264.0 L902.5,270.9 L902.8,264.5 L903.0,283.3 L903.3,258.3 L903.6,282.0 L903.8,270.4 L904.1,262.8 L904.4,276.1 L904.6,281.8 L904.9,285.9 L905.2,284.0 L905.4,276.0 L905.7,279.3 L906.0,268.8 L906.3,271.7 L906.5,284.3 L906.8,280.1 L907.1,269.8 L907.3,272.6 L907.6,284.2 L907.9,273.3 L908.1,266.2 L908.4,290.2 L908.7,277.6 L908.9,288.3 L909.2,275.1 L909.5,285.5 L909.7,285.0 L910.0,274.7 L910.3,275.6 L910.5,279.7 L910.8,281.1 L911.1,291.6 L911.4,275.6 L911.6,294.5 L911.9,275.8 L912.2,293.6 L912.4,273.2 L912.7,275.4 L913.0,280.4 L913.2,282.2 L913.5,275.1 L913.8,275.0 L914.0,291.5 L914.3,295.5 L914.6,274.5 L914.8,292.2 L915.1,281.4 L915.4,294.6 L915.6,298.0 L915.9,282.1 L916.2,292.3 L916.5,286.7 L916.7,293.1 L917.0,277.5 L917.3,279.4 L917.5,293.4 L917.8,280.6 L918.1,297.2 L918.3,298.4 L918.6,281.0 L918.9,300.7 L919.1,294.4 L919.4,284.7 L919.7,298.2 L919.9,283.0 L920.2,289.0 L920.5,303.1 L920.8,289.4 L921.0,291.1 L921.3,285.8 L921.6,300.3 L921.8,298.2 L922.1,290.6 L922.4,298.0 L922.6,292.0 L922.9,287.7 L923.2,302.7 L923.4,287.8 L923.7,295.9 L924.0,308.2 L924.2,293.7 L924.5,290.9 L924.8,311.4 L925.0,304.3 L925.3,295.1 L925.6,297.1 L925.9,304.8 L926.1,301.6 L926.4,302.7 L926.7,304.6 L926.9,297.7 L927.2,295.3 L927.5,294.6 L927.7,294.8 L928.0,309.1 L928.3,309.7 L928.5,316.2 L928.8,297.9 L929.1,313.1 L929.3,300.4 L929.6,299.4 L929.9,301.6 L930.1,319.1 L930.4,300.4 L930.7,303.9 L931.0,313.9 L931.2,298.8 L931.5,321.6 L931.8,312.0 L932.0,305.5 L932.3,300.9 L932.6,313.7 L932.8,301.4 L933.1,306.1 L933.4,311.2 L933.6,323.5 L933.9,324.6 L934.2,315.2 L934.4,323.8 L934.7,325.0 L935.0,325.9 L935.2,316.9 L935.5,316.2 L935.8,317.2 L936.1,320.5 L936.3,318.6 L936.6,320.4 L936.9,310.4 L937.1,324.7 L937.4,307.8 L937.7,327.1 L937.9,317.6 L938.2,327.7 L938.5,315.3 L938.7,313.4 L939.0,313.3 L939.3,331.6 L939.5,329.3 L939.8,330.1 L940.1,325.9 L940.4,329.5 L940.6,318.6 L940.9,332.5 L941.2,317.6 L941.4,325.9 L941.7,318.6 L942.0,333.0 L942.2,335.0 L942.5,321.2 L942.8,327.2 L943.0,335.0 L943.3,338.6 L943.6,319.7 L943.8,337.0 L944.1,332.0 L944.4,331.4 L944.6,333.8 L944.9,332.5 L945.2,326.8 L945.5,339.6 L945.7,326.5 L946.0,340.8 L946.3,330.0 L946.5,324.3 L946.8,327.2 L947.1,328.4 L947.3,336.6 L947.6,335.6 L947.9,333.6 L948.1,328.9 L948.4,329.6 L948.7,329.7 L948.9,341.0 L949.2,334.5 L949.5,340.5 L949.7,326.9 L950.0,330.6 L950.3,345.5 L950.6,330.0 L950.8,333.3 L951.1,334.2 L951.4,339.6 L951.6,347.9 L951.9,331.6 L952.2,343.6 L952.4,349.2 L952.7,341.7 L953.0,347.0 L953.2,350.7 L953.5,347.3 L953.8,341.1 L954.0,342.4 L954.3,333.8 L954.6,348.4 L954.9,344.7 L955.1,355.1 L955.4,337.7 L955.7,346.0 L955.9,354.7 L956.2,351.2 L956.5,353.6 L956.7,357.3 L957.0,348.9 L957.3,343.4 L957.5,356.0 L957.8,341.5 L958.1,340.8 L958.3,350.2 L958.6,343.2 L958.9,352.1 L959.1,360.8 L959.4,348.3 L959.7,361.2 L960.0,356.7 L960.2,347.7 L960.5,360.6 L960.8,349.5 L961.0,362.9 L961.3,349.1 L961.6,363.2 L961.8,362.3 L962.1,346.0 L962.4,352.9 L962.6,360.7 L962.9,347.5 L963.2,362.1 L963.4,358.2 L963.7,351.6 L964.0,355.4 L964.2,349.7 L964.5,367.2 L964.8,364.0 L965.1,355.2 L965.3,368.2 L965.6,361.3 L965.9,356.2 L966.1,366.6 L966.4,370.4 L966.7,358.5 L966.9,366.6 L967.2,367.3 L967.5,363.2 L967.7,366.5 L968.0,365.6 L968.3,371.6 L968.5,372.6 L968.8,368.5 L969.1,371.3 L969.3,374.4 L969.6,369.4 L969.9,365.5 L970.2,360.7 L970.4,371.6 L970.7,375.9 L971.0,372.4 L971.2,373.2 L971.5,378.0 L971.8,377.2 L972.0,362.5 L972.3,371.3 L972.6,378.8 L972.8,368.5 L973.1,373.6 L973.4,376.5 L973.6,365.6 L973.9,375.1 L974.2,376.3 L974.5,373.5 L974.7,367.3 L975.0,370.5 L975.3,372.2 L975.5,376.9 L975.8,380.7 L976.1,371.7 L976.3,385.0 L976.6,369.8 L976.9,383.6 L977.1,374.0 L977.4,380.5 L977.7,376.2 L977.9,375.8 L978.2,378.8 L978.5,373.7 L978.7,387.2 L979.0,385.3 L979.3,384.9 L979.6,384.1 L979.8,376.8 L980.1,383.7 L980.4,382.4 L980.6,375.7 L980.9,377.9 L981.2,385.2 L981.4,380.9 L981.7,382.8 L982.0,380.5 L982.2,378.7 L982.5,380.6 L982.8,378.4 L983.0,390.9 L983.3,393.1 L983.6,394.4 L983.8,381.7 L984.1,390.0 L984.4,381.0 L984.7,384.7 L984.9,392.7 L985.2,382.2 L985.5,384.3 L985.7,387.1 L986.0,398.5 L986.3,390.9 L986.5,395.6 L986.8,394.3 L987.1,398.5 L987.3,398.6 L987.6,395.0 L987.9,399.7 L988.1,400.9 L988.4,398.5 L988.7,387.7 L989.0,388.7 L989.2,393.5 L989.5,389.5 L989.8,397.5 L990.0,391.9 L990.3,392.6 L990.6,392.3 L990.8,402.2 L991.1,403.0 L991.4,393.5 L991.6,393.5 L991.9,407.2 L992.2,407.1 L992.4,402.6 L992.7,401.8 L993.0,397.1 L993.2,403.3 L993.5,405.2 L993.8,398.4 L994.1,397.0 L994.3,408.5 L994.6,397.3 L994.9,401.0 L995.1,398.5 L995.4,411.7 L995.7,401.9 L995.9,409.9 L996.2,403.2 L996.5,413.9 L996.7,412.7 L997.0,401.9 L997.3,409.0 L997.5,411.8 L997.8,413.9 L998.1,412.4 L998.3,409.2 L998.6,415.7 L998.9,410.8 L999.2,417.3 L999.4,408.0 L999.7,413.0 L1000.0,406.0 L1000.2,418.6 L1000.5,413.1 L1000.8,410.2 L1001.0,411.2 L1001.3,415.9 L1001.6,409.3 L1001.8,412.4 L1002.1,412.6 L1002.4,410.8 L1002.6,417.2 L1002.9,420.5 L1003.2,416.8 L1003.4,412.8 L1003.7,413.4 L1004.0,415.7 L1004.3,417.8 L1004.5,425.6 L1004.8,414.6 L1005.1,424.4 L1005.3,422.2 L1005.6,422.5 L1005.9,423.8 L1006.1,425.6 L1006.4,422.0 L1006.7,426.0 L1006.9,426.8 L1007.2,420.7 L1007.5,417.6 L1007.7,424.1 L1008.0,420.8 L1008.3,421.4 L1008.6,429.2 L1008.8,429.1 L1009.1,425.6 L1009.4,424.7 L1009.6,423.5 L1009.9,428.1 L1010.2,425.7 L1010.4,426.7 L1010.7,429.4 L1011.0,428.4 L1011.2,429.4 L1011.5,431.1 L1011.8,427.1 L1012.0,424.9 L1012.3,428.6 L1012.6,428.4 L1012.8,426.9 L1013.1,429.4 L1013.4,433.0 L1013.7,431.5 L1013.9,439.2 L1014.2,429.4 L1014.5,438.6 L1014.7,437.8 L1015.0,432.9 L1015.3,430.1 L1015.5,430.8 L1015.8,433.7 L1016.1,436.9 L1016.3,436.2 L1016.6,434.1 L1016.9,441.6 L1017.1,440.7 L1017.4,444.0 L1017.7,438.5 L1017.9,444.8 L1018.2,435.9 L1018.5,438.3 L1018.8,445.1 L1019.0,439.1 L1019.3,445.8 L1019.6,442.2 L1019.8,442.2 L1020.1,438.3 L1020.4,446.1 L1020.6,439.6 L1020.9,443.4 L1021.2,439.8 L1021.4,440.9 L1021.7,441.1 L1022.0,447.5 L1022.2,450.3 L1022.5,443.2 L1022.8,447.1 L1023.0,450.0 L1023.3,446.5 L1023.6,447.3 L1023.9,450.5 L1024.1,449.3 L1024.4,448.6 L1024.7,448.3 L1024.9,450.7 L1025.2,454.0 L1025.5,454.4 L1025.7,453.8 L1026.0,455.1 L1026.3,453.2 L1026.5,453.0 L1026.8,457.6 L1027.1,456.3 L1027.3,454.6 L1027.6,451.4 L1027.9,454.3 L1028.2,457.8 L1028.4,451.5 L1028.7,454.8 L1029.0,454.7 L1029.2,453.5 L1029.5,453.7 L1029.8,462.1 L1030.0,454.5 L1030.3,462.2 L1030.6,459.8 L1030.8,458.5 L1031.1,457.7 L1031.4,457.5 L1031.6,457.7 L1031.9,465.1 L1032.2,465.8 L1032.4,461.0 L1032.7,459.2 L1033.0,464.3 L1033.3,466.6 L1033.5,463.9 L1033.8,462.5 L1034.1,468.2 L1034.3,467.5 L1034.6,469.4 L1034.9,462.2 L1035.1,466.3 L1035.4,466.1 L1035.7,470.1 L1035.9,468.4 L1036.2,464.6 L1036.5,464.8 L1036.7,470.0 L1037.0,468.1 L1037.3,471.6 L1037.5,471.1 L1037.8,471.4 L1038.1,474.9 L1038.4,474.0 L1038.6,474.7 L1038.9,472.0 L1039.2,474.1 L1039.4,473.6 L1039.7,474.3 L1040.0,474.0 L1040.2,474.4 L1040.5,476.2 L1040.8,476.3 L1041.0,475.7 L1041.3,477.6 L1041.6,474.9 L1041.8,477.0 L1042.1,480.8 L1042.4,479.5 L1042.7,479.9 L1042.9,476.8 L1043.2,479.7 L1043.5,482.7 L1043.7,478.0 L1044.0,483.0 L1044.3,483.2 L1044.5,482.6 L1044.8,479.9 L1045.1,479.0 L1045.3,483.2 L1045.6,482.1 L1045.9,480.3 L1046.1,483.2 L1046.4,485.0 L1046.7,485.5 L1046.9,483.4 L1047.2,483.9 L1047.5,483.7 L1047.8,486.1 L1048.0,485.8 L1048.3,487.1 L1048.6,487.8 L1048.8,489.8 L1049.1,489.9 L1049.4,487.1 L1049.6,486.8 L1049.9,491.4 L1050.2,488.5 L1050.4,490.1 L1050.7,493.2 L1051.0,491.1 L1051.2,490.5 L1051.5,493.6 L1051.8,491.0 L1052.0,492.6 L1052.3,495.2 L1052.6,494.2 L1052.9,494.7 L1053.1,494.3 L1053.4,493.9 L1053.7,496.3 L1053.9,498.5 L1054.2,497.3 L1054.5,497.1 L1054.7,497.4 L1055.0,498.5 L1055.3,496.8 L1055.5,500.5 L1055.8,500.0 L1056.1,501.7 L1056.3,498.1 L1056.6,501.4 L1056.9,500.7 L1057.1,500.1 L1057.4,500.3 L1057.7,503.6 L1058.0,503.2 L1058.2,505.0 L1058.5,501.4 L1058.8,501.5 L1059.0,505.6 L1059.3,506.4 L1059.6,505.7 L1059.8,506.9 L1060.1,507.7 L1060.4,506.0 L1060.6,508.7 L1060.9,507.3 L1061.2,509.3 L1061.4,508.1 L1061.7,509.8 L1062.0,510.2 L1062.3,509.2 L1062.5,508.4 L1062.8,511.4 L1063.1,509.7 L1063.3,509.4 L1063.6,511.0 L1063.9,512.5 L1064.1,511.3 L1064.4,512.1 L1064.7,514.6 L1064.9,512.6 L1065.2,515.1 L1065.5,514.7 L1065.7,514.0 L1066.0,514.8 L1066.3,515.7 L1066.5,515.7 L1066.8,516.5 L1067.1,516.9 L1067.4,516.9 L1067.6,518.2 L1067.9,517.5 L1068.2,519.7 L1068.4,517.7 L1068.7,520.7 L1069.0,520.2 L1069.2,519.8 L1069.5,519.4 L1069.8,521.9 L1070.0,521.4 L1070.3,521.6 L1070.6,521.3 L1070.8,522.7 L1071.1,522.3 L1071.4,523.9 L1071.6,524.7 L1071.9,524.8 L1072.2,524.0 L1072.5,526.2 L1072.7,525.2 L1073.0,526.2 L1073.3,527.7 L1073.5,527.5 L1073.8,527.1 L1074.1,527.8 L1074.3,527.6 L1074.6,529.1 L1074.9,528.5 L1075.1,530.3 L1075.4,529.1 L1075.7,531.1 L1075.9,531.1 L1076.2,531.0 L1076.5,531.9 L1076.8,532.6 L1077.0,532.1 L1077.3,533.5 L1077.6,532.8 L1077.8,533.1 L1078.1,533.6 L1078.4,535.1 L1078.6,534.6 L1078.9,535.1 L1079.2,536.2 L1079.4,536.2 L1079.7,536.4 L1080.0,536.9 L1080.2,537.1 L1080.5,538.3 L1080.8,538.3 L1081.0,538.9 L1081.3,539.4 L1081.6,539.8 L1081.9,540.5 L1082.1,540.9 L1082.4,541.2 L1082.7,541.2 L1082.9,541.5 L1083.2,542.4 L1083.5,542.8 L1083.7,542.9 L1084.0,543.3" fill="none" stroke="#1f77b4" stroke-width="1.4" opacity="0.85"/><text x="1040" y="54" fill="#ff7f0e" font-size="11">roll 17</text><text x="1090" y="558" fill="#ff7f0e" font-size="11">-17</text><path d="M616.0,310.7 L616.3,310.7 L616.5,310.7 L616.8,310.7 L617.1,310.7 L617.3,310.7 L617.6,310.7 L617.9,310.7 L618.1,310.7 L618.4,310.7 L618.7,310.7 L619.0,310.7 L619.2,310.7 L619.5,310.7 L619.8,310.7 L620.0,310.7 L620.3,310.7 L620.6,310.7 L620.8,310.7 L621.1,310.7 L621.4,310.7 L621.6,310.7 L621.9,310.7 L622.2,310.7 L622.4,310.7 L622.7,310.7 L623.0,310.7 L623.2,310.7 L623.5,310.7 L623.8,310.7 L624.1,310.7 L624.3,310.7 L624.6,310.7 L624.9,310.7 L625.1,310.7 L625.4,310.7 L625.7,310.7 L625.9,310.7 L626.2,310.7 L626.5,310.7 L626.7,310.7 L627.0,310.7 L627.3,310.7 L627.5,310.7 L627.8,310.7 L628.1,310.7 L628.4,310.7 L628.6,310.7 L628.9,310.7 L629.2,310.7 L629.4,310.7 L629.7,310.7 L630.0,310.7 L630.2,310.7 L630.5,310.7 L630.8,310.7 L631.0,310.7 L631.3,310.7 L631.6,310.7 L631.8,310.7 L632.1,310.7 L632.4,310.7 L632.6,310.7 L632.9,310.7 L633.2,310.7 L633.5,310.7 L633.7,310.7 L634.0,312.0 L634.3,310.7 L634.5,310.7 L634.8,310.7 L635.1,312.0 L635.3,310.7 L635.6,310.7 L635.9,310.7 L636.1,310.7 L636.4,310.7 L636.7,310.7 L636.9,310.7 L637.2,310.7 L637.5,310.7 L637.7,310.7 L638.0,312.0 L638.3,310.7 L638.6,310.7 L638.8,310.7 L639.1,310.7 L639.4,310.7 L639.6,312.0 L639.9,310.7 L640.2,310.7 L640.4,310.7 L640.7,312.0 L641.0,312.0 L641.2,312.0 L641.5,312.0 L641.8,310.7 L642.0,312.0 L642.3,310.7 L642.6,310.7 L642.9,310.7 L643.1,312.0 L643.4,310.7 L643.7,310.7 L643.9,310.7 L644.2,312.0 L644.5,310.7 L644.7,310.7 L645.0,310.7 L645.3,312.0 L645.5,312.0 L645.8,312.0 L646.1,310.7 L646.3,310.7 L646.6,310.7 L646.9,310.7 L647.1,310.7 L647.4,312.0 L647.7,310.7 L648.0,312.0 L648.2,312.0 L648.5,312.0 L648.8,310.7 L649.0,312.0 L649.3,310.7 L649.6,310.7 L649.8,310.7 L650.1,310.7 L650.4,310.7 L650.6,312.0 L650.9,310.7 L651.2,310.7 L651.4,310.7 L651.7,310.7 L652.0,312.0 L652.2,310.7 L652.5,310.7 L652.8,312.0 L653.1,310.7 L653.3,310.7 L653.6,310.7 L653.9,310.7 L654.1,310.7 L654.4,312.0 L654.7,310.7 L654.9,312.0 L655.2,310.7 L655.5,312.0 L655.7,312.0 L656.0,310.7 L656.3,312.0 L656.5,310.7 L656.8,310.7 L657.1,312.0 L657.3,310.7 L657.6,312.0 L657.9,312.0 L658.2,312.0 L658.4,310.7 L658.7,312.0 L659.0,312.0 L659.2,310.7 L659.5,310.7 L659.8,312.0 L660.0,310.7 L660.3,310.7 L660.6,310.7 L660.8,312.0 L661.1,312.0 L661.4,312.0 L661.6,312.0 L661.9,310.7 L662.2,310.7 L662.5,312.0 L662.7,312.0 L663.0,310.7 L663.3,310.7 L663.5,312.0 L663.8,310.7 L664.1,312.0 L664.3,310.7 L664.6,312.0 L664.9,312.0 L665.1,310.7 L665.4,310.7 L665.7,312.0 L665.9,310.7 L666.2,312.0 L666.5,312.0 L666.7,310.7 L667.0,310.7 L667.3,312.0 L667.6,312.0 L667.8,312.0 L668.1,312.0 L668.4,310.7 L668.6,312.0 L668.9,312.0 L669.2,312.0 L669.4,312.0 L669.7,312.0 L670.0,312.0 L670.2,312.0 L670.5,310.7 L670.8,312.0 L671.0,310.7 L671.3,312.0 L671.6,312.0 L671.8,310.7 L672.1,310.7 L672.4,312.0 L672.7,310.7 L672.9,312.0 L673.2,312.0 L673.5,310.7 L673.7,312.0 L674.0,310.7 L674.3,312.0 L674.5,312.0 L674.8,310.7 L675.1,310.7 L675.3,310.7 L675.6,310.7 L675.9,310.7 L676.1,310.7 L676.4,310.7 L676.7,310.7 L677.0,310.7 L677.2,310.7 L677.5,310.7 L677.8,310.7 L678.0,312.0 L678.3,310.7 L678.6,310.7 L678.8,310.7 L679.1,312.0 L679.4,310.7 L679.6,312.0 L679.9,310.7 L680.2,312.0 L680.4,310.7 L680.7,310.7 L681.0,310.7 L681.2,310.7 L681.5,310.7 L681.8,310.7 L682.1,310.7 L682.3,310.7 L682.6,310.7 L682.9,310.7 L683.1,310.7 L683.4,310.7 L683.7,310.7 L683.9,310.7 L684.2,310.7 L684.5,310.7 L684.7,310.7 L685.0,310.7 L685.3,310.7 L685.5,310.7 L685.8,310.7 L686.1,310.7 L686.3,310.7 L686.6,310.7 L686.9,310.7 L687.2,310.7 L687.4,310.7 L687.7,310.7 L688.0,310.7 L688.2,310.7 L688.5,312.0 L688.8,310.7 L689.0,310.7 L689.3,310.7 L689.6,310.7 L689.8,310.7 L690.1,310.7 L690.4,310.7 L690.6,310.7 L690.9,310.7 L691.2,312.0 L691.4,310.7 L691.7,312.0 L692.0,310.7 L692.3,310.7 L692.5,310.7 L692.8,310.7 L693.1,310.7 L693.3,312.0 L693.6,310.7 L693.9,310.7 L694.1,312.0 L694.4,310.7 L694.7,310.7 L694.9,310.7 L695.2,310.7 L695.5,310.7 L695.7,310.7 L696.0,310.7 L696.3,310.7 L696.6,312.0 L696.8,310.7 L697.1,310.7 L697.4,310.7 L697.6,310.7 L697.9,310.7 L698.2,310.7 L698.4,302.6 L698.7,291.8 L699.0,278.3 L699.2,266.2 L699.5,255.4 L699.8,243.2 L700.0,237.8 L700.3,221.7 L700.6,221.7 L700.8,210.9 L701.1,194.7 L701.4,192.0 L701.7,189.3 L701.9,178.5 L702.2,170.4 L702.5,173.1 L702.7,154.2 L703.0,159.6 L703.3,159.6 L703.5,155.6 L703.8,150.2 L704.1,146.1 L704.3,138.0 L704.6,129.9 L704.9,128.6 L705.1,120.5 L705.4,136.7 L705.7,124.6 L705.9,125.9 L706.2,113.8 L706.5,121.9 L706.8,107.0 L707.0,120.5 L707.3,117.8 L707.6,112.4 L707.8,105.7 L708.1,116.5 L708.4,101.6 L708.6,111.1 L708.9,93.5 L709.2,116.5 L709.4,111.1 L709.7,105.7 L710.0,98.9 L710.2,112.4 L710.5,105.7 L710.8,86.8 L711.0,92.2 L711.3,98.9 L711.6,105.7 L711.9,101.6 L712.1,88.1 L712.4,96.2 L712.7,105.7 L712.9,103.0 L713.2,90.8 L713.5,98.9 L713.7,96.2 L714.0,105.7 L714.3,98.9 L714.5,93.5 L714.8,104.3 L715.1,101.6 L715.3,89.5 L715.6,93.5 L715.9,93.5 L716.2,89.5 L716.4,97.6 L716.7,94.9 L717.0,107.0 L717.2,101.6 L717.5,108.4 L717.8,124.6 L718.0,104.3 L718.3,119.2 L718.6,101.6 L718.8,136.7 L719.1,124.6 L719.4,138.0 L719.6,132.6 L719.9,125.9 L720.2,143.4 L720.4,143.4 L720.7,154.2 L721.0,158.3 L721.3,150.2 L721.5,155.6 L721.8,161.0 L722.1,156.9 L722.3,143.4 L722.6,144.8 L722.9,140.7 L723.1,156.9 L723.4,154.2 L723.7,144.8 L723.9,170.4 L724.2,165.0 L724.5,167.7 L724.7,161.0 L725.0,169.1 L725.3,156.9 L725.5,170.4 L725.8,152.9 L726.1,183.9 L726.4,173.1 L726.6,161.0 L726.9,165.0 L727.2,152.9 L727.4,169.1 L727.7,187.9 L728.0,206.8 L728.2,232.4 L728.5,241.9 L728.8,259.4 L729.0,278.3 L729.3,290.4 L729.6,306.6 L729.8,318.8 L730.1,332.3 L730.4,344.4 L730.7,356.5 L730.9,367.3 L731.2,380.8 L731.5,387.6 L731.7,406.4 L732.0,407.8 L732.3,421.3 L732.5,425.3 L732.8,430.7 L733.1,434.8 L733.3,444.2 L733.6,457.7 L733.9,460.4 L734.1,464.4 L734.4,459.0 L734.7,472.5 L734.9,482.0 L735.2,473.9 L735.5,491.4 L735.8,487.4 L736.0,498.1 L736.3,482.0 L736.6,500.8 L736.8,492.7 L737.1,502.2 L737.4,499.5 L737.6,508.9 L737.9,504.9 L738.2,499.5 L738.4,511.6 L738.7,518.4 L739.0,519.7 L739.2,508.9 L739.5,511.6 L739.8,522.4 L740.0,518.4 L740.3,525.1 L740.6,511.6 L740.9,519.7 L741.1,519.7 L741.4,526.5 L741.7,527.8 L741.9,514.3 L742.2,529.2 L742.5,519.7 L742.7,533.2 L743.0,531.9 L743.3,530.5 L743.5,515.7 L743.8,538.6 L744.1,519.7 L744.3,515.7 L744.6,518.4 L744.9,531.9 L745.1,521.1 L745.4,537.3 L745.7,533.2 L746.0,537.3 L746.2,534.6 L746.5,521.1 L746.8,518.4 L747.0,526.5 L747.3,531.9 L747.6,535.9 L747.8,515.7 L748.1,535.9 L748.4,533.2 L748.6,530.5 L748.9,527.8 L749.2,537.3 L749.4,526.5 L749.7,522.4 L750.0,541.3 L750.3,525.1 L750.5,519.7 L750.8,544.0 L751.1,530.5 L751.3,531.9 L751.6,525.1 L751.9,535.9 L752.1,540.0 L752.4,535.9 L752.7,523.8 L752.9,529.2 L753.2,537.3 L753.5,523.8 L753.7,525.1 L754.0,538.6 L754.3,535.9 L754.5,529.2 L754.8,526.5 L755.1,535.9 L755.4,538.6 L755.6,534.6 L755.9,522.4 L756.2,522.4 L756.4,521.1 L756.7,526.5 L757.0,541.3 L757.2,521.1 L757.5,537.3 L757.8,525.1 L758.0,540.0 L758.3,521.1 L758.6,544.0 L758.8,529.2 L759.1,529.2 L759.4,542.7 L759.6,525.1 L759.9,541.3 L760.2,527.8 L760.5,537.3 L760.7,526.5 L761.0,522.4 L761.3,529.2 L761.5,527.8 L761.8,540.0 L762.1,525.1 L762.3,526.5 L762.6,538.6 L762.9,535.9 L763.1,537.3 L763.4,525.1 L763.7,542.7 L763.9,530.5 L764.2,529.2 L764.5,521.1 L764.8,530.5 L765.0,542.7 L765.3,535.9 L765.6,537.3 L765.8,530.5 L766.1,535.9 L766.4,527.8 L766.6,538.6 L766.9,527.8 L767.2,529.2 L767.4,540.0 L767.7,529.2 L768.0,534.6 L768.2,522.4 L768.5,526.5 L768.8,522.4 L769.0,531.9 L769.3,529.2 L769.6,530.5 L769.9,540.0 L770.1,537.3 L770.4,525.1 L770.7,531.9 L770.9,527.8 L771.2,529.2 L771.5,537.3 L771.7,540.0 L772.0,519.7 L772.3,542.7 L772.5,522.4 L772.8,537.3 L773.1,530.5 L773.3,530.5 L773.6,519.7 L773.9,535.9 L774.1,538.6 L774.4,521.1 L774.7,540.0 L775.0,527.8 L775.2,510.3 L775.5,492.7 L775.8,459.0 L776.0,449.6 L776.3,419.9 L776.6,410.5 L776.8,387.6 L777.1,371.4 L777.4,352.5 L777.6,339.0 L777.9,326.9 L778.2,310.7 L778.4,298.5 L778.7,283.7 L779.0,274.3 L779.2,260.8 L779.5,250.0 L779.8,233.8 L780.1,232.4 L780.3,220.3 L780.6,212.2 L780.9,198.7 L781.1,196.0 L781.4,185.2 L781.7,181.2 L781.9,175.8 L782.2,171.8 L782.5,163.7 L782.7,159.6 L783.0,147.5 L783.3,146.1 L783.5,138.0 L783.8,134.0 L784.1,138.0 L784.4,136.7 L784.6,132.6 L784.9,128.6 L785.2,134.0 L785.4,123.2 L785.7,127.3 L786.0,125.9 L786.2,112.4 L786.5,120.5 L786.8,112.4 L787.0,111.1 L787.3,119.2 L787.6,100.3 L787.8,115.1 L788.1,101.6 L788.4,96.2 L788.6,115.1 L788.9,101.6 L789.2,108.4 L789.5,108.4 L789.7,108.4 L790.0,89.5 L790.3,97.6 L790.5,97.6 L790.8,86.8 L791.1,108.4 L791.3,104.3 L791.6,98.9 L791.9,94.9 L792.1,96.2 L792.4,85.4 L792.7,86.8 L792.9,101.6 L793.2,90.8 L793.5,89.5 L793.7,90.8 L794.0,103.0 L794.3,93.5 L794.6,101.6 L794.8,78.7 L795.1,93.5 L795.4,82.7 L795.6,97.6 L795.9,96.2 L796.2,80.0 L796.4,94.9 L796.7,94.9 L797.0,89.5 L797.2,96.2 L797.5,85.4 L797.8,103.0 L798.0,98.9 L798.3,90.8 L798.6,93.5 L798.9,89.5 L799.1,85.4 L799.4,81.4 L799.7,84.1 L799.9,104.3 L800.2,78.7 L800.5,89.5 L800.7,92.2 L801.0,89.5 L801.3,81.4 L801.5,89.5 L801.8,84.1 L802.1,98.9 L802.3,81.4 L802.6,88.1 L802.9,94.9 L803.1,81.4 L803.4,88.1 L803.7,93.5 L804.0,97.6 L804.2,90.8 L804.5,101.6 L804.8,89.5 L805.0,84.1 L805.3,88.1 L805.6,103.0 L805.8,90.8 L806.1,80.0 L806.4,88.1 L806.6,92.2 L806.9,81.4 L807.2,100.3 L807.4,89.5 L807.7,96.2 L808.0,93.5 L808.2,80.0 L808.5,86.8 L808.8,98.9 L809.1,93.5 L809.3,85.4 L809.6,93.5 L809.9,92.2 L810.1,96.2 L810.4,80.0 L810.7,82.7 L810.9,90.8 L811.2,86.8 L811.5,103.0 L811.7,96.2 L812.0,78.7 L812.3,97.6 L812.5,90.8 L812.8,97.6 L813.1,97.6 L813.3,94.9 L813.6,100.3 L813.9,93.5 L814.2,100.3 L814.4,92.2 L814.7,92.2 L815.0,88.1 L815.2,85.4 L815.5,81.4 L815.8,94.9 L816.0,98.9 L816.3,86.8 L816.6,90.8 L816.8,86.8 L817.1,100.3 L817.4,76.0 L817.6,92.2 L817.9,93.5 L818.2,84.1 L818.5,92.2 L818.7,89.5 L819.0,93.5 L819.3,94.9 L819.5,78.7 L819.8,93.5 L820.1,81.4 L820.3,98.9 L820.6,77.3 L820.9,101.6 L821.1,78.7 L821.4,85.4 L821.7,90.8 L821.9,82.7 L822.2,97.6 L822.5,96.2 L822.7,88.1 L823.0,85.4 L823.3,93.5 L823.6,85.4 L823.8,88.1 L824.1,97.6 L824.4,81.4 L824.6,85.4 L824.9,81.4 L825.2,93.5 L825.4,90.8 L825.7,94.9 L826.0,101.6 L826.2,94.9 L826.5,78.7 L826.8,94.9 L827.0,78.7 L827.3,93.5 L827.6,81.4 L827.8,82.7 L828.1,89.5 L828.4,89.5 L828.7,94.9 L828.9,92.2 L829.2,90.8 L829.5,97.6 L829.7,88.1 L830.0,80.0 L830.3,98.9 L830.5,77.3 L830.8,96.2 L831.1,85.4 L831.3,81.4 L831.6,90.8 L831.9,93.5 L832.1,89.5 L832.4,93.5 L832.7,86.8 L833.0,86.8 L833.2,93.5 L833.5,90.8 L833.8,81.4 L834.0,82.7 L834.3,85.4 L834.6,82.7 L834.8,101.6 L835.1,97.6 L835.4,94.9 L835.6,86.8 L835.9,97.6 L836.2,78.7 L836.4,104.3 L836.7,90.8 L837.0,94.9 L837.2,86.8 L837.5,101.6 L837.8,96.2 L838.1,78.7 L838.3,90.8 L838.6,85.4 L838.9,81.4 L839.1,97.6 L839.4,85.4 L839.7,88.1 L839.9,84.1 L840.2,92.2 L840.5,98.9 L840.7,84.1 L841.0,96.2 L841.3,90.8 L841.5,98.9 L841.8,96.2 L842.1,89.5 L842.3,89.5 L842.6,93.5 L842.9,94.9 L843.2,80.0 L843.4,97.6 L843.7,97.6 L844.0,92.2 L844.2,84.1 L844.5,86.8 L844.8,90.8 L845.0,82.7 L845.3,89.5 L845.6,89.5 L845.8,89.5 L846.1,82.7 L846.4,98.9 L846.6,78.7 L846.9,88.1 L847.2,86.8 L847.4,85.4 L847.7,90.8 L848.0,86.8 L848.3,89.5 L848.5,96.2 L848.8,97.6 L849.1,94.9 L849.3,96.2 L849.6,98.9 L849.9,85.4 L850.1,94.9 L850.4,85.4 L850.7,85.4 L850.9,81.4 L851.2,81.4 L851.5,92.2 L851.7,89.5 L852.0,97.6 L852.3,100.3 L852.6,93.5 L852.8,85.4 L853.1,94.9 L853.4,94.9 L853.6,96.2 L853.9,86.8 L854.2,81.4 L854.4,92.2 L854.7,92.2 L855.0,84.1 L855.2,81.4 L855.5,85.4 L855.8,81.4 L856.0,97.6 L856.3,96.2 L856.6,81.4 L856.8,82.7 L857.1,85.4 L857.4,86.8 L857.7,88.1 L857.9,89.5 L858.2,80.0 L858.5,93.5 L858.7,80.0 L859.0,89.5 L859.3,82.7 L859.5,94.9 L859.8,89.5 L860.1,97.6 L860.3,93.5 L860.6,101.6 L860.9,81.4 L861.1,97.6 L861.4,90.8 L861.7,92.2 L861.9,96.2 L862.2,88.1 L862.5,82.7 L862.8,98.9 L863.0,86.8 L863.3,92.2 L863.6,98.9 L863.8,98.9 L864.1,89.5 L864.4,88.1 L864.6,81.4 L864.9,101.6 L865.2,93.5 L865.4,88.1 L865.7,90.8 L866.0,94.9 L866.2,96.2 L866.5,78.7 L866.8,104.3 L867.0,84.1 L867.3,93.5 L867.6,88.1 L867.9,100.3 L868.1,90.8 L868.4,86.8 L868.7,101.6 L868.9,81.4 L869.2,92.2 L869.5,98.9 L869.7,84.1 L870.0,93.5 L870.3,80.0 L870.5,103.0 L870.8,89.5 L871.1,98.9 L871.3,82.7 L871.6,101.6 L871.9,88.1 L872.2,96.2 L872.4,96.2 L872.7,92.2 L873.0,90.8 L873.2,101.6 L873.5,93.5 L873.8,98.9 L874.0,89.5 L874.3,101.6 L874.6,90.8 L874.8,97.6 L875.1,77.3 L875.4,84.1 L875.6,86.8 L875.9,81.4 L876.2,96.2 L876.4,82.7 L876.7,89.5 L877.0,97.6 L877.3,93.5 L877.5,96.2 L877.8,92.2 L878.1,78.7 L878.3,100.3 L878.6,90.8 L878.9,84.1 L879.1,94.9 L879.4,78.7 L879.7,101.6 L879.9,92.2 L880.2,89.5 L880.5,90.8 L880.7,100.3 L881.0,94.9 L881.3,96.2 L881.5,97.6 L881.8,84.1 L882.1,101.6 L882.4,90.8 L882.6,88.1 L882.9,90.8 L883.2,97.6 L883.4,86.8 L883.7,88.1 L884.0,88.1 L884.2,100.3 L884.5,92.2 L884.8,92.2 L885.0,80.0 L885.3,96.2 L885.6,77.3 L885.8,89.5 L886.1,86.8 L886.4,86.8 L886.7,94.9 L886.9,85.4 L887.2,101.6 L887.5,98.9 L887.7,85.4 L888.0,92.2 L888.3,84.1 L888.5,90.8 L888.8,86.8 L889.1,82.7 L889.3,101.6 L889.6,94.9 L889.9,93.5 L890.1,81.4 L890.4,94.9 L890.7,92.2 L890.9,100.3 L891.2,77.3 L891.5,86.8 L891.8,89.5 L892.0,101.6 L892.3,77.3 L892.6,100.3 L892.8,98.9 L893.1,78.7 L893.4,85.4 L893.6,101.6 L893.9,85.4 L894.2,86.8 L894.4,84.1 L894.7,92.2 L895.0,86.8 L895.2,92.2 L895.5,81.4 L895.8,94.9 L896.0,92.2 L896.3,84.1 L896.6,89.5 L896.9,88.1 L897.1,84.1 L897.4,85.4 L897.7,104.3 L897.9,96.2 L898.2,88.1 L898.5,85.4 L898.7,94.9 L899.0,89.5 L899.3,94.9 L899.5,84.1 L899.8,97.6 L900.1,96.2 L900.3,85.4 L900.6,84.1 L900.9,93.5 L901.1,93.5 L901.4,80.0 L901.7,93.5 L902.0,80.0 L902.2,84.1 L902.5,97.6 L902.8,81.4 L903.0,98.9 L903.3,88.1 L903.6,101.6 L903.8,98.9 L904.1,86.8 L904.4,103.0 L904.6,80.0 L904.9,96.2 L905.2,78.7 L905.4,85.4 L905.7,101.6 L906.0,98.9 L906.3,93.5 L906.5,92.2 L906.8,98.9 L907.1,80.0 L907.3,101.6 L907.6,88.1 L907.9,86.8 L908.1,93.5 L908.4,101.6 L908.7,96.2 L908.9,88.1 L909.2,85.4 L909.5,82.7 L909.7,94.9 L910.0,81.4 L910.3,90.8 L910.5,86.8 L910.8,88.1 L911.1,96.2 L911.4,93.5 L911.6,98.9 L911.9,89.5 L912.2,101.6 L912.4,80.0 L912.7,86.8 L913.0,85.4 L913.2,101.6 L913.5,92.2 L913.8,85.4 L914.0,88.1 L914.3,86.8 L914.6,93.5 L914.8,96.2 L915.1,80.0 L915.4,88.1 L915.6,94.9 L915.9,100.3 L916.2,93.5 L916.5,84.1 L916.7,88.1 L917.0,78.7 L917.3,100.3 L917.5,96.2 L917.8,92.2 L918.1,92.2 L918.3,86.8 L918.6,84.1 L918.9,104.3 L919.1,100.3 L919.4,78.7 L919.7,89.5 L919.9,92.2 L920.2,101.6 L920.5,78.7 L920.8,96.2 L921.0,92.2 L921.3,85.4 L921.6,93.5 L921.8,82.7 L922.1,103.0 L922.4,80.0 L922.6,105.7 L922.9,89.5 L923.2,101.6 L923.4,85.4 L923.7,88.1 L924.0,101.6 L924.2,97.6 L924.5,93.5 L924.8,94.9 L925.0,98.9 L925.3,85.4 L925.6,86.8 L925.9,86.8 L926.1,92.2 L926.4,104.3 L926.7,81.4 L926.9,94.9 L927.2,82.7 L927.5,94.9 L927.7,104.3 L928.0,92.2 L928.3,92.2 L928.5,85.4 L928.8,89.5 L929.1,84.1 L929.3,93.5 L929.6,86.8 L929.9,98.9 L930.1,101.6 L930.4,94.9 L930.7,86.8 L931.0,82.7 L931.2,105.7 L931.5,100.3 L931.8,88.1 L932.0,88.1 L932.3,84.1 L932.6,89.5 L932.8,88.1 L933.1,103.0 L933.4,89.5 L933.6,100.3 L933.9,82.7 L934.2,88.1 L934.4,88.1 L934.7,89.5 L935.0,96.2 L935.2,85.4 L935.5,90.8 L935.8,94.9 L936.1,92.2 L936.3,90.8 L936.6,88.1 L936.9,97.6 L937.1,93.5 L937.4,101.6 L937.7,81.4 L937.9,103.0 L938.2,81.4 L938.5,107.0 L938.7,90.8 L939.0,85.4 L939.3,105.7 L939.5,103.0 L939.8,97.6 L940.1,101.6 L940.4,100.3 L940.6,89.5 L940.9,94.9 L941.2,86.8 L941.4,93.5 L941.7,89.5 L942.0,96.2 L942.2,89.5 L942.5,85.4 L942.8,103.0 L943.0,98.9 L943.3,101.6 L943.6,100.3 L943.8,94.9 L944.1,93.5 L944.4,100.3 L944.6,94.9 L944.9,100.3 L945.2,94.9 L945.5,100.3 L945.7,77.3 L946.0,85.4 L946.3,96.2 L946.5,80.0 L946.8,84.1 L947.1,85.4 L947.3,85.4 L947.6,85.4 L947.9,82.7 L948.1,93.5 L948.4,86.8 L948.7,90.8 L948.9,81.4 L949.2,92.2 L949.5,80.0 L949.7,84.1 L950.0,88.1 L950.3,93.5 L950.6,82.7 L950.8,92.2 L951.1,100.3 L951.4,96.2 L951.6,97.6 L951.9,98.9 L952.2,77.3 L952.4,85.4 L952.7,90.8 L953.0,82.7 L953.2,86.8 L953.5,88.1 L953.8,82.7 L954.0,98.9 L954.3,94.9 L954.6,86.8 L954.9,96.2 L955.1,86.8 L955.4,100.3 L955.7,98.9 L955.9,81.4 L956.2,103.0 L956.5,80.0 L956.7,101.6 L957.0,86.8 L957.3,100.3 L957.5,103.0 L957.8,97.6 L958.1,100.3 L958.3,100.3 L958.6,97.6 L958.9,89.5 L959.1,100.3 L959.4,90.8 L959.7,92.2 L960.0,96.2 L960.2,94.9 L960.5,89.5 L960.8,88.1 L961.0,88.1 L961.3,101.6 L961.6,88.1 L961.8,86.8 L962.1,85.4 L962.4,97.6 L962.6,96.2 L962.9,89.5 L963.2,101.6 L963.4,93.5 L963.7,89.5 L964.0,80.0 L964.2,82.7 L964.5,92.2 L964.8,89.5 L965.1,98.9 L965.3,100.3 L965.6,78.7 L965.9,98.9 L966.1,88.1 L966.4,82.7 L966.7,105.7 L966.9,81.4 L967.2,105.7 L967.5,82.7 L967.7,98.9 L968.0,89.5 L968.3,100.3 L968.5,85.4 L968.8,94.9 L969.1,94.9 L969.3,85.4 L969.6,92.2 L969.9,89.5 L970.2,92.2 L970.4,103.0 L970.7,98.9 L971.0,81.4 L971.2,104.3 L971.5,84.1 L971.8,93.5 L972.0,85.4 L972.3,104.3 L972.6,96.2 L972.8,89.5 L973.1,94.9 L973.4,84.1 L973.6,107.0 L973.9,90.8 L974.2,97.6 L974.5,103.0 L974.7,98.9 L975.0,100.3 L975.3,81.4 L975.5,89.5 L975.8,90.8 L976.1,88.1 L976.3,101.6 L976.6,90.8 L976.9,90.8 L977.1,101.6 L977.4,94.9 L977.7,97.6 L977.9,94.9 L978.2,82.7 L978.5,104.3 L978.7,92.2 L979.0,94.9 L979.3,89.5 L979.6,94.9 L979.8,100.3 L980.1,101.6 L980.4,81.4 L980.6,93.5 L980.9,88.1 L981.2,88.1 L981.4,90.8 L981.7,100.3 L982.0,90.8 L982.2,100.3 L982.5,90.8 L982.8,103.0 L983.0,93.5 L983.3,89.5 L983.6,101.6 L983.8,85.4 L984.1,84.1 L984.4,103.0 L984.7,90.8 L984.9,97.6 L985.2,90.8 L985.5,94.9 L985.7,89.5 L986.0,84.1 L986.3,93.5 L986.5,94.9 L986.8,97.6 L987.1,93.5 L987.3,101.6 L987.6,94.9 L987.9,86.8 L988.1,98.9 L988.4,89.5 L988.7,84.1 L989.0,97.6 L989.2,93.5 L989.5,88.1 L989.8,84.1 L990.0,90.8 L990.3,92.2 L990.6,98.9 L990.8,82.7 L991.1,104.3 L991.4,84.1 L991.6,86.8 L991.9,88.1 L992.2,84.1 L992.4,94.9 L992.7,93.5 L993.0,86.8 L993.2,104.3 L993.5,100.3 L993.8,94.9 L994.1,85.4 L994.3,93.5 L994.6,93.5 L994.9,94.9 L995.1,97.6 L995.4,94.9 L995.7,88.1 L995.9,96.2 L996.2,94.9 L996.5,94.9 L996.7,85.4 L997.0,88.1 L997.3,93.5 L997.5,96.2 L997.8,85.4 L998.1,100.3 L998.3,98.9 L998.6,82.7 L998.9,93.5 L999.2,88.1 L999.4,88.1 L999.7,88.1 L1000.0,82.7 L1000.2,100.3 L1000.5,93.5 L1000.8,94.9 L1001.0,97.6 L1001.3,92.2 L1001.6,97.6 L1001.8,89.5 L1002.1,84.1 L1002.4,86.8 L1002.6,100.3 L1002.9,82.7 L1003.2,96.2 L1003.4,82.7 L1003.7,85.4 L1004.0,98.9 L1004.3,90.8 L1004.5,86.8 L1004.8,94.9 L1005.1,80.0 L1005.3,93.5 L1005.6,93.5 L1005.9,88.1 L1006.1,90.8 L1006.4,97.6 L1006.7,85.4 L1006.9,84.1 L1007.2,97.6 L1007.5,81.4 L1007.7,101.6 L1008.0,93.5 L1008.3,103.0 L1008.6,82.7 L1008.8,96.2 L1009.1,90.8 L1009.4,89.5 L1009.6,88.1 L1009.9,88.1 L1010.2,96.2 L1010.4,98.9 L1010.7,85.4 L1011.0,97.6 L1011.2,93.5 L1011.5,84.1 L1011.8,82.7 L1012.0,101.6 L1012.3,93.5 L1012.6,103.0 L1012.8,96.2 L1013.1,84.1 L1013.4,92.2 L1013.7,85.4 L1013.9,82.7 L1014.2,104.3 L1014.5,88.1 L1014.7,90.8 L1015.0,92.2 L1015.3,88.1 L1015.5,97.6 L1015.8,94.9 L1016.1,92.2 L1016.3,104.3 L1016.6,88.1 L1016.9,96.2 L1017.1,89.5 L1017.4,94.9 L1017.7,85.4 L1017.9,85.4 L1018.2,98.9 L1018.5,89.5 L1018.8,93.5 L1019.0,88.1 L1019.3,103.0 L1019.6,92.2 L1019.8,94.9 L1020.1,94.9 L1020.4,86.8 L1020.6,96.2 L1020.9,81.4 L1021.2,85.4 L1021.4,103.0 L1021.7,88.1 L1022.0,105.7 L1022.2,84.1 L1022.5,96.2 L1022.8,100.3 L1023.0,85.4 L1023.3,89.5 L1023.6,98.9 L1023.9,93.5 L1024.1,92.2 L1024.4,98.9 L1024.7,82.7 L1024.9,90.8 L1025.2,97.6 L1025.5,96.2 L1025.7,94.9 L1026.0,93.5 L1026.3,82.7 L1026.5,97.6 L1026.8,90.8 L1027.1,81.4 L1027.3,85.4 L1027.6,82.7 L1027.9,89.5 L1028.2,100.3 L1028.4,86.8 L1028.7,100.3 L1029.0,82.7 L1029.2,96.2 L1029.5,88.1 L1029.8,98.9 L1030.0,98.9 L1030.3,96.2 L1030.6,100.3 L1030.8,88.1 L1031.1,96.2 L1031.4,100.3 L1031.6,93.5 L1031.9,86.8 L1032.2,85.4 L1032.4,96.2 L1032.7,78.7 L1033.0,85.4 L1033.3,103.0 L1033.5,94.9 L1033.8,94.9 L1034.1,98.9 L1034.3,84.1 L1034.6,94.9 L1034.9,98.9 L1035.1,98.9 L1035.4,90.8 L1035.7,80.0 L1035.9,100.3 L1036.2,80.0 L1036.5,97.6 L1036.7,84.1 L1037.0,97.6 L1037.3,94.9 L1037.5,90.8 L1037.8,86.8 L1038.1,98.9 L1038.4,84.1 L1038.6,97.6 L1038.9,96.2 L1039.2,90.8 L1039.4,97.6 L1039.7,86.8 L1040.0,88.1 L1040.2,81.4 L1040.5,93.5 L1040.8,101.6 L1041.0,93.5 L1041.3,81.4 L1041.6,96.2 L1041.8,93.5 L1042.1,103.0 L1042.4,86.8 L1042.7,88.1 L1042.9,104.3 L1043.2,98.9 L1043.5,81.4 L1043.7,86.8 L1044.0,85.4 L1044.3,92.2 L1044.5,93.5 L1044.8,81.4 L1045.1,84.1 L1045.3,92.2 L1045.6,88.1 L1045.9,86.8 L1046.1,100.3 L1046.4,80.0 L1046.7,97.6 L1046.9,86.8 L1047.2,94.9 L1047.5,98.9 L1047.8,89.5 L1048.0,100.3 L1048.3,84.1 L1048.6,88.1 L1048.8,100.3 L1049.1,86.8 L1049.4,97.6 L1049.6,98.9 L1049.9,86.8 L1050.2,104.3 L1050.4,98.9 L1050.7,101.6 L1051.0,98.9 L1051.2,85.4 L1051.5,101.6 L1051.8,90.8 L1052.0,93.5 L1052.3,97.6 L1052.6,88.1 L1052.9,100.3 L1053.1,88.1 L1053.4,108.4 L1053.7,86.8 L1053.9,104.3 L1054.2,98.9 L1054.5,90.8 L1054.7,96.2 L1055.0,104.3 L1055.3,90.8 L1055.5,89.5 L1055.8,97.6 L1056.1,88.1 L1056.3,107.0 L1056.6,105.7 L1056.9,104.3 L1057.1,94.9 L1057.4,103.0 L1057.7,100.3 L1058.0,104.3 L1058.2,92.2 L1058.5,101.6 L1058.8,93.5 L1059.0,88.1 L1059.3,94.9 L1059.6,89.5 L1059.8,93.5 L1060.1,103.0 L1060.4,92.2 L1060.6,98.9 L1060.9,103.0 L1061.2,92.2 L1061.4,89.5 L1061.7,94.9 L1062.0,105.7 L1062.3,90.8 L1062.5,90.8 L1062.8,90.8 L1063.1,97.6 L1063.3,84.1 L1063.6,103.0 L1063.9,93.5 L1064.1,103.0 L1064.4,88.1 L1064.7,86.8 L1064.9,108.4 L1065.2,101.6 L1065.5,86.8 L1065.7,103.0 L1066.0,86.8 L1066.3,92.2 L1066.5,94.9 L1066.8,89.5 L1067.1,108.4 L1067.4,89.5 L1067.6,89.5 L1067.9,107.0 L1068.2,94.9 L1068.4,90.8 L1068.7,100.3 L1069.0,88.1 L1069.2,100.3 L1069.5,103.0 L1069.8,86.8 L1070.0,107.0 L1070.3,90.8 L1070.6,103.0 L1070.8,94.9 L1071.1,96.2 L1071.4,108.4 L1071.6,86.8 L1071.9,105.7 L1072.2,98.9 L1072.5,105.7 L1072.7,89.5 L1073.0,90.8 L1073.3,111.1 L1073.5,107.0 L1073.8,93.5 L1074.1,94.9 L1074.3,101.6 L1074.6,108.4 L1074.9,86.8 L1075.1,104.3 L1075.4,105.7 L1075.7,92.2 L1075.9,105.7 L1076.2,117.8 L1076.5,109.7 L1076.8,136.7 L1077.0,134.0 L1077.3,136.7 L1077.6,155.6 L1077.8,161.0 L1078.1,166.4 L1078.4,189.3 L1078.6,178.5 L1078.9,166.4 L1079.2,161.0 L1079.4,177.2 L1079.7,201.4 L1080.0,213.6 L1080.2,204.1 L1080.5,220.3 L1080.8,217.6 L1081.0,205.5 L1081.3,225.7 L1081.6,236.5 L1081.9,255.4 L1082.1,247.3 L1082.4,258.1 L1082.7,252.7 L1082.9,240.5 L1083.2,252.7 L1083.5,266.2 L1083.7,254.0 L1084.0,240.5" fill="none" stroke="#ff7f0e" stroke-width="1.1" opacity="0.85"/><text x="616" y="572" font-size="11" fill="#888">time 0..35 s — altitude (blue) &amp; roll (orange)</text></svg>