<svg xmlns="http://www.w3.org/2000/svg" width="1140" height="600" font-family="sans-serif" font-size="13"><rect width="1140" height="600" fill="white"/><text x="20" y="26" font-size="15" fill="#333">Coludo flight</text><rect x="20" y="40" width="540" height="540" fill="#fbfbfb" stroke="#ddd"/><rect x="50" y="286" width="300" height="64" fill="#cde" stroke="#369" opacity="0.7"/><text x="50" y="281" fill="#369" font-size="12">landing zone</text><circle cx="240" cy="387" r="5" fill="black"/><text x="248" y="391" font-size="12">pad</text><path d="M239.6,386.7 L239.6,386.7 L239.6,386.7 L239.6,386.7 L239.6,386.7 L239.6,386.7 L239.6,386.7 L239.6,386.7 L239.6,386.7 L239.6,386.7 L239.6,386.7 L239.6,386.7 L239.6,386.7 L239.6,386.7 L239.6,386.7 L239.6,386.7 L239.6,386.7 L239.6,386.7 L239.6,386.7 L239.6,386.7 L239.6,386.7 L239.6,386.7 L239.6,386.7 L239.6,386.7 L239.6,386.7 L239.6,386.7 L239.6,386.7 L239.6,386.7 L239.6,386.7 L239.6,386.7 L239.6,386.7 L239.6,386.7 L239.6,386.7 L239.6,386.7 L239.6,386.7 L239.6,386.7 L239.6,386.7 L239.6,386.7 L239.6,386.7 L239.6,386.7 L239.6,386.7 L239.6,386.7 L239.6,386.7 L239.6,386.7 L239.6,386.7 L239.6,386.7 L239.6,386.7 L239.6,386.7 L239.6,386.7 L239.6,386.7 L239.6,386.7 L239.6,386.7 L239.6,386.7 L239.6,386.7 L239.6,386.7 L239.6,386.7 L239.6,386.7 L239.6,386.7 L240.6,385.1 L241.9,382.8 L243.4,380.4 L244.8,378.3 L246.3,376.0 L247.9,373.8 L249.3,371.7 L250.9,369.4 L252.7,367.4 L254.3,365.3 L256.1,363.1 L257.9,361.2 L259.8,359.2 L261.6,357.2 L263.5,355.3 L265.4,353.5 L267.4,351.5 L269.3,349.7 L271.4,347.9 L273.3,346.2 L275.3,344.2 L277.2,342.4 L279.0,340.4 L280.9,338.5 L282.7,336.3 L284.4,334.4 L286.1,332.2 L287.7,330.1 L289.3,327.9 L290.9,325.6 L292.3,323.5 L293.8,321.2 L295.1,318.8 L296.4,316.5 L297.7,314.0 L298.8,311.7 L299.9,309.2 L300.9,306.7 L302.0,304.2 L302.8,301.7 L303.8,299.2 L304.6,296.5 L305.4,294.0 L306.0,291.3 L306.7,288.7 L307.2,286.2 L307.6,283.5 L308.1,280.8 L308.6,278.1 L309.1,275.5 L309.7,273.0 L310.4,270.3 L311.0,267.6 L311.8,265.1 L312.5,262.4 L313.4,259.9 L314.2,257.4 L315.2,254.9 L316.3,252.4 L317.5,249.9 L318.6,247.4 L319.7,245.1 L321.0,242.8 L322.3,240.3 L323.8,238.0 L325.2,235.8 L326.7,233.5 L328.1,231.4 L329.7,229.2 L331.5,227.1 L333.1,224.9 L334.9,223.0 L336.6,220.8 L338.6,218.9 L340.5,217.1 L342.4,215.1 L344.4,213.3 L346.5,211.7 L348.6,209.9 L350.7,208.3 L352.9,206.7 L355.2,205.1 L357.4,203.7 L359.7,202.3 L361.9,201.0 L364.4,199.6 L366.8,198.5 L369.2,197.3 L371.6,196.2 L374.2,195.1 L376.6,194.2 L379.2,193.1 L381.8,192.4 L384.3,191.5 L386.9,190.8 L389.5,190.3 L392.2,189.6 L394.8,189.2 L397.6,188.7 L400.1,188.3 L402.9,188.0 L405.4,187.8 L408.2,187.6 L410.9,187.4 L413.5,187.4 L416.2,187.4 L419.0,187.4 L421.7,187.6 L424.3,187.8 L427.0,188.0 L429.6,188.3 L432.4,188.9 L434.9,189.2 L437.7,189.8 L440.3,190.5 L442.8,191.0 L445.4,191.7 L448.0,192.6 L450.6,193.3 L453.1,194.2 L455.7,195.3 L458.1,196.2 L460.7,197.3 L463.1,198.5 L465.5,199.6 L468.0,200.8 L470.2,202.3 L472.6,203.5 L474.9,204.9 L477.2,206.4 L479.4,208.0 L481.7,209.4 L483.8,211.0 L485.9,212.8 L487.9,214.4 L490.0,216.2 L492.0,218.0 L493.9,219.9 L495.8,221.7 L497.8,223.7 L499.5,225.8 L501.3,227.8 L503.1,229.7 L504.7,231.9 L506.3,234.0 L507.9,236.2 L509.4,238.5 L511.0,240.6 L512.4,243.0 L513.7,245.3 L515.0,247.6 L516.3,250.1 L517.6,252.4 L518.7,254.9 L519.8,257.2 L521.0,259.7 L521.9,262.2 L522.9,264.7 L523.7,267.4 L524.5,269.9 L525.3,272.4 L526.1,275.1 L526.8,277.8 L527.4,280.3 L527.9,283.0 L528.4,285.6 L528.7,288.3 L529.2,291.0 L529.5,293.7 L529.7,296.3 L529.8,299.0 L530.0,301.7 L530.0,304.4 L530.0,307.1 L530.0,309.7 L530.0,312.4 L529.8,315.1 L529.5,317.8 L529.2,320.4 L528.9,323.1 L528.5,325.8 L528.1,328.5 L527.6,331.2 L526.9,333.8 L526.3,336.3 L525.6,339.0 L524.8,341.7 L524.0,344.2 L523.2,346.7 L522.3,349.2 L521.3,351.7 L520.3,354.2 L519.2,356.7 L518.1,359.2 L516.9,361.5 L515.7,364.0 L514.4,366.3 L512.9,368.7 L511.6,371.0 L510.2,373.3 L508.6,375.4 L507.1,377.8 L505.5,379.9 L503.9,382.0 L502.1,384.0 L500.4,386.1 L498.6,388.1 L496.8,390.1 L495.0,392.0 L493.1,394.0 L491.2,396.0 L489.2,397.8 L487.1,399.5 L485.2,401.3 L483.1,402.9 L480.9,404.7 L479.1,406.0 L477.3,407.4 L475.5,408.6 L473.6,409.9 L471.7,411.0 L469.7,412.2 L467.8,413.3 L465.9,414.5 L463.9,415.6 L462.0,416.5 L459.9,417.6 L458.0,418.6 L455.9,419.5 L453.8,420.4 L451.7,421.3 L449.6,422.2 L447.5,422.9 L445.4,423.6 L443.3,424.5 L441.2,425.2 L439.1,426.0 L436.9,426.5 L434.8,427.2 L432.7,427.7 L430.4,428.3 L428.3,428.8 L426.1,429.4 L423.8,429.7 L421.7,430.2 L419.5,430.6 L417.2,431.0 L415.0,431.3 L412.9,431.5 L410.6,431.9 L408.3,432.0 L406.1,432.2 L403.8,432.4 L401.6,432.6 L399.3,432.6 L397.1,432.6 L394.8,432.6 L392.6,432.6 L390.3,432.6 L388.2,432.4 L386.0,432.4 L383.7,432.2 L381.4,432.0 L379.2,431.9 L376.9,431.5 L374.7,431.3 L372.4,431.0 L370.3,430.6 L368.1,430.2 L365.8,429.9 L363.7,429.4 L361.5,428.8 L359.2,428.3 L357.1,427.7 L354.9,427.2 L352.8,426.7 L350.7,426.0 L348.4,425.2 L346.3,424.5 L344.2,423.8 L342.1,423.1 L340.0,422.4 L337.9,421.5" fill="none" stroke="#1f77b4" stroke-width="1.7" opacity="0.85"/><circle cx="338" cy="421" r="4.5" fill="#1f77b4"/><text x="28" y="572" font-size="11" fill="#888">ground track — m from pad (N up)</text><rect x="580" y="40" width="540" height="540" fill="#fbfbfb" stroke="#ddd"/><text x="586" y="54" fill="#1f77b4" font-size="11">alt 341</text><text x="586" y="558" fill="#1f77b4" font-size="11">2</text><path d="M616.0,542.9 L616.2,542.6 L616.5,543.6 L616.7,544.0 L617.0,543.1 L617.2,542.6 L617.4,543.4 L617.7,543.4 L617.9,541.8 L618.2,543.4 L618.4,543.2 L618.7,542.0 L618.9,542.4 L619.1,541.3 L619.4,542.3 L619.6,540.8 L619.9,542.2 L620.1,540.4 L620.3,542.6 L620.6,541.3 L620.8,539.8 L621.1,540.4 L621.3,540.1 L621.6,539.8 L621.8,540.8 L622.0,538.2 L622.3,539.2 L622.5,540.2 L622.8,539.6 L623.0,536.4 L623.2,535.0 L623.5,535.1 L623.7,534.8 L624.0,535.1 L624.2,533.6 L624.4,537.6 L624.7,532.3 L624.9,537.2 L625.2,532.2 L625.4,531.1 L625.7,535.3 L625.9,533.3 L626.1,531.1 L626.4,530.6 L626.6,530.0 L626.9,526.3 L627.1,524.8 L627.3,530.1 L627.6,525.5 L627.8,531.7 L628.1,527.9 L628.3,529.6 L628.6,526.0 L628.8,526.5 L629.0,520.1 L629.3,524.1 L629.5,522.4 L629.8,515.9 L630.0,525.6 L630.2,522.8 L630.5,525.6 L630.7,516.0 L631.0,519.6 L631.2,514.4 L631.4,518.0 L631.7,523.0 L631.9,515.9 L632.2,518.8 L632.4,508.5 L632.7,510.9 L632.9,517.4 L633.1,502.2 L633.4,507.3 L633.6,502.5 L633.9,507.5 L634.1,512.0 L634.3,499.4 L634.6,501.9 L634.8,510.0 L635.1,501.6 L635.3,511.7 L635.6,492.5 L635.8,498.1 L636.0,503.1 L636.3,501.2 L636.5,501.0 L636.8,487.0 L637.0,489.3 L637.2,491.6 L637.5,490.3 L637.7,504.5 L638.0,487.5 L638.2,480.7 L638.4,472.8 L638.7,485.7 L638.9,496.5 L639.2,490.8 L639.4,476.6 L639.7,497.3 L639.9,481.3 L640.1,489.2 L640.4,472.4 L640.6,481.5 L640.9,472.3 L641.1,488.4 L641.3,478.2 L641.6,465.9 L641.8,484.3 L642.1,451.1 L642.3,454.5 L642.5,465.5 L642.8,469.5 L643.0,464.2 L643.3,460.3 L643.5,465.9 L643.8,454.9 L644.0,463.8 L644.2,455.2 L644.5,431.7 L644.7,467.3 L645.0,436.2 L645.2,449.7 L645.4,466.1 L645.7,465.0 L645.9,452.7 L646.2,468.3 L646.4,468.4 L646.7,453.7 L646.9,417.2 L647.1,460.2 L647.4,438.1 L647.6,430.9 L647.9,441.2 L648.1,457.5 L648.3,450.5 L648.6,442.0 L648.8,413.0 L649.1,408.0 L649.3,407.6 L649.5,417.8 L649.8,441.2 L650.0,436.2 L650.3,424.1 L650.5,410.9 L650.8,431.8 L651.0,435.8 L651.2,443.7 L651.5,407.4 L651.7,437.0 L652.0,406.8 L652.2,408.9 L652.4,397.4 L652.7,421.7 L652.9,398.7 L653.2,366.4 L653.4,376.6 L653.7,366.3 L653.9,358.5 L654.1,380.4 L654.4,362.4 L654.6,388.9 L654.9,416.0 L655.1,339.6 L655.3,353.3 L655.6,334.7 L655.8,345.4 L656.1,397.3 L656.3,350.9 L656.5,384.7 L656.8,406.0 L657.0,333.1 L657.3,329.6 L657.5,372.4 L657.8,321.7 L658.0,399.8 L658.2,323.0 L658.5,340.1 L658.7,342.2 L659.0,382.8 L659.2,378.6 L659.4,395.7 L659.7,357.1 L659.9,343.5 L660.2,342.3 L660.4,359.2 L660.7,356.3 L660.9,307.1 L661.1,333.7 L661.4,283.4 L661.6,359.6 L661.9,308.7 L662.1,348.4 L662.3,368.2 L662.6,287.2 L662.8,279.0 L663.1,296.1 L663.3,293.6 L663.5,341.9 L663.8,352.9 L664.0,283.9 L664.3,336.7 L664.5,313.1 L664.8,277.1 L665.0,362.4 L665.2,293.2 L665.5,299.0 L665.7,239.9 L666.0,308.9 L666.2,292.9 L666.4,296.6 L666.7,269.9 L666.9,285.4 L667.2,336.4 L667.4,269.0 L667.7,307.3 L667.9,328.4 L668.1,301.5 L668.4,229.0 L668.6,218.6 L668.9,296.3 L669.1,302.7 L669.3,323.3 L669.6,310.4 L669.8,285.9 L670.1,244.2 L670.3,238.2 L670.5,270.0 L670.8,294.2 L671.0,203.3 L671.3,260.1 L671.5,300.4 L671.8,316.5 L672.0,323.2 L672.2,258.3 L672.5,279.4 L672.7,319.1 L673.0,202.0 L673.2,276.1 L673.4,261.6 L673.7,229.9 L673.9,296.3 L674.2,226.0 L674.4,307.2 L674.7,182.3 L674.9,237.7 L675.1,239.2 L675.4,267.0 L675.6,305.6 L675.9,216.7 L676.1,259.6 L676.3,277.4 L676.6,290.0 L676.8,177.7 L677.1,287.6 L677.3,215.0 L677.5,192.9 L677.8,255.3 L678.0,212.2 L678.3,228.0 L678.5,235.4 L678.8,139.5 L679.0,282.5 L679.2,243.3 L679.5,253.5 L679.7,147.8 L680.0,246.5 L680.2,166.9 L680.4,232.3 L680.7,202.3 L680.9,241.7 L681.2,221.8 L681.4,170.1 L681.7,214.8 L681.9,218.5 L682.1,194.0 L682.4,263.4 L682.6,143.7 L682.9,163.3 L683.1,215.5 L683.3,238.9 L683.6,260.0 L683.8,142.3 L684.1,177.6 L684.3,232.3 L684.5,129.3 L684.8,202.5 L685.0,105.2 L685.3,274.3 L685.5,177.5 L685.8,100.4 L686.0,154.4 L686.2,190.0 L686.5,257.5 L686.7,226.3 L687.0,148.0 L687.2,230.3 L687.4,222.4 L687.7,107.7 L687.9,265.4 L688.2,133.5 L688.4,197.3 L688.6,183.3 L688.9,234.3 L689.1,102.3 L689.4,159.6 L689.6,170.3 L689.9,124.0 L690.1,247.9 L690.3,112.0 L690.6,236.2 L690.8,88.1 L691.1,187.0 L691.3,104.3 L691.5,76.8 L691.8,94.6 L692.0,120.3 L692.3,86.2 L692.5,138.9 L692.8,79.3 L693.0,102.3 L693.2,202.4 L693.5,140.6 L693.7,76.2 L694.0,146.3 L694.2,180.5 L694.4,206.8 L694.7,219.3 L694.9,167.0 L695.2,188.5 L695.4,165.0 L695.6,217.5 L695.9,243.0 L696.1,142.8 L696.4,205.4 L696.6,250.7 L696.9,213.3 L697.1,259.7 L697.3,99.8 L697.6,262.2 L697.8,219.5 L698.1,98.5 L698.3,96.7 L698.5,146.5 L698.8,198.6 L699.0,161.2 L699.3,152.6 L699.5,101.2 L699.8,235.2 L700.0,257.9 L700.2,169.0 L700.5,162.7 L700.7,97.0 L701.0,187.6 L701.2,194.3 L701.4,114.6 L701.7,149.7 L701.9,178.8 L702.2,205.5 L702.4,164.2 L702.6,113.1 L702.9,138.6 L703.1,132.1 L703.4,157.1 L703.6,145.8 L703.9,76.0 L704.1,155.5 L704.3,174.3 L704.6,232.1 L704.8,208.0 L705.1,108.5 L705.3,252.1 L705.5,124.9 L705.8,94.3 L706.0,105.7 L706.3,87.7 L706.5,106.5 L706.8,170.5 L707.0,179.1 L707.2,236.1 L707.5,87.6 L707.7,242.7 L708.0,155.4 L708.2,154.2 L708.4,229.9 L708.7,128.4 L708.9,242.2 L709.2,151.0 L709.4,215.8 L709.6,103.1 L709.9,261.0 L710.1,188.8 L710.4,193.6 L710.6,201.8 L710.9,225.2 L711.1,226.6 L711.3,251.9 L711.6,259.2 L711.8,235.3 L712.1,144.7 L712.3,157.2 L712.5,261.7 L712.8,201.7 L713.0,177.1 L713.3,107.8 L713.5,179.0 L713.8,231.7 L714.0,79.0 L714.2,239.1 L714.5,83.5 L714.7,115.7 L715.0,194.7 L715.2,87.4 L715.4,236.1 L715.7,216.9 L715.9,214.4 L716.2,254.6 L716.4,235.5 L716.6,121.3 L716.9,133.8 L717.1,233.2 L717.4,218.4 L717.6,234.9 L717.9,119.8 L718.1,266.0 L718.3,194.5 L718.6,151.0 L718.8,104.8 L719.1,122.1 L719.3,132.5 L719.5,238.8 L719.8,190.3 L720.0,82.0 L720.3,203.7 L720.5,152.6 L720.8,133.3 L721.0,209.0 L721.2,209.7 L721.5,95.3 L721.7,263.5 L722.0,208.2 L722.2,145.6 L722.4,218.8 L722.7,185.6 L722.9,88.5 L723.2,137.0 L723.4,204.7 L723.6,109.7 L723.9,119.3 L724.1,257.7 L724.4,216.5 L724.6,167.2 L724.9,191.7 L725.1,142.3 L725.3,149.1 L725.6,92.5 L725.8,85.9 L726.1,198.6 L726.3,236.4 L726.5,236.3 L726.8,89.9 L727.0,227.7 L727.3,188.1 L727.5,119.4 L727.8,144.2 L728.0,122.6 L728.2,249.4 L728.5,203.8 L728.7,207.0 L729.0,100.5 L729.2,174.8 L729.4,179.4 L729.7,250.3 L729.9,240.2 L730.2,225.1 L730.4,205.4 L730.6,148.2 L730.9,250.6 L731.1,247.8 L731.4,248.5 L731.6,251.3 L731.9,214.6 L732.1,155.9 L732.3,97.3 L732.6,96.9 L732.8,99.6 L733.1,180.7 L733.3,182.9 L733.5,111.1 L733.8,163.5 L734.0,152.6 L734.3,193.7 L734.5,213.4 L734.7,166.0 L735.0,129.7 L735.2,158.2 L735.5,120.2 L735.7,111.3 L736.0,252.7 L736.2,210.0 L736.4,202.2 L736.7,108.9 L736.9,182.5 L737.2,173.0 L737.4,247.6 L737.6,143.5 L737.9,259.7 L738.1,163.1 L738.4,246.4 L738.6,237.7 L738.9,252.8 L739.1,140.0 L739.3,201.2 L739.6,118.7 L739.8,120.9 L740.1,259.4 L740.3,269.3 L740.5,221.0 L740.8,108.6 L741.0,131.9 L741.3,170.5 L741.5,151.0 L741.7,190.4 L742.0,108.7 L742.2,169.6 L742.5,145.6 L742.7,135.1 L743.0,175.2 L743.2,225.3 L743.4,207.9 L743.7,106.7 L743.9,98.3 L744.2,176.8 L744.4,96.9 L744.6,99.2 L744.9,178.1 L745.1,167.7 L745.4,217.8 L745.6,217.0 L745.9,246.6 L746.1,147.9 L746.3,247.8 L746.6,166.5 L746.8,98.1 L747.1,273.8 L747.3,116.0 L747.5,108.8 L747.8,148.2 L748.0,159.3 L748.3,96.8 L748.5,241.8 L748.7,109.2 L749.0,174.9 L749.2,263.1 L749.5,219.5 L749.7,269.4 L750.0,216.1 L750.2,154.1 L750.4,163.3 L750.7,182.4 L750.9,243.6 L751.2,268.3 L751.4,107.8 L751.6,129.5 L751.9,126.5 L752.1,218.1 L752.4,105.3 L752.6,118.8 L752.9,194.9 L753.1,180.9 L753.3,132.7 L753.6,148.8 L753.8,279.1 L754.1,174.6 L754.3,184.4 L754.5,103.1 L754.8,211.5 L755.0,153.7 L755.3,183.0 L755.5,220.6 L755.7,150.4 L756.0,260.7 L756.2,279.0 L756.5,106.6 L756.7,152.8 L757.0,261.3 L757.2,279.1 L757.4,113.2 L757.7,151.7 L757.9,216.9 L758.2,191.9 L758.4,134.8 L758.6,184.7 L758.9,182.1 L759.1,149.9 L759.4,110.1 L759.6,166.5 L759.9,180.2 L760.1,165.9 L760.3,233.6 L760.6,170.2 L760.8,187.0 L761.1,211.8 L761.3,210.2 L761.5,159.9 L761.8,124.7 L762.0,140.3 L762.3,176.9 L762.5,271.7 L762.7,137.3 L763.0,212.7 L763.2,136.1 L763.5,214.6 L763.7,271.4 L764.0,153.9 L764.2,125.6 L764.4,142.7 L764.7,120.7 L764.9,161.3 L765.2,117.7 L765.4,195.2 L765.6,193.3 L765.9,251.4 L766.1,167.3 L766.4,181.7 L766.6,261.2 L766.9,195.0 L767.1,137.1 L767.3,138.7 L767.6,182.6 L767.8,169.6 L768.1,122.9 L768.3,256.5 L768.5,265.6 L768.8,183.6 L769.0,245.0 L769.3,140.6 L769.5,222.9 L769.7,206.2 L770.0,195.5 L770.2,178.7 L770.5,280.3 L770.7,258.7 L771.0,137.9 L771.2,121.5 L771.4,258.7 L771.7,154.2 L771.9,261.7 L772.2,193.1 L772.4,248.5 L772.6,133.9 L772.9,186.2 L773.1,119.7 L773.4,275.7 L773.6,186.4 L773.9,143.7 L774.1,281.3 L774.3,250.8 L774.6,148.1 L774.8,230.6 L775.1,202.0 L775.3,275.0 L775.5,205.8 L775.8,126.9 L776.0,163.5 L776.3,242.5 L776.5,140.2 L776.7,213.4 L777.0,253.7 L777.2,184.8 L777.5,180.0 L777.7,265.3 L778.0,145.2 L778.2,287.1 L778.4,187.4 L778.7,287.1 L778.9,137.8 L779.2,179.7 L779.4,193.6 L779.6,153.5 L779.9,181.7 L780.1,252.9 L780.4,172.4 L780.6,226.9 L780.8,243.0 L781.1,196.8 L781.3,170.8 L781.6,179.6 L781.8,210.9 L782.1,233.4 L782.3,285.9 L782.5,226.3 L782.8,143.3 L783.0,165.9 L783.3,129.4 L783.5,239.1 L783.7,194.1 L784.0,164.0 L784.2,221.9 L784.5,192.1 L784.7,205.5 L785.0,263.2 L785.2,180.5 L785.4,139.8 L785.7,201.4 L785.9,233.7 L786.2,273.1 L786.4,201.6 L786.6,144.1 L786.9,183.1 L787.1,240.3 L787.4,175.1 L787.6,183.5 L787.8,179.8 L788.1,205.5 L788.3,182.9 L788.6,161.0 L788.8,204.5 L789.1,226.6 L789.3,196.0 L789.5,238.5 L789.8,255.0 L790.0,199.2 L790.3,218.1 L790.5,180.4 L790.7,168.4 L791.0,153.6 L791.2,281.3 L791.5,267.1 L791.7,178.9 L792.0,265.3 L792.2,251.3 L792.4,259.4 L792.7,163.3 L792.9,147.8 L793.2,217.1 L793.4,253.1 L793.6,285.5 L793.9,191.6 L794.1,179.4 L794.4,196.5 L794.6,275.9 L794.8,154.2 L795.1,197.9 L795.3,195.6 L795.6,175.3 L795.8,193.0 L796.1,201.4 L796.3,283.4 L796.5,242.1 L796.8,210.8 L797.0,242.5 L797.3,291.3 L797.5,245.6 L797.7,224.3 L798.0,161.0 L798.2,242.7 L798.5,233.4 L798.7,146.5 L799.0,256.9 L799.2,301.1 L799.4,198.7 L799.7,264.5 L799.9,155.8 L800.2,261.8 L800.4,291.4 L800.6,175.8 L800.9,240.0 L801.1,195.9 L801.4,237.5 L801.6,175.8 L801.8,194.7 L802.1,198.8 L802.3,161.4 L802.6,208.5 L802.8,150.9 L803.1,165.2 L803.3,184.9 L803.5,205.3 L803.8,259.9 L804.0,215.7 L804.3,210.9 L804.5,217.3 L804.7,224.5 L805.0,262.9 L805.2,229.3 L805.5,182.2 L805.7,202.3 L806.0,257.6 L806.2,239.8 L806.4,169.5 L806.7,229.3 L806.9,211.3 L807.2,268.7 L807.4,303.9 L807.6,233.0 L807.9,180.5 L808.1,211.7 L808.4,244.3 L808.6,208.1 L808.8,281.9 L809.1,204.1 L809.3,151.1 L809.6,258.7 L809.8,289.6 L810.1,201.2 L810.3,196.1 L810.5,207.6 L810.8,179.3 L811.0,216.6 L811.3,166.3 L811.5,221.4 L811.7,248.0 L812.0,238.6 L812.2,184.9 L812.5,194.1 L812.7,159.2 L813.0,261.2 L813.2,217.0 L813.4,210.1 L813.7,186.6 L813.9,308.8 L814.2,277.2 L814.4,242.7 L814.6,253.4 L814.9,308.6 L815.1,296.8 L815.4,171.7 L815.6,270.5 L815.8,179.2 L816.1,259.6 L816.3,216.0 L816.6,197.4 L816.8,170.4 L817.1,168.1 L817.3,240.3 L817.5,298.4 L817.8,253.1 L818.0,202.3 L818.3,211.9 L818.5,227.8 L818.7,250.8 L819.0,283.6 L819.2,263.4 L819.5,234.7 L819.7,242.4 L820.0,200.0 L820.2,282.8 L820.4,301.1 L820.7,302.8 L820.9,255.6 L821.2,217.0 L821.4,314.1 L821.6,218.6 L821.9,194.9 L822.1,217.8 L822.4,237.6 L822.6,252.7 L822.8,207.8 L823.1,276.6 L823.3,292.8 L823.6,292.7 L823.8,293.8 L824.1,174.0 L824.3,219.5 L824.5,172.2 L824.8,257.5 L825.0,286.6 L825.3,186.3 L825.5,208.6 L825.7,250.4 L826.0,206.1 L826.2,199.6 L826.5,300.6 L826.7,232.9 L826.9,182.0 L827.2,281.2 L827.4,173.8 L827.7,214.8 L827.9,298.6 L828.2,256.6 L828.4,212.6 L828.6,271.4 L828.9,190.6 L829.1,309.9 L829.4,226.0 L829.6,223.8 L829.8,270.2 L830.1,210.3 L830.3,312.5 L830.6,195.6 L830.8,212.3 L831.1,191.0 L831.3,201.5 L831.5,320.3 L831.8,292.3 L832.0,304.5 L832.3,232.8 L832.5,261.0 L832.7,198.7 L833.0,178.3 L833.2,259.3 L833.5,242.9 L833.7,264.4 L833.9,205.2 L834.2,206.1 L834.4,238.0 L834.7,183.3 L834.9,202.2 L835.2,296.9 L835.4,277.2 L835.6,258.9 L835.9,197.3 L836.1,199.6 L836.4,307.7 L836.6,327.1 L836.8,187.2 L837.1,315.5 L837.3,220.6 L837.6,313.7 L837.8,318.5 L838.1,248.7 L838.3,252.4 L838.5,320.9 L838.8,276.2 L839.0,285.4 L839.3,316.4 L839.5,213.2 L839.7,212.1 L840.0,268.1 L840.2,310.4 L840.5,265.9 L840.7,263.1 L840.9,214.9 L841.2,268.7 L841.4,278.9 L841.7,318.0 L841.9,239.6 L842.2,302.8 L842.4,267.0 L842.6,243.6 L842.9,201.9 L843.1,298.2 L843.4,301.6 L843.6,319.4 L843.8,314.5 L844.1,310.7 L844.3,260.9 L844.6,258.1 L844.8,255.7 L845.1,193.8 L845.3,228.3 L845.5,223.7 L845.8,231.5 L846.0,236.0 L846.3,279.8 L846.5,332.5 L846.7,195.7 L847.0,209.0 L847.2,262.6 L847.5,238.2 L847.7,238.4 L847.9,322.2 L848.2,264.9 L848.4,293.9 L848.7,291.5 L848.9,247.1 L849.2,255.2 L849.4,334.8 L849.6,306.2 L849.9,271.3 L850.1,315.6 L850.4,259.1 L850.6,240.1 L850.8,204.4 L851.1,254.5 L851.3,249.3 L851.6,278.0 L851.8,236.1 L852.1,305.0 L852.3,247.9 L852.5,236.7 L852.8,253.0 L853.0,219.4 L853.3,260.9 L853.5,255.2 L853.7,283.4 L854.0,257.9 L854.2,286.0 L854.5,306.4 L854.7,211.8 L854.9,339.3 L855.2,337.5 L855.4,217.2 L855.7,274.3 L855.9,252.9 L856.2,271.0 L856.4,289.0 L856.6,231.7 L856.9,222.0 L857.1,311.2 L857.4,282.8 L857.6,287.2 L857.8,326.5 L858.1,328.8 L858.3,333.2 L858.6,344.2 L858.8,320.3 L859.1,226.1 L859.3,326.2 L859.5,227.4 L859.8,265.7 L860.0,312.9 L860.3,278.6 L860.5,273.3 L860.7,333.4 L861.0,305.3 L861.2,327.8 L861.5,335.5 L861.7,248.9 L861.9,331.0 L862.2,219.7 L862.4,246.7 L862.7,311.8 L862.9,238.1 L863.2,262.0 L863.4,232.4 L863.6,274.0 L863.9,295.6 L864.1,347.8 L864.4,327.0 L864.6,265.8 L864.8,317.5 L865.1,270.5 L865.3,313.9 L865.6,248.0 L865.8,317.2 L866.1,309.0 L866.3,231.7 L866.5,230.2 L866.8,254.9 L867.0,232.7 L867.3,306.5 L867.5,260.6 L867.7,306.1 L868.0,334.6 L868.2,268.4 L868.5,325.6 L868.7,249.1 L868.9,288.6 L869.2,321.9 L869.4,270.0 L869.7,224.6 L869.9,311.5 L870.2,253.9 L870.4,303.3 L870.6,254.4 L870.9,311.3 L871.1,228.2 L871.4,243.3 L871.6,253.3 L871.8,320.3 L872.1,328.0 L872.3,256.4 L872.6,247.5 L872.8,312.6 L873.1,284.0 L873.3,308.9 L873.5,283.5 L873.8,296.6 L874.0,299.7 L874.3,275.9 L874.5,275.6 L874.7,274.7 L875.0,347.2 L875.2,266.6 L875.5,322.9 L875.7,240.3 L875.9,251.9 L876.2,233.6 L876.4,328.6 L876.7,302.5 L876.9,255.9 L877.2,315.2 L877.4,277.8 L877.6,271.8 L877.9,273.8 L878.1,277.3 L878.4,309.7 L878.6,279.9 L878.8,323.2 L879.1,338.3 L879.3,247.2 L879.6,340.1 L879.8,307.8 L880.0,264.3 L880.3,241.6 L880.5,320.9 L880.8,354.0 L881.0,353.4 L881.3,250.3 L881.5,319.0 L881.7,298.5 L882.0,333.1 L882.2,276.7 L882.5,322.1 L882.7,247.0 L882.9,292.8 L883.2,326.3 L883.4,279.7 L883.7,311.0 L883.9,272.6 L884.2,268.3 L884.4,247.2 L884.6,319.4 L884.9,330.3 L885.1,321.5 L885.4,344.9 L885.6,317.7 L885.8,320.0 L886.1,282.8 L886.3,350.8 L886.6,259.7 L886.8,344.5 L887.0,339.2 L887.3,290.4 L887.5,307.9 L887.8,255.9 L888.0,292.6 L888.3,275.2 L888.5,300.8 L888.7,333.9 L889.0,266.0 L889.2,253.9 L889.5,358.2 L889.7,361.0 L889.9,278.3 L890.2,349.7 L890.4,301.1 L890.7,343.7 L890.9,357.0 L891.2,324.0 L891.4,370.3 L891.6,322.0 L891.9,341.0 L892.1,289.0 L892.4,310.4 L892.6,355.7 L892.8,314.8 L893.1,362.1 L893.3,350.3 L893.6,337.2 L893.8,364.1 L894.0,297.0 L894.3,358.0 L894.5,302.2 L894.8,366.8 L895.0,313.7 L895.3,352.5 L895.5,369.1 L895.7,336.2 L896.0,313.8 L896.2,269.9 L896.5,308.4 L896.7,338.9 L896.9,284.8 L897.2,287.8 L897.4,367.8 L897.7,352.9 L897.9,287.7 L898.2,363.6 L898.4,269.5 L898.6,335.7 L898.9,318.9 L899.1,337.7 L899.4,330.7 L899.6,363.8 L899.8,301.3 L900.1,303.3 L900.3,285.5 L900.6,289.7 L900.8,350.9 L901.0,352.2 L901.3,358.7 L901.5,302.6 L901.8,344.6 L902.0,360.4 L902.3,279.1 L902.5,285.1 L902.7,299.6 L903.0,295.8 L903.2,308.9 L903.5,375.8 L903.7,293.0 L903.9,271.6 L904.2,335.5 L904.4,339.2 L904.7,347.6 L904.9,282.5 L905.2,289.2 L905.4,292.8 L905.6,278.1 L905.9,291.1 L906.1,364.5 L906.4,290.0 L906.6,303.2 L906.8,302.7 L907.1,344.1 L907.3,324.7 L907.6,368.5 L907.8,280.9 L908.0,310.8 L908.3,296.6 L908.5,344.9 L908.8,289.0 L909.0,323.2 L909.3,374.2 L909.5,379.7 L909.7,308.1 L910.0,375.0 L910.2,322.6 L910.5,373.0 L910.7,336.3 L910.9,319.8 L911.2,364.9 L911.4,321.9 L911.7,325.1 L911.9,370.8 L912.2,337.4 L912.4,312.7 L912.6,385.6 L912.9,326.7 L913.1,352.4 L913.4,382.3 L913.6,368.0 L913.8,304.5 L914.1,355.9 L914.3,297.0 L914.6,315.6 L914.8,345.9 L915.0,316.2 L915.3,301.8 L915.5,289.8 L915.8,306.4 L916.0,307.7 L916.3,351.4 L916.5,371.5 L916.7,359.6 L917.0,365.0 L917.2,355.8 L917.5,322.4 L917.7,379.1 L917.9,376.5 L918.2,393.6 L918.4,364.8 L918.7,294.7 L918.9,320.6 L919.2,362.8 L919.4,380.7 L919.6,369.6 L919.9,326.4 L920.1,392.9 L920.4,301.6 L920.6,369.2 L920.8,362.9 L921.1,321.2 L921.3,374.7 L921.6,302.2 L921.8,374.8 L922.0,320.4 L922.3,339.0 L922.5,299.4 L922.8,351.4 L923.0,343.1 L923.3,341.1 L923.5,357.4 L923.7,381.8 L924.0,332.2 L924.2,367.5 L924.5,313.1 L924.7,312.9 L924.9,307.8 L925.2,388.0 L925.4,384.0 L925.7,341.9 L925.9,378.4 L926.1,398.9 L926.4,386.1 L926.6,317.9 L926.9,401.6 L927.1,331.4 L927.4,316.8 L927.6,315.4 L927.8,338.2 L928.1,393.7 L928.3,317.4 L928.6,340.9 L928.8,385.4 L929.0,355.5 L929.3,381.1 L929.5,347.7 L929.8,369.6 L930.0,319.9 L930.3,325.1 L930.5,339.3 L930.7,374.3 L931.0,376.1 L931.2,378.3 L931.5,397.6 L931.7,315.9 L931.9,404.7 L932.2,316.7 L932.4,386.2 L932.7,366.4 L932.9,387.3 L933.1,403.5 L933.4,362.0 L933.6,360.3 L933.9,325.2 L934.1,387.5 L934.4,316.9 L934.6,383.7 L934.8,372.9 L935.1,373.3 L935.3,343.7 L935.6,406.0 L935.8,400.5 L936.0,347.7 L936.3,369.9 L936.5,351.8 L936.8,322.5 L937.0,381.0 L937.3,393.0 L937.5,389.4 L937.7,321.7 L938.0,408.5 L938.2,382.5 L938.5,335.6 L938.7,345.0 L938.9,379.7 L939.2,326.8 L939.4,370.8 L939.7,383.0 L939.9,365.0 L940.1,388.5 L940.4,392.9 L940.6,400.9 L940.9,411.0 L941.1,340.6 L941.4,363.2 L941.6,391.0 L941.8,376.7 L942.1,391.9 L942.3,349.1 L942.6,334.7 L942.8,338.2 L943.0,366.5 L943.3,380.5 L943.5,415.2 L943.8,336.9 L944.0,371.9 L944.3,398.2 L944.5,334.3 L944.7,358.9 L945.0,403.5 L945.2,337.7 L945.5,368.6 L945.7,379.1 L945.9,400.2 L946.2,406.9 L946.4,376.6 L946.7,392.1 L946.9,397.1 L947.1,384.3 L947.4,336.4 L947.6,412.2 L947.9,376.5 L948.1,354.3 L948.4,380.7 L948.6,383.4 L948.8,410.0 L949.1,409.9 L949.3,383.2 L949.6,395.8 L949.8,368.1 L950.0,352.4 L950.3,358.6 L950.5,344.0 L950.8,397.8 L951.0,379.5 L951.3,373.2 L951.5,378.8 L951.7,376.7 L952.0,368.6 L952.2,349.5 L952.5,380.3 L952.7,422.8 L952.9,392.9 L953.2,378.4 L953.4,351.1 L953.7,362.6 L953.9,389.8 L954.1,405.7 L954.4,402.3 L954.6,399.0 L954.9,364.2 L955.1,406.7 L955.4,361.1 L955.6,397.8 L955.8,420.1 L956.1,405.4 L956.3,390.5 L956.6,380.3 L956.8,400.1 L957.0,394.9 L957.3,403.4 L957.5,372.1 L957.8,362.4 L958.0,406.7 L958.3,383.9 L958.5,400.8 L958.7,361.1 L959.0,384.4 L959.2,357.6 L959.5,376.5 L959.7,373.8 L959.9,382.2 L960.2,378.9 L960.4,390.9 L960.7,405.0 L960.9,355.6 L961.1,373.5 L961.4,406.7 L961.6,419.7 L961.9,368.6 L962.1,377.6 L962.4,416.4 L962.6,371.8 L962.8,419.7 L963.1,367.3 L963.3,426.7 L963.6,376.8 L963.8,393.1 L964.0,421.4 L964.3,422.0 L964.5,416.3 L964.8,386.6 L965.0,419.0 L965.3,402.6 L965.5,406.7 L965.7,435.5 L966.0,385.1 L966.2,365.8 L966.5,369.6 L966.7,393.4 L966.9,413.6 L967.2,397.2 L967.4,376.5 L967.7,419.7 L967.9,421.0 L968.1,387.0 L968.4,402.7 L968.6,368.7 L968.9,408.5 L969.1,397.2 L969.4,413.7 L969.6,386.2 L969.8,384.7 L970.1,410.9 L970.3,380.2 L970.6,380.5 L970.8,401.3 L971.0,382.5 L971.3,395.5 L971.5,413.5 L971.8,441.8 L972.0,411.0 L972.2,427.0 L972.5,418.6 L972.7,396.9 L973.0,386.8 L973.2,428.2 L973.5,392.2 L973.7,424.4 L973.9,411.1 L974.2,402.0 L974.4,409.2 L974.7,432.1 L974.9,435.4 L975.1,395.5 L975.4,386.3 L975.6,388.1 L975.9,436.5 L976.1,445.1 L976.4,444.7 L976.6,392.3 L976.8,388.2 L977.1,403.7 L977.3,407.9 L977.6,445.9 L977.8,410.2 L978.0,384.9 L978.3,442.8 L978.5,389.1 L978.8,426.3 L979.0,446.5 L979.2,416.5 L979.5,398.0 L979.7,444.1 L980.0,415.3 L980.2,428.2 L980.5,388.7 L980.7,421.8 L980.9,436.9 L981.2,414.0 L981.4,438.6 L981.7,414.3 L981.9,439.7 L982.1,428.9 L982.4,411.6 L982.6,417.7 L982.9,441.9 L983.1,409.5 L983.4,451.4 L983.6,413.0 L983.8,417.2 L984.1,431.3 L984.3,391.0 L984.6,390.8 L984.8,407.4 L985.0,420.1 L985.3,399.0 L985.5,438.4 L985.8,404.6 L986.0,441.8 L986.2,439.1 L986.5,435.0 L986.7,435.0 L987.0,446.7 L987.2,412.4 L987.5,436.9 L987.7,423.7 L987.9,396.3 L988.2,415.2 L988.4,401.7 L988.7,455.1 L988.9,402.1 L989.1,439.4 L989.4,442.1 L989.6,420.4 L989.9,412.2 L990.1,403.9 L990.4,440.9 L990.6,449.9 L990.8,411.4 L991.1,418.4 L991.3,422.3 L991.6,432.4 L991.8,405.6 L992.0,426.0 L992.3,441.8 L992.5,444.6 L992.8,413.0 L993.0,450.8 L993.2,444.6 L993.5,458.9 L993.7,432.4 L994.0,412.7 L994.2,426.5 L994.5,452.8 L994.7,444.2 L994.9,412.1 L995.2,457.4 L995.4,462.8 L995.7,430.5 L995.9,441.3 L996.1,418.6 L996.4,453.8 L996.6,455.3 L996.9,428.5 L997.1,424.0 L997.4,431.5 L997.6,415.8 L997.8,438.8 L998.1,431.0 L998.3,452.7 L998.6,428.1 L998.8,421.0 L999.0,418.7 L999.3,440.5 L999.5,417.6 L999.8,421.4 L1000.0,438.5 L1000.2,430.8 L1000.5,434.9 L1000.7,441.6 L1001.0,459.4 L1001.2,450.9 L1001.5,447.7 L1001.7,458.9 L1001.9,417.9 L1002.2,461.4 L1002.4,447.8 L1002.7,448.4 L1002.9,447.6 L1003.1,452.7 L1003.4,425.4 L1003.6,420.4 L1003.9,462.9 L1004.1,443.6 L1004.4,432.4 L1004.6,460.2 L1004.8,450.1 L1005.1,469.9 L1005.3,435.0 L1005.6,424.6 L1005.8,431.7 L1006.0,463.2 L1006.3,464.1 L1006.5,444.9 L1006.8,460.2 L1007.0,465.0 L1007.2,442.9 L1007.5,435.1 L1007.7,442.4 L1008.0,441.2 L1008.2,431.8 L1008.5,470.7 L1008.7,447.1 L1008.9,453.8 L1009.2,459.7 L1009.4,465.7 L1009.7,445.4 L1009.9,465.6 L1010.1,456.7 L1010.4,465.2 L1010.6,464.6 L1010.9,470.4 L1011.1,449.4 L1011.4,468.4 L1011.6,475.0 L1011.8,459.7 L1012.1,451.4 L1012.3,450.8 L1012.6,472.5 L1012.8,439.5 L1013.0,444.0 L1013.3,475.3 L1013.5,445.6 L1013.8,464.6 L1014.0,458.9 L1014.2,468.4 L1014.5,479.1 L1014.7,450.6 L1015.0,456.4 L1015.2,462.0 L1015.5,460.9 L1015.7,444.6 L1015.9,470.0 L1016.2,472.0 L1016.4,455.2 L1016.7,446.4 L1016.9,441.1 L1017.1,471.9 L1017.4,481.7 L1017.6,482.1 L1017.9,445.2 L1018.1,463.0 L1018.3,460.0 L1018.6,462.8 L1018.8,450.7 L1019.1,458.0 L1019.3,462.0 L1019.6,477.5 L1019.8,456.3 L1020.0,478.2 L1020.3,480.9 L1020.5,477.1 L1020.8,452.6 L1021.0,483.2 L1021.2,474.2 L1021.5,449.1 L1021.7,467.4 L1022.0,470.3 L1022.2,455.1 L1022.5,449.4 L1022.7,449.3 L1022.9,476.2 L1023.2,457.5 L1023.4,467.8 L1023.7,487.9 L1023.9,463.3 L1024.1,476.9 L1024.4,459.1 L1024.6,462.7 L1024.9,459.6 L1025.1,488.4 L1025.3,463.1 L1025.6,479.8 L1025.8,478.2 L1026.1,468.4 L1026.3,480.6 L1026.6,476.5 L1026.8,487.9 L1027.0,471.3 L1027.3,466.2 L1027.5,464.4 L1027.8,479.0 L1028.0,468.3 L1028.2,463.1 L1028.5,492.1 L1028.7,478.1 L1029.0,469.2 L1029.2,480.3 L1029.5,464.3 L1029.7,482.2 L1029.9,481.6 L1030.2,491.9 L1030.4,480.2 L1030.7,464.8 L1030.9,463.2 L1031.1,481.0 L1031.4,483.5 L1031.6,471.9 L1031.9,479.7 L1032.1,497.0 L1032.3,475.2 L1032.6,480.9 L1032.8,486.0 L1033.1,471.0 L1033.3,483.1 L1033.6,468.3 L1033.8,474.6 L1034.0,498.0 L1034.3,490.2 L1034.5,467.9 L1034.8,472.7 L1035.0,483.7 L1035.2,489.1 L1035.5,482.6 L1035.7,491.5 L1036.0,496.2 L1036.2,497.5 L1036.5,472.0 L1036.7,478.9 L1036.9,471.6 L1037.2,499.9 L1037.4,491.0 L1037.7,477.4 L1037.9,473.2 L1038.1,501.6 L1038.4,476.6 L1038.6,485.7 L1038.9,492.1 L1039.1,501.7 L1039.3,494.3 L1039.6,485.6 L1039.8,501.4 L1040.1,485.1 L1040.3,503.8 L1040.6,502.7 L1040.8,481.3 L1041.0,482.7 L1041.3,487.0 L1041.5,492.0 L1041.8,499.1 L1042.0,488.3 L1042.2,504.8 L1042.5,505.5 L1042.7,492.0 L1043.0,491.7 L1043.2,505.9 L1043.5,491.3 L1043.7,499.9 L1043.9,482.6 L1044.2,485.1 L1044.4,494.3 L1044.7,487.4 L1044.9,496.2 L1045.1,500.8 L1045.4,507.7 L1045.6,497.1 L1045.9,486.6 L1046.1,498.5 L1046.3,486.7 L1046.6,506.0 L1046.8,497.5 L1047.1,489.7 L1047.3,488.2 L1047.6,490.1 L1047.8,491.8 L1048.0,491.4 L1048.3,502.2 L1048.5,496.9 L1048.8,494.0 L1049.0,502.9 L1049.2,509.3 L1049.5,494.4 L1049.7,495.7 L1050.0,498.2 L1050.2,512.7 L1050.5,494.6 L1050.7,511.9 L1050.9,500.8 L1051.2,510.9 L1051.4,514.3 L1051.7,511.8 L1051.9,497.9 L1052.1,510.2 L1052.4,496.1 L1052.6,500.5 L1052.9,512.6 L1053.1,496.7 L1053.3,500.7 L1053.6,507.4 L1053.8,515.7 L1054.1,498.8 L1054.3,511.7 L1054.6,507.5 L1054.8,514.6 L1055.0,517.2 L1055.3,512.1 L1055.5,513.8 L1055.8,511.9 L1056.0,501.3 L1056.2,507.6 L1056.5,503.1 L1056.7,514.0 L1057.0,516.2 L1057.2,506.9 L1057.5,518.8 L1057.7,511.8 L1057.9,519.9 L1058.2,517.8 L1058.4,514.3 L1058.7,512.5 L1058.9,505.3 L1059.1,506.1 L1059.4,521.1 L1059.6,520.3 L1059.9,521.5 L1060.1,514.6 L1060.3,521.7 L1060.6,517.7 L1060.8,512.4 L1061.1,521.2 L1061.3,510.9 L1061.6,522.4 L1061.8,513.1 L1062.0,523.1 L1062.3,514.6 L1062.5,513.4 L1062.8,516.4 L1063.0,521.7 L1063.2,518.2 L1063.5,512.9 L1063.7,516.6 L1064.0,517.1 L1064.2,519.3 L1064.4,523.0 L1064.7,518.6 L1064.9,514.4 L1065.2,517.8 L1065.4,526.6 L1065.7,520.5 L1065.9,522.1 L1066.1,516.2 L1066.4,516.6 L1066.6,519.4 L1066.9,516.6 L1067.1,527.2 L1067.3,517.0 L1067.6,523.2 L1067.8,525.1 L1068.1,519.4 L1068.3,521.8 L1068.6,522.5 L1068.8,528.5 L1069.0,526.3 L1069.3,523.7 L1069.5,527.5 L1069.8,524.4 L1070.0,529.9 L1070.2,531.1 L1070.5,523.5 L1070.7,526.7 L1071.0,523.7 L1071.2,528.6 L1071.4,527.1 L1071.7,529.1 L1071.9,531.2 L1072.2,525.6 L1072.4,533.2 L1072.7,532.2 L1072.9,531.2 L1073.1,529.2 L1073.4,534.1 L1073.6,526.5 L1073.9,528.6 L1074.1,527.7 L1074.3,528.5 L1074.6,530.9 L1074.8,529.7 L1075.1,531.7 L1075.3,534.8 L1075.6,532.2 L1075.8,535.1 L1076.0,536.6 L1076.3,531.8 L1076.5,534.0 L1076.8,532.4 L1077.0,532.7 L1077.2,536.7 L1077.5,536.0 L1077.7,538.0 L1078.0,538.2 L1078.2,538.2 L1078.4,537.8 L1078.7,539.0 L1078.9,535.2 L1079.2,537.4 L1079.4,538.6 L1079.7,538.4 L1079.9,537.6 L1080.1,539.6 L1080.4,540.3 L1080.6,540.0 L1080.9,540.1 L1081.1,538.8 L1081.3,541.1 L1081.6,539.9 L1081.8,539.8 L1082.1,539.4 L1082.3,540.4 L1082.6,540.6 L1082.8,541.1 L1083.0,542.4 L1083.3,542.9 L1083.5,542.2 L1083.8,543.8 L1084.0,542.5" fill="none" stroke="#1f77b4" stroke-width="1.4" opacity="0.85"/><text x="1040" y="54" fill="#ff7f0e" font-size="11">roll 19</text><text x="1090" y="558" fill="#ff7f0e" font-size="11">-18</text><path d="M616.0,313.2 L616.2,311.9 L616.5,313.2 L616.7,313.2 L617.0,310.6 L617.2,314.4 L617.4,310.6 L617.7,310.6 L617.9,314.4 L618.2,311.9 L618.4,313.2 L618.7,313.2 L618.9,311.9 L619.1,310.6 L619.4,313.2 L619.6,314.4 L619.9,311.9 L620.1,309.4 L620.3,313.2 L620.6,309.4 L620.8,311.9 L621.1,313.2 L621.3,309.4 L621.6,314.4 L621.8,314.4 L622.0,314.4 L622.3,313.2 L622.5,311.9 L622.8,310.6 L623.0,314.4 L623.2,314.4 L623.5,310.6 L623.7,310.6 L624.0,314.4 L624.2,311.9 L624.4,310.6 L624.7,314.4 L624.9,313.2 L625.2,313.2 L625.4,311.9 L625.7,310.6 L625.9,309.4 L626.1,309.4 L626.4,313.2 L626.6,310.6 L626.9,313.2 L627.1,313.2 L627.3,311.9 L627.6,309.4 L627.8,309.4 L628.1,314.4 L628.3,313.2 L628.6,313.2 L628.8,309.4 L629.0,313.2 L629.3,314.4 L629.5,314.4 L629.8,313.2 L630.0,311.9 L630.2,310.6 L630.5,311.9 L630.7,310.6 L631.0,309.4 L631.2,310.6 L631.4,308.1 L631.7,308.1 L631.9,313.2 L632.2,309.4 L632.4,309.4 L632.7,311.9 L632.9,311.9 L633.1,308.1 L633.4,308.1 L633.6,311.9 L633.9,308.1 L634.1,311.9 L634.3,311.9 L634.6,308.1 L634.8,313.2 L635.1,308.1 L635.3,308.1 L635.6,311.9 L635.8,308.1 L636.0,311.9 L636.3,308.1 L636.5,311.9 L636.8,314.4 L637.0,311.9 L637.2,310.6 L637.5,311.9 L637.7,311.9 L638.0,309.4 L638.2,314.4 L638.4,313.2 L638.7,308.1 L638.9,311.9 L639.2,308.1 L639.4,314.4 L639.7,313.2 L639.9,309.4 L640.1,306.8 L640.4,311.9 L640.6,308.1 L640.9,310.6 L641.1,313.2 L641.3,308.1 L641.6,310.6 L641.8,310.6 L642.1,310.6 L642.3,306.8 L642.5,309.4 L642.8,306.8 L643.0,311.9 L643.3,306.8 L643.5,313.2 L643.8,311.9 L644.0,306.8 L644.2,306.8 L644.5,309.4 L644.7,313.2 L645.0,309.4 L645.2,311.9 L645.4,310.6 L645.7,309.4 L645.9,310.6 L646.2,309.4 L646.4,313.2 L646.7,308.1 L646.9,308.1 L647.1,308.1 L647.4,306.8 L647.6,310.6 L647.9,309.4 L648.1,311.9 L648.3,309.4 L648.6,306.8 L648.8,306.8 L649.1,306.8 L649.3,310.6 L649.5,313.2 L649.8,309.4 L650.0,311.9 L650.3,310.6 L650.5,311.9 L650.8,310.6 L651.0,313.2 L651.2,313.2 L651.5,309.4 L651.7,308.1 L652.0,311.9 L652.2,309.4 L652.4,309.4 L652.7,309.4 L652.9,308.1 L653.2,308.1 L653.4,308.1 L653.7,313.2 L653.9,310.6 L654.1,309.4 L654.4,310.6 L654.6,308.1 L654.9,310.6 L655.1,306.8 L655.3,305.6 L655.6,309.4 L655.8,309.4 L656.1,309.4 L656.3,308.1 L656.5,313.2 L656.8,313.2 L657.0,305.6 L657.3,306.8 L657.5,310.6 L657.8,309.4 L658.0,310.6 L658.2,311.9 L658.5,305.6 L658.7,305.6 L659.0,305.6 L659.2,306.8 L659.4,306.8 L659.7,311.9 L659.9,306.8 L660.2,308.1 L660.4,306.8 L660.7,305.6 L660.9,310.6 L661.1,310.6 L661.4,310.6 L661.6,305.6 L661.9,310.6 L662.1,305.6 L662.3,305.6 L662.6,308.1 L662.8,310.6 L663.1,305.6 L663.3,310.6 L663.5,309.4 L663.8,309.4 L664.0,309.4 L664.3,310.6 L664.5,308.1 L664.8,311.9 L665.0,306.8 L665.2,308.1 L665.5,310.6 L665.7,308.1 L666.0,310.6 L666.2,309.4 L666.4,311.9 L666.7,308.1 L666.9,308.1 L667.2,313.2 L667.4,309.4 L667.7,306.8 L667.9,306.8 L668.1,311.9 L668.4,313.2 L668.6,306.8 L668.9,306.8 L669.1,306.8 L669.3,309.4 L669.6,310.6 L669.8,310.6 L670.1,309.4 L670.3,311.9 L670.5,309.4 L670.8,313.2 L671.0,308.1 L671.3,309.4 L671.5,311.9 L671.8,313.2 L672.0,311.9 L672.2,313.2 L672.5,309.4 L672.7,309.4 L673.0,313.2 L673.2,311.9 L673.4,311.9 L673.7,311.9 L673.9,314.4 L674.2,310.6 L674.4,314.4 L674.7,311.9 L674.9,308.1 L675.1,311.9 L675.4,309.4 L675.6,311.9 L675.9,311.9 L676.1,310.6 L676.3,309.4 L676.6,311.9 L676.8,310.6 L677.1,309.4 L677.3,314.4 L677.5,311.9 L677.8,310.6 L678.0,309.4 L678.3,314.4 L678.5,314.4 L678.8,310.6 L679.0,310.6 L679.2,310.6 L679.5,309.4 L679.7,314.4 L680.0,314.4 L680.2,310.6 L680.4,310.6 L680.7,309.4 L680.9,313.2 L681.2,311.9 L681.4,313.2 L681.7,310.6 L681.9,314.4 L682.1,310.6 L682.4,309.4 L682.6,313.2 L682.9,309.4 L683.1,313.2 L683.3,313.2 L683.6,311.9 L683.8,314.4 L684.1,313.2 L684.3,314.4 L684.5,313.2 L684.8,308.1 L685.0,310.6 L685.3,311.9 L685.5,313.2 L685.8,309.4 L686.0,311.9 L686.2,314.4 L686.5,311.9 L686.7,311.9 L687.0,309.4 L687.2,313.2 L687.4,314.4 L687.7,311.9 L687.9,311.9 L688.2,309.4 L688.4,313.2 L688.6,313.2 L688.9,313.2 L689.1,314.4 L689.4,313.2 L689.6,313.2 L689.9,309.4 L690.1,311.9 L690.3,301.8 L690.6,299.2 L690.8,276.4 L691.1,267.5 L691.3,261.2 L691.5,233.3 L691.8,235.8 L692.0,252.3 L692.3,230.7 L692.5,197.8 L692.8,226.9 L693.0,226.9 L693.2,210.4 L693.5,197.8 L693.7,177.5 L694.0,196.5 L694.2,183.8 L694.4,182.5 L694.7,147.0 L694.9,202.8 L695.2,139.4 L695.4,206.6 L695.6,143.2 L695.9,173.7 L696.1,166.0 L696.4,159.7 L696.6,144.5 L696.9,188.9 L697.1,167.3 L697.3,188.9 L697.6,136.9 L697.8,129.3 L698.1,178.7 L698.3,143.2 L698.5,177.5 L698.8,154.6 L699.0,173.7 L699.3,117.9 L699.5,195.2 L699.8,155.9 L700.0,119.1 L700.2,133.1 L700.5,181.3 L700.7,145.8 L701.0,171.1 L701.2,110.2 L701.4,209.2 L701.7,191.4 L701.9,143.2 L702.2,159.7 L702.4,183.8 L702.6,135.6 L702.9,159.7 L703.1,181.3 L703.4,185.1 L703.6,183.8 L703.9,191.4 L704.1,172.4 L704.3,191.4 L704.6,169.9 L704.8,116.6 L705.1,186.3 L705.3,145.8 L705.5,194.0 L705.8,210.4 L706.0,139.4 L706.3,196.5 L706.5,167.3 L706.8,144.5 L707.0,139.4 L707.2,157.2 L707.5,128.0 L707.7,194.0 L708.0,139.4 L708.2,194.0 L708.4,144.5 L708.7,145.8 L708.9,197.8 L709.2,154.6 L709.4,133.1 L709.6,201.6 L709.9,153.4 L710.1,213.0 L710.4,174.9 L710.6,191.4 L710.9,206.6 L711.1,209.2 L711.3,187.6 L711.6,205.4 L711.8,196.5 L712.1,215.5 L712.3,147.0 L712.5,176.2 L712.8,214.2 L713.0,185.1 L713.3,223.1 L713.5,219.3 L713.8,185.1 L714.0,220.6 L714.2,200.3 L714.5,220.6 L714.7,206.6 L715.0,199.0 L715.2,190.1 L715.4,173.7 L715.7,192.7 L715.9,220.6 L716.2,242.1 L716.4,270.0 L716.6,285.3 L716.9,294.1 L717.1,310.6 L717.4,315.7 L717.6,332.2 L717.9,343.6 L718.1,346.1 L718.3,380.4 L718.6,384.2 L718.8,382.9 L719.1,375.3 L719.3,393.1 L719.5,391.8 L719.8,410.8 L720.0,417.2 L720.3,454.0 L720.5,410.8 L720.8,448.9 L721.0,421.0 L721.2,469.2 L721.5,414.6 L721.7,446.3 L722.0,415.9 L722.2,418.4 L722.4,459.0 L722.7,440.0 L722.9,423.5 L723.2,479.3 L723.4,495.8 L723.6,417.2 L723.9,428.6 L724.1,455.2 L724.4,497.1 L724.6,490.7 L724.9,459.0 L725.1,433.7 L725.3,446.3 L725.6,513.6 L725.8,488.2 L726.1,495.8 L726.3,440.0 L726.5,467.9 L726.8,454.0 L727.0,512.3 L727.3,508.5 L727.5,450.1 L727.8,493.3 L728.0,464.1 L728.2,457.8 L728.5,519.9 L728.7,494.5 L729.0,460.3 L729.2,514.8 L729.4,484.4 L729.7,455.2 L729.9,438.7 L730.2,483.1 L730.4,456.5 L730.6,471.7 L730.9,507.2 L731.1,486.9 L731.4,513.6 L731.6,478.0 L731.9,483.1 L732.1,531.3 L732.3,455.2 L732.6,441.3 L732.8,475.5 L733.1,455.2 L733.3,473.0 L733.5,516.1 L733.8,525.0 L734.0,500.9 L734.3,502.1 L734.5,469.2 L734.7,536.4 L735.0,441.3 L735.2,446.3 L735.5,448.9 L735.7,499.6 L736.0,479.3 L736.2,523.7 L736.4,497.1 L736.7,480.6 L736.9,466.6 L737.2,451.4 L737.4,544.0 L737.6,479.3 L737.9,478.0 L738.1,518.6 L738.4,460.3 L738.6,532.6 L738.9,462.8 L739.1,462.8 L739.3,484.4 L739.6,488.2 L739.8,527.5 L740.1,493.3 L740.3,494.5 L740.5,526.2 L740.8,486.9 L741.0,445.1 L741.3,483.1 L741.5,459.0 L741.7,530.0 L742.0,440.0 L742.2,473.0 L742.5,502.1 L742.7,470.4 L743.0,503.4 L743.2,454.0 L743.4,519.9 L743.7,428.6 L743.9,431.1 L744.2,464.1 L744.4,490.7 L744.6,504.7 L744.9,448.9 L745.1,490.7 L745.4,443.8 L745.6,488.2 L745.9,462.8 L746.1,465.4 L746.3,517.4 L746.6,445.1 L746.8,445.1 L747.1,470.4 L747.3,506.0 L747.5,480.6 L747.8,476.8 L748.0,442.5 L748.3,459.0 L748.5,445.1 L748.7,499.6 L749.0,460.3 L749.2,464.1 L749.5,500.9 L749.7,511.0 L750.0,484.4 L750.2,492.0 L750.4,476.8 L750.7,522.4 L750.9,469.2 L751.2,504.7 L751.4,508.5 L751.6,470.4 L751.9,486.9 L752.1,538.9 L752.4,513.6 L752.6,440.0 L752.9,479.3 L753.1,531.3 L753.3,481.9 L753.6,488.2 L753.8,469.2 L754.1,457.8 L754.3,484.4 L754.5,523.7 L754.8,448.9 L755.0,494.5 L755.3,461.6 L755.5,481.9 L755.7,488.2 L756.0,471.7 L756.2,464.1 L756.5,486.9 L756.7,508.5 L757.0,469.2 L757.2,442.5 L757.4,414.6 L757.7,419.7 L757.9,375.3 L758.2,389.3 L758.4,365.2 L758.6,334.7 L758.9,329.7 L759.1,315.7 L759.4,299.2 L759.6,286.5 L759.9,273.9 L760.1,280.2 L760.3,251.0 L760.6,257.4 L760.8,220.6 L761.1,258.6 L761.3,238.3 L761.5,196.5 L761.8,213.0 L762.0,232.0 L762.3,174.9 L762.5,195.2 L762.7,188.9 L763.0,190.1 L763.2,216.8 L763.5,211.7 L763.7,135.6 L764.0,220.6 L764.2,164.8 L764.4,218.0 L764.7,147.0 L764.9,210.4 L765.2,152.1 L765.4,181.3 L765.6,214.2 L765.9,161.0 L766.1,192.7 L766.4,194.0 L766.6,190.1 L766.9,129.3 L767.1,135.6 L767.3,194.0 L767.6,144.5 L767.8,143.2 L768.1,140.7 L768.3,187.6 L768.5,153.4 L768.8,148.3 L769.0,191.4 L769.3,119.1 L769.5,185.1 L769.7,194.0 L770.0,154.6 L770.2,197.8 L770.5,122.9 L770.7,192.7 L771.0,186.3 L771.2,129.3 L771.4,158.4 L771.7,139.4 L771.9,182.5 L772.2,128.0 L772.4,162.2 L772.6,139.4 L772.9,119.1 L773.1,147.0 L773.4,157.2 L773.6,105.2 L773.9,157.2 L774.1,143.2 L774.3,129.3 L774.6,152.1 L774.8,176.2 L775.1,147.0 L775.3,121.7 L775.5,176.2 L775.8,155.9 L776.0,96.3 L776.3,121.7 L776.5,117.9 L776.7,121.7 L777.0,114.0 L777.2,155.9 L777.5,106.4 L777.7,128.0 L778.0,96.3 L778.2,148.3 L778.4,171.1 L778.7,131.8 L778.9,95.0 L779.2,173.7 L779.4,121.7 L779.6,166.0 L779.9,158.4 L780.1,115.3 L780.4,192.7 L780.6,135.6 L780.8,159.7 L781.1,131.8 L781.3,164.8 L781.6,105.2 L781.8,167.3 L782.1,117.9 L782.3,134.3 L782.5,128.0 L782.8,176.2 L783.0,177.5 L783.3,128.0 L783.5,133.1 L783.7,153.4 L784.0,112.8 L784.2,147.0 L784.5,112.8 L784.7,120.4 L785.0,114.0 L785.2,140.7 L785.4,167.3 L785.7,149.6 L785.9,126.7 L786.2,155.9 L786.4,117.9 L786.6,140.7 L786.9,163.5 L787.1,77.3 L787.4,145.8 L787.6,161.0 L787.8,110.2 L788.1,126.7 L788.3,111.5 L788.6,183.8 L788.8,138.1 L789.1,166.0 L789.3,93.8 L789.5,148.3 L789.8,161.0 L790.0,164.8 L790.3,102.6 L790.5,129.3 L790.7,147.0 L791.0,136.9 L791.2,107.7 L791.5,166.0 L791.7,135.6 L792.0,143.2 L792.2,98.8 L792.4,162.2 L792.7,139.4 L792.9,128.0 L793.2,128.0 L793.4,154.6 L793.6,144.5 L793.9,144.5 L794.1,143.2 L794.4,83.6 L794.6,102.6 L794.8,164.8 L795.1,172.4 L795.3,162.2 L795.6,136.9 L795.8,98.8 L796.1,180.0 L796.3,131.8 L796.5,171.1 L796.8,133.1 L797.0,103.9 L797.3,130.5 L797.5,102.6 L797.7,109.0 L798.0,121.7 L798.2,98.8 L798.5,168.6 L798.7,95.0 L799.0,161.0 L799.2,174.9 L799.4,153.4 L799.7,130.5 L799.9,133.1 L800.2,183.8 L800.4,148.3 L800.6,128.0 L800.9,111.5 L801.1,98.8 L801.4,178.7 L801.6,183.8 L801.8,133.1 L802.1,147.0 L802.3,139.4 L802.6,135.6 L802.8,135.6 L803.1,154.6 L803.3,125.5 L803.5,145.8 L803.8,93.8 L804.0,95.0 L804.3,144.5 L804.5,129.3 L804.7,119.1 L805.0,177.5 L805.2,144.5 L805.5,131.8 L805.7,176.2 L806.0,157.2 L806.2,128.0 L806.4,98.8 L806.7,138.1 L806.9,95.0 L807.2,105.2 L807.4,112.8 L807.6,142.0 L807.9,115.3 L808.1,128.0 L808.4,163.5 L808.6,124.2 L808.8,98.8 L809.1,174.9 L809.3,112.8 L809.6,169.9 L809.8,180.0 L810.1,130.5 L810.3,126.7 L810.5,180.0 L810.8,169.9 L811.0,152.1 L811.3,161.0 L811.5,107.7 L811.7,149.6 L812.0,110.2 L812.2,139.4 L812.5,161.0 L812.7,136.9 L813.0,145.8 L813.2,145.8 L813.4,111.5 L813.7,128.0 L813.9,87.4 L814.2,140.7 L814.4,129.3 L814.6,161.0 L814.9,131.8 L815.1,133.1 L815.4,136.9 L815.6,150.8 L815.8,92.5 L816.1,125.5 L816.3,111.5 L816.6,88.7 L816.8,115.3 L817.1,124.2 L817.3,106.4 L817.5,163.5 L817.8,96.3 L818.0,111.5 L818.3,167.3 L818.5,107.7 L818.7,106.4 L819.0,121.7 L819.2,88.7 L819.5,97.6 L819.7,135.6 L820.0,126.7 L820.2,124.2 L820.4,154.6 L820.7,97.6 L820.9,150.8 L821.2,169.9 L821.4,100.1 L821.6,162.2 L821.9,143.2 L822.1,161.0 L822.4,177.5 L822.6,143.2 L822.8,105.2 L823.1,98.8 L823.3,121.7 L823.6,149.6 L823.8,138.1 L824.1,177.5 L824.3,103.9 L824.5,182.5 L824.8,163.5 L825.0,166.0 L825.3,136.9 L825.5,101.4 L825.7,149.6 L826.0,111.5 L826.2,154.6 L826.5,155.9 L826.7,159.7 L826.9,144.5 L827.2,131.8 L827.4,152.1 L827.7,82.3 L827.9,128.0 L828.2,111.5 L828.4,121.7 L828.6,138.1 L828.9,100.1 L829.1,97.6 L829.4,93.8 L829.6,106.4 L829.8,177.5 L830.1,114.0 L830.3,97.6 L830.6,117.9 L830.8,114.0 L831.1,95.0 L831.3,131.8 L831.5,117.9 L831.8,164.8 L832.0,81.1 L832.3,190.1 L832.5,180.0 L832.7,135.6 L833.0,176.2 L833.2,168.6 L833.5,168.6 L833.7,97.6 L833.9,164.8 L834.2,144.5 L834.4,110.2 L834.7,178.7 L834.9,162.2 L835.2,100.1 L835.4,183.8 L835.6,190.1 L835.9,176.2 L836.1,173.7 L836.4,178.7 L836.6,130.5 L836.8,152.1 L837.1,148.3 L837.3,93.8 L837.6,138.1 L837.8,128.0 L838.1,164.8 L838.3,120.4 L838.5,157.2 L838.8,176.2 L839.0,177.5 L839.3,157.2 L839.5,78.5 L839.7,186.3 L840.0,150.8 L840.2,136.9 L840.5,110.2 L840.7,158.4 L840.9,114.0 L841.2,147.0 L841.4,102.6 L841.7,140.7 L841.9,191.4 L842.2,161.0 L842.4,130.5 L842.6,145.8 L842.9,142.0 L843.1,133.1 L843.4,117.9 L843.6,103.9 L843.8,162.2 L844.1,167.3 L844.3,159.7 L844.6,101.4 L844.8,106.4 L845.1,180.0 L845.3,130.5 L845.5,114.0 L845.8,130.5 L846.0,173.7 L846.3,181.3 L846.5,107.7 L846.7,169.9 L847.0,112.8 L847.2,150.8 L847.5,164.8 L847.7,122.9 L847.9,144.5 L848.2,110.2 L848.4,162.2 L848.7,111.5 L848.9,112.8 L849.2,167.3 L849.4,117.9 L849.6,140.7 L849.9,150.8 L850.1,173.7 L850.4,138.1 L850.6,143.2 L850.8,111.5 L851.1,150.8 L851.3,125.5 L851.6,180.0 L851.8,172.4 L852.1,112.8 L852.3,138.1 L852.5,128.0 L852.8,96.3 L853.0,122.9 L853.3,103.9 L853.5,131.8 L853.7,152.1 L854.0,106.4 L854.2,159.7 L854.5,145.8 L854.7,169.9 L854.9,138.1 L855.2,136.9 L855.4,109.0 L855.7,159.7 L855.9,139.4 L856.2,106.4 L856.4,152.1 L856.6,101.4 L856.9,157.2 L857.1,95.0 L857.4,174.9 L857.6,100.1 L857.8,185.1 L858.1,191.4 L858.3,109.0 L858.6,150.8 L858.8,158.4 L859.1,172.4 L859.3,181.3 L859.5,103.9 L859.8,125.5 L860.0,133.1 L860.3,115.3 L860.5,115.3 L860.7,185.1 L861.0,172.4 L861.2,168.6 L861.5,142.0 L861.7,178.7 L861.9,139.4 L862.2,106.4 L862.4,161.0 L862.7,124.2 L862.9,142.0 L863.2,182.5 L863.4,97.6 L863.6,191.4 L863.9,183.8 L864.1,135.6 L864.4,154.6 L864.6,157.2 L864.8,138.1 L865.1,100.1 L865.3,134.3 L865.6,155.9 L865.8,180.0 L866.1,86.1 L866.3,192.7 L866.5,181.3 L866.8,152.1 L867.0,158.4 L867.3,95.0 L867.5,143.2 L867.7,133.1 L868.0,102.6 L868.2,136.9 L868.5,135.6 L868.7,130.5 L868.9,112.8 L869.2,174.9 L869.4,143.2 L869.7,133.1 L869.9,103.9 L870.2,128.0 L870.4,126.7 L870.6,173.7 L870.9,114.0 L871.1,133.1 L871.4,114.0 L871.6,152.1 L871.8,112.8 L872.1,100.1 L872.3,149.6 L872.6,159.7 L872.8,107.7 L873.1,115.3 L873.3,105.2 L873.5,169.9 L873.8,114.0 L874.0,115.3 L874.3,178.7 L874.5,96.3 L874.7,148.3 L875.0,111.5 L875.2,172.4 L875.5,126.7 L875.7,133.1 L875.9,182.5 L876.2,159.7 L876.4,181.3 L876.7,152.1 L876.9,114.0 L877.2,162.2 L877.4,183.8 L877.6,109.0 L877.9,129.3 L878.1,136.9 L878.4,144.5 L878.6,139.4 L878.8,147.0 L879.1,154.6 L879.3,147.0 L879.6,107.7 L879.8,124.2 L880.0,122.9 L880.3,159.7 L880.5,103.9 L880.8,152.1 L881.0,134.3 L881.3,83.6 L881.5,134.3 L881.7,130.5 L882.0,91.2 L882.2,148.3 L882.5,135.6 L882.7,107.7 L882.9,128.0 L883.2,157.2 L883.4,96.3 L883.7,109.0 L883.9,135.6 L884.2,154.6 L884.4,98.8 L884.6,101.4 L884.9,100.1 L885.1,153.4 L885.4,136.9 L885.6,90.0 L885.8,133.1 L886.1,174.9 L886.3,120.4 L886.6,129.3 L886.8,133.1 L887.0,88.7 L887.3,190.1 L887.5,105.2 L887.8,176.2 L888.0,158.4 L888.3,169.9 L888.5,139.4 L888.7,142.0 L889.0,180.0 L889.2,110.2 L889.5,155.9 L889.7,144.5 L889.9,143.2 L890.2,107.7 L890.4,138.1 L890.7,106.4 L890.9,159.7 L891.2,136.9 L891.4,143.2 L891.6,185.1 L891.9,180.0 L892.1,90.0 L892.4,138.1 L892.6,128.0 L892.8,166.0 L893.1,139.4 L893.3,135.6 L893.6,177.5 L893.8,144.5 L894.0,153.4 L894.3,177.5 L894.5,117.9 L894.8,143.2 L895.0,122.9 L895.3,139.4 L895.5,122.9 L895.7,100.1 L896.0,111.5 L896.2,169.9 L896.5,121.7 L896.7,111.5 L896.9,173.7 L897.2,152.1 L897.4,107.7 L897.7,180.0 L897.9,109.0 L898.2,120.4 L898.4,110.2 L898.6,192.7 L898.9,119.1 L899.1,121.7 L899.4,171.1 L899.6,139.4 L899.8,131.8 L900.1,149.6 L900.3,117.9 L900.6,185.1 L900.8,148.3 L901.0,157.2 L901.3,177.5 L901.5,173.7 L901.8,91.2 L902.0,166.0 L902.3,171.1 L902.5,183.8 L902.7,148.3 L903.0,97.6 L903.2,143.2 L903.5,158.4 L903.7,158.4 L903.9,91.2 L904.2,176.2 L904.4,111.5 L904.7,148.3 L904.9,178.7 L905.2,136.9 L905.4,115.3 L905.6,136.9 L905.9,138.1 L906.1,106.4 L906.4,138.1 L906.6,154.6 L906.8,162.2 L907.1,177.5 L907.3,138.1 L907.6,169.9 L907.8,174.9 L908.0,119.1 L908.3,136.9 L908.5,136.9 L908.8,124.2 L909.0,124.2 L909.3,109.0 L909.5,117.9 L909.7,84.9 L910.0,124.2 L910.2,126.7 L910.5,87.4 L910.7,131.8 L910.9,103.9 L911.2,124.2 L911.4,129.3 L911.7,122.9 L911.9,79.8 L912.2,161.0 L912.4,149.6 L912.6,144.5 L912.9,149.6 L913.1,95.0 L913.4,126.7 L913.6,155.9 L913.8,129.3 L914.1,176.2 L914.3,166.0 L914.6,112.8 L914.8,139.4 L915.0,133.1 L915.3,133.1 L915.5,119.1 L915.8,150.8 L916.0,128.0 L916.3,83.6 L916.5,114.0 L916.7,164.8 L917.0,112.8 L917.2,157.2 L917.5,87.4 L917.7,110.2 L917.9,172.4 L918.2,117.9 L918.4,161.0 L918.7,168.6 L918.9,166.0 L919.2,143.2 L919.4,107.7 L919.6,138.1 L919.9,98.8 L920.1,116.6 L920.4,181.3 L920.6,122.9 L920.8,157.2 L921.1,158.4 L921.3,92.5 L921.6,190.1 L921.8,155.9 L922.0,178.7 L922.3,140.7 L922.5,176.2 L922.8,116.6 L923.0,140.7 L923.3,140.7 L923.5,131.8 L923.7,111.5 L924.0,139.4 L924.2,129.3 L924.5,150.8 L924.7,166.0 L924.9,138.1 L925.2,129.3 L925.4,144.5 L925.7,87.4 L925.9,133.1 L926.1,90.0 L926.4,130.5 L926.6,172.4 L926.9,161.0 L927.1,134.3 L927.4,103.9 L927.6,126.7 L927.8,121.7 L928.1,92.5 L928.3,181.3 L928.6,167.3 L928.8,166.0 L929.0,134.3 L929.3,106.4 L929.5,114.0 L929.8,145.8 L930.0,91.2 L930.3,190.1 L930.5,114.0 L930.7,145.8 L931.0,134.3 L931.2,142.0 L931.5,178.7 L931.7,120.4 L931.9,157.2 L932.2,154.6 L932.4,157.2 L932.7,130.5 L932.9,159.7 L933.1,126.7 L933.4,128.0 L933.6,93.8 L933.9,136.9 L934.1,93.8 L934.4,107.7 L934.6,102.6 L934.8,159.7 L935.1,129.3 L935.3,129.3 L935.6,110.2 L935.8,143.2 L936.0,174.9 L936.3,110.2 L936.5,122.9 L936.8,109.0 L937.0,174.9 L937.3,149.6 L937.5,105.2 L937.7,114.0 L938.0,139.4 L938.2,110.2 L938.5,169.9 L938.7,176.2 L938.9,93.8 L939.2,139.4 L939.4,187.6 L939.7,100.1 L939.9,131.8 L940.1,149.6 L940.4,145.8 L940.6,133.1 L940.9,157.2 L941.1,119.1 L941.4,147.0 L941.6,119.1 L941.8,164.8 L942.1,92.5 L942.3,172.4 L942.6,121.7 L942.8,173.7 L943.0,124.2 L943.3,181.3 L943.5,139.4 L943.8,182.5 L944.0,145.8 L944.3,152.1 L944.5,114.0 L944.7,135.6 L945.0,145.8 L945.2,168.6 L945.5,119.1 L945.7,167.3 L945.9,109.0 L946.2,125.5 L946.4,142.0 L946.7,154.6 L946.9,101.4 L947.1,188.9 L947.4,177.5 L947.6,186.3 L947.9,173.7 L948.1,130.5 L948.4,177.5 L948.6,128.0 L948.8,109.0 L949.1,106.4 L949.3,154.6 L949.6,187.6 L949.8,171.1 L950.0,174.9 L950.3,155.9 L950.5,172.4 L950.8,139.4 L951.0,176.2 L951.3,143.2 L951.5,147.0 L951.7,96.3 L952.0,117.9 L952.2,161.0 L952.5,144.5 L952.7,140.7 L952.9,153.4 L953.2,145.8 L953.4,168.6 L953.7,88.7 L953.9,164.8 L954.1,143.2 L954.4,87.4 L954.6,133.1 L954.9,130.5 L955.1,109.0 L955.4,157.2 L955.6,144.5 L955.8,155.9 L956.1,126.7 L956.3,126.7 L956.6,86.1 L956.8,147.0 L957.0,112.8 L957.3,109.0 L957.5,116.6 L957.8,131.8 L958.0,98.8 L958.3,174.9 L958.5,122.9 L958.7,186.3 L959.0,167.3 L959.2,117.9 L959.5,120.4 L959.7,103.9 L959.9,124.2 L960.2,100.1 L960.4,124.2 L960.7,176.2 L960.9,101.4 L961.1,136.9 L961.4,143.2 L961.6,150.8 L961.9,107.7 L962.1,129.3 L962.4,143.2 L962.6,100.1 L962.8,135.6 L963.1,145.8 L963.3,157.2 L963.6,131.8 L963.8,134.3 L964.0,171.1 L964.3,93.8 L964.5,105.2 L964.8,133.1 L965.0,95.0 L965.3,119.1 L965.5,177.5 L965.7,134.3 L966.0,119.1 L966.2,122.9 L966.5,138.1 L966.7,82.3 L966.9,147.0 L967.2,173.7 L967.4,95.0 L967.7,162.2 L967.9,166.0 L968.1,148.3 L968.4,111.5 L968.6,114.0 L968.9,115.3 L969.1,101.4 L969.4,119.1 L969.6,176.2 L969.8,158.4 L970.1,140.7 L970.3,166.0 L970.6,88.7 L970.8,162.2 L971.0,152.1 L971.3,98.8 L971.5,190.1 L971.8,135.6 L972.0,157.2 L972.2,111.5 L972.5,174.9 L972.7,149.6 L973.0,121.7 L973.2,139.4 L973.5,116.6 L973.7,136.9 L973.9,169.9 L974.2,183.8 L974.4,120.4 L974.7,133.1 L974.9,139.4 L975.1,157.2 L975.4,140.7 L975.6,163.5 L975.9,138.1 L976.1,107.7 L976.4,122.9 L976.6,167.3 L976.8,83.6 L977.1,129.3 L977.3,122.9 L977.6,120.4 L977.8,135.6 L978.0,147.0 L978.3,158.4 L978.5,166.0 L978.8,138.1 L979.0,155.9 L979.2,76.0 L979.5,126.7 L979.7,110.2 L980.0,96.3 L980.2,101.4 L980.5,103.9 L980.7,114.0 L980.9,138.1 L981.2,96.3 L981.4,148.3 L981.7,88.7 L981.9,152.1 L982.1,114.0 L982.4,114.0 L982.6,171.1 L982.9,139.4 L983.1,129.3 L983.4,124.2 L983.6,114.0 L983.8,154.6 L984.1,169.9 L984.3,92.5 L984.6,128.0 L984.8,176.2 L985.0,161.0 L985.3,92.5 L985.5,183.8 L985.8,116.6 L986.0,120.4 L986.2,133.1 L986.5,167.3 L986.7,109.0 L987.0,192.7 L987.2,140.7 L987.5,135.6 L987.7,183.8 L987.9,164.8 L988.2,119.1 L988.4,158.4 L988.7,139.4 L988.9,136.9 L989.1,176.2 L989.4,188.9 L989.6,107.7 L989.9,129.3 L990.1,112.8 L990.4,158.4 L990.6,120.4 L990.8,196.5 L991.1,126.7 L991.3,164.8 L991.6,135.6 L991.8,159.7 L992.0,135.6 L992.3,159.7 L992.5,188.9 L992.8,161.0 L993.0,181.3 L993.2,148.3 L993.5,119.1 L993.7,120.4 L994.0,166.0 L994.2,164.8 L994.5,149.6 L994.7,139.4 L994.9,125.5 L995.2,180.0 L995.4,171.1 L995.7,95.0 L995.9,133.1 L996.1,158.4 L996.4,174.9 L996.6,142.0 L996.9,163.5 L997.1,167.3 L997.4,171.1 L997.6,140.7 L997.8,140.7 L998.1,116.6 L998.3,158.4 L998.6,87.4 L998.8,173.7 L999.0,96.3 L999.3,130.5 L999.5,119.1 L999.8,159.7 L1000.0,138.1 L1000.2,115.3 L1000.5,182.5 L1000.7,115.3 L1001.0,138.1 L1001.2,109.0 L1001.5,125.5 L1001.7,161.0 L1001.9,119.1 L1002.2,153.4 L1002.4,126.7 L1002.7,114.0 L1002.9,148.3 L1003.1,103.9 L1003.4,136.9 L1003.6,163.5 L1003.9,169.9 L1004.1,121.7 L1004.4,138.1 L1004.6,185.1 L1004.8,135.6 L1005.1,144.5 L1005.3,173.7 L1005.6,109.0 L1005.8,120.4 L1006.0,176.2 L1006.3,157.2 L1006.5,183.8 L1006.8,171.1 L1007.0,172.4 L1007.2,159.7 L1007.5,166.0 L1007.7,103.9 L1008.0,112.8 L1008.2,173.7 L1008.5,139.4 L1008.7,130.5 L1008.9,167.3 L1009.2,148.3 L1009.4,166.0 L1009.7,115.3 L1009.9,181.3 L1010.1,139.4 L1010.4,178.7 L1010.6,185.1 L1010.9,145.8 L1011.1,102.6 L1011.4,157.2 L1011.6,164.8 L1011.8,109.0 L1012.1,187.6 L1012.3,120.4 L1012.6,144.5 L1012.8,149.6 L1013.0,117.9 L1013.3,158.4 L1013.5,183.8 L1013.8,153.4 L1014.0,191.4 L1014.2,172.4 L1014.5,128.0 L1014.7,183.8 L1015.0,140.7 L1015.2,133.1 L1015.5,126.7 L1015.7,191.4 L1015.9,129.3 L1016.2,177.5 L1016.4,138.1 L1016.7,192.7 L1016.9,180.0 L1017.1,149.6 L1017.4,186.3 L1017.6,150.8 L1017.9,154.6 L1018.1,149.6 L1018.3,205.4 L1018.6,173.7 L1018.8,186.3 L1019.1,195.2 L1019.3,153.4 L1019.6,195.2 L1019.8,107.7 L1020.0,200.3 L1020.3,183.8 L1020.5,159.7 L1020.8,194.0 L1021.0,186.3 L1021.2,145.8 L1021.5,152.1 L1021.7,142.0 L1022.0,177.5 L1022.2,144.5 L1022.5,166.0 L1022.7,120.4 L1022.9,166.0 L1023.2,124.2 L1023.4,185.1 L1023.7,145.8 L1023.9,145.8 L1024.1,167.3 L1024.4,180.0 L1024.6,209.2 L1024.9,144.5 L1025.1,168.6 L1025.3,159.7 L1025.6,157.2 L1025.8,159.7 L1026.1,116.6 L1026.3,173.7 L1026.6,158.4 L1026.8,181.3 L1027.0,181.3 L1027.3,176.2 L1027.5,199.0 L1027.8,150.8 L1028.0,197.8 L1028.2,182.5 L1028.5,190.1 L1028.7,147.0 L1029.0,161.0 L1029.2,180.0 L1029.5,173.7 L1029.7,186.3 L1029.9,164.8 L1030.2,147.0 L1030.4,167.3 L1030.7,143.2 L1030.9,169.9 L1031.1,200.3 L1031.4,163.5 L1031.6,197.8 L1031.9,117.9 L1032.1,188.9 L1032.3,162.2 L1032.6,200.3 L1032.8,196.5 L1033.1,155.9 L1033.3,172.4 L1033.6,196.5 L1033.8,167.3 L1034.0,119.1 L1034.3,176.2 L1034.5,139.4 L1034.8,140.7 L1035.0,204.1 L1035.2,180.0 L1035.5,168.6 L1035.7,178.7 L1036.0,187.6 L1036.2,111.5 L1036.5,192.7 L1036.7,191.4 L1036.9,136.9 L1037.2,190.1 L1037.4,124.2 L1037.7,171.1 L1037.9,136.9 L1038.1,131.8 L1038.4,207.9 L1038.6,168.6 L1038.9,159.7 L1039.1,158.4 L1039.3,188.9 L1039.6,174.9 L1039.8,177.5 L1040.1,167.3 L1040.3,166.0 L1040.6,120.4 L1040.8,162.2 L1041.0,133.1 L1041.3,124.2 L1041.5,194.0 L1041.8,119.1 L1042.0,159.7 L1042.2,153.4 L1042.5,147.0 L1042.7,177.5 L1043.0,143.2 L1043.2,124.2 L1043.5,115.3 L1043.7,162.2 L1043.9,121.7 L1044.2,144.5 L1044.4,144.5 L1044.7,140.7 L1044.9,98.8 L1045.1,196.5 L1045.4,169.9 L1045.6,114.0 L1045.9,155.9 L1046.1,158.4 L1046.3,167.3 L1046.6,152.1 L1046.8,161.0 L1047.1,185.1 L1047.3,139.4 L1047.6,121.7 L1047.8,125.5 L1048.0,197.8 L1048.3,177.5 L1048.5,111.5 L1048.8,204.1 L1049.0,173.7 L1049.2,185.1 L1049.5,135.6 L1049.7,126.7 L1050.0,176.2 L1050.2,130.5 L1050.5,196.5 L1050.7,187.6 L1050.9,155.9 L1051.2,145.8 L1051.4,168.6 L1051.7,171.1 L1051.9,134.3 L1052.1,162.2 L1052.4,202.8 L1052.6,168.6 L1052.9,166.0 L1053.1,143.2 L1053.3,210.4 L1053.6,211.7 L1053.8,197.8 L1054.1,201.6 L1054.3,190.1 L1054.6,213.0 L1054.8,199.0 L1055.0,161.0 L1055.3,213.0 L1055.5,163.5 L1055.8,148.3 L1056.0,194.0 L1056.2,169.9 L1056.5,161.0 L1056.7,196.5 L1057.0,191.4 L1057.2,186.3 L1057.5,173.7 L1057.7,182.5 L1057.9,182.5 L1058.2,183.8 L1058.4,186.3 L1058.7,180.0 L1058.9,114.0 L1059.1,158.4 L1059.4,134.3 L1059.6,182.5 L1059.9,139.4 L1060.1,129.3 L1060.3,200.3 L1060.6,174.9 L1060.8,213.0 L1061.1,186.3 L1061.3,202.8 L1061.6,144.5 L1061.8,174.9 L1062.0,150.8 L1062.3,158.4 L1062.5,128.0 L1062.8,176.2 L1063.0,133.1 L1063.2,154.6 L1063.5,162.2 L1063.7,161.0 L1064.0,206.6 L1064.2,188.9 L1064.4,185.1 L1064.7,191.4 L1064.9,122.9 L1065.2,188.9 L1065.4,200.3 L1065.7,206.6 L1065.9,154.6 L1066.1,148.3 L1066.4,152.1 L1066.6,190.1 L1066.9,166.0 L1067.1,196.5 L1067.3,136.9 L1067.6,176.2 L1067.8,209.2 L1068.1,155.9 L1068.3,157.2 L1068.6,183.8 L1068.8,167.3 L1069.0,161.0 L1069.3,161.0 L1069.5,167.3 L1069.8,192.7 L1070.0,116.6 L1070.2,152.1 L1070.5,158.4 L1070.7,169.9 L1071.0,194.0 L1071.2,188.9 L1071.4,145.8 L1071.7,186.3 L1071.9,129.3 L1072.2,143.2 L1072.4,111.5 L1072.7,194.0 L1072.9,187.6 L1073.1,142.0 L1073.4,183.8 L1073.6,162.2 L1073.9,200.3 L1074.1,190.1 L1074.3,147.0 L1074.6,168.6 L1074.8,144.5 L1075.1,191.4 L1075.3,177.5 L1075.6,139.4 L1075.8,112.8 L1076.0,148.3 L1076.3,155.9 L1076.5,164.8 L1076.8,107.7 L1077.0,207.9 L1077.2,200.3 L1077.5,196.5 L1077.7,187.6 L1078.0,201.6 L1078.2,235.8 L1078.4,186.3 L1078.7,211.7 L1078.9,219.3 L1079.2,220.6 L1079.4,219.3 L1079.7,191.4 L1079.9,190.1 L1080.1,216.8 L1080.4,219.3 L1080.6,220.6 L1080.9,237.1 L1081.1,232.0 L1081.3,235.8 L1081.6,238.3 L1081.8,223.1 L1082.1,246.0 L1082.3,218.0 L1082.6,209.2 L1082.8,224.4 L1083.0,214.2 L1083.3,219.3 L1083.5,256.1 L1083.8,239.6 L1084.0,249.8" fill="none" stroke="#ff7f0e" stroke-width="1.1" opacity="0.85"/><text x="616" y="572" font-size="11" fill="#888">time 0..39 s — altitude (blue) &amp; roll (orange)</text></svg>