<svg xmlns="http://www.w3.org/2000/svg" width="1140" height="600" font-family="sans-serif" font-size="13"><rect width="1140" height="600" fill="white"/><text x="20" y="26" font-size="15" fill="#333">Coludo flight</text><rect x="20" y="40" width="540" height="540" fill="#fbfbfb" stroke="#ddd"/><rect x="50" y="251" width="337" height="72" fill="#cde" stroke="#369" opacity="0.7"/><text x="50" y="246" fill="#369" font-size="12">landing zone</text><circle cx="263" cy="365" r="5" fill="black"/><text x="271" y="369" font-size="12">pad</text><path d="M263.1,364.8 L263.1,364.8 L263.1,364.8 L263.1,364.8 L263.1,364.8 L263.1,364.8 L263.1,364.8 L263.1,364.8 L263.1,364.8 L263.1,364.8 L263.1,364.8 L263.1,364.8 L263.1,364.8 L263.1,364.8 L263.1,364.8 L263.1,364.8 L263.1,364.8 L263.1,364.8 L263.1,364.8 L263.1,364.8 L263.1,364.8 L263.1,364.8 L263.1,364.8 L263.1,364.8 L263.1,364.8 L263.1,364.8 L263.1,364.8 L263.1,364.8 L263.1,364.8 L263.1,364.8 L263.1,364.8 L263.1,364.8 L263.1,364.8 L263.1,364.8 L263.1,364.8 L263.1,364.8 L263.1,364.8 L263.1,364.8 L263.1,364.8 L263.1,364.8 L263.1,364.8 L263.1,364.8 L263.1,364.8 L263.1,364.8 L263.1,364.8 L263.1,364.8 L263.1,364.8 L263.1,364.8 L263.1,364.8 L263.1,364.8 L263.1,364.8 L263.1,364.8 L263.1,364.8 L263.1,364.8 L263.1,364.8 L263.1,364.8 L263.1,364.8 L263.1,364.8 L264.2,363.0 L265.3,361.0 L266.6,359.0 L268.0,356.9 L269.3,355.1 L270.7,353.1 L272.2,351.3 L273.8,349.5 L275.4,347.7 L277.1,346.1 L278.9,344.3 L280.7,342.7 L282.5,341.1 L284.3,339.7 L286.1,338.3 L288.1,336.7 L290.1,335.3 L292.1,333.9 L294.1,332.7 L296.2,331.3 L298.2,330.1 L300.4,328.9 L302.6,327.7 L304.8,326.5 L306.9,325.2 L309.1,324.2 L311.3,323.0 L313.4,322.0 L315.6,320.8 L317.8,319.6 L319.8,318.4 L322.0,317.0 L323.9,315.6 L325.9,314.2 L327.8,312.6 L329.6,311.2 L331.4,309.4 L333.0,307.8 L334.6,306.0 L336.3,304.2 L337.7,302.4 L339.2,300.6 L340.6,298.6 L341.9,296.6 L343.1,294.6 L344.2,292.5 L345.3,290.3 L346.4,288.1 L347.3,285.9 L348.2,283.7 L348.9,281.5 L349.7,279.3 L350.2,276.9 L350.7,274.5 L351.3,272.3 L351.7,269.9 L351.8,267.5 L352.0,265.1 L352.2,262.7 L352.2,260.0 L352.0,257.6 L352.0,255.2 L351.7,252.8 L351.5,250.2 L351.1,247.8 L350.7,245.4 L350.4,242.8 L350.0,240.4 L349.8,238.0 L349.7,235.6 L349.7,233.0 L349.7,230.6 L349.7,228.1 L349.8,225.7 L350.2,223.3 L350.4,220.9 L350.9,218.5 L351.3,216.1 L352.0,213.9 L352.6,211.5 L353.3,209.3 L354.2,207.1 L355.1,204.9 L356.0,202.7 L357.1,200.5 L358.4,198.4 L359.4,196.4 L360.9,194.4 L362.2,192.4 L363.6,190.6 L365.1,188.6 L366.7,186.8 L368.3,185.2 L369.9,183.4 L371.8,181.8 L373.6,180.2 L375.6,178.8 L377.4,177.4 L379.4,176.0 L381.5,174.6 L383.5,173.4 L385.7,172.2 L388.0,171.2 L390.2,170.2 L392.6,169.2 L394.9,168.4 L397.3,167.6 L399.6,166.8 L402.2,166.1 L404.5,165.5 L407.1,164.9 L409.6,164.5 L412.1,164.3 L414.8,163.9 L417.4,163.9 L420.1,163.7 L422.6,163.7 L425.3,163.9 L428.1,163.9 L430.8,164.3 L433.5,164.5 L436.0,164.9 L438.7,165.5 L441.5,166.1 L444.2,166.8 L446.9,167.6 L449.6,168.4 L452.3,169.4 L455.0,170.4 L457.6,171.6 L460.3,172.8 L462.8,174.0 L465.5,175.4 L468.1,176.8 L470.6,178.4 L473.1,180.0 L475.5,181.6 L478.0,183.4 L480.4,185.2 L482.9,187.2 L485.3,189.0 L487.5,191.2 L489.8,193.2 L492.0,195.4 L494.1,197.8 L496.3,200.1 L498.3,202.5 L500.5,204.9 L502.3,207.5 L504.3,210.1 L506.1,212.7 L507.9,215.5 L509.7,218.3 L511.4,221.1 L513.0,223.9 L514.6,226.9 L516.1,229.9 L517.5,233.0 L518.8,236.0 L520.0,239.2 L521.3,242.4 L522.4,245.6 L523.5,248.8 L524.4,252.2 L525.3,255.4 L526.0,258.8 L526.9,262.3 L527.5,265.7 L528.0,269.1 L528.6,272.5 L529.1,276.1 L529.5,279.5 L529.6,283.1 L529.8,286.7 L530.0,290.1 L530.0,293.7 L530.0,297.4 L529.8,301.0 L529.6,304.6 L529.3,308.2 L528.9,311.8 L528.6,315.2 L528.0,318.8 L527.3,322.4 L526.7,326.1 L525.8,329.7 L525.1,333.1 L524.0,336.7 L523.1,340.1 L522.0,343.7 L520.8,347.1 L519.5,350.5 L518.2,353.9 L516.8,357.3 L515.3,360.8 L513.7,364.0 L512.1,367.4 L510.4,370.6 L508.6,373.8 L506.8,377.0 L504.8,380.0 L502.8,383.2 L500.8,386.2 L498.7,389.2 L496.5,392.3 L494.1,395.1 L492.0,397.9 L489.6,400.7 L487.1,403.5 L484.6,406.1 L482.0,408.7 L479.5,411.3 L476.8,413.7 L474.1,416.3 L471.3,418.5 L468.6,420.9 L466.3,422.8 L463.7,424.6 L461.4,426.4 L459.0,428.2 L456.5,429.8 L454.0,431.4 L451.4,433.0 L448.9,434.6 L446.3,436.0 L443.6,437.6 L441.1,438.8 L438.4,440.2 L435.7,441.4 L433.1,442.8 L430.4,443.8 L427.7,445.0 L425.0,446.0 L422.3,447.2 L419.6,448.0 L416.7,449.0 L413.9,449.8 L411.2,450.6 L408.5,451.4 L405.6,452.0 L402.9,452.8 L400.0,453.5 L397.3,453.9 L394.4,454.5 L391.7,454.9 L389.0,455.3 L386.1,455.5 L383.3,455.7 L380.6,455.9 L377.7,456.1 L375.0,456.1 L372.3,456.3 L369.6,456.3 L366.7,456.1 L364.0,456.1 L361.2,455.9 L358.5,455.7 L356.0,455.5 L353.3,455.1" fill="none" stroke="#1f77b4" stroke-width="1.7" opacity="0.85"/><circle cx="353" cy="455" r="4.5" fill="#1f77b4"/><text x="28" y="572" font-size="11" fill="#888">ground track — m from pad (N up)</text><rect x="580" y="40" width="540" height="540" fill="#fbfbfb" stroke="#ddd"/><text x="586" y="54" fill="#1f77b4" font-size="11">alt 300</text><text x="586" y="558" fill="#1f77b4" font-size="11">2</text><path d="M616.0,544.0 L616.3,543.5 L616.5,543.7 L616.8,543.0 L617.0,543.7 L617.3,543.7 L617.5,542.8 L617.8,543.2 L618.1,543.5 L618.3,542.7 L618.6,543.1 L618.8,543.0 L619.1,542.1 L619.3,541.7 L619.6,542.1 L619.9,542.4 L620.1,542.2 L620.4,541.6 L620.6,541.4 L620.9,540.9 L621.2,539.8 L621.4,540.0 L621.7,540.4 L621.9,539.5 L622.2,539.2 L622.4,538.2 L622.7,537.7 L623.0,537.8 L623.2,536.7 L623.5,538.1 L623.7,537.2 L624.0,536.7 L624.2,534.8 L624.5,535.4 L624.8,533.9 L625.0,534.3 L625.3,534.6 L625.5,532.8 L625.8,532.1 L626.0,532.0 L626.3,530.6 L626.6,531.0 L626.8,529.2 L627.1,530.1 L627.3,529.7 L627.6,528.6 L627.8,527.3 L628.1,526.5 L628.4,526.5 L628.6,527.6 L628.9,523.3 L629.1,524.9 L629.4,522.3 L629.7,524.1 L629.9,520.6 L630.2,520.1 L630.4,520.2 L630.7,520.5 L630.9,518.2 L631.2,516.0 L631.5,514.7 L631.7,517.0 L632.0,514.9 L632.2,514.9 L632.5,514.6 L632.7,515.2 L633.0,514.0 L633.3,509.5 L633.5,510.5 L633.8,510.6 L634.0,508.5 L634.3,504.3 L634.5,504.9 L634.8,504.1 L635.1,498.5 L635.3,502.5 L635.6,497.3 L635.8,494.9 L636.1,499.4 L636.3,493.7 L636.6,492.0 L636.9,491.2 L637.1,494.1 L637.4,494.8 L637.6,492.3 L637.9,493.5 L638.2,491.6 L638.4,485.1 L638.7,487.4 L638.9,489.3 L639.2,480.3 L639.4,481.2 L639.7,485.8 L640.0,482.5 L640.2,481.4 L640.5,476.6 L640.7,474.0 L641.0,472.8 L641.2,469.6 L641.5,471.9 L641.8,465.4 L642.0,475.6 L642.3,467.0 L642.5,468.7 L642.8,468.2 L643.0,454.6 L643.3,467.4 L643.6,459.2 L643.8,454.6 L644.1,453.9 L644.3,453.3 L644.6,447.6 L644.8,447.0 L645.1,442.6 L645.4,451.6 L645.6,438.9 L645.9,449.7 L646.1,447.3 L646.4,442.1 L646.7,439.4 L646.9,435.1 L647.2,446.9 L647.4,438.2 L647.7,429.3 L647.9,428.4 L648.2,441.8 L648.5,426.3 L648.7,416.9 L649.0,437.5 L649.2,425.8 L649.5,425.0 L649.7,408.9 L650.0,416.8 L650.3,419.8 L650.5,427.0 L650.8,412.1 L651.0,415.3 L651.3,400.0 L651.5,407.9 L651.8,400.7 L652.1,414.5 L652.3,406.2 L652.6,406.7 L652.8,408.5 L653.1,380.6 L653.3,394.0 L653.6,386.2 L653.9,378.9 L654.1,400.6 L654.4,375.4 L654.6,393.8 L654.9,375.2 L655.2,388.2 L655.4,371.5 L655.7,377.4 L655.9,388.4 L656.2,363.6 L656.4,385.1 L656.7,358.2 L657.0,358.5 L657.2,371.0 L657.5,378.2 L657.7,375.7 L658.0,373.2 L658.2,372.3 L658.5,341.9 L658.8,360.0 L659.0,358.5 L659.3,355.8 L659.5,337.7 L659.8,352.2 L660.0,353.6 L660.3,322.8 L660.6,325.6 L660.8,351.8 L661.1,326.9 L661.3,310.4 L661.6,313.6 L661.8,323.3 L662.1,305.7 L662.4,338.5 L662.6,334.9 L662.9,296.7 L663.1,298.0 L663.4,318.1 L663.6,292.0 L663.9,291.1 L664.2,320.3 L664.4,297.8 L664.7,313.5 L664.9,276.8 L665.2,300.1 L665.5,318.0 L665.7,269.1 L666.0,295.7 L666.2,270.6 L666.5,269.5 L666.7,307.4 L667.0,268.0 L667.3,297.2 L667.5,258.4 L667.8,288.0 L668.0,267.6 L668.3,254.2 L668.5,279.3 L668.8,284.9 L669.1,248.0 L669.3,268.1 L669.6,247.6 L669.8,258.4 L670.1,242.6 L670.3,273.6 L670.6,268.1 L670.9,237.1 L671.1,263.5 L671.4,252.8 L671.6,251.4 L671.9,218.7 L672.1,241.9 L672.4,210.5 L672.7,231.2 L672.9,211.9 L673.2,208.9 L673.4,217.8 L673.7,221.7 L674.0,202.2 L674.2,217.6 L674.5,225.5 L674.7,252.3 L675.0,252.2 L675.2,244.2 L675.5,234.6 L675.8,194.8 L676.0,223.1 L676.3,199.7 L676.5,184.5 L676.8,184.6 L677.0,201.5 L677.3,179.5 L677.6,197.2 L677.8,176.4 L678.1,213.4 L678.3,176.1 L678.6,181.6 L678.8,166.7 L679.1,220.1 L679.4,186.2 L679.6,179.2 L679.9,204.2 L680.1,180.8 L680.4,158.0 L680.6,177.4 L680.9,182.0 L681.2,168.4 L681.4,175.3 L681.7,150.1 L681.9,189.6 L682.2,180.0 L682.5,157.8 L682.7,202.1 L683.0,164.6 L683.2,173.7 L683.5,147.2 L683.7,135.5 L684.0,188.5 L684.3,140.5 L684.5,132.2 L684.8,196.7 L685.0,201.3 L685.3,158.2 L685.5,153.8 L685.8,134.1 L686.1,186.6 L686.3,150.8 L686.6,115.9 L686.8,132.7 L687.1,123.0 L687.3,140.7 L687.6,145.5 L687.9,187.1 L688.1,161.2 L688.4,153.1 L688.6,177.7 L688.9,177.0 L689.1,128.1 L689.4,113.6 L689.7,133.1 L689.9,154.3 L690.2,149.3 L690.4,134.3 L690.7,119.2 L691.0,134.5 L691.2,141.8 L691.5,125.6 L691.7,90.1 L692.0,169.4 L692.2,119.9 L692.5,120.5 L692.8,162.6 L693.0,129.9 L693.3,123.8 L693.5,85.0 L693.8,112.4 L694.0,137.1 L694.3,122.3 L694.6,83.1 L694.8,149.5 L695.1,103.9 L695.3,142.6 L695.6,79.6 L695.8,157.4 L696.1,124.6 L696.4,84.3 L696.6,132.5 L696.9,94.0 L697.1,80.5 L697.4,82.8 L697.6,143.9 L697.9,87.6 L698.2,112.2 L698.4,77.2 L698.7,155.5 L698.9,135.4 L699.2,144.9 L699.5,79.7 L699.7,117.4 L700.0,123.6 L700.2,110.5 L700.5,150.7 L700.7,158.2 L701.0,149.6 L701.3,137.2 L701.5,148.6 L701.8,97.5 L702.0,81.1 L702.3,86.4 L702.5,98.2 L702.8,101.0 L703.1,109.8 L703.3,86.1 L703.6,154.1 L703.8,129.7 L704.1,98.5 L704.3,85.2 L704.6,140.0 L704.9,159.3 L705.1,76.0 L705.4,94.1 L705.6,99.2 L705.9,133.6 L706.1,96.2 L706.4,126.7 L706.7,88.7 L706.9,145.9 L707.2,91.2 L707.4,140.6 L707.7,109.8 L708.0,135.4 L708.2,86.0 L708.5,130.2 L708.7,109.4 L709.0,85.8 L709.2,81.0 L709.5,132.7 L709.8,105.6 L710.0,94.2 L710.3,123.8 L710.5,142.3 L710.8,147.6 L711.0,159.8 L711.3,120.9 L711.6,111.6 L711.8,102.7 L712.1,159.3 L712.3,152.6 L712.6,138.5 L712.8,90.0 L713.1,87.0 L713.4,99.0 L713.6,162.3 L713.9,151.0 L714.1,153.1 L714.4,85.9 L714.6,121.4 L714.9,156.7 L715.2,132.6 L715.4,130.9 L715.7,135.9 L715.9,147.7 L716.2,141.3 L716.5,101.4 L716.7,136.9 L717.0,106.7 L717.2,118.9 L717.5,130.7 L717.7,159.1 L718.0,97.7 L718.3,104.3 L718.5,117.7 L718.8,147.8 L719.0,156.2 L719.3,103.0 L719.5,154.0 L719.8,149.5 L720.1,93.8 L720.3,153.6 L720.6,101.9 L720.8,105.3 L721.1,135.6 L721.3,137.1 L721.6,116.6 L721.9,96.7 L722.1,147.9 L722.4,154.7 L722.6,146.9 L722.9,165.6 L723.1,126.5 L723.4,85.5 L723.7,144.1 L723.9,87.7 L724.2,163.7 L724.4,109.8 L724.7,104.8 L725.0,98.1 L725.2,143.8 L725.5,155.4 L725.7,92.1 L726.0,153.5 L726.2,126.3 L726.5,150.9 L726.8,103.6 L727.0,164.4 L727.3,97.5 L727.5,155.9 L727.8,129.7 L728.0,101.8 L728.3,83.8 L728.6,145.6 L728.8,161.0 L729.1,95.4 L729.3,96.5 L729.6,157.2 L729.8,151.6 L730.1,85.7 L730.4,129.5 L730.6,88.6 L730.9,106.1 L731.1,128.3 L731.4,134.4 L731.6,90.9 L731.9,162.8 L732.2,147.2 L732.4,119.8 L732.7,125.6 L732.9,143.2 L733.2,101.5 L733.5,137.7 L733.7,106.3 L734.0,86.7 L734.2,92.5 L734.5,151.3 L734.7,130.0 L735.0,109.9 L735.3,139.9 L735.5,133.0 L735.8,149.0 L736.0,91.3 L736.3,153.1 L736.5,165.6 L736.8,108.6 L737.1,113.4 L737.3,96.3 L737.6,124.2 L737.8,170.3 L738.1,116.9 L738.3,163.7 L738.6,134.7 L738.9,147.1 L739.1,97.8 L739.4,114.2 L739.6,133.0 L739.9,110.4 L740.1,129.8 L740.4,93.1 L740.7,105.9 L740.9,166.9 L741.2,162.9 L741.4,146.5 L741.7,166.1 L742.0,170.6 L742.2,123.8 L742.5,94.0 L742.7,149.8 L743.0,117.9 L743.2,147.5 L743.5,126.1 L743.8,157.3 L744.0,153.8 L744.3,129.6 L744.5,171.4 L744.8,133.5 L745.0,97.0 L745.3,123.4 L745.6,121.6 L745.8,147.2 L746.1,170.8 L746.3,137.1 L746.6,116.2 L746.8,166.8 L747.1,115.7 L747.4,122.8 L747.6,166.7 L747.9,110.3 L748.1,122.3 L748.4,132.0 L748.6,117.7 L748.9,108.5 L749.2,157.6 L749.4,95.8 L749.7,127.2 L749.9,134.9 L750.2,134.0 L750.5,106.8 L750.7,137.8 L751.0,173.1 L751.2,170.6 L751.5,147.1 L751.7,107.8 L752.0,103.2 L752.3,165.8 L752.5,155.7 L752.8,114.8 L753.0,177.3 L753.3,99.8 L753.5,146.1 L753.8,134.3 L754.1,105.6 L754.3,129.3 L754.6,143.7 L754.8,145.1 L755.1,125.3 L755.3,151.4 L755.6,118.7 L755.9,140.8 L756.1,100.0 L756.4,157.9 L756.6,117.1 L756.9,111.1 L757.1,109.9 L757.4,133.2 L757.7,134.9 L757.9,135.4 L758.2,161.8 L758.4,107.4 L758.7,178.9 L758.9,110.9 L759.2,128.7 L759.5,168.6 L759.7,108.5 L760.0,150.2 L760.2,106.0 L760.5,112.1 L760.8,127.8 L761.0,132.6 L761.3,172.6 L761.5,153.2 L761.8,113.9 L762.0,130.7 L762.3,166.1 L762.6,178.0 L762.8,119.1 L763.1,110.9 L763.3,106.6 L763.6,178.7 L763.8,131.4 L764.1,182.7 L764.4,171.9 L764.6,154.8 L764.9,156.7 L765.1,152.4 L765.4,183.4 L765.6,176.3 L765.9,123.0 L766.2,160.2 L766.4,153.3 L766.7,185.9 L766.9,117.7 L767.2,142.5 L767.4,173.1 L767.7,151.3 L768.0,129.8 L768.2,139.3 L768.5,155.0 L768.7,177.6 L769.0,139.8 L769.3,139.7 L769.5,144.5 L769.8,125.1 L770.0,179.2 L770.3,118.5 L770.5,118.7 L770.8,169.7 L771.1,177.0 L771.3,172.9 L771.6,137.5 L771.8,166.5 L772.1,143.5 L772.3,123.7 L772.6,149.7 L772.9,185.2 L773.1,159.0 L773.4,181.3 L773.6,162.6 L773.9,121.0 L774.1,169.9 L774.4,139.4 L774.7,143.5 L774.9,174.1 L775.2,167.2 L775.4,151.0 L775.7,182.9 L775.9,116.5 L776.2,136.1 L776.5,128.6 L776.7,175.5 L777.0,164.0 L777.2,122.6 L777.5,138.1 L777.8,187.7 L778.0,174.6 L778.3,149.4 L778.5,164.3 L778.8,146.7 L779.0,129.6 L779.3,185.9 L779.6,123.3 L779.8,174.6 L780.1,179.1 L780.3,134.0 L780.6,142.6 L780.8,192.9 L781.1,140.3 L781.4,134.5 L781.6,141.4 L781.9,172.8 L782.1,171.3 L782.4,149.6 L782.6,141.8 L782.9,172.0 L783.2,184.1 L783.4,189.2 L783.7,168.2 L783.9,184.3 L784.2,128.1 L784.4,168.1 L784.7,167.7 L785.0,133.2 L785.2,187.9 L785.5,150.3 L785.7,184.8 L786.0,193.9 L786.3,129.9 L786.5,156.1 L786.8,159.1 L787.0,149.9 L787.3,160.3 L787.5,193.4 L787.8,158.4 L788.1,183.0 L788.3,128.3 L788.6,185.3 L788.8,185.0 L789.1,163.2 L789.3,127.9 L789.6,171.8 L789.9,154.9 L790.1,125.9 L790.4,167.4 L790.6,157.4 L790.9,148.2 L791.1,146.0 L791.4,195.4 L791.7,131.1 L791.9,174.4 L792.2,141.5 L792.4,141.5 L792.7,196.1 L792.9,195.2 L793.2,183.1 L793.5,154.9 L793.7,131.4 L794.0,168.0 L794.2,146.3 L794.5,202.6 L794.8,168.7 L795.0,189.0 L795.3,175.7 L795.5,203.1 L795.8,175.1 L796.0,166.0 L796.3,199.1 L796.6,173.5 L796.8,184.2 L797.1,196.6 L797.3,184.7 L797.6,143.9 L797.8,173.0 L798.1,143.3 L798.4,136.1 L798.6,149.7 L798.9,166.7 L799.1,153.2 L799.4,208.7 L799.6,205.5 L799.9,151.4 L800.2,156.3 L800.4,201.2 L800.7,167.0 L800.9,200.1 L801.2,208.0 L801.4,159.5 L801.7,183.5 L802.0,137.2 L802.2,147.5 L802.5,172.7 L802.7,211.5 L803.0,211.2 L803.3,174.9 L803.5,210.9 L803.8,155.8 L804.0,175.9 L804.3,155.0 L804.5,144.2 L804.8,145.9 L805.1,181.5 L805.3,177.0 L805.6,169.9 L805.8,203.2 L806.1,176.6 L806.3,154.5 L806.6,150.5 L806.9,164.8 L807.1,185.8 L807.4,206.0 L807.6,145.0 L807.9,162.5 L808.1,146.3 L808.4,203.8 L808.7,180.8 L808.9,195.5 L809.2,155.8 L809.4,163.3 L809.7,204.1 L809.9,186.2 L810.2,212.8 L810.5,175.3 L810.7,218.2 L811.0,174.8 L811.2,217.0 L811.5,206.4 L811.8,148.3 L812.0,189.3 L812.3,204.6 L812.5,151.8 L812.8,172.9 L813.0,200.8 L813.3,162.5 L813.6,175.4 L813.8,207.5 L814.1,215.7 L814.3,184.4 L814.6,195.3 L814.8,186.6 L815.1,157.8 L815.4,200.7 L815.6,206.8 L815.9,172.7 L816.1,174.9 L816.4,172.6 L816.6,180.7 L816.9,177.4 L817.2,200.4 L817.4,184.7 L817.7,209.8 L817.9,209.2 L818.2,184.4 L818.4,166.4 L818.7,172.5 L819.0,218.3 L819.2,225.3 L819.5,168.2 L819.7,202.3 L820.0,202.9 L820.3,225.6 L820.5,207.1 L820.8,226.2 L821.0,181.8 L821.3,169.4 L821.5,221.1 L821.8,197.6 L822.1,178.2 L822.3,217.1 L822.6,212.7 L822.8,165.1 L823.1,195.4 L823.3,225.6 L823.6,219.2 L823.9,172.5 L824.1,162.0 L824.4,180.6 L824.6,200.7 L824.9,210.8 L825.1,202.0 L825.4,229.5 L825.7,179.9 L825.9,192.8 L826.2,203.0 L826.4,181.8 L826.7,212.6 L826.9,168.2 L827.2,228.7 L827.5,206.3 L827.7,205.7 L828.0,197.2 L828.2,225.0 L828.5,187.6 L828.8,181.5 L829.0,179.1 L829.3,173.0 L829.5,221.2 L829.8,234.4 L830.0,183.4 L830.3,213.6 L830.6,198.3 L830.8,204.5 L831.1,226.1 L831.3,212.7 L831.6,197.0 L831.8,203.2 L832.1,174.7 L832.4,188.9 L832.6,203.3 L832.9,194.9 L833.1,218.4 L833.4,228.8 L833.6,204.7 L833.9,215.8 L834.2,173.2 L834.4,208.2 L834.7,183.9 L834.9,220.7 L835.2,185.2 L835.4,228.0 L835.7,206.4 L836.0,193.6 L836.2,232.2 L836.5,192.9 L836.7,186.1 L837.0,237.6 L837.3,191.5 L837.5,220.6 L837.8,213.6 L838.0,194.8 L838.3,203.7 L838.5,194.3 L838.8,191.8 L839.1,201.6 L839.3,229.4 L839.6,202.7 L839.8,217.4 L840.1,179.5 L840.3,186.8 L840.6,179.9 L840.9,199.1 L841.1,236.4 L841.4,185.1 L841.6,221.7 L841.9,212.8 L842.1,205.3 L842.4,241.9 L842.7,190.8 L842.9,193.5 L843.2,235.7 L843.4,213.4 L843.7,199.1 L843.9,232.5 L844.2,192.2 L844.5,215.1 L844.7,187.7 L845.0,189.1 L845.2,251.0 L845.5,221.0 L845.8,207.4 L846.0,234.4 L846.3,193.0 L846.5,197.9 L846.8,209.3 L847.0,211.4 L847.3,221.9 L847.6,246.5 L847.8,215.6 L848.1,223.3 L848.3,247.0 L848.6,191.8 L848.8,201.9 L849.1,195.1 L849.4,254.8 L849.6,253.2 L849.9,255.7 L850.1,230.2 L850.4,223.8 L850.6,252.8 L850.9,238.1 L851.2,204.3 L851.4,246.6 L851.7,197.6 L851.9,220.3 L852.2,206.9 L852.4,226.4 L852.7,206.2 L853.0,216.4 L853.2,195.7 L853.5,196.7 L853.7,258.4 L854.0,221.2 L854.2,242.1 L854.5,204.0 L854.8,255.7 L855.0,217.5 L855.3,238.9 L855.5,216.1 L855.8,212.0 L856.1,239.9 L856.3,239.6 L856.6,230.2 L856.8,203.8 L857.1,216.7 L857.3,227.0 L857.6,229.7 L857.9,209.4 L858.1,262.4 L858.4,223.1 L858.6,233.0 L858.9,241.1 L859.1,264.7 L859.4,224.3 L859.7,216.9 L859.9,240.1 L860.2,242.4 L860.4,251.8 L860.7,255.1 L860.9,205.9 L861.2,238.8 L861.5,256.3 L861.7,245.5 L862.0,225.7 L862.2,219.1 L862.5,251.6 L862.7,265.4 L863.0,234.2 L863.3,228.2 L863.5,245.6 L863.8,220.9 L864.0,215.0 L864.3,230.1 L864.6,234.9 L864.8,243.5 L865.1,257.3 L865.3,240.1 L865.6,243.4 L865.8,223.0 L866.1,267.1 L866.4,245.9 L866.6,242.3 L866.9,245.3 L867.1,261.9 L867.4,267.7 L867.6,245.9 L867.9,230.1 L868.2,253.1 L868.4,241.0 L868.7,260.2 L868.9,238.5 L869.2,261.4 L869.4,242.8 L869.7,255.7 L870.0,271.1 L870.2,245.6 L870.5,218.9 L870.7,261.2 L871.0,265.6 L871.2,261.6 L871.5,224.7 L871.8,258.0 L872.0,263.1 L872.3,238.9 L872.5,267.0 L872.8,243.5 L873.1,239.8 L873.3,275.8 L873.6,224.9 L873.8,266.5 L874.1,263.4 L874.3,257.0 L874.6,237.3 L874.9,260.0 L875.1,249.9 L875.4,275.0 L875.6,277.2 L875.9,237.7 L876.1,238.2 L876.4,231.4 L876.7,242.2 L876.9,236.3 L877.2,239.2 L877.4,280.7 L877.7,270.4 L877.9,285.2 L878.2,251.6 L878.5,275.3 L878.7,248.3 L879.0,248.3 L879.2,262.9 L879.5,278.6 L879.7,230.2 L880.0,238.5 L880.3,261.8 L880.5,263.2 L880.8,237.6 L881.0,263.3 L881.3,248.9 L881.6,272.0 L881.8,258.4 L882.1,280.9 L882.3,261.2 L882.6,239.3 L882.8,287.6 L883.1,272.2 L883.4,235.0 L883.6,284.1 L883.9,243.3 L884.1,288.5 L884.4,289.8 L884.6,273.7 L884.9,276.8 L885.2,290.0 L885.4,276.5 L885.7,250.8 L885.9,272.9 L886.2,255.0 L886.4,242.2 L886.7,287.6 L887.0,257.6 L887.2,261.5 L887.5,249.8 L887.7,269.9 L888.0,244.2 L888.2,263.5 L888.5,271.4 L888.8,282.0 L889.0,262.8 L889.3,254.4 L889.5,286.2 L889.8,298.3 L890.1,247.7 L890.3,296.1 L890.6,261.2 L890.8,284.4 L891.1,269.9 L891.3,270.2 L891.6,255.6 L891.9,255.3 L892.1,271.6 L892.4,251.2 L892.6,253.7 L892.9,286.7 L893.1,256.9 L893.4,297.2 L893.7,262.9 L893.9,287.8 L894.2,275.9 L894.4,292.6 L894.7,285.3 L894.9,301.2 L895.2,278.8 L895.5,287.6 L895.7,280.3 L896.0,288.6 L896.2,260.2 L896.5,285.7 L896.7,285.1 L897.0,271.1 L897.3,298.0 L897.5,307.6 L897.8,275.5 L898.0,303.3 L898.3,264.7 L898.6,257.2 L898.8,280.3 L899.1,259.9 L899.3,308.8 L899.6,291.7 L899.8,263.8 L900.1,266.3 L900.4,297.4 L900.6,272.4 L900.9,306.4 L901.1,295.9 L901.4,290.4 L901.6,264.7 L901.9,285.1 L902.2,297.2 L902.4,291.4 L902.7,299.3 L902.9,299.9 L903.2,309.7 L903.4,263.2 L903.7,278.3 L904.0,280.3 L904.2,278.8 L904.5,268.5 L904.7,308.1 L905.0,301.8 L905.2,300.8 L905.5,266.3 L905.8,283.1 L906.0,282.3 L906.3,289.4 L906.5,280.5 L906.8,289.6 L907.1,307.7 L907.3,298.4 L907.6,285.3 L907.8,274.2 L908.1,312.2 L908.3,302.6 L908.6,296.1 L908.9,314.5 L909.1,303.6 L909.4,277.8 L909.6,313.5 L909.9,319.8 L910.1,281.8 L910.4,277.0 L910.7,288.5 L910.9,316.6 L911.2,307.1 L911.4,279.1 L911.7,311.3 L911.9,306.3 L912.2,324.3 L912.5,303.6 L912.7,319.5 L913.0,307.4 L913.2,283.1 L913.5,314.9 L913.7,306.0 L914.0,286.1 L914.3,298.7 L914.5,298.7 L914.8,326.0 L915.0,317.4 L915.3,312.0 L915.6,326.1 L915.8,303.1 L916.1,324.0 L916.3,315.4 L916.6,285.5 L916.8,317.6 L917.1,320.6 L917.4,298.5 L917.6,286.8 L917.9,309.0 L918.1,304.4 L918.4,320.0 L918.6,322.6 L918.9,306.4 L919.2,332.3 L919.4,290.5 L919.7,311.7 L919.9,325.3 L920.2,317.0 L920.4,328.0 L920.7,289.2 L921.0,296.5 L921.2,308.9 L921.5,302.9 L921.7,319.6 L922.0,324.6 L922.2,297.1 L922.5,294.5 L922.8,295.2 L923.0,313.7 L923.3,336.8 L923.5,333.8 L923.8,321.5 L924.1,332.3 L924.3,324.6 L924.6,335.7 L924.8,334.6 L925.1,329.9 L925.3,317.8 L925.6,305.1 L925.9,336.6 L926.1,321.5 L926.4,324.3 L926.6,338.8 L926.9,334.1 L927.1,322.3 L927.4,317.0 L927.7,312.7 L927.9,337.2 L928.2,317.0 L928.4,340.4 L928.7,326.0 L928.9,335.0 L929.2,319.0 L929.5,333.7 L929.7,321.7 L930.0,314.9 L930.2,321.1 L930.5,329.6 L930.7,304.9 L931.0,326.0 L931.3,311.9 L931.5,335.3 L931.8,310.5 L932.0,312.5 L932.3,342.4 L932.6,320.8 L932.8,347.1 L933.1,309.9 L933.3,316.3 L933.6,350.0 L933.8,325.0 L934.1,332.3 L934.4,316.0 L934.6,334.6 L934.9,322.1 L935.1,330.7 L935.4,326.5 L935.6,336.9 L935.9,311.0 L936.2,340.2 L936.4,318.4 L936.7,347.6 L936.9,327.7 L937.2,315.8 L937.4,313.1 L937.7,335.3 L938.0,331.9 L938.2,351.8 L938.5,332.7 L938.7,346.7 L939.0,319.8 L939.2,357.0 L939.5,350.3 L939.8,348.6 L940.0,318.0 L940.3,330.7 L940.5,324.8 L940.8,359.3 L941.1,355.6 L941.3,354.6 L941.6,324.2 L941.8,350.3 L942.1,328.9 L942.3,330.6 L942.6,326.8 L942.9,351.9 L943.1,345.9 L943.4,360.6 L943.6,361.7 L943.9,346.1 L944.1,358.5 L944.4,327.1 L944.7,362.1 L944.9,341.0 L945.2,362.0 L945.4,331.1 L945.7,347.9 L945.9,328.1 L946.2,338.9 L946.5,331.0 L946.7,350.6 L947.0,356.3 L947.2,350.7 L947.5,363.4 L947.7,338.0 L948.0,349.7 L948.3,368.1 L948.5,357.3 L948.8,360.0 L949.0,356.1 L949.3,341.6 L949.5,364.3 L949.8,335.8 L950.1,367.2 L950.3,366.3 L950.6,341.4 L950.8,342.8 L951.1,357.3 L951.4,369.9 L951.6,360.3 L951.9,370.3 L952.1,371.5 L952.4,366.6 L952.6,362.7 L952.9,336.6 L953.2,354.9 L953.4,365.2 L953.7,370.4 L953.9,343.4 L954.2,370.5 L954.4,350.7 L954.7,348.0 L955.0,354.8 L955.2,353.2 L955.5,371.2 L955.7,341.6 L956.0,361.1 L956.2,364.6 L956.5,351.1 L956.8,367.6 L957.0,375.4 L957.3,364.8 L957.5,380.2 L957.8,370.3 L958.0,349.7 L958.3,378.4 L958.6,372.3 L958.8,373.0 L959.1,353.1 L959.3,355.2 L959.6,350.2 L959.9,355.2 L960.1,360.8 L960.4,358.8 L960.6,372.5 L960.9,377.8 L961.1,376.3 L961.4,354.2 L961.7,378.7 L961.9,365.6 L962.2,369.1 L962.4,376.9 L962.7,373.2 L962.9,356.8 L963.2,372.5 L963.5,366.1 L963.7,372.0 L964.0,361.9 L964.2,384.7 L964.5,366.3 L964.7,365.8 L965.0,358.4 L965.3,367.9 L965.5,357.8 L965.8,367.5 L966.0,391.2 L966.3,359.0 L966.5,385.1 L966.8,391.5 L967.1,388.9 L967.3,374.5 L967.6,367.3 L967.8,368.5 L968.1,363.2 L968.4,370.5 L968.6,380.9 L968.9,379.9 L969.1,388.2 L969.4,386.1 L969.6,369.7 L969.9,388.7 L970.2,385.1 L970.4,384.3 L970.7,371.7 L970.9,392.3 L971.2,378.7 L971.4,369.7 L971.7,392.6 L972.0,376.3 L972.2,376.7 L972.5,377.3 L972.7,387.4 L973.0,392.7 L973.2,397.8 L973.5,384.7 L973.8,391.2 L974.0,387.3 L974.3,383.4 L974.5,370.9 L974.8,370.9 L975.0,374.0 L975.3,372.0 L975.6,392.8 L975.8,385.1 L976.1,391.2 L976.3,384.4 L976.6,380.4 L976.9,398.6 L977.1,382.7 L977.4,384.2 L977.6,385.8 L977.9,399.8 L978.1,393.2 L978.4,394.1 L978.7,407.2 L978.9,377.6 L979.2,383.8 L979.4,386.8 L979.7,385.7 L979.9,397.8 L980.2,393.8 L980.5,405.0 L980.7,392.4 L981.0,396.7 L981.2,391.5 L981.5,398.4 L981.7,388.6 L982.0,382.1 L982.3,409.6 L982.5,393.9 L982.8,409.2 L983.0,386.2 L983.3,404.5 L983.5,402.2 L983.8,402.2 L984.1,388.9 L984.3,409.6 L984.6,414.7 L984.8,397.5 L985.1,413.2 L985.4,403.8 L985.6,389.0 L985.9,396.4 L986.1,408.1 L986.4,398.4 L986.6,412.9 L986.9,400.1 L987.2,389.3 L987.4,408.3 L987.7,402.0 L987.9,396.8 L988.2,410.0 L988.4,398.7 L988.7,418.7 L989.0,413.4 L989.2,411.9 L989.5,400.2 L989.7,398.2 L990.0,396.6 L990.2,407.0 L990.5,409.2 L990.8,404.7 L991.0,409.3 L991.3,400.7 L991.5,409.3 L991.8,397.9 L992.0,406.6 L992.3,398.3 L992.6,416.7 L992.8,419.7 L993.1,413.8 L993.3,401.3 L993.6,406.3 L993.9,403.0 L994.1,417.0 L994.4,417.5 L994.6,413.7 L994.9,427.4 L995.1,427.3 L995.4,405.5 L995.7,418.1 L995.9,421.6 L996.2,407.1 L996.4,422.1 L996.7,412.5 L996.9,424.6 L997.2,412.9 L997.5,409.0 L997.7,428.8 L998.0,410.9 L998.2,431.3 L998.5,417.5 L998.7,409.1 L999.0,416.9 L999.3,409.1 L999.5,427.3 L999.8,426.0 L1000.0,413.1 L1000.3,411.8 L1000.5,433.9 L1000.8,435.2 L1001.1,422.9 L1001.3,423.9 L1001.6,425.4 L1001.8,419.1 L1002.1,436.6 L1002.4,416.8 L1002.6,429.8 L1002.9,416.5 L1003.1,426.2 L1003.4,419.3 L1003.6,436.2 L1003.9,432.4 L1004.2,423.1 L1004.4,438.8 L1004.7,428.7 L1004.9,424.6 L1005.2,425.0 L1005.4,441.0 L1005.7,422.8 L1006.0,431.2 L1006.2,431.9 L1006.5,441.8 L1006.7,434.7 L1007.0,439.0 L1007.2,434.7 L1007.5,429.7 L1007.8,431.7 L1008.0,436.9 L1008.3,423.7 L1008.5,445.5 L1008.8,435.2 L1009.0,444.3 L1009.3,427.5 L1009.6,439.9 L1009.8,434.7 L1010.1,436.7 L1010.3,426.6 L1010.6,437.5 L1010.9,441.2 L1011.1,438.4 L1011.4,440.9 L1011.6,430.8 L1011.9,443.1 L1012.1,435.9 L1012.4,431.6 L1012.7,432.9 L1012.9,443.1 L1013.2,447.8 L1013.4,445.5 L1013.7,448.3 L1013.9,437.4 L1014.2,441.2 L1014.5,448.5 L1014.7,443.3 L1015.0,443.1 L1015.2,452.2 L1015.5,439.5 L1015.7,445.7 L1016.0,445.8 L1016.3,439.2 L1016.5,448.0 L1016.8,448.4 L1017.0,444.0 L1017.3,444.4 L1017.5,453.1 L1017.8,453.5 L1018.1,447.8 L1018.3,438.4 L1018.6,439.2 L1018.8,449.0 L1019.1,454.4 L1019.4,454.5 L1019.6,446.8 L1019.9,450.1 L1020.1,448.1 L1020.4,457.0 L1020.6,451.2 L1020.9,450.4 L1021.2,461.4 L1021.4,446.3 L1021.7,460.3 L1021.9,462.0 L1022.2,450.3 L1022.4,448.4 L1022.7,447.0 L1023.0,460.9 L1023.2,458.5 L1023.5,450.6 L1023.7,457.8 L1024.0,451.9 L1024.2,465.7 L1024.5,449.6 L1024.8,453.3 L1025.0,452.8 L1025.3,451.6 L1025.5,465.8 L1025.8,467.2 L1026.0,458.2 L1026.3,455.4 L1026.6,467.9 L1026.8,456.7 L1027.1,460.7 L1027.3,468.7 L1027.6,469.3 L1027.9,467.4 L1028.1,458.7 L1028.4,460.4 L1028.6,456.2 L1028.9,455.3 L1029.1,470.6 L1029.4,470.0 L1029.7,461.4 L1029.9,464.6 L1030.2,457.8 L1030.4,460.1 L1030.7,463.5 L1030.9,474.4 L1031.2,462.1 L1031.5,472.0 L1031.7,468.3 L1032.0,463.9 L1032.2,468.2 L1032.5,461.4 L1032.7,470.0 L1033.0,463.6 L1033.3,476.1 L1033.5,464.2 L1033.8,471.2 L1034.0,472.0 L1034.3,477.1 L1034.5,464.3 L1034.8,464.5 L1035.1,477.2 L1035.3,465.2 L1035.6,474.9 L1035.8,480.3 L1036.1,476.1 L1036.4,471.3 L1036.6,477.8 L1036.9,474.2 L1037.1,478.1 L1037.4,481.9 L1037.6,469.6 L1037.9,480.1 L1038.2,476.0 L1038.4,471.2 L1038.7,481.8 L1038.9,473.9 L1039.2,472.5 L1039.4,474.4 L1039.7,485.1 L1040.0,480.6 L1040.2,485.7 L1040.5,480.1 L1040.7,478.0 L1041.0,481.9 L1041.2,483.2 L1041.5,480.9 L1041.8,484.9 L1042.0,488.2 L1042.3,480.0 L1042.5,480.1 L1042.8,478.0 L1043.0,485.1 L1043.3,488.4 L1043.6,481.1 L1043.8,481.1 L1044.1,488.1 L1044.3,487.2 L1044.6,490.4 L1044.8,490.8 L1045.1,486.6 L1045.4,486.1 L1045.6,489.1 L1045.9,491.7 L1046.1,487.7 L1046.4,483.5 L1046.7,486.1 L1046.9,489.7 L1047.2,491.0 L1047.4,494.6 L1047.7,491.0 L1047.9,495.3 L1048.2,486.2 L1048.5,495.0 L1048.7,489.8 L1049.0,493.4 L1049.2,490.5 L1049.5,488.5 L1049.7,492.2 L1050.0,493.3 L1050.3,492.4 L1050.5,493.7 L1050.8,499.2 L1051.0,495.6 L1051.3,499.3 L1051.5,495.7 L1051.8,491.6 L1052.1,495.0 L1052.3,493.3 L1052.6,498.9 L1052.8,498.7 L1053.1,500.3 L1053.3,494.6 L1053.6,499.0 L1053.9,500.7 L1054.1,498.2 L1054.4,504.6 L1054.6,496.1 L1054.9,499.8 L1055.2,501.3 L1055.4,500.5 L1055.7,503.1 L1055.9,504.1 L1056.2,502.6 L1056.4,499.2 L1056.7,501.1 L1057.0,500.8 L1057.2,503.4 L1057.5,504.8 L1057.7,502.9 L1058.0,507.3 L1058.2,505.5 L1058.5,506.3 L1058.8,507.8 L1059.0,504.3 L1059.3,511.4 L1059.5,508.9 L1059.8,505.7 L1060.0,506.5 L1060.3,511.4 L1060.6,507.2 L1060.8,512.0 L1061.1,512.2 L1061.3,509.9 L1061.6,510.8 L1061.8,508.9 L1062.1,511.9 L1062.4,511.4 L1062.6,513.0 L1062.9,513.3 L1063.1,510.2 L1063.4,510.7 L1063.7,516.2 L1063.9,516.4 L1064.2,515.1 L1064.4,517.5 L1064.7,514.5 L1064.9,514.7 L1065.2,519.2 L1065.5,516.9 L1065.7,519.0 L1066.0,519.1 L1066.2,516.7 L1066.5,517.2 L1066.7,516.8 L1067.0,521.1 L1067.3,519.4 L1067.5,517.1 L1067.8,522.4 L1068.0,520.4 L1068.3,518.2 L1068.5,520.0 L1068.8,521.0 L1069.1,523.9 L1069.3,523.9 L1069.6,524.0 L1069.8,521.6 L1070.1,525.5 L1070.3,525.1 L1070.6,525.9 L1070.9,523.2 L1071.1,522.9 L1071.4,524.3 L1071.6,526.4 L1071.9,524.1 L1072.2,524.1 L1072.4,525.3 L1072.7,524.9 L1072.9,528.6 L1073.2,526.5 L1073.4,526.6 L1073.7,527.0 L1074.0,527.5 L1074.2,527.8 L1074.5,528.1 L1074.7,529.9 L1075.0,531.8 L1075.2,530.0 L1075.5,532.1 L1075.8,532.5 L1076.0,532.0 L1076.3,532.1 L1076.5,533.8 L1076.8,532.4 L1077.0,534.7 L1077.3,532.4 L1077.6,534.1 L1077.8,534.5 L1078.1,535.2 L1078.3,535.3 L1078.6,534.4 L1078.8,535.2 L1079.1,537.2 L1079.4,536.7 L1079.6,537.8 L1079.9,537.7 L1080.1,538.9 L1080.4,537.4 L1080.7,538.9 L1080.9,539.8 L1081.2,539.0 L1081.4,540.5 L1081.7,540.7 L1081.9,541.0 L1082.2,541.6 L1082.5,541.3 L1082.7,541.7 L1083.0,541.7 L1083.2,541.9 L1083.5,542.7 L1083.7,542.9 L1084.0,543.8" fill="none" stroke="#1f77b4" stroke-width="1.4" opacity="0.85"/><text x="1040" y="54" fill="#ff7f0e" font-size="11">roll 18</text><text x="1090" y="558" fill="#ff7f0e" font-size="11">-18</text><path d="M616.0,312.6 L616.3,310.0 L616.5,310.0 L616.8,312.6 L617.0,311.3 L617.3,312.6 L617.5,312.6 L617.8,311.3 L618.1,311.3 L618.3,310.0 L618.6,310.0 L618.8,311.3 L619.1,311.3 L619.3,311.3 L619.6,311.3 L619.9,310.0 L620.1,311.3 L620.4,310.0 L620.6,310.0 L620.9,311.3 L621.2,312.6 L621.4,310.0 L621.7,311.3 L621.9,311.3 L622.2,310.0 L622.4,310.0 L622.7,311.3 L623.0,310.0 L623.2,311.3 L623.5,311.3 L623.7,310.0 L624.0,310.0 L624.2,308.7 L624.5,310.0 L624.8,310.0 L625.0,310.0 L625.3,307.4 L625.5,310.0 L625.8,310.0 L626.0,308.7 L626.3,308.7 L626.6,307.4 L626.8,307.4 L627.1,308.7 L627.3,308.7 L627.6,308.7 L627.8,307.4 L628.1,307.4 L628.4,306.1 L628.6,307.4 L628.9,307.4 L629.1,304.8 L629.4,304.8 L629.7,307.4 L629.9,303.5 L630.2,304.8 L630.4,304.8 L630.7,304.8 L630.9,304.8 L631.2,306.1 L631.5,304.8 L631.7,302.2 L632.0,302.2 L632.2,303.5 L632.5,303.5 L632.7,301.0 L633.0,302.2 L633.3,302.2 L633.5,303.5 L633.8,299.7 L634.0,299.7 L634.3,298.4 L634.5,302.2 L634.8,298.4 L635.1,298.4 L635.3,298.4 L635.6,297.1 L635.8,301.0 L636.1,298.4 L636.3,295.8 L636.6,299.7 L636.9,295.8 L637.1,299.7 L637.4,295.8 L637.6,297.1 L637.9,298.4 L638.2,295.8 L638.4,297.1 L638.7,293.2 L638.9,297.1 L639.2,294.5 L639.4,291.9 L639.7,297.1 L640.0,294.5 L640.2,295.8 L640.5,294.5 L640.7,295.8 L641.0,289.3 L641.2,290.6 L641.5,291.9 L641.8,290.6 L642.0,294.5 L642.3,290.6 L642.5,293.2 L642.8,291.9 L643.0,290.6 L643.3,288.0 L643.6,288.0 L643.8,288.0 L644.1,286.7 L644.3,290.6 L644.6,288.0 L644.8,285.4 L645.1,285.4 L645.4,282.9 L645.6,289.3 L645.9,289.3 L646.1,284.1 L646.4,289.3 L646.7,284.1 L646.9,285.4 L647.2,286.7 L647.4,282.9 L647.7,279.0 L647.9,282.9 L648.2,279.0 L648.5,279.0 L648.7,279.0 L649.0,277.7 L649.2,277.7 L649.5,275.1 L649.7,280.3 L650.0,282.9 L650.3,279.0 L650.5,276.4 L650.8,280.3 L651.0,280.3 L651.3,272.5 L651.5,277.7 L651.8,275.1 L652.1,280.3 L652.3,272.5 L652.6,275.1 L652.8,273.8 L653.1,269.9 L653.3,268.6 L653.6,268.6 L653.9,273.8 L654.1,268.6 L654.4,267.3 L654.6,276.4 L654.9,267.3 L655.2,268.6 L655.4,272.5 L655.7,267.3 L655.9,266.0 L656.2,266.0 L656.4,272.5 L656.7,272.5 L657.0,272.5 L657.2,276.4 L657.5,275.1 L657.7,266.0 L658.0,268.6 L658.2,268.6 L658.5,266.0 L658.8,269.9 L659.0,272.5 L659.3,275.1 L659.5,273.8 L659.8,271.2 L660.0,268.6 L660.3,267.3 L660.6,273.8 L660.8,271.2 L661.1,272.5 L661.3,272.5 L661.6,268.6 L661.8,275.1 L662.1,273.8 L662.4,269.9 L662.6,276.4 L662.9,272.5 L663.1,267.3 L663.4,269.9 L663.6,273.8 L663.9,271.2 L664.2,276.4 L664.4,273.8 L664.7,272.5 L664.9,269.9 L665.2,268.6 L665.5,268.6 L665.7,271.2 L666.0,271.2 L666.2,266.0 L666.5,275.1 L666.7,276.4 L667.0,275.1 L667.3,275.1 L667.5,269.9 L667.8,275.1 L668.0,266.0 L668.3,276.4 L668.5,271.2 L668.8,266.0 L669.1,269.9 L669.3,273.8 L669.6,275.1 L669.8,269.9 L670.1,266.0 L670.3,266.0 L670.6,273.8 L670.9,267.3 L671.1,269.9 L671.4,271.2 L671.6,266.0 L671.9,268.6 L672.1,269.9 L672.4,271.2 L672.7,266.0 L672.9,273.8 L673.2,266.0 L673.4,271.2 L673.7,269.9 L674.0,267.3 L674.2,272.5 L674.5,271.2 L674.7,264.8 L675.0,266.0 L675.2,267.3 L675.5,269.9 L675.8,264.8 L676.0,260.9 L676.3,269.9 L676.5,264.8 L676.8,262.2 L677.0,264.8 L677.3,271.2 L677.6,264.8 L677.8,263.5 L678.1,263.5 L678.3,263.5 L678.6,269.9 L678.8,266.0 L679.1,259.6 L679.4,259.6 L679.6,266.0 L679.9,267.3 L680.1,264.8 L680.4,263.5 L680.6,267.3 L680.9,258.3 L681.2,262.2 L681.4,263.5 L681.7,268.6 L681.9,267.3 L682.2,257.0 L682.5,268.6 L682.7,260.9 L683.0,264.8 L683.2,257.0 L683.5,257.0 L683.7,260.9 L684.0,259.6 L684.3,266.0 L684.5,259.6 L684.8,263.5 L685.0,263.5 L685.3,259.6 L685.5,263.5 L685.8,255.7 L686.1,258.3 L686.3,260.9 L686.6,263.5 L686.8,257.0 L687.1,264.8 L687.3,255.7 L687.6,266.0 L687.9,259.6 L688.1,254.4 L688.4,264.8 L688.6,264.8 L688.9,259.6 L689.1,263.5 L689.4,260.9 L689.7,262.2 L689.9,260.9 L690.2,260.9 L690.4,267.3 L690.7,258.3 L691.0,260.9 L691.2,264.8 L691.5,262.2 L691.7,257.0 L692.0,255.7 L692.2,260.9 L692.5,262.2 L692.8,266.0 L693.0,267.3 L693.3,263.5 L693.5,263.5 L693.8,267.3 L694.0,267.3 L694.3,266.0 L694.6,259.6 L694.8,264.8 L695.1,302.2 L695.3,290.6 L695.6,284.1 L695.8,275.1 L696.1,257.0 L696.4,247.9 L696.6,240.2 L696.9,233.7 L697.1,218.2 L697.4,211.7 L697.6,207.9 L697.9,209.2 L698.2,180.7 L698.4,197.5 L698.7,185.9 L698.9,179.4 L699.2,184.6 L699.5,167.8 L699.7,167.8 L700.0,153.6 L700.2,139.3 L700.5,165.2 L700.7,153.6 L701.0,156.2 L701.3,148.4 L701.5,154.9 L701.8,138.1 L702.0,139.3 L702.3,123.8 L702.5,151.0 L702.8,112.2 L703.1,127.7 L703.3,147.1 L703.6,121.2 L703.8,143.2 L704.1,114.8 L704.3,122.5 L704.6,110.9 L704.9,105.7 L705.1,136.8 L705.4,127.7 L705.6,138.1 L705.9,120.0 L706.1,104.4 L706.4,121.2 L706.7,132.9 L706.9,90.2 L707.2,135.5 L707.4,132.9 L707.7,132.9 L708.0,116.1 L708.2,121.2 L708.5,100.6 L708.7,112.2 L709.0,116.1 L709.2,120.0 L709.5,94.1 L709.8,120.0 L710.0,132.9 L710.3,140.6 L710.5,105.7 L710.8,140.6 L711.0,110.9 L711.3,141.9 L711.6,132.9 L711.8,148.4 L712.1,130.3 L712.3,130.3 L712.6,143.2 L712.8,131.6 L713.1,131.6 L713.4,120.0 L713.6,151.0 L713.9,129.0 L714.1,158.7 L714.4,144.5 L714.6,147.1 L714.9,147.1 L715.2,176.8 L715.4,166.5 L715.7,192.4 L715.9,173.0 L716.2,175.5 L716.5,165.2 L716.7,173.0 L717.0,149.7 L717.2,194.9 L717.5,182.0 L717.7,184.6 L718.0,174.3 L718.3,171.7 L718.5,170.4 L718.8,179.4 L719.0,194.9 L719.3,209.2 L719.5,204.0 L719.8,189.8 L720.1,194.9 L720.3,197.5 L720.6,200.1 L720.8,188.5 L721.1,207.9 L721.3,196.2 L721.6,213.0 L721.9,193.6 L722.1,209.2 L722.4,197.5 L722.6,185.9 L722.9,197.5 L723.1,174.3 L723.4,184.6 L723.7,178.1 L723.9,207.9 L724.2,198.8 L724.4,198.8 L724.7,179.4 L725.0,189.8 L725.2,171.7 L725.5,192.4 L725.7,204.0 L726.0,191.1 L726.2,220.8 L726.5,215.6 L726.8,198.8 L727.0,207.9 L727.3,192.4 L727.5,202.7 L727.8,216.9 L728.0,201.4 L728.3,206.6 L728.6,220.8 L728.8,213.0 L729.1,219.5 L729.3,216.9 L729.6,213.0 L729.8,216.9 L730.1,210.5 L730.4,187.2 L730.6,196.2 L730.9,213.0 L731.1,238.9 L731.4,227.3 L731.6,237.6 L731.9,232.4 L732.2,249.2 L732.4,227.3 L732.7,241.5 L732.9,263.5 L733.2,254.4 L733.5,249.2 L733.7,259.6 L734.0,241.5 L734.2,263.5 L734.5,246.7 L734.7,263.5 L735.0,254.4 L735.3,257.0 L735.5,273.8 L735.8,289.3 L736.0,302.2 L736.3,312.6 L736.5,326.8 L736.8,338.4 L737.1,351.4 L737.3,357.8 L737.6,366.9 L737.8,388.9 L738.1,397.9 L738.3,397.9 L738.6,403.1 L738.9,427.6 L739.1,421.2 L739.4,435.4 L739.6,447.0 L739.9,432.8 L740.1,445.7 L740.4,443.2 L740.7,445.7 L740.9,466.4 L741.2,476.8 L741.4,480.7 L741.7,478.1 L742.0,462.6 L742.2,471.6 L742.5,494.9 L742.7,483.2 L743.0,491.0 L743.2,484.5 L743.5,488.4 L743.8,489.7 L744.0,492.3 L744.3,509.1 L744.5,506.5 L744.8,507.8 L745.0,503.9 L745.3,501.3 L745.6,494.9 L745.8,514.3 L746.1,506.5 L746.3,487.1 L746.6,510.4 L746.8,522.0 L747.1,523.3 L747.4,497.5 L747.6,506.5 L747.9,506.5 L748.1,513.0 L748.4,511.7 L748.6,507.8 L748.9,527.2 L749.2,492.3 L749.4,516.9 L749.7,502.6 L749.9,502.6 L750.2,516.9 L750.5,497.5 L750.7,528.5 L751.0,519.4 L751.2,518.1 L751.5,536.2 L751.7,491.0 L752.0,531.1 L752.3,491.0 L752.5,527.2 L752.8,494.9 L753.0,525.9 L753.3,511.7 L753.5,524.6 L753.8,491.0 L754.1,519.4 L754.3,496.2 L754.6,524.6 L754.8,516.9 L755.1,506.5 L755.3,511.7 L755.6,494.9 L755.9,506.5 L756.1,528.5 L756.4,515.6 L756.6,503.9 L756.9,515.6 L757.1,531.1 L757.4,507.8 L757.7,527.2 L757.9,489.7 L758.2,515.6 L758.4,531.1 L758.7,522.0 L758.9,513.0 L759.2,513.0 L759.5,520.7 L759.7,528.5 L760.0,501.3 L760.2,515.6 L760.5,515.6 L760.8,498.8 L761.0,511.7 L761.3,518.1 L761.5,519.4 L761.8,522.0 L762.0,533.7 L762.3,496.2 L762.6,537.5 L762.8,510.4 L763.1,523.3 L763.3,527.2 L763.6,497.5 L763.8,529.8 L764.1,524.6 L764.4,520.7 L764.6,518.1 L764.9,529.8 L765.1,491.0 L765.4,503.9 L765.6,507.8 L765.9,529.8 L766.2,506.5 L766.4,510.4 L766.7,502.6 L766.9,525.9 L767.2,522.0 L767.4,491.0 L767.7,503.9 L768.0,511.7 L768.2,518.1 L768.5,528.5 L768.7,522.0 L769.0,509.1 L769.3,513.0 L769.5,525.9 L769.8,518.1 L770.0,497.5 L770.3,520.7 L770.5,498.8 L770.8,522.0 L771.1,516.9 L771.3,535.0 L771.6,496.2 L771.8,506.5 L772.1,525.9 L772.3,489.7 L772.6,533.7 L772.9,515.6 L773.1,528.5 L773.4,522.0 L773.6,493.6 L773.9,535.0 L774.1,505.2 L774.4,502.6 L774.7,522.0 L774.9,506.5 L775.2,515.6 L775.4,523.3 L775.7,518.1 L775.9,527.2 L776.2,523.3 L776.5,497.5 L776.7,496.2 L777.0,514.3 L777.2,532.4 L777.5,518.1 L777.8,515.6 L778.0,505.2 L778.3,506.5 L778.5,498.8 L778.8,509.1 L779.0,502.6 L779.3,505.2 L779.6,501.3 L779.8,515.6 L780.1,502.6 L780.3,536.2 L780.6,516.9 L780.8,506.5 L781.1,513.0 L781.4,528.5 L781.6,509.1 L781.9,531.1 L782.1,510.4 L782.4,502.6 L782.6,519.4 L782.9,510.4 L783.2,540.1 L783.4,531.1 L783.7,525.9 L783.9,536.2 L784.2,516.9 L784.4,533.7 L784.7,535.0 L785.0,515.6 L785.2,511.7 L785.5,524.6 L785.7,525.9 L786.0,498.8 L786.3,514.3 L786.5,500.0 L786.8,544.0 L787.0,501.3 L787.3,537.5 L787.5,491.0 L787.8,510.4 L788.1,529.8 L788.3,524.6 L788.6,513.0 L788.8,511.7 L789.1,520.7 L789.3,497.5 L789.6,515.6 L789.9,524.6 L790.1,533.7 L790.4,529.8 L790.6,529.8 L790.9,528.5 L791.1,494.9 L791.4,529.8 L791.7,520.7 L791.9,491.0 L792.2,529.8 L792.4,491.0 L792.7,528.5 L792.9,485.8 L793.2,492.3 L793.5,478.1 L793.7,428.9 L794.0,422.5 L794.2,410.8 L794.5,391.4 L794.8,370.8 L795.0,355.2 L795.3,343.6 L795.5,328.1 L795.8,316.5 L796.0,301.0 L796.3,288.0 L796.6,272.5 L796.8,264.8 L797.1,262.2 L797.3,238.9 L797.6,233.7 L797.8,232.4 L798.1,211.7 L798.4,211.7 L798.6,196.2 L798.9,189.8 L799.1,193.6 L799.4,176.8 L799.6,178.1 L799.9,160.0 L800.2,179.4 L800.4,173.0 L800.7,169.1 L800.9,139.3 L801.2,161.3 L801.4,145.8 L801.7,134.2 L802.0,156.2 L802.2,127.7 L802.5,149.7 L802.7,131.6 L803.0,152.3 L803.3,144.5 L803.5,130.3 L803.8,122.5 L804.0,113.5 L804.3,144.5 L804.5,139.3 L804.8,140.6 L805.1,112.2 L805.3,145.8 L805.6,105.7 L805.8,136.8 L806.1,132.9 L806.3,121.2 L806.6,130.3 L806.9,120.0 L807.1,123.8 L807.4,107.0 L807.6,139.3 L807.9,101.9 L808.1,110.9 L808.4,114.8 L808.7,118.7 L808.9,130.3 L809.2,104.4 L809.4,132.9 L809.7,108.3 L809.9,129.0 L810.2,125.1 L810.5,98.0 L810.7,132.9 L811.0,90.2 L811.2,114.8 L811.5,125.1 L811.8,126.4 L812.0,120.0 L812.3,88.9 L812.5,117.4 L812.8,129.0 L813.0,117.4 L813.3,108.3 L813.6,121.2 L813.8,116.1 L814.1,94.1 L814.3,108.3 L814.6,104.4 L814.8,123.8 L815.1,114.8 L815.4,122.5 L815.6,100.6 L815.9,113.5 L816.1,108.3 L816.4,110.9 L816.6,108.3 L816.9,122.5 L817.2,94.1 L817.4,114.8 L817.7,109.6 L817.9,78.6 L818.2,107.0 L818.4,87.6 L818.7,118.7 L819.0,125.1 L819.2,116.1 L819.5,121.2 L819.7,112.2 L820.0,116.1 L820.3,94.1 L820.5,104.4 L820.8,114.8 L821.0,110.9 L821.3,90.2 L821.5,108.3 L821.8,78.6 L822.1,125.1 L822.3,117.4 L822.6,98.0 L822.8,113.5 L823.1,118.7 L823.3,82.5 L823.6,100.6 L823.9,103.1 L824.1,109.6 L824.4,88.9 L824.6,129.0 L824.9,82.5 L825.1,95.4 L825.4,96.7 L825.7,110.9 L825.9,109.6 L826.2,88.9 L826.4,99.3 L826.7,94.1 L826.9,117.4 L827.2,94.1 L827.5,88.9 L827.7,122.5 L828.0,110.9 L828.2,104.4 L828.5,114.8 L828.8,99.3 L829.0,121.2 L829.3,118.7 L829.5,82.5 L829.8,116.1 L830.0,108.3 L830.3,116.1 L830.6,91.5 L830.8,104.4 L831.1,105.7 L831.3,92.8 L831.6,109.6 L831.8,98.0 L832.1,118.7 L832.4,96.7 L832.6,94.1 L832.9,117.4 L833.1,101.9 L833.4,96.7 L833.6,117.4 L833.9,98.0 L834.2,91.5 L834.4,107.0 L834.7,117.4 L834.9,113.5 L835.2,83.8 L835.4,125.1 L835.7,98.0 L836.0,109.6 L836.2,95.4 L836.5,96.7 L836.7,118.7 L837.0,122.5 L837.3,103.1 L837.5,98.0 L837.8,121.2 L838.0,86.3 L838.3,104.4 L838.5,105.7 L838.8,103.1 L839.1,94.1 L839.3,123.8 L839.6,112.2 L839.8,114.8 L840.1,107.0 L840.3,94.1 L840.6,96.7 L840.9,107.0 L841.1,121.2 L841.4,79.9 L841.6,116.1 L841.9,104.4 L842.1,126.4 L842.4,118.7 L842.7,112.2 L842.9,103.1 L843.2,107.0 L843.4,109.6 L843.7,86.3 L843.9,99.3 L844.2,125.1 L844.5,92.8 L844.7,126.4 L845.0,122.5 L845.2,112.2 L845.5,109.6 L845.8,88.9 L846.0,125.1 L846.3,96.7 L846.5,92.8 L846.8,117.4 L847.0,110.9 L847.3,120.0 L847.6,91.5 L847.8,101.9 L848.1,107.0 L848.3,121.2 L848.6,101.9 L848.8,87.6 L849.1,113.5 L849.4,116.1 L849.6,83.8 L849.9,112.2 L850.1,87.6 L850.4,96.7 L850.6,100.6 L850.9,120.0 L851.2,110.9 L851.4,114.8 L851.7,94.1 L851.9,107.0 L852.2,104.4 L852.4,100.6 L852.7,96.7 L853.0,101.9 L853.2,126.4 L853.5,105.7 L853.7,96.7 L854.0,87.6 L854.2,131.6 L854.5,90.2 L854.8,108.3 L855.0,122.5 L855.3,91.5 L855.5,117.4 L855.8,116.1 L856.1,92.8 L856.3,112.2 L856.6,104.4 L856.8,130.3 L857.1,95.4 L857.3,118.7 L857.6,109.6 L857.9,91.5 L858.1,113.5 L858.4,109.6 L858.6,121.2 L858.9,109.6 L859.1,101.9 L859.4,108.3 L859.7,95.4 L859.9,112.2 L860.2,86.3 L860.4,129.0 L860.7,99.3 L860.9,117.4 L861.2,112.2 L861.5,99.3 L861.7,116.1 L862.0,120.0 L862.2,96.7 L862.5,108.3 L862.7,100.6 L863.0,108.3 L863.3,95.4 L863.5,112.2 L863.8,123.8 L864.0,85.0 L864.3,127.7 L864.6,114.8 L864.8,94.1 L865.1,109.6 L865.3,123.8 L865.6,103.1 L865.8,116.1 L866.1,112.2 L866.4,83.8 L866.6,126.4 L866.9,104.4 L867.1,125.1 L867.4,90.2 L867.6,105.7 L867.9,98.0 L868.2,104.4 L868.4,121.2 L868.7,122.5 L868.9,103.1 L869.2,101.9 L869.4,87.6 L869.7,100.6 L870.0,98.0 L870.2,127.7 L870.5,100.6 L870.7,92.8 L871.0,109.6 L871.2,91.5 L871.5,112.2 L871.8,114.8 L872.0,100.6 L872.3,113.5 L872.5,96.7 L872.8,123.8 L873.1,122.5 L873.3,116.1 L873.6,83.8 L873.8,126.4 L874.1,109.6 L874.3,100.6 L874.6,114.8 L874.9,120.0 L875.1,86.3 L875.4,125.1 L875.6,112.2 L875.9,95.4 L876.1,117.4 L876.4,95.4 L876.7,114.8 L876.9,103.1 L877.2,120.0 L877.4,116.1 L877.7,116.1 L877.9,94.1 L878.2,122.5 L878.5,117.4 L878.7,127.7 L879.0,86.3 L879.2,113.5 L879.5,98.0 L879.7,130.3 L880.0,117.4 L880.3,88.9 L880.5,96.7 L880.8,107.0 L881.0,110.9 L881.3,121.2 L881.6,118.7 L881.8,101.9 L882.1,116.1 L882.3,107.0 L882.6,120.0 L882.8,113.5 L883.1,109.6 L883.4,112.2 L883.6,103.1 L883.9,105.7 L884.1,120.0 L884.4,86.3 L884.6,87.6 L884.9,109.6 L885.2,110.9 L885.4,122.5 L885.7,107.0 L885.9,82.5 L886.2,104.4 L886.4,125.1 L886.7,98.0 L887.0,100.6 L887.2,87.6 L887.5,113.5 L887.7,120.0 L888.0,92.8 L888.2,118.7 L888.5,90.2 L888.8,122.5 L889.0,91.5 L889.3,99.3 L889.5,122.5 L889.8,116.1 L890.1,127.7 L890.3,117.4 L890.6,101.9 L890.8,126.4 L891.1,120.0 L891.3,95.4 L891.6,109.6 L891.9,110.9 L892.1,105.7 L892.4,108.3 L892.6,99.3 L892.9,100.6 L893.1,103.1 L893.4,123.8 L893.7,114.8 L893.9,87.6 L894.2,91.5 L894.4,109.6 L894.7,120.0 L894.9,104.4 L895.2,92.8 L895.5,113.5 L895.7,95.4 L896.0,100.6 L896.2,116.1 L896.5,98.0 L896.7,108.3 L897.0,108.3 L897.3,103.1 L897.5,98.0 L897.8,110.9 L898.0,100.6 L898.3,96.7 L898.6,118.7 L898.8,76.0 L899.1,116.1 L899.3,100.6 L899.6,87.6 L899.8,114.8 L900.1,105.7 L900.4,126.4 L900.6,100.6 L900.9,123.8 L901.1,86.3 L901.4,121.2 L901.6,101.9 L901.9,108.3 L902.2,126.4 L902.4,100.6 L902.7,132.9 L902.9,96.7 L903.2,130.3 L903.4,91.5 L903.7,104.4 L904.0,130.3 L904.2,99.3 L904.5,100.6 L904.7,132.9 L905.0,109.6 L905.2,123.8 L905.5,108.3 L905.8,134.2 L906.0,90.2 L906.3,127.7 L906.5,135.5 L906.8,91.5 L907.1,120.0 L907.3,114.8 L907.6,107.0 L907.8,104.4 L908.1,125.1 L908.3,116.1 L908.6,94.1 L908.9,130.3 L909.1,122.5 L909.4,127.7 L909.6,92.8 L909.9,132.9 L910.1,98.0 L910.4,117.4 L910.7,136.8 L910.9,90.2 L911.2,123.8 L911.4,117.4 L911.7,131.6 L911.9,105.7 L912.2,132.9 L912.5,99.3 L912.7,121.2 L913.0,108.3 L913.2,132.9 L913.5,104.4 L913.7,114.8 L914.0,108.3 L914.3,105.7 L914.5,98.0 L914.8,103.1 L915.0,129.0 L915.3,99.3 L915.6,123.8 L915.8,116.1 L916.1,122.5 L916.3,122.5 L916.6,109.6 L916.8,120.0 L917.1,94.1 L917.4,117.4 L917.6,127.7 L917.9,99.3 L918.1,94.1 L918.4,120.0 L918.6,98.0 L918.9,96.7 L919.2,101.9 L919.4,109.6 L919.7,108.3 L919.9,85.0 L920.2,99.3 L920.4,92.8 L920.7,112.2 L921.0,88.9 L921.2,99.3 L921.5,90.2 L921.7,95.4 L922.0,98.0 L922.2,118.7 L922.5,122.5 L922.8,83.8 L923.0,125.1 L923.3,127.7 L923.5,87.6 L923.8,131.6 L924.1,117.4 L924.3,91.5 L924.6,122.5 L924.8,103.1 L925.1,105.7 L925.3,100.6 L925.6,95.4 L925.9,112.2 L926.1,125.1 L926.4,118.7 L926.6,99.3 L926.9,122.5 L927.1,92.8 L927.4,116.1 L927.7,122.5 L927.9,107.0 L928.2,116.1 L928.4,88.9 L928.7,117.4 L928.9,130.3 L929.2,105.7 L929.5,92.8 L929.7,94.1 L930.0,120.0 L930.2,109.6 L930.5,87.6 L930.7,129.0 L931.0,104.4 L931.3,104.4 L931.5,107.0 L931.8,122.5 L932.0,108.3 L932.3,131.6 L932.6,91.5 L932.8,101.9 L933.1,109.6 L933.3,99.3 L933.6,117.4 L933.8,104.4 L934.1,122.5 L934.4,95.4 L934.6,109.6 L934.9,101.9 L935.1,109.6 L935.4,109.6 L935.6,91.5 L935.9,122.5 L936.2,95.4 L936.4,121.2 L936.7,99.3 L936.9,120.0 L937.2,116.1 L937.4,101.9 L937.7,120.0 L938.0,110.9 L938.2,99.3 L938.5,91.5 L938.7,131.6 L939.0,120.0 L939.2,121.2 L939.5,88.9 L939.8,122.5 L940.0,123.8 L940.3,87.6 L940.5,123.8 L940.8,123.8 L941.1,120.0 L941.3,96.7 L941.6,129.0 L941.8,103.1 L942.1,130.3 L942.3,109.6 L942.6,127.7 L942.9,110.9 L943.1,105.7 L943.4,101.9 L943.6,104.4 L943.9,113.5 L944.1,108.3 L944.4,105.7 L944.7,94.1 L944.9,96.7 L945.2,110.9 L945.4,118.7 L945.7,114.8 L945.9,108.3 L946.2,113.5 L946.5,94.1 L946.7,109.6 L947.0,100.6 L947.2,126.4 L947.5,122.5 L947.7,82.5 L948.0,120.0 L948.3,108.3 L948.5,95.4 L948.8,120.0 L949.0,127.7 L949.3,104.4 L949.5,105.7 L949.8,129.0 L950.1,107.0 L950.3,131.6 L950.6,127.7 L950.8,98.0 L951.1,107.0 L951.4,121.2 L951.6,92.8 L951.9,98.0 L952.1,129.0 L952.4,125.1 L952.6,100.6 L952.9,107.0 L953.2,96.7 L953.4,131.6 L953.7,99.3 L953.9,118.7 L954.2,101.9 L954.4,116.1 L954.7,123.8 L955.0,118.7 L955.2,87.6 L955.5,135.5 L955.7,101.9 L956.0,104.4 L956.2,107.0 L956.5,110.9 L956.8,132.9 L957.0,109.6 L957.3,116.1 L957.5,122.5 L957.8,95.4 L958.0,99.3 L958.3,132.9 L958.6,105.7 L958.8,108.3 L959.1,129.0 L959.3,100.6 L959.6,99.3 L959.9,105.7 L960.1,103.1 L960.4,105.7 L960.6,116.1 L960.9,127.7 L961.1,105.7 L961.4,110.9 L961.7,101.9 L961.9,120.0 L962.2,83.8 L962.4,130.3 L962.7,109.6 L962.9,121.2 L963.2,130.3 L963.5,104.4 L963.7,103.1 L964.0,120.0 L964.2,117.4 L964.5,125.1 L964.7,87.6 L965.0,130.3 L965.3,126.4 L965.5,91.5 L965.8,127.7 L966.0,94.1 L966.3,113.5 L966.5,110.9 L966.8,99.3 L967.1,125.1 L967.3,98.0 L967.6,114.8 L967.8,131.6 L968.1,130.3 L968.4,103.1 L968.6,109.6 L968.9,96.7 L969.1,132.9 L969.4,116.1 L969.6,103.1 L969.9,131.6 L970.2,126.4 L970.4,123.8 L970.7,112.2 L970.9,121.2 L971.2,104.4 L971.4,105.7 L971.7,114.8 L972.0,113.5 L972.2,114.8 L972.5,87.6 L972.7,129.0 L973.0,90.2 L973.2,113.5 L973.5,120.0 L973.8,125.1 L974.0,113.5 L974.3,112.2 L974.5,96.7 L974.8,129.0 L975.0,107.0 L975.3,110.9 L975.6,109.6 L975.8,118.7 L976.1,98.0 L976.3,100.6 L976.6,104.4 L976.9,120.0 L977.1,94.1 L977.4,104.4 L977.6,96.7 L977.9,116.1 L978.1,122.5 L978.4,121.2 L978.7,118.7 L978.9,98.0 L979.2,109.6 L979.4,99.3 L979.7,109.6 L979.9,107.0 L980.2,105.7 L980.5,100.6 L980.7,96.7 L981.0,86.3 L981.2,92.8 L981.5,104.4 L981.7,100.6 L982.0,112.2 L982.3,114.8 L982.5,107.0 L982.8,116.1 L983.0,95.4 L983.3,90.2 L983.5,122.5 L983.8,113.5 L984.1,96.7 L984.3,103.1 L984.6,86.3 L984.8,129.0 L985.1,90.2 L985.4,112.2 L985.6,125.1 L985.9,107.0 L986.1,101.9 L986.4,100.6 L986.6,113.5 L986.9,129.0 L987.2,105.7 L987.4,96.7 L987.7,98.0 L987.9,122.5 L988.2,94.1 L988.4,105.7 L988.7,101.9 L989.0,127.7 L989.2,90.2 L989.5,96.7 L989.7,120.0 L990.0,88.9 L990.2,100.6 L990.5,132.9 L990.8,96.7 L991.0,103.1 L991.3,101.9 L991.5,130.3 L991.8,95.4 L992.0,117.4 L992.3,126.4 L992.6,104.4 L992.8,126.4 L993.1,122.5 L993.3,129.0 L993.6,109.6 L993.9,117.4 L994.1,110.9 L994.4,104.4 L994.6,116.1 L994.9,105.7 L995.1,113.5 L995.4,127.7 L995.7,104.4 L995.9,114.8 L996.2,101.9 L996.4,91.5 L996.7,109.6 L996.9,120.0 L997.2,87.6 L997.5,104.4 L997.7,108.3 L998.0,86.3 L998.2,110.9 L998.5,116.1 L998.7,122.5 L999.0,81.2 L999.3,118.7 L999.5,96.7 L999.8,104.4 L1000.0,125.1 L1000.3,100.6 L1000.5,113.5 L1000.8,130.3 L1001.1,114.8 L1001.3,110.9 L1001.6,109.6 L1001.8,108.3 L1002.1,96.7 L1002.4,96.7 L1002.6,103.1 L1002.9,103.1 L1003.1,101.9 L1003.4,105.7 L1003.6,94.1 L1003.9,126.4 L1004.2,114.8 L1004.4,98.0 L1004.7,117.4 L1004.9,108.3 L1005.2,114.8 L1005.4,94.1 L1005.7,118.7 L1006.0,88.9 L1006.2,131.6 L1006.5,126.4 L1006.7,110.9 L1007.0,131.6 L1007.2,117.4 L1007.5,110.9 L1007.8,110.9 L1008.0,116.1 L1008.3,101.9 L1008.5,126.4 L1008.8,94.1 L1009.0,109.6 L1009.3,91.5 L1009.6,117.4 L1009.8,114.8 L1010.1,113.5 L1010.3,129.0 L1010.6,116.1 L1010.9,112.2 L1011.1,129.0 L1011.4,117.4 L1011.6,85.0 L1011.9,104.4 L1012.1,105.7 L1012.4,113.5 L1012.7,114.8 L1012.9,90.2 L1013.2,92.8 L1013.4,101.9 L1013.7,116.1 L1013.9,98.0 L1014.2,125.1 L1014.5,104.4 L1014.7,123.8 L1015.0,94.1 L1015.2,117.4 L1015.5,108.3 L1015.7,101.9 L1016.0,127.7 L1016.3,109.6 L1016.5,117.4 L1016.8,121.2 L1017.0,112.2 L1017.3,99.3 L1017.5,108.3 L1017.8,118.7 L1018.1,103.1 L1018.3,113.5 L1018.6,104.4 L1018.8,110.9 L1019.1,120.0 L1019.4,85.0 L1019.6,103.1 L1019.9,100.6 L1020.1,127.7 L1020.4,92.8 L1020.6,117.4 L1020.9,107.0 L1021.2,125.1 L1021.4,108.3 L1021.7,127.7 L1021.9,95.4 L1022.2,132.9 L1022.4,108.3 L1022.7,103.1 L1023.0,130.3 L1023.2,91.5 L1023.5,101.9 L1023.7,101.9 L1024.0,114.8 L1024.2,130.3 L1024.5,94.1 L1024.8,96.7 L1025.0,101.9 L1025.3,122.5 L1025.5,121.2 L1025.8,99.3 L1026.0,104.4 L1026.3,103.1 L1026.6,108.3 L1026.8,105.7 L1027.1,129.0 L1027.3,95.4 L1027.6,120.0 L1027.9,95.4 L1028.1,134.2 L1028.4,103.1 L1028.6,109.6 L1028.9,116.1 L1029.1,122.5 L1029.4,96.7 L1029.7,120.0 L1029.9,120.0 L1030.2,120.0 L1030.4,117.4 L1030.7,114.8 L1030.9,87.6 L1031.2,96.7 L1031.5,99.3 L1031.7,127.7 L1032.0,123.8 L1032.2,96.7 L1032.5,91.5 L1032.7,105.7 L1033.0,91.5 L1033.3,122.5 L1033.5,100.6 L1033.8,103.1 L1034.0,94.1 L1034.3,122.5 L1034.5,90.2 L1034.8,100.6 L1035.1,132.9 L1035.3,112.2 L1035.6,114.8 L1035.8,129.0 L1036.1,113.5 L1036.4,130.3 L1036.6,109.6 L1036.9,110.9 L1037.1,92.8 L1037.4,125.1 L1037.6,123.8 L1037.9,105.7 L1038.2,110.9 L1038.4,88.9 L1038.7,117.4 L1038.9,117.4 L1039.2,91.5 L1039.4,107.0 L1039.7,94.1 L1040.0,104.4 L1040.2,113.5 L1040.5,123.8 L1040.7,88.9 L1041.0,112.2 L1041.2,103.1 L1041.5,112.2 L1041.8,101.9 L1042.0,90.2 L1042.3,107.0 L1042.5,95.4 L1042.8,121.2 L1043.0,94.1 L1043.3,116.1 L1043.6,103.1 L1043.8,96.7 L1044.1,121.2 L1044.3,101.9 L1044.6,116.1 L1044.8,116.1 L1045.1,122.5 L1045.4,118.7 L1045.6,118.7 L1045.9,92.8 L1046.1,96.7 L1046.4,103.1 L1046.7,116.1 L1046.9,85.0 L1047.2,130.3 L1047.4,104.4 L1047.7,104.4 L1047.9,131.6 L1048.2,117.4 L1048.5,95.4 L1048.7,95.4 L1049.0,127.7 L1049.2,99.3 L1049.5,107.0 L1049.7,118.7 L1050.0,117.4 L1050.3,108.3 L1050.5,109.6 L1050.8,108.3 L1051.0,91.5 L1051.3,132.9 L1051.5,107.0 L1051.8,101.9 L1052.1,116.1 L1052.3,127.7 L1052.6,96.7 L1052.8,117.4 L1053.1,109.6 L1053.3,117.4 L1053.6,91.5 L1053.9,117.4 L1054.1,94.1 L1054.4,129.0 L1054.6,100.6 L1054.9,118.7 L1055.2,118.7 L1055.4,105.7 L1055.7,131.6 L1055.9,130.3 L1056.2,94.1 L1056.4,103.1 L1056.7,120.0 L1057.0,100.6 L1057.2,121.2 L1057.5,127.7 L1057.7,127.7 L1058.0,117.4 L1058.2,95.4 L1058.5,116.1 L1058.8,122.5 L1059.0,122.5 L1059.3,88.9 L1059.5,129.0 L1059.8,110.9 L1060.0,118.7 L1060.3,117.4 L1060.6,107.0 L1060.8,116.1 L1061.1,126.4 L1061.3,91.5 L1061.6,103.1 L1061.8,125.1 L1062.1,112.2 L1062.4,120.0 L1062.6,114.8 L1062.9,123.8 L1063.1,113.5 L1063.4,117.4 L1063.7,94.1 L1063.9,92.8 L1064.2,120.0 L1064.4,104.4 L1064.7,95.4 L1064.9,103.1 L1065.2,114.8 L1065.5,92.8 L1065.7,130.3 L1066.0,117.4 L1066.2,123.8 L1066.5,109.6 L1066.7,125.1 L1067.0,109.6 L1067.3,108.3 L1067.5,113.5 L1067.8,99.3 L1068.0,116.1 L1068.3,110.9 L1068.5,101.9 L1068.8,127.7 L1069.1,101.9 L1069.3,125.1 L1069.6,113.5 L1069.8,126.4 L1070.1,123.8 L1070.3,90.2 L1070.6,105.7 L1070.9,96.7 L1071.1,110.9 L1071.4,117.4 L1071.6,92.8 L1071.9,109.6 L1072.2,99.3 L1072.4,103.1 L1072.7,101.9 L1072.9,117.4 L1073.2,107.0 L1073.4,88.9 L1073.7,107.0 L1074.0,105.7 L1074.2,109.6 L1074.5,88.9 L1074.7,130.3 L1075.0,125.1 L1075.2,109.6 L1075.5,86.3 L1075.8,92.8 L1076.0,107.0 L1076.3,87.6 L1076.5,104.4 L1076.8,82.5 L1077.0,122.5 L1077.3,114.8 L1077.6,118.7 L1077.8,90.2 L1078.1,99.3 L1078.3,129.0 L1078.6,131.6 L1078.8,135.5 L1079.1,139.3 L1079.4,143.2 L1079.6,110.9 L1079.9,135.5 L1080.1,134.2 L1080.4,122.5 L1080.7,152.3 L1080.9,149.7 L1081.2,113.5 L1081.4,109.6 L1081.7,139.3 L1081.9,125.1 L1082.2,125.1 L1082.5,110.9 L1082.7,139.3 L1083.0,153.6 L1083.2,140.6 L1083.5,117.4 L1083.7,138.1 L1084.0,152.3" fill="none" stroke="#ff7f0e" stroke-width="1.1" opacity="0.85"/><text x="616" y="572" font-size="11" fill="#888">time 0..36 s — altitude (blue) &amp; roll (orange)</text></svg>