<svg xmlns="http://www.w3.org/2000/svg" width="1140" height="600" font-family="sans-serif" font-size="13"><rect width="1140" height="600" fill="white"/><text x="20" y="26" font-size="15" fill="#333">Coludo flight</text><rect x="20" y="40" width="540" height="540" fill="#fbfbfb" stroke="#ddd"/><rect x="50" y="301" width="317" height="68" fill="#cde" stroke="#369" opacity="0.7"/><text x="50" y="296" fill="#369" font-size="12">landing zone</text><circle cx="251" cy="407" r="5" fill="black"/><text x="259" y="411" font-size="12">pad</text><path d="M250.8,407.3 L250.8,407.3 L250.8,407.3 L250.8,407.3 L250.8,407.3 L250.8,407.3 L250.8,407.3 L250.8,407.3 L250.8,407.3 L250.8,407.3 L250.8,407.3 L250.8,407.3 L250.8,407.3 L250.8,407.3 L250.8,407.3 L250.8,407.3 L250.8,407.3 L250.8,407.3 L250.8,407.3 L250.8,407.3 L250.8,407.3 L250.8,407.3 L250.8,407.3 L250.8,407.3 L250.8,407.3 L250.8,407.3 L250.8,407.3 L250.8,407.3 L250.8,407.3 L250.8,407.3 L250.8,407.3 L250.8,407.3 L250.8,407.3 L250.8,407.3 L250.8,407.3 L250.8,407.3 L250.8,407.3 L250.8,407.3 L250.8,407.3 L250.8,407.3 L250.8,407.3 L250.8,407.3 L250.8,407.3 L250.8,407.3 L250.8,407.3 L250.8,407.3 L250.8,407.3 L250.8,407.3 L250.8,407.3 L250.8,407.3 L250.8,407.3 L250.8,407.3 L250.8,407.3 L250.8,407.3 L250.8,407.3 L250.8,407.3 L250.8,407.3 L250.8,407.3 L252.0,405.3 L253.5,402.8 L254.9,400.3 L256.4,398.1 L258.1,395.6 L259.8,393.4 L261.5,391.1 L263.2,388.8 L265.1,386.7 L267.0,384.5 L268.8,382.4 L270.9,380.3 L272.9,378.4 L275.0,376.5 L277.2,374.5 L279.3,372.6 L281.5,370.9 L283.7,369.0 L285.9,367.3 L288.1,365.4 L290.3,363.5 L292.4,361.8 L294.6,359.7 L296.7,357.8 L298.7,355.7 L300.6,353.8 L302.5,351.6 L304.3,349.5 L306.2,347.2 L307.9,345.0 L309.6,342.7 L311.2,340.2 L312.7,338.0 L314.2,335.5 L315.6,333.1 L317.0,330.4 L318.1,328.0 L319.3,325.3 L320.4,322.7 L321.4,320.0 L322.4,317.4 L323.3,314.5 L324.1,311.9 L324.8,309.1 L325.5,306.2 L326.0,303.6 L326.5,300.7 L326.8,297.9 L327.2,295.1 L327.7,292.2 L328.0,289.4 L328.6,286.6 L329.2,283.7 L329.7,281.1 L330.4,278.2 L331.3,275.6 L332.1,272.8 L333.0,270.1 L334.0,267.5 L335.0,264.8 L336.2,262.2 L337.4,259.5 L338.8,257.1 L340.1,254.4 L341.5,252.0 L343.0,249.7 L344.6,247.2 L346.3,245.0 L348.0,242.5 L349.7,240.4 L351.6,238.2 L353.5,236.1 L355.3,234.0 L357.4,231.9 L359.4,230.0 L361.6,228.2 L363.9,226.3 L366.1,224.6 L368.3,222.7 L370.7,221.2 L373.1,219.5 L375.5,218.0 L377.8,216.6 L380.4,215.3 L383.0,214.0 L385.5,212.7 L388.1,211.5 L390.8,210.4 L393.4,209.4 L396.1,208.5 L398.8,207.6 L401.6,206.8 L404.3,206.2 L407.2,205.5 L409.9,204.9 L412.6,204.5 L415.5,204.2 L418.4,203.8 L421.2,203.6 L424.1,203.4 L427.0,203.4 L429.7,203.4 L432.6,203.4 L435.5,203.6 L438.4,204.0 L441.1,204.3 L444.0,204.7 L446.8,205.1 L449.5,205.7 L452.4,206.4 L455.1,207.2 L457.8,207.9 L460.6,208.9 L463.3,209.8 L465.9,210.8 L468.6,211.9 L471.2,213.2 L473.7,214.4 L476.3,215.7 L478.7,217.2 L481.0,218.5 L483.6,220.0 L485.8,221.7 L488.2,223.4 L490.4,225.1 L492.6,226.8 L494.9,228.7 L496.9,230.6 L499.0,232.7 L501.0,234.8 L503.0,236.9 L504.9,238.9 L506.6,241.0 L508.5,243.3 L510.2,245.5 L511.9,248.0 L513.5,250.3 L515.0,252.7 L516.4,255.2 L517.7,257.6 L519.1,260.3 L520.3,262.7 L521.5,265.4 L522.7,268.0 L523.7,270.7 L524.5,273.3 L525.4,276.2 L526.2,278.8 L526.9,281.6 L527.6,284.3 L528.1,287.1 L528.6,290.0 L529.1,292.8 L529.5,295.6 L529.7,298.5 L529.8,301.3 L530.0,304.1 L530.0,307.0 L530.0,309.8 L529.8,312.6 L529.7,315.5 L529.3,318.3 L529.0,321.2 L528.5,324.0 L528.0,326.8 L527.4,329.7 L526.8,332.5 L526.1,335.1 L525.2,338.0 L524.4,340.6 L523.3,343.3 L522.5,345.9 L521.3,348.6 L520.1,351.2 L518.9,353.8 L517.7,356.3 L516.4,359.0 L515.0,361.4 L513.5,363.9 L511.9,366.1 L510.4,368.6 L508.7,370.9 L507.0,373.1 L505.3,375.4 L503.4,377.7 L501.5,379.7 L499.5,381.8 L497.6,383.9 L495.5,385.8 L493.5,387.9 L491.3,389.8 L489.1,391.5 L486.8,393.4 L484.6,395.1 L482.2,396.6 L479.9,398.3 L477.5,399.8 L475.1,401.3 L472.5,402.6 L470.1,403.9 L467.6,405.3 L465.0,406.6 L462.3,407.7 L459.7,408.9 L457.0,409.8 L454.3,410.7 L451.7,411.7 L449.0,412.4 L446.1,413.2 L443.3,414.0 L440.6,414.5 L437.7,414.9 L435.0,415.5 L432.1,415.8 L429.4,416.2 L426.5,416.4 L424.1,416.6 L421.7,416.6 L419.3,416.6 L416.9,416.6 L414.5,416.6 L412.1,416.4 L409.9,416.2 L407.5,416.0 L405.1,415.8 L402.8,415.5 L400.4,415.1 L398.0,414.7 L395.8,414.3 L393.4,413.8 L391.2,413.2 L388.8,412.6 L386.5,412.1 L384.2,411.3 L381.9,410.6 L379.7,409.8 L377.5,408.9 L375.3,408.1 L373.1,407.2 L371.0,406.0 L368.8,405.1 L366.8,403.9 L364.5,402.8 L362.5,401.7 L360.4,400.5 L358.4,399.2 L356.5,397.9 L354.5,396.6 L352.6,395.2 L350.6,393.9 L348.7,392.4 L347.0,390.9 L345.1,389.4 L343.2,387.9 L341.5,386.2 L339.8,384.7 L337.9,383.1" fill="none" stroke="#1f77b4" stroke-width="1.7" opacity="0.85"/><circle cx="338" cy="383" r="4.5" fill="#1f77b4"/><text x="28" y="572" font-size="11" fill="#888">ground track — m from pad (N up)</text><rect x="580" y="40" width="540" height="540" fill="#fbfbfb" stroke="#ddd"/><text x="586" y="54" fill="#1f77b4" font-size="11">alt 302</text><text x="586" y="558" fill="#1f77b4" font-size="11">2</text><path d="M616.0,543.4 L616.3,543.9 L616.5,543.7 L616.8,543.5 L617.0,543.4 L617.3,543.3 L617.6,543.1 L617.8,542.9 L618.1,542.9 L618.3,542.6 L618.6,543.1 L618.8,542.6 L619.1,542.5 L619.4,542.0 L619.6,541.9 L619.9,541.4 L620.1,541.4 L620.4,541.6 L620.7,541.7 L620.9,541.3 L621.2,540.6 L621.4,540.6 L621.7,540.1 L621.9,540.5 L622.2,540.1 L622.5,538.7 L622.7,538.2 L623.0,538.8 L623.2,537.2 L623.5,536.9 L623.8,537.9 L624.0,535.6 L624.3,535.4 L624.5,534.4 L624.8,534.3 L625.0,534.8 L625.3,533.6 L625.6,532.4 L625.8,532.1 L626.1,533.8 L626.3,530.4 L626.6,530.9 L626.9,529.9 L627.1,530.1 L627.4,528.4 L627.6,527.1 L627.9,528.1 L628.2,528.6 L628.4,524.7 L628.7,524.8 L628.9,527.1 L629.2,524.1 L629.4,521.6 L629.7,520.9 L630.0,521.8 L630.2,521.9 L630.5,522.1 L630.7,517.9 L631.0,520.9 L631.3,515.0 L631.5,516.0 L631.8,513.1 L632.0,516.3 L632.3,514.8 L632.5,516.1 L632.8,512.5 L633.1,509.4 L633.3,507.0 L633.6,512.4 L633.8,510.4 L634.1,506.8 L634.4,502.4 L634.6,504.3 L634.9,503.0 L635.1,499.6 L635.4,497.8 L635.7,500.7 L635.9,498.3 L636.2,498.6 L636.4,502.1 L636.7,491.9 L636.9,498.2 L637.2,489.8 L637.5,492.1 L637.7,495.4 L638.0,495.3 L638.2,493.7 L638.5,494.0 L638.8,490.6 L639.0,481.1 L639.3,479.3 L639.5,487.5 L639.8,484.4 L640.0,473.9 L640.3,481.8 L640.6,480.2 L640.8,474.7 L641.1,479.3 L641.3,477.1 L641.6,473.6 L641.9,466.9 L642.1,469.3 L642.4,472.0 L642.6,462.6 L642.9,460.0 L643.1,468.5 L643.4,464.6 L643.7,452.8 L643.9,463.2 L644.2,456.4 L644.4,452.7 L644.7,456.8 L645.0,458.8 L645.2,452.3 L645.5,450.1 L645.7,457.5 L646.0,454.1 L646.3,447.5 L646.5,450.8 L646.8,449.2 L647.0,432.0 L647.3,444.6 L647.5,445.8 L647.8,442.6 L648.1,435.8 L648.3,424.8 L648.6,439.3 L648.8,416.5 L649.1,429.4 L649.4,421.2 L649.6,417.7 L649.9,431.9 L650.1,411.9 L650.4,416.5 L650.6,425.0 L650.9,406.4 L651.2,402.4 L651.4,413.1 L651.7,411.6 L651.9,414.2 L652.2,396.2 L652.5,406.5 L652.7,410.3 L653.0,397.9 L653.2,391.8 L653.5,399.9 L653.8,390.5 L654.0,396.8 L654.3,382.6 L654.5,382.3 L654.8,382.6 L655.0,376.9 L655.3,374.9 L655.6,363.0 L655.8,385.3 L656.1,386.2 L656.3,376.2 L656.6,367.3 L656.9,367.3 L657.1,380.5 L657.4,355.2 L657.6,361.6 L657.9,362.7 L658.1,367.3 L658.4,344.1 L658.7,359.6 L658.9,369.2 L659.2,336.7 L659.4,361.5 L659.7,360.1 L660.0,323.8 L660.2,335.0 L660.5,322.2 L660.7,339.0 L661.0,326.4 L661.2,328.1 L661.5,326.0 L661.8,324.3 L662.0,309.2 L662.3,315.7 L662.5,307.4 L662.8,308.1 L663.1,305.0 L663.3,307.4 L663.6,327.5 L663.8,287.4 L664.1,307.9 L664.4,314.0 L664.6,295.5 L664.9,312.0 L665.1,323.4 L665.4,286.0 L665.6,294.0 L665.9,292.5 L666.2,275.8 L666.4,277.4 L666.7,282.0 L666.9,305.8 L667.2,273.9 L667.5,260.9 L667.7,280.0 L668.0,293.3 L668.2,279.5 L668.5,272.7 L668.7,246.8 L669.0,250.4 L669.3,275.0 L669.5,260.6 L669.8,285.9 L670.0,274.0 L670.3,272.0 L670.6,274.5 L670.8,278.8 L671.1,233.6 L671.3,272.6 L671.6,254.3 L671.8,243.5 L672.1,218.0 L672.4,232.7 L672.6,213.5 L672.9,236.8 L673.1,247.4 L673.4,267.1 L673.7,251.7 L673.9,207.0 L674.2,259.3 L674.4,233.4 L674.7,260.1 L675.0,220.4 L675.2,238.2 L675.5,193.4 L675.7,213.0 L676.0,235.2 L676.2,212.3 L676.5,207.6 L676.8,223.7 L677.0,228.8 L677.3,202.4 L677.5,201.2 L677.8,194.4 L678.1,197.3 L678.3,228.8 L678.6,211.7 L678.8,171.2 L679.1,193.8 L679.3,214.0 L679.6,225.7 L679.9,220.4 L680.1,183.1 L680.4,163.6 L680.6,164.7 L680.9,202.8 L681.2,181.7 L681.4,178.5 L681.7,177.8 L681.9,204.1 L682.2,187.7 L682.5,146.4 L682.7,198.4 L683.0,160.0 L683.2,195.5 L683.5,145.4 L683.7,180.0 L684.0,201.8 L684.3,141.9 L684.5,189.8 L684.8,144.7 L685.0,150.9 L685.3,188.7 L685.6,155.6 L685.8,148.6 L686.1,140.2 L686.3,170.2 L686.6,163.3 L686.8,155.4 L687.1,129.4 L687.4,128.9 L687.6,148.1 L687.9,159.9 L688.1,145.5 L688.4,150.9 L688.7,112.5 L688.9,185.6 L689.2,183.2 L689.4,129.7 L689.7,108.2 L689.9,126.8 L690.2,154.8 L690.5,173.4 L690.7,164.2 L691.0,116.2 L691.2,107.7 L691.5,123.4 L691.8,141.3 L692.0,92.3 L692.3,102.2 L692.5,165.4 L692.8,152.5 L693.1,130.4 L693.3,165.8 L693.6,116.9 L693.8,136.0 L694.1,140.2 L694.3,108.4 L694.6,112.7 L694.9,153.3 L695.1,76.0 L695.4,104.6 L695.6,150.4 L695.9,100.7 L696.2,142.3 L696.4,111.6 L696.7,159.6 L696.9,124.0 L697.2,119.6 L697.4,99.7 L697.7,122.8 L698.0,82.0 L698.2,152.2 L698.5,102.4 L698.7,133.8 L699.0,120.6 L699.3,96.9 L699.5,104.0 L699.8,120.6 L700.0,125.5 L700.3,158.3 L700.6,85.5 L700.8,123.4 L701.1,90.3 L701.3,96.4 L701.6,150.9 L701.8,116.3 L702.1,89.5 L702.4,162.4 L702.6,87.9 L702.9,121.6 L703.1,132.9 L703.4,144.7 L703.7,102.4 L703.9,151.3 L704.2,140.3 L704.4,122.2 L704.7,111.8 L704.9,137.8 L705.2,91.3 L705.5,101.8 L705.7,109.1 L706.0,120.5 L706.2,92.3 L706.5,85.7 L706.8,118.7 L707.0,138.6 L707.3,150.5 L707.5,83.5 L707.8,144.9 L708.0,132.6 L708.3,86.6 L708.6,162.0 L708.8,102.5 L709.1,89.9 L709.3,153.3 L709.6,85.0 L709.9,118.0 L710.1,164.3 L710.4,161.8 L710.6,157.6 L710.9,83.0 L711.2,164.5 L711.4,93.6 L711.7,115.9 L711.9,132.7 L712.2,96.9 L712.4,81.1 L712.7,144.3 L713.0,109.6 L713.2,100.9 L713.5,150.0 L713.7,132.1 L714.0,106.7 L714.3,160.4 L714.5,132.1 L714.8,101.3 L715.0,111.0 L715.3,146.6 L715.5,92.5 L715.8,152.0 L716.1,157.7 L716.3,99.4 L716.6,108.6 L716.8,152.6 L717.1,116.5 L717.4,90.4 L717.6,148.0 L717.9,155.4 L718.1,135.4 L718.4,83.7 L718.6,112.8 L718.9,158.6 L719.2,122.3 L719.4,90.8 L719.7,120.4 L719.9,151.7 L720.2,118.8 L720.5,92.3 L720.7,104.1 L721.0,153.6 L721.2,109.4 L721.5,97.2 L721.8,140.9 L722.0,107.3 L722.3,106.2 L722.5,110.0 L722.8,127.3 L723.0,136.3 L723.3,95.7 L723.6,153.5 L723.8,89.2 L724.1,143.2 L724.3,134.9 L724.6,158.6 L724.9,166.0 L725.1,133.3 L725.4,119.8 L725.6,86.2 L725.9,115.5 L726.1,96.5 L726.4,146.0 L726.7,168.1 L726.9,111.7 L727.2,110.3 L727.4,114.6 L727.7,101.7 L728.0,166.0 L728.2,139.9 L728.5,104.7 L728.7,115.3 L729.0,147.2 L729.3,117.5 L729.5,153.6 L729.8,101.2 L730.0,144.6 L730.3,89.5 L730.5,127.1 L730.8,119.5 L731.1,123.0 L731.3,147.4 L731.6,92.9 L731.8,130.8 L732.1,147.4 L732.4,117.2 L732.6,111.0 L732.9,157.9 L733.1,159.3 L733.4,164.3 L733.6,94.8 L733.9,100.6 L734.2,127.3 L734.4,126.7 L734.7,122.4 L734.9,97.5 L735.2,125.8 L735.5,91.2 L735.7,136.6 L736.0,111.5 L736.2,92.3 L736.5,148.0 L736.7,163.5 L737.0,121.4 L737.3,96.8 L737.5,103.8 L737.8,135.6 L738.0,144.1 L738.3,168.6 L738.6,99.9 L738.8,170.5 L739.1,144.8 L739.3,120.1 L739.6,168.2 L739.9,101.1 L740.1,113.5 L740.4,132.9 L740.6,140.4 L740.9,111.6 L741.1,137.7 L741.4,104.8 L741.7,152.6 L741.9,135.9 L742.2,94.4 L742.4,125.5 L742.7,95.4 L743.0,139.6 L743.2,152.8 L743.5,158.8 L743.7,113.9 L744.0,138.9 L744.2,168.2 L744.5,106.3 L744.8,97.2 L745.0,163.3 L745.3,138.0 L745.5,107.2 L745.8,170.0 L746.1,122.5 L746.3,142.4 L746.6,168.5 L746.8,100.5 L747.1,96.4 L747.4,166.3 L747.6,133.6 L747.9,153.4 L748.1,144.0 L748.4,148.3 L748.6,107.0 L748.9,154.7 L749.2,152.5 L749.4,100.9 L749.7,143.1 L749.9,131.5 L750.2,153.7 L750.5,145.0 L750.7,123.7 L751.0,117.8 L751.2,139.7 L751.5,165.3 L751.7,137.8 L752.0,122.7 L752.3,179.0 L752.5,130.9 L752.8,106.8 L753.0,143.0 L753.3,127.2 L753.6,116.4 L753.8,130.4 L754.1,149.1 L754.3,112.7 L754.6,129.0 L754.8,141.0 L755.1,180.1 L755.4,131.7 L755.6,141.4 L755.9,178.8 L756.1,162.5 L756.4,150.3 L756.7,151.6 L756.9,143.5 L757.2,180.8 L757.4,157.6 L757.7,151.9 L758.0,124.0 L758.2,136.7 L758.5,182.5 L758.7,168.8 L759.0,141.3 L759.2,143.3 L759.5,152.9 L759.8,128.2 L760.0,152.7 L760.3,147.9 L760.5,124.3 L760.8,176.3 L761.1,128.0 L761.3,115.2 L761.6,181.4 L761.8,165.8 L762.1,111.9 L762.3,153.4 L762.6,118.3 L762.9,155.3 L763.1,124.0 L763.4,146.7 L763.6,160.5 L763.9,135.4 L764.2,174.1 L764.4,163.9 L764.7,153.1 L764.9,166.3 L765.2,168.2 L765.4,160.1 L765.7,176.9 L766.0,119.0 L766.2,118.1 L766.5,119.9 L766.7,171.0 L767.0,134.8 L767.3,116.6 L767.5,183.6 L767.8,142.5 L768.0,173.0 L768.3,140.0 L768.6,149.2 L768.8,180.3 L769.1,155.1 L769.3,188.1 L769.6,168.6 L769.8,165.7 L770.1,179.6 L770.4,128.7 L770.6,119.0 L770.9,174.0 L771.1,185.6 L771.4,136.9 L771.7,176.9 L771.9,192.4 L772.2,172.6 L772.4,184.2 L772.7,149.7 L772.9,192.2 L773.2,190.3 L773.5,135.8 L773.7,118.3 L774.0,186.9 L774.2,123.6 L774.5,187.4 L774.8,141.0 L775.0,126.5 L775.3,153.0 L775.5,122.5 L775.8,154.6 L776.1,153.1 L776.3,158.2 L776.6,132.2 L776.8,138.1 L777.1,186.0 L777.3,174.7 L777.6,146.9 L777.9,152.3 L778.1,131.6 L778.4,180.1 L778.6,176.1 L778.9,156.1 L779.2,166.2 L779.4,175.2 L779.7,171.7 L779.9,143.0 L780.2,162.8 L780.4,169.1 L780.7,123.8 L781.0,152.8 L781.2,135.1 L781.5,165.7 L781.7,184.3 L782.0,127.7 L782.3,147.6 L782.5,187.5 L782.8,148.2 L783.0,134.1 L783.3,190.9 L783.5,144.0 L783.8,157.4 L784.1,174.2 L784.3,171.9 L784.6,159.5 L784.8,188.0 L785.1,140.8 L785.4,178.3 L785.6,198.9 L785.9,142.4 L786.1,154.3 L786.4,180.9 L786.7,150.9 L786.9,148.4 L787.2,134.5 L787.4,167.3 L787.7,197.9 L787.9,172.0 L788.2,152.9 L788.5,167.7 L788.7,164.9 L789.0,148.9 L789.2,144.3 L789.5,135.2 L789.8,195.7 L790.0,156.2 L790.3,187.8 L790.5,130.5 L790.8,183.2 L791.0,148.3 L791.3,157.1 L791.6,183.7 L791.8,166.7 L792.1,197.3 L792.3,182.5 L792.6,197.0 L792.9,179.9 L793.1,157.7 L793.4,136.2 L793.6,168.3 L793.9,197.4 L794.2,155.8 L794.4,152.5 L794.7,204.1 L794.9,177.3 L795.2,173.0 L795.4,135.3 L795.7,174.8 L796.0,135.0 L796.2,174.3 L796.5,189.4 L796.7,149.6 L797.0,200.3 L797.3,180.0 L797.5,162.5 L797.8,186.5 L798.0,208.1 L798.3,173.3 L798.5,164.2 L798.8,207.2 L799.1,188.7 L799.3,148.0 L799.6,186.6 L799.8,208.1 L800.1,165.1 L800.4,167.9 L800.6,164.6 L800.9,192.8 L801.1,202.0 L801.4,173.7 L801.6,201.3 L801.9,158.8 L802.2,147.5 L802.4,213.0 L802.7,175.5 L802.9,189.0 L803.2,204.3 L803.5,145.8 L803.7,205.8 L804.0,212.2 L804.2,185.6 L804.5,215.0 L804.8,191.1 L805.0,171.5 L805.3,161.6 L805.5,147.7 L805.8,166.3 L806.0,150.1 L806.3,184.8 L806.6,201.9 L806.8,164.2 L807.1,153.1 L807.3,188.7 L807.6,149.0 L807.9,172.2 L808.1,173.8 L808.4,202.9 L808.6,184.8 L808.9,218.9 L809.1,150.6 L809.4,216.2 L809.7,204.3 L809.9,173.2 L810.2,163.9 L810.4,192.0 L810.7,215.8 L811.0,205.0 L811.2,221.3 L811.5,155.9 L811.7,162.2 L812.0,220.7 L812.2,203.3 L812.5,181.9 L812.8,210.8 L813.0,194.2 L813.3,159.6 L813.5,198.7 L813.8,161.3 L814.1,225.0 L814.3,158.4 L814.6,180.3 L814.8,178.3 L815.1,163.4 L815.4,221.8 L815.6,167.3 L815.9,168.2 L816.1,202.6 L816.4,226.4 L816.6,220.1 L816.9,195.4 L817.2,163.8 L817.4,172.8 L817.7,210.6 L817.9,195.0 L818.2,208.5 L818.5,173.2 L818.7,162.8 L819.0,198.7 L819.2,208.2 L819.5,207.7 L819.7,175.3 L820.0,180.3 L820.3,173.6 L820.5,162.7 L820.8,188.1 L821.0,162.7 L821.3,193.7 L821.6,184.9 L821.8,211.2 L822.1,175.2 L822.3,210.0 L822.6,169.8 L822.9,180.3 L823.1,181.1 L823.4,223.2 L823.6,218.2 L823.9,229.7 L824.1,166.3 L824.4,199.3 L824.7,193.0 L824.9,209.7 L825.2,232.3 L825.4,182.0 L825.7,206.3 L826.0,190.1 L826.2,213.3 L826.5,210.1 L826.7,231.1 L827.0,223.3 L827.2,204.9 L827.5,237.1 L827.8,211.8 L828.0,229.6 L828.3,232.5 L828.5,218.1 L828.8,193.8 L829.1,170.6 L829.3,190.5 L829.6,237.1 L829.8,174.0 L830.1,238.5 L830.3,193.8 L830.6,219.3 L830.9,190.6 L831.1,215.7 L831.4,203.6 L831.6,210.9 L831.9,197.5 L832.2,203.2 L832.4,197.5 L832.7,225.8 L832.9,188.9 L833.2,204.2 L833.5,217.2 L833.7,188.3 L834.0,236.4 L834.2,218.1 L834.5,193.5 L834.7,224.4 L835.0,234.6 L835.3,220.0 L835.5,211.3 L835.8,242.6 L836.0,208.3 L836.3,234.4 L836.6,217.6 L836.8,193.4 L837.1,182.1 L837.3,198.8 L837.6,232.5 L837.8,215.0 L838.1,247.4 L838.4,245.9 L838.6,241.6 L838.9,221.4 L839.1,246.0 L839.4,185.3 L839.7,207.9 L839.9,242.2 L840.2,228.5 L840.4,188.4 L840.7,196.3 L841.0,211.7 L841.2,198.8 L841.5,202.3 L841.7,225.6 L842.0,209.6 L842.2,228.1 L842.5,202.4 L842.8,186.8 L843.0,226.2 L843.3,194.6 L843.5,215.9 L843.8,223.5 L844.1,202.4 L844.3,242.1 L844.6,235.4 L844.8,244.4 L845.1,250.6 L845.3,232.5 L845.6,191.5 L845.9,212.1 L846.1,234.2 L846.4,239.3 L846.6,193.6 L846.9,220.7 L847.2,219.0 L847.4,242.4 L847.7,219.0 L847.9,255.6 L848.2,233.0 L848.4,247.3 L848.7,244.7 L849.0,201.0 L849.2,237.2 L849.5,222.7 L849.7,253.1 L850.0,201.5 L850.3,249.7 L850.5,227.3 L850.8,218.5 L851.0,198.4 L851.3,241.2 L851.6,249.1 L851.8,200.3 L852.1,201.2 L852.3,256.7 L852.6,260.1 L852.8,233.3 L853.1,221.1 L853.4,216.7 L853.6,250.6 L853.9,200.3 L854.1,259.4 L854.4,235.7 L854.7,236.1 L854.9,241.4 L855.2,263.7 L855.4,258.4 L855.7,229.6 L855.9,249.8 L856.2,244.2 L856.5,208.0 L856.7,218.5 L857.0,265.9 L857.2,233.9 L857.5,245.6 L857.8,230.0 L858.0,243.0 L858.3,240.5 L858.5,262.3 L858.8,223.8 L859.0,233.6 L859.3,244.5 L859.6,234.9 L859.8,239.4 L860.1,264.6 L860.3,208.5 L860.6,210.9 L860.9,209.4 L861.1,221.7 L861.4,213.7 L861.6,230.3 L861.9,248.4 L862.2,210.8 L862.4,229.6 L862.7,230.3 L862.9,259.8 L863.2,265.2 L863.4,225.8 L863.7,249.5 L864.0,223.5 L864.2,250.7 L864.5,236.5 L864.7,262.3 L865.0,257.5 L865.3,259.3 L865.5,237.5 L865.8,251.5 L866.0,266.2 L866.3,251.5 L866.5,271.1 L866.8,227.4 L867.1,244.6 L867.3,237.8 L867.6,221.4 L867.8,264.2 L868.1,259.3 L868.4,248.0 L868.6,223.0 L868.9,276.1 L869.1,262.9 L869.4,221.9 L869.7,278.0 L869.9,239.0 L870.2,232.9 L870.4,254.4 L870.7,263.9 L870.9,241.2 L871.2,224.7 L871.5,244.6 L871.7,247.4 L872.0,231.4 L872.2,259.8 L872.5,261.6 L872.8,262.0 L873.0,252.8 L873.3,257.8 L873.5,230.5 L873.8,266.0 L874.0,249.5 L874.3,257.6 L874.6,248.2 L874.8,279.8 L875.1,281.2 L875.3,283.4 L875.6,286.1 L875.9,244.2 L876.1,271.7 L876.4,275.3 L876.6,234.9 L876.9,231.9 L877.1,236.5 L877.4,256.8 L877.7,255.9 L877.9,243.1 L878.2,287.4 L878.4,258.6 L878.7,248.3 L879.0,265.7 L879.2,257.0 L879.5,242.4 L879.7,246.5 L880.0,250.1 L880.3,245.9 L880.5,290.0 L880.8,242.1 L881.0,246.7 L881.3,262.7 L881.5,248.1 L881.8,260.6 L882.1,285.8 L882.3,261.6 L882.6,267.5 L882.8,290.0 L883.1,276.9 L883.4,268.7 L883.6,264.5 L883.9,249.0 L884.1,250.0 L884.4,251.3 L884.6,293.2 L884.9,281.0 L885.2,285.6 L885.4,294.0 L885.7,272.1 L885.9,274.6 L886.2,258.8 L886.5,247.8 L886.7,295.2 L887.0,287.7 L887.2,266.6 L887.5,249.4 L887.8,247.2 L888.0,249.5 L888.3,252.1 L888.5,275.3 L888.8,270.0 L889.0,269.3 L889.3,294.5 L889.6,262.6 L889.8,267.1 L890.1,275.7 L890.3,270.5 L890.6,261.1 L890.9,287.5 L891.1,278.0 L891.4,267.5 L891.6,275.9 L891.9,292.8 L892.1,303.4 L892.4,300.6 L892.7,288.7 L892.9,276.9 L893.2,287.9 L893.4,299.1 L893.7,285.4 L894.0,294.1 L894.2,304.5 L894.5,276.7 L894.7,267.2 L895.0,278.0 L895.2,282.5 L895.5,285.1 L895.8,298.5 L896.0,278.4 L896.3,303.6 L896.5,278.5 L896.8,282.5 L897.1,280.3 L897.3,294.9 L897.6,279.5 L897.8,269.7 L898.1,297.8 L898.4,274.3 L898.6,283.1 L898.9,299.8 L899.1,313.0 L899.4,278.7 L899.6,273.9 L899.9,280.4 L900.2,269.8 L900.4,265.4 L900.7,276.3 L900.9,263.9 L901.2,293.8 L901.5,300.0 L901.7,300.5 L902.0,293.9 L902.2,267.2 L902.5,290.6 L902.7,291.1 L903.0,297.8 L903.3,271.8 L903.5,277.7 L903.8,296.9 L904.0,308.3 L904.3,303.8 L904.6,276.3 L904.8,295.6 L905.1,312.7 L905.3,310.4 L905.6,301.7 L905.8,313.3 L906.1,301.2 L906.4,280.1 L906.6,298.8 L906.9,286.8 L907.1,297.1 L907.4,322.4 L907.7,319.9 L907.9,278.7 L908.2,277.9 L908.4,321.8 L908.7,304.6 L909.0,321.0 L909.2,300.7 L909.5,286.7 L909.7,299.9 L910.0,278.6 L910.2,290.7 L910.5,284.7 L910.8,278.5 L911.0,322.7 L911.3,289.5 L911.5,284.3 L911.8,318.7 L912.1,285.9 L912.3,327.2 L912.6,318.9 L912.8,328.9 L913.1,314.0 L913.3,285.8 L913.6,298.2 L913.9,318.9 L914.1,324.9 L914.4,305.3 L914.6,318.2 L914.9,292.1 L915.2,301.0 L915.4,296.4 L915.7,327.3 L915.9,298.4 L916.2,295.9 L916.5,285.7 L916.7,311.4 L917.0,317.8 L917.2,312.1 L917.5,322.6 L917.7,331.1 L918.0,311.4 L918.3,321.1 L918.5,299.8 L918.8,329.3 L919.0,323.0 L919.3,313.5 L919.6,297.1 L919.8,317.2 L920.1,319.7 L920.3,294.9 L920.6,312.2 L920.8,316.5 L921.1,317.5 L921.4,326.3 L921.6,331.4 L921.9,314.6 L922.1,324.5 L922.4,313.6 L922.7,330.8 L922.9,319.3 L923.2,303.8 L923.4,298.9 L923.7,332.9 L923.9,339.7 L924.2,306.0 L924.5,299.7 L924.7,298.0 L925.0,303.4 L925.2,327.5 L925.5,341.5 L925.8,317.8 L926.0,337.5 L926.3,328.2 L926.5,312.4 L926.8,330.0 L927.1,326.2 L927.3,311.5 L927.6,338.5 L927.8,342.5 L928.1,309.6 L928.3,316.8 L928.6,318.2 L928.9,318.8 L929.1,309.5 L929.4,310.7 L929.6,338.7 L929.9,346.5 L930.2,345.6 L930.4,323.0 L930.7,314.8 L930.9,307.1 L931.2,324.6 L931.4,314.0 L931.7,328.4 L932.0,317.5 L932.2,318.1 L932.5,317.2 L932.7,333.8 L933.0,343.2 L933.3,351.9 L933.5,332.0 L933.8,344.6 L934.0,312.8 L934.3,316.2 L934.6,350.6 L934.8,353.7 L935.1,352.1 L935.3,356.1 L935.6,351.8 L935.8,352.8 L936.1,333.4 L936.4,346.2 L936.6,316.3 L936.9,349.5 L937.1,333.4 L937.4,346.4 L937.7,349.7 L937.9,337.9 L938.2,318.9 L938.4,322.0 L938.7,319.6 L938.9,336.2 L939.2,338.1 L939.5,354.5 L939.7,349.9 L940.0,327.8 L940.2,336.9 L940.5,356.3 L940.8,327.9 L941.0,351.1 L941.3,355.9 L941.5,340.8 L941.8,336.5 L942.0,324.1 L942.3,334.5 L942.6,356.0 L942.8,343.3 L943.1,358.7 L943.3,347.9 L943.6,366.1 L943.9,347.7 L944.1,340.0 L944.4,330.4 L944.6,360.6 L944.9,362.8 L945.2,335.5 L945.4,341.0 L945.7,363.9 L945.9,361.9 L946.2,332.4 L946.4,369.6 L946.7,337.7 L947.0,352.4 L947.2,341.8 L947.5,338.0 L947.7,340.1 L948.0,332.9 L948.3,366.7 L948.5,343.2 L948.8,364.0 L949.0,355.8 L949.3,336.9 L949.5,367.4 L949.8,360.2 L950.1,347.2 L950.3,372.7 L950.6,360.3 L950.8,357.1 L951.1,365.8 L951.4,354.4 L951.6,364.2 L951.9,338.7 L952.1,352.9 L952.4,342.1 L952.6,364.2 L952.9,348.3 L953.2,352.6 L953.4,344.9 L953.7,376.0 L953.9,345.0 L954.2,342.6 L954.5,370.3 L954.7,362.3 L955.0,371.4 L955.2,365.3 L955.5,358.4 L955.8,364.8 L956.0,376.6 L956.3,374.2 L956.5,363.3 L956.8,356.3 L957.0,352.8 L957.3,351.1 L957.6,350.1 L957.8,380.0 L958.1,364.7 L958.3,350.7 L958.6,377.2 L958.9,350.8 L959.1,359.5 L959.4,385.2 L959.6,356.2 L959.9,357.3 L960.1,365.4 L960.4,374.7 L960.7,363.4 L960.9,376.0 L961.2,359.9 L961.4,355.4 L961.7,360.1 L962.0,374.3 L962.2,364.2 L962.5,363.3 L962.7,371.3 L963.0,371.8 L963.3,375.6 L963.5,380.8 L963.8,363.0 L964.0,360.2 L964.3,379.3 L964.5,376.8 L964.8,385.0 L965.1,385.4 L965.3,378.1 L965.6,381.8 L965.8,368.4 L966.1,363.7 L966.4,386.1 L966.6,377.6 L966.9,380.2 L967.1,364.4 L967.4,381.3 L967.6,378.4 L967.9,390.3 L968.2,371.7 L968.4,395.8 L968.7,386.6 L968.9,365.3 L969.2,378.8 L969.5,369.7 L969.7,391.9 L970.0,371.5 L970.2,374.5 L970.5,374.8 L970.7,390.0 L971.0,369.2 L971.3,395.9 L971.5,399.1 L971.8,379.0 L972.0,398.7 L972.3,377.5 L972.6,374.5 L972.8,375.5 L973.1,384.8 L973.3,399.7 L973.6,377.3 L973.9,402.7 L974.1,382.2 L974.4,387.8 L974.6,391.5 L974.9,386.2 L975.1,402.5 L975.4,386.6 L975.7,376.4 L975.9,377.3 L976.2,401.4 L976.4,376.4 L976.7,397.0 L977.0,378.3 L977.2,396.2 L977.5,397.6 L977.7,388.3 L978.0,382.6 L978.2,407.4 L978.5,398.1 L978.8,387.7 L979.0,403.0 L979.3,398.8 L979.5,407.5 L979.8,384.6 L980.1,391.0 L980.3,390.9 L980.6,412.0 L980.8,406.1 L981.1,389.2 L981.4,396.5 L981.6,406.3 L981.9,384.2 L982.1,405.2 L982.4,407.2 L982.6,388.3 L982.9,398.9 L983.2,394.8 L983.4,399.8 L983.7,399.5 L983.9,392.1 L984.2,408.8 L984.5,403.9 L984.7,388.9 L985.0,408.1 L985.2,403.6 L985.5,397.3 L985.7,399.8 L986.0,399.7 L986.3,412.8 L986.5,414.3 L986.8,399.5 L987.0,396.4 L987.3,404.0 L987.6,397.4 L987.8,417.9 L988.1,416.9 L988.3,420.7 L988.6,415.6 L988.8,395.9 L989.1,421.9 L989.4,418.7 L989.6,400.8 L989.9,407.7 L990.1,402.1 L990.4,402.5 L990.7,411.1 L990.9,408.8 L991.2,424.4 L991.4,400.3 L991.7,412.8 L992.0,419.9 L992.2,418.6 L992.5,418.7 L992.7,419.8 L993.0,424.5 L993.2,420.1 L993.5,423.0 L993.8,420.0 L994.0,404.7 L994.3,414.2 L994.5,417.8 L994.8,407.7 L995.1,414.4 L995.3,427.2 L995.6,415.6 L995.8,421.7 L996.1,426.4 L996.3,407.5 L996.6,417.6 L996.9,409.6 L997.1,416.7 L997.4,424.1 L997.6,415.8 L997.9,423.3 L998.2,411.8 L998.4,427.9 L998.7,424.3 L998.9,421.6 L999.2,433.7 L999.4,435.3 L999.7,414.3 L1000.0,426.5 L1000.2,414.5 L1000.5,437.0 L1000.7,431.6 L1001.0,421.7 L1001.3,420.9 L1001.5,431.2 L1001.8,428.8 L1002.0,427.9 L1002.3,416.0 L1002.6,432.1 L1002.8,432.8 L1003.1,420.7 L1003.3,425.3 L1003.6,439.7 L1003.8,437.2 L1004.1,438.9 L1004.4,424.1 L1004.6,425.7 L1004.9,429.6 L1005.1,427.1 L1005.4,432.5 L1005.7,439.7 L1005.9,440.1 L1006.2,438.6 L1006.4,430.2 L1006.7,442.5 L1006.9,440.4 L1007.2,440.3 L1007.5,439.3 L1007.7,432.9 L1008.0,430.1 L1008.2,440.3 L1008.5,426.0 L1008.8,432.2 L1009.0,436.0 L1009.3,441.8 L1009.5,439.9 L1009.8,447.5 L1010.1,438.4 L1010.3,444.1 L1010.6,444.2 L1010.8,434.9 L1011.1,434.0 L1011.3,434.4 L1011.6,442.6 L1011.9,449.2 L1012.1,447.3 L1012.4,433.7 L1012.6,441.9 L1012.9,444.1 L1013.2,435.1 L1013.4,437.7 L1013.7,434.8 L1013.9,441.9 L1014.2,437.8 L1014.4,451.1 L1014.7,441.4 L1015.0,451.7 L1015.2,446.2 L1015.5,435.7 L1015.7,448.8 L1016.0,453.1 L1016.3,451.0 L1016.5,445.1 L1016.8,443.7 L1017.0,456.5 L1017.3,454.9 L1017.5,450.2 L1017.8,458.5 L1018.1,444.1 L1018.3,441.1 L1018.6,452.9 L1018.8,457.6 L1019.1,454.7 L1019.4,461.0 L1019.6,443.9 L1019.9,457.3 L1020.1,443.7 L1020.4,454.7 L1020.7,456.9 L1020.9,459.7 L1021.2,451.6 L1021.4,446.6 L1021.7,448.4 L1021.9,459.6 L1022.2,449.0 L1022.5,462.5 L1022.7,454.0 L1023.0,459.0 L1023.2,454.4 L1023.5,461.0 L1023.8,454.9 L1024.0,461.1 L1024.3,457.6 L1024.5,463.5 L1024.8,450.8 L1025.0,464.0 L1025.3,460.6 L1025.6,468.2 L1025.8,460.6 L1026.1,466.9 L1026.3,465.7 L1026.6,454.7 L1026.9,463.9 L1027.1,467.6 L1027.4,456.2 L1027.6,462.9 L1027.9,459.1 L1028.2,463.9 L1028.4,457.9 L1028.7,458.2 L1028.9,467.6 L1029.2,465.8 L1029.4,458.0 L1029.7,461.2 L1030.0,460.5 L1030.2,459.9 L1030.5,460.4 L1030.7,461.4 L1031.0,475.8 L1031.3,469.6 L1031.5,465.4 L1031.8,475.6 L1032.0,467.4 L1032.3,462.0 L1032.5,472.9 L1032.8,467.2 L1033.1,464.2 L1033.3,467.8 L1033.6,471.0 L1033.8,479.4 L1034.1,469.7 L1034.4,472.1 L1034.6,475.5 L1034.9,477.9 L1035.1,470.1 L1035.4,476.2 L1035.6,467.4 L1035.9,480.8 L1036.2,471.2 L1036.4,478.7 L1036.7,471.5 L1036.9,471.2 L1037.2,470.5 L1037.5,480.4 L1037.7,480.7 L1038.0,471.3 L1038.2,473.4 L1038.5,478.6 L1038.8,480.2 L1039.0,479.2 L1039.3,483.5 L1039.5,478.6 L1039.8,474.6 L1040.0,484.5 L1040.3,485.1 L1040.6,480.2 L1040.8,475.8 L1041.1,481.8 L1041.3,478.2 L1041.6,478.7 L1041.9,487.1 L1042.1,487.8 L1042.4,484.2 L1042.6,483.6 L1042.9,484.9 L1043.1,479.2 L1043.4,487.7 L1043.7,487.3 L1043.9,485.4 L1044.2,486.6 L1044.4,488.0 L1044.7,487.4 L1045.0,491.9 L1045.2,490.6 L1045.5,493.4 L1045.7,487.3 L1046.0,483.4 L1046.2,488.3 L1046.5,485.9 L1046.8,490.0 L1047.0,486.9 L1047.3,492.1 L1047.5,488.7 L1047.8,489.4 L1048.1,488.9 L1048.3,492.3 L1048.6,490.4 L1048.8,488.9 L1049.1,497.4 L1049.4,491.2 L1049.6,496.0 L1049.9,491.2 L1050.1,499.3 L1050.4,498.7 L1050.6,498.9 L1050.9,495.0 L1051.2,496.6 L1051.4,495.2 L1051.7,497.0 L1051.9,497.0 L1052.2,500.2 L1052.5,502.4 L1052.7,495.1 L1053.0,499.4 L1053.2,502.6 L1053.5,500.1 L1053.7,497.4 L1054.0,502.5 L1054.3,501.3 L1054.5,499.1 L1054.8,497.6 L1055.0,501.6 L1055.3,497.9 L1055.6,500.0 L1055.8,502.9 L1056.1,499.7 L1056.3,501.8 L1056.6,502.2 L1056.9,501.0 L1057.1,508.6 L1057.4,503.7 L1057.6,508.0 L1057.9,506.6 L1058.1,505.4 L1058.4,508.7 L1058.7,506.3 L1058.9,503.8 L1059.2,507.6 L1059.4,508.6 L1059.7,507.5 L1060.0,510.7 L1060.2,509.2 L1060.5,510.5 L1060.7,511.7 L1061.0,507.7 L1061.2,507.8 L1061.5,514.2 L1061.8,512.0 L1062.0,513.2 L1062.3,511.3 L1062.5,511.0 L1062.8,516.2 L1063.1,511.4 L1063.3,516.0 L1063.6,513.0 L1063.8,517.6 L1064.1,517.4 L1064.3,517.7 L1064.6,518.9 L1064.9,517.4 L1065.1,516.8 L1065.4,519.2 L1065.6,514.5 L1065.9,518.7 L1066.2,516.0 L1066.4,515.8 L1066.7,520.4 L1066.9,516.7 L1067.2,521.6 L1067.5,519.0 L1067.7,520.7 L1068.0,521.5 L1068.2,520.5 L1068.5,522.1 L1068.7,522.7 L1069.0,524.1 L1069.3,520.9 L1069.5,523.6 L1069.8,524.1 L1070.0,522.7 L1070.3,522.3 L1070.6,526.7 L1070.8,523.3 L1071.1,524.4 L1071.3,523.3 L1071.6,526.2 L1071.8,526.3 L1072.1,525.4 L1072.4,525.1 L1072.6,525.8 L1072.9,529.8 L1073.1,527.2 L1073.4,528.4 L1073.7,529.7 L1073.9,529.5 L1074.2,529.4 L1074.4,531.2 L1074.7,531.3 L1075.0,532.0 L1075.2,531.4 L1075.5,531.8 L1075.7,533.2 L1076.0,533.3 L1076.2,533.2 L1076.5,532.9 L1076.8,534.1 L1077.0,533.7 L1077.3,533.5 L1077.5,533.7 L1077.8,535.5 L1078.1,536.2 L1078.3,536.8 L1078.6,535.4 L1078.8,536.6 L1079.1,536.8 L1079.3,537.8 L1079.6,537.4 L1079.9,538.6 L1080.1,538.1 L1080.4,538.5 L1080.6,538.0 L1080.9,539.4 L1081.2,539.8 L1081.4,539.7 L1081.7,539.7 L1081.9,540.5 L1082.2,541.4 L1082.4,541.5 L1082.7,541.7 L1083.0,542.8 L1083.2,542.2 L1083.5,542.9 L1083.7,543.7 L1084.0,544.0" fill="none" stroke="#1f77b4" stroke-width="1.4" opacity="0.85"/><text x="1040" y="54" fill="#ff7f0e" font-size="11">roll 18</text><text x="1090" y="558" fill="#ff7f0e" font-size="11">-18</text><path d="M616.0,308.7 L616.3,311.3 L616.5,308.7 L616.8,310.0 L617.0,310.0 L617.3,310.0 L617.6,311.3 L617.8,308.7 L618.1,311.3 L618.3,308.7 L618.6,310.0 L618.8,310.0 L619.1,310.0 L619.4,310.0 L619.6,310.0 L619.9,308.7 L620.1,311.3 L620.4,308.7 L620.7,308.7 L620.9,310.0 L621.2,310.0 L621.4,310.0 L621.7,310.0 L621.9,311.3 L622.2,308.7 L622.5,310.0 L622.7,308.7 L623.0,310.0 L623.2,310.0 L623.5,311.3 L623.8,310.0 L624.0,311.3 L624.3,308.7 L624.5,308.7 L624.8,310.0 L625.0,310.0 L625.3,310.0 L625.6,308.7 L625.8,310.0 L626.1,311.3 L626.3,308.7 L626.6,308.7 L626.9,311.3 L627.1,311.3 L627.4,311.3 L627.6,310.0 L627.9,308.7 L628.2,308.7 L628.4,310.0 L628.7,311.3 L628.9,311.3 L629.2,310.0 L629.4,310.0 L629.7,310.0 L630.0,308.7 L630.2,310.0 L630.5,310.0 L630.7,311.3 L631.0,310.0 L631.3,310.0 L631.5,308.7 L631.8,311.3 L632.0,310.0 L632.3,310.0 L632.5,310.0 L632.8,310.0 L633.1,311.3 L633.3,311.3 L633.6,311.3 L633.8,311.3 L634.1,311.3 L634.4,311.3 L634.6,310.0 L634.9,308.7 L635.1,310.0 L635.4,310.0 L635.7,310.0 L635.9,310.0 L636.2,308.7 L636.4,310.0 L636.7,311.3 L636.9,311.3 L637.2,308.7 L637.5,310.0 L637.7,308.7 L638.0,310.0 L638.2,310.0 L638.5,311.3 L638.8,310.0 L639.0,310.0 L639.3,308.7 L639.5,308.7 L639.8,310.0 L640.0,308.7 L640.3,310.0 L640.6,310.0 L640.8,310.0 L641.1,310.0 L641.3,311.3 L641.6,310.0 L641.9,311.3 L642.1,310.0 L642.4,310.0 L642.6,310.0 L642.9,310.0 L643.1,311.3 L643.4,311.3 L643.7,310.0 L643.9,311.3 L644.2,311.3 L644.4,310.0 L644.7,311.3 L645.0,311.3 L645.2,311.3 L645.5,311.3 L645.7,308.7 L646.0,310.0 L646.3,310.0 L646.5,311.3 L646.8,311.3 L647.0,310.0 L647.3,310.0 L647.5,310.0 L647.8,308.7 L648.1,310.0 L648.3,308.7 L648.6,311.3 L648.8,310.0 L649.1,311.3 L649.4,310.0 L649.6,311.3 L649.9,311.3 L650.1,311.3 L650.4,310.0 L650.6,310.0 L650.9,311.3 L651.2,308.7 L651.4,310.0 L651.7,310.0 L651.9,311.3 L652.2,308.7 L652.5,310.0 L652.7,311.3 L653.0,308.7 L653.2,308.7 L653.5,311.3 L653.8,311.3 L654.0,311.3 L654.3,310.0 L654.5,310.0 L654.8,310.0 L655.0,310.0 L655.3,310.0 L655.6,310.0 L655.8,310.0 L656.1,310.0 L656.3,310.0 L656.6,310.0 L656.9,311.3 L657.1,310.0 L657.4,311.3 L657.6,308.7 L657.9,308.7 L658.1,310.0 L658.4,310.0 L658.7,311.3 L658.9,308.7 L659.2,310.0 L659.4,308.7 L659.7,311.3 L660.0,310.0 L660.2,308.7 L660.5,311.3 L660.7,310.0 L661.0,311.3 L661.2,310.0 L661.5,310.0 L661.8,310.0 L662.0,311.3 L662.3,311.3 L662.5,312.6 L662.8,311.3 L663.1,311.3 L663.3,312.6 L663.6,312.6 L663.8,312.6 L664.1,311.3 L664.4,311.3 L664.6,310.0 L664.9,312.6 L665.1,311.3 L665.4,310.0 L665.6,311.3 L665.9,310.0 L666.2,312.6 L666.4,312.6 L666.7,312.6 L666.9,311.3 L667.2,311.3 L667.5,312.6 L667.7,312.6 L668.0,312.6 L668.2,312.6 L668.5,311.3 L668.7,311.3 L669.0,312.6 L669.3,311.3 L669.5,311.3 L669.8,310.0 L670.0,311.3 L670.3,312.6 L670.6,311.3 L670.8,311.3 L671.1,311.3 L671.3,311.3 L671.6,311.3 L671.8,310.0 L672.1,310.0 L672.4,311.3 L672.6,311.3 L672.9,311.3 L673.1,311.3 L673.4,310.0 L673.7,310.0 L673.9,310.0 L674.2,310.0 L674.4,311.3 L674.7,312.6 L675.0,312.6 L675.2,310.0 L675.5,311.3 L675.7,311.3 L676.0,310.0 L676.2,311.3 L676.5,310.0 L676.8,311.3 L677.0,311.3 L677.3,311.3 L677.5,311.3 L677.8,311.3 L678.1,310.0 L678.3,310.0 L678.6,311.3 L678.8,308.7 L679.1,311.3 L679.3,310.0 L679.6,308.7 L679.9,311.3 L680.1,311.3 L680.4,311.3 L680.6,311.3 L680.9,311.3 L681.2,310.0 L681.4,310.0 L681.7,311.3 L681.9,311.3 L682.2,310.0 L682.5,311.3 L682.7,311.3 L683.0,311.3 L683.2,310.0 L683.5,311.3 L683.7,310.0 L684.0,310.0 L684.3,310.0 L684.5,311.3 L684.8,310.0 L685.0,310.0 L685.3,308.7 L685.6,311.3 L685.8,311.3 L686.1,310.0 L686.3,308.7 L686.6,310.0 L686.8,310.0 L687.1,311.3 L687.4,310.0 L687.6,311.3 L687.9,310.0 L688.1,308.7 L688.4,311.3 L688.7,308.7 L688.9,310.0 L689.2,308.7 L689.4,310.0 L689.7,310.0 L689.9,308.7 L690.2,310.0 L690.5,310.0 L690.7,311.3 L691.0,311.3 L691.2,308.7 L691.5,310.0 L691.8,312.6 L692.0,310.0 L692.3,311.3 L692.5,310.0 L692.8,310.0 L693.1,311.3 L693.3,310.0 L693.6,310.0 L693.8,311.3 L694.1,311.3 L694.3,310.0 L694.6,311.3 L694.9,310.0 L695.1,310.0 L695.4,303.5 L695.6,287.8 L695.9,282.5 L696.2,265.6 L696.4,259.0 L696.7,245.9 L696.9,230.3 L697.2,226.3 L697.4,221.1 L697.7,214.6 L698.0,208.0 L698.2,195.0 L698.5,179.3 L698.7,184.5 L699.0,167.5 L699.3,166.2 L699.5,183.2 L699.8,170.1 L700.0,159.7 L700.3,151.8 L700.6,167.5 L700.8,147.9 L701.1,151.8 L701.3,151.8 L701.6,150.5 L701.8,142.7 L702.1,137.4 L702.4,136.1 L702.6,132.2 L702.9,106.1 L703.1,145.3 L703.4,113.9 L703.7,112.6 L703.9,110.0 L704.2,140.1 L704.4,102.1 L704.7,110.0 L704.9,119.1 L705.2,130.9 L705.5,94.3 L705.7,133.5 L706.0,103.5 L706.2,141.4 L706.5,128.3 L706.8,137.4 L707.0,125.7 L707.3,100.8 L707.5,116.5 L707.8,138.7 L708.0,127.0 L708.3,112.6 L708.6,123.1 L708.8,98.2 L709.1,120.4 L709.3,102.1 L709.6,113.9 L709.9,116.5 L710.1,93.0 L710.4,132.2 L710.6,93.0 L710.9,134.8 L711.2,123.1 L711.4,121.8 L711.7,90.4 L711.9,116.5 L712.2,125.7 L712.4,107.4 L712.7,123.1 L713.0,123.1 L713.2,147.9 L713.5,140.1 L713.7,129.6 L714.0,112.6 L714.3,134.8 L714.5,123.1 L714.8,145.3 L715.0,140.1 L715.3,119.1 L715.5,167.5 L715.8,134.8 L716.1,166.2 L716.3,144.0 L716.6,161.0 L716.8,150.5 L717.1,187.1 L717.4,175.4 L717.6,174.0 L717.9,179.3 L718.1,197.6 L718.4,178.0 L718.6,184.5 L718.9,183.2 L719.2,187.1 L719.4,206.7 L719.7,195.0 L719.9,213.3 L720.2,195.0 L720.5,195.0 L720.7,215.9 L721.0,196.3 L721.2,181.9 L721.5,206.7 L721.8,219.8 L722.0,208.0 L722.3,208.0 L722.5,204.1 L722.8,206.7 L723.0,221.1 L723.3,243.3 L723.6,255.1 L723.8,264.2 L724.1,278.6 L724.3,296.9 L724.6,310.0 L724.9,324.4 L725.1,333.5 L725.4,347.9 L725.6,354.4 L725.9,368.8 L726.1,387.1 L726.4,385.8 L726.7,405.4 L726.9,396.3 L727.2,425.0 L727.4,412.0 L727.7,429.0 L728.0,419.8 L728.2,452.5 L728.5,430.3 L728.7,455.1 L729.0,448.6 L729.3,462.9 L729.5,449.9 L729.8,468.2 L730.0,465.6 L730.3,456.4 L730.5,473.4 L730.8,472.1 L731.1,498.2 L731.3,464.3 L731.6,500.9 L731.8,464.3 L732.1,489.1 L732.4,481.3 L732.6,477.3 L732.9,486.5 L733.1,487.8 L733.4,500.9 L733.6,507.4 L733.9,477.3 L734.2,489.1 L734.4,512.6 L734.7,481.3 L734.9,516.5 L735.2,493.0 L735.5,493.0 L735.7,493.0 L736.0,511.3 L736.2,511.3 L736.5,500.9 L736.7,527.0 L737.0,515.2 L737.3,490.4 L737.5,520.5 L737.8,524.4 L738.0,503.5 L738.3,491.7 L738.6,528.3 L738.8,491.7 L739.1,520.5 L739.3,500.9 L739.6,532.2 L739.9,485.2 L740.1,496.9 L740.4,520.5 L740.6,517.9 L740.9,489.1 L741.1,524.4 L741.4,490.4 L741.7,494.3 L741.9,503.5 L742.2,498.2 L742.4,515.2 L742.7,519.2 L743.0,507.4 L743.2,504.8 L743.5,494.3 L743.7,528.3 L744.0,498.2 L744.2,512.6 L744.5,524.4 L744.8,493.0 L745.0,508.7 L745.3,503.5 L745.5,524.4 L745.8,507.4 L746.1,499.6 L746.3,512.6 L746.6,519.2 L746.8,510.0 L747.1,498.2 L747.4,542.7 L747.6,494.3 L747.9,510.0 L748.1,529.6 L748.4,519.2 L748.6,504.8 L748.9,507.4 L749.2,516.5 L749.4,504.8 L749.7,515.2 L749.9,507.4 L750.2,528.3 L750.5,536.2 L750.7,506.1 L751.0,499.6 L751.2,538.8 L751.5,510.0 L751.7,517.9 L752.0,527.0 L752.3,532.2 L752.5,519.2 L752.8,520.5 L753.0,529.6 L753.3,511.3 L753.6,504.8 L753.8,512.6 L754.1,502.2 L754.3,512.6 L754.6,500.9 L754.8,528.3 L755.1,541.4 L755.4,496.9 L755.6,540.1 L755.9,527.0 L756.1,527.0 L756.4,511.3 L756.7,527.0 L756.9,511.3 L757.2,502.2 L757.4,511.3 L757.7,512.6 L758.0,523.1 L758.2,515.2 L758.5,507.4 L758.7,528.3 L759.0,528.3 L759.2,534.8 L759.5,529.6 L759.8,536.2 L760.0,513.9 L760.3,525.7 L760.5,524.4 L760.8,512.6 L761.1,511.3 L761.3,540.1 L761.6,529.6 L761.8,506.1 L762.1,520.5 L762.3,527.0 L762.6,533.5 L762.9,503.5 L763.1,544.0 L763.4,508.7 L763.6,508.7 L763.9,530.9 L764.2,532.2 L764.4,523.1 L764.7,523.1 L764.9,513.9 L765.2,500.9 L765.4,525.7 L765.7,534.8 L766.0,494.3 L766.2,515.2 L766.5,523.1 L766.7,504.8 L767.0,504.8 L767.3,516.5 L767.5,504.8 L767.8,536.2 L768.0,510.0 L768.3,489.1 L768.6,457.7 L768.8,460.3 L769.1,436.8 L769.3,409.4 L769.6,395.0 L769.8,376.7 L770.1,367.5 L770.4,344.0 L770.6,332.2 L770.9,321.8 L771.1,304.8 L771.4,293.0 L771.7,278.6 L771.9,268.2 L772.2,252.5 L772.4,240.7 L772.7,231.6 L772.9,227.6 L773.2,209.3 L773.5,218.5 L773.7,204.1 L774.0,198.9 L774.2,197.6 L774.5,183.2 L774.8,176.7 L775.0,161.0 L775.3,157.1 L775.5,168.8 L775.8,142.7 L776.1,157.1 L776.3,141.4 L776.6,138.7 L776.8,159.7 L777.1,147.9 L777.3,124.4 L777.6,133.5 L777.9,141.4 L778.1,113.9 L778.4,145.3 L778.6,124.4 L778.9,140.1 L779.2,142.7 L779.4,119.1 L779.7,123.1 L779.9,120.4 L780.2,136.1 L780.4,94.3 L780.7,120.4 L781.0,99.5 L781.2,128.3 L781.5,119.1 L781.7,111.3 L782.0,102.1 L782.3,125.7 L782.5,95.6 L782.8,130.9 L783.0,112.6 L783.3,111.3 L783.5,98.2 L783.8,124.4 L784.1,104.8 L784.3,112.6 L784.6,96.9 L784.8,127.0 L785.1,113.9 L785.4,115.2 L785.6,94.3 L785.9,111.3 L786.1,121.8 L786.4,107.4 L786.7,108.7 L786.9,86.5 L787.2,99.5 L787.4,112.6 L787.7,111.3 L787.9,106.1 L788.2,100.8 L788.5,86.5 L788.7,121.8 L789.0,85.2 L789.2,129.6 L789.5,117.8 L789.8,110.0 L790.0,103.5 L790.3,129.6 L790.5,119.1 L790.8,106.1 L791.0,110.0 L791.3,93.0 L791.6,107.4 L791.8,89.1 L792.1,89.1 L792.3,104.8 L792.6,102.1 L792.9,108.7 L793.1,113.9 L793.4,87.8 L793.6,99.5 L793.9,81.2 L794.2,99.5 L794.4,96.9 L794.7,123.1 L794.9,112.6 L795.2,93.0 L795.4,82.5 L795.7,99.5 L796.0,82.5 L796.2,99.5 L796.5,93.0 L796.7,113.9 L797.0,115.2 L797.3,100.8 L797.5,107.4 L797.8,96.9 L798.0,78.6 L798.3,96.9 L798.5,108.7 L798.8,106.1 L799.1,76.0 L799.3,123.1 L799.6,95.6 L799.8,119.1 L800.1,110.0 L800.4,108.7 L800.6,102.1 L800.9,94.3 L801.1,95.6 L801.4,96.9 L801.6,106.1 L801.9,103.5 L802.2,113.9 L802.4,104.8 L802.7,102.1 L802.9,107.4 L803.2,77.3 L803.5,86.5 L803.7,93.0 L804.0,113.9 L804.2,91.7 L804.5,107.4 L804.8,87.8 L805.0,102.1 L805.3,79.9 L805.5,104.8 L805.8,98.2 L806.0,123.1 L806.3,115.2 L806.6,115.2 L806.8,108.7 L807.1,98.2 L807.3,98.2 L807.6,77.3 L807.9,124.4 L808.1,106.1 L808.4,90.4 L808.6,99.5 L808.9,91.7 L809.1,106.1 L809.4,96.9 L809.7,96.9 L809.9,85.2 L810.2,102.1 L810.4,100.8 L810.7,83.8 L811.0,104.8 L811.2,87.8 L811.5,102.1 L811.7,107.4 L812.0,116.5 L812.2,103.5 L812.5,111.3 L812.8,76.0 L813.0,123.1 L813.3,99.5 L813.5,107.4 L813.8,82.5 L814.1,98.2 L814.3,125.7 L814.6,110.0 L814.8,83.8 L815.1,98.2 L815.4,112.6 L815.6,90.4 L815.9,115.2 L816.1,104.8 L816.4,120.4 L816.6,115.2 L816.9,117.8 L817.2,98.2 L817.4,120.4 L817.7,89.1 L817.9,115.2 L818.2,86.5 L818.5,91.7 L818.7,94.3 L819.0,124.4 L819.2,99.5 L819.5,94.3 L819.7,124.4 L820.0,95.6 L820.3,90.4 L820.5,111.3 L820.8,120.4 L821.0,83.8 L821.3,95.6 L821.6,100.8 L821.8,100.8 L822.1,83.8 L822.3,95.6 L822.6,120.4 L822.9,111.3 L823.1,119.1 L823.4,104.8 L823.6,90.4 L823.9,106.1 L824.1,81.2 L824.4,86.5 L824.7,85.2 L824.9,95.6 L825.2,113.9 L825.4,78.6 L825.7,117.8 L826.0,83.8 L826.2,115.2 L826.5,112.6 L826.7,90.4 L827.0,103.5 L827.2,123.1 L827.5,96.9 L827.8,98.2 L828.0,89.1 L828.3,128.3 L828.5,85.2 L828.8,95.6 L829.1,110.0 L829.3,96.9 L829.6,89.1 L829.8,111.3 L830.1,116.5 L830.3,102.1 L830.6,99.5 L830.9,85.2 L831.1,125.7 L831.4,108.7 L831.6,86.5 L831.9,108.7 L832.2,96.9 L832.4,125.7 L832.7,89.1 L832.9,133.5 L833.2,108.7 L833.5,104.8 L833.7,110.0 L834.0,94.3 L834.2,98.2 L834.5,115.2 L834.7,99.5 L835.0,102.1 L835.3,99.5 L835.5,107.4 L835.8,115.2 L836.0,98.2 L836.3,116.5 L836.6,107.4 L836.8,113.9 L837.1,107.4 L837.3,79.9 L837.6,115.2 L837.8,96.9 L838.1,117.8 L838.4,117.8 L838.6,78.6 L838.9,127.0 L839.1,113.9 L839.4,128.3 L839.7,86.5 L839.9,124.4 L840.2,86.5 L840.4,136.1 L840.7,128.3 L841.0,107.4 L841.2,129.6 L841.5,93.0 L841.7,116.5 L842.0,132.2 L842.2,128.3 L842.5,91.7 L842.8,123.1 L843.0,100.8 L843.3,128.3 L843.5,116.5 L843.8,87.8 L844.1,100.8 L844.3,103.5 L844.6,110.0 L844.8,86.5 L845.1,102.1 L845.3,93.0 L845.6,120.4 L845.9,117.8 L846.1,115.2 L846.4,121.8 L846.6,119.1 L846.9,86.5 L847.2,124.4 L847.4,123.1 L847.7,112.6 L847.9,110.0 L848.2,119.1 L848.4,112.6 L848.7,100.8 L849.0,95.6 L849.2,102.1 L849.5,115.2 L849.7,76.0 L850.0,121.8 L850.3,111.3 L850.5,93.0 L850.8,112.6 L851.0,121.8 L851.3,117.8 L851.6,94.3 L851.8,119.1 L852.1,96.9 L852.3,111.3 L852.6,94.3 L852.8,93.0 L853.1,116.5 L853.4,81.2 L853.6,112.6 L853.9,95.6 L854.1,113.9 L854.4,81.2 L854.7,96.9 L854.9,100.8 L855.2,115.2 L855.4,113.9 L855.7,104.8 L855.9,112.6 L856.2,87.8 L856.5,94.3 L856.7,112.6 L857.0,96.9 L857.2,79.9 L857.5,103.5 L857.8,95.6 L858.0,104.8 L858.3,119.1 L858.5,82.5 L858.8,108.7 L859.0,121.8 L859.3,117.8 L859.6,78.6 L859.8,113.9 L860.1,98.2 L860.3,94.3 L860.6,91.7 L860.9,96.9 L861.1,85.2 L861.4,112.6 L861.6,108.7 L861.9,89.1 L862.2,103.5 L862.4,86.5 L862.7,99.5 L862.9,121.8 L863.2,91.7 L863.4,120.4 L863.7,112.6 L864.0,90.4 L864.2,106.1 L864.5,106.1 L864.7,110.0 L865.0,103.5 L865.3,96.9 L865.5,117.8 L865.8,113.9 L866.0,85.2 L866.3,86.5 L866.5,125.7 L866.8,78.6 L867.1,108.7 L867.3,94.3 L867.6,111.3 L867.8,95.6 L868.1,125.7 L868.4,115.2 L868.6,120.4 L868.9,111.3 L869.1,94.3 L869.4,90.4 L869.7,127.0 L869.9,93.0 L870.2,121.8 L870.4,91.7 L870.7,117.8 L870.9,123.1 L871.2,107.4 L871.5,127.0 L871.7,96.9 L872.0,104.8 L872.2,103.5 L872.5,86.5 L872.8,111.3 L873.0,106.1 L873.3,127.0 L873.5,93.0 L873.8,100.8 L874.0,117.8 L874.3,110.0 L874.6,102.1 L874.8,94.3 L875.1,96.9 L875.3,100.8 L875.6,115.2 L875.9,110.0 L876.1,102.1 L876.4,82.5 L876.6,100.8 L876.9,124.4 L877.1,90.4 L877.4,108.7 L877.7,96.9 L877.9,93.0 L878.2,98.2 L878.4,93.0 L878.7,123.1 L879.0,117.8 L879.2,89.1 L879.5,87.8 L879.7,106.1 L880.0,113.9 L880.3,108.7 L880.5,82.5 L880.8,124.4 L881.0,95.6 L881.3,90.4 L881.5,119.1 L881.8,100.8 L882.1,99.5 L882.3,127.0 L882.6,119.1 L882.8,87.8 L883.1,128.3 L883.4,127.0 L883.6,100.8 L883.9,130.9 L884.1,111.3 L884.4,125.7 L884.6,89.1 L884.9,103.5 L885.2,93.0 L885.4,120.4 L885.7,106.1 L885.9,106.1 L886.2,111.3 L886.5,104.8 L886.7,85.2 L887.0,106.1 L887.2,112.6 L887.5,100.8 L887.8,94.3 L888.0,103.5 L888.3,108.7 L888.5,90.4 L888.8,123.1 L889.0,89.1 L889.3,110.0 L889.6,125.7 L889.8,100.8 L890.1,83.8 L890.3,127.0 L890.6,102.1 L890.9,123.1 L891.1,83.8 L891.4,125.7 L891.6,106.1 L891.9,133.5 L892.1,120.4 L892.4,96.9 L892.7,106.1 L892.9,129.6 L893.2,98.2 L893.4,127.0 L893.7,111.3 L894.0,116.5 L894.2,124.4 L894.5,103.5 L894.7,87.8 L895.0,108.7 L895.2,113.9 L895.5,112.6 L895.8,120.4 L896.0,108.7 L896.3,87.8 L896.5,123.1 L896.8,87.8 L897.1,124.4 L897.3,96.9 L897.6,129.6 L897.8,110.0 L898.1,123.1 L898.4,99.5 L898.6,91.7 L898.9,96.9 L899.1,90.4 L899.4,104.8 L899.6,102.1 L899.9,98.2 L900.2,129.6 L900.4,85.2 L900.7,108.7 L900.9,99.5 L901.2,95.6 L901.5,94.3 L901.7,98.2 L902.0,115.2 L902.2,104.8 L902.5,113.9 L902.7,90.4 L903.0,90.4 L903.3,121.8 L903.5,83.8 L903.8,115.2 L904.0,99.5 L904.3,120.4 L904.6,94.3 L904.8,93.0 L905.1,103.5 L905.3,125.7 L905.6,112.6 L905.8,85.2 L906.1,124.4 L906.4,90.4 L906.6,123.1 L906.9,113.9 L907.1,115.2 L907.4,127.0 L907.7,112.6 L907.9,125.7 L908.2,112.6 L908.4,113.9 L908.7,124.4 L909.0,83.8 L909.2,94.3 L909.5,96.9 L909.7,89.1 L910.0,123.1 L910.2,90.4 L910.5,127.0 L910.8,100.8 L911.0,91.7 L911.3,132.2 L911.5,116.5 L911.8,119.1 L912.1,103.5 L912.3,116.5 L912.6,85.2 L912.8,102.1 L913.1,111.3 L913.3,117.8 L913.6,111.3 L913.9,93.0 L914.1,100.8 L914.4,83.8 L914.6,89.1 L914.9,112.6 L915.2,89.1 L915.4,107.4 L915.7,91.7 L915.9,89.1 L916.2,124.4 L916.5,120.4 L916.7,99.5 L917.0,98.2 L917.2,110.0 L917.5,113.9 L917.7,108.7 L918.0,91.7 L918.3,120.4 L918.5,110.0 L918.8,103.5 L919.0,90.4 L919.3,124.4 L919.6,95.6 L919.8,123.1 L920.1,95.6 L920.3,124.4 L920.6,115.2 L920.8,111.3 L921.1,99.5 L921.4,107.4 L921.6,107.4 L921.9,87.8 L922.1,111.3 L922.4,85.2 L922.7,95.6 L922.9,87.8 L923.2,124.4 L923.4,120.4 L923.7,117.8 L923.9,106.1 L924.2,107.4 L924.5,113.9 L924.7,91.7 L925.0,115.2 L925.2,123.1 L925.5,113.9 L925.8,103.5 L926.0,83.8 L926.3,100.8 L926.5,82.5 L926.8,94.3 L927.1,117.8 L927.3,110.0 L927.6,119.1 L927.8,77.3 L928.1,96.9 L928.3,121.8 L928.6,95.6 L928.9,85.2 L929.1,103.5 L929.4,102.1 L929.6,86.5 L929.9,116.5 L930.2,95.6 L930.4,96.9 L930.7,93.0 L930.9,112.6 L931.2,117.8 L931.4,93.0 L931.7,99.5 L932.0,98.2 L932.2,94.3 L932.5,111.3 L932.7,116.5 L933.0,78.6 L933.3,93.0 L933.5,95.6 L933.8,95.6 L934.0,116.5 L934.3,113.9 L934.6,91.7 L934.8,94.3 L935.1,120.4 L935.3,100.8 L935.6,86.5 L935.8,95.6 L936.1,100.8 L936.4,93.0 L936.6,87.8 L936.9,115.2 L937.1,90.4 L937.4,123.1 L937.7,94.3 L937.9,104.8 L938.2,120.4 L938.4,103.5 L938.7,82.5 L938.9,95.6 L939.2,111.3 L939.5,100.8 L939.7,116.5 L940.0,117.8 L940.2,102.1 L940.5,103.5 L940.8,116.5 L941.0,117.8 L941.3,77.3 L941.5,85.2 L941.8,106.1 L942.0,90.4 L942.3,116.5 L942.6,120.4 L942.8,90.4 L943.1,117.8 L943.3,108.7 L943.6,102.1 L943.9,86.5 L944.1,96.9 L944.4,85.2 L944.6,119.1 L944.9,95.6 L945.2,89.1 L945.4,112.6 L945.7,93.0 L945.9,106.1 L946.2,111.3 L946.4,117.8 L946.7,91.7 L947.0,129.6 L947.2,87.8 L947.5,132.2 L947.7,115.2 L948.0,110.0 L948.3,127.0 L948.5,108.7 L948.8,125.7 L949.0,95.6 L949.3,94.3 L949.5,123.1 L949.8,116.5 L950.1,112.6 L950.3,100.8 L950.6,107.4 L950.8,91.7 L951.1,127.0 L951.4,91.7 L951.6,119.1 L951.9,91.7 L952.1,117.8 L952.4,129.6 L952.6,125.7 L952.9,123.1 L953.2,113.9 L953.4,107.4 L953.7,113.9 L953.9,121.8 L954.2,86.5 L954.5,104.8 L954.7,108.7 L955.0,110.0 L955.2,83.8 L955.5,102.1 L955.8,111.3 L956.0,90.4 L956.3,104.8 L956.5,110.0 L956.8,100.8 L957.0,91.7 L957.3,128.3 L957.6,86.5 L957.8,123.1 L958.1,121.8 L958.3,94.3 L958.6,98.2 L958.9,113.9 L959.1,113.9 L959.4,99.5 L959.6,123.1 L959.9,89.1 L960.1,127.0 L960.4,96.9 L960.7,106.1 L960.9,124.4 L961.2,96.9 L961.4,110.0 L961.7,93.0 L962.0,95.6 L962.2,96.9 L962.5,117.8 L962.7,116.5 L963.0,94.3 L963.3,98.2 L963.5,104.8 L963.8,87.8 L964.0,108.7 L964.3,98.2 L964.5,129.6 L964.8,123.1 L965.1,106.1 L965.3,119.1 L965.6,102.1 L965.8,117.8 L966.1,82.5 L966.4,102.1 L966.6,102.1 L966.9,86.5 L967.1,120.4 L967.4,91.7 L967.6,96.9 L967.9,98.2 L968.2,96.9 L968.4,106.1 L968.7,115.2 L968.9,119.1 L969.2,81.2 L969.5,119.1 L969.7,89.1 L970.0,113.9 L970.2,116.5 L970.5,87.8 L970.7,125.7 L971.0,120.4 L971.3,111.3 L971.5,90.4 L971.8,136.1 L972.0,125.7 L972.3,91.7 L972.6,132.2 L972.8,112.6 L973.1,125.7 L973.3,130.9 L973.6,127.0 L973.9,110.0 L974.1,127.0 L974.4,111.3 L974.6,102.1 L974.9,91.7 L975.1,98.2 L975.4,107.4 L975.7,123.1 L975.9,123.1 L976.2,106.1 L976.4,115.2 L976.7,89.1 L977.0,91.7 L977.2,129.6 L977.5,99.5 L977.7,96.9 L978.0,125.7 L978.2,86.5 L978.5,134.8 L978.8,117.8 L979.0,103.5 L979.3,120.4 L979.5,91.7 L979.8,133.5 L980.1,124.4 L980.3,111.3 L980.6,121.8 L980.8,103.5 L981.1,117.8 L981.4,107.4 L981.6,112.6 L981.9,123.1 L982.1,113.9 L982.4,106.1 L982.6,89.1 L982.9,125.7 L983.2,90.4 L983.4,99.5 L983.7,130.9 L983.9,100.8 L984.2,123.1 L984.5,121.8 L984.7,116.5 L985.0,111.3 L985.2,130.9 L985.5,93.0 L985.7,117.8 L986.0,123.1 L986.3,90.4 L986.5,129.6 L986.8,127.0 L987.0,103.5 L987.3,124.4 L987.6,123.1 L987.8,96.9 L988.1,133.5 L988.3,99.5 L988.6,96.9 L988.8,130.9 L989.1,93.0 L989.4,132.2 L989.6,124.4 L989.9,104.8 L990.1,104.8 L990.4,125.7 L990.7,107.4 L990.9,133.5 L991.2,102.1 L991.4,103.5 L991.7,115.2 L992.0,107.4 L992.2,94.3 L992.5,136.1 L992.7,111.3 L993.0,124.4 L993.2,102.1 L993.5,115.2 L993.8,133.5 L994.0,125.7 L994.3,120.4 L994.5,96.9 L994.8,111.3 L995.1,123.1 L995.3,93.0 L995.6,127.0 L995.8,112.6 L996.1,121.8 L996.3,86.5 L996.6,133.5 L996.9,121.8 L997.1,94.3 L997.4,133.5 L997.6,113.9 L997.9,113.9 L998.2,102.1 L998.4,137.4 L998.7,128.3 L998.9,96.9 L999.2,136.1 L999.4,98.2 L999.7,111.3 L1000.0,125.7 L1000.2,132.2 L1000.5,129.6 L1000.7,108.7 L1001.0,100.8 L1001.3,133.5 L1001.5,94.3 L1001.8,106.1 L1002.0,129.6 L1002.3,115.2 L1002.6,119.1 L1002.8,94.3 L1003.1,127.0 L1003.3,111.3 L1003.6,108.7 L1003.8,93.0 L1004.1,112.6 L1004.4,113.9 L1004.6,127.0 L1004.9,125.7 L1005.1,123.1 L1005.4,111.3 L1005.7,86.5 L1005.9,93.0 L1006.2,93.0 L1006.4,96.9 L1006.7,98.2 L1006.9,94.3 L1007.2,98.2 L1007.5,87.8 L1007.7,94.3 L1008.0,95.6 L1008.2,115.2 L1008.5,89.1 L1008.8,91.7 L1009.0,87.8 L1009.3,100.8 L1009.5,87.8 L1009.8,94.3 L1010.1,113.9 L1010.3,107.4 L1010.6,119.1 L1010.8,82.5 L1011.1,91.7 L1011.3,99.5 L1011.6,89.1 L1011.9,100.8 L1012.1,121.8 L1012.4,108.7 L1012.6,94.3 L1012.9,87.8 L1013.2,95.6 L1013.4,98.2 L1013.7,120.4 L1013.9,86.5 L1014.2,104.8 L1014.4,83.8 L1014.7,96.9 L1015.0,110.0 L1015.2,124.4 L1015.5,87.8 L1015.7,86.5 L1016.0,107.4 L1016.3,116.5 L1016.5,123.1 L1016.8,108.7 L1017.0,82.5 L1017.3,99.5 L1017.5,103.5 L1017.8,123.1 L1018.1,113.9 L1018.3,99.5 L1018.6,113.9 L1018.8,83.8 L1019.1,102.1 L1019.4,106.1 L1019.6,91.7 L1019.9,121.8 L1020.1,107.4 L1020.4,102.1 L1020.7,98.2 L1020.9,119.1 L1021.2,85.2 L1021.4,116.5 L1021.7,103.5 L1021.9,90.4 L1022.2,110.0 L1022.5,108.7 L1022.7,94.3 L1023.0,89.1 L1023.2,94.3 L1023.5,95.6 L1023.8,99.5 L1024.0,89.1 L1024.3,95.6 L1024.5,99.5 L1024.8,123.1 L1025.0,112.6 L1025.3,106.1 L1025.6,111.3 L1025.8,93.0 L1026.1,102.1 L1026.3,108.7 L1026.6,91.7 L1026.9,123.1 L1027.1,103.5 L1027.4,91.7 L1027.6,129.6 L1027.9,125.7 L1028.2,102.1 L1028.4,110.0 L1028.7,113.9 L1028.9,117.8 L1029.2,108.7 L1029.4,86.5 L1029.7,117.8 L1030.0,89.1 L1030.2,100.8 L1030.5,104.8 L1030.7,120.4 L1031.0,87.8 L1031.3,128.3 L1031.5,117.8 L1031.8,123.1 L1032.0,120.4 L1032.3,98.2 L1032.5,111.3 L1032.8,104.8 L1033.1,120.4 L1033.3,100.8 L1033.6,123.1 L1033.8,99.5 L1034.1,85.2 L1034.4,116.5 L1034.6,111.3 L1034.9,102.1 L1035.1,124.4 L1035.4,96.9 L1035.6,89.1 L1035.9,108.7 L1036.2,125.7 L1036.4,119.1 L1036.7,117.8 L1036.9,110.0 L1037.2,107.4 L1037.5,124.4 L1037.7,77.3 L1038.0,95.6 L1038.2,110.0 L1038.5,85.2 L1038.8,91.7 L1039.0,90.4 L1039.3,87.8 L1039.5,96.9 L1039.8,121.8 L1040.0,81.2 L1040.3,116.5 L1040.6,113.9 L1040.8,119.1 L1041.1,120.4 L1041.3,119.1 L1041.6,98.2 L1041.9,117.8 L1042.1,87.8 L1042.4,104.8 L1042.6,98.2 L1042.9,91.7 L1043.1,119.1 L1043.4,115.2 L1043.7,106.1 L1043.9,86.5 L1044.2,115.2 L1044.4,98.2 L1044.7,123.1 L1045.0,119.1 L1045.2,108.7 L1045.5,117.8 L1045.7,117.8 L1046.0,93.0 L1046.2,127.0 L1046.5,87.8 L1046.8,129.6 L1047.0,127.0 L1047.3,125.7 L1047.5,111.3 L1047.8,95.6 L1048.1,116.5 L1048.3,116.5 L1048.6,120.4 L1048.8,87.8 L1049.1,103.5 L1049.4,116.5 L1049.6,107.4 L1049.9,91.7 L1050.1,106.1 L1050.4,107.4 L1050.6,119.1 L1050.9,110.0 L1051.2,87.8 L1051.4,94.3 L1051.7,113.9 L1051.9,100.8 L1052.2,98.2 L1052.5,95.6 L1052.7,85.2 L1053.0,95.6 L1053.2,89.1 L1053.5,128.3 L1053.7,111.3 L1054.0,95.6 L1054.3,123.1 L1054.5,93.0 L1054.8,106.1 L1055.0,106.1 L1055.3,110.0 L1055.6,120.4 L1055.8,89.1 L1056.1,124.4 L1056.3,102.1 L1056.6,100.8 L1056.9,125.7 L1057.1,110.0 L1057.4,103.5 L1057.6,127.0 L1057.9,110.0 L1058.1,120.4 L1058.4,83.8 L1058.7,132.2 L1058.9,129.6 L1059.2,125.7 L1059.4,120.4 L1059.7,110.0 L1060.0,95.6 L1060.2,125.7 L1060.5,113.9 L1060.7,115.2 L1061.0,127.0 L1061.2,90.4 L1061.5,120.4 L1061.8,124.4 L1062.0,94.3 L1062.3,117.8 L1062.5,112.6 L1062.8,123.1 L1063.1,125.7 L1063.3,108.7 L1063.6,103.5 L1063.8,94.3 L1064.1,102.1 L1064.3,119.1 L1064.6,123.1 L1064.9,112.6 L1065.1,123.1 L1065.4,111.3 L1065.6,112.6 L1065.9,106.1 L1066.2,104.8 L1066.4,77.3 L1066.7,116.5 L1066.9,102.1 L1067.2,124.4 L1067.5,95.6 L1067.7,104.8 L1068.0,117.8 L1068.2,115.2 L1068.5,116.5 L1068.7,121.8 L1069.0,104.8 L1069.3,111.3 L1069.5,86.5 L1069.8,110.0 L1070.0,106.1 L1070.3,99.5 L1070.6,119.1 L1070.8,89.1 L1071.1,107.4 L1071.3,123.1 L1071.6,79.9 L1071.8,108.7 L1072.1,102.1 L1072.4,89.1 L1072.6,128.3 L1072.9,87.8 L1073.1,102.1 L1073.4,111.3 L1073.7,96.9 L1073.9,95.6 L1074.2,98.2 L1074.4,121.8 L1074.7,83.8 L1075.0,98.2 L1075.2,90.4 L1075.5,120.4 L1075.7,108.7 L1076.0,121.8 L1076.2,124.4 L1076.5,132.2 L1076.8,157.1 L1077.0,164.9 L1077.3,163.6 L1077.5,184.5 L1077.8,178.0 L1078.1,172.7 L1078.3,175.4 L1078.6,175.4 L1078.8,189.7 L1079.1,176.7 L1079.3,176.7 L1079.6,195.0 L1079.9,193.7 L1080.1,191.0 L1080.4,166.2 L1080.6,193.7 L1080.9,210.6 L1081.2,232.9 L1081.4,245.9 L1081.7,227.6 L1081.9,252.5 L1082.2,265.6 L1082.4,278.6 L1082.7,265.6 L1083.0,247.3 L1083.2,265.6 L1083.5,279.9 L1083.7,296.9 L1084.0,286.5" fill="none" stroke="#ff7f0e" stroke-width="1.1" opacity="0.85"/><text x="616" y="572" font-size="11" fill="#888">time 0..36 s — altitude (blue) &amp; roll (orange)</text></svg>