<svg xmlns="http://www.w3.org/2000/svg" width="1140" height="600" font-family="sans-serif" font-size="13"><rect width="1140" height="600" fill="white"/><text x="20" y="26" font-size="15" fill="#333">Coludo flight</text><rect x="20" y="40" width="540" height="540" fill="#fbfbfb" stroke="#ddd"/><rect x="50" y="244" width="271" height="58" fill="#cde" stroke="#369" opacity="0.7"/><text x="50" y="239" fill="#369" font-size="12">landing zone</text><circle cx="221" cy="335" r="5" fill="black"/><text x="229" y="339" font-size="12">pad</text><path d="M221.1,335.1 L221.1,335.1 L221.1,335.1 L221.1,335.1 L221.1,335.1 L221.1,335.1 L221.1,335.1 L221.1,335.1 L221.1,335.1 L221.1,335.1 L221.1,335.1 L221.1,335.1 L221.1,335.1 L221.1,335.1 L221.1,335.1 L221.1,335.1 L221.1,335.1 L221.1,335.1 L221.1,335.1 L221.1,335.1 L221.1,335.1 L221.1,335.1 L221.1,335.1 L221.1,335.1 L221.1,335.1 L221.1,335.1 L221.1,335.1 L221.1,335.1 L221.1,335.1 L221.1,335.1 L221.1,335.1 L221.1,335.1 L221.1,335.1 L221.1,335.1 L221.1,335.1 L221.1,335.1 L221.1,335.1 L221.1,335.1 L221.1,335.1 L221.1,335.1 L221.1,335.1 L221.1,335.1 L221.1,335.1 L221.1,335.1 L221.1,335.1 L221.1,335.1 L221.1,335.1 L221.1,335.1 L221.1,335.1 L221.1,335.1 L221.1,335.1 L221.1,335.1 L221.1,335.1 L221.1,335.1 L221.1,335.1 L221.1,335.1 L221.1,335.1 L221.1,335.1 L221.1,335.1 L221.3,334.8 L222.6,332.7 L223.8,330.6 L225.1,328.5 L226.4,326.4 L227.7,324.5 L229.1,322.4 L230.5,320.5 L231.9,318.5 L233.4,316.4 L234.8,314.7 L236.4,312.7 L237.9,310.8 L239.5,308.9 L241.1,307.1 L242.5,305.2 L244.3,303.4 L245.9,301.6 L247.5,299.8 L249.1,297.9 L250.7,296.1 L252.3,294.4 L253.9,292.4 L255.3,290.5 L256.8,288.6 L258.2,286.6 L259.5,284.5 L260.8,282.6 L262.2,280.5 L263.5,278.4 L264.6,276.3 L265.8,274.2 L267.0,272.0 L268.0,269.9 L269.1,267.6 L270.0,265.4 L271.0,263.1 L271.9,260.9 L272.8,258.6 L273.6,256.3 L274.4,254.1 L275.1,251.7 L275.7,249.4 L276.4,247.0 L277.0,244.7 L277.6,242.3 L278.0,239.9 L278.6,237.5 L279.2,235.2 L279.7,232.8 L280.5,230.6 L281.2,228.1 L281.9,225.9 L282.7,223.6 L283.5,221.2 L284.4,219.0 L285.4,216.7 L286.3,214.6 L287.3,212.4 L288.5,210.1 L289.6,208.0 L290.8,205.9 L292.0,203.8 L293.3,201.7 L294.6,199.6 L295.9,197.7 L297.2,195.6 L298.7,193.7 L300.1,191.7 L301.7,189.8 L303.2,188.0 L304.8,186.1 L306.4,184.3 L308.1,182.6 L309.8,180.8 L311.4,179.0 L313.3,177.4 L315.1,175.8 L317.0,174.2 L318.7,172.6 L320.8,171.1 L322.6,169.7 L324.5,168.2 L326.6,166.8 L328.6,165.5 L330.6,164.2 L332.7,162.9 L334.9,161.6 L336.9,160.5 L339.1,159.2 L341.3,158.1 L343.4,157.1 L345.6,156.0 L347.8,155.0 L350.1,154.0 L352.3,153.2 L354.6,152.4 L357.0,151.6 L359.3,150.8 L361.6,150.2 L363.9,149.5 L366.3,148.9 L368.6,148.4 L371.1,147.9 L373.4,147.4 L375.7,146.9 L378.2,146.6 L380.7,146.3 L383.0,146.1 L385.5,145.8 L387.9,145.8 L390.3,145.7 L392.7,145.7 L395.2,145.7 L397.5,145.7 L400.0,145.8 L402.5,146.0 L404.9,146.1 L407.3,146.3 L409.7,146.6 L412.1,146.9 L414.5,147.3 L416.9,147.7 L419.3,148.1 L421.7,148.6 L424.1,149.2 L426.5,149.7 L428.8,150.3 L431.1,151.0 L433.4,151.8 L435.8,152.4 L438.1,153.2 L440.4,154.0 L442.6,154.8 L444.9,155.8 L447.1,156.8 L449.3,157.7 L451.6,158.7 L453.8,159.8 L456.0,161.0 L458.0,162.1 L460.2,163.2 L462.2,164.5 L464.4,165.8 L466.5,167.1 L468.5,168.4 L470.5,169.8 L472.4,171.1 L474.5,172.6 L476.3,174.0 L478.2,175.6 L480.1,177.1 L482.0,178.7 L483.9,180.3 L485.6,181.9 L487.4,183.5 L489.1,185.3 L490.9,187.1 L492.5,188.7 L494.2,190.6 L495.8,192.4 L497.4,194.2 L498.9,196.1 L500.5,198.0 L501.9,200.0 L503.4,201.9 L504.7,203.8 L506.2,205.9 L507.5,207.8 L508.8,209.9 L510.1,212.0 L511.2,214.1 L512.4,216.2 L513.6,218.5 L514.7,220.6 L515.7,222.8 L516.8,224.9 L517.8,227.2 L518.8,229.4 L519.7,231.7 L520.5,233.9 L521.4,236.2 L522.1,238.5 L523.0,240.9 L523.7,243.1 L524.3,245.6 L525.1,247.8 L525.6,250.2 L526.2,252.5 L526.7,254.9 L527.2,257.3 L527.7,259.7 L528.0,262.1 L528.4,264.6 L528.7,267.0 L529.0,269.4 L529.3,271.8 L529.4,274.2 L529.7,276.6 L529.9,279.1 L529.9,281.5 L530.0,283.9 L530.0,286.3 L530.0,288.7 L530.0,291.1 L529.9,293.6 L529.7,296.0 L529.6,298.4 L529.4,300.8 L529.1,303.2 L528.8,305.6 L528.5,308.1 L528.3,310.5 L528.0,312.9 L527.5,315.3 L527.1,317.3 L526.8,319.3 L526.4,321.3 L525.9,323.2 L525.5,325.3 L525.1,327.2 L524.5,329.2 L524.0,331.1 L523.5,333.0 L522.9,335.1 L522.3,337.1 L521.7,339.0 L521.0,340.8 L520.4,342.7 L519.7,344.6 L518.9,346.6 L518.2,348.5 L517.5,350.3 L516.6,352.2 L515.9,354.0 L515.0,355.9 L514.2,357.7 L513.3,359.6 L512.4,361.4 L511.5,363.2 L510.7,365.1 L509.8,366.9 L508.8,368.6 L507.8,370.4 L506.9,372.2 L505.9,374.0 L504.8,375.7 L503.8,377.5 L502.8,379.1 L501.6,380.9 L500.6,382.7 L499.5,384.3 L498.4,386.1 L497.3,387.7 L496.1,389.3 L494.8,390.9 L493.6,392.7 L492.5,394.3 L491.2,395.9 L490.0,397.3 L488.7,398.9 L487.4,400.6 L486.1,402.2 L484.8,403.6 L483.5,405.2 L482.2,406.7 L480.9,408.3 L479.4,409.7 L478.1,411.2 L476.6,412.6 L475.3,414.2 L473.9,415.7 L472.4,417.0 L471.0,418.4 L469.5,419.9 L468.1,421.3 L466.6,422.6 L465.1,424.1 L463.5,425.4 L462.1,426.8 L460.5,428.1 L459.0,429.4 L457.4,430.7 L456.0,432.0 L454.4,433.3 L452.8,434.5 L451.2,435.8 L449.6,437.1 L448.0,438.4 L446.4,439.5 L444.8,440.8 L443.0,442.0 L441.4,443.1 L439.8,444.2 L438.1,445.5 L436.5,446.6 L434.8,447.8 L433.0,448.7 L431.4,449.9 L429.7,451.0 L427.9,452.1 L426.2,453.1 L424.4,454.2 L422.7,455.2 L420.9,456.3 L419.2,457.3 L417.5,458.2 L415.7,459.2 L414.0,460.2 L412.1,461.1 L410.3,462.1 L408.6,463.1 L406.7,464.0 L404.9,464.8 L403.1,465.8 L401.3,466.6 L399.4,467.6 L397.7,468.4 L395.8,469.4 L394.0,470.2 L392.2,471.0 L390.3,471.9 L388.5,472.7 L386.6,473.5 L384.7,474.3" fill="none" stroke="#1f77b4" stroke-width="1.7" opacity="0.85"/><circle cx="385" cy="474" r="4.5" fill="#1f77b4"/><text x="28" y="572" font-size="11" fill="#888">ground track — m from pad (N up)</text><rect x="580" y="40" width="540" height="540" fill="#fbfbfb" stroke="#ddd"/><text x="586" y="54" fill="#1f77b4" font-size="11">alt 406</text><text x="586" y="558" fill="#1f77b4" font-size="11">1</text><path d="M616.0,542.6 L616.2,541.2 L616.4,541.1 L616.7,544.0 L616.9,541.7 L617.1,541.3 L617.3,543.9 L617.5,542.8 L617.7,544.0 L618.0,542.3 L618.2,540.8 L618.4,542.7 L618.6,541.0 L618.8,542.5 L619.0,540.3 L619.3,541.3 L619.5,541.0 L619.7,541.5 L619.9,541.6 L620.1,538.4 L620.4,543.0 L620.6,539.1 L620.8,538.6 L621.0,540.0 L621.2,541.7 L621.4,536.4 L621.7,538.3 L621.9,536.1 L622.1,538.9 L622.3,540.9 L622.5,536.9 L622.7,534.3 L623.0,538.8 L623.2,538.6 L623.4,538.5 L623.6,539.2 L623.8,531.2 L624.1,536.5 L624.3,532.3 L624.5,530.8 L624.7,529.7 L624.9,536.3 L625.1,531.9 L625.4,531.5 L625.6,538.6 L625.8,526.3 L626.0,531.3 L626.2,531.5 L626.4,526.3 L626.7,528.9 L626.9,520.6 L627.1,521.1 L627.3,523.0 L627.5,517.9 L627.7,529.2 L628.0,526.5 L628.2,521.0 L628.4,527.7 L628.6,513.8 L628.8,522.6 L629.1,516.2 L629.3,533.4 L629.5,524.7 L629.7,529.3 L629.9,524.8 L630.1,522.3 L630.4,513.8 L630.6,521.4 L630.8,516.1 L631.0,516.9 L631.2,522.5 L631.4,502.0 L631.7,525.2 L631.9,517.9 L632.1,507.8 L632.3,522.7 L632.5,498.1 L632.8,494.5 L633.0,501.5 L633.2,514.7 L633.4,507.9 L633.6,506.5 L633.8,501.6 L634.1,515.5 L634.3,498.6 L634.5,511.5 L634.7,483.4 L634.9,505.7 L635.1,503.0 L635.4,507.0 L635.6,477.2 L635.8,508.3 L636.0,505.4 L636.2,472.7 L636.5,511.9 L636.7,500.9 L636.9,468.7 L637.1,515.4 L637.3,495.5 L637.5,494.2 L637.8,491.8 L638.0,472.7 L638.2,489.8 L638.4,497.4 L638.6,515.4 L638.8,476.3 L639.1,500.0 L639.3,504.0 L639.5,460.6 L639.7,495.3 L639.9,484.9 L640.2,448.3 L640.4,440.6 L640.6,487.9 L640.8,448.8 L641.0,446.4 L641.2,494.9 L641.5,478.4 L641.7,467.2 L641.9,483.9 L642.1,481.5 L642.3,477.5 L642.5,431.0 L642.8,475.0 L643.0,485.7 L643.2,461.6 L643.4,429.5 L643.6,471.9 L643.8,438.4 L644.1,435.9 L644.3,423.6 L644.5,415.3 L644.7,447.8 L644.9,488.3 L645.2,481.0 L645.4,457.4 L645.6,443.7 L645.8,454.0 L646.0,436.0 L646.2,428.4 L646.5,426.5 L646.7,458.9 L646.9,486.9 L647.1,430.1 L647.3,400.5 L647.5,387.4 L647.8,448.1 L648.0,390.9 L648.2,460.0 L648.4,460.5 L648.6,467.9 L648.9,382.8 L649.1,461.0 L649.3,423.5 L649.5,393.4 L649.7,419.2 L649.9,385.0 L650.2,367.7 L650.4,477.9 L650.6,433.5 L650.8,388.0 L651.0,394.1 L651.2,385.3 L651.5,463.2 L651.7,369.7 L651.9,425.7 L652.1,368.9 L652.3,457.5 L652.6,341.5 L652.8,371.0 L653.0,378.8 L653.2,366.6 L653.4,316.7 L653.6,436.9 L653.9,465.7 L654.1,443.3 L654.3,408.3 L654.5,425.3 L654.7,346.8 L654.9,448.9 L655.2,430.2 L655.4,398.8 L655.6,349.7 L655.8,314.1 L656.0,322.2 L656.3,317.3 L656.5,371.1 L656.7,396.2 L656.9,385.9 L657.1,373.3 L657.3,338.1 L657.6,350.8 L657.8,299.6 L658.0,335.4 L658.2,409.7 L658.4,346.2 L658.6,326.5 L658.9,303.2 L659.1,301.5 L659.3,301.2 L659.5,309.4 L659.7,441.3 L659.9,247.0 L660.2,328.6 L660.4,270.1 L660.6,422.1 L660.8,422.9 L661.0,264.6 L661.3,304.6 L661.5,376.4 L661.7,294.7 L661.9,337.6 L662.1,389.8 L662.3,413.2 L662.6,428.4 L662.8,264.0 L663.0,261.3 L663.2,269.9 L663.4,236.5 L663.6,400.5 L663.9,344.8 L664.1,312.7 L664.3,234.1 L664.5,410.2 L664.7,322.9 L665.0,239.8 L665.2,328.5 L665.4,376.1 L665.6,227.1 L665.8,290.8 L666.0,295.6 L666.3,249.2 L666.5,247.2 L666.7,287.5 L666.9,368.9 L667.1,337.7 L667.3,260.8 L667.6,381.2 L667.8,315.7 L668.0,337.0 L668.2,301.9 L668.4,405.0 L668.7,240.7 L668.9,250.1 L669.1,407.8 L669.3,172.2 L669.5,179.4 L669.7,367.4 L670.0,235.2 L670.2,155.4 L670.4,220.1 L670.6,200.9 L670.8,312.3 L671.0,329.9 L671.3,185.0 L671.5,218.0 L671.7,159.6 L671.9,207.4 L672.1,377.7 L672.4,141.7 L672.6,196.5 L672.8,262.9 L673.0,164.3 L673.2,254.4 L673.4,217.1 L673.7,146.5 L673.9,204.4 L674.1,221.7 L674.3,369.3 L674.5,347.5 L674.7,200.8 L675.0,335.4 L675.2,203.0 L675.4,212.7 L675.6,362.7 L675.8,188.8 L676.1,180.4 L676.3,246.9 L676.5,196.6 L676.7,199.5 L676.9,219.4 L677.1,121.6 L677.4,114.5 L677.6,333.4 L677.8,179.3 L678.0,145.1 L678.2,306.1 L678.4,284.0 L678.7,350.4 L678.9,367.2 L679.1,145.5 L679.3,134.2 L679.5,300.1 L679.7,284.5 L680.0,230.5 L680.2,356.0 L680.4,169.5 L680.6,180.7 L680.8,263.3 L681.1,371.7 L681.3,340.8 L681.5,179.9 L681.7,186.7 L681.9,318.2 L682.1,225.8 L682.4,210.7 L682.6,232.7 L682.8,299.4 L683.0,380.5 L683.2,156.0 L683.4,178.7 L683.7,136.7 L683.9,137.4 L684.1,344.0 L684.3,236.2 L684.5,226.3 L684.8,337.7 L685.0,179.2 L685.2,357.7 L685.4,176.1 L685.6,342.6 L685.8,231.3 L686.1,187.4 L686.3,240.3 L686.5,200.1 L686.7,204.3 L686.9,317.0 L687.1,79.2 L687.4,226.0 L687.6,330.9 L687.8,123.6 L688.0,227.5 L688.2,306.2 L688.5,382.4 L688.7,269.2 L688.9,301.7 L689.1,311.0 L689.3,332.3 L689.5,305.7 L689.8,106.2 L690.0,232.0 L690.2,330.1 L690.4,151.3 L690.6,82.3 L690.8,263.8 L691.1,268.1 L691.3,267.9 L691.5,334.5 L691.7,159.4 L691.9,125.2 L692.2,114.0 L692.4,378.3 L692.6,165.8 L692.8,319.9 L693.0,168.2 L693.2,274.5 L693.5,338.1 L693.7,210.6 L693.9,99.9 L694.1,358.4 L694.3,351.5 L694.5,262.7 L694.8,362.6 L695.0,96.9 L695.2,215.8 L695.4,177.1 L695.6,309.9 L695.8,177.8 L696.1,129.9 L696.3,360.2 L696.5,349.4 L696.7,261.0 L696.9,141.8 L697.2,343.9 L697.4,299.8 L697.6,226.4 L697.8,365.4 L698.0,112.5 L698.2,111.7 L698.5,196.4 L698.7,123.1 L698.9,344.1 L699.1,172.9 L699.3,232.3 L699.5,172.9 L699.8,162.1 L700.0,88.9 L700.2,321.9 L700.4,137.4 L700.6,276.4 L700.9,233.3 L701.1,200.0 L701.3,366.9 L701.5,114.8 L701.7,376.7 L701.9,136.5 L702.2,78.7 L702.4,311.2 L702.6,156.8 L702.8,281.8 L703.0,233.1 L703.2,118.1 L703.5,361.7 L703.7,136.2 L703.9,243.2 L704.1,120.1 L704.3,355.3 L704.6,98.7 L704.8,380.8 L705.0,110.9 L705.2,79.9 L705.4,268.1 L705.6,259.1 L705.9,374.8 L706.1,219.7 L706.3,110.2 L706.5,122.2 L706.7,125.7 L706.9,243.9 L707.2,114.3 L707.4,340.4 L707.6,76.0 L707.8,181.9 L708.0,179.3 L708.3,225.2 L708.5,135.7 L708.7,314.6 L708.9,317.2 L709.1,207.5 L709.3,384.7 L709.6,124.0 L709.8,166.0 L710.0,78.0 L710.2,223.5 L710.4,309.2 L710.6,79.0 L710.9,295.9 L711.1,320.6 L711.3,92.5 L711.5,230.3 L711.7,185.9 L711.9,119.8 L712.2,380.0 L712.4,294.8 L712.6,371.5 L712.8,144.0 L713.0,324.3 L713.3,383.8 L713.5,329.9 L713.7,325.7 L713.9,385.4 L714.1,224.2 L714.3,306.4 L714.6,268.9 L714.8,85.3 L715.0,288.7 L715.2,140.9 L715.4,296.6 L715.6,191.0 L715.9,248.8 L716.1,306.0 L716.3,282.8 L716.5,141.6 L716.7,187.6 L717.0,348.2 L717.2,230.7 L717.4,351.7 L717.6,332.0 L717.8,110.2 L718.0,168.5 L718.3,334.8 L718.5,184.3 L718.7,358.3 L718.9,260.4 L719.1,291.6 L719.3,280.6 L719.6,235.6 L719.8,298.1 L720.0,109.1 L720.2,206.2 L720.4,183.2 L720.7,187.5 L720.9,144.4 L721.1,94.6 L721.3,368.3 L721.5,142.5 L721.7,119.7 L722.0,192.0 L722.2,222.8 L722.4,103.5 L722.6,152.5 L722.8,342.7 L723.0,86.7 L723.3,102.2 L723.5,206.3 L723.7,143.8 L723.9,255.0 L724.1,302.0 L724.4,96.5 L724.6,243.2 L724.8,219.7 L725.0,334.1 L725.2,272.1 L725.4,326.7 L725.7,282.1 L725.9,130.6 L726.1,82.4 L726.3,154.2 L726.5,172.0 L726.7,302.5 L727.0,110.3 L727.2,256.1 L727.4,287.5 L727.6,276.6 L727.8,307.7 L728.1,273.6 L728.3,141.6 L728.5,167.5 L728.7,351.1 L728.9,193.3 L729.1,364.8 L729.4,303.9 L729.6,209.5 L729.8,160.2 L730.0,172.0 L730.2,124.1 L730.4,186.2 L730.7,284.5 L730.9,258.9 L731.1,282.5 L731.3,157.6 L731.5,293.1 L731.7,312.9 L732.0,293.8 L732.2,341.4 L732.4,201.8 L732.6,353.1 L732.8,185.1 L733.1,339.0 L733.3,85.0 L733.5,352.4 L733.7,294.3 L733.9,161.2 L734.1,144.8 L734.4,253.1 L734.6,120.4 L734.8,239.6 L735.0,121.9 L735.2,288.8 L735.4,346.5 L735.7,301.8 L735.9,329.8 L736.1,151.5 L736.3,211.1 L736.5,149.9 L736.8,185.3 L737.0,190.4 L737.2,127.7 L737.4,114.5 L737.6,364.0 L737.8,304.9 L738.1,264.5 L738.3,219.1 L738.5,321.4 L738.7,192.0 L738.9,276.0 L739.1,91.2 L739.4,159.7 L739.6,349.2 L739.8,361.9 L740.0,186.5 L740.2,319.7 L740.5,138.9 L740.7,190.7 L740.9,221.1 L741.1,112.8 L741.3,378.3 L741.5,152.3 L741.8,325.0 L742.0,272.9 L742.2,170.1 L742.4,165.0 L742.6,277.6 L742.8,236.3 L743.1,195.6 L743.3,221.1 L743.5,323.2 L743.7,123.6 L743.9,108.0 L744.2,390.7 L744.4,126.2 L744.6,134.2 L744.8,259.1 L745.0,216.7 L745.2,379.3 L745.5,187.9 L745.7,391.6 L745.9,154.5 L746.1,277.1 L746.3,352.1 L746.5,383.5 L746.8,104.4 L747.0,185.6 L747.2,99.4 L747.4,88.5 L747.6,322.7 L747.8,376.7 L748.1,166.6 L748.3,105.6 L748.5,295.4 L748.7,180.6 L748.9,365.7 L749.2,368.9 L749.4,173.9 L749.6,260.1 L749.8,272.8 L750.0,232.2 L750.2,233.9 L750.5,98.2 L750.7,222.4 L750.9,333.2 L751.1,168.5 L751.3,389.9 L751.5,198.8 L751.8,203.2 L752.0,278.8 L752.2,142.3 L752.4,273.1 L752.6,263.6 L752.9,150.6 L753.1,207.0 L753.3,323.9 L753.5,281.1 L753.7,358.4 L753.9,306.1 L754.2,379.2 L754.4,325.2 L754.6,230.3 L754.8,381.6 L755.0,305.6 L755.2,164.4 L755.5,332.3 L755.7,206.7 L755.9,191.2 L756.1,290.3 L756.3,356.4 L756.6,111.8 L756.8,242.3 L757.0,244.2 L757.2,258.1 L757.4,362.0 L757.6,167.9 L757.9,282.4 L758.1,178.1 L758.3,119.7 L758.5,214.4 L758.7,276.4 L758.9,238.9 L759.2,392.8 L759.4,368.5 L759.6,194.2 L759.8,326.3 L760.0,325.4 L760.3,158.1 L760.5,164.7 L760.7,248.5 L760.9,381.3 L761.1,288.0 L761.3,103.3 L761.6,392.3 L761.8,389.9 L762.0,299.9 L762.2,159.0 L762.4,285.3 L762.6,134.7 L762.9,191.5 L763.1,101.9 L763.3,230.7 L763.5,237.3 L763.7,330.6 L763.9,184.0 L764.2,126.6 L764.4,163.5 L764.6,307.2 L764.8,360.0 L765.0,257.9 L765.3,136.5 L765.5,186.9 L765.7,329.3 L765.9,206.9 L766.1,392.3 L766.3,213.8 L766.6,127.7 L766.8,386.2 L767.0,381.6 L767.2,245.9 L767.4,247.3 L767.6,258.1 L767.9,119.5 L768.1,209.0 L768.3,325.2 L768.5,325.0 L768.7,320.3 L769.0,192.5 L769.2,325.5 L769.4,310.0 L769.6,301.2 L769.8,382.0 L770.0,218.2 L770.3,321.1 L770.5,149.6 L770.7,308.1 L770.9,288.8 L771.1,177.5 L771.3,181.9 L771.6,245.0 L771.8,156.0 L772.0,387.5 L772.2,241.4 L772.4,226.3 L772.7,304.1 L772.9,271.0 L773.1,250.9 L773.3,142.2 L773.5,127.9 L773.7,137.6 L774.0,291.1 L774.2,168.1 L774.4,133.1 L774.6,224.3 L774.8,302.1 L775.0,295.3 L775.3,353.1 L775.5,383.5 L775.7,374.9 L775.9,168.2 L776.1,344.7 L776.4,303.2 L776.6,258.3 L776.8,295.1 L777.0,360.3 L777.2,185.7 L777.4,156.0 L777.7,359.2 L777.9,238.8 L778.1,299.7 L778.3,382.2 L778.5,157.7 L778.7,229.8 L779.0,359.0 L779.2,232.3 L779.4,217.6 L779.6,248.5 L779.8,164.2 L780.1,291.8 L780.3,217.1 L780.5,368.7 L780.7,374.0 L780.9,210.9 L781.1,398.5 L781.4,374.9 L781.6,129.3 L781.8,353.8 L782.0,241.2 L782.2,403.4 L782.4,346.0 L782.7,317.7 L782.9,225.3 L783.1,397.8 L783.3,222.7 L783.5,235.4 L783.7,403.5 L784.0,317.4 L784.2,293.3 L784.4,279.3 L784.6,377.5 L784.8,232.8 L785.1,290.9 L785.3,261.7 L785.5,289.5 L785.7,135.6 L785.9,159.5 L786.1,158.4 L786.4,386.3 L786.6,270.5 L786.8,184.6 L787.0,278.7 L787.2,341.2 L787.4,392.9 L787.7,168.0 L787.9,387.0 L788.1,211.1 L788.3,151.5 L788.5,387.0 L788.8,393.5 L789.0,250.1 L789.2,258.1 L789.4,337.2 L789.6,296.0 L789.8,259.8 L790.1,329.2 L790.3,387.1 L790.5,385.3 L790.7,404.6 L790.9,292.3 L791.1,149.3 L791.4,180.2 L791.6,171.0 L791.8,219.7 L792.0,201.0 L792.2,314.7 L792.5,267.9 L792.7,325.4 L792.9,400.4 L793.1,266.3 L793.3,181.5 L793.5,335.7 L793.8,234.4 L794.0,387.3 L794.2,156.2 L794.4,180.7 L794.6,190.2 L794.8,367.0 L795.1,224.8 L795.3,220.5 L795.5,286.2 L795.7,282.8 L795.9,194.5 L796.2,165.0 L796.4,310.2 L796.6,273.8 L796.8,360.6 L797.0,286.7 L797.2,361.0 L797.5,260.7 L797.7,368.2 L797.9,160.5 L798.1,283.9 L798.3,157.3 L798.5,181.1 L798.8,365.6 L799.0,275.8 L799.2,227.3 L799.4,234.5 L799.6,365.9 L799.8,356.5 L800.1,152.0 L800.3,238.4 L800.5,334.2 L800.7,310.5 L800.9,173.9 L801.2,251.6 L801.4,308.3 L801.6,193.2 L801.8,202.3 L802.0,218.0 L802.2,384.5 L802.5,169.1 L802.7,193.7 L802.9,206.3 L803.1,202.1 L803.3,244.4 L803.5,331.0 L803.8,243.7 L804.0,400.6 L804.2,281.2 L804.4,340.6 L804.6,192.9 L804.9,182.4 L805.1,285.7 L805.3,178.0 L805.5,213.5 L805.7,299.8 L805.9,195.6 L806.2,250.4 L806.4,197.7 L806.6,389.0 L806.8,318.5 L807.0,355.5 L807.2,315.4 L807.5,214.4 L807.7,203.4 L807.9,340.3 L808.1,155.2 L808.3,148.4 L808.6,249.1 L808.8,261.0 L809.0,391.9 L809.2,380.6 L809.4,347.4 L809.6,203.2 L809.9,293.3 L810.1,158.5 L810.3,161.5 L810.5,349.9 L810.7,154.3 L810.9,150.0 L811.2,313.1 L811.4,368.2 L811.6,163.0 L811.8,347.6 L812.0,203.8 L812.3,375.9 L812.5,298.8 L812.7,213.3 L812.9,408.1 L813.1,319.8 L813.3,244.8 L813.6,243.4 L813.8,389.7 L814.0,277.9 L814.2,258.3 L814.4,271.5 L814.6,258.8 L814.9,220.2 L815.1,204.4 L815.3,286.2 L815.5,273.5 L815.7,394.5 L815.9,271.5 L816.2,303.7 L816.4,280.5 L816.6,342.9 L816.8,321.7 L817.0,228.0 L817.3,293.3 L817.5,204.3 L817.7,219.4 L817.9,305.7 L818.1,305.8 L818.3,274.2 L818.6,234.2 L818.8,413.5 L819.0,329.7 L819.2,187.4 L819.4,221.5 L819.6,295.0 L819.9,172.5 L820.1,355.9 L820.3,326.9 L820.5,177.3 L820.7,278.2 L821.0,206.2 L821.2,171.8 L821.4,370.4 L821.6,415.7 L821.8,379.4 L822.0,267.3 L822.3,412.1 L822.5,326.7 L822.7,247.7 L822.9,210.6 L823.1,322.8 L823.3,376.4 L823.6,204.7 L823.8,228.4 L824.0,215.0 L824.2,316.1 L824.4,167.0 L824.7,410.9 L824.9,250.9 L825.1,229.9 L825.3,343.6 L825.5,270.9 L825.7,199.1 L826.0,413.3 L826.2,233.7 L826.4,205.0 L826.6,360.1 L826.8,309.6 L827.0,310.5 L827.3,293.9 L827.5,315.3 L827.7,409.5 L827.9,348.1 L828.1,192.1 L828.4,360.7 L828.6,346.5 L828.8,262.5 L829.0,308.5 L829.2,257.3 L829.4,225.8 L829.7,347.3 L829.9,287.0 L830.1,386.4 L830.3,421.7 L830.5,406.0 L830.7,366.1 L831.0,334.2 L831.2,249.5 L831.4,246.5 L831.6,414.4 L831.8,282.5 L832.1,397.1 L832.3,232.1 L832.5,243.3 L832.7,211.3 L832.9,368.2 L833.1,267.4 L833.4,194.5 L833.6,409.8 L833.8,418.1 L834.0,186.0 L834.2,298.5 L834.4,267.1 L834.7,260.0 L834.9,344.3 L835.1,215.0 L835.3,279.3 L835.5,239.9 L835.7,373.1 L836.0,345.6 L836.2,386.7 L836.4,250.2 L836.6,308.9 L836.8,337.5 L837.1,189.7 L837.3,418.4 L837.5,203.9 L837.7,389.7 L837.9,261.5 L838.1,376.2 L838.4,186.6 L838.6,267.7 L838.8,292.6 L839.0,265.6 L839.2,217.3 L839.4,194.0 L839.7,317.5 L839.9,261.9 L840.1,344.5 L840.3,330.4 L840.5,214.2 L840.8,265.3 L841.0,359.2 L841.2,363.4 L841.4,228.7 L841.6,341.9 L841.8,229.6 L842.1,247.9 L842.3,346.2 L842.5,388.7 L842.7,393.7 L842.9,246.0 L843.1,323.3 L843.4,191.6 L843.6,411.8 L843.8,210.9 L844.0,302.0 L844.2,409.5 L844.5,308.3 L844.7,208.6 L844.9,230.3 L845.1,376.3 L845.3,193.9 L845.5,328.3 L845.8,211.4 L846.0,301.0 L846.2,276.5 L846.4,317.5 L846.6,354.4 L846.8,219.1 L847.1,361.1 L847.3,265.8 L847.5,196.0 L847.7,275.1 L847.9,306.3 L848.2,237.5 L848.4,374.8 L848.6,398.3 L848.8,285.6 L849.0,232.8 L849.2,391.8 L849.5,427.8 L849.7,414.5 L849.9,232.2 L850.1,417.3 L850.3,283.9 L850.5,335.6 L850.8,253.0 L851.0,215.2 L851.2,297.8 L851.4,401.2 L851.6,301.1 L851.8,236.1 L852.1,412.2 L852.3,371.3 L852.5,330.2 L852.7,417.4 L852.9,386.3 L853.2,264.4 L853.4,381.8 L853.6,246.3 L853.8,403.3 L854.0,338.1 L854.2,306.3 L854.5,259.0 L854.7,353.6 L854.9,220.1 L855.1,327.8 L855.3,296.3 L855.5,234.7 L855.8,391.7 L856.0,318.2 L856.2,393.4 L856.4,240.7 L856.6,225.3 L856.9,405.6 L857.1,297.1 L857.3,211.0 L857.5,324.2 L857.7,400.9 L857.9,318.5 L858.2,304.8 L858.4,276.6 L858.6,386.9 L858.8,238.5 L859.0,344.9 L859.2,372.5 L859.5,269.7 L859.7,229.4 L859.9,385.2 L860.1,367.3 L860.3,402.4 L860.6,345.4 L860.8,405.4 L861.0,246.3 L861.2,421.4 L861.4,284.1 L861.6,348.9 L861.9,407.3 L862.1,369.6 L862.3,312.8 L862.5,239.8 L862.7,367.5 L862.9,242.0 L863.2,226.1 L863.4,402.6 L863.6,269.7 L863.8,276.4 L864.0,260.3 L864.3,417.0 L864.5,418.3 L864.7,419.2 L864.9,229.2 L865.1,224.3 L865.3,244.2 L865.6,250.9 L865.8,245.6 L866.0,435.1 L866.2,390.0 L866.4,395.2 L866.6,271.2 L866.9,233.8 L867.1,376.6 L867.3,235.6 L867.5,351.1 L867.7,355.0 L867.9,250.5 L868.2,285.5 L868.4,373.7 L868.6,297.5 L868.8,248.2 L869.0,364.7 L869.3,373.2 L869.5,324.0 L869.7,285.6 L869.9,399.2 L870.1,337.5 L870.3,269.3 L870.6,273.0 L870.8,306.6 L871.0,286.7 L871.2,345.3 L871.4,266.5 L871.6,329.9 L871.9,271.6 L872.1,264.9 L872.3,309.2 L872.5,417.8 L872.7,407.2 L873.0,439.7 L873.2,406.6 L873.4,396.5 L873.6,267.2 L873.8,310.6 L874.0,338.2 L874.3,244.8 L874.5,274.4 L874.7,246.6 L874.9,281.7 L875.1,296.9 L875.3,439.6 L875.6,290.6 L875.8,303.6 L876.0,433.1 L876.2,339.6 L876.4,391.3 L876.7,347.3 L876.9,430.5 L877.1,292.2 L877.3,392.5 L877.5,389.1 L877.7,324.2 L878.0,403.5 L878.2,349.5 L878.4,285.2 L878.6,306.8 L878.8,377.5 L879.0,383.1 L879.3,370.6 L879.5,380.3 L879.7,259.8 L879.9,338.0 L880.1,393.3 L880.4,318.2 L880.6,434.1 L880.8,411.6 L881.0,309.1 L881.2,268.6 L881.4,277.4 L881.7,438.2 L881.9,341.1 L882.1,263.6 L882.3,289.0 L882.5,280.6 L882.7,251.6 L883.0,330.2 L883.2,384.2 L883.4,403.3 L883.6,292.0 L883.8,368.8 L884.1,416.4 L884.3,370.8 L884.5,309.4 L884.7,437.5 L884.9,401.9 L885.1,410.3 L885.4,251.8 L885.6,338.7 L885.8,277.0 L886.0,411.3 L886.2,360.7 L886.4,370.1 L886.7,352.8 L886.9,279.3 L887.1,442.4 L887.3,428.9 L887.5,298.5 L887.7,299.2 L888.0,256.5 L888.2,335.1 L888.4,284.2 L888.6,357.2 L888.8,384.5 L889.1,409.2 L889.3,445.5 L889.5,428.4 L889.7,285.0 L889.9,406.5 L890.1,439.6 L890.4,394.3 L890.6,326.7 L890.8,324.8 L891.0,261.3 L891.2,304.0 L891.4,445.1 L891.7,412.1 L891.9,283.6 L892.1,411.5 L892.3,326.5 L892.5,418.4 L892.8,350.3 L893.0,358.3 L893.2,369.8 L893.4,374.2 L893.6,385.5 L893.8,448.2 L894.1,449.5 L894.3,340.5 L894.5,404.7 L894.7,348.4 L894.9,431.3 L895.1,394.1 L895.4,367.5 L895.6,342.4 L895.8,320.0 L896.0,416.5 L896.2,451.1 L896.5,278.9 L896.7,410.7 L896.9,336.7 L897.1,313.8 L897.3,402.2 L897.5,438.4 L897.8,271.7 L898.0,356.9 L898.2,333.7 L898.4,439.6 L898.6,287.2 L898.8,406.9 L899.1,338.0 L899.3,441.7 L899.5,338.2 L899.7,376.5 L899.9,301.5 L900.2,450.2 L900.4,358.1 L900.6,349.7 L900.8,273.1 L901.0,373.8 L901.2,321.4 L901.5,412.1 L901.7,450.4 L901.9,443.2 L902.1,374.5 L902.3,317.0 L902.5,284.0 L902.8,383.3 L903.0,378.4 L903.2,400.3 L903.4,323.1 L903.6,298.1 L903.8,352.9 L904.1,347.1 L904.3,447.1 L904.5,368.7 L904.7,434.8 L904.9,327.9 L905.2,366.7 L905.4,293.5 L905.6,320.7 L905.8,277.1 L906.0,333.6 L906.2,338.3 L906.5,436.9 L906.7,450.5 L906.9,324.5 L907.1,412.9 L907.3,437.9 L907.5,280.9 L907.8,380.0 L908.0,389.4 L908.2,333.8 L908.4,309.3 L908.6,312.7 L908.9,426.1 L909.1,297.9 L909.3,349.6 L909.5,329.8 L909.7,299.0 L909.9,283.0 L910.2,321.4 L910.4,415.4 L910.6,308.9 L910.8,372.9 L911.0,322.7 L911.2,380.3 L911.5,449.2 L911.7,305.8 L911.9,324.2 L912.1,304.0 L912.3,326.7 L912.6,297.7 L912.8,338.6 L913.0,326.7 L913.2,379.5 L913.4,357.7 L913.6,296.3 L913.9,312.5 L914.1,399.2 L914.3,404.6 L914.5,362.6 L914.7,444.5 L914.9,441.0 L915.2,378.8 L915.4,306.6 L915.6,442.1 L915.8,398.3 L916.0,329.1 L916.3,381.1 L916.5,349.0 L916.7,310.2 L916.9,379.4 L917.1,429.4 L917.3,437.5 L917.6,441.6 L917.8,458.0 L918.0,354.1 L918.2,330.9 L918.4,437.2 L918.6,459.5 L918.9,366.9 L919.1,444.1 L919.3,445.4 L919.5,428.5 L919.7,372.5 L919.9,346.2 L920.2,347.4 L920.4,320.5 L920.6,349.0 L920.8,371.5 L921.0,322.2 L921.3,349.8 L921.5,304.2 L921.7,442.2 L921.9,366.1 L922.1,315.5 L922.3,340.6 L922.6,328.1 L922.8,341.4 L923.0,332.6 L923.2,354.8 L923.4,414.1 L923.6,331.9 L923.9,414.7 L924.1,385.5 L924.3,450.9 L924.5,464.2 L924.7,422.0 L925.0,328.7 L925.2,451.0 L925.4,373.7 L925.6,449.8 L925.8,360.3 L926.0,317.8 L926.3,440.0 L926.5,450.2 L926.7,395.1 L926.9,322.6 L927.1,377.3 L927.3,345.1 L927.6,335.3 L927.8,424.5 L928.0,398.1 L928.2,329.9 L928.4,370.0 L928.7,442.4 L928.9,382.1 L929.1,421.1 L929.3,420.3 L929.5,337.9 L929.7,399.4 L930.0,379.0 L930.2,414.9 L930.4,401.4 L930.6,321.1 L930.8,467.3 L931.0,465.4 L931.3,387.9 L931.5,384.3 L931.7,446.2 L931.9,403.1 L932.1,392.3 L932.4,408.2 L932.6,392.4 L932.8,353.6 L933.0,398.4 L933.2,463.1 L933.4,408.5 L933.7,395.9 L933.9,362.7 L934.1,349.5 L934.3,363.5 L934.5,440.3 L934.7,396.9 L935.0,373.0 L935.2,355.8 L935.4,417.3 L935.6,353.5 L935.8,453.6 L936.1,440.7 L936.3,386.2 L936.5,346.6 L936.7,377.9 L936.9,343.2 L937.1,440.0 L937.4,430.6 L937.6,456.3 L937.8,376.5 L938.0,445.2 L938.2,461.3 L938.4,407.7 L938.7,364.7 L938.9,452.0 L939.1,438.1 L939.3,325.9 L939.5,349.7 L939.7,383.0 L940.0,384.8 L940.2,405.2 L940.4,373.8 L940.6,438.7 L940.8,331.0 L941.1,427.3 L941.3,360.1 L941.5,346.6 L941.7,359.0 L941.9,446.5 L942.1,402.1 L942.4,355.1 L942.6,453.4 L942.8,451.4 L943.0,356.9 L943.2,366.5 L943.4,337.2 L943.7,383.2 L943.9,457.3 L944.1,445.7 L944.3,384.3 L944.5,359.5 L944.8,420.4 L945.0,338.4 L945.2,400.2 L945.4,457.7 L945.6,384.0 L945.8,458.1 L946.1,365.3 L946.3,348.8 L946.5,339.8 L946.7,468.9 L946.9,355.3 L947.1,468.6 L947.4,451.9 L947.6,387.5 L947.8,437.2 L948.0,382.5 L948.2,404.3 L948.5,404.5 L948.7,467.3 L948.9,476.6 L949.1,418.3 L949.3,391.1 L949.5,429.1 L949.8,462.6 L950.0,401.7 L950.2,363.9 L950.4,473.8 L950.6,385.9 L950.8,371.3 L951.1,359.6 L951.3,448.6 L951.5,357.7 L951.7,430.3 L951.9,349.8 L952.2,383.0 L952.4,352.8 L952.6,350.5 L952.8,363.1 L953.0,447.5 L953.2,476.9 L953.5,354.0 L953.7,410.8 L953.9,442.0 L954.1,368.3 L954.3,372.6 L954.5,426.8 L954.8,479.2 L955.0,469.1 L955.2,354.6 L955.4,423.9 L955.6,430.8 L955.8,469.9 L956.1,423.6 L956.3,468.7 L956.5,375.3 L956.7,386.2 L956.9,474.4 L957.2,368.4 L957.4,446.4 L957.6,384.2 L957.8,417.1 L958.0,383.8 L958.2,460.0 L958.5,404.2 L958.7,411.0 L958.9,391.2 L959.1,463.9 L959.3,402.3 L959.5,371.9 L959.8,413.6 L960.0,466.1 L960.2,433.9 L960.4,424.7 L960.6,401.9 L960.9,392.2 L961.1,381.2 L961.3,414.7 L961.5,466.3 L961.7,359.6 L961.9,453.7 L962.2,431.8 L962.4,397.2 L962.6,440.6 L962.8,480.8 L963.0,393.4 L963.2,408.1 L963.5,476.6 L963.7,442.6 L963.9,370.1 L964.1,456.1 L964.3,478.2 L964.6,423.7 L964.8,387.6 L965.0,454.5 L965.2,456.3 L965.4,454.6 L965.6,371.8 L965.9,395.9 L966.1,434.9 L966.3,369.5 L966.5,407.7 L966.7,453.0 L966.9,400.3 L967.2,385.0 L967.4,450.4 L967.6,462.7 L967.8,473.3 L968.0,478.2 L968.3,410.9 L968.5,448.9 L968.7,403.7 L968.9,459.1 L969.1,448.5 L969.3,443.3 L969.6,443.0 L969.8,398.6 L970.0,436.7 L970.2,421.0 L970.4,373.7 L970.6,462.3 L970.9,470.2 L971.1,408.5 L971.3,461.5 L971.5,481.7 L971.7,456.6 L971.9,452.4 L972.2,410.5 L972.4,449.2 L972.6,421.5 L972.8,405.7 L973.0,467.4 L973.3,395.5 L973.5,426.9 L973.7,477.7 L973.9,463.1 L974.1,451.1 L974.3,388.4 L974.6,458.9 L974.8,460.8 L975.0,428.7 L975.2,394.2 L975.4,478.3 L975.6,479.9 L975.9,392.8 L976.1,435.2 L976.3,386.7 L976.5,384.3 L976.7,467.1 L977.0,479.1 L977.2,419.1 L977.4,429.4 L977.6,397.8 L977.8,398.2 L978.0,438.9 L978.3,437.4 L978.5,439.8 L978.7,410.6 L978.9,487.8 L979.1,478.0 L979.3,406.5 L979.6,434.8 L979.8,470.4 L980.0,475.4 L980.2,401.9 L980.4,453.9 L980.7,442.9 L980.9,473.2 L981.1,481.7 L981.3,473.3 L981.5,395.1 L981.7,447.8 L982.0,419.4 L982.2,483.8 L982.4,479.4 L982.6,417.0 L982.8,467.8 L983.0,468.5 L983.3,482.4 L983.5,437.3 L983.7,474.4 L983.9,411.2 L984.1,469.9 L984.4,425.3 L984.6,412.0 L984.8,484.4 L985.0,471.8 L985.2,426.4 L985.4,407.5 L985.7,447.7 L985.9,481.0 L986.1,398.4 L986.3,494.3 L986.5,398.5 L986.7,442.0 L987.0,408.1 L987.2,461.6 L987.4,442.4 L987.6,472.3 L987.8,477.2 L988.1,439.3 L988.3,400.6 L988.5,480.4 L988.7,455.7 L988.9,452.3 L989.1,483.5 L989.4,456.2 L989.6,470.6 L989.8,450.2 L990.0,440.2 L990.2,481.3 L990.4,402.6 L990.7,473.3 L990.9,433.7 L991.1,490.4 L991.3,427.1 L991.5,496.1 L991.7,447.3 L992.0,410.4 L992.2,443.0 L992.4,492.2 L992.6,484.6 L992.8,412.6 L993.1,405.9 L993.3,475.2 L993.5,480.2 L993.7,421.2 L993.9,493.1 L994.1,473.5 L994.4,429.2 L994.6,449.2 L994.8,484.9 L995.0,426.2 L995.2,474.4 L995.4,473.5 L995.7,497.5 L995.9,497.5 L996.1,496.1 L996.3,477.3 L996.5,454.0 L996.8,456.0 L997.0,451.4 L997.2,441.2 L997.4,466.8 L997.6,491.6 L997.8,469.4 L998.1,432.1 L998.3,497.2 L998.5,426.1 L998.7,442.9 L998.9,457.7 L999.1,424.7 L999.4,417.4 L999.6,437.5 L999.8,461.7 L1000.0,472.9 L1000.2,479.9 L1000.5,425.3 L1000.7,426.8 L1000.9,462.3 L1001.1,485.7 L1001.3,419.9 L1001.5,469.5 L1001.8,477.3 L1002.0,469.0 L1002.2,439.0 L1002.4,431.0 L1002.6,496.6 L1002.8,430.4 L1003.1,466.4 L1003.3,449.5 L1003.5,422.8 L1003.7,440.4 L1003.9,448.0 L1004.2,470.4 L1004.4,466.5 L1004.6,437.2 L1004.8,499.5 L1005.0,483.5 L1005.2,468.3 L1005.5,436.6 L1005.7,487.5 L1005.9,442.0 L1006.1,481.1 L1006.3,444.4 L1006.5,453.5 L1006.8,498.7 L1007.0,456.4 L1007.2,504.5 L1007.4,435.5 L1007.6,433.3 L1007.8,488.0 L1008.1,432.1 L1008.3,472.9 L1008.5,446.9 L1008.7,487.3 L1008.9,497.7 L1009.2,480.9 L1009.4,479.4 L1009.6,482.8 L1009.8,445.5 L1010.0,497.4 L1010.2,478.2 L1010.5,456.3 L1010.7,495.1 L1010.9,480.4 L1011.1,456.0 L1011.3,434.0 L1011.5,438.6 L1011.8,462.4 L1012.0,482.5 L1012.2,488.2 L1012.4,458.7 L1012.6,453.7 L1012.9,465.4 L1013.1,449.1 L1013.3,479.4 L1013.5,497.0 L1013.7,493.0 L1013.9,484.0 L1014.2,482.9 L1014.4,506.8 L1014.6,504.2 L1014.8,467.2 L1015.0,483.2 L1015.2,459.4 L1015.5,501.9 L1015.7,466.7 L1015.9,491.9 L1016.1,449.3 L1016.3,505.4 L1016.6,502.2 L1016.8,454.3 L1017.0,481.3 L1017.2,455.6 L1017.4,475.7 L1017.6,457.2 L1017.9,470.6 L1018.1,493.6 L1018.3,454.0 L1018.5,499.0 L1018.7,447.4 L1018.9,500.0 L1019.2,469.1 L1019.4,501.3 L1019.6,459.2 L1019.8,460.9 L1020.0,450.4 L1020.3,469.4 L1020.5,512.4 L1020.7,470.9 L1020.9,502.3 L1021.1,452.4 L1021.3,508.4 L1021.6,509.6 L1021.8,506.1 L1022.0,490.1 L1022.2,470.6 L1022.4,459.9 L1022.6,450.2 L1022.9,471.6 L1023.1,480.2 L1023.3,473.0 L1023.5,457.5 L1023.7,513.6 L1023.9,454.0 L1024.2,514.8 L1024.4,483.0 L1024.6,475.7 L1024.8,510.8 L1025.0,500.4 L1025.3,515.6 L1025.5,514.6 L1025.7,458.8 L1025.9,463.5 L1026.1,482.9 L1026.3,463.5 L1026.6,474.9 L1026.8,515.7 L1027.0,482.8 L1027.2,479.6 L1027.4,467.1 L1027.6,504.4 L1027.9,479.3 L1028.1,461.9 L1028.3,511.6 L1028.5,509.2 L1028.7,502.7 L1029.0,494.2 L1029.2,513.9 L1029.4,496.9 L1029.6,473.9 L1029.8,484.9 L1030.0,490.6 L1030.3,513.4 L1030.5,516.0 L1030.7,489.4 L1030.9,508.9 L1031.1,485.5 L1031.3,518.0 L1031.6,505.6 L1031.8,501.1 L1032.0,475.3 L1032.2,489.0 L1032.4,490.1 L1032.7,480.7 L1032.9,494.5 L1033.1,466.2 L1033.3,496.0 L1033.5,484.4 L1033.7,509.4 L1034.0,484.3 L1034.2,510.7 L1034.4,519.8 L1034.6,506.6 L1034.8,516.2 L1035.0,479.4 L1035.3,486.5 L1035.5,515.5 L1035.7,499.2 L1035.9,473.9 L1036.1,473.2 L1036.4,519.9 L1036.6,508.1 L1036.8,487.9 L1037.0,484.0 L1037.2,520.5 L1037.4,492.2 L1037.7,501.0 L1037.9,516.5 L1038.1,494.0 L1038.3,489.7 L1038.5,483.6 L1038.7,512.5 L1039.0,506.0 L1039.2,514.4 L1039.4,516.5 L1039.6,481.8 L1039.8,494.4 L1040.1,516.9 L1040.3,517.0 L1040.5,514.2 L1040.7,484.2 L1040.9,479.4 L1041.1,490.5 L1041.4,495.7 L1041.6,499.1 L1041.8,515.0 L1042.0,506.6 L1042.2,510.7 L1042.4,499.3 L1042.7,507.6 L1042.9,501.0 L1043.1,489.8 L1043.3,502.4 L1043.5,512.4 L1043.7,506.4 L1044.0,502.7 L1044.2,502.6 L1044.4,510.4 L1044.6,503.3 L1044.8,516.6 L1045.1,517.9 L1045.3,492.7 L1045.5,509.8 L1045.7,517.3 L1045.9,494.2 L1046.1,524.4 L1046.4,492.9 L1046.6,509.6 L1046.8,498.0 L1047.0,499.5 L1047.2,501.8 L1047.4,503.5 L1047.7,526.0 L1047.9,525.0 L1048.1,496.3 L1048.3,510.9 L1048.5,495.4 L1048.8,518.5 L1049.0,503.3 L1049.2,510.8 L1049.4,514.6 L1049.6,506.1 L1049.8,501.9 L1050.1,503.0 L1050.3,506.0 L1050.5,497.0 L1050.7,502.7 L1050.9,525.1 L1051.1,511.9 L1051.4,518.6 L1051.6,515.3 L1051.8,517.3 L1052.0,509.0 L1052.2,524.4 L1052.5,516.5 L1052.7,508.5 L1052.9,507.2 L1053.1,505.9 L1053.3,516.0 L1053.5,514.9 L1053.8,497.4 L1054.0,529.5 L1054.2,516.6 L1054.4,522.6 L1054.6,502.5 L1054.8,514.7 L1055.1,501.9 L1055.3,530.4 L1055.5,512.4 L1055.7,503.0 L1055.9,508.4 L1056.2,517.7 L1056.4,506.4 L1056.6,505.1 L1056.8,517.4 L1057.0,521.9 L1057.2,502.9 L1057.5,514.7 L1057.7,508.2 L1057.9,511.2 L1058.1,512.5 L1058.3,515.7 L1058.5,531.1 L1058.8,512.9 L1059.0,520.8 L1059.2,510.8 L1059.4,508.7 L1059.6,511.5 L1059.8,516.7 L1060.1,526.8 L1060.3,522.4 L1060.5,508.9 L1060.7,508.2 L1060.9,526.2 L1061.2,520.3 L1061.4,533.0 L1061.6,527.7 L1061.8,531.3 L1062.0,513.5 L1062.2,527.2 L1062.5,529.1 L1062.7,512.5 L1062.9,531.4 L1063.1,526.2 L1063.3,513.2 L1063.5,533.1 L1063.8,521.9 L1064.0,527.1 L1064.2,525.1 L1064.4,534.0 L1064.6,530.0 L1064.9,527.3 L1065.1,516.3 L1065.3,519.8 L1065.5,522.7 L1065.7,532.1 L1065.9,520.0 L1066.2,517.3 L1066.4,522.9 L1066.6,530.6 L1066.8,531.3 L1067.0,525.4 L1067.2,527.7 L1067.5,521.0 L1067.7,532.1 L1067.9,524.1 L1068.1,519.2 L1068.3,536.8 L1068.6,518.5 L1068.8,532.8 L1069.0,535.5 L1069.2,522.7 L1069.4,529.2 L1069.6,534.8 L1069.9,527.5 L1070.1,536.9 L1070.3,529.9 L1070.5,524.4 L1070.7,525.6 L1070.9,524.2 L1071.2,522.5 L1071.4,528.5 L1071.6,527.2 L1071.8,531.9 L1072.0,531.8 L1072.3,525.7 L1072.5,534.4 L1072.7,533.9 L1072.9,532.5 L1073.1,530.6 L1073.3,527.7 L1073.6,531.2 L1073.8,527.1 L1074.0,537.0 L1074.2,529.5 L1074.4,538.6 L1074.6,532.3 L1074.9,537.4 L1075.1,534.5 L1075.3,529.9 L1075.5,534.8 L1075.7,535.1 L1075.9,538.6 L1076.2,532.5 L1076.4,535.5 L1076.6,538.4 L1076.8,536.7 L1077.0,534.5 L1077.3,539.3 L1077.5,533.1 L1077.7,539.6 L1077.9,536.0 L1078.1,532.5 L1078.3,536.7 L1078.6,535.8 L1078.8,535.2 L1079.0,538.5 L1079.2,539.1 L1079.4,538.5 L1079.6,537.9 L1079.9,541.5 L1080.1,536.5 L1080.3,540.7 L1080.5,536.0 L1080.7,540.0 L1081.0,538.5 L1081.2,538.8 L1081.4,543.1 L1081.6,539.0 L1081.8,542.3 L1082.0,539.5 L1082.3,540.3 L1082.5,541.1 L1082.7,539.1 L1082.9,541.7 L1083.1,543.6 L1083.3,541.7 L1083.6,542.3 L1083.8,540.6 L1084.0,541.3" fill="none" stroke="#1f77b4" stroke-width="1.4" opacity="0.85"/><text x="1040" y="54" fill="#ff7f0e" font-size="11">roll 19</text><text x="1090" y="558" fill="#ff7f0e" font-size="11">-18</text><path d="M616.0,312.5 L616.2,318.9 L616.4,318.9 L616.7,324.0 L616.9,324.0 L617.1,313.8 L617.3,313.8 L617.5,313.8 L617.7,312.5 L618.0,320.2 L618.2,321.4 L618.4,318.9 L618.6,325.3 L618.8,320.2 L619.0,316.4 L619.3,313.8 L619.5,317.6 L619.7,315.1 L619.9,318.9 L620.1,317.6 L620.4,318.9 L620.6,315.1 L620.8,318.9 L621.0,317.6 L621.2,315.1 L621.4,316.4 L621.7,324.0 L621.9,315.1 L622.1,325.3 L622.3,316.4 L622.5,313.8 L622.7,313.8 L623.0,322.7 L623.2,321.4 L623.4,322.7 L623.6,317.6 L623.8,312.5 L624.1,313.8 L624.3,317.6 L624.5,322.7 L624.7,316.4 L624.9,317.6 L625.1,325.3 L625.4,321.4 L625.6,315.1 L625.8,321.4 L626.0,312.5 L626.2,320.2 L626.4,324.0 L626.7,321.4 L626.9,316.4 L627.1,315.1 L627.3,312.5 L627.5,312.5 L627.7,320.2 L628.0,315.1 L628.2,320.2 L628.4,322.7 L628.6,322.7 L628.8,324.0 L629.1,316.4 L629.3,322.7 L629.5,321.4 L629.7,318.9 L629.9,315.1 L630.1,322.7 L630.4,317.6 L630.6,324.0 L630.8,318.9 L631.0,324.0 L631.2,321.4 L631.4,325.3 L631.7,320.2 L631.9,316.4 L632.1,313.8 L632.3,313.8 L632.5,313.8 L632.8,321.4 L633.0,318.9 L633.2,311.3 L633.4,316.4 L633.6,317.6 L633.8,321.4 L634.1,324.0 L634.3,317.6 L634.5,315.1 L634.7,316.4 L634.9,318.9 L635.1,313.8 L635.4,324.0 L635.6,321.4 L635.8,313.8 L636.0,322.7 L636.2,322.7 L636.5,324.0 L636.7,316.4 L636.9,312.5 L637.1,324.0 L637.3,324.0 L637.5,316.4 L637.8,315.1 L638.0,320.2 L638.2,315.1 L638.4,312.5 L638.6,318.9 L638.8,318.9 L639.1,320.2 L639.3,324.0 L639.5,321.4 L639.7,324.0 L639.9,318.9 L640.2,321.4 L640.4,321.4 L640.6,324.0 L640.8,322.7 L641.0,313.8 L641.2,316.4 L641.5,313.8 L641.7,312.5 L641.9,312.5 L642.1,324.0 L642.3,315.1 L642.5,316.4 L642.8,320.2 L643.0,313.8 L643.2,316.4 L643.4,316.4 L643.6,312.5 L643.8,311.3 L644.1,315.1 L644.3,322.7 L644.5,311.3 L644.7,322.7 L644.9,316.4 L645.2,315.1 L645.4,312.5 L645.6,324.0 L645.8,318.9 L646.0,324.0 L646.2,318.9 L646.5,321.4 L646.7,321.4 L646.9,320.2 L647.1,313.8 L647.3,316.4 L647.5,322.7 L647.8,316.4 L648.0,321.4 L648.2,311.3 L648.4,311.3 L648.6,317.6 L648.9,318.9 L649.1,322.7 L649.3,320.2 L649.5,312.5 L649.7,315.1 L649.9,311.3 L650.2,312.5 L650.4,322.7 L650.6,322.7 L650.8,310.0 L651.0,315.1 L651.2,317.6 L651.5,312.5 L651.7,315.1 L651.9,312.5 L652.1,312.5 L652.3,320.2 L652.6,311.3 L652.8,308.7 L653.0,317.6 L653.2,321.4 L653.4,320.2 L653.6,316.4 L653.9,311.3 L654.1,316.4 L654.3,315.1 L654.5,318.9 L654.7,312.5 L654.9,311.3 L655.2,316.4 L655.4,311.3 L655.6,308.7 L655.8,313.8 L656.0,308.7 L656.3,310.0 L656.5,320.2 L656.7,312.5 L656.9,321.4 L657.1,308.7 L657.3,316.4 L657.6,311.3 L657.8,321.4 L658.0,308.7 L658.2,310.0 L658.4,308.7 L658.6,318.9 L658.9,316.4 L659.1,318.9 L659.3,312.5 L659.5,320.2 L659.7,313.8 L659.9,312.5 L660.2,310.0 L660.4,311.3 L660.6,321.4 L660.8,317.6 L661.0,316.4 L661.3,317.6 L661.5,308.7 L661.7,324.0 L661.9,308.7 L662.1,316.4 L662.3,322.7 L662.6,308.7 L662.8,324.0 L663.0,316.4 L663.2,308.7 L663.4,317.6 L663.6,321.4 L663.9,308.7 L664.1,312.5 L664.3,310.0 L664.5,312.5 L664.7,311.3 L665.0,307.5 L665.2,312.5 L665.4,316.4 L665.6,306.2 L665.8,311.3 L666.0,316.4 L666.3,311.3 L666.5,308.7 L666.7,311.3 L666.9,306.2 L667.1,321.4 L667.3,311.3 L667.6,308.7 L667.8,312.5 L668.0,311.3 L668.2,308.7 L668.4,320.2 L668.7,310.0 L668.9,311.3 L669.1,320.2 L669.3,310.0 L669.5,313.8 L669.7,313.8 L670.0,307.5 L670.2,311.3 L670.4,307.5 L670.6,321.4 L670.8,315.1 L671.0,313.8 L671.3,306.2 L671.5,317.6 L671.7,321.4 L671.9,310.0 L672.1,318.9 L672.4,312.5 L672.6,307.5 L672.8,311.3 L673.0,312.5 L673.2,316.4 L673.4,318.9 L673.7,318.9 L673.9,320.2 L674.1,317.6 L674.3,313.8 L674.5,308.7 L674.7,306.2 L675.0,306.2 L675.2,317.6 L675.4,307.5 L675.6,322.7 L675.8,313.8 L676.1,320.2 L676.3,317.6 L676.5,313.8 L676.7,307.5 L676.9,310.0 L677.1,316.4 L677.4,317.6 L677.6,320.2 L677.8,307.5 L678.0,316.4 L678.2,318.9 L678.4,315.1 L678.7,316.4 L678.9,321.4 L679.1,315.1 L679.3,317.6 L679.5,308.7 L679.7,304.9 L680.0,316.4 L680.2,310.0 L680.4,306.2 L680.6,316.4 L680.8,308.7 L681.1,304.9 L681.3,307.5 L681.5,320.2 L681.7,306.2 L681.9,308.7 L682.1,304.9 L682.4,307.5 L682.6,308.7 L682.8,313.8 L683.0,318.9 L683.2,312.5 L683.4,313.8 L683.7,306.2 L683.9,318.9 L684.1,320.2 L684.3,313.8 L684.5,310.0 L684.8,313.8 L685.0,308.7 L685.2,312.5 L685.4,268.0 L685.6,273.1 L685.8,279.5 L686.1,292.2 L686.3,254.0 L686.5,238.8 L686.7,238.8 L686.9,265.5 L687.1,209.5 L687.4,200.6 L687.6,198.1 L687.8,215.9 L688.0,175.2 L688.2,172.7 L688.5,249.0 L688.7,245.1 L688.9,152.3 L689.1,246.4 L689.3,224.8 L689.5,170.1 L689.8,219.7 L690.0,255.3 L690.2,247.7 L690.4,270.6 L690.6,236.2 L690.8,236.2 L691.1,245.1 L691.3,157.4 L691.5,219.7 L691.7,232.4 L691.9,226.1 L692.2,209.5 L692.4,129.4 L692.6,207.0 L692.8,252.8 L693.0,247.7 L693.2,173.9 L693.5,204.4 L693.7,173.9 L693.9,243.9 L694.1,255.3 L694.3,224.8 L694.5,161.2 L694.8,171.4 L695.0,250.2 L695.2,203.2 L695.4,276.9 L695.6,187.9 L695.8,279.5 L696.1,221.0 L696.3,217.2 L696.5,209.5 L696.7,233.7 L696.9,273.1 L697.2,213.3 L697.4,207.0 L697.6,223.5 L697.8,264.2 L698.0,172.7 L698.2,268.0 L698.5,257.9 L698.7,274.4 L698.9,204.4 L699.1,241.3 L699.3,172.7 L699.5,268.0 L699.8,269.3 L700.0,200.6 L700.2,181.6 L700.4,231.2 L700.6,182.8 L700.9,278.2 L701.1,237.5 L701.3,228.6 L701.5,259.1 L701.7,240.1 L701.9,268.0 L702.2,252.8 L702.4,168.8 L702.6,227.3 L702.8,240.1 L703.0,251.5 L703.2,227.3 L703.5,288.4 L703.7,231.2 L703.9,246.4 L704.1,231.2 L704.3,201.9 L704.6,194.3 L704.8,199.4 L705.0,241.3 L705.2,228.6 L705.4,228.6 L705.6,208.3 L705.9,179.0 L706.1,259.1 L706.3,227.3 L706.5,184.1 L706.7,204.4 L706.9,182.8 L707.2,254.0 L707.4,250.2 L707.6,259.1 L707.8,299.8 L708.0,284.6 L708.3,298.6 L708.5,315.1 L708.7,326.5 L708.9,341.8 L709.1,357.1 L709.3,353.2 L709.6,405.4 L709.8,396.5 L710.0,407.9 L710.2,353.2 L710.4,363.4 L710.6,373.6 L710.9,402.8 L711.1,390.1 L711.3,489.3 L711.5,425.7 L711.7,397.8 L711.9,374.9 L712.2,509.7 L712.4,396.5 L712.6,401.6 L712.8,428.3 L713.0,434.6 L713.3,441.0 L713.5,514.8 L713.7,424.5 L713.9,428.3 L714.1,475.3 L714.3,442.3 L714.6,425.7 L714.8,523.7 L715.0,414.3 L715.2,470.2 L715.4,477.9 L715.6,452.4 L715.9,418.1 L716.1,391.4 L716.3,514.8 L716.5,420.6 L716.7,513.5 L717.0,446.1 L717.2,410.5 L717.4,461.3 L717.6,493.1 L717.8,400.3 L718.0,456.2 L718.3,410.5 L718.5,517.3 L718.7,489.3 L718.9,499.5 L719.1,411.7 L719.3,495.7 L719.6,393.9 L719.8,406.7 L720.0,385.0 L720.2,458.8 L720.4,421.9 L720.7,396.5 L720.9,414.3 L721.1,544.0 L721.3,485.5 L721.5,439.7 L721.7,472.8 L722.0,488.0 L722.2,388.8 L722.4,414.3 L722.6,507.1 L722.8,395.2 L723.0,402.8 L723.3,480.4 L723.5,413.0 L723.7,387.6 L723.9,544.0 L724.1,502.0 L724.4,458.8 L724.6,392.7 L724.8,536.4 L725.0,479.1 L725.2,490.6 L725.4,402.8 L725.7,504.6 L725.9,410.5 L726.1,415.6 L726.3,532.6 L726.5,388.8 L726.7,395.2 L727.0,507.1 L727.2,455.0 L727.4,496.9 L727.6,383.8 L727.8,405.4 L728.1,425.7 L728.3,510.9 L728.5,481.7 L728.7,504.6 L728.9,432.1 L729.1,484.2 L729.4,483.0 L729.6,483.0 L729.8,388.8 L730.0,514.8 L730.2,444.8 L730.4,500.8 L730.7,399.0 L730.9,521.1 L731.1,396.5 L731.3,509.7 L731.5,378.7 L731.7,434.6 L732.0,382.5 L732.2,387.6 L732.4,381.2 L732.6,429.5 L732.8,508.4 L733.1,406.7 L733.3,400.3 L733.5,432.1 L733.7,391.4 L733.9,489.3 L734.1,479.1 L734.4,462.6 L734.6,484.2 L734.8,400.3 L735.0,498.2 L735.2,409.2 L735.4,472.8 L735.7,493.1 L735.9,438.4 L736.1,443.5 L736.3,530.0 L736.5,421.9 L736.8,512.2 L737.0,428.3 L737.2,425.7 L737.4,391.4 L737.6,475.3 L737.8,382.5 L738.1,433.4 L738.3,507.1 L738.5,476.6 L738.7,407.9 L738.9,485.5 L739.1,424.5 L739.4,481.7 L739.6,411.7 L739.8,395.2 L740.0,401.6 L740.2,396.5 L740.5,494.4 L740.7,446.1 L740.9,486.8 L741.1,385.0 L741.3,467.7 L741.5,390.1 L741.8,387.6 L742.0,409.2 L742.2,496.9 L742.4,508.4 L742.6,407.9 L742.8,522.4 L743.1,493.1 L743.3,371.0 L743.5,378.7 L743.7,451.2 L743.9,419.4 L744.2,364.7 L744.4,354.5 L744.6,352.0 L744.8,345.6 L745.0,321.4 L745.2,297.3 L745.5,301.1 L745.7,265.5 L745.9,285.8 L746.1,243.9 L746.3,264.2 L746.5,219.7 L746.8,273.1 L747.0,200.6 L747.2,250.2 L747.4,278.2 L747.6,264.2 L747.8,260.4 L748.1,268.0 L748.3,247.7 L748.5,161.2 L748.7,236.2 L748.9,163.8 L749.2,254.0 L749.4,255.3 L749.6,208.3 L749.8,143.4 L750.0,165.0 L750.2,250.2 L750.5,138.3 L750.7,219.7 L750.9,265.5 L751.1,185.4 L751.3,217.2 L751.5,196.8 L751.8,165.0 L752.0,264.2 L752.2,190.5 L752.4,193.0 L752.6,212.1 L752.9,175.2 L753.1,176.5 L753.3,147.2 L753.5,193.0 L753.7,159.9 L753.9,195.5 L754.2,213.3 L754.4,175.2 L754.6,175.2 L754.8,194.3 L755.0,214.6 L755.2,77.3 L755.5,193.0 L755.7,81.1 L755.9,135.8 L756.1,125.6 L756.3,138.3 L756.6,144.7 L756.8,104.0 L757.0,140.9 L757.2,204.4 L757.4,106.5 L757.6,157.4 L757.9,236.2 L758.1,199.4 L758.3,115.4 L758.5,251.5 L758.7,114.2 L758.9,250.2 L759.2,233.7 L759.4,107.8 L759.6,218.4 L759.8,221.0 L760.0,245.1 L760.3,132.0 L760.5,231.2 L760.7,163.8 L760.9,238.8 L761.1,170.1 L761.3,191.7 L761.6,204.4 L761.8,166.3 L762.0,214.6 L762.2,249.0 L762.4,130.7 L762.6,147.2 L762.9,235.0 L763.1,112.9 L763.3,147.2 L763.5,233.7 L763.7,213.3 L763.9,233.7 L764.2,190.5 L764.4,210.8 L764.6,125.6 L764.8,193.0 L765.0,194.3 L765.3,137.0 L765.5,168.8 L765.7,196.8 L765.9,233.7 L766.1,123.1 L766.3,180.3 L766.6,236.2 L766.8,240.1 L767.0,138.3 L767.2,100.2 L767.4,193.0 L767.6,142.1 L767.9,229.9 L768.1,159.9 L768.3,144.7 L768.5,224.8 L768.7,250.2 L769.0,195.5 L769.2,240.1 L769.4,203.2 L769.6,190.5 L769.8,214.6 L770.0,100.2 L770.3,177.7 L770.5,219.7 L770.7,165.0 L770.9,135.8 L771.1,152.3 L771.3,121.8 L771.6,213.3 L771.8,161.2 L772.0,233.7 L772.2,152.3 L772.4,235.0 L772.7,165.0 L772.9,125.6 L773.1,194.3 L773.3,168.8 L773.5,219.7 L773.7,148.5 L774.0,229.9 L774.2,121.8 L774.4,175.2 L774.6,210.8 L774.8,133.2 L775.0,221.0 L775.3,170.1 L775.5,221.0 L775.7,138.3 L775.9,196.8 L776.1,159.9 L776.4,207.0 L776.6,154.8 L776.8,254.0 L777.0,210.8 L777.2,129.4 L777.4,264.2 L777.7,226.1 L777.9,208.3 L778.1,223.5 L778.3,221.0 L778.5,189.2 L778.7,195.5 L779.0,173.9 L779.2,252.8 L779.4,106.5 L779.6,242.6 L779.8,242.6 L780.1,175.2 L780.3,116.7 L780.5,148.5 L780.7,207.0 L780.9,236.2 L781.1,120.5 L781.4,157.4 L781.6,163.8 L781.8,142.1 L782.0,163.8 L782.2,152.3 L782.4,218.4 L782.7,224.8 L782.9,119.2 L783.1,189.2 L783.3,142.1 L783.5,184.1 L783.7,181.6 L784.0,195.5 L784.2,241.3 L784.4,221.0 L784.6,132.0 L784.8,162.5 L785.1,102.7 L785.3,235.0 L785.5,84.9 L785.7,143.4 L785.9,126.9 L786.1,176.5 L786.4,158.7 L786.6,173.9 L786.8,196.8 L787.0,157.4 L787.2,245.1 L787.4,107.8 L787.7,232.4 L787.9,126.9 L788.1,229.9 L788.3,254.0 L788.5,124.3 L788.8,156.1 L789.0,208.3 L789.2,140.9 L789.4,170.1 L789.6,124.3 L789.8,162.5 L790.1,214.6 L790.3,172.7 L790.5,191.7 L790.7,208.3 L790.9,223.5 L791.1,194.3 L791.4,205.7 L791.6,87.4 L791.8,124.3 L792.0,205.7 L792.2,140.9 L792.5,170.1 L792.7,82.4 L792.9,226.1 L793.1,140.9 L793.3,255.3 L793.5,168.8 L793.8,153.6 L794.0,214.6 L794.2,240.1 L794.4,251.5 L794.6,217.2 L794.8,215.9 L795.1,111.6 L795.3,195.5 L795.5,124.3 L795.7,186.6 L795.9,227.3 L796.2,251.5 L796.4,163.8 L796.6,132.0 L796.8,213.3 L797.0,177.7 L797.2,212.1 L797.5,111.6 L797.7,236.2 L797.9,243.9 L798.1,252.8 L798.3,102.7 L798.5,205.7 L798.8,116.7 L799.0,237.5 L799.2,208.3 L799.4,203.2 L799.6,204.4 L799.8,223.5 L800.1,96.3 L800.3,256.6 L800.5,152.3 L800.7,231.2 L800.9,261.7 L801.2,143.4 L801.4,242.6 L801.6,240.1 L801.8,162.5 L802.0,261.7 L802.2,207.0 L802.5,191.7 L802.7,260.4 L802.9,198.1 L803.1,222.2 L803.3,167.6 L803.5,165.0 L803.8,181.6 L804.0,232.4 L804.2,212.1 L804.4,125.6 L804.6,139.6 L804.9,195.5 L805.1,199.4 L805.3,236.2 L805.5,191.7 L805.7,91.3 L805.9,116.7 L806.2,138.3 L806.4,210.8 L806.6,93.8 L806.8,171.4 L807.0,166.3 L807.2,173.9 L807.5,145.9 L807.7,166.3 L807.9,76.0 L808.1,116.7 L808.3,159.9 L808.6,148.5 L808.8,106.5 L809.0,104.0 L809.2,205.7 L809.4,199.4 L809.6,180.3 L809.9,91.3 L810.1,118.0 L810.3,227.3 L810.5,219.7 L810.7,157.4 L810.9,198.1 L811.2,130.7 L811.4,232.4 L811.6,219.7 L811.8,112.9 L812.0,163.8 L812.3,203.2 L812.5,135.8 L812.7,252.8 L812.9,238.8 L813.1,245.1 L813.3,223.5 L813.6,147.2 L813.8,203.2 L814.0,218.4 L814.2,200.6 L814.4,227.3 L814.6,173.9 L814.9,161.2 L815.1,147.2 L815.3,221.0 L815.5,209.5 L815.7,107.8 L815.9,210.8 L816.2,130.7 L816.4,112.9 L816.6,214.6 L816.8,212.1 L817.0,196.8 L817.3,152.3 L817.5,208.3 L817.7,157.4 L817.9,224.8 L818.1,196.8 L818.3,154.8 L818.6,106.5 L818.8,207.0 L819.0,196.8 L819.2,128.1 L819.4,162.5 L819.6,168.8 L819.9,129.4 L820.1,246.4 L820.3,196.8 L820.5,125.6 L820.7,221.0 L821.0,207.0 L821.2,209.5 L821.4,193.0 L821.6,132.0 L821.8,126.9 L822.0,198.1 L822.3,226.1 L822.5,221.0 L822.7,193.0 L822.9,145.9 L823.1,111.6 L823.3,240.1 L823.6,240.1 L823.8,98.9 L824.0,166.3 L824.2,191.7 L824.4,223.5 L824.7,204.4 L824.9,185.4 L825.1,231.2 L825.3,166.3 L825.5,121.8 L825.7,193.0 L826.0,231.2 L826.2,105.2 L826.4,144.7 L826.6,98.9 L826.8,158.7 L827.0,142.1 L827.3,140.9 L827.5,142.1 L827.7,162.5 L827.9,240.1 L828.1,210.8 L828.4,147.2 L828.6,83.6 L828.8,184.1 L829.0,139.6 L829.2,179.0 L829.4,190.5 L829.7,148.5 L829.9,134.5 L830.1,129.4 L830.3,126.9 L830.5,240.1 L830.7,78.5 L831.0,243.9 L831.2,182.8 L831.4,212.1 L831.6,186.6 L831.8,129.4 L832.1,129.4 L832.3,171.4 L832.5,229.9 L832.7,119.2 L832.9,116.7 L833.1,224.8 L833.4,237.5 L833.6,226.1 L833.8,86.2 L834.0,223.5 L834.2,91.3 L834.4,201.9 L834.7,180.3 L834.9,194.3 L835.1,166.3 L835.3,227.3 L835.5,194.3 L835.7,238.8 L836.0,214.6 L836.2,78.5 L836.4,255.3 L836.6,116.7 L836.8,147.2 L837.1,187.9 L837.3,215.9 L837.5,243.9 L837.7,92.5 L837.9,198.1 L838.1,185.4 L838.4,102.7 L838.6,143.4 L838.8,129.4 L839.0,218.4 L839.2,156.1 L839.4,243.9 L839.7,147.2 L839.9,224.8 L840.1,142.1 L840.3,200.6 L840.5,125.6 L840.8,247.7 L841.0,138.3 L841.2,173.9 L841.4,167.6 L841.6,172.7 L841.8,179.0 L842.1,243.9 L842.3,208.3 L842.5,179.0 L842.7,149.8 L842.9,215.9 L843.1,130.7 L843.4,198.1 L843.6,179.0 L843.8,209.5 L844.0,186.6 L844.2,139.6 L844.5,201.9 L844.7,135.8 L844.9,193.0 L845.1,114.2 L845.3,190.5 L845.5,133.2 L845.8,165.0 L846.0,177.7 L846.2,145.9 L846.4,195.5 L846.6,232.4 L846.8,227.3 L847.1,133.2 L847.3,199.4 L847.5,229.9 L847.7,172.7 L847.9,252.8 L848.2,95.1 L848.4,125.6 L848.6,229.9 L848.8,229.9 L849.0,125.6 L849.2,138.3 L849.5,186.6 L849.7,106.5 L849.9,215.9 L850.1,124.3 L850.3,199.4 L850.5,123.1 L850.8,145.9 L851.0,227.3 L851.2,152.3 L851.4,205.7 L851.6,221.0 L851.8,147.2 L852.1,255.3 L852.3,232.4 L852.5,243.9 L852.7,182.8 L852.9,247.7 L853.2,175.2 L853.4,138.3 L853.6,199.4 L853.8,118.0 L854.0,198.1 L854.2,142.1 L854.5,249.0 L854.7,231.2 L854.9,132.0 L855.1,232.4 L855.3,259.1 L855.5,185.4 L855.8,196.8 L856.0,224.8 L856.2,167.6 L856.4,186.6 L856.6,172.7 L856.9,179.0 L857.1,184.1 L857.3,125.6 L857.5,185.4 L857.7,214.6 L857.9,173.9 L858.2,200.6 L858.4,224.8 L858.6,142.1 L858.8,98.9 L859.0,163.8 L859.2,126.9 L859.5,194.3 L859.7,204.4 L859.9,125.6 L860.1,167.6 L860.3,194.3 L860.6,170.1 L860.8,173.9 L861.0,106.5 L861.2,213.3 L861.4,166.3 L861.6,252.8 L861.9,128.1 L862.1,165.0 L862.3,235.0 L862.5,100.2 L862.7,209.5 L862.9,119.2 L863.2,208.3 L863.4,223.5 L863.6,221.0 L863.8,222.2 L864.0,171.4 L864.3,203.2 L864.5,139.6 L864.7,227.3 L864.9,184.1 L865.1,112.9 L865.3,140.9 L865.6,242.6 L865.8,210.8 L866.0,215.9 L866.2,106.5 L866.4,260.4 L866.6,171.4 L866.9,185.4 L867.1,201.9 L867.3,137.0 L867.5,176.5 L867.7,133.2 L867.9,130.7 L868.2,208.3 L868.4,246.4 L868.6,184.1 L868.8,251.5 L869.0,194.3 L869.3,129.4 L869.5,231.2 L869.7,167.6 L869.9,241.3 L870.1,221.0 L870.3,227.3 L870.6,180.3 L870.8,126.9 L871.0,144.7 L871.2,224.8 L871.4,115.4 L871.6,135.8 L871.9,236.2 L872.1,142.1 L872.3,179.0 L872.5,196.8 L872.7,229.9 L873.0,115.4 L873.2,259.1 L873.4,204.4 L873.6,149.8 L873.8,204.4 L874.0,260.4 L874.3,135.8 L874.5,176.5 L874.7,144.7 L874.9,245.1 L875.1,224.8 L875.3,176.5 L875.6,175.2 L875.8,224.8 L876.0,123.1 L876.2,245.1 L876.4,198.1 L876.7,167.6 L876.9,186.6 L877.1,217.2 L877.3,101.4 L877.5,132.0 L877.7,204.4 L878.0,153.6 L878.2,172.7 L878.4,165.0 L878.6,249.0 L878.8,172.7 L879.0,179.0 L879.3,250.2 L879.5,168.8 L879.7,185.4 L879.9,170.1 L880.1,128.1 L880.4,176.5 L880.6,181.6 L880.8,96.3 L881.0,176.5 L881.2,119.2 L881.4,142.1 L881.7,222.2 L881.9,210.8 L882.1,148.5 L882.3,180.3 L882.5,123.1 L882.7,200.6 L883.0,161.2 L883.2,140.9 L883.4,134.5 L883.6,194.3 L883.8,139.6 L884.1,238.8 L884.3,232.4 L884.5,235.0 L884.7,198.1 L884.9,119.2 L885.1,167.6 L885.4,219.7 L885.6,88.7 L885.8,201.9 L886.0,104.0 L886.2,245.1 L886.4,159.9 L886.7,143.4 L886.9,138.3 L887.1,162.5 L887.3,201.9 L887.5,157.4 L887.7,158.7 L888.0,123.1 L888.2,142.1 L888.4,129.4 L888.6,198.1 L888.8,143.4 L889.1,148.5 L889.3,152.3 L889.5,243.9 L889.7,224.8 L889.9,123.1 L890.1,142.1 L890.4,119.2 L890.6,194.3 L890.8,223.5 L891.0,242.6 L891.2,227.3 L891.4,142.1 L891.7,198.1 L891.9,153.6 L892.1,246.4 L892.3,95.1 L892.5,179.0 L892.8,181.6 L893.0,207.0 L893.2,112.9 L893.4,223.5 L893.6,109.1 L893.8,162.5 L894.1,227.3 L894.3,100.2 L894.5,212.1 L894.7,182.8 L894.9,152.3 L895.1,123.1 L895.4,132.0 L895.6,207.0 L895.8,104.0 L896.0,257.9 L896.2,185.4 L896.5,252.8 L896.7,144.7 L896.9,210.8 L897.1,208.3 L897.3,201.9 L897.5,172.7 L897.8,176.5 L898.0,182.8 L898.2,210.8 L898.4,224.8 L898.6,93.8 L898.8,201.9 L899.1,232.4 L899.3,210.8 L899.5,83.6 L899.7,250.2 L899.9,187.9 L900.2,190.5 L900.4,142.1 L900.6,215.9 L900.8,185.4 L901.0,204.4 L901.2,204.4 L901.5,158.7 L901.7,156.1 L901.9,123.1 L902.1,194.3 L902.3,82.4 L902.5,210.8 L902.8,134.5 L903.0,135.8 L903.2,185.4 L903.4,115.4 L903.6,152.3 L903.8,223.5 L904.1,195.5 L904.3,247.7 L904.5,186.6 L904.7,149.8 L904.9,208.3 L905.2,236.2 L905.4,144.7 L905.6,173.9 L905.8,168.8 L906.0,163.8 L906.2,240.1 L906.5,222.2 L906.7,161.2 L906.9,95.1 L907.1,221.0 L907.3,105.2 L907.5,254.0 L907.8,149.8 L908.0,198.1 L908.2,139.6 L908.4,209.5 L908.6,203.2 L908.9,187.9 L909.1,137.0 L909.3,185.4 L909.5,159.9 L909.7,243.9 L909.9,165.0 L910.2,226.1 L910.4,249.0 L910.6,232.4 L910.8,128.1 L911.0,157.4 L911.2,172.7 L911.5,152.3 L911.7,173.9 L911.9,121.8 L912.1,215.9 L912.3,218.4 L912.6,86.2 L912.8,212.1 L913.0,186.6 L913.2,107.8 L913.4,144.7 L913.6,194.3 L913.9,175.2 L914.1,126.9 L914.3,119.2 L914.5,240.1 L914.7,148.5 L914.9,129.4 L915.2,182.8 L915.4,247.7 L915.6,109.1 L915.8,157.4 L916.0,226.1 L916.3,213.3 L916.5,179.0 L916.7,152.3 L916.9,241.3 L917.1,221.0 L917.3,240.1 L917.6,125.6 L917.8,153.6 L918.0,198.1 L918.2,172.7 L918.4,201.9 L918.6,107.8 L918.9,255.3 L919.1,243.9 L919.3,107.8 L919.5,134.5 L919.7,177.7 L919.9,97.6 L920.2,228.6 L920.4,237.5 L920.6,101.4 L920.8,222.2 L921.0,138.3 L921.3,176.5 L921.5,199.4 L921.7,161.2 L921.9,163.8 L922.1,145.9 L922.3,249.0 L922.6,246.4 L922.8,92.5 L923.0,182.8 L923.2,166.3 L923.4,119.2 L923.6,168.8 L923.9,168.8 L924.1,179.0 L924.3,133.2 L924.5,104.0 L924.7,208.3 L925.0,124.3 L925.2,227.3 L925.4,179.0 L925.6,148.5 L925.8,223.5 L926.0,254.0 L926.3,219.7 L926.5,156.1 L926.7,247.7 L926.9,207.0 L927.1,128.1 L927.3,170.1 L927.6,142.1 L927.8,207.0 L928.0,170.1 L928.2,115.4 L928.4,260.4 L928.7,256.6 L928.9,204.4 L929.1,246.4 L929.3,110.3 L929.5,190.5 L929.7,140.9 L930.0,158.7 L930.2,226.1 L930.4,246.4 L930.6,159.9 L930.8,189.2 L931.0,182.8 L931.3,180.3 L931.5,154.8 L931.7,193.0 L931.9,193.0 L932.1,81.1 L932.4,201.9 L932.6,237.5 L932.8,166.3 L933.0,144.7 L933.2,185.4 L933.4,114.2 L933.7,187.9 L933.9,107.8 L934.1,217.2 L934.3,158.7 L934.5,175.2 L934.7,215.9 L935.0,240.1 L935.2,134.5 L935.4,198.1 L935.6,219.7 L935.8,229.9 L936.1,138.3 L936.3,199.4 L936.5,163.8 L936.7,137.0 L936.9,171.4 L937.1,112.9 L937.4,243.9 L937.6,196.8 L937.8,144.7 L938.0,171.4 L938.2,222.2 L938.4,165.0 L938.7,242.6 L938.9,158.7 L939.1,250.2 L939.3,153.6 L939.5,191.7 L939.7,242.6 L940.0,266.8 L940.2,184.1 L940.4,213.3 L940.6,159.9 L940.8,195.5 L941.1,205.7 L941.3,162.5 L941.5,204.4 L941.7,246.4 L941.9,252.8 L942.1,166.3 L942.4,190.5 L942.6,247.7 L942.8,226.1 L943.0,123.1 L943.2,235.0 L943.4,235.0 L943.7,125.6 L943.9,235.0 L944.1,252.8 L944.3,199.4 L944.5,246.4 L944.8,186.6 L945.0,182.8 L945.2,264.2 L945.4,162.5 L945.6,250.2 L945.8,213.3 L946.1,147.2 L946.3,207.0 L946.5,196.8 L946.7,184.1 L946.9,210.8 L947.1,179.0 L947.4,219.7 L947.6,153.6 L947.8,245.1 L948.0,210.8 L948.2,128.1 L948.5,193.0 L948.7,235.0 L948.9,181.6 L949.1,238.8 L949.3,173.9 L949.5,135.8 L949.8,161.2 L950.0,251.5 L950.2,137.0 L950.4,149.8 L950.6,245.1 L950.8,249.0 L951.1,167.6 L951.3,261.7 L951.5,250.2 L951.7,257.9 L951.9,130.7 L952.2,226.1 L952.4,184.1 L952.6,224.8 L952.8,179.0 L953.0,149.8 L953.2,134.5 L953.5,167.6 L953.7,171.4 L953.9,172.7 L954.1,235.0 L954.3,154.8 L954.5,215.9 L954.8,222.2 L955.0,142.1 L955.2,185.4 L955.4,228.6 L955.6,247.7 L955.8,243.9 L956.1,243.9 L956.3,194.3 L956.5,161.2 L956.7,233.7 L956.9,250.2 L957.2,144.7 L957.4,179.0 L957.6,241.3 L957.8,250.2 L958.0,138.3 L958.2,208.3 L958.5,193.0 L958.7,177.7 L958.9,212.1 L959.1,221.0 L959.3,144.7 L959.5,268.0 L959.8,189.2 L960.0,256.6 L960.2,218.4 L960.4,168.8 L960.6,226.1 L960.9,209.5 L961.1,194.3 L961.3,227.3 L961.5,207.0 L961.7,205.7 L961.9,139.6 L962.2,217.2 L962.4,212.1 L962.6,142.1 L962.8,193.0 L963.0,148.5 L963.2,207.0 L963.5,207.0 L963.7,130.7 L963.9,189.2 L964.1,143.4 L964.3,217.2 L964.6,208.3 L964.8,135.8 L965.0,167.6 L965.2,257.9 L965.4,171.4 L965.6,203.2 L965.9,219.7 L966.1,219.7 L966.3,182.8 L966.5,173.9 L966.7,222.2 L966.9,271.8 L967.2,194.3 L967.4,255.3 L967.6,226.1 L967.8,256.6 L968.0,152.3 L968.3,212.1 L968.5,265.5 L968.7,260.4 L968.9,143.4 L969.1,233.7 L969.3,245.1 L969.6,233.7 L969.8,152.3 L970.0,242.6 L970.2,259.1 L970.4,209.5 L970.6,138.3 L970.9,217.2 L971.1,242.6 L971.3,250.2 L971.5,240.1 L971.7,133.2 L971.9,228.6 L972.2,186.6 L972.4,201.9 L972.6,118.0 L972.8,219.7 L973.0,180.3 L973.3,224.8 L973.5,223.5 L973.7,240.1 L973.9,162.5 L974.1,228.6 L974.3,144.7 L974.6,176.5 L974.8,165.0 L975.0,182.8 L975.2,201.9 L975.4,170.1 L975.6,166.3 L975.9,185.4 L976.1,166.3 L976.3,143.4 L976.5,251.5 L976.7,252.8 L977.0,177.7 L977.2,156.1 L977.4,242.6 L977.6,240.1 L977.8,208.3 L978.0,182.8 L978.3,237.5 L978.5,163.8 L978.7,233.7 L978.9,212.1 L979.1,157.4 L979.3,163.8 L979.6,219.7 L979.8,237.5 L980.0,163.8 L980.2,240.1 L980.4,182.8 L980.7,187.9 L980.9,232.4 L981.1,128.1 L981.3,252.8 L981.5,166.3 L981.7,204.4 L982.0,156.1 L982.2,152.3 L982.4,236.2 L982.6,219.7 L982.8,236.2 L983.0,224.8 L983.3,212.1 L983.5,271.8 L983.7,236.2 L983.9,209.5 L984.1,212.1 L984.4,184.1 L984.6,179.0 L984.8,222.2 L985.0,198.1 L985.2,205.7 L985.4,259.1 L985.7,193.0 L985.9,139.6 L986.1,259.1 L986.3,172.7 L986.5,264.2 L986.7,250.2 L987.0,137.0 L987.2,173.9 L987.4,185.4 L987.6,228.6 L987.8,198.1 L988.1,261.7 L988.3,218.4 L988.5,269.3 L988.7,175.2 L988.9,209.5 L989.1,238.8 L989.4,204.4 L989.6,187.9 L989.8,271.8 L990.0,243.9 L990.2,153.6 L990.4,200.6 L990.7,159.9 L990.9,259.1 L991.1,255.3 L991.3,266.8 L991.5,215.9 L991.7,250.2 L992.0,193.0 L992.2,236.2 L992.4,255.3 L992.6,176.5 L992.8,235.0 L993.1,246.4 L993.3,207.0 L993.5,231.2 L993.7,196.8 L993.9,210.8 L994.1,255.3 L994.4,222.2 L994.6,170.1 L994.8,176.5 L995.0,170.1 L995.2,187.9 L995.4,240.1 L995.7,215.9 L995.9,288.4 L996.1,271.8 L996.3,278.2 L996.5,231.2 L996.8,282.0 L997.0,240.1 L997.2,254.0 L997.4,233.7 L997.6,261.7 L997.8,238.8 L998.1,215.9 L998.3,181.6 L998.5,201.9 L998.7,262.9 L998.9,218.4 L999.1,207.0 L999.4,249.0 L999.6,265.5 L999.8,138.3 L1000.0,259.1 L1000.2,190.5 L1000.5,266.8 L1000.7,190.5 L1000.9,187.9 L1001.1,196.8 L1001.3,227.3 L1001.5,213.3 L1001.8,153.6 L1002.0,262.9 L1002.2,219.7 L1002.4,167.6 L1002.6,179.0 L1002.8,243.9 L1003.1,212.1 L1003.3,245.1 L1003.5,180.3 L1003.7,157.4 L1003.9,151.0 L1004.2,246.4 L1004.4,207.0 L1004.6,180.3 L1004.8,147.2 L1005.0,154.8 L1005.2,250.2 L1005.5,221.0 L1005.7,133.2 L1005.9,199.4 L1006.1,260.4 L1006.3,170.1 L1006.5,251.5 L1006.8,224.8 L1007.0,173.9 L1007.2,249.0 L1007.4,200.6 L1007.6,229.9 L1007.8,257.9 L1008.1,134.5 L1008.3,171.4 L1008.5,167.6 L1008.7,182.8 L1008.9,166.3 L1009.2,232.4 L1009.4,237.5 L1009.6,246.4 L1009.8,259.1 L1010.0,172.7 L1010.2,167.6 L1010.5,212.1 L1010.7,227.3 L1010.9,179.0 L1011.1,236.2 L1011.3,237.5 L1011.5,221.0 L1011.8,218.4 L1012.0,165.0 L1012.2,204.4 L1012.4,175.2 L1012.6,194.3 L1012.9,232.4 L1013.1,163.8 L1013.3,213.3 L1013.5,187.9 L1013.7,284.6 L1013.9,242.6 L1014.2,198.1 L1014.4,196.8 L1014.6,250.2 L1014.8,243.9 L1015.0,278.2 L1015.2,266.8 L1015.5,296.0 L1015.7,269.3 L1015.9,262.9 L1016.1,256.6 L1016.3,214.6 L1016.6,254.0 L1016.8,283.3 L1017.0,275.7 L1017.2,265.5 L1017.4,187.9 L1017.6,198.1 L1017.9,262.9 L1018.1,270.6 L1018.3,196.8 L1018.5,264.2 L1018.7,233.7 L1018.9,190.5 L1019.2,182.8 L1019.4,182.8 L1019.6,153.6 L1019.8,241.3 L1020.0,241.3 L1020.3,224.8 L1020.5,271.8 L1020.7,210.8 L1020.9,208.3 L1021.1,218.4 L1021.3,152.3 L1021.6,262.9 L1021.8,251.5 L1022.0,194.3 L1022.2,256.6 L1022.4,203.2 L1022.6,240.1 L1022.9,191.7 L1023.1,276.9 L1023.3,232.4 L1023.5,255.3 L1023.7,198.1 L1023.9,252.8 L1024.2,223.5 L1024.4,274.4 L1024.6,237.5 L1024.8,176.5 L1025.0,273.1 L1025.3,191.7 L1025.5,212.1 L1025.7,256.6 L1025.9,231.2 L1026.1,245.1 L1026.3,179.0 L1026.6,210.8 L1026.8,212.1 L1027.0,179.0 L1027.2,228.6 L1027.4,172.7 L1027.6,264.2 L1027.9,163.8 L1028.1,254.0 L1028.3,235.0 L1028.5,161.2 L1028.7,199.4 L1029.0,243.9 L1029.2,268.0 L1029.4,180.3 L1029.6,195.5 L1029.8,284.6 L1030.0,210.8 L1030.3,274.4 L1030.5,278.2 L1030.7,287.1 L1030.9,301.1 L1031.1,264.2 L1031.3,246.4 L1031.6,245.1 L1031.8,238.8 L1032.0,280.8 L1032.2,268.0 L1032.4,279.5 L1032.7,215.9 L1032.9,204.4 L1033.1,201.9 L1033.3,260.4 L1033.5,223.5 L1033.7,227.3 L1034.0,247.7 L1034.2,233.7 L1034.4,274.4 L1034.6,186.6 L1034.8,265.5 L1035.0,194.3 L1035.3,260.4 L1035.5,251.5 L1035.7,189.2 L1035.9,238.8 L1036.1,205.7 L1036.4,195.5 L1036.6,215.9 L1036.8,219.7 L1037.0,222.2 L1037.2,231.2 L1037.4,271.8 L1037.7,221.0 L1037.9,269.3 L1038.1,245.1 L1038.3,191.7 L1038.5,252.8 L1038.7,235.0 L1039.0,231.2 L1039.2,285.8 L1039.4,252.8 L1039.6,254.0 L1039.8,255.3 L1040.1,249.0 L1040.3,260.4 L1040.5,254.0 L1040.7,228.6 L1040.9,235.0 L1041.1,213.3 L1041.4,275.7 L1041.6,214.6 L1041.8,273.1 L1042.0,250.2 L1042.2,203.2 L1042.4,251.5 L1042.7,195.5 L1042.9,212.1 L1043.1,249.0 L1043.3,262.9 L1043.5,224.8 L1043.7,200.6 L1044.0,212.1 L1044.2,269.3 L1044.4,273.1 L1044.6,200.6 L1044.8,265.5 L1045.1,249.0 L1045.3,176.5 L1045.5,226.1 L1045.7,176.5 L1045.9,259.1 L1046.1,189.2 L1046.4,274.4 L1046.6,154.8 L1046.8,271.8 L1047.0,279.5 L1047.2,246.4 L1047.4,217.2 L1047.7,275.7 L1047.9,221.0 L1048.1,222.2 L1048.3,268.0 L1048.5,219.7 L1048.8,224.8 L1049.0,193.0 L1049.2,173.9 L1049.4,227.3 L1049.6,257.9 L1049.8,243.9 L1050.1,237.5 L1050.3,243.9 L1050.5,256.6 L1050.7,266.8 L1050.9,271.8 L1051.1,265.5 L1051.4,256.6 L1051.6,282.0 L1051.8,249.0 L1052.0,270.6 L1052.2,276.9 L1052.5,260.4 L1052.7,204.4 L1052.9,260.4 L1053.1,247.7 L1053.3,247.7 L1053.5,273.1 L1053.8,262.9 L1054.0,271.8 L1054.2,254.0 L1054.4,287.1 L1054.6,249.0 L1054.8,297.3 L1055.1,274.4 L1055.3,275.7 L1055.5,257.9 L1055.7,265.5 L1055.9,262.9 L1056.2,191.7 L1056.4,275.7 L1056.6,158.7 L1056.8,242.6 L1057.0,219.7 L1057.2,229.9 L1057.5,252.8 L1057.7,204.4 L1057.9,204.4 L1058.1,226.1 L1058.3,265.5 L1058.5,262.9 L1058.8,266.8 L1059.0,243.9 L1059.2,257.9 L1059.4,207.0 L1059.6,229.9 L1059.8,254.0 L1060.1,241.3 L1060.3,257.9 L1060.5,246.4 L1060.7,219.7 L1060.9,297.3 L1061.2,254.0 L1061.4,293.5 L1061.6,247.7 L1061.8,224.8 L1062.0,257.9 L1062.2,252.8 L1062.5,285.8 L1062.7,260.4 L1062.9,231.2 L1063.1,275.7 L1063.3,245.1 L1063.5,228.6 L1063.8,246.4 L1064.0,221.0 L1064.2,233.7 L1064.4,173.9 L1064.6,259.1 L1064.9,226.1 L1065.1,262.9 L1065.3,231.2 L1065.5,228.6 L1065.7,282.0 L1065.9,251.5 L1066.2,256.6 L1066.4,257.9 L1066.6,241.3 L1066.8,262.9 L1067.0,235.0 L1067.2,195.5 L1067.5,261.7 L1067.7,273.1 L1067.9,196.8 L1068.1,246.4 L1068.3,282.0 L1068.6,293.5 L1068.8,276.9 L1069.0,290.9 L1069.2,287.1 L1069.4,268.0 L1069.6,268.0 L1069.9,252.8 L1070.1,266.8 L1070.3,279.5 L1070.5,293.5 L1070.7,303.6 L1070.9,299.8 L1071.2,280.8 L1071.4,279.5 L1071.6,212.1 L1071.8,256.6 L1072.0,218.4 L1072.3,252.8 L1072.5,247.7 L1072.7,212.1 L1072.9,231.2 L1073.1,189.2 L1073.3,245.1 L1073.6,275.7 L1073.8,193.0 L1074.0,254.0 L1074.2,205.7 L1074.4,232.4 L1074.6,199.4 L1074.9,273.1 L1075.1,235.0 L1075.3,209.5 L1075.5,250.2 L1075.7,304.9 L1075.9,297.3 L1076.2,290.9 L1076.4,276.9 L1076.6,303.6 L1076.8,326.5 L1077.0,315.1 L1077.3,315.1 L1077.5,301.1 L1077.7,285.8 L1077.9,294.7 L1078.1,285.8 L1078.3,288.4 L1078.6,306.2 L1078.8,276.9 L1079.0,301.1 L1079.2,302.4 L1079.4,268.0 L1079.6,236.2 L1079.9,261.7 L1080.1,210.8 L1080.3,282.0 L1080.5,186.6 L1080.7,257.9 L1081.0,237.5 L1081.2,240.1 L1081.4,210.8 L1081.6,259.1 L1081.8,265.5 L1082.0,223.5 L1082.3,266.8 L1082.5,187.9 L1082.7,207.0 L1082.9,213.3 L1083.1,242.6 L1083.3,237.5 L1083.6,231.2 L1083.8,259.1 L1084.0,217.2" fill="none" stroke="#ff7f0e" stroke-width="1.1" opacity="0.85"/><text x="616" y="572" font-size="11" fill="#888">time 0..43 s — altitude (blue) &amp; roll (orange)</text></svg>