<svg xmlns="http://www.w3.org/2000/svg" width="1140" height="600" font-family="sans-serif" font-size="13"><rect width="1140" height="600" fill="white"/><text x="20" y="26" font-size="15" fill="#333">Coludo flight</text><rect x="20" y="40" width="540" height="540" fill="#fbfbfb" stroke="#ddd"/><rect x="50" y="221" width="480" height="103" fill="#cde" stroke="#369" opacity="0.7"/><text x="50" y="216" fill="#369" font-size="12">landing zone</text><circle cx="354" cy="382" r="5" fill="black"/><text x="362" y="386" font-size="12">pad</text><path d="M353.6,382.4 L353.6,382.4 L353.6,382.4 L353.6,382.4 L353.6,382.4 L353.6,382.4 L353.6,382.4 L353.6,382.4 L353.6,382.4 L353.6,382.4 L353.6,382.4 L353.6,382.4 L353.6,382.4 L353.6,382.4 L353.6,382.4 L353.6,382.4 L353.6,382.4 L353.6,382.4 L353.6,382.4 L353.6,382.4 L353.6,382.4 L353.6,382.4 L353.6,382.4 L353.6,382.4 L353.6,382.4 L353.6,382.4 L353.6,382.4 L353.6,382.4 L353.6,382.4 L353.6,382.4 L353.6,382.4 L353.6,382.4 L353.6,382.4 L353.6,382.4 L353.6,382.4 L353.6,382.4 L353.6,382.4 L353.6,382.4 L353.6,382.4 L353.6,382.4 L353.6,382.4 L353.6,382.4 L353.6,382.4 L353.6,382.4 L353.6,382.4 L353.6,382.4 L353.6,382.4 L353.6,382.4 L353.6,382.4 L353.6,382.4 L353.6,382.4 L353.6,382.4 L353.6,382.4 L353.6,382.4 L353.6,382.4 L353.6,382.4 L353.6,382.4 L353.6,382.4 L353.8,381.9 L354.1,381.6 L354.6,381.0 L355.1,380.7 L355.6,380.2 L356.4,379.9 L356.9,379.6 L358.0,379.6 L358.7,379.3 L359.8,379.3 L360.5,379.3 L361.8,379.3 L362.9,379.3 L363.9,379.3 L365.2,379.6 L366.5,379.6 L367.8,379.9 L369.1,380.2 L370.3,380.4 L371.6,380.7 L373.2,381.3 L374.5,381.6 L376.0,381.9 L377.3,382.4 L378.9,382.7 L380.4,383.3 L382.0,383.9 L383.5,384.5 L384.8,384.7 L386.3,385.3 L387.9,385.9 L389.4,386.5 L391.0,387.0 L392.5,387.6 L394.1,388.2 L395.6,388.5 L397.2,389.0 L398.7,389.6 L400.3,390.2 L401.8,390.7 L403.4,391.3 L404.9,391.6 L406.5,392.2 L407.7,392.5 L409.3,393.0 L410.8,393.6 L412.1,393.9 L413.7,394.2 L415.0,394.7 L416.5,395.0 L417.8,395.3 L419.3,395.9 L420.6,396.2 L421.9,396.5 L423.2,396.7 L424.8,397.0 L426.1,397.3 L427.3,397.6 L428.6,397.9 L429.9,397.9 L431.0,398.2 L432.2,398.5 L433.5,398.5 L434.6,398.7 L435.9,398.7 L436.9,398.7 L438.2,399.0 L439.2,399.0 L440.2,399.0 L441.5,399.0 L442.6,399.0 L443.6,399.0 L444.6,399.0 L445.7,399.0 L446.7,399.0 L447.5,399.0 L448.5,399.0 L449.5,398.7 L450.3,398.7 L451.3,398.5 L452.1,398.5 L452.9,398.2 L453.7,398.2 L454.7,397.9 L455.5,397.6 L456.2,397.6 L457.0,397.3 L457.8,397.0 L458.6,396.7 L459.1,396.5 L459.8,396.2 L460.6,395.9 L461.1,395.6 L461.9,395.3 L462.4,395.0 L463.2,394.7 L463.7,394.2 L464.2,393.9 L464.7,393.6 L465.3,393.0 L465.8,392.7 L466.3,392.2 L466.8,391.9 L467.3,391.3 L467.6,391.0 L468.1,390.5 L468.6,390.2 L468.9,389.6 L469.4,389.0 L469.6,388.5 L470.2,388.2 L470.4,387.6 L470.7,387.0 L471.2,386.5 L471.5,385.9 L471.7,385.6 L472.0,385.0 L472.2,384.5 L472.5,383.9 L472.7,383.3 L473.0,382.7 L473.3,382.2 L473.5,381.6 L473.8,381.0 L474.0,380.4 L474.0,379.9 L474.3,379.3 L474.5,378.4 L474.8,377.9 L475.1,377.3 L475.1,376.7 L475.3,376.2 L475.6,375.6 L475.6,375.0 L475.8,374.4 L476.1,373.9 L476.4,373.3 L476.4,372.4 L476.6,371.9 L476.9,371.3 L477.1,370.7 L477.1,370.2 L477.4,369.6 L477.6,369.0 L477.9,368.4 L477.9,367.9 L478.2,367.3 L478.4,366.7 L478.7,366.2 L478.9,365.3 L478.9,364.7 L479.2,364.2 L479.4,363.6 L479.7,363.0 L480.0,362.4 L480.2,361.9 L480.5,361.3 L480.7,360.7 L481.0,360.2 L481.3,359.6 L481.5,359.0 L481.5,358.4 L481.8,357.9 L482.0,357.3 L482.3,356.7 L482.5,356.2 L482.8,355.6 L483.1,355.0 L483.3,354.4 L483.6,354.2 L483.8,353.6 L484.1,353.0 L484.3,352.4 L484.6,351.9 L484.9,351.3 L485.1,350.7 L485.6,350.2 L485.9,349.6 L486.2,349.0 L486.4,348.4 L486.7,347.9 L486.9,347.3 L487.2,346.7 L487.4,346.2 L487.7,345.6 L488.0,345.3 L488.5,344.7 L488.7,344.2 L489.0,343.6 L489.2,343.0 L489.5,342.4 L489.8,341.9 L490.3,341.3 L490.5,341.0 L490.8,340.4 L491.1,339.9 L491.6,339.3 L491.8,338.7 L492.1,338.2 L492.3,337.9 L492.9,337.3 L493.1,336.7 L493.4,336.2 L493.6,335.6 L493.9,335.0 L494.4,334.4 L494.7,334.1 L494.9,333.6 L495.2,333.0 L495.4,332.4 L496.0,331.9 L496.2,331.3 L496.5,330.7 L496.7,330.1 L497.0,329.9 L497.5,329.3 L497.5,328.7 L497.8,328.4 L498.0,327.9 L498.3,327.3 L498.5,327.0 L498.8,326.4 L499.0,326.1 L499.3,325.6 L499.6,325.3 L499.8,324.7 L500.1,324.4 L500.3,323.9 L500.6,323.6 L500.9,323.0 L501.1,322.4 L501.1,321.9 L501.1,321.3 L501.1,320.7 L501.1,320.1 L500.9,319.6 L500.6,318.7 L500.3,318.1 L500.1,317.3 L499.6,316.7 L499.0,315.9 L498.3,315.0 L497.8,314.1 L496.7,313.3 L496.0,312.4 L494.9,311.6 L493.9,310.7 L492.9,309.9 L491.6,309.0 L490.3,307.9 L489.0,307.0 L487.4,306.1 L485.9,305.3 L484.3,304.1 L482.5,303.3 L480.7,302.4 L478.9,301.6 L477.1,300.7 L475.1,299.9 L473.0,298.7 L470.7,297.9 L468.4,297.0 L466.0,296.4 L463.7,295.6 L461.1,294.7 L458.8,293.9 L456.0,293.3 L453.4,292.4 L450.6,291.6 L447.7,291.0 L444.9,290.4 L441.8,289.9 L438.7,289.3 L435.6,288.7 L432.5,288.1 L429.2,287.6 L425.8,287.0 L422.4,286.7 L419.1,286.4 L415.5,286.1 L411.9,285.9 L408.3,285.6 L404.6,285.3 L400.8,285.0 L396.9,285.0 L393.0,285.0 L389.2,285.0 L385.3,285.0 L381.2,285.0 L377.0,285.0 L372.9,285.3 L368.8,285.6 L364.7,285.6 L360.5,285.9 L356.2,286.1 L352.0,286.7 L347.6,287.0 L343.3,287.3 L338.9,287.9 L334.5,288.1 L330.1,288.7 L325.7,289.3 L321.3,289.6 L317.0,290.1 L312.6,290.7 L307.9,291.3 L303.5,291.9 L299.2,292.4 L294.8,293.0 L290.1,293.6 L285.7,294.1 L281.4,294.7 L277.0,295.0 L272.6,295.6 L268.2,295.9 L264.1,296.4 L259.7,296.7 L255.3,297.3" fill="none" stroke="#1f77b4" stroke-width="1.7" opacity="0.85"/><circle cx="255" cy="297" r="4.5" fill="#1f77b4"/><text x="28" y="572" font-size="11" fill="#888">ground track — m from pad (N up)</text><rect x="580" y="40" width="540" height="540" fill="#fbfbfb" stroke="#ddd"/><text x="586" y="54" fill="#1f77b4" font-size="11">alt 301</text><text x="586" y="558" fill="#1f77b4" font-size="11">2</text><path d="M616.0,543.3 L616.2,543.5 L616.4,544.0 L616.7,543.5 L616.9,544.0 L617.1,543.1 L617.3,543.3 L617.6,543.5 L617.8,543.5 L618.0,542.8 L618.2,543.1 L618.4,542.7 L618.7,542.8 L618.9,542.7 L619.1,542.3 L619.3,541.4 L619.5,542.0 L619.8,541.2 L620.0,542.0 L620.2,541.0 L620.4,541.0 L620.7,540.2 L620.9,540.5 L621.1,539.6 L621.3,540.1 L621.5,538.3 L621.8,538.2 L622.0,537.7 L622.2,537.7 L622.4,538.4 L622.6,537.0 L622.9,536.8 L623.1,536.3 L623.3,534.5 L623.5,534.7 L623.8,533.5 L624.0,533.4 L624.2,533.3 L624.4,533.1 L624.6,533.5 L624.9,532.8 L625.1,529.5 L625.3,531.7 L625.5,530.4 L625.7,530.2 L626.0,529.8 L626.2,527.0 L626.4,525.7 L626.6,525.7 L626.9,523.7 L627.1,524.6 L627.3,524.6 L627.5,525.4 L627.7,522.2 L628.0,519.9 L628.2,519.8 L628.4,518.7 L628.6,520.6 L628.8,518.6 L629.1,519.9 L629.3,514.6 L629.5,513.9 L629.7,515.3 L630.0,515.6 L630.2,515.3 L630.4,514.7 L630.6,511.2 L630.8,508.4 L631.1,510.2 L631.3,505.2 L631.5,510.6 L631.7,509.2 L631.9,508.7 L632.2,501.5 L632.4,499.9 L632.6,503.3 L632.8,499.1 L633.1,497.8 L633.3,503.3 L633.5,497.0 L633.7,495.2 L633.9,497.9 L634.2,488.9 L634.4,490.7 L634.6,493.8 L634.8,494.7 L635.0,489.2 L635.3,483.6 L635.5,481.3 L635.7,488.9 L635.9,485.1 L636.2,487.5 L636.4,484.3 L636.6,479.6 L636.8,482.3 L637.0,481.2 L637.3,470.3 L637.5,475.6 L637.7,469.5 L637.9,479.5 L638.1,475.0 L638.4,470.1 L638.6,464.3 L638.8,458.1 L639.0,463.8 L639.3,460.0 L639.5,456.4 L639.7,457.2 L639.9,450.0 L640.1,463.3 L640.4,456.8 L640.6,449.5 L640.8,460.5 L641.0,450.0 L641.2,449.4 L641.5,450.8 L641.7,444.2 L641.9,445.2 L642.1,446.2 L642.4,437.2 L642.6,444.6 L642.8,429.4 L643.0,440.0 L643.2,439.0 L643.5,442.3 L643.7,440.5 L643.9,424.1 L644.1,429.1 L644.4,431.1 L644.6,425.3 L644.8,416.9 L645.0,413.7 L645.2,418.0 L645.5,404.5 L645.7,423.6 L645.9,403.8 L646.1,403.7 L646.3,399.9 L646.6,420.3 L646.8,394.0 L647.0,407.8 L647.2,396.4 L647.5,399.8 L647.7,394.5 L647.9,401.3 L648.1,402.3 L648.3,398.3 L648.6,380.4 L648.8,390.3 L649.0,401.6 L649.2,391.7 L649.4,383.9 L649.7,378.4 L649.9,380.7 L650.1,385.7 L650.3,378.5 L650.6,357.1 L650.8,375.8 L651.0,349.8 L651.2,368.9 L651.4,377.2 L651.7,372.2 L651.9,341.8 L652.1,374.8 L652.3,360.1 L652.5,354.1 L652.8,361.8 L653.0,338.5 L653.2,349.3 L653.4,350.3 L653.7,361.5 L653.9,341.7 L654.1,355.6 L654.3,329.1 L654.5,323.8 L654.8,317.3 L655.0,339.2 L655.2,344.8 L655.4,337.3 L655.6,323.5 L655.9,323.6 L656.1,336.1 L656.3,321.9 L656.5,294.9 L656.8,289.7 L657.0,309.6 L657.2,290.5 L657.4,314.3 L657.6,303.9 L657.9,277.3 L658.1,313.3 L658.3,275.0 L658.5,300.3 L658.7,288.4 L659.0,302.4 L659.2,280.8 L659.4,309.7 L659.6,281.4 L659.9,278.8 L660.1,262.8 L660.3,271.8 L660.5,279.4 L660.7,293.2 L661.0,276.2 L661.2,280.1 L661.4,295.4 L661.6,248.3 L661.8,270.3 L662.1,248.5 L662.3,250.3 L662.5,272.1 L662.7,236.9 L663.0,261.5 L663.2,244.7 L663.4,241.1 L663.6,232.9 L663.8,226.4 L664.1,229.7 L664.3,237.8 L664.5,259.3 L664.7,257.5 L664.9,263.5 L665.2,258.8 L665.4,227.7 L665.6,222.8 L665.8,247.6 L666.1,222.6 L666.3,253.3 L666.5,203.0 L666.7,251.8 L666.9,195.0 L667.2,208.7 L667.4,195.0 L667.6,239.2 L667.8,247.1 L668.0,233.2 L668.3,236.2 L668.5,243.6 L668.7,214.3 L668.9,196.0 L669.2,198.6 L669.4,227.7 L669.6,184.6 L669.8,210.0 L670.0,215.3 L670.3,169.8 L670.5,165.7 L670.7,192.7 L670.9,185.8 L671.2,223.7 L671.4,198.8 L671.6,172.1 L671.8,173.5 L672.0,196.9 L672.3,151.7 L672.5,187.6 L672.7,147.9 L672.9,198.8 L673.1,173.7 L673.4,190.7 L673.6,199.6 L673.8,180.9 L674.0,193.9 L674.3,200.7 L674.5,186.2 L674.7,171.8 L674.9,181.2 L675.1,182.3 L675.4,165.9 L675.6,135.4 L675.8,165.9 L676.0,188.2 L676.2,179.4 L676.5,133.4 L676.7,179.9 L676.9,178.5 L677.1,137.4 L677.4,151.3 L677.6,114.8 L677.8,177.0 L678.0,124.1 L678.2,182.2 L678.5,109.8 L678.7,140.1 L678.9,182.9 L679.1,141.2 L679.3,123.7 L679.6,119.0 L679.8,178.2 L680.0,174.5 L680.2,95.4 L680.5,127.9 L680.7,121.3 L680.9,167.1 L681.1,137.6 L681.3,137.8 L681.6,101.3 L681.8,121.8 L682.0,160.5 L682.2,145.0 L682.4,132.9 L682.7,108.8 L682.9,115.7 L683.1,135.9 L683.3,116.4 L683.6,88.1 L683.8,134.3 L684.0,137.5 L684.2,98.4 L684.4,112.5 L684.7,108.9 L684.9,128.3 L685.1,127.0 L685.3,138.9 L685.5,139.4 L685.8,99.1 L686.0,155.3 L686.2,105.4 L686.4,97.1 L686.7,140.8 L686.9,95.4 L687.1,137.5 L687.3,130.1 L687.5,100.2 L687.8,76.0 L688.0,86.7 L688.2,101.6 L688.4,139.6 L688.6,133.3 L688.9,82.6 L689.1,100.6 L689.3,111.5 L689.5,87.4 L689.8,120.0 L690.0,76.3 L690.2,94.0 L690.4,95.2 L690.6,120.6 L690.9,95.4 L691.1,149.6 L691.3,122.2 L691.5,133.4 L691.7,135.2 L692.0,134.6 L692.2,158.8 L692.4,110.2 L692.6,144.6 L692.9,103.6 L693.1,112.8 L693.3,99.5 L693.5,102.0 L693.7,85.2 L694.0,112.1 L694.2,114.1 L694.4,159.1 L694.6,115.1 L694.8,78.4 L695.1,140.1 L695.3,158.8 L695.5,118.1 L695.7,113.9 L696.0,131.5 L696.2,98.6 L696.4,150.5 L696.6,122.5 L696.8,100.1 L697.1,145.0 L697.3,128.0 L697.5,102.0 L697.7,149.5 L697.9,117.1 L698.2,96.1 L698.4,134.2 L698.6,115.1 L698.8,128.5 L699.1,136.2 L699.3,101.7 L699.5,122.8 L699.7,100.7 L699.9,99.2 L700.2,141.6 L700.4,85.8 L700.6,123.3 L700.8,149.0 L701.1,153.3 L701.3,136.3 L701.5,114.4 L701.7,161.8 L701.9,132.3 L702.2,111.8 L702.4,125.0 L702.6,128.3 L702.8,103.4 L703.0,83.5 L703.3,111.5 L703.5,104.6 L703.7,137.9 L703.9,151.8 L704.2,132.6 L704.4,85.6 L704.6,93.5 L704.8,86.3 L705.0,106.8 L705.3,125.9 L705.5,85.3 L705.7,129.9 L705.9,138.6 L706.1,141.5 L706.4,89.5 L706.6,123.0 L706.8,159.6 L707.0,114.6 L707.3,99.0 L707.5,151.9 L707.7,92.2 L707.9,116.5 L708.1,120.6 L708.4,130.8 L708.6,85.0 L708.8,120.4 L709.0,101.7 L709.2,105.4 L709.5,95.6 L709.7,141.5 L709.9,113.0 L710.1,130.8 L710.4,132.3 L710.6,121.3 L710.8,124.4 L711.0,94.8 L711.2,164.4 L711.5,160.1 L711.7,146.9 L711.9,104.9 L712.1,161.3 L712.3,87.1 L712.6,145.9 L712.8,127.6 L713.0,142.5 L713.2,114.7 L713.5,139.5 L713.7,113.3 L713.9,120.5 L714.1,94.2 L714.3,112.0 L714.6,104.4 L714.8,165.3 L715.0,157.6 L715.2,157.2 L715.4,157.4 L715.7,87.4 L715.9,161.3 L716.1,107.2 L716.3,103.8 L716.6,133.1 L716.8,144.6 L717.0,141.5 L717.2,89.5 L717.4,137.0 L717.7,144.8 L717.9,90.8 L718.1,94.8 L718.3,149.4 L718.5,142.1 L718.8,117.1 L719.0,97.9 L719.2,147.7 L719.4,145.0 L719.7,116.2 L719.9,126.9 L720.1,99.5 L720.3,127.4 L720.5,103.2 L720.8,114.9 L721.0,89.2 L721.2,153.6 L721.4,98.7 L721.6,95.2 L721.9,93.3 L722.1,145.7 L722.3,152.8 L722.5,127.2 L722.8,155.0 L723.0,112.6 L723.2,139.2 L723.4,163.1 L723.6,96.1 L723.9,89.9 L724.1,106.0 L724.3,145.6 L724.5,126.2 L724.7,110.7 L725.0,101.3 L725.2,120.0 L725.4,133.2 L725.6,138.5 L725.9,133.7 L726.1,92.9 L726.3,150.2 L726.5,172.4 L726.7,141.3 L727.0,163.0 L727.2,116.5 L727.4,98.2 L727.6,157.8 L727.9,148.3 L728.1,139.0 L728.3,132.9 L728.5,108.9 L728.7,107.2 L729.0,92.6 L729.2,147.5 L729.4,106.7 L729.6,129.0 L729.8,93.9 L730.1,123.0 L730.3,145.1 L730.5,106.8 L730.7,160.0 L731.0,127.1 L731.2,101.2 L731.4,173.6 L731.6,121.3 L731.8,137.4 L732.1,106.3 L732.3,126.2 L732.5,95.8 L732.7,163.8 L732.9,147.3 L733.2,98.0 L733.4,175.2 L733.6,157.8 L733.8,108.0 L734.1,98.3 L734.3,158.1 L734.5,153.2 L734.7,166.5 L734.9,157.2 L735.2,173.5 L735.4,113.1 L735.6,159.5 L735.8,151.8 L736.0,123.6 L736.3,162.2 L736.5,159.7 L736.7,162.3 L736.9,119.3 L737.2,177.4 L737.4,178.3 L737.6,110.2 L737.8,151.0 L738.0,100.3 L738.3,164.1 L738.5,159.9 L738.7,148.8 L738.9,143.3 L739.1,106.1 L739.4,165.5 L739.6,174.4 L739.8,142.5 L740.0,119.5 L740.3,176.4 L740.5,166.6 L740.7,179.9 L740.9,163.5 L741.1,101.1 L741.4,163.4 L741.6,136.2 L741.8,155.4 L742.0,156.3 L742.2,137.9 L742.5,125.8 L742.7,148.8 L742.9,167.0 L743.1,116.3 L743.4,153.6 L743.6,160.2 L743.8,119.8 L744.0,134.2 L744.2,176.1 L744.5,126.8 L744.7,147.2 L744.9,162.5 L745.1,165.6 L745.3,130.5 L745.6,147.4 L745.8,163.0 L746.0,140.3 L746.2,162.4 L746.5,169.5 L746.7,177.5 L746.9,135.1 L747.1,178.9 L747.3,120.3 L747.6,177.3 L747.8,155.5 L748.0,175.3 L748.2,120.3 L748.4,121.8 L748.7,156.7 L748.9,139.0 L749.1,140.6 L749.3,175.7 L749.6,178.1 L749.8,182.0 L750.0,174.3 L750.2,137.0 L750.4,166.4 L750.7,130.0 L750.9,149.1 L751.1,112.5 L751.3,130.4 L751.5,147.5 L751.8,148.5 L752.0,139.9 L752.2,174.0 L752.4,111.0 L752.7,172.8 L752.9,116.2 L753.1,182.7 L753.3,158.5 L753.5,177.1 L753.8,134.5 L754.0,142.1 L754.2,127.6 L754.4,136.3 L754.7,153.8 L754.9,165.3 L755.1,171.1 L755.3,154.2 L755.5,150.0 L755.8,121.2 L756.0,138.2 L756.2,158.6 L756.4,142.8 L756.6,169.3 L756.9,152.6 L757.1,145.8 L757.3,118.9 L757.5,176.2 L757.8,118.3 L758.0,131.8 L758.2,114.4 L758.4,136.2 L758.6,171.1 L758.9,132.0 L759.1,161.8 L759.3,189.0 L759.5,121.8 L759.7,181.7 L760.0,184.0 L760.2,125.4 L760.4,171.7 L760.6,162.3 L760.9,180.3 L761.1,179.8 L761.3,145.3 L761.5,119.4 L761.7,147.7 L762.0,165.6 L762.2,162.9 L762.4,175.5 L762.6,176.4 L762.8,145.8 L763.1,140.8 L763.3,132.7 L763.5,123.1 L763.7,170.8 L764.0,125.5 L764.2,154.1 L764.4,140.6 L764.6,159.5 L764.8,161.5 L765.1,195.0 L765.3,145.1 L765.5,171.6 L765.7,119.5 L765.9,137.8 L766.2,176.8 L766.4,174.9 L766.6,142.7 L766.8,194.2 L767.1,129.1 L767.3,174.7 L767.5,183.2 L767.7,192.9 L767.9,139.1 L768.2,197.0 L768.4,167.3 L768.6,189.4 L768.8,155.1 L769.0,180.0 L769.3,162.6 L769.5,165.4 L769.7,194.7 L769.9,160.6 L770.2,190.9 L770.4,169.2 L770.6,183.2 L770.8,156.5 L771.0,186.2 L771.3,142.0 L771.5,176.8 L771.7,163.5 L771.9,149.1 L772.1,197.2 L772.4,140.8 L772.6,150.2 L772.8,158.6 L773.0,181.5 L773.3,139.4 L773.5,152.0 L773.7,171.4 L773.9,177.1 L774.1,169.6 L774.4,188.4 L774.6,176.4 L774.8,128.0 L775.0,196.6 L775.2,160.4 L775.5,135.0 L775.7,140.9 L775.9,196.9 L776.1,141.5 L776.4,201.0 L776.6,146.8 L776.8,133.2 L777.0,177.9 L777.2,146.9 L777.5,201.8 L777.7,172.9 L777.9,155.0 L778.1,190.2 L778.3,197.3 L778.6,164.8 L778.8,194.9 L779.0,150.0 L779.2,172.2 L779.5,143.5 L779.7,169.5 L779.9,204.3 L780.1,171.5 L780.3,137.7 L780.6,178.8 L780.8,145.1 L781.0,190.4 L781.2,183.9 L781.5,179.7 L781.7,185.2 L781.9,195.7 L782.1,152.3 L782.3,141.6 L782.6,135.3 L782.8,209.0 L783.0,144.4 L783.2,182.8 L783.4,170.7 L783.7,158.6 L783.9,195.4 L784.1,171.8 L784.3,185.7 L784.6,209.7 L784.8,157.7 L785.0,197.6 L785.2,188.1 L785.4,196.0 L785.7,169.4 L785.9,202.4 L786.1,180.5 L786.3,143.3 L786.5,157.8 L786.8,153.3 L787.0,150.0 L787.2,148.2 L787.4,164.5 L787.7,206.6 L787.9,173.1 L788.1,194.2 L788.3,153.2 L788.5,205.6 L788.8,144.3 L789.0,147.2 L789.2,148.0 L789.4,144.3 L789.6,204.9 L789.9,186.9 L790.1,153.3 L790.3,152.1 L790.5,207.4 L790.8,176.2 L791.0,193.0 L791.2,182.5 L791.4,156.0 L791.6,156.7 L791.9,182.3 L792.1,171.1 L792.3,150.3 L792.5,193.5 L792.7,215.0 L793.0,157.7 L793.2,146.3 L793.4,206.7 L793.6,209.2 L793.9,207.6 L794.1,204.3 L794.3,157.3 L794.5,156.6 L794.7,176.9 L795.0,178.9 L795.2,210.7 L795.4,195.7 L795.6,192.2 L795.8,172.8 L796.1,210.3 L796.3,161.7 L796.5,201.3 L796.7,188.3 L797.0,192.0 L797.2,193.6 L797.4,174.9 L797.6,162.2 L797.8,153.9 L798.1,163.1 L798.3,162.8 L798.5,149.6 L798.7,160.8 L798.9,185.5 L799.2,218.2 L799.4,182.1 L799.6,175.6 L799.8,151.5 L800.1,195.4 L800.3,195.5 L800.5,167.5 L800.7,193.3 L800.9,164.2 L801.2,166.3 L801.4,217.6 L801.6,182.0 L801.8,212.7 L802.0,172.9 L802.3,205.8 L802.5,156.3 L802.7,194.3 L802.9,184.7 L803.2,165.0 L803.4,209.7 L803.6,162.3 L803.8,213.3 L804.0,183.5 L804.3,204.2 L804.5,207.5 L804.7,218.0 L804.9,178.7 L805.1,190.0 L805.4,171.7 L805.6,212.1 L805.8,178.8 L806.0,174.7 L806.3,199.8 L806.5,212.4 L806.7,189.0 L806.9,207.9 L807.1,211.7 L807.4,214.7 L807.6,174.7 L807.8,207.3 L808.0,217.3 L808.2,199.4 L808.5,227.8 L808.7,220.6 L808.9,197.5 L809.1,229.9 L809.4,213.0 L809.6,225.9 L809.8,184.0 L810.0,161.5 L810.2,181.7 L810.5,171.5 L810.7,211.8 L810.9,176.7 L811.1,186.6 L811.4,230.6 L811.6,194.5 L811.8,231.1 L812.0,222.8 L812.2,176.3 L812.5,199.4 L812.7,204.2 L812.9,196.4 L813.1,183.8 L813.3,224.4 L813.6,179.2 L813.8,230.2 L814.0,229.2 L814.2,226.6 L814.5,178.8 L814.7,222.6 L814.9,176.0 L815.1,232.6 L815.3,197.1 L815.6,176.6 L815.8,166.9 L816.0,188.8 L816.2,175.3 L816.4,230.4 L816.7,209.0 L816.9,207.3 L817.1,236.3 L817.3,226.7 L817.6,201.4 L817.8,229.0 L818.0,201.3 L818.2,181.5 L818.4,228.4 L818.7,233.2 L818.9,204.6 L819.1,211.8 L819.3,178.5 L819.5,229.7 L819.8,206.4 L820.0,194.5 L820.2,193.0 L820.4,239.7 L820.7,205.6 L820.9,200.4 L821.1,211.1 L821.3,190.6 L821.5,236.9 L821.8,225.1 L822.0,232.0 L822.2,235.1 L822.4,179.8 L822.6,194.2 L822.9,202.7 L823.1,233.3 L823.3,228.1 L823.5,180.3 L823.8,196.3 L824.0,227.7 L824.2,222.7 L824.4,201.4 L824.6,225.3 L824.9,182.7 L825.1,193.0 L825.3,236.8 L825.5,214.1 L825.7,219.4 L826.0,177.9 L826.2,212.3 L826.4,193.6 L826.6,180.2 L826.9,188.0 L827.1,201.2 L827.3,233.1 L827.5,205.0 L827.7,191.2 L828.0,234.7 L828.2,197.2 L828.4,240.4 L828.6,190.3 L828.8,194.4 L829.1,191.5 L829.3,230.3 L829.5,232.8 L829.7,213.6 L830.0,201.6 L830.2,229.1 L830.4,202.0 L830.6,239.5 L830.8,197.7 L831.1,240.8 L831.3,190.4 L831.5,197.0 L831.7,197.8 L831.9,246.9 L832.2,194.7 L832.4,229.6 L832.6,222.1 L832.8,239.2 L833.1,241.9 L833.3,242.8 L833.5,204.8 L833.7,211.3 L833.9,196.0 L834.2,188.5 L834.4,250.9 L834.6,214.5 L834.8,203.5 L835.0,211.6 L835.3,189.0 L835.5,196.8 L835.7,231.8 L835.9,219.9 L836.2,252.4 L836.4,244.2 L836.6,240.1 L836.8,211.8 L837.0,231.6 L837.3,195.5 L837.5,231.8 L837.7,236.7 L837.9,192.6 L838.2,203.1 L838.4,202.3 L838.6,196.1 L838.8,251.0 L839.0,207.8 L839.3,214.0 L839.5,214.4 L839.7,239.8 L839.9,245.2 L840.1,227.6 L840.4,203.3 L840.6,244.3 L840.8,217.9 L841.0,200.9 L841.3,236.0 L841.5,234.1 L841.7,220.4 L841.9,205.0 L842.1,223.2 L842.4,246.0 L842.6,220.9 L842.8,237.7 L843.0,255.0 L843.2,242.4 L843.5,202.2 L843.7,220.6 L843.9,204.1 L844.1,214.5 L844.4,256.6 L844.6,235.7 L844.8,214.2 L845.0,250.4 L845.2,253.2 L845.5,203.6 L845.7,237.3 L845.9,205.8 L846.1,227.7 L846.3,224.5 L846.6,210.5 L846.8,228.9 L847.0,258.1 L847.2,234.6 L847.5,238.4 L847.7,254.1 L847.9,228.1 L848.1,235.1 L848.3,265.1 L848.6,232.2 L848.8,211.5 L849.0,207.5 L849.2,208.4 L849.4,215.4 L849.7,246.7 L849.9,227.0 L850.1,205.0 L850.3,248.8 L850.6,257.6 L850.8,232.4 L851.0,208.9 L851.2,216.0 L851.4,262.6 L851.7,207.9 L851.9,248.9 L852.1,267.9 L852.3,234.4 L852.5,250.0 L852.8,230.8 L853.0,228.5 L853.2,248.0 L853.4,238.7 L853.7,264.5 L853.9,229.2 L854.1,209.8 L854.3,227.1 L854.5,255.1 L854.8,228.7 L855.0,221.5 L855.2,265.7 L855.4,213.9 L855.6,266.3 L855.9,228.1 L856.1,247.7 L856.3,246.9 L856.5,238.1 L856.8,247.5 L857.0,258.7 L857.2,217.2 L857.4,269.4 L857.6,221.7 L857.9,224.2 L858.1,226.2 L858.3,215.4 L858.5,267.7 L858.7,233.4 L859.0,231.6 L859.2,256.9 L859.4,275.9 L859.6,248.1 L859.9,267.2 L860.1,274.2 L860.3,254.7 L860.5,246.6 L860.7,218.9 L861.0,255.4 L861.2,221.0 L861.4,272.8 L861.6,245.9 L861.8,271.8 L862.1,227.8 L862.3,278.5 L862.5,230.9 L862.7,237.2 L863.0,255.2 L863.2,228.3 L863.4,235.8 L863.6,261.9 L863.8,271.7 L864.1,259.8 L864.3,236.4 L864.5,226.8 L864.7,250.0 L865.0,247.6 L865.2,276.1 L865.4,266.8 L865.6,244.9 L865.8,231.9 L866.1,281.7 L866.3,263.4 L866.5,229.9 L866.7,277.4 L866.9,245.2 L867.2,273.5 L867.4,236.4 L867.6,231.1 L867.8,227.1 L868.1,274.5 L868.3,261.6 L868.5,254.0 L868.7,259.3 L868.9,265.5 L869.2,258.7 L869.4,259.6 L869.6,285.1 L869.8,243.3 L870.0,232.7 L870.3,246.0 L870.5,267.2 L870.7,266.8 L870.9,281.1 L871.2,261.5 L871.4,280.8 L871.6,284.3 L871.8,235.9 L872.0,269.2 L872.3,254.4 L872.5,239.5 L872.7,268.4 L872.9,275.1 L873.1,253.3 L873.4,254.5 L873.6,238.9 L873.8,282.4 L874.0,281.7 L874.3,236.5 L874.5,267.7 L874.7,243.1 L874.9,239.2 L875.1,285.9 L875.4,288.8 L875.6,247.7 L875.8,236.4 L876.0,282.8 L876.2,284.7 L876.5,267.0 L876.7,284.5 L876.9,255.7 L877.1,239.5 L877.4,278.4 L877.6,288.8 L877.8,281.7 L878.0,270.4 L878.2,293.2 L878.5,285.5 L878.7,246.5 L878.9,245.0 L879.1,270.4 L879.3,271.1 L879.6,278.3 L879.8,254.2 L880.0,248.4 L880.2,271.6 L880.5,275.5 L880.7,297.1 L880.9,279.2 L881.1,244.9 L881.3,286.3 L881.6,297.7 L881.8,288.0 L882.0,252.5 L882.2,271.4 L882.4,254.7 L882.7,264.1 L882.9,254.1 L883.1,291.0 L883.3,252.1 L883.6,261.3 L883.8,277.2 L884.0,274.7 L884.2,251.9 L884.4,263.8 L884.7,298.8 L884.9,248.8 L885.1,256.8 L885.3,272.6 L885.5,288.8 L885.8,295.8 L886.0,287.4 L886.2,279.8 L886.4,276.4 L886.7,276.5 L886.9,288.2 L887.1,266.9 L887.3,262.5 L887.5,268.1 L887.8,294.9 L888.0,294.6 L888.2,298.7 L888.4,269.5 L888.6,281.3 L888.9,255.3 L889.1,293.6 L889.3,278.2 L889.5,270.7 L889.8,276.4 L890.0,267.7 L890.2,293.9 L890.4,305.0 L890.6,268.0 L890.9,286.0 L891.1,259.0 L891.3,295.7 L891.5,300.4 L891.8,262.9 L892.0,272.2 L892.2,283.0 L892.4,309.3 L892.6,275.0 L892.9,299.7 L893.1,297.2 L893.3,306.9 L893.5,269.5 L893.7,308.2 L894.0,306.9 L894.2,276.5 L894.4,308.4 L894.6,290.5 L894.9,280.8 L895.1,264.1 L895.3,309.2 L895.5,270.1 L895.7,272.5 L896.0,295.8 L896.2,284.6 L896.4,288.5 L896.6,288.5 L896.8,289.4 L897.1,304.6 L897.3,271.7 L897.5,275.0 L897.7,298.6 L898.0,274.0 L898.2,288.2 L898.4,306.8 L898.6,296.9 L898.8,302.1 L899.1,267.8 L899.3,303.7 L899.5,306.9 L899.7,305.2 L899.9,277.2 L900.2,313.0 L900.4,308.0 L900.6,301.5 L900.8,316.5 L901.1,308.6 L901.3,304.4 L901.5,287.0 L901.7,313.2 L901.9,272.0 L902.2,281.9 L902.4,319.3 L902.6,290.8 L902.8,301.0 L903.0,273.4 L903.3,286.8 L903.5,298.1 L903.7,280.9 L903.9,289.0 L904.2,298.0 L904.4,309.3 L904.6,292.9 L904.8,308.3 L905.0,290.4 L905.3,296.0 L905.5,279.2 L905.7,294.9 L905.9,277.4 L906.1,310.0 L906.4,323.4 L906.6,299.7 L906.8,299.8 L907.0,292.5 L907.3,307.4 L907.5,316.1 L907.7,283.9 L907.9,281.8 L908.1,312.0 L908.4,301.6 L908.6,278.4 L908.8,312.5 L909.0,295.5 L909.2,307.2 L909.5,325.4 L909.7,323.5 L909.9,304.3 L910.1,324.4 L910.4,327.7 L910.6,289.5 L910.8,312.3 L911.0,315.3 L911.2,322.8 L911.5,293.1 L911.7,301.9 L911.9,301.1 L912.1,322.6 L912.3,325.6 L912.6,319.9 L912.8,304.6 L913.0,289.6 L913.2,326.8 L913.5,321.0 L913.7,311.1 L913.9,297.5 L914.1,324.6 L914.3,307.6 L914.6,287.8 L914.8,289.1 L915.0,292.3 L915.2,321.9 L915.4,291.9 L915.7,326.2 L915.9,291.1 L916.1,288.8 L916.3,323.8 L916.6,312.9 L916.8,292.9 L917.0,314.4 L917.2,298.6 L917.4,290.2 L917.7,325.8 L917.9,296.1 L918.1,335.8 L918.3,325.9 L918.5,314.9 L918.8,295.7 L919.0,313.8 L919.2,303.9 L919.4,311.3 L919.7,295.7 L919.9,338.7 L920.1,326.7 L920.3,303.2 L920.5,301.6 L920.8,331.6 L921.0,308.8 L921.2,298.6 L921.4,328.7 L921.7,329.9 L921.9,334.8 L922.1,320.0 L922.3,339.5 L922.5,314.4 L922.8,310.9 L923.0,311.8 L923.2,299.7 L923.4,342.5 L923.6,341.4 L923.9,328.1 L924.1,301.5 L924.3,330.6 L924.5,323.1 L924.8,326.5 L925.0,328.3 L925.2,318.1 L925.4,329.0 L925.6,339.5 L925.9,334.8 L926.1,334.8 L926.3,305.1 L926.5,340.6 L926.7,335.9 L927.0,315.1 L927.2,302.6 L927.4,310.8 L927.6,340.2 L927.9,309.8 L928.1,320.2 L928.3,338.8 L928.5,331.6 L928.7,310.5 L929.0,340.2 L929.2,336.1 L929.4,344.4 L929.6,344.6 L929.8,341.3 L930.1,350.4 L930.3,325.0 L930.5,332.1 L930.7,340.2 L931.0,323.4 L931.2,321.8 L931.4,312.6 L931.6,324.2 L931.8,320.9 L932.1,349.2 L932.3,349.4 L932.5,321.9 L932.7,314.1 L932.9,323.2 L933.2,321.7 L933.4,336.4 L933.6,349.7 L933.8,335.6 L934.1,342.8 L934.3,318.4 L934.5,336.8 L934.7,347.2 L934.9,313.1 L935.2,331.0 L935.4,316.9 L935.6,347.8 L935.8,355.0 L936.0,356.3 L936.3,327.0 L936.5,320.8 L936.7,339.9 L936.9,338.3 L937.2,316.3 L937.4,331.9 L937.6,335.4 L937.8,341.2 L938.0,329.4 L938.3,344.5 L938.5,330.2 L938.7,337.8 L938.9,345.2 L939.1,357.7 L939.4,328.9 L939.6,351.9 L939.8,359.9 L940.0,337.8 L940.3,357.8 L940.5,351.0 L940.7,342.8 L940.9,353.8 L941.1,360.3 L941.4,354.8 L941.6,328.4 L941.8,323.8 L942.0,341.4 L942.2,332.0 L942.5,338.5 L942.7,341.7 L942.9,335.6 L943.1,340.9 L943.4,344.7 L943.6,348.9 L943.8,349.8 L944.0,361.6 L944.2,332.2 L944.5,335.6 L944.7,349.6 L944.9,364.4 L945.1,353.1 L945.3,366.4 L945.6,355.1 L945.8,367.4 L946.0,339.5 L946.2,349.5 L946.5,355.0 L946.7,363.9 L946.9,347.6 L947.1,346.4 L947.3,335.0 L947.6,367.8 L947.8,364.7 L948.0,369.1 L948.2,349.3 L948.5,335.9 L948.7,332.1 L948.9,333.2 L949.1,342.1 L949.3,357.6 L949.6,368.3 L949.8,337.2 L950.0,365.8 L950.2,338.4 L950.4,350.3 L950.7,336.8 L950.9,359.1 L951.1,355.4 L951.3,348.5 L951.6,336.4 L951.8,354.9 L952.0,370.2 L952.2,361.5 L952.4,341.7 L952.7,375.8 L952.9,342.2 L953.1,354.1 L953.3,346.4 L953.5,350.7 L953.8,349.8 L954.0,347.1 L954.2,363.4 L954.4,358.0 L954.7,370.0 L954.9,370.2 L955.1,348.2 L955.3,369.5 L955.5,372.5 L955.8,375.9 L956.0,348.9 L956.2,345.7 L956.4,362.2 L956.6,379.7 L956.9,364.4 L957.1,349.2 L957.3,355.9 L957.5,368.6 L957.8,370.3 L958.0,372.3 L958.2,373.5 L958.4,356.6 L958.6,364.4 L958.9,378.4 L959.1,377.1 L959.3,348.4 L959.5,375.6 L959.7,367.1 L960.0,360.7 L960.2,352.7 L960.4,366.6 L960.6,368.6 L960.9,384.4 L961.1,357.8 L961.3,378.8 L961.5,355.5 L961.7,372.1 L962.0,372.8 L962.2,380.7 L962.4,384.2 L962.6,370.4 L962.8,354.7 L963.1,365.9 L963.3,381.7 L963.5,365.5 L963.7,362.0 L964.0,378.4 L964.2,383.4 L964.4,388.7 L964.6,380.5 L964.8,370.6 L965.1,371.1 L965.3,388.2 L965.5,377.8 L965.7,370.1 L965.9,362.8 L966.2,372.7 L966.4,370.4 L966.6,382.5 L966.8,376.8 L967.1,362.7 L967.3,383.7 L967.5,360.3 L967.7,391.2 L967.9,360.5 L968.2,363.1 L968.4,389.7 L968.6,383.5 L968.8,370.9 L969.0,378.2 L969.3,385.3 L969.5,392.5 L969.7,386.8 L969.9,378.9 L970.2,385.5 L970.4,365.7 L970.6,373.4 L970.8,364.9 L971.0,387.7 L971.3,388.0 L971.5,375.4 L971.7,367.9 L971.9,394.1 L972.1,365.9 L972.4,398.6 L972.6,398.5 L972.8,396.7 L973.0,396.2 L973.3,368.6 L973.5,390.2 L973.7,370.1 L973.9,385.4 L974.1,372.4 L974.4,395.6 L974.6,380.4 L974.8,374.4 L975.0,373.5 L975.3,398.0 L975.5,393.5 L975.7,374.4 L975.9,374.5 L976.1,385.9 L976.4,375.8 L976.6,398.8 L976.8,380.3 L977.0,383.0 L977.2,388.5 L977.5,392.9 L977.7,384.5 L977.9,399.2 L978.1,394.1 L978.4,390.7 L978.6,401.7 L978.8,386.8 L979.0,388.4 L979.2,379.0 L979.5,383.2 L979.7,406.1 L979.9,384.7 L980.1,377.8 L980.3,389.0 L980.6,387.4 L980.8,401.1 L981.0,386.4 L981.2,391.7 L981.5,390.1 L981.7,401.7 L981.9,410.0 L982.1,405.1 L982.3,410.0 L982.6,390.0 L982.8,394.4 L983.0,397.5 L983.2,400.3 L983.4,391.4 L983.7,390.1 L983.9,407.8 L984.1,393.7 L984.3,411.2 L984.6,402.6 L984.8,398.5 L985.0,406.2 L985.2,393.8 L985.4,385.5 L985.7,408.4 L985.9,401.3 L986.1,388.4 L986.3,394.8 L986.5,393.7 L986.8,412.4 L987.0,401.6 L987.2,395.8 L987.4,412.7 L987.7,392.7 L987.9,402.1 L988.1,415.9 L988.3,401.9 L988.5,409.0 L988.8,396.3 L989.0,413.0 L989.2,415.5 L989.4,394.9 L989.6,413.4 L989.9,398.7 L990.1,399.1 L990.3,402.7 L990.5,411.3 L990.8,412.0 L991.0,409.6 L991.2,412.9 L991.4,398.3 L991.6,408.7 L991.9,410.2 L992.1,416.9 L992.3,414.7 L992.5,414.7 L992.7,412.9 L993.0,408.8 L993.2,397.0 L993.4,410.4 L993.6,410.2 L993.9,417.8 L994.1,423.0 L994.3,403.2 L994.5,412.1 L994.7,401.1 L995.0,401.7 L995.2,412.6 L995.4,403.8 L995.6,418.7 L995.8,413.0 L996.1,405.9 L996.3,403.0 L996.5,410.4 L996.7,407.6 L997.0,406.3 L997.2,403.6 L997.4,404.5 L997.6,425.9 L997.8,428.8 L998.1,424.4 L998.3,409.1 L998.5,413.8 L998.7,423.5 L998.9,410.6 L999.2,418.3 L999.4,424.9 L999.6,412.1 L999.8,420.7 L1000.1,412.4 L1000.3,413.9 L1000.5,408.0 L1000.7,413.3 L1000.9,426.1 L1001.2,427.2 L1001.4,423.8 L1001.6,421.0 L1001.8,425.7 L1002.1,409.1 L1002.3,428.4 L1002.5,415.5 L1002.7,424.6 L1002.9,416.0 L1003.2,431.3 L1003.4,424.7 L1003.6,425.6 L1003.8,435.5 L1004.0,423.2 L1004.3,418.8 L1004.5,420.7 L1004.7,432.9 L1004.9,422.5 L1005.2,423.4 L1005.4,436.6 L1005.6,436.5 L1005.8,431.4 L1006.0,421.8 L1006.3,421.1 L1006.5,421.3 L1006.7,429.4 L1006.9,432.7 L1007.1,419.1 L1007.4,418.8 L1007.6,427.5 L1007.8,441.5 L1008.0,432.0 L1008.3,441.4 L1008.5,442.1 L1008.7,438.6 L1008.9,440.9 L1009.1,425.4 L1009.4,440.8 L1009.6,433.1 L1009.8,424.9 L1010.0,432.7 L1010.2,431.5 L1010.5,428.6 L1010.7,440.7 L1010.9,440.7 L1011.1,437.9 L1011.4,425.8 L1011.6,433.0 L1011.8,444.0 L1012.0,432.7 L1012.2,445.0 L1012.5,429.1 L1012.7,442.6 L1012.9,447.7 L1013.1,436.8 L1013.3,437.8 L1013.6,443.0 L1013.8,449.0 L1014.0,438.5 L1014.2,431.1 L1014.5,429.5 L1014.7,437.1 L1014.9,444.2 L1015.1,433.9 L1015.3,432.6 L1015.6,431.6 L1015.8,441.5 L1016.0,438.6 L1016.2,450.3 L1016.4,436.5 L1016.7,437.9 L1016.9,447.1 L1017.1,444.6 L1017.3,439.7 L1017.6,435.1 L1017.8,452.5 L1018.0,454.3 L1018.2,442.6 L1018.4,453.2 L1018.7,443.3 L1018.9,451.3 L1019.1,443.8 L1019.3,445.8 L1019.5,439.5 L1019.8,437.8 L1020.0,441.1 L1020.2,450.5 L1020.4,449.2 L1020.7,452.3 L1020.9,446.8 L1021.1,453.2 L1021.3,440.7 L1021.5,447.3 L1021.8,449.7 L1022.0,444.7 L1022.2,450.8 L1022.4,460.3 L1022.6,456.2 L1022.9,460.2 L1023.1,445.4 L1023.3,460.5 L1023.5,460.9 L1023.8,452.4 L1024.0,456.1 L1024.2,445.7 L1024.4,447.2 L1024.6,453.5 L1024.9,446.3 L1025.1,452.4 L1025.3,454.9 L1025.5,463.7 L1025.7,462.1 L1026.0,462.0 L1026.2,464.6 L1026.4,459.0 L1026.6,461.7 L1026.9,457.4 L1027.1,464.1 L1027.3,464.5 L1027.5,454.0 L1027.7,454.9 L1028.0,455.0 L1028.2,458.4 L1028.4,459.7 L1028.6,457.4 L1028.8,467.2 L1029.1,465.1 L1029.3,459.7 L1029.5,463.3 L1029.7,470.0 L1030.0,453.4 L1030.2,469.6 L1030.4,466.8 L1030.6,463.9 L1030.8,454.8 L1031.1,462.1 L1031.3,471.7 L1031.5,466.3 L1031.7,467.6 L1032.0,459.2 L1032.2,471.9 L1032.4,461.0 L1032.6,472.7 L1032.8,465.2 L1033.1,466.9 L1033.3,471.1 L1033.5,470.6 L1033.7,471.4 L1033.9,459.8 L1034.2,466.7 L1034.4,469.1 L1034.6,461.8 L1034.8,466.2 L1035.1,468.2 L1035.3,476.7 L1035.5,465.3 L1035.7,466.1 L1035.9,463.9 L1036.2,465.4 L1036.4,464.6 L1036.6,477.0 L1036.8,475.1 L1037.0,478.2 L1037.3,466.0 L1037.5,472.9 L1037.7,468.4 L1037.9,469.7 L1038.2,472.3 L1038.4,480.6 L1038.6,478.2 L1038.8,472.6 L1039.0,480.0 L1039.3,471.0 L1039.5,475.1 L1039.7,481.8 L1039.9,474.7 L1040.1,473.9 L1040.4,474.8 L1040.6,471.6 L1040.8,484.9 L1041.0,477.1 L1041.3,480.5 L1041.5,481.7 L1041.7,483.2 L1041.9,476.6 L1042.1,486.3 L1042.4,474.8 L1042.6,476.1 L1042.8,484.9 L1043.0,481.9 L1043.2,485.0 L1043.5,487.9 L1043.7,485.1 L1043.9,486.7 L1044.1,480.8 L1044.4,478.7 L1044.6,483.0 L1044.8,489.2 L1045.0,486.1 L1045.2,481.2 L1045.5,482.6 L1045.7,479.7 L1045.9,486.9 L1046.1,484.6 L1046.3,483.2 L1046.6,490.5 L1046.8,492.8 L1047.0,490.3 L1047.2,490.0 L1047.5,483.2 L1047.7,486.5 L1047.9,492.6 L1048.1,494.6 L1048.3,484.3 L1048.6,495.6 L1048.8,485.4 L1049.0,487.3 L1049.2,493.5 L1049.4,493.2 L1049.7,487.3 L1049.9,492.5 L1050.1,494.6 L1050.3,495.8 L1050.6,497.3 L1050.8,490.3 L1051.0,491.6 L1051.2,495.8 L1051.4,493.9 L1051.7,494.6 L1051.9,494.2 L1052.1,497.1 L1052.3,493.6 L1052.5,492.2 L1052.8,497.3 L1053.0,500.0 L1053.2,501.0 L1053.4,501.4 L1053.7,496.8 L1053.9,500.9 L1054.1,494.2 L1054.3,503.6 L1054.5,503.0 L1054.8,495.4 L1055.0,498.9 L1055.2,496.5 L1055.4,503.5 L1055.6,505.1 L1055.9,504.5 L1056.1,502.8 L1056.3,499.1 L1056.5,505.8 L1056.8,499.7 L1057.0,506.4 L1057.2,506.6 L1057.4,504.1 L1057.6,502.5 L1057.9,507.7 L1058.1,505.2 L1058.3,506.0 L1058.5,508.2 L1058.8,504.4 L1059.0,508.8 L1059.2,508.9 L1059.4,509.2 L1059.6,505.2 L1059.9,506.3 L1060.1,510.0 L1060.3,506.1 L1060.5,510.3 L1060.7,505.0 L1061.0,511.1 L1061.2,511.8 L1061.4,510.2 L1061.6,512.5 L1061.9,508.9 L1062.1,508.5 L1062.3,512.3 L1062.5,509.5 L1062.7,509.9 L1063.0,513.1 L1063.2,514.8 L1063.4,513.5 L1063.6,512.0 L1063.8,510.2 L1064.1,513.5 L1064.3,517.7 L1064.5,515.4 L1064.7,512.3 L1065.0,512.1 L1065.2,515.6 L1065.4,518.1 L1065.6,519.2 L1065.8,515.9 L1066.1,517.4 L1066.3,517.2 L1066.5,517.2 L1066.7,519.5 L1066.9,517.9 L1067.2,520.2 L1067.4,520.7 L1067.6,518.2 L1067.8,517.2 L1068.1,518.8 L1068.3,522.8 L1068.5,521.2 L1068.7,519.2 L1068.9,519.9 L1069.2,523.2 L1069.4,523.3 L1069.6,523.2 L1069.8,524.9 L1070.0,521.8 L1070.3,522.3 L1070.5,522.9 L1070.7,525.1 L1070.9,524.9 L1071.2,525.7 L1071.4,523.1 L1071.6,526.2 L1071.8,525.3 L1072.0,526.2 L1072.3,524.4 L1072.5,527.5 L1072.7,525.6 L1072.9,527.4 L1073.1,528.7 L1073.4,527.2 L1073.6,526.8 L1073.8,528.2 L1074.0,530.9 L1074.3,529.1 L1074.5,528.5 L1074.7,529.0 L1074.9,531.3 L1075.1,529.2 L1075.4,532.5 L1075.6,531.6 L1075.8,530.2 L1076.0,532.8 L1076.2,531.8 L1076.5,532.8 L1076.7,534.0 L1076.9,533.7 L1077.1,532.9 L1077.4,534.1 L1077.6,534.4 L1077.8,534.5 L1078.0,534.6 L1078.2,534.2 L1078.5,535.1 L1078.7,536.7 L1078.9,536.9 L1079.1,536.3 L1079.3,536.5 L1079.6,537.1 L1079.8,537.7 L1080.0,537.1 L1080.2,537.7 L1080.5,538.6 L1080.7,538.8 L1080.9,540.0 L1081.1,539.1 L1081.3,540.4 L1081.6,539.8 L1081.8,539.7 L1082.0,540.5 L1082.2,541.4 L1082.4,541.1 L1082.7,541.0 L1082.9,541.4 L1083.1,542.9 L1083.3,542.9 L1083.6,543.1 L1083.8,543.6 L1084.0,543.3" fill="none" stroke="#1f77b4" stroke-width="1.4" opacity="0.85"/><text x="1040" y="54" fill="#ff7f0e" font-size="11">roll 42</text><text x="1090" y="558" fill="#ff7f0e" font-size="11">-18</text><path d="M616.0,405.5 L616.2,405.5 L616.4,404.7 L616.7,404.7 L616.9,406.3 L617.1,404.7 L617.3,406.3 L617.6,405.5 L617.8,404.7 L618.0,406.3 L618.2,405.5 L618.4,405.5 L618.7,406.3 L618.9,404.7 L619.1,405.5 L619.3,405.5 L619.5,405.5 L619.8,405.5 L620.0,405.5 L620.2,403.9 L620.4,404.7 L620.7,405.5 L620.9,405.5 L621.1,405.5 L621.3,403.9 L621.5,403.9 L621.8,404.7 L622.0,403.9 L622.2,404.7 L622.4,403.1 L622.6,402.3 L622.9,402.3 L623.1,402.3 L623.3,403.1 L623.5,401.6 L623.8,401.6 L624.0,402.3 L624.2,400.8 L624.4,401.6 L624.6,400.8 L624.9,400.0 L625.1,400.0 L625.3,397.7 L625.5,397.7 L625.7,398.4 L626.0,399.2 L626.2,396.1 L626.4,396.9 L626.6,395.3 L626.9,397.7 L627.1,396.1 L627.3,393.7 L627.5,395.3 L627.7,392.2 L628.0,391.4 L628.2,394.5 L628.4,393.0 L628.6,389.8 L628.8,389.8 L629.1,391.4 L629.3,389.8 L629.5,387.5 L629.7,389.0 L630.0,385.9 L630.2,386.7 L630.4,386.7 L630.6,386.7 L630.8,382.8 L631.1,382.8 L631.3,385.1 L631.5,382.0 L631.7,384.3 L631.9,382.0 L632.2,381.2 L632.4,380.4 L632.6,380.4 L632.8,375.7 L633.1,375.0 L633.3,373.4 L633.5,375.7 L633.7,372.6 L633.9,376.5 L634.2,375.7 L634.4,373.4 L634.6,371.0 L634.8,368.7 L635.0,371.0 L635.3,370.3 L635.5,364.8 L635.7,365.6 L635.9,365.6 L636.2,363.2 L636.4,361.7 L636.6,360.1 L636.8,359.3 L637.0,360.9 L637.3,364.8 L637.5,364.8 L637.7,360.1 L637.9,353.0 L638.1,354.6 L638.4,353.8 L638.6,359.3 L638.8,350.7 L639.0,349.9 L639.3,346.8 L639.5,345.2 L639.7,346.0 L639.9,348.3 L640.1,354.6 L640.4,349.1 L640.6,351.5 L640.8,339.0 L641.0,341.3 L641.2,340.5 L641.5,343.7 L641.7,340.5 L641.9,338.2 L642.1,333.5 L642.4,343.7 L642.6,338.2 L642.8,334.3 L643.0,333.5 L643.2,335.8 L643.5,339.7 L643.7,328.8 L643.9,329.6 L644.1,328.0 L644.4,324.1 L644.6,326.4 L644.8,333.5 L645.0,332.7 L645.2,317.0 L645.5,318.6 L645.7,321.7 L645.9,324.1 L646.1,324.9 L646.3,324.9 L646.6,318.6 L646.8,324.9 L647.0,306.9 L647.2,320.2 L647.5,320.2 L647.7,319.4 L647.9,318.6 L648.1,299.0 L648.3,297.5 L648.6,314.7 L648.8,297.5 L649.0,299.0 L649.2,300.6 L649.4,290.4 L649.7,299.0 L649.9,299.0 L650.1,293.6 L650.3,288.9 L650.6,305.3 L650.8,285.0 L651.0,289.7 L651.2,299.0 L651.4,299.0 L651.7,279.5 L651.9,285.0 L652.1,285.0 L652.3,290.4 L652.5,282.6 L652.8,291.2 L653.0,291.2 L653.2,281.0 L653.4,274.8 L653.7,274.0 L653.9,275.6 L654.1,286.5 L654.3,272.4 L654.5,259.9 L654.8,271.7 L655.0,269.3 L655.2,271.7 L655.4,251.3 L655.6,252.9 L655.9,254.4 L656.1,262.3 L656.3,267.7 L656.5,270.9 L656.8,260.7 L657.0,248.2 L657.2,245.0 L657.4,238.8 L657.6,259.1 L657.9,240.3 L658.1,241.1 L658.3,261.5 L658.5,235.7 L658.7,250.5 L659.0,236.4 L659.2,256.0 L659.4,233.3 L659.6,232.5 L659.9,234.1 L660.1,223.1 L660.3,249.7 L660.5,231.0 L660.7,227.0 L661.0,234.1 L661.2,225.5 L661.4,220.8 L661.6,245.0 L661.8,237.2 L662.1,228.6 L662.3,225.5 L662.5,233.3 L662.7,223.1 L663.0,236.4 L663.2,235.7 L663.4,202.8 L663.6,220.8 L663.8,232.5 L664.1,213.7 L664.3,223.1 L664.5,202.0 L664.7,211.4 L664.9,204.3 L665.2,186.3 L665.4,224.7 L665.6,214.5 L665.8,184.8 L666.1,219.2 L666.3,180.1 L666.5,195.7 L666.7,202.8 L666.9,179.3 L667.2,199.7 L667.4,176.2 L667.6,209.0 L667.8,197.3 L668.0,206.7 L668.3,166.8 L668.5,181.7 L668.7,178.5 L668.9,202.8 L669.2,186.3 L669.4,162.9 L669.6,155.0 L669.8,193.4 L670.0,170.7 L670.3,158.2 L670.5,167.6 L670.7,162.9 L670.9,177.7 L671.2,156.6 L671.4,177.7 L671.6,162.1 L671.8,169.9 L672.0,148.0 L672.3,184.8 L672.5,166.8 L672.7,137.8 L672.9,134.7 L673.1,181.7 L673.4,134.7 L673.6,163.7 L673.8,134.7 L674.0,148.8 L674.3,169.9 L674.5,169.9 L674.7,159.0 L674.9,134.7 L675.1,126.1 L675.4,137.0 L675.6,143.3 L675.8,162.9 L676.0,113.6 L676.2,129.2 L676.5,134.7 L676.7,160.5 L676.9,128.4 L677.1,142.5 L677.4,112.0 L677.6,144.9 L677.8,141.0 L678.0,151.9 L678.2,122.2 L678.5,137.8 L678.7,114.3 L678.9,149.6 L679.1,130.0 L679.3,101.8 L679.6,117.5 L679.8,133.9 L680.0,128.4 L680.2,133.9 L680.5,108.9 L680.7,144.9 L680.9,86.2 L681.1,113.6 L681.3,131.6 L681.6,132.3 L681.8,106.5 L682.0,102.6 L682.2,90.1 L682.4,110.4 L682.7,90.1 L682.9,137.0 L683.1,76.0 L683.3,79.9 L683.6,77.6 L683.8,133.1 L684.0,405.5 L684.2,397.7 L684.4,393.0 L684.7,386.7 L684.9,379.7 L685.1,371.0 L685.3,361.7 L685.5,365.6 L685.8,359.3 L686.0,350.7 L686.2,341.3 L686.4,342.9 L686.7,331.1 L686.9,328.8 L687.1,335.0 L687.3,331.9 L687.5,317.8 L687.8,313.9 L688.0,324.9 L688.2,305.3 L688.4,308.4 L688.6,321.0 L688.9,311.6 L689.1,304.5 L689.3,297.5 L689.5,303.0 L689.8,299.8 L690.0,298.3 L690.2,299.0 L690.4,287.3 L690.6,305.3 L690.9,300.6 L691.1,288.9 L691.3,298.3 L691.5,299.0 L691.7,281.8 L692.0,289.7 L692.2,303.0 L692.4,296.7 L692.6,285.7 L692.9,313.9 L693.1,310.0 L693.3,304.5 L693.5,306.1 L693.7,295.1 L694.0,296.7 L694.2,303.7 L694.4,317.8 L694.6,298.3 L694.8,305.3 L695.1,295.1 L695.3,321.7 L695.5,306.9 L695.7,326.4 L696.0,331.1 L696.2,313.1 L696.4,324.1 L696.6,320.2 L696.8,317.0 L697.1,333.5 L697.3,328.0 L697.5,331.1 L697.7,324.9 L697.9,337.4 L698.2,333.5 L698.4,327.2 L698.6,318.6 L698.8,326.4 L699.1,333.5 L699.3,334.3 L699.5,320.2 L699.7,331.9 L699.9,330.3 L700.2,325.7 L700.4,335.0 L700.6,318.6 L700.8,328.8 L701.1,321.7 L701.3,337.4 L701.5,331.9 L701.7,328.0 L701.9,321.7 L702.2,344.4 L702.4,337.4 L702.6,344.4 L702.8,324.9 L703.0,344.4 L703.3,337.4 L703.5,349.1 L703.7,337.4 L703.9,349.9 L704.2,345.2 L704.4,353.8 L704.6,336.6 L704.8,354.6 L705.0,342.1 L705.3,357.7 L705.5,355.4 L705.7,358.5 L705.9,350.7 L706.1,357.0 L706.4,363.2 L706.6,353.0 L706.8,357.0 L707.0,351.5 L707.3,364.0 L707.5,365.6 L707.7,360.9 L707.9,354.6 L708.1,348.3 L708.4,360.9 L708.6,357.7 L708.8,355.4 L709.0,363.2 L709.2,360.1 L709.5,356.2 L709.7,367.9 L709.9,357.0 L710.1,371.8 L710.4,365.6 L710.6,360.9 L710.8,367.1 L711.0,362.4 L711.2,353.8 L711.5,363.2 L711.7,371.0 L711.9,368.7 L712.1,372.6 L712.3,366.3 L712.6,371.8 L712.8,364.8 L713.0,364.0 L713.2,371.8 L713.5,361.7 L713.7,363.2 L713.9,367.9 L714.1,360.9 L714.3,355.4 L714.6,367.9 L714.8,358.5 L715.0,373.4 L715.2,373.4 L715.4,372.6 L715.7,365.6 L715.9,371.0 L716.1,378.1 L716.3,384.3 L716.6,384.3 L716.8,388.3 L717.0,393.0 L717.2,385.1 L717.4,394.5 L717.7,388.3 L717.9,382.0 L718.1,382.0 L718.3,376.5 L718.5,378.1 L718.8,385.9 L719.0,379.7 L719.2,386.7 L719.4,388.3 L719.7,378.9 L719.9,390.6 L720.1,389.0 L720.3,393.0 L720.5,394.5 L720.8,393.0 L721.0,387.5 L721.2,395.3 L721.4,389.8 L721.6,393.7 L721.9,387.5 L722.1,390.6 L722.3,381.2 L722.5,392.2 L722.8,386.7 L723.0,393.7 L723.2,385.1 L723.4,389.8 L723.6,396.9 L723.9,394.5 L724.1,385.1 L724.3,397.7 L724.5,393.0 L724.7,399.2 L725.0,394.5 L725.2,402.3 L725.4,394.5 L725.6,400.0 L725.9,398.4 L726.1,399.2 L726.3,407.8 L726.5,400.0 L726.7,407.0 L727.0,405.5 L727.2,398.4 L727.4,404.7 L727.6,396.9 L727.9,401.6 L728.1,393.7 L728.3,403.1 L728.5,396.9 L728.7,401.6 L729.0,396.9 L729.2,404.7 L729.4,396.1 L729.6,405.5 L729.8,403.1 L730.1,407.8 L730.3,414.9 L730.5,407.0 L730.7,413.3 L731.0,408.6 L731.2,413.3 L731.4,420.3 L731.6,411.7 L731.8,421.9 L732.1,410.2 L732.3,418.0 L732.5,410.2 L732.7,414.1 L732.9,405.5 L733.2,412.5 L733.4,405.5 L733.6,412.5 L733.8,418.8 L734.1,408.6 L734.3,418.0 L734.5,409.4 L734.7,416.4 L734.9,414.9 L735.2,418.8 L735.4,409.4 L735.6,411.0 L735.8,410.2 L736.0,414.1 L736.3,421.1 L736.5,429.0 L736.7,416.4 L736.9,425.0 L737.2,416.4 L737.4,421.9 L737.6,417.2 L737.8,421.9 L738.0,429.7 L738.3,422.7 L738.5,431.3 L738.7,419.6 L738.9,421.1 L739.1,415.7 L739.4,423.5 L739.6,432.1 L739.8,419.6 L740.0,421.1 L740.3,421.1 L740.5,428.2 L740.7,433.7 L740.9,422.7 L741.1,427.4 L741.4,414.9 L741.6,422.7 L741.8,420.3 L742.0,428.2 L742.2,436.0 L742.5,432.1 L742.7,427.4 L742.9,435.2 L743.1,421.9 L743.4,427.4 L743.6,435.2 L743.8,424.3 L744.0,422.7 L744.2,418.0 L744.5,424.3 L744.7,429.0 L744.9,429.0 L745.1,420.3 L745.3,424.3 L745.6,419.6 L745.8,424.3 L746.0,417.2 L746.2,422.7 L746.5,428.2 L746.7,423.5 L746.9,429.7 L747.1,420.3 L747.3,416.4 L747.6,412.5 L747.8,420.3 L748.0,417.2 L748.2,409.4 L748.4,408.6 L748.7,417.2 L748.9,419.6 L749.1,414.9 L749.3,413.3 L749.6,421.9 L749.8,423.5 L750.0,422.7 L750.2,420.3 L750.4,414.9 L750.7,416.4 L750.9,422.7 L751.1,427.4 L751.3,421.1 L751.5,428.2 L751.8,433.7 L752.0,425.0 L752.2,428.2 L752.4,419.6 L752.7,431.3 L752.9,435.2 L753.1,435.2 L753.3,425.8 L753.5,433.7 L753.8,421.9 L754.0,429.7 L754.2,431.3 L754.4,430.5 L754.7,430.5 L754.9,421.9 L755.1,420.3 L755.3,428.2 L755.5,437.6 L755.8,426.6 L756.0,431.3 L756.2,442.3 L756.4,450.9 L756.6,436.0 L756.9,430.5 L757.1,435.2 L757.3,433.7 L757.5,426.6 L757.8,431.3 L758.0,423.5 L758.2,426.6 L758.4,426.6 L758.6,438.3 L758.9,428.2 L759.1,430.5 L759.3,423.5 L759.5,432.9 L759.7,427.4 L760.0,430.5 L760.2,435.2 L760.4,423.5 L760.6,428.2 L760.9,438.3 L761.1,442.3 L761.3,448.5 L761.5,438.3 L761.7,449.3 L762.0,442.3 L762.2,426.6 L762.4,439.9 L762.6,439.9 L762.8,443.0 L763.1,435.2 L763.3,436.0 L763.5,437.6 L763.7,429.0 L764.0,422.7 L764.2,429.7 L764.4,421.1 L764.6,429.0 L764.8,425.0 L765.1,423.5 L765.3,429.0 L765.5,432.9 L765.7,425.8 L765.9,428.2 L766.2,425.8 L766.4,434.4 L766.6,436.0 L766.8,429.7 L767.1,434.4 L767.3,432.1 L767.5,431.3 L767.7,419.6 L767.9,430.5 L768.2,436.0 L768.4,427.4 L768.6,429.7 L768.8,422.7 L769.0,432.9 L769.3,419.6 L769.5,425.8 L769.7,429.0 L769.9,427.4 L770.2,434.4 L770.4,426.6 L770.6,424.3 L770.8,419.6 L771.0,428.2 L771.3,419.6 L771.5,425.8 L771.7,419.6 L771.9,428.2 L772.1,418.8 L772.4,426.6 L772.6,422.7 L772.8,414.9 L773.0,422.7 L773.3,423.5 L773.5,419.6 L773.7,428.2 L773.9,421.1 L774.1,425.8 L774.4,420.3 L774.6,426.6 L774.8,415.7 L775.0,425.8 L775.2,430.5 L775.5,421.1 L775.7,427.4 L775.9,421.9 L776.1,428.2 L776.4,424.3 L776.6,427.4 L776.8,419.6 L777.0,427.4 L777.2,432.9 L777.5,427.4 L777.7,423.5 L777.9,425.0 L778.1,428.2 L778.3,425.0 L778.6,434.4 L778.8,434.4 L779.0,443.0 L779.2,447.0 L779.5,437.6 L779.7,445.4 L779.9,447.0 L780.1,442.3 L780.3,449.3 L780.6,436.0 L780.8,443.8 L781.0,437.6 L781.2,442.3 L781.5,436.0 L781.7,441.5 L781.9,433.7 L782.1,429.0 L782.3,431.3 L782.6,432.9 L782.8,434.4 L783.0,445.4 L783.2,432.9 L783.4,425.8 L783.7,432.9 L783.9,443.8 L784.1,434.4 L784.3,432.1 L784.6,436.8 L784.8,431.3 L785.0,436.0 L785.2,439.1 L785.4,440.7 L785.7,434.4 L785.9,439.9 L786.1,431.3 L786.3,436.8 L786.5,428.2 L786.8,439.1 L787.0,423.5 L787.2,436.8 L787.4,439.1 L787.7,435.2 L787.9,423.5 L788.1,431.3 L788.3,421.9 L788.5,431.3 L788.8,436.0 L789.0,434.4 L789.2,423.5 L789.4,435.2 L789.6,430.5 L789.9,420.3 L790.1,424.3 L790.3,436.0 L790.5,425.0 L790.8,425.8 L791.0,431.3 L791.2,431.3 L791.4,434.4 L791.6,425.0 L791.9,427.4 L792.1,424.3 L792.3,425.8 L792.5,422.7 L792.7,429.7 L793.0,423.5 L793.2,435.2 L793.4,423.5 L793.6,431.3 L793.9,433.7 L794.1,423.5 L794.3,430.5 L794.5,425.8 L794.7,423.5 L795.0,431.3 L795.2,428.2 L795.4,429.0 L795.6,418.0 L795.8,424.3 L796.1,419.6 L796.3,416.4 L796.5,425.0 L796.7,425.0 L797.0,425.0 L797.2,414.9 L797.4,420.3 L797.6,429.0 L797.8,429.7 L798.1,421.9 L798.3,429.0 L798.5,424.3 L798.7,432.9 L798.9,421.9 L799.2,429.7 L799.4,423.5 L799.6,423.5 L799.8,425.8 L800.1,432.1 L800.3,427.4 L800.5,430.5 L800.7,425.0 L800.9,421.1 L801.2,429.7 L801.4,418.8 L801.6,428.2 L801.8,426.6 L802.0,422.7 L802.3,429.7 L802.5,421.1 L802.7,429.7 L802.9,427.4 L803.2,424.3 L803.4,417.2 L803.6,423.5 L803.8,434.4 L804.0,421.1 L804.3,429.7 L804.5,434.4 L804.7,433.7 L804.9,430.5 L805.1,429.7 L805.4,432.1 L805.6,430.5 L805.8,435.2 L806.0,430.5 L806.3,425.0 L806.5,431.3 L806.7,423.5 L806.9,426.6 L807.1,432.1 L807.4,429.7 L807.6,437.6 L807.8,432.9 L808.0,435.2 L808.2,427.4 L808.5,424.3 L808.7,423.5 L808.9,427.4 L809.1,434.4 L809.4,431.3 L809.6,442.3 L809.8,437.6 L810.0,429.0 L810.2,436.0 L810.5,435.2 L810.7,427.4 L810.9,432.9 L811.1,425.0 L811.4,431.3 L811.6,442.3 L811.8,430.5 L812.0,436.0 L812.2,439.1 L812.5,434.4 L812.7,436.8 L812.9,432.9 L813.1,436.0 L813.3,429.0 L813.6,436.0 L813.8,434.4 L814.0,429.0 L814.2,430.5 L814.5,435.2 L814.7,426.6 L814.9,423.5 L815.1,432.1 L815.3,424.3 L815.6,435.2 L815.8,426.6 L816.0,421.9 L816.2,420.3 L816.4,424.3 L816.7,424.3 L816.9,419.6 L817.1,425.0 L817.3,414.9 L817.6,426.6 L817.8,422.7 L818.0,421.9 L818.2,411.0 L818.4,419.6 L818.7,428.2 L818.9,421.9 L819.1,413.3 L819.3,422.7 L819.5,412.5 L819.8,419.6 L820.0,416.4 L820.2,422.7 L820.4,414.1 L820.7,419.6 L820.9,423.5 L821.1,430.5 L821.3,424.3 L821.5,425.8 L821.8,428.2 L822.0,421.1 L822.2,427.4 L822.4,418.8 L822.6,421.9 L822.9,423.5 L823.1,432.1 L823.3,427.4 L823.5,420.3 L823.8,415.7 L824.0,424.3 L824.2,432.1 L824.4,420.3 L824.6,429.0 L824.9,416.4 L825.1,427.4 L825.3,418.8 L825.5,422.7 L825.7,425.0 L826.0,429.7 L826.2,421.1 L826.4,431.3 L826.6,424.3 L826.9,428.2 L827.1,417.2 L827.3,427.4 L827.5,418.8 L827.7,415.7 L828.0,424.3 L828.2,432.1 L828.4,419.6 L828.6,423.5 L828.8,430.5 L829.1,418.8 L829.3,429.7 L829.5,418.8 L829.7,423.5 L830.0,433.7 L830.2,422.7 L830.4,425.8 L830.6,422.7 L830.8,421.1 L831.1,426.6 L831.3,418.8 L831.5,428.2 L831.7,420.3 L831.9,423.5 L832.2,417.2 L832.4,420.3 L832.6,429.0 L832.8,418.8 L833.1,424.3 L833.3,428.2 L833.5,433.7 L833.7,421.1 L833.9,431.3 L834.2,421.9 L834.4,429.0 L834.6,422.7 L834.8,417.2 L835.0,420.3 L835.3,421.9 L835.5,421.1 L835.7,422.7 L835.9,415.7 L836.2,424.3 L836.4,426.6 L836.6,418.0 L836.8,421.1 L837.0,425.0 L837.3,421.9 L837.5,420.3 L837.7,421.9 L837.9,411.7 L838.2,419.6 L838.4,418.8 L838.6,422.7 L838.8,417.2 L839.0,424.3 L839.3,418.0 L839.5,423.5 L839.7,420.3 L839.9,414.9 L840.1,413.3 L840.4,422.7 L840.6,413.3 L840.8,419.6 L841.0,420.3 L841.3,418.0 L841.5,427.4 L841.7,416.4 L841.9,421.9 L842.1,414.9 L842.4,421.9 L842.6,413.3 L842.8,421.9 L843.0,413.3 L843.2,418.8 L843.5,418.0 L843.7,418.0 L843.9,423.5 L844.1,420.3 L844.4,413.3 L844.6,414.1 L844.8,412.5 L845.0,413.3 L845.2,418.0 L845.5,421.9 L845.7,424.3 L845.9,421.9 L846.1,413.3 L846.3,416.4 L846.6,410.2 L846.8,414.9 L847.0,411.0 L847.2,418.8 L847.5,418.0 L847.7,422.7 L847.9,411.0 L848.1,410.2 L848.3,419.6 L848.6,412.5 L848.8,409.4 L849.0,407.0 L849.2,414.9 L849.4,406.3 L849.7,403.9 L849.9,408.6 L850.1,410.2 L850.3,410.2 L850.6,406.3 L850.8,415.7 L851.0,408.6 L851.2,413.3 L851.4,406.3 L851.7,408.6 L851.9,414.1 L852.1,415.7 L852.3,408.6 L852.5,409.4 L852.8,413.3 L853.0,412.5 L853.2,417.2 L853.4,408.6 L853.7,417.2 L853.9,406.3 L854.1,412.5 L854.3,408.6 L854.5,415.7 L854.8,410.2 L855.0,406.3 L855.2,409.4 L855.4,409.4 L855.6,410.2 L855.9,403.9 L856.1,408.6 L856.3,411.0 L856.5,406.3 L856.8,407.0 L857.0,414.1 L857.2,411.7 L857.4,401.6 L857.6,407.8 L857.9,416.4 L858.1,407.0 L858.3,413.3 L858.5,410.2 L858.7,409.4 L859.0,403.9 L859.2,411.7 L859.4,408.6 L859.6,401.6 L859.9,411.7 L860.1,405.5 L860.3,414.1 L860.5,405.5 L860.7,406.3 L861.0,406.3 L861.2,407.0 L861.4,398.4 L861.6,407.0 L861.8,399.2 L862.1,403.9 L862.3,407.8 L862.5,407.0 L862.7,398.4 L863.0,407.0 L863.2,402.3 L863.4,407.0 L863.6,403.1 L863.8,403.9 L864.1,407.0 L864.3,400.8 L864.5,400.8 L864.7,404.7 L865.0,403.9 L865.2,400.0 L865.4,396.9 L865.6,401.6 L865.8,400.8 L866.1,403.9 L866.3,403.9 L866.5,395.3 L866.7,402.3 L866.9,406.3 L867.2,410.2 L867.4,410.2 L867.6,410.2 L867.8,407.0 L868.1,411.7 L868.3,403.9 L868.5,411.7 L868.7,407.0 L868.9,406.3 L869.2,403.1 L869.4,401.6 L869.6,402.3 L869.8,407.8 L870.0,403.9 L870.3,404.7 L870.5,405.5 L870.7,404.7 L870.9,401.6 L871.2,403.1 L871.4,405.5 L871.6,404.7 L871.8,407.0 L872.0,403.9 L872.3,406.3 L872.5,400.8 L872.7,409.4 L872.9,400.8 L873.1,402.3 L873.4,408.6 L873.6,399.2 L873.8,407.0 L874.0,408.6 L874.3,409.4 L874.5,410.2 L874.7,405.5 L874.9,407.0 L875.1,406.3 L875.4,398.4 L875.6,407.8 L875.8,405.5 L876.0,400.0 L876.2,393.0 L876.5,400.8 L876.7,403.1 L876.9,403.1 L877.1,404.7 L877.4,398.4 L877.6,406.3 L877.8,404.7 L878.0,399.2 L878.2,403.1 L878.5,396.9 L878.7,396.1 L878.9,406.3 L879.1,401.6 L879.3,406.3 L879.6,397.7 L879.8,406.3 L880.0,402.3 L880.2,403.9 L880.5,404.7 L880.7,396.9 L880.9,399.2 L881.1,400.0 L881.3,401.6 L881.6,396.9 L881.8,396.1 L882.0,403.1 L882.2,400.8 L882.4,396.1 L882.7,403.1 L882.9,403.1 L883.1,400.0 L883.3,403.1 L883.6,408.6 L883.8,405.5 L884.0,399.2 L884.2,405.5 L884.4,400.0 L884.7,402.3 L884.9,395.3 L885.1,403.1 L885.3,404.7 L885.5,401.6 L885.8,393.0 L886.0,401.6 L886.2,400.8 L886.4,391.4 L886.7,401.6 L886.9,395.3 L887.1,393.7 L887.3,391.4 L887.5,398.4 L887.8,393.7 L888.0,385.1 L888.2,396.9 L888.4,403.9 L888.6,396.1 L888.9,396.1 L889.1,391.4 L889.3,394.5 L889.5,396.9 L889.8,403.1 L890.0,400.0 L890.2,394.5 L890.4,398.4 L890.6,403.9 L890.9,406.3 L891.1,400.8 L891.3,397.7 L891.5,403.1 L891.8,402.3 L892.0,402.3 L892.2,406.3 L892.4,401.6 L892.6,399.2 L892.9,403.1 L893.1,403.9 L893.3,407.0 L893.5,403.9 L893.7,403.9 L894.0,403.9 L894.2,404.7 L894.4,401.6 L894.6,403.9 L894.9,404.7 L895.1,400.0 L895.3,408.6 L895.5,402.3 L895.7,404.7 L896.0,400.0 L896.2,396.1 L896.4,400.0 L896.6,403.9 L896.8,403.9 L897.1,400.8 L897.3,407.0 L897.5,407.0 L897.7,409.4 L898.0,401.6 L898.2,407.8 L898.4,401.6 L898.6,401.6 L898.8,402.3 L899.1,411.7 L899.3,403.1 L899.5,403.9 L899.7,406.3 L899.9,414.1 L900.2,406.3 L900.4,407.8 L900.6,407.0 L900.8,410.2 L901.1,402.3 L901.3,404.7 L901.5,407.0 L901.7,405.5 L901.9,403.9 L902.2,410.2 L902.4,407.8 L902.6,412.5 L902.8,403.1 L903.0,407.0 L903.3,410.2 L903.5,404.7 L903.7,403.9 L903.9,397.7 L904.2,407.0 L904.4,405.5 L904.6,399.2 L904.8,393.0 L905.0,401.6 L905.3,409.4 L905.5,400.0 L905.7,410.2 L905.9,406.3 L906.1,401.6 L906.4,407.0 L906.6,399.2 L906.8,396.9 L907.0,403.9 L907.3,404.7 L907.5,396.9 L907.7,398.4 L907.9,407.8 L908.1,400.8 L908.4,408.6 L908.6,400.8 L908.8,406.3 L909.0,399.2 L909.2,406.3 L909.5,398.4 L909.7,406.3 L909.9,400.0 L910.1,400.0 L910.4,400.0 L910.6,392.2 L910.8,401.6 L911.0,403.1 L911.2,397.7 L911.5,403.1 L911.7,403.1 L911.9,400.8 L912.1,408.6 L912.3,406.3 L912.6,404.7 L912.8,396.9 L913.0,405.5 L913.2,403.1 L913.5,403.9 L913.7,399.2 L913.9,408.6 L914.1,399.2 L914.3,405.5 L914.6,410.2 L914.8,405.5 L915.0,406.3 L915.2,406.3 L915.4,403.9 L915.7,402.3 L915.9,403.1 L916.1,402.3 L916.3,405.5 L916.6,405.5 L916.8,398.4 L917.0,400.8 L917.2,410.2 L917.4,400.8 L917.7,396.1 L917.9,395.3 L918.1,402.3 L918.3,397.7 L918.5,401.6 L918.8,396.9 L919.0,402.3 L919.2,408.6 L919.4,401.6 L919.7,407.8 L919.9,401.6 L920.1,407.8 L920.3,413.3 L920.5,408.6 L920.8,401.6 L921.0,410.2 L921.2,407.8 L921.4,403.9 L921.7,402.3 L921.9,406.3 L922.1,401.6 L922.3,403.1 L922.5,400.8 L922.8,396.1 L923.0,402.3 L923.2,409.4 L923.4,401.6 L923.6,396.9 L923.9,405.5 L924.1,396.9 L924.3,405.5 L924.5,405.5 L924.8,405.5 L925.0,404.7 L925.2,403.1 L925.4,400.0 L925.6,401.6 L925.9,405.5 L926.1,398.4 L926.3,394.5 L926.5,403.9 L926.7,397.7 L927.0,396.1 L927.2,398.4 L927.4,402.3 L927.6,402.3 L927.9,398.4 L928.1,404.7 L928.3,408.6 L928.5,409.4 L928.7,403.1 L929.0,400.0 L929.2,404.7 L929.4,398.4 L929.6,395.3 L929.8,403.9 L930.1,397.7 L930.3,404.7 L930.5,396.1 L930.7,398.4 L931.0,403.1 L931.2,396.1 L931.4,403.9 L931.6,402.3 L931.8,409.4 L932.1,401.6 L932.3,403.9 L932.5,407.0 L932.7,406.3 L932.9,406.3 L933.2,403.9 L933.4,398.4 L933.6,405.5 L933.8,396.9 L934.1,403.1 L934.3,393.7 L934.5,403.9 L934.7,396.9 L934.9,393.0 L935.2,401.6 L935.4,403.1 L935.6,400.8 L935.8,407.8 L936.0,401.6 L936.3,395.3 L936.5,404.7 L936.7,400.8 L936.9,405.5 L937.2,398.4 L937.4,400.0 L937.6,394.5 L937.8,400.8 L938.0,396.9 L938.3,405.5 L938.5,396.9 L938.7,403.9 L938.9,396.9 L939.1,405.5 L939.4,401.6 L939.6,406.3 L939.8,397.7 L940.0,403.1 L940.3,397.7 L940.5,406.3 L940.7,400.0 L940.9,399.2 L941.1,398.4 L941.4,404.7 L941.6,401.6 L941.8,406.3 L942.0,406.3 L942.2,398.4 L942.5,406.3 L942.7,407.0 L942.9,404.7 L943.1,400.8 L943.4,402.3 L943.6,399.2 L943.8,407.0 L944.0,405.5 L944.2,403.9 L944.5,401.6 L944.7,398.4 L944.9,399.2 L945.1,406.3 L945.3,401.6 L945.6,400.0 L945.8,403.1 L946.0,409.4 L946.2,408.6 L946.5,400.8 L946.7,403.1 L946.9,411.0 L947.1,407.8 L947.3,408.6 L947.6,412.5 L947.8,409.4 L948.0,414.9 L948.2,413.3 L948.5,411.0 L948.7,403.9 L948.9,412.5 L949.1,406.3 L949.3,406.3 L949.6,403.1 L949.8,411.0 L950.0,406.3 L950.2,411.0 L950.4,403.9 L950.7,399.2 L950.9,406.3 L951.1,400.0 L951.3,405.5 L951.6,414.1 L951.8,404.7 L952.0,411.0 L952.2,407.8 L952.4,414.9 L952.7,407.0 L952.9,403.1 L953.1,402.3 L953.3,408.6 L953.5,414.1 L953.8,405.5 L954.0,400.8 L954.2,408.6 L954.4,401.6 L954.7,406.3 L954.9,403.9 L955.1,405.5 L955.3,401.6 L955.5,397.7 L955.8,406.3 L956.0,403.1 L956.2,410.2 L956.4,400.8 L956.6,403.1 L956.9,410.2 L957.1,406.3 L957.3,411.0 L957.5,402.3 L957.8,411.7 L958.0,411.0 L958.2,412.5 L958.4,405.5 L958.6,400.8 L958.9,407.8 L959.1,406.3 L959.3,412.5 L959.5,403.9 L959.7,413.3 L960.0,414.9 L960.2,406.3 L960.4,412.5 L960.6,404.7 L960.9,411.7 L961.1,410.2 L961.3,406.3 L961.5,401.6 L961.7,402.3 L962.0,408.6 L962.2,400.8 L962.4,408.6 L962.6,402.3 L962.8,411.7 L963.1,412.5 L963.3,413.3 L963.5,408.6 L963.7,403.1 L964.0,411.0 L964.2,403.1 L964.4,403.1 L964.6,411.0 L964.8,401.6 L965.1,411.0 L965.3,412.5 L965.5,409.4 L965.7,405.5 L965.9,412.5 L966.2,409.4 L966.4,403.1 L966.6,403.1 L966.8,403.9 L967.1,411.7 L967.3,407.0 L967.5,399.2 L967.7,407.0 L967.9,400.0 L968.2,403.9 L968.4,408.6 L968.6,404.7 L968.8,406.3 L969.0,407.8 L969.3,409.4 L969.5,403.1 L969.7,411.0 L969.9,402.3 L970.2,403.9 L970.4,411.0 L970.6,403.1 L970.8,407.8 L971.0,400.0 L971.3,410.2 L971.5,404.7 L971.7,396.1 L971.9,401.6 L972.1,399.2 L972.4,403.9 L972.6,402.3 L972.8,396.1 L973.0,405.5 L973.3,406.3 L973.5,402.3 L973.7,403.1 L973.9,400.0 L974.1,403.9 L974.4,407.8 L974.6,409.4 L974.8,406.3 L975.0,409.4 L975.3,403.9 L975.5,408.6 L975.7,400.8 L975.9,403.9 L976.1,411.0 L976.4,403.1 L976.6,412.5 L976.8,403.9 L977.0,406.3 L977.2,400.8 L977.5,409.4 L977.7,403.1 L977.9,398.4 L978.1,397.7 L978.4,405.5 L978.6,403.1 L978.8,400.0 L979.0,401.6 L979.2,400.8 L979.5,398.4 L979.7,394.5 L979.9,404.7 L980.1,395.3 L980.3,403.1 L980.6,400.0 L980.8,399.2 L981.0,404.7 L981.2,396.9 L981.5,403.1 L981.7,401.6 L981.9,403.1 L982.1,394.5 L982.3,404.7 L982.6,397.7 L982.8,404.7 L983.0,396.1 L983.2,400.0 L983.4,399.2 L983.7,407.0 L983.9,414.9 L984.1,424.3 L984.3,427.4 L984.6,434.4 L984.8,443.8 L985.0,454.0 L985.2,459.5 L985.4,455.6 L985.7,461.0 L985.9,467.3 L986.1,472.8 L986.3,480.6 L986.5,475.9 L986.8,480.6 L987.0,489.2 L987.2,486.9 L987.4,490.0 L987.7,505.7 L987.9,491.6 L988.1,508.0 L988.3,510.3 L988.5,499.4 L988.8,501.0 L989.0,511.9 L989.2,511.9 L989.4,515.0 L989.6,519.7 L989.9,502.5 L990.1,523.7 L990.3,502.5 L990.5,525.2 L990.8,504.9 L991.0,525.2 L991.2,500.2 L991.4,522.1 L991.6,509.6 L991.9,526.0 L992.1,506.4 L992.3,521.3 L992.5,520.5 L992.7,517.4 L993.0,509.6 L993.2,515.0 L993.4,511.9 L993.6,516.6 L993.9,516.6 L994.1,530.7 L994.3,519.0 L994.5,531.5 L994.7,534.6 L995.0,516.6 L995.2,518.2 L995.4,536.2 L995.6,530.7 L995.8,534.6 L996.1,526.0 L996.3,531.5 L996.5,529.1 L996.7,515.0 L997.0,525.2 L997.2,529.1 L997.4,521.3 L997.6,537.7 L997.8,527.6 L998.1,521.3 L998.3,532.3 L998.5,520.5 L998.7,529.9 L998.9,534.6 L999.2,538.5 L999.4,514.3 L999.6,526.8 L999.8,516.6 L1000.1,520.5 L1000.3,537.7 L1000.5,520.5 L1000.7,538.5 L1000.9,521.3 L1001.2,538.5 L1001.4,529.1 L1001.6,515.8 L1001.8,539.3 L1002.1,532.3 L1002.3,529.9 L1002.5,514.3 L1002.7,517.4 L1002.9,519.0 L1003.2,523.7 L1003.4,520.5 L1003.6,531.5 L1003.8,534.6 L1004.0,520.5 L1004.3,542.4 L1004.5,518.2 L1004.7,529.9 L1004.9,533.0 L1005.2,523.7 L1005.4,529.1 L1005.6,533.8 L1005.8,515.8 L1006.0,530.7 L1006.3,536.2 L1006.5,525.2 L1006.7,538.5 L1006.9,533.8 L1007.1,515.8 L1007.4,529.1 L1007.6,522.9 L1007.8,516.6 L1008.0,532.3 L1008.3,520.5 L1008.5,539.3 L1008.7,519.7 L1008.9,536.2 L1009.1,529.1 L1009.4,537.7 L1009.6,537.0 L1009.8,531.5 L1010.0,534.6 L1010.2,523.7 L1010.5,529.1 L1010.7,535.4 L1010.9,528.3 L1011.1,526.0 L1011.4,517.4 L1011.6,526.0 L1011.8,521.3 L1012.0,530.7 L1012.2,519.0 L1012.5,529.9 L1012.7,526.8 L1012.9,530.7 L1013.1,522.9 L1013.3,529.9 L1013.6,533.0 L1013.8,519.0 L1014.0,543.2 L1014.2,536.2 L1014.5,537.0 L1014.7,542.4 L1014.9,531.5 L1015.1,540.9 L1015.3,533.0 L1015.6,526.0 L1015.8,530.7 L1016.0,523.7 L1016.2,520.5 L1016.4,531.5 L1016.7,538.5 L1016.9,540.1 L1017.1,531.5 L1017.3,541.7 L1017.6,537.0 L1017.8,533.0 L1018.0,533.0 L1018.2,540.1 L1018.4,537.0 L1018.7,520.5 L1018.9,542.4 L1019.1,527.6 L1019.3,519.7 L1019.5,541.7 L1019.8,526.0 L1020.0,517.4 L1020.2,527.6 L1020.4,521.3 L1020.7,532.3 L1020.9,520.5 L1021.1,535.4 L1021.3,520.5 L1021.5,531.5 L1021.8,535.4 L1022.0,541.7 L1022.2,523.7 L1022.4,535.4 L1022.6,532.3 L1022.9,515.8 L1023.1,523.7 L1023.3,534.6 L1023.5,540.1 L1023.8,527.6 L1024.0,533.0 L1024.2,518.2 L1024.4,533.0 L1024.6,538.5 L1024.9,514.3 L1025.1,528.3 L1025.3,521.3 L1025.5,538.5 L1025.7,511.9 L1026.0,538.5 L1026.2,523.7 L1026.4,530.7 L1026.6,514.3 L1026.9,524.4 L1027.1,526.0 L1027.3,522.9 L1027.5,529.1 L1027.7,528.3 L1028.0,537.7 L1028.2,511.1 L1028.4,530.7 L1028.6,520.5 L1028.8,521.3 L1029.1,525.2 L1029.3,537.0 L1029.5,512.7 L1029.7,516.6 L1030.0,537.0 L1030.2,509.6 L1030.4,515.8 L1030.6,512.7 L1030.8,530.7 L1031.1,519.0 L1031.3,530.7 L1031.5,521.3 L1031.7,536.2 L1032.0,529.9 L1032.2,521.3 L1032.4,530.7 L1032.6,532.3 L1032.8,522.1 L1033.1,519.7 L1033.3,521.3 L1033.5,521.3 L1033.7,525.2 L1033.9,517.4 L1034.2,529.1 L1034.4,520.5 L1034.6,527.6 L1034.8,534.6 L1035.1,532.3 L1035.3,523.7 L1035.5,540.1 L1035.7,520.5 L1035.9,544.0 L1036.2,521.3 L1036.4,529.1 L1036.6,515.8 L1036.8,540.9 L1037.0,514.3 L1037.3,526.0 L1037.5,529.9 L1037.7,523.7 L1037.9,537.0 L1038.2,511.9 L1038.4,537.0 L1038.6,529.1 L1038.8,522.9 L1039.0,519.0 L1039.3,529.1 L1039.5,530.7 L1039.7,537.7 L1039.9,529.1 L1040.1,520.5 L1040.4,519.7 L1040.6,533.8 L1040.8,515.8 L1041.0,540.1 L1041.3,519.0 L1041.5,514.3 L1041.7,536.2 L1041.9,522.9 L1042.1,534.6 L1042.4,518.2 L1042.6,527.6 L1042.8,504.9 L1043.0,511.1 L1043.2,524.4 L1043.5,522.1 L1043.7,507.2 L1043.9,511.9 L1044.1,534.6 L1044.4,524.4 L1044.6,519.7 L1044.8,526.8 L1045.0,523.7 L1045.2,528.3 L1045.5,529.9 L1045.7,532.3 L1045.9,514.3 L1046.1,515.8 L1046.3,517.4 L1046.6,516.6 L1046.8,540.9 L1047.0,530.7 L1047.2,519.7 L1047.5,540.1 L1047.7,527.6 L1047.9,530.7 L1048.1,538.5 L1048.3,517.4 L1048.6,506.4 L1048.8,519.7 L1049.0,511.9 L1049.2,522.1 L1049.4,522.9 L1049.7,525.2 L1049.9,509.6 L1050.1,519.7 L1050.3,505.7 L1050.6,524.4 L1050.8,501.7 L1051.0,527.6 L1051.2,504.1 L1051.4,490.0 L1051.7,500.2 L1051.9,508.8 L1052.1,514.3 L1052.3,493.9 L1052.5,503.3 L1052.8,516.6 L1053.0,490.8 L1053.2,493.9 L1053.4,493.9 L1053.7,487.7 L1053.9,490.8 L1054.1,507.2 L1054.3,501.0 L1054.5,487.7 L1054.8,487.7 L1055.0,504.1 L1055.2,504.1 L1055.4,497.8 L1055.6,488.4 L1055.9,493.1 L1056.1,498.6 L1056.3,488.4 L1056.5,492.3 L1056.8,489.2 L1057.0,473.6 L1057.2,488.4 L1057.4,479.0 L1057.6,489.2 L1057.9,474.3 L1058.1,468.1 L1058.3,479.0 L1058.5,477.5 L1058.8,483.0 L1059.0,484.5 L1059.2,484.5 L1059.4,490.8 L1059.6,475.9 L1059.9,469.7 L1060.1,482.2 L1060.3,476.7 L1060.5,468.1 L1060.7,458.7 L1061.0,463.4 L1061.2,461.8 L1061.4,463.4 L1061.6,466.5 L1061.9,454.0 L1062.1,450.9 L1062.3,455.6 L1062.5,461.8 L1062.7,462.6 L1063.0,458.7 L1063.2,464.2 L1063.4,447.7 L1063.6,439.9 L1063.8,450.9 L1064.1,456.3 L1064.3,443.8 L1064.5,452.4 L1064.7,442.3 L1065.0,447.0 L1065.2,457.1 L1065.4,459.5 L1065.6,459.5 L1065.8,471.2 L1066.1,467.3 L1066.3,456.3 L1066.5,460.3 L1066.7,469.7 L1066.9,461.0 L1067.2,463.4 L1067.4,453.2 L1067.6,463.4 L1067.8,461.0 L1068.1,459.5 L1068.3,463.4 L1068.5,450.9 L1068.7,436.8 L1068.9,441.5 L1069.2,443.0 L1069.4,436.0 L1069.6,441.5 L1069.8,433.7 L1070.0,423.5 L1070.3,414.1 L1070.5,413.3 L1070.7,405.5 L1070.9,399.2 L1071.2,405.5 L1071.4,413.3 L1071.6,405.5 L1071.8,397.7 L1072.0,392.2 L1072.3,384.3 L1072.5,378.9 L1072.7,370.3 L1072.9,377.3 L1073.1,381.2 L1073.4,375.0 L1073.6,371.0 L1073.8,360.1 L1074.0,361.7 L1074.3,354.6 L1074.5,353.8 L1074.7,339.7 L1074.9,338.2 L1075.1,335.8 L1075.4,325.7 L1075.6,329.6 L1075.8,338.2 L1076.0,353.8 L1076.2,345.2 L1076.5,344.4 L1076.7,353.0 L1076.9,364.8 L1077.1,365.6 L1077.4,375.0 L1077.6,372.6 L1077.8,378.9 L1078.0,372.6 L1078.2,382.8 L1078.5,376.5 L1078.7,369.5 L1078.9,378.9 L1079.1,369.5 L1079.3,380.4 L1079.6,374.2 L1079.8,367.9 L1080.0,378.9 L1080.2,388.3 L1080.5,393.7 L1080.7,388.3 L1080.9,381.2 L1081.1,385.9 L1081.3,396.1 L1081.6,388.3 L1081.8,398.4 L1082.0,404.7 L1082.2,398.4 L1082.4,405.5 L1082.7,397.7 L1082.9,405.5 L1083.1,414.1 L1083.3,405.5 L1083.6,399.2 L1083.8,405.5 L1084.0,399.2" fill="none" stroke="#ff7f0e" stroke-width="1.1" opacity="0.85"/><text x="616" y="572" font-size="11" fill="#888">time 0..42 s — altitude (blue) &amp; roll (orange)</text></svg>