<svg xmlns="http://www.w3.org/2000/svg" width="1140" height="600" font-family="sans-serif" font-size="13"><rect width="1140" height="600" fill="white"/><text x="20" y="26" font-size="15" fill="#333">Coludo flight</text><rect x="20" y="40" width="540" height="540" fill="#fbfbfb" stroke="#ddd"/><rect x="102" y="237" width="428" height="92" fill="#cde" stroke="#369" opacity="0.7"/><text x="102" y="232" fill="#369" font-size="12">landing zone</text><circle cx="373" cy="381" r="5" fill="black"/><text x="381" y="385" font-size="12">pad</text><path d="M372.7,380.7 L372.7,380.7 L372.7,380.7 L372.7,380.7 L372.7,380.7 L372.7,380.7 L372.7,380.7 L372.7,380.7 L372.7,380.7 L372.7,380.7 L372.7,380.7 L372.7,380.7 L372.7,380.7 L372.7,380.7 L372.7,380.7 L372.7,380.7 L372.7,380.7 L372.7,380.7 L372.7,380.7 L372.7,380.7 L372.7,380.7 L372.7,380.7 L372.7,380.7 L372.7,380.7 L372.7,380.7 L372.7,380.7 L372.7,380.7 L372.7,380.7 L372.7,380.7 L372.7,380.7 L372.7,380.7 L372.7,380.7 L372.7,380.7 L372.7,380.7 L372.7,380.7 L372.7,380.7 L372.7,380.7 L372.7,380.7 L372.7,380.7 L372.7,380.7 L372.7,380.7 L372.7,380.7 L372.7,380.7 L372.7,380.7 L372.7,380.7 L372.7,380.7 L372.7,380.7 L372.7,380.7 L372.7,380.7 L372.7,380.7 L372.7,380.7 L372.7,380.7 L372.7,380.7 L372.7,380.7 L372.7,380.7 L372.7,380.7 L372.7,380.7 L372.7,380.7 L372.7,380.7 L372.7,380.7 L372.7,380.7 L372.7,380.7 L372.7,380.7 L372.7,380.7 L372.7,380.7 L372.7,380.7 L372.7,380.7 L372.9,380.2 L373.4,379.7 L373.6,379.4 L374.1,378.9 L374.5,378.4 L375.0,378.2 L375.4,377.9 L375.9,377.7 L376.6,377.4 L377.1,377.2 L377.7,376.9 L378.4,376.6 L379.1,376.4 L380.0,376.4 L380.7,376.1 L381.4,375.9 L382.1,375.9 L383.0,375.6 L384.0,375.6 L384.9,375.6 L385.8,375.6 L386.7,375.6 L387.6,375.6 L388.6,375.6 L389.7,375.9 L390.6,375.9 L391.5,375.9 L392.7,376.1 L393.6,376.1 L394.8,376.1 L395.7,376.4 L396.8,376.4 L398.0,376.6 L399.1,376.9 L400.1,376.9 L401.2,377.2 L402.4,377.4 L403.5,377.7 L404.7,377.9 L405.8,378.2 L407.2,378.4 L408.3,378.7 L409.5,378.9 L410.6,379.2 L411.8,379.4 L413.2,379.7 L414.3,380.0 L415.5,380.2 L416.6,380.5 L418.0,380.7 L419.1,381.2 L420.3,381.5 L421.7,381.7 L422.8,382.0 L424.0,382.2 L425.4,382.5 L426.5,383.0 L427.7,383.3 L428.8,383.5 L430.2,383.8 L431.3,384.0 L432.5,384.3 L433.9,384.5 L435.0,384.8 L436.2,385.1 L437.3,385.6 L438.7,385.8 L439.8,386.1 L441.0,386.3 L442.1,386.6 L443.3,386.8 L444.7,387.1 L445.8,387.3 L447.0,387.6 L448.1,387.9 L449.3,388.1 L450.4,388.4 L451.6,388.6 L452.7,388.6 L453.9,388.9 L455.0,389.1 L456.2,389.1 L457.1,389.4 L458.2,389.4 L459.2,389.6 L460.3,389.6 L461.2,389.6 L462.2,389.9 L463.3,389.9 L464.2,389.9 L465.1,389.9 L466.1,389.9 L466.8,389.6 L467.7,389.6 L468.4,389.6 L469.3,389.4 L470.0,389.1 L470.7,389.1 L471.4,388.9 L472.3,388.9 L473.0,388.6 L473.7,388.4 L474.1,388.1 L474.8,387.9 L475.5,387.6 L476.2,387.3 L476.9,387.1 L477.3,386.8 L478.0,386.6 L478.7,386.3 L479.2,386.1 L479.9,385.8 L480.6,385.6 L481.0,385.3 L481.7,385.1 L482.2,384.8 L482.9,384.5 L483.3,384.3 L484.0,384.0 L484.5,383.5 L484.9,383.3 L485.4,383.0 L486.1,382.8 L486.5,382.2 L487.0,382.0 L487.5,381.7 L487.9,381.2 L488.6,381.0 L489.1,380.7 L489.5,380.2 L490.0,380.0 L490.4,379.7 L490.9,379.2 L491.4,378.9 L491.8,378.7 L492.3,378.2 L492.7,377.9 L493.2,377.4 L493.7,377.2 L493.9,376.6 L494.4,376.1 L494.6,375.6 L494.8,375.1 L495.0,374.9 L495.3,374.3 L495.5,373.8 L495.7,373.1 L496.0,372.6 L496.2,372.1 L496.2,371.5 L496.4,371.0 L496.4,370.5 L496.7,370.0 L496.7,369.3 L496.7,368.7 L496.9,368.2 L496.9,367.5 L496.9,367.0 L496.9,366.4 L497.1,365.7 L497.1,365.2 L497.1,364.7 L497.1,363.9 L497.1,363.4 L497.1,362.6 L497.1,362.1 L497.1,361.6 L497.1,360.8 L497.1,360.3 L497.1,359.6 L497.1,359.1 L497.1,358.5 L497.3,357.8 L497.3,357.3 L497.3,356.8 L497.6,356.0 L497.6,355.5 L497.6,355.0 L497.8,354.5 L497.8,353.7 L498.0,353.2 L498.0,352.7 L498.0,352.2 L498.3,351.4 L498.3,350.9 L498.3,350.4 L498.5,349.6 L498.5,349.1 L498.5,348.6 L498.5,347.8 L498.5,347.3 L498.5,346.6 L498.5,346.1 L498.5,345.6 L498.5,344.8 L498.5,344.3 L498.5,343.5 L498.5,343.0 L498.5,342.2 L498.5,341.7 L498.5,341.2 L498.5,340.5 L498.5,339.9 L498.5,339.2 L498.7,338.7 L498.7,338.2 L498.7,337.4 L498.7,336.9 L498.7,336.4 L498.7,335.9 L498.7,335.4 L499.0,334.8 L499.0,334.6 L499.0,334.1 L499.2,333.6 L499.2,333.1 L499.2,332.6 L499.4,332.0 L499.4,331.5 L499.6,331.3 L499.6,330.8 L499.9,330.3 L499.9,329.8 L500.1,329.5 L500.3,329.0 L500.3,328.5 L500.6,328.0 L500.6,327.5 L500.6,326.9 L500.6,326.4 L500.6,325.9 L500.6,325.4 L500.3,324.9 L500.1,324.1 L499.9,323.6 L499.6,322.9 L499.2,322.4 L498.7,321.6 L498.3,320.8 L497.6,320.3 L497.1,319.6 L496.4,318.8 L495.7,318.0 L494.8,317.3 L493.9,316.5 L493.0,315.5 L492.1,314.7 L491.1,314.0 L490.0,313.2 L488.8,312.4 L487.7,311.7 L486.3,310.6 L484.9,309.9 L483.8,309.1 L482.2,308.3 L480.8,307.3 L479.4,306.6 L477.8,305.8 L476.2,305.0 L474.6,304.0 L473.0,303.2 L471.4,302.5 L469.7,301.7 L468.1,301.0 L466.3,299.9 L464.7,299.2 L462.8,298.4 L461.0,297.6 L459.2,296.9 L457.3,296.1 L455.5,295.3 L453.6,294.6 L451.6,293.8 L449.7,293.1 L447.7,292.3 L445.6,291.5 L443.5,290.8 L441.5,290.0 L439.2,289.2 L437.1,288.5 L434.8,287.7 L432.7,287.2 L430.4,286.4 L428.1,285.7 L425.8,284.9 L423.5,284.4 L421.2,283.6 L418.9,282.9 L416.6,282.3 L414.1,281.6 L411.8,281.1 L409.3,280.3 L406.7,279.8 L404.4,279.0 L401.9,278.5 L399.4,277.8 L396.8,277.3 L394.3,276.5 L391.8,276.0 L389.0,275.5 L386.5,275.0 L383.7,274.4 L381.0,273.7 L378.2,273.2 L375.4,272.7 L372.7,272.4 L369.9,271.9 L366.9,271.4 L364.2,270.9 L361.2,270.4 L358.2,270.1 L355.2,269.6 L352.2,269.4 L349.2,268.8 L346.2,268.6 L343.0,268.3 L339.8,268.1 L336.8,267.6 L333.6,267.3 L330.4,267.3 L327.1,267.1 L323.9,266.8 L320.5,266.5 L317.3,266.3 L313.8,266.3 L310.6,266.0 L307.1,266.0 L303.7,266.0 L300.2,265.8 L296.8,265.8 L293.3,265.8 L289.9,265.8 L286.4,265.8 L282.8,265.5 L279.3,265.5 L275.9,265.5 L272.4,265.5 L268.7,265.5 L265.3,265.5 L261.8,265.5 L258.4,265.5 L254.9,265.3 L251.7,265.3 L248.3,265.0 L244.8,265.0 L241.6,264.8 L238.4,264.5 L234.9,264.5 L231.7,264.3 L228.5,264.0 L225.3,263.7 L222.0,263.5 L218.8,263.2 L215.6,263.0 L212.6,262.7 L209.4,262.5 L206.2,262.2 L202.9,262.0 L200.0,261.7 L196.7,261.2 L193.5,260.9 L190.5,260.7 L187.3,260.4 L184.3,260.2 L181.1,259.7 L178.1,259.4 L175.1,258.9 L172.1,258.6 L169.1,258.1 L166.4,257.9 L163.4,257.4 L160.6,256.9 L157.6,256.4 L154.9,255.8 L152.1,255.3 L149.1,254.8 L146.4,254.6 L143.6,254.1 L140.8,253.6 L138.1,253.0 L135.3,252.5 L132.6,252.0 L129.8,251.5 L127.3,250.7 L124.5,250.2 L122.0,249.7 L119.5,249.0 L116.9,248.5 L114.4,247.9 L111.9,247.2 L109.6,246.7 L107.0,245.9 L104.7,245.1 L102.2,244.6 L99.9,243.9 L97.4,243.4 L95.1,242.6 L92.8,241.8 L90.5,241.3 L88.2,240.6 L85.6,240.0 L83.3,239.3 L81.0,238.5 L78.7,238.0 L76.2,237.2 L73.9,236.5 L71.6,236.0 L69.1,235.2 L66.8,234.7 L64.5,233.9 L62.0,233.2 L59.7,232.7 L57.1,231.9 L54.8,231.4 L52.3,230.6 L50.0,230.1" fill="none" stroke="#1f77b4" stroke-width="1.7" opacity="0.85"/><circle cx="50" cy="230" r="4.5" fill="#1f77b4"/><text x="28" y="572" font-size="11" fill="#888">ground track — m from pad (N up)</text><rect x="580" y="40" width="540" height="540" fill="#fbfbfb" stroke="#ddd"/><text x="586" y="54" fill="#1f77b4" font-size="11">alt 457</text><text x="586" y="558" fill="#1f77b4" font-size="11">1</text><path d="M616.0,544.0 L616.2,544.0 L616.4,543.9 L616.5,543.3 L616.7,542.5 L616.9,541.1 L617.1,540.7 L617.2,543.4 L617.4,543.0 L617.6,543.5 L617.8,541.1 L617.9,542.5 L618.1,542.4 L618.3,541.0 L618.5,543.1 L618.7,540.4 L618.8,542.4 L619.0,541.7 L619.2,541.4 L619.4,538.7 L619.5,542.4 L619.7,540.0 L619.9,539.8 L620.1,538.1 L620.2,541.6 L620.4,540.3 L620.6,541.8 L620.8,537.1 L620.9,536.3 L621.1,537.0 L621.3,538.1 L621.5,534.1 L621.7,540.4 L621.8,539.0 L622.0,541.0 L622.2,537.6 L622.4,537.2 L622.5,538.7 L622.7,533.0 L622.9,531.0 L623.1,533.8 L623.2,539.0 L623.4,537.1 L623.6,531.8 L623.8,531.7 L624.0,531.8 L624.1,537.0 L624.3,525.3 L624.5,537.4 L624.7,532.3 L624.8,528.1 L625.0,528.3 L625.2,535.5 L625.4,536.0 L625.5,521.2 L625.7,534.2 L625.9,529.1 L626.1,533.7 L626.2,516.6 L626.4,531.9 L626.6,531.4 L626.8,515.1 L627.0,516.5 L627.1,526.6 L627.3,526.9 L627.5,530.1 L627.7,521.4 L627.8,511.0 L628.0,526.1 L628.2,522.7 L628.4,511.9 L628.5,515.5 L628.7,518.8 L628.9,511.1 L629.1,528.7 L629.3,523.0 L629.4,506.2 L629.6,524.6 L629.8,515.4 L630.0,522.1 L630.1,516.5 L630.3,497.3 L630.5,507.6 L630.7,517.3 L630.8,506.2 L631.0,518.8 L631.2,504.5 L631.4,507.3 L631.5,485.2 L631.7,507.3 L631.9,488.3 L632.1,493.3 L632.3,517.2 L632.4,486.6 L632.6,516.5 L632.8,477.7 L633.0,502.2 L633.1,493.0 L633.3,478.7 L633.5,497.2 L633.7,504.4 L633.8,507.9 L634.0,493.1 L634.2,498.9 L634.4,497.4 L634.6,471.3 L634.7,486.4 L634.9,500.4 L635.1,505.0 L635.3,466.1 L635.4,467.4 L635.6,509.6 L635.8,487.1 L636.0,511.0 L636.1,458.8 L636.3,512.3 L636.5,473.3 L636.7,511.3 L636.8,457.3 L637.0,479.3 L637.2,487.2 L637.4,504.5 L637.6,497.2 L637.7,443.9 L637.9,437.9 L638.1,442.0 L638.3,457.3 L638.4,470.1 L638.6,467.2 L638.8,461.7 L639.0,432.1 L639.1,443.8 L639.3,472.3 L639.5,444.7 L639.7,422.7 L639.9,497.4 L640.0,445.1 L640.2,481.8 L640.4,436.6 L640.6,405.4 L640.7,445.1 L640.9,411.6 L641.1,445.5 L641.3,399.9 L641.4,408.4 L641.6,471.3 L641.8,453.0 L642.0,436.7 L642.1,417.3 L642.3,457.4 L642.5,483.4 L642.7,483.9 L642.9,414.2 L643.0,414.8 L643.2,422.7 L643.4,425.3 L643.6,389.6 L643.7,463.4 L643.9,484.7 L644.1,462.9 L644.3,476.9 L644.4,368.0 L644.6,379.6 L644.8,402.8 L645.0,428.5 L645.2,393.1 L645.3,424.7 L645.5,457.1 L645.7,477.5 L645.9,446.2 L646.0,394.5 L646.2,343.7 L646.4,470.1 L646.6,368.1 L646.7,400.3 L646.9,407.9 L647.1,400.0 L647.3,346.9 L647.4,401.2 L647.6,442.3 L647.8,387.4 L648.0,402.0 L648.2,351.6 L648.3,387.0 L648.5,361.2 L648.7,434.3 L648.9,332.9 L649.0,405.2 L649.2,440.0 L649.4,448.6 L649.6,370.6 L649.7,414.4 L649.9,429.4 L650.1,340.6 L650.3,414.6 L650.5,453.0 L650.6,310.2 L650.8,424.9 L651.0,346.0 L651.2,421.1 L651.3,409.9 L651.5,373.9 L651.7,309.3 L651.9,326.2 L652.0,328.0 L652.2,365.4 L652.4,336.2 L652.6,406.1 L652.7,268.7 L652.9,301.4 L653.1,398.5 L653.3,376.8 L653.5,384.1 L653.6,345.5 L653.8,319.0 L654.0,373.5 L654.2,409.6 L654.3,286.3 L654.5,303.0 L654.7,395.8 L654.9,415.1 L655.0,376.8 L655.2,277.0 L655.4,399.9 L655.6,380.4 L655.8,419.1 L655.9,244.0 L656.1,249.1 L656.3,257.9 L656.5,415.4 L656.6,390.4 L656.8,373.0 L657.0,355.4 L657.2,234.4 L657.3,390.0 L657.5,324.4 L657.7,420.0 L657.9,417.9 L658.0,266.1 L658.2,373.3 L658.4,293.9 L658.6,273.6 L658.8,398.9 L658.9,252.8 L659.1,344.1 L659.3,392.1 L659.5,262.3 L659.6,344.2 L659.8,342.4 L660.0,389.8 L660.2,277.6 L660.3,315.2 L660.5,198.5 L660.7,367.4 L660.9,277.1 L661.1,376.8 L661.2,348.9 L661.4,254.3 L661.6,325.5 L661.8,206.8 L661.9,322.2 L662.1,322.0 L662.3,218.7 L662.5,287.0 L662.6,193.0 L662.8,355.7 L663.0,197.4 L663.2,200.8 L663.3,246.4 L663.5,414.5 L663.7,358.4 L663.9,313.7 L664.1,170.6 L664.2,371.0 L664.4,233.8 L664.6,397.4 L664.8,238.9 L664.9,395.9 L665.1,325.6 L665.3,295.2 L665.5,379.9 L665.6,164.8 L665.8,184.2 L666.0,380.2 L666.2,176.9 L666.4,253.8 L666.5,346.3 L666.7,212.5 L666.9,392.1 L667.1,359.5 L667.2,260.7 L667.4,228.4 L667.6,236.0 L667.8,390.5 L667.9,249.0 L668.1,343.0 L668.3,332.9 L668.5,387.7 L668.6,227.8 L668.8,300.6 L669.0,184.3 L669.2,168.8 L669.4,278.2 L669.5,290.8 L669.7,137.3 L669.9,153.9 L670.1,330.4 L670.2,190.0 L670.4,383.8 L670.6,224.4 L670.8,349.9 L670.9,221.9 L671.1,252.2 L671.3,235.6 L671.5,380.4 L671.7,160.6 L671.8,201.7 L672.0,116.2 L672.2,294.3 L672.4,388.2 L672.5,152.7 L672.7,349.0 L672.9,117.7 L673.1,313.0 L673.2,254.6 L673.4,336.3 L673.6,383.3 L673.8,231.7 L673.9,127.5 L674.1,248.2 L674.3,260.6 L674.5,265.8 L674.7,274.9 L674.8,260.9 L675.0,133.7 L675.2,170.3 L675.4,189.9 L675.5,108.0 L675.7,166.5 L675.9,379.7 L676.1,235.6 L676.2,173.5 L676.4,314.2 L676.6,147.0 L676.8,273.8 L677.0,253.2 L677.1,219.7 L677.3,222.9 L677.5,218.2 L677.7,390.7 L677.8,180.2 L678.0,131.4 L678.2,224.2 L678.4,372.8 L678.5,100.2 L678.7,250.5 L678.9,325.9 L679.1,361.5 L679.2,103.5 L679.4,371.2 L679.6,279.2 L679.8,247.6 L680.0,232.2 L680.1,292.8 L680.3,304.9 L680.5,240.0 L680.7,246.6 L680.8,222.5 L681.0,313.0 L681.2,282.5 L681.4,104.3 L681.5,286.2 L681.7,318.2 L681.9,330.1 L682.1,334.7 L682.3,104.1 L682.4,113.5 L682.6,355.2 L682.8,166.3 L683.0,218.0 L683.1,299.8 L683.3,164.4 L683.5,174.3 L683.7,250.2 L683.8,174.4 L684.0,262.0 L684.2,327.6 L684.4,357.1 L684.5,276.6 L684.7,160.0 L684.9,316.9 L685.1,144.9 L685.3,178.6 L685.4,360.5 L685.6,127.1 L685.8,192.2 L686.0,117.0 L686.1,155.6 L686.3,255.9 L686.5,110.6 L686.7,351.1 L686.8,288.5 L687.0,272.1 L687.2,362.4 L687.4,218.6 L687.6,95.6 L687.7,76.0 L687.9,234.3 L688.1,316.5 L688.3,207.8 L688.4,139.0 L688.6,346.7 L688.8,224.4 L689.0,99.4 L689.1,222.4 L689.3,178.8 L689.5,125.4 L689.7,176.9 L689.8,327.8 L690.0,242.4 L690.2,124.2 L690.4,99.3 L690.6,375.0 L690.7,95.9 L690.9,209.3 L691.1,214.0 L691.3,182.8 L691.4,156.9 L691.6,303.1 L691.8,79.3 L692.0,332.1 L692.1,317.8 L692.3,254.8 L692.5,249.3 L692.7,254.6 L692.9,227.8 L693.0,351.8 L693.2,94.1 L693.4,184.4 L693.6,267.7 L693.7,340.1 L693.9,328.7 L694.1,366.4 L694.3,256.9 L694.4,123.2 L694.6,183.4 L694.8,218.9 L695.0,333.2 L695.1,144.1 L695.3,299.4 L695.5,146.0 L695.7,310.0 L695.9,139.3 L696.0,244.6 L696.2,189.5 L696.4,313.6 L696.6,128.5 L696.7,203.4 L696.9,345.6 L697.1,204.1 L697.3,172.9 L697.4,118.4 L697.6,181.4 L697.8,182.3 L698.0,267.9 L698.2,172.2 L698.3,281.4 L698.5,239.8 L698.7,338.4 L698.9,288.7 L699.0,285.8 L699.2,231.4 L699.4,189.8 L699.6,308.7 L699.7,336.9 L699.9,275.0 L700.1,109.4 L700.3,179.5 L700.4,273.4 L700.6,201.0 L700.8,380.5 L701.0,300.0 L701.2,164.5 L701.3,115.3 L701.5,269.3 L701.7,124.4 L701.9,297.9 L702.0,365.9 L702.2,315.3 L702.4,163.5 L702.6,125.8 L702.7,332.4 L702.9,181.1 L703.1,250.8 L703.3,250.9 L703.5,86.3 L703.6,184.3 L703.8,274.6 L704.0,128.8 L704.2,262.1 L704.3,217.3 L704.5,155.4 L704.7,126.5 L704.9,214.3 L705.0,163.9 L705.2,125.6 L705.4,273.0 L705.6,116.8 L705.7,330.1 L705.9,215.9 L706.1,105.8 L706.3,335.0 L706.5,86.8 L706.6,264.2 L706.8,93.4 L707.0,223.5 L707.2,310.5 L707.3,190.3 L707.5,230.0 L707.7,184.2 L707.9,282.0 L708.0,283.8 L708.2,103.0 L708.4,142.0 L708.6,253.0 L708.8,141.3 L708.9,286.0 L709.1,264.1 L709.3,274.8 L709.5,363.8 L709.6,358.6 L709.8,151.3 L710.0,280.6 L710.2,303.0 L710.3,309.3 L710.5,240.0 L710.7,309.2 L710.9,170.8 L711.0,151.6 L711.2,192.7 L711.4,293.9 L711.6,163.0 L711.8,89.6 L711.9,186.2 L712.1,360.3 L712.3,218.1 L712.5,298.4 L712.6,120.4 L712.8,285.3 L713.0,109.0 L713.2,177.5 L713.3,228.4 L713.5,174.3 L713.7,228.1 L713.9,271.4 L714.1,91.5 L714.2,180.8 L714.4,251.4 L714.6,317.1 L714.8,177.5 L714.9,363.9 L715.1,235.3 L715.3,153.1 L715.5,276.8 L715.6,273.3 L715.8,336.4 L716.0,138.3 L716.2,104.8 L716.3,269.1 L716.5,330.4 L716.7,203.5 L716.9,270.2 L717.1,376.5 L717.2,204.9 L717.4,132.7 L717.6,136.3 L717.8,208.9 L717.9,389.1 L718.1,377.9 L718.3,209.2 L718.5,170.7 L718.6,126.8 L718.8,311.0 L719.0,222.6 L719.2,190.0 L719.4,247.7 L719.5,308.6 L719.7,382.9 L719.9,225.1 L720.1,200.6 L720.2,320.9 L720.4,358.3 L720.6,105.8 L720.8,377.2 L720.9,163.4 L721.1,225.6 L721.3,186.8 L721.5,153.7 L721.6,96.1 L721.8,173.2 L722.0,189.7 L722.2,291.7 L722.4,350.9 L722.5,376.6 L722.7,352.0 L722.9,147.8 L723.1,190.0 L723.2,175.9 L723.4,225.3 L723.6,145.7 L723.8,392.5 L723.9,358.7 L724.1,340.2 L724.3,392.6 L724.5,342.4 L724.7,166.5 L724.8,300.9 L725.0,326.1 L725.2,316.7 L725.4,395.0 L725.5,172.3 L725.7,218.6 L725.9,204.1 L726.1,195.3 L726.2,294.3 L726.4,177.7 L726.6,388.7 L726.8,279.9 L726.9,167.1 L727.1,293.8 L727.3,169.5 L727.5,214.2 L727.7,341.9 L727.8,173.0 L728.0,218.4 L728.2,125.8 L728.4,240.0 L728.5,153.1 L728.7,172.4 L728.9,320.3 L729.1,113.4 L729.2,348.9 L729.4,343.1 L729.6,373.8 L729.8,129.6 L730.0,391.3 L730.1,121.8 L730.3,156.5 L730.5,109.7 L730.7,165.7 L730.8,358.6 L731.0,132.0 L731.2,336.5 L731.4,345.0 L731.5,141.4 L731.7,319.6 L731.9,132.3 L732.1,248.7 L732.2,171.7 L732.4,279.6 L732.6,321.0 L732.8,221.6 L733.0,250.1 L733.1,314.3 L733.3,123.0 L733.5,253.8 L733.7,136.3 L733.8,374.5 L734.0,243.0 L734.2,158.7 L734.4,277.2 L734.5,125.5 L734.7,388.3 L734.9,106.7 L735.1,366.1 L735.3,267.6 L735.4,216.7 L735.6,355.9 L735.8,224.1 L736.0,114.1 L736.1,138.5 L736.3,228.9 L736.5,105.3 L736.7,302.4 L736.8,350.5 L737.0,109.4 L737.2,252.6 L737.4,390.4 L737.5,210.2 L737.7,349.5 L737.9,218.2 L738.1,326.5 L738.3,334.6 L738.4,284.1 L738.6,153.5 L738.8,146.5 L739.0,109.1 L739.1,333.9 L739.3,339.9 L739.5,193.4 L739.7,321.1 L739.8,108.7 L740.0,215.1 L740.2,219.8 L740.4,172.3 L740.6,206.0 L740.7,353.5 L740.9,230.9 L741.1,145.4 L741.3,158.2 L741.4,205.3 L741.6,260.0 L741.8,295.5 L742.0,291.4 L742.1,151.6 L742.3,125.5 L742.5,175.5 L742.7,131.2 L742.8,132.8 L743.0,138.9 L743.2,384.6 L743.4,186.4 L743.6,262.4 L743.7,357.6 L743.9,326.8 L744.1,383.6 L744.3,119.8 L744.4,358.2 L744.6,308.6 L744.8,291.3 L745.0,192.8 L745.1,357.5 L745.3,181.3 L745.5,319.1 L745.7,307.5 L745.9,361.1 L746.0,216.4 L746.2,341.6 L746.4,305.2 L746.6,341.9 L746.7,219.1 L746.9,288.7 L747.1,293.8 L747.3,369.3 L747.4,354.2 L747.6,114.8 L747.8,269.8 L748.0,159.3 L748.1,177.1 L748.3,180.7 L748.5,157.3 L748.7,154.0 L748.9,132.5 L749.0,291.6 L749.2,126.9 L749.4,382.9 L749.6,342.4 L749.7,176.6 L749.9,140.2 L750.1,165.6 L750.3,228.8 L750.4,177.5 L750.6,215.0 L750.8,287.9 L751.0,374.7 L751.2,278.0 L751.3,219.3 L751.5,151.8 L751.7,360.7 L751.9,270.8 L752.0,348.1 L752.2,129.0 L752.4,378.7 L752.6,138.3 L752.7,261.8 L752.9,247.6 L753.1,277.4 L753.3,377.3 L753.4,133.0 L753.6,251.0 L753.8,356.9 L754.0,322.5 L754.2,215.4 L754.3,281.3 L754.5,367.1 L754.7,332.5 L754.9,340.8 L755.0,299.7 L755.2,397.0 L755.4,209.9 L755.6,236.0 L755.7,284.5 L755.9,290.6 L756.1,158.4 L756.3,206.7 L756.5,395.0 L756.6,163.1 L756.8,271.7 L757.0,163.6 L757.2,285.5 L757.3,325.1 L757.5,218.6 L757.7,326.6 L757.9,210.3 L758.0,139.3 L758.2,391.0 L758.4,208.9 L758.6,317.9 L758.7,207.4 L758.9,325.4 L759.1,305.7 L759.3,247.9 L759.5,219.4 L759.6,245.0 L759.8,135.7 L760.0,393.5 L760.2,213.6 L760.3,143.4 L760.5,253.6 L760.7,144.4 L760.9,171.2 L761.0,289.2 L761.2,171.6 L761.4,311.7 L761.6,380.2 L761.8,310.1 L761.9,273.9 L762.1,198.6 L762.3,355.1 L762.5,397.2 L762.6,296.6 L762.8,396.7 L763.0,258.3 L763.2,322.4 L763.3,229.3 L763.5,222.6 L763.7,194.3 L763.9,213.2 L764.0,158.4 L764.2,186.2 L764.4,263.5 L764.6,153.3 L764.8,330.1 L764.9,227.4 L765.1,268.3 L765.3,136.0 L765.5,326.2 L765.6,381.5 L765.8,142.2 L766.0,223.5 L766.2,368.4 L766.3,221.3 L766.5,136.6 L766.7,324.0 L766.9,247.4 L767.1,381.9 L767.2,373.5 L767.4,381.6 L767.6,161.6 L767.8,362.7 L767.9,216.8 L768.1,355.3 L768.3,264.2 L768.5,290.6 L768.6,371.8 L768.8,223.9 L769.0,359.5 L769.2,217.6 L769.3,248.2 L769.5,135.3 L769.7,198.9 L769.9,367.4 L770.1,365.6 L770.2,339.8 L770.4,136.0 L770.6,132.5 L770.8,161.3 L770.9,249.5 L771.1,247.5 L771.3,336.2 L771.5,151.0 L771.6,169.5 L771.8,285.7 L772.0,229.3 L772.2,243.7 L772.4,406.7 L772.5,254.4 L772.7,353.1 L772.9,156.5 L773.1,346.1 L773.2,196.2 L773.4,335.8 L773.6,334.6 L773.8,244.0 L773.9,140.5 L774.1,318.9 L774.3,395.7 L774.5,215.7 L774.7,170.8 L774.8,386.1 L775.0,290.4 L775.2,295.9 L775.4,137.5 L775.5,211.2 L775.7,180.7 L775.9,213.3 L776.1,370.0 L776.2,271.9 L776.4,298.9 L776.6,228.2 L776.8,367.7 L776.9,328.6 L777.1,215.8 L777.3,162.4 L777.5,388.3 L777.7,140.3 L777.8,386.6 L778.0,187.9 L778.2,320.9 L778.4,220.1 L778.5,328.3 L778.7,397.5 L778.9,180.1 L779.1,337.3 L779.2,218.7 L779.4,203.8 L779.6,220.1 L779.8,231.5 L780.0,295.5 L780.1,356.3 L780.3,162.0 L780.5,222.5 L780.7,267.9 L780.8,246.0 L781.0,217.4 L781.2,285.2 L781.4,327.3 L781.5,376.8 L781.7,323.1 L781.9,290.7 L782.1,367.4 L782.2,314.9 L782.4,397.9 L782.6,325.2 L782.8,193.1 L783.0,184.0 L783.1,279.9 L783.3,215.2 L783.5,206.6 L783.7,228.8 L783.8,369.6 L784.0,409.3 L784.2,298.3 L784.4,243.0 L784.5,377.7 L784.7,322.0 L784.9,227.5 L785.1,242.0 L785.3,320.4 L785.4,251.5 L785.6,388.6 L785.8,215.4 L786.0,199.5 L786.1,236.9 L786.3,328.1 L786.5,256.1 L786.7,217.5 L786.8,300.2 L787.0,364.4 L787.2,199.0 L787.4,328.3 L787.5,291.0 L787.7,383.4 L787.9,212.0 L788.1,209.5 L788.3,388.7 L788.4,176.7 L788.6,269.0 L788.8,228.5 L789.0,240.9 L789.1,249.0 L789.3,214.4 L789.5,306.8 L789.7,281.0 L789.8,246.2 L790.0,191.7 L790.2,411.8 L790.4,382.6 L790.6,365.1 L790.7,189.3 L790.9,309.5 L791.1,336.7 L791.3,353.8 L791.4,412.2 L791.6,272.4 L791.8,319.3 L792.0,311.7 L792.1,201.3 L792.3,178.3 L792.5,246.4 L792.7,275.7 L792.8,189.3 L793.0,168.9 L793.2,191.1 L793.4,385.0 L793.6,362.2 L793.7,185.2 L793.9,296.5 L794.1,203.7 L794.3,410.1 L794.4,211.1 L794.6,355.9 L794.8,182.9 L795.0,249.0 L795.1,354.2 L795.3,249.7 L795.5,256.9 L795.7,382.2 L795.9,227.9 L796.0,383.1 L796.2,212.8 L796.4,271.3 L796.6,169.9 L796.7,399.9 L796.9,211.2 L797.1,384.7 L797.3,344.3 L797.4,293.5 L797.6,312.3 L797.8,295.1 L798.0,222.6 L798.1,255.9 L798.3,318.9 L798.5,340.5 L798.7,313.3 L798.9,263.1 L799.0,314.4 L799.2,243.5 L799.4,262.8 L799.6,219.4 L799.7,378.2 L799.9,289.6 L800.1,346.3 L800.3,396.4 L800.4,385.0 L800.6,212.5 L800.8,407.4 L801.0,195.9 L801.2,271.1 L801.3,310.0 L801.5,326.6 L801.7,178.5 L801.9,356.1 L802.0,257.6 L802.2,384.5 L802.4,358.8 L802.6,278.5 L802.7,290.6 L802.9,311.4 L803.1,410.8 L803.3,235.4 L803.4,285.0 L803.6,390.2 L803.8,252.6 L804.0,284.0 L804.2,273.0 L804.3,339.7 L804.5,303.7 L804.7,281.1 L804.9,221.5 L805.0,286.4 L805.2,389.2 L805.4,370.6 L805.6,331.8 L805.7,415.8 L805.9,206.6 L806.1,233.4 L806.3,288.2 L806.5,399.4 L806.6,246.4 L806.8,257.9 L807.0,226.6 L807.2,311.0 L807.3,362.7 L807.5,398.9 L807.7,190.4 L807.9,343.8 L808.0,412.3 L808.2,308.4 L808.4,362.5 L808.6,348.2 L808.7,408.1 L808.9,211.1 L809.1,324.9 L809.3,270.7 L809.5,384.7 L809.6,368.5 L809.8,273.9 L810.0,254.8 L810.2,386.3 L810.3,176.5 L810.5,362.8 L810.7,264.1 L810.9,322.0 L811.0,420.1 L811.2,398.5 L811.4,178.6 L811.6,315.6 L811.8,177.1 L811.9,180.6 L812.1,261.5 L812.3,312.3 L812.5,336.5 L812.6,345.4 L812.8,362.2 L813.0,271.9 L813.2,324.6 L813.3,229.4 L813.5,399.4 L813.7,338.9 L813.9,349.1 L814.0,208.5 L814.2,295.5 L814.4,186.9 L814.6,316.5 L814.8,324.1 L814.9,347.5 L815.1,277.5 L815.3,255.6 L815.5,182.2 L815.6,265.0 L815.8,321.5 L816.0,261.6 L816.2,287.2 L816.3,354.5 L816.5,359.2 L816.7,231.8 L816.9,327.9 L817.1,300.5 L817.2,359.7 L817.4,357.4 L817.6,314.3 L817.8,268.7 L817.9,283.8 L818.1,304.8 L818.3,350.3 L818.5,263.3 L818.6,198.3 L818.8,183.6 L819.0,233.3 L819.2,290.7 L819.3,215.6 L819.5,184.4 L819.7,248.9 L819.9,218.6 L820.1,232.1 L820.2,286.3 L820.4,403.2 L820.6,258.4 L820.8,288.9 L820.9,299.3 L821.1,389.8 L821.3,231.8 L821.5,193.8 L821.6,207.7 L821.8,219.7 L822.0,393.2 L822.2,337.7 L822.4,341.3 L822.5,347.9 L822.7,228.8 L822.9,312.2 L823.1,261.9 L823.2,307.2 L823.4,409.7 L823.6,418.0 L823.8,277.8 L823.9,393.8 L824.1,309.0 L824.3,345.4 L824.5,231.3 L824.6,325.4 L824.8,344.5 L825.0,294.2 L825.2,396.9 L825.4,352.1 L825.5,325.9 L825.7,227.5 L825.9,349.4 L826.1,240.7 L826.2,285.5 L826.4,250.0 L826.6,310.0 L826.8,219.1 L826.9,295.3 L827.1,228.5 L827.3,194.7 L827.5,191.5 L827.7,237.2 L827.8,350.2 L828.0,388.1 L828.2,351.8 L828.4,247.9 L828.5,304.0 L828.7,376.4 L828.9,194.9 L829.1,216.9 L829.2,426.6 L829.4,303.5 L829.6,239.5 L829.8,286.8 L829.9,421.6 L830.1,291.3 L830.3,402.3 L830.5,260.3 L830.7,398.9 L830.8,295.2 L831.0,340.0 L831.2,338.9 L831.4,422.0 L831.5,412.4 L831.7,210.9 L831.9,429.0 L832.1,373.5 L832.2,338.1 L832.4,313.4 L832.6,298.4 L832.8,411.3 L833.0,255.0 L833.1,371.0 L833.3,210.9 L833.5,264.1 L833.7,367.9 L833.8,231.2 L834.0,309.5 L834.2,271.9 L834.4,210.1 L834.5,306.2 L834.7,309.6 L834.9,280.3 L835.1,353.6 L835.2,338.3 L835.4,232.7 L835.6,262.7 L835.8,388.9 L836.0,289.5 L836.1,347.7 L836.3,237.4 L836.5,332.8 L836.7,257.5 L836.8,422.1 L837.0,297.8 L837.2,222.8 L837.4,345.6 L837.5,369.7 L837.7,349.9 L837.9,271.1 L838.1,317.5 L838.3,265.1 L838.4,271.9 L838.6,332.2 L838.8,375.7 L839.0,383.9 L839.1,279.6 L839.3,281.3 L839.5,342.8 L839.7,345.5 L839.8,216.9 L840.0,240.5 L840.2,226.9 L840.4,354.5 L840.5,320.7 L840.7,351.7 L840.9,427.2 L841.1,260.9 L841.3,397.4 L841.4,270.0 L841.6,229.8 L841.8,359.8 L842.0,234.5 L842.1,259.9 L842.3,325.6 L842.5,255.2 L842.7,249.5 L842.8,332.2 L843.0,360.3 L843.2,258.4 L843.4,284.0 L843.6,392.9 L843.7,304.1 L843.9,278.0 L844.1,248.8 L844.3,293.1 L844.4,228.8 L844.6,372.0 L844.8,230.6 L845.0,285.0 L845.1,267.0 L845.3,287.0 L845.5,263.5 L845.7,265.4 L845.8,275.3 L846.0,392.9 L846.2,213.1 L846.4,387.3 L846.6,220.4 L846.7,313.0 L846.9,311.4 L847.1,258.8 L847.3,423.3 L847.4,317.6 L847.6,312.0 L847.8,241.9 L848.0,329.0 L848.1,306.8 L848.3,395.2 L848.5,322.9 L848.7,407.9 L848.9,223.0 L849.0,319.4 L849.2,251.0 L849.4,218.0 L849.6,256.2 L849.7,224.5 L849.9,337.1 L850.1,337.5 L850.3,359.6 L850.4,256.5 L850.6,240.8 L850.8,410.9 L851.0,395.7 L851.1,412.0 L851.3,436.0 L851.5,276.2 L851.7,262.9 L851.9,321.3 L852.0,325.8 L852.2,404.1 L852.4,317.1 L852.6,312.2 L852.7,411.7 L852.9,361.0 L853.1,259.2 L853.3,337.7 L853.4,430.3 L853.6,250.0 L853.8,322.7 L854.0,266.5 L854.2,278.1 L854.3,316.1 L854.5,362.3 L854.7,266.6 L854.9,276.9 L855.0,322.0 L855.2,375.5 L855.4,232.2 L855.6,357.5 L855.7,280.1 L855.9,283.4 L856.1,285.7 L856.3,384.7 L856.4,428.9 L856.6,309.0 L856.8,353.8 L857.0,337.3 L857.2,269.4 L857.3,322.1 L857.5,359.6 L857.7,309.1 L857.9,242.3 L858.0,378.8 L858.2,399.8 L858.4,364.7 L858.6,431.4 L858.7,328.3 L858.9,342.6 L859.1,409.8 L859.3,243.5 L859.5,425.8 L859.6,425.1 L859.8,385.3 L860.0,329.3 L860.2,362.5 L860.3,249.4 L860.5,327.7 L860.7,420.0 L860.9,279.3 L861.0,307.8 L861.2,344.7 L861.4,327.1 L861.6,391.7 L861.7,322.1 L861.9,382.4 L862.1,429.3 L862.3,408.4 L862.5,264.8 L862.6,389.2 L862.8,435.4 L863.0,352.3 L863.2,318.1 L863.3,322.3 L863.5,315.3 L863.7,427.1 L863.9,354.4 L864.0,398.6 L864.2,435.9 L864.4,408.3 L864.6,347.3 L864.8,314.7 L864.9,344.7 L865.1,375.1 L865.3,314.5 L865.5,354.3 L865.6,373.7 L865.8,254.3 L866.0,336.2 L866.2,366.8 L866.3,361.3 L866.5,275.2 L866.7,252.0 L866.9,336.2 L867.0,382.5 L867.2,396.2 L867.4,348.2 L867.6,345.7 L867.8,260.0 L867.9,287.5 L868.1,299.5 L868.3,259.2 L868.5,333.1 L868.6,294.2 L868.8,437.5 L869.0,295.7 L869.2,336.6 L869.3,299.4 L869.5,367.9 L869.7,443.4 L869.9,264.1 L870.1,366.7 L870.2,344.7 L870.4,442.4 L870.6,424.3 L870.8,356.4 L870.9,246.5 L871.1,309.2 L871.3,340.9 L871.5,409.3 L871.6,316.0 L871.8,353.1 L872.0,351.4 L872.2,337.2 L872.3,372.2 L872.5,305.9 L872.7,295.9 L872.9,344.9 L873.1,423.3 L873.2,323.6 L873.4,358.4 L873.6,388.6 L873.8,370.4 L873.9,246.4 L874.1,425.3 L874.3,435.5 L874.5,403.6 L874.6,345.1 L874.8,318.8 L875.0,421.2 L875.2,268.9 L875.4,367.1 L875.5,364.5 L875.7,337.6 L875.9,419.6 L876.1,257.6 L876.2,254.1 L876.4,393.4 L876.6,392.2 L876.8,345.8 L876.9,298.5 L877.1,395.6 L877.3,328.1 L877.5,347.9 L877.6,314.7 L877.8,413.6 L878.0,325.2 L878.2,292.2 L878.4,309.6 L878.5,400.9 L878.7,439.3 L878.9,313.2 L879.1,267.4 L879.2,281.1 L879.4,384.0 L879.6,291.8 L879.8,305.4 L879.9,333.9 L880.1,393.4 L880.3,429.4 L880.5,339.4 L880.7,304.6 L880.8,429.2 L881.0,360.7 L881.2,305.0 L881.4,310.0 L881.5,430.3 L881.7,313.1 L881.9,304.1 L882.1,443.2 L882.2,406.4 L882.4,406.8 L882.6,288.6 L882.8,348.0 L882.9,258.8 L883.1,419.7 L883.3,398.3 L883.5,259.7 L883.7,395.3 L883.8,411.8 L884.0,423.5 L884.2,449.6 L884.4,275.7 L884.5,384.1 L884.7,394.9 L884.9,322.7 L885.1,340.3 L885.2,441.0 L885.4,387.7 L885.6,282.4 L885.8,425.7 L886.0,358.4 L886.1,373.4 L886.3,347.7 L886.5,438.8 L886.7,402.7 L886.8,322.9 L887.0,278.5 L887.2,435.0 L887.4,368.2 L887.5,339.6 L887.7,382.4 L887.9,359.9 L888.1,417.7 L888.2,367.4 L888.4,403.8 L888.6,422.3 L888.8,282.4 L889.0,431.3 L889.1,432.0 L889.3,428.7 L889.5,270.4 L889.7,396.2 L889.8,411.8 L890.0,443.9 L890.2,396.9 L890.4,380.9 L890.5,348.3 L890.7,380.0 L890.9,282.9 L891.1,319.4 L891.3,424.7 L891.4,398.1 L891.6,282.4 L891.8,376.2 L892.0,305.3 L892.1,370.5 L892.3,451.2 L892.5,370.3 L892.7,315.4 L892.8,343.0 L893.0,415.7 L893.2,433.9 L893.4,299.0 L893.5,320.2 L893.7,431.3 L893.9,300.0 L894.1,289.6 L894.3,316.8 L894.4,398.1 L894.6,399.1 L894.8,367.1 L895.0,386.2 L895.1,437.2 L895.3,378.0 L895.5,342.5 L895.7,435.9 L895.8,319.0 L896.0,409.3 L896.2,282.3 L896.4,377.9 L896.6,342.0 L896.7,275.3 L896.9,448.9 L897.1,292.7 L897.3,291.1 L897.4,335.7 L897.6,433.6 L897.8,338.3 L898.0,308.5 L898.1,419.0 L898.3,445.9 L898.5,291.9 L898.7,425.8 L898.8,336.0 L899.0,351.2 L899.2,363.1 L899.4,379.5 L899.6,388.3 L899.7,401.6 L899.9,310.2 L900.1,387.7 L900.3,333.0 L900.4,287.8 L900.6,346.7 L900.8,337.4 L901.0,360.7 L901.1,378.8 L901.3,341.2 L901.5,397.7 L901.7,406.3 L901.9,429.7 L902.0,305.1 L902.2,436.9 L902.4,363.5 L902.6,302.1 L902.7,430.6 L902.9,366.4 L903.1,285.8 L903.3,301.1 L903.4,434.0 L903.6,457.9 L903.8,354.7 L904.0,324.8 L904.1,404.7 L904.3,315.5 L904.5,454.4 L904.7,339.2 L904.9,340.1 L905.0,287.1 L905.2,369.5 L905.4,315.9 L905.6,446.1 L905.7,428.4 L905.9,406.2 L906.1,329.0 L906.3,438.7 L906.4,337.5 L906.6,361.0 L906.8,416.7 L907.0,381.9 L907.2,381.7 L907.3,395.9 L907.5,304.3 L907.7,396.3 L907.9,444.2 L908.0,339.4 L908.2,428.4 L908.4,295.7 L908.6,415.9 L908.7,296.9 L908.9,347.7 L909.1,334.8 L909.3,411.9 L909.4,354.1 L909.6,456.5 L909.8,325.4 L910.0,315.6 L910.2,364.8 L910.3,451.7 L910.5,328.4 L910.7,401.5 L910.9,390.3 L911.0,356.7 L911.2,318.4 L911.4,312.7 L911.6,383.7 L911.7,346.1 L911.9,355.8 L912.1,294.7 L912.3,387.8 L912.5,383.4 L912.6,328.9 L912.8,362.7 L913.0,357.3 L913.2,308.5 L913.3,427.3 L913.5,454.5 L913.7,345.3 L913.9,449.0 L914.0,397.9 L914.2,362.3 L914.4,445.5 L914.6,399.5 L914.7,454.1 L914.9,311.5 L915.1,340.6 L915.3,337.5 L915.5,337.3 L915.6,365.6 L915.8,418.6 L916.0,334.2 L916.2,329.1 L916.3,422.7 L916.5,385.1 L916.7,346.8 L916.9,463.5 L917.0,462.3 L917.2,439.0 L917.4,384.4 L917.6,352.8 L917.8,384.4 L917.9,380.2 L918.1,412.8 L918.3,378.9 L918.5,426.6 L918.6,360.4 L918.8,306.0 L919.0,424.6 L919.2,411.6 L919.3,461.5 L919.5,455.4 L919.7,312.3 L919.9,418.8 L920.0,379.2 L920.2,432.5 L920.4,316.7 L920.6,325.7 L920.8,454.2 L920.9,449.6 L921.1,372.3 L921.3,330.7 L921.5,307.0 L921.6,422.8 L921.8,329.6 L922.0,396.4 L922.2,432.7 L922.3,451.1 L922.5,429.8 L922.7,417.0 L922.9,435.1 L923.1,379.5 L923.2,440.3 L923.4,452.2 L923.6,458.4 L923.8,414.3 L923.9,396.7 L924.1,372.5 L924.3,463.9 L924.5,340.1 L924.6,361.0 L924.8,427.2 L925.0,464.8 L925.2,317.2 L925.3,370.0 L925.5,424.1 L925.7,425.8 L925.9,451.2 L926.1,348.5 L926.2,452.5 L926.4,350.3 L926.6,313.1 L926.8,433.3 L926.9,341.5 L927.1,357.9 L927.3,465.0 L927.5,330.6 L927.6,437.5 L927.8,435.3 L928.0,338.5 L928.2,316.2 L928.4,336.2 L928.5,402.8 L928.7,453.7 L928.9,368.7 L929.1,382.6 L929.2,450.7 L929.4,465.2 L929.6,408.4 L929.8,392.5 L929.9,462.4 L930.1,364.6 L930.3,412.9 L930.5,460.9 L930.7,422.7 L930.8,448.3 L931.0,337.3 L931.2,403.8 L931.4,329.2 L931.5,438.2 L931.7,457.5 L931.9,393.9 L932.1,403.2 L932.2,329.6 L932.4,364.3 L932.6,405.6 L932.8,385.4 L932.9,361.8 L933.1,414.4 L933.3,350.6 L933.5,351.4 L933.7,422.0 L933.8,458.1 L934.0,379.2 L934.2,429.5 L934.4,361.4 L934.5,361.1 L934.7,414.8 L934.9,345.4 L935.1,425.7 L935.2,404.1 L935.4,361.2 L935.6,325.4 L935.8,406.0 L936.0,447.0 L936.1,441.0 L936.3,370.9 L936.5,428.2 L936.7,463.8 L936.8,391.9 L937.0,377.9 L937.2,371.2 L937.4,390.7 L937.5,380.5 L937.7,414.1 L937.9,345.2 L938.1,460.7 L938.2,445.0 L938.4,433.7 L938.6,468.4 L938.8,395.0 L939.0,344.7 L939.1,376.3 L939.3,465.8 L939.5,441.2 L939.7,410.5 L939.8,418.5 L940.0,401.7 L940.2,384.7 L940.4,418.8 L940.5,419.0 L940.7,462.7 L940.9,435.8 L941.1,472.5 L941.3,350.8 L941.4,345.0 L941.6,352.0 L941.8,429.9 L942.0,398.4 L942.1,430.9 L942.3,361.0 L942.5,351.8 L942.7,435.2 L942.8,425.1 L943.0,367.4 L943.2,464.0 L943.4,437.2 L943.5,418.9 L943.7,459.9 L943.9,448.1 L944.1,345.5 L944.3,376.0 L944.4,359.1 L944.6,460.9 L944.8,365.1 L945.0,474.9 L945.1,396.1 L945.3,401.1 L945.5,455.3 L945.7,436.7 L945.8,363.6 L946.0,411.0 L946.2,389.2 L946.4,417.9 L946.6,423.7 L946.7,395.7 L946.9,466.7 L947.1,386.2 L947.3,346.7 L947.4,456.9 L947.6,420.1 L947.8,415.5 L948.0,450.7 L948.1,422.0 L948.3,451.0 L948.5,450.6 L948.7,462.0 L948.8,347.1 L949.0,447.7 L949.2,396.1 L949.4,398.9 L949.6,422.6 L949.7,348.1 L949.9,433.2 L950.1,413.5 L950.3,423.1 L950.4,458.7 L950.6,410.8 L950.8,472.9 L951.0,466.3 L951.1,453.1 L951.3,406.7 L951.5,367.1 L951.7,401.0 L951.9,398.8 L952.0,472.1 L952.2,466.2 L952.4,418.1 L952.6,440.9 L952.7,404.0 L952.9,455.9 L953.1,422.8 L953.3,423.3 L953.4,418.0 L953.6,362.8 L953.8,478.2 L954.0,380.6 L954.1,414.5 L954.3,401.7 L954.5,457.3 L954.7,380.6 L954.9,372.4 L955.0,396.2 L955.2,473.6 L955.4,371.5 L955.6,425.2 L955.7,468.4 L955.9,401.2 L956.1,358.8 L956.3,384.7 L956.4,414.2 L956.6,435.7 L956.8,369.9 L957.0,421.6 L957.2,480.6 L957.3,401.4 L957.5,415.4 L957.7,433.4 L957.9,414.5 L958.0,450.1 L958.2,391.9 L958.4,476.5 L958.6,414.9 L958.7,395.8 L958.9,364.1 L959.1,365.2 L959.3,458.4 L959.4,428.1 L959.6,410.2 L959.8,405.4 L960.0,404.1 L960.2,478.1 L960.3,442.0 L960.5,457.1 L960.7,483.6 L960.9,397.5 L961.0,417.6 L961.2,390.5 L961.4,450.8 L961.6,416.3 L961.7,449.1 L961.9,422.3 L962.1,400.5 L962.3,420.9 L962.5,402.8 L962.6,464.6 L962.8,379.6 L963.0,412.5 L963.2,479.2 L963.3,392.1 L963.5,437.5 L963.7,417.3 L963.9,371.4 L964.0,417.3 L964.2,431.4 L964.4,417.7 L964.6,441.1 L964.7,413.1 L964.9,473.7 L965.1,419.0 L965.3,391.0 L965.5,393.2 L965.6,408.0 L965.8,456.9 L966.0,476.5 L966.2,400.0 L966.3,391.1 L966.5,387.9 L966.7,409.6 L966.9,438.8 L967.0,445.3 L967.2,474.4 L967.4,387.4 L967.6,449.2 L967.8,412.4 L967.9,373.3 L968.1,387.0 L968.3,458.7 L968.5,399.4 L968.6,483.2 L968.8,467.0 L969.0,436.6 L969.2,480.7 L969.3,457.9 L969.5,435.6 L969.7,470.1 L969.9,394.5 L970.0,438.3 L970.2,384.9 L970.4,402.9 L970.6,477.0 L970.8,480.7 L970.9,385.8 L971.1,468.7 L971.3,400.5 L971.5,415.9 L971.6,438.4 L971.8,472.9 L972.0,449.4 L972.2,469.5 L972.3,480.7 L972.5,481.4 L972.7,413.5 L972.9,393.0 L973.1,394.1 L973.2,471.4 L973.4,404.4 L973.6,428.4 L973.8,472.5 L973.9,452.2 L974.1,446.9 L974.3,449.9 L974.5,488.8 L974.6,457.4 L974.8,436.2 L975.0,454.0 L975.2,440.6 L975.3,404.6 L975.5,388.9 L975.7,434.4 L975.9,477.1 L976.1,447.9 L976.2,420.7 L976.4,402.0 L976.6,405.7 L976.8,464.7 L976.9,440.5 L977.1,409.3 L977.3,483.6 L977.5,456.0 L977.6,401.1 L977.8,408.5 L978.0,425.0 L978.2,392.5 L978.4,447.3 L978.5,395.4 L978.7,390.5 L978.9,486.3 L979.1,466.7 L979.2,389.9 L979.4,419.1 L979.6,412.0 L979.8,465.0 L979.9,454.2 L980.1,394.7 L980.3,456.5 L980.5,412.8 L980.6,450.4 L980.8,475.7 L981.0,455.6 L981.2,443.6 L981.4,479.1 L981.5,401.9 L981.7,485.3 L981.9,471.8 L982.1,461.3 L982.2,432.0 L982.4,411.2 L982.6,416.4 L982.8,427.3 L982.9,434.8 L983.1,421.8 L983.3,447.7 L983.5,476.8 L983.7,476.9 L983.8,478.4 L984.0,403.8 L984.2,494.7 L984.4,441.9 L984.5,438.4 L984.7,459.2 L984.9,460.4 L985.1,471.8 L985.2,441.3 L985.4,442.8 L985.6,415.5 L985.8,437.8 L985.9,466.9 L986.1,465.7 L986.3,420.6 L986.5,442.2 L986.7,431.1 L986.8,415.7 L987.0,421.2 L987.2,456.5 L987.4,438.0 L987.5,419.1 L987.7,435.3 L987.9,477.5 L988.1,462.9 L988.2,474.9 L988.4,469.7 L988.6,448.2 L988.8,416.9 L989.0,472.5 L989.1,427.4 L989.3,439.7 L989.5,453.1 L989.7,410.0 L989.8,427.9 L990.0,455.1 L990.2,429.4 L990.4,416.4 L990.5,420.8 L990.7,418.4 L990.9,413.5 L991.1,480.6 L991.2,483.4 L991.4,439.7 L991.6,457.4 L991.8,460.8 L992.0,441.2 L992.1,448.7 L992.3,443.3 L992.5,423.5 L992.7,436.5 L992.8,462.8 L993.0,431.8 L993.2,422.6 L993.4,411.6 L993.5,481.6 L993.7,479.6 L993.9,473.2 L994.1,464.5 L994.3,455.1 L994.4,499.9 L994.6,438.8 L994.8,490.7 L995.0,457.3 L995.1,431.4 L995.3,447.5 L995.5,478.3 L995.7,414.7 L995.8,494.9 L996.0,412.4 L996.2,443.9 L996.4,477.2 L996.5,448.9 L996.7,441.8 L996.9,455.4 L997.1,484.1 L997.3,488.6 L997.4,420.4 L997.6,418.9 L997.8,478.4 L998.0,489.7 L998.1,464.0 L998.3,488.9 L998.5,464.4 L998.7,449.9 L998.8,432.8 L999.0,481.3 L999.2,417.8 L999.4,439.7 L999.6,452.2 L999.7,433.6 L999.9,465.0 L1000.1,428.6 L1000.3,461.8 L1000.4,478.6 L1000.6,446.5 L1000.8,490.6 L1001.0,480.8 L1001.1,498.5 L1001.3,441.5 L1001.5,427.0 L1001.7,494.7 L1001.8,438.8 L1002.0,426.8 L1002.2,474.1 L1002.4,423.9 L1002.6,468.4 L1002.7,477.9 L1002.9,469.6 L1003.1,490.0 L1003.3,472.0 L1003.4,452.8 L1003.6,433.9 L1003.8,438.5 L1004.0,428.9 L1004.1,494.6 L1004.3,473.3 L1004.5,479.2 L1004.7,504.2 L1004.9,485.0 L1005.0,473.5 L1005.2,505.2 L1005.4,476.9 L1005.6,443.0 L1005.7,483.5 L1005.9,446.1 L1006.1,463.2 L1006.3,445.6 L1006.4,444.5 L1006.6,484.3 L1006.8,471.4 L1007.0,485.0 L1007.1,483.3 L1007.3,483.0 L1007.5,443.9 L1007.7,429.9 L1007.9,465.9 L1008.0,502.3 L1008.2,476.0 L1008.4,462.7 L1008.6,495.5 L1008.7,498.8 L1008.9,496.8 L1009.1,466.7 L1009.3,476.0 L1009.4,445.2 L1009.6,470.6 L1009.8,470.3 L1010.0,450.1 L1010.2,506.4 L1010.3,470.3 L1010.5,439.8 L1010.7,474.7 L1010.9,440.2 L1011.0,475.5 L1011.2,444.8 L1011.4,452.9 L1011.6,447.0 L1011.7,491.4 L1011.9,491.2 L1012.1,500.1 L1012.3,473.6 L1012.4,481.2 L1012.6,456.6 L1012.8,461.9 L1013.0,463.6 L1013.2,447.3 L1013.3,461.0 L1013.5,457.7 L1013.7,444.8 L1013.9,488.3 L1014.0,484.8 L1014.2,478.3 L1014.4,499.3 L1014.6,476.3 L1014.7,482.4 L1014.9,507.1 L1015.1,457.4 L1015.3,504.6 L1015.5,461.7 L1015.6,448.4 L1015.8,468.8 L1016.0,470.8 L1016.2,457.1 L1016.3,449.0 L1016.5,461.6 L1016.7,511.0 L1016.9,451.5 L1017.0,499.7 L1017.2,476.3 L1017.4,492.5 L1017.6,448.3 L1017.7,460.9 L1017.9,490.5 L1018.1,480.2 L1018.3,511.4 L1018.5,510.1 L1018.6,460.8 L1018.8,503.7 L1019.0,508.2 L1019.2,464.0 L1019.3,487.1 L1019.5,466.2 L1019.7,511.3 L1019.9,487.4 L1020.0,467.2 L1020.2,480.5 L1020.4,512.3 L1020.6,481.3 L1020.8,477.3 L1020.9,491.2 L1021.1,502.6 L1021.3,486.4 L1021.5,449.6 L1021.6,490.8 L1021.8,467.9 L1022.0,487.8 L1022.2,509.9 L1022.3,509.1 L1022.5,489.9 L1022.7,496.5 L1022.9,508.1 L1023.0,482.0 L1023.2,471.6 L1023.4,509.5 L1023.6,483.9 L1023.8,458.8 L1023.9,498.3 L1024.1,464.4 L1024.3,485.0 L1024.5,463.7 L1024.6,459.5 L1024.8,470.3 L1025.0,513.4 L1025.2,463.2 L1025.3,498.1 L1025.5,499.4 L1025.7,509.6 L1025.9,494.3 L1026.1,463.5 L1026.2,509.5 L1026.4,457.0 L1026.6,492.0 L1026.8,493.3 L1026.9,515.6 L1027.1,514.1 L1027.3,496.1 L1027.5,479.7 L1027.6,468.2 L1027.8,460.2 L1028.0,464.2 L1028.2,487.4 L1028.3,500.5 L1028.5,507.5 L1028.7,477.4 L1028.9,492.5 L1029.1,483.2 L1029.2,476.8 L1029.4,510.1 L1029.6,514.1 L1029.8,483.3 L1029.9,473.9 L1030.1,495.6 L1030.3,475.1 L1030.5,475.4 L1030.6,500.5 L1030.8,479.5 L1031.0,497.5 L1031.2,465.3 L1031.4,507.5 L1031.5,472.0 L1031.7,497.7 L1031.9,495.6 L1032.1,470.9 L1032.2,501.0 L1032.4,472.2 L1032.6,518.3 L1032.8,493.8 L1032.9,481.5 L1033.1,495.4 L1033.3,477.0 L1033.5,511.1 L1033.6,477.5 L1033.8,491.0 L1034.0,475.6 L1034.2,512.0 L1034.4,515.0 L1034.5,491.3 L1034.7,505.4 L1034.9,473.9 L1035.1,481.3 L1035.2,503.4 L1035.4,510.6 L1035.6,477.4 L1035.8,472.0 L1035.9,475.7 L1036.1,501.7 L1036.3,471.6 L1036.5,476.3 L1036.7,512.0 L1036.8,500.1 L1037.0,475.7 L1037.2,486.6 L1037.4,517.7 L1037.5,518.1 L1037.7,484.3 L1037.9,494.2 L1038.1,481.3 L1038.2,513.7 L1038.4,484.5 L1038.6,508.1 L1038.8,515.1 L1038.9,490.7 L1039.1,481.9 L1039.3,496.5 L1039.5,484.5 L1039.7,487.0 L1039.8,502.7 L1040.0,516.1 L1040.2,509.4 L1040.4,521.0 L1040.5,516.2 L1040.7,492.5 L1040.9,510.4 L1041.1,515.6 L1041.2,489.1 L1041.4,520.6 L1041.6,503.1 L1041.8,492.5 L1042.0,502.9 L1042.1,498.3 L1042.3,488.9 L1042.5,511.5 L1042.7,501.9 L1042.8,487.8 L1043.0,485.9 L1043.2,500.8 L1043.4,490.1 L1043.5,500.3 L1043.7,494.0 L1043.9,523.8 L1044.1,515.7 L1044.2,510.1 L1044.4,522.3 L1044.6,497.1 L1044.8,512.4 L1045.0,508.7 L1045.1,515.1 L1045.3,490.9 L1045.5,520.1 L1045.7,490.8 L1045.8,516.9 L1046.0,486.4 L1046.2,489.8 L1046.4,507.9 L1046.5,500.1 L1046.7,517.8 L1046.9,518.4 L1047.1,490.9 L1047.3,487.5 L1047.4,522.7 L1047.6,514.1 L1047.8,513.7 L1048.0,521.6 L1048.1,489.1 L1048.3,502.8 L1048.5,501.1 L1048.7,502.9 L1048.8,516.2 L1049.0,496.9 L1049.2,499.9 L1049.4,524.1 L1049.5,494.5 L1049.7,502.7 L1049.9,504.0 L1050.1,509.8 L1050.3,514.2 L1050.4,513.6 L1050.6,503.8 L1050.8,506.6 L1051.0,500.3 L1051.1,521.8 L1051.3,507.1 L1051.5,525.2 L1051.7,508.5 L1051.8,506.3 L1052.0,504.8 L1052.2,515.9 L1052.4,498.4 L1052.6,509.5 L1052.7,517.7 L1052.9,507.3 L1053.1,502.1 L1053.3,524.5 L1053.4,500.6 L1053.6,500.7 L1053.8,527.4 L1054.0,525.6 L1054.1,503.0 L1054.3,519.8 L1054.5,518.5 L1054.7,524.3 L1054.8,505.3 L1055.0,511.2 L1055.2,529.1 L1055.4,518.6 L1055.6,524.2 L1055.7,512.7 L1055.9,505.5 L1056.1,522.4 L1056.3,504.6 L1056.4,527.5 L1056.6,516.3 L1056.8,529.0 L1057.0,510.8 L1057.1,507.1 L1057.3,523.8 L1057.5,522.5 L1057.7,507.3 L1057.9,506.4 L1058.0,519.3 L1058.2,517.8 L1058.4,523.9 L1058.6,517.8 L1058.7,530.2 L1058.9,505.1 L1059.1,511.5 L1059.3,529.1 L1059.4,509.2 L1059.6,508.0 L1059.8,513.0 L1060.0,509.8 L1060.1,517.1 L1060.3,511.9 L1060.5,520.9 L1060.7,510.8 L1060.9,520.7 L1061.0,512.0 L1061.2,532.2 L1061.4,526.3 L1061.6,513.4 L1061.7,529.1 L1061.9,516.0 L1062.1,515.8 L1062.3,522.6 L1062.4,521.5 L1062.6,529.4 L1062.8,513.0 L1063.0,517.0 L1063.2,522.1 L1063.3,517.0 L1063.5,528.7 L1063.7,518.6 L1063.9,514.2 L1064.0,512.5 L1064.2,533.2 L1064.4,521.2 L1064.6,532.0 L1064.7,533.4 L1064.9,525.4 L1065.1,530.6 L1065.3,517.6 L1065.4,520.6 L1065.6,528.5 L1065.8,534.9 L1066.0,535.2 L1066.2,524.5 L1066.3,529.1 L1066.5,520.7 L1066.7,517.5 L1066.9,531.3 L1067.0,522.7 L1067.2,521.8 L1067.4,533.6 L1067.6,527.1 L1067.7,525.9 L1067.9,521.7 L1068.1,525.7 L1068.3,533.8 L1068.5,533.5 L1068.6,520.3 L1068.8,532.4 L1069.0,531.3 L1069.2,533.3 L1069.3,521.4 L1069.5,520.8 L1069.7,527.1 L1069.9,522.5 L1070.0,536.2 L1070.2,533.0 L1070.4,522.1 L1070.6,537.2 L1070.7,533.2 L1070.9,522.2 L1071.1,524.1 L1071.3,532.4 L1071.5,526.8 L1071.6,535.6 L1071.8,532.8 L1072.0,538.1 L1072.2,535.5 L1072.3,532.9 L1072.5,537.3 L1072.7,526.1 L1072.9,530.9 L1073.0,526.1 L1073.2,527.1 L1073.4,532.8 L1073.6,527.0 L1073.8,535.0 L1073.9,531.1 L1074.1,537.4 L1074.3,530.9 L1074.5,534.9 L1074.6,527.5 L1074.8,534.2 L1075.0,533.4 L1075.2,529.4 L1075.3,534.0 L1075.5,533.6 L1075.7,536.8 L1075.9,533.9 L1076.0,538.9 L1076.2,539.2 L1076.4,530.4 L1076.6,538.9 L1076.8,535.8 L1076.9,534.8 L1077.1,534.3 L1077.3,538.0 L1077.5,540.5 L1077.6,538.5 L1077.8,533.0 L1078.0,533.6 L1078.2,535.5 L1078.3,538.4 L1078.5,541.0 L1078.7,537.9 L1078.9,534.5 L1079.1,535.6 L1079.2,538.9 L1079.4,534.7 L1079.6,538.5 L1079.8,539.4 L1079.9,539.9 L1080.1,537.8 L1080.3,536.3 L1080.5,537.9 L1080.6,538.2 L1080.8,540.2 L1081.0,541.7 L1081.2,536.9 L1081.3,540.1 L1081.5,542.2 L1081.7,537.8 L1081.9,540.5 L1082.1,539.4 L1082.2,539.8 L1082.4,541.5 L1082.6,543.0 L1082.8,541.4 L1082.9,543.4 L1083.1,540.7 L1083.3,541.3 L1083.5,540.6 L1083.6,542.0 L1083.8,541.1 L1084.0,542.4" fill="none" stroke="#1f77b4" stroke-width="1.4" opacity="0.85"/><text x="1040" y="54" fill="#ff7f0e" font-size="11">roll 96</text><text x="1090" y="558" fill="#ff7f0e" font-size="11">-28</text><path d="M616.0,439.2 L616.2,438.8 L616.4,439.9 L616.5,440.3 L616.7,439.5 L616.9,438.8 L617.1,438.8 L617.2,440.7 L617.4,438.4 L617.6,439.5 L617.8,438.0 L617.9,441.1 L618.1,438.4 L618.3,441.1 L618.5,440.3 L618.7,441.1 L618.8,437.6 L619.0,437.6 L619.2,438.8 L619.4,438.0 L619.5,441.1 L619.7,438.4 L619.9,440.7 L620.1,440.3 L620.2,439.2 L620.4,439.9 L620.6,436.5 L620.8,436.9 L620.9,437.3 L621.1,436.9 L621.3,438.0 L621.5,435.7 L621.7,436.9 L621.8,436.5 L622.0,435.7 L622.2,436.5 L622.4,436.5 L622.5,440.3 L622.7,439.9 L622.9,437.3 L623.1,439.2 L623.2,435.7 L623.4,436.9 L623.6,435.7 L623.8,435.4 L624.0,432.7 L624.1,436.5 L624.3,436.5 L624.5,437.3 L624.7,437.3 L624.8,435.4 L625.0,432.7 L625.2,431.2 L625.4,438.0 L625.5,433.8 L625.7,434.2 L625.9,437.3 L626.1,432.7 L626.2,433.5 L626.4,435.0 L626.6,425.5 L626.8,431.6 L627.0,424.7 L627.1,428.1 L627.3,423.6 L627.5,432.7 L627.7,426.2 L627.8,430.0 L628.0,422.8 L628.2,425.5 L628.4,429.3 L628.5,434.6 L628.7,419.0 L628.9,432.7 L629.1,431.6 L629.3,420.2 L629.4,432.7 L629.6,416.0 L629.8,422.1 L630.0,432.7 L630.1,427.4 L630.3,424.0 L630.5,430.0 L630.7,416.7 L630.8,419.8 L631.0,416.7 L631.2,420.2 L631.4,411.4 L631.5,410.3 L631.7,409.1 L631.9,428.9 L632.1,412.9 L632.3,412.6 L632.4,411.8 L632.6,415.6 L632.8,416.4 L633.0,403.4 L633.1,406.5 L633.3,419.0 L633.5,426.6 L633.7,416.0 L633.8,426.6 L634.0,394.3 L634.2,397.0 L634.4,407.2 L634.6,397.4 L634.7,414.1 L634.9,402.3 L635.1,422.8 L635.3,408.4 L635.4,417.1 L635.6,406.1 L635.8,408.0 L636.0,390.2 L636.1,420.2 L636.3,412.6 L636.5,421.7 L636.7,417.5 L636.8,408.8 L637.0,397.0 L637.2,382.2 L637.4,406.1 L637.6,377.2 L637.7,400.0 L637.9,398.5 L638.1,391.7 L638.3,389.0 L638.4,394.0 L638.6,389.0 L638.8,409.9 L639.0,370.4 L639.1,376.9 L639.3,366.6 L639.5,385.2 L639.7,401.5 L639.9,400.0 L640.0,370.4 L640.2,395.5 L640.4,368.5 L640.6,359.8 L640.7,406.9 L640.9,405.7 L641.1,410.3 L641.3,364.3 L641.4,392.1 L641.6,385.2 L641.8,370.4 L642.0,352.9 L642.1,389.0 L642.3,382.6 L642.5,336.2 L642.7,390.5 L642.9,349.5 L643.0,363.2 L643.2,403.4 L643.4,394.7 L643.6,382.6 L643.7,337.4 L643.9,324.8 L644.1,337.0 L644.3,387.5 L644.4,385.2 L644.6,371.9 L644.8,371.9 L645.0,372.3 L645.2,392.1 L645.3,387.5 L645.5,379.5 L645.7,327.9 L645.9,334.7 L646.0,393.2 L646.2,383.7 L646.4,359.0 L646.6,302.0 L646.7,305.1 L646.9,309.6 L647.1,338.9 L647.3,381.8 L647.4,366.6 L647.6,303.5 L647.8,301.3 L648.0,294.8 L648.2,354.4 L648.3,357.9 L648.5,382.9 L648.7,364.3 L648.9,355.2 L649.0,344.2 L649.2,370.0 L649.4,385.6 L649.6,278.1 L649.7,277.7 L649.9,352.5 L650.1,273.2 L650.3,297.5 L650.5,302.4 L650.6,296.7 L650.8,369.6 L651.0,268.2 L651.2,306.6 L651.3,316.5 L651.5,375.7 L651.7,377.2 L651.9,378.8 L652.0,269.7 L652.2,254.9 L652.4,256.8 L652.6,327.5 L652.7,314.2 L652.9,330.9 L653.1,324.4 L653.3,314.6 L653.5,289.1 L653.6,287.2 L653.8,291.8 L654.0,303.5 L654.2,277.0 L654.3,362.8 L654.5,335.1 L654.7,362.4 L654.9,370.0 L655.0,346.1 L655.2,306.6 L655.4,231.7 L655.6,256.4 L655.8,284.5 L655.9,225.3 L656.1,281.5 L656.3,302.4 L656.5,223.4 L656.6,340.0 L656.8,291.0 L657.0,239.0 L657.2,282.3 L657.3,244.7 L657.5,349.1 L657.7,310.0 L657.9,261.0 L658.0,299.0 L658.2,265.2 L658.4,354.8 L658.6,338.9 L658.8,210.9 L658.9,222.2 L659.1,234.0 L659.3,269.0 L659.5,341.1 L659.6,261.0 L659.8,335.8 L660.0,343.0 L660.2,340.8 L660.3,236.7 L660.5,220.0 L660.7,218.1 L660.9,207.4 L661.1,221.1 L661.2,253.0 L661.4,302.8 L661.6,244.7 L661.8,190.0 L661.9,342.3 L662.1,215.8 L662.3,175.5 L662.5,232.5 L662.6,241.2 L662.8,219.6 L663.0,227.9 L663.2,303.9 L663.3,229.5 L663.5,347.6 L663.7,170.6 L663.9,234.8 L664.1,180.1 L664.2,220.0 L664.4,258.0 L664.6,255.7 L664.8,200.2 L664.9,245.8 L665.1,165.6 L665.3,175.1 L665.5,291.8 L665.6,172.9 L665.8,181.2 L666.0,239.3 L666.2,288.3 L666.4,192.2 L666.5,209.7 L666.7,337.4 L666.9,178.2 L667.1,335.5 L667.2,185.4 L667.4,152.4 L667.6,332.4 L667.8,234.4 L667.9,221.9 L668.1,305.4 L668.3,159.2 L668.5,180.5 L668.6,331.3 L668.8,331.7 L669.0,308.1 L669.2,76.0 L669.4,168.7 L669.5,250.0 L669.7,200.6 L669.9,264.8 L670.1,260.2 L670.2,237.1 L670.4,263.3 L670.6,132.6 L670.8,184.3 L670.9,221.9 L671.1,141.7 L671.3,280.8 L671.5,210.5 L671.7,293.7 L671.8,147.4 L672.0,178.9 L672.2,319.5 L672.4,275.4 L672.5,235.9 L672.7,159.2 L672.9,122.0 L673.1,223.4 L673.2,215.0 L673.4,330.9 L673.6,176.3 L673.8,166.0 L673.9,214.7 L674.1,286.1 L674.3,111.7 L674.5,109.8 L674.7,217.3 L674.8,118.9 L675.0,248.5 L675.2,176.3 L675.4,165.3 L675.5,268.6 L675.7,160.0 L675.9,316.8 L676.1,263.3 L676.2,145.5 L676.4,251.9 L676.6,136.8 L676.8,158.8 L677.0,222.2 L677.1,113.6 L677.3,118.5 L677.5,178.9 L677.7,228.7 L677.8,116.3 L678.0,157.7 L678.2,309.2 L678.4,183.5 L678.5,111.7 L678.7,296.7 L678.9,232.9 L679.1,233.3 L679.2,209.0 L679.4,101.1 L679.6,443.7 L679.8,439.5 L680.0,430.4 L680.1,431.2 L680.3,435.4 L680.5,430.8 L680.7,431.6 L680.8,421.7 L681.0,421.3 L681.2,422.8 L681.4,414.1 L681.5,429.7 L681.7,400.8 L681.9,430.4 L682.1,421.3 L682.3,416.4 L682.4,414.5 L682.6,420.2 L682.8,423.6 L683.0,392.8 L683.1,411.4 L683.3,407.2 L683.5,408.8 L683.7,427.4 L683.8,415.6 L684.0,422.1 L684.2,399.3 L684.4,413.7 L684.5,393.6 L684.7,415.2 L684.9,425.9 L685.1,399.3 L685.3,404.6 L685.4,416.0 L685.6,421.7 L685.8,394.7 L686.0,423.6 L686.1,402.7 L686.3,421.7 L686.5,414.8 L686.7,419.0 L686.8,413.3 L687.0,407.2 L687.2,410.3 L687.4,402.3 L687.6,422.8 L687.7,392.1 L687.9,398.9 L688.1,403.1 L688.3,408.4 L688.4,398.9 L688.6,418.6 L688.8,418.3 L689.0,418.6 L689.1,417.1 L689.3,408.8 L689.5,401.2 L689.7,412.9 L689.8,422.4 L690.0,425.9 L690.2,410.7 L690.4,421.7 L690.6,415.2 L690.7,424.3 L690.9,428.9 L691.1,424.0 L691.3,425.5 L691.4,411.0 L691.6,422.1 L691.8,425.5 L692.0,425.5 L692.1,422.1 L692.3,412.2 L692.5,422.8 L692.7,422.4 L692.9,428.1 L693.0,429.3 L693.2,433.8 L693.4,425.1 L693.6,419.0 L693.7,425.5 L693.9,422.4 L694.1,425.5 L694.3,424.3 L694.4,431.6 L694.6,425.9 L694.8,413.3 L695.0,430.0 L695.1,430.0 L695.3,429.3 L695.5,427.0 L695.7,411.8 L695.9,433.8 L696.0,434.6 L696.2,433.8 L696.4,431.2 L696.6,417.5 L696.7,429.7 L696.9,426.6 L697.1,425.1 L697.3,422.4 L697.4,407.2 L697.6,427.4 L697.8,410.7 L698.0,421.7 L698.2,412.2 L698.3,406.1 L698.5,418.6 L698.7,410.7 L698.9,414.5 L699.0,416.4 L699.2,411.0 L699.4,417.1 L699.6,416.7 L699.7,411.4 L699.9,401.9 L700.1,416.7 L700.3,393.6 L700.4,398.1 L700.6,426.6 L700.8,411.8 L701.0,420.5 L701.2,408.0 L701.3,430.8 L701.5,414.5 L701.7,418.3 L701.9,426.6 L702.0,422.1 L702.2,426.2 L702.4,430.4 L702.6,425.1 L702.7,408.4 L702.9,412.2 L703.1,433.8 L703.3,425.1 L703.5,414.5 L703.6,413.7 L703.8,434.2 L704.0,430.4 L704.2,434.6 L704.3,416.4 L704.5,425.1 L704.7,432.7 L704.9,431.2 L705.0,434.6 L705.2,434.2 L705.4,437.3 L705.6,437.6 L705.7,437.6 L705.9,437.3 L706.1,431.6 L706.3,435.7 L706.5,428.1 L706.6,433.1 L706.8,438.8 L707.0,437.3 L707.2,435.7 L707.3,434.2 L707.5,430.8 L707.7,426.2 L707.9,436.9 L708.0,435.7 L708.2,425.9 L708.4,416.0 L708.6,431.9 L708.8,428.5 L708.9,433.5 L709.1,432.7 L709.3,422.1 L709.5,431.2 L709.6,432.3 L709.8,422.1 L710.0,431.2 L710.2,432.3 L710.3,423.2 L710.5,427.0 L710.7,428.1 L710.9,424.3 L711.0,413.7 L711.2,409.5 L711.4,427.8 L711.6,427.4 L711.8,417.5 L711.9,428.5 L712.1,432.3 L712.3,425.5 L712.5,427.4 L712.6,421.3 L712.8,436.9 L713.0,434.6 L713.2,421.3 L713.3,420.5 L713.5,421.7 L713.7,422.1 L713.9,424.7 L714.1,431.9 L714.2,424.7 L714.4,428.1 L714.6,437.3 L714.8,422.1 L714.9,437.6 L715.1,431.2 L715.3,418.3 L715.5,420.2 L715.6,430.0 L715.8,419.8 L716.0,415.6 L716.2,428.9 L716.3,424.7 L716.5,426.2 L716.7,425.1 L716.9,435.4 L717.1,431.9 L717.2,430.4 L717.4,438.4 L717.6,434.2 L717.8,436.5 L717.9,430.0 L718.1,436.5 L718.3,441.4 L718.5,440.7 L718.6,435.4 L718.8,434.2 L719.0,428.1 L719.2,433.5 L719.4,420.2 L719.5,426.2 L719.7,432.3 L719.9,425.5 L720.1,428.9 L720.2,419.8 L720.4,424.0 L720.6,420.5 L720.8,422.4 L720.9,417.9 L721.1,431.6 L721.3,419.4 L721.5,435.4 L721.6,420.9 L721.8,432.3 L722.0,425.5 L722.2,404.6 L722.4,425.9 L722.5,435.4 L722.7,437.6 L722.9,435.7 L723.1,435.4 L723.2,435.0 L723.4,432.3 L723.6,436.9 L723.8,438.4 L723.9,437.6 L724.1,441.4 L724.3,435.7 L724.5,431.9 L724.7,429.3 L724.8,435.4 L725.0,427.8 L725.2,438.4 L725.4,434.2 L725.5,420.9 L725.7,427.0 L725.9,424.7 L726.1,432.3 L726.2,440.3 L726.4,431.9 L726.6,431.6 L726.8,436.9 L726.9,440.7 L727.1,442.2 L727.3,441.4 L727.5,441.4 L727.7,445.2 L727.8,439.9 L728.0,446.8 L728.2,446.4 L728.4,448.7 L728.5,441.4 L728.7,447.5 L728.9,440.3 L729.1,445.2 L729.2,441.8 L729.4,437.3 L729.6,430.8 L729.8,438.8 L730.0,436.1 L730.1,435.7 L730.3,428.9 L730.5,424.0 L730.7,427.0 L730.8,416.4 L731.0,428.9 L731.2,431.9 L731.4,433.8 L731.5,436.9 L731.7,435.7 L731.9,438.0 L732.1,438.8 L732.2,439.2 L732.4,434.2 L732.6,434.2 L732.8,433.1 L733.0,431.9 L733.1,433.8 L733.3,435.4 L733.5,441.4 L733.7,442.2 L733.8,438.0 L734.0,444.5 L734.2,439.5 L734.4,441.4 L734.5,438.4 L734.7,445.6 L734.9,438.8 L735.1,441.4 L735.3,437.3 L735.4,444.9 L735.6,438.4 L735.8,444.5 L736.0,438.8 L736.1,445.2 L736.3,439.9 L736.5,435.4 L736.7,437.3 L736.8,435.4 L737.0,441.8 L737.2,446.4 L737.4,445.6 L737.5,443.3 L737.7,445.6 L737.9,442.6 L738.1,438.8 L738.3,445.6 L738.4,454.4 L738.6,443.0 L738.8,454.4 L739.0,440.3 L739.1,442.6 L739.3,440.7 L739.5,441.1 L739.7,443.7 L739.8,438.8 L740.0,433.5 L740.2,437.6 L740.4,440.3 L740.6,437.3 L740.7,431.2 L740.9,436.9 L741.1,444.1 L741.3,439.5 L741.4,443.0 L741.6,438.8 L741.8,438.8 L742.0,435.4 L742.1,437.3 L742.3,439.5 L742.5,439.2 L742.7,440.3 L742.8,436.9 L743.0,438.0 L743.2,435.0 L743.4,441.4 L743.6,437.3 L743.7,437.3 L743.9,435.7 L744.1,440.7 L744.3,440.7 L744.4,440.3 L744.6,446.0 L744.8,447.9 L745.0,447.5 L745.1,443.7 L745.3,451.3 L745.5,444.1 L745.7,441.8 L745.9,441.4 L746.0,450.9 L746.2,442.2 L746.4,439.5 L746.6,437.3 L746.7,434.2 L746.9,436.9 L747.1,440.7 L747.3,443.0 L747.4,442.2 L747.6,441.1 L747.8,441.8 L748.0,441.8 L748.1,451.7 L748.3,444.9 L748.5,438.8 L748.7,440.7 L748.9,449.0 L749.0,444.5 L749.2,446.0 L749.4,443.3 L749.6,447.9 L749.7,443.3 L749.9,446.4 L750.1,443.7 L750.3,439.9 L750.4,439.2 L750.6,436.5 L750.8,440.7 L751.0,437.6 L751.2,431.2 L751.3,435.4 L751.5,435.7 L751.7,425.5 L751.9,436.5 L752.0,431.2 L752.2,437.3 L752.4,441.1 L752.6,445.6 L752.7,440.3 L752.9,438.4 L753.1,429.3 L753.3,435.0 L753.4,431.2 L753.6,440.3 L753.8,438.0 L754.0,428.5 L754.2,431.9 L754.3,436.9 L754.5,435.7 L754.7,428.9 L754.9,430.4 L755.0,435.7 L755.2,441.8 L755.4,439.2 L755.6,437.6 L755.7,439.9 L755.9,444.1 L756.1,445.6 L756.3,445.2 L756.5,455.1 L756.6,452.1 L756.8,446.0 L757.0,453.6 L757.2,448.3 L757.3,457.4 L757.5,452.1 L757.7,455.9 L757.9,443.0 L758.0,447.9 L758.2,439.9 L758.4,441.8 L758.6,455.1 L758.7,448.3 L758.9,451.3 L759.1,450.2 L759.3,452.5 L759.5,451.3 L759.6,450.9 L759.8,444.9 L760.0,463.5 L760.2,452.8 L760.3,460.0 L760.5,457.8 L760.7,454.4 L760.9,447.1 L761.0,449.4 L761.2,461.2 L761.4,447.1 L761.6,449.4 L761.8,449.4 L761.9,456.2 L762.1,441.8 L762.3,446.4 L762.5,447.9 L762.6,442.2 L762.8,443.7 L763.0,451.3 L763.2,453.6 L763.3,446.0 L763.5,454.7 L763.7,446.4 L763.9,446.0 L764.0,447.5 L764.2,445.2 L764.4,444.9 L764.6,443.7 L764.8,445.6 L764.9,444.9 L765.1,448.3 L765.3,457.4 L765.5,460.4 L765.6,465.4 L765.8,460.0 L766.0,467.6 L766.2,450.2 L766.3,457.8 L766.5,447.1 L766.7,456.2 L766.9,457.4 L767.1,455.9 L767.2,445.2 L767.4,448.3 L767.6,450.6 L767.8,461.9 L767.9,458.9 L768.1,451.3 L768.3,452.1 L768.5,450.2 L768.6,446.8 L768.8,445.2 L769.0,455.9 L769.2,441.4 L769.3,446.8 L769.5,442.6 L769.7,448.3 L769.9,449.4 L770.1,443.7 L770.2,441.4 L770.4,444.1 L770.6,451.3 L770.8,450.6 L770.9,456.2 L771.1,459.7 L771.3,442.6 L771.5,447.9 L771.6,450.9 L771.8,450.2 L772.0,460.0 L772.2,464.2 L772.4,466.1 L772.5,451.3 L772.7,453.2 L772.9,460.4 L773.1,470.3 L773.2,457.4 L773.4,462.3 L773.6,465.4 L773.8,472.2 L773.9,471.1 L774.1,467.6 L774.3,471.8 L774.5,482.8 L774.7,461.6 L774.8,462.3 L775.0,467.6 L775.2,463.8 L775.4,462.3 L775.5,473.0 L775.7,473.0 L775.9,465.4 L776.1,445.2 L776.2,458.1 L776.4,449.8 L776.6,457.0 L776.8,462.7 L776.9,456.2 L777.1,446.8 L777.3,465.7 L777.5,465.0 L777.7,455.1 L777.8,470.3 L778.0,463.1 L778.2,446.0 L778.4,467.3 L778.5,461.2 L778.7,460.4 L778.9,482.1 L779.1,450.2 L779.2,473.7 L779.4,457.4 L779.6,467.6 L779.8,458.9 L780.0,455.1 L780.1,448.7 L780.3,449.8 L780.5,456.6 L780.7,455.1 L780.8,461.6 L781.0,454.7 L781.2,455.5 L781.4,447.9 L781.5,449.8 L781.7,455.1 L781.9,448.3 L782.1,465.4 L782.2,461.9 L782.4,447.1 L782.6,443.0 L782.8,451.7 L783.0,447.5 L783.1,450.6 L783.3,450.6 L783.5,454.4 L783.7,446.8 L783.8,458.9 L784.0,455.1 L784.2,453.2 L784.4,455.1 L784.5,457.4 L784.7,454.4 L784.9,457.4 L785.1,451.3 L785.3,451.7 L785.4,447.9 L785.6,459.3 L785.8,461.2 L786.0,450.2 L786.1,449.8 L786.3,453.2 L786.5,446.4 L786.7,461.6 L786.8,452.5 L787.0,454.7 L787.2,451.7 L787.4,445.6 L787.5,455.5 L787.7,444.5 L787.9,450.6 L788.1,459.3 L788.3,446.0 L788.4,444.5 L788.6,442.2 L788.8,450.6 L789.0,444.1 L789.1,439.9 L789.3,440.3 L789.5,446.8 L789.7,440.7 L789.8,436.9 L790.0,441.1 L790.2,440.3 L790.4,441.4 L790.6,440.3 L790.7,444.1 L790.9,447.1 L791.1,447.5 L791.3,442.6 L791.4,445.6 L791.6,444.1 L791.8,444.5 L792.0,439.9 L792.1,440.7 L792.3,440.3 L792.5,443.7 L792.7,450.6 L792.8,447.9 L793.0,445.6 L793.2,444.5 L793.4,442.2 L793.6,450.6 L793.7,447.9 L793.9,455.9 L794.1,455.1 L794.3,454.4 L794.4,444.9 L794.6,449.8 L794.8,446.8 L795.0,438.4 L795.1,441.8 L795.3,443.3 L795.5,443.7 L795.7,439.9 L795.9,440.3 L796.0,439.2 L796.2,435.7 L796.4,429.3 L796.6,439.2 L796.7,431.6 L796.9,434.6 L797.1,437.3 L797.3,429.7 L797.4,428.5 L797.6,440.3 L797.8,439.5 L798.0,436.9 L798.1,438.8 L798.3,435.7 L798.5,438.8 L798.7,439.2 L798.9,443.0 L799.0,445.6 L799.2,441.4 L799.4,445.6 L799.6,447.9 L799.7,443.0 L799.9,450.2 L800.1,446.0 L800.3,438.8 L800.4,438.4 L800.6,438.4 L800.8,439.2 L801.0,440.7 L801.2,443.3 L801.3,445.2 L801.5,457.0 L801.7,444.1 L801.9,443.0 L802.0,458.5 L802.2,447.5 L802.4,453.6 L802.6,456.6 L802.7,452.8 L802.9,464.6 L803.1,444.1 L803.3,451.3 L803.4,449.0 L803.6,458.1 L803.8,453.2 L804.0,451.3 L804.2,447.1 L804.3,447.5 L804.5,449.4 L804.7,455.5 L804.9,453.6 L805.0,444.1 L805.2,452.8 L805.4,449.8 L805.6,449.4 L805.7,461.9 L805.9,453.2 L806.1,444.9 L806.3,445.6 L806.5,443.0 L806.6,449.8 L806.8,448.3 L807.0,451.7 L807.2,450.9 L807.3,443.0 L807.5,440.7 L807.7,443.0 L807.9,437.6 L808.0,446.0 L808.2,440.3 L808.4,441.8 L808.6,443.3 L808.7,449.4 L808.9,440.3 L809.1,448.7 L809.3,441.8 L809.5,445.6 L809.6,443.3 L809.8,441.4 L810.0,440.3 L810.2,444.5 L810.3,441.8 L810.5,446.4 L810.7,439.2 L810.9,444.1 L811.0,438.0 L811.2,434.6 L811.4,439.9 L811.6,433.5 L811.8,432.7 L811.9,438.4 L812.1,439.2 L812.3,432.7 L812.5,439.9 L812.6,437.6 L812.8,438.0 L813.0,433.8 L813.2,439.9 L813.3,442.6 L813.5,445.2 L813.7,440.3 L813.9,445.2 L814.0,437.3 L814.2,440.3 L814.4,440.7 L814.6,439.5 L814.8,446.4 L814.9,442.6 L815.1,439.5 L815.3,442.2 L815.5,446.4 L815.6,441.4 L815.8,443.0 L816.0,443.0 L816.2,443.7 L816.3,446.8 L816.5,444.9 L816.7,449.8 L816.9,441.4 L817.1,440.3 L817.2,442.2 L817.4,439.9 L817.6,433.5 L817.8,442.6 L817.9,436.1 L818.1,440.3 L818.3,435.7 L818.5,431.2 L818.6,438.0 L818.8,438.8 L819.0,437.3 L819.2,443.7 L819.3,435.0 L819.5,439.2 L819.7,443.3 L819.9,439.2 L820.1,445.2 L820.2,443.0 L820.4,446.0 L820.6,450.9 L820.8,442.6 L820.9,451.7 L821.1,444.5 L821.3,445.6 L821.5,443.0 L821.6,444.5 L821.8,445.6 L822.0,441.8 L822.2,450.9 L822.4,444.9 L822.5,452.5 L822.7,447.5 L822.9,467.6 L823.1,463.1 L823.2,454.0 L823.4,454.4 L823.6,448.3 L823.8,448.3 L823.9,443.7 L824.1,441.4 L824.3,441.1 L824.5,444.5 L824.6,456.2 L824.8,444.5 L825.0,458.9 L825.2,457.0 L825.4,459.3 L825.5,455.1 L825.7,456.2 L825.9,463.8 L826.1,466.5 L826.2,448.3 L826.4,447.5 L826.6,457.4 L826.8,461.2 L826.9,455.1 L827.1,461.6 L827.3,449.0 L827.5,450.6 L827.7,470.3 L827.8,468.4 L828.0,460.4 L828.2,484.7 L828.4,450.9 L828.5,453.6 L828.7,450.6 L828.9,446.4 L829.1,459.3 L829.2,452.8 L829.4,451.3 L829.6,456.2 L829.8,448.7 L829.9,451.3 L830.1,458.9 L830.3,468.8 L830.5,454.0 L830.7,467.6 L830.8,458.5 L831.0,451.7 L831.2,457.0 L831.4,461.9 L831.5,458.9 L831.7,463.8 L831.9,449.8 L832.1,444.1 L832.2,447.9 L832.4,445.2 L832.6,454.7 L832.8,452.8 L833.0,447.5 L833.1,447.1 L833.3,444.9 L833.5,444.5 L833.7,446.8 L833.8,446.0 L834.0,456.2 L834.2,444.1 L834.4,446.4 L834.5,449.8 L834.7,447.9 L834.9,452.1 L835.1,442.6 L835.2,438.0 L835.4,446.4 L835.6,440.7 L835.8,445.2 L836.0,437.6 L836.1,444.5 L836.3,441.1 L836.5,441.1 L836.7,445.2 L836.8,449.4 L837.0,451.3 L837.2,455.1 L837.4,456.2 L837.5,455.1 L837.7,454.4 L837.9,459.3 L838.1,452.1 L838.3,447.5 L838.4,460.0 L838.6,444.5 L838.8,457.0 L839.0,442.6 L839.1,458.5 L839.3,461.6 L839.5,449.8 L839.7,451.7 L839.8,455.1 L840.0,462.3 L840.2,466.5 L840.4,447.9 L840.5,455.9 L840.7,466.1 L840.9,453.6 L841.1,444.5 L841.3,447.5 L841.4,452.1 L841.6,443.0 L841.8,450.2 L842.0,456.6 L842.1,446.4 L842.3,441.8 L842.5,443.0 L842.7,443.7 L842.8,438.0 L843.0,440.3 L843.2,437.3 L843.4,444.9 L843.6,449.4 L843.7,442.2 L843.9,438.8 L844.1,444.9 L844.3,442.6 L844.4,447.5 L844.6,446.0 L844.8,451.3 L845.0,439.9 L845.1,448.7 L845.3,454.7 L845.5,462.7 L845.7,454.4 L845.8,442.6 L846.0,452.5 L846.2,447.1 L846.4,447.5 L846.6,455.5 L846.7,447.5 L846.9,443.3 L847.1,447.5 L847.3,451.7 L847.4,442.6 L847.6,439.9 L847.8,446.0 L848.0,446.8 L848.1,441.8 L848.3,432.3 L848.5,439.9 L848.7,440.3 L848.9,446.4 L849.0,443.0 L849.2,439.5 L849.4,440.3 L849.6,449.8 L849.7,453.2 L849.9,440.7 L850.1,443.7 L850.3,458.1 L850.4,448.3 L850.6,443.3 L850.8,452.5 L851.0,444.9 L851.1,450.9 L851.3,446.0 L851.5,449.8 L851.7,441.4 L851.9,439.5 L852.0,443.0 L852.2,438.4 L852.4,436.1 L852.6,437.6 L852.7,438.4 L852.9,436.9 L853.1,433.5 L853.3,435.4 L853.4,440.7 L853.6,441.8 L853.8,441.8 L854.0,444.1 L854.2,443.3 L854.3,440.3 L854.5,449.8 L854.7,443.7 L854.9,437.3 L855.0,441.8 L855.2,439.9 L855.4,439.9 L855.6,445.2 L855.7,439.5 L855.9,438.0 L856.1,438.4 L856.3,434.2 L856.4,441.1 L856.6,435.0 L856.8,441.1 L857.0,439.5 L857.2,439.2 L857.3,439.2 L857.5,435.0 L857.7,431.2 L857.9,435.7 L858.0,433.1 L858.2,432.3 L858.4,430.0 L858.6,434.6 L858.7,436.1 L858.9,437.6 L859.1,438.0 L859.3,433.5 L859.5,436.5 L859.6,427.4 L859.8,422.1 L860.0,428.9 L860.2,431.9 L860.3,425.1 L860.5,425.9 L860.7,434.2 L860.9,430.0 L861.0,419.8 L861.2,436.5 L861.4,431.6 L861.6,437.3 L861.7,425.5 L861.9,435.4 L862.1,431.6 L862.3,434.6 L862.5,435.0 L862.6,432.7 L862.8,432.7 L863.0,427.4 L863.2,439.5 L863.3,439.5 L863.5,436.9 L863.7,439.5 L863.9,438.4 L864.0,431.9 L864.2,438.4 L864.4,441.1 L864.6,435.0 L864.8,431.9 L864.9,435.7 L865.1,431.9 L865.3,436.1 L865.5,429.7 L865.6,424.3 L865.8,431.2 L866.0,431.6 L866.2,433.8 L866.3,438.0 L866.5,434.6 L866.7,427.0 L866.9,430.4 L867.0,439.5 L867.2,437.6 L867.4,438.0 L867.6,437.6 L867.8,436.9 L867.9,439.2 L868.1,440.3 L868.3,439.9 L868.5,440.3 L868.6,438.4 L868.8,433.5 L869.0,440.7 L869.2,433.8 L869.3,439.9 L869.5,438.4 L869.7,438.8 L869.9,437.3 L870.1,427.8 L870.2,436.5 L870.4,441.4 L870.6,432.7 L870.8,438.0 L870.9,433.5 L871.1,437.6 L871.3,440.3 L871.5,449.8 L871.6,443.0 L871.8,442.2 L872.0,448.7 L872.2,444.9 L872.3,439.9 L872.5,441.4 L872.7,451.3 L872.9,443.3 L873.1,450.6 L873.2,446.0 L873.4,437.3 L873.6,439.2 L873.8,442.2 L873.9,439.2 L874.1,441.1 L874.3,446.4 L874.5,439.2 L874.6,447.5 L874.8,441.4 L875.0,448.7 L875.2,448.7 L875.4,448.7 L875.5,440.7 L875.7,442.6 L875.9,443.0 L876.1,439.9 L876.2,448.3 L876.4,448.7 L876.6,444.9 L876.8,440.7 L876.9,452.5 L877.1,446.0 L877.3,439.2 L877.5,439.9 L877.6,441.4 L877.8,447.5 L878.0,446.0 L878.2,448.7 L878.4,439.2 L878.5,447.9 L878.7,443.3 L878.9,452.5 L879.1,441.1 L879.2,446.8 L879.4,442.2 L879.6,452.1 L879.8,442.6 L879.9,444.9 L880.1,446.8 L880.3,448.7 L880.5,443.0 L880.7,444.5 L880.8,449.8 L881.0,455.9 L881.2,465.0 L881.4,443.7 L881.5,451.7 L881.7,443.3 L881.9,444.5 L882.1,444.9 L882.2,446.0 L882.4,448.7 L882.6,450.6 L882.8,449.0 L882.9,449.4 L883.1,444.1 L883.3,438.0 L883.5,431.6 L883.7,436.9 L883.8,432.7 L884.0,437.3 L884.2,443.0 L884.4,440.7 L884.5,441.1 L884.7,441.1 L884.9,445.2 L885.1,438.0 L885.2,431.9 L885.4,439.2 L885.6,436.1 L885.8,439.9 L886.0,443.7 L886.1,438.4 L886.3,437.3 L886.5,439.5 L886.7,446.4 L886.8,440.3 L887.0,441.1 L887.2,442.6 L887.4,436.1 L887.5,438.8 L887.7,439.5 L887.9,442.6 L888.1,436.5 L888.2,441.8 L888.4,440.3 L888.6,435.0 L888.8,435.4 L889.0,434.2 L889.1,427.0 L889.3,436.9 L889.5,440.3 L889.7,442.6 L889.8,439.5 L890.0,442.6 L890.2,439.2 L890.4,438.0 L890.5,432.3 L890.7,440.3 L890.9,431.9 L891.1,439.2 L891.3,438.0 L891.4,437.3 L891.6,436.1 L891.8,435.4 L892.0,430.0 L892.1,435.4 L892.3,427.4 L892.5,434.6 L892.7,428.1 L892.8,431.9 L893.0,438.8 L893.2,435.4 L893.4,436.9 L893.5,431.2 L893.7,437.3 L893.9,441.8 L894.1,444.1 L894.3,441.1 L894.4,443.7 L894.6,450.2 L894.8,441.4 L895.0,441.8 L895.1,444.5 L895.3,443.7 L895.5,439.2 L895.7,446.0 L895.8,443.7 L896.0,439.5 L896.2,435.4 L896.4,444.1 L896.6,436.1 L896.7,443.0 L896.9,438.8 L897.1,436.1 L897.3,438.8 L897.4,436.9 L897.6,438.4 L897.8,437.6 L898.0,441.4 L898.1,437.6 L898.3,445.2 L898.5,436.5 L898.7,438.8 L898.8,437.6 L899.0,427.8 L899.2,436.1 L899.4,433.1 L899.6,425.5 L899.7,433.8 L899.9,433.5 L900.1,437.3 L900.3,425.1 L900.4,436.5 L900.6,427.4 L900.8,437.6 L901.0,432.7 L901.1,420.5 L901.3,421.7 L901.5,431.2 L901.7,420.2 L901.9,420.5 L902.0,423.6 L902.2,432.7 L902.4,430.8 L902.6,430.8 L902.7,432.3 L902.9,437.3 L903.1,432.7 L903.3,431.2 L903.4,439.9 L903.6,432.7 L903.8,428.1 L904.0,432.7 L904.1,434.6 L904.3,434.2 L904.5,432.7 L904.7,435.0 L904.9,431.9 L905.0,431.2 L905.2,435.4 L905.4,427.8 L905.6,434.6 L905.7,425.1 L905.9,436.5 L906.1,424.0 L906.3,425.9 L906.4,420.9 L906.6,436.5 L906.8,439.2 L907.0,434.2 L907.2,434.2 L907.3,428.9 L907.5,439.2 L907.7,417.9 L907.9,435.0 L908.0,437.6 L908.2,438.8 L908.4,433.8 L908.6,429.3 L908.7,435.0 L908.9,424.3 L909.1,435.4 L909.3,427.8 L909.4,416.7 L909.6,427.8 L909.8,433.8 L910.0,439.9 L910.2,436.5 L910.3,437.6 L910.5,440.3 L910.7,438.4 L910.9,443.7 L911.0,438.8 L911.2,438.8 L911.4,446.0 L911.6,439.5 L911.7,444.9 L911.9,438.0 L912.1,435.0 L912.3,441.1 L912.5,438.8 L912.6,427.4 L912.8,436.1 L913.0,430.8 L913.2,429.7 L913.3,434.6 L913.5,439.5 L913.7,440.3 L913.9,440.3 L914.0,444.9 L914.2,441.4 L914.4,435.0 L914.6,428.9 L914.7,436.9 L914.9,435.7 L915.1,433.5 L915.3,438.0 L915.5,438.8 L915.6,447.9 L915.8,451.3 L916.0,451.7 L916.2,458.1 L916.3,455.1 L916.5,457.4 L916.7,465.4 L916.9,472.6 L917.0,462.7 L917.2,458.9 L917.4,473.3 L917.6,472.6 L917.8,468.8 L917.9,491.6 L918.1,480.9 L918.3,487.8 L918.5,473.7 L918.6,487.8 L918.8,476.0 L919.0,475.2 L919.2,473.0 L919.3,493.9 L919.5,493.1 L919.7,487.0 L919.9,497.3 L920.0,487.8 L920.2,473.7 L920.4,462.7 L920.6,506.0 L920.8,498.0 L920.9,477.5 L921.1,490.8 L921.3,474.1 L921.5,469.5 L921.6,463.5 L921.8,475.6 L922.0,482.8 L922.2,484.7 L922.3,495.8 L922.5,485.5 L922.7,476.8 L922.9,465.7 L923.1,464.6 L923.2,518.2 L923.4,510.6 L923.6,516.3 L923.8,482.8 L923.9,502.6 L924.1,505.6 L924.3,475.2 L924.5,473.3 L924.6,495.4 L924.8,504.9 L925.0,463.1 L925.2,503.7 L925.3,464.2 L925.5,467.6 L925.7,471.1 L925.9,498.0 L926.1,479.4 L926.2,479.8 L926.4,496.1 L926.6,499.9 L926.8,496.1 L926.9,498.4 L927.1,481.3 L927.3,487.0 L927.5,475.2 L927.6,490.1 L927.8,498.8 L928.0,498.8 L928.2,478.7 L928.4,485.9 L928.5,488.2 L928.7,495.8 L928.9,461.2 L929.1,481.3 L929.2,477.5 L929.4,474.5 L929.6,465.7 L929.8,464.2 L929.9,467.6 L930.1,489.7 L930.3,492.7 L930.5,482.5 L930.7,492.3 L930.8,498.0 L931.0,464.2 L931.2,485.9 L931.4,487.8 L931.5,489.3 L931.7,473.7 L931.9,503.0 L932.1,466.1 L932.2,485.9 L932.4,484.4 L932.6,491.2 L932.8,476.4 L932.9,483.6 L933.1,473.7 L933.3,501.5 L933.5,485.1 L933.7,505.6 L933.8,492.0 L934.0,544.0 L934.2,477.5 L934.4,480.6 L934.5,479.4 L934.7,463.1 L934.9,469.9 L935.1,507.2 L935.2,472.2 L935.4,500.7 L935.6,464.6 L935.8,476.8 L936.0,460.4 L936.1,468.0 L936.3,462.3 L936.5,493.9 L936.7,488.2 L936.8,497.7 L937.0,465.4 L937.2,482.8 L937.4,460.4 L937.5,482.1 L937.7,457.8 L937.9,484.7 L938.1,468.8 L938.2,459.7 L938.4,473.7 L938.6,458.9 L938.8,484.4 L939.0,479.8 L939.1,499.9 L939.3,494.2 L939.5,483.6 L939.7,498.8 L939.8,496.5 L940.0,477.1 L940.2,464.2 L940.4,484.0 L940.5,466.9 L940.7,474.5 L940.9,469.2 L941.1,499.6 L941.3,477.5 L941.4,467.6 L941.6,484.0 L941.8,473.0 L942.0,496.5 L942.1,479.4 L942.3,495.4 L942.5,475.2 L942.7,457.8 L942.8,478.3 L943.0,461.2 L943.2,459.3 L943.4,466.5 L943.5,454.7 L943.7,473.0 L943.9,477.5 L944.1,454.7 L944.3,468.4 L944.4,458.1 L944.6,470.3 L944.8,479.0 L945.0,463.1 L945.1,461.9 L945.3,479.8 L945.5,451.7 L945.7,458.9 L945.8,471.8 L946.0,454.4 L946.2,474.9 L946.4,465.7 L946.6,456.6 L946.7,446.0 L946.9,447.1 L947.1,461.6 L947.3,457.4 L947.4,445.6 L947.6,449.4 L947.8,461.9 L948.0,456.6 L948.1,460.4 L948.3,463.8 L948.5,478.7 L948.7,475.6 L948.8,476.8 L949.0,458.5 L949.2,486.3 L949.4,468.4 L949.6,460.0 L949.7,451.7 L949.9,481.7 L950.1,473.0 L950.3,475.2 L950.4,454.0 L950.6,461.6 L950.8,463.1 L951.0,465.4 L951.1,478.7 L951.3,465.4 L951.5,463.8 L951.7,476.0 L951.9,485.1 L952.0,455.1 L952.2,483.2 L952.4,466.5 L952.6,471.8 L952.7,470.3 L952.9,474.5 L953.1,482.8 L953.3,478.7 L953.4,476.8 L953.6,463.5 L953.8,447.9 L954.0,467.6 L954.1,466.9 L954.3,450.9 L954.5,450.6 L954.7,457.8 L954.9,468.0 L955.0,461.2 L955.2,479.0 L955.4,462.3 L955.6,471.1 L955.7,452.5 L955.9,465.4 L956.1,472.6 L956.3,478.7 L956.4,480.6 L956.6,465.7 L956.8,471.8 L957.0,466.5 L957.2,459.3 L957.3,477.9 L957.5,472.2 L957.7,454.4 L957.9,462.7 L958.0,470.3 L958.2,469.2 L958.4,454.0 L958.6,482.1 L958.7,466.5 L958.9,458.9 L959.1,458.9 L959.3,459.3 L959.4,456.6 L959.6,481.7 L959.8,480.2 L960.0,456.2 L960.2,472.6 L960.3,472.2 L960.5,509.8 L960.7,470.7 L960.9,455.5 L961.0,471.8 L961.2,460.0 L961.4,469.2 L961.6,461.2 L961.7,478.7 L961.9,457.0 L962.1,465.0 L962.3,460.4 L962.5,458.1 L962.6,456.6 L962.8,450.2 L963.0,474.5 L963.2,454.0 L963.3,466.5 L963.5,466.5 L963.7,454.7 L963.9,471.1 L964.0,452.1 L964.2,454.7 L964.4,449.8 L964.6,447.9 L964.7,454.0 L964.9,456.2 L965.1,466.1 L965.3,454.0 L965.5,455.9 L965.6,447.5 L965.8,462.3 L966.0,454.0 L966.2,463.8 L966.3,460.8 L966.5,458.5 L966.7,483.6 L966.9,474.1 L967.0,476.0 L967.2,465.4 L967.4,468.8 L967.6,448.7 L967.8,454.0 L967.9,452.8 L968.1,458.5 L968.3,460.4 L968.5,452.1 L968.6,457.0 L968.8,473.3 L969.0,472.6 L969.2,448.3 L969.3,460.0 L969.5,461.2 L969.7,462.3 L969.9,466.1 L970.0,466.9 L970.2,471.8 L970.4,471.1 L970.6,469.5 L970.8,452.1 L970.9,450.9 L971.1,459.7 L971.3,447.9 L971.5,473.0 L971.6,459.3 L971.8,451.7 L972.0,454.4 L972.2,461.6 L972.3,450.9 L972.5,468.0 L972.7,463.8 L972.9,466.1 L973.1,463.8 L973.2,458.1 L973.4,447.9 L973.6,447.1 L973.8,440.7 L973.9,442.6 L974.1,456.6 L974.3,443.0 L974.5,449.4 L974.6,446.8 L974.8,446.0 L975.0,452.5 L975.2,454.4 L975.3,454.7 L975.5,447.9 L975.7,454.0 L975.9,445.2 L976.1,446.8 L976.2,443.7 L976.4,458.5 L976.6,449.4 L976.8,446.4 L976.9,465.7 L977.1,450.6 L977.3,464.6 L977.5,458.1 L977.6,463.8 L977.8,457.4 L978.0,445.2 L978.2,451.3 L978.4,460.4 L978.5,461.2 L978.7,450.6 L978.9,458.9 L979.1,477.1 L979.2,476.4 L979.4,462.3 L979.6,479.4 L979.8,466.5 L979.9,452.5 L980.1,458.1 L980.3,487.4 L980.5,473.3 L980.6,462.3 L980.8,462.7 L981.0,476.8 L981.2,474.9 L981.4,474.1 L981.5,461.9 L981.7,482.5 L981.9,465.7 L982.1,487.8 L982.2,479.0 L982.4,461.2 L982.6,487.4 L982.8,455.9 L982.9,454.4 L983.1,479.8 L983.3,471.1 L983.5,469.9 L983.7,447.5 L983.8,464.6 L984.0,451.7 L984.2,454.7 L984.4,461.6 L984.5,469.2 L984.7,465.7 L984.9,470.3 L985.1,477.1 L985.2,457.8 L985.4,471.8 L985.6,469.5 L985.8,477.9 L985.9,480.6 L986.1,473.3 L986.3,462.3 L986.5,452.8 L986.7,470.3 L986.8,458.9 L987.0,474.9 L987.2,469.9 L987.4,479.0 L987.5,464.2 L987.7,467.3 L987.9,452.5 L988.1,455.1 L988.2,459.7 L988.4,454.7 L988.6,457.0 L988.8,485.5 L989.0,466.5 L989.1,480.6 L989.3,477.5 L989.5,469.2 L989.7,467.6 L989.8,465.0 L990.0,477.1 L990.2,469.5 L990.4,492.3 L990.5,460.4 L990.7,488.9 L990.9,463.1 L991.1,485.1 L991.2,454.7 L991.4,477.1 L991.6,455.9 L991.8,455.9 L992.0,469.2 L992.1,485.9 L992.3,487.8 L992.5,475.6 L992.7,466.1 L992.8,458.5 L993.0,460.0 L993.2,461.6 L993.4,466.1 L993.5,457.4 L993.7,492.3 L993.9,453.2 L994.1,481.7 L994.3,464.6 L994.4,453.6 L994.6,462.7 L994.8,452.5 L995.0,466.9 L995.1,461.9 L995.3,463.8 L995.5,463.1 L995.7,455.1 L995.8,453.6 L996.0,469.2 L996.2,465.7 L996.4,484.0 L996.5,481.7 L996.7,459.7 L996.9,459.3 L997.1,458.9 L997.3,459.3 L997.4,468.0 L997.6,476.4 L997.8,454.7 L998.0,458.5 L998.1,477.5 L998.3,480.6 L998.5,450.2 L998.7,450.6 L998.8,472.2 L999.0,448.7 L999.2,470.7 L999.4,466.5 L999.6,460.4 L999.7,458.9 L999.9,457.4 L1000.1,449.0 L1000.3,461.6 L1000.4,469.2 L1000.6,456.6 L1000.8,472.2 L1001.0,458.1 L1001.1,458.9 L1001.3,456.6 L1001.5,479.4 L1001.7,468.4 L1001.8,476.4 L1002.0,470.7 L1002.2,473.0 L1002.4,498.0 L1002.6,456.6 L1002.7,467.6 L1002.9,488.9 L1003.1,480.2 L1003.3,454.0 L1003.4,463.8 L1003.6,453.2 L1003.8,453.2 L1004.0,475.6 L1004.1,468.4 L1004.3,469.9 L1004.5,473.0 L1004.7,460.4 L1004.9,458.5 L1005.0,466.5 L1005.2,478.7 L1005.4,453.6 L1005.6,454.4 L1005.7,466.5 L1005.9,488.2 L1006.1,479.0 L1006.3,484.0 L1006.4,473.0 L1006.6,470.7 L1006.8,472.2 L1007.0,453.2 L1007.1,472.2 L1007.3,460.0 L1007.5,459.7 L1007.7,448.7 L1007.9,445.6 L1008.0,452.8 L1008.2,458.1 L1008.4,459.3 L1008.6,454.0 L1008.7,454.7 L1008.9,461.2 L1009.1,454.4 L1009.3,441.8 L1009.4,457.4 L1009.6,449.0 L1009.8,456.6 L1010.0,449.4 L1010.2,452.1 L1010.3,448.7 L1010.5,454.0 L1010.7,445.2 L1010.9,448.7 L1011.0,462.3 L1011.2,448.3 L1011.4,452.1 L1011.6,468.8 L1011.7,453.6 L1011.9,449.4 L1012.1,453.6 L1012.3,447.5 L1012.4,458.1 L1012.6,443.3 L1012.8,445.2 L1013.0,450.6 L1013.2,443.3 L1013.3,439.9 L1013.5,438.8 L1013.7,431.2 L1013.9,436.1 L1014.0,419.8 L1014.2,433.5 L1014.4,427.4 L1014.6,423.2 L1014.7,430.0 L1014.9,429.7 L1015.1,428.1 L1015.3,413.7 L1015.5,422.1 L1015.6,417.1 L1015.8,409.1 L1016.0,411.0 L1016.2,430.4 L1016.3,414.5 L1016.5,425.5 L1016.7,420.2 L1016.9,429.7 L1017.0,415.2 L1017.2,413.7 L1017.4,402.3 L1017.6,428.9 L1017.7,420.9 L1017.9,402.3 L1018.1,410.3 L1018.3,405.3 L1018.5,401.9 L1018.6,408.8 L1018.8,409.5 L1019.0,399.6 L1019.2,408.8 L1019.3,403.4 L1019.5,398.1 L1019.7,417.5 L1019.9,393.6 L1020.0,417.5 L1020.2,391.7 L1020.4,420.9 L1020.6,397.8 L1020.8,406.9 L1020.9,424.3 L1021.1,421.7 L1021.3,425.1 L1021.5,427.0 L1021.6,428.5 L1021.8,435.7 L1022.0,434.2 L1022.2,421.7 L1022.3,430.8 L1022.5,422.4 L1022.7,426.2 L1022.9,414.5 L1023.0,416.7 L1023.2,417.5 L1023.4,419.8 L1023.6,409.5 L1023.8,428.9 L1023.9,425.9 L1024.1,409.5 L1024.3,415.2 L1024.5,417.1 L1024.6,419.8 L1024.8,422.8 L1025.0,420.2 L1025.2,431.9 L1025.3,417.1 L1025.5,427.4 L1025.7,418.3 L1025.9,417.9 L1026.1,428.1 L1026.2,430.4 L1026.4,416.7 L1026.6,434.6 L1026.8,418.6 L1026.9,421.3 L1027.1,432.7 L1027.3,420.9 L1027.5,419.4 L1027.6,430.4 L1027.8,427.0 L1028.0,431.2 L1028.2,432.7 L1028.3,429.7 L1028.5,421.3 L1028.7,435.0 L1028.9,433.5 L1029.1,420.5 L1029.2,429.3 L1029.4,419.4 L1029.6,416.4 L1029.8,428.1 L1029.9,431.6 L1030.1,431.6 L1030.3,438.0 L1030.5,422.8 L1030.6,433.1 L1030.8,430.4 L1031.0,419.4 L1031.2,430.4 L1031.4,426.6 L1031.5,430.8 L1031.7,435.4 L1031.9,441.1 L1032.1,438.4 L1032.2,439.9 L1032.4,443.3 L1032.6,439.9 L1032.8,432.7 L1032.9,429.7 L1033.1,424.3 L1033.3,435.4 L1033.5,436.9 L1033.6,430.8 L1033.8,432.3 L1034.0,421.7 L1034.2,426.2 L1034.4,419.0 L1034.5,421.3 L1034.7,418.6 L1034.9,418.6 L1035.1,425.1 L1035.2,429.3 L1035.4,433.1 L1035.6,425.9 L1035.8,430.4 L1035.9,431.6 L1036.1,431.9 L1036.3,435.7 L1036.5,433.5 L1036.7,432.3 L1036.8,428.9 L1037.0,433.1 L1037.2,431.6 L1037.4,430.4 L1037.5,416.7 L1037.7,413.7 L1037.9,424.0 L1038.1,415.6 L1038.2,409.9 L1038.4,420.5 L1038.6,405.3 L1038.8,411.8 L1038.9,410.7 L1039.1,394.7 L1039.3,407.6 L1039.5,402.3 L1039.7,416.0 L1039.8,413.3 L1040.0,381.8 L1040.2,395.5 L1040.4,428.5 L1040.5,413.7 L1040.7,398.5 L1040.9,428.9 L1041.1,412.6 L1041.2,408.0 L1041.4,429.3 L1041.6,414.5 L1041.8,411.0 L1042.0,417.1 L1042.1,405.3 L1042.3,412.2 L1042.5,409.9 L1042.7,406.1 L1042.8,414.5 L1043.0,381.8 L1043.2,404.6 L1043.4,411.4 L1043.5,412.9 L1043.7,413.7 L1043.9,401.2 L1044.1,416.7 L1044.2,409.5 L1044.4,420.5 L1044.6,414.8 L1044.8,428.9 L1045.0,427.0 L1045.1,411.0 L1045.3,425.1 L1045.5,422.8 L1045.7,419.4 L1045.8,417.9 L1046.0,422.8 L1046.2,429.7 L1046.4,420.2 L1046.5,431.9 L1046.7,416.4 L1046.9,425.5 L1047.1,425.9 L1047.3,435.4 L1047.4,430.8 L1047.6,430.0 L1047.8,425.5 L1048.0,431.2 L1048.1,424.3 L1048.3,435.0 L1048.5,437.3 L1048.7,433.8 L1048.8,418.3 L1049.0,416.7 L1049.2,430.4 L1049.4,433.8 L1049.5,435.4 L1049.7,429.7 L1049.9,430.8 L1050.1,427.8 L1050.3,438.0 L1050.4,440.3 L1050.6,444.5 L1050.8,438.4 L1051.0,437.6 L1051.1,435.0 L1051.3,438.8 L1051.5,439.5 L1051.7,433.8 L1051.8,432.7 L1052.0,427.0 L1052.2,428.1 L1052.4,427.0 L1052.6,416.4 L1052.7,413.3 L1052.9,424.0 L1053.1,406.5 L1053.3,407.6 L1053.4,418.3 L1053.6,414.1 L1053.8,400.4 L1054.0,417.9 L1054.1,414.8 L1054.3,420.5 L1054.5,393.2 L1054.7,403.1 L1054.8,425.9 L1055.0,413.3 L1055.2,397.8 L1055.4,409.5 L1055.6,408.8 L1055.7,396.6 L1055.9,418.3 L1056.1,418.6 L1056.3,385.2 L1056.4,403.4 L1056.6,388.6 L1056.8,416.4 L1057.0,392.1 L1057.1,401.9 L1057.3,392.8 L1057.5,395.1 L1057.7,410.3 L1057.9,426.2 L1058.0,421.7 L1058.2,396.2 L1058.4,416.4 L1058.6,413.3 L1058.7,396.2 L1058.9,422.4 L1059.1,386.7 L1059.3,424.3 L1059.4,421.7 L1059.6,417.5 L1059.8,413.7 L1060.0,420.5 L1060.1,401.2 L1060.3,425.5 L1060.5,402.3 L1060.7,414.8 L1060.9,411.0 L1061.0,424.3 L1061.2,433.1 L1061.4,424.0 L1061.6,422.8 L1061.7,416.4 L1061.9,414.1 L1062.1,420.2 L1062.3,423.6 L1062.4,432.7 L1062.6,417.9 L1062.8,426.6 L1063.0,427.8 L1063.2,436.5 L1063.3,438.4 L1063.5,433.5 L1063.7,430.0 L1063.9,435.7 L1064.0,430.0 L1064.2,435.4 L1064.4,434.2 L1064.6,435.4 L1064.7,418.6 L1064.9,435.0 L1065.1,433.5 L1065.3,433.1 L1065.4,433.8 L1065.6,434.6 L1065.8,430.8 L1066.0,423.6 L1066.2,420.5 L1066.3,428.5 L1066.5,403.1 L1066.7,418.6 L1066.9,435.4 L1067.0,431.9 L1067.2,426.2 L1067.4,431.2 L1067.6,436.9 L1067.7,443.7 L1067.9,435.7 L1068.1,440.7 L1068.3,450.6 L1068.5,454.0 L1068.6,441.1 L1068.8,442.6 L1069.0,441.8 L1069.2,444.5 L1069.3,448.3 L1069.5,443.7 L1069.7,443.3 L1069.9,447.9 L1070.0,440.3 L1070.2,449.8 L1070.4,441.4 L1070.6,443.7 L1070.7,453.6 L1070.9,456.2 L1071.1,449.8 L1071.3,441.8 L1071.5,437.6 L1071.6,438.0 L1071.8,440.3 L1072.0,446.0 L1072.2,438.4 L1072.3,441.1 L1072.5,445.2 L1072.7,445.6 L1072.9,437.6 L1073.0,441.4 L1073.2,439.5 L1073.4,435.0 L1073.6,440.7 L1073.8,446.4 L1073.9,439.9 L1074.1,431.9 L1074.3,441.1 L1074.5,442.6 L1074.6,444.9 L1074.8,446.0 L1075.0,448.3 L1075.2,443.7 L1075.3,446.0 L1075.5,455.9 L1075.7,447.1 L1075.9,452.1 L1076.0,452.1 L1076.2,449.0 L1076.4,441.4 L1076.6,439.5 L1076.8,442.6 L1076.9,449.8 L1077.1,443.7 L1077.3,442.2 L1077.5,446.8 L1077.6,446.0 L1077.8,454.7 L1078.0,449.4 L1078.2,444.9 L1078.3,441.1 L1078.5,446.0 L1078.7,449.4 L1078.9,443.0 L1079.1,447.5 L1079.2,445.2 L1079.4,454.7 L1079.6,444.5 L1079.8,442.6 L1079.9,446.0 L1080.1,439.9 L1080.3,433.8 L1080.5,442.2 L1080.6,438.8 L1080.8,441.1 L1081.0,443.0 L1081.2,439.9 L1081.3,438.0 L1081.5,440.3 L1081.7,434.2 L1081.9,441.1 L1082.1,448.7 L1082.2,438.4 L1082.4,440.7 L1082.6,439.5 L1082.8,438.0 L1082.9,431.6 L1083.1,425.5 L1083.3,421.3 L1083.5,427.4 L1083.6,426.6 L1083.8,428.5 L1084.0,421.7" fill="none" stroke="#ff7f0e" stroke-width="1.1" opacity="0.85"/><text x="616" y="572" font-size="11" fill="#888">time 0..53 s — altitude (blue) &amp; roll (orange)</text></svg>