<svg xmlns="http://www.w3.org/2000/svg" width="1140" height="600" font-family="sans-serif" font-size="13"><rect width="1140" height="600" fill="white"/><text x="20" y="26" font-size="15" fill="#333">Coludo flight</text><rect x="20" y="40" width="540" height="540" fill="#fbfbfb" stroke="#ddd"/><rect x="50" y="222" width="480" height="103" fill="#cde" stroke="#369" opacity="0.7"/><text x="50" y="217" fill="#369" font-size="12">landing zone</text><circle cx="354" cy="383" r="5" fill="black"/><text x="362" y="387" font-size="12">pad</text><path d="M353.6,383.0 L353.6,383.0 L353.6,383.0 L353.6,383.0 L353.6,383.0 L353.6,383.0 L353.6,383.0 L353.6,383.0 L353.6,383.0 L353.6,383.0 L353.6,383.0 L353.6,383.0 L353.6,383.0 L353.6,383.0 L353.6,383.0 L353.6,383.0 L353.6,383.0 L353.6,383.0 L353.6,383.0 L353.6,383.0 L353.6,383.0 L353.6,383.0 L353.6,383.0 L353.6,383.0 L353.6,383.0 L353.6,383.0 L353.6,383.0 L353.6,383.0 L353.6,383.0 L353.6,383.0 L353.6,383.0 L353.6,383.0 L353.6,383.0 L353.6,383.0 L353.6,383.0 L353.6,383.0 L353.6,383.0 L353.6,383.0 L353.6,383.0 L353.6,383.0 L353.6,383.0 L353.6,383.0 L353.6,383.0 L353.6,383.0 L353.6,383.0 L353.6,383.0 L353.6,383.0 L353.6,383.0 L353.6,383.0 L353.6,383.0 L353.6,383.0 L353.6,383.0 L353.6,383.0 L353.6,383.0 L353.6,383.0 L353.6,383.0 L353.6,383.0 L353.6,383.0 L353.8,382.4 L354.1,382.2 L354.6,381.6 L355.1,381.3 L355.6,380.7 L356.4,380.4 L356.9,380.2 L358.0,380.2 L358.7,379.9 L359.8,379.9 L360.8,379.9 L361.8,379.9 L362.9,379.9 L363.9,379.9 L365.2,380.2 L366.5,380.2 L367.8,380.4 L369.1,380.7 L370.3,381.0 L371.6,381.3 L372.9,381.6 L374.5,381.9 L375.8,382.4 L377.3,382.7 L378.6,383.3 L380.1,383.6 L381.4,383.9 L383.0,384.5 L384.5,384.7 L385.8,385.3 L387.4,385.9 L388.9,386.2 L390.5,386.7 L391.8,387.0 L393.3,387.6 L394.8,387.9 L396.1,388.5 L397.7,389.0 L399.2,389.3 L400.8,389.9 L402.1,390.2 L403.6,390.7 L404.9,391.0 L406.5,391.6 L408.0,391.9 L409.3,392.5 L410.8,392.7 L412.1,393.0 L413.7,393.6 L415.0,393.9 L416.5,394.2 L417.8,394.7 L419.1,395.0 L420.6,395.3 L421.9,395.6 L423.2,395.9 L424.5,396.2 L426.1,396.5 L427.3,396.7 L428.4,397.0 L429.7,397.0 L431.0,397.3 L432.2,397.6 L433.5,397.6 L434.6,397.9 L435.9,397.9 L436.9,398.2 L438.2,398.2 L439.2,398.2 L440.5,398.5 L441.5,398.5 L442.6,398.5 L443.6,398.5 L444.6,398.5 L445.7,398.5 L446.7,398.5 L447.7,398.2 L448.5,398.2 L449.5,398.2 L450.3,397.9 L451.3,397.9 L452.1,397.9 L453.1,397.6 L453.9,397.3 L454.7,397.3 L455.5,397.0 L456.5,396.7 L457.0,396.7 L457.8,396.5 L458.6,396.2 L459.3,395.9 L459.8,395.6 L460.6,395.3 L461.1,395.0 L461.9,394.5 L462.4,394.2 L462.9,393.9 L463.5,393.3 L464.0,393.0 L464.5,392.5 L465.0,392.2 L465.5,391.6 L466.0,391.3 L466.3,390.7 L466.8,390.5 L467.1,389.9 L467.6,389.3 L467.8,389.0 L468.4,388.5 L468.6,387.9 L469.1,387.3 L469.4,387.0 L469.6,386.5 L469.9,385.9 L470.4,385.3 L470.7,384.7 L470.9,384.2 L471.2,383.6 L471.5,383.0 L471.7,382.4 L472.0,381.9 L472.2,381.6 L472.5,381.0 L472.7,380.4 L473.0,379.9 L473.3,379.3 L473.5,378.7 L473.8,378.2 L474.0,377.6 L474.3,377.0 L474.5,376.4 L474.8,375.9 L475.1,375.3 L475.1,374.4 L475.3,373.9 L475.6,373.3 L475.8,372.7 L476.1,372.2 L476.4,371.6 L476.6,371.0 L476.6,370.4 L476.9,369.9 L477.1,369.3 L477.4,368.7 L477.6,368.2 L477.9,367.6 L478.2,367.0 L478.4,366.4 L478.7,365.9 L478.9,365.3 L479.2,364.7 L479.4,364.2 L479.7,363.6 L480.0,363.0 L480.0,362.4 L480.2,361.9 L480.5,361.3 L480.7,360.7 L481.0,360.2 L481.3,359.6 L481.5,359.0 L481.8,358.4 L482.0,357.9 L482.3,357.3 L482.5,356.7 L482.8,356.2 L483.1,355.6 L483.3,355.0 L483.6,354.4 L483.8,353.9 L484.1,353.6 L484.3,353.0 L484.6,352.4 L484.9,351.9 L485.1,351.3 L485.4,350.7 L485.6,350.2 L485.9,349.6 L486.4,349.0 L486.7,348.4 L486.9,347.9 L487.2,347.3 L487.4,346.7 L487.7,346.2 L488.0,345.6 L488.2,345.0 L488.5,344.7 L488.7,344.2 L489.0,343.6 L489.2,343.0 L489.5,342.4 L489.8,341.9 L490.0,341.3 L490.3,340.7 L490.5,340.2 L490.8,339.6 L491.3,339.0 L491.6,338.4 L491.8,337.9 L492.1,337.6 L492.3,337.0 L492.6,336.4 L493.1,335.9 L493.4,335.3 L493.6,334.7 L493.9,334.1 L494.4,333.9 L494.7,333.3 L494.9,332.7 L495.2,332.1 L495.7,331.6 L496.0,331.0 L496.2,330.7 L496.5,330.1 L497.0,329.6 L497.2,329.0 L497.5,328.7 L497.8,328.1 L498.0,327.6 L498.3,327.3 L498.5,326.7 L498.8,326.4 L499.0,325.9 L499.3,325.6 L499.8,325.0 L500.1,324.7 L500.3,324.1 L500.3,323.9 L500.6,323.3 L500.9,322.7 L500.9,322.1 L500.9,321.6 L500.9,321.0 L500.6,320.4 L500.3,319.6 L500.1,319.0 L499.8,318.1 L499.3,317.6 L498.8,316.7 L498.3,315.9 L497.5,315.0 L496.7,314.1 L495.7,313.3 L494.9,312.4 L493.9,311.6 L492.9,310.7 L491.6,309.9 L490.3,309.0 L489.0,307.9 L487.4,307.0 L485.9,306.1 L484.3,305.3 L482.5,304.4 L480.7,303.3 L478.9,302.4 L477.1,301.6 L475.1,300.7 L473.0,299.9 L470.7,299.0 L468.6,298.1 L466.3,297.3 L463.7,296.4 L461.4,295.6 L458.8,294.7 L456.2,294.1 L453.4,293.3 L450.8,292.7 L448.0,291.9 L444.9,291.3 L442.0,290.7 L439.0,290.1 L435.9,289.6 L432.8,289.0 L429.4,288.4 L426.1,287.9 L422.7,287.6 L419.3,287.3 L415.7,286.7 L412.4,286.4 L408.8,286.1 L404.9,286.1 L401.3,285.9 L397.4,285.6 L393.6,285.6 L389.7,285.6 L385.8,285.6 L381.7,285.6 L377.8,285.6 L373.7,285.9 L369.6,285.9 L365.4,286.1 L361.1,286.4 L356.9,286.7 L352.5,287.0 L348.4,287.6 L344.0,287.9 L339.7,288.4 L335.3,289.0 L330.6,289.6 L326.2,290.1 L321.9,290.7 L317.2,291.3 L312.8,291.9 L308.2,292.7 L303.8,293.3 L299.2,293.9 L294.8,294.4 L290.1,295.3 L285.7,295.9 L281.4,296.1 L277.0,296.7 L272.6,297.0 L268.2,297.6 L264.1,297.9 L260.0,298.1 L255.6,298.1 L251.4,298.4 L247.3,298.7 L243.2,299.0 L239.1,299.0 L234.9,299.3" fill="none" stroke="#1f77b4" stroke-width="1.7" opacity="0.85"/><circle cx="235" cy="299" r="4.5" fill="#1f77b4"/><text x="28" y="572" font-size="11" fill="#888">ground track — m from pad (N up)</text><rect x="580" y="40" width="540" height="540" fill="#fbfbfb" stroke="#ddd"/><text x="586" y="54" fill="#1f77b4" font-size="11">alt 299</text><text x="586" y="558" fill="#1f77b4" font-size="11">2</text><path d="M616.0,543.8 L616.2,543.9 L616.4,543.4 L616.7,544.0 L616.9,543.6 L617.1,543.6 L617.3,543.4 L617.5,543.3 L617.8,543.0 L618.0,543.2 L618.2,542.9 L618.4,542.7 L618.6,543.0 L618.9,542.5 L619.1,542.3 L619.3,541.7 L619.5,542.3 L619.7,541.4 L620.0,541.5 L620.2,540.3 L620.4,540.0 L620.6,539.9 L620.8,540.7 L621.1,540.4 L621.3,539.3 L621.5,539.8 L621.7,538.1 L621.9,539.2 L622.2,536.7 L622.4,537.2 L622.6,536.3 L622.8,537.5 L623.0,535.2 L623.3,534.6 L623.5,533.7 L623.7,533.8 L623.9,533.2 L624.1,532.4 L624.4,532.2 L624.6,531.8 L624.8,531.7 L625.0,529.9 L625.2,529.9 L625.5,529.7 L625.7,530.1 L625.9,527.7 L626.1,528.7 L626.3,526.3 L626.6,524.8 L626.8,525.9 L627.0,524.5 L627.2,524.0 L627.4,523.5 L627.7,524.1 L627.9,523.3 L628.1,521.1 L628.3,519.8 L628.5,518.2 L628.8,518.9 L629.0,514.9 L629.2,515.5 L629.4,518.2 L629.6,514.0 L629.9,517.2 L630.1,515.3 L630.3,510.8 L630.5,512.8 L630.7,512.1 L631.0,512.3 L631.2,511.5 L631.4,509.4 L631.6,510.2 L631.8,506.4 L632.1,500.4 L632.3,498.7 L632.5,497.2 L632.7,497.2 L633.0,495.9 L633.2,501.5 L633.4,494.1 L633.6,491.6 L633.8,500.3 L634.1,490.0 L634.3,491.6 L634.5,486.0 L634.7,488.1 L634.9,486.0 L635.2,490.1 L635.4,484.5 L635.6,481.2 L635.8,485.4 L636.0,482.5 L636.3,481.2 L636.5,480.5 L636.7,472.9 L636.9,473.2 L637.1,470.6 L637.4,474.6 L637.6,477.9 L637.8,471.4 L638.0,465.4 L638.2,476.3 L638.5,474.8 L638.7,474.0 L638.9,468.2 L639.1,460.1 L639.3,455.2 L639.6,451.6 L639.8,453.4 L640.0,451.5 L640.2,463.8 L640.4,452.5 L640.7,443.8 L640.9,441.9 L641.1,439.7 L641.3,453.2 L641.5,438.8 L641.8,433.5 L642.0,434.7 L642.2,433.3 L642.4,447.1 L642.6,430.9 L642.9,438.7 L643.1,428.4 L643.3,424.6 L643.5,419.0 L643.7,428.2 L644.0,422.7 L644.2,416.9 L644.4,433.8 L644.6,410.4 L644.8,409.7 L645.1,424.2 L645.3,412.5 L645.5,408.7 L645.7,406.3 L645.9,401.1 L646.2,410.1 L646.4,400.9 L646.6,390.7 L646.8,397.5 L647.0,404.5 L647.3,401.6 L647.5,394.7 L647.7,395.4 L647.9,387.4 L648.1,382.6 L648.4,383.1 L648.6,379.2 L648.8,387.0 L649.0,367.2 L649.2,364.3 L649.5,390.6 L649.7,383.9 L649.9,391.6 L650.1,388.7 L650.3,380.0 L650.6,357.4 L650.8,362.7 L651.0,360.3 L651.2,359.9 L651.4,368.4 L651.7,354.3 L651.9,337.0 L652.1,362.2 L652.3,352.9 L652.5,365.0 L652.8,359.3 L653.0,326.0 L653.2,336.5 L653.4,338.7 L653.6,345.9 L653.9,347.6 L654.1,348.3 L654.3,310.6 L654.5,334.2 L654.7,341.2 L655.0,325.5 L655.2,325.0 L655.4,299.1 L655.6,315.0 L655.8,330.7 L656.1,301.3 L656.3,321.3 L656.5,310.0 L656.7,291.2 L656.9,310.6 L657.2,294.3 L657.4,288.4 L657.6,313.5 L657.8,319.9 L658.0,269.5 L658.3,314.9 L658.5,297.9 L658.7,261.9 L658.9,288.1 L659.1,304.0 L659.4,303.5 L659.6,262.6 L659.8,292.2 L660.0,263.7 L660.2,282.0 L660.5,254.0 L660.7,264.5 L660.9,279.4 L661.1,270.7 L661.3,282.4 L661.6,257.6 L661.8,279.9 L662.0,251.9 L662.2,242.0 L662.4,248.2 L662.7,227.4 L662.9,231.8 L663.1,237.3 L663.3,252.4 L663.5,267.4 L663.8,217.3 L664.0,269.8 L664.2,253.6 L664.4,231.8 L664.6,224.6 L664.9,209.7 L665.1,231.4 L665.3,247.6 L665.5,227.2 L665.7,211.2 L666.0,248.2 L666.2,209.4 L666.4,200.6 L666.6,216.0 L666.9,222.4 L667.1,202.4 L667.3,236.0 L667.5,189.5 L667.7,180.3 L668.0,198.7 L668.2,212.6 L668.4,205.1 L668.6,179.8 L668.8,178.9 L669.1,227.4 L669.3,183.7 L669.5,191.4 L669.7,206.4 L669.9,176.2 L670.2,171.9 L670.4,186.5 L670.6,194.9 L670.8,201.8 L671.0,179.4 L671.3,210.8 L671.5,166.1 L671.7,196.1 L671.9,169.2 L672.1,153.8 L672.4,203.0 L672.6,185.1 L672.8,147.4 L673.0,159.4 L673.2,140.5 L673.5,193.5 L673.7,170.4 L673.9,184.8 L674.1,140.2 L674.3,128.2 L674.6,201.2 L674.8,133.8 L675.0,187.4 L675.2,176.2 L675.4,147.6 L675.7,162.2 L675.9,127.7 L676.1,172.2 L676.3,129.9 L676.5,132.4 L676.8,167.4 L677.0,148.0 L677.2,108.4 L677.4,143.5 L677.6,178.6 L677.9,181.5 L678.1,135.4 L678.3,104.0 L678.5,123.7 L678.7,174.8 L679.0,149.1 L679.2,176.4 L679.4,157.3 L679.6,113.6 L679.8,140.1 L680.1,140.4 L680.3,151.1 L680.5,137.7 L680.7,123.3 L680.9,108.7 L681.2,139.9 L681.4,126.8 L681.6,103.1 L681.8,156.4 L682.0,98.6 L682.3,133.6 L682.5,127.9 L682.7,123.8 L682.9,134.2 L683.1,96.4 L683.4,98.0 L683.6,116.7 L683.8,79.9 L684.0,92.7 L684.2,136.1 L684.5,88.6 L684.7,154.0 L684.9,137.6 L685.1,76.4 L685.3,155.3 L685.6,112.9 L685.8,151.6 L686.0,128.4 L686.2,101.7 L686.4,149.9 L686.7,125.4 L686.9,128.2 L687.1,84.1 L687.3,153.9 L687.5,77.8 L687.8,103.7 L688.0,136.1 L688.2,127.4 L688.4,105.5 L688.6,76.0 L688.9,79.0 L689.1,109.2 L689.3,152.4 L689.5,141.8 L689.7,97.2 L690.0,96.3 L690.2,156.5 L690.4,144.9 L690.6,155.6 L690.8,103.8 L691.1,130.8 L691.3,144.8 L691.5,91.9 L691.7,120.2 L691.9,103.3 L692.2,144.8 L692.4,89.6 L692.6,110.3 L692.8,136.8 L693.0,80.3 L693.3,106.9 L693.5,106.3 L693.7,109.6 L693.9,79.3 L694.1,132.9 L694.4,117.3 L694.6,133.1 L694.8,159.6 L695.0,157.9 L695.2,130.2 L695.5,84.9 L695.7,154.4 L695.9,130.5 L696.1,144.9 L696.3,102.7 L696.6,106.2 L696.8,108.7 L697.0,156.3 L697.2,88.1 L697.4,102.0 L697.7,135.8 L697.9,149.3 L698.1,130.4 L698.3,147.2 L698.5,129.4 L698.8,82.2 L699.0,91.8 L699.2,100.7 L699.4,132.8 L699.7,144.7 L699.9,78.2 L700.1,113.3 L700.3,79.6 L700.5,145.8 L700.8,148.6 L701.0,77.4 L701.2,107.9 L701.4,122.3 L701.6,107.0 L701.9,142.5 L702.1,122.9 L702.3,154.3 L702.5,123.1 L702.7,158.5 L703.0,142.0 L703.2,147.2 L703.4,104.6 L703.6,81.6 L703.8,103.0 L704.1,98.3 L704.3,102.5 L704.5,83.9 L704.7,151.5 L704.9,141.8 L705.2,111.6 L705.4,122.4 L705.6,116.2 L705.8,95.9 L706.0,96.2 L706.3,90.0 L706.5,146.8 L706.7,143.6 L706.9,131.9 L707.1,112.7 L707.4,158.1 L707.6,136.2 L707.8,152.1 L708.0,130.8 L708.2,106.2 L708.5,117.8 L708.7,123.2 L708.9,114.1 L709.1,120.5 L709.3,84.9 L709.6,135.3 L709.8,136.1 L710.0,81.0 L710.2,93.7 L710.4,107.3 L710.7,150.4 L710.9,124.1 L711.1,127.4 L711.3,89.3 L711.5,136.8 L711.8,109.2 L712.0,136.0 L712.2,161.1 L712.4,108.0 L712.6,98.7 L712.9,130.9 L713.1,98.3 L713.3,112.5 L713.5,130.7 L713.7,87.5 L714.0,134.7 L714.2,139.2 L714.4,140.3 L714.6,124.3 L714.8,151.2 L715.1,98.4 L715.3,84.6 L715.5,129.7 L715.7,112.1 L715.9,139.0 L716.2,97.2 L716.4,109.2 L716.6,130.7 L716.8,127.4 L717.0,109.4 L717.3,109.6 L717.5,123.1 L717.7,114.3 L717.9,125.6 L718.1,87.7 L718.4,155.0 L718.6,148.5 L718.8,114.7 L719.0,111.6 L719.2,116.3 L719.5,109.4 L719.7,135.5 L719.9,122.8 L720.1,132.4 L720.3,137.3 L720.6,92.5 L720.8,159.1 L721.0,133.0 L721.2,105.3 L721.4,99.0 L721.7,134.9 L721.9,149.3 L722.1,167.4 L722.3,116.5 L722.5,160.5 L722.8,152.3 L723.0,150.4 L723.2,139.8 L723.4,129.3 L723.6,169.6 L723.9,100.5 L724.1,157.7 L724.3,87.1 L724.5,114.5 L724.7,92.2 L725.0,124.1 L725.2,155.4 L725.4,145.4 L725.6,160.6 L725.8,100.2 L726.1,113.9 L726.3,115.8 L726.5,130.7 L726.7,134.1 L726.9,100.5 L727.2,141.4 L727.4,159.9 L727.6,110.4 L727.8,162.7 L728.0,154.1 L728.3,117.5 L728.5,145.8 L728.7,117.1 L728.9,140.2 L729.1,144.0 L729.4,132.7 L729.6,113.6 L729.8,143.3 L730.0,165.5 L730.2,138.4 L730.5,151.5 L730.7,141.6 L730.9,108.7 L731.1,158.0 L731.3,119.9 L731.6,172.2 L731.8,157.7 L732.0,106.7 L732.2,101.8 L732.4,111.0 L732.7,97.5 L732.9,155.6 L733.1,149.2 L733.3,112.8 L733.6,94.1 L733.8,116.3 L734.0,140.9 L734.2,123.3 L734.4,160.5 L734.7,127.1 L734.9,95.1 L735.1,158.6 L735.3,143.0 L735.5,152.8 L735.8,98.0 L736.0,109.4 L736.2,100.8 L736.4,144.7 L736.6,140.4 L736.9,138.7 L737.1,116.4 L737.3,155.6 L737.5,122.5 L737.7,137.7 L738.0,103.5 L738.2,171.1 L738.4,107.4 L738.6,109.4 L738.8,117.2 L739.1,138.4 L739.3,99.9 L739.5,103.5 L739.7,157.3 L739.9,166.9 L740.2,145.0 L740.4,169.3 L740.6,169.4 L740.8,140.7 L741.0,104.0 L741.3,147.2 L741.5,153.1 L741.7,153.8 L741.9,109.0 L742.1,110.7 L742.4,112.8 L742.6,162.1 L742.8,173.4 L743.0,154.9 L743.2,119.3 L743.5,151.3 L743.7,173.2 L743.9,115.6 L744.1,157.0 L744.3,132.2 L744.6,113.6 L744.8,154.4 L745.0,176.2 L745.2,124.9 L745.4,104.8 L745.7,122.0 L745.9,131.6 L746.1,160.9 L746.3,179.4 L746.5,130.1 L746.8,180.1 L747.0,175.4 L747.2,167.4 L747.4,175.8 L747.6,178.7 L747.9,147.1 L748.1,124.6 L748.3,166.2 L748.5,178.6 L748.7,123.2 L749.0,149.8 L749.2,169.2 L749.4,122.5 L749.6,114.8 L749.8,112.3 L750.1,160.3 L750.3,127.9 L750.5,114.9 L750.7,170.7 L750.9,138.0 L751.2,167.2 L751.4,163.7 L751.6,147.8 L751.8,177.1 L752.0,161.8 L752.3,157.1 L752.5,140.9 L752.7,180.4 L752.9,144.2 L753.1,149.5 L753.4,138.5 L753.6,123.2 L753.8,180.5 L754.0,178.3 L754.2,129.4 L754.5,165.1 L754.7,113.1 L754.9,167.5 L755.1,166.9 L755.3,187.3 L755.6,127.9 L755.8,111.8 L756.0,129.4 L756.2,168.9 L756.4,165.3 L756.7,111.9 L756.9,164.4 L757.1,124.8 L757.3,178.4 L757.5,188.1 L757.8,127.0 L758.0,117.8 L758.2,143.2 L758.4,112.1 L758.6,126.4 L758.9,152.1 L759.1,155.4 L759.3,173.7 L759.5,157.4 L759.7,126.2 L760.0,188.7 L760.2,134.9 L760.4,190.1 L760.6,174.2 L760.8,185.1 L761.1,116.8 L761.3,112.6 L761.5,186.8 L761.7,120.6 L761.9,169.1 L762.2,118.7 L762.4,140.6 L762.6,121.4 L762.8,157.7 L763.0,116.3 L763.3,156.8 L763.5,136.5 L763.7,192.8 L763.9,168.5 L764.1,135.4 L764.4,193.1 L764.6,147.4 L764.8,149.5 L765.0,180.6 L765.2,119.3 L765.5,169.4 L765.7,189.8 L765.9,137.2 L766.1,140.8 L766.3,174.0 L766.6,165.5 L766.8,124.1 L767.0,161.3 L767.2,182.1 L767.5,190.0 L767.7,160.6 L767.9,190.3 L768.1,164.1 L768.3,161.0 L768.6,128.8 L768.8,128.8 L769.0,131.1 L769.2,172.0 L769.4,179.5 L769.7,161.1 L769.9,124.0 L770.1,139.3 L770.3,144.4 L770.5,171.2 L770.8,150.2 L771.0,151.7 L771.2,176.2 L771.4,148.9 L771.6,189.6 L771.9,144.5 L772.1,190.6 L772.3,152.6 L772.5,169.6 L772.7,164.4 L773.0,177.1 L773.2,138.0 L773.4,171.6 L773.6,199.7 L773.8,145.9 L774.1,142.6 L774.3,143.9 L774.5,141.8 L774.7,190.0 L774.9,130.4 L775.2,154.6 L775.4,134.1 L775.6,163.8 L775.8,171.2 L776.0,184.8 L776.3,199.5 L776.5,149.5 L776.7,142.7 L776.9,196.8 L777.1,173.4 L777.4,140.7 L777.6,139.7 L777.8,127.0 L778.0,159.6 L778.2,180.1 L778.5,167.8 L778.7,180.4 L778.9,199.9 L779.1,128.5 L779.3,168.4 L779.6,194.6 L779.8,188.0 L780.0,172.0 L780.2,192.0 L780.4,133.8 L780.7,203.5 L780.9,195.4 L781.1,134.7 L781.3,153.8 L781.5,140.4 L781.8,198.5 L782.0,160.5 L782.2,147.5 L782.4,186.4 L782.6,166.8 L782.9,158.0 L783.1,142.9 L783.3,175.2 L783.5,187.7 L783.7,199.5 L784.0,170.8 L784.2,193.9 L784.4,191.5 L784.6,180.2 L784.8,153.4 L785.1,136.2 L785.3,185.1 L785.5,185.1 L785.7,191.2 L785.9,150.8 L786.2,189.1 L786.4,192.2 L786.6,138.7 L786.8,157.7 L787.0,202.0 L787.3,202.2 L787.5,202.1 L787.7,203.7 L787.9,207.0 L788.1,176.5 L788.4,155.6 L788.6,150.8 L788.8,180.4 L789.0,193.4 L789.2,188.8 L789.5,191.0 L789.7,149.4 L789.9,177.9 L790.1,147.7 L790.3,167.1 L790.6,160.4 L790.8,153.8 L791.0,153.4 L791.2,141.6 L791.4,168.9 L791.7,176.6 L791.9,148.2 L792.1,209.4 L792.3,194.7 L792.5,178.6 L792.8,197.0 L793.0,201.1 L793.2,206.7 L793.4,210.7 L793.6,157.3 L793.9,208.1 L794.1,148.7 L794.3,152.6 L794.5,186.2 L794.7,183.1 L795.0,180.9 L795.2,198.8 L795.4,170.1 L795.6,208.7 L795.8,146.6 L796.1,211.2 L796.3,176.7 L796.5,158.2 L796.7,204.1 L796.9,183.2 L797.2,158.3 L797.4,185.1 L797.6,204.2 L797.8,208.9 L798.0,150.9 L798.3,212.6 L798.5,152.6 L798.7,156.3 L798.9,160.4 L799.1,213.4 L799.4,199.9 L799.6,184.6 L799.8,210.9 L800.0,206.0 L800.3,159.9 L800.5,191.3 L800.7,195.2 L800.9,189.9 L801.1,148.2 L801.4,210.0 L801.6,167.1 L801.8,197.7 L802.0,180.1 L802.2,153.5 L802.5,208.0 L802.7,208.2 L802.9,199.4 L803.1,194.9 L803.3,175.3 L803.6,221.3 L803.8,208.3 L804.0,162.1 L804.2,189.3 L804.4,179.3 L804.7,191.5 L804.9,164.5 L805.1,222.9 L805.3,153.4 L805.5,159.2 L805.8,191.0 L806.0,172.9 L806.2,216.6 L806.4,196.6 L806.6,160.5 L806.9,197.8 L807.1,193.0 L807.3,192.2 L807.5,211.5 L807.7,160.7 L808.0,180.1 L808.2,213.8 L808.4,156.7 L808.6,217.1 L808.8,204.9 L809.1,193.3 L809.3,184.4 L809.5,225.2 L809.7,186.5 L809.9,214.4 L810.2,189.1 L810.4,180.0 L810.6,214.5 L810.8,184.2 L811.0,195.9 L811.3,186.9 L811.5,192.1 L811.7,205.8 L811.9,210.3 L812.1,178.0 L812.4,198.4 L812.6,173.8 L812.8,186.6 L813.0,201.7 L813.2,207.7 L813.5,222.5 L813.7,181.6 L813.9,173.8 L814.1,191.4 L814.3,188.8 L814.6,210.8 L814.8,200.5 L815.0,185.3 L815.2,190.6 L815.4,175.2 L815.7,163.9 L815.9,210.6 L816.1,178.2 L816.3,199.6 L816.5,233.0 L816.8,209.5 L817.0,195.6 L817.2,189.8 L817.4,175.8 L817.6,212.7 L817.9,171.6 L818.1,177.7 L818.3,188.4 L818.5,215.6 L818.7,232.5 L819.0,226.8 L819.2,234.3 L819.4,233.6 L819.6,215.8 L819.8,185.6 L820.1,218.1 L820.3,210.8 L820.5,209.8 L820.7,204.3 L820.9,234.8 L821.2,199.1 L821.4,230.6 L821.6,202.7 L821.8,224.0 L822.0,228.1 L822.3,237.8 L822.5,211.7 L822.7,201.1 L822.9,182.7 L823.1,226.0 L823.4,227.1 L823.6,217.7 L823.8,235.5 L824.0,193.6 L824.2,221.9 L824.5,203.3 L824.7,237.2 L824.9,235.1 L825.1,235.7 L825.3,191.0 L825.6,241.2 L825.8,187.7 L826.0,207.6 L826.2,207.6 L826.4,197.3 L826.7,180.1 L826.9,237.7 L827.1,235.7 L827.3,181.3 L827.5,175.9 L827.8,218.3 L828.0,231.5 L828.2,237.3 L828.4,187.1 L828.6,204.2 L828.9,242.6 L829.1,197.2 L829.3,239.7 L829.5,189.9 L829.7,234.8 L830.0,194.6 L830.2,220.5 L830.4,240.5 L830.6,181.1 L830.8,230.2 L831.1,211.9 L831.3,225.1 L831.5,240.5 L831.7,204.0 L831.9,228.9 L832.2,208.6 L832.4,204.2 L832.6,216.3 L832.8,193.3 L833.0,200.1 L833.3,244.9 L833.5,182.4 L833.7,188.2 L833.9,222.1 L834.2,233.5 L834.4,244.3 L834.6,207.8 L834.8,196.6 L835.0,239.1 L835.3,197.4 L835.5,247.4 L835.7,190.1 L835.9,190.1 L836.1,246.9 L836.4,230.3 L836.6,203.9 L836.8,195.1 L837.0,206.1 L837.2,191.0 L837.5,196.5 L837.7,235.9 L837.9,200.4 L838.1,245.2 L838.3,237.9 L838.6,234.2 L838.8,201.6 L839.0,200.5 L839.2,196.1 L839.4,203.9 L839.7,208.3 L839.9,251.4 L840.1,247.7 L840.3,214.8 L840.5,211.2 L840.8,190.8 L841.0,206.3 L841.2,249.1 L841.4,221.8 L841.6,238.0 L841.9,223.4 L842.1,241.8 L842.3,199.8 L842.5,254.7 L842.7,228.7 L843.0,216.1 L843.2,235.6 L843.4,243.9 L843.6,205.9 L843.8,200.0 L844.1,256.0 L844.3,219.5 L844.5,233.8 L844.7,195.0 L844.9,218.6 L845.2,250.2 L845.4,227.5 L845.6,226.7 L845.8,229.8 L846.0,254.7 L846.3,242.7 L846.5,239.6 L846.7,244.8 L846.9,198.7 L847.1,217.1 L847.4,235.2 L847.6,235.1 L847.8,238.3 L848.0,220.3 L848.2,219.1 L848.5,262.1 L848.7,251.0 L848.9,233.1 L849.1,219.4 L849.3,242.3 L849.6,260.7 L849.8,220.5 L850.0,229.4 L850.2,236.9 L850.4,217.2 L850.7,205.1 L850.9,206.8 L851.1,238.9 L851.3,223.3 L851.5,260.5 L851.8,215.7 L852.0,252.9 L852.2,209.5 L852.4,243.8 L852.6,207.2 L852.9,255.8 L853.1,208.6 L853.3,204.9 L853.5,221.8 L853.7,235.9 L854.0,253.9 L854.2,233.5 L854.4,266.6 L854.6,264.1 L854.8,209.9 L855.1,259.2 L855.3,210.6 L855.5,232.0 L855.7,262.7 L855.9,226.9 L856.2,220.6 L856.4,216.5 L856.6,237.1 L856.8,244.2 L857.0,241.0 L857.3,249.4 L857.5,255.0 L857.7,234.2 L857.9,245.0 L858.1,224.7 L858.4,238.3 L858.6,216.0 L858.8,243.0 L859.0,267.6 L859.2,261.1 L859.5,272.0 L859.7,269.3 L859.9,224.8 L860.1,271.5 L860.3,272.4 L860.6,264.7 L860.8,235.5 L861.0,218.7 L861.2,264.4 L861.4,219.5 L861.7,223.0 L861.9,248.7 L862.1,273.7 L862.3,256.3 L862.5,264.4 L862.8,237.1 L863.0,225.5 L863.2,219.5 L863.4,244.6 L863.6,272.0 L863.9,219.5 L864.1,240.4 L864.3,235.6 L864.5,240.6 L864.7,258.9 L865.0,246.8 L865.2,269.7 L865.4,225.6 L865.6,252.9 L865.8,247.0 L866.1,220.5 L866.3,257.3 L866.5,247.3 L866.7,238.0 L867.0,251.8 L867.2,227.7 L867.4,255.5 L867.6,240.9 L867.8,245.9 L868.1,273.7 L868.3,248.5 L868.5,257.1 L868.7,256.2 L868.9,277.9 L869.2,261.9 L869.4,276.1 L869.6,260.4 L869.8,234.1 L870.0,231.0 L870.3,229.9 L870.5,252.0 L870.7,274.8 L870.9,234.5 L871.1,241.2 L871.4,277.1 L871.6,236.2 L871.8,249.7 L872.0,238.8 L872.2,229.4 L872.5,270.6 L872.7,268.3 L872.9,254.2 L873.1,248.6 L873.3,249.9 L873.6,230.9 L873.8,258.8 L874.0,272.5 L874.2,283.8 L874.4,288.0 L874.7,232.6 L874.9,262.8 L875.1,256.2 L875.3,262.4 L875.5,258.1 L875.8,283.5 L876.0,272.7 L876.2,265.3 L876.4,243.6 L876.6,241.2 L876.9,270.9 L877.1,238.8 L877.3,288.5 L877.5,262.9 L877.7,251.7 L878.0,242.4 L878.2,271.4 L878.4,261.7 L878.6,243.1 L878.8,237.3 L879.1,292.7 L879.3,258.8 L879.5,275.3 L879.7,238.6 L879.9,273.4 L880.2,250.1 L880.4,263.3 L880.6,249.4 L880.8,254.5 L881.0,242.4 L881.3,254.9 L881.5,254.3 L881.7,260.0 L881.9,285.5 L882.1,252.1 L882.4,262.9 L882.6,250.7 L882.8,295.4 L883.0,286.0 L883.2,262.8 L883.5,280.2 L883.7,246.4 L883.9,248.8 L884.1,273.1 L884.3,243.5 L884.6,258.3 L884.8,288.2 L885.0,288.3 L885.2,292.3 L885.4,253.2 L885.7,258.4 L885.9,262.7 L886.1,282.9 L886.3,286.3 L886.5,252.2 L886.8,289.4 L887.0,264.4 L887.2,268.2 L887.4,284.6 L887.6,299.8 L887.9,301.1 L888.1,274.0 L888.3,284.2 L888.5,255.6 L888.7,290.9 L889.0,248.8 L889.2,259.9 L889.4,267.9 L889.6,250.4 L889.8,303.8 L890.1,250.8 L890.3,280.8 L890.5,270.1 L890.7,297.4 L890.9,292.7 L891.2,301.5 L891.4,291.9 L891.6,290.0 L891.8,260.1 L892.0,278.8 L892.3,268.4 L892.5,295.3 L892.7,271.2 L892.9,295.8 L893.1,268.4 L893.4,261.4 L893.6,284.6 L893.8,264.3 L894.0,281.4 L894.2,297.3 L894.5,264.4 L894.7,271.8 L894.9,292.9 L895.1,300.1 L895.3,278.1 L895.6,285.7 L895.8,287.5 L896.0,274.4 L896.2,277.1 L896.4,288.8 L896.7,285.3 L896.9,286.0 L897.1,264.5 L897.3,289.5 L897.5,305.6 L897.8,302.4 L898.0,311.2 L898.2,293.9 L898.4,276.3 L898.6,310.7 L898.9,310.2 L899.1,274.9 L899.3,295.8 L899.5,306.7 L899.7,312.4 L900.0,296.8 L900.2,295.8 L900.4,266.8 L900.6,302.7 L900.9,285.5 L901.1,313.8 L901.3,286.6 L901.5,266.6 L901.7,290.2 L902.0,316.1 L902.2,308.6 L902.4,275.6 L902.6,278.6 L902.8,302.4 L903.1,310.9 L903.3,277.4 L903.5,288.6 L903.7,305.4 L903.9,305.4 L904.2,301.9 L904.4,288.5 L904.6,281.6 L904.8,279.8 L905.0,292.1 L905.3,285.8 L905.5,319.2 L905.7,306.4 L905.9,280.2 L906.1,296.5 L906.4,300.0 L906.6,292.3 L906.8,315.9 L907.0,277.4 L907.2,312.8 L907.5,279.8 L907.7,278.8 L907.9,298.4 L908.1,282.0 L908.3,312.4 L908.6,276.8 L908.8,301.2 L909.0,313.6 L909.2,277.0 L909.4,313.7 L909.7,305.0 L909.9,325.4 L910.1,321.4 L910.3,311.5 L910.5,281.2 L910.8,304.7 L911.0,303.1 L911.2,299.6 L911.4,296.7 L911.6,309.4 L911.9,323.8 L912.1,315.3 L912.3,300.4 L912.5,287.6 L912.7,299.4 L913.0,328.9 L913.2,317.3 L913.4,302.6 L913.6,296.5 L913.8,290.6 L914.1,323.5 L914.3,283.1 L914.5,299.8 L914.7,302.0 L914.9,313.9 L915.2,331.5 L915.4,285.3 L915.6,324.8 L915.8,311.9 L916.0,311.9 L916.3,293.0 L916.5,304.4 L916.7,319.1 L916.9,332.2 L917.1,290.3 L917.4,293.8 L917.6,320.3 L917.8,299.9 L918.0,289.6 L918.2,303.8 L918.5,302.7 L918.7,327.9 L918.9,298.2 L919.1,293.6 L919.3,321.9 L919.6,323.8 L919.8,312.5 L920.0,336.6 L920.2,327.9 L920.4,296.4 L920.7,323.6 L920.9,312.0 L921.1,329.0 L921.3,328.8 L921.5,332.3 L921.8,308.1 L922.0,338.3 L922.2,313.6 L922.4,293.7 L922.6,303.9 L922.9,323.0 L923.1,317.7 L923.3,309.1 L923.5,313.7 L923.7,327.2 L924.0,336.2 L924.2,333.9 L924.4,331.4 L924.6,331.0 L924.8,341.4 L925.1,307.8 L925.3,336.8 L925.5,341.7 L925.7,312.2 L925.9,306.6 L926.2,298.8 L926.4,304.6 L926.6,338.0 L926.8,337.3 L927.0,315.6 L927.3,301.9 L927.5,325.0 L927.7,340.2 L927.9,336.0 L928.1,304.9 L928.4,306.4 L928.6,341.9 L928.8,341.9 L929.0,333.5 L929.2,317.3 L929.5,327.9 L929.7,322.8 L929.9,346.6 L930.1,309.0 L930.3,310.0 L930.6,306.4 L930.8,334.2 L931.0,340.9 L931.2,325.1 L931.4,319.3 L931.7,321.0 L931.9,327.4 L932.1,350.1 L932.3,338.8 L932.5,309.9 L932.8,345.8 L933.0,346.9 L933.2,313.9 L933.4,338.8 L933.7,347.9 L933.9,313.9 L934.1,310.9 L934.3,338.2 L934.5,341.4 L934.8,338.9 L935.0,333.7 L935.2,347.6 L935.4,353.6 L935.6,334.7 L935.9,322.9 L936.1,324.4 L936.3,351.7 L936.5,354.6 L936.7,347.8 L937.0,327.4 L937.2,336.6 L937.4,342.2 L937.6,353.2 L937.8,317.1 L938.1,318.2 L938.3,347.9 L938.5,339.9 L938.7,357.9 L938.9,318.5 L939.2,350.0 L939.4,323.7 L939.6,331.1 L939.8,337.1 L940.0,342.3 L940.3,350.4 L940.5,331.3 L940.7,355.8 L940.9,325.3 L941.1,347.6 L941.4,353.0 L941.6,337.6 L941.8,322.0 L942.0,348.8 L942.2,335.5 L942.5,337.8 L942.7,351.2 L942.9,337.8 L943.1,362.6 L943.3,329.9 L943.6,328.9 L943.8,340.3 L944.0,330.5 L944.2,361.6 L944.4,344.5 L944.7,342.0 L944.9,342.2 L945.1,334.9 L945.3,329.8 L945.5,352.3 L945.8,337.8 L946.0,351.8 L946.2,331.6 L946.4,348.6 L946.6,349.7 L946.9,353.5 L947.1,350.0 L947.3,366.6 L947.5,358.2 L947.7,348.1 L948.0,368.4 L948.2,339.0 L948.4,336.5 L948.6,330.6 L948.8,344.6 L949.1,356.6 L949.3,351.1 L949.5,331.3 L949.7,357.7 L949.9,339.0 L950.2,356.6 L950.4,346.0 L950.6,365.9 L950.8,334.5 L951.0,361.8 L951.3,355.6 L951.5,340.6 L951.7,363.2 L951.9,338.7 L952.1,337.1 L952.4,335.7 L952.6,356.6 L952.8,341.5 L953.0,372.4 L953.2,371.8 L953.5,358.9 L953.7,355.3 L953.9,344.2 L954.1,375.3 L954.3,372.5 L954.6,348.2 L954.8,348.3 L955.0,358.0 L955.2,356.0 L955.4,347.4 L955.7,352.1 L955.9,363.1 L956.1,355.3 L956.3,367.3 L956.5,361.9 L956.8,369.0 L957.0,376.0 L957.2,363.9 L957.4,344.7 L957.6,377.3 L957.9,378.6 L958.1,371.9 L958.3,359.4 L958.5,363.6 L958.7,344.5 L959.0,352.3 L959.2,363.1 L959.4,350.4 L959.6,361.9 L959.8,347.8 L960.1,358.3 L960.3,363.4 L960.5,347.9 L960.7,379.7 L960.9,376.2 L961.2,367.3 L961.4,383.5 L961.6,357.7 L961.8,353.6 L962.0,354.6 L962.3,360.4 L962.5,350.2 L962.7,351.1 L962.9,384.8 L963.1,379.2 L963.4,360.4 L963.6,378.0 L963.8,352.8 L964.0,351.8 L964.2,353.8 L964.5,377.4 L964.7,375.1 L964.9,386.8 L965.1,375.1 L965.3,364.1 L965.6,359.4 L965.8,389.2 L966.0,373.8 L966.2,380.6 L966.4,372.9 L966.7,370.4 L966.9,373.8 L967.1,363.5 L967.3,364.8 L967.6,371.5 L967.8,368.8 L968.0,364.1 L968.2,362.1 L968.4,365.2 L968.7,367.6 L968.9,367.5 L969.1,387.9 L969.3,363.7 L969.5,382.0 L969.8,368.4 L970.0,392.6 L970.2,383.0 L970.4,370.6 L970.6,362.9 L970.9,375.6 L971.1,384.7 L971.3,364.7 L971.5,372.3 L971.7,366.7 L972.0,386.1 L972.2,380.4 L972.4,388.2 L972.6,392.7 L972.8,380.0 L973.1,371.5 L973.3,378.8 L973.5,386.1 L973.7,396.1 L973.9,382.7 L974.2,384.0 L974.4,394.1 L974.6,370.9 L974.8,394.1 L975.0,380.6 L975.3,394.9 L975.5,380.5 L975.7,386.8 L975.9,379.5 L976.1,383.5 L976.4,401.2 L976.6,383.9 L976.8,377.9 L977.0,371.6 L977.2,378.4 L977.5,389.1 L977.7,377.4 L977.9,376.8 L978.1,387.6 L978.3,384.7 L978.6,380.8 L978.8,379.4 L979.0,400.0 L979.2,384.7 L979.4,377.6 L979.7,390.6 L979.9,401.7 L980.1,392.0 L980.3,391.4 L980.5,389.0 L980.8,402.0 L981.0,390.2 L981.2,405.0 L981.4,407.0 L981.6,394.0 L981.9,402.5 L982.1,395.5 L982.3,406.2 L982.5,399.8 L982.7,381.1 L983.0,403.1 L983.2,383.6 L983.4,380.6 L983.6,399.4 L983.8,402.5 L984.1,382.2 L984.3,410.4 L984.5,410.4 L984.7,393.6 L984.9,409.8 L985.2,390.1 L985.4,398.7 L985.6,388.8 L985.8,393.8 L986.0,385.8 L986.3,411.3 L986.5,394.9 L986.7,410.8 L986.9,391.5 L987.1,396.0 L987.4,410.6 L987.6,389.8 L987.8,405.2 L988.0,391.7 L988.2,387.9 L988.5,399.8 L988.7,388.8 L988.9,406.4 L989.1,397.7 L989.3,406.6 L989.6,416.1 L989.8,395.7 L990.0,405.5 L990.2,413.6 L990.4,411.5 L990.7,404.0 L990.9,395.5 L991.1,398.7 L991.3,395.0 L991.5,412.7 L991.8,414.9 L992.0,397.7 L992.2,395.2 L992.4,414.3 L992.6,417.2 L992.9,419.7 L993.1,414.1 L993.3,406.0 L993.5,415.1 L993.7,411.0 L994.0,399.2 L994.2,422.5 L994.4,419.9 L994.6,402.1 L994.8,407.1 L995.1,400.7 L995.3,409.7 L995.5,405.8 L995.7,404.7 L995.9,419.4 L996.2,415.9 L996.4,417.0 L996.6,410.5 L996.8,423.7 L997.0,422.3 L997.3,420.9 L997.5,409.0 L997.7,418.3 L997.9,425.5 L998.1,417.8 L998.4,412.4 L998.6,412.7 L998.8,426.4 L999.0,411.2 L999.2,420.0 L999.5,418.0 L999.7,413.2 L999.9,427.7 L1000.1,404.4 L1000.3,422.9 L1000.6,421.3 L1000.8,408.3 L1001.0,412.9 L1001.2,422.4 L1001.5,426.7 L1001.7,417.4 L1001.9,419.8 L1002.1,423.8 L1002.3,422.2 L1002.6,411.6 L1002.8,416.7 L1003.0,418.5 L1003.2,423.7 L1003.4,427.7 L1003.7,421.8 L1003.9,418.1 L1004.1,415.9 L1004.3,419.2 L1004.5,421.8 L1004.8,417.9 L1005.0,414.8 L1005.2,412.6 L1005.4,427.3 L1005.6,428.5 L1005.9,429.6 L1006.1,429.1 L1006.3,419.3 L1006.5,423.0 L1006.7,419.8 L1007.0,431.8 L1007.2,436.3 L1007.4,416.6 L1007.6,421.2 L1007.8,423.4 L1008.1,424.7 L1008.3,419.7 L1008.5,431.1 L1008.7,432.4 L1008.9,440.0 L1009.2,439.0 L1009.4,432.4 L1009.6,434.5 L1009.8,423.2 L1010.0,426.6 L1010.3,421.1 L1010.5,439.0 L1010.7,428.6 L1010.9,423.1 L1011.1,442.8 L1011.4,425.2 L1011.6,442.7 L1011.8,423.5 L1012.0,435.8 L1012.2,444.8 L1012.5,427.0 L1012.7,443.5 L1012.9,429.9 L1013.1,437.8 L1013.3,442.6 L1013.6,434.0 L1013.8,436.4 L1014.0,441.8 L1014.2,445.3 L1014.4,427.3 L1014.7,445.7 L1014.9,448.4 L1015.1,446.6 L1015.3,432.9 L1015.5,428.8 L1015.8,436.8 L1016.0,446.4 L1016.2,444.8 L1016.4,448.7 L1016.6,442.9 L1016.9,437.0 L1017.1,450.2 L1017.3,446.0 L1017.5,449.5 L1017.7,444.1 L1018.0,432.9 L1018.2,443.3 L1018.4,449.0 L1018.6,444.9 L1018.8,442.0 L1019.1,437.3 L1019.3,446.0 L1019.5,444.7 L1019.7,452.6 L1019.9,438.3 L1020.2,441.6 L1020.4,437.0 L1020.6,453.9 L1020.8,439.4 L1021.0,454.7 L1021.3,456.2 L1021.5,444.3 L1021.7,439.4 L1021.9,456.6 L1022.1,454.7 L1022.4,453.0 L1022.6,440.5 L1022.8,445.9 L1023.0,441.6 L1023.2,456.1 L1023.5,457.1 L1023.7,446.2 L1023.9,456.6 L1024.1,444.6 L1024.3,443.0 L1024.6,460.9 L1024.8,455.9 L1025.0,457.7 L1025.2,446.1 L1025.4,446.7 L1025.7,459.6 L1025.9,455.1 L1026.1,454.2 L1026.3,464.2 L1026.5,462.5 L1026.8,454.5 L1027.0,463.5 L1027.2,451.9 L1027.4,464.6 L1027.6,458.0 L1027.9,458.6 L1028.1,453.9 L1028.3,460.8 L1028.5,463.3 L1028.7,456.4 L1029.0,450.7 L1029.2,462.3 L1029.4,466.0 L1029.6,461.8 L1029.8,460.8 L1030.1,466.5 L1030.3,453.1 L1030.5,464.4 L1030.7,469.2 L1030.9,466.7 L1031.2,461.1 L1031.4,457.9 L1031.6,470.6 L1031.8,467.5 L1032.0,471.7 L1032.3,462.1 L1032.5,458.8 L1032.7,457.4 L1032.9,460.9 L1033.1,473.4 L1033.4,467.8 L1033.6,468.5 L1033.8,460.0 L1034.0,474.6 L1034.3,464.7 L1034.5,463.0 L1034.7,461.6 L1034.9,476.2 L1035.1,465.0 L1035.4,476.4 L1035.6,474.4 L1035.8,472.1 L1036.0,466.2 L1036.2,463.9 L1036.5,477.6 L1036.7,472.3 L1036.9,466.0 L1037.1,476.0 L1037.3,474.9 L1037.6,478.6 L1037.8,479.3 L1038.0,477.7 L1038.2,468.1 L1038.4,479.7 L1038.7,469.4 L1038.9,480.1 L1039.1,479.2 L1039.3,473.9 L1039.5,473.7 L1039.8,476.7 L1040.0,471.3 L1040.2,470.3 L1040.4,474.8 L1040.6,476.5 L1040.9,471.9 L1041.1,484.2 L1041.3,478.1 L1041.5,472.5 L1041.7,474.1 L1042.0,482.0 L1042.2,473.9 L1042.4,486.7 L1042.6,487.0 L1042.8,477.2 L1043.1,482.1 L1043.3,486.4 L1043.5,481.4 L1043.7,482.3 L1043.9,480.8 L1044.2,478.5 L1044.4,487.0 L1044.6,480.6 L1044.8,488.3 L1045.0,488.5 L1045.3,484.0 L1045.5,485.5 L1045.7,485.7 L1045.9,490.4 L1046.1,483.3 L1046.4,488.9 L1046.6,489.0 L1046.8,482.6 L1047.0,489.4 L1047.2,483.8 L1047.5,492.8 L1047.7,486.6 L1047.9,490.7 L1048.1,487.8 L1048.3,487.5 L1048.6,483.8 L1048.8,490.4 L1049.0,489.7 L1049.2,485.9 L1049.4,493.9 L1049.7,494.8 L1049.9,490.7 L1050.1,487.2 L1050.3,486.9 L1050.5,490.5 L1050.8,489.0 L1051.0,491.7 L1051.2,491.9 L1051.4,497.0 L1051.6,499.6 L1051.9,499.6 L1052.1,493.6 L1052.3,492.6 L1052.5,498.0 L1052.7,498.2 L1053.0,496.1 L1053.2,499.2 L1053.4,496.7 L1053.6,499.9 L1053.8,498.0 L1054.1,503.1 L1054.3,502.4 L1054.5,503.3 L1054.7,494.8 L1054.9,503.3 L1055.2,501.9 L1055.4,496.3 L1055.6,497.1 L1055.8,505.3 L1056.0,497.5 L1056.3,498.0 L1056.5,498.8 L1056.7,505.5 L1056.9,502.2 L1057.1,505.0 L1057.4,502.4 L1057.6,506.7 L1057.8,503.1 L1058.0,503.1 L1058.2,501.0 L1058.5,502.3 L1058.7,505.3 L1058.9,503.5 L1059.1,504.6 L1059.3,504.7 L1059.6,509.2 L1059.8,509.6 L1060.0,504.6 L1060.2,506.1 L1060.4,505.0 L1060.7,507.5 L1060.9,507.2 L1061.1,507.6 L1061.3,508.1 L1061.5,506.9 L1061.8,510.6 L1062.0,512.5 L1062.2,510.3 L1062.4,508.2 L1062.6,511.5 L1062.9,511.8 L1063.1,514.9 L1063.3,514.9 L1063.5,514.4 L1063.7,511.3 L1064.0,510.4 L1064.2,514.7 L1064.4,510.8 L1064.6,516.2 L1064.8,518.0 L1065.1,512.6 L1065.3,516.4 L1065.5,515.0 L1065.7,514.5 L1065.9,516.4 L1066.2,515.6 L1066.4,516.4 L1066.6,515.2 L1066.8,520.0 L1067.0,515.4 L1067.3,521.2 L1067.5,519.0 L1067.7,519.4 L1067.9,518.5 L1068.2,522.3 L1068.4,520.6 L1068.6,518.0 L1068.8,522.9 L1069.0,523.8 L1069.3,520.8 L1069.5,523.0 L1069.7,519.8 L1069.9,522.4 L1070.1,523.3 L1070.4,523.8 L1070.6,522.1 L1070.8,525.4 L1071.0,523.2 L1071.2,525.9 L1071.5,527.1 L1071.7,526.4 L1071.9,524.6 L1072.1,527.7 L1072.3,525.9 L1072.6,525.8 L1072.8,528.6 L1073.0,529.2 L1073.2,525.5 L1073.4,528.7 L1073.7,526.7 L1073.9,527.8 L1074.1,529.9 L1074.3,528.7 L1074.5,528.7 L1074.8,529.9 L1075.0,531.2 L1075.2,529.8 L1075.4,531.2 L1075.6,529.5 L1075.9,531.5 L1076.1,530.3 L1076.3,532.1 L1076.5,531.7 L1076.7,534.4 L1077.0,534.0 L1077.2,534.7 L1077.4,535.2 L1077.6,533.5 L1077.8,533.3 L1078.1,535.4 L1078.3,534.7 L1078.5,536.0 L1078.7,536.1 L1078.9,537.1 L1079.2,536.1 L1079.4,536.2 L1079.6,537.4 L1079.8,536.8 L1080.0,537.9 L1080.3,537.6 L1080.5,537.9 L1080.7,538.2 L1080.9,539.7 L1081.1,539.1 L1081.4,540.1 L1081.6,540.7 L1081.8,539.9 L1082.0,540.5 L1082.2,540.6 L1082.5,542.0 L1082.7,542.1 L1082.9,541.5 L1083.1,542.2 L1083.3,543.1 L1083.6,543.5 L1083.8,543.4 L1084.0,543.9" fill="none" stroke="#1f77b4" stroke-width="1.4" opacity="0.85"/><text x="1040" y="54" fill="#ff7f0e" font-size="11">roll 40</text><text x="1090" y="558" fill="#ff7f0e" font-size="11">-18</text><path d="M616.0,398.9 L616.2,398.1 L616.4,398.1 L616.7,398.1 L616.9,399.7 L617.1,398.9 L617.3,398.1 L617.5,399.7 L617.8,399.7 L618.0,399.7 L618.2,398.1 L618.4,398.9 L618.6,398.1 L618.9,398.9 L619.1,398.9 L619.3,398.9 L619.5,398.9 L619.7,398.9 L620.0,398.9 L620.2,398.1 L620.4,398.9 L620.6,398.1 L620.8,398.9 L621.1,397.2 L621.3,397.2 L621.5,397.2 L621.7,398.1 L621.9,398.1 L622.2,396.4 L622.4,397.2 L622.6,396.4 L622.8,396.4 L623.0,394.8 L623.3,394.8 L623.5,394.8 L623.7,394.0 L623.9,394.0 L624.1,394.0 L624.4,394.0 L624.6,392.3 L624.8,394.0 L625.0,392.3 L625.2,393.2 L625.5,391.5 L625.7,392.3 L625.9,392.3 L626.1,391.5 L626.3,388.3 L626.6,390.7 L626.8,387.5 L627.0,387.5 L627.2,389.9 L627.4,388.3 L627.7,385.0 L627.9,384.2 L628.1,385.8 L628.3,384.2 L628.5,383.4 L628.8,383.4 L629.0,380.9 L629.2,380.9 L629.4,384.2 L629.6,379.3 L629.9,377.7 L630.1,377.7 L630.3,377.7 L630.5,376.0 L630.7,376.0 L631.0,378.5 L631.2,377.7 L631.4,377.7 L631.6,375.2 L631.8,373.6 L632.1,374.4 L632.3,369.5 L632.5,372.8 L632.7,367.1 L633.0,367.9 L633.2,366.3 L633.4,365.4 L633.6,366.3 L633.8,367.1 L634.1,364.6 L634.3,362.2 L634.5,363.8 L634.7,363.8 L634.9,363.0 L635.2,356.5 L635.4,355.7 L635.6,354.0 L635.8,362.2 L636.0,358.9 L636.3,352.4 L636.5,360.6 L636.7,354.8 L636.9,354.0 L637.1,349.1 L637.4,353.2 L637.6,346.7 L637.8,351.6 L638.0,351.6 L638.2,343.4 L638.5,351.6 L638.7,347.5 L638.9,342.6 L639.1,346.7 L639.3,349.1 L639.6,339.4 L639.8,341.8 L640.0,333.6 L640.2,332.8 L640.4,339.4 L640.7,333.6 L640.9,338.5 L641.1,336.9 L641.3,330.4 L641.5,332.8 L641.8,336.1 L642.0,323.0 L642.2,322.2 L642.4,323.9 L642.6,319.8 L642.9,319.0 L643.1,330.4 L643.3,324.7 L643.5,319.0 L643.7,327.1 L644.0,321.4 L644.2,319.0 L644.4,319.0 L644.6,315.7 L644.8,320.6 L645.1,319.8 L645.3,314.9 L645.5,319.0 L645.7,300.2 L645.9,305.9 L646.2,315.7 L646.4,314.9 L646.6,310.8 L646.8,298.6 L647.0,302.7 L647.3,305.1 L647.5,291.2 L647.7,288.0 L647.9,294.5 L648.1,289.6 L648.4,302.7 L648.6,284.7 L648.8,282.3 L649.0,290.4 L649.2,299.4 L649.5,290.4 L649.7,289.6 L649.9,281.5 L650.1,289.6 L650.3,288.0 L650.6,275.8 L650.8,279.8 L651.0,273.3 L651.2,286.4 L651.4,266.8 L651.7,274.1 L651.9,272.5 L652.1,280.6 L652.3,268.4 L652.5,279.0 L652.8,274.1 L653.0,277.4 L653.2,264.3 L653.4,259.4 L653.6,255.4 L653.9,256.2 L654.1,272.5 L654.3,269.2 L654.5,261.1 L654.7,266.8 L655.0,264.3 L655.2,239.9 L655.4,258.6 L655.6,237.4 L655.8,242.3 L656.1,248.0 L656.3,261.9 L656.5,261.9 L656.7,232.5 L656.9,254.6 L657.2,248.9 L657.4,256.2 L657.6,223.6 L657.8,249.7 L658.0,228.5 L658.3,248.9 L658.5,249.7 L658.7,222.8 L658.9,220.3 L659.1,244.8 L659.4,240.7 L659.6,240.7 L659.8,240.7 L660.0,217.9 L660.2,240.7 L660.5,219.5 L660.7,219.5 L660.9,218.7 L661.1,221.9 L661.3,208.1 L661.6,207.3 L661.8,209.7 L662.0,223.6 L662.2,219.5 L662.4,225.2 L662.7,210.5 L662.9,211.3 L663.1,206.5 L663.3,199.1 L663.5,188.5 L663.8,217.9 L664.0,180.4 L664.2,187.7 L664.4,195.9 L664.6,193.4 L664.9,210.5 L665.1,206.5 L665.3,198.3 L665.5,178.7 L665.7,189.3 L666.0,209.7 L666.2,171.4 L666.4,175.5 L666.6,205.6 L666.9,179.5 L667.1,159.2 L667.3,199.1 L667.5,182.0 L667.7,171.4 L668.0,169.8 L668.2,168.1 L668.4,150.2 L668.6,168.1 L668.8,147.7 L669.1,173.8 L669.3,173.8 L669.5,178.7 L669.7,186.9 L669.9,173.8 L670.2,138.0 L670.4,176.3 L670.6,176.3 L670.8,149.4 L671.0,150.2 L671.3,176.3 L671.5,146.9 L671.7,165.7 L671.9,163.2 L672.1,138.0 L672.4,126.6 L672.6,142.9 L672.8,162.4 L673.0,140.4 L673.2,147.7 L673.5,138.0 L673.7,117.6 L673.9,137.1 L674.1,124.9 L674.3,158.3 L674.6,115.1 L674.8,138.8 L675.0,136.3 L675.2,133.9 L675.4,120.8 L675.7,145.3 L675.9,150.2 L676.1,101.3 L676.3,143.7 L676.5,133.1 L676.8,143.7 L677.0,146.1 L677.2,139.6 L677.4,133.1 L677.6,106.2 L677.9,143.7 L678.1,129.0 L678.3,138.8 L678.5,97.2 L678.7,98.8 L679.0,133.1 L679.2,117.6 L679.4,129.0 L679.6,135.5 L679.8,134.7 L680.1,124.9 L680.3,132.3 L680.5,132.3 L680.7,128.2 L680.9,95.6 L681.2,122.5 L681.4,130.6 L681.6,127.4 L681.8,123.3 L682.0,115.1 L682.3,113.5 L682.5,85.8 L682.7,110.2 L682.9,76.0 L683.1,90.7 L683.4,118.4 L683.6,398.9 L683.8,391.5 L684.0,385.8 L684.2,374.4 L684.5,373.6 L684.7,361.4 L684.9,354.8 L685.1,356.5 L685.3,352.4 L685.6,341.0 L685.8,334.5 L686.0,334.5 L686.2,322.2 L686.4,332.0 L686.7,322.2 L686.9,321.4 L687.1,312.4 L687.3,313.3 L687.5,306.7 L687.8,303.5 L688.0,293.7 L688.2,298.6 L688.4,302.7 L688.6,284.7 L688.9,305.9 L689.1,296.1 L689.3,284.7 L689.5,292.9 L689.7,289.6 L690.0,286.4 L690.2,294.5 L690.4,271.7 L690.6,280.6 L690.8,294.5 L691.1,292.9 L691.3,279.8 L691.5,272.5 L691.7,281.5 L691.9,296.1 L692.2,279.8 L692.4,275.8 L692.6,279.0 L692.8,288.0 L693.0,292.9 L693.3,289.6 L693.5,283.9 L693.7,281.5 L693.9,305.1 L694.1,306.7 L694.4,297.0 L694.6,315.7 L694.8,307.6 L695.0,292.9 L695.2,299.4 L695.5,301.8 L695.7,298.6 L695.9,310.8 L696.1,291.2 L696.3,319.0 L696.6,310.0 L696.8,327.1 L697.0,319.0 L697.2,321.4 L697.4,318.2 L697.7,312.4 L697.9,332.0 L698.1,329.6 L698.3,334.5 L698.5,320.6 L698.8,325.5 L699.0,314.9 L699.2,327.9 L699.4,324.7 L699.7,336.9 L699.9,350.0 L700.1,331.2 L700.3,349.1 L700.5,345.9 L700.8,342.6 L701.0,332.0 L701.2,342.6 L701.4,350.8 L701.6,345.9 L701.9,350.0 L702.1,344.2 L702.3,341.0 L702.5,343.4 L702.7,339.4 L703.0,328.8 L703.2,344.2 L703.4,331.2 L703.6,342.6 L703.8,347.5 L704.1,354.0 L704.3,346.7 L704.5,344.2 L704.7,333.6 L704.9,350.0 L705.2,346.7 L705.4,336.1 L705.6,352.4 L705.8,350.0 L706.0,351.6 L706.3,336.9 L706.5,349.1 L706.7,338.5 L706.9,351.6 L707.1,345.1 L707.4,343.4 L707.6,346.7 L707.8,341.8 L708.0,352.4 L708.2,347.5 L708.5,345.1 L708.7,355.7 L708.9,341.8 L709.1,358.1 L709.3,352.4 L709.6,344.2 L709.8,359.7 L710.0,358.1 L710.2,341.8 L710.4,358.1 L710.7,352.4 L710.9,363.0 L711.1,356.5 L711.3,361.4 L711.5,356.5 L711.8,371.1 L712.0,360.6 L712.2,370.3 L712.4,365.4 L712.6,363.0 L712.9,370.3 L713.1,376.9 L713.3,379.3 L713.5,372.0 L713.7,382.6 L714.0,389.9 L714.2,380.1 L714.4,389.9 L714.6,382.6 L714.8,383.4 L715.1,382.6 L715.3,389.9 L715.5,380.1 L715.7,391.5 L715.9,384.2 L716.2,388.3 L716.4,382.6 L716.6,393.2 L716.8,384.2 L717.0,393.2 L717.3,386.6 L717.5,395.6 L717.7,388.3 L717.9,394.0 L718.1,385.8 L718.4,380.1 L718.6,389.1 L718.8,386.6 L719.0,386.6 L719.2,394.0 L719.5,394.8 L719.7,389.9 L719.9,396.4 L720.1,393.2 L720.3,382.6 L720.6,393.2 L720.8,385.0 L721.0,394.0 L721.2,385.8 L721.4,380.1 L721.7,389.9 L721.9,380.1 L722.1,390.7 L722.3,396.4 L722.5,406.2 L722.8,396.4 L723.0,394.0 L723.2,385.0 L723.4,388.3 L723.6,398.9 L723.9,401.3 L724.1,393.2 L724.3,400.5 L724.5,392.3 L724.7,393.2 L725.0,399.7 L725.2,393.2 L725.4,400.5 L725.6,397.2 L725.8,388.3 L726.1,396.4 L726.3,405.4 L726.5,395.6 L726.7,402.9 L726.9,393.2 L727.2,401.3 L727.4,393.2 L727.6,401.3 L727.8,402.9 L728.0,394.0 L728.3,402.1 L728.5,397.2 L728.7,388.3 L728.9,397.2 L729.1,391.5 L729.4,381.7 L729.6,391.5 L729.8,398.9 L730.0,388.3 L730.2,398.1 L730.5,388.3 L730.7,398.9 L730.9,390.7 L731.1,398.9 L731.3,399.7 L731.6,399.7 L731.8,399.7 L732.0,390.7 L732.2,400.5 L732.4,407.8 L732.7,401.3 L732.9,408.7 L733.1,412.7 L733.3,416.0 L733.6,405.4 L733.8,407.0 L734.0,403.8 L734.2,410.3 L734.4,402.9 L734.7,402.1 L734.9,411.1 L735.1,407.8 L735.3,399.7 L735.5,407.8 L735.8,398.9 L736.0,397.2 L736.2,405.4 L736.4,415.2 L736.6,407.0 L736.9,413.5 L737.1,405.4 L737.3,411.1 L737.5,402.1 L737.7,412.7 L738.0,402.9 L738.2,401.3 L738.4,400.5 L738.6,408.7 L738.8,399.7 L739.1,401.3 L739.3,410.3 L739.5,400.5 L739.7,409.5 L739.9,400.5 L740.2,408.7 L740.4,399.7 L740.6,402.9 L740.8,401.3 L741.0,394.8 L741.3,403.8 L741.5,403.8 L741.7,409.5 L741.9,402.1 L742.1,409.5 L742.4,401.3 L742.6,410.3 L742.8,420.1 L743.0,407.8 L743.2,419.3 L743.5,406.2 L743.7,415.2 L743.9,418.4 L744.1,412.7 L744.3,419.3 L744.6,420.9 L744.8,416.0 L745.0,420.1 L745.2,417.6 L745.4,409.5 L745.7,417.6 L745.9,412.7 L746.1,422.5 L746.3,414.4 L746.5,408.7 L746.8,411.9 L747.0,417.6 L747.2,411.1 L747.4,417.6 L747.6,417.6 L747.9,407.0 L748.1,414.4 L748.3,407.0 L748.5,414.4 L748.7,403.8 L749.0,408.7 L749.2,407.8 L749.4,408.7 L749.6,420.1 L749.8,409.5 L750.1,416.0 L750.3,407.8 L750.5,414.4 L750.7,411.9 L750.9,406.2 L751.2,414.4 L751.4,407.0 L751.6,399.7 L751.8,408.7 L752.0,415.2 L752.3,411.1 L752.5,404.6 L752.7,396.4 L752.9,406.2 L753.1,411.1 L753.4,404.6 L753.6,412.7 L753.8,406.2 L754.0,416.8 L754.2,405.4 L754.5,416.0 L754.7,421.7 L754.9,412.7 L755.1,411.9 L755.3,420.9 L755.6,411.9 L755.8,416.8 L756.0,422.5 L756.2,416.8 L756.4,421.7 L756.7,428.2 L756.9,419.3 L757.1,419.3 L757.3,420.1 L757.5,416.0 L757.8,423.3 L758.0,433.1 L758.2,429.9 L758.4,439.6 L758.6,440.5 L758.9,429.9 L759.1,438.0 L759.3,421.7 L759.5,433.1 L759.7,435.6 L760.0,425.0 L760.2,425.8 L760.4,428.2 L760.6,436.4 L760.8,442.9 L761.1,427.4 L761.3,424.1 L761.5,430.7 L761.7,425.8 L761.9,436.4 L762.2,424.1 L762.4,426.6 L762.6,419.3 L762.8,424.1 L763.0,419.3 L763.3,424.1 L763.5,420.9 L763.7,429.0 L763.9,420.1 L764.1,423.3 L764.4,415.2 L764.6,412.7 L764.8,420.9 L765.0,420.9 L765.2,414.4 L765.5,414.4 L765.7,417.6 L765.9,413.5 L766.1,416.8 L766.3,420.1 L766.6,410.3 L766.8,412.7 L767.0,416.8 L767.2,425.8 L767.5,416.0 L767.7,421.7 L767.9,422.5 L768.1,428.2 L768.3,423.3 L768.6,428.2 L768.8,424.1 L769.0,424.1 L769.2,436.4 L769.4,423.3 L769.7,428.2 L769.9,420.9 L770.1,419.3 L770.3,425.8 L770.5,418.4 L770.8,416.8 L771.0,424.1 L771.2,415.2 L771.4,415.2 L771.6,425.8 L771.9,415.2 L772.1,420.9 L772.3,425.8 L772.5,428.2 L772.7,427.4 L773.0,422.5 L773.2,429.0 L773.4,426.6 L773.6,421.7 L773.8,427.4 L774.1,419.3 L774.3,426.6 L774.5,430.7 L774.7,430.7 L774.9,426.6 L775.2,434.7 L775.4,433.1 L775.6,438.0 L775.8,431.5 L776.0,439.6 L776.3,439.6 L776.5,429.9 L776.7,442.9 L776.9,429.9 L777.1,427.4 L777.4,433.1 L777.6,424.1 L777.8,428.2 L778.0,439.6 L778.2,429.9 L778.5,437.2 L778.7,429.9 L778.9,432.3 L779.1,438.8 L779.3,428.2 L779.6,429.9 L779.8,434.7 L780.0,429.9 L780.2,423.3 L780.4,428.2 L780.7,425.0 L780.9,418.4 L781.1,420.9 L781.3,425.0 L781.5,419.3 L781.8,428.2 L782.0,416.0 L782.2,423.3 L782.4,412.7 L782.6,420.1 L782.9,421.7 L783.1,413.5 L783.3,421.7 L783.5,414.4 L783.7,422.5 L784.0,420.9 L784.2,410.3 L784.4,417.6 L784.6,409.5 L784.8,417.6 L785.1,415.2 L785.3,409.5 L785.5,415.2 L785.7,421.7 L785.9,414.4 L786.2,425.0 L786.4,416.0 L786.6,418.4 L786.8,428.2 L787.0,429.9 L787.3,433.9 L787.5,424.1 L787.7,434.7 L787.9,425.8 L788.1,424.1 L788.4,416.8 L788.6,423.3 L788.8,428.2 L789.0,422.5 L789.2,424.1 L789.5,427.4 L789.7,422.5 L789.9,429.9 L790.1,433.9 L790.3,430.7 L790.6,425.8 L790.8,424.1 L791.0,436.4 L791.2,433.1 L791.4,420.9 L791.7,429.0 L791.9,434.7 L792.1,422.5 L792.3,428.2 L792.5,418.4 L792.8,425.0 L793.0,420.1 L793.2,412.7 L793.4,416.8 L793.6,411.9 L793.9,416.8 L794.1,409.5 L794.3,419.3 L794.5,425.8 L794.7,416.0 L795.0,423.3 L795.2,430.7 L795.4,427.4 L795.6,422.5 L795.8,417.6 L796.1,424.1 L796.3,433.1 L796.5,423.3 L796.7,421.7 L796.9,427.4 L797.2,438.0 L797.4,434.7 L797.6,425.0 L797.8,435.6 L798.0,433.1 L798.3,435.6 L798.5,445.3 L798.7,430.7 L798.9,431.5 L799.1,440.5 L799.4,442.1 L799.6,427.4 L799.8,433.9 L800.0,429.0 L800.3,435.6 L800.5,428.2 L800.7,435.6 L800.9,430.7 L801.1,434.7 L801.4,424.1 L801.6,434.7 L801.8,430.7 L802.0,438.0 L802.2,444.5 L802.5,431.5 L802.7,432.3 L802.9,439.6 L803.1,433.9 L803.3,426.6 L803.6,432.3 L803.8,421.7 L804.0,430.7 L804.2,429.0 L804.4,435.6 L804.7,433.1 L804.9,425.8 L805.1,427.4 L805.3,430.7 L805.5,429.0 L805.8,428.2 L806.0,418.4 L806.2,426.6 L806.4,426.6 L806.6,435.6 L806.9,430.7 L807.1,436.4 L807.3,427.4 L807.5,427.4 L807.7,427.4 L808.0,429.0 L808.2,430.7 L808.4,432.3 L808.6,424.1 L808.8,431.5 L809.1,427.4 L809.3,431.5 L809.5,418.4 L809.7,427.4 L809.9,436.4 L810.2,426.6 L810.4,432.3 L810.6,428.2 L810.8,426.6 L811.0,426.6 L811.3,430.7 L811.5,426.6 L811.7,416.8 L811.9,429.9 L812.1,427.4 L812.4,433.1 L812.6,423.3 L812.8,432.3 L813.0,425.0 L813.2,429.9 L813.5,423.3 L813.7,423.3 L813.9,430.7 L814.1,429.0 L814.3,420.1 L814.6,416.0 L814.8,427.4 L815.0,416.8 L815.2,407.0 L815.4,414.4 L815.7,420.1 L815.9,426.6 L816.1,428.2 L816.3,416.0 L816.5,422.5 L816.8,423.3 L817.0,422.5 L817.2,429.9 L817.4,418.4 L817.6,424.1 L817.9,423.3 L818.1,423.3 L818.3,413.5 L818.5,420.1 L818.7,425.8 L819.0,414.4 L819.2,423.3 L819.4,412.7 L819.6,423.3 L819.8,411.1 L820.1,415.2 L820.3,418.4 L820.5,411.1 L820.7,414.4 L820.9,420.9 L821.2,412.7 L821.4,413.5 L821.6,422.5 L821.8,421.7 L822.0,414.4 L822.3,420.9 L822.5,418.4 L822.7,420.9 L822.9,419.3 L823.1,414.4 L823.4,420.9 L823.6,420.9 L823.8,420.9 L824.0,420.1 L824.2,425.8 L824.5,424.1 L824.7,416.8 L824.9,413.5 L825.1,421.7 L825.3,409.5 L825.6,417.6 L825.8,414.4 L826.0,417.6 L826.2,420.1 L826.4,416.0 L826.7,415.2 L826.9,414.4 L827.1,405.4 L827.3,412.7 L827.5,414.4 L827.8,416.0 L828.0,407.0 L828.2,411.1 L828.4,403.8 L828.6,409.5 L828.9,417.6 L829.1,408.7 L829.3,415.2 L829.5,407.8 L829.7,412.7 L830.0,424.1 L830.2,414.4 L830.4,411.1 L830.6,411.9 L830.8,418.4 L831.1,412.7 L831.3,408.7 L831.5,407.0 L831.7,412.7 L831.9,406.2 L832.2,406.2 L832.4,414.4 L832.6,406.2 L832.8,411.1 L833.0,412.7 L833.3,416.8 L833.5,404.6 L833.7,408.7 L833.9,407.8 L834.2,412.7 L834.4,407.0 L834.6,413.5 L834.8,422.5 L835.0,411.9 L835.3,407.8 L835.5,416.0 L835.7,407.8 L835.9,416.8 L836.1,410.3 L836.4,415.2 L836.6,406.2 L836.8,415.2 L837.0,406.2 L837.2,414.4 L837.5,403.8 L837.7,411.9 L837.9,402.9 L838.1,411.1 L838.3,404.6 L838.6,400.5 L838.8,405.4 L839.0,411.9 L839.2,402.9 L839.4,411.9 L839.7,411.9 L839.9,401.3 L840.1,408.7 L840.3,400.5 L840.5,407.8 L840.8,404.6 L841.0,399.7 L841.2,406.2 L841.4,405.4 L841.6,409.5 L841.9,407.0 L842.1,407.0 L842.3,405.4 L842.5,402.1 L842.7,402.1 L843.0,406.2 L843.2,410.3 L843.4,402.1 L843.6,405.4 L843.8,402.9 L844.1,411.9 L844.3,407.8 L844.5,401.3 L844.7,402.9 L844.9,403.8 L845.2,398.9 L845.4,407.8 L845.6,398.9 L845.8,408.7 L846.0,402.1 L846.3,401.3 L846.5,399.7 L846.7,404.6 L846.9,399.7 L847.1,397.2 L847.4,397.2 L847.6,404.6 L847.8,399.7 L848.0,400.5 L848.2,407.0 L848.5,402.1 L848.7,396.4 L848.9,405.4 L849.1,398.1 L849.3,405.4 L849.6,402.1 L849.8,405.4 L850.0,410.3 L850.2,401.3 L850.4,405.4 L850.7,407.0 L850.9,408.7 L851.1,411.9 L851.3,412.7 L851.5,409.5 L851.8,408.7 L852.0,402.1 L852.2,408.7 L852.4,401.3 L852.6,409.5 L852.9,405.4 L853.1,394.8 L853.3,401.3 L853.5,402.9 L853.7,400.5 L854.0,400.5 L854.2,409.5 L854.4,398.9 L854.6,402.1 L854.8,393.2 L855.1,401.3 L855.3,402.9 L855.5,411.9 L855.7,404.6 L855.9,408.7 L856.2,400.5 L856.4,398.9 L856.6,394.0 L856.8,398.9 L857.0,407.8 L857.3,398.9 L857.5,400.5 L857.7,404.6 L857.9,398.1 L858.1,406.2 L858.4,400.5 L858.6,402.1 L858.8,406.2 L859.0,403.8 L859.2,401.3 L859.5,402.1 L859.7,406.2 L859.9,400.5 L860.1,398.1 L860.3,394.8 L860.6,402.1 L860.8,404.6 L861.0,397.2 L861.2,399.7 L861.4,402.9 L861.7,405.4 L861.9,397.2 L862.1,398.9 L862.3,398.1 L862.5,404.6 L862.8,397.2 L863.0,397.2 L863.2,406.2 L863.4,397.2 L863.6,399.7 L863.9,394.0 L864.1,396.4 L864.3,398.9 L864.5,393.2 L864.7,398.9 L865.0,389.9 L865.2,401.3 L865.4,394.0 L865.6,388.3 L865.8,396.4 L866.1,394.8 L866.3,393.2 L866.5,393.2 L866.7,395.6 L867.0,388.3 L867.2,394.8 L867.4,387.5 L867.6,389.9 L867.8,397.2 L868.1,395.6 L868.3,394.0 L868.5,394.0 L868.7,394.8 L868.9,398.9 L869.2,394.0 L869.4,395.6 L869.6,393.2 L869.8,388.3 L870.0,398.1 L870.3,396.4 L870.5,398.1 L870.7,400.5 L870.9,391.5 L871.1,397.2 L871.4,393.2 L871.6,402.1 L871.8,392.3 L872.0,395.6 L872.2,402.1 L872.5,394.0 L872.7,403.8 L872.9,397.2 L873.1,390.7 L873.3,398.9 L873.6,403.8 L873.8,402.9 L874.0,394.0 L874.2,399.7 L874.4,394.8 L874.7,403.8 L874.9,395.6 L875.1,403.8 L875.3,394.8 L875.5,403.8 L875.8,406.2 L876.0,398.9 L876.2,398.9 L876.4,392.3 L876.6,401.3 L876.9,391.5 L877.1,398.1 L877.3,397.2 L877.5,393.2 L877.7,403.8 L878.0,400.5 L878.2,396.4 L878.4,397.2 L878.6,393.2 L878.8,393.2 L879.1,394.0 L879.3,396.4 L879.5,392.3 L879.7,402.1 L879.9,399.7 L880.2,390.7 L880.4,398.1 L880.6,400.5 L880.8,396.4 L881.0,405.4 L881.3,399.7 L881.5,405.4 L881.7,398.1 L881.9,398.1 L882.1,394.8 L882.4,399.7 L882.6,398.9 L882.8,394.8 L883.0,398.9 L883.2,398.1 L883.5,398.9 L883.7,404.6 L883.9,396.4 L884.1,389.1 L884.3,398.1 L884.6,388.3 L884.8,390.7 L885.0,393.2 L885.2,393.2 L885.4,393.2 L885.7,389.1 L885.9,398.9 L886.1,395.6 L886.3,402.9 L886.5,396.4 L886.8,396.4 L887.0,396.4 L887.2,396.4 L887.4,396.4 L887.6,394.0 L887.9,394.0 L888.1,402.1 L888.3,394.8 L888.5,402.1 L888.7,400.5 L889.0,400.5 L889.2,400.5 L889.4,406.2 L889.6,399.7 L889.8,400.5 L890.1,393.2 L890.3,394.0 L890.5,402.9 L890.7,393.2 L890.9,403.8 L891.2,398.1 L891.4,397.2 L891.6,399.7 L891.8,390.7 L892.0,400.5 L892.3,393.2 L892.5,398.9 L892.7,397.2 L892.9,407.0 L893.1,396.4 L893.4,399.7 L893.6,402.9 L893.8,402.1 L894.0,404.6 L894.2,405.4 L894.5,398.9 L894.7,404.6 L894.9,402.9 L895.1,394.0 L895.3,402.9 L895.6,398.1 L895.8,402.9 L896.0,397.2 L896.2,393.2 L896.4,398.9 L896.7,400.5 L896.9,398.9 L897.1,400.5 L897.3,402.9 L897.5,393.2 L897.8,402.9 L898.0,394.8 L898.2,401.3 L898.4,398.9 L898.6,397.2 L898.9,396.4 L899.1,390.7 L899.3,398.1 L899.5,396.4 L899.7,397.2 L900.0,393.2 L900.2,389.9 L900.4,398.9 L900.6,391.5 L900.9,400.5 L901.1,394.8 L901.3,395.6 L901.5,389.9 L901.7,394.8 L902.0,402.1 L902.2,394.8 L902.4,397.2 L902.6,389.1 L902.8,394.0 L903.1,389.1 L903.3,391.5 L903.5,396.4 L903.7,389.9 L903.9,389.9 L904.2,398.1 L904.4,396.4 L904.6,389.9 L904.8,386.6 L905.0,394.0 L905.3,398.1 L905.5,390.7 L905.7,398.1 L905.9,391.5 L906.1,396.4 L906.4,397.2 L906.6,390.7 L906.8,398.1 L907.0,389.9 L907.2,397.2 L907.5,394.0 L907.7,399.7 L907.9,389.9 L908.1,390.7 L908.3,394.0 L908.6,401.3 L908.8,394.0 L909.0,396.4 L909.2,389.9 L909.4,392.3 L909.7,400.5 L909.9,398.1 L910.1,393.2 L910.3,400.5 L910.5,396.4 L910.8,396.4 L911.0,399.7 L911.2,392.3 L911.4,399.7 L911.6,404.6 L911.9,405.4 L912.1,398.1 L912.3,406.2 L912.5,398.9 L912.7,399.7 L913.0,392.3 L913.2,400.5 L913.4,400.5 L913.6,400.5 L913.8,396.4 L914.1,401.3 L914.3,396.4 L914.5,398.9 L914.7,401.3 L914.9,398.9 L915.2,398.9 L915.4,398.9 L915.6,406.2 L915.8,395.6 L916.0,405.4 L916.3,396.4 L916.5,394.8 L916.7,403.8 L916.9,393.2 L917.1,402.9 L917.4,394.0 L917.6,400.5 L917.8,392.3 L918.0,400.5 L918.2,394.0 L918.5,393.2 L918.7,402.1 L918.9,394.8 L919.1,402.9 L919.3,397.2 L919.6,397.2 L919.8,397.2 L920.0,400.5 L920.2,391.5 L920.4,401.3 L920.7,402.1 L920.9,400.5 L921.1,400.5 L921.3,394.0 L921.5,400.5 L921.8,402.1 L922.0,398.9 L922.2,390.7 L922.4,398.1 L922.6,403.8 L922.9,398.9 L923.1,391.5 L923.3,400.5 L923.5,401.3 L923.7,395.6 L924.0,402.9 L924.2,400.5 L924.4,398.1 L924.6,399.7 L924.8,398.9 L925.1,407.8 L925.3,397.2 L925.5,406.2 L925.7,398.1 L925.9,406.2 L926.2,398.9 L926.4,407.8 L926.6,398.1 L926.8,406.2 L927.0,397.2 L927.3,406.2 L927.5,411.9 L927.7,410.3 L927.9,402.9 L928.1,411.1 L928.4,401.3 L928.6,402.9 L928.8,398.9 L929.0,408.7 L929.2,402.1 L929.5,404.6 L929.7,400.5 L929.9,404.6 L930.1,403.8 L930.3,402.1 L930.6,402.9 L930.8,405.4 L931.0,401.3 L931.2,402.1 L931.4,404.6 L931.7,401.3 L931.9,407.0 L932.1,401.3 L932.3,393.2 L932.5,393.2 L932.8,402.1 L933.0,399.7 L933.2,391.5 L933.4,393.2 L933.7,394.8 L933.9,400.5 L934.1,398.1 L934.3,399.7 L934.5,399.7 L934.8,399.7 L935.0,391.5 L935.2,398.9 L935.4,398.9 L935.6,391.5 L935.9,392.3 L936.1,398.1 L936.3,387.5 L936.5,393.2 L936.7,396.4 L937.0,392.3 L937.2,401.3 L937.4,394.8 L937.6,398.1 L937.8,392.3 L938.1,389.9 L938.3,398.9 L938.5,391.5 L938.7,394.8 L938.9,390.7 L939.2,392.3 L939.4,383.4 L939.6,386.6 L939.8,390.7 L940.0,389.9 L940.3,387.5 L940.5,388.3 L940.7,386.6 L940.9,389.9 L941.1,394.8 L941.4,394.0 L941.6,389.9 L941.8,393.2 L942.0,398.1 L942.2,390.7 L942.5,385.8 L942.7,396.4 L942.9,397.2 L943.1,390.7 L943.3,385.8 L943.6,394.8 L943.8,385.8 L944.0,397.2 L944.2,390.7 L944.4,386.6 L944.7,394.8 L944.9,386.6 L945.1,380.9 L945.3,389.9 L945.5,389.1 L945.8,398.9 L946.0,389.9 L946.2,398.9 L946.4,391.5 L946.6,398.1 L946.9,393.2 L947.1,396.4 L947.3,397.2 L947.5,398.1 L947.7,397.2 L948.0,393.2 L948.2,389.1 L948.4,396.4 L948.6,402.1 L948.8,394.8 L949.1,400.5 L949.3,393.2 L949.5,394.0 L949.7,401.3 L949.9,398.9 L950.2,389.9 L950.4,396.4 L950.6,400.5 L950.8,398.1 L951.0,396.4 L951.3,390.7 L951.5,401.3 L951.7,398.9 L951.9,391.5 L952.1,399.7 L952.4,394.0 L952.6,398.9 L952.8,392.3 L953.0,399.7 L953.2,402.1 L953.5,396.4 L953.7,396.4 L953.9,394.0 L954.1,400.5 L954.3,396.4 L954.6,402.9 L954.8,397.2 L955.0,398.1 L955.2,397.2 L955.4,388.3 L955.7,398.9 L955.9,399.7 L956.1,399.7 L956.3,395.6 L956.5,398.9 L956.8,398.1 L957.0,397.2 L957.2,403.8 L957.4,396.4 L957.6,398.1 L957.9,400.5 L958.1,407.0 L958.3,397.2 L958.5,407.0 L958.7,398.1 L959.0,398.9 L959.2,394.0 L959.4,399.7 L959.6,397.2 L959.8,394.8 L960.1,402.1 L960.3,398.1 L960.5,388.3 L960.7,398.1 L960.9,391.5 L961.2,394.0 L961.4,402.9 L961.6,394.8 L961.8,399.7 L962.0,395.6 L962.3,402.9 L962.5,402.1 L962.7,395.6 L962.9,393.2 L963.1,398.9 L963.4,396.4 L963.6,389.9 L963.8,399.7 L964.0,389.9 L964.2,398.9 L964.5,390.7 L964.7,394.0 L964.9,401.3 L965.1,391.5 L965.3,400.5 L965.6,401.3 L965.8,398.1 L966.0,406.2 L966.2,396.4 L966.4,398.1 L966.7,407.0 L966.9,397.2 L967.1,389.1 L967.3,398.1 L967.6,396.4 L967.8,402.1 L968.0,405.4 L968.2,397.2 L968.4,399.7 L968.7,402.1 L968.9,401.3 L969.1,398.1 L969.3,401.3 L969.5,395.6 L969.8,397.2 L970.0,399.7 L970.2,394.0 L970.4,401.3 L970.6,400.5 L970.9,391.5 L971.1,401.3 L971.3,391.5 L971.5,399.7 L971.7,390.7 L972.0,391.5 L972.2,400.5 L972.4,390.7 L972.6,397.2 L972.8,403.8 L973.1,396.4 L973.3,398.1 L973.5,398.1 L973.7,390.7 L973.9,391.5 L974.2,397.2 L974.4,389.1 L974.6,398.9 L974.8,403.8 L975.0,402.1 L975.3,403.8 L975.5,395.6 L975.7,399.7 L975.9,399.7 L976.1,398.9 L976.4,407.0 L976.6,401.3 L976.8,400.5 L977.0,397.2 L977.2,404.6 L977.5,397.2 L977.7,398.9 L977.9,398.9 L978.1,398.1 L978.3,402.1 L978.6,395.6 L978.8,395.6 L979.0,403.8 L979.2,394.8 L979.4,400.5 L979.7,411.1 L979.9,418.4 L980.1,421.7 L980.3,428.2 L980.5,438.0 L980.8,446.2 L981.0,456.8 L981.2,452.7 L981.4,464.9 L981.6,470.6 L981.9,469.8 L982.1,482.0 L982.3,483.7 L982.5,480.4 L982.7,489.4 L983.0,487.7 L983.2,491.8 L983.4,491.0 L983.6,501.6 L983.8,489.4 L984.1,499.2 L984.3,506.5 L984.5,498.3 L984.7,506.5 L984.9,515.5 L985.2,500.0 L985.4,514.6 L985.6,504.0 L985.8,520.4 L986.0,513.8 L986.3,501.6 L986.5,513.0 L986.7,519.5 L986.9,520.4 L987.1,508.9 L987.4,508.1 L987.6,531.8 L987.8,504.9 L988.0,520.4 L988.2,506.5 L988.5,519.5 L988.7,526.9 L988.9,511.4 L989.1,534.2 L989.3,508.9 L989.6,508.1 L989.8,526.1 L990.0,517.1 L990.2,510.6 L990.4,514.6 L990.7,535.0 L990.9,516.3 L991.1,523.6 L991.3,522.0 L991.5,513.0 L991.8,535.8 L992.0,518.7 L992.2,533.4 L992.4,521.2 L992.6,512.2 L992.9,532.6 L993.1,517.9 L993.3,531.0 L993.5,534.2 L993.7,512.2 L994.0,516.3 L994.2,522.8 L994.4,535.8 L994.6,526.1 L994.8,513.0 L995.1,528.5 L995.3,516.3 L995.5,538.3 L995.7,532.6 L995.9,535.8 L996.2,522.0 L996.4,520.4 L996.6,518.7 L996.8,519.5 L997.0,542.4 L997.3,532.6 L997.5,522.8 L997.7,539.9 L997.9,535.0 L998.1,536.7 L998.4,531.8 L998.6,531.8 L998.8,535.0 L999.0,534.2 L999.2,533.4 L999.5,535.8 L999.7,525.2 L999.9,533.4 L1000.1,539.9 L1000.3,526.1 L1000.6,524.4 L1000.8,543.2 L1001.0,535.8 L1001.2,524.4 L1001.5,519.5 L1001.7,517.9 L1001.9,540.7 L1002.1,531.0 L1002.3,536.7 L1002.6,517.9 L1002.8,535.8 L1003.0,524.4 L1003.2,533.4 L1003.4,524.4 L1003.7,533.4 L1003.9,539.9 L1004.1,516.3 L1004.3,526.1 L1004.5,517.1 L1004.8,521.2 L1005.0,528.5 L1005.2,515.5 L1005.4,520.4 L1005.6,533.4 L1005.9,514.6 L1006.1,518.7 L1006.3,538.3 L1006.5,523.6 L1006.7,539.1 L1007.0,534.2 L1007.2,538.3 L1007.4,518.7 L1007.6,521.2 L1007.8,515.5 L1008.1,521.2 L1008.3,531.8 L1008.5,521.2 L1008.7,522.8 L1008.9,542.4 L1009.2,520.4 L1009.4,538.3 L1009.6,510.6 L1009.8,524.4 L1010.0,522.0 L1010.3,525.2 L1010.5,524.4 L1010.7,528.5 L1010.9,516.3 L1011.1,532.6 L1011.4,532.6 L1011.6,522.8 L1011.8,529.3 L1012.0,526.9 L1012.2,515.5 L1012.5,525.2 L1012.7,518.7 L1012.9,543.2 L1013.1,514.6 L1013.3,517.1 L1013.6,513.8 L1013.8,520.4 L1014.0,529.3 L1014.2,530.1 L1014.4,521.2 L1014.7,535.0 L1014.9,535.0 L1015.1,526.1 L1015.3,522.8 L1015.5,528.5 L1015.8,517.9 L1016.0,520.4 L1016.2,525.2 L1016.4,534.2 L1016.6,521.2 L1016.9,535.8 L1017.1,538.3 L1017.3,534.2 L1017.5,527.7 L1017.7,539.9 L1018.0,514.6 L1018.2,544.0 L1018.4,511.4 L1018.6,513.0 L1018.8,535.0 L1019.1,508.9 L1019.3,533.4 L1019.5,506.5 L1019.7,522.8 L1019.9,512.2 L1020.2,526.9 L1020.4,528.5 L1020.6,517.9 L1020.8,516.3 L1021.0,526.9 L1021.3,531.0 L1021.5,522.8 L1021.7,530.1 L1021.9,531.8 L1022.1,528.5 L1022.4,512.2 L1022.6,534.2 L1022.8,509.8 L1023.0,534.2 L1023.2,517.9 L1023.5,510.6 L1023.7,515.5 L1023.9,514.6 L1024.1,539.1 L1024.3,526.9 L1024.6,530.1 L1024.8,513.0 L1025.0,519.5 L1025.2,524.4 L1025.4,522.0 L1025.7,521.2 L1025.9,534.2 L1026.1,523.6 L1026.3,517.1 L1026.5,539.1 L1026.8,526.9 L1027.0,517.9 L1027.2,543.2 L1027.4,527.7 L1027.6,536.7 L1027.9,515.5 L1028.1,525.2 L1028.3,526.9 L1028.5,514.6 L1028.7,541.6 L1029.0,519.5 L1029.2,524.4 L1029.4,516.3 L1029.6,522.8 L1029.8,514.6 L1030.1,538.3 L1030.3,513.0 L1030.5,526.1 L1030.7,527.7 L1030.9,516.3 L1031.2,533.4 L1031.4,522.0 L1031.6,530.1 L1031.8,522.0 L1032.0,514.6 L1032.3,532.6 L1032.5,529.3 L1032.7,528.5 L1032.9,525.2 L1033.1,525.2 L1033.4,539.9 L1033.6,522.0 L1033.8,530.1 L1034.0,532.6 L1034.3,515.5 L1034.5,515.5 L1034.7,524.4 L1034.9,526.1 L1035.1,530.1 L1035.4,536.7 L1035.6,526.1 L1035.8,539.1 L1036.0,522.0 L1036.2,525.2 L1036.5,537.5 L1036.7,533.4 L1036.9,526.1 L1037.1,519.5 L1037.3,523.6 L1037.6,535.0 L1037.8,537.5 L1038.0,524.4 L1038.2,522.8 L1038.4,519.5 L1038.7,521.2 L1038.9,508.9 L1039.1,529.3 L1039.3,516.3 L1039.5,535.8 L1039.8,517.9 L1040.0,507.3 L1040.2,529.3 L1040.4,520.4 L1040.6,517.1 L1040.9,508.1 L1041.1,504.0 L1041.3,494.3 L1041.5,496.7 L1041.7,514.6 L1042.0,508.9 L1042.2,515.5 L1042.4,498.3 L1042.6,520.4 L1042.8,518.7 L1043.1,521.2 L1043.3,517.1 L1043.5,516.3 L1043.7,512.2 L1043.9,518.7 L1044.2,507.3 L1044.4,520.4 L1044.6,518.7 L1044.8,520.4 L1045.0,519.5 L1045.3,520.4 L1045.5,531.8 L1045.7,532.6 L1045.9,513.8 L1046.1,513.8 L1046.4,520.4 L1046.6,522.0 L1046.8,507.3 L1047.0,517.9 L1047.2,508.9 L1047.5,496.7 L1047.7,517.1 L1047.9,507.3 L1048.1,500.0 L1048.3,523.6 L1048.6,504.0 L1048.8,520.4 L1049.0,514.6 L1049.2,491.0 L1049.4,494.3 L1049.7,503.2 L1049.9,493.4 L1050.1,488.6 L1050.3,498.3 L1050.5,486.1 L1050.8,504.0 L1051.0,491.0 L1051.2,504.9 L1051.4,499.2 L1051.6,500.0 L1051.9,495.9 L1052.1,500.8 L1052.3,508.1 L1052.5,500.0 L1052.7,489.4 L1053.0,507.3 L1053.2,493.4 L1053.4,491.8 L1053.6,485.3 L1053.8,503.2 L1054.1,502.4 L1054.3,504.9 L1054.5,500.0 L1054.7,487.7 L1054.9,482.0 L1055.2,494.3 L1055.4,502.4 L1055.6,485.3 L1055.8,491.0 L1056.0,490.2 L1056.3,489.4 L1056.5,509.8 L1056.7,484.5 L1056.9,483.7 L1057.1,486.1 L1057.4,502.4 L1057.6,500.0 L1057.8,490.2 L1058.0,496.7 L1058.2,482.9 L1058.5,491.8 L1058.7,491.0 L1058.9,489.4 L1059.1,480.4 L1059.3,484.5 L1059.6,484.5 L1059.8,465.7 L1060.0,479.6 L1060.2,468.2 L1060.4,473.1 L1060.7,470.6 L1060.9,460.0 L1061.1,449.4 L1061.3,447.0 L1061.5,452.7 L1061.8,448.6 L1062.0,450.2 L1062.2,451.9 L1062.4,451.9 L1062.6,440.5 L1062.9,447.8 L1063.1,429.9 L1063.3,421.7 L1063.5,435.6 L1063.7,420.1 L1064.0,433.1 L1064.2,440.5 L1064.4,429.9 L1064.6,419.3 L1064.8,422.5 L1065.1,416.0 L1065.3,405.4 L1065.5,398.9 L1065.7,392.3 L1065.9,381.7 L1066.2,374.4 L1066.4,365.4 L1066.6,367.1 L1066.8,372.8 L1067.0,364.6 L1067.3,359.7 L1067.5,357.3 L1067.7,351.6 L1067.9,338.5 L1068.2,354.0 L1068.4,346.7 L1068.6,346.7 L1068.8,340.2 L1069.0,342.6 L1069.3,334.5 L1069.5,338.5 L1069.7,323.0 L1069.9,329.6 L1070.1,318.2 L1070.4,318.2 L1070.6,315.7 L1070.8,312.4 L1071.0,310.8 L1071.2,314.1 L1071.5,293.7 L1071.7,305.9 L1071.9,292.1 L1072.1,302.7 L1072.3,297.8 L1072.6,292.9 L1072.8,303.5 L1073.0,289.6 L1073.2,283.1 L1073.4,291.2 L1073.7,274.9 L1073.9,298.6 L1074.1,288.0 L1074.3,279.8 L1074.5,297.0 L1074.8,288.0 L1075.0,292.1 L1075.2,292.1 L1075.4,283.9 L1075.6,278.2 L1075.9,287.2 L1076.1,290.4 L1076.3,306.7 L1076.5,306.7 L1076.7,312.4 L1077.0,309.2 L1077.2,319.8 L1077.4,310.8 L1077.6,315.7 L1077.8,332.8 L1078.1,335.3 L1078.3,342.6 L1078.5,350.0 L1078.7,345.9 L1078.9,352.4 L1079.2,363.8 L1079.4,376.0 L1079.6,367.1 L1079.8,374.4 L1080.0,384.2 L1080.3,376.0 L1080.5,387.5 L1080.7,376.9 L1080.9,389.1 L1081.1,381.7 L1081.4,370.3 L1081.6,382.6 L1081.8,389.1 L1082.0,384.2 L1082.2,375.2 L1082.5,385.0 L1082.7,392.3 L1082.9,401.3 L1083.1,392.3 L1083.3,400.5 L1083.6,408.7 L1083.8,414.4 L1084.0,408.7" fill="none" stroke="#ff7f0e" stroke-width="1.1" opacity="0.85"/><text x="616" y="572" font-size="11" fill="#888">time 0..43 s — altitude (blue) &amp; roll (orange)</text></svg>