<svg xmlns="http://www.w3.org/2000/svg" width="1140" height="600" font-family="sans-serif" font-size="13"><rect width="1140" height="600" fill="white"/><text x="20" y="26" font-size="15" fill="#333">Coludo flight</text><rect x="20" y="40" width="540" height="540" fill="#fbfbfb" stroke="#ddd"/><rect x="50" y="232" width="381" height="82" fill="#cde" stroke="#369" opacity="0.7"/><text x="50" y="227" fill="#369" font-size="12">landing zone</text><circle cx="291" cy="360" r="5" fill="black"/><text x="299" y="364" font-size="12">pad</text><path d="M291.2,359.8 L291.2,359.8 L291.2,359.8 L291.2,359.8 L291.2,359.8 L291.2,359.8 L291.2,359.8 L291.2,359.8 L291.2,359.8 L291.2,359.8 L291.2,359.8 L291.2,359.8 L291.2,359.8 L291.2,359.8 L291.2,359.8 L291.2,359.8 L291.2,359.8 L291.2,359.8 L291.2,359.8 L291.2,359.8 L291.2,359.8 L291.2,359.8 L291.2,359.8 L291.2,359.8 L291.2,359.8 L291.2,359.8 L291.2,359.8 L291.2,359.8 L291.2,359.8 L291.2,359.8 L291.2,359.8 L291.2,359.8 L291.2,359.8 L291.2,359.8 L291.2,359.8 L291.2,359.8 L291.2,359.8 L291.2,359.8 L291.2,359.8 L291.2,359.8 L291.2,359.8 L291.2,359.8 L291.2,359.8 L291.2,359.8 L291.2,359.8 L291.2,359.8 L291.2,359.8 L291.2,359.8 L291.2,359.8 L291.2,359.8 L291.2,359.8 L291.2,359.8 L291.2,359.8 L291.2,359.8 L291.2,359.8 L291.2,359.8 L291.2,359.8 L291.2,359.8 L292.0,358.5 L293.1,356.7 L294.1,355.1 L295.3,353.5 L296.4,351.9 L297.6,350.3 L299.0,348.9 L300.5,347.6 L301.9,346.2 L303.3,344.9 L305.0,343.5 L306.6,342.4 L308.2,341.2 L309.9,340.1 L311.5,339.0 L313.4,337.8 L315.2,336.7 L316.8,335.8 L318.7,334.6 L320.5,333.7 L322.6,332.8 L324.4,331.9 L326.3,331.0 L328.1,330.1 L330.2,329.2 L332.0,328.3 L334.1,327.4 L335.9,326.7 L338.0,325.8 L340.0,325.1 L342.1,324.2 L344.1,323.5 L346.2,322.8 L348.2,321.9 L350.3,321.2 L352.3,320.6 L354.4,319.9 L356.4,319.2 L358.5,318.5 L360.7,318.1 L362.8,317.4 L364.8,316.7 L367.1,316.0 L369.1,315.3 L371.2,314.7 L373.2,314.2 L375.5,313.5 L377.5,312.8 L379.6,312.2 L381.6,311.2 L383.7,310.6 L385.5,309.7 L387.4,308.8 L389.2,307.6 L391.0,306.7 L392.7,305.6 L394.3,304.2 L395.8,303.1 L397.4,301.7 L398.6,300.1 L400.1,298.8 L401.3,297.2 L402.5,295.6 L403.5,294.0 L404.6,292.4 L405.4,290.6 L406.2,288.8 L407.0,286.9 L407.6,285.1 L408.3,283.3 L408.7,281.3 L409.1,279.2 L409.5,277.4 L409.7,275.4 L409.7,273.3 L409.7,271.3 L409.7,269.0 L409.5,267.0 L409.3,264.9 L408.9,262.6 L408.5,260.6 L407.8,258.3 L407.2,256.3 L406.4,254.0 L405.6,252.0 L404.6,249.9 L403.5,247.7 L402.5,245.6 L401.3,243.3 L399.9,241.3 L398.4,239.3 L397.0,237.2 L395.3,235.2 L393.7,233.1 L392.1,231.1 L390.2,229.0 L388.4,227.2 L386.5,225.2 L384.7,223.1 L382.8,221.3 L381.0,219.3 L379.2,217.2 L377.5,215.2 L375.9,213.1 L374.4,211.1 L372.8,209.1 L371.4,207.0 L370.1,205.0 L368.9,202.7 L367.7,200.7 L366.7,198.6 L365.6,196.3 L364.8,194.3 L364.0,192.0 L363.4,190.0 L362.8,187.7 L362.1,185.7 L361.7,183.4 L361.5,181.3 L361.1,179.3 L361.1,177.0 L361.1,175.0 L361.1,172.9 L361.3,170.9 L361.5,168.9 L361.7,166.8 L362.1,165.0 L362.8,163.0 L363.4,161.1 L364.0,159.3 L364.8,157.5 L365.6,155.7 L366.7,154.1 L367.7,152.3 L368.7,150.7 L369.9,149.3 L371.4,147.7 L372.6,146.4 L374.0,144.8 L375.7,143.6 L377.1,142.3 L378.7,141.2 L380.6,140.0 L382.2,138.9 L384.1,138.0 L386.1,137.1 L388.0,136.2 L390.0,135.5 L392.1,134.8 L394.3,134.1 L396.4,133.7 L398.6,133.2 L401.1,133.0 L403.3,132.5 L405.8,132.5 L408.1,132.3 L410.5,132.3 L413.0,132.5 L415.6,132.7 L418.1,133.0 L420.8,133.2 L423.2,133.7 L425.9,134.3 L428.5,135.0 L431.2,135.7 L433.9,136.6 L436.5,137.5 L439.2,138.4 L441.9,139.6 L444.5,140.9 L447.2,142.3 L450.1,143.6 L452.7,145.2 L455.4,146.8 L458.1,148.4 L460.7,150.2 L463.2,152.1 L465.8,154.1 L468.5,156.1 L471.0,158.4 L473.6,160.7 L476.1,163.0 L478.6,165.5 L481.0,167.9 L483.5,170.7 L485.9,173.4 L488.2,176.1 L490.4,179.1 L492.7,182.0 L495.0,185.0 L497.0,188.2 L499.3,191.3 L501.3,194.5 L503.2,197.9 L505.2,201.3 L507.0,204.7 L508.9,208.4 L510.5,212.0 L512.4,215.6 L514.0,219.5 L515.4,223.4 L516.9,227.2 L518.3,231.1 L519.8,235.2 L521.0,239.3 L522.0,243.3 L523.2,247.4 L524.3,251.7 L525.3,256.1 L526.1,260.4 L526.9,264.7 L527.5,269.0 L528.2,273.6 L528.8,277.9 L529.2,282.4 L529.4,286.9 L529.8,290.8 L529.8,294.4 L530.0,298.3 L530.0,302.2 L530.0,306.0 L530.0,309.9 L529.8,313.7 L529.6,317.6 L529.2,321.5 L529.0,325.6 L528.6,329.4 L528.0,333.3 L527.5,337.1 L526.9,341.2 L526.3,345.1 L525.5,348.9 L524.7,352.8 L523.9,356.7 L522.8,360.8 L522.0,364.6 L521.0,368.5 L519.8,372.3 L518.5,376.2 L517.3,380.1 L516.1,383.9 L514.6,387.6 L513.2,391.4 L511.8,395.3 L510.1,398.9 L508.5,402.8 L506.8,406.4 L505.2,410.0 L503.4,413.7 L501.5,417.3 L499.5,420.9 L497.6,424.6 L495.6,428.2 L493.5,431.6 L491.3,435.0 L489.2,438.4 L487.0,441.8 L484.7,445.2 L482.2,448.6 L479.8,451.8 L477.3,455.2 L474.9,458.4 L472.4,461.6 L469.7,464.8 L467.1,467.7 L464.4,470.7 L461.8,473.6 L458.9,476.6 L456.2,479.5 L453.3,482.3 L450.3,485.0 L447.4,487.7" fill="none" stroke="#1f77b4" stroke-width="1.7" opacity="0.85"/><circle cx="447" cy="488" r="4.5" fill="#1f77b4"/><text x="28" y="572" font-size="11" fill="#888">ground track — m from pad (N up)</text><rect x="580" y="40" width="540" height="540" fill="#fbfbfb" stroke="#ddd"/><text x="586" y="54" fill="#1f77b4" font-size="11">alt 301</text><text x="586" y="558" fill="#1f77b4" font-size="11">2</text><path d="M616.0,543.3 L616.2,543.7 L616.5,543.7 L616.7,543.9 L617.0,543.1 L617.2,543.5 L617.5,543.2 L617.7,543.7 L618.0,542.8 L618.2,542.9 L618.5,542.7 L618.7,542.3 L619.0,542.4 L619.2,542.7 L619.5,541.8 L619.7,542.5 L620.0,541.6 L620.2,541.4 L620.5,540.6 L620.7,540.3 L621.0,540.2 L621.2,539.5 L621.5,539.9 L621.7,540.3 L622.0,539.6 L622.2,538.7 L622.5,538.0 L622.7,538.6 L623.0,537.7 L623.2,536.3 L623.5,536.1 L623.7,537.4 L624.0,537.1 L624.2,536.1 L624.5,535.6 L624.7,533.7 L625.0,532.8 L625.2,534.3 L625.5,531.6 L625.7,531.2 L626.0,531.6 L626.2,529.4 L626.4,530.2 L626.7,531.3 L626.9,529.5 L627.2,528.7 L627.4,528.1 L627.7,526.5 L627.9,527.3 L628.2,526.9 L628.4,523.9 L628.7,524.2 L628.9,525.4 L629.2,520.9 L629.4,522.0 L629.7,519.8 L629.9,520.7 L630.2,517.9 L630.4,520.1 L630.7,517.4 L630.9,514.5 L631.2,515.7 L631.4,518.3 L631.7,511.6 L631.9,511.5 L632.2,511.9 L632.4,514.6 L632.7,510.4 L632.9,506.0 L633.2,506.8 L633.4,508.7 L633.7,503.4 L633.9,503.9 L634.2,502.1 L634.4,500.7 L634.7,503.2 L634.9,501.4 L635.2,498.6 L635.4,494.9 L635.7,499.0 L635.9,496.7 L636.2,494.2 L636.4,497.3 L636.7,489.6 L636.9,493.9 L637.1,485.1 L637.4,485.5 L637.6,488.5 L637.9,487.1 L638.1,481.8 L638.4,484.3 L638.6,488.8 L638.9,485.4 L639.1,482.6 L639.4,478.8 L639.6,471.9 L639.9,483.2 L640.1,467.7 L640.4,470.1 L640.6,472.7 L640.9,472.7 L641.1,465.0 L641.4,475.2 L641.6,460.9 L641.9,458.1 L642.1,464.2 L642.4,466.6 L642.6,466.9 L642.9,466.3 L643.1,449.9 L643.4,450.9 L643.6,460.6 L643.9,443.9 L644.1,459.7 L644.4,457.9 L644.6,443.2 L644.9,453.8 L645.1,449.8 L645.4,447.8 L645.6,438.2 L645.9,440.6 L646.1,447.2 L646.4,442.9 L646.6,424.1 L646.9,435.9 L647.1,430.8 L647.3,434.8 L647.6,437.8 L647.8,423.3 L648.1,435.7 L648.3,418.5 L648.6,412.4 L648.8,408.7 L649.1,408.6 L649.3,413.2 L649.6,422.7 L649.8,398.8 L650.1,417.3 L650.3,410.7 L650.6,411.1 L650.8,398.0 L651.1,389.4 L651.3,411.5 L651.6,397.7 L651.8,402.3 L652.1,405.1 L652.3,386.7 L652.6,379.2 L652.8,393.3 L653.1,389.9 L653.3,398.4 L653.6,397.9 L653.8,384.9 L654.1,393.0 L654.3,374.9 L654.6,356.2 L654.8,376.8 L655.1,363.5 L655.3,377.0 L655.6,357.3 L655.8,354.4 L656.1,367.8 L656.3,361.5 L656.6,358.9 L656.8,338.0 L657.1,351.0 L657.3,364.4 L657.6,359.1 L657.8,360.6 L658.0,357.3 L658.3,347.2 L658.5,331.1 L658.8,351.8 L659.0,344.2 L659.3,347.5 L659.5,338.5 L659.8,331.0 L660.0,311.1 L660.3,338.1 L660.5,323.0 L660.8,323.2 L661.0,311.8 L661.3,306.8 L661.5,294.7 L661.8,324.3 L662.0,295.0 L662.3,285.3 L662.5,284.6 L662.8,323.6 L663.0,304.4 L663.3,304.1 L663.5,303.4 L663.8,286.2 L664.0,280.8 L664.3,306.1 L664.5,301.3 L664.8,309.2 L665.0,266.0 L665.3,299.2 L665.5,302.0 L665.8,270.6 L666.0,299.7 L666.3,298.9 L666.5,256.3 L666.8,286.9 L667.0,269.3 L667.3,255.9 L667.5,281.1 L667.8,249.5 L668.0,278.8 L668.2,247.0 L668.5,266.8 L668.7,283.6 L669.0,229.5 L669.2,270.2 L669.5,265.6 L669.7,254.5 L670.0,273.4 L670.2,250.2 L670.5,229.7 L670.7,235.4 L671.0,217.9 L671.2,255.0 L671.5,226.1 L671.7,256.7 L672.0,230.0 L672.2,200.8 L672.5,257.8 L672.7,251.4 L673.0,221.0 L673.2,193.2 L673.5,202.4 L673.7,190.1 L674.0,238.9 L674.2,233.4 L674.5,223.9 L674.7,194.4 L675.0,234.0 L675.2,231.8 L675.5,176.1 L675.7,179.7 L676.0,218.9 L676.2,206.2 L676.5,187.5 L676.7,176.1 L677.0,211.2 L677.2,220.1 L677.5,214.1 L677.7,206.9 L678.0,170.2 L678.2,215.0 L678.4,186.9 L678.7,164.1 L678.9,172.0 L679.2,188.5 L679.4,146.5 L679.7,202.8 L679.9,173.5 L680.2,196.5 L680.4,191.8 L680.7,186.4 L680.9,158.8 L681.2,163.1 L681.4,204.8 L681.7,179.5 L681.9,195.8 L682.2,204.6 L682.4,198.9 L682.7,127.5 L682.9,176.3 L683.2,122.8 L683.4,150.2 L683.7,136.8 L683.9,125.8 L684.2,119.1 L684.4,170.8 L684.7,138.2 L684.9,137.8 L685.2,126.9 L685.4,136.0 L685.7,144.6 L685.9,112.7 L686.2,134.1 L686.4,108.0 L686.7,127.6 L686.9,147.2 L687.2,168.7 L687.4,177.9 L687.7,143.8 L687.9,143.3 L688.2,127.7 L688.4,135.2 L688.7,107.0 L688.9,145.8 L689.1,137.4 L689.4,161.3 L689.6,134.5 L689.9,164.1 L690.1,162.0 L690.4,110.7 L690.6,148.3 L690.9,153.7 L691.1,134.7 L691.4,155.2 L691.6,141.6 L691.9,117.5 L692.1,136.4 L692.4,102.6 L692.6,144.8 L692.9,91.2 L693.1,145.8 L693.4,155.0 L693.6,122.9 L693.9,159.0 L694.1,106.0 L694.4,83.1 L694.6,117.3 L694.9,138.7 L695.1,88.6 L695.4,138.1 L695.6,137.5 L695.9,129.9 L696.1,90.1 L696.4,157.4 L696.6,101.4 L696.9,141.8 L697.1,154.7 L697.4,87.9 L697.6,110.4 L697.9,118.0 L698.1,135.5 L698.4,160.9 L698.6,154.3 L698.9,150.2 L699.1,125.4 L699.3,131.3 L699.6,96.2 L699.8,137.2 L700.1,76.0 L700.3,137.2 L700.6,130.1 L700.8,134.8 L701.1,134.0 L701.3,102.0 L701.6,87.3 L701.8,144.6 L702.1,128.3 L702.3,126.6 L702.6,157.1 L702.8,142.0 L703.1,134.7 L703.3,97.2 L703.6,105.7 L703.8,125.7 L704.1,127.5 L704.3,141.9 L704.6,142.0 L704.8,127.4 L705.1,116.2 L705.3,122.1 L705.6,79.8 L705.8,123.5 L706.1,91.8 L706.3,114.9 L706.6,116.6 L706.8,156.5 L707.1,152.6 L707.3,93.2 L707.6,160.4 L707.8,144.2 L708.1,126.9 L708.3,157.4 L708.6,85.6 L708.8,120.7 L709.1,141.5 L709.3,159.2 L709.6,138.2 L709.8,153.1 L710.0,141.9 L710.3,122.5 L710.5,163.8 L710.8,91.2 L711.0,161.3 L711.3,95.0 L711.5,93.3 L711.8,105.4 L712.0,97.7 L712.3,92.8 L712.5,135.0 L712.8,102.4 L713.0,131.8 L713.3,101.8 L713.5,152.5 L713.8,146.2 L714.0,123.1 L714.3,113.0 L714.5,140.0 L714.8,105.5 L715.0,148.3 L715.3,122.0 L715.5,122.9 L715.8,132.5 L716.0,104.3 L716.3,146.9 L716.5,138.3 L716.8,157.3 L717.0,149.6 L717.3,97.5 L717.5,165.2 L717.8,140.2 L718.0,142.8 L718.3,163.3 L718.5,165.4 L718.8,91.1 L719.0,158.4 L719.3,84.3 L719.5,116.1 L719.8,119.9 L720.0,160.5 L720.2,164.2 L720.5,121.9 L720.7,93.7 L721.0,145.8 L721.2,102.4 L721.5,163.8 L721.7,97.1 L722.0,92.0 L722.2,99.0 L722.5,107.3 L722.7,102.1 L723.0,127.6 L723.2,165.8 L723.5,105.2 L723.7,148.2 L724.0,115.6 L724.2,105.2 L724.5,148.7 L724.7,115.6 L725.0,113.4 L725.2,86.4 L725.5,98.8 L725.7,131.7 L726.0,138.5 L726.2,155.4 L726.5,127.8 L726.7,86.8 L727.0,167.6 L727.2,138.9 L727.5,148.2 L727.7,142.5 L728.0,152.3 L728.2,102.7 L728.5,158.9 L728.7,100.3 L729.0,131.4 L729.2,93.0 L729.5,89.3 L729.7,91.6 L730.0,86.8 L730.2,133.2 L730.4,124.0 L730.7,101.8 L730.9,129.4 L731.2,111.5 L731.4,122.2 L731.7,129.1 L731.9,119.3 L732.2,132.5 L732.4,126.1 L732.7,163.8 L732.9,108.5 L733.2,93.1 L733.4,118.3 L733.7,139.4 L733.9,112.3 L734.2,117.1 L734.4,144.3 L734.7,98.9 L734.9,159.5 L735.2,128.6 L735.4,106.2 L735.7,103.6 L735.9,121.9 L736.2,171.7 L736.4,96.1 L736.7,143.0 L736.9,131.2 L737.2,151.9 L737.4,151.7 L737.7,95.2 L737.9,107.4 L738.2,93.5 L738.4,97.1 L738.7,147.7 L738.9,158.7 L739.2,163.9 L739.4,147.5 L739.7,92.7 L739.9,95.7 L740.2,122.7 L740.4,112.1 L740.7,93.3 L740.9,131.5 L741.1,118.7 L741.4,115.5 L741.6,139.1 L741.9,154.4 L742.1,95.7 L742.4,175.0 L742.6,127.2 L742.9,141.8 L743.1,129.2 L743.4,121.8 L743.6,161.8 L743.9,166.4 L744.1,166.5 L744.4,143.1 L744.6,165.8 L744.9,96.8 L745.1,159.0 L745.4,162.2 L745.6,158.2 L745.9,157.1 L746.1,148.3 L746.4,99.2 L746.6,133.3 L746.9,133.2 L747.1,125.0 L747.4,176.2 L747.6,105.0 L747.9,142.8 L748.1,146.2 L748.4,128.9 L748.6,162.8 L748.9,116.9 L749.1,173.9 L749.4,110.5 L749.6,126.4 L749.9,164.1 L750.1,121.0 L750.4,165.9 L750.6,171.3 L750.9,155.5 L751.1,164.5 L751.3,108.9 L751.6,142.8 L751.8,104.7 L752.1,103.7 L752.3,151.0 L752.6,150.2 L752.8,142.5 L753.1,125.4 L753.3,173.3 L753.6,109.6 L753.8,142.3 L754.1,176.3 L754.3,151.2 L754.6,126.8 L754.8,170.5 L755.1,140.9 L755.3,134.6 L755.6,134.5 L755.8,157.7 L756.1,159.2 L756.3,108.8 L756.6,127.4 L756.8,123.7 L757.1,161.3 L757.3,162.2 L757.6,181.6 L757.8,161.8 L758.1,158.3 L758.3,143.0 L758.6,155.9 L758.8,139.8 L759.1,156.7 L759.3,171.5 L759.6,182.5 L759.8,111.3 L760.1,119.3 L760.3,140.8 L760.6,140.1 L760.8,182.0 L761.1,155.3 L761.3,174.7 L761.6,124.3 L761.8,175.2 L762.0,138.0 L762.3,169.6 L762.5,161.8 L762.8,112.6 L763.0,168.8 L763.3,130.3 L763.5,108.4 L763.8,150.1 L764.0,112.6 L764.3,173.4 L764.5,114.8 L764.8,174.4 L765.0,160.1 L765.3,112.2 L765.5,169.3 L765.8,137.7 L766.0,143.4 L766.3,141.0 L766.5,153.9 L766.8,166.0 L767.0,142.5 L767.3,112.0 L767.5,117.2 L767.8,183.9 L768.0,130.3 L768.3,162.4 L768.5,141.8 L768.8,187.9 L769.0,184.6 L769.3,186.6 L769.5,131.1 L769.8,187.8 L770.0,166.0 L770.3,186.5 L770.5,144.5 L770.8,117.6 L771.0,156.0 L771.3,152.4 L771.5,169.9 L771.8,123.8 L772.0,156.5 L772.2,169.9 L772.5,132.3 L772.7,142.2 L773.0,131.0 L773.2,121.5 L773.5,184.1 L773.7,183.2 L774.0,120.1 L774.2,131.9 L774.5,153.7 L774.7,154.2 L775.0,180.4 L775.2,134.9 L775.5,157.0 L775.7,180.1 L776.0,125.1 L776.2,134.6 L776.5,158.2 L776.7,177.4 L777.0,131.5 L777.2,117.9 L777.5,135.4 L777.7,148.7 L778.0,171.8 L778.2,155.4 L778.5,171.6 L778.7,185.7 L779.0,126.5 L779.2,152.1 L779.5,148.7 L779.7,181.5 L780.0,134.6 L780.2,169.7 L780.5,148.2 L780.7,185.2 L781.0,149.3 L781.2,174.4 L781.5,157.2 L781.7,133.8 L782.0,181.5 L782.2,144.0 L782.4,145.6 L782.7,149.4 L782.9,143.8 L783.2,181.3 L783.4,164.9 L783.7,187.7 L783.9,133.0 L784.2,170.2 L784.4,134.4 L784.7,175.2 L784.9,164.3 L785.2,147.4 L785.4,175.2 L785.7,181.1 L785.9,188.6 L786.2,130.0 L786.4,128.1 L786.7,194.0 L786.9,170.4 L787.2,154.3 L787.4,162.9 L787.7,197.9 L787.9,168.9 L788.2,164.8 L788.4,153.7 L788.7,199.5 L788.9,129.6 L789.2,128.0 L789.4,168.3 L789.7,150.2 L789.9,168.0 L790.2,161.8 L790.4,178.9 L790.7,172.7 L790.9,183.6 L791.2,148.7 L791.4,138.7 L791.7,194.7 L791.9,181.9 L792.2,197.2 L792.4,194.0 L792.7,144.9 L792.9,170.0 L793.1,148.9 L793.4,144.8 L793.6,195.7 L793.9,155.2 L794.1,139.9 L794.4,159.0 L794.6,157.0 L794.9,144.9 L795.1,200.0 L795.4,191.9 L795.6,181.6 L795.9,164.1 L796.1,165.6 L796.4,173.0 L796.6,134.1 L796.9,173.8 L797.1,189.7 L797.4,184.3 L797.6,168.1 L797.9,166.5 L798.1,204.4 L798.4,159.0 L798.6,133.9 L798.9,202.6 L799.1,138.8 L799.4,193.9 L799.6,151.5 L799.9,193.7 L800.1,198.9 L800.4,171.7 L800.6,136.7 L800.9,166.3 L801.1,206.4 L801.4,172.3 L801.6,205.3 L801.9,165.1 L802.1,193.2 L802.4,192.9 L802.6,162.9 L802.9,197.3 L803.1,181.1 L803.3,199.7 L803.6,180.4 L803.8,154.0 L804.1,205.6 L804.3,158.3 L804.6,201.4 L804.8,202.2 L805.1,170.8 L805.3,142.8 L805.6,151.0 L805.8,158.9 L806.1,147.0 L806.3,173.7 L806.6,205.9 L806.8,177.2 L807.1,158.0 L807.3,175.0 L807.6,184.5 L807.8,211.0 L808.1,198.2 L808.3,177.0 L808.6,193.5 L808.8,156.8 L809.1,154.5 L809.3,175.9 L809.6,192.9 L809.8,187.4 L810.1,189.1 L810.3,168.2 L810.6,206.0 L810.8,187.0 L811.1,161.7 L811.3,189.3 L811.6,155.7 L811.8,155.4 L812.1,210.9 L812.3,157.4 L812.6,214.2 L812.8,193.7 L813.1,162.9 L813.3,190.8 L813.6,184.8 L813.8,176.4 L814.0,204.9 L814.3,199.1 L814.5,214.2 L814.8,175.4 L815.0,191.6 L815.3,157.3 L815.5,175.6 L815.8,152.0 L816.0,165.9 L816.3,173.2 L816.5,160.8 L816.8,152.1 L817.0,207.3 L817.3,213.8 L817.5,220.2 L817.8,212.7 L818.0,220.9 L818.3,180.7 L818.5,170.7 L818.8,179.5 L819.0,224.5 L819.3,164.7 L819.5,214.5 L819.8,158.7 L820.0,173.1 L820.3,163.3 L820.5,179.5 L820.8,181.7 L821.0,199.3 L821.3,199.3 L821.5,215.0 L821.8,192.4 L822.0,178.9 L822.3,192.7 L822.5,194.3 L822.8,172.9 L823.0,167.0 L823.3,228.1 L823.5,165.7 L823.8,205.0 L824.0,166.9 L824.2,167.9 L824.5,210.4 L824.7,215.9 L825.0,213.7 L825.2,229.0 L825.5,165.2 L825.7,186.4 L826.0,229.6 L826.2,168.5 L826.5,220.4 L826.7,170.0 L827.0,210.5 L827.2,216.7 L827.5,193.5 L827.7,164.8 L828.0,193.7 L828.2,168.1 L828.5,224.9 L828.7,193.7 L829.0,222.5 L829.2,196.2 L829.5,190.0 L829.7,231.8 L830.0,221.0 L830.2,231.4 L830.5,166.9 L830.7,218.3 L831.0,177.2 L831.2,196.2 L831.5,216.7 L831.7,196.5 L832.0,167.6 L832.2,167.8 L832.5,186.1 L832.7,175.7 L833.0,202.9 L833.2,207.5 L833.5,194.3 L833.7,179.4 L834.0,172.2 L834.2,184.4 L834.4,210.5 L834.7,207.7 L834.9,219.3 L835.2,217.5 L835.4,224.7 L835.7,179.6 L835.9,181.8 L836.2,226.1 L836.4,226.1 L836.7,221.0 L836.9,181.2 L837.2,231.1 L837.4,201.3 L837.7,201.9 L837.9,186.6 L838.2,225.7 L838.4,212.4 L838.7,238.8 L838.9,201.3 L839.2,222.2 L839.4,187.1 L839.7,227.8 L839.9,200.4 L840.2,228.0 L840.4,220.2 L840.7,229.0 L840.9,182.3 L841.2,219.9 L841.4,196.1 L841.7,180.7 L841.9,192.5 L842.2,180.6 L842.4,230.3 L842.7,219.1 L842.9,195.3 L843.2,238.8 L843.4,193.6 L843.7,202.6 L843.9,214.3 L844.2,211.8 L844.4,233.8 L844.7,222.4 L844.9,247.9 L845.1,222.6 L845.4,192.9 L845.6,221.2 L845.9,219.2 L846.1,208.0 L846.4,208.7 L846.6,196.3 L846.9,224.1 L847.1,219.4 L847.4,237.9 L847.6,207.2 L847.9,205.6 L848.1,214.0 L848.4,211.0 L848.6,219.8 L848.9,221.7 L849.1,238.2 L849.4,210.2 L849.6,239.5 L849.9,243.8 L850.1,194.2 L850.4,202.7 L850.6,241.2 L850.9,242.8 L851.1,206.9 L851.4,246.8 L851.6,202.0 L851.9,247.7 L852.1,205.2 L852.4,203.0 L852.6,220.8 L852.9,235.2 L853.1,243.7 L853.4,216.5 L853.6,228.5 L853.9,237.4 L854.1,200.8 L854.4,206.4 L854.6,207.0 L854.9,252.3 L855.1,252.7 L855.3,245.9 L855.6,222.7 L855.8,243.2 L856.1,237.9 L856.3,215.2 L856.6,242.6 L856.8,238.2 L857.1,252.9 L857.3,216.7 L857.6,259.4 L857.8,236.2 L858.1,199.5 L858.3,223.8 L858.6,203.5 L858.8,215.9 L859.1,226.5 L859.3,225.0 L859.6,230.3 L859.8,232.7 L860.1,210.0 L860.3,236.6 L860.6,227.8 L860.8,241.6 L861.1,252.1 L861.3,259.8 L861.6,247.8 L861.8,210.9 L862.1,235.5 L862.3,214.8 L862.6,209.3 L862.8,215.1 L863.1,256.2 L863.3,226.3 L863.6,237.3 L863.8,212.4 L864.1,254.6 L864.3,232.5 L864.6,223.6 L864.8,216.4 L865.1,247.5 L865.3,226.6 L865.6,228.7 L865.8,266.8 L866.0,220.1 L866.3,225.8 L866.5,257.8 L866.8,212.0 L867.0,231.6 L867.3,262.9 L867.5,238.3 L867.8,250.5 L868.0,248.9 L868.3,262.2 L868.5,254.7 L868.8,269.4 L869.0,246.8 L869.3,250.8 L869.5,262.2 L869.8,251.9 L870.0,220.1 L870.3,237.0 L870.5,268.4 L870.8,235.0 L871.0,242.2 L871.3,264.1 L871.5,269.9 L871.8,235.4 L872.0,217.1 L872.3,223.7 L872.5,250.0 L872.8,263.9 L873.0,247.9 L873.3,261.6 L873.5,253.0 L873.8,255.9 L874.0,267.0 L874.3,222.8 L874.5,219.6 L874.8,270.2 L875.0,254.9 L875.3,249.3 L875.5,234.9 L875.8,235.1 L876.0,270.3 L876.2,273.0 L876.5,249.3 L876.7,276.4 L877.0,260.9 L877.2,275.0 L877.5,228.4 L877.7,250.8 L878.0,229.0 L878.2,278.3 L878.5,266.6 L878.7,231.9 L879.0,246.7 L879.2,237.8 L879.5,267.0 L879.7,229.7 L880.0,278.2 L880.2,252.8 L880.5,270.5 L880.7,240.8 L881.0,268.6 L881.2,286.1 L881.5,233.6 L881.7,277.4 L882.0,246.0 L882.2,284.4 L882.5,263.1 L882.7,282.7 L883.0,260.5 L883.2,268.3 L883.5,233.8 L883.7,244.1 L884.0,270.0 L884.2,274.4 L884.5,287.7 L884.7,236.4 L885.0,258.7 L885.2,277.2 L885.5,264.1 L885.7,246.5 L886.0,259.6 L886.2,269.0 L886.4,241.0 L886.7,240.5 L886.9,236.6 L887.2,253.2 L887.4,290.2 L887.7,288.2 L887.9,284.8 L888.2,288.7 L888.4,253.0 L888.7,238.6 L888.9,247.3 L889.2,264.1 L889.4,286.9 L889.7,242.7 L889.9,288.6 L890.2,277.3 L890.4,252.5 L890.7,287.6 L890.9,278.7 L891.2,295.4 L891.4,254.0 L891.7,267.4 L891.9,254.9 L892.2,289.9 L892.4,280.9 L892.7,279.7 L892.9,292.7 L893.2,294.9 L893.4,270.8 L893.7,261.7 L893.9,265.0 L894.2,255.4 L894.4,262.7 L894.7,300.1 L894.9,254.0 L895.2,249.0 L895.4,261.9 L895.7,262.7 L895.9,250.4 L896.2,272.2 L896.4,285.6 L896.7,266.9 L896.9,267.4 L897.1,289.4 L897.4,278.6 L897.6,250.9 L897.9,258.0 L898.1,254.8 L898.4,270.1 L898.6,300.6 L898.9,267.0 L899.1,253.6 L899.4,268.4 L899.6,265.8 L899.9,303.4 L900.1,296.7 L900.4,295.6 L900.6,276.0 L900.9,267.4 L901.1,291.7 L901.4,285.7 L901.6,284.9 L901.9,267.4 L902.1,261.9 L902.4,269.6 L902.6,287.4 L902.9,259.7 L903.1,308.3 L903.4,263.2 L903.6,290.6 L903.9,263.1 L904.1,263.7 L904.4,286.3 L904.6,270.1 L904.9,306.8 L905.1,289.2 L905.4,276.3 L905.6,281.6 L905.9,303.8 L906.1,283.6 L906.4,288.4 L906.6,293.5 L906.9,269.2 L907.1,284.8 L907.3,270.8 L907.6,307.8 L907.8,299.0 L908.1,282.4 L908.3,313.1 L908.6,315.6 L908.8,284.4 L909.1,270.4 L909.3,266.8 L909.6,309.4 L909.8,269.8 L910.1,271.3 L910.3,288.4 L910.6,281.7 L910.8,279.2 L911.1,308.0 L911.3,271.2 L911.6,319.0 L911.8,296.9 L912.1,318.6 L912.3,306.8 L912.6,278.4 L912.8,310.1 L913.1,316.9 L913.3,315.7 L913.6,297.0 L913.8,280.7 L914.1,277.6 L914.3,322.8 L914.6,287.9 L914.8,319.0 L915.1,316.2 L915.3,311.2 L915.6,302.8 L915.8,313.1 L916.1,316.9 L916.3,282.2 L916.6,319.8 L916.8,324.0 L917.1,287.1 L917.3,289.4 L917.6,304.2 L917.8,285.2 L918.0,319.7 L918.3,283.8 L918.5,326.0 L918.8,312.5 L919.0,311.9 L919.3,295.1 L919.5,294.5 L919.8,325.7 L920.0,301.2 L920.3,313.9 L920.5,320.5 L920.8,304.9 L921.0,289.7 L921.3,289.1 L921.5,290.0 L921.8,285.7 L922.0,329.7 L922.3,304.9 L922.5,310.2 L922.8,300.1 L923.0,302.4 L923.3,324.2 L923.5,320.6 L923.8,298.9 L924.0,294.8 L924.3,329.3 L924.5,300.8 L924.8,320.9 L925.0,309.7 L925.3,333.9 L925.5,315.0 L925.8,308.8 L926.0,307.4 L926.3,319.5 L926.5,311.5 L926.8,326.7 L927.0,310.4 L927.3,298.3 L927.5,335.1 L927.8,302.3 L928.0,319.4 L928.2,301.2 L928.5,298.3 L928.7,324.2 L929.0,340.0 L929.2,340.8 L929.5,304.0 L929.7,315.8 L930.0,335.9 L930.2,307.4 L930.5,325.1 L930.7,314.9 L931.0,318.9 L931.2,334.2 L931.5,301.8 L931.7,339.4 L932.0,342.7 L932.2,320.5 L932.5,305.0 L932.7,340.5 L933.0,339.5 L933.2,340.4 L933.5,304.7 L933.7,346.4 L934.0,336.7 L934.2,336.8 L934.5,321.7 L934.7,326.2 L935.0,319.8 L935.2,346.1 L935.5,306.7 L935.7,349.8 L936.0,311.8 L936.2,345.8 L936.5,321.7 L936.7,350.8 L937.0,326.5 L937.2,328.3 L937.5,311.6 L937.7,318.9 L938.0,322.7 L938.2,309.5 L938.4,311.1 L938.7,339.9 L938.9,320.7 L939.2,323.5 L939.4,344.0 L939.7,353.7 L939.9,324.3 L940.2,313.1 L940.4,341.5 L940.7,333.7 L940.9,327.3 L941.2,351.5 L941.4,323.8 L941.7,319.3 L941.9,345.3 L942.2,328.8 L942.4,348.2 L942.7,357.2 L942.9,324.9 L943.2,358.6 L943.4,340.8 L943.7,341.3 L943.9,321.9 L944.2,330.1 L944.4,342.4 L944.7,338.2 L944.9,345.8 L945.2,356.5 L945.4,331.0 L945.7,359.6 L945.9,346.5 L946.2,351.7 L946.4,351.2 L946.7,328.0 L946.9,329.3 L947.2,335.5 L947.4,330.0 L947.7,364.5 L947.9,364.4 L948.2,331.3 L948.4,327.5 L948.7,331.5 L948.9,353.6 L949.1,349.8 L949.4,340.6 L949.6,347.5 L949.9,357.5 L950.1,338.9 L950.4,363.2 L950.6,341.5 L950.9,351.4 L951.1,337.3 L951.4,362.3 L951.6,353.4 L951.9,356.3 L952.1,336.6 L952.4,335.4 L952.6,348.4 L952.9,342.5 L953.1,356.6 L953.4,343.8 L953.6,368.5 L953.9,365.6 L954.1,364.9 L954.4,371.9 L954.6,344.8 L954.9,340.6 L955.1,366.9 L955.4,339.5 L955.6,373.4 L955.9,358.6 L956.1,356.1 L956.4,371.3 L956.6,359.5 L956.9,361.9 L957.1,356.7 L957.4,359.4 L957.6,350.4 L957.9,345.8 L958.1,368.2 L958.4,354.2 L958.6,344.1 L958.9,374.5 L959.1,373.1 L959.3,350.1 L959.6,368.0 L959.8,349.9 L960.1,355.0 L960.3,353.9 L960.6,344.3 L960.8,362.5 L961.1,346.7 L961.3,356.1 L961.6,367.5 L961.8,358.2 L962.1,349.8 L962.3,349.2 L962.6,351.6 L962.8,357.7 L963.1,349.9 L963.3,383.8 L963.6,380.3 L963.8,349.7 L964.1,356.7 L964.3,364.6 L964.6,371.5 L964.8,377.5 L965.1,385.3 L965.3,379.9 L965.6,368.8 L965.8,368.9 L966.1,377.0 L966.3,371.9 L966.6,369.6 L966.8,381.0 L967.1,355.4 L967.3,382.4 L967.6,370.5 L967.8,362.9 L968.1,380.4 L968.3,360.8 L968.6,359.3 L968.8,372.8 L969.1,376.7 L969.3,369.4 L969.6,379.3 L969.8,381.5 L970.0,379.1 L970.3,365.7 L970.5,382.9 L970.8,375.0 L971.0,374.8 L971.3,375.1 L971.5,369.6 L971.8,391.4 L972.0,370.9 L972.3,386.1 L972.5,378.4 L972.8,375.3 L973.0,368.6 L973.3,394.0 L973.5,381.5 L973.8,374.6 L974.0,378.6 L974.3,381.4 L974.5,394.0 L974.8,368.2 L975.0,383.9 L975.3,380.1 L975.5,383.1 L975.8,392.6 L976.0,391.3 L976.3,391.0 L976.5,386.7 L976.8,395.8 L977.0,370.4 L977.3,399.4 L977.5,389.0 L977.8,398.3 L978.0,383.9 L978.3,376.0 L978.5,378.2 L978.8,398.5 L979.0,401.6 L979.3,403.5 L979.5,400.8 L979.8,392.3 L980.0,394.1 L980.2,391.9 L980.5,382.2 L980.7,381.3 L981.0,382.1 L981.2,388.3 L981.5,394.8 L981.7,395.5 L982.0,379.2 L982.2,397.5 L982.5,405.9 L982.7,383.5 L983.0,392.1 L983.2,407.0 L983.5,381.7 L983.7,381.1 L984.0,409.8 L984.2,408.2 L984.5,410.1 L984.7,408.7 L985.0,411.0 L985.2,385.2 L985.5,394.9 L985.7,404.3 L986.0,393.9 L986.2,397.4 L986.5,406.7 L986.7,398.3 L987.0,411.5 L987.2,413.7 L987.5,412.6 L987.7,392.2 L988.0,404.4 L988.2,404.9 L988.5,410.4 L988.7,409.7 L989.0,399.5 L989.2,400.6 L989.5,402.2 L989.7,408.2 L990.0,412.4 L990.2,415.3 L990.4,392.4 L990.7,401.3 L990.9,401.5 L991.2,414.3 L991.4,420.7 L991.7,410.8 L991.9,394.2 L992.2,417.7 L992.4,418.1 L992.7,406.6 L992.9,422.3 L993.2,403.8 L993.4,418.1 L993.7,401.2 L993.9,406.2 L994.2,412.6 L994.4,401.0 L994.7,409.2 L994.9,403.2 L995.2,403.2 L995.4,411.4 L995.7,411.7 L995.9,400.5 L996.2,401.3 L996.4,414.5 L996.7,421.3 L996.9,406.4 L997.2,428.5 L997.4,418.4 L997.7,410.7 L997.9,406.7 L998.2,419.2 L998.4,407.9 L998.7,429.5 L998.9,417.4 L999.2,418.1 L999.4,410.9 L999.7,408.7 L999.9,418.6 L1000.2,409.9 L1000.4,416.4 L1000.7,414.3 L1000.9,409.5 L1001.1,433.7 L1001.4,421.5 L1001.6,427.6 L1001.9,431.1 L1002.1,421.9 L1002.4,423.3 L1002.6,424.2 L1002.9,418.4 L1003.1,422.4 L1003.4,429.8 L1003.6,420.2 L1003.9,428.0 L1004.1,427.0 L1004.4,435.7 L1004.6,428.2 L1004.9,426.9 L1005.1,430.8 L1005.4,425.0 L1005.6,422.9 L1005.9,433.9 L1006.1,429.2 L1006.4,436.7 L1006.6,441.0 L1006.9,431.2 L1007.1,435.4 L1007.4,424.3 L1007.6,441.7 L1007.9,435.4 L1008.1,442.6 L1008.4,428.2 L1008.6,439.3 L1008.9,433.7 L1009.1,434.3 L1009.4,429.8 L1009.6,425.8 L1009.9,434.8 L1010.1,439.5 L1010.4,427.0 L1010.6,446.0 L1010.9,438.0 L1011.1,443.6 L1011.3,432.1 L1011.6,432.7 L1011.8,441.5 L1012.1,435.8 L1012.3,439.7 L1012.6,437.0 L1012.8,429.7 L1013.1,433.5 L1013.3,433.1 L1013.6,438.8 L1013.8,448.1 L1014.1,440.2 L1014.3,446.7 L1014.6,437.0 L1014.8,450.1 L1015.1,436.4 L1015.3,440.9 L1015.6,441.1 L1015.8,438.6 L1016.1,435.7 L1016.3,450.8 L1016.6,434.9 L1016.8,444.3 L1017.1,450.2 L1017.3,442.5 L1017.6,443.8 L1017.8,442.4 L1018.1,448.3 L1018.3,445.1 L1018.6,438.9 L1018.8,440.0 L1019.1,449.1 L1019.3,439.8 L1019.6,446.5 L1019.8,453.7 L1020.1,448.3 L1020.3,454.9 L1020.6,441.2 L1020.8,450.1 L1021.1,454.3 L1021.3,458.5 L1021.6,450.2 L1021.8,452.0 L1022.0,460.3 L1022.3,453.7 L1022.5,448.9 L1022.8,444.3 L1023.0,451.3 L1023.3,460.9 L1023.5,454.2 L1023.8,450.2 L1024.0,452.7 L1024.3,452.5 L1024.5,460.1 L1024.8,456.2 L1025.0,463.9 L1025.3,460.3 L1025.5,454.9 L1025.8,457.8 L1026.0,455.0 L1026.3,464.5 L1026.5,449.7 L1026.8,464.1 L1027.0,467.5 L1027.3,452.6 L1027.5,467.5 L1027.8,465.3 L1028.0,460.7 L1028.3,453.4 L1028.5,467.9 L1028.8,458.8 L1029.0,458.0 L1029.3,470.5 L1029.5,470.4 L1029.8,462.8 L1030.0,455.1 L1030.3,455.6 L1030.5,472.2 L1030.8,469.6 L1031.0,462.2 L1031.3,463.5 L1031.5,468.9 L1031.8,458.1 L1032.0,459.1 L1032.2,459.7 L1032.5,474.6 L1032.7,470.6 L1033.0,460.3 L1033.2,462.0 L1033.5,466.0 L1033.7,462.6 L1034.0,461.8 L1034.2,476.0 L1034.5,463.1 L1034.7,476.0 L1035.0,473.3 L1035.2,470.2 L1035.5,467.9 L1035.7,467.6 L1036.0,468.7 L1036.2,468.2 L1036.5,476.3 L1036.7,467.9 L1037.0,479.2 L1037.2,473.7 L1037.5,479.5 L1037.7,470.1 L1038.0,482.4 L1038.2,473.5 L1038.5,477.9 L1038.7,477.2 L1039.0,481.7 L1039.2,475.4 L1039.5,473.6 L1039.7,473.7 L1040.0,479.0 L1040.2,475.7 L1040.5,480.4 L1040.7,478.0 L1041.0,479.6 L1041.2,477.0 L1041.5,478.0 L1041.7,475.9 L1042.0,486.7 L1042.2,475.6 L1042.4,486.7 L1042.7,478.3 L1042.9,479.9 L1043.2,485.6 L1043.4,477.3 L1043.7,488.6 L1043.9,482.3 L1044.2,484.3 L1044.4,480.5 L1044.7,486.0 L1044.9,480.2 L1045.2,481.7 L1045.4,488.6 L1045.7,489.5 L1045.9,489.1 L1046.2,490.1 L1046.4,485.0 L1046.7,491.8 L1046.9,488.0 L1047.2,490.7 L1047.4,494.4 L1047.7,491.1 L1047.9,492.3 L1048.2,492.2 L1048.4,487.7 L1048.7,494.3 L1048.9,493.3 L1049.2,493.2 L1049.4,494.0 L1049.7,495.0 L1049.9,490.7 L1050.2,496.0 L1050.4,489.2 L1050.7,493.3 L1050.9,490.0 L1051.2,493.4 L1051.4,493.3 L1051.7,498.7 L1051.9,492.5 L1052.2,494.7 L1052.4,495.1 L1052.7,500.3 L1052.9,495.8 L1053.1,495.6 L1053.4,500.6 L1053.6,499.1 L1053.9,494.1 L1054.1,502.2 L1054.4,499.3 L1054.6,502.4 L1054.9,503.3 L1055.1,501.6 L1055.4,504.6 L1055.6,505.0 L1055.9,499.4 L1056.1,506.1 L1056.4,504.9 L1056.6,502.5 L1056.9,507.5 L1057.1,502.6 L1057.4,505.7 L1057.6,501.1 L1057.9,505.1 L1058.1,503.4 L1058.4,503.9 L1058.6,508.6 L1058.9,509.7 L1059.1,509.0 L1059.4,507.1 L1059.6,508.9 L1059.9,506.4 L1060.1,508.8 L1060.4,504.9 L1060.6,507.3 L1060.9,508.4 L1061.1,507.5 L1061.4,513.7 L1061.6,506.5 L1061.9,510.2 L1062.1,513.1 L1062.4,508.5 L1062.6,512.3 L1062.9,509.0 L1063.1,515.9 L1063.3,509.6 L1063.6,509.9 L1063.8,514.0 L1064.1,515.4 L1064.3,515.2 L1064.6,513.7 L1064.8,513.4 L1065.1,517.4 L1065.3,515.6 L1065.6,518.7 L1065.8,519.0 L1066.1,516.0 L1066.3,514.2 L1066.6,517.3 L1066.8,520.6 L1067.1,520.7 L1067.3,517.0 L1067.6,521.1 L1067.8,516.8 L1068.1,522.0 L1068.3,517.9 L1068.6,521.7 L1068.8,522.2 L1069.1,522.9 L1069.3,521.4 L1069.6,522.2 L1069.8,523.7 L1070.1,522.6 L1070.3,523.7 L1070.6,522.8 L1070.8,523.0 L1071.1,525.2 L1071.3,524.6 L1071.6,525.7 L1071.8,523.8 L1072.1,525.4 L1072.3,526.0 L1072.6,528.6 L1072.8,528.2 L1073.1,528.4 L1073.3,527.9 L1073.6,527.2 L1073.8,528.8 L1074.0,527.0 L1074.3,528.4 L1074.5,529.6 L1074.8,531.7 L1075.0,530.3 L1075.3,532.0 L1075.5,531.2 L1075.8,531.4 L1076.0,532.9 L1076.3,532.6 L1076.5,533.2 L1076.8,531.9 L1077.0,534.4 L1077.3,533.5 L1077.5,533.6 L1077.8,533.2 L1078.0,533.5 L1078.3,534.5 L1078.5,534.8 L1078.8,535.2 L1079.0,535.7 L1079.3,537.3 L1079.5,536.6 L1079.8,538.0 L1080.0,538.5 L1080.3,538.9 L1080.5,538.7 L1080.8,539.3 L1081.0,538.3 L1081.3,538.8 L1081.5,539.2 L1081.8,540.2 L1082.0,540.8 L1082.3,540.4 L1082.5,541.9 L1082.8,541.3 L1083.0,542.1 L1083.3,542.2 L1083.5,542.5 L1083.8,543.7 L1084.0,544.0" fill="none" stroke="#1f77b4" stroke-width="1.4" opacity="0.85"/><text x="1040" y="54" fill="#ff7f0e" font-size="11">roll 22</text><text x="1090" y="558" fill="#ff7f0e" font-size="11">-18</text><path d="M616.0,334.6 L616.2,335.7 L616.5,333.4 L616.7,334.6 L617.0,334.6 L617.2,334.6 L617.5,333.4 L617.7,335.7 L618.0,334.6 L618.2,334.6 L618.5,333.4 L618.7,334.6 L619.0,333.4 L619.2,333.4 L619.5,334.6 L619.7,334.6 L620.0,334.6 L620.2,334.6 L620.5,333.4 L620.7,333.4 L621.0,334.6 L621.2,332.2 L621.5,334.6 L621.7,334.6 L622.0,334.6 L622.2,332.2 L622.5,334.6 L622.7,332.2 L623.0,333.4 L623.2,333.4 L623.5,332.2 L623.7,332.2 L624.0,332.2 L624.2,329.9 L624.5,329.9 L624.7,329.9 L625.0,332.2 L625.2,331.1 L625.5,331.1 L625.7,328.7 L626.0,328.7 L626.2,327.5 L626.4,328.7 L626.7,328.7 L626.9,326.4 L627.2,329.9 L627.4,328.7 L627.7,326.4 L627.9,328.7 L628.2,327.5 L628.4,324.0 L628.7,324.0 L628.9,326.4 L629.2,322.9 L629.4,326.4 L629.7,321.7 L629.9,324.0 L630.2,325.2 L630.4,322.9 L630.7,320.5 L630.9,320.5 L631.2,318.2 L631.4,322.9 L631.7,321.7 L631.9,318.2 L632.2,320.5 L632.4,317.0 L632.7,320.5 L632.9,319.4 L633.2,315.9 L633.4,314.7 L633.7,317.0 L633.9,315.9 L634.2,313.5 L634.4,314.7 L634.7,314.7 L634.9,311.2 L635.2,312.3 L635.4,312.3 L635.7,313.5 L635.9,313.5 L636.2,308.8 L636.4,310.0 L636.7,306.5 L636.9,308.8 L637.1,303.0 L637.4,310.0 L637.6,305.3 L637.9,301.8 L638.1,306.5 L638.4,300.6 L638.6,301.8 L638.9,305.3 L639.1,305.3 L639.4,296.0 L639.6,299.5 L639.9,294.8 L640.1,298.3 L640.4,301.8 L640.6,293.6 L640.9,299.5 L641.1,292.5 L641.4,297.1 L641.6,298.3 L641.9,291.3 L642.1,288.9 L642.4,288.9 L642.6,293.6 L642.9,287.8 L643.1,291.3 L643.4,286.6 L643.6,291.3 L643.9,285.4 L644.1,281.9 L644.4,281.9 L644.6,284.3 L644.9,287.8 L645.1,280.8 L645.4,280.8 L645.6,285.4 L645.9,279.6 L646.1,278.4 L646.4,277.2 L646.6,281.9 L646.9,277.2 L647.1,274.9 L647.3,283.1 L647.6,271.4 L647.8,283.1 L648.1,279.6 L648.3,273.7 L648.6,271.4 L648.8,272.6 L649.1,269.1 L649.3,266.7 L649.6,272.6 L649.8,269.1 L650.1,264.4 L650.3,272.6 L650.6,274.9 L650.8,267.9 L651.1,266.7 L651.3,272.6 L651.6,264.4 L651.8,273.7 L652.1,271.4 L652.3,264.4 L652.6,271.4 L652.8,263.2 L653.1,267.9 L653.3,267.9 L653.6,263.2 L653.8,269.1 L654.1,253.8 L654.3,262.0 L654.6,252.7 L654.8,262.0 L655.1,266.7 L655.3,255.0 L655.6,258.5 L655.8,252.7 L656.1,259.7 L656.3,255.0 L656.6,251.5 L656.8,251.5 L657.1,248.0 L657.3,258.5 L657.6,262.0 L657.8,255.0 L658.0,259.7 L658.3,258.5 L658.5,246.8 L658.8,260.9 L659.0,253.8 L659.3,256.2 L659.5,258.5 L659.8,256.2 L660.0,255.0 L660.3,242.1 L660.5,250.3 L660.8,253.8 L661.0,242.1 L661.3,257.3 L661.5,245.7 L661.8,255.0 L662.0,238.6 L662.3,238.6 L662.5,238.6 L662.8,245.7 L663.0,255.0 L663.3,236.3 L663.5,235.1 L663.8,253.8 L664.0,239.8 L664.3,243.3 L664.5,249.2 L664.8,241.0 L665.0,232.8 L665.3,231.6 L665.5,241.0 L665.8,244.5 L666.0,248.0 L666.3,233.9 L666.5,239.8 L666.8,249.2 L667.0,233.9 L667.3,246.8 L667.5,239.8 L667.8,239.8 L668.0,237.5 L668.2,245.7 L668.5,231.6 L668.7,236.3 L669.0,233.9 L669.2,223.4 L669.5,237.5 L669.7,223.4 L670.0,228.1 L670.2,233.9 L670.5,241.0 L670.7,239.8 L671.0,226.9 L671.2,229.3 L671.5,237.5 L671.7,215.2 L672.0,217.6 L672.2,225.8 L672.5,218.7 L672.7,223.4 L673.0,217.6 L673.2,219.9 L673.5,211.7 L673.7,219.9 L674.0,233.9 L674.2,211.7 L674.5,230.4 L674.7,216.4 L675.0,219.9 L675.2,223.4 L675.5,215.2 L675.7,226.9 L676.0,222.2 L676.2,229.3 L676.5,208.2 L676.7,216.4 L677.0,215.2 L677.2,221.1 L677.5,225.8 L677.7,205.9 L678.0,203.5 L678.2,202.4 L678.4,209.4 L678.7,207.0 L678.9,203.5 L679.2,200.0 L679.4,208.2 L679.7,195.3 L679.9,198.8 L680.2,205.9 L680.4,194.2 L680.7,198.8 L680.9,202.4 L681.2,212.9 L681.4,191.8 L681.7,198.8 L681.9,200.0 L682.2,195.3 L682.4,207.0 L682.7,198.8 L682.9,197.7 L683.2,208.2 L683.4,212.9 L683.7,215.2 L683.9,211.7 L684.2,190.7 L684.4,193.0 L684.7,201.2 L684.9,193.0 L685.2,211.7 L685.4,204.7 L685.7,209.4 L685.9,186.0 L686.2,198.8 L686.4,208.2 L686.7,188.3 L686.9,210.6 L687.2,189.5 L687.4,186.0 L687.7,203.5 L687.9,182.5 L688.2,196.5 L688.4,183.6 L688.7,204.7 L688.9,200.0 L689.1,200.0 L689.4,182.5 L689.6,188.3 L689.9,176.6 L690.1,179.0 L690.4,186.0 L690.6,204.7 L690.9,188.3 L691.1,200.0 L691.4,194.2 L691.6,177.8 L691.9,175.4 L692.1,197.7 L692.4,328.7 L692.6,320.5 L692.9,304.2 L693.1,293.6 L693.4,293.6 L693.6,277.2 L693.9,265.5 L694.1,267.9 L694.4,245.7 L694.6,251.5 L694.9,232.8 L695.1,232.8 L695.4,235.1 L695.6,233.9 L695.9,204.7 L696.1,225.8 L696.4,202.4 L696.6,222.2 L696.9,209.4 L697.1,188.3 L697.4,211.7 L697.6,193.0 L697.9,210.6 L698.1,181.3 L698.4,194.2 L698.6,198.8 L698.9,181.3 L699.1,169.6 L699.3,173.1 L699.6,162.6 L699.8,190.7 L700.1,182.5 L700.3,189.5 L700.6,183.6 L700.8,168.4 L701.1,177.8 L701.3,168.4 L701.6,150.9 L701.8,150.9 L702.1,163.8 L702.3,159.1 L702.6,156.7 L702.8,160.2 L703.1,155.6 L703.3,174.3 L703.6,170.8 L703.8,157.9 L704.1,169.6 L704.3,156.7 L704.6,142.7 L704.8,149.7 L705.1,164.9 L705.3,150.9 L705.6,159.1 L705.8,191.8 L706.1,161.4 L706.3,190.7 L706.6,186.0 L706.8,190.7 L707.1,196.5 L707.3,176.6 L707.6,215.2 L707.8,209.4 L708.1,225.8 L708.3,216.4 L708.6,232.8 L708.8,223.4 L709.1,238.6 L709.3,219.9 L709.6,211.7 L709.8,242.1 L710.0,233.9 L710.3,225.8 L710.5,231.6 L710.8,221.1 L711.0,221.1 L711.3,237.5 L711.5,212.9 L711.8,235.1 L712.0,222.2 L712.3,241.0 L712.5,241.0 L712.8,244.5 L713.0,250.3 L713.3,258.5 L713.5,236.3 L713.8,263.2 L714.0,244.5 L714.3,260.9 L714.5,259.7 L714.8,253.8 L715.0,250.3 L715.3,237.5 L715.5,250.3 L715.8,241.0 L716.0,257.3 L716.3,255.0 L716.5,253.8 L716.8,264.4 L717.0,258.5 L717.3,253.8 L717.5,266.7 L717.8,253.8 L718.0,274.9 L718.3,266.7 L718.5,277.2 L718.8,272.6 L719.0,260.9 L719.3,245.7 L719.5,257.3 L719.8,276.1 L720.0,259.7 L720.2,258.5 L720.5,272.6 L720.7,280.8 L721.0,280.8 L721.2,272.6 L721.5,277.2 L721.7,269.1 L722.0,288.9 L722.2,278.4 L722.5,266.7 L722.7,285.4 L723.0,265.5 L723.2,284.3 L723.5,279.6 L723.7,284.3 L724.0,279.6 L724.2,298.3 L724.5,283.1 L724.7,293.6 L725.0,285.4 L725.2,301.8 L725.5,296.0 L725.7,280.8 L726.0,298.3 L726.2,288.9 L726.5,291.3 L726.7,280.8 L727.0,298.3 L727.2,280.8 L727.5,297.1 L727.7,299.5 L728.0,290.1 L728.2,296.0 L728.5,292.5 L728.7,305.3 L729.0,292.5 L729.2,300.6 L729.5,300.6 L729.7,285.4 L730.0,278.4 L730.2,291.3 L730.4,277.2 L730.7,290.1 L730.9,308.8 L731.2,296.0 L731.4,278.4 L731.7,293.6 L731.9,288.9 L732.2,299.5 L732.4,290.1 L732.7,285.4 L732.9,283.1 L733.2,269.1 L733.4,284.3 L733.7,287.8 L733.9,285.4 L734.2,292.5 L734.4,288.9 L734.7,271.4 L734.9,288.9 L735.2,296.0 L735.4,292.5 L735.7,306.5 L735.9,298.3 L736.2,303.0 L736.4,317.0 L736.7,304.2 L736.9,298.3 L737.2,305.3 L737.4,298.3 L737.7,292.5 L737.9,288.9 L738.2,297.1 L738.4,291.3 L738.7,286.6 L738.9,278.4 L739.2,290.1 L739.4,279.6 L739.7,265.5 L739.9,288.9 L740.2,273.7 L740.4,274.9 L740.7,277.2 L740.9,273.7 L741.1,273.7 L741.4,271.4 L741.6,272.6 L741.9,294.8 L742.1,283.1 L742.4,283.1 L742.6,292.5 L742.9,281.9 L743.1,287.8 L743.4,283.1 L743.6,291.3 L743.9,290.1 L744.1,279.6 L744.4,300.6 L744.6,292.5 L744.9,303.0 L745.1,288.9 L745.4,304.2 L745.6,307.7 L745.9,294.8 L746.1,308.8 L746.4,297.1 L746.6,310.0 L746.9,325.2 L747.1,321.7 L747.4,310.0 L747.6,324.0 L747.9,332.2 L748.1,319.4 L748.4,326.4 L748.6,321.7 L748.9,307.7 L749.1,325.2 L749.4,313.5 L749.6,325.2 L749.9,310.0 L750.1,307.7 L750.4,318.2 L750.6,306.5 L750.9,321.7 L751.1,320.5 L751.3,328.7 L751.6,317.0 L751.8,329.9 L752.1,318.2 L752.3,322.9 L752.6,315.9 L752.8,331.1 L753.1,320.5 L753.3,308.8 L753.6,318.2 L753.8,306.5 L754.1,308.8 L754.3,313.5 L754.6,325.2 L754.8,339.2 L755.1,325.2 L755.3,336.9 L755.6,327.5 L755.8,329.9 L756.1,340.4 L756.3,328.7 L756.6,341.6 L756.8,340.4 L757.1,326.4 L757.3,341.6 L757.6,335.7 L757.8,322.9 L758.1,336.9 L758.3,348.6 L758.6,349.8 L758.8,349.8 L759.1,339.2 L759.3,333.4 L759.6,336.9 L759.8,352.1 L760.1,336.9 L760.3,322.9 L760.6,338.1 L760.8,325.2 L761.1,338.1 L761.3,326.4 L761.6,324.0 L761.8,327.5 L762.0,339.2 L762.3,349.8 L762.5,366.2 L762.8,368.5 L763.0,387.2 L763.3,396.6 L763.5,395.4 L763.8,417.6 L764.0,415.3 L764.3,420.0 L764.5,428.2 L764.8,446.9 L765.0,446.9 L765.3,453.9 L765.5,453.9 L765.8,446.9 L766.0,463.3 L766.3,463.3 L766.5,464.4 L766.8,465.6 L767.0,470.3 L767.3,484.3 L767.5,494.9 L767.8,496.0 L768.0,491.4 L768.3,482.0 L768.5,485.5 L768.8,508.9 L769.0,480.8 L769.3,491.4 L769.5,510.1 L769.8,490.2 L770.0,491.4 L770.3,504.2 L770.5,487.8 L770.8,496.0 L771.0,504.2 L771.3,522.9 L771.5,490.2 L771.8,512.4 L772.0,524.1 L772.2,499.5 L772.5,527.6 L772.7,510.1 L773.0,496.0 L773.2,517.1 L773.5,520.6 L773.7,522.9 L774.0,518.3 L774.2,517.1 L774.5,510.1 L774.7,526.5 L775.0,505.4 L775.2,517.1 L775.5,532.3 L775.7,522.9 L776.0,512.4 L776.2,505.4 L776.5,539.3 L776.7,521.8 L777.0,508.9 L777.2,508.9 L777.5,539.3 L777.7,508.9 L778.0,525.3 L778.2,518.3 L778.5,507.7 L778.7,514.8 L779.0,533.5 L779.2,510.1 L779.5,532.3 L779.7,504.2 L780.0,501.9 L780.2,524.1 L780.5,512.4 L780.7,526.5 L781.0,534.6 L781.2,517.1 L781.5,521.8 L781.7,513.6 L782.0,518.3 L782.2,537.0 L782.4,498.4 L782.7,530.0 L782.9,506.6 L783.2,503.1 L783.4,538.1 L783.7,498.4 L783.9,512.4 L784.2,517.1 L784.4,531.1 L784.7,500.7 L784.9,519.4 L785.2,510.1 L785.4,503.1 L785.7,524.1 L785.9,497.2 L786.2,527.6 L786.4,497.2 L786.7,522.9 L786.9,524.1 L787.2,511.2 L787.4,533.5 L787.7,498.4 L787.9,498.4 L788.2,531.1 L788.4,504.2 L788.7,497.2 L788.9,535.8 L789.2,517.1 L789.4,522.9 L789.7,501.9 L789.9,524.1 L790.2,507.7 L790.4,518.3 L790.7,532.3 L790.9,528.8 L791.2,504.2 L791.4,513.6 L791.7,519.4 L791.9,522.9 L792.2,500.7 L792.4,508.9 L792.7,518.3 L792.9,512.4 L793.1,519.4 L793.4,507.7 L793.6,538.1 L793.9,501.9 L794.1,526.5 L794.4,505.4 L794.6,527.6 L794.9,514.8 L795.1,522.9 L795.4,513.6 L795.6,535.8 L795.9,505.4 L796.1,517.1 L796.4,515.9 L796.6,518.3 L796.9,535.8 L797.1,497.2 L797.4,526.5 L797.6,528.8 L797.9,526.5 L798.1,496.0 L798.4,508.9 L798.6,501.9 L798.9,531.1 L799.1,501.9 L799.4,501.9 L799.6,522.9 L799.9,519.4 L800.1,510.1 L800.4,498.4 L800.6,524.1 L800.9,524.1 L801.1,500.7 L801.4,512.4 L801.6,526.5 L801.9,531.1 L802.1,519.4 L802.4,524.1 L802.6,501.9 L802.9,506.6 L803.1,511.2 L803.3,524.1 L803.6,505.4 L803.8,525.3 L804.1,527.6 L804.3,538.1 L804.6,504.2 L804.8,538.1 L805.1,518.3 L805.3,499.5 L805.6,534.6 L805.8,496.0 L806.1,498.4 L806.3,510.1 L806.6,530.0 L806.8,531.1 L807.1,522.9 L807.3,514.8 L807.6,506.6 L807.8,514.8 L808.1,534.6 L808.3,528.8 L808.6,512.4 L808.8,524.1 L809.1,503.1 L809.3,505.4 L809.6,539.3 L809.8,524.1 L810.1,515.9 L810.3,533.5 L810.6,527.6 L810.8,517.1 L811.1,539.3 L811.3,530.0 L811.6,531.1 L811.8,513.6 L812.1,507.7 L812.3,532.3 L812.6,524.1 L812.8,505.4 L813.1,542.8 L813.3,532.3 L813.6,530.0 L813.8,517.1 L814.0,512.4 L814.3,537.0 L814.5,499.5 L814.8,510.1 L815.0,525.3 L815.3,505.4 L815.5,533.5 L815.8,531.1 L816.0,534.6 L816.3,526.5 L816.5,514.8 L816.8,527.6 L817.0,518.3 L817.3,512.4 L817.5,544.0 L817.8,525.3 L818.0,500.7 L818.3,533.5 L818.5,521.8 L818.8,530.0 L819.0,508.9 L819.3,541.7 L819.5,505.4 L819.8,524.1 L820.0,532.3 L820.3,531.1 L820.5,503.1 L820.8,507.7 L821.0,500.7 L821.3,514.8 L821.5,499.5 L821.8,533.5 L822.0,531.1 L822.3,511.2 L822.5,504.2 L822.8,534.6 L823.0,513.6 L823.3,512.4 L823.5,522.9 L823.8,508.9 L824.0,515.9 L824.2,533.5 L824.5,526.5 L824.7,503.1 L825.0,527.6 L825.2,528.8 L825.5,537.0 L825.7,500.7 L826.0,507.7 L826.2,500.7 L826.5,531.1 L826.7,504.2 L827.0,508.9 L827.2,525.3 L827.5,532.3 L827.7,526.5 L828.0,507.7 L828.2,526.5 L828.5,513.6 L828.7,511.2 L829.0,540.5 L829.2,520.6 L829.5,499.5 L829.7,526.5 L830.0,527.6 L830.2,505.4 L830.5,510.1 L830.7,512.4 L831.0,541.7 L831.2,533.5 L831.5,507.7 L831.7,528.8 L832.0,511.2 L832.2,540.5 L832.5,532.3 L832.7,517.1 L833.0,506.6 L833.2,518.3 L833.5,508.9 L833.7,504.2 L834.0,475.0 L834.2,468.0 L834.4,485.5 L834.7,456.2 L834.9,437.5 L835.2,443.4 L835.4,435.2 L835.7,445.7 L835.9,415.3 L836.2,408.3 L836.4,408.3 L836.7,401.3 L836.9,388.4 L837.2,370.8 L837.4,356.8 L837.7,372.0 L837.9,354.5 L838.2,343.9 L838.4,331.1 L838.7,321.7 L838.9,306.5 L839.2,298.3 L839.4,285.4 L839.7,277.2 L839.9,290.1 L840.2,308.8 L840.4,292.5 L840.7,288.9 L840.9,271.4 L841.2,290.1 L841.4,277.2 L841.7,288.9 L841.9,284.3 L842.2,274.9 L842.4,269.1 L842.7,251.5 L842.9,257.3 L843.2,264.4 L843.4,248.0 L843.7,260.9 L843.9,238.6 L844.2,238.6 L844.4,242.1 L844.7,235.1 L844.9,212.9 L845.1,218.7 L845.4,219.9 L845.6,196.5 L845.9,205.9 L846.1,204.7 L846.4,207.0 L846.6,181.3 L846.9,195.3 L847.1,193.0 L847.4,183.6 L847.6,184.8 L847.9,162.6 L848.1,196.5 L848.4,191.8 L848.6,193.0 L848.9,176.6 L849.1,170.8 L849.4,195.3 L849.6,187.2 L849.9,171.9 L850.1,187.2 L850.4,154.4 L850.6,160.2 L850.9,163.8 L851.1,167.3 L851.4,157.9 L851.6,183.6 L851.9,153.2 L852.1,174.3 L852.4,170.8 L852.6,169.6 L852.9,171.9 L853.1,168.4 L853.4,153.2 L853.6,166.1 L853.9,170.8 L854.1,145.0 L854.4,164.9 L854.6,166.1 L854.9,146.2 L855.1,173.1 L855.3,153.2 L855.6,167.3 L855.8,150.9 L856.1,157.9 L856.3,168.4 L856.6,187.2 L856.8,191.8 L857.1,196.5 L857.3,167.3 L857.6,191.8 L857.8,177.8 L858.1,177.8 L858.3,176.6 L858.6,183.6 L858.8,155.6 L859.1,160.2 L859.3,169.6 L859.6,182.5 L859.8,143.9 L860.1,173.1 L860.3,156.7 L860.6,177.8 L860.8,174.3 L861.1,155.6 L861.3,179.0 L861.6,156.7 L861.8,162.6 L862.1,145.0 L862.3,162.6 L862.6,141.5 L862.8,149.7 L863.1,155.6 L863.3,153.2 L863.6,173.1 L863.8,141.5 L864.1,150.9 L864.3,154.4 L864.6,150.9 L864.8,164.9 L865.1,141.5 L865.3,140.3 L865.6,159.1 L865.8,134.5 L866.0,164.9 L866.3,142.7 L866.5,138.0 L866.8,159.1 L867.0,147.4 L867.3,154.4 L867.5,134.5 L867.8,170.8 L868.0,140.3 L868.3,149.7 L868.5,154.4 L868.8,170.8 L869.0,167.3 L869.3,146.2 L869.5,147.4 L869.8,168.4 L870.0,154.4 L870.3,162.6 L870.5,135.7 L870.8,147.4 L871.0,154.4 L871.3,135.7 L871.5,134.5 L871.8,157.9 L872.0,166.1 L872.3,147.4 L872.5,162.6 L872.8,132.2 L873.0,167.3 L873.3,163.8 L873.5,160.2 L873.8,143.9 L874.0,132.2 L874.3,166.1 L874.5,140.3 L874.8,170.8 L875.0,134.5 L875.3,150.9 L875.5,145.0 L875.8,142.7 L876.0,170.8 L876.2,155.6 L876.5,152.1 L876.7,138.0 L877.0,138.0 L877.2,156.7 L877.5,157.9 L877.7,135.7 L878.0,156.7 L878.2,146.2 L878.5,157.9 L878.7,131.0 L879.0,147.4 L879.2,138.0 L879.5,159.1 L879.7,161.4 L880.0,157.9 L880.2,167.3 L880.5,163.8 L880.7,127.5 L881.0,143.9 L881.2,148.5 L881.5,135.7 L881.7,139.2 L882.0,169.6 L882.2,132.2 L882.5,156.7 L882.7,168.4 L883.0,141.5 L883.2,139.2 L883.5,155.6 L883.7,152.1 L884.0,141.5 L884.2,155.6 L884.5,138.0 L884.7,145.0 L885.0,140.3 L885.2,139.2 L885.5,160.2 L885.7,140.3 L886.0,164.9 L886.2,131.0 L886.4,168.4 L886.7,157.9 L886.9,146.2 L887.2,160.2 L887.4,168.4 L887.7,154.4 L887.9,142.7 L888.2,153.2 L888.4,139.2 L888.7,150.9 L888.9,141.5 L889.2,149.7 L889.4,159.1 L889.7,141.5 L889.9,148.5 L890.2,162.6 L890.4,157.9 L890.7,157.9 L890.9,155.6 L891.2,136.8 L891.4,162.6 L891.7,125.1 L891.9,148.5 L892.2,133.3 L892.4,152.1 L892.7,161.4 L892.9,155.6 L893.2,140.3 L893.4,136.8 L893.7,169.6 L893.9,159.1 L894.2,157.9 L894.4,154.4 L894.7,136.8 L894.9,145.0 L895.2,152.1 L895.4,149.7 L895.7,142.7 L895.9,140.3 L896.2,150.9 L896.4,129.8 L896.7,168.4 L896.9,152.1 L897.1,163.8 L897.4,140.3 L897.6,135.7 L897.9,168.4 L898.1,135.7 L898.4,171.9 L898.6,153.2 L898.9,163.8 L899.1,167.3 L899.4,156.7 L899.6,139.2 L899.9,163.8 L900.1,166.1 L900.4,150.9 L900.6,145.0 L900.9,173.1 L901.1,147.4 L901.4,152.1 L901.6,141.5 L901.9,146.2 L902.1,169.6 L902.4,135.7 L902.6,159.1 L902.9,156.7 L903.1,170.8 L903.4,138.0 L903.6,161.4 L903.9,138.0 L904.1,153.2 L904.4,148.5 L904.6,138.0 L904.9,162.6 L905.1,143.9 L905.4,149.7 L905.6,153.2 L905.9,169.6 L906.1,159.1 L906.4,164.9 L906.6,164.9 L906.9,143.9 L907.1,136.8 L907.3,138.0 L907.6,150.9 L907.8,147.4 L908.1,134.5 L908.3,162.6 L908.6,152.1 L908.8,136.8 L909.1,155.6 L909.3,159.1 L909.6,148.5 L909.8,132.2 L910.1,152.1 L910.3,142.7 L910.6,152.1 L910.8,146.2 L911.1,155.6 L911.3,140.3 L911.6,160.2 L911.8,143.9 L912.1,149.7 L912.3,135.7 L912.6,136.8 L912.8,156.7 L913.1,128.7 L913.3,135.7 L913.6,170.8 L913.8,133.3 L914.1,140.3 L914.3,143.9 L914.6,147.4 L914.8,161.4 L915.1,150.9 L915.3,161.4 L915.6,163.8 L915.8,150.9 L916.1,161.4 L916.3,126.3 L916.6,148.5 L916.8,152.1 L917.1,148.5 L917.3,146.2 L917.6,150.9 L917.8,156.7 L918.0,153.2 L918.3,161.4 L918.5,131.0 L918.8,160.2 L919.0,127.5 L919.3,160.2 L919.5,139.2 L919.8,167.3 L920.0,148.5 L920.3,155.6 L920.5,147.4 L920.8,170.8 L921.0,156.7 L921.3,148.5 L921.5,156.7 L921.8,166.1 L922.0,152.1 L922.3,157.9 L922.5,140.3 L922.8,168.4 L923.0,139.2 L923.3,134.5 L923.5,152.1 L923.8,150.9 L924.0,149.7 L924.3,162.6 L924.5,147.4 L924.8,132.2 L925.0,171.9 L925.3,131.0 L925.5,142.7 L925.8,160.2 L926.0,140.3 L926.3,155.6 L926.5,136.8 L926.8,153.2 L927.0,169.6 L927.3,143.9 L927.5,140.3 L927.8,162.6 L928.0,135.7 L928.2,173.1 L928.5,163.8 L928.7,170.8 L929.0,142.7 L929.2,155.6 L929.5,160.2 L929.7,150.9 L930.0,164.9 L930.2,156.7 L930.5,128.7 L930.7,155.6 L931.0,136.8 L931.2,149.7 L931.5,133.3 L931.7,147.4 L932.0,147.4 L932.2,136.8 L932.5,153.2 L932.7,143.9 L933.0,149.7 L933.2,140.3 L933.5,154.4 L933.7,162.6 L934.0,140.3 L934.2,136.8 L934.5,167.3 L934.7,153.2 L935.0,153.2 L935.2,156.7 L935.5,128.7 L935.7,139.2 L936.0,132.2 L936.2,169.6 L936.5,167.3 L936.7,163.8 L937.0,162.6 L937.2,152.1 L937.5,152.1 L937.7,146.2 L938.0,132.2 L938.2,142.7 L938.4,147.4 L938.7,128.7 L938.9,162.6 L939.2,136.8 L939.4,152.1 L939.7,145.0 L939.9,146.2 L940.2,143.9 L940.4,133.3 L940.7,141.5 L940.9,148.5 L941.2,166.1 L941.4,127.5 L941.7,138.0 L941.9,135.7 L942.2,167.3 L942.4,140.3 L942.7,138.0 L942.9,170.8 L943.2,136.8 L943.4,163.8 L943.7,153.2 L943.9,164.9 L944.2,155.6 L944.4,136.8 L944.7,159.1 L944.9,154.4 L945.2,169.6 L945.4,162.6 L945.7,167.3 L945.9,160.2 L946.2,157.9 L946.4,141.5 L946.7,145.0 L946.9,138.0 L947.2,140.3 L947.4,168.4 L947.7,131.0 L947.9,162.6 L948.2,163.8 L948.4,168.4 L948.7,155.6 L948.9,154.4 L949.1,139.2 L949.4,140.3 L949.6,142.7 L949.9,146.2 L950.1,167.3 L950.4,140.3 L950.6,153.2 L950.9,153.2 L951.1,164.9 L951.4,154.4 L951.6,164.9 L951.9,142.7 L952.1,166.1 L952.4,139.2 L952.6,166.1 L952.9,128.7 L953.1,168.4 L953.4,162.6 L953.6,147.4 L953.9,152.1 L954.1,164.9 L954.4,160.2 L954.6,136.8 L954.9,138.0 L955.1,136.8 L955.4,163.8 L955.6,156.7 L955.9,138.0 L956.1,155.6 L956.4,163.8 L956.6,143.9 L956.9,156.7 L957.1,149.7 L957.4,153.2 L957.6,145.0 L957.9,142.7 L958.1,152.1 L958.4,136.8 L958.6,157.9 L958.9,136.8 L959.1,156.7 L959.3,150.9 L959.6,146.2 L959.8,155.6 L960.1,140.3 L960.3,153.2 L960.6,154.4 L960.8,163.8 L961.1,159.1 L961.3,149.7 L961.6,166.1 L961.8,140.3 L962.1,160.2 L962.3,139.2 L962.6,162.6 L962.8,138.0 L963.1,141.5 L963.3,170.8 L963.6,160.2 L963.8,141.5 L964.1,146.2 L964.3,148.5 L964.6,169.6 L964.8,163.8 L965.1,142.7 L965.3,157.9 L965.6,143.9 L965.8,153.2 L966.1,139.2 L966.3,156.7 L966.6,139.2 L966.8,152.1 L967.1,134.5 L967.3,156.7 L967.6,170.8 L967.8,163.8 L968.1,155.6 L968.3,150.9 L968.6,132.2 L968.8,160.2 L969.1,150.9 L969.3,143.9 L969.6,136.8 L969.8,163.8 L970.0,161.4 L970.3,147.4 L970.5,169.6 L970.8,138.0 L971.0,154.4 L971.3,173.1 L971.5,161.4 L971.8,169.6 L972.0,149.7 L972.3,164.9 L972.5,150.9 L972.8,147.4 L973.0,133.3 L973.3,166.1 L973.5,134.5 L973.8,160.2 L974.0,166.1 L974.3,166.1 L974.5,136.8 L974.8,156.7 L975.0,162.6 L975.3,140.3 L975.5,150.9 L975.8,146.2 L976.0,164.9 L976.3,148.5 L976.5,140.3 L976.8,143.9 L977.0,164.9 L977.3,160.2 L977.5,149.7 L977.8,134.5 L978.0,143.9 L978.3,153.2 L978.5,163.8 L978.8,132.2 L979.0,145.0 L979.3,167.3 L979.5,140.3 L979.8,148.5 L980.0,148.5 L980.2,160.2 L980.5,161.4 L980.7,164.9 L981.0,152.1 L981.2,154.4 L981.5,134.5 L981.7,163.8 L982.0,140.3 L982.2,156.7 L982.5,167.3 L982.7,157.9 L983.0,156.7 L983.2,147.4 L983.5,160.2 L983.7,166.1 L984.0,145.0 L984.2,159.1 L984.5,127.5 L984.7,174.3 L985.0,150.9 L985.2,167.3 L985.5,170.8 L985.7,143.9 L986.0,162.6 L986.2,142.7 L986.5,166.1 L986.7,167.3 L987.0,147.4 L987.2,170.8 L987.5,134.5 L987.7,149.7 L988.0,138.0 L988.2,150.9 L988.5,149.7 L988.7,153.2 L989.0,148.5 L989.2,159.1 L989.5,147.4 L989.7,140.3 L990.0,160.2 L990.2,164.9 L990.4,163.8 L990.7,134.5 L990.9,167.3 L991.2,161.4 L991.4,159.1 L991.7,142.7 L991.9,138.0 L992.2,167.3 L992.4,135.7 L992.7,148.5 L992.9,152.1 L993.2,173.1 L993.4,164.9 L993.7,157.9 L993.9,147.4 L994.2,140.3 L994.4,153.2 L994.7,149.7 L994.9,138.0 L995.2,166.1 L995.4,141.5 L995.7,143.9 L995.9,170.8 L996.2,142.7 L996.4,153.2 L996.7,139.2 L996.9,150.9 L997.2,170.8 L997.4,138.0 L997.7,146.2 L997.9,139.2 L998.2,176.6 L998.4,166.1 L998.7,143.9 L998.9,175.4 L999.2,156.7 L999.4,142.7 L999.7,154.4 L999.9,146.2 L1000.2,161.4 L1000.4,138.0 L1000.7,170.8 L1000.9,153.2 L1001.1,168.4 L1001.4,160.2 L1001.6,147.4 L1001.9,153.2 L1002.1,164.9 L1002.4,141.5 L1002.6,148.5 L1002.9,160.2 L1003.1,159.1 L1003.4,149.7 L1003.6,147.4 L1003.9,141.5 L1004.1,166.1 L1004.4,169.6 L1004.6,129.8 L1004.9,167.3 L1005.1,142.7 L1005.4,142.7 L1005.6,168.4 L1005.9,140.3 L1006.1,155.6 L1006.4,160.2 L1006.6,161.4 L1006.9,145.0 L1007.1,146.2 L1007.4,161.4 L1007.6,152.1 L1007.9,142.7 L1008.1,154.4 L1008.4,154.4 L1008.6,166.1 L1008.9,131.0 L1009.1,155.6 L1009.4,170.8 L1009.6,162.6 L1009.9,136.8 L1010.1,156.7 L1010.4,161.4 L1010.6,170.8 L1010.9,135.7 L1011.1,155.6 L1011.3,150.9 L1011.6,157.9 L1011.8,138.0 L1012.1,167.3 L1012.3,141.5 L1012.6,168.4 L1012.8,156.7 L1013.1,160.2 L1013.3,157.9 L1013.6,162.6 L1013.8,132.2 L1014.1,152.1 L1014.3,136.8 L1014.6,141.5 L1014.8,145.0 L1015.1,169.6 L1015.3,146.2 L1015.6,152.1 L1015.8,161.4 L1016.1,169.6 L1016.3,142.7 L1016.6,142.7 L1016.8,173.1 L1017.1,139.2 L1017.3,157.9 L1017.6,149.7 L1017.8,169.6 L1018.1,163.8 L1018.3,161.4 L1018.6,133.3 L1018.8,175.4 L1019.1,164.9 L1019.3,159.1 L1019.6,173.1 L1019.8,166.1 L1020.1,154.4 L1020.3,135.7 L1020.6,160.2 L1020.8,135.7 L1021.1,150.9 L1021.3,170.8 L1021.6,143.9 L1021.8,161.4 L1022.0,156.7 L1022.3,163.8 L1022.5,146.2 L1022.8,160.2 L1023.0,167.3 L1023.3,147.4 L1023.5,145.0 L1023.8,138.0 L1024.0,170.8 L1024.3,134.5 L1024.5,169.6 L1024.8,157.9 L1025.0,153.2 L1025.3,147.4 L1025.5,170.8 L1025.8,141.5 L1026.0,170.8 L1026.3,174.3 L1026.5,147.4 L1026.8,166.1 L1027.0,170.8 L1027.3,140.3 L1027.5,148.5 L1027.8,148.5 L1028.0,161.4 L1028.3,156.7 L1028.5,135.7 L1028.8,169.6 L1029.0,153.2 L1029.3,157.9 L1029.5,136.8 L1029.8,143.9 L1030.0,154.4 L1030.3,159.1 L1030.5,152.1 L1030.8,139.2 L1031.0,140.3 L1031.3,171.9 L1031.5,163.8 L1031.8,142.7 L1032.0,160.2 L1032.2,143.9 L1032.5,139.2 L1032.7,145.0 L1033.0,159.1 L1033.2,170.8 L1033.5,138.0 L1033.7,138.0 L1034.0,155.6 L1034.2,162.6 L1034.5,155.6 L1034.7,155.6 L1035.0,148.5 L1035.2,167.3 L1035.5,147.4 L1035.7,163.8 L1036.0,129.8 L1036.2,175.4 L1036.5,160.2 L1036.7,164.9 L1037.0,162.6 L1037.2,140.3 L1037.5,163.8 L1037.7,168.4 L1038.0,170.8 L1038.2,157.9 L1038.5,147.4 L1038.7,171.9 L1039.0,166.1 L1039.2,133.3 L1039.5,163.8 L1039.7,167.3 L1040.0,166.1 L1040.2,154.4 L1040.5,143.9 L1040.7,161.4 L1041.0,136.8 L1041.2,155.6 L1041.5,160.2 L1041.7,164.9 L1042.0,140.3 L1042.2,146.2 L1042.4,152.1 L1042.7,134.5 L1042.9,153.2 L1043.2,139.2 L1043.4,157.9 L1043.7,163.8 L1043.9,159.1 L1044.2,135.7 L1044.4,140.3 L1044.7,150.9 L1044.9,161.4 L1045.2,163.8 L1045.4,150.9 L1045.7,141.5 L1045.9,132.2 L1046.2,169.6 L1046.4,145.0 L1046.7,157.9 L1046.9,170.8 L1047.2,152.1 L1047.4,164.9 L1047.7,157.9 L1047.9,154.4 L1048.2,139.2 L1048.4,169.6 L1048.7,154.4 L1048.9,167.3 L1049.2,132.2 L1049.4,160.2 L1049.7,149.7 L1049.9,146.2 L1050.2,142.7 L1050.4,164.9 L1050.7,168.4 L1050.9,154.4 L1051.2,148.5 L1051.4,147.4 L1051.7,136.8 L1051.9,155.6 L1052.2,141.5 L1052.4,150.9 L1052.7,159.1 L1052.9,150.9 L1053.1,166.1 L1053.4,142.7 L1053.6,163.8 L1053.9,133.3 L1054.1,162.6 L1054.4,155.6 L1054.6,140.3 L1054.9,139.2 L1055.1,154.4 L1055.4,159.1 L1055.6,141.5 L1055.9,139.2 L1056.1,163.8 L1056.4,154.4 L1056.6,161.4 L1056.9,166.1 L1057.1,145.0 L1057.4,170.8 L1057.6,134.5 L1057.9,162.6 L1058.1,142.7 L1058.4,152.1 L1058.6,140.3 L1058.9,173.1 L1059.1,173.1 L1059.4,145.0 L1059.6,167.3 L1059.9,147.4 L1060.1,175.4 L1060.4,136.8 L1060.6,176.6 L1060.9,146.2 L1061.1,154.4 L1061.4,173.1 L1061.6,140.3 L1061.9,184.8 L1062.1,156.7 L1062.4,163.8 L1062.6,168.4 L1062.9,173.1 L1063.1,148.5 L1063.3,167.3 L1063.6,166.1 L1063.8,156.7 L1064.1,150.9 L1064.3,164.9 L1064.6,159.1 L1064.8,150.9 L1065.1,166.1 L1065.3,146.2 L1065.6,162.6 L1065.8,146.2 L1066.1,157.9 L1066.3,164.9 L1066.6,138.0 L1066.8,145.0 L1067.1,142.7 L1067.3,152.1 L1067.6,155.6 L1067.8,156.7 L1068.1,159.1 L1068.3,150.9 L1068.6,159.1 L1068.8,154.4 L1069.1,161.4 L1069.3,157.9 L1069.6,152.1 L1069.8,147.4 L1070.1,161.4 L1070.3,162.6 L1070.6,162.6 L1070.8,132.2 L1071.1,142.7 L1071.3,154.4 L1071.6,128.7 L1071.8,142.7 L1072.1,150.9 L1072.3,132.2 L1072.6,153.2 L1072.8,162.6 L1073.1,161.4 L1073.3,150.9 L1073.6,142.7 L1073.8,142.7 L1074.0,141.5 L1074.3,155.6 L1074.5,162.6 L1074.8,146.2 L1075.0,136.8 L1075.3,163.8 L1075.5,143.9 L1075.8,156.7 L1076.0,140.3 L1076.3,127.5 L1076.5,132.2 L1076.8,120.5 L1077.0,146.2 L1077.3,126.3 L1077.5,114.6 L1077.8,140.3 L1078.0,125.1 L1078.3,127.5 L1078.5,116.9 L1078.8,140.3 L1079.0,128.7 L1079.3,119.3 L1079.5,93.6 L1079.8,125.1 L1080.0,112.3 L1080.3,126.3 L1080.5,93.6 L1080.8,118.1 L1081.0,111.1 L1081.3,97.1 L1081.5,105.2 L1081.8,125.1 L1082.0,114.6 L1082.3,111.1 L1082.5,111.1 L1082.8,76.0 L1083.0,97.1 L1083.3,99.4 L1083.5,124.0 L1083.8,113.4 L1084.0,92.4" fill="none" stroke="#ff7f0e" stroke-width="1.1" opacity="0.85"/><text x="616" y="572" font-size="11" fill="#888">time 0..38 s — altitude (blue) &amp; roll (orange)</text></svg>