<svg xmlns="http://www.w3.org/2000/svg" width="1140" height="600" font-family="sans-serif" font-size="13"><rect width="1140" height="600" fill="white"/><text x="20" y="26" font-size="15" fill="#333">Coludo flight</text><rect x="20" y="40" width="540" height="540" fill="#fbfbfb" stroke="#ddd"/><rect x="50" y="303" width="320" height="69" fill="#cde" stroke="#369" opacity="0.7"/><text x="50" y="298" fill="#369" font-size="12">landing zone</text><circle cx="252" cy="411" r="5" fill="black"/><text x="260" y="415" font-size="12">pad</text><path d="M252.3,410.9 L252.3,410.9 L252.3,410.9 L252.3,410.9 L252.3,410.9 L252.3,410.9 L252.3,410.9 L252.3,410.9 L252.3,410.9 L252.3,410.9 L252.3,410.9 L252.3,410.9 L252.3,410.9 L252.3,410.9 L252.3,410.9 L252.3,410.9 L252.3,410.9 L252.3,410.9 L252.3,410.9 L252.3,410.9 L252.3,410.9 L252.3,410.9 L252.3,410.9 L252.3,410.9 L252.3,410.9 L252.3,410.9 L252.3,410.9 L252.3,410.9 L252.3,410.9 L252.3,410.9 L252.3,410.9 L252.3,410.9 L252.3,410.9 L252.3,410.9 L252.3,410.9 L252.3,410.9 L252.3,410.9 L252.3,410.9 L252.3,410.9 L252.3,410.9 L252.3,410.9 L252.3,410.9 L252.3,410.9 L252.3,410.9 L252.3,410.9 L252.3,410.9 L252.3,410.9 L252.3,410.9 L252.3,410.9 L252.3,410.9 L252.3,410.9 L252.3,410.9 L252.3,410.9 L252.3,410.9 L252.3,410.9 L252.3,410.9 L252.3,410.9 L252.3,410.9 L253.6,408.8 L255.1,406.3 L256.5,403.8 L258.0,401.5 L259.7,399.1 L261.5,396.8 L263.2,394.5 L264.9,392.2 L266.8,390.1 L268.7,387.8 L270.7,385.7 L272.6,383.8 L274.9,381.7 L276.9,379.8 L279.0,377.9 L281.2,376.2 L283.5,374.3 L285.9,372.6 L288.1,370.9 L290.3,369.1 L292.8,367.4 L295.0,365.5 L297.2,363.8 L299.3,361.9 L301.5,360.0 L303.6,357.9 L305.6,356.0 L307.5,353.9 L309.4,351.6 L311.3,349.5 L313.0,347.2 L314.8,345.0 L316.5,342.5 L318.0,340.2 L319.6,337.7 L320.9,335.2 L322.3,332.6 L323.5,330.1 L324.7,327.4 L325.9,324.8 L327.0,322.1 L328.0,319.4 L328.9,316.8 L329.5,313.9 L330.4,311.2 L330.9,308.4 L331.6,305.5 L332.1,302.7 L332.5,299.8 L333.0,297.0 L333.3,294.3 L333.8,291.4 L334.4,288.6 L335.0,285.7 L335.7,282.9 L336.4,280.2 L337.3,277.3 L338.1,274.7 L339.2,272.0 L340.2,269.3 L341.4,266.7 L342.6,264.0 L344.0,261.5 L345.4,259.0 L346.7,256.6 L348.3,254.1 L349.8,251.6 L351.5,249.3 L353.3,247.0 L355.0,244.8 L356.9,242.7 L358.8,240.4 L360.8,238.3 L362.9,236.4 L365.0,234.5 L367.0,232.6 L369.3,230.7 L371.7,228.9 L373.9,227.2 L376.3,225.5 L378.7,224.0 L381.1,222.5 L383.7,221.1 L386.1,219.8 L388.7,218.5 L391.4,217.3 L394.0,216.2 L396.8,215.2 L399.3,214.3 L402.1,213.3 L404.8,212.6 L407.8,211.8 L410.5,211.2 L413.3,210.7 L416.2,210.1 L418.9,209.7 L421.9,209.5 L424.8,209.3 L427.5,209.1 L430.5,209.1 L433.4,209.1 L436.3,209.1 L439.1,209.5 L442.0,209.7 L444.9,210.1 L447.7,210.5 L450.4,211.0 L453.3,211.6 L456.1,212.4 L458.8,213.1 L461.6,213.9 L464.3,214.8 L467.1,216.0 L469.7,216.9 L472.2,218.3 L474.8,219.4 L477.4,220.8 L480.0,222.1 L482.4,223.6 L484.8,225.1 L487.2,226.7 L489.6,228.4 L491.8,230.1 L494.1,232.0 L496.3,233.9 L498.4,235.8 L500.4,237.7 L502.5,239.8 L504.4,241.9 L506.3,244.2 L508.2,246.3 L509.9,248.6 L511.6,250.9 L513.2,253.3 L514.7,255.8 L516.2,258.3 L517.6,260.8 L519.0,263.2 L520.2,265.9 L521.4,268.4 L522.6,271.0 L523.6,273.7 L524.5,276.6 L525.5,279.2 L526.2,281.9 L527.1,284.8 L527.6,287.6 L528.3,290.3 L528.6,293.1 L529.1,296.0 L529.5,298.9 L529.7,301.7 L529.8,304.6 L530.0,307.4 L530.0,310.5 L529.8,313.3 L529.7,316.2 L529.5,319.0 L529.1,321.9 L528.8,324.8 L528.3,327.6 L527.8,330.3 L527.1,333.1 L526.4,336.0 L525.5,338.7 L524.7,341.3 L523.6,344.2 L522.6,346.9 L521.6,349.5 L520.4,352.0 L519.2,354.7 L517.8,357.1 L516.4,359.8 L514.9,362.3 L513.3,364.6 L511.8,367.1 L510.1,369.3 L508.3,371.6 L506.4,373.9 L504.6,376.0 L502.7,378.1 L500.8,380.2 L498.7,382.3 L496.5,384.2 L494.4,386.1 L492.2,388.0 L489.9,389.7 L487.5,391.4 L485.3,393.2 L482.9,394.7 L480.5,396.2 L477.9,397.7 L475.3,399.1 L472.8,400.4 L470.2,401.5 L467.6,402.7 L465.0,403.8 L462.3,404.8 L459.5,405.7 L456.8,406.5 L454.0,407.2 L451.3,408.0 L448.3,408.6 L445.6,409.2 L442.8,409.7 L439.9,410.1 L437.0,410.5 L434.2,410.7 L431.3,410.9 L428.4,410.9 L425.6,410.9 L422.7,410.9 L419.8,410.7 L417.0,410.5 L414.1,410.3 L411.2,409.9 L409.0,409.5 L406.6,409.0 L404.2,408.6 L401.9,408.0 L399.5,407.4 L397.3,406.9 L394.9,406.1 L392.6,405.3 L390.4,404.6 L388.2,403.6 L385.9,402.7 L383.7,401.7 L381.6,400.8 L379.4,399.8 L377.3,398.7 L375.1,397.5 L373.0,396.4 L371.0,395.1 L369.1,393.7 L367.0,392.6 L365.1,391.1 L363.1,389.7 L361.2,388.2 L359.3,386.9 L357.6,385.3 L355.7,383.8 L353.8,382.1 L352.1,380.6" fill="none" stroke="#1f77b4" stroke-width="1.7" opacity="0.85"/><circle cx="352" cy="381" r="4.5" fill="#1f77b4"/><text x="28" y="572" font-size="11" fill="#888">ground track — m from pad (N up)</text><rect x="580" y="40" width="540" height="540" fill="#fbfbfb" stroke="#ddd"/><text x="586" y="54" fill="#1f77b4" font-size="11">alt 287</text><text x="586" y="558" fill="#1f77b4" font-size="11">2</text><path d="M616.0,543.9 L616.3,543.9 L616.5,544.0 L616.8,544.0 L617.1,544.0 L617.3,543.7 L617.6,543.8 L617.9,543.5 L618.1,543.2 L618.4,543.5 L618.7,543.3 L619.0,543.0 L619.2,542.5 L619.5,542.8 L619.8,542.2 L620.0,542.1 L620.3,542.2 L620.6,541.6 L620.8,541.1 L621.1,541.1 L621.4,540.3 L621.6,540.5 L621.9,540.3 L622.2,539.9 L622.4,539.0 L622.7,538.6 L623.0,538.6 L623.2,538.0 L623.5,537.1 L623.8,536.8 L624.1,536.7 L624.3,535.7 L624.6,536.4 L624.9,534.9 L625.1,535.1 L625.4,534.2 L625.7,532.9 L625.9,532.8 L626.2,532.8 L626.5,531.5 L626.7,531.0 L627.0,530.9 L627.3,530.8 L627.5,528.9 L627.8,529.3 L628.1,527.0 L628.3,527.9 L628.6,526.7 L628.9,526.9 L629.1,524.9 L629.4,523.6 L629.7,524.4 L630.0,522.2 L630.2,521.7 L630.5,522.4 L630.8,521.1 L631.0,518.3 L631.3,517.8 L631.6,518.9 L631.8,515.8 L632.1,514.5 L632.4,516.0 L632.6,514.7 L632.9,511.6 L633.2,512.1 L633.4,510.7 L633.7,508.9 L634.0,507.7 L634.2,506.9 L634.5,505.4 L634.8,507.2 L635.1,503.8 L635.3,504.1 L635.6,502.6 L635.9,502.4 L636.1,500.8 L636.4,497.9 L636.7,499.9 L636.9,496.3 L637.2,498.2 L637.5,494.8 L637.7,491.7 L638.0,489.1 L638.3,493.0 L638.5,490.6 L638.8,489.4 L639.1,488.9 L639.3,483.3 L639.6,485.4 L639.9,481.2 L640.2,478.1 L640.4,482.1 L640.7,480.9 L641.0,479.5 L641.2,478.9 L641.5,476.8 L641.8,474.9 L642.0,473.4 L642.3,471.2 L642.6,470.5 L642.8,466.2 L643.1,466.8 L643.4,463.0 L643.6,460.1 L643.9,461.1 L644.2,462.7 L644.4,458.5 L644.7,457.4 L645.0,459.1 L645.3,456.0 L645.5,447.6 L645.8,450.3 L646.1,444.2 L646.3,445.2 L646.6,443.3 L646.9,441.2 L647.1,447.0 L647.4,444.2 L647.7,433.5 L647.9,432.5 L648.2,438.6 L648.5,436.0 L648.7,429.3 L649.0,427.7 L649.3,423.4 L649.5,419.7 L649.8,424.7 L650.1,422.8 L650.3,417.9 L650.6,424.6 L650.9,423.1 L651.2,411.4 L651.4,414.6 L651.7,413.8 L652.0,413.2 L652.2,413.6 L652.5,399.0 L652.8,405.6 L653.0,407.4 L653.3,397.3 L653.6,398.9 L653.8,395.6 L654.1,396.7 L654.4,385.3 L654.6,391.3 L654.9,386.0 L655.2,391.0 L655.4,385.4 L655.7,373.5 L656.0,378.5 L656.3,384.8 L656.5,373.4 L656.8,374.8 L657.1,364.1 L657.3,368.5 L657.6,370.6 L657.9,358.0 L658.1,353.4 L658.4,352.4 L658.7,357.4 L658.9,350.9 L659.2,361.0 L659.5,342.6 L659.7,343.0 L660.0,353.0 L660.3,341.2 L660.5,340.3 L660.8,343.9 L661.1,326.4 L661.4,342.8 L661.6,331.8 L661.9,330.3 L662.2,323.7 L662.4,318.7 L662.7,323.4 L663.0,311.0 L663.2,312.1 L663.5,304.0 L663.8,317.3 L664.0,306.9 L664.3,299.6 L664.6,305.3 L664.8,308.0 L665.1,303.8 L665.4,307.3 L665.6,285.7 L665.9,301.3 L666.2,304.1 L666.4,291.7 L666.7,290.0 L667.0,296.7 L667.3,281.6 L667.5,284.1 L667.8,270.8 L668.1,281.6 L668.3,264.7 L668.6,271.0 L668.9,257.6 L669.1,273.8 L669.4,261.3 L669.7,272.6 L669.9,249.6 L670.2,247.2 L670.5,259.4 L670.7,269.6 L671.0,256.2 L671.3,264.7 L671.5,252.7 L671.8,255.5 L672.1,239.1 L672.4,250.6 L672.6,231.4 L672.9,231.6 L673.2,224.9 L673.4,242.8 L673.7,229.5 L674.0,225.0 L674.2,225.4 L674.5,224.7 L674.8,236.0 L675.0,221.7 L675.3,233.1 L675.6,205.8 L675.8,233.4 L676.1,204.2 L676.4,207.7 L676.6,213.5 L676.9,224.1 L677.2,211.7 L677.5,202.1 L677.7,219.8 L678.0,189.6 L678.3,213.5 L678.5,185.1 L678.8,217.3 L679.1,193.1 L679.3,189.1 L679.6,207.4 L679.9,185.3 L680.1,192.0 L680.4,199.3 L680.7,182.2 L680.9,191.8 L681.2,190.0 L681.5,165.7 L681.7,192.1 L682.0,171.2 L682.3,181.3 L682.6,158.0 L682.8,169.4 L683.1,186.1 L683.4,177.3 L683.6,164.8 L683.9,180.3 L684.2,150.8 L684.4,163.8 L684.7,150.6 L685.0,167.8 L685.2,166.5 L685.5,147.4 L685.8,138.7 L686.0,175.2 L686.3,160.7 L686.6,152.1 L686.8,133.5 L687.1,154.5 L687.4,129.6 L687.6,159.9 L687.9,129.1 L688.2,155.9 L688.5,142.1 L688.7,122.9 L689.0,133.9 L689.3,137.7 L689.5,129.0 L689.8,130.3 L690.1,144.2 L690.3,151.3 L690.6,123.7 L690.9,116.3 L691.1,120.0 L691.4,132.1 L691.7,110.8 L691.9,108.9 L692.2,120.7 L692.5,132.8 L692.7,122.5 L693.0,101.2 L693.3,136.1 L693.6,125.0 L693.8,109.4 L694.1,108.8 L694.4,123.9 L694.6,124.3 L694.9,131.3 L695.2,129.1 L695.4,95.6 L695.7,118.2 L696.0,108.2 L696.2,83.5 L696.5,94.3 L696.8,113.8 L697.0,79.8 L697.3,105.0 L697.6,76.9 L697.8,109.3 L698.1,109.6 L698.4,89.7 L698.7,93.0 L698.9,110.0 L699.2,87.4 L699.5,87.1 L699.7,111.6 L700.0,110.2 L700.3,114.7 L700.5,89.0 L700.8,105.6 L701.1,106.0 L701.3,90.2 L701.6,112.1 L701.9,91.8 L702.1,96.7 L702.4,78.7 L702.7,112.1 L702.9,85.1 L703.2,89.1 L703.5,79.6 L703.7,113.9 L704.0,109.3 L704.3,103.8 L704.6,78.3 L704.8,112.9 L705.1,87.0 L705.4,76.0 L705.6,86.1 L705.9,116.4 L706.2,109.7 L706.4,111.1 L706.7,92.2 L707.0,115.9 L707.2,94.8 L707.5,108.7 L707.8,78.3 L708.0,100.3 L708.3,100.1 L708.6,116.3 L708.8,108.8 L709.1,81.9 L709.4,78.3 L709.7,98.4 L709.9,84.8 L710.2,109.0 L710.5,105.7 L710.7,101.4 L711.0,103.4 L711.3,103.0 L711.5,100.8 L711.8,115.1 L712.1,108.5 L712.3,112.5 L712.6,94.0 L712.9,92.1 L713.1,113.2 L713.4,118.9 L713.7,106.6 L713.9,88.2 L714.2,103.3 L714.5,121.9 L714.8,108.3 L715.0,103.9 L715.3,107.9 L715.6,117.9 L715.8,106.3 L716.1,91.4 L716.4,86.8 L716.6,115.8 L716.9,99.9 L717.2,98.4 L717.4,116.3 L717.7,94.1 L718.0,109.8 L718.2,112.3 L718.5,119.9 L718.8,113.6 L719.0,80.4 L719.3,106.3 L719.6,96.0 L719.9,79.7 L720.1,96.0 L720.4,105.8 L720.7,120.6 L720.9,124.3 L721.2,123.2 L721.5,99.0 L721.7,104.1 L722.0,98.2 L722.3,118.8 L722.5,97.0 L722.8,83.5 L723.1,97.9 L723.3,105.2 L723.6,99.8 L723.9,108.4 L724.1,94.5 L724.4,91.2 L724.7,113.4 L724.9,96.3 L725.2,91.9 L725.5,101.6 L725.8,114.8 L726.0,121.7 L726.3,92.4 L726.6,123.9 L726.8,123.6 L727.1,97.4 L727.4,83.7 L727.6,82.3 L727.9,108.7 L728.2,91.2 L728.4,91.4 L728.7,112.8 L729.0,106.7 L729.2,122.7 L729.5,123.5 L729.8,109.5 L730.0,91.0 L730.3,100.1 L730.6,99.8 L730.9,86.2 L731.1,107.0 L731.4,95.0 L731.7,94.6 L731.9,91.5 L732.2,98.2 L732.5,116.7 L732.7,105.9 L733.0,98.0 L733.3,121.8 L733.5,113.9 L733.8,98.0 L734.1,122.8 L734.3,90.1 L734.6,126.4 L734.9,87.1 L735.1,90.2 L735.4,100.4 L735.7,117.1 L736.0,118.0 L736.2,123.4 L736.5,87.0 L736.8,104.5 L737.0,95.9 L737.3,115.5 L737.6,110.5 L737.8,119.5 L738.1,93.5 L738.4,102.9 L738.6,95.9 L738.9,110.8 L739.2,93.8 L739.4,105.3 L739.7,112.3 L740.0,114.7 L740.2,95.8 L740.5,128.8 L740.8,108.0 L741.1,99.2 L741.3,109.0 L741.6,121.7 L741.9,95.8 L742.1,130.3 L742.4,126.8 L742.7,132.2 L742.9,94.1 L743.2,110.3 L743.5,112.9 L743.7,132.2 L744.0,107.0 L744.3,99.2 L744.5,118.6 L744.8,103.1 L745.1,105.5 L745.3,118.7 L745.6,132.6 L745.9,120.9 L746.1,118.9 L746.4,99.0 L746.7,91.9 L747.0,114.9 L747.2,129.0 L747.5,134.9 L747.8,132.5 L748.0,93.3 L748.3,121.0 L748.6,133.2 L748.8,110.2 L749.1,120.7 L749.4,134.9 L749.6,131.0 L749.9,136.2 L750.2,118.3 L750.4,126.3 L750.7,99.3 L751.0,107.7 L751.2,126.8 L751.5,111.2 L751.8,115.0 L752.1,103.7 L752.3,127.2 L752.6,99.7 L752.9,119.9 L753.1,99.5 L753.4,126.8 L753.7,109.3 L753.9,106.5 L754.2,124.4 L754.5,130.0 L754.7,120.3 L755.0,136.4 L755.3,132.0 L755.5,131.6 L755.8,98.5 L756.1,108.5 L756.3,122.6 L756.6,100.9 L756.9,120.2 L757.2,128.3 L757.4,118.2 L757.7,117.4 L758.0,116.1 L758.2,117.6 L758.5,111.1 L758.8,137.6 L759.0,117.1 L759.3,137.7 L759.6,141.5 L759.8,129.9 L760.1,120.1 L760.4,121.0 L760.6,103.8 L760.9,121.0 L761.2,122.8 L761.4,139.5 L761.7,128.7 L762.0,131.9 L762.2,134.5 L762.5,106.7 L762.8,123.1 L763.1,142.9 L763.3,103.2 L763.6,108.2 L763.9,136.8 L764.1,115.5 L764.4,107.2 L764.7,130.2 L764.9,128.1 L765.2,140.7 L765.5,111.8 L765.7,135.2 L766.0,137.9 L766.3,106.4 L766.5,112.7 L766.8,115.5 L767.1,124.1 L767.3,123.1 L767.6,109.4 L767.9,146.1 L768.2,132.8 L768.4,143.1 L768.7,117.4 L769.0,134.8 L769.2,115.6 L769.5,141.6 L769.8,114.3 L770.0,125.1 L770.3,115.5 L770.6,136.1 L770.8,132.2 L771.1,109.1 L771.4,142.9 L771.6,114.5 L771.9,125.9 L772.2,132.5 L772.4,138.9 L772.7,137.3 L773.0,111.6 L773.3,130.4 L773.5,140.1 L773.8,119.7 L774.1,129.2 L774.3,131.4 L774.6,128.9 L774.9,113.5 L775.1,134.1 L775.4,124.7 L775.7,117.9 L775.9,145.2 L776.2,117.0 L776.5,127.5 L776.7,131.2 L777.0,120.8 L777.3,131.0 L777.5,120.4 L777.8,128.0 L778.1,146.5 L778.4,117.2 L778.6,148.3 L778.9,122.6 L779.2,117.5 L779.4,147.0 L779.7,139.6 L780.0,155.3 L780.2,131.6 L780.5,119.9 L780.8,134.8 L781.0,137.5 L781.3,154.0 L781.6,136.3 L781.8,129.5 L782.1,138.2 L782.4,136.0 L782.6,121.8 L782.9,149.9 L783.2,148.4 L783.4,130.6 L783.7,122.6 L784.0,140.8 L784.3,133.3 L784.5,130.6 L784.8,133.6 L785.1,148.7 L785.3,158.6 L785.6,143.7 L785.9,153.1 L786.1,151.4 L786.4,157.6 L786.7,121.2 L786.9,157.4 L787.2,157.7 L787.5,122.7 L787.7,154.5 L788.0,156.5 L788.3,150.3 L788.5,131.3 L788.8,142.2 L789.1,143.0 L789.4,129.1 L789.6,162.8 L789.9,145.0 L790.2,125.2 L790.4,155.5 L790.7,150.4 L791.0,135.1 L791.2,137.5 L791.5,130.6 L791.8,132.3 L792.0,155.9 L792.3,134.4 L792.6,126.1 L792.8,146.8 L793.1,157.3 L793.4,131.4 L793.6,140.7 L793.9,129.8 L794.2,161.3 L794.5,129.9 L794.7,149.7 L795.0,145.7 L795.3,165.3 L795.5,151.2 L795.8,149.3 L796.1,161.0 L796.3,132.9 L796.6,163.6 L796.9,132.9 L797.1,147.8 L797.4,145.3 L797.7,149.3 L797.9,140.5 L798.2,141.0 L798.5,157.1 L798.7,156.7 L799.0,137.5 L799.3,133.7 L799.6,165.7 L799.8,141.7 L800.1,133.1 L800.4,137.8 L800.6,160.5 L800.9,141.3 L801.2,151.5 L801.4,139.1 L801.7,167.4 L802.0,153.4 L802.2,170.3 L802.5,157.6 L802.8,154.5 L803.0,162.7 L803.3,168.3 L803.6,146.8 L803.8,139.7 L804.1,137.0 L804.4,161.5 L804.6,138.0 L804.9,160.2 L805.2,161.0 L805.5,158.3 L805.7,154.3 L806.0,139.8 L806.3,177.3 L806.5,166.6 L806.8,144.8 L807.1,165.1 L807.3,164.7 L807.6,149.0 L807.9,174.6 L808.1,166.4 L808.4,176.7 L808.7,168.4 L808.9,156.4 L809.2,143.2 L809.5,172.8 L809.7,177.5 L810.0,152.3 L810.3,147.4 L810.6,168.6 L810.8,156.1 L811.1,180.4 L811.4,155.6 L811.6,149.2 L811.9,149.1 L812.2,178.7 L812.4,171.0 L812.7,177.5 L813.0,181.6 L813.2,177.2 L813.5,160.0 L813.8,152.8 L814.0,161.1 L814.3,155.6 L814.6,151.2 L814.8,148.3 L815.1,171.7 L815.4,171.5 L815.7,159.2 L815.9,165.4 L816.2,182.2 L816.5,166.2 L816.7,154.8 L817.0,186.9 L817.3,163.1 L817.5,185.3 L817.8,179.3 L818.1,173.8 L818.3,184.0 L818.6,153.1 L818.9,164.8 L819.1,154.8 L819.4,160.2 L819.7,175.9 L819.9,168.0 L820.2,186.8 L820.5,164.6 L820.7,186.0 L821.0,165.9 L821.3,181.3 L821.6,157.3 L821.8,158.1 L822.1,189.4 L822.4,174.2 L822.6,193.4 L822.9,172.3 L823.2,192.5 L823.4,160.6 L823.7,175.3 L824.0,161.3 L824.2,183.2 L824.5,178.9 L824.8,167.7 L825.0,168.3 L825.3,162.3 L825.6,179.0 L825.8,193.6 L826.1,173.7 L826.4,177.5 L826.7,192.3 L826.9,176.3 L827.2,181.1 L827.5,196.3 L827.7,172.0 L828.0,163.6 L828.3,189.3 L828.5,198.2 L828.8,166.6 L829.1,166.2 L829.3,189.5 L829.6,180.5 L829.9,171.4 L830.1,171.3 L830.4,196.8 L830.7,196.2 L830.9,189.3 L831.2,176.2 L831.5,178.0 L831.8,183.5 L832.0,183.7 L832.3,198.9 L832.6,198.3 L832.8,200.3 L833.1,177.5 L833.4,185.1 L833.6,189.2 L833.9,176.4 L834.2,195.1 L834.4,181.9 L834.7,171.2 L835.0,177.9 L835.2,202.3 L835.5,185.8 L835.8,203.3 L836.0,187.2 L836.3,174.9 L836.6,176.0 L836.9,193.0 L837.1,178.8 L837.4,185.7 L837.7,174.3 L837.9,185.9 L838.2,204.4 L838.5,178.7 L838.7,203.9 L839.0,191.5 L839.3,208.9 L839.5,178.0 L839.8,204.1 L840.1,180.3 L840.3,192.4 L840.6,192.6 L840.9,206.3 L841.1,187.1 L841.4,204.1 L841.7,190.9 L841.9,196.0 L842.2,180.1 L842.5,182.4 L842.8,203.0 L843.0,199.7 L843.3,196.9 L843.6,184.1 L843.8,188.5 L844.1,202.2 L844.4,192.8 L844.6,190.6 L844.9,188.6 L845.2,190.1 L845.4,192.2 L845.7,197.3 L846.0,205.8 L846.2,188.8 L846.5,215.5 L846.8,204.4 L847.0,196.2 L847.3,190.1 L847.6,203.5 L847.9,190.1 L848.1,190.4 L848.4,218.0 L848.7,202.2 L848.9,205.3 L849.2,203.6 L849.5,204.5 L849.7,221.9 L850.0,194.5 L850.3,202.3 L850.5,208.9 L850.8,210.0 L851.1,198.8 L851.3,214.2 L851.6,219.2 L851.9,202.3 L852.1,194.2 L852.4,214.0 L852.7,207.1 L853.0,192.0 L853.2,223.1 L853.5,221.6 L853.8,219.5 L854.0,224.3 L854.3,199.4 L854.6,204.4 L854.8,214.7 L855.1,227.8 L855.4,221.6 L855.6,204.2 L855.9,196.1 L856.2,197.3 L856.4,217.8 L856.7,225.9 L857.0,227.6 L857.2,217.5 L857.5,211.4 L857.8,200.5 L858.1,218.3 L858.3,198.4 L858.6,231.3 L858.9,218.2 L859.1,219.6 L859.4,207.5 L859.7,214.1 L859.9,232.6 L860.2,207.1 L860.5,220.0 L860.7,211.2 L861.0,230.1 L861.3,221.6 L861.5,220.0 L861.8,207.3 L862.1,225.7 L862.3,227.5 L862.6,206.7 L862.9,217.3 L863.1,224.8 L863.4,232.2 L863.7,215.6 L864.0,223.4 L864.2,238.1 L864.5,220.5 L864.8,235.1 L865.0,224.4 L865.3,226.1 L865.6,226.3 L865.8,209.5 L866.1,240.2 L866.4,240.9 L866.6,235.6 L866.9,230.3 L867.2,218.9 L867.4,211.6 L867.7,235.5 L868.0,232.6 L868.2,213.9 L868.5,231.6 L868.8,221.0 L869.1,236.3 L869.3,230.3 L869.6,242.7 L869.9,234.8 L870.1,243.1 L870.4,229.2 L870.7,226.7 L870.9,241.3 L871.2,230.0 L871.5,240.6 L871.7,243.1 L872.0,244.9 L872.3,224.6 L872.5,237.8 L872.8,241.8 L873.1,227.6 L873.3,234.8 L873.6,218.1 L873.9,239.1 L874.2,233.8 L874.4,239.0 L874.7,236.5 L875.0,227.9 L875.2,239.7 L875.5,233.3 L875.8,227.0 L876.0,225.1 L876.3,223.4 L876.6,242.3 L876.8,240.5 L877.1,245.5 L877.4,247.9 L877.6,247.5 L877.9,244.7 L878.2,236.4 L878.4,227.0 L878.7,225.0 L879.0,248.2 L879.2,228.0 L879.5,256.5 L879.8,235.6 L880.1,253.5 L880.3,236.2 L880.6,252.6 L880.9,234.4 L881.1,231.4 L881.4,257.9 L881.7,253.1 L881.9,250.8 L882.2,256.1 L882.5,241.3 L882.7,260.0 L883.0,248.1 L883.3,246.6 L883.5,248.2 L883.8,257.6 L884.1,252.0 L884.3,235.3 L884.6,262.4 L884.9,237.7 L885.2,262.7 L885.4,262.0 L885.7,237.3 L886.0,238.7 L886.2,244.6 L886.5,260.4 L886.8,260.8 L887.0,243.8 L887.3,251.0 L887.6,248.2 L887.8,261.8 L888.1,262.3 L888.4,250.7 L888.6,263.7 L888.9,255.7 L889.2,261.3 L889.4,249.6 L889.7,252.8 L890.0,254.3 L890.3,253.3 L890.5,242.8 L890.8,264.6 L891.1,266.0 L891.3,247.4 L891.6,258.4 L891.9,257.2 L892.1,256.9 L892.4,256.6 L892.7,256.3 L892.9,267.8 L893.2,249.3 L893.5,260.7 L893.7,257.7 L894.0,257.5 L894.3,247.8 L894.5,262.9 L894.8,262.6 L895.1,256.3 L895.4,271.4 L895.6,263.4 L895.9,265.7 L896.2,268.2 L896.4,265.8 L896.7,261.4 L897.0,273.6 L897.2,274.4 L897.5,253.0 L897.8,252.0 L898.0,257.2 L898.3,268.3 L898.6,253.6 L898.8,275.7 L899.1,259.9 L899.4,266.9 L899.6,277.1 L899.9,273.9 L900.2,267.2 L900.4,257.2 L900.7,279.7 L901.0,281.9 L901.3,271.5 L901.5,277.4 L901.8,273.5 L902.1,283.6 L902.3,274.5 L902.6,271.1 L902.9,268.6 L903.1,282.4 L903.4,274.2 L903.7,278.9 L903.9,284.0 L904.2,279.4 L904.5,286.4 L904.7,270.4 L905.0,267.0 L905.3,269.1 L905.5,277.6 L905.8,288.0 L906.1,265.4 L906.4,287.2 L906.6,267.4 L906.9,278.7 L907.2,273.8 L907.4,265.1 L907.7,267.2 L908.0,280.9 L908.2,275.5 L908.5,281.5 L908.8,278.6 L909.0,282.8 L909.3,279.8 L909.6,291.7 L909.8,282.1 L910.1,294.7 L910.4,286.2 L910.6,290.3 L910.9,282.2 L911.2,274.4 L911.5,274.5 L911.7,289.0 L912.0,275.8 L912.3,293.8 L912.5,287.5 L912.8,274.0 L913.1,277.3 L913.3,297.0 L913.6,298.9 L913.9,274.7 L914.1,284.3 L914.4,288.6 L914.7,287.8 L914.9,277.3 L915.2,276.5 L915.5,295.6 L915.7,299.3 L916.0,283.0 L916.3,293.5 L916.6,279.4 L916.8,284.3 L917.1,294.9 L917.4,299.6 L917.6,282.3 L917.9,303.3 L918.2,305.6 L918.4,283.7 L918.7,303.8 L919.0,297.7 L919.2,283.4 L919.5,291.6 L919.8,291.7 L920.0,303.2 L920.3,289.4 L920.6,284.1 L920.8,290.3 L921.1,295.8 L921.4,301.6 L921.6,293.4 L921.9,286.5 L922.2,307.2 L922.5,295.2 L922.7,301.1 L923.0,296.5 L923.3,311.5 L923.5,307.5 L923.8,309.3 L924.1,296.4 L924.3,292.7 L924.6,306.6 L924.9,314.1 L925.1,311.2 L925.4,307.2 L925.7,311.2 L925.9,314.0 L926.2,313.1 L926.5,311.8 L926.7,306.6 L927.0,303.2 L927.3,311.8 L927.6,306.6 L927.8,296.1 L928.1,307.2 L928.4,313.1 L928.6,318.6 L928.9,317.9 L929.2,306.7 L929.4,299.2 L929.7,309.4 L930.0,313.7 L930.2,302.5 L930.5,303.4 L930.8,301.3 L931.0,310.8 L931.3,322.7 L931.6,318.0 L931.8,313.6 L932.1,314.1 L932.4,317.6 L932.7,321.3 L932.9,318.6 L933.2,316.4 L933.5,308.6 L933.7,304.3 L934.0,316.3 L934.3,308.4 L934.5,310.7 L934.8,318.9 L935.1,312.4 L935.3,308.4 L935.6,309.4 L935.9,328.8 L936.1,311.9 L936.4,308.0 L936.7,316.6 L936.9,314.4 L937.2,318.5 L937.5,311.8 L937.7,316.9 L938.0,318.9 L938.3,330.5 L938.6,333.2 L938.8,330.6 L939.1,318.0 L939.4,321.7 L939.6,325.3 L939.9,332.1 L940.2,321.6 L940.4,326.5 L940.7,319.8 L941.0,328.8 L941.2,325.0 L941.5,318.4 L941.8,330.4 L942.0,335.4 L942.3,332.1 L942.6,321.0 L942.8,337.3 L943.1,336.4 L943.4,333.0 L943.7,338.1 L943.9,323.2 L944.2,335.3 L944.5,340.8 L944.7,327.0 L945.0,321.2 L945.3,328.4 L945.5,329.2 L945.8,328.6 L946.1,326.4 L946.3,338.9 L946.6,329.6 L946.9,343.4 L947.1,334.2 L947.4,328.2 L947.7,338.9 L947.9,335.6 L948.2,329.0 L948.5,327.2 L948.8,341.7 L949.0,341.8 L949.3,340.4 L949.6,342.6 L949.8,345.4 L950.1,339.9 L950.4,344.6 L950.6,341.9 L950.9,338.0 L951.2,330.7 L951.4,349.0 L951.7,346.9 L952.0,342.2 L952.2,337.1 L952.5,345.4 L952.8,347.5 L953.0,343.8 L953.3,345.6 L953.6,343.4 L953.9,339.5 L954.1,343.0 L954.4,338.2 L954.7,338.6 L954.9,339.5 L955.2,341.7 L955.5,350.7 L955.7,344.1 L956.0,356.5 L956.3,352.6 L956.5,349.0 L956.8,353.3 L957.1,357.4 L957.3,358.5 L957.6,353.5 L957.9,359.4 L958.1,342.5 L958.4,358.7 L958.7,355.2 L958.9,347.0 L959.2,343.9 L959.5,350.3 L959.8,357.3 L960.0,353.7 L960.3,348.4 L960.6,346.8 L960.8,350.3 L961.1,359.6 L961.4,354.9 L961.6,363.6 L961.9,352.2 L962.2,362.4 L962.4,361.2 L962.7,347.6 L963.0,355.8 L963.2,362.3 L963.5,359.9 L963.8,366.0 L964.0,357.1 L964.3,351.1 L964.6,367.4 L964.9,365.0 L965.1,353.5 L965.4,366.3 L965.7,359.5 L965.9,358.9 L966.2,354.8 L966.5,364.6 L966.7,366.0 L967.0,362.4 L967.3,366.6 L967.5,371.3 L967.8,367.2 L968.1,370.9 L968.3,373.2 L968.6,373.1 L968.9,358.3 L969.1,364.7 L969.4,374.5 L969.7,363.2 L970.0,370.3 L970.2,375.5 L970.5,376.6 L970.8,377.6 L971.0,370.2 L971.3,370.3 L971.6,372.6 L971.8,376.1 L972.1,370.7 L972.4,379.3 L972.6,373.6 L972.9,365.1 L973.2,376.9 L973.4,381.6 L973.7,380.9 L974.0,371.4 L974.2,368.7 L974.5,366.3 L974.8,370.7 L975.1,375.0 L975.3,372.7 L975.6,369.1 L975.9,374.6 L976.1,374.6 L976.4,380.5 L976.7,369.8 L976.9,372.2 L977.2,370.0 L977.5,380.2 L977.7,386.4 L978.0,384.1 L978.3,377.4 L978.5,378.1 L978.8,374.9 L979.1,389.4 L979.3,386.8 L979.6,374.2 L979.9,381.9 L980.1,381.3 L980.4,386.5 L980.7,376.5 L981.0,381.2 L981.2,387.8 L981.5,380.9 L981.8,382.2 L982.0,392.0 L982.3,382.6 L982.6,384.3 L982.8,380.8 L983.1,393.2 L983.4,391.4 L983.6,381.4 L983.9,392.6 L984.2,394.9 L984.4,381.8 L984.7,384.8 L985.0,385.1 L985.2,392.1 L985.5,392.4 L985.8,391.5 L986.1,384.6 L986.3,397.2 L986.6,392.4 L986.9,387.1 L987.1,396.8 L987.4,389.4 L987.7,396.7 L987.9,395.9 L988.2,400.0 L988.5,389.9 L988.7,392.3 L989.0,388.8 L989.3,400.2 L989.5,397.9 L989.8,396.9 L990.1,399.9 L990.3,394.1 L990.6,391.7 L990.9,400.0 L991.2,393.0 L991.4,400.8 L991.7,402.7 L992.0,395.4 L992.2,407.2 L992.5,404.5 L992.8,398.4 L993.0,405.1 L993.3,396.9 L993.6,398.2 L993.8,401.7 L994.1,398.8 L994.4,404.7 L994.6,411.6 L994.9,405.9 L995.2,408.0 L995.4,399.5 L995.7,403.7 L996.0,408.6 L996.2,402.5 L996.5,400.7 L996.8,403.0 L997.1,409.1 L997.3,401.8 L997.6,414.4 L997.9,408.7 L998.1,410.8 L998.4,413.6 L998.7,411.0 L998.9,412.6 L999.2,406.6 L999.5,415.5 L999.7,406.7 L1000.0,407.7 L1000.3,414.6 L1000.5,411.1 L1000.8,411.1 L1001.1,421.2 L1001.3,419.7 L1001.6,415.8 L1001.9,419.0 L1002.2,409.6 L1002.4,417.5 L1002.7,420.5 L1003.0,417.6 L1003.2,415.8 L1003.5,421.5 L1003.8,419.2 L1004.0,420.6 L1004.3,419.4 L1004.6,417.5 L1004.8,421.9 L1005.1,417.3 L1005.4,425.9 L1005.6,427.0 L1005.9,420.3 L1006.2,424.9 L1006.4,416.5 L1006.7,421.6 L1007.0,428.6 L1007.3,420.5 L1007.5,425.7 L1007.8,421.2 L1008.1,426.3 L1008.3,426.8 L1008.6,421.3 L1008.9,427.0 L1009.1,421.9 L1009.4,431.0 L1009.7,428.4 L1009.9,430.3 L1010.2,423.9 L1010.5,423.4 L1010.7,431.1 L1011.0,430.1 L1011.3,428.4 L1011.5,424.7 L1011.8,428.9 L1012.1,429.1 L1012.4,428.5 L1012.6,432.9 L1012.9,436.9 L1013.2,434.3 L1013.4,434.2 L1013.7,429.0 L1014.0,434.4 L1014.2,433.5 L1014.5,433.7 L1014.8,437.1 L1015.0,431.4 L1015.3,431.5 L1015.6,439.3 L1015.8,438.1 L1016.1,432.2 L1016.4,439.5 L1016.6,433.3 L1016.9,437.1 L1017.2,435.8 L1017.4,438.3 L1017.7,437.9 L1018.0,439.2 L1018.3,439.0 L1018.5,445.6 L1018.8,441.6 L1019.1,442.2 L1019.3,441.3 L1019.6,448.0 L1019.9,443.6 L1020.1,439.9 L1020.4,439.7 L1020.7,440.2 L1020.9,441.2 L1021.2,444.6 L1021.5,449.0 L1021.7,448.2 L1022.0,448.9 L1022.3,450.8 L1022.5,450.4 L1022.8,451.8 L1023.1,443.9 L1023.4,446.8 L1023.6,447.1 L1023.9,448.4 L1024.2,454.8 L1024.4,454.9 L1024.7,452.9 L1025.0,452.4 L1025.2,448.1 L1025.5,456.0 L1025.8,455.9 L1026.0,452.5 L1026.3,452.9 L1026.6,455.7 L1026.8,452.4 L1027.1,458.8 L1027.4,456.4 L1027.6,451.8 L1027.9,457.5 L1028.2,456.9 L1028.5,458.1 L1028.7,455.1 L1029.0,460.3 L1029.3,459.0 L1029.5,459.1 L1029.8,455.4 L1030.1,462.0 L1030.3,459.2 L1030.6,457.8 L1030.9,462.5 L1031.1,463.1 L1031.4,461.8 L1031.7,464.3 L1031.9,464.6 L1032.2,464.8 L1032.5,461.0 L1032.7,459.8 L1033.0,467.5 L1033.3,466.8 L1033.6,460.9 L1033.8,468.4 L1034.1,466.2 L1034.4,463.0 L1034.6,465.3 L1034.9,466.0 L1035.2,466.5 L1035.4,468.7 L1035.7,466.5 L1036.0,468.3 L1036.2,467.7 L1036.5,465.4 L1036.8,472.8 L1037.0,470.2 L1037.3,467.5 L1037.6,468.1 L1037.8,472.1 L1038.1,474.7 L1038.4,470.7 L1038.6,469.2 L1038.9,472.4 L1039.2,469.5 L1039.5,473.6 L1039.7,475.4 L1040.0,471.1 L1040.3,477.1 L1040.5,472.8 L1040.8,478.0 L1041.1,474.7 L1041.3,479.4 L1041.6,479.4 L1041.9,476.0 L1042.1,475.8 L1042.4,481.6 L1042.7,476.7 L1042.9,477.0 L1043.2,479.8 L1043.5,481.4 L1043.7,483.7 L1044.0,483.4 L1044.3,478.0 L1044.6,482.8 L1044.8,482.5 L1045.1,481.2 L1045.4,480.1 L1045.6,480.8 L1045.9,485.0 L1046.2,483.2 L1046.4,485.4 L1046.7,487.4 L1047.0,483.4 L1047.2,486.1 L1047.5,486.0 L1047.8,487.3 L1048.0,485.0 L1048.3,486.9 L1048.6,488.4 L1048.8,486.4 L1049.1,489.1 L1049.4,488.8 L1049.7,490.3 L1049.9,490.7 L1050.2,489.5 L1050.5,488.7 L1050.7,494.1 L1051.0,490.2 L1051.3,489.5 L1051.5,494.7 L1051.8,491.8 L1052.1,491.6 L1052.3,491.4 L1052.6,492.6 L1052.9,492.1 L1053.1,493.3 L1053.4,493.6 L1053.7,494.9 L1053.9,496.8 L1054.2,497.7 L1054.5,498.2 L1054.7,499.3 L1055.0,496.2 L1055.3,496.5 L1055.6,497.4 L1055.8,501.5 L1056.1,502.1 L1056.4,502.0 L1056.6,498.4 L1056.9,499.5 L1057.2,499.4 L1057.4,502.5 L1057.7,502.3 L1058.0,503.1 L1058.2,504.0 L1058.5,501.6 L1058.8,504.4 L1059.0,504.9 L1059.3,505.3 L1059.6,506.9 L1059.8,505.8 L1060.1,508.1 L1060.4,507.5 L1060.7,506.2 L1060.9,509.0 L1061.2,508.0 L1061.5,508.5 L1061.7,507.8 L1062.0,510.8 L1062.3,509.8 L1062.5,509.3 L1062.8,510.6 L1063.1,509.8 L1063.3,509.4 L1063.6,511.1 L1063.9,511.4 L1064.1,512.7 L1064.4,514.6 L1064.7,514.0 L1064.9,513.1 L1065.2,512.9 L1065.5,514.0 L1065.8,513.8 L1066.0,516.1 L1066.3,517.0 L1066.6,514.9 L1066.8,517.7 L1067.1,518.0 L1067.4,516.6 L1067.6,517.7 L1067.9,519.5 L1068.2,520.0 L1068.4,518.6 L1068.7,520.4 L1069.0,521.0 L1069.2,520.6 L1069.5,520.7 L1069.8,520.0 L1070.0,520.4 L1070.3,522.8 L1070.6,523.3 L1070.9,523.2 L1071.1,524.3 L1071.4,522.7 L1071.7,523.8 L1071.9,524.8 L1072.2,524.6 L1072.5,525.5 L1072.7,525.1 L1073.0,526.8 L1073.3,526.7 L1073.5,528.1 L1073.8,528.4 L1074.1,528.9 L1074.3,528.6 L1074.6,528.6 L1074.9,528.6 L1075.1,530.4 L1075.4,529.8 L1075.7,531.0 L1075.9,531.8 L1076.2,532.3 L1076.5,531.6 L1076.8,533.0 L1077.0,532.1 L1077.3,533.7 L1077.6,533.2 L1077.8,534.6 L1078.1,534.9 L1078.4,535.3 L1078.6,534.7 L1078.9,536.0 L1079.2,536.1 L1079.4,536.2 L1079.7,536.5 L1080.0,537.5 L1080.2,538.3 L1080.5,538.4 L1080.8,538.9 L1081.0,539.5 L1081.3,539.8 L1081.6,539.5 L1081.9,540.3 L1082.1,540.7 L1082.4,541.4 L1082.7,541.4 L1082.9,541.9 L1083.2,542.3 L1083.5,542.7 L1083.7,543.1 L1084.0,543.6" fill="none" stroke="#1f77b4" stroke-width="1.4" opacity="0.85"/><text x="1040" y="54" fill="#ff7f0e" font-size="11">roll 17</text><text x="1090" y="558" fill="#ff7f0e" font-size="11">-17</text><path d="M616.0,310.0 L616.3,310.0 L616.5,310.0 L616.8,310.0 L617.1,310.0 L617.3,310.0 L617.6,310.0 L617.9,310.0 L618.1,310.0 L618.4,310.0 L618.7,310.0 L619.0,310.0 L619.2,310.0 L619.5,310.0 L619.8,310.0 L620.0,310.0 L620.3,310.0 L620.6,310.0 L620.8,310.0 L621.1,310.0 L621.4,310.0 L621.6,310.0 L621.9,310.0 L622.2,310.0 L622.4,310.0 L622.7,310.0 L623.0,310.0 L623.2,310.0 L623.5,310.0 L623.8,310.0 L624.1,310.0 L624.3,310.0 L624.6,310.0 L624.9,310.0 L625.1,310.0 L625.4,310.0 L625.7,310.0 L625.9,310.0 L626.2,310.0 L626.5,310.0 L626.7,310.0 L627.0,310.0 L627.3,310.0 L627.5,310.0 L627.8,310.0 L628.1,310.0 L628.3,310.0 L628.6,310.0 L628.9,310.0 L629.1,310.0 L629.4,310.0 L629.7,310.0 L630.0,310.0 L630.2,310.0 L630.5,310.0 L630.8,310.0 L631.0,310.0 L631.3,310.0 L631.6,310.0 L631.8,310.0 L632.1,310.0 L632.4,310.0 L632.6,311.4 L632.9,310.0 L633.2,310.0 L633.4,310.0 L633.7,310.0 L634.0,310.0 L634.2,310.0 L634.5,310.0 L634.8,310.0 L635.1,310.0 L635.3,310.0 L635.6,310.0 L635.9,310.0 L636.1,310.0 L636.4,311.4 L636.7,311.4 L636.9,310.0 L637.2,310.0 L637.5,310.0 L637.7,311.4 L638.0,310.0 L638.3,311.4 L638.5,310.0 L638.8,311.4 L639.1,310.0 L639.3,310.0 L639.6,310.0 L639.9,310.0 L640.2,310.0 L640.4,310.0 L640.7,311.4 L641.0,310.0 L641.2,310.0 L641.5,311.4 L641.8,311.4 L642.0,310.0 L642.3,310.0 L642.6,310.0 L642.8,310.0 L643.1,310.0 L643.4,310.0 L643.6,310.0 L643.9,310.0 L644.2,311.4 L644.4,310.0 L644.7,310.0 L645.0,310.0 L645.3,310.0 L645.5,311.4 L645.8,310.0 L646.1,310.0 L646.3,310.0 L646.6,311.4 L646.9,311.4 L647.1,310.0 L647.4,310.0 L647.7,310.0 L647.9,310.0 L648.2,310.0 L648.5,310.0 L648.7,310.0 L649.0,310.0 L649.3,310.0 L649.5,310.0 L649.8,310.0 L650.1,311.4 L650.3,310.0 L650.6,310.0 L650.9,310.0 L651.2,310.0 L651.4,310.0 L651.7,311.4 L652.0,310.0 L652.2,310.0 L652.5,310.0 L652.8,310.0 L653.0,310.0 L653.3,310.0 L653.6,310.0 L653.8,310.0 L654.1,310.0 L654.4,310.0 L654.6,310.0 L654.9,308.6 L655.2,310.0 L655.4,310.0 L655.7,310.0 L656.0,310.0 L656.3,308.6 L656.5,310.0 L656.8,310.0 L657.1,310.0 L657.3,308.6 L657.6,310.0 L657.9,310.0 L658.1,310.0 L658.4,308.6 L658.7,310.0 L658.9,310.0 L659.2,310.0 L659.5,310.0 L659.7,310.0 L660.0,310.0 L660.3,310.0 L660.5,310.0 L660.8,310.0 L661.1,308.6 L661.4,310.0 L661.6,310.0 L661.9,310.0 L662.2,310.0 L662.4,310.0 L662.7,310.0 L663.0,310.0 L663.2,308.6 L663.5,310.0 L663.8,310.0 L664.0,310.0 L664.3,310.0 L664.6,310.0 L664.8,310.0 L665.1,310.0 L665.4,310.0 L665.6,310.0 L665.9,310.0 L666.2,310.0 L666.4,310.0 L666.7,310.0 L667.0,310.0 L667.3,310.0 L667.5,310.0 L667.8,310.0 L668.1,310.0 L668.3,310.0 L668.6,310.0 L668.9,310.0 L669.1,310.0 L669.4,311.4 L669.7,310.0 L669.9,311.4 L670.2,311.4 L670.5,310.0 L670.7,311.4 L671.0,311.4 L671.3,310.0 L671.5,311.4 L671.8,310.0 L672.1,311.4 L672.4,310.0 L672.6,311.4 L672.9,310.0 L673.2,310.0 L673.4,310.0 L673.7,311.4 L674.0,310.0 L674.2,310.0 L674.5,310.0 L674.8,310.0 L675.0,310.0 L675.3,311.4 L675.6,311.4 L675.8,311.4 L676.1,311.4 L676.4,310.0 L676.6,310.0 L676.9,310.0 L677.2,310.0 L677.5,310.0 L677.7,311.4 L678.0,310.0 L678.3,310.0 L678.5,311.4 L678.8,310.0 L679.1,310.0 L679.3,310.0 L679.6,311.4 L679.9,310.0 L680.1,310.0 L680.4,311.4 L680.7,310.0 L680.9,310.0 L681.2,310.0 L681.5,311.4 L681.7,310.0 L682.0,310.0 L682.3,310.0 L682.6,310.0 L682.8,311.4 L683.1,310.0 L683.4,310.0 L683.6,310.0 L683.9,310.0 L684.2,310.0 L684.4,310.0 L684.7,310.0 L685.0,310.0 L685.2,310.0 L685.5,310.0 L685.8,310.0 L686.0,310.0 L686.3,310.0 L686.6,310.0 L686.8,310.0 L687.1,308.6 L687.4,310.0 L687.6,310.0 L687.9,310.0 L688.2,310.0 L688.5,310.0 L688.7,310.0 L689.0,308.6 L689.3,310.0 L689.5,310.0 L689.8,310.0 L690.1,310.0 L690.3,310.0 L690.6,308.6 L690.9,310.0 L691.1,310.0 L691.4,308.6 L691.7,310.0 L691.9,310.0 L692.2,310.0 L692.5,310.0 L692.7,310.0 L693.0,310.0 L693.3,310.0 L693.6,310.0 L693.8,308.6 L694.1,310.0 L694.4,308.6 L694.6,310.0 L694.9,310.0 L695.2,310.0 L695.4,310.0 L695.7,310.0 L696.0,310.0 L696.2,310.0 L696.5,310.0 L696.8,310.0 L697.0,310.0 L697.3,310.0 L697.6,310.0 L697.8,310.0 L698.1,310.0 L698.4,301.9 L698.7,289.7 L698.9,278.9 L699.2,266.7 L699.5,254.5 L699.7,247.8 L700.0,234.3 L700.3,220.7 L700.5,215.3 L700.8,203.1 L701.1,195.0 L701.3,197.7 L701.6,182.9 L701.9,174.7 L702.1,177.4 L702.4,162.6 L702.7,155.8 L702.9,162.6 L703.2,142.3 L703.5,153.1 L703.7,140.9 L704.0,139.6 L704.3,136.9 L704.6,130.1 L704.8,123.3 L705.1,139.6 L705.4,115.2 L705.6,130.1 L705.9,115.2 L706.2,119.3 L706.4,108.5 L706.7,124.7 L707.0,116.6 L707.2,104.4 L707.5,123.3 L707.8,109.8 L708.0,115.2 L708.3,108.5 L708.6,96.3 L708.8,107.1 L709.1,99.0 L709.4,104.4 L709.7,103.1 L709.9,101.7 L710.2,104.4 L710.5,107.1 L710.7,97.6 L711.0,101.7 L711.3,92.2 L711.5,94.9 L711.8,93.6 L712.1,105.8 L712.3,94.9 L712.6,99.0 L712.9,82.8 L713.1,96.3 L713.4,88.2 L713.7,111.2 L713.9,105.8 L714.2,103.1 L714.5,92.2 L714.8,101.7 L715.0,89.5 L715.3,90.9 L715.6,111.2 L715.8,103.1 L716.1,103.1 L716.4,113.9 L716.6,107.1 L716.9,107.1 L717.2,108.5 L717.4,104.4 L717.7,117.9 L718.0,100.3 L718.2,116.6 L718.5,113.9 L718.8,107.1 L719.0,103.1 L719.3,132.8 L719.6,117.9 L719.9,112.5 L720.1,145.0 L720.4,131.5 L720.7,146.3 L720.9,138.2 L721.2,146.3 L721.5,138.2 L721.7,150.4 L722.0,136.9 L722.3,139.6 L722.5,142.3 L722.8,140.9 L723.1,142.3 L723.3,146.3 L723.6,154.5 L723.9,161.2 L724.1,162.6 L724.4,153.1 L724.7,153.1 L724.9,142.3 L725.2,142.3 L725.5,157.2 L725.8,157.2 L726.0,176.1 L726.3,172.0 L726.6,151.7 L726.8,168.0 L727.1,162.6 L727.4,177.4 L727.6,192.3 L727.9,209.9 L728.2,230.2 L728.4,249.1 L728.7,262.7 L729.0,276.2 L729.2,292.4 L729.5,305.9 L729.8,320.8 L730.0,333.0 L730.3,345.2 L730.6,360.0 L730.9,368.2 L731.1,377.6 L731.4,389.8 L731.7,406.0 L731.9,407.4 L732.2,412.8 L732.5,422.3 L732.7,431.7 L733.0,438.5 L733.3,453.4 L733.5,454.7 L733.8,449.3 L734.1,456.1 L734.3,473.7 L734.6,471.0 L734.9,481.8 L735.1,471.0 L735.4,476.4 L735.7,487.2 L736.0,489.9 L736.2,485.8 L736.5,487.2 L736.8,498.0 L737.0,499.4 L737.3,508.8 L737.6,503.4 L737.8,515.6 L738.1,499.4 L738.4,515.6 L738.6,516.9 L738.9,521.0 L739.2,504.8 L739.4,508.8 L739.7,506.1 L740.0,519.7 L740.2,507.5 L740.5,526.4 L740.8,516.9 L741.1,518.3 L741.3,523.7 L741.6,529.1 L741.9,519.7 L742.1,530.5 L742.4,523.7 L742.7,525.1 L742.9,522.4 L743.2,515.6 L743.5,535.9 L743.7,522.4 L744.0,527.8 L744.3,525.1 L744.5,538.6 L744.8,522.4 L745.1,521.0 L745.3,519.7 L745.6,525.1 L745.9,521.0 L746.1,530.5 L746.4,533.2 L746.7,533.2 L747.0,530.5 L747.2,531.8 L747.5,519.7 L747.8,535.9 L748.0,531.8 L748.3,533.2 L748.6,530.5 L748.8,535.9 L749.1,537.2 L749.4,533.2 L749.6,526.4 L749.9,541.3 L750.2,523.7 L750.4,526.4 L750.7,533.2 L751.0,518.3 L751.2,542.6 L751.5,526.4 L751.8,527.8 L752.1,542.6 L752.3,534.5 L752.6,523.7 L752.9,539.9 L753.1,538.6 L753.4,522.4 L753.7,521.0 L753.9,531.8 L754.2,537.2 L754.5,525.1 L754.7,529.1 L755.0,531.8 L755.3,539.9 L755.5,531.8 L755.8,529.1 L756.1,530.5 L756.3,535.9 L756.6,538.6 L756.9,525.1 L757.2,542.6 L757.4,533.2 L757.7,522.4 L758.0,525.1 L758.2,529.1 L758.5,538.6 L758.8,521.0 L759.0,539.9 L759.3,525.1 L759.6,531.8 L759.8,519.7 L760.1,544.0 L760.4,538.6 L760.6,530.5 L760.9,522.4 L761.2,534.5 L761.4,531.8 L761.7,538.6 L762.0,531.8 L762.2,529.1 L762.5,531.8 L762.8,541.3 L763.1,523.7 L763.3,534.5 L763.6,523.7 L763.9,523.7 L764.1,542.6 L764.4,518.3 L764.7,529.1 L764.9,537.2 L765.2,526.4 L765.5,526.4 L765.7,525.1 L766.0,525.1 L766.3,523.7 L766.5,531.8 L766.8,534.5 L767.1,523.7 L767.3,539.9 L767.6,522.4 L767.9,542.6 L768.2,534.5 L768.4,519.7 L768.7,538.6 L769.0,533.2 L769.2,534.5 L769.5,529.1 L769.8,538.6 L770.0,534.5 L770.3,533.2 L770.6,531.8 L770.8,525.1 L771.1,531.8 L771.4,526.4 L771.6,531.8 L771.9,523.7 L772.2,534.5 L772.4,538.6 L772.7,538.6 L773.0,519.7 L773.3,541.3 L773.5,538.6 L773.8,538.6 L774.1,531.8 L774.3,537.2 L774.6,535.9 L774.9,533.2 L775.1,495.3 L775.4,492.6 L775.7,462.8 L775.9,437.1 L776.2,418.2 L776.5,404.7 L776.7,387.1 L777.0,368.2 L777.3,354.6 L777.5,342.5 L777.8,324.9 L778.1,310.0 L778.4,296.5 L778.6,284.3 L778.9,270.8 L779.2,260.0 L779.4,245.1 L779.7,235.6 L780.0,226.1 L780.2,214.0 L780.5,208.6 L780.8,197.7 L781.0,193.7 L781.3,185.6 L781.6,182.9 L781.8,169.3 L782.1,163.9 L782.4,163.9 L782.6,159.9 L782.9,146.3 L783.2,155.8 L783.4,132.8 L783.7,139.6 L784.0,132.8 L784.3,139.6 L784.5,132.8 L784.8,134.2 L785.1,130.1 L785.3,116.6 L785.6,113.9 L785.9,120.6 L786.1,122.0 L786.4,119.3 L786.7,112.5 L786.9,117.9 L787.2,108.5 L787.5,111.2 L787.7,99.0 L788.0,112.5 L788.3,108.5 L788.5,105.8 L788.8,109.8 L789.1,104.4 L789.4,97.6 L789.6,101.7 L789.9,99.0 L790.2,101.7 L790.4,104.4 L790.7,100.3 L791.0,94.9 L791.2,92.2 L791.5,97.6 L791.8,89.5 L792.0,84.1 L792.3,104.4 L792.6,90.9 L792.8,104.4 L793.1,86.8 L793.4,86.8 L793.6,93.6 L793.9,94.9 L794.2,81.4 L794.5,96.3 L794.7,84.1 L795.0,81.4 L795.3,86.8 L795.5,104.4 L795.8,84.1 L796.1,89.5 L796.3,99.0 L796.6,86.8 L796.9,80.1 L797.1,92.2 L797.4,97.6 L797.7,86.8 L797.9,85.5 L798.2,90.9 L798.5,92.2 L798.7,78.7 L799.0,90.9 L799.3,93.6 L799.6,90.9 L799.8,90.9 L800.1,85.5 L800.4,94.9 L800.6,81.4 L800.9,96.3 L801.2,99.0 L801.4,80.1 L801.7,93.6 L802.0,80.1 L802.2,92.2 L802.5,99.0 L802.8,84.1 L803.0,81.4 L803.3,89.5 L803.6,84.1 L803.8,99.0 L804.1,94.9 L804.4,90.9 L804.6,80.1 L804.9,88.2 L805.2,86.8 L805.5,85.5 L805.7,88.2 L806.0,97.6 L806.3,81.4 L806.5,94.9 L806.8,92.2 L807.1,84.1 L807.3,94.9 L807.6,92.2 L807.9,80.1 L808.1,88.2 L808.4,100.3 L808.7,84.1 L808.9,89.5 L809.2,97.6 L809.5,89.5 L809.7,86.8 L810.0,92.2 L810.3,97.6 L810.6,92.2 L810.8,84.1 L811.1,86.8 L811.4,88.2 L811.6,82.8 L811.9,94.9 L812.2,93.6 L812.4,97.6 L812.7,76.0 L813.0,82.8 L813.2,101.7 L813.5,90.9 L813.8,97.6 L814.0,78.7 L814.3,84.1 L814.6,89.5 L814.8,77.4 L815.1,90.9 L815.4,84.1 L815.7,82.8 L815.9,88.2 L816.2,100.3 L816.5,96.3 L816.7,96.3 L817.0,78.7 L817.3,90.9 L817.5,81.4 L817.8,84.1 L818.1,99.0 L818.3,86.8 L818.6,99.0 L818.9,80.1 L819.1,103.1 L819.4,94.9 L819.7,78.7 L819.9,100.3 L820.2,82.8 L820.5,88.2 L820.7,90.9 L821.0,82.8 L821.3,100.3 L821.6,82.8 L821.8,92.2 L822.1,86.8 L822.4,96.3 L822.6,90.9 L822.9,99.0 L823.2,84.1 L823.4,89.5 L823.7,94.9 L824.0,99.0 L824.2,90.9 L824.5,84.1 L824.8,93.6 L825.0,89.5 L825.3,89.5 L825.6,94.9 L825.8,97.6 L826.1,89.5 L826.4,92.2 L826.7,77.4 L826.9,90.9 L827.2,97.6 L827.5,97.6 L827.7,86.8 L828.0,77.4 L828.3,86.8 L828.5,86.8 L828.8,99.0 L829.1,93.6 L829.3,80.1 L829.6,84.1 L829.9,93.6 L830.1,92.2 L830.4,88.2 L830.7,93.6 L830.9,77.4 L831.2,84.1 L831.5,96.3 L831.8,89.5 L832.0,97.6 L832.3,80.1 L832.6,84.1 L832.8,100.3 L833.1,80.1 L833.4,84.1 L833.6,96.3 L833.9,99.0 L834.2,94.9 L834.4,84.1 L834.7,78.7 L835.0,96.3 L835.2,96.3 L835.5,84.1 L835.8,93.6 L836.0,84.1 L836.3,93.6 L836.6,89.5 L836.9,82.8 L837.1,82.8 L837.4,100.3 L837.7,78.7 L837.9,100.3 L838.2,93.6 L838.5,97.6 L838.7,81.4 L839.0,80.1 L839.3,101.7 L839.5,89.5 L839.8,84.1 L840.1,81.4 L840.3,97.6 L840.6,90.9 L840.9,86.8 L841.1,84.1 L841.4,84.1 L841.7,100.3 L841.9,76.0 L842.2,96.3 L842.5,88.2 L842.8,80.1 L843.0,93.6 L843.3,97.6 L843.6,77.4 L843.8,84.1 L844.1,84.1 L844.4,89.5 L844.6,86.8 L844.9,103.1 L845.2,93.6 L845.4,80.1 L845.7,81.4 L846.0,97.6 L846.2,84.1 L846.5,85.5 L846.8,81.4 L847.0,86.8 L847.3,100.3 L847.6,94.9 L847.9,85.5 L848.1,86.8 L848.4,101.7 L848.7,76.0 L848.9,96.3 L849.2,88.2 L849.5,89.5 L849.7,93.6 L850.0,96.3 L850.3,99.0 L850.5,90.9 L850.8,85.5 L851.1,81.4 L851.3,101.7 L851.6,96.3 L851.9,90.9 L852.1,82.8 L852.4,97.6 L852.7,99.0 L853.0,82.8 L853.2,93.6 L853.5,88.2 L853.8,85.5 L854.0,85.5 L854.3,89.5 L854.6,82.8 L854.8,89.5 L855.1,78.7 L855.4,94.9 L855.6,81.4 L855.9,86.8 L856.2,99.0 L856.4,99.0 L856.7,96.3 L857.0,97.6 L857.2,84.1 L857.5,82.8 L857.8,90.9 L858.1,84.1 L858.3,80.1 L858.6,88.2 L858.9,89.5 L859.1,80.1 L859.4,93.6 L859.7,89.5 L859.9,78.7 L860.2,93.6 L860.5,99.0 L860.7,85.5 L861.0,97.6 L861.3,94.9 L861.5,84.1 L861.8,82.8 L862.1,84.1 L862.3,90.9 L862.6,80.1 L862.9,103.1 L863.1,90.9 L863.4,90.9 L863.7,80.1 L864.0,99.0 L864.2,77.4 L864.5,104.4 L864.8,97.6 L865.0,84.1 L865.3,85.5 L865.6,93.6 L865.8,92.2 L866.1,88.2 L866.4,103.1 L866.6,90.9 L866.9,97.6 L867.2,96.3 L867.4,84.1 L867.7,99.0 L868.0,94.9 L868.2,96.3 L868.5,81.4 L868.8,88.2 L869.1,78.7 L869.3,100.3 L869.6,99.0 L869.9,80.1 L870.1,100.3 L870.4,89.5 L870.7,99.0 L870.9,85.5 L871.2,86.8 L871.5,94.9 L871.7,93.6 L872.0,80.1 L872.3,99.0 L872.5,92.2 L872.8,97.6 L873.1,80.1 L873.3,86.8 L873.6,101.7 L873.9,93.6 L874.2,81.4 L874.4,96.3 L874.7,77.4 L875.0,97.6 L875.2,77.4 L875.5,103.1 L875.8,86.8 L876.0,85.5 L876.3,93.6 L876.6,82.8 L876.8,99.0 L877.1,93.6 L877.4,80.1 L877.6,105.8 L877.9,96.3 L878.2,90.9 L878.4,81.4 L878.7,99.0 L879.0,90.9 L879.2,82.8 L879.5,90.9 L879.8,89.5 L880.1,97.6 L880.3,92.2 L880.6,80.1 L880.9,82.8 L881.1,90.9 L881.4,99.0 L881.7,89.5 L881.9,80.1 L882.2,104.4 L882.5,88.2 L882.7,92.2 L883.0,96.3 L883.3,89.5 L883.5,90.9 L883.8,97.6 L884.1,92.2 L884.3,100.3 L884.6,81.4 L884.9,101.7 L885.2,96.3 L885.4,93.6 L885.7,93.6 L886.0,99.0 L886.2,89.5 L886.5,99.0 L886.8,93.6 L887.0,78.7 L887.3,92.2 L887.6,77.4 L887.8,94.9 L888.1,90.9 L888.4,80.1 L888.6,90.9 L888.9,90.9 L889.2,80.1 L889.4,81.4 L889.7,88.2 L890.0,97.6 L890.3,99.0 L890.5,89.5 L890.8,84.1 L891.1,90.9 L891.3,97.6 L891.6,80.1 L891.9,86.8 L892.1,89.5 L892.4,97.6 L892.7,92.2 L892.9,89.5 L893.2,86.8 L893.5,86.8 L893.7,90.9 L894.0,85.5 L894.3,100.3 L894.5,93.6 L894.8,89.5 L895.1,84.1 L895.4,99.0 L895.6,82.8 L895.9,96.3 L896.2,80.1 L896.4,90.9 L896.7,99.0 L897.0,96.3 L897.2,81.4 L897.5,84.1 L897.8,99.0 L898.0,80.1 L898.3,92.2 L898.6,97.6 L898.8,92.2 L899.1,86.8 L899.4,89.5 L899.6,90.9 L899.9,81.4 L900.2,88.2 L900.4,94.9 L900.7,97.6 L901.0,85.5 L901.3,82.8 L901.5,94.9 L901.8,86.8 L902.1,96.3 L902.3,82.8 L902.6,93.6 L902.9,94.9 L903.1,77.4 L903.4,88.2 L903.7,90.9 L903.9,77.4 L904.2,81.4 L904.5,86.8 L904.7,84.1 L905.0,85.5 L905.3,92.2 L905.5,78.7 L905.8,97.6 L906.1,90.9 L906.4,81.4 L906.6,82.8 L906.9,96.3 L907.2,77.4 L907.4,88.2 L907.7,96.3 L908.0,85.5 L908.2,84.1 L908.5,80.1 L908.8,100.3 L909.0,97.6 L909.3,92.2 L909.6,99.0 L909.8,94.9 L910.1,96.3 L910.4,89.5 L910.6,96.3 L910.9,82.8 L911.2,100.3 L911.5,92.2 L911.7,86.8 L912.0,93.6 L912.3,85.5 L912.5,94.9 L912.8,92.2 L913.1,85.5 L913.3,90.9 L913.6,90.9 L913.9,80.1 L914.1,89.5 L914.4,94.9 L914.7,85.5 L914.9,80.1 L915.2,81.4 L915.5,89.5 L915.7,97.6 L916.0,80.1 L916.3,94.9 L916.6,97.6 L916.8,85.5 L917.1,80.1 L917.4,90.9 L917.6,80.1 L917.9,103.1 L918.2,78.7 L918.4,104.4 L918.7,85.5 L919.0,86.8 L919.2,94.9 L919.5,99.0 L919.8,84.1 L920.0,103.1 L920.3,89.5 L920.6,100.3 L920.8,94.9 L921.1,84.1 L921.4,96.3 L921.6,88.2 L921.9,86.8 L922.2,96.3 L922.5,94.9 L922.7,99.0 L923.0,99.0 L923.3,96.3 L923.5,89.5 L923.8,82.8 L924.1,99.0 L924.3,80.1 L924.6,84.1 L924.9,89.5 L925.1,90.9 L925.4,94.9 L925.7,100.3 L925.9,86.8 L926.2,80.1 L926.5,88.2 L926.7,99.0 L927.0,100.3 L927.3,86.8 L927.6,93.6 L927.8,90.9 L928.1,82.8 L928.4,100.3 L928.6,77.4 L928.9,88.2 L929.2,101.7 L929.4,84.1 L929.7,99.0 L930.0,86.8 L930.2,86.8 L930.5,99.0 L930.8,78.7 L931.0,96.3 L931.3,93.6 L931.6,92.2 L931.8,92.2 L932.1,93.6 L932.4,82.8 L932.7,96.3 L932.9,89.5 L933.2,85.5 L933.5,82.8 L933.7,94.9 L934.0,99.0 L934.3,78.7 L934.5,99.0 L934.8,100.3 L935.1,81.4 L935.3,97.6 L935.6,80.1 L935.9,89.5 L936.1,92.2 L936.4,89.5 L936.7,96.3 L936.9,97.6 L937.2,97.6 L937.5,85.5 L937.7,84.1 L938.0,89.5 L938.3,99.0 L938.6,86.8 L938.8,100.3 L939.1,78.7 L939.4,92.2 L939.6,88.2 L939.9,100.3 L940.2,88.2 L940.4,99.0 L940.7,100.3 L941.0,89.5 L941.2,99.0 L941.5,85.5 L941.8,93.6 L942.0,78.7 L942.3,104.4 L942.6,100.3 L942.8,81.4 L943.1,86.8 L943.4,104.4 L943.7,100.3 L943.9,94.9 L944.2,88.2 L944.5,86.8 L944.7,86.8 L945.0,81.4 L945.3,105.8 L945.5,84.1 L945.8,105.8 L946.1,80.1 L946.3,97.6 L946.6,100.3 L946.9,96.3 L947.1,86.8 L947.4,104.4 L947.7,86.8 L947.9,88.2 L948.2,88.2 L948.5,85.5 L948.8,93.6 L949.0,92.2 L949.3,88.2 L949.6,101.7 L949.8,100.3 L950.1,93.6 L950.4,82.8 L950.6,97.6 L950.9,100.3 L951.2,89.5 L951.4,89.5 L951.7,93.6 L952.0,85.5 L952.2,100.3 L952.5,85.5 L952.8,93.6 L953.0,94.9 L953.3,86.8 L953.6,90.9 L953.9,88.2 L954.1,100.3 L954.4,89.5 L954.7,99.0 L954.9,84.1 L955.2,94.9 L955.5,82.8 L955.7,94.9 L956.0,94.9 L956.3,101.7 L956.5,81.4 L956.8,97.6 L957.1,99.0 L957.3,100.3 L957.6,92.2 L957.9,80.1 L958.1,93.6 L958.4,90.9 L958.7,101.7 L958.9,99.0 L959.2,97.6 L959.5,99.0 L959.8,78.7 L960.0,99.0 L960.3,78.7 L960.6,85.5 L960.8,94.9 L961.1,96.3 L961.4,92.2 L961.6,99.0 L961.9,97.6 L962.2,85.5 L962.4,88.2 L962.7,97.6 L963.0,99.0 L963.2,93.6 L963.5,97.6 L963.8,84.1 L964.0,81.4 L964.3,90.9 L964.6,78.7 L964.9,86.8 L965.1,96.3 L965.4,99.0 L965.7,85.5 L965.9,89.5 L966.2,89.5 L966.5,85.5 L966.7,93.6 L967.0,94.9 L967.3,90.9 L967.5,88.2 L967.8,100.3 L968.1,96.3 L968.3,77.4 L968.6,93.6 L968.9,88.2 L969.1,89.5 L969.4,96.3 L969.7,93.6 L970.0,97.6 L970.2,86.8 L970.5,94.9 L970.8,80.1 L971.0,94.9 L971.3,94.9 L971.6,80.1 L971.8,93.6 L972.1,96.3 L972.4,96.3 L972.6,77.4 L972.9,96.3 L973.2,77.4 L973.4,84.1 L973.7,100.3 L974.0,94.9 L974.2,82.8 L974.5,103.1 L974.8,92.2 L975.1,97.6 L975.3,84.1 L975.6,84.1 L975.9,96.3 L976.1,88.2 L976.4,81.4 L976.7,88.2 L976.9,86.8 L977.2,97.6 L977.5,100.3 L977.7,84.1 L978.0,103.1 L978.3,81.4 L978.5,82.8 L978.8,99.0 L979.1,94.9 L979.3,88.2 L979.6,90.9 L979.9,97.6 L980.1,99.0 L980.4,77.4 L980.7,85.5 L981.0,81.4 L981.2,82.8 L981.5,96.3 L981.8,80.1 L982.0,86.8 L982.3,82.8 L982.6,88.2 L982.8,82.8 L983.1,86.8 L983.4,97.6 L983.6,82.8 L983.9,84.1 L984.2,81.4 L984.4,100.3 L984.7,93.6 L985.0,103.1 L985.2,90.9 L985.5,93.6 L985.8,86.8 L986.1,82.8 L986.3,89.5 L986.6,93.6 L986.9,82.8 L987.1,90.9 L987.4,94.9 L987.7,89.5 L987.9,81.4 L988.2,84.1 L988.5,85.5 L988.7,90.9 L989.0,90.9 L989.3,82.8 L989.5,96.3 L989.8,100.3 L990.1,96.3 L990.3,96.3 L990.6,100.3 L990.9,78.7 L991.2,97.6 L991.4,89.5 L991.7,96.3 L992.0,89.5 L992.2,96.3 L992.5,80.1 L992.8,94.9 L993.0,81.4 L993.3,82.8 L993.6,97.6 L993.8,84.1 L994.1,90.9 L994.4,99.0 L994.6,97.6 L994.9,92.2 L995.2,100.3 L995.4,77.4 L995.7,82.8 L996.0,90.9 L996.2,96.3 L996.5,93.6 L996.8,80.1 L997.1,94.9 L997.3,84.1 L997.6,101.7 L997.9,100.3 L998.1,78.7 L998.4,89.5 L998.7,81.4 L998.9,93.6 L999.2,89.5 L999.5,80.1 L999.7,92.2 L1000.0,86.8 L1000.3,93.6 L1000.5,85.5 L1000.8,82.8 L1001.1,101.7 L1001.3,92.2 L1001.6,92.2 L1001.9,93.6 L1002.2,92.2 L1002.4,94.9 L1002.7,88.2 L1003.0,81.4 L1003.2,90.9 L1003.5,93.6 L1003.8,84.1 L1004.0,94.9 L1004.3,93.6 L1004.6,78.7 L1004.8,93.6 L1005.1,93.6 L1005.4,90.9 L1005.6,94.9 L1005.9,96.3 L1006.2,86.8 L1006.4,90.9 L1006.7,82.8 L1007.0,103.1 L1007.3,97.6 L1007.5,100.3 L1007.8,82.8 L1008.1,89.5 L1008.3,96.3 L1008.6,84.1 L1008.9,97.6 L1009.1,93.6 L1009.4,96.3 L1009.7,99.0 L1009.9,84.1 L1010.2,85.5 L1010.5,80.1 L1010.7,99.0 L1011.0,78.7 L1011.3,92.2 L1011.5,85.5 L1011.8,85.5 L1012.1,101.7 L1012.4,97.6 L1012.6,81.4 L1012.9,97.6 L1013.2,92.2 L1013.4,86.8 L1013.7,86.8 L1014.0,103.1 L1014.2,77.4 L1014.5,105.8 L1014.8,100.3 L1015.0,88.2 L1015.3,101.7 L1015.6,101.7 L1015.8,100.3 L1016.1,89.5 L1016.4,88.2 L1016.6,103.1 L1016.9,90.9 L1017.2,82.8 L1017.4,94.9 L1017.7,96.3 L1018.0,85.5 L1018.3,103.1 L1018.5,89.5 L1018.8,86.8 L1019.1,92.2 L1019.3,92.2 L1019.6,92.2 L1019.9,96.3 L1020.1,92.2 L1020.4,81.4 L1020.7,94.9 L1020.9,90.9 L1021.2,82.8 L1021.5,86.8 L1021.7,85.5 L1022.0,93.6 L1022.3,86.8 L1022.5,101.7 L1022.8,88.2 L1023.1,103.1 L1023.4,80.1 L1023.6,90.9 L1023.9,92.2 L1024.2,97.6 L1024.4,81.4 L1024.7,101.7 L1025.0,78.7 L1025.2,97.6 L1025.5,88.2 L1025.8,84.1 L1026.0,97.6 L1026.3,93.6 L1026.6,103.1 L1026.8,84.1 L1027.1,94.9 L1027.4,94.9 L1027.6,100.3 L1027.9,77.4 L1028.2,85.5 L1028.5,88.2 L1028.7,81.4 L1029.0,85.5 L1029.3,90.9 L1029.5,85.5 L1029.8,93.6 L1030.1,81.4 L1030.3,97.6 L1030.6,86.8 L1030.9,100.3 L1031.1,90.9 L1031.4,93.6 L1031.7,81.4 L1031.9,92.2 L1032.2,96.3 L1032.5,80.1 L1032.7,103.1 L1033.0,96.3 L1033.3,97.6 L1033.6,89.5 L1033.8,101.7 L1034.1,97.6 L1034.4,99.0 L1034.6,78.7 L1034.9,82.8 L1035.2,97.6 L1035.4,97.6 L1035.7,85.5 L1036.0,90.9 L1036.2,86.8 L1036.5,97.6 L1036.8,90.9 L1037.0,99.0 L1037.3,82.8 L1037.6,81.4 L1037.8,99.0 L1038.1,92.2 L1038.4,101.7 L1038.6,77.4 L1038.9,88.2 L1039.2,94.9 L1039.5,84.1 L1039.7,93.6 L1040.0,97.6 L1040.3,100.3 L1040.5,92.2 L1040.8,99.0 L1041.1,81.4 L1041.3,86.8 L1041.6,100.3 L1041.9,81.4 L1042.1,97.6 L1042.4,82.8 L1042.7,84.1 L1042.9,85.5 L1043.2,97.6 L1043.5,86.8 L1043.7,90.9 L1044.0,85.5 L1044.3,81.4 L1044.6,94.9 L1044.8,89.5 L1045.1,101.7 L1045.4,97.6 L1045.6,86.8 L1045.9,96.3 L1046.2,88.2 L1046.4,90.9 L1046.7,99.0 L1047.0,81.4 L1047.2,99.0 L1047.5,84.1 L1047.8,94.9 L1048.0,93.6 L1048.3,90.9 L1048.6,89.5 L1048.8,81.4 L1049.1,86.8 L1049.4,93.6 L1049.7,88.2 L1049.9,81.4 L1050.2,94.9 L1050.5,89.5 L1050.7,88.2 L1051.0,99.0 L1051.3,99.0 L1051.5,99.0 L1051.8,86.8 L1052.1,92.2 L1052.3,100.3 L1052.6,92.2 L1052.9,94.9 L1053.1,96.3 L1053.4,90.9 L1053.7,85.5 L1053.9,99.0 L1054.2,89.5 L1054.5,80.1 L1054.7,94.9 L1055.0,82.8 L1055.3,84.1 L1055.6,84.1 L1055.8,97.6 L1056.1,99.0 L1056.4,100.3 L1056.6,93.6 L1056.9,92.2 L1057.2,85.5 L1057.4,100.3 L1057.7,90.9 L1058.0,82.8 L1058.2,97.6 L1058.5,81.4 L1058.8,90.9 L1059.0,89.5 L1059.3,92.2 L1059.6,89.5 L1059.8,99.0 L1060.1,101.7 L1060.4,78.7 L1060.7,104.4 L1060.9,94.9 L1061.2,100.3 L1061.5,92.2 L1061.7,101.7 L1062.0,104.4 L1062.3,100.3 L1062.5,99.0 L1062.8,85.5 L1063.1,92.2 L1063.3,85.5 L1063.6,97.6 L1063.9,100.3 L1064.1,94.9 L1064.4,100.3 L1064.7,88.2 L1064.9,84.1 L1065.2,94.9 L1065.5,101.7 L1065.8,80.1 L1066.0,101.7 L1066.3,96.3 L1066.6,92.2 L1066.8,104.4 L1067.1,103.1 L1067.4,89.5 L1067.6,101.7 L1067.9,94.9 L1068.2,104.4 L1068.4,86.8 L1068.7,99.0 L1069.0,85.5 L1069.2,92.2 L1069.5,97.6 L1069.8,99.0 L1070.0,86.8 L1070.3,97.6 L1070.6,90.9 L1070.9,88.2 L1071.1,105.8 L1071.4,81.4 L1071.7,93.6 L1071.9,93.6 L1072.2,89.5 L1072.5,90.9 L1072.7,89.5 L1073.0,103.1 L1073.3,104.4 L1073.5,82.8 L1073.8,86.8 L1074.1,93.6 L1074.3,94.9 L1074.6,89.5 L1074.9,96.3 L1075.1,86.8 L1075.4,94.9 L1075.7,104.4 L1075.9,97.6 L1076.2,105.8 L1076.5,97.6 L1076.8,132.8 L1077.0,153.1 L1077.3,135.5 L1077.6,149.0 L1077.8,147.7 L1078.1,168.0 L1078.4,166.6 L1078.6,182.9 L1078.9,173.4 L1079.2,189.6 L1079.4,180.2 L1079.7,176.1 L1080.0,192.3 L1080.2,185.6 L1080.5,207.2 L1080.8,193.7 L1081.0,203.1 L1081.3,220.7 L1081.6,228.8 L1081.9,219.4 L1082.1,242.4 L1082.4,228.8 L1082.7,245.1 L1082.9,234.3 L1083.2,249.1 L1083.5,242.4 L1083.7,255.9 L1084.0,269.4" fill="none" stroke="#ff7f0e" stroke-width="1.1" opacity="0.85"/><text x="616" y="572" font-size="11" fill="#888">time 0..35 s — altitude (blue) &amp; roll (orange)</text></svg>