<svg xmlns="http://www.w3.org/2000/svg" width="1140" height="600" font-family="sans-serif" font-size="13"><rect width="1140" height="600" fill="white"/><text x="20" y="26" font-size="15" fill="#333">Coludo flight</text><rect x="20" y="40" width="540" height="540" fill="#fbfbfb" stroke="#ddd"/><rect x="50" y="308" width="175" height="38" fill="#cde" stroke="#369" opacity="0.7"/><text x="50" y="303" fill="#369" font-size="12">landing zone</text><circle cx="161" cy="367" r="5" fill="black"/><text x="169" y="371" font-size="12">pad</text><path d="M160.6,367.0 L160.6,367.0 L160.6,367.0 L160.6,367.0 L160.6,367.0 L160.6,367.0 L160.6,367.0 L160.6,367.0 L160.6,367.0 L160.6,367.0 L160.6,367.0 L160.6,367.0 L160.6,367.0 L160.6,367.0 L160.6,367.0 L160.6,367.0 L160.6,367.0 L160.6,367.0 L160.6,367.0 L160.6,367.0 L160.6,367.0 L160.6,367.0 L160.6,367.0 L160.6,367.0 L160.6,367.0 L160.6,367.0 L160.6,367.0 L160.6,367.0 L160.6,367.0 L160.6,367.0 L160.6,367.0 L160.6,367.0 L160.6,367.0 L160.6,367.0 L160.6,367.0 L160.6,367.0 L160.6,367.0 L160.6,367.0 L160.6,367.0 L160.6,367.0 L160.6,367.0 L160.6,367.0 L160.6,367.0 L160.6,367.0 L160.6,367.0 L160.6,367.0 L160.6,367.0 L160.6,367.0 L160.6,367.0 L160.6,367.0 L160.6,367.0 L160.6,367.0 L160.6,367.0 L160.6,367.0 L160.6,367.0 L160.6,367.0 L160.6,367.0 L160.6,367.0 L161.1,366.1 L161.9,364.7 L162.7,363.4 L163.5,362.0 L164.3,360.8 L165.2,359.4 L166.0,358.1 L166.9,356.8 L167.8,355.5 L168.6,354.2 L169.6,352.9 L170.5,351.6 L171.5,350.4 L172.3,349.1 L173.3,347.9 L174.3,346.6 L175.2,345.4 L176.2,344.1 L177.1,342.9 L178.0,341.6 L179.0,340.4 L179.9,339.0 L180.8,337.8 L181.7,336.4 L182.5,335.2 L183.3,333.8 L184.1,332.5 L184.9,331.1 L185.7,329.8 L186.5,328.3 L187.1,327.0 L187.9,325.5 L188.6,324.2 L189.2,322.7 L189.9,321.2 L190.5,319.9 L191.1,318.4 L191.7,317.0 L192.2,315.4 L192.8,314.0 L193.2,312.5 L193.7,310.9 L194.1,309.5 L194.6,307.9 L194.9,306.5 L195.4,304.9 L195.8,303.4 L196.3,301.9 L196.7,300.4 L197.3,299.0 L197.8,297.4 L198.3,295.9 L198.9,294.5 L199.4,293.0 L200.1,291.6 L200.8,290.2 L201.4,288.8 L202.2,287.4 L202.9,286.0 L203.7,284.6 L204.4,283.3 L205.2,281.9 L206.0,280.5 L206.9,279.2 L207.7,277.9 L208.7,276.6 L209.5,275.3 L210.4,274.1 L211.4,272.8 L212.4,271.6 L213.4,270.3 L214.4,269.2 L215.4,268.0 L216.5,266.8 L217.5,265.7 L218.6,264.5 L219.6,263.4 L220.8,262.2 L221.9,261.2 L223.0,260.0 L224.2,259.0 L225.5,258.1 L226.6,257.0 L227.8,256.0 L229.0,255.0 L230.4,254.1 L231.6,253.2 L232.9,252.2 L234.1,251.3 L235.4,250.4 L236.7,249.5 L238.0,248.6 L239.3,247.8 L240.7,246.9 L242.0,246.1 L243.3,245.3 L244.6,244.4 L246.0,243.7 L247.4,243.0 L248.8,242.1 L250.2,241.4 L251.6,240.7 L253.0,240.0 L254.4,239.2 L255.8,238.6 L257.2,237.9 L258.6,237.2 L260.0,236.6 L261.4,235.9 L262.9,235.4 L264.4,234.7 L265.9,234.1 L267.3,233.6 L268.8,233.0 L270.3,232.5 L271.7,231.9 L273.2,231.4 L274.7,231.0 L276.2,230.5 L277.7,230.1 L279.2,229.5 L280.7,229.1 L282.2,228.7 L283.7,228.3 L285.3,227.9 L286.8,227.6 L288.3,227.1 L289.8,226.8 L291.4,226.5 L292.9,226.1 L294.4,225.8 L296.0,225.5 L297.5,225.3 L299.1,225.0 L300.6,224.8 L302.2,224.5 L303.7,224.3 L305.3,224.1 L306.9,223.9 L308.4,223.7 L310.0,223.6 L311.5,223.5 L313.1,223.3 L314.7,223.2 L316.2,223.1 L317.8,223.0 L319.4,223.0 L321.0,222.9 L322.5,222.9 L324.1,222.8 L325.7,222.8 L327.2,222.8 L328.8,222.8 L330.4,222.8 L332.0,222.8 L333.5,222.8 L335.1,222.8 L336.7,222.9 L338.3,222.9 L339.8,223.0 L341.4,223.0 L343.0,223.1 L344.5,223.2 L346.1,223.3 L347.7,223.4 L349.2,223.5 L350.8,223.6 L352.4,223.8 L353.9,224.0 L355.5,224.1 L357.1,224.3 L358.6,224.5 L360.2,224.8 L361.7,225.0 L363.3,225.3 L364.8,225.5 L366.4,225.8 L367.9,226.0 L369.5,226.3 L371.0,226.6 L372.5,227.0 L374.1,227.4 L375.6,227.7 L377.1,228.1 L378.6,228.5 L380.1,228.9 L381.6,229.3 L383.1,229.8 L384.7,230.3 L386.1,230.7 L387.6,231.2 L389.1,231.6 L390.6,232.1 L392.1,232.7 L393.6,233.2 L395.1,233.7 L396.5,234.2 L398.0,234.9 L399.4,235.4 L400.9,236.0 L402.3,236.6 L403.8,237.1 L405.3,237.8 L406.7,238.5 L408.2,239.1 L409.6,239.7 L411.0,240.5 L412.4,241.1 L413.8,241.8 L415.2,242.6 L416.6,243.3 L418.0,244.0 L419.3,244.7 L420.8,245.5 L422.1,246.3 L423.5,247.1 L424.6,247.8 L425.7,248.4 L426.9,249.1 L427.9,249.7 L429.0,250.5 L430.1,251.2 L431.3,251.9 L432.3,252.5 L433.4,253.3 L434.6,254.0 L435.6,254.8 L436.7,255.6 L437.8,256.3 L438.8,257.0 L439.9,257.9 L441.0,258.6 L442.0,259.3 L443.0,260.1 L444.1,260.9 L445.2,261.7 L446.2,262.5 L447.2,263.4 L448.2,264.1 L449.2,264.9 L450.3,265.8 L451.3,266.7 L452.2,267.5 L453.2,268.4 L454.2,269.3 L455.1,270.1 L456.1,271.0 L457.1,271.9 L458.0,272.8 L459.0,273.7 L459.9,274.6 L460.9,275.5 L461.7,276.5 L462.6,277.4 L463.6,278.4 L464.5,279.3 L465.4,280.2 L466.3,281.2 L467.3,282.1 L468.1,283.0 L469.0,284.0 L469.9,285.0 L470.8,286.0 L471.7,286.9 L472.6,287.8 L473.5,288.9 L474.3,289.8 L475.1,290.8 L476.0,291.8 L476.8,292.8 L477.7,293.9 L478.5,294.8 L479.4,295.8 L480.2,296.9 L481.0,297.9 L481.8,299.0 L482.6,300.0 L483.3,301.0 L484.2,302.1 L484.9,303.1 L485.7,304.2 L486.4,305.3 L487.2,306.4 L487.9,307.5 L488.6,308.5 L489.3,309.6 L490.1,310.7 L490.7,311.9 L491.5,312.9 L492.1,314.1 L492.9,315.1 L493.6,316.2 L494.3,317.3 L495.0,318.4 L495.6,319.6 L496.4,320.7 L497.0,321.8 L497.7,322.9 L498.3,324.1 L499.0,325.2 L499.7,326.3 L500.3,327.5 L501.0,328.6 L501.6,329.8 L502.3,330.9 L502.9,332.1 L503.5,333.2 L504.1,334.4 L504.7,335.5 L505.3,336.6 L505.9,337.8 L506.5,339.0 L507.1,340.2 L507.6,341.3 L508.3,342.5 L508.9,343.7 L509.4,344.9 L510.0,346.0 L510.6,347.3 L511.0,348.4 L511.6,349.6 L512.2,350.8 L512.7,351.9 L513.2,353.2 L513.7,354.3 L514.2,355.6 L514.8,356.8 L515.3,358.0 L515.7,359.2 L516.3,360.5 L516.8,361.6 L517.2,362.9 L517.7,364.1 L518.2,365.3 L518.6,366.5 L519.2,367.8 L519.7,368.9 L520.1,370.2 L520.6,371.4 L521.1,372.6 L521.6,373.8 L522.1,375.1 L522.6,376.2 L523.0,377.4 L523.5,378.7 L524.0,379.9 L524.4,381.1 L524.8,382.3 L525.3,383.6 L525.8,384.8 L526.2,386.1 L526.6,387.3 L527.1,388.5 L527.5,389.7 L527.9,391.0 L528.3,392.2 L528.8,393.5 L529.2,394.7 L529.6,396.0 L530.0,397.2" fill="none" stroke="#1f77b4" stroke-width="1.7" opacity="0.85"/><circle cx="530" cy="397" r="4.5" fill="#1f77b4"/><text x="28" y="572" font-size="11" fill="#888">ground track — m from pad (N up)</text><rect x="580" y="40" width="540" height="540" fill="#fbfbfb" stroke="#ddd"/><text x="586" y="54" fill="#1f77b4" font-size="11">alt 549</text><text x="586" y="558" fill="#1f77b4" font-size="11">-1</text><path d="M616.0,543.3 L616.2,543.6 L616.4,541.1 L616.6,541.4 L616.8,541.6 L617.0,542.7 L617.2,542.1 L617.4,539.8 L617.6,541.6 L617.8,544.0 L618.0,543.5 L618.2,542.1 L618.4,540.0 L618.6,541.8 L618.8,541.0 L619.0,542.9 L619.2,543.6 L619.4,540.2 L619.6,542.6 L619.8,538.7 L620.0,542.6 L620.2,540.7 L620.4,538.4 L620.6,540.0 L620.8,538.0 L621.0,543.8 L621.2,537.8 L621.4,543.7 L621.6,543.9 L621.8,539.1 L622.0,543.6 L622.2,541.4 L622.4,533.8 L622.6,541.5 L622.8,537.8 L623.0,534.2 L623.2,534.4 L623.4,528.2 L623.6,540.7 L623.9,531.5 L624.1,528.0 L624.3,528.0 L624.5,530.9 L624.7,536.2 L624.9,531.0 L625.1,541.7 L625.3,538.8 L625.5,522.7 L625.7,520.6 L625.9,530.4 L626.1,520.5 L626.3,522.7 L626.5,520.4 L626.7,521.5 L626.9,521.8 L627.1,527.3 L627.3,539.6 L627.5,512.9 L627.7,517.8 L627.9,529.7 L628.1,529.2 L628.3,509.9 L628.5,536.5 L628.7,521.6 L628.9,522.9 L629.1,527.5 L629.3,542.7 L629.5,527.6 L629.7,531.1 L629.9,526.0 L630.1,540.9 L630.3,543.5 L630.5,509.8 L630.7,525.9 L630.9,514.0 L631.1,537.8 L631.3,525.4 L631.5,491.5 L631.7,516.9 L631.9,500.5 L632.1,538.8 L632.3,526.9 L632.5,488.5 L632.7,519.6 L632.9,534.6 L633.1,534.1 L633.3,522.1 L633.5,531.7 L633.7,525.3 L633.9,543.3 L634.1,513.8 L634.3,479.3 L634.5,506.6 L634.7,530.7 L634.9,531.0 L635.1,483.0 L635.3,501.0 L635.5,510.0 L635.7,500.2 L635.9,497.7 L636.1,537.6 L636.3,527.7 L636.5,496.4 L636.7,537.6 L636.9,530.7 L637.1,480.3 L637.3,522.7 L637.5,494.4 L637.7,538.2 L637.9,470.0 L638.1,533.6 L638.3,488.9 L638.5,471.4 L638.7,441.6 L638.9,486.2 L639.1,464.9 L639.3,461.6 L639.6,542.1 L639.8,535.3 L640.0,441.7 L640.2,528.9 L640.4,466.0 L640.6,432.8 L640.8,491.4 L641.0,485.5 L641.2,498.0 L641.4,501.2 L641.6,490.5 L641.8,468.3 L642.0,472.3 L642.2,525.2 L642.4,523.4 L642.6,518.0 L642.8,497.6 L643.0,531.5 L643.2,426.8 L643.4,490.8 L643.6,484.7 L643.8,420.9 L644.0,447.4 L644.2,498.3 L644.4,496.3 L644.6,474.7 L644.8,438.0 L645.0,400.9 L645.2,389.5 L645.4,409.4 L645.6,428.5 L645.8,381.0 L646.0,426.7 L646.2,369.3 L646.4,510.1 L646.6,509.8 L646.8,406.7 L647.0,413.9 L647.2,355.5 L647.4,353.8 L647.6,390.2 L647.8,362.3 L648.0,413.2 L648.2,512.6 L648.4,383.0 L648.6,441.0 L648.8,360.4 L649.0,525.1 L649.2,442.1 L649.4,396.0 L649.6,513.6 L649.8,396.1 L650.0,338.3 L650.2,423.7 L650.4,481.6 L650.6,510.3 L650.8,371.6 L651.0,331.4 L651.2,354.9 L651.4,466.7 L651.6,330.0 L651.8,522.4 L652.0,487.8 L652.2,511.9 L652.4,298.9 L652.6,360.5 L652.8,530.6 L653.0,336.3 L653.2,417.1 L653.4,422.7 L653.6,520.7 L653.8,290.2 L654.0,520.8 L654.2,502.7 L654.4,487.4 L654.6,356.4 L654.8,492.5 L655.1,291.5 L655.3,427.4 L655.5,330.5 L655.7,407.2 L655.9,358.9 L656.1,391.2 L656.3,509.2 L656.5,252.0 L656.7,248.8 L656.9,424.1 L657.1,499.8 L657.3,332.0 L657.5,436.9 L657.7,425.3 L657.9,261.4 L658.1,434.6 L658.3,228.9 L658.5,298.4 L658.7,353.4 L658.9,427.1 L659.1,290.0 L659.3,221.6 L659.5,237.3 L659.7,483.2 L659.9,456.6 L660.1,294.6 L660.3,342.2 L660.5,423.0 L660.7,513.0 L660.9,208.1 L661.1,216.7 L661.3,522.0 L661.5,456.3 L661.7,236.4 L661.9,334.6 L662.1,279.0 L662.3,483.0 L662.5,284.0 L662.7,323.8 L662.9,339.5 L663.1,516.2 L663.3,474.3 L663.5,355.3 L663.7,527.1 L663.9,414.3 L664.1,277.9 L664.3,318.0 L664.5,370.1 L664.7,402.4 L664.9,436.5 L665.1,426.6 L665.3,197.3 L665.5,283.0 L665.7,367.0 L665.9,352.2 L666.1,323.9 L666.3,253.3 L666.5,218.1 L666.7,265.9 L666.9,231.6 L667.1,521.8 L667.3,516.3 L667.5,264.5 L667.7,524.4 L667.9,442.7 L668.1,434.0 L668.3,258.6 L668.5,391.9 L668.7,185.7 L668.9,215.2 L669.1,304.6 L669.3,396.7 L669.5,437.2 L669.7,351.2 L669.9,506.4 L670.1,427.8 L670.3,477.2 L670.5,502.9 L670.8,396.4 L671.0,377.4 L671.2,343.3 L671.4,188.8 L671.6,280.7 L671.8,432.5 L672.0,307.6 L672.2,259.8 L672.4,247.8 L672.6,510.1 L672.8,216.6 L673.0,250.1 L673.2,399.8 L673.4,534.4 L673.6,430.5 L673.8,206.3 L674.0,434.8 L674.2,515.8 L674.4,184.1 L674.6,531.7 L674.8,341.5 L675.0,524.8 L675.2,331.2 L675.4,468.3 L675.6,533.7 L675.8,351.1 L676.0,374.8 L676.2,431.6 L676.4,346.3 L676.6,440.9 L676.8,517.3 L677.0,262.9 L677.2,117.9 L677.4,80.2 L677.6,228.7 L677.8,233.8 L678.0,471.3 L678.2,209.0 L678.4,395.1 L678.6,490.6 L678.8,424.9 L679.0,76.0 L679.2,407.4 L679.4,222.5 L679.6,273.4 L679.8,376.0 L680.0,298.9 L680.2,142.0 L680.4,445.0 L680.6,96.4 L680.8,367.7 L681.0,400.8 L681.2,440.9 L681.4,282.1 L681.6,248.6 L681.8,341.1 L682.0,251.4 L682.2,497.4 L682.4,535.6 L682.6,111.5 L682.8,385.6 L683.0,168.1 L683.2,395.8 L683.4,117.8 L683.6,479.9 L683.8,84.7 L684.0,166.5 L684.2,446.5 L684.4,251.7 L684.6,525.2 L684.8,371.0 L685.0,175.3 L685.2,164.2 L685.4,386.5 L685.6,84.3 L685.8,458.0 L686.0,79.8 L686.3,197.0 L686.5,185.5 L686.7,347.2 L686.9,164.0 L687.1,164.5 L687.3,111.5 L687.5,287.2 L687.7,301.5 L687.9,501.9 L688.1,386.8 L688.3,181.0 L688.5,271.2 L688.7,435.9 L688.9,516.9 L689.1,118.4 L689.3,276.8 L689.5,322.4 L689.7,490.2 L689.9,331.2 L690.1,529.4 L690.3,367.4 L690.5,86.4 L690.7,526.3 L690.9,466.0 L691.1,512.7 L691.3,199.5 L691.5,302.0 L691.7,170.5 L691.9,534.3 L692.1,384.7 L692.3,504.3 L692.5,518.5 L692.7,277.1 L692.9,119.3 L693.1,249.4 L693.3,375.3 L693.5,513.6 L693.7,79.1 L693.9,445.2 L694.1,194.9 L694.3,345.3 L694.5,214.3 L694.7,381.6 L694.9,169.4 L695.1,463.1 L695.3,486.5 L695.5,131.1 L695.7,255.9 L695.9,408.0 L696.1,495.6 L696.3,153.0 L696.5,488.5 L696.7,95.1 L696.9,247.7 L697.1,321.5 L697.3,140.4 L697.5,168.5 L697.7,467.1 L697.9,154.7 L698.1,212.6 L698.3,209.8 L698.5,360.8 L698.7,226.8 L698.9,154.6 L699.1,484.6 L699.3,339.9 L699.5,364.2 L699.7,93.9 L699.9,263.4 L700.1,474.1 L700.3,114.6 L700.5,204.0 L700.7,322.0 L700.9,306.4 L701.1,284.6 L701.3,144.1 L701.5,116.6 L701.7,243.9 L702.0,426.4 L702.2,296.1 L702.4,245.7 L702.6,264.6 L702.8,89.3 L703.0,526.7 L703.2,252.5 L703.4,158.6 L703.6,453.3 L703.8,510.2 L704.0,382.8 L704.2,115.0 L704.4,127.7 L704.6,445.2 L704.8,320.3 L705.0,461.9 L705.2,489.9 L705.4,147.7 L705.6,421.1 L705.8,278.3 L706.0,531.1 L706.2,454.3 L706.4,215.5 L706.6,85.8 L706.8,348.4 L707.0,288.8 L707.2,458.3 L707.4,389.4 L707.6,182.9 L707.8,199.0 L708.0,452.3 L708.2,87.0 L708.4,489.6 L708.6,290.7 L708.8,347.7 L709.0,316.5 L709.2,344.4 L709.4,335.4 L709.6,451.2 L709.8,241.3 L710.0,131.8 L710.2,236.3 L710.4,423.5 L710.6,229.5 L710.8,220.6 L711.0,402.8 L711.2,532.7 L711.4,322.0 L711.6,509.7 L711.8,448.6 L712.0,465.9 L712.2,399.9 L712.4,162.8 L712.6,266.7 L712.8,98.1 L713.0,408.9 L713.2,398.2 L713.4,353.2 L713.6,97.5 L713.8,506.4 L714.0,424.8 L714.2,168.4 L714.4,325.1 L714.6,114.4 L714.8,433.5 L715.0,453.7 L715.2,146.6 L715.4,210.5 L715.6,128.2 L715.8,430.9 L716.0,301.2 L716.2,281.8 L716.4,313.8 L716.6,247.3 L716.8,447.1 L717.0,424.5 L717.2,521.4 L717.5,198.9 L717.7,363.1 L717.9,239.5 L718.1,220.8 L718.3,139.6 L718.5,322.2 L718.7,276.9 L718.9,466.8 L719.1,278.2 L719.3,354.9 L719.5,312.5 L719.7,434.2 L719.9,435.1 L720.1,449.0 L720.3,443.0 L720.5,125.1 L720.7,484.6 L720.9,364.2 L721.1,483.6 L721.3,128.4 L721.5,149.8 L721.7,542.9 L721.9,531.2 L722.1,465.4 L722.3,523.0 L722.5,296.2 L722.7,383.0 L722.9,112.6 L723.1,397.3 L723.3,368.9 L723.5,221.9 L723.7,186.7 L723.9,219.4 L724.1,173.1 L724.3,197.7 L724.5,453.8 L724.7,114.0 L724.9,167.8 L725.1,133.9 L725.3,431.7 L725.5,258.8 L725.7,167.6 L725.9,262.5 L726.1,213.2 L726.3,131.5 L726.5,504.6 L726.7,150.1 L726.9,427.5 L727.1,234.3 L727.3,432.9 L727.5,151.6 L727.7,383.6 L727.9,495.4 L728.1,401.1 L728.3,268.2 L728.5,289.4 L728.7,358.8 L728.9,269.9 L729.1,211.4 L729.3,517.9 L729.5,118.8 L729.7,279.1 L729.9,141.6 L730.1,230.6 L730.3,514.2 L730.5,530.4 L730.7,470.0 L730.9,165.1 L731.1,173.2 L731.3,466.3 L731.5,297.6 L731.7,486.6 L731.9,441.5 L732.1,327.2 L732.3,431.3 L732.5,125.4 L732.7,463.1 L732.9,133.5 L733.2,407.1 L733.4,363.4 L733.6,166.3 L733.8,500.0 L734.0,317.7 L734.2,525.6 L734.4,527.9 L734.6,461.4 L734.8,436.7 L735.0,125.6 L735.2,102.5 L735.4,377.9 L735.6,448.3 L735.8,233.4 L736.0,170.4 L736.2,324.2 L736.4,478.1 L736.6,359.3 L736.8,240.1 L737.0,438.2 L737.2,434.5 L737.4,509.0 L737.6,513.3 L737.8,406.1 L738.0,317.9 L738.2,114.1 L738.4,338.8 L738.6,327.0 L738.8,325.9 L739.0,146.5 L739.2,329.8 L739.4,445.2 L739.6,424.1 L739.8,360.3 L740.0,351.0 L740.2,254.9 L740.4,358.1 L740.6,385.4 L740.8,420.2 L741.0,538.0 L741.2,463.3 L741.4,486.7 L741.6,114.4 L741.8,433.4 L742.0,112.4 L742.2,468.8 L742.4,498.2 L742.6,384.5 L742.8,379.3 L743.0,139.2 L743.2,386.1 L743.4,222.0 L743.6,500.3 L743.8,196.8 L744.0,527.6 L744.2,464.5 L744.4,537.2 L744.6,232.6 L744.8,218.8 L745.0,414.9 L745.2,423.1 L745.4,412.8 L745.6,224.6 L745.8,364.9 L746.0,151.6 L746.2,512.6 L746.4,352.6 L746.6,381.4 L746.8,372.4 L747.0,314.4 L747.2,253.4 L747.4,142.3 L747.6,336.9 L747.8,486.5 L748.0,474.9 L748.2,316.4 L748.4,535.9 L748.7,258.8 L748.9,211.0 L749.1,214.6 L749.3,255.8 L749.5,408.1 L749.7,225.3 L749.9,196.9 L750.1,257.4 L750.3,467.9 L750.5,525.8 L750.7,299.1 L750.9,141.5 L751.1,424.3 L751.3,474.8 L751.5,247.6 L751.7,387.2 L751.9,337.5 L752.1,444.9 L752.3,212.0 L752.5,327.9 L752.7,341.4 L752.9,135.2 L753.1,392.3 L753.3,290.8 L753.5,463.0 L753.7,491.1 L753.9,503.8 L754.1,178.7 L754.3,357.1 L754.5,226.1 L754.7,160.3 L754.9,218.4 L755.1,495.2 L755.3,137.6 L755.5,362.5 L755.7,119.9 L755.9,215.7 L756.1,414.5 L756.3,433.2 L756.5,171.2 L756.7,305.2 L756.9,227.4 L757.1,293.7 L757.3,410.3 L757.5,483.6 L757.7,393.3 L757.9,392.2 L758.1,250.1 L758.3,384.0 L758.5,149.6 L758.7,375.2 L758.9,204.9 L759.1,312.0 L759.3,148.6 L759.5,346.2 L759.7,335.7 L759.9,421.5 L760.1,129.0 L760.3,309.1 L760.5,393.5 L760.7,167.9 L760.9,127.5 L761.1,126.6 L761.3,223.0 L761.5,453.6 L761.7,160.3 L761.9,269.3 L762.1,380.6 L762.3,262.1 L762.5,301.5 L762.7,133.2 L762.9,358.5 L763.1,172.4 L763.3,338.8 L763.5,413.4 L763.7,421.3 L763.9,526.8 L764.1,267.9 L764.4,294.5 L764.6,246.0 L764.8,415.9 L765.0,248.5 L765.2,193.4 L765.4,133.0 L765.6,326.1 L765.8,318.2 L766.0,375.4 L766.2,476.9 L766.4,212.1 L766.6,152.3 L766.8,439.4 L767.0,150.1 L767.2,140.3 L767.4,180.0 L767.6,171.0 L767.8,408.5 L768.0,212.9 L768.2,314.3 L768.4,171.8 L768.6,517.6 L768.8,473.4 L769.0,178.0 L769.2,407.6 L769.4,249.3 L769.6,536.1 L769.8,321.4 L770.0,288.1 L770.2,447.8 L770.4,405.7 L770.6,367.1 L770.8,443.6 L771.0,505.2 L771.2,167.4 L771.4,243.3 L771.6,435.8 L771.8,361.3 L772.0,388.4 L772.2,291.3 L772.4,171.4 L772.6,159.4 L772.8,338.6 L773.0,274.7 L773.2,342.2 L773.4,236.9 L773.6,340.6 L773.8,307.5 L774.0,272.1 L774.2,391.5 L774.4,353.3 L774.6,228.3 L774.8,393.6 L775.0,196.9 L775.2,145.6 L775.4,193.2 L775.6,468.1 L775.8,366.1 L776.0,436.7 L776.2,178.4 L776.4,531.2 L776.6,502.5 L776.8,401.0 L777.0,472.8 L777.2,244.7 L777.4,500.4 L777.6,363.9 L777.8,243.6 L778.0,248.9 L778.2,203.3 L778.4,520.9 L778.6,443.4 L778.8,466.0 L779.0,199.7 L779.2,387.2 L779.4,175.7 L779.6,151.7 L779.9,351.6 L780.1,347.2 L780.3,430.1 L780.5,417.4 L780.7,193.4 L780.9,169.0 L781.1,386.8 L781.3,293.3 L781.5,220.0 L781.7,355.6 L781.9,204.3 L782.1,492.6 L782.3,262.9 L782.5,426.6 L782.7,494.6 L782.9,519.7 L783.1,320.1 L783.3,371.4 L783.5,486.3 L783.7,318.5 L783.9,491.1 L784.1,220.3 L784.3,332.4 L784.5,379.0 L784.7,235.3 L784.9,307.7 L785.1,465.7 L785.3,307.5 L785.5,286.5 L785.7,533.5 L785.9,169.6 L786.1,242.4 L786.3,361.1 L786.5,497.1 L786.7,276.5 L786.9,336.7 L787.1,518.6 L787.3,194.5 L787.5,328.6 L787.7,475.0 L787.9,424.0 L788.1,513.6 L788.3,489.3 L788.5,181.5 L788.7,426.8 L788.9,339.2 L789.1,355.9 L789.3,375.9 L789.5,242.0 L789.7,494.0 L789.9,497.9 L790.1,254.2 L790.3,543.4 L790.5,216.1 L790.7,157.8 L790.9,415.1 L791.1,349.3 L791.3,462.3 L791.5,159.0 L791.7,227.7 L791.9,416.7 L792.1,389.3 L792.3,431.1 L792.5,156.2 L792.7,542.2 L792.9,539.0 L793.1,262.0 L793.3,261.9 L793.5,400.0 L793.7,462.0 L793.9,216.7 L794.1,177.1 L794.3,316.8 L794.5,402.0 L794.7,279.8 L794.9,264.5 L795.1,304.9 L795.3,264.0 L795.6,409.3 L795.8,386.0 L796.0,258.7 L796.2,501.8 L796.4,478.3 L796.6,203.1 L796.8,384.6 L797.0,234.6 L797.2,463.6 L797.4,350.2 L797.6,319.1 L797.8,331.6 L798.0,338.5 L798.2,267.2 L798.4,195.9 L798.6,406.7 L798.8,532.9 L799.0,347.9 L799.2,454.5 L799.4,517.7 L799.6,441.8 L799.8,400.6 L800.0,241.6 L800.2,476.5 L800.4,315.8 L800.6,339.5 L800.8,455.8 L801.0,516.8 L801.2,353.0 L801.4,433.0 L801.6,208.5 L801.8,390.2 L802.0,429.8 L802.2,402.2 L802.4,526.7 L802.6,318.9 L802.8,543.8 L803.0,333.1 L803.2,457.1 L803.4,304.0 L803.6,333.5 L803.8,402.9 L804.0,458.9 L804.2,285.9 L804.4,483.3 L804.6,372.6 L804.8,371.7 L805.0,175.5 L805.2,232.2 L805.4,436.0 L805.6,376.3 L805.8,378.9 L806.0,402.0 L806.2,200.9 L806.4,405.9 L806.6,173.0 L806.8,219.3 L807.0,320.9 L807.2,225.3 L807.4,200.1 L807.6,263.0 L807.8,263.0 L808.0,433.0 L808.2,347.4 L808.4,471.1 L808.6,231.0 L808.8,180.9 L809.0,522.8 L809.2,329.7 L809.4,208.1 L809.6,458.7 L809.8,419.9 L810.0,452.4 L810.2,209.6 L810.4,525.2 L810.6,360.3 L810.8,325.1 L811.1,324.7 L811.3,222.4 L811.5,325.2 L811.7,195.2 L811.9,499.6 L812.1,410.7 L812.3,521.1 L812.5,243.1 L812.7,222.3 L812.9,378.2 L813.1,389.7 L813.3,504.5 L813.5,340.5 L813.7,392.2 L813.9,183.5 L814.1,435.2 L814.3,526.8 L814.5,502.5 L814.7,431.5 L814.9,195.1 L815.1,418.1 L815.3,519.9 L815.5,278.2 L815.7,368.9 L815.9,279.4 L816.1,336.2 L816.3,422.9 L816.5,199.9 L816.7,255.5 L816.9,384.0 L817.1,321.8 L817.3,352.2 L817.5,246.3 L817.7,463.9 L817.9,374.7 L818.1,379.3 L818.3,540.9 L818.5,283.4 L818.7,293.1 L818.9,477.5 L819.1,390.0 L819.3,405.4 L819.5,275.8 L819.7,472.8 L819.9,209.1 L820.1,306.4 L820.3,537.9 L820.5,231.0 L820.7,421.8 L820.9,323.5 L821.1,317.0 L821.3,531.9 L821.5,404.5 L821.7,192.8 L821.9,362.9 L822.1,458.1 L822.3,336.2 L822.5,424.9 L822.7,475.3 L822.9,505.9 L823.1,404.0 L823.3,505.1 L823.5,339.5 L823.7,533.9 L823.9,237.5 L824.1,364.8 L824.3,332.3 L824.5,510.4 L824.7,465.2 L824.9,195.3 L825.1,202.1 L825.3,449.9 L825.5,349.9 L825.7,370.2 L825.9,412.6 L826.1,327.9 L826.3,370.1 L826.5,229.9 L826.8,479.8 L827.0,315.5 L827.2,372.7 L827.4,380.8 L827.6,256.6 L827.8,376.1 L828.0,212.6 L828.2,388.0 L828.4,269.2 L828.6,381.8 L828.8,473.3 L829.0,283.6 L829.2,269.1 L829.4,433.9 L829.6,282.0 L829.8,324.2 L830.0,428.5 L830.2,479.8 L830.4,420.3 L830.6,302.7 L830.8,533.7 L831.0,524.8 L831.2,419.3 L831.4,264.2 L831.6,527.3 L831.8,243.5 L832.0,421.4 L832.2,330.3 L832.4,227.6 L832.6,373.7 L832.8,458.4 L833.0,264.3 L833.2,392.2 L833.4,531.2 L833.6,234.1 L833.8,527.0 L834.0,217.6 L834.2,394.3 L834.4,284.2 L834.6,404.3 L834.8,290.9 L835.0,384.3 L835.2,458.4 L835.4,465.2 L835.6,470.4 L835.8,473.6 L836.0,453.8 L836.2,448.8 L836.4,352.1 L836.6,394.8 L836.8,222.1 L837.0,335.1 L837.2,488.2 L837.4,524.6 L837.6,270.6 L837.8,473.6 L838.0,487.8 L838.2,327.3 L838.4,377.8 L838.6,471.7 L838.8,234.9 L839.0,354.6 L839.2,260.5 L839.4,505.4 L839.6,429.6 L839.8,313.6 L840.0,394.3 L840.2,532.9 L840.4,367.1 L840.6,403.0 L840.8,480.4 L841.0,476.3 L841.2,355.3 L841.4,489.8 L841.6,541.5 L841.8,354.4 L842.0,350.7 L842.3,521.4 L842.5,298.0 L842.7,376.2 L842.9,280.0 L843.1,491.3 L843.3,243.7 L843.5,293.3 L843.7,353.9 L843.9,376.9 L844.1,389.1 L844.3,369.7 L844.5,245.8 L844.7,354.9 L844.9,298.7 L845.1,535.2 L845.3,383.4 L845.5,509.7 L845.7,286.4 L845.9,473.9 L846.1,506.0 L846.3,531.1 L846.5,317.6 L846.7,483.9 L846.9,303.6 L847.1,477.9 L847.3,288.2 L847.5,326.4 L847.7,346.2 L847.9,359.7 L848.1,308.6 L848.3,417.3 L848.5,315.1 L848.7,299.1 L848.9,367.8 L849.1,446.1 L849.3,378.9 L849.5,447.3 L849.7,454.1 L849.9,243.1 L850.1,246.0 L850.3,307.2 L850.5,524.0 L850.7,320.8 L850.9,508.2 L851.1,248.5 L851.3,371.6 L851.5,358.2 L851.7,312.6 L851.9,350.6 L852.1,520.8 L852.3,380.4 L852.5,398.3 L852.7,400.5 L852.9,279.7 L853.1,489.0 L853.3,327.7 L853.5,528.4 L853.7,382.4 L853.9,533.7 L854.1,435.1 L854.3,414.0 L854.5,395.1 L854.7,319.4 L854.9,387.8 L855.1,544.0 L855.3,390.9 L855.5,370.8 L855.7,326.2 L855.9,294.0 L856.1,392.5 L856.3,524.0 L856.5,507.6 L856.7,531.7 L856.9,522.1 L857.1,501.9 L857.3,263.4 L857.5,303.0 L857.7,430.7 L858.0,400.0 L858.2,519.1 L858.4,252.0 L858.6,480.6 L858.8,434.4 L859.0,394.0 L859.2,413.9 L859.4,269.7 L859.6,277.0 L859.8,332.7 L860.0,265.9 L860.2,496.0 L860.4,525.9 L860.6,532.6 L860.8,390.8 L861.0,441.0 L861.2,441.0 L861.4,517.4 L861.6,518.5 L861.8,382.9 L862.0,516.8 L862.2,476.8 L862.4,535.4 L862.6,465.7 L862.8,447.5 L863.0,272.0 L863.2,244.9 L863.4,397.8 L863.6,500.0 L863.8,472.5 L864.0,276.3 L864.2,246.7 L864.4,488.0 L864.6,337.0 L864.8,542.2 L865.0,252.0 L865.2,500.4 L865.4,384.7 L865.6,450.6 L865.8,343.0 L866.0,414.1 L866.2,416.0 L866.4,296.1 L866.6,471.0 L866.8,446.1 L867.0,330.2 L867.2,347.7 L867.4,284.2 L867.6,526.9 L867.8,403.0 L868.0,390.5 L868.2,478.4 L868.4,463.7 L868.6,460.9 L868.8,446.3 L869.0,356.9 L869.2,463.0 L869.4,543.9 L869.6,518.8 L869.8,375.5 L870.0,531.8 L870.2,366.5 L870.4,402.1 L870.6,534.9 L870.8,369.6 L871.0,403.6 L871.2,326.6 L871.4,281.2 L871.6,456.1 L871.8,405.1 L872.0,475.6 L872.2,406.2 L872.4,257.6 L872.6,418.2 L872.8,285.8 L873.0,283.6 L873.2,423.5 L873.5,442.7 L873.7,447.2 L873.9,273.8 L874.1,414.6 L874.3,459.4 L874.5,319.5 L874.7,500.6 L874.9,379.1 L875.1,462.4 L875.3,313.4 L875.5,425.6 L875.7,457.3 L875.9,542.8 L876.1,448.7 L876.3,375.5 L876.5,282.7 L876.7,331.1 L876.9,343.6 L877.1,320.1 L877.3,365.0 L877.5,352.7 L877.7,429.5 L877.9,528.6 L878.1,419.7 L878.3,301.9 L878.5,292.1 L878.7,265.9 L878.9,415.6 L879.1,275.1 L879.3,447.3 L879.5,486.9 L879.7,318.7 L879.9,489.3 L880.1,402.5 L880.3,503.6 L880.5,517.8 L880.7,382.6 L880.9,427.2 L881.1,268.1 L881.3,304.4 L881.5,428.9 L881.7,445.0 L881.9,334.1 L882.1,523.3 L882.3,332.8 L882.5,433.1 L882.7,283.5 L882.9,477.3 L883.1,388.2 L883.3,538.8 L883.5,361.4 L883.7,406.9 L883.9,284.1 L884.1,497.2 L884.3,283.7 L884.5,512.9 L884.7,277.9 L884.9,420.4 L885.1,355.1 L885.3,324.3 L885.5,351.2 L885.7,502.8 L885.9,524.8 L886.1,454.4 L886.3,331.6 L886.5,465.9 L886.7,513.3 L886.9,483.1 L887.1,311.4 L887.3,278.8 L887.5,357.7 L887.7,450.5 L887.9,342.7 L888.1,402.4 L888.3,337.4 L888.5,275.3 L888.7,480.9 L888.9,453.5 L889.2,347.7 L889.4,285.2 L889.6,295.5 L889.8,528.6 L890.0,288.9 L890.2,460.7 L890.4,442.3 L890.6,405.1 L890.8,345.2 L891.0,474.6 L891.2,388.4 L891.4,413.8 L891.6,373.4 L891.8,362.7 L892.0,281.5 L892.2,385.6 L892.4,429.8 L892.6,528.1 L892.8,381.0 L893.0,509.6 L893.2,444.3 L893.4,314.8 L893.6,340.0 L893.8,318.7 L894.0,288.8 L894.2,386.9 L894.4,491.1 L894.6,332.2 L894.8,307.1 L895.0,538.6 L895.2,529.9 L895.4,445.9 L895.6,317.3 L895.8,489.4 L896.0,479.5 L896.2,391.8 L896.4,522.0 L896.6,471.7 L896.8,335.9 L897.0,508.7 L897.2,426.7 L897.4,327.6 L897.6,438.6 L897.8,377.5 L898.0,478.9 L898.2,400.7 L898.4,297.0 L898.6,331.8 L898.8,298.5 L899.0,503.6 L899.2,351.8 L899.4,297.3 L899.6,496.7 L899.8,322.3 L900.0,360.9 L900.2,468.4 L900.4,373.3 L900.6,310.9 L900.8,303.8 L901.0,512.6 L901.2,528.7 L901.4,295.0 L901.6,422.6 L901.8,439.1 L902.0,415.9 L902.2,308.4 L902.4,360.1 L902.6,488.5 L902.8,467.3 L903.0,374.2 L903.2,319.2 L903.4,465.9 L903.6,303.2 L903.8,466.0 L904.0,351.6 L904.2,485.0 L904.4,399.6 L904.7,534.0 L904.9,518.1 L905.1,398.2 L905.3,450.3 L905.5,509.6 L905.7,378.2 L905.9,374.1 L906.1,319.3 L906.3,461.1 L906.5,521.7 L906.7,400.5 L906.9,380.0 L907.1,308.3 L907.3,447.0 L907.5,320.8 L907.7,461.1 L907.9,380.0 L908.1,414.5 L908.3,468.7 L908.5,434.7 L908.7,425.4 L908.9,482.8 L909.1,311.1 L909.3,385.2 L909.5,344.6 L909.7,469.3 L909.9,362.1 L910.1,393.8 L910.3,536.6 L910.5,542.3 L910.7,529.7 L910.9,538.1 L911.1,468.9 L911.3,331.4 L911.5,517.0 L911.7,427.6 L911.9,352.1 L912.1,461.6 L912.3,315.9 L912.5,423.3 L912.7,389.6 L912.9,379.0 L913.1,344.9 L913.3,447.9 L913.5,516.1 L913.7,382.2 L913.9,442.9 L914.1,452.4 L914.3,435.5 L914.5,493.3 L914.7,428.9 L914.9,392.1 L915.1,440.0 L915.3,499.9 L915.5,460.6 L915.7,448.0 L915.9,435.0 L916.1,423.2 L916.3,359.2 L916.5,381.8 L916.7,437.7 L916.9,426.9 L917.1,405.2 L917.3,461.4 L917.5,364.9 L917.7,368.1 L917.9,367.0 L918.1,321.1 L918.3,429.6 L918.5,327.2 L918.7,423.0 L918.9,458.5 L919.1,383.7 L919.3,490.0 L919.5,462.0 L919.7,441.7 L919.9,370.3 L920.1,380.6 L920.4,465.8 L920.6,415.7 L920.8,470.0 L921.0,362.4 L921.2,443.3 L921.4,537.4 L921.6,412.0 L921.8,509.6 L922.0,519.8 L922.2,332.5 L922.4,516.3 L922.6,501.4 L922.8,484.7 L923.0,339.8 L923.2,350.2 L923.4,444.3 L923.6,350.4 L923.8,421.5 L924.0,369.3 L924.2,459.7 L924.4,487.3 L924.6,433.6 L924.8,484.3 L925.0,325.0 L925.2,419.7 L925.4,359.0 L925.6,382.6 L925.8,487.4 L926.0,454.3 L926.2,370.7 L926.4,536.9 L926.6,478.7 L926.8,459.7 L927.0,528.8 L927.2,522.3 L927.4,390.9 L927.6,352.3 L927.8,448.0 L928.0,490.3 L928.2,453.7 L928.4,396.4 L928.6,420.2 L928.8,464.6 L929.0,486.3 L929.2,338.9 L929.4,463.1 L929.6,442.1 L929.8,472.5 L930.0,391.5 L930.2,460.5 L930.4,513.0 L930.6,338.3 L930.8,350.9 L931.0,422.3 L931.2,514.5 L931.4,451.5 L931.6,505.1 L931.8,371.4 L932.0,385.3 L932.2,519.3 L932.4,439.9 L932.6,448.7 L932.8,485.2 L933.0,414.3 L933.2,340.4 L933.4,451.9 L933.6,501.9 L933.8,528.6 L934.0,531.6 L934.2,532.2 L934.4,345.1 L934.6,482.0 L934.8,388.3 L935.0,434.7 L935.2,427.8 L935.4,381.9 L935.6,490.6 L935.9,509.6 L936.1,457.8 L936.3,385.7 L936.5,401.4 L936.7,368.6 L936.9,524.0 L937.1,384.7 L937.3,348.4 L937.5,401.6 L937.7,411.2 L937.9,467.9 L938.1,510.6 L938.3,480.4 L938.5,487.5 L938.7,371.0 L938.9,531.7 L939.1,437.8 L939.3,543.6 L939.5,410.0 L939.7,408.7 L939.9,350.3 L940.1,518.4 L940.3,382.7 L940.5,500.7 L940.7,478.4 L940.9,355.3 L941.1,488.7 L941.3,533.2 L941.5,526.7 L941.7,424.0 L941.9,400.8 L942.1,409.9 L942.3,408.6 L942.5,477.4 L942.7,476.7 L942.9,518.1 L943.1,529.3 L943.3,352.5 L943.5,416.3 L943.7,502.5 L943.9,527.0 L944.1,495.3 L944.3,486.9 L944.5,415.5 L944.7,466.6 L944.9,405.5 L945.1,420.6 L945.3,381.8 L945.5,486.0 L945.7,512.2 L945.9,499.5 L946.1,391.1 L946.3,488.4 L946.5,405.1 L946.7,505.5 L946.9,525.8 L947.1,438.8 L947.3,517.2 L947.5,450.2 L947.7,500.9 L947.9,443.8 L948.1,367.4 L948.3,448.7 L948.5,482.8 L948.7,403.2 L948.9,499.8 L949.1,518.8 L949.3,497.7 L949.5,427.8 L949.7,518.5 L949.9,493.7 L950.1,523.6 L950.3,460.1 L950.5,406.9 L950.7,426.5 L950.9,472.4 L951.1,422.4 L951.3,505.9 L951.6,425.1 L951.8,503.5 L952.0,469.8 L952.2,371.7 L952.4,532.0 L952.6,363.1 L952.8,464.2 L953.0,510.3 L953.2,447.6 L953.4,375.2 L953.6,409.1 L953.8,434.3 L954.0,407.1 L954.2,392.6 L954.4,509.4 L954.6,382.8 L954.8,407.0 L955.0,485.9 L955.2,540.8 L955.4,502.7 L955.6,375.8 L955.8,490.7 L956.0,412.0 L956.2,429.0 L956.4,389.5 L956.6,524.9 L956.8,458.6 L957.0,534.5 L957.2,423.8 L957.4,440.7 L957.6,513.0 L957.8,383.8 L958.0,526.9 L958.2,388.8 L958.4,528.1 L958.6,527.7 L958.8,470.0 L959.0,516.7 L959.2,496.3 L959.4,389.8 L959.6,372.9 L959.8,521.9 L960.0,483.5 L960.2,393.3 L960.4,380.9 L960.6,444.2 L960.8,375.3 L961.0,505.4 L961.2,401.4 L961.4,525.2 L961.6,427.4 L961.8,528.5 L962.0,500.2 L962.2,459.1 L962.4,474.8 L962.6,476.1 L962.8,385.7 L963.0,526.5 L963.2,503.5 L963.4,495.3 L963.6,385.8 L963.8,464.5 L964.0,512.9 L964.2,398.0 L964.4,444.6 L964.6,436.0 L964.8,469.1 L965.0,515.9 L965.2,473.7 L965.4,476.9 L965.6,407.6 L965.8,428.9 L966.0,473.3 L966.2,411.0 L966.4,485.7 L966.6,452.8 L966.8,444.0 L967.1,476.1 L967.3,420.5 L967.5,495.6 L967.7,471.3 L967.9,399.9 L968.1,385.4 L968.3,455.1 L968.5,393.8 L968.7,418.5 L968.9,389.8 L969.1,539.9 L969.3,504.4 L969.5,510.3 L969.7,433.7 L969.9,491.6 L970.1,414.9 L970.3,479.9 L970.5,410.5 L970.7,477.4 L970.9,447.6 L971.1,450.9 L971.3,483.5 L971.5,505.3 L971.7,413.0 L971.9,412.4 L972.1,518.8 L972.3,442.7 L972.5,478.7 L972.7,387.6 L972.9,441.8 L973.1,410.9 L973.3,447.2 L973.5,434.4 L973.7,467.8 L973.9,476.3 L974.1,509.2 L974.3,543.8 L974.5,390.9 L974.7,408.2 L974.9,480.0 L975.1,415.2 L975.3,471.8 L975.5,522.3 L975.7,411.3 L975.9,493.2 L976.1,449.1 L976.3,491.9 L976.5,520.2 L976.7,540.6 L976.9,429.3 L977.1,533.2 L977.3,477.2 L977.5,490.7 L977.7,515.2 L977.9,413.5 L978.1,400.9 L978.3,509.4 L978.5,437.9 L978.7,398.4 L978.9,534.7 L979.1,525.5 L979.3,429.9 L979.5,537.7 L979.7,441.4 L979.9,457.6 L980.1,452.0 L980.3,401.9 L980.5,528.3 L980.7,494.9 L980.9,480.0 L981.1,422.1 L981.3,542.3 L981.5,406.8 L981.7,489.9 L981.9,404.0 L982.1,502.0 L982.3,450.5 L982.5,489.9 L982.8,489.4 L983.0,530.5 L983.2,492.1 L983.4,444.0 L983.6,520.1 L983.8,513.1 L984.0,532.3 L984.2,411.6 L984.4,462.8 L984.6,492.2 L984.8,453.3 L985.0,480.6 L985.2,532.2 L985.4,459.5 L985.6,436.3 L985.8,526.4 L986.0,522.0 L986.2,521.9 L986.4,444.6 L986.6,490.2 L986.8,538.2 L987.0,511.8 L987.2,432.0 L987.4,448.8 L987.6,454.8 L987.8,542.2 L988.0,483.4 L988.2,435.5 L988.4,520.9 L988.6,411.5 L988.8,444.1 L989.0,519.4 L989.2,455.7 L989.4,422.8 L989.6,523.7 L989.8,440.5 L990.0,456.6 L990.2,531.2 L990.4,457.7 L990.6,448.7 L990.8,532.5 L991.0,416.4 L991.2,453.6 L991.4,461.6 L991.6,523.0 L991.8,458.6 L992.0,427.2 L992.2,462.5 L992.4,470.5 L992.6,542.0 L992.8,512.9 L993.0,429.4 L993.2,436.2 L993.4,443.6 L993.6,434.9 L993.8,457.5 L994.0,429.8 L994.2,436.0 L994.4,513.4 L994.6,442.5 L994.8,536.1 L995.0,522.4 L995.2,494.5 L995.4,522.9 L995.6,477.7 L995.8,520.3 L996.0,500.7 L996.2,438.7 L996.4,493.5 L996.6,492.9 L996.8,442.0 L997.0,463.1 L997.2,425.3 L997.4,422.5 L997.6,423.8 L997.8,428.3 L998.0,475.7 L998.3,534.3 L998.5,439.0 L998.7,482.6 L998.9,485.8 L999.1,462.9 L999.3,453.4 L999.5,480.1 L999.7,528.9 L999.9,509.7 L1000.1,535.5 L1000.3,473.9 L1000.5,431.7 L1000.7,539.7 L1000.9,437.4 L1001.1,483.0 L1001.3,458.3 L1001.5,539.4 L1001.7,428.8 L1001.9,490.1 L1002.1,503.6 L1002.3,485.5 L1002.5,506.4 L1002.7,483.9 L1002.9,515.7 L1003.1,490.7 L1003.3,534.9 L1003.5,472.8 L1003.7,501.1 L1003.9,432.4 L1004.1,452.0 L1004.3,461.9 L1004.5,524.2 L1004.7,438.0 L1004.9,439.3 L1005.1,470.9 L1005.3,462.7 L1005.5,530.1 L1005.7,480.9 L1005.9,542.3 L1006.1,440.7 L1006.3,463.0 L1006.5,524.3 L1006.7,494.8 L1006.9,466.7 L1007.1,455.0 L1007.3,440.8 L1007.5,523.1 L1007.7,532.7 L1007.9,473.9 L1008.1,453.9 L1008.3,474.9 L1008.5,533.3 L1008.7,475.5 L1008.9,461.3 L1009.1,488.9 L1009.3,500.3 L1009.5,510.1 L1009.7,506.5 L1009.9,506.0 L1010.1,538.7 L1010.3,542.0 L1010.5,480.3 L1010.7,519.4 L1010.9,505.2 L1011.1,515.3 L1011.3,526.8 L1011.5,466.0 L1011.7,490.9 L1011.9,540.1 L1012.1,472.0 L1012.3,494.0 L1012.5,519.5 L1012.7,488.6 L1012.9,499.7 L1013.1,484.2 L1013.3,541.6 L1013.5,536.0 L1013.7,451.0 L1014.0,529.3 L1014.2,459.7 L1014.4,462.9 L1014.6,522.8 L1014.8,515.3 L1015.0,483.4 L1015.2,488.9 L1015.4,449.7 L1015.6,473.8 L1015.8,493.5 L1016.0,477.2 L1016.2,456.6 L1016.4,459.1 L1016.6,459.2 L1016.8,448.6 L1017.0,482.7 L1017.2,469.9 L1017.4,473.5 L1017.6,454.3 L1017.8,511.8 L1018.0,513.3 L1018.2,510.6 L1018.4,466.5 L1018.6,467.0 L1018.8,501.7 L1019.0,491.2 L1019.2,501.3 L1019.4,478.0 L1019.6,484.7 L1019.8,490.5 L1020.0,518.0 L1020.2,499.2 L1020.4,456.3 L1020.6,479.7 L1020.8,526.6 L1021.0,536.4 L1021.2,507.8 L1021.4,523.3 L1021.6,532.3 L1021.8,478.2 L1022.0,459.6 L1022.2,515.2 L1022.4,471.8 L1022.6,510.7 L1022.8,538.7 L1023.0,458.7 L1023.2,471.2 L1023.4,493.6 L1023.6,464.0 L1023.8,457.4 L1024.0,525.1 L1024.2,542.6 L1024.4,499.4 L1024.6,497.0 L1024.8,529.9 L1025.0,470.3 L1025.2,468.8 L1025.4,531.6 L1025.6,526.3 L1025.8,504.0 L1026.0,489.4 L1026.2,485.4 L1026.4,500.6 L1026.6,499.5 L1026.8,462.6 L1027.0,485.9 L1027.2,520.6 L1027.4,484.8 L1027.6,541.3 L1027.8,511.7 L1028.0,485.9 L1028.2,481.8 L1028.4,522.9 L1028.6,502.5 L1028.8,466.7 L1029.0,504.7 L1029.2,474.3 L1029.5,528.2 L1029.7,522.5 L1029.9,542.7 L1030.1,483.8 L1030.3,511.5 L1030.5,506.6 L1030.7,503.8 L1030.9,522.4 L1031.1,543.6 L1031.3,489.4 L1031.5,507.6 L1031.7,509.5 L1031.9,510.7 L1032.1,514.2 L1032.3,472.0 L1032.5,519.2 L1032.7,490.4 L1032.9,482.0 L1033.1,540.3 L1033.3,506.5 L1033.5,513.6 L1033.7,474.2 L1033.9,514.5 L1034.1,519.5 L1034.3,481.9 L1034.5,518.0 L1034.7,492.9 L1034.9,540.1 L1035.1,485.7 L1035.3,474.9 L1035.5,535.6 L1035.7,528.1 L1035.9,518.6 L1036.1,515.5 L1036.3,543.2 L1036.5,535.5 L1036.7,513.4 L1036.9,531.8 L1037.1,530.9 L1037.3,532.0 L1037.5,498.1 L1037.7,490.2 L1037.9,513.5 L1038.1,507.2 L1038.3,502.8 L1038.5,532.8 L1038.7,499.2 L1038.9,482.8 L1039.1,485.9 L1039.3,537.0 L1039.5,535.0 L1039.7,486.2 L1039.9,542.6 L1040.1,493.6 L1040.3,538.0 L1040.5,504.6 L1040.7,513.8 L1040.9,520.3 L1041.1,541.5 L1041.3,543.0 L1041.5,498.6 L1041.7,526.7 L1041.9,541.3 L1042.1,499.7 L1042.3,533.9 L1042.5,488.4 L1042.7,521.5 L1042.9,498.7 L1043.1,521.0 L1043.3,500.0 L1043.5,539.8 L1043.7,540.2 L1043.9,522.2 L1044.1,511.5 L1044.3,535.1 L1044.5,530.8 L1044.7,486.8 L1044.9,541.9 L1045.2,516.7 L1045.4,533.8 L1045.6,505.1 L1045.8,492.5 L1046.0,538.3 L1046.2,533.3 L1046.4,514.6 L1046.6,517.3 L1046.8,537.5 L1047.0,512.9 L1047.2,525.7 L1047.4,495.3 L1047.6,504.5 L1047.8,518.5 L1048.0,541.1 L1048.2,511.9 L1048.4,508.6 L1048.6,529.0 L1048.8,511.2 L1049.0,508.4 L1049.2,532.1 L1049.4,534.7 L1049.6,504.3 L1049.8,530.6 L1050.0,497.0 L1050.2,500.9 L1050.4,500.9 L1050.6,536.0 L1050.8,536.3 L1051.0,502.4 L1051.2,522.0 L1051.4,536.8 L1051.6,536.0 L1051.8,530.8 L1052.0,507.2 L1052.2,542.4 L1052.4,505.6 L1052.6,525.5 L1052.8,518.5 L1053.0,519.2 L1053.2,538.8 L1053.4,499.6 L1053.6,520.1 L1053.8,516.9 L1054.0,523.0 L1054.2,505.2 L1054.4,533.5 L1054.6,528.5 L1054.8,518.2 L1055.0,538.1 L1055.2,507.1 L1055.4,538.0 L1055.6,533.6 L1055.8,539.5 L1056.0,523.3 L1056.2,534.7 L1056.4,514.7 L1056.6,530.4 L1056.8,525.5 L1057.0,543.5 L1057.2,526.1 L1057.4,524.0 L1057.6,532.3 L1057.8,513.7 L1058.0,527.4 L1058.2,512.0 L1058.4,513.9 L1058.6,516.2 L1058.8,506.0 L1059.0,522.3 L1059.2,539.1 L1059.4,532.3 L1059.6,538.4 L1059.8,541.6 L1060.0,541.1 L1060.2,537.7 L1060.4,529.9 L1060.7,528.8 L1060.9,531.3 L1061.1,513.7 L1061.3,510.0 L1061.5,511.5 L1061.7,518.2 L1061.9,541.1 L1062.1,519.3 L1062.3,538.5 L1062.5,514.8 L1062.7,522.2 L1062.9,526.3 L1063.1,524.6 L1063.3,525.1 L1063.5,521.0 L1063.7,514.6 L1063.9,514.9 L1064.1,528.2 L1064.3,520.3 L1064.5,542.4 L1064.7,527.1 L1064.9,518.1 L1065.1,533.2 L1065.3,525.8 L1065.5,524.0 L1065.7,526.6 L1065.9,514.6 L1066.1,525.9 L1066.3,526.0 L1066.5,536.2 L1066.7,525.2 L1066.9,525.3 L1067.1,527.1 L1067.3,541.8 L1067.5,530.2 L1067.7,530.1 L1067.9,537.8 L1068.1,527.0 L1068.3,521.3 L1068.5,525.8 L1068.7,532.1 L1068.9,531.9 L1069.1,539.0 L1069.3,534.3 L1069.5,521.9 L1069.7,541.5 L1069.9,539.7 L1070.1,536.0 L1070.3,538.4 L1070.5,532.6 L1070.7,530.1 L1070.9,530.7 L1071.1,530.0 L1071.3,524.6 L1071.5,534.8 L1071.7,535.1 L1071.9,528.1 L1072.1,532.9 L1072.3,532.8 L1072.5,539.0 L1072.7,532.2 L1072.9,539.8 L1073.1,536.6 L1073.3,526.1 L1073.5,543.4 L1073.7,540.4 L1073.9,528.0 L1074.1,529.9 L1074.3,536.1 L1074.5,537.6 L1074.7,529.7 L1074.9,529.6 L1075.1,538.2 L1075.3,532.8 L1075.5,527.7 L1075.7,541.8 L1075.9,528.0 L1076.1,541.7 L1076.4,534.6 L1076.6,533.5 L1076.8,539.0 L1077.0,529.5 L1077.2,537.0 L1077.4,540.8 L1077.6,534.4 L1077.8,537.2 L1078.0,539.9 L1078.2,536.3 L1078.4,538.8 L1078.6,539.0 L1078.8,536.6 L1079.0,542.7 L1079.2,537.2 L1079.4,536.0 L1079.6,542.8 L1079.8,534.8 L1080.0,534.5 L1080.2,536.2 L1080.4,540.0 L1080.6,543.3 L1080.8,541.1 L1081.0,541.6 L1081.2,542.8 L1081.4,542.5 L1081.6,540.0 L1081.8,537.5 L1082.0,539.8 L1082.2,540.1 L1082.4,538.0 L1082.6,541.0 L1082.8,543.5 L1083.0,542.0 L1083.2,543.3 L1083.4,539.7 L1083.6,538.4 L1083.8,538.6 L1084.0,543.8" fill="none" stroke="#1f77b4" stroke-width="1.4" opacity="0.85"/><text x="1040" y="54" fill="#ff7f0e" font-size="11">roll 21</text><text x="1090" y="558" fill="#ff7f0e" font-size="11">-20</text><path d="M616.0,321.3 L616.2,310.0 L616.4,312.3 L616.6,323.6 L616.8,307.7 L617.0,315.7 L617.2,319.0 L617.4,315.7 L617.6,310.0 L617.8,313.4 L618.0,311.1 L618.2,319.0 L618.4,316.8 L618.6,317.9 L618.8,319.0 L619.0,312.3 L619.2,313.4 L619.4,322.4 L619.6,329.2 L619.8,321.3 L620.0,317.9 L620.2,312.3 L620.4,310.0 L620.6,312.3 L620.8,316.8 L621.0,320.2 L621.2,311.1 L621.4,313.4 L621.6,313.4 L621.8,306.6 L622.0,315.7 L622.2,307.7 L622.4,320.2 L622.6,328.1 L622.8,329.2 L623.0,314.5 L623.2,307.7 L623.4,328.1 L623.6,329.2 L623.9,329.2 L624.1,313.4 L624.3,311.1 L624.5,312.3 L624.7,315.7 L624.9,327.0 L625.1,316.8 L625.3,323.6 L625.5,317.9 L625.7,311.1 L625.9,315.7 L626.1,328.1 L626.3,327.0 L626.5,317.9 L626.7,316.8 L626.9,316.8 L627.1,323.6 L627.3,314.5 L627.5,308.9 L627.7,308.9 L627.9,311.1 L628.1,317.9 L628.3,328.1 L628.5,313.4 L628.7,313.4 L628.9,320.2 L629.1,314.5 L629.3,315.7 L629.5,315.7 L629.7,328.1 L629.9,310.0 L630.1,306.6 L630.3,319.0 L630.5,308.9 L630.7,316.8 L630.9,324.7 L631.1,321.3 L631.3,314.5 L631.5,308.9 L631.7,306.6 L631.9,307.7 L632.1,323.6 L632.3,312.3 L632.5,324.7 L632.7,319.0 L632.9,325.8 L633.1,312.3 L633.3,306.6 L633.5,324.7 L633.7,314.5 L633.9,319.0 L634.1,310.0 L634.3,330.3 L634.5,307.7 L634.7,329.2 L634.9,321.3 L635.1,310.0 L635.3,319.0 L635.5,307.7 L635.7,321.3 L635.9,321.3 L636.1,315.7 L636.3,322.4 L636.5,313.4 L636.7,329.2 L636.9,319.0 L637.1,328.1 L637.3,319.0 L637.5,321.3 L637.7,313.4 L637.9,317.9 L638.1,325.8 L638.3,329.2 L638.5,317.9 L638.7,319.0 L638.9,315.7 L639.1,315.7 L639.3,312.3 L639.6,311.1 L639.8,329.2 L640.0,320.2 L640.2,328.1 L640.4,328.1 L640.6,307.7 L640.8,312.3 L641.0,327.0 L641.2,308.9 L641.4,320.2 L641.6,320.2 L641.8,321.3 L642.0,321.3 L642.2,310.0 L642.4,316.8 L642.6,324.7 L642.8,307.7 L643.0,315.7 L643.2,329.2 L643.4,315.7 L643.6,320.2 L643.8,316.8 L644.0,316.8 L644.2,314.5 L644.4,328.1 L644.6,319.0 L644.8,319.0 L645.0,313.4 L645.2,307.7 L645.4,308.9 L645.6,317.9 L645.8,319.0 L646.0,308.9 L646.2,317.9 L646.4,325.8 L646.6,314.5 L646.8,311.1 L647.0,308.9 L647.2,316.8 L647.4,329.2 L647.6,306.6 L647.8,316.8 L648.0,323.6 L648.2,327.0 L648.4,315.7 L648.6,327.0 L648.8,331.5 L649.0,319.0 L649.2,329.2 L649.4,325.8 L649.6,325.8 L649.8,320.2 L650.0,322.4 L650.2,312.3 L650.4,322.4 L650.6,322.4 L650.8,314.5 L651.0,319.0 L651.2,312.3 L651.4,311.1 L651.6,324.7 L651.8,331.5 L652.0,332.6 L652.2,311.1 L652.4,319.0 L652.6,331.5 L652.8,312.3 L653.0,329.2 L653.2,310.0 L653.4,336.0 L653.6,332.6 L653.8,328.1 L654.0,336.0 L654.2,324.7 L654.4,312.3 L654.6,331.5 L654.8,306.6 L655.1,317.9 L655.3,331.5 L655.5,308.9 L655.7,321.3 L655.9,312.3 L656.1,317.9 L656.3,306.6 L656.5,332.6 L656.7,331.5 L656.9,314.5 L657.1,307.7 L657.3,315.7 L657.5,314.5 L657.7,331.5 L657.9,323.6 L658.1,315.7 L658.3,314.5 L658.5,331.5 L658.7,324.7 L658.9,308.9 L659.1,315.7 L659.3,331.5 L659.5,327.0 L659.7,331.5 L659.9,324.7 L660.1,329.2 L660.3,314.5 L660.5,314.5 L660.7,329.2 L660.9,320.2 L661.1,308.9 L661.3,306.6 L661.5,316.8 L661.7,314.5 L661.9,312.3 L662.1,328.1 L662.3,329.2 L662.5,321.3 L662.7,310.0 L662.9,321.3 L663.1,311.1 L663.3,313.4 L663.5,307.7 L663.7,323.6 L663.9,316.8 L664.1,320.2 L664.3,307.7 L664.5,322.4 L664.7,308.9 L664.9,321.3 L665.1,312.3 L665.3,319.0 L665.5,314.5 L665.7,319.0 L665.9,320.2 L666.1,327.0 L666.3,313.4 L666.5,328.1 L666.7,325.8 L666.9,308.9 L667.1,317.9 L667.3,329.2 L667.5,328.1 L667.7,330.3 L667.9,325.8 L668.1,325.8 L668.3,307.7 L668.5,329.2 L668.7,307.7 L668.9,317.9 L669.1,308.9 L669.3,307.7 L669.5,310.0 L669.7,322.4 L669.9,316.8 L670.1,313.4 L670.3,332.6 L670.5,330.3 L670.8,321.3 L671.0,307.7 L671.2,319.0 L671.4,330.3 L671.6,319.0 L671.8,311.1 L672.0,324.7 L672.2,319.0 L672.4,324.7 L672.6,306.6 L672.8,329.2 L673.0,322.4 L673.2,325.8 L673.4,322.4 L673.6,330.3 L673.8,311.1 L674.0,312.3 L674.2,319.0 L674.4,311.1 L674.6,329.2 L674.8,307.7 L675.0,329.2 L675.2,325.8 L675.4,306.6 L675.6,307.7 L675.8,325.8 L676.0,329.2 L676.2,314.5 L676.4,320.2 L676.6,320.2 L676.8,314.5 L677.0,312.3 L677.2,310.0 L677.4,307.7 L677.6,323.6 L677.8,327.0 L678.0,299.8 L678.2,320.2 L678.4,294.2 L678.6,313.4 L678.8,315.7 L679.0,325.8 L679.2,260.3 L679.4,307.7 L679.6,251.2 L679.8,259.1 L680.0,239.9 L680.2,250.1 L680.4,311.1 L680.6,204.9 L680.8,279.5 L681.0,171.0 L681.2,263.7 L681.4,181.1 L681.6,221.8 L681.8,247.8 L682.0,176.6 L682.2,220.7 L682.4,189.0 L682.6,260.3 L682.8,161.9 L683.0,252.3 L683.2,209.4 L683.4,246.7 L683.6,269.3 L683.8,203.7 L684.0,288.5 L684.2,236.5 L684.4,155.1 L684.6,316.8 L684.8,177.7 L685.0,209.4 L685.2,235.4 L685.4,278.3 L685.6,226.3 L685.8,282.9 L686.0,312.3 L686.3,224.1 L686.5,299.8 L686.7,225.2 L686.9,307.7 L687.1,313.4 L687.3,258.0 L687.5,204.9 L687.7,263.7 L687.9,268.2 L688.1,259.1 L688.3,226.3 L688.5,328.1 L688.7,229.7 L688.9,288.5 L689.1,311.1 L689.3,218.4 L689.5,261.4 L689.7,312.3 L689.9,295.3 L690.1,307.7 L690.3,260.3 L690.5,304.3 L690.7,277.2 L690.9,328.1 L691.1,305.5 L691.3,307.7 L691.5,276.1 L691.7,277.2 L691.9,251.2 L692.1,303.2 L692.3,301.0 L692.5,250.1 L692.7,269.3 L692.9,264.8 L693.1,253.5 L693.3,224.1 L693.5,311.1 L693.7,228.6 L693.9,307.7 L694.1,313.4 L694.3,271.6 L694.5,191.3 L694.7,282.9 L694.9,287.4 L695.1,190.2 L695.3,241.0 L695.5,259.1 L695.7,275.0 L695.9,227.5 L696.1,305.5 L696.3,327.0 L696.5,235.4 L696.7,262.5 L696.9,269.3 L697.1,206.0 L697.3,241.0 L697.5,307.7 L697.7,264.8 L697.9,282.9 L698.1,280.6 L698.3,313.4 L698.5,312.3 L698.7,311.1 L698.9,345.0 L699.1,324.7 L699.3,401.6 L699.5,351.8 L699.7,324.7 L699.9,383.5 L700.1,330.3 L700.3,310.0 L700.5,375.6 L700.7,334.9 L700.9,334.9 L701.1,313.4 L701.3,419.7 L701.5,374.4 L701.7,424.2 L702.0,452.4 L702.2,358.6 L702.4,415.1 L702.6,363.1 L702.8,504.4 L703.0,395.9 L703.2,391.4 L703.4,311.1 L703.6,380.1 L703.8,492.0 L704.0,435.5 L704.2,490.9 L704.4,325.8 L704.6,478.4 L704.8,416.3 L705.0,408.3 L705.2,398.2 L705.4,394.8 L705.6,357.5 L705.8,516.9 L706.0,392.5 L706.2,392.5 L706.4,541.7 L706.6,399.3 L706.8,510.1 L707.0,357.5 L707.2,325.8 L707.4,501.0 L707.6,480.7 L707.8,445.7 L708.0,501.0 L708.2,494.3 L708.4,388.0 L708.6,424.2 L708.8,473.9 L709.0,503.3 L709.2,382.3 L709.4,481.8 L709.6,478.4 L709.8,445.7 L710.0,507.8 L710.2,432.1 L710.4,485.2 L710.6,487.5 L710.8,323.6 L711.0,379.0 L711.2,478.4 L711.4,460.3 L711.6,321.3 L711.8,507.8 L712.0,392.5 L712.2,331.5 L712.4,504.4 L712.6,374.4 L712.8,394.8 L713.0,353.0 L713.2,443.4 L713.4,325.8 L713.6,471.7 L713.8,314.5 L714.0,412.9 L714.2,377.8 L714.4,455.8 L714.6,314.5 L714.8,472.8 L715.0,364.3 L715.2,421.9 L715.4,343.9 L715.6,451.3 L715.8,377.8 L716.0,315.7 L716.2,306.6 L716.4,329.2 L716.6,371.0 L716.8,320.2 L717.0,472.8 L717.2,328.1 L717.5,489.7 L717.7,308.9 L717.9,490.9 L718.1,348.4 L718.3,327.0 L718.5,354.1 L718.7,489.7 L718.9,380.1 L719.1,323.6 L719.3,417.4 L719.5,393.7 L719.7,436.6 L719.9,398.2 L720.1,471.7 L720.3,462.6 L720.5,336.0 L720.7,401.6 L720.9,325.8 L721.1,510.1 L721.3,380.1 L721.5,395.9 L721.7,374.4 L721.9,463.7 L722.1,376.7 L722.3,329.2 L722.5,384.6 L722.7,488.6 L722.9,447.9 L723.1,441.1 L723.3,360.9 L723.5,412.9 L723.7,464.9 L723.9,453.6 L724.1,419.7 L724.3,451.3 L724.5,467.1 L724.7,383.5 L724.9,421.9 L725.1,327.0 L725.3,544.0 L725.5,369.9 L725.7,389.1 L725.9,523.7 L726.1,497.7 L726.3,518.0 L726.5,343.9 L726.7,463.7 L726.9,464.9 L727.1,358.6 L727.3,381.2 L727.5,473.9 L727.7,496.5 L727.9,463.7 L728.1,416.3 L728.3,459.2 L728.5,484.1 L728.7,392.5 L728.9,311.1 L729.1,455.8 L729.3,346.2 L729.5,435.5 L729.7,313.4 L729.9,393.7 L730.1,470.5 L730.3,390.3 L730.5,359.7 L730.7,325.8 L730.9,363.1 L731.1,377.8 L731.3,330.3 L731.5,343.9 L731.7,315.7 L731.9,323.6 L732.1,311.1 L732.3,245.6 L732.5,310.0 L732.7,258.0 L732.9,270.4 L733.2,323.6 L733.4,273.8 L733.6,277.2 L733.8,289.7 L734.0,230.9 L734.2,192.4 L734.4,272.7 L734.6,198.1 L734.8,224.1 L735.0,220.7 L735.2,229.7 L735.4,286.3 L735.6,319.0 L735.8,221.8 L736.0,238.8 L736.2,112.2 L736.4,235.4 L736.6,241.0 L736.8,133.7 L737.0,286.3 L737.2,253.5 L737.4,150.6 L737.6,163.0 L737.8,315.7 L738.0,194.7 L738.2,271.6 L738.4,142.7 L738.6,218.4 L738.8,306.6 L739.0,304.3 L739.2,128.0 L739.4,243.3 L739.6,328.1 L739.8,138.2 L740.0,264.8 L740.2,242.2 L740.4,195.8 L740.6,233.1 L740.8,272.7 L741.0,276.1 L741.2,261.4 L741.4,178.9 L741.6,286.3 L741.8,307.7 L742.0,80.5 L742.2,192.4 L742.4,128.0 L742.6,138.2 L742.8,166.4 L743.0,281.7 L743.2,269.3 L743.4,254.6 L743.6,194.7 L743.8,251.2 L744.0,184.5 L744.2,221.8 L744.4,307.7 L744.6,76.0 L744.8,138.2 L745.0,234.3 L745.2,303.2 L745.4,171.0 L745.6,94.1 L745.8,119.0 L746.0,156.3 L746.2,321.3 L746.4,268.2 L746.6,133.7 L746.8,290.8 L747.0,114.4 L747.2,270.4 L747.4,141.6 L747.6,275.0 L747.8,272.7 L748.0,189.0 L748.2,209.4 L748.4,176.6 L748.7,199.2 L748.9,195.8 L749.1,165.3 L749.3,159.7 L749.5,298.7 L749.7,236.5 L749.9,310.0 L750.1,151.7 L750.3,168.7 L750.5,167.6 L750.7,98.6 L750.9,194.7 L751.1,226.3 L751.3,298.7 L751.5,242.2 L751.7,289.7 L751.9,174.3 L752.1,131.4 L752.3,147.2 L752.5,202.6 L752.7,217.3 L752.9,201.5 L753.1,211.7 L753.3,107.7 L753.5,223.0 L753.7,93.0 L753.9,152.9 L754.1,155.1 L754.3,99.7 L754.5,305.5 L754.7,301.0 L754.9,129.1 L755.1,139.3 L755.3,290.8 L755.5,148.3 L755.7,140.4 L755.9,260.3 L756.1,234.3 L756.3,270.4 L756.5,85.0 L756.7,295.3 L756.9,99.7 L757.1,154.0 L757.3,324.7 L757.5,177.7 L757.7,290.8 L757.9,171.0 L758.1,215.0 L758.3,195.8 L758.5,206.0 L758.7,268.2 L758.9,201.5 L759.1,327.0 L759.3,291.9 L759.5,273.8 L759.7,89.6 L759.9,198.1 L760.1,102.0 L760.3,289.7 L760.5,159.7 L760.7,260.3 L760.9,168.7 L761.1,191.3 L761.3,202.6 L761.5,168.7 L761.7,234.3 L761.9,265.9 L762.1,264.8 L762.3,224.1 L762.5,299.8 L762.7,234.3 L762.9,302.1 L763.1,98.6 L763.3,322.4 L763.5,192.4 L763.7,294.2 L763.9,123.5 L764.1,304.3 L764.4,175.5 L764.6,209.4 L764.8,316.8 L765.0,204.9 L765.2,270.4 L765.4,224.1 L765.6,302.1 L765.8,199.2 L766.0,177.7 L766.2,219.6 L766.4,280.6 L766.6,160.8 L766.8,173.2 L767.0,247.8 L767.2,299.8 L767.4,298.7 L767.6,308.9 L767.8,314.5 L768.0,103.1 L768.2,115.6 L768.4,103.1 L768.6,156.3 L768.8,82.8 L769.0,165.3 L769.2,260.3 L769.4,157.4 L769.6,116.7 L769.8,288.5 L770.0,250.1 L770.2,329.2 L770.4,105.4 L770.6,130.3 L770.8,301.0 L771.0,213.9 L771.2,235.4 L771.4,191.3 L771.6,260.3 L771.8,237.7 L772.0,291.9 L772.2,259.1 L772.4,189.0 L772.6,232.0 L772.8,223.0 L773.0,236.5 L773.2,175.5 L773.4,221.8 L773.6,140.4 L773.8,305.5 L774.0,280.6 L774.2,239.9 L774.4,104.3 L774.6,312.3 L774.8,106.5 L775.0,177.7 L775.2,227.5 L775.4,209.4 L775.6,178.9 L775.8,146.1 L776.0,182.3 L776.2,167.6 L776.4,284.0 L776.6,218.4 L776.8,190.2 L777.0,128.0 L777.2,313.4 L777.4,289.7 L777.6,242.2 L777.8,183.4 L778.0,315.7 L778.2,237.7 L778.4,181.1 L778.6,308.9 L778.8,244.4 L779.0,157.4 L779.2,176.6 L779.4,152.9 L779.6,226.3 L779.9,191.3 L780.1,329.2 L780.3,183.4 L780.5,301.0 L780.7,239.9 L780.9,180.0 L781.1,294.2 L781.3,268.2 L781.5,314.5 L781.7,168.7 L781.9,252.3 L782.1,250.1 L782.3,307.7 L782.5,146.1 L782.7,267.0 L782.9,320.2 L783.1,181.1 L783.3,289.7 L783.5,325.8 L783.7,328.1 L783.9,295.3 L784.1,120.1 L784.3,166.4 L784.5,295.3 L784.7,293.0 L784.9,189.0 L785.1,267.0 L785.3,158.5 L785.5,215.0 L785.7,252.3 L785.9,243.3 L786.1,213.9 L786.3,281.7 L786.5,161.9 L786.7,272.7 L786.9,328.1 L787.1,313.4 L787.3,227.5 L787.5,208.3 L787.7,253.5 L787.9,206.0 L788.1,182.3 L788.3,247.8 L788.5,227.5 L788.7,241.0 L788.9,247.8 L789.1,199.2 L789.3,328.1 L789.5,297.6 L789.7,269.3 L789.9,194.7 L790.1,187.9 L790.3,319.0 L790.5,198.1 L790.7,321.3 L790.9,180.0 L791.1,314.5 L791.3,293.0 L791.5,233.1 L791.7,285.1 L791.9,210.5 L792.1,190.2 L792.3,190.2 L792.5,218.4 L792.7,186.8 L792.9,193.6 L793.1,242.2 L793.3,139.3 L793.5,152.9 L793.7,172.1 L793.9,294.2 L794.1,306.6 L794.3,215.0 L794.5,249.0 L794.7,208.3 L794.9,164.2 L795.1,173.2 L795.3,288.5 L795.6,201.5 L795.8,145.0 L796.0,267.0 L796.2,166.4 L796.4,200.3 L796.6,202.6 L796.8,286.3 L797.0,198.1 L797.2,281.7 L797.4,321.3 L797.6,245.6 L797.8,181.1 L798.0,229.7 L798.2,296.4 L798.4,234.3 L798.6,221.8 L798.8,288.5 L799.0,211.7 L799.2,316.8 L799.4,323.6 L799.6,210.5 L799.8,261.4 L800.0,286.3 L800.2,268.2 L800.4,210.5 L800.6,213.9 L800.8,304.3 L801.0,315.7 L801.2,198.1 L801.4,182.3 L801.6,303.2 L801.8,261.4 L802.0,223.0 L802.2,238.8 L802.4,316.8 L802.6,190.2 L802.8,199.2 L803.0,226.3 L803.2,208.3 L803.4,224.1 L803.6,174.3 L803.8,204.9 L804.0,253.5 L804.2,220.7 L804.4,285.1 L804.6,325.8 L804.8,271.6 L805.0,211.7 L805.2,271.6 L805.4,241.0 L805.6,302.1 L805.8,322.4 L806.0,124.6 L806.2,284.0 L806.4,142.7 L806.6,234.3 L806.8,282.9 L807.0,233.1 L807.2,197.0 L807.4,252.3 L807.6,212.8 L807.8,216.2 L808.0,322.4 L808.2,173.2 L808.4,288.5 L808.6,192.4 L808.8,178.9 L809.0,305.5 L809.2,251.2 L809.4,180.0 L809.6,323.6 L809.8,187.9 L810.0,311.1 L810.2,168.7 L810.4,198.1 L810.6,238.8 L810.8,267.0 L811.1,228.6 L811.3,229.7 L811.5,294.2 L811.7,301.0 L811.9,234.3 L812.1,271.6 L812.3,270.4 L812.5,151.7 L812.7,305.5 L812.9,171.0 L813.1,284.0 L813.3,298.7 L813.5,250.1 L813.7,216.2 L813.9,280.6 L814.1,259.1 L814.3,224.1 L814.5,310.0 L814.7,189.0 L814.9,294.2 L815.1,267.0 L815.3,278.3 L815.5,261.4 L815.7,313.4 L815.9,298.7 L816.1,116.7 L816.3,184.5 L816.5,263.7 L816.7,279.5 L816.9,239.9 L817.1,264.8 L817.3,280.6 L817.5,167.6 L817.7,303.2 L817.9,164.2 L818.1,310.0 L818.3,251.2 L818.5,306.6 L818.7,321.3 L818.9,219.6 L819.1,288.5 L819.3,191.3 L819.5,293.0 L819.7,325.8 L819.9,321.3 L820.1,277.2 L820.3,206.0 L820.5,273.8 L820.7,267.0 L820.9,320.2 L821.1,230.9 L821.3,235.4 L821.5,295.3 L821.7,246.7 L821.9,269.3 L822.1,212.8 L822.3,284.0 L822.5,303.2 L822.7,197.0 L822.9,200.3 L823.1,302.1 L823.3,228.6 L823.5,256.9 L823.7,281.7 L823.9,181.1 L824.1,247.8 L824.3,157.4 L824.5,241.0 L824.7,262.5 L824.9,256.9 L825.1,206.0 L825.3,289.7 L825.5,308.9 L825.7,209.4 L825.9,228.6 L826.1,228.6 L826.3,187.9 L826.5,294.2 L826.8,253.5 L827.0,241.0 L827.2,190.2 L827.4,182.3 L827.6,241.0 L827.8,189.0 L828.0,297.6 L828.2,284.0 L828.4,184.5 L828.6,311.1 L828.8,243.3 L829.0,255.7 L829.2,320.2 L829.4,251.2 L829.6,251.2 L829.8,181.1 L830.0,287.4 L830.2,286.3 L830.4,303.2 L830.6,212.8 L830.8,265.9 L831.0,305.5 L831.2,267.0 L831.4,313.4 L831.6,306.6 L831.8,329.2 L832.0,322.4 L832.2,311.1 L832.4,286.3 L832.6,279.5 L832.8,297.6 L833.0,282.9 L833.2,305.5 L833.4,319.0 L833.6,202.6 L833.8,273.8 L834.0,209.4 L834.2,276.1 L834.4,310.0 L834.6,272.7 L834.8,215.0 L835.0,298.7 L835.2,234.3 L835.4,313.4 L835.6,324.7 L835.8,297.6 L836.0,228.6 L836.2,253.5 L836.4,237.7 L836.6,273.8 L836.8,173.2 L837.0,296.4 L837.2,284.0 L837.4,302.1 L837.6,176.6 L837.8,328.1 L838.0,290.8 L838.2,133.7 L838.4,192.4 L838.6,147.2 L838.8,185.7 L839.0,287.4 L839.2,161.9 L839.4,192.4 L839.6,260.3 L839.8,200.3 L840.0,307.7 L840.2,243.3 L840.4,211.7 L840.6,310.0 L840.8,161.9 L841.0,151.7 L841.2,180.0 L841.4,281.7 L841.6,190.2 L841.8,308.9 L842.0,275.0 L842.3,278.3 L842.5,329.2 L842.7,212.8 L842.9,316.8 L843.1,224.1 L843.3,211.7 L843.5,226.3 L843.7,310.0 L843.9,220.7 L844.1,319.0 L844.3,270.4 L844.5,272.7 L844.7,328.1 L844.9,288.5 L845.1,315.7 L845.3,317.9 L845.5,322.4 L845.7,247.8 L845.9,192.4 L846.1,310.0 L846.3,249.0 L846.5,264.8 L846.7,277.2 L846.9,265.9 L847.1,193.6 L847.3,272.7 L847.5,269.3 L847.7,305.5 L847.9,260.3 L848.1,275.0 L848.3,293.0 L848.5,280.6 L848.7,329.2 L848.9,180.0 L849.1,324.7 L849.3,289.7 L849.5,305.5 L849.7,327.0 L849.9,234.3 L850.1,241.0 L850.3,325.8 L850.5,238.8 L850.7,249.0 L850.9,319.0 L851.1,319.0 L851.3,322.4 L851.5,230.9 L851.7,261.4 L851.9,285.1 L852.1,306.6 L852.3,278.3 L852.5,200.3 L852.7,220.7 L852.9,215.0 L853.1,302.1 L853.3,299.8 L853.5,278.3 L853.7,284.0 L853.9,241.0 L854.1,322.4 L854.3,164.2 L854.5,306.6 L854.7,308.9 L854.9,160.8 L855.1,187.9 L855.3,255.7 L855.5,315.7 L855.7,251.2 L855.9,284.0 L856.1,236.5 L856.3,241.0 L856.5,269.3 L856.7,210.5 L856.9,282.9 L857.1,195.8 L857.3,304.3 L857.5,319.0 L857.7,258.0 L858.0,275.0 L858.2,229.7 L858.4,308.9 L858.6,308.9 L858.8,192.4 L859.0,272.7 L859.2,262.5 L859.4,221.8 L859.6,281.7 L859.8,261.4 L860.0,226.3 L860.2,241.0 L860.4,263.7 L860.6,297.6 L860.8,234.3 L861.0,327.0 L861.2,219.6 L861.4,246.7 L861.6,267.0 L861.8,328.1 L862.0,317.9 L862.2,232.0 L862.4,291.9 L862.6,321.3 L862.8,316.8 L863.0,291.9 L863.2,328.1 L863.4,323.6 L863.6,298.7 L863.8,291.9 L864.0,306.6 L864.2,279.5 L864.4,243.3 L864.6,272.7 L864.8,245.6 L865.0,245.6 L865.2,302.1 L865.4,251.2 L865.6,243.3 L865.8,238.8 L866.0,303.2 L866.2,314.5 L866.4,307.7 L866.6,290.8 L866.8,226.3 L867.0,230.9 L867.2,234.3 L867.4,252.3 L867.6,185.7 L867.8,277.2 L868.0,279.5 L868.2,245.6 L868.4,289.7 L868.6,301.0 L868.8,316.8 L869.0,301.0 L869.2,233.1 L869.4,304.3 L869.6,204.9 L869.8,208.3 L870.0,307.7 L870.2,227.5 L870.4,329.2 L870.6,233.1 L870.8,223.0 L871.0,321.3 L871.2,243.3 L871.4,218.4 L871.6,289.7 L871.8,234.3 L872.0,314.5 L872.2,258.0 L872.4,276.1 L872.6,226.3 L872.8,296.4 L873.0,289.7 L873.2,237.7 L873.5,225.2 L873.7,226.3 L873.9,249.0 L874.1,284.0 L874.3,282.9 L874.5,313.4 L874.7,289.7 L874.9,316.8 L875.1,302.1 L875.3,249.0 L875.5,289.7 L875.7,236.5 L875.9,320.2 L876.1,310.0 L876.3,298.7 L876.5,249.0 L876.7,270.4 L876.9,227.5 L877.1,229.7 L877.3,260.3 L877.5,239.9 L877.7,245.6 L877.9,319.0 L878.1,275.0 L878.3,263.7 L878.5,219.6 L878.7,218.4 L878.9,322.4 L879.1,212.8 L879.3,215.0 L879.5,158.5 L879.7,285.1 L879.9,277.2 L880.1,325.8 L880.3,314.5 L880.5,254.6 L880.7,255.7 L880.9,290.8 L881.1,247.8 L881.3,299.8 L881.5,276.1 L881.7,302.1 L881.9,324.7 L882.1,317.9 L882.3,202.6 L882.5,280.6 L882.7,305.5 L882.9,311.1 L883.1,242.2 L883.3,190.2 L883.5,282.9 L883.7,269.3 L883.9,239.9 L884.1,275.0 L884.3,289.7 L884.5,175.5 L884.7,316.8 L884.9,191.3 L885.1,215.0 L885.3,261.4 L885.5,290.8 L885.7,193.6 L885.9,290.8 L886.1,150.6 L886.3,177.7 L886.5,221.8 L886.7,219.6 L886.9,239.9 L887.1,221.8 L887.3,272.7 L887.5,123.5 L887.7,325.8 L887.9,293.0 L888.1,175.5 L888.3,216.2 L888.5,316.8 L888.7,171.0 L888.9,267.0 L889.2,279.5 L889.4,212.8 L889.6,293.0 L889.8,208.3 L890.0,305.5 L890.2,296.4 L890.4,315.7 L890.6,290.8 L890.8,275.0 L891.0,180.0 L891.2,251.2 L891.4,323.6 L891.6,278.3 L891.8,281.7 L892.0,174.3 L892.2,228.6 L892.4,234.3 L892.6,241.0 L892.8,224.1 L893.0,285.1 L893.2,303.2 L893.4,224.1 L893.6,279.5 L893.8,258.0 L894.0,273.8 L894.2,211.7 L894.4,278.3 L894.6,186.8 L894.8,264.8 L895.0,204.9 L895.2,241.0 L895.4,167.6 L895.6,323.6 L895.8,225.2 L896.0,282.9 L896.2,258.0 L896.4,208.3 L896.6,271.6 L896.8,234.3 L897.0,301.0 L897.2,320.2 L897.4,273.8 L897.6,328.1 L897.8,264.8 L898.0,197.0 L898.2,256.9 L898.4,291.9 L898.6,245.6 L898.8,282.9 L899.0,206.0 L899.2,238.8 L899.4,180.0 L899.6,168.7 L899.8,206.0 L900.0,271.6 L900.2,291.9 L900.4,174.3 L900.6,202.6 L900.8,174.3 L901.0,235.4 L901.2,176.6 L901.4,297.6 L901.6,324.7 L901.8,218.4 L902.0,304.3 L902.2,327.0 L902.4,252.3 L902.6,316.8 L902.8,288.5 L903.0,225.2 L903.2,285.1 L903.4,278.3 L903.6,245.6 L903.8,252.3 L904.0,307.7 L904.2,261.4 L904.4,291.9 L904.7,327.0 L904.9,251.2 L905.1,281.7 L905.3,306.6 L905.5,237.7 L905.7,235.4 L905.9,287.4 L906.1,224.1 L906.3,208.3 L906.5,293.0 L906.7,178.9 L906.9,262.5 L907.1,255.7 L907.3,166.4 L907.5,289.7 L907.7,169.8 L907.9,260.3 L908.1,235.4 L908.3,215.0 L908.5,289.7 L908.7,207.1 L908.9,294.2 L909.1,227.5 L909.3,258.0 L909.5,299.8 L909.7,279.5 L909.9,282.9 L910.1,237.7 L910.3,247.8 L910.5,253.5 L910.7,229.7 L910.9,247.8 L911.1,239.9 L911.3,178.9 L911.5,190.2 L911.7,311.1 L911.9,275.0 L912.1,312.3 L912.3,165.3 L912.5,312.3 L912.7,313.4 L912.9,269.3 L913.1,299.8 L913.3,246.7 L913.5,258.0 L913.7,149.5 L913.9,302.1 L914.1,291.9 L914.3,191.3 L914.5,234.3 L914.7,277.2 L914.9,210.5 L915.1,198.1 L915.3,281.7 L915.5,242.2 L915.7,241.0 L915.9,249.0 L916.1,158.5 L916.3,272.7 L916.5,261.4 L916.7,259.1 L916.9,241.0 L917.1,317.9 L917.3,310.0 L917.5,279.5 L917.7,184.5 L917.9,230.9 L918.1,278.3 L918.3,216.2 L918.5,267.0 L918.7,215.0 L918.9,320.2 L919.1,192.4 L919.3,304.3 L919.5,289.7 L919.7,275.0 L919.9,215.0 L920.1,320.2 L920.4,176.6 L920.6,273.8 L920.8,317.9 L921.0,256.9 L921.2,244.4 L921.4,271.6 L921.6,277.2 L921.8,286.3 L922.0,329.2 L922.2,156.3 L922.4,226.3 L922.6,311.1 L922.8,324.7 L923.0,173.2 L923.2,301.0 L923.4,244.4 L923.6,238.8 L923.8,213.9 L924.0,230.9 L924.2,213.9 L924.4,325.8 L924.6,230.9 L924.8,307.7 L925.0,230.9 L925.2,323.6 L925.4,279.5 L925.6,263.7 L925.8,293.0 L926.0,232.0 L926.2,221.8 L926.4,242.2 L926.6,267.0 L926.8,203.7 L927.0,186.8 L927.2,290.8 L927.4,203.7 L927.6,238.8 L927.8,242.2 L928.0,234.3 L928.2,279.5 L928.4,249.0 L928.6,228.6 L928.8,216.2 L929.0,210.5 L929.2,260.3 L929.4,181.1 L929.6,271.6 L929.8,315.7 L930.0,238.8 L930.2,271.6 L930.4,194.7 L930.6,265.9 L930.8,291.9 L931.0,258.0 L931.2,237.7 L931.4,313.4 L931.6,328.1 L931.8,313.4 L932.0,305.5 L932.2,280.6 L932.4,299.8 L932.6,272.7 L932.8,164.2 L933.0,201.5 L933.2,233.1 L933.4,168.7 L933.6,218.4 L933.8,149.5 L934.0,182.3 L934.2,234.3 L934.4,224.1 L934.6,195.8 L934.8,193.6 L935.0,316.8 L935.2,181.1 L935.4,279.5 L935.6,246.7 L935.9,286.3 L936.1,220.7 L936.3,239.9 L936.5,190.2 L936.7,317.9 L936.9,195.8 L937.1,299.8 L937.3,194.7 L937.5,216.2 L937.7,277.2 L937.9,206.0 L938.1,228.6 L938.3,275.0 L938.5,319.0 L938.7,322.4 L938.9,303.2 L939.1,325.8 L939.3,255.7 L939.5,290.8 L939.7,324.7 L939.9,207.1 L940.1,314.5 L940.3,272.7 L940.5,272.7 L940.7,253.5 L940.9,313.4 L941.1,290.8 L941.3,323.6 L941.5,311.1 L941.7,304.3 L941.9,246.7 L942.1,249.0 L942.3,259.1 L942.5,191.3 L942.7,313.4 L942.9,187.9 L943.1,314.5 L943.3,282.9 L943.5,291.9 L943.7,317.9 L943.9,202.6 L944.1,276.1 L944.3,325.8 L944.5,296.4 L944.7,177.7 L944.9,258.0 L945.1,194.7 L945.3,246.7 L945.5,268.2 L945.7,310.0 L945.9,236.5 L946.1,203.7 L946.3,233.1 L946.5,187.9 L946.7,310.0 L946.9,128.0 L947.1,185.7 L947.3,226.3 L947.5,173.2 L947.7,236.5 L947.9,314.5 L948.1,239.9 L948.3,218.4 L948.5,190.2 L948.7,230.9 L948.9,323.6 L949.1,151.7 L949.3,175.5 L949.5,307.7 L949.7,186.8 L949.9,268.2 L950.1,278.3 L950.3,255.7 L950.5,246.7 L950.7,193.6 L950.9,209.4 L951.1,322.4 L951.3,166.4 L951.6,255.7 L951.8,221.8 L952.0,263.7 L952.2,320.2 L952.4,284.0 L952.6,284.0 L952.8,263.7 L953.0,278.3 L953.2,244.4 L953.4,308.9 L953.6,284.0 L953.8,319.0 L954.0,290.8 L954.2,302.1 L954.4,325.8 L954.6,325.8 L954.8,317.9 L955.0,290.8 L955.2,265.9 L955.4,253.5 L955.6,270.4 L955.8,265.9 L956.0,302.1 L956.2,320.2 L956.4,175.5 L956.6,246.7 L956.8,244.4 L957.0,321.3 L957.2,238.8 L957.4,289.7 L957.6,262.5 L957.8,234.3 L958.0,190.2 L958.2,270.4 L958.4,294.2 L958.6,203.7 L958.8,245.6 L959.0,244.4 L959.2,303.2 L959.4,203.7 L959.6,193.6 L959.8,267.0 L960.0,291.9 L960.2,218.4 L960.4,256.9 L960.6,251.2 L960.8,245.6 L961.0,268.2 L961.2,256.9 L961.4,307.7 L961.6,175.5 L961.8,204.9 L962.0,124.6 L962.2,305.5 L962.4,195.8 L962.6,172.1 L962.8,197.0 L963.0,201.5 L963.2,182.3 L963.4,189.0 L963.6,325.8 L963.8,173.2 L964.0,250.1 L964.2,186.8 L964.4,150.6 L964.6,197.0 L964.8,327.0 L965.0,241.0 L965.2,294.2 L965.4,155.1 L965.6,247.8 L965.8,322.4 L966.0,277.2 L966.2,298.7 L966.4,244.4 L966.6,212.8 L966.8,224.1 L967.1,224.1 L967.3,168.7 L967.5,278.3 L967.7,254.6 L967.9,226.3 L968.1,197.0 L968.3,230.9 L968.5,227.5 L968.7,250.1 L968.9,261.4 L969.1,171.0 L969.3,242.2 L969.5,200.3 L969.7,317.9 L969.9,229.7 L970.1,251.2 L970.3,228.6 L970.5,161.9 L970.7,207.1 L970.9,207.1 L971.1,329.2 L971.3,270.4 L971.5,255.7 L971.7,260.3 L971.9,298.7 L972.1,236.5 L972.3,201.5 L972.5,320.2 L972.7,260.3 L972.9,317.9 L973.1,268.2 L973.3,314.5 L973.5,243.3 L973.7,204.9 L973.9,288.5 L974.1,273.8 L974.3,197.0 L974.5,307.7 L974.7,272.7 L974.9,192.4 L975.1,269.3 L975.3,294.2 L975.5,249.0 L975.7,264.8 L975.9,242.2 L976.1,241.0 L976.3,301.0 L976.5,276.1 L976.7,301.0 L976.9,297.6 L977.1,267.0 L977.3,320.2 L977.5,269.3 L977.7,312.3 L977.9,310.0 L978.1,316.8 L978.3,327.0 L978.5,348.4 L978.7,329.2 L978.9,332.6 L979.1,315.7 L979.3,324.7 L979.5,263.7 L979.7,278.3 L979.9,262.5 L980.1,226.3 L980.3,267.0 L980.5,264.8 L980.7,225.2 L980.9,284.0 L981.1,282.9 L981.3,280.6 L981.5,320.2 L981.7,305.5 L981.9,264.8 L982.1,280.6 L982.3,229.7 L982.5,281.7 L982.8,253.5 L983.0,264.8 L983.2,310.0 L983.4,286.3 L983.6,267.0 L983.8,232.0 L984.0,310.0 L984.2,272.7 L984.4,314.5 L984.6,221.8 L984.8,277.2 L985.0,228.6 L985.2,251.2 L985.4,273.8 L985.6,284.0 L985.8,243.3 L986.0,287.4 L986.2,293.0 L986.4,263.7 L986.6,305.5 L986.8,302.1 L987.0,272.7 L987.2,271.6 L987.4,328.1 L987.6,252.3 L987.8,227.5 L988.0,316.8 L988.2,245.6 L988.4,209.4 L988.6,322.4 L988.8,285.1 L989.0,211.7 L989.2,327.0 L989.4,249.0 L989.6,281.7 L989.8,313.4 L990.0,270.4 L990.2,265.9 L990.4,224.1 L990.6,321.3 L990.8,234.3 L991.0,327.0 L991.2,204.9 L991.4,311.1 L991.6,278.3 L991.8,212.8 L992.0,228.6 L992.2,282.9 L992.4,261.4 L992.6,305.5 L992.8,313.4 L993.0,203.7 L993.2,308.9 L993.4,255.7 L993.6,325.8 L993.8,253.5 L994.0,301.0 L994.2,310.0 L994.4,316.8 L994.6,293.0 L994.8,187.9 L995.0,329.2 L995.2,282.9 L995.4,299.8 L995.6,237.7 L995.8,278.3 L996.0,256.9 L996.2,306.6 L996.4,307.7 L996.6,307.7 L996.8,252.3 L997.0,225.2 L997.2,209.4 L997.4,306.6 L997.6,215.0 L997.8,229.7 L998.0,212.8 L998.3,198.1 L998.5,267.0 L998.7,319.0 L998.9,298.7 L999.1,302.1 L999.3,207.1 L999.5,226.3 L999.7,217.3 L999.9,287.4 L1000.1,201.5 L1000.3,302.1 L1000.5,183.4 L1000.7,313.4 L1000.9,250.1 L1001.1,285.1 L1001.3,317.9 L1001.5,247.8 L1001.7,237.7 L1001.9,307.7 L1002.1,317.9 L1002.3,256.9 L1002.5,288.5 L1002.7,241.0 L1002.9,312.3 L1003.1,312.3 L1003.3,241.0 L1003.5,199.2 L1003.7,211.7 L1003.9,213.9 L1004.1,262.5 L1004.3,200.3 L1004.5,216.2 L1004.7,213.9 L1004.9,267.0 L1005.1,308.9 L1005.3,253.5 L1005.5,194.7 L1005.7,276.1 L1005.9,254.6 L1006.1,235.4 L1006.3,325.8 L1006.5,291.9 L1006.7,270.4 L1006.9,230.9 L1007.1,311.1 L1007.3,282.9 L1007.5,308.9 L1007.7,265.9 L1007.9,268.2 L1008.1,275.0 L1008.3,221.8 L1008.5,232.0 L1008.7,319.0 L1008.9,277.2 L1009.1,323.6 L1009.3,280.6 L1009.5,287.4 L1009.7,297.6 L1009.9,267.0 L1010.1,259.1 L1010.3,280.6 L1010.5,311.1 L1010.7,304.3 L1010.9,281.7 L1011.1,325.8 L1011.3,263.7 L1011.5,310.0 L1011.7,312.3 L1011.9,297.6 L1012.1,301.0 L1012.3,299.8 L1012.5,310.0 L1012.7,312.3 L1012.9,289.7 L1013.1,289.7 L1013.3,294.2 L1013.5,308.9 L1013.7,275.0 L1014.0,279.5 L1014.2,303.2 L1014.4,263.7 L1014.6,276.1 L1014.8,315.7 L1015.0,253.5 L1015.2,289.7 L1015.4,279.5 L1015.6,260.3 L1015.8,290.8 L1016.0,249.0 L1016.2,273.8 L1016.4,310.0 L1016.6,314.5 L1016.8,186.8 L1017.0,250.1 L1017.2,207.1 L1017.4,239.9 L1017.6,294.2 L1017.8,288.5 L1018.0,258.0 L1018.2,271.6 L1018.4,269.3 L1018.6,261.4 L1018.8,282.9 L1019.0,323.6 L1019.2,302.1 L1019.4,270.4 L1019.6,249.0 L1019.8,228.6 L1020.0,264.8 L1020.2,263.7 L1020.4,293.0 L1020.6,229.7 L1020.8,230.9 L1021.0,302.1 L1021.2,279.5 L1021.4,267.0 L1021.6,310.0 L1021.8,282.9 L1022.0,232.0 L1022.2,296.4 L1022.4,295.3 L1022.6,232.0 L1022.8,317.9 L1023.0,307.7 L1023.2,260.3 L1023.4,262.5 L1023.6,287.4 L1023.8,269.3 L1024.0,311.1 L1024.2,305.5 L1024.4,297.6 L1024.6,320.2 L1024.8,313.4 L1025.0,279.5 L1025.2,272.7 L1025.4,281.7 L1025.6,276.1 L1025.8,211.7 L1026.0,260.3 L1026.2,310.0 L1026.4,295.3 L1026.6,220.7 L1026.8,321.3 L1027.0,227.5 L1027.2,258.0 L1027.4,163.0 L1027.6,262.5 L1027.8,244.4 L1028.0,307.7 L1028.2,327.0 L1028.4,235.4 L1028.6,200.3 L1028.8,242.2 L1029.0,311.1 L1029.2,265.9 L1029.5,306.6 L1029.7,197.0 L1029.9,323.6 L1030.1,291.9 L1030.3,226.3 L1030.5,315.7 L1030.7,315.7 L1030.9,239.9 L1031.1,272.7 L1031.3,270.4 L1031.5,272.7 L1031.7,280.6 L1031.9,284.0 L1032.1,306.6 L1032.3,316.8 L1032.5,343.9 L1032.7,319.0 L1032.9,290.8 L1033.1,271.6 L1033.3,299.8 L1033.5,307.7 L1033.7,275.0 L1033.9,295.3 L1034.1,328.1 L1034.3,211.7 L1034.5,320.2 L1034.7,267.0 L1034.9,302.1 L1035.1,253.5 L1035.3,250.1 L1035.5,303.2 L1035.7,212.8 L1035.9,306.6 L1036.1,317.9 L1036.3,304.3 L1036.5,259.1 L1036.7,295.3 L1036.9,294.2 L1037.1,280.6 L1037.3,226.3 L1037.5,297.6 L1037.7,243.3 L1037.9,313.4 L1038.1,239.9 L1038.3,299.8 L1038.5,254.6 L1038.7,217.3 L1038.9,199.2 L1039.1,284.0 L1039.3,317.9 L1039.5,247.8 L1039.7,299.8 L1039.9,316.8 L1040.1,317.9 L1040.3,269.3 L1040.5,293.0 L1040.7,328.1 L1040.9,237.7 L1041.1,294.2 L1041.3,268.2 L1041.5,278.3 L1041.7,249.0 L1041.9,233.1 L1042.1,302.1 L1042.3,298.7 L1042.5,271.6 L1042.7,243.3 L1042.9,269.3 L1043.1,271.6 L1043.3,253.5 L1043.5,290.8 L1043.7,271.6 L1043.9,236.5 L1044.1,279.5 L1044.3,256.9 L1044.5,314.5 L1044.7,294.2 L1044.9,250.1 L1045.2,267.0 L1045.4,327.0 L1045.6,270.4 L1045.8,265.9 L1046.0,247.8 L1046.2,298.7 L1046.4,296.4 L1046.6,294.2 L1046.8,320.2 L1047.0,290.8 L1047.2,299.8 L1047.4,224.1 L1047.6,234.3 L1047.8,263.7 L1048.0,293.0 L1048.2,204.9 L1048.4,187.9 L1048.6,288.5 L1048.8,183.4 L1049.0,228.6 L1049.2,295.3 L1049.4,270.4 L1049.6,202.6 L1049.8,213.9 L1050.0,301.0 L1050.2,267.0 L1050.4,285.1 L1050.6,243.3 L1050.8,235.4 L1051.0,252.3 L1051.2,260.3 L1051.4,261.4 L1051.6,211.7 L1051.8,303.2 L1052.0,286.3 L1052.2,301.0 L1052.4,253.5 L1052.6,291.9 L1052.8,323.6 L1053.0,321.3 L1053.2,306.6 L1053.4,305.5 L1053.6,328.1 L1053.8,324.7 L1054.0,336.0 L1054.2,294.2 L1054.4,315.7 L1054.6,308.9 L1054.8,299.8 L1055.0,312.3 L1055.2,296.4 L1055.4,304.3 L1055.6,324.7 L1055.8,320.2 L1056.0,302.1 L1056.2,311.1 L1056.4,349.6 L1056.6,353.0 L1056.8,310.0 L1057.0,308.9 L1057.2,311.1 L1057.4,312.3 L1057.6,324.7 L1057.8,304.3 L1058.0,299.8 L1058.2,289.7 L1058.4,286.3 L1058.6,306.6 L1058.8,303.2 L1059.0,285.1 L1059.2,298.7 L1059.4,334.9 L1059.6,319.0 L1059.8,307.7 L1060.0,310.0 L1060.2,313.4 L1060.4,337.1 L1060.7,329.2 L1060.9,308.9 L1061.1,319.0 L1061.3,372.2 L1061.5,405.0 L1061.7,330.3 L1061.9,320.2 L1062.1,350.7 L1062.3,321.3 L1062.5,323.6 L1062.7,313.4 L1062.9,308.9 L1063.1,286.3 L1063.3,325.8 L1063.5,301.0 L1063.7,296.4 L1063.9,218.4 L1064.1,286.3 L1064.3,243.3 L1064.5,313.4 L1064.7,307.7 L1064.9,295.3 L1065.1,237.7 L1065.3,252.3 L1065.5,245.6 L1065.7,278.3 L1065.9,259.1 L1066.1,302.1 L1066.3,297.6 L1066.5,306.6 L1066.7,217.3 L1066.9,287.4 L1067.1,227.5 L1067.3,270.4 L1067.5,276.1 L1067.7,305.5 L1067.9,301.0 L1068.1,287.4 L1068.3,275.0 L1068.5,317.9 L1068.7,310.0 L1068.9,299.8 L1069.1,315.7 L1069.3,325.8 L1069.5,317.9 L1069.7,316.8 L1069.9,308.9 L1070.1,315.7 L1070.3,264.8 L1070.5,290.8 L1070.7,307.7 L1070.9,295.3 L1071.1,291.9 L1071.3,276.1 L1071.5,260.3 L1071.7,263.7 L1071.9,284.0 L1072.1,253.5 L1072.3,285.1 L1072.5,280.6 L1072.7,252.3 L1072.9,234.3 L1073.1,308.9 L1073.3,251.2 L1073.5,194.7 L1073.7,237.7 L1073.9,287.4 L1074.1,312.3 L1074.3,297.6 L1074.5,243.3 L1074.7,294.2 L1074.9,288.5 L1075.1,288.5 L1075.3,319.0 L1075.5,262.5 L1075.7,261.4 L1075.9,249.0 L1076.1,276.1 L1076.4,288.5 L1076.6,277.2 L1076.8,301.0 L1077.0,267.0 L1077.2,278.3 L1077.4,297.6 L1077.6,273.8 L1077.8,291.9 L1078.0,315.7 L1078.2,303.2 L1078.4,310.0 L1078.6,313.4 L1078.8,330.3 L1079.0,319.0 L1079.2,317.9 L1079.4,322.4 L1079.6,351.8 L1079.8,333.7 L1080.0,346.2 L1080.2,310.0 L1080.4,363.1 L1080.6,348.4 L1080.8,315.7 L1081.0,330.3 L1081.2,322.4 L1081.4,337.1 L1081.6,307.7 L1081.8,325.8 L1082.0,320.2 L1082.2,258.0 L1082.4,238.8 L1082.6,244.4 L1082.8,299.8 L1083.0,319.0 L1083.2,302.1 L1083.4,325.8 L1083.6,282.9 L1083.8,312.3 L1084.0,238.8" fill="none" stroke="#ff7f0e" stroke-width="1.1" opacity="0.85"/><text x="616" y="572" font-size="11" fill="#888">time 0..46 s — altitude (blue) &amp; roll (orange)</text></svg>