<svg xmlns="http://www.w3.org/2000/svg" width="1140" height="600" font-family="sans-serif" font-size="13"><rect width="1140" height="600" fill="white"/><text x="20" y="26" font-size="15" fill="#333">Coludo flight</text><rect x="20" y="40" width="540" height="540" fill="#fbfbfb" stroke="#ddd"/><rect x="50" y="300" width="318" height="68" fill="#cde" stroke="#369" opacity="0.7"/><text x="50" y="295" fill="#369" font-size="12">landing zone</text><circle cx="251" cy="407" r="5" fill="black"/><text x="259" y="411" font-size="12">pad</text><path d="M250.8,406.5 L250.8,406.5 L250.8,406.5 L250.8,406.5 L250.8,406.5 L250.8,406.5 L250.8,406.5 L250.8,406.5 L250.8,406.5 L250.8,406.5 L250.8,406.5 L250.8,406.5 L250.8,406.5 L250.8,406.5 L250.8,406.5 L250.8,406.5 L250.8,406.5 L250.8,406.5 L250.8,406.5 L250.8,406.5 L250.8,406.5 L250.8,406.5 L250.8,406.5 L250.8,406.5 L250.8,406.5 L250.8,406.5 L250.8,406.5 L250.8,406.5 L250.8,406.5 L250.8,406.5 L250.8,406.5 L250.8,406.5 L250.8,406.5 L250.8,406.5 L250.8,406.5 L250.8,406.5 L250.8,406.5 L250.8,406.5 L250.8,406.5 L250.8,406.5 L250.8,406.5 L250.8,406.5 L250.8,406.5 L250.8,406.5 L250.8,406.5 L250.8,406.5 L250.8,406.5 L250.8,406.5 L250.8,406.5 L250.8,406.5 L250.8,406.5 L250.8,406.5 L250.8,406.5 L250.8,406.5 L250.8,406.5 L250.8,406.5 L250.8,406.5 L250.8,406.5 L252.0,404.4 L253.6,402.0 L254.9,399.5 L256.5,397.3 L258.2,394.8 L259.9,392.5 L261.6,390.3 L263.3,388.0 L265.2,385.7 L267.0,383.6 L268.9,381.6 L271.0,379.5 L273.0,377.6 L275.1,375.5 L277.1,373.6 L279.3,371.7 L281.6,370.0 L283.8,368.1 L286.0,366.4 L288.2,364.7 L290.4,362.8 L292.6,361.1 L294.9,359.3 L296.9,357.2 L299.0,355.3 L301.0,353.2 L302.9,351.1 L304.9,349.0 L306.6,347.0 L308.5,344.7 L310.2,342.4 L311.8,340.0 L313.5,337.7 L315.0,335.2 L316.4,332.8 L317.7,330.3 L319.1,327.7 L320.3,325.2 L321.5,322.6 L322.5,319.9 L323.5,317.3 L324.4,314.6 L325.2,311.8 L326.1,309.1 L326.8,306.3 L327.5,303.5 L328.0,300.6 L328.3,298.0 L328.8,295.2 L329.2,292.3 L329.7,289.5 L330.2,286.6 L330.9,283.8 L331.4,281.0 L332.1,278.3 L332.9,275.5 L333.8,272.8 L334.6,270.2 L335.6,267.4 L336.7,264.7 L337.9,262.3 L339.1,259.6 L340.4,257.0 L341.8,254.5 L343.2,252.0 L344.7,249.6 L346.2,247.3 L347.8,244.9 L349.5,242.6 L351.3,240.3 L353.1,238.2 L354.9,236.0 L357.0,233.9 L359.0,232.0 L361.1,229.9 L363.1,228.0 L365.3,226.1 L367.6,224.4 L369.8,222.7 L372.2,221.0 L374.6,219.5 L376.9,218.0 L379.5,216.5 L381.9,215.2 L384.4,213.9 L387.0,212.7 L389.7,211.4 L392.3,210.5 L395.0,209.3 L397.6,208.4 L400.3,207.6 L403.0,206.9 L405.9,206.1 L408.7,205.5 L411.4,205.0 L414.3,204.6 L417.2,204.2 L419.9,203.8 L422.8,203.6 L425.7,203.6 L428.5,203.5 L431.4,203.6 L434.3,203.6 L437.0,203.8 L439.9,204.2 L442.8,204.6 L445.5,205.0 L448.4,205.5 L451.2,206.1 L453.9,206.9 L456.6,207.6 L459.4,208.4 L462.1,209.3 L464.8,210.3 L467.4,211.4 L470.1,212.5 L472.7,213.7 L475.2,215.0 L477.6,216.3 L480.2,217.8 L482.6,219.3 L485.0,220.9 L487.3,222.6 L489.6,224.3 L491.8,226.0 L494.0,227.8 L496.2,229.5 L498.3,231.6 L500.3,233.5 L502.4,235.6 L504.2,237.7 L506.1,239.9 L507.8,242.2 L509.5,244.5 L511.2,246.8 L512.9,249.0 L514.5,251.5 L515.8,253.9 L517.2,256.4 L518.6,258.9 L519.9,261.5 L521.1,264.1 L522.2,266.8 L523.2,269.4 L524.2,272.1 L525.1,274.7 L525.9,277.6 L526.6,280.2 L527.3,283.1 L528.0,285.9 L528.5,288.5 L529.0,291.4 L529.3,294.2 L529.5,297.0 L529.8,299.9 L529.8,302.7 L530.0,305.6 L530.0,308.6 L529.8,311.4 L529.7,314.3 L529.3,317.1 L529.1,319.9 L528.6,322.8 L528.3,325.6 L527.6,328.2 L527.1,331.1 L526.4,333.9 L525.6,336.6 L524.7,339.4 L523.9,342.0 L522.8,344.7 L521.8,347.3 L520.6,350.0 L519.4,352.6 L518.2,355.1 L516.9,357.7 L515.5,360.2 L514.1,362.7 L512.6,365.1 L510.9,367.4 L509.4,369.8 L507.6,372.1 L505.9,374.4 L504.1,376.5 L502.2,378.7 L500.3,380.8 L498.3,382.9 L496.2,384.8 L494.2,386.9 L492.1,388.7 L489.9,390.6 L487.7,392.3 L485.5,394.0 L483.1,395.7 L480.9,397.4 L478.5,399.0 L475.9,400.5 L473.5,402.0 L471.0,403.3 L468.6,404.6 L465.8,406.0 L463.3,407.1 L460.7,408.2 L458.0,409.2 L455.4,410.1 L452.7,411.1 L450.0,412.0 L447.2,412.8 L444.5,413.5 L441.6,414.1 L438.9,414.7 L436.0,415.2 L433.2,415.6 L430.3,416.0 L427.6,416.2 L424.7,416.4 L422.3,416.5 L419.9,416.5 L417.6,416.5 L415.2,416.5 L412.8,416.4 L410.4,416.4 L408.0,416.2 L405.8,415.8 L403.4,415.6 L401.0,415.2 L398.6,414.8 L396.2,414.5 L394.0,413.9 L391.6,413.5 L389.4,413.0 L387.0,412.2 L384.8,411.6 L382.6,410.9 L380.2,410.1 L378.0,409.4 L375.7,408.4 L373.5,407.7 L371.5,406.7 L369.3,405.6 L367.0,404.6 L365.0,403.5 L362.9,402.4 L360.7,401.2 L358.7,400.1 L356.8,398.8 L354.8,397.4 L352.7,396.1 L350.8,394.8 L349.0,393.3 L347.1,391.8 L345.2,390.3 L343.3,388.7 L341.6,387.2 L339.7,385.7 L338.0,384.2 L336.3,382.5" fill="none" stroke="#1f77b4" stroke-width="1.7" opacity="0.85"/><circle cx="336" cy="383" r="4.5" fill="#1f77b4"/><text x="28" y="572" font-size="11" fill="#888">ground track — m from pad (N up)</text><rect x="580" y="40" width="540" height="540" fill="#fbfbfb" stroke="#ddd"/><text x="586" y="54" fill="#1f77b4" font-size="11">alt 301</text><text x="586" y="558" fill="#1f77b4" font-size="11">2</text><path d="M616.0,543.3 L616.3,543.3 L616.5,543.7 L616.8,543.7 L617.0,544.0 L617.3,543.6 L617.6,543.1 L617.8,543.7 L618.1,543.0 L618.3,542.7 L618.6,542.4 L618.8,543.0 L619.1,542.7 L619.4,542.4 L619.6,542.0 L619.9,542.3 L620.1,542.3 L620.4,541.1 L620.7,540.8 L620.9,541.6 L621.2,541.3 L621.4,540.5 L621.7,539.8 L622.0,539.1 L622.2,540.3 L622.5,538.3 L622.7,538.4 L623.0,538.2 L623.3,536.9 L623.5,537.6 L623.8,536.3 L624.0,537.3 L624.3,535.8 L624.5,536.8 L624.8,535.6 L625.1,535.8 L625.3,533.3 L625.6,534.4 L625.8,532.2 L626.1,532.7 L626.4,533.4 L626.6,530.3 L626.9,529.6 L627.1,529.6 L627.4,527.7 L627.7,530.3 L627.9,527.6 L628.2,525.7 L628.4,524.7 L628.7,524.3 L628.9,525.3 L629.2,522.2 L629.5,523.3 L629.7,521.1 L630.0,523.3 L630.2,521.9 L630.5,518.1 L630.8,516.6 L631.0,521.1 L631.3,518.1 L631.5,514.4 L631.8,517.7 L632.1,516.2 L632.3,512.4 L632.6,515.7 L632.8,511.0 L633.1,510.1 L633.4,511.9 L633.6,510.6 L633.9,510.3 L634.1,507.3 L634.4,502.3 L634.6,505.3 L634.9,505.4 L635.2,503.2 L635.4,504.7 L635.7,505.4 L635.9,503.5 L636.2,501.1 L636.5,498.4 L636.7,497.0 L637.0,498.0 L637.2,499.2 L637.5,490.3 L637.8,497.1 L638.0,486.5 L638.3,494.8 L638.5,484.8 L638.8,486.7 L639.1,486.4 L639.3,484.0 L639.6,477.9 L639.8,481.1 L640.1,482.7 L640.3,474.1 L640.6,473.6 L640.9,478.3 L641.1,480.1 L641.4,473.1 L641.6,474.5 L641.9,466.7 L642.2,468.3 L642.4,462.7 L642.7,458.9 L642.9,468.7 L643.2,456.0 L643.5,455.9 L643.7,459.2 L644.0,463.8 L644.2,463.5 L644.5,460.0 L644.7,453.2 L645.0,450.5 L645.3,458.9 L645.5,449.7 L645.8,439.3 L646.0,452.0 L646.3,454.1 L646.6,432.7 L646.8,451.4 L647.1,430.1 L647.3,442.3 L647.6,432.2 L647.9,427.5 L648.1,426.3 L648.4,430.3 L648.6,438.6 L648.9,419.3 L649.2,416.2 L649.4,431.3 L649.7,434.9 L649.9,412.2 L650.2,420.9 L650.4,407.6 L650.7,423.9 L651.0,417.3 L651.2,407.2 L651.5,420.2 L651.7,421.5 L652.0,402.8 L652.3,406.4 L652.5,409.5 L652.8,408.3 L653.0,383.3 L653.3,397.4 L653.6,407.3 L653.8,390.6 L654.1,398.9 L654.3,394.9 L654.6,389.6 L654.8,374.4 L655.1,370.8 L655.4,379.9 L655.6,384.6 L655.9,364.1 L656.1,362.9 L656.4,369.0 L656.7,386.1 L656.9,374.6 L657.2,363.0 L657.4,352.3 L657.7,379.1 L658.0,353.9 L658.2,361.7 L658.5,336.1 L658.7,343.4 L659.0,360.3 L659.3,353.7 L659.5,351.8 L659.8,353.4 L660.0,343.1 L660.3,355.8 L660.5,323.9 L660.8,345.3 L661.1,343.7 L661.3,326.0 L661.6,322.6 L661.8,317.6 L662.1,338.1 L662.4,317.5 L662.6,303.5 L662.9,294.0 L663.1,328.8 L663.4,334.6 L663.7,331.0 L663.9,320.4 L664.2,293.5 L664.4,295.2 L664.7,295.9 L664.9,312.4 L665.2,281.1 L665.5,317.3 L665.7,269.3 L666.0,280.4 L666.2,286.6 L666.5,296.6 L666.8,267.8 L667.0,290.9 L667.3,265.1 L667.5,290.3 L667.8,286.7 L668.1,276.1 L668.3,266.1 L668.6,274.3 L668.8,264.5 L669.1,281.4 L669.4,272.0 L669.6,287.2 L669.9,288.8 L670.1,246.0 L670.4,278.1 L670.6,242.6 L670.9,231.9 L671.2,245.4 L671.4,251.0 L671.7,273.4 L671.9,233.1 L672.2,243.5 L672.5,249.8 L672.7,230.3 L673.0,252.5 L673.2,254.4 L673.5,226.6 L673.8,218.2 L674.0,203.4 L674.3,218.6 L674.5,234.6 L674.8,209.0 L675.1,240.8 L675.3,223.5 L675.6,227.8 L675.8,194.9 L676.1,214.6 L676.3,207.3 L676.6,214.7 L676.9,185.5 L677.1,194.8 L677.4,218.6 L677.6,230.8 L677.9,236.2 L678.2,172.5 L678.4,195.1 L678.7,183.8 L678.9,190.9 L679.2,182.6 L679.5,190.9 L679.7,223.7 L680.0,210.4 L680.2,223.3 L680.5,211.9 L680.7,199.4 L681.0,175.0 L681.3,177.5 L681.5,219.2 L681.8,205.5 L682.0,150.9 L682.3,188.5 L682.6,208.8 L682.8,151.7 L683.1,202.2 L683.3,187.0 L683.6,175.7 L683.9,186.4 L684.1,166.8 L684.4,171.1 L684.6,137.8 L684.9,133.2 L685.2,188.2 L685.4,145.4 L685.7,130.5 L685.9,184.4 L686.2,172.0 L686.4,187.0 L686.7,120.8 L687.0,159.4 L687.2,179.8 L687.5,163.7 L687.7,130.7 L688.0,126.2 L688.3,127.6 L688.5,181.8 L688.8,186.3 L689.0,170.2 L689.3,170.4 L689.6,172.5 L689.8,135.2 L690.1,159.6 L690.3,107.1 L690.6,175.9 L690.8,133.6 L691.1,133.5 L691.4,99.9 L691.6,148.3 L691.9,169.8 L692.1,140.2 L692.4,155.6 L692.7,137.2 L692.9,85.8 L693.2,135.5 L693.4,164.0 L693.7,107.9 L694.0,124.5 L694.2,116.0 L694.5,95.5 L694.7,81.9 L695.0,113.3 L695.3,144.0 L695.5,159.0 L695.8,84.0 L696.0,136.4 L696.3,90.6 L696.5,141.1 L696.8,129.0 L697.1,135.5 L697.3,139.2 L697.6,127.4 L697.8,118.7 L698.1,118.8 L698.4,134.7 L698.6,149.2 L698.9,76.0 L699.1,142.1 L699.4,125.1 L699.7,136.5 L699.9,122.0 L700.2,127.1 L700.4,148.2 L700.7,136.7 L700.9,112.0 L701.2,142.3 L701.5,150.4 L701.7,113.5 L702.0,107.0 L702.2,107.8 L702.5,125.9 L702.8,147.6 L703.0,107.6 L703.3,82.4 L703.5,86.5 L703.8,155.2 L704.1,142.8 L704.3,99.9 L704.6,108.4 L704.8,109.0 L705.1,129.1 L705.4,115.6 L705.6,112.2 L705.9,107.1 L706.1,142.3 L706.4,117.5 L706.6,90.6 L706.9,123.3 L707.2,122.7 L707.4,136.2 L707.7,129.2 L707.9,122.0 L708.2,111.9 L708.5,114.0 L708.7,157.1 L709.0,157.1 L709.2,138.1 L709.5,96.2 L709.8,111.3 L710.0,79.2 L710.3,132.2 L710.5,155.4 L710.8,106.3 L711.1,82.4 L711.3,126.6 L711.6,96.0 L711.8,134.3 L712.1,139.2 L712.3,151.0 L712.6,163.9 L712.9,139.3 L713.1,114.6 L713.4,136.9 L713.6,122.9 L713.9,116.0 L714.2,83.9 L714.4,141.2 L714.7,96.0 L714.9,152.6 L715.2,108.7 L715.5,108.8 L715.7,108.4 L716.0,130.7 L716.2,107.5 L716.5,143.2 L716.7,110.3 L717.0,110.5 L717.3,93.2 L717.5,109.6 L717.8,99.3 L718.0,88.7 L718.3,97.1 L718.6,121.1 L718.8,146.0 L719.1,129.4 L719.3,150.4 L719.6,104.1 L719.9,88.0 L720.1,105.6 L720.4,84.2 L720.6,130.9 L720.9,128.3 L721.2,109.1 L721.4,129.2 L721.7,123.8 L721.9,118.8 L722.2,87.4 L722.4,89.0 L722.7,89.7 L723.0,162.9 L723.2,131.4 L723.5,148.4 L723.7,99.4 L724.0,141.4 L724.3,94.8 L724.5,86.4 L724.8,151.2 L725.0,97.7 L725.3,116.1 L725.6,134.4 L725.8,87.1 L726.1,153.1 L726.3,106.5 L726.6,102.7 L726.8,136.4 L727.1,114.1 L727.4,125.7 L727.6,133.3 L727.9,136.4 L728.1,165.0 L728.4,118.8 L728.7,121.5 L728.9,147.3 L729.2,105.4 L729.4,114.1 L729.7,118.3 L730.0,107.4 L730.2,166.3 L730.5,133.6 L730.7,137.0 L731.0,144.1 L731.3,123.2 L731.5,94.6 L731.8,145.0 L732.0,157.7 L732.3,86.7 L732.5,89.4 L732.8,162.4 L733.1,142.4 L733.3,165.5 L733.6,87.1 L733.8,113.3 L734.1,170.5 L734.4,123.0 L734.6,97.4 L734.9,111.5 L735.1,134.8 L735.4,93.6 L735.7,127.0 L735.9,127.7 L736.2,116.7 L736.4,147.5 L736.7,113.2 L736.9,96.8 L737.2,97.2 L737.5,153.3 L737.7,109.6 L738.0,157.9 L738.2,170.5 L738.5,101.6 L738.8,141.4 L739.0,136.6 L739.3,137.2 L739.5,122.1 L739.8,148.7 L740.1,169.9 L740.3,128.5 L740.6,103.2 L740.8,105.5 L741.1,142.8 L741.4,125.9 L741.6,144.1 L741.9,151.3 L742.1,137.0 L742.4,143.6 L742.6,95.2 L742.9,114.8 L743.2,157.3 L743.4,131.3 L743.7,135.2 L743.9,140.0 L744.2,143.5 L744.5,135.1 L744.7,143.5 L745.0,127.0 L745.2,111.8 L745.5,125.0 L745.8,120.1 L746.0,119.5 L746.3,151.4 L746.5,103.3 L746.8,146.5 L747.1,129.8 L747.3,173.8 L747.6,139.6 L747.8,141.1 L748.1,118.8 L748.3,151.6 L748.6,121.6 L748.9,140.0 L749.1,121.1 L749.4,127.6 L749.6,164.6 L749.9,123.5 L750.2,141.8 L750.4,121.1 L750.7,145.7 L750.9,123.6 L751.2,118.7 L751.5,144.6 L751.7,115.6 L752.0,147.3 L752.2,175.8 L752.5,110.9 L752.7,167.2 L753.0,152.0 L753.3,111.1 L753.5,127.5 L753.8,118.0 L754.0,177.2 L754.3,107.9 L754.6,176.2 L754.8,146.8 L755.1,150.5 L755.3,127.1 L755.6,129.3 L755.9,108.5 L756.1,127.6 L756.4,126.5 L756.6,117.5 L756.9,169.2 L757.2,119.8 L757.4,155.7 L757.7,141.3 L757.9,177.7 L758.2,133.2 L758.4,153.3 L758.7,112.5 L759.0,102.2 L759.2,160.4 L759.5,154.0 L759.7,137.2 L760.0,163.9 L760.3,126.3 L760.5,174.5 L760.8,130.0 L761.0,177.9 L761.3,143.9 L761.6,140.7 L761.8,180.2 L762.1,136.6 L762.3,125.8 L762.6,172.1 L762.8,120.8 L763.1,159.2 L763.4,167.1 L763.6,124.8 L763.9,150.1 L764.1,156.6 L764.4,121.8 L764.7,182.6 L764.9,169.7 L765.2,158.7 L765.4,109.2 L765.7,132.8 L766.0,161.5 L766.2,142.1 L766.5,178.8 L766.7,187.1 L767.0,169.2 L767.3,174.2 L767.5,109.1 L767.8,151.4 L768.0,114.5 L768.3,153.2 L768.5,121.6 L768.8,122.2 L769.1,136.4 L769.3,178.8 L769.6,173.8 L769.8,182.5 L770.1,158.0 L770.4,155.5 L770.6,182.5 L770.9,132.4 L771.1,179.0 L771.4,129.3 L771.7,128.0 L771.9,166.3 L772.2,147.0 L772.4,129.9 L772.7,180.9 L772.9,123.6 L773.2,145.8 L773.5,147.5 L773.7,139.3 L774.0,177.5 L774.2,135.4 L774.5,181.5 L774.8,141.9 L775.0,155.8 L775.3,155.0 L775.5,144.5 L775.8,151.3 L776.1,162.4 L776.3,146.7 L776.6,185.6 L776.8,143.3 L777.1,134.4 L777.4,169.5 L777.6,128.5 L777.9,153.4 L778.1,144.0 L778.4,184.1 L778.6,140.2 L778.9,119.0 L779.2,190.1 L779.4,169.5 L779.7,120.1 L779.9,162.4 L780.2,191.5 L780.5,160.7 L780.7,169.2 L781.0,159.6 L781.2,140.5 L781.5,135.8 L781.8,133.5 L782.0,140.6 L782.3,148.3 L782.5,167.5 L782.8,128.1 L783.1,177.0 L783.3,171.2 L783.6,191.7 L783.8,130.8 L784.1,191.0 L784.3,193.1 L784.6,191.6 L784.9,131.8 L785.1,167.8 L785.4,150.9 L785.6,139.3 L785.9,154.6 L786.2,163.5 L786.4,198.0 L786.7,186.7 L786.9,194.1 L787.2,179.6 L787.5,174.0 L787.7,186.7 L788.0,180.3 L788.2,141.1 L788.5,183.3 L788.7,185.3 L789.0,132.6 L789.3,140.7 L789.5,146.9 L789.8,153.5 L790.0,178.1 L790.3,184.0 L790.6,200.2 L790.8,184.7 L791.1,129.0 L791.3,160.8 L791.6,152.6 L791.9,199.3 L792.1,152.1 L792.4,144.4 L792.6,135.3 L792.9,143.3 L793.2,193.5 L793.4,186.6 L793.7,169.5 L793.9,179.9 L794.2,201.1 L794.4,137.1 L794.7,170.4 L795.0,181.2 L795.2,175.3 L795.5,196.4 L795.7,140.6 L796.0,208.2 L796.3,204.4 L796.5,179.2 L796.8,203.9 L797.0,182.2 L797.3,150.2 L797.6,145.4 L797.8,197.7 L798.1,151.3 L798.3,190.6 L798.6,141.5 L798.8,201.1 L799.1,189.5 L799.4,179.3 L799.6,139.0 L799.9,188.4 L800.1,206.4 L800.4,177.7 L800.7,155.3 L800.9,171.0 L801.2,170.6 L801.4,159.1 L801.7,200.7 L802.0,195.7 L802.2,150.7 L802.5,212.7 L802.7,196.9 L803.0,182.2 L803.3,170.8 L803.5,184.6 L803.8,154.1 L804.0,197.2 L804.3,145.8 L804.5,183.1 L804.8,181.4 L805.1,185.9 L805.3,179.6 L805.6,202.8 L805.8,206.1 L806.1,169.0 L806.4,178.3 L806.6,143.4 L806.9,148.2 L807.1,194.1 L807.4,204.0 L807.7,162.7 L807.9,171.7 L808.2,189.8 L808.4,192.3 L808.7,217.2 L808.9,216.2 L809.2,186.6 L809.5,158.8 L809.7,201.7 L810.0,182.3 L810.2,202.6 L810.5,150.2 L810.8,204.4 L811.0,179.0 L811.3,209.4 L811.5,168.8 L811.8,152.9 L812.1,160.3 L812.3,210.0 L812.6,157.3 L812.8,164.5 L813.1,200.6 L813.4,177.6 L813.6,159.8 L813.9,205.0 L814.1,218.8 L814.4,161.0 L814.6,156.2 L814.9,178.8 L815.2,175.8 L815.4,204.7 L815.7,171.0 L815.9,193.1 L816.2,196.3 L816.5,210.4 L816.7,182.2 L817.0,188.5 L817.2,216.7 L817.5,218.1 L817.8,168.9 L818.0,157.1 L818.3,169.5 L818.5,220.5 L818.8,208.9 L819.1,200.1 L819.3,158.9 L819.6,163.1 L819.8,197.3 L820.1,202.4 L820.3,226.3 L820.6,193.8 L820.9,220.4 L821.1,229.0 L821.4,195.4 L821.6,220.1 L821.9,161.4 L822.2,223.7 L822.4,207.0 L822.7,189.0 L822.9,170.5 L823.2,227.3 L823.5,179.2 L823.7,190.8 L824.0,165.8 L824.2,205.8 L824.5,163.8 L824.7,224.3 L825.0,184.3 L825.3,191.7 L825.5,225.7 L825.8,173.4 L826.0,212.1 L826.3,179.5 L826.6,202.5 L826.8,222.3 L827.1,193.8 L827.3,193.6 L827.6,177.2 L827.9,193.2 L828.1,203.7 L828.4,215.1 L828.6,221.9 L828.9,197.6 L829.2,180.3 L829.4,233.3 L829.7,229.3 L829.9,199.1 L830.2,221.4 L830.4,208.6 L830.7,204.2 L831.0,210.7 L831.2,221.9 L831.5,176.3 L831.7,217.8 L832.0,200.2 L832.3,198.9 L832.5,175.5 L832.8,219.9 L833.0,220.7 L833.3,225.1 L833.6,187.3 L833.8,213.4 L834.1,206.4 L834.3,236.2 L834.6,191.2 L834.8,210.0 L835.1,182.5 L835.4,187.2 L835.6,213.3 L835.9,183.2 L836.1,239.4 L836.4,216.1 L836.7,210.1 L836.9,204.7 L837.2,213.5 L837.4,206.8 L837.7,228.3 L838.0,196.0 L838.2,237.6 L838.5,204.2 L838.7,224.4 L839.0,184.5 L839.3,184.9 L839.5,184.8 L839.8,183.9 L840.0,184.3 L840.3,209.7 L840.5,223.1 L840.8,229.0 L841.1,193.7 L841.3,199.3 L841.6,201.7 L841.8,226.5 L842.1,193.8 L842.4,202.0 L842.6,185.7 L842.9,243.2 L843.1,220.1 L843.4,192.5 L843.7,241.5 L843.9,200.4 L844.2,241.7 L844.4,198.3 L844.7,206.1 L844.9,188.2 L845.2,202.8 L845.5,234.1 L845.7,222.1 L846.0,206.6 L846.2,229.9 L846.5,226.5 L846.8,245.6 L847.0,251.0 L847.3,223.7 L847.5,219.4 L847.8,224.9 L848.1,228.1 L848.3,198.2 L848.6,247.4 L848.8,235.8 L849.1,207.8 L849.4,225.1 L849.6,256.4 L849.9,243.0 L850.1,240.1 L850.4,218.2 L850.6,200.9 L850.9,252.9 L851.2,238.6 L851.4,200.5 L851.7,252.5 L851.9,231.1 L852.2,232.9 L852.5,215.7 L852.7,224.9 L853.0,243.2 L853.2,236.0 L853.5,197.8 L853.8,222.1 L854.0,243.7 L854.3,219.2 L854.5,199.9 L854.8,219.3 L855.1,256.6 L855.3,249.9 L855.6,206.7 L855.8,200.6 L856.1,213.7 L856.3,214.5 L856.6,259.0 L856.9,218.2 L857.1,250.9 L857.4,225.8 L857.6,216.1 L857.9,260.8 L858.2,254.9 L858.4,252.6 L858.7,245.8 L858.9,227.5 L859.2,259.6 L859.5,229.5 L859.7,246.0 L860.0,233.0 L860.2,246.3 L860.5,209.3 L860.7,223.9 L861.0,247.9 L861.3,264.4 L861.5,263.4 L861.8,231.0 L862.0,208.7 L862.3,233.2 L862.6,248.9 L862.8,249.3 L863.1,270.9 L863.3,239.3 L863.6,258.5 L863.9,218.5 L864.1,223.9 L864.4,237.1 L864.6,230.5 L864.9,262.6 L865.2,264.2 L865.4,261.9 L865.7,264.8 L865.9,261.4 L866.2,223.1 L866.4,246.8 L866.7,256.1 L867.0,274.6 L867.2,217.6 L867.5,225.3 L867.7,247.8 L868.0,261.6 L868.3,268.1 L868.5,221.9 L868.8,259.7 L869.0,272.4 L869.3,233.5 L869.6,227.8 L869.8,226.1 L870.1,226.7 L870.3,279.1 L870.6,256.5 L870.8,230.6 L871.1,223.3 L871.4,254.2 L871.6,225.7 L871.9,264.6 L872.1,277.1 L872.4,236.1 L872.7,248.1 L872.9,265.0 L873.2,277.9 L873.4,243.9 L873.7,226.2 L874.0,259.2 L874.2,244.1 L874.5,260.1 L874.7,252.8 L875.0,262.6 L875.3,232.1 L875.5,243.6 L875.8,256.2 L876.0,277.3 L876.3,264.1 L876.5,243.5 L876.8,279.7 L877.1,248.9 L877.3,243.1 L877.6,272.8 L877.8,260.4 L878.1,276.5 L878.4,244.5 L878.6,267.5 L878.9,232.6 L879.1,242.6 L879.4,271.6 L879.7,241.7 L879.9,235.6 L880.2,272.7 L880.4,238.6 L880.7,278.1 L880.9,266.8 L881.2,238.7 L881.5,249.0 L881.7,248.1 L882.0,265.6 L882.2,271.9 L882.5,280.3 L882.8,280.8 L883.0,237.6 L883.3,252.9 L883.5,267.8 L883.8,263.5 L884.1,246.5 L884.3,246.7 L884.6,287.7 L884.8,240.2 L885.1,246.1 L885.4,264.3 L885.6,275.8 L885.9,273.0 L886.1,262.3 L886.4,252.6 L886.6,293.8 L886.9,289.8 L887.2,278.6 L887.4,256.5 L887.7,269.4 L887.9,263.1 L888.2,289.9 L888.5,259.5 L888.7,281.5 L889.0,250.7 L889.2,283.8 L889.5,259.2 L889.8,289.5 L890.0,274.8 L890.3,246.7 L890.5,260.2 L890.8,247.4 L891.1,280.7 L891.3,280.4 L891.6,264.9 L891.8,292.1 L892.1,262.6 L892.3,281.1 L892.6,284.1 L892.9,290.0 L893.1,252.7 L893.4,303.0 L893.6,278.5 L893.9,254.6 L894.2,278.5 L894.4,253.3 L894.7,257.6 L894.9,278.6 L895.2,273.5 L895.5,260.0 L895.7,262.6 L896.0,305.6 L896.2,270.0 L896.5,306.5 L896.7,294.5 L897.0,306.3 L897.3,271.8 L897.5,260.2 L897.8,268.0 L898.0,280.6 L898.3,284.7 L898.6,273.3 L898.8,286.0 L899.1,299.0 L899.3,287.4 L899.6,261.1 L899.9,310.1 L900.1,269.4 L900.4,295.8 L900.6,306.3 L900.9,308.8 L901.2,266.2 L901.4,275.5 L901.7,263.0 L901.9,314.5 L902.2,288.8 L902.4,304.5 L902.7,285.5 L903.0,300.7 L903.2,288.0 L903.5,293.7 L903.7,289.3 L904.0,314.2 L904.3,317.7 L904.5,273.7 L904.8,309.6 L905.0,270.6 L905.3,305.5 L905.6,300.3 L905.8,296.0 L906.1,285.0 L906.3,292.8 L906.6,316.1 L906.8,306.1 L907.1,286.5 L907.4,320.0 L907.6,291.9 L907.9,301.9 L908.1,316.1 L908.4,276.9 L908.7,319.7 L908.9,277.1 L909.2,314.5 L909.4,299.2 L909.7,285.7 L910.0,312.1 L910.2,297.8 L910.5,283.8 L910.7,291.5 L911.0,278.2 L911.3,294.4 L911.5,306.3 L911.8,283.1 L912.0,326.9 L912.3,288.0 L912.5,318.8 L912.8,280.2 L913.1,293.9 L913.3,301.2 L913.6,317.1 L913.8,310.6 L914.1,308.7 L914.4,313.2 L914.6,306.8 L914.9,301.8 L915.1,329.5 L915.4,301.5 L915.7,283.6 L915.9,330.5 L916.2,289.0 L916.4,315.0 L916.7,287.7 L916.9,309.1 L917.2,323.1 L917.5,303.6 L917.7,327.5 L918.0,331.1 L918.2,298.9 L918.5,323.7 L918.8,310.4 L919.0,294.8 L919.3,320.3 L919.5,327.5 L919.8,322.0 L920.1,332.8 L920.3,294.7 L920.6,290.6 L920.8,335.5 L921.1,299.6 L921.4,333.6 L921.6,296.0 L921.9,330.1 L922.1,305.2 L922.4,315.3 L922.6,318.5 L922.9,330.4 L923.2,314.8 L923.4,337.4 L923.7,334.3 L923.9,315.3 L924.2,306.8 L924.5,330.4 L924.7,336.6 L925.0,302.0 L925.2,341.5 L925.5,318.6 L925.8,341.1 L926.0,333.8 L926.3,317.3 L926.5,324.4 L926.8,340.7 L927.1,337.3 L927.3,326.1 L927.6,315.9 L927.8,325.6 L928.1,308.4 L928.3,308.6 L928.6,313.8 L928.9,339.2 L929.1,334.3 L929.4,307.6 L929.6,317.6 L929.9,328.0 L930.2,327.3 L930.4,332.2 L930.7,313.0 L930.9,330.8 L931.2,341.0 L931.5,312.5 L931.7,311.9 L932.0,312.0 L932.2,329.2 L932.5,340.6 L932.7,330.0 L933.0,315.5 L933.3,347.7 L933.5,313.5 L933.8,351.6 L934.0,343.5 L934.3,319.8 L934.6,352.5 L934.8,313.8 L935.1,312.1 L935.3,319.4 L935.6,313.8 L935.9,334.7 L936.1,337.7 L936.4,336.3 L936.6,354.8 L936.9,351.2 L937.2,339.4 L937.4,355.6 L937.7,356.0 L937.9,349.9 L938.2,331.7 L938.4,351.7 L938.7,328.6 L939.0,357.9 L939.2,339.2 L939.5,349.4 L939.7,347.4 L940.0,324.2 L940.3,326.5 L940.5,359.2 L940.8,339.1 L941.0,357.4 L941.3,330.3 L941.6,340.6 L941.8,351.7 L942.1,357.0 L942.3,325.6 L942.6,354.1 L942.8,341.6 L943.1,348.4 L943.4,332.8 L943.6,337.5 L943.9,358.7 L944.1,342.5 L944.4,355.7 L944.7,362.7 L944.9,338.2 L945.2,338.4 L945.4,360.9 L945.7,352.8 L946.0,361.0 L946.2,356.4 L946.5,348.3 L946.7,338.1 L947.0,362.5 L947.3,351.4 L947.5,342.5 L947.8,355.5 L948.0,369.4 L948.3,333.7 L948.5,345.2 L948.8,351.4 L949.1,358.7 L949.3,369.4 L949.6,352.9 L949.8,348.2 L950.1,335.8 L950.4,361.1 L950.6,344.3 L950.9,357.7 L951.1,349.4 L951.4,367.7 L951.7,364.0 L951.9,339.6 L952.2,346.0 L952.4,357.6 L952.7,374.4 L952.9,354.9 L953.2,348.6 L953.5,372.5 L953.7,365.6 L954.0,373.7 L954.2,376.2 L954.5,348.9 L954.8,356.9 L955.0,363.4 L955.3,343.0 L955.5,346.8 L955.8,377.9 L956.1,374.1 L956.3,372.4 L956.6,345.3 L956.8,350.6 L957.1,359.6 L957.4,345.8 L957.6,377.8 L957.9,371.7 L958.1,349.4 L958.4,359.8 L958.6,350.3 L958.9,384.3 L959.2,356.8 L959.4,372.4 L959.7,358.4 L959.9,356.1 L960.2,361.3 L960.5,361.3 L960.7,371.6 L961.0,384.1 L961.2,369.8 L961.5,370.4 L961.8,357.3 L962.0,371.1 L962.3,384.6 L962.5,386.9 L962.8,355.7 L963.1,363.2 L963.3,364.6 L963.6,361.1 L963.8,383.8 L964.1,382.3 L964.3,375.2 L964.6,382.0 L964.9,357.4 L965.1,389.9 L965.4,359.7 L965.6,376.6 L965.9,392.9 L966.2,379.0 L966.4,361.5 L966.7,365.8 L966.9,371.5 L967.2,378.4 L967.5,382.5 L967.7,393.8 L968.0,370.5 L968.2,379.8 L968.5,377.8 L968.7,365.9 L969.0,377.6 L969.3,394.7 L969.5,368.5 L969.8,396.0 L970.0,367.2 L970.3,366.6 L970.6,385.5 L970.8,381.7 L971.1,374.7 L971.3,394.5 L971.6,388.3 L971.9,379.0 L972.1,371.3 L972.4,385.2 L972.6,401.4 L972.9,387.3 L973.2,388.0 L973.4,387.3 L973.7,387.1 L973.9,371.4 L974.2,384.3 L974.4,395.7 L974.7,382.7 L975.0,382.3 L975.2,388.8 L975.5,390.2 L975.7,386.4 L976.0,387.9 L976.3,394.4 L976.5,377.5 L976.8,377.3 L977.0,379.7 L977.3,404.5 L977.6,379.0 L977.8,385.2 L978.1,401.7 L978.3,393.3 L978.6,391.8 L978.8,389.6 L979.1,401.2 L979.4,382.7 L979.6,405.5 L979.9,399.1 L980.1,388.0 L980.4,408.6 L980.7,387.1 L980.9,389.7 L981.2,387.8 L981.4,389.6 L981.7,408.3 L982.0,406.4 L982.2,399.2 L982.5,405.9 L982.7,390.2 L983.0,387.7 L983.3,414.4 L983.5,392.5 L983.8,402.4 L984.0,410.9 L984.3,406.1 L984.5,414.0 L984.8,408.4 L985.1,394.9 L985.3,395.4 L985.6,410.1 L985.8,392.6 L986.1,390.0 L986.4,416.2 L986.6,414.3 L986.9,410.4 L987.1,415.1 L987.4,402.3 L987.7,394.4 L987.9,405.9 L988.2,404.5 L988.4,407.2 L988.7,398.1 L988.9,416.6 L989.2,402.7 L989.5,400.9 L989.7,400.8 L990.0,411.7 L990.2,406.4 L990.5,405.7 L990.8,410.5 L991.0,399.0 L991.3,417.3 L991.5,417.9 L991.8,409.7 L992.1,410.1 L992.3,399.4 L992.6,414.4 L992.8,407.7 L993.1,410.9 L993.4,403.6 L993.6,418.1 L993.9,410.4 L994.1,423.7 L994.4,420.4 L994.6,403.3 L994.9,405.8 L995.2,424.8 L995.4,424.2 L995.7,428.6 L995.9,430.5 L996.2,409.5 L996.5,422.3 L996.7,420.8 L997.0,411.3 L997.2,416.3 L997.5,409.9 L997.8,413.4 L998.0,419.0 L998.3,429.5 L998.5,427.9 L998.8,417.2 L999.1,433.8 L999.3,424.3 L999.6,426.4 L999.8,419.6 L1000.1,430.5 L1000.3,434.5 L1000.6,420.0 L1000.9,416.8 L1001.1,417.3 L1001.4,425.8 L1001.6,429.5 L1001.9,438.5 L1002.2,421.6 L1002.4,430.1 L1002.7,429.7 L1002.9,426.5 L1003.2,438.2 L1003.5,424.0 L1003.7,422.9 L1004.0,440.5 L1004.2,431.9 L1004.5,433.7 L1004.7,428.1 L1005.0,422.3 L1005.3,431.7 L1005.5,432.6 L1005.8,423.1 L1006.0,428.9 L1006.3,423.7 L1006.6,444.2 L1006.8,428.6 L1007.1,443.3 L1007.3,426.2 L1007.6,445.2 L1007.9,442.9 L1008.1,440.4 L1008.4,444.4 L1008.6,440.4 L1008.9,439.0 L1009.2,440.8 L1009.4,446.1 L1009.7,427.6 L1009.9,427.1 L1010.2,431.5 L1010.4,443.8 L1010.7,448.3 L1011.0,443.0 L1011.2,445.8 L1011.5,449.4 L1011.7,447.7 L1012.0,445.2 L1012.3,446.6 L1012.5,433.1 L1012.8,439.5 L1013.0,447.5 L1013.3,444.2 L1013.6,443.7 L1013.8,435.3 L1014.1,451.4 L1014.3,439.9 L1014.6,437.5 L1014.8,454.1 L1015.1,444.8 L1015.4,444.5 L1015.6,435.6 L1015.9,438.9 L1016.1,439.6 L1016.4,449.7 L1016.7,451.0 L1016.9,449.0 L1017.2,446.1 L1017.4,445.5 L1017.7,453.7 L1018.0,454.3 L1018.2,450.6 L1018.5,443.5 L1018.7,452.9 L1019.0,450.9 L1019.3,448.3 L1019.5,448.9 L1019.8,449.3 L1020.0,458.5 L1020.3,446.1 L1020.5,457.9 L1020.8,458.5 L1021.1,457.5 L1021.3,458.8 L1021.6,462.8 L1021.8,458.9 L1022.1,458.0 L1022.4,448.1 L1022.6,460.7 L1022.9,447.0 L1023.1,463.7 L1023.4,457.0 L1023.7,452.7 L1023.9,458.2 L1024.2,464.5 L1024.4,458.3 L1024.7,457.5 L1024.9,459.6 L1025.2,466.2 L1025.5,465.4 L1025.7,457.9 L1026.0,463.0 L1026.2,458.8 L1026.5,461.3 L1026.8,456.9 L1027.0,466.9 L1027.3,467.1 L1027.5,466.9 L1027.8,463.7 L1028.1,469.4 L1028.3,458.2 L1028.6,458.9 L1028.8,464.2 L1029.1,469.1 L1029.4,466.6 L1029.6,472.4 L1029.9,467.9 L1030.1,470.4 L1030.4,471.8 L1030.6,460.2 L1030.9,468.2 L1031.2,461.2 L1031.4,467.6 L1031.7,467.8 L1031.9,464.2 L1032.2,465.7 L1032.5,469.2 L1032.7,468.7 L1033.0,463.3 L1033.2,464.9 L1033.5,469.5 L1033.8,477.7 L1034.0,467.4 L1034.3,467.3 L1034.5,468.5 L1034.8,475.0 L1035.1,478.7 L1035.3,471.0 L1035.6,473.3 L1035.8,475.8 L1036.1,473.1 L1036.3,470.4 L1036.6,475.6 L1036.9,483.0 L1037.1,481.9 L1037.4,479.3 L1037.6,472.2 L1037.9,481.4 L1038.2,483.5 L1038.4,477.6 L1038.7,480.1 L1038.9,481.2 L1039.2,479.8 L1039.5,479.7 L1039.7,483.6 L1040.0,479.2 L1040.2,482.6 L1040.5,481.7 L1040.7,486.9 L1041.0,482.3 L1041.3,485.5 L1041.5,486.4 L1041.8,477.9 L1042.0,480.0 L1042.3,477.7 L1042.6,484.4 L1042.8,481.1 L1043.1,486.6 L1043.3,482.4 L1043.6,491.4 L1043.9,488.7 L1044.1,485.9 L1044.4,486.1 L1044.6,492.5 L1044.9,484.3 L1045.2,486.1 L1045.4,486.6 L1045.7,494.6 L1045.9,492.6 L1046.2,490.3 L1046.4,492.7 L1046.7,496.0 L1047.0,490.8 L1047.2,495.1 L1047.5,497.0 L1047.7,489.7 L1048.0,492.0 L1048.3,488.7 L1048.5,490.8 L1048.8,498.4 L1049.0,494.6 L1049.3,489.4 L1049.6,495.5 L1049.8,490.8 L1050.1,494.3 L1050.3,492.2 L1050.6,498.2 L1050.8,496.1 L1051.1,496.9 L1051.4,495.2 L1051.6,500.5 L1051.9,496.9 L1052.1,495.5 L1052.4,500.0 L1052.7,495.8 L1052.9,499.1 L1053.2,495.9 L1053.4,498.4 L1053.7,502.8 L1054.0,504.3 L1054.2,496.9 L1054.5,503.9 L1054.7,503.8 L1055.0,499.8 L1055.3,505.2 L1055.5,501.4 L1055.8,504.6 L1056.0,502.5 L1056.3,504.1 L1056.5,507.8 L1056.8,503.4 L1057.1,507.4 L1057.3,508.2 L1057.6,506.5 L1057.8,506.7 L1058.1,503.1 L1058.4,505.1 L1058.6,510.6 L1058.9,510.5 L1059.1,508.1 L1059.4,509.9 L1059.7,510.7 L1059.9,507.1 L1060.2,506.6 L1060.4,507.2 L1060.7,511.6 L1060.9,511.5 L1061.2,509.0 L1061.5,508.1 L1061.7,510.3 L1062.0,515.2 L1062.2,514.6 L1062.5,516.0 L1062.8,512.2 L1063.0,514.4 L1063.3,511.4 L1063.5,511.7 L1063.8,514.8 L1064.1,514.2 L1064.3,517.2 L1064.6,517.5 L1064.8,519.2 L1065.1,515.6 L1065.4,516.7 L1065.6,518.4 L1065.9,519.5 L1066.1,516.8 L1066.4,520.0 L1066.6,520.1 L1066.9,520.9 L1067.2,517.9 L1067.4,522.7 L1067.7,518.8 L1067.9,520.1 L1068.2,519.6 L1068.5,520.1 L1068.7,523.7 L1069.0,520.3 L1069.2,524.2 L1069.5,524.6 L1069.8,521.2 L1070.0,521.4 L1070.3,522.0 L1070.5,526.3 L1070.8,522.9 L1071.1,526.6 L1071.3,525.4 L1071.6,525.8 L1071.8,525.8 L1072.1,525.8 L1072.3,527.0 L1072.6,528.2 L1072.9,525.7 L1073.1,527.2 L1073.4,527.1 L1073.6,528.1 L1073.9,527.9 L1074.2,530.7 L1074.4,529.1 L1074.7,529.5 L1074.9,532.0 L1075.2,529.7 L1075.5,531.8 L1075.7,533.4 L1076.0,533.5 L1076.2,533.4 L1076.5,531.9 L1076.7,531.8 L1077.0,532.8 L1077.3,535.4 L1077.5,533.2 L1077.8,535.3 L1078.0,535.2 L1078.3,535.2 L1078.6,537.1 L1078.8,536.3 L1079.1,537.6 L1079.3,537.3 L1079.6,536.3 L1079.9,537.6 L1080.1,537.8 L1080.4,539.2 L1080.6,539.2 L1080.9,538.4 L1081.2,538.7 L1081.4,540.6 L1081.7,539.8 L1081.9,540.7 L1082.2,541.4 L1082.4,541.0 L1082.7,541.2 L1083.0,542.0 L1083.2,542.2 L1083.5,543.1 L1083.7,543.3 L1084.0,543.8" fill="none" stroke="#1f77b4" stroke-width="1.4" opacity="0.85"/><text x="1040" y="54" fill="#ff7f0e" font-size="11">roll 18</text><text x="1090" y="558" fill="#ff7f0e" font-size="11">-18</text><path d="M616.0,310.7 L616.3,308.0 L616.5,309.3 L616.8,308.0 L617.0,309.3 L617.3,310.7 L617.6,308.0 L617.8,308.0 L618.1,308.0 L618.3,309.3 L618.6,309.3 L618.8,308.0 L619.1,310.7 L619.4,309.3 L619.6,309.3 L619.9,309.3 L620.1,310.7 L620.4,309.3 L620.7,310.7 L620.9,309.3 L621.2,309.3 L621.4,310.7 L621.7,308.0 L622.0,309.3 L622.2,309.3 L622.5,309.3 L622.7,308.0 L623.0,308.0 L623.3,308.0 L623.5,309.3 L623.8,310.7 L624.0,310.7 L624.3,310.7 L624.5,308.0 L624.8,309.3 L625.1,309.3 L625.3,309.3 L625.6,310.7 L625.8,308.0 L626.1,309.3 L626.4,309.3 L626.6,309.3 L626.9,310.7 L627.1,310.7 L627.4,310.7 L627.7,309.3 L627.9,308.0 L628.2,309.3 L628.4,310.7 L628.7,309.3 L628.9,310.7 L629.2,310.7 L629.5,310.7 L629.7,310.7 L630.0,309.3 L630.2,310.7 L630.5,310.7 L630.8,309.3 L631.0,309.3 L631.3,310.7 L631.5,310.7 L631.8,308.0 L632.1,309.3 L632.3,308.0 L632.6,308.0 L632.8,310.7 L633.1,308.0 L633.4,309.3 L633.6,309.3 L633.9,309.3 L634.1,309.3 L634.4,309.3 L634.6,310.7 L634.9,309.3 L635.2,308.0 L635.4,308.0 L635.7,310.7 L635.9,308.0 L636.2,308.0 L636.5,309.3 L636.7,309.3 L637.0,309.3 L637.2,308.0 L637.5,308.0 L637.8,309.3 L638.0,309.3 L638.3,309.3 L638.5,309.3 L638.8,309.3 L639.1,309.3 L639.3,309.3 L639.6,309.3 L639.8,309.3 L640.1,308.0 L640.3,309.3 L640.6,309.3 L640.9,310.7 L641.1,309.3 L641.4,309.3 L641.6,310.7 L641.9,308.0 L642.2,309.3 L642.4,309.3 L642.7,308.0 L642.9,308.0 L643.2,309.3 L643.5,308.0 L643.7,309.3 L644.0,309.3 L644.2,309.3 L644.5,309.3 L644.7,309.3 L645.0,308.0 L645.3,309.3 L645.5,309.3 L645.8,309.3 L646.0,308.0 L646.3,308.0 L646.6,309.3 L646.8,309.3 L647.1,310.7 L647.3,309.3 L647.6,309.3 L647.9,309.3 L648.1,310.7 L648.4,310.7 L648.6,309.3 L648.9,310.7 L649.2,309.3 L649.4,308.0 L649.7,309.3 L649.9,310.7 L650.2,309.3 L650.4,309.3 L650.7,308.0 L651.0,310.7 L651.2,310.7 L651.5,310.7 L651.7,310.7 L652.0,308.0 L652.3,310.7 L652.5,309.3 L652.8,308.0 L653.0,309.3 L653.3,309.3 L653.6,308.0 L653.8,308.0 L654.1,308.0 L654.3,309.3 L654.6,310.7 L654.8,309.3 L655.1,309.3 L655.4,309.3 L655.6,309.3 L655.9,310.7 L656.1,310.7 L656.4,310.7 L656.7,310.7 L656.9,309.3 L657.2,310.7 L657.4,308.0 L657.7,309.3 L658.0,310.7 L658.2,309.3 L658.5,310.7 L658.7,310.7 L659.0,309.3 L659.3,310.7 L659.5,310.7 L659.8,310.7 L660.0,310.7 L660.3,309.3 L660.5,309.3 L660.8,309.3 L661.1,309.3 L661.3,310.7 L661.6,310.7 L661.8,309.3 L662.1,309.3 L662.4,310.7 L662.6,310.7 L662.9,309.3 L663.1,310.7 L663.4,312.0 L663.7,310.7 L663.9,312.0 L664.2,312.0 L664.4,312.0 L664.7,310.7 L664.9,312.0 L665.2,310.7 L665.5,312.0 L665.7,309.3 L666.0,312.0 L666.2,310.7 L666.5,310.7 L666.8,312.0 L667.0,309.3 L667.3,310.7 L667.5,312.0 L667.8,310.7 L668.1,312.0 L668.3,312.0 L668.6,312.0 L668.8,310.7 L669.1,310.7 L669.4,310.7 L669.6,310.7 L669.9,312.0 L670.1,312.0 L670.4,310.7 L670.6,310.7 L670.9,310.7 L671.2,312.0 L671.4,310.7 L671.7,310.7 L671.9,310.7 L672.2,310.7 L672.5,312.0 L672.7,312.0 L673.0,312.0 L673.2,310.7 L673.5,312.0 L673.8,309.3 L674.0,312.0 L674.3,310.7 L674.5,312.0 L674.8,312.0 L675.1,309.3 L675.3,312.0 L675.6,310.7 L675.8,313.3 L676.1,312.0 L676.3,312.0 L676.6,310.7 L676.9,312.0 L677.1,312.0 L677.4,310.7 L677.6,310.7 L677.9,309.3 L678.2,312.0 L678.4,310.7 L678.7,310.7 L678.9,310.7 L679.2,312.0 L679.5,309.3 L679.7,309.3 L680.0,312.0 L680.2,312.0 L680.5,310.7 L680.7,309.3 L681.0,310.7 L681.3,310.7 L681.5,312.0 L681.8,309.3 L682.0,309.3 L682.3,312.0 L682.6,312.0 L682.8,312.0 L683.1,310.7 L683.3,312.0 L683.6,312.0 L683.9,309.3 L684.1,312.0 L684.4,310.7 L684.6,312.0 L684.9,309.3 L685.2,313.3 L685.4,312.0 L685.7,313.3 L685.9,312.0 L686.2,310.7 L686.4,312.0 L686.7,310.7 L687.0,310.7 L687.2,312.0 L687.5,312.0 L687.7,310.7 L688.0,312.0 L688.3,310.7 L688.5,310.7 L688.8,310.7 L689.0,310.7 L689.3,312.0 L689.6,313.3 L689.8,312.0 L690.1,310.7 L690.3,310.7 L690.6,310.7 L690.8,310.7 L691.1,310.7 L691.4,310.7 L691.6,310.7 L691.9,312.0 L692.1,310.7 L692.4,312.0 L692.7,312.0 L692.9,312.0 L693.2,310.7 L693.4,309.3 L693.7,312.0 L694.0,312.0 L694.2,312.0 L694.5,310.7 L694.7,312.0 L695.0,310.7 L695.3,310.7 L695.5,302.8 L695.8,288.5 L696.0,282.0 L696.3,270.2 L696.5,262.4 L696.8,250.7 L697.1,241.6 L697.3,235.0 L697.6,214.2 L697.8,201.1 L698.1,215.5 L698.4,194.6 L698.6,185.5 L698.9,175.1 L699.1,194.6 L699.4,168.6 L699.7,168.6 L699.9,162.0 L700.2,164.6 L700.4,145.1 L700.7,145.1 L700.9,138.6 L701.2,147.7 L701.5,136.0 L701.7,128.1 L702.0,146.4 L702.2,149.0 L702.5,124.2 L702.8,142.5 L703.0,137.3 L703.3,134.7 L703.5,125.5 L703.8,133.4 L704.1,120.3 L704.3,115.1 L704.6,112.5 L704.8,107.3 L705.1,126.8 L705.4,130.8 L705.6,104.7 L705.9,128.1 L706.1,89.0 L706.4,109.9 L706.6,120.3 L706.9,128.1 L707.2,91.6 L707.4,104.7 L707.7,111.2 L707.9,107.3 L708.2,83.8 L708.5,121.6 L708.7,94.3 L709.0,108.6 L709.2,117.7 L709.5,85.1 L709.8,103.4 L710.0,100.8 L710.3,120.3 L710.5,98.2 L710.8,150.3 L711.1,130.8 L711.3,130.8 L711.6,137.3 L711.8,138.6 L712.1,122.9 L712.3,130.8 L712.6,149.0 L712.9,130.8 L713.1,143.8 L713.4,141.2 L713.6,126.8 L713.9,154.2 L714.2,146.4 L714.4,142.5 L714.7,143.8 L714.9,154.2 L715.2,138.6 L715.5,119.0 L715.7,147.7 L716.0,142.5 L716.2,152.9 L716.5,145.1 L716.7,145.1 L717.0,130.8 L717.3,173.8 L717.5,171.2 L717.8,169.9 L718.0,163.3 L718.3,159.4 L718.6,129.4 L718.8,175.1 L719.1,159.4 L719.3,175.1 L719.6,173.8 L719.9,190.7 L720.1,171.2 L720.4,186.8 L720.6,179.0 L720.9,173.8 L721.2,160.7 L721.4,162.0 L721.7,167.3 L721.9,156.8 L722.2,177.7 L722.4,189.4 L722.7,179.0 L723.0,193.3 L723.2,186.8 L723.5,197.2 L723.7,227.2 L724.0,227.2 L724.3,249.4 L724.5,266.3 L724.8,278.1 L725.0,292.4 L725.3,309.3 L725.6,322.4 L725.8,332.8 L726.1,341.9 L726.3,352.4 L726.6,374.5 L726.8,377.1 L727.1,382.4 L727.4,387.6 L727.6,401.9 L727.9,418.9 L728.1,428.0 L728.4,414.9 L728.7,426.7 L728.9,441.0 L729.2,441.0 L729.4,438.4 L729.7,456.7 L730.0,454.1 L730.2,463.2 L730.5,454.1 L730.7,487.9 L731.0,461.9 L731.3,481.4 L731.5,460.6 L731.8,465.8 L732.0,504.9 L732.3,480.1 L732.5,474.9 L732.8,494.5 L733.1,491.9 L733.3,480.1 L733.6,482.7 L733.8,494.5 L734.1,482.7 L734.4,523.1 L734.6,508.8 L734.9,507.5 L735.1,497.1 L735.4,515.3 L735.7,523.1 L735.9,494.5 L736.2,494.5 L736.4,528.4 L736.7,498.4 L736.9,524.4 L737.2,519.2 L737.5,493.2 L737.7,517.9 L738.0,520.5 L738.2,489.2 L738.5,512.7 L738.8,523.1 L739.0,514.0 L739.3,511.4 L739.5,525.7 L739.8,525.7 L740.1,504.9 L740.3,491.9 L740.6,525.7 L740.8,490.6 L741.1,516.6 L741.4,487.9 L741.6,506.2 L741.9,516.6 L742.1,521.8 L742.4,502.3 L742.6,493.2 L742.9,531.0 L743.2,520.5 L743.4,493.2 L743.7,510.1 L743.9,495.8 L744.2,537.5 L744.5,514.0 L744.7,490.6 L745.0,519.2 L745.2,493.2 L745.5,515.3 L745.8,527.1 L746.0,503.6 L746.3,497.1 L746.5,515.3 L746.8,495.8 L747.1,501.0 L747.3,499.7 L747.6,521.8 L747.8,516.6 L748.1,525.7 L748.3,515.3 L748.6,510.1 L748.9,541.4 L749.1,527.1 L749.4,521.8 L749.6,499.7 L749.9,531.0 L750.2,497.1 L750.4,532.3 L750.7,495.8 L750.9,516.6 L751.2,495.8 L751.5,508.8 L751.7,497.1 L752.0,508.8 L752.2,508.8 L752.5,525.7 L752.7,516.6 L753.0,527.1 L753.3,514.0 L753.5,523.1 L753.8,517.9 L754.0,533.6 L754.3,524.4 L754.6,529.7 L754.8,527.1 L755.1,523.1 L755.3,514.0 L755.6,533.6 L755.9,519.2 L756.1,523.1 L756.4,523.1 L756.6,499.7 L756.9,507.5 L757.2,508.8 L757.4,514.0 L757.7,502.3 L757.9,544.0 L758.2,502.3 L758.4,532.3 L758.7,491.9 L759.0,510.1 L759.2,533.6 L759.5,528.4 L759.7,510.1 L760.0,503.6 L760.3,495.8 L760.5,536.2 L760.8,512.7 L761.0,507.5 L761.3,515.3 L761.6,498.4 L761.8,503.6 L762.1,532.3 L762.3,512.7 L762.6,534.9 L762.8,495.8 L763.1,520.5 L763.4,491.9 L763.6,497.1 L763.9,521.8 L764.1,508.8 L764.4,494.5 L764.7,531.0 L764.9,499.7 L765.2,508.8 L765.4,527.1 L765.7,512.7 L766.0,527.1 L766.2,533.6 L766.5,497.1 L766.7,533.6 L767.0,491.9 L767.3,504.9 L767.5,501.0 L767.8,514.0 L768.0,532.3 L768.3,510.1 L768.5,495.8 L768.8,504.9 L769.1,490.6 L769.3,490.6 L769.6,460.6 L769.8,425.4 L770.1,429.3 L770.4,403.2 L770.6,388.9 L770.9,360.2 L771.1,351.1 L771.4,339.3 L771.7,322.4 L771.9,309.3 L772.2,295.0 L772.4,283.3 L772.7,275.5 L772.9,259.8 L773.2,246.8 L773.5,239.0 L773.7,224.6 L774.0,220.7 L774.2,214.2 L774.5,197.2 L774.8,195.9 L775.0,194.6 L775.3,171.2 L775.5,167.3 L775.8,162.0 L776.1,154.2 L776.3,167.3 L776.6,159.4 L776.8,163.3 L777.1,143.8 L777.4,162.0 L777.6,124.2 L777.9,151.6 L778.1,132.1 L778.4,124.2 L778.6,136.0 L778.9,125.5 L779.2,130.8 L779.4,122.9 L779.7,122.9 L779.9,122.9 L780.2,108.6 L780.5,113.8 L780.7,103.4 L781.0,117.7 L781.2,102.1 L781.5,130.8 L781.8,95.6 L782.0,136.0 L782.3,124.2 L782.5,108.6 L782.8,129.4 L783.1,109.9 L783.3,100.8 L783.6,100.8 L783.8,137.3 L784.1,122.9 L784.3,94.3 L784.6,122.9 L784.9,99.5 L785.1,134.7 L785.4,132.1 L785.6,92.9 L785.9,137.3 L786.2,106.0 L786.4,107.3 L786.7,100.8 L786.9,102.1 L787.2,134.7 L787.5,126.8 L787.7,121.6 L788.0,111.2 L788.2,116.4 L788.5,98.2 L788.7,115.1 L789.0,111.2 L789.3,116.4 L789.5,99.5 L789.8,117.7 L790.0,108.6 L790.3,112.5 L790.6,117.7 L790.8,111.2 L791.1,87.7 L791.3,121.6 L791.6,107.3 L791.9,91.6 L792.1,100.8 L792.4,91.6 L792.6,108.6 L792.9,86.4 L793.2,98.2 L793.4,89.0 L793.7,89.0 L793.9,115.1 L794.2,104.7 L794.4,100.8 L794.7,98.2 L795.0,82.5 L795.2,104.7 L795.5,94.3 L795.7,91.6 L796.0,111.2 L796.3,108.6 L796.5,79.9 L796.8,102.1 L797.0,92.9 L797.3,116.4 L797.6,95.6 L797.8,89.0 L798.1,89.0 L798.3,112.5 L798.6,104.7 L798.8,116.4 L799.1,85.1 L799.4,117.7 L799.6,87.7 L799.9,108.6 L800.1,91.6 L800.4,109.9 L800.7,112.5 L800.9,100.8 L801.2,112.5 L801.4,119.0 L801.7,108.6 L802.0,117.7 L802.2,90.3 L802.5,87.7 L802.7,99.5 L803.0,109.9 L803.3,103.4 L803.5,92.9 L803.8,90.3 L804.0,111.2 L804.3,79.9 L804.5,108.6 L804.8,109.9 L805.1,91.6 L805.3,99.5 L805.6,94.3 L805.8,81.2 L806.1,119.0 L806.4,120.3 L806.6,104.7 L806.9,96.9 L807.1,119.0 L807.4,113.8 L807.7,76.0 L807.9,106.0 L808.2,115.1 L808.4,94.3 L808.7,119.0 L808.9,87.7 L809.2,108.6 L809.5,102.1 L809.7,95.6 L810.0,102.1 L810.2,108.6 L810.5,108.6 L810.8,98.2 L811.0,98.2 L811.3,102.1 L811.5,116.4 L811.8,89.0 L812.1,122.9 L812.3,89.0 L812.6,107.3 L812.8,122.9 L813.1,108.6 L813.4,113.8 L813.6,112.5 L813.9,116.4 L814.1,82.5 L814.4,109.9 L814.6,85.1 L814.9,104.7 L815.2,87.7 L815.4,124.2 L815.7,119.0 L815.9,77.3 L816.2,115.1 L816.5,121.6 L816.7,96.9 L817.0,111.2 L817.2,122.9 L817.5,90.3 L817.8,106.0 L818.0,79.9 L818.3,111.2 L818.5,107.3 L818.8,103.4 L819.1,103.4 L819.3,109.9 L819.6,96.9 L819.8,100.8 L820.1,82.5 L820.3,115.1 L820.6,113.8 L820.9,107.3 L821.1,106.0 L821.4,115.1 L821.6,99.5 L821.9,112.5 L822.2,90.3 L822.4,120.3 L822.7,85.1 L822.9,92.9 L823.2,99.5 L823.5,92.9 L823.7,109.9 L824.0,78.6 L824.2,87.7 L824.5,86.4 L824.7,95.6 L825.0,91.6 L825.3,117.7 L825.5,96.9 L825.8,106.0 L826.0,109.9 L826.3,117.7 L826.6,76.0 L826.8,90.3 L827.1,82.5 L827.3,99.5 L827.6,81.2 L827.9,106.0 L828.1,86.4 L828.4,121.6 L828.6,108.6 L828.9,107.3 L829.2,98.2 L829.4,95.6 L829.7,98.2 L829.9,125.5 L830.2,81.2 L830.4,91.6 L830.7,122.9 L831.0,83.8 L831.2,96.9 L831.5,99.5 L831.7,112.5 L832.0,120.3 L832.3,81.2 L832.5,125.5 L832.8,112.5 L833.0,108.6 L833.3,117.7 L833.6,124.2 L833.8,100.8 L834.1,112.5 L834.3,99.5 L834.6,109.9 L834.8,119.0 L835.1,107.3 L835.4,98.2 L835.6,108.6 L835.9,103.4 L836.1,107.3 L836.4,87.7 L836.7,103.4 L836.9,119.0 L837.2,99.5 L837.4,117.7 L837.7,108.6 L838.0,111.2 L838.2,82.5 L838.5,83.8 L838.7,83.8 L839.0,81.2 L839.3,83.8 L839.5,115.1 L839.8,98.2 L840.0,108.6 L840.3,83.8 L840.5,124.2 L840.8,108.6 L841.1,99.5 L841.3,119.0 L841.6,96.9 L841.8,102.1 L842.1,120.3 L842.4,115.1 L842.6,91.6 L842.9,98.2 L843.1,121.6 L843.4,89.0 L843.7,107.3 L843.9,116.4 L844.2,81.2 L844.4,90.3 L844.7,119.0 L844.9,109.9 L845.2,103.4 L845.5,103.4 L845.7,102.1 L846.0,92.9 L846.2,115.1 L846.5,108.6 L846.8,90.3 L847.0,102.1 L847.3,106.0 L847.5,82.5 L847.8,92.9 L848.1,89.0 L848.3,113.8 L848.6,76.0 L848.8,109.9 L849.1,122.9 L849.4,99.5 L849.6,90.3 L849.9,92.9 L850.1,113.8 L850.4,95.6 L850.6,96.9 L850.9,92.9 L851.2,92.9 L851.4,122.9 L851.7,119.0 L851.9,95.6 L852.2,120.3 L852.5,77.3 L852.7,102.1 L853.0,87.7 L853.2,104.7 L853.5,86.4 L853.8,115.1 L854.0,108.6 L854.3,108.6 L854.5,91.6 L854.8,100.8 L855.1,95.6 L855.3,108.6 L855.6,113.8 L855.8,95.6 L856.1,113.8 L856.3,107.3 L856.6,92.9 L856.9,124.2 L857.1,83.8 L857.4,89.0 L857.6,96.9 L857.9,99.5 L858.2,83.8 L858.4,113.8 L858.7,121.6 L858.9,117.7 L859.2,96.9 L859.5,96.9 L859.7,99.5 L860.0,112.5 L860.2,103.4 L860.5,115.1 L860.7,81.2 L861.0,102.1 L861.3,100.8 L861.5,117.7 L861.8,115.1 L862.0,95.6 L862.3,81.2 L862.6,95.6 L862.8,78.6 L863.1,120.3 L863.3,117.7 L863.6,83.8 L863.9,113.8 L864.1,116.4 L864.4,108.6 L864.6,87.7 L864.9,96.9 L865.2,91.6 L865.4,119.0 L865.7,89.0 L865.9,120.3 L866.2,111.2 L866.4,106.0 L866.7,122.9 L867.0,106.0 L867.2,119.0 L867.5,111.2 L867.7,79.9 L868.0,89.0 L868.3,108.6 L868.5,83.8 L868.8,104.7 L869.0,99.5 L869.3,120.3 L869.6,79.9 L869.8,96.9 L870.1,87.7 L870.3,100.8 L870.6,108.6 L870.8,96.9 L871.1,124.2 L871.4,96.9 L871.6,109.9 L871.9,121.6 L872.1,115.1 L872.4,90.3 L872.7,121.6 L872.9,103.4 L873.2,119.0 L873.4,94.3 L873.7,108.6 L874.0,87.7 L874.2,89.0 L874.5,92.9 L874.7,108.6 L875.0,81.2 L875.3,106.0 L875.5,98.2 L875.8,111.2 L876.0,86.4 L876.3,87.7 L876.5,112.5 L876.8,87.7 L877.1,100.8 L877.3,94.3 L877.6,95.6 L877.8,109.9 L878.1,79.9 L878.4,86.4 L878.6,85.1 L878.9,102.1 L879.1,121.6 L879.4,89.0 L879.7,111.2 L879.9,104.7 L880.2,116.4 L880.4,107.3 L880.7,82.5 L880.9,125.5 L881.2,103.4 L881.5,100.8 L881.7,119.0 L882.0,83.8 L882.2,102.1 L882.5,100.8 L882.8,90.3 L883.0,90.3 L883.3,103.4 L883.5,120.3 L883.8,95.6 L884.1,119.0 L884.3,104.7 L884.6,116.4 L884.8,96.9 L885.1,122.9 L885.4,116.4 L885.6,81.2 L885.9,119.0 L886.1,117.7 L886.4,122.9 L886.6,111.2 L886.9,113.8 L887.2,103.4 L887.4,81.2 L887.7,91.6 L887.9,109.9 L888.2,87.7 L888.5,91.6 L888.7,113.8 L889.0,112.5 L889.2,91.6 L889.5,96.9 L889.8,91.6 L890.0,120.3 L890.3,90.3 L890.5,103.4 L890.8,82.5 L891.1,102.1 L891.3,106.0 L891.6,82.5 L891.8,90.3 L892.1,90.3 L892.3,91.6 L892.6,92.9 L892.9,85.1 L893.1,124.2 L893.4,104.7 L893.6,117.7 L893.9,94.3 L894.2,95.6 L894.4,99.5 L894.7,122.9 L894.9,111.2 L895.2,124.2 L895.5,106.0 L895.7,81.2 L896.0,108.6 L896.2,89.0 L896.5,96.9 L896.7,99.5 L897.0,126.8 L897.3,119.0 L897.5,111.2 L897.8,122.9 L898.0,86.4 L898.3,120.3 L898.6,119.0 L898.8,115.1 L899.1,120.3 L899.3,92.9 L899.6,126.8 L899.9,78.6 L900.1,103.4 L900.4,128.1 L900.6,89.0 L900.9,112.5 L901.2,96.9 L901.4,115.1 L901.7,113.8 L901.9,103.4 L902.2,91.6 L902.4,99.5 L902.7,112.5 L903.0,86.4 L903.2,111.2 L903.5,117.7 L903.7,115.1 L904.0,119.0 L904.3,119.0 L904.5,92.9 L904.8,122.9 L905.0,95.6 L905.3,120.3 L905.6,82.5 L905.8,96.9 L906.1,124.2 L906.3,87.7 L906.6,124.2 L906.8,112.5 L907.1,96.9 L907.4,94.3 L907.6,124.2 L907.9,116.4 L908.1,103.4 L908.4,92.9 L908.7,129.4 L908.9,104.7 L909.2,106.0 L909.4,122.9 L909.7,112.5 L910.0,126.8 L910.2,116.4 L910.5,104.7 L910.7,86.4 L911.0,117.7 L911.3,99.5 L911.5,102.1 L911.8,122.9 L912.0,113.8 L912.3,100.8 L912.5,100.8 L912.8,109.9 L913.1,104.7 L913.3,112.5 L913.6,116.4 L913.8,85.1 L914.1,115.1 L914.4,100.8 L914.6,94.3 L914.9,122.9 L915.1,108.6 L915.4,112.5 L915.7,102.1 L915.9,98.2 L916.2,94.3 L916.4,86.4 L916.7,111.2 L916.9,106.0 L917.2,107.3 L917.5,102.1 L917.7,85.1 L918.0,115.1 L918.2,92.9 L918.5,119.0 L918.8,109.9 L919.0,82.5 L919.3,90.3 L919.5,92.9 L919.8,117.7 L920.1,113.8 L920.3,91.6 L920.6,94.3 L920.8,112.5 L921.1,111.2 L921.4,90.3 L921.6,109.9 L921.9,90.3 L922.1,115.1 L922.4,85.1 L922.6,124.2 L922.9,86.4 L923.2,109.9 L923.4,92.9 L923.7,113.8 L923.9,119.0 L924.2,86.4 L924.5,122.9 L924.7,109.9 L925.0,106.0 L925.2,129.4 L925.5,90.3 L925.8,111.2 L926.0,108.6 L926.3,104.7 L926.5,113.8 L926.8,108.6 L927.1,95.6 L927.3,102.1 L927.6,115.1 L927.8,106.0 L928.1,124.2 L928.3,104.7 L928.6,108.6 L928.9,116.4 L929.1,87.7 L929.4,120.3 L929.6,100.8 L929.9,85.1 L930.2,126.8 L930.4,86.4 L930.7,92.9 L930.9,116.4 L931.2,102.1 L931.5,107.3 L931.7,95.6 L932.0,111.2 L932.2,111.2 L932.5,111.2 L932.7,120.3 L933.0,113.8 L933.3,87.7 L933.5,100.8 L933.8,113.8 L934.0,111.2 L934.3,106.0 L934.6,98.2 L934.8,111.2 L935.1,85.1 L935.3,119.0 L935.6,122.9 L935.9,104.7 L936.1,89.0 L936.4,89.0 L936.6,86.4 L936.9,121.6 L937.2,100.8 L937.4,102.1 L937.7,120.3 L937.9,106.0 L938.2,120.3 L938.4,83.8 L938.7,99.5 L939.0,87.7 L939.2,122.9 L939.5,124.2 L939.7,83.8 L940.0,94.3 L940.3,121.6 L940.5,122.9 L940.8,104.7 L941.0,125.5 L941.3,92.9 L941.6,91.6 L941.8,113.8 L942.1,107.3 L942.3,108.6 L942.6,94.3 L942.8,126.8 L943.1,83.8 L943.4,130.8 L943.6,109.9 L943.9,119.0 L944.1,109.9 L944.4,96.9 L944.7,126.8 L944.9,107.3 L945.2,111.2 L945.4,129.4 L945.7,116.4 L946.0,94.3 L946.2,100.8 L946.5,130.8 L946.7,100.8 L947.0,120.3 L947.3,90.3 L947.5,112.5 L947.8,106.0 L948.0,121.6 L948.3,128.1 L948.5,100.8 L948.8,95.6 L949.1,109.9 L949.3,100.8 L949.6,116.4 L949.8,116.4 L950.1,107.3 L950.4,117.7 L950.6,94.3 L950.9,109.9 L951.1,95.6 L951.4,126.8 L951.7,99.5 L951.9,94.3 L952.2,132.1 L952.4,89.0 L952.7,117.7 L952.9,132.1 L953.2,126.8 L953.5,122.9 L953.7,109.9 L954.0,121.6 L954.2,102.1 L954.5,87.7 L954.8,106.0 L955.0,119.0 L955.3,102.1 L955.5,89.0 L955.8,108.6 L956.1,112.5 L956.3,98.2 L956.6,128.1 L956.8,103.4 L957.1,115.1 L957.4,108.6 L957.6,111.2 L957.9,122.9 L958.1,86.4 L958.4,112.5 L958.6,121.6 L958.9,82.5 L959.2,112.5 L959.4,126.8 L959.7,91.6 L959.9,108.6 L960.2,92.9 L960.5,108.6 L960.7,111.2 L961.0,107.3 L961.2,111.2 L961.5,125.5 L961.8,121.6 L962.0,106.0 L962.3,104.7 L962.5,108.6 L962.8,99.5 L963.1,107.3 L963.3,96.9 L963.6,90.3 L963.8,113.8 L964.1,112.5 L964.3,115.1 L964.6,76.0 L964.9,96.9 L965.1,90.3 L965.4,92.9 L965.6,125.5 L965.9,112.5 L966.2,104.7 L966.4,92.9 L966.7,126.8 L966.9,87.7 L967.2,116.4 L967.5,106.0 L967.7,122.9 L968.0,90.3 L968.2,116.4 L968.5,100.8 L968.7,120.3 L969.0,89.0 L969.3,129.4 L969.5,125.5 L969.8,119.0 L970.0,128.1 L970.3,85.1 L970.6,109.9 L970.8,128.1 L971.1,117.7 L971.3,92.9 L971.6,109.9 L971.9,125.5 L972.1,125.5 L972.4,104.7 L972.6,121.6 L972.9,112.5 L973.2,83.8 L973.4,132.1 L973.7,102.1 L973.9,108.6 L974.2,113.8 L974.4,96.9 L974.7,99.5 L975.0,99.5 L975.2,119.0 L975.5,99.5 L975.7,95.6 L976.0,113.8 L976.3,91.6 L976.5,100.8 L976.8,89.0 L977.0,125.5 L977.3,115.1 L977.6,89.0 L977.8,102.1 L978.1,126.8 L978.3,103.4 L978.6,96.9 L978.8,122.9 L979.1,95.6 L979.4,125.5 L979.6,109.9 L979.9,109.9 L980.1,132.1 L980.4,116.4 L980.7,112.5 L980.9,125.5 L981.2,116.4 L981.4,91.6 L981.7,106.0 L982.0,119.0 L982.2,83.8 L982.5,125.5 L982.7,95.6 L983.0,116.4 L983.3,96.9 L983.5,115.1 L983.8,96.9 L984.0,95.6 L984.3,96.9 L984.5,115.1 L984.8,90.3 L985.1,106.0 L985.3,98.2 L985.6,102.1 L985.8,112.5 L986.1,106.0 L986.4,113.8 L986.6,102.1 L986.9,112.5 L987.1,120.3 L987.4,120.3 L987.7,78.6 L987.9,129.4 L988.2,92.9 L988.4,100.8 L988.7,116.4 L988.9,99.5 L989.2,120.3 L989.5,104.7 L989.7,100.8 L990.0,106.0 L990.2,91.6 L990.5,104.7 L990.8,98.2 L991.0,109.9 L991.3,108.6 L991.5,89.0 L991.8,108.6 L992.1,99.5 L992.3,103.4 L992.6,90.3 L992.8,91.6 L993.1,95.6 L993.4,98.2 L993.6,89.0 L993.9,95.6 L994.1,119.0 L994.4,104.7 L994.6,109.9 L994.9,92.9 L995.2,111.2 L995.4,81.2 L995.7,126.8 L995.9,107.3 L996.2,112.5 L996.5,98.2 L996.7,102.1 L997.0,99.5 L997.2,128.1 L997.5,83.8 L997.8,96.9 L998.0,92.9 L998.3,99.5 L998.5,108.6 L998.8,87.7 L999.1,126.8 L999.3,124.2 L999.6,122.9 L999.8,104.7 L1000.1,106.0 L1000.3,115.1 L1000.6,112.5 L1000.9,116.4 L1001.1,83.8 L1001.4,130.8 L1001.6,103.4 L1001.9,120.3 L1002.2,95.6 L1002.4,132.1 L1002.7,111.2 L1002.9,129.4 L1003.2,125.5 L1003.5,111.2 L1003.7,104.7 L1004.0,121.6 L1004.2,95.6 L1004.5,102.1 L1004.7,98.2 L1005.0,96.9 L1005.3,106.0 L1005.5,111.2 L1005.8,112.5 L1006.0,115.1 L1006.3,89.0 L1006.6,111.2 L1006.8,109.9 L1007.1,113.8 L1007.3,90.3 L1007.6,125.5 L1007.9,79.9 L1008.1,126.8 L1008.4,117.7 L1008.6,106.0 L1008.9,112.5 L1009.2,119.0 L1009.4,120.3 L1009.7,95.6 L1009.9,124.2 L1010.2,125.5 L1010.4,119.0 L1010.7,119.0 L1011.0,108.6 L1011.2,104.7 L1011.5,122.9 L1011.7,79.9 L1012.0,91.6 L1012.3,107.3 L1012.5,104.7 L1012.8,115.1 L1013.0,94.3 L1013.3,103.4 L1013.6,108.6 L1013.8,104.7 L1014.1,81.2 L1014.3,98.2 L1014.6,89.0 L1014.8,113.8 L1015.1,116.4 L1015.4,98.2 L1015.6,108.6 L1015.9,99.5 L1016.1,98.2 L1016.4,120.3 L1016.7,91.6 L1016.9,104.7 L1017.2,95.6 L1017.4,106.0 L1017.7,87.7 L1018.0,96.9 L1018.2,124.2 L1018.5,107.3 L1018.7,122.9 L1019.0,99.5 L1019.3,121.6 L1019.5,117.7 L1019.8,102.1 L1020.0,117.7 L1020.3,96.9 L1020.5,108.6 L1020.8,117.7 L1021.1,85.1 L1021.3,112.5 L1021.6,117.7 L1021.8,121.6 L1022.1,90.3 L1022.4,89.0 L1022.6,119.0 L1022.9,95.6 L1023.1,109.9 L1023.4,102.1 L1023.7,99.5 L1023.9,102.1 L1024.2,94.3 L1024.4,96.9 L1024.7,104.7 L1024.9,90.3 L1025.2,113.8 L1025.5,117.7 L1025.7,103.4 L1026.0,111.2 L1026.2,107.3 L1026.5,108.6 L1026.8,89.0 L1027.0,121.6 L1027.3,92.9 L1027.5,92.9 L1027.8,95.6 L1028.1,126.8 L1028.3,112.5 L1028.6,115.1 L1028.8,89.0 L1029.1,90.3 L1029.4,126.8 L1029.6,103.4 L1029.9,126.8 L1030.1,121.6 L1030.4,95.6 L1030.6,119.0 L1030.9,111.2 L1031.2,106.0 L1031.4,91.6 L1031.7,120.3 L1031.9,90.3 L1032.2,111.2 L1032.5,89.0 L1032.7,113.8 L1033.0,92.9 L1033.2,124.2 L1033.5,107.3 L1033.8,102.1 L1034.0,116.4 L1034.3,100.8 L1034.5,94.3 L1034.8,122.9 L1035.1,129.4 L1035.3,99.5 L1035.6,124.2 L1035.8,94.3 L1036.1,125.5 L1036.3,94.3 L1036.6,132.1 L1036.9,130.8 L1037.1,117.7 L1037.4,109.9 L1037.6,96.9 L1037.9,122.9 L1038.2,99.5 L1038.4,108.6 L1038.7,130.8 L1038.9,124.2 L1039.2,113.8 L1039.5,106.0 L1039.7,90.3 L1040.0,133.4 L1040.2,104.7 L1040.5,103.4 L1040.7,103.4 L1041.0,115.1 L1041.3,90.3 L1041.5,104.7 L1041.8,117.7 L1042.0,87.7 L1042.3,96.9 L1042.6,129.4 L1042.8,116.4 L1043.1,96.9 L1043.3,108.6 L1043.6,113.8 L1043.9,113.8 L1044.1,116.4 L1044.4,85.1 L1044.6,116.4 L1044.9,120.3 L1045.2,92.9 L1045.4,104.7 L1045.7,107.3 L1045.9,99.5 L1046.2,126.8 L1046.4,82.5 L1046.7,107.3 L1047.0,91.6 L1047.2,109.9 L1047.5,106.0 L1047.7,90.3 L1048.0,94.3 L1048.3,122.9 L1048.5,107.3 L1048.8,126.8 L1049.0,86.4 L1049.3,103.4 L1049.6,128.1 L1049.8,86.4 L1050.1,116.4 L1050.3,133.4 L1050.6,92.9 L1050.8,137.3 L1051.1,95.6 L1051.4,124.2 L1051.6,128.1 L1051.9,99.5 L1052.1,115.1 L1052.4,96.9 L1052.7,116.4 L1052.9,119.0 L1053.2,103.4 L1053.4,99.5 L1053.7,111.2 L1054.0,116.4 L1054.2,92.9 L1054.5,99.5 L1054.7,106.0 L1055.0,108.6 L1055.3,128.1 L1055.5,85.1 L1055.8,112.5 L1056.0,92.9 L1056.3,107.3 L1056.5,124.2 L1056.8,113.8 L1057.1,109.9 L1057.3,108.6 L1057.6,98.2 L1057.8,120.3 L1058.1,108.6 L1058.4,86.4 L1058.6,125.5 L1058.9,126.8 L1059.1,87.7 L1059.4,111.2 L1059.7,94.3 L1059.9,134.7 L1060.2,119.0 L1060.4,99.5 L1060.7,103.4 L1060.9,132.1 L1061.2,124.2 L1061.5,103.4 L1061.7,104.7 L1062.0,125.5 L1062.2,94.3 L1062.5,113.8 L1062.8,119.0 L1063.0,113.8 L1063.3,86.4 L1063.5,119.0 L1063.8,121.6 L1064.1,89.0 L1064.3,109.9 L1064.6,115.1 L1064.8,104.7 L1065.1,92.9 L1065.4,128.1 L1065.6,108.6 L1065.9,108.6 L1066.1,111.2 L1066.4,115.1 L1066.6,95.6 L1066.9,111.2 L1067.2,111.2 L1067.4,109.9 L1067.7,111.2 L1067.9,116.4 L1068.2,113.8 L1068.5,81.2 L1068.7,100.8 L1069.0,99.5 L1069.2,95.6 L1069.5,108.6 L1069.8,111.2 L1070.0,119.0 L1070.3,96.9 L1070.5,120.3 L1070.8,91.6 L1071.1,86.4 L1071.3,102.1 L1071.6,108.6 L1071.8,85.1 L1072.1,128.1 L1072.3,91.6 L1072.6,108.6 L1072.9,99.5 L1073.1,113.8 L1073.4,87.7 L1073.6,125.5 L1073.9,90.3 L1074.2,100.8 L1074.4,124.2 L1074.7,89.0 L1074.9,130.8 L1075.2,113.8 L1075.5,109.9 L1075.7,111.2 L1076.0,129.4 L1076.2,121.6 L1076.5,119.0 L1076.7,145.1 L1077.0,151.6 L1077.3,159.4 L1077.5,146.4 L1077.8,132.1 L1078.0,175.1 L1078.3,190.7 L1078.6,171.2 L1078.8,195.9 L1079.1,186.8 L1079.3,198.5 L1079.6,188.1 L1079.9,203.8 L1080.1,189.4 L1080.4,189.4 L1080.6,215.5 L1080.9,233.7 L1081.2,212.9 L1081.4,227.2 L1081.7,231.1 L1081.9,239.0 L1082.2,246.8 L1082.4,235.0 L1082.7,239.0 L1083.0,240.3 L1083.2,262.4 L1083.5,249.4 L1083.7,261.1 L1084.0,280.7" fill="none" stroke="#ff7f0e" stroke-width="1.1" opacity="0.85"/><text x="616" y="572" font-size="11" fill="#888">time 0..36 s — altitude (blue) &amp; roll (orange)</text></svg>