<svg xmlns="http://www.w3.org/2000/svg" width="1140" height="600" font-family="sans-serif" font-size="13"><rect width="1140" height="600" fill="white"/><text x="20" y="26" font-size="15" fill="#333">Coludo flight</text><rect x="20" y="40" width="540" height="540" fill="#fbfbfb" stroke="#ddd"/><rect x="172" y="250" width="358" height="77" fill="#cde" stroke="#369" opacity="0.7"/><text x="172" y="245" fill="#369" font-size="12">landing zone</text><circle cx="399" cy="370" r="5" fill="black"/><text x="407" y="374" font-size="12">pad</text><path d="M398.6,370.1 L398.6,370.1 L398.6,370.1 L398.6,370.1 L398.6,370.1 L398.6,370.1 L398.6,370.1 L398.6,370.1 L398.6,370.1 L398.6,370.1 L398.6,370.1 L398.6,370.1 L398.6,370.1 L398.6,370.1 L398.6,370.1 L398.6,370.1 L398.6,370.1 L398.6,370.1 L398.6,370.1 L398.6,370.1 L398.6,370.1 L398.6,370.1 L398.6,370.1 L398.6,370.1 L398.6,370.1 L398.6,370.1 L398.6,370.1 L398.6,370.1 L398.6,370.1 L398.6,370.1 L398.6,370.1 L398.6,370.1 L398.6,370.1 L398.6,370.1 L398.6,370.1 L398.6,370.1 L398.6,370.1 L398.6,370.1 L398.6,370.1 L398.6,370.1 L398.6,370.1 L398.6,370.1 L398.6,370.1 L398.6,370.1 L398.6,370.1 L398.6,370.1 L398.6,370.1 L398.6,370.1 L398.6,370.1 L398.6,370.1 L398.6,370.1 L398.6,370.1 L398.6,370.1 L398.6,370.1 L398.6,370.1 L398.6,370.1 L398.6,370.1 L398.6,370.1 L398.8,369.7 L399.3,368.9 L399.9,367.8 L400.7,367.0 L401.4,366.1 L402.2,365.3 L403.0,364.4 L403.9,363.5 L404.9,362.9 L406.1,362.3 L407.0,361.6 L408.2,361.0 L409.3,360.6 L410.7,359.9 L411.8,359.5 L413.2,359.1 L414.5,358.7 L415.9,358.4 L417.2,358.0 L418.6,357.6 L419.9,357.4 L421.2,356.9 L422.8,356.7 L424.1,356.3 L425.7,356.1 L427.0,355.9 L428.5,355.7 L430.1,355.5 L431.4,355.2 L433.0,355.0 L434.5,354.8 L436.0,354.6 L437.6,354.6 L439.1,354.4 L440.6,354.2 L442.2,354.2 L443.7,354.0 L445.3,353.8 L446.8,353.5 L448.3,353.5 L449.9,353.3 L451.4,353.1 L452.9,353.1 L454.5,352.9 L456.0,352.7 L457.6,352.7 L458.9,352.5 L460.4,352.3 L462.0,352.3 L463.5,352.1 L465.1,351.8 L466.6,351.6 L467.9,351.4 L469.5,351.2 L470.8,350.8 L472.4,350.6 L473.7,350.3 L475.0,349.9 L476.6,349.7 L477.9,349.3 L479.3,349.1 L480.6,348.6 L482.0,348.2 L483.3,347.8 L484.7,347.4 L485.8,346.9 L487.1,346.5 L488.3,346.1 L489.6,345.5 L490.8,345.0 L492.0,344.4 L493.1,344.0 L494.3,343.3 L495.4,342.7 L496.4,342.0 L497.5,341.4 L498.7,340.8 L499.6,340.1 L500.6,339.5 L501.8,338.9 L502.7,338.0 L503.7,337.4 L504.6,336.5 L505.4,335.9 L506.4,335.0 L507.1,334.2 L508.1,333.3 L508.9,332.5 L509.6,331.6 L510.4,330.8 L511.2,329.9 L511.9,329.1 L512.7,328.2 L513.3,327.1 L514.1,326.3 L514.6,325.2 L515.2,324.4 L515.6,323.3 L516.0,322.2 L516.4,321.0 L516.5,319.9 L516.7,318.6 L516.7,317.3 L516.7,316.3 L516.7,315.0 L516.5,313.5 L516.4,312.2 L516.0,311.0 L515.6,309.5 L515.0,308.2 L514.4,306.7 L513.7,305.4 L512.9,303.9 L511.9,302.4 L511.0,301.2 L509.8,299.7 L508.7,298.2 L507.5,296.9 L506.0,295.4 L504.6,294.1 L503.1,292.6 L501.6,291.4 L499.8,289.9 L498.1,288.6 L496.2,287.3 L494.3,286.0 L492.1,284.8 L490.0,283.5 L487.9,282.2 L485.6,281.1 L483.3,279.9 L480.8,278.8 L478.3,277.7 L475.8,276.7 L473.1,275.8 L470.4,274.8 L467.6,273.9 L464.7,273.1 L461.8,272.2 L458.9,271.6 L455.8,270.7 L452.6,270.1 L449.5,269.4 L446.2,269.0 L443.0,268.6 L439.5,268.2 L436.2,267.7 L432.6,267.3 L429.1,267.1 L425.7,266.9 L422.0,266.9 L418.4,266.9 L414.5,266.9 L410.9,266.9 L407.0,267.1 L403.2,267.3 L399.3,267.5 L395.5,267.9 L391.5,268.4 L387.4,268.8 L383.6,269.4 L379.5,270.1 L375.5,270.7 L371.3,271.6 L367.2,272.4 L363.0,273.3 L359.0,274.3 L354.8,275.4 L350.5,276.7 L346.3,278.0 L342.1,279.2 L337.8,280.7 L333.6,282.2 L329.4,283.9 L325.2,285.6 L320.9,287.3 L316.7,289.2 L312.5,291.2 L308.3,293.1 L304.0,295.0 L299.8,296.9 L295.6,299.0 L291.3,301.0 L286.9,302.9 L282.7,304.8 L278.5,306.7 L274.2,308.6 L270.0,310.5 L265.8,312.4 L261.6,314.2 L257.3,316.1 L253.1,317.8 L248.9,319.5 L244.7,321.2 L240.4,322.7 L236.0,324.4 L231.8,325.9 L227.6,327.1 L223.5,328.4 L219.3,329.7 L215.1,331.0 L210.8,332.2 L206.6,333.3 L202.6,334.4 L198.3,335.2 L194.3,336.1 L190.1,336.9 L186.0,337.8 L182.0,338.4 L178.0,339.1 L174.1,339.5 L170.1,339.9 L166.3,340.3 L162.4,340.6 L158.6,340.8 L154.7,341.0 L151.5,341.0 L148.4,341.0 L145.3,341.0 L142.4,341.0 L139.4,340.8 L136.5,340.8 L133.4,340.6 L130.5,340.1 L127.6,339.9 L124.9,339.5 L122.1,339.3 L119.4,338.9 L116.7,338.2 L114.0,337.8 L111.5,337.1 L109.0,336.7 L106.3,336.1 L104.0,335.4 L101.5,334.6 L99.2,334.0 L96.9,333.3 L94.6,332.5 L92.3,331.6 L90.2,330.8 L88.0,329.9 L85.9,329.1 L84.0,328.0 L82.1,327.1 L80.2,326.1 L78.2,325.2 L76.5,324.2 L74.8,323.1 L73.1,322.0 L71.3,321.0 L69.8,319.9 L68.3,318.8 L66.9,317.6 L65.6,316.5 L64.2,315.4 L62.9,314.2 L61.7,313.1 L60.6,311.8 L59.4,310.7 L58.3,309.5 L57.3,308.4 L56.5,307.1 L55.6,306.1 L54.8,304.8 L54.0,303.5 L53.5,302.4 L52.7,301.2 L52.3,300.1 L51.7,298.8 L51.3,297.8 L51.0,296.7 L50.6,295.4 L50.4,294.4 L50.2,293.3 L50.0,292.2 L50.0,291.2 L50.0,290.1 L50.0,289.0 L50.2,288.0 L50.4,287.1 L50.6,286.0 L50.8,285.2 L51.2,284.3 L51.5,283.3 L51.9,282.4 L52.5,281.8 L53.1,280.9 L53.7,280.1 L54.2,279.4 L55.0,278.8 L55.8,278.2 L56.5,277.5 L57.5,277.1 L58.5,276.5" fill="none" stroke="#1f77b4" stroke-width="1.7" opacity="0.85"/><circle cx="58" cy="276" r="4.5" fill="#1f77b4"/><text x="28" y="572" font-size="11" fill="#888">ground track — m from pad (N up)</text><rect x="580" y="40" width="540" height="540" fill="#fbfbfb" stroke="#ddd"/><text x="586" y="54" fill="#1f77b4" font-size="11">alt 300</text><text x="586" y="558" fill="#1f77b4" font-size="11">2</text><path d="M616.0,543.3 L616.2,544.0 L616.5,543.5 L616.7,543.2 L616.9,543.0 L617.2,543.8 L617.4,542.8 L617.6,542.7 L617.9,543.2 L618.1,542.6 L618.4,543.2 L618.6,542.7 L618.8,542.8 L619.1,542.2 L619.3,541.7 L619.5,541.9 L619.8,541.8 L620.0,541.3 L620.2,540.6 L620.5,541.2 L620.7,540.3 L620.9,540.5 L621.2,539.8 L621.4,539.2 L621.6,539.8 L621.9,539.3 L622.1,539.3 L622.3,538.3 L622.6,536.9 L622.8,537.3 L623.1,536.7 L623.3,537.3 L623.5,534.6 L623.8,534.0 L624.0,535.4 L624.2,535.6 L624.5,533.4 L624.7,534.7 L624.9,532.7 L625.2,532.6 L625.4,532.0 L625.6,531.1 L625.9,528.5 L626.1,531.1 L626.3,530.3 L626.6,528.6 L626.8,527.5 L627.0,525.4 L627.3,524.7 L627.5,527.2 L627.8,524.1 L628.0,523.7 L628.2,525.0 L628.5,524.0 L628.7,521.4 L628.9,523.4 L629.2,519.0 L629.4,518.4 L629.6,518.3 L629.9,517.8 L630.1,518.4 L630.3,516.1 L630.6,516.5 L630.8,517.0 L631.0,511.7 L631.3,509.2 L631.5,513.9 L631.7,513.6 L632.0,509.7 L632.2,504.7 L632.5,507.0 L632.7,510.2 L632.9,509.1 L633.2,502.1 L633.4,501.1 L633.6,505.4 L633.9,502.6 L634.1,500.8 L634.3,500.8 L634.6,495.9 L634.8,499.4 L635.0,499.5 L635.3,496.0 L635.5,495.9 L635.7,491.2 L636.0,488.0 L636.2,494.8 L636.5,484.3 L636.7,484.6 L636.9,491.1 L637.2,486.5 L637.4,480.4 L637.6,481.5 L637.9,473.7 L638.1,478.9 L638.3,480.0 L638.6,477.9 L638.8,469.9 L639.0,467.7 L639.3,477.9 L639.5,473.6 L639.7,467.0 L640.0,470.0 L640.2,464.0 L640.4,471.0 L640.7,461.0 L640.9,461.4 L641.2,459.7 L641.4,462.0 L641.6,448.2 L641.9,461.9 L642.1,449.0 L642.3,448.9 L642.6,447.3 L642.8,456.5 L643.0,452.0 L643.3,454.1 L643.5,453.9 L643.7,433.2 L644.0,437.8 L644.2,447.8 L644.4,427.0 L644.7,433.4 L644.9,437.8 L645.1,441.4 L645.4,438.3 L645.6,419.5 L645.9,433.0 L646.1,426.3 L646.3,416.6 L646.6,424.2 L646.8,410.9 L647.0,423.0 L647.3,421.5 L647.5,415.2 L647.7,400.4 L648.0,413.5 L648.2,413.8 L648.4,395.5 L648.7,397.0 L648.9,406.0 L649.1,397.4 L649.4,398.2 L649.6,392.4 L649.8,390.8 L650.1,402.2 L650.3,403.4 L650.6,381.5 L650.8,394.1 L651.0,396.9 L651.3,381.0 L651.5,381.1 L651.7,369.9 L652.0,393.9 L652.2,378.4 L652.4,388.7 L652.7,359.4 L652.9,376.4 L653.1,349.2 L653.4,362.0 L653.6,366.0 L653.8,346.1 L654.1,359.3 L654.3,373.0 L654.5,373.1 L654.8,336.8 L655.0,350.2 L655.3,348.2 L655.5,340.3 L655.7,333.4 L656.0,338.4 L656.2,350.1 L656.4,315.8 L656.7,345.8 L656.9,311.7 L657.1,312.4 L657.4,318.1 L657.6,334.7 L657.8,325.8 L658.1,305.4 L658.3,319.8 L658.5,336.0 L658.8,305.3 L659.0,301.0 L659.3,312.5 L659.5,299.0 L659.7,294.2 L660.0,284.5 L660.2,290.5 L660.4,309.7 L660.7,307.1 L660.9,279.4 L661.1,312.9 L661.4,275.6 L661.6,263.0 L661.8,280.1 L662.1,306.0 L662.3,277.0 L662.5,285.5 L662.8,261.0 L663.0,252.0 L663.2,253.3 L663.5,258.3 L663.7,271.1 L664.0,289.6 L664.2,271.2 L664.4,270.1 L664.7,244.0 L664.9,240.4 L665.1,279.4 L665.4,285.4 L665.6,269.6 L665.8,258.7 L666.1,241.9 L666.3,226.4 L666.5,233.6 L666.8,261.9 L667.0,241.7 L667.2,258.4 L667.5,258.6 L667.7,225.6 L667.9,208.5 L668.2,208.1 L668.4,235.7 L668.7,253.0 L668.9,261.1 L669.1,256.1 L669.4,196.2 L669.6,256.0 L669.8,224.5 L670.1,212.3 L670.3,222.9 L670.5,227.4 L670.8,220.6 L671.0,203.3 L671.2,224.1 L671.5,240.9 L671.7,203.3 L671.9,233.6 L672.2,228.1 L672.4,183.6 L672.6,209.3 L672.9,217.0 L673.1,221.5 L673.4,228.3 L673.6,176.9 L673.8,189.1 L674.1,225.4 L674.3,187.6 L674.5,160.1 L674.8,222.2 L675.0,173.0 L675.2,193.1 L675.5,212.2 L675.7,170.2 L675.9,169.2 L676.2,165.8 L676.4,179.1 L676.6,183.2 L676.9,182.1 L677.1,182.2 L677.4,169.8 L677.6,196.0 L677.8,165.9 L678.1,182.6 L678.3,156.4 L678.5,151.1 L678.8,136.5 L679.0,124.5 L679.2,182.2 L679.5,145.9 L679.7,192.0 L679.9,144.0 L680.2,138.2 L680.4,188.3 L680.6,175.1 L680.9,126.5 L681.1,124.1 L681.3,151.0 L681.6,171.2 L681.8,186.2 L682.1,113.0 L682.3,158.3 L682.5,150.8 L682.8,124.6 L683.0,120.5 L683.2,138.1 L683.5,131.4 L683.7,115.4 L683.9,168.5 L684.2,124.3 L684.4,118.0 L684.6,99.4 L684.9,150.6 L685.1,112.6 L685.3,162.5 L685.6,122.9 L685.8,98.4 L686.0,105.7 L686.3,129.5 L686.5,130.3 L686.8,130.5 L687.0,123.0 L687.2,105.8 L687.5,105.6 L687.7,117.1 L687.9,102.6 L688.2,81.0 L688.4,101.7 L688.6,135.5 L688.9,147.1 L689.1,123.5 L689.3,120.4 L689.6,154.9 L689.8,126.6 L690.0,83.8 L690.3,155.8 L690.5,126.0 L690.7,86.4 L691.0,99.6 L691.2,94.5 L691.5,144.6 L691.7,141.0 L691.9,125.6 L692.2,124.6 L692.4,85.9 L692.6,104.0 L692.9,92.4 L693.1,121.4 L693.3,106.4 L693.6,86.5 L693.8,78.4 L694.0,135.4 L694.3,144.9 L694.5,145.7 L694.7,143.9 L695.0,96.9 L695.2,80.5 L695.4,91.7 L695.7,91.6 L695.9,114.8 L696.2,153.7 L696.4,86.0 L696.6,112.6 L696.9,114.6 L697.1,156.7 L697.3,139.7 L697.6,91.9 L697.8,121.9 L698.0,104.7 L698.3,136.1 L698.5,138.7 L698.7,125.8 L699.0,82.8 L699.2,91.3 L699.4,136.8 L699.7,150.5 L699.9,89.9 L700.2,109.9 L700.4,123.1 L700.6,107.5 L700.9,128.3 L701.1,151.0 L701.3,153.5 L701.6,94.0 L701.8,126.4 L702.0,104.8 L702.3,97.9 L702.5,90.5 L702.7,157.4 L703.0,154.4 L703.2,114.8 L703.4,153.2 L703.7,154.3 L703.9,91.2 L704.1,157.1 L704.4,102.2 L704.6,129.4 L704.9,146.9 L705.1,120.0 L705.3,106.1 L705.6,106.2 L705.8,83.2 L706.0,127.5 L706.3,107.7 L706.5,104.9 L706.7,94.7 L707.0,77.3 L707.2,142.2 L707.4,129.0 L707.7,118.4 L707.9,81.3 L708.1,131.8 L708.4,118.7 L708.6,120.9 L708.8,105.3 L709.1,98.2 L709.3,101.3 L709.6,121.3 L709.8,135.7 L710.0,125.8 L710.3,126.2 L710.5,79.9 L710.7,87.7 L711.0,160.7 L711.2,137.5 L711.4,151.3 L711.7,102.6 L711.9,139.7 L712.1,76.0 L712.4,85.3 L712.6,76.5 L712.8,85.6 L713.1,160.5 L713.3,83.0 L713.5,123.3 L713.8,110.4 L714.0,143.8 L714.3,147.9 L714.5,138.7 L714.7,122.3 L715.0,77.4 L715.2,89.6 L715.4,146.5 L715.7,136.9 L715.9,81.9 L716.1,133.3 L716.4,115.8 L716.6,104.5 L716.8,127.3 L717.1,85.3 L717.3,113.5 L717.5,154.8 L717.8,139.5 L718.0,144.2 L718.3,149.7 L718.5,88.3 L718.7,82.1 L719.0,79.6 L719.2,162.6 L719.4,100.0 L719.7,91.8 L719.9,97.7 L720.1,127.7 L720.4,135.8 L720.6,118.9 L720.8,154.8 L721.1,117.3 L721.3,158.6 L721.5,154.3 L721.8,84.0 L722.0,116.0 L722.2,129.9 L722.5,101.2 L722.7,83.8 L723.0,149.6 L723.2,115.8 L723.4,90.8 L723.7,154.7 L723.9,99.0 L724.1,94.5 L724.4,155.4 L724.6,106.1 L724.8,119.9 L725.1,161.5 L725.3,86.9 L725.5,141.0 L725.8,89.9 L726.0,135.7 L726.2,86.3 L726.5,166.5 L726.7,137.5 L726.9,130.6 L727.2,102.9 L727.4,92.8 L727.7,159.6 L727.9,154.6 L728.1,105.2 L728.4,108.9 L728.6,84.1 L728.8,85.3 L729.1,89.9 L729.3,155.5 L729.5,167.8 L729.8,119.0 L730.0,93.2 L730.2,156.1 L730.5,97.5 L730.7,146.7 L730.9,144.7 L731.2,84.8 L731.4,136.6 L731.6,147.9 L731.9,107.5 L732.1,164.2 L732.4,130.6 L732.6,102.1 L732.8,88.2 L733.1,140.9 L733.3,115.0 L733.5,88.4 L733.8,164.1 L734.0,87.5 L734.2,94.3 L734.5,97.4 L734.7,96.5 L734.9,105.5 L735.2,165.7 L735.4,157.0 L735.6,157.5 L735.9,104.0 L736.1,111.2 L736.3,135.9 L736.6,137.0 L736.8,116.4 L737.1,118.2 L737.3,150.4 L737.5,165.2 L737.8,148.9 L738.0,158.5 L738.2,163.9 L738.5,93.9 L738.7,129.6 L738.9,141.1 L739.2,100.3 L739.4,156.5 L739.6,151.6 L739.9,164.8 L740.1,163.8 L740.3,146.9 L740.6,90.1 L740.8,102.0 L741.1,110.1 L741.3,130.7 L741.5,143.9 L741.8,147.3 L742.0,108.7 L742.2,161.6 L742.5,141.6 L742.7,143.2 L742.9,126.3 L743.2,110.7 L743.4,97.4 L743.6,144.6 L743.9,113.9 L744.1,113.3 L744.3,160.3 L744.6,104.8 L744.8,125.2 L745.0,101.0 L745.3,118.5 L745.5,121.3 L745.8,170.3 L746.0,122.5 L746.2,142.5 L746.5,168.5 L746.7,150.6 L746.9,174.9 L747.2,127.6 L747.4,175.1 L747.6,156.0 L747.9,160.0 L748.1,166.0 L748.3,102.8 L748.6,104.0 L748.8,128.6 L749.0,119.1 L749.3,102.8 L749.5,161.5 L749.7,115.1 L750.0,158.0 L750.2,170.9 L750.5,169.5 L750.7,142.9 L750.9,118.3 L751.2,143.7 L751.4,153.0 L751.6,137.1 L751.9,159.2 L752.1,172.1 L752.3,137.3 L752.6,166.8 L752.8,164.1 L753.0,119.8 L753.3,145.0 L753.5,113.4 L753.7,153.6 L754.0,170.1 L754.2,129.6 L754.4,172.7 L754.7,146.8 L754.9,176.2 L755.2,173.3 L755.4,133.6 L755.6,105.8 L755.9,156.9 L756.1,178.8 L756.3,162.7 L756.6,174.5 L756.8,168.2 L757.0,144.7 L757.3,161.1 L757.5,117.6 L757.7,145.2 L758.0,181.6 L758.2,150.4 L758.4,121.7 L758.7,148.1 L758.9,118.7 L759.2,166.7 L759.4,115.1 L759.6,152.2 L759.9,168.5 L760.1,183.3 L760.3,181.0 L760.6,130.8 L760.8,177.6 L761.0,166.3 L761.3,127.3 L761.5,124.6 L761.7,141.2 L762.0,109.0 L762.2,183.8 L762.4,136.1 L762.7,133.5 L762.9,181.2 L763.1,162.6 L763.4,178.6 L763.6,126.9 L763.9,113.5 L764.1,142.8 L764.3,127.7 L764.6,125.6 L764.8,161.1 L765.0,174.6 L765.3,109.5 L765.5,153.4 L765.7,112.2 L766.0,169.2 L766.2,124.9 L766.4,133.7 L766.7,122.3 L766.9,136.3 L767.1,170.7 L767.4,122.7 L767.6,124.3 L767.8,157.9 L768.1,121.8 L768.3,187.2 L768.6,164.9 L768.8,155.8 L769.0,130.9 L769.3,126.8 L769.5,181.8 L769.7,180.0 L770.0,155.7 L770.2,112.7 L770.4,180.8 L770.7,155.9 L770.9,187.2 L771.1,121.6 L771.4,154.4 L771.6,168.1 L771.8,179.8 L772.1,185.6 L772.3,134.8 L772.5,168.0 L772.8,136.4 L773.0,116.4 L773.3,174.3 L773.5,158.6 L773.7,186.0 L774.0,167.0 L774.2,120.9 L774.4,179.7 L774.7,191.0 L774.9,130.8 L775.1,188.9 L775.4,123.6 L775.6,152.0 L775.8,172.1 L776.1,114.2 L776.3,161.0 L776.5,146.2 L776.8,176.7 L777.0,188.1 L777.2,177.7 L777.5,152.6 L777.7,153.7 L778.0,181.6 L778.2,166.6 L778.4,151.0 L778.7,160.6 L778.9,142.5 L779.1,169.6 L779.4,160.8 L779.6,151.4 L779.8,157.0 L780.1,132.0 L780.3,183.8 L780.5,144.5 L780.8,138.2 L781.0,188.2 L781.2,175.6 L781.5,177.1 L781.7,150.4 L782.0,120.3 L782.2,145.6 L782.4,162.0 L782.7,129.4 L782.9,126.3 L783.1,177.4 L783.4,150.9 L783.6,147.1 L783.8,146.9 L784.1,154.6 L784.3,131.4 L784.5,187.1 L784.8,192.4 L785.0,147.1 L785.2,172.6 L785.5,152.8 L785.7,127.0 L785.9,141.8 L786.2,151.0 L786.4,161.6 L786.7,190.4 L786.9,149.5 L787.1,131.2 L787.4,150.5 L787.6,146.8 L787.8,190.4 L788.1,127.6 L788.3,157.8 L788.5,198.8 L788.8,150.0 L789.0,188.4 L789.2,182.4 L789.5,130.5 L789.7,148.1 L789.9,151.5 L790.2,126.6 L790.4,182.6 L790.6,152.4 L790.9,157.5 L791.1,131.0 L791.4,163.3 L791.6,184.2 L791.8,147.1 L792.1,127.4 L792.3,178.5 L792.5,133.5 L792.8,163.7 L793.0,175.3 L793.2,173.4 L793.5,198.6 L793.7,151.0 L793.9,182.2 L794.2,166.8 L794.4,196.4 L794.6,153.5 L794.9,201.0 L795.1,194.6 L795.3,157.7 L795.6,156.8 L795.8,164.5 L796.1,139.2 L796.3,144.8 L796.5,205.2 L796.8,140.0 L797.0,167.8 L797.2,133.5 L797.5,173.1 L797.7,178.0 L797.9,177.2 L798.2,194.6 L798.4,196.7 L798.6,188.8 L798.9,151.7 L799.1,200.1 L799.3,155.7 L799.6,138.7 L799.8,172.9 L800.1,179.3 L800.3,179.8 L800.5,138.8 L800.8,196.8 L801.0,174.1 L801.2,146.6 L801.5,153.5 L801.7,157.4 L801.9,165.4 L802.2,167.4 L802.4,205.4 L802.6,146.1 L802.9,174.2 L803.1,189.7 L803.3,184.8 L803.6,165.2 L803.8,170.5 L804.0,167.5 L804.3,193.1 L804.5,167.8 L804.8,202.6 L805.0,209.5 L805.2,197.7 L805.5,211.6 L805.7,167.2 L805.9,151.3 L806.2,167.5 L806.4,183.7 L806.6,151.6 L806.9,155.6 L807.1,152.9 L807.3,169.5 L807.6,187.4 L807.8,202.7 L808.0,141.6 L808.3,143.0 L808.5,181.4 L808.7,199.4 L809.0,170.9 L809.2,188.3 L809.5,151.7 L809.7,152.3 L809.9,207.6 L810.2,161.4 L810.4,200.5 L810.6,214.3 L810.9,145.0 L811.1,209.8 L811.3,165.4 L811.6,170.3 L811.8,210.6 L812.0,216.1 L812.3,187.5 L812.5,193.1 L812.7,218.0 L813.0,209.7 L813.2,165.7 L813.4,152.4 L813.7,212.0 L813.9,176.2 L814.2,203.1 L814.4,191.8 L814.6,158.1 L814.9,160.4 L815.1,169.0 L815.3,194.8 L815.6,183.1 L815.8,200.4 L816.0,154.0 L816.3,188.6 L816.5,200.8 L816.7,214.0 L817.0,175.9 L817.2,219.1 L817.4,219.5 L817.7,185.4 L817.9,166.2 L818.1,164.9 L818.4,152.1 L818.6,193.9 L818.9,196.9 L819.1,219.5 L819.3,176.6 L819.6,173.6 L819.8,183.3 L820.0,196.1 L820.3,197.3 L820.5,186.5 L820.7,164.8 L821.0,180.2 L821.2,201.3 L821.4,199.1 L821.7,197.7 L821.9,211.0 L822.1,159.8 L822.4,175.0 L822.6,183.4 L822.9,179.5 L823.1,174.2 L823.3,181.7 L823.6,217.5 L823.8,177.7 L824.0,219.5 L824.3,195.3 L824.5,203.5 L824.7,222.3 L825.0,193.2 L825.2,202.9 L825.4,228.0 L825.7,180.7 L825.9,184.2 L826.1,174.0 L826.4,170.5 L826.6,185.6 L826.8,214.3 L827.1,194.3 L827.3,162.7 L827.6,168.8 L827.8,199.9 L828.0,201.1 L828.3,184.9 L828.5,207.0 L828.7,205.8 L829.0,180.4 L829.2,178.3 L829.4,193.3 L829.7,161.9 L829.9,204.3 L830.1,165.9 L830.4,179.6 L830.6,203.9 L830.8,181.5 L831.1,164.4 L831.3,173.3 L831.5,202.8 L831.8,217.9 L832.0,180.8 L832.3,202.9 L832.5,189.9 L832.7,223.6 L833.0,212.3 L833.2,221.6 L833.4,230.0 L833.7,201.1 L833.9,186.4 L834.1,229.2 L834.4,224.1 L834.6,211.7 L834.8,185.3 L835.1,169.8 L835.3,216.4 L835.5,213.7 L835.8,211.7 L836.0,176.9 L836.2,211.7 L836.5,192.4 L836.7,175.4 L837.0,174.7 L837.2,218.3 L837.4,209.9 L837.7,177.8 L837.9,205.2 L838.1,192.3 L838.4,214.1 L838.6,181.2 L838.8,182.0 L839.1,190.5 L839.3,226.6 L839.5,199.1 L839.8,220.8 L840.0,182.1 L840.2,202.7 L840.5,193.1 L840.7,226.6 L841.0,193.4 L841.2,207.8 L841.4,241.8 L841.7,202.2 L841.9,236.8 L842.1,240.3 L842.4,218.7 L842.6,227.2 L842.8,190.7 L843.1,194.9 L843.3,184.5 L843.5,181.5 L843.8,233.4 L844.0,193.8 L844.2,199.7 L844.5,233.9 L844.7,208.3 L844.9,209.8 L845.2,229.3 L845.4,196.1 L845.7,197.5 L845.9,193.2 L846.1,185.5 L846.4,179.5 L846.6,195.6 L846.8,204.4 L847.1,229.5 L847.3,240.4 L847.5,233.2 L847.8,237.4 L848.0,191.2 L848.2,217.5 L848.5,241.8 L848.7,236.5 L848.9,222.6 L849.2,245.0 L849.4,230.0 L849.6,204.3 L849.9,183.9 L850.1,231.9 L850.4,208.5 L850.6,245.9 L850.8,212.7 L851.1,235.3 L851.3,187.5 L851.5,213.5 L851.8,186.2 L852.0,187.0 L852.2,228.8 L852.5,237.4 L852.7,248.3 L852.9,224.6 L853.2,201.6 L853.4,250.7 L853.6,246.5 L853.9,247.7 L854.1,196.5 L854.3,247.6 L854.6,228.8 L854.8,232.6 L855.1,214.2 L855.3,219.9 L855.5,213.8 L855.8,202.5 L856.0,196.6 L856.2,234.3 L856.5,199.8 L856.7,215.9 L856.9,217.9 L857.2,226.1 L857.4,216.7 L857.6,235.7 L857.9,203.9 L858.1,214.3 L858.3,216.3 L858.6,230.9 L858.8,238.8 L859.0,207.3 L859.3,229.6 L859.5,199.8 L859.8,241.6 L860.0,203.3 L860.2,231.1 L860.5,223.7 L860.7,216.6 L860.9,233.2 L861.2,241.7 L861.4,224.8 L861.6,200.6 L861.9,221.2 L862.1,251.9 L862.3,217.5 L862.6,249.3 L862.8,209.1 L863.0,222.7 L863.3,230.3 L863.5,248.6 L863.8,213.9 L864.0,248.5 L864.2,221.0 L864.5,219.8 L864.7,262.3 L864.9,233.3 L865.2,257.9 L865.4,230.1 L865.6,253.4 L865.9,243.6 L866.1,217.1 L866.3,232.0 L866.6,258.7 L866.8,225.5 L867.0,261.1 L867.3,238.2 L867.5,265.6 L867.7,219.3 L868.0,260.4 L868.2,267.1 L868.5,256.2 L868.7,248.0 L868.9,261.7 L869.2,256.5 L869.4,208.7 L869.6,262.9 L869.9,249.7 L870.1,234.0 L870.3,244.1 L870.6,221.2 L870.8,264.9 L871.0,238.5 L871.3,267.0 L871.5,230.3 L871.7,224.6 L872.0,218.8 L872.2,272.2 L872.4,266.7 L872.7,261.3 L872.9,261.4 L873.2,248.0 L873.4,272.6 L873.6,221.5 L873.9,270.8 L874.1,259.8 L874.3,257.0 L874.6,252.7 L874.8,237.8 L875.0,260.5 L875.3,247.5 L875.5,221.4 L875.7,232.6 L876.0,252.3 L876.2,265.0 L876.4,255.4 L876.7,253.8 L876.9,252.8 L877.1,263.2 L877.4,233.1 L877.6,278.3 L877.9,231.5 L878.1,275.5 L878.3,254.0 L878.6,232.8 L878.8,225.4 L879.0,238.0 L879.3,278.8 L879.5,255.1 L879.7,236.6 L880.0,247.7 L880.2,239.5 L880.4,248.3 L880.7,235.7 L880.9,232.2 L881.1,251.8 L881.4,279.1 L881.6,228.8 L881.9,245.4 L882.1,263.7 L882.3,246.8 L882.6,257.6 L882.8,261.0 L883.0,272.7 L883.3,235.5 L883.5,279.6 L883.7,251.2 L884.0,228.4 L884.2,240.0 L884.4,285.8 L884.7,263.9 L884.9,277.0 L885.1,249.8 L885.4,267.8 L885.6,251.5 L885.8,281.0 L886.1,234.2 L886.3,264.2 L886.6,288.4 L886.8,274.1 L887.0,248.9 L887.3,252.8 L887.5,241.7 L887.7,259.2 L888.0,266.0 L888.2,262.9 L888.4,259.2 L888.7,244.6 L888.9,257.4 L889.1,240.3 L889.4,283.7 L889.6,282.4 L889.8,241.6 L890.1,271.5 L890.3,289.7 L890.5,263.5 L890.8,270.3 L891.0,283.4 L891.3,245.0 L891.5,252.8 L891.7,256.9 L892.0,247.9 L892.2,241.1 L892.4,285.4 L892.7,278.2 L892.9,241.1 L893.1,269.3 L893.4,289.0 L893.6,280.1 L893.8,264.7 L894.1,284.7 L894.3,256.3 L894.5,271.1 L894.8,270.1 L895.0,290.5 L895.2,278.8 L895.5,275.4 L895.7,288.4 L896.0,278.1 L896.2,250.7 L896.4,290.0 L896.7,250.5 L896.9,257.4 L897.1,250.3 L897.4,291.2 L897.6,288.4 L897.8,276.9 L898.1,285.8 L898.3,298.9 L898.5,251.5 L898.8,265.0 L899.0,258.2 L899.2,293.7 L899.5,269.9 L899.7,299.3 L899.9,260.5 L900.2,277.2 L900.4,292.8 L900.7,301.5 L900.9,291.5 L901.1,276.0 L901.4,269.3 L901.6,253.0 L901.8,304.6 L902.1,278.1 L902.3,289.7 L902.5,285.9 L902.8,288.6 L903.0,291.9 L903.2,255.2 L903.5,286.0 L903.7,297.8 L903.9,306.0 L904.2,277.5 L904.4,269.2 L904.7,283.1 L904.9,273.5 L905.1,303.4 L905.4,278.6 L905.6,273.5 L905.8,276.3 L906.1,288.1 L906.3,305.7 L906.5,300.7 L906.8,281.0 L907.0,293.8 L907.2,269.9 L907.5,300.7 L907.7,298.1 L907.9,262.0 L908.2,285.5 L908.4,292.4 L908.6,275.7 L908.9,286.9 L909.1,287.4 L909.4,269.2 L909.6,274.7 L909.8,286.6 L910.1,307.7 L910.3,280.7 L910.5,305.4 L910.8,310.4 L911.0,282.4 L911.2,305.5 L911.5,315.7 L911.7,304.5 L911.9,290.2 L912.2,301.1 L912.4,270.2 L912.6,294.8 L912.9,305.5 L913.1,305.1 L913.3,293.2 L913.6,290.5 L913.8,294.5 L914.1,299.8 L914.3,294.1 L914.5,300.4 L914.8,307.4 L915.0,304.2 L915.2,291.8 L915.5,279.3 L915.7,282.5 L915.9,273.9 L916.2,289.2 L916.4,284.8 L916.6,311.3 L916.9,295.3 L917.1,292.3 L917.3,294.7 L917.6,277.9 L917.8,297.5 L918.0,284.0 L918.3,318.5 L918.5,315.8 L918.8,298.9 L919.0,308.4 L919.2,288.7 L919.5,318.5 L919.7,287.3 L919.9,313.2 L920.2,303.1 L920.4,312.2 L920.6,300.4 L920.9,288.9 L921.1,316.3 L921.3,307.4 L921.6,329.7 L921.8,293.0 L922.0,285.5 L922.3,319.8 L922.5,296.8 L922.8,323.0 L923.0,318.0 L923.2,330.7 L923.5,316.5 L923.7,300.4 L923.9,290.3 L924.2,314.3 L924.4,300.2 L924.6,329.2 L924.9,292.4 L925.1,299.9 L925.3,314.5 L925.6,312.3 L925.8,293.3 L926.0,311.5 L926.3,336.7 L926.5,315.0 L926.7,331.9 L927.0,336.2 L927.2,321.2 L927.5,326.9 L927.7,293.2 L927.9,331.7 L928.2,329.5 L928.4,337.0 L928.6,318.0 L928.9,339.8 L929.1,318.7 L929.3,307.2 L929.6,323.9 L929.8,323.0 L930.0,304.2 L930.3,297.7 L930.5,302.9 L930.7,316.3 L931.0,325.4 L931.2,306.4 L931.4,305.3 L931.7,303.6 L931.9,309.1 L932.2,337.8 L932.4,341.0 L932.6,314.8 L932.9,311.3 L933.1,328.1 L933.3,322.8 L933.6,314.2 L933.8,328.8 L934.0,326.6 L934.3,313.8 L934.5,328.7 L934.7,333.4 L935.0,311.2 L935.2,327.9 L935.4,306.1 L935.7,324.0 L935.9,309.0 L936.1,348.1 L936.4,335.3 L936.6,326.4 L936.9,337.9 L937.1,344.2 L937.3,349.9 L937.6,339.9 L937.8,321.6 L938.0,309.9 L938.3,332.3 L938.5,314.6 L938.7,346.9 L939.0,336.1 L939.2,340.9 L939.4,325.9 L939.7,352.4 L939.9,336.8 L940.1,346.4 L940.4,346.5 L940.6,354.7 L940.8,319.3 L941.1,341.5 L941.3,341.5 L941.6,343.2 L941.8,328.3 L942.0,329.3 L942.3,331.3 L942.5,320.5 L942.7,353.6 L943.0,349.2 L943.2,344.3 L943.4,323.1 L943.7,355.6 L943.9,348.6 L944.1,347.6 L944.4,324.7 L944.6,334.1 L944.8,352.8 L945.1,341.0 L945.3,351.5 L945.6,344.8 L945.8,339.1 L946.0,336.0 L946.3,330.5 L946.5,360.4 L946.7,354.7 L947.0,335.3 L947.2,343.0 L947.4,335.0 L947.7,360.3 L947.9,334.6 L948.1,336.7 L948.4,350.2 L948.6,361.5 L948.8,363.9 L949.1,328.5 L949.3,344.2 L949.5,345.0 L949.8,353.5 L950.0,338.4 L950.3,363.0 L950.5,363.6 L950.7,339.1 L951.0,367.2 L951.2,331.8 L951.4,330.5 L951.7,350.5 L951.9,351.5 L952.1,366.1 L952.4,351.2 L952.6,353.2 L952.8,359.1 L953.1,340.1 L953.3,333.2 L953.5,364.4 L953.8,370.0 L954.0,344.0 L954.2,351.6 L954.5,358.3 L954.7,365.6 L955.0,353.4 L955.2,351.9 L955.4,356.4 L955.7,367.3 L955.9,354.3 L956.1,365.4 L956.4,374.3 L956.6,362.4 L956.8,355.5 L957.1,355.9 L957.3,370.5 L957.5,375.6 L957.8,353.4 L958.0,353.2 L958.2,371.4 L958.5,357.4 L958.7,350.0 L958.9,370.4 L959.2,344.5 L959.4,371.8 L959.7,352.8 L959.9,379.0 L960.1,359.9 L960.4,357.2 L960.6,343.3 L960.8,366.0 L961.1,373.5 L961.3,371.9 L961.5,345.9 L961.8,380.1 L962.0,353.5 L962.2,367.8 L962.5,367.1 L962.7,376.8 L962.9,353.7 L963.2,348.4 L963.4,351.9 L963.7,355.8 L963.9,370.9 L964.1,363.7 L964.4,354.1 L964.6,379.4 L964.8,366.9 L965.1,374.9 L965.3,376.8 L965.5,380.7 L965.8,354.5 L966.0,372.1 L966.2,375.6 L966.5,372.8 L966.7,356.8 L966.9,352.7 L967.2,377.8 L967.4,377.3 L967.6,365.2 L967.9,365.9 L968.1,376.2 L968.4,368.4 L968.6,366.1 L968.8,378.2 L969.1,356.3 L969.3,364.6 L969.5,375.4 L969.8,380.4 L970.0,387.6 L970.2,360.0 L970.5,372.0 L970.7,365.8 L970.9,379.2 L971.2,379.0 L971.4,386.5 L971.6,391.7 L971.9,366.4 L972.1,373.3 L972.3,381.8 L972.6,393.3 L972.8,372.3 L973.1,380.5 L973.3,391.7 L973.5,366.1 L973.8,387.8 L974.0,378.5 L974.2,393.1 L974.5,374.6 L974.7,377.1 L974.9,396.6 L975.2,394.8 L975.4,381.3 L975.6,372.0 L975.9,390.6 L976.1,382.7 L976.3,379.6 L976.6,372.8 L976.8,379.6 L977.0,393.1 L977.3,397.7 L977.5,399.0 L977.8,388.7 L978.0,374.7 L978.2,375.2 L978.5,375.0 L978.7,401.3 L978.9,402.3 L979.2,400.3 L979.4,394.8 L979.6,371.5 L979.9,378.3 L980.1,374.7 L980.3,380.7 L980.6,398.4 L980.8,377.1 L981.0,396.6 L981.3,403.0 L981.5,386.7 L981.7,379.7 L982.0,391.6 L982.2,405.8 L982.5,395.3 L982.7,387.2 L982.9,383.9 L983.2,382.9 L983.4,382.4 L983.6,389.2 L983.9,404.6 L984.1,397.2 L984.3,406.1 L984.6,393.9 L984.8,379.4 L985.0,381.1 L985.3,403.3 L985.5,397.5 L985.7,410.5 L986.0,398.5 L986.2,406.5 L986.5,399.4 L986.7,411.2 L986.9,407.0 L987.2,390.7 L987.4,403.8 L987.6,404.0 L987.9,385.1 L988.1,413.8 L988.3,391.6 L988.6,392.2 L988.8,386.9 L989.0,388.2 L989.3,389.2 L989.5,411.0 L989.7,400.4 L990.0,415.1 L990.2,389.5 L990.4,400.3 L990.7,389.3 L990.9,400.3 L991.2,399.8 L991.4,392.4 L991.6,414.0 L991.9,416.3 L992.1,391.5 L992.3,398.5 L992.6,409.7 L992.8,416.8 L993.0,402.1 L993.3,395.6 L993.5,397.6 L993.7,417.9 L994.0,420.5 L994.2,404.9 L994.4,412.4 L994.7,399.9 L994.9,403.8 L995.1,419.6 L995.4,406.7 L995.6,408.8 L995.9,408.7 L996.1,413.6 L996.3,406.2 L996.6,397.5 L996.8,424.4 L997.0,412.5 L997.3,409.4 L997.5,409.2 L997.7,417.6 L998.0,404.2 L998.2,411.6 L998.4,406.3 L998.7,420.5 L998.9,424.0 L999.1,416.8 L999.4,406.3 L999.6,423.4 L999.8,419.8 L1000.1,413.5 L1000.3,409.1 L1000.6,428.4 L1000.8,421.6 L1001.0,426.0 L1001.3,407.5 L1001.5,420.0 L1001.7,429.3 L1002.0,429.6 L1002.2,407.2 L1002.4,431.6 L1002.7,412.4 L1002.9,422.6 L1003.1,428.2 L1003.4,420.9 L1003.6,421.6 L1003.8,414.5 L1004.1,412.0 L1004.3,415.9 L1004.6,410.9 L1004.8,411.3 L1005.0,425.6 L1005.3,430.7 L1005.5,412.4 L1005.7,431.9 L1006.0,426.7 L1006.2,413.8 L1006.4,416.7 L1006.7,415.9 L1006.9,428.7 L1007.1,435.9 L1007.4,435.1 L1007.6,424.2 L1007.8,416.5 L1008.1,428.6 L1008.3,417.7 L1008.5,430.0 L1008.8,427.3 L1009.0,436.5 L1009.3,431.4 L1009.5,436.3 L1009.7,439.5 L1010.0,423.0 L1010.2,431.7 L1010.4,419.9 L1010.7,440.5 L1010.9,429.3 L1011.1,442.1 L1011.4,430.3 L1011.6,443.2 L1011.8,443.5 L1012.1,440.7 L1012.3,433.5 L1012.5,442.0 L1012.8,430.5 L1013.0,441.6 L1013.2,438.3 L1013.5,431.5 L1013.7,445.9 L1014.0,429.4 L1014.2,428.9 L1014.4,427.3 L1014.7,429.9 L1014.9,433.7 L1015.1,444.5 L1015.4,430.8 L1015.6,435.8 L1015.8,445.0 L1016.1,434.4 L1016.3,440.9 L1016.5,433.4 L1016.8,430.1 L1017.0,434.7 L1017.2,434.3 L1017.5,448.1 L1017.7,435.7 L1017.9,438.9 L1018.2,431.9 L1018.4,449.7 L1018.7,439.4 L1018.9,453.5 L1019.1,438.5 L1019.4,452.3 L1019.6,449.5 L1019.8,445.5 L1020.1,441.4 L1020.3,441.5 L1020.5,449.0 L1020.8,438.6 L1021.0,443.3 L1021.2,451.4 L1021.5,448.7 L1021.7,449.7 L1021.9,453.8 L1022.2,447.2 L1022.4,447.6 L1022.6,458.3 L1022.9,450.1 L1023.1,456.9 L1023.4,445.3 L1023.6,457.6 L1023.8,446.3 L1024.1,454.6 L1024.3,454.3 L1024.5,449.1 L1024.8,444.4 L1025.0,454.4 L1025.2,448.1 L1025.5,456.0 L1025.7,445.4 L1025.9,445.9 L1026.2,461.6 L1026.4,449.5 L1026.6,446.9 L1026.9,455.7 L1027.1,447.0 L1027.4,451.4 L1027.6,459.4 L1027.8,459.9 L1028.1,448.3 L1028.3,452.3 L1028.5,459.5 L1028.8,459.6 L1029.0,449.8 L1029.2,459.1 L1029.5,465.1 L1029.7,466.3 L1029.9,454.1 L1030.2,462.4 L1030.4,469.3 L1030.6,453.6 L1030.9,465.2 L1031.1,455.4 L1031.3,458.6 L1031.6,469.3 L1031.8,463.7 L1032.1,470.6 L1032.3,463.7 L1032.5,469.6 L1032.8,462.2 L1033.0,457.3 L1033.2,459.9 L1033.5,467.0 L1033.7,458.7 L1033.9,474.0 L1034.2,459.5 L1034.4,461.5 L1034.6,465.4 L1034.9,462.1 L1035.1,472.9 L1035.3,460.9 L1035.6,474.5 L1035.8,470.3 L1036.0,475.7 L1036.3,475.7 L1036.5,469.8 L1036.8,468.7 L1037.0,477.2 L1037.2,472.8 L1037.5,477.1 L1037.7,465.3 L1037.9,472.0 L1038.2,475.5 L1038.4,470.7 L1038.6,479.1 L1038.9,473.7 L1039.1,477.5 L1039.3,467.6 L1039.6,481.5 L1039.8,477.9 L1040.0,473.5 L1040.3,471.3 L1040.5,474.5 L1040.7,480.0 L1041.0,479.3 L1041.2,470.2 L1041.5,474.8 L1041.7,483.0 L1041.9,480.6 L1042.2,473.3 L1042.4,481.9 L1042.6,476.6 L1042.9,483.2 L1043.1,475.3 L1043.3,478.3 L1043.6,477.4 L1043.8,485.8 L1044.0,480.4 L1044.3,483.5 L1044.5,478.2 L1044.7,488.2 L1045.0,482.9 L1045.2,487.3 L1045.5,480.7 L1045.7,478.7 L1045.9,483.9 L1046.2,488.3 L1046.4,482.3 L1046.6,484.4 L1046.9,492.0 L1047.1,483.5 L1047.3,484.5 L1047.6,492.3 L1047.8,489.6 L1048.0,483.8 L1048.3,483.3 L1048.5,489.0 L1048.7,482.9 L1049.0,483.4 L1049.2,494.4 L1049.4,491.7 L1049.7,485.7 L1049.9,489.2 L1050.2,490.8 L1050.4,495.3 L1050.6,495.7 L1050.9,496.5 L1051.1,490.6 L1051.3,491.3 L1051.6,488.3 L1051.8,489.9 L1052.0,492.7 L1052.3,491.6 L1052.5,496.9 L1052.7,498.3 L1053.0,494.2 L1053.2,493.3 L1053.4,494.4 L1053.7,501.0 L1053.9,491.5 L1054.1,494.6 L1054.4,498.8 L1054.6,497.4 L1054.9,499.3 L1055.1,501.7 L1055.3,494.9 L1055.6,498.9 L1055.8,495.5 L1056.0,501.8 L1056.3,499.5 L1056.5,498.7 L1056.7,502.3 L1057.0,498.4 L1057.2,505.6 L1057.4,498.1 L1057.7,498.5 L1057.9,500.3 L1058.1,501.8 L1058.4,501.9 L1058.6,503.4 L1058.8,502.8 L1059.1,506.1 L1059.3,501.3 L1059.6,507.8 L1059.8,508.5 L1060.0,504.9 L1060.3,507.3 L1060.5,508.4 L1060.7,505.4 L1061.0,508.3 L1061.2,505.3 L1061.4,508.5 L1061.7,512.6 L1061.9,508.0 L1062.1,509.5 L1062.4,508.3 L1062.6,507.5 L1062.8,512.6 L1063.1,507.5 L1063.3,507.7 L1063.5,515.0 L1063.8,508.4 L1064.0,515.8 L1064.3,515.9 L1064.5,512.9 L1064.7,511.8 L1065.0,513.1 L1065.2,517.5 L1065.4,515.0 L1065.7,516.0 L1065.9,515.3 L1066.1,514.3 L1066.4,513.5 L1066.6,517.3 L1066.8,516.2 L1067.1,515.4 L1067.3,518.1 L1067.5,517.9 L1067.8,515.5 L1068.0,519.2 L1068.3,519.8 L1068.5,516.7 L1068.7,519.3 L1069.0,519.6 L1069.2,519.9 L1069.4,519.0 L1069.7,520.5 L1069.9,520.9 L1070.1,520.9 L1070.4,521.1 L1070.6,523.1 L1070.8,524.6 L1071.1,523.4 L1071.3,523.7 L1071.5,524.1 L1071.8,524.2 L1072.0,524.1 L1072.2,524.8 L1072.5,527.5 L1072.7,524.7 L1073.0,524.4 L1073.2,526.3 L1073.4,525.5 L1073.7,525.7 L1073.9,526.3 L1074.1,528.5 L1074.4,527.7 L1074.6,527.7 L1074.8,528.7 L1075.1,530.5 L1075.3,530.8 L1075.5,529.3 L1075.8,532.0 L1076.0,531.6 L1076.2,531.8 L1076.5,533.3 L1076.7,533.6 L1076.9,533.6 L1077.2,533.2 L1077.4,532.5 L1077.7,533.1 L1077.9,534.4 L1078.1,533.7 L1078.4,534.9 L1078.6,534.2 L1078.8,535.1 L1079.1,535.5 L1079.3,535.9 L1079.5,535.8 L1079.8,536.4 L1080.0,538.2 L1080.2,536.6 L1080.5,538.0 L1080.7,539.2 L1080.9,538.8 L1081.2,538.2 L1081.4,539.0 L1081.6,539.0 L1081.9,540.1 L1082.1,540.9 L1082.4,541.0 L1082.6,541.5 L1082.8,541.7 L1083.1,542.2 L1083.3,542.8 L1083.5,542.6 L1083.8,542.8 L1084.0,543.5" fill="none" stroke="#1f77b4" stroke-width="1.4" opacity="0.85"/><text x="1040" y="54" fill="#ff7f0e" font-size="11">roll 25</text><text x="1090" y="558" fill="#ff7f0e" font-size="11">-18</text><path d="M616.0,348.8 L616.2,351.0 L616.5,348.8 L616.7,349.9 L616.9,348.8 L617.2,349.9 L617.4,349.9 L617.6,349.9 L617.9,351.0 L618.1,349.9 L618.4,351.0 L618.6,348.8 L618.8,351.0 L619.1,348.8 L619.3,349.9 L619.5,348.8 L619.8,348.8 L620.0,348.8 L620.2,348.8 L620.5,349.9 L620.7,349.9 L620.9,347.7 L621.2,348.8 L621.4,348.8 L621.6,347.7 L621.9,348.8 L622.1,348.8 L622.3,346.7 L622.6,347.7 L622.8,347.7 L623.1,345.6 L623.3,346.7 L623.5,346.7 L623.8,346.7 L624.0,346.7 L624.2,344.5 L624.5,344.5 L624.7,345.6 L624.9,344.5 L625.2,343.4 L625.4,342.4 L625.6,344.5 L625.9,342.4 L626.1,341.3 L626.3,342.4 L626.6,343.4 L626.8,342.4 L627.0,339.1 L627.3,339.1 L627.5,338.0 L627.8,338.0 L628.0,340.2 L628.2,337.0 L628.5,335.9 L628.7,334.8 L628.9,337.0 L629.2,337.0 L629.4,332.6 L629.6,332.6 L629.9,334.8 L630.1,331.6 L630.3,332.6 L630.6,331.6 L630.8,332.6 L631.0,330.5 L631.3,330.5 L631.5,330.5 L631.7,330.5 L632.0,327.3 L632.2,324.0 L632.5,324.0 L632.7,322.9 L632.9,319.7 L633.2,325.1 L633.4,324.0 L633.6,320.8 L633.9,317.5 L634.1,316.5 L634.3,319.7 L634.6,318.6 L634.8,312.2 L635.0,312.2 L635.3,313.2 L635.5,311.1 L635.7,311.1 L636.0,311.1 L636.2,315.4 L636.5,312.2 L636.7,306.8 L636.9,306.8 L637.2,311.1 L637.4,307.8 L637.6,306.8 L637.9,300.3 L638.1,307.8 L638.3,306.8 L638.6,304.6 L638.8,303.5 L639.0,296.0 L639.3,299.2 L639.5,292.7 L639.7,293.8 L640.0,294.9 L640.2,294.9 L640.4,296.0 L640.7,293.8 L640.9,289.5 L641.2,286.3 L641.4,297.1 L641.6,296.0 L641.9,289.5 L642.1,292.7 L642.3,291.7 L642.6,290.6 L642.8,290.6 L643.0,278.7 L643.3,286.3 L643.5,288.4 L643.7,277.6 L644.0,278.7 L644.2,272.3 L644.4,273.3 L644.7,275.5 L644.9,271.2 L645.1,280.9 L645.4,279.8 L645.6,269.0 L645.9,274.4 L646.1,272.3 L646.3,266.9 L646.6,261.5 L646.8,275.5 L647.0,270.1 L647.3,267.9 L647.5,257.2 L647.7,269.0 L648.0,266.9 L648.2,253.9 L648.4,256.1 L648.7,260.4 L648.9,260.4 L649.1,260.4 L649.4,261.5 L649.6,246.4 L649.8,253.9 L650.1,244.2 L650.3,246.4 L650.6,258.2 L650.8,245.3 L651.0,248.5 L651.3,256.1 L651.5,256.1 L651.7,248.5 L652.0,253.9 L652.2,249.6 L652.4,252.8 L652.7,253.9 L652.9,233.4 L653.1,239.9 L653.4,244.2 L653.6,237.8 L653.8,238.8 L654.1,243.1 L654.3,244.2 L654.5,224.8 L654.8,244.2 L655.0,230.2 L655.3,239.9 L655.5,233.4 L655.7,229.1 L656.0,241.0 L656.2,217.3 L656.4,237.8 L656.7,217.3 L656.9,220.5 L657.1,225.9 L657.4,229.1 L657.6,215.1 L657.8,232.4 L658.1,225.9 L658.3,217.3 L658.5,220.5 L658.8,222.7 L659.0,210.8 L659.3,204.3 L659.5,223.7 L659.7,205.4 L660.0,222.7 L660.2,215.1 L660.4,197.9 L660.7,204.3 L660.9,203.2 L661.1,219.4 L661.4,216.2 L661.6,216.2 L661.8,191.4 L662.1,200.0 L662.3,196.8 L662.5,200.0 L662.8,208.6 L663.0,190.3 L663.2,206.5 L663.5,188.1 L663.7,188.1 L664.0,201.1 L664.2,205.4 L664.4,209.7 L664.7,192.5 L664.9,179.5 L665.1,201.1 L665.4,206.5 L665.6,203.2 L665.8,187.1 L666.1,187.1 L666.3,188.1 L666.5,192.5 L666.8,184.9 L667.0,184.9 L667.2,181.7 L667.5,163.3 L667.7,188.1 L667.9,175.2 L668.2,172.0 L668.4,168.7 L668.7,162.3 L668.9,177.4 L669.1,186.0 L669.4,161.2 L669.6,173.1 L669.8,168.7 L670.1,164.4 L670.3,154.7 L670.5,173.1 L670.8,174.1 L671.0,166.6 L671.2,151.5 L671.5,155.8 L671.7,160.1 L671.9,160.1 L672.2,154.7 L672.4,163.3 L672.6,136.4 L672.9,133.2 L673.1,164.4 L673.4,159.0 L673.6,146.1 L673.8,128.8 L674.1,131.0 L674.3,158.0 L674.5,148.2 L674.8,158.0 L675.0,153.6 L675.2,163.3 L675.5,141.8 L675.7,137.5 L675.9,131.0 L676.2,137.5 L676.4,141.8 L676.6,152.6 L676.9,146.1 L677.1,125.6 L677.4,154.7 L677.6,124.5 L677.8,134.2 L678.1,147.2 L678.3,123.4 L678.5,132.1 L678.8,111.6 L679.0,124.5 L679.2,124.5 L679.5,133.2 L679.7,126.7 L679.9,115.9 L680.2,123.4 L680.4,110.5 L680.6,98.6 L680.9,101.9 L681.1,137.5 L681.3,128.8 L681.6,133.2 L681.8,133.2 L682.1,123.4 L682.3,98.6 L682.5,106.2 L682.8,134.2 L683.0,128.8 L683.2,121.3 L683.5,87.9 L683.7,93.3 L683.9,88.9 L684.2,110.5 L684.4,129.9 L684.6,104.0 L684.9,95.4 L685.1,112.7 L685.3,91.1 L685.6,126.7 L685.8,115.9 L686.0,121.3 L686.3,82.5 L686.5,126.7 L686.8,126.7 L687.0,77.1 L687.2,90.0 L687.5,76.0 L687.7,84.6 L687.9,87.9 L688.2,80.3 L688.4,109.4 L688.6,95.4 L688.9,347.7 L689.1,338.0 L689.3,326.2 L689.6,321.9 L689.8,312.2 L690.0,301.4 L690.3,293.8 L690.5,285.2 L690.7,279.8 L691.0,272.3 L691.2,259.3 L691.5,266.9 L691.7,255.0 L691.9,246.4 L692.2,233.4 L692.4,246.4 L692.6,244.2 L692.9,239.9 L693.1,219.4 L693.3,235.6 L693.6,224.8 L693.8,220.5 L694.0,230.2 L694.3,211.9 L694.5,212.9 L694.7,198.9 L695.0,221.6 L695.2,214.0 L695.4,204.3 L695.7,192.5 L695.9,202.2 L696.2,182.8 L696.4,216.2 L696.6,188.1 L696.9,193.5 L697.1,212.9 L697.3,204.3 L697.6,200.0 L697.8,205.4 L698.0,175.2 L698.3,201.1 L698.5,196.8 L698.7,181.7 L699.0,197.9 L699.2,183.8 L699.4,184.9 L699.7,180.6 L699.9,210.8 L700.2,182.8 L700.4,225.9 L700.6,215.1 L700.9,206.5 L701.1,193.5 L701.3,217.3 L701.6,232.4 L701.8,210.8 L702.0,233.4 L702.3,207.6 L702.5,217.3 L702.7,228.0 L703.0,215.1 L703.2,233.4 L703.4,244.2 L703.7,244.2 L703.9,227.0 L704.1,222.7 L704.4,232.4 L704.6,200.0 L704.9,230.2 L705.1,209.7 L705.3,218.3 L705.6,230.2 L705.8,225.9 L706.0,217.3 L706.3,251.8 L706.5,230.2 L706.7,238.8 L707.0,228.0 L707.2,242.1 L707.4,239.9 L707.7,228.0 L707.9,248.5 L708.1,241.0 L708.4,245.3 L708.6,247.5 L708.8,265.8 L709.1,245.3 L709.3,271.2 L709.6,256.1 L709.8,256.1 L710.0,277.6 L710.3,264.7 L710.5,291.7 L710.7,270.1 L711.0,285.2 L711.2,283.0 L711.4,298.1 L711.7,300.3 L711.9,290.6 L712.1,312.2 L712.4,299.2 L712.6,302.5 L712.8,315.4 L713.1,308.9 L713.3,308.9 L713.5,303.5 L713.8,317.5 L714.0,328.3 L714.3,318.6 L714.5,310.0 L714.7,318.6 L715.0,314.3 L715.2,320.8 L715.4,316.5 L715.7,325.1 L715.9,313.2 L716.1,330.5 L716.4,317.5 L716.6,330.5 L716.8,316.5 L717.1,305.7 L717.3,319.7 L717.5,311.1 L717.8,298.1 L718.0,300.3 L718.3,292.7 L718.5,291.7 L718.7,283.0 L719.0,293.8 L719.2,280.9 L719.4,296.0 L719.7,292.7 L719.9,302.5 L720.1,292.7 L720.4,299.2 L720.6,290.6 L720.8,296.0 L721.1,293.8 L721.3,290.6 L721.5,301.4 L721.8,292.7 L722.0,304.6 L722.2,314.3 L722.5,300.3 L722.7,312.2 L723.0,299.2 L723.2,315.4 L723.4,324.0 L723.7,314.3 L723.9,332.6 L724.1,321.9 L724.4,312.2 L724.6,305.7 L724.8,318.6 L725.1,321.9 L725.3,315.4 L725.5,306.8 L725.8,303.5 L726.0,306.8 L726.2,324.0 L726.5,308.9 L726.7,300.3 L726.9,313.2 L727.2,316.5 L727.4,308.9 L727.7,300.3 L727.9,317.5 L728.1,312.2 L728.4,324.0 L728.6,310.0 L728.8,324.0 L729.1,333.7 L729.3,326.2 L729.5,318.6 L729.8,335.9 L730.0,330.5 L730.2,333.7 L730.5,325.1 L730.7,330.5 L730.9,321.9 L731.2,318.6 L731.4,330.5 L731.6,320.8 L731.9,326.2 L732.1,327.3 L732.4,330.5 L732.6,321.9 L732.8,329.4 L733.1,324.0 L733.3,308.9 L733.5,320.8 L733.8,332.6 L734.0,324.0 L734.2,333.7 L734.5,320.8 L734.7,333.7 L734.9,328.3 L735.2,340.2 L735.4,331.6 L735.6,337.0 L735.9,347.7 L736.1,335.9 L736.3,327.3 L736.6,340.2 L736.8,340.2 L737.1,337.0 L737.3,325.1 L737.5,339.1 L737.8,331.6 L738.0,341.3 L738.2,348.8 L738.5,346.7 L738.7,356.4 L738.9,342.4 L739.2,353.1 L739.4,344.5 L739.6,354.2 L739.9,352.1 L740.1,360.7 L740.3,359.6 L740.6,349.9 L740.8,348.8 L741.1,338.0 L741.3,349.9 L741.5,341.3 L741.8,351.0 L742.0,359.6 L742.2,351.0 L742.5,361.8 L742.7,349.9 L742.9,338.0 L743.2,351.0 L743.4,339.1 L743.6,332.6 L743.9,341.3 L744.1,332.6 L744.3,330.5 L744.6,342.4 L744.8,330.5 L745.0,342.4 L745.3,339.1 L745.5,348.8 L745.8,337.0 L746.0,345.6 L746.2,353.1 L746.5,340.2 L746.7,353.1 L746.9,342.4 L747.2,353.1 L747.4,343.4 L747.6,344.5 L747.9,332.6 L748.1,344.5 L748.3,332.6 L748.6,346.7 L748.8,351.0 L749.0,342.4 L749.3,341.3 L749.5,349.9 L749.7,341.3 L750.0,342.4 L750.2,355.3 L750.5,351.0 L750.7,342.4 L750.9,351.0 L751.2,358.5 L751.4,369.3 L751.6,360.7 L751.9,351.0 L752.1,356.4 L752.3,351.0 L752.6,356.4 L752.8,369.3 L753.0,357.4 L753.3,368.2 L753.5,356.4 L753.7,366.1 L754.0,379.0 L754.2,368.2 L754.4,375.8 L754.7,377.9 L754.9,393.0 L755.2,375.8 L755.4,386.6 L755.6,375.8 L755.9,387.6 L756.1,373.6 L756.3,379.0 L756.6,387.6 L756.8,388.7 L757.0,379.0 L757.3,392.0 L757.5,374.7 L757.7,390.9 L758.0,382.2 L758.2,389.8 L758.4,394.1 L758.7,388.7 L758.9,380.1 L759.2,386.6 L759.4,382.2 L759.6,370.4 L759.9,382.2 L760.1,390.9 L760.3,379.0 L760.6,393.0 L760.8,400.6 L761.0,386.6 L761.3,386.6 L761.5,393.0 L761.7,384.4 L762.0,389.8 L762.2,380.1 L762.4,384.4 L762.7,399.5 L762.9,393.0 L763.1,400.6 L763.4,395.2 L763.6,396.3 L763.9,389.8 L764.1,392.0 L764.3,403.8 L764.6,392.0 L764.8,390.9 L765.0,393.0 L765.3,385.5 L765.5,399.5 L765.7,406.0 L766.0,400.6 L766.2,387.6 L766.4,390.9 L766.7,397.3 L766.9,389.8 L767.1,382.2 L767.4,380.1 L767.6,385.5 L767.8,375.8 L768.1,362.8 L768.3,370.4 L768.6,368.2 L768.8,381.2 L769.0,370.4 L769.3,383.3 L769.5,365.0 L769.7,377.9 L770.0,390.9 L770.2,372.5 L770.4,386.6 L770.7,373.6 L770.9,379.0 L771.1,383.3 L771.4,398.4 L771.6,380.1 L771.8,392.0 L772.1,376.9 L772.3,384.4 L772.5,376.9 L772.8,371.5 L773.0,385.5 L773.3,371.5 L773.5,367.2 L773.7,375.8 L774.0,384.4 L774.2,382.2 L774.4,393.0 L774.7,398.4 L774.9,385.5 L775.1,396.3 L775.4,396.3 L775.6,400.6 L775.8,411.4 L776.1,395.2 L776.3,400.6 L776.5,396.3 L776.8,413.5 L777.0,413.5 L777.2,416.8 L777.5,392.0 L777.7,403.8 L778.0,416.8 L778.2,421.1 L778.4,406.0 L778.7,409.2 L778.9,415.7 L779.1,417.8 L779.4,426.5 L779.6,403.8 L779.8,415.7 L780.1,422.1 L780.3,429.7 L780.5,408.1 L780.8,422.1 L781.0,410.3 L781.2,395.2 L781.5,414.6 L781.7,393.0 L782.0,402.7 L782.2,395.2 L782.4,406.0 L782.7,393.0 L782.9,398.4 L783.1,411.4 L783.4,416.8 L783.6,426.5 L783.8,413.5 L784.1,421.1 L784.3,413.5 L784.5,404.9 L784.8,402.7 L785.0,413.5 L785.2,392.0 L785.5,401.7 L785.7,396.3 L785.9,382.2 L786.2,388.7 L786.4,396.3 L786.7,408.1 L786.9,399.5 L787.1,394.1 L787.4,403.8 L787.6,401.7 L787.8,411.4 L788.1,396.3 L788.3,406.0 L788.5,418.9 L788.8,401.7 L789.0,415.7 L789.2,392.0 L789.5,397.3 L789.7,402.7 L789.9,392.0 L790.2,399.5 L790.4,388.7 L790.6,393.0 L790.9,400.6 L791.1,394.1 L791.4,407.1 L791.6,387.6 L791.8,400.6 L792.1,390.9 L792.3,402.7 L792.5,387.6 L792.8,393.0 L793.0,406.0 L793.2,385.5 L793.5,396.3 L793.7,402.7 L793.9,393.0 L794.2,396.3 L794.4,403.8 L794.6,388.7 L794.9,394.1 L795.1,396.3 L795.3,388.7 L795.6,401.7 L795.8,397.3 L796.1,381.2 L796.3,390.9 L796.5,399.5 L796.8,388.7 L797.0,397.3 L797.2,401.7 L797.5,396.3 L797.7,402.7 L797.9,407.1 L798.2,409.2 L798.4,404.9 L798.6,394.1 L798.9,411.4 L799.1,408.1 L799.3,397.3 L799.6,412.4 L799.8,412.4 L800.1,406.0 L800.3,399.5 L800.5,416.8 L800.8,397.3 L801.0,403.8 L801.2,402.7 L801.5,417.8 L801.7,398.4 L801.9,404.9 L802.2,395.2 L802.4,401.7 L802.6,404.9 L802.9,400.6 L803.1,395.2 L803.3,398.4 L803.6,399.5 L803.8,394.1 L804.0,406.0 L804.3,385.5 L804.5,400.6 L804.8,406.0 L805.0,407.1 L805.2,399.5 L805.5,403.8 L805.7,401.7 L805.9,411.4 L806.2,399.5 L806.4,403.8 L806.6,410.3 L806.9,412.4 L807.1,400.6 L807.3,413.5 L807.6,406.0 L807.8,402.7 L808.0,394.1 L808.3,409.2 L808.5,414.6 L808.7,415.7 L809.0,396.3 L809.2,402.7 L809.5,416.8 L809.7,397.3 L809.9,412.4 L810.2,394.1 L810.4,401.7 L810.6,398.4 L810.9,398.4 L811.1,402.7 L811.3,404.9 L811.6,398.4 L811.8,400.6 L812.0,390.9 L812.3,399.5 L812.5,402.7 L812.7,411.4 L813.0,395.2 L813.2,406.0 L813.4,406.0 L813.7,399.5 L813.9,401.7 L814.2,415.7 L814.4,416.8 L814.6,411.4 L814.9,417.8 L815.1,404.9 L815.3,410.3 L815.6,407.1 L815.8,394.1 L816.0,412.4 L816.3,398.4 L816.5,401.7 L816.7,406.0 L817.0,415.7 L817.2,400.6 L817.4,413.5 L817.7,408.1 L817.9,403.8 L818.1,409.2 L818.4,393.0 L818.6,404.9 L818.9,416.8 L819.1,413.5 L819.3,414.6 L819.6,398.4 L819.8,403.8 L820.0,415.7 L820.3,414.6 L820.5,429.7 L820.7,418.9 L821.0,409.2 L821.2,414.6 L821.4,421.1 L821.7,425.4 L821.9,438.3 L822.1,440.5 L822.4,461.0 L822.6,453.4 L822.9,467.4 L823.1,456.7 L823.3,462.0 L823.6,461.0 L823.8,476.1 L824.0,490.1 L824.3,483.6 L824.5,469.6 L824.7,493.3 L825.0,486.8 L825.2,490.1 L825.4,492.2 L825.7,508.4 L825.9,505.2 L826.1,497.6 L826.4,489.0 L826.6,498.7 L826.8,499.8 L827.1,522.4 L827.3,487.9 L827.6,513.8 L827.8,498.7 L828.0,509.5 L828.3,506.3 L828.5,521.4 L828.7,501.9 L829.0,510.6 L829.2,514.9 L829.4,520.3 L829.7,514.9 L829.9,506.3 L830.1,522.4 L830.4,503.0 L830.6,513.8 L830.8,526.7 L831.1,514.9 L831.3,524.6 L831.5,505.2 L831.8,537.5 L832.0,521.4 L832.3,509.5 L832.5,503.0 L832.7,526.7 L833.0,525.7 L833.2,517.0 L833.4,504.1 L833.7,511.6 L833.9,541.8 L834.1,512.7 L834.4,510.6 L834.6,537.5 L834.8,498.7 L835.1,523.5 L835.3,520.3 L835.5,522.4 L835.8,512.7 L836.0,519.2 L836.2,522.4 L836.5,528.9 L836.7,500.9 L837.0,528.9 L837.2,522.4 L837.4,501.9 L837.7,511.6 L837.9,524.6 L838.1,507.3 L838.4,519.2 L838.6,526.7 L838.8,518.1 L839.1,530.0 L839.3,534.3 L839.5,522.4 L839.8,532.1 L840.0,514.9 L840.2,523.5 L840.5,510.6 L840.7,505.2 L841.0,509.5 L841.2,513.8 L841.4,537.5 L841.7,521.4 L841.9,530.0 L842.1,514.9 L842.4,525.7 L842.6,520.3 L842.8,522.4 L843.1,530.0 L843.3,537.5 L843.5,517.0 L843.8,531.1 L844.0,520.3 L844.2,511.6 L844.5,509.5 L844.7,512.7 L844.9,528.9 L845.2,538.6 L845.4,511.6 L845.7,530.0 L845.9,520.3 L846.1,508.4 L846.4,538.6 L846.6,531.1 L846.8,517.0 L847.1,510.6 L847.3,511.6 L847.5,526.7 L847.8,506.3 L848.0,510.6 L848.2,534.3 L848.5,537.5 L848.7,526.7 L848.9,527.8 L849.2,506.3 L849.4,518.1 L849.6,539.7 L849.9,508.4 L850.1,518.1 L850.4,521.4 L850.6,525.7 L850.8,530.0 L851.1,525.7 L851.3,514.9 L851.5,530.0 L851.8,522.4 L852.0,526.7 L852.2,521.4 L852.5,512.7 L852.7,538.6 L852.9,501.9 L853.2,524.6 L853.4,520.3 L853.6,521.4 L853.9,524.6 L854.1,517.0 L854.3,518.1 L854.6,527.8 L854.8,510.6 L855.1,520.3 L855.3,511.6 L855.5,536.5 L855.8,530.0 L856.0,503.0 L856.2,539.7 L856.5,524.6 L856.7,531.1 L856.9,509.5 L857.2,526.7 L857.4,504.1 L857.6,520.3 L857.9,504.1 L858.1,533.2 L858.3,527.8 L858.6,517.0 L858.8,530.0 L859.0,511.6 L859.3,519.2 L859.5,530.0 L859.8,516.0 L860.0,511.6 L860.2,506.3 L860.5,510.6 L860.7,511.6 L860.9,544.0 L861.2,530.0 L861.4,522.4 L861.6,512.7 L861.9,511.6 L862.1,520.3 L862.3,519.2 L862.6,528.9 L862.8,507.3 L863.0,530.0 L863.3,527.8 L863.5,517.0 L863.8,528.9 L864.0,524.6 L864.2,518.1 L864.5,510.6 L864.7,536.5 L864.9,539.7 L865.2,518.1 L865.4,542.9 L865.6,524.6 L865.9,530.0 L866.1,506.3 L866.3,527.8 L866.6,508.4 L866.8,507.3 L867.0,532.1 L867.3,508.4 L867.5,516.0 L867.7,517.0 L868.0,505.2 L868.2,520.3 L868.5,506.3 L868.7,542.9 L868.9,532.1 L869.2,535.4 L869.4,521.4 L869.6,514.9 L869.9,520.3 L870.1,506.3 L870.3,519.2 L870.6,516.0 L870.8,512.7 L871.0,536.5 L871.3,536.5 L871.5,517.0 L871.7,519.2 L872.0,521.4 L872.2,540.8 L872.4,507.3 L872.7,531.1 L872.9,528.9 L873.2,508.4 L873.4,512.7 L873.6,504.1 L873.9,530.0 L874.1,501.9 L874.3,526.7 L874.6,517.0 L874.8,531.1 L875.0,512.7 L875.3,508.4 L875.5,530.0 L875.7,523.5 L876.0,511.6 L876.2,526.7 L876.4,521.4 L876.7,524.6 L876.9,522.4 L877.1,540.8 L877.4,531.1 L877.6,509.5 L877.9,532.1 L878.1,520.3 L878.3,524.6 L878.6,537.5 L878.8,516.0 L879.0,517.0 L879.3,504.1 L879.5,510.6 L879.7,531.1 L880.0,511.6 L880.2,537.5 L880.4,521.4 L880.7,533.2 L880.9,518.1 L881.1,518.1 L881.4,531.1 L881.6,534.3 L881.9,513.8 L882.1,536.5 L882.3,510.6 L882.6,526.7 L882.8,510.6 L883.0,535.4 L883.3,517.0 L883.5,533.2 L883.7,513.8 L884.0,513.8 L884.2,534.3 L884.4,508.4 L884.7,520.3 L884.9,516.0 L885.1,514.9 L885.4,525.7 L885.6,516.0 L885.8,527.8 L886.1,536.5 L886.3,501.9 L886.6,510.6 L886.8,532.1 L887.0,532.1 L887.3,525.7 L887.5,523.5 L887.7,500.9 L888.0,539.7 L888.2,518.1 L888.4,509.5 L888.7,516.0 L888.9,505.2 L889.1,525.7 L889.4,505.2 L889.6,525.7 L889.8,521.4 L890.1,524.6 L890.3,518.1 L890.5,518.1 L890.8,536.5 L891.0,519.2 L891.3,530.0 L891.5,526.7 L891.7,507.3 L892.0,522.4 L892.2,504.1 L892.4,530.0 L892.7,511.6 L892.9,518.1 L893.1,517.0 L893.4,526.7 L893.6,523.5 L893.8,532.1 L894.1,513.8 L894.3,523.5 L894.5,520.3 L894.8,511.6 L895.0,541.8 L895.2,514.9 L895.5,518.1 L895.7,518.1 L896.0,523.5 L896.2,532.1 L896.4,532.1 L896.7,503.0 L896.9,523.5 L897.1,531.1 L897.4,518.1 L897.6,534.3 L897.8,507.3 L898.1,501.9 L898.3,512.7 L898.5,535.4 L898.8,500.9 L899.0,509.5 L899.2,531.1 L899.5,501.9 L899.7,508.4 L899.9,528.9 L900.2,510.6 L900.4,512.7 L900.7,518.1 L900.9,512.7 L901.1,517.0 L901.4,518.1 L901.6,534.3 L901.8,511.6 L902.1,516.0 L902.3,528.9 L902.5,504.1 L902.8,510.6 L903.0,531.1 L903.2,512.7 L903.5,527.8 L903.7,516.0 L903.9,524.6 L904.2,509.5 L904.4,533.2 L904.7,501.9 L904.9,517.0 L905.1,506.3 L905.4,531.1 L905.6,510.6 L905.8,535.4 L906.1,528.9 L906.3,522.4 L906.5,522.4 L906.8,516.0 L907.0,518.1 L907.2,526.7 L907.5,513.8 L907.7,508.4 L907.9,516.0 L908.2,506.3 L908.4,533.2 L908.6,509.5 L908.9,522.4 L909.1,505.2 L909.4,516.0 L909.6,520.3 L909.8,525.7 L910.1,506.3 L910.3,523.5 L910.5,538.6 L910.8,523.5 L911.0,532.1 L911.2,516.0 L911.5,537.5 L911.7,532.1 L911.9,535.4 L912.2,499.8 L912.4,508.4 L912.6,535.4 L912.9,516.0 L913.1,504.1 L913.3,512.7 L913.6,523.5 L913.8,534.3 L914.1,508.4 L914.3,535.4 L914.5,497.6 L914.8,528.9 L915.0,504.1 L915.2,520.3 L915.5,526.7 L915.7,512.7 L915.9,503.0 L916.2,513.8 L916.4,504.1 L916.6,504.1 L916.9,534.3 L917.1,508.4 L917.3,503.0 L917.6,505.2 L917.8,524.6 L918.0,530.0 L918.3,506.3 L918.5,513.8 L918.8,523.5 L919.0,519.2 L919.2,516.0 L919.5,512.7 L919.7,509.5 L919.9,513.8 L920.2,516.0 L920.4,540.8 L920.6,500.9 L920.9,521.4 L921.1,517.0 L921.3,521.4 L921.6,523.5 L921.8,500.9 L922.0,526.7 L922.3,519.2 L922.5,511.6 L922.8,512.7 L923.0,514.9 L923.2,520.3 L923.5,524.6 L923.7,531.1 L923.9,528.9 L924.2,534.3 L924.4,516.0 L924.6,536.5 L924.9,522.4 L925.1,511.6 L925.3,521.4 L925.6,525.7 L925.8,518.1 L926.0,524.6 L926.3,509.5 L926.5,508.4 L926.7,534.3 L927.0,531.1 L927.2,530.0 L927.5,523.5 L927.7,524.6 L927.9,538.6 L928.2,514.9 L928.4,511.6 L928.6,522.4 L928.9,539.7 L929.1,509.5 L929.3,530.0 L929.6,500.9 L929.8,506.3 L930.0,512.7 L930.3,536.5 L930.5,505.2 L930.7,513.8 L931.0,513.8 L931.2,517.0 L931.4,524.6 L931.7,521.4 L931.9,527.8 L932.2,526.7 L932.4,522.4 L932.6,505.2 L932.9,508.4 L933.1,539.7 L933.3,506.3 L933.6,517.0 L933.8,510.6 L934.0,512.7 L934.3,490.1 L934.5,479.3 L934.7,469.6 L935.0,481.5 L935.2,479.3 L935.4,484.7 L935.7,472.8 L935.9,480.4 L936.1,481.5 L936.4,464.2 L936.6,476.1 L936.9,455.6 L937.1,481.5 L937.3,465.3 L937.6,457.7 L937.8,457.7 L938.0,463.1 L938.3,470.7 L938.5,473.9 L938.7,454.5 L939.0,437.2 L939.2,452.3 L939.4,429.7 L939.7,429.7 L939.9,407.1 L940.1,396.3 L940.4,382.2 L940.6,397.3 L940.8,376.9 L941.1,370.4 L941.3,381.2 L941.6,383.3 L941.8,375.8 L942.0,365.0 L942.3,354.2 L942.5,363.9 L942.7,375.8 L943.0,360.7 L943.2,371.5 L943.4,361.8 L943.7,348.8 L943.9,338.0 L944.1,348.8 L944.4,360.7 L944.6,349.9 L944.8,360.7 L945.1,348.8 L945.3,358.5 L945.6,371.5 L945.8,358.5 L946.0,346.7 L946.3,337.0 L946.5,326.2 L946.7,337.0 L947.0,327.3 L947.2,321.9 L947.4,314.3 L947.7,325.1 L947.9,314.3 L948.1,307.8 L948.4,318.6 L948.6,308.9 L948.8,321.9 L949.1,329.4 L949.3,317.5 L949.5,315.4 L949.8,320.8 L950.0,335.9 L950.3,326.2 L950.5,314.3 L950.7,310.0 L951.0,322.9 L951.2,329.4 L951.4,318.6 L951.7,308.9 L951.9,302.5 L952.1,299.2 L952.4,308.9 L952.6,297.1 L952.8,291.7 L953.1,275.5 L953.3,298.1 L953.5,290.6 L953.8,294.9 L954.0,317.5 L954.2,301.4 L954.5,319.7 L954.7,305.7 L955.0,299.2 L955.2,288.4 L955.4,279.8 L955.7,269.0 L955.9,269.0 L956.1,277.6 L956.4,277.6 L956.6,267.9 L956.8,277.6 L957.1,280.9 L957.3,265.8 L957.5,259.3 L957.8,259.3 L958.0,239.9 L958.2,247.5 L958.5,271.2 L958.7,284.1 L958.9,275.5 L959.2,287.4 L959.4,271.2 L959.7,263.6 L959.9,255.0 L960.1,249.6 L960.4,271.2 L960.6,259.3 L960.8,255.0 L961.1,249.6 L961.3,243.1 L961.5,243.1 L961.8,237.8 L962.0,231.3 L962.2,238.8 L962.5,227.0 L962.7,209.7 L962.9,217.3 L963.2,214.0 L963.4,228.0 L963.7,228.0 L963.9,225.9 L964.1,222.7 L964.4,209.7 L964.6,204.3 L964.8,204.3 L965.1,212.9 L965.3,217.3 L965.5,215.1 L965.8,221.6 L966.0,225.9 L966.2,214.0 L966.5,197.9 L966.7,194.6 L966.9,193.5 L967.2,202.2 L967.4,203.2 L967.6,198.9 L967.9,206.5 L968.1,214.0 L968.4,227.0 L968.6,224.8 L968.8,235.6 L969.1,243.1 L969.3,220.5 L969.5,218.3 L969.8,222.7 L970.0,220.5 L970.2,214.0 L970.5,207.6 L970.7,224.8 L970.9,212.9 L971.2,250.7 L971.4,232.4 L971.6,227.0 L971.9,224.8 L972.1,221.6 L972.3,215.1 L972.6,215.1 L972.8,216.2 L973.1,204.3 L973.3,225.9 L973.5,209.7 L973.8,210.8 L974.0,214.0 L974.2,217.3 L974.5,211.9 L974.7,194.6 L974.9,207.6 L975.2,204.3 L975.4,207.6 L975.6,193.5 L975.9,193.5 L976.1,194.6 L976.3,187.1 L976.6,196.8 L976.8,182.8 L977.0,195.7 L977.3,195.7 L977.5,175.2 L977.8,197.9 L978.0,172.0 L978.2,209.7 L978.5,196.8 L978.7,207.6 L978.9,183.8 L979.2,192.5 L979.4,174.1 L979.6,194.6 L979.9,189.2 L980.1,189.2 L980.3,201.1 L980.6,190.3 L980.8,180.6 L981.0,175.2 L981.3,194.6 L981.5,184.9 L981.7,174.1 L982.0,186.0 L982.2,169.8 L982.5,191.4 L982.7,170.9 L982.9,198.9 L983.2,173.1 L983.4,179.5 L983.6,172.0 L983.9,200.0 L984.1,170.9 L984.3,202.2 L984.6,177.4 L984.8,201.1 L985.0,193.5 L985.3,178.4 L985.5,188.1 L985.7,188.1 L986.0,183.8 L986.2,200.0 L986.5,179.5 L986.7,173.1 L986.9,192.5 L987.2,175.2 L987.4,194.6 L987.6,197.9 L987.9,181.7 L988.1,168.7 L988.3,190.3 L988.6,194.6 L988.8,181.7 L989.0,196.8 L989.3,161.2 L989.5,172.0 L989.7,176.3 L990.0,197.9 L990.2,172.0 L990.4,189.2 L990.7,183.8 L990.9,163.3 L991.2,201.1 L991.4,195.7 L991.6,178.4 L991.9,202.2 L992.1,184.9 L992.3,170.9 L992.6,191.4 L992.8,197.9 L993.0,178.4 L993.3,176.3 L993.5,202.2 L993.7,169.8 L994.0,195.7 L994.2,198.9 L994.4,167.7 L994.7,178.4 L994.9,176.3 L995.1,189.2 L995.4,192.5 L995.6,173.1 L995.9,186.0 L996.1,189.2 L996.3,167.7 L996.6,193.5 L996.8,179.5 L997.0,180.6 L997.3,189.2 L997.5,163.3 L997.7,170.9 L998.0,177.4 L998.2,169.8 L998.4,197.9 L998.7,175.2 L998.9,169.8 L999.1,189.2 L999.4,181.7 L999.6,196.8 L999.8,193.5 L1000.1,193.5 L1000.3,168.7 L1000.6,175.2 L1000.8,195.7 L1001.0,172.0 L1001.3,166.6 L1001.5,168.7 L1001.7,177.4 L1002.0,191.4 L1002.2,189.2 L1002.4,177.4 L1002.7,182.8 L1002.9,167.7 L1003.1,169.8 L1003.4,181.7 L1003.6,184.9 L1003.8,188.1 L1004.1,169.8 L1004.3,167.7 L1004.6,180.6 L1004.8,192.5 L1005.0,159.0 L1005.3,176.3 L1005.5,192.5 L1005.7,169.8 L1006.0,187.1 L1006.2,175.2 L1006.4,173.1 L1006.7,163.3 L1006.9,183.8 L1007.1,183.8 L1007.4,186.0 L1007.6,167.7 L1007.8,180.6 L1008.1,161.2 L1008.3,176.3 L1008.5,165.5 L1008.8,184.9 L1009.0,193.5 L1009.3,170.9 L1009.5,190.3 L1009.7,162.3 L1010.0,169.8 L1010.2,176.3 L1010.4,190.3 L1010.7,176.3 L1010.9,161.2 L1011.1,181.7 L1011.4,183.8 L1011.6,178.4 L1011.8,173.1 L1012.1,193.5 L1012.3,169.8 L1012.5,186.0 L1012.8,173.1 L1013.0,162.3 L1013.2,192.5 L1013.5,187.1 L1013.7,196.8 L1014.0,191.4 L1014.2,167.7 L1014.4,190.3 L1014.7,180.6 L1014.9,168.7 L1015.1,191.4 L1015.4,186.0 L1015.6,187.1 L1015.8,181.7 L1016.1,193.5 L1016.3,170.9 L1016.5,179.5 L1016.8,189.2 L1017.0,167.7 L1017.2,179.5 L1017.5,190.3 L1017.7,158.0 L1017.9,198.9 L1018.2,172.0 L1018.4,178.4 L1018.7,183.8 L1018.9,193.5 L1019.1,194.6 L1019.4,188.1 L1019.6,178.4 L1019.8,162.3 L1020.1,170.9 L1020.3,166.6 L1020.5,167.7 L1020.8,179.5 L1021.0,191.4 L1021.2,176.3 L1021.5,170.9 L1021.7,178.4 L1021.9,178.4 L1022.2,180.6 L1022.4,175.2 L1022.6,159.0 L1022.9,172.0 L1023.1,193.5 L1023.4,163.3 L1023.6,195.7 L1023.8,189.2 L1024.1,161.2 L1024.3,188.1 L1024.5,198.9 L1024.8,166.6 L1025.0,195.7 L1025.2,189.2 L1025.5,181.7 L1025.7,172.0 L1025.9,194.6 L1026.2,191.4 L1026.4,192.5 L1026.6,192.5 L1026.9,187.1 L1027.1,188.1 L1027.4,177.4 L1027.6,178.4 L1027.8,192.5 L1028.1,184.9 L1028.3,191.4 L1028.5,169.8 L1028.8,177.4 L1029.0,186.0 L1029.2,181.7 L1029.5,193.5 L1029.7,158.0 L1029.9,175.2 L1030.2,193.5 L1030.4,170.9 L1030.6,182.8 L1030.9,167.7 L1031.1,164.4 L1031.3,177.4 L1031.6,178.4 L1031.8,182.8 L1032.1,194.6 L1032.3,189.2 L1032.5,190.3 L1032.8,189.2 L1033.0,189.2 L1033.2,177.4 L1033.5,187.1 L1033.7,184.9 L1033.9,173.1 L1034.2,188.1 L1034.4,179.5 L1034.6,173.1 L1034.9,186.0 L1035.1,180.6 L1035.3,184.9 L1035.6,167.7 L1035.8,182.8 L1036.0,173.1 L1036.3,190.3 L1036.5,164.4 L1036.8,179.5 L1037.0,168.7 L1037.2,165.5 L1037.5,191.4 L1037.7,179.5 L1037.9,167.7 L1038.2,187.1 L1038.4,163.3 L1038.6,188.1 L1038.9,176.3 L1039.1,186.0 L1039.3,181.7 L1039.6,197.9 L1039.8,195.7 L1040.0,162.3 L1040.3,173.1 L1040.5,173.1 L1040.7,172.0 L1041.0,188.1 L1041.2,170.9 L1041.5,200.0 L1041.7,178.4 L1041.9,175.2 L1042.2,197.9 L1042.4,184.9 L1042.6,193.5 L1042.9,184.9 L1043.1,190.3 L1043.3,165.5 L1043.6,180.6 L1043.8,178.4 L1044.0,167.7 L1044.3,182.8 L1044.5,200.0 L1044.7,181.7 L1045.0,190.3 L1045.2,180.6 L1045.5,168.7 L1045.7,178.4 L1045.9,181.7 L1046.2,193.5 L1046.4,177.4 L1046.6,193.5 L1046.9,172.0 L1047.1,200.0 L1047.3,177.4 L1047.6,184.9 L1047.8,170.9 L1048.0,182.8 L1048.3,170.9 L1048.5,187.1 L1048.7,187.1 L1049.0,193.5 L1049.2,189.2 L1049.4,164.4 L1049.7,179.5 L1049.9,183.8 L1050.2,172.0 L1050.4,177.4 L1050.6,164.4 L1050.9,197.9 L1051.1,187.1 L1051.3,179.5 L1051.6,172.0 L1051.8,184.9 L1052.0,183.8 L1052.3,180.6 L1052.5,192.5 L1052.7,168.7 L1053.0,176.3 L1053.2,191.4 L1053.4,183.8 L1053.7,163.3 L1053.9,176.3 L1054.1,190.3 L1054.4,189.2 L1054.6,166.6 L1054.9,172.0 L1055.1,180.6 L1055.3,183.8 L1055.6,165.5 L1055.8,166.6 L1056.0,191.4 L1056.3,165.5 L1056.5,200.0 L1056.7,198.9 L1057.0,183.8 L1057.2,170.9 L1057.4,192.5 L1057.7,195.7 L1057.9,165.5 L1058.1,193.5 L1058.4,182.8 L1058.6,183.8 L1058.8,196.8 L1059.1,196.8 L1059.3,197.9 L1059.6,180.6 L1059.8,174.1 L1060.0,191.4 L1060.3,189.2 L1060.5,178.4 L1060.7,174.1 L1061.0,181.7 L1061.2,176.3 L1061.4,193.5 L1061.7,186.0 L1061.9,184.9 L1062.1,177.4 L1062.4,189.2 L1062.6,192.5 L1062.8,183.8 L1063.1,174.1 L1063.3,165.5 L1063.5,169.8 L1063.8,180.6 L1064.0,193.5 L1064.3,183.8 L1064.5,165.5 L1064.7,186.0 L1065.0,191.4 L1065.2,167.7 L1065.4,183.8 L1065.7,193.5 L1065.9,189.2 L1066.1,170.9 L1066.4,169.8 L1066.6,181.7 L1066.8,167.7 L1067.1,176.3 L1067.3,165.5 L1067.5,180.6 L1067.8,172.0 L1068.0,163.3 L1068.3,175.2 L1068.5,167.7 L1068.7,170.9 L1069.0,175.2 L1069.2,186.0 L1069.4,167.7 L1069.7,165.5 L1069.9,182.8 L1070.1,182.8 L1070.4,160.1 L1070.6,172.0 L1070.8,197.9 L1071.1,176.3 L1071.3,195.7 L1071.5,162.3 L1071.8,181.7 L1072.0,168.7 L1072.2,184.9 L1072.5,181.7 L1072.7,192.5 L1073.0,184.9 L1073.2,178.4 L1073.4,198.9 L1073.7,181.7 L1073.9,182.8 L1074.1,186.0 L1074.4,168.7 L1074.6,182.8 L1074.8,178.4 L1075.1,187.1 L1075.3,172.0 L1075.5,183.8 L1075.8,163.3 L1076.0,192.5 L1076.2,170.9 L1076.5,179.5 L1076.7,183.8 L1076.9,181.7 L1077.2,154.7 L1077.4,160.1 L1077.7,172.0 L1077.9,165.5 L1078.1,169.8 L1078.4,147.2 L1078.6,168.7 L1078.8,172.0 L1079.1,161.2 L1079.3,166.6 L1079.5,162.3 L1079.8,147.2 L1080.0,162.3 L1080.2,140.7 L1080.5,160.1 L1080.7,139.6 L1080.9,128.8 L1081.2,147.2 L1081.4,142.9 L1081.6,147.2 L1081.9,151.5 L1082.1,121.3 L1082.4,147.2 L1082.6,142.9 L1082.8,148.2 L1083.1,127.8 L1083.3,146.1 L1083.5,145.0 L1083.8,138.5 L1084.0,153.6" fill="none" stroke="#ff7f0e" stroke-width="1.1" opacity="0.85"/><text x="616" y="572" font-size="11" fill="#888">time 0..40 s — altitude (blue) &amp; roll (orange)</text></svg>