<svg xmlns="http://www.w3.org/2000/svg" width="1140" height="600" font-family="sans-serif" font-size="13"><rect width="1140" height="600" fill="white"/><text x="20" y="26" font-size="15" fill="#333">Coludo flight</text><rect x="20" y="40" width="540" height="540" fill="#fbfbfb" stroke="#ddd"/><rect x="50" y="299" width="316" height="68" fill="#cde" stroke="#369" opacity="0.7"/><text x="50" y="294" fill="#369" font-size="12">landing zone</text><circle cx="250" cy="405" r="5" fill="black"/><text x="258" y="409" font-size="12">pad</text><path d="M249.6,404.8 L249.6,404.8 L249.6,404.8 L249.6,404.8 L249.6,404.8 L249.6,404.8 L249.6,404.8 L249.6,404.8 L249.6,404.8 L249.6,404.8 L249.6,404.8 L249.6,404.8 L249.6,404.8 L249.6,404.8 L249.6,404.8 L249.6,404.8 L249.6,404.8 L249.6,404.8 L249.6,404.8 L249.6,404.8 L249.6,404.8 L249.6,404.8 L249.6,404.8 L249.6,404.8 L249.6,404.8 L249.6,404.8 L249.6,404.8 L249.6,404.8 L249.6,404.8 L249.6,404.8 L249.6,404.8 L249.6,404.8 L249.6,404.8 L249.6,404.8 L249.6,404.8 L249.6,404.8 L249.6,404.8 L249.6,404.8 L249.6,404.8 L249.6,404.8 L249.6,404.8 L249.6,404.8 L249.6,404.8 L249.6,404.8 L249.6,404.8 L249.6,404.8 L249.6,404.8 L249.6,404.8 L249.6,404.8 L249.6,404.8 L249.6,404.8 L249.6,404.8 L249.6,404.8 L249.6,404.8 L249.6,404.8 L249.6,404.8 L249.6,404.8 L249.6,404.8 L250.8,402.7 L252.3,400.3 L253.7,397.9 L255.2,395.6 L256.9,393.2 L258.6,390.9 L260.3,388.7 L262.0,386.4 L263.9,384.1 L265.7,382.1 L267.6,380.0 L269.6,377.9 L271.7,376.1 L273.7,374.0 L275.8,372.1 L278.0,370.2 L280.2,368.5 L282.4,366.7 L284.6,365.0 L286.8,363.1 L289.0,361.4 L291.2,359.5 L293.2,357.6 L295.4,355.8 L297.5,353.7 L299.3,351.8 L301.4,349.7 L303.2,347.5 L305.1,345.4 L306.8,343.2 L308.5,340.9 L310.2,338.7 L311.7,336.2 L313.2,333.8 L314.6,331.3 L316.1,328.9 L317.3,326.4 L318.5,323.8 L319.7,321.2 L320.9,318.6 L321.9,315.9 L322.7,313.3 L323.6,310.7 L324.4,307.8 L325.1,305.2 L325.8,302.4 L326.3,299.6 L326.8,296.8 L327.1,293.9 L327.7,291.1 L328.2,288.3 L328.7,285.7 L329.2,282.8 L329.9,280.0 L330.7,277.4 L331.4,274.6 L332.4,271.9 L333.3,269.3 L334.3,266.5 L335.5,264.0 L336.6,261.4 L337.8,258.8 L339.2,256.3 L340.5,253.9 L342.1,251.5 L343.6,249.0 L345.1,246.8 L346.8,244.3 L348.5,242.1 L350.2,240.0 L352.1,237.7 L354.1,235.7 L356.0,233.6 L358.0,231.7 L360.0,229.7 L362.3,227.8 L364.5,226.1 L366.7,224.2 L368.9,222.5 L371.2,221.0 L373.6,219.3 L376.0,217.8 L378.5,216.5 L380.9,215.2 L383.5,213.9 L386.0,212.6 L388.7,211.4 L391.3,210.5 L394.0,209.4 L396.7,208.6 L399.4,207.7 L402.1,206.9 L404.8,206.4 L407.5,205.6 L410.4,205.2 L413.1,204.7 L416.0,204.3 L418.9,204.1 L421.6,203.9 L424.5,203.7 L427.4,203.7 L430.1,203.7 L433.0,203.9 L435.9,204.1 L438.6,204.3 L441.5,204.7 L444.3,205.0 L447.1,205.6 L449.8,206.2 L452.7,206.9 L455.4,207.5 L458.1,208.4 L460.8,209.4 L463.3,210.3 L466.1,211.2 L468.6,212.4 L471.3,213.5 L473.9,214.8 L476.2,216.1 L478.8,217.4 L481.2,218.9 L483.5,220.4 L485.9,222.1 L488.3,223.8 L490.5,225.5 L492.7,227.2 L494.9,229.1 L496.9,231.0 L499.1,232.9 L501.0,234.9 L503.0,237.0 L504.9,239.1 L506.8,241.3 L508.5,243.4 L510.3,245.6 L511.9,248.1 L513.5,250.3 L515.1,252.8 L516.4,255.2 L517.8,257.7 L519.1,260.1 L520.3,262.7 L521.5,265.4 L522.7,268.0 L523.7,270.6 L524.6,273.3 L525.4,275.9 L526.3,278.7 L526.9,281.5 L527.6,284.2 L528.1,287.0 L528.6,289.8 L529.2,292.6 L529.5,295.4 L529.7,298.3 L529.8,301.1 L530.0,303.9 L530.0,306.7 L530.0,309.5 L529.8,312.3 L529.7,315.2 L529.3,318.0 L529.0,320.8 L528.6,323.6 L528.1,326.4 L527.5,329.3 L526.8,331.9 L526.1,334.7 L525.4,337.5 L524.4,340.2 L523.6,342.8 L522.5,345.4 L521.5,348.1 L520.3,350.7 L519.1,353.3 L517.8,355.8 L516.6,358.4 L515.1,360.8 L513.7,363.3 L512.2,365.5 L510.7,368.0 L509.0,370.2 L507.3,372.5 L505.6,374.7 L503.7,377.0 L501.8,379.1 L500.0,381.1 L497.9,383.2 L495.9,385.3 L493.9,387.1 L491.7,389.0 L489.5,390.9 L487.3,392.6 L485.1,394.3 L482.7,396.0 L480.3,397.5 L477.9,399.0 L475.6,400.5 L473.0,402.0 L470.6,403.3 L468.1,404.6 L465.5,405.8 L462.8,406.9 L460.3,408.0 L457.6,409.0 L455.0,410.1 L452.3,410.8 L449.6,411.8 L446.9,412.5 L444.0,413.1 L441.3,413.8 L438.6,414.4 L435.7,414.8 L433.0,415.3 L430.1,415.5 L427.2,415.9 L425.0,416.1 L422.6,416.3 L420.3,416.3 L417.9,416.3 L415.5,416.3 L413.1,416.3 L410.8,416.1 L408.4,415.9 L406.0,415.7 L403.6,415.5 L401.4,415.2 L399.1,414.8 L396.7,414.4 L394.3,413.8 L392.1,413.5 L389.7,412.9 L387.5,412.3 L385.2,411.6 L382.9,410.8 L380.7,410.3 L378.5,409.3 L376.3,408.6 L374.1,407.6 L371.9,406.7 L369.7,405.8 L367.7,404.8 L365.5,403.7 L363.4,402.6 L361.4,401.4 L359.4,400.1 L357.3,399.0 L355.3,397.7 L353.4,396.4 L351.4,395.0 L349.5,393.5 L347.7,392.0 L345.8,390.7 L344.1,389.2 L342.2,387.5 L340.4,386.0 L338.7,384.5 L337.0,382.8 L335.1,381.3" fill="none" stroke="#1f77b4" stroke-width="1.7" opacity="0.85"/><circle cx="335" cy="381" r="4.5" fill="#1f77b4"/><text x="28" y="572" font-size="11" fill="#888">ground track — m from pad (N up)</text><rect x="580" y="40" width="540" height="540" fill="#fbfbfb" stroke="#ddd"/><text x="586" y="54" fill="#1f77b4" font-size="11">alt 301</text><text x="586" y="558" fill="#1f77b4" font-size="11">2</text><path d="M616.0,543.6 L616.3,544.0 L616.5,543.4 L616.8,543.3 L617.0,543.9 L617.3,543.8 L617.5,543.5 L617.8,543.5 L618.1,543.6 L618.3,543.0 L618.6,542.8 L618.8,542.7 L619.1,542.5 L619.3,542.6 L619.6,542.4 L619.9,542.5 L620.1,541.7 L620.4,541.1 L620.6,541.9 L620.9,541.2 L621.2,540.4 L621.4,540.7 L621.7,540.5 L621.9,540.4 L622.2,539.5 L622.4,538.9 L622.7,537.9 L623.0,537.6 L623.2,538.0 L623.5,537.5 L623.7,537.6 L624.0,537.4 L624.2,536.9 L624.5,535.7 L624.8,534.8 L625.0,534.8 L625.3,534.4 L625.5,534.4 L625.8,531.3 L626.0,533.6 L626.3,532.8 L626.6,529.7 L626.8,528.9 L627.1,528.4 L627.3,528.9 L627.6,527.3 L627.8,527.1 L628.1,529.0 L628.4,527.8 L628.6,523.7 L628.9,523.2 L629.1,523.1 L629.4,522.2 L629.7,520.8 L629.9,522.4 L630.2,521.0 L630.4,518.8 L630.7,519.2 L630.9,518.8 L631.2,515.0 L631.5,515.3 L631.7,515.2 L632.0,518.2 L632.2,511.5 L632.5,516.2 L632.7,514.5 L633.0,509.9 L633.3,512.0 L633.5,512.7 L633.8,505.2 L634.0,505.6 L634.3,507.2 L634.5,509.0 L634.8,500.7 L635.1,507.5 L635.3,502.0 L635.6,505.5 L635.8,496.1 L636.1,498.2 L636.3,495.8 L636.6,497.6 L636.9,494.0 L637.1,493.7 L637.4,493.2 L637.6,493.6 L637.9,491.7 L638.2,492.3 L638.4,489.5 L638.7,490.6 L638.9,485.5 L639.2,488.1 L639.4,479.9 L639.7,478.7 L640.0,484.5 L640.2,480.0 L640.5,475.9 L640.7,480.6 L641.0,469.6 L641.2,470.2 L641.5,471.0 L641.8,477.0 L642.0,470.0 L642.3,467.5 L642.5,473.0 L642.8,472.6 L643.0,465.6 L643.3,468.5 L643.6,461.9 L643.8,460.1 L644.1,448.2 L644.3,449.7 L644.6,446.4 L644.8,452.7 L645.1,447.8 L645.4,456.4 L645.6,438.9 L645.9,448.8 L646.1,434.9 L646.4,453.1 L646.7,437.7 L646.9,435.2 L647.2,438.7 L647.4,443.4 L647.7,437.6 L647.9,439.0 L648.2,436.0 L648.5,436.4 L648.7,439.2 L649.0,430.5 L649.2,430.8 L649.5,422.3 L649.7,424.8 L650.0,431.2 L650.3,406.8 L650.5,422.9 L650.8,403.4 L651.0,403.5 L651.3,415.3 L651.5,405.5 L651.8,415.7 L652.1,414.9 L652.3,409.8 L652.6,390.2 L652.8,402.0 L653.1,393.4 L653.3,398.7 L653.6,397.6 L653.9,389.9 L654.1,389.0 L654.4,395.9 L654.6,368.6 L654.9,389.3 L655.2,379.7 L655.4,388.0 L655.7,380.1 L655.9,388.4 L656.2,376.4 L656.4,365.9 L656.7,377.7 L657.0,372.5 L657.2,366.6 L657.5,354.9 L657.7,356.9 L658.0,349.4 L658.2,349.4 L658.5,335.4 L658.8,342.4 L659.0,335.7 L659.3,340.5 L659.5,340.2 L659.8,344.3 L660.0,338.6 L660.3,322.2 L660.6,336.3 L660.8,341.7 L661.1,311.5 L661.3,329.1 L661.6,314.2 L661.8,323.1 L662.1,341.6 L662.4,312.0 L662.6,298.2 L662.9,300.8 L663.1,332.6 L663.4,295.6 L663.6,294.1 L663.9,296.2 L664.2,309.1 L664.4,279.5 L664.7,320.3 L664.9,293.8 L665.2,319.9 L665.5,313.7 L665.7,273.5 L666.0,284.9 L666.2,303.3 L666.5,295.1 L666.7,282.3 L667.0,291.4 L667.3,294.7 L667.5,268.6 L667.8,255.4 L668.0,249.3 L668.3,281.2 L668.5,261.2 L668.8,251.6 L669.1,273.2 L669.3,247.2 L669.6,288.0 L669.8,261.4 L670.1,282.4 L670.3,229.3 L670.6,231.1 L670.9,261.6 L671.1,272.4 L671.4,244.1 L671.6,235.9 L671.9,274.9 L672.1,218.4 L672.4,268.4 L672.7,227.0 L672.9,221.2 L673.2,247.0 L673.4,261.7 L673.7,240.3 L674.0,261.4 L674.2,231.8 L674.5,247.7 L674.7,245.0 L675.0,236.9 L675.2,251.7 L675.5,208.0 L675.8,200.2 L676.0,211.5 L676.3,206.3 L676.5,200.5 L676.8,179.5 L677.0,220.7 L677.3,235.5 L677.6,221.3 L677.8,220.9 L678.1,217.2 L678.3,220.8 L678.6,233.9 L678.8,168.8 L679.1,165.2 L679.4,197.3 L679.6,207.6 L679.9,185.3 L680.1,214.9 L680.4,192.7 L680.6,165.4 L680.9,215.2 L681.2,171.2 L681.4,188.1 L681.7,209.4 L681.9,173.9 L682.2,143.8 L682.5,199.7 L682.7,197.2 L683.0,153.5 L683.2,139.4 L683.5,170.1 L683.7,172.0 L684.0,152.1 L684.3,188.8 L684.5,149.9 L684.8,179.1 L685.0,149.8 L685.3,145.5 L685.5,158.6 L685.8,169.0 L686.1,158.8 L686.3,122.6 L686.6,153.4 L686.8,178.7 L687.1,113.8 L687.3,149.7 L687.6,176.9 L687.9,149.9 L688.1,180.1 L688.4,121.0 L688.6,154.9 L688.9,174.2 L689.1,138.7 L689.4,115.7 L689.7,136.2 L689.9,155.2 L690.2,148.1 L690.4,147.8 L690.7,130.0 L691.0,107.5 L691.2,165.3 L691.5,105.1 L691.7,166.6 L692.0,153.7 L692.2,163.9 L692.5,165.0 L692.8,126.9 L693.0,133.1 L693.3,108.2 L693.5,82.6 L693.8,143.7 L694.0,95.9 L694.3,117.7 L694.6,79.4 L694.8,84.9 L695.1,106.5 L695.3,120.0 L695.6,139.3 L695.8,108.0 L696.1,81.3 L696.4,152.9 L696.6,139.7 L696.9,123.9 L697.1,159.1 L697.4,126.6 L697.6,128.1 L697.9,94.6 L698.2,83.4 L698.4,129.1 L698.7,118.7 L698.9,105.6 L699.2,116.7 L699.5,91.8 L699.7,149.0 L700.0,101.1 L700.2,124.6 L700.5,130.6 L700.7,101.8 L701.0,111.7 L701.3,99.2 L701.5,140.9 L701.8,109.7 L702.0,124.0 L702.3,128.0 L702.5,112.8 L702.8,97.5 L703.1,84.6 L703.3,150.1 L703.6,137.2 L703.8,155.2 L704.1,85.4 L704.3,87.6 L704.6,143.2 L704.9,76.0 L705.1,85.2 L705.4,138.1 L705.6,144.7 L705.9,152.3 L706.1,159.7 L706.4,121.0 L706.7,115.9 L706.9,138.2 L707.2,158.9 L707.4,134.7 L707.7,111.6 L708.0,116.7 L708.2,116.3 L708.5,152.6 L708.7,113.1 L709.0,153.3 L709.2,158.6 L709.5,118.5 L709.8,133.3 L710.0,97.9 L710.3,111.8 L710.5,135.0 L710.8,132.6 L711.0,118.0 L711.3,83.1 L711.6,112.6 L711.8,120.9 L712.1,163.4 L712.3,119.7 L712.6,109.1 L712.8,91.7 L713.1,126.8 L713.4,131.1 L713.6,136.2 L713.9,124.6 L714.1,126.2 L714.4,127.3 L714.6,113.8 L714.9,153.6 L715.2,135.6 L715.4,156.5 L715.7,144.0 L715.9,96.1 L716.2,132.6 L716.5,100.8 L716.7,131.9 L717.0,141.6 L717.2,97.4 L717.5,153.0 L717.7,133.2 L718.0,97.9 L718.3,154.8 L718.5,133.8 L718.8,86.1 L719.0,133.5 L719.3,146.2 L719.5,158.7 L719.8,92.0 L720.1,153.9 L720.3,109.3 L720.6,137.1 L720.8,164.4 L721.1,107.1 L721.3,118.5 L721.6,163.6 L721.9,111.0 L722.1,93.7 L722.4,133.7 L722.6,125.6 L722.9,143.6 L723.1,143.5 L723.4,118.2 L723.7,153.2 L723.9,115.7 L724.2,113.8 L724.4,160.3 L724.7,123.0 L725.0,132.9 L725.2,89.8 L725.5,108.7 L725.7,86.4 L726.0,162.0 L726.2,157.4 L726.5,161.0 L726.8,122.4 L727.0,156.5 L727.3,163.1 L727.5,142.2 L727.8,144.3 L728.0,100.0 L728.3,143.6 L728.6,105.3 L728.8,168.8 L729.1,100.2 L729.3,90.9 L729.6,95.9 L729.8,151.0 L730.1,135.8 L730.4,109.2 L730.6,85.3 L730.9,109.6 L731.1,129.1 L731.4,130.8 L731.6,162.7 L731.9,158.5 L732.2,103.0 L732.4,113.1 L732.7,112.8 L732.9,110.5 L733.2,164.0 L733.5,138.7 L733.7,110.4 L734.0,113.5 L734.2,144.8 L734.5,127.8 L734.7,122.9 L735.0,107.9 L735.3,164.4 L735.5,106.9 L735.8,158.6 L736.0,146.0 L736.3,158.2 L736.5,122.5 L736.8,126.3 L737.1,131.4 L737.3,110.9 L737.6,132.3 L737.8,156.1 L738.1,131.5 L738.3,162.8 L738.6,138.6 L738.9,95.7 L739.1,171.7 L739.4,139.9 L739.6,104.6 L739.9,95.0 L740.1,103.8 L740.4,96.3 L740.7,128.2 L740.9,132.7 L741.2,95.8 L741.4,125.0 L741.7,135.7 L742.0,130.8 L742.2,165.0 L742.5,144.0 L742.7,91.5 L743.0,137.1 L743.2,162.2 L743.5,137.3 L743.8,117.4 L744.0,128.7 L744.3,94.8 L744.5,130.0 L744.8,150.9 L745.0,167.1 L745.3,146.4 L745.6,122.5 L745.8,148.0 L746.1,133.7 L746.3,127.0 L746.6,170.3 L746.8,133.0 L747.1,142.2 L747.4,119.3 L747.6,100.8 L747.9,127.0 L748.1,156.6 L748.4,142.3 L748.6,112.8 L748.9,109.5 L749.2,167.6 L749.4,165.1 L749.7,169.0 L749.9,102.4 L750.2,115.2 L750.5,110.9 L750.7,162.4 L751.0,150.7 L751.2,176.9 L751.5,117.3 L751.7,100.9 L752.0,130.9 L752.3,159.5 L752.5,109.2 L752.8,99.2 L753.0,99.1 L753.3,100.0 L753.5,108.2 L753.8,133.9 L754.1,124.7 L754.3,127.0 L754.6,179.4 L754.8,165.5 L755.1,161.8 L755.3,114.2 L755.6,109.5 L755.9,129.3 L756.1,128.5 L756.4,141.8 L756.6,171.8 L756.9,150.9 L757.1,176.8 L757.4,108.2 L757.7,168.4 L757.9,149.5 L758.2,139.3 L758.4,165.3 L758.7,171.7 L758.9,110.4 L759.2,152.7 L759.5,166.2 L759.7,119.1 L760.0,180.2 L760.2,103.4 L760.5,162.2 L760.8,141.7 L761.0,133.3 L761.3,104.9 L761.5,161.1 L761.8,137.7 L762.0,134.4 L762.3,168.9 L762.6,131.1 L762.8,108.4 L763.1,180.7 L763.3,166.6 L763.6,155.0 L763.8,143.1 L764.1,151.4 L764.4,176.9 L764.6,151.4 L764.9,154.9 L765.1,151.5 L765.4,171.2 L765.6,116.7 L765.9,180.1 L766.2,139.7 L766.4,127.2 L766.7,129.9 L766.9,148.8 L767.2,177.5 L767.4,184.7 L767.7,114.5 L768.0,114.2 L768.2,163.4 L768.5,137.9 L768.7,111.1 L769.0,169.9 L769.3,119.1 L769.5,110.3 L769.8,150.8 L770.0,135.4 L770.3,112.5 L770.5,168.8 L770.8,144.5 L771.1,161.2 L771.3,127.4 L771.6,185.0 L771.8,174.5 L772.1,146.0 L772.3,137.5 L772.6,147.3 L772.9,142.3 L773.1,178.1 L773.4,167.7 L773.6,169.1 L773.9,130.4 L774.1,175.1 L774.4,186.0 L774.7,133.9 L774.9,177.3 L775.2,167.3 L775.4,147.3 L775.7,188.5 L775.9,186.4 L776.2,143.9 L776.5,132.8 L776.7,161.2 L777.0,182.5 L777.2,145.5 L777.5,141.6 L777.8,155.0 L778.0,180.8 L778.3,147.6 L778.5,162.6 L778.8,190.6 L779.0,180.2 L779.3,143.0 L779.6,152.6 L779.8,139.2 L780.1,139.3 L780.3,187.0 L780.6,183.0 L780.8,153.9 L781.1,154.1 L781.4,174.7 L781.6,142.9 L781.9,189.8 L782.1,183.6 L782.4,130.3 L782.6,195.3 L782.9,165.1 L783.2,194.5 L783.4,148.9 L783.7,143.0 L783.9,185.8 L784.2,139.3 L784.4,199.1 L784.7,144.7 L785.0,180.1 L785.2,136.1 L785.5,189.5 L785.7,142.9 L786.0,138.6 L786.3,132.7 L786.5,161.7 L786.8,139.2 L787.0,178.4 L787.3,174.6 L787.5,162.8 L787.8,130.4 L788.1,142.1 L788.3,126.7 L788.6,157.4 L788.8,129.4 L789.1,180.4 L789.3,180.8 L789.6,133.8 L789.9,165.2 L790.1,178.8 L790.4,204.3 L790.6,198.1 L790.9,177.1 L791.1,203.0 L791.4,152.6 L791.7,141.6 L791.9,154.2 L792.2,151.9 L792.4,160.0 L792.7,182.1 L792.9,203.5 L793.2,174.9 L793.5,183.8 L793.7,194.3 L794.0,136.9 L794.2,151.2 L794.5,188.0 L794.8,170.1 L795.0,154.1 L795.3,182.8 L795.5,171.0 L795.8,201.8 L796.0,138.6 L796.3,169.9 L796.6,195.5 L796.8,209.0 L797.1,180.4 L797.3,188.7 L797.6,185.8 L797.8,137.3 L798.1,162.0 L798.4,145.2 L798.6,202.8 L798.9,174.8 L799.1,175.2 L799.4,178.1 L799.6,162.3 L799.9,140.9 L800.2,182.4 L800.4,212.2 L800.7,185.9 L800.9,138.0 L801.2,181.9 L801.4,179.1 L801.7,158.4 L802.0,186.1 L802.2,194.7 L802.5,184.2 L802.7,175.4 L803.0,190.3 L803.3,165.9 L803.5,141.7 L803.8,164.6 L804.0,207.4 L804.3,202.4 L804.5,148.0 L804.8,203.6 L805.1,152.4 L805.3,144.9 L805.6,200.0 L805.8,174.5 L806.1,210.7 L806.3,212.7 L806.6,202.4 L806.9,154.0 L807.1,194.0 L807.4,201.4 L807.6,195.9 L807.9,191.5 L808.1,185.2 L808.4,162.1 L808.7,156.8 L808.9,187.5 L809.2,212.6 L809.4,160.5 L809.7,180.2 L809.9,156.3 L810.2,202.1 L810.5,163.6 L810.7,194.2 L811.0,218.3 L811.2,160.9 L811.5,156.6 L811.8,165.4 L812.0,170.5 L812.3,204.2 L812.5,206.7 L812.8,169.9 L813.0,158.7 L813.3,175.0 L813.6,192.5 L813.8,165.1 L814.1,221.6 L814.3,162.2 L814.6,171.9 L814.8,165.4 L815.1,190.8 L815.4,175.2 L815.6,223.1 L815.9,179.7 L816.1,215.8 L816.4,195.9 L816.6,204.2 L816.9,195.8 L817.2,210.8 L817.4,170.5 L817.7,211.5 L817.9,161.9 L818.2,216.2 L818.4,224.5 L818.7,176.7 L819.0,193.6 L819.2,163.7 L819.5,199.4 L819.7,190.8 L820.0,164.3 L820.3,163.9 L820.5,213.5 L820.8,203.7 L821.0,226.7 L821.3,176.2 L821.5,212.6 L821.8,163.4 L822.1,220.9 L822.3,218.8 L822.6,230.6 L822.8,187.0 L823.1,185.2 L823.3,179.6 L823.6,167.3 L823.9,182.4 L824.1,221.5 L824.4,191.6 L824.6,198.9 L824.9,225.9 L825.1,165.0 L825.4,190.8 L825.7,175.7 L825.9,195.0 L826.2,166.2 L826.4,230.5 L826.7,227.2 L826.9,187.0 L827.2,209.6 L827.5,234.6 L827.7,232.2 L828.0,170.7 L828.2,235.7 L828.5,179.8 L828.8,174.1 L829.0,178.9 L829.3,171.0 L829.5,213.5 L829.8,186.2 L830.0,170.0 L830.3,200.5 L830.6,180.9 L830.8,234.7 L831.1,195.0 L831.3,172.2 L831.6,209.4 L831.8,173.5 L832.1,190.0 L832.4,218.1 L832.6,192.8 L832.9,213.9 L833.1,193.1 L833.4,219.2 L833.6,176.9 L833.9,183.7 L834.2,179.7 L834.4,210.1 L834.7,226.8 L834.9,193.9 L835.2,240.9 L835.4,225.1 L835.7,199.0 L836.0,182.8 L836.2,227.4 L836.5,221.6 L836.7,229.3 L837.0,210.8 L837.3,196.7 L837.5,226.3 L837.8,185.3 L838.0,244.5 L838.3,218.2 L838.5,232.1 L838.8,203.3 L839.1,180.5 L839.3,191.2 L839.6,233.4 L839.8,246.3 L840.1,213.6 L840.3,194.0 L840.6,186.6 L840.9,218.6 L841.1,216.1 L841.4,218.4 L841.6,202.2 L841.9,247.3 L842.1,199.4 L842.4,221.1 L842.7,222.4 L842.9,202.0 L843.2,196.6 L843.4,205.9 L843.7,243.4 L843.9,209.7 L844.2,223.4 L844.5,237.9 L844.7,231.2 L845.0,225.5 L845.2,201.4 L845.5,251.0 L845.8,218.5 L846.0,191.0 L846.3,189.7 L846.5,207.7 L846.8,230.4 L847.0,224.8 L847.3,223.9 L847.6,195.3 L847.8,206.5 L848.1,238.5 L848.3,204.2 L848.6,201.1 L848.8,250.7 L849.1,231.3 L849.4,195.3 L849.6,201.4 L849.9,254.5 L850.1,197.0 L850.4,220.9 L850.6,214.9 L850.9,229.9 L851.2,258.7 L851.4,242.9 L851.7,209.0 L851.9,230.3 L852.2,257.3 L852.4,207.3 L852.7,236.8 L853.0,199.0 L853.2,204.5 L853.5,248.0 L853.7,217.7 L854.0,224.6 L854.2,221.9 L854.5,245.5 L854.8,256.0 L855.0,234.9 L855.3,214.9 L855.5,209.3 L855.8,234.6 L856.1,212.9 L856.3,245.9 L856.6,237.2 L856.8,230.9 L857.1,226.9 L857.3,246.5 L857.6,248.9 L857.9,225.1 L858.1,241.2 L858.4,220.3 L858.6,205.7 L858.9,229.8 L859.1,211.3 L859.4,223.5 L859.7,220.5 L859.9,210.0 L860.2,231.3 L860.4,246.4 L860.7,262.8 L860.9,259.7 L861.2,211.3 L861.5,242.5 L861.7,217.2 L862.0,261.9 L862.2,254.8 L862.5,261.2 L862.7,211.1 L863.0,211.3 L863.3,254.6 L863.5,243.5 L863.8,236.4 L864.0,241.1 L864.3,254.3 L864.6,219.8 L864.8,237.9 L865.1,224.6 L865.3,224.9 L865.6,238.0 L865.8,246.8 L866.1,248.1 L866.4,269.0 L866.6,234.8 L866.9,238.3 L867.1,274.5 L867.4,261.1 L867.6,270.4 L867.9,258.7 L868.2,255.5 L868.4,274.3 L868.7,258.2 L868.9,248.4 L869.2,232.6 L869.4,268.0 L869.7,258.2 L870.0,223.9 L870.2,263.1 L870.5,233.1 L870.7,266.4 L871.0,251.9 L871.2,269.7 L871.5,273.0 L871.8,239.4 L872.0,265.1 L872.3,262.5 L872.5,272.9 L872.8,271.7 L873.1,246.5 L873.3,248.0 L873.6,242.9 L873.8,238.0 L874.1,249.7 L874.3,241.6 L874.6,279.0 L874.9,280.6 L875.1,250.7 L875.4,231.5 L875.6,233.6 L875.9,251.8 L876.1,248.7 L876.4,237.2 L876.7,284.6 L876.9,265.3 L877.2,245.2 L877.4,234.9 L877.7,245.4 L877.9,268.3 L878.2,277.9 L878.5,259.6 L878.7,244.1 L879.0,233.3 L879.2,269.0 L879.5,265.8 L879.7,248.1 L880.0,261.5 L880.3,240.4 L880.5,242.1 L880.8,248.0 L881.0,267.6 L881.3,258.8 L881.6,288.1 L881.8,260.1 L882.1,291.0 L882.3,289.8 L882.6,280.6 L882.8,251.3 L883.1,264.2 L883.4,293.9 L883.6,279.6 L883.9,245.3 L884.1,285.7 L884.4,267.1 L884.6,243.2 L884.9,273.2 L885.2,293.9 L885.4,290.7 L885.7,249.2 L885.9,268.7 L886.2,254.8 L886.4,294.6 L886.7,276.7 L887.0,257.7 L887.2,264.8 L887.5,287.2 L887.7,268.9 L888.0,275.4 L888.2,290.3 L888.5,286.8 L888.8,300.1 L889.0,292.3 L889.3,285.6 L889.5,287.6 L889.8,296.9 L890.1,258.5 L890.3,275.4 L890.6,264.0 L890.8,282.2 L891.1,273.9 L891.3,294.3 L891.6,288.7 L891.9,266.5 L892.1,297.0 L892.4,300.5 L892.6,259.5 L892.9,283.6 L893.1,301.0 L893.4,281.3 L893.7,270.7 L893.9,277.7 L894.2,287.2 L894.4,295.9 L894.7,262.2 L894.9,289.7 L895.2,262.6 L895.5,282.6 L895.7,275.7 L896.0,302.7 L896.2,281.8 L896.5,293.5 L896.7,295.6 L897.0,289.9 L897.3,300.1 L897.5,300.9 L897.8,266.7 L898.0,289.8 L898.3,283.3 L898.6,288.1 L898.8,302.1 L899.1,275.0 L899.3,264.3 L899.6,308.1 L899.8,290.0 L900.1,271.9 L900.4,271.9 L900.6,276.2 L900.9,276.9 L901.1,299.3 L901.4,290.2 L901.6,290.8 L901.9,303.4 L902.2,306.9 L902.4,267.7 L902.7,311.5 L902.9,295.1 L903.2,265.6 L903.4,310.0 L903.7,287.4 L904.0,268.7 L904.2,282.9 L904.5,302.6 L904.7,305.0 L905.0,276.9 L905.2,281.9 L905.5,299.4 L905.8,299.4 L906.0,271.2 L906.3,306.8 L906.5,277.1 L906.8,313.8 L907.1,277.3 L907.3,290.3 L907.6,284.9 L907.8,292.5 L908.1,313.5 L908.3,285.4 L908.6,299.5 L908.9,279.3 L909.1,292.2 L909.4,287.5 L909.6,282.1 L909.9,323.2 L910.1,313.2 L910.4,287.3 L910.7,302.3 L910.9,321.2 L911.2,302.6 L911.4,318.6 L911.7,286.8 L911.9,305.7 L912.2,307.6 L912.5,286.4 L912.7,300.3 L913.0,310.9 L913.2,323.5 L913.5,295.5 L913.7,301.7 L914.0,284.9 L914.3,302.1 L914.5,327.5 L914.8,321.7 L915.0,302.6 L915.3,320.6 L915.6,323.0 L915.8,301.0 L916.1,323.3 L916.3,294.8 L916.6,288.5 L916.8,308.2 L917.1,298.1 L917.4,317.0 L917.6,289.7 L917.9,330.3 L918.1,302.1 L918.4,305.0 L918.6,308.3 L918.9,312.7 L919.2,299.2 L919.4,300.5 L919.7,296.1 L919.9,303.6 L920.2,324.8 L920.4,326.0 L920.7,336.3 L921.0,322.5 L921.2,295.1 L921.5,323.6 L921.7,303.9 L922.0,332.8 L922.2,322.7 L922.5,307.1 L922.8,336.6 L923.0,309.4 L923.3,334.1 L923.5,325.2 L923.8,331.4 L924.1,315.0 L924.3,304.4 L924.6,311.2 L924.8,319.3 L925.1,341.1 L925.3,324.8 L925.6,303.5 L925.9,308.1 L926.1,340.4 L926.4,318.0 L926.6,335.1 L926.9,340.5 L927.1,319.1 L927.4,304.1 L927.7,306.9 L927.9,341.3 L928.2,330.8 L928.4,322.8 L928.7,303.4 L928.9,334.0 L929.2,322.9 L929.5,306.0 L929.7,334.4 L930.0,340.9 L930.2,317.7 L930.5,340.7 L930.7,344.1 L931.0,336.5 L931.3,322.1 L931.5,342.0 L931.8,335.4 L932.0,317.9 L932.3,334.1 L932.6,340.4 L932.8,340.6 L933.1,329.4 L933.3,344.6 L933.6,339.1 L933.8,340.6 L934.1,353.6 L934.4,323.1 L934.6,334.9 L934.9,312.3 L935.1,332.6 L935.4,350.1 L935.6,336.4 L935.9,339.3 L936.2,334.2 L936.4,336.9 L936.7,331.8 L936.9,343.9 L937.2,347.4 L937.4,344.6 L937.7,354.5 L938.0,356.6 L938.2,342.1 L938.5,327.4 L938.7,343.8 L939.0,329.5 L939.2,330.6 L939.5,323.7 L939.8,337.2 L940.0,360.3 L940.3,357.5 L940.5,345.7 L940.8,360.6 L941.1,330.0 L941.3,346.0 L941.6,340.8 L941.8,352.5 L942.1,338.1 L942.3,353.1 L942.6,334.8 L942.9,359.5 L943.1,332.3 L943.4,349.0 L943.6,342.3 L943.9,335.8 L944.1,357.9 L944.4,346.3 L944.7,359.8 L944.9,330.8 L945.2,359.9 L945.4,332.3 L945.7,328.3 L945.9,358.1 L946.2,342.5 L946.5,337.9 L946.7,337.6 L947.0,353.8 L947.2,355.0 L947.5,340.8 L947.7,346.0 L948.0,337.0 L948.3,361.3 L948.5,366.8 L948.8,368.1 L949.0,343.6 L949.3,352.0 L949.5,372.1 L949.8,362.2 L950.1,349.5 L950.3,338.7 L950.6,366.4 L950.8,343.6 L951.1,361.4 L951.4,360.9 L951.6,370.4 L951.9,359.6 L952.1,354.4 L952.4,370.9 L952.6,355.1 L952.9,364.4 L953.2,373.3 L953.4,360.8 L953.7,354.6 L953.9,343.2 L954.2,357.6 L954.4,371.0 L954.7,375.4 L955.0,372.7 L955.2,378.2 L955.5,379.8 L955.7,354.9 L956.0,364.4 L956.2,356.4 L956.5,373.7 L956.8,352.4 L957.0,370.9 L957.3,347.0 L957.5,381.2 L957.8,357.0 L958.0,380.3 L958.3,367.7 L958.6,381.1 L958.8,351.5 L959.1,351.1 L959.3,368.9 L959.6,377.6 L959.9,360.6 L960.1,382.6 L960.4,383.1 L960.6,366.6 L960.9,358.0 L961.1,357.4 L961.4,383.1 L961.7,376.4 L961.9,354.6 L962.2,371.4 L962.4,368.7 L962.7,375.4 L962.9,363.8 L963.2,377.2 L963.5,367.6 L963.7,370.6 L964.0,368.6 L964.2,357.1 L964.5,376.4 L964.7,373.1 L965.0,372.1 L965.3,372.2 L965.5,362.4 L965.8,366.2 L966.0,383.7 L966.3,383.3 L966.5,392.0 L966.8,388.2 L967.1,390.4 L967.3,368.7 L967.6,365.7 L967.8,365.3 L968.1,383.8 L968.4,373.3 L968.6,394.0 L968.9,372.1 L969.1,369.6 L969.4,383.2 L969.6,383.1 L969.9,392.5 L970.2,368.4 L970.4,395.4 L970.7,396.7 L970.9,374.4 L971.2,373.7 L971.4,399.8 L971.7,384.7 L972.0,377.1 L972.2,398.6 L972.5,384.0 L972.7,399.6 L973.0,396.5 L973.2,379.7 L973.5,372.5 L973.8,395.2 L974.0,373.1 L974.3,388.9 L974.5,388.3 L974.8,381.8 L975.0,388.9 L975.3,405.0 L975.6,400.8 L975.8,403.8 L976.1,403.8 L976.3,387.8 L976.6,396.5 L976.9,397.3 L977.1,378.1 L977.4,380.4 L977.6,392.9 L977.9,398.6 L978.1,406.6 L978.4,389.7 L978.7,409.2 L978.9,390.1 L979.2,409.1 L979.4,399.6 L979.7,397.8 L979.9,392.9 L980.2,383.6 L980.5,382.8 L980.7,387.5 L981.0,389.4 L981.2,387.6 L981.5,393.5 L981.7,383.3 L982.0,397.9 L982.3,412.2 L982.5,403.8 L982.8,412.1 L983.0,410.5 L983.3,390.3 L983.5,391.5 L983.8,398.7 L984.1,387.8 L984.3,408.3 L984.6,407.5 L984.8,415.7 L985.1,409.0 L985.4,391.7 L985.6,412.3 L985.9,417.3 L986.1,404.6 L986.4,414.3 L986.6,393.3 L986.9,411.3 L987.2,395.0 L987.4,405.2 L987.7,401.4 L987.9,409.0 L988.2,409.8 L988.4,399.5 L988.7,408.4 L989.0,415.9 L989.2,402.0 L989.5,399.3 L989.7,418.7 L990.0,419.3 L990.2,416.2 L990.5,415.1 L990.8,397.7 L991.0,400.7 L991.3,406.2 L991.5,407.8 L991.8,409.6 L992.0,425.2 L992.3,403.5 L992.6,407.5 L992.8,411.1 L993.1,422.0 L993.3,418.5 L993.6,403.6 L993.9,404.9 L994.1,422.4 L994.4,411.4 L994.6,407.3 L994.9,420.2 L995.1,427.9 L995.4,410.0 L995.7,424.3 L995.9,422.2 L996.2,430.3 L996.4,421.0 L996.7,427.3 L996.9,416.7 L997.2,430.1 L997.5,431.7 L997.7,426.4 L998.0,424.7 L998.2,429.8 L998.5,428.0 L998.7,425.0 L999.0,422.6 L999.3,435.3 L999.5,412.0 L999.8,419.5 L1000.0,418.0 L1000.3,415.1 L1000.5,423.7 L1000.8,426.5 L1001.1,420.2 L1001.3,417.6 L1001.6,426.2 L1001.8,429.8 L1002.1,434.2 L1002.4,426.5 L1002.6,439.2 L1002.9,423.7 L1003.1,423.7 L1003.4,430.3 L1003.6,420.3 L1003.9,424.3 L1004.2,429.0 L1004.4,437.4 L1004.7,420.4 L1004.9,437.2 L1005.2,421.5 L1005.4,428.2 L1005.7,441.8 L1006.0,422.8 L1006.2,434.7 L1006.5,423.5 L1006.7,426.4 L1007.0,440.7 L1007.2,423.5 L1007.5,427.3 L1007.8,431.4 L1008.0,443.5 L1008.3,434.5 L1008.5,440.3 L1008.8,446.3 L1009.0,433.2 L1009.3,431.5 L1009.6,432.3 L1009.8,448.6 L1010.1,432.3 L1010.3,441.7 L1010.6,442.5 L1010.9,440.5 L1011.1,434.0 L1011.4,448.3 L1011.6,445.1 L1011.9,434.6 L1012.1,449.1 L1012.4,451.5 L1012.7,443.3 L1012.9,444.2 L1013.2,440.6 L1013.4,439.4 L1013.7,435.3 L1013.9,446.8 L1014.2,445.0 L1014.5,451.6 L1014.7,447.7 L1015.0,450.7 L1015.2,449.4 L1015.5,449.0 L1015.7,447.1 L1016.0,454.4 L1016.3,444.8 L1016.5,446.9 L1016.8,442.3 L1017.0,455.0 L1017.3,455.4 L1017.5,439.8 L1017.8,454.0 L1018.1,442.5 L1018.3,450.1 L1018.6,453.2 L1018.8,457.5 L1019.1,445.0 L1019.4,459.3 L1019.6,442.0 L1019.9,445.0 L1020.1,460.1 L1020.4,460.5 L1020.6,449.3 L1020.9,448.4 L1021.2,453.7 L1021.4,454.4 L1021.7,457.5 L1021.9,458.8 L1022.2,447.4 L1022.4,451.4 L1022.7,463.4 L1023.0,453.5 L1023.2,462.7 L1023.5,463.5 L1023.7,465.5 L1024.0,457.2 L1024.2,461.4 L1024.5,452.2 L1024.8,465.6 L1025.0,452.6 L1025.3,454.4 L1025.5,455.5 L1025.8,466.0 L1026.0,457.6 L1026.3,466.8 L1026.6,464.3 L1026.8,457.7 L1027.1,456.3 L1027.3,462.6 L1027.6,459.8 L1027.9,469.6 L1028.1,456.0 L1028.4,457.3 L1028.6,466.1 L1028.9,461.3 L1029.1,471.9 L1029.4,473.3 L1029.7,458.1 L1029.9,463.0 L1030.2,467.9 L1030.4,462.8 L1030.7,460.8 L1030.9,472.6 L1031.2,474.8 L1031.5,463.2 L1031.7,467.3 L1032.0,476.5 L1032.2,463.0 L1032.5,466.1 L1032.7,469.6 L1033.0,469.7 L1033.3,475.7 L1033.5,472.6 L1033.8,469.1 L1034.0,471.9 L1034.3,471.4 L1034.5,479.8 L1034.8,478.8 L1035.1,473.7 L1035.3,480.3 L1035.6,473.5 L1035.8,468.2 L1036.1,474.6 L1036.4,471.1 L1036.6,468.6 L1036.9,478.9 L1037.1,469.6 L1037.4,473.8 L1037.6,474.2 L1037.9,473.7 L1038.2,470.9 L1038.4,484.7 L1038.7,479.4 L1038.9,474.0 L1039.2,481.0 L1039.4,480.5 L1039.7,478.0 L1040.0,485.5 L1040.2,484.1 L1040.5,476.1 L1040.7,485.4 L1041.0,482.7 L1041.2,486.0 L1041.5,477.3 L1041.8,487.2 L1042.0,485.2 L1042.3,479.7 L1042.5,490.5 L1042.8,485.1 L1043.0,480.4 L1043.3,480.6 L1043.6,486.8 L1043.8,482.2 L1044.1,491.1 L1044.3,485.8 L1044.6,484.7 L1044.8,491.6 L1045.1,487.4 L1045.4,488.6 L1045.6,483.1 L1045.9,484.4 L1046.1,484.2 L1046.4,489.3 L1046.7,487.1 L1046.9,484.6 L1047.2,491.9 L1047.4,494.0 L1047.7,485.9 L1047.9,494.4 L1048.2,491.1 L1048.5,498.1 L1048.7,496.8 L1049.0,494.3 L1049.2,495.7 L1049.5,490.1 L1049.7,496.0 L1050.0,489.7 L1050.3,497.5 L1050.5,498.4 L1050.8,498.3 L1051.0,499.3 L1051.3,494.4 L1051.5,498.0 L1051.8,496.9 L1052.1,501.3 L1052.3,497.8 L1052.6,493.7 L1052.8,497.8 L1053.1,503.8 L1053.3,497.9 L1053.6,499.5 L1053.9,498.6 L1054.1,499.8 L1054.4,502.6 L1054.6,502.6 L1054.9,498.3 L1055.2,498.9 L1055.4,505.7 L1055.7,498.6 L1055.9,503.9 L1056.2,499.9 L1056.4,504.8 L1056.7,500.0 L1057.0,505.0 L1057.2,506.2 L1057.5,501.4 L1057.7,503.0 L1058.0,502.0 L1058.2,509.7 L1058.5,506.1 L1058.8,510.3 L1059.0,504.5 L1059.3,508.1 L1059.5,509.4 L1059.8,508.6 L1060.0,510.5 L1060.3,513.1 L1060.6,511.0 L1060.8,507.4 L1061.1,513.5 L1061.3,511.9 L1061.6,508.8 L1061.8,510.8 L1062.1,509.7 L1062.4,510.6 L1062.6,510.6 L1062.9,514.2 L1063.1,513.1 L1063.4,513.9 L1063.7,514.1 L1063.9,516.5 L1064.2,516.2 L1064.4,515.4 L1064.7,515.4 L1064.9,519.2 L1065.2,516.3 L1065.5,514.4 L1065.7,519.5 L1066.0,519.3 L1066.2,519.6 L1066.5,518.7 L1066.7,519.3 L1067.0,516.6 L1067.3,516.6 L1067.5,521.1 L1067.8,522.0 L1068.0,520.0 L1068.3,521.6 L1068.5,523.7 L1068.8,521.9 L1069.1,523.6 L1069.3,522.8 L1069.6,523.7 L1069.8,524.7 L1070.1,521.5 L1070.3,525.8 L1070.6,524.8 L1070.9,524.1 L1071.1,523.4 L1071.4,525.6 L1071.6,524.4 L1071.9,524.4 L1072.2,524.4 L1072.4,527.8 L1072.7,528.7 L1072.9,526.6 L1073.2,529.7 L1073.4,527.5 L1073.7,528.4 L1074.0,528.9 L1074.2,530.2 L1074.5,530.0 L1074.7,529.9 L1075.0,529.6 L1075.2,532.4 L1075.5,530.5 L1075.8,531.8 L1076.0,532.1 L1076.3,532.5 L1076.5,534.2 L1076.8,534.6 L1077.0,534.7 L1077.3,533.7 L1077.6,533.8 L1077.8,534.2 L1078.1,534.9 L1078.3,536.1 L1078.6,535.6 L1078.8,536.1 L1079.1,536.0 L1079.4,537.7 L1079.6,536.4 L1079.9,537.4 L1080.1,538.1 L1080.4,537.6 L1080.7,538.5 L1080.9,539.4 L1081.2,539.4 L1081.4,539.4 L1081.7,540.6 L1081.9,539.7 L1082.2,541.4 L1082.5,541.4 L1082.7,541.0 L1083.0,542.2 L1083.2,542.1 L1083.5,543.2 L1083.7,542.8 L1084.0,543.6" fill="none" stroke="#1f77b4" stroke-width="1.4" opacity="0.85"/><text x="1040" y="54" fill="#ff7f0e" font-size="11">roll 34</text><text x="1090" y="558" fill="#ff7f0e" font-size="11">-26</text><path d="M616.0,341.7 L616.3,341.7 L616.5,342.4 L616.8,342.4 L617.0,342.4 L617.3,342.4 L617.5,342.4 L617.8,342.4 L618.1,343.2 L618.3,342.4 L618.6,341.7 L618.8,341.7 L619.1,342.4 L619.3,343.2 L619.6,342.4 L619.9,342.4 L620.1,343.2 L620.4,343.2 L620.6,343.2 L620.9,342.4 L621.2,343.2 L621.4,341.7 L621.7,343.2 L621.9,341.7 L622.2,342.4 L622.4,343.2 L622.7,342.4 L623.0,341.7 L623.2,342.4 L623.5,342.4 L623.7,342.4 L624.0,342.4 L624.2,341.7 L624.5,341.7 L624.8,342.4 L625.0,342.4 L625.3,342.4 L625.5,342.4 L625.8,341.7 L626.0,341.7 L626.3,343.2 L626.6,343.2 L626.8,342.4 L627.1,342.4 L627.3,342.4 L627.6,341.7 L627.8,342.4 L628.1,342.4 L628.4,342.4 L628.6,342.4 L628.9,342.4 L629.1,342.4 L629.4,341.7 L629.7,342.4 L629.9,342.4 L630.2,342.4 L630.4,341.7 L630.7,342.4 L630.9,341.7 L631.2,342.4 L631.5,341.7 L631.7,343.2 L632.0,343.2 L632.2,342.4 L632.5,341.7 L632.7,341.7 L633.0,342.4 L633.3,342.4 L633.5,342.4 L633.8,341.7 L634.0,342.4 L634.3,341.7 L634.5,341.7 L634.8,342.4 L635.1,342.4 L635.3,341.7 L635.6,341.7 L635.8,342.4 L636.1,342.4 L636.3,343.2 L636.6,343.2 L636.9,342.4 L637.1,342.4 L637.4,343.2 L637.6,342.4 L637.9,342.4 L638.2,342.4 L638.4,342.4 L638.7,341.7 L638.9,342.4 L639.2,342.4 L639.4,341.7 L639.7,343.2 L640.0,342.4 L640.2,341.7 L640.5,341.7 L640.7,342.4 L641.0,342.4 L641.2,343.2 L641.5,341.7 L641.8,343.2 L642.0,341.7 L642.3,341.7 L642.5,342.4 L642.8,343.2 L643.0,342.4 L643.3,341.7 L643.6,343.2 L643.8,342.4 L644.1,342.4 L644.3,342.4 L644.6,343.2 L644.8,342.4 L645.1,341.7 L645.4,341.7 L645.6,341.7 L645.9,341.7 L646.1,343.2 L646.4,342.4 L646.7,343.2 L646.9,341.7 L647.2,342.4 L647.4,341.7 L647.7,342.4 L647.9,342.4 L648.2,342.4 L648.5,342.4 L648.7,341.7 L649.0,342.4 L649.2,341.7 L649.5,341.7 L649.7,343.2 L650.0,342.4 L650.3,342.4 L650.5,342.4 L650.8,341.7 L651.0,343.2 L651.3,343.2 L651.5,341.7 L651.8,342.4 L652.1,343.2 L652.3,343.2 L652.6,341.7 L652.8,343.2 L653.1,342.4 L653.3,342.4 L653.6,341.7 L653.9,343.2 L654.1,343.2 L654.4,342.4 L654.6,343.2 L654.9,342.4 L655.2,342.4 L655.4,342.4 L655.7,342.4 L655.9,342.4 L656.2,342.4 L656.4,343.2 L656.7,343.2 L657.0,342.4 L657.2,342.4 L657.5,343.2 L657.7,342.4 L658.0,342.4 L658.2,343.2 L658.5,342.4 L658.8,343.2 L659.0,342.4 L659.3,341.7 L659.5,341.7 L659.8,341.7 L660.0,342.4 L660.3,342.4 L660.6,342.4 L660.8,342.4 L661.1,341.7 L661.3,342.4 L661.6,341.7 L661.8,341.7 L662.1,342.4 L662.4,342.4 L662.6,341.7 L662.9,341.7 L663.1,342.4 L663.4,341.7 L663.6,342.4 L663.9,341.7 L664.2,341.7 L664.4,342.4 L664.7,342.4 L664.9,342.4 L665.2,341.7 L665.5,342.4 L665.7,341.7 L666.0,342.4 L666.2,341.7 L666.5,342.4 L666.7,341.7 L667.0,341.7 L667.3,342.4 L667.5,341.7 L667.8,342.4 L668.0,341.7 L668.3,340.9 L668.5,341.7 L668.8,342.4 L669.1,342.4 L669.3,340.9 L669.6,341.7 L669.8,341.7 L670.1,340.9 L670.3,342.4 L670.6,340.9 L670.9,340.9 L671.1,342.4 L671.4,340.9 L671.6,341.7 L671.9,341.7 L672.1,340.9 L672.4,341.7 L672.7,342.4 L672.9,342.4 L673.2,341.7 L673.4,341.7 L673.7,341.7 L674.0,341.7 L674.2,341.7 L674.5,342.4 L674.7,341.7 L675.0,341.7 L675.2,342.4 L675.5,340.9 L675.8,342.4 L676.0,340.9 L676.3,342.4 L676.5,341.7 L676.8,342.4 L677.0,340.9 L677.3,341.7 L677.6,340.9 L677.8,342.4 L678.1,340.9 L678.3,340.9 L678.6,341.7 L678.8,340.9 L679.1,341.7 L679.4,340.9 L679.6,341.7 L679.9,341.7 L680.1,340.9 L680.4,341.7 L680.6,341.7 L680.9,340.9 L681.2,341.7 L681.4,342.4 L681.7,341.7 L681.9,341.7 L682.2,341.7 L682.5,341.7 L682.7,341.7 L683.0,341.7 L683.2,342.4 L683.5,340.9 L683.7,340.9 L684.0,342.4 L684.3,342.4 L684.5,341.7 L684.8,341.7 L685.0,340.9 L685.3,341.7 L685.5,341.7 L685.8,341.7 L686.1,342.4 L686.3,342.4 L686.6,341.7 L686.8,340.9 L687.1,342.4 L687.3,341.7 L687.6,340.9 L687.9,342.4 L688.1,340.9 L688.4,342.4 L688.6,341.7 L688.9,340.9 L689.1,341.7 L689.4,342.4 L689.7,341.7 L689.9,341.7 L690.2,341.7 L690.4,342.4 L690.7,342.4 L691.0,341.7 L691.2,342.4 L691.5,341.7 L691.7,341.7 L692.0,342.4 L692.2,341.7 L692.5,341.7 L692.8,341.7 L693.0,342.4 L693.3,342.4 L693.5,343.2 L693.8,342.4 L694.0,342.4 L694.3,343.2 L694.6,342.4 L694.8,342.4 L695.1,337.8 L695.3,330.1 L695.6,325.4 L695.8,316.2 L696.1,308.5 L696.4,303.8 L696.6,301.5 L696.9,294.6 L697.1,288.4 L697.4,276.8 L697.6,285.3 L697.9,276.0 L698.2,278.3 L698.4,262.9 L698.7,262.9 L698.9,258.3 L699.2,266.8 L699.5,248.2 L699.7,252.9 L700.0,250.5 L700.2,258.3 L700.5,253.6 L700.7,238.2 L701.0,240.5 L701.3,248.2 L701.5,229.7 L701.8,245.1 L702.0,244.4 L702.3,229.7 L702.5,245.1 L702.8,239.7 L703.1,231.2 L703.3,234.3 L703.6,223.5 L703.8,228.1 L704.1,229.7 L704.3,227.4 L704.6,228.9 L704.9,224.3 L705.1,226.6 L705.4,235.9 L705.6,221.2 L705.9,238.2 L706.1,230.5 L706.4,225.0 L706.7,235.9 L706.9,210.4 L707.2,239.7 L707.4,217.3 L707.7,230.5 L708.0,238.2 L708.2,216.6 L708.5,233.5 L708.7,229.7 L709.0,215.8 L709.2,227.4 L709.5,238.2 L709.8,225.0 L710.0,218.9 L710.3,228.9 L710.5,233.5 L710.8,232.8 L711.0,223.5 L711.3,221.2 L711.6,222.0 L711.8,224.3 L712.1,225.8 L712.3,238.2 L712.6,221.2 L712.8,225.8 L713.1,232.0 L713.4,227.4 L713.6,245.1 L713.9,239.7 L714.1,252.9 L714.4,245.9 L714.6,238.2 L714.9,251.3 L715.2,240.5 L715.4,232.8 L715.7,250.5 L715.9,240.5 L716.2,248.2 L716.5,253.6 L716.7,258.3 L717.0,242.8 L717.2,237.4 L717.5,255.9 L717.7,258.3 L718.0,255.9 L718.3,255.2 L718.5,263.7 L718.8,257.5 L719.0,275.2 L719.3,254.4 L719.5,280.7 L719.8,262.1 L720.1,270.6 L720.3,259.0 L720.6,250.5 L720.8,259.8 L721.1,273.7 L721.3,262.9 L721.6,272.9 L721.9,267.5 L722.1,279.9 L722.4,276.0 L722.6,276.0 L722.9,276.0 L723.1,295.3 L723.4,298.4 L723.7,313.9 L723.9,321.6 L724.2,330.1 L724.4,336.3 L724.7,344.8 L725.0,352.5 L725.2,357.1 L725.5,366.4 L725.7,371.0 L726.0,381.0 L726.2,382.6 L726.5,388.0 L726.8,391.9 L727.0,408.1 L727.3,402.7 L727.5,406.5 L727.8,416.6 L728.0,413.5 L728.3,427.4 L728.6,418.1 L728.8,421.2 L729.1,424.3 L729.3,432.0 L729.6,439.0 L729.8,433.6 L730.1,429.7 L730.4,445.9 L730.6,431.2 L730.9,442.8 L731.1,455.2 L731.4,432.8 L731.6,448.2 L731.9,449.8 L732.2,544.0 L732.4,436.7 L732.7,430.5 L732.9,452.9 L733.2,435.1 L733.5,440.5 L733.7,435.9 L734.0,449.8 L734.2,436.7 L734.5,459.8 L734.7,442.8 L735.0,439.7 L735.3,460.6 L735.5,447.5 L735.8,441.3 L736.0,459.8 L736.3,461.4 L736.5,462.1 L736.8,454.4 L737.1,453.6 L737.3,456.0 L737.6,447.5 L737.8,470.6 L738.1,459.8 L738.3,462.1 L738.6,464.5 L738.9,468.3 L739.1,459.8 L739.4,470.6 L739.6,465.2 L739.9,473.0 L740.1,471.4 L740.4,462.1 L740.7,474.5 L740.9,459.8 L741.2,468.3 L741.4,450.6 L741.7,467.5 L742.0,469.1 L742.2,465.2 L742.5,466.8 L742.7,470.6 L743.0,468.3 L743.2,458.3 L743.5,460.6 L743.8,475.3 L744.0,452.9 L744.3,467.5 L744.5,471.4 L744.8,471.4 L745.0,450.6 L745.3,475.3 L745.6,447.5 L745.8,456.7 L746.1,463.7 L746.3,450.6 L746.6,456.7 L746.8,466.0 L747.1,447.5 L747.4,474.5 L747.6,444.4 L747.9,468.3 L748.1,455.2 L748.4,459.8 L748.6,456.7 L748.9,466.8 L749.2,456.0 L749.4,458.3 L749.7,468.3 L749.9,469.1 L750.2,459.8 L750.5,462.9 L750.7,470.6 L751.0,448.2 L751.2,459.8 L751.5,451.3 L751.7,452.1 L752.0,471.4 L752.3,462.9 L752.5,452.9 L752.8,473.7 L753.0,469.1 L753.3,452.1 L753.5,477.6 L753.8,464.5 L754.1,471.4 L754.3,462.1 L754.6,453.6 L754.8,464.5 L755.1,468.3 L755.3,460.6 L755.6,455.2 L755.9,461.4 L756.1,456.7 L756.4,456.7 L756.6,473.7 L756.9,471.4 L757.1,471.4 L757.4,463.7 L757.7,471.4 L757.9,471.4 L758.2,472.2 L758.4,470.6 L758.7,474.5 L758.9,462.9 L759.2,479.1 L759.5,473.0 L759.7,468.3 L760.0,462.1 L760.2,464.5 L760.5,462.9 L760.8,473.0 L761.0,466.8 L761.3,457.5 L761.5,466.0 L761.8,456.7 L762.0,460.6 L762.3,477.6 L762.6,468.3 L762.8,463.7 L763.1,482.2 L763.3,471.4 L763.6,474.5 L763.8,463.7 L764.1,462.9 L764.4,457.5 L764.6,482.2 L764.9,451.3 L765.1,460.6 L765.4,473.7 L765.6,473.7 L765.9,472.2 L766.2,473.7 L766.4,473.7 L766.7,456.0 L766.9,456.0 L767.2,464.5 L767.4,476.8 L767.7,455.2 L768.0,438.2 L768.2,431.2 L768.5,427.4 L768.7,416.6 L769.0,402.7 L769.3,389.5 L769.5,378.7 L769.8,374.1 L770.0,363.3 L770.3,354.8 L770.5,347.8 L770.8,336.3 L771.1,332.4 L771.3,323.1 L771.6,319.3 L771.8,313.1 L772.1,301.5 L772.3,300.7 L772.6,289.9 L772.9,291.5 L773.1,288.4 L773.4,283.0 L773.6,272.9 L773.9,270.6 L774.1,261.3 L774.4,261.3 L774.7,255.9 L774.9,251.3 L775.2,261.3 L775.4,249.8 L775.7,245.1 L775.9,242.8 L776.2,258.3 L776.5,244.4 L776.7,243.6 L777.0,232.8 L777.2,239.0 L777.5,248.2 L777.8,225.0 L778.0,242.8 L778.3,247.4 L778.5,226.6 L778.8,243.6 L779.0,232.8 L779.3,225.0 L779.6,240.5 L779.8,238.2 L780.1,239.7 L780.3,229.7 L780.6,237.4 L780.8,219.6 L781.1,222.0 L781.4,219.6 L781.6,240.5 L781.9,215.0 L782.1,235.1 L782.4,233.5 L782.6,227.4 L782.9,238.2 L783.2,233.5 L783.4,232.0 L783.7,228.1 L783.9,211.9 L784.2,232.8 L784.4,228.9 L784.7,226.6 L785.0,235.9 L785.2,222.7 L785.5,224.3 L785.7,228.9 L786.0,229.7 L786.3,222.0 L786.5,218.1 L786.8,227.4 L787.0,229.7 L787.3,214.2 L787.5,209.6 L787.8,223.5 L788.1,210.4 L788.3,235.1 L788.6,212.7 L788.8,235.1 L789.1,225.0 L789.3,222.0 L789.6,231.2 L789.9,218.1 L790.1,228.1 L790.4,213.5 L790.6,225.8 L790.9,218.9 L791.1,235.1 L791.4,215.0 L791.7,222.0 L791.9,235.1 L792.2,232.0 L792.4,217.3 L792.7,228.9 L792.9,209.6 L793.2,231.2 L793.5,208.8 L793.7,219.6 L794.0,234.3 L794.2,228.1 L794.5,215.0 L794.8,225.0 L795.0,221.2 L795.3,228.9 L795.5,216.6 L795.8,211.9 L796.0,214.2 L796.3,212.7 L796.6,222.0 L796.8,222.7 L797.1,226.6 L797.3,218.1 L797.6,206.5 L797.8,228.1 L798.1,207.3 L798.4,233.5 L798.6,213.5 L798.9,216.6 L799.1,226.6 L799.4,228.9 L799.6,220.4 L799.9,224.3 L800.2,223.5 L800.4,232.8 L800.7,229.7 L800.9,208.8 L801.2,228.9 L801.4,218.9 L801.7,233.5 L802.0,220.4 L802.2,218.1 L802.5,215.0 L802.7,225.0 L803.0,223.5 L803.3,225.0 L803.5,229.7 L803.8,204.2 L804.0,235.9 L804.3,214.2 L804.5,238.2 L804.8,225.0 L805.1,214.2 L805.3,222.7 L805.6,227.4 L805.8,229.7 L806.1,211.9 L806.3,218.9 L806.6,215.0 L806.9,221.2 L807.1,215.0 L807.4,219.6 L807.6,221.2 L807.9,215.8 L808.1,220.4 L808.4,211.9 L808.7,225.8 L808.9,225.8 L809.2,214.2 L809.4,76.0 L809.7,226.6 L809.9,235.9 L810.2,215.8 L810.5,220.4 L810.7,218.1 L811.0,239.7 L811.2,217.3 L811.5,226.6 L811.8,236.6 L812.0,234.3 L812.3,231.2 L812.5,227.4 L812.8,228.1 L813.0,216.6 L813.3,223.5 L813.6,219.6 L813.8,233.5 L814.1,215.8 L814.3,225.8 L814.6,232.0 L814.8,231.2 L815.1,208.1 L815.4,224.3 L815.6,219.6 L815.9,228.1 L816.1,215.0 L816.4,231.2 L816.6,207.3 L816.9,236.6 L817.2,218.1 L817.4,218.9 L817.7,217.3 L817.9,234.3 L818.2,215.0 L818.4,217.3 L818.7,214.2 L819.0,216.6 L819.2,224.3 L819.5,234.3 L819.7,218.9 L820.0,211.1 L820.3,223.5 L820.5,231.2 L820.8,206.5 L821.0,218.1 L821.3,230.5 L821.5,215.0 L821.8,225.8 L822.1,218.1 L822.3,234.3 L822.6,230.5 L822.8,222.0 L823.1,215.0 L823.3,214.2 L823.6,213.5 L823.9,218.9 L824.1,214.2 L824.4,215.0 L824.6,222.7 L824.9,209.6 L825.1,222.7 L825.4,222.0 L825.7,227.4 L825.9,228.9 L826.2,208.8 L826.4,229.7 L826.7,207.3 L826.9,222.7 L827.2,232.0 L827.5,213.5 L827.7,232.0 L828.0,228.9 L828.2,223.5 L828.5,218.1 L828.8,232.8 L829.0,225.8 L829.3,215.0 L829.5,213.5 L829.8,211.9 L830.0,224.3 L830.3,227.4 L830.6,225.8 L830.8,223.5 L831.1,227.4 L831.3,220.4 L831.6,211.9 L831.8,213.5 L832.1,231.2 L832.4,208.8 L832.6,227.4 L832.9,205.7 L833.1,212.7 L833.4,228.9 L833.6,218.1 L833.9,218.9 L834.2,221.2 L834.4,220.4 L834.7,223.5 L834.9,232.0 L835.2,228.9 L835.4,215.8 L835.7,232.0 L836.0,207.3 L836.2,217.3 L836.5,208.1 L836.7,215.8 L837.0,209.6 L837.3,214.2 L837.5,212.7 L837.8,218.9 L838.0,228.1 L838.3,221.2 L838.5,218.9 L838.8,205.7 L839.1,216.6 L839.3,210.4 L839.6,233.5 L839.8,210.4 L840.1,228.1 L840.3,208.1 L840.6,213.5 L840.9,215.8 L841.1,225.8 L841.4,210.4 L841.6,232.0 L841.9,218.1 L842.1,214.2 L842.4,236.6 L842.7,222.7 L842.9,211.9 L843.2,239.0 L843.4,222.0 L843.7,224.3 L843.9,215.0 L844.2,223.5 L844.5,215.0 L844.7,225.8 L845.0,215.0 L845.2,218.1 L845.5,219.6 L845.8,235.1 L846.0,227.4 L846.3,219.6 L846.5,228.9 L846.8,233.5 L847.0,222.7 L847.3,229.7 L847.6,213.5 L847.8,232.8 L848.1,93.8 L848.3,232.0 L848.6,227.4 L848.8,218.1 L849.1,234.3 L849.4,215.8 L849.6,228.9 L849.9,234.3 L850.1,215.0 L850.4,228.1 L850.6,215.0 L850.9,220.4 L851.2,223.5 L851.4,228.1 L851.7,211.9 L851.9,225.8 L852.2,225.0 L852.4,223.5 L852.7,217.3 L853.0,234.3 L853.2,209.6 L853.5,226.6 L853.7,213.5 L854.0,226.6 L854.2,215.8 L854.5,219.6 L854.8,233.5 L855.0,218.9 L855.3,222.7 L855.5,212.7 L855.8,225.8 L856.1,215.8 L856.3,229.7 L856.6,220.4 L856.8,235.1 L857.1,219.6 L857.3,221.2 L857.6,211.9 L857.9,215.0 L858.1,217.3 L858.4,231.2 L858.6,222.7 L858.9,214.2 L859.1,221.2 L859.4,211.9 L859.7,222.0 L859.9,225.0 L860.2,211.9 L860.4,214.2 L860.7,231.2 L860.9,211.1 L861.2,219.6 L861.5,217.3 L861.7,229.7 L862.0,208.1 L862.2,234.3 L862.5,212.7 L862.7,223.5 L863.0,222.7 L863.3,229.7 L863.5,225.0 L863.8,231.2 L864.0,213.5 L864.3,215.8 L864.6,212.7 L864.8,224.3 L865.1,218.9 L865.3,233.5 L865.6,228.9 L865.8,219.6 L866.1,208.1 L866.4,211.9 L866.6,232.8 L866.9,218.9 L867.1,217.3 L867.4,235.1 L867.6,230.5 L867.9,211.9 L868.2,235.1 L868.4,219.6 L868.7,228.9 L868.9,228.1 L869.2,210.4 L869.4,236.6 L869.7,232.8 L870.0,215.0 L870.2,222.0 L870.5,213.5 L870.7,230.5 L871.0,215.8 L871.2,237.4 L871.5,231.2 L871.8,235.1 L872.0,218.1 L872.3,228.9 L872.5,228.1 L872.8,234.3 L873.1,215.0 L873.3,229.7 L873.6,224.3 L873.8,211.9 L874.1,217.3 L874.3,228.1 L874.6,211.9 L874.9,231.2 L875.1,232.8 L875.4,207.3 L875.6,218.9 L875.9,233.5 L876.1,222.0 L876.4,222.0 L876.7,228.1 L876.9,207.3 L877.2,223.5 L877.4,219.6 L877.7,222.7 L877.9,228.1 L878.2,210.4 L878.5,223.5 L878.7,211.9 L879.0,234.3 L879.2,233.5 L879.5,208.8 L879.7,218.9 L880.0,212.7 L880.3,220.4 L880.5,215.0 L880.8,216.6 L881.0,227.4 L881.3,207.3 L881.6,231.2 L881.8,218.1 L882.1,220.4 L882.3,228.9 L882.6,215.8 L882.8,218.1 L883.1,211.1 L883.4,231.2 L883.6,232.8 L883.9,209.6 L884.1,225.0 L884.4,214.2 L884.6,237.4 L884.9,218.9 L885.2,215.8 L885.4,235.1 L885.7,221.2 L885.9,218.9 L886.2,238.2 L886.4,218.1 L886.7,102.3 L887.0,249.0 L887.2,227.4 L887.5,240.5 L887.7,233.5 L888.0,244.4 L888.2,231.2 L888.5,224.3 L888.8,227.4 L889.0,238.2 L889.3,232.0 L889.5,238.2 L889.8,218.1 L890.1,220.4 L890.3,231.2 L890.6,239.0 L890.8,234.3 L891.1,223.5 L891.3,229.7 L891.6,232.8 L891.9,229.7 L892.1,228.9 L892.4,218.1 L892.6,217.3 L892.9,231.2 L893.1,209.6 L893.4,224.3 L893.7,219.6 L893.9,221.2 L894.2,223.5 L894.4,220.4 L894.7,218.9 L894.9,218.1 L895.2,234.3 L895.5,217.3 L895.7,209.6 L896.0,227.4 L896.2,231.2 L896.5,215.0 L896.7,232.0 L897.0,215.8 L897.3,232.8 L897.5,211.9 L897.8,228.9 L898.0,212.7 L898.3,232.8 L898.6,222.0 L898.8,220.4 L899.1,232.0 L899.3,232.8 L899.6,219.6 L899.8,225.0 L900.1,228.1 L900.4,211.1 L900.6,218.9 L900.9,222.0 L901.1,216.6 L901.4,213.5 L901.6,222.0 L901.9,215.0 L902.2,232.0 L902.4,220.4 L902.7,213.5 L902.9,215.8 L903.2,219.6 L903.4,210.4 L903.7,225.0 L904.0,221.2 L904.2,215.0 L904.5,233.5 L904.7,212.7 L905.0,231.2 L905.2,230.5 L905.5,208.8 L905.8,226.6 L906.0,225.0 L906.3,225.8 L906.5,232.8 L906.8,220.4 L907.1,222.0 L907.3,233.5 L907.6,209.6 L907.8,232.8 L908.1,213.5 L908.3,225.0 L908.6,225.8 L908.9,234.3 L909.1,225.0 L909.4,225.8 L909.6,224.3 L909.9,222.0 L910.1,228.1 L910.4,210.4 L910.7,213.5 L910.9,229.7 L911.2,229.7 L911.4,220.4 L911.7,228.1 L911.9,230.5 L912.2,226.6 L912.5,211.1 L912.7,208.1 L913.0,225.0 L913.2,228.9 L913.5,205.0 L913.7,218.9 L914.0,232.0 L914.3,218.9 L914.5,220.4 L914.8,222.0 L915.0,208.1 L915.3,225.8 L915.6,232.8 L915.8,228.9 L916.1,210.4 L916.3,215.8 L916.6,231.2 L916.8,215.8 L917.1,218.9 L917.4,222.7 L917.6,220.4 L917.9,217.3 L918.1,227.4 L918.4,215.0 L918.6,209.6 L918.9,214.2 L919.2,218.9 L919.4,228.1 L919.7,228.9 L919.9,227.4 L920.2,213.5 L920.4,210.4 L920.7,209.6 L921.0,218.9 L921.2,229.7 L921.5,226.6 L921.7,207.3 L922.0,224.3 L922.2,211.1 L922.5,233.5 L922.8,227.4 L923.0,219.6 L923.3,209.6 L923.5,219.6 L923.8,220.4 L924.1,222.7 L924.3,208.1 L924.6,220.4 L924.8,222.0 L925.1,229.7 L925.3,91.4 L925.6,238.2 L925.9,233.5 L926.1,225.0 L926.4,222.7 L926.6,236.6 L926.9,227.4 L927.1,220.4 L927.4,220.4 L927.7,222.0 L927.9,231.2 L928.2,211.9 L928.4,223.5 L928.7,229.7 L928.9,225.0 L929.2,228.1 L929.5,229.7 L929.7,211.9 L930.0,235.1 L930.2,225.0 L930.5,218.1 L930.7,218.1 L931.0,214.2 L931.3,213.5 L931.5,222.0 L931.8,213.5 L932.0,229.7 L932.3,228.1 L932.6,210.4 L932.8,225.8 L933.1,232.0 L933.3,217.3 L933.6,232.0 L933.8,213.5 L934.1,220.4 L934.4,221.2 L934.6,215.0 L934.9,232.8 L935.1,227.4 L935.4,207.3 L935.6,219.6 L935.9,221.2 L936.2,222.0 L936.4,218.1 L936.7,221.2 L936.9,228.9 L937.2,213.5 L937.4,228.1 L937.7,215.8 L938.0,214.2 L938.2,229.7 L938.5,224.3 L938.7,216.6 L939.0,217.3 L939.2,208.8 L939.5,216.6 L939.8,213.5 L940.0,217.3 L940.3,208.1 L940.5,213.5 L940.8,232.0 L941.1,222.7 L941.3,228.1 L941.6,220.4 L941.8,213.5 L942.1,226.6 L942.3,224.3 L942.6,215.8 L942.9,218.1 L943.1,232.0 L943.4,217.3 L943.6,217.3 L943.9,224.3 L944.1,229.7 L944.4,211.9 L944.7,211.9 L944.9,223.5 L945.2,228.1 L945.4,226.6 L945.7,224.3 L945.9,219.6 L946.2,219.6 L946.5,214.2 L946.7,208.8 L947.0,228.9 L947.2,214.2 L947.5,218.9 L947.7,227.4 L948.0,216.6 L948.3,211.9 L948.5,219.6 L948.8,222.7 L949.0,220.4 L949.3,232.8 L949.5,218.1 L949.8,209.6 L950.1,223.5 L950.3,218.1 L950.6,223.5 L950.8,208.8 L951.1,213.5 L951.4,230.5 L951.6,221.2 L951.9,232.8 L952.1,206.5 L952.4,225.8 L952.6,219.6 L952.9,222.7 L953.2,226.6 L953.4,219.6 L953.7,215.8 L953.9,233.5 L954.2,211.9 L954.4,228.1 L954.7,235.9 L955.0,226.6 L955.2,217.3 L955.5,215.0 L955.7,236.6 L956.0,233.5 L956.2,214.2 L956.5,222.7 L956.8,227.4 L957.0,218.9 L957.3,232.8 L957.5,218.9 L957.8,213.5 L958.0,230.5 L958.3,232.8 L958.6,218.1 L958.8,220.4 L959.1,226.6 L959.3,222.7 L959.6,213.5 L959.9,212.7 L960.1,223.5 L960.4,216.6 L960.6,214.2 L960.9,232.8 L961.1,222.7 L961.4,212.7 L961.7,224.3 L961.9,214.2 L962.2,230.5 L962.4,224.3 L962.7,230.5 L962.9,212.7 L963.2,229.7 L963.5,212.7 L963.7,225.0 L964.0,131.6 L964.2,239.0 L964.5,225.0 L964.7,245.1 L965.0,236.6 L965.3,228.1 L965.5,241.3 L965.8,223.5 L966.0,235.9 L966.3,239.0 L966.5,224.3 L966.8,239.0 L967.1,217.3 L967.3,242.0 L967.6,222.0 L967.8,229.7 L968.1,236.6 L968.4,227.4 L968.6,232.8 L968.9,235.9 L969.1,218.9 L969.4,225.0 L969.6,225.8 L969.9,236.6 L970.2,228.1 L970.4,213.5 L970.7,221.2 L970.9,237.4 L971.2,231.2 L971.4,214.2 L971.7,225.8 L972.0,236.6 L972.2,232.0 L972.5,217.3 L972.7,220.4 L973.0,231.2 L973.2,226.6 L973.5,214.2 L973.8,233.5 L974.0,219.6 L974.3,218.9 L974.5,215.0 L974.8,226.6 L975.0,228.9 L975.3,223.5 L975.6,215.8 L975.8,221.2 L976.1,226.6 L976.3,218.9 L976.6,226.6 L976.9,211.9 L977.1,216.6 L977.4,214.2 L977.6,213.5 L977.9,215.8 L978.1,216.6 L978.4,209.6 L978.7,218.9 L978.9,232.8 L979.2,217.3 L979.4,210.4 L979.7,225.0 L979.9,231.2 L980.2,209.6 L980.5,230.5 L980.7,222.7 L981.0,215.0 L981.2,215.0 L981.5,219.6 L981.7,229.7 L982.0,210.4 L982.3,222.0 L982.5,225.0 L982.8,228.9 L983.0,218.1 L983.3,234.3 L983.5,212.7 L983.8,219.6 L984.1,231.2 L984.3,211.1 L984.6,214.2 L984.8,235.1 L985.1,223.5 L985.4,232.8 L985.6,227.4 L985.9,214.2 L986.1,226.6 L986.4,234.3 L986.6,222.7 L986.9,224.3 L987.2,215.8 L987.4,225.0 L987.7,214.2 L987.9,214.2 L988.2,232.8 L988.4,213.5 L988.7,237.4 L989.0,227.4 L989.2,232.8 L989.5,211.1 L989.7,227.4 L990.0,222.0 L990.2,220.4 L990.5,227.4 L990.8,235.9 L991.0,228.1 L991.3,222.0 L991.5,213.5 L991.8,222.0 L992.0,224.3 L992.3,233.5 L992.6,216.6 L992.8,214.2 L993.1,212.7 L993.3,225.8 L993.6,233.5 L993.9,211.1 L994.1,214.2 L994.4,213.5 L994.6,225.8 L994.9,222.0 L995.1,215.0 L995.4,226.6 L995.7,232.8 L995.9,228.9 L996.2,210.4 L996.4,216.6 L996.7,230.5 L996.9,208.8 L997.2,228.1 L997.5,230.5 L997.7,221.2 L998.0,225.0 L998.2,224.3 L998.5,215.8 L998.7,217.3 L999.0,216.6 L999.3,217.3 L999.5,232.0 L999.8,211.9 L1000.0,215.0 L1000.3,214.2 L1000.5,222.0 L1000.8,215.8 L1001.1,232.0 L1001.3,222.0 L1001.6,218.1 L1001.8,222.0 L1002.1,214.2 L1002.4,228.1 L1002.6,86.0 L1002.9,228.9 L1003.1,232.0 L1003.4,237.4 L1003.6,215.0 L1003.9,224.3 L1004.2,230.5 L1004.4,220.4 L1004.7,236.6 L1004.9,220.4 L1005.2,225.0 L1005.4,228.1 L1005.7,216.6 L1006.0,227.4 L1006.2,233.5 L1006.5,212.7 L1006.7,222.0 L1007.0,232.0 L1007.2,225.0 L1007.5,222.0 L1007.8,225.8 L1008.0,218.9 L1008.3,234.3 L1008.5,225.8 L1008.8,232.8 L1009.0,227.4 L1009.3,232.0 L1009.6,214.2 L1009.8,228.1 L1010.1,213.5 L1010.3,237.4 L1010.6,222.0 L1010.9,230.5 L1011.1,224.3 L1011.4,213.5 L1011.6,237.4 L1011.9,235.9 L1012.1,211.9 L1012.4,223.5 L1012.7,224.3 L1012.9,214.2 L1013.2,239.0 L1013.4,223.5 L1013.7,223.5 L1013.9,222.7 L1014.2,233.5 L1014.5,213.5 L1014.7,222.7 L1015.0,232.0 L1015.2,233.5 L1015.5,226.6 L1015.7,228.1 L1016.0,224.3 L1016.3,211.9 L1016.5,218.9 L1016.8,234.3 L1017.0,228.1 L1017.3,217.3 L1017.5,219.6 L1017.8,227.4 L1018.1,226.6 L1018.3,209.6 L1018.6,236.6 L1018.8,223.5 L1019.1,216.6 L1019.4,237.4 L1019.6,215.0 L1019.9,230.5 L1020.1,216.6 L1020.4,232.0 L1020.6,218.1 L1020.9,218.1 L1021.2,228.1 L1021.4,219.6 L1021.7,238.2 L1021.9,221.2 L1022.2,239.0 L1022.4,237.4 L1022.7,213.5 L1023.0,219.6 L1023.2,228.9 L1023.5,220.4 L1023.7,222.7 L1024.0,232.8 L1024.2,212.7 L1024.5,239.0 L1024.8,216.6 L1025.0,222.7 L1025.3,219.6 L1025.5,221.2 L1025.8,219.6 L1026.0,228.1 L1026.3,234.3 L1026.6,218.9 L1026.8,218.9 L1027.1,218.1 L1027.3,221.2 L1027.6,212.7 L1027.9,228.9 L1028.1,235.1 L1028.4,210.4 L1028.6,219.6 L1028.9,216.6 L1029.1,223.5 L1029.4,228.9 L1029.7,211.1 L1029.9,222.0 L1030.2,214.2 L1030.4,226.6 L1030.7,225.8 L1030.9,222.7 L1031.2,218.9 L1031.5,225.0 L1031.7,219.6 L1032.0,218.9 L1032.2,218.1 L1032.5,209.6 L1032.7,219.6 L1033.0,218.9 L1033.3,208.8 L1033.5,221.2 L1033.8,211.9 L1034.0,220.4 L1034.3,228.1 L1034.5,209.6 L1034.8,218.9 L1035.1,218.1 L1035.3,226.6 L1035.6,218.9 L1035.8,220.4 L1036.1,232.8 L1036.4,213.5 L1036.6,212.7 L1036.9,214.2 L1037.1,217.3 L1037.4,227.4 L1037.6,211.1 L1037.9,215.8 L1038.2,216.6 L1038.4,214.2 L1038.7,230.5 L1038.9,207.3 L1039.2,215.0 L1039.4,218.9 L1039.7,222.0 L1040.0,208.1 L1040.2,216.6 L1040.5,215.8 L1040.7,223.5 L1041.0,221.2 L1041.2,116.9 L1041.5,240.5 L1041.8,225.8 L1042.0,239.7 L1042.3,221.2 L1042.5,236.6 L1042.8,238.2 L1043.0,237.4 L1043.3,234.3 L1043.6,232.0 L1043.8,236.6 L1044.1,234.3 L1044.3,220.4 L1044.6,218.9 L1044.8,232.0 L1045.1,213.5 L1045.4,229.7 L1045.6,224.3 L1045.9,222.0 L1046.1,236.6 L1046.4,216.6 L1046.7,237.4 L1046.9,232.0 L1047.2,224.3 L1047.4,231.2 L1047.7,229.7 L1047.9,215.0 L1048.2,224.3 L1048.5,234.3 L1048.7,222.0 L1049.0,230.5 L1049.2,212.7 L1049.5,224.3 L1049.7,235.1 L1050.0,234.3 L1050.3,208.8 L1050.5,225.0 L1050.8,236.6 L1051.0,221.2 L1051.3,213.5 L1051.5,216.6 L1051.8,220.4 L1052.1,213.5 L1052.3,228.1 L1052.6,226.6 L1052.8,223.5 L1053.1,222.7 L1053.3,214.2 L1053.6,230.5 L1053.9,226.6 L1054.1,215.8 L1054.4,217.3 L1054.6,215.8 L1054.9,221.2 L1055.2,217.3 L1055.4,220.4 L1055.7,214.2 L1055.9,229.7 L1056.2,223.5 L1056.4,220.4 L1056.7,230.5 L1057.0,225.0 L1057.2,228.9 L1057.5,227.4 L1057.7,216.6 L1058.0,224.3 L1058.2,214.2 L1058.5,209.6 L1058.8,227.4 L1059.0,222.7 L1059.3,216.6 L1059.5,233.5 L1059.8,207.3 L1060.0,225.8 L1060.3,213.5 L1060.6,228.9 L1060.8,224.3 L1061.1,211.9 L1061.3,239.0 L1061.6,231.2 L1061.8,237.4 L1062.1,211.9 L1062.4,232.8 L1062.6,223.5 L1062.9,230.5 L1063.1,225.8 L1063.4,214.2 L1063.7,218.1 L1063.9,218.1 L1064.2,223.5 L1064.4,234.3 L1064.7,221.2 L1064.9,222.7 L1065.2,231.2 L1065.5,233.5 L1065.7,211.1 L1066.0,220.4 L1066.2,222.7 L1066.5,218.9 L1066.7,235.1 L1067.0,224.3 L1067.3,230.5 L1067.5,219.6 L1067.8,214.2 L1068.0,220.4 L1068.3,235.1 L1068.5,215.0 L1068.8,222.0 L1069.1,213.5 L1069.3,213.5 L1069.6,218.9 L1069.8,235.1 L1070.1,221.2 L1070.3,223.5 L1070.6,210.4 L1070.9,215.8 L1071.1,215.0 L1071.4,228.9 L1071.6,223.5 L1071.9,228.9 L1072.2,213.5 L1072.4,223.5 L1072.7,216.6 L1072.9,218.9 L1073.2,227.4 L1073.4,228.1 L1073.7,220.4 L1074.0,222.7 L1074.2,215.0 L1074.5,215.8 L1074.7,215.8 L1075.0,215.0 L1075.2,224.3 L1075.5,218.9 L1075.8,227.4 L1076.0,218.9 L1076.3,215.0 L1076.5,236.6 L1076.8,236.6 L1077.0,238.2 L1077.3,251.3 L1077.6,257.5 L1077.8,282.2 L1078.1,276.8 L1078.3,265.2 L1078.6,272.2 L1078.8,267.5 L1079.1,276.8 L1079.4,283.0 L1079.6,222.7 L1079.9,285.3 L1080.1,277.6 L1080.4,289.1 L1080.7,301.5 L1080.9,303.0 L1081.2,306.1 L1081.4,296.1 L1081.7,293.0 L1081.9,295.3 L1082.2,312.3 L1082.5,303.8 L1082.7,311.5 L1083.0,309.2 L1083.2,314.6 L1083.5,310.0 L1083.7,317.7 L1084.0,323.9" fill="none" stroke="#ff7f0e" stroke-width="1.1" opacity="0.85"/><text x="616" y="572" font-size="11" fill="#888">time 0..36 s — altitude (blue) &amp; roll (orange)</text></svg>