<svg xmlns="http://www.w3.org/2000/svg" width="1140" height="600" font-family="sans-serif" font-size="13"><rect width="1140" height="600" fill="white"/><text x="20" y="26" font-size="15" fill="#333">Coludo flight</text><rect x="20" y="40" width="540" height="540" fill="#fbfbfb" stroke="#ddd"/><rect x="50" y="228" width="480" height="103" fill="#cde" stroke="#369" opacity="0.7"/><text x="50" y="223" fill="#369" font-size="12">landing zone</text><circle cx="354" cy="389" r="5" fill="black"/><text x="362" y="393" font-size="12">pad</text><path d="M353.6,389.5 L353.6,389.5 L353.6,389.5 L353.6,389.5 L353.6,389.5 L353.6,389.5 L353.6,389.5 L353.6,389.5 L353.6,389.5 L353.6,389.5 L353.6,389.5 L353.6,389.5 L353.6,389.5 L353.6,389.5 L353.6,389.5 L353.6,389.5 L353.6,389.5 L353.6,389.5 L353.6,389.5 L353.6,389.5 L353.6,389.5 L353.6,389.5 L353.6,389.5 L353.6,389.5 L353.6,389.5 L353.6,389.5 L353.6,389.5 L353.6,389.5 L353.6,389.5 L353.6,389.5 L353.6,389.5 L353.6,389.5 L353.6,389.5 L353.6,389.5 L353.6,389.5 L353.6,389.5 L353.6,389.5 L353.6,389.5 L353.6,389.5 L353.6,389.5 L353.6,389.5 L353.6,389.5 L353.6,389.5 L353.6,389.5 L353.6,389.5 L353.6,389.5 L353.6,389.5 L353.6,389.5 L353.6,389.5 L353.6,389.5 L353.6,389.5 L353.6,389.5 L353.6,389.5 L353.6,389.5 L353.6,389.5 L353.6,389.5 L353.6,389.5 L353.6,389.5 L353.6,389.5 L353.6,389.5 L353.6,389.5 L353.6,389.5 L353.6,389.5 L353.8,388.9 L354.1,388.6 L354.6,388.0 L354.9,387.5 L355.4,386.9 L355.9,386.6 L356.4,386.3 L356.9,385.7 L357.4,385.5 L358.2,385.2 L359.0,384.9 L359.5,384.6 L360.3,384.3 L361.1,384.3 L362.1,384.0 L362.9,384.0 L363.9,383.7 L364.7,383.7 L365.7,383.7 L366.7,383.4 L367.8,383.4 L368.8,383.4 L369.8,383.4 L370.9,383.7 L372.1,383.7 L373.2,383.7 L374.5,384.0 L375.8,384.3 L377.0,384.3 L378.1,384.6 L379.4,384.9 L380.7,385.2 L382.2,385.5 L383.5,385.7 L384.8,386.0 L386.1,386.3 L387.4,386.6 L388.7,386.9 L389.9,386.9 L391.2,387.2 L392.5,387.5 L393.8,387.7 L395.1,388.0 L396.7,388.3 L397.9,388.6 L399.2,388.9 L400.5,389.2 L402.1,389.7 L403.4,390.0 L404.6,390.3 L406.2,390.6 L407.5,390.9 L409.0,391.5 L410.3,391.7 L411.6,392.0 L413.2,392.3 L414.4,392.6 L415.7,392.9 L417.0,393.2 L418.3,393.5 L419.6,393.7 L420.9,394.0 L422.2,394.3 L423.5,394.6 L425.0,394.9 L426.3,395.2 L427.6,395.5 L428.9,395.7 L430.2,396.0 L431.5,396.0 L432.8,396.3 L434.1,396.6 L435.3,396.9 L436.4,396.9 L437.7,397.2 L439.0,397.5 L440.2,397.5 L441.3,397.7 L442.6,397.7 L443.6,398.0 L444.9,398.0 L446.2,398.3 L447.2,398.3 L448.5,398.6 L449.5,398.6 L450.8,398.6 L451.8,398.9 L453.1,398.9 L454.2,398.9 L455.2,398.9 L456.2,398.9 L457.3,398.9 L458.0,398.9 L459.1,398.6 L460.1,398.6 L460.9,398.3 L461.6,398.3 L462.4,398.0 L463.2,397.7 L464.0,397.7 L464.7,397.5 L465.5,397.2 L466.3,396.9 L467.1,396.6 L467.6,396.3 L468.4,396.0 L469.1,395.7 L469.9,395.5 L470.4,395.2 L471.2,394.9 L472.0,394.6 L472.5,394.3 L473.3,394.0 L473.8,393.7 L474.5,393.5 L475.1,393.2 L475.8,392.9 L476.4,392.3 L477.1,392.0 L477.6,391.7 L478.2,391.5 L478.9,391.2 L479.4,390.6 L480.0,390.3 L480.7,390.0 L481.3,389.7 L481.8,389.5 L482.5,388.9 L483.1,388.6 L483.6,388.3 L484.1,387.7 L484.6,387.5 L485.1,386.9 L485.6,386.6 L485.9,386.0 L486.4,385.7 L486.9,385.2 L487.2,384.6 L487.7,384.3 L488.0,383.7 L488.5,383.2 L488.7,382.9 L489.2,382.3 L489.5,381.7 L489.8,381.2 L490.3,380.6 L490.5,380.0 L490.8,379.7 L491.1,379.2 L491.3,378.6 L491.6,378.0 L491.8,377.4 L492.1,376.9 L492.3,376.3 L492.6,375.7 L492.9,375.2 L493.1,374.6 L493.4,374.0 L493.6,373.4 L493.6,372.9 L493.9,372.3 L494.1,371.7 L494.4,370.9 L494.4,370.3 L494.7,369.7 L494.7,369.2 L494.9,368.6 L494.9,368.0 L495.2,367.2 L495.2,366.6 L495.4,366.0 L495.4,365.4 L495.7,364.6 L495.7,364.0 L495.7,363.4 L495.7,362.6 L496.0,362.0 L496.0,361.4 L496.0,360.6 L496.2,360.0 L496.2,359.4 L496.2,358.9 L496.2,358.0 L496.5,357.4 L496.5,356.6 L496.5,356.0 L496.5,355.4 L496.5,354.6 L496.5,354.0 L496.5,353.2 L496.2,352.6 L496.2,351.7 L496.2,351.2 L496.2,350.3 L496.2,349.7 L496.2,348.9 L496.2,348.3 L496.2,347.7 L496.2,346.9 L496.5,346.3 L496.5,345.7 L496.5,344.9 L496.5,344.3 L496.5,343.7 L496.7,342.9 L496.7,342.3 L496.7,341.7 L496.7,340.9 L497.0,340.3 L497.0,339.7 L497.0,338.9 L497.0,338.3 L497.2,337.7 L497.2,337.4 L497.2,336.9 L497.5,336.3 L497.5,335.7 L497.8,335.2 L497.8,334.6 L497.8,334.3 L498.0,333.7 L498.0,333.1 L498.3,332.6 L498.3,332.0 L498.5,331.7 L498.8,331.1 L498.8,330.6 L498.8,330.0 L499.0,329.4 L499.0,328.9 L499.0,328.3 L499.0,327.7 L498.8,327.1 L498.5,326.3 L498.3,325.7 L498.0,325.1 L497.8,324.3 L497.2,323.4 L496.7,322.9 L496.2,322.0 L495.7,321.1 L494.9,320.3 L494.1,319.4 L493.4,318.6 L492.6,317.7 L491.6,316.9 L490.8,316.0 L489.8,315.1 L488.7,314.3 L487.4,313.4 L486.4,312.6 L485.1,311.7 L483.8,310.6 L482.3,309.7 L481.0,308.9 L479.4,308.0 L477.9,306.9 L476.1,306.0 L474.5,305.1 L472.7,304.3 L471.2,303.1 L469.4,302.3 L467.6,301.4 L465.8,300.6 L464.0,299.7 L461.9,298.6 L460.1,297.7 L458.0,296.9 L456.0,296.0 L453.9,295.1 L451.8,294.3 L449.8,293.4 L447.7,292.6 L445.7,291.7 L443.3,290.9 L441.0,290.0 L439.0,289.1 L436.6,288.3 L434.3,287.4 L431.7,286.6 L429.4,285.7 L427.1,284.8 L424.5,284.0 L422.2,283.1 L419.6,282.6 L417.0,281.7 L414.4,280.8 L412.1,280.0 L409.5,279.4 L406.7,278.6 L404.1,277.7 L401.6,277.1 L399.0,276.3 L396.4,275.4 L393.6,274.8 L391.0,274.0 L388.1,273.4 L385.3,272.6 L382.5,272.0 L379.9,271.1 L376.8,270.6 L374.0,270.0 L371.1,269.1 L368.3,268.6 L365.4,268.0 L362.6,267.1 L359.5,266.6 L356.7,266.0 L353.6,265.4 L350.7,264.8 L347.6,264.0 L344.6,263.4 L341.5,262.8 L338.4,262.3 L335.0,262.0 L331.9,261.4 L328.6,260.8 L325.5,260.3 L322.1,260.0 L318.8,259.4 L315.1,259.1 L311.8,258.8 L308.4,258.3 L304.8,258.0 L301.2,257.7 L297.9,257.4 L294.3,257.1 L290.4,256.8 L286.8,256.6 L283.2,256.6 L279.3,256.3 L275.7,256.0 L271.8,256.0 L268.2,255.7 L264.3,255.7 L260.5,255.4 L256.9,255.4 L253.0,255.1 L249.4,254.8 L245.5,254.8 L241.9,254.6 L238.3,254.3 L234.7,254.3 L230.8,254.0 L227.2,253.7 L223.6,253.4 L220.0,253.1 L216.4,252.8 L212.8,252.6 L209.1,252.3 L205.8,252.0 L202.2,251.7 L198.8,251.1 L195.2,250.8 L191.9,250.6 L188.2,250.3 L184.9,249.7 L181.3,249.4 L177.9,249.1 L174.6,248.6 L171.2,248.3 L167.9,247.7 L164.5,247.4 L161.2,246.8 L158.1,246.3 L154.7,246.0 L151.4,245.4 L148.3,244.8 L144.9,244.3 L141.8,243.7 L138.7,243.1 L135.6,242.6 L132.5,242.0 L129.4,241.4 L126.3,240.8 L123.5,240.3 L120.4,239.7 L117.3,239.1 L114.5,238.6 L111.4,237.7 L108.5,237.1 L105.7,236.6 L102.9,235.7 L100.0,235.1 L97.2,234.5 L94.4,233.7 L91.8,233.1 L89.2,232.3 L86.4,231.4 L83.8,230.8 L81.2,230.0 L78.6,229.1 L76.1,228.3 L73.5,227.7 L71.1,226.8 L68.6,226.0 L66.0,225.1 L63.7,224.5 L61.1,223.7 L58.8,222.8 L56.4,222.0 L53.9,221.1" fill="none" stroke="#1f77b4" stroke-width="1.7" opacity="0.85"/><circle cx="54" cy="221" r="4.5" fill="#1f77b4"/><text x="28" y="572" font-size="11" fill="#888">ground track — m from pad (N up)</text><rect x="580" y="40" width="540" height="540" fill="#fbfbfb" stroke="#ddd"/><text x="586" y="54" fill="#1f77b4" font-size="11">alt 435</text><text x="586" y="558" fill="#1f77b4" font-size="11">1</text><path d="M616.0,542.8 L616.2,542.3 L616.4,544.0 L616.5,542.6 L616.7,542.5 L616.9,543.9 L617.1,541.9 L617.3,541.0 L617.5,543.2 L617.6,541.7 L617.8,541.2 L618.0,542.6 L618.2,541.6 L618.4,542.6 L618.6,542.2 L618.7,539.7 L618.9,542.9 L619.1,539.1 L619.3,540.1 L619.5,540.1 L619.7,539.6 L619.8,537.9 L620.0,539.8 L620.2,538.4 L620.4,540.4 L620.6,541.7 L620.8,541.3 L620.9,538.6 L621.1,541.7 L621.3,540.5 L621.5,539.5 L621.7,535.7 L621.9,538.1 L622.0,538.8 L622.2,535.4 L622.4,533.6 L622.6,535.7 L622.8,540.9 L623.0,534.7 L623.1,538.7 L623.3,529.6 L623.5,534.4 L623.7,529.9 L623.9,529.8 L624.1,529.1 L624.2,538.0 L624.4,531.1 L624.6,531.9 L624.8,537.3 L625.0,532.8 L625.2,536.6 L625.3,533.2 L625.5,527.6 L625.7,529.9 L625.9,528.4 L626.1,532.3 L626.3,530.8 L626.4,525.9 L626.6,518.6 L626.8,532.0 L627.0,522.1 L627.2,522.1 L627.4,524.2 L627.5,524.2 L627.7,521.9 L627.9,511.7 L628.1,525.1 L628.3,517.3 L628.5,508.5 L628.6,530.9 L628.8,525.6 L629.0,506.3 L629.2,510.0 L629.4,521.7 L629.5,516.9 L629.7,509.8 L629.9,508.3 L630.1,496.2 L630.3,518.5 L630.5,511.5 L630.6,522.0 L630.8,498.4 L631.0,504.6 L631.2,503.3 L631.4,515.8 L631.6,519.3 L631.7,493.2 L631.9,505.0 L632.1,505.6 L632.3,494.9 L632.5,507.2 L632.7,500.1 L632.8,480.0 L633.0,488.6 L633.2,499.3 L633.4,474.0 L633.6,512.8 L633.8,486.1 L633.9,518.6 L634.1,494.8 L634.3,496.8 L634.5,499.9 L634.7,496.9 L634.9,504.9 L635.0,507.2 L635.2,466.9 L635.4,460.6 L635.6,501.7 L635.8,487.4 L636.0,472.6 L636.1,481.0 L636.3,452.6 L636.5,460.6 L636.7,480.3 L636.9,486.7 L637.1,464.9 L637.2,487.9 L637.4,485.0 L637.6,449.4 L637.8,507.1 L638.0,503.3 L638.2,497.5 L638.3,484.1 L638.5,476.7 L638.7,439.4 L638.9,478.8 L639.1,453.5 L639.3,472.2 L639.4,453.6 L639.6,446.9 L639.8,426.9 L640.0,467.7 L640.2,425.5 L640.4,500.1 L640.5,418.5 L640.7,489.4 L640.9,467.9 L641.1,480.7 L641.3,462.1 L641.5,403.4 L641.6,484.9 L641.8,419.3 L642.0,491.8 L642.2,393.4 L642.4,433.6 L642.5,395.2 L642.7,403.0 L642.9,479.3 L643.1,410.4 L643.3,468.3 L643.5,378.8 L643.6,486.0 L643.8,431.5 L644.0,461.4 L644.2,452.0 L644.4,471.5 L644.6,455.9 L644.7,400.9 L644.9,462.0 L645.1,385.4 L645.3,418.5 L645.5,415.8 L645.7,431.3 L645.8,475.5 L646.0,406.9 L646.2,366.9 L646.4,432.0 L646.6,354.7 L646.8,401.4 L646.9,469.8 L647.1,370.2 L647.3,463.2 L647.5,334.0 L647.7,398.5 L647.9,383.6 L648.0,422.6 L648.2,334.3 L648.4,431.8 L648.6,449.7 L648.8,443.3 L649.0,407.5 L649.1,372.2 L649.3,369.4 L649.5,442.1 L649.7,329.6 L649.9,332.6 L650.1,359.8 L650.2,419.1 L650.4,390.9 L650.6,296.8 L650.8,374.6 L651.0,363.7 L651.2,285.1 L651.3,442.4 L651.5,379.9 L651.7,298.2 L651.9,360.1 L652.1,280.8 L652.3,272.9 L652.4,370.8 L652.6,422.0 L652.8,431.4 L653.0,417.0 L653.2,422.0 L653.4,324.8 L653.5,333.8 L653.7,318.7 L653.9,320.0 L654.1,307.9 L654.3,412.5 L654.5,359.5 L654.6,442.9 L654.8,257.8 L655.0,251.5 L655.2,355.9 L655.4,268.1 L655.5,244.7 L655.7,341.2 L655.9,338.0 L656.1,275.0 L656.3,401.2 L656.5,356.4 L656.6,380.9 L656.8,332.4 L657.0,267.7 L657.2,293.9 L657.4,339.3 L657.6,374.5 L657.7,340.6 L657.9,330.7 L658.1,212.2 L658.3,219.0 L658.5,411.0 L658.7,414.1 L658.8,260.5 L659.0,245.4 L659.2,401.5 L659.4,400.7 L659.6,261.3 L659.8,221.3 L659.9,311.5 L660.1,373.3 L660.3,192.0 L660.5,389.0 L660.7,367.0 L660.9,386.1 L661.0,318.9 L661.2,269.3 L661.4,422.9 L661.6,256.8 L661.8,182.7 L662.0,271.6 L662.1,321.5 L662.3,227.0 L662.5,263.9 L662.7,375.5 L662.9,351.8 L663.1,177.4 L663.2,357.5 L663.4,348.9 L663.6,263.2 L663.8,231.4 L664.0,207.1 L664.2,360.0 L664.3,168.4 L664.5,373.6 L664.7,223.4 L664.9,369.6 L665.1,276.5 L665.3,166.6 L665.4,406.1 L665.6,252.0 L665.8,340.1 L666.0,403.6 L666.2,342.4 L666.4,396.5 L666.5,146.9 L666.7,343.7 L666.9,349.5 L667.1,222.0 L667.3,136.3 L667.5,194.2 L667.6,285.6 L667.8,400.7 L668.0,174.4 L668.2,263.7 L668.4,185.1 L668.5,181.5 L668.7,383.8 L668.9,321.9 L669.1,202.4 L669.3,391.9 L669.5,238.6 L669.6,289.0 L669.8,361.7 L670.0,305.9 L670.2,292.2 L670.4,136.3 L670.6,352.8 L670.7,342.7 L670.9,259.0 L671.1,348.9 L671.3,134.8 L671.5,240.7 L671.7,271.5 L671.8,330.8 L672.0,351.2 L672.2,389.2 L672.4,283.9 L672.6,249.7 L672.8,205.2 L672.9,146.6 L673.1,322.0 L673.3,316.7 L673.5,293.0 L673.7,174.2 L673.9,270.7 L674.0,219.0 L674.2,132.0 L674.4,199.9 L674.6,383.3 L674.8,101.1 L675.0,176.6 L675.1,366.9 L675.3,357.2 L675.5,238.0 L675.7,252.9 L675.9,324.8 L676.1,314.5 L676.2,288.4 L676.4,154.0 L676.6,250.7 L676.8,199.6 L677.0,278.2 L677.2,76.0 L677.3,212.7 L677.5,98.9 L677.7,281.4 L677.9,286.7 L678.1,342.6 L678.3,318.5 L678.4,204.5 L678.6,190.3 L678.8,189.9 L679.0,269.9 L679.2,318.5 L679.4,189.4 L679.5,243.7 L679.7,296.6 L679.9,185.4 L680.1,345.3 L680.3,275.9 L680.5,84.9 L680.6,353.7 L680.8,293.4 L681.0,308.3 L681.2,140.8 L681.4,118.8 L681.5,375.0 L681.7,250.5 L681.9,272.5 L682.1,294.2 L682.3,313.3 L682.5,284.2 L682.6,230.7 L682.8,314.5 L683.0,319.3 L683.2,277.5 L683.4,145.2 L683.6,173.2 L683.7,349.1 L683.9,126.2 L684.1,233.2 L684.3,167.1 L684.5,164.8 L684.7,204.4 L684.8,158.5 L685.0,116.9 L685.2,264.7 L685.4,133.1 L685.6,95.9 L685.8,317.3 L685.9,253.0 L686.1,362.8 L686.3,313.4 L686.5,247.6 L686.7,91.6 L686.9,340.1 L687.0,91.8 L687.2,349.4 L687.4,201.5 L687.6,174.1 L687.8,346.0 L688.0,90.9 L688.1,226.9 L688.3,386.8 L688.5,150.9 L688.7,326.0 L688.9,180.6 L689.1,269.8 L689.2,216.2 L689.4,127.8 L689.6,114.7 L689.8,360.2 L690.0,327.4 L690.2,232.4 L690.3,366.5 L690.5,334.8 L690.7,251.6 L690.9,186.1 L691.1,118.7 L691.3,311.3 L691.4,271.3 L691.6,206.1 L691.8,284.5 L692.0,328.9 L692.2,364.2 L692.4,142.8 L692.5,329.7 L692.7,339.5 L692.9,90.6 L693.1,257.9 L693.3,302.8 L693.5,266.6 L693.6,180.7 L693.8,296.3 L694.0,325.8 L694.2,258.9 L694.4,84.6 L694.5,379.9 L694.7,138.5 L694.9,233.3 L695.1,151.9 L695.3,242.5 L695.5,384.9 L695.6,276.7 L695.8,153.8 L696.0,184.5 L696.2,113.9 L696.4,249.5 L696.6,352.1 L696.7,111.3 L696.9,224.0 L697.1,158.9 L697.3,351.5 L697.5,361.5 L697.7,372.9 L697.8,350.8 L698.0,254.7 L698.2,266.1 L698.4,272.6 L698.6,249.8 L698.8,297.9 L698.9,200.3 L699.1,213.9 L699.3,250.9 L699.5,270.2 L699.7,342.6 L699.9,367.7 L700.0,203.8 L700.2,94.0 L700.4,173.3 L700.6,176.1 L700.8,322.2 L701.0,176.7 L701.1,128.1 L701.3,173.7 L701.5,242.5 L701.7,350.2 L701.9,209.2 L702.1,224.5 L702.2,106.3 L702.4,344.4 L702.6,94.6 L702.8,252.2 L703.0,255.9 L703.2,163.1 L703.3,307.6 L703.5,146.3 L703.7,125.3 L703.9,100.1 L704.1,348.1 L704.3,132.3 L704.4,347.2 L704.6,190.8 L704.8,335.9 L705.0,383.0 L705.2,252.4 L705.4,190.5 L705.5,313.1 L705.7,381.9 L705.9,223.2 L706.1,98.3 L706.3,186.2 L706.5,144.6 L706.6,168.0 L706.8,242.0 L707.0,307.3 L707.2,81.8 L707.4,226.0 L707.5,263.1 L707.7,156.6 L707.9,268.5 L708.1,119.3 L708.3,192.5 L708.5,242.6 L708.6,136.2 L708.8,248.4 L709.0,304.6 L709.2,210.3 L709.4,277.4 L709.6,366.6 L709.7,308.0 L709.9,129.7 L710.1,89.1 L710.3,219.9 L710.5,141.8 L710.7,158.5 L710.8,179.3 L711.0,235.4 L711.2,194.1 L711.4,113.9 L711.6,214.0 L711.8,331.2 L711.9,355.3 L712.1,291.2 L712.3,391.2 L712.5,204.8 L712.7,193.9 L712.9,279.5 L713.0,107.6 L713.2,276.2 L713.4,249.7 L713.6,389.1 L713.8,195.7 L714.0,94.3 L714.1,153.1 L714.3,248.1 L714.5,276.3 L714.7,351.2 L714.9,333.6 L715.1,135.7 L715.2,334.1 L715.4,328.7 L715.6,189.4 L715.8,321.3 L716.0,317.8 L716.2,372.7 L716.3,156.8 L716.5,372.9 L716.7,173.9 L716.9,319.0 L717.1,120.4 L717.3,383.5 L717.4,103.0 L717.6,374.3 L717.8,255.6 L718.0,380.0 L718.2,346.7 L718.4,157.9 L718.5,173.1 L718.7,386.6 L718.9,325.4 L719.1,202.3 L719.3,378.7 L719.5,250.4 L719.6,177.6 L719.8,255.4 L720.0,125.8 L720.2,332.2 L720.4,331.9 L720.5,123.3 L720.7,378.5 L720.9,197.5 L721.1,133.4 L721.3,219.5 L721.5,167.2 L721.6,263.1 L721.8,371.8 L722.0,175.1 L722.2,234.2 L722.4,248.1 L722.6,117.3 L722.7,219.0 L722.9,366.4 L723.1,281.3 L723.3,257.3 L723.5,205.1 L723.7,301.2 L723.8,296.1 L724.0,221.9 L724.2,384.3 L724.4,294.7 L724.6,315.2 L724.8,378.5 L724.9,239.8 L725.1,189.5 L725.3,165.4 L725.5,242.7 L725.7,364.0 L725.9,227.1 L726.0,217.0 L726.2,157.1 L726.4,271.5 L726.6,219.2 L726.8,198.7 L727.0,221.4 L727.1,365.7 L727.3,129.6 L727.5,213.7 L727.7,171.8 L727.9,294.5 L728.1,195.5 L728.2,293.9 L728.4,381.9 L728.6,234.3 L728.8,227.8 L729.0,233.1 L729.2,358.0 L729.3,189.2 L729.5,260.1 L729.7,240.4 L729.9,349.2 L730.1,130.1 L730.3,326.4 L730.4,244.4 L730.6,331.6 L730.8,224.5 L731.0,300.1 L731.2,176.8 L731.4,211.4 L731.5,277.9 L731.7,329.1 L731.9,238.9 L732.1,306.7 L732.3,269.5 L732.5,160.5 L732.6,375.2 L732.8,174.7 L733.0,329.7 L733.2,234.0 L733.4,372.7 L733.5,270.7 L733.7,194.5 L733.9,268.1 L734.1,370.7 L734.3,367.7 L734.5,222.7 L734.6,109.6 L734.8,329.8 L735.0,261.9 L735.2,210.8 L735.4,277.6 L735.6,240.5 L735.7,347.8 L735.9,100.7 L736.1,315.3 L736.3,241.5 L736.5,158.5 L736.7,234.9 L736.8,312.5 L737.0,340.5 L737.2,327.1 L737.4,132.0 L737.6,148.2 L737.8,297.9 L737.9,358.3 L738.1,311.9 L738.3,162.9 L738.5,120.8 L738.7,125.0 L738.9,127.9 L739.0,104.7 L739.2,296.3 L739.4,388.0 L739.6,373.4 L739.8,166.5 L740.0,341.8 L740.1,129.5 L740.3,366.6 L740.5,332.4 L740.7,152.3 L740.9,281.9 L741.1,320.2 L741.2,283.4 L741.4,373.8 L741.6,117.9 L741.8,298.0 L742.0,260.6 L742.2,156.9 L742.3,288.9 L742.5,158.8 L742.7,197.6 L742.9,267.7 L743.1,284.7 L743.3,386.4 L743.4,175.3 L743.6,309.8 L743.8,158.5 L744.0,220.6 L744.2,111.6 L744.4,351.4 L744.5,300.5 L744.7,315.7 L744.9,375.8 L745.1,246.5 L745.3,111.9 L745.5,262.5 L745.6,152.7 L745.8,180.8 L746.0,207.7 L746.2,221.5 L746.4,323.7 L746.5,317.5 L746.7,249.5 L746.9,370.7 L747.1,112.7 L747.3,383.1 L747.5,215.3 L747.6,164.1 L747.8,221.0 L748.0,210.4 L748.2,370.3 L748.4,225.7 L748.6,325.7 L748.7,352.2 L748.9,186.5 L749.1,257.0 L749.3,302.1 L749.5,300.0 L749.7,340.6 L749.8,396.7 L750.0,349.9 L750.2,229.1 L750.4,228.1 L750.6,151.6 L750.8,350.0 L750.9,238.4 L751.1,131.0 L751.3,134.9 L751.5,182.6 L751.7,157.7 L751.9,113.0 L752.0,202.8 L752.2,380.6 L752.4,224.1 L752.6,300.7 L752.8,346.9 L753.0,376.9 L753.1,351.1 L753.3,383.8 L753.5,203.5 L753.7,306.9 L753.9,276.6 L754.1,164.1 L754.2,211.7 L754.4,165.7 L754.6,378.0 L754.8,233.3 L755.0,198.9 L755.2,216.5 L755.3,285.3 L755.5,269.9 L755.7,351.4 L755.9,240.8 L756.1,175.4 L756.3,329.2 L756.4,373.8 L756.6,259.1 L756.8,225.7 L757.0,219.7 L757.2,243.3 L757.4,123.7 L757.5,195.3 L757.7,293.3 L757.9,252.6 L758.1,128.7 L758.3,383.5 L758.5,287.9 L758.6,318.7 L758.8,191.3 L759.0,371.3 L759.2,211.5 L759.4,200.9 L759.5,318.7 L759.7,204.8 L759.9,322.3 L760.1,196.0 L760.3,365.6 L760.5,328.5 L760.6,133.6 L760.8,203.2 L761.0,320.8 L761.2,403.6 L761.4,332.0 L761.6,385.2 L761.7,399.5 L761.9,317.2 L762.1,239.9 L762.3,140.2 L762.5,164.0 L762.7,177.8 L762.8,159.4 L763.0,395.1 L763.2,149.9 L763.4,384.7 L763.6,250.1 L763.8,174.0 L763.9,275.9 L764.1,214.6 L764.3,156.2 L764.5,159.6 L764.7,266.3 L764.9,341.6 L765.0,369.4 L765.2,221.0 L765.4,241.7 L765.6,319.9 L765.8,385.1 L766.0,289.2 L766.1,365.8 L766.3,126.2 L766.5,381.7 L766.7,243.8 L766.9,328.3 L767.1,232.1 L767.2,185.6 L767.4,293.3 L767.6,166.7 L767.8,239.9 L768.0,396.0 L768.2,303.7 L768.3,315.7 L768.5,236.5 L768.7,310.6 L768.9,357.3 L769.1,199.3 L769.3,271.7 L769.4,152.8 L769.6,184.7 L769.8,385.3 L770.0,201.0 L770.2,311.8 L770.4,335.4 L770.5,292.9 L770.7,252.9 L770.9,270.7 L771.1,140.4 L771.3,271.6 L771.5,369.4 L771.6,335.8 L771.8,222.0 L772.0,135.7 L772.2,144.8 L772.4,166.4 L772.5,168.8 L772.7,225.4 L772.9,210.8 L773.1,251.5 L773.3,395.9 L773.5,158.0 L773.6,265.6 L773.8,290.7 L774.0,272.0 L774.2,193.1 L774.4,405.0 L774.6,202.5 L774.7,160.7 L774.9,336.6 L775.1,270.7 L775.3,182.2 L775.5,359.8 L775.7,255.5 L775.8,334.3 L776.0,166.7 L776.2,222.3 L776.4,336.4 L776.6,178.8 L776.8,160.2 L776.9,225.8 L777.1,137.4 L777.3,187.8 L777.5,347.6 L777.7,339.4 L777.9,304.1 L778.0,243.5 L778.2,239.2 L778.4,294.9 L778.6,350.9 L778.8,345.6 L779.0,252.8 L779.1,215.5 L779.3,212.4 L779.5,328.2 L779.7,407.3 L779.9,289.6 L780.1,191.6 L780.2,235.6 L780.4,309.0 L780.6,251.5 L780.8,316.7 L781.0,276.8 L781.2,336.1 L781.3,386.9 L781.5,209.3 L781.7,179.0 L781.9,178.2 L782.1,254.3 L782.3,408.1 L782.4,321.7 L782.6,199.4 L782.8,320.6 L783.0,211.0 L783.2,224.3 L783.4,200.5 L783.5,146.6 L783.7,177.1 L783.9,338.1 L784.1,179.1 L784.3,385.2 L784.5,346.3 L784.6,182.4 L784.8,269.6 L785.0,267.5 L785.2,151.8 L785.4,350.0 L785.5,213.0 L785.7,369.9 L785.9,149.9 L786.1,159.1 L786.3,203.8 L786.5,269.1 L786.6,276.7 L786.8,243.4 L787.0,177.7 L787.2,353.8 L787.4,182.9 L787.6,191.4 L787.7,388.4 L787.9,373.7 L788.1,180.4 L788.3,405.0 L788.5,342.1 L788.7,215.6 L788.8,406.4 L789.0,164.6 L789.2,353.9 L789.4,163.1 L789.6,270.9 L789.8,239.4 L789.9,200.7 L790.1,304.5 L790.3,194.1 L790.5,378.9 L790.7,232.2 L790.9,183.8 L791.0,235.6 L791.2,320.8 L791.4,286.4 L791.6,270.4 L791.8,252.3 L792.0,298.7 L792.1,237.8 L792.3,163.0 L792.5,398.7 L792.7,369.6 L792.9,221.1 L793.1,357.5 L793.2,261.2 L793.4,379.9 L793.6,264.5 L793.8,233.5 L794.0,281.6 L794.2,239.6 L794.3,346.4 L794.5,155.7 L794.7,203.3 L794.9,301.6 L795.1,277.6 L795.3,341.1 L795.4,357.6 L795.6,310.2 L795.8,384.3 L796.0,215.0 L796.2,253.4 L796.4,245.8 L796.5,402.3 L796.7,172.2 L796.9,277.7 L797.1,348.2 L797.3,224.5 L797.5,218.6 L797.6,265.6 L797.8,282.6 L798.0,194.1 L798.2,369.2 L798.4,384.8 L798.5,237.9 L798.7,192.5 L798.9,170.0 L799.1,289.0 L799.3,384.9 L799.5,172.2 L799.6,364.3 L799.8,334.4 L800.0,222.5 L800.2,350.4 L800.4,296.2 L800.6,290.1 L800.7,194.7 L800.9,279.7 L801.1,339.0 L801.3,263.5 L801.5,333.0 L801.7,188.2 L801.8,363.0 L802.0,204.6 L802.2,207.4 L802.4,376.0 L802.6,344.5 L802.8,234.9 L802.9,391.3 L803.1,171.2 L803.3,403.3 L803.5,214.0 L803.7,164.8 L803.9,399.9 L804.0,168.8 L804.2,409.1 L804.4,199.6 L804.6,303.5 L804.8,249.2 L805.0,359.3 L805.1,217.4 L805.3,233.9 L805.5,390.7 L805.7,180.6 L805.9,346.7 L806.1,354.8 L806.2,226.9 L806.4,373.7 L806.6,383.3 L806.8,347.5 L807.0,219.0 L807.2,357.1 L807.3,380.9 L807.5,294.9 L807.7,266.2 L807.9,175.8 L808.1,412.7 L808.3,359.9 L808.4,342.6 L808.6,190.4 L808.8,338.7 L809.0,366.8 L809.2,193.5 L809.4,290.2 L809.5,234.9 L809.7,193.1 L809.9,339.6 L810.1,387.3 L810.3,189.8 L810.5,213.1 L810.6,323.7 L810.8,307.9 L811.0,410.9 L811.2,304.5 L811.4,317.5 L811.5,303.8 L811.7,238.6 L811.9,366.7 L812.1,401.1 L812.3,254.5 L812.5,360.8 L812.6,219.9 L812.8,279.0 L813.0,292.1 L813.2,324.4 L813.4,277.2 L813.6,313.8 L813.7,316.8 L813.9,414.2 L814.1,231.3 L814.3,356.2 L814.5,207.5 L814.7,339.3 L814.8,397.7 L815.0,310.6 L815.2,383.0 L815.4,324.6 L815.6,378.4 L815.8,351.7 L815.9,192.0 L816.1,378.4 L816.3,264.1 L816.5,305.2 L816.7,329.5 L816.9,232.2 L817.0,344.8 L817.2,234.9 L817.4,346.2 L817.6,403.8 L817.8,300.6 L818.0,327.2 L818.1,316.4 L818.3,201.1 L818.5,238.9 L818.7,183.6 L818.9,362.3 L819.1,290.0 L819.2,257.5 L819.4,362.9 L819.6,275.9 L819.8,366.4 L820.0,233.9 L820.2,307.2 L820.3,328.6 L820.5,312.4 L820.7,241.2 L820.9,266.2 L821.1,404.0 L821.3,305.6 L821.4,339.1 L821.6,305.1 L821.8,325.7 L822.0,342.4 L822.2,204.4 L822.4,213.4 L822.5,305.4 L822.7,414.3 L822.9,244.1 L823.1,215.1 L823.3,349.7 L823.5,211.0 L823.6,270.4 L823.8,248.1 L824.0,320.6 L824.2,214.6 L824.4,337.5 L824.5,423.0 L824.7,352.2 L824.9,273.9 L825.1,340.3 L825.3,306.5 L825.5,269.4 L825.6,321.9 L825.8,413.8 L826.0,304.6 L826.2,393.7 L826.4,212.3 L826.6,347.9 L826.7,217.5 L826.9,256.1 L827.1,280.2 L827.3,271.4 L827.5,206.2 L827.7,208.0 L827.8,284.0 L828.0,245.9 L828.2,244.1 L828.4,314.9 L828.6,316.0 L828.8,284.1 L828.9,336.3 L829.1,198.0 L829.3,339.8 L829.5,365.9 L829.7,361.9 L829.9,313.7 L830.0,256.7 L830.2,237.8 L830.4,245.6 L830.6,299.8 L830.8,278.1 L831.0,205.1 L831.1,245.8 L831.3,385.3 L831.5,378.6 L831.7,377.7 L831.9,231.8 L832.1,422.5 L832.2,351.9 L832.4,240.6 L832.6,261.5 L832.8,325.2 L833.0,370.1 L833.2,366.2 L833.3,319.4 L833.5,332.9 L833.7,303.8 L833.9,412.8 L834.1,228.7 L834.3,306.2 L834.4,364.9 L834.6,253.9 L834.8,270.3 L835.0,235.9 L835.2,296.0 L835.4,270.9 L835.5,383.3 L835.7,392.5 L835.9,382.4 L836.1,238.5 L836.3,336.3 L836.5,202.9 L836.6,298.5 L836.8,279.8 L837.0,273.5 L837.2,246.1 L837.4,242.3 L837.5,277.9 L837.7,335.7 L837.9,342.3 L838.1,256.7 L838.3,298.5 L838.5,305.3 L838.6,408.7 L838.8,423.4 L839.0,342.6 L839.2,204.7 L839.4,286.2 L839.6,270.1 L839.7,358.5 L839.9,420.9 L840.1,212.6 L840.3,247.6 L840.5,220.2 L840.7,402.7 L840.8,394.7 L841.0,378.0 L841.2,308.1 L841.4,308.2 L841.6,338.3 L841.8,314.3 L841.9,354.7 L842.1,306.6 L842.3,234.8 L842.5,326.0 L842.7,251.3 L842.9,214.5 L843.0,390.6 L843.2,350.3 L843.4,394.1 L843.6,341.7 L843.8,290.2 L844.0,271.1 L844.1,416.0 L844.3,356.9 L844.5,294.2 L844.7,365.7 L844.9,258.5 L845.1,417.0 L845.2,398.9 L845.4,297.6 L845.6,303.9 L845.8,274.4 L846.0,275.2 L846.2,214.7 L846.3,262.1 L846.5,288.5 L846.7,430.5 L846.9,334.4 L847.1,231.9 L847.3,247.9 L847.4,255.1 L847.6,250.4 L847.8,308.1 L848.0,318.4 L848.2,251.7 L848.4,269.0 L848.5,254.3 L848.7,292.5 L848.9,266.8 L849.1,346.0 L849.3,398.3 L849.5,277.5 L849.6,361.2 L849.8,234.2 L850.0,229.7 L850.2,421.8 L850.4,399.3 L850.5,327.9 L850.7,301.1 L850.9,325.0 L851.1,420.1 L851.3,228.0 L851.5,218.1 L851.6,409.1 L851.8,244.1 L852.0,340.0 L852.2,327.7 L852.4,261.7 L852.6,422.2 L852.7,356.1 L852.9,324.3 L853.1,320.7 L853.3,382.9 L853.5,278.4 L853.7,254.1 L853.8,238.2 L854.0,351.3 L854.2,258.9 L854.4,276.9 L854.6,333.3 L854.8,303.0 L854.9,404.0 L855.1,420.4 L855.3,261.0 L855.5,385.0 L855.7,407.4 L855.9,284.9 L856.0,367.5 L856.2,404.4 L856.4,349.4 L856.6,405.3 L856.8,380.6 L857.0,411.6 L857.1,416.1 L857.3,301.3 L857.5,393.2 L857.7,414.2 L857.9,383.4 L858.1,246.1 L858.2,365.2 L858.4,314.6 L858.6,246.9 L858.8,405.0 L859.0,243.4 L859.2,380.7 L859.3,435.3 L859.5,306.6 L859.7,437.2 L859.9,346.4 L860.1,292.8 L860.3,232.1 L860.4,282.6 L860.6,317.6 L860.8,294.0 L861.0,319.5 L861.2,263.0 L861.4,324.6 L861.5,438.1 L861.7,295.4 L861.9,438.0 L862.1,429.7 L862.3,427.7 L862.5,437.1 L862.6,306.0 L862.8,385.7 L863.0,367.6 L863.2,420.5 L863.4,319.7 L863.5,297.7 L863.7,236.6 L863.9,365.7 L864.1,390.2 L864.3,278.6 L864.5,437.6 L864.6,419.8 L864.8,323.9 L865.0,313.2 L865.2,390.8 L865.4,419.1 L865.6,274.9 L865.7,348.9 L865.9,323.6 L866.1,287.4 L866.3,353.5 L866.5,291.9 L866.7,370.5 L866.8,437.3 L867.0,365.5 L867.2,261.6 L867.4,346.4 L867.6,356.7 L867.8,275.3 L867.9,342.6 L868.1,339.6 L868.3,402.5 L868.5,295.5 L868.7,244.9 L868.9,324.1 L869.0,288.2 L869.2,391.3 L869.4,245.1 L869.6,390.9 L869.8,418.4 L870.0,265.0 L870.1,371.3 L870.3,436.4 L870.5,324.6 L870.7,437.6 L870.9,322.4 L871.1,250.1 L871.2,318.3 L871.4,374.6 L871.6,284.7 L871.8,249.4 L872.0,384.7 L872.2,393.7 L872.3,258.8 L872.5,281.2 L872.7,399.7 L872.9,375.5 L873.1,319.5 L873.3,321.9 L873.4,414.6 L873.6,332.6 L873.8,343.8 L874.0,349.6 L874.2,428.4 L874.4,408.7 L874.5,412.1 L874.7,274.9 L874.9,253.9 L875.1,289.9 L875.3,257.4 L875.5,341.2 L875.6,388.4 L875.8,418.0 L876.0,302.0 L876.2,305.7 L876.4,250.5 L876.5,338.3 L876.7,421.0 L876.9,357.4 L877.1,438.2 L877.3,300.7 L877.5,362.3 L877.6,444.2 L877.8,345.6 L878.0,335.4 L878.2,297.3 L878.4,355.9 L878.6,349.0 L878.7,383.2 L878.9,367.8 L879.1,362.0 L879.3,420.0 L879.5,445.4 L879.7,286.7 L879.8,302.0 L880.0,253.5 L880.2,306.3 L880.4,403.9 L880.6,414.3 L880.8,354.8 L880.9,276.5 L881.1,415.4 L881.3,409.2 L881.5,422.2 L881.7,428.9 L881.9,305.2 L882.0,390.0 L882.2,315.5 L882.4,321.6 L882.6,347.9 L882.8,404.4 L883.0,282.5 L883.1,273.8 L883.3,428.9 L883.5,445.3 L883.7,431.7 L883.9,292.3 L884.1,357.0 L884.2,395.5 L884.4,259.0 L884.6,318.6 L884.8,440.6 L885.0,360.8 L885.2,419.1 L885.3,416.1 L885.5,293.3 L885.7,398.9 L885.9,381.9 L886.1,374.3 L886.3,281.8 L886.4,385.1 L886.6,408.0 L886.8,263.3 L887.0,268.4 L887.2,403.5 L887.4,339.6 L887.5,437.7 L887.7,292.4 L887.9,334.5 L888.1,425.3 L888.3,410.3 L888.5,372.8 L888.6,411.4 L888.8,349.4 L889.0,418.6 L889.2,360.8 L889.4,437.2 L889.5,311.1 L889.7,437.3 L889.9,425.9 L890.1,281.0 L890.3,390.4 L890.5,283.4 L890.6,302.1 L890.8,339.4 L891.0,369.2 L891.2,325.4 L891.4,313.4 L891.6,383.8 L891.7,361.3 L891.9,445.6 L892.1,327.2 L892.3,354.3 L892.5,324.2 L892.7,340.8 L892.8,325.2 L893.0,287.0 L893.2,368.5 L893.4,270.2 L893.6,379.3 L893.8,388.0 L893.9,437.8 L894.1,333.5 L894.3,398.0 L894.5,356.4 L894.7,403.0 L894.9,304.1 L895.0,428.7 L895.2,331.0 L895.4,274.2 L895.6,309.3 L895.8,419.0 L896.0,328.4 L896.1,454.5 L896.3,377.4 L896.5,413.8 L896.7,424.5 L896.9,349.5 L897.1,379.1 L897.2,373.5 L897.4,280.3 L897.6,337.7 L897.8,324.6 L898.0,399.0 L898.2,348.1 L898.3,313.8 L898.5,397.9 L898.7,330.0 L898.9,386.8 L899.1,332.3 L899.3,423.7 L899.4,408.2 L899.6,301.5 L899.8,315.3 L900.0,336.1 L900.2,375.7 L900.4,365.5 L900.5,336.8 L900.7,297.9 L900.9,303.8 L901.1,297.2 L901.3,302.5 L901.5,343.4 L901.6,409.2 L901.8,455.5 L902.0,395.6 L902.2,416.2 L902.4,395.1 L902.5,364.4 L902.7,415.5 L902.9,296.9 L903.1,325.1 L903.3,405.4 L903.5,379.8 L903.6,343.8 L903.8,290.7 L904.0,391.1 L904.2,340.3 L904.4,304.4 L904.6,390.5 L904.7,398.2 L904.9,437.6 L905.1,298.4 L905.3,301.6 L905.5,410.6 L905.7,440.1 L905.8,435.7 L906.0,389.9 L906.2,305.4 L906.4,395.6 L906.6,455.6 L906.8,318.3 L906.9,394.2 L907.1,333.8 L907.3,315.5 L907.5,399.4 L907.7,301.7 L907.9,317.6 L908.0,406.3 L908.2,340.8 L908.4,344.3 L908.6,329.5 L908.8,291.8 L909.0,414.4 L909.1,377.0 L909.3,387.3 L909.5,419.8 L909.7,317.4 L909.9,400.0 L910.1,295.4 L910.2,291.3 L910.4,337.1 L910.6,389.7 L910.8,358.7 L911.0,421.1 L911.2,298.9 L911.3,442.8 L911.5,442.7 L911.7,441.8 L911.9,347.7 L912.1,458.9 L912.3,363.0 L912.4,358.7 L912.6,424.1 L912.8,332.6 L913.0,405.5 L913.2,331.2 L913.4,303.4 L913.5,449.2 L913.7,399.4 L913.9,314.1 L914.1,338.0 L914.3,341.2 L914.5,403.9 L914.6,384.5 L914.8,314.0 L915.0,397.2 L915.2,361.8 L915.4,327.6 L915.5,310.8 L915.7,342.0 L915.9,301.3 L916.1,354.2 L916.3,320.3 L916.5,450.5 L916.6,337.1 L916.8,310.1 L917.0,329.5 L917.2,399.9 L917.4,380.2 L917.6,417.1 L917.7,415.1 L917.9,408.8 L918.1,359.4 L918.3,388.1 L918.5,451.2 L918.7,341.4 L918.8,360.3 L919.0,358.3 L919.2,370.6 L919.4,375.6 L919.6,307.5 L919.8,349.7 L919.9,385.1 L920.1,320.5 L920.3,341.4 L920.5,324.8 L920.7,388.7 L920.9,378.1 L921.0,328.9 L921.2,441.6 L921.4,335.1 L921.6,325.2 L921.8,318.9 L922.0,386.8 L922.1,369.6 L922.3,401.8 L922.5,329.1 L922.7,461.1 L922.9,450.3 L923.1,447.2 L923.2,424.5 L923.4,435.0 L923.6,346.6 L923.8,348.2 L924.0,364.8 L924.2,389.1 L924.3,375.3 L924.5,374.6 L924.7,389.2 L924.9,435.1 L925.1,423.9 L925.3,443.4 L925.4,433.8 L925.6,368.2 L925.8,413.6 L926.0,316.6 L926.2,384.0 L926.4,435.9 L926.5,450.5 L926.7,423.7 L926.9,394.6 L927.1,427.6 L927.3,452.8 L927.5,323.5 L927.6,370.4 L927.8,391.7 L928.0,426.2 L928.2,424.3 L928.4,372.4 L928.5,434.0 L928.7,333.4 L928.9,407.7 L929.1,462.5 L929.3,316.3 L929.5,340.1 L929.6,420.0 L929.8,324.7 L930.0,323.1 L930.2,389.7 L930.4,351.5 L930.6,345.0 L930.7,372.9 L930.9,444.0 L931.1,464.6 L931.3,379.2 L931.5,365.0 L931.7,419.5 L931.8,327.4 L932.0,322.4 L932.2,437.6 L932.4,433.8 L932.6,415.5 L932.8,453.9 L932.9,436.2 L933.1,354.0 L933.3,392.1 L933.5,400.5 L933.7,339.3 L933.9,332.6 L934.0,333.1 L934.2,346.8 L934.4,342.3 L934.6,375.3 L934.8,463.1 L935.0,344.1 L935.1,352.7 L935.3,325.5 L935.5,339.0 L935.7,332.9 L935.9,381.0 L936.1,414.3 L936.2,425.5 L936.4,449.5 L936.6,357.2 L936.8,451.5 L937.0,369.1 L937.2,417.3 L937.3,356.8 L937.5,409.6 L937.7,432.1 L937.9,448.3 L938.1,383.5 L938.3,369.2 L938.4,409.9 L938.6,350.2 L938.8,389.1 L939.0,390.3 L939.2,388.7 L939.4,352.7 L939.5,359.8 L939.7,405.4 L939.9,452.1 L940.1,349.3 L940.3,468.3 L940.5,389.1 L940.6,452.0 L940.8,409.5 L941.0,343.8 L941.2,378.0 L941.4,369.4 L941.5,406.2 L941.7,456.8 L941.9,470.5 L942.1,431.7 L942.3,379.0 L942.5,368.9 L942.6,393.5 L942.8,448.2 L943.0,350.4 L943.2,368.8 L943.4,359.5 L943.6,358.8 L943.7,388.7 L943.9,426.2 L944.1,405.5 L944.3,393.6 L944.5,391.6 L944.7,364.4 L944.8,474.6 L945.0,465.0 L945.2,433.6 L945.4,378.1 L945.6,392.3 L945.8,404.4 L945.9,475.2 L946.1,344.0 L946.3,340.6 L946.5,430.2 L946.7,419.7 L946.9,446.7 L947.0,429.2 L947.2,385.9 L947.4,366.7 L947.6,462.3 L947.8,404.1 L948.0,369.0 L948.1,449.3 L948.3,417.7 L948.5,407.9 L948.7,440.7 L948.9,474.5 L949.1,345.6 L949.2,430.5 L949.4,365.7 L949.6,448.9 L949.8,385.0 L950.0,435.9 L950.2,408.4 L950.3,402.9 L950.5,350.4 L950.7,383.6 L950.9,443.6 L951.1,351.1 L951.3,437.8 L951.4,379.5 L951.6,358.5 L951.8,360.1 L952.0,461.9 L952.2,432.8 L952.4,458.0 L952.5,351.8 L952.7,392.5 L952.9,360.8 L953.1,397.3 L953.3,357.7 L953.5,453.2 L953.6,406.8 L953.8,475.8 L954.0,477.8 L954.2,385.7 L954.4,465.9 L954.5,408.5 L954.7,439.1 L954.9,454.5 L955.1,411.6 L955.3,477.7 L955.5,378.3 L955.6,361.8 L955.8,449.0 L956.0,393.5 L956.2,463.9 L956.4,469.1 L956.6,478.7 L956.7,449.8 L956.9,409.9 L957.1,458.9 L957.3,444.5 L957.5,452.2 L957.7,470.5 L957.8,390.0 L958.0,374.4 L958.2,388.5 L958.4,400.8 L958.6,357.6 L958.8,394.8 L958.9,382.7 L959.1,376.2 L959.3,453.3 L959.5,404.6 L959.7,374.5 L959.9,373.9 L960.0,480.1 L960.2,443.3 L960.4,363.7 L960.6,361.4 L960.8,476.2 L961.0,449.2 L961.1,361.6 L961.3,478.1 L961.5,461.4 L961.7,402.0 L961.9,471.5 L962.1,380.8 L962.2,438.3 L962.4,397.0 L962.6,468.1 L962.8,418.7 L963.0,378.2 L963.2,447.8 L963.3,424.7 L963.5,366.4 L963.7,378.4 L963.9,396.0 L964.1,432.7 L964.3,481.8 L964.4,441.0 L964.6,485.6 L964.8,476.6 L965.0,396.6 L965.2,428.7 L965.4,482.3 L965.5,425.9 L965.7,388.1 L965.9,475.4 L966.1,463.0 L966.3,428.3 L966.5,385.8 L966.6,465.3 L966.8,448.4 L967.0,439.8 L967.2,374.3 L967.4,461.4 L967.5,436.9 L967.7,390.6 L967.9,421.1 L968.1,451.8 L968.3,413.8 L968.5,381.8 L968.6,438.3 L968.8,413.3 L969.0,451.3 L969.2,483.8 L969.4,469.5 L969.6,440.9 L969.7,421.9 L969.9,487.0 L970.1,473.3 L970.3,441.5 L970.5,403.1 L970.7,405.3 L970.8,375.6 L971.0,403.7 L971.2,400.4 L971.4,423.5 L971.6,404.9 L971.8,473.4 L971.9,467.6 L972.1,461.1 L972.3,473.0 L972.5,399.7 L972.7,441.4 L972.9,451.1 L973.0,448.3 L973.2,425.9 L973.4,481.4 L973.6,445.3 L973.8,384.2 L974.0,444.7 L974.1,487.1 L974.3,488.6 L974.5,447.7 L974.7,453.0 L974.9,384.7 L975.1,400.7 L975.2,393.7 L975.4,432.8 L975.6,471.2 L975.8,419.3 L976.0,416.5 L976.2,425.4 L976.3,489.3 L976.5,421.9 L976.7,468.1 L976.9,460.4 L977.1,400.5 L977.3,424.8 L977.4,491.9 L977.6,466.5 L977.8,462.0 L978.0,396.0 L978.2,485.2 L978.4,465.4 L978.5,464.1 L978.7,423.9 L978.9,404.3 L979.1,474.3 L979.3,476.1 L979.5,443.7 L979.6,407.7 L979.8,411.2 L980.0,422.5 L980.2,457.3 L980.4,474.0 L980.5,458.3 L980.7,473.6 L980.9,479.7 L981.1,396.0 L981.3,472.8 L981.5,440.8 L981.6,392.3 L981.8,459.1 L982.0,391.4 L982.2,443.6 L982.4,405.0 L982.6,396.9 L982.7,453.5 L982.9,433.8 L983.1,427.4 L983.3,431.3 L983.5,440.9 L983.7,439.2 L983.8,404.1 L984.0,409.5 L984.2,394.8 L984.4,411.5 L984.6,436.6 L984.8,495.3 L984.9,430.3 L985.1,452.3 L985.3,447.5 L985.5,488.3 L985.7,465.0 L985.9,424.9 L986.0,458.3 L986.2,464.9 L986.4,493.0 L986.6,433.9 L986.8,435.8 L987.0,495.2 L987.1,484.1 L987.3,457.7 L987.5,480.2 L987.7,427.1 L987.9,423.7 L988.1,482.3 L988.2,484.5 L988.4,430.2 L988.6,495.7 L988.8,409.9 L989.0,454.5 L989.2,414.4 L989.3,437.1 L989.5,432.4 L989.7,489.5 L989.9,490.9 L990.1,464.3 L990.3,454.2 L990.4,489.6 L990.6,427.4 L990.8,442.3 L991.0,416.3 L991.2,407.9 L991.4,484.9 L991.5,428.3 L991.7,444.3 L991.9,450.0 L992.1,468.9 L992.3,415.8 L992.5,468.7 L992.6,480.7 L992.8,411.0 L993.0,466.7 L993.2,457.3 L993.4,469.9 L993.5,440.6 L993.7,485.5 L993.9,427.5 L994.1,447.0 L994.3,475.5 L994.5,466.6 L994.6,494.4 L994.8,460.5 L995.0,495.5 L995.2,420.4 L995.4,492.1 L995.6,444.6 L995.7,471.5 L995.9,462.9 L996.1,414.4 L996.3,495.5 L996.5,435.1 L996.7,414.5 L996.8,435.2 L997.0,486.6 L997.2,469.1 L997.4,460.8 L997.6,461.5 L997.8,437.9 L997.9,468.9 L998.1,458.8 L998.3,431.2 L998.5,484.7 L998.7,462.6 L998.9,424.1 L999.0,442.1 L999.2,477.8 L999.4,438.0 L999.6,475.4 L999.8,422.6 L1000.0,430.6 L1000.1,475.2 L1000.3,469.7 L1000.5,474.2 L1000.7,442.6 L1000.9,445.9 L1001.1,422.8 L1001.2,490.8 L1001.4,442.5 L1001.6,437.7 L1001.8,423.2 L1002.0,458.7 L1002.2,496.9 L1002.3,425.6 L1002.5,440.6 L1002.7,438.4 L1002.9,491.1 L1003.1,456.9 L1003.3,434.0 L1003.4,465.4 L1003.6,432.1 L1003.8,474.6 L1004.0,430.9 L1004.2,461.7 L1004.4,445.7 L1004.5,471.0 L1004.7,446.0 L1004.9,437.2 L1005.1,455.1 L1005.3,491.1 L1005.5,464.8 L1005.6,471.8 L1005.8,504.6 L1006.0,489.7 L1006.2,451.7 L1006.4,497.5 L1006.5,469.5 L1006.7,442.9 L1006.9,504.5 L1007.1,462.3 L1007.3,432.1 L1007.5,494.1 L1007.6,459.1 L1007.8,438.8 L1008.0,444.1 L1008.2,475.8 L1008.4,436.4 L1008.6,463.5 L1008.7,497.4 L1008.9,502.8 L1009.1,453.3 L1009.3,440.2 L1009.5,476.5 L1009.7,436.3 L1009.8,467.1 L1010.0,503.2 L1010.2,484.0 L1010.4,504.4 L1010.6,480.0 L1010.8,467.9 L1010.9,440.0 L1011.1,434.3 L1011.3,494.4 L1011.5,480.0 L1011.7,454.7 L1011.9,436.3 L1012.0,499.3 L1012.2,456.3 L1012.4,505.2 L1012.6,476.6 L1012.8,471.6 L1013.0,440.6 L1013.1,457.7 L1013.3,508.3 L1013.5,457.5 L1013.7,470.0 L1013.9,450.7 L1014.1,445.4 L1014.2,494.2 L1014.4,494.9 L1014.6,486.4 L1014.8,481.8 L1015.0,438.9 L1015.2,449.2 L1015.3,457.2 L1015.5,475.1 L1015.7,458.1 L1015.9,488.7 L1016.1,473.0 L1016.3,511.0 L1016.4,510.6 L1016.6,454.1 L1016.8,466.4 L1017.0,495.0 L1017.2,457.4 L1017.4,495.8 L1017.5,510.2 L1017.7,480.5 L1017.9,478.8 L1018.1,508.9 L1018.3,477.3 L1018.5,449.3 L1018.6,477.8 L1018.8,451.7 L1019.0,473.0 L1019.2,491.2 L1019.4,499.9 L1019.5,485.1 L1019.7,480.7 L1019.9,476.3 L1020.1,456.0 L1020.3,508.9 L1020.5,453.0 L1020.6,473.9 L1020.8,509.7 L1021.0,509.0 L1021.2,462.4 L1021.4,481.5 L1021.6,488.7 L1021.7,510.5 L1021.9,508.6 L1022.1,483.8 L1022.3,470.0 L1022.5,462.4 L1022.7,455.1 L1022.8,502.5 L1023.0,512.6 L1023.2,510.8 L1023.4,469.2 L1023.6,483.6 L1023.8,480.6 L1023.9,476.6 L1024.1,502.1 L1024.3,510.5 L1024.5,472.9 L1024.7,455.7 L1024.9,498.4 L1025.0,465.9 L1025.2,514.1 L1025.4,507.2 L1025.6,479.0 L1025.8,492.4 L1026.0,484.8 L1026.1,486.1 L1026.3,461.9 L1026.5,497.4 L1026.7,509.3 L1026.9,506.3 L1027.1,514.4 L1027.2,512.8 L1027.4,462.2 L1027.6,486.2 L1027.8,470.6 L1028.0,466.8 L1028.2,509.0 L1028.3,483.3 L1028.5,500.3 L1028.7,482.8 L1028.9,480.7 L1029.1,463.7 L1029.3,504.3 L1029.4,487.1 L1029.6,497.5 L1029.8,477.9 L1030.0,506.1 L1030.2,464.7 L1030.4,477.3 L1030.5,475.6 L1030.7,472.8 L1030.9,514.0 L1031.1,471.8 L1031.3,515.5 L1031.5,484.9 L1031.6,497.0 L1031.8,514.6 L1032.0,487.5 L1032.2,473.2 L1032.4,478.2 L1032.5,514.1 L1032.7,511.2 L1032.9,518.4 L1033.1,471.2 L1033.3,473.3 L1033.5,479.3 L1033.6,481.2 L1033.8,496.0 L1034.0,475.1 L1034.2,516.9 L1034.4,474.8 L1034.6,479.7 L1034.7,472.7 L1034.9,470.2 L1035.1,493.6 L1035.3,497.5 L1035.5,514.3 L1035.7,512.4 L1035.8,470.5 L1036.0,493.6 L1036.2,483.0 L1036.4,497.9 L1036.6,504.5 L1036.8,507.7 L1036.9,472.1 L1037.1,512.9 L1037.3,493.4 L1037.5,518.8 L1037.7,477.4 L1037.9,495.7 L1038.0,501.8 L1038.2,500.1 L1038.4,481.7 L1038.6,491.2 L1038.8,510.0 L1039.0,516.8 L1039.1,485.3 L1039.3,501.3 L1039.5,512.6 L1039.7,484.0 L1039.9,513.5 L1040.1,491.7 L1040.2,488.9 L1040.4,480.9 L1040.6,513.4 L1040.8,494.3 L1041.0,495.2 L1041.2,483.3 L1041.3,505.7 L1041.5,496.8 L1041.7,480.4 L1041.9,489.9 L1042.1,497.2 L1042.3,494.1 L1042.4,516.1 L1042.6,514.0 L1042.8,520.7 L1043.0,517.8 L1043.2,504.2 L1043.4,518.4 L1043.5,520.2 L1043.7,495.3 L1043.9,506.0 L1044.1,504.7 L1044.3,500.1 L1044.5,522.6 L1044.6,503.9 L1044.8,509.6 L1045.0,510.0 L1045.2,498.6 L1045.4,491.1 L1045.5,518.7 L1045.7,515.6 L1045.9,524.5 L1046.1,493.1 L1046.3,521.7 L1046.5,489.3 L1046.6,512.2 L1046.8,502.2 L1047.0,498.1 L1047.2,497.3 L1047.4,512.6 L1047.6,506.6 L1047.7,502.7 L1047.9,493.0 L1048.1,523.4 L1048.3,515.1 L1048.5,497.0 L1048.7,498.1 L1048.8,514.1 L1049.0,523.3 L1049.2,493.0 L1049.4,502.5 L1049.6,521.2 L1049.8,497.1 L1049.9,525.0 L1050.1,512.1 L1050.3,501.4 L1050.5,509.2 L1050.7,508.2 L1050.9,513.4 L1051.0,502.2 L1051.2,522.1 L1051.4,510.7 L1051.6,516.1 L1051.8,513.6 L1052.0,517.7 L1052.1,497.0 L1052.3,512.6 L1052.5,521.4 L1052.7,505.1 L1052.9,514.9 L1053.1,505.1 L1053.2,514.7 L1053.4,527.2 L1053.6,519.0 L1053.8,502.5 L1054.0,510.5 L1054.2,499.4 L1054.3,518.7 L1054.5,499.2 L1054.7,512.1 L1054.9,500.4 L1055.1,508.1 L1055.3,518.8 L1055.4,502.4 L1055.6,500.8 L1055.8,516.2 L1056.0,530.1 L1056.2,520.9 L1056.4,528.2 L1056.5,504.6 L1056.7,530.5 L1056.9,519.7 L1057.1,502.1 L1057.3,516.0 L1057.5,505.5 L1057.6,519.5 L1057.8,523.5 L1058.0,513.0 L1058.2,527.3 L1058.4,513.4 L1058.5,514.7 L1058.7,519.6 L1058.9,520.8 L1059.1,514.1 L1059.3,514.8 L1059.5,508.8 L1059.6,527.2 L1059.8,528.7 L1060.0,522.4 L1060.2,512.1 L1060.4,522.4 L1060.6,530.3 L1060.7,526.4 L1060.9,510.1 L1061.1,512.4 L1061.3,521.3 L1061.5,514.3 L1061.7,512.5 L1061.8,510.3 L1062.0,524.0 L1062.2,518.7 L1062.4,511.2 L1062.6,533.6 L1062.8,532.8 L1062.9,523.6 L1063.1,512.0 L1063.3,522.8 L1063.5,532.7 L1063.7,531.2 L1063.9,523.8 L1064.0,531.1 L1064.2,515.2 L1064.4,516.6 L1064.6,515.7 L1064.8,533.2 L1065.0,514.5 L1065.1,528.3 L1065.3,526.5 L1065.5,530.1 L1065.7,525.9 L1065.9,533.4 L1066.1,518.4 L1066.2,534.6 L1066.4,522.6 L1066.6,528.6 L1066.8,521.0 L1067.0,534.8 L1067.2,526.2 L1067.3,529.5 L1067.5,528.6 L1067.7,521.5 L1067.9,521.4 L1068.1,525.5 L1068.3,521.8 L1068.4,523.6 L1068.6,522.4 L1068.8,530.9 L1069.0,522.1 L1069.2,523.1 L1069.4,526.5 L1069.5,533.6 L1069.7,525.0 L1069.9,536.7 L1070.1,530.0 L1070.3,527.9 L1070.5,531.2 L1070.6,523.5 L1070.8,524.4 L1071.0,528.9 L1071.2,532.3 L1071.4,523.8 L1071.5,527.2 L1071.7,527.6 L1071.9,524.4 L1072.1,530.9 L1072.3,534.8 L1072.5,528.9 L1072.6,533.4 L1072.8,527.5 L1073.0,536.0 L1073.2,528.6 L1073.4,536.6 L1073.6,526.6 L1073.7,526.5 L1073.9,538.5 L1074.1,526.5 L1074.3,535.3 L1074.5,533.1 L1074.7,537.7 L1074.8,533.6 L1075.0,530.6 L1075.2,538.9 L1075.4,534.9 L1075.6,528.8 L1075.8,535.3 L1075.9,533.1 L1076.1,539.9 L1076.3,530.3 L1076.5,531.2 L1076.7,536.8 L1076.9,540.3 L1077.0,534.8 L1077.2,537.9 L1077.4,533.7 L1077.6,534.2 L1077.8,532.2 L1078.0,540.9 L1078.1,535.0 L1078.3,534.7 L1078.5,540.0 L1078.7,540.8 L1078.9,541.2 L1079.1,536.0 L1079.2,541.2 L1079.4,537.3 L1079.6,540.6 L1079.8,537.2 L1080.0,537.9 L1080.2,540.8 L1080.3,535.9 L1080.5,542.3 L1080.7,537.8 L1080.9,541.4 L1081.1,540.8 L1081.3,542.4 L1081.4,539.6 L1081.6,543.1 L1081.8,541.6 L1082.0,538.7 L1082.2,540.1 L1082.4,541.1 L1082.5,540.8 L1082.7,542.0 L1082.9,542.2 L1083.1,543.3 L1083.3,543.0 L1083.5,542.4 L1083.6,542.2 L1083.8,542.6 L1084.0,543.6" fill="none" stroke="#1f77b4" stroke-width="1.4" opacity="0.85"/><text x="1040" y="54" fill="#ff7f0e" font-size="11">roll 111</text><text x="1090" y="558" fill="#ff7f0e" font-size="11">-22</text><path d="M616.0,466.7 L616.2,466.4 L616.4,468.5 L616.5,466.7 L616.7,469.5 L616.9,468.8 L617.1,468.8 L617.3,467.1 L617.5,469.5 L617.6,468.1 L617.8,466.7 L618.0,469.5 L618.2,467.1 L618.4,468.5 L618.6,466.4 L618.7,469.2 L618.9,468.8 L619.1,467.8 L619.3,466.7 L619.5,467.4 L619.7,468.1 L619.8,467.4 L620.0,468.1 L620.2,467.8 L620.4,466.4 L620.6,465.6 L620.8,467.8 L620.9,466.7 L621.1,464.9 L621.3,465.6 L621.5,467.8 L621.7,466.7 L621.9,468.1 L622.0,466.4 L622.2,468.1 L622.4,466.4 L622.6,467.4 L622.8,463.5 L623.0,466.0 L623.1,465.6 L623.3,463.5 L623.5,465.3 L623.7,464.6 L623.9,464.2 L624.1,465.6 L624.2,467.4 L624.4,463.2 L624.6,466.0 L624.8,461.4 L625.0,464.6 L625.2,463.2 L625.3,465.3 L625.5,466.0 L625.7,465.3 L625.9,460.4 L626.1,457.2 L626.3,460.7 L626.4,460.7 L626.6,457.5 L626.8,458.2 L627.0,464.9 L627.2,456.8 L627.4,454.7 L627.5,461.8 L627.7,460.4 L627.9,454.4 L628.1,462.5 L628.3,464.2 L628.5,461.8 L628.6,461.1 L628.8,463.5 L629.0,452.9 L629.2,449.8 L629.4,460.0 L629.5,458.6 L629.7,455.8 L629.9,452.2 L630.1,456.8 L630.3,445.9 L630.5,453.6 L630.6,445.2 L630.8,448.0 L631.0,446.2 L631.2,460.4 L631.4,457.9 L631.6,438.5 L631.7,455.1 L631.9,442.4 L632.1,436.4 L632.3,438.8 L632.5,452.9 L632.7,440.9 L632.8,446.6 L633.0,448.4 L633.2,457.9 L633.4,433.5 L633.6,448.7 L633.8,456.1 L633.9,450.5 L634.1,445.9 L634.3,439.5 L634.5,434.2 L634.7,437.4 L634.9,432.8 L635.0,430.7 L635.2,447.6 L635.4,452.2 L635.6,420.8 L635.8,451.5 L636.0,445.5 L636.1,440.6 L636.3,416.2 L636.5,443.1 L636.7,427.5 L636.9,431.8 L637.1,427.9 L637.2,415.2 L637.4,431.8 L637.6,444.1 L637.8,422.2 L638.0,412.4 L638.2,440.2 L638.3,424.0 L638.5,432.8 L638.7,432.8 L638.9,402.1 L639.1,440.9 L639.3,437.1 L639.4,427.5 L639.6,409.5 L639.8,421.5 L640.0,405.3 L640.2,403.9 L640.4,443.4 L640.5,436.4 L640.7,409.9 L640.9,414.1 L641.1,423.3 L641.3,391.9 L641.5,412.0 L641.6,402.5 L641.8,388.4 L642.0,404.2 L642.2,390.8 L642.4,387.6 L642.5,420.1 L642.7,431.4 L642.9,396.5 L643.1,426.5 L643.3,389.8 L643.5,383.8 L643.6,371.8 L643.8,408.1 L644.0,386.6 L644.2,403.5 L644.4,370.4 L644.6,364.7 L644.7,368.9 L644.9,391.2 L645.1,368.2 L645.3,416.6 L645.5,363.3 L645.7,356.6 L645.8,424.7 L646.0,390.5 L646.2,368.6 L646.4,424.7 L646.6,382.7 L646.8,375.6 L646.9,416.6 L647.1,400.7 L647.3,377.4 L647.5,379.2 L647.7,410.6 L647.9,380.2 L648.0,407.1 L648.2,379.2 L648.4,403.9 L648.6,367.9 L648.8,415.9 L649.0,400.4 L649.1,367.2 L649.3,336.1 L649.5,362.2 L649.7,388.7 L649.9,370.7 L650.1,319.5 L650.2,410.9 L650.4,394.0 L650.6,342.1 L650.8,374.6 L651.0,405.6 L651.2,319.9 L651.3,383.4 L651.5,317.8 L651.7,402.1 L651.9,328.4 L652.1,390.5 L652.3,354.8 L652.4,389.4 L652.6,406.7 L652.8,380.2 L653.0,323.4 L653.2,317.1 L653.4,344.6 L653.5,338.9 L653.7,331.5 L653.9,390.5 L654.1,302.6 L654.3,325.2 L654.5,329.1 L654.6,320.6 L654.8,284.2 L655.0,389.8 L655.2,394.0 L655.4,296.9 L655.5,377.1 L655.7,334.7 L655.9,397.9 L656.1,305.1 L656.3,283.9 L656.5,298.7 L656.6,302.9 L656.8,273.3 L657.0,341.4 L657.2,361.9 L657.4,374.9 L657.6,319.2 L657.7,384.5 L657.9,335.1 L658.1,389.4 L658.3,293.4 L658.5,256.4 L658.7,322.7 L658.8,264.8 L659.0,349.5 L659.2,348.1 L659.4,290.9 L659.6,256.0 L659.8,370.7 L659.9,343.5 L660.1,306.8 L660.3,308.9 L660.5,361.2 L660.7,326.2 L660.9,259.2 L661.0,307.9 L661.2,300.5 L661.4,238.4 L661.6,294.1 L661.8,262.7 L662.0,351.3 L662.1,242.6 L662.3,299.8 L662.5,318.1 L662.7,240.8 L662.9,242.2 L663.1,364.0 L663.2,274.0 L663.4,259.2 L663.6,250.7 L663.8,303.6 L664.0,362.9 L664.2,261.6 L664.3,377.8 L664.5,237.6 L664.7,329.8 L664.9,365.8 L665.1,284.6 L665.3,317.8 L665.4,370.4 L665.6,294.1 L665.8,247.9 L666.0,267.6 L666.2,370.4 L666.4,208.4 L666.5,242.6 L666.7,304.4 L666.9,235.5 L667.1,239.4 L667.3,250.0 L667.5,212.2 L667.6,275.1 L667.8,329.8 L668.0,377.1 L668.2,260.9 L668.4,374.6 L668.5,328.4 L668.7,302.2 L668.9,228.5 L669.1,301.5 L669.3,242.2 L669.5,194.2 L669.6,324.5 L669.8,193.5 L670.0,323.1 L670.2,204.5 L670.4,343.2 L670.6,325.2 L670.7,372.8 L670.9,233.8 L671.1,76.0 L671.3,281.1 L671.5,309.3 L671.7,345.3 L671.8,236.6 L672.0,306.8 L672.2,216.1 L672.4,215.8 L672.6,357.6 L672.8,311.4 L672.9,300.8 L673.1,321.6 L673.3,289.2 L673.5,167.1 L673.7,190.0 L673.9,288.8 L674.0,280.4 L674.2,314.2 L674.4,317.8 L674.6,166.4 L674.8,288.1 L675.0,326.9 L675.1,230.9 L675.3,301.9 L675.5,265.2 L675.7,241.2 L675.9,161.1 L676.1,350.2 L676.2,340.7 L676.4,307.5 L676.6,312.8 L676.8,237.3 L677.0,311.4 L677.2,271.5 L677.3,268.0 L677.5,260.9 L677.7,470.6 L677.9,466.0 L678.1,468.8 L678.3,468.1 L678.4,467.1 L678.6,467.4 L678.8,467.8 L679.0,464.2 L679.2,457.9 L679.4,454.4 L679.5,457.9 L679.7,461.8 L679.9,445.9 L680.1,454.4 L680.3,447.3 L680.5,448.7 L680.6,460.7 L680.8,457.5 L681.0,435.6 L681.2,437.8 L681.4,441.6 L681.5,449.4 L681.7,449.1 L681.9,447.3 L682.1,453.6 L682.3,424.0 L682.5,428.2 L682.6,433.9 L682.8,427.5 L683.0,432.8 L683.2,447.3 L683.4,421.2 L683.6,433.5 L683.7,443.8 L683.9,433.9 L684.1,453.3 L684.3,420.8 L684.5,446.6 L684.7,426.8 L684.8,444.8 L685.0,451.9 L685.2,431.4 L685.4,448.4 L685.6,424.7 L685.8,437.4 L685.9,440.9 L686.1,444.8 L686.3,454.0 L686.5,446.6 L686.7,452.9 L686.9,450.8 L687.0,431.4 L687.2,436.7 L687.4,456.5 L687.6,446.9 L687.8,443.1 L688.0,440.6 L688.1,443.8 L688.3,445.9 L688.5,450.5 L688.7,450.1 L688.9,447.6 L689.1,440.2 L689.2,445.9 L689.4,450.1 L689.6,435.3 L689.8,441.6 L690.0,446.9 L690.2,443.4 L690.3,445.9 L690.5,447.6 L690.7,437.1 L690.9,446.2 L691.1,434.2 L691.3,448.7 L691.4,452.6 L691.6,439.2 L691.8,428.6 L692.0,450.1 L692.2,434.6 L692.4,443.1 L692.5,450.8 L692.7,443.1 L692.9,438.5 L693.1,435.3 L693.3,450.8 L693.5,458.6 L693.6,436.4 L693.8,449.4 L694.0,432.1 L694.2,447.3 L694.4,429.6 L694.5,449.8 L694.7,434.2 L694.9,438.5 L695.1,449.4 L695.3,433.2 L695.5,439.5 L695.6,434.2 L695.8,458.2 L696.0,435.6 L696.2,450.1 L696.4,449.8 L696.6,460.0 L696.7,447.3 L696.9,458.9 L697.1,445.9 L697.3,457.2 L697.5,451.2 L697.7,439.9 L697.8,451.9 L698.0,442.4 L698.2,456.1 L698.4,446.9 L698.6,437.1 L698.8,450.5 L698.9,440.6 L699.1,458.2 L699.3,455.8 L699.5,448.0 L699.7,460.7 L699.9,440.2 L700.0,455.8 L700.2,451.5 L700.4,448.4 L700.6,441.3 L700.8,441.6 L701.0,447.3 L701.1,440.6 L701.3,447.6 L701.5,438.8 L701.7,452.2 L701.9,454.0 L702.1,440.2 L702.2,454.4 L702.4,434.9 L702.6,446.2 L702.8,429.3 L703.0,429.6 L703.2,454.7 L703.3,436.7 L703.5,432.8 L703.7,432.8 L703.9,440.2 L704.1,452.2 L704.3,443.4 L704.4,450.1 L704.6,433.9 L704.8,439.5 L705.0,439.2 L705.2,434.9 L705.4,442.7 L705.5,451.5 L705.7,428.6 L705.9,450.8 L706.1,446.6 L706.3,431.1 L706.5,448.7 L706.6,451.9 L706.8,436.7 L707.0,453.6 L707.2,461.4 L707.4,452.6 L707.5,465.6 L707.7,464.6 L707.9,458.2 L708.1,456.1 L708.3,460.7 L708.5,457.5 L708.6,457.9 L708.8,448.7 L709.0,444.1 L709.2,449.8 L709.4,455.8 L709.6,448.0 L709.7,461.8 L709.9,465.6 L710.1,462.5 L710.3,457.5 L710.5,461.1 L710.7,456.8 L710.8,454.7 L711.0,451.9 L711.2,451.5 L711.4,455.4 L711.6,450.8 L711.8,458.9 L711.9,452.9 L712.1,452.9 L712.3,455.8 L712.5,444.8 L712.7,462.5 L712.9,460.7 L713.0,457.5 L713.2,459.6 L713.4,457.5 L713.6,461.8 L713.8,458.6 L714.0,463.5 L714.1,463.5 L714.3,464.2 L714.5,464.6 L714.7,466.7 L714.9,470.2 L715.1,466.4 L715.2,462.1 L715.4,464.2 L715.6,468.5 L715.8,466.7 L716.0,464.6 L716.2,469.2 L716.3,469.9 L716.5,475.9 L716.7,472.7 L716.9,470.9 L717.1,472.4 L717.3,472.4 L717.4,467.4 L717.6,476.2 L717.8,474.5 L718.0,473.1 L718.2,471.6 L718.4,476.6 L718.5,468.5 L718.7,470.6 L718.9,479.1 L719.1,473.1 L719.3,468.8 L719.5,472.0 L719.6,467.1 L719.8,474.5 L720.0,469.2 L720.2,475.5 L720.4,479.4 L720.5,475.9 L720.7,471.6 L720.9,475.5 L721.1,469.9 L721.3,467.8 L721.5,476.2 L721.6,471.3 L721.8,475.9 L722.0,470.2 L722.2,463.2 L722.4,469.2 L722.6,464.6 L722.7,463.2 L722.9,464.6 L723.1,454.0 L723.3,461.1 L723.5,453.3 L723.7,456.5 L723.8,462.5 L724.0,453.6 L724.2,460.4 L724.4,446.6 L724.6,453.6 L724.8,444.8 L724.9,462.5 L725.1,451.5 L725.3,463.2 L725.5,455.8 L725.7,447.3 L725.9,457.2 L726.0,456.8 L726.2,462.8 L726.4,462.8 L726.6,464.2 L726.8,463.5 L727.0,463.2 L727.1,467.8 L727.3,470.9 L727.5,466.7 L727.7,463.5 L727.9,459.6 L728.1,462.8 L728.2,465.3 L728.4,458.9 L728.6,463.2 L728.8,456.8 L729.0,466.0 L729.2,461.4 L729.3,464.2 L729.5,463.5 L729.7,457.5 L729.9,462.1 L730.1,462.8 L730.3,467.8 L730.4,462.1 L730.6,464.9 L730.8,462.1 L731.0,467.4 L731.2,463.9 L731.4,464.6 L731.5,463.9 L731.7,458.9 L731.9,465.3 L732.1,471.3 L732.3,465.3 L732.5,459.6 L732.6,467.1 L732.8,463.9 L733.0,465.3 L733.2,460.0 L733.4,466.4 L733.5,464.2 L733.7,457.9 L733.9,464.6 L734.1,454.7 L734.3,466.7 L734.5,465.3 L734.6,463.9 L734.8,461.8 L735.0,465.6 L735.2,467.1 L735.4,462.5 L735.6,465.3 L735.7,469.5 L735.9,470.9 L736.1,476.9 L736.3,488.2 L736.5,478.7 L736.7,476.9 L736.8,479.1 L737.0,475.5 L737.2,474.5 L737.4,482.6 L737.6,475.5 L737.8,481.9 L737.9,475.2 L738.1,485.1 L738.3,479.1 L738.5,481.9 L738.7,483.3 L738.9,485.1 L739.0,476.2 L739.2,474.1 L739.4,478.0 L739.6,483.3 L739.8,496.4 L740.0,476.2 L740.1,477.3 L740.3,469.2 L740.5,467.4 L740.7,476.6 L740.9,470.9 L741.1,472.7 L741.2,472.0 L741.4,471.6 L741.6,469.9 L741.8,467.4 L742.0,470.6 L742.2,474.1 L742.3,469.9 L742.5,473.4 L742.7,469.9 L742.9,468.8 L743.1,471.6 L743.3,468.8 L743.4,467.1 L743.6,465.6 L743.8,467.8 L744.0,476.9 L744.2,468.5 L744.4,468.1 L744.5,476.2 L744.7,469.5 L744.9,463.2 L745.1,460.4 L745.3,456.8 L745.5,460.7 L745.6,464.6 L745.8,458.9 L746.0,461.4 L746.2,462.1 L746.4,457.2 L746.5,452.9 L746.7,459.6 L746.9,462.8 L747.1,468.1 L747.3,465.6 L747.5,468.5 L747.6,465.6 L747.8,469.5 L748.0,464.2 L748.2,470.9 L748.4,467.4 L748.6,467.1 L748.7,469.5 L748.9,470.9 L749.1,470.9 L749.3,469.5 L749.5,470.2 L749.7,479.1 L749.8,471.3 L750.0,470.6 L750.2,473.4 L750.4,470.6 L750.6,473.1 L750.8,476.2 L750.9,474.8 L751.1,480.8 L751.3,469.2 L751.5,474.1 L751.7,473.8 L751.9,476.9 L752.0,478.0 L752.2,469.2 L752.4,475.9 L752.6,473.8 L752.8,472.4 L753.0,475.2 L753.1,474.5 L753.3,478.4 L753.5,478.0 L753.7,471.3 L753.9,471.6 L754.1,470.2 L754.2,480.8 L754.4,468.5 L754.6,468.5 L754.8,474.8 L755.0,468.1 L755.2,475.2 L755.3,471.3 L755.5,472.0 L755.7,474.5 L755.9,471.6 L756.1,475.5 L756.3,476.2 L756.4,484.4 L756.6,470.9 L756.8,469.5 L757.0,471.3 L757.2,471.3 L757.4,477.6 L757.5,484.0 L757.7,475.9 L757.9,478.4 L758.1,472.0 L758.3,468.5 L758.5,472.7 L758.6,475.5 L758.8,478.0 L759.0,477.6 L759.2,476.6 L759.4,483.6 L759.5,476.2 L759.7,476.6 L759.9,472.4 L760.1,474.1 L760.3,472.7 L760.5,486.5 L760.6,474.1 L760.8,481.5 L761.0,488.2 L761.2,476.6 L761.4,476.9 L761.6,473.8 L761.7,473.1 L761.9,473.4 L762.1,474.8 L762.3,470.9 L762.5,482.9 L762.7,479.8 L762.8,472.0 L763.0,473.8 L763.2,467.8 L763.4,477.3 L763.6,469.9 L763.8,463.9 L763.9,472.4 L764.1,467.8 L764.3,464.6 L764.5,466.4 L764.7,461.4 L764.9,466.0 L765.0,463.5 L765.2,465.6 L765.4,463.5 L765.6,468.1 L765.8,469.5 L766.0,465.6 L766.1,468.5 L766.3,467.4 L766.5,462.1 L766.7,468.1 L766.9,469.5 L767.1,466.4 L767.2,473.4 L767.4,467.8 L767.6,474.1 L767.8,475.5 L768.0,468.1 L768.2,472.0 L768.3,476.6 L768.5,471.3 L768.7,472.0 L768.9,468.1 L769.1,459.3 L769.3,462.8 L769.4,465.6 L769.6,472.0 L769.8,468.8 L770.0,468.5 L770.2,477.6 L770.4,468.1 L770.5,472.4 L770.7,469.9 L770.9,474.8 L771.1,469.9 L771.3,469.5 L771.5,470.2 L771.6,484.0 L771.8,480.8 L772.0,479.4 L772.2,483.3 L772.4,487.5 L772.5,484.0 L772.7,497.4 L772.9,494.6 L773.1,486.8 L773.3,496.4 L773.5,490.7 L773.6,502.4 L773.8,494.6 L774.0,494.6 L774.2,482.9 L774.4,481.2 L774.6,483.3 L774.7,486.1 L774.9,485.8 L775.1,482.9 L775.3,479.8 L775.5,480.8 L775.7,486.8 L775.8,497.4 L776.0,501.3 L776.2,493.2 L776.4,507.6 L776.6,491.1 L776.8,486.5 L776.9,509.4 L777.1,495.6 L777.3,494.6 L777.5,501.3 L777.7,500.6 L777.9,493.2 L778.0,491.4 L778.2,493.2 L778.4,490.4 L778.6,481.2 L778.8,477.6 L779.0,495.6 L779.1,490.0 L779.3,482.2 L779.5,480.5 L779.7,489.6 L779.9,482.9 L780.1,491.8 L780.2,477.6 L780.4,497.1 L780.6,493.5 L780.8,498.1 L781.0,518.9 L781.2,490.4 L781.3,482.9 L781.5,481.9 L781.7,486.1 L781.9,487.5 L782.1,478.7 L782.3,473.1 L782.4,476.2 L782.6,490.0 L782.8,494.9 L783.0,483.3 L783.2,476.6 L783.4,480.1 L783.5,498.8 L783.7,479.8 L783.9,486.1 L784.1,480.5 L784.3,480.8 L784.5,482.9 L784.6,476.6 L784.8,487.5 L785.0,491.1 L785.2,484.4 L785.4,479.4 L785.5,472.7 L785.7,475.2 L785.9,480.1 L786.1,476.6 L786.3,486.1 L786.5,479.1 L786.6,489.3 L786.8,480.5 L787.0,494.2 L787.2,474.1 L787.4,486.5 L787.6,487.2 L787.7,470.6 L787.9,481.2 L788.1,475.2 L788.3,473.1 L788.5,479.4 L788.7,484.7 L788.8,475.9 L789.0,479.4 L789.2,472.0 L789.4,473.1 L789.6,469.2 L789.8,467.8 L789.9,467.1 L790.1,470.9 L790.3,467.8 L790.5,464.9 L790.7,467.4 L790.9,468.5 L791.0,466.4 L791.2,474.1 L791.4,478.7 L791.6,472.7 L791.8,476.2 L792.0,473.8 L792.1,468.8 L792.3,467.8 L792.5,470.2 L792.7,470.9 L792.9,467.1 L793.1,468.5 L793.2,471.6 L793.4,471.6 L793.6,469.2 L793.8,471.3 L794.0,468.5 L794.2,470.2 L794.3,478.0 L794.5,468.8 L794.7,467.1 L794.9,463.5 L795.1,467.4 L795.3,469.9 L795.4,468.5 L795.6,471.6 L795.8,478.0 L796.0,477.6 L796.2,473.4 L796.4,476.2 L796.5,468.8 L796.7,479.4 L796.9,469.2 L797.1,478.7 L797.3,475.5 L797.5,471.6 L797.6,468.8 L797.8,478.7 L798.0,469.9 L798.2,476.6 L798.4,481.5 L798.5,473.4 L798.7,476.6 L798.9,475.9 L799.1,469.2 L799.3,472.4 L799.5,478.7 L799.6,474.1 L799.8,470.6 L800.0,474.8 L800.2,470.2 L800.4,464.9 L800.6,472.0 L800.7,470.6 L800.9,468.1 L801.1,469.2 L801.3,474.5 L801.5,466.4 L801.7,473.4 L801.8,466.7 L802.0,469.9 L802.2,478.0 L802.4,468.8 L802.6,477.6 L802.8,469.2 L802.9,471.3 L803.1,472.0 L803.3,476.9 L803.5,475.5 L803.7,475.2 L803.9,480.1 L804.0,469.9 L804.2,474.5 L804.4,472.7 L804.6,477.3 L804.8,479.4 L805.0,486.5 L805.1,481.9 L805.3,473.4 L805.5,470.6 L805.7,476.6 L805.9,480.1 L806.1,471.6 L806.2,472.7 L806.4,470.6 L806.6,479.1 L806.8,473.8 L807.0,468.8 L807.2,468.5 L807.3,469.5 L807.5,467.1 L807.7,469.9 L807.9,468.8 L808.1,472.7 L808.3,465.6 L808.4,475.5 L808.6,470.6 L808.8,468.8 L809.0,465.6 L809.2,468.5 L809.4,470.6 L809.5,469.2 L809.7,467.4 L809.9,466.4 L810.1,464.6 L810.3,463.5 L810.5,465.3 L810.6,464.2 L810.8,465.3 L811.0,467.1 L811.2,470.6 L811.4,471.3 L811.5,468.5 L811.7,467.4 L811.9,468.1 L812.1,465.6 L812.3,467.8 L812.5,464.9 L812.6,469.5 L812.8,467.8 L813.0,468.1 L813.2,469.5 L813.4,470.9 L813.6,478.4 L813.7,471.3 L813.9,471.3 L814.1,471.6 L814.3,470.9 L814.5,483.3 L814.7,475.2 L814.8,484.4 L815.0,480.8 L815.2,479.1 L815.4,482.6 L815.6,491.8 L815.8,479.1 L815.9,472.7 L816.1,482.9 L816.3,481.9 L816.5,475.2 L816.7,474.8 L816.9,470.2 L817.0,466.4 L817.2,473.1 L817.4,467.4 L817.6,472.4 L817.8,473.8 L818.0,471.6 L818.1,473.1 L818.3,467.8 L818.5,473.8 L818.7,472.4 L818.9,469.9 L819.1,470.6 L819.2,468.5 L819.4,473.1 L819.6,478.4 L819.8,468.8 L820.0,471.6 L820.2,473.1 L820.3,472.0 L820.5,475.2 L820.7,474.5 L820.9,485.4 L821.1,478.7 L821.3,481.9 L821.4,474.5 L821.6,475.2 L821.8,475.2 L822.0,473.8 L822.2,479.1 L822.4,491.8 L822.5,483.6 L822.7,488.2 L822.9,482.9 L823.1,473.8 L823.3,479.1 L823.5,476.2 L823.6,484.4 L823.8,476.2 L824.0,476.9 L824.2,471.3 L824.4,480.5 L824.5,491.8 L824.7,486.5 L824.9,476.6 L825.1,483.3 L825.3,475.2 L825.5,481.2 L825.6,484.7 L825.8,481.9 L826.0,470.9 L826.2,475.2 L826.4,469.5 L826.6,471.3 L826.7,470.9 L826.9,481.2 L827.1,473.8 L827.3,474.5 L827.5,475.2 L827.7,472.7 L827.8,483.3 L828.0,475.2 L828.2,471.6 L828.4,472.0 L828.6,479.1 L828.8,483.3 L828.9,471.3 L829.1,480.5 L829.3,481.9 L829.5,482.9 L829.7,487.5 L829.9,480.8 L830.0,475.2 L830.2,481.2 L830.4,486.8 L830.6,479.1 L830.8,485.4 L831.0,476.9 L831.1,473.4 L831.3,471.3 L831.5,478.4 L831.7,470.6 L831.9,470.2 L832.1,467.4 L832.2,470.9 L832.4,465.3 L832.6,469.2 L832.8,478.0 L833.0,470.9 L833.2,478.4 L833.3,476.6 L833.5,470.9 L833.7,468.8 L833.9,471.6 L834.1,471.6 L834.3,479.4 L834.4,471.3 L834.6,470.6 L834.8,468.5 L835.0,471.3 L835.2,475.2 L835.4,474.5 L835.5,477.3 L835.7,470.2 L835.9,493.2 L836.1,468.8 L836.3,470.6 L836.5,468.1 L836.6,479.1 L836.8,471.3 L837.0,477.6 L837.2,477.6 L837.4,476.6 L837.5,470.6 L837.7,471.3 L837.9,479.1 L838.1,472.0 L838.3,468.1 L838.5,471.3 L838.6,478.0 L838.8,468.5 L839.0,477.6 L839.2,480.1 L839.4,478.4 L839.6,468.5 L839.7,470.6 L839.9,473.8 L840.1,476.2 L840.3,478.7 L840.5,470.6 L840.7,474.5 L840.8,472.0 L841.0,466.7 L841.2,473.4 L841.4,467.8 L841.6,470.6 L841.8,468.5 L841.9,466.4 L842.1,470.6 L842.3,465.6 L842.5,468.1 L842.7,462.5 L842.9,470.9 L843.0,465.3 L843.2,468.8 L843.4,472.7 L843.6,478.4 L843.8,473.1 L844.0,469.5 L844.1,470.6 L844.3,470.6 L844.5,481.2 L844.7,470.2 L844.9,481.2 L845.1,479.8 L845.2,477.6 L845.4,478.4 L845.6,471.3 L845.8,472.0 L846.0,481.2 L846.2,475.5 L846.3,470.6 L846.5,472.0 L846.7,476.9 L846.9,471.3 L847.1,469.5 L847.3,476.9 L847.4,478.0 L847.6,470.2 L847.8,480.1 L848.0,470.2 L848.2,473.8 L848.4,469.9 L848.5,468.8 L848.7,466.0 L848.9,469.2 L849.1,466.7 L849.3,467.4 L849.5,464.2 L849.6,470.6 L849.8,464.6 L850.0,464.9 L850.2,457.2 L850.4,465.3 L850.5,458.2 L850.7,465.3 L850.9,459.6 L851.1,467.8 L851.3,466.4 L851.5,468.1 L851.6,468.5 L851.8,469.5 L852.0,471.6 L852.2,476.9 L852.4,474.8 L852.6,466.7 L852.7,468.8 L852.9,478.0 L853.1,470.9 L853.3,475.2 L853.5,472.7 L853.7,471.6 L853.8,471.3 L854.0,475.9 L854.2,473.1 L854.4,470.9 L854.6,474.5 L854.8,469.9 L854.9,475.5 L855.1,472.0 L855.3,480.5 L855.5,473.1 L855.7,472.4 L855.9,474.1 L856.0,477.6 L856.2,474.5 L856.4,471.3 L856.6,474.1 L856.8,471.3 L857.0,472.7 L857.1,472.7 L857.3,475.9 L857.5,475.5 L857.7,470.9 L857.9,474.1 L858.1,472.4 L858.2,470.2 L858.4,475.9 L858.6,483.6 L858.8,475.2 L859.0,472.4 L859.2,472.4 L859.3,471.6 L859.5,470.2 L859.7,469.5 L859.9,468.5 L860.1,470.6 L860.3,467.4 L860.4,473.8 L860.6,476.2 L860.8,469.5 L861.0,473.1 L861.2,468.1 L861.4,472.4 L861.5,476.6 L861.7,472.7 L861.9,470.6 L862.1,468.1 L862.3,469.2 L862.5,468.8 L862.6,467.1 L862.8,469.9 L863.0,469.2 L863.2,474.1 L863.4,474.8 L863.5,473.1 L863.7,477.6 L863.9,474.8 L864.1,467.1 L864.3,465.3 L864.5,468.5 L864.6,466.7 L864.8,469.5 L865.0,472.7 L865.2,470.9 L865.4,477.3 L865.6,473.4 L865.7,469.5 L865.9,480.8 L866.1,470.2 L866.3,468.5 L866.5,468.1 L866.7,470.2 L866.8,471.3 L867.0,469.2 L867.2,468.5 L867.4,474.5 L867.6,481.5 L867.8,485.4 L867.9,471.6 L868.1,483.3 L868.3,481.2 L868.5,474.8 L868.7,474.5 L868.9,474.5 L869.0,472.0 L869.2,470.6 L869.4,465.6 L869.6,473.4 L869.8,465.3 L870.0,470.2 L870.1,469.2 L870.3,470.9 L870.5,468.8 L870.7,465.3 L870.9,465.6 L871.1,467.4 L871.2,463.5 L871.4,467.8 L871.6,463.5 L871.8,461.1 L872.0,461.8 L872.2,459.6 L872.3,464.6 L872.5,460.7 L872.7,466.0 L872.9,466.4 L873.1,466.4 L873.3,461.8 L873.4,464.9 L873.6,459.6 L873.8,468.8 L874.0,464.6 L874.2,470.9 L874.4,472.4 L874.5,476.6 L874.7,473.4 L874.9,468.1 L875.1,471.6 L875.3,479.4 L875.5,473.4 L875.6,464.9 L875.8,468.5 L876.0,465.6 L876.2,469.5 L876.4,472.4 L876.5,467.1 L876.7,472.0 L876.9,467.1 L877.1,468.8 L877.3,469.5 L877.5,467.8 L877.6,474.8 L877.8,477.6 L878.0,468.8 L878.2,472.4 L878.4,482.6 L878.6,474.8 L878.7,484.0 L878.9,479.8 L879.1,476.9 L879.3,471.3 L879.5,473.1 L879.7,473.4 L879.8,479.8 L880.0,468.1 L880.2,474.5 L880.4,478.0 L880.6,473.4 L880.8,473.8 L880.9,470.6 L881.1,475.5 L881.3,472.4 L881.5,474.1 L881.7,476.9 L881.9,471.6 L882.0,471.3 L882.2,473.4 L882.4,473.4 L882.6,481.5 L882.8,476.9 L883.0,480.8 L883.1,479.4 L883.3,468.1 L883.5,469.9 L883.7,479.4 L883.9,470.6 L884.1,475.5 L884.2,469.2 L884.4,469.9 L884.6,464.9 L884.8,471.6 L885.0,464.2 L885.2,471.6 L885.3,468.1 L885.5,466.0 L885.7,467.8 L885.9,467.8 L886.1,468.5 L886.3,463.9 L886.4,471.6 L886.6,476.6 L886.8,468.1 L887.0,473.1 L887.2,475.2 L887.4,475.2 L887.5,470.6 L887.7,474.8 L887.9,471.6 L888.1,473.1 L888.3,465.3 L888.5,461.4 L888.6,467.4 L888.8,460.4 L889.0,468.5 L889.2,463.2 L889.4,469.9 L889.5,464.2 L889.7,466.0 L889.9,464.6 L890.1,462.5 L890.3,466.0 L890.5,462.5 L890.6,464.6 L890.8,437.4 L891.0,459.6 L891.2,456.1 L891.4,461.8 L891.6,464.6 L891.7,452.6 L891.9,463.5 L892.1,462.8 L892.3,461.1 L892.5,460.4 L892.7,464.2 L892.8,463.2 L893.0,451.5 L893.2,464.2 L893.4,453.6 L893.6,461.4 L893.8,455.8 L893.9,458.9 L894.1,464.2 L894.3,460.7 L894.5,458.9 L894.7,465.3 L894.9,463.5 L895.0,462.8 L895.2,463.9 L895.4,457.9 L895.6,460.4 L895.8,461.8 L896.0,464.9 L896.1,461.8 L896.3,463.9 L896.5,455.1 L896.7,466.7 L896.9,469.2 L897.1,462.5 L897.2,460.7 L897.4,466.4 L897.6,461.8 L897.8,469.2 L898.0,460.4 L898.2,460.4 L898.3,461.8 L898.5,462.1 L898.7,462.1 L898.9,468.5 L899.1,467.1 L899.3,467.4 L899.4,468.5 L899.6,467.8 L899.8,472.0 L900.0,465.3 L900.2,470.6 L900.4,467.8 L900.5,468.1 L900.7,473.8 L900.9,469.5 L901.1,471.6 L901.3,472.0 L901.5,467.4 L901.6,472.0 L901.8,468.8 L902.0,474.8 L902.2,472.0 L902.4,466.4 L902.5,469.9 L902.7,466.7 L902.9,458.2 L903.1,458.6 L903.3,460.0 L903.5,467.4 L903.6,468.5 L903.8,465.6 L904.0,468.1 L904.2,463.9 L904.4,469.5 L904.6,470.6 L904.7,469.5 L904.9,468.1 L905.1,468.8 L905.3,470.9 L905.5,479.1 L905.7,469.2 L905.8,478.7 L906.0,468.1 L906.2,470.6 L906.4,463.9 L906.6,463.9 L906.8,467.4 L906.9,464.9 L907.1,464.9 L907.3,466.7 L907.5,462.8 L907.7,456.5 L907.9,464.9 L908.0,463.5 L908.2,462.8 L908.4,456.1 L908.6,453.6 L908.8,466.4 L909.0,463.5 L909.1,450.5 L909.3,454.7 L909.5,461.4 L909.7,456.1 L909.9,453.6 L910.1,460.0 L910.2,465.6 L910.4,463.9 L910.6,464.9 L910.8,457.2 L911.0,463.9 L911.2,464.6 L911.3,466.0 L911.5,462.1 L911.7,463.2 L911.9,467.1 L912.1,469.2 L912.3,462.5 L912.4,468.8 L912.6,461.4 L912.8,466.0 L913.0,464.9 L913.2,468.5 L913.4,459.3 L913.5,461.8 L913.7,463.9 L913.9,458.2 L914.1,463.5 L914.3,462.5 L914.5,451.2 L914.6,460.0 L914.8,460.7 L915.0,453.3 L915.2,459.6 L915.4,453.6 L915.5,463.9 L915.7,463.5 L915.9,461.8 L916.1,467.4 L916.3,460.0 L916.5,463.9 L916.6,470.9 L916.8,468.5 L917.0,460.4 L917.2,468.1 L917.4,471.6 L917.6,468.8 L917.7,464.2 L917.9,465.3 L918.1,460.0 L918.3,462.1 L918.5,469.5 L918.7,468.1 L918.8,473.1 L919.0,466.0 L919.2,463.9 L919.4,461.1 L919.6,464.9 L919.8,456.1 L919.9,465.3 L920.1,457.5 L920.3,468.5 L920.5,469.9 L920.7,466.4 L920.9,467.8 L921.0,467.4 L921.2,467.1 L921.4,467.4 L921.6,466.0 L921.8,460.7 L922.0,467.4 L922.1,467.4 L922.3,466.4 L922.5,468.5 L922.7,462.8 L922.9,462.1 L923.1,467.4 L923.2,467.4 L923.4,475.5 L923.6,478.0 L923.8,479.4 L924.0,484.7 L924.2,491.8 L924.3,490.4 L924.5,478.0 L924.7,498.8 L924.9,480.5 L925.1,485.8 L925.3,504.5 L925.4,500.2 L925.6,488.6 L925.8,499.5 L926.0,502.4 L926.2,482.9 L926.4,482.9 L926.5,507.3 L926.7,513.6 L926.9,485.8 L927.1,502.0 L927.3,509.1 L927.5,509.8 L927.6,508.0 L927.8,519.6 L928.0,485.8 L928.2,493.5 L928.4,488.6 L928.5,487.5 L928.7,494.6 L928.9,490.4 L929.1,497.4 L929.3,496.0 L929.5,508.7 L929.6,487.9 L929.8,521.1 L930.0,526.7 L930.2,500.6 L930.4,499.5 L930.6,488.2 L930.7,498.8 L930.9,524.6 L931.1,487.9 L931.3,498.1 L931.5,527.4 L931.7,518.6 L931.8,488.2 L932.0,498.8 L932.2,490.7 L932.4,512.9 L932.6,510.1 L932.8,493.2 L932.9,516.5 L933.1,513.6 L933.3,508.4 L933.5,513.3 L933.7,526.7 L933.9,500.6 L934.0,495.6 L934.2,521.8 L934.4,495.6 L934.6,523.9 L934.8,490.7 L935.0,521.4 L935.1,511.9 L935.3,503.1 L935.5,498.5 L935.7,486.1 L935.9,517.2 L936.1,493.2 L936.2,496.0 L936.4,506.9 L936.6,505.9 L936.8,524.2 L937.0,516.1 L937.2,499.9 L937.3,525.6 L937.5,517.5 L937.7,519.3 L937.9,488.2 L938.1,503.1 L938.3,524.9 L938.4,511.5 L938.6,501.6 L938.8,524.6 L939.0,513.3 L939.2,499.5 L939.4,520.0 L939.5,485.1 L939.7,517.9 L939.9,514.4 L940.1,482.9 L940.3,492.1 L940.5,522.1 L940.6,491.1 L940.8,516.5 L941.0,494.2 L941.2,500.6 L941.4,483.6 L941.5,487.9 L941.7,517.9 L941.9,497.1 L942.1,505.9 L942.3,497.1 L942.5,489.6 L942.6,490.0 L942.8,505.2 L943.0,518.6 L943.2,493.5 L943.4,518.2 L943.6,494.6 L943.7,487.2 L943.9,490.7 L944.1,488.2 L944.3,503.1 L944.5,503.1 L944.7,514.7 L944.8,494.9 L945.0,494.2 L945.2,508.4 L945.4,499.9 L945.6,544.0 L945.8,518.2 L945.9,521.8 L946.1,492.5 L946.3,517.9 L946.5,506.2 L946.7,497.8 L946.9,491.8 L947.0,522.1 L947.2,490.7 L947.4,494.2 L947.6,513.6 L947.8,505.5 L948.0,506.6 L948.1,502.0 L948.3,491.1 L948.5,500.9 L948.7,530.6 L948.9,514.7 L949.1,488.9 L949.2,498.1 L949.4,504.5 L949.6,510.5 L949.8,511.9 L950.0,499.2 L950.2,522.8 L950.3,511.5 L950.5,519.3 L950.7,507.6 L950.9,493.2 L951.1,517.9 L951.3,501.6 L951.4,517.2 L951.6,489.3 L951.8,484.0 L952.0,484.4 L952.2,498.5 L952.4,510.5 L952.5,494.6 L952.7,500.6 L952.9,482.9 L953.1,502.0 L953.3,484.0 L953.5,509.1 L953.6,490.4 L953.8,483.3 L954.0,476.6 L954.2,488.9 L954.4,496.0 L954.5,496.4 L954.7,502.0 L954.9,492.8 L955.1,489.3 L955.3,498.1 L955.5,497.1 L955.6,503.1 L955.8,505.5 L956.0,485.4 L956.2,481.2 L956.4,496.4 L956.6,482.6 L956.7,488.9 L956.9,486.8 L957.1,486.5 L957.3,497.4 L957.5,478.0 L957.7,499.2 L957.8,497.8 L958.0,504.1 L958.2,499.9 L958.4,481.9 L958.6,479.1 L958.8,485.4 L958.9,488.2 L959.1,499.2 L959.3,500.9 L959.5,484.4 L959.7,496.4 L959.9,493.5 L960.0,506.6 L960.2,512.2 L960.4,508.0 L960.6,484.7 L960.8,482.9 L961.0,510.1 L961.1,501.6 L961.3,493.2 L961.5,489.6 L961.7,481.9 L961.9,496.0 L962.1,476.9 L962.2,497.8 L962.4,497.1 L962.6,478.4 L962.8,490.7 L963.0,476.9 L963.2,480.8 L963.3,482.6 L963.5,479.4 L963.7,490.7 L963.9,496.7 L964.1,500.9 L964.3,488.6 L964.4,506.9 L964.6,497.4 L964.8,493.5 L965.0,491.1 L965.2,495.6 L965.4,482.9 L965.5,505.5 L965.7,479.4 L965.9,485.4 L966.1,510.8 L966.3,500.9 L966.5,507.3 L966.6,491.8 L966.8,512.6 L967.0,501.6 L967.2,502.0 L967.4,495.6 L967.5,480.1 L967.7,483.6 L967.9,490.7 L968.1,496.4 L968.3,486.1 L968.5,491.4 L968.6,501.3 L968.8,506.6 L969.0,491.1 L969.2,484.4 L969.4,505.5 L969.6,499.5 L969.7,474.8 L969.9,484.7 L970.1,493.2 L970.3,479.4 L970.5,478.7 L970.7,479.4 L970.8,474.8 L971.0,481.2 L971.2,496.0 L971.4,500.9 L971.6,479.8 L971.8,497.8 L971.9,491.4 L972.1,494.6 L972.3,480.1 L972.5,495.3 L972.7,483.6 L972.9,477.6 L973.0,483.3 L973.2,483.6 L973.4,487.5 L973.6,481.9 L973.8,495.3 L974.0,494.2 L974.1,486.5 L974.3,483.6 L974.5,492.5 L974.7,487.5 L974.9,482.9 L975.1,499.5 L975.2,487.9 L975.4,490.0 L975.6,498.5 L975.8,478.0 L976.0,476.9 L976.2,481.2 L976.3,480.1 L976.5,469.5 L976.7,472.7 L976.9,488.6 L977.1,486.8 L977.3,492.5 L977.4,487.2 L977.6,478.7 L977.8,488.2 L978.0,475.9 L978.2,481.5 L978.4,485.8 L978.5,476.6 L978.7,484.7 L978.9,480.8 L979.1,487.9 L979.3,494.6 L979.5,504.5 L979.6,494.2 L979.8,490.7 L980.0,477.6 L980.2,487.9 L980.4,481.9 L980.5,484.0 L980.7,473.4 L980.9,479.8 L981.1,473.8 L981.3,479.4 L981.5,487.5 L981.6,471.3 L981.8,484.4 L982.0,481.9 L982.2,475.2 L982.4,488.2 L982.6,479.4 L982.7,472.7 L982.9,470.2 L983.1,479.8 L983.3,484.4 L983.5,473.8 L983.7,478.4 L983.8,485.8 L984.0,479.8 L984.2,481.9 L984.4,488.6 L984.6,481.9 L984.8,473.8 L984.9,485.1 L985.1,486.1 L985.3,480.5 L985.5,492.8 L985.7,478.0 L985.9,484.0 L986.0,492.1 L986.2,475.5 L986.4,488.6 L986.6,476.2 L986.8,481.2 L987.0,476.9 L987.1,483.3 L987.3,491.1 L987.5,490.4 L987.7,491.4 L987.9,494.2 L988.1,490.4 L988.2,483.3 L988.4,482.2 L988.6,496.7 L988.8,505.5 L989.0,486.1 L989.2,504.1 L989.3,487.5 L989.5,503.4 L989.7,495.6 L989.9,509.8 L990.1,487.5 L990.3,492.8 L990.4,488.2 L990.6,495.6 L990.8,491.1 L991.0,490.0 L991.2,481.9 L991.4,486.8 L991.5,484.0 L991.7,478.4 L991.9,478.7 L992.1,483.3 L992.3,472.4 L992.5,469.2 L992.6,471.3 L992.8,474.5 L993.0,481.5 L993.2,473.1 L993.4,479.1 L993.5,477.3 L993.7,485.1 L993.9,478.7 L994.1,474.1 L994.3,482.9 L994.5,475.5 L994.6,476.9 L994.8,481.2 L995.0,483.6 L995.2,479.8 L995.4,482.2 L995.6,475.9 L995.7,487.5 L995.9,480.8 L996.1,485.1 L996.3,494.9 L996.5,478.0 L996.7,481.9 L996.8,480.5 L997.0,483.3 L997.2,502.7 L997.4,492.5 L997.6,479.1 L997.8,493.2 L997.9,491.8 L998.1,481.2 L998.3,487.5 L998.5,481.9 L998.7,476.2 L998.9,487.5 L999.0,490.4 L999.2,482.6 L999.4,479.8 L999.6,485.4 L999.8,482.2 L1000.0,485.1 L1000.1,484.4 L1000.3,493.5 L1000.5,507.3 L1000.7,487.9 L1000.9,516.8 L1001.1,493.9 L1001.2,493.9 L1001.4,506.9 L1001.6,496.0 L1001.8,506.9 L1002.0,486.8 L1002.2,491.1 L1002.3,502.4 L1002.5,487.2 L1002.7,496.7 L1002.9,482.9 L1003.1,480.1 L1003.3,497.4 L1003.4,490.4 L1003.6,497.1 L1003.8,498.1 L1004.0,501.3 L1004.2,492.1 L1004.4,510.5 L1004.5,504.5 L1004.7,490.7 L1004.9,492.1 L1005.1,502.4 L1005.3,515.8 L1005.5,508.0 L1005.6,505.5 L1005.8,484.7 L1006.0,502.4 L1006.2,505.2 L1006.4,497.4 L1006.5,514.0 L1006.7,510.8 L1006.9,490.0 L1007.1,490.4 L1007.3,500.9 L1007.5,506.6 L1007.6,494.2 L1007.8,482.9 L1008.0,500.2 L1008.2,493.9 L1008.4,507.3 L1008.6,493.5 L1008.7,489.6 L1008.9,507.3 L1009.1,493.5 L1009.3,486.1 L1009.5,508.4 L1009.7,490.7 L1009.8,512.9 L1010.0,493.9 L1010.2,505.2 L1010.4,479.4 L1010.6,498.8 L1010.8,486.1 L1010.9,479.8 L1011.1,495.6 L1011.3,494.2 L1011.5,485.4 L1011.7,493.5 L1011.9,483.6 L1012.0,499.5 L1012.2,486.8 L1012.4,500.2 L1012.6,482.6 L1012.8,494.2 L1013.0,502.0 L1013.1,500.6 L1013.3,504.8 L1013.5,485.4 L1013.7,489.6 L1013.9,517.9 L1014.1,506.9 L1014.2,487.9 L1014.4,483.3 L1014.6,498.5 L1014.8,505.5 L1015.0,519.6 L1015.2,496.4 L1015.3,490.7 L1015.5,512.2 L1015.7,483.6 L1015.9,515.8 L1016.1,491.8 L1016.3,483.6 L1016.4,489.6 L1016.6,508.4 L1016.8,480.8 L1017.0,494.2 L1017.2,512.6 L1017.4,488.9 L1017.5,493.9 L1017.7,481.2 L1017.9,499.5 L1018.1,497.4 L1018.3,486.8 L1018.5,491.8 L1018.6,511.2 L1018.8,497.1 L1019.0,490.0 L1019.2,496.4 L1019.4,499.5 L1019.5,488.9 L1019.7,491.1 L1019.9,492.8 L1020.1,481.2 L1020.3,470.9 L1020.5,469.9 L1020.6,480.8 L1020.8,476.6 L1021.0,477.3 L1021.2,467.8 L1021.4,472.4 L1021.6,471.3 L1021.7,465.6 L1021.9,459.6 L1022.1,456.8 L1022.3,464.6 L1022.5,468.1 L1022.7,470.2 L1022.8,467.1 L1023.0,472.7 L1023.2,465.3 L1023.4,465.3 L1023.6,466.0 L1023.8,468.5 L1023.9,469.2 L1024.1,464.2 L1024.3,463.9 L1024.5,460.4 L1024.7,463.9 L1024.9,467.1 L1025.0,459.3 L1025.2,461.1 L1025.4,452.9 L1025.6,454.0 L1025.8,460.7 L1026.0,465.6 L1026.1,462.5 L1026.3,457.9 L1026.5,458.6 L1026.7,460.4 L1026.9,457.9 L1027.1,457.2 L1027.2,448.7 L1027.4,446.9 L1027.6,461.8 L1027.8,449.4 L1028.0,449.4 L1028.2,456.1 L1028.3,445.9 L1028.5,452.9 L1028.7,450.5 L1028.9,454.4 L1029.1,452.6 L1029.3,454.0 L1029.4,454.0 L1029.6,459.6 L1029.8,466.4 L1030.0,464.2 L1030.2,464.9 L1030.4,462.1 L1030.5,456.1 L1030.7,457.5 L1030.9,459.6 L1031.1,468.1 L1031.3,457.9 L1031.5,460.4 L1031.6,463.9 L1031.8,453.3 L1032.0,460.0 L1032.2,455.4 L1032.4,448.7 L1032.5,460.0 L1032.7,456.8 L1032.9,457.5 L1033.1,451.9 L1033.3,455.4 L1033.5,462.8 L1033.6,445.9 L1033.8,457.2 L1034.0,451.9 L1034.2,439.5 L1034.4,448.0 L1034.6,455.1 L1034.7,455.4 L1034.9,434.9 L1035.1,442.7 L1035.3,432.5 L1035.5,445.2 L1035.7,447.6 L1035.8,445.2 L1036.0,459.6 L1036.2,460.4 L1036.4,458.6 L1036.6,449.8 L1036.8,442.7 L1036.9,443.8 L1037.1,458.9 L1037.3,440.9 L1037.5,460.7 L1037.7,457.9 L1037.9,444.1 L1038.0,445.2 L1038.2,461.8 L1038.4,461.1 L1038.6,453.3 L1038.8,456.8 L1039.0,463.2 L1039.1,463.5 L1039.3,462.5 L1039.5,463.5 L1039.7,462.1 L1039.9,468.8 L1040.1,469.5 L1040.2,468.5 L1040.4,465.3 L1040.6,455.1 L1040.8,461.1 L1041.0,461.1 L1041.2,458.6 L1041.3,460.0 L1041.5,464.2 L1041.7,466.7 L1041.9,454.7 L1042.1,462.5 L1042.3,457.9 L1042.4,466.7 L1042.6,458.6 L1042.8,457.5 L1043.0,459.3 L1043.2,460.7 L1043.4,454.7 L1043.5,461.8 L1043.7,451.9 L1043.9,454.4 L1044.1,459.3 L1044.3,457.2 L1044.5,434.6 L1044.6,458.9 L1044.8,433.5 L1045.0,451.5 L1045.2,451.9 L1045.4,445.2 L1045.5,452.9 L1045.7,450.8 L1045.9,444.8 L1046.1,444.5 L1046.3,451.2 L1046.5,453.6 L1046.6,440.9 L1046.8,444.1 L1047.0,450.1 L1047.2,434.6 L1047.4,430.4 L1047.6,456.5 L1047.7,451.9 L1047.9,458.6 L1048.1,438.5 L1048.3,449.1 L1048.5,445.5 L1048.7,446.2 L1048.8,444.8 L1049.0,444.1 L1049.2,446.6 L1049.4,453.3 L1049.6,449.1 L1049.8,445.9 L1049.9,451.5 L1050.1,444.8 L1050.3,454.7 L1050.5,442.0 L1050.7,448.7 L1050.9,438.1 L1051.0,456.5 L1051.2,445.5 L1051.4,450.5 L1051.6,450.8 L1051.8,447.3 L1052.0,452.9 L1052.1,448.0 L1052.3,461.8 L1052.5,452.9 L1052.7,445.9 L1052.9,457.2 L1053.1,440.9 L1053.2,443.4 L1053.4,442.4 L1053.6,449.8 L1053.8,461.4 L1054.0,451.9 L1054.2,458.6 L1054.3,442.0 L1054.5,453.6 L1054.7,450.1 L1054.9,452.2 L1055.1,448.7 L1055.3,450.5 L1055.4,440.6 L1055.6,439.2 L1055.8,427.5 L1056.0,456.8 L1056.2,443.8 L1056.4,446.2 L1056.5,438.1 L1056.7,452.6 L1056.9,445.9 L1057.1,444.5 L1057.3,448.0 L1057.5,449.1 L1057.6,456.5 L1057.8,452.2 L1058.0,456.5 L1058.2,461.8 L1058.4,457.9 L1058.5,456.8 L1058.7,463.9 L1058.9,464.9 L1059.1,449.1 L1059.3,456.1 L1059.5,455.8 L1059.6,448.0 L1059.8,450.5 L1060.0,460.7 L1060.2,449.8 L1060.4,444.1 L1060.6,445.2 L1060.7,455.8 L1060.9,456.8 L1061.1,451.2 L1061.3,442.7 L1061.5,441.3 L1061.7,451.5 L1061.8,456.1 L1062.0,455.1 L1062.2,451.2 L1062.4,465.6 L1062.6,460.4 L1062.8,462.8 L1062.9,454.7 L1063.1,456.5 L1063.3,451.2 L1063.5,450.5 L1063.7,452.6 L1063.9,454.7 L1064.0,450.5 L1064.2,443.8 L1064.4,428.6 L1064.6,451.9 L1064.8,453.6 L1065.0,456.1 L1065.1,442.0 L1065.3,451.9 L1065.5,449.4 L1065.7,445.5 L1065.9,437.4 L1066.1,439.5 L1066.2,436.7 L1066.4,440.9 L1066.6,436.0 L1066.8,421.2 L1067.0,444.8 L1067.2,451.2 L1067.3,433.9 L1067.5,442.4 L1067.7,431.1 L1067.9,426.1 L1068.1,426.5 L1068.3,429.3 L1068.4,428.9 L1068.6,435.3 L1068.8,452.9 L1069.0,424.0 L1069.2,435.3 L1069.4,445.9 L1069.5,434.6 L1069.7,441.3 L1069.9,455.8 L1070.1,455.4 L1070.3,454.7 L1070.5,439.5 L1070.6,431.1 L1070.8,446.2 L1071.0,455.1 L1071.2,429.3 L1071.4,454.4 L1071.5,456.5 L1071.7,453.3 L1071.9,434.2 L1072.1,449.4 L1072.3,430.4 L1072.5,435.6 L1072.6,450.1 L1072.8,442.7 L1073.0,446.6 L1073.2,442.0 L1073.4,444.8 L1073.6,448.4 L1073.7,456.1 L1073.9,452.2 L1074.1,448.4 L1074.3,462.8 L1074.5,455.1 L1074.7,451.5 L1074.8,456.1 L1075.0,452.2 L1075.2,458.2 L1075.4,463.2 L1075.6,463.5 L1075.8,467.1 L1075.9,461.1 L1076.1,463.2 L1076.3,468.5 L1076.5,463.9 L1076.7,463.2 L1076.9,466.4 L1077.0,461.4 L1077.2,461.8 L1077.4,462.8 L1077.6,454.4 L1077.8,455.8 L1078.0,459.6 L1078.1,452.2 L1078.3,445.9 L1078.5,450.8 L1078.7,455.4 L1078.9,447.3 L1079.1,456.5 L1079.2,439.9 L1079.4,456.1 L1079.6,443.1 L1079.8,462.1 L1080.0,454.0 L1080.2,453.3 L1080.3,459.6 L1080.5,440.6 L1080.7,443.4 L1080.9,450.5 L1081.1,453.6 L1081.3,437.4 L1081.4,448.4 L1081.6,458.9 L1081.8,457.2 L1082.0,450.8 L1082.2,446.9 L1082.4,442.4 L1082.5,461.4 L1082.7,458.6 L1082.9,449.4 L1083.1,462.8 L1083.3,450.1 L1083.5,456.1 L1083.6,454.0 L1083.8,455.8 L1084.0,464.6" fill="none" stroke="#ff7f0e" stroke-width="1.1" opacity="0.85"/><text x="616" y="572" font-size="11" fill="#888">time 0..51 s — altitude (blue) &amp; roll (orange)</text></svg>