solid Mesh
  facet normal 0 0 -1
    outer loop
      vertex 14.4448 1.26376 -57
      vertex 14.4862 0.632481 -57
      vertex 0 8.87869e-16 -57
    endloop
  endfacet
  facet normal 0 0 -1
    outer loop
      vertex 14.4862 0.632481 -57
      vertex 14.5 2.66361e-15 -57
      vertex 0 8.87869e-16 -57
    endloop
  endfacet
  facet normal 0 0 -1
    outer loop
      vertex 0 8.87869e-16 -57
      vertex 14.5 2.66361e-15 -57
      vertex 14.4862 -0.632481 -57
    endloop
  endfacet
  facet normal 0 0 -1
    outer loop
      vertex 14.1563 3.13837 -57
      vertex 14.2797 2.5179 -57
      vertex 0 8.87869e-16 -57
    endloop
  endfacet
  facet normal 0 0 -1
    outer loop
      vertex 14.2797 2.5179 -57
      vertex 14.376 1.89263 -57
      vertex 0 8.87869e-16 -57
    endloop
  endfacet
  facet normal 0 0 -1
    outer loop
      vertex 0 8.87869e-16 -57
      vertex 14.376 1.89263 -57
      vertex 14.4448 1.26376 -57
    endloop
  endfacet
  facet normal 0 0 -1
    outer loop
      vertex 13.6255 4.95929 -57
      vertex 13.8289 4.36023 -57
      vertex 0 8.87869e-16 -57
    endloop
  endfacet
  facet normal 0 0 -1
    outer loop
      vertex 13.8289 4.36023 -57
      vertex 14.0059 3.75288 -57
      vertex 0 8.87869e-16 -57
    endloop
  endfacet
  facet normal 0 0 -1
    outer loop
      vertex 0 8.87869e-16 -57
      vertex 14.0059 3.75288 -57
      vertex 14.1563 3.13837 -57
    endloop
  endfacet
  facet normal 0 0 -1
    outer loop
      vertex 12.8617 6.69535 -57
      vertex 13.1415 6.12796 -57
      vertex 0 8.87869e-16 -57
    endloop
  endfacet
  facet normal 0 0 -1
    outer loop
      vertex 13.1415 6.12796 -57
      vertex 13.3963 5.54891 -57
      vertex 0 8.87869e-16 -57
    endloop
  endfacet
  facet normal 0 0 -1
    outer loop
      vertex 0 8.87869e-16 -57
      vertex 13.3963 5.54891 -57
      vertex 13.6255 4.95929 -57
    endloop
  endfacet
  facet normal 0 0 -1
    outer loop
      vertex 11.8777 8.31686 -57
      vertex 12.2292 7.79084 -57
      vertex 0 8.87869e-16 -57
    endloop
  endfacet
  facet normal 0 0 -1
    outer loop
      vertex 12.2292 7.79084 -57
      vertex 12.5574 7.25 -57
      vertex 0 8.87869e-16 -57
    endloop
  endfacet
  facet normal 0 0 -1
    outer loop
      vertex 0 8.87869e-16 -57
      vertex 12.5574 7.25 -57
      vertex 12.8617 6.69535 -57
    endloop
  endfacet
  facet normal 0 0 -1
    outer loop
      vertex 10.6905 9.79606 -57
      vertex 11.1076 9.32042 -57
      vertex 0 8.87869e-16 -57
    endloop
  endfacet
  facet normal 0 0 -1
    outer loop
      vertex 11.1076 9.32042 -57
      vertex 11.5036 8.82704 -57
      vertex 0 8.87869e-16 -57
    endloop
  endfacet
  facet normal 0 0 -1
    outer loop
      vertex 0 8.87869e-16 -57
      vertex 11.5036 8.82704 -57
      vertex 11.8777 8.31686 -57
    endloop
  endfacet
  facet normal 0 0 -1
    outer loop
      vertex 9.32042 11.1076 -57
      vertex 9.79606 10.6905 -57
      vertex 0 8.87869e-16 -57
    endloop
  endfacet
  facet normal 0 0 -1
    outer loop
      vertex 9.79606 10.6905 -57
      vertex 10.253 10.253 -57
      vertex 0 8.87869e-16 -57
    endloop
  endfacet
  facet normal 0 0 -1
    outer loop
      vertex 0 8.87869e-16 -57
      vertex 10.253 10.253 -57
      vertex 10.6905 9.79606 -57
    endloop
  endfacet
  facet normal 0 0 -1
    outer loop
      vertex 7.79084 12.2292 -57
      vertex 8.31686 11.8777 -57
      vertex 0 8.87869e-16 -57
    endloop
  endfacet
  facet normal 0 0 -1
    outer loop
      vertex 8.31686 11.8777 -57
      vertex 8.82704 11.5036 -57
      vertex 0 8.87869e-16 -57
    endloop
  endfacet
  facet normal 0 0 -1
    outer loop
      vertex 0 8.87869e-16 -57
      vertex 8.82704 11.5036 -57
      vertex 9.32042 11.1076 -57
    endloop
  endfacet
  facet normal 0 0 -1
    outer loop
      vertex 6.12796 13.1415 -57
      vertex 6.69535 12.8617 -57
      vertex 0 8.87869e-16 -57
    endloop
  endfacet
  facet normal 0 0 -1
    outer loop
      vertex 6.69535 12.8617 -57
      vertex 7.25 12.5574 -57
      vertex 0 8.87869e-16 -57
    endloop
  endfacet
  facet normal 0 0 -1
    outer loop
      vertex 0 8.87869e-16 -57
      vertex 7.25 12.5574 -57
      vertex 7.79084 12.2292 -57
    endloop
  endfacet
  facet normal 0 0 -1
    outer loop
      vertex 4.36023 13.8289 -57
      vertex 4.95929 13.6255 -57
      vertex 0 8.87869e-16 -57
    endloop
  endfacet
  facet normal 0 0 -1
    outer loop
      vertex 4.95929 13.6255 -57
      vertex 5.54891 13.3963 -57
      vertex 0 8.87869e-16 -57
    endloop
  endfacet
  facet normal 0 0 -1
    outer loop
      vertex 0 8.87869e-16 -57
      vertex 5.54891 13.3963 -57
      vertex 6.12796 13.1415 -57
    endloop
  endfacet
  facet normal 0 0 -1
    outer loop
      vertex 2.5179 14.2797 -57
      vertex 3.13837 14.1563 -57
      vertex 0 8.87869e-16 -57
    endloop
  endfacet
  facet normal 0 0 -1
    outer loop
      vertex 3.13837 14.1563 -57
      vertex 3.75288 14.0059 -57
      vertex 0 8.87869e-16 -57
    endloop
  endfacet
  facet normal 0 0 -1
    outer loop
      vertex 0 8.87869e-16 -57
      vertex 3.75288 14.0059 -57
      vertex 4.36023 13.8289 -57
    endloop
  endfacet
  facet normal 0 0 -1
    outer loop
      vertex 0.632481 14.4862 -57
      vertex 1.26376 14.4448 -57
      vertex 0 8.87869e-16 -57
    endloop
  endfacet
  facet normal 0 0 -1
    outer loop
      vertex 1.26376 14.4448 -57
      vertex 1.89263 14.376 -57
      vertex 0 8.87869e-16 -57
    endloop
  endfacet
  facet normal 0 0 -1
    outer loop
      vertex 0 8.87869e-16 -57
      vertex 1.89263 14.376 -57
      vertex 2.5179 14.2797 -57
    endloop
  endfacet
  facet normal 0 0 -1
    outer loop
      vertex -1.26376 14.4448 -57
      vertex -0.632481 14.4862 -57
      vertex 0 8.87869e-16 -57
    endloop
  endfacet
  facet normal 0 0 -1
    outer loop
      vertex -0.632481 14.4862 -57
      vertex -8.87869e-16 14.5 -57
      vertex 0 8.87869e-16 -57
    endloop
  endfacet
  facet normal 0 0 -1
    outer loop
      vertex 0 8.87869e-16 -57
      vertex -8.87869e-16 14.5 -57
      vertex 0.632481 14.4862 -57
    endloop
  endfacet
  facet normal 0 0 -1
    outer loop
      vertex -3.13837 14.1563 -57
      vertex -2.5179 14.2797 -57
      vertex 0 8.87869e-16 -57
    endloop
  endfacet
  facet normal 0 0 -1
    outer loop
      vertex -2.5179 14.2797 -57
      vertex -1.89263 14.376 -57
      vertex 0 8.87869e-16 -57
    endloop
  endfacet
  facet normal 0 0 -1
    outer loop
      vertex 0 8.87869e-16 -57
      vertex -1.89263 14.376 -57
      vertex -1.26376 14.4448 -57
    endloop
  endfacet
  facet normal 0 0 -1
    outer loop
      vertex -4.95929 13.6255 -57
      vertex -4.36023 13.8289 -57
      vertex 0 8.87869e-16 -57
    endloop
  endfacet
  facet normal 0 0 -1
    outer loop
      vertex -4.36023 13.8289 -57
      vertex -3.75288 14.0059 -57
      vertex 0 8.87869e-16 -57
    endloop
  endfacet
  facet normal 0 0 -1
    outer loop
      vertex 0 8.87869e-16 -57
      vertex -3.75288 14.0059 -57
      vertex -3.13837 14.1563 -57
    endloop
  endfacet
  facet normal 0 0 -1
    outer loop
      vertex -6.69535 12.8617 -57
      vertex -6.12796 13.1415 -57
      vertex 0 8.87869e-16 -57
    endloop
  endfacet
  facet normal 0 0 -1
    outer loop
      vertex -6.12796 13.1415 -57
      vertex -5.54891 13.3963 -57
      vertex 0 8.87869e-16 -57
    endloop
  endfacet
  facet normal 0 0 -1
    outer loop
      vertex 0 8.87869e-16 -57
      vertex -5.54891 13.3963 -57
      vertex -4.95929 13.6255 -57
    endloop
  endfacet
  facet normal 0 0 -1
    outer loop
      vertex -8.31686 11.8777 -57
      vertex -7.79084 12.2292 -57
      vertex 0 8.87869e-16 -57
    endloop
  endfacet
  facet normal 0 0 -1
    outer loop
      vertex -7.79084 12.2292 -57
      vertex -7.25 12.5574 -57
      vertex 0 8.87869e-16 -57
    endloop
  endfacet
  facet normal 0 0 -1
    outer loop
      vertex 0 8.87869e-16 -57
      vertex -7.25 12.5574 -57
      vertex -6.69535 12.8617 -57
    endloop
  endfacet
  facet normal 0 0 -1
    outer loop
      vertex -9.79606 10.6905 -57
      vertex -9.32042 11.1076 -57
      vertex 0 8.87869e-16 -57
    endloop
  endfacet
  facet normal 0 0 -1
    outer loop
      vertex -9.32042 11.1076 -57
      vertex -8.82704 11.5036 -57
      vertex 0 8.87869e-16 -57
    endloop
  endfacet
  facet normal 0 0 -1
    outer loop
      vertex 0 8.87869e-16 -57
      vertex -8.82704 11.5036 -57
      vertex -8.31686 11.8777 -57
    endloop
  endfacet
  facet normal 0 0 -1
    outer loop
      vertex -11.1076 9.32042 -57
      vertex -10.6905 9.79606 -57
      vertex 0 8.87869e-16 -57
    endloop
  endfacet
  facet normal 0 0 -1
    outer loop
      vertex -10.6905 9.79606 -57
      vertex -10.253 10.253 -57
      vertex 0 8.87869e-16 -57
    endloop
  endfacet
  facet normal 0 0 -1
    outer loop
      vertex 0 8.87869e-16 -57
      vertex -10.253 10.253 -57
      vertex -9.79606 10.6905 -57
    endloop
  endfacet
  facet normal 0 0 -1
    outer loop
      vertex -12.2292 7.79084 -57
      vertex -11.8777 8.31686 -57
      vertex 0 8.87869e-16 -57
    endloop
  endfacet
  facet normal 0 0 -1
    outer loop
      vertex -11.8777 8.31686 -57
      vertex -11.5036 8.82704 -57
      vertex 0 8.87869e-16 -57
    endloop
  endfacet
  facet normal 0 0 -1
    outer loop
      vertex 0 8.87869e-16 -57
      vertex -11.5036 8.82704 -57
      vertex -11.1076 9.32042 -57
    endloop
  endfacet
  facet normal 0 0 -1
    outer loop
      vertex -13.1415 6.12796 -57
      vertex -12.8617 6.69535 -57
      vertex 0 8.87869e-16 -57
    endloop
  endfacet
  facet normal 0 0 -1
    outer loop
      vertex -12.8617 6.69535 -57
      vertex -12.5574 7.25 -57
      vertex 0 8.87869e-16 -57
    endloop
  endfacet
  facet normal 0 0 -1
    outer loop
      vertex 0 8.87869e-16 -57
      vertex -12.5574 7.25 -57
      vertex -12.2292 7.79084 -57
    endloop
  endfacet
  facet normal 0 0 -1
    outer loop
      vertex -13.8289 4.36023 -57
      vertex -13.6255 4.95929 -57
      vertex 0 8.87869e-16 -57
    endloop
  endfacet
  facet normal 0 0 -1
    outer loop
      vertex -13.6255 4.95929 -57
      vertex -13.3963 5.54891 -57
      vertex 0 8.87869e-16 -57
    endloop
  endfacet
  facet normal 0 0 -1
    outer loop
      vertex 0 8.87869e-16 -57
      vertex -13.3963 5.54891 -57
      vertex -13.1415 6.12796 -57
    endloop
  endfacet
  facet normal 0 0 -1
    outer loop
      vertex -14.2797 2.5179 -57
      vertex -14.1563 3.13837 -57
      vertex 0 8.87869e-16 -57
    endloop
  endfacet
  facet normal 0 0 -1
    outer loop
      vertex -14.1563 3.13837 -57
      vertex -14.0059 3.75288 -57
      vertex 0 8.87869e-16 -57
    endloop
  endfacet
  facet normal 0 0 -1
    outer loop
      vertex 0 8.87869e-16 -57
      vertex -14.0059 3.75288 -57
      vertex -13.8289 4.36023 -57
    endloop
  endfacet
  facet normal 0 0 -1
    outer loop
      vertex -14.4862 0.632481 -57
      vertex -14.4448 1.26376 -57
      vertex 0 8.87869e-16 -57
    endloop
  endfacet
  facet normal 0 0 -1
    outer loop
      vertex -14.4448 1.26376 -57
      vertex -14.376 1.89263 -57
      vertex 0 8.87869e-16 -57
    endloop
  endfacet
  facet normal 0 0 -1
    outer loop
      vertex 0 8.87869e-16 -57
      vertex -14.376 1.89263 -57
      vertex -14.2797 2.5179 -57
    endloop
  endfacet
  facet normal 0 0 -1
    outer loop
      vertex -14.4448 -1.26376 -57
      vertex -14.4862 -0.632481 -57
      vertex 0 8.87869e-16 -57
    endloop
  endfacet
  facet normal 0 0 -1
    outer loop
      vertex -14.4862 -0.632481 -57
      vertex -14.5 8.87869e-16 -57
      vertex 0 8.87869e-16 -57
    endloop
  endfacet
  facet normal 0 0 -1
    outer loop
      vertex 0 8.87869e-16 -57
      vertex -14.5 8.87869e-16 -57
      vertex -14.4862 0.632481 -57
    endloop
  endfacet
  facet normal 0 0 -1
    outer loop
      vertex -14.1563 -3.13837 -57
      vertex -14.2797 -2.5179 -57
      vertex 0 8.87869e-16 -57
    endloop
  endfacet
  facet normal 0 0 -1
    outer loop
      vertex -14.2797 -2.5179 -57
      vertex -14.376 -1.89263 -57
      vertex 0 8.87869e-16 -57
    endloop
  endfacet
  facet normal 0 0 -1
    outer loop
      vertex 0 8.87869e-16 -57
      vertex -14.376 -1.89263 -57
      vertex -14.4448 -1.26376 -57
    endloop
  endfacet
  facet normal 0 0 -1
    outer loop
      vertex -13.6255 -4.95929 -57
      vertex -13.8289 -4.36023 -57
      vertex 0 8.87869e-16 -57
    endloop
  endfacet
  facet normal 0 0 -1
    outer loop
      vertex -13.8289 -4.36023 -57
      vertex -14.0059 -3.75288 -57
      vertex 0 8.87869e-16 -57
    endloop
  endfacet
  facet normal 0 0 -1
    outer loop
      vertex 0 8.87869e-16 -57
      vertex -14.0059 -3.75288 -57
      vertex -14.1563 -3.13837 -57
    endloop
  endfacet
  facet normal 0 0 -1
    outer loop
      vertex -12.8617 -6.69535 -57
      vertex -13.1415 -6.12796 -57
      vertex 0 8.87869e-16 -57
    endloop
  endfacet
  facet normal 0 0 -1
    outer loop
      vertex -13.1415 -6.12796 -57
      vertex -13.3963 -5.54891 -57
      vertex 0 8.87869e-16 -57
    endloop
  endfacet
  facet normal 0 0 -1
    outer loop
      vertex 0 8.87869e-16 -57
      vertex -13.3963 -5.54891 -57
      vertex -13.6255 -4.95929 -57
    endloop
  endfacet
  facet normal 0 0 -1
    outer loop
      vertex -11.8777 -8.31686 -57
      vertex -12.2292 -7.79084 -57
      vertex 0 8.87869e-16 -57
    endloop
  endfacet
  facet normal 0 0 -1
    outer loop
      vertex -12.2292 -7.79084 -57
      vertex -12.5574 -7.25 -57
      vertex 0 8.87869e-16 -57
    endloop
  endfacet
  facet normal 0 0 -1
    outer loop
      vertex 0 8.87869e-16 -57
      vertex -12.5574 -7.25 -57
      vertex -12.8617 -6.69535 -57
    endloop
  endfacet
  facet normal 0 0 -1
    outer loop
      vertex -10.6905 -9.79606 -57
      vertex -11.1076 -9.32042 -57
      vertex 0 8.87869e-16 -57
    endloop
  endfacet
  facet normal 0 0 -1
    outer loop
      vertex -11.1076 -9.32042 -57
      vertex -11.5036 -8.82704 -57
      vertex 0 8.87869e-16 -57
    endloop
  endfacet
  facet normal 0 0 -1
    outer loop
      vertex 0 8.87869e-16 -57
      vertex -11.5036 -8.82704 -57
      vertex -11.8777 -8.31686 -57
    endloop
  endfacet
  facet normal 0 0 -1
    outer loop
      vertex -9.32042 -11.1076 -57
      vertex -9.79606 -10.6905 -57
      vertex 0 8.87869e-16 -57
    endloop
  endfacet
  facet normal 0 0 -1
    outer loop
      vertex -9.79606 -10.6905 -57
      vertex -10.253 -10.253 -57
      vertex 0 8.87869e-16 -57
    endloop
  endfacet
  facet normal 0 0 -1
    outer loop
      vertex 0 8.87869e-16 -57
      vertex -10.253 -10.253 -57
      vertex -10.6905 -9.79606 -57
    endloop
  endfacet
  facet normal 0 0 -1
    outer loop
      vertex -7.79084 -12.2292 -57
      vertex -8.31686 -11.8777 -57
      vertex 0 8.87869e-16 -57
    endloop
  endfacet
  facet normal 0 0 -1
    outer loop
      vertex -8.31686 -11.8777 -57
      vertex -8.82704 -11.5036 -57
      vertex 0 8.87869e-16 -57
    endloop
  endfacet
  facet normal 0 0 -1
    outer loop
      vertex 0 8.87869e-16 -57
      vertex -8.82704 -11.5036 -57
      vertex -9.32042 -11.1076 -57
    endloop
  endfacet
  facet normal 0 0 -1
    outer loop
      vertex -6.12796 -13.1415 -57
      vertex -6.69535 -12.8617 -57
      vertex 0 8.87869e-16 -57
    endloop
  endfacet
  facet normal 0 0 -1
    outer loop
      vertex -6.69535 -12.8617 -57
      vertex -7.25 -12.5574 -57
      vertex 0 8.87869e-16 -57
    endloop
  endfacet
  facet normal 0 0 -1
    outer loop
      vertex 0 8.87869e-16 -57
      vertex -7.25 -12.5574 -57
      vertex -7.79084 -12.2292 -57
    endloop
  endfacet
  facet normal 0 0 -1
    outer loop
      vertex -4.36023 -13.8289 -57
      vertex -4.95929 -13.6255 -57
      vertex 0 8.87869e-16 -57
    endloop
  endfacet
  facet normal 0 0 -1
    outer loop
      vertex -4.95929 -13.6255 -57
      vertex -5.54891 -13.3963 -57
      vertex 0 8.87869e-16 -57
    endloop
  endfacet
  facet normal 0 0 -1
    outer loop
      vertex 0 8.87869e-16 -57
      vertex -5.54891 -13.3963 -57
      vertex -6.12796 -13.1415 -57
    endloop
  endfacet
  facet normal 0 0 -1
    outer loop
      vertex -2.5179 -14.2797 -57
      vertex -3.13837 -14.1563 -57
      vertex 0 8.87869e-16 -57
    endloop
  endfacet
  facet normal 0 0 -1
    outer loop
      vertex -3.13837 -14.1563 -57
      vertex -3.75288 -14.0059 -57
      vertex 0 8.87869e-16 -57
    endloop
  endfacet
  facet normal 0 0 -1
    outer loop
      vertex 0 8.87869e-16 -57
      vertex -3.75288 -14.0059 -57
      vertex -4.36023 -13.8289 -57
    endloop
  endfacet
  facet normal 0 0 -1
    outer loop
      vertex -0.632481 -14.4862 -57
      vertex -1.26376 -14.4448 -57
      vertex 0 8.87869e-16 -57
    endloop
  endfacet
  facet normal 0 0 -1
    outer loop
      vertex -1.26376 -14.4448 -57
      vertex -1.89263 -14.376 -57
      vertex 0 8.87869e-16 -57
    endloop
  endfacet
  facet normal 0 0 -1
    outer loop
      vertex 0 8.87869e-16 -57
      vertex -1.89263 -14.376 -57
      vertex -2.5179 -14.2797 -57
    endloop
  endfacet
  facet normal 0 0 -1
    outer loop
      vertex 1.26376 -14.4448 -57
      vertex 0.632481 -14.4862 -57
      vertex 0 8.87869e-16 -57
    endloop
  endfacet
  facet normal 0 0 -1
    outer loop
      vertex 0.632481 -14.4862 -57
      vertex 2.66361e-15 -14.5 -57
      vertex 0 8.87869e-16 -57
    endloop
  endfacet
  facet normal 0 0 -1
    outer loop
      vertex 0 8.87869e-16 -57
      vertex 2.66361e-15 -14.5 -57
      vertex -0.632481 -14.4862 -57
    endloop
  endfacet
  facet normal 0 0 -1
    outer loop
      vertex 3.13837 -14.1563 -57
      vertex 2.5179 -14.2797 -57
      vertex 0 8.87869e-16 -57
    endloop
  endfacet
  facet normal 0 0 -1
    outer loop
      vertex 2.5179 -14.2797 -57
      vertex 1.89263 -14.376 -57
      vertex 0 8.87869e-16 -57
    endloop
  endfacet
  facet normal 0 0 -1
    outer loop
      vertex 0 8.87869e-16 -57
      vertex 1.89263 -14.376 -57
      vertex 1.26376 -14.4448 -57
    endloop
  endfacet
  facet normal 0 0 -1
    outer loop
      vertex 4.95929 -13.6255 -57
      vertex 4.36023 -13.8289 -57
      vertex 0 8.87869e-16 -57
    endloop
  endfacet
  facet normal 0 0 -1
    outer loop
      vertex 4.36023 -13.8289 -57
      vertex 3.75288 -14.0059 -57
      vertex 0 8.87869e-16 -57
    endloop
  endfacet
  facet normal 0 0 -1
    outer loop
      vertex 0 8.87869e-16 -57
      vertex 3.75288 -14.0059 -57
      vertex 3.13837 -14.1563 -57
    endloop
  endfacet
  facet normal 0 0 -1
    outer loop
      vertex 6.69535 -12.8617 -57
      vertex 6.12796 -13.1415 -57
      vertex 0 8.87869e-16 -57
    endloop
  endfacet
  facet normal 0 0 -1
    outer loop
      vertex 6.12796 -13.1415 -57
      vertex 5.54891 -13.3963 -57
      vertex 0 8.87869e-16 -57
    endloop
  endfacet
  facet normal 0 0 -1
    outer loop
      vertex 0 8.87869e-16 -57
      vertex 5.54891 -13.3963 -57
      vertex 4.95929 -13.6255 -57
    endloop
  endfacet
  facet normal 0 0 -1
    outer loop
      vertex 8.31686 -11.8777 -57
      vertex 7.79084 -12.2292 -57
      vertex 0 8.87869e-16 -57
    endloop
  endfacet
  facet normal 0 0 -1
    outer loop
      vertex 7.79084 -12.2292 -57
      vertex 7.25 -12.5574 -57
      vertex 0 8.87869e-16 -57
    endloop
  endfacet
  facet normal 0 0 -1
    outer loop
      vertex 0 8.87869e-16 -57
      vertex 7.25 -12.5574 -57
      vertex 6.69535 -12.8617 -57
    endloop
  endfacet
  facet normal 0 0 -1
    outer loop
      vertex 9.79606 -10.6905 -57
      vertex 9.32042 -11.1076 -57
      vertex 0 8.87869e-16 -57
    endloop
  endfacet
  facet normal 0 0 -1
    outer loop
      vertex 9.32042 -11.1076 -57
      vertex 8.82704 -11.5036 -57
      vertex 0 8.87869e-16 -57
    endloop
  endfacet
  facet normal 0 0 -1
    outer loop
      vertex 0 8.87869e-16 -57
      vertex 8.82704 -11.5036 -57
      vertex 8.31686 -11.8777 -57
    endloop
  endfacet
  facet normal 0 0 -1
    outer loop
      vertex 11.1076 -9.32042 -57
      vertex 10.6905 -9.79606 -57
      vertex 0 8.87869e-16 -57
    endloop
  endfacet
  facet normal 0 0 -1
    outer loop
      vertex 10.6905 -9.79606 -57
      vertex 10.253 -10.253 -57
      vertex 0 8.87869e-16 -57
    endloop
  endfacet
  facet normal 0 0 -1
    outer loop
      vertex 0 8.87869e-16 -57
      vertex 10.253 -10.253 -57
      vertex 9.79606 -10.6905 -57
    endloop
  endfacet
  facet normal 0 0 -1
    outer loop
      vertex 12.2292 -7.79084 -57
      vertex 11.8777 -8.31686 -57
      vertex 0 8.87869e-16 -57
    endloop
  endfacet
  facet normal 0 0 -1
    outer loop
      vertex 11.8777 -8.31686 -57
      vertex 11.5036 -8.82704 -57
      vertex 0 8.87869e-16 -57
    endloop
  endfacet
  facet normal 0 0 -1
    outer loop
      vertex 0 8.87869e-16 -57
      vertex 11.5036 -8.82704 -57
      vertex 11.1076 -9.32042 -57
    endloop
  endfacet
  facet normal 0 0 -1
    outer loop
      vertex 13.1415 -6.12796 -57
      vertex 12.8617 -6.69535 -57
      vertex 0 8.87869e-16 -57
    endloop
  endfacet
  facet normal 0 0 -1
    outer loop
      vertex 12.8617 -6.69535 -57
      vertex 12.5574 -7.25 -57
      vertex 0 8.87869e-16 -57
    endloop
  endfacet
  facet normal 0 0 -1
    outer loop
      vertex 0 8.87869e-16 -57
      vertex 12.5574 -7.25 -57
      vertex 12.2292 -7.79084 -57
    endloop
  endfacet
  facet normal 0 0 -1
    outer loop
      vertex 13.8289 -4.36023 -57
      vertex 13.6255 -4.95929 -57
      vertex 0 8.87869e-16 -57
    endloop
  endfacet
  facet normal 0 0 -1
    outer loop
      vertex 13.6255 -4.95929 -57
      vertex 13.3963 -5.54891 -57
      vertex 0 8.87869e-16 -57
    endloop
  endfacet
  facet normal 0 0 -1
    outer loop
      vertex 0 8.87869e-16 -57
      vertex 13.3963 -5.54891 -57
      vertex 13.1415 -6.12796 -57
    endloop
  endfacet
  facet normal 0 0 -1
    outer loop
      vertex 14.2797 -2.5179 -57
      vertex 14.1563 -3.13837 -57
      vertex 0 8.87869e-16 -57
    endloop
  endfacet
  facet normal 0 0 -1
    outer loop
      vertex 14.1563 -3.13837 -57
      vertex 14.0059 -3.75288 -57
      vertex 0 8.87869e-16 -57
    endloop
  endfacet
  facet normal 0 0 -1
    outer loop
      vertex 0 8.87869e-16 -57
      vertex 14.0059 -3.75288 -57
      vertex 13.8289 -4.36023 -57
    endloop
  endfacet
  facet normal 0 0 -1
    outer loop
      vertex 14.4862 -0.632481 -57
      vertex 14.4448 -1.26376 -57
      vertex 0 8.87869e-16 -57
    endloop
  endfacet
  facet normal 0 0 -1
    outer loop
      vertex 14.4448 -1.26376 -57
      vertex 14.376 -1.89263 -57
      vertex 0 8.87869e-16 -57
    endloop
  endfacet
  facet normal 0 0 -1
    outer loop
      vertex 0 8.87869e-16 -57
      vertex 14.376 -1.89263 -57
      vertex 14.2797 -2.5179 -57
    endloop
  endfacet
  facet normal -0.999762 0.0218142 0
    outer loop
      vertex -14.5 8.87869e-16 -57
      vertex -14.4862 0.632481 57
      vertex -14.4862 0.632481 -57
    endloop
  endfacet
  facet normal -0.997859 0.0654028 0
    outer loop
      vertex -14.4862 0.632481 57
      vertex -14.4448 1.26376 57
      vertex -14.4862 0.632481 -57
    endloop
  endfacet
  facet normal -0.997859 0.0654028 0
    outer loop
      vertex -14.4862 0.632481 -57
      vertex -14.4448 1.26376 57
      vertex -14.4448 1.26376 -57
    endloop
  endfacet
  facet normal -0.994056 0.108868 0
    outer loop
      vertex -14.4448 1.26376 57
      vertex -14.376 1.89263 57
      vertex -14.4448 1.26376 -57
    endloop
  endfacet
  facet normal -0.994056 0.108868 0
    outer loop
      vertex -14.4448 1.26376 -57
      vertex -14.376 1.89263 57
      vertex -14.376 1.89263 -57
    endloop
  endfacet
  facet normal -0.988361 0.152124 0
    outer loop
      vertex -14.376 1.89263 57
      vertex -14.2797 2.5179 57
      vertex -14.376 1.89263 -57
    endloop
  endfacet
  facet normal -0.988361 0.152124 0
    outer loop
      vertex -14.376 1.89263 -57
      vertex -14.2797 2.5179 57
      vertex -14.2797 2.5179 -57
    endloop
  endfacet
  facet normal -0.980785 0.19509 0
    outer loop
      vertex -14.2797 2.5179 57
      vertex -14.1563 3.13837 57
      vertex -14.2797 2.5179 -57
    endloop
  endfacet
  facet normal -0.980785 0.19509 0
    outer loop
      vertex -14.2797 2.5179 -57
      vertex -14.1563 3.13837 57
      vertex -14.1563 3.13837 -57
    endloop
  endfacet
  facet normal -0.971342 0.237686 0
    outer loop
      vertex -14.1563 3.13837 57
      vertex -14.0059 3.75288 57
      vertex -14.1563 3.13837 -57
    endloop
  endfacet
  facet normal -0.971342 0.237686 0
    outer loop
      vertex -14.1563 3.13837 -57
      vertex -14.0059 3.75288 57
      vertex -14.0059 3.75288 -57
    endloop
  endfacet
  facet normal -0.96005 0.279829 0
    outer loop
      vertex -14.0059 3.75288 57
      vertex -13.8289 4.36023 57
      vertex -14.0059 3.75288 -57
    endloop
  endfacet
  facet normal -0.96005 0.279829 0
    outer loop
      vertex -14.0059 3.75288 -57
      vertex -13.8289 4.36023 57
      vertex -13.8289 4.36023 -57
    endloop
  endfacet
  facet normal -0.94693 0.32144 0
    outer loop
      vertex -13.8289 4.36023 57
      vertex -13.6255 4.95929 57
      vertex -13.8289 4.36023 -57
    endloop
  endfacet
  facet normal -0.94693 0.32144 0
    outer loop
      vertex -13.8289 4.36023 -57
      vertex -13.6255 4.95929 57
      vertex -13.6255 4.95929 -57
    endloop
  endfacet
  facet normal -0.932008 0.362438 0
    outer loop
      vertex -13.6255 4.95929 57
      vertex -13.3963 5.54891 57
      vertex -13.6255 4.95929 -57
    endloop
  endfacet
  facet normal -0.932008 0.362438 0
    outer loop
      vertex -13.6255 4.95929 -57
      vertex -13.3963 5.54891 57
      vertex -13.3963 5.54891 -57
    endloop
  endfacet
  facet normal -0.915311 0.402747 0
    outer loop
      vertex -13.3963 5.54891 57
      vertex -13.1415 6.12796 57
      vertex -13.3963 5.54891 -57
    endloop
  endfacet
  facet normal -0.915311 0.402747 0
    outer loop
      vertex -13.3963 5.54891 -57
      vertex -13.1415 6.12796 57
      vertex -13.1415 6.12796 -57
    endloop
  endfacet
  facet normal -0.896873 0.442288 0
    outer loop
      vertex -13.1415 6.12796 57
      vertex -12.8617 6.69535 57
      vertex -13.1415 6.12796 -57
    endloop
  endfacet
  facet normal -0.896873 0.442288 0
    outer loop
      vertex -13.1415 6.12796 -57
      vertex -12.8617 6.69535 57
      vertex -12.8617 6.69535 -57
    endloop
  endfacet
  facet normal -0.876727 0.480988 0
    outer loop
      vertex -12.8617 6.69535 57
      vertex -12.5574 7.25 57
      vertex -12.8617 6.69535 -57
    endloop
  endfacet
  facet normal -0.876727 0.480988 0
    outer loop
      vertex -12.8617 6.69535 -57
      vertex -12.5574 7.25 57
      vertex -12.5574 7.25 -57
    endloop
  endfacet
  facet normal -0.854912 0.518773 0
    outer loop
      vertex -12.5574 7.25 57
      vertex -12.2292 7.79084 57
      vertex -12.5574 7.25 -57
    endloop
  endfacet
  facet normal -0.854912 0.518773 0
    outer loop
      vertex -12.5574 7.25 -57
      vertex -12.2292 7.79084 57
      vertex -12.2292 7.79084 -57
    endloop
  endfacet
  facet normal -0.831469 0.555571 0
    outer loop
      vertex -12.2292 7.79084 57
      vertex -11.8777 8.31686 57
      vertex -12.2292 7.79084 -57
    endloop
  endfacet
  facet normal -0.831469 0.555571 0
    outer loop
      vertex -12.2292 7.79084 -57
      vertex -11.8777 8.31686 57
      vertex -11.8777 8.31686 -57
    endloop
  endfacet
  facet normal -0.806445 0.591309 0
    outer loop
      vertex -11.8777 8.31686 57
      vertex -11.5036 8.82704 57
      vertex -11.8777 8.31686 -57
    endloop
  endfacet
  facet normal -0.806445 0.591309 0
    outer loop
      vertex -11.8777 8.31686 -57
      vertex -11.5036 8.82704 57
      vertex -11.5036 8.82704 -57
    endloop
  endfacet
  facet normal -0.779884 0.625924 0
    outer loop
      vertex -11.5036 8.82704 57
      vertex -11.1076 9.32042 57
      vertex -11.5036 8.82704 -57
    endloop
  endfacet
  facet normal -0.779884 0.625924 0
    outer loop
      vertex -11.5036 8.82704 -57
      vertex -11.1076 9.32042 57
      vertex -11.1076 9.32042 -57
    endloop
  endfacet
  facet normal -0.75184 0.659345 0
    outer loop
      vertex -11.1076 9.32042 57
      vertex -10.6905 9.79606 57
      vertex -11.1076 9.32042 -57
    endloop
  endfacet
  facet normal -0.75184 0.659345 0
    outer loop
      vertex -11.1076 9.32042 -57
      vertex -10.6905 9.79606 57
      vertex -10.6905 9.79606 -57
    endloop
  endfacet
  facet normal -0.722364 0.691513 0
    outer loop
      vertex -10.6905 9.79606 57
      vertex -10.253 10.253 57
      vertex -10.6905 9.79606 -57
    endloop
  endfacet
  facet normal -0.722364 0.691513 0
    outer loop
      vertex -10.6905 9.79606 -57
      vertex -10.253 10.253 57
      vertex -10.253 10.253 -57
    endloop
  endfacet
  facet normal -0.691513 0.722364 0
    outer loop
      vertex -10.253 10.253 57
      vertex -9.79606 10.6905 57
      vertex -10.253 10.253 -57
    endloop
  endfacet
  facet normal -0.691513 0.722364 0
    outer loop
      vertex -10.253 10.253 -57
      vertex -9.79606 10.6905 57
      vertex -9.79606 10.6905 -57
    endloop
  endfacet
  facet normal -0.659345 0.75184 0
    outer loop
      vertex -9.79606 10.6905 57
      vertex -9.32042 11.1076 57
      vertex -9.79606 10.6905 -57
    endloop
  endfacet
  facet normal -0.659345 0.75184 0
    outer loop
      vertex -9.79606 10.6905 -57
      vertex -9.32042 11.1076 57
      vertex -9.32042 11.1076 -57
    endloop
  endfacet
  facet normal -0.625924 0.779884 0
    outer loop
      vertex -9.32042 11.1076 57
      vertex -8.82704 11.5036 57
      vertex -9.32042 11.1076 -57
    endloop
  endfacet
  facet normal -0.625924 0.779884 0
    outer loop
      vertex -9.32042 11.1076 -57
      vertex -8.82704 11.5036 57
      vertex -8.82704 11.5036 -57
    endloop
  endfacet
  facet normal -0.591309 0.806445 0
    outer loop
      vertex -8.82704 11.5036 57
      vertex -8.31686 11.8777 57
      vertex -8.82704 11.5036 -57
    endloop
  endfacet
  facet normal -0.591309 0.806445 0
    outer loop
      vertex -8.82704 11.5036 -57
      vertex -8.31686 11.8777 57
      vertex -8.31686 11.8777 -57
    endloop
  endfacet
  facet normal -0.555571 0.831469 0
    outer loop
      vertex -8.31686 11.8777 57
      vertex -7.79084 12.2292 57
      vertex -8.31686 11.8777 -57
    endloop
  endfacet
  facet normal -0.555571 0.831469 0
    outer loop
      vertex -8.31686 11.8777 -57
      vertex -7.79084 12.2292 57
      vertex -7.79084 12.2292 -57
    endloop
  endfacet
  facet normal -0.518773 0.854912 0
    outer loop
      vertex -7.79084 12.2292 57
      vertex -7.25 12.5574 57
      vertex -7.79084 12.2292 -57
    endloop
  endfacet
  facet normal -0.518773 0.854912 0
    outer loop
      vertex -7.79084 12.2292 -57
      vertex -7.25 12.5574 57
      vertex -7.25 12.5574 -57
    endloop
  endfacet
  facet normal -0.480988 0.876727 0
    outer loop
      vertex -7.25 12.5574 57
      vertex -6.69535 12.8617 57
      vertex -7.25 12.5574 -57
    endloop
  endfacet
  facet normal -0.480988 0.876727 0
    outer loop
      vertex -7.25 12.5574 -57
      vertex -6.69535 12.8617 57
      vertex -6.69535 12.8617 -57
    endloop
  endfacet
  facet normal -0.442288 0.896873 0
    outer loop
      vertex -6.69535 12.8617 57
      vertex -6.12796 13.1415 57
      vertex -6.69535 12.8617 -57
    endloop
  endfacet
  facet normal -0.442288 0.896873 0
    outer loop
      vertex -6.69535 12.8617 -57
      vertex -6.12796 13.1415 57
      vertex -6.12796 13.1415 -57
    endloop
  endfacet
  facet normal -0.402747 0.915311 0
    outer loop
      vertex -6.12796 13.1415 57
      vertex -5.54891 13.3963 57
      vertex -6.12796 13.1415 -57
    endloop
  endfacet
  facet normal -0.402747 0.915311 0
    outer loop
      vertex -6.12796 13.1415 -57
      vertex -5.54891 13.3963 57
      vertex -5.54891 13.3963 -57
    endloop
  endfacet
  facet normal -0.362438 0.932008 0
    outer loop
      vertex -5.54891 13.3963 57
      vertex -4.95929 13.6255 57
      vertex -5.54891 13.3963 -57
    endloop
  endfacet
  facet normal -0.362438 0.932008 0
    outer loop
      vertex -5.54891 13.3963 -57
      vertex -4.95929 13.6255 57
      vertex -4.95929 13.6255 -57
    endloop
  endfacet
  facet normal -0.32144 0.94693 0
    outer loop
      vertex -4.95929 13.6255 57
      vertex -4.36023 13.8289 57
      vertex -4.95929 13.6255 -57
    endloop
  endfacet
  facet normal -0.32144 0.94693 0
    outer loop
      vertex -4.95929 13.6255 -57
      vertex -4.36023 13.8289 57
      vertex -4.36023 13.8289 -57
    endloop
  endfacet
  facet normal -0.279829 0.96005 0
    outer loop
      vertex -4.36023 13.8289 57
      vertex -3.75288 14.0059 57
      vertex -4.36023 13.8289 -57
    endloop
  endfacet
  facet normal -0.279829 0.96005 0
    outer loop
      vertex -4.36023 13.8289 -57
      vertex -3.75288 14.0059 57
      vertex -3.75288 14.0059 -57
    endloop
  endfacet
  facet normal -0.237686 0.971342 0
    outer loop
      vertex -3.75288 14.0059 57
      vertex -3.13837 14.1563 57
      vertex -3.75288 14.0059 -57
    endloop
  endfacet
  facet normal -0.237686 0.971342 0
    outer loop
      vertex -3.75288 14.0059 -57
      vertex -3.13837 14.1563 57
      vertex -3.13837 14.1563 -57
    endloop
  endfacet
  facet normal -0.19509 0.980785 0
    outer loop
      vertex -3.13837 14.1563 57
      vertex -2.5179 14.2797 57
      vertex -3.13837 14.1563 -57
    endloop
  endfacet
  facet normal -0.19509 0.980785 0
    outer loop
      vertex -3.13837 14.1563 -57
      vertex -2.5179 14.2797 57
      vertex -2.5179 14.2797 -57
    endloop
  endfacet
  facet normal -0.152124 0.988361 0
    outer loop
      vertex -2.5179 14.2797 57
      vertex -1.89263 14.376 57
      vertex -2.5179 14.2797 -57
    endloop
  endfacet
  facet normal -0.152124 0.988361 0
    outer loop
      vertex -2.5179 14.2797 -57
      vertex -1.89263 14.376 57
      vertex -1.89263 14.376 -57
    endloop
  endfacet
  facet normal -0.108868 0.994056 0
    outer loop
      vertex -1.89263 14.376 57
      vertex -1.26376 14.4448 57
      vertex -1.89263 14.376 -57
    endloop
  endfacet
  facet normal -0.108868 0.994056 0
    outer loop
      vertex -1.89263 14.376 -57
      vertex -1.26376 14.4448 57
      vertex -1.26376 14.4448 -57
    endloop
  endfacet
  facet normal -0.0654028 0.997859 0
    outer loop
      vertex -1.26376 14.4448 57
      vertex -0.632481 14.4862 57
      vertex -1.26376 14.4448 -57
    endloop
  endfacet
  facet normal -0.0654028 0.997859 0
    outer loop
      vertex -1.26376 14.4448 -57
      vertex -0.632481 14.4862 57
      vertex -0.632481 14.4862 -57
    endloop
  endfacet
  facet normal -0.0218142 0.999762 0
    outer loop
      vertex -0.632481 14.4862 57
      vertex -8.87869e-16 14.5 57
      vertex -0.632481 14.4862 -57
    endloop
  endfacet
  facet normal -0.0218142 0.999762 0
    outer loop
      vertex -0.632481 14.4862 -57
      vertex -8.87869e-16 14.5 57
      vertex -8.87869e-16 14.5 -57
    endloop
  endfacet
  facet normal 0.0218142 0.999762 0
    outer loop
      vertex -8.87869e-16 14.5 57
      vertex 0.632481 14.4862 57
      vertex -8.87869e-16 14.5 -57
    endloop
  endfacet
  facet normal 0.0218142 0.999762 0
    outer loop
      vertex -8.87869e-16 14.5 -57
      vertex 0.632481 14.4862 57
      vertex 0.632481 14.4862 -57
    endloop
  endfacet
  facet normal 0.0654028 0.997859 0
    outer loop
      vertex 0.632481 14.4862 57
      vertex 1.26376 14.4448 57
      vertex 0.632481 14.4862 -57
    endloop
  endfacet
  facet normal 0.0654028 0.997859 0
    outer loop
      vertex 0.632481 14.4862 -57
      vertex 1.26376 14.4448 57
      vertex 1.26376 14.4448 -57
    endloop
  endfacet
  facet normal 0.108868 0.994056 0
    outer loop
      vertex 1.26376 14.4448 57
      vertex 1.89263 14.376 57
      vertex 1.26376 14.4448 -57
    endloop
  endfacet
  facet normal 0.108868 0.994056 0
    outer loop
      vertex 1.26376 14.4448 -57
      vertex 1.89263 14.376 57
      vertex 1.89263 14.376 -57
    endloop
  endfacet
  facet normal 0.152124 0.988361 0
    outer loop
      vertex 1.89263 14.376 57
      vertex 2.5179 14.2797 57
      vertex 1.89263 14.376 -57
    endloop
  endfacet
  facet normal 0.152124 0.988361 0
    outer loop
      vertex 1.89263 14.376 -57
      vertex 2.5179 14.2797 57
      vertex 2.5179 14.2797 -57
    endloop
  endfacet
  facet normal 0.19509 0.980785 0
    outer loop
      vertex 2.5179 14.2797 57
      vertex 3.13837 14.1563 57
      vertex 2.5179 14.2797 -57
    endloop
  endfacet
  facet normal 0.19509 0.980785 0
    outer loop
      vertex 2.5179 14.2797 -57
      vertex 3.13837 14.1563 57
      vertex 3.13837 14.1563 -57
    endloop
  endfacet
  facet normal 0.237686 0.971342 0
    outer loop
      vertex 3.13837 14.1563 57
      vertex 3.75288 14.0059 57
      vertex 3.13837 14.1563 -57
    endloop
  endfacet
  facet normal 0.237686 0.971342 0
    outer loop
      vertex 3.13837 14.1563 -57
      vertex 3.75288 14.0059 57
      vertex 3.75288 14.0059 -57
    endloop
  endfacet
  facet normal 0.279829 0.96005 0
    outer loop
      vertex 3.75288 14.0059 57
      vertex 4.36023 13.8289 57
      vertex 3.75288 14.0059 -57
    endloop
  endfacet
  facet normal 0.279829 0.96005 0
    outer loop
      vertex 3.75288 14.0059 -57
      vertex 4.36023 13.8289 57
      vertex 4.36023 13.8289 -57
    endloop
  endfacet
  facet normal 0.32144 0.94693 0
    outer loop
      vertex 4.36023 13.8289 57
      vertex 4.95929 13.6255 57
      vertex 4.36023 13.8289 -57
    endloop
  endfacet
  facet normal 0.32144 0.94693 0
    outer loop
      vertex 4.36023 13.8289 -57
      vertex 4.95929 13.6255 57
      vertex 4.95929 13.6255 -57
    endloop
  endfacet
  facet normal 0.362438 0.932008 0
    outer loop
      vertex 4.95929 13.6255 57
      vertex 5.54891 13.3963 57
      vertex 4.95929 13.6255 -57
    endloop
  endfacet
  facet normal 0.362438 0.932008 0
    outer loop
      vertex 4.95929 13.6255 -57
      vertex 5.54891 13.3963 57
      vertex 5.54891 13.3963 -57
    endloop
  endfacet
  facet normal 0.402747 0.915311 0
    outer loop
      vertex 5.54891 13.3963 57
      vertex 6.12796 13.1415 57
      vertex 5.54891 13.3963 -57
    endloop
  endfacet
  facet normal 0.402747 0.915311 0
    outer loop
      vertex 5.54891 13.3963 -57
      vertex 6.12796 13.1415 57
      vertex 6.12796 13.1415 -57
    endloop
  endfacet
  facet normal 0.442288 0.896873 0
    outer loop
      vertex 6.12796 13.1415 57
      vertex 6.69535 12.8617 57
      vertex 6.12796 13.1415 -57
    endloop
  endfacet
  facet normal 0.442288 0.896873 0
    outer loop
      vertex 6.12796 13.1415 -57
      vertex 6.69535 12.8617 57
      vertex 6.69535 12.8617 -57
    endloop
  endfacet
  facet normal 0.480988 0.876727 0
    outer loop
      vertex 6.69535 12.8617 57
      vertex 7.25 12.5574 57
      vertex 6.69535 12.8617 -57
    endloop
  endfacet
  facet normal 0.480988 0.876727 0
    outer loop
      vertex 6.69535 12.8617 -57
      vertex 7.25 12.5574 57
      vertex 7.25 12.5574 -57
    endloop
  endfacet
  facet normal 0.518773 0.854912 0
    outer loop
      vertex 7.25 12.5574 57
      vertex 7.79084 12.2292 57
      vertex 7.25 12.5574 -57
    endloop
  endfacet
  facet normal 0.518773 0.854912 0
    outer loop
      vertex 7.25 12.5574 -57
      vertex 7.79084 12.2292 57
      vertex 7.79084 12.2292 -57
    endloop
  endfacet
  facet normal 0.555571 0.831469 0
    outer loop
      vertex 7.79084 12.2292 57
      vertex 8.31686 11.8777 57
      vertex 7.79084 12.2292 -57
    endloop
  endfacet
  facet normal 0.555571 0.831469 0
    outer loop
      vertex 7.79084 12.2292 -57
      vertex 8.31686 11.8777 57
      vertex 8.31686 11.8777 -57
    endloop
  endfacet
  facet normal 0.591309 0.806445 0
    outer loop
      vertex 8.31686 11.8777 57
      vertex 8.82704 11.5036 57
      vertex 8.31686 11.8777 -57
    endloop
  endfacet
  facet normal 0.591309 0.806445 0
    outer loop
      vertex 8.31686 11.8777 -57
      vertex 8.82704 11.5036 57
      vertex 8.82704 11.5036 -57
    endloop
  endfacet
  facet normal 0.625924 0.779884 0
    outer loop
      vertex 8.82704 11.5036 57
      vertex 9.32042 11.1076 57
      vertex 8.82704 11.5036 -57
    endloop
  endfacet
  facet normal 0.625924 0.779884 0
    outer loop
      vertex 8.82704 11.5036 -57
      vertex 9.32042 11.1076 57
      vertex 9.32042 11.1076 -57
    endloop
  endfacet
  facet normal 0.659345 0.75184 0
    outer loop
      vertex 9.32042 11.1076 57
      vertex 9.79606 10.6905 57
      vertex 9.32042 11.1076 -57
    endloop
  endfacet
  facet normal 0.659345 0.75184 0
    outer loop
      vertex 9.32042 11.1076 -57
      vertex 9.79606 10.6905 57
      vertex 9.79606 10.6905 -57
    endloop
  endfacet
  facet normal 0.691513 0.722364 0
    outer loop
      vertex 9.79606 10.6905 57
      vertex 10.253 10.253 57
      vertex 9.79606 10.6905 -57
    endloop
  endfacet
  facet normal 0.691513 0.722364 0
    outer loop
      vertex 9.79606 10.6905 -57
      vertex 10.253 10.253 57
      vertex 10.253 10.253 -57
    endloop
  endfacet
  facet normal 0.722364 0.691513 0
    outer loop
      vertex 10.253 10.253 57
      vertex 10.6905 9.79606 57
      vertex 10.253 10.253 -57
    endloop
  endfacet
  facet normal 0.722364 0.691513 0
    outer loop
      vertex 10.253 10.253 -57
      vertex 10.6905 9.79606 57
      vertex 10.6905 9.79606 -57
    endloop
  endfacet
  facet normal 0.75184 0.659345 0
    outer loop
      vertex 10.6905 9.79606 57
      vertex 11.1076 9.32042 57
      vertex 10.6905 9.79606 -57
    endloop
  endfacet
  facet normal 0.75184 0.659345 0
    outer loop
      vertex 10.6905 9.79606 -57
      vertex 11.1076 9.32042 57
      vertex 11.1076 9.32042 -57
    endloop
  endfacet
  facet normal 0.779884 0.625924 0
    outer loop
      vertex 11.1076 9.32042 57
      vertex 11.5036 8.82704 57
      vertex 11.1076 9.32042 -57
    endloop
  endfacet
  facet normal 0.779884 0.625924 0
    outer loop
      vertex 11.1076 9.32042 -57
      vertex 11.5036 8.82704 57
      vertex 11.5036 8.82704 -57
    endloop
  endfacet
  facet normal 0.806445 0.591309 0
    outer loop
      vertex 11.5036 8.82704 57
      vertex 11.8777 8.31686 57
      vertex 11.5036 8.82704 -57
    endloop
  endfacet
  facet normal 0.806445 0.591309 0
    outer loop
      vertex 11.5036 8.82704 -57
      vertex 11.8777 8.31686 57
      vertex 11.8777 8.31686 -57
    endloop
  endfacet
  facet normal 0.831469 0.555571 0
    outer loop
      vertex 11.8777 8.31686 57
      vertex 12.2292 7.79084 57
      vertex 11.8777 8.31686 -57
    endloop
  endfacet
  facet normal 0.831469 0.555571 0
    outer loop
      vertex 11.8777 8.31686 -57
      vertex 12.2292 7.79084 57
      vertex 12.2292 7.79084 -57
    endloop
  endfacet
  facet normal 0.854912 0.518773 0
    outer loop
      vertex 12.2292 7.79084 57
      vertex 12.5574 7.25 57
      vertex 12.2292 7.79084 -57
    endloop
  endfacet
  facet normal 0.854912 0.518773 0
    outer loop
      vertex 12.2292 7.79084 -57
      vertex 12.5574 7.25 57
      vertex 12.5574 7.25 -57
    endloop
  endfacet
  facet normal 0.876727 0.480988 0
    outer loop
      vertex 12.5574 7.25 57
      vertex 12.8617 6.69535 57
      vertex 12.5574 7.25 -57
    endloop
  endfacet
  facet normal 0.876727 0.480988 0
    outer loop
      vertex 12.5574 7.25 -57
      vertex 12.8617 6.69535 57
      vertex 12.8617 6.69535 -57
    endloop
  endfacet
  facet normal 0.896873 0.442288 0
    outer loop
      vertex 12.8617 6.69535 57
      vertex 13.1415 6.12796 57
      vertex 12.8617 6.69535 -57
    endloop
  endfacet
  facet normal 0.896873 0.442288 0
    outer loop
      vertex 12.8617 6.69535 -57
      vertex 13.1415 6.12796 57
      vertex 13.1415 6.12796 -57
    endloop
  endfacet
  facet normal 0.915311 0.402747 0
    outer loop
      vertex 13.1415 6.12796 57
      vertex 13.3963 5.54891 57
      vertex 13.1415 6.12796 -57
    endloop
  endfacet
  facet normal 0.915311 0.402747 0
    outer loop
      vertex 13.1415 6.12796 -57
      vertex 13.3963 5.54891 57
      vertex 13.3963 5.54891 -57
    endloop
  endfacet
  facet normal 0.932008 0.362438 0
    outer loop
      vertex 13.3963 5.54891 57
      vertex 13.6255 4.95929 57
      vertex 13.3963 5.54891 -57
    endloop
  endfacet
  facet normal 0.932008 0.362438 0
    outer loop
      vertex 13.3963 5.54891 -57
      vertex 13.6255 4.95929 57
      vertex 13.6255 4.95929 -57
    endloop
  endfacet
  facet normal 0.94693 0.32144 0
    outer loop
      vertex 13.6255 4.95929 57
      vertex 13.8289 4.36023 57
      vertex 13.6255 4.95929 -57
    endloop
  endfacet
  facet normal 0.94693 0.32144 0
    outer loop
      vertex 13.6255 4.95929 -57
      vertex 13.8289 4.36023 57
      vertex 13.8289 4.36023 -57
    endloop
  endfacet
  facet normal 0.96005 0.279829 0
    outer loop
      vertex 13.8289 4.36023 57
      vertex 14.0059 3.75288 57
      vertex 13.8289 4.36023 -57
    endloop
  endfacet
  facet normal 0.96005 0.279829 0
    outer loop
      vertex 13.8289 4.36023 -57
      vertex 14.0059 3.75288 57
      vertex 14.0059 3.75288 -57
    endloop
  endfacet
  facet normal 0.971342 0.237686 0
    outer loop
      vertex 14.0059 3.75288 57
      vertex 14.1563 3.13837 57
      vertex 14.0059 3.75288 -57
    endloop
  endfacet
  facet normal 0.971342 0.237686 0
    outer loop
      vertex 14.0059 3.75288 -57
      vertex 14.1563 3.13837 57
      vertex 14.1563 3.13837 -57
    endloop
  endfacet
  facet normal 0.980785 0.19509 0
    outer loop
      vertex 14.1563 3.13837 57
      vertex 14.2797 2.5179 57
      vertex 14.1563 3.13837 -57
    endloop
  endfacet
  facet normal 0.980785 0.19509 0
    outer loop
      vertex 14.1563 3.13837 -57
      vertex 14.2797 2.5179 57
      vertex 14.2797 2.5179 -57
    endloop
  endfacet
  facet normal 0.988361 0.152124 0
    outer loop
      vertex 14.2797 2.5179 57
      vertex 14.376 1.89263 57
      vertex 14.2797 2.5179 -57
    endloop
  endfacet
  facet normal 0.988361 0.152124 0
    outer loop
      vertex 14.2797 2.5179 -57
      vertex 14.376 1.89263 57
      vertex 14.376 1.89263 -57
    endloop
  endfacet
  facet normal 0.994056 0.108868 0
    outer loop
      vertex 14.376 1.89263 57
      vertex 14.4448 1.26376 57
      vertex 14.376 1.89263 -57
    endloop
  endfacet
  facet normal 0.994056 0.108868 0
    outer loop
      vertex 14.376 1.89263 -57
      vertex 14.4448 1.26376 57
      vertex 14.4448 1.26376 -57
    endloop
  endfacet
  facet normal 0.997859 0.0654028 0
    outer loop
      vertex 14.4448 1.26376 57
      vertex 14.4862 0.632481 57
      vertex 14.4448 1.26376 -57
    endloop
  endfacet
  facet normal 0.997859 0.0654028 0
    outer loop
      vertex 14.4448 1.26376 -57
      vertex 14.4862 0.632481 57
      vertex 14.4862 0.632481 -57
    endloop
  endfacet
  facet normal 0.999762 0.0218142 0
    outer loop
      vertex 14.4862 0.632481 57
      vertex 14.5 6.21508e-15 57
      vertex 14.4862 0.632481 -57
    endloop
  endfacet
  facet normal 0.999762 0.0218142 -6.65231e-19
    outer loop
      vertex 14.4862 0.632481 -57
      vertex 14.5 6.21508e-15 57
      vertex 14.5 2.66361e-15 -57
    endloop
  endfacet
  facet normal 0.999762 -0.0218142 6.79583e-19
    outer loop
      vertex 14.5 6.21508e-15 57
      vertex 14.4862 -0.632481 57
      vertex 14.5 2.66361e-15 -57
    endloop
  endfacet
  facet normal 0.999762 -0.0218142 0
    outer loop
      vertex 14.5 2.66361e-15 -57
      vertex 14.4862 -0.632481 57
      vertex 14.4862 -0.632481 -57
    endloop
  endfacet
  facet normal 0.997859 -0.0654028 0
    outer loop
      vertex 14.4862 -0.632481 57
      vertex 14.4448 -1.26376 57
      vertex 14.4862 -0.632481 -57
    endloop
  endfacet
  facet normal 0.997859 -0.0654028 0
    outer loop
      vertex 14.4862 -0.632481 -57
      vertex 14.4448 -1.26376 57
      vertex 14.4448 -1.26376 -57
    endloop
  endfacet
  facet normal 0.994056 -0.108868 0
    outer loop
      vertex 14.4448 -1.26376 57
      vertex 14.376 -1.89263 57
      vertex 14.4448 -1.26376 -57
    endloop
  endfacet
  facet normal 0.994056 -0.108868 0
    outer loop
      vertex 14.4448 -1.26376 -57
      vertex 14.376 -1.89263 57
      vertex 14.376 -1.89263 -57
    endloop
  endfacet
  facet normal 0.988361 -0.152124 0
    outer loop
      vertex 14.376 -1.89263 57
      vertex 14.2797 -2.5179 57
      vertex 14.376 -1.89263 -57
    endloop
  endfacet
  facet normal 0.988361 -0.152124 0
    outer loop
      vertex 14.376 -1.89263 -57
      vertex 14.2797 -2.5179 57
      vertex 14.2797 -2.5179 -57
    endloop
  endfacet
  facet normal 0.980785 -0.19509 0
    outer loop
      vertex 14.2797 -2.5179 57
      vertex 14.1563 -3.13837 57
      vertex 14.2797 -2.5179 -57
    endloop
  endfacet
  facet normal 0.980785 -0.19509 0
    outer loop
      vertex 14.2797 -2.5179 -57
      vertex 14.1563 -3.13837 57
      vertex 14.1563 -3.13837 -57
    endloop
  endfacet
  facet normal 0.971342 -0.237686 0
    outer loop
      vertex 14.1563 -3.13837 57
      vertex 14.0059 -3.75288 57
      vertex 14.1563 -3.13837 -57
    endloop
  endfacet
  facet normal 0.971342 -0.237686 0
    outer loop
      vertex 14.1563 -3.13837 -57
      vertex 14.0059 -3.75288 57
      vertex 14.0059 -3.75288 -57
    endloop
  endfacet
  facet normal 0.96005 -0.279829 0
    outer loop
      vertex 14.0059 -3.75288 57
      vertex 13.8289 -4.36023 57
      vertex 14.0059 -3.75288 -57
    endloop
  endfacet
  facet normal 0.96005 -0.279829 0
    outer loop
      vertex 14.0059 -3.75288 -57
      vertex 13.8289 -4.36023 57
      vertex 13.8289 -4.36023 -57
    endloop
  endfacet
  facet normal 0.94693 -0.32144 0
    outer loop
      vertex 13.8289 -4.36023 57
      vertex 13.6255 -4.95929 57
      vertex 13.8289 -4.36023 -57
    endloop
  endfacet
  facet normal 0.94693 -0.32144 0
    outer loop
      vertex 13.8289 -4.36023 -57
      vertex 13.6255 -4.95929 57
      vertex 13.6255 -4.95929 -57
    endloop
  endfacet
  facet normal 0.932008 -0.362438 0
    outer loop
      vertex 13.6255 -4.95929 57
      vertex 13.3963 -5.54891 57
      vertex 13.6255 -4.95929 -57
    endloop
  endfacet
  facet normal 0.932008 -0.362438 0
    outer loop
      vertex 13.6255 -4.95929 -57
      vertex 13.3963 -5.54891 57
      vertex 13.3963 -5.54891 -57
    endloop
  endfacet
  facet normal 0.915311 -0.402747 0
    outer loop
      vertex 13.3963 -5.54891 57
      vertex 13.1415 -6.12796 57
      vertex 13.3963 -5.54891 -57
    endloop
  endfacet
  facet normal 0.915311 -0.402747 0
    outer loop
      vertex 13.3963 -5.54891 -57
      vertex 13.1415 -6.12796 57
      vertex 13.1415 -6.12796 -57
    endloop
  endfacet
  facet normal 0.896873 -0.442288 0
    outer loop
      vertex 13.1415 -6.12796 57
      vertex 12.8617 -6.69535 57
      vertex 13.1415 -6.12796 -57
    endloop
  endfacet
  facet normal 0.896873 -0.442288 0
    outer loop
      vertex 13.1415 -6.12796 -57
      vertex 12.8617 -6.69535 57
      vertex 12.8617 -6.69535 -57
    endloop
  endfacet
  facet normal 0.876727 -0.480988 0
    outer loop
      vertex 12.8617 -6.69535 57
      vertex 12.5574 -7.25 57
      vertex 12.8617 -6.69535 -57
    endloop
  endfacet
  facet normal 0.876727 -0.480988 0
    outer loop
      vertex 12.8617 -6.69535 -57
      vertex 12.5574 -7.25 57
      vertex 12.5574 -7.25 -57
    endloop
  endfacet
  facet normal 0.854912 -0.518773 0
    outer loop
      vertex 12.5574 -7.25 57
      vertex 12.2292 -7.79084 57
      vertex 12.5574 -7.25 -57
    endloop
  endfacet
  facet normal 0.854912 -0.518773 0
    outer loop
      vertex 12.5574 -7.25 -57
      vertex 12.2292 -7.79084 57
      vertex 12.2292 -7.79084 -57
    endloop
  endfacet
  facet normal 0.831469 -0.555571 0
    outer loop
      vertex 12.2292 -7.79084 57
      vertex 11.8777 -8.31686 57
      vertex 12.2292 -7.79084 -57
    endloop
  endfacet
  facet normal 0.831469 -0.555571 0
    outer loop
      vertex 12.2292 -7.79084 -57
      vertex 11.8777 -8.31686 57
      vertex 11.8777 -8.31686 -57
    endloop
  endfacet
  facet normal 0.806445 -0.591309 0
    outer loop
      vertex 11.8777 -8.31686 57
      vertex 11.5036 -8.82704 57
      vertex 11.8777 -8.31686 -57
    endloop
  endfacet
  facet normal 0.806445 -0.591309 0
    outer loop
      vertex 11.8777 -8.31686 -57
      vertex 11.5036 -8.82704 57
      vertex 11.5036 -8.82704 -57
    endloop
  endfacet
  facet normal 0.779884 -0.625924 0
    outer loop
      vertex 11.5036 -8.82704 57
      vertex 11.1076 -9.32042 57
      vertex 11.5036 -8.82704 -57
    endloop
  endfacet
  facet normal 0.779884 -0.625924 0
    outer loop
      vertex 11.5036 -8.82704 -57
      vertex 11.1076 -9.32042 57
      vertex 11.1076 -9.32042 -57
    endloop
  endfacet
  facet normal 0.75184 -0.659345 0
    outer loop
      vertex 11.1076 -9.32042 57
      vertex 10.6905 -9.79606 57
      vertex 11.1076 -9.32042 -57
    endloop
  endfacet
  facet normal 0.75184 -0.659345 0
    outer loop
      vertex 11.1076 -9.32042 -57
      vertex 10.6905 -9.79606 57
      vertex 10.6905 -9.79606 -57
    endloop
  endfacet
  facet normal 0.722364 -0.691513 0
    outer loop
      vertex 10.6905 -9.79606 57
      vertex 10.253 -10.253 57
      vertex 10.6905 -9.79606 -57
    endloop
  endfacet
  facet normal 0.722364 -0.691513 0
    outer loop
      vertex 10.6905 -9.79606 -57
      vertex 10.253 -10.253 57
      vertex 10.253 -10.253 -57
    endloop
  endfacet
  facet normal 0.691513 -0.722364 0
    outer loop
      vertex 10.253 -10.253 57
      vertex 9.79606 -10.6905 57
      vertex 10.253 -10.253 -57
    endloop
  endfacet
  facet normal 0.691513 -0.722364 0
    outer loop
      vertex 10.253 -10.253 -57
      vertex 9.79606 -10.6905 57
      vertex 9.79606 -10.6905 -57
    endloop
  endfacet
  facet normal 0.659345 -0.75184 0
    outer loop
      vertex 9.79606 -10.6905 57
      vertex 9.32042 -11.1076 57
      vertex 9.79606 -10.6905 -57
    endloop
  endfacet
  facet normal 0.659345 -0.75184 0
    outer loop
      vertex 9.79606 -10.6905 -57
      vertex 9.32042 -11.1076 57
      vertex 9.32042 -11.1076 -57
    endloop
  endfacet
  facet normal 0.625924 -0.779884 0
    outer loop
      vertex 9.32042 -11.1076 57
      vertex 8.82704 -11.5036 57
      vertex 9.32042 -11.1076 -57
    endloop
  endfacet
  facet normal 0.625924 -0.779884 0
    outer loop
      vertex 9.32042 -11.1076 -57
      vertex 8.82704 -11.5036 57
      vertex 8.82704 -11.5036 -57
    endloop
  endfacet
  facet normal 0.591309 -0.806445 0
    outer loop
      vertex 8.82704 -11.5036 57
      vertex 8.31686 -11.8777 57
      vertex 8.82704 -11.5036 -57
    endloop
  endfacet
  facet normal 0.591309 -0.806445 0
    outer loop
      vertex 8.82704 -11.5036 -57
      vertex 8.31686 -11.8777 57
      vertex 8.31686 -11.8777 -57
    endloop
  endfacet
  facet normal 0.555571 -0.831469 0
    outer loop
      vertex 8.31686 -11.8777 57
      vertex 7.79084 -12.2292 57
      vertex 8.31686 -11.8777 -57
    endloop
  endfacet
  facet normal 0.555571 -0.831469 0
    outer loop
      vertex 8.31686 -11.8777 -57
      vertex 7.79084 -12.2292 57
      vertex 7.79084 -12.2292 -57
    endloop
  endfacet
  facet normal 0.518773 -0.854912 0
    outer loop
      vertex 7.79084 -12.2292 57
      vertex 7.25 -12.5574 57
      vertex 7.79084 -12.2292 -57
    endloop
  endfacet
  facet normal 0.518773 -0.854912 0
    outer loop
      vertex 7.79084 -12.2292 -57
      vertex 7.25 -12.5574 57
      vertex 7.25 -12.5574 -57
    endloop
  endfacet
  facet normal 0.480988 -0.876727 0
    outer loop
      vertex 7.25 -12.5574 57
      vertex 6.69535 -12.8617 57
      vertex 7.25 -12.5574 -57
    endloop
  endfacet
  facet normal 0.480988 -0.876727 0
    outer loop
      vertex 7.25 -12.5574 -57
      vertex 6.69535 -12.8617 57
      vertex 6.69535 -12.8617 -57
    endloop
  endfacet
  facet normal 0.442288 -0.896873 0
    outer loop
      vertex 6.69535 -12.8617 57
      vertex 6.12796 -13.1415 57
      vertex 6.69535 -12.8617 -57
    endloop
  endfacet
  facet normal 0.442288 -0.896873 0
    outer loop
      vertex 6.69535 -12.8617 -57
      vertex 6.12796 -13.1415 57
      vertex 6.12796 -13.1415 -57
    endloop
  endfacet
  facet normal 0.402747 -0.915311 0
    outer loop
      vertex 6.12796 -13.1415 57
      vertex 5.54891 -13.3963 57
      vertex 6.12796 -13.1415 -57
    endloop
  endfacet
  facet normal 0.402747 -0.915311 0
    outer loop
      vertex 6.12796 -13.1415 -57
      vertex 5.54891 -13.3963 57
      vertex 5.54891 -13.3963 -57
    endloop
  endfacet
  facet normal 0.362438 -0.932008 0
    outer loop
      vertex 5.54891 -13.3963 57
      vertex 4.95929 -13.6255 57
      vertex 5.54891 -13.3963 -57
    endloop
  endfacet
  facet normal 0.362438 -0.932008 0
    outer loop
      vertex 5.54891 -13.3963 -57
      vertex 4.95929 -13.6255 57
      vertex 4.95929 -13.6255 -57
    endloop
  endfacet
  facet normal 0.32144 -0.94693 0
    outer loop
      vertex 4.95929 -13.6255 57
      vertex 4.36023 -13.8289 57
      vertex 4.95929 -13.6255 -57
    endloop
  endfacet
  facet normal 0.32144 -0.94693 0
    outer loop
      vertex 4.95929 -13.6255 -57
      vertex 4.36023 -13.8289 57
      vertex 4.36023 -13.8289 -57
    endloop
  endfacet
  facet normal 0.279829 -0.96005 0
    outer loop
      vertex 4.36023 -13.8289 57
      vertex 3.75288 -14.0059 57
      vertex 4.36023 -13.8289 -57
    endloop
  endfacet
  facet normal 0.279829 -0.96005 0
    outer loop
      vertex 4.36023 -13.8289 -57
      vertex 3.75288 -14.0059 57
      vertex 3.75288 -14.0059 -57
    endloop
  endfacet
  facet normal 0.237686 -0.971342 0
    outer loop
      vertex 3.75288 -14.0059 57
      vertex 3.13837 -14.1563 57
      vertex 3.75288 -14.0059 -57
    endloop
  endfacet
  facet normal 0.237686 -0.971342 0
    outer loop
      vertex 3.75288 -14.0059 -57
      vertex 3.13837 -14.1563 57
      vertex 3.13837 -14.1563 -57
    endloop
  endfacet
  facet normal 0.19509 -0.980785 0
    outer loop
      vertex 3.13837 -14.1563 57
      vertex 2.5179 -14.2797 57
      vertex 3.13837 -14.1563 -57
    endloop
  endfacet
  facet normal 0.19509 -0.980785 0
    outer loop
      vertex 3.13837 -14.1563 -57
      vertex 2.5179 -14.2797 57
      vertex 2.5179 -14.2797 -57
    endloop
  endfacet
  facet normal 0.152124 -0.988361 0
    outer loop
      vertex 2.5179 -14.2797 57
      vertex 1.89263 -14.376 57
      vertex 2.5179 -14.2797 -57
    endloop
  endfacet
  facet normal 0.152124 -0.988361 0
    outer loop
      vertex 2.5179 -14.2797 -57
      vertex 1.89263 -14.376 57
      vertex 1.89263 -14.376 -57
    endloop
  endfacet
  facet normal 0.108868 -0.994056 0
    outer loop
      vertex 1.89263 -14.376 57
      vertex 1.26376 -14.4448 57
      vertex 1.89263 -14.376 -57
    endloop
  endfacet
  facet normal 0.108868 -0.994056 0
    outer loop
      vertex 1.89263 -14.376 -57
      vertex 1.26376 -14.4448 57
      vertex 1.26376 -14.4448 -57
    endloop
  endfacet
  facet normal 0.0654028 -0.997859 0
    outer loop
      vertex 1.26376 -14.4448 57
      vertex 0.632481 -14.4862 57
      vertex 1.26376 -14.4448 -57
    endloop
  endfacet
  facet normal 0.0654028 -0.997859 0
    outer loop
      vertex 1.26376 -14.4448 -57
      vertex 0.632481 -14.4862 57
      vertex 0.632481 -14.4862 -57
    endloop
  endfacet
  facet normal 0.0218142 -0.999762 0
    outer loop
      vertex 0.632481 -14.4862 57
      vertex 2.66361e-15 -14.5 57
      vertex 0.632481 -14.4862 -57
    endloop
  endfacet
  facet normal 0.0218142 -0.999762 0
    outer loop
      vertex 0.632481 -14.4862 -57
      vertex 2.66361e-15 -14.5 57
      vertex 2.66361e-15 -14.5 -57
    endloop
  endfacet
  facet normal -0.0218142 -0.999762 0
    outer loop
      vertex 2.66361e-15 -14.5 57
      vertex -0.632481 -14.4862 57
      vertex 2.66361e-15 -14.5 -57
    endloop
  endfacet
  facet normal -0.0218142 -0.999762 0
    outer loop
      vertex 2.66361e-15 -14.5 -57
      vertex -0.632481 -14.4862 57
      vertex -0.632481 -14.4862 -57
    endloop
  endfacet
  facet normal -0.0654028 -0.997859 0
    outer loop
      vertex -0.632481 -14.4862 57
      vertex -1.26376 -14.4448 57
      vertex -0.632481 -14.4862 -57
    endloop
  endfacet
  facet normal -0.0654028 -0.997859 0
    outer loop
      vertex -0.632481 -14.4862 -57
      vertex -1.26376 -14.4448 57
      vertex -1.26376 -14.4448 -57
    endloop
  endfacet
  facet normal -0.108868 -0.994056 0
    outer loop
      vertex -1.26376 -14.4448 57
      vertex -1.89263 -14.376 57
      vertex -1.26376 -14.4448 -57
    endloop
  endfacet
  facet normal -0.108868 -0.994056 0
    outer loop
      vertex -1.26376 -14.4448 -57
      vertex -1.89263 -14.376 57
      vertex -1.89263 -14.376 -57
    endloop
  endfacet
  facet normal -0.152124 -0.988361 0
    outer loop
      vertex -1.89263 -14.376 57
      vertex -2.5179 -14.2797 57
      vertex -1.89263 -14.376 -57
    endloop
  endfacet
  facet normal -0.152124 -0.988361 0
    outer loop
      vertex -1.89263 -14.376 -57
      vertex -2.5179 -14.2797 57
      vertex -2.5179 -14.2797 -57
    endloop
  endfacet
  facet normal -0.19509 -0.980785 0
    outer loop
      vertex -2.5179 -14.2797 57
      vertex -3.13837 -14.1563 57
      vertex -2.5179 -14.2797 -57
    endloop
  endfacet
  facet normal -0.19509 -0.980785 0
    outer loop
      vertex -2.5179 -14.2797 -57
      vertex -3.13837 -14.1563 57
      vertex -3.13837 -14.1563 -57
    endloop
  endfacet
  facet normal -0.237686 -0.971342 0
    outer loop
      vertex -3.13837 -14.1563 57
      vertex -3.75288 -14.0059 57
      vertex -3.13837 -14.1563 -57
    endloop
  endfacet
  facet normal -0.237686 -0.971342 0
    outer loop
      vertex -3.13837 -14.1563 -57
      vertex -3.75288 -14.0059 57
      vertex -3.75288 -14.0059 -57
    endloop
  endfacet
  facet normal -0.279829 -0.96005 0
    outer loop
      vertex -3.75288 -14.0059 57
      vertex -4.36023 -13.8289 57
      vertex -3.75288 -14.0059 -57
    endloop
  endfacet
  facet normal -0.279829 -0.96005 0
    outer loop
      vertex -3.75288 -14.0059 -57
      vertex -4.36023 -13.8289 57
      vertex -4.36023 -13.8289 -57
    endloop
  endfacet
  facet normal -0.32144 -0.94693 0
    outer loop
      vertex -4.36023 -13.8289 57
      vertex -4.95929 -13.6255 57
      vertex -4.36023 -13.8289 -57
    endloop
  endfacet
  facet normal -0.32144 -0.94693 0
    outer loop
      vertex -4.36023 -13.8289 -57
      vertex -4.95929 -13.6255 57
      vertex -4.95929 -13.6255 -57
    endloop
  endfacet
  facet normal -0.362438 -0.932008 0
    outer loop
      vertex -4.95929 -13.6255 57
      vertex -5.54891 -13.3963 57
      vertex -4.95929 -13.6255 -57
    endloop
  endfacet
  facet normal -0.362438 -0.932008 0
    outer loop
      vertex -4.95929 -13.6255 -57
      vertex -5.54891 -13.3963 57
      vertex -5.54891 -13.3963 -57
    endloop
  endfacet
  facet normal -0.402747 -0.915311 0
    outer loop
      vertex -5.54891 -13.3963 57
      vertex -6.12796 -13.1415 57
      vertex -5.54891 -13.3963 -57
    endloop
  endfacet
  facet normal -0.402747 -0.915311 0
    outer loop
      vertex -5.54891 -13.3963 -57
      vertex -6.12796 -13.1415 57
      vertex -6.12796 -13.1415 -57
    endloop
  endfacet
  facet normal -0.442288 -0.896873 0
    outer loop
      vertex -6.12796 -13.1415 57
      vertex -6.69535 -12.8617 57
      vertex -6.12796 -13.1415 -57
    endloop
  endfacet
  facet normal -0.442288 -0.896873 0
    outer loop
      vertex -6.12796 -13.1415 -57
      vertex -6.69535 -12.8617 57
      vertex -6.69535 -12.8617 -57
    endloop
  endfacet
  facet normal -0.480988 -0.876727 0
    outer loop
      vertex -6.69535 -12.8617 57
      vertex -7.25 -12.5574 57
      vertex -6.69535 -12.8617 -57
    endloop
  endfacet
  facet normal -0.480988 -0.876727 0
    outer loop
      vertex -6.69535 -12.8617 -57
      vertex -7.25 -12.5574 57
      vertex -7.25 -12.5574 -57
    endloop
  endfacet
  facet normal -0.518773 -0.854912 0
    outer loop
      vertex -7.25 -12.5574 57
      vertex -7.79084 -12.2292 57
      vertex -7.25 -12.5574 -57
    endloop
  endfacet
  facet normal -0.518773 -0.854912 0
    outer loop
      vertex -7.25 -12.5574 -57
      vertex -7.79084 -12.2292 57
      vertex -7.79084 -12.2292 -57
    endloop
  endfacet
  facet normal -0.555571 -0.831469 0
    outer loop
      vertex -7.79084 -12.2292 57
      vertex -8.31686 -11.8777 57
      vertex -7.79084 -12.2292 -57
    endloop
  endfacet
  facet normal -0.555571 -0.831469 0
    outer loop
      vertex -7.79084 -12.2292 -57
      vertex -8.31686 -11.8777 57
      vertex -8.31686 -11.8777 -57
    endloop
  endfacet
  facet normal -0.591309 -0.806445 0
    outer loop
      vertex -8.31686 -11.8777 57
      vertex -8.82704 -11.5036 57
      vertex -8.31686 -11.8777 -57
    endloop
  endfacet
  facet normal -0.591309 -0.806445 0
    outer loop
      vertex -8.31686 -11.8777 -57
      vertex -8.82704 -11.5036 57
      vertex -8.82704 -11.5036 -57
    endloop
  endfacet
  facet normal -0.625924 -0.779884 0
    outer loop
      vertex -8.82704 -11.5036 57
      vertex -9.32042 -11.1076 57
      vertex -8.82704 -11.5036 -57
    endloop
  endfacet
  facet normal -0.625924 -0.779884 0
    outer loop
      vertex -8.82704 -11.5036 -57
      vertex -9.32042 -11.1076 57
      vertex -9.32042 -11.1076 -57
    endloop
  endfacet
  facet normal -0.659345 -0.75184 0
    outer loop
      vertex -9.32042 -11.1076 57
      vertex -9.79606 -10.6905 57
      vertex -9.32042 -11.1076 -57
    endloop
  endfacet
  facet normal -0.659345 -0.75184 0
    outer loop
      vertex -9.32042 -11.1076 -57
      vertex -9.79606 -10.6905 57
      vertex -9.79606 -10.6905 -57
    endloop
  endfacet
  facet normal -0.691513 -0.722364 0
    outer loop
      vertex -9.79606 -10.6905 57
      vertex -10.253 -10.253 57
      vertex -9.79606 -10.6905 -57
    endloop
  endfacet
  facet normal -0.691513 -0.722364 0
    outer loop
      vertex -9.79606 -10.6905 -57
      vertex -10.253 -10.253 57
      vertex -10.253 -10.253 -57
    endloop
  endfacet
  facet normal -0.722364 -0.691513 0
    outer loop
      vertex -10.253 -10.253 57
      vertex -10.6905 -9.79606 57
      vertex -10.253 -10.253 -57
    endloop
  endfacet
  facet normal -0.722364 -0.691513 0
    outer loop
      vertex -10.253 -10.253 -57
      vertex -10.6905 -9.79606 57
      vertex -10.6905 -9.79606 -57
    endloop
  endfacet
  facet normal -0.75184 -0.659345 0
    outer loop
      vertex -10.6905 -9.79606 57
      vertex -11.1076 -9.32042 57
      vertex -10.6905 -9.79606 -57
    endloop
  endfacet
  facet normal -0.75184 -0.659345 0
    outer loop
      vertex -10.6905 -9.79606 -57
      vertex -11.1076 -9.32042 57
      vertex -11.1076 -9.32042 -57
    endloop
  endfacet
  facet normal -0.779884 -0.625924 0
    outer loop
      vertex -11.1076 -9.32042 57
      vertex -11.5036 -8.82704 57
      vertex -11.1076 -9.32042 -57
    endloop
  endfacet
  facet normal -0.779884 -0.625924 0
    outer loop
      vertex -11.1076 -9.32042 -57
      vertex -11.5036 -8.82704 57
      vertex -11.5036 -8.82704 -57
    endloop
  endfacet
  facet normal -0.806445 -0.591309 0
    outer loop
      vertex -11.5036 -8.82704 57
      vertex -11.8777 -8.31686 57
      vertex -11.5036 -8.82704 -57
    endloop
  endfacet
  facet normal -0.806445 -0.591309 0
    outer loop
      vertex -11.5036 -8.82704 -57
      vertex -11.8777 -8.31686 57
      vertex -11.8777 -8.31686 -57
    endloop
  endfacet
  facet normal -0.831469 -0.555571 0
    outer loop
      vertex -11.8777 -8.31686 57
      vertex -12.2292 -7.79084 57
      vertex -11.8777 -8.31686 -57
    endloop
  endfacet
  facet normal -0.831469 -0.555571 0
    outer loop
      vertex -11.8777 -8.31686 -57
      vertex -12.2292 -7.79084 57
      vertex -12.2292 -7.79084 -57
    endloop
  endfacet
  facet normal -0.854912 -0.518773 0
    outer loop
      vertex -12.2292 -7.79084 57
      vertex -12.5574 -7.25 57
      vertex -12.2292 -7.79084 -57
    endloop
  endfacet
  facet normal -0.854912 -0.518773 0
    outer loop
      vertex -12.2292 -7.79084 -57
      vertex -12.5574 -7.25 57
      vertex -12.5574 -7.25 -57
    endloop
  endfacet
  facet normal -0.876727 -0.480988 0
    outer loop
      vertex -12.5574 -7.25 57
      vertex -12.8617 -6.69535 57
      vertex -12.5574 -7.25 -57
    endloop
  endfacet
  facet normal -0.876727 -0.480988 0
    outer loop
      vertex -12.5574 -7.25 -57
      vertex -12.8617 -6.69535 57
      vertex -12.8617 -6.69535 -57
    endloop
  endfacet
  facet normal -0.896873 -0.442288 0
    outer loop
      vertex -12.8617 -6.69535 57
      vertex -13.1415 -6.12796 57
      vertex -12.8617 -6.69535 -57
    endloop
  endfacet
  facet normal -0.896873 -0.442288 0
    outer loop
      vertex -12.8617 -6.69535 -57
      vertex -13.1415 -6.12796 57
      vertex -13.1415 -6.12796 -57
    endloop
  endfacet
  facet normal -0.915311 -0.402747 0
    outer loop
      vertex -13.1415 -6.12796 57
      vertex -13.3963 -5.54891 57
      vertex -13.1415 -6.12796 -57
    endloop
  endfacet
  facet normal -0.915311 -0.402747 0
    outer loop
      vertex -13.1415 -6.12796 -57
      vertex -13.3963 -5.54891 57
      vertex -13.3963 -5.54891 -57
    endloop
  endfacet
  facet normal -0.932008 -0.362438 0
    outer loop
      vertex -13.3963 -5.54891 57
      vertex -13.6255 -4.95929 57
      vertex -13.3963 -5.54891 -57
    endloop
  endfacet
  facet normal -0.932008 -0.362438 0
    outer loop
      vertex -13.3963 -5.54891 -57
      vertex -13.6255 -4.95929 57
      vertex -13.6255 -4.95929 -57
    endloop
  endfacet
  facet normal -0.94693 -0.32144 0
    outer loop
      vertex -13.6255 -4.95929 57
      vertex -13.8289 -4.36023 57
      vertex -13.6255 -4.95929 -57
    endloop
  endfacet
  facet normal -0.94693 -0.32144 0
    outer loop
      vertex -13.6255 -4.95929 -57
      vertex -13.8289 -4.36023 57
      vertex -13.8289 -4.36023 -57
    endloop
  endfacet
  facet normal -0.96005 -0.279829 0
    outer loop
      vertex -13.8289 -4.36023 57
      vertex -14.0059 -3.75288 57
      vertex -13.8289 -4.36023 -57
    endloop
  endfacet
  facet normal -0.96005 -0.279829 0
    outer loop
      vertex -13.8289 -4.36023 -57
      vertex -14.0059 -3.75288 57
      vertex -14.0059 -3.75288 -57
    endloop
  endfacet
  facet normal -0.971342 -0.237686 0
    outer loop
      vertex -14.0059 -3.75288 57
      vertex -14.1563 -3.13837 57
      vertex -14.0059 -3.75288 -57
    endloop
  endfacet
  facet normal -0.971342 -0.237686 0
    outer loop
      vertex -14.0059 -3.75288 -57
      vertex -14.1563 -3.13837 57
      vertex -14.1563 -3.13837 -57
    endloop
  endfacet
  facet normal -0.980785 -0.19509 0
    outer loop
      vertex -14.1563 -3.13837 57
      vertex -14.2797 -2.5179 57
      vertex -14.1563 -3.13837 -57
    endloop
  endfacet
  facet normal -0.980785 -0.19509 0
    outer loop
      vertex -14.1563 -3.13837 -57
      vertex -14.2797 -2.5179 57
      vertex -14.2797 -2.5179 -57
    endloop
  endfacet
  facet normal -0.988361 -0.152124 0
    outer loop
      vertex -14.2797 -2.5179 57
      vertex -14.376 -1.89263 57
      vertex -14.2797 -2.5179 -57
    endloop
  endfacet
  facet normal -0.988361 -0.152124 0
    outer loop
      vertex -14.2797 -2.5179 -57
      vertex -14.376 -1.89263 57
      vertex -14.376 -1.89263 -57
    endloop
  endfacet
  facet normal -0.994056 -0.108868 0
    outer loop
      vertex -14.376 -1.89263 57
      vertex -14.4448 -1.26376 57
      vertex -14.376 -1.89263 -57
    endloop
  endfacet
  facet normal -0.994056 -0.108868 0
    outer loop
      vertex -14.376 -1.89263 -57
      vertex -14.4448 -1.26376 57
      vertex -14.4448 -1.26376 -57
    endloop
  endfacet
  facet normal -0.997859 -0.0654028 0
    outer loop
      vertex -14.4448 -1.26376 57
      vertex -14.4862 -0.632481 57
      vertex -14.4448 -1.26376 -57
    endloop
  endfacet
  facet normal -0.997859 -0.0654028 0
    outer loop
      vertex -14.4448 -1.26376 -57
      vertex -14.4862 -0.632481 57
      vertex -14.4862 -0.632481 -57
    endloop
  endfacet
  facet normal -0.999762 -0.0218142 0
    outer loop
      vertex -14.4862 -0.632481 57
      vertex -14.5 8.87869e-16 57
      vertex -14.4862 -0.632481 -57
    endloop
  endfacet
  facet normal -0.999762 -0.0218142 0
    outer loop
      vertex -14.4862 -0.632481 -57
      vertex -14.5 8.87869e-16 57
      vertex -14.5 8.87869e-16 -57
    endloop
  endfacet
  facet normal -0.999762 0.0218142 0
    outer loop
      vertex -14.5 8.87869e-16 57
      vertex -14.4862 0.632481 57
      vertex -14.5 8.87869e-16 -57
    endloop
  endfacet
  facet normal 0 0 1
    outer loop
      vertex 14.4448 -1.26376 57
      vertex 14.4862 -0.632481 57
      vertex 0 8.87869e-16 57
    endloop
  endfacet
  facet normal 0 0 1
    outer loop
      vertex 14.4862 -0.632481 57
      vertex 14.5 6.21508e-15 57
      vertex 0 8.87869e-16 57
    endloop
  endfacet
  facet normal 0 0 1
    outer loop
      vertex 0 8.87869e-16 57
      vertex 14.5 6.21508e-15 57
      vertex 14.4862 0.632481 57
    endloop
  endfacet
  facet normal 0 0 1
    outer loop
      vertex 14.1563 -3.13837 57
      vertex 14.2797 -2.5179 57
      vertex 0 8.87869e-16 57
    endloop
  endfacet
  facet normal 0 0 1
    outer loop
      vertex 14.2797 -2.5179 57
      vertex 14.376 -1.89263 57
      vertex 0 8.87869e-16 57
    endloop
  endfacet
  facet normal 0 0 1
    outer loop
      vertex 0 8.87869e-16 57
      vertex 14.376 -1.89263 57
      vertex 14.4448 -1.26376 57
    endloop
  endfacet
  facet normal 0 0 1
    outer loop
      vertex 13.6255 -4.95929 57
      vertex 13.8289 -4.36023 57
      vertex 0 8.87869e-16 57
    endloop
  endfacet
  facet normal 0 0 1
    outer loop
      vertex 13.8289 -4.36023 57
      vertex 14.0059 -3.75288 57
      vertex 0 8.87869e-16 57
    endloop
  endfacet
  facet normal 0 0 1
    outer loop
      vertex 0 8.87869e-16 57
      vertex 14.0059 -3.75288 57
      vertex 14.1563 -3.13837 57
    endloop
  endfacet
  facet normal 0 0 1
    outer loop
      vertex 12.8617 -6.69535 57
      vertex 13.1415 -6.12796 57
      vertex 0 8.87869e-16 57
    endloop
  endfacet
  facet normal 0 0 1
    outer loop
      vertex 13.1415 -6.12796 57
      vertex 13.3963 -5.54891 57
      vertex 0 8.87869e-16 57
    endloop
  endfacet
  facet normal 0 0 1
    outer loop
      vertex 0 8.87869e-16 57
      vertex 13.3963 -5.54891 57
      vertex 13.6255 -4.95929 57
    endloop
  endfacet
  facet normal 0 0 1
    outer loop
      vertex 11.8777 -8.31686 57
      vertex 12.2292 -7.79084 57
      vertex 0 8.87869e-16 57
    endloop
  endfacet
  facet normal 0 0 1
    outer loop
      vertex 12.2292 -7.79084 57
      vertex 12.5574 -7.25 57
      vertex 0 8.87869e-16 57
    endloop
  endfacet
  facet normal 0 0 1
    outer loop
      vertex 0 8.87869e-16 57
      vertex 12.5574 -7.25 57
      vertex 12.8617 -6.69535 57
    endloop
  endfacet
  facet normal 0 0 1
    outer loop
      vertex 10.6905 -9.79606 57
      vertex 11.1076 -9.32042 57
      vertex 0 8.87869e-16 57
    endloop
  endfacet
  facet normal 0 0 1
    outer loop
      vertex 11.1076 -9.32042 57
      vertex 11.5036 -8.82704 57
      vertex 0 8.87869e-16 57
    endloop
  endfacet
  facet normal 0 0 1
    outer loop
      vertex 0 8.87869e-16 57
      vertex 11.5036 -8.82704 57
      vertex 11.8777 -8.31686 57
    endloop
  endfacet
  facet normal 0 0 1
    outer loop
      vertex 9.32042 -11.1076 57
      vertex 9.79606 -10.6905 57
      vertex 0 8.87869e-16 57
    endloop
  endfacet
  facet normal 0 0 1
    outer loop
      vertex 9.79606 -10.6905 57
      vertex 10.253 -10.253 57
      vertex 0 8.87869e-16 57
    endloop
  endfacet
  facet normal 0 0 1
    outer loop
      vertex 0 8.87869e-16 57
      vertex 10.253 -10.253 57
      vertex 10.6905 -9.79606 57
    endloop
  endfacet
  facet normal 0 0 1
    outer loop
      vertex 7.79084 -12.2292 57
      vertex 8.31686 -11.8777 57
      vertex 0 8.87869e-16 57
    endloop
  endfacet
  facet normal 0 0 1
    outer loop
      vertex 8.31686 -11.8777 57
      vertex 8.82704 -11.5036 57
      vertex 0 8.87869e-16 57
    endloop
  endfacet
  facet normal 0 0 1
    outer loop
      vertex 0 8.87869e-16 57
      vertex 8.82704 -11.5036 57
      vertex 9.32042 -11.1076 57
    endloop
  endfacet
  facet normal 0 0 1
    outer loop
      vertex 6.12796 -13.1415 57
      vertex 6.69535 -12.8617 57
      vertex 0 8.87869e-16 57
    endloop
  endfacet
  facet normal 0 0 1
    outer loop
      vertex 6.69535 -12.8617 57
      vertex 7.25 -12.5574 57
      vertex 0 8.87869e-16 57
    endloop
  endfacet
  facet normal 0 0 1
    outer loop
      vertex 0 8.87869e-16 57
      vertex 7.25 -12.5574 57
      vertex 7.79084 -12.2292 57
    endloop
  endfacet
  facet normal 0 0 1
    outer loop
      vertex 4.36023 -13.8289 57
      vertex 4.95929 -13.6255 57
      vertex 0 8.87869e-16 57
    endloop
  endfacet
  facet normal 0 0 1
    outer loop
      vertex 4.95929 -13.6255 57
      vertex 5.54891 -13.3963 57
      vertex 0 8.87869e-16 57
    endloop
  endfacet
  facet normal 0 0 1
    outer loop
      vertex 0 8.87869e-16 57
      vertex 5.54891 -13.3963 57
      vertex 6.12796 -13.1415 57
    endloop
  endfacet
  facet normal 0 0 1
    outer loop
      vertex 2.5179 -14.2797 57
      vertex 3.13837 -14.1563 57
      vertex 0 8.87869e-16 57
    endloop
  endfacet
  facet normal 0 0 1
    outer loop
      vertex 3.13837 -14.1563 57
      vertex 3.75288 -14.0059 57
      vertex 0 8.87869e-16 57
    endloop
  endfacet
  facet normal 0 0 1
    outer loop
      vertex 0 8.87869e-16 57
      vertex 3.75288 -14.0059 57
      vertex 4.36023 -13.8289 57
    endloop
  endfacet
  facet normal 0 0 1
    outer loop
      vertex 0.632481 -14.4862 57
      vertex 1.26376 -14.4448 57
      vertex 0 8.87869e-16 57
    endloop
  endfacet
  facet normal 0 0 1
    outer loop
      vertex 1.26376 -14.4448 57
      vertex 1.89263 -14.376 57
      vertex 0 8.87869e-16 57
    endloop
  endfacet
  facet normal 0 0 1
    outer loop
      vertex 0 8.87869e-16 57
      vertex 1.89263 -14.376 57
      vertex 2.5179 -14.2797 57
    endloop
  endfacet
  facet normal 0 0 1
    outer loop
      vertex -1.26376 -14.4448 57
      vertex -0.632481 -14.4862 57
      vertex 0 8.87869e-16 57
    endloop
  endfacet
  facet normal 0 0 1
    outer loop
      vertex -0.632481 -14.4862 57
      vertex 2.66361e-15 -14.5 57
      vertex 0 8.87869e-16 57
    endloop
  endfacet
  facet normal 0 0 1
    outer loop
      vertex 0 8.87869e-16 57
      vertex 2.66361e-15 -14.5 57
      vertex 0.632481 -14.4862 57
    endloop
  endfacet
  facet normal 0 0 1
    outer loop
      vertex -3.13837 -14.1563 57
      vertex -2.5179 -14.2797 57
      vertex 0 8.87869e-16 57
    endloop
  endfacet
  facet normal 0 0 1
    outer loop
      vertex -2.5179 -14.2797 57
      vertex -1.89263 -14.376 57
      vertex 0 8.87869e-16 57
    endloop
  endfacet
  facet normal 0 0 1
    outer loop
      vertex 0 8.87869e-16 57
      vertex -1.89263 -14.376 57
      vertex -1.26376 -14.4448 57
    endloop
  endfacet
  facet normal 0 0 1
    outer loop
      vertex -4.95929 -13.6255 57
      vertex -4.36023 -13.8289 57
      vertex 0 8.87869e-16 57
    endloop
  endfacet
  facet normal 0 0 1
    outer loop
      vertex -4.36023 -13.8289 57
      vertex -3.75288 -14.0059 57
      vertex 0 8.87869e-16 57
    endloop
  endfacet
  facet normal 0 0 1
    outer loop
      vertex 0 8.87869e-16 57
      vertex -3.75288 -14.0059 57
      vertex -3.13837 -14.1563 57
    endloop
  endfacet
  facet normal 0 0 1
    outer loop
      vertex -6.69535 -12.8617 57
      vertex -6.12796 -13.1415 57
      vertex 0 8.87869e-16 57
    endloop
  endfacet
  facet normal 0 0 1
    outer loop
      vertex -6.12796 -13.1415 57
      vertex -5.54891 -13.3963 57
      vertex 0 8.87869e-16 57
    endloop
  endfacet
  facet normal 0 0 1
    outer loop
      vertex 0 8.87869e-16 57
      vertex -5.54891 -13.3963 57
      vertex -4.95929 -13.6255 57
    endloop
  endfacet
  facet normal 0 0 1
    outer loop
      vertex -8.31686 -11.8777 57
      vertex -7.79084 -12.2292 57
      vertex 0 8.87869e-16 57
    endloop
  endfacet
  facet normal 0 0 1
    outer loop
      vertex -7.79084 -12.2292 57
      vertex -7.25 -12.5574 57
      vertex 0 8.87869e-16 57
    endloop
  endfacet
  facet normal 0 0 1
    outer loop
      vertex 0 8.87869e-16 57
      vertex -7.25 -12.5574 57
      vertex -6.69535 -12.8617 57
    endloop
  endfacet
  facet normal 0 0 1
    outer loop
      vertex -9.79606 -10.6905 57
      vertex -9.32042 -11.1076 57
      vertex 0 8.87869e-16 57
    endloop
  endfacet
  facet normal 0 0 1
    outer loop
      vertex -9.32042 -11.1076 57
      vertex -8.82704 -11.5036 57
      vertex 0 8.87869e-16 57
    endloop
  endfacet
  facet normal 0 0 1
    outer loop
      vertex 0 8.87869e-16 57
      vertex -8.82704 -11.5036 57
      vertex -8.31686 -11.8777 57
    endloop
  endfacet
  facet normal 0 0 1
    outer loop
      vertex -11.1076 -9.32042 57
      vertex -10.6905 -9.79606 57
      vertex 0 8.87869e-16 57
    endloop
  endfacet
  facet normal 0 0 1
    outer loop
      vertex -10.6905 -9.79606 57
      vertex -10.253 -10.253 57
      vertex 0 8.87869e-16 57
    endloop
  endfacet
  facet normal 0 0 1
    outer loop
      vertex 0 8.87869e-16 57
      vertex -10.253 -10.253 57
      vertex -9.79606 -10.6905 57
    endloop
  endfacet
  facet normal 0 0 1
    outer loop
      vertex -12.2292 -7.79084 57
      vertex -11.8777 -8.31686 57
      vertex 0 8.87869e-16 57
    endloop
  endfacet
  facet normal 0 0 1
    outer loop
      vertex -11.8777 -8.31686 57
      vertex -11.5036 -8.82704 57
      vertex 0 8.87869e-16 57
    endloop
  endfacet
  facet normal 0 0 1
    outer loop
      vertex 0 8.87869e-16 57
      vertex -11.5036 -8.82704 57
      vertex -11.1076 -9.32042 57
    endloop
  endfacet
  facet normal 0 0 1
    outer loop
      vertex -13.1415 -6.12796 57
      vertex -12.8617 -6.69535 57
      vertex 0 8.87869e-16 57
    endloop
  endfacet
  facet normal 0 0 1
    outer loop
      vertex -12.8617 -6.69535 57
      vertex -12.5574 -7.25 57
      vertex 0 8.87869e-16 57
    endloop
  endfacet
  facet normal 0 0 1
    outer loop
      vertex 0 8.87869e-16 57
      vertex -12.5574 -7.25 57
      vertex -12.2292 -7.79084 57
    endloop
  endfacet
  facet normal 0 0 1
    outer loop
      vertex -13.8289 -4.36023 57
      vertex -13.6255 -4.95929 57
      vertex 0 8.87869e-16 57
    endloop
  endfacet
  facet normal 0 0 1
    outer loop
      vertex -13.6255 -4.95929 57
      vertex -13.3963 -5.54891 57
      vertex 0 8.87869e-16 57
    endloop
  endfacet
  facet normal 0 0 1
    outer loop
      vertex 0 8.87869e-16 57
      vertex -13.3963 -5.54891 57
      vertex -13.1415 -6.12796 57
    endloop
  endfacet
  facet normal 0 0 1
    outer loop
      vertex -14.2797 -2.5179 57
      vertex -14.1563 -3.13837 57
      vertex 0 8.87869e-16 57
    endloop
  endfacet
  facet normal 0 0 1
    outer loop
      vertex -14.1563 -3.13837 57
      vertex -14.0059 -3.75288 57
      vertex 0 8.87869e-16 57
    endloop
  endfacet
  facet normal 0 0 1
    outer loop
      vertex 0 8.87869e-16 57
      vertex -14.0059 -3.75288 57
      vertex -13.8289 -4.36023 57
    endloop
  endfacet
  facet normal 0 0 1
    outer loop
      vertex -14.4862 -0.632481 57
      vertex -14.4448 -1.26376 57
      vertex 0 8.87869e-16 57
    endloop
  endfacet
  facet normal 0 0 1
    outer loop
      vertex -14.4448 -1.26376 57
      vertex -14.376 -1.89263 57
      vertex 0 8.87869e-16 57
    endloop
  endfacet
  facet normal 0 0 1
    outer loop
      vertex 0 8.87869e-16 57
      vertex -14.376 -1.89263 57
      vertex -14.2797 -2.5179 57
    endloop
  endfacet
  facet normal 0 0 1
    outer loop
      vertex -14.4448 1.26376 57
      vertex -14.4862 0.632481 57
      vertex 0 8.87869e-16 57
    endloop
  endfacet
  facet normal 0 0 1
    outer loop
      vertex -14.4862 0.632481 57
      vertex -14.5 8.87869e-16 57
      vertex 0 8.87869e-16 57
    endloop
  endfacet
  facet normal 0 0 1
    outer loop
      vertex 0 8.87869e-16 57
      vertex -14.5 8.87869e-16 57
      vertex -14.4862 -0.632481 57
    endloop
  endfacet
  facet normal 0 0 1
    outer loop
      vertex -14.1563 3.13837 57
      vertex -14.2797 2.5179 57
      vertex 0 8.87869e-16 57
    endloop
  endfacet
  facet normal 0 0 1
    outer loop
      vertex -14.2797 2.5179 57
      vertex -14.376 1.89263 57
      vertex 0 8.87869e-16 57
    endloop
  endfacet
  facet normal 0 0 1
    outer loop
      vertex 0 8.87869e-16 57
      vertex -14.376 1.89263 57
      vertex -14.4448 1.26376 57
    endloop
  endfacet
  facet normal 0 0 1
    outer loop
      vertex -13.6255 4.95929 57
      vertex -13.8289 4.36023 57
      vertex 0 8.87869e-16 57
    endloop
  endfacet
  facet normal 0 0 1
    outer loop
      vertex -13.8289 4.36023 57
      vertex -14.0059 3.75288 57
      vertex 0 8.87869e-16 57
    endloop
  endfacet
  facet normal 0 0 1
    outer loop
      vertex 0 8.87869e-16 57
      vertex -14.0059 3.75288 57
      vertex -14.1563 3.13837 57
    endloop
  endfacet
  facet normal 0 0 1
    outer loop
      vertex -12.8617 6.69535 57
      vertex -13.1415 6.12796 57
      vertex 0 8.87869e-16 57
    endloop
  endfacet
  facet normal 0 0 1
    outer loop
      vertex -13.1415 6.12796 57
      vertex -13.3963 5.54891 57
      vertex 0 8.87869e-16 57
    endloop
  endfacet
  facet normal 0 0 1
    outer loop
      vertex 0 8.87869e-16 57
      vertex -13.3963 5.54891 57
      vertex -13.6255 4.95929 57
    endloop
  endfacet
  facet normal 0 0 1
    outer loop
      vertex -11.8777 8.31686 57
      vertex -12.2292 7.79084 57
      vertex 0 8.87869e-16 57
    endloop
  endfacet
  facet normal 0 0 1
    outer loop
      vertex -12.2292 7.79084 57
      vertex -12.5574 7.25 57
      vertex 0 8.87869e-16 57
    endloop
  endfacet
  facet normal 0 0 1
    outer loop
      vertex 0 8.87869e-16 57
      vertex -12.5574 7.25 57
      vertex -12.8617 6.69535 57
    endloop
  endfacet
  facet normal 0 0 1
    outer loop
      vertex -10.6905 9.79606 57
      vertex -11.1076 9.32042 57
      vertex 0 8.87869e-16 57
    endloop
  endfacet
  facet normal 0 0 1
    outer loop
      vertex -11.1076 9.32042 57
      vertex -11.5036 8.82704 57
      vertex 0 8.87869e-16 57
    endloop
  endfacet
  facet normal 0 0 1
    outer loop
      vertex 0 8.87869e-16 57
      vertex -11.5036 8.82704 57
      vertex -11.8777 8.31686 57
    endloop
  endfacet
  facet normal 0 0 1
    outer loop
      vertex -9.32042 11.1076 57
      vertex -9.79606 10.6905 57
      vertex 0 8.87869e-16 57
    endloop
  endfacet
  facet normal 0 0 1
    outer loop
      vertex -9.79606 10.6905 57
      vertex -10.253 10.253 57
      vertex 0 8.87869e-16 57
    endloop
  endfacet
  facet normal 0 0 1
    outer loop
      vertex 0 8.87869e-16 57
      vertex -10.253 10.253 57
      vertex -10.6905 9.79606 57
    endloop
  endfacet
  facet normal 0 0 1
    outer loop
      vertex -7.79084 12.2292 57
      vertex -8.31686 11.8777 57
      vertex 0 8.87869e-16 57
    endloop
  endfacet
  facet normal 0 0 1
    outer loop
      vertex -8.31686 11.8777 57
      vertex -8.82704 11.5036 57
      vertex 0 8.87869e-16 57
    endloop
  endfacet
  facet normal 0 0 1
    outer loop
      vertex 0 8.87869e-16 57
      vertex -8.82704 11.5036 57
      vertex -9.32042 11.1076 57
    endloop
  endfacet
  facet normal 0 0 1
    outer loop
      vertex -6.12796 13.1415 57
      vertex -6.69535 12.8617 57
      vertex 0 8.87869e-16 57
    endloop
  endfacet
  facet normal 0 0 1
    outer loop
      vertex -6.69535 12.8617 57
      vertex -7.25 12.5574 57
      vertex 0 8.87869e-16 57
    endloop
  endfacet
  facet normal 0 0 1
    outer loop
      vertex 0 8.87869e-16 57
      vertex -7.25 12.5574 57
      vertex -7.79084 12.2292 57
    endloop
  endfacet
  facet normal 0 0 1
    outer loop
      vertex -4.36023 13.8289 57
      vertex -4.95929 13.6255 57
      vertex 0 8.87869e-16 57
    endloop
  endfacet
  facet normal 0 0 1
    outer loop
      vertex -4.95929 13.6255 57
      vertex -5.54891 13.3963 57
      vertex 0 8.87869e-16 57
    endloop
  endfacet
  facet normal 0 0 1
    outer loop
      vertex 0 8.87869e-16 57
      vertex -5.54891 13.3963 57
      vertex -6.12796 13.1415 57
    endloop
  endfacet
  facet normal 0 0 1
    outer loop
      vertex -2.5179 14.2797 57
      vertex -3.13837 14.1563 57
      vertex 0 8.87869e-16 57
    endloop
  endfacet
  facet normal 0 0 1
    outer loop
      vertex -3.13837 14.1563 57
      vertex -3.75288 14.0059 57
      vertex 0 8.87869e-16 57
    endloop
  endfacet
  facet normal 0 0 1
    outer loop
      vertex 0 8.87869e-16 57
      vertex -3.75288 14.0059 57
      vertex -4.36023 13.8289 57
    endloop
  endfacet
  facet normal 0 0 1
    outer loop
      vertex -0.632481 14.4862 57
      vertex -1.26376 14.4448 57
      vertex 0 8.87869e-16 57
    endloop
  endfacet
  facet normal 0 0 1
    outer loop
      vertex -1.26376 14.4448 57
      vertex -1.89263 14.376 57
      vertex 0 8.87869e-16 57
    endloop
  endfacet
  facet normal 0 0 1
    outer loop
      vertex 0 8.87869e-16 57
      vertex -1.89263 14.376 57
      vertex -2.5179 14.2797 57
    endloop
  endfacet
  facet normal 0 0 1
    outer loop
      vertex 1.26376 14.4448 57
      vertex 0.632481 14.4862 57
      vertex 0 8.87869e-16 57
    endloop
  endfacet
  facet normal 0 0 1
    outer loop
      vertex 0.632481 14.4862 57
      vertex -8.87869e-16 14.5 57
      vertex 0 8.87869e-16 57
    endloop
  endfacet
  facet normal 0 0 1
    outer loop
      vertex 0 8.87869e-16 57
      vertex -8.87869e-16 14.5 57
      vertex -0.632481 14.4862 57
    endloop
  endfacet
  facet normal 0 0 1
    outer loop
      vertex 3.13837 14.1563 57
      vertex 2.5179 14.2797 57
      vertex 0 8.87869e-16 57
    endloop
  endfacet
  facet normal 0 0 1
    outer loop
      vertex 2.5179 14.2797 57
      vertex 1.89263 14.376 57
      vertex 0 8.87869e-16 57
    endloop
  endfacet
  facet normal 0 0 1
    outer loop
      vertex 0 8.87869e-16 57
      vertex 1.89263 14.376 57
      vertex 1.26376 14.4448 57
    endloop
  endfacet
  facet normal 0 0 1
    outer loop
      vertex 4.95929 13.6255 57
      vertex 4.36023 13.8289 57
      vertex 0 8.87869e-16 57
    endloop
  endfacet
  facet normal 0 0 1
    outer loop
      vertex 4.36023 13.8289 57
      vertex 3.75288 14.0059 57
      vertex 0 8.87869e-16 57
    endloop
  endfacet
  facet normal 0 0 1
    outer loop
      vertex 0 8.87869e-16 57
      vertex 3.75288 14.0059 57
      vertex 3.13837 14.1563 57
    endloop
  endfacet
  facet normal 0 0 1
    outer loop
      vertex 6.69535 12.8617 57
      vertex 6.12796 13.1415 57
      vertex 0 8.87869e-16 57
    endloop
  endfacet
  facet normal 0 0 1
    outer loop
      vertex 6.12796 13.1415 57
      vertex 5.54891 13.3963 57
      vertex 0 8.87869e-16 57
    endloop
  endfacet
  facet normal 0 0 1
    outer loop
      vertex 0 8.87869e-16 57
      vertex 5.54891 13.3963 57
      vertex 4.95929 13.6255 57
    endloop
  endfacet
  facet normal 0 0 1
    outer loop
      vertex 8.31686 11.8777 57
      vertex 7.79084 12.2292 57
      vertex 0 8.87869e-16 57
    endloop
  endfacet
  facet normal 0 0 1
    outer loop
      vertex 7.79084 12.2292 57
      vertex 7.25 12.5574 57
      vertex 0 8.87869e-16 57
    endloop
  endfacet
  facet normal 0 0 1
    outer loop
      vertex 0 8.87869e-16 57
      vertex 7.25 12.5574 57
      vertex 6.69535 12.8617 57
    endloop
  endfacet
  facet normal 0 0 1
    outer loop
      vertex 9.79606 10.6905 57
      vertex 9.32042 11.1076 57
      vertex 0 8.87869e-16 57
    endloop
  endfacet
  facet normal 0 0 1
    outer loop
      vertex 9.32042 11.1076 57
      vertex 8.82704 11.5036 57
      vertex 0 8.87869e-16 57
    endloop
  endfacet
  facet normal 0 0 1
    outer loop
      vertex 0 8.87869e-16 57
      vertex 8.82704 11.5036 57
      vertex 8.31686 11.8777 57
    endloop
  endfacet
  facet normal 0 0 1
    outer loop
      vertex 11.1076 9.32042 57
      vertex 10.6905 9.79606 57
      vertex 0 8.87869e-16 57
    endloop
  endfacet
  facet normal 0 0 1
    outer loop
      vertex 10.6905 9.79606 57
      vertex 10.253 10.253 57
      vertex 0 8.87869e-16 57
    endloop
  endfacet
  facet normal 0 0 1
    outer loop
      vertex 0 8.87869e-16 57
      vertex 10.253 10.253 57
      vertex 9.79606 10.6905 57
    endloop
  endfacet
  facet normal 0 0 1
    outer loop
      vertex 12.2292 7.79084 57
      vertex 11.8777 8.31686 57
      vertex 0 8.87869e-16 57
    endloop
  endfacet
  facet normal 0 0 1
    outer loop
      vertex 11.8777 8.31686 57
      vertex 11.5036 8.82704 57
      vertex 0 8.87869e-16 57
    endloop
  endfacet
  facet normal 0 0 1
    outer loop
      vertex 0 8.87869e-16 57
      vertex 11.5036 8.82704 57
      vertex 11.1076 9.32042 57
    endloop
  endfacet
  facet normal 0 0 1
    outer loop
      vertex 13.1415 6.12796 57
      vertex 12.8617 6.69535 57
      vertex 0 8.87869e-16 57
    endloop
  endfacet
  facet normal 0 0 1
    outer loop
      vertex 12.8617 6.69535 57
      vertex 12.5574 7.25 57
      vertex 0 8.87869e-16 57
    endloop
  endfacet
  facet normal 0 0 1
    outer loop
      vertex 0 8.87869e-16 57
      vertex 12.5574 7.25 57
      vertex 12.2292 7.79084 57
    endloop
  endfacet
  facet normal 0 0 1
    outer loop
      vertex 13.8289 4.36023 57
      vertex 13.6255 4.95929 57
      vertex 0 8.87869e-16 57
    endloop
  endfacet
  facet normal 0 0 1
    outer loop
      vertex 13.6255 4.95929 57
      vertex 13.3963 5.54891 57
      vertex 0 8.87869e-16 57
    endloop
  endfacet
  facet normal 0 0 1
    outer loop
      vertex 0 8.87869e-16 57
      vertex 13.3963 5.54891 57
      vertex 13.1415 6.12796 57
    endloop
  endfacet
  facet normal 0 0 1
    outer loop
      vertex 14.2797 2.5179 57
      vertex 14.1563 3.13837 57
      vertex 0 8.87869e-16 57
    endloop
  endfacet
  facet normal 0 0 1
    outer loop
      vertex 14.1563 3.13837 57
      vertex 14.0059 3.75288 57
      vertex 0 8.87869e-16 57
    endloop
  endfacet
  facet normal 0 0 1
    outer loop
      vertex 0 8.87869e-16 57
      vertex 14.0059 3.75288 57
      vertex 13.8289 4.36023 57
    endloop
  endfacet
  facet normal 0 0 1
    outer loop
      vertex 14.4862 0.632481 57
      vertex 14.4448 1.26376 57
      vertex 0 8.87869e-16 57
    endloop
  endfacet
  facet normal 0 0 1
    outer loop
      vertex 14.4448 1.26376 57
      vertex 14.376 1.89263 57
      vertex 0 8.87869e-16 57
    endloop
  endfacet
  facet normal 0 0 1
    outer loop
      vertex 0 8.87869e-16 57
      vertex 14.376 1.89263 57
      vertex 14.2797 2.5179 57
    endloop
  endfacet
endsolid Mesh
