solid Mesh
  facet normal 0 0 -1
    outer loop
      vertex 14.5 2.66361e-15 -57
      vertex 14.415 -1.56773 -57
      vertex 0 8.87869e-16 -57
    endloop
  endfacet
  facet normal 0 0 -1
    outer loop
      vertex 13.741 4.62987 -57
      vertex 14.161 3.11707 -57
      vertex 0 8.87869e-16 -57
    endloop
  endfacet
  facet normal 0 0 -1
    outer loop
      vertex 14.161 3.11707 -57
      vertex 14.415 1.56773 -57
      vertex 0 8.87869e-16 -57
    endloop
  endfacet
  facet normal 0 0 -1
    outer loop
      vertex 0 8.87869e-16 -57
      vertex 14.415 1.56773 -57
      vertex 14.5 2.66361e-15 -57
    endloop
  endfacet
  facet normal 0 0 -1
    outer loop
      vertex 11.5433 8.77503 -57
      vertex 12.4244 7.47553 -57
      vertex 0 8.87869e-16 -57
    endloop
  endfacet
  facet normal 0 0 -1
    outer loop
      vertex 12.4244 7.47553 -57
      vertex 13.1598 6.08839 -57
      vertex 0 8.87869e-16 -57
    endloop
  endfacet
  facet normal 0 0 -1
    outer loop
      vertex 0 8.87869e-16 -57
      vertex 13.1598 6.08839 -57
      vertex 13.741 4.62987 -57
    endloop
  endfacet
  facet normal 0 0 -1
    outer loop
      vertex 8.13721 12.0015 -57
      vertex 9.3871 11.0513 -57
      vertex 0 8.87869e-16 -57
    endloop
  endfacet
  facet normal 0 0 -1
    outer loop
      vertex 9.3871 11.0513 -57
      vertex 10.5269 9.97164 -57
      vertex 0 8.87869e-16 -57
    endloop
  endfacet
  facet normal 0 0 -1
    outer loop
      vertex 0 8.87869e-16 -57
      vertex 10.5269 9.97164 -57
      vertex 11.5433 8.77503 -57
    endloop
  endfacet
  facet normal 0 0 -1
    outer loop
      vertex 3.87916 13.9715 -57
      vertex 5.367 13.4702 -57
      vertex 0 8.87869e-16 -57
    endloop
  endfacet
  facet normal 0 0 -1
    outer loop
      vertex 5.367 13.4702 -57
      vertex 6.79192 12.8109 -57
      vertex 0 8.87869e-16 -57
    endloop
  endfacet
  facet normal 0 0 -1
    outer loop
      vertex 0 8.87869e-16 -57
      vertex 6.79192 12.8109 -57
      vertex 8.13721 12.0015 -57
    endloop
  endfacet
  facet normal 0 0 -1
    outer loop
      vertex -0.785014 14.4787 -57
      vertex 0.785014 14.4787 -57
      vertex 0 8.87869e-16 -57
    endloop
  endfacet
  facet normal 0 0 -1
    outer loop
      vertex 0.785014 14.4787 -57
      vertex 2.34584 14.309 -57
      vertex 0 8.87869e-16 -57
    endloop
  endfacet
  facet normal 0 0 -1
    outer loop
      vertex 0 8.87869e-16 -57
      vertex 2.34584 14.309 -57
      vertex 3.87916 13.9715 -57
    endloop
  endfacet
  facet normal 0 0 -1
    outer loop
      vertex -5.367 13.4702 -57
      vertex -3.87916 13.9715 -57
      vertex 0 8.87869e-16 -57
    endloop
  endfacet
  facet normal 0 0 -1
    outer loop
      vertex -3.87916 13.9715 -57
      vertex -2.34584 14.309 -57
      vertex 0 8.87869e-16 -57
    endloop
  endfacet
  facet normal 0 0 -1
    outer loop
      vertex 0 8.87869e-16 -57
      vertex -2.34584 14.309 -57
      vertex -0.785014 14.4787 -57
    endloop
  endfacet
  facet normal 0 0 -1
    outer loop
      vertex -9.3871 11.0513 -57
      vertex -8.13721 12.0015 -57
      vertex 0 8.87869e-16 -57
    endloop
  endfacet
  facet normal 0 0 -1
    outer loop
      vertex -8.13721 12.0015 -57
      vertex -6.79192 12.8109 -57
      vertex 0 8.87869e-16 -57
    endloop
  endfacet
  facet normal 0 0 -1
    outer loop
      vertex 0 8.87869e-16 -57
      vertex -6.79192 12.8109 -57
      vertex -5.367 13.4702 -57
    endloop
  endfacet
  facet normal 0 0 -1
    outer loop
      vertex -12.4244 7.47553 -57
      vertex -11.5433 8.77503 -57
      vertex 0 8.87869e-16 -57
    endloop
  endfacet
  facet normal 0 0 -1
    outer loop
      vertex -11.5433 8.77503 -57
      vertex -10.5269 9.97164 -57
      vertex 0 8.87869e-16 -57
    endloop
  endfacet
  facet normal 0 0 -1
    outer loop
      vertex 0 8.87869e-16 -57
      vertex -10.5269 9.97164 -57
      vertex -9.3871 11.0513 -57
    endloop
  endfacet
  facet normal 0 0 -1
    outer loop
      vertex -14.161 3.11707 -57
      vertex -13.741 4.62987 -57
      vertex 0 8.87869e-16 -57
    endloop
  endfacet
  facet normal 0 0 -1
    outer loop
      vertex -13.741 4.62987 -57
      vertex -13.1598 6.08839 -57
      vertex 0 8.87869e-16 -57
    endloop
  endfacet
  facet normal 0 0 -1
    outer loop
      vertex 0 8.87869e-16 -57
      vertex -13.1598 6.08839 -57
      vertex -12.4244 7.47553 -57
    endloop
  endfacet
  facet normal 0 0 -1
    outer loop
      vertex -14.415 -1.56773 -57
      vertex -14.5 8.87869e-16 -57
      vertex 0 8.87869e-16 -57
    endloop
  endfacet
  facet normal 0 0 -1
    outer loop
      vertex -14.5 8.87869e-16 -57
      vertex -14.415 1.56773 -57
      vertex 0 8.87869e-16 -57
    endloop
  endfacet
  facet normal 0 0 -1
    outer loop
      vertex 0 8.87869e-16 -57
      vertex -14.415 1.56773 -57
      vertex -14.161 3.11707 -57
    endloop
  endfacet
  facet normal 0 0 -1
    outer loop
      vertex -13.1598 -6.08839 -57
      vertex -13.741 -4.62987 -57
      vertex 0 8.87869e-16 -57
    endloop
  endfacet
  facet normal 0 0 -1
    outer loop
      vertex -13.741 -4.62987 -57
      vertex -14.161 -3.11707 -57
      vertex 0 8.87869e-16 -57
    endloop
  endfacet
  facet normal 0 0 -1
    outer loop
      vertex 0 8.87869e-16 -57
      vertex -14.161 -3.11707 -57
      vertex -14.415 -1.56773 -57
    endloop
  endfacet
  facet normal 0 0 -1
    outer loop
      vertex -10.5269 -9.97164 -57
      vertex -11.5433 -8.77503 -57
      vertex 0 8.87869e-16 -57
    endloop
  endfacet
  facet normal 0 0 -1
    outer loop
      vertex -11.5433 -8.77503 -57
      vertex -12.4244 -7.47553 -57
      vertex 0 8.87869e-16 -57
    endloop
  endfacet
  facet normal 0 0 -1
    outer loop
      vertex 0 8.87869e-16 -57
      vertex -12.4244 -7.47553 -57
      vertex -13.1598 -6.08839 -57
    endloop
  endfacet
  facet normal 0 0 -1
    outer loop
      vertex -6.79192 -12.8109 -57
      vertex -8.13721 -12.0015 -57
      vertex 0 8.87869e-16 -57
    endloop
  endfacet
  facet normal 0 0 -1
    outer loop
      vertex -8.13721 -12.0015 -57
      vertex -9.3871 -11.0513 -57
      vertex 0 8.87869e-16 -57
    endloop
  endfacet
  facet normal 0 0 -1
    outer loop
      vertex 0 8.87869e-16 -57
      vertex -9.3871 -11.0513 -57
      vertex -10.5269 -9.97164 -57
    endloop
  endfacet
  facet normal 0 0 -1
    outer loop
      vertex -2.34584 -14.309 -57
      vertex -3.87916 -13.9715 -57
      vertex 0 8.87869e-16 -57
    endloop
  endfacet
  facet normal 0 0 -1
    outer loop
      vertex -3.87916 -13.9715 -57
      vertex -5.367 -13.4702 -57
      vertex 0 8.87869e-16 -57
    endloop
  endfacet
  facet normal 0 0 -1
    outer loop
      vertex 0 8.87869e-16 -57
      vertex -5.367 -13.4702 -57
      vertex -6.79192 -12.8109 -57
    endloop
  endfacet
  facet normal 0 0 -1
    outer loop
      vertex 2.34584 -14.309 -57
      vertex 0.785014 -14.4787 -57
      vertex 0 8.87869e-16 -57
    endloop
  endfacet
  facet normal 0 0 -1
    outer loop
      vertex 0.785014 -14.4787 -57
      vertex -0.785014 -14.4787 -57
      vertex 0 8.87869e-16 -57
    endloop
  endfacet
  facet normal 0 0 -1
    outer loop
      vertex 0 8.87869e-16 -57
      vertex -0.785014 -14.4787 -57
      vertex -2.34584 -14.309 -57
    endloop
  endfacet
  facet normal 0 0 -1
    outer loop
      vertex 6.79192 -12.8109 -57
      vertex 5.367 -13.4702 -57
      vertex 0 8.87869e-16 -57
    endloop
  endfacet
  facet normal 0 0 -1
    outer loop
      vertex 5.367 -13.4702 -57
      vertex 3.87916 -13.9715 -57
      vertex 0 8.87869e-16 -57
    endloop
  endfacet
  facet normal 0 0 -1
    outer loop
      vertex 0 8.87869e-16 -57
      vertex 3.87916 -13.9715 -57
      vertex 2.34584 -14.309 -57
    endloop
  endfacet
  facet normal 0 0 -1
    outer loop
      vertex 10.5269 -9.97164 -57
      vertex 9.3871 -11.0513 -57
      vertex 0 8.87869e-16 -57
    endloop
  endfacet
  facet normal 0 0 -1
    outer loop
      vertex 9.3871 -11.0513 -57
      vertex 8.13721 -12.0015 -57
      vertex 0 8.87869e-16 -57
    endloop
  endfacet
  facet normal 0 0 -1
    outer loop
      vertex 0 8.87869e-16 -57
      vertex 8.13721 -12.0015 -57
      vertex 6.79192 -12.8109 -57
    endloop
  endfacet
  facet normal 0 0 -1
    outer loop
      vertex 13.1598 -6.08839 -57
      vertex 12.4244 -7.47553 -57
      vertex 0 8.87869e-16 -57
    endloop
  endfacet
  facet normal 0 0 -1
    outer loop
      vertex 12.4244 -7.47553 -57
      vertex 11.5433 -8.77503 -57
      vertex 0 8.87869e-16 -57
    endloop
  endfacet
  facet normal 0 0 -1
    outer loop
      vertex 0 8.87869e-16 -57
      vertex 11.5433 -8.77503 -57
      vertex 10.5269 -9.97164 -57
    endloop
  endfacet
  facet normal 0 0 -1
    outer loop
      vertex 14.415 -1.56773 -57
      vertex 14.161 -3.11707 -57
      vertex 0 8.87869e-16 -57
    endloop
  endfacet
  facet normal 0 0 -1
    outer loop
      vertex 14.161 -3.11707 -57
      vertex 13.741 -4.62987 -57
      vertex 0 8.87869e-16 -57
    endloop
  endfacet
  facet normal 0 0 -1
    outer loop
      vertex 0 8.87869e-16 -57
      vertex 13.741 -4.62987 -57
      vertex 13.1598 -6.08839 -57
    endloop
  endfacet
  facet normal -0.998533 0.0541385 0
    outer loop
      vertex -14.5 8.87869e-16 -57
      vertex -14.415 1.56773 57
      vertex -14.415 1.56773 -57
    endloop
  endfacet
  facet normal -0.986827 0.161782 0
    outer loop
      vertex -14.415 1.56773 57
      vertex -14.161 3.11707 57
      vertex -14.415 1.56773 -57
    endloop
  endfacet
  facet normal -0.986827 0.161782 0
    outer loop
      vertex -14.415 1.56773 -57
      vertex -14.161 3.11707 57
      vertex -14.161 3.11707 -57
    endloop
  endfacet
  facet normal -0.96355 0.267529 0
    outer loop
      vertex -14.161 3.11707 57
      vertex -13.741 4.62987 57
      vertex -14.161 3.11707 -57
    endloop
  endfacet
  facet normal -0.96355 0.267529 0
    outer loop
      vertex -14.161 3.11707 -57
      vertex -13.741 4.62987 57
      vertex -13.741 4.62987 -57
    endloop
  endfacet
  facet normal -0.928977 0.370138 0
    outer loop
      vertex -13.741 4.62987 57
      vertex -13.1598 6.08839 57
      vertex -13.741 4.62987 -57
    endloop
  endfacet
  facet normal -0.928977 0.370138 0
    outer loop
      vertex -13.741 4.62987 -57
      vertex -13.1598 6.08839 57
      vertex -13.1598 6.08839 -57
    endloop
  endfacet
  facet normal -0.883512 0.468408 0
    outer loop
      vertex -13.1598 6.08839 57
      vertex -12.4244 7.47553 57
      vertex -13.1598 6.08839 -57
    endloop
  endfacet
  facet normal -0.883512 0.468408 0
    outer loop
      vertex -13.1598 6.08839 -57
      vertex -12.4244 7.47553 57
      vertex -12.4244 7.47553 -57
    endloop
  endfacet
  facet normal -0.827689 0.561187 0
    outer loop
      vertex -12.4244 7.47553 57
      vertex -11.5433 8.77503 57
      vertex -12.4244 7.47553 -57
    endloop
  endfacet
  facet normal -0.827689 0.561187 0
    outer loop
      vertex -12.4244 7.47553 -57
      vertex -11.5433 8.77503 57
      vertex -11.5433 8.77503 -57
    endloop
  endfacet
  facet normal -0.762162 0.647386 0
    outer loop
      vertex -11.5433 8.77503 57
      vertex -10.5269 9.97164 57
      vertex -11.5433 8.77503 -57
    endloop
  endfacet
  facet normal -0.762162 0.647386 0
    outer loop
      vertex -11.5433 8.77503 -57
      vertex -10.5269 9.97164 57
      vertex -10.5269 9.97164 -57
    endloop
  endfacet
  facet normal -0.687699 0.725996 0
    outer loop
      vertex -10.5269 9.97164 57
      vertex -9.3871 11.0513 57
      vertex -10.5269 9.97164 -57
    endloop
  endfacet
  facet normal -0.687699 0.725996 0
    outer loop
      vertex -10.5269 9.97164 -57
      vertex -9.3871 11.0513 57
      vertex -9.3871 11.0513 -57
    endloop
  endfacet
  facet normal -0.605174 0.796093 0
    outer loop
      vertex -9.3871 11.0513 57
      vertex -8.13721 12.0015 57
      vertex -9.3871 11.0513 -57
    endloop
  endfacet
  facet normal -0.605174 0.796093 0
    outer loop
      vertex -9.3871 11.0513 -57
      vertex -8.13721 12.0015 57
      vertex -8.13721 12.0015 -57
    endloop
  endfacet
  facet normal -0.515554 0.856857 0
    outer loop
      vertex -8.13721 12.0015 57
      vertex -6.79192 12.8109 57
      vertex -8.13721 12.0015 -57
    endloop
  endfacet
  facet normal -0.515554 0.856857 0
    outer loop
      vertex -8.13721 12.0015 -57
      vertex -6.79192 12.8109 57
      vertex -6.79192 12.8109 -57
    endloop
  endfacet
  facet normal -0.419889 0.907575 0
    outer loop
      vertex -6.79192 12.8109 57
      vertex -5.367 13.4702 57
      vertex -6.79192 12.8109 -57
    endloop
  endfacet
  facet normal -0.419889 0.907575 0
    outer loop
      vertex -6.79192 12.8109 -57
      vertex -5.367 13.4702 57
      vertex -5.367 13.4702 -57
    endloop
  endfacet
  facet normal -0.319301 0.947653 0
    outer loop
      vertex -5.367 13.4702 57
      vertex -3.87916 13.9715 57
      vertex -5.367 13.4702 -57
    endloop
  endfacet
  facet normal -0.319301 0.947653 0
    outer loop
      vertex -5.367 13.4702 -57
      vertex -3.87916 13.9715 57
      vertex -3.87916 13.9715 -57
    endloop
  endfacet
  facet normal -0.21497 0.976621 0
    outer loop
      vertex -3.87916 13.9715 57
      vertex -2.34584 14.309 57
      vertex -3.87916 13.9715 -57
    endloop
  endfacet
  facet normal -0.21497 0.976621 0
    outer loop
      vertex -3.87916 13.9715 -57
      vertex -2.34584 14.309 57
      vertex -2.34584 14.309 -57
    endloop
  endfacet
  facet normal -0.108119 0.994138 0
    outer loop
      vertex -2.34584 14.309 57
      vertex -0.785014 14.4787 57
      vertex -2.34584 14.309 -57
    endloop
  endfacet
  facet normal -0.108119 0.994138 0
    outer loop
      vertex -2.34584 14.309 -57
      vertex -0.785014 14.4787 57
      vertex -0.785014 14.4787 -57
    endloop
  endfacet
  facet normal 0 1 0
    outer loop
      vertex -0.785014 14.4787 57
      vertex 0.785014 14.4787 57
      vertex -0.785014 14.4787 -57
    endloop
  endfacet
  facet normal 0 1 0
    outer loop
      vertex -0.785014 14.4787 -57
      vertex 0.785014 14.4787 57
      vertex 0.785014 14.4787 -57
    endloop
  endfacet
  facet normal 0.108119 0.994138 0
    outer loop
      vertex 0.785014 14.4787 57
      vertex 2.34584 14.309 57
      vertex 0.785014 14.4787 -57
    endloop
  endfacet
  facet normal 0.108119 0.994138 0
    outer loop
      vertex 0.785014 14.4787 -57
      vertex 2.34584 14.309 57
      vertex 2.34584 14.309 -57
    endloop
  endfacet
  facet normal 0.21497 0.976621 0
    outer loop
      vertex 2.34584 14.309 57
      vertex 3.87916 13.9715 57
      vertex 2.34584 14.309 -57
    endloop
  endfacet
  facet normal 0.21497 0.976621 0
    outer loop
      vertex 2.34584 14.309 -57
      vertex 3.87916 13.9715 57
      vertex 3.87916 13.9715 -57
    endloop
  endfacet
  facet normal 0.319301 0.947653 0
    outer loop
      vertex 3.87916 13.9715 57
      vertex 5.367 13.4702 57
      vertex 3.87916 13.9715 -57
    endloop
  endfacet
  facet normal 0.319301 0.947653 0
    outer loop
      vertex 3.87916 13.9715 -57
      vertex 5.367 13.4702 57
      vertex 5.367 13.4702 -57
    endloop
  endfacet
  facet normal 0.419889 0.907575 0
    outer loop
      vertex 5.367 13.4702 57
      vertex 6.79192 12.8109 57
      vertex 5.367 13.4702 -57
    endloop
  endfacet
  facet normal 0.419889 0.907575 0
    outer loop
      vertex 5.367 13.4702 -57
      vertex 6.79192 12.8109 57
      vertex 6.79192 12.8109 -57
    endloop
  endfacet
  facet normal 0.515554 0.856857 0
    outer loop
      vertex 6.79192 12.8109 57
      vertex 8.13721 12.0015 57
      vertex 6.79192 12.8109 -57
    endloop
  endfacet
  facet normal 0.515554 0.856857 0
    outer loop
      vertex 6.79192 12.8109 -57
      vertex 8.13721 12.0015 57
      vertex 8.13721 12.0015 -57
    endloop
  endfacet
  facet normal 0.605174 0.796093 0
    outer loop
      vertex 8.13721 12.0015 57
      vertex 9.3871 11.0513 57
      vertex 8.13721 12.0015 -57
    endloop
  endfacet
  facet normal 0.605174 0.796093 0
    outer loop
      vertex 8.13721 12.0015 -57
      vertex 9.3871 11.0513 57
      vertex 9.3871 11.0513 -57
    endloop
  endfacet
  facet normal 0.687699 0.725996 0
    outer loop
      vertex 9.3871 11.0513 57
      vertex 10.5269 9.97164 57
      vertex 9.3871 11.0513 -57
    endloop
  endfacet
  facet normal 0.687699 0.725996 0
    outer loop
      vertex 9.3871 11.0513 -57
      vertex 10.5269 9.97164 57
      vertex 10.5269 9.97164 -57
    endloop
  endfacet
  facet normal 0.762162 0.647386 0
    outer loop
      vertex 10.5269 9.97164 57
      vertex 11.5433 8.77503 57
      vertex 10.5269 9.97164 -57
    endloop
  endfacet
  facet normal 0.762162 0.647386 0
    outer loop
      vertex 10.5269 9.97164 -57
      vertex 11.5433 8.77503 57
      vertex 11.5433 8.77503 -57
    endloop
  endfacet
  facet normal 0.827689 0.561187 0
    outer loop
      vertex 11.5433 8.77503 57
      vertex 12.4244 7.47553 57
      vertex 11.5433 8.77503 -57
    endloop
  endfacet
  facet normal 0.827689 0.561187 0
    outer loop
      vertex 11.5433 8.77503 -57
      vertex 12.4244 7.47553 57
      vertex 12.4244 7.47553 -57
    endloop
  endfacet
  facet normal 0.883512 0.468408 0
    outer loop
      vertex 12.4244 7.47553 57
      vertex 13.1598 6.08839 57
      vertex 12.4244 7.47553 -57
    endloop
  endfacet
  facet normal 0.883512 0.468408 0
    outer loop
      vertex 12.4244 7.47553 -57
      vertex 13.1598 6.08839 57
      vertex 13.1598 6.08839 -57
    endloop
  endfacet
  facet normal 0.928977 0.370138 0
    outer loop
      vertex 13.1598 6.08839 57
      vertex 13.741 4.62987 57
      vertex 13.1598 6.08839 -57
    endloop
  endfacet
  facet normal 0.928977 0.370138 0
    outer loop
      vertex 13.1598 6.08839 -57
      vertex 13.741 4.62987 57
      vertex 13.741 4.62987 -57
    endloop
  endfacet
  facet normal 0.96355 0.267529 0
    outer loop
      vertex 13.741 4.62987 57
      vertex 14.161 3.11707 57
      vertex 13.741 4.62987 -57
    endloop
  endfacet
  facet normal 0.96355 0.267529 0
    outer loop
      vertex 13.741 4.62987 -57
      vertex 14.161 3.11707 57
      vertex 14.161 3.11707 -57
    endloop
  endfacet
  facet normal 0.986827 0.161782 0
    outer loop
      vertex 14.161 3.11707 57
      vertex 14.415 1.56773 57
      vertex 14.161 3.11707 -57
    endloop
  endfacet
  facet normal 0.986827 0.161782 0
    outer loop
      vertex 14.161 3.11707 -57
      vertex 14.415 1.56773 57
      vertex 14.415 1.56773 -57
    endloop
  endfacet
  facet normal 0.998533 0.0541385 0
    outer loop
      vertex 14.415 1.56773 57
      vertex 14.5 6.21508e-15 57
      vertex 14.415 1.56773 -57
    endloop
  endfacet
  facet normal 0.998533 0.0541385 -1.77468e-18
    outer loop
      vertex 14.415 1.56773 -57
      vertex 14.5 6.21508e-15 57
      vertex 14.5 2.66361e-15 -57
    endloop
  endfacet
  facet normal 0.998533 -0.0541385 1.68659e-18
    outer loop
      vertex 14.5 6.21508e-15 57
      vertex 14.415 -1.56773 57
      vertex 14.5 2.66361e-15 -57
    endloop
  endfacet
  facet normal 0.998533 -0.0541385 0
    outer loop
      vertex 14.5 2.66361e-15 -57
      vertex 14.415 -1.56773 57
      vertex 14.415 -1.56773 -57
    endloop
  endfacet
  facet normal 0.986827 -0.161782 0
    outer loop
      vertex 14.415 -1.56773 57
      vertex 14.161 -3.11707 57
      vertex 14.415 -1.56773 -57
    endloop
  endfacet
  facet normal 0.986827 -0.161782 0
    outer loop
      vertex 14.415 -1.56773 -57
      vertex 14.161 -3.11707 57
      vertex 14.161 -3.11707 -57
    endloop
  endfacet
  facet normal 0.96355 -0.267529 0
    outer loop
      vertex 14.161 -3.11707 57
      vertex 13.741 -4.62987 57
      vertex 14.161 -3.11707 -57
    endloop
  endfacet
  facet normal 0.96355 -0.267529 0
    outer loop
      vertex 14.161 -3.11707 -57
      vertex 13.741 -4.62987 57
      vertex 13.741 -4.62987 -57
    endloop
  endfacet
  facet normal 0.928977 -0.370138 0
    outer loop
      vertex 13.741 -4.62987 57
      vertex 13.1598 -6.08839 57
      vertex 13.741 -4.62987 -57
    endloop
  endfacet
  facet normal 0.928977 -0.370138 0
    outer loop
      vertex 13.741 -4.62987 -57
      vertex 13.1598 -6.08839 57
      vertex 13.1598 -6.08839 -57
    endloop
  endfacet
  facet normal 0.883512 -0.468408 0
    outer loop
      vertex 13.1598 -6.08839 57
      vertex 12.4244 -7.47553 57
      vertex 13.1598 -6.08839 -57
    endloop
  endfacet
  facet normal 0.883512 -0.468408 0
    outer loop
      vertex 13.1598 -6.08839 -57
      vertex 12.4244 -7.47553 57
      vertex 12.4244 -7.47553 -57
    endloop
  endfacet
  facet normal 0.827689 -0.561187 0
    outer loop
      vertex 12.4244 -7.47553 57
      vertex 11.5433 -8.77503 57
      vertex 12.4244 -7.47553 -57
    endloop
  endfacet
  facet normal 0.827689 -0.561187 0
    outer loop
      vertex 12.4244 -7.47553 -57
      vertex 11.5433 -8.77503 57
      vertex 11.5433 -8.77503 -57
    endloop
  endfacet
  facet normal 0.762162 -0.647386 0
    outer loop
      vertex 11.5433 -8.77503 57
      vertex 10.5269 -9.97164 57
      vertex 11.5433 -8.77503 -57
    endloop
  endfacet
  facet normal 0.762162 -0.647386 0
    outer loop
      vertex 11.5433 -8.77503 -57
      vertex 10.5269 -9.97164 57
      vertex 10.5269 -9.97164 -57
    endloop
  endfacet
  facet normal 0.687699 -0.725996 0
    outer loop
      vertex 10.5269 -9.97164 57
      vertex 9.3871 -11.0513 57
      vertex 10.5269 -9.97164 -57
    endloop
  endfacet
  facet normal 0.687699 -0.725996 0
    outer loop
      vertex 10.5269 -9.97164 -57
      vertex 9.3871 -11.0513 57
      vertex 9.3871 -11.0513 -57
    endloop
  endfacet
  facet normal 0.605174 -0.796093 0
    outer loop
      vertex 9.3871 -11.0513 57
      vertex 8.13721 -12.0015 57
      vertex 9.3871 -11.0513 -57
    endloop
  endfacet
  facet normal 0.605174 -0.796093 0
    outer loop
      vertex 9.3871 -11.0513 -57
      vertex 8.13721 -12.0015 57
      vertex 8.13721 -12.0015 -57
    endloop
  endfacet
  facet normal 0.515554 -0.856857 0
    outer loop
      vertex 8.13721 -12.0015 57
      vertex 6.79192 -12.8109 57
      vertex 8.13721 -12.0015 -57
    endloop
  endfacet
  facet normal 0.515554 -0.856857 0
    outer loop
      vertex 8.13721 -12.0015 -57
      vertex 6.79192 -12.8109 57
      vertex 6.79192 -12.8109 -57
    endloop
  endfacet
  facet normal 0.419889 -0.907575 0
    outer loop
      vertex 6.79192 -12.8109 57
      vertex 5.367 -13.4702 57
      vertex 6.79192 -12.8109 -57
    endloop
  endfacet
  facet normal 0.419889 -0.907575 0
    outer loop
      vertex 6.79192 -12.8109 -57
      vertex 5.367 -13.4702 57
      vertex 5.367 -13.4702 -57
    endloop
  endfacet
  facet normal 0.319301 -0.947653 0
    outer loop
      vertex 5.367 -13.4702 57
      vertex 3.87916 -13.9715 57
      vertex 5.367 -13.4702 -57
    endloop
  endfacet
  facet normal 0.319301 -0.947653 0
    outer loop
      vertex 5.367 -13.4702 -57
      vertex 3.87916 -13.9715 57
      vertex 3.87916 -13.9715 -57
    endloop
  endfacet
  facet normal 0.21497 -0.976621 0
    outer loop
      vertex 3.87916 -13.9715 57
      vertex 2.34584 -14.309 57
      vertex 3.87916 -13.9715 -57
    endloop
  endfacet
  facet normal 0.21497 -0.976621 0
    outer loop
      vertex 3.87916 -13.9715 -57
      vertex 2.34584 -14.309 57
      vertex 2.34584 -14.309 -57
    endloop
  endfacet
  facet normal 0.108119 -0.994138 0
    outer loop
      vertex 2.34584 -14.309 57
      vertex 0.785014 -14.4787 57
      vertex 2.34584 -14.309 -57
    endloop
  endfacet
  facet normal 0.108119 -0.994138 0
    outer loop
      vertex 2.34584 -14.309 -57
      vertex 0.785014 -14.4787 57
      vertex 0.785014 -14.4787 -57
    endloop
  endfacet
  facet normal 0 -1 0
    outer loop
      vertex 0.785014 -14.4787 57
      vertex -0.785014 -14.4787 57
      vertex 0.785014 -14.4787 -57
    endloop
  endfacet
  facet normal 0 -1 0
    outer loop
      vertex 0.785014 -14.4787 -57
      vertex -0.785014 -14.4787 57
      vertex -0.785014 -14.4787 -57
    endloop
  endfacet
  facet normal -0.108119 -0.994138 0
    outer loop
      vertex -0.785014 -14.4787 57
      vertex -2.34584 -14.309 57
      vertex -0.785014 -14.4787 -57
    endloop
  endfacet
  facet normal -0.108119 -0.994138 0
    outer loop
      vertex -0.785014 -14.4787 -57
      vertex -2.34584 -14.309 57
      vertex -2.34584 -14.309 -57
    endloop
  endfacet
  facet normal -0.21497 -0.976621 0
    outer loop
      vertex -2.34584 -14.309 57
      vertex -3.87916 -13.9715 57
      vertex -2.34584 -14.309 -57
    endloop
  endfacet
  facet normal -0.21497 -0.976621 0
    outer loop
      vertex -2.34584 -14.309 -57
      vertex -3.87916 -13.9715 57
      vertex -3.87916 -13.9715 -57
    endloop
  endfacet
  facet normal -0.319301 -0.947653 0
    outer loop
      vertex -3.87916 -13.9715 57
      vertex -5.367 -13.4702 57
      vertex -3.87916 -13.9715 -57
    endloop
  endfacet
  facet normal -0.319301 -0.947653 0
    outer loop
      vertex -3.87916 -13.9715 -57
      vertex -5.367 -13.4702 57
      vertex -5.367 -13.4702 -57
    endloop
  endfacet
  facet normal -0.419889 -0.907575 0
    outer loop
      vertex -5.367 -13.4702 57
      vertex -6.79192 -12.8109 57
      vertex -5.367 -13.4702 -57
    endloop
  endfacet
  facet normal -0.419889 -0.907575 0
    outer loop
      vertex -5.367 -13.4702 -57
      vertex -6.79192 -12.8109 57
      vertex -6.79192 -12.8109 -57
    endloop
  endfacet
  facet normal -0.515554 -0.856857 0
    outer loop
      vertex -6.79192 -12.8109 57
      vertex -8.13721 -12.0015 57
      vertex -6.79192 -12.8109 -57
    endloop
  endfacet
  facet normal -0.515554 -0.856857 0
    outer loop
      vertex -6.79192 -12.8109 -57
      vertex -8.13721 -12.0015 57
      vertex -8.13721 -12.0015 -57
    endloop
  endfacet
  facet normal -0.605174 -0.796093 0
    outer loop
      vertex -8.13721 -12.0015 57
      vertex -9.3871 -11.0513 57
      vertex -8.13721 -12.0015 -57
    endloop
  endfacet
  facet normal -0.605174 -0.796093 0
    outer loop
      vertex -8.13721 -12.0015 -57
      vertex -9.3871 -11.0513 57
      vertex -9.3871 -11.0513 -57
    endloop
  endfacet
  facet normal -0.687699 -0.725996 0
    outer loop
      vertex -9.3871 -11.0513 57
      vertex -10.5269 -9.97164 57
      vertex -9.3871 -11.0513 -57
    endloop
  endfacet
  facet normal -0.687699 -0.725996 0
    outer loop
      vertex -9.3871 -11.0513 -57
      vertex -10.5269 -9.97164 57
      vertex -10.5269 -9.97164 -57
    endloop
  endfacet
  facet normal -0.762162 -0.647386 0
    outer loop
      vertex -10.5269 -9.97164 57
      vertex -11.5433 -8.77503 57
      vertex -10.5269 -9.97164 -57
    endloop
  endfacet
  facet normal -0.762162 -0.647386 0
    outer loop
      vertex -10.5269 -9.97164 -57
      vertex -11.5433 -8.77503 57
      vertex -11.5433 -8.77503 -57
    endloop
  endfacet
  facet normal -0.827689 -0.561187 0
    outer loop
      vertex -11.5433 -8.77503 57
      vertex -12.4244 -7.47553 57
      vertex -11.5433 -8.77503 -57
    endloop
  endfacet
  facet normal -0.827689 -0.561187 0
    outer loop
      vertex -11.5433 -8.77503 -57
      vertex -12.4244 -7.47553 57
      vertex -12.4244 -7.47553 -57
    endloop
  endfacet
  facet normal -0.883512 -0.468408 0
    outer loop
      vertex -12.4244 -7.47553 57
      vertex -13.1598 -6.08839 57
      vertex -12.4244 -7.47553 -57
    endloop
  endfacet
  facet normal -0.883512 -0.468408 0
    outer loop
      vertex -12.4244 -7.47553 -57
      vertex -13.1598 -6.08839 57
      vertex -13.1598 -6.08839 -57
    endloop
  endfacet
  facet normal -0.928977 -0.370138 0
    outer loop
      vertex -13.1598 -6.08839 57
      vertex -13.741 -4.62987 57
      vertex -13.1598 -6.08839 -57
    endloop
  endfacet
  facet normal -0.928977 -0.370138 0
    outer loop
      vertex -13.1598 -6.08839 -57
      vertex -13.741 -4.62987 57
      vertex -13.741 -4.62987 -57
    endloop
  endfacet
  facet normal -0.96355 -0.267529 0
    outer loop
      vertex -13.741 -4.62987 57
      vertex -14.161 -3.11707 57
      vertex -13.741 -4.62987 -57
    endloop
  endfacet
  facet normal -0.96355 -0.267529 0
    outer loop
      vertex -13.741 -4.62987 -57
      vertex -14.161 -3.11707 57
      vertex -14.161 -3.11707 -57
    endloop
  endfacet
  facet normal -0.986827 -0.161782 0
    outer loop
      vertex -14.161 -3.11707 57
      vertex -14.415 -1.56773 57
      vertex -14.161 -3.11707 -57
    endloop
  endfacet
  facet normal -0.986827 -0.161782 0
    outer loop
      vertex -14.161 -3.11707 -57
      vertex -14.415 -1.56773 57
      vertex -14.415 -1.56773 -57
    endloop
  endfacet
  facet normal -0.998533 -0.0541385 0
    outer loop
      vertex -14.415 -1.56773 57
      vertex -14.5 8.87869e-16 57
      vertex -14.415 -1.56773 -57
    endloop
  endfacet
  facet normal -0.998533 -0.0541385 0
    outer loop
      vertex -14.415 -1.56773 -57
      vertex -14.5 8.87869e-16 57
      vertex -14.5 8.87869e-16 -57
    endloop
  endfacet
  facet normal -0.998533 0.0541385 0
    outer loop
      vertex -14.5 8.87869e-16 57
      vertex -14.415 1.56773 57
      vertex -14.5 8.87869e-16 -57
    endloop
  endfacet
  facet normal 0 0 1
    outer loop
      vertex 14.5 6.21508e-15 57
      vertex 14.415 1.56773 57
      vertex 0 8.87869e-16 57
    endloop
  endfacet
  facet normal 0 0 1
    outer loop
      vertex 13.741 -4.62987 57
      vertex 14.161 -3.11707 57
      vertex 0 8.87869e-16 57
    endloop
  endfacet
  facet normal 0 0 1
    outer loop
      vertex 14.161 -3.11707 57
      vertex 14.415 -1.56773 57
      vertex 0 8.87869e-16 57
    endloop
  endfacet
  facet normal 0 0 1
    outer loop
      vertex 0 8.87869e-16 57
      vertex 14.415 -1.56773 57
      vertex 14.5 6.21508e-15 57
    endloop
  endfacet
  facet normal 0 0 1
    outer loop
      vertex 11.5433 -8.77503 57
      vertex 12.4244 -7.47553 57
      vertex 0 8.87869e-16 57
    endloop
  endfacet
  facet normal 0 0 1
    outer loop
      vertex 12.4244 -7.47553 57
      vertex 13.1598 -6.08839 57
      vertex 0 8.87869e-16 57
    endloop
  endfacet
  facet normal 0 0 1
    outer loop
      vertex 0 8.87869e-16 57
      vertex 13.1598 -6.08839 57
      vertex 13.741 -4.62987 57
    endloop
  endfacet
  facet normal 0 0 1
    outer loop
      vertex 8.13721 -12.0015 57
      vertex 9.3871 -11.0513 57
      vertex 0 8.87869e-16 57
    endloop
  endfacet
  facet normal 0 0 1
    outer loop
      vertex 9.3871 -11.0513 57
      vertex 10.5269 -9.97164 57
      vertex 0 8.87869e-16 57
    endloop
  endfacet
  facet normal 0 0 1
    outer loop
      vertex 0 8.87869e-16 57
      vertex 10.5269 -9.97164 57
      vertex 11.5433 -8.77503 57
    endloop
  endfacet
  facet normal 0 0 1
    outer loop
      vertex 3.87916 -13.9715 57
      vertex 5.367 -13.4702 57
      vertex 0 8.87869e-16 57
    endloop
  endfacet
  facet normal 0 0 1
    outer loop
      vertex 5.367 -13.4702 57
      vertex 6.79192 -12.8109 57
      vertex 0 8.87869e-16 57
    endloop
  endfacet
  facet normal 0 0 1
    outer loop
      vertex 0 8.87869e-16 57
      vertex 6.79192 -12.8109 57
      vertex 8.13721 -12.0015 57
    endloop
  endfacet
  facet normal 0 0 1
    outer loop
      vertex -0.785014 -14.4787 57
      vertex 0.785014 -14.4787 57
      vertex 0 8.87869e-16 57
    endloop
  endfacet
  facet normal 0 0 1
    outer loop
      vertex 0.785014 -14.4787 57
      vertex 2.34584 -14.309 57
      vertex 0 8.87869e-16 57
    endloop
  endfacet
  facet normal 0 0 1
    outer loop
      vertex 0 8.87869e-16 57
      vertex 2.34584 -14.309 57
      vertex 3.87916 -13.9715 57
    endloop
  endfacet
  facet normal 0 0 1
    outer loop
      vertex -5.367 -13.4702 57
      vertex -3.87916 -13.9715 57
      vertex 0 8.87869e-16 57
    endloop
  endfacet
  facet normal 0 0 1
    outer loop
      vertex -3.87916 -13.9715 57
      vertex -2.34584 -14.309 57
      vertex 0 8.87869e-16 57
    endloop
  endfacet
  facet normal 0 0 1
    outer loop
      vertex 0 8.87869e-16 57
      vertex -2.34584 -14.309 57
      vertex -0.785014 -14.4787 57
    endloop
  endfacet
  facet normal 0 0 1
    outer loop
      vertex -9.3871 -11.0513 57
      vertex -8.13721 -12.0015 57
      vertex 0 8.87869e-16 57
    endloop
  endfacet
  facet normal 0 0 1
    outer loop
      vertex -8.13721 -12.0015 57
      vertex -6.79192 -12.8109 57
      vertex 0 8.87869e-16 57
    endloop
  endfacet
  facet normal 0 0 1
    outer loop
      vertex 0 8.87869e-16 57
      vertex -6.79192 -12.8109 57
      vertex -5.367 -13.4702 57
    endloop
  endfacet
  facet normal 0 0 1
    outer loop
      vertex -12.4244 -7.47553 57
      vertex -11.5433 -8.77503 57
      vertex 0 8.87869e-16 57
    endloop
  endfacet
  facet normal 0 0 1
    outer loop
      vertex -11.5433 -8.77503 57
      vertex -10.5269 -9.97164 57
      vertex 0 8.87869e-16 57
    endloop
  endfacet
  facet normal 0 0 1
    outer loop
      vertex 0 8.87869e-16 57
      vertex -10.5269 -9.97164 57
      vertex -9.3871 -11.0513 57
    endloop
  endfacet
  facet normal 0 0 1
    outer loop
      vertex -14.161 -3.11707 57
      vertex -13.741 -4.62987 57
      vertex 0 8.87869e-16 57
    endloop
  endfacet
  facet normal 0 0 1
    outer loop
      vertex -13.741 -4.62987 57
      vertex -13.1598 -6.08839 57
      vertex 0 8.87869e-16 57
    endloop
  endfacet
  facet normal 0 0 1
    outer loop
      vertex 0 8.87869e-16 57
      vertex -13.1598 -6.08839 57
      vertex -12.4244 -7.47553 57
    endloop
  endfacet
  facet normal 0 0 1
    outer loop
      vertex -14.415 1.56773 57
      vertex -14.5 8.87869e-16 57
      vertex 0 8.87869e-16 57
    endloop
  endfacet
  facet normal 0 0 1
    outer loop
      vertex -14.5 8.87869e-16 57
      vertex -14.415 -1.56773 57
      vertex 0 8.87869e-16 57
    endloop
  endfacet
  facet normal 0 0 1
    outer loop
      vertex 0 8.87869e-16 57
      vertex -14.415 -1.56773 57
      vertex -14.161 -3.11707 57
    endloop
  endfacet
  facet normal 0 0 1
    outer loop
      vertex -13.1598 6.08839 57
      vertex -13.741 4.62987 57
      vertex 0 8.87869e-16 57
    endloop
  endfacet
  facet normal 0 0 1
    outer loop
      vertex -13.741 4.62987 57
      vertex -14.161 3.11707 57
      vertex 0 8.87869e-16 57
    endloop
  endfacet
  facet normal 0 0 1
    outer loop
      vertex 0 8.87869e-16 57
      vertex -14.161 3.11707 57
      vertex -14.415 1.56773 57
    endloop
  endfacet
  facet normal 0 0 1
    outer loop
      vertex -10.5269 9.97164 57
      vertex -11.5433 8.77503 57
      vertex 0 8.87869e-16 57
    endloop
  endfacet
  facet normal 0 0 1
    outer loop
      vertex -11.5433 8.77503 57
      vertex -12.4244 7.47553 57
      vertex 0 8.87869e-16 57
    endloop
  endfacet
  facet normal 0 0 1
    outer loop
      vertex 0 8.87869e-16 57
      vertex -12.4244 7.47553 57
      vertex -13.1598 6.08839 57
    endloop
  endfacet
  facet normal 0 0 1
    outer loop
      vertex -6.79192 12.8109 57
      vertex -8.13721 12.0015 57
      vertex 0 8.87869e-16 57
    endloop
  endfacet
  facet normal 0 0 1
    outer loop
      vertex -8.13721 12.0015 57
      vertex -9.3871 11.0513 57
      vertex 0 8.87869e-16 57
    endloop
  endfacet
  facet normal 0 0 1
    outer loop
      vertex 0 8.87869e-16 57
      vertex -9.3871 11.0513 57
      vertex -10.5269 9.97164 57
    endloop
  endfacet
  facet normal 0 0 1
    outer loop
      vertex -2.34584 14.309 57
      vertex -3.87916 13.9715 57
      vertex 0 8.87869e-16 57
    endloop
  endfacet
  facet normal 0 0 1
    outer loop
      vertex -3.87916 13.9715 57
      vertex -5.367 13.4702 57
      vertex 0 8.87869e-16 57
    endloop
  endfacet
  facet normal 0 0 1
    outer loop
      vertex 0 8.87869e-16 57
      vertex -5.367 13.4702 57
      vertex -6.79192 12.8109 57
    endloop
  endfacet
  facet normal 0 0 1
    outer loop
      vertex 2.34584 14.309 57
      vertex 0.785014 14.4787 57
      vertex 0 8.87869e-16 57
    endloop
  endfacet
  facet normal 0 0 1
    outer loop
      vertex 0.785014 14.4787 57
      vertex -0.785014 14.4787 57
      vertex 0 8.87869e-16 57
    endloop
  endfacet
  facet normal 0 0 1
    outer loop
      vertex 0 8.87869e-16 57
      vertex -0.785014 14.4787 57
      vertex -2.34584 14.309 57
    endloop
  endfacet
  facet normal 0 0 1
    outer loop
      vertex 6.79192 12.8109 57
      vertex 5.367 13.4702 57
      vertex 0 8.87869e-16 57
    endloop
  endfacet
  facet normal 0 0 1
    outer loop
      vertex 5.367 13.4702 57
      vertex 3.87916 13.9715 57
      vertex 0 8.87869e-16 57
    endloop
  endfacet
  facet normal 0 0 1
    outer loop
      vertex 0 8.87869e-16 57
      vertex 3.87916 13.9715 57
      vertex 2.34584 14.309 57
    endloop
  endfacet
  facet normal 0 0 1
    outer loop
      vertex 10.5269 9.97164 57
      vertex 9.3871 11.0513 57
      vertex 0 8.87869e-16 57
    endloop
  endfacet
  facet normal 0 0 1
    outer loop
      vertex 9.3871 11.0513 57
      vertex 8.13721 12.0015 57
      vertex 0 8.87869e-16 57
    endloop
  endfacet
  facet normal 0 0 1
    outer loop
      vertex 0 8.87869e-16 57
      vertex 8.13721 12.0015 57
      vertex 6.79192 12.8109 57
    endloop
  endfacet
  facet normal 0 0 1
    outer loop
      vertex 13.1598 6.08839 57
      vertex 12.4244 7.47553 57
      vertex 0 8.87869e-16 57
    endloop
  endfacet
  facet normal 0 0 1
    outer loop
      vertex 12.4244 7.47553 57
      vertex 11.5433 8.77503 57
      vertex 0 8.87869e-16 57
    endloop
  endfacet
  facet normal 0 0 1
    outer loop
      vertex 0 8.87869e-16 57
      vertex 11.5433 8.77503 57
      vertex 10.5269 9.97164 57
    endloop
  endfacet
  facet normal 0 0 1
    outer loop
      vertex 14.415 1.56773 57
      vertex 14.161 3.11707 57
      vertex 0 8.87869e-16 57
    endloop
  endfacet
  facet normal 0 0 1
    outer loop
      vertex 14.161 3.11707 57
      vertex 13.741 4.62987 57
      vertex 0 8.87869e-16 57
    endloop
  endfacet
  facet normal 0 0 1
    outer loop
      vertex 0 8.87869e-16 57
      vertex 13.741 4.62987 57
      vertex 13.1598 6.08839 57
    endloop
  endfacet
endsolid Mesh
