<svg xmlns="http://www.w3.org/2000/svg" width="1140" height="600" font-family="sans-serif" font-size="13"><rect width="1140" height="600" fill="white"/><text x="20" y="26" font-size="15" fill="#333">Coludo flight</text><rect x="20" y="40" width="540" height="540" fill="#fbfbfb" stroke="#ddd"/><rect x="50" y="312" width="453" height="97" fill="#cde" stroke="#369" opacity="0.7"/><text x="50" y="307" fill="#369" font-size="12">landing zone</text><circle cx="336" cy="465" r="5" fill="black"/><text x="344" y="469" font-size="12">pad</text><path d="M337.7,464.4 L337.7,464.4 L337.7,464.4 L337.7,464.4 L337.7,464.4 L337.7,464.4 L337.7,464.4 L337.7,464.4 L337.7,464.4 L337.7,464.4 L337.7,464.4 L337.7,464.4 L337.7,464.4 L337.7,464.4 L337.7,464.4 L337.7,464.4 L337.7,464.4 L337.7,464.4 L337.7,464.4 L337.7,464.4 L337.7,464.4 L337.7,464.4 L337.7,464.4 L337.7,464.4 L337.7,464.4 L337.7,464.4 L337.7,464.4 L337.7,464.4 L337.7,464.4 L337.7,464.4 L337.7,464.4 L337.7,464.4 L337.7,464.4 L337.7,464.4 L337.7,464.4 L337.7,464.4 L337.7,464.4 L337.7,464.4 L337.7,464.4 L337.7,464.4 L337.7,464.4 L337.7,464.4 L337.7,464.4 L337.7,464.4 L337.7,464.4 L337.7,464.4 L337.7,464.4 L337.7,464.4 L337.7,464.4 L337.7,464.4 L337.7,464.4 L337.7,464.4 L337.7,464.4 L337.7,464.4 L337.7,463.3 L340.1,459.6 L342.6,455.8 L345.0,450.9 L347.4,447.7 L349.9,443.4 L354.7,439.6 L357.2,435.8 L359.6,432.6 L362.5,428.8 L366.9,425.6 L370.3,422.3 L374.2,419.1 L376.7,416.4 L379.1,413.2 L384.0,411.0 L386.4,407.8 L391.3,405.6 L395.6,402.9 L398.6,399.7 L401.5,397.0 L405.9,394.3 L409.3,391.0 L413.2,387.3 L417.1,383.5 L420.5,380.3 L422.9,377.0 L425.3,374.3 L427.8,370.6 L432.6,366.2 L434.6,362.5 L435.1,360.3 L437.5,357.1 L439.9,352.2 L440.4,347.9 L442.4,344.1 L444.8,340.9 L444.8,340.9 L444.8,340.9 L444.8,340.9 L444.8,340.9 L444.8,340.9 L444.8,340.9 L444.8,340.9 L444.8,340.9 L444.8,340.9 L444.8,340.9 L444.8,340.9 L444.8,340.9 L444.8,340.9 L444.8,340.9 L444.8,340.9 L444.8,340.9 L444.8,340.9 L444.8,340.9 L444.8,340.9 L444.8,340.9 L444.8,340.9 L444.8,340.9 L444.8,338.2 L447.2,333.3 L448.2,330.1 L449.7,327.4 L449.7,322.5 L452.1,317.7 L454.5,313.4 L454.5,308.5 L456.0,304.7 L457.0,299.9 L457.0,295.0 L459.4,290.7 L461.8,284.8 L461.8,281.5 L464.3,277.8 L464.3,272.9 L464.8,268.1 L466.7,262.1 L469.1,257.8 L471.6,253.5 L473.5,249.2 L474.0,243.8 L476.5,240.0 L478.9,235.2 L478.9,231.9 L479.4,228.1 L483.8,223.3 L483.8,220.1 L487.2,215.7 L488.6,211.4 L491.1,208.2 L493.5,206.0 L495.9,201.7 L497.9,197.9 L500.8,194.2 L503.2,189.8 L505.7,185.0 L510.5,181.8 L513.4,179.1 L515.4,174.2 L517.8,171.0 L518.3,168.3 L522.7,164.5 L525.1,162.3 L527.6,158.0 L530.0,155.3" fill="none" stroke="#1f77b4" stroke-width="1.7" opacity="0.85"/><circle cx="530" cy="155" r="4.5" fill="#1f77b4"/><text x="28" y="572" font-size="11" fill="#888">ground track — m from pad (N up)</text><rect x="580" y="40" width="540" height="540" fill="#fbfbfb" stroke="#ddd"/><text x="586" y="54" fill="#1f77b4" font-size="11">alt 132</text><text x="586" y="558" fill="#1f77b4" font-size="11">-100</text><path d="M616.9,338.0 L618.0,337.8 L619.1,337.6 L621.4,336.4 L622.4,335.8 L623.5,335.2 L624.6,334.1 L625.7,333.2 L626.8,331.8 L627.9,330.7 L629.0,328.9 L630.1,327.7 L631.1,325.6 L632.1,324.1 L633.1,322.5 L634.1,320.9 L635.1,318.3 L636.1,316.5 L637.1,314.5 L638.1,312.5 L639.0,309.4 L640.1,307.1 L641.0,304.8 L642.1,302.3 L643.2,298.6 L644.1,296.1 L645.2,293.6 L646.1,289.4 L647.2,286.5 L648.1,283.5 L649.2,280.4 L650.1,275.9 L651.2,272.9 L652.1,269.5 L653.2,266.1 L654.1,260.8 L655.2,257.2 L656.1,253.9 L657.2,250.1 L658.1,244.8 L659.1,241.7 L660.1,238.4 L661.1,235.0 L662.1,229.6 L663.1,226.7 L664.1,223.0 L665.0,220.0 L666.0,217.1 L666.9,212.3 L668.0,209.5 L668.9,206.0 L670.0,203.3 L670.9,198.5 L671.9,196.2 L672.9,193.1 L673.8,190.0 L674.9,187.3 L675.8,183.5 L676.9,180.5 L677.8,178.2 L678.8,175.1 L679.8,171.3 L680.8,168.8 L681.8,166.4 L682.8,163.7 L683.8,160.9 L684.8,158.6 L685.8,155.9 L686.8,154.0 L687.8,150.5 L688.8,148.5 L689.7,145.4 L690.8,143.8 L691.7,140.8 L692.8,138.2 L693.7,136.7 L694.7,134.4 L695.7,132.2 L696.6,129.5 L697.7,127.5 L698.6,126.5 L699.7,124.2 L700.6,121.2 L701.5,120.3 L702.5,117.9 L703.5,116.4 L704.5,114.7 L705.5,112.9 L706.5,111.6 L707.5,109.4 L708.4,108.0 L709.4,107.2 L710.3,104.9 L711.4,103.4 L712.3,101.6 L713.4,100.9 L714.3,98.7 L715.3,97.5 L716.3,97.3 L717.2,95.5 L718.3,95.0 L719.2,92.8 L720.2,92.5 L721.2,91.4 L722.1,90.6 L723.1,88.7 L724.2,88.1 L725.3,86.4 L726.4,85.6 L727.6,85.6 L728.7,83.7 L729.8,83.3 L730.9,82.3 L732.0,82.1 L733.1,80.2 L734.2,80.0 L735.3,79.7 L736.4,79.3 L737.5,78.6 L738.6,77.7 L739.7,77.3 L740.7,78.2 L741.7,77.8 L742.8,77.4 L743.9,77.0 L745.0,77.0 L746.2,76.6 L747.3,76.0 L748.4,76.9 L749.5,76.9 L750.4,77.2 L751.5,76.7 L752.6,76.4 L753.7,77.5 L754.6,77.8 L755.7,78.1 L756.8,78.6 L757.9,79.1 L759.0,79.4 L760.1,79.6 L761.2,79.6 L762.3,80.3 L763.4,81.6 L764.5,81.9 L765.6,82.7 L766.7,84.0 L767.7,84.2 L768.7,84.8 L769.7,85.7 L770.7,87.3 L771.8,88.3 L773.0,89.2 L774.1,89.5 L775.2,89.2 L776.1,89.2 L777.1,90.1 L778.7,90.6 L779.8,89.5 L780.9,90.1 L782.0,90.9 L783.1,90.5 L784.2,90.2 L785.2,90.5 L786.2,91.4 L787.3,91.4 L788.4,92.0 L789.3,91.0 L790.3,91.7 L791.3,92.4 L792.3,92.2 L793.3,92.2 L794.4,91.9 L795.9,93.2 L796.9,92.3 L797.8,92.8 L798.8,93.7 L799.8,93.7 L800.8,93.0 L801.8,94.0 L802.8,93.4 L803.9,94.4 L804.9,94.0 L805.9,94.2 L807.0,95.3 L808.1,94.8 L809.3,95.5 L810.2,95.8 L811.2,96.0 L812.4,96.8 L813.4,96.1 L814.3,96.3 L815.3,96.9 L816.3,97.0 L817.4,97.2 L818.6,98.5 L819.7,98.6 L820.8,98.8 L821.9,98.8 L822.8,99.4 L823.9,99.7 L824.8,100.0 L825.9,100.3 L826.8,100.4 L827.8,100.6 L828.8,101.5 L829.8,101.1 L830.8,101.9 L831.8,102.2 L832.9,102.0 L833.9,103.2 L834.9,103.6 L836.0,103.9 L837.0,104.1 L838.0,104.3 L839.0,104.3 L840.0,105.2 L841.3,105.4 L842.2,106.1 L843.3,105.4 L844.5,106.5 L845.6,107.0 L846.7,106.9 L847.6,107.1 L848.7,108.1 L849.8,108.0 L850.7,108.5 L851.8,108.7 L852.7,109.4 L853.8,109.9 L854.9,110.0 L856.0,111.3 L857.1,111.7 L858.0,111.6 L859.1,111.7 L860.2,113.1 L861.3,113.2 L862.2,114.2 L863.3,113.5 L864.2,114.4 L865.3,115.2 L866.4,115.5 L867.5,115.6 L868.6,116.6 L869.7,117.2 L870.8,117.5 L871.9,117.5 L872.8,118.9 L873.9,118.8 L875.0,119.8 L875.9,119.6 L877.0,120.6 L878.0,120.9 L879.0,121.7 L880.1,122.4 L881.0,123.0 L882.1,122.6 L883.2,123.3 L884.3,124.5 L885.4,124.7 L886.7,126.1 L887.7,126.6 L888.7,127.9 L889.8,128.4 L890.9,129.6 L891.9,130.2 L892.9,131.3 L894.0,132.6 L895.2,133.6 L896.3,134.3 L897.4,136.7 L898.5,136.9 L899.6,138.5 L900.7,139.6 L901.8,141.8 L902.9,142.8 L904.0,144.7 L905.1,146.4 L906.2,147.6 L907.3,149.7 L908.4,151.6 L909.5,152.5 L910.5,155.1 L911.5,156.5 L912.6,158.0 L913.8,160.9 L914.9,161.9 L916.0,164.3 L917.1,166.2 L918.2,169.1 L919.3,170.5 L920.4,173.2 L921.5,174.8 L922.6,177.7 L923.7,179.2 L924.8,182.5 L925.9,184.1 L927.0,187.3 L928.1,189.4 L929.1,192.9 L930.1,194.9 L931.2,197.0 L932.3,199.8 L933.2,202.5 L934.3,204.5 L935.4,207.8 L936.6,210.1 L937.7,213.3 L938.8,215.5 L939.9,219.2 L941.0,221.7 L942.1,225.7 L943.0,227.6 L944.1,230.2 L945.2,234.3 L946.3,236.4 L947.4,240.5 L949.6,246.9 L950.7,249.5 L951.7,253.3 L952.7,256.0 L953.8,258.6 L955.1,262.3 L956.3,266.2 L957.4,268.8 L958.5,272.6 L959.4,274.8 L960.5,277.4 L961.4,281.2 L962.5,283.8 L963.6,286.1 L964.5,289.7 L965.6,292.2 L966.5,294.8 L967.5,297.0 L968.7,300.7 L969.6,303.0 L970.6,305.4 L971.8,309.0 L972.7,311.4 L973.7,313.8 L974.7,317.3 L975.7,319.7 L976.7,322.0 L977.9,325.5 L978.9,327.8 L979.9,330.1 L981.1,333.5 L982.2,335.8 L983.3,339.2 L984.4,341.5 L985.3,344.8 L986.4,347.1 L987.4,349.3 L988.4,351.5 L989.5,354.8 L990.6,357.0 L991.7,360.3 L992.8,362.5 L993.9,365.8 L995.0,367.9 L996.0,371.1 L997.0,373.3 L998.1,375.4 L999.0,378.5 L1001.2,382.7 L1002.1,385.9 L1003.2,388.0 L1004.1,390.2 L1005.2,392.2 L1006.3,395.2 L1007.4,397.3 L1008.4,400.3 L1009.4,402.4 L1010.5,404.2 L1011.6,407.4 L1012.7,409.5 L1013.7,412.1 L1014.7,414.2 L1015.8,416.3 L1016.9,419.1 L1018.0,421.2 L1019.1,424.2 L1020.2,425.8 L1021.4,428.8 L1022.5,430.8 L1024.4,435.7 L1025.4,437.5 L1026.4,439.4 L1027.6,442.2 L1028.7,444.2 L1029.8,446.5 L1030.9,448.9 L1032.0,451.1 L1033.1,453.4 L1034.2,456.0 L1035.3,457.9 L1036.2,460.2 L1037.3,462.5 L1038.4,464.9 L1039.5,466.9 L1040.6,468.5 L1041.7,471.1 L1042.8,473.0 L1043.9,475.6 L1045.0,477.0 L1046.1,479.7 L1047.7,482.1 L1048.6,484.9 L1049.7,486.7 L1050.8,488.0 L1051.9,491.0 L1053.0,492.3 L1054.1,495.3 L1055.2,497.0 L1057.7,501.4 L1058.8,503.7 L1059.9,506.1 L1061.0,507.2 L1062.1,509.5 L1063.2,511.4 L1064.3,514.3 L1065.4,515.9 L1066.5,517.5 L1067.6,519.8 L1068.7,521.5 L1069.8,523.2 L1070.9,525.8 L1072.0,527.6 L1073.2,529.2 L1074.1,531.4 L1075.1,533.1 L1076.3,535.1 L1077.4,536.2 L1078.5,539.1 L1079.6,539.9 L1080.7,542.8 L1081.8,543.8 L1082.9,544.0 L1084.0,544.0" fill="none" stroke="#1f77b4" stroke-width="1.4" opacity="0.85"/><text x="1040" y="54" fill="#ff7f0e" font-size="11">roll 16</text><text x="1090" y="558" fill="#ff7f0e" font-size="11">-17</text><path d="M616.9,303.0 L618.0,303.0 L619.1,303.0 L621.4,303.0 L622.4,303.0 L623.5,303.0 L624.6,303.0 L625.7,303.0 L626.8,303.0 L627.9,303.0 L629.0,303.0 L630.1,303.0 L631.1,303.0 L632.1,303.0 L633.1,303.0 L634.1,303.0 L635.0,303.0 L636.1,303.0 L637.0,303.0 L638.1,303.0 L639.0,303.0 L640.1,304.4 L641.0,303.0 L642.1,304.4 L643.2,303.0 L644.1,303.0 L645.2,303.0 L646.1,304.4 L647.2,304.4 L648.1,303.0 L649.2,304.4 L650.1,304.4 L651.2,304.4 L652.1,304.4 L653.2,304.4 L654.1,304.4 L655.1,304.4 L656.1,304.4 L657.1,304.4 L658.1,304.4 L659.1,304.4 L660.1,305.8 L661.1,304.4 L662.1,304.4 L663.1,304.4 L664.0,304.4 L665.0,304.4 L666.0,304.4 L666.9,304.4 L668.0,304.4 L668.9,304.4 L670.0,304.4 L670.9,305.8 L671.8,304.4 L672.9,304.4 L673.8,304.4 L674.9,304.4 L675.8,305.8 L676.8,304.4 L677.8,304.4 L678.8,305.8 L679.8,305.8 L680.8,305.8 L681.8,304.4 L682.8,304.4 L683.8,305.8 L684.8,304.4 L685.7,304.4 L686.8,305.8 L687.8,304.4 L688.8,304.4 L689.7,305.8 L690.8,304.4 L691.7,305.8 L692.8,304.4 L693.7,305.8 L694.7,304.4 L695.7,305.8 L696.6,305.8 L697.7,304.4 L698.6,304.4 L699.6,304.4 L700.6,304.4 L701.5,304.4 L702.5,304.4 L703.5,305.8 L704.5,304.4 L705.5,304.4 L706.5,305.8 L707.4,305.8 L708.4,304.4 L709.4,304.4 L710.3,305.8 L711.4,304.4 L712.3,304.4 L713.4,304.4 L714.3,304.4 L715.2,304.4 L716.2,305.8 L717.2,304.4 L718.2,304.4 L719.2,305.8 L720.2,304.4 L721.2,304.4 L722.1,304.4 L723.1,304.4 L724.2,304.4 L725.3,304.4 L726.4,305.8 L727.5,304.4 L728.7,304.4 L729.8,304.4 L730.9,304.4 L732.0,304.4 L733.1,304.4 L734.2,304.4 L735.3,304.4 L736.4,305.8 L737.5,305.8 L738.6,304.4 L739.7,304.4 L740.7,305.8 L741.7,304.4 L742.8,304.4 L743.9,304.4 L745.0,304.4 L746.1,304.4 L747.2,304.4 L748.4,304.4 L749.5,304.4 L750.4,304.4 L751.5,304.4 L752.6,304.4 L753.7,304.4 L754.6,304.4 L755.7,305.8 L756.8,304.4 L757.9,304.4 L759.0,305.8 L760.1,305.8 L761.2,304.4 L762.3,304.4 L763.4,304.4 L764.5,304.4 L765.6,304.4 L766.7,304.4 L767.7,305.8 L768.7,304.4 L769.7,305.8 L770.7,304.4 L771.8,305.8 L773.0,305.8 L774.0,287.7 L775.1,252.9 L776.1,229.2 L777.1,206.9 L778.7,169.3 L779.8,159.6 L780.9,141.5 L782.0,131.7 L783.1,120.6 L784.2,110.8 L785.2,105.2 L786.2,103.9 L787.3,92.7 L788.4,102.5 L789.3,95.5 L790.3,98.3 L791.3,80.2 L792.2,81.6 L793.3,80.2 L794.4,80.2 L795.8,80.2 L796.8,78.8 L797.8,92.7 L798.8,83.0 L799.8,77.4 L800.8,83.0 L801.8,76.0 L802.8,85.8 L803.9,101.1 L804.9,101.1 L805.9,85.8 L807.0,102.5 L808.1,88.5 L809.2,84.4 L810.2,99.7 L811.2,91.3 L812.3,106.6 L813.3,109.4 L814.3,119.2 L815.3,115.0 L816.3,124.8 L817.4,131.7 L818.5,130.3 L819.6,124.8 L820.8,138.7 L821.9,135.9 L822.8,184.6 L823.9,229.2 L824.8,259.9 L825.8,290.5 L826.8,332.3 L827.8,356.0 L828.8,385.2 L829.8,396.4 L830.8,431.2 L831.8,442.3 L832.9,457.6 L833.9,477.1 L834.9,478.5 L836.0,481.3 L837.0,492.5 L838.0,500.8 L839.0,516.1 L840.0,502.2 L841.3,521.7 L842.2,524.5 L843.3,507.8 L844.4,518.9 L845.6,527.3 L846.7,535.6 L847.6,521.7 L848.6,525.9 L849.8,520.3 L850.7,535.6 L851.7,534.2 L852.7,532.9 L853.7,523.1 L854.8,530.1 L856.0,531.5 L857.1,528.7 L858.0,527.3 L859.1,534.2 L860.2,537.0 L861.3,541.2 L862.2,525.9 L863.3,523.1 L864.2,523.1 L865.2,528.7 L866.4,530.1 L867.5,538.4 L868.6,539.8 L869.7,534.2 L870.8,531.5 L871.9,537.0 L872.8,527.3 L873.9,544.0 L875.0,520.3 L875.9,523.1 L877.0,530.1 L878.0,525.9 L879.0,523.1 L880.1,532.9 L881.0,538.4 L882.1,535.6 L883.2,539.8 L884.3,544.0 L885.4,539.8 L886.7,523.1 L887.6,523.1 L888.7,527.3 L889.8,531.5 L890.9,521.7 L891.9,521.7 L892.9,520.3 L894.0,532.9 L895.1,544.0 L896.2,528.7 L897.4,539.8 L898.5,539.8 L899.6,542.6 L900.7,538.4 L901.8,525.9 L902.9,524.5 L904.0,520.3 L905.1,539.8 L906.2,541.2 L907.3,523.1 L908.4,520.3 L909.4,535.6 L910.5,539.8 L911.5,525.9 L912.6,541.2 L913.7,520.3 L914.8,521.7 L916.0,524.5 L917.1,541.2 L918.2,525.9 L919.3,538.4 L920.4,521.7 L921.5,528.7 L922.6,524.5 L923.7,537.0 L924.8,528.7 L925.9,539.8 L927.0,530.1 L928.1,531.5 L929.1,525.9 L930.1,528.7 L931.2,535.6 L932.3,521.7 L933.2,531.5 L934.3,523.1 L935.4,527.3 L936.5,521.7 L937.6,520.3 L938.8,539.8 L939.9,537.0 L941.0,530.1 L942.1,527.3 L943.0,518.9 L944.1,542.6 L945.2,531.5 L946.3,534.2 L947.4,532.9 L949.6,493.9 L950.7,489.7 L951.6,471.6 L952.7,456.2 L953.8,450.7 L955.1,452.1 L956.2,438.1 L957.4,439.5 L958.5,432.6 L959.4,434.0 L960.5,428.4 L961.4,417.2 L962.4,424.2 L963.5,420.0 L964.5,418.6 L965.5,410.3 L966.5,407.5 L967.5,413.1 L968.6,415.9 L969.6,408.9 L970.6,407.5 L971.7,386.6 L972.7,375.5 L973.7,361.5 L974.7,342.0 L975.7,332.3 L976.7,319.8 L977.9,307.2 L978.9,298.9 L979.9,293.3 L981.0,280.8 L982.1,275.2 L983.3,268.2 L984.4,264.0 L985.3,252.9 L986.4,250.1 L987.3,245.9 L988.3,241.8 L989.5,239.0 L990.6,239.0 L991.7,230.6 L992.8,225.0 L993.9,223.6 L995.0,225.0 L995.9,218.1 L997.0,215.3 L998.1,211.1 L999.0,204.1 L1001.2,208.3 L1002.1,206.9 L1003.2,202.8 L1004.1,197.2 L1005.2,194.4 L1006.3,193.0 L1007.4,198.6 L1008.4,190.2 L1009.4,194.4 L1010.5,186.0 L1011.6,187.4 L1012.7,186.0 L1013.6,183.3 L1014.7,188.8 L1015.8,183.3 L1016.9,177.7 L1018.0,186.0 L1019.1,179.1 L1020.2,177.7 L1021.3,174.9 L1022.4,177.7 L1024.4,177.7 L1025.4,166.5 L1026.4,167.9 L1027.5,165.1 L1028.6,174.9 L1029.8,170.7 L1030.9,169.3 L1032.0,173.5 L1033.1,169.3 L1034.2,167.9 L1035.3,167.9 L1036.2,165.1 L1037.3,156.8 L1038.4,167.9 L1039.5,162.4 L1040.6,163.8 L1041.7,155.4 L1042.8,154.0 L1043.9,151.2 L1045.0,162.4 L1046.1,162.4 L1047.7,149.8 L1048.6,149.8 L1049.7,151.2 L1050.8,149.8 L1051.9,142.9 L1053.0,151.2 L1054.1,151.2 L1055.2,151.2 L1057.7,183.3 L1058.8,195.8 L1059.9,201.4 L1061.0,211.1 L1062.1,222.2 L1063.2,232.0 L1064.3,239.0 L1065.4,244.5 L1066.5,247.3 L1067.6,251.5 L1068.7,257.1 L1069.8,259.9 L1070.9,266.8 L1072.0,268.2 L1073.1,275.2 L1074.1,278.0 L1075.1,279.4 L1076.2,280.8 L1077.3,282.1 L1078.5,286.3 L1079.6,286.3 L1080.7,289.1 L1081.8,289.1 L1082.9,290.5 L1084.0,291.9" fill="none" stroke="#ff7f0e" stroke-width="1.1" opacity="0.85"/><text x="616" y="572" font-size="11" fill="#888">time 0..21 s — altitude (blue) &amp; roll (orange)</text></svg>