solid Mesh
  facet normal 0 1 0
    outer loop
      vertex -17.7 4.25369 198.375
      vertex -17.7 4.25369 203.375
      vertex 17.7 4.25369 198.375
    endloop
  endfacet
  facet normal 0 1 0
    outer loop
      vertex -17.7 4.25369 203.375
      vertex 17.7 4.25369 203.375
      vertex 17.7 4.25369 198.375
    endloop
  endfacet
  facet normal 0 -1 0
    outer loop
      vertex -17.7 3.25369 203.375
      vertex -17.7 3.25369 198.375
      vertex 17.7 3.25369 203.375
    endloop
  endfacet
  facet normal 0 -1 0
    outer loop
      vertex -17.7 3.25369 198.375
      vertex 17.7 3.25369 198.375
      vertex 17.7 3.25369 203.375
    endloop
  endfacet
  facet normal 0 0 -1
    outer loop
      vertex 17.7 3.25369 198.375
      vertex -17.7 3.25369 198.375
      vertex 17.7 4.25369 198.375
    endloop
  endfacet
  facet normal 0 0 -1
    outer loop
      vertex -17.7 3.25369 198.375
      vertex -17.7 4.25369 198.375
      vertex 17.7 4.25369 198.375
    endloop
  endfacet
  facet normal -1 0 0
    outer loop
      vertex -17.7 3.25369 198.375
      vertex -17.7 3.25369 203.375
      vertex -17.7 4.25369 198.375
    endloop
  endfacet
  facet normal -1 0 0
    outer loop
      vertex -17.7 3.25369 203.375
      vertex -17.7 4.25369 203.375
      vertex -17.7 4.25369 198.375
    endloop
  endfacet
  facet normal 1 0 0
    outer loop
      vertex 17.7 3.25369 203.375
      vertex 17.7 3.25369 198.375
      vertex 17.7 4.25369 203.375
    endloop
  endfacet
  facet normal 1 0 0
    outer loop
      vertex 17.7 3.25369 198.375
      vertex 17.7 4.25369 198.375
      vertex 17.7 4.25369 203.375
    endloop
  endfacet
  facet normal 0 0 1
    outer loop
      vertex -17.7 3.25369 203.375
      vertex 17.7 3.25369 203.375
      vertex -17.7 4.25369 203.375
    endloop
  endfacet
  facet normal 0 0 1
    outer loop
      vertex 17.7 3.25369 203.375
      vertex 17.7 4.25369 203.375
      vertex -17.7 4.25369 203.375
    endloop
  endfacet
endsolid Mesh
