solid Mesh
  facet normal 0 0 1
    outer loop
      vertex 20.59 4.75369 225.425
      vertex 20.59 6.05369 225.425
      vertex 19.9 4.75369 225.425
    endloop
  endfacet
  facet normal 0 0 1
    outer loop
      vertex 20.59 6.05369 225.425
      vertex 14.0629 6.05369 225.425
      vertex 19.9 4.75369 225.425
    endloop
  endfacet
  facet normal 0 0 1
    outer loop
      vertex -14.0629 6.05369 225.425
      vertex -20.59 6.05369 225.425
      vertex -19.9 4.75369 225.425
    endloop
  endfacet
  facet normal 0 0 1
    outer loop
      vertex -20.59 6.05369 225.425
      vertex -20.59 4.75369 225.425
      vertex -19.9 4.75369 225.425
    endloop
  endfacet
  facet normal 0 0 1
    outer loop
      vertex 19.9 3.25369 225.425
      vertex 19.9 4.75369 225.425
      vertex 15.5629 3.25369 225.425
    endloop
  endfacet
  facet normal 0 0 1
    outer loop
      vertex 19.9 4.75369 225.425
      vertex 14.0629 6.05369 225.425
      vertex 15.5629 3.25369 225.425
    endloop
  endfacet
  facet normal 0 0 1
    outer loop
      vertex 15.5629 3.25369 225.425
      vertex 14.0629 6.05369 225.425
      vertex 15.5629 -3.37339 225.425
    endloop
  endfacet
  facet normal 0 0 1
    outer loop
      vertex 14.0629 6.05369 225.425
      vertex 14.0629 -1.87339 225.425
      vertex 15.5629 -3.37339 225.425
    endloop
  endfacet
  facet normal 0 0 1
    outer loop
      vertex 15.5629 -3.37339 225.425
      vertex 14.0629 -1.87339 225.425
      vertex -15.5629 -3.37339 225.425
    endloop
  endfacet
  facet normal 0 0 1
    outer loop
      vertex 14.0629 -1.87339 225.425
      vertex -14.0629 -1.87339 225.425
      vertex -15.5629 -3.37339 225.425
    endloop
  endfacet
  facet normal 0 0 1
    outer loop
      vertex -15.5629 -3.37339 225.425
      vertex -14.0629 -1.87339 225.425
      vertex -15.5629 3.25369 225.425
    endloop
  endfacet
  facet normal 0 0 1
    outer loop
      vertex -14.0629 -1.87339 225.425
      vertex -14.0629 6.05369 225.425
      vertex -15.5629 3.25369 225.425
    endloop
  endfacet
  facet normal 0 0 1
    outer loop
      vertex -15.5629 3.25369 225.425
      vertex -14.0629 6.05369 225.425
      vertex -19.9 3.25369 225.425
    endloop
  endfacet
  facet normal 0 0 1
    outer loop
      vertex -14.0629 6.05369 225.425
      vertex -19.9 4.75369 225.425
      vertex -19.9 3.25369 225.425
    endloop
  endfacet
  facet normal 0 0 -1
    outer loop
      vertex 14.0629 6.05369 221.625
      vertex 20.59 6.05369 221.625
      vertex 19.9 4.75369 221.625
    endloop
  endfacet
  facet normal 0 0 -1
    outer loop
      vertex 20.59 6.05369 221.625
      vertex 20.59 4.75369 221.625
      vertex 19.9 4.75369 221.625
    endloop
  endfacet
  facet normal 0 0 -1
    outer loop
      vertex -20.59 4.75369 221.625
      vertex -20.59 6.05369 221.625
      vertex -19.9 4.75369 221.625
    endloop
  endfacet
  facet normal 0 0 -1
    outer loop
      vertex -20.59 6.05369 221.625
      vertex -14.0629 6.05369 221.625
      vertex -19.9 4.75369 221.625
    endloop
  endfacet
  facet normal 0 0 -1
    outer loop
      vertex -19.9 4.75369 221.625
      vertex -14.0629 6.05369 221.625
      vertex -19.9 3.25369 221.625
    endloop
  endfacet
  facet normal 0 0 -1
    outer loop
      vertex 19.9 4.75369 221.625
      vertex 19.9 3.25369 221.625
      vertex 14.0629 6.05369 221.625
    endloop
  endfacet
  facet normal 0 0 -1
    outer loop
      vertex 19.9 3.25369 221.625
      vertex 15.5629 3.25369 221.625
      vertex 14.0629 6.05369 221.625
    endloop
  endfacet
  facet normal 0 0 -1
    outer loop
      vertex 14.0629 6.05369 221.625
      vertex 15.5629 3.25369 221.625
      vertex 14.0629 -1.87339 221.625
    endloop
  endfacet
  facet normal 0 0 -1
    outer loop
      vertex 15.5629 3.25369 221.625
      vertex 15.5629 -3.37339 221.625
      vertex 14.0629 -1.87339 221.625
    endloop
  endfacet
  facet normal 0 0 -1
    outer loop
      vertex 14.0629 -1.87339 221.625
      vertex 15.5629 -3.37339 221.625
      vertex -14.0629 -1.87339 221.625
    endloop
  endfacet
  facet normal 0 0 -1
    outer loop
      vertex 15.5629 -3.37339 221.625
      vertex -15.5629 -3.37339 221.625
      vertex -14.0629 -1.87339 221.625
    endloop
  endfacet
  facet normal 0 0 -1
    outer loop
      vertex -14.0629 -1.87339 221.625
      vertex -15.5629 -3.37339 221.625
      vertex -14.0629 6.05369 221.625
    endloop
  endfacet
  facet normal 0 0 -1
    outer loop
      vertex -15.5629 -3.37339 221.625
      vertex -15.5629 3.25369 221.625
      vertex -14.0629 6.05369 221.625
    endloop
  endfacet
  facet normal 0 0 -1
    outer loop
      vertex -14.0629 6.05369 221.625
      vertex -15.5629 3.25369 221.625
      vertex -19.9 3.25369 221.625
    endloop
  endfacet
  facet normal 1 0 0
    outer loop
      vertex -14.0629 -1.87339 221.625
      vertex -14.0629 6.05369 221.625
      vertex -14.0629 -1.87339 225.425
    endloop
  endfacet
  facet normal 1 0 0
    outer loop
      vertex -14.0629 6.05369 221.625
      vertex -14.0629 6.05369 225.425
      vertex -14.0629 -1.87339 225.425
    endloop
  endfacet
  facet normal 0 1 0
    outer loop
      vertex -14.0629 6.05369 221.625
      vertex -20.59 6.05369 221.625
      vertex -14.0629 6.05369 225.425
    endloop
  endfacet
  facet normal 0 1 0
    outer loop
      vertex -20.59 6.05369 221.625
      vertex -20.59 6.05369 225.425
      vertex -14.0629 6.05369 225.425
    endloop
  endfacet
  facet normal -1 0 0
    outer loop
      vertex -20.59 6.05369 221.625
      vertex -20.59 4.75369 221.625
      vertex -20.59 6.05369 225.425
    endloop
  endfacet
  facet normal -1 0 0
    outer loop
      vertex -20.59 4.75369 221.625
      vertex -20.59 4.75369 225.425
      vertex -20.59 6.05369 225.425
    endloop
  endfacet
  facet normal 0 -1 0
    outer loop
      vertex -20.59 4.75369 221.625
      vertex -19.9 4.75369 221.625
      vertex -20.59 4.75369 225.425
    endloop
  endfacet
  facet normal 0 -1 0
    outer loop
      vertex -19.9 4.75369 221.625
      vertex -19.9 4.75369 225.425
      vertex -20.59 4.75369 225.425
    endloop
  endfacet
  facet normal 0 -1 0
    outer loop
      vertex -19.9 3.25369 221.625
      vertex -15.5629 3.25369 221.625
      vertex -19.9 3.25369 225.425
    endloop
  endfacet
  facet normal 0 -1 0
    outer loop
      vertex -15.5629 3.25369 221.625
      vertex -15.5629 3.25369 225.425
      vertex -19.9 3.25369 225.425
    endloop
  endfacet
  facet normal -1 0 0
    outer loop
      vertex -19.9 4.75369 221.625
      vertex -19.9 3.25369 221.625
      vertex -19.9 4.75369 225.425
    endloop
  endfacet
  facet normal -1 0 0
    outer loop
      vertex -19.9 3.25369 221.625
      vertex -19.9 3.25369 225.425
      vertex -19.9 4.75369 225.425
    endloop
  endfacet
  facet normal 0 1 0
    outer loop
      vertex 14.0629 -1.87339 221.625
      vertex -14.0629 -1.87339 221.625
      vertex 14.0629 -1.87339 225.425
    endloop
  endfacet
  facet normal 0 1 0
    outer loop
      vertex -14.0629 -1.87339 221.625
      vertex -14.0629 -1.87339 225.425
      vertex 14.0629 -1.87339 225.425
    endloop
  endfacet
  facet normal -1 0 0
    outer loop
      vertex 14.0629 6.05369 221.625
      vertex 14.0629 -1.87339 221.625
      vertex 14.0629 6.05369 225.425
    endloop
  endfacet
  facet normal -1 0 0
    outer loop
      vertex 14.0629 -1.87339 221.625
      vertex 14.0629 -1.87339 225.425
      vertex 14.0629 6.05369 225.425
    endloop
  endfacet
  facet normal 0 1 0
    outer loop
      vertex 20.59 6.05369 221.625
      vertex 14.0629 6.05369 221.625
      vertex 20.59 6.05369 225.425
    endloop
  endfacet
  facet normal 0 1 0
    outer loop
      vertex 14.0629 6.05369 221.625
      vertex 14.0629 6.05369 225.425
      vertex 20.59 6.05369 225.425
    endloop
  endfacet
  facet normal 1 0 0
    outer loop
      vertex 20.59 4.75369 221.625
      vertex 20.59 6.05369 221.625
      vertex 20.59 4.75369 225.425
    endloop
  endfacet
  facet normal 1 0 0
    outer loop
      vertex 20.59 6.05369 221.625
      vertex 20.59 6.05369 225.425
      vertex 20.59 4.75369 225.425
    endloop
  endfacet
  facet normal 0 -1 0
    outer loop
      vertex 19.9 4.75369 221.625
      vertex 20.59 4.75369 221.625
      vertex 19.9 4.75369 225.425
    endloop
  endfacet
  facet normal 0 -1 0
    outer loop
      vertex 20.59 4.75369 221.625
      vertex 20.59 4.75369 225.425
      vertex 19.9 4.75369 225.425
    endloop
  endfacet
  facet normal 1 0 0
    outer loop
      vertex 19.9 3.25369 221.625
      vertex 19.9 4.75369 221.625
      vertex 19.9 3.25369 225.425
    endloop
  endfacet
  facet normal 1 0 0
    outer loop
      vertex 19.9 4.75369 221.625
      vertex 19.9 4.75369 225.425
      vertex 19.9 3.25369 225.425
    endloop
  endfacet
  facet normal 0 -1 0
    outer loop
      vertex 15.5629 3.25369 221.625
      vertex 19.9 3.25369 221.625
      vertex 15.5629 3.25369 225.425
    endloop
  endfacet
  facet normal 0 -1 0
    outer loop
      vertex 19.9 3.25369 221.625
      vertex 19.9 3.25369 225.425
      vertex 15.5629 3.25369 225.425
    endloop
  endfacet
  facet normal 1 0 0
    outer loop
      vertex 15.5629 -3.37339 221.625
      vertex 15.5629 3.25369 221.625
      vertex 15.5629 -3.37339 225.425
    endloop
  endfacet
  facet normal 1 0 0
    outer loop
      vertex 15.5629 3.25369 221.625
      vertex 15.5629 3.25369 225.425
      vertex 15.5629 -3.37339 225.425
    endloop
  endfacet
  facet normal 0 -1 0
    outer loop
      vertex -15.5629 -3.37339 221.625
      vertex 15.5629 -3.37339 221.625
      vertex -15.5629 -3.37339 225.425
    endloop
  endfacet
  facet normal 0 -1 0
    outer loop
      vertex 15.5629 -3.37339 221.625
      vertex 15.5629 -3.37339 225.425
      vertex -15.5629 -3.37339 225.425
    endloop
  endfacet
  facet normal -1 0 0
    outer loop
      vertex -15.5629 3.25369 221.625
      vertex -15.5629 -3.37339 221.625
      vertex -15.5629 3.25369 225.425
    endloop
  endfacet
  facet normal -1 0 0
    outer loop
      vertex -15.5629 -3.37339 221.625
      vertex -15.5629 -3.37339 225.425
      vertex -15.5629 3.25369 225.425
    endloop
  endfacet
endsolid Mesh
