solid Mesh
  facet normal 0 -1 0
    outer loop
      vertex 21.4718 -1 45
      vertex 21.4718 -1 25
      vertex 22.9737 -1 25.2
    endloop
  endfacet
  facet normal 0 -1 0
    outer loop
      vertex 21.4718 -1 25
      vertex 22.9737 -1 25
      vertex 22.9737 -1 25.2
    endloop
  endfacet
  facet normal 0 -1 0
    outer loop
      vertex 22.9737 -1 44.8
      vertex 22.9737 -1 45
      vertex 21.4718 -1 45
    endloop
  endfacet
  facet normal 0 -1 0
    outer loop
      vertex 23.1737 -1 6.24598
      vertex 98.1737 -1 6.24598
      vertex 23.1737 -1 25.2
    endloop
  endfacet
  facet normal 0 -1 0
    outer loop
      vertex 98.1737 -1 6.24598
      vertex 98.1737 -1 26.246
      vertex 23.1737 -1 25.2
    endloop
  endfacet
  facet normal 0 -1 0
    outer loop
      vertex 21.4718 -1 45
      vertex 22.9737 -1 25.2
      vertex 22.9737 -1 44.8
    endloop
  endfacet
  facet normal 0 -1 0
    outer loop
      vertex 22.9737 -1 25.2
      vertex 23.1737 -1 25.2
      vertex 22.9737 -1 44.8
    endloop
  endfacet
  facet normal 0 -1 0
    outer loop
      vertex 22.9737 -1 44.8
      vertex 23.1737 -1 25.2
      vertex 23.1737 -1 44.8
    endloop
  endfacet
  facet normal 0 -1 0
    outer loop
      vertex 23.1737 -1 25.2
      vertex 98.1737 -1 26.246
      vertex 23.1737 -1 44.8
    endloop
  endfacet
  facet normal 0 -1 0
    outer loop
      vertex 23.1737 -1 44.8
      vertex 98.1737 -1 26.246
      vertex 23.1737 -1 66.246
    endloop
  endfacet
  facet normal 0 1 0
    outer loop
      vertex 23.1737 1 44.8
      vertex 23.1737 1 66.246
      vertex 98.1737 1 26.246
    endloop
  endfacet
  facet normal 0 1 0
    outer loop
      vertex 21.4718 1 25
      vertex 21.4718 1 45
      vertex 22.9737 1 44.8
    endloop
  endfacet
  facet normal 0 1 0
    outer loop
      vertex 21.4718 1 45
      vertex 22.9737 1 45
      vertex 22.9737 1 44.8
    endloop
  endfacet
  facet normal 0 1 0
    outer loop
      vertex 98.1737 1 6.24598
      vertex 23.1737 1 6.24598
      vertex 23.1737 1 25.2
    endloop
  endfacet
  facet normal 0 1 0
    outer loop
      vertex 22.9737 1 25
      vertex 21.4718 1 25
      vertex 22.9737 1 25.2
    endloop
  endfacet
  facet normal 0 1 0
    outer loop
      vertex 21.4718 1 25
      vertex 22.9737 1 44.8
      vertex 22.9737 1 25.2
    endloop
  endfacet
  facet normal 0 1 0
    outer loop
      vertex 22.9737 1 25.2
      vertex 22.9737 1 44.8
      vertex 23.1737 1 25.2
    endloop
  endfacet
  facet normal 0 1 0
    outer loop
      vertex 22.9737 1 44.8
      vertex 23.1737 1 44.8
      vertex 23.1737 1 25.2
    endloop
  endfacet
  facet normal 0 1 0
    outer loop
      vertex 23.1737 1 25.2
      vertex 23.1737 1 44.8
      vertex 98.1737 1 6.24598
    endloop
  endfacet
  facet normal 0 1 0
    outer loop
      vertex 23.1737 1 44.8
      vertex 98.1737 1 26.246
      vertex 98.1737 1 6.24598
    endloop
  endfacet
  facet normal 0 0 -1
    outer loop
      vertex 21.4718 1 25
      vertex 22.9737 1 25
      vertex 21.4718 -1 25
    endloop
  endfacet
  facet normal 0 0 -1
    outer loop
      vertex 22.9737 1 25
      vertex 22.9737 -1 25
      vertex 21.4718 -1 25
    endloop
  endfacet
  facet normal 1 0 0
    outer loop
      vertex 22.9737 1 25
      vertex 22.9737 1 25.2
      vertex 22.9737 -1 25
    endloop
  endfacet
  facet normal 1 0 0
    outer loop
      vertex 22.9737 1 25.2
      vertex 22.9737 -1 25.2
      vertex 22.9737 -1 25
    endloop
  endfacet
  facet normal 0 0 -1
    outer loop
      vertex 22.9737 1 25.2
      vertex 23.1737 1 25.2
      vertex 22.9737 -1 25.2
    endloop
  endfacet
  facet normal 0 0 -1
    outer loop
      vertex 23.1737 1 25.2
      vertex 23.1737 -1 25.2
      vertex 22.9737 -1 25.2
    endloop
  endfacet
  facet normal -1 0 0
    outer loop
      vertex 23.1737 1 25.2
      vertex 23.1737 1 6.24598
      vertex 23.1737 -1 25.2
    endloop
  endfacet
  facet normal -1 0 0
    outer loop
      vertex 23.1737 1 6.24598
      vertex 23.1737 -1 6.24598
      vertex 23.1737 -1 25.2
    endloop
  endfacet
  facet normal 0 0 -1
    outer loop
      vertex 23.1737 1 6.24598
      vertex 98.1737 1 6.24598
      vertex 23.1737 -1 6.24598
    endloop
  endfacet
  facet normal 0 0 -1
    outer loop
      vertex 98.1737 1 6.24598
      vertex 98.1737 -1 6.24598
      vertex 23.1737 -1 6.24598
    endloop
  endfacet
  facet normal 1 0 0
    outer loop
      vertex 98.1737 1 6.24598
      vertex 98.1737 1 26.246
      vertex 98.1737 -1 6.24598
    endloop
  endfacet
  facet normal 1 0 0
    outer loop
      vertex 98.1737 1 26.246
      vertex 98.1737 -1 26.246
      vertex 98.1737 -1 6.24598
    endloop
  endfacet
  facet normal 0 0 1
    outer loop
      vertex 22.9737 1 45
      vertex 21.4718 1 45
      vertex 22.9737 -1 45
    endloop
  endfacet
  facet normal 0 0 1
    outer loop
      vertex 21.4718 1 45
      vertex 21.4718 -1 45
      vertex 22.9737 -1 45
    endloop
  endfacet
  facet normal -1 0 0
    outer loop
      vertex 21.4718 1 45
      vertex 21.4718 1 25
      vertex 21.4718 -1 45
    endloop
  endfacet
  facet normal -1 0 0
    outer loop
      vertex 21.4718 1 25
      vertex 21.4718 -1 25
      vertex 21.4718 -1 45
    endloop
  endfacet
  facet normal 0 0 1
    outer loop
      vertex 23.1737 1 44.8
      vertex 22.9737 1 44.8
      vertex 23.1737 -1 44.8
    endloop
  endfacet
  facet normal 0 0 1
    outer loop
      vertex 22.9737 1 44.8
      vertex 22.9737 -1 44.8
      vertex 23.1737 -1 44.8
    endloop
  endfacet
  facet normal 1 0 0
    outer loop
      vertex 22.9737 1 44.8
      vertex 22.9737 1 45
      vertex 22.9737 -1 44.8
    endloop
  endfacet
  facet normal 1 0 0
    outer loop
      vertex 22.9737 1 45
      vertex 22.9737 -1 45
      vertex 22.9737 -1 44.8
    endloop
  endfacet
  facet normal -1 0 0
    outer loop
      vertex 23.1737 1 66.246
      vertex 23.1737 1 44.8
      vertex 23.1737 -1 66.246
    endloop
  endfacet
  facet normal -1 0 0
    outer loop
      vertex 23.1737 1 44.8
      vertex 23.1737 -1 44.8
      vertex 23.1737 -1 66.246
    endloop
  endfacet
  facet normal 0.470588 0 0.882353
    outer loop
      vertex 98.1737 1 26.246
      vertex 23.1737 1 66.246
      vertex 98.1737 -1 26.246
    endloop
  endfacet
  facet normal 0.470588 0 0.882353
    outer loop
      vertex 23.1737 1 66.246
      vertex 23.1737 -1 66.246
      vertex 98.1737 -1 26.246
    endloop
  endfacet
endsolid Mesh
