solid Mesh
  facet normal -1 0 0
    outer loop
      vertex 17.1716 -4.54631 226.741
      vertex 17.1716 1.35369 226.741
      vertex 17.1716 -4.54631 102
    endloop
  endfacet
  facet normal -1 0 0
    outer loop
      vertex 17.1716 1.35369 226.741
      vertex 17.1716 1.35369 102
      vertex 17.1716 -4.54631 102
    endloop
  endfacet
  facet normal 0 1 0
    outer loop
      vertex 17.1716 1.35369 226.741
      vertex 20.5476 1.35369 226.741
      vertex 17.1716 1.35369 102
    endloop
  endfacet
  facet normal 0 1 0
    outer loop
      vertex 20.5476 1.35369 226.741
      vertex 20.5476 1.35369 102
      vertex 17.1716 1.35369 102
    endloop
  endfacet
  facet normal 0 0 1
    outer loop
      vertex 20.5476 -0.646308 226.741
      vertex 20.5476 1.35369 226.741
      vertex 19.1716 -0.646308 226.741
    endloop
  endfacet
  facet normal 0 0 1
    outer loop
      vertex 20.5476 1.35369 226.741
      vertex 17.1716 1.35369 226.741
      vertex 19.1716 -0.646308 226.741
    endloop
  endfacet
  facet normal 0 0 1
    outer loop
      vertex 19.1716 -0.646308 226.741
      vertex 17.1716 1.35369 226.741
      vertex 19.1716 -2.54631 226.741
    endloop
  endfacet
  facet normal 0 0 1
    outer loop
      vertex 17.1716 1.35369 226.741
      vertex 17.1716 -4.54631 226.741
      vertex 19.1716 -2.54631 226.741
    endloop
  endfacet
  facet normal 0 0 1
    outer loop
      vertex 19.1716 -2.54631 226.741
      vertex 17.1716 -4.54631 226.741
      vertex 21.3487 -2.54631 226.741
    endloop
  endfacet
  facet normal 0 0 1
    outer loop
      vertex 17.1716 -4.54631 226.741
      vertex 21.0138 -4.54631 226.741
      vertex 21.3487 -2.54631 226.741
    endloop
  endfacet
  facet normal 0 -1 0
    outer loop
      vertex 17.1716 -4.54631 226.741
      vertex 17.1716 -4.54631 102
      vertex 21.0138 -4.54631 226.741
    endloop
  endfacet
  facet normal 0 -1 0
    outer loop
      vertex 17.1716 -4.54631 102
      vertex 21.0138 -4.54631 102
      vertex 21.0138 -4.54631 226.741
    endloop
  endfacet
  facet normal 0 1 0
    outer loop
      vertex 19.1716 -2.54631 102
      vertex 19.1716 -2.54631 226.741
      vertex 21.3487 -2.54631 102
    endloop
  endfacet
  facet normal 0 1 0
    outer loop
      vertex 19.1716 -2.54631 226.741
      vertex 21.3487 -2.54631 226.741
      vertex 21.3487 -2.54631 102
    endloop
  endfacet
  facet normal 0 1 0
    outer loop
      vertex -21.3604 -2.44631 242.641
      vertex -21.3604 -2.44631 80.1
      vertex -22.8695 -2.44631 242.641
    endloop
  endfacet
  facet normal 0 1 0
    outer loop
      vertex -21.3604 -2.44631 80.1
      vertex -22.8695 -2.44631 80.1
      vertex -22.8695 -2.44631 242.641
    endloop
  endfacet
  facet normal -0.985924 0.167194 0.00043121
    outer loop
      vertex 20.9727 -4.73258 80.1
      vertex 21.0138 -4.54631 102
      vertex 21.3604 -2.44631 80.1
    endloop
  endfacet
  facet normal -0.986272 0.165128 0.000227632
    outer loop
      vertex 21.0138 -4.54631 102
      vertex 21.3487 -2.54631 102
      vertex 21.3604 -2.44631 80.1
    endloop
  endfacet
  facet normal -0.993239 0.116091 0
    outer loop
      vertex 21.3604 -2.44631 80.1
      vertex 21.3487 -2.54631 102
      vertex 21.3604 -2.44631 242.641
    endloop
  endfacet
  facet normal -0.993239 0.116091 0
    outer loop
      vertex 21.3487 -2.54631 102
      vertex 21.3487 -2.54631 226.741
      vertex 21.3604 -2.44631 242.641
    endloop
  endfacet
  facet normal -0.985924 0.167194 -0.000326778
    outer loop
      vertex 21.3604 -2.44631 242.641
      vertex 21.3487 -2.54631 226.741
      vertex 20.9727 -4.73258 242.641
    endloop
  endfacet
  facet normal -0.986272 0.165128 -0.00061903
    outer loop
      vertex 21.3487 -2.54631 226.741
      vertex 21.0138 -4.54631 226.741
      vertex 20.9727 -4.73258 242.641
    endloop
  endfacet
  facet normal -0.976439 0.215795 0
    outer loop
      vertex 21.0138 -4.54631 226.741
      vertex 21.0138 -4.54631 102
      vertex 20.9727 -4.73258 242.641
    endloop
  endfacet
  facet normal -0.976439 0.215795 0
    outer loop
      vertex 21.0138 -4.54631 102
      vertex 20.9727 -4.73258 80.1
      vertex 20.9727 -4.73258 242.641
    endloop
  endfacet
  facet normal -0.962183 0.272405 0
    outer loop
      vertex 20.9727 -4.73258 242.641
      vertex 20.9727 -4.73258 80.1
      vertex 20.341 -6.9638 242.641
    endloop
  endfacet
  facet normal -0.962183 0.272405 0
    outer loop
      vertex 20.9727 -4.73258 80.1
      vertex 20.341 -6.9638 80.1
      vertex 20.341 -6.9638 242.641
    endloop
  endfacet
  facet normal -0.927248 0.374448 0
    outer loop
      vertex 20.341 -6.9638 242.641
      vertex 20.341 -6.9638 80.1
      vertex 19.4727 -9.114 242.641
    endloop
  endfacet
  facet normal -0.927248 0.374448 0
    outer loop
      vertex 20.341 -6.9638 80.1
      vertex 19.4727 -9.114 80.1
      vertex 19.4727 -9.114 242.641
    endloop
  endfacet
  facet normal -0.881527 0.472133 0
    outer loop
      vertex 19.4727 -9.114 242.641
      vertex 19.4727 -9.114 80.1
      vertex 18.3778 -11.1582 242.641
    endloop
  endfacet
  facet normal -0.881527 0.472133 0
    outer loop
      vertex 19.4727 -9.114 80.1
      vertex 18.3778 -11.1582 80.1
      vertex 18.3778 -11.1582 242.641
    endloop
  endfacet
  facet normal -0.825551 0.564327 0
    outer loop
      vertex 18.3778 -11.1582 242.641
      vertex 18.3778 -11.1582 80.1
      vertex 17.0692 -13.0726 242.641
    endloop
  endfacet
  facet normal -0.825551 0.564327 0
    outer loop
      vertex 18.3778 -11.1582 80.1
      vertex 17.0692 -13.0726 80.1
      vertex 17.0692 -13.0726 242.641
    endloop
  endfacet
  facet normal -0.759972 0.649956 0
    outer loop
      vertex 17.0692 -13.0726 242.641
      vertex 17.0692 -13.0726 80.1
      vertex 15.562 -14.8349 242.641
    endloop
  endfacet
  facet normal -0.759972 0.649956 0
    outer loop
      vertex 17.0692 -13.0726 80.1
      vertex 15.562 -14.8349 80.1
      vertex 15.562 -14.8349 242.641
    endloop
  endfacet
  facet normal -0.685552 0.728024 0
    outer loop
      vertex 15.562 -14.8349 242.641
      vertex 15.562 -14.8349 80.1
      vertex 13.8738 -16.4246 242.641
    endloop
  endfacet
  facet normal -0.685552 0.728024 0
    outer loop
      vertex 15.562 -14.8349 80.1
      vertex 13.8738 -16.4246 80.1
      vertex 13.8738 -16.4246 242.641
    endloop
  endfacet
  facet normal -0.603156 0.797623 0
    outer loop
      vertex 13.8738 -16.4246 242.641
      vertex 13.8738 -16.4246 80.1
      vertex 12.0242 -17.8233 242.641
    endloop
  endfacet
  facet normal -0.603156 0.797623 0
    outer loop
      vertex 13.8738 -16.4246 80.1
      vertex 12.0242 -17.8233 80.1
      vertex 12.0242 -17.8233 242.641
    endloop
  endfacet
  facet normal -0.513745 0.857943 0
    outer loop
      vertex 12.0242 -17.8233 242.641
      vertex 12.0242 -17.8233 80.1
      vertex 10.0347 -19.0146 242.641
    endloop
  endfacet
  facet normal -0.513745 0.857943 0
    outer loop
      vertex 12.0242 -17.8233 80.1
      vertex 10.0347 -19.0146 80.1
      vertex 10.0347 -19.0146 242.641
    endloop
  endfacet
  facet normal -0.418356 0.908283 0
    outer loop
      vertex 10.0347 -19.0146 242.641
      vertex 10.0347 -19.0146 80.1
      vertex 7.92846 -19.9847 242.641
    endloop
  endfacet
  facet normal -0.418356 0.908283 0
    outer loop
      vertex 10.0347 -19.0146 80.1
      vertex 7.92846 -19.9847 80.1
      vertex 7.92846 -19.9847 242.641
    endloop
  endfacet
  facet normal -0.318101 0.948057 0
    outer loop
      vertex 7.92846 -19.9847 242.641
      vertex 7.92846 -19.9847 80.1
      vertex 5.73 -20.7224 242.641
    endloop
  endfacet
  facet normal -0.318101 0.948057 0
    outer loop
      vertex 7.92846 -19.9847 80.1
      vertex 5.73 -20.7224 80.1
      vertex 5.73 -20.7224 242.641
    endloop
  endfacet
  facet normal -0.214146 0.976802 0
    outer loop
      vertex 5.73 -20.7224 242.641
      vertex 5.73 -20.7224 80.1
      vertex 3.46488 -21.219 242.641
    endloop
  endfacet
  facet normal -0.214146 0.976802 0
    outer loop
      vertex 5.73 -20.7224 80.1
      vertex 3.46488 -21.219 80.1
      vertex 3.46488 -21.219 242.641
    endloop
  endfacet
  facet normal -0.107699 0.994184 0
    outer loop
      vertex 3.46488 -21.219 242.641
      vertex 3.46488 -21.219 80.1
      vertex 1.15946 -21.4687 242.641
    endloop
  endfacet
  facet normal -0.107699 0.994184 0
    outer loop
      vertex 3.46488 -21.219 80.1
      vertex 1.15946 -21.4687 80.1
      vertex 1.15946 -21.4687 242.641
    endloop
  endfacet
  facet normal 0 1 0
    outer loop
      vertex 1.15946 -21.4687 242.641
      vertex 1.15946 -21.4687 80.1
      vertex -1.15946 -21.4687 242.641
    endloop
  endfacet
  facet normal 0 1 0
    outer loop
      vertex 1.15946 -21.4687 80.1
      vertex -1.15946 -21.4687 80.1
      vertex -1.15946 -21.4687 242.641
    endloop
  endfacet
  facet normal 0.107699 0.994184 0
    outer loop
      vertex -1.15946 -21.4687 242.641
      vertex -1.15946 -21.4687 80.1
      vertex -3.46488 -21.219 242.641
    endloop
  endfacet
  facet normal 0.107699 0.994184 0
    outer loop
      vertex -1.15946 -21.4687 80.1
      vertex -3.46488 -21.219 80.1
      vertex -3.46488 -21.219 242.641
    endloop
  endfacet
  facet normal 0.214146 0.976802 0
    outer loop
      vertex -3.46488 -21.219 242.641
      vertex -3.46488 -21.219 80.1
      vertex -5.73 -20.7224 242.641
    endloop
  endfacet
  facet normal 0.214146 0.976802 0
    outer loop
      vertex -3.46488 -21.219 80.1
      vertex -5.73 -20.7224 80.1
      vertex -5.73 -20.7224 242.641
    endloop
  endfacet
  facet normal 0.318101 0.948057 0
    outer loop
      vertex -5.73 -20.7224 242.641
      vertex -5.73 -20.7224 80.1
      vertex -7.92846 -19.9847 242.641
    endloop
  endfacet
  facet normal 0.318101 0.948057 0
    outer loop
      vertex -5.73 -20.7224 80.1
      vertex -7.92846 -19.9847 80.1
      vertex -7.92846 -19.9847 242.641
    endloop
  endfacet
  facet normal 0.418356 0.908283 0
    outer loop
      vertex -7.92846 -19.9847 242.641
      vertex -7.92846 -19.9847 80.1
      vertex -10.0347 -19.0146 242.641
    endloop
  endfacet
  facet normal 0.418356 0.908283 0
    outer loop
      vertex -7.92846 -19.9847 80.1
      vertex -10.0347 -19.0146 80.1
      vertex -10.0347 -19.0146 242.641
    endloop
  endfacet
  facet normal 0.513745 0.857943 0
    outer loop
      vertex -10.0347 -19.0146 242.641
      vertex -10.0347 -19.0146 80.1
      vertex -12.0242 -17.8233 242.641
    endloop
  endfacet
  facet normal 0.513745 0.857943 0
    outer loop
      vertex -10.0347 -19.0146 80.1
      vertex -12.0242 -17.8233 80.1
      vertex -12.0242 -17.8233 242.641
    endloop
  endfacet
  facet normal 0.603156 0.797623 0
    outer loop
      vertex -12.0242 -17.8233 242.641
      vertex -12.0242 -17.8233 80.1
      vertex -13.8738 -16.4246 242.641
    endloop
  endfacet
  facet normal 0.603156 0.797623 0
    outer loop
      vertex -12.0242 -17.8233 80.1
      vertex -13.8738 -16.4246 80.1
      vertex -13.8738 -16.4246 242.641
    endloop
  endfacet
  facet normal 0.685552 0.728024 0
    outer loop
      vertex -13.8738 -16.4246 242.641
      vertex -13.8738 -16.4246 80.1
      vertex -15.562 -14.8349 242.641
    endloop
  endfacet
  facet normal 0.685552 0.728024 0
    outer loop
      vertex -13.8738 -16.4246 80.1
      vertex -15.562 -14.8349 80.1
      vertex -15.562 -14.8349 242.641
    endloop
  endfacet
  facet normal 0.759972 0.649956 0
    outer loop
      vertex -15.562 -14.8349 242.641
      vertex -15.562 -14.8349 80.1
      vertex -17.0692 -13.0726 242.641
    endloop
  endfacet
  facet normal 0.759972 0.649956 0
    outer loop
      vertex -15.562 -14.8349 80.1
      vertex -17.0692 -13.0726 80.1
      vertex -17.0692 -13.0726 242.641
    endloop
  endfacet
  facet normal 0.825551 0.564327 0
    outer loop
      vertex -17.0692 -13.0726 242.641
      vertex -17.0692 -13.0726 80.1
      vertex -18.3778 -11.1582 242.641
    endloop
  endfacet
  facet normal 0.825551 0.564327 0
    outer loop
      vertex -17.0692 -13.0726 80.1
      vertex -18.3778 -11.1582 80.1
      vertex -18.3778 -11.1582 242.641
    endloop
  endfacet
  facet normal 0.881527 0.472133 0
    outer loop
      vertex -18.3778 -11.1582 242.641
      vertex -18.3778 -11.1582 80.1
      vertex -19.4727 -9.114 242.641
    endloop
  endfacet
  facet normal 0.881527 0.472133 0
    outer loop
      vertex -18.3778 -11.1582 80.1
      vertex -19.4727 -9.114 80.1
      vertex -19.4727 -9.114 242.641
    endloop
  endfacet
  facet normal 0.927248 0.374448 0
    outer loop
      vertex -19.4727 -9.114 242.641
      vertex -19.4727 -9.114 80.1
      vertex -20.341 -6.9638 242.641
    endloop
  endfacet
  facet normal 0.927248 0.374448 0
    outer loop
      vertex -19.4727 -9.114 80.1
      vertex -20.341 -6.9638 80.1
      vertex -20.341 -6.9638 242.641
    endloop
  endfacet
  facet normal 0.962183 0.272405 0
    outer loop
      vertex -20.341 -6.9638 242.641
      vertex -20.341 -6.9638 80.1
      vertex -20.9727 -4.73258 242.641
    endloop
  endfacet
  facet normal 0.962183 0.272405 0
    outer loop
      vertex -20.341 -6.9638 80.1
      vertex -20.9727 -4.73258 80.1
      vertex -20.9727 -4.73258 242.641
    endloop
  endfacet
  facet normal 0.993239 0.116091 0
    outer loop
      vertex -21.3604 -2.44631 80.1
      vertex -21.3604 -2.44631 242.641
      vertex -21.3487 -2.54631 102
    endloop
  endfacet
  facet normal 0.985924 0.167194 0.00023725
    outer loop
      vertex -21.3604 -2.44631 80.1
      vertex -21.3487 -2.54631 102
      vertex -20.9727 -4.73258 80.1
    endloop
  endfacet
  facet normal 0.986272 0.165128 0.000449433
    outer loop
      vertex -21.3487 -2.54631 102
      vertex -21.0138 -4.54631 102
      vertex -20.9727 -4.73258 80.1
    endloop
  endfacet
  facet normal 0.976439 0.215795 0
    outer loop
      vertex -20.9727 -4.73258 80.1
      vertex -21.0138 -4.54631 102
      vertex -20.9727 -4.73258 242.641
    endloop
  endfacet
  facet normal 0.976439 0.215795 0
    outer loop
      vertex -21.0138 -4.54631 102
      vertex -21.0138 -4.54631 226.741
      vertex -20.9727 -4.73258 242.641
    endloop
  endfacet
  facet normal 0.985924 0.167194 -0.000593931
    outer loop
      vertex -20.9727 -4.73258 242.641
      vertex -21.0138 -4.54631 226.741
      vertex -21.3604 -2.44631 242.641
    endloop
  endfacet
  facet normal 0.986272 0.165128 -0.000313531
    outer loop
      vertex -21.0138 -4.54631 226.741
      vertex -21.3487 -2.54631 226.741
      vertex -21.3604 -2.44631 242.641
    endloop
  endfacet
  facet normal 0.993239 0.116091 0
    outer loop
      vertex -21.3604 -2.44631 242.641
      vertex -21.3487 -2.54631 226.741
      vertex -21.3487 -2.54631 102
    endloop
  endfacet
  facet normal 0 0 -1
    outer loop
      vertex 21.3604 -2.44631 80.1
      vertex 22.8695 -2.44631 80.1
      vertex 20.9727 -4.73258 80.1
    endloop
  endfacet
  facet normal 0 0 -1
    outer loop
      vertex 22.8695 -2.44631 80.1
      vertex 22.4703 -4.90754 80.1
      vertex 20.9727 -4.73258 80.1
    endloop
  endfacet
  facet normal 0 0 -1
    outer loop
      vertex 20.9727 -4.73258 80.1
      vertex 22.4703 -4.90754 80.1
      vertex 20.341 -6.9638 80.1
    endloop
  endfacet
  facet normal 0 0 -1
    outer loop
      vertex 22.4703 -4.90754 80.1
      vertex 21.8071 -7.3111 80.1
      vertex 20.341 -6.9638 80.1
    endloop
  endfacet
  facet normal 0 0 -1
    outer loop
      vertex 20.341 -6.9638 80.1
      vertex 21.8071 -7.3111 80.1
      vertex 19.4727 -9.114 80.1
    endloop
  endfacet
  facet normal 0 0 -1
    outer loop
      vertex 21.8071 -7.3111 80.1
      vertex 20.8875 -9.62874 80.1
      vertex 19.4727 -9.114 80.1
    endloop
  endfacet
  facet normal 0 0 -1
    outer loop
      vertex 19.4727 -9.114 80.1
      vertex 20.8875 -9.62874 80.1
      vertex 18.3778 -11.1582 80.1
    endloop
  endfacet
  facet normal 0 0 -1
    outer loop
      vertex 20.8875 -9.62874 80.1
      vertex 19.7225 -11.8332 80.1
      vertex 18.3778 -11.1582 80.1
    endloop
  endfacet
  facet normal 0 0 -1
    outer loop
      vertex 18.3778 -11.1582 80.1
      vertex 19.7225 -11.8332 80.1
      vertex 17.0692 -13.0726 80.1
    endloop
  endfacet
  facet normal 0 0 -1
    outer loop
      vertex 19.7225 -11.8332 80.1
      vertex 18.3256 -13.8986 80.1
      vertex 17.0692 -13.0726 80.1
    endloop
  endfacet
  facet normal 0 0 -1
    outer loop
      vertex 17.0692 -13.0726 80.1
      vertex 18.3256 -13.8986 80.1
      vertex 15.562 -14.8349 80.1
    endloop
  endfacet
  facet normal 0 0 -1
    outer loop
      vertex 18.3256 -13.8986 80.1
      vertex 16.7134 -15.8007 80.1
      vertex 15.562 -14.8349 80.1
    endloop
  endfacet
  facet normal 0 0 -1
    outer loop
      vertex 15.562 -14.8349 80.1
      vertex 16.7134 -15.8007 80.1
      vertex 13.8738 -16.4246 80.1
    endloop
  endfacet
  facet normal 0 0 -1
    outer loop
      vertex 16.7134 -15.8007 80.1
      vertex 14.9048 -17.517 80.1
      vertex 13.8738 -16.4246 80.1
    endloop
  endfacet
  facet normal 0 0 -1
    outer loop
      vertex 13.8738 -16.4246 80.1
      vertex 14.9048 -17.517 80.1
      vertex 12.0242 -17.8233 80.1
    endloop
  endfacet
  facet normal 0 0 -1
    outer loop
      vertex 14.9048 -17.517 80.1
      vertex 12.921 -19.0275 80.1
      vertex 12.0242 -17.8233 80.1
    endloop
  endfacet
  facet normal 0 0 -1
    outer loop
      vertex 12.0242 -17.8233 80.1
      vertex 12.921 -19.0275 80.1
      vertex 10.0347 -19.0146 80.1
    endloop
  endfacet
  facet normal 0 0 -1
    outer loop
      vertex 12.921 -19.0275 80.1
      vertex 10.7854 -20.3144 80.1
      vertex 10.0347 -19.0146 80.1
    endloop
  endfacet
  facet normal 0 0 -1
    outer loop
      vertex 10.0347 -19.0146 80.1
      vertex 10.7854 -20.3144 80.1
      vertex 7.92846 -19.9847 80.1
    endloop
  endfacet
  facet normal 0 0 -1
    outer loop
      vertex 10.7854 -20.3144 80.1
      vertex 8.52297 -21.3626 80.1
      vertex 7.92846 -19.9847 80.1
    endloop
  endfacet
  facet normal 0 0 -1
    outer loop
      vertex 7.92846 -19.9847 80.1
      vertex 8.52297 -21.3626 80.1
      vertex 5.73 -20.7224 80.1
    endloop
  endfacet
  facet normal 0 0 -1
    outer loop
      vertex 8.52297 -21.3626 80.1
      vertex 6.16041 -22.1596 80.1
      vertex 5.73 -20.7224 80.1
    endloop
  endfacet
  facet normal 0 0 -1
    outer loop
      vertex 5.73 -20.7224 80.1
      vertex 6.16041 -22.1596 80.1
      vertex 3.46488 -21.219 80.1
    endloop
  endfacet
  facet normal 0 0 -1
    outer loop
      vertex 6.16041 -22.1596 80.1
      vertex 3.72544 -22.6963 80.1
      vertex 3.46488 -21.219 80.1
    endloop
  endfacet
  facet normal 0 0 -1
    outer loop
      vertex 3.46488 -21.219 80.1
      vertex 3.72544 -22.6963 80.1
      vertex 1.15946 -21.4687 80.1
    endloop
  endfacet
  facet normal 0 0 -1
    outer loop
      vertex 3.72544 -22.6963 80.1
      vertex 1.2467 -22.9662 80.1
      vertex 1.15946 -21.4687 80.1
    endloop
  endfacet
  facet normal 0 0 -1
    outer loop
      vertex 1.15946 -21.4687 80.1
      vertex 1.2467 -22.9662 80.1
      vertex -1.15946 -21.4687 80.1
    endloop
  endfacet
  facet normal 0 0 -1
    outer loop
      vertex 1.2467 -22.9662 80.1
      vertex -1.2467 -22.9662 80.1
      vertex -1.15946 -21.4687 80.1
    endloop
  endfacet
  facet normal 0 0 -1
    outer loop
      vertex -1.15946 -21.4687 80.1
      vertex -1.2467 -22.9662 80.1
      vertex -3.46488 -21.219 80.1
    endloop
  endfacet
  facet normal 0 0 -1
    outer loop
      vertex -1.2467 -22.9662 80.1
      vertex -3.72544 -22.6963 80.1
      vertex -3.46488 -21.219 80.1
    endloop
  endfacet
  facet normal 0 0 -1
    outer loop
      vertex -3.46488 -21.219 80.1
      vertex -3.72544 -22.6963 80.1
      vertex -5.73 -20.7224 80.1
    endloop
  endfacet
  facet normal 0 0 -1
    outer loop
      vertex -3.72544 -22.6963 80.1
      vertex -6.16041 -22.1596 80.1
      vertex -5.73 -20.7224 80.1
    endloop
  endfacet
  facet normal 0 0 -1
    outer loop
      vertex -5.73 -20.7224 80.1
      vertex -6.16041 -22.1596 80.1
      vertex -7.92846 -19.9847 80.1
    endloop
  endfacet
  facet normal 0 0 -1
    outer loop
      vertex -6.16041 -22.1596 80.1
      vertex -8.52297 -21.3626 80.1
      vertex -7.92846 -19.9847 80.1
    endloop
  endfacet
  facet normal 0 0 -1
    outer loop
      vertex -7.92846 -19.9847 80.1
      vertex -8.52297 -21.3626 80.1
      vertex -10.0347 -19.0146 80.1
    endloop
  endfacet
  facet normal 0 0 -1
    outer loop
      vertex -8.52297 -21.3626 80.1
      vertex -10.7854 -20.3144 80.1
      vertex -10.0347 -19.0146 80.1
    endloop
  endfacet
  facet normal 0 0 -1
    outer loop
      vertex -10.0347 -19.0146 80.1
      vertex -10.7854 -20.3144 80.1
      vertex -12.0242 -17.8233 80.1
    endloop
  endfacet
  facet normal 0 0 -1
    outer loop
      vertex -10.7854 -20.3144 80.1
      vertex -12.921 -19.0275 80.1
      vertex -12.0242 -17.8233 80.1
    endloop
  endfacet
  facet normal 0 0 -1
    outer loop
      vertex -12.0242 -17.8233 80.1
      vertex -12.921 -19.0275 80.1
      vertex -13.8738 -16.4246 80.1
    endloop
  endfacet
  facet normal 0 0 -1
    outer loop
      vertex -12.921 -19.0275 80.1
      vertex -14.9048 -17.517 80.1
      vertex -13.8738 -16.4246 80.1
    endloop
  endfacet
  facet normal 0 0 -1
    outer loop
      vertex -13.8738 -16.4246 80.1
      vertex -14.9048 -17.517 80.1
      vertex -15.562 -14.8349 80.1
    endloop
  endfacet
  facet normal 0 0 -1
    outer loop
      vertex -14.9048 -17.517 80.1
      vertex -16.7134 -15.8007 80.1
      vertex -15.562 -14.8349 80.1
    endloop
  endfacet
  facet normal 0 0 -1
    outer loop
      vertex -15.562 -14.8349 80.1
      vertex -16.7134 -15.8007 80.1
      vertex -17.0692 -13.0726 80.1
    endloop
  endfacet
  facet normal 0 0 -1
    outer loop
      vertex -16.7134 -15.8007 80.1
      vertex -18.3256 -13.8986 80.1
      vertex -17.0692 -13.0726 80.1
    endloop
  endfacet
  facet normal 0 0 -1
    outer loop
      vertex -17.0692 -13.0726 80.1
      vertex -18.3256 -13.8986 80.1
      vertex -18.3778 -11.1582 80.1
    endloop
  endfacet
  facet normal 0 0 -1
    outer loop
      vertex -18.3256 -13.8986 80.1
      vertex -19.7225 -11.8332 80.1
      vertex -18.3778 -11.1582 80.1
    endloop
  endfacet
  facet normal 0 0 -1
    outer loop
      vertex -18.3778 -11.1582 80.1
      vertex -19.7225 -11.8332 80.1
      vertex -19.4727 -9.114 80.1
    endloop
  endfacet
  facet normal 0 0 -1
    outer loop
      vertex -19.7225 -11.8332 80.1
      vertex -20.8875 -9.62874 80.1
      vertex -19.4727 -9.114 80.1
    endloop
  endfacet
  facet normal 0 0 -1
    outer loop
      vertex -19.4727 -9.114 80.1
      vertex -20.8875 -9.62874 80.1
      vertex -20.341 -6.9638 80.1
    endloop
  endfacet
  facet normal 0 0 -1
    outer loop
      vertex -20.8875 -9.62874 80.1
      vertex -21.8071 -7.3111 80.1
      vertex -20.341 -6.9638 80.1
    endloop
  endfacet
  facet normal 0 0 -1
    outer loop
      vertex -20.341 -6.9638 80.1
      vertex -21.8071 -7.3111 80.1
      vertex -20.9727 -4.73258 80.1
    endloop
  endfacet
  facet normal 0 0 -1
    outer loop
      vertex -21.8071 -7.3111 80.1
      vertex -22.4703 -4.90754 80.1
      vertex -20.9727 -4.73258 80.1
    endloop
  endfacet
  facet normal 0 0 -1
    outer loop
      vertex -20.9727 -4.73258 80.1
      vertex -22.4703 -4.90754 80.1
      vertex -21.3604 -2.44631 80.1
    endloop
  endfacet
  facet normal 0 0 -1
    outer loop
      vertex -22.4703 -4.90754 80.1
      vertex -22.8695 -2.44631 80.1
      vertex -21.3604 -2.44631 80.1
    endloop
  endfacet
  facet normal -1 0 0
    outer loop
      vertex -19.1716 -2.54631 102
      vertex -19.1716 -2.54631 226.741
      vertex -19.1716 -0.646308 102
    endloop
  endfacet
  facet normal -1 0 0
    outer loop
      vertex -19.1716 -2.54631 226.741
      vertex -19.1716 -0.646308 226.741
      vertex -19.1716 -0.646308 102
    endloop
  endfacet
  facet normal 0 1 0
    outer loop
      vertex 21.3604 -2.44631 80.1
      vertex 21.3604 -2.44631 242.641
      vertex 22.8695 -2.44631 80.1
    endloop
  endfacet
  facet normal 0 1 0
    outer loop
      vertex 21.3604 -2.44631 242.641
      vertex 22.8695 -2.44631 242.641
      vertex 22.8695 -2.44631 80.1
    endloop
  endfacet
  facet normal 0 0 1
    outer loop
      vertex -21.3604 -2.44631 242.641
      vertex -22.8695 -2.44631 242.641
      vertex -20.9727 -4.73258 242.641
    endloop
  endfacet
  facet normal 0 0 1
    outer loop
      vertex -22.8695 -2.44631 242.641
      vertex -22.4703 -4.90754 242.641
      vertex -20.9727 -4.73258 242.641
    endloop
  endfacet
  facet normal 0 0 1
    outer loop
      vertex -20.9727 -4.73258 242.641
      vertex -22.4703 -4.90754 242.641
      vertex -20.341 -6.9638 242.641
    endloop
  endfacet
  facet normal 0 0 1
    outer loop
      vertex -22.4703 -4.90754 242.641
      vertex -21.8071 -7.3111 242.641
      vertex -20.341 -6.9638 242.641
    endloop
  endfacet
  facet normal 0 0 1
    outer loop
      vertex -20.341 -6.9638 242.641
      vertex -21.8071 -7.3111 242.641
      vertex -19.4727 -9.114 242.641
    endloop
  endfacet
  facet normal 0 0 1
    outer loop
      vertex -21.8071 -7.3111 242.641
      vertex -20.8875 -9.62874 242.641
      vertex -19.4727 -9.114 242.641
    endloop
  endfacet
  facet normal 0 0 1
    outer loop
      vertex -19.4727 -9.114 242.641
      vertex -20.8875 -9.62874 242.641
      vertex -18.3778 -11.1582 242.641
    endloop
  endfacet
  facet normal 0 0 1
    outer loop
      vertex -20.8875 -9.62874 242.641
      vertex -19.7225 -11.8332 242.641
      vertex -18.3778 -11.1582 242.641
    endloop
  endfacet
  facet normal 0 0 1
    outer loop
      vertex -18.3778 -11.1582 242.641
      vertex -19.7225 -11.8332 242.641
      vertex -17.0692 -13.0726 242.641
    endloop
  endfacet
  facet normal 0 0 1
    outer loop
      vertex -19.7225 -11.8332 242.641
      vertex -18.3256 -13.8986 242.641
      vertex -17.0692 -13.0726 242.641
    endloop
  endfacet
  facet normal 0 0 1
    outer loop
      vertex -17.0692 -13.0726 242.641
      vertex -18.3256 -13.8986 242.641
      vertex -15.562 -14.8349 242.641
    endloop
  endfacet
  facet normal 0 0 1
    outer loop
      vertex -18.3256 -13.8986 242.641
      vertex -16.7134 -15.8007 242.641
      vertex -15.562 -14.8349 242.641
    endloop
  endfacet
  facet normal 0 0 1
    outer loop
      vertex -15.562 -14.8349 242.641
      vertex -16.7134 -15.8007 242.641
      vertex -13.8738 -16.4246 242.641
    endloop
  endfacet
  facet normal 0 0 1
    outer loop
      vertex -16.7134 -15.8007 242.641
      vertex -14.9048 -17.517 242.641
      vertex -13.8738 -16.4246 242.641
    endloop
  endfacet
  facet normal 0 0 1
    outer loop
      vertex -13.8738 -16.4246 242.641
      vertex -14.9048 -17.517 242.641
      vertex -12.0242 -17.8233 242.641
    endloop
  endfacet
  facet normal 0 0 1
    outer loop
      vertex -14.9048 -17.517 242.641
      vertex -12.921 -19.0275 242.641
      vertex -12.0242 -17.8233 242.641
    endloop
  endfacet
  facet normal 0 0 1
    outer loop
      vertex -12.0242 -17.8233 242.641
      vertex -12.921 -19.0275 242.641
      vertex -10.0347 -19.0146 242.641
    endloop
  endfacet
  facet normal 0 0 1
    outer loop
      vertex -12.921 -19.0275 242.641
      vertex -10.7854 -20.3144 242.641
      vertex -10.0347 -19.0146 242.641
    endloop
  endfacet
  facet normal 0 0 1
    outer loop
      vertex -10.0347 -19.0146 242.641
      vertex -10.7854 -20.3144 242.641
      vertex -7.92846 -19.9847 242.641
    endloop
  endfacet
  facet normal 0 0 1
    outer loop
      vertex -10.7854 -20.3144 242.641
      vertex -8.52297 -21.3626 242.641
      vertex -7.92846 -19.9847 242.641
    endloop
  endfacet
  facet normal 0 0 1
    outer loop
      vertex -7.92846 -19.9847 242.641
      vertex -8.52297 -21.3626 242.641
      vertex -5.73 -20.7224 242.641
    endloop
  endfacet
  facet normal 0 0 1
    outer loop
      vertex -8.52297 -21.3626 242.641
      vertex -6.16041 -22.1596 242.641
      vertex -5.73 -20.7224 242.641
    endloop
  endfacet
  facet normal 0 0 1
    outer loop
      vertex -5.73 -20.7224 242.641
      vertex -6.16041 -22.1596 242.641
      vertex -3.46488 -21.219 242.641
    endloop
  endfacet
  facet normal 0 0 1
    outer loop
      vertex -6.16041 -22.1596 242.641
      vertex -3.72544 -22.6963 242.641
      vertex -3.46488 -21.219 242.641
    endloop
  endfacet
  facet normal 0 0 1
    outer loop
      vertex -3.46488 -21.219 242.641
      vertex -3.72544 -22.6963 242.641
      vertex -1.15946 -21.4687 242.641
    endloop
  endfacet
  facet normal 0 0 1
    outer loop
      vertex -3.72544 -22.6963 242.641
      vertex -1.2467 -22.9662 242.641
      vertex -1.15946 -21.4687 242.641
    endloop
  endfacet
  facet normal 0 0 1
    outer loop
      vertex -1.15946 -21.4687 242.641
      vertex -1.2467 -22.9662 242.641
      vertex 1.15946 -21.4687 242.641
    endloop
  endfacet
  facet normal 0 0 1
    outer loop
      vertex -1.2467 -22.9662 242.641
      vertex 1.2467 -22.9662 242.641
      vertex 1.15946 -21.4687 242.641
    endloop
  endfacet
  facet normal 0 0 1
    outer loop
      vertex 1.15946 -21.4687 242.641
      vertex 1.2467 -22.9662 242.641
      vertex 3.46488 -21.219 242.641
    endloop
  endfacet
  facet normal 0 0 1
    outer loop
      vertex 1.2467 -22.9662 242.641
      vertex 3.72544 -22.6963 242.641
      vertex 3.46488 -21.219 242.641
    endloop
  endfacet
  facet normal 0 0 1
    outer loop
      vertex 3.46488 -21.219 242.641
      vertex 3.72544 -22.6963 242.641
      vertex 5.73 -20.7224 242.641
    endloop
  endfacet
  facet normal 0 0 1
    outer loop
      vertex 3.72544 -22.6963 242.641
      vertex 6.16041 -22.1596 242.641
      vertex 5.73 -20.7224 242.641
    endloop
  endfacet
  facet normal 0 0 1
    outer loop
      vertex 5.73 -20.7224 242.641
      vertex 6.16041 -22.1596 242.641
      vertex 7.92846 -19.9847 242.641
    endloop
  endfacet
  facet normal 0 0 1
    outer loop
      vertex 6.16041 -22.1596 242.641
      vertex 8.52297 -21.3626 242.641
      vertex 7.92846 -19.9847 242.641
    endloop
  endfacet
  facet normal 0 0 1
    outer loop
      vertex 7.92846 -19.9847 242.641
      vertex 8.52297 -21.3626 242.641
      vertex 10.0347 -19.0146 242.641
    endloop
  endfacet
  facet normal 0 0 1
    outer loop
      vertex 8.52297 -21.3626 242.641
      vertex 10.7854 -20.3144 242.641
      vertex 10.0347 -19.0146 242.641
    endloop
  endfacet
  facet normal 0 0 1
    outer loop
      vertex 10.0347 -19.0146 242.641
      vertex 10.7854 -20.3144 242.641
      vertex 12.0242 -17.8233 242.641
    endloop
  endfacet
  facet normal 0 0 1
    outer loop
      vertex 10.7854 -20.3144 242.641
      vertex 12.921 -19.0275 242.641
      vertex 12.0242 -17.8233 242.641
    endloop
  endfacet
  facet normal 0 0 1
    outer loop
      vertex 12.0242 -17.8233 242.641
      vertex 12.921 -19.0275 242.641
      vertex 13.8738 -16.4246 242.641
    endloop
  endfacet
  facet normal 0 0 1
    outer loop
      vertex 12.921 -19.0275 242.641
      vertex 14.9048 -17.517 242.641
      vertex 13.8738 -16.4246 242.641
    endloop
  endfacet
  facet normal 0 0 1
    outer loop
      vertex 13.8738 -16.4246 242.641
      vertex 14.9048 -17.517 242.641
      vertex 15.562 -14.8349 242.641
    endloop
  endfacet
  facet normal 0 0 1
    outer loop
      vertex 14.9048 -17.517 242.641
      vertex 16.7134 -15.8007 242.641
      vertex 15.562 -14.8349 242.641
    endloop
  endfacet
  facet normal 0 0 1
    outer loop
      vertex 15.562 -14.8349 242.641
      vertex 16.7134 -15.8007 242.641
      vertex 17.0692 -13.0726 242.641
    endloop
  endfacet
  facet normal 0 0 1
    outer loop
      vertex 16.7134 -15.8007 242.641
      vertex 18.3256 -13.8986 242.641
      vertex 17.0692 -13.0726 242.641
    endloop
  endfacet
  facet normal 0 0 1
    outer loop
      vertex 17.0692 -13.0726 242.641
      vertex 18.3256 -13.8986 242.641
      vertex 18.3778 -11.1582 242.641
    endloop
  endfacet
  facet normal 0 0 1
    outer loop
      vertex 18.3256 -13.8986 242.641
      vertex 19.7225 -11.8332 242.641
      vertex 18.3778 -11.1582 242.641
    endloop
  endfacet
  facet normal 0 0 1
    outer loop
      vertex 18.3778 -11.1582 242.641
      vertex 19.7225 -11.8332 242.641
      vertex 19.4727 -9.114 242.641
    endloop
  endfacet
  facet normal 0 0 1
    outer loop
      vertex 19.7225 -11.8332 242.641
      vertex 20.8875 -9.62874 242.641
      vertex 19.4727 -9.114 242.641
    endloop
  endfacet
  facet normal 0 0 1
    outer loop
      vertex 19.4727 -9.114 242.641
      vertex 20.8875 -9.62874 242.641
      vertex 20.341 -6.9638 242.641
    endloop
  endfacet
  facet normal 0 0 1
    outer loop
      vertex 20.8875 -9.62874 242.641
      vertex 21.8071 -7.3111 242.641
      vertex 20.341 -6.9638 242.641
    endloop
  endfacet
  facet normal 0 0 1
    outer loop
      vertex 20.341 -6.9638 242.641
      vertex 21.8071 -7.3111 242.641
      vertex 20.9727 -4.73258 242.641
    endloop
  endfacet
  facet normal 0 0 1
    outer loop
      vertex 21.8071 -7.3111 242.641
      vertex 22.4703 -4.90754 242.641
      vertex 20.9727 -4.73258 242.641
    endloop
  endfacet
  facet normal 0 0 1
    outer loop
      vertex 20.9727 -4.73258 242.641
      vertex 22.4703 -4.90754 242.641
      vertex 21.3604 -2.44631 242.641
    endloop
  endfacet
  facet normal 0 0 1
    outer loop
      vertex 22.4703 -4.90754 242.641
      vertex 22.8695 -2.44631 242.641
      vertex 21.3604 -2.44631 242.641
    endloop
  endfacet
  facet normal 0 1 0
    outer loop
      vertex -20.5476 1.35369 102
      vertex -20.5476 1.35369 226.741
      vertex -17.1716 1.35369 102
    endloop
  endfacet
  facet normal 0 1 0
    outer loop
      vertex -20.5476 1.35369 226.741
      vertex -17.1716 1.35369 226.741
      vertex -17.1716 1.35369 102
    endloop
  endfacet
  facet normal 1 0 0
    outer loop
      vertex 19.1716 -0.646308 226.741
      vertex 19.1716 -2.54631 226.741
      vertex 19.1716 -0.646308 102
    endloop
  endfacet
  facet normal 1 0 0
    outer loop
      vertex 19.1716 -2.54631 226.741
      vertex 19.1716 -2.54631 102
      vertex 19.1716 -0.646308 102
    endloop
  endfacet
  facet normal 0 0 -1
    outer loop
      vertex -20.5476 -0.646308 102
      vertex -20.5476 1.35369 102
      vertex -19.1716 -0.646308 102
    endloop
  endfacet
  facet normal 0 0 -1
    outer loop
      vertex -20.5476 1.35369 102
      vertex -17.1716 1.35369 102
      vertex -19.1716 -0.646308 102
    endloop
  endfacet
  facet normal 0 0 -1
    outer loop
      vertex -19.1716 -0.646308 102
      vertex -17.1716 1.35369 102
      vertex -19.1716 -2.54631 102
    endloop
  endfacet
  facet normal 0 0 -1
    outer loop
      vertex -17.1716 1.35369 102
      vertex -17.1716 -4.54631 102
      vertex -19.1716 -2.54631 102
    endloop
  endfacet
  facet normal 0 0 -1
    outer loop
      vertex -19.1716 -2.54631 102
      vertex -17.1716 -4.54631 102
      vertex -21.3487 -2.54631 102
    endloop
  endfacet
  facet normal 0 0 -1
    outer loop
      vertex -17.1716 -4.54631 102
      vertex -21.0138 -4.54631 102
      vertex -21.3487 -2.54631 102
    endloop
  endfacet
  facet normal 1 0 0
    outer loop
      vertex 20.5476 1.35369 226.741
      vertex 20.5476 -0.646308 226.741
      vertex 20.5476 1.35369 102
    endloop
  endfacet
  facet normal 1 0 0
    outer loop
      vertex 20.5476 -0.646308 226.741
      vertex 20.5476 -0.646308 102
      vertex 20.5476 1.35369 102
    endloop
  endfacet
  facet normal 0 1 0
    outer loop
      vertex -21.3487 -2.54631 226.741
      vertex -19.1716 -2.54631 226.741
      vertex -21.3487 -2.54631 102
    endloop
  endfacet
  facet normal 0 1 0
    outer loop
      vertex -19.1716 -2.54631 226.741
      vertex -19.1716 -2.54631 102
      vertex -21.3487 -2.54631 102
    endloop
  endfacet
  facet normal 0 -1 0
    outer loop
      vertex 20.5476 -0.646308 226.741
      vertex 19.1716 -0.646308 226.741
      vertex 20.5476 -0.646308 102
    endloop
  endfacet
  facet normal 0 -1 0
    outer loop
      vertex 19.1716 -0.646308 226.741
      vertex 19.1716 -0.646308 102
      vertex 20.5476 -0.646308 102
    endloop
  endfacet
  facet normal 0 -1 0
    outer loop
      vertex -21.0138 -4.54631 102
      vertex -17.1716 -4.54631 102
      vertex -21.0138 -4.54631 226.741
    endloop
  endfacet
  facet normal 0 -1 0
    outer loop
      vertex -17.1716 -4.54631 102
      vertex -17.1716 -4.54631 226.741
      vertex -21.0138 -4.54631 226.741
    endloop
  endfacet
  facet normal 0 0 1
    outer loop
      vertex -21.3487 -2.54631 226.741
      vertex -21.0138 -4.54631 226.741
      vertex -19.1716 -2.54631 226.741
    endloop
  endfacet
  facet normal 0 0 1
    outer loop
      vertex -21.0138 -4.54631 226.741
      vertex -17.1716 -4.54631 226.741
      vertex -19.1716 -2.54631 226.741
    endloop
  endfacet
  facet normal 0 0 1
    outer loop
      vertex -19.1716 -2.54631 226.741
      vertex -17.1716 -4.54631 226.741
      vertex -19.1716 -0.646308 226.741
    endloop
  endfacet
  facet normal 0 0 1
    outer loop
      vertex -17.1716 -4.54631 226.741
      vertex -17.1716 1.35369 226.741
      vertex -19.1716 -0.646308 226.741
    endloop
  endfacet
  facet normal 0 0 1
    outer loop
      vertex -19.1716 -0.646308 226.741
      vertex -17.1716 1.35369 226.741
      vertex -20.5476 -0.646308 226.741
    endloop
  endfacet
  facet normal 0 0 1
    outer loop
      vertex -17.1716 1.35369 226.741
      vertex -20.5476 1.35369 226.741
      vertex -20.5476 -0.646308 226.741
    endloop
  endfacet
  facet normal 1 0 0
    outer loop
      vertex -17.1716 1.35369 102
      vertex -17.1716 1.35369 226.741
      vertex -17.1716 -4.54631 102
    endloop
  endfacet
  facet normal 1 0 0
    outer loop
      vertex -17.1716 1.35369 226.741
      vertex -17.1716 -4.54631 226.741
      vertex -17.1716 -4.54631 102
    endloop
  endfacet
  facet normal -0.9871 -0.160102 0
    outer loop
      vertex -22.8695 -2.44631 242.641
      vertex -22.8695 -2.44631 80.1
      vertex -22.4703 -4.90754 80.1
    endloop
  endfacet
  facet normal -0.9871 -0.160102 0
    outer loop
      vertex -22.8695 -2.44631 242.641
      vertex -22.4703 -4.90754 80.1
      vertex -22.4703 -4.90754 242.641
    endloop
  endfacet
  facet normal -0.963969 -0.266013 0
    outer loop
      vertex -22.4703 -4.90754 80.1
      vertex -21.8071 -7.3111 80.1
      vertex -22.4703 -4.90754 242.641
    endloop
  endfacet
  facet normal -0.963969 -0.266013 0
    outer loop
      vertex -22.4703 -4.90754 242.641
      vertex -21.8071 -7.3111 80.1
      vertex -21.8071 -7.3111 242.641
    endloop
  endfacet
  facet normal -0.929509 -0.368799 0
    outer loop
      vertex -21.8071 -7.3111 80.1
      vertex -20.8875 -9.62874 80.1
      vertex -21.8071 -7.3111 242.641
    endloop
  endfacet
  facet normal -0.929509 -0.368799 0
    outer loop
      vertex -21.8071 -7.3111 242.641
      vertex -20.8875 -9.62874 80.1
      vertex -20.8875 -9.62874 242.641
    endloop
  endfacet
  facet normal -0.884125 -0.467251 0
    outer loop
      vertex -20.8875 -9.62874 80.1
      vertex -19.7225 -11.8332 80.1
      vertex -20.8875 -9.62874 242.641
    endloop
  endfacet
  facet normal -0.884125 -0.467251 0
    outer loop
      vertex -20.8875 -9.62874 242.641
      vertex -19.7225 -11.8332 80.1
      vertex -19.7225 -11.8332 242.641
    endloop
  endfacet
  facet normal -0.82835 -0.560211 0
    outer loop
      vertex -19.7225 -11.8332 80.1
      vertex -18.3256 -13.8986 80.1
      vertex -19.7225 -11.8332 242.641
    endloop
  endfacet
  facet normal -0.82835 -0.560211 0
    outer loop
      vertex -19.7225 -11.8332 242.641
      vertex -18.3256 -13.8986 80.1
      vertex -18.3256 -13.8986 242.641
    endloop
  endfacet
  facet normal -0.76284 -0.646587 0
    outer loop
      vertex -18.3256 -13.8986 80.1
      vertex -16.7134 -15.8007 80.1
      vertex -18.3256 -13.8986 242.641
    endloop
  endfacet
  facet normal -0.76284 -0.646587 0
    outer loop
      vertex -18.3256 -13.8986 242.641
      vertex -16.7134 -15.8007 80.1
      vertex -16.7134 -15.8007 242.641
    endloop
  endfacet
  facet normal -0.688365 -0.725365 0
    outer loop
      vertex -16.7134 -15.8007 80.1
      vertex -14.9048 -17.517 80.1
      vertex -16.7134 -15.8007 242.641
    endloop
  endfacet
  facet normal -0.688365 -0.725365 0
    outer loop
      vertex -16.7134 -15.8007 242.641
      vertex -14.9048 -17.517 80.1
      vertex -14.9048 -17.517 242.641
    endloop
  endfacet
  facet normal -0.605799 -0.795617 0
    outer loop
      vertex -14.9048 -17.517 80.1
      vertex -12.921 -19.0275 80.1
      vertex -14.9048 -17.517 242.641
    endloop
  endfacet
  facet normal -0.605799 -0.795617 0
    outer loop
      vertex -14.9048 -17.517 242.641
      vertex -12.921 -19.0275 80.1
      vertex -12.921 -19.0275 242.641
    endloop
  endfacet
  facet normal -0.516115 -0.856519 0
    outer loop
      vertex -12.921 -19.0275 80.1
      vertex -10.7854 -20.3144 80.1
      vertex -12.921 -19.0275 242.641
    endloop
  endfacet
  facet normal -0.516115 -0.856519 0
    outer loop
      vertex -12.921 -19.0275 242.641
      vertex -10.7854 -20.3144 80.1
      vertex -10.7854 -20.3144 242.641
    endloop
  endfacet
  facet normal -0.420364 -0.907356 0
    outer loop
      vertex -10.7854 -20.3144 80.1
      vertex -8.52297 -21.3626 80.1
      vertex -10.7854 -20.3144 242.641
    endloop
  endfacet
  facet normal -0.420364 -0.907356 0
    outer loop
      vertex -10.7854 -20.3144 242.641
      vertex -8.52297 -21.3626 80.1
      vertex -8.52297 -21.3626 242.641
    endloop
  endfacet
  facet normal -0.319674 -0.947528 0
    outer loop
      vertex -8.52297 -21.3626 80.1
      vertex -6.16041 -22.1596 80.1
      vertex -8.52297 -21.3626 242.641
    endloop
  endfacet
  facet normal -0.319674 -0.947528 0
    outer loop
      vertex -8.52297 -21.3626 242.641
      vertex -6.16041 -22.1596 80.1
      vertex -6.16041 -22.1596 242.641
    endloop
  endfacet
  facet normal -0.215226 -0.976564 0
    outer loop
      vertex -6.16041 -22.1596 80.1
      vertex -3.72544 -22.6963 80.1
      vertex -6.16041 -22.1596 242.641
    endloop
  endfacet
  facet normal -0.215226 -0.976564 0
    outer loop
      vertex -6.16041 -22.1596 242.641
      vertex -3.72544 -22.6963 80.1
      vertex -3.72544 -22.6963 242.641
    endloop
  endfacet
  facet normal -0.108249 -0.994124 0
    outer loop
      vertex -3.72544 -22.6963 80.1
      vertex -1.2467 -22.9662 80.1
      vertex -3.72544 -22.6963 242.641
    endloop
  endfacet
  facet normal -0.108249 -0.994124 0
    outer loop
      vertex -3.72544 -22.6963 242.641
      vertex -1.2467 -22.9662 80.1
      vertex -1.2467 -22.9662 242.641
    endloop
  endfacet
  facet normal 0 -1 0
    outer loop
      vertex -1.2467 -22.9662 80.1
      vertex 1.2467 -22.9662 80.1
      vertex -1.2467 -22.9662 242.641
    endloop
  endfacet
  facet normal 0 -1 0
    outer loop
      vertex -1.2467 -22.9662 242.641
      vertex 1.2467 -22.9662 80.1
      vertex 1.2467 -22.9662 242.641
    endloop
  endfacet
  facet normal 0.108249 -0.994124 0
    outer loop
      vertex 1.2467 -22.9662 80.1
      vertex 3.72544 -22.6963 80.1
      vertex 1.2467 -22.9662 242.641
    endloop
  endfacet
  facet normal 0.108249 -0.994124 0
    outer loop
      vertex 1.2467 -22.9662 242.641
      vertex 3.72544 -22.6963 80.1
      vertex 3.72544 -22.6963 242.641
    endloop
  endfacet
  facet normal 0.215226 -0.976564 0
    outer loop
      vertex 3.72544 -22.6963 80.1
      vertex 6.16041 -22.1596 80.1
      vertex 3.72544 -22.6963 242.641
    endloop
  endfacet
  facet normal 0.215226 -0.976564 0
    outer loop
      vertex 3.72544 -22.6963 242.641
      vertex 6.16041 -22.1596 80.1
      vertex 6.16041 -22.1596 242.641
    endloop
  endfacet
  facet normal 0.319674 -0.947528 0
    outer loop
      vertex 6.16041 -22.1596 80.1
      vertex 8.52297 -21.3626 80.1
      vertex 6.16041 -22.1596 242.641
    endloop
  endfacet
  facet normal 0.319674 -0.947528 0
    outer loop
      vertex 6.16041 -22.1596 242.641
      vertex 8.52297 -21.3626 80.1
      vertex 8.52297 -21.3626 242.641
    endloop
  endfacet
  facet normal 0.420364 -0.907356 0
    outer loop
      vertex 8.52297 -21.3626 80.1
      vertex 10.7854 -20.3144 80.1
      vertex 8.52297 -21.3626 242.641
    endloop
  endfacet
  facet normal 0.420364 -0.907356 0
    outer loop
      vertex 8.52297 -21.3626 242.641
      vertex 10.7854 -20.3144 80.1
      vertex 10.7854 -20.3144 242.641
    endloop
  endfacet
  facet normal 0.516115 -0.856519 0
    outer loop
      vertex 10.7854 -20.3144 80.1
      vertex 12.921 -19.0275 80.1
      vertex 10.7854 -20.3144 242.641
    endloop
  endfacet
  facet normal 0.516115 -0.856519 0
    outer loop
      vertex 10.7854 -20.3144 242.641
      vertex 12.921 -19.0275 80.1
      vertex 12.921 -19.0275 242.641
    endloop
  endfacet
  facet normal 0.605799 -0.795617 0
    outer loop
      vertex 12.921 -19.0275 80.1
      vertex 14.9048 -17.517 80.1
      vertex 12.921 -19.0275 242.641
    endloop
  endfacet
  facet normal 0.605799 -0.795617 0
    outer loop
      vertex 12.921 -19.0275 242.641
      vertex 14.9048 -17.517 80.1
      vertex 14.9048 -17.517 242.641
    endloop
  endfacet
  facet normal 0.688365 -0.725365 0
    outer loop
      vertex 14.9048 -17.517 80.1
      vertex 16.7134 -15.8007 80.1
      vertex 14.9048 -17.517 242.641
    endloop
  endfacet
  facet normal 0.688365 -0.725365 0
    outer loop
      vertex 14.9048 -17.517 242.641
      vertex 16.7134 -15.8007 80.1
      vertex 16.7134 -15.8007 242.641
    endloop
  endfacet
  facet normal 0.76284 -0.646587 0
    outer loop
      vertex 16.7134 -15.8007 80.1
      vertex 18.3256 -13.8986 80.1
      vertex 16.7134 -15.8007 242.641
    endloop
  endfacet
  facet normal 0.76284 -0.646587 0
    outer loop
      vertex 16.7134 -15.8007 242.641
      vertex 18.3256 -13.8986 80.1
      vertex 18.3256 -13.8986 242.641
    endloop
  endfacet
  facet normal 0.82835 -0.560211 0
    outer loop
      vertex 18.3256 -13.8986 80.1
      vertex 19.7225 -11.8332 80.1
      vertex 18.3256 -13.8986 242.641
    endloop
  endfacet
  facet normal 0.82835 -0.560211 0
    outer loop
      vertex 18.3256 -13.8986 242.641
      vertex 19.7225 -11.8332 80.1
      vertex 19.7225 -11.8332 242.641
    endloop
  endfacet
  facet normal 0.884125 -0.467251 0
    outer loop
      vertex 19.7225 -11.8332 80.1
      vertex 20.8875 -9.62874 80.1
      vertex 19.7225 -11.8332 242.641
    endloop
  endfacet
  facet normal 0.884125 -0.467251 0
    outer loop
      vertex 19.7225 -11.8332 242.641
      vertex 20.8875 -9.62874 80.1
      vertex 20.8875 -9.62874 242.641
    endloop
  endfacet
  facet normal 0.929509 -0.368799 0
    outer loop
      vertex 20.8875 -9.62874 80.1
      vertex 21.8071 -7.3111 80.1
      vertex 20.8875 -9.62874 242.641
    endloop
  endfacet
  facet normal 0.929509 -0.368799 0
    outer loop
      vertex 20.8875 -9.62874 242.641
      vertex 21.8071 -7.3111 80.1
      vertex 21.8071 -7.3111 242.641
    endloop
  endfacet
  facet normal 0.963969 -0.266013 0
    outer loop
      vertex 21.8071 -7.3111 80.1
      vertex 22.4703 -4.90754 80.1
      vertex 21.8071 -7.3111 242.641
    endloop
  endfacet
  facet normal 0.963969 -0.266013 0
    outer loop
      vertex 21.8071 -7.3111 242.641
      vertex 22.4703 -4.90754 80.1
      vertex 22.4703 -4.90754 242.641
    endloop
  endfacet
  facet normal 0.9871 -0.160102 0
    outer loop
      vertex 22.4703 -4.90754 80.1
      vertex 22.8695 -2.44631 80.1
      vertex 22.4703 -4.90754 242.641
    endloop
  endfacet
  facet normal 0.9871 -0.160102 0
    outer loop
      vertex 22.4703 -4.90754 242.641
      vertex 22.8695 -2.44631 80.1
      vertex 22.8695 -2.44631 242.641
    endloop
  endfacet
  facet normal -1 0 0
    outer loop
      vertex -20.5476 -0.646308 102
      vertex -20.5476 -0.646308 226.741
      vertex -20.5476 1.35369 102
    endloop
  endfacet
  facet normal -1 0 0
    outer loop
      vertex -20.5476 -0.646308 226.741
      vertex -20.5476 1.35369 226.741
      vertex -20.5476 1.35369 102
    endloop
  endfacet
  facet normal 0 0 -1
    outer loop
      vertex 21.3487 -2.54631 102
      vertex 21.0138 -4.54631 102
      vertex 19.1716 -2.54631 102
    endloop
  endfacet
  facet normal 0 0 -1
    outer loop
      vertex 21.0138 -4.54631 102
      vertex 17.1716 -4.54631 102
      vertex 19.1716 -2.54631 102
    endloop
  endfacet
  facet normal 0 0 -1
    outer loop
      vertex 19.1716 -2.54631 102
      vertex 17.1716 -4.54631 102
      vertex 19.1716 -0.646308 102
    endloop
  endfacet
  facet normal 0 0 -1
    outer loop
      vertex 17.1716 -4.54631 102
      vertex 17.1716 1.35369 102
      vertex 19.1716 -0.646308 102
    endloop
  endfacet
  facet normal 0 0 -1
    outer loop
      vertex 19.1716 -0.646308 102
      vertex 17.1716 1.35369 102
      vertex 20.5476 -0.646308 102
    endloop
  endfacet
  facet normal 0 0 -1
    outer loop
      vertex 17.1716 1.35369 102
      vertex 20.5476 1.35369 102
      vertex 20.5476 -0.646308 102
    endloop
  endfacet
  facet normal 0 -1 0
    outer loop
      vertex -19.1716 -0.646308 102
      vertex -19.1716 -0.646308 226.741
      vertex -20.5476 -0.646308 102
    endloop
  endfacet
  facet normal 0 -1 0
    outer loop
      vertex -19.1716 -0.646308 226.741
      vertex -20.5476 -0.646308 226.741
      vertex -20.5476 -0.646308 102
    endloop
  endfacet
endsolid Mesh
