solid Mesh
  facet normal 0 1 0
    outer loop
      vertex 10 9.92936 246.015
      vertex 10 9.92936 241.415
      vertex -10 9.92936 246.015
    endloop
  endfacet
  facet normal 0 1 0
    outer loop
      vertex 10 9.92936 241.415
      vertex -10 9.92936 241.415
      vertex -10 9.92936 246.015
    endloop
  endfacet
  facet normal 0.766045 0.642788 0
    outer loop
      vertex -10 9.92936 246.015
      vertex -10 9.92936 241.415
      vertex -11.7375 12 246.015
    endloop
  endfacet
  facet normal 0.766045 0.642788 0
    outer loop
      vertex -10 9.92936 241.415
      vertex -11.7375 12 241.415
      vertex -11.7375 12 246.015
    endloop
  endfacet
  facet normal -0.766045 0.642788 0
    outer loop
      vertex 11.7375 12 246.015
      vertex 11.7375 12 241.415
      vertex 10 9.92936 246.015
    endloop
  endfacet
  facet normal -0.766045 0.642788 0
    outer loop
      vertex 11.7375 12 241.415
      vertex 10 9.92936 241.415
      vertex 10 9.92936 246.015
    endloop
  endfacet
  facet normal -0.968236 -0.250037 0
    outer loop
      vertex -13.55 9.62547 246.015
      vertex -14.1632 12 246.015
      vertex -13.55 9.62547 241.415
    endloop
  endfacet
  facet normal -0.968236 -0.250037 0
    outer loop
      vertex -14.1632 12 246.015
      vertex -14.1632 12 241.415
      vertex -13.55 9.62547 241.415
    endloop
  endfacet
  facet normal 0.968236 -0.250037 0
    outer loop
      vertex 14.1632 12 241.415
      vertex 14.1632 12 246.015
      vertex 13.55 9.62547 241.415
    endloop
  endfacet
  facet normal 0.968236 -0.250037 0
    outer loop
      vertex 14.1632 12 246.015
      vertex 13.55 9.62547 246.015
      vertex 13.55 9.62547 241.415
    endloop
  endfacet
  facet normal 0 1 0
    outer loop
      vertex 11.7375 12 246.015
      vertex 14.1632 12 246.015
      vertex 11.7375 12 241.415
    endloop
  endfacet
  facet normal 0 1 0
    outer loop
      vertex 14.1632 12 246.015
      vertex 14.1632 12 241.415
      vertex 11.7375 12 241.415
    endloop
  endfacet
  facet normal 0 0 -1
    outer loop
      vertex -10 9.92936 241.415
      vertex 10 9.92936 241.415
      vertex 13.55 9 241.415
    endloop
  endfacet
  facet normal 0 0 -1
    outer loop
      vertex 11.7375 12 241.415
      vertex 14.1632 12 241.415
      vertex 10 9.92936 241.415
    endloop
  endfacet
  facet normal 0 0 -1
    outer loop
      vertex 14.1632 12 241.415
      vertex 13.55 9.62547 241.415
      vertex 10 9.92936 241.415
    endloop
  endfacet
  facet normal 0 0 -1
    outer loop
      vertex 10 9.92936 241.415
      vertex 13.55 9.62547 241.415
      vertex 13.55 9 241.415
    endloop
  endfacet
  facet normal 0 0 -1
    outer loop
      vertex -14.1632 12 241.415
      vertex -11.7375 12 241.415
      vertex -13.55 9.62547 241.415
    endloop
  endfacet
  facet normal 0 0 -1
    outer loop
      vertex -11.7375 12 241.415
      vertex -10 9.92936 241.415
      vertex -13.55 9.62547 241.415
    endloop
  endfacet
  facet normal 0 0 -1
    outer loop
      vertex -13.55 9.62547 241.415
      vertex -10 9.92936 241.415
      vertex -13.55 9 241.415
    endloop
  endfacet
  facet normal 0 0 -1
    outer loop
      vertex -10 9.92936 241.415
      vertex 13.55 9 241.415
      vertex -13.55 9 241.415
    endloop
  endfacet
  facet normal 0 1 0
    outer loop
      vertex -14.1632 12 241.415
      vertex -14.1632 12 246.015
      vertex -11.7375 12 241.415
    endloop
  endfacet
  facet normal 0 1 0
    outer loop
      vertex -14.1632 12 246.015
      vertex -11.7375 12 246.015
      vertex -11.7375 12 241.415
    endloop
  endfacet
  facet normal 1 0 0
    outer loop
      vertex 13.55 9.62547 246.015
      vertex 13.55 9 246.015
      vertex 13.55 9.62547 241.415
    endloop
  endfacet
  facet normal 1 0 0
    outer loop
      vertex 13.55 9 246.015
      vertex 13.55 9 241.415
      vertex 13.55 9.62547 241.415
    endloop
  endfacet
  facet normal -1 0 0
    outer loop
      vertex -13.55 9 241.415
      vertex -13.55 9 246.015
      vertex -13.55 9.62547 241.415
    endloop
  endfacet
  facet normal -1 0 0
    outer loop
      vertex -13.55 9 246.015
      vertex -13.55 9.62547 246.015
      vertex -13.55 9.62547 241.415
    endloop
  endfacet
  facet normal 0 -1 0
    outer loop
      vertex 13.55 9 246.015
      vertex -13.55 9 246.015
      vertex 13.55 9 241.415
    endloop
  endfacet
  facet normal 0 -1 0
    outer loop
      vertex -13.55 9 246.015
      vertex -13.55 9 241.415
      vertex 13.55 9 241.415
    endloop
  endfacet
  facet normal 0 0 1
    outer loop
      vertex 14.1632 12 246.015
      vertex 11.7375 12 246.015
      vertex 13.55 9.62547 246.015
    endloop
  endfacet
  facet normal 0 0 1
    outer loop
      vertex 11.7375 12 246.015
      vertex 10 9.92936 246.015
      vertex 13.55 9.62547 246.015
    endloop
  endfacet
  facet normal 0 0 1
    outer loop
      vertex 13.55 9.62547 246.015
      vertex 10 9.92936 246.015
      vertex 13.55 9 246.015
    endloop
  endfacet
  facet normal 0 0 1
    outer loop
      vertex 10 9.92936 246.015
      vertex -10 9.92936 246.015
      vertex 13.55 9 246.015
    endloop
  endfacet
  facet normal 0 0 1
    outer loop
      vertex 13.55 9 246.015
      vertex -10 9.92936 246.015
      vertex -13.55 9 246.015
    endloop
  endfacet
  facet normal 0 0 1
    outer loop
      vertex -11.7375 12 246.015
      vertex -14.1632 12 246.015
      vertex -10 9.92936 246.015
    endloop
  endfacet
  facet normal 0 0 1
    outer loop
      vertex -14.1632 12 246.015
      vertex -13.55 9.62547 246.015
      vertex -10 9.92936 246.015
    endloop
  endfacet
  facet normal 0 0 1
    outer loop
      vertex -10 9.92936 246.015
      vertex -13.55 9.62547 246.015
      vertex -13.55 9 246.015
    endloop
  endfacet
endsolid Mesh
