solid Mesh
  facet normal 0 -0.0532576 -0.998581
    outer loop
      vertex 0.5 -98.1737 36
      vertex -0.5 -98.1737 36
      vertex 1 -23.1737 32
    endloop
  endfacet
  facet normal 0 -0.0532576 -0.998581
    outer loop
      vertex -0.5 -98.1737 36
      vertex -1 -23.1737 32
      vertex 1 -23.1737 32
    endloop
  endfacet
  facet normal 0 1 0
    outer loop
      vertex 1 -21.4718 75
      vertex 1 -21.4718 55
      vertex -1 -21.4718 75
    endloop
  endfacet
  facet normal 0 1 0
    outer loop
      vertex 1 -21.4718 55
      vertex -1 -21.4718 55
      vertex -1 -21.4718 75
    endloop
  endfacet
  facet normal 0 0 1
    outer loop
      vertex 1 -22.9737 75
      vertex 1 -21.4718 75
      vertex -1 -22.9737 75
    endloop
  endfacet
  facet normal 0 0 1
    outer loop
      vertex 1 -21.4718 75
      vertex -1 -21.4718 75
      vertex -1 -22.9737 75
    endloop
  endfacet
  facet normal 0.999978 -0.00666652 0
    outer loop
      vertex 0.5 -98.1737 40
      vertex 0.5 -98.1737 36
      vertex 1 -23.1737 40
    endloop
  endfacet
  facet normal 0.999978 -0.00666652 0
    outer loop
      vertex 0.5 -98.1737 36
      vertex 1 -23.1737 32
      vertex 1 -23.1737 40
    endloop
  endfacet
  facet normal -1 0 0
    outer loop
      vertex -1 -22.9737 74.8
      vertex -1 -22.9737 75
      vertex -1 -21.4718 75
    endloop
  endfacet
  facet normal -1 0 0
    outer loop
      vertex -1 -21.4718 55
      vertex -1 -22.9737 55
      vertex -1 -22.9737 55.2
    endloop
  endfacet
  facet normal -1 0 0
    outer loop
      vertex -1 -23.1737 55.2
      vertex -1 -23.1737 74.8
      vertex -1 -22.9737 55.2
    endloop
  endfacet
  facet normal -1 0 0
    outer loop
      vertex -1 -23.1737 74.8
      vertex -1 -22.9737 74.8
      vertex -1 -22.9737 55.2
    endloop
  endfacet
  facet normal -1 0 0
    outer loop
      vertex -1 -22.9737 55.2
      vertex -1 -22.9737 74.8
      vertex -1 -21.4718 55
    endloop
  endfacet
  facet normal -1 0 0
    outer loop
      vertex -1 -22.9737 74.8
      vertex -1 -21.4718 75
      vertex -1 -21.4718 55
    endloop
  endfacet
  facet normal 0 -1 0
    outer loop
      vertex -0.499748 -98.1737 60.0159
      vertex -0.5 -98.1737 60
      vertex 0.375937 -98.1737 60.3297
    endloop
  endfacet
  facet normal 0 -1 0
    outer loop
      vertex -0.5 -98.1737 36
      vertex 0.5 -98.1737 36
      vertex -0.5 -98.1737 40
    endloop
  endfacet
  facet normal 0 -1 0
    outer loop
      vertex 0.5 -98.1737 36
      vertex 0.5 -98.1737 40
      vertex -0.5 -98.1737 40
    endloop
  endfacet
  facet normal 0 -1 0
    outer loop
      vertex -0.5 -98.1737 40
      vertex 0.5 -98.1737 40
      vertex -0.5 -98.1737 60
    endloop
  endfacet
  facet normal 0 -1 0
    outer loop
      vertex 0.5 -98.1737 40
      vertex 0.5 -98.1737 60
      vertex -0.5 -98.1737 60
    endloop
  endfacet
  facet normal 0 -1 0
    outer loop
      vertex -0.499748 -98.1737 60.0159
      vertex 0.375937 -98.1737 60.3297
      vertex -0.49896 -98.1737 60.0322
    endloop
  endfacet
  facet normal 0 -1 0
    outer loop
      vertex 0.5 -98.1737 60
      vertex 0.499748 -98.1737 60.0159
      vertex -0.5 -98.1737 60
    endloop
  endfacet
  facet normal 0 -1 0
    outer loop
      vertex 0.499748 -98.1737 60.0159
      vertex 0.49896 -98.1737 60.0322
      vertex -0.5 -98.1737 60
    endloop
  endfacet
  facet normal 0 -1 0
    outer loop
      vertex -0.5 -98.1737 60
      vertex 0.49896 -98.1737 60.0322
      vertex 0.497587 -98.1737 60.0491
    endloop
  endfacet
  facet normal 0 -1 0
    outer loop
      vertex -0.358135 -98.1737 60.3489
      vertex -0.367213 -98.1737 60.3393
      vertex 0.358135 -98.1737 60.3489
    endloop
  endfacet
  facet normal 0 -1 0
    outer loop
      vertex -0.367213 -98.1737 60.3393
      vertex 0.367213 -98.1737 60.3393
      vertex 0.358135 -98.1737 60.3489
    endloop
  endfacet
  facet normal 0 -1 0
    outer loop
      vertex -0.492869 -98.1737 60.0841
      vertex -0.495575 -98.1737 60.0664
      vertex 0.375937 -98.1737 60.3297
    endloop
  endfacet
  facet normal 0 -1 0
    outer loop
      vertex -0.495575 -98.1737 60.0664
      vertex -0.497587 -98.1737 60.0491
      vertex 0.375937 -98.1737 60.3297
    endloop
  endfacet
  facet normal 0 -1 0
    outer loop
      vertex 0.375937 -98.1737 60.3297
      vertex -0.497587 -98.1737 60.0491
      vertex -0.49896 -98.1737 60.0322
    endloop
  endfacet
  facet normal 0 -1 0
    outer loop
      vertex 0.497587 -98.1737 60.0491
      vertex 0.495575 -98.1737 60.0664
      vertex -0.5 -98.1737 60
    endloop
  endfacet
  facet normal 0 -1 0
    outer loop
      vertex 0.495575 -98.1737 60.0664
      vertex 0.492869 -98.1737 60.0841
      vertex -0.5 -98.1737 60
    endloop
  endfacet
  facet normal 0 -1 0
    outer loop
      vertex -0.5 -98.1737 60
      vertex 0.492869 -98.1737 60.0841
      vertex 0.489412 -98.1737 60.1024
    endloop
  endfacet
  facet normal 0 -1 0
    outer loop
      vertex -0.338911 -98.1737 60.3676
      vertex -0.348701 -98.1737 60.3583
      vertex 0.338911 -98.1737 60.3676
    endloop
  endfacet
  facet normal 0 -1 0
    outer loop
      vertex -0.358135 -98.1737 60.3489
      vertex 0.358135 -98.1737 60.3489
      vertex -0.348701 -98.1737 60.3583
    endloop
  endfacet
  facet normal 0 -1 0
    outer loop
      vertex 0.358135 -98.1737 60.3489
      vertex 0.348701 -98.1737 60.3583
      vertex -0.348701 -98.1737 60.3583
    endloop
  endfacet
  facet normal 0 -1 0
    outer loop
      vertex -0.348701 -98.1737 60.3583
      vertex 0.348701 -98.1737 60.3583
      vertex 0.338911 -98.1737 60.3676
    endloop
  endfacet
  facet normal 0 -1 0
    outer loop
      vertex 0.367213 -98.1737 60.3393
      vertex -0.367213 -98.1737 60.3393
      vertex 0.375937 -98.1737 60.3297
    endloop
  endfacet
  facet normal 0 -1 0
    outer loop
      vertex -0.367213 -98.1737 60.3393
      vertex -0.375937 -98.1737 60.3297
      vertex 0.375937 -98.1737 60.3297
    endloop
  endfacet
  facet normal 0 -1 0
    outer loop
      vertex 0.375937 -98.1737 60.3297
      vertex -0.375937 -98.1737 60.3297
      vertex -0.384307 -98.1737 60.3199
    endloop
  endfacet
  facet normal 0 -1 0
    outer loop
      vertex -0.48 -98.1737 60.14
      vertex -0.485143 -98.1737 60.121
      vertex 0.375937 -98.1737 60.3297
    endloop
  endfacet
  facet normal 0 -1 0
    outer loop
      vertex -0.485143 -98.1737 60.121
      vertex -0.489412 -98.1737 60.1024
      vertex 0.375937 -98.1737 60.3297
    endloop
  endfacet
  facet normal 0 -1 0
    outer loop
      vertex 0.375937 -98.1737 60.3297
      vertex -0.489412 -98.1737 60.1024
      vertex -0.492869 -98.1737 60.0841
    endloop
  endfacet
  facet normal 0 -1 0
    outer loop
      vertex 0.489412 -98.1737 60.1024
      vertex 0.485143 -98.1737 60.121
      vertex -0.5 -98.1737 60
    endloop
  endfacet
  facet normal 0 -1 0
    outer loop
      vertex 0.485143 -98.1737 60.121
      vertex 0.48 -98.1737 60.14
      vertex -0.5 -98.1737 60
    endloop
  endfacet
  facet normal 0 -1 0
    outer loop
      vertex -0.5 -98.1737 60
      vertex 0.48 -98.1737 60.14
      vertex 0.473921 -98.1737 60.1594
    endloop
  endfacet
  facet normal 0 -1 0
    outer loop
      vertex -0.338911 -98.1737 60.3676
      vertex 0.338911 -98.1737 60.3676
      vertex -0.328767 -98.1737 60.3767
    endloop
  endfacet
  facet normal 0 -1 0
    outer loop
      vertex 0.338911 -98.1737 60.3676
      vertex 0.328767 -98.1737 60.3767
      vertex -0.328767 -98.1737 60.3767
    endloop
  endfacet
  facet normal 0 -1 0
    outer loop
      vertex -0.328767 -98.1737 60.3767
      vertex 0.328767 -98.1737 60.3767
      vertex -0.31827 -98.1737 60.3856
    endloop
  endfacet
  facet normal 0 -1 0
    outer loop
      vertex -0.458703 -98.1737 60.199
      vertex -0.466844 -98.1737 60.179
      vertex 0.375937 -98.1737 60.3297
    endloop
  endfacet
  facet normal 0 -1 0
    outer loop
      vertex -0.466844 -98.1737 60.179
      vertex -0.473921 -98.1737 60.1594
      vertex 0.375937 -98.1737 60.3297
    endloop
  endfacet
  facet normal 0 -1 0
    outer loop
      vertex 0.375937 -98.1737 60.3297
      vertex -0.473921 -98.1737 60.1594
      vertex -0.48 -98.1737 60.14
    endloop
  endfacet
  facet normal 0 -1 0
    outer loop
      vertex 0.473921 -98.1737 60.1594
      vertex 0.466844 -98.1737 60.179
      vertex -0.5 -98.1737 60
    endloop
  endfacet
  facet normal 0 -1 0
    outer loop
      vertex 0.466844 -98.1737 60.179
      vertex 0.458703 -98.1737 60.199
      vertex -0.5 -98.1737 60
    endloop
  endfacet
  facet normal 0 -1 0
    outer loop
      vertex -0.5 -98.1737 60
      vertex 0.458703 -98.1737 60.199
      vertex 0.449438 -98.1737 60.2191
    endloop
  endfacet
  facet normal 0 -1 0
    outer loop
      vertex -0.4273 -98.1737 60.2596
      vertex -0.438989 -98.1737 60.2393
      vertex 0.375937 -98.1737 60.3297
    endloop
  endfacet
  facet normal 0 -1 0
    outer loop
      vertex -0.438989 -98.1737 60.2393
      vertex -0.449438 -98.1737 60.2191
      vertex 0.375937 -98.1737 60.3297
    endloop
  endfacet
  facet normal 0 -1 0
    outer loop
      vertex 0.375937 -98.1737 60.3297
      vertex -0.449438 -98.1737 60.2191
      vertex -0.458703 -98.1737 60.199
    endloop
  endfacet
  facet normal 0 -1 0
    outer loop
      vertex 0.449438 -98.1737 60.2191
      vertex 0.438989 -98.1737 60.2393
      vertex -0.5 -98.1737 60
    endloop
  endfacet
  facet normal 0 -1 0
    outer loop
      vertex 0.438989 -98.1737 60.2393
      vertex 0.4273 -98.1737 60.2596
      vertex -0.5 -98.1737 60
    endloop
  endfacet
  facet normal 0 -1 0
    outer loop
      vertex -0.5 -98.1737 60
      vertex 0.4273 -98.1737 60.2596
      vertex 0.414318 -98.1737 60.2799
    endloop
  endfacet
  facet normal 0 -1 0
    outer loop
      vertex 0.414318 -98.1737 60.2799
      vertex 0.4 -98.1737 60.3
      vertex -0.5 -98.1737 60
    endloop
  endfacet
  facet normal 0 -1 0
    outer loop
      vertex 0.4 -98.1737 60.3
      vertex 0.384307 -98.1737 60.3199
      vertex -0.5 -98.1737 60
    endloop
  endfacet
  facet normal 0 -1 0
    outer loop
      vertex -0.5 -98.1737 60
      vertex 0.384307 -98.1737 60.3199
      vertex 0.375937 -98.1737 60.3297
    endloop
  endfacet
  facet normal 0 -1 0
    outer loop
      vertex 0.328767 -98.1737 60.3767
      vertex 0.31827 -98.1737 60.3856
      vertex -0.31827 -98.1737 60.3856
    endloop
  endfacet
  facet normal 0 -1 0
    outer loop
      vertex 0.31827 -98.1737 60.3856
      vertex 0.307424 -98.1737 60.3943
      vertex -0.31827 -98.1737 60.3856
    endloop
  endfacet
  facet normal 0 -1 0
    outer loop
      vertex -0.31827 -98.1737 60.3856
      vertex 0.307424 -98.1737 60.3943
      vertex -0.307424 -98.1737 60.3943
    endloop
  endfacet
  facet normal 0 -1 0
    outer loop
      vertex 0.307424 -98.1737 60.3943
      vertex 0.296231 -98.1737 60.4028
      vertex -0.307424 -98.1737 60.3943
    endloop
  endfacet
  facet normal 0 -1 0
    outer loop
      vertex -0.307424 -98.1737 60.3943
      vertex 0.296231 -98.1737 60.4028
      vertex -0.296231 -98.1737 60.4028
    endloop
  endfacet
  facet normal 0 -1 0
    outer loop
      vertex 0.296231 -98.1737 60.4028
      vertex -0.284698 -98.1737 60.411
      vertex -0.296231 -98.1737 60.4028
    endloop
  endfacet
  facet normal 0 -1 0
    outer loop
      vertex -0.384307 -98.1737 60.3199
      vertex -0.4 -98.1737 60.3
      vertex 0.375937 -98.1737 60.3297
    endloop
  endfacet
  facet normal 0 -1 0
    outer loop
      vertex -0.4 -98.1737 60.3
      vertex -0.414318 -98.1737 60.2799
      vertex 0.375937 -98.1737 60.3297
    endloop
  endfacet
  facet normal 0 -1 0
    outer loop
      vertex 0.375937 -98.1737 60.3297
      vertex -0.414318 -98.1737 60.2799
      vertex -0.4273 -98.1737 60.2596
    endloop
  endfacet
  facet normal 0 -1 0
    outer loop
      vertex 0.296231 -98.1737 60.4028
      vertex 0.284698 -98.1737 60.411
      vertex -0.284698 -98.1737 60.411
    endloop
  endfacet
  facet normal 0 -1 0
    outer loop
      vertex 0.284698 -98.1737 60.411
      vertex 0.272829 -98.1737 60.419
      vertex -0.284698 -98.1737 60.411
    endloop
  endfacet
  facet normal 0 -1 0
    outer loop
      vertex -0.284698 -98.1737 60.411
      vertex 0.272829 -98.1737 60.419
      vertex -0.272829 -98.1737 60.419
    endloop
  endfacet
  facet normal 0 -1 0
    outer loop
      vertex 0.272829 -98.1737 60.419
      vertex 0.260633 -98.1737 60.4267
      vertex -0.272829 -98.1737 60.419
    endloop
  endfacet
  facet normal 0 -1 0
    outer loop
      vertex -0.272829 -98.1737 60.419
      vertex 0.260633 -98.1737 60.4267
      vertex -0.260633 -98.1737 60.4267
    endloop
  endfacet
  facet normal 0 -1 0
    outer loop
      vertex -0.260633 -98.1737 60.4267
      vertex 0.260633 -98.1737 60.4267
      vertex -0.248119 -98.1737 60.4341
    endloop
  endfacet
  facet normal 0 -1 0
    outer loop
      vertex 0.260633 -98.1737 60.4267
      vertex 0.248119 -98.1737 60.4341
      vertex -0.248119 -98.1737 60.4341
    endloop
  endfacet
  facet normal 0 -1 0
    outer loop
      vertex -0.248119 -98.1737 60.4341
      vertex 0.248119 -98.1737 60.4341
      vertex -0.235294 -98.1737 60.4412
    endloop
  endfacet
  facet normal 0 -1 0
    outer loop
      vertex 0.248119 -98.1737 60.4341
      vertex 0.235294 -98.1737 60.4412
      vertex -0.235294 -98.1737 60.4412
    endloop
  endfacet
  facet normal 0 -1 0
    outer loop
      vertex 0.235294 -98.1737 60.4412
      vertex 0.222171 -98.1737 60.4479
      vertex -0.235294 -98.1737 60.4412
    endloop
  endfacet
  facet normal 0 -1 0
    outer loop
      vertex -0.235294 -98.1737 60.4412
      vertex 0.222171 -98.1737 60.4479
      vertex -0.222171 -98.1737 60.4479
    endloop
  endfacet
  facet normal 0 -1 0
    outer loop
      vertex 0.222171 -98.1737 60.4479
      vertex 0.20876 -98.1737 60.4543
      vertex -0.222171 -98.1737 60.4479
    endloop
  endfacet
  facet normal 0 -1 0
    outer loop
      vertex -0.222171 -98.1737 60.4479
      vertex 0.20876 -98.1737 60.4543
      vertex -0.20876 -98.1737 60.4543
    endloop
  endfacet
  facet normal 0 -1 0
    outer loop
      vertex 0.20876 -98.1737 60.4543
      vertex -0.195076 -98.1737 60.4604
      vertex -0.20876 -98.1737 60.4543
    endloop
  endfacet
  facet normal 0 -1 0
    outer loop
      vertex 0.20876 -98.1737 60.4543
      vertex 0.195076 -98.1737 60.4604
      vertex -0.195076 -98.1737 60.4604
    endloop
  endfacet
  facet normal 0 -1 0
    outer loop
      vertex 0.195076 -98.1737 60.4604
      vertex 0.181132 -98.1737 60.466
      vertex -0.195076 -98.1737 60.4604
    endloop
  endfacet
  facet normal 0 -1 0
    outer loop
      vertex -0.195076 -98.1737 60.4604
      vertex 0.181132 -98.1737 60.466
      vertex -0.181132 -98.1737 60.466
    endloop
  endfacet
  facet normal 0 -1 0
    outer loop
      vertex 0.181132 -98.1737 60.466
      vertex -0.166943 -98.1737 60.4713
      vertex -0.181132 -98.1737 60.466
    endloop
  endfacet
  facet normal 0 -1 0
    outer loop
      vertex 0.181132 -98.1737 60.466
      vertex 0.166943 -98.1737 60.4713
      vertex -0.166943 -98.1737 60.4713
    endloop
  endfacet
  facet normal 0 -1 0
    outer loop
      vertex 0.166943 -98.1737 60.4713
      vertex 0.152526 -98.1737 60.4762
      vertex -0.166943 -98.1737 60.4713
    endloop
  endfacet
  facet normal 0 -1 0
    outer loop
      vertex -0.166943 -98.1737 60.4713
      vertex 0.152526 -98.1737 60.4762
      vertex -0.152526 -98.1737 60.4762
    endloop
  endfacet
  facet normal 0 -1 0
    outer loop
      vertex 0.152526 -98.1737 60.4762
      vertex 0.137898 -98.1737 60.4806
      vertex -0.152526 -98.1737 60.4762
    endloop
  endfacet
  facet normal 0 -1 0
    outer loop
      vertex -0.152526 -98.1737 60.4762
      vertex 0.137898 -98.1737 60.4806
      vertex -0.137898 -98.1737 60.4806
    endloop
  endfacet
  facet normal 0 -1 0
    outer loop
      vertex 0.137898 -98.1737 60.4806
      vertex -0.123077 -98.1737 60.4846
      vertex -0.137898 -98.1737 60.4806
    endloop
  endfacet
  facet normal 0 -1 0
    outer loop
      vertex 0.137898 -98.1737 60.4806
      vertex 0.123077 -98.1737 60.4846
      vertex -0.123077 -98.1737 60.4846
    endloop
  endfacet
  facet normal 0 -1 0
    outer loop
      vertex 0.123077 -98.1737 60.4846
      vertex 0.108082 -98.1737 60.4882
      vertex -0.123077 -98.1737 60.4846
    endloop
  endfacet
  facet normal 0 -1 0
    outer loop
      vertex -0.123077 -98.1737 60.4846
      vertex 0.108082 -98.1737 60.4882
      vertex -0.108082 -98.1737 60.4882
    endloop
  endfacet
  facet normal 0 -1 0
    outer loop
      vertex 0.108082 -98.1737 60.4882
      vertex 0.0929332 -98.1737 60.4913
      vertex -0.108082 -98.1737 60.4882
    endloop
  endfacet
  facet normal 0 -1 0
    outer loop
      vertex -0.108082 -98.1737 60.4882
      vertex 0.0929332 -98.1737 60.4913
      vertex -0.0929332 -98.1737 60.4913
    endloop
  endfacet
  facet normal 0 -1 0
    outer loop
      vertex -0.0622568 -98.1737 60.4961
      vertex -0.0776511 -98.1737 60.4939
      vertex 0.0622568 -98.1737 60.4961
    endloop
  endfacet
  facet normal 0 -1 0
    outer loop
      vertex -0.0929332 -98.1737 60.4913
      vertex 0.0929332 -98.1737 60.4913
      vertex -0.0776511 -98.1737 60.4939
    endloop
  endfacet
  facet normal 0 -1 0
    outer loop
      vertex 0.0929332 -98.1737 60.4913
      vertex 0.0776511 -98.1737 60.4939
      vertex -0.0776511 -98.1737 60.4939
    endloop
  endfacet
  facet normal 0 -1 0
    outer loop
      vertex -0.0776511 -98.1737 60.4939
      vertex 0.0776511 -98.1737 60.4939
      vertex 0.0622568 -98.1737 60.4961
    endloop
  endfacet
  facet normal 0 -1 0
    outer loop
      vertex -0.0312195 -98.1737 60.499
      vertex -0.0467722 -98.1737 60.4978
      vertex 0.0312195 -98.1737 60.499
    endloop
  endfacet
  facet normal 0 -1 0
    outer loop
      vertex -0.0622568 -98.1737 60.4961
      vertex 0.0622568 -98.1737 60.4961
      vertex -0.0467722 -98.1737 60.4978
    endloop
  endfacet
  facet normal 0 -1 0
    outer loop
      vertex 0.0622568 -98.1737 60.4961
      vertex 0.0467722 -98.1737 60.4978
      vertex -0.0467722 -98.1737 60.4978
    endloop
  endfacet
  facet normal 0 -1 0
    outer loop
      vertex -0.0467722 -98.1737 60.4978
      vertex 0.0467722 -98.1737 60.4978
      vertex 0.0312195 -98.1737 60.499
    endloop
  endfacet
  facet normal 0 -1 0
    outer loop
      vertex -0.0312195 -98.1737 60.499
      vertex 0.0312195 -98.1737 60.499
      vertex -0.0156212 -98.1737 60.4998
    endloop
  endfacet
  facet normal 0 -1 0
    outer loop
      vertex 0.0312195 -98.1737 60.499
      vertex 0.0156212 -98.1737 60.4998
      vertex -0.0156212 -98.1737 60.4998
    endloop
  endfacet
  facet normal 0 -1 0
    outer loop
      vertex -0.0156212 -98.1737 60.4998
      vertex 0.0156212 -98.1737 60.4998
      vertex -8.83625e-15 -98.1737 60.5
    endloop
  endfacet
  facet normal 0 -1 0
    outer loop
      vertex 1 -22.9737 74.8
      vertex 1 -22.9737 75
      vertex -1 -22.9737 74.8
    endloop
  endfacet
  facet normal 0 -1 0
    outer loop
      vertex 1 -22.9737 75
      vertex -1 -22.9737 75
      vertex -1 -22.9737 74.8
    endloop
  endfacet
  facet normal 1 0 0
    outer loop
      vertex 1 -22.9737 55.2
      vertex 1 -22.9737 55
      vertex 1 -21.4718 55
    endloop
  endfacet
  facet normal 1 0 0
    outer loop
      vertex 1 -21.4718 75
      vertex 1 -22.9737 75
      vertex 1 -22.9737 74.8
    endloop
  endfacet
  facet normal 1 0 0
    outer loop
      vertex 1 -23.1737 74.8
      vertex 1 -23.1737 55.2
      vertex 1 -22.9737 74.8
    endloop
  endfacet
  facet normal 1 0 0
    outer loop
      vertex 1 -23.1737 55.2
      vertex 1 -22.9737 55.2
      vertex 1 -22.9737 74.8
    endloop
  endfacet
  facet normal 1 0 0
    outer loop
      vertex 1 -22.9737 74.8
      vertex 1 -22.9737 55.2
      vertex 1 -21.4718 75
    endloop
  endfacet
  facet normal 1 0 0
    outer loop
      vertex 1 -22.9737 55.2
      vertex 1 -21.4718 55
      vertex 1 -21.4718 75
    endloop
  endfacet
  facet normal 0 0 1
    outer loop
      vertex 1 -23.1737 74.8
      vertex 1 -22.9737 74.8
      vertex -1 -23.1737 74.8
    endloop
  endfacet
  facet normal 0 0 1
    outer loop
      vertex 1 -22.9737 74.8
      vertex -1 -22.9737 74.8
      vertex -1 -23.1737 74.8
    endloop
  endfacet
  facet normal -0.999978 -0.00666652 0
    outer loop
      vertex -1 -23.1737 40
      vertex -0.5 -98.1737 40
      vertex -1 -23.1737 55.2
    endloop
  endfacet
  facet normal -0.999978 -0.00666652 0
    outer loop
      vertex -0.5 -98.1737 40
      vertex -0.5 -98.1737 60
      vertex -1 -23.1737 55.2
    endloop
  endfacet
  facet normal -0.999978 -0.00666652 0
    outer loop
      vertex -1 -23.1737 55.2
      vertex -0.5 -98.1737 60
      vertex -1 -23.1737 74.8
    endloop
  endfacet
  facet normal -0.999978 -0.00666652 0
    outer loop
      vertex -0.5 -98.1737 60
      vertex -1 -23.1737 100
      vertex -1 -23.1737 74.8
    endloop
  endfacet
  facet normal 0 1 0
    outer loop
      vertex 1 -23.1737 74.8
      vertex -1 -23.1737 74.8
      vertex 1 -23.1737 100
    endloop
  endfacet
  facet normal 0 1 0
    outer loop
      vertex -1 -23.1737 74.8
      vertex -1 -23.1737 100
      vertex 1 -23.1737 100
    endloop
  endfacet
  facet normal 0 1 0
    outer loop
      vertex 1 -23.1737 100
      vertex -1 -23.1737 100
      vertex 0.999496 -23.1737 100.032
    endloop
  endfacet
  facet normal 0 1 0
    outer loop
      vertex 0.734426 -23.1737 100.679
      vertex 0.751874 -23.1737 100.659
      vertex -0.734426 -23.1737 100.679
    endloop
  endfacet
  facet normal 0 1 0
    outer loop
      vertex 0.751874 -23.1737 100.659
      vertex -0.751874 -23.1737 100.659
      vertex -0.734426 -23.1737 100.679
    endloop
  endfacet
  facet normal 0 1 0
    outer loop
      vertex 0.99115 -23.1737 100.133
      vertex 0.995174 -23.1737 100.098
      vertex -1 -23.1737 100
    endloop
  endfacet
  facet normal 0 1 0
    outer loop
      vertex 0.995174 -23.1737 100.098
      vertex 0.997921 -23.1737 100.064
      vertex -1 -23.1737 100
    endloop
  endfacet
  facet normal 0 1 0
    outer loop
      vertex -1 -23.1737 100
      vertex 0.997921 -23.1737 100.064
      vertex 0.999496 -23.1737 100.032
    endloop
  endfacet
  facet normal 0 1 0
    outer loop
      vertex -0.999496 -23.1737 100.032
      vertex -0.997921 -23.1737 100.064
      vertex 0.751874 -23.1737 100.659
    endloop
  endfacet
  facet normal 0 1 0
    outer loop
      vertex -0.997921 -23.1737 100.064
      vertex -0.995174 -23.1737 100.098
      vertex 0.751874 -23.1737 100.659
    endloop
  endfacet
  facet normal 0 1 0
    outer loop
      vertex 0.697402 -23.1737 100.717
      vertex 0.716269 -23.1737 100.698
      vertex -0.697402 -23.1737 100.717
    endloop
  endfacet
  facet normal 0 1 0
    outer loop
      vertex 0.734426 -23.1737 100.679
      vertex -0.734426 -23.1737 100.679
      vertex 0.716269 -23.1737 100.698
    endloop
  endfacet
  facet normal 0 1 0
    outer loop
      vertex -0.734426 -23.1737 100.679
      vertex -0.716269 -23.1737 100.698
      vertex 0.716269 -23.1737 100.698
    endloop
  endfacet
  facet normal 0 1 0
    outer loop
      vertex 0.716269 -23.1737 100.698
      vertex -0.716269 -23.1737 100.698
      vertex -0.697402 -23.1737 100.717
    endloop
  endfacet
  facet normal 0 1 0
    outer loop
      vertex 0.970285 -23.1737 100.242
      vertex 0.978824 -23.1737 100.205
      vertex -1 -23.1737 100
    endloop
  endfacet
  facet normal 0 1 0
    outer loop
      vertex 0.978824 -23.1737 100.205
      vertex 0.985739 -23.1737 100.168
      vertex -1 -23.1737 100
    endloop
  endfacet
  facet normal 0 1 0
    outer loop
      vertex -1 -23.1737 100
      vertex 0.985739 -23.1737 100.168
      vertex 0.99115 -23.1737 100.133
    endloop
  endfacet
  facet normal 0 1 0
    outer loop
      vertex -0.995174 -23.1737 100.098
      vertex -0.99115 -23.1737 100.133
      vertex 0.751874 -23.1737 100.659
    endloop
  endfacet
  facet normal 0 1 0
    outer loop
      vertex -0.99115 -23.1737 100.133
      vertex -0.985739 -23.1737 100.168
      vertex 0.751874 -23.1737 100.659
    endloop
  endfacet
  facet normal 0 1 0
    outer loop
      vertex 0.751874 -23.1737 100.659
      vertex -0.985739 -23.1737 100.168
      vertex -0.978824 -23.1737 100.205
    endloop
  endfacet
  facet normal 0 1 0
    outer loop
      vertex 0.657534 -23.1737 100.753
      vertex 0.677823 -23.1737 100.735
      vertex -0.657534 -23.1737 100.753
    endloop
  endfacet
  facet normal 0 1 0
    outer loop
      vertex 0.697402 -23.1737 100.717
      vertex -0.697402 -23.1737 100.717
      vertex 0.677823 -23.1737 100.735
    endloop
  endfacet
  facet normal 0 1 0
    outer loop
      vertex -0.697402 -23.1737 100.717
      vertex -0.677823 -23.1737 100.735
      vertex 0.677823 -23.1737 100.735
    endloop
  endfacet
  facet normal 0 1 0
    outer loop
      vertex 0.677823 -23.1737 100.735
      vertex -0.677823 -23.1737 100.735
      vertex -0.657534 -23.1737 100.753
    endloop
  endfacet
  facet normal 0 1 0
    outer loop
      vertex 0.933687 -23.1737 100.358
      vertex 0.947843 -23.1737 100.319
      vertex -1 -23.1737 100
    endloop
  endfacet
  facet normal 0 1 0
    outer loop
      vertex 0.947843 -23.1737 100.319
      vertex 0.96 -23.1737 100.28
      vertex -1 -23.1737 100
    endloop
  endfacet
  facet normal 0 1 0
    outer loop
      vertex -1 -23.1737 100
      vertex 0.96 -23.1737 100.28
      vertex 0.970285 -23.1737 100.242
    endloop
  endfacet
  facet normal 0 1 0
    outer loop
      vertex -0.978824 -23.1737 100.205
      vertex -0.970285 -23.1737 100.242
      vertex 0.751874 -23.1737 100.659
    endloop
  endfacet
  facet normal 0 1 0
    outer loop
      vertex -0.970285 -23.1737 100.242
      vertex -0.96 -23.1737 100.28
      vertex 0.751874 -23.1737 100.659
    endloop
  endfacet
  facet normal 0 1 0
    outer loop
      vertex 0.751874 -23.1737 100.659
      vertex -0.96 -23.1737 100.28
      vertex -0.947843 -23.1737 100.319
    endloop
  endfacet
  facet normal 0 1 0
    outer loop
      vertex 0.657534 -23.1737 100.753
      vertex -0.657534 -23.1737 100.753
      vertex 0.636541 -23.1737 100.771
    endloop
  endfacet
  facet normal 0 1 0
    outer loop
      vertex -0.657534 -23.1737 100.753
      vertex -0.636541 -23.1737 100.771
      vertex 0.636541 -23.1737 100.771
    endloop
  endfacet
  facet normal 0 1 0
    outer loop
      vertex 0.636541 -23.1737 100.771
      vertex -0.636541 -23.1737 100.771
      vertex 0.614847 -23.1737 100.789
    endloop
  endfacet
  facet normal 0 1 0
    outer loop
      vertex 0.877978 -23.1737 100.479
      vertex 0.898876 -23.1737 100.438
      vertex -1 -23.1737 100
    endloop
  endfacet
  facet normal 0 1 0
    outer loop
      vertex 0.898876 -23.1737 100.438
      vertex 0.917406 -23.1737 100.398
      vertex -1 -23.1737 100
    endloop
  endfacet
  facet normal 0 1 0
    outer loop
      vertex -1 -23.1737 100
      vertex 0.917406 -23.1737 100.398
      vertex 0.933687 -23.1737 100.358
    endloop
  endfacet
  facet normal 0 1 0
    outer loop
      vertex -0.947843 -23.1737 100.319
      vertex -0.933687 -23.1737 100.358
      vertex 0.751874 -23.1737 100.659
    endloop
  endfacet
  facet normal 0 1 0
    outer loop
      vertex -0.933687 -23.1737 100.358
      vertex -0.917406 -23.1737 100.398
      vertex 0.751874 -23.1737 100.659
    endloop
  endfacet
  facet normal 0 1 0
    outer loop
      vertex 0.751874 -23.1737 100.659
      vertex -0.917406 -23.1737 100.398
      vertex -0.898876 -23.1737 100.438
    endloop
  endfacet
  facet normal 0 1 0
    outer loop
      vertex 0.8 -23.1737 100.6
      vertex 0.828637 -23.1737 100.56
      vertex -1 -23.1737 100
    endloop
  endfacet
  facet normal 0 1 0
    outer loop
      vertex 0.828637 -23.1737 100.56
      vertex 0.854599 -23.1737 100.519
      vertex -1 -23.1737 100
    endloop
  endfacet
  facet normal 0 1 0
    outer loop
      vertex -1 -23.1737 100
      vertex 0.854599 -23.1737 100.519
      vertex 0.877978 -23.1737 100.479
    endloop
  endfacet
  facet normal 0 1 0
    outer loop
      vertex -0.898876 -23.1737 100.438
      vertex -0.877978 -23.1737 100.479
      vertex 0.751874 -23.1737 100.659
    endloop
  endfacet
  facet normal 0 1 0
    outer loop
      vertex -0.877978 -23.1737 100.479
      vertex -0.854599 -23.1737 100.519
      vertex 0.751874 -23.1737 100.659
    endloop
  endfacet
  facet normal 0 1 0
    outer loop
      vertex 0.751874 -23.1737 100.659
      vertex -0.854599 -23.1737 100.519
      vertex -0.828637 -23.1737 100.56
    endloop
  endfacet
  facet normal 0 1 0
    outer loop
      vertex -0.999496 -23.1737 100.032
      vertex 0.751874 -23.1737 100.659
      vertex -1 -23.1737 100
    endloop
  endfacet
  facet normal 0 1 0
    outer loop
      vertex 0.751874 -23.1737 100.659
      vertex 0.768615 -23.1737 100.64
      vertex -1 -23.1737 100
    endloop
  endfacet
  facet normal 0 1 0
    outer loop
      vertex -1 -23.1737 100
      vertex 0.768615 -23.1737 100.64
      vertex 0.8 -23.1737 100.6
    endloop
  endfacet
  facet normal 0 1 0
    outer loop
      vertex -0.828637 -23.1737 100.56
      vertex -0.8 -23.1737 100.6
      vertex 0.751874 -23.1737 100.659
    endloop
  endfacet
  facet normal 0 1 0
    outer loop
      vertex -0.8 -23.1737 100.6
      vertex -0.768615 -23.1737 100.64
      vertex 0.751874 -23.1737 100.659
    endloop
  endfacet
  facet normal 0 1 0
    outer loop
      vertex 0.751874 -23.1737 100.659
      vertex -0.768615 -23.1737 100.64
      vertex -0.751874 -23.1737 100.659
    endloop
  endfacet
  facet normal 0 1 0
    outer loop
      vertex -0.636541 -23.1737 100.771
      vertex -0.614847 -23.1737 100.789
      vertex 0.614847 -23.1737 100.789
    endloop
  endfacet
  facet normal 0 1 0
    outer loop
      vertex -0.614847 -23.1737 100.789
      vertex -0.592462 -23.1737 100.806
      vertex 0.614847 -23.1737 100.789
    endloop
  endfacet
  facet normal 0 1 0
    outer loop
      vertex 0.614847 -23.1737 100.789
      vertex -0.592462 -23.1737 100.806
      vertex 0.592462 -23.1737 100.806
    endloop
  endfacet
  facet normal 0 1 0
    outer loop
      vertex -0.592462 -23.1737 100.806
      vertex -0.569395 -23.1737 100.822
      vertex 0.592462 -23.1737 100.806
    endloop
  endfacet
  facet normal 0 1 0
    outer loop
      vertex 0.592462 -23.1737 100.806
      vertex -0.569395 -23.1737 100.822
      vertex 0.569395 -23.1737 100.822
    endloop
  endfacet
  facet normal 0 1 0
    outer loop
      vertex 0.521267 -23.1737 100.853
      vertex 0.545659 -23.1737 100.838
      vertex -0.521267 -23.1737 100.853
    endloop
  endfacet
  facet normal 0 1 0
    outer loop
      vertex 0.569395 -23.1737 100.822
      vertex -0.569395 -23.1737 100.822
      vertex 0.545659 -23.1737 100.838
    endloop
  endfacet
  facet normal 0 1 0
    outer loop
      vertex -0.569395 -23.1737 100.822
      vertex -0.545659 -23.1737 100.838
      vertex 0.545659 -23.1737 100.838
    endloop
  endfacet
  facet normal 0 1 0
    outer loop
      vertex 0.545659 -23.1737 100.838
      vertex -0.545659 -23.1737 100.838
      vertex -0.521267 -23.1737 100.853
    endloop
  endfacet
  facet normal 0 1 0
    outer loop
      vertex 0.470588 -23.1737 100.882
      vertex 0.496237 -23.1737 100.868
      vertex -0.470588 -23.1737 100.882
    endloop
  endfacet
  facet normal 0 1 0
    outer loop
      vertex 0.521267 -23.1737 100.853
      vertex -0.521267 -23.1737 100.853
      vertex 0.496237 -23.1737 100.868
    endloop
  endfacet
  facet normal 0 1 0
    outer loop
      vertex -0.521267 -23.1737 100.853
      vertex -0.496237 -23.1737 100.868
      vertex 0.496237 -23.1737 100.868
    endloop
  endfacet
  facet normal 0 1 0
    outer loop
      vertex 0.496237 -23.1737 100.868
      vertex -0.496237 -23.1737 100.868
      vertex -0.470588 -23.1737 100.882
    endloop
  endfacet
  facet normal 0 1 0
    outer loop
      vertex 0.417521 -23.1737 100.909
      vertex 0.444342 -23.1737 100.896
      vertex -0.417521 -23.1737 100.909
    endloop
  endfacet
  facet normal 0 1 0
    outer loop
      vertex 0.470588 -23.1737 100.882
      vertex -0.470588 -23.1737 100.882
      vertex 0.444342 -23.1737 100.896
    endloop
  endfacet
  facet normal 0 1 0
    outer loop
      vertex -0.470588 -23.1737 100.882
      vertex -0.444342 -23.1737 100.896
      vertex 0.444342 -23.1737 100.896
    endloop
  endfacet
  facet normal 0 1 0
    outer loop
      vertex 0.444342 -23.1737 100.896
      vertex -0.444342 -23.1737 100.896
      vertex -0.417521 -23.1737 100.909
    endloop
  endfacet
  facet normal 0 1 0
    outer loop
      vertex 0.362264 -23.1737 100.932
      vertex 0.390152 -23.1737 100.921
      vertex -0.362264 -23.1737 100.932
    endloop
  endfacet
  facet normal 0 1 0
    outer loop
      vertex 0.417521 -23.1737 100.909
      vertex -0.417521 -23.1737 100.909
      vertex 0.390152 -23.1737 100.921
    endloop
  endfacet
  facet normal 0 1 0
    outer loop
      vertex -0.417521 -23.1737 100.909
      vertex -0.390152 -23.1737 100.921
      vertex 0.390152 -23.1737 100.921
    endloop
  endfacet
  facet normal 0 1 0
    outer loop
      vertex 0.390152 -23.1737 100.921
      vertex -0.390152 -23.1737 100.921
      vertex -0.362264 -23.1737 100.932
    endloop
  endfacet
  facet normal 0 1 0
    outer loop
      vertex 0.305052 -23.1737 100.952
      vertex 0.333887 -23.1737 100.943
      vertex -0.305052 -23.1737 100.952
    endloop
  endfacet
  facet normal 0 1 0
    outer loop
      vertex 0.362264 -23.1737 100.932
      vertex -0.362264 -23.1737 100.932
      vertex 0.333887 -23.1737 100.943
    endloop
  endfacet
  facet normal 0 1 0
    outer loop
      vertex -0.362264 -23.1737 100.932
      vertex -0.333887 -23.1737 100.943
      vertex 0.333887 -23.1737 100.943
    endloop
  endfacet
  facet normal 0 1 0
    outer loop
      vertex 0.333887 -23.1737 100.943
      vertex -0.333887 -23.1737 100.943
      vertex -0.305052 -23.1737 100.952
    endloop
  endfacet
  facet normal 0 1 0
    outer loop
      vertex 0.305052 -23.1737 100.952
      vertex -0.305052 -23.1737 100.952
      vertex 0.275796 -23.1737 100.961
    endloop
  endfacet
  facet normal 0 1 0
    outer loop
      vertex -0.305052 -23.1737 100.952
      vertex -0.275796 -23.1737 100.961
      vertex 0.275796 -23.1737 100.961
    endloop
  endfacet
  facet normal 0 1 0
    outer loop
      vertex 0.275796 -23.1737 100.961
      vertex -0.275796 -23.1737 100.961
      vertex 0.246154 -23.1737 100.969
    endloop
  endfacet
  facet normal 0 1 0
    outer loop
      vertex -0.275796 -23.1737 100.961
      vertex -0.246154 -23.1737 100.969
      vertex 0.246154 -23.1737 100.969
    endloop
  endfacet
  facet normal 0 1 0
    outer loop
      vertex -0.246154 -23.1737 100.969
      vertex -0.216164 -23.1737 100.976
      vertex 0.246154 -23.1737 100.969
    endloop
  endfacet
  facet normal 0 1 0
    outer loop
      vertex 0.246154 -23.1737 100.969
      vertex -0.216164 -23.1737 100.976
      vertex 0.216164 -23.1737 100.976
    endloop
  endfacet
  facet normal 0 1 0
    outer loop
      vertex -0.216164 -23.1737 100.976
      vertex 0.185866 -23.1737 100.983
      vertex 0.216164 -23.1737 100.976
    endloop
  endfacet
  facet normal 0 1 0
    outer loop
      vertex -0.216164 -23.1737 100.976
      vertex -0.185866 -23.1737 100.983
      vertex 0.185866 -23.1737 100.983
    endloop
  endfacet
  facet normal 0 1 0
    outer loop
      vertex -0.185866 -23.1737 100.983
      vertex -0.155302 -23.1737 100.988
      vertex 0.185866 -23.1737 100.983
    endloop
  endfacet
  facet normal 0 1 0
    outer loop
      vertex 0.185866 -23.1737 100.983
      vertex -0.155302 -23.1737 100.988
      vertex 0.155302 -23.1737 100.988
    endloop
  endfacet
  facet normal 0 1 0
    outer loop
      vertex -0.155302 -23.1737 100.988
      vertex -0.124514 -23.1737 100.992
      vertex 0.155302 -23.1737 100.988
    endloop
  endfacet
  facet normal 0 1 0
    outer loop
      vertex 0.155302 -23.1737 100.988
      vertex -0.124514 -23.1737 100.992
      vertex 0.124514 -23.1737 100.992
    endloop
  endfacet
  facet normal 0 1 0
    outer loop
      vertex -0.124514 -23.1737 100.992
      vertex -0.0935445 -23.1737 100.996
      vertex 0.124514 -23.1737 100.992
    endloop
  endfacet
  facet normal 0 1 0
    outer loop
      vertex 0.124514 -23.1737 100.992
      vertex -0.0935445 -23.1737 100.996
      vertex 0.0935445 -23.1737 100.996
    endloop
  endfacet
  facet normal 0 1 0
    outer loop
      vertex -0.0935445 -23.1737 100.996
      vertex 0.062439 -23.1737 100.998
      vertex 0.0935445 -23.1737 100.996
    endloop
  endfacet
  facet normal 0 1 0
    outer loop
      vertex -0.0935445 -23.1737 100.996
      vertex -0.062439 -23.1737 100.998
      vertex 0.062439 -23.1737 100.998
    endloop
  endfacet
  facet normal 0 1 0
    outer loop
      vertex -0.062439 -23.1737 100.998
      vertex -0.0312424 -23.1737 101
      vertex 0.062439 -23.1737 100.998
    endloop
  endfacet
  facet normal 0 1 0
    outer loop
      vertex 0.062439 -23.1737 100.998
      vertex -0.0312424 -23.1737 101
      vertex 0.0312424 -23.1737 101
    endloop
  endfacet
  facet normal 0 1 0
    outer loop
      vertex -0.0312424 -23.1737 101
      vertex 2.53161e-14 -23.1737 101
      vertex 0.0312424 -23.1737 101
    endloop
  endfacet
  facet normal 0 1 0
    outer loop
      vertex -1 -23.1737 55.2
      vertex 1 -23.1737 55.2
      vertex -1 -23.1737 40
    endloop
  endfacet
  facet normal 0 1 0
    outer loop
      vertex 1 -23.1737 55.2
      vertex 1 -23.1737 40
      vertex -1 -23.1737 40
    endloop
  endfacet
  facet normal 0 1 0
    outer loop
      vertex -1 -23.1737 40
      vertex 1 -23.1737 40
      vertex -1 -23.1737 32
    endloop
  endfacet
  facet normal 0 1 0
    outer loop
      vertex 1 -23.1737 40
      vertex 1 -23.1737 32
      vertex -1 -23.1737 32
    endloop
  endfacet
  facet normal 0.99976 -0.0151294 0.0158706
    outer loop
      vertex 0.5 -98.1737 60
      vertex 1 -23.1737 100
      vertex 0.999496 -23.1737 100.032
    endloop
  endfacet
  facet normal 0.99976 -0.0151294 0.0158706
    outer loop
      vertex 0.5 -98.1737 60
      vertex 0.999496 -23.1737 100.032
      vertex 0.499748 -98.1737 60.0159
    endloop
  endfacet
  facet normal 0.998321 -0.0323044 0.048079
    outer loop
      vertex 0.999496 -23.1737 100.032
      vertex 0.997921 -23.1737 100.064
      vertex 0.499748 -98.1737 60.0159
    endloop
  endfacet
  facet normal 0.998322 -0.0322986 0.0480681
    outer loop
      vertex 0.499748 -98.1737 60.0159
      vertex 0.997921 -23.1737 100.064
      vertex 0.49896 -98.1737 60.0322
    endloop
  endfacet
  facet normal 0.995446 -0.0499586 0.0811897
    outer loop
      vertex 0.997921 -23.1737 100.064
      vertex 0.995174 -23.1737 100.098
      vertex 0.49896 -98.1737 60.0322
    endloop
  endfacet
  facet normal 0.995444 -0.0499681 0.0812075
    outer loop
      vertex 0.49896 -98.1737 60.0322
      vertex 0.995174 -23.1737 100.098
      vertex 0.497587 -98.1737 60.0491
    endloop
  endfacet
  facet normal 0.991006 -0.0680903 0.1152
    outer loop
      vertex 0.995174 -23.1737 100.098
      vertex 0.99115 -23.1737 100.133
      vertex 0.497587 -98.1737 60.0491
    endloop
  endfacet
  facet normal 0.99101 -0.0680774 0.115176
    outer loop
      vertex 0.497587 -98.1737 60.0491
      vertex 0.99115 -23.1737 100.133
      vertex 0.495575 -98.1737 60.0664
    endloop
  endfacet
  facet normal 0.984888 -0.0866257 0.149972
    outer loop
      vertex 0.99115 -23.1737 100.133
      vertex 0.985739 -23.1737 100.168
      vertex 0.495575 -98.1737 60.0664
    endloop
  endfacet
  facet normal 0.984888 -0.0866257 0.149972
    outer loop
      vertex 0.495575 -98.1737 60.0664
      vertex 0.985739 -23.1737 100.168
      vertex 0.492869 -98.1737 60.0841
    endloop
  endfacet
  facet normal 0.976965 -0.105545 0.18547
    outer loop
      vertex 0.985739 -23.1737 100.168
      vertex 0.978824 -23.1737 100.205
      vertex 0.492869 -98.1737 60.0841
    endloop
  endfacet
  facet normal 0.976965 -0.105545 0.18547
    outer loop
      vertex 0.492869 -98.1737 60.0841
      vertex 0.978824 -23.1737 100.205
      vertex 0.489412 -98.1737 60.1024
    endloop
  endfacet
  facet normal 0.967112 -0.124811 0.221621
    outer loop
      vertex 0.978824 -23.1737 100.205
      vertex 0.970285 -23.1737 100.242
      vertex 0.489412 -98.1737 60.1024
    endloop
  endfacet
  facet normal 0.9671 -0.124833 0.221662
    outer loop
      vertex 0.489412 -98.1737 60.1024
      vertex 0.970285 -23.1737 100.242
      vertex 0.485143 -98.1737 60.121
    endloop
  endfacet
  facet normal 0.955219 -0.144355 0.2583
    outer loop
      vertex 0.970285 -23.1737 100.242
      vertex 0.96 -23.1737 100.28
      vertex 0.485143 -98.1737 60.121
    endloop
  endfacet
  facet normal 0.955219 -0.144355 0.2583
    outer loop
      vertex 0.485143 -98.1737 60.121
      vertex 0.96 -23.1737 100.28
      vertex 0.48 -98.1737 60.14
    endloop
  endfacet
  facet normal 0.941177 -0.164114 0.295386
    outer loop
      vertex 0.96 -23.1737 100.28
      vertex 0.947843 -23.1737 100.319
      vertex 0.48 -98.1737 60.14
    endloop
  endfacet
  facet normal 0.941197 -0.164087 0.295336
    outer loop
      vertex 0.48 -98.1737 60.14
      vertex 0.947843 -23.1737 100.319
      vertex 0.473921 -98.1737 60.1594
    endloop
  endfacet
  facet normal 0.924911 -0.18399 0.332696
    outer loop
      vertex 0.947843 -23.1737 100.319
      vertex 0.933687 -23.1737 100.358
      vertex 0.473921 -98.1737 60.1594
    endloop
  endfacet
  facet normal 0.924886 -0.184018 0.33275
    outer loop
      vertex 0.473921 -98.1737 60.1594
      vertex 0.933687 -23.1737 100.358
      vertex 0.466844 -98.1737 60.179
    endloop
  endfacet
  facet normal 0.906298 -0.203951 0.370173
    outer loop
      vertex 0.933687 -23.1737 100.358
      vertex 0.917406 -23.1737 100.398
      vertex 0.466844 -98.1737 60.179
    endloop
  endfacet
  facet normal 0.906328 -0.20392 0.370116
    outer loop
      vertex 0.466844 -98.1737 60.179
      vertex 0.917406 -23.1737 100.398
      vertex 0.458703 -98.1737 60.199
    endloop
  endfacet
  facet normal 0.8853 -0.223873 0.407583
    outer loop
      vertex 0.917406 -23.1737 100.398
      vertex 0.898876 -23.1737 100.438
      vertex 0.458703 -98.1737 60.199
    endloop
  endfacet
  facet normal 0.8853 -0.223873 0.407583
    outer loop
      vertex 0.458703 -98.1737 60.199
      vertex 0.898876 -23.1737 100.438
      vertex 0.449438 -98.1737 60.2191
    endloop
  endfacet
  facet normal 0.861891 -0.243649 0.444722
    outer loop
      vertex 0.898876 -23.1737 100.438
      vertex 0.877978 -23.1737 100.479
      vertex 0.449438 -98.1737 60.2191
    endloop
  endfacet
  facet normal 0.861851 -0.243682 0.444783
    outer loop
      vertex 0.449438 -98.1737 60.2191
      vertex 0.877978 -23.1737 100.479
      vertex 0.438989 -98.1737 60.2393
    endloop
  endfacet
  facet normal 0.835938 -0.263262 0.481561
    outer loop
      vertex 0.877978 -23.1737 100.479
      vertex 0.854599 -23.1737 100.519
      vertex 0.438989 -98.1737 60.2393
    endloop
  endfacet
  facet normal 0.835984 -0.263229 0.481499
    outer loop
      vertex 0.438989 -98.1737 60.2393
      vertex 0.854599 -23.1737 100.519
      vertex 0.4273 -98.1737 60.2596
    endloop
  endfacet
  facet normal 0.807586 -0.282494 0.517689
    outer loop
      vertex 0.854599 -23.1737 100.519
      vertex 0.828637 -23.1737 100.56
      vertex 0.4273 -98.1737 60.2596
    endloop
  endfacet
  facet normal 0.807586 -0.282494 0.517689
    outer loop
      vertex 0.4273 -98.1737 60.2596
      vertex 0.828637 -23.1737 100.56
      vertex 0.414318 -98.1737 60.2799
    endloop
  endfacet
  facet normal 0.776683 -0.301356 0.553126
    outer loop
      vertex 0.828637 -23.1737 100.56
      vertex 0.8 -23.1737 100.6
      vertex 0.414318 -98.1737 60.2799
    endloop
  endfacet
  facet normal 0.776683 -0.301356 0.553126
    outer loop
      vertex 0.414318 -98.1737 60.2799
      vertex 0.8 -23.1737 100.6
      vertex 0.4 -98.1737 60.3
    endloop
  endfacet
  facet normal 0.743393 -0.319661 0.587523
    outer loop
      vertex 0.8 -23.1737 100.6
      vertex 0.768615 -23.1737 100.64
      vertex 0.4 -98.1737 60.3
    endloop
  endfacet
  facet normal 0.743393 -0.319661 0.587523
    outer loop
      vertex 0.4 -98.1737 60.3
      vertex 0.768615 -23.1737 100.64
      vertex 0.384307 -98.1737 60.3199
    endloop
  endfacet
  facet normal 0.717051 -0.332893 0.612389
    outer loop
      vertex 0.768615 -23.1737 100.64
      vertex 0.751874 -23.1737 100.659
      vertex 0.384307 -98.1737 60.3199
    endloop
  endfacet
  facet normal 0.716918 -0.332957 0.612509
    outer loop
      vertex 0.384307 -98.1737 60.3199
      vertex 0.751874 -23.1737 100.659
      vertex 0.375937 -98.1737 60.3297
    endloop
  endfacet
  facet normal 0.698457 -0.341645 0.628837
    outer loop
      vertex 0.751874 -23.1737 100.659
      vertex 0.734426 -23.1737 100.679
      vertex 0.375937 -98.1737 60.3297
    endloop
  endfacet
  facet normal 0.698457 -0.341645 0.628837
    outer loop
      vertex 0.375937 -98.1737 60.3297
      vertex 0.734426 -23.1737 100.679
      vertex 0.367213 -98.1737 60.3393
    endloop
  endfacet
  facet normal 0.679455 -0.35013 0.644786
    outer loop
      vertex 0.734426 -23.1737 100.679
      vertex 0.716269 -23.1737 100.698
      vertex 0.367213 -98.1737 60.3393
    endloop
  endfacet
  facet normal 0.679597 -0.350068 0.64467
    outer loop
      vertex 0.367213 -98.1737 60.3393
      vertex 0.716269 -23.1737 100.698
      vertex 0.358135 -98.1737 60.3489
    endloop
  endfacet
  facet normal 0.659951 -0.358393 0.660318
    outer loop
      vertex 0.716269 -23.1737 100.698
      vertex 0.697402 -23.1737 100.717
      vertex 0.358135 -98.1737 60.3489
    endloop
  endfacet
  facet normal 0.659951 -0.358393 0.660318
    outer loop
      vertex 0.358135 -98.1737 60.3489
      vertex 0.697402 -23.1737 100.717
      vertex 0.348701 -98.1737 60.3583
    endloop
  endfacet
  facet normal 0.639823 -0.366477 0.675516
    outer loop
      vertex 0.697402 -23.1737 100.717
      vertex 0.677823 -23.1737 100.735
      vertex 0.348701 -98.1737 60.3583
    endloop
  endfacet
  facet normal 0.639823 -0.366477 0.675516
    outer loop
      vertex 0.348701 -98.1737 60.3583
      vertex 0.677823 -23.1737 100.735
      vertex 0.338911 -98.1737 60.3676
    endloop
  endfacet
  facet normal 0.619249 -0.374307 0.690235
    outer loop
      vertex 0.677823 -23.1737 100.735
      vertex 0.657534 -23.1737 100.753
      vertex 0.338911 -98.1737 60.3676
    endloop
  endfacet
  facet normal 0.619093 -0.374365 0.690344
    outer loop
      vertex 0.338911 -98.1737 60.3676
      vertex 0.657534 -23.1737 100.753
      vertex 0.328767 -98.1737 60.3767
    endloop
  endfacet
  facet normal 0.597947 -0.381981 0.704663
    outer loop
      vertex 0.657534 -23.1737 100.753
      vertex 0.636541 -23.1737 100.771
      vertex 0.328767 -98.1737 60.3767
    endloop
  endfacet
  facet normal 0.598107 -0.381925 0.704558
    outer loop
      vertex 0.328767 -98.1737 60.3767
      vertex 0.636541 -23.1737 100.771
      vertex 0.31827 -98.1737 60.3856
    endloop
  endfacet
  facet normal 0.576416 -0.389316 0.718455
    outer loop
      vertex 0.636541 -23.1737 100.771
      vertex 0.614847 -23.1737 100.789
      vertex 0.31827 -98.1737 60.3856
    endloop
  endfacet
  facet normal 0.576416 -0.389316 0.718455
    outer loop
      vertex 0.31827 -98.1737 60.3856
      vertex 0.614847 -23.1737 100.789
      vertex 0.307424 -98.1737 60.3943
    endloop
  endfacet
  facet normal 0.554196 -0.396467 0.731902
    outer loop
      vertex 0.614847 -23.1737 100.789
      vertex 0.592462 -23.1737 100.806
      vertex 0.307424 -98.1737 60.3943
    endloop
  endfacet
  facet normal 0.554196 -0.396467 0.731902
    outer loop
      vertex 0.307424 -98.1737 60.3943
      vertex 0.592462 -23.1737 100.806
      vertex 0.296231 -98.1737 60.4028
    endloop
  endfacet
  facet normal 0.531642 -0.403315 0.744778
    outer loop
      vertex 0.592462 -23.1737 100.806
      vertex 0.569395 -23.1737 100.822
      vertex 0.296231 -98.1737 60.4028
    endloop
  endfacet
  facet normal 0.531642 -0.403315 0.744778
    outer loop
      vertex 0.296231 -98.1737 60.4028
      vertex 0.569395 -23.1737 100.822
      vertex 0.284698 -98.1737 60.411
    endloop
  endfacet
  facet normal 0.508603 -0.409903 0.757167
    outer loop
      vertex 0.569395 -23.1737 100.822
      vertex 0.545659 -23.1737 100.838
      vertex 0.284698 -98.1737 60.411
    endloop
  endfacet
  facet normal 0.508603 -0.409903 0.757167
    outer loop
      vertex 0.284698 -98.1737 60.411
      vertex 0.545659 -23.1737 100.838
      vertex 0.272829 -98.1737 60.419
    endloop
  endfacet
  facet normal 0.485095 -0.416223 0.769053
    outer loop
      vertex 0.545659 -23.1737 100.838
      vertex 0.521267 -23.1737 100.853
      vertex 0.272829 -98.1737 60.419
    endloop
  endfacet
  facet normal 0.485095 -0.416223 0.769053
    outer loop
      vertex 0.272829 -98.1737 60.419
      vertex 0.521267 -23.1737 100.853
      vertex 0.260633 -98.1737 60.4267
    endloop
  endfacet
  facet normal 0.461311 -0.422221 0.780334
    outer loop
      vertex 0.521267 -23.1737 100.853
      vertex 0.496237 -23.1737 100.868
      vertex 0.260633 -98.1737 60.4267
    endloop
  endfacet
  facet normal 0.461128 -0.422266 0.780418
    outer loop
      vertex 0.260633 -98.1737 60.4267
      vertex 0.496237 -23.1737 100.868
      vertex 0.248119 -98.1737 60.4341
    endloop
  endfacet
  facet normal 0.436892 -0.427984 0.791173
    outer loop
      vertex 0.496237 -23.1737 100.868
      vertex 0.470588 -23.1737 100.882
      vertex 0.248119 -98.1737 60.4341
    endloop
  endfacet
  facet normal 0.437078 -0.427941 0.791094
    outer loop
      vertex 0.248119 -98.1737 60.4341
      vertex 0.470588 -23.1737 100.882
      vertex 0.235294 -98.1737 60.4412
    endloop
  endfacet
  facet normal 0.4124 -0.433377 0.801318
    outer loop
      vertex 0.470588 -23.1737 100.882
      vertex 0.444342 -23.1737 100.896
      vertex 0.235294 -98.1737 60.4412
    endloop
  endfacet
  facet normal 0.412212 -0.433417 0.801393
    outer loop
      vertex 0.235294 -98.1737 60.4412
      vertex 0.444342 -23.1737 100.896
      vertex 0.222171 -98.1737 60.4479
    endloop
  endfacet
  facet normal 0.387272 -0.438523 0.810998
    outer loop
      vertex 0.444342 -23.1737 100.896
      vertex 0.417521 -23.1737 100.909
      vertex 0.222171 -98.1737 60.4479
    endloop
  endfacet
  facet normal 0.387464 -0.438485 0.810927
    outer loop
      vertex 0.222171 -98.1737 60.4479
      vertex 0.417521 -23.1737 100.909
      vertex 0.20876 -98.1737 60.4543
    endloop
  endfacet
  facet normal 0.362074 -0.443303 0.81999
    outer loop
      vertex 0.417521 -23.1737 100.909
      vertex 0.390152 -23.1737 100.921
      vertex 0.20876 -98.1737 60.4543
    endloop
  endfacet
  facet normal 0.36188 -0.443339 0.820057
    outer loop
      vertex 0.20876 -98.1737 60.4543
      vertex 0.390152 -23.1737 100.921
      vertex 0.195076 -98.1737 60.4604
    endloop
  endfacet
  facet normal 0.336412 -0.447793 0.828437
    outer loop
      vertex 0.390152 -23.1737 100.921
      vertex 0.362264 -23.1737 100.932
      vertex 0.195076 -98.1737 60.4604
    endloop
  endfacet
  facet normal 0.336412 -0.447793 0.828437
    outer loop
      vertex 0.195076 -98.1737 60.4604
      vertex 0.362264 -23.1737 100.932
      vertex 0.181132 -98.1737 60.466
    endloop
  endfacet
  facet normal 0.310464 -0.451957 0.83627
    outer loop
      vertex 0.362264 -23.1737 100.932
      vertex 0.333887 -23.1737 100.943
      vertex 0.181132 -98.1737 60.466
    endloop
  endfacet
  facet normal 0.310663 -0.451926 0.836212
    outer loop
      vertex 0.181132 -98.1737 60.466
      vertex 0.333887 -23.1737 100.943
      vertex 0.166943 -98.1737 60.4713
    endloop
  endfacet
  facet normal 0.28441 -0.455767 0.843438
    outer loop
      vertex 0.333887 -23.1737 100.943
      vertex 0.305052 -23.1737 100.952
      vertex 0.166943 -98.1737 60.4713
    endloop
  endfacet
  facet normal 0.28441 -0.455767 0.843438
    outer loop
      vertex 0.166943 -98.1737 60.4713
      vertex 0.305052 -23.1737 100.952
      vertex 0.152526 -98.1737 60.4762
    endloop
  endfacet
  facet normal 0.258027 -0.459256 0.850003
    outer loop
      vertex 0.305052 -23.1737 100.952
      vertex 0.275796 -23.1737 100.961
      vertex 0.152526 -98.1737 60.4762
    endloop
  endfacet
  facet normal 0.258027 -0.459256 0.850003
    outer loop
      vertex 0.152526 -98.1737 60.4762
      vertex 0.275796 -23.1737 100.961
      vertex 0.137898 -98.1737 60.4806
    endloop
  endfacet
  facet normal 0.231487 -0.462401 0.85592
    outer loop
      vertex 0.275796 -23.1737 100.961
      vertex 0.246154 -23.1737 100.969
      vertex 0.137898 -98.1737 60.4806
    endloop
  endfacet
  facet normal 0.231283 -0.462424 0.855963
    outer loop
      vertex 0.137898 -98.1737 60.4806
      vertex 0.246154 -23.1737 100.969
      vertex 0.123077 -98.1737 60.4846
    endloop
  endfacet
  facet normal 0.204548 -0.465226 0.861235
    outer loop
      vertex 0.246154 -23.1737 100.969
      vertex 0.216164 -23.1737 100.976
      vertex 0.123077 -98.1737 60.4846
    endloop
  endfacet
  facet normal 0.204753 -0.465206 0.861197
    outer loop
      vertex 0.123077 -98.1737 60.4846
      vertex 0.216164 -23.1737 100.976
      vertex 0.108082 -98.1737 60.4882
    endloop
  endfacet
  facet normal 0.177789 -0.467672 0.865837
    outer loop
      vertex 0.216164 -23.1737 100.976
      vertex 0.185866 -23.1737 100.983
      vertex 0.108082 -98.1737 60.4882
    endloop
  endfacet
  facet normal 0.177582 -0.467689 0.86587
    outer loop
      vertex 0.108082 -98.1737 60.4882
      vertex 0.185866 -23.1737 100.983
      vertex 0.0929332 -98.1737 60.4913
    endloop
  endfacet
  facet normal 0.150548 -0.4698 0.869841
    outer loop
      vertex 0.185866 -23.1737 100.983
      vertex 0.155302 -23.1737 100.988
      vertex 0.0929332 -98.1737 60.4913
    endloop
  endfacet
  facet normal 0.150755 -0.469785 0.869813
    outer loop
      vertex 0.0929332 -98.1737 60.4913
      vertex 0.155302 -23.1737 100.988
      vertex 0.0776511 -98.1737 60.4939
    endloop
  endfacet
  facet normal 0.123398 -0.471562 0.873157
    outer loop
      vertex 0.155302 -23.1737 100.988
      vertex 0.124514 -23.1737 100.992
      vertex 0.0776511 -98.1737 60.4939
    endloop
  endfacet
  facet normal 0.123398 -0.471562 0.873157
    outer loop
      vertex 0.0776511 -98.1737 60.4939
      vertex 0.124514 -23.1737 100.992
      vertex 0.0622568 -98.1737 60.4961
    endloop
  endfacet
  facet normal 0.0960816 -0.472977 0.87582
    outer loop
      vertex 0.124514 -23.1737 100.992
      vertex 0.0935445 -23.1737 100.996
      vertex 0.0622568 -98.1737 60.4961
    endloop
  endfacet
  facet normal 0.0960816 -0.472977 0.87582
    outer loop
      vertex 0.0622568 -98.1737 60.4961
      vertex 0.0935445 -23.1737 100.996
      vertex 0.0467722 -98.1737 60.4978
    endloop
  endfacet
  facet normal 0.0687551 -0.474038 0.877816
    outer loop
      vertex 0.0935445 -23.1737 100.996
      vertex 0.062439 -23.1737 100.998
      vertex 0.0467722 -98.1737 60.4978
    endloop
  endfacet
  facet normal 0.0685459 -0.474045 0.877829
    outer loop
      vertex 0.0467722 -98.1737 60.4978
      vertex 0.062439 -23.1737 100.998
      vertex 0.0312195 -98.1737 60.499
    endloop
  endfacet
  facet normal 0.0411533 -0.474751 0.879158
    outer loop
      vertex 0.062439 -23.1737 100.998
      vertex 0.0312424 -23.1737 101
      vertex 0.0312195 -98.1737 60.499
    endloop
  endfacet
  facet normal 0.0413629 -0.474747 0.87915
    outer loop
      vertex 0.0312195 -98.1737 60.499
      vertex 0.0312424 -23.1737 101
      vertex 0.0156212 -98.1737 60.4998
    endloop
  endfacet
  facet normal 0.0138479 -0.475103 0.879821
    outer loop
      vertex 0.0312424 -23.1737 101
      vertex 2.53161e-14 -23.1737 101
      vertex 0.0156212 -98.1737 60.4998
    endloop
  endfacet
  facet normal 0.0136381 -0.475105 0.879824
    outer loop
      vertex 0.0156212 -98.1737 60.4998
      vertex 2.53161e-14 -23.1737 101
      vertex -8.83625e-15 -98.1737 60.5
    endloop
  endfacet
  facet normal -0.0138479 -0.475103 0.879821
    outer loop
      vertex 2.53161e-14 -23.1737 101
      vertex -0.0312424 -23.1737 101
      vertex -8.83625e-15 -98.1737 60.5
    endloop
  endfacet
  facet normal -0.0136381 -0.475105 0.879824
    outer loop
      vertex -8.83625e-15 -98.1737 60.5
      vertex -0.0312424 -23.1737 101
      vertex -0.0156212 -98.1737 60.4998
    endloop
  endfacet
  facet normal -0.0411533 -0.474751 0.879158
    outer loop
      vertex -0.0312424 -23.1737 101
      vertex -0.062439 -23.1737 100.998
      vertex -0.0156212 -98.1737 60.4998
    endloop
  endfacet
  facet normal -0.0413629 -0.474747 0.87915
    outer loop
      vertex -0.0156212 -98.1737 60.4998
      vertex -0.062439 -23.1737 100.998
      vertex -0.0312195 -98.1737 60.499
    endloop
  endfacet
  facet normal -0.0687551 -0.474038 0.877816
    outer loop
      vertex -0.062439 -23.1737 100.998
      vertex -0.0935445 -23.1737 100.996
      vertex -0.0312195 -98.1737 60.499
    endloop
  endfacet
  facet normal -0.0685459 -0.474045 0.877829
    outer loop
      vertex -0.0312195 -98.1737 60.499
      vertex -0.0935445 -23.1737 100.996
      vertex -0.0467722 -98.1737 60.4978
    endloop
  endfacet
  facet normal -0.0960816 -0.472977 0.87582
    outer loop
      vertex -0.0935445 -23.1737 100.996
      vertex -0.124514 -23.1737 100.992
      vertex -0.0467722 -98.1737 60.4978
    endloop
  endfacet
  facet normal -0.0960816 -0.472977 0.87582
    outer loop
      vertex -0.0467722 -98.1737 60.4978
      vertex -0.124514 -23.1737 100.992
      vertex -0.0622568 -98.1737 60.4961
    endloop
  endfacet
  facet normal -0.123398 -0.471562 0.873157
    outer loop
      vertex -0.124514 -23.1737 100.992
      vertex -0.155302 -23.1737 100.988
      vertex -0.0622568 -98.1737 60.4961
    endloop
  endfacet
  facet normal -0.123398 -0.471562 0.873157
    outer loop
      vertex -0.0622568 -98.1737 60.4961
      vertex -0.155302 -23.1737 100.988
      vertex -0.0776511 -98.1737 60.4939
    endloop
  endfacet
  facet normal -0.150548 -0.4698 0.869841
    outer loop
      vertex -0.155302 -23.1737 100.988
      vertex -0.185866 -23.1737 100.983
      vertex -0.0776511 -98.1737 60.4939
    endloop
  endfacet
  facet normal -0.150755 -0.469785 0.869813
    outer loop
      vertex -0.0776511 -98.1737 60.4939
      vertex -0.185866 -23.1737 100.983
      vertex -0.0929332 -98.1737 60.4913
    endloop
  endfacet
  facet normal -0.177789 -0.467672 0.865837
    outer loop
      vertex -0.185866 -23.1737 100.983
      vertex -0.216164 -23.1737 100.976
      vertex -0.0929332 -98.1737 60.4913
    endloop
  endfacet
  facet normal -0.177582 -0.467689 0.86587
    outer loop
      vertex -0.0929332 -98.1737 60.4913
      vertex -0.216164 -23.1737 100.976
      vertex -0.108082 -98.1737 60.4882
    endloop
  endfacet
  facet normal -0.204548 -0.465226 0.861235
    outer loop
      vertex -0.216164 -23.1737 100.976
      vertex -0.246154 -23.1737 100.969
      vertex -0.108082 -98.1737 60.4882
    endloop
  endfacet
  facet normal -0.204753 -0.465206 0.861197
    outer loop
      vertex -0.108082 -98.1737 60.4882
      vertex -0.246154 -23.1737 100.969
      vertex -0.123077 -98.1737 60.4846
    endloop
  endfacet
  facet normal -0.231487 -0.462401 0.85592
    outer loop
      vertex -0.246154 -23.1737 100.969
      vertex -0.275796 -23.1737 100.961
      vertex -0.123077 -98.1737 60.4846
    endloop
  endfacet
  facet normal -0.231283 -0.462424 0.855963
    outer loop
      vertex -0.123077 -98.1737 60.4846
      vertex -0.275796 -23.1737 100.961
      vertex -0.137898 -98.1737 60.4806
    endloop
  endfacet
  facet normal -0.258027 -0.459256 0.850003
    outer loop
      vertex -0.275796 -23.1737 100.961
      vertex -0.305052 -23.1737 100.952
      vertex -0.137898 -98.1737 60.4806
    endloop
  endfacet
  facet normal -0.258027 -0.459256 0.850003
    outer loop
      vertex -0.137898 -98.1737 60.4806
      vertex -0.305052 -23.1737 100.952
      vertex -0.152526 -98.1737 60.4762
    endloop
  endfacet
  facet normal -0.28441 -0.455767 0.843438
    outer loop
      vertex -0.305052 -23.1737 100.952
      vertex -0.333887 -23.1737 100.943
      vertex -0.152526 -98.1737 60.4762
    endloop
  endfacet
  facet normal -0.28441 -0.455767 0.843438
    outer loop
      vertex -0.152526 -98.1737 60.4762
      vertex -0.333887 -23.1737 100.943
      vertex -0.166943 -98.1737 60.4713
    endloop
  endfacet
  facet normal -0.310464 -0.451957 0.83627
    outer loop
      vertex -0.333887 -23.1737 100.943
      vertex -0.362264 -23.1737 100.932
      vertex -0.166943 -98.1737 60.4713
    endloop
  endfacet
  facet normal -0.310663 -0.451926 0.836212
    outer loop
      vertex -0.166943 -98.1737 60.4713
      vertex -0.362264 -23.1737 100.932
      vertex -0.181132 -98.1737 60.466
    endloop
  endfacet
  facet normal -0.336412 -0.447793 0.828437
    outer loop
      vertex -0.362264 -23.1737 100.932
      vertex -0.390152 -23.1737 100.921
      vertex -0.181132 -98.1737 60.466
    endloop
  endfacet
  facet normal -0.336412 -0.447793 0.828437
    outer loop
      vertex -0.181132 -98.1737 60.466
      vertex -0.390152 -23.1737 100.921
      vertex -0.195076 -98.1737 60.4604
    endloop
  endfacet
  facet normal -0.362074 -0.443303 0.81999
    outer loop
      vertex -0.390152 -23.1737 100.921
      vertex -0.417521 -23.1737 100.909
      vertex -0.195076 -98.1737 60.4604
    endloop
  endfacet
  facet normal -0.36188 -0.443339 0.820057
    outer loop
      vertex -0.195076 -98.1737 60.4604
      vertex -0.417521 -23.1737 100.909
      vertex -0.20876 -98.1737 60.4543
    endloop
  endfacet
  facet normal -0.387273 -0.438523 0.810998
    outer loop
      vertex -0.417521 -23.1737 100.909
      vertex -0.444342 -23.1737 100.896
      vertex -0.20876 -98.1737 60.4543
    endloop
  endfacet
  facet normal -0.387464 -0.438485 0.810927
    outer loop
      vertex -0.20876 -98.1737 60.4543
      vertex -0.444342 -23.1737 100.896
      vertex -0.222171 -98.1737 60.4479
    endloop
  endfacet
  facet normal -0.4124 -0.433377 0.801318
    outer loop
      vertex -0.444342 -23.1737 100.896
      vertex -0.470588 -23.1737 100.882
      vertex -0.222171 -98.1737 60.4479
    endloop
  endfacet
  facet normal -0.412212 -0.433417 0.801393
    outer loop
      vertex -0.222171 -98.1737 60.4479
      vertex -0.470588 -23.1737 100.882
      vertex -0.235294 -98.1737 60.4412
    endloop
  endfacet
  facet normal -0.436892 -0.427984 0.791173
    outer loop
      vertex -0.470588 -23.1737 100.882
      vertex -0.496237 -23.1737 100.868
      vertex -0.235294 -98.1737 60.4412
    endloop
  endfacet
  facet normal -0.437078 -0.427941 0.791094
    outer loop
      vertex -0.235294 -98.1737 60.4412
      vertex -0.496237 -23.1737 100.868
      vertex -0.248119 -98.1737 60.4341
    endloop
  endfacet
  facet normal -0.461311 -0.422221 0.780334
    outer loop
      vertex -0.496237 -23.1737 100.868
      vertex -0.521267 -23.1737 100.853
      vertex -0.248119 -98.1737 60.4341
    endloop
  endfacet
  facet normal -0.461128 -0.422266 0.780418
    outer loop
      vertex -0.248119 -98.1737 60.4341
      vertex -0.521267 -23.1737 100.853
      vertex -0.260633 -98.1737 60.4267
    endloop
  endfacet
  facet normal -0.485095 -0.416223 0.769053
    outer loop
      vertex -0.521267 -23.1737 100.853
      vertex -0.545659 -23.1737 100.838
      vertex -0.260633 -98.1737 60.4267
    endloop
  endfacet
  facet normal -0.485095 -0.416223 0.769053
    outer loop
      vertex -0.260633 -98.1737 60.4267
      vertex -0.545659 -23.1737 100.838
      vertex -0.272829 -98.1737 60.419
    endloop
  endfacet
  facet normal -0.508603 -0.409903 0.757167
    outer loop
      vertex -0.545659 -23.1737 100.838
      vertex -0.569395 -23.1737 100.822
      vertex -0.272829 -98.1737 60.419
    endloop
  endfacet
  facet normal -0.508603 -0.409903 0.757167
    outer loop
      vertex -0.272829 -98.1737 60.419
      vertex -0.569395 -23.1737 100.822
      vertex -0.284698 -98.1737 60.411
    endloop
  endfacet
  facet normal -0.531642 -0.403315 0.744778
    outer loop
      vertex -0.569395 -23.1737 100.822
      vertex -0.592462 -23.1737 100.806
      vertex -0.284698 -98.1737 60.411
    endloop
  endfacet
  facet normal -0.531642 -0.403315 0.744778
    outer loop
      vertex -0.284698 -98.1737 60.411
      vertex -0.592462 -23.1737 100.806
      vertex -0.296231 -98.1737 60.4028
    endloop
  endfacet
  facet normal -0.554196 -0.396467 0.731902
    outer loop
      vertex -0.592462 -23.1737 100.806
      vertex -0.614847 -23.1737 100.789
      vertex -0.296231 -98.1737 60.4028
    endloop
  endfacet
  facet normal -0.554196 -0.396467 0.731902
    outer loop
      vertex -0.296231 -98.1737 60.4028
      vertex -0.614847 -23.1737 100.789
      vertex -0.307424 -98.1737 60.3943
    endloop
  endfacet
  facet normal -0.576416 -0.389316 0.718455
    outer loop
      vertex -0.614847 -23.1737 100.789
      vertex -0.636541 -23.1737 100.771
      vertex -0.307424 -98.1737 60.3943
    endloop
  endfacet
  facet normal -0.576416 -0.389316 0.718455
    outer loop
      vertex -0.307424 -98.1737 60.3943
      vertex -0.636541 -23.1737 100.771
      vertex -0.31827 -98.1737 60.3856
    endloop
  endfacet
  facet normal -0.597947 -0.381981 0.704663
    outer loop
      vertex -0.636541 -23.1737 100.771
      vertex -0.657534 -23.1737 100.753
      vertex -0.31827 -98.1737 60.3856
    endloop
  endfacet
  facet normal -0.598107 -0.381925 0.704558
    outer loop
      vertex -0.31827 -98.1737 60.3856
      vertex -0.657534 -23.1737 100.753
      vertex -0.328767 -98.1737 60.3767
    endloop
  endfacet
  facet normal -0.619249 -0.374307 0.690235
    outer loop
      vertex -0.657534 -23.1737 100.753
      vertex -0.677823 -23.1737 100.735
      vertex -0.328767 -98.1737 60.3767
    endloop
  endfacet
  facet normal -0.619093 -0.374365 0.690344
    outer loop
      vertex -0.328767 -98.1737 60.3767
      vertex -0.677823 -23.1737 100.735
      vertex -0.338911 -98.1737 60.3676
    endloop
  endfacet
  facet normal -0.639823 -0.366477 0.675516
    outer loop
      vertex -0.677823 -23.1737 100.735
      vertex -0.697402 -23.1737 100.717
      vertex -0.338911 -98.1737 60.3676
    endloop
  endfacet
  facet normal -0.639823 -0.366477 0.675516
    outer loop
      vertex -0.338911 -98.1737 60.3676
      vertex -0.697402 -23.1737 100.717
      vertex -0.348701 -98.1737 60.3583
    endloop
  endfacet
  facet normal -0.659951 -0.358393 0.660318
    outer loop
      vertex -0.697402 -23.1737 100.717
      vertex -0.716269 -23.1737 100.698
      vertex -0.348701 -98.1737 60.3583
    endloop
  endfacet
  facet normal -0.659951 -0.358393 0.660318
    outer loop
      vertex -0.348701 -98.1737 60.3583
      vertex -0.716269 -23.1737 100.698
      vertex -0.358135 -98.1737 60.3489
    endloop
  endfacet
  facet normal -0.679455 -0.35013 0.644786
    outer loop
      vertex -0.716269 -23.1737 100.698
      vertex -0.734426 -23.1737 100.679
      vertex -0.358135 -98.1737 60.3489
    endloop
  endfacet
  facet normal -0.679597 -0.350068 0.64467
    outer loop
      vertex -0.358135 -98.1737 60.3489
      vertex -0.734426 -23.1737 100.679
      vertex -0.367213 -98.1737 60.3393
    endloop
  endfacet
  facet normal -0.698457 -0.341645 0.628837
    outer loop
      vertex -0.734426 -23.1737 100.679
      vertex -0.751874 -23.1737 100.659
      vertex -0.367213 -98.1737 60.3393
    endloop
  endfacet
  facet normal -0.698457 -0.341645 0.628837
    outer loop
      vertex -0.367213 -98.1737 60.3393
      vertex -0.751874 -23.1737 100.659
      vertex -0.375937 -98.1737 60.3297
    endloop
  endfacet
  facet normal -0.717051 -0.332893 0.612389
    outer loop
      vertex -0.751874 -23.1737 100.659
      vertex -0.768615 -23.1737 100.64
      vertex -0.375937 -98.1737 60.3297
    endloop
  endfacet
  facet normal -0.716918 -0.332957 0.612509
    outer loop
      vertex -0.375937 -98.1737 60.3297
      vertex -0.768615 -23.1737 100.64
      vertex -0.384307 -98.1737 60.3199
    endloop
  endfacet
  facet normal -0.743393 -0.319661 0.587523
    outer loop
      vertex -0.768615 -23.1737 100.64
      vertex -0.8 -23.1737 100.6
      vertex -0.384307 -98.1737 60.3199
    endloop
  endfacet
  facet normal -0.743393 -0.319661 0.587523
    outer loop
      vertex -0.384307 -98.1737 60.3199
      vertex -0.8 -23.1737 100.6
      vertex -0.4 -98.1737 60.3
    endloop
  endfacet
  facet normal -0.776683 -0.301356 0.553126
    outer loop
      vertex -0.8 -23.1737 100.6
      vertex -0.828637 -23.1737 100.56
      vertex -0.4 -98.1737 60.3
    endloop
  endfacet
  facet normal -0.776683 -0.301356 0.553126
    outer loop
      vertex -0.4 -98.1737 60.3
      vertex -0.828637 -23.1737 100.56
      vertex -0.414318 -98.1737 60.2799
    endloop
  endfacet
  facet normal -0.807586 -0.282494 0.517689
    outer loop
      vertex -0.828637 -23.1737 100.56
      vertex -0.854599 -23.1737 100.519
      vertex -0.414318 -98.1737 60.2799
    endloop
  endfacet
  facet normal -0.807586 -0.282494 0.517689
    outer loop
      vertex -0.414318 -98.1737 60.2799
      vertex -0.854599 -23.1737 100.519
      vertex -0.4273 -98.1737 60.2596
    endloop
  endfacet
  facet normal -0.835938 -0.263262 0.481561
    outer loop
      vertex -0.854599 -23.1737 100.519
      vertex -0.877978 -23.1737 100.479
      vertex -0.4273 -98.1737 60.2596
    endloop
  endfacet
  facet normal -0.835984 -0.263229 0.481499
    outer loop
      vertex -0.4273 -98.1737 60.2596
      vertex -0.877978 -23.1737 100.479
      vertex -0.438989 -98.1737 60.2393
    endloop
  endfacet
  facet normal -0.861891 -0.243649 0.444722
    outer loop
      vertex -0.877978 -23.1737 100.479
      vertex -0.898876 -23.1737 100.438
      vertex -0.438989 -98.1737 60.2393
    endloop
  endfacet
  facet normal -0.861851 -0.243682 0.444783
    outer loop
      vertex -0.438989 -98.1737 60.2393
      vertex -0.898876 -23.1737 100.438
      vertex -0.449438 -98.1737 60.2191
    endloop
  endfacet
  facet normal -0.8853 -0.223873 0.407583
    outer loop
      vertex -0.898876 -23.1737 100.438
      vertex -0.917406 -23.1737 100.398
      vertex -0.449438 -98.1737 60.2191
    endloop
  endfacet
  facet normal -0.8853 -0.223873 0.407583
    outer loop
      vertex -0.449438 -98.1737 60.2191
      vertex -0.917406 -23.1737 100.398
      vertex -0.458703 -98.1737 60.199
    endloop
  endfacet
  facet normal -0.906298 -0.203951 0.370173
    outer loop
      vertex -0.917406 -23.1737 100.398
      vertex -0.933687 -23.1737 100.358
      vertex -0.458703 -98.1737 60.199
    endloop
  endfacet
  facet normal -0.906328 -0.20392 0.370116
    outer loop
      vertex -0.458703 -98.1737 60.199
      vertex -0.933687 -23.1737 100.358
      vertex -0.466844 -98.1737 60.179
    endloop
  endfacet
  facet normal -0.924911 -0.18399 0.332696
    outer loop
      vertex -0.933687 -23.1737 100.358
      vertex -0.947843 -23.1737 100.319
      vertex -0.466844 -98.1737 60.179
    endloop
  endfacet
  facet normal -0.924886 -0.184018 0.33275
    outer loop
      vertex -0.466844 -98.1737 60.179
      vertex -0.947843 -23.1737 100.319
      vertex -0.473921 -98.1737 60.1594
    endloop
  endfacet
  facet normal -0.941177 -0.164114 0.295386
    outer loop
      vertex -0.947843 -23.1737 100.319
      vertex -0.96 -23.1737 100.28
      vertex -0.473921 -98.1737 60.1594
    endloop
  endfacet
  facet normal -0.941197 -0.164087 0.295336
    outer loop
      vertex -0.473921 -98.1737 60.1594
      vertex -0.96 -23.1737 100.28
      vertex -0.48 -98.1737 60.14
    endloop
  endfacet
  facet normal -0.955219 -0.144355 0.2583
    outer loop
      vertex -0.96 -23.1737 100.28
      vertex -0.970285 -23.1737 100.242
      vertex -0.48 -98.1737 60.14
    endloop
  endfacet
  facet normal -0.955219 -0.144355 0.2583
    outer loop
      vertex -0.48 -98.1737 60.14
      vertex -0.970285 -23.1737 100.242
      vertex -0.485143 -98.1737 60.121
    endloop
  endfacet
  facet normal -0.967112 -0.124811 0.221621
    outer loop
      vertex -0.970285 -23.1737 100.242
      vertex -0.978824 -23.1737 100.205
      vertex -0.485143 -98.1737 60.121
    endloop
  endfacet
  facet normal -0.9671 -0.124833 0.221662
    outer loop
      vertex -0.485143 -98.1737 60.121
      vertex -0.978824 -23.1737 100.205
      vertex -0.489412 -98.1737 60.1024
    endloop
  endfacet
  facet normal -0.976965 -0.105545 0.18547
    outer loop
      vertex -0.978824 -23.1737 100.205
      vertex -0.985739 -23.1737 100.168
      vertex -0.489412 -98.1737 60.1024
    endloop
  endfacet
  facet normal -0.976965 -0.105545 0.18547
    outer loop
      vertex -0.489412 -98.1737 60.1024
      vertex -0.985739 -23.1737 100.168
      vertex -0.492869 -98.1737 60.0841
    endloop
  endfacet
  facet normal -0.984888 -0.0866257 0.149972
    outer loop
      vertex -0.985739 -23.1737 100.168
      vertex -0.99115 -23.1737 100.133
      vertex -0.492869 -98.1737 60.0841
    endloop
  endfacet
  facet normal -0.984888 -0.0866257 0.149972
    outer loop
      vertex -0.492869 -98.1737 60.0841
      vertex -0.99115 -23.1737 100.133
      vertex -0.495575 -98.1737 60.0664
    endloop
  endfacet
  facet normal -0.991006 -0.0680903 0.1152
    outer loop
      vertex -0.99115 -23.1737 100.133
      vertex -0.995174 -23.1737 100.098
      vertex -0.495575 -98.1737 60.0664
    endloop
  endfacet
  facet normal -0.99101 -0.0680774 0.115176
    outer loop
      vertex -0.495575 -98.1737 60.0664
      vertex -0.995174 -23.1737 100.098
      vertex -0.497587 -98.1737 60.0491
    endloop
  endfacet
  facet normal -0.995446 -0.0499586 0.0811897
    outer loop
      vertex -0.995174 -23.1737 100.098
      vertex -0.997921 -23.1737 100.064
      vertex -0.497587 -98.1737 60.0491
    endloop
  endfacet
  facet normal -0.995444 -0.049968 0.0812075
    outer loop
      vertex -0.497587 -98.1737 60.0491
      vertex -0.997921 -23.1737 100.064
      vertex -0.49896 -98.1737 60.0322
    endloop
  endfacet
  facet normal -0.998321 -0.0323044 0.048079
    outer loop
      vertex -0.997921 -23.1737 100.064
      vertex -0.999496 -23.1737 100.032
      vertex -0.49896 -98.1737 60.0322
    endloop
  endfacet
  facet normal -0.998322 -0.0322986 0.0480681
    outer loop
      vertex -0.49896 -98.1737 60.0322
      vertex -0.999496 -23.1737 100.032
      vertex -0.499748 -98.1737 60.0159
    endloop
  endfacet
  facet normal -0.99976 -0.0151294 0.0158706
    outer loop
      vertex -0.999496 -23.1737 100.032
      vertex -1 -23.1737 100
      vertex -0.499748 -98.1737 60.0159
    endloop
  endfacet
  facet normal -0.99976 -0.0151294 0.0158706
    outer loop
      vertex -0.499748 -98.1737 60.0159
      vertex -1 -23.1737 100
      vertex -0.5 -98.1737 60
    endloop
  endfacet
  facet normal 0 0 -1
    outer loop
      vertex 1 -22.9737 55.2
      vertex 1 -23.1737 55.2
      vertex -1 -22.9737 55.2
    endloop
  endfacet
  facet normal 0 0 -1
    outer loop
      vertex 1 -23.1737 55.2
      vertex -1 -23.1737 55.2
      vertex -1 -22.9737 55.2
    endloop
  endfacet
  facet normal 0 -1 0
    outer loop
      vertex 1 -22.9737 55
      vertex 1 -22.9737 55.2
      vertex -1 -22.9737 55
    endloop
  endfacet
  facet normal 0 -1 0
    outer loop
      vertex 1 -22.9737 55.2
      vertex -1 -22.9737 55.2
      vertex -1 -22.9737 55
    endloop
  endfacet
  facet normal -0.999978 -0.00666652 0
    outer loop
      vertex -0.5 -98.1737 36
      vertex -0.5 -98.1737 40
      vertex -1 -23.1737 32
    endloop
  endfacet
  facet normal -0.999978 -0.00666652 0
    outer loop
      vertex -0.5 -98.1737 40
      vertex -1 -23.1737 40
      vertex -1 -23.1737 32
    endloop
  endfacet
  facet normal 0 0 -1
    outer loop
      vertex 1 -21.4718 55
      vertex 1 -22.9737 55
      vertex -1 -21.4718 55
    endloop
  endfacet
  facet normal 0 0 -1
    outer loop
      vertex 1 -22.9737 55
      vertex -1 -22.9737 55
      vertex -1 -21.4718 55
    endloop
  endfacet
  facet normal 0.999978 -0.00666652 0
    outer loop
      vertex 1 -23.1737 74.8
      vertex 1 -23.1737 100
      vertex 0.5 -98.1737 60
    endloop
  endfacet
  facet normal 0.999978 -0.00666652 0
    outer loop
      vertex 1 -23.1737 74.8
      vertex 0.5 -98.1737 60
      vertex 1 -23.1737 55.2
    endloop
  endfacet
  facet normal 0.999978 -0.00666652 0
    outer loop
      vertex 0.5 -98.1737 60
      vertex 0.5 -98.1737 40
      vertex 1 -23.1737 55.2
    endloop
  endfacet
  facet normal 0.999978 -0.00666652 0
    outer loop
      vertex 1 -23.1737 55.2
      vertex 0.5 -98.1737 40
      vertex 1 -23.1737 40
    endloop
  endfacet
endsolid Mesh
