<svg xmlns="http://www.w3.org/2000/svg" width="1140" height="600" font-family="sans-serif" font-size="13"><rect width="1140" height="600" fill="white"/><text x="20" y="26" font-size="15" fill="#333">TMS-7 F15 — corner_stress</text><rect x="20" y="40" width="540" height="540" fill="#fbfbfb" stroke="#ddd"/><rect x="148" y="256" width="382" height="82" fill="#cde" stroke="#369" opacity="0.7"/><text x="148" y="251" fill="#369" font-size="12">landing zone</text><circle cx="390" cy="384" r="5" fill="black"/><text x="398" y="388" font-size="12">pad</text><path d="M389.8,384.4 L389.8,384.4 L389.8,384.4 L389.8,384.4 L389.8,384.4 L389.8,384.4 L389.8,384.4 L389.8,384.4 L389.8,384.4 L389.8,384.4 L389.8,384.4 L389.8,384.4 L389.8,384.4 L389.8,384.4 L389.8,384.4 L389.8,384.4 L389.8,384.4 L389.8,384.4 L389.8,384.4 L389.8,384.4 L389.8,384.4 L389.8,384.4 L389.8,384.4 L389.8,384.4 L389.8,384.4 L389.8,384.4 L389.8,384.4 L389.8,384.4 L389.8,384.4 L389.8,384.4 L389.8,384.4 L389.8,384.4 L389.8,384.4 L389.8,384.4 L389.8,384.4 L389.8,384.4 L389.8,384.4 L389.8,384.4 L389.8,384.4 L389.8,384.4 L389.8,384.4 L389.8,384.4 L389.8,384.4 L389.8,384.4 L389.8,384.4 L389.8,384.4 L389.8,384.4 L389.8,384.4 L389.8,384.4 L389.8,384.4 L389.8,384.4 L389.8,384.4 L389.8,384.4 L389.8,384.4 L389.8,384.4 L389.8,384.4 L389.8,384.4 L389.8,384.4 L389.8,384.4 L389.8,384.4 L389.8,384.4 L389.8,384.4 L389.8,384.4 L389.8,384.4 L389.8,384.4 L389.8,384.4 L389.8,384.4 L389.8,384.4 L389.8,384.4 L389.8,384.4 L389.8,384.4 L389.8,384.4 L389.8,384.4 L389.8,384.4 L390.0,384.2 L390.2,383.7 L390.4,383.3 L390.8,383.0 L391.2,382.6 L391.4,382.4 L392.0,381.9 L392.4,381.7 L392.8,381.5 L393.4,381.2 L394.1,381.0 L394.7,381.0 L395.3,380.8 L396.1,380.5 L396.7,380.5 L397.5,380.5 L398.2,380.3 L399.0,380.3 L399.8,380.3 L400.6,380.3 L401.6,380.3 L402.5,380.3 L403.3,380.5 L404.1,380.5 L405.1,380.5 L406.0,380.5 L407.0,380.8 L407.8,380.8 L408.8,381.0 L409.6,381.0 L410.7,381.2 L411.7,381.2 L412.7,381.5 L413.5,381.7 L414.6,381.7 L415.6,381.9 L416.6,382.1 L417.6,382.4 L418.7,382.6 L419.7,382.6 L420.7,382.8 L421.7,383.0 L422.8,383.3 L423.8,383.5 L425.0,383.7 L426.0,384.0 L427.1,384.2 L428.1,384.4 L429.1,384.6 L430.1,384.9 L431.2,385.1 L432.4,385.3 L433.4,385.8 L434.7,386.0 L435.7,386.2 L436.7,386.5 L437.9,386.9 L439.0,387.1 L440.2,387.4 L441.2,387.6 L442.2,388.0 L443.5,388.3 L444.5,388.5 L445.5,388.7 L446.5,389.0 L447.6,389.2 L448.8,389.4 L449.8,389.6 L450.9,389.9 L451.9,390.1 L452.9,390.3 L453.9,390.5 L455.0,390.8 L456.0,390.8 L457.0,391.0 L458.0,391.2 L459.1,391.5 L460.1,391.7 L461.1,391.9 L462.1,392.1 L463.2,392.1 L464.2,392.4 L465.2,392.6 L466.2,392.6 L467.1,392.8 L468.1,392.8 L468.9,393.0 L469.9,393.0 L470.7,393.0 L471.6,393.0 L472.4,393.0 L473.4,393.3 L474.2,393.3 L475.0,393.3 L475.9,393.3 L476.7,393.0 L477.3,393.0 L478.1,393.0 L478.9,393.0 L479.6,392.8 L480.4,392.8 L481.0,392.6 L481.8,392.6 L482.4,392.6 L483.0,392.4 L483.9,392.1 L484.5,392.1 L485.1,391.9 L485.7,391.7 L486.3,391.7 L486.9,391.5 L487.6,391.2 L488.2,391.0 L488.6,390.8 L489.2,390.5 L489.6,390.1 L490.0,389.9 L490.4,389.6 L490.8,389.2 L491.2,389.0 L491.7,388.5 L491.9,388.0 L492.3,387.8 L492.5,387.4 L492.7,386.9 L493.1,386.5 L493.3,386.2 L493.5,385.8 L493.9,385.3 L494.1,384.9 L494.3,384.4 L494.5,384.0 L494.7,383.5 L494.9,383.0 L495.1,382.6 L495.3,382.1 L495.6,381.7 L495.8,381.2 L496.0,380.8 L496.2,380.3 L496.2,379.9 L496.4,379.4 L496.6,379.0 L496.6,378.5 L496.8,377.8 L496.8,377.4 L496.8,376.9 L497.0,376.5 L497.0,375.8 L497.0,375.3 L497.0,374.6 L497.0,374.2 L497.0,373.7 L496.8,373.0 L496.8,372.4 L496.6,371.9 L496.6,371.2 L496.4,370.5 L496.2,370.1 L496.2,369.4 L496.0,368.7 L495.6,368.0 L495.3,367.4 L495.1,366.7 L494.9,366.0 L494.5,365.3 L494.3,364.6 L494.1,364.2 L493.7,363.5 L493.5,362.8 L493.3,362.1 L493.1,361.5 L492.9,360.8 L492.7,360.1 L492.5,359.4 L492.3,359.0 L492.1,358.3 L491.9,357.6 L491.5,356.9 L491.2,356.2 L491.2,355.6 L491.0,355.1 L490.8,354.4 L490.6,353.7 L490.4,353.1 L490.4,352.6 L490.2,351.9 L490.0,351.2 L490.0,350.8 L489.8,350.1 L489.8,349.4 L489.6,349.0 L489.4,348.3 L489.4,347.6 L489.2,347.1 L489.2,346.5 L489.2,346.0 L489.2,345.3 L489.4,344.9 L489.4,344.4 L489.4,344.0 L489.6,343.5 L489.6,343.1 L489.8,342.8 L490.0,342.4 L490.2,341.9 L490.2,341.7 L490.4,341.2 L490.6,340.8 L490.8,340.6 L491.2,340.1 L491.5,339.9 L491.7,339.6 L491.9,339.2 L492.1,339.0 L492.5,338.5 L492.7,338.3 L492.9,338.1 L493.3,337.6 L493.5,337.4 L493.7,336.9 L493.9,336.7 L494.1,336.2 L494.3,335.8 L494.3,335.6 L494.3,335.1 L494.3,334.7 L494.3,334.0 L494.1,333.5 L493.9,333.1 L493.7,332.4 L493.5,331.9 L493.3,331.2 L492.9,330.8 L492.5,330.1 L492.1,329.4 L491.5,328.7 L491.0,328.1 L490.4,327.4 L489.6,326.9 L489.0,326.0 L488.4,325.3 L487.6,324.7 L486.7,324.0 L485.7,323.3 L484.9,322.6 L483.9,321.9 L482.8,321.2 L481.8,320.3 L480.6,319.7 L479.4,319.0 L478.1,318.3 L476.9,317.4 L475.7,316.7 L474.2,316.0 L472.8,315.3 L471.4,314.4 L470.1,313.7 L468.5,313.1 L467.1,312.4 L465.6,311.7 L464.2,310.8 L462.5,310.1 L460.9,309.4 L459.5,308.8 L457.8,308.1 L456.2,307.4 L454.5,306.7 L452.9,306.0 L451.3,305.1 L449.6,304.4 L447.8,303.8 L446.1,303.1 L444.3,302.4 L442.7,301.7 L440.8,301.0 L439.2,300.3 L437.3,299.7 L435.5,299.0 L433.6,298.3 L431.6,297.6 L429.7,297.2 L427.9,296.5 L425.8,295.8 L424.0,295.1 L421.9,294.4 L419.9,294.0 L418.0,293.3 L416.0,292.6 L413.9,291.9 L411.7,291.5 L409.6,290.8 L407.6,290.1 L405.3,289.7 L403.3,289.0 L401.0,288.5 L399.0,287.8 L396.7,287.4 L394.5,286.7 L392.2,286.3 L390.0,285.8 L387.7,285.1 L385.2,284.7 L383.0,284.2 L380.5,283.8 L378.1,283.3 L375.8,282.8 L373.3,282.2 L370.7,281.7 L368.2,281.5 L365.8,281.0 L363.1,280.6 L360.6,280.1 L358.0,279.9 L355.3,279.4 L352.6,279.0 L350.0,278.8 L347.3,278.5 L344.4,278.1 L341.8,277.9 L338.9,277.6 L336.0,277.4 L333.4,277.2 L330.5,276.9 L327.4,276.7 L324.5,276.5 L321.7,276.3 L318.8,276.3 L315.9,276.0 L313.1,275.8 L310.0,275.6 L307.1,275.4 L304.3,275.1 L301.4,274.9 L298.5,274.7 L295.8,274.4 L293.0,274.2 L290.1,274.0 L287.4,273.8 L284.6,273.5 L281.7,273.1 L279.0,272.9 L276.2,272.6 L273.5,272.4 L270.6,272.2 L268.0,271.7 L265.1,271.5 L262.2,271.3 L259.6,271.0 L256.9,270.6 L254.0,270.4 L251.3,270.1 L248.7,269.7 L246.0,269.4 L243.4,269.0 L240.7,268.8 L238.0,268.3 L235.4,268.1 L232.7,267.6 L230.0,267.2 L227.6,266.7 L224.9,266.5 L222.4,266.0 L219.8,265.6 L217.3,265.1 L214.9,264.7 L212.4,264.2 L209.9,263.8 L207.5,263.3 L205.0,262.9 L202.6,262.4 L200.3,261.9 L197.8,261.5 L195.6,260.8 L193.3,260.4 L191.1,259.9 L188.8,259.2 L186.6,258.8 L184.5,258.1 L182.3,257.6 L180.0,256.9 L177.9,256.5 L175.9,255.8 L173.8,255.1 L171.8,254.7 L169.7,254.0 L167.7,253.3 L165.4,252.9 L163.4,252.2 L161.1,251.5 L159.1,251.0 L156.8,250.4 L154.6,249.9 L152.3,249.5 L150.1,248.8 L147.6,248.3 L145.3,247.9 L142.9,247.4 L140.4,247.0 L138.2,246.5 L135.7,245.8 L133.2,245.4 L131.0,244.9 L128.5,244.5 L126.1,244.0 L123.6,243.5 L121.4,243.1 L118.9,242.6 L116.4,242.0 L114.2,241.5 L111.7,241.0 L109.3,240.6 L107.0,240.1 L104.5,239.7 L102.1,239.0 L99.8,238.5 L97.4,238.1 L95.1,237.6 L92.9,237.2 L90.4,236.5 L88.1,236.0 L85.9,235.6 L83.6,234.9 L81.4,234.5 L79.1,233.8 L76.9,233.3 L74.6,232.9 L72.3,232.2 L70.1,231.7 L67.8,231.0 L65.6,230.6 L63.3,230.1 L61.3,229.5 L59.0,229.0 L56.8,228.3 L54.5,227.9 L52.3,227.2 L50.0,226.7" fill="none" stroke="#1f77b4" stroke-width="1.7" opacity="0.85"/><circle cx="50" cy="227" r="4.5" fill="#1f77b4"/><text x="28" y="572" font-size="11" fill="#888">ground track — m from pad (N up)</text><rect x="580" y="40" width="540" height="540" fill="#fbfbfb" stroke="#ddd"/><text x="586" y="54" fill="#1f77b4" font-size="11">alt 481</text><text x="586" y="558" fill="#1f77b4" font-size="11">1</text><path d="M616.0,541.5 L616.2,543.4 L616.3,541.6 L616.5,542.2 L616.7,541.5 L616.8,543.9 L617.0,541.8 L617.2,541.2 L617.3,542.7 L617.5,543.2 L617.7,541.3 L617.8,540.9 L618.0,540.6 L618.2,542.6 L618.3,540.9 L618.5,542.0 L618.7,540.0 L618.8,542.8 L619.0,539.5 L619.2,540.7 L619.4,540.8 L619.5,539.1 L619.7,541.1 L619.9,538.4 L620.0,542.9 L620.2,540.4 L620.4,539.7 L620.5,539.0 L620.7,540.4 L620.9,536.8 L621.0,542.1 L621.2,536.6 L621.4,535.9 L621.5,538.7 L621.7,533.9 L621.9,533.1 L622.0,540.0 L622.2,537.9 L622.4,539.8 L622.5,534.1 L622.7,533.7 L622.9,533.7 L623.0,531.7 L623.2,535.0 L623.4,530.3 L623.5,533.6 L623.7,535.9 L623.9,528.4 L624.0,533.8 L624.2,538.0 L624.4,537.7 L624.5,531.9 L624.7,523.1 L624.9,534.7 L625.0,528.0 L625.2,522.3 L625.4,525.0 L625.6,522.8 L625.7,536.4 L625.9,531.4 L626.1,521.9 L626.2,520.1 L626.4,521.1 L626.6,514.1 L626.7,516.7 L626.9,520.3 L627.1,531.0 L627.2,516.0 L627.4,512.2 L627.6,531.3 L627.7,510.6 L627.9,510.1 L628.1,525.5 L628.2,508.4 L628.4,520.6 L628.6,508.7 L628.7,527.5 L628.9,523.4 L629.1,521.7 L629.2,518.1 L629.4,513.4 L629.6,513.2 L629.7,497.0 L629.9,498.3 L630.1,493.8 L630.2,519.7 L630.4,507.6 L630.6,491.8 L630.7,498.5 L630.9,487.3 L631.1,508.1 L631.2,488.0 L631.4,499.0 L631.6,518.3 L631.8,485.1 L631.9,501.8 L632.1,500.5 L632.3,519.6 L632.4,495.4 L632.6,494.5 L632.8,517.7 L632.9,511.0 L633.1,520.6 L633.3,469.3 L633.4,517.8 L633.6,471.8 L633.8,515.3 L633.9,500.9 L634.1,492.3 L634.3,480.1 L634.4,473.2 L634.6,474.6 L634.8,474.4 L634.9,466.0 L635.1,505.7 L635.3,475.8 L635.4,504.8 L635.6,468.6 L635.8,461.0 L635.9,499.1 L636.1,476.3 L636.3,465.1 L636.4,454.2 L636.6,478.5 L636.8,494.8 L636.9,503.2 L637.1,437.5 L637.3,506.6 L637.4,476.5 L637.6,457.9 L637.8,500.4 L638.0,466.5 L638.1,456.8 L638.3,480.8 L638.5,483.1 L638.6,488.5 L638.8,487.5 L639.0,434.4 L639.1,460.4 L639.3,486.2 L639.5,432.4 L639.6,453.3 L639.8,422.5 L640.0,425.8 L640.1,446.2 L640.3,414.3 L640.5,495.3 L640.6,484.8 L640.8,420.3 L641.0,465.8 L641.1,472.8 L641.3,473.7 L641.5,480.7 L641.6,458.8 L641.8,448.2 L642.0,407.7 L642.1,427.3 L642.3,410.4 L642.5,428.2 L642.6,483.7 L642.8,421.1 L643.0,398.9 L643.1,481.1 L643.3,435.4 L643.5,456.7 L643.6,365.1 L643.8,440.4 L644.0,472.0 L644.2,376.2 L644.3,397.0 L644.5,465.8 L644.7,467.5 L644.8,386.1 L645.0,377.7 L645.2,363.6 L645.3,383.3 L645.5,432.4 L645.7,391.7 L645.8,470.3 L646.0,378.2 L646.2,365.8 L646.3,387.5 L646.5,353.4 L646.7,425.3 L646.8,469.6 L647.0,325.8 L647.2,351.0 L647.3,467.5 L647.5,403.0 L647.7,444.4 L647.8,383.9 L648.0,352.9 L648.2,465.8 L648.3,318.8 L648.5,380.9 L648.7,305.4 L648.8,391.4 L649.0,462.7 L649.2,449.6 L649.3,452.4 L649.5,375.3 L649.7,453.8 L649.8,309.9 L650.0,291.2 L650.2,340.3 L650.4,452.1 L650.5,441.7 L650.7,403.0 L650.9,377.2 L651.0,385.9 L651.2,398.4 L651.4,433.4 L651.5,368.5 L651.7,347.9 L651.9,273.2 L652.0,284.0 L652.2,288.3 L652.4,372.2 L652.5,382.4 L652.7,332.3 L652.9,363.6 L653.0,317.5 L653.2,361.0 L653.4,261.8 L653.5,253.1 L653.7,294.7 L653.9,444.5 L654.0,257.4 L654.2,287.1 L654.4,288.7 L654.5,241.8 L654.7,397.8 L654.9,431.9 L655.0,237.7 L655.2,376.7 L655.4,357.8 L655.5,413.8 L655.7,433.1 L655.9,267.3 L656.0,303.4 L656.2,311.0 L656.4,377.6 L656.5,405.6 L656.7,356.1 L656.9,253.6 L657.1,326.7 L657.2,434.7 L657.4,432.7 L657.6,373.2 L657.7,399.5 L657.9,321.3 L658.1,361.1 L658.2,396.2 L658.4,390.8 L658.6,377.9 L658.7,341.6 L658.9,262.6 L659.1,375.1 L659.2,265.7 L659.4,250.3 L659.6,361.9 L659.7,356.1 L659.9,352.9 L660.1,290.0 L660.2,337.9 L660.4,266.5 L660.6,246.0 L660.7,368.7 L660.9,277.2 L661.1,398.3 L661.2,305.4 L661.4,331.1 L661.6,247.8 L661.7,347.3 L661.9,412.2 L662.1,341.9 L662.2,419.2 L662.4,270.0 L662.6,219.9 L662.7,332.4 L662.9,301.5 L663.1,379.7 L663.3,391.8 L663.4,373.7 L663.6,199.8 L663.8,335.4 L663.9,253.6 L664.1,203.5 L664.3,216.1 L664.4,350.0 L664.6,319.6 L664.8,388.2 L664.9,317.2 L665.1,402.7 L665.3,157.1 L665.4,229.0 L665.6,350.1 L665.8,228.4 L665.9,216.7 L666.1,273.5 L666.3,412.2 L666.4,265.5 L666.6,274.6 L666.8,157.5 L666.9,209.2 L667.1,388.0 L667.3,200.0 L667.4,175.0 L667.6,166.8 L667.8,330.0 L667.9,328.3 L668.1,269.1 L668.3,336.0 L668.4,203.3 L668.6,385.9 L668.8,262.6 L668.9,135.6 L669.1,183.6 L669.3,339.8 L669.5,148.7 L669.6,152.7 L669.8,393.1 L670.0,353.5 L670.1,370.0 L670.3,396.2 L670.5,354.1 L670.6,377.1 L670.8,402.3 L671.0,269.7 L671.1,292.0 L671.3,237.4 L671.5,176.0 L671.6,181.2 L671.8,137.4 L672.0,184.5 L672.1,334.9 L672.3,362.1 L672.5,347.8 L672.6,175.4 L672.8,369.2 L673.0,369.0 L673.1,301.1 L673.3,254.8 L673.5,177.4 L673.6,302.7 L673.8,196.7 L674.0,334.2 L674.1,218.0 L674.3,205.8 L674.5,251.6 L674.6,225.3 L674.8,311.7 L675.0,140.8 L675.1,192.0 L675.3,247.7 L675.5,328.8 L675.7,330.6 L675.8,382.5 L676.0,204.7 L676.2,336.8 L676.3,281.0 L676.5,178.5 L676.7,280.7 L676.8,375.4 L677.0,291.6 L677.2,334.3 L677.3,288.7 L677.5,114.5 L677.7,294.3 L677.8,167.6 L678.0,159.8 L678.2,308.7 L678.3,261.9 L678.5,176.9 L678.7,341.0 L678.8,320.9 L679.0,159.2 L679.2,249.1 L679.3,168.3 L679.5,186.8 L679.7,301.3 L679.8,337.1 L680.0,225.6 L680.2,174.8 L680.3,117.2 L680.5,345.1 L680.7,373.6 L680.8,128.0 L681.0,235.7 L681.2,136.6 L681.3,179.7 L681.5,226.5 L681.7,366.3 L681.9,299.2 L682.0,292.7 L682.2,111.2 L682.4,120.1 L682.5,124.9 L682.7,334.4 L682.9,281.9 L683.0,294.3 L683.2,306.9 L683.4,243.7 L683.5,285.0 L683.7,104.4 L683.9,251.8 L684.0,234.1 L684.2,194.0 L684.4,138.3 L684.5,285.8 L684.7,374.4 L684.9,203.2 L685.0,172.6 L685.2,228.8 L685.4,331.1 L685.5,187.6 L685.7,323.6 L685.9,324.6 L686.0,210.8 L686.2,103.4 L686.4,80.3 L686.5,291.9 L686.7,169.6 L686.9,322.8 L687.0,317.8 L687.2,123.3 L687.4,386.4 L687.5,308.0 L687.7,331.0 L687.9,227.3 L688.1,267.1 L688.2,323.9 L688.4,311.4 L688.6,102.9 L688.7,180.6 L688.9,281.8 L689.1,327.8 L689.2,146.3 L689.4,257.8 L689.6,361.2 L689.7,146.6 L689.9,247.0 L690.1,284.1 L690.2,336.8 L690.4,368.3 L690.6,76.0 L690.7,344.3 L690.9,225.7 L691.1,139.7 L691.2,324.7 L691.4,365.7 L691.6,325.0 L691.7,217.4 L691.9,103.4 L692.1,320.2 L692.2,119.8 L692.4,95.8 L692.6,152.6 L692.7,304.2 L692.9,109.2 L693.1,344.7 L693.2,78.3 L693.4,358.9 L693.6,144.6 L693.7,141.2 L693.9,326.3 L694.1,169.1 L694.3,337.3 L694.4,215.2 L694.6,291.5 L694.8,237.6 L694.9,170.8 L695.1,309.7 L695.3,222.8 L695.4,157.2 L695.6,166.8 L695.8,365.2 L695.9,368.5 L696.1,369.0 L696.3,89.9 L696.4,208.4 L696.6,185.3 L696.8,345.6 L696.9,273.5 L697.1,153.6 L697.3,221.9 L697.4,225.7 L697.6,332.6 L697.8,156.4 L697.9,228.2 L698.1,344.1 L698.3,123.7 L698.4,280.3 L698.6,80.1 L698.8,333.2 L698.9,138.4 L699.1,359.2 L699.3,269.2 L699.4,387.9 L699.6,226.2 L699.8,330.7 L699.9,191.7 L700.1,220.1 L700.3,343.9 L700.5,95.7 L700.6,284.8 L700.8,331.9 L701.0,186.6 L701.1,154.6 L701.3,183.3 L701.5,254.2 L701.6,176.7 L701.8,134.8 L702.0,168.7 L702.1,270.0 L702.3,383.4 L702.5,120.3 L702.6,265.7 L702.8,380.8 L703.0,171.8 L703.1,195.1 L703.3,335.7 L703.5,343.5 L703.6,212.8 L703.8,365.6 L704.0,179.8 L704.1,320.9 L704.3,83.5 L704.5,285.5 L704.6,90.5 L704.8,314.2 L705.0,183.5 L705.1,263.8 L705.3,382.9 L705.5,290.5 L705.6,385.3 L705.8,329.2 L706.0,384.8 L706.1,266.4 L706.3,230.0 L706.5,286.2 L706.7,149.8 L706.8,134.1 L707.0,381.3 L707.2,160.6 L707.3,112.3 L707.5,320.6 L707.7,144.2 L707.8,316.5 L708.0,232.2 L708.2,172.6 L708.3,318.4 L708.5,290.9 L708.7,354.3 L708.8,142.4 L709.0,370.3 L709.2,325.8 L709.3,309.3 L709.5,123.8 L709.7,181.8 L709.8,275.3 L710.0,203.7 L710.2,130.2 L710.3,376.8 L710.5,273.1 L710.7,138.3 L710.8,100.3 L711.0,183.6 L711.2,330.3 L711.3,322.5 L711.5,120.1 L711.7,371.5 L711.8,250.0 L712.0,346.5 L712.2,253.0 L712.3,386.2 L712.5,148.2 L712.7,259.8 L712.9,379.8 L713.0,145.2 L713.2,193.9 L713.4,340.5 L713.5,213.7 L713.7,224.6 L713.9,222.2 L714.0,277.5 L714.2,243.1 L714.4,199.5 L714.5,367.0 L714.7,357.5 L714.9,198.0 L715.0,160.8 L715.2,259.8 L715.4,131.1 L715.5,210.6 L715.7,201.5 L715.9,375.5 L716.0,364.9 L716.2,371.5 L716.4,106.6 L716.5,338.8 L716.7,253.3 L716.9,193.2 L717.0,155.4 L717.2,297.6 L717.4,271.6 L717.5,183.1 L717.7,160.7 L717.9,387.9 L718.0,316.9 L718.2,189.3 L718.4,243.6 L718.5,332.6 L718.7,343.5 L718.9,119.9 L719.1,161.2 L719.2,199.9 L719.4,381.4 L719.6,207.3 L719.7,90.0 L719.9,338.8 L720.1,227.4 L720.2,284.4 L720.4,354.6 L720.6,360.4 L720.7,322.5 L720.9,311.5 L721.1,198.4 L721.2,393.4 L721.4,97.2 L721.6,348.2 L721.7,196.2 L721.9,241.1 L722.1,246.6 L722.2,325.5 L722.4,348.1 L722.6,122.8 L722.7,292.4 L722.9,377.3 L723.1,155.6 L723.2,239.2 L723.4,175.4 L723.6,140.4 L723.7,92.7 L723.9,119.2 L724.1,254.1 L724.2,241.7 L724.4,96.2 L724.6,365.6 L724.7,249.5 L724.9,193.4 L725.1,150.2 L725.3,389.0 L725.4,158.4 L725.6,300.6 L725.8,257.8 L725.9,314.6 L726.1,298.4 L726.3,289.8 L726.4,357.6 L726.6,237.9 L726.8,246.0 L726.9,113.8 L727.1,338.7 L727.3,201.5 L727.4,203.7 L727.6,331.6 L727.8,384.8 L727.9,105.2 L728.1,281.4 L728.3,318.2 L728.4,163.7 L728.6,384.1 L728.8,148.2 L728.9,307.0 L729.1,319.0 L729.3,156.4 L729.4,305.3 L729.6,101.2 L729.8,315.0 L729.9,223.6 L730.1,170.2 L730.3,139.4 L730.4,184.0 L730.6,197.9 L730.8,114.8 L730.9,98.4 L731.1,103.7 L731.3,389.8 L731.5,376.8 L731.6,101.2 L731.8,349.7 L732.0,255.7 L732.1,263.6 L732.3,233.9 L732.5,328.3 L732.6,168.1 L732.8,269.4 L733.0,199.1 L733.1,324.1 L733.3,296.4 L733.5,272.3 L733.6,304.3 L733.8,119.5 L734.0,321.2 L734.1,304.1 L734.3,166.7 L734.5,134.5 L734.6,277.0 L734.8,310.5 L735.0,287.3 L735.1,348.4 L735.3,309.1 L735.5,224.6 L735.6,169.6 L735.8,259.9 L736.0,299.5 L736.1,373.2 L736.3,187.1 L736.5,124.3 L736.6,104.4 L736.8,307.3 L737.0,144.1 L737.1,156.6 L737.3,128.4 L737.5,351.2 L737.6,129.1 L737.8,167.9 L738.0,317.0 L738.2,145.4 L738.3,367.5 L738.5,116.0 L738.7,345.3 L738.8,328.9 L739.0,317.0 L739.2,137.1 L739.3,129.3 L739.5,188.1 L739.7,346.9 L739.8,321.5 L740.0,231.4 L740.2,137.3 L740.3,286.8 L740.5,393.2 L740.7,195.3 L740.8,128.2 L741.0,152.0 L741.2,316.1 L741.3,304.4 L741.5,193.8 L741.7,347.1 L741.8,370.1 L742.0,304.2 L742.2,234.4 L742.3,193.5 L742.5,224.5 L742.7,147.1 L742.8,117.8 L743.0,288.5 L743.2,365.4 L743.3,273.3 L743.5,252.9 L743.7,185.8 L743.8,372.4 L744.0,210.6 L744.2,395.2 L744.4,336.6 L744.5,239.0 L744.7,281.8 L744.9,172.8 L745.0,313.1 L745.2,236.9 L745.4,209.9 L745.5,229.9 L745.7,258.4 L745.9,254.3 L746.0,394.1 L746.2,353.7 L746.4,279.9 L746.5,193.7 L746.7,245.5 L746.9,312.2 L747.0,153.0 L747.2,346.5 L747.4,151.5 L747.5,270.7 L747.7,276.2 L747.9,135.6 L748.0,249.3 L748.2,374.9 L748.4,225.6 L748.5,324.0 L748.7,250.5 L748.9,191.1 L749.0,124.3 L749.2,339.3 L749.4,186.7 L749.5,113.0 L749.7,323.9 L749.9,187.6 L750.0,202.5 L750.2,310.6 L750.4,174.5 L750.6,251.2 L750.7,222.2 L750.9,240.1 L751.1,359.1 L751.2,235.8 L751.4,351.3 L751.6,239.1 L751.7,378.2 L751.9,323.1 L752.1,319.3 L752.2,293.7 L752.4,178.5 L752.6,218.4 L752.7,118.2 L752.9,122.3 L753.1,127.7 L753.2,178.9 L753.4,320.6 L753.6,205.3 L753.7,232.9 L753.9,181.2 L754.1,259.8 L754.2,280.2 L754.4,163.5 L754.6,227.4 L754.7,154.2 L754.9,132.0 L755.1,296.5 L755.2,204.2 L755.4,359.2 L755.6,337.6 L755.7,204.9 L755.9,313.7 L756.1,190.5 L756.2,349.1 L756.4,247.4 L756.6,125.4 L756.8,264.7 L756.9,246.2 L757.1,400.0 L757.3,376.7 L757.4,196.5 L757.6,266.6 L757.8,138.2 L757.9,258.9 L758.1,134.4 L758.3,143.3 L758.4,381.4 L758.6,157.1 L758.8,298.4 L758.9,315.0 L759.1,164.6 L759.3,153.0 L759.4,133.4 L759.6,274.1 L759.8,400.6 L759.9,267.3 L760.1,196.8 L760.3,286.9 L760.4,165.6 L760.6,177.2 L760.8,276.5 L760.9,322.6 L761.1,327.5 L761.3,252.7 L761.4,380.1 L761.6,331.7 L761.8,284.3 L761.9,349.6 L762.1,199.3 L762.3,313.8 L762.4,148.3 L762.6,327.0 L762.8,125.2 L763.0,403.5 L763.1,299.0 L763.3,135.9 L763.5,225.0 L763.6,136.2 L763.8,288.5 L764.0,378.5 L764.1,174.8 L764.3,329.6 L764.5,356.3 L764.6,330.5 L764.8,214.4 L765.0,155.7 L765.1,386.8 L765.3,300.0 L765.5,221.6 L765.6,137.6 L765.8,163.6 L766.0,329.0 L766.1,347.9 L766.3,242.7 L766.5,382.5 L766.6,373.0 L766.8,185.6 L767.0,383.5 L767.1,225.4 L767.3,227.3 L767.5,248.3 L767.6,348.7 L767.8,401.4 L768.0,379.2 L768.1,233.9 L768.3,368.1 L768.5,189.7 L768.6,300.3 L768.8,215.6 L769.0,154.5 L769.2,403.4 L769.3,185.3 L769.5,212.2 L769.7,343.9 L769.8,191.9 L770.0,132.7 L770.2,152.4 L770.3,253.0 L770.5,269.6 L770.7,379.9 L770.8,262.1 L771.0,179.5 L771.2,365.1 L771.3,375.5 L771.5,258.4 L771.7,399.4 L771.8,286.6 L772.0,390.1 L772.2,166.9 L772.3,303.2 L772.5,146.1 L772.7,375.3 L772.8,393.2 L773.0,337.1 L773.2,376.1 L773.3,182.8 L773.5,254.8 L773.7,158.2 L773.8,207.1 L774.0,337.1 L774.2,133.9 L774.3,360.7 L774.5,313.8 L774.7,199.8 L774.8,274.9 L775.0,148.5 L775.2,197.2 L775.4,397.7 L775.5,341.3 L775.7,143.1 L775.9,340.3 L776.0,380.9 L776.2,381.0 L776.4,339.8 L776.5,145.6 L776.7,140.4 L776.9,276.7 L777.0,203.6 L777.2,233.4 L777.4,164.4 L777.5,325.3 L777.7,402.4 L777.9,286.9 L778.0,403.4 L778.2,291.4 L778.4,146.3 L778.5,312.2 L778.7,173.9 L778.9,203.4 L779.0,394.0 L779.2,210.6 L779.4,404.9 L779.5,225.4 L779.7,270.4 L779.9,140.2 L780.0,237.2 L780.2,339.0 L780.4,262.1 L780.5,333.3 L780.7,166.3 L780.9,409.3 L781.0,264.5 L781.2,276.8 L781.4,178.2 L781.6,269.0 L781.7,190.6 L781.9,384.2 L782.1,204.3 L782.2,178.2 L782.4,235.2 L782.6,161.5 L782.7,228.6 L782.9,259.3 L783.1,331.1 L783.2,319.9 L783.4,171.3 L783.6,218.1 L783.7,239.7 L783.9,348.8 L784.1,360.9 L784.2,365.0 L784.4,372.2 L784.6,248.8 L784.7,271.7 L784.9,148.1 L785.1,181.7 L785.2,146.2 L785.4,180.1 L785.6,336.9 L785.7,293.7 L785.9,346.2 L786.1,156.2 L786.2,232.0 L786.4,279.1 L786.6,323.0 L786.7,240.8 L786.9,153.6 L787.1,381.2 L787.2,264.3 L787.4,167.1 L787.6,352.3 L787.8,307.7 L787.9,286.4 L788.1,375.4 L788.3,227.0 L788.4,190.5 L788.6,236.4 L788.8,219.3 L788.9,169.8 L789.1,282.6 L789.3,264.2 L789.4,242.0 L789.6,400.8 L789.8,220.1 L789.9,363.4 L790.1,175.7 L790.3,174.0 L790.4,294.1 L790.6,342.6 L790.8,374.8 L790.9,253.4 L791.1,336.5 L791.3,168.6 L791.4,310.4 L791.6,282.3 L791.8,240.2 L791.9,319.2 L792.1,354.3 L792.3,391.7 L792.4,187.9 L792.6,297.5 L792.8,373.3 L792.9,407.1 L793.1,236.4 L793.3,196.8 L793.4,324.2 L793.6,270.3 L793.8,401.0 L794.0,414.4 L794.1,159.7 L794.3,211.5 L794.5,174.0 L794.6,330.3 L794.8,171.3 L795.0,183.5 L795.1,183.6 L795.3,337.3 L795.5,255.5 L795.6,171.4 L795.8,204.4 L796.0,345.2 L796.1,383.5 L796.3,167.9 L796.5,349.5 L796.6,403.4 L796.8,394.5 L797.0,362.1 L797.1,366.5 L797.3,353.2 L797.5,351.9 L797.6,360.6 L797.8,324.4 L798.0,283.5 L798.1,276.8 L798.3,332.9 L798.5,262.3 L798.6,203.4 L798.8,389.6 L799.0,285.7 L799.1,244.4 L799.3,207.9 L799.5,379.0 L799.6,356.5 L799.8,172.1 L800.0,183.9 L800.2,390.5 L800.3,251.4 L800.5,222.3 L800.7,163.2 L800.8,400.4 L801.0,381.0 L801.2,249.2 L801.3,224.3 L801.5,348.8 L801.7,323.3 L801.8,202.0 L802.0,269.7 L802.2,277.7 L802.3,248.0 L802.5,388.2 L802.7,245.2 L802.8,365.9 L803.0,250.2 L803.2,331.8 L803.3,330.2 L803.5,349.8 L803.7,209.0 L803.8,206.1 L804.0,286.7 L804.2,336.8 L804.3,168.7 L804.5,215.5 L804.7,242.5 L804.8,190.3 L805.0,274.8 L805.2,378.9 L805.3,373.2 L805.5,314.5 L805.7,258.7 L805.8,215.2 L806.0,188.3 L806.2,363.6 L806.4,253.7 L806.5,274.4 L806.7,357.2 L806.9,345.0 L807.0,187.6 L807.2,239.9 L807.4,311.9 L807.5,352.8 L807.7,269.5 L807.9,368.4 L808.0,406.6 L808.2,285.8 L808.4,242.5 L808.5,224.0 L808.7,254.5 L808.9,412.7 L809.0,304.2 L809.2,293.9 L809.4,222.0 L809.5,358.5 L809.7,400.3 L809.9,183.9 L810.0,294.8 L810.2,214.5 L810.4,273.4 L810.5,287.1 L810.7,364.1 L810.9,206.6 L811.0,418.1 L811.2,200.1 L811.4,266.2 L811.5,203.9 L811.7,271.8 L811.9,404.6 L812.0,311.1 L812.2,264.4 L812.4,194.7 L812.5,190.3 L812.7,406.0 L812.9,352.6 L813.1,229.9 L813.2,341.2 L813.4,245.0 L813.6,263.0 L813.7,267.6 L813.9,238.1 L814.1,256.1 L814.2,267.8 L814.4,297.6 L814.6,308.3 L814.7,204.7 L814.9,236.4 L815.1,189.3 L815.2,241.8 L815.4,332.2 L815.6,203.4 L815.7,230.7 L815.9,321.5 L816.1,308.0 L816.2,190.8 L816.4,338.7 L816.6,386.8 L816.7,402.6 L816.9,356.2 L817.1,390.9 L817.2,289.4 L817.4,355.8 L817.6,269.3 L817.7,377.2 L817.9,281.4 L818.1,212.3 L818.2,330.0 L818.4,290.1 L818.6,179.8 L818.7,371.1 L818.9,186.5 L819.1,243.6 L819.3,254.2 L819.4,356.3 L819.6,371.8 L819.8,417.0 L819.9,337.6 L820.1,208.8 L820.3,386.7 L820.4,235.3 L820.6,204.0 L820.8,369.1 L820.9,263.0 L821.1,310.5 L821.3,286.2 L821.4,189.7 L821.6,412.3 L821.8,247.6 L821.9,241.8 L822.1,276.7 L822.3,281.0 L822.4,423.8 L822.6,291.1 L822.8,215.1 L822.9,218.3 L823.1,329.4 L823.3,191.5 L823.4,390.3 L823.6,264.5 L823.8,269.9 L823.9,391.2 L824.1,261.9 L824.3,354.7 L824.4,314.3 L824.6,336.4 L824.8,267.7 L824.9,304.0 L825.1,343.1 L825.3,302.5 L825.5,231.1 L825.6,214.9 L825.8,282.5 L826.0,198.1 L826.1,348.2 L826.3,269.0 L826.5,280.3 L826.6,245.8 L826.8,204.2 L827.0,205.5 L827.1,316.0 L827.3,373.7 L827.5,211.4 L827.6,250.2 L827.8,267.0 L828.0,401.4 L828.1,313.1 L828.3,286.2 L828.5,376.7 L828.6,425.0 L828.8,405.7 L829.0,223.8 L829.1,226.1 L829.3,410.1 L829.5,409.6 L829.6,214.2 L829.8,200.8 L830.0,347.0 L830.1,345.3 L830.3,255.2 L830.5,417.2 L830.6,376.2 L830.8,299.8 L831.0,398.2 L831.1,269.2 L831.3,212.6 L831.5,196.1 L831.7,387.7 L831.8,304.1 L832.0,335.4 L832.2,346.8 L832.3,327.0 L832.5,206.5 L832.7,377.4 L832.8,369.9 L833.0,364.1 L833.2,346.0 L833.3,303.5 L833.5,335.7 L833.7,337.0 L833.8,241.4 L834.0,251.6 L834.2,422.6 L834.3,327.1 L834.5,413.9 L834.7,198.7 L834.8,345.7 L835.0,406.2 L835.2,342.9 L835.3,221.7 L835.5,208.5 L835.7,380.5 L835.8,294.2 L836.0,311.7 L836.2,301.7 L836.3,309.7 L836.5,334.4 L836.7,360.9 L836.8,352.8 L837.0,246.2 L837.2,421.8 L837.3,386.4 L837.5,388.1 L837.7,224.1 L837.9,269.2 L838.0,347.2 L838.2,221.3 L838.4,396.0 L838.5,380.2 L838.7,268.0 L838.9,245.1 L839.0,203.6 L839.2,307.8 L839.4,256.3 L839.5,360.2 L839.7,408.5 L839.9,367.7 L840.0,303.6 L840.2,260.7 L840.4,217.9 L840.5,373.0 L840.7,260.6 L840.9,268.5 L841.0,338.2 L841.2,292.1 L841.4,298.9 L841.5,299.6 L841.7,299.7 L841.9,308.9 L842.0,338.5 L842.2,360.4 L842.4,218.1 L842.5,305.5 L842.7,345.1 L842.9,266.2 L843.0,227.1 L843.2,218.1 L843.4,299.5 L843.5,241.8 L843.7,239.7 L843.9,396.2 L844.1,368.4 L844.2,378.5 L844.4,418.2 L844.6,281.0 L844.7,219.9 L844.9,401.9 L845.1,401.1 L845.2,423.2 L845.4,378.6 L845.6,381.0 L845.7,425.4 L845.9,293.8 L846.1,356.4 L846.2,250.3 L846.4,400.5 L846.6,311.2 L846.7,415.2 L846.9,346.8 L847.1,306.0 L847.2,335.8 L847.4,292.7 L847.6,406.8 L847.7,316.8 L847.9,370.1 L848.1,263.6 L848.2,237.7 L848.4,357.1 L848.6,339.6 L848.7,278.9 L848.9,422.4 L849.1,397.0 L849.2,426.7 L849.4,354.6 L849.6,262.0 L849.7,345.5 L849.9,258.3 L850.1,335.4 L850.3,266.0 L850.4,395.6 L850.6,318.8 L850.8,218.8 L850.9,428.5 L851.1,310.0 L851.3,364.9 L851.4,422.2 L851.6,322.9 L851.8,410.6 L851.9,391.0 L852.1,291.3 L852.3,302.3 L852.4,401.0 L852.6,303.3 L852.8,269.4 L852.9,269.6 L853.1,387.7 L853.3,332.5 L853.4,323.3 L853.6,431.5 L853.8,317.1 L853.9,269.6 L854.1,235.3 L854.3,339.3 L854.4,366.4 L854.6,255.2 L854.8,228.6 L854.9,384.2 L855.1,234.7 L855.3,302.9 L855.4,351.3 L855.6,424.2 L855.8,293.9 L855.9,288.0 L856.1,303.2 L856.3,401.3 L856.5,319.0 L856.6,385.9 L856.8,289.5 L857.0,361.7 L857.1,260.1 L857.3,299.5 L857.5,425.0 L857.6,421.4 L857.8,390.6 L858.0,332.2 L858.1,268.6 L858.3,395.3 L858.5,243.4 L858.6,235.0 L858.8,347.0 L859.0,332.7 L859.1,317.2 L859.3,342.3 L859.5,427.9 L859.6,360.9 L859.8,382.6 L860.0,379.7 L860.1,304.9 L860.3,325.7 L860.5,420.8 L860.6,407.1 L860.8,230.6 L861.0,300.2 L861.1,258.6 L861.3,236.7 L861.5,407.4 L861.6,421.9 L861.8,264.6 L862.0,330.2 L862.1,382.3 L862.3,358.3 L862.5,267.4 L862.7,322.0 L862.8,400.5 L863.0,426.1 L863.2,311.7 L863.3,312.1 L863.5,379.9 L863.7,409.1 L863.8,336.1 L864.0,348.1 L864.2,395.8 L864.3,236.4 L864.5,271.8 L864.7,350.2 L864.8,339.4 L865.0,273.4 L865.2,401.1 L865.3,316.5 L865.5,308.7 L865.7,341.5 L865.8,362.0 L866.0,270.0 L866.2,249.7 L866.3,244.4 L866.5,381.7 L866.7,347.8 L866.8,401.8 L867.0,249.1 L867.2,320.0 L867.3,290.2 L867.5,314.5 L867.7,386.1 L867.8,283.9 L868.0,312.3 L868.2,395.1 L868.3,280.2 L868.5,342.1 L868.7,354.8 L868.9,416.5 L869.0,386.6 L869.2,443.1 L869.4,368.3 L869.5,293.4 L869.7,389.7 L869.9,386.1 L870.0,399.5 L870.2,398.8 L870.4,245.5 L870.5,371.6 L870.7,288.5 L870.9,343.3 L871.0,414.0 L871.2,245.9 L871.4,344.7 L871.5,425.3 L871.7,327.1 L871.9,278.1 L872.0,381.9 L872.2,405.2 L872.4,335.2 L872.5,265.3 L872.7,437.5 L872.9,331.8 L873.0,391.4 L873.2,279.2 L873.4,260.6 L873.5,286.4 L873.7,264.5 L873.9,307.4 L874.0,333.7 L874.2,337.1 L874.4,327.8 L874.5,272.0 L874.7,431.3 L874.9,430.8 L875.1,285.1 L875.2,301.8 L875.4,300.7 L875.6,359.2 L875.7,417.5 L875.9,343.1 L876.1,399.0 L876.2,357.1 L876.4,378.7 L876.6,391.6 L876.7,329.3 L876.9,379.0 L877.1,307.2 L877.2,403.5 L877.4,445.6 L877.6,416.6 L877.7,424.4 L877.9,250.6 L878.1,307.7 L878.2,336.2 L878.4,352.7 L878.6,409.0 L878.7,379.4 L878.9,384.9 L879.1,410.5 L879.2,326.3 L879.4,420.1 L879.6,301.7 L879.7,409.3 L879.9,427.6 L880.1,271.9 L880.2,356.9 L880.4,303.0 L880.6,315.6 L880.7,258.4 L880.9,367.7 L881.1,399.1 L881.3,385.6 L881.4,371.8 L881.6,346.7 L881.8,363.2 L881.9,303.9 L882.1,392.7 L882.3,434.0 L882.4,429.6 L882.6,333.9 L882.8,372.2 L882.9,257.9 L883.1,382.5 L883.3,406.9 L883.4,315.3 L883.6,353.2 L883.8,304.6 L883.9,420.1 L884.1,321.4 L884.3,392.4 L884.4,279.5 L884.6,407.8 L884.8,432.9 L884.9,367.5 L885.1,442.9 L885.3,341.7 L885.4,266.1 L885.6,388.8 L885.8,288.3 L885.9,435.1 L886.1,382.2 L886.3,398.5 L886.4,411.5 L886.6,285.6 L886.8,396.0 L886.9,441.3 L887.1,322.4 L887.3,320.3 L887.5,320.6 L887.6,346.0 L887.8,362.7 L888.0,341.5 L888.1,306.6 L888.3,405.5 L888.5,397.7 L888.6,300.8 L888.8,404.5 L889.0,372.0 L889.1,286.0 L889.3,444.9 L889.5,272.7 L889.6,352.0 L889.8,339.5 L890.0,370.1 L890.1,360.2 L890.3,384.2 L890.5,367.2 L890.6,394.1 L890.8,375.0 L891.0,372.2 L891.1,424.0 L891.3,421.9 L891.5,314.6 L891.6,280.8 L891.8,416.6 L892.0,406.3 L892.1,422.5 L892.3,352.9 L892.5,424.0 L892.6,299.7 L892.8,278.9 L893.0,293.3 L893.1,391.5 L893.3,369.3 L893.5,327.6 L893.6,422.4 L893.8,387.8 L894.0,366.7 L894.2,398.0 L894.3,393.4 L894.5,355.1 L894.7,333.2 L894.8,364.9 L895.0,429.5 L895.2,435.4 L895.3,311.2 L895.5,372.9 L895.7,333.9 L895.8,373.7 L896.0,320.4 L896.2,385.9 L896.3,292.4 L896.5,374.0 L896.7,313.2 L896.8,396.5 L897.0,326.5 L897.2,436.5 L897.3,318.7 L897.5,340.6 L897.7,369.2 L897.8,427.3 L898.0,280.2 L898.2,345.7 L898.3,289.8 L898.5,330.7 L898.7,390.4 L898.8,391.2 L899.0,324.5 L899.2,386.2 L899.3,283.5 L899.5,368.3 L899.7,426.4 L899.8,434.3 L900.0,392.9 L900.2,401.3 L900.4,411.1 L900.5,381.6 L900.7,393.7 L900.9,380.5 L901.0,311.0 L901.2,450.8 L901.4,318.9 L901.5,325.1 L901.7,391.2 L901.9,397.0 L902.0,396.3 L902.2,367.9 L902.4,291.8 L902.5,352.2 L902.7,375.9 L902.9,335.7 L903.0,331.8 L903.2,424.8 L903.4,359.1 L903.5,317.3 L903.7,396.5 L903.9,449.3 L904.0,307.2 L904.2,354.9 L904.4,392.8 L904.5,323.2 L904.7,402.3 L904.9,350.1 L905.0,335.4 L905.2,377.1 L905.4,356.2 L905.5,417.6 L905.7,311.6 L905.9,312.7 L906.0,390.4 L906.2,381.8 L906.4,449.4 L906.6,410.7 L906.7,455.4 L906.9,390.7 L907.1,416.8 L907.2,326.8 L907.4,427.8 L907.6,333.6 L907.7,408.9 L907.9,331.6 L908.1,364.0 L908.2,432.1 L908.4,327.0 L908.6,329.5 L908.7,449.4 L908.9,343.3 L909.1,328.6 L909.2,404.5 L909.4,454.1 L909.6,352.6 L909.7,428.4 L909.9,437.7 L910.1,438.4 L910.2,342.7 L910.4,458.0 L910.6,399.4 L910.7,341.7 L910.9,459.4 L911.1,320.8 L911.2,299.9 L911.4,357.7 L911.6,461.2 L911.7,448.9 L911.9,444.1 L912.1,357.4 L912.2,437.1 L912.4,308.6 L912.6,354.3 L912.8,367.3 L912.9,377.3 L913.1,414.0 L913.3,333.2 L913.4,315.1 L913.6,360.1 L913.8,453.4 L913.9,327.3 L914.1,330.2 L914.3,429.7 L914.4,335.2 L914.6,386.8 L914.8,364.7 L914.9,334.2 L915.1,443.7 L915.3,313.1 L915.4,412.8 L915.6,320.3 L915.8,457.9 L915.9,372.7 L916.1,372.5 L916.3,391.5 L916.4,340.5 L916.6,360.0 L916.8,451.9 L916.9,411.0 L917.1,379.9 L917.3,321.1 L917.4,355.5 L917.6,320.9 L917.8,414.9 L917.9,383.4 L918.1,444.1 L918.3,414.7 L918.4,362.5 L918.6,412.2 L918.8,423.3 L919.0,446.1 L919.1,459.5 L919.3,392.7 L919.5,457.6 L919.6,451.8 L919.8,324.4 L920.0,410.1 L920.1,405.3 L920.3,381.2 L920.5,313.4 L920.6,348.4 L920.8,357.7 L921.0,351.3 L921.1,333.4 L921.3,452.3 L921.5,446.3 L921.6,425.3 L921.8,401.6 L922.0,440.8 L922.1,401.7 L922.3,330.4 L922.5,321.5 L922.6,392.1 L922.8,327.6 L923.0,339.7 L923.1,378.1 L923.3,331.6 L923.5,393.3 L923.6,356.3 L923.8,338.3 L924.0,459.1 L924.1,362.4 L924.3,358.4 L924.5,375.7 L924.6,409.9 L924.8,425.8 L925.0,367.4 L925.2,357.3 L925.3,412.7 L925.5,433.1 L925.7,314.5 L925.8,362.7 L926.0,377.9 L926.2,377.1 L926.3,335.9 L926.5,332.2 L926.7,331.5 L926.8,467.3 L927.0,439.2 L927.2,383.1 L927.3,412.6 L927.5,378.4 L927.7,415.2 L927.8,436.3 L928.0,383.2 L928.2,368.3 L928.3,441.2 L928.5,378.2 L928.7,361.6 L928.8,431.3 L929.0,362.9 L929.2,390.5 L929.3,358.7 L929.5,337.9 L929.7,426.5 L929.8,390.1 L930.0,402.8 L930.2,354.6 L930.3,400.8 L930.5,331.8 L930.7,468.3 L930.8,325.5 L931.0,463.5 L931.2,422.2 L931.4,459.1 L931.5,387.3 L931.7,410.3 L931.9,407.1 L932.0,387.4 L932.2,382.0 L932.4,459.8 L932.5,360.1 L932.7,409.4 L932.9,351.3 L933.0,405.7 L933.2,359.6 L933.4,417.7 L933.5,386.6 L933.7,410.7 L933.9,382.5 L934.0,415.7 L934.2,424.0 L934.4,472.0 L934.5,360.7 L934.7,406.3 L934.9,382.3 L935.0,335.7 L935.2,472.3 L935.4,364.2 L935.5,359.6 L935.7,402.6 L935.9,425.1 L936.0,448.8 L936.2,404.6 L936.4,369.8 L936.5,413.6 L936.7,436.9 L936.9,377.6 L937.0,422.6 L937.2,430.1 L937.4,403.4 L937.6,352.1 L937.7,420.8 L937.9,472.1 L938.1,369.5 L938.2,401.5 L938.4,390.6 L938.6,371.7 L938.7,384.9 L938.9,366.5 L939.1,340.7 L939.2,393.5 L939.4,466.6 L939.6,391.6 L939.7,409.0 L939.9,450.3 L940.1,349.4 L940.2,367.1 L940.4,375.5 L940.6,369.4 L940.7,426.6 L940.9,344.9 L941.1,442.5 L941.2,376.0 L941.4,456.1 L941.6,335.1 L941.7,465.8 L941.9,376.3 L942.1,466.0 L942.2,346.3 L942.4,342.2 L942.6,367.1 L942.7,413.3 L942.9,373.4 L943.1,470.7 L943.2,439.0 L943.4,408.2 L943.6,453.6 L943.8,343.9 L943.9,345.8 L944.1,350.1 L944.3,374.7 L944.4,437.4 L944.6,406.5 L944.8,378.4 L944.9,343.0 L945.1,445.3 L945.3,403.0 L945.4,370.6 L945.6,389.5 L945.8,388.8 L945.9,376.8 L946.1,461.2 L946.3,434.6 L946.4,419.1 L946.6,438.3 L946.8,375.7 L946.9,411.9 L947.1,407.0 L947.3,343.3 L947.4,418.5 L947.6,395.2 L947.8,345.4 L947.9,401.9 L948.1,344.6 L948.3,388.4 L948.4,345.0 L948.6,440.2 L948.8,363.4 L948.9,436.9 L949.1,406.4 L949.3,443.6 L949.4,390.4 L949.6,371.2 L949.8,474.4 L950.0,357.8 L950.1,353.7 L950.3,472.9 L950.5,357.6 L950.6,409.1 L950.8,429.4 L951.0,386.6 L951.1,420.3 L951.3,406.7 L951.5,386.4 L951.6,454.4 L951.8,470.3 L952.0,427.9 L952.1,441.5 L952.3,445.9 L952.5,434.8 L952.6,443.8 L952.8,361.5 L953.0,420.5 L953.1,415.4 L953.3,436.7 L953.5,356.1 L953.6,362.8 L953.8,455.0 L954.0,363.2 L954.1,362.9 L954.3,403.7 L954.5,418.8 L954.6,384.0 L954.8,400.9 L955.0,416.6 L955.1,473.5 L955.3,414.9 L955.5,374.7 L955.6,460.1 L955.8,414.2 L956.0,445.3 L956.2,405.8 L956.3,444.4 L956.5,448.7 L956.7,453.3 L956.8,444.1 L957.0,388.1 L957.2,419.1 L957.3,457.1 L957.5,409.0 L957.7,466.1 L957.8,431.9 L958.0,460.6 L958.2,365.2 L958.3,420.5 L958.5,441.5 L958.7,430.4 L958.8,407.1 L959.0,437.0 L959.2,473.9 L959.3,386.4 L959.5,401.8 L959.7,390.1 L959.8,385.1 L960.0,472.8 L960.2,483.1 L960.3,370.0 L960.5,420.1 L960.7,385.8 L960.8,450.2 L961.0,378.9 L961.2,428.7 L961.3,463.8 L961.5,451.3 L961.7,382.6 L961.8,412.4 L962.0,484.6 L962.2,468.7 L962.4,397.9 L962.5,443.2 L962.7,386.1 L962.9,476.2 L963.0,437.0 L963.2,473.8 L963.4,389.8 L963.5,370.0 L963.7,389.2 L963.9,409.9 L964.0,396.4 L964.2,477.0 L964.4,446.6 L964.5,413.3 L964.7,401.1 L964.9,452.9 L965.0,425.0 L965.2,454.4 L965.4,373.1 L965.5,409.1 L965.7,403.3 L965.9,397.5 L966.0,388.9 L966.2,449.5 L966.4,380.4 L966.5,441.9 L966.7,463.1 L966.9,458.4 L967.0,395.2 L967.2,408.8 L967.4,412.3 L967.5,384.4 L967.7,374.0 L967.9,421.7 L968.0,472.3 L968.2,389.2 L968.4,382.8 L968.5,486.8 L968.7,376.5 L968.9,384.7 L969.1,425.9 L969.2,399.6 L969.4,461.6 L969.6,468.0 L969.7,419.7 L969.9,463.0 L970.1,477.9 L970.2,425.7 L970.4,483.1 L970.6,440.9 L970.7,476.8 L970.9,424.8 L971.1,429.9 L971.2,405.9 L971.4,447.5 L971.6,411.2 L971.7,398.0 L971.9,434.4 L972.1,451.8 L972.2,446.9 L972.4,464.8 L972.6,428.3 L972.7,406.1 L972.9,444.0 L973.1,483.1 L973.2,401.7 L973.4,476.3 L973.6,409.7 L973.7,487.8 L973.9,422.5 L974.1,405.3 L974.2,399.1 L974.4,435.2 L974.6,472.0 L974.7,462.7 L974.9,399.8 L975.1,415.3 L975.3,457.2 L975.4,442.3 L975.6,416.3 L975.8,417.3 L975.9,390.7 L976.1,453.4 L976.3,429.1 L976.4,391.4 L976.6,457.7 L976.8,388.5 L976.9,489.7 L977.1,436.1 L977.3,397.5 L977.4,488.6 L977.6,417.5 L977.8,405.3 L977.9,470.4 L978.1,472.6 L978.3,407.9 L978.4,428.1 L978.6,430.4 L978.8,461.7 L978.9,481.8 L979.1,448.6 L979.3,473.3 L979.4,469.0 L979.6,472.2 L979.8,454.6 L979.9,395.8 L980.1,432.8 L980.3,471.5 L980.4,419.1 L980.6,405.2 L980.8,478.5 L980.9,460.0 L981.1,456.9 L981.3,401.1 L981.5,395.6 L981.6,439.8 L981.8,431.8 L982.0,448.1 L982.1,478.3 L982.3,397.4 L982.5,444.7 L982.6,434.8 L982.8,476.1 L983.0,455.8 L983.1,480.5 L983.3,459.1 L983.5,437.3 L983.6,443.4 L983.8,398.8 L984.0,415.9 L984.1,407.4 L984.3,472.9 L984.5,466.3 L984.6,424.1 L984.8,484.0 L985.0,411.6 L985.1,475.9 L985.3,447.4 L985.5,421.5 L985.6,471.9 L985.8,424.9 L986.0,487.9 L986.1,434.9 L986.3,477.9 L986.5,402.4 L986.6,413.9 L986.8,447.1 L987.0,425.9 L987.1,419.8 L987.3,415.4 L987.5,484.4 L987.7,423.8 L987.8,450.7 L988.0,496.8 L988.2,462.7 L988.3,426.1 L988.5,467.2 L988.7,454.1 L988.8,443.9 L989.0,429.1 L989.2,446.3 L989.3,492.8 L989.5,459.0 L989.7,453.0 L989.8,449.1 L990.0,496.6 L990.2,453.1 L990.3,494.0 L990.5,485.2 L990.7,486.8 L990.8,420.9 L991.0,416.0 L991.2,451.7 L991.3,447.3 L991.5,497.1 L991.7,477.4 L991.8,439.1 L992.0,422.4 L992.2,413.9 L992.3,451.0 L992.5,445.7 L992.7,467.6 L992.8,464.5 L993.0,499.4 L993.2,426.3 L993.3,471.4 L993.5,440.3 L993.7,441.9 L993.9,448.4 L994.0,463.4 L994.2,484.1 L994.4,446.7 L994.5,416.1 L994.7,457.2 L994.9,488.9 L995.0,466.9 L995.2,500.6 L995.4,422.7 L995.5,433.4 L995.7,434.0 L995.9,447.6 L996.0,438.3 L996.2,483.1 L996.4,477.2 L996.5,480.8 L996.7,426.8 L996.9,415.4 L997.0,421.0 L997.2,416.9 L997.4,484.6 L997.5,452.6 L997.7,438.5 L997.9,460.1 L998.0,454.1 L998.2,431.0 L998.4,431.7 L998.5,466.0 L998.7,475.9 L998.9,449.8 L999.0,434.7 L999.2,441.0 L999.4,495.6 L999.5,457.3 L999.7,453.3 L999.9,439.6 L1000.1,499.9 L1000.2,423.7 L1000.4,446.9 L1000.6,458.2 L1000.7,494.3 L1000.9,476.8 L1001.1,433.3 L1001.2,435.1 L1001.4,485.4 L1001.6,424.3 L1001.7,454.5 L1001.9,430.0 L1002.1,460.7 L1002.2,492.7 L1002.4,470.2 L1002.6,438.0 L1002.7,485.9 L1002.9,458.7 L1003.1,492.2 L1003.2,493.9 L1003.4,454.0 L1003.6,461.5 L1003.7,425.4 L1003.9,437.3 L1004.1,443.7 L1004.2,489.3 L1004.4,432.8 L1004.6,469.5 L1004.7,465.6 L1004.9,469.4 L1005.1,485.2 L1005.2,434.1 L1005.4,448.9 L1005.6,443.3 L1005.7,465.9 L1005.9,497.3 L1006.1,431.1 L1006.3,481.9 L1006.4,468.3 L1006.6,489.7 L1006.8,471.1 L1006.9,487.8 L1007.1,435.5 L1007.3,464.6 L1007.4,497.2 L1007.6,498.5 L1007.8,503.9 L1007.9,442.6 L1008.1,466.6 L1008.3,474.3 L1008.4,450.8 L1008.6,464.2 L1008.8,433.5 L1008.9,478.5 L1009.1,487.3 L1009.3,443.2 L1009.4,448.7 L1009.6,462.7 L1009.8,451.0 L1009.9,467.9 L1010.1,491.3 L1010.3,501.1 L1010.4,463.6 L1010.6,460.8 L1010.8,457.8 L1010.9,490.6 L1011.1,477.1 L1011.3,459.9 L1011.4,489.6 L1011.6,442.2 L1011.8,442.2 L1011.9,497.6 L1012.1,465.6 L1012.3,440.2 L1012.5,444.5 L1012.6,471.5 L1012.8,455.3 L1013.0,467.4 L1013.1,463.4 L1013.3,447.6 L1013.5,463.8 L1013.6,483.0 L1013.8,468.8 L1014.0,446.0 L1014.1,457.5 L1014.3,448.1 L1014.5,476.9 L1014.6,447.6 L1014.8,493.4 L1015.0,449.8 L1015.1,474.6 L1015.3,473.0 L1015.5,496.9 L1015.6,500.8 L1015.8,481.2 L1016.0,496.5 L1016.1,450.9 L1016.3,481.5 L1016.5,479.1 L1016.6,489.6 L1016.8,486.5 L1017.0,470.8 L1017.1,450.5 L1017.3,460.1 L1017.5,453.1 L1017.6,495.6 L1017.8,509.9 L1018.0,455.4 L1018.1,451.8 L1018.3,458.1 L1018.5,468.4 L1018.7,456.6 L1018.8,483.2 L1019.0,491.7 L1019.2,480.9 L1019.3,493.6 L1019.5,473.3 L1019.7,483.5 L1019.8,488.0 L1020.0,485.2 L1020.2,467.5 L1020.3,502.4 L1020.5,481.8 L1020.7,464.4 L1020.8,455.1 L1021.0,461.9 L1021.2,485.1 L1021.3,457.1 L1021.5,506.8 L1021.7,483.5 L1021.8,511.7 L1022.0,453.8 L1022.2,473.6 L1022.3,486.9 L1022.5,494.4 L1022.7,474.0 L1022.8,503.0 L1023.0,514.1 L1023.2,475.8 L1023.3,475.9 L1023.5,497.8 L1023.7,504.7 L1023.8,509.0 L1024.0,467.4 L1024.2,515.0 L1024.3,482.2 L1024.5,496.5 L1024.7,477.5 L1024.9,455.9 L1025.0,492.3 L1025.2,485.4 L1025.4,481.5 L1025.5,469.3 L1025.7,467.5 L1025.9,494.6 L1026.0,471.7 L1026.2,510.4 L1026.4,510.4 L1026.5,496.0 L1026.7,463.3 L1026.9,499.9 L1027.0,474.3 L1027.2,476.4 L1027.4,466.2 L1027.5,479.2 L1027.7,489.6 L1027.9,461.5 L1028.0,467.7 L1028.2,510.8 L1028.4,498.7 L1028.5,478.7 L1028.7,490.1 L1028.9,509.0 L1029.0,494.9 L1029.2,516.7 L1029.4,490.3 L1029.5,465.8 L1029.7,466.0 L1029.9,462.9 L1030.0,494.6 L1030.2,487.8 L1030.4,496.9 L1030.5,479.1 L1030.7,517.9 L1030.9,465.1 L1031.1,495.7 L1031.2,501.5 L1031.4,518.2 L1031.6,475.2 L1031.7,517.0 L1031.9,470.8 L1032.1,489.4 L1032.2,500.9 L1032.4,482.5 L1032.6,482.9 L1032.7,504.1 L1032.9,493.1 L1033.1,493.8 L1033.2,470.7 L1033.4,471.8 L1033.6,485.1 L1033.7,505.4 L1033.9,498.8 L1034.1,474.3 L1034.2,481.0 L1034.4,473.4 L1034.6,498.3 L1034.7,484.5 L1034.9,512.7 L1035.1,476.0 L1035.2,509.1 L1035.4,500.2 L1035.6,481.6 L1035.7,500.1 L1035.9,493.0 L1036.1,492.9 L1036.2,496.9 L1036.4,515.9 L1036.6,486.0 L1036.7,495.5 L1036.9,495.3 L1037.1,479.5 L1037.3,502.6 L1037.4,478.2 L1037.6,493.0 L1037.8,475.9 L1037.9,485.8 L1038.1,513.3 L1038.3,485.0 L1038.4,498.9 L1038.6,502.6 L1038.8,520.0 L1038.9,520.4 L1039.1,505.0 L1039.3,517.0 L1039.4,517.1 L1039.6,495.8 L1039.8,515.7 L1039.9,491.3 L1040.1,500.8 L1040.3,495.5 L1040.4,510.0 L1040.6,505.8 L1040.8,506.8 L1040.9,491.2 L1041.1,520.4 L1041.3,483.8 L1041.4,513.4 L1041.6,507.7 L1041.8,516.2 L1041.9,490.3 L1042.1,510.5 L1042.3,505.6 L1042.4,496.8 L1042.6,496.4 L1042.8,507.5 L1042.9,494.0 L1043.1,510.4 L1043.3,494.3 L1043.5,517.9 L1043.6,491.8 L1043.8,500.4 L1044.0,501.2 L1044.1,515.7 L1044.3,486.3 L1044.5,485.0 L1044.6,518.3 L1044.8,512.2 L1045.0,495.8 L1045.1,516.1 L1045.3,497.9 L1045.5,501.2 L1045.6,518.9 L1045.8,522.9 L1046.0,503.7 L1046.1,498.0 L1046.3,503.9 L1046.5,510.5 L1046.6,497.2 L1046.8,506.2 L1047.0,501.6 L1047.1,511.2 L1047.3,497.5 L1047.5,511.8 L1047.6,489.6 L1047.8,495.7 L1048.0,524.0 L1048.1,515.1 L1048.3,526.3 L1048.5,500.4 L1048.6,497.0 L1048.8,502.8 L1049.0,515.1 L1049.1,525.8 L1049.3,523.0 L1049.5,509.2 L1049.6,501.6 L1049.8,510.3 L1050.0,505.5 L1050.2,520.4 L1050.3,511.5 L1050.5,492.9 L1050.7,522.4 L1050.8,509.0 L1051.0,506.9 L1051.2,519.4 L1051.3,522.8 L1051.5,523.9 L1051.7,512.6 L1051.8,522.9 L1052.0,526.0 L1052.2,507.4 L1052.3,500.0 L1052.5,506.0 L1052.7,505.8 L1052.8,501.4 L1053.0,520.0 L1053.2,512.2 L1053.3,500.4 L1053.5,504.9 L1053.7,509.0 L1053.8,527.7 L1054.0,520.3 L1054.2,522.6 L1054.3,520.1 L1054.5,502.2 L1054.7,507.8 L1054.8,518.9 L1055.0,500.5 L1055.2,499.6 L1055.3,513.7 L1055.5,501.5 L1055.7,502.5 L1055.8,507.0 L1056.0,504.3 L1056.2,528.8 L1056.4,520.5 L1056.5,524.3 L1056.7,522.4 L1056.9,504.3 L1057.0,521.6 L1057.2,522.2 L1057.4,523.0 L1057.5,527.6 L1057.7,520.7 L1057.9,528.0 L1058.0,513.0 L1058.2,519.2 L1058.4,509.4 L1058.5,513.5 L1058.7,510.0 L1058.9,515.3 L1059.0,519.2 L1059.2,527.7 L1059.4,527.4 L1059.5,509.6 L1059.7,513.4 L1059.9,511.3 L1060.0,532.5 L1060.2,518.0 L1060.4,530.8 L1060.5,521.9 L1060.7,530.8 L1060.9,514.8 L1061.0,532.8 L1061.2,516.8 L1061.4,516.8 L1061.5,525.6 L1061.7,523.9 L1061.9,517.0 L1062.0,513.2 L1062.2,511.6 L1062.4,519.3 L1062.6,531.3 L1062.7,516.9 L1062.9,514.3 L1063.1,532.6 L1063.2,526.8 L1063.4,530.5 L1063.6,528.8 L1063.7,524.2 L1063.9,524.5 L1064.1,526.8 L1064.2,517.9 L1064.4,532.4 L1064.6,522.5 L1064.7,519.1 L1064.9,518.6 L1065.1,522.1 L1065.2,527.2 L1065.4,520.0 L1065.6,519.0 L1065.7,519.2 L1065.9,520.5 L1066.1,523.8 L1066.2,530.2 L1066.4,534.7 L1066.6,517.3 L1066.7,534.0 L1066.9,531.4 L1067.1,528.5 L1067.2,529.5 L1067.4,522.2 L1067.6,532.3 L1067.7,535.2 L1067.9,519.4 L1068.1,523.4 L1068.2,531.4 L1068.4,522.5 L1068.6,523.9 L1068.8,520.2 L1068.9,532.2 L1069.1,529.8 L1069.3,536.7 L1069.4,528.2 L1069.6,524.8 L1069.8,535.7 L1069.9,522.1 L1070.1,536.7 L1070.3,523.0 L1070.4,534.7 L1070.6,533.7 L1070.8,534.6 L1070.9,537.9 L1071.1,530.4 L1071.3,532.5 L1071.4,537.2 L1071.6,535.9 L1071.8,536.5 L1071.9,525.6 L1072.1,536.7 L1072.3,532.9 L1072.4,536.8 L1072.6,534.9 L1072.8,533.1 L1072.9,535.3 L1073.1,529.3 L1073.3,531.1 L1073.4,532.9 L1073.6,527.2 L1073.8,534.8 L1073.9,534.6 L1074.1,535.6 L1074.3,531.6 L1074.4,539.4 L1074.6,529.6 L1074.8,536.2 L1075.0,531.1 L1075.1,534.9 L1075.3,536.8 L1075.5,538.6 L1075.6,537.3 L1075.8,530.9 L1076.0,540.1 L1076.1,534.1 L1076.3,530.5 L1076.5,534.0 L1076.6,540.4 L1076.8,535.8 L1077.0,537.0 L1077.1,537.8 L1077.3,539.8 L1077.5,538.8 L1077.6,536.5 L1077.8,541.2 L1078.0,534.8 L1078.1,540.3 L1078.3,533.7 L1078.5,533.7 L1078.6,541.2 L1078.8,535.8 L1079.0,539.7 L1079.1,536.6 L1079.3,541.3 L1079.5,535.9 L1079.6,541.9 L1079.8,539.0 L1080.0,541.1 L1080.1,538.5 L1080.3,542.3 L1080.5,538.8 L1080.6,536.8 L1080.8,539.0 L1081.0,538.6 L1081.2,541.6 L1081.3,540.5 L1081.5,540.2 L1081.7,542.9 L1081.8,542.7 L1082.0,538.9 L1082.2,539.5 L1082.3,540.1 L1082.5,541.8 L1082.7,540.1 L1082.8,542.3 L1083.0,542.7 L1083.2,542.4 L1083.3,542.9 L1083.5,540.8 L1083.7,544.0 L1083.8,542.1 L1084.0,541.6" fill="none" stroke="#1f77b4" stroke-width="1.4" opacity="0.85"/><text x="1040" y="54" fill="#ff7f0e" font-size="11">roll 17</text><text x="1090" y="558" fill="#ff7f0e" font-size="11">-27</text><path d="M616.0,258.7 L616.2,257.6 L616.3,252.3 L616.5,250.2 L616.7,254.4 L616.8,260.8 L617.0,260.8 L617.2,251.2 L617.3,251.2 L617.5,257.6 L617.7,253.4 L617.8,255.5 L618.0,251.2 L618.2,252.3 L618.3,252.3 L618.5,252.3 L618.7,258.7 L618.8,255.5 L619.0,259.8 L619.2,256.6 L619.4,257.6 L619.5,256.6 L619.7,251.2 L619.9,258.7 L620.0,251.2 L620.2,259.8 L620.4,258.7 L620.5,251.2 L620.7,255.5 L620.9,250.2 L621.0,258.7 L621.2,252.3 L621.4,253.4 L621.5,255.5 L621.7,257.6 L621.9,250.2 L622.0,253.4 L622.2,252.3 L622.4,251.2 L622.5,252.3 L622.7,255.5 L622.9,258.7 L623.0,260.8 L623.2,257.6 L623.4,252.3 L623.5,253.4 L623.7,251.2 L623.9,253.4 L624.0,259.8 L624.2,257.6 L624.4,251.2 L624.5,258.7 L624.7,257.6 L624.9,254.4 L625.0,256.6 L625.2,259.8 L625.4,256.6 L625.6,255.5 L625.7,250.2 L625.9,259.8 L626.1,257.6 L626.2,254.4 L626.4,251.2 L626.6,258.7 L626.7,254.4 L626.9,256.6 L627.1,260.8 L627.2,250.2 L627.4,255.5 L627.6,257.6 L627.7,256.6 L627.9,251.2 L628.1,250.2 L628.2,256.6 L628.4,254.4 L628.6,256.6 L628.7,259.8 L628.9,259.8 L629.1,259.8 L629.2,258.7 L629.4,259.8 L629.6,256.6 L629.7,259.8 L629.9,252.3 L630.1,254.4 L630.2,252.3 L630.4,252.3 L630.6,250.2 L630.7,250.2 L630.9,250.2 L631.1,251.2 L631.2,253.4 L631.4,259.8 L631.6,259.8 L631.8,256.6 L631.9,253.4 L632.1,257.6 L632.3,254.4 L632.4,257.6 L632.6,255.5 L632.8,257.6 L632.9,255.5 L633.1,254.4 L633.3,258.7 L633.4,253.4 L633.6,260.8 L633.8,257.6 L633.9,251.2 L634.1,253.4 L634.3,258.7 L634.4,259.8 L634.6,250.2 L634.8,252.3 L634.9,253.4 L635.1,257.6 L635.3,259.8 L635.4,257.6 L635.6,252.3 L635.8,254.4 L635.9,259.8 L636.1,257.6 L636.3,256.6 L636.4,255.5 L636.6,258.7 L636.8,260.8 L636.9,251.2 L637.1,251.2 L637.3,253.4 L637.4,259.8 L637.6,259.8 L637.8,258.7 L638.0,252.3 L638.1,259.8 L638.3,253.4 L638.5,256.6 L638.6,254.4 L638.8,252.3 L639.0,252.3 L639.1,256.6 L639.3,251.2 L639.5,250.2 L639.6,257.6 L639.8,259.8 L640.0,256.6 L640.1,254.4 L640.3,252.3 L640.5,257.6 L640.6,253.4 L640.8,255.5 L641.0,254.4 L641.1,263.0 L641.3,257.6 L641.5,254.4 L641.6,254.4 L641.8,253.4 L642.0,250.2 L642.1,257.6 L642.3,258.7 L642.5,256.6 L642.6,258.7 L642.8,253.4 L643.0,254.4 L643.1,253.4 L643.3,258.7 L643.5,254.4 L643.6,251.2 L643.8,254.4 L644.0,253.4 L644.2,255.5 L644.3,259.8 L644.5,256.6 L644.7,250.2 L644.8,258.7 L645.0,251.2 L645.2,259.8 L645.3,252.3 L645.5,255.5 L645.7,255.5 L645.8,256.6 L646.0,256.6 L646.2,251.2 L646.3,257.6 L646.5,253.4 L646.7,251.2 L646.8,251.2 L647.0,254.4 L647.2,259.8 L647.3,257.6 L647.5,259.8 L647.7,251.2 L647.8,252.3 L648.0,250.2 L648.2,250.2 L648.3,255.5 L648.5,257.6 L648.7,260.8 L648.8,259.8 L649.0,257.6 L649.2,253.4 L649.3,253.4 L649.5,256.6 L649.7,256.6 L649.8,259.8 L650.0,256.6 L650.2,257.6 L650.4,252.3 L650.5,254.4 L650.7,257.6 L650.9,256.6 L651.0,250.2 L651.2,258.7 L651.4,253.4 L651.5,253.4 L651.7,252.3 L651.9,253.4 L652.0,251.2 L652.2,258.7 L652.4,253.4 L652.5,260.8 L652.7,250.2 L652.9,260.8 L653.0,252.3 L653.2,250.2 L653.4,254.4 L653.5,250.2 L653.7,252.3 L653.9,252.3 L654.0,253.4 L654.2,258.7 L654.4,258.7 L654.5,253.4 L654.7,256.6 L654.9,260.8 L655.0,258.7 L655.2,257.6 L655.4,259.8 L655.5,254.4 L655.7,259.8 L655.9,255.5 L656.0,251.2 L656.2,259.8 L656.4,256.6 L656.5,250.2 L656.7,254.4 L656.9,251.2 L657.1,256.6 L657.2,256.6 L657.4,253.4 L657.6,254.4 L657.7,250.2 L657.9,254.4 L658.1,253.4 L658.2,259.8 L658.4,254.4 L658.6,259.8 L658.7,250.2 L658.9,253.4 L659.1,252.3 L659.2,253.4 L659.4,253.4 L659.6,253.4 L659.7,259.8 L659.9,256.6 L660.1,260.8 L660.2,253.4 L660.4,250.2 L660.6,252.3 L660.7,258.7 L660.9,251.2 L661.1,251.2 L661.2,255.5 L661.4,250.2 L661.6,259.8 L661.7,253.4 L661.9,260.8 L662.1,253.4 L662.2,258.7 L662.4,251.2 L662.6,259.8 L662.7,257.6 L662.9,257.6 L663.1,258.7 L663.3,252.3 L663.4,258.7 L663.6,253.4 L663.8,255.5 L663.9,258.7 L664.1,251.2 L664.3,252.3 L664.4,255.5 L664.6,255.5 L664.8,250.2 L664.9,251.2 L665.1,259.8 L665.3,252.3 L665.4,255.5 L665.6,251.2 L665.8,251.2 L665.9,255.5 L666.1,252.3 L666.3,254.4 L666.4,258.7 L666.6,256.6 L666.8,255.5 L666.9,258.7 L667.1,258.7 L667.3,256.6 L667.4,255.5 L667.6,254.4 L667.8,258.7 L667.9,256.6 L668.1,251.2 L668.3,255.5 L668.4,258.7 L668.6,259.8 L668.8,256.6 L668.9,259.8 L669.1,251.2 L669.3,255.5 L669.5,256.6 L669.6,251.2 L669.8,252.3 L670.0,257.6 L670.1,258.7 L670.3,256.6 L670.5,252.3 L670.6,259.8 L670.8,250.2 L671.0,256.6 L671.1,260.8 L671.3,256.6 L671.5,253.4 L671.6,253.4 L671.8,251.2 L672.0,250.2 L672.1,251.2 L672.3,251.2 L672.5,253.4 L672.6,252.3 L672.8,252.3 L673.0,254.4 L673.1,256.6 L673.3,258.7 L673.5,250.2 L673.6,255.5 L673.8,255.5 L674.0,252.3 L674.1,250.2 L674.3,254.4 L674.5,257.6 L674.6,253.4 L674.8,251.2 L675.0,257.6 L675.1,251.2 L675.3,256.6 L675.5,255.5 L675.7,259.8 L675.8,251.2 L676.0,255.5 L676.2,257.6 L676.3,255.5 L676.5,250.2 L676.7,256.6 L676.8,250.2 L677.0,252.3 L677.2,250.2 L677.3,252.3 L677.5,255.5 L677.7,256.6 L677.8,255.5 L678.0,252.3 L678.2,259.8 L678.3,255.5 L678.5,260.8 L678.7,255.5 L678.8,256.6 L679.0,258.7 L679.2,260.8 L679.3,258.7 L679.5,255.5 L679.7,258.7 L679.8,252.3 L680.0,260.8 L680.2,251.2 L680.3,253.4 L680.5,252.3 L680.7,250.2 L680.8,250.2 L681.0,251.2 L681.2,252.3 L681.3,255.5 L681.5,254.4 L681.7,251.2 L681.9,253.4 L682.0,255.5 L682.2,251.2 L682.4,255.5 L682.5,254.4 L682.7,259.8 L682.9,253.4 L683.0,258.7 L683.2,259.8 L683.4,252.3 L683.5,254.4 L683.7,252.3 L683.9,252.3 L684.0,243.8 L684.2,223.5 L684.4,247.0 L684.5,233.1 L684.7,220.2 L684.9,216.0 L685.0,204.2 L685.2,235.2 L685.4,174.3 L685.5,208.5 L685.7,219.2 L685.9,179.6 L686.0,190.3 L686.2,208.5 L686.4,180.7 L686.5,165.8 L686.7,191.4 L686.9,172.2 L687.0,211.7 L687.2,183.9 L687.4,144.4 L687.5,172.2 L687.7,125.2 L687.9,125.2 L688.1,188.2 L688.2,166.8 L688.4,179.6 L688.6,194.6 L688.7,175.4 L688.9,160.4 L689.1,182.8 L689.2,214.9 L689.4,191.4 L689.6,154.0 L689.7,199.9 L689.9,178.6 L690.1,192.5 L690.2,147.6 L690.4,145.5 L690.6,159.3 L690.7,112.3 L690.9,165.8 L691.1,134.8 L691.2,178.6 L691.4,197.8 L691.6,76.0 L691.7,158.3 L691.9,209.6 L692.1,98.4 L692.2,128.4 L692.4,130.5 L692.6,124.1 L692.7,182.8 L692.9,171.1 L693.1,161.5 L693.2,181.8 L693.4,186.1 L693.6,141.2 L693.7,124.1 L693.9,165.8 L694.1,142.2 L694.3,146.5 L694.4,196.7 L694.6,169.0 L694.8,199.9 L694.9,145.5 L695.1,212.8 L695.3,199.9 L695.4,219.2 L695.6,193.5 L695.8,205.3 L695.9,196.7 L696.1,195.7 L696.3,213.8 L696.4,158.3 L696.6,226.7 L696.8,204.2 L696.9,216.0 L697.1,217.0 L697.3,216.0 L697.4,123.0 L697.6,216.0 L697.8,210.6 L697.9,172.2 L698.1,209.6 L698.3,202.1 L698.4,196.7 L698.6,185.0 L698.8,165.8 L698.9,154.0 L699.1,157.2 L699.3,181.8 L699.4,159.3 L699.6,170.0 L699.8,169.0 L699.9,173.2 L700.1,222.4 L700.3,218.1 L700.5,222.4 L700.6,214.9 L700.8,216.0 L701.0,189.3 L701.1,190.3 L701.3,220.2 L701.5,230.9 L701.6,167.9 L701.8,209.6 L702.0,183.9 L702.1,203.2 L702.3,222.4 L702.5,219.2 L702.6,203.2 L702.8,225.6 L703.0,205.3 L703.1,230.9 L703.3,222.4 L703.5,232.0 L703.6,214.9 L703.8,230.9 L704.0,213.8 L704.1,217.0 L704.3,233.1 L704.5,235.2 L704.6,221.3 L704.8,234.1 L705.0,224.5 L705.1,247.0 L705.3,232.0 L705.5,220.2 L705.6,211.7 L705.8,223.5 L706.0,237.3 L706.1,213.8 L706.3,232.0 L706.5,195.7 L706.7,233.1 L706.8,222.4 L707.0,228.8 L707.2,235.2 L707.3,209.6 L707.5,210.6 L707.7,191.4 L707.8,196.7 L708.0,221.3 L708.2,238.4 L708.3,203.2 L708.5,235.2 L708.7,196.7 L708.8,221.3 L709.0,211.7 L709.2,203.2 L709.3,222.4 L709.5,240.5 L709.7,209.6 L709.8,213.8 L710.0,217.0 L710.2,227.7 L710.3,208.5 L710.5,208.5 L710.7,247.0 L710.8,225.6 L711.0,237.3 L711.2,218.1 L711.3,240.5 L711.5,253.4 L711.7,270.5 L711.8,254.4 L712.0,273.7 L712.2,250.2 L712.3,248.0 L712.5,240.5 L712.7,232.0 L712.9,224.5 L713.0,208.5 L713.2,216.0 L713.4,232.0 L713.5,202.1 L713.7,235.2 L713.9,213.8 L714.0,190.3 L714.2,241.6 L714.4,208.5 L714.5,210.6 L714.7,218.1 L714.9,214.9 L715.0,233.1 L715.2,239.5 L715.4,244.8 L715.5,206.4 L715.7,230.9 L715.9,256.6 L716.0,250.2 L716.2,257.6 L716.4,233.1 L716.5,234.1 L716.7,155.1 L716.9,242.7 L717.0,209.6 L717.2,244.8 L717.4,227.7 L717.5,228.8 L717.7,238.4 L717.9,245.9 L718.0,245.9 L718.2,250.2 L718.4,210.6 L718.5,242.7 L718.7,249.1 L718.9,261.9 L719.1,248.0 L719.2,259.8 L719.4,247.0 L719.6,252.3 L719.7,239.5 L719.9,242.7 L720.1,223.5 L720.2,239.5 L720.4,236.3 L720.6,232.0 L720.7,244.8 L720.9,232.0 L721.1,243.8 L721.2,226.7 L721.4,226.7 L721.6,234.1 L721.7,197.8 L721.9,241.6 L722.1,207.4 L722.2,235.2 L722.4,238.4 L722.6,233.1 L722.7,243.8 L722.9,230.9 L723.1,224.5 L723.2,225.6 L723.4,244.8 L723.6,255.5 L723.7,244.8 L723.9,254.4 L724.1,232.0 L724.2,248.0 L724.4,233.1 L724.6,250.2 L724.7,255.5 L724.9,250.2 L725.1,239.5 L725.3,233.1 L725.4,248.0 L725.6,232.0 L725.8,230.9 L725.9,238.4 L726.1,235.2 L726.3,218.1 L726.4,250.2 L726.6,240.5 L726.8,251.2 L726.9,254.4 L727.1,233.1 L727.3,248.0 L727.4,234.1 L727.6,254.4 L727.8,270.5 L727.9,245.9 L728.1,263.0 L728.3,250.2 L728.4,254.4 L728.6,247.0 L728.8,252.3 L728.9,275.8 L729.1,265.1 L729.3,258.7 L729.4,251.2 L729.6,247.0 L729.8,258.7 L729.9,236.3 L730.1,255.5 L730.3,249.1 L730.4,248.0 L730.6,234.1 L730.8,253.4 L730.9,247.0 L731.1,258.7 L731.3,253.4 L731.5,253.4 L731.6,249.1 L731.8,259.8 L732.0,271.5 L732.1,255.5 L732.3,255.5 L732.5,240.5 L732.6,249.1 L732.8,235.2 L733.0,226.7 L733.1,239.5 L733.3,248.0 L733.5,230.9 L733.6,213.8 L733.8,223.5 L734.0,235.2 L734.1,220.2 L734.3,237.3 L734.5,189.3 L734.6,180.7 L734.8,223.5 L735.0,234.1 L735.1,204.2 L735.3,223.5 L735.5,226.7 L735.6,210.6 L735.8,194.6 L736.0,237.3 L736.1,218.1 L736.3,237.3 L736.5,212.8 L736.6,201.0 L736.8,210.6 L737.0,222.4 L737.1,239.5 L737.3,252.3 L737.5,247.0 L737.6,224.5 L737.8,243.8 L738.0,241.6 L738.2,253.4 L738.3,251.2 L738.5,238.4 L738.7,263.0 L738.8,251.2 L739.0,235.2 L739.2,233.1 L739.3,240.5 L739.5,252.3 L739.7,249.1 L739.8,238.4 L740.0,249.1 L740.2,245.9 L740.3,252.3 L740.5,265.1 L740.7,249.1 L740.8,266.2 L741.0,283.3 L741.2,263.0 L741.3,239.5 L741.5,261.9 L741.7,240.5 L741.8,258.7 L742.0,260.8 L742.2,289.7 L742.3,269.4 L742.5,266.2 L742.7,261.9 L742.8,279.0 L743.0,274.7 L743.2,310.0 L743.3,285.4 L743.5,270.5 L743.7,276.9 L743.8,274.7 L744.0,302.5 L744.2,304.7 L744.4,295.0 L744.5,274.7 L744.7,286.5 L744.9,310.0 L745.0,292.9 L745.2,310.0 L745.4,283.3 L745.5,271.5 L745.7,286.5 L745.9,272.6 L746.0,264.1 L746.2,267.3 L746.4,254.4 L746.5,252.3 L746.7,254.4 L746.9,268.3 L747.0,263.0 L747.2,259.8 L747.4,267.3 L747.5,279.0 L747.7,270.5 L747.9,303.6 L748.0,271.5 L748.2,298.2 L748.4,267.3 L748.5,255.5 L748.7,276.9 L748.9,274.7 L749.0,275.8 L749.2,272.6 L749.4,296.1 L749.5,291.8 L749.7,273.7 L749.9,255.5 L750.0,273.7 L750.2,250.2 L750.4,245.9 L750.6,256.6 L750.7,276.9 L750.9,257.6 L751.1,275.8 L751.2,266.2 L751.4,273.7 L751.6,260.8 L751.7,255.5 L751.9,254.4 L752.1,254.4 L752.2,247.0 L752.4,255.5 L752.6,252.3 L752.7,263.0 L752.9,259.8 L753.1,254.4 L753.2,266.2 L753.4,254.4 L753.6,259.8 L753.7,264.1 L753.9,258.7 L754.1,265.1 L754.2,259.8 L754.4,271.5 L754.6,273.7 L754.7,259.8 L754.9,260.8 L755.1,268.3 L755.2,256.6 L755.4,269.4 L755.6,257.6 L755.7,247.0 L755.9,264.1 L756.1,283.3 L756.2,268.3 L756.4,269.4 L756.6,272.6 L756.8,254.4 L756.9,263.0 L757.1,277.9 L757.3,260.8 L757.4,287.6 L757.6,272.6 L757.8,269.4 L757.9,268.3 L758.1,252.3 L758.3,268.3 L758.4,283.3 L758.6,264.1 L758.8,266.2 L758.9,263.0 L759.1,243.8 L759.3,232.0 L759.4,253.4 L759.6,227.7 L759.8,253.4 L759.9,267.3 L760.1,244.8 L760.3,267.3 L760.4,244.8 L760.6,232.0 L760.8,247.0 L760.9,267.3 L761.1,247.0 L761.3,255.5 L761.4,257.6 L761.6,247.0 L761.8,270.5 L761.9,255.5 L762.1,270.5 L762.3,248.0 L762.4,254.4 L762.6,281.2 L762.8,296.1 L763.0,269.4 L763.1,289.7 L763.3,292.9 L763.5,310.0 L763.6,267.3 L763.8,285.4 L764.0,307.9 L764.1,280.1 L764.3,322.8 L764.5,296.1 L764.6,292.9 L764.8,275.8 L765.0,286.5 L765.1,275.8 L765.3,332.4 L765.5,308.9 L765.6,308.9 L765.8,313.2 L766.0,281.2 L766.1,281.2 L766.3,306.8 L766.5,275.8 L766.6,286.5 L766.8,282.2 L767.0,288.6 L767.1,269.4 L767.3,283.3 L767.5,282.2 L767.6,295.0 L767.8,272.6 L768.0,268.3 L768.1,285.4 L768.3,292.9 L768.5,307.9 L768.6,279.0 L768.8,304.7 L769.0,267.3 L769.2,272.6 L769.3,296.1 L769.5,297.2 L769.7,288.6 L769.8,277.9 L770.0,298.2 L770.2,296.1 L770.3,308.9 L770.5,281.2 L770.7,277.9 L770.8,295.0 L771.0,329.2 L771.2,282.2 L771.3,320.7 L771.5,292.9 L771.7,314.3 L771.8,303.6 L772.0,329.2 L772.2,283.3 L772.3,281.2 L772.5,315.3 L772.7,311.1 L772.8,289.7 L773.0,319.6 L773.2,274.7 L773.3,271.5 L773.5,292.9 L773.7,273.7 L773.8,310.0 L774.0,310.0 L774.2,301.5 L774.3,285.4 L774.5,276.9 L774.7,285.4 L774.8,285.4 L775.0,274.7 L775.2,275.8 L775.4,297.2 L775.5,276.9 L775.7,273.7 L775.9,273.7 L776.0,266.2 L776.2,287.6 L776.4,311.1 L776.5,298.2 L776.7,287.6 L776.9,264.1 L777.0,260.8 L777.2,268.3 L777.4,281.2 L777.5,302.5 L777.7,279.0 L777.9,298.2 L778.0,295.0 L778.2,307.9 L778.4,313.2 L778.5,323.9 L778.7,303.6 L778.9,301.5 L779.0,320.7 L779.2,280.1 L779.4,329.2 L779.5,308.9 L779.7,272.6 L779.9,292.9 L780.0,316.4 L780.2,342.1 L780.4,302.5 L780.5,282.2 L780.7,285.4 L780.9,277.9 L781.0,271.5 L781.2,272.6 L781.4,298.2 L781.6,301.5 L781.7,287.6 L781.9,286.5 L782.1,266.2 L782.2,295.0 L782.4,286.5 L782.6,268.3 L782.7,288.6 L782.9,277.9 L783.1,264.1 L783.2,276.9 L783.4,271.5 L783.6,314.3 L783.7,303.6 L783.9,275.8 L784.1,288.6 L784.2,272.6 L784.4,273.7 L784.6,292.9 L784.7,299.3 L784.9,280.1 L785.1,280.1 L785.2,260.8 L785.4,285.4 L785.6,269.4 L785.7,283.3 L785.9,285.4 L786.1,308.9 L786.2,314.3 L786.4,282.2 L786.6,263.0 L786.7,302.5 L786.9,286.5 L787.1,295.0 L787.2,265.1 L787.4,279.0 L787.6,277.9 L787.8,280.1 L787.9,279.0 L788.1,273.7 L788.3,263.0 L788.4,266.2 L788.6,282.2 L788.8,288.6 L788.9,259.8 L789.1,259.8 L789.3,290.8 L789.4,299.3 L789.6,272.6 L789.8,281.2 L789.9,286.5 L790.1,276.9 L790.3,281.2 L790.4,288.6 L790.6,284.4 L790.8,277.9 L790.9,290.8 L791.1,314.3 L791.3,280.1 L791.4,274.7 L791.6,285.4 L791.8,305.7 L791.9,325.0 L792.1,413.6 L792.3,313.2 L792.4,283.3 L792.6,350.6 L792.8,290.8 L792.9,307.9 L793.1,330.3 L793.3,294.0 L793.4,290.8 L793.6,280.1 L793.8,352.7 L794.0,307.9 L794.1,282.2 L794.3,280.1 L794.5,274.7 L794.6,268.3 L794.8,268.3 L795.0,265.1 L795.1,318.5 L795.3,277.9 L795.5,314.3 L795.6,267.3 L795.8,304.7 L796.0,298.2 L796.1,304.7 L796.3,295.0 L796.5,331.4 L796.6,337.8 L796.8,350.6 L797.0,320.7 L797.1,317.5 L797.3,301.5 L797.5,331.4 L797.6,349.5 L797.8,364.5 L798.0,298.2 L798.1,323.9 L798.3,331.4 L798.5,311.1 L798.6,295.0 L798.8,329.2 L799.0,302.5 L799.1,339.9 L799.3,303.6 L799.5,360.2 L799.6,307.9 L799.8,368.8 L800.0,282.2 L800.2,301.5 L800.3,368.8 L800.5,354.9 L800.7,316.4 L800.8,358.1 L801.0,316.4 L801.2,360.2 L801.3,290.8 L801.5,284.4 L801.7,323.9 L801.8,328.2 L802.0,349.5 L802.2,301.5 L802.3,346.3 L802.5,304.7 L802.7,331.4 L802.8,325.0 L803.0,312.1 L803.2,299.3 L803.3,296.1 L803.5,282.2 L803.7,312.1 L803.8,326.0 L804.0,334.6 L804.2,329.2 L804.3,303.6 L804.5,320.7 L804.7,279.0 L804.8,291.8 L805.0,316.4 L805.2,287.6 L805.3,330.3 L805.5,316.4 L805.7,273.7 L805.8,294.0 L806.0,306.8 L806.2,304.7 L806.4,269.4 L806.5,276.9 L806.7,302.5 L806.9,285.4 L807.0,287.6 L807.2,301.5 L807.4,279.0 L807.5,263.0 L807.7,261.9 L807.9,268.3 L808.0,267.3 L808.2,258.7 L808.4,286.5 L808.5,263.0 L808.7,265.1 L808.9,267.3 L809.0,287.6 L809.2,282.2 L809.4,270.5 L809.5,276.9 L809.7,294.0 L809.9,271.5 L810.0,274.7 L810.2,283.3 L810.4,294.0 L810.5,276.9 L810.7,294.0 L810.9,269.4 L811.0,283.3 L811.2,276.9 L811.4,251.2 L811.5,243.8 L811.7,243.8 L811.9,252.3 L812.0,237.3 L812.2,242.7 L812.4,258.7 L812.5,249.1 L812.7,263.0 L812.9,257.6 L813.1,281.2 L813.2,269.4 L813.4,261.9 L813.6,275.8 L813.7,282.2 L813.9,281.2 L814.1,289.7 L814.2,282.2 L814.4,289.7 L814.6,284.4 L814.7,296.1 L814.9,286.5 L815.1,276.9 L815.2,298.2 L815.4,292.9 L815.6,276.9 L815.7,280.1 L815.9,297.2 L816.1,290.8 L816.2,291.8 L816.4,270.5 L816.6,273.7 L816.7,263.0 L816.9,301.5 L817.1,264.1 L817.2,252.3 L817.4,241.6 L817.6,260.8 L817.7,258.7 L817.9,271.5 L818.1,248.0 L818.2,256.6 L818.4,258.7 L818.6,242.7 L818.7,254.4 L818.9,247.0 L819.1,245.9 L819.3,247.0 L819.4,248.0 L819.6,251.2 L819.8,243.8 L819.9,243.8 L820.1,249.1 L820.3,259.8 L820.4,250.2 L820.6,254.4 L820.8,257.6 L820.9,259.8 L821.1,277.9 L821.3,261.9 L821.4,264.1 L821.6,263.0 L821.8,274.7 L821.9,286.5 L822.1,270.5 L822.3,271.5 L822.4,272.6 L822.6,281.2 L822.8,304.7 L822.9,310.0 L823.1,319.6 L823.3,301.5 L823.4,307.9 L823.6,267.3 L823.8,288.6 L823.9,268.3 L824.1,297.2 L824.3,318.5 L824.4,288.6 L824.6,279.0 L824.8,277.9 L824.9,296.1 L825.1,269.4 L825.3,288.6 L825.5,290.8 L825.6,306.8 L825.8,294.0 L826.0,289.7 L826.1,314.3 L826.3,273.7 L826.5,276.9 L826.6,267.3 L826.8,289.7 L827.0,272.6 L827.1,275.8 L827.3,274.7 L827.5,271.5 L827.6,286.5 L827.8,285.4 L828.0,279.0 L828.1,274.7 L828.3,265.1 L828.5,280.1 L828.6,267.3 L828.8,303.6 L829.0,275.8 L829.1,271.5 L829.3,273.7 L829.5,284.4 L829.6,274.7 L829.8,255.5 L830.0,276.9 L830.1,272.6 L830.3,275.8 L830.5,272.6 L830.6,272.6 L830.8,297.2 L831.0,303.6 L831.1,300.4 L831.3,287.6 L831.5,290.8 L831.7,300.4 L831.8,290.8 L832.0,289.7 L832.2,277.9 L832.3,317.5 L832.5,321.8 L832.7,307.9 L832.8,304.7 L833.0,273.7 L833.2,291.8 L833.3,295.0 L833.5,292.9 L833.7,277.9 L833.8,315.3 L834.0,284.4 L834.2,269.4 L834.3,272.6 L834.5,304.7 L834.7,280.1 L834.8,301.5 L835.0,300.4 L835.2,273.7 L835.3,269.4 L835.5,300.4 L835.7,315.3 L835.8,329.2 L836.0,347.4 L836.2,310.0 L836.3,283.3 L836.5,314.3 L836.7,341.0 L836.8,339.9 L837.0,300.4 L837.2,292.9 L837.3,313.2 L837.5,288.6 L837.7,302.5 L837.9,274.7 L838.0,313.2 L838.2,276.9 L838.4,281.2 L838.5,305.7 L838.7,305.7 L838.9,286.5 L839.0,264.1 L839.2,289.7 L839.4,274.7 L839.5,298.2 L839.7,277.9 L839.9,268.3 L840.0,285.4 L840.2,334.6 L840.4,286.5 L840.5,322.8 L840.7,322.8 L840.9,267.3 L841.0,281.2 L841.2,296.1 L841.4,314.3 L841.5,296.1 L841.7,285.4 L841.9,322.8 L842.0,280.1 L842.2,310.0 L842.4,380.5 L842.5,290.8 L842.7,317.5 L842.9,284.4 L843.0,319.6 L843.2,308.9 L843.4,284.4 L843.5,311.1 L843.7,319.6 L843.9,299.3 L844.1,322.8 L844.2,279.0 L844.4,304.7 L844.6,334.6 L844.7,322.8 L844.9,291.8 L845.1,273.7 L845.2,294.0 L845.4,283.3 L845.6,344.2 L845.7,276.9 L845.9,299.3 L846.1,317.5 L846.2,307.9 L846.4,303.6 L846.6,300.4 L846.7,312.1 L846.9,275.8 L847.1,310.0 L847.2,286.5 L847.4,275.8 L847.6,288.6 L847.7,302.5 L847.9,274.7 L848.1,286.5 L848.2,272.6 L848.4,294.0 L848.6,263.0 L848.7,276.9 L848.9,267.3 L849.1,268.3 L849.2,258.7 L849.4,267.3 L849.6,252.3 L849.7,258.7 L849.9,249.1 L850.1,255.5 L850.3,256.6 L850.4,253.4 L850.6,250.2 L850.8,242.7 L850.9,249.1 L851.1,225.6 L851.3,223.5 L851.4,221.3 L851.6,225.6 L851.8,248.0 L851.9,247.0 L852.1,242.7 L852.3,243.8 L852.4,244.8 L852.6,237.3 L852.8,220.2 L852.9,243.8 L853.1,225.6 L853.3,235.2 L853.4,239.5 L853.6,245.9 L853.8,234.1 L853.9,242.7 L854.1,249.1 L854.3,249.1 L854.4,252.3 L854.6,243.8 L854.8,250.2 L854.9,252.3 L855.1,256.6 L855.3,239.5 L855.4,257.6 L855.6,247.0 L855.8,252.3 L855.9,258.7 L856.1,258.7 L856.3,256.6 L856.5,254.4 L856.6,266.2 L856.8,257.6 L857.0,275.8 L857.1,253.4 L857.3,274.7 L857.5,279.0 L857.6,272.6 L857.8,263.0 L858.0,267.3 L858.1,281.2 L858.3,290.8 L858.5,266.2 L858.6,256.6 L858.8,244.8 L859.0,251.2 L859.1,249.1 L859.3,234.1 L859.5,224.5 L859.6,249.1 L859.8,241.6 L860.0,257.6 L860.1,247.0 L860.3,254.4 L860.5,279.0 L860.6,260.8 L860.8,257.6 L861.0,252.3 L861.1,277.9 L861.3,258.7 L861.5,244.8 L861.6,252.3 L861.8,241.6 L862.0,252.3 L862.1,272.6 L862.3,257.6 L862.5,254.4 L862.7,248.0 L862.8,253.4 L863.0,249.1 L863.2,248.0 L863.3,205.3 L863.5,241.6 L863.7,208.5 L863.8,251.2 L864.0,206.4 L864.2,220.2 L864.3,234.1 L864.5,232.0 L864.7,227.7 L864.8,189.3 L865.0,195.7 L865.2,210.6 L865.3,253.4 L865.5,222.4 L865.7,250.2 L865.8,241.6 L866.0,238.4 L866.2,252.3 L866.3,235.2 L866.5,227.7 L866.7,248.0 L866.8,257.6 L867.0,247.0 L867.2,254.4 L867.3,260.8 L867.5,260.8 L867.7,267.3 L867.8,257.6 L868.0,255.5 L868.2,257.6 L868.3,263.0 L868.5,257.6 L868.7,261.9 L868.9,249.1 L869.0,272.6 L869.2,251.2 L869.4,240.5 L869.5,248.0 L869.7,210.6 L869.9,237.3 L870.0,242.7 L870.2,238.4 L870.4,213.8 L870.5,216.0 L870.7,243.8 L870.9,220.2 L871.0,219.2 L871.2,209.6 L871.4,207.4 L871.5,241.6 L871.7,221.3 L871.9,225.6 L872.0,247.0 L872.2,260.8 L872.4,248.0 L872.5,260.8 L872.7,260.8 L872.9,261.9 L873.0,247.0 L873.2,247.0 L873.4,245.9 L873.5,254.4 L873.7,253.4 L873.9,258.7 L874.0,256.6 L874.2,259.8 L874.4,244.8 L874.5,254.4 L874.7,263.0 L874.9,255.5 L875.1,257.6 L875.2,257.6 L875.4,284.4 L875.6,268.3 L875.7,258.7 L875.9,255.5 L876.1,268.3 L876.2,267.3 L876.4,259.8 L876.6,257.6 L876.7,261.9 L876.9,252.3 L877.1,266.2 L877.2,257.6 L877.4,253.4 L877.6,242.7 L877.7,243.8 L877.9,213.8 L878.1,199.9 L878.2,210.6 L878.4,211.7 L878.6,180.7 L878.7,177.5 L878.9,205.3 L879.1,198.9 L879.2,165.8 L879.4,147.6 L879.6,155.1 L879.7,169.0 L879.9,143.3 L880.1,159.3 L880.2,174.3 L880.4,203.2 L880.6,199.9 L880.7,194.6 L880.9,169.0 L881.1,146.5 L881.3,183.9 L881.4,158.3 L881.6,151.9 L881.8,185.0 L881.9,160.4 L882.1,214.9 L882.3,206.4 L882.4,191.4 L882.6,180.7 L882.8,204.2 L882.9,199.9 L883.1,216.0 L883.3,210.6 L883.4,195.7 L883.6,206.4 L883.8,202.1 L883.9,149.7 L884.1,199.9 L884.3,225.6 L884.4,201.0 L884.6,183.9 L884.8,190.3 L884.9,189.3 L885.1,201.0 L885.3,230.9 L885.4,219.2 L885.6,221.3 L885.8,214.9 L885.9,232.0 L886.1,181.8 L886.3,222.4 L886.4,202.1 L886.6,210.6 L886.8,201.0 L886.9,235.2 L887.1,207.4 L887.3,244.8 L887.5,223.5 L887.6,216.0 L887.8,234.1 L888.0,213.8 L888.1,212.8 L888.3,195.7 L888.5,236.3 L888.6,237.3 L888.8,238.4 L889.0,236.3 L889.1,205.3 L889.3,214.9 L889.5,207.4 L889.6,170.0 L889.8,208.5 L890.0,213.8 L890.1,223.5 L890.3,214.9 L890.5,210.6 L890.6,221.3 L890.8,171.1 L891.0,239.5 L891.1,218.1 L891.3,178.6 L891.5,224.5 L891.6,179.6 L891.8,227.7 L892.0,187.1 L892.1,238.4 L892.3,223.5 L892.5,214.9 L892.6,219.2 L892.8,207.4 L893.0,224.5 L893.1,249.1 L893.3,230.9 L893.5,212.8 L893.6,230.9 L893.8,222.4 L894.0,239.5 L894.2,226.7 L894.3,221.3 L894.5,230.9 L894.7,241.6 L894.8,243.8 L895.0,238.4 L895.2,226.7 L895.3,232.0 L895.5,248.0 L895.7,255.5 L895.8,248.0 L896.0,247.0 L896.2,232.0 L896.3,230.9 L896.5,224.5 L896.7,216.0 L896.8,233.1 L897.0,244.8 L897.2,196.7 L897.3,212.8 L897.5,230.9 L897.7,242.7 L897.8,223.5 L898.0,232.0 L898.2,240.5 L898.3,225.6 L898.5,233.1 L898.7,228.8 L898.8,216.0 L899.0,233.1 L899.2,233.1 L899.3,227.7 L899.5,252.3 L899.7,259.8 L899.8,274.7 L900.0,284.4 L900.2,302.5 L900.4,315.3 L900.5,314.3 L900.7,333.5 L900.9,329.2 L901.0,292.9 L901.2,357.0 L901.4,368.8 L901.5,349.5 L901.7,378.4 L901.9,343.1 L902.0,299.3 L902.2,406.2 L902.4,302.5 L902.5,341.0 L902.7,318.5 L902.9,300.4 L903.0,313.2 L903.2,408.3 L903.4,302.5 L903.5,312.1 L903.7,312.1 L903.9,333.5 L904.0,348.5 L904.2,378.4 L904.4,341.0 L904.5,439.3 L904.7,365.6 L904.9,333.5 L905.0,328.2 L905.2,337.8 L905.4,335.6 L905.5,321.8 L905.7,400.8 L905.9,414.7 L906.0,428.6 L906.2,374.1 L906.4,334.6 L906.6,421.1 L906.7,327.1 L906.9,347.4 L907.1,382.7 L907.2,428.6 L907.4,363.4 L907.6,361.3 L907.7,394.4 L907.9,392.3 L908.1,429.7 L908.2,421.1 L908.4,421.1 L908.6,353.8 L908.7,420.1 L908.9,315.3 L909.1,351.7 L909.2,406.2 L909.4,348.5 L909.6,394.4 L909.7,349.5 L909.9,333.5 L910.1,433.9 L910.2,349.5 L910.4,361.3 L910.6,331.4 L910.7,376.2 L910.9,312.1 L911.1,420.1 L911.2,417.9 L911.4,382.7 L911.6,363.4 L911.7,322.8 L911.9,351.7 L912.1,366.6 L912.2,348.5 L912.4,317.5 L912.6,411.5 L912.8,404.0 L912.9,417.9 L913.1,355.9 L913.3,346.3 L913.4,366.6 L913.6,439.3 L913.8,339.9 L913.9,435.0 L914.1,313.2 L914.3,416.8 L914.4,399.8 L914.6,329.2 L914.8,366.6 L914.9,327.1 L915.1,322.8 L915.3,415.8 L915.4,319.6 L915.6,432.9 L915.8,341.0 L915.9,377.3 L916.1,365.6 L916.3,412.6 L916.4,408.3 L916.6,405.1 L916.8,414.7 L916.9,374.1 L917.1,432.9 L917.3,317.5 L917.4,377.3 L917.6,544.0 L917.8,352.7 L917.9,361.3 L918.1,307.9 L918.3,417.9 L918.4,386.9 L918.6,404.0 L918.8,300.4 L919.0,323.9 L919.1,323.9 L919.3,386.9 L919.5,391.2 L919.6,345.3 L919.8,344.2 L920.0,406.2 L920.1,342.1 L920.3,331.4 L920.5,369.8 L920.6,362.4 L920.8,419.0 L921.0,391.2 L921.1,404.0 L921.3,405.1 L921.5,427.5 L921.6,414.7 L921.8,433.9 L922.0,376.2 L922.1,430.7 L922.3,336.7 L922.5,432.9 L922.6,333.5 L922.8,377.3 L923.0,323.9 L923.1,338.8 L923.3,322.8 L923.5,349.5 L923.6,335.6 L923.8,322.8 L924.0,331.4 L924.1,384.8 L924.3,344.2 L924.5,339.9 L924.6,369.8 L924.8,463.9 L925.0,367.7 L925.2,437.2 L925.3,380.5 L925.5,377.3 L925.7,375.2 L925.8,366.6 L926.0,325.0 L926.2,341.0 L926.3,379.5 L926.5,447.8 L926.7,410.4 L926.8,411.5 L927.0,341.0 L927.2,341.0 L927.3,421.1 L927.5,406.2 L927.7,368.8 L927.8,427.5 L928.0,392.3 L928.2,352.7 L928.3,413.6 L928.5,365.6 L928.7,376.2 L928.8,315.3 L929.0,391.2 L929.2,326.0 L929.3,388.0 L929.5,338.8 L929.7,302.5 L929.8,319.6 L930.0,344.2 L930.2,326.0 L930.3,289.7 L930.5,361.3 L930.7,359.2 L930.8,292.9 L931.0,362.4 L931.2,376.2 L931.4,303.6 L931.5,336.7 L931.7,289.7 L931.9,333.5 L932.0,301.5 L932.2,344.2 L932.4,315.3 L932.5,311.1 L932.7,332.4 L932.9,343.1 L933.0,347.4 L933.2,294.0 L933.4,297.2 L933.5,308.9 L933.7,291.8 L933.9,316.4 L934.0,298.2 L934.2,349.5 L934.4,342.1 L934.5,294.0 L934.7,379.5 L934.9,358.1 L935.0,367.7 L935.2,373.0 L935.4,384.8 L935.5,322.8 L935.7,358.1 L935.9,348.5 L936.0,357.0 L936.2,308.9 L936.4,310.0 L936.5,316.4 L936.7,302.5 L936.9,326.0 L937.0,317.5 L937.2,298.2 L937.4,294.0 L937.6,285.4 L937.7,305.7 L937.9,332.4 L938.1,287.6 L938.2,349.5 L938.4,277.9 L938.6,286.5 L938.7,301.5 L938.9,310.0 L939.1,274.7 L939.2,308.9 L939.4,306.8 L939.6,327.1 L939.7,330.3 L939.9,302.5 L940.1,325.0 L940.2,334.6 L940.4,350.6 L940.6,290.8 L940.7,310.0 L940.9,326.0 L941.1,299.3 L941.2,289.7 L941.4,287.6 L941.6,316.4 L941.7,327.1 L941.9,296.1 L942.1,304.7 L942.2,317.5 L942.4,308.9 L942.6,306.8 L942.7,423.3 L942.9,284.4 L943.1,275.8 L943.2,289.7 L943.4,266.2 L943.6,306.8 L943.8,273.7 L943.9,266.2 L944.1,286.5 L944.3,305.7 L944.4,285.4 L944.6,310.0 L944.8,289.7 L944.9,334.6 L945.1,317.5 L945.3,296.1 L945.4,303.6 L945.6,277.9 L945.8,276.9 L945.9,300.4 L946.1,290.8 L946.3,303.6 L946.4,275.8 L946.6,307.9 L946.8,316.4 L946.9,294.0 L947.1,285.4 L947.3,288.6 L947.4,328.2 L947.6,308.9 L947.8,276.9 L947.9,284.4 L948.1,306.8 L948.3,329.2 L948.4,294.0 L948.6,358.1 L948.8,338.8 L948.9,291.8 L949.1,277.9 L949.3,292.9 L949.4,358.1 L949.6,290.8 L949.8,299.3 L950.0,279.0 L950.1,341.0 L950.3,323.9 L950.5,330.3 L950.6,279.0 L950.8,351.7 L951.0,337.8 L951.1,313.2 L951.3,295.0 L951.5,289.7 L951.6,296.1 L951.8,303.6 L952.0,377.3 L952.1,367.7 L952.3,342.1 L952.5,323.9 L952.6,286.5 L952.8,313.2 L953.0,317.5 L953.1,313.2 L953.3,303.6 L953.5,276.9 L953.6,312.1 L953.8,344.2 L954.0,320.7 L954.1,286.5 L954.3,312.1 L954.5,351.7 L954.6,322.8 L954.8,317.5 L955.0,282.2 L955.1,351.7 L955.3,294.0 L955.5,287.6 L955.6,286.5 L955.8,291.8 L956.0,287.6 L956.2,273.7 L956.3,264.1 L956.5,301.5 L956.7,301.5 L956.8,287.6 L957.0,269.4 L957.2,318.5 L957.3,311.1 L957.5,336.7 L957.7,331.4 L957.8,287.6 L958.0,331.4 L958.2,316.4 L958.3,315.3 L958.5,319.6 L958.7,287.6 L958.8,311.1 L959.0,305.7 L959.2,289.7 L959.3,303.6 L959.5,310.0 L959.7,284.4 L959.8,312.1 L960.0,332.4 L960.2,351.7 L960.3,339.9 L960.5,374.1 L960.7,317.5 L960.8,362.4 L961.0,375.2 L961.2,290.8 L961.3,299.3 L961.5,351.7 L961.7,308.9 L961.8,305.7 L962.0,303.6 L962.2,310.0 L962.4,331.4 L962.5,321.8 L962.7,316.4 L962.9,303.6 L963.0,337.8 L963.2,319.6 L963.4,327.1 L963.5,331.4 L963.7,301.5 L963.9,321.8 L964.0,332.4 L964.2,285.4 L964.4,282.2 L964.5,307.9 L964.7,310.0 L964.9,292.9 L965.0,321.8 L965.2,307.9 L965.4,290.8 L965.5,296.1 L965.7,302.5 L965.9,349.5 L966.0,282.2 L966.2,314.3 L966.4,351.7 L966.5,308.9 L966.7,333.5 L966.9,319.6 L967.0,287.6 L967.2,281.2 L967.4,294.0 L967.5,277.9 L967.7,303.6 L967.9,337.8 L968.0,286.5 L968.2,280.1 L968.4,283.3 L968.5,310.0 L968.7,281.2 L968.9,298.2 L969.1,328.2 L969.2,298.2 L969.4,311.1 L969.6,301.5 L969.7,321.8 L969.9,316.4 L970.1,302.5 L970.2,320.7 L970.4,301.5 L970.6,368.8 L970.7,367.7 L970.9,297.2 L971.1,308.9 L971.2,376.2 L971.4,351.7 L971.6,348.5 L971.7,292.9 L971.9,313.2 L972.1,308.9 L972.2,364.5 L972.4,301.5 L972.6,352.7 L972.7,302.5 L972.9,366.6 L973.1,298.2 L973.2,304.7 L973.4,286.5 L973.6,288.6 L973.7,337.8 L973.9,344.2 L974.1,342.1 L974.2,357.0 L974.4,297.2 L974.6,307.9 L974.7,325.0 L974.9,376.2 L975.1,329.2 L975.3,345.3 L975.4,379.5 L975.6,306.8 L975.8,292.9 L975.9,314.3 L976.1,334.6 L976.3,292.9 L976.4,361.3 L976.6,329.2 L976.8,343.1 L976.9,345.3 L977.1,362.4 L977.3,380.5 L977.4,359.2 L977.6,341.0 L977.8,291.8 L977.9,331.4 L978.1,343.1 L978.3,314.3 L978.4,344.2 L978.6,331.4 L978.8,306.8 L978.9,304.7 L979.1,363.4 L979.3,388.0 L979.4,373.0 L979.6,370.9 L979.8,384.8 L979.9,295.0 L980.1,354.9 L980.3,299.3 L980.4,322.8 L980.6,316.4 L980.8,411.5 L980.9,329.2 L981.1,388.0 L981.3,320.7 L981.5,333.5 L981.6,330.3 L981.8,332.4 L982.0,339.9 L982.1,380.5 L982.3,364.5 L982.5,336.7 L982.6,376.2 L982.8,354.9 L983.0,344.2 L983.1,365.6 L983.3,311.1 L983.5,301.5 L983.6,399.8 L983.8,341.0 L984.0,302.5 L984.1,330.3 L984.3,397.6 L984.5,339.9 L984.6,339.9 L984.8,422.2 L985.0,325.0 L985.1,350.6 L985.3,342.1 L985.5,319.6 L985.6,358.1 L985.8,383.7 L986.0,314.3 L986.1,311.1 L986.3,326.0 L986.5,393.3 L986.6,355.9 L986.8,335.6 L987.0,334.6 L987.1,347.4 L987.3,344.2 L987.5,296.1 L987.7,341.0 L987.8,316.4 L988.0,306.8 L988.2,297.2 L988.3,279.0 L988.5,282.2 L988.7,277.9 L988.8,279.0 L989.0,304.7 L989.2,275.8 L989.3,317.5 L989.5,334.6 L989.7,343.1 L989.8,348.5 L990.0,333.5 L990.2,321.8 L990.3,319.6 L990.5,284.4 L990.7,326.0 L990.8,287.6 L991.0,302.5 L991.2,290.8 L991.3,272.6 L991.5,264.1 L991.7,279.0 L991.8,263.0 L992.0,248.0 L992.2,238.4 L992.3,250.2 L992.5,253.4 L992.7,242.7 L992.8,249.1 L993.0,232.0 L993.2,249.1 L993.3,243.8 L993.5,252.3 L993.7,233.1 L993.9,227.7 L994.0,213.8 L994.2,236.3 L994.4,233.1 L994.5,187.1 L994.7,183.9 L994.9,220.2 L995.0,237.3 L995.2,229.9 L995.4,177.5 L995.5,166.8 L995.7,206.4 L995.9,204.2 L996.0,237.3 L996.2,203.2 L996.4,232.0 L996.5,253.4 L996.7,223.5 L996.9,212.8 L997.0,207.4 L997.2,227.7 L997.4,204.2 L997.5,169.0 L997.7,179.6 L997.9,181.8 L998.0,185.0 L998.2,160.4 L998.4,235.2 L998.5,209.6 L998.7,190.3 L998.9,217.0 L999.0,223.5 L999.2,228.8 L999.4,199.9 L999.5,199.9 L999.7,233.1 L999.9,196.7 L1000.1,212.8 L1000.2,238.4 L1000.4,241.6 L1000.6,219.2 L1000.7,239.5 L1000.9,254.4 L1001.1,258.7 L1001.2,255.5 L1001.4,224.5 L1001.6,220.2 L1001.7,232.0 L1001.9,253.4 L1002.1,247.0 L1002.2,241.6 L1002.4,236.3 L1002.6,250.2 L1002.7,271.5 L1002.9,249.1 L1003.1,239.5 L1003.2,219.2 L1003.4,249.1 L1003.6,256.6 L1003.7,247.0 L1003.9,250.2 L1004.1,243.8 L1004.2,256.6 L1004.4,264.1 L1004.6,259.8 L1004.7,252.3 L1004.9,251.2 L1005.1,268.3 L1005.2,258.7 L1005.4,263.0 L1005.6,267.3 L1005.7,274.7 L1005.9,277.9 L1006.1,296.1 L1006.3,313.2 L1006.4,279.0 L1006.6,273.7 L1006.8,277.9 L1006.9,257.6 L1007.1,253.4 L1007.3,247.0 L1007.4,220.2 L1007.6,218.1 L1007.8,229.9 L1007.9,223.5 L1008.1,217.0 L1008.3,228.8 L1008.4,183.9 L1008.6,183.9 L1008.8,190.3 L1008.9,151.9 L1009.1,186.1 L1009.3,186.1 L1009.4,221.3 L1009.6,174.3 L1009.8,204.2 L1009.9,228.8 L1010.1,210.6 L1010.3,199.9 L1010.4,211.7 L1010.6,236.3 L1010.8,244.8 L1010.9,236.3 L1011.1,251.2 L1011.3,239.5 L1011.4,250.2 L1011.6,245.9 L1011.8,225.6 L1011.9,180.7 L1012.1,202.1 L1012.3,213.8 L1012.5,212.8 L1012.6,180.7 L1012.8,198.9 L1013.0,219.2 L1013.1,225.6 L1013.3,211.7 L1013.5,187.1 L1013.6,211.7 L1013.8,207.4 L1014.0,201.0 L1014.1,230.9 L1014.3,222.4 L1014.5,178.6 L1014.6,213.8 L1014.8,219.2 L1015.0,228.8 L1015.1,220.2 L1015.3,145.5 L1015.5,183.9 L1015.6,226.7 L1015.8,183.9 L1016.0,229.9 L1016.1,175.4 L1016.3,188.2 L1016.5,213.8 L1016.6,180.7 L1016.8,150.8 L1017.0,199.9 L1017.1,221.3 L1017.3,213.8 L1017.5,222.4 L1017.6,235.2 L1017.8,227.7 L1018.0,252.3 L1018.1,255.5 L1018.3,241.6 L1018.5,234.1 L1018.7,239.5 L1018.8,227.7 L1019.0,213.8 L1019.2,219.2 L1019.3,242.7 L1019.5,233.1 L1019.7,189.3 L1019.8,207.4 L1020.0,220.2 L1020.2,216.0 L1020.3,211.7 L1020.5,211.7 L1020.7,223.5 L1020.8,172.2 L1021.0,162.5 L1021.2,172.2 L1021.3,181.8 L1021.5,194.6 L1021.7,207.4 L1021.8,206.4 L1022.0,204.2 L1022.2,164.7 L1022.3,178.6 L1022.5,173.2 L1022.7,203.2 L1022.8,175.4 L1023.0,164.7 L1023.2,218.1 L1023.3,194.6 L1023.5,161.5 L1023.7,192.5 L1023.8,228.8 L1024.0,186.1 L1024.2,206.4 L1024.3,170.0 L1024.5,236.3 L1024.7,182.8 L1024.9,211.7 L1025.0,219.2 L1025.2,234.1 L1025.4,250.2 L1025.5,260.8 L1025.7,247.0 L1025.9,236.3 L1026.0,236.3 L1026.2,196.7 L1026.4,241.6 L1026.5,219.2 L1026.7,208.5 L1026.9,160.4 L1027.0,226.7 L1027.2,218.1 L1027.4,176.4 L1027.5,180.7 L1027.7,195.7 L1027.9,156.1 L1028.0,154.0 L1028.2,198.9 L1028.4,207.4 L1028.5,211.7 L1028.7,108.1 L1028.9,165.8 L1029.0,172.2 L1029.2,156.1 L1029.4,212.8 L1029.5,154.0 L1029.7,136.9 L1029.9,177.5 L1030.0,133.7 L1030.2,165.8 L1030.4,143.3 L1030.5,214.9 L1030.7,213.8 L1030.9,207.4 L1031.1,150.8 L1031.2,159.3 L1031.4,162.5 L1031.6,162.5 L1031.7,196.7 L1031.9,178.6 L1032.1,217.0 L1032.2,193.5 L1032.4,194.6 L1032.6,171.1 L1032.7,189.3 L1032.9,179.6 L1033.1,198.9 L1033.2,217.0 L1033.4,203.2 L1033.6,221.3 L1033.7,225.6 L1033.9,218.1 L1034.1,206.4 L1034.2,195.7 L1034.4,229.9 L1034.6,232.0 L1034.7,189.3 L1034.9,189.3 L1035.1,180.7 L1035.2,208.5 L1035.4,166.8 L1035.6,162.5 L1035.7,177.5 L1035.9,213.8 L1036.1,201.0 L1036.2,189.3 L1036.4,163.6 L1036.6,181.8 L1036.7,163.6 L1036.9,180.7 L1037.1,221.3 L1037.3,204.2 L1037.4,167.9 L1037.6,223.5 L1037.8,204.2 L1037.9,205.3 L1038.1,216.0 L1038.3,237.3 L1038.4,222.4 L1038.6,237.3 L1038.8,241.6 L1038.9,235.2 L1039.1,216.0 L1039.3,230.9 L1039.4,213.8 L1039.6,237.3 L1039.8,245.9 L1039.9,266.2 L1040.1,259.8 L1040.3,271.5 L1040.4,269.4 L1040.6,281.2 L1040.8,296.1 L1040.9,321.8 L1041.1,282.2 L1041.3,318.5 L1041.4,274.7 L1041.6,321.8 L1041.8,303.6 L1041.9,319.6 L1042.1,304.7 L1042.3,300.4 L1042.4,321.8 L1042.6,301.5 L1042.8,364.5 L1042.9,294.0 L1043.1,289.7 L1043.3,454.2 L1043.5,323.9 L1043.6,342.1 L1043.8,372.0 L1044.0,294.0 L1044.1,380.5 L1044.3,292.9 L1044.5,313.2 L1044.6,341.0 L1044.8,380.5 L1045.0,297.2 L1045.1,397.6 L1045.3,307.9 L1045.5,385.9 L1045.6,303.6 L1045.8,316.4 L1046.0,351.7 L1046.1,317.5 L1046.3,341.0 L1046.5,327.1 L1046.6,310.0 L1046.8,379.5 L1047.0,344.2 L1047.1,410.4 L1047.3,328.2 L1047.5,396.5 L1047.6,354.9 L1047.8,344.2 L1048.0,314.3 L1048.1,395.5 L1048.3,363.4 L1048.5,358.1 L1048.6,416.8 L1048.8,357.0 L1049.0,370.9 L1049.1,298.2 L1049.3,357.0 L1049.5,316.4 L1049.6,341.0 L1049.8,325.0 L1050.0,283.3 L1050.2,295.0 L1050.3,264.1 L1050.5,274.7 L1050.7,314.3 L1050.8,283.3 L1051.0,283.3 L1051.2,258.7 L1051.3,247.0 L1051.5,260.8 L1051.7,253.4 L1051.8,237.3 L1052.0,233.1 L1052.2,244.8 L1052.3,248.0 L1052.5,270.5 L1052.7,285.4 L1052.8,268.3 L1053.0,284.4 L1053.2,264.1 L1053.3,276.9 L1053.5,277.9 L1053.7,297.2 L1053.8,291.8 L1054.0,312.1 L1054.2,295.0 L1054.3,275.8 L1054.5,274.7 L1054.7,285.4 L1054.8,271.5 L1055.0,255.5 L1055.2,267.3 L1055.3,289.7 L1055.5,270.5 L1055.7,250.2 L1055.8,257.6 L1056.0,259.8 L1056.2,258.7 L1056.4,248.0 L1056.5,254.4 L1056.7,218.1 L1056.9,235.2 L1057.0,220.2 L1057.2,204.2 L1057.4,219.2 L1057.5,216.0 L1057.7,227.7 L1057.9,230.9 L1058.0,243.8 L1058.2,233.1 L1058.4,212.8 L1058.5,232.0 L1058.7,255.5 L1058.9,252.3 L1059.0,273.7 L1059.2,275.8 L1059.4,290.8 L1059.5,287.6 L1059.7,313.2 L1059.9,288.6 L1060.0,290.8 L1060.2,285.4 L1060.4,269.4 L1060.5,269.4 L1060.7,263.0 L1060.9,272.6 L1061.0,269.4 L1061.2,266.2 L1061.4,263.0 L1061.5,260.8 L1061.7,237.3 L1061.9,234.1 L1062.0,245.9 L1062.2,232.0 L1062.4,225.6 L1062.6,239.5 L1062.7,248.0 L1062.9,265.1 L1063.1,276.9 L1063.2,284.4 L1063.4,275.8 L1063.6,265.1 L1063.7,259.8 L1063.9,282.2 L1064.1,280.1 L1064.2,253.4 L1064.4,252.3 L1064.6,225.6 L1064.7,225.6 L1064.9,239.5 L1065.1,198.9 L1065.2,220.2 L1065.4,222.4 L1065.6,202.1 L1065.7,239.5 L1065.9,228.8 L1066.1,212.8 L1066.2,228.8 L1066.4,187.1 L1066.6,225.6 L1066.7,194.6 L1066.9,230.9 L1067.1,149.7 L1067.2,224.5 L1067.4,165.8 L1067.6,216.0 L1067.7,216.0 L1067.9,228.8 L1068.1,220.2 L1068.2,174.3 L1068.4,135.8 L1068.6,189.3 L1068.8,199.9 L1068.9,222.4 L1069.1,239.5 L1069.3,223.5 L1069.4,218.1 L1069.6,224.5 L1069.8,224.5 L1069.9,251.2 L1070.1,247.0 L1070.3,255.5 L1070.4,269.4 L1070.6,254.4 L1070.8,259.8 L1070.9,259.8 L1071.1,245.9 L1071.3,263.0 L1071.4,237.3 L1071.6,236.3 L1071.8,247.0 L1071.9,235.2 L1072.1,244.8 L1072.3,208.5 L1072.4,238.4 L1072.6,234.1 L1072.8,252.3 L1072.9,232.0 L1073.1,225.6 L1073.3,211.7 L1073.4,236.3 L1073.6,255.5 L1073.8,253.4 L1073.9,267.3 L1074.1,256.6 L1074.3,271.5 L1074.4,264.1 L1074.6,256.6 L1074.8,251.2 L1075.0,266.2 L1075.1,253.4 L1075.3,257.6 L1075.5,257.6 L1075.6,261.9 L1075.8,255.5 L1076.0,239.5 L1076.1,220.2 L1076.3,220.2 L1076.5,241.6 L1076.6,221.3 L1076.8,230.9 L1077.0,232.0 L1077.1,222.4 L1077.3,227.7 L1077.5,218.1 L1077.6,232.0 L1077.8,244.8 L1078.0,230.9 L1078.1,226.7 L1078.3,226.7 L1078.5,214.9 L1078.6,252.3 L1078.8,227.7 L1079.0,230.9 L1079.1,256.6 L1079.3,268.3 L1079.5,258.7 L1079.6,281.2 L1079.8,258.7 L1080.0,292.9 L1080.1,256.6 L1080.3,259.8 L1080.5,274.7 L1080.6,275.8 L1080.8,272.6 L1081.0,287.6 L1081.2,272.6 L1081.3,284.4 L1081.5,266.2 L1081.7,279.0 L1081.8,281.2 L1082.0,264.1 L1082.2,266.2 L1082.3,268.3 L1082.5,268.3 L1082.7,259.8 L1082.8,266.2 L1083.0,267.3 L1083.2,268.3 L1083.3,269.4 L1083.5,267.3 L1083.7,261.9 L1083.8,255.5 L1084.0,261.9" fill="none" stroke="#ff7f0e" stroke-width="1.1" opacity="0.85"/><text x="616" y="572" font-size="11" fill="#888">time 0..56 s — altitude (blue) &amp; roll (orange)</text></svg>