<svg xmlns="http://www.w3.org/2000/svg" width="1140" height="600" font-family="sans-serif" font-size="13"><rect width="1140" height="600" fill="white"/><text x="20" y="26" font-size="15" fill="#333">TMS-7 F15 — cross-wind 3 m/s (10% noise)</text><rect x="20" y="40" width="540" height="540" fill="#fbfbfb" stroke="#ddd"/><rect x="50" y="256" width="342" height="73" fill="#cde" stroke="#369" opacity="0.7"/><text x="50" y="251" fill="#369" font-size="12">landing zone</text><circle cx="266" cy="371" r="5" fill="black"/><text x="274" y="375" font-size="12">pad</text><path d="M266.0,370.8 L266.0,370.8 L266.0,370.8 L266.0,370.8 L266.0,370.8 L266.0,370.8 L266.0,370.8 L266.0,370.8 L266.0,370.8 L266.0,370.8 L266.0,370.8 L266.0,370.8 L266.0,370.8 L266.0,370.8 L266.0,370.8 L266.0,370.8 L266.0,370.8 L266.0,370.8 L266.0,370.8 L266.0,370.8 L266.0,370.8 L266.0,370.8 L266.0,370.8 L266.0,370.8 L266.0,370.8 L266.0,370.8 L266.0,370.8 L266.0,370.8 L266.0,370.8 L266.0,370.8 L266.0,370.8 L266.0,370.8 L266.0,370.8 L266.0,370.8 L266.0,370.8 L266.0,370.8 L266.0,370.8 L266.0,370.8 L266.0,370.8 L266.0,370.8 L266.0,370.8 L266.0,370.8 L266.0,370.8 L266.0,370.8 L266.0,370.8 L266.0,370.8 L266.0,370.8 L266.0,370.8 L266.0,370.8 L266.0,370.8 L266.0,370.8 L266.0,370.8 L266.0,370.8 L266.0,370.8 L266.0,370.8 L266.0,370.8 L266.0,370.8 L266.0,370.8 L267.1,369.0 L268.2,366.9 L269.5,364.9 L271.0,362.9 L272.3,361.1 L273.8,359.0 L275.2,357.2 L276.9,355.4 L278.5,353.5 L280.2,351.9 L282.0,350.1 L283.7,348.4 L285.5,346.8 L287.5,345.4 L289.4,343.8 L291.4,342.3 L293.2,340.7 L295.2,339.3 L297.3,337.9 L299.3,336.6 L301.3,335.2 L303.5,333.8 L305.5,332.6 L307.7,331.4 L309.9,330.1 L311.9,328.9 L314.1,327.7 L316.3,326.5 L318.4,325.1 L320.6,323.8 L322.6,322.4 L324.6,321.0 L326.4,319.4 L328.3,317.7 L330.1,316.1 L331.9,314.5 L333.6,312.8 L335.2,311.0 L336.7,309.0 L338.2,307.2 L339.7,305.1 L340.9,303.3 L342.2,301.1 L343.3,299.0 L344.4,297.0 L345.5,294.7 L346.4,292.5 L347.4,290.3 L348.1,288.0 L348.8,285.6 L349.4,283.4 L349.9,280.9 L350.5,278.5 L350.8,276.0 L351.0,273.6 L351.2,271.2 L351.4,268.7 L351.4,266.3 L351.4,263.8 L351.2,261.2 L351.0,258.7 L350.7,256.3 L350.3,253.9 L349.9,251.2 L349.6,248.8 L349.2,246.3 L348.8,243.7 L348.6,241.3 L348.5,238.8 L348.3,236.4 L348.3,233.7 L348.5,231.3 L348.6,228.8 L348.8,226.4 L349.2,224.0 L349.6,221.5 L350.1,219.3 L350.7,216.8 L351.4,214.6 L352.1,212.2 L352.9,209.9 L353.8,207.7 L354.9,205.5 L356.0,203.4 L357.1,201.2 L358.4,199.2 L359.7,197.1 L360.9,195.1 L362.4,193.3 L363.9,191.2 L365.5,189.4 L367.2,187.8 L368.8,185.9 L370.7,184.3 L372.5,182.7 L374.3,181.3 L376.4,179.6 L378.4,178.2 L380.4,177.0 L382.6,175.8 L384.8,174.5 L387.0,173.3 L389.2,172.3 L391.6,171.3 L394.0,170.5 L396.4,169.5 L398.8,168.8 L401.3,168.0 L403.7,167.6 L406.3,167.0 L408.9,166.6 L411.4,166.2 L414.2,166.0 L416.7,165.8 L419.3,165.6 L422.1,165.6 L424.8,165.8 L427.6,165.8 L430.1,166.2 L432.9,166.4 L435.7,166.8 L438.4,167.4 L441.2,168.0 L443.9,168.6 L446.7,169.5 L449.4,170.3 L452.2,171.1 L454.7,172.3 L457.5,173.3 L460.2,174.5 L462.8,175.8 L465.4,177.2 L468.1,178.6 L470.7,180.0 L473.3,181.7 L475.7,183.5 L478.2,185.1 L480.6,187.2 L483.2,189.0 L485.6,191.0 L487.8,193.0 L490.2,195.3 L492.4,197.5 L494.6,199.8 L496.8,202.2 L498.8,204.6 L500.8,207.1 L502.8,209.7 L504.9,212.4 L506.7,215.0 L508.5,217.9 L510.2,220.7 L511.8,223.6 L513.5,226.6 L515.1,229.5 L516.6,232.5 L517.9,235.8 L519.4,238.8 L520.5,242.1 L521.7,245.3 L522.8,248.6 L523.9,251.8 L524.9,255.3 L525.8,258.5 L526.5,262.0 L527.2,265.5 L527.8,268.9 L528.3,272.6 L528.9,276.0 L529.3,279.5 L529.6,283.2 L529.8,286.8 L529.8,290.3 L530.0,293.9 L529.8,297.6 L529.8,301.3 L529.6,304.9 L529.3,308.6 L528.9,312.2 L528.3,315.7 L527.8,319.4 L527.2,323.0 L526.5,326.7 L525.6,330.3 L524.7,333.8 L523.8,337.5 L522.7,340.9 L521.6,344.6 L520.3,348.0 L519.0,351.5 L517.5,354.9 L516.0,358.4 L514.6,361.7 L512.9,365.1 L511.3,368.4 L509.4,371.6 L507.6,374.9 L505.8,378.1 L503.8,381.2 L501.5,384.2 L499.5,387.3 L497.3,390.3 L494.9,393.4 L492.7,396.2 L490.4,399.1 L487.8,401.9 L485.4,404.6 L482.8,407.2 L480.1,409.9 L477.5,412.3 L474.7,415.0 L472.0,417.2 L469.1,419.6 L466.1,421.9 L463.4,424.1 L460.2,426.3 L457.9,428.0 L455.3,429.6 L452.7,431.2 L450.2,432.8 L447.6,434.5 L444.8,435.9 L442.3,437.3 L439.5,438.7 L436.9,440.0 L434.2,441.2 L431.4,442.4 L428.7,443.6 L425.9,444.6 L423.2,445.7 L420.4,446.7 L417.7,447.5 L414.7,448.5 L412.0,449.1 L409.2,449.9 L406.3,450.5 L403.5,451.4 L400.8,451.8 L397.8,452.4 L395.1,452.8 L392.1,453.2 L389.4,453.6 L386.6,453.8 L383.7,454.0 L381.0,454.2 L378.2,454.4 L375.3,454.4 L372.5,454.4 L369.8,454.4 L367.0,454.2 L364.2,454.0 L361.5,453.8 L358.7,453.6 L356.2,453.2" fill="none" stroke="#1f77b4" stroke-width="1.7" opacity="0.85"/><circle cx="356" cy="453" r="4.5" fill="#1f77b4"/><text x="28" y="572" font-size="11" fill="#888">ground track — m from pad (N up)</text><rect x="580" y="40" width="540" height="540" fill="#fbfbfb" stroke="#ddd"/><text x="586" y="54" fill="#1f77b4" font-size="11">alt 301</text><text x="586" y="558" fill="#1f77b4" font-size="11">2</text><path d="M616.0,544.0 L616.3,543.5 L616.5,543.3 L616.8,543.3 L617.0,543.0 L617.3,543.8 L617.6,542.9 L617.8,542.9 L618.1,542.8 L618.4,543.4 L618.6,542.4 L618.9,542.9 L619.1,542.6 L619.4,541.7 L619.7,541.5 L619.9,542.3 L620.2,541.0 L620.4,541.6 L620.7,541.5 L621.0,541.3 L621.2,539.9 L621.5,539.9 L621.7,539.8 L622.0,540.1 L622.3,539.8 L622.5,539.5 L622.8,539.3 L623.1,537.7 L623.3,537.9 L623.6,537.8 L623.8,535.7 L624.1,536.2 L624.4,536.1 L624.6,536.5 L624.9,533.9 L625.1,534.0 L625.4,533.1 L625.7,531.8 L625.9,533.0 L626.2,530.5 L626.4,532.0 L626.7,531.0 L627.0,530.3 L627.2,530.1 L627.5,527.4 L627.8,526.5 L628.0,527.0 L628.3,528.7 L628.5,527.2 L628.8,527.0 L629.1,524.7 L629.3,523.0 L629.6,521.3 L629.8,521.1 L630.1,523.5 L630.4,518.5 L630.6,522.0 L630.9,521.3 L631.1,515.6 L631.4,519.9 L631.7,514.7 L631.9,515.2 L632.2,514.4 L632.5,516.4 L632.7,513.8 L633.0,512.3 L633.2,510.0 L633.5,513.9 L633.8,508.1 L634.0,508.3 L634.3,510.3 L634.5,508.4 L634.8,501.8 L635.1,508.0 L635.3,499.1 L635.6,503.7 L635.8,496.7 L636.1,499.2 L636.4,494.5 L636.6,493.4 L636.9,500.1 L637.2,498.2 L637.4,491.7 L637.7,493.4 L637.9,486.4 L638.2,484.8 L638.5,486.5 L638.7,489.0 L639.0,482.1 L639.2,486.7 L639.5,480.5 L639.8,479.2 L640.0,480.0 L640.3,475.7 L640.5,484.0 L640.8,481.8 L641.1,481.0 L641.3,480.8 L641.6,468.8 L641.9,470.5 L642.1,466.4 L642.4,475.9 L642.6,468.2 L642.9,459.4 L643.2,472.7 L643.4,468.5 L643.7,459.0 L643.9,465.8 L644.2,466.9 L644.5,463.1 L644.7,464.2 L645.0,450.1 L645.2,446.4 L645.5,459.0 L645.8,455.6 L646.0,447.5 L646.3,438.7 L646.6,438.5 L646.8,438.0 L647.1,446.4 L647.3,429.0 L647.6,445.5 L647.9,440.3 L648.1,433.4 L648.4,440.5 L648.6,431.7 L648.9,424.4 L649.2,425.7 L649.4,423.8 L649.7,411.8 L650.0,415.8 L650.2,422.3 L650.5,430.8 L650.7,421.9 L651.0,419.1 L651.3,421.7 L651.5,423.3 L651.8,402.5 L652.0,396.8 L652.3,393.8 L652.6,394.9 L652.8,415.5 L653.1,396.6 L653.3,394.9 L653.6,406.8 L653.9,380.5 L654.1,378.8 L654.4,378.9 L654.7,385.6 L654.9,369.6 L655.2,391.6 L655.4,372.9 L655.7,365.2 L656.0,385.5 L656.2,362.3 L656.5,381.0 L656.7,379.1 L657.0,386.3 L657.3,349.5 L657.5,352.9 L657.8,348.0 L658.0,351.4 L658.3,356.7 L658.6,339.8 L658.8,359.8 L659.1,339.0 L659.4,356.5 L659.6,360.0 L659.9,364.8 L660.1,329.2 L660.4,339.5 L660.7,329.5 L660.9,346.7 L661.2,334.6 L661.4,326.7 L661.7,345.6 L662.0,345.9 L662.2,317.8 L662.5,306.2 L662.7,316.4 L663.0,311.3 L663.3,296.3 L663.5,294.1 L663.8,292.3 L664.1,294.3 L664.3,316.0 L664.6,313.8 L664.8,298.8 L665.1,294.0 L665.4,308.8 L665.6,296.8 L665.9,313.6 L666.1,275.1 L666.4,285.7 L666.7,304.9 L666.9,288.6 L667.2,262.5 L667.4,304.6 L667.7,292.3 L668.0,264.2 L668.2,251.5 L668.5,249.4 L668.8,255.7 L669.0,272.0 L669.3,260.4 L669.5,275.5 L669.8,251.5 L670.1,262.8 L670.3,245.5 L670.6,278.9 L670.8,266.9 L671.1,256.8 L671.4,260.9 L671.6,240.9 L671.9,265.4 L672.1,265.2 L672.4,265.5 L672.7,258.7 L672.9,224.8 L673.2,228.3 L673.5,223.6 L673.7,221.6 L674.0,232.7 L674.2,262.8 L674.5,201.8 L674.8,261.8 L675.0,224.3 L675.3,218.6 L675.5,252.0 L675.8,246.7 L676.1,238.9 L676.3,190.4 L676.6,224.1 L676.9,234.5 L677.1,228.5 L677.4,191.6 L677.6,226.4 L677.9,196.4 L678.2,215.5 L678.4,186.7 L678.7,195.2 L678.9,191.1 L679.2,173.2 L679.5,233.6 L679.7,220.8 L680.0,202.0 L680.2,205.5 L680.5,228.5 L680.8,181.6 L681.0,166.4 L681.3,214.7 L681.6,158.3 L681.8,204.6 L682.1,164.2 L682.3,212.4 L682.6,150.7 L682.9,194.8 L683.1,143.4 L683.4,192.9 L683.6,203.9 L683.9,177.8 L684.2,142.9 L684.4,194.8 L684.7,186.6 L684.9,170.3 L685.2,194.6 L685.5,184.7 L685.7,184.2 L686.0,171.0 L686.3,157.1 L686.5,129.8 L686.8,121.4 L687.0,132.7 L687.3,135.6 L687.6,172.3 L687.8,147.7 L688.1,135.6 L688.3,183.4 L688.6,125.6 L688.9,139.9 L689.1,139.5 L689.4,132.1 L689.6,181.4 L689.9,166.8 L690.2,105.5 L690.4,140.6 L690.7,144.9 L691.0,168.3 L691.2,99.0 L691.5,95.9 L691.7,128.2 L692.0,94.8 L692.3,119.9 L692.5,99.2 L692.8,125.1 L693.0,157.0 L693.3,152.2 L693.6,106.7 L693.8,144.2 L694.1,86.9 L694.3,91.3 L694.6,120.2 L694.9,151.5 L695.1,103.0 L695.4,159.2 L695.7,84.2 L695.9,139.2 L696.2,123.8 L696.4,136.1 L696.7,114.6 L697.0,144.9 L697.2,103.7 L697.5,126.6 L697.7,106.3 L698.0,127.3 L698.3,89.3 L698.5,125.5 L698.8,76.0 L699.0,76.1 L699.3,111.9 L699.6,160.0 L699.8,106.3 L700.1,76.2 L700.4,107.5 L700.6,129.1 L700.9,109.7 L701.1,159.3 L701.4,102.6 L701.7,105.8 L701.9,86.8 L702.2,76.7 L702.4,141.2 L702.7,96.9 L703.0,120.0 L703.2,91.4 L703.5,127.5 L703.7,151.0 L704.0,144.1 L704.3,78.4 L704.5,157.6 L704.8,141.1 L705.1,94.8 L705.3,145.4 L705.6,104.1 L705.8,83.0 L706.1,95.0 L706.4,96.4 L706.6,144.5 L706.9,114.2 L707.1,161.3 L707.4,135.3 L707.7,98.0 L707.9,146.4 L708.2,99.4 L708.5,123.7 L708.7,119.1 L709.0,152.7 L709.2,157.0 L709.5,98.0 L709.8,104.3 L710.0,150.0 L710.3,135.7 L710.5,104.0 L710.8,152.1 L711.1,106.8 L711.3,124.2 L711.6,146.0 L711.8,135.3 L712.1,128.2 L712.4,143.2 L712.6,80.8 L712.9,156.9 L713.2,137.9 L713.4,113.0 L713.7,115.8 L713.9,130.0 L714.2,145.0 L714.5,88.0 L714.7,144.1 L715.0,80.3 L715.2,133.9 L715.5,154.0 L715.8,106.2 L716.0,92.1 L716.3,134.1 L716.5,146.3 L716.8,89.4 L717.1,106.3 L717.3,89.3 L717.6,149.4 L717.9,118.4 L718.1,139.6 L718.4,157.6 L718.6,145.2 L718.9,124.7 L719.2,140.9 L719.4,124.0 L719.7,121.1 L719.9,120.1 L720.2,92.2 L720.5,100.3 L720.7,148.2 L721.0,107.5 L721.2,99.8 L721.5,136.1 L721.8,127.3 L722.0,137.0 L722.3,115.6 L722.6,104.6 L722.8,90.9 L723.1,92.6 L723.3,101.3 L723.6,141.7 L723.9,144.0 L724.1,163.2 L724.4,131.0 L724.6,114.8 L724.9,87.2 L725.2,145.2 L725.4,152.9 L725.7,107.9 L725.9,98.3 L726.2,118.2 L726.5,103.3 L726.7,160.5 L727.0,103.7 L727.3,155.0 L727.5,155.9 L727.8,132.5 L728.0,124.6 L728.3,156.9 L728.6,101.6 L728.8,90.0 L729.1,166.5 L729.3,145.1 L729.6,165.8 L729.9,111.3 L730.1,92.6 L730.4,137.7 L730.6,101.7 L730.9,127.0 L731.2,109.8 L731.4,117.4 L731.7,149.9 L732.0,135.4 L732.2,162.3 L732.5,114.1 L732.7,102.1 L733.0,152.5 L733.3,103.1 L733.5,144.6 L733.8,127.9 L734.0,127.6 L734.3,148.2 L734.6,128.2 L734.8,154.7 L735.1,128.8 L735.4,159.9 L735.6,121.7 L735.9,88.1 L736.1,155.8 L736.4,130.9 L736.7,108.7 L736.9,133.4 L737.2,101.4 L737.4,136.0 L737.7,143.2 L738.0,167.2 L738.2,158.3 L738.5,170.1 L738.7,137.2 L739.0,162.3 L739.3,166.2 L739.5,165.0 L739.8,166.8 L740.1,120.9 L740.3,117.7 L740.6,166.1 L740.8,103.4 L741.1,134.6 L741.4,141.6 L741.6,137.9 L741.9,140.4 L742.1,104.2 L742.4,155.7 L742.7,89.8 L742.9,164.8 L743.2,148.1 L743.4,132.4 L743.7,96.1 L744.0,140.7 L744.2,104.3 L744.5,138.4 L744.8,118.3 L745.0,154.6 L745.3,167.9 L745.5,146.9 L745.8,163.1 L746.1,98.8 L746.3,101.9 L746.6,147.9 L746.8,113.9 L747.1,159.4 L747.4,95.0 L747.6,131.2 L747.9,164.5 L748.1,159.1 L748.4,113.3 L748.7,131.4 L748.9,117.4 L749.2,108.6 L749.5,122.8 L749.7,106.9 L750.0,141.2 L750.2,174.6 L750.5,174.3 L750.8,130.9 L751.0,174.3 L751.3,106.2 L751.5,134.1 L751.8,107.4 L752.1,172.9 L752.3,135.6 L752.6,132.0 L752.8,140.1 L753.1,123.0 L753.4,175.7 L753.6,161.2 L753.9,107.4 L754.2,147.0 L754.4,148.3 L754.7,103.6 L754.9,103.4 L755.2,132.5 L755.5,158.7 L755.7,143.0 L756.0,144.5 L756.2,169.1 L756.5,136.7 L756.8,120.7 L757.0,134.5 L757.3,159.7 L757.5,179.5 L757.8,109.4 L758.1,116.7 L758.3,122.7 L758.6,170.4 L758.9,104.4 L759.1,120.8 L759.4,111.7 L759.6,164.5 L759.9,150.3 L760.2,159.8 L760.4,155.8 L760.7,109.6 L760.9,114.6 L761.2,176.1 L761.5,178.2 L761.7,154.8 L762.0,129.6 L762.2,150.5 L762.5,170.2 L762.8,142.6 L763.0,163.8 L763.3,108.0 L763.6,134.2 L763.8,107.4 L764.1,127.5 L764.3,163.7 L764.6,181.7 L764.9,126.4 L765.1,134.5 L765.4,124.7 L765.6,107.6 L765.9,111.2 L766.2,148.7 L766.4,132.6 L766.7,117.0 L767.0,178.0 L767.2,117.4 L767.5,176.5 L767.7,116.7 L768.0,119.2 L768.3,180.7 L768.5,141.7 L768.8,119.5 L769.0,113.7 L769.3,162.7 L769.6,133.4 L769.8,150.3 L770.1,171.7 L770.3,174.5 L770.6,111.5 L770.9,139.4 L771.1,174.8 L771.4,161.8 L771.7,181.8 L771.9,179.4 L772.2,138.3 L772.4,150.9 L772.7,163.3 L773.0,172.1 L773.2,118.9 L773.5,129.1 L773.7,115.7 L774.0,118.3 L774.3,182.7 L774.5,148.2 L774.8,158.0 L775.0,155.7 L775.3,125.2 L775.6,169.7 L775.8,172.5 L776.1,128.0 L776.4,129.9 L776.6,188.1 L776.9,189.4 L777.1,122.7 L777.4,176.9 L777.7,184.0 L777.9,114.3 L778.2,176.3 L778.4,165.2 L778.7,190.4 L779.0,146.6 L779.2,131.9 L779.5,162.4 L779.7,125.1 L780.0,142.2 L780.3,122.1 L780.5,186.9 L780.8,119.2 L781.1,185.2 L781.3,180.6 L781.6,185.5 L781.8,180.4 L782.1,152.0 L782.4,145.7 L782.6,126.1 L782.9,160.5 L783.1,149.7 L783.4,176.0 L783.7,185.7 L783.9,187.4 L784.2,156.1 L784.4,134.9 L784.7,141.1 L785.0,173.6 L785.2,181.0 L785.5,185.3 L785.8,125.9 L786.0,152.5 L786.3,167.7 L786.5,169.4 L786.8,169.3 L787.1,126.5 L787.3,152.3 L787.6,128.2 L787.8,188.2 L788.1,156.2 L788.4,127.9 L788.6,172.5 L788.9,158.4 L789.1,129.1 L789.4,130.2 L789.7,181.5 L789.9,140.6 L790.2,175.0 L790.5,156.5 L790.7,136.9 L791.0,146.8 L791.2,160.8 L791.5,159.3 L791.8,195.6 L792.0,177.9 L792.3,163.8 L792.5,149.1 L792.8,195.9 L793.1,190.4 L793.3,194.3 L793.6,195.7 L793.9,162.2 L794.1,137.4 L794.4,203.6 L794.6,133.7 L794.9,170.0 L795.2,142.6 L795.4,136.6 L795.7,134.2 L795.9,196.8 L796.2,192.1 L796.5,201.8 L796.7,174.2 L797.0,131.4 L797.2,176.7 L797.5,136.6 L797.8,137.9 L798.0,133.2 L798.3,145.7 L798.6,155.4 L798.8,192.5 L799.1,195.9 L799.3,163.7 L799.6,181.5 L799.9,201.8 L800.1,147.8 L800.4,156.6 L800.6,196.7 L800.9,144.7 L801.2,181.7 L801.4,150.0 L801.7,170.0 L801.9,188.7 L802.2,171.7 L802.5,201.0 L802.7,146.1 L803.0,171.3 L803.3,149.8 L803.5,147.3 L803.8,200.5 L804.0,168.4 L804.3,146.8 L804.6,167.1 L804.8,146.6 L805.1,155.7 L805.3,196.4 L805.6,146.1 L805.9,168.3 L806.1,192.2 L806.4,195.0 L806.6,141.3 L806.9,153.6 L807.2,161.2 L807.4,179.6 L807.7,173.0 L808.0,150.5 L808.2,201.0 L808.5,210.5 L808.7,162.9 L809.0,147.1 L809.3,196.8 L809.5,164.2 L809.8,158.2 L810.0,193.4 L810.3,151.5 L810.6,142.6 L810.8,207.9 L811.1,146.9 L811.3,145.8 L811.6,205.1 L811.9,205.8 L812.1,172.7 L812.4,197.3 L812.7,192.1 L812.9,156.2 L813.2,159.5 L813.4,197.9 L813.7,184.4 L814.0,165.1 L814.2,184.7 L814.5,157.7 L814.7,167.7 L815.0,194.7 L815.3,192.2 L815.5,190.1 L815.8,171.8 L816.0,206.6 L816.3,173.3 L816.6,177.1 L816.8,195.6 L817.1,184.3 L817.4,199.5 L817.6,182.0 L817.9,159.4 L818.1,153.0 L818.4,150.7 L818.7,173.6 L818.9,160.1 L819.2,217.1 L819.4,165.7 L819.7,158.5 L820.0,198.3 L820.2,181.7 L820.5,218.3 L820.7,201.9 L821.0,168.7 L821.3,190.7 L821.5,156.2 L821.8,213.0 L822.1,225.1 L822.3,168.6 L822.6,172.4 L822.8,224.4 L823.1,177.1 L823.4,221.4 L823.6,182.8 L823.9,226.5 L824.1,187.6 L824.4,204.7 L824.7,189.0 L824.9,172.4 L825.2,225.4 L825.5,222.7 L825.7,179.8 L826.0,159.4 L826.2,183.8 L826.5,165.8 L826.8,183.5 L827.0,218.5 L827.3,192.4 L827.5,204.5 L827.8,183.9 L828.1,214.9 L828.3,226.3 L828.6,197.9 L828.8,187.8 L829.1,230.8 L829.4,166.3 L829.6,219.0 L829.9,188.5 L830.2,164.3 L830.4,204.4 L830.7,166.8 L830.9,199.4 L831.2,212.9 L831.5,181.4 L831.7,219.3 L832.0,179.8 L832.2,180.4 L832.5,168.6 L832.8,192.4 L833.0,194.2 L833.3,227.5 L833.5,192.1 L833.8,193.0 L834.1,222.6 L834.3,182.2 L834.6,177.6 L834.9,216.7 L835.1,227.6 L835.4,194.9 L835.6,207.9 L835.9,208.4 L836.2,200.4 L836.4,202.3 L836.7,226.3 L836.9,207.7 L837.2,222.8 L837.5,233.2 L837.7,227.1 L838.0,228.5 L838.2,218.9 L838.5,205.2 L838.8,217.0 L839.0,174.5 L839.3,202.8 L839.6,230.3 L839.8,188.4 L840.1,241.0 L840.3,184.6 L840.6,216.3 L840.9,183.5 L841.1,190.3 L841.4,211.6 L841.6,223.1 L841.9,229.6 L842.2,181.9 L842.4,216.0 L842.7,226.2 L842.9,233.1 L843.2,200.2 L843.5,239.3 L843.7,241.8 L844.0,200.0 L844.3,184.0 L844.5,183.2 L844.8,183.7 L845.0,213.8 L845.3,215.4 L845.6,214.8 L845.8,224.7 L846.1,199.8 L846.3,233.6 L846.6,183.1 L846.9,212.7 L847.1,233.0 L847.4,194.6 L847.6,188.1 L847.9,220.5 L848.2,206.6 L848.4,196.9 L848.7,201.8 L849.0,216.8 L849.2,208.7 L849.5,188.5 L849.7,200.3 L850.0,191.3 L850.3,239.8 L850.5,209.1 L850.8,213.0 L851.0,228.1 L851.3,233.2 L851.6,223.4 L851.8,209.2 L852.1,228.7 L852.4,240.8 L852.6,211.8 L852.9,210.4 L853.1,213.4 L853.4,209.7 L853.7,249.0 L853.9,208.6 L854.2,215.0 L854.4,251.0 L854.7,197.3 L855.0,217.6 L855.2,240.2 L855.5,243.3 L855.7,201.1 L856.0,221.2 L856.3,242.5 L856.5,229.6 L856.8,235.4 L857.1,211.2 L857.3,253.3 L857.6,254.0 L857.8,234.7 L858.1,243.2 L858.4,210.7 L858.6,235.6 L858.9,215.8 L859.1,241.3 L859.4,218.2 L859.7,241.6 L859.9,202.5 L860.2,234.5 L860.4,240.5 L860.7,200.3 L861.0,262.3 L861.2,251.3 L861.5,255.4 L861.8,245.8 L862.0,260.9 L862.3,230.3 L862.5,242.3 L862.8,236.1 L863.1,209.1 L863.3,243.9 L863.6,263.5 L863.8,217.8 L864.1,220.5 L864.4,250.6 L864.6,218.9 L864.9,228.1 L865.1,223.2 L865.4,248.6 L865.7,250.4 L865.9,245.0 L866.2,251.6 L866.5,240.6 L866.7,266.2 L867.0,238.3 L867.2,244.4 L867.5,213.0 L867.8,243.1 L868.0,256.5 L868.3,219.1 L868.5,267.2 L868.8,217.1 L869.1,221.0 L869.3,237.9 L869.6,240.3 L869.8,233.1 L870.1,243.4 L870.4,234.8 L870.6,249.5 L870.9,254.2 L871.2,233.0 L871.4,269.2 L871.7,273.8 L871.9,225.3 L872.2,229.1 L872.5,235.8 L872.7,239.7 L873.0,235.3 L873.2,241.6 L873.5,240.0 L873.8,260.0 L874.0,224.4 L874.3,252.0 L874.5,225.0 L874.8,236.2 L875.1,252.6 L875.3,261.8 L875.6,253.6 L875.9,246.4 L876.1,277.3 L876.4,262.3 L876.6,251.4 L876.9,265.2 L877.2,235.9 L877.4,256.1 L877.7,234.1 L877.9,245.9 L878.2,233.8 L878.5,260.1 L878.7,243.7 L879.0,244.5 L879.2,249.7 L879.5,238.3 L879.8,254.4 L880.0,248.5 L880.3,270.1 L880.6,264.0 L880.8,239.3 L881.1,245.1 L881.3,233.0 L881.6,234.2 L881.9,226.4 L882.1,284.8 L882.4,265.5 L882.6,269.9 L882.9,266.3 L883.2,281.3 L883.4,241.8 L883.7,268.8 L884.0,283.1 L884.2,272.1 L884.5,286.9 L884.7,257.9 L885.0,244.3 L885.3,238.8 L885.5,260.4 L885.8,276.7 L886.0,256.1 L886.3,234.0 L886.6,240.1 L886.8,275.9 L887.1,236.9 L887.3,254.7 L887.6,241.8 L887.9,254.0 L888.1,286.0 L888.4,290.5 L888.7,266.1 L888.9,259.2 L889.2,245.2 L889.4,252.1 L889.7,282.7 L890.0,286.6 L890.2,246.5 L890.5,276.1 L890.7,292.0 L891.0,277.3 L891.3,288.0 L891.5,276.6 L891.8,255.7 L892.0,264.6 L892.3,243.2 L892.6,266.6 L892.8,263.9 L893.1,252.7 L893.4,246.9 L893.6,262.7 L893.9,286.6 L894.1,252.2 L894.4,290.7 L894.7,252.4 L894.9,258.7 L895.2,253.8 L895.4,287.6 L895.7,264.6 L896.0,290.7 L896.2,281.4 L896.5,251.8 L896.7,282.9 L897.0,280.3 L897.3,249.9 L897.5,263.3 L897.8,270.8 L898.1,255.1 L898.3,273.1 L898.6,282.3 L898.8,253.2 L899.1,282.9 L899.4,295.7 L899.6,260.4 L899.9,273.6 L900.1,261.5 L900.4,283.1 L900.7,295.5 L900.9,273.2 L901.2,259.9 L901.4,305.1 L901.7,283.4 L902.0,275.4 L902.2,255.2 L902.5,282.4 L902.8,298.6 L903.0,281.8 L903.3,285.3 L903.5,288.3 L903.8,290.0 L904.1,268.2 L904.3,270.1 L904.6,303.4 L904.8,276.7 L905.1,267.1 L905.4,274.9 L905.6,280.7 L905.9,294.4 L906.1,302.3 L906.4,312.1 L906.7,300.1 L906.9,283.4 L907.2,293.6 L907.5,296.6 L907.7,296.0 L908.0,279.9 L908.2,263.8 L908.5,290.7 L908.8,301.3 L909.0,276.5 L909.3,302.9 L909.5,312.2 L909.8,310.0 L910.1,309.7 L910.3,280.1 L910.6,291.0 L910.9,275.1 L911.1,314.0 L911.4,315.0 L911.6,285.8 L911.9,271.7 L912.2,278.6 L912.4,279.2 L912.7,292.9 L912.9,306.2 L913.2,293.9 L913.5,284.4 L913.7,310.0 L914.0,271.3 L914.2,288.8 L914.5,308.9 L914.8,319.2 L915.0,274.4 L915.3,318.7 L915.6,285.5 L915.8,317.9 L916.1,291.7 L916.3,313.2 L916.6,290.9 L916.9,320.3 L917.1,302.0 L917.4,287.7 L917.6,289.4 L917.9,281.4 L918.2,284.0 L918.4,288.0 L918.7,320.7 L918.9,304.7 L919.2,322.6 L919.5,285.9 L919.7,307.7 L920.0,296.8 L920.3,296.5 L920.5,317.6 L920.8,327.8 L921.0,286.9 L921.3,309.3 L921.6,293.9 L921.8,285.3 L922.1,314.0 L922.3,294.6 L922.6,306.0 L922.9,294.5 L923.1,323.9 L923.4,327.5 L923.6,306.1 L923.9,310.8 L924.2,298.5 L924.4,306.5 L924.7,303.2 L925.0,330.4 L925.2,309.3 L925.5,292.6 L925.7,296.3 L926.0,335.5 L926.3,316.3 L926.5,317.5 L926.8,306.7 L927.0,327.6 L927.3,333.1 L927.6,331.1 L927.8,291.4 L928.1,298.9 L928.3,313.2 L928.6,312.4 L928.9,303.0 L929.1,323.8 L929.4,295.2 L929.7,330.0 L929.9,308.6 L930.2,333.9 L930.4,315.6 L930.7,309.4 L931.0,314.4 L931.2,302.6 L931.5,341.1 L931.7,301.9 L932.0,326.3 L932.3,333.9 L932.5,336.2 L932.8,310.3 L933.0,302.7 L933.3,307.0 L933.6,336.7 L933.8,325.0 L934.1,311.0 L934.4,345.2 L934.6,305.9 L934.9,330.6 L935.1,323.6 L935.4,326.5 L935.7,320.3 L935.9,305.6 L936.2,332.1 L936.4,343.0 L936.7,331.0 L937.0,334.6 L937.2,309.0 L937.5,318.3 L937.7,340.7 L938.0,318.6 L938.3,323.5 L938.5,337.0 L938.8,335.6 L939.1,342.7 L939.3,334.6 L939.6,342.0 L939.8,329.8 L940.1,321.6 L940.4,319.4 L940.6,327.3 L940.9,324.8 L941.1,330.9 L941.4,326.7 L941.7,345.1 L941.9,330.6 L942.2,312.4 L942.5,317.9 L942.7,319.2 L943.0,329.4 L943.2,338.4 L943.5,323.5 L943.8,340.1 L944.0,321.9 L944.3,335.5 L944.5,335.5 L944.8,332.8 L945.1,317.3 L945.3,345.5 L945.6,319.2 L945.8,353.0 L946.1,332.0 L946.4,322.9 L946.6,322.6 L946.9,333.3 L947.2,349.1 L947.4,321.6 L947.7,332.1 L947.9,342.9 L948.2,337.6 L948.5,353.0 L948.7,346.3 L949.0,323.6 L949.2,358.2 L949.5,351.1 L949.8,347.0 L950.0,357.2 L950.3,356.3 L950.5,364.0 L950.8,341.8 L951.1,341.3 L951.3,357.6 L951.6,357.2 L951.9,331.3 L952.1,364.8 L952.4,355.4 L952.6,358.6 L952.9,344.8 L953.2,332.3 L953.4,334.5 L953.7,364.4 L953.9,334.3 L954.2,363.1 L954.5,353.5 L954.7,344.3 L955.0,362.6 L955.2,358.6 L955.5,343.3 L955.8,356.2 L956.0,357.6 L956.3,335.4 L956.6,349.0 L956.8,335.1 L957.1,349.1 L957.3,369.9 L957.6,364.6 L957.9,361.7 L958.1,337.1 L958.4,354.4 L958.6,365.2 L958.9,363.3 L959.2,366.7 L959.4,345.3 L959.7,371.5 L959.9,355.7 L960.2,349.1 L960.5,360.0 L960.7,366.9 L961.0,361.4 L961.3,369.8 L961.5,355.8 L961.8,357.4 L962.0,379.9 L962.3,354.5 L962.6,372.7 L962.8,344.9 L963.1,358.8 L963.3,354.1 L963.6,346.5 L963.9,365.9 L964.1,367.0 L964.4,353.2 L964.6,368.0 L964.9,349.5 L965.2,363.4 L965.4,351.3 L965.7,376.7 L966.0,373.4 L966.2,357.8 L966.5,370.6 L966.7,352.5 L967.0,351.9 L967.3,359.8 L967.5,381.9 L967.8,368.4 L968.0,382.9 L968.3,358.2 L968.6,383.7 L968.8,368.0 L969.1,361.2 L969.4,371.2 L969.6,373.3 L969.9,357.8 L970.1,358.6 L970.4,388.4 L970.7,385.9 L970.9,367.2 L971.2,386.5 L971.4,361.8 L971.7,392.1 L972.0,388.7 L972.2,388.3 L972.5,377.9 L972.7,366.1 L973.0,378.3 L973.3,367.4 L973.5,363.6 L973.8,370.0 L974.1,375.0 L974.3,382.0 L974.6,366.1 L974.8,380.8 L975.1,385.5 L975.4,396.8 L975.6,386.8 L975.9,369.9 L976.1,381.5 L976.4,365.9 L976.7,397.9 L976.9,398.0 L977.2,378.3 L977.4,398.2 L977.7,388.3 L978.0,382.7 L978.2,386.9 L978.5,400.7 L978.8,399.2 L979.0,395.6 L979.3,381.4 L979.5,395.3 L979.8,380.4 L980.1,391.2 L980.3,372.9 L980.6,397.0 L980.8,385.1 L981.1,387.4 L981.4,382.5 L981.6,386.5 L981.9,375.1 L982.1,397.6 L982.4,381.7 L982.7,403.7 L982.9,400.6 L983.2,382.3 L983.5,382.1 L983.7,404.5 L984.0,392.6 L984.2,383.9 L984.5,398.2 L984.8,407.8 L985.0,382.5 L985.3,405.9 L985.5,394.4 L985.8,390.7 L986.1,389.6 L986.3,387.2 L986.6,382.6 L986.8,401.3 L987.1,398.4 L987.4,405.6 L987.6,399.5 L987.9,394.6 L988.2,410.8 L988.4,397.2 L988.7,396.6 L988.9,409.7 L989.2,390.1 L989.5,408.3 L989.7,411.2 L990.0,402.2 L990.2,398.6 L990.5,415.9 L990.8,416.8 L991.0,409.1 L991.3,404.8 L991.5,406.5 L991.8,393.4 L992.1,404.4 L992.3,417.8 L992.6,393.8 L992.9,416.0 L993.1,419.2 L993.4,405.7 L993.6,416.2 L993.9,408.4 L994.2,394.4 L994.4,419.0 L994.7,408.1 L994.9,398.3 L995.2,398.4 L995.5,402.3 L995.7,416.9 L996.0,401.5 L996.2,398.8 L996.5,414.9 L996.8,400.8 L997.0,404.2 L997.3,424.6 L997.6,424.0 L997.8,423.0 L998.1,421.5 L998.3,401.3 L998.6,406.7 L998.9,406.8 L999.1,411.1 L999.4,422.1 L999.6,419.5 L999.9,411.4 L1000.2,422.7 L1000.4,420.6 L1000.7,412.9 L1001.0,412.7 L1001.2,426.7 L1001.5,405.5 L1001.7,428.0 L1002.0,411.4 L1002.3,428.5 L1002.5,408.2 L1002.8,425.5 L1003.0,427.9 L1003.3,409.3 L1003.6,415.9 L1003.8,428.2 L1004.1,434.2 L1004.3,429.5 L1004.6,427.1 L1004.9,418.5 L1005.1,422.9 L1005.4,414.5 L1005.7,434.4 L1005.9,423.8 L1006.2,426.4 L1006.4,434.3 L1006.7,437.6 L1007.0,431.4 L1007.2,425.7 L1007.5,419.5 L1007.7,424.1 L1008.0,425.7 L1008.3,429.6 L1008.5,420.6 L1008.8,424.7 L1009.0,423.1 L1009.3,430.2 L1009.6,429.3 L1009.8,423.1 L1010.1,436.3 L1010.4,440.2 L1010.6,424.4 L1010.9,443.1 L1011.1,442.3 L1011.4,444.2 L1011.7,432.7 L1011.9,436.3 L1012.2,438.6 L1012.4,434.6 L1012.7,423.9 L1013.0,435.6 L1013.2,424.6 L1013.5,436.0 L1013.7,425.8 L1014.0,445.4 L1014.3,440.6 L1014.5,432.7 L1014.8,447.6 L1015.1,442.4 L1015.3,441.8 L1015.6,441.2 L1015.8,446.8 L1016.1,436.6 L1016.4,434.2 L1016.6,447.3 L1016.9,431.8 L1017.1,433.6 L1017.4,444.5 L1017.7,440.4 L1017.9,432.9 L1018.2,448.1 L1018.4,446.4 L1018.7,436.7 L1019.0,451.8 L1019.2,443.4 L1019.5,450.8 L1019.8,445.1 L1020.0,443.3 L1020.3,440.1 L1020.5,445.6 L1020.8,446.3 L1021.1,440.4 L1021.3,445.5 L1021.6,452.6 L1021.8,440.3 L1022.1,441.3 L1022.4,456.0 L1022.6,449.5 L1022.9,454.3 L1023.1,441.5 L1023.4,445.7 L1023.7,450.4 L1023.9,457.2 L1024.2,444.5 L1024.5,450.1 L1024.7,444.9 L1025.0,453.4 L1025.2,459.3 L1025.5,445.7 L1025.8,462.5 L1026.0,456.8 L1026.3,450.1 L1026.5,446.8 L1026.8,461.7 L1027.1,457.9 L1027.3,452.0 L1027.6,465.6 L1027.9,463.6 L1028.1,455.7 L1028.4,456.6 L1028.6,459.3 L1028.9,462.3 L1029.2,459.5 L1029.4,454.6 L1029.7,462.5 L1029.9,458.6 L1030.2,464.9 L1030.5,460.2 L1030.7,467.0 L1031.0,460.9 L1031.2,467.0 L1031.5,466.6 L1031.8,463.3 L1032.0,456.9 L1032.3,456.6 L1032.6,469.4 L1032.8,466.7 L1033.1,461.2 L1033.3,467.4 L1033.6,473.0 L1033.9,463.3 L1034.1,465.1 L1034.4,462.6 L1034.6,473.4 L1034.9,460.6 L1035.2,464.4 L1035.4,464.3 L1035.7,473.3 L1035.9,476.0 L1036.2,471.1 L1036.5,467.6 L1036.7,472.2 L1037.0,475.5 L1037.3,469.5 L1037.5,470.7 L1037.8,470.2 L1038.0,469.4 L1038.3,466.8 L1038.6,468.1 L1038.8,478.6 L1039.1,481.5 L1039.3,472.8 L1039.6,472.3 L1039.9,475.7 L1040.1,479.9 L1040.4,471.9 L1040.6,479.8 L1040.9,476.5 L1041.2,472.8 L1041.4,477.6 L1041.7,476.6 L1042.0,476.9 L1042.2,484.2 L1042.5,480.6 L1042.7,478.2 L1043.0,480.0 L1043.3,486.3 L1043.5,477.8 L1043.8,486.1 L1044.0,476.2 L1044.3,481.4 L1044.6,476.4 L1044.8,478.7 L1045.1,484.5 L1045.3,481.6 L1045.6,488.1 L1045.9,486.5 L1046.1,478.8 L1046.4,489.0 L1046.7,488.0 L1046.9,490.4 L1047.2,482.2 L1047.4,490.0 L1047.7,490.3 L1048.0,483.6 L1048.2,484.0 L1048.5,489.4 L1048.7,487.7 L1049.0,490.9 L1049.3,494.1 L1049.5,487.9 L1049.8,487.9 L1050.0,491.4 L1050.3,492.2 L1050.6,496.2 L1050.8,495.1 L1051.1,496.3 L1051.4,495.0 L1051.6,496.7 L1051.9,489.4 L1052.1,488.9 L1052.4,490.6 L1052.7,493.6 L1052.9,490.9 L1053.2,497.7 L1053.4,496.3 L1053.7,497.5 L1054.0,500.2 L1054.2,496.1 L1054.5,502.5 L1054.7,495.9 L1055.0,497.8 L1055.3,495.4 L1055.5,498.6 L1055.8,502.7 L1056.1,502.6 L1056.3,504.0 L1056.6,501.2 L1056.8,501.6 L1057.1,499.0 L1057.4,504.8 L1057.6,499.0 L1057.9,506.3 L1058.1,507.5 L1058.4,507.7 L1058.7,505.5 L1058.9,505.9 L1059.2,505.2 L1059.5,506.3 L1059.7,505.6 L1060.0,505.4 L1060.2,507.9 L1060.5,505.0 L1060.8,504.6 L1061.0,511.2 L1061.3,504.4 L1061.5,506.8 L1061.8,509.7 L1062.1,513.1 L1062.3,513.4 L1062.6,508.5 L1062.8,508.3 L1063.1,513.1 L1063.4,508.4 L1063.6,514.8 L1063.9,511.7 L1064.2,511.5 L1064.4,511.2 L1064.7,515.5 L1064.9,514.7 L1065.2,513.6 L1065.5,513.3 L1065.7,514.5 L1066.0,515.2 L1066.2,516.9 L1066.5,514.6 L1066.8,516.4 L1067.0,514.6 L1067.3,516.7 L1067.5,518.8 L1067.8,517.4 L1068.1,521.2 L1068.3,517.0 L1068.6,517.5 L1068.9,518.6 L1069.1,517.8 L1069.4,518.7 L1069.6,522.1 L1069.9,519.5 L1070.2,519.4 L1070.4,523.5 L1070.7,522.9 L1070.9,524.3 L1071.2,523.8 L1071.5,523.3 L1071.7,521.8 L1072.0,523.5 L1072.2,523.4 L1072.5,526.0 L1072.8,527.8 L1073.0,526.6 L1073.3,528.3 L1073.6,526.9 L1073.8,527.3 L1074.1,527.0 L1074.3,529.1 L1074.6,529.4 L1074.9,530.6 L1075.1,529.2 L1075.4,528.5 L1075.6,528.7 L1075.9,530.0 L1076.2,529.7 L1076.4,530.5 L1076.7,532.3 L1076.9,531.2 L1077.2,531.1 L1077.5,534.4 L1077.7,532.1 L1078.0,534.1 L1078.3,534.6 L1078.5,533.9 L1078.8,535.4 L1079.0,535.2 L1079.3,536.6 L1079.6,537.1 L1079.8,537.1 L1080.1,538.1 L1080.3,537.8 L1080.6,537.2 L1080.9,539.0 L1081.1,538.4 L1081.4,539.2 L1081.6,540.4 L1081.9,539.5 L1082.2,540.5 L1082.4,541.4 L1082.7,541.3 L1083.0,542.1 L1083.2,541.9 L1083.5,542.6 L1083.7,542.3 L1084.0,542.9" fill="none" stroke="#1f77b4" stroke-width="1.4" opacity="0.85"/><text x="1040" y="54" fill="#ff7f0e" font-size="11">roll 18</text><text x="1090" y="558" fill="#ff7f0e" font-size="11">-18</text><path d="M616.0,309.4 L616.3,311.9 L616.5,309.4 L616.8,309.4 L617.0,310.6 L617.3,310.6 L617.6,311.9 L617.8,310.6 L618.1,310.6 L618.4,310.6 L618.6,309.4 L618.9,310.6 L619.1,310.6 L619.4,311.9 L619.7,310.6 L619.9,310.6 L620.2,310.6 L620.4,310.6 L620.7,311.9 L621.0,310.6 L621.2,310.6 L621.5,309.4 L621.7,311.9 L622.0,309.4 L622.3,310.6 L622.5,310.6 L622.8,310.6 L623.1,311.9 L623.3,309.4 L623.6,309.4 L623.8,311.9 L624.1,309.4 L624.4,311.9 L624.6,310.6 L624.9,309.4 L625.1,310.6 L625.4,310.6 L625.7,310.6 L625.9,310.6 L626.2,311.9 L626.4,309.4 L626.7,310.6 L627.0,310.6 L627.2,309.4 L627.5,311.9 L627.8,311.9 L628.0,309.4 L628.3,311.9 L628.5,309.4 L628.8,310.6 L629.1,310.6 L629.3,311.9 L629.6,310.6 L629.8,310.6 L630.1,311.9 L630.4,309.4 L630.6,309.4 L630.9,310.6 L631.1,310.6 L631.4,311.9 L631.7,309.4 L631.9,310.6 L632.2,310.6 L632.5,309.4 L632.7,310.6 L633.0,310.6 L633.2,309.4 L633.5,310.6 L633.8,310.6 L634.0,310.6 L634.3,311.9 L634.5,309.4 L634.8,311.9 L635.1,309.4 L635.3,309.4 L635.6,310.6 L635.8,309.4 L636.1,310.6 L636.4,309.4 L636.6,310.6 L636.9,309.4 L637.2,310.6 L637.4,309.4 L637.7,310.6 L637.9,311.9 L638.2,310.6 L638.5,310.6 L638.7,309.4 L639.0,309.4 L639.2,311.9 L639.5,311.9 L639.8,311.9 L640.0,310.6 L640.3,309.4 L640.5,309.4 L640.8,310.6 L641.1,311.9 L641.3,311.9 L641.6,310.6 L641.9,310.6 L642.1,309.4 L642.4,309.4 L642.6,310.6 L642.9,309.4 L643.2,309.4 L643.4,309.4 L643.7,310.6 L643.9,311.9 L644.2,309.4 L644.5,309.4 L644.7,310.6 L645.0,310.6 L645.2,311.9 L645.5,311.9 L645.8,310.6 L646.0,310.6 L646.3,310.6 L646.6,311.9 L646.8,310.6 L647.1,310.6 L647.3,310.6 L647.6,311.9 L647.9,309.4 L648.1,311.9 L648.4,310.6 L648.6,310.6 L648.9,309.4 L649.2,311.9 L649.4,311.9 L649.7,311.9 L650.0,310.6 L650.2,310.6 L650.5,310.6 L650.7,311.9 L651.0,310.6 L651.3,310.6 L651.5,310.6 L651.8,310.6 L652.0,310.6 L652.3,311.9 L652.6,310.6 L652.8,309.4 L653.1,311.9 L653.3,310.6 L653.6,310.6 L653.9,310.6 L654.1,309.4 L654.4,311.9 L654.7,310.6 L654.9,309.4 L655.2,310.6 L655.4,310.6 L655.7,311.9 L656.0,310.6 L656.2,310.6 L656.5,309.4 L656.7,310.6 L657.0,310.6 L657.3,310.6 L657.5,309.4 L657.8,310.6 L658.0,311.9 L658.3,310.6 L658.6,309.4 L658.8,311.9 L659.1,309.4 L659.4,309.4 L659.6,310.6 L659.9,310.6 L660.1,310.6 L660.4,310.6 L660.7,309.4 L660.9,311.9 L661.2,309.4 L661.4,311.9 L661.7,310.6 L662.0,310.6 L662.2,310.6 L662.5,311.9 L662.7,309.4 L663.0,310.6 L663.3,310.6 L663.5,309.4 L663.8,311.9 L664.1,311.9 L664.3,309.4 L664.6,309.4 L664.8,311.9 L665.1,310.6 L665.4,309.4 L665.6,310.6 L665.9,309.4 L666.1,311.9 L666.4,310.6 L666.7,310.6 L666.9,310.6 L667.2,310.6 L667.4,311.9 L667.7,309.4 L668.0,309.4 L668.2,309.4 L668.5,310.6 L668.8,310.6 L669.0,310.6 L669.3,310.6 L669.5,310.6 L669.8,310.6 L670.1,310.6 L670.3,310.6 L670.6,310.6 L670.8,310.6 L671.1,310.6 L671.4,309.4 L671.6,311.9 L671.9,310.6 L672.1,310.6 L672.4,310.6 L672.7,309.4 L672.9,310.6 L673.2,309.4 L673.5,311.9 L673.7,309.4 L674.0,309.4 L674.2,309.4 L674.5,310.6 L674.8,311.9 L675.0,309.4 L675.3,310.6 L675.5,311.9 L675.8,310.6 L676.1,310.6 L676.3,311.9 L676.6,309.4 L676.9,309.4 L677.1,311.9 L677.4,310.6 L677.6,310.6 L677.9,309.4 L678.2,309.4 L678.4,310.6 L678.7,309.4 L678.9,309.4 L679.2,309.4 L679.5,310.6 L679.7,310.6 L680.0,310.6 L680.2,310.6 L680.5,310.6 L680.8,310.6 L681.0,310.6 L681.3,310.6 L681.6,310.6 L681.8,309.4 L682.1,310.6 L682.3,309.4 L682.6,310.6 L682.9,311.9 L683.1,311.9 L683.4,309.4 L683.6,310.6 L683.9,310.6 L684.2,311.9 L684.4,311.9 L684.7,311.9 L684.9,309.4 L685.2,311.9 L685.5,309.4 L685.7,310.6 L686.0,311.9 L686.3,310.6 L686.5,310.6 L686.8,309.4 L687.0,309.4 L687.3,310.6 L687.6,309.4 L687.8,310.6 L688.1,309.4 L688.3,309.4 L688.6,310.6 L688.9,309.4 L689.1,309.4 L689.4,310.6 L689.6,309.4 L689.9,310.6 L690.2,309.4 L690.4,310.6 L690.7,311.9 L691.0,311.9 L691.2,311.9 L691.5,310.6 L691.7,309.4 L692.0,310.6 L692.3,311.9 L692.5,310.6 L692.8,311.9 L693.0,311.9 L693.3,310.6 L693.6,311.9 L693.8,310.6 L694.1,310.6 L694.3,311.9 L694.6,310.6 L694.9,311.9 L695.1,310.6 L695.4,310.6 L695.7,310.6 L695.9,309.4 L696.2,302.9 L696.4,292.7 L696.7,276.0 L697.0,270.9 L697.2,261.9 L697.5,254.2 L697.7,246.5 L698.0,236.3 L698.3,215.8 L698.5,204.2 L698.8,217.0 L699.0,209.3 L699.3,182.4 L699.6,188.8 L699.8,179.9 L700.1,165.8 L700.4,173.4 L700.6,165.8 L700.9,170.9 L701.1,155.5 L701.4,156.8 L701.7,140.1 L701.9,156.8 L702.2,146.5 L702.4,133.7 L702.7,160.6 L703.0,144.0 L703.2,152.9 L703.5,137.5 L703.7,150.4 L704.0,111.9 L704.3,123.4 L704.5,141.4 L704.8,128.6 L705.1,133.7 L705.3,118.3 L705.6,119.6 L705.8,117.0 L706.1,115.7 L706.4,136.3 L706.6,110.6 L706.9,138.8 L707.1,113.2 L707.4,123.4 L707.7,128.6 L707.9,128.6 L708.2,91.4 L708.5,126.0 L708.7,110.6 L709.0,136.3 L709.2,109.3 L709.5,141.4 L709.8,106.8 L710.0,142.7 L710.3,145.2 L710.5,127.3 L710.8,135.0 L711.1,109.3 L711.3,140.1 L711.6,129.9 L711.8,127.3 L712.1,135.0 L712.4,146.5 L712.6,137.5 L712.9,168.3 L713.2,172.2 L713.4,172.2 L713.7,149.1 L713.9,150.4 L714.2,146.5 L714.5,182.4 L714.7,169.6 L715.0,190.1 L715.2,191.4 L715.5,174.7 L715.8,204.2 L716.0,201.7 L716.3,195.2 L716.5,190.1 L716.8,186.3 L717.1,173.4 L717.3,176.0 L717.6,186.3 L717.9,197.8 L718.1,185.0 L718.4,196.5 L718.6,211.9 L718.9,183.7 L719.2,191.4 L719.4,205.5 L719.7,181.1 L719.9,169.6 L720.2,172.2 L720.5,202.9 L720.7,196.5 L721.0,200.4 L721.2,185.0 L721.5,196.5 L721.8,202.9 L722.0,213.2 L722.3,222.2 L722.6,200.4 L722.8,222.2 L723.1,205.5 L723.3,228.6 L723.6,210.6 L723.9,223.5 L724.1,240.1 L724.4,227.3 L724.6,213.2 L724.9,227.3 L725.2,227.3 L725.4,210.6 L725.7,237.6 L725.9,224.7 L726.2,228.6 L726.5,217.0 L726.7,232.4 L727.0,236.3 L727.3,245.2 L727.5,236.3 L727.8,227.3 L728.0,238.8 L728.3,232.4 L728.6,215.8 L728.8,240.1 L729.1,220.9 L729.3,241.4 L729.6,233.7 L729.9,217.0 L730.1,204.2 L730.4,218.3 L730.6,236.3 L730.9,222.2 L731.2,235.0 L731.4,237.6 L731.7,227.3 L732.0,214.5 L732.2,238.8 L732.5,227.3 L732.7,228.6 L733.0,231.1 L733.3,229.9 L733.5,232.4 L733.8,218.3 L734.0,233.7 L734.3,229.9 L734.6,231.1 L734.8,241.4 L735.1,237.6 L735.4,238.8 L735.6,250.4 L735.9,241.4 L736.1,254.2 L736.4,268.3 L736.7,285.0 L736.9,297.8 L737.2,308.1 L737.4,323.5 L737.7,335.0 L738.0,350.4 L738.2,353.0 L738.5,365.8 L738.7,374.8 L739.0,394.0 L739.3,395.3 L739.5,395.3 L739.8,426.0 L740.1,419.6 L740.3,413.2 L740.6,444.0 L740.8,442.7 L741.1,435.0 L741.4,450.4 L741.6,445.3 L741.9,463.2 L742.1,454.2 L742.4,458.1 L742.7,465.8 L742.9,477.3 L743.2,479.9 L743.4,494.0 L743.7,487.6 L744.0,494.0 L744.2,496.6 L744.5,478.6 L744.8,483.7 L745.0,509.4 L745.3,490.1 L745.5,478.6 L745.8,486.3 L746.1,492.7 L746.3,509.4 L746.6,490.1 L746.8,520.9 L747.1,509.4 L747.4,514.5 L747.6,481.2 L747.9,517.1 L748.1,508.1 L748.4,503.0 L748.7,494.0 L748.9,503.0 L749.2,509.4 L749.5,490.1 L749.7,514.5 L750.0,490.1 L750.2,524.8 L750.5,491.4 L750.8,505.5 L751.0,499.1 L751.3,494.0 L751.5,497.8 L751.8,535.0 L752.1,510.7 L752.3,513.2 L752.6,513.2 L752.8,492.7 L753.1,501.7 L753.4,495.3 L753.6,499.1 L753.9,526.0 L754.2,508.1 L754.4,536.3 L754.7,514.5 L754.9,531.2 L755.2,506.8 L755.5,513.2 L755.7,519.6 L756.0,510.7 L756.2,508.1 L756.5,495.3 L756.8,528.6 L757.0,505.5 L757.3,519.6 L757.5,511.9 L757.8,520.9 L758.1,494.0 L758.3,532.5 L758.6,529.9 L758.9,531.2 L759.1,494.0 L759.4,499.1 L759.6,515.8 L759.9,490.1 L760.2,526.0 L760.4,527.3 L760.7,514.5 L760.9,501.7 L761.2,513.2 L761.5,529.9 L761.7,501.7 L762.0,496.6 L762.2,508.1 L762.5,526.0 L762.8,497.8 L763.0,527.3 L763.3,495.3 L763.6,532.5 L763.8,499.1 L764.1,513.2 L764.3,518.4 L764.6,506.8 L764.9,499.1 L765.1,501.7 L765.4,515.8 L765.6,511.9 L765.9,524.8 L766.2,488.9 L766.4,532.5 L766.7,522.2 L767.0,505.5 L767.2,491.4 L767.5,510.7 L767.7,509.4 L768.0,524.8 L768.3,528.6 L768.5,517.1 L768.8,522.2 L769.0,531.2 L769.3,515.8 L769.6,527.3 L769.8,497.8 L770.1,532.5 L770.3,486.3 L770.6,518.4 L770.9,492.7 L771.1,519.6 L771.4,509.4 L771.7,490.1 L771.9,503.0 L772.2,527.3 L772.4,519.6 L772.7,510.7 L773.0,499.1 L773.2,504.3 L773.5,536.3 L773.7,501.7 L774.0,491.4 L774.3,496.6 L774.5,537.6 L774.8,497.8 L775.0,506.8 L775.3,528.6 L775.6,523.5 L775.8,494.0 L776.1,529.9 L776.4,509.4 L776.6,515.8 L776.9,504.3 L777.1,492.7 L777.4,505.5 L777.7,510.7 L777.9,522.2 L778.2,509.4 L778.4,510.7 L778.7,494.0 L779.0,524.8 L779.2,524.8 L779.5,519.6 L779.7,496.6 L780.0,526.0 L780.3,528.6 L780.5,518.4 L780.8,513.2 L781.1,518.4 L781.3,515.8 L781.6,520.9 L781.8,503.0 L782.1,499.1 L782.4,544.0 L782.6,511.9 L782.9,497.8 L783.1,531.2 L783.4,526.0 L783.7,509.4 L783.9,537.6 L784.2,526.0 L784.4,506.8 L784.7,524.8 L785.0,531.2 L785.2,497.8 L785.5,522.2 L785.8,510.7 L786.0,510.7 L786.3,496.6 L786.5,499.1 L786.8,531.2 L787.1,523.5 L787.3,524.8 L787.6,526.0 L787.8,532.5 L788.1,511.9 L788.4,518.4 L788.6,532.5 L788.9,531.2 L789.1,505.5 L789.4,527.3 L789.7,528.6 L789.9,515.8 L790.2,511.9 L790.5,500.4 L790.7,497.8 L791.0,503.0 L791.2,528.6 L791.5,511.9 L791.8,520.9 L792.0,511.9 L792.3,532.5 L792.5,517.1 L792.8,506.8 L793.1,519.6 L793.3,495.3 L793.6,479.9 L793.9,469.6 L794.1,427.3 L794.4,428.6 L794.6,410.7 L794.9,387.6 L795.2,367.1 L795.4,360.6 L795.7,345.3 L795.9,329.9 L796.2,311.9 L796.5,302.9 L796.7,287.6 L797.0,281.2 L797.2,261.9 L797.5,254.2 L797.8,249.1 L798.0,228.6 L798.3,227.3 L798.6,214.5 L798.8,217.0 L799.1,211.9 L799.3,194.0 L799.6,182.4 L799.9,197.8 L800.1,172.2 L800.4,164.5 L800.6,174.7 L800.9,176.0 L801.2,167.0 L801.4,145.2 L801.7,172.2 L801.9,164.5 L802.2,154.2 L802.5,131.1 L802.7,149.1 L803.0,123.4 L803.3,132.4 L803.5,129.9 L803.8,122.2 L804.0,136.3 L804.3,117.0 L804.6,118.3 L804.8,129.9 L805.1,128.6 L805.3,126.0 L805.6,135.0 L805.9,119.6 L806.1,101.6 L806.4,120.9 L806.6,133.7 L806.9,128.6 L807.2,110.6 L807.4,126.0 L807.7,99.1 L808.0,97.8 L808.2,104.2 L808.5,114.5 L808.7,92.7 L809.0,123.4 L809.3,105.5 L809.5,101.6 L809.8,122.2 L810.0,111.9 L810.3,126.0 L810.6,101.6 L810.8,123.4 L811.1,126.0 L811.3,87.5 L811.6,122.2 L811.9,128.6 L812.1,109.3 L812.4,117.0 L812.7,127.3 L812.9,85.0 L813.2,123.4 L813.4,122.2 L813.7,100.4 L814.0,111.9 L814.2,115.7 L814.5,97.8 L814.7,99.1 L815.0,122.2 L815.3,101.6 L815.5,100.4 L815.8,111.9 L816.0,109.3 L816.3,117.0 L816.6,83.7 L816.8,127.3 L817.1,102.9 L817.4,123.4 L817.6,105.5 L817.9,105.5 L818.1,109.3 L818.4,88.8 L818.7,111.9 L818.9,102.9 L819.2,122.2 L819.4,117.0 L819.7,92.7 L820.0,94.0 L820.2,122.2 L820.5,90.1 L820.7,108.1 L821.0,99.1 L821.3,117.0 L821.5,110.6 L821.8,104.2 L822.1,128.6 L822.3,111.9 L822.6,109.3 L822.8,94.0 L823.1,127.3 L823.4,115.7 L823.6,100.4 L823.9,108.1 L824.1,104.2 L824.4,120.9 L824.7,83.7 L824.9,106.8 L825.2,127.3 L825.5,115.7 L825.7,101.6 L826.0,100.4 L826.2,105.5 L826.5,118.3 L826.8,88.8 L827.0,101.6 L827.3,122.2 L827.5,95.2 L827.8,90.1 L828.1,113.2 L828.3,113.2 L828.6,83.7 L828.8,123.4 L829.1,126.0 L829.4,88.8 L829.6,118.3 L829.9,115.7 L830.2,99.1 L830.4,120.9 L830.7,99.1 L830.9,114.5 L831.2,117.0 L831.5,127.3 L831.7,106.8 L832.0,106.8 L832.2,100.4 L832.5,118.3 L832.8,102.9 L833.0,104.2 L833.3,101.6 L833.5,94.0 L833.8,95.2 L834.1,99.1 L834.3,115.7 L834.6,115.7 L834.9,86.3 L835.1,115.7 L835.4,111.9 L835.6,102.9 L835.9,83.7 L836.2,129.9 L836.4,86.3 L836.7,131.1 L836.9,105.5 L837.2,108.1 L837.5,97.8 L837.7,127.3 L838.0,101.6 L838.2,136.3 L838.5,96.5 L838.8,104.2 L839.0,136.3 L839.3,115.7 L839.6,104.2 L839.8,117.0 L840.1,115.7 L840.3,127.3 L840.6,96.5 L840.9,136.3 L841.1,90.1 L841.4,104.2 L841.6,123.4 L841.9,131.1 L842.2,108.1 L842.4,128.6 L842.7,126.0 L842.9,96.5 L843.2,135.0 L843.5,101.6 L843.7,109.3 L844.0,135.0 L844.3,105.5 L844.5,122.2 L844.8,128.6 L845.0,90.1 L845.3,120.9 L845.6,99.1 L845.8,120.9 L846.1,118.3 L846.3,128.6 L846.6,101.6 L846.9,126.0 L847.1,108.1 L847.4,105.5 L847.6,109.3 L847.9,95.2 L848.2,95.2 L848.4,102.9 L848.7,114.5 L849.0,88.8 L849.2,128.6 L849.5,120.9 L849.7,109.3 L850.0,100.4 L850.3,101.6 L850.5,102.9 L850.8,109.3 L851.0,94.0 L851.3,94.0 L851.6,111.9 L851.8,86.3 L852.1,106.8 L852.4,111.9 L852.6,114.5 L852.9,102.9 L853.1,86.3 L853.4,97.8 L853.7,124.7 L853.9,119.6 L854.2,92.7 L854.4,95.2 L854.7,95.2 L855.0,119.6 L855.2,111.9 L855.5,117.0 L855.7,123.4 L856.0,114.5 L856.3,81.1 L856.5,90.1 L856.8,119.6 L857.1,119.6 L857.3,117.0 L857.6,96.5 L857.8,126.0 L858.1,86.3 L858.4,126.0 L858.6,117.0 L858.9,94.0 L859.1,102.9 L859.4,95.2 L859.7,97.8 L859.9,108.1 L860.2,129.9 L860.4,88.8 L860.7,126.0 L861.0,128.6 L861.2,105.5 L861.5,126.0 L861.8,109.3 L862.0,91.4 L862.3,99.1 L862.5,113.2 L862.8,95.2 L863.1,114.5 L863.3,104.2 L863.6,95.2 L863.8,120.9 L864.1,87.5 L864.4,132.4 L864.6,120.9 L864.9,110.6 L865.1,100.4 L865.4,123.4 L865.7,97.8 L865.9,95.2 L866.2,124.7 L866.5,99.1 L866.7,104.2 L867.0,114.5 L867.2,109.3 L867.5,91.4 L867.8,104.2 L868.0,117.0 L868.3,114.5 L868.5,88.8 L868.8,123.4 L869.1,100.4 L869.3,114.5 L869.6,105.5 L869.8,122.2 L870.1,90.1 L870.4,118.3 L870.6,97.8 L870.9,119.6 L871.2,114.5 L871.4,104.2 L871.7,122.2 L871.9,124.7 L872.2,87.5 L872.5,94.0 L872.7,92.7 L873.0,117.0 L873.2,108.1 L873.5,114.5 L873.8,120.9 L874.0,113.2 L874.3,102.9 L874.5,114.5 L874.8,123.4 L875.1,118.3 L875.3,119.6 L875.6,76.0 L875.9,127.3 L876.1,109.3 L876.4,101.6 L876.6,92.7 L876.9,92.7 L877.2,97.8 L877.4,106.8 L877.7,90.1 L877.9,128.6 L878.2,87.5 L878.5,101.6 L878.7,131.1 L879.0,91.4 L879.2,97.8 L879.5,136.3 L879.8,115.7 L880.0,105.5 L880.3,122.2 L880.6,110.6 L880.8,131.1 L881.1,95.2 L881.3,96.5 L881.6,99.1 L881.9,99.1 L882.1,123.4 L882.4,128.6 L882.6,123.4 L882.9,90.1 L883.2,102.9 L883.4,111.9 L883.7,99.1 L884.0,124.7 L884.2,110.6 L884.5,109.3 L884.7,87.5 L885.0,101.6 L885.3,123.4 L885.5,119.6 L885.8,85.0 L886.0,104.2 L886.3,96.5 L886.6,92.7 L886.8,128.6 L887.1,95.2 L887.3,105.5 L887.6,104.2 L887.9,114.5 L888.1,105.5 L888.4,122.2 L888.7,118.3 L888.9,122.2 L889.2,117.0 L889.4,99.1 L889.7,99.1 L890.0,102.9 L890.2,91.4 L890.5,115.7 L890.7,105.5 L891.0,92.7 L891.3,113.2 L891.5,124.7 L891.8,94.0 L892.0,123.4 L892.3,92.7 L892.6,128.6 L892.8,86.3 L893.1,110.6 L893.4,91.4 L893.6,120.9 L893.9,118.3 L894.1,90.1 L894.4,104.2 L894.7,128.6 L894.9,115.7 L895.2,110.6 L895.4,108.1 L895.7,92.7 L896.0,110.6 L896.2,122.2 L896.5,126.0 L896.7,108.1 L897.0,101.6 L897.3,114.5 L897.5,102.9 L897.8,124.7 L898.1,81.1 L898.3,119.6 L898.6,128.6 L898.8,102.9 L899.1,90.1 L899.4,119.6 L899.6,88.8 L899.9,100.4 L900.1,106.8 L900.4,119.6 L900.7,88.8 L900.9,95.2 L901.2,126.0 L901.4,86.3 L901.7,109.3 L902.0,106.8 L902.2,104.2 L902.5,109.3 L902.8,95.2 L903.0,127.3 L903.3,120.9 L903.5,111.9 L903.8,92.7 L904.1,94.0 L904.3,100.4 L904.6,117.0 L904.8,92.7 L905.1,126.0 L905.4,94.0 L905.6,96.5 L905.9,95.2 L906.1,108.1 L906.4,126.0 L906.7,124.7 L906.9,123.4 L907.2,106.8 L907.5,100.4 L907.7,115.7 L908.0,106.8 L908.2,127.3 L908.5,122.2 L908.8,108.1 L909.0,83.7 L909.3,100.4 L909.5,122.2 L909.8,104.2 L910.1,106.8 L910.3,97.8 L910.6,91.4 L910.9,126.0 L911.1,81.1 L911.4,105.5 L911.6,92.7 L911.9,92.7 L912.2,94.0 L912.4,106.8 L912.7,102.9 L912.9,101.6 L913.2,124.7 L913.5,91.4 L913.7,97.8 L914.0,109.3 L914.2,108.1 L914.5,88.8 L914.8,117.0 L915.0,94.0 L915.3,104.2 L915.6,101.6 L915.8,119.6 L916.1,96.5 L916.3,108.1 L916.6,90.1 L916.9,110.6 L917.1,91.4 L917.4,95.2 L917.6,129.9 L917.9,85.0 L918.2,124.7 L918.4,90.1 L918.7,114.5 L918.9,100.4 L919.2,135.0 L919.5,106.8 L919.7,124.7 L920.0,113.2 L920.3,111.9 L920.5,124.7 L920.8,102.9 L921.0,113.2 L921.3,120.9 L921.6,86.3 L921.8,127.3 L922.1,120.9 L922.3,110.6 L922.6,120.9 L922.9,110.6 L923.1,88.8 L923.4,95.2 L923.6,117.0 L923.9,106.8 L924.2,115.7 L924.4,119.6 L924.7,100.4 L925.0,122.2 L925.2,106.8 L925.5,124.7 L925.7,124.7 L926.0,81.1 L926.3,126.0 L926.5,96.5 L926.8,99.1 L927.0,126.0 L927.3,102.9 L927.6,131.1 L927.8,120.9 L928.1,91.4 L928.3,122.2 L928.6,114.5 L928.9,108.1 L929.1,118.3 L929.4,97.8 L929.7,111.9 L929.9,92.7 L930.2,96.5 L930.4,126.0 L930.7,106.8 L931.0,100.4 L931.2,102.9 L931.5,117.0 L931.7,117.0 L932.0,111.9 L932.3,86.3 L932.5,99.1 L932.8,115.7 L933.0,120.9 L933.3,82.4 L933.6,100.4 L933.8,94.0 L934.1,124.7 L934.4,108.1 L934.6,91.4 L934.9,117.0 L935.1,109.3 L935.4,92.7 L935.7,101.6 L935.9,113.2 L936.2,115.7 L936.4,122.2 L936.7,86.3 L937.0,114.5 L937.2,119.6 L937.5,104.2 L937.7,91.4 L938.0,113.2 L938.3,91.4 L938.5,99.1 L938.8,92.7 L939.1,126.0 L939.3,86.3 L939.6,117.0 L939.8,100.4 L940.1,114.5 L940.4,101.6 L940.6,94.0 L940.9,113.2 L941.1,92.7 L941.4,127.3 L941.7,101.6 L941.9,96.5 L942.2,127.3 L942.5,124.7 L942.7,111.9 L943.0,114.5 L943.2,100.4 L943.5,106.8 L943.8,95.2 L944.0,126.0 L944.3,91.4 L944.5,95.2 L944.8,118.3 L945.1,104.2 L945.3,95.2 L945.6,131.1 L945.8,127.3 L946.1,90.1 L946.4,113.2 L946.6,123.4 L946.9,109.3 L947.2,101.6 L947.4,128.6 L947.7,117.0 L947.9,109.3 L948.2,92.7 L948.5,127.3 L948.7,117.0 L949.0,126.0 L949.2,90.1 L949.5,100.4 L949.8,97.8 L950.0,96.5 L950.3,92.7 L950.5,128.6 L950.8,126.0 L951.1,115.7 L951.3,123.4 L951.6,118.3 L951.9,113.2 L952.1,115.7 L952.4,91.4 L952.6,118.3 L952.9,123.4 L953.2,120.9 L953.4,82.4 L953.7,101.6 L953.9,88.8 L954.2,126.0 L954.5,119.6 L954.7,100.4 L955.0,106.8 L955.2,114.5 L955.5,91.4 L955.8,113.2 L956.0,87.5 L956.3,119.6 L956.6,122.2 L956.8,99.1 L957.1,126.0 L957.3,127.3 L957.6,95.2 L957.9,110.6 L958.1,94.0 L958.4,123.4 L958.6,122.2 L958.9,118.3 L959.2,104.2 L959.4,97.8 L959.7,110.6 L959.9,96.5 L960.2,120.9 L960.5,126.0 L960.7,111.9 L961.0,124.7 L961.3,83.7 L961.5,96.5 L961.8,122.2 L962.0,122.2 L962.3,96.5 L962.6,92.7 L962.8,101.6 L963.1,99.1 L963.3,124.7 L963.6,119.6 L963.9,83.7 L964.1,118.3 L964.4,110.6 L964.6,117.0 L964.9,126.0 L965.2,117.0 L965.4,96.5 L965.7,99.1 L966.0,114.5 L966.2,117.0 L966.5,106.8 L966.7,88.8 L967.0,123.4 L967.3,117.0 L967.5,90.1 L967.8,111.9 L968.0,92.7 L968.3,118.3 L968.6,113.2 L968.8,114.5 L969.1,90.1 L969.4,105.5 L969.6,90.1 L969.9,113.2 L970.1,127.3 L970.4,108.1 L970.7,122.2 L970.9,113.2 L971.2,105.5 L971.4,91.4 L971.7,126.0 L972.0,88.8 L972.2,117.0 L972.5,114.5 L972.7,119.6 L973.0,101.6 L973.3,95.2 L973.5,110.6 L973.8,106.8 L974.1,120.9 L974.3,81.1 L974.6,94.0 L974.8,123.4 L975.1,101.6 L975.4,95.2 L975.6,101.6 L975.9,105.5 L976.1,123.4 L976.4,83.7 L976.7,100.4 L976.9,109.3 L977.2,117.0 L977.4,81.1 L977.7,117.0 L978.0,96.5 L978.2,97.8 L978.5,132.4 L978.8,105.5 L979.0,105.5 L979.3,108.1 L979.5,96.5 L979.8,111.9 L980.1,90.1 L980.3,100.4 L980.6,123.4 L980.8,110.6 L981.1,90.1 L981.4,102.9 L981.6,101.6 L981.9,110.6 L982.1,114.5 L982.4,91.4 L982.7,115.7 L982.9,95.2 L983.2,95.2 L983.5,128.6 L983.7,99.1 L984.0,104.2 L984.2,124.7 L984.5,108.1 L984.8,88.8 L985.0,104.2 L985.3,120.9 L985.5,120.9 L985.8,106.8 L986.1,111.9 L986.3,120.9 L986.6,120.9 L986.8,114.5 L987.1,120.9 L987.4,105.5 L987.6,82.4 L987.9,126.0 L988.2,88.8 L988.4,128.6 L988.7,105.5 L988.9,117.0 L989.2,109.3 L989.5,117.0 L989.7,114.5 L990.0,95.2 L990.2,95.2 L990.5,105.5 L990.8,117.0 L991.0,87.5 L991.3,100.4 L991.5,114.5 L991.8,97.8 L992.1,115.7 L992.3,120.9 L992.6,88.8 L992.9,122.2 L993.1,124.7 L993.4,114.5 L993.6,104.2 L993.9,109.3 L994.2,88.8 L994.4,122.2 L994.7,95.2 L994.9,124.7 L995.2,91.4 L995.5,102.9 L995.7,120.9 L996.0,122.2 L996.2,83.7 L996.5,132.4 L996.8,101.6 L997.0,104.2 L997.3,120.9 L997.6,127.3 L997.8,100.4 L998.1,123.4 L998.3,108.1 L998.6,126.0 L998.9,124.7 L999.1,91.4 L999.4,122.2 L999.6,115.7 L999.9,97.8 L1000.2,95.2 L1000.4,94.0 L1000.7,105.5 L1001.0,118.3 L1001.2,99.1 L1001.5,102.9 L1001.7,111.9 L1002.0,104.2 L1002.3,115.7 L1002.5,115.7 L1002.8,82.4 L1003.0,97.8 L1003.3,122.2 L1003.6,114.5 L1003.8,108.1 L1004.1,119.6 L1004.3,82.4 L1004.6,128.6 L1004.9,92.7 L1005.1,94.0 L1005.4,96.5 L1005.7,127.3 L1005.9,128.6 L1006.2,111.9 L1006.4,94.0 L1006.7,133.7 L1007.0,100.4 L1007.2,101.6 L1007.5,99.1 L1007.7,117.0 L1008.0,92.7 L1008.3,122.2 L1008.5,113.2 L1008.8,132.4 L1009.0,123.4 L1009.3,113.2 L1009.6,113.2 L1009.8,115.7 L1010.1,85.0 L1010.4,123.4 L1010.6,102.9 L1010.9,132.4 L1011.1,128.6 L1011.4,108.1 L1011.7,105.5 L1011.9,128.6 L1012.2,91.4 L1012.4,129.9 L1012.7,120.9 L1013.0,118.3 L1013.2,111.9 L1013.5,102.9 L1013.7,110.6 L1014.0,109.3 L1014.3,105.5 L1014.5,92.7 L1014.8,131.1 L1015.1,118.3 L1015.3,96.5 L1015.6,95.2 L1015.8,104.2 L1016.1,114.5 L1016.4,113.2 L1016.6,111.9 L1016.9,120.9 L1017.1,87.5 L1017.4,111.9 L1017.7,114.5 L1017.9,113.2 L1018.2,94.0 L1018.4,90.1 L1018.7,92.7 L1019.0,119.6 L1019.2,96.5 L1019.5,127.3 L1019.8,120.9 L1020.0,113.2 L1020.3,100.4 L1020.5,114.5 L1020.8,117.0 L1021.1,105.5 L1021.3,88.8 L1021.6,119.6 L1021.8,85.0 L1022.1,97.8 L1022.4,90.1 L1022.6,118.3 L1022.9,120.9 L1023.1,117.0 L1023.4,101.6 L1023.7,128.6 L1023.9,83.7 L1024.2,128.6 L1024.5,108.1 L1024.7,102.9 L1025.0,132.4 L1025.2,123.4 L1025.5,109.3 L1025.8,96.5 L1026.0,131.1 L1026.3,101.6 L1026.5,123.4 L1026.8,104.2 L1027.1,126.0 L1027.3,109.3 L1027.6,131.1 L1027.9,95.2 L1028.1,123.4 L1028.4,115.7 L1028.6,113.2 L1028.9,108.1 L1029.2,113.2 L1029.4,108.1 L1029.7,132.4 L1029.9,92.7 L1030.2,117.0 L1030.5,109.3 L1030.7,113.2 L1031.0,117.0 L1031.2,123.4 L1031.5,104.2 L1031.8,97.8 L1032.0,115.7 L1032.3,94.0 L1032.6,91.4 L1032.8,95.2 L1033.1,117.0 L1033.3,104.2 L1033.6,100.4 L1033.9,120.9 L1034.1,95.2 L1034.4,114.5 L1034.6,122.2 L1034.9,88.8 L1035.2,123.4 L1035.4,108.1 L1035.7,99.1 L1035.9,111.9 L1036.2,109.3 L1036.5,122.2 L1036.7,97.8 L1037.0,92.7 L1037.3,127.3 L1037.5,110.6 L1037.8,88.8 L1038.0,114.5 L1038.3,106.8 L1038.6,101.6 L1038.8,118.3 L1039.1,88.8 L1039.3,111.9 L1039.6,99.1 L1039.9,100.4 L1040.1,127.3 L1040.4,108.1 L1040.6,104.2 L1040.9,99.1 L1041.2,114.5 L1041.4,120.9 L1041.7,124.7 L1042.0,106.8 L1042.2,88.8 L1042.5,118.3 L1042.7,119.6 L1043.0,99.1 L1043.3,95.2 L1043.5,128.6 L1043.8,101.6 L1044.0,97.8 L1044.3,114.5 L1044.6,118.3 L1044.8,96.5 L1045.1,94.0 L1045.3,90.1 L1045.6,113.2 L1045.9,111.9 L1046.1,99.1 L1046.4,123.4 L1046.7,119.6 L1046.9,108.1 L1047.2,88.8 L1047.4,109.3 L1047.7,96.5 L1048.0,102.9 L1048.2,114.5 L1048.5,101.6 L1048.7,92.7 L1049.0,117.0 L1049.3,88.8 L1049.5,131.1 L1049.8,88.8 L1050.0,133.7 L1050.3,127.3 L1050.6,131.1 L1050.8,111.9 L1051.1,100.4 L1051.4,115.7 L1051.6,126.0 L1051.9,105.5 L1052.1,106.8 L1052.4,127.3 L1052.7,117.0 L1052.9,101.6 L1053.2,122.2 L1053.4,95.2 L1053.7,113.2 L1054.0,87.5 L1054.2,113.2 L1054.5,122.2 L1054.7,111.9 L1055.0,126.0 L1055.3,97.8 L1055.5,96.5 L1055.8,105.5 L1056.1,120.9 L1056.3,106.8 L1056.6,114.5 L1056.8,101.6 L1057.1,124.7 L1057.4,122.2 L1057.6,102.9 L1057.9,95.2 L1058.1,85.0 L1058.4,91.4 L1058.7,113.2 L1058.9,91.4 L1059.2,99.1 L1059.5,113.2 L1059.7,111.9 L1060.0,99.1 L1060.2,111.9 L1060.5,88.8 L1060.8,122.2 L1061.0,110.6 L1061.3,120.9 L1061.5,88.8 L1061.8,97.8 L1062.1,88.8 L1062.3,109.3 L1062.6,115.7 L1062.8,88.8 L1063.1,117.0 L1063.4,96.5 L1063.6,91.4 L1063.9,100.4 L1064.2,120.9 L1064.4,109.3 L1064.7,101.6 L1064.9,106.8 L1065.2,111.9 L1065.5,122.2 L1065.7,114.5 L1066.0,101.6 L1066.2,110.6 L1066.5,113.2 L1066.8,118.3 L1067.0,114.5 L1067.3,92.7 L1067.5,106.8 L1067.8,102.9 L1068.1,86.3 L1068.3,127.3 L1068.6,119.6 L1068.9,86.3 L1069.1,101.6 L1069.4,111.9 L1069.6,110.6 L1069.9,102.9 L1070.2,100.4 L1070.4,109.3 L1070.7,109.3 L1070.9,83.7 L1071.2,87.5 L1071.5,127.3 L1071.7,100.4 L1072.0,104.2 L1072.2,102.9 L1072.5,97.8 L1072.8,108.1 L1073.0,86.3 L1073.3,101.6 L1073.6,95.2 L1073.8,120.9 L1074.1,95.2 L1074.3,113.2 L1074.6,104.2 L1074.9,122.2 L1075.1,87.5 L1075.4,95.2 L1075.6,90.1 L1075.9,113.2 L1076.2,118.3 L1076.4,90.1 L1076.7,97.8 L1076.9,129.9 L1077.2,123.4 L1077.5,119.6 L1077.7,97.8 L1078.0,111.9 L1078.3,123.4 L1078.5,85.0 L1078.8,126.0 L1079.0,105.5 L1079.3,96.5 L1079.6,111.9 L1079.8,106.8 L1080.1,111.9 L1080.3,97.8 L1080.6,114.5 L1080.9,109.3 L1081.1,109.3 L1081.4,124.7 L1081.6,92.7 L1081.9,129.9 L1082.2,90.1 L1082.4,109.3 L1082.7,102.9 L1083.0,110.6 L1083.2,127.3 L1083.5,137.5 L1083.7,160.6 L1084.0,168.3" fill="none" stroke="#ff7f0e" stroke-width="1.1" opacity="0.85"/><text x="616" y="572" font-size="11" fill="#888">time 0..36 s — altitude (blue) &amp; roll (orange)</text></svg>