<svg xmlns="http://www.w3.org/2000/svg" width="1140" height="600" font-family="sans-serif" font-size="13"><rect width="1140" height="600" fill="white"/><text x="20" y="26" font-size="15" fill="#333">TMS-7 F15 — cross-wind 6 m/s (10% noise)</text><rect x="20" y="40" width="540" height="540" fill="#fbfbfb" stroke="#ddd"/><rect x="50" y="243" width="379" height="82" fill="#cde" stroke="#369" opacity="0.7"/><text x="50" y="238" fill="#369" font-size="12">landing zone</text><circle cx="290" cy="371" r="5" fill="black"/><text x="298" y="375" font-size="12">pad</text><path d="M290.0,371.1 L290.0,371.1 L290.0,371.1 L290.0,371.1 L290.0,371.1 L290.0,371.1 L290.0,371.1 L290.0,371.1 L290.0,371.1 L290.0,371.1 L290.0,371.1 L290.0,371.1 L290.0,371.1 L290.0,371.1 L290.0,371.1 L290.0,371.1 L290.0,371.1 L290.0,371.1 L290.0,371.1 L290.0,371.1 L290.0,371.1 L290.0,371.1 L290.0,371.1 L290.0,371.1 L290.0,371.1 L290.0,371.1 L290.0,371.1 L290.0,371.1 L290.0,371.1 L290.0,371.1 L290.0,371.1 L290.0,371.1 L290.0,371.1 L290.0,371.1 L290.0,371.1 L290.0,371.1 L290.0,371.1 L290.0,371.1 L290.0,371.1 L290.0,371.1 L290.0,371.1 L290.0,371.1 L290.0,371.1 L290.0,371.1 L290.0,371.1 L290.0,371.1 L290.0,371.1 L290.0,371.1 L290.0,371.1 L290.0,371.1 L290.0,371.1 L290.0,371.1 L290.0,371.1 L290.0,371.1 L290.0,371.1 L290.0,371.1 L290.0,371.1 L290.0,371.1 L290.8,369.8 L291.8,368.0 L292.9,366.4 L294.1,364.8 L295.3,363.2 L296.5,361.9 L297.7,360.3 L299.2,358.9 L300.6,357.6 L302.2,356.2 L303.7,355.1 L305.3,353.9 L307.1,352.6 L308.8,351.7 L310.6,350.6 L312.4,349.4 L314.3,348.5 L316.1,347.6 L317.9,346.7 L319.8,345.8 L321.8,344.9 L323.6,344.0 L325.7,343.3 L327.7,342.4 L329.8,341.7 L331.6,340.8 L333.6,340.2 L335.7,339.5 L337.7,338.6 L339.8,337.9 L341.8,337.2 L343.8,336.5 L346.1,335.9 L348.1,335.2 L350.2,334.5 L352.2,333.8 L354.2,333.2 L356.5,332.5 L358.5,332.0 L360.6,331.4 L362.8,330.7 L364.8,330.0 L366.9,329.5 L369.1,328.9 L371.2,328.2 L373.2,327.5 L375.2,326.8 L377.5,326.2 L379.5,325.5 L381.6,324.8 L383.6,324.1 L385.6,323.4 L387.7,322.8 L389.7,321.9 L391.5,321.0 L393.4,320.1 L395.2,318.9 L396.8,317.8 L398.5,316.7 L400.1,315.5 L401.7,314.2 L403.2,312.8 L404.4,311.5 L405.8,309.9 L407.0,308.3 L408.1,306.7 L409.3,305.1 L410.1,303.6 L411.1,301.8 L411.9,299.9 L412.5,298.1 L413.2,296.3 L413.8,294.3 L414.2,292.5 L414.6,290.5 L414.8,288.4 L415.0,286.4 L415.0,284.4 L415.0,282.3 L415.0,280.3 L414.8,278.3 L414.4,276.0 L414.0,274.0 L413.6,271.7 L413.0,269.7 L412.3,267.4 L411.5,265.4 L410.5,263.3 L409.7,261.1 L408.7,259.0 L407.5,256.8 L406.2,254.8 L404.8,252.7 L403.4,250.5 L401.9,248.4 L400.3,246.4 L398.7,244.6 L396.8,242.6 L395.0,240.5 L393.2,238.5 L391.3,236.7 L389.5,234.6 L387.7,232.6 L386.0,230.8 L384.2,228.8 L382.6,226.7 L380.9,224.7 L379.5,222.7 L378.1,220.6 L376.7,218.4 L375.4,216.3 L374.2,214.3 L373.0,212.1 L372.0,210.0 L371.0,207.8 L370.1,205.7 L369.3,203.5 L368.7,201.4 L368.1,199.2 L367.5,197.1 L367.1,195.1 L366.9,192.8 L366.5,190.8 L366.5,188.8 L366.5,186.5 L366.5,184.5 L366.5,182.5 L366.9,180.4 L367.1,178.6 L367.5,176.6 L368.1,174.8 L368.5,172.7 L369.3,170.9 L369.9,169.1 L371.0,167.3 L371.8,165.7 L372.8,163.9 L373.8,162.3 L375.0,160.8 L376.3,159.4 L377.7,157.8 L379.1,156.5 L380.5,155.1 L382.2,154.0 L383.8,152.6 L385.4,151.5 L387.3,150.6 L389.1,149.5 L390.9,148.6 L392.8,147.9 L394.8,147.0 L396.8,146.3 L399.1,145.9 L401.3,145.2 L403.6,144.7 L405.8,144.5 L408.1,144.3 L410.5,144.0 L412.8,144.0 L415.2,144.0 L417.9,144.0 L420.3,144.3 L422.7,144.5 L425.4,144.9 L428.0,145.4 L430.5,146.1 L433.1,146.8 L435.8,147.4 L438.4,148.3 L441.1,149.5 L443.7,150.4 L446.6,151.5 L449.3,152.9 L451.9,154.2 L454.6,155.6 L457.2,157.1 L459.9,159.0 L462.5,160.5 L465.2,162.3 L467.8,164.4 L470.5,166.4 L472.9,168.4 L475.6,170.7 L478.0,173.0 L480.5,175.5 L482.9,177.9 L485.3,180.4 L487.8,183.1 L490.0,185.8 L492.3,188.8 L494.5,191.7 L496.8,194.7 L499.0,197.8 L501.0,201.0 L503.1,204.4 L504.9,207.5 L507.0,210.9 L508.8,214.5 L510.6,218.2 L512.3,221.8 L513.9,225.4 L515.5,229.2 L516.9,233.1 L518.4,236.9 L519.8,241.0 L521.0,245.0 L522.3,249.1 L523.3,253.2 L524.3,257.5 L525.3,261.5 L526.1,265.8 L526.9,270.1 L527.8,274.6 L528.4,278.9 L528.8,283.5 L529.2,288.0 L529.4,291.6 L529.8,295.4 L529.8,299.3 L530.0,303.1 L530.0,306.9 L530.0,310.8 L529.8,314.6 L529.6,318.5 L529.4,322.3 L529.2,326.2 L528.8,330.0 L528.4,333.8 L527.8,337.9 L527.1,341.7 L526.5,345.6 L525.9,349.4 L525.1,353.5 L524.3,357.3 L523.3,361.2 L522.3,365.0 L521.2,368.9 L520.2,372.7 L519.0,376.5 L517.8,380.4 L516.5,384.2 L515.1,388.1 L513.7,391.7 L512.3,395.5 L510.6,399.4 L509.0,403.0 L507.4,406.6 L505.5,410.4 L503.7,414.0 L501.9,417.7 L500.0,421.1 L498.0,424.7 L495.9,428.3 L493.9,431.7 L491.7,435.1 L489.4,438.4 L487.2,441.8 L484.9,445.2 L482.5,448.4 L480.0,451.8 L477.6,454.9 L475.1,458.1 L472.5,461.3 L469.8,464.2 L467.2,467.1 L464.5,470.3 L461.7,473.0 L459.0,476.0" fill="none" stroke="#1f77b4" stroke-width="1.7" opacity="0.85"/><circle cx="459" cy="476" r="4.5" fill="#1f77b4"/><text x="28" y="572" font-size="11" fill="#888">ground track — m from pad (N up)</text><rect x="580" y="40" width="540" height="540" fill="#fbfbfb" stroke="#ddd"/><text x="586" y="54" fill="#1f77b4" font-size="11">alt 300</text><text x="586" y="558" fill="#1f77b4" font-size="11">2</text><path d="M616.0,543.3 L616.3,543.5 L616.5,543.6 L616.8,544.0 L617.0,543.9 L617.3,543.9 L617.5,543.1 L617.8,543.5 L618.0,543.6 L618.3,542.8 L618.5,542.5 L618.8,542.2 L619.0,541.9 L619.3,542.7 L619.5,542.1 L619.8,541.5 L620.0,541.1 L620.3,541.3 L620.5,541.5 L620.8,540.8 L621.0,540.4 L621.3,540.9 L621.5,539.9 L621.8,540.0 L622.0,539.1 L622.3,538.2 L622.5,539.1 L622.8,538.7 L623.0,538.2 L623.3,537.2 L623.5,536.4 L623.8,535.4 L624.0,534.6 L624.3,534.3 L624.5,534.8 L624.8,534.4 L625.0,534.6 L625.3,533.1 L625.6,533.2 L625.8,532.9 L626.1,530.5 L626.3,530.5 L626.6,532.1 L626.8,530.5 L627.1,529.9 L627.3,527.5 L627.6,528.6 L627.8,526.4 L628.1,524.9 L628.3,526.0 L628.6,523.6 L628.8,523.6 L629.1,525.1 L629.3,522.1 L629.6,523.4 L629.8,519.9 L630.1,518.8 L630.3,516.7 L630.6,517.9 L630.8,515.0 L631.1,518.6 L631.3,515.1 L631.6,513.9 L631.8,516.6 L632.1,510.3 L632.3,508.5 L632.6,513.0 L632.8,507.7 L633.1,511.2 L633.3,508.7 L633.6,503.4 L633.8,504.1 L634.1,503.0 L634.3,501.5 L634.6,498.3 L634.9,497.6 L635.1,497.2 L635.4,501.2 L635.6,502.4 L635.9,498.5 L636.1,494.4 L636.4,498.6 L636.6,492.8 L636.9,496.4 L637.1,495.8 L637.4,495.7 L637.6,493.6 L637.9,489.2 L638.1,483.9 L638.4,479.4 L638.6,481.4 L638.9,482.4 L639.1,475.5 L639.4,485.9 L639.6,475.2 L639.9,472.6 L640.1,480.4 L640.4,474.3 L640.6,473.1 L640.9,469.9 L641.1,467.9 L641.4,467.5 L641.6,461.6 L641.9,472.1 L642.1,468.7 L642.4,459.6 L642.6,468.3 L642.9,452.5 L643.1,451.4 L643.4,448.7 L643.6,458.6 L643.9,459.4 L644.2,445.6 L644.4,448.8 L644.7,456.8 L644.9,446.8 L645.2,445.5 L645.4,450.6 L645.7,446.4 L645.9,450.9 L646.2,448.4 L646.4,443.0 L646.7,429.8 L646.9,442.4 L647.2,432.2 L647.4,438.4 L647.7,424.1 L647.9,425.2 L648.2,421.2 L648.4,415.5 L648.7,411.5 L648.9,431.8 L649.2,410.5 L649.4,412.8 L649.7,426.8 L649.9,415.0 L650.2,419.9 L650.4,408.2 L650.7,404.1 L650.9,404.4 L651.2,409.2 L651.4,387.0 L651.7,400.0 L651.9,403.2 L652.2,401.4 L652.4,387.8 L652.7,385.3 L652.9,387.0 L653.2,389.2 L653.5,396.4 L653.7,370.6 L654.0,373.4 L654.2,383.1 L654.5,368.1 L654.7,363.6 L655.0,373.8 L655.2,355.3 L655.5,375.2 L655.7,369.3 L656.0,363.2 L656.2,353.1 L656.5,371.8 L656.7,346.8 L657.0,359.3 L657.2,346.9 L657.5,348.2 L657.7,333.5 L658.0,363.4 L658.2,330.4 L658.5,362.1 L658.7,327.9 L659.0,339.2 L659.2,334.6 L659.5,324.6 L659.7,345.0 L660.0,327.3 L660.2,320.7 L660.5,311.5 L660.7,333.2 L661.0,312.5 L661.2,334.4 L661.5,321.7 L661.7,291.4 L662.0,292.4 L662.2,290.8 L662.5,301.1 L662.7,316.5 L663.0,281.0 L663.3,299.3 L663.5,276.6 L663.8,284.3 L664.0,281.5 L664.3,268.9 L664.5,314.8 L664.8,266.1 L665.0,287.6 L665.3,259.7 L665.5,298.1 L665.8,296.8 L666.0,279.2 L666.3,297.0 L666.5,274.6 L666.8,278.3 L667.0,288.3 L667.3,285.6 L667.5,279.3 L667.8,256.5 L668.0,235.9 L668.3,281.8 L668.5,266.1 L668.8,248.3 L669.0,250.5 L669.3,246.5 L669.5,245.1 L669.8,226.9 L670.0,226.3 L670.3,265.3 L670.5,247.7 L670.8,221.7 L671.0,251.6 L671.3,250.3 L671.5,225.3 L671.8,248.0 L672.0,250.9 L672.3,244.1 L672.6,253.0 L672.8,204.3 L673.1,221.3 L673.3,247.0 L673.6,217.0 L673.8,227.5 L674.1,234.3 L674.3,214.3 L674.6,202.8 L674.8,202.9 L675.1,220.5 L675.3,203.2 L675.6,180.4 L675.8,199.1 L676.1,187.6 L676.3,217.0 L676.6,226.4 L676.8,231.8 L677.1,197.6 L677.3,223.3 L677.6,181.3 L677.8,168.5 L678.1,197.4 L678.3,171.4 L678.6,166.5 L678.8,190.6 L679.1,211.2 L679.3,209.1 L679.6,188.7 L679.8,184.8 L680.1,145.3 L680.3,211.3 L680.6,164.0 L680.8,205.1 L681.1,138.9 L681.3,149.1 L681.6,182.4 L681.9,146.7 L682.1,167.9 L682.4,146.3 L682.6,154.3 L682.9,143.1 L683.1,134.2 L683.4,173.7 L683.6,130.1 L683.9,123.6 L684.1,138.7 L684.4,182.3 L684.6,177.3 L684.9,144.8 L685.1,144.2 L685.4,167.7 L685.6,158.3 L685.9,139.2 L686.1,169.3 L686.4,115.8 L686.6,172.4 L686.9,166.6 L687.1,113.8 L687.4,153.0 L687.6,131.7 L687.9,171.1 L688.1,100.1 L688.4,170.1 L688.6,129.3 L688.9,93.4 L689.1,173.6 L689.4,114.7 L689.6,99.6 L689.9,167.4 L690.1,129.6 L690.4,145.0 L690.6,98.8 L690.9,104.8 L691.2,101.5 L691.4,91.3 L691.7,160.0 L691.9,127.4 L692.2,82.9 L692.4,76.0 L692.7,82.5 L692.9,125.3 L693.2,136.9 L693.4,106.8 L693.7,149.9 L693.9,153.5 L694.2,138.3 L694.4,113.3 L694.7,79.7 L694.9,115.4 L695.2,130.5 L695.4,135.5 L695.7,123.9 L695.9,86.4 L696.2,154.2 L696.4,86.7 L696.7,123.0 L696.9,117.4 L697.2,153.8 L697.4,143.5 L697.7,128.7 L697.9,104.4 L698.2,112.3 L698.4,120.3 L698.7,143.3 L698.9,105.7 L699.2,107.6 L699.4,138.6 L699.7,115.5 L699.9,83.5 L700.2,111.7 L700.5,102.9 L700.7,126.1 L701.0,78.8 L701.2,118.1 L701.5,96.8 L701.7,112.5 L702.0,104.5 L702.2,79.0 L702.5,156.1 L702.7,123.8 L703.0,112.6 L703.2,155.4 L703.5,118.5 L703.7,111.7 L704.0,78.2 L704.2,126.2 L704.5,137.0 L704.7,146.7 L705.0,98.7 L705.2,104.7 L705.5,127.8 L705.7,101.8 L706.0,76.2 L706.2,89.0 L706.5,84.1 L706.7,160.4 L707.0,80.1 L707.2,125.6 L707.5,86.6 L707.7,105.8 L708.0,87.5 L708.2,138.4 L708.5,143.4 L708.7,95.2 L709.0,76.5 L709.2,89.8 L709.5,112.4 L709.8,94.1 L710.0,104.5 L710.3,141.9 L710.5,103.1 L710.8,153.9 L711.0,127.8 L711.3,114.4 L711.5,105.3 L711.8,157.9 L712.0,158.8 L712.3,80.3 L712.5,120.5 L712.8,83.7 L713.0,121.2 L713.3,88.6 L713.5,88.4 L713.8,146.7 L714.0,83.6 L714.3,149.7 L714.5,96.3 L714.8,159.7 L715.0,146.8 L715.3,158.6 L715.5,121.1 L715.8,101.5 L716.0,141.8 L716.3,151.0 L716.5,135.3 L716.8,121.0 L717.0,159.1 L717.3,124.2 L717.5,143.2 L717.8,79.1 L718.0,98.0 L718.3,123.2 L718.5,133.6 L718.8,98.9 L719.1,153.1 L719.3,141.0 L719.6,150.7 L719.8,157.7 L720.1,149.2 L720.3,79.9 L720.6,99.8 L720.8,162.4 L721.1,123.7 L721.3,139.2 L721.6,139.5 L721.8,164.3 L722.1,159.0 L722.3,125.6 L722.6,151.6 L722.8,135.1 L723.1,103.0 L723.3,165.8 L723.6,103.6 L723.8,101.9 L724.1,164.8 L724.3,122.8 L724.6,136.5 L724.8,163.2 L725.1,126.1 L725.3,152.3 L725.6,156.1 L725.8,141.1 L726.1,165.2 L726.3,150.7 L726.6,113.9 L726.8,151.7 L727.1,138.3 L727.3,153.4 L727.6,101.5 L727.8,83.7 L728.1,129.4 L728.4,146.0 L728.6,95.3 L728.9,88.5 L729.1,161.6 L729.4,138.9 L729.6,154.6 L729.9,124.9 L730.1,120.8 L730.4,95.8 L730.6,106.8 L730.9,167.4 L731.1,131.9 L731.4,93.6 L731.6,163.3 L731.9,104.4 L732.1,90.2 L732.4,109.9 L732.6,91.0 L732.9,127.2 L733.1,145.7 L733.4,100.6 L733.6,90.6 L733.9,164.0 L734.1,103.0 L734.4,142.2 L734.6,162.8 L734.9,128.7 L735.1,134.7 L735.4,131.8 L735.6,95.1 L735.9,157.8 L736.1,157.9 L736.4,154.4 L736.6,146.2 L736.9,158.0 L737.1,92.5 L737.4,135.8 L737.6,170.5 L737.9,112.8 L738.2,101.1 L738.4,101.7 L738.7,131.4 L738.9,153.6 L739.2,162.7 L739.4,138.3 L739.7,119.1 L739.9,130.5 L740.2,157.5 L740.4,104.9 L740.7,89.7 L740.9,92.0 L741.2,110.7 L741.4,167.3 L741.7,151.7 L741.9,132.9 L742.2,171.6 L742.4,92.9 L742.7,159.0 L742.9,156.2 L743.2,151.8 L743.4,113.8 L743.7,159.8 L743.9,95.8 L744.2,127.0 L744.4,113.9 L744.7,129.4 L744.9,167.4 L745.2,163.4 L745.4,165.4 L745.7,153.5 L745.9,127.9 L746.2,155.2 L746.4,92.9 L746.7,115.4 L746.9,170.3 L747.2,130.1 L747.5,131.0 L747.7,167.8 L748.0,101.3 L748.2,169.2 L748.5,141.3 L748.7,148.2 L749.0,112.6 L749.2,130.1 L749.5,104.9 L749.7,143.0 L750.0,154.1 L750.2,143.3 L750.5,117.1 L750.7,97.9 L751.0,145.3 L751.2,150.6 L751.5,163.4 L751.7,118.6 L752.0,100.5 L752.2,138.4 L752.5,170.6 L752.7,118.9 L753.0,177.0 L753.2,158.8 L753.5,170.3 L753.7,120.8 L754.0,121.8 L754.2,176.7 L754.5,134.0 L754.7,101.5 L755.0,111.4 L755.2,99.0 L755.5,98.4 L755.7,107.2 L756.0,115.3 L756.2,118.0 L756.5,162.7 L756.8,178.0 L757.0,130.5 L757.3,166.8 L757.5,164.7 L757.8,129.8 L758.0,164.4 L758.3,122.6 L758.5,172.1 L758.8,178.2 L759.0,111.5 L759.3,179.7 L759.5,176.4 L759.8,134.6 L760.0,165.4 L760.3,178.2 L760.5,128.0 L760.8,138.5 L761.0,139.7 L761.3,178.8 L761.5,136.2 L761.8,135.3 L762.0,126.5 L762.3,131.8 L762.5,141.0 L762.8,169.5 L763.0,180.0 L763.3,152.8 L763.5,149.4 L763.8,156.9 L764.0,113.7 L764.3,108.2 L764.5,109.8 L764.8,171.7 L765.0,122.1 L765.3,174.6 L765.5,137.4 L765.8,142.9 L766.1,169.0 L766.3,137.0 L766.6,110.0 L766.8,159.8 L767.1,155.2 L767.3,150.4 L767.6,128.4 L767.8,183.6 L768.1,125.8 L768.3,118.4 L768.6,163.7 L768.8,169.7 L769.1,160.9 L769.3,108.7 L769.6,175.2 L769.8,107.2 L770.1,131.1 L770.3,121.4 L770.6,145.6 L770.8,121.8 L771.1,109.3 L771.3,127.1 L771.6,168.3 L771.8,169.0 L772.1,153.6 L772.3,183.7 L772.6,125.7 L772.8,163.6 L773.1,186.4 L773.3,148.1 L773.6,141.0 L773.8,129.0 L774.1,116.0 L774.3,130.9 L774.6,155.9 L774.8,134.3 L775.1,118.1 L775.4,141.8 L775.6,136.7 L775.9,174.0 L776.1,122.9 L776.4,183.7 L776.6,178.8 L776.9,114.4 L777.1,170.3 L777.4,127.1 L777.6,114.7 L777.9,134.4 L778.1,146.0 L778.4,182.2 L778.6,168.3 L778.9,190.6 L779.1,149.4 L779.4,181.7 L779.6,156.4 L779.9,146.2 L780.1,172.8 L780.4,170.9 L780.6,117.1 L780.9,154.1 L781.1,114.8 L781.4,152.4 L781.6,164.7 L781.9,145.5 L782.1,164.1 L782.4,118.2 L782.6,185.3 L782.9,153.4 L783.1,140.0 L783.4,115.9 L783.6,189.0 L783.9,176.5 L784.1,174.8 L784.4,133.3 L784.7,127.4 L784.9,162.8 L785.2,161.0 L785.4,176.2 L785.7,168.6 L785.9,118.9 L786.2,120.5 L786.4,129.3 L786.7,132.4 L786.9,168.7 L787.2,130.4 L787.4,165.7 L787.7,133.7 L787.9,133.3 L788.2,148.7 L788.4,173.2 L788.7,176.2 L788.9,163.9 L789.2,184.0 L789.4,182.1 L789.7,185.1 L789.9,164.8 L790.2,168.7 L790.4,180.7 L790.7,163.5 L790.9,161.8 L791.2,199.2 L791.4,169.5 L791.7,151.2 L791.9,132.6 L792.2,172.4 L792.4,140.3 L792.7,142.1 L792.9,159.4 L793.2,185.8 L793.4,149.4 L793.7,141.2 L794.0,150.2 L794.2,130.5 L794.5,140.6 L794.7,177.7 L795.0,185.9 L795.2,187.2 L795.5,145.3 L795.7,176.2 L796.0,198.4 L796.2,185.0 L796.5,132.2 L796.7,163.6 L797.0,162.4 L797.2,141.6 L797.5,185.0 L797.7,191.1 L798.0,140.1 L798.2,129.1 L798.5,134.3 L798.7,188.7 L799.0,128.8 L799.2,136.6 L799.5,170.2 L799.7,131.7 L800.0,140.0 L800.2,195.8 L800.5,191.4 L800.7,157.3 L801.0,151.4 L801.2,153.7 L801.5,178.7 L801.7,150.4 L802.0,155.6 L802.2,150.7 L802.5,146.2 L802.7,175.5 L803.0,162.0 L803.3,140.6 L803.5,200.1 L803.8,172.5 L804.0,133.3 L804.3,171.4 L804.5,198.9 L804.8,184.4 L805.0,158.1 L805.3,165.5 L805.5,179.7 L805.8,146.9 L806.0,170.8 L806.3,189.2 L806.5,159.1 L806.8,137.3 L807.0,182.9 L807.3,193.8 L807.5,205.0 L807.8,204.5 L808.0,167.6 L808.3,149.2 L808.5,148.5 L808.8,141.3 L809.0,167.7 L809.3,198.2 L809.5,156.6 L809.8,209.4 L810.0,180.1 L810.3,202.3 L810.5,156.8 L810.8,157.9 L811.0,157.4 L811.3,167.1 L811.5,213.0 L811.8,154.4 L812.0,199.4 L812.3,180.9 L812.5,163.3 L812.8,195.8 L813.1,189.4 L813.3,187.3 L813.6,211.8 L813.8,145.8 L814.1,148.7 L814.3,180.7 L814.6,181.1 L814.8,176.9 L815.1,174.7 L815.3,191.8 L815.6,164.1 L815.8,154.3 L816.1,199.5 L816.3,214.7 L816.6,205.4 L816.8,173.3 L817.1,147.2 L817.3,172.2 L817.6,179.2 L817.8,195.8 L818.1,185.1 L818.3,185.1 L818.6,172.3 L818.8,198.0 L819.1,193.6 L819.3,155.6 L819.6,196.4 L819.8,204.8 L820.1,183.7 L820.3,172.0 L820.6,214.3 L820.8,190.9 L821.1,156.8 L821.3,212.8 L821.6,204.7 L821.8,160.3 L822.1,173.0 L822.4,152.0 L822.6,210.7 L822.9,203.4 L823.1,171.6 L823.4,153.1 L823.6,176.2 L823.9,221.8 L824.1,199.5 L824.4,165.7 L824.6,175.6 L824.9,173.4 L825.1,193.8 L825.4,188.1 L825.6,180.2 L825.9,207.7 L826.1,223.3 L826.4,205.3 L826.6,193.0 L826.9,181.3 L827.1,165.3 L827.4,162.3 L827.6,170.3 L827.9,169.5 L828.1,166.9 L828.4,158.6 L828.6,171.0 L828.9,208.3 L829.1,213.3 L829.4,194.3 L829.6,187.8 L829.9,218.6 L830.1,185.3 L830.4,190.3 L830.6,177.4 L830.9,175.0 L831.1,172.4 L831.4,185.5 L831.7,220.7 L831.9,177.5 L832.2,216.7 L832.4,223.5 L832.7,211.9 L832.9,168.9 L833.2,222.5 L833.4,201.1 L833.7,182.2 L833.9,215.4 L834.2,222.2 L834.4,187.2 L834.7,194.3 L834.9,179.0 L835.2,173.4 L835.4,224.5 L835.7,215.4 L835.9,170.3 L836.2,200.6 L836.4,174.4 L836.7,211.0 L836.9,206.8 L837.2,227.5 L837.4,233.3 L837.7,200.7 L837.9,213.7 L838.2,233.9 L838.4,181.5 L838.7,210.2 L838.9,214.6 L839.2,174.2 L839.4,190.4 L839.7,201.7 L839.9,198.4 L840.2,218.5 L840.4,205.9 L840.7,180.2 L841.0,193.3 L841.2,227.9 L841.5,197.8 L841.7,211.9 L842.0,193.7 L842.2,215.4 L842.5,235.1 L842.7,180.3 L843.0,198.1 L843.2,219.5 L843.5,227.0 L843.7,221.6 L844.0,197.7 L844.2,216.5 L844.5,228.6 L844.7,225.8 L845.0,181.1 L845.2,179.3 L845.5,222.5 L845.7,224.0 L846.0,196.1 L846.2,237.6 L846.5,180.8 L846.7,218.6 L847.0,221.9 L847.2,202.2 L847.5,204.5 L847.7,181.8 L848.0,223.1 L848.2,231.5 L848.5,228.9 L848.7,184.1 L849.0,211.9 L849.2,216.5 L849.5,244.6 L849.7,218.0 L850.0,200.8 L850.3,224.9 L850.5,230.8 L850.8,234.3 L851.0,183.7 L851.3,236.6 L851.5,203.2 L851.8,228.4 L852.0,207.9 L852.3,188.1 L852.5,239.7 L852.8,240.1 L853.0,221.6 L853.3,210.3 L853.5,247.2 L853.8,221.5 L854.0,188.4 L854.3,221.6 L854.5,212.3 L854.8,217.3 L855.0,196.2 L855.3,215.5 L855.5,197.8 L855.8,219.4 L856.0,204.0 L856.3,223.2 L856.5,222.5 L856.8,255.2 L857.0,208.8 L857.3,254.9 L857.5,254.1 L857.8,201.2 L858.0,206.0 L858.3,241.0 L858.5,205.8 L858.8,215.8 L859.0,250.1 L859.3,194.2 L859.6,208.8 L859.8,257.2 L860.1,205.9 L860.3,196.9 L860.6,241.3 L860.8,206.5 L861.1,200.5 L861.3,253.4 L861.6,239.1 L861.8,253.4 L862.1,250.6 L862.3,201.3 L862.6,218.7 L862.8,201.7 L863.1,245.2 L863.3,200.7 L863.6,243.0 L863.8,250.4 L864.1,221.1 L864.3,261.5 L864.6,209.2 L864.8,243.8 L865.1,241.3 L865.3,258.4 L865.6,235.0 L865.8,228.2 L866.1,227.6 L866.3,218.7 L866.6,207.1 L866.8,225.9 L867.1,256.3 L867.3,242.8 L867.6,260.0 L867.8,231.1 L868.1,210.8 L868.3,230.1 L868.6,264.1 L868.9,224.1 L869.1,246.4 L869.4,230.3 L869.6,215.0 L869.9,210.0 L870.1,233.8 L870.4,214.6 L870.6,253.7 L870.9,255.6 L871.1,212.3 L871.4,214.6 L871.6,244.4 L871.9,232.1 L872.1,213.2 L872.4,249.2 L872.6,223.0 L872.9,220.9 L873.1,214.9 L873.4,216.8 L873.6,232.9 L873.9,230.5 L874.1,249.5 L874.4,218.3 L874.6,237.4 L874.9,235.8 L875.1,243.0 L875.4,223.6 L875.6,227.9 L875.9,255.2 L876.1,226.2 L876.4,261.9 L876.6,268.2 L876.9,235.2 L877.1,215.9 L877.4,240.0 L877.6,258.3 L877.9,269.0 L878.2,229.9 L878.4,248.4 L878.7,238.9 L878.9,238.4 L879.2,234.1 L879.4,226.1 L879.7,277.4 L879.9,234.9 L880.2,266.3 L880.4,247.4 L880.7,261.8 L880.9,278.2 L881.2,242.2 L881.4,231.6 L881.7,223.2 L881.9,240.9 L882.2,266.3 L882.4,233.2 L882.7,223.5 L882.9,236.1 L883.2,281.2 L883.4,253.9 L883.7,277.1 L883.9,227.1 L884.2,256.3 L884.4,277.5 L884.7,243.7 L884.9,231.0 L885.2,251.0 L885.4,251.8 L885.7,232.1 L885.9,265.6 L886.2,272.7 L886.4,277.3 L886.7,261.2 L886.9,281.4 L887.2,251.2 L887.5,232.8 L887.7,247.9 L888.0,286.6 L888.2,241.6 L888.5,279.0 L888.7,266.1 L889.0,241.3 L889.2,246.6 L889.5,271.4 L889.7,237.3 L890.0,283.5 L890.2,268.6 L890.5,276.7 L890.7,273.5 L891.0,284.6 L891.2,248.9 L891.5,266.3 L891.7,260.4 L892.0,280.3 L892.2,238.7 L892.5,235.2 L892.7,264.0 L893.0,270.5 L893.2,271.7 L893.5,265.5 L893.7,260.1 L894.0,265.8 L894.2,281.8 L894.5,239.8 L894.7,238.1 L895.0,287.0 L895.2,278.5 L895.5,278.1 L895.7,294.5 L896.0,292.8 L896.2,270.9 L896.5,278.7 L896.7,255.6 L897.0,272.4 L897.3,293.9 L897.5,277.5 L897.8,271.7 L898.0,289.6 L898.3,287.2 L898.5,275.6 L898.8,248.2 L899.0,266.9 L899.3,249.7 L899.5,298.4 L899.8,289.9 L900.0,286.2 L900.3,263.8 L900.5,253.1 L900.8,276.0 L901.0,290.4 L901.3,272.3 L901.5,261.2 L901.8,252.2 L902.0,265.5 L902.3,276.5 L902.5,286.8 L902.8,277.6 L903.0,268.0 L903.3,286.7 L903.5,303.8 L903.8,279.5 L904.0,268.1 L904.3,286.2 L904.5,289.5 L904.8,293.7 L905.0,265.2 L905.3,304.1 L905.5,297.1 L905.8,282.9 L906.0,290.5 L906.3,265.8 L906.6,273.4 L906.8,278.6 L907.1,282.4 L907.3,260.0 L907.6,279.0 L907.8,261.2 L908.1,267.4 L908.3,284.5 L908.6,276.0 L908.8,289.6 L909.1,300.5 L909.3,259.2 L909.6,299.5 L909.8,298.0 L910.1,297.6 L910.3,272.5 L910.6,279.9 L910.8,285.1 L911.1,284.2 L911.3,267.4 L911.6,300.0 L911.8,276.6 L912.1,285.2 L912.3,267.7 L912.6,302.1 L912.8,312.1 L913.1,309.6 L913.3,281.1 L913.6,278.0 L913.8,294.9 L914.1,286.7 L914.3,312.2 L914.6,296.8 L914.8,285.1 L915.1,278.6 L915.3,297.5 L915.6,307.4 L915.9,282.1 L916.1,297.9 L916.4,270.5 L916.6,280.2 L916.9,311.1 L917.1,274.8 L917.4,273.2 L917.6,317.1 L917.9,273.7 L918.1,314.6 L918.4,278.4 L918.6,305.4 L918.9,289.1 L919.1,291.5 L919.4,293.4 L919.6,292.0 L919.9,302.2 L920.1,287.8 L920.4,297.4 L920.6,302.1 L920.9,306.0 L921.1,289.1 L921.4,308.1 L921.6,282.8 L921.9,320.0 L922.1,316.5 L922.4,284.4 L922.6,298.0 L922.9,296.8 L923.1,302.2 L923.4,295.6 L923.6,280.8 L923.9,316.4 L924.1,326.9 L924.4,309.2 L924.6,292.9 L924.9,317.3 L925.2,321.2 L925.4,296.9 L925.7,293.2 L925.9,284.6 L926.2,292.5 L926.4,311.5 L926.7,324.6 L926.9,313.7 L927.2,299.9 L927.4,330.2 L927.7,299.7 L927.9,318.4 L928.2,327.3 L928.4,325.2 L928.7,305.8 L928.9,307.8 L929.2,301.4 L929.4,333.5 L929.7,290.1 L929.9,317.6 L930.2,316.8 L930.4,288.5 L930.7,317.5 L930.9,304.5 L931.2,312.4 L931.4,307.6 L931.7,298.5 L931.9,294.1 L932.2,331.2 L932.4,300.4 L932.7,332.3 L932.9,302.4 L933.2,294.5 L933.4,320.6 L933.7,300.3 L933.9,339.3 L934.2,297.8 L934.5,297.9 L934.7,325.4 L935.0,295.5 L935.2,300.1 L935.5,325.4 L935.7,300.9 L936.0,308.0 L936.2,316.7 L936.5,318.6 L936.7,314.8 L937.0,330.8 L937.2,304.3 L937.5,306.7 L937.7,334.4 L938.0,309.9 L938.2,344.7 L938.5,338.3 L938.7,325.6 L939.0,337.4 L939.2,309.7 L939.5,305.9 L939.7,326.3 L940.0,316.5 L940.2,331.7 L940.5,304.6 L940.7,304.6 L941.0,326.9 L941.2,333.2 L941.5,315.4 L941.7,337.7 L942.0,321.2 L942.2,327.4 L942.5,326.1 L942.7,315.2 L943.0,342.0 L943.2,311.6 L943.5,316.2 L943.8,314.2 L944.0,314.0 L944.3,326.2 L944.5,326.2 L944.8,332.5 L945.0,339.4 L945.3,332.4 L945.5,339.0 L945.8,313.1 L946.0,325.3 L946.3,333.9 L946.5,325.2 L946.8,333.7 L947.0,317.5 L947.3,355.1 L947.5,315.1 L947.8,345.9 L948.0,321.3 L948.3,316.4 L948.5,357.0 L948.8,331.2 L949.0,337.6 L949.3,346.2 L949.5,349.4 L949.8,358.7 L950.0,318.4 L950.3,331.4 L950.5,353.3 L950.8,321.1 L951.0,353.7 L951.3,357.9 L951.5,357.2 L951.8,358.6 L952.0,348.8 L952.3,356.3 L952.5,350.9 L952.8,349.1 L953.1,352.7 L953.3,359.4 L953.6,340.9 L953.8,340.8 L954.1,357.1 L954.3,339.2 L954.6,345.5 L954.8,362.4 L955.1,362.7 L955.3,327.9 L955.6,357.1 L955.8,349.2 L956.1,342.8 L956.3,349.7 L956.6,338.2 L956.8,359.9 L957.1,360.2 L957.3,367.9 L957.6,331.2 L957.8,338.2 L958.1,365.0 L958.3,340.1 L958.6,356.8 L958.8,356.4 L959.1,351.5 L959.3,363.8 L959.6,335.9 L959.8,362.1 L960.1,355.1 L960.3,339.5 L960.6,344.1 L960.8,354.9 L961.1,351.5 L961.3,335.7 L961.6,350.8 L961.8,358.6 L962.1,343.1 L962.4,369.7 L962.6,368.6 L962.9,347.4 L963.1,353.9 L963.4,352.4 L963.6,370.5 L963.9,373.8 L964.1,360.4 L964.4,344.1 L964.6,353.4 L964.9,377.1 L965.1,376.2 L965.4,353.9 L965.6,369.0 L965.9,349.4 L966.1,362.8 L966.4,377.1 L966.6,360.0 L966.9,380.7 L967.1,372.1 L967.4,368.6 L967.6,380.9 L967.9,353.6 L968.1,369.2 L968.4,359.2 L968.6,369.3 L968.9,371.4 L969.1,353.4 L969.4,355.8 L969.6,362.1 L969.9,351.3 L970.1,364.9 L970.4,383.3 L970.6,355.7 L970.9,363.7 L971.1,360.1 L971.4,377.8 L971.6,378.3 L971.9,355.6 L972.2,365.2 L972.4,373.0 L972.7,359.4 L972.9,383.0 L973.2,383.6 L973.4,369.0 L973.7,362.5 L973.9,385.4 L974.2,383.9 L974.4,379.5 L974.7,360.7 L974.9,361.2 L975.2,385.6 L975.4,362.6 L975.7,369.1 L975.9,366.8 L976.2,391.9 L976.4,365.3 L976.7,369.6 L976.9,386.0 L977.2,373.2 L977.4,382.3 L977.7,391.2 L977.9,378.6 L978.2,370.6 L978.4,376.6 L978.7,388.4 L978.9,380.8 L979.2,383.1 L979.4,389.4 L979.7,382.0 L979.9,386.9 L980.2,383.5 L980.4,389.3 L980.7,394.1 L980.9,377.1 L981.2,369.6 L981.5,377.7 L981.7,400.3 L982.0,399.7 L982.2,390.3 L982.5,388.9 L982.7,376.2 L983.0,390.1 L983.2,371.2 L983.5,383.2 L983.7,396.1 L984.0,377.5 L984.2,387.4 L984.5,375.7 L984.7,380.7 L985.0,378.3 L985.2,388.8 L985.5,385.6 L985.7,383.9 L986.0,394.3 L986.2,383.9 L986.5,379.0 L986.7,389.8 L987.0,380.9 L987.2,396.4 L987.5,390.0 L987.7,379.3 L988.0,391.7 L988.2,406.8 L988.5,406.9 L988.7,380.7 L989.0,400.7 L989.2,392.6 L989.5,388.8 L989.7,401.3 L990.0,408.8 L990.2,400.6 L990.5,407.1 L990.8,391.6 L991.0,408.8 L991.3,404.3 L991.5,392.4 L991.8,410.6 L992.0,399.4 L992.3,410.1 L992.5,397.3 L992.8,413.3 L993.0,392.7 L993.3,405.0 L993.5,400.7 L993.8,404.9 L994.0,412.2 L994.3,412.9 L994.5,413.1 L994.8,393.5 L995.0,418.3 L995.3,394.5 L995.5,416.6 L995.8,401.7 L996.0,399.1 L996.3,396.4 L996.5,403.9 L996.8,409.2 L997.0,405.5 L997.3,396.8 L997.5,420.5 L997.8,399.8 L998.0,421.6 L998.3,414.0 L998.5,409.7 L998.8,413.2 L999.0,423.9 L999.3,419.9 L999.5,398.9 L999.8,424.9 L1000.1,417.4 L1000.3,406.6 L1000.6,399.4 L1000.8,401.8 L1001.1,408.7 L1001.3,415.2 L1001.6,405.7 L1001.8,403.2 L1002.1,423.0 L1002.3,424.6 L1002.6,416.4 L1002.8,425.5 L1003.1,413.0 L1003.3,415.0 L1003.6,422.1 L1003.8,430.4 L1004.1,419.8 L1004.3,428.8 L1004.6,431.5 L1004.8,416.9 L1005.1,429.7 L1005.3,424.4 L1005.6,418.2 L1005.8,415.0 L1006.1,427.0 L1006.3,433.0 L1006.6,415.6 L1006.8,418.4 L1007.1,421.9 L1007.3,424.9 L1007.6,416.3 L1007.8,417.3 L1008.1,414.5 L1008.3,422.5 L1008.6,421.7 L1008.8,422.4 L1009.1,413.5 L1009.4,437.9 L1009.6,430.4 L1009.9,438.0 L1010.1,427.4 L1010.4,429.9 L1010.6,416.2 L1010.9,417.8 L1011.1,424.8 L1011.4,428.1 L1011.6,431.6 L1011.9,426.6 L1012.1,421.4 L1012.4,427.2 L1012.6,440.1 L1012.9,422.7 L1013.1,428.3 L1013.4,424.4 L1013.6,443.4 L1013.9,435.8 L1014.1,426.6 L1014.4,436.0 L1014.6,427.0 L1014.9,432.7 L1015.1,445.1 L1015.4,441.8 L1015.6,430.2 L1015.9,440.0 L1016.1,441.8 L1016.4,434.5 L1016.6,440.5 L1016.9,439.4 L1017.1,447.9 L1017.4,440.8 L1017.6,432.1 L1017.9,439.3 L1018.1,445.3 L1018.4,437.1 L1018.7,431.9 L1018.9,444.1 L1019.2,445.4 L1019.4,451.7 L1019.7,434.0 L1019.9,434.2 L1020.2,434.3 L1020.4,443.1 L1020.7,435.8 L1020.9,446.3 L1021.2,442.3 L1021.4,448.5 L1021.7,438.9 L1021.9,440.3 L1022.2,438.3 L1022.4,447.8 L1022.7,442.0 L1022.9,440.6 L1023.2,439.6 L1023.4,437.6 L1023.7,444.7 L1023.9,444.4 L1024.2,458.0 L1024.4,450.1 L1024.7,448.3 L1024.9,456.1 L1025.2,448.8 L1025.4,442.6 L1025.7,458.3 L1025.9,452.2 L1026.2,447.6 L1026.4,455.1 L1026.7,451.5 L1026.9,454.9 L1027.2,448.5 L1027.4,450.1 L1027.7,452.2 L1028.0,451.6 L1028.2,462.4 L1028.5,454.4 L1028.7,455.6 L1029.0,451.0 L1029.2,456.2 L1029.5,465.6 L1029.7,465.0 L1030.0,454.1 L1030.2,449.6 L1030.5,460.7 L1030.7,454.6 L1031.0,455.4 L1031.2,453.1 L1031.5,468.6 L1031.7,465.1 L1032.0,463.1 L1032.2,460.2 L1032.5,467.8 L1032.7,467.9 L1033.0,467.4 L1033.2,470.6 L1033.5,457.7 L1033.7,459.8 L1034.0,471.0 L1034.2,459.5 L1034.5,469.7 L1034.7,459.0 L1035.0,472.1 L1035.2,459.4 L1035.5,459.4 L1035.7,471.2 L1036.0,459.4 L1036.2,472.9 L1036.5,465.7 L1036.7,469.2 L1037.0,462.0 L1037.3,466.2 L1037.5,472.3 L1037.8,476.1 L1038.0,465.1 L1038.3,473.1 L1038.5,471.0 L1038.8,469.9 L1039.0,467.8 L1039.3,477.6 L1039.5,473.3 L1039.8,469.2 L1040.0,480.5 L1040.3,470.7 L1040.5,480.4 L1040.8,467.4 L1041.0,473.7 L1041.3,479.6 L1041.5,478.0 L1041.8,476.1 L1042.0,473.8 L1042.3,482.2 L1042.5,483.7 L1042.8,481.1 L1043.0,476.9 L1043.3,484.1 L1043.5,472.6 L1043.8,477.3 L1044.0,485.1 L1044.3,480.1 L1044.5,480.7 L1044.8,481.2 L1045.0,480.1 L1045.3,477.3 L1045.5,482.2 L1045.8,484.4 L1046.0,485.7 L1046.3,478.5 L1046.5,486.2 L1046.8,485.4 L1047.1,478.5 L1047.3,484.5 L1047.6,489.1 L1047.8,480.1 L1048.1,487.3 L1048.3,484.9 L1048.6,491.3 L1048.8,483.1 L1049.1,481.6 L1049.3,493.0 L1049.6,489.5 L1049.8,492.8 L1050.1,490.2 L1050.3,494.9 L1050.6,490.0 L1050.8,491.9 L1051.1,488.3 L1051.3,494.7 L1051.6,495.8 L1051.8,492.5 L1052.1,494.4 L1052.3,489.0 L1052.6,487.6 L1052.8,497.2 L1053.1,491.4 L1053.3,498.5 L1053.6,497.9 L1053.8,490.6 L1054.1,497.3 L1054.3,494.5 L1054.6,495.2 L1054.8,497.8 L1055.1,497.3 L1055.3,499.2 L1055.6,493.6 L1055.8,498.2 L1056.1,495.5 L1056.4,495.9 L1056.6,496.1 L1056.9,496.1 L1057.1,497.2 L1057.4,502.7 L1057.6,501.9 L1057.9,499.3 L1058.1,501.6 L1058.4,498.5 L1058.6,501.0 L1058.9,507.5 L1059.1,506.9 L1059.4,501.2 L1059.6,506.5 L1059.9,506.7 L1060.1,504.5 L1060.4,509.0 L1060.6,510.1 L1060.9,503.1 L1061.1,502.7 L1061.4,508.1 L1061.6,505.3 L1061.9,510.3 L1062.1,509.9 L1062.4,507.7 L1062.6,505.6 L1062.9,507.9 L1063.1,507.4 L1063.4,511.8 L1063.6,512.7 L1063.9,514.7 L1064.1,508.5 L1064.4,509.4 L1064.6,513.5 L1064.9,511.3 L1065.1,513.8 L1065.4,512.9 L1065.7,511.6 L1065.9,512.2 L1066.2,512.4 L1066.4,514.1 L1066.7,517.4 L1066.9,518.7 L1067.2,514.0 L1067.4,513.6 L1067.7,517.4 L1067.9,515.0 L1068.2,520.5 L1068.4,519.2 L1068.7,520.7 L1068.9,517.2 L1069.2,518.3 L1069.4,517.8 L1069.7,520.4 L1069.9,519.3 L1070.2,520.8 L1070.4,523.7 L1070.7,524.5 L1070.9,524.5 L1071.2,524.4 L1071.4,524.5 L1071.7,521.9 L1071.9,522.4 L1072.2,522.9 L1072.4,526.0 L1072.7,526.9 L1072.9,523.6 L1073.2,524.0 L1073.4,527.7 L1073.7,525.9 L1073.9,529.0 L1074.2,527.3 L1074.4,529.9 L1074.7,529.7 L1075.0,528.6 L1075.2,529.1 L1075.5,529.9 L1075.7,529.3 L1076.0,530.9 L1076.2,531.4 L1076.5,530.2 L1076.7,532.8 L1077.0,531.1 L1077.2,533.1 L1077.5,533.2 L1077.7,532.4 L1078.0,534.6 L1078.2,534.8 L1078.5,535.7 L1078.7,535.7 L1079.0,535.0 L1079.2,536.5 L1079.5,536.2 L1079.7,536.0 L1080.0,537.5 L1080.2,536.6 L1080.5,536.9 L1080.7,538.5 L1081.0,537.8 L1081.2,539.5 L1081.5,539.8 L1081.7,539.7 L1082.0,540.5 L1082.2,540.9 L1082.5,540.7 L1082.7,541.9 L1083.0,541.8 L1083.2,542.2 L1083.5,542.8 L1083.7,543.4 L1084.0,543.3" fill="none" stroke="#1f77b4" stroke-width="1.4" opacity="0.85"/><text x="1040" y="54" fill="#ff7f0e" font-size="11">roll 18</text><text x="1090" y="558" fill="#ff7f0e" font-size="11">-18</text><path d="M616.0,312.0 L616.3,314.6 L616.5,313.3 L616.8,312.0 L617.0,312.0 L617.3,313.3 L617.5,313.3 L617.8,313.3 L618.0,314.6 L618.3,313.3 L618.5,313.3 L618.8,313.3 L619.0,313.3 L619.3,313.3 L619.5,313.3 L619.8,314.6 L620.0,313.3 L620.3,312.0 L620.5,313.3 L620.8,312.0 L621.0,313.3 L621.3,313.3 L621.5,313.3 L621.8,313.3 L622.0,314.6 L622.3,314.6 L622.5,312.0 L622.8,313.3 L623.0,313.3 L623.3,313.3 L623.5,314.6 L623.8,312.0 L624.0,313.3 L624.3,312.0 L624.5,313.3 L624.8,313.3 L625.0,313.3 L625.3,314.6 L625.6,312.0 L625.8,313.3 L626.1,314.6 L626.3,313.3 L626.6,313.3 L626.8,313.3 L627.1,314.6 L627.3,313.3 L627.6,312.0 L627.8,314.6 L628.1,314.6 L628.3,313.3 L628.6,314.6 L628.8,314.6 L629.1,314.6 L629.3,312.0 L629.6,313.3 L629.8,313.3 L630.1,314.6 L630.3,312.0 L630.6,313.3 L630.8,312.0 L631.1,313.3 L631.3,313.3 L631.6,313.3 L631.8,313.3 L632.1,314.6 L632.3,313.3 L632.6,314.6 L632.8,312.0 L633.1,312.0 L633.3,313.3 L633.6,313.3 L633.8,313.3 L634.1,313.3 L634.3,313.3 L634.6,313.3 L634.9,312.0 L635.1,312.0 L635.4,313.3 L635.6,312.0 L635.9,312.0 L636.1,313.3 L636.4,313.3 L636.6,313.3 L636.9,314.6 L637.1,313.3 L637.4,312.0 L637.6,313.3 L637.9,314.6 L638.1,313.3 L638.4,313.3 L638.6,313.3 L638.9,314.6 L639.1,312.0 L639.4,313.3 L639.6,314.6 L639.9,312.0 L640.1,313.3 L640.4,312.0 L640.6,313.3 L640.9,313.3 L641.1,313.3 L641.4,314.6 L641.6,313.3 L641.9,312.0 L642.1,312.0 L642.4,313.3 L642.6,313.3 L642.9,313.3 L643.1,314.6 L643.4,314.6 L643.6,313.3 L643.9,312.0 L644.2,313.3 L644.4,313.3 L644.7,313.3 L644.9,313.3 L645.2,313.3 L645.4,312.0 L645.7,314.6 L645.9,312.0 L646.2,312.0 L646.4,313.3 L646.7,314.6 L646.9,313.3 L647.2,313.3 L647.4,313.3 L647.7,312.0 L647.9,314.6 L648.2,312.0 L648.4,314.6 L648.7,314.6 L648.9,313.3 L649.2,313.3 L649.4,313.3 L649.7,313.3 L649.9,313.3 L650.2,314.6 L650.4,313.3 L650.7,312.0 L650.9,314.6 L651.2,313.3 L651.4,314.6 L651.7,312.0 L651.9,314.6 L652.2,313.3 L652.4,313.3 L652.7,314.6 L652.9,312.0 L653.2,313.3 L653.5,314.6 L653.7,312.0 L654.0,313.3 L654.2,312.0 L654.5,313.3 L654.7,314.6 L655.0,313.3 L655.2,312.0 L655.5,313.3 L655.7,314.6 L656.0,314.6 L656.2,312.0 L656.5,312.0 L656.7,312.0 L657.0,314.6 L657.2,313.3 L657.5,314.6 L657.7,313.3 L658.0,312.0 L658.2,314.6 L658.5,314.6 L658.7,313.3 L659.0,313.3 L659.2,314.6 L659.5,313.3 L659.7,313.3 L660.0,312.0 L660.2,312.0 L660.5,314.6 L660.7,313.3 L661.0,314.6 L661.2,312.0 L661.5,314.6 L661.7,314.6 L662.0,313.3 L662.2,313.3 L662.5,312.0 L662.7,313.3 L663.0,312.0 L663.3,312.0 L663.5,313.3 L663.8,312.0 L664.0,313.3 L664.3,312.0 L664.5,313.3 L664.8,313.3 L665.0,314.6 L665.3,313.3 L665.5,312.0 L665.8,313.3 L666.0,314.6 L666.3,314.6 L666.5,313.3 L666.8,313.3 L667.0,312.0 L667.3,314.6 L667.5,312.0 L667.8,313.3 L668.0,314.6 L668.3,312.0 L668.5,312.0 L668.8,312.0 L669.0,313.3 L669.3,313.3 L669.5,312.0 L669.8,313.3 L670.0,314.6 L670.3,313.3 L670.5,313.3 L670.8,313.3 L671.0,313.3 L671.3,313.3 L671.5,312.0 L671.8,314.6 L672.0,314.6 L672.3,312.0 L672.6,313.3 L672.8,314.6 L673.1,314.6 L673.3,313.3 L673.6,312.0 L673.8,313.3 L674.1,313.3 L674.3,313.3 L674.6,313.3 L674.8,312.0 L675.1,313.3 L675.3,313.3 L675.6,312.0 L675.8,313.3 L676.1,314.6 L676.3,313.3 L676.6,313.3 L676.8,314.6 L677.1,313.3 L677.3,314.6 L677.6,313.3 L677.8,313.3 L678.1,314.6 L678.3,313.3 L678.6,313.3 L678.8,313.3 L679.1,313.3 L679.3,312.0 L679.6,313.3 L679.8,313.3 L680.1,313.3 L680.3,313.3 L680.6,313.3 L680.8,313.3 L681.1,312.0 L681.3,314.6 L681.6,313.3 L681.9,313.3 L682.1,313.3 L682.4,313.3 L682.6,314.6 L682.9,312.0 L683.1,314.6 L683.4,313.3 L683.6,312.0 L683.9,313.3 L684.1,313.3 L684.4,313.3 L684.6,313.3 L684.9,312.0 L685.1,312.0 L685.4,313.3 L685.6,314.6 L685.9,313.3 L686.1,313.3 L686.4,313.3 L686.6,314.6 L686.9,313.3 L687.1,314.6 L687.4,314.6 L687.6,312.0 L687.9,312.0 L688.1,312.0 L688.4,312.0 L688.6,314.6 L688.9,313.3 L689.1,312.0 L689.4,313.3 L689.6,312.0 L689.9,313.3 L690.1,313.3 L690.4,313.3 L690.6,313.3 L690.9,312.0 L691.2,313.3 L691.4,313.3 L691.7,314.6 L691.9,313.3 L692.2,314.6 L692.4,313.3 L692.7,313.3 L692.9,313.3 L693.2,306.7 L693.4,292.4 L693.7,285.9 L693.9,270.2 L694.2,257.2 L694.4,252.0 L694.7,235.0 L694.9,229.8 L695.2,222.0 L695.4,222.0 L695.7,214.2 L695.9,198.5 L696.2,197.2 L696.4,194.6 L696.7,190.7 L696.9,184.2 L697.2,154.2 L697.4,169.9 L697.7,171.2 L697.9,165.9 L698.2,152.9 L698.4,158.1 L698.7,156.8 L698.9,133.4 L699.2,143.8 L699.4,142.5 L699.7,128.1 L699.9,115.1 L700.2,136.0 L700.5,119.0 L700.7,143.8 L701.0,119.0 L701.2,128.1 L701.5,143.8 L701.7,117.7 L702.0,119.0 L702.2,138.6 L702.5,95.6 L702.7,122.9 L703.0,111.2 L703.2,133.4 L703.5,103.4 L703.7,142.5 L704.0,111.2 L704.2,122.9 L704.5,137.3 L704.7,99.5 L705.0,134.7 L705.2,104.7 L705.5,134.7 L705.7,150.3 L706.0,141.2 L706.2,115.1 L706.5,142.5 L706.7,154.2 L707.0,126.8 L707.2,149.0 L707.5,141.2 L707.7,137.3 L708.0,138.6 L708.2,122.9 L708.5,128.1 L708.7,120.3 L709.0,119.0 L709.2,142.5 L709.5,129.4 L709.8,146.4 L710.0,142.5 L710.3,136.0 L710.5,152.9 L710.8,171.2 L711.0,162.0 L711.3,146.4 L711.5,149.0 L711.8,169.9 L712.0,164.6 L712.3,197.2 L712.5,168.6 L712.8,185.5 L713.0,169.9 L713.3,190.7 L713.5,181.6 L713.8,181.6 L714.0,176.4 L714.3,188.1 L714.5,189.4 L714.8,194.6 L715.0,188.1 L715.3,199.8 L715.5,215.5 L715.8,205.1 L716.0,192.0 L716.3,212.9 L716.5,218.1 L716.8,203.8 L717.0,227.2 L717.3,218.1 L717.5,232.4 L717.8,205.1 L718.0,228.5 L718.3,220.7 L718.5,205.1 L718.8,210.3 L719.1,232.4 L719.3,209.0 L719.6,203.8 L719.8,214.2 L720.1,210.3 L720.3,192.0 L720.6,219.4 L720.8,209.0 L721.1,193.3 L721.3,229.8 L721.6,202.5 L721.8,210.3 L722.1,227.2 L722.3,219.4 L722.6,194.6 L722.8,202.5 L723.1,233.7 L723.3,224.6 L723.6,228.5 L723.8,227.2 L724.1,248.1 L724.3,265.0 L724.6,248.1 L724.8,237.6 L725.1,257.2 L725.3,237.6 L725.6,257.2 L725.8,263.7 L726.1,253.3 L726.3,266.3 L726.6,285.9 L726.8,274.2 L727.1,259.8 L727.3,248.1 L727.6,262.4 L727.8,278.1 L728.1,268.9 L728.4,282.0 L728.6,267.6 L728.9,285.9 L729.1,271.5 L729.4,285.9 L729.6,274.2 L729.9,270.2 L730.1,278.1 L730.4,274.2 L730.6,263.7 L730.9,253.3 L731.1,267.6 L731.4,274.2 L731.6,270.2 L731.9,271.5 L732.1,287.2 L732.4,271.5 L732.6,270.2 L732.9,259.8 L733.1,279.4 L733.4,275.5 L733.6,254.6 L733.9,272.8 L734.1,257.2 L734.4,282.0 L734.6,271.5 L734.9,293.7 L735.1,288.5 L735.4,280.7 L735.6,279.4 L735.9,268.9 L736.1,261.1 L736.4,267.6 L736.6,263.7 L736.9,271.5 L737.1,280.7 L737.4,292.4 L737.6,295.0 L737.9,297.6 L738.2,297.6 L738.4,285.9 L738.7,275.5 L738.9,291.1 L739.2,275.5 L739.4,295.0 L739.7,284.6 L739.9,295.0 L740.2,284.6 L740.4,295.0 L740.7,282.0 L740.9,278.1 L741.2,278.1 L741.4,270.2 L741.7,283.3 L741.9,266.3 L742.2,288.5 L742.4,291.1 L742.7,275.5 L742.9,288.5 L743.2,285.9 L743.4,278.1 L743.7,282.0 L743.9,297.6 L744.2,285.9 L744.4,274.2 L744.7,283.3 L744.9,300.2 L745.2,284.6 L745.4,304.1 L745.7,292.4 L745.9,305.4 L746.2,298.9 L746.4,291.1 L746.7,282.0 L746.9,284.6 L747.2,295.0 L747.5,280.7 L747.7,296.3 L748.0,282.0 L748.2,297.6 L748.5,295.0 L748.7,287.2 L749.0,279.4 L749.2,287.2 L749.5,276.8 L749.7,295.0 L750.0,278.1 L750.2,293.7 L750.5,308.0 L750.7,293.7 L751.0,305.4 L751.2,289.8 L751.5,304.1 L751.7,301.5 L752.0,315.9 L752.2,302.8 L752.5,293.7 L752.7,305.4 L753.0,291.1 L753.2,305.4 L753.5,306.7 L753.7,308.0 L754.0,322.4 L754.2,310.7 L754.5,308.0 L754.7,322.4 L755.0,325.0 L755.2,308.0 L755.5,321.1 L755.7,308.0 L756.0,322.4 L756.2,334.1 L756.5,341.9 L756.8,339.3 L757.0,326.3 L757.3,313.3 L757.5,323.7 L757.8,332.8 L758.0,318.5 L758.3,321.1 L758.5,339.3 L758.8,319.8 L759.0,319.8 L759.3,321.1 L759.5,332.8 L759.8,325.0 L760.0,323.7 L760.3,318.5 L760.5,319.8 L760.8,305.4 L761.0,314.6 L761.3,328.9 L761.5,315.9 L761.8,328.9 L762.0,313.3 L762.3,328.9 L762.5,313.3 L762.8,327.6 L763.0,312.0 L763.3,327.6 L763.5,312.0 L763.8,325.0 L764.0,310.7 L764.3,309.3 L764.5,322.4 L764.8,309.3 L765.0,323.7 L765.3,309.3 L765.5,323.7 L765.8,312.0 L766.1,323.7 L766.3,309.3 L766.6,298.9 L766.8,310.7 L767.1,325.0 L767.3,336.7 L767.6,321.1 L767.8,318.5 L768.1,332.8 L768.3,340.6 L768.6,351.1 L768.8,371.9 L769.1,374.5 L769.3,387.6 L769.6,390.2 L769.8,412.3 L770.1,408.4 L770.3,428.0 L770.6,430.6 L770.8,437.1 L771.1,426.7 L771.3,450.1 L771.6,443.6 L771.8,465.8 L772.1,468.4 L772.3,448.8 L772.6,459.3 L772.8,476.2 L773.1,473.6 L773.3,469.7 L773.6,495.8 L773.8,487.9 L774.1,482.7 L774.3,501.0 L774.6,481.4 L774.8,506.2 L775.1,486.6 L775.4,498.4 L775.6,504.9 L775.9,515.3 L776.1,485.3 L776.4,490.6 L776.6,521.8 L776.9,477.5 L777.1,512.7 L777.4,489.2 L777.6,521.8 L777.9,481.4 L778.1,482.7 L778.4,514.0 L778.6,508.8 L778.9,499.7 L779.1,494.5 L779.4,499.7 L779.6,524.4 L779.9,515.3 L780.1,490.6 L780.4,512.7 L780.6,524.4 L780.9,525.7 L781.1,498.4 L781.4,506.2 L781.6,510.1 L781.9,529.7 L782.1,493.2 L782.4,506.2 L782.6,528.4 L782.9,510.1 L783.1,534.9 L783.4,495.8 L783.6,515.3 L783.9,523.1 L784.1,495.8 L784.4,508.8 L784.7,514.0 L784.9,517.9 L785.2,504.9 L785.4,515.3 L785.7,520.5 L785.9,519.2 L786.2,534.9 L786.4,498.4 L786.7,537.5 L786.9,515.3 L787.2,501.0 L787.4,534.9 L787.7,511.4 L787.9,508.8 L788.2,525.7 L788.4,502.3 L788.7,540.1 L788.9,516.6 L789.2,534.9 L789.4,510.1 L789.7,499.7 L789.9,523.1 L790.2,498.4 L790.4,531.0 L790.7,514.0 L790.9,497.1 L791.2,532.3 L791.4,534.9 L791.7,508.8 L791.9,529.7 L792.2,511.4 L792.4,521.8 L792.7,520.5 L792.9,529.7 L793.2,514.0 L793.4,532.3 L793.7,516.6 L794.0,504.9 L794.2,521.8 L794.5,536.2 L794.7,527.1 L795.0,537.5 L795.2,537.5 L795.5,517.9 L795.7,516.6 L796.0,515.3 L796.2,531.0 L796.5,504.9 L796.7,528.4 L797.0,512.7 L797.2,519.2 L797.5,532.3 L797.7,506.2 L798.0,517.9 L798.2,512.7 L798.5,512.7 L798.7,534.9 L799.0,504.9 L799.2,531.0 L799.5,537.5 L799.7,502.3 L800.0,529.7 L800.2,525.7 L800.5,502.3 L800.7,512.7 L801.0,537.5 L801.2,494.5 L801.5,504.9 L801.7,532.3 L802.0,525.7 L802.2,514.0 L802.5,508.8 L802.7,533.6 L803.0,516.6 L803.3,498.4 L803.5,514.0 L803.8,523.1 L804.0,523.1 L804.3,533.6 L804.5,537.5 L804.8,520.5 L805.0,540.1 L805.3,498.4 L805.5,510.1 L805.8,511.4 L806.0,532.3 L806.3,511.4 L806.5,519.2 L806.8,524.4 L807.0,538.8 L807.3,528.4 L807.5,520.5 L807.8,508.8 L808.0,542.7 L808.3,508.8 L808.5,531.0 L808.8,511.4 L809.0,540.1 L809.3,499.7 L809.5,527.1 L809.8,514.0 L810.0,501.0 L810.3,502.3 L810.5,498.4 L810.8,529.7 L811.0,521.8 L811.3,531.0 L811.5,534.9 L811.8,498.4 L812.0,521.8 L812.3,521.8 L812.5,536.2 L812.8,527.1 L813.1,533.6 L813.3,531.0 L813.6,508.8 L813.8,537.5 L814.1,514.0 L814.3,528.4 L814.6,521.8 L814.8,511.4 L815.1,515.3 L815.3,525.7 L815.6,503.6 L815.8,529.7 L816.1,507.5 L816.3,502.3 L816.6,514.0 L816.8,511.4 L817.1,544.0 L817.3,525.7 L817.6,531.0 L817.8,498.4 L818.1,512.7 L818.3,506.2 L818.6,534.9 L818.8,514.0 L819.1,533.6 L819.3,504.9 L819.6,529.7 L819.8,521.8 L820.1,534.9 L820.3,532.3 L820.6,508.8 L820.8,529.7 L821.1,516.6 L821.3,523.1 L821.6,529.7 L821.8,503.6 L822.1,506.2 L822.4,544.0 L822.6,523.1 L822.9,523.1 L823.1,504.9 L823.4,516.6 L823.6,527.1 L823.9,541.4 L824.1,524.4 L824.4,502.3 L824.6,524.4 L824.9,519.2 L825.1,534.9 L825.4,517.9 L825.6,544.0 L825.9,531.0 L826.1,512.7 L826.4,534.9 L826.6,516.6 L826.9,536.2 L827.1,497.1 L827.4,506.2 L827.6,510.1 L827.9,506.2 L828.1,516.6 L828.4,519.2 L828.6,540.1 L828.9,532.3 L829.1,506.2 L829.4,528.4 L829.6,524.4 L829.9,533.6 L830.1,537.5 L830.4,532.3 L830.6,501.0 L830.9,512.7 L831.1,523.1 L831.4,523.1 L831.7,520.5 L831.9,517.9 L832.2,499.7 L832.4,536.2 L832.7,501.0 L832.9,516.6 L833.2,507.5 L833.4,528.4 L833.7,523.1 L833.9,521.8 L834.2,499.7 L834.4,540.1 L834.7,512.7 L834.9,506.2 L835.2,529.7 L835.4,521.8 L835.7,528.4 L835.9,524.4 L836.2,516.6 L836.4,527.1 L836.7,504.9 L836.9,531.0 L837.2,532.3 L837.4,532.3 L837.7,538.8 L837.9,528.4 L838.2,519.2 L838.4,508.8 L838.7,537.5 L838.9,497.1 L839.2,544.0 L839.4,517.9 L839.7,501.0 L839.9,529.7 L840.2,506.2 L840.4,463.2 L840.7,444.9 L841.0,454.1 L841.2,412.3 L841.5,422.8 L841.7,414.9 L842.0,403.2 L842.2,386.3 L842.5,386.3 L842.7,400.6 L843.0,386.3 L843.2,368.0 L843.5,347.2 L843.7,339.3 L844.0,349.8 L844.2,338.0 L844.5,322.4 L844.7,306.7 L845.0,295.0 L845.2,309.3 L845.5,295.0 L845.7,285.9 L846.0,272.8 L846.2,262.4 L846.5,279.4 L846.7,262.4 L847.0,255.9 L847.2,236.3 L847.5,232.4 L847.7,220.7 L848.0,223.3 L848.2,205.1 L848.5,214.2 L848.7,184.2 L849.0,185.5 L849.2,207.7 L849.5,209.0 L849.7,182.9 L850.0,211.6 L850.3,201.1 L850.5,199.8 L850.8,188.1 L851.0,211.6 L851.3,199.8 L851.5,190.7 L851.8,194.6 L852.0,195.9 L852.3,192.0 L852.5,184.2 L852.8,177.7 L853.0,180.3 L853.3,163.3 L853.5,162.0 L853.8,169.9 L854.0,149.0 L854.3,150.3 L854.5,134.7 L854.8,138.6 L855.0,159.4 L855.3,149.0 L855.5,165.9 L855.8,143.8 L856.0,152.9 L856.3,172.5 L856.5,168.6 L856.8,176.4 L857.0,146.4 L857.3,169.9 L857.5,134.7 L857.8,171.2 L858.0,164.6 L858.3,160.7 L858.5,158.1 L858.8,132.1 L859.0,121.6 L859.3,134.7 L859.6,119.0 L859.8,125.5 L860.1,141.2 L860.3,137.3 L860.6,122.9 L860.8,136.0 L861.1,138.6 L861.3,108.6 L861.6,155.5 L861.8,132.1 L862.1,145.1 L862.3,133.4 L862.6,124.2 L862.8,112.5 L863.1,143.8 L863.3,150.3 L863.6,158.1 L863.8,125.5 L864.1,128.1 L864.3,137.3 L864.6,146.4 L864.8,116.4 L865.1,132.1 L865.3,141.2 L865.6,137.3 L865.8,111.2 L866.1,111.2 L866.3,162.0 L866.6,132.1 L866.8,155.5 L867.1,155.5 L867.3,121.6 L867.6,138.6 L867.8,143.8 L868.1,116.4 L868.3,126.8 L868.6,142.5 L868.9,112.5 L869.1,145.1 L869.4,112.5 L869.6,139.9 L869.9,113.8 L870.1,146.4 L870.4,106.0 L870.6,116.4 L870.9,107.3 L871.1,142.5 L871.4,119.0 L871.6,134.7 L871.9,120.3 L872.1,116.4 L872.4,122.9 L872.6,120.3 L872.9,132.1 L873.1,121.6 L873.4,91.6 L873.6,115.1 L873.9,124.2 L874.1,100.8 L874.4,125.5 L874.6,115.1 L874.9,103.4 L875.1,111.2 L875.4,90.3 L875.6,113.8 L875.9,87.7 L876.1,129.4 L876.4,113.8 L876.6,116.4 L876.9,96.9 L877.1,94.3 L877.4,116.4 L877.6,104.7 L877.9,103.4 L878.2,116.4 L878.4,124.2 L878.7,91.6 L878.9,111.2 L879.2,100.8 L879.4,89.0 L879.7,124.2 L879.9,119.0 L880.2,90.3 L880.4,116.4 L880.7,124.2 L880.9,85.1 L881.2,128.1 L881.4,106.0 L881.7,120.3 L881.9,90.3 L882.2,121.6 L882.4,98.2 L882.7,133.4 L882.9,132.1 L883.2,102.1 L883.4,133.4 L883.7,92.9 L883.9,113.8 L884.2,129.4 L884.4,130.8 L884.7,106.0 L884.9,106.0 L885.2,96.9 L885.4,134.7 L885.7,87.7 L885.9,121.6 L886.2,95.6 L886.4,120.3 L886.7,113.8 L886.9,106.0 L887.2,102.1 L887.5,136.0 L887.7,132.1 L888.0,89.0 L888.2,138.6 L888.5,106.0 L888.7,134.7 L889.0,125.5 L889.2,129.4 L889.5,100.8 L889.7,109.9 L890.0,121.6 L890.2,100.8 L890.5,117.7 L890.7,119.0 L891.0,112.5 L891.2,108.6 L891.5,130.8 L891.7,104.7 L892.0,129.4 L892.2,108.6 L892.5,117.7 L892.7,103.4 L893.0,99.5 L893.2,96.9 L893.5,115.1 L893.7,98.2 L894.0,95.6 L894.2,129.4 L894.5,125.5 L894.7,103.4 L895.0,119.0 L895.2,96.9 L895.5,126.8 L895.7,103.4 L896.0,90.3 L896.2,132.1 L896.5,102.1 L896.7,136.0 L897.0,96.9 L897.3,106.0 L897.5,129.4 L897.8,128.1 L898.0,117.7 L898.3,116.4 L898.5,98.2 L898.8,124.2 L899.0,112.5 L899.3,102.1 L899.5,116.4 L899.8,122.9 L900.0,92.9 L900.3,99.5 L900.5,94.3 L900.8,112.5 L901.0,86.4 L901.3,122.9 L901.5,90.3 L901.8,119.0 L902.0,104.7 L902.3,119.0 L902.5,99.5 L902.8,115.1 L903.0,87.7 L903.3,95.6 L903.5,103.4 L903.8,96.9 L904.0,108.6 L904.3,99.5 L904.5,102.1 L904.8,91.6 L905.0,120.3 L905.3,87.7 L905.5,113.8 L905.8,117.7 L906.0,90.3 L906.3,95.6 L906.6,94.3 L906.8,128.1 L907.1,120.3 L907.3,99.5 L907.6,111.2 L907.8,99.5 L908.1,107.3 L908.3,104.7 L908.6,108.6 L908.8,99.5 L909.1,117.7 L909.3,89.0 L909.6,100.8 L909.8,112.5 L910.1,121.6 L910.3,102.1 L910.6,87.7 L910.8,129.4 L911.1,108.6 L911.3,122.9 L911.6,115.1 L911.8,99.5 L912.1,116.4 L912.3,94.3 L912.6,125.5 L912.8,108.6 L913.1,116.4 L913.3,83.8 L913.6,99.5 L913.8,92.9 L914.1,128.1 L914.3,107.3 L914.6,102.1 L914.8,124.2 L915.1,126.8 L915.3,115.1 L915.6,112.5 L915.9,125.5 L916.1,122.9 L916.4,99.5 L916.6,109.9 L916.9,99.5 L917.1,92.9 L917.4,117.7 L917.6,117.7 L917.9,95.6 L918.1,99.5 L918.4,89.0 L918.6,87.7 L918.9,103.4 L919.1,107.3 L919.4,99.5 L919.6,124.2 L919.9,89.0 L920.1,90.3 L920.4,103.4 L920.6,106.0 L920.9,103.4 L921.1,92.9 L921.4,121.6 L921.6,109.9 L921.9,106.0 L922.1,91.6 L922.4,96.9 L922.6,103.4 L922.9,119.0 L923.1,89.0 L923.4,108.6 L923.6,96.9 L923.9,124.2 L924.1,120.3 L924.4,87.7 L924.6,112.5 L924.9,120.3 L925.2,120.3 L925.4,107.3 L925.7,103.4 L925.9,111.2 L926.2,109.9 L926.4,85.1 L926.7,98.2 L926.9,115.1 L927.2,98.2 L927.4,85.1 L927.7,94.3 L927.9,96.9 L928.2,98.2 L928.4,83.8 L928.7,108.6 L928.9,107.3 L929.2,113.8 L929.4,106.0 L929.7,81.2 L929.9,109.9 L930.2,124.2 L930.4,77.3 L930.7,99.5 L930.9,96.9 L931.2,104.7 L931.4,102.1 L931.7,112.5 L931.9,104.7 L932.2,106.0 L932.4,91.6 L932.7,121.6 L932.9,113.8 L933.2,117.7 L933.4,90.3 L933.7,86.4 L933.9,102.1 L934.2,109.9 L934.5,122.9 L934.7,102.1 L935.0,112.5 L935.2,117.7 L935.5,89.0 L935.7,90.3 L936.0,115.1 L936.2,85.1 L936.5,96.9 L936.7,111.2 L937.0,109.9 L937.2,96.9 L937.5,112.5 L937.7,90.3 L938.0,126.8 L938.2,87.7 L938.5,121.6 L938.7,95.6 L939.0,125.5 L939.2,108.6 L939.5,98.2 L939.7,108.6 L940.0,107.3 L940.2,95.6 L940.5,115.1 L940.7,124.2 L941.0,116.4 L941.2,106.0 L941.5,122.9 L941.7,121.6 L942.0,115.1 L942.2,109.9 L942.5,94.3 L942.7,121.6 L943.0,112.5 L943.2,95.6 L943.5,95.6 L943.8,100.8 L944.0,116.4 L944.3,115.1 L944.5,91.6 L944.8,115.1 L945.0,102.1 L945.3,124.2 L945.5,109.9 L945.8,81.2 L946.0,95.6 L946.3,94.3 L946.5,107.3 L946.8,116.4 L947.0,90.3 L947.3,128.1 L947.5,119.0 L947.8,86.4 L948.0,91.6 L948.3,117.7 L948.5,115.1 L948.8,98.2 L949.0,113.8 L949.3,122.9 L949.5,85.1 L949.8,129.4 L950.0,116.4 L950.3,89.0 L950.5,106.0 L950.8,109.9 L951.0,124.2 L951.3,115.1 L951.5,109.9 L951.8,85.1 L952.0,122.9 L952.3,104.7 L952.5,91.6 L952.8,129.4 L953.1,100.8 L953.3,134.7 L953.6,90.3 L953.8,122.9 L954.1,94.3 L954.3,136.0 L954.6,116.4 L954.8,108.6 L955.1,139.9 L955.3,116.4 L955.6,106.0 L955.8,113.8 L956.1,137.3 L956.3,129.4 L956.6,125.5 L956.8,108.6 L957.1,102.1 L957.3,130.8 L957.6,111.2 L957.8,98.2 L958.1,111.2 L958.3,132.1 L958.6,120.3 L958.8,115.1 L959.1,96.9 L959.3,109.9 L959.6,116.4 L959.8,122.9 L960.1,109.9 L960.3,89.0 L960.6,128.1 L960.8,122.9 L961.1,106.0 L961.3,111.2 L961.6,106.0 L961.8,102.1 L962.1,104.7 L962.4,125.5 L962.6,82.5 L962.9,99.5 L963.1,116.4 L963.4,90.3 L963.6,104.7 L963.9,89.0 L964.1,99.5 L964.4,107.3 L964.6,91.6 L964.9,90.3 L965.1,98.2 L965.4,120.3 L965.6,102.1 L965.9,91.6 L966.1,95.6 L966.4,115.1 L966.6,92.9 L966.9,122.9 L967.1,104.7 L967.4,112.5 L967.6,126.8 L967.9,86.4 L968.1,90.3 L968.4,102.1 L968.6,100.8 L968.9,107.3 L969.1,111.2 L969.4,121.6 L969.6,96.9 L969.9,106.0 L970.1,96.9 L970.4,106.0 L970.6,111.2 L970.9,109.9 L971.1,102.1 L971.4,106.0 L971.6,107.3 L971.9,113.8 L972.2,113.8 L972.4,109.9 L972.7,115.1 L972.9,86.4 L973.2,98.2 L973.4,92.9 L973.7,96.9 L973.9,83.8 L974.2,107.3 L974.4,92.9 L974.7,107.3 L974.9,95.6 L975.2,120.3 L975.4,102.1 L975.7,92.9 L975.9,89.0 L976.2,112.5 L976.4,104.7 L976.7,119.0 L976.9,76.0 L977.2,116.4 L977.4,103.4 L977.7,106.0 L977.9,117.7 L978.2,99.5 L978.4,112.5 L978.7,115.1 L978.9,87.7 L979.2,129.4 L979.4,122.9 L979.7,85.1 L979.9,122.9 L980.2,113.8 L980.4,109.9 L980.7,111.2 L980.9,122.9 L981.2,99.5 L981.5,102.1 L981.7,120.3 L982.0,113.8 L982.2,107.3 L982.5,104.7 L982.7,120.3 L983.0,104.7 L983.2,121.6 L983.5,86.4 L983.7,129.4 L984.0,113.8 L984.2,108.6 L984.5,92.9 L984.7,112.5 L985.0,109.9 L985.2,119.0 L985.5,90.3 L985.7,106.0 L986.0,90.3 L986.2,119.0 L986.5,111.2 L986.7,104.7 L987.0,117.7 L987.2,124.2 L987.5,94.3 L987.7,95.6 L988.0,95.6 L988.2,126.8 L988.5,120.3 L988.7,120.3 L989.0,109.9 L989.2,100.8 L989.5,119.0 L989.7,112.5 L990.0,111.2 L990.2,86.4 L990.5,95.6 L990.8,104.7 L991.0,108.6 L991.3,113.8 L991.5,108.6 L991.8,83.8 L992.0,113.8 L992.3,111.2 L992.5,124.2 L992.8,96.9 L993.0,107.3 L993.3,78.6 L993.5,106.0 L993.8,89.0 L994.0,111.2 L994.3,85.1 L994.5,121.6 L994.8,94.3 L995.0,102.1 L995.3,92.9 L995.5,120.3 L995.8,100.8 L996.0,117.7 L996.3,109.9 L996.5,107.3 L996.8,92.9 L997.0,91.6 L997.3,128.1 L997.5,125.5 L997.8,116.4 L998.0,120.3 L998.3,109.9 L998.5,96.9 L998.8,108.6 L999.0,86.4 L999.3,108.6 L999.5,102.1 L999.8,125.5 L1000.1,99.5 L1000.3,117.7 L1000.6,100.8 L1000.8,86.4 L1001.1,116.4 L1001.3,95.6 L1001.6,120.3 L1001.8,96.9 L1002.1,132.1 L1002.3,109.9 L1002.6,122.9 L1002.8,100.8 L1003.1,119.0 L1003.3,106.0 L1003.6,94.3 L1003.8,102.1 L1004.1,130.8 L1004.3,124.2 L1004.6,113.8 L1004.8,104.7 L1005.1,86.4 L1005.3,98.2 L1005.6,96.9 L1005.8,125.5 L1006.1,125.5 L1006.3,113.8 L1006.6,96.9 L1006.8,126.8 L1007.1,113.8 L1007.3,94.3 L1007.6,116.4 L1007.8,106.0 L1008.1,117.7 L1008.3,111.2 L1008.6,106.0 L1008.8,92.9 L1009.1,117.7 L1009.4,109.9 L1009.6,94.3 L1009.9,94.3 L1010.1,108.6 L1010.4,83.8 L1010.6,90.3 L1010.9,94.3 L1011.1,87.7 L1011.4,98.2 L1011.6,121.6 L1011.9,111.2 L1012.1,90.3 L1012.4,116.4 L1012.6,91.6 L1012.9,126.8 L1013.1,108.6 L1013.4,125.5 L1013.6,96.9 L1013.9,115.1 L1014.1,108.6 L1014.4,103.4 L1014.6,126.8 L1014.9,96.9 L1015.1,89.0 L1015.4,106.0 L1015.6,120.3 L1015.9,120.3 L1016.1,121.6 L1016.4,109.9 L1016.6,85.1 L1016.9,99.5 L1017.1,115.1 L1017.4,96.9 L1017.6,126.8 L1017.9,81.2 L1018.1,132.1 L1018.4,116.4 L1018.7,104.7 L1018.9,111.2 L1019.2,120.3 L1019.4,115.1 L1019.7,121.6 L1019.9,112.5 L1020.2,96.9 L1020.4,111.2 L1020.7,111.2 L1020.9,116.4 L1021.2,89.0 L1021.4,109.9 L1021.7,95.6 L1021.9,125.5 L1022.2,92.9 L1022.4,104.7 L1022.7,119.0 L1022.9,82.5 L1023.2,133.4 L1023.4,111.2 L1023.7,128.1 L1023.9,107.3 L1024.2,96.9 L1024.4,98.2 L1024.7,112.5 L1024.9,124.2 L1025.2,121.6 L1025.4,82.5 L1025.7,133.4 L1025.9,111.2 L1026.2,112.5 L1026.4,91.6 L1026.7,129.4 L1026.9,89.0 L1027.2,104.7 L1027.4,116.4 L1027.7,100.8 L1028.0,132.1 L1028.2,122.9 L1028.5,117.7 L1028.7,125.5 L1029.0,95.6 L1029.2,102.1 L1029.5,112.5 L1029.7,87.7 L1030.0,116.4 L1030.2,115.1 L1030.5,99.5 L1030.7,124.2 L1031.0,122.9 L1031.2,113.8 L1031.5,91.6 L1031.7,112.5 L1032.0,86.4 L1032.2,116.4 L1032.5,116.4 L1032.7,108.6 L1033.0,104.7 L1033.2,125.5 L1033.5,103.4 L1033.7,108.6 L1034.0,95.6 L1034.2,102.1 L1034.5,128.1 L1034.7,98.2 L1035.0,96.9 L1035.2,106.0 L1035.5,120.3 L1035.7,112.5 L1036.0,103.4 L1036.2,83.8 L1036.5,113.8 L1036.7,104.7 L1037.0,99.5 L1037.3,90.3 L1037.5,107.3 L1037.8,103.4 L1038.0,126.8 L1038.3,111.2 L1038.5,115.1 L1038.8,117.7 L1039.0,83.8 L1039.3,99.5 L1039.5,85.1 L1039.8,129.4 L1040.0,119.0 L1040.3,91.6 L1040.5,96.9 L1040.8,112.5 L1041.0,113.8 L1041.3,86.4 L1041.5,92.9 L1041.8,126.8 L1042.0,102.1 L1042.3,125.5 L1042.5,95.6 L1042.8,94.3 L1043.0,104.7 L1043.3,96.9 L1043.5,100.8 L1043.8,109.9 L1044.0,120.3 L1044.3,116.4 L1044.5,116.4 L1044.8,107.3 L1045.0,112.5 L1045.3,115.1 L1045.5,121.6 L1045.8,96.9 L1046.0,95.6 L1046.3,92.9 L1046.5,112.5 L1046.8,86.4 L1047.1,100.8 L1047.3,98.2 L1047.6,106.0 L1047.8,98.2 L1048.1,90.3 L1048.3,100.8 L1048.6,104.7 L1048.8,109.9 L1049.1,120.3 L1049.3,102.1 L1049.6,112.5 L1049.8,77.3 L1050.1,121.6 L1050.3,111.2 L1050.6,85.1 L1050.8,117.7 L1051.1,111.2 L1051.3,98.2 L1051.6,117.7 L1051.8,86.4 L1052.1,128.1 L1052.3,112.5 L1052.6,106.0 L1052.8,107.3 L1053.1,100.8 L1053.3,108.6 L1053.6,94.3 L1053.8,111.2 L1054.1,119.0 L1054.3,86.4 L1054.6,109.9 L1054.8,125.5 L1055.1,113.8 L1055.3,95.6 L1055.6,92.9 L1055.8,125.5 L1056.1,103.4 L1056.4,130.8 L1056.6,99.5 L1056.9,129.4 L1057.1,122.9 L1057.4,111.2 L1057.6,124.2 L1057.9,92.9 L1058.1,109.9 L1058.4,117.7 L1058.6,94.3 L1058.9,124.2 L1059.1,83.8 L1059.4,94.3 L1059.6,107.3 L1059.9,90.3 L1060.1,126.8 L1060.4,104.7 L1060.6,111.2 L1060.9,113.8 L1061.1,100.8 L1061.4,96.9 L1061.6,100.8 L1061.9,99.5 L1062.1,91.6 L1062.4,106.0 L1062.6,117.7 L1062.9,111.2 L1063.1,124.2 L1063.4,81.2 L1063.6,119.0 L1063.9,107.3 L1064.1,94.3 L1064.4,103.4 L1064.6,122.9 L1064.9,82.5 L1065.1,122.9 L1065.4,121.6 L1065.7,108.6 L1065.9,92.9 L1066.2,98.2 L1066.4,116.4 L1066.7,112.5 L1066.9,92.9 L1067.2,95.6 L1067.4,111.2 L1067.7,117.7 L1067.9,95.6 L1068.2,125.5 L1068.4,87.7 L1068.7,120.3 L1068.9,96.9 L1069.2,121.6 L1069.4,102.1 L1069.7,125.5 L1069.9,122.9 L1070.2,85.1 L1070.4,99.5 L1070.7,109.9 L1070.9,116.4 L1071.2,91.6 L1071.4,122.9 L1071.7,107.3 L1071.9,130.8 L1072.2,109.9 L1072.4,113.8 L1072.7,100.8 L1072.9,111.2 L1073.2,98.2 L1073.4,117.7 L1073.7,116.4 L1073.9,96.9 L1074.2,109.9 L1074.4,91.6 L1074.7,104.7 L1075.0,103.4 L1075.2,117.7 L1075.5,81.2 L1075.7,120.3 L1076.0,85.1 L1076.2,107.3 L1076.5,90.3 L1076.7,108.6 L1077.0,100.8 L1077.2,107.3 L1077.5,121.6 L1077.7,96.9 L1078.0,107.3 L1078.2,109.9 L1078.5,86.4 L1078.7,121.6 L1079.0,119.0 L1079.2,96.9 L1079.5,124.2 L1079.7,115.1 L1080.0,89.0 L1080.2,124.2 L1080.5,104.7 L1080.7,120.3 L1081.0,107.3 L1081.2,108.6 L1081.5,115.1 L1081.7,91.6 L1082.0,91.6 L1082.2,111.2 L1082.5,100.8 L1082.7,102.1 L1083.0,116.4 L1083.2,116.4 L1083.5,149.0 L1083.7,136.0 L1084.0,169.9" fill="none" stroke="#ff7f0e" stroke-width="1.1" opacity="0.85"/><text x="616" y="572" font-size="11" fill="#888">time 0..37 s — altitude (blue) &amp; roll (orange)</text></svg>