<svg xmlns="http://www.w3.org/2000/svg" width="840" height="860" font-family="sans-serif" font-size="13"><rect width="840" height="860" fill="white"/><text x="20" y="26" font-size="15" fill="#333">Coludo flight</text><rect x="20" y="40" width="800" height="800" fill="#fbfbfb" stroke="#ddd"/><rect x="62" y="430" width="184" height="40" fill="#cde" stroke="#369" opacity="0.7"/><text x="62" y="425" fill="#369" font-size="12">landing zone</text><circle cx="178" cy="492" r="5" fill="black"/><text x="186" y="496" font-size="12">pad</text><path d="M178.4,491.5 L178.4,491.5 L178.4,491.5 L178.4,491.5 L178.4,491.5 L178.4,491.5 L178.4,491.5 L178.4,491.5 L178.4,491.5 L178.4,491.5 L178.4,491.5 L178.4,491.5 L178.4,491.5 L178.4,491.5 L178.4,491.5 L178.4,491.5 L178.4,491.5 L178.4,491.5 L178.4,491.5 L178.4,491.5 L178.4,491.5 L178.4,491.5 L178.4,491.5 L178.4,491.5 L178.4,491.5 L178.4,491.5 L178.4,491.5 L178.4,491.5 L178.4,491.5 L178.4,491.5 L178.4,491.5 L178.4,491.5 L178.4,491.5 L178.4,491.5 L178.4,491.5 L178.4,491.5 L178.4,491.5 L178.4,491.5 L178.4,491.5 L178.4,491.5 L178.4,491.5 L178.4,491.5 L178.4,491.5 L178.4,491.5 L178.4,491.5 L178.4,491.5 L178.4,491.5 L178.4,491.5 L178.4,491.5 L178.4,491.5 L178.4,491.5 L178.4,491.5 L178.4,491.5 L178.4,491.5 L178.4,491.5 L178.4,491.5 L178.4,491.5 L178.4,491.5 L178.4,491.5 L178.4,491.5 L178.4,491.5 L178.4,491.5 L178.4,491.5 L178.4,491.5 L178.4,491.5 L178.4,491.5 L178.4,491.5 L178.4,491.5 L178.4,491.5 L178.4,491.5 L178.4,491.5 L178.4,491.5 L178.4,491.0 L179.0,489.9 L180.4,487.9 L181.4,486.4 L182.2,485.5 L182.4,484.2 L183.4,482.9 L184.4,481.8 L185.4,480.7 L186.3,479.6 L188.3,478.3 L188.5,477.2 L189.3,476.1 L191.3,475.3 L191.7,473.9 L193.3,473.1 L194.2,472.2 L195.2,471.3 L196.2,470.4 L198.0,469.3 L198.2,468.5 L200.2,467.4 L202.0,466.7 L203.1,465.6 L204.1,464.7 L205.1,463.6 L206.1,462.8 L207.1,461.9 L208.1,460.6 L209.1,459.7 L210.6,458.6 L211.0,457.5 L212.0,456.2 L214.0,455.1 L214.6,454.0 L215.0,452.7 L216.0,451.4 L217.0,450.1 L217.8,448.8 L218.0,447.7 L218.9,445.9 L219.9,444.8 L220.1,443.1 L220.9,441.8 L221.9,440.4 L221.9,439.1 L222.9,437.4 L222.9,436.3 L223.3,434.5 L223.9,433.0 L223.9,431.5 L223.9,430.1 L224.9,428.4 L224.9,427.1 L224.9,425.3 L225.9,424.0 L225.9,422.5 L225.9,421.2 L226.5,419.4 L226.5,417.0 L226.8,415.5 L227.8,413.9 L227.8,412.9 L228.8,411.3 L229.8,409.8 L229.8,408.5 L230.0,407.2 L230.8,405.6 L231.8,404.5 L232.8,403.0 L233.6,401.7 L233.8,400.4 L234.8,399.3 L235.7,398.0 L235.9,396.6 L237.7,395.6 L238.7,394.5 L239.1,393.1 L240.7,392.1 L241.7,391.2 L242.7,390.1 L243.6,389.0 L244.6,387.9 L245.8,386.8 L246.6,386.1 L248.6,385.3 L249.6,384.2 L250.6,383.3 L251.7,382.4 L253.5,382.0 L254.5,381.1 L255.5,380.4 L257.5,379.6 L258.9,378.9 L260.4,378.3 L261.4,377.6 L262.4,377.4 L264.4,376.7 L265.4,376.3 L267.4,375.8 L268.3,375.4 L270.3,375.2 L271.3,374.8 L273.3,374.5 L274.7,374.3 L276.2,374.1 L277.8,373.9 L279.2,373.9 L281.0,373.7 L282.2,373.7 L284.5,373.7 L285.1,373.9 L287.1,373.9 L288.1,374.1 L290.1,374.1 L291.1,374.5 L293.0,374.8 L293.6,375.0 L296.0,375.4 L297.0,375.6 L298.0,376.1 L300.0,376.7 L300.9,377.2 L302.9,377.6 L303.9,378.0 L305.9,378.7 L306.9,379.4 L308.9,380.0 L309.0,380.7 L310.8,381.5 L312.6,382.4 L312.8,382.9 L314.8,383.9 L315.8,384.8 L316.8,385.7 L318.7,386.6 L318.9,387.7 L320.7,388.5 L321.7,389.6 L322.7,390.7 L323.7,391.8 L324.7,392.9 L325.6,394.2 L326.6,395.3 L327.6,396.4 L328.8,397.7 L329.6,399.1 L330.6,400.4 L331.6,401.5 L331.6,402.8 L332.6,404.3 L332.6,405.4 L333.6,406.9 L334.5,408.3 L334.7,409.8 L335.5,411.1 L335.5,412.4 L336.5,413.9 L336.5,415.3 L337.5,417.0 L337.5,418.3 L337.9,419.9 L337.9,421.6 L337.9,422.7 L338.5,424.2 L338.5,425.8 L338.5,427.3 L338.5,428.8 L338.5,430.6 L338.5,433.0 L338.5,434.7 L338.5,436.1 L337.9,437.6 L337.9,439.1 L337.9,440.7 L337.9,442.0 L337.5,443.7 L337.5,445.0 L336.5,446.6 L335.5,449.0 L334.7,450.3 L334.7,451.8 L334.5,453.4 L333.6,454.5 L332.6,456.0 L331.6,457.3 L331.6,458.6 L330.6,459.9 L329.6,461.2 L328.8,463.4 L327.6,464.7 L326.6,465.8 L325.6,467.1 L324.9,468.0 L323.7,469.3 L322.7,470.4 L321.7,471.7 L320.7,472.4 L318.9,473.7 L317.7,475.3 L315.8,476.3 L314.8,477.2 L313.8,478.1 L312.6,479.0 L311.8,479.8 L309.8,480.7 L308.9,481.4 L306.9,482.0 L306.7,482.7 L302.7,483.8 L302.9,484.4 L300.0,485.1 L300.0,485.5 L298.0,486.0 L296.8,486.2 L295.0,486.6 L293.6,487.1 L292.1,487.3 L290.9,487.5 L287.7,487.9 L287.1,488.2 L284.2,488.4 L284.5,488.4 L281.2,488.4 L281.0,488.4 L278.2,488.4 L277.8,488.4 L275.3,488.2 L274.7,488.2 L271.3,487.7 L270.3,487.5 L268.3,487.1 L267.4,486.9 L265.4,486.4 L264.4,486.0 L262.4,485.8 L261.4,485.3 L259.5,484.7 L258.5,484.2 L255.5,483.1 L254.5,482.3 L253.5,481.6 L251.7,481.2 L250.6,480.3 L249.8,479.4 L248.6,478.5 L246.6,477.7 L245.6,477.0 L244.6,476.1 L242.7,474.2 L241.7,473.3 L239.7,472.2 L239.1,471.3 L237.7,470.2 L236.7,468.9 L235.7,467.8 L234.8,466.9 L233.8,465.6 L233.6,464.5 L230.8,462.3 L230.0,461.0 L229.8,459.9 L227.8,458.6 L226.8,457.7 L226.5,456.4 L225.9,455.3 L223.9,454.2 L223.3,453.1 L220.1,450.1 L218.9,449.2 L218.0,448.3 L217.0,447.2 L216.0,446.3 L214.6,445.5 L213.0,444.8 L211.0,444.2 L210.1,443.3 L206.1,441.5 L205.1,441.1 L204.1,440.7 L200.2,439.8 L198.2,439.3 L197.2,439.1 L195.2,438.7 L194.2,438.5 L191.7,438.2 L190.3,438.0 L188.5,437.8 L187.3,437.6 L185.4,437.4 L184.4,437.2" fill="none" stroke="#1f77b4" stroke-width="1.7" opacity="0.85"/><circle cx="184" cy="437" r="4.5" fill="#1f77b4"/><rect x="28" y="48" width="13" height="13" fill="#1f77b4"/><text x="46" y="59" font-size="12">5%</text><path d="M178.4,491.5 L178.4,491.5 L178.4,491.5 L178.4,491.5 L178.4,491.5 L178.4,491.5 L178.4,491.5 L178.4,491.5 L178.4,491.5 L178.4,491.5 L178.4,491.5 L178.4,491.5 L178.4,491.5 L178.4,491.5 L178.4,491.5 L178.4,491.5 L178.4,491.5 L178.4,491.5 L178.4,491.5 L178.4,491.5 L178.4,491.5 L178.4,491.5 L178.4,491.5 L178.4,491.5 L178.4,491.5 L178.4,491.5 L178.4,491.5 L178.4,491.5 L178.4,491.5 L178.4,491.5 L178.4,491.5 L178.4,491.5 L178.4,491.5 L178.4,491.5 L178.4,491.5 L178.4,491.5 L178.4,491.5 L178.4,491.5 L178.4,491.5 L178.4,491.5 L178.4,491.5 L178.4,491.5 L178.4,491.5 L178.4,491.5 L178.4,491.5 L178.4,491.5 L178.4,491.5 L178.4,491.5 L178.4,491.5 L178.4,491.5 L178.4,491.5 L178.4,491.5 L178.4,491.5 L178.4,491.5 L178.4,491.5 L178.4,491.5 L178.4,491.5 L178.4,491.5 L178.4,491.5 L178.4,491.5 L178.4,491.5 L178.4,491.5 L178.4,491.5 L178.4,491.5 L178.4,491.5 L178.4,491.5 L178.4,491.5 L178.4,491.5 L178.4,491.5 L178.4,491.5 L178.4,491.2 L179.0,489.9 L179.4,488.6 L180.4,487.3 L182.2,485.8 L182.4,484.2 L183.4,483.1 L184.4,481.8 L185.4,480.9 L186.3,479.6 L187.3,478.5 L188.5,477.2 L189.3,476.3 L191.3,475.3 L191.7,474.2 L192.3,473.3 L194.2,472.2 L194.8,471.3 L196.2,470.2 L197.2,469.3 L198.2,468.5 L200.2,467.8 L201.2,466.7 L202.1,465.6 L204.1,464.7 L204.3,463.6 L206.1,463.0 L207.1,461.9 L208.1,460.6 L209.1,459.7 L210.6,458.6 L211.0,457.5 L212.0,456.4 L214.0,455.1 L214.6,454.0 L215.0,452.7 L216.0,451.6 L217.0,450.1 L217.8,449.0 L218.0,447.4 L218.9,446.3 L219.9,445.3 L220.1,443.3 L220.9,441.8 L220.9,440.7 L221.9,438.9 L222.9,437.6 L222.9,436.3 L223.3,434.7 L223.3,433.2 L223.9,431.9 L223.9,430.1 L224.9,428.8 L224.9,427.3 L224.9,426.0 L224.9,424.5 L225.9,422.7 L225.9,421.6 L225.9,419.9 L226.5,418.3 L226.5,417.0 L226.8,415.5 L226.8,414.2 L227.8,412.9 L228.8,411.3 L228.8,409.8 L229.8,408.7 L230.0,407.2 L230.8,405.8 L231.8,404.3 L232.8,403.2 L233.6,401.7 L233.8,400.4 L234.8,399.1 L235.7,398.0 L235.9,396.9 L236.7,395.6 L237.7,394.5 L239.1,393.1 L239.7,392.1 L240.7,391.0 L242.7,389.9 L243.4,388.8 L243.6,387.7 L245.6,386.8 L245.8,385.9 L247.6,384.8 L249.8,383.9 L249.6,383.1 L251.5,382.4 L252.5,381.5 L253.5,380.9 L254.9,380.0 L256.5,379.4 L258.5,378.5 L259.5,378.0 L260.4,377.6 L261.6,376.9 L263.4,376.5 L264.8,376.1 L266.4,375.6 L267.6,375.2 L269.3,374.8 L270.7,374.5 L272.3,374.3 L274.3,373.9 L275.3,373.9 L277.2,373.7 L278.2,373.4 L280.2,373.4 L281.2,373.4 L283.2,373.4 L284.2,373.4 L286.1,373.7 L287.7,373.7 L289.1,373.9 L290.9,374.1 L292.1,374.3 L293.6,374.8 L295.0,375.0 L296.8,375.4 L298.0,375.8 L300.0,376.3 L300.0,376.7 L301.9,377.4 L302.7,377.6 L304.9,378.3 L306.7,378.9 L307.9,379.8 L308.9,380.4 L309.8,381.1 L311.8,382.0 L312.8,382.6 L313.8,383.5 L315.8,384.4 L315.8,385.3 L317.7,386.4 L318.9,387.0 L319.7,388.1 L321.7,389.2 L322.5,390.3 L322.7,391.2 L324.7,392.5 L324.9,393.4 L326.6,394.7 L327.6,395.8 L328.8,397.1 L328.6,398.4 L330.6,399.7 L331.6,400.8 L331.6,402.1 L333.6,404.7 L334.5,405.8 L334.7,407.4 L334.7,408.7 L335.5,410.0 L336.5,411.5 L337.5,413.1 L337.5,414.2 L337.9,415.9 L337.9,417.2 L338.5,418.8 L338.5,420.1 L339.5,421.8 L339.5,423.1 L339.5,424.5 L339.5,426.2 L340.5,427.3 L340.5,429.1 L340.5,430.6 L340.5,432.1 L340.5,435.0 L340.5,436.3 L339.5,438.0 L339.5,439.3 L339.5,440.9 L338.5,442.2 L338.5,443.9 L338.5,445.5 L337.9,446.8 L337.9,448.3 L336.5,450.7 L336.5,452.0 L335.5,453.8 L334.7,454.9 L334.5,456.4 L333.6,457.7 L332.6,459.0 L332.6,460.1 L331.6,461.7 L330.6,463.0 L328.6,465.0 L328.8,466.5 L327.6,467.6 L325.6,468.7 L324.9,469.8 L324.7,471.1 L322.7,472.0 L322.5,472.8 L320.7,473.9 L319.7,474.8 L317.7,476.8 L315.8,477.4 L315.8,478.3 L313.8,479.4 L312.8,480.1 L311.8,480.9 L309.8,481.4 L308.9,482.0 L307.9,482.9 L306.7,483.6 L302.7,484.7 L301.9,485.3 L300.9,485.8 L300.0,486.0 L298.0,486.4 L296.8,486.9 L295.0,487.3 L293.6,487.7 L292.1,487.9 L290.9,488.2 L288.1,488.6 L286.1,488.8 L284.2,488.8 L283.2,488.8 L281.2,488.8 L280.2,488.8 L278.2,488.8 L277.2,488.8 L276.2,488.6 L274.3,488.4 L271.3,487.9 L270.3,487.7 L268.3,487.3 L267.4,487.1 L265.4,486.6 L264.4,486.2 L262.4,486.0 L261.4,485.3 L259.5,484.9 L255.5,483.1 L254.9,482.5 L253.5,481.6 L251.7,480.9 L250.6,480.3 L249.8,479.4 L248.6,478.5 L246.6,477.4 L245.8,476.8 L242.7,474.2 L241.7,472.8 L240.7,472.2 L239.1,470.9 L238.7,469.8 L236.7,468.7 L235.9,467.8 L235.7,466.5 L233.8,465.2 L231.8,462.3 L230.0,461.0 L229.8,459.7 L228.8,458.6 L226.8,457.5 L226.5,456.4 L225.9,455.1 L223.9,454.2 L223.3,453.1 L220.1,450.1 L218.9,449.4 L218.0,448.3 L217.0,447.2 L216.0,446.3 L214.6,445.5 L213.0,444.8 L211.0,443.9 L210.1,443.1 L207.1,441.3 L204.1,440.2 L202.1,439.6 L201.2,438.9 L199.2,438.5 L198.0,438.0 L197.2,437.4 L194.8,436.9 L192.3,436.1 L191.3,435.6 L189.3,435.2" fill="none" stroke="#17becf" stroke-width="1.7" opacity="0.85"/><circle cx="189" cy="435" r="4.5" fill="#17becf"/><rect x="28" y="68" width="13" height="13" fill="#17becf"/><text x="46" y="79" font-size="12">10%</text><path d="M178.4,491.5 L178.4,491.5 L178.4,491.5 L178.4,491.5 L178.4,491.5 L178.4,491.5 L178.4,491.5 L178.4,491.5 L178.4,491.5 L178.4,491.5 L178.4,491.5 L178.4,491.5 L178.4,491.5 L178.4,491.5 L178.4,491.5 L178.4,491.5 L178.4,491.5 L178.4,491.5 L178.4,491.5 L178.4,491.5 L178.4,491.5 L178.4,491.5 L178.4,491.5 L178.4,491.5 L178.4,491.5 L178.4,491.5 L178.4,491.5 L178.4,491.5 L178.4,491.5 L178.4,491.5 L178.4,491.5 L178.4,491.5 L178.4,491.5 L178.4,491.5 L178.4,491.5 L178.4,491.5 L178.4,491.5 L178.4,491.5 L178.4,491.5 L178.4,491.5 L178.4,491.5 L178.4,491.5 L178.4,491.5 L178.4,491.5 L178.4,491.5 L178.4,491.5 L178.4,491.5 L178.4,491.5 L178.4,491.5 L178.4,491.5 L178.4,491.5 L178.4,491.5 L178.4,491.5 L178.4,491.5 L178.4,491.5 L178.4,491.5 L178.4,491.5 L178.4,491.5 L178.4,491.5 L178.4,491.5 L178.4,491.5 L178.4,491.5 L178.4,491.5 L178.4,491.5 L178.4,491.5 L178.4,491.5 L178.4,491.5 L178.4,491.5 L178.4,491.5 L178.4,491.5 L178.4,491.5 L178.4,491.5 L178.4,491.5 L178.4,491.5 L178.4,491.5 L178.4,491.5 L178.4,491.5 L178.4,491.5 L178.4,491.5 L178.4,491.5 L178.4,491.5 L178.4,491.5 L178.4,491.5 L178.4,491.5 L178.4,491.5 L178.4,491.5 L178.4,491.5 L178.4,491.5 L178.4,491.5 L178.4,491.5 L178.4,491.5 L178.4,491.5 L178.4,491.5 L178.4,491.5 L178.4,491.5 L178.4,491.5 L178.4,491.5 L178.4,491.5 L178.4,491.5 L178.4,491.5 L178.4,491.5 L178.4,491.5 L178.4,491.5 L178.4,491.5 L178.4,491.5 L178.4,491.5 L178.4,491.5 L178.4,491.5 L178.4,491.5 L178.4,491.5 L178.4,491.5 L178.4,491.5 L178.4,491.5 L178.4,491.5 L178.4,491.5 L178.4,491.5 L178.4,491.5 L178.4,491.5 L178.4,491.5 L178.4,491.5 L178.4,491.5 L178.4,491.5 L178.4,491.5 L178.4,491.5 L178.4,491.5 L178.4,491.5 L178.4,491.5 L178.4,491.5 L178.4,491.5 L178.4,491.5 L178.4,491.5 L178.4,491.5 L178.4,491.5 L178.4,491.5 L178.4,491.5 L178.4,491.5 L178.4,491.5 L178.4,491.5 L178.4,491.5 L178.4,491.5 L178.4,491.5 L178.4,491.5 L178.4,491.5 L178.4,491.5 L178.4,491.5 L178.4,491.5 L178.4,491.5 L178.4,491.5 L178.4,491.5 L178.4,491.5 L178.4,491.5 L178.4,491.5 L178.4,491.5 L178.4,491.5 L178.4,491.5 L178.4,491.5 L178.4,491.5 L178.4,491.5 L178.4,491.5 L178.4,491.5 L178.4,491.5 L178.4,491.5 L178.4,491.5 L178.4,491.5 L178.4,491.5 L178.4,491.5 L178.4,491.5 L178.4,491.5 L178.4,491.5 L178.4,491.5 L178.4,491.5 L178.4,491.5 L178.4,491.5 L178.4,491.5 L178.4,491.5 L178.4,491.5 L178.4,491.5 L178.4,491.5 L178.4,491.5 L178.4,491.5 L178.4,491.5 L178.4,491.5 L178.4,491.5 L178.4,491.5 L178.4,491.5 L178.4,491.5 L178.4,491.5 L178.4,491.5 L178.4,491.5 L178.4,491.5 L178.4,491.5 L178.4,491.5 L178.4,491.5 L178.4,491.5 L178.4,491.5 L178.4,491.5 L178.4,491.5 L178.4,491.5 L178.4,491.5 L178.4,491.5 L178.4,491.5 L178.4,491.5 L178.4,491.5 L178.4,491.5 L178.4,491.5 L178.4,491.5 L178.4,491.5 L178.4,491.5 L178.4,491.5 L178.4,491.5 L178.4,491.5 L178.4,491.5 L178.4,491.5 L178.4,491.5 L178.4,491.5 L178.4,491.5 L178.4,491.5 L178.4,491.5 L178.4,491.5 L178.4,491.5 L178.4,491.5 L178.4,491.5 L178.4,491.5 L178.4,491.5 L178.4,491.5 L178.4,491.5 L178.4,491.5 L178.4,491.5 L178.4,491.5 L178.4,491.5 L178.4,491.5 L178.4,491.5 L178.4,491.5 L178.4,491.5 L178.4,491.5 L178.4,491.5 L178.4,491.5 L178.4,491.5 L178.4,491.5 L178.4,491.5 L178.4,491.5 L178.4,491.5 L178.4,491.5 L178.4,491.5 L178.4,491.5 L178.4,491.5 L178.4,491.5 L178.4,491.5 L178.4,491.5 L178.4,491.5 L178.4,491.5 L178.4,491.5 L178.4,491.5 L178.4,491.5 L178.4,491.5 L178.4,491.5 L178.4,491.5 L178.4,491.5 L178.4,491.5 L178.4,491.5 L178.4,491.5 L178.4,491.5 L178.4,491.5 L178.4,491.5 L178.4,491.5 L178.4,491.5 L178.4,491.5 L178.4,491.5 L178.4,491.5 L178.4,491.5 L178.4,491.5 L178.4,491.5 L178.4,491.5 L178.4,491.5 L178.4,491.5 L178.4,491.5 L178.4,491.5 L178.4,491.5 L178.4,491.5 L178.4,491.5 L178.4,491.5 L178.4,491.5 L178.4,491.5 L178.4,491.5 L178.4,491.5 L178.4,491.5 L178.4,491.5 L178.4,491.5 L178.4,491.5 L178.4,491.5 L178.4,491.5 L178.4,491.5 L178.4,491.5 L178.4,491.5 L178.4,491.5 L178.4,491.5 L178.4,491.5 L178.4,491.5 L178.4,491.5 L178.4,491.5 L178.4,491.5 L178.4,491.5 L178.4,491.5 L178.4,491.5 L178.4,491.5 L178.4,491.5 L178.4,491.5 L178.4,491.5 L178.4,491.5 L178.4,491.5 L178.4,491.5 L178.4,491.5 L178.4,491.5 L178.4,491.5 L178.4,491.5 L178.4,491.5 L178.4,491.5 L178.4,491.5 L178.4,491.5 L178.4,491.5 L178.4,491.5 L178.4,491.5 L178.4,491.5 L178.4,491.5 L178.4,491.5 L178.4,491.5 L178.4,491.5 L178.4,491.5 L178.4,491.5 L178.4,491.5 L178.4,491.5 L178.4,491.5 L178.4,491.5 L178.4,491.5 L178.4,491.5 L178.4,491.5 L178.4,491.5 L178.4,491.5 L178.4,491.5 L178.4,491.5 L178.4,491.5 L178.4,491.5 L178.4,491.5 L178.4,491.5 L178.4,491.5 L178.4,491.5 L178.4,491.5 L178.4,491.5 L178.4,491.5 L178.4,491.5 L178.4,491.5 L178.4,491.5 L178.4,491.5 L178.4,491.5 L178.4,491.5 L178.4,491.5 L178.4,491.5 L178.4,491.5 L178.4,491.5 L178.4,491.5 L178.4,491.5 L178.4,491.5 L178.4,491.5 L178.4,491.5 L178.4,491.5 L178.4,491.5 L178.4,491.5 L178.4,491.5 L178.4,491.5 L178.4,491.5 L178.4,491.5 L178.4,491.5 L178.4,491.5 L178.4,491.5 L178.4,491.5 L178.4,491.5 L178.4,491.5 L178.4,491.5 L178.4,491.5 L178.4,491.5 L178.4,491.5 L178.4,491.5 L178.4,491.5 L178.4,491.5 L178.4,491.5 L178.4,491.5 L178.4,491.5 L178.4,491.5 L178.4,491.5 L178.4,491.5 L178.4,491.5 L178.4,491.5 L178.4,491.5 L178.4,491.5 L178.4,491.5 L178.4,491.5 L178.4,491.5 L178.4,491.5 L178.4,491.5 L178.4,491.5 L178.4,491.5 L178.4,491.5 L178.4,491.5 L178.4,491.5 L178.4,491.5 L178.4,491.5 L178.4,491.5 L178.4,491.5 L178.4,491.5 L178.4,491.5 L178.4,491.5 L178.4,491.5 L178.4,491.5 L178.4,491.5 L178.4,491.5 L178.4,491.5 L178.4,491.5 L178.4,491.5 L178.4,491.5 L178.4,491.5 L178.4,491.5 L178.4,491.5 L178.4,491.5 L178.4,491.5 L178.4,491.5 L178.4,491.5 L178.4,491.5 L178.4,491.5 L178.4,491.5 L178.4,491.5 L178.4,491.5 L178.4,491.5 L178.4,491.5 L178.4,491.5 L178.4,491.5 L178.4,491.5 L178.4,491.5 L178.4,491.5 L178.4,491.5 L178.4,491.5 L178.4,491.5 L178.4,491.5 L178.4,491.5 L178.4,491.5 L178.4,491.5 L178.4,491.5 L178.4,491.5 L178.4,491.5 L178.4,491.5 L178.4,491.5 L178.4,491.5 L178.4,491.5 L178.4,491.5 L178.4,491.5 L178.4,491.5 L178.4,491.5 L178.4,491.5 L178.4,491.5 L178.4,491.5 L178.4,491.5 L178.4,491.5 L178.4,491.5 L178.4,491.5 L178.4,491.5 L178.4,491.5 L178.4,491.5 L178.4,491.5 L178.4,491.5 L178.4,491.5 L178.4,491.5 L178.4,491.5 L178.4,491.5 L178.4,491.5 L178.4,491.5 L178.4,491.5 L178.4,491.5 L178.4,491.5 L178.4,491.5 L178.4,491.5 L178.4,491.5 L178.4,491.5 L178.4,491.5 L178.4,491.5 L178.4,491.5 L178.4,491.5 L178.4,491.5 L178.4,491.5 L178.4,491.5 L178.4,491.5 L178.4,491.5 L178.4,491.5 L178.4,491.5 L178.4,491.5 L178.4,491.5 L178.4,491.5 L178.4,491.5 L178.4,491.5 L178.4,491.5 L178.4,491.5 L178.4,491.5 L178.4,491.5 L178.4,491.5 L178.4,491.5 L178.4,491.5 L178.4,491.5 L178.4,491.5 L178.4,491.5 L178.4,491.5 L178.4,491.5 L178.4,491.5 L178.4,491.5 L178.4,491.5 L178.4,491.5 L178.4,491.5 L178.4,491.5 L178.4,491.5 L178.4,491.5 L178.4,491.5 L178.4,491.5 L178.4,491.5 L178.4,491.5 L178.4,491.5 L178.4,491.5 L178.4,491.5 L178.4,491.5 L178.4,491.5 L178.4,491.5 L178.4,491.5 L178.4,491.5 L178.4,491.5 L178.4,491.5 L178.4,491.5 L178.4,491.5 L178.4,491.5 L178.4,491.5 L178.4,491.5 L178.4,491.5 L178.4,491.5 L178.4,491.5 L178.4,491.5 L178.4,491.5 L178.4,491.5 L178.4,491.5 L178.4,491.5 L178.4,491.5 L178.4,491.5 L178.4,491.5 L178.4,491.5 L178.4,491.5 L178.4,491.5 L178.4,491.5 L178.4,491.5 L178.4,491.5 L178.4,491.5 L178.4,491.5 L178.4,491.5 L178.4,491.5 L178.4,491.5 L178.4,491.5 L178.4,491.5 L178.4,491.5 L178.4,491.5 L178.4,491.5 L178.4,491.5 L178.4,491.5 L178.4,491.5 L178.4,491.5 L178.4,491.5 L178.4,491.5 L178.4,491.5 L178.4,491.5 L178.4,491.5 L178.4,491.5 L178.4,491.5 L178.4,491.5 L178.4,491.5 L178.4,491.5 L178.4,491.5 L178.4,491.5 L178.4,491.5 L178.4,491.5 L178.4,491.5 L178.4,491.5 L178.4,491.5 L178.4,491.5 L178.4,491.5 L178.4,491.5 L178.4,491.5 L178.4,491.5 L178.4,491.5 L178.4,491.5 L178.4,491.5 L178.4,491.5 L178.4,491.5 L178.4,491.5 L178.4,491.5 L178.4,491.5 L178.4,491.5 L178.4,491.5 L178.4,491.5 L178.4,491.5 L178.4,491.5 L178.4,491.5 L178.4,491.5 L178.4,491.5 L178.4,491.5 L178.4,491.5 L178.4,491.5 L178.4,491.5 L178.4,491.5 L178.4,491.5 L178.4,491.5 L178.4,491.5 L178.4,491.5 L178.4,491.5 L178.4,491.5 L178.4,491.5 L178.4,491.5 L178.4,491.5 L178.4,491.5 L178.4,491.5 L178.4,491.5 L178.4,491.5 L178.4,491.5 L178.4,491.5 L178.4,491.5 L178.4,491.5 L178.4,491.5 L178.4,491.5 L178.4,491.5 L178.4,491.5 L178.4,491.5 L178.4,491.5 L178.4,491.5 L178.4,491.5 L178.4,491.5 L178.4,491.5 L178.4,491.5 L178.4,491.5 L178.4,491.5 L178.4,491.5 L178.4,491.5 L178.4,491.5 L178.4,491.5 L178.4,491.5 L178.4,491.5 L178.4,491.5 L178.4,491.5 L178.4,491.5 L178.4,491.5 L178.4,491.5 L178.4,491.5 L178.4,491.5 L178.4,491.5 L178.4,491.5 L178.4,491.5 L178.4,491.5 L178.4,491.5 L178.4,491.5 L178.4,491.5 L178.4,491.5 L178.4,491.5 L178.4,491.5 L178.4,491.5 L178.4,491.5 L178.4,491.5 L178.4,491.5 L178.4,491.5 L178.4,491.5 L178.4,491.5 L178.4,491.5 L178.4,491.5 L178.4,491.5 L178.4,491.5 L178.4,491.5 L178.4,491.5 L178.4,491.5 L178.4,491.5 L178.4,491.5 L178.4,491.5 L178.4,491.5 L178.4,491.5 L178.4,491.5 L178.4,491.5 L178.4,491.5 L178.4,491.5 L178.4,491.5 L178.4,491.5 L178.4,491.5 L178.4,491.5 L178.4,491.5 L178.4,491.5 L178.4,491.5 L178.4,491.5 L178.4,491.5 L178.4,491.5 L178.4,491.5 L178.4,491.5 L178.4,491.5 L178.4,491.5 L178.4,491.5 L178.4,491.5 L178.4,491.5 L178.4,491.5 L178.4,491.5 L178.4,491.5 L178.4,491.5 L178.4,491.5 L178.4,491.5 L178.4,491.5 L178.4,491.5 L178.4,491.5 L178.4,491.5 L178.4,491.5 L178.4,491.5 L178.4,491.5 L178.4,491.5 L178.4,491.5 L178.4,491.5 L178.4,491.5 L178.4,491.5 L178.4,491.5 L178.4,491.5 L178.4,491.5 L178.4,491.5 L178.4,491.5 L178.4,491.5 L178.4,491.5 L178.4,491.5 L178.4,491.5 L178.4,491.5 L178.4,491.5 L178.4,491.5 L178.4,491.5 L178.4,491.5 L178.4,491.5 L178.4,491.5 L178.4,491.5 L178.4,491.5 L178.4,491.5 L178.4,491.5 L178.4,491.5 L178.4,491.5 L178.4,491.5 L178.4,491.5 L178.4,491.5 L178.4,491.5 L178.4,491.5 L178.4,491.5 L178.4,491.5 L178.4,491.5 L178.4,491.5 L178.4,491.5 L178.4,491.5 L178.4,491.5 L178.4,491.5 L178.4,491.5 L178.4,491.5 L178.4,491.5 L178.4,491.5 L178.4,491.5 L178.4,491.5 L178.4,491.5 L178.4,491.5 L178.4,491.5 L178.4,491.5 L178.4,491.5 L178.4,491.5 L178.4,491.5 L178.4,491.5 L178.4,491.5 L178.4,491.5 L178.4,491.5 L178.4,491.5 L178.4,491.5 L178.4,491.5 L178.4,491.5 L178.4,491.5 L178.4,491.5 L178.4,491.5 L178.4,491.5 L178.4,491.5 L178.4,491.5 L178.4,491.5 L178.4,491.5 L178.4,491.5 L178.4,491.5 L178.4,491.5 L178.4,491.5 L178.4,491.5 L178.4,491.5 L178.4,491.5 L178.4,491.5 L178.4,491.5 L178.4,491.5 L178.4,491.5 L178.4,491.5 L178.4,491.5 L178.4,491.5 L178.4,491.5 L178.4,491.5 L178.4,491.5 L178.4,491.5 L178.4,491.5 L178.4,491.5 L178.4,491.5 L178.4,491.5 L178.4,491.5 L178.4,491.5 L178.4,491.5 L178.4,491.5 L178.4,491.5 L178.4,491.5 L178.4,491.5 L178.4,491.5 L178.4,491.5 L178.4,491.5 L178.4,491.5 L178.4,491.5 L178.4,491.5 L178.4,491.5 L178.4,491.5 L178.4,491.5 L178.4,491.5 L178.4,491.5 L178.4,491.5 L178.4,491.5 L178.4,491.5 L178.4,491.5 L178.4,491.5 L178.4,491.5 L178.4,491.5 L178.4,491.5 L178.4,491.5 L178.4,491.5 L178.4,491.5 L178.4,491.5 L178.4,491.5 L178.4,491.5 L178.4,491.5 L178.4,491.5 L178.4,491.5 L178.4,491.5 L178.4,491.5 L178.4,491.5 L178.4,491.5 L178.4,491.5 L178.4,491.5 L178.4,491.5 L178.4,491.5 L178.4,491.5 L178.4,491.5 L178.4,491.5 L178.4,491.5 L178.4,491.5 L178.4,491.5 L178.4,491.5 L178.4,491.5 L178.4,491.5 L178.4,491.5 L178.4,491.5 L178.4,491.5 L178.4,491.5 L178.4,491.5 L178.4,491.5 L178.4,491.5 L178.4,491.5 L178.4,491.5 L178.4,491.5 L178.4,491.5 L178.4,491.5 L178.4,491.5 L178.4,491.5 L178.4,491.5 L178.4,491.5 L178.4,491.5 L178.4,491.5 L178.4,491.5" fill="none" stroke="#2ca02c" stroke-width="1.7" opacity="0.85"/><circle cx="178" cy="491" r="4.5" fill="#2ca02c"/><rect x="28" y="88" width="13" height="13" fill="#2ca02c"/><text x="46" y="99" font-size="12">25%</text><path d="M178.4,491.5 L178.4,491.5 L178.4,491.5 L178.4,491.5 L178.4,491.5 L178.4,491.5 L178.4,491.5 L178.4,491.5 L178.4,491.5 L178.4,491.5 L178.4,491.5 L178.4,491.5 L178.4,491.5 L178.4,491.5 L178.4,491.5 L178.4,491.5 L178.4,491.5 L178.4,491.5 L178.4,491.5 L178.4,491.5 L178.4,491.5 L178.4,491.5 L178.4,491.5 L178.4,491.5 L178.4,491.5 L178.4,491.5 L178.4,491.5 L178.4,491.5 L178.4,491.5 L178.4,491.5 L178.4,491.5 L178.4,491.5 L178.4,491.5 L178.4,491.5 L178.4,491.5 L178.4,491.5 L178.4,491.5 L178.4,491.5 L178.4,491.5 L178.4,491.5 L178.4,491.5 L178.4,491.5 L178.4,491.5 L178.4,491.5 L178.4,491.5 L178.4,491.5 L178.4,491.5 L178.4,491.5 L178.4,491.5 L178.4,491.5 L178.4,491.5 L178.4,491.5 L178.4,491.5 L178.4,491.5 L178.4,491.5 L178.4,491.5 L178.4,491.5 L178.4,491.5 L178.4,491.5 L178.4,491.5 L178.4,491.5 L178.4,491.5 L178.4,491.5 L178.4,491.5 L178.4,491.5 L178.4,491.5 L178.4,491.5 L178.4,491.5 L178.4,491.5 L178.4,491.5 L178.4,491.5 L179.0,490.4 L179.4,489.0 L180.4,487.7 L181.4,486.2 L182.2,485.3 L182.4,483.8 L183.4,482.7 L185.4,481.4 L185.4,480.3 L186.3,479.0 L187.3,477.9 L188.5,476.8 L189.3,475.7 L191.3,474.4 L191.7,473.3 L192.3,472.2 L194.2,471.3 L194.8,470.2 L196.2,469.1 L197.2,468.2 L198.2,467.1 L199.2,466.3 L201.2,465.2 L202.0,464.1 L203.1,463.2 L204.1,462.1 L205.1,461.0 L206.1,459.9 L207.1,458.8 L208.1,457.7 L209.1,456.6 L210.1,455.3 L211.0,454.2 L212.0,452.7 L213.0,451.6 L214.0,450.1 L214.6,449.0 L215.0,447.7 L216.0,446.3 L217.0,445.0 L217.8,443.7 L218.0,442.0 L218.0,440.7 L218.9,439.3 L219.9,438.0 L219.9,436.3 L220.1,435.2 L220.1,433.4 L220.9,431.9 L220.9,430.6 L221.9,429.1 L221.9,427.1 L221.9,425.3 L221.9,424.0 L222.9,422.5 L222.9,421.0 L222.9,419.2 L222.9,418.1 L223.3,416.4 L223.3,414.6 L223.9,413.5 L223.9,412.2 L224.9,410.4 L224.9,409.3 L225.9,407.6 L226.5,406.3 L226.5,404.7 L226.8,403.7 L227.8,401.9 L228.8,400.8 L229.8,399.5 L230.0,398.2 L230.8,396.9 L231.8,395.6 L232.8,394.5 L233.6,393.1 L233.8,391.8 L235.7,390.7 L235.9,389.6 L236.7,388.3 L238.7,387.0 L239.1,386.4 L240.7,385.3 L241.7,384.2 L243.4,383.1 L243.6,382.4 L245.6,381.3 L245.8,380.4 L247.6,379.6 L248.6,378.7 L249.6,377.8 L251.5,377.4 L252.5,376.5 L253.5,375.8 L254.9,375.0 L256.5,374.3 L258.5,373.7 L259.5,373.2 L261.4,372.6 L261.6,372.1 L263.4,371.5 L264.8,371.0 L266.4,370.6 L267.6,370.2 L269.3,369.7 L270.7,369.5 L272.3,369.1 L274.3,368.8 L275.3,368.8 L277.2,368.6 L278.2,368.4 L280.2,368.4 L281.2,368.2 L283.2,368.2 L284.2,368.2 L286.1,368.4 L287.7,368.4 L289.1,368.6 L290.9,368.6 L292.1,368.8 L295.0,369.3 L296.8,369.5 L298.0,369.9 L300.0,370.4 L300.9,370.8 L301.9,371.2 L302.7,371.7 L304.9,372.3 L306.7,373.0 L307.9,373.4 L309.0,374.1 L309.8,374.8 L311.8,375.6 L312.8,376.3 L314.8,377.2 L315.8,377.8 L316.8,378.7 L318.7,379.6 L318.9,380.7 L320.7,381.5 L322.5,382.4 L322.7,383.3 L324.7,384.6 L324.9,385.5 L325.6,386.8 L327.6,387.7 L328.8,389.0 L328.6,390.1 L330.6,391.2 L331.6,392.3 L331.6,393.6 L332.6,394.9 L333.6,396.2 L334.5,397.5 L334.7,398.8 L335.5,400.2 L336.5,401.5 L337.5,402.8 L337.9,404.5 L338.5,406.9 L339.5,408.5 L339.5,410.0 L340.5,411.5 L340.7,413.1 L340.7,414.4 L340.7,416.1 L341.5,417.7 L341.5,419.0 L342.4,422.7 L342.4,424.2 L342.4,425.8 L342.4,427.3 L342.4,429.1 L342.4,430.4 L342.4,431.9 L342.4,433.4 L342.4,435.2 L341.5,438.9 L341.5,440.7 L340.7,441.8 L340.7,443.5 L340.5,445.3 L340.5,446.3 L339.5,448.1 L339.5,449.4 L338.5,450.5 L338.5,452.3 L337.5,454.5 L337.5,456.0 L336.5,457.5 L335.5,458.6 L334.7,460.1 L334.5,461.5 L333.6,463.0 L332.6,464.1 L331.6,465.6 L331.6,466.7 L329.6,469.1 L328.6,470.2 L328.8,471.7 L327.6,472.6 L325.6,473.9 L324.9,475.0 L324.7,476.3 L323.7,477.2 L322.5,478.5 L321.7,479.6 L318.9,481.6 L318.7,482.5 L317.7,483.6 L315.8,484.7 L314.8,485.8 L313.8,486.6 L312.6,487.5 L311.8,488.6 L309.8,489.5 L308.9,490.4 L306.9,491.7 L305.9,492.5 L303.9,493.4 L302.9,494.1 L301.9,494.7 L300.0,495.4 L299.0,496.1 L297.0,496.7 L296.0,497.4 L294.0,498.0 L292.1,498.9 L290.9,499.3 L290.1,499.8 L288.1,500.4 L287.1,501.1 L285.1,501.5 L284.5,502.0 L282.2,502.6 L281.0,503.1 L279.2,503.5 L277.2,504.2 L275.3,504.6 L274.3,505.0 L272.3,505.5 L270.7,505.9 L269.3,506.1 L267.6,506.3 L266.4,506.8 L264.8,507.0 L263.4,507.4 L261.4,507.9 L259.5,508.1 L258.5,508.3 L256.5,508.5 L254.9,508.8 L253.5,509.0 L251.7,509.2 L250.6,509.6 L249.8,509.8 L247.6,510.1 L244.6,510.5 L243.4,510.9 L241.7,510.9 L239.7,511.2 L238.7,511.4 L236.7,511.6 L235.7,511.6 L233.8,511.8 L232.8,511.8 L228.8,511.8 L226.8,511.8 L225.9,511.8 L223.9,511.8 L222.9,511.8 L220.9,511.8 L219.9,511.6 L218.0,511.6 L217.0,511.4 L215.0,511.4 L212.0,510.9 L210.6,510.7 L209.1,510.5 L207.5,510.3 L206.1,510.1 L204.3,509.8 L203.1,509.4 L202.0,509.0 L200.2,508.8 L196.2,507.9 L194.8,507.4 L193.3,507.2 L191.7,506.8 L190.3,506.3 L188.5,506.1 L187.3,505.7 L185.4,505.5 L184.4,505.0 L180.4,503.9 L179.0,503.7 L177.4,503.3 L175.9,502.8 L174.5,502.4 L172.7,501.7 L171.5,501.3 L169.5,500.9 L168.6,500.4 L164.6,499.1 L163.2,498.5 L161.6,497.8 L160.1,497.1 L159.7,496.5 L157.7,495.8 L156.7,495.2 L154.7,494.5 L153.7,493.6 L149.8,491.5 L148.8,490.6 L147.4,490.1 L145.8,489.0 L144.8,488.4 L143.9,487.3 L141.9,486.4 L141.1,485.5 L139.9,484.7 L136.9,482.0 L135.0,481.2 L134.8,480.1 L133.0,479.2 L131.6,478.1 L131.0,477.2 L129.0,476.3 L128.4,475.3 L127.1,474.2 L124.1,471.7 L123.1,470.9 L121.3,469.8 L120.1,468.7 L119.2,467.8 L118.2,466.9 L117.2,466.1 L115.8,465.0 L114.2,464.1 L111.3,461.5 L110.3,460.4 L109.1,459.3 L108.3,458.4 L106.3,457.3 L105.1,456.2 L104.3,455.1 L103.4,454.2 L102.4,453.1 L99.4,449.9 L98.4,448.8 L97.4,447.9 L96.0,446.6 L95.4,445.5 L94.5,444.4 L93.3,443.1 L92.5,442.0 L91.5,440.7 L88.5,437.4 L87.5,436.3 L87.3,435.2 L86.6,434.1 L84.6,432.6 L84.2,431.7 L83.6,430.4 L81.6,429.1 L80.6,428.0 L78.7,424.7 L77.1,423.4 L76.7,422.5 L75.7,421.2 L74.7,419.9 L73.7,418.8 L72.7,417.7 L71.7,416.6 L70.7,415.3 L67.8,412.2 L66.8,410.9 L64.0,408.7 L63.8,407.8 L61.9,406.5 L61.3,405.4 L59.9,404.5 L58.9,403.4 L55.9,400.6 L54.9,399.5 L54.0,398.8 L52.2,397.1 L50.0,395.6" fill="none" stroke="#bcbd22" stroke-width="1.7" opacity="0.85"/><circle cx="50" cy="396" r="4.5" fill="#bcbd22"/><rect x="28" y="108" width="13" height="13" fill="#bcbd22"/><text x="46" y="119" font-size="12">50%</text><path d="M178.4,491.5 L178.4,491.5 L178.4,491.5 L178.4,491.5 L178.4,491.5 L178.4,491.5 L178.4,491.5 L178.4,491.5 L178.4,491.5 L178.4,491.5 L178.4,491.5 L178.4,491.5 L178.4,491.5 L178.4,491.5 L178.4,491.5 L178.4,491.5 L178.4,491.5 L178.4,491.5 L178.4,491.5 L178.4,491.5 L178.4,491.5 L178.4,491.5 L178.4,491.5 L178.4,491.5 L178.4,491.5 L178.4,491.5 L178.4,491.5 L178.4,491.5 L178.4,491.5 L178.4,491.5 L178.4,491.5 L178.4,491.5 L178.4,491.5 L178.4,491.5 L178.4,491.5 L178.4,491.5 L178.4,491.5 L178.4,491.5 L178.4,491.5 L178.4,491.5 L178.4,491.5 L178.4,491.5 L178.4,491.5 L178.4,491.5 L178.4,491.5 L178.4,491.5 L178.4,491.5 L178.4,491.5 L178.4,491.5 L178.4,491.5 L178.4,491.5 L178.4,491.5 L178.4,491.5 L178.4,491.5 L178.4,491.5 L178.4,491.5 L178.4,491.5 L178.4,491.5 L178.4,491.5 L178.4,491.5 L178.4,491.5 L178.4,491.5 L178.4,491.5 L178.4,491.5 L178.4,491.5 L178.4,491.5 L178.4,491.5 L178.4,491.5 L178.4,491.5 L178.4,491.5 L178.4,491.5 L178.4,491.5 L178.4,491.5 L178.4,491.5 L178.4,491.5 L178.4,491.5 L178.4,491.5 L178.4,491.5 L178.4,491.5 L178.4,491.5 L178.4,491.5 L178.4,491.5 L179.0,490.4 L179.4,489.3 L180.4,487.9 L181.4,486.4 L182.2,485.5 L182.4,484.0 L183.4,482.7 L184.4,481.4 L185.4,480.3 L186.3,479.0 L187.3,477.7 L188.3,476.6 L188.5,475.3 L189.3,473.7 L191.3,472.6 L191.7,471.7 L192.3,470.4 L193.3,469.1 L194.8,467.8 L195.2,466.9 L196.2,465.6 L197.2,464.5 L198.2,463.4 L199.2,462.3 L200.2,461.0 L202.0,459.9 L202.1,458.6 L203.1,457.7 L204.3,456.6 L205.1,455.5 L207.1,454.2 L207.5,453.4 L208.1,452.3 L210.1,451.2 L210.6,450.1 L212.0,449.2 L214.0,448.3 L214.6,447.2 L216.0,446.3 L217.8,445.5 L218.0,444.8 L219.9,443.9 L220.1,443.3 L221.9,442.4 L223.3,441.8 L224.9,440.9 L226.5,440.4 L227.8,439.8 L228.8,439.1 L230.8,438.5 L232.8,437.8 L233.8,437.4 L235.7,436.9 L236.7,436.5 L238.7,436.3 L239.7,436.1 L241.7,435.6 L243.4,435.4 L244.6,435.2 L245.8,435.0 L247.6,434.7 L249.8,434.7 L250.6,434.5 L251.7,434.5 L253.5,434.5 L254.9,434.5 L255.5,434.5 L258.5,434.5 L258.9,434.5 L261.4,434.7 L261.6,435.0 L264.4,435.2 L264.8,435.4 L267.4,435.6 L267.6,435.8 L269.3,436.3 L270.7,436.3 L272.3,436.7 L274.3,437.2 L275.3,437.4 L277.2,437.8 L278.2,438.2 L280.2,438.7 L281.2,439.1 L283.2,439.8 L284.5,440.2 L286.1,440.7 L287.1,441.1 L288.1,441.5 L290.1,442.0 L291.1,442.6 L293.0,443.1 L294.0,443.7 L296.0,444.2 L297.0,444.8 L298.0,445.3 L300.0,445.7 L300.9,446.1 L302.9,446.8 L303.9,447.2 L305.9,447.9 L306.9,448.5 L307.9,449.2 L309.0,449.9 L310.8,450.1 L312.6,450.7 L313.8,451.4 L315.8,452.0 L315.8,452.7 L317.7,453.4 L318.9,453.8 L320.7,454.2 L322.5,454.9 L323.7,455.5 L324.9,456.0 L326.6,456.4 L327.6,457.1 L328.6,457.5 L330.6,458.0 L331.6,458.4 L333.6,458.6 L334.7,458.8 L336.5,459.3 L337.9,459.7 L339.5,459.9 L340.7,460.1 L342.4,460.4 L343.8,460.8 L345.4,461.0 L347.4,461.0 L348.4,461.2 L350.3,461.5 L351.3,461.7 L353.3,461.7 L354.3,461.9 L356.3,461.9 L357.3,461.9 L359.2,462.1 L360.8,462.1 L362.2,462.1 L364.0,462.3 L365.2,462.3 L366.7,462.3 L368.1,462.3 L369.9,462.3 L371.1,462.3 L372.7,462.1 L374.1,462.1 L376.0,462.1 L377.0,461.9 L379.0,461.9 L380.0,461.7 L382.0,461.7 L383.0,461.5 L384.9,461.5 L385.9,461.2 L387.9,461.0 L389.3,461.0 L390.9,460.8 L392.4,460.6 L393.8,460.6 L395.6,460.4 L396.8,460.1 L398.0,459.9 L399.7,459.7 L401.7,459.3 L403.7,458.8 L405.1,458.6 L408.2,458.2 L409.6,457.7 L411.4,457.3 L412.6,457.1 L413.8,456.6 L415.6,456.2 L417.5,455.8 L418.5,455.3 L420.5,454.9 L424.1,454.0 L425.4,453.6 L427.2,453.1 L428.4,452.7 L430.4,452.5 L430.4,452.0 L433.3,451.6 L433.5,451.2 L436.3,450.7 L436.7,450.5 L439.9,449.9 L441.2,449.6 L443.0,449.2 L444.2,448.8 L446.2,448.5 L447.2,448.1 L449.1,447.7 L450.1,447.4 L451.1,447.0 L453.1,446.6 L455.7,446.1 L457.0,445.7 L458.8,445.5 L460.0,445.3 L462.0,445.0 L463.0,444.6 L465.0,444.4 L465.9,443.9 L467.9,443.7 L468.9,443.5 L471.5,443.1 L472.9,442.8 L474.6,442.6 L475.8,442.6 L477.8,442.4 L478.8,442.2 L480.8,442.2 L481.7,442.0 L483.7,442.0 L487.7,442.0 L489.7,442.0 L491.2,442.0 L492.6,442.0 L494.4,442.2 L495.6,442.2 L496.8,442.4 L498.5,442.6 L499.9,442.8 L501.5,442.8 L503.5,443.3 L505.5,443.5 L506.6,443.7 L508.4,443.9 L510.2,444.2 L511.4,444.4 L512.6,444.6 L514.4,444.8 L515.7,445.0 L517.3,445.3 L520.3,445.5 L522.3,445.5 L523.2,445.7 L525.2,445.9 L526.2,446.1 L528.2,446.3 L529.2,446.6 L530.2,446.8 L532.1,447.0 L534.1,447.2 L536.1,447.4 L538.1,447.7 L539.1,447.9 L541.0,448.1 L542.0,448.1 L544.0,448.3 L545.0,448.3 L547.0,448.3 L547.9,448.5 L552.9,448.5 L554.5,448.8 L555.8,448.8 L557.6,449.0 L558.8,449.0 L560.0,449.2 L561.8,449.2 L563.8,449.4 L564.7,449.4 L566.7,449.6 L568.7,449.9 L570.3,449.9 L571.7,449.9 L573.4,450.1 L574.6,450.3 L576.6,450.3 L577.6,450.5 L579.6,450.7 L580.5,450.9 L582.5,450.9 L585.5,451.4 L586.5,451.4 L588.5,451.6 L589.4,451.8 L591.4,451.8 L592.4,452.0 L594.4,452.0 L595.6,452.3 L597.3,452.3 L599.1,452.5 L601.5,452.7 L602.3,452.7 L605.4,452.9 L605.2,452.9 L608.2,453.1 L609.2,453.4 L611.2,453.6 L611.4,453.6 L614.1,453.8 L614.5,454.0 L617.3,454.0 L619.1,454.2 L620.5,454.2 L622.0,454.2 L624.0,454.2 L625.0,454.2 L627.0,454.2 L628.0,454.2 L629.9,454.2 L630.9,454.2 L633.9,454.2 L635.9,454.2 L637.5,454.2 L638.8,454.5 L640.6,454.5 L641.8,454.5 L643.4,454.7 L644.8,454.7 L646.5,454.7 L647.7,454.9 L650.7,455.1 L652.7,455.1 L653.7,455.3 L655.6,455.3 L656.6,455.5 L657.6,455.5 L659.6,455.8 L661.6,456.0 L662.6,456.0 L664.5,456.0 L666.5,456.2 L668.5,456.2 L669.5,456.2 L671.4,456.2 L672.4,456.2 L674.4,456.0 L675.4,456.0 L677.4,456.0 L678.4,456.0 L680.3,455.8 L683.3,455.5 L684.9,455.3 L686.3,455.1 L688.0,454.9 L689.2,454.7 L690.4,454.5 L692.2,454.2 L694.2,454.2 L695.2,454.0 L697.1,453.8 L700.1,453.4 L700.7,453.1 L703.1,452.9 L703.8,452.7 L706.0,452.5 L707.0,452.5 L709.0,452.3 L710.0,452.0 L711.9,451.8 L712.9,451.6 L715.9,451.4 L716.9,451.2 L718.9,451.2 L719.9,450.9 L721.8,450.9 L722.8,450.7 L724.8,450.7 L726.0,450.5 L727.8,450.5 L729.1,450.5 L732.3,450.5 L733.7,450.3 L735.5,450.3 L736.6,450.1 L738.6,450.1 L739.6,450.1 L741.6,449.9 L742.6,449.9 L744.6,449.9 L745.5,449.6 L748.5,449.4 L750.5,449.2 L751.5,449.2 L753.4,449.0 L755.2,449.0 L756.4,449.0 L757.6,448.8 L759.4,448.8 L760.8,448.8 L762.3,448.5 L764.3,448.5 L767.3,448.5 L768.3,448.5 L770.2,448.3 L771.2,448.3 L773.2,448.3 L774.2,448.3 L776.2,448.3 L777.2,448.3 L779.1,448.3 L781.1,448.3 L783.1,448.3 L784.1,448.3 L786.0,448.3 L787.0,448.5 L790.0,448.5" fill="none" stroke="#ff7f0e" stroke-width="1.7" opacity="0.85"/><circle cx="790" cy="449" r="4.5" fill="#ff7f0e"/><rect x="28" y="128" width="13" height="13" fill="#ff7f0e"/><text x="46" y="139" font-size="12">100%</text><text x="28" y="832" font-size="11" fill="#888">ground track — m from pad (N up)</text></svg>