<svg xmlns="http://www.w3.org/2000/svg" width="840" height="860" font-family="sans-serif" font-size="13"><rect width="840" height="860" fill="white"/><text x="20" y="26" font-size="15" fill="#333">F15 guarded — wind</text><rect x="20" y="40" width="800" height="800" fill="#fbfbfb" stroke="#ddd"/><rect x="82" y="332" width="468" height="101" fill="#cde" stroke="#369" opacity="0.7"/><text x="82" y="327" fill="#369" font-size="12">landing zone</text><circle cx="378" cy="490" r="5" fill="black"/><text x="386" y="494" font-size="12">pad</text><path d="M379.7,489.6 L379.7,489.6 L379.7,489.6 L379.7,489.6 L379.7,489.6 L379.7,489.6 L379.7,489.6 L379.7,489.6 L379.7,489.6 L379.7,489.6 L379.7,489.6 L379.7,489.6 L379.7,489.6 L379.7,489.6 L379.7,489.6 L379.7,489.6 L379.7,489.6 L379.7,489.6 L379.7,489.6 L379.7,489.6 L379.7,489.6 L379.7,489.6 L379.7,489.6 L379.7,489.6 L379.7,489.6 L379.7,489.6 L379.7,489.6 L379.7,489.6 L379.7,489.6 L379.7,489.6 L379.7,489.6 L379.7,489.6 L379.7,489.6 L379.7,489.6 L379.7,489.6 L379.7,489.6 L379.7,489.6 L379.7,489.6 L379.7,489.6 L379.7,489.6 L379.7,489.6 L379.7,489.6 L379.7,489.6 L379.7,489.6 L379.7,489.6 L379.7,489.6 L379.7,489.6 L379.7,489.6 L379.7,489.6 L379.7,489.6 L379.7,489.6 L379.7,489.6 L379.7,489.6 L379.7,489.6 L379.7,489.6 L379.7,489.6 L379.7,489.6 L379.7,489.6 L379.7,489.6 L379.7,489.6 L379.7,489.6 L379.7,489.6 L379.7,489.6 L379.7,489.6 L379.7,489.6 L379.7,489.6 L379.7,489.6 L379.7,489.6 L381.2,488.0 L381.2,485.2 L384.8,480.7 L387.3,477.4 L389.3,475.1 L389.8,471.2 L392.3,468.4 L397.3,464.5 L397.3,462.3 L399.9,459.0 L404.9,456.2 L405.4,453.4 L407.4,451.2 L412.4,447.8 L413.5,445.6 L417.5,442.8 L420.0,440.6 L422.5,438.3 L427.6,435.5 L429.6,433.3 L432.6,430.5 L437.6,428.8 L439.6,427.2 L442.7,424.4 L445.2,422.2 L447.7,418.8 L452.7,417.1 L453.7,414.3 L457.8,411.0 L461.8,408.2 L462.8,404.9 L467.8,401.5 L470.3,398.2 L471.9,395.4 L475.4,392.6 L477.9,388.1 L479.9,385.3 L480.4,382.0 L482.9,378.6 L485.4,374.7 L485.9,371.9 L488.0,368.0 L490.5,364.7 L493.0,360.2 L494.0,356.3 L494.0,352.4 L495.5,349.1 L495.5,345.7 L498.0,341.8 L498.0,337.4 L500.5,332.9 L500.5,329.0 L500.5,325.7 L502.1,321.7 L502.1,317.3 L502.1,312.8 L503.1,308.4 L503.1,305.0 L505.6,301.1 L505.6,296.6 L508.1,293.3 L508.1,290.5 L510.6,285.5 L511.1,281.6 L511.1,278.2 L513.1,274.3 L515.6,270.4 L518.2,266.5 L520.7,262.6 L520.7,259.3 L525.7,256.5 L526.2,253.1 L528.2,249.8 L530.7,246.4 L533.3,244.2 L535.8,240.3 L538.3,236.4 L543.3,233.6 L545.3,231.4 L548.4,228.0 L550.9,225.8 L553.4,223.0 L555.9,221.3 L561.5,218.6 L563.5,215.8 L566.5,213.0 L571.0,210.7 L574.5,208.5 L578.6,206.3 L583.6,204.6 L586.1,202.9 L591.2,201.3 L593.7,199.6 L598.7,199.0 L599.7,197.9 L606.3,196.2 L606.8,195.7 L611.3,194.6 L614.8,193.5 L618.8,192.9 L624.9,192.3 L628.9,191.8 L632.9,191.2 L639.0,190.7 L641.5,190.7 L646.5,190.7 L649.0,190.7 L656.6,190.7 L658.1,191.2 L664.1,191.8 L666.2,192.3 L671.7,192.9 L676.7,194.6 L681.3,195.7 L686.8,196.8 L689.3,197.9 L691.8,199.0 L696.9,199.6 L699.4,201.3 L704.4,202.9 L706.9,204.6 L712.5,208.0 L717.0,210.2 L721.5,211.9 L724.6,214.1 L727.1,216.3 L729.6,218.6 L732.1,220.8 L737.1,223.0 L737.6,225.2 L744.7,230.3 L747.2,233.6 L749.7,236.4 L752.2,238.6 L754.8,242.0 L757.3,245.9 L762.8,248.7 L762.3,251.5 L764.8,254.8 L769.9,260.4 L769.9,263.7 L772.4,267.6 L774.9,270.4 L774.9,273.8 L777.4,277.1 L777.9,280.5 L779.9,284.4 L779.9,287.7 L785.0,295.0 L785.0,300.0 L786.0,302.8 L786.0,307.2 L786.0,310.6 L787.5,314.5 L787.5,318.4 L787.5,322.3 L787.5,325.7 L790.0,332.9 L790.0,337.9 L790.0,341.8 L787.5,345.7 L787.5,349.6 L787.5,354.1 L787.5,357.4 L787.5,361.4 L786.0,365.3 L786.0,371.4 L785.0,375.9 L782.4,380.3 L782.4,383.7 L779.9,387.0 L777.9,390.9 L777.9,394.3 L777.4,397.6 L774.9,401.0 L769.9,407.1 L769.9,409.9 L767.3,413.8 L764.8,418.2 L762.3,421.6 L762.8,424.9 L757.3,427.7 L754.8,430.5 L752.7,433.3 L749.7,438.3 L746.7,440.6 L744.7,443.3 L739.7,446.1 L737.6,448.4 L734.6,451.7 L732.1,453.4 L729.6,455.6 L727.1,457.8 L722.0,460.6 L719.5,462.9 L717.0,464.0 L712.5,465.7 L709.5,467.9 L706.4,469.6 L701.9,471.8 L696.4,473.5 L694.4,475.1 L689.3,476.3 L684.3,477.9 L681.3,479.0 L676.7,480.2 L671.7,481.3 L669.2,482.4 L664.1,483.0 L661.6,483.5 L656.6,484.1 L654.1,484.1 L646.5,484.6 L641.0,484.6 L636.5,484.6 L632.9,484.6 L628.9,484.1 L624.9,483.5 L621.4,483.0 L614.8,482.4 L611.3,481.8 L606.8,480.7 L603.7,479.6 L599.7,477.9 L593.7,476.8 L591.7,475.7 L588.6,474.6 L583.6,472.9 L581.1,471.2 L576.1,469.6 L571.0,467.3 L566.5,465.1 L566.0,464.0 L561.0,461.2 L558.4,458.4 L553.4,456.2 L550.9,453.4 L548.4,451.2 L545.3,448.4 L540.8,445.0 L535.8,441.7 L534.3,439.4 L533.3,436.7 L528.2,433.3 L526.2,430.0 L523.2,427.2 L520.7,424.4 L520.2,421.6 L513.1,416.0 L511.1,412.1 L508.1,408.8 L505.6,406.0 L502.1,403.2 L500.5,401.0 L498.0,397.6 L494.0,395.4 L490.5,392.6 L485.4,387.0 L480.4,384.2 L479.9,382.5 L475.4,380.3 L471.9,377.5 L467.8,375.3 L465.3,373.6 L461.8,371.9 L457.8,370.8 L447.7,366.4 L445.2,365.3 L440.1,363.6 L437.6,362.5 L432.6,361.4 L429.6,360.8 L425.0,360.2 L421.5,359.7 L417.5,359.7 L407.4,358.6 L404.9,358.6 L399.9,359.1 L397.3,359.1 L389.8,359.7 L387.3,359.7 L382.2,360.2 L379.7,360.2 L374.7,361.4 L367.1,363.0 L357.1,364.7 L354.6,366.4 L349.5,366.9 L347.0,367.5 L342.0,368.6 L339.5,369.7 L334.4,370.3 L329.4,371.9 L324.9,372.5 L321.8,373.1 L316.8,373.6" fill="none" stroke="#1f77b4" stroke-width="1.7" opacity="0.85"/><circle cx="317" cy="374" r="4.5" fill="#1f77b4"/><rect x="28" y="48" width="13" height="13" fill="#1f77b4"/><text x="46" y="59" font-size="12">calm</text><path d="M379.7,489.6 L379.7,489.6 L379.7,489.6 L379.7,489.6 L379.7,489.6 L379.7,489.6 L379.7,489.6 L379.7,489.6 L379.7,489.6 L379.7,489.6 L379.7,489.6 L379.7,489.6 L379.7,489.6 L379.7,489.6 L379.7,489.6 L379.7,489.6 L379.7,489.6 L379.7,489.6 L379.7,489.6 L379.7,489.6 L379.7,489.6 L379.7,489.6 L379.7,489.6 L379.7,489.6 L379.7,489.6 L379.7,489.6 L379.7,489.6 L379.7,489.6 L379.7,489.6 L379.7,489.6 L379.7,489.6 L379.7,489.6 L379.7,489.6 L379.7,489.6 L379.7,489.6 L379.7,489.6 L379.7,489.6 L379.7,489.6 L379.7,489.6 L379.7,489.6 L379.7,489.6 L379.7,489.6 L379.7,489.6 L379.7,489.6 L379.7,489.6 L379.7,489.6 L379.7,489.6 L379.7,489.6 L379.7,489.6 L379.7,489.6 L379.7,489.6 L379.7,489.6 L379.7,489.6 L379.7,489.6 L379.7,489.6 L379.7,489.6 L379.7,489.6 L379.7,489.6 L379.7,489.6 L379.7,489.6 L379.7,489.6 L379.7,489.6 L379.7,489.6 L379.7,489.6 L379.7,489.6 L379.7,489.6 L379.7,489.6 L379.7,489.6 L379.7,488.0 L381.2,485.2 L382.2,483.0 L384.8,480.2 L387.3,477.4 L389.3,475.7 L389.8,472.9 L392.3,470.1 L394.8,467.3 L397.3,465.1 L397.3,464.0 L402.4,461.2 L404.9,459.0 L405.4,457.3 L409.9,455.1 L412.4,453.4 L413.5,452.3 L415.0,450.6 L420.0,448.4 L421.5,446.7 L425.0,445.0 L427.6,443.3 L430.1,441.7 L432.6,440.6 L437.6,439.4 L439.6,437.8 L442.7,436.7 L445.2,435.0 L445.7,433.9 L450.2,432.2 L453.7,431.1 L457.8,429.4 L460.3,427.7 L462.8,426.6 L465.3,424.9 L470.3,423.3 L471.9,421.6 L472.9,419.9 L477.9,418.2 L479.9,416.6 L482.9,413.2 L485.4,411.0 L485.9,408.8 L488.0,406.5 L490.5,404.9 L493.0,402.6 L494.0,399.8 L495.5,397.6 L498.0,394.8 L500.5,392.6 L500.5,389.8 L502.1,387.0 L503.1,383.7 L503.1,382.0 L505.6,379.2 L508.1,375.9 L508.1,373.1 L510.6,369.7 L510.6,366.9 L510.6,363.6 L511.1,360.2 L511.1,356.9 L511.1,354.1 L511.1,350.8 L511.1,348.0 L511.1,344.6 L511.1,341.8 L511.1,337.9 L511.1,334.6 L510.6,330.1 L510.6,327.3 L510.6,324.0 L510.6,321.2 L508.1,318.4 L508.1,314.5 L508.1,311.7 L508.1,308.4 L508.1,305.6 L508.1,302.8 L508.1,298.9 L508.1,296.1 L508.1,293.3 L508.1,291.1 L510.6,287.2 L510.6,284.4 L510.6,281.6 L511.1,278.8 L511.1,275.4 L513.1,271.5 L513.1,268.8 L515.6,267.1 L518.2,263.7 L518.2,260.9 L520.2,258.7 L520.7,255.9 L523.2,253.1 L525.7,249.2 L526.2,246.4 L528.2,244.8 L530.7,243.1 L533.3,240.3 L534.3,238.1 L535.8,235.8 L540.8,234.2 L543.3,232.5 L545.3,230.8 L548.4,228.6 L550.9,226.4 L553.4,224.7 L555.9,223.0 L561.5,221.9 L561.0,220.8 L563.5,219.7 L566.5,218.6 L571.0,216.9 L574.5,215.8 L578.6,214.6 L581.1,214.1 L584.6,213.0 L588.6,212.4 L591.2,212.4 L593.7,211.9 L598.7,211.9 L599.7,211.9 L603.7,211.9 L606.8,211.9 L611.3,211.9 L614.8,211.9 L618.8,212.4 L623.9,213.0 L624.9,213.5 L628.9,214.1 L632.9,215.2 L633.9,215.8 L639.0,216.9 L641.5,218.0 L646.5,219.1 L650.1,220.8 L651.6,221.9 L656.6,223.6 L659.1,224.7 L661.6,226.4 L666.2,228.6 L669.2,230.3 L671.7,231.9 L674.2,234.2 L679.3,236.4 L681.3,238.6 L684.3,242.0 L689.3,244.2 L689.3,246.4 L694.4,250.3 L696.4,252.6 L699.4,255.4 L706.4,260.4 L706.9,263.2 L709.5,266.5 L712.5,269.3 L714.5,273.2 L717.0,276.6 L719.5,280.5 L721.5,283.3 L724.6,286.6 L727.1,291.1 L729.6,294.4 L729.6,298.3 L732.1,301.7 L734.6,306.1 L737.1,310.0 L737.6,314.5 L737.6,317.8 L739.7,322.9 L742.2,326.2 L744.7,335.1 L746.7,340.2 L746.7,344.1 L747.2,349.1 L747.2,353.0 L747.2,356.9 L749.7,360.8 L749.7,365.8 L749.7,370.3 L749.7,374.2 L749.7,379.2 L749.7,384.8 L749.7,389.2 L749.7,393.1 L749.7,398.2 L749.7,402.6 L749.7,406.0 L747.2,411.6 L747.2,416.6 L747.2,420.5 L746.7,424.9 L746.7,428.8 L744.7,432.7 L744.7,438.9 L742.2,442.8 L739.7,447.8 L737.6,451.7 L737.1,457.3 L737.1,461.2 L732.1,469.0 L729.6,474.6 L729.6,477.9 L727.1,482.4 L722.0,486.9 L721.5,490.2 L719.5,494.7 L714.5,499.7 L712.5,503.0 L709.5,509.7 L706.4,514.2 L704.4,517.5 L699.4,521.4 L696.9,524.8 L694.4,528.1 L689.3,532.6 L686.8,535.4 L684.3,538.2 L679.3,544.3 L673.2,547.7 L671.7,550.4 L666.2,553.8 L664.1,556.0 L659.1,558.3 L656.6,561.6 L651.6,563.8 L650.1,566.6 L644.0,568.3 L641.0,570.5 L633.9,573.3 L632.9,575.0 L626.4,577.2 L623.9,578.9 L618.8,581.1 L614.8,582.8 L608.8,584.5 L606.3,585.6 L599.7,587.8 L593.7,589.5 L591.2,590.0 L586.1,591.2 L581.1,591.7 L576.1,592.8 L573.5,593.4 L568.5,594.0 L566.0,594.5 L561.0,595.1 L555.9,595.1 L551.4,595.6 L548.4,595.6 L543.3,595.6 L538.3,595.1 L534.3,595.1 L530.7,594.5 L526.2,594.5 L523.2,594.0 L520.2,593.4 L515.6,592.8 L511.1,591.7 L508.1,591.2 L503.1,590.0 L498.0,588.9 L494.0,587.8 L490.5,586.7 L488.0,585.6 L485.4,583.9 L480.4,582.2 L475.4,580.0 L471.9,578.3 L467.8,576.7 L462.8,574.4 L461.8,572.8 L457.8,570.5 L455.2,568.9 L452.7,566.6 L447.7,564.9 L445.7,562.7 L440.1,558.8 L437.6,556.6 L432.6,554.3 L429.6,551.6 L427.6,549.9 L422.5,547.1 L421.5,545.4 L417.5,543.2 L413.5,541.0 L407.4,535.9 L404.9,533.2 L399.9,531.5 L397.3,529.2 L394.8,527.0 L392.3,524.8 L389.3,522.6 L387.3,520.9 L382.2,518.1 L374.7,512.5 L367.1,506.4 L364.6,504.1 L359.6,501.9 L357.1,499.7 L352.0,498.0 L349.5,495.8 L342.0,491.9 L339.5,489.6 L336.9,487.4 L332.9,485.7" fill="none" stroke="#17becf" stroke-width="1.7" opacity="0.85"/><circle cx="333" cy="486" r="4.5" fill="#17becf"/><rect x="28" y="68" width="13" height="13" fill="#17becf"/><text x="46" y="79" font-size="12">3</text><path d="M379.7,489.6 L379.7,489.6 L379.7,489.6 L379.7,489.6 L379.7,489.6 L379.7,489.6 L379.7,489.6 L379.7,489.6 L379.7,489.6 L379.7,489.6 L379.7,489.6 L379.7,489.6 L379.7,489.6 L379.7,489.6 L379.7,489.6 L379.7,489.6 L379.7,489.6 L379.7,489.6 L379.7,489.6 L379.7,489.6 L379.7,489.6 L379.7,489.6 L379.7,489.6 L379.7,489.6 L379.7,489.6 L379.7,489.6 L379.7,489.6 L379.7,489.6 L379.7,489.6 L379.7,489.6 L379.7,489.6 L379.7,489.6 L379.7,489.6 L379.7,489.6 L379.7,489.6 L379.7,489.6 L379.7,489.6 L379.7,489.6 L379.7,489.6 L379.7,489.6 L379.7,489.6 L379.7,489.6 L379.7,489.6 L379.7,489.6 L379.7,489.6 L379.7,489.6 L379.7,489.6 L379.7,489.6 L379.7,489.6 L379.7,489.6 L379.7,489.6 L379.7,489.6 L379.7,489.6 L379.7,489.6 L379.7,489.6 L379.7,489.6 L379.7,489.6 L379.7,489.6 L379.7,489.6 L379.7,489.6 L379.7,489.6 L379.7,489.6 L379.7,489.6 L379.7,489.6 L379.7,489.6 L379.7,489.6 L379.7,489.6 L379.7,489.6 L379.7,489.6 L379.7,488.0 L381.2,486.9 L382.2,484.6 L382.2,482.4 L384.8,480.7 L387.3,479.0 L389.3,477.4 L389.3,475.7 L389.8,474.6 L392.3,472.9 L394.8,471.2 L397.3,470.1 L397.3,468.4 L399.9,467.3 L402.4,465.7 L404.9,464.5 L405.4,464.0 L407.4,462.9 L412.4,461.8 L413.5,461.2 L415.0,460.1 L417.5,459.0 L420.0,457.8 L422.5,456.7 L425.0,456.2 L427.6,455.1 L429.6,454.5 L432.6,453.4 L435.1,452.8 L437.6,452.3 L439.6,451.7 L442.7,451.2 L445.2,450.0 L445.7,449.5 L447.7,448.9 L452.7,447.8 L453.7,447.3 L457.8,446.7 L460.3,445.6 L461.8,445.0 L462.8,444.5 L467.8,443.3 L470.3,442.8 L471.9,442.2 L472.9,441.7 L475.4,440.6 L479.9,440.6 L480.4,439.4 L482.9,438.9 L485.4,437.8 L485.9,437.2 L490.5,436.1 L493.0,435.5 L494.0,434.4 L495.5,433.3 L498.0,432.7 L502.1,431.6 L503.1,430.5 L505.6,429.4 L508.1,428.8 L510.6,427.2 L511.1,425.5 L513.1,424.4 L515.6,422.7 L518.2,421.0 L520.2,419.4 L520.2,418.2 L520.7,416.6 L523.2,413.8 L525.7,411.6 L525.7,409.9 L526.2,407.6 L526.2,406.0 L528.2,403.7 L528.2,401.5 L530.7,399.3 L530.7,397.0 L530.7,394.8 L530.7,392.0 L530.7,389.2 L530.7,386.5 L530.7,384.2 L530.7,382.5 L530.7,380.3 L530.7,377.5 L530.7,374.7 L528.2,371.9 L528.2,369.2 L528.2,366.4 L526.2,363.6 L526.2,361.4 L525.7,358.6 L523.2,356.3 L523.2,353.5 L520.7,351.3 L520.2,348.5 L518.2,346.3 L515.6,344.1 L513.1,341.8 L511.1,339.0 L510.6,336.8 L508.1,334.6 L503.1,332.3 L502.1,329.6 L498.0,326.8 L495.5,325.1 L493.0,322.9 L490.5,320.6 L488.0,318.4 L485.4,315.6 L482.9,313.9 L480.4,311.7 L477.9,308.9 L475.4,305.6 L472.9,303.3 L471.9,301.1 L467.8,298.3 L465.3,296.1 L465.3,293.3 L462.8,291.6 L461.8,288.8 L460.3,286.0 L457.8,282.1 L457.8,279.9 L455.2,277.7 L455.2,274.9 L453.7,272.7 L453.7,269.9 L453.7,268.2 L452.7,265.4 L452.7,263.2 L452.7,260.4 L452.7,258.2 L452.7,255.9 L452.7,253.7 L452.7,251.5 L452.7,248.7 L452.7,246.4 L452.7,244.8 L453.7,242.5 L453.7,239.7 L453.7,238.1 L455.2,235.8 L455.2,234.2 L457.8,232.5 L457.8,230.3 L460.3,228.6 L461.8,226.4 L461.8,224.1 L462.8,223.0 L465.3,221.3 L467.8,218.6 L470.3,216.9 L471.9,215.2 L475.4,213.5 L477.9,212.4 L479.9,211.9 L480.4,210.7 L482.9,209.6 L485.4,208.5 L488.0,207.4 L493.0,206.8 L494.0,205.7 L495.5,205.2 L500.5,205.2 L502.1,204.6 L503.1,204.6 L508.1,204.6 L510.6,204.6 L515.6,204.6 L518.2,204.6 L520.7,205.2 L523.2,205.7 L526.2,206.3 L530.7,206.8 L533.3,208.0 L535.8,208.5 L538.3,209.6 L543.3,210.7 L545.3,211.9 L548.4,213.0 L551.4,214.1 L553.4,215.8 L558.4,217.4 L561.0,219.7 L563.5,221.3 L566.5,223.0 L568.5,224.7 L574.5,228.6 L576.1,230.8 L581.1,233.6 L583.6,235.3 L586.1,238.1 L588.6,240.9 L591.7,243.7 L593.7,245.9 L598.7,249.2 L599.7,252.6 L603.7,255.4 L606.3,258.7 L606.8,262.1 L611.3,266.0 L613.8,268.8 L614.8,272.7 L616.3,276.0 L621.4,280.5 L623.9,283.3 L624.9,287.7 L626.4,291.6 L628.9,295.5 L631.4,300.0 L632.9,304.5 L633.9,308.4 L636.5,313.9 L639.0,317.8 L641.0,322.9 L641.5,326.8 L644.0,334.6 L646.5,339.6 L646.5,344.1 L650.1,349.1 L650.1,353.5 L649.0,359.7 L649.0,364.1 L651.6,369.7 L651.6,373.6 L651.6,383.7 L654.1,389.8 L654.1,394.8 L654.1,399.8 L654.1,404.9 L654.1,409.3 L654.1,416.6 L654.1,420.5 L651.6,426.6 L651.6,435.0 L651.6,440.6 L649.0,445.6 L649.0,451.7 L650.1,456.2 L650.1,462.3 L646.5,466.8 L646.5,472.9 L644.0,477.4 L641.5,483.5 L641.5,488.0 L641.0,493.5 L639.0,498.0 L636.5,504.1 L633.9,509.2 L632.9,513.1 L631.4,519.2 L628.9,523.1 L626.4,528.1 L623.9,533.2 L621.4,539.8 L618.8,544.3 L614.8,549.3 L613.8,553.8 L608.8,558.8 L606.8,563.3 L603.7,568.3 L601.2,572.2 L598.7,577.8 L593.7,581.1 L591.2,586.1 L588.6,590.0 L584.6,595.1 L581.1,599.0 L576.1,602.9 L574.5,606.8 L571.0,610.7 L566.5,614.6 L563.5,618.5 L561.5,623.0 L551.4,629.1 L548.4,633.6 L543.3,636.9 L538.3,640.3 L534.3,644.2 L530.7,646.9 L526.2,649.7 L523.2,653.1 L518.2,656.4 L505.6,662.6 L502.1,665.4 L495.5,668.1 L493.0,669.8 L488.0,672.0 L482.9,673.7 L479.9,675.4 L472.9,677.6 L470.3,679.3 L465.3,681.0 L455.2,682.6 L450.2,684.3 L445.7,685.4 L442.7,686.0 L437.6,687.1 L430.1,687.7 L427.6,688.2 L422.5,688.8 L417.5,689.3 L407.4,689.3 L402.4,689.3 L392.3,688.8 L387.3,688.8 L382.2,688.2 L379.7,687.7 L374.7,687.1 L369.7,686.5 L364.6,685.4 L359.6,684.3 L357.1,683.8 L349.5,683.2" fill="none" stroke="#2ca02c" stroke-width="1.7" opacity="0.85"/><circle cx="350" cy="683" r="4.5" fill="#2ca02c"/><rect x="28" y="88" width="13" height="13" fill="#2ca02c"/><text x="46" y="99" font-size="12">6</text><path d="M379.7,489.6 L379.7,489.6 L379.7,489.6 L379.7,489.6 L379.7,489.6 L379.7,489.6 L379.7,489.6 L379.7,489.6 L379.7,489.6 L379.7,489.6 L379.7,489.6 L379.7,489.6 L379.7,489.6 L379.7,489.6 L379.7,489.6 L379.7,489.6 L379.7,489.6 L379.7,489.6 L379.7,489.6 L379.7,489.6 L379.7,489.6 L379.7,489.6 L379.7,489.6 L379.7,489.6 L379.7,489.6 L379.7,489.6 L379.7,489.6 L379.7,489.6 L379.7,489.6 L379.7,489.6 L379.7,489.6 L379.7,489.6 L379.7,489.6 L379.7,489.6 L379.7,489.6 L379.7,489.6 L379.7,489.6 L379.7,489.6 L379.7,489.6 L379.7,489.6 L379.7,489.6 L379.7,489.6 L379.7,489.6 L379.7,489.6 L379.7,489.6 L379.7,489.6 L379.7,489.6 L379.7,489.6 L379.7,489.6 L379.7,489.6 L379.7,489.6 L379.7,489.6 L379.7,489.6 L379.7,489.6 L379.7,489.6 L379.7,489.6 L379.7,489.6 L379.7,489.6 L379.7,489.6 L379.7,489.6 L379.7,489.6 L379.7,489.6 L379.7,489.6 L379.7,489.6 L379.7,489.6 L379.7,489.6 L379.7,489.6 L379.7,489.6 L379.7,489.1 L381.2,487.4 L381.2,486.9 L381.2,485.7 L382.2,484.1 L382.2,483.0 L384.8,481.8 L387.3,480.7 L387.3,479.6 L389.3,478.5 L389.3,477.4 L389.8,476.3 L392.3,475.7 L392.3,475.1 L394.8,474.0 L397.3,472.9 L397.3,472.4 L397.3,471.2 L399.9,470.7 L402.4,469.6 L402.4,469.0 L404.9,467.9 L405.4,467.3 L407.4,466.2 L409.9,465.7 L409.9,465.1 L412.4,464.0 L413.5,464.0 L415.0,463.4 L415.0,462.3 L417.5,461.8 L420.0,461.2 L421.5,460.1 L422.5,459.5 L422.5,459.0 L425.0,458.4 L427.6,457.3 L429.6,456.7 L429.6,456.2 L430.1,455.1 L432.6,454.5" fill="none" stroke="#bcbd22" stroke-width="1.7" opacity="0.85"/><circle cx="433" cy="455" r="4.5" fill="#bcbd22"/><rect x="28" y="108" width="13" height="13" fill="#bcbd22"/><text x="46" y="119" font-size="12">9</text><path d="M379.7,489.6 L379.7,489.6 L379.7,489.6 L379.7,489.6 L379.7,489.6 L379.7,489.6 L379.7,489.6 L379.7,489.6 L379.7,489.6 L379.7,489.6 L379.7,489.6 L379.7,489.6 L379.7,489.6 L379.7,489.6 L379.7,489.6 L379.7,489.6 L379.7,489.6 L379.7,489.6 L379.7,489.6 L379.7,489.6 L379.7,489.6 L379.7,489.6 L379.7,489.6 L379.7,489.6 L379.7,489.6 L379.7,489.6 L379.7,489.6 L379.7,489.6 L379.7,489.6 L379.7,489.6 L379.7,489.6 L379.7,489.6 L379.7,489.6 L379.7,489.6 L379.7,489.6 L379.7,489.6 L379.7,489.6 L379.7,489.6 L379.7,489.6 L379.7,489.6 L379.7,489.6 L379.7,489.6 L379.7,489.6 L379.7,489.6 L379.7,489.6 L379.7,489.6 L379.7,489.6 L379.7,489.6 L379.7,489.6 L379.7,489.6 L379.7,489.6 L379.7,489.6 L379.7,489.6 L379.7,489.6 L379.7,489.6 L379.7,489.6 L379.7,489.6 L379.7,489.6 L379.7,489.6 L379.7,489.6 L379.7,489.6 L379.7,489.6 L379.7,489.6 L379.7,489.6 L379.7,489.6 L379.7,489.6 L379.7,489.6 L379.7,489.6 L379.7,489.6 L379.7,489.1 L379.7,488.5 L379.7,488.5 L381.2,488.0 L381.2,487.4 L381.2,487.4 L382.2,486.9 L382.2,486.9 L382.2,486.9 L384.8,486.9 L384.8,486.9 L387.3,486.9 L389.3,486.9 L389.3,486.9 L389.8,486.9 L389.8,487.4 L392.3,487.4 L394.8,488.0 L394.8,488.5 L397.3,488.5 L397.3,489.1 L397.3,489.6 L399.9,489.6 L402.4,490.2 L404.9,490.8 L404.9,491.3 L405.4,491.9 L407.4,492.4 L409.9,493.0 L409.9,493.5 L412.4,494.1 L413.5,494.1 L413.5,495.2 L415.0,495.8 L417.5,496.3 L420.0,496.3 L420.0,497.5 L421.5,497.5 L422.5,498.0 L425.0,498.0 L427.6,498.6 L427.6,499.1 L429.6,499.7 L430.1,500.2 L430.1,500.8 L432.6,500.8 L435.1,501.4 L435.1,501.9 L437.6,501.9 L439.6,502.5 L440.1,503.0 L440.1,503.0 L442.7,503.6 L442.7,503.6 L445.2,503.6 L445.7,504.1 L445.7,504.1 L447.7,504.7 L450.2,504.7 L450.2,504.7 L452.7,504.7 L452.7,504.7 L453.7,505.3 L453.7,505.3 L455.2,505.3 L457.8,505.3 L457.8,505.3 L457.8,505.3 L460.3,505.3 L461.8,505.3 L461.8,505.3 L461.8,505.3 L462.8,504.7 L462.8,504.7 L465.3,504.7 L465.3,504.7 L467.8,504.7 L467.8,504.1 L467.8,504.1 L470.3,504.1 L470.3,503.6 L471.9,503.6 L471.9,503.0 L471.9,503.0 L472.9,502.5 L472.9,502.5 L475.4,501.9 L475.4,501.9 L475.4,501.4 L475.4,501.4 L477.9,500.8 L477.9,500.8 L477.9,500.2 L479.9,499.7 L479.9,499.7 L479.9,499.1 L480.4,498.6 L480.4,498.6 L480.4,498.0 L482.9,498.0 L482.9,497.5 L482.9,497.5 L482.9,496.9 L485.4,496.3 L485.4,495.8 L485.4,495.2 L485.4,495.2 L485.9,494.7 L485.9,494.1 L485.9,493.5 L485.9,493.0 L488.0,492.4 L488.0,492.4 L488.0,491.9 L488.0,491.3 L488.0,490.8 L488.0,490.2 L490.5,489.6 L490.5,489.1 L490.5,488.5 L490.5,488.0 L490.5,487.4 L493.0,486.9 L493.0,486.9 L493.0,486.9 L493.0,486.3 L493.0,485.7 L493.0,485.2 L493.0,484.6 L494.0,484.1 L494.0,483.5 L494.0,483.0 L494.0,483.0 L494.0,482.4 L494.0,481.8 L494.0,480.7 L495.5,480.7 L495.5,480.2 L495.5,479.0 L495.5,478.5 L495.5,477.9 L495.5,477.4 L495.5,476.8 L495.5,476.3 L495.5,475.7 L498.0,475.7 L498.0,475.1 L498.0,474.6 L498.0,474.0 L498.0,473.5 L498.0,472.9 L498.0,472.4 L498.0,471.8 L500.5,471.2 L500.5,470.7 L500.5,470.7 L500.5,470.1 L500.5,469.6 L500.5,468.4 L502.1,467.9 L502.1,467.3 L502.1,466.8 L502.1,466.2 L502.1,465.7 L502.1,465.1 L503.1,464.5 L503.1,464.0 L503.1,464.0 L503.1,463.4 L503.1,462.9 L503.1,462.3 L503.1,462.3 L505.6,461.8 L505.6,461.2 L505.6,460.6 L505.6,460.1 L505.6,459.0 L505.6,458.4 L508.1,457.8 L508.1,457.3 L508.1,457.3 L508.1,456.7 L508.1,456.2 L508.1,455.6 L508.1,455.1 L510.6,453.9 L510.6,453.4 L510.6,452.8 L510.6,452.8 L510.6,452.8 L510.6,452.3 L511.1,451.7 L511.1,451.2 L511.1,450.6 L511.1,449.5 L511.1,448.9 L511.1,448.4 L511.1,447.8 L513.1,447.3 L513.1,446.7 L513.1,446.1 L513.1,445.6 L513.1,445.0 L513.1,444.5 L515.6,443.9 L515.6,443.3 L515.6,442.8 L515.6,442.2 L515.6,441.7 L515.6,441.1 L518.2,441.1 L518.2,440.6 L518.2,440.0 L518.2,439.4 L518.2,438.9 L518.2,438.3 L520.2,437.8 L520.2,437.2 L520.2,436.7 L520.2,436.1 L520.2,435.5 L520.2,435.0 L520.2,434.4 L520.7,433.9 L520.7,433.3 L520.7,432.7 L520.7,432.2 L520.7,431.6 L520.7,431.1 L520.7,430.5 L520.7,429.4 L520.7,429.4 L520.7,428.3 L520.7,427.7 L520.7,426.6 L520.7,426.1 L520.2,424.9 L520.2,423.8 L518.2,423.3 L515.6,421.6 L515.6,420.5 L513.1,419.4 L511.1,418.2 L511.1,417.7 L510.6,416.6 L508.1,415.5 L505.6,414.3 L503.1,413.2 L500.5,411.0 L495.5,409.9 L494.0,408.8 L493.0,407.6 L488.0,407.1 L485.9,406.0 L482.9,405.4 L480.4,404.3 L477.9,403.7 L471.9,402.1 L467.8,401.5 L461.8,400.4 L460.3,399.8 L455.2,399.3 L452.7,398.7 L447.7,398.7 L445.7,398.2 L440.1,398.2 L430.1,397.6 L427.6,397.6 L422.5,397.6 L417.5,397.6 L413.5,397.6 L407.4,398.2 L404.9,398.2 L399.9,398.7 L394.8,398.7 L389.8,399.3 L382.2,400.4 L377.2,401.0 L373.2,401.5 L367.1,402.1 L364.6,402.6 L357.1,403.2 L352.0,404.3 L347.0,404.9 L342.0,406.0 L331.9,407.1 L324.9,407.6 L319.3,408.8 L314.3,409.3 L309.3,409.9 L306.7,410.4 L300.7,410.4 L296.7,411.0 L292.6,411.0 L281.6,411.6 L276.5,411.6 L274.0,411.0 L269.0,411.0 L266.5,411.0 L260.4,410.4 L258.9,409.9 L253.9,409.9 L251.4,409.3 L246.3,408.8 L241.3,407.6 L236.3,407.1 L233.7,406.5 L231.2,406.0 L228.2,405.4 L226.2,404.9 L221.2,403.7 L218.6,402.6 L213.6,402.1 L206.1,400.4 L203.0,399.8 L198.5,399.3 L196.0,398.7 L193.5,398.2 L188.4,397.6 L185.9,397.0 L180.9,397.0 L178.4,396.5 L173.3,396.5 L165.8,396.5 L160.7,396.5 L155.7,396.5 L153.2,397.0 L147.7,397.0 L143.1,397.6 L138.1,398.2 L130.5,398.2 L125.5,398.7 L115.4,399.8 L105.4,402.1 L97.8,402.6 L95.3,403.2 L90.3,404.3 L85.2,404.9 L81.2,406.0 L75.2,406.5 L65.1,408.2 L62.6,409.3 L58.1,410.4 L50.0,411.6" fill="none" stroke="#ff7f0e" stroke-width="1.7" opacity="0.85"/><circle cx="50" cy="412" r="4.5" fill="#ff7f0e"/><rect x="28" y="128" width="13" height="13" fill="#ff7f0e"/><text x="46" y="139" font-size="12">12 m/s</text><text x="28" y="832" font-size="11" fill="#888">ground track — m from pad (N up)</text></svg>