<svg xmlns="http://www.w3.org/2000/svg" width="840" height="860" font-family="sans-serif" font-size="13"><rect width="840" height="860" fill="white"/><text x="20" y="26" font-size="15" fill="#333">Coludo flight</text><rect x="20" y="40" width="800" height="800" fill="#fbfbfb" stroke="#ddd"/><rect x="119" y="357" width="446" height="96" fill="#cde" stroke="#369" opacity="0.7"/><text x="119" y="352" fill="#369" font-size="12">landing zone</text><circle cx="401" cy="507" r="5" fill="black"/><text x="409" y="511" font-size="12">pad</text><path d="M402.0,506.3 L402.0,506.3 L402.0,506.3 L402.0,506.3 L402.0,506.3 L402.0,506.3 L402.0,506.3 L402.0,506.3 L402.0,506.3 L402.0,506.3 L402.0,506.3 L402.0,506.3 L402.0,506.3 L402.0,506.3 L402.0,506.3 L402.0,506.3 L402.0,506.3 L402.0,506.3 L402.0,506.3 L402.0,506.3 L402.0,506.3 L402.0,506.3 L402.0,506.3 L402.0,506.3 L402.0,506.3 L402.0,506.3 L402.0,506.3 L402.0,506.3 L402.0,506.3 L402.0,506.3 L402.0,506.3 L402.0,506.3 L402.0,506.3 L402.0,506.3 L402.0,506.3 L402.0,506.3 L402.0,506.3 L402.0,506.3 L402.0,506.3 L402.0,506.3 L402.0,506.3 L402.0,506.3 L402.0,506.3 L402.0,506.3 L402.0,506.3 L402.0,506.3 L402.0,506.3 L402.0,506.3 L402.0,506.3 L402.0,506.3 L402.0,506.3 L402.0,506.3 L402.0,506.3 L402.0,506.3 L402.0,506.3 L402.0,506.3 L402.0,506.3 L402.0,506.3 L402.0,506.3 L402.0,506.3 L402.0,506.3 L402.0,506.3 L402.0,506.3 L402.0,506.3 L402.0,506.3 L402.0,506.3 L402.0,506.3 L402.0,506.3 L402.0,506.3 L402.0,506.3 L402.0,506.3 L402.0,506.3 L403.5,503.7 L404.4,501.6 L406.8,497.8 L409.2,494.7 L411.1,492.0 L411.6,488.8 L414.0,485.6 L416.4,483.0 L418.8,480.3 L421.2,477.7 L426.0,474.5 L426.5,471.8 L428.4,469.7 L433.2,466.5 L434.1,464.4 L438.0,461.2 L440.4,459.6 L442.8,457.0 L445.1,454.9 L449.5,452.7 L452.3,450.6 L457.1,448.5 L459.0,446.4 L459.5,444.8 L464.3,442.1 L466.7,440.0 L469.1,437.9 L472.4,435.8 L473.9,432.6 L478.7,430.4 L480.1,427.3 L483.5,425.1 L485.9,422.0 L489.7,419.3 L490.6,416.1 L493.0,413.5 L495.4,410.3 L497.4,407.6 L500.2,404.4 L502.6,401.3 L503.1,398.1 L505.0,394.9 L507.4,391.7 L507.4,388.5 L509.8,385.3 L510.8,382.2 L512.2,378.4 L512.2,375.3 L514.6,372.1 L517.0,368.4 L517.0,362.5 L518.4,358.8 L518.4,355.6 L519.4,351.4 L519.4,348.7 L519.4,344.5 L521.8,340.8 L521.8,337.6 L524.2,333.9 L524.2,329.6 L526.6,327.0 L526.6,323.2 L527.0,319.5 L529.0,316.3 L529.0,313.2 L531.4,310.0 L533.8,306.8 L535.7,303.6 L536.1,299.9 L538.5,296.7 L540.9,293.5 L541.4,290.9 L543.3,287.2 L545.7,285.0 L548.1,281.3 L550.5,278.7 L552.9,275.5 L555.3,273.4 L559.6,270.7 L560.1,268.0 L562.5,265.4 L565.4,263.3 L567.3,261.1 L572.1,258.5 L574.5,256.4 L576.9,253.7 L579.7,252.7 L584.0,250.0 L586.4,248.4 L588.8,246.3 L593.6,244.7 L597.0,242.6 L598.4,242.0 L603.2,239.9 L605.6,238.9 L610.4,237.3 L612.8,236.2 L617.6,235.1 L620.0,234.1 L624.8,233.0 L627.2,232.5 L629.5,232.0 L635.3,230.9 L636.7,230.4 L643.0,230.4 L643.9,230.4 L650.6,230.4 L651.1,229.8 L659.2,229.8 L658.3,230.4 L665.5,230.4 L666.9,230.4 L672.7,230.9 L674.6,231.4 L679.8,232.0 L681.3,232.5 L687.0,233.5 L688.9,234.6 L691.8,235.7 L696.6,236.7 L699.0,237.8 L703.8,238.9 L706.2,240.4 L711.0,242.0 L712.9,243.1 L715.8,244.7 L718.6,246.3 L722.9,248.4 L725.3,250.5 L727.7,252.7 L732.5,253.7 L734.9,256.4 L737.3,258.5 L742.1,261.1 L742.6,263.3 L746.9,265.4 L749.3,268.0 L751.7,270.7 L754.1,273.4 L756.5,276.0 L758.9,278.7 L761.3,281.8 L763.7,284.5 L766.5,287.7 L766.1,290.3 L770.8,294.1 L773.2,296.2 L773.2,299.9 L775.6,303.1 L775.6,306.3 L778.0,309.4 L780.4,313.2 L780.9,316.3 L782.8,320.1 L782.8,323.2 L785.2,327.0 L787.6,330.1 L787.6,333.9 L788.6,337.6 L788.6,341.3 L788.6,344.5 L790.0,348.7 L790.0,351.4 L790.0,355.6 L790.0,359.3 L790.0,363.0 L790.0,366.2 L790.0,370.5 L790.0,373.7 L790.0,383.7 L790.0,387.5 L788.6,391.2 L788.6,394.9 L788.6,398.1 L787.6,402.3 L787.6,405.5 L785.2,409.2 L782.8,412.4 L782.8,415.6 L780.9,422.0 L780.4,425.7 L778.0,428.3 L775.6,432.0 L773.2,435.2 L773.2,438.4 L770.8,441.1 L768.4,444.8 L766.1,447.4 L766.5,450.6 L761.3,455.4 L757.0,458.6 L756.5,460.7 L751.7,463.9 L751.2,466.5 L749.3,469.2 L744.5,471.3 L742.6,474.0 L739.7,476.1 L737.3,478.7 L732.5,481.9 L727.7,484.6 L727.3,486.2 L722.9,488.8 L718.6,490.4 L715.8,492.5 L713.4,493.1 L711.0,495.2 L706.2,496.3 L703.8,497.8 L696.6,500.5 L694.2,501.6 L689.4,502.6 L687.0,503.7 L682.2,503.7 L679.8,504.7 L675.0,505.3 L672.7,505.8 L667.9,506.3 L665.5,506.9 L658.3,507.4 L653.5,507.4 L650.6,507.4 L646.3,507.4 L643.0,507.4 L639.1,506.9 L635.3,506.9 L631.9,506.3 L627.2,505.8 L618.1,503.7 L615.2,503.2 L611.3,502.1 L608.0,501.0 L603.7,500.0 L600.8,498.9 L597.0,497.3 L596.0,495.7 L591.2,494.1 L587.4,493.1 L581.7,489.9 L579.3,487.8 L574.5,485.6 L574.9,483.5 L569.7,481.9 L565.4,479.8 L564.9,477.7 L560.1,475.0 L559.6,472.4 L555.3,470.3 L550.5,466.0 L548.1,462.8 L545.7,459.6 L543.3,457.5 L540.9,454.3 L538.5,451.7 L536.1,448.5 L535.7,445.8 L531.4,442.7 L526.6,434.7 L524.2,431.5 L521.8,428.3 L519.4,426.2 L517.0,423.0 L514.6,420.4 L512.2,417.2 L509.8,414.5 L507.4,411.9 L500.2,405.5 L497.4,402.3 L495.4,400.2 L490.6,397.5 L489.7,395.4 L485.9,393.8 L481.1,392.2 L478.7,390.1 L476.3,388.0 L466.7,383.7 L464.3,382.7 L457.1,380.0 L452.3,379.0 L447.5,377.9 L445.1,377.4 L440.4,376.3 L438.0,375.8 L430.8,374.2 L426.5,373.7 L423.6,373.1 L418.8,372.6 L416.4,372.6" fill="none" stroke="#1f77b4" stroke-width="1.7" opacity="0.85"/><circle cx="416" cy="373" r="4.5" fill="#1f77b4"/><rect x="28" y="48" width="13" height="13" fill="#1f77b4"/><text x="46" y="59" font-size="12">calm</text><path d="M402.0,506.3 L402.0,506.3 L402.0,506.3 L402.0,506.3 L402.0,506.3 L402.0,506.3 L402.0,506.3 L402.0,506.3 L402.0,506.3 L402.0,506.3 L402.0,506.3 L402.0,506.3 L402.0,506.3 L402.0,506.3 L402.0,506.3 L402.0,506.3 L402.0,506.3 L402.0,506.3 L402.0,506.3 L402.0,506.3 L402.0,506.3 L402.0,506.3 L402.0,506.3 L402.0,506.3 L402.0,506.3 L402.0,506.3 L402.0,506.3 L402.0,506.3 L402.0,506.3 L402.0,506.3 L402.0,506.3 L402.0,506.3 L402.0,506.3 L402.0,506.3 L402.0,506.3 L402.0,506.3 L402.0,506.3 L402.0,506.3 L402.0,506.3 L402.0,506.3 L402.0,506.3 L402.0,506.3 L402.0,506.3 L402.0,506.3 L402.0,506.3 L402.0,506.3 L402.0,506.3 L402.0,506.3 L402.0,506.3 L402.0,506.3 L402.0,506.3 L402.0,506.3 L402.0,506.3 L402.0,506.3 L402.0,506.3 L402.0,506.3 L402.0,506.3 L402.0,506.3 L402.0,506.3 L402.0,506.3 L402.0,506.3 L402.0,506.3 L402.0,506.3 L402.0,506.3 L402.0,506.3 L402.0,506.3 L402.0,506.3 L402.0,506.3 L402.0,506.3 L402.0,506.3 L402.0,506.3 L402.0,506.3 L402.0,506.3 L402.0,506.3 L402.0,506.3 L402.0,506.3 L402.0,506.3 L403.5,504.2 L403.5,502.1 L404.4,499.4 L406.8,496.8 L409.2,494.1 L411.1,492.5 L411.6,489.9 L414.0,487.8 L416.4,486.2 L418.8,483.5 L418.8,481.9 L421.2,479.8 L426.0,478.2 L426.5,476.1 L428.4,474.0 L430.8,472.4 L434.1,470.8 L435.6,468.7 L440.4,467.6 L441.8,465.5 L442.8,463.9 L447.5,462.3 L449.5,461.2 L452.3,459.6 L454.7,458.6 L459.0,457.0 L459.5,455.9 L464.3,454.3 L464.8,453.3 L469.1,451.7 L471.5,450.6 L473.9,449.0 L476.3,448.5 L480.1,446.9 L481.1,445.3 L483.5,443.7 L488.3,441.6 L489.7,440.0 L490.6,438.4 L495.4,436.8 L497.4,434.7 L497.8,433.1 L500.2,430.4 L502.6,428.9 L503.1,426.7 L505.0,424.6 L507.4,422.0 L509.8,419.8 L510.8,417.2 L512.2,415.1 L514.6,412.4 L514.6,409.7 L517.0,407.1 L518.4,405.0 L519.4,400.7 L519.4,397.5 L521.8,394.9 L521.8,392.2 L521.8,389.6 L524.2,386.4 L524.2,383.7 L524.2,381.1 L524.2,378.4 L526.6,374.7 L526.6,372.6 L526.6,369.4 L526.6,366.2 L524.2,363.0 L524.2,360.4 L524.2,357.2 L524.2,354.6 L524.2,350.8 L521.8,348.7 L521.8,345.5 L521.8,342.3 L521.8,339.7 L519.4,336.5 L519.4,333.3 L519.4,330.1 L519.4,327.5 L519.4,324.8 L519.4,321.1 L519.4,318.5 L521.8,313.2 L521.8,310.0 L524.2,307.3 L524.2,304.7 L524.2,301.5 L526.6,298.8 L526.6,296.2 L527.0,294.1 L529.0,290.9 L529.0,288.2 L531.4,286.1 L533.8,283.4 L535.7,281.3 L535.7,278.7 L536.1,276.0 L538.5,273.9 L540.9,271.8 L541.4,269.6 L543.3,267.5 L548.1,265.4 L549.1,263.3 L550.5,261.7 L552.9,260.1 L557.7,258.0 L559.6,256.4 L560.1,254.2 L562.5,252.7 L565.4,251.6 L567.3,250.5 L572.1,248.9 L574.9,247.9 L576.9,246.8 L579.3,245.2 L581.7,244.7 L586.4,243.6 L587.4,242.6 L591.2,242.0 L593.6,242.0 L597.0,241.0 L600.8,241.0 L603.7,240.4 L605.6,240.4 L610.4,239.9 L612.8,239.9 L617.6,239.9 L620.0,240.4 L622.4,240.4 L625.7,241.0 L629.5,241.5 L635.3,242.0 L639.1,243.1 L643.0,243.6 L646.3,244.7 L648.7,245.8 L651.1,246.8 L655.9,248.4 L658.3,250.0 L663.1,251.6 L665.5,252.7 L667.9,254.2 L672.7,255.8 L674.6,258.0 L677.4,259.6 L681.3,261.7 L682.2,263.3 L687.0,265.9 L688.9,268.0 L691.8,270.7 L696.6,272.8 L696.6,274.9 L701.4,277.6 L703.8,280.3 L706.2,283.4 L708.6,285.6 L711.0,288.7 L713.4,291.9 L715.8,295.1 L718.2,297.8 L720.6,301.5 L722.9,304.7 L725.3,307.9 L727.3,311.6 L727.7,315.8 L730.1,318.5 L732.5,322.7 L734.9,325.9 L734.9,329.6 L737.3,333.3 L742.1,342.9 L742.6,347.7 L744.5,350.8 L744.5,355.6 L746.9,359.3 L746.9,363.6 L749.3,367.3 L749.3,372.1 L751.2,375.8 L751.2,380.6 L751.2,386.9 L751.7,392.2 L751.7,396.5 L751.7,400.7 L751.7,405.5 L751.7,409.2 L751.7,414.0 L751.7,417.7 L751.7,422.5 L751.2,433.6 L751.2,438.4 L749.3,443.2 L749.3,447.4 L746.9,451.7 L746.9,455.9 L744.5,460.2 L742.6,463.9 L742.6,469.2 L742.1,472.4 L737.3,480.3 L737.3,484.0 L734.9,488.3 L734.9,492.5 L730.1,496.3 L727.7,500.0 L727.3,504.2 L725.3,507.9 L722.9,512.2 L720.6,515.4 L715.8,522.3 L713.4,525.4 L711.0,529.7 L708.6,532.9 L703.3,536.1 L701.4,540.3 L699.0,543.5 L696.6,547.2 L694.2,549.3 L684.6,558.4 L681.3,561.0 L677.4,563.7 L674.6,566.8 L672.7,569.0 L667.9,571.6 L665.5,574.3 L660.7,576.4 L659.2,579.0 L653.5,581.2 L646.3,584.9 L643.0,587.5 L639.1,589.1 L635.3,591.3 L631.9,592.3 L625.7,594.4 L622.4,596.0 L618.1,597.6 L615.2,599.2 L611.3,600.8 L603.7,601.9 L600.8,603.5 L596.0,604.5 L591.2,605.1 L587.4,606.1 L584.0,606.6 L579.7,607.2 L574.5,607.7 L572.1,608.2 L567.3,608.8 L560.1,608.8 L557.7,608.8 L550.5,608.8 L548.1,608.8 L543.3,608.8 L540.9,608.2 L536.1,607.7 L531.4,607.2 L529.0,606.6 L526.6,606.1 L518.4,604.5 L514.6,604.0 L509.8,602.9 L507.4,601.9 L502.6,601.3 L500.2,600.3 L497.4,598.7 L490.6,597.6 L489.7,596.6 L478.7,592.8 L473.9,591.3 L472.4,590.2 L469.1,588.6 L464.8,587.5 L461.9,585.4 L459.0,584.4 L454.7,582.2 L452.3,580.6 L442.8,576.9 L440.4,574.8 L435.6,573.2 L433.2,571.1 L426.5,567.9 L423.6,565.8 L421.2,564.2 L418.8,562.1 L411.6,558.9 L409.2,557.3 L404.4,555.7 L402.0,553.6 L399.6,552.0 L395.8,550.4" fill="none" stroke="#17becf" stroke-width="1.7" opacity="0.85"/><circle cx="396" cy="550" r="4.5" fill="#17becf"/><rect x="28" y="68" width="13" height="13" fill="#17becf"/><text x="46" y="79" font-size="12">3</text><path d="M402.0,506.3 L402.0,506.3 L402.0,506.3 L402.0,506.3 L402.0,506.3 L402.0,506.3 L402.0,506.3 L402.0,506.3 L402.0,506.3 L402.0,506.3 L402.0,506.3 L402.0,506.3 L402.0,506.3 L402.0,506.3 L402.0,506.3 L402.0,506.3 L402.0,506.3 L402.0,506.3 L402.0,506.3 L402.0,506.3 L402.0,506.3 L402.0,506.3 L402.0,506.3 L402.0,506.3 L402.0,506.3 L402.0,506.3 L402.0,506.3 L402.0,506.3 L402.0,506.3 L402.0,506.3 L402.0,506.3 L402.0,506.3 L402.0,506.3 L402.0,506.3 L402.0,506.3 L402.0,506.3 L402.0,506.3 L402.0,506.3 L402.0,506.3 L402.0,506.3 L402.0,506.3 L402.0,506.3 L402.0,506.3 L402.0,506.3 L402.0,506.3 L402.0,506.3 L402.0,506.3 L402.0,506.3 L402.0,506.3 L402.0,506.3 L402.0,506.3 L402.0,506.3 L402.0,506.3 L402.0,506.3 L402.0,506.3 L402.0,506.3 L402.0,506.3 L402.0,506.3 L402.0,506.3 L402.0,506.3 L402.0,506.3 L402.0,506.3 L402.0,506.3 L402.0,506.3 L402.0,506.3 L402.0,506.3 L402.0,506.3 L402.0,506.3 L402.0,506.3 L402.0,506.3 L402.0,506.3 L402.0,506.3 L402.0,506.3 L402.0,506.3 L402.0,506.3 L402.0,505.8 L403.5,503.7 L403.5,502.6 L404.4,500.5 L406.8,498.9 L406.8,497.3 L409.2,495.7 L411.1,494.1 L411.6,493.1 L411.6,491.5 L414.0,489.9 L416.4,488.8 L418.8,487.2 L418.8,486.2 L421.2,485.1 L423.6,484.0 L426.0,483.0 L428.4,481.9 L430.8,480.9 L433.2,479.8 L434.1,479.3 L435.6,478.2 L438.0,477.2 L441.8,476.6 L442.8,475.6 L445.1,475.0 L447.5,474.0 L449.5,473.4 L452.3,472.4 L454.7,471.8 L457.1,471.3 L459.0,470.8 L461.9,470.3 L464.3,469.7 L464.8,468.7 L466.7,468.1 L471.5,467.6 L472.4,467.1 L473.9,466.0 L476.3,465.5 L480.1,464.9 L481.1,463.9 L483.5,463.4 L488.3,462.8 L489.7,462.3 L490.6,461.2 L493.0,460.7 L495.4,460.2 L497.8,459.6 L500.2,459.1 L502.6,458.0 L503.1,457.5 L507.4,456.5 L509.8,455.9 L510.8,454.9 L512.2,454.3 L517.0,452.7 L518.4,451.7 L519.4,450.6 L521.8,449.6 L524.2,449.0 L526.6,448.0 L527.0,446.4 L529.0,445.3 L531.4,443.7 L533.8,442.1 L535.7,440.5 L536.1,438.9 L536.1,437.9 L538.5,436.3 L540.9,434.2 L540.9,432.6 L541.4,430.4 L541.4,428.9 L543.3,426.7 L543.3,425.1 L545.7,423.0 L545.7,420.9 L545.7,418.8 L545.7,416.6 L548.1,414.5 L548.1,412.9 L548.1,410.3 L548.1,408.2 L548.1,405.5 L548.1,403.9 L545.7,401.3 L545.7,399.1 L545.7,396.5 L545.7,394.9 L543.3,392.2 L543.3,390.1 L541.4,387.5 L541.4,385.3 L540.9,383.2 L540.9,381.1 L538.5,378.4 L536.1,376.3 L535.7,373.7 L535.7,372.1 L533.8,369.4 L531.4,367.3 L529.0,364.6 L527.0,363.0 L526.6,361.5 L521.8,358.8 L519.4,357.2 L518.4,355.1 L517.0,353.0 L512.2,350.8 L510.8,349.8 L507.4,347.1 L505.0,345.5 L503.1,343.4 L500.2,341.8 L497.8,339.7 L497.4,338.1 L493.0,336.0 L490.6,334.4 L488.3,332.3 L485.9,330.1 L483.5,328.5 L481.1,327.0 L478.7,324.3 L476.3,322.7 L473.9,320.6 L472.4,317.9 L471.5,316.9 L469.1,314.2 L466.7,312.1 L464.8,309.4 L464.3,307.9 L461.9,305.7 L459.5,303.6 L459.5,301.0 L459.0,298.8 L457.1,296.2 L457.1,294.6 L454.7,291.9 L452.3,289.8 L452.3,287.7 L452.3,285.6 L449.9,282.9 L449.9,280.3 L449.9,278.1 L449.5,275.5 L449.5,273.9 L449.5,271.2 L449.5,269.1 L449.5,267.0 L449.5,264.9 L449.5,262.7 L449.9,260.6 L449.9,258.5 L449.9,256.4 L449.9,253.7 L452.3,252.7 L452.3,250.5 L454.7,248.4 L454.7,246.3 L457.1,244.7 L457.1,242.6 L459.0,241.5 L459.5,239.4 L459.5,237.8 L461.9,235.7 L464.8,233.5 L466.7,232.0 L469.1,230.4 L471.5,229.8 L472.4,228.8 L473.9,227.2 L476.3,226.1 L478.7,225.1 L480.1,224.5 L481.1,223.5 L485.9,222.4 L489.7,221.9 L490.6,221.3 L493.0,220.8 L497.4,220.3 L497.8,220.3 L500.2,220.3 L503.1,220.3 L505.0,220.3 L509.8,220.3 L512.2,220.8 L517.0,221.3 L518.4,221.3 L521.8,222.4 L524.2,222.9 L527.0,224.0 L531.4,224.5 L533.8,225.6 L536.1,226.6 L543.3,230.4 L548.1,231.4 L549.1,233.0 L552.9,235.1 L555.3,236.7 L559.6,238.9 L560.1,240.4 L564.9,242.0 L565.4,244.2 L569.7,246.3 L574.5,250.5 L576.9,253.2 L579.7,255.3 L581.7,258.5 L584.0,261.1 L587.4,263.8 L588.8,266.5 L593.6,269.6 L596.0,272.8 L597.0,275.5 L603.2,281.3 L603.7,285.0 L605.6,287.7 L608.0,291.9 L610.4,295.1 L612.8,298.8 L615.2,302.5 L617.6,306.8 L618.1,310.0 L620.0,314.7 L624.8,321.6 L624.8,325.9 L625.7,330.1 L627.2,334.4 L629.5,338.1 L629.5,342.9 L631.9,347.1 L634.3,351.4 L634.3,356.1 L635.3,360.9 L636.7,369.4 L636.7,373.7 L636.7,379.0 L639.1,383.2 L639.1,387.5 L639.1,392.8 L639.1,397.0 L639.1,402.8 L639.1,407.1 L639.1,412.4 L639.1,421.4 L639.1,426.7 L639.1,431.5 L639.1,437.3 L636.7,441.6 L636.7,447.4 L636.7,451.7 L635.3,457.5 L635.3,461.8 L634.3,467.1 L631.9,475.6 L629.5,480.9 L629.5,485.1 L627.2,490.9 L625.7,495.2 L624.8,501.0 L622.4,504.7 L620.0,510.6 L618.1,514.8 L617.6,520.1 L612.8,528.6 L611.3,533.4 L608.0,538.2 L605.6,542.4 L603.2,547.7 L600.8,551.5 L597.0,556.8 L596.0,561.0 L591.2,565.3 L584.0,576.9 L579.7,581.2 L576.9,584.9 L574.9,589.1 L569.7,592.3 L565.4,596.6 L562.5,600.3 L559.6,603.5 L555.3,607.2 L543.3,615.7 L540.9,619.4 L536.1,622.6 L531.4,624.7 L527.0,627.9 L524.2,630.5 L518.4,633.2 L514.6,634.8 L510.8,637.4 L497.8,643.3 L485.9,648.0 L481.1,649.1 L476.3,650.7 L472.4,651.8 L466.7,653.4 L464.3,654.4 L459.0,655.5 L454.7,657.1 L449.5,657.6 L442.8,658.7 L440.4,659.7" fill="none" stroke="#2ca02c" stroke-width="1.7" opacity="0.85"/><circle cx="440" cy="660" r="4.5" fill="#2ca02c"/><rect x="28" y="88" width="13" height="13" fill="#2ca02c"/><text x="46" y="99" font-size="12">6</text><path d="M402.0,506.3 L402.0,506.3 L402.0,506.3 L402.0,506.3 L402.0,506.3 L402.0,506.3 L402.0,506.3 L402.0,506.3 L402.0,506.3 L402.0,506.3 L402.0,506.3 L402.0,506.3 L402.0,506.3 L402.0,506.3 L402.0,506.3 L402.0,506.3 L402.0,506.3 L402.0,506.3 L402.0,506.3 L402.0,506.3 L402.0,506.3 L402.0,506.3 L402.0,506.3 L402.0,506.3 L402.0,506.3 L402.0,506.3 L402.0,506.3 L402.0,506.3 L402.0,506.3 L402.0,506.3 L402.0,506.3 L402.0,506.3 L402.0,506.3 L402.0,506.3 L402.0,506.3 L402.0,506.3 L402.0,506.3 L402.0,506.3 L402.0,506.3 L402.0,506.3 L402.0,506.3 L402.0,506.3 L402.0,506.3 L402.0,506.3 L402.0,506.3 L402.0,506.3 L402.0,506.3 L402.0,506.3 L402.0,506.3 L402.0,506.3 L402.0,506.3 L402.0,506.3 L402.0,506.3 L402.0,506.3 L402.0,506.3 L402.0,506.3 L402.0,506.3 L402.0,506.3 L402.0,506.3 L402.0,506.3 L402.0,506.3 L402.0,506.3 L402.0,506.3 L402.0,506.3 L402.0,506.3 L402.0,506.3 L402.0,506.3 L402.0,506.3 L402.0,506.3 L402.0,506.3 L402.0,506.3 L402.0,506.3 L402.0,505.3 L403.5,504.2 L403.5,503.2 L404.4,502.1 L404.4,501.0 L406.8,500.5 L406.8,499.4 L409.2,498.4 L409.2,497.3 L411.1,496.8 L411.6,496.3 L411.6,495.7 L414.0,494.7 L416.4,494.1 L418.8,493.6 L418.8,493.6 L421.2,493.1 L423.6,493.1 L423.6,493.1 L426.0,492.5 L426.5,492.5 L428.4,492.0 L430.8,492.0 L433.2,491.5 L434.1,491.5 L435.6,490.9 L438.0,490.9 L440.4,490.9 L441.8,490.9 L442.8,490.4 L445.1,490.4 L447.5,490.4 L449.5,489.9 L449.9,489.9 L452.3,489.9 L454.7,489.9 L457.1,489.4 L459.0,489.4 L459.5,489.4 L461.9,489.4 L464.3,488.8 L464.8,488.8 L466.7,488.8 L466.7,488.3 L469.1,488.3 L471.5,487.8 L472.4,487.8 L473.9,487.2 L476.3,487.2 L478.7,486.7 L480.1,486.7 L481.1,486.2 L483.5,485.6 L485.9,485.6 L488.3,485.1 L489.7,484.6 L490.6,484.0 L493.0,484.0 L493.0,483.5 L497.4,482.5 L497.8,481.9 L500.2,481.9 L500.2,481.4 L502.6,480.9 L503.1,480.3 L505.0,479.8 L507.4,479.3 L507.4,478.2 L509.8,477.7 L510.8,477.2 L510.8,476.6 L512.2,475.6 L514.6,475.0 L514.6,474.5 L517.0,473.4 L518.4,472.9 L518.4,471.8 L519.4,471.3 L521.8,470.8 L521.8,470.3 L524.2,469.2 L526.6,468.1 L526.6,467.6 L527.0,466.5 L527.0,465.5 L529.0,464.4 L529.0,463.9 L531.4,462.8 L531.4,461.8 L533.8,460.7 L533.8,459.6 L535.7,459.1 L535.7,458.0 L536.1,457.0 L536.1,455.9 L536.1,454.9 L538.5,453.8 L538.5,452.7 L540.9,451.1 L540.9,450.1 L540.9,449.0 L541.4,448.5 L541.4,446.9 L541.4,445.8 L541.4,444.2 L543.3,443.2 L543.3,441.6 L543.3,440.0 L543.3,438.4 L543.3,437.3 L543.3,436.3 L541.4,434.2 L541.4,433.1 L541.4,431.0 L541.4,429.4 L540.9,427.8 L540.9,426.7 L538.5,425.1 L538.5,423.5 L536.1,421.4 L536.1,419.8 L535.7,418.2 L533.8,416.6 L531.4,415.1 L531.4,414.0 L529.0,411.9 L527.0,410.3 L526.6,408.7 L524.2,407.1 L519.4,405.5 L518.4,404.4 L517.0,403.4 L514.6,401.3 L510.8,400.2 L509.8,398.6 L507.4,397.5 L503.1,396.0 L502.6,394.9 L497.8,393.8 L495.4,392.8 L493.0,391.2 L489.7,390.1 L485.9,389.1 L483.5,388.0 L480.1,386.9 L476.3,386.4 L472.4,385.3 L469.1,384.8 L464.8,383.7 L461.9,383.2 L459.0,383.2 L454.7,382.7 L449.9,382.2 L447.5,382.2 L441.8,381.6 L438.0,381.6 L434.1,381.6 L430.8,381.6 L426.0,381.6 L421.2,381.6 L418.8,381.6 L411.6,382.2 L406.8,382.7 L403.5,383.2 L397.2,383.2 L394.9,383.7 L388.1,384.8 L385.3,385.3 L372.8,388.0 L366.1,389.6 L363.7,390.6 L357.5,392.2 L354.1,393.8 L349.4,394.9 L342.2,396.5 L337.4,398.6 L334.5,400.2 L327.8,402.3 L320.6,405.5 L315.8,408.2 L311.0,410.3 L306.2,412.9 L301.5,415.1 L296.2,416.6 L289.5,419.3 L287.1,421.4 L280.9,424.1 L277.5,426.2 L267.9,429.4 L263.1,431.0 L258.3,433.1 L253.6,434.7 L248.8,436.8 L244.0,438.4 L239.2,439.5 L234.4,440.5 L229.6,442.1 L224.8,443.2 L217.6,445.3 L211.9,445.8 L208.1,446.9 L202.3,447.4 L198.5,448.5 L193.7,449.0 L188.9,449.0 L184.1,449.0 L181.2,449.6 L176.9,449.6 L167.3,450.1 L164.0,450.1 L160.2,449.6 L156.3,449.6 L150.6,449.0 L148.2,449.0 L143.4,449.0 L141.0,448.5 L136.2,448.0 L132.4,447.4 L124.7,445.8 L121.8,445.3 L119.4,444.2 L117.1,443.2 L112.3,442.7 L109.9,441.6 L105.1,440.5 L102.7,438.9 L100.3,438.4 L95.5,437.3 L93.1,435.2 L88.3,433.6 L85.9,432.0 L83.5,431.0 L81.1,429.4 L78.7,427.8 L76.3,426.7 L73.9,425.7 L72.0,424.1 L66.8,419.3 L64.4,417.7 L64.4,416.1 L62.0,415.1 L62.0,413.5 L59.6,411.3 L57.2,409.7 L57.2,408.2 L56.7,406.6 L54.8,405.0 L54.8,402.3 L52.4,400.7 L52.4,398.6 L52.4,397.5 L52.4,395.4 L50.0,394.9 L50.0,392.8 L50.0,391.7 L50.0,390.1 L50.0,388.5 L50.0,385.9 L52.4,384.3 L52.4,383.2 L52.4,382.7 L52.4,381.1 L54.8,380.0 L54.8,379.0 L56.7,377.9 L56.7,376.8 L57.2,375.8 L59.6,374.2 L59.6,373.7 L62.0,372.6 L64.4,372.6 L64.4,372.1 L64.4,371.0 L66.8,370.5 L69.2,369.9 L71.6,369.9 L72.0,369.4 L73.9,369.4 L76.3,369.4 L78.7,369.4 L81.1,369.4 L83.5,369.9 L85.9,370.5 L86.4,371.0 L88.3,371.5 L90.7,372.1 L97.9,374.7 L100.3,375.8 L102.7,377.4 L105.1,379.0 L107.5,380.6 L110.3,382.7 L112.3,384.3 L114.7,385.9 L118.0,388.5 L124.2,394.9 L131.4,401.8 L133.8,404.4 L136.2,406.6 L138.6,409.2 L142.9,412.4 L143.4,415.1 L148.2,417.2 L148.7,420.4 L153.0,423.5 L155.4,425.7 L156.3,428.3" fill="none" stroke="#bcbd22" stroke-width="1.7" opacity="0.85"/><circle cx="156" cy="428" r="4.5" fill="#bcbd22"/><rect x="28" y="108" width="13" height="13" fill="#bcbd22"/><text x="46" y="119" font-size="12">9</text><path d="M402.0,506.3 L402.0,506.3 L402.0,506.3 L402.0,506.3 L402.0,506.3 L402.0,506.3 L402.0,506.3 L402.0,506.3 L402.0,506.3 L402.0,506.3 L402.0,506.3 L402.0,506.3 L402.0,506.3 L402.0,506.3 L402.0,506.3 L402.0,506.3 L402.0,506.3 L402.0,506.3 L402.0,506.3 L402.0,506.3 L402.0,506.3 L402.0,506.3 L402.0,506.3 L402.0,506.3 L402.0,506.3 L402.0,506.3 L402.0,506.3 L402.0,506.3 L402.0,506.3 L402.0,506.3 L402.0,506.3 L402.0,506.3 L402.0,506.3 L402.0,506.3 L402.0,506.3 L402.0,506.3 L402.0,506.3 L402.0,506.3 L402.0,506.3 L402.0,506.3 L402.0,506.3 L402.0,506.3 L402.0,506.3 L402.0,506.3 L402.0,506.3 L402.0,506.3 L402.0,506.3 L402.0,506.3 L402.0,506.3 L402.0,506.3 L402.0,506.3 L402.0,506.3 L402.0,506.3 L402.0,506.3 L402.0,506.3 L402.0,506.3 L402.0,506.3 L402.0,506.3 L402.0,506.3 L402.0,506.3 L402.0,506.3 L402.0,506.3 L402.0,506.3 L402.0,506.3 L402.0,506.3 L402.0,506.3 L402.0,506.3 L402.0,506.3 L402.0,506.3 L402.0,506.3 L402.0,506.3 L402.0,506.3 L402.0,506.3 L402.0,505.8 L402.0,505.3 L403.5,504.7 L403.5,504.2 L403.5,504.2 L403.5,503.7 L404.4,503.7 L404.4,503.7 L406.8,503.7 L406.8,503.7 L409.2,503.7 L409.2,503.7 L411.1,503.7 L411.1,503.7 L411.6,504.2 L411.6,504.2 L414.0,504.7 L416.4,504.7 L416.4,505.3 L418.8,505.8 L418.8,505.8 L418.8,506.3 L421.2,506.9 L423.6,507.4 L426.0,507.9 L426.0,507.9 L426.5,508.5 L428.4,509.0 L430.8,509.5 L430.8,510.1 L433.2,510.6 L434.1,511.1 L434.1,511.6 L435.6,512.2 L438.0,512.7 L440.4,513.2 L440.4,513.8 L441.8,514.3 L442.8,514.3 L442.8,514.3 L445.1,514.8 L447.5,515.4 L447.5,515.4 L449.5,515.9 L449.9,516.4 L452.3,516.4 L452.3,517.0 L454.7,517.5 L457.1,517.5 L457.1,518.0 L459.0,518.0 L459.5,518.5 L459.5,518.5 L461.9,519.1 L461.9,519.1 L464.3,519.1 L464.8,519.6 L464.8,519.6 L466.7,519.6 L469.1,520.1 L469.1,520.1 L471.5,520.1 L471.5,520.1 L472.4,520.1 L472.4,520.1 L473.9,520.1 L473.9,520.1 L476.3,520.1 L476.3,520.1 L478.7,520.1 L478.7,520.1 L480.1,520.1 L480.1,520.1 L480.1,520.1 L481.1,519.6 L481.1,519.6 L483.5,519.6 L483.5,519.6 L483.5,519.1 L485.9,519.1 L485.9,518.5 L485.9,518.5 L488.3,518.5 L488.3,518.0 L489.7,518.0 L489.7,517.5 L489.7,517.5 L489.7,517.0 L490.6,517.0 L490.6,516.4 L490.6,516.4 L493.0,515.9 L493.0,515.9 L493.0,515.4 L495.4,515.4 L495.4,514.8 L495.4,514.3 L495.4,514.3 L497.4,514.3 L497.4,514.3 L497.4,513.8 L497.4,513.2 L497.8,513.2 L497.8,512.7 L497.8,512.2 L497.8,511.6 L500.2,511.6 L500.2,511.1 L500.2,510.6 L500.2,510.6 L500.2,510.1 L502.6,509.5 L502.6,509.0 L502.6,509.0 L502.6,508.5 L503.1,507.9 L503.1,507.4 L503.1,507.4 L503.1,506.9 L503.1,506.3 L505.0,505.8 L505.0,505.8 L505.0,505.3 L505.0,504.7 L505.0,504.2 L505.0,503.7 L507.4,503.7 L507.4,503.2 L507.4,503.2 L507.4,502.6 L507.4,502.1 L507.4,501.6 L507.4,501.0 L509.8,500.5 L509.8,500.0 L509.8,499.4 L509.8,498.9 L509.8,497.8 L509.8,497.8 L509.8,497.3 L510.8,496.8 L510.8,496.3 L510.8,495.7 L510.8,495.2 L510.8,494.7 L510.8,494.1 L510.8,493.6 L512.2,493.1 L512.2,493.1 L512.2,493.1 L512.2,492.5 L512.2,492.0 L512.2,491.5 L514.6,490.9 L514.6,490.4 L514.6,490.4 L514.6,489.9 L514.6,488.8 L517.0,488.3 L517.0,488.3 L517.0,487.8 L517.0,487.2 L517.0,486.7 L517.0,486.2 L518.4,485.6 L518.4,485.1 L518.4,485.1 L518.4,484.0 L518.4,483.5 L518.4,483.0 L518.4,482.5 L518.4,481.9 L519.4,481.9 L519.4,481.4 L519.4,480.9 L519.4,480.3 L519.4,479.8 L519.4,478.7 L519.4,478.2 L519.4,477.7 L519.4,477.2 L521.8,476.6 L521.8,476.1 L521.8,475.6 L521.8,475.0 L521.8,474.5 L521.8,474.0 L521.8,473.4 L521.8,472.9 L524.2,472.4 L524.2,471.8 L524.2,471.3 L524.2,471.3 L524.2,470.8 L524.2,470.3 L524.2,470.3 L526.6,469.7 L526.6,468.7 L526.6,468.1 L526.6,467.6 L526.6,467.1 L526.6,467.1 L527.0,466.5 L527.0,466.0 L527.0,465.5 L527.0,464.9 L527.0,464.4 L527.0,463.4 L529.0,463.4 L529.0,462.8 L529.0,462.3 L529.0,461.8 L529.0,461.2 L529.0,460.7 L529.0,460.2 L531.4,460.2 L531.4,459.6 L531.4,459.1 L531.4,459.1 L533.8,458.6 L533.8,458.0 L533.8,457.5 L533.8,457.0 L533.8,456.5 L533.8,456.5 L535.7,455.9 L535.7,455.4 L535.7,454.3 L535.7,453.8 L535.7,453.3 L535.7,452.7 L535.7,452.7 L536.1,451.7 L536.1,451.7 L536.1,451.1 L536.1,450.6 L536.1,450.1 L536.1,449.0 L536.1,448.5 L536.1,448.0 L535.7,446.9 L535.7,446.4 L535.7,445.3 L533.8,444.2 L533.8,443.7 L533.8,442.7 L531.4,441.6 L529.0,440.0 L527.0,438.9 L527.0,438.4 L526.6,437.3 L524.2,436.3 L521.8,435.8 L519.4,434.7 L518.4,433.6 L517.0,432.6 L514.6,431.5 L510.8,429.9 L509.8,429.4 L505.0,428.3 L503.1,427.3 L500.2,426.7 L497.8,426.2 L495.4,425.1 L493.0,424.6 L489.7,424.1 L488.3,423.5 L481.1,422.0 L478.7,421.4 L473.9,420.9 L471.5,420.4 L466.7,420.4 L464.3,419.8 L459.5,419.8 L457.1,419.3 L452.3,419.3 L449.5,419.3 L441.8,419.3 L438.0,419.3 L433.2,419.3 L428.4,419.3 L423.6,419.8 L418.8,420.4 L416.4,420.9 L411.1,420.9 L406.8,422.0 L402.0,422.5 L394.9,423.5 L388.1,424.6 L385.3,425.1 L380.5,426.2 L373.3,426.7 L370.9,427.8 L365.2,428.9 L358.9,429.9 L356.5,430.4 L349.8,431.5 L342.2,433.6 L337.4,434.7 L332.6,435.8 L326.8,436.8 L323.0,437.3 L318.2,438.4 L313.4,438.9 L308.6,440.0 L301.9,440.5 L291.9,442.7 L287.1,443.2 L280.9,443.7 L277.5,444.2 L272.2,445.3 L267.9,445.8 L263.1,446.4 L258.3,446.9 L253.6,447.4 L242.5,448.5 L236.8,449.0 L233.9,449.0 L227.2,449.0 L224.8,449.0 L220.0,449.6 L217.6,449.6 L211.9,450.1 L202.3,450.1 L196.1,450.6 L193.7,450.6 L188.9,450.6 L184.1,450.6 L181.2,450.6 L176.9,450.6 L173.6,450.6 L167.3,450.6 L164.0,450.6 L156.3,450.6" fill="none" stroke="#ff7f0e" stroke-width="1.7" opacity="0.85"/><circle cx="156" cy="451" r="4.5" fill="#ff7f0e"/><rect x="28" y="128" width="13" height="13" fill="#ff7f0e"/><text x="46" y="139" font-size="12">12 m/s</text><text x="28" y="832" font-size="11" fill="#888">ground track — m from pad (N up)</text></svg>