<svg xmlns="http://www.w3.org/2000/svg" width="840" height="860" font-family="sans-serif" font-size="13"><rect width="840" height="860" fill="white"/><text x="20" y="26" font-size="15" fill="#333">F15 guarded — noise</text><rect x="20" y="40" width="800" height="800" fill="#fbfbfb" stroke="#ddd"/><rect x="451" y="204" width="165" height="35" fill="#cde" stroke="#369" opacity="0.7"/><text x="451" y="199" fill="#369" font-size="12">landing zone</text><circle cx="555" cy="260" r="5" fill="black"/><text x="563" y="264" font-size="12">pad</text><path d="M555.4,259.7 L555.4,259.7 L555.4,259.7 L555.4,259.7 L555.4,259.7 L555.4,259.7 L555.4,259.7 L555.4,259.7 L555.4,259.7 L555.4,259.7 L555.4,259.7 L555.4,259.7 L555.4,259.7 L555.4,259.7 L555.4,259.7 L555.4,259.7 L555.4,259.7 L555.4,259.7 L555.4,259.7 L555.4,259.7 L555.4,259.7 L555.4,259.7 L555.4,259.7 L555.4,259.7 L555.4,259.7 L555.4,259.7 L555.4,259.7 L555.4,259.7 L555.4,259.7 L555.4,259.7 L555.4,259.7 L555.4,259.7 L555.4,259.7 L555.4,259.7 L555.4,259.7 L555.4,259.7 L555.4,259.7 L555.4,259.7 L555.4,259.7 L555.4,259.7 L555.4,259.7 L555.4,259.7 L555.4,259.7 L555.4,259.7 L555.4,259.7 L555.4,259.7 L555.4,259.7 L555.4,259.7 L555.4,259.7 L555.4,259.7 L555.4,259.7 L555.4,259.7 L555.4,259.7 L555.4,259.7 L555.4,259.7 L555.4,259.7 L555.4,259.7 L555.4,259.7 L555.4,259.7 L555.4,259.7 L555.4,259.7 L555.4,259.7 L555.4,259.7 L555.4,259.7 L555.4,259.7 L555.4,259.7 L555.4,259.7 L555.4,259.7 L556.0,258.7 L556.3,257.6 L557.2,256.4 L558.1,255.0 L558.8,254.2 L559.0,253.1 L560.7,251.7 L561.6,250.7 L561.6,249.9 L563.4,248.7 L564.3,247.4 L565.2,246.6 L566.1,245.8 L567.3,244.6 L567.8,243.8 L569.6,242.9 L570.1,242.3 L571.4,241.3 L572.2,240.3 L573.1,239.5 L574.0,238.7 L575.8,238.3 L576.5,237.6 L577.6,236.4 L578.6,235.6 L580.2,234.6 L581.1,234.0 L581.5,233.0 L582.9,232.3 L583.8,230.9 L584.6,230.3 L586.4,228.7 L587.3,227.6 L587.8,226.6 L588.2,225.4 L590.0,224.4 L590.7,222.8 L590.8,222.1 L591.7,220.7 L592.6,219.5 L592.8,218.1 L593.5,216.4 L594.4,215.2 L595.3,214.0 L595.3,212.8 L595.6,211.1 L596.1,210.1 L596.1,208.5 L597.0,206.8 L597.0,205.8 L597.9,204.2 L597.9,202.6 L597.9,201.5 L598.4,199.7 L598.4,198.5 L598.4,197.1 L598.4,196.0 L598.8,194.0 L598.8,193.0 L599.7,191.3 L600.6,190.1 L600.6,188.7 L601.5,187.5 L601.5,186.4 L601.6,184.8 L602.3,183.6 L603.2,182.2 L604.1,180.9 L604.8,179.5 L605.0,178.1 L605.9,177.3 L606.8,176.2 L607.7,175.2 L608.5,174.2 L609.4,173.2 L609.8,172.2 L611.2,170.9 L612.1,169.9 L613.0,169.3 L613.9,168.1 L615.6,166.9 L615.8,166.2 L616.5,165.6 L618.3,164.6 L619.3,164.0 L620.0,163.0 L621.1,162.0 L622.7,161.4 L623.9,160.9 L625.4,160.1 L626.2,159.5 L627.5,158.9 L628.9,158.1 L630.0,157.7 L631.6,157.3 L633.3,156.7 L635.1,156.3 L636.0,156.0 L637.8,155.6 L638.6,155.2 L640.4,155.0 L641.6,154.8 L643.1,154.6 L644.5,154.6 L646.6,154.4 L648.4,154.4 L650.5,154.4 L650.1,154.4 L652.8,154.6 L653.3,154.6 L655.5,154.8 L656.3,155.0 L658.1,155.2 L659.9,155.8 L661.5,156.2 L663.4,156.7 L664.3,157.1 L665.2,157.5 L667.0,157.7 L667.8,158.3 L669.6,158.9 L670.5,159.5 L672.4,160.7 L673.2,161.3 L674.9,162.0 L675.8,162.6 L677.6,163.4 L678.5,164.2 L679.4,165.2 L680.2,166.0 L681.3,166.9 L682.9,167.7 L683.8,168.7 L684.5,169.5 L685.6,170.3 L686.4,171.6 L686.6,172.6 L688.2,173.8 L689.1,174.6 L690.2,175.6 L690.0,176.7 L690.9,177.7 L691.7,179.1 L692.6,180.5 L692.6,181.7 L693.5,182.8 L694.4,184.0 L695.3,185.4 L695.5,186.4 L696.2,188.1 L696.2,189.3 L697.1,190.3 L697.1,191.5 L697.9,193.2 L698.3,194.4 L698.3,196.0 L698.3,197.1 L698.8,198.3 L698.8,199.7 L698.8,201.7 L698.8,202.6 L698.8,205.0 L698.8,206.4 L698.8,207.9 L698.8,209.1 L698.8,210.3 L698.8,211.9 L698.8,213.0 L698.3,214.2 L698.3,215.4 L698.3,216.8 L697.9,218.5 L697.9,219.5 L697.1,220.9 L696.2,222.5 L696.2,223.6 L695.5,224.8 L695.3,226.2 L694.4,227.2 L693.5,228.7 L693.5,229.9 L692.6,230.9 L691.7,232.5 L690.9,233.6 L690.0,234.6 L690.2,235.8 L689.1,236.8 L688.2,238.1 L686.6,238.9 L686.4,239.9 L684.7,241.9 L683.8,242.9 L682.9,243.8 L681.3,244.6 L681.1,245.6 L679.4,246.6 L678.5,247.2 L677.6,248.2 L675.8,248.9 L675.6,249.5 L674.0,250.3 L672.4,250.9 L671.4,251.5 L670.3,252.3 L669.6,252.9 L667.8,253.3 L667.0,253.8 L665.2,254.4 L664.3,254.8 L661.7,255.4 L659.9,256.0 L658.6,256.2 L657.2,256.6 L656.2,256.8 L654.6,257.0 L653.3,257.2 L651.9,257.4 L650.1,257.4 L648.4,257.6 L646.6,257.6 L644.8,257.4 L644.5,257.4 L642.2,257.2 L641.3,257.0 L639.5,256.8 L638.1,256.6 L636.9,256.4 L635.1,255.8 L632.8,255.4 L632.4,255.0 L630.7,254.6 L628.9,254.2 L627.5,253.6 L627.1,253.1 L625.4,252.5 L623.9,251.9 L621.8,250.9 L620.9,250.1 L619.2,249.5 L619.3,248.5 L616.5,247.6 L615.8,246.8 L615.6,246.2 L613.9,245.4 L613.7,244.6 L611.2,242.9 L609.8,241.7 L609.4,240.9 L607.7,239.7 L606.9,238.7 L606.8,238.0 L605.9,237.0 L605.0,236.0 L604.1,234.6 L603.2,233.8 L602.3,232.9 L601.5,231.5 L600.6,230.5 L598.8,229.7 L598.4,228.9 L597.0,227.9 L596.1,227.0 L595.3,226.2 L593.5,225.0 L590.8,223.2 L590.0,222.5 L588.2,221.7 L587.3,220.9 L585.5,220.3 L584.6,219.7 L583.8,219.1 L582.0,218.5 L581.1,218.1 L577.6,217.4 L576.5,217.0 L574.9,216.6 L573.1,216.4 L572.2,216.2 L570.5,216.0 L569.6,216.0 L567.8,215.8 L566.9,215.8 L563.4,215.8 L561.6,216.0 L560.7,216.0 L559.0,216.2 L558.1,216.4 L556.3,216.6 L555.4,216.8 L553.7,217.2 L552.8,217.4 L549.2,217.9 L546.6,218.5 L544.8,218.7 L543.9,219.1 L541.8,219.3 L541.3,219.7 L539.0,220.1 L537.7,220.3 L535.1,220.9 L533.3,221.3 L532.4,221.7" fill="none" stroke="#1f77b4" stroke-width="1.7" opacity="0.85"/><circle cx="532" cy="222" r="4.5" fill="#1f77b4"/><rect x="28" y="48" width="13" height="13" fill="#1f77b4"/><text x="46" y="59" font-size="12">5%</text><path d="M555.4,259.7 L555.4,259.7 L555.4,259.7 L555.4,259.7 L555.4,259.7 L555.4,259.7 L555.4,259.7 L555.4,259.7 L555.4,259.7 L555.4,259.7 L555.4,259.7 L555.4,259.7 L555.4,259.7 L555.4,259.7 L555.4,259.7 L555.4,259.7 L555.4,259.7 L555.4,259.7 L555.4,259.7 L555.4,259.7 L555.4,259.7 L555.4,259.7 L555.4,259.7 L555.4,259.7 L555.4,259.7 L555.4,259.7 L555.4,259.7 L555.4,259.7 L555.4,259.7 L555.4,259.7 L555.4,259.7 L555.4,259.7 L555.4,259.7 L555.4,259.7 L555.4,259.7 L555.4,259.7 L555.4,259.7 L555.4,259.7 L555.4,259.7 L555.4,259.7 L555.4,259.7 L555.4,259.7 L555.4,259.7 L555.4,259.7 L555.4,259.7 L555.4,259.7 L555.4,259.7 L555.4,259.7 L555.4,259.7 L555.4,259.7 L555.4,259.7 L555.4,259.7 L555.4,259.7 L555.4,259.7 L555.4,259.7 L555.4,259.7 L555.4,259.7 L555.4,259.7 L555.4,259.7 L555.4,259.7 L555.4,259.7 L555.4,259.7 L555.4,259.7 L555.4,259.7 L555.4,259.7 L555.4,259.7 L555.4,259.7 L555.4,259.7 L555.4,259.7 L555.4,259.7 L556.0,258.7 L556.3,258.0 L557.2,256.6 L558.1,255.4 L558.8,254.4 L559.0,253.1 L560.7,251.7 L561.6,250.7 L561.6,249.7 L563.4,248.7 L564.3,247.6 L564.5,246.8 L566.1,245.8 L566.9,244.6 L567.8,243.8 L569.6,242.9 L570.1,242.3 L571.4,241.3 L572.2,240.3 L573.1,239.5 L574.9,238.7 L575.8,238.1 L576.7,237.4 L577.6,236.6 L578.6,235.8 L579.3,235.0 L581.1,234.0 L581.5,233.2 L582.9,232.3 L583.8,231.3 L584.6,230.3 L585.5,229.5 L587.3,228.3 L587.8,227.4 L588.2,226.2 L589.1,225.0 L590.7,223.8 L590.8,222.7 L591.7,221.7 L592.6,220.5 L592.8,219.1 L593.5,218.1 L594.4,216.6 L595.3,215.4 L595.3,214.2 L595.6,212.8 L596.1,211.5 L596.1,210.3 L597.0,208.9 L597.9,207.7 L597.9,205.8 L598.4,204.4 L598.4,202.8 L598.4,201.7 L598.8,200.3 L598.8,198.9 L598.8,197.5 L599.7,196.4 L599.7,194.8 L600.6,193.2 L600.6,191.5 L601.5,190.3 L601.6,189.1 L601.6,187.7 L602.3,186.4 L603.2,185.4 L604.1,184.0 L604.8,182.8 L605.0,181.3 L605.9,179.9 L606.8,178.5 L606.9,177.7 L607.7,176.6 L609.4,175.4 L609.8,174.4 L610.3,173.4 L611.2,172.4 L613.0,171.3 L613.7,170.3 L614.7,169.5 L615.6,168.3 L616.5,167.5 L618.3,166.5 L619.3,166.0 L620.0,165.0 L620.9,164.4 L621.8,163.4 L623.6,162.8 L624.5,162.0 L625.4,161.4 L627.1,160.9 L628.0,160.3 L629.8,159.7 L630.7,159.1 L632.4,158.5 L633.3,158.1 L635.1,157.7 L636.0,157.3 L638.1,156.9 L639.5,156.7 L641.3,156.3 L642.2,156.2 L644.5,156.0 L645.7,155.8 L647.3,155.8 L648.4,155.8 L650.5,155.8 L651.0,155.8 L652.8,155.8 L653.7,156.0 L655.5,156.2 L656.3,156.2 L658.1,156.5 L659.0,156.7 L660.8,157.1 L661.7,157.3 L663.4,157.7 L664.3,157.9 L666.1,158.5 L666.8,158.9 L668.7,159.5 L669.6,159.9 L670.5,160.7 L672.3,161.3 L673.2,161.8 L674.9,162.4 L675.6,163.0 L676.7,163.6 L678.5,164.6 L678.5,165.4 L680.2,166.0 L681.1,166.9 L682.0,167.9 L683.8,169.1 L684.7,170.5 L686.4,171.6 L686.6,172.6 L688.2,173.8 L689.1,174.6 L690.2,176.0 L690.0,176.9 L690.9,177.9 L691.7,179.1 L692.6,180.3 L692.6,181.3 L694.4,182.6 L694.4,183.8 L695.3,185.2 L695.5,186.2 L696.2,187.7 L697.1,188.9 L697.1,190.1 L697.9,191.5 L697.9,192.6 L698.3,193.8 L698.8,195.4 L698.8,196.8 L698.8,198.1 L699.7,199.9 L699.7,201.1 L699.7,202.4 L699.7,204.0 L699.7,205.6 L699.7,207.2 L699.7,208.7 L699.7,209.9 L699.7,211.1 L699.7,212.6 L699.7,214.2 L698.8,215.2 L698.8,216.8 L698.8,218.1 L698.3,219.3 L698.3,220.7 L697.9,222.1 L697.1,223.2 L697.1,224.4 L696.2,225.6 L695.5,226.8 L695.5,228.1 L695.3,229.3 L694.4,230.7 L693.5,231.7 L692.6,233.0 L692.6,234.4 L691.7,235.6 L690.0,236.6 L690.2,237.8 L689.1,238.7 L688.2,239.9 L687.3,240.9 L686.4,242.1 L685.6,242.9 L684.7,243.6 L683.8,244.8 L682.0,245.8 L681.3,246.8 L680.2,247.6 L678.5,248.5 L678.5,249.3 L676.7,250.3 L675.8,250.7 L674.0,252.1 L672.4,252.9 L671.4,253.4 L670.3,254.0 L668.7,254.8 L667.8,255.0 L667.0,255.6 L665.2,256.2 L663.4,256.8 L661.5,257.4 L660.8,257.8 L658.6,258.0 L657.2,258.4 L656.2,258.5 L654.6,258.7 L653.3,258.7 L651.9,258.9 L650.1,259.1 L650.5,259.1 L647.5,259.1 L646.6,259.1 L644.8,259.1 L643.9,259.1 L642.2,258.9 L641.3,258.7 L639.5,258.7 L638.1,258.5 L636.9,258.4 L636.0,258.0 L635.1,257.8 L632.8,257.4 L631.6,256.8 L630.7,256.4 L629.8,256.0 L628.0,255.4 L627.1,254.8 L625.4,254.4 L623.9,253.8 L621.8,252.7 L620.9,251.9 L619.2,251.1 L619.3,250.5 L617.4,249.7 L615.8,248.9 L615.6,248.0 L613.9,247.2 L613.0,246.4 L611.2,244.6 L609.8,243.4 L609.4,242.5 L607.7,241.7 L606.9,240.5 L606.8,239.5 L605.9,238.3 L604.8,237.4 L604.1,236.2 L602.3,234.4 L601.5,233.2 L600.6,232.1 L599.7,231.1 L598.4,230.1 L597.9,229.3 L596.1,228.1 L595.6,227.4 L594.4,226.4 L592.8,224.8 L591.7,223.8 L590.7,223.0 L589.1,222.5 L588.2,221.7 L587.3,220.9 L586.4,220.3 L584.6,219.5 L583.8,218.9 L582.0,218.3 L580.2,217.4 L578.6,217.0 L577.6,216.4 L576.7,216.0 L575.8,215.6 L574.0,215.2 L573.0,214.8 L571.4,214.6 L570.1,214.2 L568.7,214.2 L566.1,214.0 L564.5,213.8 L563.4,213.8 L561.6,213.8 L560.7,213.8 L559.0,213.8 L558.1,214.0 L556.3,214.0 L555.4,214.2 L551.9,214.6 L550.3,214.8 L547.5,215.2 L545.7,215.6 L544.6,215.8 L543.0,216.2 L541.8,216.4 L540.4,216.6 L537.7,217.0 L536.1,217.2 L535.1,217.4 L533.3,217.7" fill="none" stroke="#17becf" stroke-width="1.7" opacity="0.85"/><circle cx="533" cy="218" r="4.5" fill="#17becf"/><rect x="28" y="68" width="13" height="13" fill="#17becf"/><text x="46" y="79" font-size="12">10%</text><path d="M555.4,259.7 L555.4,259.7 L555.4,259.7 L555.4,259.7 L555.4,259.7 L555.4,259.7 L555.4,259.7 L555.4,259.7 L555.4,259.7 L555.4,259.7 L555.4,259.7 L555.4,259.7 L555.4,259.7 L555.4,259.7 L555.4,259.7 L555.4,259.7 L555.4,259.7 L555.4,259.7 L555.4,259.7 L555.4,259.7 L555.4,259.7 L555.4,259.7 L555.4,259.7 L555.4,259.7 L555.4,259.7 L555.4,259.7 L555.4,259.7 L555.4,259.7 L555.4,259.7 L555.4,259.7 L555.4,259.7 L555.4,259.7 L555.4,259.7 L555.4,259.7 L555.4,259.7 L555.4,259.7 L555.4,259.7 L555.4,259.7 L555.4,259.7 L555.4,259.7 L555.4,259.7 L555.4,259.7 L555.4,259.7 L555.4,259.7 L555.4,259.7 L555.4,259.7 L555.4,259.7 L555.4,259.7 L555.4,259.7 L555.4,259.7 L555.4,259.7 L555.4,259.7 L555.4,259.7 L555.4,259.7 L555.4,259.7 L555.4,259.7 L555.4,259.7 L555.4,259.7 L555.4,259.7 L555.4,259.7 L555.4,259.7 L555.4,259.7 L555.4,259.7 L555.4,259.7 L555.4,259.7 L555.4,259.7 L555.4,259.7 L555.4,259.7 L555.4,259.7 L555.4,259.7 L555.4,259.7 L555.4,259.7 L556.0,258.7 L556.3,257.6 L557.2,256.4 L558.1,255.0 L558.8,254.0 L559.0,252.9 L560.7,251.7 L561.6,250.7 L562.5,249.5 L563.4,248.5 L564.3,247.4 L565.2,246.6 L566.1,245.6 L567.3,244.4 L567.8,243.6 L569.6,242.7 L570.1,241.9 L571.4,241.1 L573.0,239.7 L574.0,238.7 L575.8,238.1 L576.5,237.2 L577.6,236.2 L578.6,235.2 L579.3,234.4 L581.1,233.2 L582.0,232.3 L582.9,231.1 L584.3,230.1 L584.6,228.9 L585.5,227.8 L587.3,226.8 L587.8,225.6 L588.2,224.4 L589.1,223.0 L590.0,221.9 L590.7,220.5 L590.8,219.1 L591.7,217.9 L592.6,216.6 L592.8,215.2 L593.5,213.8 L593.5,212.4 L594.4,210.9 L595.3,209.7 L595.3,208.1 L595.6,206.8 L595.6,205.6 L595.6,204.0 L596.1,202.6 L596.1,201.7 L596.1,200.1 L596.1,198.7 L597.0,197.7 L597.0,196.2 L597.0,194.6 L597.9,193.2 L597.9,192.0 L598.4,190.5 L598.4,189.5 L598.8,188.1 L599.7,186.6 L599.7,185.4 L600.6,183.6 L601.5,182.4 L601.6,181.3 L602.3,180.1 L603.2,178.7 L604.1,177.7 L604.8,176.4 L605.9,175.0 L606.8,173.8 L606.9,172.8 L608.5,171.6 L609.4,170.5 L609.8,169.7 L611.2,168.5 L612.1,167.7 L613.7,166.5 L613.9,165.8 L615.6,164.8 L616.5,163.6 L618.3,162.8 L619.3,162.0 L620.0,161.4 L621.1,160.7 L622.7,160.1 L623.9,159.3 L625.4,158.5 L626.2,158.1 L628.0,157.5 L629.8,156.9 L630.0,156.5 L632.4,156.0 L632.8,155.6 L634.2,155.2 L635.3,154.8 L637.8,154.4 L638.6,154.2 L640.4,154.0 L642.2,153.8 L643.9,153.8 L644.8,153.6 L646.6,153.6 L647.5,153.6 L649.3,153.6 L651.0,153.8 L651.9,153.8 L653.7,153.8 L656.2,154.0 L657.2,154.4 L658.6,154.6 L659.9,155.0 L661.5,155.4 L661.7,155.8 L664.3,156.2 L664.3,156.5 L666.8,157.5 L668.7,157.9 L669.6,158.5 L670.5,159.1 L672.3,159.9 L673.2,160.7 L674.9,161.4 L675.6,162.0 L676.7,163.0 L678.5,164.4 L680.2,165.4 L681.1,166.2 L682.0,167.1 L682.9,167.9 L683.8,169.1 L684.7,170.1 L685.6,171.3 L686.6,172.4 L688.2,174.0 L689.1,175.4 L690.2,176.4 L690.9,177.9 L690.9,178.7 L692.6,180.1 L692.6,181.5 L692.6,182.4 L693.5,183.8 L695.3,186.0 L695.3,187.1 L695.5,188.3 L695.5,189.7 L696.2,190.9 L696.2,192.0 L697.1,193.6 L697.1,194.8 L697.9,196.4 L697.9,197.7 L697.9,199.1 L698.3,200.3 L698.3,201.9 L698.3,203.2 L698.3,204.8 L698.3,206.4 L698.3,207.3 L698.3,208.9 L697.9,210.3 L697.9,212.6 L697.9,214.2 L697.1,215.2 L697.1,216.8 L696.2,218.3 L696.2,219.3 L695.5,220.9 L695.5,222.1 L695.3,223.2 L694.4,224.4 L693.5,225.6 L692.6,227.0 L692.6,228.3 L692.6,229.5 L691.7,230.7 L690.9,231.9 L690.0,233.0 L689.1,234.6 L688.2,235.6 L686.6,237.2 L686.4,238.5 L684.7,239.5 L684.5,240.5 L683.8,241.5 L682.0,242.5 L681.3,243.2 L680.2,244.2 L679.4,245.2 L678.5,246.0 L677.6,246.8 L675.8,247.4 L675.6,248.2 L674.0,248.9 L672.4,249.7 L672.3,250.5 L670.5,250.9 L669.6,251.7 L667.8,252.3 L667.0,252.9 L665.2,253.4 L664.3,254.0 L663.4,254.6 L661.7,254.8 L660.8,255.4 L659.0,255.8 L658.1,256.2 L656.3,256.6 L655.5,256.8 L652.8,257.4 L651.0,257.6 L650.5,257.8 L648.4,258.0 L647.3,258.2 L645.7,258.2 L644.5,258.4 L643.1,258.4 L641.6,258.4 L640.4,258.4 L638.6,258.4 L637.8,258.4 L636.0,258.2 L635.1,258.2 L633.3,258.0 L632.4,257.8 L630.7,257.8 L629.8,257.4 L628.0,257.2 L627.1,257.0 L625.4,256.8 L623.9,256.4 L622.7,256.0 L621.1,255.6 L619.2,255.0 L618.3,254.8 L616.5,254.2 L615.8,253.8 L613.9,253.1 L613.0,252.5 L611.2,251.7 L609.8,250.9 L608.5,250.3 L606.9,249.5 L606.8,248.9 L605.0,248.2 L604.1,247.2 L602.3,246.6 L601.5,245.4 L599.7,244.4 L598.8,243.6 L597.9,242.5 L597.0,241.7 L596.1,240.7 L595.3,239.7 L594.4,238.5 L593.5,237.8 L592.8,236.8 L591.7,235.6 L590.7,234.4 L590.0,233.4 L589.1,232.3 L587.8,231.3 L587.3,230.3 L586.4,229.3 L584.6,228.1 L584.3,227.2 L582.0,225.0 L581.1,223.8 L579.3,222.8 L578.6,222.1 L577.6,221.1 L576.7,220.1 L575.8,219.1 L574.0,218.3 L573.1,217.4 L570.5,215.6 L569.6,214.8 L568.7,214.2 L567.3,213.6 L566.1,212.8 L564.5,212.3 L563.4,211.5 L562.5,210.9 L561.6,210.3 L559.9,209.9 L557.2,209.1 L556.0,208.5 L554.5,208.1 L553.1,207.7 L551.9,207.2 L550.3,206.8 L549.2,206.6 L547.5,206.4 L546.6,206.2 L543.9,205.6 L541.8,205.4 L540.4,205.4 L539.0,205.2 L537.7,205.2 L536.1,205.2 L535.1,205.2 L533.3,205.4 L532.4,205.4 L528.9,205.8 L527.6,206.0 L526.2,206.2 L524.8,206.4 L523.6,206.6 L522.0,207.0 L520.9,207.3 L519.1,207.7 L518.3,208.1 L514.7,209.1 L513.5,209.5 L512.1,209.9 L510.6,210.3 L509.4,210.7 L507.6,211.3 L506.7,211.9 L505.0,212.4 L504.1,213.0 L501.4,214.4 L499.7,215.2 L498.8,215.8 L497.0,216.6 L496.1,217.2 L494.4,217.9 L493.5,218.5 L492.6,219.3 L490.8,219.9 L488.2,221.7 L487.3,222.3 L485.5,222.7 L484.6,223.4 L482.8,224.0 L481.6,224.4 L480.2,225.0 L479.1,225.6 L477.5,226.2 L474.9,227.0 L473.1,227.6 L471.3,227.9 L470.5,228.1 L468.7,228.5 L467.4,228.9 L466.0,229.1 L464.6,229.3 L462.5,229.5 L459.8,229.9 L458.9,230.1 L457.2,230.3 L455.8,230.3 L453.6,230.3 L452.8,230.5 L451.0,230.5 L450.1,230.5 L448.3,230.7 L444.8,230.7 L443.9,230.7 L442.1,230.5 L441.2,230.5 L439.5,230.3 L438.6,230.3 L436.8,230.1 L435.9,229.9 L434.2,229.9 L430.6,229.3 L429.7,229.1 L428.0,228.9 L427.1,228.7 L425.3,228.5 L423.5,228.1 L422.7,227.9 L420.9,227.8 L420.0,227.6 L416.5,227.0 L414.7,226.8 L413.6,226.8 L412.0,226.6 L410.8,226.4 L409.4,226.4 L407.6,226.4 L406.7,226.2 L405.0,226.2 L402.7,226.0 L400.5,225.8 L398.8,225.8 L397.0,225.6 L396.1,225.6 L394.3,225.4 L393.4,225.2 L391.7,225.2 L390.3,225.2 L387.2,225.0 L385.5,225.0 L383.7,225.0 L382.1,225.0 L381.1,225.0 L379.6,225.0 L378.4,225.0 L376.6,225.0 L375.7,225.0 L372.2,225.0 L371.5,225.0 L369.5,225.0 L368.0,225.0 L366.9,225.0 L365.1,225.2 L363.3,225.2 L361.9,225.2 L360.7,225.2 L357.2,225.2 L356.3,225.2 L354.5,225.2 L353.6,225.2 L351.8,225.2 L350.1,225.2 L348.3,225.2 L347.4,225.0 L345.6,225.0 L343.0,224.8 L342.1,224.8 L340.0,224.6 L338.6,224.6 L336.8,224.4 L335.9,224.2 L334.1,224.0 L333.3,224.0 L331.5,223.8 L328.7,223.4 L327.1,223.2 L325.3,223.2 L323.5,223.0 L322.3,222.8 L320.9,222.8 L319.4,222.7 L318.2,222.5 L316.6,222.5 L313.8,222.5 L312.0,222.5 L310.9,222.3 L309.4,222.1 L308.1,222.1 L306.7,221.9 L305.3,221.9 L304.0,221.7 L302.3,221.5 L299.6,221.3 L297.0,221.1 L296.1,220.7 L294.3,220.5 L293.4,220.3 L291.7,220.3 L290.8,219.9 L289.0,219.7 L288.1,219.7 L284.6,219.1 L282.8,219.1 L281.9,218.9 L279.8,218.9 L278.4,218.7 L277.0,218.7 L275.7,218.5 L274.1,218.5 L272.2,218.5 L269.5,218.5 L268.5,218.5 L266.9,218.3 L265.1,218.3 L263.3,218.3 L262.4,218.3 L260.7,218.3 L259.6,218.3 L258.0,218.5 L254.5,218.5 L253.6,218.5 L251.8,218.5 L250.9,218.5 L249.2,218.5 L248.3,218.7 L245.6,218.7 L244.7,218.7 L243.0,218.9 L240.3,218.9 L238.5,219.1 L237.3,219.1 L235.9,219.1 L234.1,219.1 L233.2,218.9 L231.3,218.9 L229.7,218.9 L228.4,218.9 L225.3,218.9 L223.5,218.7 L222.6,218.7 L220.8,218.5 L219.6,218.5 L218.2,218.5 L216.8,218.5 L214.6,218.3 L213.8,218.3 L211.1,218.1 L209.3,217.9 L207.6,217.9 L205.8,217.7 L204.9,217.6 L203.1,217.6 L202.2,217.4 L200.5,217.4 L199.6,217.2 L196.1,217.0 L194.3,216.8 L193.4,216.8 L190.9,216.8 L189.9,216.6 L188.8,216.6 L187.2,216.6 L185.6,216.6 L184.5,216.6 L181.0,216.8 L179.2,216.8 L177.5,216.8 L176.6,216.8 L174.8,217.0 L173.9,217.0 L172.2,217.0 L171.3,217.2 L169.5,217.4 L166.0,217.6 L165.1,217.7 L162.9,217.9 L161.5,218.1 L160.5,218.1 L158.9,218.3 L157.6,218.5 L156.2,218.5 L154.4,218.7 L151.6,218.9 L150.0,218.9 L148.8,219.1 L147.4,219.1 L146.0,219.1 L143.8,219.1 L142.4,219.1 L141.2,219.1 L139.6,218.9 L136.7,218.9 L135.0,218.7 L134.1,218.5 L132.3,218.5 L131.4,218.5 L129.7,218.3 L127.9,218.1 L126.1,218.1 L125.2,217.9 L121.7,217.7 L120.1,217.6 L119.0,217.6 L118.0,217.6 L115.5,217.6 L114.1,217.6 L112.8,217.7 L111.3,217.7 L110.2,217.7 L107.5,218.1 L105.8,218.1 L104.0,218.3 L102.8,218.3 L101.3,218.5 L99.6,218.5 L98.7,218.5 L96.9,218.5 L95.1,218.7 L92.5,219.1 L90.7,219.3 L88.9,219.5 L88.1,219.7 L86.3,219.9 L85.4,220.1 L82.9,220.3 L81.9,220.5 L80.8,220.5 L77.4,220.9 L76.6,221.1 L74.8,221.3 L73.9,221.7 L71.6,221.9 L71.2,222.3 L69.5,222.5 L67.7,222.7 L66.8,222.8 L63.1,223.8 L60.6,224.4 L59.7,224.6 L58.0,225.0 L57.1,225.4 L55.3,225.6 L53.5,226.0 L51.8,226.4 L50.0,226.6" fill="none" stroke="#2ca02c" stroke-width="1.7" opacity="0.85"/><circle cx="50" cy="227" r="4.5" fill="#2ca02c"/><rect x="28" y="88" width="13" height="13" fill="#2ca02c"/><text x="46" y="99" font-size="12">25%</text><path d="M555.4,259.7 L555.4,259.7 L555.4,259.7 L555.4,259.7 L555.4,259.7 L555.4,259.7 L555.4,259.7 L555.4,259.7 L555.4,259.7 L555.4,259.7 L555.4,259.7 L555.4,259.7 L555.4,259.7 L555.4,259.7 L555.4,259.7 L555.4,259.7 L555.4,259.7 L555.4,259.7 L555.4,259.7 L555.4,259.7 L555.4,259.7 L555.4,259.7 L555.4,259.7 L555.4,259.7 L555.4,259.7 L555.4,259.7 L555.4,259.7 L555.4,259.7 L555.4,259.7 L555.4,259.7 L555.4,259.7 L555.4,259.7 L555.4,259.7 L555.4,259.7 L555.4,259.7 L555.4,259.7 L555.4,259.7 L555.4,259.7 L555.4,259.7 L555.4,259.7 L555.4,259.7 L555.4,259.7 L555.4,259.7 L555.4,259.7 L555.4,259.7 L555.4,259.7 L555.4,259.7 L555.4,259.7 L555.4,259.7 L555.4,259.7 L555.4,259.7 L555.4,259.7 L555.4,259.7 L555.4,259.7 L555.4,259.7 L555.4,259.7 L555.4,259.7 L555.4,259.7 L555.4,259.7 L555.4,259.7 L555.4,259.7 L555.4,259.7 L555.4,259.7 L555.4,259.7 L555.4,259.7 L555.4,259.7 L555.4,259.7 L555.4,259.7 L555.4,259.7 L555.4,259.7 L555.4,259.3 L556.0,258.2 L556.3,257.0 L558.1,255.8 L558.8,254.6 L559.0,253.3 L559.9,252.1 L560.7,251.1 L561.6,249.9 L562.5,248.7 L563.4,247.8 L564.5,246.8 L565.2,245.8 L566.9,244.8 L567.3,243.4 L568.7,242.7 L569.6,241.7 L570.5,240.7 L571.4,239.9 L573.0,238.9 L574.0,238.0 L574.9,237.0 L576.5,236.0 L576.7,235.2 L578.4,234.2 L578.6,233.2 L579.3,232.5 L581.1,231.3 L581.5,230.3 L582.0,229.3 L582.9,228.1 L584.3,227.2 L584.6,226.2 L585.5,224.8 L586.4,223.6 L587.3,222.5 L587.8,221.3 L588.2,219.9 L589.1,218.7 L589.1,217.6 L590.0,216.4 L590.7,215.2 L590.7,213.8 L590.8,212.6 L591.7,210.9 L591.7,209.9 L592.6,208.3 L592.6,207.0 L592.6,205.8 L592.8,204.4 L592.8,202.4 L592.8,200.7 L592.8,199.5 L593.5,198.1 L593.5,196.6 L593.5,195.0 L594.4,194.0 L594.4,192.4 L595.3,190.9 L595.3,189.7 L595.6,188.1 L596.1,186.9 L596.1,185.8 L597.0,184.6 L597.9,183.0 L598.4,182.0 L598.8,180.7 L598.8,179.5 L599.7,178.1 L600.6,177.3 L601.5,176.2 L602.3,174.8 L603.2,173.8 L604.1,172.6 L604.8,171.6 L605.9,170.3 L606.8,169.5 L607.7,168.3 L608.5,167.1 L609.8,166.4 L610.3,165.6 L612.1,164.6 L613.7,163.6 L613.9,162.8 L615.6,162.0 L616.5,161.3 L617.4,160.5 L619.3,159.7 L620.0,158.9 L621.1,158.1 L622.7,157.7 L623.6,157.3 L624.5,156.7 L626.2,156.2 L627.5,155.8 L628.9,155.2 L630.0,154.8 L631.6,154.4 L632.4,154.2 L634.2,153.8 L635.1,153.8 L636.0,153.4 L638.1,153.2 L638.6,153.0 L641.3,153.0 L641.6,152.8 L643.9,152.8 L645.7,152.8 L647.3,152.8 L648.4,152.8 L650.5,153.0 L651.0,153.0 L652.8,153.2 L653.7,153.6 L655.5,153.8 L657.2,154.2 L658.6,154.4 L659.9,154.8 L661.5,155.2 L662.5,155.8 L664.3,156.3 L665.2,156.7 L667.0,157.3 L667.8,157.7 L670.3,158.7 L671.4,159.5 L672.4,160.1 L674.0,160.9 L674.9,161.6 L675.8,162.4 L677.6,163.2 L678.5,164.0 L679.4,164.8 L681.3,166.4 L682.0,167.3 L683.8,168.5 L684.5,169.5 L685.6,170.3 L686.4,171.5 L687.3,172.6 L688.2,173.8 L689.1,174.8 L690.0,176.7 L690.9,177.9 L691.7,178.9 L692.6,180.3 L692.6,181.5 L693.5,182.6 L694.4,183.8 L695.3,185.2 L695.3,186.2 L695.5,187.5 L696.2,188.7 L697.1,190.1 L697.1,191.3 L697.9,192.8 L697.9,194.0 L698.3,195.4 L698.3,197.0 L698.8,198.1 L698.8,199.5 L698.8,201.9 L699.7,203.0 L699.7,204.6 L699.7,206.0 L699.7,207.0 L699.7,208.3 L699.7,209.9 L699.7,211.3 L699.7,212.4 L699.7,214.0 L699.7,215.2 L698.8,217.0 L698.8,218.3 L698.8,219.3 L698.8,220.9 L698.3,222.3 L698.3,223.4 L697.9,224.8 L697.9,226.2 L697.1,227.4 L697.1,228.5 L696.2,230.1 L696.2,231.3 L695.5,232.9 L695.3,234.2 L695.3,235.2 L694.4,236.4 L693.5,238.0 L692.6,238.9 L692.6,241.1 L690.9,242.7 L690.0,243.6 L690.2,245.0 L689.1,246.2 L688.2,247.2 L687.3,248.5 L686.6,249.5 L685.6,250.7 L684.5,252.3 L683.8,253.4 L682.9,254.4 L681.3,255.2 L681.1,256.4 L679.4,257.4 L678.5,258.4 L677.6,259.1 L676.7,259.9 L675.6,260.7 L674.9,261.7 L673.2,262.7 L672.4,263.3 L671.4,264.0 L670.3,265.0 L668.7,265.8 L667.8,266.4 L667.0,267.0 L665.2,267.6 L664.3,268.4 L663.4,269.1 L661.7,269.7 L660.8,270.3 L659.9,270.7 L658.1,271.5 L657.2,272.1 L656.2,272.9 L654.6,273.3 L653.3,273.8 L652.8,274.2 L651.0,274.8 L649.3,275.2 L648.4,275.6 L646.6,276.2 L644.8,276.6 L644.5,277.0 L643.1,277.4 L641.6,277.8 L640.4,278.2 L637.8,278.8 L636.0,278.9 L635.1,279.3 L633.3,279.7 L632.4,280.1 L630.7,280.3 L629.8,280.7 L628.0,281.1 L627.1,281.3 L624.5,281.7 L623.6,282.1 L621.8,282.3 L620.9,282.5 L619.2,282.7 L618.3,282.9 L616.5,282.9 L615.6,282.9 L613.9,283.1 L609.8,283.3 L608.5,283.3 L606.9,283.3 L605.9,283.3 L604.8,283.3 L603.2,283.3 L601.6,283.3 L600.6,283.3 L598.8,283.1 L598.4,283.1 L595.6,282.9 L594.4,282.9 L592.8,282.9 L591.7,282.7 L590.7,282.5 L589.1,282.5 L587.8,282.3 L585.5,282.1 L584.3,281.7 L581.5,281.1 L579.3,280.7 L578.6,280.5 L577.6,280.1 L575.8,279.7 L574.9,279.3 L573.1,278.9 L572.2,278.8 L570.5,278.2 L569.6,277.8 L567.3,277.0 L566.1,276.4 L564.5,276.0 L563.4,275.4 L561.6,275.0 L560.7,274.6 L559.9,274.2 L558.8,273.7 L557.2,273.1 L556.0,272.5 L553.7,271.3 L552.8,270.7 L551.0,270.1 L550.1,269.5 L548.3,268.7 L547.5,268.0 L546.6,267.4 L544.8,266.6 L543.9,265.8 L541.3,264.0 L539.5,263.1 L539.0,262.3 L537.7,261.3 L536.1,260.3 L536.0,259.3 L534.2,258.5 L533.3,257.6 L532.4,256.6 L530.5,254.6 L528.9,253.4 L528.0,252.3 L527.1,251.1 L526.2,250.3 L525.3,249.1 L524.4,248.0 L523.6,246.8 L522.7,245.8 L520.9,243.1 L519.1,242.1 L518.4,240.7 L518.3,239.7 L517.4,238.5 L516.5,237.6 L516.3,236.2 L515.6,234.8 L514.7,233.8 L513.5,230.7 L512.9,229.5 L512.1,227.9 L511.2,226.6 L510.6,225.6 L510.6,224.0 L510.3,222.8 L509.4,221.9 L509.4,220.5 L508.5,219.1 L507.6,217.0 L507.5,215.8 L507.5,214.2 L506.7,213.2 L505.9,212.1 L505.0,210.3 L505.0,209.3 L504.3,207.9 L504.1,206.6 L502.3,203.4 L502.1,202.1 L501.4,200.9 L499.7,199.5 L499.3,198.3 L498.8,197.3 L497.9,196.4 L497.0,194.8 L496.5,193.8 L494.4,190.9 L493.5,189.9 L492.6,188.5 L491.7,187.5 L490.8,186.2 L489.8,185.2 L489.9,184.0 L489.0,183.0 L488.2,182.0 L488.0,180.7 L486.4,178.9 L485.1,177.5 L484.6,176.4 L483.7,175.4 L482.8,174.0 L481.6,173.2 L481.1,172.0 L480.2,171.1 L479.3,169.9 L476.7,167.3 L476.3,166.2 L474.9,165.2 L474.0,164.2 L473.8,163.0 L472.2,162.0 L471.3,161.3 L470.5,160.3 L469.6,159.3 L466.9,157.1 L465.1,155.8 L464.6,155.0 L463.4,154.0 L462.5,153.2 L461.6,152.2 L460.7,151.2 L459.7,150.5 L458.1,149.7 L455.4,147.3 L454.5,146.5 L452.9,145.8 L452.8,145.2 L451.0,144.4 L450.4,143.4 L449.2,142.4 L447.6,141.6 L447.4,141.0 L445.7,140.3 L443.9,138.7 L442.1,137.9 L442.3,137.3 L440.4,136.5 L439.5,135.7 L438.6,135.0 L436.8,134.0 L435.9,133.4 L435.0,132.4 L433.5,131.6 L431.5,130.3 L430.6,129.5 L429.7,128.9 L428.0,127.9 L427.1,127.1 L425.3,126.1 L424.6,125.5 L423.5,124.8 L422.7,124.0 L418.9,122.0 L418.2,121.4 L417.3,120.8 L416.5,120.1 L414.7,119.5 L413.8,118.9 L412.9,118.1 L411.1,117.5 L410.3,116.9 L408.5,116.5 L406.7,115.3 L405.5,115.0 L404.1,114.4 L402.3,113.8 L402.7,113.4 L400.5,113.0 L399.5,112.4 L397.9,111.8 L396.6,111.4 L395.2,110.8 L392.6,110.1 L391.7,109.7 L389.9,109.3 L389.0,108.9 L387.4,108.7 L386.4,108.1 L384.9,107.9 L383.7,107.5 L382.1,107.1 L381.1,106.9 L379.3,106.1 L376.6,105.7 L376.1,105.5 L374.0,105.1 L373.3,105.1 L372.2,105.0 L371.5,104.6 L369.5,104.4 L367.8,104.2 L366.9,104.0 L364.2,103.8 L362.5,103.6 L361.6,103.6 L359.8,103.6 L358.9,103.6 L357.2,103.6 L356.3,103.8 L354.5,103.8 L353.6,104.0 L351.8,104.0 L349.2,104.2 L347.8,104.4 L346.5,104.8 L344.9,105.0 L343.9,105.1 L342.8,105.1 L342.1,105.5 L340.0,105.7 L339.4,106.1 L337.7,106.5 L335.0,107.3 L333.6,107.9 L332.4,108.3 L330.8,108.9 L329.7,109.5 L328.7,109.9 L327.1,110.2 L325.3,111.0 L324.4,111.6 L321.7,113.2 L320.0,113.8 L319.1,114.6 L318.2,115.2 L316.6,115.7 L315.6,116.5 L314.7,117.3 L313.8,118.1 L312.0,118.9 L310.9,119.7 L309.4,121.2 L308.1,122.0 L306.7,122.8 L305.8,124.0 L304.9,125.0 L304.0,125.7 L302.4,126.7 L302.3,127.7 L300.5,128.5 L297.8,130.8 L297.0,132.0 L296.1,132.8 L295.2,133.6 L294.3,134.4 L293.4,135.6 L292.5,136.3 L291.1,137.3 L290.8,138.3 L289.0,139.5 L288.1,141.4 L286.3,142.4 L285.5,143.4 L285.5,144.6 L283.7,145.6 L282.8,146.5 L282.6,147.7 L281.0,148.7 L280.1,149.9 L277.5,152.8 L277.0,153.8 L276.6,155.0 L275.7,156.0 L274.1,157.3 L273.9,158.3 L273.1,159.7 L272.2,160.7 L271.3,162.0 L269.5,165.0 L268.6,166.0 L267.8,167.5 L266.9,168.7 L266.0,169.9 L266.0,170.9 L265.6,172.2 L265.1,173.4 L264.2,174.6 L262.8,177.9 L262.4,179.3 L261.6,180.7 L260.7,182.0 L260.7,183.4 L259.8,184.6 L259.6,185.8 L259.6,187.1 L258.9,188.5 L258.0,191.9 L257.1,193.4 L256.4,194.4 L256.4,195.6 L256.2,197.0 L256.2,198.1 L255.4,199.3 L255.4,200.9 L254.5,202.1 L254.5,203.2 L254.3,206.2 L253.6,207.7 L253.6,209.1 L252.7,210.3 L252.7,211.9 L251.8,213.2 L251.8,214.4 L251.8,215.8 L251.5,217.0 L250.9,220.7 L250.0,222.5 L250.0,223.8 L249.2,225.2 L249.2,226.4 L248.6,227.8 L248.6,229.1 L248.3,230.3 L248.3,230.7 L245.4,236.6 L245.4,237.8 L244.7,238.5 L243.9,239.9 L243.0,241.3 L242.1,243.8 L241.2,244.6 L239.4,248.0" fill="none" stroke="#bcbd22" stroke-width="1.7" opacity="0.85"/><circle cx="239" cy="248" r="4.5" fill="#bcbd22"/><rect x="28" y="108" width="13" height="13" fill="#bcbd22"/><text x="46" y="119" font-size="12">50%</text><path d="M555.4,259.7 L555.4,259.7 L555.4,259.7 L555.4,259.7 L555.4,259.7 L555.4,259.7 L555.4,259.7 L555.4,259.7 L555.4,259.7 L555.4,259.7 L555.4,259.7 L555.4,259.7 L555.4,259.7 L555.4,259.7 L555.4,259.7 L555.4,259.7 L555.4,259.7 L555.4,259.7 L555.4,259.7 L555.4,259.7 L555.4,259.7 L555.4,259.7 L555.4,259.7 L555.4,259.7 L555.4,259.7 L555.4,259.7 L555.4,259.7 L555.4,259.7 L555.4,259.7 L555.4,259.7 L555.4,259.7 L555.4,259.7 L555.4,259.7 L555.4,259.7 L555.4,259.7 L555.4,259.7 L555.4,259.7 L555.4,259.7 L555.4,259.7 L555.4,259.7 L555.4,259.7 L555.4,259.7 L555.4,259.7 L555.4,259.7 L555.4,259.7 L555.4,259.7 L555.4,259.7 L555.4,259.7 L555.4,259.7 L555.4,259.7 L555.4,259.7 L555.4,259.7 L555.4,259.7 L555.4,259.7 L555.4,259.7 L555.4,259.7 L555.4,259.7 L555.4,259.7 L555.4,259.7 L555.4,259.7 L555.4,259.7 L555.4,259.7 L555.4,259.7 L555.4,259.7 L555.4,259.7 L555.4,259.7 L555.4,259.7 L555.4,259.7 L555.4,259.7 L555.4,259.7 L555.4,259.7 L555.4,259.7 L555.4,259.7 L555.4,259.3 L556.0,258.4 L556.3,257.2 L557.2,256.0 L558.8,254.6 L559.0,253.4 L559.9,252.3 L560.7,251.1 L561.6,250.1 L561.6,249.1 L562.5,248.0 L564.3,246.8 L564.5,246.0 L565.2,244.8 L566.9,243.6 L567.3,242.7 L567.8,241.9 L569.6,240.7 L570.1,239.5 L570.5,238.5 L572.2,237.8 L573.0,236.6 L574.0,235.6 L574.9,234.6 L575.8,233.4 L576.7,232.5 L577.6,231.1 L578.4,230.1 L578.6,228.9 L579.3,227.8 L580.2,226.6 L581.1,225.6 L581.5,224.4 L582.0,223.2 L582.9,222.1 L583.8,220.9 L584.3,218.9 L584.6,217.4 L585.5,216.2 L585.5,214.8 L586.4,213.2 L586.4,211.9 L587.3,210.5 L587.3,209.3 L587.8,208.1 L587.8,206.4 L587.8,205.0 L587.8,203.4 L587.8,202.1 L588.2,200.7 L588.2,199.5 L588.2,197.9 L588.2,196.6 L588.2,195.2 L589.1,193.6 L589.1,191.9 L589.1,190.7 L590.0,189.3 L590.0,187.7 L590.7,186.4 L590.7,185.0 L590.8,183.8 L591.7,182.6 L591.7,181.1 L592.6,179.7 L592.8,178.5 L593.5,177.1 L594.4,176.0 L595.3,175.0 L595.3,173.8 L596.1,172.4 L597.0,171.3 L597.9,169.7 L598.8,168.3 L599.7,167.3 L600.6,166.2 L601.5,165.4 L601.6,164.4 L603.2,163.2 L604.1,162.4 L605.0,161.4 L605.9,160.7 L606.9,159.5 L608.5,158.3 L609.4,157.7 L609.8,156.9 L611.2,156.0 L613.0,155.2 L613.9,154.2 L614.7,153.8 L615.8,153.0 L616.5,152.4 L618.3,151.8 L619.2,151.1 L620.9,150.5 L621.8,149.9 L623.6,149.3 L624.5,148.9 L626.2,148.3 L627.1,147.9 L628.0,147.5 L629.8,147.3 L630.7,146.9 L632.4,146.5 L633.3,146.1 L635.1,146.0 L636.0,145.6 L637.8,145.6 L638.6,145.4 L640.4,145.2 L643.1,144.8 L644.5,144.8 L645.7,144.8 L647.3,144.6 L648.4,144.6 L650.5,144.6 L651.0,144.8 L652.8,144.8 L653.3,144.8 L654.6,145.0 L656.2,145.2 L658.1,145.2 L658.6,145.4 L659.9,145.6 L661.5,145.6 L662.5,145.8 L664.3,146.0 L665.2,146.3 L666.8,146.7 L669.6,147.3 L670.5,147.9 L672.3,148.3 L673.2,148.7 L674.0,149.1 L675.8,149.7 L676.7,149.9 L678.5,150.5 L679.4,151.1 L681.1,151.8 L682.0,152.2 L683.8,153.0 L684.5,153.6 L685.6,154.2 L686.6,155.0 L688.2,155.8 L690.2,156.3 L690.9,157.1 L692.6,157.7 L693.5,159.1 L695.3,160.1 L696.2,160.9 L697.9,161.6 L698.3,162.2 L699.7,163.2 L700.8,164.0 L701.5,165.0 L703.3,165.8 L704.1,167.1 L705.9,167.9 L706.8,168.7 L707.7,169.9 L709.4,170.7 L709.6,171.6 L711.2,172.6 L712.1,173.6 L712.5,174.2 L713.9,175.4 L714.8,176.4 L715.6,177.3 L716.5,178.1 L718.3,179.3 L718.8,180.3 L719.2,181.5 L721.0,182.4 L721.7,183.2 L721.8,184.4 L724.1,186.2 L724.5,187.1 L725.4,188.3 L727.0,189.5 L727.2,190.5 L728.0,191.5 L728.9,192.6 L729.5,193.6 L730.7,194.6 L731.6,196.0 L732.5,197.1 L733.0,198.1 L733.3,198.9 L734.2,200.1 L735.8,201.5 L736.0,202.4 L736.9,203.8 L737.8,205.2 L737.6,206.4 L739.5,208.5 L740.4,209.7 L741.1,210.7 L741.3,212.1 L742.2,213.0 L743.1,214.4 L744.0,215.6 L744.3,216.8 L744.9,217.9 L745.7,218.9 L746.6,220.1 L747.2,221.5 L747.5,222.7 L748.4,223.8 L749.3,225.0 L750.0,226.2 L750.2,227.4 L751.1,228.5 L751.1,229.9 L751.9,230.9 L752.1,232.3 L752.8,233.6 L753.7,234.6 L753.7,235.8 L754.6,237.4 L755.3,238.5 L755.5,239.7 L755.5,240.9 L756.4,242.1 L757.2,243.6 L758.1,244.8 L758.1,246.4 L758.5,247.4 L759.0,248.7 L759.9,250.5 L760.8,251.5 L760.8,252.7 L761.3,253.8 L761.7,255.0 L762.6,257.6 L763.4,258.7 L763.4,260.3 L764.2,261.7 L764.3,263.1 L764.3,264.4 L765.2,265.8 L765.2,266.8 L766.1,268.4 L766.1,270.5 L766.3,271.9 L766.3,273.5 L767.0,274.6 L767.0,275.8 L767.9,277.0 L767.9,278.4 L768.8,279.9 L768.8,281.3 L768.8,282.7 L769.6,284.6 L769.6,286.0 L769.8,287.2 L769.8,288.8 L770.5,290.3 L770.5,291.5 L771.4,292.7 L771.4,294.3 L771.4,295.2 L772.3,296.6 L772.7,299.0 L772.7,300.3 L773.2,301.7 L773.2,302.9 L773.2,304.3 L774.1,305.4 L774.1,306.8 L775.0,308.0 L775.0,309.4 L775.0,311.1 L775.5,313.3 L775.5,314.5 L775.8,316.0 L775.8,317.4 L776.7,318.8 L776.7,320.1 L776.7,321.7 L777.6,323.1 L777.6,324.1 L778.3,327.4 L778.3,329.0 L778.3,330.5 L778.5,331.5 L778.5,333.1 L778.5,334.5 L778.5,335.8 L779.4,337.0 L779.4,338.4 L780.3,341.9 L780.3,343.5 L780.3,344.9 L781.1,346.0 L781.1,347.4 L781.1,348.8 L781.1,350.2 L781.1,351.5 L782.0,352.9 L782.0,356.4 L782.9,358.0 L782.9,359.4 L782.9,360.7 L782.9,361.9 L782.9,363.3 L783.8,364.3 L783.8,365.9 L783.8,367.2 L783.8,368.6 L783.8,371.3 L783.8,372.7 L783.8,374.1 L784.0,375.7 L784.0,376.6 L784.0,378.0 L784.0,379.6 L784.0,380.8 L784.7,382.1 L784.7,385.9 L785.6,387.0 L785.6,388.4 L785.6,390.0 L785.6,391.5 L785.6,392.5 L786.5,394.1 L786.5,395.5 L786.5,396.5 L786.5,400.2 L786.5,401.9 L786.8,403.5 L786.8,404.7 L786.8,406.3 L786.8,407.4 L786.8,408.8 L786.8,410.2 L787.3,411.4 L787.3,412.7 L787.3,415.1 L787.3,416.7 L787.3,418.0 L787.3,419.6 L787.3,421.2 L787.3,422.3 L787.3,423.7 L787.3,425.1 L788.2,426.5 L787.3,429.6 L787.3,431.2 L788.2,432.3 L788.2,433.5 L788.2,435.1 L788.2,436.5 L788.2,437.6 L788.2,439.4 L788.2,440.6 L788.2,444.5 L788.2,446.1 L788.2,447.5 L788.2,448.4 L788.2,450.0 L788.2,451.8 L788.2,452.9 L788.2,454.5 L789.1,455.7 L789.1,459.0 L788.2,460.4 L788.2,461.6 L788.2,463.1 L788.2,464.5 L788.2,465.5 L788.2,467.1 L788.2,468.4 L788.2,470.0 L788.2,473.7 L788.2,475.5 L788.2,476.7 L788.2,477.9 L788.2,479.4 L788.2,480.6 L787.3,481.8 L787.3,483.4 L787.3,484.7 L787.3,485.7 L787.3,488.6 L787.3,489.8 L786.8,491.2 L786.8,492.8 L786.8,493.9 L786.8,495.7 L786.8,496.9 L786.8,498.1 L786.8,499.4 L787.3,503.0 L787.3,504.5 L787.3,505.9 L787.3,507.5 L787.3,509.0 L787.3,510.4 L787.3,512.0 L787.3,513.4 L788.2,514.5 L788.2,517.7 L788.2,519.1 L788.2,520.8 L788.2,522.0 L789.1,523.6 L789.1,524.7 L789.1,526.1 L789.1,527.7 L789.1,528.9 L789.6,532.4 L789.6,534.0 L789.6,535.3 L789.6,536.5 L790.0,537.9 L790.0,539.3 L790.0,540.4 L790.0,541.8 L790.0,543.4 L790.0,544.8 L790.0,547.1 L790.0,548.7 L790.0,550.0 L790.0,551.2 L790.0,552.8 L790.0,554.0 L790.0,555.1 L790.0,556.7 L790.0,557.9 L789.6,561.6 L789.6,563.4 L789.6,564.6 L789.6,565.9 L789.6,567.3 L789.6,568.9 L789.6,570.3 L789.1,571.6 L789.1,573.0 L789.1,576.3 L788.2,577.9 L788.2,579.3 L788.2,580.8 L787.3,582.2 L787.3,583.4 L787.3,585.0 L786.8,585.9 L786.8,587.5 L786.5,590.7 L785.6,592.2 L785.6,593.4 L785.6,594.8 L784.7,596.0 L784.7,597.5 L784.7,599.1 L784.0,600.5 L784.0,602.0 L783.8,605.4 L783.8,606.9 L782.9,608.3 L782.9,609.5 L782.9,610.9 L782.0,612.6 L782.0,613.8 L782.0,615.2 L781.1,616.7 L781.1,619.9 L781.1,621.1 L781.1,622.6 L780.3,624.0 L780.3,625.6 L780.3,626.6 L780.3,627.9 L779.4,629.5 L779.4,630.5 L779.4,631.8 L778.5,634.4 L778.5,636.0 L778.3,637.1 L778.3,638.3 L778.3,639.9 L777.6,641.1 L777.6,642.2 L776.7,643.4 L776.7,644.6 L775.8,646.2 L775.5,648.7 L775.5,650.1 L775.0,651.3 L774.1,652.6 L774.1,654.2 L773.2,655.4 L772.7,656.6 L772.7,658.1 L772.3,659.3 L771.4,660.5 L770.5,662.8 L769.8,664.0 L769.6,665.4 L769.6,666.8 L768.8,667.9 L767.9,669.3 L767.0,670.5 L767.0,671.5 L766.3,672.8 L766.1,674.2 L765.2,676.4 L764.3,677.9 L764.2,678.9 L763.4,680.5 L763.4,681.7 L762.6,682.7 L761.7,684.0 L761.3,685.2 L761.3,686.6 L760.8,687.8 L759.0,690.1 L759.0,691.1 L758.5,692.3 L758.1,693.8 L757.2,695.0 L756.4,696.4 L755.5,697.8 L755.3,698.7 L754.6,700.1 L752.8,703.1 L752.1,704.4 L751.1,705.8 L751.1,707.0 L750.2,708.2 L750.0,709.3 L749.3,710.5 L748.4,711.7 L747.5,713.1 L747.2,714.2 L746.6,716.4 L745.7,717.8 L744.9,719.1 L744.3,720.1 L744.0,721.7 L743.1,722.9 L742.2,724.2 L741.3,725.4 L741.1,726.8 L739.5,729.7 L738.7,731.1 L737.6,732.1 L737.8,733.5 L736.9,735.0 L736.0,736.0 L735.8,737.0 L735.1,738.4 L733.3,739.7 L732.5,742.5 L731.6,743.7 L730.7,745.0 L729.8,746.0 L728.9,747.4 L728.0,748.2 L727.2,749.5 L727.0,750.7 L726.3,751.9 L724.5,753.7 L723.6,756.0 L722.7,757.0 L721.8,758.2 L721.7,759.4 L721.0,760.7 L720.1,761.9 L720.1,762.7 L718.8,764.7 L718.3,765.8 L716.5,769.0 L715.6,770.5 L715.3,771.7 L714.8,772.9 L714.8,773.9 L713.9,776.4" fill="none" stroke="#ff7f0e" stroke-width="1.7" opacity="0.85"/><circle cx="714" cy="776" r="4.5" fill="#ff7f0e"/><rect x="28" y="128" width="13" height="13" fill="#ff7f0e"/><text x="46" y="139" font-size="12">100%</text><text x="28" y="832" font-size="11" fill="#888">ground track — m from pad (N up)</text></svg>