<svg xmlns="http://www.w3.org/2000/svg" width="1140" height="600" font-family="sans-serif" font-size="13"><rect width="1140" height="600" fill="white"/><text x="20" y="26" font-size="15" fill="#333">Coludo flight</text><rect x="20" y="40" width="540" height="540" fill="#fbfbfb" stroke="#ddd"/><rect x="347" y="308" width="122" height="26" fill="#cde" stroke="#369" opacity="0.7"/><text x="347" y="303" fill="#369" font-size="12">landing zone</text><circle cx="424" cy="349" r="5" fill="black"/><text x="432" y="353" font-size="12">pad</text><path d="M424.2,349.3 L424.2,349.3 L424.2,349.3 L424.2,349.3 L424.2,349.3 L424.2,349.3 L424.2,349.3 L424.2,349.3 L424.2,349.3 L424.2,349.3 L424.2,349.3 L424.2,349.3 L424.2,349.3 L424.2,349.3 L424.2,349.3 L424.2,349.3 L424.2,349.3 L424.2,349.3 L424.2,349.3 L424.2,349.3 L424.2,349.3 L424.2,349.3 L424.2,349.3 L424.2,349.3 L424.2,349.3 L424.2,349.3 L424.2,349.3 L424.2,349.3 L424.2,349.3 L424.2,349.3 L424.2,349.3 L424.2,349.3 L424.2,349.3 L424.2,349.3 L424.2,349.3 L424.2,349.3 L424.2,349.3 L424.2,349.3 L424.2,349.3 L424.2,349.3 L424.2,349.3 L424.2,349.3 L424.2,349.3 L424.2,349.3 L424.2,349.3 L424.2,349.3 L424.2,349.3 L424.2,349.3 L424.2,349.3 L424.2,349.3 L424.2,349.3 L424.2,349.3 L424.2,349.3 L424.2,349.3 L424.2,349.3 L424.2,349.3 L424.2,349.3 L424.2,349.3 L424.2,349.3 L424.2,349.3 L424.2,349.3 L424.2,349.3 L424.2,349.3 L424.2,349.3 L424.2,349.3 L424.2,349.3 L424.2,349.3 L424.2,349.3 L424.2,349.3 L424.2,349.3 L424.2,349.3 L424.2,349.3 L424.6,348.5 L424.9,347.7 L425.5,346.8 L426.2,345.8 L426.7,345.0 L426.8,344.2 L428.2,343.3 L428.8,342.6 L429.5,341.7 L430.1,341.0 L430.8,340.1 L431.4,339.5 L432.1,338.8 L433.0,337.9 L433.4,337.3 L434.7,336.6 L435.1,336.0 L436.0,335.5 L437.2,334.4 L438.0,333.7 L439.3,333.3 L439.8,332.5 L440.6,331.8 L441.4,331.1 L441.9,330.5 L443.2,329.6 L443.9,328.9 L444.5,328.0 L445.6,327.3 L445.8,326.4 L446.5,325.6 L447.8,324.9 L448.2,324.0 L448.5,323.1 L449.1,322.1 L449.8,321.2 L450.3,320.2 L450.4,319.2 L451.1,318.3 L451.7,317.3 L451.9,316.3 L452.4,315.3 L452.4,314.2 L453.1,313.1 L453.7,312.2 L453.7,311.1 L454.0,310.0 L454.0,309.2 L454.0,308.0 L454.4,307.0 L454.4,306.3 L454.4,305.1 L454.4,304.1 L455.0,303.4 L455.0,302.2 L455.0,301.0 L455.7,300.0 L455.7,299.1 L456.1,298.0 L456.1,297.3 L456.3,296.2 L457.0,295.1 L457.0,294.2 L457.6,292.9 L458.3,292.0 L458.4,291.2 L459.0,290.3 L459.6,289.3 L460.3,288.5 L460.8,287.5 L461.6,286.5 L462.2,285.6 L462.4,284.9 L463.5,284.0 L464.2,283.2 L464.5,282.6 L465.5,281.7 L466.2,281.1 L467.3,280.3 L467.5,279.7 L468.8,279.0 L469.4,278.1 L470.8,277.5 L471.5,276.9 L472.1,276.5 L472.9,275.9 L474.0,275.5 L474.9,274.9 L476.0,274.3 L476.7,274.0 L478.0,273.6 L479.3,273.1 L479.4,272.9 L481.2,272.4 L481.5,272.1 L482.6,271.8 L483.3,271.5 L485.2,271.3 L485.8,271.1 L487.1,271.0 L488.4,270.8 L489.8,270.8 L490.4,270.7 L491.7,270.7 L492.4,270.7 L493.7,270.7 L495.0,270.8 L495.7,270.8 L497.0,270.8 L498.8,271.0 L499.6,271.3 L500.6,271.4 L501.6,271.7 L502.7,272.0 L502.9,272.3 L504.8,272.6 L504.8,272.9 L506.7,273.6 L508.1,273.9 L508.8,274.3 L509.4,274.7 L510.7,275.3 L511.4,275.9 L512.7,276.5 L513.2,276.9 L514.0,277.6 L515.3,278.7 L516.6,279.4 L517.3,280.0 L517.9,280.7 L518.6,281.3 L519.3,282.2 L519.9,282.9 L520.6,283.7 L521.3,284.6 L522.5,285.8 L523.2,286.8 L524.0,287.5 L524.5,288.7 L524.5,289.3 L525.8,290.3 L525.8,291.3 L525.8,292.0 L526.5,293.0 L527.8,294.6 L527.8,295.5 L527.9,296.4 L527.9,297.4 L528.4,298.3 L528.4,299.1 L529.1,300.3 L529.1,301.2 L529.7,302.3 L529.7,303.4 L529.7,304.4 L530.0,305.2 L530.0,306.4 L530.0,307.4 L530.0,308.6 L530.0,309.7 L530.0,310.5 L530.0,311.6 L529.7,312.7 L529.7,314.4 L529.7,315.6 L529.1,316.3 L529.1,317.4 L528.4,318.6 L528.4,319.3 L527.9,320.5 L527.9,321.4 L527.8,322.2 L527.1,323.1 L526.5,324.0 L525.8,325.0 L525.8,326.0 L525.8,326.9 L525.2,327.8 L524.5,328.6 L523.8,329.5 L523.2,330.7 L522.5,331.4 L521.3,332.5 L521.2,333.6 L519.9,334.3 L519.8,335.0 L519.3,335.7 L517.9,336.5 L517.4,337.1 L516.6,337.8 L516.0,338.5 L515.3,339.1 L514.7,339.7 L513.4,340.1 L513.2,340.7 L512.0,341.3 L510.9,341.8 L510.7,342.4 L509.4,342.7 L508.8,343.3 L507.5,343.7 L506.8,344.2 L505.5,344.6 L504.8,345.0 L504.2,345.5 L502.9,345.6 L502.2,346.1 L500.9,346.3 L500.2,346.6 L498.9,346.9 L498.3,347.1 L496.3,347.5 L495.0,347.7 L494.6,347.8 L493.0,347.9 L492.3,348.1 L491.1,348.1 L490.2,348.2 L489.1,348.2 L488.1,348.2 L487.1,348.2 L485.8,348.2 L485.2,348.2 L483.9,348.1 L483.2,348.1 L481.9,347.9 L481.2,347.8 L479.9,347.8 L479.3,347.5 L478.0,347.4 L477.3,347.2 L476.0,347.1 L474.9,346.8 L474.0,346.5 L472.9,346.2 L471.4,345.8 L470.8,345.6 L469.4,345.2 L468.9,344.9 L467.5,344.3 L466.8,343.9 L465.5,343.3 L464.5,342.7 L463.5,342.3 L462.4,341.7 L462.2,341.3 L460.9,340.7 L460.3,340.0 L459.0,339.5 L458.3,338.6 L457.0,337.9 L456.3,337.3 L455.7,336.5 L455.0,335.9 L454.4,335.2 L453.7,334.4 L453.1,333.6 L452.4,333.0 L451.9,332.3 L451.1,331.4 L450.3,330.5 L449.8,329.8 L449.1,328.9 L448.2,328.2 L447.8,327.5 L447.2,326.7 L445.8,325.9 L445.6,325.1 L443.9,323.5 L443.2,322.7 L441.9,321.9 L441.4,321.4 L440.6,320.6 L440.0,319.9 L439.3,319.2 L438.0,318.6 L437.3,317.9 L435.4,316.6 L434.7,316.0 L434.1,315.6 L433.0,315.1 L432.1,314.5 L430.9,314.1 L430.1,313.5 L429.5,313.1 L428.8,312.7 L427.5,312.4 L425.5,311.8 L424.6,311.3 L423.6,311.1 L422.5,310.8 L421.6,310.3 L420.4,310.0 L419.6,309.9 L418.3,309.7 L417.7,309.6 L415.7,309.2 L414.1,309.0 L413.1,309.0 L412.0,308.9 L411.1,308.9 L409.9,308.9 L409.1,308.9 L407.8,309.0 L407.2,309.0 L404.6,309.3 L403.6,309.5 L402.6,309.6 L401.5,309.7 L400.6,309.9 L399.4,310.2 L398.7,310.5 L397.4,310.8 L396.7,311.1 L394.1,311.8 L393.2,312.1 L392.1,312.4 L391.1,312.7 L390.1,312.9 L388.8,313.4 L388.2,313.8 L386.9,314.2 L386.2,314.7 L384.2,315.7 L382.9,316.3 L382.3,316.7 L381.0,317.3 L380.3,317.7 L379.0,318.3 L378.3,318.8 L377.7,319.3 L376.4,319.8 L374.4,321.1 L373.8,321.5 L372.4,321.8 L371.8,322.4 L370.5,322.8 L369.6,323.1 L368.5,323.5 L367.7,324.0 L366.5,324.4 L364.6,325.0 L363.3,325.4 L362.0,325.7 L361.3,325.9 L360.0,326.2 L359.1,326.4 L358.0,326.6 L357.0,326.7 L355.4,326.9 L353.4,327.2 L352.8,327.3 L351.5,327.5 L350.4,327.5 L348.9,327.5 L348.2,327.6 L346.9,327.6 L346.2,327.6 L344.9,327.8 L342.3,327.8 L341.6,327.8 L340.3,327.6 L339.7,327.6 L338.4,327.5 L337.7,327.5 L336.4,327.3 L335.7,327.2 L334.4,327.2 L331.8,326.7 L331.2,326.6 L329.8,326.4 L329.2,326.3 L327.9,326.2 L326.6,325.9 L325.9,325.7 L324.6,325.6 L323.9,325.4 L321.3,325.0 L320.0,324.9 L319.2,324.9 L318.1,324.7 L317.1,324.6 L316.1,324.6 L314.8,324.6 L314.1,324.4 L312.8,324.4 L311.1,324.3 L309.5,324.1 L308.2,324.1 L306.9,324.0 L306.3,324.0 L304.9,323.8 L304.3,323.7 L303.0,323.7 L301.9,323.7 L299.7,323.5 L298.4,323.5 L297.1,323.5 L295.9,323.5 L295.1,323.5 L294.1,323.5 L293.1,323.5 L291.8,323.5 L291.2,323.5 L288.6,323.5 L288.0,323.5 L286.6,323.5 L285.4,323.5 L284.6,323.5 L283.3,323.7 L282.0,323.7 L281.0,323.7 L280.0,323.7 L277.4,323.7 L276.8,323.7 L275.5,323.7 L274.8,323.7 L273.5,323.7 L272.2,323.7 L270.9,323.7 L270.2,323.5 L268.9,323.5 L266.9,323.4 L266.3,323.4 L264.7,323.3 L263.7,323.3 L262.3,323.1 L261.7,323.0 L260.4,322.8 L259.7,322.8 L258.4,322.7 L256.3,322.4 L255.1,322.2 L253.8,322.2 L252.5,322.1 L251.6,321.9 L250.5,321.9 L249.5,321.8 L248.6,321.7 L247.4,321.7 L245.3,321.7 L244.0,321.7 L243.2,321.5 L242.0,321.4 L241.1,321.4 L240.1,321.2 L239.0,321.2 L238.1,321.1 L236.8,320.9 L234.8,320.8 L232.9,320.6 L232.2,320.3 L230.9,320.2 L230.2,320.1 L228.9,320.1 L228.3,319.8 L227.0,319.6 L226.3,319.6 L223.7,319.2 L222.4,319.2 L221.7,319.0 L220.1,319.0 L219.1,318.9 L218.0,318.9 L217.1,318.8 L215.9,318.8 L214.5,318.8 L212.5,318.8 L211.7,318.8 L210.6,318.6 L209.3,318.6 L207.9,318.6 L207.3,318.6 L206.0,318.6 L205.2,318.6 L204.0,318.8 L201.4,318.8 L200.7,318.8 L199.4,318.8 L198.8,318.8 L197.5,318.8 L196.8,318.9 L194.8,318.9 L194.2,318.9 L192.9,319.0 L190.9,319.0 L189.6,319.2 L188.7,319.2 L187.6,319.2 L186.3,319.2 L185.7,319.0 L184.2,319.0 L183.0,319.0 L182.1,319.0 L179.8,319.0 L178.5,318.9 L177.8,318.9 L176.5,318.8 L175.6,318.8 L174.5,318.8 L173.5,318.8 L171.9,318.6 L171.2,318.6 L169.3,318.5 L168.0,318.3 L166.7,318.3 L165.3,318.2 L164.7,318.0 L163.4,318.0 L162.7,317.9 L161.4,317.9 L160.8,317.7 L158.1,317.6 L156.8,317.4 L156.2,317.4 L154.3,317.4 L153.5,317.3 L152.8,317.3 L151.6,317.3 L150.4,317.3 L149.6,317.3 L147.0,317.4 L145.7,317.4 L144.4,317.4 L143.7,317.4 L142.4,317.6 L141.8,317.6 L140.4,317.6 L139.8,317.7 L138.5,317.9 L135.9,318.0 L135.2,318.2 L133.6,318.3 L132.6,318.5 L131.8,318.5 L130.6,318.6 L129.7,318.8 L128.6,318.8 L127.3,318.9 L125.2,319.0 L124.1,319.0 L123.1,319.2 L122.1,319.2 L121.0,319.2 L119.5,319.2 L118.4,319.2 L117.5,319.2 L116.3,319.0 L114.2,319.0 L112.9,318.9 L112.3,318.8 L111.0,318.8 L110.3,318.8 L109.0,318.6 L107.7,318.5 L106.4,318.5 L105.7,318.3 L103.1,318.2 L101.9,318.0 L101.1,318.0 L100.3,318.0 L98.5,318.0 L97.4,318.0 L96.5,318.2 L95.4,318.2 L94.6,318.2 L92.6,318.5 L91.3,318.5 L90.0,318.6 L89.1,318.6 L88.0,318.8 L86.7,318.8 L86.0,318.8 L84.7,318.8 L83.4,318.9 L81.5,319.2 L80.1,319.3 L78.8,319.5 L78.2,319.6 L76.9,319.8 L76.2,319.9 L74.4,320.1 L73.6,320.2 L72.8,320.2 L70.3,320.5 L69.7,320.6 L68.4,320.8 L67.7,321.1 L66.0,321.2 L65.7,321.5 L64.4,321.7 L63.1,321.8 L62.5,321.9 L59.7,322.7 L57.9,323.1 L57.2,323.3 L55.9,323.5 L55.2,323.8 L53.9,324.0 L52.6,324.3 L51.3,324.6 L50.0,324.7" fill="none" stroke="#1f77b4" stroke-width="1.7" opacity="0.85"/><circle cx="50" cy="325" r="4.5" fill="#1f77b4"/><text x="28" y="572" font-size="11" fill="#888">ground track — m from pad (N up)</text><rect x="580" y="40" width="540" height="540" fill="#fbfbfb" stroke="#ddd"/><text x="586" y="54" fill="#1f77b4" font-size="11">alt 392</text><text x="586" y="558" fill="#1f77b4" font-size="11">-100</text><path d="M635.4,446.9 L635.7,447.4 L636.0,446.8 L636.2,446.7 L636.5,446.8 L636.8,446.7 L637.1,445.2 L637.4,444.3 L637.7,445.6 L638.0,445.2 L638.3,442.6 L638.6,442.4 L638.9,441.2 L639.2,440.5 L639.4,438.7 L639.8,440.1 L640.0,436.4 L640.3,438.9 L640.6,436.2 L640.9,433.1 L641.2,435.8 L641.5,432.8 L641.8,426.6 L642.0,426.3 L642.3,428.8 L642.6,425.9 L642.8,424.3 L643.1,419.9 L643.4,415.5 L643.7,416.2 L644.0,418.8 L644.2,415.9 L644.5,418.6 L644.8,411.7 L645.1,406.3 L645.3,412.8 L645.6,412.0 L645.9,393.6 L646.1,407.4 L646.4,405.4 L646.7,409.3 L647.0,404.2 L647.3,384.8 L647.6,376.4 L647.9,380.2 L648.1,371.3 L648.4,369.3 L648.7,385.4 L648.9,365.9 L649.2,378.4 L649.5,384.8 L649.8,373.5 L650.1,349.4 L650.4,363.2 L650.8,379.2 L651.0,332.2 L651.3,344.4 L651.7,334.2 L652.0,365.7 L652.3,334.5 L652.6,309.3 L652.8,337.5 L653.2,336.2 L653.4,305.7 L653.8,352.4 L654.1,329.2 L654.4,335.5 L654.7,288.7 L655.0,321.9 L655.3,334.2 L655.6,326.3 L655.8,281.3 L656.2,298.5 L656.4,274.1 L656.8,298.6 L657.0,290.8 L657.3,293.8 L657.6,299.0 L657.9,257.7 L658.2,295.5 L658.5,299.4 L659.1,265.0 L659.4,273.4 L659.7,219.7 L660.0,235.8 L660.3,249.9 L660.6,262.7 L660.9,204.5 L661.2,214.6 L661.5,255.5 L661.8,254.2 L662.1,181.3 L662.5,250.2 L662.8,257.6 L663.0,272.4 L663.4,253.3 L663.6,232.8 L663.9,269.1 L664.2,164.7 L664.4,235.2 L664.7,188.8 L665.0,172.6 L665.2,241.5 L665.5,188.2 L665.8,154.8 L666.1,244.8 L666.4,191.9 L666.7,137.3 L667.0,164.3 L667.3,226.9 L667.6,126.1 L668.0,242.0 L668.2,235.3 L668.5,170.6 L668.8,155.0 L669.1,174.5 L669.4,173.9 L669.6,231.2 L669.9,130.5 L670.3,178.2 L670.6,223.8 L670.9,187.9 L671.2,178.1 L671.5,202.2 L671.8,141.9 L672.1,206.3 L672.4,140.5 L672.7,133.1 L673.0,164.3 L673.3,213.3 L673.5,96.9 L673.8,206.0 L674.1,95.1 L674.3,196.2 L674.6,212.9 L674.9,79.6 L675.2,135.3 L675.5,108.4 L675.8,222.6 L676.1,218.4 L676.4,100.8 L676.7,152.1 L677.0,174.6 L677.3,99.7 L677.6,117.8 L677.9,156.4 L678.2,129.9 L678.5,80.5 L678.8,146.4 L679.1,204.9 L679.4,177.4 L679.7,145.4 L679.9,95.2 L680.2,83.6 L680.6,184.8 L680.9,180.8 L681.2,103.2 L681.5,93.0 L681.8,218.5 L682.1,127.3 L682.4,211.9 L682.7,89.3 L683.0,107.1 L683.4,200.7 L683.7,135.6 L684.0,196.7 L684.3,106.5 L684.6,76.0 L684.8,218.0 L685.1,168.7 L685.4,89.9 L685.7,166.2 L686.0,173.6 L686.4,126.1 L686.7,87.6 L687.0,82.8 L687.3,180.8 L687.5,101.4 L687.9,176.1 L688.2,197.9 L688.5,205.0 L688.8,166.6 L689.0,145.3 L689.4,120.9 L689.7,124.0 L690.2,215.6 L690.5,82.7 L690.9,156.8 L691.2,148.6 L691.5,169.9 L691.8,134.5 L692.1,102.2 L692.5,206.2 L692.8,127.9 L693.1,94.1 L693.4,137.8 L693.8,87.7 L694.1,97.2 L694.4,148.8 L694.7,145.1 L695.0,194.0 L695.4,127.5 L695.9,197.1 L696.2,194.8 L696.4,167.4 L696.8,174.8 L697.1,78.4 L697.4,118.4 L697.7,209.2 L698.0,128.6 L698.3,112.0 L698.6,100.0 L698.9,189.3 L699.2,222.8 L699.5,149.7 L699.9,128.8 L700.2,112.1 L700.5,189.1 L700.8,92.5 L701.2,130.9 L701.5,109.8 L701.8,134.4 L702.1,225.0 L702.4,115.6 L702.8,120.7 L703.1,199.8 L703.4,108.5 L703.7,188.1 L704.0,102.3 L704.4,109.2 L704.7,127.3 L705.0,205.8 L705.3,175.5 L705.7,181.7 L706.0,107.3 L706.3,155.7 L706.6,197.4 L707.1,184.5 L707.4,128.1 L707.7,114.2 L708.0,146.7 L708.3,233.2 L708.7,115.5 L709.0,121.8 L709.3,181.7 L709.6,219.3 L709.8,148.7 L710.1,186.6 L710.4,219.5 L710.7,191.2 L711.0,116.0 L711.3,183.7 L711.6,221.4 L711.8,143.1 L712.1,144.1 L712.4,224.0 L712.8,179.1 L713.1,115.0 L713.4,134.5 L713.7,153.3 L714.0,100.4 L714.2,215.9 L714.6,104.0 L714.9,195.6 L715.2,200.5 L715.5,169.6 L715.7,229.9 L716.1,208.7 L716.4,167.1 L716.7,195.6 L717.0,217.2 L717.3,238.3 L717.7,194.6 L718.0,122.2 L718.4,171.4 L718.7,161.7 L719.0,241.9 L719.3,145.9 L719.6,220.5 L719.9,179.9 L720.1,219.7 L720.5,167.4 L720.8,195.7 L721.1,221.4 L721.4,215.9 L721.7,144.2 L722.1,168.4 L722.4,214.3 L722.7,203.6 L723.0,188.1 L723.4,176.1 L723.7,211.7 L724.0,217.3 L724.3,173.9 L724.6,166.4 L725.0,154.6 L725.2,131.8 L725.5,210.6 L725.8,135.0 L726.1,122.3 L726.4,205.4 L726.7,226.8 L727.0,171.3 L727.3,236.7 L727.6,135.2 L728.0,231.4 L728.3,156.0 L728.6,242.3 L728.9,243.5 L729.2,140.6 L729.6,158.9 L729.9,181.7 L730.2,199.7 L730.5,194.5 L730.9,138.8 L731.2,142.6 L731.5,185.8 L731.8,182.5 L732.1,235.5 L732.4,163.4 L732.7,245.3 L733.0,191.1 L733.3,134.9 L733.6,193.7 L734.0,158.8 L734.2,220.5 L734.5,173.6 L734.8,161.8 L735.3,205.4 L735.5,142.7 L735.8,186.3 L736.1,203.8 L736.4,212.4 L736.7,201.3 L737.0,167.8 L737.3,145.5 L737.6,251.5 L737.9,153.4 L738.2,228.3 L738.5,239.0 L738.8,172.8 L739.1,194.9 L739.3,190.8 L739.6,148.1 L739.9,149.8 L740.2,188.1 L740.5,260.7 L741.0,243.6 L741.2,191.5 L741.5,240.8 L741.8,216.4 L742.1,164.8 L742.4,264.9 L742.7,187.3 L743.0,227.7 L743.3,172.0 L743.6,177.5 L743.9,219.3 L744.3,193.1 L744.6,186.4 L744.9,240.8 L745.2,213.7 L745.5,197.7 L745.8,269.4 L746.1,202.0 L746.8,166.1 L747.2,269.6 L747.5,241.1 L747.8,242.1 L748.1,171.7 L748.4,179.2 L748.7,169.8 L749.0,218.2 L749.3,244.0 L749.6,233.3 L749.9,174.9 L750.2,247.2 L750.5,184.0 L750.8,208.1 L751.1,234.0 L751.4,208.8 L751.7,254.0 L752.0,234.9 L752.7,267.8 L753.1,203.8 L753.4,191.7 L753.7,275.1 L753.9,230.0 L754.2,238.2 L754.5,259.0 L754.8,219.2 L755.1,265.8 L755.4,213.8 L755.7,278.8 L756.1,204.0 L756.4,270.9 L756.7,247.4 L756.9,282.1 L757.2,261.6 L757.5,250.5 L757.8,209.3 L758.1,263.5 L758.7,245.1 L759.0,261.1 L759.2,238.5 L759.5,230.1 L759.8,259.9 L760.1,198.8 L760.5,248.5 L760.7,224.4 L761.0,272.1 L761.3,217.1 L761.6,244.3 L762.0,295.5 L762.3,203.0 L762.6,206.0 L762.9,295.4 L763.2,263.2 L763.5,287.5 L763.8,227.7 L764.5,264.8 L764.9,213.9 L765.2,290.5 L765.4,282.6 L765.7,235.5 L766.0,250.9 L766.2,261.6 L766.5,236.1 L766.8,249.7 L767.1,293.6 L767.4,265.5 L767.7,280.8 L768.0,219.5 L768.3,248.7 L768.6,238.3 L768.8,218.8 L769.1,241.2 L769.5,294.0 L769.8,278.2 L770.4,225.0 L770.7,274.5 L771.0,276.1 L771.2,297.7 L771.5,297.6 L771.8,251.7 L772.1,264.8 L772.4,299.9 L772.7,264.4 L773.0,272.2 L773.2,278.6 L773.5,233.5 L773.9,268.1 L774.2,251.8 L774.5,271.3 L774.8,244.7 L775.1,267.2 L775.4,305.5 L775.7,245.9 L776.3,320.4 L776.6,280.7 L776.9,255.1 L777.2,245.9 L777.5,250.3 L777.7,306.5 L778.0,295.0 L778.3,243.9 L778.6,321.0 L778.9,271.9 L779.2,275.4 L779.5,279.5 L779.8,277.2 L780.1,305.2 L780.4,256.3 L780.7,286.4 L781.0,260.2 L781.3,256.9 L781.6,317.1 L782.2,305.0 L782.5,293.9 L782.9,297.2 L783.1,298.3 L783.4,289.2 L783.7,292.0 L784.0,260.6 L784.4,309.1 L784.6,280.0 L784.9,309.4 L785.2,301.0 L785.5,317.4 L785.8,301.1 L786.1,265.0 L786.4,284.7 L786.7,300.9 L787.0,305.2 L787.3,306.2 L787.6,313.4 L788.2,311.4 L788.5,303.7 L788.8,281.6 L789.1,301.3 L789.4,327.8 L789.7,292.8 L790.0,290.4 L790.3,277.0 L790.6,301.4 L790.9,332.8 L791.2,296.6 L791.5,316.6 L791.8,335.1 L792.0,313.7 L792.3,309.1 L792.6,328.1 L792.9,333.8 L793.3,323.2 L794.0,350.5 L794.3,310.7 L794.7,296.3 L795.0,350.7 L795.3,292.8 L795.6,333.6 L795.9,296.2 L796.2,319.1 L796.5,314.6 L796.8,309.6 L797.0,327.9 L797.3,328.6 L797.6,328.5 L797.9,343.5 L798.2,334.0 L798.5,326.4 L798.8,347.3 L799.1,303.5 L799.3,316.2 L799.9,329.5 L800.1,354.3 L800.5,348.8 L800.7,336.9 L801.0,337.9 L801.3,322.6 L801.6,322.9 L802.0,315.9 L802.2,320.6 L802.5,331.9 L802.8,352.1 L803.0,347.5 L803.3,323.3 L803.7,325.5 L803.9,353.4 L804.2,349.3 L804.5,332.1 L804.8,350.4 L805.2,328.9 L805.8,327.4 L806.1,344.8 L806.4,357.2 L806.6,323.3 L806.9,342.6 L807.3,332.0 L807.5,368.2 L807.9,327.0 L808.1,371.0 L808.4,363.4 L808.7,345.6 L809.0,328.2 L809.3,346.2 L809.6,365.1 L809.9,338.9 L810.2,332.5 L810.5,370.8 L810.8,346.7 L811.1,357.1 L811.7,374.8 L812.0,367.7 L812.3,345.2 L812.6,378.2 L812.9,363.7 L813.2,368.1 L813.5,354.6 L813.8,342.1 L814.1,347.2 L814.4,357.5 L814.7,344.0 L814.9,380.2 L815.3,358.1 L815.6,383.3 L815.8,378.3 L816.1,350.1 L816.4,370.6 L816.7,348.8 L817.0,353.3 L817.6,384.0 L817.9,369.6 L818.2,370.4 L818.5,383.6 L818.8,358.6 L819.1,354.9 L819.4,366.8 L819.7,374.8 L820.0,363.7 L820.3,359.5 L820.6,382.5 L820.8,375.6 L821.1,370.1 L821.5,370.5 L821.7,378.2 L822.0,386.5 L822.3,390.5 L822.6,370.7 L822.9,383.7 L823.5,392.6 L823.8,383.9 L824.1,376.8 L824.3,398.3 L824.6,375.8 L824.9,390.4 L825.2,389.9 L825.5,402.2 L825.9,391.3 L826.2,375.1 L826.5,381.2 L826.8,383.6 L827.2,377.8 L827.5,377.8 L827.8,406.1 L828.0,382.6 L828.3,382.8 L828.6,380.5 L828.8,389.9 L829.4,405.1 L829.7,383.6 L829.9,390.9 L830.3,405.1 L830.6,407.3 L830.9,397.1 L831.2,396.5 L831.6,389.2 L831.9,390.0 L832.2,390.1 L832.5,410.5 L832.8,399.5 L833.1,414.7 L833.4,411.5 L833.7,404.2 L834.1,412.2 L834.3,404.7 L834.6,416.6 L835.3,403.0 L835.6,418.8 L835.9,410.6 L836.2,406.2 L836.5,408.9 L836.8,406.5 L837.1,409.0 L837.4,421.3 L837.7,416.2 L838.0,411.0 L838.3,407.6 L838.6,422.9 L838.8,421.3 L839.1,414.0 L839.4,423.6 L839.7,421.6 L840.0,416.7 L840.3,421.3 L840.6,413.6 L841.2,426.8 L841.5,424.2 L841.7,420.7 L842.1,426.1 L842.4,430.1 L842.6,425.0 L843.0,425.7 L843.2,421.7 L843.5,430.3 L843.8,429.0 L844.1,425.4 L844.3,422.7 L844.6,424.9 L844.9,432.7 L845.2,433.8 L845.5,431.7 L845.9,431.0 L846.1,429.4 L846.4,431.4 L847.6,436.6 L847.9,436.8 L848.2,437.6 L848.5,434.0 L848.8,440.3 L849.1,435.3 L849.4,441.1 L849.7,437.4 L850.0,439.5 L850.3,440.5 L850.6,442.9 L851.0,442.0 L851.3,441.5 L851.6,442.2 L851.9,443.2 L852.2,443.9 L852.6,444.4 L852.9,444.4 L853.9,448.0 L854.2,448.0 L854.5,448.7 L854.8,449.6 L855.0,450.1 L855.3,450.2 L855.6,451.5 L855.9,452.0 L856.2,452.1 L856.5,451.6 L856.8,453.0 L857.1,453.5 L857.4,455.5 L857.7,455.5 L858.0,456.3 L858.4,457.5 L858.6,456.4 L858.9,458.5 L859.3,456.6 L860.3,459.7 L860.6,457.9 L860.8,458.4 L861.1,459.0 L861.4,461.4 L861.7,466.4 L862.1,466.6 L862.3,465.4 L862.6,467.5 L863.0,463.6 L863.3,462.4 L863.6,467.5 L863.9,464.1 L864.3,465.5 L864.6,467.6 L864.9,470.4 L865.1,470.6 L865.4,472.9 L866.7,469.4 L866.9,469.7 L867.2,477.7 L867.5,468.5 L867.9,476.9 L868.1,476.2 L868.4,470.3 L868.8,481.9 L869.1,481.6 L869.4,481.9 L869.7,479.3 L870.0,485.7 L870.3,485.3 L870.6,474.9 L871.0,486.7 L871.3,478.0 L871.6,484.1 L871.8,480.2 L873.0,480.3 L873.3,480.0 L873.6,494.7 L873.9,486.3 L874.1,485.2 L874.4,482.1 L874.8,489.1 L875.1,484.9 L875.4,482.4 L875.7,487.4 L876.0,485.0 L876.3,489.2 L876.6,487.3 L877.0,491.5 L877.2,501.1 L877.6,491.6 L877.9,498.6 L878.2,496.6 L879.4,508.5 L879.7,485.2 L880.0,492.7 L880.2,496.0 L880.6,492.8 L880.9,505.3 L881.1,489.0 L881.5,513.8 L881.7,493.0 L882.1,491.0 L882.3,507.8 L882.6,516.3 L883.0,511.8 L883.2,497.2 L883.6,497.3 L883.8,505.7 L884.1,508.9 L884.5,507.6 L885.7,495.6 L886.1,496.2 L886.4,517.1 L886.7,512.2 L887.0,516.5 L887.3,515.9 L887.6,523.6 L887.9,513.9 L888.2,526.4 L888.5,498.1 L888.8,520.8 L889.1,502.4 L889.4,529.3 L889.7,523.4 L890.0,511.3 L890.3,529.4 L890.6,511.3 L891.0,501.8 L892.1,533.2 L892.5,508.2 L892.7,506.8 L893.1,539.1 L893.3,526.7 L893.6,522.2 L893.9,533.7 L894.2,507.8 L894.6,517.8 L894.9,507.7 L895.1,541.6 L895.5,528.9 L895.8,541.2 L896.1,526.4 L896.4,543.9 L896.7,529.8 L897.0,538.6 L897.3,519.7 L898.5,528.0 L898.8,536.9 L899.2,544.0 L899.5,539.6 L899.8,538.4 L900.1,544.0 L900.4,544.0 L900.7,544.0 L901.0,532.8 L901.4,542.6 L901.7,544.0 L902.0,544.0 L902.3,544.0 L902.6,544.0 L903.0,518.8 L903.3,518.5 L903.6,544.0 L904.9,544.0 L905.2,544.0 L905.5,537.0 L905.9,544.0 L906.2,544.0 L906.5,543.6 L906.8,544.0 L907.1,533.5 L907.4,535.1 L907.7,526.5 L908.1,544.0 L908.4,540.6 L908.7,544.0 L909.0,544.0 L909.3,544.0 L909.7,543.8 L910.0,544.0 L910.3,544.0 L911.3,539.1 L911.6,533.0 L911.9,544.0 L912.2,544.0 L912.5,544.0 L912.8,544.0 L913.2,541.5 L913.4,544.0 L913.7,531.5 L914.1,530.2 L914.4,538.9 L914.7,544.0 L915.0,544.0 L915.3,544.0 L915.6,532.1 L915.8,535.2 L916.2,544.0 L916.4,544.0 L917.7,544.0 L918.0,544.0 L918.3,544.0 L918.6,544.0 L918.9,544.0 L919.2,544.0 L919.5,544.0 L919.8,544.0 L920.1,544.0 L920.4,544.0 L920.7,544.0 L921.0,544.0 L921.3,544.0 L921.6,544.0 L921.9,544.0 L922.2,544.0 L922.5,544.0 L922.8,544.0 L924.1,544.0 L924.4,544.0 L924.7,543.0 L925.0,544.0 L925.3,544.0 L925.6,544.0 L925.9,544.0 L926.2,544.0 L926.6,544.0 L926.9,544.0 L927.2,544.0 L927.5,544.0 L927.8,544.0 L928.1,544.0 L928.4,544.0 L928.7,544.0 L929.0,544.0 L929.3,544.0 L930.4,544.0 L930.7,544.0 L931.1,544.0 L931.4,544.0 L931.7,544.0 L932.0,544.0 L932.3,544.0 L932.6,544.0 L932.9,544.0 L933.2,544.0 L933.5,544.0 L933.8,544.0 L934.1,544.0 L934.4,544.0 L934.8,544.0 L935.0,544.0 L935.4,544.0 L935.7,544.0 L936.8,544.0 L937.1,544.0 L937.4,544.0 L937.8,544.0 L938.1,544.0 L938.4,544.0 L938.7,544.0 L939.1,544.0 L939.4,544.0 L939.7,544.0 L940.0,544.0 L940.3,544.0 L940.6,544.0 L940.9,544.0 L941.1,544.0 L941.4,544.0 L941.7,544.0 L942.1,544.0 L943.2,544.0 L943.5,544.0 L943.8,544.0 L944.1,544.0 L944.5,544.0 L944.8,544.0 L945.1,544.0 L945.4,544.0 L945.8,544.0 L946.0,544.0 L946.3,544.0 L946.6,544.0 L946.9,544.0 L947.3,544.0 L947.6,544.0 L947.9,544.0 L948.2,544.0 L948.5,544.0 L949.6,544.0 L949.9,544.0 L950.3,544.0 L950.6,544.0 L950.9,544.0 L951.2,544.0 L951.5,544.0 L951.9,544.0 L952.2,544.0 L952.5,544.0 L952.8,544.0 L953.2,544.0 L953.5,544.0 L953.8,544.0 L954.1,544.0 L954.4,544.0 L954.7,544.0 L956.0,544.0 L956.3,544.0 L956.6,544.0 L956.9,544.0 L957.2,544.0 L957.6,544.0 L957.9,544.0 L958.2,544.0 L958.5,544.0 L958.7,544.0 L959.1,544.0 L959.4,544.0 L959.7,544.0 L960.0,544.0 L960.2,544.0 L960.6,544.0 L960.9,544.0 L961.2,544.0 L962.4,544.0 L962.7,544.0 L963.0,544.0 L963.2,544.0 L963.5,544.0 L963.8,544.0 L964.1,544.0 L964.4,544.0 L964.7,544.0 L965.1,544.0 L965.4,544.0 L965.6,544.0 L966.0,544.0 L966.3,544.0 L966.6,544.0 L966.9,544.0 L967.2,544.0 L967.5,544.0 L968.8,544.0 L969.1,544.0 L969.4,544.0 L969.7,544.0 L969.9,544.0 L970.2,544.0 L970.5,544.0 L970.8,544.0 L971.1,544.0 L971.4,544.0 L971.8,544.0 L972.1,544.0 L972.4,544.0 L972.7,544.0 L973.0,544.0 L973.4,544.0 L973.7,544.0 L974.0,544.0 L975.2,544.0 L975.5,544.0 L975.8,544.0 L976.1,544.0 L976.4,544.0 L976.7,544.0 L977.0,544.0 L977.3,544.0 L977.7,544.0 L978.0,544.0 L978.3,544.0 L978.5,544.0 L978.8,544.0 L979.2,544.0 L979.5,544.0 L979.8,544.0 L980.1,544.0 L980.3,544.0 L981.6,544.0 L981.9,544.0 L982.2,544.0 L982.5,544.0 L982.9,544.0 L983.2,544.0 L983.5,544.0 L983.8,544.0 L984.1,544.0 L984.5,544.0 L984.8,544.0 L985.1,544.0 L985.4,544.0 L985.8,544.0 L986.1,544.0 L986.4,544.0 L986.7,544.0 L988.0,544.0 L988.3,544.0 L988.6,544.0 L988.9,544.0 L989.2,544.0 L989.6,544.0 L989.9,544.0 L990.2,544.0 L990.5,544.0 L990.8,544.0 L991.2,544.0 L991.4,544.0 L991.8,544.0 L992.1,544.0 L992.4,544.0 L992.7,544.0 L993.0,544.0 L994.4,544.0 L994.7,544.0 L994.9,544.0 L995.2,544.0 L995.5,544.0 L995.8,544.0 L996.1,544.0 L996.4,544.0 L996.7,544.0 L997.1,544.0 L997.3,544.0 L997.7,544.0 L998.0,544.0 L998.3,544.0 L998.6,544.0 L998.9,544.0 L999.3,544.0 L999.6,544.0 L1000.8,544.0 L1001.1,544.0 L1001.4,544.0 L1001.7,544.0 L1002.0,544.0 L1002.3,544.0 L1002.6,544.0 L1003.0,544.0 L1003.3,544.0 L1003.6,544.0 L1003.9,544.0 L1004.3,544.0 L1004.6,544.0 L1004.9,544.0 L1005.2,544.0 L1005.5,544.0 L1005.9,544.0 L1006.2,544.0 L1007.3,544.0 L1007.6,544.0 L1007.9,544.0 L1008.2,544.0 L1008.5,544.0 L1008.8,544.0 L1009.1,544.0 L1009.5,544.0 L1009.8,544.0 L1010.1,544.0 L1010.4,544.0 L1010.7,544.0 L1011.1,544.0 L1011.4,544.0 L1011.7,544.0 L1012.0,544.0 L1012.3,544.0 L1013.7,544.0 L1014.0,544.0 L1014.2,544.0 L1014.5,544.0 L1014.9,544.0 L1015.2,544.0 L1015.5,544.0 L1015.8,544.0 L1016.2,544.0 L1016.4,544.0 L1016.7,544.0 L1017.1,544.0 L1017.4,544.0 L1017.7,544.0 L1018.0,544.0 L1018.3,544.0 L1018.5,544.0 L1018.8,544.0 L1020.1,544.0 L1020.4,544.0 L1020.7,544.0 L1021.0,544.0 L1021.4,544.0 L1021.7,544.0 L1022.0,544.0 L1022.3,544.0 L1022.6,544.0 L1022.9,544.0 L1023.2,544.0 L1023.5,544.0 L1023.8,544.0 L1024.1,544.0 L1024.4,544.0 L1024.7,544.0 L1025.0,544.0 L1025.3,544.0 L1026.6,544.0 L1026.9,544.0 L1027.2,544.0 L1027.5,544.0 L1027.8,544.0 L1028.2,544.0 L1028.5,544.0 L1028.8,544.0 L1029.1,544.0 L1029.5,544.0 L1029.7,544.0 L1030.0,544.0 L1030.4,544.0 L1030.6,544.0 L1031.0,544.0 L1031.3,544.0 L1031.6,544.0 L1031.9,544.0 L1033.0,544.0 L1033.4,544.0 L1033.7,544.0 L1034.0,544.0 L1034.3,544.0 L1034.6,544.0 L1034.9,544.0 L1035.2,544.0 L1035.6,544.0 L1035.8,544.0 L1036.1,544.0 L1036.4,544.0 L1036.7,544.0 L1037.1,544.0 L1037.3,544.0 L1037.7,544.0 L1038.0,544.0 L1038.3,544.0 L1039.4,544.0 L1039.7,544.0 L1040.0,544.0 L1040.3,544.0 L1040.7,544.0 L1041.0,544.0 L1041.3,544.0 L1041.6,544.0 L1041.9,544.0 L1042.3,544.0 L1042.6,544.0 L1042.9,544.0 L1043.2,544.0 L1043.6,544.0 L1043.9,544.0 L1044.2,544.0 L1044.5,544.0 L1045.9,544.0 L1046.2,544.0 L1046.5,544.0 L1046.8,544.0 L1047.1,544.0 L1047.4,544.0 L1047.7,544.0 L1048.1,544.0 L1048.4,544.0 L1048.7,544.0 L1049.0,544.0 L1049.3,544.0 L1049.7,544.0 L1050.0,544.0 L1050.3,544.0 L1050.6,544.0 L1050.9,544.0 L1051.2,544.0 L1052.3,544.0 L1052.6,544.0 L1052.9,544.0 L1053.2,544.0 L1053.4,544.0 L1053.7,544.0 L1054.1,544.0 L1054.4,544.0 L1054.7,544.0 L1055.0,544.0 L1055.3,544.0 L1055.6,544.0 L1055.9,544.0 L1056.3,544.0 L1056.5,544.0 L1056.9,544.0 L1057.1,544.0 L1057.4,544.0 L1058.7,544.0 L1059.0,544.0 L1059.4,544.0 L1059.7,544.0 L1060.0,544.0 L1060.3,544.0 L1060.7,544.0 L1061.0,544.0 L1061.3,544.0 L1061.6,544.0 L1061.9,544.0 L1062.3,544.0 L1062.5,544.0 L1062.9,544.0 L1063.1,544.0 L1063.4,544.0 L1063.8,544.0 L1064.1,544.0 L1065.2,544.0 L1065.5,544.0 L1065.9,544.0 L1066.2,544.0 L1066.5,544.0 L1066.8,544.0 L1067.1,544.0 L1067.5,544.0 L1067.7,544.0 L1068.1,544.0 L1068.4,544.0 L1068.7,544.0 L1069.0,544.0 L1069.3,544.0 L1069.7,544.0 L1070.0,544.0 L1070.3,544.0 L1071.6,544.0 L1071.9,544.0 L1072.2,544.0 L1072.6,544.0 L1072.8,544.0 L1073.5,544.0 L1073.8,544.0 L1074.1,544.0 L1074.3,544.0 L1074.7,544.0 L1075.0,544.0 L1075.3,544.0 L1075.6,544.0 L1075.9,544.0 L1076.2,544.0 L1076.5,544.0 L1076.8,544.0 L1078.1,544.0 L1079.1,544.0 L1079.4,544.0 L1079.7,544.0 L1080.0,544.0 L1080.3,544.0 L1080.7,544.0 L1081.0,544.0 L1081.3,544.0 L1081.6,544.0 L1081.9,544.0 L1082.5,544.0 L1082.8,544.0 L1084.0,544.0" fill="none" stroke="#1f77b4" stroke-width="1.4" opacity="0.85"/><text x="1040" y="54" fill="#ff7f0e" font-size="11">roll 22</text><text x="1090" y="558" fill="#ff7f0e" font-size="11">-21</text><path d="M635.4,310.5 L635.7,313.8 L636.0,310.5 L636.2,314.9 L636.5,314.9 L636.8,313.8 L637.1,314.9 L637.4,312.7 L637.7,314.9 L638.0,311.6 L638.3,314.9 L638.6,311.6 L638.9,312.7 L639.2,314.9 L639.4,314.9 L639.8,312.7 L640.0,313.8 L640.3,311.6 L640.6,314.9 L640.9,314.9 L641.2,310.5 L641.5,313.8 L641.8,313.8 L642.0,310.5 L642.3,312.7 L642.5,309.5 L642.8,310.5 L643.1,312.7 L643.4,311.6 L643.7,311.6 L643.9,311.6 L644.2,310.5 L644.5,311.6 L644.7,312.7 L645.1,313.8 L645.3,313.8 L645.6,311.6 L645.9,312.7 L646.1,312.7 L646.4,314.9 L646.7,310.5 L647.0,311.6 L647.3,311.6 L647.6,311.6 L647.9,310.5 L648.1,310.5 L648.4,313.8 L648.7,309.5 L648.9,311.6 L649.2,311.6 L649.5,314.9 L649.8,313.8 L650.1,313.8 L650.4,311.6 L650.7,312.7 L651.0,310.5 L651.3,313.8 L651.7,310.5 L652.0,313.8 L652.3,311.6 L652.6,312.7 L652.8,314.9 L653.2,309.5 L653.4,309.5 L653.8,312.7 L654.1,312.7 L654.4,309.5 L654.7,309.5 L655.0,312.7 L655.3,311.6 L655.6,312.7 L655.8,313.8 L656.2,309.5 L656.4,311.6 L656.8,309.5 L657.0,312.7 L657.3,313.8 L657.6,311.6 L657.9,313.8 L658.2,309.5 L658.5,309.5 L659.1,310.5 L659.4,313.8 L659.7,309.5 L660.0,309.5 L660.3,312.7 L660.6,313.8 L660.9,308.4 L661.2,309.5 L661.5,309.5 L661.8,311.6 L662.1,312.7 L662.5,312.7 L662.8,310.5 L663.0,311.6 L663.4,310.5 L663.6,309.5 L663.9,313.8 L664.2,309.5 L664.4,309.5 L664.7,312.7 L665.0,313.8 L665.2,311.6 L665.5,312.7 L665.8,312.7 L666.1,313.8 L666.4,312.7 L666.7,310.5 L667.0,312.7 L667.3,309.5 L667.6,310.5 L668.0,313.8 L668.2,312.7 L668.5,310.5 L668.8,314.9 L669.1,310.5 L669.4,309.5 L669.6,312.7 L669.9,314.9 L670.3,313.8 L670.6,310.5 L670.9,310.5 L671.2,311.6 L671.4,314.9 L671.8,309.5 L672.1,312.7 L672.4,310.5 L672.7,314.9 L673.0,310.5 L673.3,312.7 L673.5,311.6 L673.8,312.7 L674.1,311.6 L674.3,313.8 L674.6,313.8 L674.9,311.6 L675.2,309.5 L675.5,310.5 L675.8,313.8 L676.1,310.5 L676.4,313.8 L676.7,311.6 L677.0,312.7 L677.3,309.5 L677.6,310.5 L677.9,311.6 L678.2,312.7 L678.5,313.8 L678.8,286.8 L679.0,263.0 L679.4,227.3 L679.7,217.6 L679.9,191.6 L680.2,217.6 L680.6,151.7 L680.9,194.9 L681.2,188.4 L681.5,121.4 L681.8,130.0 L682.1,117.1 L682.4,126.8 L682.7,166.8 L683.0,162.5 L683.3,169.0 L683.7,138.7 L684.0,138.7 L684.3,188.4 L684.6,145.2 L684.8,196.0 L685.1,184.1 L685.4,101.9 L685.7,150.6 L686.0,180.8 L686.4,198.1 L686.7,191.6 L686.9,166.8 L687.3,134.4 L687.5,190.6 L687.9,162.5 L688.2,131.1 L688.5,149.5 L688.8,200.3 L689.0,200.3 L689.4,171.1 L689.7,180.8 L690.2,233.8 L690.5,240.3 L690.9,287.8 L691.2,331.1 L691.5,365.7 L691.8,379.7 L692.1,395.9 L692.5,414.3 L692.8,421.9 L693.1,448.9 L693.4,456.5 L693.8,495.4 L694.1,478.1 L694.4,494.3 L694.7,486.7 L695.0,499.7 L695.4,519.1 L695.9,478.1 L696.2,467.3 L696.4,444.6 L696.8,518.1 L697.1,518.1 L697.4,459.7 L697.7,458.6 L698.0,472.7 L698.3,450.0 L698.6,510.5 L698.9,486.7 L699.2,473.7 L699.5,455.4 L699.9,467.3 L700.2,498.6 L700.5,495.4 L700.8,539.7 L701.2,479.2 L701.5,484.6 L701.8,526.7 L702.1,528.9 L702.4,517.0 L702.8,482.4 L703.1,445.6 L703.4,454.3 L703.7,490.0 L704.0,482.4 L704.4,473.7 L704.7,451.0 L705.0,453.2 L705.3,473.7 L705.7,533.2 L706.0,521.3 L706.3,524.5 L706.6,458.6 L707.1,536.4 L707.4,453.2 L707.7,447.8 L708.0,485.6 L708.3,491.0 L708.7,454.3 L709.0,533.2 L709.3,490.0 L709.6,432.7 L709.8,462.9 L710.1,395.9 L710.4,371.1 L710.7,325.7 L711.0,287.8 L711.3,251.1 L711.6,230.6 L711.8,213.3 L712.1,208.9 L712.4,194.9 L712.7,162.5 L713.1,164.6 L713.4,191.6 L713.7,148.4 L714.0,163.5 L714.2,133.3 L714.6,180.8 L714.9,131.1 L715.2,133.3 L715.5,132.2 L715.7,132.2 L716.1,124.6 L716.4,111.7 L716.7,184.1 L717.0,147.3 L717.3,180.8 L717.7,140.8 L718.0,107.3 L718.4,106.3 L718.7,117.1 L719.0,97.6 L719.3,99.8 L719.6,105.2 L719.9,177.6 L720.1,173.3 L720.5,149.5 L720.8,120.3 L721.1,110.6 L721.4,160.3 L721.7,119.2 L722.1,150.6 L722.4,151.7 L722.7,124.6 L723.0,165.7 L723.3,113.8 L723.7,178.7 L724.0,99.8 L724.3,123.6 L724.6,132.2 L725.0,123.6 L725.2,157.1 L725.5,117.1 L725.8,171.1 L726.1,161.4 L726.4,148.4 L726.7,167.9 L727.0,101.9 L727.3,134.4 L727.6,121.4 L728.0,172.2 L728.3,103.0 L728.6,153.8 L728.9,100.9 L729.2,177.6 L729.6,170.0 L729.9,134.4 L730.2,93.3 L730.5,105.2 L730.9,140.8 L731.2,119.2 L731.5,114.9 L731.8,100.9 L732.1,169.0 L732.4,100.9 L732.7,176.5 L733.0,111.7 L733.3,158.1 L733.6,108.4 L734.0,104.1 L734.2,154.9 L734.5,133.3 L734.8,177.6 L735.3,166.8 L735.5,159.2 L735.8,126.8 L736.1,190.6 L736.4,179.8 L736.7,152.7 L737.0,125.7 L737.3,180.8 L737.6,160.3 L737.9,97.6 L738.2,109.5 L738.5,159.2 L738.8,99.8 L739.1,166.8 L739.3,156.0 L739.6,85.7 L739.9,181.9 L740.2,141.9 L740.5,94.4 L741.0,92.2 L741.2,179.8 L741.5,119.2 L741.8,148.4 L742.1,164.6 L742.4,126.8 L742.7,144.1 L743.0,149.5 L743.3,113.8 L743.6,163.5 L743.9,153.8 L744.3,108.4 L744.6,113.8 L744.9,172.2 L745.2,165.7 L745.5,179.8 L745.8,132.2 L746.1,104.1 L746.8,76.0 L747.2,92.2 L747.5,131.1 L747.8,124.6 L748.1,85.7 L748.4,173.3 L748.7,116.0 L749.0,135.4 L749.3,140.8 L749.6,156.0 L749.9,138.7 L750.2,172.2 L750.5,97.6 L750.8,101.9 L751.1,141.9 L751.4,116.0 L751.7,133.3 L752.0,172.2 L752.7,125.7 L753.1,159.2 L753.4,164.6 L753.6,91.1 L753.9,91.1 L754.2,173.3 L754.5,151.7 L754.8,116.0 L755.1,124.6 L755.4,180.8 L755.7,167.9 L756.1,106.3 L756.4,143.0 L756.7,83.6 L756.9,171.1 L757.2,116.0 L757.5,132.2 L757.8,91.1 L758.1,113.8 L758.7,186.2 L759.0,108.4 L759.2,131.1 L759.5,152.7 L759.8,114.9 L760.1,110.6 L760.5,150.6 L760.7,110.6 L761.0,180.8 L761.3,118.2 L761.6,120.3 L762.0,176.5 L762.3,136.5 L762.6,144.1 L762.9,125.7 L763.2,131.1 L763.5,151.7 L763.8,133.3 L764.5,161.4 L764.8,148.4 L765.2,79.2 L765.4,87.9 L765.7,109.5 L766.0,147.3 L766.2,170.0 L766.5,105.2 L766.8,103.0 L767.1,156.0 L767.4,107.3 L767.7,94.4 L768.0,99.8 L768.3,170.0 L768.6,121.4 L768.8,92.2 L769.1,173.3 L769.5,148.4 L769.8,161.4 L770.4,105.2 L770.7,149.5 L771.0,145.2 L771.2,109.5 L771.5,132.2 L771.8,106.3 L772.1,107.3 L772.4,101.9 L772.7,154.9 L773.0,117.1 L773.2,109.5 L773.5,114.9 L773.9,183.0 L774.2,132.2 L774.5,150.6 L774.8,141.9 L775.1,144.1 L775.4,97.6 L775.7,176.5 L776.3,147.3 L776.6,149.5 L776.9,169.0 L777.2,79.2 L777.5,94.4 L777.7,91.1 L778.0,111.7 L778.3,94.4 L778.6,151.7 L778.9,99.8 L779.2,148.4 L779.5,130.0 L779.8,156.0 L780.1,141.9 L780.4,119.2 L780.7,153.8 L781.0,153.8 L781.3,126.8 L781.6,165.7 L782.2,138.7 L782.5,164.6 L782.9,133.3 L783.1,95.5 L783.4,117.1 L783.7,139.8 L784.0,121.4 L784.4,154.9 L784.6,176.5 L784.9,151.7 L785.2,101.9 L785.5,150.6 L785.8,119.2 L786.1,109.5 L786.4,183.0 L786.7,110.6 L787.0,129.0 L787.3,137.6 L787.6,169.0 L788.2,167.9 L788.5,95.5 L788.8,96.5 L789.1,131.1 L789.4,163.5 L789.7,164.6 L789.9,177.6 L790.3,97.6 L790.6,134.4 L790.9,167.9 L791.2,152.7 L791.5,132.2 L791.8,135.4 L792.0,165.7 L792.3,159.2 L792.6,180.8 L792.9,134.4 L793.3,178.7 L794.0,140.8 L794.3,109.5 L794.7,178.7 L795.0,123.6 L795.3,121.4 L795.6,167.9 L795.9,144.1 L796.2,180.8 L796.5,179.8 L796.8,169.0 L797.0,161.4 L797.3,175.4 L797.6,136.5 L797.9,123.6 L798.2,150.6 L798.5,180.8 L798.8,170.0 L799.1,141.9 L799.3,109.5 L799.9,154.9 L800.1,159.2 L800.5,141.9 L800.7,177.6 L801.0,186.2 L801.3,181.9 L801.6,167.9 L802.0,158.1 L802.2,158.1 L802.5,140.8 L802.8,106.3 L803.0,112.7 L803.3,111.7 L803.7,181.9 L803.9,183.0 L804.2,186.2 L804.5,169.0 L804.8,194.9 L805.2,188.4 L805.8,129.0 L806.1,127.9 L806.4,139.8 L806.6,178.7 L806.9,174.4 L807.3,141.9 L807.5,153.8 L807.8,156.0 L808.1,131.1 L808.4,166.8 L808.7,167.9 L809.0,185.2 L809.3,124.6 L809.6,167.9 L809.9,179.8 L810.2,133.3 L810.5,153.8 L810.8,157.1 L811.1,210.0 L811.7,124.6 L812.0,136.5 L812.3,211.1 L812.6,183.0 L812.9,163.5 L813.2,200.3 L813.5,160.3 L813.8,214.3 L814.1,161.4 L814.4,133.3 L814.7,171.1 L814.9,150.6 L815.2,193.8 L815.6,183.0 L815.8,188.4 L816.1,170.0 L816.4,163.5 L816.7,152.7 L817.0,199.2 L817.6,187.3 L817.9,170.0 L818.2,186.2 L818.5,218.7 L818.8,211.1 L819.1,226.2 L819.4,208.9 L819.6,207.9 L820.0,224.1 L820.3,180.8 L820.6,213.3 L820.8,166.8 L821.1,151.7 L821.5,198.1 L821.7,157.1 L822.0,173.3 L822.3,189.5 L822.6,178.7 L822.9,156.0 L823.5,152.7 L823.8,194.9 L824.0,135.4 L824.3,184.1 L824.6,111.7 L824.9,133.3 L825.2,109.5 L825.5,157.1 L825.9,157.1 L826.2,187.3 L826.5,173.3 L826.8,162.5 L827.2,124.6 L827.5,122.5 L827.7,181.9 L828.0,177.6 L828.3,99.8 L828.5,144.1 L828.8,122.5 L829.4,150.6 L829.7,186.2 L829.9,140.8 L830.3,194.9 L830.6,151.7 L830.9,183.0 L831.2,129.0 L831.5,161.4 L831.9,166.8 L832.1,174.4 L832.5,101.9 L832.8,167.9 L833.1,125.7 L833.4,99.8 L833.7,165.7 L834.1,163.5 L834.3,131.1 L834.6,184.1 L835.3,93.3 L835.6,91.1 L835.9,116.0 L836.2,136.5 L836.5,135.4 L836.8,114.9 L837.1,161.4 L837.4,130.0 L837.7,130.0 L838.0,124.6 L838.3,113.8 L838.6,129.0 L838.8,141.9 L839.1,184.1 L839.4,163.5 L839.7,184.1 L840.0,211.1 L840.3,251.1 L840.6,294.3 L841.2,340.8 L841.5,358.1 L841.7,372.1 L842.1,352.7 L842.4,384.0 L842.6,380.8 L843.0,363.5 L843.2,384.0 L843.5,367.8 L843.8,358.1 L844.1,346.2 L844.3,347.3 L844.6,355.9 L844.9,313.8 L845.2,295.4 L845.5,307.3 L845.9,327.8 L846.1,310.5 L846.4,346.2 L847.6,410.0 L847.9,422.9 L848.2,427.3 L848.5,453.2 L848.8,440.2 L849.1,422.9 L849.4,440.2 L849.7,416.5 L850.0,485.6 L850.3,427.3 L850.6,462.9 L851.0,467.3 L851.3,474.8 L851.6,445.6 L851.9,471.6 L852.2,447.8 L852.6,484.6 L852.9,513.7 L853.9,442.4 L854.2,442.4 L854.5,392.7 L854.8,450.0 L855.0,426.2 L855.3,448.9 L855.6,465.1 L855.9,435.9 L856.2,468.3 L856.5,484.6 L856.8,533.2 L857.1,520.2 L857.4,461.9 L857.7,544.0 L858.0,484.6 L858.4,460.8 L858.6,469.4 L858.9,466.2 L859.3,486.7 L860.3,346.2 L860.6,373.2 L860.8,401.3 L861.1,414.3 L861.4,407.8 L861.7,459.7 L862.1,472.7 L862.3,424.0 L862.6,469.4 L863.0,431.6 L863.3,506.2 L863.6,419.7 L863.9,425.1 L864.3,464.0 L864.6,487.8 L864.9,496.4 L865.1,453.2 L865.4,445.6 L866.7,510.5 L866.9,434.8 L867.2,504.0 L867.5,514.8 L867.8,442.4 L868.1,494.3 L868.4,490.0 L868.8,479.2 L869.1,504.0 L869.4,466.2 L869.7,527.8 L870.0,510.5 L870.3,540.8 L870.6,487.8 L871.0,508.3 L871.3,478.1 L871.6,472.7 L871.8,433.8 L873.0,495.4 L873.3,401.3 L873.6,415.4 L873.9,453.2 L874.1,453.2 L874.4,416.5 L874.8,454.3 L875.1,473.7 L875.4,461.9 L875.7,413.2 L876.0,420.8 L876.3,406.7 L876.6,472.7 L877.0,380.8 L877.2,417.5 L877.6,394.8 L877.9,362.4 L878.2,389.4 L879.4,404.6 L879.7,375.4 L880.0,415.4 L880.2,404.6 L880.6,400.2 L880.9,418.6 L881.1,412.1 L881.5,453.2 L881.7,447.8 L882.1,485.6 L882.3,422.9 L882.6,437.0 L883.0,407.8 L883.2,435.9 L883.6,389.4 L883.8,422.9 L884.1,424.0 L884.5,399.2 L885.7,446.7 L886.1,400.2 L886.4,417.5 L886.7,372.1 L887.0,361.3 L887.3,355.9 L887.6,385.1 L887.9,355.9 L888.2,332.2 L888.5,353.8 L888.8,312.7 L889.1,317.0 L889.4,297.6 L889.7,323.5 L890.0,349.5 L890.3,338.6 L890.6,314.9 L891.0,281.4 L892.1,239.2 L892.5,236.0 L892.7,210.0 L893.0,187.3 L893.3,143.0 L893.6,137.6 L893.9,204.6 L894.2,197.1 L894.5,231.6 L894.9,232.7 L895.1,193.8 L895.5,186.2 L895.8,146.3 L896.1,130.0 L896.4,123.6 L896.7,159.2 L897.0,138.7 L897.3,191.6 L898.5,146.3 L898.8,230.6 L899.2,239.2 L899.5,234.9 L899.8,215.4 L900.1,166.8 L900.4,204.6 L900.7,191.6 L901.0,193.8 L901.4,174.4 L901.7,164.6 L902.0,183.0 L902.3,161.4 L902.6,166.8 L903.0,143.0 L903.3,174.4 L903.6,196.0 L904.9,297.6 L905.2,310.5 L905.5,294.3 L905.9,258.7 L906.2,279.2 L906.5,239.2 L906.8,263.0 L907.1,276.0 L907.4,246.8 L907.7,253.3 L908.1,280.3 L908.4,264.1 L908.7,255.4 L909.0,217.6 L909.3,219.8 L909.7,206.8 L909.9,213.3 L910.3,218.7 L911.3,154.9 L911.6,118.2 L911.9,145.2 L912.2,117.1 L912.5,163.5 L912.8,143.0 L913.2,202.5 L913.4,245.7 L913.7,280.3 L914.1,269.5 L914.4,237.0 L914.7,255.4 L915.0,213.3 L915.3,221.9 L915.6,242.4 L915.8,265.1 L916.2,225.2 L916.4,206.8 L917.7,343.0 L918.0,312.7 L918.3,323.5 L918.6,297.6 L918.9,314.9 L919.2,286.8 L919.5,280.3 L919.8,265.1 L920.1,274.9 L920.4,303.0 L920.7,287.8 L921.0,273.8 L921.3,294.3 L921.6,301.9 L921.9,313.8 L922.2,331.1 L922.5,306.2 L922.8,340.8 L924.1,448.9 L924.4,425.1 L924.7,383.0 L925.0,366.7 L925.3,354.9 L925.6,332.2 L925.9,354.9 L926.2,384.0 L926.6,373.2 L926.9,337.6 L927.2,364.6 L927.5,370.0 L927.8,359.2 L928.1,383.0 L928.4,399.2 L928.7,388.4 L929.0,416.5 L929.3,365.7 L930.4,263.0 L930.7,273.8 L931.1,271.6 L931.4,219.8 L931.7,268.4 L932.0,284.6 L932.3,276.0 L932.6,310.5 L932.9,315.9 L933.2,303.0 L933.5,334.3 L933.8,362.4 L934.1,410.0 L934.4,361.3 L934.8,392.7 L935.0,388.4 L935.4,401.3 L935.7,368.9 L936.8,385.1 L937.1,335.4 L937.4,366.7 L937.8,328.9 L938.1,295.4 L938.4,331.1 L938.7,347.3 L939.1,366.7 L939.4,374.3 L939.7,413.2 L940.0,408.9 L940.3,363.5 L940.6,322.4 L940.9,303.0 L941.1,301.9 L941.4,284.6 L941.7,263.0 L942.1,299.7 L943.2,392.7 L943.5,365.7 L943.8,347.3 L944.1,306.2 L944.5,298.7 L944.8,283.5 L945.1,315.9 L945.4,328.9 L945.8,315.9 L946.0,338.6 L946.3,297.6 L946.6,298.7 L946.9,320.3 L947.3,340.8 L947.6,333.2 L947.9,351.6 L948.2,319.2 L948.5,327.8 L949.6,250.0 L949.9,236.0 L950.3,244.6 L950.6,281.4 L950.9,265.1 L951.2,277.0 L951.5,268.4 L951.9,277.0 L952.2,271.6 L952.5,266.2 L952.8,258.7 L953.2,245.7 L953.5,278.1 L953.8,248.9 L954.1,280.3 L954.4,313.8 L954.7,320.3 L956.0,208.9 L956.3,224.1 L956.6,197.1 L956.9,232.7 L957.2,263.0 L957.5,268.4 L957.9,280.3 L958.2,261.9 L958.5,282.4 L958.7,256.5 L959.1,272.7 L959.4,295.4 L959.6,305.1 L960.0,277.0 L960.2,296.5 L960.6,338.6 L960.9,299.7 L961.2,274.9 L962.4,387.3 L962.7,345.1 L963.0,320.3 L963.2,303.0 L963.5,311.6 L963.8,301.9 L964.1,318.1 L964.4,357.0 L964.7,336.5 L965.1,323.5 L965.4,357.0 L965.6,383.0 L966.0,331.1 L966.3,339.7 L966.6,380.8 L966.9,352.7 L967.2,368.9 L967.5,362.4 L968.8,255.4 L969.1,270.5 L969.4,282.4 L969.7,284.6 L969.9,294.3 L970.2,272.7 L970.5,267.3 L970.8,296.5 L971.1,276.0 L971.4,306.2 L971.8,310.5 L972.1,337.6 L972.4,326.8 L972.7,313.8 L973.0,290.0 L973.4,272.7 L973.7,248.9 L974.0,261.9 L975.2,215.4 L975.5,240.3 L975.8,217.6 L976.1,269.5 L976.4,303.0 L976.7,311.6 L977.0,324.6 L977.3,314.9 L977.7,291.1 L978.0,309.5 L978.2,313.8 L978.5,343.0 L978.8,318.1 L979.2,308.4 L979.5,298.7 L979.8,304.1 L980.1,328.9 L980.3,337.6 L981.6,431.6 L981.9,428.4 L982.2,399.2 L982.5,424.0 L982.9,416.5 L983.2,361.3 L983.5,337.6 L983.8,365.7 L984.1,328.9 L984.5,343.0 L984.8,347.3 L985.1,355.9 L985.4,327.8 L985.8,343.0 L986.1,350.5 L986.4,338.6 L986.7,373.2 L987.9,248.9 L988.3,307.3 L988.6,304.1 L988.9,345.1 L989.2,318.1 L989.6,346.2 L989.9,377.6 L990.2,406.7 L990.5,420.8 L990.8,412.1 L991.2,417.5 L991.4,434.8 L991.8,398.1 L992.1,383.0 L992.4,399.2 L992.7,417.5 L993.0,413.2 L994.4,260.8 L994.7,277.0 L994.9,277.0 L995.2,247.9 L995.5,281.4 L995.8,308.4 L996.1,313.8 L996.4,353.8 L996.7,368.9 L997.1,346.2 L997.3,325.7 L997.7,359.2 L998.0,351.6 L998.3,327.8 L998.6,347.3 L998.9,346.2 L999.3,341.9 L999.6,317.0 L1000.8,213.3 L1001.1,212.2 L1001.4,211.1 L1001.7,226.2 L1002.0,190.6 L1002.3,215.4 L1002.6,248.9 L1003.0,286.8 L1003.3,264.1 L1003.6,284.6 L1003.9,301.9 L1004.3,309.5 L1004.6,304.1 L1004.9,325.7 L1005.2,352.7 L1005.5,323.5 L1005.9,294.3 L1006.2,293.2 L1007.3,220.8 L1007.6,250.0 L1007.9,270.5 L1008.2,227.3 L1008.5,257.6 L1008.8,288.9 L1009.1,280.3 L1009.5,295.4 L1009.8,266.2 L1010.1,243.5 L1010.4,246.8 L1010.7,273.8 L1011.1,311.6 L1011.4,339.7 L1011.7,362.4 L1012.0,385.1 L1012.3,418.6 L1013.7,261.9 L1014.0,258.7 L1014.2,285.7 L1014.5,303.0 L1014.9,272.7 L1015.2,251.1 L1015.5,277.0 L1015.8,278.1 L1016.2,286.8 L1016.4,304.1 L1016.7,296.5 L1017.1,334.3 L1017.4,298.7 L1017.7,277.0 L1018.0,309.5 L1018.3,312.7 L1018.5,312.7 L1018.8,341.9 L1020.1,419.7 L1020.4,374.3 L1020.7,364.6 L1021.0,387.3 L1021.4,361.3 L1021.7,333.2 L1022.0,370.0 L1022.3,353.8 L1022.6,378.6 L1022.9,368.9 L1023.2,394.8 L1023.5,434.8 L1023.8,389.4 L1024.1,354.9 L1024.4,352.7 L1024.7,337.6 L1025.0,388.4 L1025.3,371.1 L1026.6,278.1 L1026.9,300.8 L1027.2,281.4 L1027.5,287.8 L1027.8,322.4 L1028.2,348.4 L1028.5,365.7 L1028.8,397.0 L1029.1,408.9 L1029.5,388.4 L1029.7,363.5 L1030.0,378.6 L1030.4,419.7 L1030.6,404.6 L1031.0,406.7 L1031.3,372.1 L1031.6,401.3 L1031.9,416.5 L1033.0,282.4 L1033.4,307.3 L1033.7,284.6 L1034.0,314.9 L1034.3,310.5 L1034.6,339.7 L1034.9,347.3 L1035.2,366.7 L1035.6,340.8 L1035.8,343.0 L1036.1,372.1 L1036.4,330.0 L1036.7,299.7 L1037.1,272.7 L1037.3,260.8 L1037.7,295.4 L1038.0,278.1 L1038.3,240.3 L1039.4,147.3 L1039.7,188.4 L1040.0,186.2 L1040.3,208.9 L1040.7,244.6 L1041.0,283.5 L1041.3,255.4 L1041.6,240.3 L1041.9,224.1 L1042.3,206.8 L1042.6,206.8 L1042.9,247.9 L1043.2,277.0 L1043.6,280.3 L1043.9,297.6 L1044.2,281.4 L1044.5,258.7 L1045.9,145.2 L1046.2,193.8 L1046.5,217.6 L1046.8,242.4 L1047.1,266.2 L1047.4,293.2 L1047.7,251.1 L1048.1,307.3 L1048.4,335.4 L1048.7,308.4 L1049.0,281.4 L1049.3,311.6 L1049.7,294.3 L1050.0,327.8 L1050.3,343.0 L1050.6,335.4 L1050.9,324.6 L1051.2,363.5 L1052.3,451.0 L1052.6,412.1 L1052.9,418.6 L1053.2,456.5 L1053.4,431.6 L1053.7,426.2 L1054.1,437.0 L1054.4,442.4 L1054.7,412.1 L1055.0,425.1 L1055.3,445.6 L1055.6,428.4 L1055.9,419.7 L1056.3,399.2 L1056.5,348.4 L1056.8,387.3 L1057.1,380.8 L1057.4,448.9 L1058.7,299.7 L1059.0,257.6 L1059.4,228.4 L1059.7,199.2 L1060.0,243.5 L1060.3,297.6 L1060.7,290.0 L1061.0,305.1 L1061.3,330.0 L1061.6,355.9 L1061.9,353.8 L1062.3,364.6 L1062.5,347.3 L1062.9,380.8 L1063.1,368.9 L1063.4,379.7 L1063.8,381.9 L1064.1,341.9 L1065.2,453.2 L1065.5,386.2 L1065.9,362.4 L1066.2,353.8 L1066.5,312.7 L1066.8,313.8 L1067.1,317.0 L1067.5,339.7 L1067.7,306.2 L1068.1,301.9 L1068.4,271.6 L1068.7,284.6 L1069.0,260.8 L1069.3,272.7 L1069.7,260.8 L1070.0,305.1 L1070.3,309.5 L1071.6,412.1 L1071.9,410.0 L1072.2,395.9 L1072.6,413.2 L1072.8,385.1 L1073.5,452.1 L1073.8,452.1 L1074.1,422.9 L1074.3,420.8 L1074.6,386.2 L1075.0,375.4 L1075.3,375.4 L1075.6,362.4 L1075.9,359.2 L1076.2,325.7 L1076.5,327.8 L1076.8,301.9 L1078.1,375.4 L1079.1,267.3 L1079.4,273.8 L1079.7,282.4 L1080.0,298.7 L1080.3,305.1 L1080.7,265.1 L1081.0,227.3 L1081.3,211.1 L1081.6,220.8 L1081.9,257.6 L1082.5,296.5 L1082.8,347.3 L1084.0,248.9" fill="none" stroke="#ff7f0e" stroke-width="1.1" opacity="0.85"/><text x="616" y="572" font-size="11" fill="#888">time 0..87 s — altitude (blue) &amp; roll (orange)</text></svg>