<svg xmlns="http://www.w3.org/2000/svg" width="1140" height="600" font-family="sans-serif" font-size="13"><rect width="1140" height="600" fill="white"/><text x="20" y="26" font-size="15" fill="#333">Coludo flight</text><rect x="20" y="40" width="540" height="540" fill="#fbfbfb" stroke="#ddd"/><rect x="270" y="321" width="172" height="37" fill="#cde" stroke="#369" opacity="0.7"/><text x="270" y="316" fill="#369" font-size="12">landing zone</text><circle cx="379" cy="379" r="5" fill="black"/><text x="387" y="383" font-size="12">pad</text><path d="M379.5,379.1 L379.5,379.1 L379.5,379.1 L379.5,379.1 L379.5,379.1 L379.5,379.1 L379.5,379.1 L379.5,379.1 L379.5,379.1 L379.5,379.1 L379.5,379.1 L379.5,379.1 L379.5,379.1 L379.5,379.1 L379.5,379.1 L379.5,379.1 L379.5,379.1 L379.5,379.1 L379.5,379.1 L379.5,379.1 L379.5,379.1 L379.5,379.1 L379.5,379.1 L379.5,379.1 L379.5,379.1 L379.5,379.1 L379.5,379.1 L379.5,379.1 L379.5,379.1 L379.5,379.1 L379.5,379.1 L379.5,379.1 L379.5,379.1 L379.5,379.1 L379.5,379.1 L379.5,379.1 L379.5,379.1 L379.5,379.1 L379.5,379.1 L379.5,379.1 L379.5,379.1 L379.5,379.1 L379.5,379.1 L379.5,379.1 L379.5,379.1 L379.5,379.1 L379.5,379.1 L379.5,379.1 L379.5,379.1 L379.5,379.1 L379.5,379.1 L379.5,379.1 L379.5,379.1 L379.5,379.1 L379.5,379.1 L379.5,379.1 L379.5,379.1 L379.5,379.1 L379.5,379.1 L379.5,379.1 L379.5,379.1 L379.5,379.1 L379.5,379.1 L379.5,379.1 L379.5,379.1 L379.5,379.1 L379.5,379.1 L379.5,379.1 L379.5,379.1 L379.5,379.1 L379.5,378.7 L380.1,377.5 L380.5,376.3 L382.3,375.1 L383.0,373.8 L383.2,372.4 L384.2,371.2 L385.1,370.1 L386.0,368.9 L386.9,367.7 L387.8,366.7 L389.0,365.6 L389.7,364.6 L391.5,363.6 L391.9,362.2 L393.4,361.3 L394.3,360.3 L395.2,359.3 L396.2,358.5 L397.8,357.5 L398.9,356.4 L399.8,355.4 L401.5,354.4 L401.7,353.6 L403.5,352.5 L403.7,351.5 L404.5,350.7 L406.3,349.5 L406.7,348.5 L407.2,347.4 L408.2,346.2 L409.6,345.2 L410.0,344.2 L410.9,342.7 L411.8,341.5 L412.8,340.3 L413.3,339.0 L413.7,337.6 L414.6,336.4 L414.6,335.2 L415.5,333.9 L416.3,332.7 L416.3,331.3 L416.5,330.0 L417.4,328.2 L417.4,327.2 L418.3,325.5 L418.3,324.1 L418.3,322.9 L418.5,321.5 L418.5,319.4 L418.5,317.6 L418.5,316.3 L419.2,314.9 L419.2,313.3 L419.2,311.6 L420.2,310.6 L420.2,309.0 L421.1,307.3 L421.1,306.1 L421.4,304.5 L422.0,303.2 L422.0,302.0 L422.9,300.8 L423.8,299.2 L424.4,298.1 L424.8,296.7 L424.8,295.5 L425.7,294.0 L426.6,293.2 L427.5,292.0 L428.5,290.6 L429.4,289.5 L430.3,288.3 L431.0,287.3 L432.2,285.9 L433.1,285.0 L434.0,283.8 L434.9,282.6 L436.2,281.8 L436.8,281.0 L438.6,279.9 L440.3,278.9 L440.5,278.1 L442.3,277.3 L443.2,276.5 L444.2,275.6 L446.2,274.8 L446.9,274.0 L448.0,273.2 L449.7,272.8 L450.6,272.4 L451.5,271.7 L453.4,271.1 L454.7,270.7 L456.2,270.1 L457.3,269.7 L458.9,269.3 L459.8,269.1 L461.7,268.7 L462.6,268.7 L463.5,268.3 L465.8,268.1 L466.3,267.9 L469.1,267.9 L469.4,267.7 L471.8,267.7 L473.7,267.7 L475.4,267.7 L476.5,267.7 L478.7,267.9 L479.2,267.9 L481.1,268.1 L482.0,268.5 L483.8,268.7 L485.7,269.1 L487.2,269.3 L488.5,269.7 L490.1,270.1 L491.2,270.7 L493.1,271.3 L494.0,271.7 L495.8,272.4 L496.8,272.8 L499.4,273.8 L500.5,274.6 L501.6,275.2 L503.2,276.0 L504.2,276.9 L505.1,277.7 L506.9,278.5 L507.8,279.3 L508.8,280.1 L510.8,281.8 L511.5,282.8 L513.4,284.0 L514.1,285.0 L515.2,285.9 L516.2,287.1 L517.1,288.3 L518.0,289.5 L518.9,290.6 L519.8,292.6 L520.8,293.8 L521.7,294.9 L522.6,296.3 L522.6,297.5 L523.5,298.7 L524.5,300.0 L525.4,301.4 L525.4,302.4 L525.6,303.9 L526.3,305.1 L527.2,306.5 L527.2,307.7 L528.2,309.4 L528.2,310.6 L528.5,312.0 L528.5,313.7 L529.1,314.9 L529.1,316.3 L529.1,318.8 L530.0,320.0 L530.0,321.7 L530.0,323.1 L530.0,324.1 L530.0,325.5 L530.0,327.2 L530.0,328.6 L530.0,329.8 L530.0,331.5 L530.0,332.7 L529.1,334.5 L529.1,336.0 L529.1,337.0 L529.1,338.6 L528.5,340.1 L528.5,341.3 L528.2,342.7 L528.2,344.2 L527.2,345.4 L527.2,346.6 L526.3,348.3 L526.3,349.5 L525.6,351.1 L525.4,352.5 L525.4,353.6 L524.5,354.8 L523.5,356.4 L522.6,357.5 L522.6,359.7 L520.8,361.3 L519.8,362.4 L520.0,363.8 L518.9,365.0 L518.0,366.1 L517.1,367.5 L516.3,368.5 L515.2,369.7 L514.1,371.4 L513.4,372.6 L512.5,373.6 L510.8,374.4 L510.6,375.7 L508.8,376.7 L507.8,377.7 L506.9,378.5 L506.0,379.3 L504.9,380.2 L504.2,381.2 L502.3,382.2 L501.6,382.8 L500.5,383.6 L499.4,384.7 L497.7,385.5 L496.8,386.1 L495.8,386.7 L494.0,387.3 L493.1,388.1 L492.2,389.0 L490.3,389.6 L489.4,390.2 L488.5,390.6 L486.6,391.4 L485.7,392.0 L484.6,392.8 L482.9,393.3 L481.6,393.9 L481.1,394.3 L479.2,394.9 L477.4,395.3 L476.5,395.7 L474.6,396.3 L472.8,396.7 L472.4,397.1 L470.9,397.6 L469.4,398.0 L468.2,398.4 L465.4,399.0 L463.5,399.2 L462.6,399.6 L460.8,400.0 L459.8,400.4 L458.0,400.6 L457.1,401.0 L455.2,401.4 L454.3,401.6 L451.5,402.1 L450.6,402.5 L448.8,402.7 L447.8,402.9 L446.0,403.1 L445.1,403.3 L443.2,403.3 L442.3,403.3 L440.5,403.5 L436.2,403.7 L434.9,403.7 L433.3,403.7 L432.2,403.7 L431.0,403.7 L429.4,403.7 L427.7,403.7 L426.6,403.7 L424.8,403.5 L424.4,403.5 L421.4,403.3 L420.2,403.3 L418.5,403.3 L417.4,403.1 L416.3,402.9 L414.6,402.9 L413.3,402.7 L410.9,402.5 L409.6,402.1 L406.7,401.4 L404.5,401.0 L403.7,400.8 L402.6,400.4 L400.8,400.0 L399.8,399.6 L398.0,399.2 L397.1,399.0 L395.2,398.4 L394.3,398.0 L391.9,397.1 L390.6,396.5 L389.0,396.1 L387.8,395.5 L386.0,395.1 L385.1,394.7 L384.2,394.3 L383.0,393.7 L381.4,393.1 L380.1,392.4 L377.7,391.2 L376.8,390.6 L374.9,390.0 L374.0,389.4 L372.2,388.6 L371.2,387.7 L370.3,387.1 L368.5,386.3 L367.5,385.5 L364.8,383.6 L362.9,382.6 L362.4,381.8 L361.1,380.8 L359.4,379.8 L359.2,378.7 L357.4,377.9 L356.5,376.9 L355.5,375.9 L353.5,373.8 L351.8,372.6 L350.9,371.4 L350.0,370.1 L349.1,369.3 L348.2,368.1 L347.2,366.9 L346.3,365.6 L345.4,364.6 L343.5,361.8 L341.7,360.7 L341.0,359.3 L340.8,358.3 L339.8,357.0 L338.9,356.0 L338.7,354.6 L338.0,353.2 L337.1,352.1 L335.8,348.9 L335.2,347.6 L334.3,346.0 L333.4,344.6 L332.8,343.5 L332.8,341.9 L332.5,340.7 L331.5,339.7 L331.5,338.2 L330.6,336.8 L329.7,334.5 L329.5,333.3 L329.5,331.7 L328.8,330.7 L327.8,329.4 L326.9,327.6 L326.9,326.6 L326.2,325.1 L326.0,323.7 L324.2,320.4 L324.0,319.0 L323.2,317.8 L321.4,316.3 L321.0,315.1 L320.5,314.1 L319.5,313.1 L318.6,311.4 L318.1,310.4 L315.8,307.3 L314.9,306.3 L314.0,304.9 L313.1,303.9 L312.2,302.4 L311.0,301.4 L311.2,300.2 L310.3,299.2 L309.4,298.1 L309.2,296.7 L307.5,294.9 L306.2,293.4 L305.7,292.2 L304.8,291.2 L303.8,289.7 L302.6,288.9 L302.0,287.7 L301.1,286.7 L300.2,285.5 L297.4,282.8 L297.0,281.6 L295.5,280.5 L294.6,279.5 L294.4,278.3 L292.8,277.3 L291.8,276.5 L290.9,275.4 L290.0,274.4 L287.2,272.2 L285.4,270.7 L284.8,269.9 L283.5,268.9 L282.6,268.1 L281.7,267.0 L280.8,266.0 L279.7,265.2 L278.0,264.4 L275.2,261.9 L274.3,261.1 L272.6,260.3 L272.5,259.7 L270.6,258.9 L270.1,257.8 L268.8,256.8 L267.1,256.0 L266.9,255.4 L265.1,254.6 L263.2,252.9 L261.4,252.1 L261.6,251.5 L259.5,250.7 L258.6,249.9 L257.7,249.0 L255.8,248.0 L254.9,247.4 L254.0,246.4 L252.3,245.6 L250.3,244.1 L249.4,243.3 L248.5,242.7 L246.6,241.7 L245.7,240.9 L243.8,239.8 L243.1,239.2 L242.0,238.4 L241.1,237.6 L237.2,235.5 L236.5,234.9 L235.5,234.3 L234.6,233.5 L232.8,232.9 L231.8,232.3 L230.9,231.4 L229.1,230.8 L228.2,230.2 L226.3,229.8 L224.5,228.6 L223.2,228.2 L221.7,227.6 L219.8,226.9 L220.2,226.5 L218.0,226.1 L216.9,225.5 L215.2,224.9 L213.9,224.5 L212.5,223.9 L209.7,223.1 L208.8,222.7 L206.9,222.2 L206.0,221.8 L204.3,221.6 L203.2,221.0 L201.8,220.8 L200.5,220.4 L198.8,220.0 L197.7,219.8 L195.8,219.0 L193.1,218.6 L192.5,218.4 L190.3,217.9 L189.6,217.9 L188.5,217.7 L187.7,217.3 L185.7,217.1 L183.8,216.9 L182.9,216.7 L180.2,216.5 L178.3,216.3 L177.4,216.3 L175.5,216.3 L174.6,216.3 L172.8,216.3 L171.8,216.5 L170.0,216.5 L169.1,216.7 L167.2,216.7 L164.5,216.9 L163.0,217.1 L161.7,217.5 L160.0,217.7 L158.9,217.9 L157.8,217.9 L157.1,218.4 L154.9,218.6 L154.3,219.0 L152.5,219.4 L149.7,220.2 L148.2,220.8 L146.9,221.2 L145.3,221.8 L144.2,222.4 L143.0,222.9 L141.4,223.3 L139.5,224.1 L138.6,224.7 L135.8,226.3 L134.0,226.9 L133.1,227.8 L132.2,228.4 L130.5,229.0 L129.4,229.8 L128.5,230.6 L127.5,231.4 L125.7,232.3 L124.6,233.1 L122.9,234.7 L121.6,235.5 L120.2,236.4 L119.2,237.6 L118.3,238.6 L117.4,239.4 L115.7,240.4 L115.5,241.5 L113.7,242.3 L110.9,244.7 L110.0,246.0 L109.1,246.8 L108.2,247.6 L107.2,248.4 L106.3,249.7 L105.4,250.5 L103.9,251.5 L103.5,252.5 L101.7,253.7 L100.8,255.8 L98.9,256.8 L98.0,257.8 L98.0,259.1 L96.2,260.1 L95.2,261.1 L95.0,262.3 L93.4,263.4 L92.5,264.6 L89.7,267.7 L89.1,268.7 L88.8,269.9 L87.8,270.9 L86.2,272.4 L86.0,273.4 L85.1,274.8 L84.2,275.8 L83.2,277.3 L81.4,280.3 L80.5,281.4 L79.5,283.0 L78.6,284.2 L77.7,285.5 L77.7,286.5 L77.3,287.9 L76.8,289.1 L75.8,290.4 L74.4,293.8 L74.0,295.3 L73.1,296.7 L72.2,298.1 L72.2,299.6 L71.2,300.8 L71.0,302.0 L71.0,303.5 L70.3,304.9 L69.4,308.4 L68.5,310.0 L67.7,311.0 L67.7,312.3 L67.5,313.7 L67.5,314.9 L66.6,316.1 L66.6,317.8 L65.7,319.0 L65.7,320.2 L65.5,323.3 L64.8,324.9 L64.8,326.4 L63.8,327.6 L63.8,329.2 L62.9,330.7 L62.9,331.9 L62.9,333.3 L62.6,334.5 L62.0,338.4 L61.1,340.3 L61.1,341.7 L60.2,343.1 L60.2,344.4 L59.6,345.8 L59.6,347.2 L59.2,348.5 L59.2,348.9 L56.3,355.0 L56.3,356.2 L55.5,357.0 L54.6,358.5 L53.7,359.9 L52.8,362.6 L51.8,363.4 L50.0,366.9" fill="none" stroke="#1f77b4" stroke-width="1.7" opacity="0.85"/><circle cx="50" cy="367" r="4.5" fill="#1f77b4"/><text x="28" y="572" font-size="11" fill="#888">ground track — m from pad (N up)</text><rect x="580" y="40" width="540" height="540" fill="#fbfbfb" stroke="#ddd"/><text x="586" y="54" fill="#1f77b4" font-size="11">alt 468</text><text x="586" y="558" fill="#1f77b4" font-size="11">-100</text><path d="M636.5,460.5 L636.8,459.1 L637.1,460.9 L637.5,460.6 L637.8,459.5 L638.1,459.0 L638.4,458.3 L638.6,460.2 L638.9,459.5 L639.2,456.9 L639.5,457.3 L639.8,455.2 L640.1,455.2 L640.4,458.4 L640.7,453.6 L641.0,448.8 L641.3,448.0 L641.6,454.7 L641.9,452.2 L642.2,442.7 L642.5,440.8 L642.9,440.6 L643.1,451.8 L643.5,444.0 L643.8,452.2 L644.0,437.1 L644.3,445.1 L644.6,443.0 L644.9,446.1 L645.1,440.6 L645.4,439.9 L645.7,433.0 L646.0,416.0 L646.3,443.4 L646.5,416.8 L646.8,432.3 L647.1,440.4 L647.4,427.4 L647.7,410.3 L647.9,408.5 L648.2,417.5 L648.5,437.5 L648.8,420.7 L649.1,408.2 L649.4,415.8 L649.7,429.4 L650.0,430.6 L650.3,369.7 L650.6,428.9 L650.9,381.2 L651.2,393.1 L651.5,411.5 L651.8,372.1 L652.1,376.3 L652.4,354.1 L652.7,363.0 L653.0,416.7 L653.3,385.6 L653.6,333.3 L653.9,346.8 L654.2,367.5 L654.5,378.0 L654.8,350.3 L655.2,331.6 L655.4,320.8 L655.8,317.8 L656.0,400.9 L656.4,336.8 L656.7,333.9 L657.0,301.3 L657.3,396.8 L657.6,361.0 L657.9,339.7 L658.2,296.4 L658.5,356.2 L658.8,299.4 L659.0,258.4 L659.3,323.9 L659.6,285.1 L659.8,384.4 L660.2,359.3 L660.4,249.9 L660.8,352.2 L661.1,358.0 L661.4,250.8 L661.7,212.4 L662.0,240.2 L662.3,275.6 L662.6,211.8 L662.9,282.8 L663.2,349.0 L663.5,329.6 L663.8,301.7 L664.1,279.8 L664.4,220.8 L664.7,344.6 L665.0,364.2 L665.3,305.3 L665.6,251.0 L665.8,292.8 L666.1,233.3 L666.4,223.8 L666.7,291.2 L667.0,336.0 L667.2,203.7 L667.5,156.4 L667.8,180.1 L668.1,238.9 L668.4,264.6 L668.6,251.7 L668.9,352.1 L669.2,193.0 L669.5,214.1 L669.7,248.2 L670.1,294.4 L670.4,260.2 L670.7,151.1 L671.0,270.8 L671.3,202.3 L671.6,303.4 L671.9,302.1 L672.2,202.5 L672.5,202.8 L672.8,303.3 L673.1,130.7 L673.4,174.2 L673.7,177.2 L674.0,190.3 L674.3,338.1 L674.6,171.2 L674.9,92.4 L675.1,150.9 L675.5,247.4 L675.8,230.7 L676.2,106.1 L676.4,263.6 L676.7,279.4 L677.0,333.4 L677.3,112.5 L677.6,206.5 L677.9,328.6 L678.1,180.6 L678.4,219.0 L678.7,76.4 L679.0,120.3 L679.3,298.9 L679.5,137.9 L679.9,280.2 L680.2,287.4 L680.4,99.2 L680.7,172.1 L681.0,177.0 L681.3,152.2 L681.6,233.6 L681.9,125.6 L682.3,160.2 L682.5,76.0 L682.8,270.7 L683.1,129.6 L683.4,254.3 L683.7,222.1 L683.9,89.1 L684.2,264.1 L684.5,124.5 L684.8,91.2 L685.1,101.3 L685.4,78.1 L685.7,103.5 L686.0,77.9 L686.3,89.5 L686.6,155.1 L686.9,158.3 L687.2,104.7 L687.4,181.5 L687.8,113.1 L688.1,159.0 L688.3,227.7 L688.7,224.3 L688.9,105.3 L689.3,130.2 L689.6,171.7 L689.9,296.5 L690.2,186.7 L690.6,299.9 L690.8,224.7 L691.2,131.1 L691.4,136.1 L691.7,263.5 L692.0,320.3 L692.3,274.3 L692.6,108.1 L692.8,135.3 L693.2,124.9 L693.5,243.7 L693.8,325.4 L694.1,276.7 L694.4,118.4 L694.7,295.8 L695.0,221.1 L695.2,268.3 L695.6,145.1 L695.8,176.1 L696.2,296.8 L696.5,256.7 L696.8,143.2 L697.1,295.3 L697.4,177.7 L697.7,299.4 L698.0,309.6 L698.2,277.7 L698.6,208.8 L698.9,121.5 L699.3,294.2 L699.6,299.6 L699.9,271.9 L700.1,91.7 L700.5,302.4 L700.7,275.3 L701.1,232.5 L701.4,213.0 L701.7,272.2 L702.0,186.6 L702.3,245.1 L702.6,215.1 L702.9,265.2 L703.2,207.9 L703.5,235.8 L703.8,124.1 L704.1,94.9 L704.4,132.1 L704.7,123.8 L705.2,256.6 L705.5,158.4 L705.8,267.0 L706.1,285.7 L706.4,147.5 L706.6,202.3 L706.9,91.4 L707.3,97.2 L707.5,145.2 L707.9,322.3 L708.1,168.1 L708.5,191.5 L708.8,211.4 L709.0,265.2 L709.3,202.1 L709.6,169.7 L709.9,329.6 L710.1,200.8 L710.4,285.4 L710.7,262.9 L711.1,235.4 L711.3,303.7 L711.6,216.2 L711.9,200.7 L712.2,109.1 L712.5,288.9 L712.8,332.1 L713.2,167.3 L713.5,186.0 L713.8,329.6 L714.0,324.9 L714.3,246.8 L714.6,290.0 L714.9,317.5 L715.2,172.6 L715.4,276.7 L715.8,249.7 L716.1,200.6 L716.4,103.6 L716.9,201.3 L717.2,260.9 L717.4,206.5 L717.7,226.6 L718.0,301.9 L718.3,137.3 L718.6,192.3 L718.9,207.1 L719.2,310.1 L719.6,150.9 L719.8,242.6 L720.2,248.3 L720.4,337.7 L720.8,131.2 L721.1,258.9 L721.4,311.9 L721.7,275.5 L722.0,237.4 L722.3,277.3 L722.8,200.0 L723.1,135.4 L723.3,266.1 L723.6,169.7 L723.9,168.6 L724.2,324.4 L724.5,287.6 L724.8,212.7 L725.1,199.8 L725.3,276.4 L725.6,289.9 L725.9,144.8 L726.2,259.6 L726.5,347.5 L726.7,156.4 L727.1,299.7 L727.3,293.8 L727.7,290.6 L728.0,177.6 L728.3,122.9 L728.6,125.9 L729.0,126.6 L729.2,282.3 L729.5,150.8 L729.8,215.8 L730.1,307.7 L730.4,237.8 L730.6,162.0 L730.9,128.8 L731.2,147.4 L731.5,138.7 L731.8,190.7 L732.1,207.0 L732.4,232.9 L732.7,182.9 L733.0,286.9 L733.2,222.7 L733.5,179.6 L733.8,156.1 L734.1,309.7 L734.5,153.6 L734.8,336.1 L735.0,331.4 L735.4,254.2 L735.6,225.6 L736.0,304.8 L736.3,277.0 L736.6,271.8 L736.9,287.4 L737.1,306.9 L737.4,323.9 L737.8,316.7 L738.0,229.6 L738.4,179.8 L738.6,230.2 L739.0,146.2 L739.3,225.4 L739.6,293.6 L739.9,339.8 L740.4,228.3 L740.6,303.9 L740.9,230.6 L741.2,169.1 L741.5,224.1 L741.8,300.1 L742.1,279.3 L742.4,284.5 L742.7,152.5 L742.9,199.1 L743.3,188.4 L743.6,236.1 L743.9,214.6 L744.2,234.9 L744.5,325.1 L744.8,255.9 L745.1,349.7 L745.4,291.2 L745.7,181.6 L746.5,264.1 L746.7,171.2 L747.0,359.7 L747.3,235.0 L747.6,194.0 L747.8,223.9 L748.1,177.3 L748.4,348.8 L748.7,268.1 L748.9,180.1 L749.2,295.4 L749.5,349.6 L749.8,288.2 L750.1,212.6 L750.4,339.1 L750.8,351.5 L751.1,226.7 L751.4,209.9 L751.7,191.0 L751.9,226.0 L752.5,231.3 L752.8,208.3 L753.1,297.9 L753.4,199.4 L753.7,274.9 L754.0,342.8 L754.2,302.0 L754.5,300.0 L754.8,347.5 L755.1,180.3 L755.3,186.0 L755.6,268.6 L756.0,311.9 L756.2,263.5 L756.5,249.7 L756.8,330.8 L757.1,281.5 L757.3,288.9 L757.6,241.4 L757.9,227.7 L758.7,255.0 L759.0,215.9 L759.3,292.1 L759.6,300.0 L759.9,325.8 L760.1,357.9 L760.4,287.4 L760.7,290.6 L761.0,212.3 L761.3,282.7 L761.7,363.1 L762.0,352.3 L762.3,194.4 L762.6,240.5 L762.9,289.4 L763.2,196.6 L763.5,271.4 L763.8,342.1 L764.1,319.3 L764.8,309.4 L765.0,304.1 L765.3,280.2 L765.6,268.0 L765.9,220.0 L766.2,305.7 L766.5,356.7 L766.8,296.2 L767.1,285.5 L767.4,274.6 L767.7,262.3 L768.0,255.1 L768.3,219.5 L768.5,270.9 L768.8,366.8 L769.1,369.9 L769.4,289.5 L769.7,211.5 L770.0,311.8 L770.3,248.6 L770.9,235.2 L771.2,313.3 L771.4,304.4 L771.7,346.9 L772.0,308.5 L772.3,235.4 L772.6,265.5 L772.9,271.2 L773.2,329.2 L773.5,230.4 L773.8,242.2 L774.2,361.2 L774.4,372.1 L774.8,224.5 L775.0,357.0 L775.4,341.9 L775.7,279.8 L776.0,331.0 L776.3,238.5 L777.0,232.3 L777.3,234.8 L777.6,279.4 L777.8,232.8 L778.1,349.2 L778.4,244.0 L778.7,258.3 L779.0,261.4 L779.4,385.6 L779.7,369.0 L780.0,273.6 L780.3,324.0 L780.6,290.7 L780.9,306.3 L781.2,341.5 L781.6,261.5 L781.8,254.6 L782.2,382.1 L782.4,244.6 L783.1,273.9 L783.4,273.0 L783.7,328.2 L784.1,373.2 L784.3,308.5 L784.6,267.9 L784.9,328.9 L785.2,330.1 L785.5,308.9 L785.7,297.9 L786.0,258.5 L786.3,347.1 L786.6,368.9 L786.9,355.7 L787.2,354.9 L787.5,353.9 L787.8,364.9 L788.1,281.5 L788.3,262.0 L788.6,371.8 L789.2,388.3 L789.5,344.5 L789.7,270.7 L790.0,379.0 L790.3,301.6 L790.6,340.2 L790.9,376.2 L791.2,364.1 L791.5,384.2 L791.8,301.6 L792.1,267.9 L792.5,384.3 L792.7,308.3 L793.1,274.9 L793.4,323.3 L793.7,346.8 L794.0,370.9 L794.3,359.8 L794.6,275.9 L795.3,334.5 L795.6,327.0 L795.9,286.4 L796.2,285.6 L796.5,307.0 L796.8,318.8 L797.1,341.4 L797.4,383.5 L797.7,372.6 L798.0,384.1 L798.3,342.4 L798.6,398.9 L798.9,292.9 L799.3,383.9 L799.5,311.9 L799.9,395.7 L800.1,402.0 L800.5,351.1 L800.8,327.5 L801.4,333.0 L801.7,363.7 L802.0,302.8 L802.3,338.5 L802.6,402.1 L802.9,334.7 L803.2,357.3 L803.5,326.9 L803.8,305.6 L804.2,332.2 L804.4,404.2 L804.7,326.0 L805.0,311.8 L805.3,344.0 L805.5,339.8 L805.8,393.5 L806.1,338.4 L806.4,314.6 L806.7,320.3 L807.6,315.8 L807.9,334.8 L808.2,386.2 L808.4,349.4 L808.7,335.6 L809.0,380.6 L809.3,319.4 L809.6,359.7 L809.8,348.7 L810.2,387.6 L810.4,314.4 L810.7,364.4 L811.0,408.7 L811.3,389.0 L811.6,399.7 L811.8,391.3 L812.1,376.1 L812.4,318.0 L812.7,369.7 L813.0,400.1 L813.7,358.5 L814.0,344.4 L814.3,394.7 L814.6,353.2 L814.8,369.4 L815.1,373.3 L815.4,369.4 L815.7,407.6 L816.0,333.5 L816.3,373.9 L816.6,366.2 L816.8,409.8 L817.1,385.2 L817.4,357.7 L817.7,405.0 L818.0,330.6 L818.2,395.8 L818.5,363.4 L818.8,402.7 L819.1,376.9 L819.8,356.6 L820.1,411.6 L820.4,394.5 L820.7,403.4 L821.0,377.7 L821.3,371.9 L821.6,377.5 L821.9,368.4 L822.1,418.6 L822.5,370.0 L822.7,402.9 L823.1,352.8 L823.4,366.9 L823.7,397.5 L824.0,375.9 L824.3,404.5 L824.5,355.8 L824.8,361.1 L825.1,412.2 L825.9,422.8 L826.2,388.3 L826.5,388.8 L826.8,374.4 L827.1,377.2 L827.4,384.8 L827.7,413.0 L828.0,383.2 L828.3,382.0 L828.5,411.6 L828.8,406.6 L829.1,377.5 L829.4,384.6 L829.7,384.9 L830.0,420.0 L830.3,401.8 L830.5,423.1 L830.8,385.5 L831.1,382.4 L831.4,387.2 L832.1,426.9 L832.3,379.8 L832.6,409.7 L832.9,420.9 L833.2,411.2 L833.5,391.3 L833.8,416.5 L834.1,404.2 L834.4,369.9 L834.7,412.8 L834.9,392.8 L835.2,386.1 L835.5,403.8 L835.8,412.5 L836.2,426.0 L836.4,422.6 L836.8,410.6 L837.0,424.0 L837.4,407.8 L838.2,392.2 L838.5,408.0 L838.8,387.6 L839.1,404.8 L839.3,422.2 L839.6,408.0 L839.9,425.8 L840.2,390.9 L840.5,433.9 L840.8,417.4 L841.1,434.5 L841.4,413.8 L841.7,417.2 L842.1,388.9 L842.3,410.4 L842.6,399.7 L842.9,431.2 L843.1,431.8 L843.5,421.1 L844.8,399.5 L845.1,423.7 L845.3,418.1 L845.6,428.6 L845.9,395.1 L846.2,403.0 L846.5,432.8 L846.8,419.2 L847.1,434.7 L847.5,434.9 L847.7,412.7 L848.0,420.0 L848.3,431.9 L848.6,401.0 L848.9,404.9 L849.2,413.6 L849.5,430.4 L849.7,412.8 L850.0,435.9 L851.3,434.3 L851.6,428.9 L851.9,419.5 L852.2,432.2 L852.5,411.9 L852.7,439.3 L853.0,440.6 L853.4,444.0 L853.6,439.6 L854.0,432.2 L854.2,433.3 L854.6,426.9 L854.9,428.6 L855.1,413.0 L855.4,436.1 L855.7,419.2 L856.0,427.8 L856.2,431.7 L856.5,444.3 L856.8,425.3 L857.9,442.2 L858.2,432.0 L858.5,446.0 L858.8,443.7 L859.0,426.2 L859.3,423.7 L859.6,435.9 L859.9,441.1 L860.2,427.8 L860.5,444.3 L860.8,427.2 L861.1,431.4 L861.4,425.0 L861.8,441.9 L862.0,429.5 L862.4,434.3 L862.6,450.0 L863.0,431.0 L863.3,445.8 L864.5,439.7 L864.8,443.1 L865.0,433.8 L865.3,444.4 L865.6,440.6 L865.9,441.6 L866.2,448.0 L866.5,445.6 L866.8,452.3 L867.1,440.0 L867.3,447.7 L867.7,447.9 L867.9,439.1 L868.3,447.0 L868.6,453.1 L868.9,441.4 L869.2,448.0 L869.4,452.4 L869.7,443.6 L870.0,445.8 L871.1,450.9 L871.3,447.4 L871.6,449.5 L871.9,454.5 L872.2,450.9 L872.6,449.3 L872.8,450.6 L873.2,450.6 L873.4,449.9 L873.7,450.6 L874.0,457.3 L874.3,456.3 L874.6,452.6 L874.9,454.9 L875.2,453.4 L875.4,457.9 L875.7,457.1 L876.0,454.3 L876.3,455.9 L877.7,459.4 L878.0,459.3 L878.3,459.1 L878.6,459.6 L878.8,461.3 L879.2,460.9 L879.5,461.7 L879.7,461.3 L880.0,462.3 L880.3,462.7 L880.6,462.1 L880.8,464.0 L881.1,462.1 L881.5,462.8 L881.7,464.4 L882.0,466.2 L882.3,463.9 L882.7,463.3 L883.0,468.1 L884.3,468.9 L884.6,470.3 L884.9,466.6 L885.2,469.4 L885.6,471.3 L885.9,469.3 L886.2,473.1 L886.5,469.7 L886.8,466.9 L887.1,467.0 L887.5,466.7 L887.8,475.9 L888.1,470.2 L888.5,473.3 L888.8,478.4 L889.1,477.7 L889.4,476.3 L889.7,478.9 L890.9,476.1 L891.1,481.0 L891.4,483.6 L891.8,476.1 L892.0,472.7 L892.4,479.2 L892.6,478.3 L893.0,484.9 L893.3,477.7 L893.6,476.3 L893.9,470.7 L894.2,479.8 L894.5,482.5 L894.8,472.1 L895.1,488.7 L895.5,478.3 L895.8,477.4 L896.1,475.8 L896.4,487.1 L897.5,484.6 L897.8,483.4 L898.1,480.6 L898.4,493.1 L898.7,475.8 L898.9,496.2 L899.2,485.5 L899.5,481.1 L899.8,481.2 L900.1,481.4 L900.4,496.9 L900.7,486.3 L901.0,496.0 L901.3,482.3 L901.6,493.5 L901.8,483.2 L902.2,496.6 L902.5,493.9 L902.8,479.6 L903.1,494.3 L904.1,503.0 L904.4,494.8 L904.7,486.5 L905.1,499.0 L905.4,495.7 L905.7,489.1 L906.0,489.8 L906.2,494.1 L906.5,489.9 L906.8,509.5 L907.1,511.4 L907.4,496.5 L907.7,491.2 L908.0,492.0 L908.3,503.2 L908.6,487.8 L908.9,510.9 L909.2,480.7 L909.5,502.6 L910.7,510.7 L911.1,490.7 L911.4,480.3 L911.6,488.1 L911.9,515.3 L912.2,486.3 L912.5,514.1 L912.7,490.4 L913.1,511.3 L913.3,487.0 L913.6,507.2 L914.0,508.9 L914.2,504.3 L914.5,498.2 L914.8,505.4 L915.1,500.9 L915.4,512.6 L915.6,513.1 L916.0,522.0 L916.3,506.0 L917.4,502.4 L917.7,516.8 L918.1,524.9 L918.4,506.5 L918.7,524.2 L919.0,512.6 L919.3,511.5 L919.5,515.8 L919.8,504.0 L920.1,510.6 L920.4,500.6 L920.7,495.9 L921.0,518.6 L921.3,528.6 L921.6,494.6 L921.9,532.9 L922.2,536.4 L922.5,515.0 L922.8,508.4 L924.0,499.4 L924.3,512.4 L924.5,518.6 L924.9,488.2 L925.2,488.6 L925.5,506.5 L925.9,537.1 L926.2,489.1 L926.4,524.2 L926.8,498.1 L927.1,538.6 L927.4,519.8 L927.7,536.2 L928.0,522.7 L928.3,542.6 L928.6,531.7 L928.9,539.4 L929.2,498.2 L929.5,534.0 L930.6,518.1 L930.9,497.4 L931.2,491.6 L931.4,513.2 L931.8,521.9 L932.1,502.8 L932.4,499.1 L932.7,523.0 L933.0,526.6 L933.3,507.4 L933.7,544.0 L934.0,522.9 L934.2,508.7 L934.5,544.0 L934.8,505.5 L935.1,537.6 L935.4,521.2 L935.8,544.0 L936.1,496.5 L937.2,527.3 L937.5,544.0 L937.8,539.5 L938.1,518.6 L938.4,544.0 L938.7,537.0 L939.0,544.0 L939.3,502.6 L939.6,544.0 L940.0,515.8 L940.2,518.3 L940.6,544.0 L940.9,526.0 L941.2,544.0 L941.5,502.5 L941.7,509.9 L942.0,531.9 L942.3,515.9 L942.6,544.0 L943.9,527.2 L944.2,530.1 L944.5,513.9 L944.8,544.0 L945.1,504.7 L945.4,525.3 L945.6,508.2 L945.9,510.9 L946.2,544.0 L946.5,522.3 L946.7,544.0 L947.1,515.9 L947.4,528.7 L947.7,515.9 L948.0,523.0 L948.3,543.6 L948.6,532.0 L948.9,544.0 L949.2,544.0 L950.5,534.8 L950.8,518.0 L951.1,544.0 L951.4,537.0 L951.7,504.7 L951.9,508.0 L952.3,544.0 L952.5,519.4 L952.8,508.5 L953.1,533.4 L953.4,544.0 L953.7,522.2 L954.0,537.8 L954.3,541.6 L954.6,544.0 L954.9,523.2 L955.3,526.7 L955.6,544.0 L955.9,544.0 L957.1,536.3 L957.4,544.0 L957.7,544.0 L958.0,542.4 L958.3,544.0 L958.6,507.4 L958.9,544.0 L959.2,544.0 L959.5,544.0 L959.8,544.0 L960.2,544.0 L960.4,544.0 L960.7,544.0 L961.0,544.0 L961.3,544.0 L961.6,544.0 L961.8,544.0 L962.1,544.0 L962.4,544.0 L963.7,544.0 L964.1,544.0 L964.3,523.0 L964.6,525.2 L964.9,544.0 L965.2,544.0 L965.5,544.0 L965.8,544.0 L966.1,544.0 L966.4,544.0 L966.7,532.7 L967.0,544.0 L967.2,524.1 L967.6,529.2 L967.8,544.0 L968.2,534.4 L968.5,544.0 L968.8,544.0 L969.1,544.0 L970.4,544.0 L970.7,544.0 L971.0,544.0 L971.3,544.0 L971.6,532.4 L971.9,544.0 L972.1,544.0 L972.4,544.0 L972.7,544.0 L973.1,530.6 L973.4,544.0 L973.6,544.0 L974.0,544.0 L974.3,540.8 L974.6,544.0 L974.9,544.0 L975.2,516.5 L975.5,544.0 L975.8,537.8 L977.0,544.0 L977.4,535.2 L977.6,544.0 L978.0,544.0 L978.3,544.0 L978.6,537.2 L978.9,544.0 L979.1,544.0 L979.4,544.0 L979.7,535.1 L980.0,541.2 L980.3,544.0 L980.6,544.0 L980.9,544.0 L981.2,544.0 L981.5,544.0 L981.8,544.0 L982.1,544.0 L982.4,544.0 L983.7,543.7 L984.0,544.0 L984.3,544.0 L984.5,544.0 L984.9,544.0 L985.2,544.0 L985.5,544.0 L985.8,544.0 L986.1,535.4 L986.4,544.0 L986.7,544.0 L987.0,544.0 L987.3,544.0 L987.5,544.0 L987.8,544.0 L988.2,544.0 L988.4,544.0 L988.8,544.0 L989.1,544.0 L990.3,544.0 L990.7,544.0 L990.9,544.0 L991.2,543.3 L991.5,544.0 L991.8,544.0 L992.1,532.6 L992.4,544.0 L992.7,544.0 L993.0,544.0 L993.3,544.0 L993.6,544.0 L993.9,544.0 L994.2,544.0 L994.5,544.0 L994.8,544.0 L995.1,531.7 L995.4,544.0 L995.7,544.0 L997.0,544.0 L997.3,544.0 L997.7,544.0 L998.0,544.0 L998.3,544.0 L998.6,544.0 L998.8,541.7 L999.1,544.0 L999.4,544.0 L999.7,544.0 L1000.0,544.0 L1000.3,544.0 L1000.6,544.0 L1000.9,544.0 L1001.2,544.0 L1001.5,540.7 L1001.7,544.0 L1002.0,530.0 L1002.3,544.0 L1003.7,537.8 L1003.9,544.0 L1004.2,544.0 L1004.5,544.0 L1004.8,544.0 L1005.1,544.0 L1005.4,544.0 L1005.7,544.0 L1006.0,544.0 L1006.4,544.0 L1006.7,544.0 L1007.0,544.0 L1007.3,544.0 L1007.6,544.0 L1007.9,544.0 L1008.2,544.0 L1008.5,544.0 L1008.8,544.0 L1009.0,544.0 L1010.3,544.0 L1010.6,544.0 L1010.9,544.0 L1011.2,544.0 L1011.5,544.0 L1011.8,544.0 L1012.1,544.0 L1012.4,544.0 L1012.7,538.9 L1012.9,544.0 L1013.3,544.0 L1013.6,544.0 L1013.9,544.0 L1014.1,544.0 L1014.4,544.0 L1014.8,544.0 L1015.0,544.0 L1015.4,544.0 L1015.7,544.0 L1017.0,544.0 L1017.3,544.0 L1017.5,544.0 L1017.8,544.0 L1018.1,544.0 L1018.4,540.6 L1018.7,544.0 L1019.0,544.0 L1019.3,544.0 L1019.6,544.0 L1019.9,544.0 L1020.3,544.0 L1020.6,544.0 L1020.9,544.0 L1021.2,544.0 L1021.5,544.0 L1021.8,544.0 L1022.1,544.0 L1022.4,544.0 L1023.6,544.0 L1023.9,544.0 L1024.2,544.0 L1024.5,544.0 L1024.8,544.0 L1025.1,544.0 L1025.4,544.0 L1025.7,544.0 L1025.9,544.0 L1026.3,544.0 L1026.6,544.0 L1026.9,544.0 L1027.2,544.0 L1027.4,544.0 L1027.7,544.0 L1028.1,544.0 L1028.3,544.0 L1028.6,544.0 L1028.9,544.0 L1030.3,544.0 L1030.6,544.0 L1030.9,544.0 L1031.2,544.0 L1031.5,544.0 L1031.7,544.0 L1032.0,544.0 L1032.3,544.0 L1032.6,544.0 L1033.0,544.0 L1033.2,544.0 L1033.6,544.0 L1033.9,544.0 L1034.2,544.0 L1034.5,544.0 L1034.8,544.0 L1035.1,544.0 L1035.4,544.0 L1035.7,544.0 L1037.0,544.0 L1037.3,544.0 L1037.6,544.0 L1037.9,544.0 L1038.1,544.0 L1038.4,544.0 L1038.7,544.0 L1039.0,544.0 L1039.3,544.0 L1039.6,544.0 L1039.9,544.0 L1040.1,544.0 L1040.4,544.0 L1040.7,544.0 L1041.0,544.0 L1041.3,544.0 L1041.6,544.0 L1041.9,544.0 L1042.2,544.0 L1042.5,544.0 L1043.7,544.0 L1044.0,544.0 L1044.3,544.0 L1044.6,544.0 L1044.9,544.0 L1045.2,544.0 L1045.5,544.0 L1045.8,544.0 L1046.1,544.0 L1046.4,544.0 L1046.7,544.0 L1047.0,544.0 L1047.3,544.0 L1047.6,544.0 L1047.9,544.0 L1048.3,544.0 L1048.5,544.0 L1048.9,544.0 L1049.2,544.0 L1050.4,544.0 L1050.7,544.0 L1050.9,544.0 L1051.2,544.0 L1051.5,544.0 L1051.8,544.0 L1052.1,544.0 L1052.4,544.0 L1052.8,544.0 L1053.1,544.0 L1053.4,544.0 L1053.7,544.0 L1054.0,544.0 L1054.3,544.0 L1054.6,544.0 L1054.9,544.0 L1055.2,544.0 L1055.6,544.0 L1055.8,544.0 L1057.0,544.0 L1057.3,544.0 L1057.6,544.0 L1057.9,544.0 L1058.2,544.0 L1058.5,544.0 L1058.8,544.0 L1059.1,544.0 L1059.3,544.0 L1059.7,544.0 L1060.0,544.0 L1060.2,544.0 L1060.6,544.0 L1060.9,544.0 L1061.2,544.0 L1061.5,544.0 L1061.7,544.0 L1062.0,544.0 L1062.3,544.0 L1063.7,544.0 L1064.0,544.0 L1064.2,544.0 L1064.6,544.0 L1064.9,544.0 L1065.2,544.0 L1065.5,544.0 L1065.8,544.0 L1066.1,544.0 L1066.5,544.0 L1066.7,544.0 L1067.1,544.0 L1067.4,544.0 L1067.7,544.0 L1068.0,544.0 L1068.2,544.0 L1068.5,544.0 L1068.9,544.0 L1069.1,544.0 L1070.4,544.0 L1071.2,544.0 L1071.4,544.0 L1071.7,544.0 L1072.0,544.0 L1072.3,544.0 L1072.6,544.0 L1072.9,544.0 L1073.2,544.0 L1073.5,544.0 L1073.9,544.0 L1074.1,544.0 L1074.5,544.0 L1074.8,544.0 L1075.9,544.0 L1078.0,544.0 L1078.3,544.0 L1078.6,544.0 L1078.9,544.0 L1079.2,544.0 L1079.5,544.0 L1079.8,544.0 L1080.2,544.0 L1080.4,544.0 L1080.7,544.0 L1081.8,544.0 L1082.2,544.0 L1084.0,544.0" fill="none" stroke="#1f77b4" stroke-width="1.4" opacity="0.85"/><text x="1040" y="54" fill="#ff7f0e" font-size="11">roll 26</text><text x="1090" y="558" fill="#ff7f0e" font-size="11">-24</text><path d="M636.5,320.3 L636.8,315.6 L637.1,315.6 L637.5,322.2 L637.8,320.3 L638.1,322.2 L638.3,320.3 L638.6,321.2 L638.9,317.5 L639.2,317.5 L639.5,322.2 L639.8,318.4 L640.1,315.6 L640.4,314.7 L640.7,317.5 L641.0,319.4 L641.3,314.7 L641.6,320.3 L641.9,316.6 L642.2,317.5 L642.5,318.4 L642.9,319.4 L643.1,314.7 L643.5,322.2 L643.8,314.7 L644.0,313.7 L644.3,319.4 L644.6,316.6 L644.9,316.6 L645.1,317.5 L645.4,321.2 L645.7,314.7 L646.0,316.6 L646.3,313.7 L646.5,318.4 L646.8,321.2 L647.1,314.7 L647.4,316.6 L647.7,320.3 L647.9,316.6 L648.2,316.6 L648.5,322.2 L648.8,320.3 L649.1,319.4 L649.4,322.2 L649.7,320.3 L650.0,316.6 L650.3,314.7 L650.6,314.7 L650.9,318.4 L651.2,319.4 L651.5,322.2 L651.8,314.7 L652.1,317.5 L652.4,317.5 L652.7,317.5 L653.0,321.2 L653.3,322.2 L653.6,321.2 L653.9,320.3 L654.2,314.7 L654.5,318.4 L654.8,322.2 L655.2,319.4 L655.4,318.4 L655.8,322.2 L656.0,318.4 L656.4,316.6 L656.7,311.9 L657.0,318.4 L657.3,314.7 L657.6,317.5 L657.9,315.6 L658.2,317.5 L658.5,321.2 L658.8,311.9 L659.0,317.5 L659.3,317.5 L659.6,317.5 L659.8,319.4 L660.2,322.2 L660.4,312.8 L660.8,317.5 L661.1,315.6 L661.4,316.6 L661.7,321.2 L662.0,320.3 L662.3,313.7 L662.6,320.3 L662.9,318.4 L663.2,319.4 L663.5,322.2 L663.8,317.5 L664.1,320.3 L664.4,316.6 L664.7,311.9 L665.0,316.6 L665.3,321.2 L665.6,318.4 L665.8,313.7 L666.1,311.9 L666.4,319.4 L666.7,312.8 L667.0,316.6 L667.2,316.6 L667.5,311.9 L667.8,322.2 L668.1,312.8 L668.4,321.2 L668.6,316.6 L668.9,314.7 L669.2,310.9 L669.5,315.6 L669.7,320.3 L670.1,315.6 L670.4,312.8 L670.7,318.4 L671.0,310.9 L671.3,315.6 L671.6,316.6 L671.9,318.4 L672.2,317.5 L672.5,314.7 L672.8,321.2 L673.1,319.4 L673.4,311.9 L673.7,322.2 L674.0,311.9 L674.3,320.3 L674.6,318.4 L674.9,315.6 L675.1,316.6 L675.5,315.6 L675.8,316.6 L676.2,319.4 L676.4,314.7 L676.7,313.7 L677.0,319.4 L677.3,318.4 L677.6,318.4 L677.9,321.2 L678.1,312.8 L678.4,319.4 L678.7,319.4 L679.0,322.2 L679.3,317.5 L679.5,303.4 L679.9,287.5 L680.1,237.0 L680.4,269.8 L680.7,237.9 L681.0,182.7 L681.3,200.5 L681.6,190.2 L681.9,158.4 L682.3,237.0 L682.5,203.3 L682.8,128.4 L683.1,161.2 L683.4,211.7 L683.7,153.7 L683.9,176.2 L684.2,214.5 L684.5,183.6 L684.8,135.9 L685.1,216.4 L685.4,178.0 L685.7,122.8 L686.0,124.7 L686.3,166.8 L686.6,173.3 L686.9,138.7 L687.2,260.4 L687.4,229.5 L687.8,193.9 L688.1,228.6 L688.3,211.7 L688.7,217.3 L688.9,187.4 L689.3,204.2 L689.6,245.4 L689.9,158.4 L690.2,206.1 L690.6,177.1 L690.8,244.5 L691.2,241.7 L691.4,235.1 L691.7,300.6 L692.0,308.1 L692.3,332.5 L692.6,359.6 L692.8,388.6 L693.2,355.9 L693.5,433.6 L693.8,365.2 L694.1,438.2 L694.4,426.1 L694.7,413.9 L695.0,416.7 L695.2,517.8 L695.6,529.0 L695.8,436.4 L696.2,478.5 L696.5,390.5 L696.8,440.1 L697.1,440.1 L697.4,470.1 L697.7,463.5 L698.0,494.4 L698.2,507.5 L698.6,515.0 L699.3,475.7 L699.6,442.9 L699.9,475.7 L700.1,479.4 L700.5,423.3 L700.7,400.8 L701.1,395.2 L701.4,482.2 L701.7,458.8 L702.0,424.2 L702.3,535.6 L702.6,430.7 L702.9,515.0 L703.2,510.3 L703.5,503.8 L703.8,383.0 L704.1,490.6 L704.4,520.6 L704.7,435.4 L705.2,460.7 L705.5,440.1 L705.8,441.0 L706.1,446.7 L706.4,544.0 L706.6,528.1 L706.9,460.7 L707.2,539.3 L707.5,400.8 L707.9,541.2 L708.1,519.7 L708.5,446.7 L708.8,461.6 L709.0,454.1 L709.3,413.9 L709.6,537.4 L709.9,508.4 L710.1,457.0 L710.4,481.3 L710.7,414.8 L711.0,366.2 L711.3,373.6 L711.6,331.5 L711.9,320.3 L712.2,294.1 L712.5,231.4 L712.8,242.6 L713.1,220.1 L713.5,235.1 L713.8,193.9 L714.0,227.6 L714.3,227.6 L714.6,221.1 L714.9,118.1 L715.2,210.8 L715.4,177.1 L715.8,183.6 L716.1,150.9 L716.4,153.7 L716.9,164.9 L717.2,163.0 L717.4,180.8 L717.7,248.2 L718.0,80.7 L718.3,243.5 L718.6,231.4 L718.9,228.6 L719.2,101.3 L719.5,134.0 L719.8,161.2 L720.2,139.6 L720.4,236.1 L720.8,181.8 L721.1,122.8 L721.4,151.8 L721.7,156.5 L722.0,188.3 L722.3,112.5 L722.8,158.4 L723.1,202.4 L723.3,93.8 L723.6,234.2 L723.9,194.9 L724.2,130.3 L724.5,153.7 L724.8,196.7 L725.1,171.5 L725.3,129.4 L725.6,143.4 L725.9,182.7 L726.2,102.2 L726.5,223.9 L726.7,179.0 L727.1,195.8 L727.3,149.0 L727.7,149.9 L728.0,141.5 L728.3,193.0 L728.6,102.2 L729.0,197.7 L729.2,130.3 L729.5,208.9 L729.8,121.9 L730.1,113.4 L730.4,114.4 L730.6,239.8 L730.9,165.9 L731.2,87.2 L731.5,169.6 L731.8,120.9 L732.1,205.2 L732.4,187.4 L732.7,249.2 L733.0,242.6 L733.2,188.3 L733.5,175.2 L733.8,87.2 L734.1,111.6 L734.5,105.0 L734.8,206.1 L735.0,106.0 L735.4,198.6 L735.6,187.4 L736.0,213.6 L736.3,199.6 L736.6,115.3 L736.9,179.0 L737.1,155.6 L737.4,194.9 L737.7,234.2 L738.0,96.6 L738.4,76.0 L738.6,198.6 L739.0,141.5 L739.3,118.1 L739.6,77.9 L739.9,120.0 L740.4,218.3 L740.6,236.1 L740.9,212.7 L741.2,140.6 L741.5,247.3 L741.8,111.6 L742.1,247.3 L742.4,137.8 L742.7,146.2 L742.9,164.0 L743.3,102.2 L743.5,103.1 L743.9,133.1 L744.2,111.6 L744.5,147.1 L744.8,113.4 L745.1,167.7 L745.4,181.8 L745.7,132.2 L746.5,236.1 L746.7,179.0 L747.0,159.3 L747.3,202.4 L747.5,171.5 L747.8,181.8 L748.1,133.1 L748.4,207.0 L748.7,143.4 L748.9,214.5 L749.2,223.9 L749.5,174.3 L749.8,124.7 L750.1,208.9 L750.4,201.4 L750.8,100.3 L751.1,193.9 L751.4,116.2 L751.7,243.5 L751.9,147.1 L752.5,225.8 L752.8,193.0 L753.1,184.6 L753.4,202.4 L753.7,149.0 L753.9,198.6 L754.2,167.7 L754.5,248.2 L754.8,142.5 L755.1,187.4 L755.3,156.5 L755.6,186.4 L755.9,242.6 L756.2,229.5 L756.5,152.8 L756.8,202.4 L757.1,106.9 L757.3,106.0 L757.6,180.8 L757.9,184.6 L758.7,218.3 L759.0,226.7 L759.3,139.6 L759.6,86.3 L759.9,120.0 L760.1,109.7 L760.4,244.5 L760.7,209.8 L761.0,125.6 L761.3,130.3 L761.7,196.7 L762.0,222.0 L762.3,88.2 L762.6,193.0 L762.9,132.2 L763.2,120.0 L763.5,179.9 L763.8,179.0 L764.1,191.1 L764.8,199.6 L765.0,200.5 L765.3,179.0 L765.6,201.4 L765.9,242.6 L766.2,99.4 L766.5,156.5 L766.8,116.2 L767.1,158.4 L767.4,149.0 L767.7,128.4 L768.0,141.5 L768.3,175.2 L768.5,248.2 L768.8,158.4 L769.1,120.0 L769.4,173.3 L769.7,178.0 L770.0,106.9 L770.3,120.0 L770.9,141.5 L771.2,217.3 L771.4,250.1 L771.7,176.2 L772.0,233.2 L772.3,132.2 L772.6,252.0 L772.9,149.0 L773.2,231.4 L773.5,144.3 L773.8,177.1 L774.1,157.4 L774.4,145.3 L774.8,211.7 L775.0,147.1 L775.4,179.0 L775.7,149.9 L776.0,239.8 L776.3,135.0 L777.0,221.1 L777.3,224.8 L777.6,240.7 L777.8,215.5 L778.1,138.7 L778.4,134.0 L778.7,112.5 L779.0,182.7 L779.4,223.9 L779.7,241.7 L780.0,172.4 L780.3,249.2 L780.6,157.4 L780.9,188.3 L781.2,240.7 L781.6,214.5 L781.8,252.0 L782.2,106.0 L782.4,154.6 L783.1,145.3 L783.4,166.8 L783.7,142.5 L784.1,252.9 L784.3,227.6 L784.6,156.5 L784.9,156.5 L785.2,143.4 L785.5,118.1 L785.7,200.5 L786.0,145.3 L786.3,209.8 L786.6,140.6 L786.9,155.6 L787.2,223.0 L787.5,114.4 L787.8,157.4 L788.1,169.6 L788.3,194.9 L788.6,260.4 L789.2,222.0 L789.5,234.2 L789.7,257.6 L790.0,247.3 L790.3,260.4 L790.6,261.3 L790.9,149.0 L791.2,177.1 L791.5,153.7 L791.8,134.0 L792.1,191.1 L792.5,245.4 L792.7,209.8 L793.1,237.9 L793.4,214.5 L793.7,212.7 L794.0,149.0 L794.3,147.1 L794.6,228.6 L795.3,228.6 L795.6,264.1 L795.9,208.9 L796.2,206.1 L796.5,199.6 L796.8,240.7 L797.1,228.6 L797.4,259.5 L797.7,270.7 L798.0,164.0 L798.3,156.5 L798.6,161.2 L798.9,215.5 L799.3,254.8 L799.5,132.2 L799.9,195.8 L800.1,219.2 L800.5,252.9 L800.8,201.4 L801.4,102.2 L801.7,247.3 L802.0,181.8 L802.3,186.4 L802.6,194.9 L802.9,198.6 L803.2,115.3 L803.5,117.2 L803.8,190.2 L804.1,193.9 L804.4,182.7 L804.7,187.4 L805.0,204.2 L805.3,176.2 L805.5,258.5 L805.8,182.7 L806.1,165.9 L806.4,201.4 L806.7,198.6 L807.5,111.6 L807.9,139.6 L808.2,158.4 L808.4,208.9 L808.7,246.4 L809.0,171.5 L809.3,129.4 L809.6,171.5 L809.8,164.9 L810.2,155.6 L810.4,136.8 L810.7,145.3 L811.0,223.0 L811.3,223.0 L811.6,244.5 L811.8,138.7 L812.1,259.5 L812.4,180.8 L812.7,161.2 L813.0,254.8 L813.7,224.8 L814.0,204.2 L814.3,206.1 L814.6,269.8 L814.8,259.5 L815.1,230.4 L815.4,261.3 L815.7,170.5 L816.0,231.4 L816.3,234.2 L816.6,149.0 L816.8,190.2 L817.1,246.4 L817.4,251.0 L817.7,296.9 L818.0,286.6 L818.2,227.6 L818.5,220.1 L818.8,264.1 L819.1,244.5 L819.8,248.2 L820.1,253.8 L820.4,258.5 L820.7,254.8 L821.0,253.8 L821.3,259.5 L821.6,277.2 L821.9,261.3 L822.1,291.3 L822.5,252.9 L822.7,233.2 L823.1,253.8 L823.4,264.1 L823.7,237.0 L824.0,252.9 L824.2,161.2 L824.5,185.5 L824.8,213.6 L825.1,196.7 L825.9,215.5 L826.2,189.3 L826.5,201.4 L826.8,223.0 L827.1,241.7 L827.4,244.5 L827.7,236.1 L828.0,275.4 L828.3,199.6 L828.5,176.2 L828.8,214.5 L829.1,158.4 L829.4,222.0 L829.7,238.9 L830.0,253.8 L830.3,272.6 L830.5,273.5 L830.8,311.9 L831.1,249.2 L831.4,259.5 L832.1,314.7 L832.3,323.1 L832.6,321.2 L832.9,326.8 L833.2,332.5 L833.5,302.5 L833.8,308.1 L834.1,304.4 L834.4,302.5 L834.7,293.2 L834.9,293.2 L835.2,271.6 L835.5,271.6 L835.8,242.6 L836.1,274.4 L836.4,297.8 L836.8,252.9 L837.0,265.1 L837.4,243.5 L838.2,238.9 L838.5,184.6 L838.8,207.0 L839.1,187.4 L839.3,168.7 L839.6,217.3 L839.9,202.4 L840.2,199.6 L840.5,238.9 L840.8,190.2 L841.1,262.3 L841.4,280.0 L841.7,281.9 L842.0,203.3 L842.3,213.6 L842.6,185.5 L842.9,223.9 L843.1,212.7 L843.5,185.5 L844.7,303.4 L845.1,301.6 L845.3,294.1 L845.6,266.9 L845.9,231.4 L846.2,256.6 L846.5,246.4 L846.8,196.7 L847.1,202.4 L847.4,271.6 L847.7,175.2 L848.0,228.6 L848.3,207.0 L848.6,192.1 L848.9,269.8 L849.2,250.1 L849.5,235.1 L849.7,222.0 L850.0,193.0 L851.3,338.1 L851.6,356.8 L851.9,310.0 L852.2,320.3 L852.5,290.3 L852.7,241.7 L853.0,236.1 L853.3,231.4 L853.6,203.3 L854.0,257.6 L854.2,269.8 L854.6,205.2 L854.9,185.5 L855.1,268.8 L855.4,243.5 L855.7,185.5 L856.0,229.5 L856.2,239.8 L856.5,190.2 L856.8,266.0 L857.9,196.7 L858.2,179.0 L858.5,207.0 L858.8,264.1 L859.0,246.4 L859.3,211.7 L859.6,207.0 L859.9,222.0 L860.2,246.4 L860.5,263.2 L860.8,250.1 L861.1,254.8 L861.4,274.4 L861.8,277.2 L862.0,219.2 L862.4,179.9 L862.6,205.2 L863.0,236.1 L863.3,231.4 L864.5,319.4 L864.8,290.3 L865.0,324.0 L865.3,306.3 L865.6,316.6 L865.9,299.7 L866.2,290.3 L866.5,290.3 L866.8,287.5 L867.0,278.2 L867.3,263.2 L867.7,255.7 L867.9,229.5 L868.3,281.9 L868.5,257.6 L868.9,208.0 L869.2,225.8 L869.4,270.7 L869.7,273.5 L870.0,221.1 L871.1,225.8 L871.3,236.1 L871.6,256.6 L871.9,178.0 L872.2,244.5 L872.5,155.6 L872.8,222.0 L873.2,272.6 L873.4,227.6 L873.7,190.2 L874.0,281.9 L874.3,223.9 L874.6,277.2 L874.9,281.9 L875.2,213.6 L875.4,260.4 L875.7,252.9 L876.0,284.7 L876.3,223.9 L877.7,190.2 L878.0,162.1 L878.3,223.0 L878.6,188.3 L878.8,213.6 L879.2,196.7 L879.5,213.6 L879.7,227.6 L880.0,279.1 L880.3,273.5 L880.6,266.0 L880.8,271.6 L881.1,202.4 L881.5,245.4 L881.7,239.8 L882.0,223.0 L882.3,183.6 L882.7,251.0 L883.0,143.4 L884.3,215.5 L884.6,260.4 L884.9,250.1 L885.2,247.3 L885.6,257.6 L885.9,289.4 L886.2,305.3 L886.5,307.2 L886.8,270.7 L887.1,289.4 L887.5,246.4 L887.8,298.8 L888.1,287.5 L888.5,251.0 L888.8,279.1 L889.1,241.7 L889.4,262.3 L889.7,208.0 L890.9,220.1 L891.1,193.0 L891.4,266.0 L891.8,200.5 L892.0,240.7 L892.4,226.7 L892.6,264.1 L893.0,237.0 L893.3,173.3 L893.6,209.8 L893.9,231.4 L894.2,222.0 L894.5,224.8 L894.8,164.9 L895.1,172.4 L895.5,171.5 L895.8,240.7 L896.1,221.1 L896.4,281.0 L897.5,206.1 L897.8,176.2 L898.1,267.9 L898.4,249.2 L898.7,203.3 L898.9,180.8 L899.2,210.8 L899.5,167.7 L899.8,178.0 L900.0,159.3 L900.4,210.8 L900.7,244.5 L901.0,258.5 L901.3,267.9 L901.6,267.9 L901.8,280.0 L902.2,256.6 L902.5,288.5 L902.8,265.1 L903.1,297.8 L904.1,320.3 L904.4,325.9 L904.7,362.4 L905.1,364.3 L905.4,369.9 L905.7,352.1 L905.9,405.5 L906.2,432.6 L906.5,397.0 L906.8,433.6 L907.1,444.8 L907.4,369.9 L907.7,467.2 L908.0,355.9 L908.3,374.6 L908.6,459.8 L908.8,397.0 L909.2,402.7 L909.5,468.2 L910.7,393.3 L911.1,427.9 L911.4,442.0 L911.6,439.2 L911.9,481.3 L912.2,395.2 L912.5,433.6 L912.7,427.0 L913.1,407.3 L913.3,383.0 L913.6,452.3 L914.0,380.2 L914.2,387.7 L914.5,394.2 L914.8,340.9 L915.1,365.2 L915.4,359.6 L915.6,368.0 L916.0,382.1 L916.3,403.6 L917.4,273.5 L917.7,283.8 L918.1,283.8 L918.4,269.8 L918.7,228.6 L919.0,237.9 L919.3,296.0 L919.5,254.8 L919.8,220.1 L920.1,253.8 L920.4,250.1 L920.7,310.9 L921.0,326.8 L921.3,317.5 L921.6,326.8 L921.9,358.7 L922.2,351.2 L922.5,351.2 L922.8,370.8 L924.0,485.0 L924.3,426.1 L924.5,393.3 L924.9,468.2 L925.2,415.8 L925.5,385.8 L925.9,373.6 L926.1,362.4 L926.4,347.4 L926.8,333.4 L927.0,326.8 L927.4,323.1 L927.7,351.2 L928.0,351.2 L928.3,364.3 L928.6,342.8 L928.9,336.2 L929.2,396.1 L929.5,343.7 L930.6,420.4 L930.9,380.2 L931.2,368.0 L931.4,457.0 L931.8,389.6 L932.1,369.9 L932.4,367.1 L932.7,379.3 L933.0,429.8 L933.3,449.5 L933.7,438.2 L934.0,424.2 L934.2,380.2 L934.5,375.5 L934.8,364.3 L935.1,447.6 L935.4,476.6 L935.8,403.6 L936.1,403.6 L937.2,303.4 L937.5,296.0 L937.8,301.6 L938.1,299.7 L938.4,304.4 L938.7,318.4 L939.0,312.8 L939.3,333.4 L939.6,351.2 L940.0,367.1 L940.2,366.2 L940.6,399.9 L940.9,393.3 L941.2,413.9 L941.5,366.2 L941.7,423.3 L942.0,392.4 L942.3,406.4 L942.6,439.2 L943.9,325.9 L944.2,319.4 L944.5,310.9 L944.8,321.2 L945.1,317.5 L945.4,326.8 L945.6,318.4 L945.9,314.7 L946.2,317.5 L946.5,318.4 L946.7,353.1 L947.1,398.0 L947.4,376.5 L947.7,433.6 L948.0,360.5 L948.3,445.7 L948.6,433.6 L948.9,354.9 L949.2,345.6 L950.5,276.3 L950.8,283.8 L951.1,270.7 L951.4,277.2 L951.7,298.8 L951.9,307.2 L952.3,309.1 L952.5,303.4 L952.8,319.4 L953.1,292.2 L953.4,320.3 L953.7,351.2 L954.0,329.7 L954.3,347.4 L954.6,359.6 L954.9,383.0 L955.3,353.1 L955.6,326.8 L955.9,338.1 L957.1,263.2 L957.4,296.0 L957.7,321.2 L958.0,323.1 L958.3,353.1 L958.6,368.0 L958.9,318.4 L959.2,324.0 L959.5,325.9 L959.8,354.9 L960.2,317.5 L960.4,283.8 L960.7,298.8 L961.0,323.1 L961.3,344.6 L961.5,345.6 L961.8,367.1 L962.1,319.4 L962.4,328.7 L963.7,389.6 L964.0,424.2 L964.3,369.9 L964.6,383.9 L964.9,409.2 L965.2,447.6 L965.5,413.9 L965.8,488.8 L966.1,409.2 L966.4,432.6 L966.7,419.5 L966.9,367.1 L967.2,416.7 L967.6,413.9 L967.8,438.2 L968.2,363.4 L968.5,390.5 L968.8,467.2 L969.1,430.7 L970.4,311.9 L970.7,316.6 L971.0,349.3 L971.3,326.8 L971.6,342.8 L971.9,336.2 L972.1,337.1 L972.4,340.9 L972.7,367.1 L973.1,340.9 L973.3,387.7 L973.6,376.5 L974.0,367.1 L974.3,339.0 L974.6,327.8 L974.9,321.2 L975.2,322.2 L975.5,359.6 L975.8,386.8 L977.0,450.4 L977.4,411.1 L977.6,457.0 L978.0,416.7 L978.3,451.3 L978.6,347.4 L978.9,386.8 L979.1,354.9 L979.4,336.2 L979.7,369.0 L980.0,353.1 L980.3,362.4 L980.6,359.6 L980.9,326.8 L981.2,332.5 L981.5,339.0 L981.8,365.2 L982.1,337.1 L982.4,398.0 L983.7,307.2 L984.0,325.9 L984.3,331.5 L984.5,330.6 L984.9,402.7 L985.2,370.8 L985.5,413.9 L985.8,392.4 L986.1,412.0 L986.4,383.0 L986.7,361.5 L987.0,379.3 L987.3,409.2 L987.5,380.2 L987.8,457.0 L988.1,354.0 L988.4,376.5 L988.8,427.9 L989.1,461.6 L990.3,499.1 L990.7,439.2 L990.9,406.4 L991.2,505.6 L991.5,524.3 L991.8,398.9 L992.1,528.1 L992.4,451.3 L992.7,488.8 L993.0,522.5 L993.3,487.8 L993.6,427.9 L993.9,374.6 L994.2,391.4 L994.5,384.9 L994.8,404.5 L995.1,398.9 L995.4,370.8 L995.7,393.3 L997.0,406.4 L997.3,481.3 L997.7,486.9 L998.0,480.4 L998.3,433.6 L998.6,417.6 L998.8,389.6 L999.1,381.1 L999.4,447.6 L999.7,377.4 L1000.0,436.4 L1000.3,449.5 L1000.6,477.5 L1000.9,505.6 L1001.2,434.5 L1001.5,465.4 L1001.7,377.4 L1002.0,369.0 L1002.3,387.7 L1003.7,401.7 L1003.9,414.8 L1004.2,391.4 L1004.5,415.8 L1004.8,460.7 L1005.1,463.5 L1005.4,454.1 L1005.7,500.0 L1006.0,391.4 L1006.3,387.7 L1006.7,383.0 L1007.0,433.6 L1007.3,374.6 L1007.6,380.2 L1007.9,354.9 L1008.2,347.4 L1008.5,422.3 L1008.8,427.9 L1009.0,399.9 L1010.3,448.5 L1010.6,375.5 L1010.9,480.4 L1011.2,380.2 L1011.5,421.4 L1011.8,455.1 L1012.1,377.4 L1012.4,441.0 L1012.7,386.8 L1012.9,424.2 L1013.3,471.9 L1013.6,438.2 L1013.9,421.4 L1014.1,383.9 L1014.4,418.6 L1014.8,406.4 L1015.0,394.2 L1015.4,419.5 L1015.7,442.0 L1017.0,402.7 L1017.3,379.3 L1017.5,392.4 L1017.8,385.8 L1018.1,486.0 L1018.4,465.4 L1018.7,427.9 L1019.0,428.9 L1019.3,416.7 L1019.6,368.0 L1019.9,337.1 L1020.3,315.6 L1020.6,310.9 L1020.9,268.8 L1021.2,301.6 L1021.5,245.4 L1021.8,310.0 L1022.1,325.0 L1022.4,316.6 L1023.6,295.0 L1023.9,340.0 L1024.2,339.0 L1024.5,385.8 L1024.8,340.9 L1025.1,405.5 L1025.4,353.1 L1025.7,406.4 L1025.9,442.0 L1026.3,440.1 L1026.6,384.9 L1026.9,417.6 L1027.2,418.6 L1027.4,487.8 L1027.7,405.5 L1028.1,396.1 L1028.3,377.4 L1028.6,369.9 L1028.9,356.8 L1030.3,420.4 L1030.6,334.3 L1030.9,326.8 L1031.2,360.5 L1031.5,346.5 L1031.7,374.6 L1032.0,380.2 L1032.3,340.9 L1032.6,333.4 L1033.0,310.9 L1033.2,337.1 L1033.6,336.2 L1033.8,375.5 L1034.2,349.3 L1034.5,348.4 L1034.8,313.7 L1035.1,314.7 L1035.4,322.2 L1035.7,311.9 L1037.0,387.7 L1037.3,374.6 L1037.6,396.1 L1037.9,354.9 L1038.1,422.3 L1038.4,364.3 L1038.7,437.3 L1039.0,370.8 L1039.3,383.9 L1039.6,402.7 L1039.9,391.4 L1040.1,404.5 L1040.4,375.5 L1040.7,433.6 L1041.0,360.5 L1041.3,378.3 L1041.6,348.4 L1041.9,371.8 L1042.2,383.0 L1042.5,399.9 L1043.7,369.9 L1044.0,409.2 L1044.3,426.1 L1044.6,355.9 L1044.9,363.4 L1045.2,369.9 L1045.5,428.9 L1045.8,388.6 L1046.1,442.0 L1046.4,379.3 L1046.7,455.1 L1047.0,492.5 L1047.3,457.9 L1047.6,486.0 L1047.9,420.4 L1048.3,428.9 L1048.5,366.2 L1048.9,421.4 L1049.2,387.7 L1050.4,397.0 L1050.7,440.1 L1050.9,426.1 L1051.2,374.6 L1051.5,446.7 L1051.8,394.2 L1052.1,401.7 L1052.4,335.3 L1052.8,384.9 L1053.1,375.5 L1053.4,407.3 L1053.7,384.9 L1054.0,410.2 L1054.3,399.9 L1054.6,343.7 L1054.9,362.4 L1055.2,401.7 L1055.5,354.0 L1055.8,381.1 L1057.0,266.0 L1057.3,289.4 L1057.6,331.5 L1057.9,325.9 L1058.2,368.0 L1058.5,343.7 L1058.8,319.4 L1059.1,331.5 L1059.3,358.7 L1059.7,332.5 L1060.0,335.3 L1060.2,377.4 L1060.6,376.5 L1060.9,414.8 L1061.2,360.5 L1061.5,357.7 L1061.7,352.1 L1062.0,356.8 L1062.3,393.3 L1063.7,383.9 L1064.0,384.9 L1064.2,373.6 L1064.6,422.3 L1064.9,377.4 L1065.2,367.1 L1065.5,369.0 L1065.8,367.1 L1066.1,407.3 L1066.5,352.1 L1066.7,390.5 L1067.1,417.6 L1067.3,340.0 L1067.7,341.8 L1068.0,332.5 L1068.2,314.7 L1068.5,273.5 L1068.9,274.4 L1069.1,250.1 L1070.4,243.5 L1071.2,308.1 L1071.4,289.4 L1071.7,245.4 L1072.0,211.7 L1072.3,282.9 L1072.6,263.2 L1072.9,266.0 L1073.2,240.7 L1073.5,252.0 L1073.9,265.1 L1074.1,194.9 L1074.5,232.3 L1074.8,196.7 L1075.1,228.6 L1078.0,218.3 L1078.3,185.5 L1078.6,191.1 L1078.9,232.3 L1079.2,272.6 L1079.5,267.9 L1079.8,278.2 L1080.1,271.6 L1080.4,271.6 L1080.7,260.4 L1081.8,259.5 L1082.2,210.8 L1084.0,145.3" fill="none" stroke="#ff7f0e" stroke-width="1.1" opacity="0.85"/><text x="616" y="572" font-size="11" fill="#888">time 0..84 s — altitude (blue) &amp; roll (orange)</text></svg>