<svg xmlns="http://www.w3.org/2000/svg" width="1140" height="600" font-family="sans-serif" font-size="13"><rect width="1140" height="600" fill="white"/><text x="20" y="26" font-size="15" fill="#333">Coludo flight</text><rect x="20" y="40" width="540" height="540" fill="#fbfbfb" stroke="#ddd"/><rect x="50" y="233" width="411" height="88" fill="#cde" stroke="#369" opacity="0.7"/><text x="50" y="228" fill="#369" font-size="12">landing zone</text><circle cx="310" cy="371" r="5" fill="black"/><text x="318" y="375" font-size="12">pad</text><path d="M311.2,371.2 L311.2,371.2 L311.2,371.2 L311.2,371.2 L311.2,371.2 L311.2,371.2 L311.2,371.2 L311.2,371.2 L311.2,371.2 L311.2,371.2 L311.2,371.2 L311.2,371.2 L311.2,371.2 L311.2,371.2 L311.2,371.2 L311.2,371.2 L311.2,371.2 L311.2,371.2 L311.2,371.2 L311.2,371.2 L311.2,371.2 L311.2,371.2 L311.2,371.2 L311.2,371.2 L311.2,371.2 L311.2,371.2 L311.2,371.2 L311.2,371.2 L311.2,371.2 L311.2,371.2 L311.2,371.2 L311.2,371.2 L311.2,371.2 L311.2,371.2 L311.2,371.2 L311.2,371.2 L311.2,371.2 L311.2,371.2 L311.2,371.2 L311.2,371.2 L311.2,371.2 L311.2,371.2 L311.2,371.2 L311.2,371.2 L311.2,371.2 L311.2,371.2 L311.2,371.2 L311.2,371.2 L311.2,371.2 L311.2,371.2 L311.2,371.2 L311.2,371.2 L311.2,371.2 L311.2,371.2 L311.2,371.2 L311.2,371.2 L311.2,371.2 L311.2,371.2 L311.2,371.2 L311.2,371.2 L311.2,371.2 L311.2,371.2 L311.2,371.2 L311.2,371.2 L311.2,371.2 L311.2,371.2 L311.2,371.2 L311.2,371.2 L311.2,371.2 L311.2,371.2 L311.2,371.2 L311.2,371.2 L311.2,371.2 L311.2,371.2 L311.2,371.2 L311.2,370.7 L312.5,368.8 L312.5,367.8 L313.4,365.8 L315.6,364.4 L315.6,362.9 L317.8,361.4 L319.6,360.0 L320.1,359.0 L320.1,357.5 L322.3,356.0 L324.5,355.1 L326.7,353.6 L326.7,352.6 L328.9,351.6 L331.1,350.6 L333.3,349.7 L335.5,348.7 L337.7,347.7 L339.9,346.7 L340.8,346.2 L342.2,345.3 L344.4,344.3 L347.9,343.8 L348.8,342.8 L351.0,342.3 L353.2,341.3 L355.0,340.9 L357.6,339.9 L359.8,339.4 L362.0,338.9 L363.8,338.4 L366.5,337.9 L368.7,337.4 L369.1,336.4 L370.9,336.0 L375.3,335.5 L376.2,335.0 L377.5,334.0 L379.7,333.5 L383.3,333.0 L384.1,332.0 L386.4,331.5 L390.8,331.1 L392.1,330.6 L393.0,329.6 L395.2,329.1 L397.4,328.6 L399.6,328.1 L401.8,327.6 L404.0,326.7 L404.5,326.2 L408.5,325.2 L410.7,324.7 L411.5,323.7 L412.9,323.2 L417.3,321.8 L418.6,320.8 L419.5,319.8 L421.7,318.8 L423.9,318.3 L426.1,317.3 L426.6,315.9 L428.3,314.9 L430.6,313.4 L432.8,312.0 L434.5,310.5 L435.0,309.0 L435.0,308.0 L437.2,306.6 L439.4,304.6 L439.4,303.1 L439.8,301.2 L439.8,299.7 L441.6,297.8 L441.6,296.3 L443.8,294.3 L443.8,292.4 L443.8,290.4 L443.8,288.5 L446.0,286.5 L446.0,285.0 L446.0,282.6 L446.0,280.6 L446.0,278.2 L446.0,276.7 L443.8,274.2 L443.8,272.3 L443.8,269.8 L443.8,268.4 L441.6,265.9 L441.6,264.0 L439.8,261.5 L439.8,259.6 L439.4,257.6 L439.4,255.6 L437.2,253.2 L435.0,251.2 L434.5,248.8 L434.5,247.3 L432.8,244.9 L430.6,242.9 L428.3,240.5 L426.6,239.0 L426.1,237.5 L421.7,235.1 L419.5,233.6 L418.6,231.6 L417.3,229.7 L412.9,227.7 L411.5,226.7 L408.5,224.3 L406.2,222.8 L404.5,220.9 L401.8,219.4 L399.6,217.4 L399.2,216.0 L395.2,214.0 L393.0,212.5 L390.8,210.6 L388.6,208.6 L386.4,207.2 L384.1,205.7 L381.9,203.2 L379.7,201.8 L377.5,199.8 L376.2,197.4 L375.3,196.4 L373.1,193.9 L370.9,192.0 L369.1,189.5 L368.7,188.1 L366.5,186.1 L364.3,184.1 L364.3,181.7 L363.8,179.7 L362.0,177.3 L362.0,175.8 L359.8,173.4 L357.6,171.4 L357.6,169.4 L357.6,167.5 L355.4,165.0 L355.4,162.6 L355.4,160.6 L355.0,158.2 L355.0,156.7 L355.0,154.3 L355.0,152.3 L355.0,150.3 L355.0,148.4 L355.0,146.4 L355.4,144.5 L355.4,142.5 L355.4,140.5 L355.4,138.1 L357.6,137.1 L357.6,135.2 L359.8,133.2 L359.8,131.2 L362.0,129.8 L362.0,127.8 L363.8,126.8 L364.3,124.9 L364.3,123.4 L366.5,121.4 L369.1,119.5 L370.9,118.0 L373.1,116.5 L375.3,116.1 L376.2,115.1 L377.5,113.6 L379.7,112.6 L381.9,111.7 L383.3,111.2 L384.1,110.2 L388.6,109.2 L392.1,108.7 L393.0,108.2 L395.2,107.7 L399.2,107.2 L399.6,107.2 L401.8,107.2 L404.5,107.2 L406.2,107.2 L410.7,107.2 L412.9,107.7 L417.3,108.2 L418.6,108.2 L421.7,109.2 L423.9,109.7 L426.6,110.7 L430.6,111.2 L432.8,112.1 L435.0,113.1 L441.6,116.5 L446.0,117.5 L446.9,119.0 L450.4,121.0 L452.7,122.4 L456.6,124.4 L457.1,125.9 L461.5,127.3 L461.9,129.3 L465.9,131.2 L470.3,135.2 L472.5,137.6 L475.2,139.6 L477.0,142.5 L479.2,145.0 L482.3,147.4 L483.6,149.9 L488.0,152.8 L490.2,155.7 L491.1,158.2 L496.9,163.6 L497.3,167.0 L499.1,169.4 L501.3,173.4 L503.5,176.3 L505.7,179.7 L507.9,183.2 L510.1,187.1 L510.6,190.0 L512.3,194.4 L516.7,200.8 L516.7,204.7 L517.6,208.6 L519.0,212.5 L521.2,216.0 L521.2,220.4 L523.4,224.3 L525.6,228.2 L525.6,232.6 L526.5,237.0 L527.8,244.9 L527.8,248.8 L527.8,253.7 L530.0,257.6 L530.0,261.5 L530.0,266.4 L530.0,270.3 L530.0,275.7 L530.0,279.6 L530.0,284.5 L530.0,292.9 L530.0,297.8 L530.0,302.2 L530.0,307.6 L527.8,311.5 L527.8,316.9 L527.8,320.8 L526.5,326.2 L526.5,330.1 L525.6,335.0 L523.4,342.8 L521.2,347.7 L521.2,351.6 L519.0,357.0 L517.6,360.9 L516.7,366.3 L514.5,369.7 L512.3,375.1 L510.6,379.1 L510.1,384.0 L505.7,391.8 L504.4,396.2 L501.3,400.6 L499.1,404.5 L496.9,409.4 L494.6,412.8 L491.1,417.7 L490.2,421.7 L485.8,425.6 L479.2,436.4 L475.2,440.3 L472.5,443.7 L470.8,447.6 L465.9,450.6 L461.9,454.5 L459.3,457.9 L456.6,460.8 L452.7,464.3 L441.6,472.1 L439.4,475.5 L435.0,478.5 L430.6,480.4 L426.6,483.4 L423.9,485.8 L418.6,488.3 L415.1,489.7 L411.5,492.2 L399.6,497.6 L388.6,502.0 L384.1,503.0 L379.7,504.4 L376.2,505.4 L370.9,506.9 L368.7,507.9 L363.8,508.8 L359.8,510.3 L355.0,510.8 L348.8,511.8 L346.6,512.8" fill="none" stroke="#1f77b4" stroke-width="1.7" opacity="0.85"/><circle cx="347" cy="513" r="4.5" fill="#1f77b4"/><text x="28" y="572" font-size="11" fill="#888">ground track — m from pad (N up)</text><rect x="580" y="40" width="540" height="540" fill="#fbfbfb" stroke="#ddd"/><text x="586" y="54" fill="#1f77b4" font-size="11">alt 317</text><text x="586" y="558" fill="#1f77b4" font-size="11">-58</text><path d="M1061.0,468.8 L1061.1,468.4 L1061.1,468.6 L1061.1,468.4 L1061.1,468.4 L1061.2,468.2 L1061.2,468.1 L1061.2,467.2 L1061.2,467.1 L1061.2,466.3 L1061.3,465.7 L1061.3,464.8 L1061.3,465.5 L1061.3,464.6 L1061.4,463.2 L1061.4,462.7 L1061.4,460.8 L1061.4,461.6 L1061.5,459.1 L1061.5,457.6 L1061.5,456.6 L1061.5,457.2 L1061.6,455.3 L1061.6,455.9 L1061.6,453.4 L1061.6,453.4 L1061.6,449.4 L1061.7,448.1 L1061.7,450.5 L1061.7,449.0 L1061.7,445.1 L1061.8,442.7 L1061.8,440.7 L1061.8,439.9 L1061.8,440.5 L1061.8,437.6 L1061.9,433.5 L1061.9,430.3 L1061.9,434.3 L1061.9,429.9 L1062.0,429.5 L1062.0,425.4 L1062.0,428.1 L1062.0,424.6 L1062.1,423.4 L1062.1,417.2 L1062.1,416.9 L1062.1,407.9 L1062.1,415.4 L1062.2,409.8 L1062.2,406.6 L1062.2,403.6 L1062.2,400.2 L1062.3,397.7 L1062.3,391.9 L1062.3,388.5 L1062.3,386.0 L1062.4,384.2 L1062.4,392.7 L1062.4,381.7 L1062.4,386.6 L1062.4,368.5 L1062.5,369.1 L1062.5,371.9 L1062.5,367.4 L1062.5,358.2 L1062.6,356.2 L1062.6,368.3 L1062.6,352.0 L1062.6,341.0 L1062.7,337.9 L1062.7,346.8 L1062.7,351.7 L1062.7,336.3 L1062.8,342.8 L1062.8,338.5 L1062.8,315.9 L1062.8,312.9 L1062.8,312.7 L1062.9,311.1 L1062.9,305.7 L1062.9,319.6 L1062.9,316.0 L1063.0,291.9 L1063.0,290.9 L1063.0,309.0 L1063.0,277.7 L1063.1,304.8 L1063.1,297.2 L1063.1,300.1 L1063.1,265.3 L1063.1,283.2 L1063.2,257.5 L1063.2,286.0 L1063.2,285.1 L1063.2,246.9 L1063.3,246.2 L1063.3,279.0 L1063.3,234.9 L1063.3,239.0 L1063.4,229.7 L1063.4,236.6 L1063.4,260.5 L1063.4,264.9 L1063.4,241.3 L1063.5,229.5 L1063.5,222.0 L1063.5,233.2 L1063.5,205.7 L1063.6,247.6 L1063.6,230.8 L1063.6,221.7 L1063.6,232.2 L1063.7,230.2 L1063.7,229.9 L1063.7,196.5 L1063.7,225.5 L1063.8,209.9 L1063.8,180.0 L1063.8,212.5 L1063.8,188.7 L1063.8,170.3 L1063.9,217.9 L1063.9,214.3 L1063.9,184.4 L1063.9,178.0 L1064.0,199.9 L1064.0,195.9 L1064.0,197.3 L1064.0,186.1 L1064.1,154.4 L1064.1,188.9 L1064.1,174.9 L1064.1,156.4 L1064.1,162.0 L1064.2,180.9 L1064.2,175.3 L1064.2,148.6 L1064.2,171.1 L1064.3,136.2 L1064.3,168.1 L1064.3,180.0 L1064.3,130.5 L1064.4,175.3 L1064.4,164.5 L1064.4,167.0 L1064.4,167.5 L1064.5,179.9 L1064.5,156.6 L1064.5,165.3 L1064.5,126.5 L1064.5,117.5 L1064.6,163.4 L1064.6,153.1 L1064.6,110.5 L1064.6,126.9 L1064.7,120.4 L1064.7,125.5 L1064.7,141.3 L1064.7,114.1 L1064.8,145.3 L1064.8,107.6 L1064.8,152.9 L1064.8,115.0 L1064.9,141.2 L1064.9,106.5 L1064.9,147.4 L1064.9,134.3 L1065.0,124.8 L1065.0,114.5 L1065.0,134.5 L1065.0,116.5 L1065.0,100.6 L1065.1,154.5 L1065.1,137.1 L1065.1,137.9 L1065.1,98.2 L1065.2,112.3 L1065.2,123.6 L1065.2,87.5 L1065.2,138.1 L1065.3,129.7 L1065.3,140.9 L1065.3,139.0 L1065.3,134.9 L1065.4,76.0 L1065.4,124.6 L1065.4,78.9 L1065.4,101.4 L1065.5,105.4 L1065.5,103.0 L1065.5,109.9 L1065.5,96.6 L1065.5,110.6 L1065.6,77.3 L1065.6,112.8 L1065.6,86.0 L1065.6,86.1 L1065.7,106.5 L1065.7,96.6 L1065.7,112.9 L1065.7,111.8 L1065.8,107.1 L1065.8,142.7 L1065.8,123.0 L1065.8,147.8 L1065.8,112.3 L1065.9,146.2 L1065.9,80.0 L1065.9,145.1 L1066.0,117.3 L1066.0,103.0 L1066.0,105.9 L1066.0,140.3 L1066.1,106.2 L1066.1,98.2 L1066.1,77.9 L1066.1,138.2 L1066.1,112.7 L1066.2,86.8 L1066.2,114.4 L1066.2,111.0 L1066.2,110.4 L1066.3,83.6 L1066.3,147.1 L1066.3,81.7 L1066.3,96.3 L1066.4,112.3 L1066.4,146.5 L1066.4,100.0 L1066.4,100.2 L1066.5,91.8 L1066.5,141.9 L1066.5,107.0 L1066.5,138.9 L1066.6,116.9 L1066.6,149.2 L1066.6,89.7 L1066.6,119.7 L1066.7,109.1 L1066.7,152.9 L1066.7,149.7 L1066.7,86.7 L1066.7,103.5 L1066.8,152.8 L1066.8,126.2 L1066.8,137.1 L1066.8,131.7 L1066.9,98.4 L1066.9,148.3 L1066.9,84.8 L1066.9,115.0 L1067.0,135.3 L1067.0,108.0 L1067.0,122.0 L1067.0,131.8 L1067.1,154.0 L1067.1,138.0 L1067.1,149.3 L1067.1,143.8 L1067.2,140.5 L1067.2,98.3 L1067.2,121.0 L1067.2,104.3 L1067.3,103.7 L1067.3,122.2 L1067.3,95.3 L1067.3,151.7 L1067.3,109.8 L1067.4,134.8 L1067.4,158.4 L1067.4,90.7 L1067.4,102.8 L1067.5,110.4 L1067.5,123.3 L1067.5,117.0 L1067.6,94.1 L1067.6,127.1 L1067.6,160.0 L1067.6,135.0 L1067.6,143.3 L1067.7,133.7 L1067.7,116.7 L1067.7,152.3 L1067.7,135.2 L1067.8,110.5 L1067.8,144.1 L1067.8,159.8 L1067.8,128.2 L1067.9,132.8 L1067.9,147.8 L1067.9,125.6 L1067.9,137.0 L1067.9,152.5 L1068.0,164.2 L1068.0,150.4 L1068.0,100.0 L1068.0,119.5 L1068.1,103.9 L1068.1,142.0 L1068.1,98.6 L1068.2,139.4 L1068.2,146.2 L1068.2,121.0 L1068.2,161.0 L1068.3,136.7 L1068.3,136.3 L1068.3,140.6 L1068.3,164.5 L1068.4,131.3 L1068.4,155.7 L1068.4,164.9 L1068.4,156.8 L1068.4,157.5 L1068.5,134.6 L1068.5,131.8 L1068.5,109.9 L1068.5,123.1 L1068.6,125.9 L1068.6,144.9 L1068.6,142.8 L1068.6,158.0 L1068.7,113.5 L1068.7,169.3 L1068.7,123.1 L1068.8,134.6 L1068.8,125.7 L1068.8,163.1 L1068.8,122.1 L1068.8,127.7 L1068.9,117.6 L1068.9,123.9 L1068.9,121.9 L1068.9,121.7 L1069.0,152.4 L1069.0,175.9 L1069.0,133.2 L1069.0,147.5 L1069.1,156.6 L1069.1,120.7 L1069.1,172.0 L1069.1,141.1 L1069.1,175.7 L1069.2,114.7 L1069.2,125.5 L1069.3,155.4 L1069.3,146.7 L1069.3,138.5 L1069.3,154.6 L1069.4,130.2 L1069.4,178.8 L1069.4,167.1 L1069.4,119.6 L1069.4,159.3 L1069.5,154.1 L1069.5,142.3 L1069.5,175.4 L1069.5,130.5 L1069.6,136.7 L1069.6,176.1 L1069.6,158.3 L1069.6,146.4 L1069.7,173.6 L1069.7,178.5 L1069.7,162.0 L1069.7,129.3 L1069.7,162.9 L1069.8,127.5 L1069.8,130.1 L1069.9,181.7 L1069.9,165.4 L1069.9,139.7 L1069.9,180.9 L1070.0,141.3 L1070.0,130.7 L1070.0,175.9 L1070.0,133.0 L1070.0,184.5 L1070.1,161.3 L1070.1,132.4 L1070.1,175.1 L1070.1,167.7 L1070.2,159.4 L1070.2,144.0 L1070.2,150.3 L1070.2,192.5 L1070.3,148.8 L1070.3,139.9 L1070.3,187.1 L1070.3,174.2 L1070.3,184.6 L1070.4,153.0 L1070.4,179.5 L1070.5,167.4 L1070.5,165.4 L1070.5,195.9 L1070.5,198.4 L1070.6,151.1 L1070.6,192.9 L1070.6,181.4 L1070.6,196.0 L1070.6,146.2 L1070.7,144.2 L1070.7,148.2 L1070.7,166.6 L1070.7,174.3 L1070.8,200.9 L1070.8,175.3 L1070.8,167.2 L1070.8,186.0 L1070.9,189.7 L1070.9,176.4 L1070.9,159.5 L1070.9,160.0 L1071.0,181.3 L1071.0,179.3 L1071.0,199.5 L1071.1,186.8 L1071.1,202.3 L1071.1,206.0 L1071.1,175.6 L1071.2,193.6 L1071.2,179.0 L1071.2,174.6 L1071.2,180.8 L1071.2,164.7 L1071.3,214.4 L1071.3,213.5 L1071.3,212.4 L1071.3,178.9 L1071.4,201.0 L1071.4,184.7 L1071.4,172.9 L1071.4,170.8 L1071.5,186.0 L1071.5,200.4 L1071.5,199.7 L1071.6,176.9 L1071.6,165.4 L1071.6,185.1 L1071.6,167.1 L1071.7,177.3 L1071.7,216.8 L1071.7,220.9 L1071.7,178.7 L1071.8,207.3 L1071.8,201.7 L1071.8,196.4 L1071.8,208.2 L1071.8,193.7 L1071.9,208.8 L1071.9,197.8 L1071.9,201.7 L1071.9,216.1 L1072.0,187.8 L1072.0,205.3 L1072.0,202.7 L1072.0,176.9 L1072.1,192.6 L1072.1,215.7 L1072.1,181.7 L1072.2,197.1 L1072.2,225.6 L1072.2,207.1 L1072.2,204.3 L1072.3,199.0 L1072.3,214.3 L1072.3,206.1 L1072.3,188.0 L1072.4,193.1 L1072.4,187.9 L1072.4,214.3 L1072.4,198.4 L1072.4,194.5 L1072.5,238.5 L1072.5,198.8 L1072.5,199.0 L1072.5,228.3 L1072.6,228.6 L1072.6,233.0 L1072.6,215.7 L1072.6,224.6 L1072.7,234.8 L1072.7,215.4 L1072.7,229.3 L1072.8,202.0 L1072.8,222.1 L1072.8,226.4 L1072.8,221.2 L1072.9,228.7 L1072.9,221.0 L1072.9,245.0 L1072.9,201.0 L1073.0,220.0 L1073.0,223.4 L1073.0,207.2 L1073.0,209.6 L1073.0,248.9 L1073.1,213.5 L1073.1,226.4 L1073.1,202.9 L1073.1,245.8 L1073.2,248.8 L1073.2,226.7 L1073.2,247.2 L1073.2,214.5 L1073.3,233.4 L1073.3,231.3 L1073.3,247.5 L1073.4,242.0 L1073.4,226.9 L1073.4,220.1 L1073.4,222.2 L1073.5,240.3 L1073.5,249.0 L1073.5,240.5 L1073.5,250.1 L1073.6,220.9 L1073.6,232.3 L1073.6,215.4 L1073.6,227.0 L1073.6,217.5 L1073.7,234.6 L1073.7,262.6 L1073.7,246.4 L1073.7,259.5 L1073.8,226.6 L1073.8,264.0 L1073.8,264.1 L1073.9,255.3 L1073.9,253.0 L1073.9,263.9 L1074.0,244.4 L1074.0,264.4 L1074.0,265.5 L1074.0,264.8 L1074.0,251.2 L1074.1,242.7 L1074.1,271.6 L1074.1,268.4 L1074.1,241.5 L1074.2,271.7 L1074.2,239.7 L1074.2,245.7 L1074.2,268.3 L1074.3,251.6 L1074.3,240.0 L1074.3,258.6 L1074.3,274.1 L1074.3,255.2 L1074.4,256.5 L1074.4,249.9 L1074.5,266.7 L1074.5,270.9 L1074.5,271.7 L1074.5,266.3 L1074.6,269.3 L1074.6,272.0 L1074.6,273.8 L1074.6,282.9 L1074.6,259.6 L1074.7,258.4 L1074.7,272.3 L1074.7,284.2 L1074.7,251.7 L1074.8,276.1 L1074.8,286.1 L1074.8,286.9 L1074.8,288.6 L1074.9,275.6 L1074.9,286.9 L1074.9,263.1 L1074.9,257.2 L1074.9,274.8 L1075.0,264.6 L1075.1,281.6 L1075.1,276.0 L1075.1,266.8 L1075.2,266.6 L1075.2,269.1 L1075.2,297.3 L1075.2,278.5 L1075.3,271.7 L1075.3,270.5 L1075.3,270.5 L1075.3,284.2 L1075.3,299.4 L1075.4,266.3 L1075.4,266.1 L1075.4,298.7 L1075.4,282.8 L1075.5,281.4 L1075.5,293.3 L1075.5,304.8 L1075.5,270.0 L1075.6,275.0 L1075.6,305.8 L1075.6,305.5 L1075.7,301.1 L1075.7,299.8 L1075.8,302.9 L1075.8,285.9 L1075.8,295.3 L1075.8,301.8 L1075.8,286.7 L1075.9,306.0 L1075.9,305.0 L1075.9,286.5 L1075.9,297.3 L1076.0,310.7 L1076.0,300.6 L1076.0,287.8 L1076.0,308.8 L1076.1,293.2 L1076.1,291.9 L1076.1,303.3 L1076.1,307.5 L1076.1,289.8 L1076.2,312.2 L1076.2,300.4 L1076.2,301.1 L1076.3,305.9 L1076.4,304.7 L1076.4,320.0 L1076.4,318.7 L1076.4,305.1 L1076.4,324.2 L1076.5,308.7 L1076.5,314.8 L1076.5,301.5 L1076.5,304.4 L1076.6,313.9 L1076.6,317.9 L1076.6,313.5 L1076.6,325.8 L1076.7,307.4 L1076.7,309.8 L1076.7,321.9 L1076.7,321.2 L1076.8,313.4 L1076.8,329.1 L1076.8,331.7 L1076.8,329.7 L1076.8,326.5 L1077.0,318.3 L1077.0,314.2 L1077.0,335.9 L1077.0,330.9 L1077.0,336.6 L1077.1,326.4 L1077.1,324.7 L1077.1,332.8 L1077.1,328.3 L1077.2,346.5 L1077.2,347.1 L1077.2,327.9 L1077.2,331.0 L1077.3,336.5 L1077.3,329.4 L1077.3,336.0 L1077.3,336.5 L1077.3,347.2 L1077.4,329.3 L1077.4,348.5 L1077.4,327.3 L1077.4,354.1 L1077.5,335.8 L1077.6,346.5 L1077.6,342.2 L1077.6,348.8 L1077.6,346.7 L1077.7,340.6 L1077.7,360.2 L1077.7,345.1 L1077.7,350.3 L1077.8,358.5 L1077.8,354.2 L1077.8,357.5 L1077.8,362.6 L1077.9,343.5 L1077.9,342.9 L1077.9,345.3 L1077.9,346.7 L1077.9,357.6 L1078.0,347.0 L1078.0,352.5 L1078.0,363.7 L1078.0,354.4 L1078.1,356.4 L1078.1,357.0 L1078.2,364.4 L1078.2,361.6 L1078.2,361.5 L1078.3,365.4 L1078.3,370.2 L1078.3,367.9 L1078.3,367.5 L1078.4,371.7 L1078.4,366.7 L1078.4,368.1 L1078.4,362.4 L1078.5,368.7 L1078.5,370.0 L1078.5,373.2 L1078.5,382.1 L1078.5,368.7 L1078.6,368.5 L1078.6,368.7 L1078.6,373.1 L1078.6,368.8 L1078.7,377.0 L1078.7,370.2 L1078.7,369.7 L1078.8,388.4 L1078.8,375.9 L1078.9,377.3 L1078.9,377.0 L1078.9,377.2 L1078.9,392.0 L1079.0,379.0 L1079.0,389.5 L1079.0,392.7 L1079.0,393.3 L1079.1,392.0 L1079.1,389.8 L1079.1,389.8 L1079.1,388.1 L1079.1,386.8 L1079.2,394.5 L1079.2,398.0 L1079.2,386.9 L1079.2,387.6 L1079.3,393.3 L1079.3,401.0 L1079.3,398.6 L1079.3,403.7 L1079.4,400.8 L1079.5,396.8 L1079.5,402.9 L1079.5,407.6 L1079.5,408.2 L1079.6,398.7 L1079.6,400.3 L1079.6,401.4 L1079.6,408.8 L1079.7,409.0 L1079.7,411.7 L1079.7,410.9 L1079.7,408.5 L1079.7,415.8 L1079.8,415.1 L1079.8,411.6 L1079.8,416.3 L1079.8,419.1 L1079.9,412.1 L1079.9,413.1 L1079.9,416.1 L1079.9,412.7 L1080.0,411.8 L1080.1,419.5 L1080.1,416.6 L1080.1,419.9 L1080.1,423.3 L1080.2,418.9 L1080.2,420.4 L1080.2,424.2 L1080.2,427.0 L1080.3,429.0 L1080.3,425.9 L1080.3,424.9 L1080.3,427.4 L1080.4,427.1 L1080.4,431.0 L1080.4,433.1 L1080.4,431.5 L1080.4,428.9 L1080.5,432.3 L1080.5,435.9 L1080.5,432.4 L1080.5,433.8 L1080.6,432.2 L1080.6,434.2 L1080.7,441.5 L1080.7,440.3 L1080.7,440.0 L1080.8,445.1 L1080.8,444.9 L1080.8,443.9 L1080.8,446.4 L1080.9,445.4 L1080.9,443.3 L1080.9,447.4 L1080.9,448.8 L1081.0,449.5 L1081.0,449.6 L1081.0,450.4 L1081.0,452.0 L1081.0,449.3 L1081.1,451.6 L1081.1,453.4 L1081.1,451.4 L1081.1,454.5 L1081.2,455.5 L1081.2,456.5 L1081.2,457.6 L1081.3,458.7 L1081.3,460.8 L1081.4,459.9 L1081.4,462.3 L1081.4,462.9 L1081.4,463.1 L1081.5,463.1 L1081.5,464.8 L1081.5,465.0 L1081.5,466.5 L1081.6,467.5 L1081.6,467.9 L1081.6,468.1 L1081.6,469.5 L1081.7,469.8 L1081.7,470.7 L1081.7,471.4 L1081.7,471.9 L1081.7,473.0 L1081.8,473.4 L1081.8,474.5 L1081.8,474.9 L1081.8,475.4 L1082.0,478.5 L1082.0,479.6 L1082.0,479.8 L1082.0,482.0 L1082.0,481.5 L1082.1,481.6 L1082.1,483.6 L1082.1,483.4 L1082.1,483.7 L1082.2,485.8 L1082.2,484.7 L1082.2,488.1 L1082.2,488.6 L1082.3,486.7 L1082.3,490.4 L1082.3,488.3 L1082.3,490.7 L1082.3,493.3 L1082.4,491.7 L1082.4,492.9 L1082.4,495.5 L1082.4,495.6 L1082.5,496.4 L1082.6,496.8 L1082.6,500.8 L1082.6,497.1 L1082.6,500.5 L1082.7,500.5 L1082.7,502.1 L1082.7,502.7 L1082.7,504.6 L1082.8,500.2 L1082.8,501.1 L1082.8,505.4 L1082.8,507.8 L1082.9,502.8 L1082.9,507.5 L1082.9,508.9 L1082.9,504.6 L1083.0,505.6 L1083.0,507.4 L1083.0,511.7 L1083.0,509.1 L1083.0,509.9 L1083.1,508.3 L1083.1,514.5 L1083.2,511.9 L1083.2,515.5 L1083.3,520.8 L1083.4,524.5 L1083.4,517.6 L1083.4,518.3 L1083.4,519.1 L1083.5,525.6 L1083.5,527.3 L1083.5,529.8 L1083.5,527.5 L1083.6,522.6 L1083.6,525.5 L1083.6,524.7 L1083.6,527.9 L1083.6,527.4 L1083.7,524.3 L1083.7,533.3 L1083.7,535.6 L1083.8,538.1 L1083.8,532.0 L1083.8,535.0 L1083.9,534.5 L1083.9,540.6 L1083.9,532.4 L1083.9,536.9 L1084.0,539.1 L1084.0,544.0 L1084.0,540.8" fill="none" stroke="#1f77b4" stroke-width="1.4" opacity="0.85"/><text x="1040" y="54" fill="#ff7f0e" font-size="11">roll 24</text><text x="1090" y="558" fill="#ff7f0e" font-size="11">-19</text><path d="M1061.0,336.2 L1061.1,336.2 L1061.1,336.2 L1061.1,335.2 L1061.1,336.2 L1061.2,335.2 L1061.2,337.3 L1061.2,336.2 L1061.2,335.2 L1061.2,334.1 L1061.3,335.2 L1061.3,335.2 L1061.3,336.2 L1061.3,335.2 L1061.4,335.2 L1061.4,334.1 L1061.4,333.0 L1061.4,334.1 L1061.5,333.0 L1061.5,329.8 L1061.5,329.8 L1061.5,330.9 L1061.6,329.8 L1061.6,328.7 L1061.6,328.7 L1061.6,327.7 L1061.6,324.5 L1061.7,325.5 L1061.7,322.3 L1061.7,323.4 L1061.7,322.3 L1061.8,322.3 L1061.8,319.1 L1061.8,318.0 L1061.8,319.1 L1061.8,318.0 L1061.9,313.7 L1061.9,312.7 L1061.9,313.7 L1061.9,314.8 L1062.0,307.3 L1062.0,309.5 L1062.0,304.1 L1062.0,304.1 L1062.1,302.0 L1062.1,304.1 L1062.1,300.9 L1062.1,298.8 L1062.1,295.5 L1062.2,298.8 L1062.2,299.8 L1062.2,299.8 L1062.2,295.5 L1062.3,298.8 L1062.3,294.5 L1062.3,293.4 L1062.3,293.4 L1062.4,289.1 L1062.4,289.1 L1062.4,285.9 L1062.4,288.0 L1062.4,283.8 L1062.5,284.8 L1062.5,277.3 L1062.5,285.9 L1062.5,276.3 L1062.6,273.1 L1062.6,270.9 L1062.6,270.9 L1062.6,274.1 L1062.7,262.3 L1062.7,267.7 L1062.7,273.1 L1062.7,261.3 L1062.8,270.9 L1062.8,264.5 L1062.8,261.3 L1062.8,253.8 L1062.8,258.1 L1062.9,253.8 L1062.9,254.8 L1062.9,250.6 L1062.9,255.9 L1063.0,260.2 L1063.0,253.8 L1063.0,260.2 L1063.0,254.8 L1063.1,254.8 L1063.1,243.1 L1063.1,244.1 L1063.1,252.7 L1063.1,251.6 L1063.2,240.9 L1063.2,243.1 L1063.2,237.7 L1063.2,238.8 L1063.3,234.5 L1063.3,249.5 L1063.3,248.4 L1063.3,240.9 L1063.4,242.0 L1063.4,239.9 L1063.4,242.0 L1063.4,244.1 L1063.4,225.9 L1063.5,235.6 L1063.5,227.0 L1063.5,221.6 L1063.5,237.7 L1063.6,230.2 L1063.6,237.7 L1063.6,233.4 L1063.6,220.6 L1063.7,221.6 L1063.7,214.2 L1063.7,224.9 L1063.7,222.7 L1063.8,212.0 L1063.8,232.4 L1063.8,219.5 L1063.8,228.1 L1063.8,220.6 L1063.9,219.5 L1063.9,217.4 L1063.9,206.7 L1063.9,203.4 L1064.0,222.7 L1064.0,219.5 L1064.0,224.9 L1064.0,210.9 L1064.1,205.6 L1064.1,195.9 L1064.1,205.6 L1064.1,214.2 L1064.1,215.2 L1064.2,214.2 L1064.2,214.2 L1064.2,203.4 L1064.2,213.1 L1064.3,203.4 L1064.3,213.1 L1064.3,194.9 L1064.3,217.4 L1064.4,212.0 L1064.4,193.8 L1064.4,212.0 L1064.4,209.9 L1064.5,216.3 L1064.5,212.0 L1064.5,214.2 L1064.5,194.9 L1064.5,216.3 L1064.6,212.0 L1064.6,197.0 L1064.6,212.0 L1064.6,213.1 L1064.7,199.2 L1064.7,203.4 L1064.7,209.9 L1064.7,203.4 L1064.8,209.9 L1064.8,219.5 L1064.8,208.8 L1064.8,203.4 L1064.9,195.9 L1064.9,209.9 L1064.9,202.4 L1064.9,197.0 L1065.0,218.4 L1065.0,218.4 L1065.0,201.3 L1065.0,215.2 L1065.0,201.3 L1065.1,203.4 L1065.1,204.5 L1065.1,220.6 L1065.1,202.4 L1065.2,222.7 L1065.2,197.0 L1065.2,215.2 L1065.2,197.0 L1065.3,221.6 L1065.3,215.2 L1065.3,206.7 L1065.3,219.5 L1065.4,216.3 L1065.4,215.2 L1065.4,318.0 L1065.4,297.7 L1065.5,273.1 L1065.5,255.9 L1065.5,245.2 L1065.5,227.0 L1065.5,233.4 L1065.6,218.4 L1065.6,195.9 L1065.6,182.0 L1065.6,181.0 L1065.7,199.2 L1065.7,189.5 L1065.7,163.8 L1065.7,187.4 L1065.8,161.7 L1065.8,161.7 L1065.8,169.2 L1065.8,181.0 L1065.8,172.4 L1065.9,159.5 L1065.9,147.8 L1065.9,157.4 L1066.0,175.6 L1066.0,173.5 L1066.0,175.6 L1066.0,168.1 L1066.1,169.2 L1066.1,182.0 L1066.1,187.4 L1066.1,182.0 L1066.1,198.1 L1066.2,204.5 L1066.2,201.3 L1066.2,199.2 L1066.2,219.5 L1066.3,205.6 L1066.3,232.4 L1066.3,236.6 L1066.3,221.6 L1066.4,219.5 L1066.4,224.9 L1066.4,238.8 L1066.4,207.7 L1066.5,239.9 L1066.5,237.7 L1066.5,250.6 L1066.5,249.5 L1066.6,252.7 L1066.6,261.3 L1066.6,275.2 L1066.6,270.9 L1066.7,268.8 L1066.7,280.5 L1066.7,277.3 L1066.7,289.1 L1066.7,291.3 L1066.8,285.9 L1066.8,278.4 L1066.8,274.1 L1066.8,291.3 L1066.9,299.8 L1066.9,297.7 L1066.9,305.2 L1066.9,297.7 L1067.0,306.3 L1067.0,275.2 L1067.0,290.2 L1067.0,291.3 L1067.1,303.0 L1067.1,299.8 L1067.1,295.5 L1067.1,302.0 L1067.2,304.1 L1067.2,308.4 L1067.2,313.7 L1067.2,322.3 L1067.3,326.6 L1067.3,325.5 L1067.3,319.1 L1067.3,321.2 L1067.3,328.7 L1067.4,330.9 L1067.4,325.5 L1067.4,321.2 L1067.4,322.3 L1067.5,318.0 L1067.5,330.9 L1067.5,334.1 L1067.6,307.3 L1067.6,309.5 L1067.6,318.0 L1067.6,330.9 L1067.6,339.5 L1067.7,337.3 L1067.7,339.5 L1067.7,340.5 L1067.7,345.9 L1067.8,343.7 L1067.8,354.4 L1067.8,364.1 L1067.8,350.2 L1067.9,355.5 L1067.9,357.7 L1067.9,353.4 L1067.9,346.9 L1067.9,354.4 L1068.0,354.4 L1068.0,361.9 L1068.0,368.4 L1068.0,369.4 L1068.1,372.6 L1068.1,374.8 L1068.1,387.6 L1068.2,376.9 L1068.2,378.0 L1068.2,387.6 L1068.2,385.5 L1068.3,383.4 L1068.3,383.4 L1068.3,378.0 L1068.3,375.9 L1068.4,375.9 L1068.4,382.3 L1068.4,379.1 L1068.4,381.2 L1068.4,376.9 L1068.5,379.1 L1068.5,382.3 L1068.5,386.6 L1068.5,395.1 L1068.6,382.3 L1068.6,390.9 L1068.6,386.6 L1068.6,398.4 L1068.7,440.1 L1068.7,429.4 L1068.7,426.2 L1068.8,445.5 L1068.8,457.3 L1068.8,459.4 L1068.8,459.4 L1068.8,479.7 L1068.9,471.2 L1068.9,478.7 L1068.9,509.7 L1068.9,479.7 L1069.0,514.0 L1069.0,511.9 L1069.0,502.2 L1069.0,493.7 L1069.1,510.8 L1069.1,519.4 L1069.1,492.6 L1069.1,522.6 L1069.1,520.4 L1069.2,519.4 L1069.2,517.2 L1069.3,544.0 L1069.3,506.5 L1069.3,520.4 L1069.3,525.8 L1069.4,508.7 L1069.4,504.4 L1069.4,532.2 L1069.4,509.7 L1069.4,524.7 L1069.5,509.7 L1069.5,496.9 L1069.5,507.6 L1069.5,531.1 L1069.6,510.8 L1069.6,521.5 L1069.6,502.2 L1069.6,497.9 L1069.7,523.7 L1069.7,512.9 L1069.7,493.7 L1069.7,517.2 L1069.7,504.4 L1069.8,512.9 L1069.8,519.4 L1069.9,505.4 L1069.9,517.2 L1069.9,515.1 L1069.9,522.6 L1070.0,497.9 L1070.0,527.9 L1070.0,523.7 L1070.0,495.8 L1070.0,512.9 L1070.1,514.0 L1070.1,506.5 L1070.1,530.1 L1070.1,506.5 L1070.2,517.2 L1070.2,524.7 L1070.2,502.2 L1070.2,524.7 L1070.3,495.8 L1070.3,500.1 L1070.3,516.2 L1070.3,497.9 L1070.3,523.7 L1070.4,538.6 L1070.4,511.9 L1070.5,520.4 L1070.5,536.5 L1070.5,527.9 L1070.5,512.9 L1070.6,509.7 L1070.6,529.0 L1070.6,527.9 L1070.6,519.4 L1070.6,527.9 L1070.7,504.4 L1070.7,496.9 L1070.7,497.9 L1070.7,518.3 L1070.8,496.9 L1070.8,515.1 L1070.8,494.7 L1070.8,506.5 L1070.9,500.1 L1070.9,501.2 L1070.9,533.3 L1070.9,505.4 L1071.0,496.9 L1071.0,499.0 L1071.0,527.9 L1071.1,517.2 L1071.1,494.7 L1071.1,500.1 L1071.1,514.0 L1071.2,514.0 L1071.2,497.9 L1071.2,496.9 L1071.2,517.2 L1071.2,521.5 L1071.3,523.7 L1071.3,507.6 L1071.3,512.9 L1071.3,518.3 L1071.4,529.0 L1071.4,520.4 L1071.4,519.4 L1071.4,521.5 L1071.5,531.1 L1071.5,524.7 L1071.5,496.9 L1071.6,492.6 L1071.6,491.5 L1071.6,502.2 L1071.6,492.6 L1071.7,479.7 L1071.7,448.7 L1071.7,441.2 L1071.7,411.2 L1071.8,397.3 L1071.8,390.9 L1071.8,416.6 L1071.8,412.3 L1071.8,436.9 L1071.9,413.3 L1071.9,412.3 L1071.9,389.8 L1071.9,378.0 L1072.0,356.6 L1072.0,365.2 L1072.0,365.2 L1072.0,338.4 L1072.1,320.2 L1072.1,320.2 L1072.1,294.5 L1072.2,317.0 L1072.2,318.0 L1072.2,290.2 L1072.2,288.0 L1072.3,274.1 L1072.3,258.1 L1072.3,247.4 L1072.3,225.9 L1072.4,245.2 L1072.4,266.6 L1072.4,261.3 L1072.4,255.9 L1072.4,255.9 L1072.5,244.1 L1072.5,219.5 L1072.5,216.3 L1072.5,192.7 L1072.6,188.4 L1072.6,217.4 L1072.6,189.5 L1072.6,202.4 L1072.7,213.1 L1072.7,162.7 L1072.7,182.0 L1072.8,171.3 L1072.8,190.6 L1072.8,224.9 L1072.8,210.9 L1072.9,220.6 L1072.9,199.2 L1072.9,202.4 L1072.9,197.0 L1073.0,169.2 L1073.0,195.9 L1073.0,203.4 L1073.0,190.6 L1073.0,177.7 L1073.1,184.2 L1073.1,169.2 L1073.1,157.4 L1073.1,185.2 L1073.2,154.2 L1073.2,152.0 L1073.2,154.2 L1073.2,174.5 L1073.3,174.5 L1073.3,169.2 L1073.3,159.5 L1073.4,155.2 L1073.4,154.2 L1073.4,155.2 L1073.4,148.8 L1073.5,169.2 L1073.5,146.7 L1073.5,169.2 L1073.5,169.2 L1073.6,153.1 L1073.6,148.8 L1073.6,175.6 L1073.6,157.4 L1073.6,178.8 L1073.7,154.2 L1073.7,160.6 L1073.7,151.0 L1073.7,144.5 L1073.8,147.8 L1073.8,146.7 L1073.8,153.1 L1073.9,151.0 L1073.9,166.0 L1073.9,169.2 L1074.0,175.6 L1074.0,154.2 L1074.0,163.8 L1074.0,174.5 L1074.0,154.2 L1074.1,176.7 L1074.1,162.7 L1074.1,164.9 L1074.1,158.5 L1074.2,175.6 L1074.2,170.2 L1074.2,147.8 L1074.2,155.2 L1074.3,151.0 L1074.3,163.8 L1074.3,173.5 L1074.3,159.5 L1074.3,164.9 L1074.4,162.7 L1074.4,151.0 L1074.5,131.7 L1074.5,154.2 L1074.5,154.2 L1074.5,148.8 L1074.6,164.9 L1074.6,138.1 L1074.6,168.1 L1074.6,173.5 L1074.6,159.5 L1074.7,164.9 L1074.7,157.4 L1074.7,155.2 L1074.7,163.8 L1074.8,154.2 L1074.8,173.5 L1074.8,147.8 L1074.8,173.5 L1074.9,177.7 L1074.9,146.7 L1074.9,177.7 L1074.9,143.5 L1074.9,147.8 L1075.0,159.5 L1075.1,145.6 L1075.1,157.4 L1075.1,149.9 L1075.2,153.1 L1075.2,173.5 L1075.2,158.5 L1075.2,139.2 L1075.3,140.3 L1075.3,172.4 L1075.3,141.3 L1075.3,144.5 L1075.3,175.6 L1075.4,156.3 L1075.4,175.6 L1075.4,140.3 L1075.4,176.7 L1075.5,156.3 L1075.5,160.6 L1075.5,160.6 L1075.5,177.7 L1075.6,172.4 L1075.6,164.9 L1075.6,155.2 L1075.7,161.7 L1075.7,164.9 L1075.8,148.8 L1075.8,146.7 L1075.8,155.2 L1075.8,181.0 L1075.8,158.5 L1075.9,153.1 L1075.9,154.2 L1075.9,179.9 L1075.9,153.1 L1076.0,156.3 L1076.0,163.8 L1076.0,163.8 L1076.0,145.6 L1076.1,149.9 L1076.1,173.5 L1076.1,177.7 L1076.1,156.3 L1076.1,151.0 L1076.2,174.5 L1076.2,167.0 L1076.2,147.8 L1076.3,137.0 L1076.4,153.1 L1076.4,134.9 L1076.4,141.3 L1076.4,153.1 L1076.4,146.7 L1076.5,143.5 L1076.5,140.3 L1076.5,143.5 L1076.5,140.3 L1076.6,177.7 L1076.6,159.5 L1076.6,153.1 L1076.6,148.8 L1076.7,169.2 L1076.7,153.1 L1076.7,168.1 L1076.7,166.0 L1076.8,164.9 L1076.8,163.8 L1076.8,164.9 L1076.8,156.3 L1076.8,164.9 L1077.0,161.7 L1077.0,143.5 L1077.0,178.8 L1077.0,154.2 L1077.0,172.4 L1077.1,169.2 L1077.1,164.9 L1077.1,172.4 L1077.1,169.2 L1077.2,177.7 L1077.2,157.4 L1077.2,171.3 L1077.2,148.8 L1077.3,147.8 L1077.3,148.8 L1077.3,143.5 L1077.3,144.5 L1077.3,173.5 L1077.4,157.4 L1077.4,145.6 L1077.4,173.5 L1077.4,177.7 L1077.5,161.7 L1077.6,195.9 L1077.6,194.9 L1077.6,184.2 L1077.6,169.2 L1077.7,178.8 L1077.7,174.5 L1077.7,160.6 L1077.7,171.3 L1077.8,172.4 L1077.8,151.0 L1077.8,176.7 L1077.8,147.8 L1077.9,158.5 L1077.9,173.5 L1077.9,144.5 L1077.9,155.2 L1077.9,176.7 L1078.0,147.8 L1078.0,175.6 L1078.0,178.8 L1078.0,156.3 L1078.1,155.2 L1078.1,148.8 L1078.2,128.5 L1078.2,169.2 L1078.2,157.4 L1078.3,134.9 L1078.3,137.0 L1078.3,141.3 L1078.3,163.8 L1078.4,158.5 L1078.4,173.5 L1078.4,174.5 L1078.4,161.7 L1078.5,143.5 L1078.5,171.3 L1078.5,176.7 L1078.5,147.8 L1078.5,168.1 L1078.6,141.3 L1078.6,174.5 L1078.6,169.2 L1078.6,145.6 L1078.7,167.0 L1078.7,159.5 L1078.7,144.5 L1078.8,158.5 L1078.8,154.2 L1078.9,151.0 L1078.9,147.8 L1078.9,139.2 L1078.9,143.5 L1079.0,148.8 L1079.0,170.2 L1079.0,172.4 L1079.0,161.7 L1079.1,148.8 L1079.1,176.7 L1079.1,155.2 L1079.1,142.4 L1079.1,147.8 L1079.2,163.8 L1079.2,162.7 L1079.2,172.4 L1079.2,149.9 L1079.3,177.7 L1079.3,153.1 L1079.3,144.5 L1079.3,147.8 L1079.4,145.6 L1079.5,167.0 L1079.5,158.5 L1079.5,163.8 L1079.5,169.2 L1079.6,143.5 L1079.6,155.2 L1079.6,152.0 L1079.6,171.3 L1079.7,141.3 L1079.7,149.9 L1079.7,157.4 L1079.7,148.8 L1079.7,157.4 L1079.8,167.0 L1079.8,145.6 L1079.8,168.1 L1079.8,161.7 L1079.9,170.2 L1079.9,166.0 L1079.9,164.9 L1079.9,175.6 L1080.0,160.6 L1080.1,171.3 L1080.1,154.2 L1080.1,162.7 L1080.1,163.8 L1080.2,162.7 L1080.2,161.7 L1080.2,149.9 L1080.2,175.6 L1080.3,145.6 L1080.3,174.5 L1080.3,149.9 L1080.3,153.1 L1080.4,145.6 L1080.4,172.4 L1080.4,178.8 L1080.4,167.0 L1080.4,147.8 L1080.5,144.5 L1080.5,164.9 L1080.5,153.1 L1080.5,152.0 L1080.6,160.6 L1080.6,162.7 L1080.7,144.5 L1080.7,173.5 L1080.7,169.2 L1080.8,157.4 L1080.8,167.0 L1080.8,177.7 L1080.8,164.9 L1080.9,151.0 L1080.9,172.4 L1080.9,171.3 L1080.9,177.7 L1081.0,159.5 L1081.0,151.0 L1081.0,156.3 L1081.0,166.0 L1081.0,148.8 L1081.1,145.6 L1081.1,178.8 L1081.1,171.3 L1081.1,145.6 L1081.2,159.5 L1081.2,175.6 L1081.2,151.0 L1081.3,137.0 L1081.3,148.8 L1081.4,148.8 L1081.4,154.2 L1081.4,177.7 L1081.4,149.9 L1081.5,164.9 L1081.5,137.0 L1081.5,153.1 L1081.5,133.8 L1081.6,139.2 L1081.6,123.1 L1081.6,151.0 L1081.6,132.8 L1081.7,139.2 L1081.7,118.8 L1081.7,139.2 L1081.7,142.4 L1081.7,139.2 L1081.8,126.3 L1081.8,129.5 L1081.8,148.8 L1081.8,129.5 L1082.0,145.6 L1082.0,131.7 L1082.0,119.9 L1082.0,111.3 L1082.0,114.6 L1082.1,140.3 L1082.1,108.1 L1082.1,118.8 L1082.1,103.8 L1082.2,127.4 L1082.2,116.7 L1082.2,111.3 L1082.2,98.5 L1082.3,126.3 L1082.3,119.9 L1082.3,113.5 L1082.3,133.8 L1082.3,101.7 L1082.4,113.5 L1082.4,123.1 L1082.4,98.5 L1082.4,103.8 L1082.5,114.6 L1082.6,96.3 L1082.6,130.6 L1082.6,121.0 L1082.6,111.3 L1082.7,116.7 L1082.7,98.5 L1082.7,92.1 L1082.7,96.3 L1082.8,89.9 L1082.8,88.9 L1082.8,92.1 L1082.8,84.6 L1082.9,108.1 L1082.9,113.5 L1082.9,92.1 L1082.9,119.9 L1083.0,89.9 L1083.0,88.9 L1083.0,82.4 L1083.0,83.5 L1083.0,121.0 L1083.1,85.6 L1083.1,79.2 L1083.2,110.3 L1083.2,91.0 L1083.3,106.0 L1083.4,76.0 L1083.4,123.1 L1083.4,114.6 L1083.4,163.8 L1083.5,155.2 L1083.5,182.0 L1083.5,181.0 L1083.5,201.3 L1083.6,207.7 L1083.6,240.9 L1083.6,248.4 L1083.6,246.3 L1083.6,250.6 L1083.7,253.8 L1083.7,267.7 L1083.7,273.1 L1083.8,291.3 L1083.8,298.8 L1083.8,291.3 L1083.9,300.9 L1083.9,303.0 L1083.9,307.3 L1083.9,308.4 L1084.0,312.7 L1084.0,315.9 L1084.0,315.9" fill="none" stroke="#ff7f0e" stroke-width="1.1" opacity="0.85"/><text x="616" y="572" font-size="11" fill="#888">time 0..888 s — altitude (blue) &amp; roll (orange)</text></svg>