<svg xmlns="http://www.w3.org/2000/svg" width="1140" height="600" font-family="sans-serif" font-size="13"><rect width="1140" height="600" fill="white"/><text x="20" y="26" font-size="15" fill="#333">Coludo flight</text><rect x="20" y="40" width="540" height="540" fill="#fbfbfb" stroke="#ddd"/><rect x="161" y="115" width="125" height="27" fill="#cde" stroke="#369" opacity="0.7"/><text x="161" y="110" fill="#369" font-size="12">landing zone</text><circle cx="240" cy="158" r="5" fill="black"/><text x="248" y="162" font-size="12">pad</text><path d="M240.6,157.5 L240.6,157.5 L240.6,157.5 L240.6,157.5 L240.6,157.5 L240.6,157.5 L240.6,157.5 L240.6,157.5 L240.6,157.5 L240.6,157.5 L240.6,157.5 L240.6,157.5 L240.6,157.5 L240.6,157.5 L240.6,157.5 L240.6,157.5 L240.6,157.5 L240.6,157.5 L240.6,157.5 L240.6,157.5 L240.6,157.5 L240.6,157.5 L240.6,157.5 L240.6,157.5 L240.6,157.5 L240.6,157.5 L240.6,157.5 L240.6,157.5 L240.6,157.5 L240.6,157.5 L240.6,157.5 L240.6,157.5 L240.6,157.5 L240.6,157.5 L240.6,157.5 L240.6,157.5 L240.6,157.5 L240.6,157.5 L240.6,157.5 L240.6,157.5 L240.6,157.5 L240.6,157.5 L240.6,157.5 L240.6,157.5 L240.6,157.5 L240.6,157.5 L240.6,157.5 L240.6,157.5 L240.6,157.5 L240.6,157.5 L240.6,157.5 L240.6,157.5 L240.6,157.5 L240.6,157.5 L240.6,157.5 L240.6,157.5 L240.6,157.5 L240.6,157.5 L240.6,157.5 L240.6,157.5 L240.6,157.5 L240.6,157.5 L240.6,157.5 L240.6,157.5 L240.6,157.5 L240.6,157.5 L240.6,157.5 L240.6,157.5 L240.6,157.5 L240.6,157.5 L240.6,157.5 L240.6,157.5 L240.6,157.5 L240.6,157.2 L241.0,156.4 L241.3,155.5 L242.0,154.6 L243.2,153.6 L243.3,152.7 L244.0,151.8 L244.7,150.9 L245.3,150.2 L245.3,149.4 L246.0,148.5 L247.4,147.6 L247.5,147.0 L248.0,146.2 L249.4,145.3 L249.7,144.5 L250.1,143.9 L251.4,143.0 L251.8,142.1 L252.1,141.4 L253.4,140.8 L254.0,139.9 L254.8,139.1 L255.4,138.4 L256.1,137.5 L256.8,136.8 L257.5,135.7 L258.1,135.0 L258.3,134.1 L258.8,133.2 L259.5,132.3 L260.1,131.5 L260.4,130.7 L260.8,129.8 L261.5,128.9 L262.2,128.0 L262.6,126.5 L262.8,125.3 L263.5,124.4 L263.5,123.3 L264.2,122.2 L264.2,121.1 L264.9,120.1 L264.9,119.2 L265.3,118.3 L265.3,116.9 L265.3,115.9 L265.3,114.7 L265.3,113.7 L265.5,112.6 L265.5,111.7 L265.5,110.5 L265.5,109.5 L265.5,108.4 L266.2,107.3 L266.2,105.9 L266.2,105.0 L266.9,104.0 L266.9,102.8 L267.4,101.7 L267.4,100.7 L267.5,99.8 L268.2,98.9 L268.2,97.7 L268.9,96.7 L269.0,95.8 L269.6,94.7 L270.2,93.8 L270.9,93.1 L270.9,92.2 L271.6,91.2 L272.2,90.3 L272.9,89.1 L273.6,88.0 L274.3,87.3 L274.9,86.4 L275.6,85.8 L275.7,85.1 L277.0,84.2 L277.6,83.6 L278.3,82.8 L279.0,82.2 L279.8,81.3 L281.0,80.4 L281.7,80.0 L281.9,79.4 L283.0,78.6 L284.4,78.0 L285.0,77.3 L285.7,77.0 L286.5,76.4 L287.0,76.0 L288.4,75.5 L289.1,74.9 L290.4,74.5 L291.1,74.0 L292.4,73.6 L293.1,73.3 L294.4,72.8 L295.1,72.5 L295.8,72.2 L297.1,72.1 L297.8,71.8 L299.1,71.5 L299.8,71.2 L301.2,71.0 L301.8,70.7 L303.2,70.7 L303.9,70.6 L305.2,70.4 L307.2,70.1 L308.3,70.1 L309.2,70.1 L310.4,70.0 L311.2,70.0 L312.9,70.0 L313.3,70.1 L314.6,70.1 L315.0,70.1 L316.0,70.3 L317.2,70.4 L318.6,70.4 L319.0,70.6 L320.0,70.7 L321.2,70.7 L322.0,70.9 L323.4,71.0 L324.0,71.3 L325.2,71.6 L327.4,72.1 L328.1,72.5 L329.4,72.8 L330.1,73.1 L330.8,73.4 L332.1,73.9 L332.8,74.0 L334.1,74.5 L334.8,74.9 L336.1,75.5 L336.8,75.8 L338.1,76.4 L338.7,76.9 L339.5,77.3 L340.3,77.9 L341.5,78.5 L343.0,78.9 L343.5,79.5 L344.9,80.0 L345.5,81.0 L346.9,81.8 L347.6,82.4 L348.9,83.0 L349.2,83.4 L350.3,84.2 L351.1,84.8 L351.6,85.5 L352.9,86.1 L353.6,87.1 L355.0,87.7 L355.6,88.3 L356.3,89.2 L357.6,89.8 L357.8,90.6 L359.0,91.3 L359.7,92.1 L359.9,92.5 L361.0,93.4 L361.7,94.1 L362.4,94.9 L363.0,95.5 L364.4,96.4 L364.8,97.1 L365.0,98.0 L366.4,98.8 L366.9,99.4 L367.1,100.3 L368.8,101.6 L369.1,102.3 L369.8,103.2 L371.0,104.1 L371.1,104.9 L371.8,105.6 L372.4,106.5 L372.8,107.3 L373.8,108.0 L374.5,109.0 L375.1,109.9 L375.5,110.7 L375.8,111.3 L376.5,112.2 L377.7,113.2 L377.8,114.0 L378.5,115.0 L379.2,116.0 L379.0,116.9 L380.5,118.6 L381.2,119.5 L381.7,120.2 L381.9,121.3 L382.5,122.0 L383.2,123.1 L383.9,123.9 L384.1,124.8 L384.5,125.7 L385.2,126.5 L385.9,127.4 L386.3,128.4 L386.6,129.3 L387.2,130.2 L387.9,131.1 L388.4,132.0 L388.6,132.9 L389.3,133.8 L389.3,134.8 L389.9,135.6 L390.1,136.6 L390.6,137.7 L391.3,138.4 L391.3,139.3 L391.9,140.5 L392.5,141.4 L392.6,142.3 L392.6,143.2 L393.3,144.1 L394.0,145.3 L394.6,146.2 L394.6,147.3 L394.9,148.1 L395.3,149.1 L396.0,150.5 L396.6,151.2 L396.6,152.1 L397.1,153.0 L397.3,153.9 L398.0,155.8 L398.7,156.7 L398.7,157.9 L399.2,159.0 L399.3,160.0 L399.3,161.1 L400.0,162.1 L400.0,162.8 L400.7,164.0 L400.7,165.7 L400.8,166.7 L400.8,167.9 L401.4,168.8 L401.4,169.7 L402.0,170.6 L402.0,171.6 L402.7,172.8 L402.7,173.9 L402.7,174.9 L403.4,176.4 L403.4,177.4 L403.5,178.3 L403.5,179.5 L404.0,180.7 L404.0,181.6 L404.7,182.5 L404.7,183.7 L404.7,184.4 L405.4,185.5 L405.7,187.3 L405.7,188.3 L406.1,189.4 L406.1,190.3 L406.1,191.3 L406.7,192.2 L406.7,193.2 L407.4,194.1 L407.4,195.2 L407.4,196.5 L407.8,198.2 L407.8,199.1 L408.1,200.2 L408.1,201.3 L408.8,202.3 L408.8,203.4 L408.8,204.6 L409.4,205.6 L409.4,206.4 L410.0,208.9 L410.0,210.1 L410.0,211.3 L410.1,212.0 L410.1,213.2 L410.1,214.3 L410.1,215.3 L410.8,216.2 L410.8,217.2 L411.4,219.9 L411.4,221.1 L411.4,222.2 L412.1,223.0 L412.1,224.1 L412.1,225.1 L412.1,226.2 L412.1,227.2 L412.8,228.3 L412.8,230.9 L413.5,232.1 L413.5,233.2 L413.5,234.2 L413.5,235.1 L413.5,236.2 L414.1,236.9 L414.1,238.1 L414.1,239.1 L414.1,240.2 L414.1,242.3 L414.1,243.3 L414.1,244.4 L414.3,245.5 L414.3,246.3 L414.3,247.3 L414.3,248.5 L414.3,249.4 L414.8,250.5 L414.8,253.3 L415.5,254.2 L415.5,255.2 L415.5,256.4 L415.5,257.6 L415.5,258.4 L416.2,259.6 L416.2,260.6 L416.2,261.3 L416.2,264.2 L416.2,265.5 L416.4,266.7 L416.4,267.6 L416.4,268.8 L416.4,269.7 L416.4,270.7 L416.4,271.8 L416.8,272.7 L416.8,273.7 L416.8,275.5 L416.8,276.7 L416.8,277.7 L416.8,278.9 L416.8,280.1 L416.8,281.0 L416.8,282.1 L416.8,283.1 L417.5,284.1 L416.8,286.5 L416.8,287.7 L417.5,288.6 L417.5,289.5 L417.5,290.7 L417.5,291.7 L417.5,292.6 L417.5,294.0 L417.5,294.9 L417.5,297.9 L417.5,299.0 L417.5,300.1 L417.5,300.8 L417.5,302.0 L417.5,303.4 L417.5,304.3 L417.5,305.5 L418.2,306.3 L418.2,308.9 L417.5,309.9 L417.5,310.8 L417.5,312.0 L417.5,313.1 L417.5,313.8 L417.5,315.0 L417.5,316.0 L417.5,317.2 L417.5,320.1 L417.5,321.4 L417.5,322.3 L417.5,323.2 L417.5,324.4 L417.5,325.3 L416.8,326.2 L416.8,327.4 L416.8,328.4 L416.8,329.1 L416.8,331.4 L416.8,332.3 L416.4,333.3 L416.4,334.5 L416.4,335.4 L416.4,336.7 L416.4,337.6 L416.4,338.5 L416.4,339.6 L416.8,342.3 L416.8,343.5 L416.8,344.5 L416.8,345.7 L416.8,346.9 L416.8,347.9 L416.8,349.1 L416.8,350.2 L417.5,351.1 L417.5,353.4 L417.5,354.5 L417.5,355.8 L417.5,356.7 L418.2,357.9 L418.2,358.8 L418.2,359.8 L418.2,361.0 L418.2,361.9 L418.6,364.6 L418.6,365.8 L418.6,366.9 L418.6,367.7 L418.8,368.8 L418.8,369.8 L418.8,370.7 L418.8,371.8 L418.8,373.0 L418.8,374.0 L418.8,375.8 L418.8,377.0 L418.8,378.0 L418.8,378.9 L418.8,380.1 L418.8,381.0 L418.8,381.9 L418.8,383.1 L418.8,384.0 L418.6,386.8 L418.6,388.2 L418.6,389.1 L418.6,390.1 L418.6,391.1 L418.6,392.3 L418.6,393.4 L418.2,394.4 L418.2,395.5 L418.2,398.0 L417.5,399.2 L417.5,400.2 L417.5,401.4 L416.8,402.5 L416.8,403.4 L416.8,404.6 L416.4,405.3 L416.4,406.5 L416.2,408.9 L415.5,410.1 L415.5,411.0 L415.5,412.0 L414.8,412.9 L414.8,414.1 L414.8,415.3 L414.3,416.3 L414.3,417.5 L414.1,420.1 L414.1,421.2 L413.5,422.3 L413.5,423.2 L413.5,424.2 L412.8,425.6 L412.8,426.5 L412.8,427.5 L412.1,428.7 L412.1,431.1 L412.1,432.0 L412.1,433.2 L411.4,434.2 L411.4,435.4 L411.4,436.1 L411.4,437.2 L410.8,438.4 L410.8,439.1 L410.8,440.2 L410.1,442.1 L410.1,443.3 L410.0,444.2 L410.0,445.1 L410.0,446.3 L409.4,447.2 L409.4,448.1 L408.8,449.0 L408.8,449.9 L408.1,451.0 L407.8,453.0 L407.8,454.0 L407.4,454.9 L406.7,456.0 L406.7,457.2 L406.1,458.1 L405.7,458.9 L405.7,460.1 L405.4,461.0 L404.7,461.9 L404.0,463.7 L403.5,464.6 L403.4,465.7 L403.4,466.7 L402.7,467.6 L402.0,468.6 L401.4,469.5 L401.4,470.3 L400.8,471.3 L400.7,472.4 L400.0,474.0 L399.3,475.2 L399.2,475.9 L398.7,477.1 L398.7,478.0 L398.0,478.8 L397.3,479.8 L397.1,480.7 L397.1,481.7 L396.6,482.6 L395.3,484.4 L395.3,485.2 L394.9,486.1 L394.6,487.3 L394.0,488.2 L393.3,489.2 L392.6,490.2 L392.5,491.0 L391.9,492.0 L390.6,494.3 L390.1,495.3 L389.3,496.4 L389.3,497.2 L388.6,498.1 L388.4,499.0 L387.9,499.9 L387.2,500.8 L386.6,501.9 L386.3,502.8 L385.9,504.4 L385.2,505.4 L384.5,506.5 L384.1,507.2 L383.9,508.4 L383.2,509.3 L382.5,510.4 L381.9,511.3 L381.7,512.3 L380.5,514.5 L379.8,515.6 L379.0,516.3 L379.2,517.4 L378.5,518.6 L377.8,519.3 L377.7,520.0 L377.1,521.1 L375.8,522.1 L375.1,524.2 L374.5,525.1 L373.8,526.2 L373.1,526.9 L372.4,527.9 L371.8,528.5 L371.1,529.6 L371.0,530.5 L370.4,531.4 L369.1,532.7 L368.4,534.5 L367.7,535.2 L367.1,536.1 L366.9,537.0 L366.4,538.1 L365.7,539.0 L365.7,539.6 L364.8,541.1 L364.4,542.0 L363.0,544.3 L362.4,545.5 L362.1,546.4 L361.7,547.3 L361.7,548.1 L361.0,550.0" fill="none" stroke="#1f77b4" stroke-width="1.7" opacity="0.85"/><circle cx="361" cy="550" r="4.5" fill="#1f77b4"/><text x="28" y="572" font-size="11" fill="#888">ground track — m from pad (N up)</text><rect x="580" y="40" width="540" height="540" fill="#fbfbfb" stroke="#ddd"/><text x="586" y="54" fill="#1f77b4" font-size="11">alt 642</text><text x="586" y="558" fill="#1f77b4" font-size="11">-100</text><path d="M637.3,480.8 L637.6,479.5 L638.0,480.2 L638.3,480.0 L638.6,481.1 L639.0,481.1 L639.3,476.2 L639.7,481.5 L640.0,479.3 L640.4,473.5 L640.7,476.1 L641.0,478.3 L641.3,476.2 L641.6,478.3 L641.9,473.3 L642.2,467.9 L642.5,474.2 L642.7,468.9 L643.0,469.9 L643.3,479.0 L643.6,477.1 L643.9,476.9 L644.2,464.5 L644.4,468.6 L644.8,471.8 L645.1,481.0 L645.4,466.1 L645.7,471.9 L646.0,476.1 L646.3,467.9 L646.6,446.4 L646.9,475.4 L647.2,471.6 L647.4,470.5 L647.7,447.0 L648.0,468.9 L648.3,442.9 L648.6,425.0 L648.9,444.4 L649.2,459.8 L649.5,435.2 L649.8,461.8 L650.1,415.7 L650.3,467.4 L650.6,425.2 L650.9,419.8 L651.2,447.1 L651.5,456.5 L651.8,449.4 L652.0,438.3 L652.3,418.3 L652.6,413.0 L652.9,394.0 L653.2,378.7 L653.5,367.3 L653.8,375.0 L654.1,360.4 L654.4,412.5 L654.6,424.8 L654.9,441.5 L655.2,480.1 L655.5,394.0 L655.8,401.3 L656.1,459.5 L656.3,429.9 L656.7,454.5 L657.0,470.4 L657.3,345.8 L657.6,357.0 L657.9,412.9 L658.2,330.1 L658.6,447.5 L658.9,432.5 L659.1,409.3 L659.4,287.5 L659.7,345.6 L660.0,467.6 L660.3,343.9 L660.7,289.3 L660.9,391.7 L661.3,469.5 L661.6,472.6 L661.9,255.1 L662.2,381.2 L662.5,392.4 L662.8,458.7 L663.0,254.9 L663.3,463.9 L663.7,237.0 L664.0,448.9 L664.2,394.0 L664.6,278.5 L664.9,339.9 L665.1,266.0 L665.4,254.3 L665.8,257.7 L666.0,344.1 L666.3,230.5 L666.6,398.3 L666.8,193.2 L667.1,281.7 L667.4,242.2 L667.7,271.5 L668.0,368.0 L668.3,281.7 L668.5,206.3 L668.8,299.7 L669.2,158.4 L669.5,411.1 L669.7,355.4 L670.0,416.5 L670.3,285.9 L670.6,181.3 L670.9,276.2 L671.2,197.3 L671.4,355.3 L671.8,167.9 L672.1,415.9 L672.4,361.6 L672.6,288.7 L672.9,139.2 L673.2,387.4 L673.5,358.3 L673.8,384.5 L674.1,176.3 L674.4,232.0 L674.7,361.8 L675.0,208.3 L675.2,159.5 L675.5,243.7 L675.8,416.7 L676.1,356.7 L676.4,293.4 L676.7,278.3 L677.0,243.9 L677.3,418.0 L677.7,450.2 L677.9,388.6 L678.2,115.3 L678.5,467.7 L678.8,351.8 L679.1,201.6 L679.4,206.3 L679.7,218.7 L680.0,103.4 L680.3,103.9 L680.6,234.6 L680.9,177.9 L681.1,451.5 L681.5,89.9 L681.8,412.3 L682.0,266.2 L682.3,144.5 L682.6,124.2 L682.9,145.4 L683.2,93.5 L683.5,210.1 L683.8,204.2 L684.1,237.7 L684.4,308.8 L684.7,410.4 L685.0,229.5 L685.3,394.6 L685.6,319.7 L685.8,165.6 L686.1,103.6 L686.4,186.1 L686.7,186.8 L687.0,107.3 L687.3,299.5 L687.6,382.3 L687.9,239.7 L688.2,120.3 L688.5,292.4 L688.7,179.3 L689.0,252.8 L689.4,149.2 L689.6,134.8 L689.9,243.9 L690.2,456.1 L690.5,345.2 L690.8,246.6 L691.1,245.7 L691.3,375.9 L691.6,260.4 L691.9,76.0 L692.2,176.9 L692.5,153.3 L692.8,305.1 L693.1,472.3 L693.4,423.2 L693.7,354.8 L694.0,378.7 L694.2,327.0 L694.5,302.6 L694.8,277.4 L695.3,403.8 L695.6,166.2 L695.9,388.6 L696.2,281.1 L696.5,117.6 L696.7,206.9 L697.0,298.4 L697.3,332.4 L697.6,247.0 L697.9,270.9 L698.2,324.0 L698.4,475.5 L698.7,336.5 L699.0,294.7 L699.3,421.1 L699.6,109.6 L699.9,176.8 L700.2,177.4 L700.5,238.8 L700.8,432.1 L701.3,320.8 L701.6,94.7 L701.9,317.9 L702.2,166.0 L702.5,463.6 L702.8,151.1 L703.1,179.7 L703.4,143.7 L703.7,420.2 L704.0,236.8 L704.3,363.5 L704.7,390.1 L705.0,372.6 L705.2,202.5 L705.5,139.7 L705.9,288.0 L706.2,450.2 L706.4,327.5 L706.7,250.8 L707.2,171.7 L707.5,282.7 L707.8,373.0 L708.1,409.6 L708.4,299.9 L708.7,359.0 L709.0,327.3 L709.3,473.1 L709.6,362.4 L709.8,168.6 L710.2,291.7 L710.5,359.2 L710.8,304.2 L711.0,110.0 L711.3,149.9 L711.6,216.6 L711.9,338.2 L712.2,190.7 L712.4,388.3 L712.7,133.7 L713.2,130.0 L713.5,391.3 L713.8,407.9 L714.1,93.5 L714.4,304.3 L714.7,462.1 L715.0,323.7 L715.3,199.3 L715.6,240.3 L715.9,185.0 L716.1,144.5 L716.4,205.6 L716.7,117.3 L717.0,248.5 L717.3,295.5 L717.6,365.8 L717.9,168.5 L718.2,300.7 L718.5,468.5 L718.7,382.1 L719.2,129.2 L719.4,110.7 L719.7,334.3 L720.0,455.7 L720.3,304.7 L720.6,373.9 L720.9,182.7 L721.2,397.2 L721.5,331.9 L721.7,419.9 L722.0,249.8 L722.3,206.8 L722.6,243.9 L722.9,314.9 L723.2,129.3 L723.5,296.5 L723.7,244.2 L724.0,267.5 L724.3,476.7 L724.6,311.7 L725.1,210.2 L725.4,348.0 L725.7,350.8 L725.9,185.7 L726.2,362.4 L726.5,190.1 L726.8,264.5 L727.1,201.1 L727.4,298.1 L727.6,286.8 L727.9,223.2 L728.2,370.3 L728.5,331.2 L728.8,128.3 L729.1,141.7 L729.4,444.8 L729.6,226.7 L729.9,134.2 L730.2,259.4 L730.5,368.9 L731.1,424.3 L731.3,277.7 L731.6,237.5 L732.0,222.9 L732.2,477.5 L732.5,217.8 L732.8,416.5 L733.1,425.1 L733.4,179.1 L733.7,231.6 L733.9,451.3 L734.3,480.5 L734.6,136.6 L734.9,185.7 L735.2,178.2 L735.5,423.2 L735.8,216.1 L736.0,387.5 L736.3,345.6 L736.6,434.6 L737.0,368.3 L737.3,324.0 L737.6,169.3 L737.9,366.3 L738.2,368.9 L738.5,190.0 L738.8,323.5 L739.1,187.9 L739.3,173.6 L739.6,234.7 L739.9,200.6 L740.2,339.7 L740.5,285.0 L740.8,211.6 L741.0,419.9 L741.3,272.1 L741.6,460.5 L741.9,348.8 L742.2,306.3 L742.6,176.9 L743.0,398.8 L743.2,261.7 L743.6,307.7 L743.9,216.5 L744.2,143.9 L744.4,197.0 L744.7,194.3 L745.0,353.0 L745.3,176.7 L745.6,379.4 L745.9,179.3 L746.1,170.0 L746.5,215.1 L746.8,423.7 L747.0,437.8 L747.3,227.2 L747.6,227.2 L747.9,453.8 L748.2,343.5 L748.5,371.7 L749.2,301.9 L749.5,255.8 L749.8,402.0 L750.1,198.9 L750.3,204.4 L750.6,232.4 L750.9,322.6 L751.2,400.9 L751.5,183.6 L751.8,361.0 L752.1,317.3 L752.4,252.9 L752.7,362.4 L753.0,241.9 L753.2,416.4 L753.5,170.4 L753.8,455.4 L754.1,399.1 L754.4,343.5 L754.6,172.3 L755.4,309.2 L755.7,166.4 L756.0,475.2 L756.3,428.6 L756.6,245.9 L756.9,477.0 L757.1,418.6 L757.5,453.6 L757.8,429.4 L758.1,212.2 L758.3,259.9 L758.6,309.2 L758.9,328.2 L759.2,355.2 L759.5,187.7 L759.8,258.2 L760.0,438.8 L760.3,334.0 L760.6,370.6 L760.9,336.2 L761.6,191.2 L761.9,352.7 L762.2,345.9 L762.5,410.2 L762.8,300.1 L763.0,224.7 L763.3,367.9 L763.6,251.7 L763.9,217.8 L764.2,436.3 L764.5,479.9 L764.8,220.2 L765.0,365.5 L765.3,281.6 L765.6,222.1 L765.9,348.0 L766.2,458.4 L766.4,193.1 L766.7,251.1 L767.0,205.3 L767.9,271.2 L768.1,444.0 L768.4,415.6 L768.7,273.7 L769.0,251.1 L769.3,369.7 L769.6,422.0 L769.9,202.1 L770.1,283.3 L770.4,309.3 L770.7,229.7 L771.0,470.4 L771.3,256.3 L771.6,373.7 L771.8,272.4 L772.1,274.0 L772.4,316.3 L772.7,384.1 L773.0,391.8 L773.3,402.0 L774.1,281.8 L774.4,216.4 L774.7,318.6 L775.0,335.5 L775.2,421.8 L775.5,315.0 L775.8,344.8 L776.1,382.4 L776.4,238.8 L776.7,241.9 L777.0,381.6 L777.3,466.6 L777.6,354.2 L777.9,226.8 L778.1,375.4 L778.4,414.0 L778.8,318.1 L779.0,396.0 L779.3,298.9 L779.6,268.8 L780.3,336.4 L780.6,389.6 L780.9,347.8 L781.2,466.4 L781.5,388.1 L781.8,249.2 L782.0,277.4 L782.3,244.2 L782.6,216.1 L782.9,251.6 L783.2,325.6 L783.5,239.9 L783.8,285.9 L784.0,377.5 L784.3,424.4 L784.6,296.1 L784.9,359.5 L785.2,352.8 L785.5,420.3 L785.7,298.7 L786.5,359.1 L786.8,458.7 L787.1,326.8 L787.4,364.9 L787.7,287.7 L788.0,363.7 L788.2,267.8 L788.6,300.1 L788.9,255.2 L789.1,447.3 L789.4,221.4 L789.6,238.2 L789.9,479.5 L790.2,295.9 L790.5,469.2 L790.8,244.9 L791.1,382.3 L791.4,360.5 L791.7,260.9 L792.0,256.9 L792.7,303.7 L793.0,342.0 L793.3,416.1 L793.6,261.0 L793.9,354.0 L794.2,257.1 L794.5,478.4 L794.8,415.8 L795.1,401.7 L795.4,379.7 L795.7,381.4 L796.0,294.6 L796.3,278.3 L796.6,403.9 L796.8,266.9 L797.1,290.6 L797.4,273.8 L797.7,354.1 L798.0,256.4 L798.3,356.1 L799.0,437.1 L799.2,460.6 L799.5,274.0 L799.8,394.7 L800.1,425.6 L800.4,481.6 L800.7,443.4 L801.0,253.4 L801.3,243.3 L801.6,326.1 L801.9,311.4 L802.2,415.3 L802.5,348.5 L802.7,412.4 L803.0,252.9 L803.3,321.9 L803.6,402.4 L803.9,427.3 L804.2,359.1 L804.5,422.9 L805.2,284.8 L805.5,447.8 L805.8,378.0 L806.1,255.3 L806.4,339.0 L806.7,447.3 L807.0,333.2 L807.2,432.8 L807.5,348.1 L807.8,407.2 L808.1,427.8 L808.4,404.8 L808.7,478.6 L809.0,362.5 L809.3,281.2 L809.6,322.9 L809.9,399.2 L810.2,440.4 L810.5,462.2 L810.8,403.8 L811.4,276.3 L811.7,316.3 L812.0,332.5 L812.3,471.7 L812.6,383.8 L812.8,268.0 L813.1,307.7 L813.4,366.1 L813.7,322.9 L814.0,468.3 L814.3,351.2 L814.5,359.7 L814.9,427.8 L815.2,463.6 L815.5,384.2 L815.7,315.4 L816.1,396.1 L816.4,311.3 L816.6,337.5 L816.9,293.2 L817.7,451.2 L818.0,365.9 L818.2,414.1 L818.6,301.8 L818.9,302.8 L819.2,415.1 L819.5,376.3 L819.8,322.1 L820.0,459.1 L820.3,451.4 L820.6,475.1 L821.0,376.5 L821.2,309.4 L821.6,426.6 L821.9,425.5 L822.2,456.6 L822.5,455.8 L822.8,288.2 L823.1,333.6 L823.9,294.9 L824.2,285.7 L824.5,310.4 L824.8,439.3 L825.0,374.6 L825.4,458.9 L825.7,353.0 L825.9,356.6 L826.2,461.0 L826.6,467.6 L826.9,333.0 L827.1,404.3 L827.4,378.5 L827.7,474.5 L828.0,362.1 L828.3,294.0 L828.6,451.9 L828.8,295.0 L829.1,464.6 L829.4,378.0 L830.2,349.2 L830.4,427.3 L830.7,418.7 L831.0,370.0 L831.3,410.8 L831.6,320.6 L831.8,334.1 L832.1,408.5 L832.4,317.9 L832.7,365.8 L833.0,367.3 L833.3,454.5 L833.6,442.0 L833.9,400.3 L834.2,349.5 L834.5,414.8 L834.7,313.5 L835.0,380.8 L835.3,354.7 L835.6,414.4 L836.4,383.3 L836.7,310.2 L837.0,313.4 L837.3,361.7 L837.6,472.7 L837.9,377.9 L838.1,408.5 L838.4,317.1 L838.7,477.9 L839.0,412.1 L839.3,366.4 L839.6,394.2 L840.0,355.5 L840.2,443.9 L840.5,391.2 L840.8,322.7 L841.1,356.0 L841.4,389.2 L841.8,472.6 L842.6,376.1 L842.9,413.2 L843.2,357.8 L843.5,373.3 L843.8,317.3 L844.0,327.0 L844.3,341.3 L844.6,343.6 L844.9,407.0 L845.2,360.8 L845.5,368.7 L845.7,436.8 L846.0,391.5 L846.3,411.3 L846.6,363.3 L846.9,362.4 L847.2,403.0 L847.6,469.7 L847.8,327.8 L848.1,443.2 L849.4,360.0 L849.7,329.4 L849.9,460.3 L850.2,475.3 L850.5,390.2 L850.8,404.8 L851.1,370.3 L851.4,436.7 L851.6,341.0 L851.9,424.6 L852.2,395.2 L852.5,333.6 L852.8,333.3 L853.1,468.9 L853.3,381.4 L853.6,344.3 L853.9,344.7 L854.2,448.2 L854.5,341.8 L854.8,361.4 L856.0,337.0 L856.3,376.0 L856.6,452.1 L856.9,423.1 L857.1,369.9 L857.5,462.5 L857.8,390.5 L858.0,423.6 L858.3,448.3 L858.7,391.3 L859.0,393.0 L859.2,378.1 L859.5,365.7 L859.8,460.9 L860.1,477.5 L860.4,466.9 L860.7,467.0 L860.9,460.8 L861.2,448.6 L861.5,464.4 L862.8,462.6 L863.0,368.0 L863.3,406.8 L863.6,415.1 L863.9,474.4 L864.2,394.9 L864.5,480.5 L864.8,450.1 L865.1,417.1 L865.4,424.9 L865.7,420.8 L865.9,433.4 L866.2,438.5 L866.5,432.5 L866.8,415.7 L867.1,361.2 L867.4,375.7 L867.7,371.3 L868.0,389.2 L868.3,479.0 L869.5,408.4 L869.8,475.3 L870.1,470.2 L870.4,455.6 L870.6,444.9 L870.9,377.2 L871.2,405.4 L871.5,388.0 L871.8,364.9 L872.2,437.5 L872.5,432.9 L872.7,415.1 L873.0,397.6 L873.3,382.0 L873.6,385.1 L873.9,434.1 L874.2,431.1 L874.5,398.9 L874.7,399.3 L875.0,412.3 L876.2,390.1 L876.5,465.4 L876.8,466.8 L877.1,480.5 L877.3,473.1 L877.7,375.5 L878.0,459.0 L878.2,446.6 L878.5,465.8 L878.8,384.1 L879.1,386.4 L879.4,438.8 L879.7,445.5 L879.9,454.5 L880.2,422.5 L880.5,401.0 L880.8,437.9 L881.1,421.9 L881.4,457.2 L881.7,479.5 L882.9,394.3 L883.2,403.9 L883.5,450.6 L883.8,430.0 L884.1,442.7 L884.4,435.2 L884.7,409.5 L885.0,385.3 L885.3,454.2 L885.6,404.5 L885.8,405.5 L886.1,478.0 L886.4,402.5 L886.7,480.5 L887.0,432.8 L887.4,423.1 L887.7,422.5 L888.0,420.5 L888.3,427.8 L888.6,461.3 L889.7,397.1 L890.0,439.6 L890.3,398.0 L890.6,433.7 L890.8,417.5 L891.2,426.5 L891.5,413.9 L891.8,433.5 L892.1,414.1 L892.4,476.5 L892.7,470.0 L893.0,405.6 L893.3,471.3 L893.6,411.3 L893.8,400.7 L894.1,442.6 L894.4,439.1 L894.7,403.2 L895.0,409.9 L895.3,434.5 L896.4,438.7 L896.7,409.6 L897.0,441.3 L897.3,453.8 L897.6,426.5 L897.9,405.5 L898.2,438.8 L898.4,467.3 L898.7,425.3 L899.0,415.0 L899.3,476.3 L899.6,478.9 L899.9,447.2 L900.1,438.9 L900.4,445.3 L900.7,465.2 L901.0,454.8 L901.3,454.2 L901.6,476.3 L901.8,412.5 L903.2,447.2 L903.5,469.6 L903.8,420.4 L904.1,456.9 L904.4,424.0 L904.7,419.9 L905.0,442.7 L905.4,421.3 L905.6,441.2 L906.0,415.6 L906.3,421.8 L906.6,468.6 L906.9,424.2 L907.2,479.8 L907.5,428.2 L907.8,478.7 L908.1,476.7 L908.4,450.9 L908.7,466.2 L910.0,434.5 L910.2,449.4 L910.5,461.7 L910.9,453.9 L911.1,429.6 L911.4,437.1 L911.7,421.8 L912.0,428.9 L912.3,441.0 L912.6,466.6 L912.9,463.4 L913.2,461.9 L913.5,477.2 L913.8,459.2 L914.1,424.0 L914.4,466.2 L914.7,433.7 L915.0,433.0 L915.3,426.1 L915.6,479.4 L916.7,452.2 L917.0,461.8 L917.3,469.0 L917.6,461.6 L917.8,442.4 L918.1,455.0 L918.4,450.8 L918.7,441.7 L919.0,468.2 L919.3,443.0 L919.5,440.8 L919.8,440.9 L920.1,442.1 L920.4,438.4 L920.7,443.4 L921.0,474.2 L921.2,463.0 L921.5,445.4 L921.8,440.8 L922.1,453.1 L923.5,477.5 L923.7,448.5 L924.0,462.3 L924.3,456.2 L924.6,469.3 L924.9,446.1 L925.2,462.8 L925.5,470.9 L925.8,478.7 L926.1,452.8 L926.3,444.6 L926.6,479.0 L927.0,474.4 L927.3,456.1 L927.5,464.1 L927.8,461.2 L928.1,443.2 L928.4,451.0 L928.7,452.6 L929.0,447.6 L930.2,470.7 L930.5,477.2 L930.8,468.9 L931.1,447.5 L931.3,454.7 L931.6,471.0 L931.9,453.5 L932.2,463.1 L932.5,473.4 L932.8,455.1 L933.0,456.9 L933.3,465.0 L933.6,454.3 L933.9,473.0 L934.2,467.2 L934.5,454.5 L934.7,456.5 L935.0,474.2 L935.3,460.3 L935.6,456.2 L937.0,476.1 L937.2,459.4 L937.5,462.9 L937.8,473.8 L938.1,477.4 L938.4,468.3 L938.7,477.8 L939.0,472.4 L939.3,461.4 L939.7,468.0 L940.0,461.2 L940.2,469.7 L940.5,467.3 L940.8,471.9 L941.1,472.5 L941.4,480.3 L941.7,466.7 L941.9,463.9 L942.2,464.1 L942.5,462.4 L943.7,466.2 L944.0,471.2 L944.3,475.1 L944.6,477.2 L944.8,479.7 L945.1,471.8 L945.4,474.7 L945.7,466.5 L946.0,478.2 L946.3,467.1 L946.5,470.8 L946.8,472.4 L947.2,475.6 L947.4,474.4 L947.7,481.1 L948.0,479.5 L948.3,469.7 L948.6,476.4 L948.9,478.6 L949.1,481.2 L950.5,477.8 L950.8,473.0 L951.1,475.0 L951.4,474.8 L951.6,477.5 L952.0,481.4 L952.3,480.5 L952.6,476.6 L952.9,480.4 L953.3,481.2 L953.6,477.4 L954.0,479.8 L954.3,480.4 L954.6,480.9 L954.9,479.9 L955.2,480.0 L955.5,480.7 L955.8,480.4 L956.1,480.5 L957.3,480.9 L957.5,482.8 L957.8,480.4 L958.1,481.5 L958.4,483.3 L958.7,481.8 L959.0,480.9 L959.4,481.3 L959.6,485.7 L960.0,485.7 L960.3,486.4 L960.6,483.5 L960.9,487.9 L961.2,482.7 L961.5,481.7 L961.7,483.7 L962.0,487.7 L962.3,480.8 L962.6,487.8 L964.0,486.4 L964.2,481.9 L964.5,493.1 L964.9,480.4 L965.1,488.7 L965.4,482.3 L965.7,494.2 L966.0,490.5 L966.3,485.2 L966.7,495.6 L967.0,484.9 L967.2,488.6 L967.5,485.7 L967.9,485.1 L968.2,496.9 L968.4,493.3 L968.7,494.2 L969.0,496.4 L969.3,497.7 L969.6,494.4 L970.7,481.4 L971.0,480.6 L971.3,491.8 L971.6,497.1 L971.9,500.2 L972.2,487.7 L972.5,493.7 L972.9,493.3 L973.1,482.8 L973.5,497.5 L973.8,491.3 L974.1,482.3 L974.3,484.5 L974.6,505.9 L974.9,482.7 L975.2,486.6 L975.5,500.8 L975.8,486.5 L976.0,508.0 L976.3,501.1 L977.5,496.7 L977.7,509.4 L978.0,496.1 L978.4,511.7 L978.6,506.1 L979.0,486.0 L979.3,500.5 L979.6,495.3 L979.8,495.4 L980.1,499.7 L980.4,489.5 L980.7,507.8 L981.0,514.3 L981.3,499.4 L981.6,483.2 L981.9,509.2 L982.2,493.3 L982.5,485.1 L982.8,504.4 L983.1,506.0 L984.3,485.9 L984.6,486.6 L984.8,516.4 L985.2,518.6 L985.5,499.5 L985.8,514.7 L986.1,484.3 L986.4,513.1 L986.6,493.5 L986.9,484.1 L987.2,490.5 L987.5,525.5 L987.8,514.3 L988.1,501.9 L988.3,486.4 L988.6,515.9 L989.0,521.1 L989.2,492.5 L989.6,505.9 L989.9,493.2 L991.0,521.1 L991.3,506.6 L991.6,516.6 L991.9,531.0 L992.1,531.8 L992.4,525.9 L992.7,499.4 L993.0,482.7 L993.3,502.9 L993.6,520.1 L993.8,530.8 L994.1,532.9 L994.4,497.3 L994.7,533.6 L995.0,492.5 L995.3,536.6 L995.7,497.7 L995.9,515.0 L996.3,498.0 L996.6,485.9 L997.8,520.7 L998.0,504.6 L998.3,514.3 L998.7,528.7 L999.0,521.1 L999.2,485.4 L999.5,498.0 L999.8,494.1 L1000.1,528.3 L1000.4,540.1 L1000.7,535.7 L1000.9,540.7 L1001.3,515.7 L1001.6,540.4 L1001.9,515.2 L1002.2,517.9 L1002.5,486.7 L1002.7,511.5 L1003.0,482.2 L1003.3,544.0 L1004.5,505.4 L1004.8,496.0 L1005.1,515.5 L1005.4,521.4 L1005.7,480.7 L1006.0,496.2 L1006.3,543.8 L1006.7,528.3 L1007.0,525.1 L1007.3,528.4 L1007.6,539.1 L1007.9,496.1 L1008.1,544.0 L1008.5,543.1 L1008.8,519.8 L1009.1,526.6 L1009.4,510.9 L1009.7,503.6 L1010.0,544.0 L1011.4,544.0 L1011.6,526.0 L1011.9,494.8 L1012.2,531.6 L1012.4,532.6 L1012.7,539.0 L1013.0,531.7 L1013.4,544.0 L1013.6,490.2 L1013.9,544.0 L1014.2,544.0 L1014.5,481.6 L1014.8,515.8 L1015.1,525.7 L1015.4,544.0 L1015.7,536.5 L1016.0,533.3 L1016.3,544.0 L1016.5,518.7 L1016.8,489.3 L1018.1,544.0 L1018.4,527.9 L1018.7,544.0 L1019.0,544.0 L1019.3,529.3 L1019.5,544.0 L1019.8,522.5 L1020.2,532.3 L1020.4,544.0 L1020.7,544.0 L1021.0,507.6 L1021.3,482.9 L1021.6,523.7 L1021.9,531.2 L1022.1,544.0 L1022.4,483.2 L1022.8,544.0 L1023.1,540.3 L1023.3,544.0 L1023.6,544.0 L1024.9,482.3 L1025.2,498.8 L1025.5,544.0 L1025.8,500.5 L1026.1,544.0 L1026.4,544.0 L1026.7,502.6 L1027.0,544.0 L1027.3,544.0 L1027.6,544.0 L1027.9,544.0 L1028.3,539.8 L1028.6,544.0 L1028.8,486.8 L1029.1,544.0 L1029.5,544.0 L1029.7,544.0 L1030.1,488.2 L1030.4,544.0 L1031.7,509.7 L1032.0,506.7 L1032.2,481.9 L1032.6,485.6 L1032.9,493.1 L1033.2,525.1 L1033.5,544.0 L1033.8,544.0 L1034.1,544.0 L1034.4,540.8 L1034.7,544.0 L1035.0,517.0 L1035.3,493.5 L1035.6,498.4 L1035.9,533.3 L1036.2,544.0 L1036.5,511.0 L1036.8,544.0 L1037.1,544.0 L1038.5,486.1 L1038.8,494.1 L1039.1,483.2 L1039.3,544.0 L1039.6,511.4 L1039.9,526.6 L1040.2,533.5 L1040.5,516.0 L1040.8,542.4 L1041.0,518.8 L1041.3,536.3 L1041.6,490.1 L1041.9,508.5 L1042.2,532.8 L1042.6,490.3 L1042.9,544.0 L1043.1,544.0 L1043.4,544.0 L1043.7,544.0 L1044.0,544.0 L1045.3,544.0 L1045.5,544.0 L1045.8,544.0 L1046.1,501.8 L1046.4,497.9 L1046.8,544.0 L1047.0,544.0 L1047.4,543.7 L1047.7,544.0 L1048.0,544.0 L1048.2,544.0 L1048.6,544.0 L1048.9,520.9 L1049.2,527.4 L1049.5,544.0 L1049.8,544.0 L1050.1,544.0 L1050.3,544.0 L1050.6,497.8 L1050.9,544.0 L1052.1,491.1 L1052.3,539.3 L1052.6,544.0 L1052.9,509.9 L1053.2,544.0 L1053.6,544.0 L1053.9,544.0 L1054.1,544.0 L1054.4,544.0 L1054.7,520.6 L1055.0,544.0 L1055.3,544.0 L1055.6,521.2 L1055.8,544.0 L1056.2,500.9 L1056.5,487.9 L1056.8,544.0 L1057.1,499.2 L1057.4,544.0 L1057.7,544.0 L1058.9,544.0 L1059.1,544.0 L1059.4,524.0 L1059.7,544.0 L1060.0,544.0 L1060.3,503.0 L1060.6,544.0 L1060.8,504.8 L1061.1,481.2 L1061.4,544.0 L1061.7,544.0 L1062.0,544.0 L1062.3,544.0 L1062.6,544.0 L1062.9,510.1 L1063.2,544.0 L1063.4,494.4 L1063.7,544.0 L1064.0,544.0 L1064.3,544.0 L1065.7,521.4 L1065.9,544.0 L1066.2,539.5 L1066.6,544.0 L1066.9,544.0 L1067.2,544.0 L1067.5,528.7 L1067.8,543.7 L1068.1,526.9 L1068.4,544.0 L1068.7,523.7 L1069.0,544.0 L1069.3,544.0 L1069.6,484.6 L1069.9,544.0 L1070.1,544.0 L1070.4,544.0 L1070.7,544.0 L1071.0,481.2 L1071.9,544.0 L1073.1,543.3 L1073.4,500.2 L1073.7,544.0 L1073.9,544.0 L1074.2,544.0 L1074.5,528.5 L1074.8,544.0 L1075.1,511.5 L1075.4,544.0 L1075.7,544.0 L1076.0,544.0 L1076.3,544.0 L1076.7,544.0 L1077.6,501.7 L1077.9,529.8 L1078.2,544.0 L1078.5,544.0 L1079.9,530.0 L1080.1,544.0 L1080.4,491.4 L1080.7,544.0 L1081.0,544.0 L1081.4,520.3 L1081.7,544.0 L1082.0,544.0 L1082.6,544.0 L1083.6,489.1 L1084.0,544.0" fill="none" stroke="#1f77b4" stroke-width="1.4" opacity="0.85"/><text x="1040" y="54" fill="#ff7f0e" font-size="11">roll 31</text><text x="1090" y="558" fill="#ff7f0e" font-size="11">-33</text><path d="M637.3,300.8 L637.6,304.5 L638.0,300.1 L638.3,304.5 L638.6,305.2 L639.0,297.1 L639.3,296.4 L639.7,297.9 L640.0,302.3 L640.3,306.7 L640.7,299.3 L641.0,303.0 L641.3,299.3 L641.6,297.9 L641.9,294.2 L642.2,301.6 L642.5,295.7 L642.7,294.9 L643.0,297.1 L643.3,305.2 L643.6,305.2 L643.9,302.3 L644.2,293.5 L644.4,305.2 L644.8,296.4 L645.1,300.8 L645.4,293.5 L645.7,306.0 L646.0,303.8 L646.3,304.5 L646.6,306.7 L646.9,306.0 L647.2,300.1 L647.4,306.0 L647.7,297.9 L648.0,294.9 L648.3,294.9 L648.6,296.4 L648.9,294.9 L649.2,294.2 L649.5,301.6 L649.8,293.5 L650.1,308.9 L650.3,295.7 L650.6,305.2 L650.9,296.4 L651.2,307.4 L651.5,294.2 L651.8,294.9 L652.0,301.6 L652.3,298.6 L652.6,308.2 L652.9,303.8 L653.2,308.9 L653.5,297.1 L653.8,303.0 L654.1,303.0 L654.4,294.2 L654.6,294.2 L654.9,308.2 L655.2,303.8 L655.5,298.6 L655.8,304.5 L656.1,301.6 L656.3,294.2 L656.7,300.1 L657.0,306.0 L657.3,294.2 L657.6,302.3 L657.9,307.4 L658.2,303.8 L658.6,304.5 L658.8,305.2 L659.1,306.7 L659.4,309.6 L659.7,303.0 L660.0,305.2 L660.3,307.4 L660.7,301.6 L660.9,302.3 L661.3,303.0 L661.6,300.8 L661.9,294.9 L662.2,295.7 L662.5,297.9 L662.8,307.4 L663.0,298.6 L663.3,305.2 L663.7,306.7 L664.0,306.0 L664.2,303.8 L664.6,300.1 L664.9,296.4 L665.1,297.9 L665.4,296.4 L665.8,303.0 L666.0,294.2 L666.3,300.1 L666.6,296.4 L666.8,301.6 L667.1,297.1 L667.4,298.6 L667.7,297.9 L668.0,293.5 L668.3,298.6 L668.5,299.3 L668.8,304.5 L669.2,295.7 L669.5,305.2 L669.7,303.0 L670.0,295.7 L670.3,306.0 L670.6,303.8 L670.9,298.6 L671.2,303.0 L671.4,299.3 L671.8,299.3 L672.1,302.3 L672.4,300.1 L672.6,294.9 L672.9,305.2 L673.2,303.8 L673.5,297.1 L673.8,294.2 L674.1,305.2 L674.4,307.4 L674.7,298.6 L675.0,297.9 L675.2,299.3 L675.5,295.7 L675.8,305.2 L676.1,299.3 L676.4,294.9 L676.7,308.9 L677.0,300.1 L677.3,310.4 L677.7,305.2 L677.9,296.4 L678.2,297.9 L678.5,300.1 L678.8,310.4 L679.1,297.1 L679.4,297.1 L679.7,297.9 L680.0,298.6 L680.3,305.2 L680.6,309.6 L680.9,297.1 L681.1,297.9 L681.5,309.6 L681.8,302.3 L682.0,303.8 L682.3,302.3 L682.6,307.4 L682.9,303.8 L683.2,301.6 L683.5,310.4 L683.8,304.5 L684.1,301.6 L684.4,291.3 L684.7,262.6 L685.0,264.8 L685.3,277.3 L685.6,267.0 L685.8,306.0 L686.1,274.4 L686.4,224.4 L686.7,177.4 L687.0,180.3 L687.3,264.1 L687.6,247.9 L687.9,234.7 L688.2,212.7 L688.5,171.5 L688.7,251.6 L689.0,304.5 L689.4,245.0 L689.6,191.3 L689.9,217.8 L690.2,220.0 L690.5,209.7 L690.8,220.7 L691.1,293.5 L691.3,222.2 L691.6,185.5 L691.9,221.5 L692.2,222.9 L692.5,287.6 L692.8,185.5 L693.1,258.9 L693.4,232.5 L693.7,181.8 L694.0,253.8 L694.2,248.7 L694.5,300.1 L694.8,233.2 L695.3,259.7 L695.6,291.3 L695.9,293.5 L696.2,303.8 L696.5,303.8 L696.7,313.3 L697.0,311.1 L697.3,382.4 L697.6,346.4 L697.9,306.0 L698.2,374.3 L698.4,440.4 L698.7,322.9 L699.0,400.7 L699.3,419.8 L699.6,422.8 L699.9,321.4 L700.2,407.3 L700.5,506.5 L700.8,487.4 L701.3,408.8 L701.6,316.2 L701.9,418.4 L702.2,458.0 L702.5,471.3 L702.8,406.6 L703.1,349.3 L703.4,508.7 L703.7,306.7 L704.0,316.2 L704.3,483.8 L704.7,402.2 L705.0,493.3 L705.2,361.8 L705.5,517.6 L705.9,490.4 L706.2,470.5 L706.4,297.9 L706.7,311.8 L707.2,499.2 L707.5,315.5 L707.8,379.4 L708.1,361.1 L708.4,307.4 L708.7,430.9 L709.0,365.5 L709.3,370.6 L709.6,302.3 L709.8,316.2 L710.2,309.6 L710.5,423.5 L710.8,537.4 L711.0,490.4 L711.3,316.2 L711.6,327.3 L711.9,495.5 L712.2,300.1 L712.4,319.2 L712.7,421.3 L713.2,544.0 L713.5,416.2 L713.8,433.1 L714.1,524.9 L714.4,368.4 L714.7,357.4 L715.0,351.5 L715.3,364.0 L715.6,297.9 L715.8,303.0 L716.1,307.4 L716.4,262.6 L716.7,245.7 L717.0,266.3 L717.3,184.0 L717.6,292.7 L717.9,222.9 L718.2,175.9 L718.5,220.7 L718.7,289.1 L719.2,124.5 L719.4,93.6 L719.7,218.5 L720.0,289.1 L720.3,164.2 L720.6,151.7 L720.9,256.0 L721.2,78.9 L721.5,109.1 L721.7,209.7 L722.0,173.7 L722.3,119.3 L722.6,230.3 L722.9,213.4 L723.2,94.4 L723.5,239.8 L723.7,160.5 L724.0,92.9 L724.3,155.3 L724.6,306.7 L725.1,203.8 L725.4,180.3 L725.7,131.1 L725.9,117.9 L726.2,201.6 L726.5,142.1 L726.8,185.5 L727.1,135.5 L727.4,276.6 L727.6,237.6 L727.9,269.2 L728.2,201.6 L728.5,136.2 L728.8,239.1 L729.1,136.2 L729.4,299.3 L729.6,84.8 L729.9,220.0 L730.2,249.4 L730.5,149.5 L731.1,164.9 L731.3,258.2 L731.6,172.2 L732.0,125.2 L732.2,247.2 L732.5,187.7 L732.8,273.6 L733.1,123.8 L733.4,272.2 L733.7,218.5 L733.9,147.3 L734.3,104.7 L734.6,263.3 L734.9,287.6 L735.2,104.7 L735.5,155.3 L735.8,260.4 L736.0,187.7 L736.3,153.1 L736.6,203.1 L737.0,259.7 L737.3,306.0 L737.6,275.8 L737.9,77.5 L738.2,286.1 L738.5,166.4 L738.8,88.5 L739.0,114.2 L739.6,171.5 L739.9,131.8 L740.2,92.9 L740.5,293.5 L740.8,237.6 L741.0,134.8 L741.3,141.4 L741.6,176.7 L741.9,209.0 L742.2,164.9 L742.6,245.7 L743.0,76.0 L743.2,209.7 L743.6,207.5 L743.9,157.6 L744.1,220.7 L744.4,98.0 L744.7,112.7 L745.0,169.3 L745.3,238.4 L745.6,169.3 L745.9,87.0 L746.1,184.0 L746.5,279.5 L746.8,174.4 L747.0,266.3 L747.3,257.5 L747.6,167.8 L747.9,303.8 L748.2,267.0 L748.5,158.3 L749.2,184.0 L749.5,168.6 L749.8,184.7 L750.1,258.2 L750.3,305.2 L750.6,201.6 L750.9,245.7 L751.2,226.6 L751.5,143.6 L751.8,185.5 L752.1,282.4 L752.4,181.8 L752.7,206.8 L752.9,148.0 L753.2,300.1 L753.5,209.0 L753.8,181.1 L754.1,290.5 L754.4,95.1 L754.6,202.4 L755.4,298.6 L755.7,261.1 L756.0,110.5 L756.3,143.6 L756.6,190.6 L756.9,220.0 L757.1,272.2 L757.5,237.6 L757.8,286.9 L758.0,300.8 L758.3,220.7 L758.6,132.6 L758.9,266.3 L759.2,153.1 L759.5,288.3 L759.8,286.1 L760.0,251.6 L760.3,203.8 L760.6,188.4 L760.9,198.0 L761.6,203.1 L761.9,240.6 L762.2,296.4 L762.5,232.5 L762.8,158.3 L763.0,273.6 L763.3,275.1 L763.6,280.2 L763.9,147.3 L764.2,222.9 L764.5,170.0 L764.7,156.1 L765.0,246.4 L765.3,306.7 L765.6,262.6 L765.9,214.9 L766.2,236.9 L766.4,284.7 L766.7,116.4 L767.0,243.5 L767.8,165.6 L768.1,176.7 L768.4,267.8 L768.7,172.2 L769.0,258.9 L769.3,307.4 L769.6,304.5 L769.8,141.4 L770.1,195.0 L770.4,231.0 L770.7,209.7 L771.0,241.3 L771.3,186.9 L771.6,184.7 L771.8,261.1 L772.1,169.3 L772.4,173.0 L772.7,190.6 L773.0,171.5 L773.3,196.5 L774.1,292.0 L774.4,144.3 L774.7,259.7 L775.0,186.2 L775.2,227.3 L775.5,212.7 L775.8,154.6 L776.1,225.1 L776.4,192.8 L776.7,258.2 L777.0,262.6 L777.3,305.2 L777.6,234.7 L777.9,291.3 L778.1,222.2 L778.4,262.6 L778.8,231.8 L779.0,224.4 L779.3,281.7 L779.6,197.2 L780.3,260.4 L780.6,281.0 L780.9,225.9 L781.2,290.5 L781.5,256.7 L781.8,280.2 L782.0,236.9 L782.3,189.9 L782.6,227.3 L782.9,227.3 L783.2,279.5 L783.5,281.7 L783.8,293.5 L784.0,268.5 L784.3,286.9 L784.6,199.4 L784.9,236.2 L785.2,261.1 L785.5,245.0 L785.7,277.3 L786.5,287.6 L786.8,250.9 L787.1,294.2 L787.4,219.3 L787.7,284.7 L787.9,250.9 L788.2,245.7 L788.6,214.9 L788.9,182.5 L789.1,220.7 L789.4,223.7 L789.6,302.3 L789.9,206.8 L790.2,261.9 L790.5,191.3 L790.8,228.1 L791.1,305.2 L791.4,238.4 L791.7,191.3 L792.0,232.5 L792.7,250.1 L793.0,225.9 L793.3,212.7 L793.6,214.9 L793.8,184.7 L794.2,205.3 L794.5,225.1 L794.8,267.8 L795.1,277.3 L795.4,291.3 L795.7,305.2 L796.0,323.6 L796.3,300.1 L796.6,296.4 L796.8,284.7 L797.1,289.8 L797.4,270.0 L797.7,275.8 L798.0,294.2 L798.3,278.8 L799.0,298.6 L799.2,295.7 L799.5,285.4 L799.8,308.2 L800.1,297.1 L800.4,253.1 L800.6,289.8 L801.0,264.8 L801.3,271.4 L801.6,224.4 L801.9,248.7 L802.2,297.9 L802.5,297.1 L802.7,287.6 L803.0,280.2 L803.3,228.1 L803.6,293.5 L803.9,268.5 L804.2,297.9 L804.4,280.2 L805.2,284.7 L805.5,271.4 L805.8,258.2 L806.1,216.3 L806.4,271.4 L806.7,286.9 L807.0,231.0 L807.2,272.9 L807.5,295.7 L807.8,292.7 L808.1,240.6 L808.4,307.4 L808.7,283.9 L809.0,303.0 L809.3,221.5 L809.5,300.8 L809.9,214.1 L810.2,220.0 L810.5,267.8 L810.8,269.2 L811.4,308.2 L811.7,301.6 L812.0,329.5 L812.3,322.9 L812.6,325.1 L812.8,316.2 L813.1,277.3 L813.4,275.8 L813.7,289.8 L814.0,290.5 L814.3,261.1 L814.5,286.9 L814.9,278.0 L815.2,291.3 L815.5,303.8 L815.7,311.8 L816.1,304.5 L816.4,279.5 L816.6,297.9 L816.9,300.8 L817.7,221.5 L817.9,195.0 L818.2,216.3 L818.6,264.8 L818.9,271.4 L819.2,285.4 L819.5,307.4 L819.8,289.8 L820.0,217.1 L820.3,247.2 L820.6,231.0 L821.0,270.0 L821.2,236.9 L821.6,178.9 L821.9,268.5 L822.2,299.3 L822.5,215.6 L822.8,256.0 L823.1,246.4 L823.9,262.6 L824.2,263.3 L824.5,189.1 L824.8,184.0 L825.0,245.0 L825.4,270.7 L825.7,232.5 L825.9,245.0 L826.2,277.3 L826.6,305.2 L826.9,292.0 L827.1,303.0 L827.4,333.1 L827.7,294.2 L828.0,304.5 L828.3,277.3 L828.6,287.6 L828.8,305.2 L829.1,297.9 L829.4,310.4 L830.2,322.1 L830.4,297.1 L830.7,294.2 L831.0,299.3 L831.3,279.5 L831.6,300.8 L831.8,285.4 L832.1,305.2 L832.4,280.2 L832.7,296.4 L833.0,316.2 L833.3,307.4 L833.6,286.1 L833.9,242.8 L834.2,255.3 L834.5,279.5 L834.7,277.3 L835.0,249.4 L835.3,301.6 L835.6,306.0 L836.4,275.1 L836.7,297.9 L836.9,283.2 L837.3,237.6 L837.6,123.8 L837.9,195.8 L838.1,203.8 L838.4,249.4 L838.7,214.1 L839.0,304.5 L839.3,225.9 L839.6,199.4 L840.0,284.7 L840.2,259.7 L840.5,281.0 L840.8,302.3 L841.1,208.2 L841.4,226.6 L841.8,219.3 L842.6,303.8 L842.9,301.6 L843.2,312.6 L843.5,297.1 L843.8,294.9 L844.0,297.9 L844.3,283.9 L844.6,303.8 L844.9,227.3 L845.2,243.5 L845.5,264.1 L845.7,277.3 L846.0,290.5 L846.3,295.7 L846.6,256.7 L846.9,279.5 L847.2,298.6 L847.6,333.9 L847.8,308.2 L848.1,296.4 L849.4,366.9 L849.7,321.4 L849.9,314.8 L850.2,298.6 L850.5,295.7 L850.8,232.5 L851.1,300.8 L851.4,269.2 L851.6,253.1 L851.9,294.9 L852.2,282.4 L852.5,305.2 L852.8,313.3 L853.1,309.6 L853.3,300.1 L853.6,367.7 L853.9,294.2 L854.2,302.3 L854.5,306.7 L854.8,325.8 L856.0,263.3 L856.3,273.6 L856.6,294.2 L856.9,312.6 L857.1,301.6 L857.5,277.3 L857.8,275.1 L858.0,303.8 L858.3,292.7 L858.7,284.7 L859.0,281.0 L859.2,261.1 L859.5,258.9 L859.8,297.9 L860.1,294.9 L860.4,298.6 L860.7,298.6 L860.9,303.8 L861.2,300.8 L861.5,295.7 L862.8,223.7 L863.0,231.0 L863.3,272.2 L863.6,283.2 L863.9,278.0 L864.2,299.3 L864.5,315.5 L864.8,313.3 L865.1,298.6 L865.4,325.1 L865.7,311.1 L865.9,298.6 L866.2,294.9 L866.5,301.6 L866.8,294.2 L867.1,253.1 L867.4,301.6 L867.7,278.0 L868.0,296.4 L868.3,261.9 L869.5,270.7 L869.8,231.0 L870.1,277.3 L870.4,303.0 L870.6,281.7 L870.9,210.4 L871.2,272.2 L871.5,306.7 L871.8,315.5 L872.2,306.7 L872.5,303.0 L872.7,274.4 L873.0,297.9 L873.3,327.3 L873.6,293.5 L873.9,322.1 L874.2,292.7 L874.4,293.5 L874.7,300.1 L875.0,294.9 L876.2,354.4 L876.5,331.7 L876.8,298.6 L877.1,304.5 L877.3,311.8 L877.7,374.3 L878.0,300.8 L878.2,365.5 L878.5,348.6 L878.8,354.4 L879.1,325.8 L879.4,293.5 L879.7,307.4 L879.9,275.8 L880.2,297.9 L880.5,292.7 L880.8,256.0 L881.1,299.3 L881.4,292.7 L881.7,289.8 L882.9,168.6 L883.2,236.2 L883.5,260.4 L883.8,307.4 L884.1,250.9 L884.4,224.4 L884.7,307.4 L885.0,292.7 L885.3,289.1 L885.6,289.1 L885.8,210.4 L886.1,181.8 L886.4,264.1 L886.7,292.7 L887.0,211.2 L887.4,289.1 L887.7,282.4 L888.0,259.7 L888.3,303.0 L888.6,234.0 L889.7,363.3 L890.0,347.1 L890.3,389.7 L890.6,368.4 L890.8,325.1 L891.2,353.7 L891.5,365.5 L891.8,342.0 L892.1,351.5 L892.4,307.4 L892.7,329.5 L893.0,334.6 L893.3,362.5 L893.6,363.3 L893.8,328.0 L894.1,355.2 L894.4,374.3 L894.7,383.1 L895.0,329.5 L895.3,366.9 L896.4,239.1 L896.7,286.9 L897.0,304.5 L897.3,256.0 L897.6,284.7 L897.9,233.2 L898.2,176.7 L898.4,230.3 L898.7,283.2 L899.0,284.7 L899.3,286.9 L899.6,240.6 L899.9,229.6 L900.1,258.2 L900.4,308.2 L900.7,299.3 L901.0,265.6 L901.3,301.6 L901.6,306.0 L901.8,311.1 L903.2,338.3 L903.5,313.3 L903.8,314.8 L904.1,319.2 L904.4,298.6 L904.7,312.6 L905.0,271.4 L905.4,255.3 L905.6,300.8 L906.0,294.9 L906.3,300.1 L906.6,345.6 L906.9,313.3 L907.2,297.1 L907.5,314.8 L907.8,316.2 L908.1,303.8 L908.4,287.6 L908.7,246.4 L910.0,231.0 L910.2,217.8 L910.5,277.3 L910.9,292.0 L911.1,271.4 L911.4,271.4 L911.7,292.0 L912.0,257.5 L912.3,217.1 L912.6,234.7 L912.9,270.0 L913.2,283.9 L913.5,268.5 L913.8,306.0 L914.1,272.9 L914.4,261.9 L914.7,261.9 L915.0,257.5 L915.3,283.2 L915.6,228.8 L916.7,294.9 L917.0,297.9 L917.3,338.3 L917.6,328.7 L917.8,369.1 L918.1,372.1 L918.4,333.9 L918.7,311.8 L919.0,352.2 L919.3,317.7 L919.5,297.9 L919.8,319.9 L920.1,342.7 L920.4,324.3 L920.7,336.8 L921.0,342.7 L921.2,302.3 L921.5,296.4 L921.8,322.9 L922.1,325.1 L923.5,279.5 L923.7,264.8 L924.0,303.8 L924.3,241.3 L924.6,258.9 L924.9,285.4 L925.2,278.8 L925.5,305.2 L925.8,333.9 L926.1,303.0 L926.3,291.3 L926.6,300.8 L927.0,296.4 L927.3,294.9 L927.5,295.7 L927.8,306.7 L928.1,277.3 L928.4,295.7 L928.7,288.3 L929.0,303.8 L930.2,209.7 L930.5,226.6 L930.8,306.7 L931.1,292.7 L931.3,306.0 L931.6,297.9 L931.9,287.6 L932.2,286.9 L932.5,294.2 L932.8,295.7 L933.0,302.3 L933.3,286.9 L933.6,267.0 L933.9,281.0 L934.2,303.0 L934.5,291.3 L934.7,308.2 L935.0,304.5 L935.3,307.4 L935.6,305.2 L937.0,206.0 L937.2,303.8 L937.5,282.4 L937.8,254.5 L938.1,253.8 L938.4,256.7 L938.7,278.8 L939.0,272.9 L939.3,286.1 L939.7,275.1 L940.0,280.2 L940.2,259.7 L940.5,306.7 L940.8,267.0 L941.1,292.7 L941.4,301.6 L941.7,303.8 L941.9,294.9 L942.2,252.3 L942.5,283.9 L943.7,360.3 L944.0,364.0 L944.3,321.4 L944.6,347.1 L944.8,306.0 L945.1,375.8 L945.4,380.9 L945.7,320.7 L946.0,325.8 L946.3,322.1 L946.5,404.4 L946.8,299.3 L947.2,355.2 L947.4,433.8 L947.7,381.6 L948.0,368.4 L948.3,303.8 L948.6,342.0 L948.9,311.1 L949.1,340.5 L950.5,436.7 L950.8,337.6 L951.1,433.1 L951.4,306.7 L951.6,364.7 L952.0,293.5 L952.3,342.0 L952.6,296.4 L952.9,284.7 L953.3,275.8 L953.6,301.6 L954.0,271.4 L954.3,267.8 L954.6,236.9 L954.9,301.6 L955.2,278.8 L955.4,277.3 L955.8,292.7 L956.1,297.9 L957.3,400.7 L957.5,343.4 L957.8,379.4 L958.1,358.9 L958.4,438.2 L958.7,352.2 L959.0,386.0 L959.4,439.7 L959.6,342.0 L960.0,318.4 L960.3,355.2 L960.6,294.9 L960.9,328.0 L961.2,305.2 L961.5,312.6 L961.7,290.5 L962.0,303.0 L962.3,239.1 L962.6,237.6 L964.0,211.9 L964.2,288.3 L964.5,265.6 L964.9,246.4 L965.1,275.8 L965.4,294.2 L965.7,298.6 L966.0,324.3 L966.3,321.4 L966.7,303.0 L967.0,277.3 L967.2,292.0 L967.5,297.1 L967.9,256.0 L968.2,242.0 L968.4,186.2 L968.7,257.5 L969.0,304.5 L969.3,295.7 L969.6,283.2 L970.7,305.2 L971.0,250.1 L971.3,221.5 L971.6,167.8 L971.9,279.5 L972.2,250.9 L972.5,220.7 L972.9,275.1 L973.1,218.5 L973.5,248.7 L973.8,275.1 L974.1,271.4 L974.3,294.2 L974.6,303.8 L974.9,312.6 L975.2,312.6 L975.5,268.5 L975.8,297.9 L976.0,321.4 L976.3,317.7 L977.5,192.8 L977.7,297.1 L978.0,305.2 L978.4,286.9 L978.6,294.2 L979.0,252.3 L979.3,252.3 L979.6,298.6 L979.8,299.3 L980.1,306.0 L980.4,271.4 L980.7,304.5 L981.0,243.5 L981.3,289.8 L981.6,303.8 L981.9,306.7 L982.2,271.4 L982.5,298.6 L982.8,266.3 L983.1,251.6 L984.3,277.3 L984.5,294.2 L984.8,167.1 L985.2,259.7 L985.5,197.2 L985.8,210.4 L986.1,261.9 L986.4,279.5 L986.6,272.2 L986.9,208.2 L987.2,289.1 L987.5,223.7 L987.8,238.4 L988.1,301.6 L988.3,303.8 L988.6,285.4 L989.0,298.6 L989.2,306.0 L989.6,306.7 L989.9,294.2 L991.0,314.0 L991.3,301.6 L991.6,333.1 L991.9,339.0 L992.1,307.4 L992.4,295.7 L992.7,310.4 L993.0,297.1 L993.3,329.5 L993.6,352.2 L993.8,303.8 L994.1,299.3 L994.4,296.4 L994.7,292.0 L995.0,294.9 L995.3,335.3 L995.7,315.5 L995.9,391.9 L996.3,297.9 L996.6,342.7 L997.8,292.7 L998.0,293.5 L998.3,306.7 L998.7,328.0 L999.0,297.9 L999.2,288.3 L999.5,272.2 L999.8,270.7 L1000.1,261.9 L1000.4,294.2 L1000.6,236.2 L1000.9,214.1 L1001.3,232.5 L1001.6,235.4 L1001.9,258.9 L1002.2,261.9 L1002.5,275.8 L1002.7,289.8 L1003.0,319.9 L1003.3,344.2 L1004.5,394.1 L1004.8,297.9 L1005.1,325.8 L1005.4,302.3 L1005.7,395.6 L1006.0,398.5 L1006.3,397.1 L1006.7,336.1 L1007.0,347.8 L1007.3,328.0 L1007.6,307.4 L1007.9,306.7 L1008.1,308.9 L1008.5,313.3 L1008.8,297.1 L1009.1,303.8 L1009.4,307.4 L1009.7,304.5 L1010.0,303.8 L1011.4,249.4 L1011.6,256.7 L1011.9,210.4 L1012.2,181.8 L1012.4,254.5 L1012.7,281.0 L1013.0,283.9 L1013.4,243.5 L1013.6,218.5 L1013.9,259.7 L1014.2,222.2 L1014.5,256.7 L1014.8,287.6 L1015.1,222.9 L1015.4,294.2 L1015.7,216.3 L1016.0,286.1 L1016.3,278.0 L1016.5,178.9 L1016.8,299.3 L1018.1,283.2 L1018.4,295.7 L1018.7,192.8 L1019.0,269.2 L1019.3,268.5 L1019.5,214.9 L1019.8,298.6 L1020.2,247.2 L1020.4,271.4 L1020.7,252.3 L1021.0,302.3 L1021.3,259.7 L1021.6,300.1 L1021.9,303.8 L1022.1,243.5 L1022.4,270.7 L1022.8,284.7 L1023.1,258.9 L1023.3,294.2 L1023.6,303.8 L1024.9,293.5 L1025.2,223.7 L1025.5,307.4 L1025.8,297.1 L1026.1,211.2 L1026.4,307.4 L1026.7,250.9 L1027.0,290.5 L1027.3,310.4 L1027.6,306.7 L1027.9,321.4 L1028.3,306.7 L1028.6,319.2 L1028.8,297.1 L1029.1,300.1 L1029.5,280.2 L1029.7,307.4 L1030.1,247.9 L1030.4,297.9 L1031.7,346.4 L1032.0,300.1 L1032.2,328.7 L1032.6,292.7 L1032.9,309.6 L1033.2,278.8 L1033.5,287.6 L1033.8,278.8 L1034.1,267.8 L1034.4,300.1 L1034.7,303.0 L1035.0,297.9 L1035.3,314.8 L1035.6,298.6 L1035.9,281.7 L1036.2,270.0 L1036.5,236.2 L1036.8,282.4 L1037.1,249.4 L1038.5,203.1 L1038.8,224.4 L1039.1,232.5 L1039.3,298.6 L1039.6,198.7 L1039.9,248.7 L1040.2,285.4 L1040.5,298.6 L1040.8,289.8 L1041.0,267.0 L1041.3,304.5 L1041.6,280.2 L1041.9,276.6 L1042.2,275.8 L1042.6,255.3 L1042.8,211.9 L1043.1,273.6 L1043.4,300.1 L1043.7,300.8 L1044.0,249.4 L1045.3,325.8 L1045.5,297.1 L1045.8,340.5 L1046.1,377.2 L1046.4,333.9 L1046.8,298.6 L1047.0,290.5 L1047.4,310.4 L1047.7,294.2 L1048.0,306.7 L1048.2,294.2 L1048.6,294.9 L1048.9,308.9 L1049.2,318.4 L1049.5,319.9 L1049.8,362.5 L1050.1,307.4 L1050.3,314.8 L1050.6,313.3 L1050.9,302.3 L1052.1,339.0 L1052.3,308.2 L1052.6,340.5 L1052.9,294.2 L1053.2,297.1 L1053.6,285.4 L1053.9,271.4 L1054.1,307.4 L1054.4,261.9 L1054.7,284.7 L1055.0,281.7 L1055.3,292.0 L1055.6,281.0 L1055.8,272.9 L1056.2,231.8 L1056.5,266.3 L1056.8,306.0 L1057.1,311.1 L1057.4,293.5 L1057.7,250.1 L1058.9,250.1 L1059.1,160.5 L1059.4,159.0 L1059.7,127.4 L1060.0,192.1 L1060.3,261.9 L1060.6,182.5 L1060.8,280.2 L1061.1,299.3 L1061.4,279.5 L1061.7,243.5 L1062.0,231.8 L1062.3,302.3 L1062.6,267.8 L1062.9,257.5 L1063.2,267.8 L1063.4,303.0 L1063.7,299.3 L1064.0,301.6 L1064.3,269.2 L1065.7,326.5 L1065.9,325.1 L1066.2,297.1 L1066.6,301.6 L1066.8,294.9 L1067.2,298.6 L1067.5,306.0 L1067.8,273.6 L1068.1,306.7 L1068.4,308.2 L1068.7,294.2 L1069.0,290.5 L1069.3,258.2 L1069.6,294.9 L1069.9,234.0 L1070.1,253.1 L1070.4,214.1 L1070.7,305.2 L1071.0,290.5 L1071.9,363.3 L1073.1,430.9 L1073.4,373.6 L1073.7,364.7 L1073.9,395.6 L1074.2,380.2 L1074.5,342.0 L1074.8,349.3 L1075.1,330.9 L1075.4,317.0 L1075.7,334.6 L1076.0,292.0 L1076.3,303.8 L1076.7,362.5 L1077.6,339.0 L1077.9,380.9 L1078.2,309.6 L1078.5,303.8 L1079.9,424.2 L1080.1,311.8 L1080.4,336.1 L1080.7,324.3 L1081.0,430.9 L1081.4,327.3 L1081.7,372.8 L1082.0,383.8 L1082.6,333.9 L1083.6,356.7 L1084.0,338.3" fill="none" stroke="#ff7f0e" stroke-width="1.1" opacity="0.85"/><text x="616" y="572" font-size="11" fill="#888">time 0..83 s — altitude (blue) &amp; roll (orange)</text></svg>