<svg xmlns="http://www.w3.org/2000/svg" width="1140" height="600" font-family="sans-serif" font-size="13"><rect width="1140" height="600" fill="white"/><text x="20" y="26" font-size="15" fill="#333">Coludo flight</text><rect x="20" y="40" width="540" height="540" fill="#fbfbfb" stroke="#ddd"/><rect x="50" y="245" width="313" height="67" fill="#cde" stroke="#369" opacity="0.7"/><text x="50" y="240" fill="#369" font-size="12">landing zone</text><circle cx="248" cy="350" r="5" fill="black"/><text x="256" y="354" font-size="12">pad</text><path d="M248.7,350.0 L248.7,350.0 L248.7,350.0 L248.7,350.0 L248.7,350.0 L248.7,350.0 L248.7,350.0 L248.7,350.0 L248.7,350.0 L248.7,350.0 L248.7,350.0 L248.7,350.0 L248.7,350.0 L248.7,350.0 L248.7,350.0 L248.7,350.0 L248.7,350.0 L248.7,350.0 L248.7,350.0 L248.7,350.0 L248.7,350.0 L248.7,350.0 L248.7,350.0 L248.7,350.0 L248.7,350.0 L248.7,350.0 L248.7,350.0 L248.7,350.0 L248.7,350.0 L248.7,350.0 L248.7,350.0 L248.7,350.0 L248.7,350.0 L248.7,350.0 L248.7,350.0 L248.7,350.0 L248.7,350.0 L248.7,350.0 L248.7,350.0 L248.7,350.0 L248.7,350.0 L248.7,350.0 L248.7,350.0 L248.7,350.0 L248.7,350.0 L248.7,350.0 L248.7,350.0 L248.7,350.0 L248.7,350.0 L248.7,350.0 L248.7,350.0 L248.7,350.0 L248.7,350.0 L248.7,350.0 L248.7,350.0 L248.7,350.0 L248.7,350.0 L248.7,350.0 L248.7,350.0 L248.7,350.0 L248.7,350.0 L248.7,350.0 L248.7,350.0 L248.7,350.0 L248.7,350.0 L248.7,350.0 L248.7,350.0 L248.7,350.0 L248.7,350.0 L248.7,350.0 L248.7,350.0 L248.7,350.0 L248.7,350.0 L248.7,350.0 L248.7,349.7 L248.7,349.7 L248.7,349.3 L249.7,348.9 L249.7,348.5 L249.7,348.2 L249.7,348.2 L249.7,348.2 L250.3,347.8 L250.3,347.8 L250.3,347.4 L252.0,347.4 L252.0,347.1 L252.0,347.1 L253.7,347.1 L253.7,347.1 L255.0,346.7 L255.0,346.7 L255.4,346.7 L255.4,346.7 L255.4,346.7 L257.1,346.7 L257.1,346.7 L258.7,346.7 L258.7,346.7 L260.4,346.7 L260.4,346.7 L260.4,346.7 L260.4,346.7 L262.1,346.7 L262.1,346.7 L263.8,346.7 L263.8,346.7 L265.5,346.7 L265.5,346.7 L265.8,346.7 L265.8,347.1 L267.1,347.1 L268.8,347.1 L268.8,347.1 L270.5,347.1 L270.5,347.1 L271.2,347.1 L271.2,347.1 L272.2,347.1 L272.2,347.1 L273.9,347.1 L275.5,347.4 L275.5,347.4 L276.6,347.4 L276.6,347.4 L277.2,347.4 L277.2,347.8 L278.9,347.8 L278.9,347.8 L280.6,347.8 L281.9,348.2 L281.9,348.2 L282.3,348.2 L282.3,348.2 L283.9,348.2 L283.9,348.2 L285.6,348.2 L285.6,348.2 L287.3,348.2 L287.3,348.2 L288.7,348.2 L288.7,348.2 L289.0,348.2 L289.0,348.2 L290.7,348.2 L290.7,348.2 L292.4,348.2 L292.4,348.2 L292.7,348.2 L292.7,348.2 L294.0,348.2 L294.0,348.2 L295.7,348.2 L295.7,348.2 L297.4,348.5 L297.4,348.5 L298.1,348.5 L298.1,348.5 L299.1,348.9 L300.8,348.9 L300.8,348.9 L302.4,348.9 L302.4,349.3 L303.4,349.3 L303.4,349.3 L304.1,349.7 L305.8,349.7 L305.8,350.0 L307.5,350.0 L307.5,350.0 L309.2,350.4 L309.2,350.4 L310.2,350.8 L310.8,350.8 L310.8,350.8 L312.5,351.2 L314.2,351.2 L314.2,351.5 L315.5,351.5 L315.5,351.9 L315.9,351.9 L317.6,351.9 L317.6,352.3 L319.2,352.3 L319.2,352.3 L319.6,352.6 L319.6,352.6 L320.9,352.6 L320.9,352.6 L322.6,353.0 L324.3,353.0 L324.3,353.0 L325.0,353.4 L325.0,353.4 L326.0,353.4 L326.0,353.4 L327.6,353.8 L329.3,353.8 L329.3,353.8 L330.3,353.8 L331.0,354.1 L331.0,354.1 L332.7,354.1 L332.7,354.1 L334.4,354.1 L334.4,354.1 L336.1,354.1 L336.1,354.1 L336.4,354.5 L336.4,354.5 L337.7,354.5 L337.7,354.5 L339.4,354.5 L339.4,354.5 L341.1,354.5 L342.4,354.5 L342.4,354.9 L342.8,354.9 L342.8,354.9 L344.5,354.9 L344.5,354.9 L346.1,354.9 L346.1,354.9 L346.5,354.9 L346.5,354.9 L347.8,354.9 L347.8,354.9 L349.5,354.9 L349.5,354.9 L351.2,355.3 L351.8,355.3 L351.8,355.3 L352.9,355.3 L352.9,355.3 L354.5,355.3 L354.5,355.3 L356.2,355.3 L356.2,355.6 L357.9,355.6 L359.2,355.6 L359.2,355.6 L359.6,355.6 L359.6,355.6 L361.3,355.6 L361.3,355.6 L362.9,355.6 L362.9,355.6 L363.3,355.6 L364.6,355.6 L366.3,356.0 L368.0,356.0 L368.0,356.0 L370.0,356.0 L370.0,356.0 L369.7,356.0 L369.7,356.4 L371.3,356.4 L371.3,356.4 L373.0,356.7 L373.4,356.7 L373.4,356.7 L374.7,356.7 L374.7,356.7 L376.4,356.7 L376.4,356.7 L378.1,356.7 L378.1,356.7 L378.7,356.7 L379.7,357.1 L379.7,357.1 L381.4,357.1 L383.1,357.5 L383.1,357.5 L384.8,357.9 L384.8,357.9 L385.5,358.2 L386.5,358.2 L386.5,358.2 L388.2,358.6 L389.8,358.6 L389.8,359.0 L390.2,359.0 L390.2,359.0 L391.5,359.0 L393.2,359.0 L393.2,359.0 L394.9,359.4 L394.9,359.4 L395.5,359.4 L396.6,359.4 L396.6,359.7 L398.2,359.7 L398.2,359.7 L399.9,359.7 L399.9,360.1 L400.3,360.1 L401.6,360.1 L401.6,360.5 L403.3,360.5 L405.0,360.5 L405.0,360.8 L405.6,360.8 L405.6,360.8 L406.6,360.8 L406.6,360.8 L408.3,360.8 L408.3,360.8 L410.0,360.8 L411.7,360.8 L411.7,360.8 L412.4,360.8 L412.4,360.8 L413.4,360.8 L413.4,360.8 L415.0,360.8 L415.0,360.8 L416.7,360.8 L416.7,360.8 L417.7,360.8 L418.4,361.2 L418.4,361.2 L420.1,361.2 L420.1,361.2 L421.8,361.6 L421.8,361.6 L423.1,361.6 L423.4,362.0 L423.4,362.0 L425.1,362.3 L426.8,362.3 L426.8,362.3 L429.2,362.3 L429.2,362.3 L428.5,362.7 L428.5,362.7 L430.2,362.7 L431.8,362.7 L431.8,362.7 L433.5,363.1 L434.5,363.1 L434.5,363.1 L435.2,363.1 L435.2,363.1 L436.9,363.4 L436.9,363.4 L438.6,363.4 L438.6,363.4 L440.3,363.4 L440.3,363.4 L441.9,363.4 L441.9,363.4 L443.6,363.4 L443.6,363.4 L444.6,363.4 L445.3,363.4 L445.3,363.8 L447.0,363.8 L448.7,363.8 L448.7,363.8 L450.0,364.2 L450.0,364.2 L450.3,364.2 L450.3,364.2 L452.0,364.2 L452.0,364.2 L453.7,364.2 L453.7,364.6 L455.4,364.6 L455.4,364.6 L455.4,364.6 L457.1,364.6 L457.1,364.6 L458.7,364.6 L458.7,364.6 L460.4,364.6 L460.4,364.6 L460.1,364.6 L462.1,364.6 L462.1,364.6 L463.8,364.6 L463.8,364.9 L465.5,364.9 L465.5,364.9 L466.8,365.3 L467.1,365.3 L467.1,365.3 L468.8,365.7 L470.5,365.7 L470.5,366.1 L470.8,366.1 L472.2,366.4 L472.2,366.4 L473.9,366.8 L473.9,366.8 L475.5,367.2 L476.9,367.2 L476.9,367.5 L478.9,367.5 L478.9,367.9 L480.6,367.9 L480.6,367.9 L482.3,368.3 L482.3,368.3 L482.3,368.3 L482.3,368.3 L483.9,368.3 L483.9,368.3 L485.6,368.3 L487.3,368.3 L487.3,368.3 L487.6,368.3 L487.6,368.3 L489.0,368.3 L489.0,368.3 L490.7,368.3 L490.7,368.3 L492.4,368.3 L493.7,368.3 L493.7,368.3 L494.0,368.7 L494.0,368.7 L495.7,368.7 L495.7,368.7 L497.4,368.7 L497.4,369.0 L497.7,369.0 L499.1,369.4 L500.8,369.4 L502.4,369.4 L502.4,369.8 L504.5,369.8 L504.5,369.8 L504.1,370.2 L505.8,370.2 L505.8,370.2 L509.2,370.9 L509.2,370.9 L509.2,370.9 L510.8,370.9 L510.8,370.9 L512.5,370.9 L512.5,370.9 L514.2,371.3 L514.5,371.3 L515.9,371.6 L517.6,371.6 L517.6,372.0 L519.2,372.0 L519.9,372.4 L519.9,372.8 L520.9,372.8 L522.6,373.1 L524.3,373.5 L524.6,373.9 L526.0,374.2 L527.6,374.2 L527.6,374.6 L529.3,374.6 L530.0,375.0" fill="none" stroke="#1f77b4" stroke-width="1.7" opacity="0.85"/><circle cx="530" cy="375" r="4.5" fill="#1f77b4"/><text x="28" y="572" font-size="11" fill="#888">ground track — m from pad (N up)</text><rect x="580" y="40" width="540" height="540" fill="#fbfbfb" stroke="#ddd"/><text x="586" y="54" fill="#1f77b4" font-size="11">alt 427</text><text x="586" y="558" fill="#1f77b4" font-size="11">-64</text><path d="M833.3,481.3 L833.5,479.8 L833.7,481.4 L833.9,479.7 L834.1,479.7 L834.3,478.6 L834.5,478.6 L834.7,481.7 L834.9,479.3 L835.2,480.6 L835.4,480.3 L835.6,479.6 L835.8,476.0 L836.1,478.8 L836.3,479.3 L836.5,473.0 L836.7,478.5 L836.9,477.5 L837.1,474.2 L837.3,475.9 L837.5,470.3 L837.7,476.0 L837.9,470.9 L838.1,469.6 L838.3,469.7 L838.5,471.9 L838.7,474.5 L838.9,470.4 L839.1,464.3 L839.3,465.3 L839.5,472.7 L839.7,462.3 L839.9,458.8 L840.1,452.9 L840.3,454.5 L840.5,452.2 L840.7,452.1 L840.9,466.9 L841.1,445.0 L841.3,446.9 L841.6,438.4 L841.8,437.6 L842.0,427.4 L842.2,436.5 L842.4,462.2 L842.6,453.5 L842.8,434.1 L843.0,427.3 L843.2,438.4 L843.4,455.1 L843.6,419.8 L843.8,416.3 L844.0,421.0 L844.2,411.0 L844.4,408.5 L844.6,451.0 L844.8,430.6 L845.0,419.8 L845.2,438.9 L845.4,401.9 L845.6,394.1 L845.8,399.0 L846.0,422.1 L846.2,443.6 L846.4,377.6 L846.6,420.5 L846.9,362.0 L847.1,409.6 L847.3,420.0 L847.5,397.3 L847.7,378.6 L847.9,382.5 L848.1,398.2 L848.3,396.7 L848.5,390.4 L848.7,354.3 L848.9,339.9 L849.1,352.3 L849.3,364.8 L849.5,394.4 L849.7,407.2 L849.9,398.2 L850.2,347.5 L850.4,376.1 L850.6,315.0 L850.8,378.1 L851.0,367.7 L851.2,363.5 L851.4,365.9 L851.6,348.1 L851.8,350.2 L852.1,381.0 L852.3,346.9 L852.5,322.0 L852.7,253.0 L852.9,352.1 L853.1,333.3 L853.3,367.2 L853.5,372.4 L853.7,285.8 L853.9,243.6 L854.1,283.1 L854.3,387.6 L854.5,258.7 L854.7,231.8 L854.9,365.5 L855.1,343.2 L855.3,206.4 L855.5,363.2 L855.7,341.7 L855.9,356.3 L856.1,258.9 L856.3,198.9 L856.5,193.6 L856.8,351.7 L857.0,215.0 L857.2,283.5 L857.4,376.9 L857.6,230.2 L857.8,290.8 L858.0,317.8 L858.2,261.6 L858.4,226.0 L858.6,340.7 L858.8,243.8 L859.0,249.4 L859.2,312.3 L859.4,203.3 L859.7,370.0 L859.9,357.0 L860.1,150.1 L860.3,244.6 L860.5,243.1 L860.7,226.4 L860.9,240.0 L861.1,349.8 L861.3,273.8 L861.6,250.2 L861.8,363.1 L862.0,331.1 L862.2,235.0 L862.4,230.7 L862.6,337.5 L862.8,309.2 L863.0,306.2 L863.2,218.6 L863.4,167.4 L863.6,153.3 L863.8,183.6 L864.0,276.3 L864.2,187.0 L864.4,321.8 L864.6,268.7 L864.9,175.2 L865.1,121.8 L865.3,316.7 L865.5,155.5 L865.7,190.5 L865.9,341.7 L866.1,151.2 L866.5,272.0 L866.7,157.7 L866.9,109.5 L867.1,246.3 L867.3,291.2 L867.5,312.0 L867.7,232.0 L867.9,142.1 L868.1,256.2 L868.3,316.1 L868.5,248.9 L868.7,245.3 L868.9,339.0 L869.1,105.9 L869.3,184.5 L869.5,330.7 L869.7,346.5 L869.9,328.8 L870.1,307.2 L870.3,292.3 L870.5,336.7 L870.7,220.7 L870.9,191.5 L871.3,250.4 L871.5,196.0 L871.7,224.6 L872.0,270.1 L872.2,346.2 L872.4,207.0 L872.6,191.9 L872.8,236.3 L873.0,269.0 L873.2,249.2 L873.4,205.5 L873.6,140.6 L873.8,131.8 L874.0,99.6 L874.2,214.8 L874.4,77.1 L874.6,241.4 L874.8,146.4 L875.0,76.0 L875.2,109.9 L875.4,120.0 L875.6,328.9 L875.8,177.3 L876.2,103.3 L876.4,232.2 L876.6,294.8 L876.9,87.4 L877.1,273.4 L877.3,202.9 L877.5,162.8 L877.7,337.8 L877.9,152.0 L878.1,133.4 L878.3,92.4 L878.5,297.9 L878.7,149.8 L878.9,213.9 L879.1,200.8 L879.3,242.9 L879.5,248.5 L879.7,347.1 L879.9,271.1 L880.1,89.5 L880.3,151.7 L880.5,276.5 L880.7,184.3 L881.1,177.0 L881.3,267.7 L881.5,291.5 L881.7,325.7 L881.9,313.8 L882.1,256.3 L882.3,217.8 L882.5,131.4 L882.7,278.6 L882.9,299.6 L883.1,120.6 L883.3,326.3 L883.5,147.2 L883.7,336.1 L883.9,184.9 L884.2,341.5 L884.4,259.8 L884.6,82.8 L884.8,248.6 L885.0,280.8 L885.2,229.0 L885.4,152.7 L885.6,273.3 L886.0,234.2 L886.2,331.7 L886.4,151.0 L886.6,121.0 L886.8,300.1 L887.0,159.7 L887.2,129.9 L887.4,91.2 L887.6,328.5 L887.8,184.4 L888.0,190.1 L888.2,329.6 L888.5,191.5 L888.7,171.5 L888.9,132.7 L889.1,184.9 L889.3,325.2 L889.5,224.5 L889.7,185.7 L889.9,330.8 L890.1,240.4 L890.3,187.6 L890.5,98.8 L890.9,274.2 L891.1,210.7 L891.3,310.5 L891.5,129.5 L891.7,334.0 L891.9,260.0 L892.1,201.7 L892.3,161.6 L892.5,242.5 L892.7,278.8 L892.9,281.9 L893.1,111.3 L893.3,136.5 L893.5,174.3 L893.7,271.3 L894.0,167.2 L894.2,135.1 L894.4,242.9 L894.6,200.9 L894.8,127.6 L895.0,294.2 L895.3,119.8 L895.9,202.8 L896.2,335.0 L896.4,281.0 L896.6,104.8 L896.8,153.1 L897.0,106.8 L897.2,326.7 L897.4,309.1 L897.6,231.2 L897.8,253.6 L898.0,286.6 L898.2,329.1 L898.4,343.1 L898.6,261.5 L898.8,287.5 L899.0,203.4 L899.2,171.4 L899.4,234.5 L899.6,298.3 L899.8,324.9 L900.0,140.8 L900.2,290.8 L900.4,288.5 L901.0,265.8 L901.2,118.7 L901.4,290.8 L901.6,168.8 L901.8,220.2 L902.0,154.0 L902.2,159.2 L902.5,283.2 L902.7,131.0 L902.9,307.3 L903.1,156.2 L903.3,113.6 L903.5,252.6 L903.7,159.0 L903.9,239.3 L904.1,285.8 L904.3,197.3 L904.5,346.3 L904.7,192.7 L904.9,124.4 L905.1,205.5 L905.3,252.9 L905.5,332.5 L906.1,323.9 L906.3,250.9 L906.5,256.0 L906.7,339.1 L906.9,166.1 L907.1,126.8 L907.3,218.8 L907.5,232.5 L907.7,220.9 L907.9,272.1 L908.1,122.5 L908.4,334.0 L908.6,186.9 L908.8,323.8 L909.0,350.2 L909.2,239.8 L909.4,232.3 L909.6,191.1 L909.8,288.7 L910.0,281.3 L910.2,183.3 L910.4,172.6 L910.6,252.7 L911.2,244.9 L911.4,217.7 L911.6,308.1 L911.8,195.8 L912.0,289.7 L912.2,333.4 L912.4,233.9 L912.6,303.7 L912.9,308.1 L913.1,233.6 L913.3,340.6 L913.5,327.8 L913.7,257.8 L913.9,141.4 L914.1,238.9 L914.3,304.9 L914.5,164.1 L914.7,245.1 L914.9,240.5 L915.1,290.6 L915.3,136.4 L915.5,341.1 L915.7,365.0 L916.3,267.0 L916.5,176.1 L916.7,183.8 L916.9,160.7 L917.1,283.4 L917.3,159.3 L917.5,322.3 L917.7,158.4 L917.9,188.4 L918.1,335.8 L918.3,193.7 L918.5,142.5 L918.7,325.8 L919.0,330.3 L919.2,308.2 L919.4,255.4 L919.6,163.6 L919.8,341.2 L920.0,296.6 L920.2,324.2 L920.4,192.2 L920.6,349.8 L920.8,180.0 L921.4,150.9 L921.6,289.0 L921.8,235.0 L922.0,164.5 L922.2,266.7 L922.4,299.2 L922.6,271.6 L922.8,310.1 L923.0,254.7 L923.2,220.3 L923.4,239.9 L923.6,231.1 L923.8,254.7 L924.0,269.0 L924.2,146.0 L924.5,239.3 L924.7,190.2 L924.9,255.3 L925.1,198.4 L925.3,281.6 L925.5,159.5 L925.7,246.7 L925.9,319.2 L926.5,325.1 L926.7,172.9 L926.9,336.3 L927.1,214.4 L927.3,329.8 L927.5,300.9 L927.7,320.7 L927.9,293.2 L928.1,198.6 L928.3,244.5 L928.5,359.1 L928.7,192.8 L928.9,171.7 L929.1,210.5 L929.3,208.9 L929.5,281.1 L929.8,162.5 L930.0,222.8 L930.2,175.5 L930.4,365.0 L930.6,174.5 L930.8,258.3 L931.0,240.5 L931.6,270.6 L931.8,375.9 L932.0,266.9 L932.2,178.0 L932.4,271.4 L932.6,333.1 L932.8,222.4 L933.0,303.9 L933.2,364.9 L933.5,274.8 L933.7,374.5 L933.9,343.2 L934.1,189.8 L934.3,223.0 L934.5,245.1 L934.7,264.8 L934.9,341.6 L935.1,336.6 L935.3,203.0 L935.5,227.8 L935.7,193.0 L935.9,277.0 L936.1,336.3 L936.7,215.0 L936.9,332.6 L937.1,359.8 L937.3,363.6 L937.5,219.7 L937.7,263.3 L937.9,318.3 L938.1,216.1 L938.3,232.8 L938.5,359.4 L938.7,364.9 L938.9,315.1 L939.1,326.9 L939.3,374.8 L939.5,199.0 L939.7,282.7 L939.9,320.8 L940.1,217.9 L940.4,349.4 L940.6,334.1 L940.8,316.6 L941.0,235.4 L941.2,331.0 L941.8,377.9 L942.0,353.2 L942.2,349.4 L942.4,285.4 L942.6,307.1 L942.8,362.7 L943.0,265.4 L943.2,220.8 L943.4,210.0 L943.6,288.6 L943.8,202.5 L944.0,227.6 L944.2,376.0 L944.4,314.4 L944.6,241.5 L944.8,370.8 L945.1,246.4 L945.3,236.0 L945.5,240.9 L945.7,211.4 L945.9,293.2 L946.1,269.0 L946.3,353.0 L946.9,357.7 L947.1,271.8 L947.3,275.8 L947.5,315.6 L947.7,257.8 L947.9,299.9 L948.1,306.3 L948.3,226.4 L948.5,250.8 L948.7,331.2 L949.0,209.1 L949.2,358.4 L949.4,212.7 L949.6,371.6 L949.8,360.0 L950.0,373.1 L950.2,352.1 L950.4,253.8 L950.6,265.5 L950.8,254.0 L951.0,310.5 L951.2,378.1 L951.4,364.2 L952.0,314.0 L952.2,224.5 L952.4,308.3 L952.6,381.0 L952.8,315.5 L953.0,288.2 L953.2,362.1 L953.4,215.3 L953.7,356.1 L953.9,384.0 L954.1,392.9 L954.3,285.4 L954.5,331.2 L954.7,223.8 L954.9,296.6 L955.2,335.6 L955.4,377.6 L955.6,260.6 L955.8,326.1 L956.0,252.9 L956.2,265.1 L956.4,378.6 L956.6,222.0 L957.5,353.6 L957.7,330.0 L957.9,392.9 L958.1,325.0 L958.3,316.4 L958.5,308.0 L958.7,227.9 L958.9,386.5 L959.1,250.5 L959.3,276.2 L959.5,288.2 L959.7,334.7 L960.0,373.1 L960.2,390.8 L960.4,319.0 L960.6,346.0 L960.8,326.2 L961.0,335.0 L961.2,355.1 L961.4,311.9 L961.6,297.7 L961.8,377.1 L962.0,372.7 L963.0,269.5 L963.2,310.2 L963.4,312.2 L963.6,310.4 L963.8,334.0 L964.0,372.7 L964.2,386.3 L964.4,282.4 L964.6,272.4 L964.8,367.6 L965.0,271.5 L965.2,317.7 L965.4,271.2 L965.7,345.1 L965.9,376.5 L966.1,265.8 L966.3,391.2 L966.5,275.5 L966.7,259.6 L966.9,304.2 L967.1,260.7 L967.3,376.1 L967.5,337.4 L968.5,314.9 L968.7,253.7 L968.9,277.6 L969.1,337.8 L969.3,403.2 L969.5,281.9 L969.7,376.4 L969.9,375.3 L970.1,327.8 L970.3,285.7 L970.5,314.2 L970.7,284.2 L970.9,376.7 L971.1,369.1 L971.3,308.4 L971.5,310.4 L971.8,356.1 L972.0,302.7 L972.2,267.1 L972.4,275.6 L972.6,381.7 L972.8,407.8 L973.0,274.4 L974.0,287.5 L974.2,326.6 L974.4,315.7 L974.6,280.9 L974.8,323.0 L975.0,347.9 L975.2,382.3 L975.4,405.0 L975.6,358.5 L975.8,335.8 L976.0,355.0 L976.2,411.4 L976.4,282.9 L976.6,349.0 L976.8,311.4 L977.0,383.3 L977.2,388.0 L977.4,303.7 L977.6,307.7 L977.8,281.1 L978.0,302.3 L978.3,363.4 L978.5,343.9 L979.5,381.3 L979.7,407.7 L979.9,406.7 L980.1,311.9 L980.3,404.6 L980.5,314.2 L980.7,281.6 L980.9,322.1 L981.1,300.5 L981.3,383.8 L981.5,395.9 L981.7,369.7 L981.9,334.3 L982.1,403.2 L982.3,394.0 L982.6,337.4 L982.8,366.2 L983.0,411.1 L983.2,356.6 L983.4,376.2 L983.6,314.2 L983.8,291.6 L984.0,354.7 L985.0,329.7 L985.2,311.1 L985.4,336.0 L985.6,317.3 L985.8,323.3 L986.0,379.4 L986.2,357.2 L986.4,303.3 L986.6,345.4 L986.8,341.4 L987.0,321.3 L987.2,338.6 L987.4,419.1 L987.6,362.8 L987.8,338.2 L988.0,362.4 L988.2,359.2 L988.4,349.5 L988.6,414.4 L988.9,318.6 L989.1,316.7 L989.3,373.0 L989.5,334.2 L990.5,345.7 L990.7,410.3 L990.9,358.3 L991.1,324.2 L991.3,353.1 L991.5,415.5 L991.7,347.3 L991.9,385.3 L992.1,359.9 L992.3,351.3 L992.5,374.5 L992.7,321.9 L993.0,323.0 L993.2,370.8 L993.4,393.2 L993.6,376.2 L993.8,379.7 L994.0,387.6 L994.2,382.0 L994.4,386.3 L994.6,374.0 L994.8,405.8 L995.0,407.6 L996.0,348.7 L996.2,366.1 L996.4,419.8 L996.6,423.9 L996.8,417.9 L997.0,383.9 L997.2,397.8 L997.4,426.3 L997.6,386.7 L997.8,340.5 L998.1,336.9 L998.3,420.0 L998.5,372.7 L998.7,361.1 L998.9,327.7 L999.1,429.9 L999.3,331.4 L999.5,403.8 L999.7,373.4 L999.9,408.6 L1000.1,395.9 L1000.3,385.8 L1000.5,377.5 L1001.5,412.2 L1001.7,402.1 L1001.9,347.5 L1002.1,429.1 L1002.3,416.0 L1002.5,400.5 L1002.7,419.8 L1002.9,345.6 L1003.2,380.7 L1003.4,367.4 L1003.6,426.8 L1003.8,395.0 L1004.0,408.4 L1004.2,425.9 L1004.4,436.1 L1004.6,421.8 L1004.8,378.4 L1005.0,378.7 L1005.2,397.4 L1005.4,413.1 L1005.6,418.0 L1005.8,357.8 L1006.0,382.4 L1007.0,363.2 L1007.2,428.3 L1007.4,354.4 L1007.7,425.3 L1007.9,429.9 L1008.1,405.6 L1008.3,433.9 L1008.5,356.6 L1008.7,374.3 L1008.9,367.2 L1009.1,370.4 L1009.3,383.9 L1009.5,383.0 L1009.7,386.7 L1009.9,383.0 L1010.1,363.5 L1010.3,437.6 L1010.5,427.5 L1010.7,423.4 L1010.9,414.8 L1011.1,379.9 L1011.3,408.0 L1011.6,388.8 L1012.6,378.3 L1012.8,443.0 L1013.0,401.0 L1013.2,390.0 L1013.4,393.7 L1013.6,424.2 L1013.8,410.2 L1014.0,417.5 L1014.2,387.6 L1014.4,378.8 L1014.6,403.0 L1014.9,421.8 L1015.1,371.7 L1015.3,412.9 L1015.5,401.0 L1015.7,395.2 L1015.9,432.2 L1016.1,375.4 L1016.3,373.5 L1016.5,378.7 L1016.7,411.2 L1016.9,425.4 L1017.1,435.9 L1018.1,433.9 L1018.3,401.1 L1018.5,446.6 L1018.7,409.8 L1018.9,404.1 L1019.1,395.7 L1019.3,405.5 L1019.5,389.4 L1019.7,406.3 L1019.9,425.8 L1020.1,439.6 L1020.3,398.3 L1020.5,440.0 L1020.8,387.4 L1021.0,417.6 L1021.2,410.9 L1021.4,409.5 L1021.6,448.0 L1021.8,442.0 L1022.0,393.9 L1022.2,432.7 L1022.4,415.3 L1022.6,391.8 L1023.6,409.6 L1023.8,414.7 L1024.0,430.7 L1024.2,424.8 L1024.4,432.5 L1024.6,428.5 L1024.8,441.4 L1025.0,448.4 L1025.2,421.9 L1025.4,413.3 L1025.6,418.3 L1025.9,403.5 L1026.1,430.9 L1026.3,438.5 L1026.5,439.9 L1026.7,416.0 L1026.9,413.0 L1027.1,408.5 L1027.3,418.5 L1027.5,410.7 L1027.7,403.2 L1027.9,442.8 L1028.1,433.7 L1029.1,406.7 L1029.3,438.3 L1029.6,450.2 L1029.8,454.5 L1030.0,420.8 L1030.2,443.7 L1030.4,425.6 L1030.6,423.4 L1030.8,433.8 L1031.0,454.2 L1031.2,435.3 L1031.4,419.7 L1031.6,428.3 L1031.8,453.3 L1032.0,424.2 L1032.2,421.2 L1032.4,450.9 L1032.6,443.9 L1032.8,452.2 L1033.0,432.2 L1033.2,460.5 L1033.4,420.1 L1033.6,455.7 L1034.7,432.3 L1034.9,421.6 L1035.1,431.7 L1035.3,442.6 L1035.5,461.2 L1035.7,446.5 L1035.9,435.9 L1036.1,444.7 L1036.3,427.7 L1036.5,443.4 L1036.7,434.6 L1036.9,442.6 L1037.1,458.1 L1037.3,459.6 L1037.5,437.5 L1037.7,446.7 L1037.9,446.5 L1038.1,450.5 L1038.3,436.5 L1038.5,432.6 L1038.7,464.8 L1039.0,459.8 L1039.2,464.6 L1040.2,445.5 L1040.4,438.0 L1040.6,451.2 L1040.8,447.6 L1041.0,452.9 L1041.2,460.8 L1041.4,465.0 L1041.6,449.9 L1041.8,450.2 L1042.1,463.4 L1042.3,443.6 L1042.5,456.0 L1042.7,463.6 L1042.9,459.2 L1043.1,465.0 L1043.3,463.7 L1043.5,447.7 L1043.7,453.7 L1043.9,456.5 L1044.1,458.0 L1044.3,458.2 L1044.5,466.7 L1044.7,449.5 L1045.8,457.5 L1046.0,472.2 L1046.2,457.7 L1046.4,460.0 L1046.6,466.4 L1046.8,455.6 L1047.0,457.1 L1047.2,454.0 L1047.4,461.6 L1047.6,460.9 L1047.8,467.3 L1048.0,457.7 L1048.2,458.6 L1048.4,459.0 L1048.6,461.6 L1048.8,470.2 L1049.0,461.6 L1049.2,460.9 L1049.4,469.8 L1049.6,469.3 L1049.8,474.3 L1050.0,461.9 L1050.3,462.6 L1051.3,471.9 L1051.5,465.7 L1051.7,476.9 L1051.9,472.2 L1052.1,468.3 L1052.3,476.0 L1052.5,472.3 L1052.7,468.6 L1052.9,472.5 L1053.1,477.7 L1053.3,475.1 L1053.5,476.0 L1053.7,477.8 L1053.9,476.9 L1054.1,479.5 L1054.3,478.0 L1054.5,478.3 L1054.7,474.9 L1055.0,477.7 L1055.2,474.3 L1055.4,476.7 L1055.6,476.5 L1055.8,479.8 L1056.8,480.4 L1057.0,478.8 L1057.2,480.3 L1057.4,480.2 L1057.7,480.5 L1057.9,481.1 L1058.1,482.2 L1058.3,482.6 L1058.5,482.5 L1058.7,483.9 L1058.9,482.8 L1059.1,483.6 L1059.3,483.4 L1059.5,485.6 L1059.7,484.2 L1059.9,486.0 L1060.1,486.2 L1060.3,485.4 L1060.5,484.2 L1060.8,488.2 L1061.0,485.6 L1061.2,489.7 L1061.4,489.8 L1062.4,491.6 L1062.6,493.0 L1062.8,486.3 L1063.0,494.5 L1063.2,494.2 L1063.4,493.7 L1063.6,488.9 L1063.8,488.8 L1064.0,492.8 L1064.2,488.3 L1064.4,488.9 L1064.7,496.9 L1064.9,490.2 L1065.1,494.3 L1065.3,490.3 L1065.5,499.7 L1065.7,499.2 L1065.9,498.6 L1066.1,498.0 L1066.3,496.7 L1066.5,502.6 L1066.7,496.2 L1066.9,504.2 L1067.9,502.3 L1068.1,492.1 L1068.3,505.1 L1068.5,504.2 L1068.7,510.1 L1069.0,497.7 L1069.2,495.2 L1069.4,493.7 L1069.6,506.7 L1069.8,496.0 L1070.0,499.3 L1070.2,499.3 L1070.4,500.5 L1070.6,494.2 L1070.8,497.1 L1071.0,514.0 L1071.2,499.2 L1071.4,495.0 L1071.7,504.0 L1071.9,513.4 L1072.1,509.7 L1072.3,505.7 L1072.5,509.7 L1073.5,500.3 L1073.7,501.0 L1073.9,501.9 L1074.1,511.3 L1074.3,497.0 L1074.5,504.1 L1074.7,510.0 L1074.9,510.1 L1075.1,504.7 L1075.3,508.7 L1075.5,510.8 L1075.7,508.2 L1075.9,504.7 L1076.2,504.8 L1076.8,499.3 L1077.0,523.9 L1077.2,531.2 L1077.4,528.9 L1077.6,501.2 L1077.8,515.9 L1078.0,513.3 L1079.0,527.8 L1079.2,502.5 L1079.5,513.6 L1079.8,535.3 L1080.4,524.3 L1080.6,524.9 L1080.8,512.1 L1081.0,505.2 L1081.3,510.2 L1081.5,503.8 L1081.7,512.7 L1081.9,512.7 L1082.3,522.3 L1082.5,544.0 L1084.0,512.1" fill="none" stroke="#1f77b4" stroke-width="1.4" opacity="0.85"/><text x="1040" y="54" fill="#ff7f0e" font-size="11">roll 68</text><text x="1090" y="558" fill="#ff7f0e" font-size="11">-14</text><path d="M833.3,465.5 L833.5,464.4 L833.7,461.5 L833.9,464.4 L834.1,465.5 L834.3,466.7 L834.5,465.5 L834.7,466.7 L834.9,466.1 L835.2,463.8 L835.4,461.5 L835.6,463.8 L835.8,461.5 L836.1,463.2 L836.3,465.5 L836.5,457.5 L836.7,458.6 L836.9,462.1 L837.1,456.4 L837.3,455.2 L837.5,459.2 L837.7,463.2 L837.9,451.8 L838.1,451.8 L838.3,460.4 L838.5,457.5 L838.7,457.5 L838.9,460.4 L839.1,459.8 L839.3,452.3 L839.5,442.6 L839.7,439.2 L839.9,457.5 L840.1,438.0 L840.3,455.2 L840.5,448.3 L840.7,438.0 L840.9,430.0 L841.1,426.0 L841.3,435.7 L841.5,428.3 L841.8,424.9 L842.0,430.6 L842.2,432.3 L842.4,419.1 L842.6,416.8 L842.8,410.0 L843.0,434.6 L843.2,435.2 L843.4,395.6 L843.6,399.1 L843.8,419.1 L844.0,418.0 L844.2,412.2 L844.4,427.7 L844.6,406.5 L844.8,417.4 L845.0,408.2 L845.2,384.8 L845.4,409.4 L845.6,425.4 L845.8,403.1 L846.0,397.4 L846.2,368.7 L846.4,365.9 L846.6,405.9 L846.8,370.4 L847.0,379.0 L847.3,374.4 L847.5,385.3 L847.7,326.9 L847.9,325.2 L848.1,362.4 L848.3,385.9 L848.5,382.5 L848.7,380.7 L848.9,297.1 L849.1,335.5 L849.3,314.9 L849.5,282.8 L849.7,318.3 L849.9,273.1 L850.1,326.9 L850.4,278.8 L850.6,315.4 L850.8,395.6 L851.0,337.8 L851.2,347.5 L851.4,247.3 L851.6,387.6 L851.8,246.7 L852.1,331.5 L852.3,342.9 L852.5,319.5 L852.7,250.1 L852.9,266.8 L853.1,373.3 L853.3,369.3 L853.5,333.8 L853.7,357.3 L853.9,264.5 L854.1,285.7 L854.3,309.7 L854.5,340.6 L854.7,332.6 L854.9,204.3 L855.1,360.7 L855.3,327.5 L855.5,203.7 L855.7,364.7 L855.9,207.2 L856.1,305.7 L856.3,229.5 L856.5,167.7 L856.8,313.2 L857.0,246.1 L857.2,279.9 L857.4,299.4 L857.6,254.1 L857.8,354.4 L858.0,213.5 L858.2,221.5 L858.4,242.7 L858.6,273.1 L858.8,178.5 L859.0,258.2 L859.2,180.3 L859.4,335.5 L859.7,147.0 L859.9,149.3 L860.1,202.0 L860.3,287.4 L860.5,252.4 L860.7,199.7 L860.9,216.9 L861.1,279.4 L861.3,349.8 L861.6,307.4 L861.8,241.0 L862.0,203.2 L862.2,275.9 L862.4,142.4 L862.6,137.3 L862.8,128.7 L863.0,125.8 L863.2,152.2 L863.4,185.4 L863.6,315.4 L863.8,102.9 L864.0,119.5 L864.2,288.5 L864.4,137.9 L864.6,314.9 L864.9,314.9 L865.1,266.8 L865.3,120.1 L865.5,166.5 L865.7,261.0 L865.9,298.3 L866.1,121.3 L866.5,266.2 L866.7,331.5 L866.9,255.3 L867.1,109.8 L867.3,275.3 L867.5,76.0 L867.7,105.2 L867.9,108.7 L868.1,89.2 L868.3,255.9 L868.5,105.8 L868.7,117.8 L868.9,281.1 L869.1,333.8 L869.3,80.0 L869.5,86.3 L869.7,331.5 L869.9,76.0 L870.1,266.8 L870.3,156.8 L870.5,204.3 L870.7,298.8 L870.9,111.5 L871.3,463.8 L871.5,451.2 L871.7,443.2 L871.9,434.6 L872.2,435.2 L872.4,452.3 L872.6,436.3 L872.8,436.9 L873.0,425.4 L873.2,425.4 L873.4,434.6 L873.6,391.6 L873.8,443.2 L874.0,395.1 L874.2,434.0 L874.4,385.9 L874.6,399.6 L874.8,440.3 L875.0,402.5 L875.2,433.4 L875.4,410.5 L875.6,392.2 L875.8,388.2 L876.2,422.6 L876.4,426.0 L876.6,387.0 L876.9,399.6 L877.1,440.9 L877.3,418.6 L877.5,447.2 L877.7,436.9 L877.9,431.7 L878.1,420.3 L878.3,442.0 L878.5,445.5 L878.7,432.9 L878.9,436.3 L879.1,439.2 L879.3,418.6 L879.5,450.6 L879.7,436.9 L879.9,452.9 L880.1,454.1 L880.3,447.2 L880.5,442.6 L880.7,426.6 L881.1,405.9 L881.3,407.7 L881.5,400.2 L881.7,442.6 L881.9,447.8 L882.1,424.9 L882.3,440.9 L882.5,446.6 L882.7,446.0 L882.9,453.5 L883.1,456.4 L883.3,458.1 L883.5,462.7 L883.7,460.9 L883.9,459.8 L884.1,462.1 L884.4,462.1 L884.6,462.1 L884.8,469.0 L885.0,470.7 L885.2,465.5 L885.4,457.5 L885.6,460.9 L886.0,454.1 L886.2,454.1 L886.4,456.9 L886.6,459.8 L886.8,454.6 L887.0,452.3 L887.2,443.8 L887.4,452.9 L887.6,456.4 L887.8,459.2 L888.0,466.1 L888.2,464.9 L888.4,456.4 L888.7,463.8 L888.9,466.1 L889.1,474.1 L889.3,461.5 L889.5,463.8 L889.7,459.8 L889.9,463.8 L890.1,469.0 L890.3,467.8 L890.5,452.9 L890.9,476.4 L891.1,470.7 L891.3,460.4 L891.5,466.1 L891.7,487.9 L891.9,469.5 L892.1,469.0 L892.3,475.8 L892.5,458.1 L892.7,441.5 L892.9,459.8 L893.1,463.2 L893.3,456.9 L893.5,467.2 L893.7,463.2 L894.0,456.4 L894.2,445.5 L894.4,432.3 L894.6,443.2 L894.8,460.9 L895.0,456.9 L895.3,484.4 L895.9,434.6 L896.2,422.0 L896.4,442.6 L896.6,436.9 L896.8,436.3 L897.0,459.8 L897.2,458.1 L897.4,452.3 L897.6,438.0 L897.8,459.2 L898.0,435.2 L898.2,442.0 L898.4,446.6 L898.6,462.7 L898.8,456.4 L899.0,459.2 L899.2,458.6 L899.4,460.9 L899.6,463.8 L899.8,458.6 L900.0,455.2 L900.2,453.5 L900.4,463.2 L901.0,489.6 L901.2,482.7 L901.4,475.3 L901.6,502.8 L901.8,491.9 L902.0,479.8 L902.2,489.0 L902.4,466.1 L902.7,470.7 L902.9,478.1 L903.1,478.7 L903.3,481.6 L903.5,498.7 L903.7,468.4 L903.9,469.0 L904.1,474.1 L904.3,474.7 L904.5,487.9 L904.7,501.6 L904.9,475.8 L905.1,478.1 L905.3,493.0 L905.5,483.9 L906.1,483.9 L906.3,469.5 L906.5,481.0 L906.7,482.1 L906.9,484.4 L907.1,469.5 L907.3,470.7 L907.5,459.8 L907.7,459.8 L907.9,454.6 L908.1,447.2 L908.4,452.9 L908.6,470.7 L908.8,458.1 L909.0,456.4 L909.2,456.4 L909.4,467.8 L909.6,462.7 L909.8,466.1 L910.0,455.2 L910.2,451.8 L910.4,456.9 L910.6,459.2 L911.2,419.7 L911.4,434.0 L911.6,443.8 L911.8,423.1 L912.0,409.4 L912.2,439.7 L912.4,440.3 L912.6,444.3 L912.9,428.9 L913.1,416.3 L913.3,447.8 L913.5,454.1 L913.7,445.5 L913.9,450.1 L914.1,456.4 L914.3,458.1 L914.5,466.1 L914.7,463.8 L914.9,459.8 L915.1,469.0 L915.3,470.1 L915.5,461.5 L915.7,459.8 L916.3,420.3 L916.5,447.2 L916.7,436.9 L916.9,444.3 L917.1,455.8 L917.3,446.6 L917.5,459.8 L917.7,471.8 L917.9,458.6 L918.1,472.4 L918.3,459.2 L918.5,456.4 L918.7,454.6 L918.9,460.4 L919.2,460.4 L919.4,462.7 L919.6,457.5 L919.8,471.3 L920.0,471.3 L920.2,463.8 L920.4,483.3 L920.6,478.1 L920.8,456.9 L921.4,412.8 L921.6,447.8 L921.8,440.3 L922.0,451.8 L922.2,456.4 L922.4,463.8 L922.6,467.8 L922.8,472.4 L923.0,460.4 L923.2,472.4 L923.4,466.7 L923.6,473.0 L923.8,473.5 L924.0,456.4 L924.2,463.2 L924.5,460.4 L924.7,472.4 L924.9,478.7 L925.1,466.1 L925.3,468.4 L925.5,486.7 L925.7,477.6 L925.9,474.1 L926.5,508.5 L926.7,498.7 L926.9,486.1 L927.1,453.5 L927.3,459.2 L927.5,464.9 L927.7,460.4 L927.9,465.5 L928.1,464.4 L928.3,479.3 L928.5,482.1 L928.7,487.9 L928.9,477.6 L929.1,462.7 L929.3,467.2 L929.5,458.1 L929.8,464.9 L930.0,463.8 L930.2,463.8 L930.4,455.8 L930.6,463.2 L930.8,463.8 L931.0,465.5 L931.6,486.1 L931.8,491.3 L932.0,464.9 L932.2,483.9 L932.4,479.8 L932.6,475.8 L932.8,466.7 L933.0,467.8 L933.2,463.8 L933.4,472.4 L933.7,464.9 L933.9,470.1 L934.1,470.1 L934.3,462.7 L934.5,460.4 L934.7,454.1 L934.9,453.5 L935.1,452.9 L935.3,462.1 L935.5,466.7 L935.7,461.5 L935.9,463.8 L936.1,470.7 L936.7,502.2 L936.9,495.3 L937.1,498.2 L937.3,480.4 L937.5,487.9 L937.7,471.8 L937.9,471.8 L938.1,471.3 L938.3,475.8 L938.5,466.1 L938.7,479.3 L938.9,470.1 L939.1,467.8 L939.3,471.3 L939.5,466.1 L939.7,473.0 L939.9,474.7 L940.1,473.5 L940.4,461.5 L940.6,471.8 L940.8,464.9 L941.0,440.3 L941.2,425.4 L941.8,477.6 L942.0,464.4 L942.2,463.8 L942.4,467.8 L942.6,469.0 L942.8,469.5 L943.0,459.2 L943.2,460.4 L943.4,462.7 L943.6,449.5 L943.8,441.5 L944.0,460.4 L944.2,456.9 L944.4,453.5 L944.6,461.5 L944.8,467.8 L945.1,481.0 L945.3,485.6 L945.5,475.8 L945.7,475.8 L945.9,457.5 L946.1,463.2 L946.3,463.8 L946.9,478.1 L947.1,464.9 L947.3,470.1 L947.5,475.3 L947.7,465.5 L947.9,471.3 L948.1,469.0 L948.3,488.4 L948.5,490.2 L948.7,470.1 L949.0,479.8 L949.2,469.0 L949.4,476.4 L949.6,464.4 L949.8,462.1 L950.0,454.6 L950.2,451.2 L950.4,447.8 L950.6,460.4 L950.8,462.7 L951.0,447.2 L951.2,455.8 L951.4,456.9 L952.0,442.6 L952.2,453.5 L952.4,451.8 L952.6,450.1 L952.8,456.4 L953.0,464.4 L953.2,462.7 L953.4,461.5 L953.7,466.1 L953.9,463.8 L954.1,471.3 L954.3,478.1 L954.5,490.7 L954.7,487.9 L954.9,487.9 L955.1,477.6 L955.3,467.2 L955.6,463.8 L955.8,470.7 L956.0,463.8 L956.2,468.4 L956.4,464.4 L956.6,476.4 L957.5,421.4 L957.7,445.5 L957.9,456.4 L958.1,459.8 L958.3,451.8 L958.5,462.1 L958.7,475.3 L958.9,465.5 L959.1,458.6 L959.3,469.5 L959.5,474.1 L959.7,460.9 L960.0,460.9 L960.2,459.2 L960.4,458.6 L960.6,457.5 L960.8,464.4 L961.0,458.1 L961.2,450.1 L961.4,447.2 L961.6,454.1 L961.8,447.8 L962.0,463.2 L963.0,474.7 L963.2,470.7 L963.4,472.4 L963.6,469.5 L963.8,467.8 L964.0,469.0 L964.2,460.4 L964.4,452.9 L964.6,452.3 L964.8,459.8 L965.0,443.2 L965.2,452.3 L965.4,450.6 L965.6,440.9 L965.9,445.5 L966.1,448.3 L966.3,430.6 L966.5,451.8 L966.7,442.6 L966.9,456.9 L967.1,464.9 L967.3,467.2 L967.5,475.8 L968.5,511.9 L968.7,514.8 L968.9,485.0 L969.1,492.4 L969.3,497.6 L969.5,490.7 L969.7,485.6 L969.9,481.6 L970.1,472.4 L970.3,470.1 L970.5,465.5 L970.7,465.5 L970.9,448.9 L971.1,454.1 L971.3,452.3 L971.5,436.9 L971.8,456.9 L972.0,443.2 L972.2,452.3 L972.4,451.2 L972.6,440.9 L972.8,440.3 L973.0,436.9 L974.0,419.7 L974.2,419.1 L974.4,392.2 L974.6,444.3 L974.8,424.9 L975.0,431.2 L975.2,418.0 L975.4,421.4 L975.6,427.1 L975.8,437.5 L976.0,447.2 L976.2,450.6 L976.4,453.5 L976.6,463.2 L976.8,462.7 L977.0,477.0 L977.2,486.1 L977.4,491.3 L977.6,471.3 L977.8,501.6 L978.0,466.1 L978.3,463.2 L978.5,464.9 L979.5,496.5 L979.7,487.9 L979.9,509.1 L980.1,536.6 L980.3,509.6 L980.5,487.3 L980.7,468.4 L980.9,479.3 L981.1,472.4 L981.3,467.2 L981.5,480.4 L981.7,474.7 L981.9,487.3 L982.1,487.3 L982.3,480.4 L982.5,479.8 L982.8,465.5 L983.0,480.4 L983.2,470.1 L983.4,462.7 L983.6,460.4 L983.8,451.8 L984.0,459.2 L985.0,397.9 L985.2,430.6 L985.4,424.9 L985.6,422.6 L985.8,426.6 L986.0,443.8 L986.2,447.8 L986.4,452.3 L986.6,470.7 L986.8,464.4 L987.0,463.2 L987.2,463.2 L987.4,463.8 L987.6,455.8 L987.8,458.1 L988.0,436.9 L988.2,445.5 L988.4,438.6 L988.6,462.1 L988.9,462.1 L989.1,455.8 L989.3,460.4 L989.5,475.8 L990.5,518.8 L990.7,526.2 L990.9,496.5 L991.1,514.8 L991.3,503.3 L991.5,485.0 L991.7,469.0 L991.9,466.1 L992.1,458.1 L992.3,470.1 L992.5,471.3 L992.7,464.4 L993.0,485.0 L993.2,466.1 L993.4,475.3 L993.6,478.7 L993.8,479.8 L994.0,473.0 L994.2,469.5 L994.4,463.2 L994.6,460.9 L994.8,467.8 L995.0,455.8 L996.0,515.4 L996.2,490.2 L996.4,495.3 L996.6,506.8 L996.8,483.9 L997.0,472.4 L997.2,478.7 L997.4,474.7 L997.6,465.5 L997.8,452.9 L998.1,454.6 L998.3,460.9 L998.5,456.4 L998.7,462.1 L998.9,463.2 L999.1,450.6 L999.3,440.3 L999.5,455.8 L999.7,445.5 L999.9,442.0 L1000.1,452.3 L1000.3,445.5 L1000.5,452.9 L1001.5,427.7 L1001.7,439.2 L1001.9,400.8 L1002.1,396.2 L1002.3,443.8 L1002.5,426.6 L1002.7,450.6 L1002.9,444.3 L1003.1,448.9 L1003.4,461.5 L1003.6,450.1 L1003.8,456.9 L1004.0,441.5 L1004.2,448.9 L1004.4,443.2 L1004.6,456.9 L1004.8,460.4 L1005.0,463.2 L1005.2,452.3 L1005.4,455.2 L1005.6,455.8 L1005.8,463.8 L1006.0,468.4 L1007.0,532.0 L1007.2,486.7 L1007.4,490.2 L1007.6,483.9 L1007.9,473.0 L1008.1,464.9 L1008.3,467.2 L1008.5,468.4 L1008.7,462.1 L1008.9,458.6 L1009.1,451.8 L1009.3,455.8 L1009.5,457.5 L1009.7,461.5 L1009.9,462.1 L1010.1,454.6 L1010.3,438.6 L1010.5,452.9 L1010.7,462.1 L1010.9,457.5 L1011.1,459.2 L1011.3,463.8 L1011.6,470.1 L1012.6,486.1 L1012.8,506.8 L1013.0,472.4 L1013.2,476.4 L1013.4,469.0 L1013.6,479.8 L1013.8,486.7 L1014.0,470.7 L1014.2,498.7 L1014.4,470.1 L1014.6,470.7 L1014.9,474.7 L1015.1,485.6 L1015.3,476.4 L1015.5,477.6 L1015.7,467.8 L1015.9,474.7 L1016.1,481.0 L1016.3,473.5 L1016.5,471.3 L1016.7,478.7 L1016.9,470.1 L1017.1,462.7 L1018.1,391.1 L1018.3,436.3 L1018.5,440.9 L1018.7,444.3 L1018.9,415.1 L1019.1,447.8 L1019.3,438.6 L1019.5,462.7 L1019.7,466.7 L1019.9,474.7 L1020.1,467.8 L1020.3,464.9 L1020.5,440.9 L1020.8,448.3 L1021.0,450.1 L1021.2,447.8 L1021.4,458.1 L1021.6,469.5 L1021.8,470.7 L1022.0,479.3 L1022.2,470.1 L1022.4,468.4 L1022.6,484.4 L1023.6,493.0 L1023.8,483.9 L1024.0,473.5 L1024.2,474.7 L1024.4,489.6 L1024.6,483.3 L1024.8,475.8 L1025.0,458.1 L1025.2,459.8 L1025.4,475.8 L1025.6,477.6 L1025.9,457.5 L1026.1,462.1 L1026.3,463.2 L1026.5,469.5 L1026.7,450.6 L1026.9,461.5 L1027.1,465.5 L1027.3,464.4 L1027.5,468.4 L1027.7,462.1 L1027.9,461.5 L1028.1,458.6 L1029.1,487.3 L1029.3,544.0 L1029.5,535.4 L1029.8,489.0 L1030.0,473.5 L1030.2,493.0 L1030.4,479.8 L1030.6,478.7 L1030.8,476.4 L1031.0,477.0 L1031.2,474.7 L1031.4,465.5 L1031.6,460.4 L1031.8,444.3 L1032.0,448.9 L1032.2,444.9 L1032.4,455.2 L1032.6,451.8 L1032.8,458.1 L1033.0,431.2 L1033.2,429.4 L1033.4,439.7 L1033.6,451.8 L1034.7,406.5 L1034.9,415.1 L1035.1,405.9 L1035.3,448.9 L1035.5,443.8 L1035.7,437.5 L1035.9,447.2 L1036.1,447.8 L1036.3,429.4 L1036.5,438.0 L1036.7,444.3 L1036.9,456.9 L1037.1,461.5 L1037.3,470.1 L1037.5,459.8 L1037.7,463.2 L1037.9,446.0 L1038.1,464.9 L1038.3,475.8 L1038.5,469.0 L1038.7,468.4 L1039.0,477.0 L1039.2,474.7 L1040.2,426.6 L1040.4,430.6 L1040.6,430.6 L1040.8,449.5 L1041.0,446.0 L1041.2,446.6 L1041.4,452.3 L1041.6,449.5 L1041.8,458.6 L1042.0,454.6 L1042.3,449.5 L1042.5,459.8 L1042.7,442.6 L1042.9,445.5 L1043.1,452.3 L1043.3,433.4 L1043.5,450.1 L1043.7,455.8 L1043.9,464.9 L1044.1,469.0 L1044.3,475.8 L1044.5,478.1 L1044.7,477.0 L1045.8,512.5 L1046.0,534.8 L1046.2,516.5 L1046.4,490.7 L1046.6,487.3 L1046.8,493.0 L1047.0,491.9 L1047.2,484.4 L1047.4,479.3 L1047.6,484.4 L1047.8,492.4 L1048.0,487.3 L1048.2,491.3 L1048.4,484.4 L1048.6,509.1 L1048.8,485.0 L1049.0,472.4 L1049.2,485.0 L1049.4,483.3 L1049.6,489.0 L1049.8,466.7 L1050.0,466.7 L1050.2,481.0 L1051.3,507.9 L1051.5,518.8 L1051.7,503.3 L1051.9,473.0 L1052.1,489.0 L1052.3,473.5 L1052.5,468.4 L1052.7,469.5 L1052.9,459.8 L1053.1,459.8 L1053.3,454.6 L1053.5,461.5 L1053.7,448.9 L1053.9,433.4 L1054.1,456.9 L1054.3,441.5 L1054.5,428.9 L1054.7,443.8 L1055.0,435.7 L1055.2,422.0 L1055.4,428.3 L1055.6,425.4 L1055.8,432.3 L1056.8,458.6 L1057.0,457.5 L1057.2,464.4 L1057.4,452.9 L1057.7,434.0 L1057.9,450.6 L1058.1,420.3 L1058.3,448.9 L1058.5,451.8 L1058.7,457.5 L1058.9,458.6 L1059.1,453.5 L1059.3,455.8 L1059.5,447.8 L1059.7,458.1 L1059.9,456.9 L1060.1,456.4 L1060.3,443.8 L1060.5,458.1 L1060.7,451.2 L1061.0,463.2 L1061.2,458.6 L1061.4,470.1 L1062.4,428.9 L1062.6,446.0 L1062.8,461.5 L1063.0,459.2 L1063.2,460.9 L1063.4,473.5 L1063.6,469.5 L1063.8,471.8 L1064.0,464.9 L1064.2,455.8 L1064.4,464.4 L1064.7,464.4 L1064.9,458.1 L1065.1,450.1 L1065.3,446.6 L1065.5,462.7 L1065.7,456.9 L1065.9,447.8 L1066.1,455.2 L1066.3,436.9 L1066.5,436.9 L1066.7,438.0 L1066.9,442.6 L1067.9,511.3 L1068.1,495.3 L1068.3,479.3 L1068.5,479.3 L1068.7,484.4 L1069.0,476.4 L1069.2,515.4 L1069.4,500.5 L1069.6,489.6 L1069.8,470.7 L1070.0,464.4 L1070.2,469.5 L1070.4,464.4 L1070.6,460.9 L1070.8,461.5 L1071.0,460.4 L1071.2,454.6 L1071.4,452.9 L1071.7,446.0 L1071.9,422.0 L1072.1,447.8 L1072.3,437.5 L1072.5,454.6 L1073.5,438.0 L1073.7,403.1 L1073.9,422.6 L1074.1,449.5 L1074.3,434.0 L1074.5,452.3 L1074.7,419.7 L1074.9,454.1 L1075.1,438.6 L1075.3,436.3 L1075.5,442.6 L1075.7,432.3 L1075.9,436.3 L1076.2,448.3 L1076.8,472.4 L1077.0,466.7 L1077.2,462.1 L1077.4,463.2 L1077.6,460.9 L1077.8,479.8 L1078.0,471.3 L1079.0,515.4 L1079.2,517.1 L1079.5,488.4 L1079.7,488.4 L1080.4,448.9 L1080.6,446.6 L1080.8,465.5 L1081.0,466.7 L1081.2,459.8 L1081.5,447.8 L1081.7,455.8 L1081.9,454.6 L1082.3,433.4 L1082.5,433.4 L1083.9,456.4" fill="none" stroke="#ff7f0e" stroke-width="1.1" opacity="0.85"/><text x="616" y="572" font-size="11" fill="#888">time 0..101 s — altitude (blue) &amp; roll (orange)</text></svg>