<svg xmlns="http://www.w3.org/2000/svg" width="1140" height="600" font-family="sans-serif" font-size="13"><rect width="1140" height="600" fill="white"/><text x="20" y="26" font-size="15" fill="#333">Coludo flight</text><rect x="20" y="40" width="540" height="540" fill="#fbfbfb" stroke="#ddd"/><rect x="50" y="252" width="241" height="52" fill="#cde" stroke="#369" opacity="0.7"/><text x="50" y="247" fill="#369" font-size="12">landing zone</text><circle cx="203" cy="333" r="5" fill="black"/><text x="211" y="337" font-size="12">pad</text><path d="M203.3,333.1 L203.3,333.1 L203.3,333.1 L203.3,333.1 L203.3,333.1 L203.3,333.1 L203.3,333.1 L203.3,333.1 L203.3,333.1 L203.3,333.1 L203.3,333.1 L203.3,333.1 L203.3,333.1 L203.3,333.1 L203.3,333.1 L203.3,333.1 L203.3,333.1 L203.3,333.1 L203.3,333.1 L203.3,333.1 L203.3,333.1 L203.3,333.1 L203.3,333.1 L203.3,333.1 L203.3,333.1 L203.3,333.1 L203.3,333.1 L203.3,333.1 L203.3,333.1 L203.3,333.1 L203.3,333.1 L203.3,333.1 L203.3,333.1 L203.3,333.1 L203.3,333.1 L203.3,333.1 L203.3,333.1 L203.3,333.1 L203.3,333.1 L203.3,333.1 L203.3,333.1 L203.3,333.1 L203.3,333.1 L203.3,333.1 L203.3,333.1 L203.3,333.1 L203.3,333.1 L203.3,333.1 L203.3,333.1 L203.3,333.1 L203.3,333.1 L203.3,333.1 L203.3,333.1 L203.3,333.1 L203.3,333.1 L203.3,333.1 L203.3,333.1 L203.3,333.1 L203.3,333.1 L203.3,333.1 L203.3,333.1 L203.3,333.1 L203.3,333.1 L203.3,333.1 L203.3,333.1 L203.3,333.1 L203.3,333.1 L203.3,333.1 L203.3,333.1 L203.3,333.1 L203.3,333.1 L203.3,332.9 L203.3,332.6 L204.1,332.3 L204.1,332.0 L204.1,331.7 L204.1,331.7 L204.1,331.7 L204.6,331.4 L204.6,331.4 L205.9,331.1 L205.9,331.1 L205.9,330.8 L207.2,330.8 L207.2,330.8 L208.3,330.6 L208.3,330.6 L208.3,330.6 L208.5,330.6 L208.5,330.6 L209.8,330.3 L209.8,330.3 L211.1,330.3 L211.1,330.3 L212.4,330.3 L212.4,330.0 L212.4,330.0 L212.4,330.0 L212.4,330.0 L213.7,330.0 L213.7,330.0 L215.0,330.0 L216.3,330.0 L216.3,330.0 L216.6,330.0 L216.6,330.0 L216.6,330.0 L217.6,330.0 L218.9,330.0 L218.9,330.0 L220.2,330.0 L220.2,330.3 L220.7,330.3 L220.7,330.3 L221.5,330.3 L222.8,330.3 L222.8,330.3 L224.1,330.6 L224.1,330.6 L224.9,330.6 L224.9,330.6 L225.4,330.6 L225.4,330.6 L226.7,330.6 L226.7,330.6 L228.0,330.6 L229.0,330.6 L229.0,330.8 L229.3,330.8 L229.3,330.8 L230.6,330.8 L230.6,330.8 L231.9,330.8 L231.9,330.8 L233.2,330.8 L234.2,330.8 L234.2,331.1 L234.5,331.1 L234.5,331.1 L235.8,331.1 L235.8,331.1 L237.1,331.1 L237.1,331.4 L237.3,331.4 L237.3,331.4 L238.4,331.4 L239.7,331.4 L239.7,331.4 L241.0,331.4 L241.0,331.7 L241.5,331.7 L241.5,331.7 L242.3,331.7 L242.3,331.7 L243.6,331.7 L244.9,331.7 L244.9,331.7 L245.6,331.7 L245.6,331.7 L246.2,331.7 L246.2,331.7 L247.4,331.7 L247.4,332.0 L248.7,332.0 L250.0,332.0 L250.0,332.0 L250.8,332.0 L250.8,332.3 L251.3,332.3 L251.3,332.3 L252.6,332.3 L252.6,332.6 L253.9,332.6 L253.9,332.6 L255.0,332.6 L255.2,332.9 L255.2,332.9 L256.5,332.9 L256.5,333.1 L257.8,333.1 L257.8,333.4 L258.1,333.4 L259.1,333.4 L259.1,333.7 L260.4,333.7 L261.7,334.0 L261.7,334.0 L262.2,334.3 L262.2,334.3 L263.0,334.3 L263.0,334.6 L264.3,334.6 L265.6,334.6 L265.6,334.6 L266.4,334.9 L266.4,334.9 L266.9,334.9 L266.9,334.9 L268.2,334.9 L268.2,334.9 L269.5,335.2 L270.8,335.2 L270.8,335.2 L271.1,335.2 L272.1,335.2 L272.1,335.2 L273.4,335.2 L273.4,335.2 L273.4,335.2 L274.7,335.2 L275.7,335.2 L276.0,335.4 L276.0,335.4 L277.3,335.4 L277.3,335.4 L278.6,335.7 L278.6,335.7 L278.8,335.7 L279.9,335.7 L279.9,335.7 L281.2,336.0 L282.5,336.0 L282.5,336.0 L283.0,336.3 L283.0,336.3 L283.8,336.6 L285.1,336.6 L286.4,336.9 L286.4,336.9 L287.7,337.2 L288.7,337.2 L288.7,337.5 L289.0,337.5 L290.3,337.5 L290.3,337.5 L291.6,337.7 L291.8,337.7 L291.8,338.0 L292.9,338.0 L292.9,338.0 L294.2,338.3 L295.4,338.3 L295.4,338.3 L297.0,338.6 L296.7,338.6 L296.7,338.6 L298.0,338.6 L299.3,338.9 L299.3,338.9 L299.6,338.9 L299.6,338.9 L300.6,338.9 L300.6,338.9 L301.9,338.9 L303.2,338.9 L303.2,339.2 L303.8,339.2 L303.8,339.2 L304.5,339.2 L305.8,339.5 L305.8,339.5 L307.1,339.5 L307.1,339.8 L308.4,339.8 L308.9,340.0 L309.7,340.0 L309.7,340.3 L311.0,340.3 L311.0,340.3 L312.3,340.6 L312.6,340.6 L312.6,340.9 L313.6,340.9 L314.9,340.9 L314.9,341.2 L316.2,341.2 L316.2,341.2 L316.7,341.2 L317.5,341.2 L317.5,341.2 L318.8,341.5 L320.1,341.5 L320.1,341.5 L320.4,341.8 L320.4,341.8 L321.4,341.8 L321.4,341.8 L322.7,341.8 L324.0,342.1 L324.0,342.1 L324.5,342.1 L325.3,342.3 L325.3,342.3 L326.6,342.3 L327.9,342.3 L327.9,342.6 L329.2,342.6 L329.2,342.6 L329.7,342.9 L330.5,342.9 L331.8,343.2 L331.8,343.2 L333.1,343.2 L333.1,343.5 L333.8,343.5 L334.4,343.5 L334.4,343.5 L335.7,343.5 L337.0,343.8 L338.0,343.8 L338.0,343.8 L338.3,344.1 L339.6,344.1 L339.6,344.1 L340.9,344.1 L340.9,344.1 L342.7,344.1 L342.2,344.4 L343.4,344.4 L343.4,344.4 L343.4,344.4 L344.7,344.4 L346.0,344.6 L346.0,344.6 L346.8,344.6 L346.8,344.6 L348.6,344.9 L348.6,344.9 L349.9,344.9 L349.9,344.9 L351.0,344.9 L351.0,344.9 L351.2,344.9 L351.2,345.2 L352.5,345.2 L353.8,345.2 L354.6,345.2 L354.6,345.2 L355.1,345.2 L355.1,345.2 L356.4,345.2 L356.4,345.2 L357.7,345.2 L357.7,345.2 L359.0,345.5 L359.0,345.5 L360.3,345.5 L360.3,345.5 L361.6,345.5 L362.9,345.8 L362.9,345.8 L362.9,345.8 L362.9,345.8 L365.5,346.1 L365.5,346.1 L366.8,346.1 L366.8,346.1 L366.5,346.4 L368.1,346.4 L368.1,346.7 L369.4,346.7 L369.4,346.7 L371.7,346.9 L371.7,346.9 L372.0,346.9 L372.0,346.9 L373.3,347.2 L374.6,347.2 L374.6,347.2 L374.8,347.2 L374.8,347.2 L377.2,347.5 L377.2,347.5 L378.5,347.8 L379.5,347.8 L379.5,348.1 L379.8,348.1 L379.8,348.4 L381.1,348.4 L382.4,348.7 L383.7,349.0 L383.7,349.2 L385.0,349.2 L385.0,349.2 L386.3,349.2 L387.6,349.2 L387.6,349.5 L387.8,349.5 L387.8,349.5 L390.2,350.1 L391.4,350.1 L391.4,350.4 L392.5,350.4 L392.5,350.7 L392.7,350.7 L394.0,351.0 L394.0,351.0 L395.3,351.3 L396.6,351.5 L396.6,351.8 L397.9,351.8 L399.2,352.1 L399.2,352.1 L400.8,352.1 L400.8,352.4 L400.5,352.4 L401.8,352.7 L401.8,352.7 L403.1,353.0 L404.4,353.0 L404.4,353.3 L404.4,353.3 L405.7,353.3 L405.7,353.6 L407.0,353.6 L408.3,353.8 L408.3,353.8 L409.6,354.4 L410.9,354.4 L410.9,354.7 L412.2,354.7 L412.2,355.0 L412.7,355.0 L413.5,355.3 L413.5,355.3 L414.8,355.3 L414.8,355.6 L416.4,355.6 L416.4,355.6 L417.4,355.9 L418.7,355.9 L418.7,356.1 L420.0,356.1 L420.5,356.4 L420.5,356.4 L421.3,356.7 L422.6,357.0 L423.9,357.0 L423.9,357.3 L425.2,357.3 L426.2,357.6 L426.2,357.6 L426.5,357.9 L427.8,358.2 L427.8,358.2 L429.3,358.7 L430.4,359.0 L430.4,359.0 L431.7,359.3 L433.0,359.6 L433.0,359.6 L433.5,359.9 L434.3,359.9 L434.3,360.2 L436.9,360.5 L437.6,360.5 L437.6,360.7 L438.2,360.7 L439.4,361.0 L439.4,361.0 L440.7,361.0 L440.7,361.0 L442.0,361.3 L442.8,361.3 L443.3,361.3 L443.3,361.3 L444.6,361.3 L444.6,361.3 L445.9,361.3 L445.9,361.3 L447.0,361.3 L447.2,361.3 L448.5,361.3 L448.5,361.6 L449.8,361.6 L450.6,361.6 L450.6,361.6 L451.1,361.9 L451.1,361.9 L452.4,361.9 L453.7,361.9 L454.8,362.2 L454.8,362.2 L455.0,362.2 L456.3,362.2 L456.3,362.2 L457.6,362.2 L457.6,362.2 L458.4,362.2 L458.4,362.2 L458.9,362.5 L460.2,362.2 L460.2,362.2 L461.5,362.2 L461.5,362.2 L462.8,362.2 L462.8,362.2 L463.6,362.2 L463.6,362.2 L464.1,362.2 L465.4,361.9 L465.4,361.9 L466.7,361.9 L466.7,361.9 L467.7,361.9 L467.7,361.9 L467.7,361.9 L468.0,361.9 L469.3,361.9 L470.6,361.6 L470.6,361.6 L470.6,361.6 L470.3,361.6 L471.9,361.6 L471.9,361.6 L471.9,361.6 L473.2,361.6 L474.5,361.3 L475.5,361.3 L475.5,361.6 L475.8,361.6 L475.8,361.6 L477.1,361.6 L477.1,361.6 L478.4,361.6 L479.7,361.9 L480.2,361.9 L480.2,361.9 L481.0,361.9 L481.0,361.9 L482.3,361.9 L483.6,362.2 L483.6,362.2 L484.3,362.2 L484.3,362.2 L486.2,362.5 L486.2,362.5 L487.4,362.5 L487.4,362.5 L488.5,362.5 L488.5,362.8 L488.7,362.8 L488.7,362.8 L490.0,362.8 L491.6,363.0 L491.6,363.0 L492.6,363.3 L492.6,363.3 L493.9,363.6 L495.2,363.6 L495.2,363.9 L496.3,363.9 L496.5,364.2 L497.8,364.5 L499.1,364.5 L500.4,364.8 L500.4,364.8 L500.9,364.8 L500.9,364.8 L501.7,365.1 L501.7,365.1 L503.0,365.1 L504.3,365.1 L505.1,365.3 L505.1,365.3 L505.6,365.3 L506.9,365.3 L506.9,365.6 L508.2,365.6 L508.2,365.6 L509.2,365.9 L509.5,365.9 L510.8,366.2 L512.1,366.2 L512.1,366.2 L512.4,366.2 L512.4,366.5 L513.4,366.5 L514.7,366.5 L514.7,366.8 L517.3,366.8 L517.3,367.1 L517.5,367.1 L517.5,367.1 L518.6,367.1 L519.9,367.1 L519.9,367.1 L521.2,367.1 L521.7,367.4 L522.5,367.4 L522.5,367.4 L523.8,367.4 L523.8,367.6 L525.1,367.6 L525.1,367.6 L525.8,367.6 L526.4,367.6 L526.4,367.6 L527.7,367.6 L529.0,367.9 L530.0,367.9" fill="none" stroke="#1f77b4" stroke-width="1.7" opacity="0.85"/><circle cx="530" cy="368" r="4.5" fill="#1f77b4"/><text x="28" y="572" font-size="11" fill="#888">ground track — m from pad (N up)</text><rect x="580" y="40" width="540" height="540" fill="#fbfbfb" stroke="#ddd"/><text x="586" y="54" fill="#1f77b4" font-size="11">alt 476</text><text x="586" y="558" fill="#1f77b4" font-size="11">-100</text><path d="M641.0,460.9 L641.3,460.8 L641.6,460.9 L641.9,460.1 L642.2,459.6 L642.4,461.0 L642.7,460.3 L643.0,459.1 L643.3,459.9 L643.6,460.3 L643.9,458.6 L644.3,459.1 L644.6,459.8 L644.9,455.5 L645.2,452.9 L645.4,457.3 L645.7,458.6 L646.0,458.5 L646.3,449.0 L646.6,452.4 L646.9,457.1 L647.2,445.7 L647.5,448.9 L647.8,453.1 L648.1,441.5 L648.4,438.5 L648.7,440.7 L649.0,451.9 L649.3,436.2 L649.6,433.5 L649.8,446.5 L650.1,431.4 L650.4,423.5 L650.7,436.4 L651.0,436.6 L651.3,441.4 L651.6,413.2 L651.9,415.3 L652.2,419.7 L652.5,406.0 L652.8,407.1 L653.1,408.7 L653.4,403.5 L653.7,397.8 L654.0,407.4 L654.3,394.8 L654.6,399.6 L654.9,401.1 L655.2,409.8 L655.5,420.5 L655.8,411.4 L656.1,368.2 L656.4,399.2 L656.7,398.0 L656.9,363.8 L657.2,371.0 L657.5,349.7 L657.8,400.5 L658.1,418.8 L658.4,364.9 L658.8,395.5 L659.1,396.4 L659.4,401.8 L659.7,376.1 L660.0,350.2 L660.3,385.5 L660.6,344.9 L660.9,304.5 L661.1,349.1 L661.4,399.9 L661.7,330.8 L662.0,298.6 L662.3,313.9 L662.6,397.1 L662.9,382.6 L663.2,362.9 L663.5,304.6 L663.8,265.8 L664.1,316.9 L664.4,355.3 L664.7,307.8 L665.0,379.5 L665.2,245.3 L665.6,334.0 L665.8,294.2 L666.1,292.5 L666.4,366.1 L666.7,285.5 L667.0,342.9 L667.3,291.3 L667.6,332.4 L667.9,299.2 L668.2,321.9 L668.5,313.9 L668.8,237.8 L669.1,326.8 L669.4,369.1 L669.7,352.3 L670.0,327.4 L670.3,369.0 L670.6,295.6 L670.9,192.4 L671.2,300.3 L671.4,261.1 L671.7,321.3 L672.0,277.8 L672.3,171.2 L672.6,183.6 L672.9,313.2 L673.2,214.6 L673.5,221.4 L673.8,247.9 L674.1,232.8 L674.4,189.7 L674.7,326.5 L675.0,192.9 L675.3,272.7 L675.6,261.1 L675.9,250.4 L676.2,347.0 L676.5,149.1 L676.8,307.7 L677.1,246.2 L677.4,181.1 L677.7,241.9 L678.0,239.9 L678.3,266.7 L678.6,281.0 L678.8,281.9 L679.1,159.8 L679.4,280.0 L679.7,285.0 L680.0,123.0 L680.3,336.1 L680.6,185.0 L680.9,292.4 L681.2,282.3 L681.5,129.7 L681.8,294.4 L682.1,217.7 L682.4,117.1 L682.7,223.6 L683.0,96.8 L683.3,334.0 L683.6,101.8 L683.9,140.4 L684.2,184.4 L684.5,200.9 L684.8,152.4 L685.1,296.5 L685.4,277.5 L685.7,117.5 L686.0,184.1 L686.3,147.2 L686.6,176.2 L686.9,246.9 L687.2,196.3 L687.5,327.2 L687.8,171.1 L688.1,232.2 L688.4,124.6 L688.7,282.6 L689.0,243.8 L689.3,79.4 L689.6,107.3 L689.9,100.4 L690.2,173.6 L690.5,234.9 L690.8,114.8 L691.1,295.7 L691.4,142.7 L691.7,101.6 L692.0,180.2 L692.3,241.4 L692.6,268.5 L692.9,126.9 L693.2,132.5 L693.5,304.7 L693.8,87.7 L694.1,287.7 L694.4,310.5 L694.6,221.2 L694.9,178.6 L695.2,223.8 L695.5,215.1 L695.8,316.1 L696.1,311.0 L696.4,278.7 L696.7,266.0 L697.0,78.6 L697.3,116.5 L697.6,76.0 L697.9,298.7 L698.2,205.0 L698.4,191.8 L698.8,113.7 L699.1,311.4 L699.3,192.6 L699.7,177.2 L700.0,320.1 L700.3,298.4 L700.5,186.2 L700.8,208.8 L701.1,181.1 L701.4,214.4 L701.7,268.4 L702.0,236.7 L702.3,144.8 L702.6,230.9 L702.9,87.9 L703.2,95.6 L703.5,175.7 L703.8,164.7 L704.1,150.9 L704.4,118.3 L704.7,92.0 L704.9,246.8 L705.2,298.4 L705.5,279.9 L705.8,193.0 L706.1,110.6 L706.4,315.7 L706.7,252.7 L707.0,309.2 L707.3,262.4 L707.7,230.0 L707.9,327.2 L708.2,158.3 L708.5,177.9 L708.8,96.9 L709.1,282.4 L709.4,246.2 L709.7,311.1 L710.0,168.1 L710.3,304.1 L710.6,326.0 L710.9,308.6 L711.2,119.7 L711.5,268.1 L711.8,307.8 L712.0,115.0 L712.3,307.8 L712.6,260.7 L712.9,190.8 L713.2,148.5 L713.5,229.9 L713.9,231.5 L714.2,129.0 L714.5,204.8 L714.8,188.5 L715.1,191.9 L715.4,329.8 L715.7,164.2 L716.0,255.0 L716.3,175.6 L716.5,99.9 L716.8,172.9 L717.1,301.1 L717.4,191.6 L717.7,105.2 L718.0,302.6 L718.3,298.5 L718.6,132.5 L718.9,242.4 L719.2,305.2 L719.5,302.0 L720.1,273.3 L720.4,169.8 L720.7,307.3 L721.0,311.9 L721.3,212.7 L721.6,102.5 L721.9,202.7 L722.2,210.8 L722.5,171.8 L722.8,328.6 L723.1,181.2 L723.4,196.9 L723.6,152.5 L723.9,139.0 L724.2,271.1 L724.5,279.5 L724.8,244.6 L725.1,217.7 L725.4,171.4 L725.7,158.9 L726.3,242.6 L726.6,280.2 L726.9,339.4 L727.2,220.0 L727.5,128.7 L727.8,324.1 L728.1,215.5 L728.4,296.4 L728.7,106.0 L729.0,281.1 L729.3,316.6 L729.6,101.9 L729.9,230.9 L730.2,297.9 L730.5,196.2 L730.8,336.1 L731.0,229.6 L731.3,109.4 L731.6,335.8 L731.9,149.1 L732.2,228.1 L732.6,204.1 L732.9,129.9 L733.2,128.6 L733.5,127.8 L733.8,173.8 L734.1,289.1 L734.4,251.9 L734.7,232.5 L735.0,274.3 L735.2,193.7 L735.5,233.5 L735.8,243.2 L736.1,328.3 L736.4,153.8 L736.7,341.4 L737.0,242.3 L737.3,275.6 L737.6,152.6 L737.9,161.5 L738.2,247.5 L738.8,200.0 L739.1,277.5 L739.4,246.1 L739.6,149.9 L740.0,234.0 L740.2,241.2 L740.6,178.4 L740.9,126.0 L741.2,227.7 L741.4,153.1 L741.7,189.4 L742.0,218.0 L742.3,117.1 L742.6,259.0 L742.9,272.7 L743.2,307.9 L743.5,286.5 L743.8,328.2 L744.1,259.7 L744.4,329.8 L744.7,129.4 L745.0,343.3 L745.3,274.8 L745.6,251.5 L745.9,341.7 L746.2,273.3 L746.5,192.7 L746.8,310.9 L747.1,140.6 L747.4,243.8 L747.7,184.9 L748.0,324.9 L748.3,229.2 L748.6,195.2 L748.9,231.5 L749.2,171.2 L749.5,243.6 L749.8,342.5 L750.1,146.6 L750.4,257.6 L750.6,216.3 L751.5,262.8 L751.8,224.9 L752.1,298.3 L752.4,206.8 L752.6,208.1 L752.9,201.6 L753.2,150.1 L753.5,298.5 L753.8,184.7 L754.1,167.1 L754.4,214.2 L754.8,228.9 L755.0,303.0 L755.3,320.8 L755.6,200.2 L755.9,154.7 L756.2,145.3 L756.5,221.6 L756.8,168.4 L757.1,255.0 L757.4,314.8 L758.0,203.9 L758.3,333.9 L758.6,226.4 L758.9,324.2 L759.2,179.9 L759.5,237.2 L759.8,307.6 L760.1,215.1 L760.3,206.2 L760.6,164.7 L760.9,253.2 L761.2,300.8 L761.5,205.9 L761.9,198.6 L762.1,218.2 L762.5,326.1 L762.8,213.9 L763.0,280.8 L763.3,260.9 L763.6,320.2 L764.4,278.7 L764.7,272.4 L765.0,318.9 L765.3,254.5 L765.6,243.1 L765.9,334.7 L766.2,154.7 L766.5,246.0 L766.8,177.6 L767.1,279.7 L767.4,336.2 L767.7,178.0 L768.0,331.7 L768.3,263.9 L768.6,324.3 L768.9,352.1 L769.2,265.3 L769.5,203.1 L769.8,352.2 L770.1,232.6 L770.9,173.4 L771.2,198.7 L771.5,176.0 L771.8,262.7 L772.1,282.1 L772.4,215.0 L772.7,323.8 L773.0,275.3 L773.2,260.0 L773.5,341.6 L773.8,348.3 L774.1,204.8 L774.4,165.8 L774.7,265.7 L775.0,315.1 L775.3,162.2 L775.6,294.1 L775.9,184.8 L776.2,204.5 L776.5,322.8 L776.8,285.9 L777.4,339.8 L777.7,288.1 L778.0,363.5 L778.3,175.4 L778.6,276.5 L778.9,357.1 L779.2,299.7 L779.5,287.6 L779.8,332.4 L780.1,341.8 L780.4,195.3 L780.7,195.1 L780.9,212.1 L781.2,256.2 L781.5,360.1 L781.8,291.3 L782.1,255.2 L782.4,181.1 L782.7,332.0 L783.0,210.2 L783.3,238.0 L783.9,329.2 L784.2,244.7 L784.5,310.1 L784.8,352.7 L785.1,221.6 L785.4,328.2 L785.7,206.8 L786.0,284.6 L786.3,271.3 L786.6,216.7 L786.9,240.5 L787.2,251.9 L787.5,213.4 L787.7,294.0 L788.0,310.7 L788.3,239.8 L788.6,200.5 L788.9,205.9 L789.2,326.5 L789.5,314.2 L789.8,337.1 L790.5,321.7 L790.7,346.4 L791.0,309.1 L791.3,233.6 L791.6,292.2 L791.9,301.7 L792.2,286.9 L792.5,203.0 L792.8,290.0 L793.1,218.0 L793.4,361.8 L793.7,289.6 L794.0,318.0 L794.3,240.6 L794.6,240.6 L794.8,369.5 L795.1,332.8 L795.4,253.1 L795.7,284.4 L796.0,244.1 L796.9,293.7 L797.2,281.8 L797.5,348.3 L797.8,237.1 L798.1,319.5 L798.3,226.2 L798.6,204.1 L798.9,265.2 L799.3,221.0 L799.5,331.0 L799.9,329.7 L800.1,373.1 L800.4,244.6 L800.8,204.1 L801.0,256.6 L801.3,327.5 L801.6,311.1 L801.9,337.5 L802.2,320.9 L802.5,290.1 L802.8,293.5 L803.4,225.4 L803.7,352.9 L804.0,318.3 L804.3,330.5 L804.6,216.4 L804.9,231.2 L805.2,236.3 L805.5,234.3 L805.8,259.7 L806.0,261.2 L806.3,271.2 L806.6,282.9 L806.9,255.1 L807.2,353.6 L807.5,312.3 L807.8,272.3 L808.1,344.8 L808.4,315.4 L808.7,272.3 L809.0,365.5 L809.3,264.6 L809.9,313.9 L810.2,273.8 L810.5,258.5 L810.8,316.8 L811.1,325.7 L811.4,336.0 L811.7,366.5 L812.0,314.6 L812.3,318.1 L812.6,242.7 L812.9,267.4 L813.2,265.1 L813.5,374.5 L813.8,336.6 L814.1,361.5 L814.4,262.3 L814.7,239.2 L815.0,343.2 L815.3,291.0 L815.6,273.1 L816.4,298.8 L816.7,346.0 L817.0,330.8 L817.3,331.0 L817.6,281.3 L817.9,314.0 L818.2,234.5 L818.5,236.8 L818.8,343.8 L819.1,337.2 L819.4,293.5 L819.6,351.6 L819.9,371.9 L820.2,254.5 L820.5,376.3 L820.8,356.2 L821.2,329.0 L821.4,349.7 L821.8,313.9 L822.0,255.4 L822.9,295.0 L823.2,309.8 L823.5,272.6 L823.8,244.3 L824.1,386.1 L824.4,311.9 L824.7,296.3 L825.0,387.5 L825.3,242.7 L825.6,285.0 L825.9,362.1 L826.2,273.3 L826.5,331.2 L826.7,347.1 L827.0,337.8 L827.3,369.7 L827.6,271.5 L827.9,355.7 L828.2,282.2 L828.5,273.9 L829.4,313.7 L829.7,276.1 L830.0,314.6 L830.3,344.9 L830.6,297.1 L830.9,327.3 L831.2,305.2 L831.5,370.3 L831.8,379.8 L832.1,327.3 L832.4,302.1 L832.7,275.3 L833.0,319.2 L833.3,365.9 L833.6,335.3 L833.9,264.7 L834.1,312.0 L834.4,352.4 L834.7,351.2 L835.0,321.2 L835.9,358.7 L836.2,389.4 L836.5,309.7 L836.8,317.8 L837.1,385.3 L837.4,299.4 L837.7,313.0 L838.0,304.8 L838.3,305.8 L838.6,341.6 L838.9,346.7 L839.2,309.0 L839.5,353.5 L839.8,284.8 L840.1,289.1 L840.4,295.9 L840.7,391.3 L841.0,326.9 L841.3,372.3 L841.5,396.8 L842.4,358.9 L842.7,309.1 L843.0,329.9 L843.3,274.2 L843.6,282.3 L843.9,378.2 L844.2,377.9 L844.5,370.4 L844.8,373.8 L845.1,278.3 L845.4,315.4 L845.7,287.5 L846.0,347.9 L846.3,319.1 L846.6,293.8 L846.9,359.8 L847.2,283.3 L847.5,370.3 L847.8,290.9 L848.1,323.3 L848.4,388.5 L849.0,283.3 L849.3,372.6 L849.6,365.0 L849.9,350.2 L850.2,358.9 L850.5,299.6 L850.8,401.8 L851.1,332.6 L851.4,341.0 L851.7,317.6 L852.0,324.5 L852.3,368.9 L852.6,295.0 L852.9,357.2 L853.2,349.5 L853.4,298.8 L853.8,299.3 L854.1,361.9 L854.4,347.3 L854.7,327.0 L856.0,325.9 L856.2,296.6 L856.5,375.9 L856.8,379.3 L857.1,361.1 L857.4,346.8 L857.7,380.4 L858.0,357.6 L858.3,362.5 L858.6,336.5 L858.9,303.9 L859.2,365.0 L859.5,372.2 L859.8,403.1 L860.1,358.5 L860.4,376.1 L860.7,394.1 L861.0,398.8 L861.3,348.0 L861.6,309.3 L861.8,314.1 L863.0,409.3 L863.3,350.1 L863.6,364.7 L863.9,364.2 L864.2,358.3 L864.5,370.9 L864.7,356.7 L865.0,352.2 L865.3,395.9 L865.7,331.2 L865.9,399.0 L866.3,331.8 L866.5,407.9 L866.9,379.0 L867.1,364.3 L867.4,379.0 L867.7,320.8 L868.0,398.7 L868.3,341.6 L868.6,390.4 L870.0,411.7 L870.3,407.9 L870.6,331.8 L870.9,365.2 L871.1,362.2 L871.4,377.8 L871.7,412.1 L872.0,351.3 L872.3,369.7 L872.6,362.7 L872.9,342.5 L873.3,329.5 L873.5,355.4 L873.8,359.2 L874.1,392.0 L874.4,415.3 L874.7,335.8 L875.0,359.9 L875.3,358.0 L875.6,357.7 L875.9,385.4 L877.0,350.5 L877.3,415.7 L877.6,339.6 L877.9,398.5 L878.2,340.7 L878.5,351.1 L878.8,412.9 L879.1,394.0 L879.4,353.2 L879.7,359.1 L880.0,412.7 L880.3,345.2 L880.6,378.5 L880.9,361.4 L881.2,342.2 L881.4,397.5 L881.8,344.6 L882.0,347.5 L882.4,397.6 L882.6,370.1 L884.0,369.2 L884.3,399.3 L884.6,365.6 L884.9,412.6 L885.2,406.3 L885.5,383.0 L885.8,414.1 L886.1,352.8 L886.4,392.4 L886.7,404.1 L887.0,367.8 L887.2,357.6 L887.6,383.0 L887.9,399.1 L888.2,408.0 L888.4,389.7 L888.7,382.2 L889.1,416.4 L889.4,408.4 L889.6,416.1 L889.9,389.1 L891.1,363.6 L891.4,369.5 L891.7,415.2 L892.0,406.4 L892.3,369.9 L892.6,423.0 L892.9,420.9 L893.2,414.0 L893.5,398.7 L893.8,385.5 L894.1,412.8 L894.3,417.6 L894.6,376.4 L894.9,385.7 L895.2,388.8 L895.5,420.8 L895.8,374.1 L896.1,387.2 L896.4,385.2 L896.7,374.6 L898.1,383.5 L898.4,384.8 L898.7,402.2 L899.0,432.2 L899.3,389.0 L899.6,417.0 L899.9,391.6 L900.2,378.8 L900.4,413.3 L900.7,399.2 L901.0,413.8 L901.3,390.0 L901.6,377.5 L901.9,400.9 L902.2,389.1 L902.5,388.1 L902.8,380.6 L903.1,405.8 L903.4,402.5 L903.7,415.1 L904.0,408.9 L905.2,387.8 L905.5,385.1 L905.8,420.1 L906.1,407.0 L906.4,396.8 L906.7,429.6 L907.0,407.0 L907.2,403.2 L907.5,424.0 L907.8,431.2 L908.1,420.7 L908.4,418.9 L908.7,400.9 L909.0,413.3 L909.3,396.2 L909.6,438.8 L909.9,416.0 L910.2,396.6 L910.5,440.1 L910.8,394.0 L912.2,415.3 L912.5,421.1 L912.8,399.0 L913.1,430.9 L913.3,426.0 L913.6,410.8 L913.9,419.3 L914.3,434.8 L914.5,440.3 L914.8,417.3 L915.1,421.2 L915.5,442.4 L915.7,414.2 L916.0,417.6 L916.3,414.2 L916.6,425.6 L916.9,416.2 L917.2,405.2 L917.5,422.6 L917.8,443.6 L918.1,432.6 L919.3,434.5 L919.6,440.8 L919.8,421.7 L920.1,434.2 L920.5,414.5 L920.8,413.7 L921.1,414.2 L921.4,438.2 L921.7,430.2 L921.9,435.4 L922.3,423.4 L922.6,444.5 L922.8,441.5 L923.1,426.5 L923.4,430.6 L923.7,441.5 L924.0,443.9 L924.3,422.3 L924.6,439.0 L924.9,426.4 L926.3,422.1 L926.6,425.8 L926.9,438.0 L927.2,424.2 L927.5,423.7 L927.8,426.2 L928.1,446.1 L928.4,445.9 L928.7,436.4 L928.9,428.0 L929.2,441.5 L929.5,446.8 L929.8,427.9 L930.1,444.5 L930.4,437.4 L930.7,447.2 L931.0,434.0 L931.3,444.9 L931.6,433.9 L931.9,437.4 L932.2,434.8 L933.4,442.9 L933.7,448.3 L934.0,441.4 L934.3,448.4 L934.6,438.1 L934.9,443.6 L935.2,443.3 L935.5,442.7 L935.8,453.0 L936.1,449.1 L936.4,443.5 L936.7,449.4 L937.0,446.5 L937.2,451.5 L937.5,450.8 L937.8,442.4 L938.1,443.5 L938.4,453.2 L938.7,451.3 L939.0,454.0 L940.4,453.7 L940.7,448.7 L941.0,447.1 L941.3,451.0 L941.6,448.6 L941.9,456.2 L942.2,448.8 L942.5,451.0 L942.8,457.9 L943.1,458.0 L943.3,454.9 L943.6,451.9 L943.9,456.5 L944.2,454.5 L944.5,457.2 L944.8,458.8 L945.2,454.5 L945.5,459.1 L945.8,456.9 L946.1,460.0 L947.4,459.3 L947.7,459.8 L948.0,460.6 L948.3,460.4 L948.6,460.9 L948.9,461.9 L949.2,462.7 L949.5,462.6 L949.8,462.5 L950.1,463.1 L950.4,463.4 L950.7,464.4 L951.0,463.7 L951.3,464.3 L951.6,463.6 L951.9,463.9 L952.2,466.9 L952.5,467.3 L952.8,467.5 L953.1,465.7 L954.5,469.3 L954.8,471.1 L955.1,466.9 L955.4,468.3 L955.7,467.2 L956.0,472.8 L956.2,471.9 L956.5,472.6 L956.9,475.2 L957.2,472.8 L957.4,472.4 L957.8,474.4 L958.0,471.1 L958.4,468.5 L958.6,469.0 L959.0,470.5 L959.2,479.2 L959.5,480.2 L959.8,472.7 L960.1,477.8 L961.5,480.9 L961.8,477.9 L962.1,476.2 L962.4,478.0 L962.7,477.4 L963.0,484.2 L963.3,474.7 L963.6,478.2 L963.9,477.9 L964.2,472.3 L964.5,488.6 L964.8,476.6 L965.1,484.5 L965.4,488.4 L965.7,488.0 L966.0,481.6 L966.3,473.6 L966.6,476.3 L966.8,483.1 L967.1,490.2 L968.6,484.1 L968.9,477.3 L969.2,496.4 L969.4,498.1 L969.7,495.5 L970.0,490.9 L970.3,482.7 L970.6,486.2 L970.9,499.6 L971.2,475.8 L971.5,487.9 L971.8,478.4 L972.1,479.5 L972.4,495.8 L972.7,481.4 L973.0,486.0 L973.3,477.4 L973.6,486.9 L973.9,501.7 L974.2,483.1 L975.6,478.0 L975.9,485.7 L976.2,479.0 L976.5,510.6 L976.8,507.1 L977.1,497.8 L977.4,488.6 L977.7,481.9 L978.0,509.9 L978.3,494.1 L978.6,498.6 L978.9,510.6 L979.2,496.1 L979.5,513.9 L979.8,496.2 L980.1,515.6 L980.4,489.9 L980.6,487.6 L981.0,488.1 L981.2,482.0 L982.7,505.5 L982.9,484.7 L983.2,496.8 L983.5,516.3 L983.8,512.8 L984.1,515.8 L984.4,489.5 L984.7,491.4 L985.0,521.5 L985.4,509.5 L985.7,497.6 L986.0,514.0 L986.3,504.6 L986.6,528.0 L986.8,525.2 L987.1,530.2 L987.4,488.4 L987.7,503.9 L988.0,511.7 L988.3,507.4 L989.7,532.0 L990.0,496.3 L990.3,497.0 L990.6,533.8 L990.9,524.5 L991.2,515.9 L991.5,515.2 L991.8,514.9 L992.1,495.4 L992.4,501.2 L992.7,501.3 L993.0,515.9 L993.3,505.7 L993.6,538.8 L993.8,516.2 L994.2,493.0 L994.5,507.0 L994.7,518.3 L995.0,493.2 L995.3,533.7 L995.6,492.0 L996.8,531.8 L997.1,519.6 L997.4,542.1 L997.7,495.0 L998.0,543.0 L998.3,511.8 L998.6,530.8 L998.9,512.6 L999.2,495.5 L999.5,514.5 L999.8,527.7 L1000.1,516.2 L1000.4,503.5 L1000.6,544.0 L1001.0,496.0 L1001.2,504.1 L1001.6,530.4 L1001.8,537.7 L1002.2,509.2 L1002.4,498.0 L1003.9,524.2 L1004.2,504.6 L1004.4,511.2 L1004.7,500.7 L1005.0,513.2 L1005.3,528.7 L1005.6,544.0 L1005.9,530.0 L1006.2,508.8 L1006.5,534.0 L1006.8,531.1 L1007.0,533.2 L1007.4,544.0 L1007.6,531.2 L1008.0,506.2 L1008.2,536.2 L1008.5,544.0 L1008.8,544.0 L1009.1,525.1 L1009.4,539.1 L1009.7,544.0 L1010.9,544.0 L1011.2,544.0 L1011.5,512.9 L1011.8,544.0 L1012.1,542.1 L1012.4,544.0 L1012.7,544.0 L1013.0,515.4 L1013.3,544.0 L1013.6,544.0 L1013.9,541.1 L1014.2,544.0 L1014.5,544.0 L1014.8,519.6 L1015.1,544.0 L1015.4,535.1 L1015.7,542.9 L1016.0,538.2 L1016.3,519.3 L1016.6,544.0 L1018.0,530.5 L1018.3,544.0 L1018.6,544.0 L1018.9,525.7 L1019.2,544.0 L1019.5,544.0 L1019.8,526.4 L1020.1,544.0 L1020.4,515.8 L1020.6,518.3 L1021.0,538.1 L1021.2,544.0 L1021.5,523.8 L1021.9,544.0 L1022.1,521.0 L1022.4,544.0 L1022.8,508.9 L1023.0,541.9 L1023.3,509.3 L1023.6,530.7 L1023.9,544.0 L1025.2,511.5 L1025.4,531.5 L1025.7,544.0 L1026.0,509.7 L1026.3,544.0 L1026.6,544.0 L1026.9,544.0 L1027.2,522.2 L1027.5,544.0 L1027.8,544.0 L1028.1,544.0 L1028.3,544.0 L1028.7,544.0 L1029.0,544.0 L1029.3,544.0 L1029.6,525.1 L1029.9,527.7 L1030.2,544.0 L1030.5,544.0 L1030.8,544.0 L1032.2,544.0 L1032.5,527.7 L1032.8,544.0 L1033.1,544.0 L1033.4,519.1 L1033.7,544.0 L1034.0,534.3 L1034.4,537.8 L1034.7,544.0 L1034.9,544.0 L1035.2,523.8 L1035.5,544.0 L1035.8,519.7 L1036.1,544.0 L1036.4,518.0 L1036.7,544.0 L1037.0,534.1 L1037.3,544.0 L1037.6,535.3 L1037.9,544.0 L1039.3,544.0 L1039.7,544.0 L1039.9,544.0 L1040.2,544.0 L1040.6,544.0 L1040.8,544.0 L1041.2,544.0 L1041.4,544.0 L1041.7,544.0 L1042.0,544.0 L1042.3,544.0 L1042.6,544.0 L1042.9,544.0 L1043.2,544.0 L1043.5,544.0 L1043.8,544.0 L1044.1,544.0 L1044.4,544.0 L1044.7,539.5 L1045.0,544.0 L1046.4,540.9 L1046.7,534.3 L1047.0,544.0 L1047.3,544.0 L1047.6,539.6 L1047.9,544.0 L1048.2,544.0 L1048.5,544.0 L1048.8,544.0 L1049.1,544.0 L1049.3,544.0 L1049.6,544.0 L1049.9,542.4 L1050.2,544.0 L1050.5,543.4 L1050.8,544.0 L1051.1,544.0 L1051.4,544.0 L1051.7,544.0 L1052.0,544.0 L1052.3,544.0 L1053.5,544.0 L1053.8,544.0 L1054.1,540.7 L1054.4,544.0 L1054.7,544.0 L1055.0,544.0 L1055.3,544.0 L1055.6,535.0 L1056.0,533.3 L1056.2,544.0 L1056.5,544.0 L1056.8,544.0 L1057.1,544.0 L1057.4,544.0 L1057.7,544.0 L1058.0,544.0 L1058.3,544.0 L1058.6,544.0 L1058.9,544.0 L1059.2,531.6 L1060.6,544.0 L1060.9,544.0 L1061.2,544.0 L1061.5,544.0 L1061.8,544.0 L1062.1,544.0 L1062.4,544.0 L1062.7,544.0 L1063.0,538.0 L1063.3,544.0 L1063.6,544.0 L1063.8,544.0 L1064.1,544.0 L1064.4,544.0 L1064.7,544.0 L1065.0,544.0 L1065.3,544.0 L1065.6,544.0 L1065.9,544.0 L1066.2,544.0 L1067.7,537.9 L1068.0,544.0 L1068.3,544.0 L1068.6,544.0 L1068.9,544.0 L1069.2,544.0 L1069.5,544.0 L1069.8,544.0 L1070.1,544.0 L1070.4,544.0 L1070.7,544.0 L1070.9,544.0 L1071.2,544.0 L1071.5,544.0 L1071.8,544.0 L1072.1,544.0 L1072.4,542.3 L1072.7,544.0 L1073.5,544.0 L1074.8,544.0 L1075.1,544.0 L1075.4,544.0 L1075.7,544.0 L1076.0,544.0 L1076.3,544.0 L1076.6,544.0 L1076.9,544.0 L1077.2,544.0 L1077.5,544.0 L1077.8,544.0 L1078.1,544.0 L1078.8,544.0 L1079.1,544.0 L1079.4,544.0 L1079.7,544.0 L1080.0,544.0 L1080.3,544.0 L1080.5,544.0 L1081.9,544.0 L1082.2,544.0 L1082.8,544.0 L1083.1,544.0 L1083.8,544.0" fill="none" stroke="#1f77b4" stroke-width="1.4" opacity="0.85"/><text x="1040" y="54" fill="#ff7f0e" font-size="11">roll 76</text><text x="1090" y="558" fill="#ff7f0e" font-size="11">-14</text><path d="M641.0,472.4 L641.3,473.4 L641.6,473.9 L641.9,470.8 L642.1,470.8 L642.4,470.3 L642.7,473.4 L643.0,469.7 L643.3,471.3 L643.6,468.7 L643.9,473.4 L644.3,470.8 L644.6,470.8 L644.9,471.3 L645.1,466.6 L645.4,466.6 L645.7,467.7 L646.0,464.0 L646.3,461.9 L646.6,470.8 L646.9,460.3 L647.2,470.8 L647.5,455.6 L647.8,468.2 L648.1,456.2 L648.4,453.5 L648.7,452.0 L649.0,447.8 L649.3,449.4 L649.6,464.0 L649.8,464.5 L650.1,460.3 L650.4,443.6 L650.7,447.8 L651.0,457.7 L651.3,458.8 L651.6,445.7 L651.9,438.4 L652.2,421.6 L652.5,426.3 L652.8,439.9 L653.1,453.0 L653.4,415.9 L653.7,423.7 L654.0,413.3 L654.3,413.3 L654.6,401.8 L654.9,400.7 L655.2,406.0 L655.5,418.5 L655.8,438.9 L656.1,402.3 L656.4,377.7 L656.6,402.3 L656.9,411.7 L657.2,398.1 L657.5,402.8 L657.8,399.7 L658.1,347.9 L658.4,379.3 L658.8,374.1 L659.1,327.5 L659.4,355.2 L659.7,419.0 L660.0,397.6 L660.3,379.3 L660.6,307.6 L660.9,386.1 L661.1,368.3 L661.4,368.3 L661.7,408.6 L662.0,387.1 L662.3,390.3 L662.6,332.2 L662.9,281.0 L663.2,276.3 L663.5,335.4 L663.8,376.7 L664.1,356.8 L664.4,284.1 L664.7,384.0 L665.0,315.5 L665.2,234.4 L665.6,347.9 L665.8,275.7 L666.1,328.6 L666.4,233.4 L666.7,320.7 L667.0,255.4 L667.3,359.4 L667.6,347.4 L667.9,308.2 L668.2,202.0 L668.5,199.9 L668.8,283.1 L669.1,306.6 L669.4,248.0 L669.7,239.1 L670.0,243.3 L670.3,261.1 L670.6,201.0 L670.9,366.7 L671.1,297.7 L671.4,205.7 L671.7,335.4 L672.0,165.9 L672.3,287.8 L672.6,364.1 L672.9,259.0 L673.2,219.8 L673.5,286.7 L673.8,236.5 L674.1,344.3 L674.4,333.3 L674.7,217.2 L675.0,227.6 L675.3,356.8 L675.6,203.6 L675.9,261.6 L676.2,307.1 L676.5,253.8 L676.8,170.1 L677.1,123.6 L677.4,204.1 L677.7,266.3 L678.0,198.4 L678.3,343.2 L678.6,199.9 L678.8,104.2 L679.1,172.7 L679.4,293.0 L679.7,290.9 L680.0,103.7 L680.3,172.7 L680.6,344.3 L680.9,119.4 L681.2,153.4 L681.5,331.2 L681.8,234.4 L682.1,312.4 L682.4,218.2 L682.7,129.3 L683.0,276.3 L683.3,176.9 L683.6,110.0 L683.9,109.5 L684.2,216.7 L684.5,101.6 L684.8,168.0 L685.1,82.8 L685.4,187.9 L685.7,208.8 L686.0,214.0 L686.3,296.7 L686.6,80.2 L686.9,181.6 L687.2,135.1 L687.5,76.0 L687.8,220.8 L688.1,281.0 L688.4,153.9 L688.7,139.3 L689.0,471.8 L689.3,467.1 L689.6,452.5 L689.9,463.5 L690.2,442.0 L690.5,431.6 L690.8,442.6 L691.1,438.9 L691.4,442.6 L691.7,411.7 L692.0,441.0 L692.3,412.8 L692.6,449.9 L692.9,403.9 L693.2,401.8 L693.5,419.0 L693.8,427.9 L694.1,441.0 L694.4,431.6 L694.6,446.7 L694.9,448.8 L695.2,437.9 L695.5,451.4 L695.8,411.7 L696.1,438.9 L696.4,445.2 L696.7,424.3 L697.0,425.8 L697.3,435.2 L697.6,446.7 L697.9,445.2 L698.1,437.3 L698.4,440.5 L698.8,450.4 L699.1,452.0 L699.3,465.0 L699.7,464.5 L700.0,470.3 L700.3,459.8 L700.5,470.8 L700.8,461.4 L701.1,460.3 L701.4,462.9 L701.7,471.8 L702.0,470.3 L702.3,468.2 L702.6,455.6 L702.9,475.0 L703.2,470.8 L703.5,471.8 L703.8,467.7 L704.1,465.6 L704.4,469.2 L704.6,472.4 L704.9,469.2 L705.2,460.9 L705.5,469.2 L705.8,465.0 L706.1,463.5 L706.4,462.4 L706.7,462.9 L707.0,456.2 L707.3,461.4 L707.7,426.9 L707.9,442.0 L708.2,456.2 L708.5,458.8 L708.8,473.9 L709.1,468.7 L709.4,473.4 L709.7,464.0 L710.0,464.5 L710.3,462.4 L710.6,463.5 L710.9,465.0 L711.2,461.4 L711.5,459.8 L711.8,464.5 L712.0,463.5 L712.3,456.2 L712.6,445.7 L712.9,461.9 L713.2,460.9 L713.5,468.7 L713.9,468.7 L714.2,461.4 L714.5,462.9 L714.8,453.0 L715.1,453.0 L715.4,454.1 L715.7,447.3 L716.0,444.6 L716.2,471.3 L716.5,464.0 L716.8,450.4 L717.1,466.1 L717.4,455.6 L717.7,453.5 L718.0,471.8 L718.3,475.5 L718.6,483.3 L718.9,487.5 L719.2,491.2 L719.5,504.8 L720.1,490.7 L720.4,482.8 L720.7,490.1 L721.0,473.4 L721.3,476.5 L721.6,477.1 L721.9,476.5 L722.2,473.9 L722.5,470.8 L722.8,455.1 L723.1,453.5 L723.4,467.7 L723.6,469.7 L723.9,473.4 L724.2,474.5 L724.5,473.4 L724.8,467.7 L725.1,466.6 L725.4,470.8 L725.7,488.6 L726.3,466.6 L726.6,455.6 L726.9,461.9 L727.2,454.6 L727.5,459.8 L727.8,461.4 L728.1,480.2 L728.4,478.6 L728.7,471.3 L729.0,480.7 L729.3,479.7 L729.6,485.4 L729.9,484.9 L730.2,487.5 L730.5,475.0 L730.7,469.7 L731.0,456.2 L731.3,458.2 L731.6,467.1 L731.9,463.5 L732.2,453.0 L732.6,482.3 L732.9,473.4 L733.2,477.6 L733.5,478.1 L733.8,466.6 L734.1,461.9 L734.4,462.9 L734.7,465.0 L735.0,458.2 L735.2,468.2 L735.5,472.9 L735.8,469.7 L736.1,473.4 L736.4,469.7 L736.7,471.3 L737.0,470.8 L737.3,470.8 L737.6,466.6 L737.9,467.1 L738.2,458.8 L738.8,479.2 L739.1,491.2 L739.4,493.3 L739.6,492.8 L740.0,473.9 L740.2,469.7 L740.6,469.7 L740.9,469.2 L741.1,469.7 L741.4,471.3 L741.7,475.0 L742.0,477.6 L742.3,476.5 L742.6,484.9 L742.9,465.6 L743.2,458.8 L743.5,462.9 L743.8,460.9 L744.1,454.1 L744.4,447.8 L744.7,460.9 L745.0,471.3 L745.3,476.5 L745.6,473.4 L745.9,483.3 L746.2,479.7 L746.5,478.1 L746.8,462.4 L747.1,470.3 L747.4,476.5 L747.7,477.1 L748.0,477.1 L748.3,472.9 L748.6,468.7 L748.9,460.9 L749.2,474.5 L749.5,475.5 L749.8,470.8 L750.0,461.4 L750.4,476.0 L750.6,472.9 L751.5,474.5 L751.8,471.3 L752.1,478.1 L752.4,453.5 L752.6,457.7 L752.9,448.8 L753.2,448.3 L753.5,446.2 L753.8,459.3 L754.1,456.2 L754.4,468.2 L754.8,470.3 L755.0,471.3 L755.3,477.6 L755.6,470.8 L755.9,460.3 L756.2,467.1 L756.5,464.5 L756.8,469.2 L757.1,461.9 L757.4,459.3 L758.0,461.4 L758.3,468.2 L758.6,469.2 L758.9,469.2 L759.2,459.3 L759.5,466.6 L759.8,476.5 L760.1,460.3 L760.3,468.2 L760.6,448.8 L760.9,464.5 L761.2,440.5 L761.5,462.4 L761.9,466.1 L762.1,462.9 L762.5,467.1 L762.8,465.6 L763.0,465.6 L763.3,465.0 L763.6,476.0 L764.4,458.2 L764.7,450.9 L765.0,448.8 L765.3,457.2 L765.6,462.4 L765.9,448.8 L766.2,456.7 L766.5,464.0 L766.8,476.5 L767.1,489.1 L767.4,479.7 L767.7,492.2 L768.0,487.0 L768.3,499.6 L768.6,500.1 L768.9,509.5 L769.2,506.9 L769.5,503.7 L769.8,506.4 L770.1,486.0 L770.9,489.1 L771.2,482.3 L771.5,498.0 L771.8,475.5 L772.1,473.4 L772.4,475.0 L772.7,483.3 L772.9,493.8 L773.2,480.2 L773.5,469.7 L773.8,472.9 L774.1,477.6 L774.4,484.4 L774.7,475.5 L775.0,478.6 L775.3,480.7 L775.6,470.3 L775.9,487.5 L776.2,474.5 L776.5,476.0 L776.8,470.8 L777.4,506.4 L777.7,486.5 L778.0,491.2 L778.3,480.7 L778.6,472.9 L778.9,486.5 L779.2,479.2 L779.5,481.3 L779.8,499.0 L780.1,490.7 L780.4,478.1 L780.7,480.7 L780.9,494.8 L781.2,476.0 L781.5,469.7 L781.8,461.4 L782.1,464.0 L782.4,462.4 L782.7,463.5 L783.0,457.2 L783.3,461.9 L783.9,445.2 L784.2,431.6 L784.5,450.4 L784.8,441.5 L785.1,441.5 L785.4,435.8 L785.7,462.9 L786.0,449.4 L786.3,450.9 L786.6,464.0 L786.9,467.1 L787.2,488.0 L787.4,484.9 L787.7,475.5 L788.0,479.7 L788.3,489.6 L788.6,492.8 L788.9,477.1 L789.2,481.8 L789.5,484.9 L789.8,479.2 L790.4,441.0 L790.7,450.4 L791.0,442.0 L791.3,444.6 L791.6,439.4 L791.9,452.0 L792.2,442.6 L792.5,466.6 L792.8,469.7 L793.1,463.5 L793.4,434.7 L793.7,443.1 L794.0,465.6 L794.3,455.6 L794.6,454.6 L794.8,455.6 L795.1,468.2 L795.4,473.9 L795.7,477.6 L796.0,474.5 L796.9,458.2 L797.2,458.2 L797.5,444.1 L797.8,464.5 L798.1,462.9 L798.3,465.0 L798.6,458.2 L798.9,461.4 L799.3,465.0 L799.5,464.0 L799.9,464.5 L800.1,472.9 L800.4,473.9 L800.7,486.0 L801.0,480.2 L801.3,481.8 L801.6,478.6 L801.9,477.1 L802.2,509.0 L802.5,490.7 L802.8,479.7 L803.4,498.0 L803.7,478.1 L804.0,471.3 L804.3,470.8 L804.6,490.1 L804.9,475.0 L805.2,482.3 L805.5,486.0 L805.8,501.6 L806.0,486.0 L806.3,488.6 L806.6,482.8 L806.9,481.8 L807.2,477.1 L807.5,499.6 L807.8,477.6 L808.1,471.8 L808.4,477.1 L808.7,481.8 L809.0,481.3 L809.3,467.7 L809.9,483.9 L810.2,495.9 L810.5,491.7 L810.8,486.5 L811.1,480.2 L811.4,482.8 L811.7,494.3 L812.0,497.5 L812.3,487.0 L812.6,501.6 L812.9,502.2 L813.2,482.3 L813.5,486.5 L813.8,481.3 L814.1,484.4 L814.4,465.6 L814.7,465.0 L815.0,444.1 L815.3,432.6 L815.6,442.6 L816.4,411.2 L816.7,415.4 L817.0,420.1 L817.3,445.2 L817.6,440.5 L817.9,422.2 L818.2,456.2 L818.5,460.3 L818.8,463.5 L819.1,470.8 L819.4,475.5 L819.6,486.5 L819.9,466.1 L820.2,452.0 L820.5,464.0 L820.8,469.7 L821.2,451.4 L821.4,470.3 L821.8,478.6 L822.0,488.6 L822.9,439.4 L823.2,448.8 L823.5,435.2 L823.8,462.9 L824.1,448.3 L824.4,437.9 L824.7,453.5 L825.0,454.1 L825.3,472.9 L825.6,477.6 L825.9,477.6 L826.2,491.2 L826.5,513.1 L826.7,501.6 L827.0,513.1 L827.3,515.2 L827.6,481.3 L827.9,478.1 L828.2,483.3 L828.5,476.0 L829.4,494.8 L829.7,495.9 L830.0,494.3 L830.3,503.7 L830.6,503.2 L830.9,481.3 L831.2,488.0 L831.5,506.9 L831.8,491.7 L832.1,480.7 L832.4,469.2 L832.7,457.2 L833.0,456.7 L833.3,458.8 L833.6,448.3 L833.9,454.1 L834.1,466.6 L834.4,467.7 L834.7,455.6 L835.0,456.2 L835.9,480.7 L836.2,486.5 L836.5,478.1 L836.8,469.2 L837.1,480.7 L837.4,481.8 L837.7,477.1 L838.0,480.7 L838.3,479.7 L838.6,474.5 L838.9,477.6 L839.2,478.6 L839.5,470.8 L839.8,467.1 L840.1,464.5 L840.4,459.8 L840.7,460.3 L841.0,456.7 L841.2,480.2 L841.5,479.7 L842.4,445.7 L842.7,457.7 L843.0,465.6 L843.3,469.2 L843.6,466.6 L843.9,464.0 L844.2,457.7 L844.5,461.9 L844.8,475.5 L845.1,474.5 L845.4,474.5 L845.7,476.5 L846.0,477.6 L846.3,476.0 L846.6,472.4 L846.9,467.1 L847.2,470.3 L847.5,458.8 L847.8,459.8 L848.1,468.2 L848.4,472.9 L849.0,467.7 L849.3,464.5 L849.6,471.8 L849.9,455.1 L850.2,464.5 L850.5,447.3 L850.8,452.0 L851.1,466.1 L851.4,453.5 L851.7,441.5 L852.0,468.2 L852.3,468.2 L852.6,470.8 L852.9,482.3 L853.1,478.1 L853.4,484.4 L853.8,472.9 L854.1,479.2 L854.4,492.2 L854.7,491.2 L856.0,519.4 L856.2,543.5 L856.5,514.2 L856.8,541.4 L857.1,504.3 L857.4,496.9 L857.7,487.0 L858.0,478.1 L858.3,484.4 L858.6,470.3 L858.9,466.1 L859.2,460.9 L859.5,455.1 L859.8,462.4 L860.1,455.1 L860.4,461.4 L860.7,456.2 L861.0,448.3 L861.3,467.1 L861.5,468.7 L861.8,447.3 L863.0,487.5 L863.3,489.6 L863.6,495.4 L863.9,496.4 L864.2,476.5 L864.4,467.7 L864.7,466.6 L865.0,455.1 L865.3,448.3 L865.7,469.7 L865.9,462.4 L866.3,467.7 L866.5,459.3 L866.9,457.2 L867.1,466.1 L867.4,438.4 L867.7,436.8 L868.0,462.4 L868.3,467.1 L868.6,478.6 L870.0,507.4 L870.3,487.5 L870.6,511.1 L870.9,487.5 L871.1,487.5 L871.4,490.1 L871.7,477.6 L872.0,476.5 L872.3,471.3 L872.6,479.2 L872.9,478.1 L873.3,466.1 L873.5,459.3 L873.8,457.2 L874.1,466.1 L874.4,439.4 L874.7,448.8 L875.0,466.1 L875.3,473.9 L875.6,478.6 L875.9,491.2 L877.0,529.9 L877.3,503.7 L877.6,495.4 L877.9,504.3 L878.2,477.1 L878.5,479.7 L878.8,460.9 L879.1,467.7 L879.4,454.6 L879.7,461.4 L880.0,444.6 L880.3,461.4 L880.6,456.7 L880.9,464.0 L881.2,457.7 L881.4,463.5 L881.8,475.0 L882.0,480.2 L882.4,473.9 L882.6,470.8 L884.0,441.5 L884.3,424.3 L884.6,457.7 L884.9,460.3 L885.2,462.9 L885.5,460.3 L885.8,454.6 L886.1,466.6 L886.4,470.8 L886.7,467.7 L886.9,470.3 L887.2,454.1 L887.6,470.8 L887.9,475.0 L888.2,483.9 L888.4,486.0 L888.7,490.7 L889.1,481.8 L889.3,482.3 L889.6,494.3 L889.9,483.3 L891.1,441.0 L891.4,419.5 L891.7,451.4 L892.0,442.6 L892.3,453.5 L892.6,443.1 L892.9,460.3 L893.2,443.1 L893.5,458.8 L893.8,451.4 L894.1,473.4 L894.3,474.5 L894.6,477.6 L894.9,481.8 L895.2,472.4 L895.5,469.2 L895.8,478.6 L896.1,484.9 L896.4,489.1 L896.7,484.4 L898.1,525.2 L898.4,490.1 L898.7,488.6 L899.0,515.8 L899.3,496.9 L899.6,480.7 L899.9,468.7 L900.1,456.7 L900.4,464.5 L900.7,467.1 L901.0,467.1 L901.3,471.3 L901.6,461.4 L901.9,478.1 L902.2,467.1 L902.5,455.6 L902.8,459.8 L903.1,459.8 L903.4,438.4 L903.7,456.2 L904.0,457.2 L905.2,400.2 L905.5,442.6 L905.8,443.1 L906.1,418.0 L906.4,423.2 L906.7,431.6 L907.0,460.9 L907.2,468.2 L907.5,492.2 L907.8,489.6 L908.1,499.6 L908.4,481.8 L908.7,479.2 L909.0,466.1 L909.3,467.1 L909.6,464.5 L909.9,442.0 L910.2,456.2 L910.5,449.9 L910.8,459.8 L912.2,504.3 L912.5,501.6 L912.8,505.8 L913.1,483.9 L913.3,480.2 L913.6,471.3 L913.9,467.1 L914.3,473.4 L914.5,476.0 L914.8,466.6 L915.1,471.8 L915.4,477.1 L915.7,468.2 L916.0,470.8 L916.3,480.2 L916.6,475.5 L916.9,484.9 L917.2,477.6 L917.5,473.4 L917.8,471.8 L918.1,473.9 L919.3,437.9 L919.5,449.9 L919.8,455.1 L920.1,462.9 L920.5,442.0 L920.8,451.4 L921.1,462.9 L921.4,464.5 L921.7,468.7 L921.9,473.4 L922.3,472.9 L922.6,472.9 L922.8,474.5 L923.1,471.3 L923.4,473.4 L923.7,472.9 L924.0,472.9 L924.3,468.7 L924.6,469.7 L924.9,450.9 L926.3,492.2 L926.6,524.1 L926.9,495.4 L927.2,493.8 L927.5,517.9 L927.8,499.6 L928.1,483.9 L928.4,480.7 L928.6,470.3 L928.9,470.3 L929.2,478.6 L929.5,477.1 L929.8,472.9 L930.1,470.3 L930.4,479.7 L930.7,482.3 L931.0,487.0 L931.3,483.9 L931.6,481.8 L931.9,487.5 L932.2,483.9 L933.4,467.7 L933.7,461.4 L934.0,467.7 L934.3,456.2 L934.6,470.8 L934.9,460.9 L935.2,461.9 L935.5,471.8 L935.8,471.8 L936.1,464.0 L936.4,456.7 L936.7,468.7 L937.0,467.7 L937.2,465.0 L937.5,464.5 L937.8,439.4 L938.1,455.1 L938.4,452.0 L938.7,451.4 L939.0,463.5 L940.4,472.9 L940.7,477.1 L941.0,474.5 L941.3,481.8 L941.6,490.7 L941.9,484.9 L942.2,481.3 L942.5,479.2 L942.8,479.7 L943.0,478.6 L943.3,473.4 L943.6,478.6 L943.9,471.8 L944.2,467.1 L944.5,464.0 L944.8,464.5 L945.2,442.6 L945.5,468.2 L945.8,478.1 L946.0,473.9 L947.4,467.7 L947.7,464.0 L948.0,462.9 L948.3,458.2 L948.6,467.1 L948.9,467.7 L949.2,482.8 L949.5,477.6 L949.8,480.2 L950.1,489.6 L950.4,513.1 L950.7,513.1 L951.0,487.5 L951.3,502.2 L951.6,489.6 L951.9,491.7 L952.2,478.1 L952.5,494.8 L952.8,480.7 L953.0,477.6 L954.5,447.3 L954.8,445.7 L955.1,439.4 L955.4,454.6 L955.7,442.6 L956.0,442.6 L956.2,443.1 L956.5,463.5 L956.9,457.7 L957.2,468.2 L957.4,471.3 L957.8,465.6 L958.0,453.5 L958.4,459.8 L958.6,474.5 L959.0,478.1 L959.2,473.4 L959.5,463.5 L959.8,471.8 L960.1,481.3 L961.5,455.1 L961.8,460.3 L962.1,456.7 L962.4,459.8 L962.7,471.8 L963.0,477.1 L963.3,479.2 L963.6,481.8 L963.9,496.9 L964.2,488.0 L964.5,512.6 L964.8,515.2 L965.1,483.3 L965.4,483.3 L965.7,500.1 L966.0,483.9 L966.2,503.2 L966.6,488.6 L966.8,487.0 L967.1,500.1 L968.6,469.2 L968.9,462.4 L969.1,454.6 L969.4,475.5 L969.7,492.8 L970.0,503.7 L970.3,505.8 L970.6,489.1 L970.9,504.8 L971.2,492.2 L971.5,487.5 L971.8,509.5 L972.1,483.9 L972.4,500.1 L972.7,494.3 L973.0,489.1 L973.3,488.0 L973.6,472.4 L973.9,462.9 L974.2,450.4 L975.6,514.7 L975.9,515.2 L976.2,498.5 L976.5,498.0 L976.8,478.1 L977.1,477.6 L977.4,484.4 L977.7,485.4 L978.0,487.0 L978.3,483.3 L978.6,480.2 L978.9,475.0 L979.2,488.0 L979.5,488.0 L979.8,471.3 L980.0,471.8 L980.4,470.3 L980.6,469.7 L981.0,456.7 L981.2,462.4 L982.7,417.5 L982.9,421.1 L983.2,452.5 L983.5,456.2 L983.8,456.7 L984.1,462.9 L984.4,456.2 L984.7,459.3 L985.0,450.9 L985.3,456.2 L985.7,469.2 L986.0,474.5 L986.3,464.5 L986.5,471.8 L986.8,482.3 L987.1,470.8 L987.4,464.0 L987.7,460.9 L988.0,476.0 L988.3,473.4 L989.7,540.3 L990.0,533.0 L990.3,493.8 L990.6,492.8 L990.9,499.0 L991.2,496.4 L991.5,505.3 L991.8,487.0 L992.1,479.7 L992.4,484.9 L992.7,482.8 L993.0,479.7 L993.2,473.4 L993.6,458.2 L993.8,466.6 L994.2,471.8 L994.5,472.9 L994.7,470.3 L995.0,459.3 L995.3,466.6 L995.6,467.7 L996.8,513.7 L997.1,526.2 L997.4,516.8 L997.7,527.3 L998.0,496.4 L998.3,489.6 L998.6,470.8 L998.9,470.3 L999.2,468.2 L999.5,465.0 L999.8,467.1 L1000.1,469.2 L1000.4,453.5 L1000.6,468.7 L1001.0,476.0 L1001.2,472.4 L1001.6,494.3 L1001.8,483.9 L1002.2,492.8 L1002.4,475.0 L1003.9,490.7 L1004.2,490.1 L1004.4,493.3 L1004.7,487.5 L1005.0,493.3 L1005.3,492.2 L1005.6,472.9 L1005.9,456.7 L1006.2,460.9 L1006.5,464.5 L1006.8,449.9 L1007.0,457.2 L1007.4,452.5 L1007.6,461.4 L1008.0,450.9 L1008.2,447.8 L1008.5,448.8 L1008.8,454.1 L1009.1,462.9 L1009.4,467.7 L1009.7,472.9 L1010.9,505.8 L1011.2,512.6 L1011.5,505.3 L1011.8,501.1 L1012.1,483.9 L1012.4,475.0 L1012.7,473.9 L1013.0,470.8 L1013.3,464.0 L1013.6,465.6 L1013.9,469.2 L1014.2,469.2 L1014.5,454.6 L1014.8,462.9 L1015.1,462.9 L1015.4,448.8 L1015.7,443.1 L1016.0,448.8 L1016.3,462.4 L1016.6,473.9 L1018.0,450.4 L1018.3,448.8 L1018.6,416.9 L1018.9,423.2 L1019.2,412.2 L1019.5,439.9 L1019.8,451.4 L1020.1,458.8 L1020.4,444.6 L1020.6,461.4 L1021.0,433.1 L1021.2,454.1 L1021.5,465.0 L1021.9,466.6 L1022.1,475.0 L1022.4,481.8 L1022.8,481.8 L1023.0,493.8 L1023.3,481.3 L1023.6,497.5 L1023.9,498.0 L1025.2,465.0 L1025.4,462.9 L1025.7,470.3 L1026.0,464.0 L1026.3,467.1 L1026.6,457.2 L1026.9,458.8 L1027.2,469.2 L1027.5,466.1 L1027.8,453.5 L1028.1,454.6 L1028.3,463.5 L1028.7,451.4 L1029.0,473.9 L1029.3,478.1 L1029.6,477.1 L1029.9,467.1 L1030.2,467.1 L1030.5,459.8 L1030.8,465.6 L1032.2,475.5 L1032.5,476.5 L1032.8,490.1 L1033.1,485.4 L1033.4,472.4 L1033.7,478.1 L1034.0,491.7 L1034.4,482.8 L1034.6,472.9 L1034.9,471.3 L1035.2,475.5 L1035.5,463.5 L1035.8,460.3 L1036.1,459.3 L1036.4,465.0 L1036.7,470.3 L1037.0,468.7 L1037.3,458.2 L1037.6,465.6 L1037.9,464.0 L1039.3,391.3 L1039.7,413.3 L1039.9,418.0 L1040.2,457.7 L1040.6,457.2 L1040.8,440.5 L1041.2,453.5 L1041.4,456.2 L1041.7,447.8 L1042.0,458.8 L1042.3,450.4 L1042.6,462.4 L1042.9,468.7 L1043.2,458.2 L1043.5,461.4 L1043.8,470.8 L1044.1,480.7 L1044.4,484.4 L1044.7,495.9 L1045.0,486.0 L1046.4,544.0 L1046.7,529.9 L1047.0,493.8 L1047.3,513.1 L1047.6,481.8 L1047.9,502.7 L1048.2,493.8 L1048.5,521.0 L1048.8,503.2 L1049.0,489.1 L1049.3,514.2 L1049.6,499.0 L1049.9,477.6 L1050.2,476.0 L1050.5,499.0 L1050.8,488.6 L1051.1,471.8 L1051.4,471.3 L1051.7,479.2 L1052.0,475.5 L1052.3,473.9 L1053.5,436.3 L1053.8,418.0 L1054.1,426.9 L1054.4,452.5 L1054.7,449.4 L1055.0,456.7 L1055.3,473.9 L1055.6,463.5 L1056.0,472.9 L1056.2,468.7 L1056.5,475.5 L1056.8,488.6 L1057.1,491.2 L1057.4,476.0 L1057.7,473.9 L1058.0,472.9 L1058.3,471.8 L1058.6,478.1 L1058.9,490.1 L1059.2,491.7 L1060.6,466.1 L1060.9,478.6 L1061.2,473.9 L1061.5,478.6 L1061.8,464.5 L1062.1,467.1 L1062.4,467.1 L1062.7,460.3 L1063.0,471.3 L1063.3,472.9 L1063.5,461.4 L1063.8,464.0 L1064.1,464.0 L1064.4,462.4 L1064.7,466.1 L1065.0,464.0 L1065.3,460.9 L1065.6,448.8 L1065.9,461.9 L1066.2,460.3 L1067.7,483.9 L1068.0,468.7 L1068.3,476.0 L1068.6,484.4 L1068.9,493.8 L1069.2,484.9 L1069.5,488.6 L1069.8,482.8 L1070.1,481.3 L1070.4,501.6 L1070.7,476.5 L1070.9,496.4 L1071.2,472.4 L1071.5,473.9 L1071.8,480.2 L1072.1,464.5 L1072.4,463.5 L1072.7,462.9 L1073.5,470.8 L1074.8,543.5 L1075.1,528.8 L1075.4,510.5 L1075.7,489.1 L1076.0,498.5 L1076.3,487.5 L1076.6,471.8 L1076.9,489.1 L1077.2,470.3 L1077.5,469.2 L1077.8,468.2 L1078.1,470.8 L1078.8,471.8 L1079.1,480.2 L1079.4,474.5 L1079.7,474.5 L1080.0,473.9 L1080.3,476.5 L1080.5,465.0 L1081.9,410.1 L1082.2,427.9 L1082.8,401.8 L1083.1,435.8 L1083.8,446.2 L1084.0,464.5" fill="none" stroke="#ff7f0e" stroke-width="1.1" opacity="0.85"/><text x="616" y="572" font-size="11" fill="#888">time 0..79 s — altitude (blue) &amp; roll (orange)</text></svg>