<svg xmlns="http://www.w3.org/2000/svg" width="1140" height="600" font-family="sans-serif" font-size="13"><rect width="1140" height="600" fill="white"/><text x="20" y="26" font-size="15" fill="#333">Coludo flight</text><rect x="20" y="40" width="540" height="540" fill="#fbfbfb" stroke="#ddd"/><rect x="50" y="259" width="337" height="72" fill="#cde" stroke="#369" opacity="0.7"/><text x="50" y="254" fill="#369" font-size="12">landing zone</text><circle cx="263" cy="372" r="5" fill="black"/><text x="271" y="376" font-size="12">pad</text><path d="M263.9,371.8 L263.9,371.8 L263.9,371.8 L263.9,371.8 L263.9,371.8 L263.9,371.8 L263.9,371.8 L263.9,371.8 L263.9,371.8 L263.9,371.8 L263.9,371.8 L263.9,371.8 L263.9,371.8 L263.9,371.8 L263.9,371.8 L263.9,371.8 L263.9,371.8 L263.9,371.8 L263.9,371.8 L263.9,371.8 L263.9,371.8 L263.9,371.8 L263.9,371.8 L263.9,371.8 L263.9,371.8 L263.9,371.8 L263.9,371.8 L263.9,371.8 L263.9,371.8 L263.9,371.8 L263.9,371.8 L263.9,371.8 L263.9,371.8 L263.9,371.8 L263.9,371.8 L263.9,371.8 L263.9,371.8 L263.9,371.8 L263.9,371.8 L263.9,371.8 L263.9,371.8 L263.9,371.8 L263.9,371.8 L263.9,371.8 L263.9,371.8 L263.9,371.8 L263.9,371.8 L263.9,371.8 L263.9,371.8 L263.9,371.8 L263.9,371.8 L263.9,371.8 L263.9,371.8 L263.9,371.8 L263.9,371.8 L263.9,371.8 L263.9,371.8 L263.9,371.8 L263.9,371.8 L263.9,371.8 L263.9,371.8 L263.9,371.8 L263.9,371.8 L263.9,371.8 L263.9,371.8 L263.9,371.8 L263.9,371.8 L263.9,371.8 L263.9,370.6 L265.0,368.6 L265.7,367.0 L267.6,365.0 L269.4,362.9 L270.8,361.7 L271.2,359.7 L273.0,357.7 L274.8,355.7 L276.6,354.1 L276.6,353.3 L280.2,351.3 L282.0,349.7 L282.4,348.5 L285.7,346.9 L287.5,345.7 L288.2,344.9 L289.3,343.7 L292.9,342.1 L294.0,340.9 L296.5,339.7 L298.3,338.5 L300.1,337.3 L301.9,336.5 L305.6,335.7 L307.0,334.5 L309.2,333.7 L311.0,332.5 L311.4,331.7 L314.6,330.5 L317.1,329.7 L320.0,328.5 L321.9,327.2 L323.7,326.4 L325.5,325.2 L329.1,324.0 L330.2,322.8 L330.9,321.6 L334.5,320.4 L336.0,319.2 L338.1,316.8 L340.0,315.2 L340.3,313.6 L341.8,312.0 L343.6,310.8 L345.4,309.2 L346.1,307.2 L347.2,305.6 L349.0,303.6 L350.8,302.0 L350.8,300.0 L351.9,298.0 L352.6,295.6 L352.6,294.4 L354.4,292.4 L356.2,289.9 L356.2,287.9 L358.1,285.5 L358.1,283.5 L358.1,281.1 L358.4,278.7 L358.4,276.3 L358.4,274.3 L358.4,271.9 L358.4,269.9 L358.4,267.5 L358.4,265.5 L358.4,262.7 L358.4,260.3 L358.1,257.1 L358.1,255.0 L358.1,252.6 L358.1,250.6 L356.2,248.6 L356.2,245.8 L356.2,243.8 L356.2,241.4 L356.2,239.4 L356.2,237.4 L356.2,234.6 L356.2,232.6 L356.2,230.6 L356.2,229.0 L358.1,226.2 L358.1,224.2 L358.1,222.2 L358.4,220.2 L358.4,217.7 L359.9,214.9 L359.9,212.9 L361.7,211.7 L363.5,209.3 L363.5,207.3 L364.9,205.7 L365.3,203.7 L367.1,201.7 L368.9,198.9 L369.3,196.9 L370.7,195.7 L372.5,194.5 L374.3,192.5 L375.1,190.9 L376.2,189.3 L379.8,188.1 L381.6,186.9 L383.0,185.7 L385.2,184.1 L387.0,182.4 L388.8,181.2 L390.6,180.0 L394.6,179.2 L394.3,178.4 L396.1,177.6 L398.2,176.8 L401.5,175.6 L404.0,174.8 L406.9,174.0 L408.7,173.6 L411.3,172.8 L414.2,172.4 L416.0,172.4 L417.8,172.0 L421.4,172.0 L422.1,172.0 L425.0,172.0 L427.2,172.0 L430.5,172.0 L433.0,172.0 L435.9,172.4 L439.5,172.8 L440.2,173.2 L443.1,173.6 L446.0,174.4 L446.7,174.8 L450.4,175.6 L452.2,176.4 L455.8,177.2 L458.3,178.4 L459.4,179.2 L463.0,180.4 L464.8,181.2 L466.7,182.4 L469.9,184.1 L472.1,185.3 L473.9,186.5 L475.7,188.1 L479.3,189.7 L480.8,191.3 L482.9,193.7 L486.6,195.3 L486.6,196.9 L490.2,199.7 L491.6,201.3 L493.8,203.3 L498.9,206.9 L499.2,208.9 L501.0,211.3 L503.2,213.3 L504.7,216.1 L506.5,218.5 L508.3,221.4 L509.7,223.4 L511.9,225.8 L513.7,229.0 L515.5,231.4 L515.5,234.2 L517.3,236.6 L519.1,239.8 L521.0,242.6 L521.3,245.8 L521.3,248.2 L522.8,251.8 L524.6,254.2 L526.4,260.7 L527.8,264.3 L527.8,267.1 L528.2,270.7 L528.2,273.5 L528.2,276.3 L530.0,279.1 L530.0,282.7 L530.0,285.9 L530.0,288.7 L530.0,292.4 L530.0,296.4 L530.0,299.6 L530.0,302.4 L530.0,306.0 L530.0,309.2 L530.0,311.6 L528.2,315.6 L528.2,319.2 L528.2,322.0 L527.8,325.2 L527.8,328.0 L526.4,330.9 L526.4,335.3 L524.6,338.1 L522.8,341.7 L521.3,344.5 L521.0,348.5 L521.0,351.3 L517.3,356.9 L515.5,360.9 L515.5,363.3 L513.7,366.6 L510.1,369.8 L509.7,372.2 L508.3,375.4 L504.7,379.0 L503.2,381.4 L501.0,386.2 L498.9,389.4 L497.4,391.8 L493.8,394.6 L492.0,397.0 L490.2,399.4 L486.6,402.7 L484.8,404.7 L482.9,406.7 L479.3,411.1 L475.0,413.5 L473.9,415.5 L469.9,417.9 L468.5,419.5 L464.8,421.1 L463.0,423.5 L459.4,425.1 L458.3,427.1 L454.0,428.3 L451.8,429.9 L446.7,431.9 L446.0,433.1 L441.3,434.7 L439.5,435.9 L435.9,437.6 L433.0,438.8 L428.6,440.0 L426.8,440.8 L422.1,442.4 L417.8,443.6 L416.0,444.0 L412.4,444.8 L408.7,445.2 L405.1,446.0 L403.3,446.4 L399.7,446.8 L397.9,447.2 L394.3,447.6 L390.6,447.6 L387.4,448.0 L385.2,448.0 L381.6,448.0 L378.0,447.6 L375.1,447.6 L372.5,447.2 L369.3,447.2 L367.1,446.8 L364.9,446.4 L361.7,446.0 L358.4,445.2 L356.2,444.8 L352.6,444.0 L349.0,443.2 L346.1,442.4 L343.6,441.6 L341.8,440.8 L340.0,439.6 L336.3,438.4 L332.7,436.8 L330.2,435.5 L327.3,434.3 L323.7,432.7 L322.9,431.5 L320.0,429.9 L318.2,428.7 L316.4,427.1 L312.8,425.9 L311.4,424.3 L307.4,421.5 L305.6,419.9 L301.9,418.3 L299.8,416.3 L298.3,415.1 L294.7,413.1 L294.0,411.9 L291.1,410.3 L288.2,408.7 L283.8,405.1 L282.0,403.1 L278.4,401.9 L276.6,400.2 L274.8,398.6 L273.0,397.0 L270.8,395.4 L269.4,394.2 L265.7,392.2 L260.3,388.2 L254.9,383.8 L253.1,382.2 L249.5,380.6 L247.6,379.0 L244.0,377.8 L242.2,376.2 L236.8,373.4 L235.0,371.8 L233.2,370.2 L230.3,369.0" fill="none" stroke="#1f77b4" stroke-width="1.7" opacity="0.85"/><circle cx="230" cy="369" r="4.5" fill="#1f77b4"/><text x="28" y="572" font-size="11" fill="#888">ground track — m from pad (N up)</text><rect x="580" y="40" width="540" height="540" fill="#fbfbfb" stroke="#ddd"/><text x="586" y="54" fill="#1f77b4" font-size="11">alt 347</text><text x="586" y="558" fill="#1f77b4" font-size="11">-57</text><path d="M654.3,475.5 L654.9,475.5 L655.5,475.0 L656.1,475.1 L656.6,474.7 L657.1,474.4 L657.6,474.1 L658.1,473.4 L658.6,473.0 L659.1,472.2 L659.6,471.5 L660.1,470.4 L660.6,470.1 L661.1,469.7 L661.6,468.1 L662.1,467.0 L662.6,463.9 L663.1,463.1 L663.6,463.2 L664.1,462.9 L664.5,459.7 L665.0,458.4 L665.5,459.4 L666.0,455.6 L666.5,455.2 L666.9,450.5 L667.4,452.1 L667.9,450.2 L668.4,449.5 L668.9,448.1 L670.0,440.9 L670.5,435.3 L671.0,432.0 L671.5,436.8 L672.0,435.0 L672.5,429.5 L673.0,422.5 L673.6,424.8 L674.1,422.2 L674.5,415.1 L675.0,414.9 L675.5,408.9 L676.0,410.6 L676.5,400.6 L677.0,404.6 L677.5,400.2 L678.0,397.3 L678.5,389.3 L679.0,390.6 L679.5,382.5 L680.0,391.2 L680.5,387.9 L681.0,384.1 L681.5,368.6 L682.0,376.9 L682.4,372.5 L682.9,352.2 L683.4,360.3 L684.1,348.3 L684.6,341.2 L685.1,344.4 L685.6,354.4 L686.1,351.4 L686.6,338.1 L687.2,323.1 L687.7,314.3 L688.2,333.2 L688.7,311.9 L689.2,327.9 L689.6,312.8 L690.1,313.0 L690.6,286.1 L691.1,288.6 L691.6,283.9 L692.1,308.0 L692.6,278.9 L693.1,279.1 L693.6,259.6 L694.1,265.5 L694.6,291.7 L695.1,265.5 L695.6,279.7 L696.1,250.0 L696.6,244.4 L697.0,272.7 L697.5,243.5 L698.0,244.7 L698.6,256.1 L699.1,230.8 L699.6,219.4 L700.1,256.1 L700.6,218.8 L701.1,223.3 L701.6,215.1 L702.1,223.5 L702.6,204.4 L703.1,234.3 L703.6,207.0 L704.3,190.7 L704.7,231.0 L705.2,176.8 L705.7,185.5 L706.2,222.7 L706.7,199.4 L707.2,180.6 L707.7,197.7 L708.2,201.0 L708.7,169.7 L709.2,199.8 L709.7,196.8 L710.2,179.3 L710.7,164.9 L711.2,147.5 L711.7,192.6 L712.1,180.4 L712.6,187.5 L713.1,162.3 L713.6,143.9 L714.1,161.8 L714.7,169.1 L715.2,131.0 L715.7,123.2 L716.2,140.2 L716.7,156.0 L717.2,117.0 L717.8,155.5 L718.3,155.3 L718.8,112.1 L719.3,129.7 L719.7,140.4 L720.2,107.3 L720.7,149.5 L721.2,138.4 L721.7,122.6 L722.2,142.6 L722.7,117.3 L723.2,145.8 L723.7,144.4 L724.2,154.0 L724.8,147.4 L725.3,99.7 L725.8,86.5 L726.3,132.2 L726.8,131.2 L727.2,130.5 L727.8,110.6 L728.3,98.7 L728.8,99.2 L729.3,124.2 L729.8,144.4 L730.3,112.4 L730.8,108.8 L731.3,98.9 L731.8,117.1 L732.3,143.4 L732.8,123.4 L733.4,147.8 L733.9,95.3 L734.4,116.7 L734.9,110.7 L735.5,76.0 L736.0,98.9 L736.5,106.9 L737.0,121.4 L737.5,92.7 L738.0,122.5 L738.5,130.0 L739.0,142.6 L739.5,110.9 L740.0,78.0 L740.5,138.9 L741.0,135.7 L741.5,98.3 L742.0,119.3 L742.4,117.3 L742.9,88.7 L743.5,112.4 L744.0,145.1 L744.8,111.2 L745.3,109.2 L745.8,130.6 L746.3,101.0 L746.8,92.9 L747.3,88.6 L747.8,126.8 L748.3,100.4 L748.9,79.5 L749.4,110.3 L749.8,116.0 L750.3,81.4 L750.8,102.7 L751.3,106.9 L751.8,134.5 L752.3,148.3 L752.8,115.3 L753.3,90.0 L753.8,111.8 L754.3,86.1 L755.2,122.6 L755.8,123.2 L756.3,147.2 L756.8,150.0 L757.3,123.8 L757.8,149.0 L758.3,138.4 L758.8,155.7 L759.3,99.4 L759.8,112.9 L760.3,137.4 L760.8,142.4 L761.3,120.7 L761.8,132.1 L762.3,108.6 L762.8,133.5 L763.4,155.4 L763.9,147.7 L764.4,141.9 L764.8,93.0 L765.6,112.8 L766.0,154.2 L766.5,152.6 L767.1,152.1 L767.6,146.6 L768.2,119.1 L768.7,131.9 L769.3,151.3 L769.8,121.8 L770.4,136.8 L770.9,155.0 L771.5,98.2 L772.0,156.6 L772.5,93.5 L773.0,160.9 L773.6,113.9 L774.1,162.1 L774.7,153.0 L775.2,152.6 L775.9,116.3 L776.4,147.9 L776.9,100.4 L777.4,108.9 L777.9,124.6 L778.4,164.5 L778.9,143.0 L779.4,162.0 L780.0,142.6 L780.5,106.1 L781.0,127.1 L781.6,153.0 L782.1,146.3 L782.7,127.2 L783.2,136.6 L783.7,147.4 L784.2,111.7 L784.7,117.3 L785.2,103.4 L785.7,148.4 L786.3,144.4 L786.8,128.7 L787.3,150.4 L787.8,124.3 L788.2,114.7 L788.7,150.2 L789.2,136.2 L789.7,117.7 L790.2,157.4 L790.7,124.2 L791.2,142.4 L791.7,122.1 L792.2,140.2 L792.7,128.3 L793.2,119.7 L793.7,167.7 L794.2,112.4 L794.7,116.0 L795.2,113.6 L795.7,165.9 L796.7,172.2 L797.1,114.9 L797.6,168.5 L798.2,174.4 L798.7,173.4 L799.3,135.1 L799.8,147.2 L800.4,144.5 L800.9,168.1 L801.5,120.0 L802.0,178.4 L802.4,116.2 L802.9,145.4 L803.4,120.9 L803.9,150.4 L804.4,134.5 L804.9,146.0 L805.4,145.6 L806.0,123.2 L807.0,142.3 L807.5,155.3 L808.0,144.8 L808.6,140.9 L809.1,135.8 L809.6,138.5 L810.0,148.5 L810.5,142.4 L811.0,128.3 L811.5,179.3 L812.0,171.9 L812.5,138.8 L813.0,189.3 L813.5,129.4 L814.1,168.2 L814.6,155.1 L815.1,129.9 L815.6,153.5 L816.1,177.7 L816.6,130.2 L817.4,176.8 L817.8,139.8 L818.3,167.3 L818.8,141.5 L819.4,133.0 L819.9,170.5 L820.4,183.9 L820.9,145.6 L821.4,139.8 L821.9,184.6 L822.5,154.1 L823.0,184.5 L823.6,171.4 L824.1,198.2 L824.6,150.4 L825.0,157.3 L825.5,143.6 L826.0,154.1 L826.5,197.1 L827.0,193.7 L827.8,143.5 L828.2,187.2 L828.7,184.2 L829.3,203.0 L829.8,156.1 L830.3,183.7 L830.8,171.0 L831.4,147.0 L831.9,153.8 L832.4,176.0 L832.9,206.1 L833.5,186.6 L834.0,164.6 L834.5,165.7 L835.0,183.6 L835.5,172.9 L836.0,154.2 L836.5,203.4 L837.0,161.2 L837.5,188.7 L838.1,178.4 L838.6,164.6 L839.0,197.0 L839.5,171.5 L840.1,157.8 L840.6,175.0 L841.1,212.1 L841.6,205.5 L842.1,183.3 L842.7,167.8 L843.2,185.6 L843.8,184.4 L844.3,199.2 L844.9,175.4 L845.4,191.6 L845.9,191.0 L846.4,206.0 L846.9,205.2 L847.4,217.4 L847.9,221.2 L849.0,218.3 L849.4,187.1 L849.9,216.8 L850.4,212.5 L850.9,190.2 L851.4,179.4 L851.9,213.1 L852.4,201.4 L853.0,209.7 L853.5,224.9 L854.0,185.2 L854.5,221.1 L855.0,176.5 L855.5,212.1 L856.0,199.5 L856.5,220.9 L857.0,227.3 L857.5,182.3 L858.1,220.8 L858.6,230.2 L859.8,200.7 L860.3,230.6 L860.8,213.1 L861.3,195.5 L861.8,215.9 L862.3,237.3 L862.8,230.4 L863.2,219.8 L863.7,224.6 L864.3,235.2 L864.8,203.0 L865.3,201.2 L865.8,206.0 L866.4,216.8 L866.9,193.9 L867.4,206.8 L867.9,205.5 L868.5,202.3 L869.0,197.4 L869.5,223.9 L870.6,201.4 L871.0,238.0 L871.5,206.6 L872.1,210.1 L872.6,222.0 L873.2,206.3 L873.7,201.4 L874.3,213.3 L874.8,252.7 L875.3,209.2 L875.8,224.0 L876.4,206.6 L876.9,215.7 L877.3,242.0 L877.8,250.4 L878.4,249.0 L878.9,217.9 L879.5,251.9 L880.0,210.3 L881.4,231.5 L881.9,246.3 L882.4,233.8 L882.9,225.4 L883.4,238.1 L883.9,224.4 L884.4,245.7 L884.8,251.5 L885.4,251.0 L885.9,229.3 L886.4,222.9 L887.0,248.8 L887.5,258.9 L888.0,237.8 L888.5,236.5 L889.1,259.9 L889.6,259.2 L890.1,243.1 L890.6,234.0 L891.1,267.6 L892.2,267.9 L892.7,264.2 L893.2,264.2 L893.7,254.0 L894.2,249.3 L894.7,262.5 L895.2,269.4 L895.8,272.5 L896.3,254.4 L896.8,239.3 L897.3,269.8 L897.8,259.0 L898.3,258.4 L898.8,244.5 L899.4,276.5 L899.9,267.0 L900.4,283.0 L900.9,244.3 L901.4,274.0 L901.9,256.9 L903.1,281.5 L903.6,261.5 L904.1,282.5 L904.6,287.4 L905.1,250.8 L905.6,290.4 L906.1,268.1 L906.6,289.1 L907.1,280.3 L907.6,261.3 L908.1,292.0 L908.7,278.0 L909.2,282.8 L909.8,280.4 L910.3,275.3 L910.8,274.8 L911.3,270.3 L911.8,269.2 L912.3,284.7 L912.8,274.8 L914.0,275.6 L914.5,266.9 L915.0,290.4 L915.4,298.5 L915.9,283.2 L916.4,290.1 L916.9,285.0 L917.5,284.3 L918.0,305.3 L918.6,281.1 L919.1,298.5 L919.7,303.3 L920.2,283.4 L920.7,304.6 L921.2,299.3 L921.7,291.9 L922.2,284.0 L922.7,289.7 L923.2,312.8 L923.6,309.9 L924.8,301.3 L925.3,311.4 L925.8,306.2 L926.4,309.1 L926.9,307.1 L927.5,306.8 L928.0,292.8 L928.6,303.9 L929.1,318.2 L929.6,304.8 L930.1,297.0 L930.6,314.1 L931.1,294.9 L931.6,303.1 L932.1,299.5 L932.7,299.9 L933.2,316.5 L933.7,305.9 L934.2,321.9 L935.7,328.1 L936.2,314.0 L936.7,309.8 L937.3,300.9 L937.8,322.4 L938.2,313.3 L938.7,301.9 L939.3,329.2 L939.8,329.8 L940.3,315.5 L940.8,309.0 L941.4,308.7 L941.9,309.1 L942.5,335.7 L943.0,327.1 L943.5,328.2 L944.0,317.6 L944.5,325.8 L945.0,317.0 L945.4,322.1 L946.5,320.8 L947.0,334.8 L947.5,316.0 L948.0,331.4 L948.5,336.1 L949.0,330.2 L949.5,345.7 L950.1,344.2 L950.6,326.9 L951.1,331.5 L951.6,331.3 L952.1,327.2 L952.6,329.1 L953.0,339.4 L953.5,349.0 L954.0,341.8 L954.6,341.5 L955.1,355.3 L955.6,340.9 L956.1,357.3 L957.4,339.5 L957.9,333.8 L958.4,336.8 L959.0,348.7 L959.5,345.2 L959.9,361.4 L960.5,362.2 L961.0,349.1 L961.5,355.9 L962.1,342.7 L962.6,354.0 L963.1,361.0 L963.6,347.4 L964.1,367.1 L964.6,347.5 L965.1,346.2 L965.7,363.0 L966.2,353.8 L966.7,368.5 L967.2,349.5 L968.3,351.5 L968.7,366.6 L969.2,363.6 L969.8,355.0 L970.3,360.3 L970.8,358.3 L971.3,373.6 L971.8,378.5 L972.3,366.6 L972.8,367.2 L973.3,365.9 L973.8,365.2 L974.3,365.7 L974.8,372.9 L975.3,376.9 L975.8,374.8 L976.3,372.6 L976.8,384.2 L977.4,375.4 L977.9,368.1 L979.1,383.2 L979.6,386.9 L980.1,378.2 L980.7,375.8 L981.2,378.8 L981.8,378.3 L982.3,382.8 L982.8,376.2 L983.3,384.1 L983.8,381.0 L984.3,388.2 L984.9,394.8 L985.4,390.9 L986.0,391.6 L986.5,386.9 L987.1,389.5 L987.6,392.6 L988.2,400.4 L988.7,387.9 L990.0,389.8 L990.5,404.0 L990.9,405.2 L991.5,392.3 L992.0,393.8 L992.5,399.4 L993.0,398.3 L993.5,405.6 L994.0,396.3 L994.5,408.6 L995.0,405.1 L995.5,412.4 L996.1,410.5 L996.6,406.1 L997.1,411.2 L997.6,411.5 L998.0,415.9 L998.5,416.5 L999.0,413.3 L999.5,415.1 L1000.8,407.1 L1001.3,416.6 L1001.8,410.8 L1002.4,421.8 L1002.9,418.3 L1003.5,422.5 L1004.0,417.9 L1004.5,419.0 L1005.0,417.9 L1005.5,420.8 L1005.9,422.0 L1006.5,424.3 L1007.0,424.8 L1007.5,421.9 L1008.0,426.9 L1008.5,424.7 L1009.0,428.2 L1009.6,423.6 L1010.1,423.6 L1010.7,431.2 L1011.8,434.1 L1012.3,434.5 L1012.7,434.8 L1013.2,437.6 L1013.7,430.9 L1014.3,436.6 L1014.8,435.6 L1015.4,434.3 L1015.9,435.1 L1016.5,436.6 L1017.0,438.0 L1017.6,439.6 L1018.1,444.1 L1018.7,445.0 L1019.2,445.6 L1019.8,443.3 L1020.3,443.1 L1020.7,448.7 L1021.2,448.8 L1022.6,450.5 L1023.1,451.9 L1023.6,451.5 L1024.1,452.4 L1024.6,453.7 L1025.1,450.1 L1025.8,453.6 L1026.3,452.4 L1026.8,454.3 L1027.4,458.0 L1027.9,458.7 L1028.4,458.0 L1028.9,460.5 L1029.4,460.2 L1029.9,461.0 L1030.4,459.8 L1030.9,462.3 L1031.4,463.1 L1031.9,463.9 L1032.4,465.1 L1034.3,467.0 L1034.8,468.2 L1035.3,468.0 L1035.8,468.7 L1036.3,471.1 L1036.7,470.8 L1037.2,471.6 L1037.7,473.3 L1038.2,473.5 L1038.8,474.7 L1039.3,475.5 L1039.9,476.3 L1040.4,477.2 L1041.0,478.2 L1041.5,478.7 L1042.1,479.6 L1042.6,481.0 L1043.1,481.7 L1043.6,482.1 L1046.0,485.5 L1046.4,485.8 L1046.9,488.1 L1047.4,488.2 L1047.9,489.4 L1048.4,489.7 L1048.9,491.5 L1049.4,491.8 L1050.0,492.4 L1050.4,494.0 L1051.0,493.0 L1051.5,495.5 L1052.1,496.1 L1052.6,494.4 L1053.2,495.0 L1053.7,497.3 L1054.2,497.3 L1054.7,498.8 L1055.3,501.5 L1057.6,502.4 L1058.1,502.6 L1058.5,504.0 L1059.1,505.1 L1059.6,506.1 L1060.2,509.1 L1060.7,507.1 L1061.3,508.1 L1061.8,508.7 L1062.4,508.7 L1062.9,514.0 L1063.5,515.2 L1064.0,509.9 L1064.6,515.0 L1065.1,513.7 L1065.6,516.6 L1066.1,512.3 L1066.7,518.0 L1067.2,514.5 L1069.3,521.6 L1069.8,523.9 L1070.3,520.1 L1072.5,527.0 L1073.0,521.1 L1073.6,521.6 L1074.2,522.7 L1074.8,529.1 L1075.4,527.3 L1076.0,530.8 L1076.6,525.2 L1077.2,534.4 L1077.8,535.5 L1078.4,531.1 L1079.0,533.1 L1080.5,534.8 L1081.0,535.2 L1081.6,530.3 L1082.2,537.1 L1082.8,533.0 L1083.4,544.0 L1084.0,533.3" fill="none" stroke="#1f77b4" stroke-width="1.4" opacity="0.85"/><text x="1040" y="54" fill="#ff7f0e" font-size="11">roll 19</text><text x="1090" y="558" fill="#ff7f0e" font-size="11">-18</text><path d="M654.3,320.0 L654.9,320.0 L655.5,318.8 L656.1,318.8 L656.6,318.8 L657.1,317.5 L657.6,318.8 L658.1,317.5 L658.6,318.8 L659.1,317.5 L659.6,317.5 L660.1,318.8 L660.6,316.3 L661.1,316.3 L661.6,316.3 L662.1,315.0 L662.6,313.8 L663.1,316.3 L663.6,315.0 L664.1,312.5 L664.5,315.0 L665.0,313.8 L665.5,312.5 L666.0,312.5 L666.5,308.7 L666.9,308.7 L667.4,310.0 L667.9,307.5 L668.4,305.0 L668.9,306.2 L670.0,306.2 L670.5,302.5 L671.0,303.7 L671.5,302.5 L672.0,302.5 L672.5,298.7 L673.0,297.5 L673.6,298.7 L674.1,297.5 L674.5,296.2 L675.0,293.7 L675.5,293.7 L676.0,295.0 L676.5,290.0 L677.0,291.2 L677.5,287.5 L678.0,287.5 L678.5,290.0 L679.0,290.0 L679.5,286.2 L680.0,281.2 L680.5,281.2 L681.0,285.0 L681.5,286.2 L681.9,281.2 L682.4,283.7 L682.9,281.2 L683.4,280.0 L684.1,277.5 L684.6,278.7 L685.1,282.5 L685.6,281.2 L686.1,282.5 L686.6,282.5 L687.2,278.7 L687.7,281.2 L688.2,277.5 L688.7,278.7 L689.2,282.5 L689.6,286.2 L690.1,282.5 L690.6,277.5 L691.1,283.7 L691.6,287.5 L692.1,280.0 L692.6,280.0 L693.1,281.2 L693.6,288.7 L694.1,288.7 L694.6,287.5 L695.1,282.5 L695.6,283.7 L696.1,282.5 L696.6,282.5 L697.0,285.0 L697.5,288.7 L698.0,286.2 L698.6,281.2 L699.1,287.5 L699.6,283.7 L700.1,287.5 L700.6,282.5 L701.1,286.2 L701.6,282.5 L702.1,281.2 L702.6,283.7 L703.1,277.5 L703.6,282.5 L704.3,276.2 L704.7,276.2 L705.2,277.5 L705.7,275.0 L706.2,278.7 L706.7,278.7 L707.2,282.5 L707.7,278.7 L708.2,273.7 L708.7,277.5 L709.2,273.7 L709.7,277.5 L710.2,280.0 L710.7,273.7 L711.2,275.0 L711.7,278.7 L712.1,281.2 L712.6,275.0 L713.1,280.0 L713.6,276.2 L714.1,278.7 L714.7,281.2 L715.2,280.0 L715.7,278.7 L716.2,278.7 L716.7,283.7 L717.2,281.2 L717.8,278.7 L718.3,275.0 L718.8,282.5 L719.3,277.5 L719.7,275.0 L720.2,281.2 L720.7,277.5 L721.2,282.5 L721.7,281.2 L722.2,283.7 L722.7,285.0 L723.2,280.0 L723.7,276.2 L724.2,283.7 L724.8,276.2 L725.3,285.0 L725.8,283.7 L726.3,282.5 L726.8,283.7 L727.2,276.2 L727.8,277.5 L728.3,282.5 L728.8,282.5 L729.3,277.5 L729.8,277.5 L730.3,313.8 L730.8,292.5 L731.3,252.4 L731.8,236.2 L732.3,202.4 L732.8,187.4 L733.4,171.1 L733.9,157.3 L734.4,171.1 L734.9,144.8 L735.5,156.1 L736.0,144.8 L736.5,108.5 L737.0,134.8 L737.5,134.8 L738.0,123.6 L738.5,137.3 L739.0,112.3 L739.5,112.3 L740.0,104.8 L740.5,111.0 L741.0,108.5 L741.5,123.6 L742.0,138.6 L742.4,124.8 L742.9,128.6 L743.5,138.6 L744.0,147.3 L744.8,122.3 L745.3,144.8 L745.8,133.6 L746.3,166.1 L746.8,134.8 L747.3,166.1 L747.8,171.1 L748.3,187.4 L748.9,168.6 L749.4,191.1 L749.8,169.9 L750.3,188.6 L750.8,182.4 L751.3,197.4 L751.8,186.1 L752.3,182.4 L752.8,201.1 L753.3,222.4 L753.8,224.9 L754.3,212.4 L755.2,208.6 L755.8,233.7 L756.3,248.7 L756.8,237.4 L757.3,234.9 L757.8,243.7 L758.3,238.7 L758.8,247.4 L759.3,257.4 L759.8,263.7 L760.3,261.2 L760.8,263.7 L761.3,262.4 L761.8,266.2 L762.3,266.2 L762.8,265.0 L763.4,275.0 L763.9,318.8 L764.4,343.8 L764.8,373.8 L765.5,415.1 L766.0,443.9 L766.5,446.4 L767.1,478.9 L767.6,463.9 L768.2,495.2 L768.7,497.7 L769.3,486.4 L769.8,490.2 L770.4,527.7 L770.9,506.5 L771.5,530.2 L772.0,520.2 L772.5,511.5 L773.0,504.0 L773.6,505.2 L774.1,541.5 L774.7,505.2 L775.2,526.5 L775.9,519.0 L776.4,511.5 L776.9,505.2 L777.4,516.5 L777.9,526.5 L778.4,534.0 L778.9,537.7 L779.4,529.0 L779.9,521.5 L780.5,524.0 L781.0,521.5 L781.6,509.0 L782.1,544.0 L782.7,539.0 L783.2,525.2 L783.7,525.2 L784.2,522.7 L784.7,526.5 L785.2,502.7 L785.7,537.7 L786.3,519.0 L786.8,540.2 L787.2,536.5 L787.7,507.7 L788.2,530.2 L788.7,525.2 L789.2,522.7 L789.7,514.0 L790.2,510.2 L790.7,517.7 L791.2,521.5 L791.7,534.0 L792.2,544.0 L792.7,527.7 L793.2,515.2 L793.7,531.5 L794.2,512.7 L794.7,519.0 L795.2,532.7 L795.7,512.7 L796.6,534.0 L797.1,527.7 L797.6,527.7 L798.2,534.0 L798.7,531.5 L799.3,514.0 L799.8,544.0 L800.4,544.0 L800.9,532.7 L801.5,535.2 L802.0,517.7 L802.4,520.2 L802.9,544.0 L803.4,532.7 L803.9,505.2 L804.4,534.0 L804.9,544.0 L805.4,521.5 L806.0,527.7 L807.0,515.2 L807.5,537.7 L808.0,541.5 L808.6,467.7 L809.1,408.9 L809.6,377.6 L810.0,337.5 L810.5,311.3 L811.0,278.7 L811.5,252.4 L812.0,224.9 L812.5,201.1 L813.0,174.9 L813.5,174.9 L814.1,159.8 L814.6,133.6 L815.1,137.3 L815.6,146.1 L816.1,139.8 L816.6,147.3 L817.4,118.5 L817.8,102.3 L818.3,134.8 L818.8,122.3 L819.4,128.6 L819.9,124.8 L820.4,111.0 L820.9,96.0 L821.4,114.8 L821.9,109.8 L822.5,134.8 L823.0,117.3 L823.6,118.5 L824.1,131.1 L824.6,107.3 L825.0,112.3 L825.5,133.6 L826.0,114.8 L826.5,124.8 L827.0,109.8 L827.7,116.0 L828.2,121.0 L828.7,109.8 L829.3,117.3 L829.8,128.6 L830.3,132.3 L830.8,106.0 L831.4,106.0 L831.9,97.3 L832.4,96.0 L832.9,106.0 L833.5,119.8 L834.0,128.6 L834.5,112.3 L835.0,119.8 L835.5,108.5 L836.0,114.8 L836.5,96.0 L837.0,93.5 L837.5,131.1 L838.1,114.8 L838.6,127.3 L839.0,112.3 L839.5,112.3 L840.0,101.0 L840.6,126.1 L841.1,127.3 L841.6,106.0 L842.1,94.8 L842.7,119.8 L843.2,132.3 L843.8,124.8 L844.3,118.5 L844.9,109.8 L845.4,109.8 L845.9,123.6 L846.4,116.0 L846.9,134.8 L847.3,132.3 L847.9,112.3 L848.9,117.3 L849.4,121.0 L849.9,112.3 L850.4,117.3 L850.9,121.0 L851.4,116.0 L851.9,117.3 L852.4,114.8 L853.0,109.8 L853.5,136.1 L854.0,126.1 L854.5,129.8 L855.0,116.0 L855.5,92.3 L856.0,118.5 L856.5,127.3 L857.0,128.6 L857.5,117.3 L858.1,129.8 L858.6,123.6 L859.8,93.5 L860.3,96.0 L860.8,111.0 L861.3,96.0 L861.8,123.6 L862.3,107.3 L862.7,129.8 L863.2,109.8 L863.7,118.5 L864.3,101.0 L864.8,112.3 L865.3,94.8 L865.8,99.8 L866.4,123.6 L866.9,119.8 L867.4,123.6 L867.9,112.3 L868.5,111.0 L869.0,94.8 L869.5,134.8 L870.6,93.5 L871.0,79.8 L871.5,109.8 L872.1,92.3 L872.6,117.3 L873.2,113.5 L873.7,91.0 L874.3,94.8 L874.8,118.5 L875.3,97.3 L875.8,94.8 L876.4,108.5 L876.9,111.0 L877.3,97.3 L877.8,121.0 L878.4,114.8 L878.9,122.3 L879.5,108.5 L880.0,119.8 L881.4,108.5 L881.9,112.3 L882.4,114.8 L882.9,109.8 L883.4,97.3 L883.9,94.8 L884.4,107.3 L884.8,111.0 L885.3,96.0 L885.9,97.3 L886.4,102.3 L887.0,131.1 L887.5,112.3 L888.0,108.5 L888.5,116.0 L889.1,132.3 L889.6,107.3 L890.1,108.5 L890.6,133.6 L891.1,94.8 L892.2,134.8 L892.7,131.1 L893.2,122.3 L893.7,101.0 L894.2,93.5 L894.7,97.3 L895.2,129.8 L895.8,121.0 L896.3,96.0 L896.8,117.3 L897.3,122.3 L897.8,102.3 L898.3,94.8 L898.8,101.0 L899.3,123.6 L899.9,123.6 L900.4,97.3 L900.9,106.0 L901.4,118.5 L901.9,111.0 L903.1,114.8 L903.6,133.6 L904.1,128.6 L904.6,133.6 L905.1,101.0 L905.6,122.3 L906.1,124.8 L906.6,107.3 L907.1,99.8 L907.6,117.3 L908.1,98.5 L908.7,99.8 L909.2,128.6 L909.8,127.3 L910.3,118.5 L910.8,103.5 L911.3,108.5 L911.8,132.3 L912.3,97.3 L912.8,99.8 L913.9,136.1 L914.5,126.1 L915.0,102.3 L915.4,126.1 L915.9,103.5 L916.4,126.1 L916.9,94.8 L917.5,117.3 L918.0,123.6 L918.6,102.3 L919.1,102.3 L919.7,111.0 L920.2,109.8 L920.7,96.0 L921.2,117.3 L921.7,116.0 L922.2,134.8 L922.7,123.6 L923.1,123.6 L923.6,124.8 L924.8,122.3 L925.3,122.3 L925.8,132.3 L926.4,107.3 L926.9,119.8 L927.5,93.5 L928.0,108.5 L928.6,93.5 L929.1,122.3 L929.6,104.8 L930.1,126.1 L930.6,106.0 L931.1,99.8 L931.6,112.3 L932.1,127.3 L932.7,98.5 L933.2,99.8 L933.7,131.1 L934.2,97.3 L935.7,101.0 L936.2,112.3 L936.7,114.8 L937.2,96.0 L937.8,102.3 L938.2,122.3 L938.7,129.8 L939.3,122.3 L939.8,129.8 L940.3,101.0 L940.8,97.3 L941.4,96.0 L941.9,121.0 L942.5,126.1 L943.0,128.6 L943.5,103.5 L944.0,127.3 L944.5,116.0 L945.0,89.8 L945.4,118.5 L946.5,76.0 L947.0,101.0 L947.5,109.8 L948.0,89.8 L948.5,112.3 L949.0,106.0 L949.5,128.6 L950.1,112.3 L950.6,128.6 L951.1,104.8 L951.6,103.5 L952.0,101.0 L952.6,126.1 L953.0,109.8 L953.5,109.8 L954.0,111.0 L954.6,123.6 L955.1,123.6 L955.6,103.5 L956.1,103.5 L957.4,104.8 L957.9,129.8 L958.4,98.5 L959.0,96.0 L959.5,134.8 L959.9,106.0 L960.5,107.3 L961.0,136.1 L961.5,121.0 L962.1,103.5 L962.6,129.8 L963.1,131.1 L963.6,121.0 L964.1,119.8 L964.6,112.3 L965.1,124.8 L965.7,98.5 L966.2,102.3 L966.7,121.0 L967.2,124.8 L968.3,119.8 L968.7,121.0 L969.2,111.0 L969.8,122.3 L970.3,91.0 L970.8,114.8 L971.3,111.0 L971.8,131.1 L972.3,116.0 L972.8,89.8 L973.3,132.3 L973.8,124.8 L974.3,102.3 L974.7,112.3 L975.3,117.3 L975.8,124.8 L976.3,124.8 L976.8,122.3 L977.4,98.5 L977.9,132.3 L979.1,119.8 L979.6,103.5 L980.1,103.5 L980.7,119.8 L981.2,107.3 L981.8,119.8 L982.3,128.6 L982.8,98.5 L983.3,137.3 L983.8,121.0 L984.3,127.3 L984.9,109.8 L985.4,109.8 L986.0,126.1 L986.5,114.8 L987.1,128.6 L987.6,93.5 L988.2,107.3 L988.7,108.5 L990.0,108.5 L990.4,98.5 L990.9,116.0 L991.5,128.6 L992.0,111.0 L992.5,96.0 L993.0,117.3 L993.5,133.6 L994.0,111.0 L994.5,107.3 L995.0,119.8 L995.5,114.8 L996.1,127.3 L996.6,114.8 L997.1,104.8 L997.6,113.5 L998.0,97.3 L998.5,118.5 L999.0,134.8 L999.5,92.3 L1000.8,116.0 L1001.3,92.3 L1001.8,129.8 L1002.4,117.3 L1002.9,128.6 L1003.5,133.6 L1004.0,133.6 L1004.5,134.8 L1005.0,121.0 L1005.5,118.5 L1005.9,123.6 L1006.5,132.3 L1007.0,131.1 L1007.5,118.5 L1008.0,89.8 L1008.5,101.0 L1009.0,96.0 L1009.6,106.0 L1010.1,127.3 L1010.7,108.5 L1011.7,114.8 L1012.3,104.8 L1012.7,122.3 L1013.2,121.0 L1013.7,113.5 L1014.3,106.0 L1014.8,124.8 L1015.4,129.8 L1015.9,114.8 L1016.5,133.6 L1017.0,97.3 L1017.6,109.8 L1018.1,132.3 L1018.7,99.8 L1019.2,108.5 L1019.7,104.8 L1020.2,123.6 L1020.7,94.8 L1021.2,116.0 L1022.6,102.3 L1023.1,109.8 L1023.6,101.0 L1024.1,106.0 L1024.6,129.8 L1025.1,121.0 L1025.8,103.5 L1026.3,123.6 L1026.8,116.0 L1027.4,123.6 L1027.8,137.3 L1028.4,98.5 L1028.9,116.0 L1029.4,117.3 L1029.9,93.5 L1030.4,128.6 L1030.9,93.5 L1031.4,128.6 L1031.9,127.3 L1032.4,93.5 L1034.3,116.0 L1034.8,127.3 L1035.3,107.3 L1035.7,91.0 L1036.3,126.1 L1036.7,123.6 L1037.2,121.0 L1037.7,142.3 L1038.2,119.8 L1038.8,176.1 L1039.3,196.1 L1039.9,209.9 L1040.4,263.7 L1041.0,283.7 L1041.5,302.5 L1042.1,312.5 L1042.6,292.5 L1043.1,273.7 L1043.6,286.2 L1046.0,216.1 L1046.4,223.7 L1046.9,236.2 L1047.4,256.2 L1047.9,298.7 L1048.4,321.3 L1048.9,286.2 L1049.4,288.7 L1049.9,281.2 L1050.4,270.0 L1051.0,297.5 L1051.5,287.5 L1052.1,259.9 L1052.6,231.2 L1053.2,221.2 L1053.7,239.9 L1054.2,257.4 L1054.7,263.7 L1055.3,285.0 L1057.6,385.1 L1058.0,351.3 L1058.5,382.6 L1059.1,345.0 L1059.6,318.8 L1060.2,347.5 L1060.7,352.5 L1061.3,332.5 L1061.8,346.3 L1062.4,315.0 L1062.9,300.0 L1063.5,288.7 L1064.0,270.0 L1064.6,285.0 L1065.1,296.2 L1065.6,288.7 L1066.1,295.0 L1066.7,267.5 L1067.2,295.0 L1069.3,390.1 L1069.8,375.1 L1070.3,358.8 L1072.5,456.4 L1073.0,433.9 L1073.6,413.9 L1074.2,420.1 L1074.8,396.3 L1075.4,392.6 L1076.0,381.3 L1076.6,377.6 L1077.2,370.1 L1077.8,362.6 L1078.4,358.8 L1079.0,353.8 L1080.5,342.5 L1081.0,340.0 L1081.6,337.5 L1082.2,333.8 L1082.8,331.3 L1083.4,331.3 L1084.0,331.3" fill="none" stroke="#ff7f0e" stroke-width="1.1" opacity="0.85"/><text x="616" y="572" font-size="11" fill="#888">time 0..47 s — altitude (blue) &amp; roll (orange)</text></svg>