<svg xmlns="http://www.w3.org/2000/svg" width="1140" height="600" font-family="sans-serif" font-size="13"><rect width="1140" height="600" fill="white"/><text x="20" y="26" font-size="15" fill="#333">Coludo flight</text><rect x="20" y="40" width="540" height="540" fill="#fbfbfb" stroke="#ddd"/><rect x="81" y="227" width="449" height="97" fill="#cde" stroke="#369" opacity="0.7"/><text x="81" y="222" fill="#369" font-size="12">landing zone</text><circle cx="365" cy="378" r="5" fill="black"/><text x="373" y="382" font-size="12">pad</text><path d="M366.1,377.9 L366.1,377.9 L366.1,377.9 L366.1,377.9 L366.1,377.9 L366.1,377.9 L366.1,377.9 L366.1,377.9 L366.1,377.9 L366.1,377.9 L366.1,377.9 L366.1,377.9 L366.1,377.9 L366.1,377.9 L366.1,377.9 L366.1,377.9 L366.1,377.9 L366.1,377.9 L366.1,377.9 L366.1,377.9 L366.1,377.9 L366.1,377.9 L366.1,377.9 L366.1,377.9 L366.1,377.9 L366.1,377.9 L366.1,377.9 L366.1,377.9 L366.1,377.9 L366.1,377.9 L366.1,377.9 L366.1,377.9 L366.1,377.9 L366.1,377.9 L366.1,377.9 L366.1,377.9 L366.1,377.9 L366.1,377.9 L366.1,377.9 L366.1,377.9 L366.1,377.9 L366.1,377.9 L366.1,377.9 L366.1,377.9 L366.1,377.9 L366.1,377.9 L366.1,377.9 L366.1,377.9 L366.1,377.9 L366.1,377.9 L366.1,377.9 L366.1,377.9 L366.1,377.9 L366.1,377.9 L366.1,377.9 L366.1,377.9 L366.1,377.9 L366.1,377.9 L366.1,377.9 L366.1,377.9 L366.1,377.9 L366.1,377.9 L366.1,377.9 L366.1,377.9 L366.1,377.9 L366.1,377.9 L366.1,377.9 L366.1,377.9 L366.1,377.9 L366.1,377.4 L366.1,376.9 L366.1,376.9 L367.6,376.3 L367.6,375.8 L367.6,375.8 L368.6,375.2 L368.6,375.2 L368.6,375.2 L371.0,375.2 L371.0,375.2 L373.4,375.2 L375.3,375.2 L375.3,375.2 L375.8,375.2 L375.8,375.8 L378.2,375.8 L380.6,376.3 L380.6,376.9 L383.0,376.9 L383.0,377.4 L383.0,377.9 L385.4,377.9 L387.9,378.5 L390.3,379.0 L390.3,379.5 L390.8,380.1 L392.7,380.6 L395.1,381.1 L395.1,381.7 L397.5,382.2 L398.5,382.2 L398.5,383.3 L399.9,383.8 L402.3,384.3 L404.8,384.3 L404.8,385.4 L406.2,385.4 L407.2,385.9 L409.6,385.9 L412.0,386.5 L412.0,387.0 L413.9,387.5 L414.4,388.1 L414.4,388.6 L416.8,388.6 L419.2,389.2 L419.2,389.7 L421.6,389.7 L423.6,390.2 L424.1,390.8 L424.1,390.8 L426.5,391.3 L426.5,391.3 L428.9,391.3 L429.4,391.8 L429.4,391.8 L431.3,392.4 L433.7,392.4 L433.7,392.4 L436.1,392.4 L436.1,392.4 L437.1,392.9 L437.1,392.9 L438.5,392.9 L441.0,392.9 L441.0,392.9 L441.0,392.9 L443.4,392.9 L444.8,392.9 L444.8,392.9 L444.8,392.9 L445.8,392.4 L445.8,392.4 L448.2,392.4 L448.2,392.4 L450.6,392.4 L450.6,391.8 L450.6,391.8 L453.0,391.8 L453.0,391.3 L454.5,391.3 L454.5,390.8 L454.5,390.8 L455.4,390.2 L455.4,390.2 L457.8,389.7 L457.8,389.7 L457.8,389.2 L457.8,389.2 L460.3,388.6 L460.3,388.6 L460.3,388.1 L462.2,387.5 L462.2,387.5 L462.2,387.0 L462.7,386.5 L462.7,386.5 L462.7,385.9 L465.1,385.9 L465.1,385.4 L465.1,385.4 L465.1,384.9 L467.5,384.3 L467.5,383.8 L467.5,383.3 L467.5,383.3 L468.0,382.7 L468.0,382.2 L468.0,381.7 L468.0,381.1 L469.9,380.6 L469.9,380.6 L469.9,380.1 L469.9,379.5 L469.9,379.0 L469.9,378.5 L472.3,377.9 L472.3,377.4 L472.3,376.9 L472.3,376.3 L472.3,375.8 L474.7,375.2 L474.7,375.2 L474.7,375.2 L474.7,374.7 L474.7,374.2 L474.7,373.6 L474.7,373.1 L475.7,372.6 L475.7,372.0 L475.7,371.5 L475.7,371.5 L475.7,371.0 L475.7,370.4 L475.7,369.4 L477.1,369.4 L477.1,368.8 L477.1,367.8 L477.1,367.2 L477.1,366.7 L477.1,366.2 L477.1,365.6 L477.1,365.1 L477.1,364.6 L479.6,364.6 L479.6,364.0 L479.6,363.5 L479.6,362.9 L479.6,362.4 L479.6,361.9 L479.6,361.3 L479.6,360.8 L482.0,360.3 L482.0,359.7 L482.0,359.7 L482.0,359.2 L482.0,358.7 L482.0,357.6 L483.4,357.1 L483.4,356.5 L483.4,356.0 L483.4,355.5 L483.4,354.9 L483.4,354.4 L484.4,353.9 L484.4,353.3 L484.4,353.3 L484.4,352.8 L484.4,352.3 L484.4,351.7 L484.4,351.7 L486.8,351.2 L486.8,350.6 L486.8,350.1 L486.8,349.6 L486.8,348.5 L486.8,348.0 L489.2,347.4 L489.2,346.9 L489.2,346.9 L489.2,346.4 L489.2,345.8 L489.2,345.3 L489.2,344.8 L491.6,343.7 L491.6,343.2 L491.6,342.6 L491.6,342.6 L491.6,342.6 L491.6,342.1 L492.1,341.6 L492.1,341.0 L492.1,340.5 L492.1,339.4 L492.1,338.9 L492.1,338.3 L492.1,337.8 L494.0,337.3 L494.0,336.7 L494.0,336.2 L494.0,335.7 L494.0,335.1 L494.0,334.6 L496.5,334.1 L496.5,333.5 L496.5,333.0 L496.5,332.5 L496.5,331.9 L496.5,331.4 L498.9,331.4 L498.9,330.9 L498.9,330.3 L498.9,329.8 L498.9,329.3 L498.9,328.7 L500.8,328.2 L500.8,327.6 L500.8,327.1 L500.8,326.6 L500.8,326.0 L500.8,325.5 L500.8,325.0 L501.3,324.4 L501.3,323.9 L501.3,323.4 L501.3,322.8 L501.3,322.3 L501.3,321.8 L501.3,321.2 L501.3,320.2 L501.3,320.2 L501.3,319.1 L501.3,318.6 L501.3,317.5 L501.3,317.0 L500.8,315.9 L500.8,314.8 L498.9,314.3 L496.5,312.7 L496.5,311.6 L494.0,310.5 L492.1,309.5 L492.1,308.9 L491.6,307.9 L489.2,306.8 L486.8,305.7 L484.4,304.7 L482.0,302.5 L477.1,301.4 L475.7,300.4 L474.7,299.3 L469.9,298.8 L468.0,297.7 L465.1,297.2 L462.7,296.1 L460.3,295.6 L454.5,294.0 L450.6,293.4 L444.8,292.4 L443.4,291.8 L438.5,291.3 L436.1,290.7 L431.3,290.7 L429.4,290.2 L424.1,290.2 L414.4,289.7 L412.0,289.7 L407.2,289.7 L402.3,289.7 L398.5,289.7 L392.7,290.2 L390.3,290.2 L385.4,290.7 L380.6,290.7 L375.8,291.3 L368.6,292.4 L363.7,292.9 L359.9,293.4 L354.1,294.0 L351.7,294.5 L344.4,295.0 L339.6,296.1 L334.8,296.6 L329.9,297.7 L320.3,298.8 L313.5,299.3 L308.2,300.4 L303.4,300.9 L298.6,301.4 L296.2,302.0 L290.4,302.0 L286.5,302.5 L282.6,302.5 L272.0,303.0 L267.2,303.0 L264.8,302.5 L260.0,302.5 L257.5,302.5 L251.7,302.0 L250.3,301.4 L245.5,301.4 L243.1,300.9 L238.2,300.4 L233.4,299.3 L228.6,298.8 L226.2,298.2 L223.8,297.7 L220.9,297.2 L218.9,296.6 L214.1,295.6 L211.7,294.5 L206.9,294.0 L199.6,292.4 L196.7,291.8 L192.4,291.3 L190.0,290.7 L187.6,290.2 L182.7,289.7 L180.3,289.1 L175.5,289.1 L173.1,288.6 L168.3,288.6 L161.0,288.6 L156.2,288.6 L151.4,288.6 L148.9,289.1 L143.6,289.1 L139.3,289.7 L134.5,290.2 L127.2,290.2 L122.4,290.7 L112.7,291.8 L103.1,294.0 L95.9,294.5 L93.4,295.0 L88.6,296.1 L83.8,296.6 L79.9,297.7 L74.1,298.2 L64.5,299.8 L62.1,300.9 L57.7,302.0 L50.0,303.0" fill="none" stroke="#1f77b4" stroke-width="1.7" opacity="0.85"/><circle cx="50" cy="303" r="4.5" fill="#1f77b4"/><text x="28" y="572" font-size="11" fill="#888">ground track — m from pad (N up)</text><rect x="580" y="40" width="540" height="540" fill="#fbfbfb" stroke="#ddd"/><text x="586" y="54" fill="#1f77b4" font-size="11">alt 343</text><text x="586" y="558" fill="#1f77b4" font-size="11">-47</text><path d="M651.6,485.5 L652.1,485.0 L652.5,485.4 L652.9,484.7 L653.4,484.5 L654.0,484.3 L654.5,483.8 L654.9,482.8 L655.3,482.7 L655.7,482.3 L656.2,480.5 L656.6,480.0 L657.0,478.9 L657.5,478.2 L657.9,476.6 L658.3,477.7 L658.8,474.0 L659.2,473.6 L659.7,472.9 L660.1,472.6 L660.5,469.9 L661.0,468.3 L661.4,464.8 L661.8,465.9 L662.3,465.7 L662.7,463.3 L663.1,460.7 L663.6,459.2 L664.0,453.6 L664.4,451.0 L664.9,451.7 L665.3,452.8 L665.8,445.6 L666.2,441.7 L666.6,440.6 L667.1,436.9 L667.5,435.8 L667.9,438.9 L668.4,428.3 L668.8,426.3 L669.2,423.9 L669.7,427.1 L670.1,417.2 L670.5,420.2 L671.0,413.8 L671.4,410.2 L671.8,412.6 L672.3,411.8 L672.7,402.8 L673.1,406.3 L673.6,397.6 L674.0,393.2 L674.5,394.3 L674.9,392.4 L675.3,381.5 L675.8,368.9 L676.2,383.5 L676.7,373.4 L677.1,366.8 L677.5,371.1 L678.0,353.7 L678.4,356.3 L678.8,353.5 L679.3,346.6 L679.7,354.1 L680.1,333.9 L680.6,325.3 L681.0,323.7 L681.4,319.2 L681.9,317.8 L682.3,321.5 L682.7,323.3 L683.2,322.1 L683.6,318.6 L684.0,304.7 L684.5,300.5 L684.9,280.5 L685.3,279.9 L685.8,278.3 L686.2,269.9 L686.8,266.6 L687.2,275.3 L687.6,255.4 L688.1,257.4 L688.5,276.0 L688.9,257.8 L689.4,247.8 L689.8,262.4 L690.2,240.2 L690.7,236.3 L691.1,245.8 L691.6,256.2 L692.0,251.0 L692.4,245.5 L692.9,208.4 L693.3,204.2 L693.7,230.0 L694.2,216.8 L694.6,217.8 L695.0,235.1 L695.7,189.8 L696.2,232.8 L696.6,193.3 L697.0,213.6 L697.4,171.7 L697.8,207.0 L698.3,169.7 L698.7,217.5 L699.1,200.5 L699.6,207.1 L700.0,207.1 L700.4,205.2 L700.9,180.5 L701.3,165.4 L701.8,184.5 L702.2,179.8 L702.6,144.9 L703.0,185.6 L703.5,153.1 L703.9,132.4 L704.3,140.2 L704.7,188.2 L705.1,152.4 L705.5,134.1 L705.9,163.5 L706.4,172.2 L706.8,141.8 L707.2,114.3 L707.7,111.2 L708.1,144.5 L708.6,107.8 L709.0,172.0 L709.4,118.8 L709.9,155.6 L710.3,142.4 L710.7,129.8 L711.2,103.8 L711.6,145.9 L712.0,139.3 L712.5,125.2 L712.9,89.6 L713.4,115.1 L713.9,94.5 L714.3,108.5 L714.7,149.9 L715.2,81.9 L715.6,120.7 L716.1,79.3 L716.5,148.4 L716.9,136.6 L717.4,112.8 L717.8,92.0 L718.2,87.2 L718.7,89.3 L719.1,104.1 L719.5,83.9 L720.0,87.3 L720.4,131.0 L720.8,130.0 L721.3,86.9 L721.7,76.3 L722.2,133.9 L722.6,136.6 L723.0,107.8 L723.4,97.7 L723.9,112.6 L724.3,102.4 L724.8,109.8 L725.2,126.0 L725.6,128.9 L726.1,115.7 L726.5,135.8 L727.0,104.1 L727.4,114.2 L727.8,117.6 L728.3,96.6 L728.7,121.5 L729.1,102.1 L729.6,131.8 L730.0,87.0 L730.4,98.5 L730.9,79.0 L731.5,142.5 L732.0,143.2 L732.4,119.4 L732.8,99.0 L733.3,79.8 L733.7,131.3 L734.2,90.0 L734.6,104.0 L735.0,76.0 L735.5,118.1 L735.9,87.7 L736.4,91.9 L736.8,77.8 L737.2,112.1 L737.7,102.9 L738.1,80.5 L738.6,89.9 L739.0,142.7 L739.5,99.2 L739.9,127.2 L740.7,108.9 L741.2,118.3 L741.6,123.7 L742.0,114.6 L742.5,127.8 L742.9,146.5 L743.3,94.8 L743.8,148.2 L744.2,108.1 L744.6,95.4 L745.1,116.2 L745.5,123.4 L746.0,84.9 L746.4,100.7 L746.8,139.9 L747.3,127.0 L747.7,144.5 L748.1,104.1 L748.6,139.7 L749.0,116.2 L749.9,141.1 L750.3,90.5 L750.7,132.8 L751.2,101.9 L751.6,129.0 L752.1,109.3 L752.5,136.1 L752.9,150.0 L753.4,111.7 L753.8,113.0 L754.2,92.4 L754.7,88.1 L755.1,99.1 L755.5,115.8 L756.0,108.9 L756.4,155.8 L756.8,90.2 L757.3,151.3 L757.7,84.7 L758.2,118.5 L759.0,157.7 L759.5,133.3 L759.9,109.6 L760.3,149.3 L760.8,143.5 L761.2,145.9 L761.6,129.3 L762.1,88.9 L762.5,91.7 L763.0,106.0 L763.4,116.9 L763.8,109.8 L764.3,135.4 L764.7,89.4 L765.1,108.0 L765.6,158.2 L766.0,133.7 L766.4,119.4 L766.9,121.4 L767.3,97.6 L768.2,151.1 L768.6,141.4 L769.1,142.6 L769.5,147.9 L769.9,122.1 L770.4,98.7 L770.8,156.7 L771.2,128.2 L771.7,106.9 L772.1,104.0 L772.5,120.5 L773.0,138.3 L773.4,133.3 L773.8,167.2 L774.3,118.6 L774.7,124.7 L775.2,117.8 L775.6,144.2 L776.0,110.0 L776.5,161.7 L777.3,127.6 L777.8,111.8 L778.2,121.9 L778.6,155.0 L779.1,154.3 L779.5,170.4 L780.0,114.1 L780.4,166.9 L780.8,156.6 L781.3,172.0 L781.7,127.4 L782.1,158.9 L782.6,148.0 L783.0,162.4 L783.4,173.4 L783.9,173.7 L784.3,141.8 L784.7,109.1 L785.2,145.3 L785.6,153.8 L786.0,129.5 L786.5,146.8 L786.9,167.8 L787.4,122.3 L787.8,125.8 L788.3,154.8 L788.7,164.2 L789.2,161.8 L789.6,142.0 L790.1,118.7 L790.5,140.2 L790.9,165.5 L791.4,167.7 L791.8,116.5 L792.2,149.3 L792.7,139.2 L793.1,164.1 L793.5,152.6 L794.0,158.8 L794.4,183.8 L794.9,164.4 L795.7,119.6 L796.1,157.9 L796.6,164.1 L797.0,165.3 L797.5,168.4 L797.9,148.5 L798.3,168.2 L798.7,175.9 L799.1,142.5 L799.6,158.2 L800.0,155.2 L800.4,141.0 L800.9,130.0 L801.3,131.6 L801.7,180.4 L802.2,160.0 L802.6,127.8 L803.0,143.2 L803.5,189.5 L803.9,145.5 L804.4,170.6 L804.9,134.5 L805.3,179.3 L805.8,134.6 L806.2,167.5 L806.6,185.4 L807.1,134.5 L807.5,147.9 L807.9,177.1 L808.4,164.1 L808.8,160.8 L809.2,173.2 L809.7,157.1 L810.1,135.2 L810.5,196.7 L811.0,186.6 L811.4,184.8 L811.9,180.1 L812.4,189.8 L812.8,137.0 L813.2,183.6 L814.4,153.9 L814.8,175.4 L815.3,160.3 L815.8,139.6 L816.2,143.3 L816.6,193.4 L817.1,186.4 L817.5,168.4 L818.0,192.8 L818.4,192.5 L818.8,203.3 L819.3,189.3 L819.7,178.7 L820.1,204.8 L820.6,193.8 L821.0,197.5 L821.4,168.8 L821.9,165.2 L822.3,201.1 L822.8,208.4 L824.0,207.1 L824.4,209.7 L824.8,188.5 L825.3,174.7 L825.7,193.5 L826.2,180.5 L826.6,204.9 L827.0,195.0 L827.5,205.7 L827.9,163.1 L828.3,174.0 L828.8,184.6 L829.2,163.1 L829.6,205.4 L830.1,187.7 L830.5,192.9 L830.9,188.8 L831.4,162.1 L831.8,208.7 L832.3,179.5 L833.5,180.8 L834.0,184.7 L834.4,217.0 L834.9,208.6 L835.3,209.2 L835.7,197.7 L836.2,217.5 L836.6,213.5 L837.0,171.5 L837.5,216.6 L837.9,182.3 L838.4,224.8 L838.8,192.6 L839.2,187.7 L839.7,215.6 L840.1,223.4 L840.5,197.1 L841.0,191.5 L841.4,185.8 L841.8,209.4 L843.1,213.5 L843.6,204.0 L844.0,210.7 L844.5,204.2 L844.9,197.8 L845.3,209.0 L845.8,210.9 L846.2,190.7 L846.6,189.1 L847.1,212.5 L847.5,231.1 L847.9,196.4 L848.4,228.7 L848.8,194.6 L849.2,213.4 L849.7,224.1 L850.1,194.0 L850.6,233.6 L851.0,214.5 L852.7,215.3 L853.2,200.6 L853.6,204.5 L854.0,224.6 L854.5,188.3 L854.9,204.9 L855.4,224.9 L855.8,192.3 L856.2,219.8 L856.7,231.3 L857.1,240.0 L857.5,220.3 L858.0,201.3 L858.4,238.4 L858.8,234.7 L859.3,245.8 L859.7,196.4 L860.1,196.8 L860.6,217.7 L861.0,197.5 L862.3,219.3 L862.7,224.8 L863.2,234.3 L863.6,236.4 L864.1,239.9 L864.5,205.8 L864.9,221.0 L865.4,222.5 L865.8,251.2 L866.2,230.9 L866.7,241.1 L867.1,235.7 L867.6,244.4 L868.0,227.0 L868.4,237.4 L868.9,238.8 L869.3,252.5 L869.7,220.2 L870.2,241.6 L870.6,220.5 L871.9,258.0 L872.3,243.3 L872.8,257.0 L873.2,231.8 L873.7,238.0 L874.1,243.1 L874.5,251.2 L875.0,220.7 L875.4,259.5 L875.8,259.5 L876.3,226.3 L876.7,225.3 L877.1,245.2 L877.6,253.8 L878.0,247.9 L878.5,238.7 L878.9,236.7 L879.3,264.0 L879.8,253.2 L880.2,232.5 L881.4,241.3 L881.9,235.7 L882.3,270.1 L882.7,233.9 L883.2,260.6 L883.6,251.7 L884.0,265.7 L884.5,250.7 L884.9,247.2 L885.3,231.8 L885.8,239.2 L886.2,277.5 L886.6,273.4 L887.1,239.9 L887.5,247.8 L888.0,265.5 L888.4,266.3 L888.8,275.4 L889.3,251.5 L889.7,249.5 L891.0,268.7 L891.4,257.3 L891.9,247.1 L892.3,272.4 L892.7,260.5 L893.2,255.6 L893.6,272.1 L894.1,269.1 L894.5,274.2 L894.9,269.3 L895.4,274.4 L895.8,247.4 L896.2,250.8 L896.7,265.2 L897.1,287.2 L897.5,281.3 L898.0,253.3 L898.4,291.6 L898.9,264.9 L899.3,268.8 L900.6,284.7 L901.0,272.7 L901.5,266.1 L901.9,290.8 L902.3,270.8 L902.8,282.3 L903.2,294.7 L903.6,289.4 L904.1,278.1 L904.5,270.5 L905.0,278.8 L905.4,291.6 L905.8,265.8 L906.3,279.8 L906.7,281.3 L907.1,282.6 L907.6,297.8 L908.0,271.8 L908.4,269.4 L908.9,268.0 L910.2,282.7 L910.6,299.2 L911.1,295.0 L911.5,273.7 L911.9,281.2 L912.4,292.0 L912.8,304.5 L913.2,308.4 L913.7,286.0 L914.1,309.3 L914.5,290.2 L915.0,303.5 L915.4,304.0 L915.8,305.4 L916.3,294.2 L916.7,302.2 L917.2,283.9 L917.6,283.3 L918.0,311.2 L918.5,287.3 L919.8,308.9 L920.2,290.1 L920.6,292.5 L921.1,309.1 L921.5,296.0 L921.9,283.6 L922.4,284.2 L922.8,302.2 L923.3,287.0 L923.7,319.5 L924.1,313.2 L924.6,318.0 L925.0,316.3 L925.4,318.3 L925.9,311.4 L926.3,308.2 L926.7,319.7 L927.2,299.2 L927.6,322.1 L928.1,308.1 L929.3,303.6 L929.8,317.3 L930.2,303.9 L930.7,304.2 L931.1,307.9 L931.5,296.6 L932.0,318.8 L932.4,320.1 L932.8,323.8 L933.3,306.2 L933.7,324.5 L934.2,328.5 L934.6,323.7 L935.0,323.2 L935.5,330.3 L935.9,316.4 L936.3,304.1 L936.8,317.2 L937.2,319.8 L937.6,337.2 L939.0,309.4 L939.4,340.1 L939.8,338.0 L940.3,321.2 L940.7,316.1 L941.1,321.6 L941.6,326.0 L942.0,323.3 L942.4,340.9 L942.9,332.3 L943.3,327.6 L943.7,330.2 L944.2,343.8 L944.6,322.4 L945.1,330.3 L945.5,346.2 L945.9,335.4 L946.4,319.3 L946.8,323.3 L947.2,343.9 L948.5,325.5 L949.0,334.8 L949.4,349.9 L949.8,339.3 L950.3,331.2 L950.7,334.9 L951.2,334.9 L951.6,336.3 L952.0,335.1 L952.5,336.6 L952.9,347.7 L953.3,355.8 L953.7,347.8 L954.2,354.2 L954.6,355.9 L955.1,332.5 L955.5,355.7 L955.9,347.9 L956.4,334.3 L956.8,338.2 L958.1,339.0 L958.6,339.6 L959.0,339.8 L959.4,365.9 L959.9,342.0 L960.3,366.4 L960.7,354.4 L961.2,364.1 L961.6,353.4 L962.0,344.4 L962.5,354.6 L962.9,347.3 L963.4,352.3 L963.8,365.9 L964.2,347.6 L964.7,361.1 L965.1,358.1 L965.5,351.5 L966.0,364.0 L966.4,365.2 L967.7,370.5 L968.1,375.8 L968.6,358.9 L969.0,367.2 L969.5,367.6 L969.9,365.3 L970.7,357.1 L971.2,375.1 L971.6,359.8 L972.0,359.3 L972.4,367.5 L972.9,370.8 L973.3,361.3 L973.7,363.4 L974.2,383.0 L974.6,378.5 L975.0,372.5 L975.5,381.6 L975.9,365.5 L976.3,367.6 L978.1,383.1 L978.4,373.5 L978.9,376.0 L979.3,389.9 L979.7,392.3 L980.2,391.1 L980.6,376.3 L981.1,394.2 L981.5,381.0 L981.9,383.4 L982.4,386.3 L982.8,390.9 L983.2,387.6 L983.7,384.6 L984.1,384.3 L984.5,393.7 L985.0,383.2 L985.4,388.1 L985.8,391.2 L986.3,391.7 L986.7,389.3 L988.4,386.8 L988.8,387.0 L989.2,399.0 L989.7,397.7 L990.1,400.9 L990.6,400.5 L991.0,399.6 L991.4,408.9 L991.9,407.4 L992.3,398.8 L992.7,394.8 L993.2,397.5 L993.6,411.2 L994.0,410.0 L994.5,410.1 L994.9,404.2 L995.3,400.1 L995.8,410.4 L996.2,412.2 L996.7,406.8 L998.7,407.0 L999.1,408.4 L999.5,410.6 L1000.0,415.6 L1000.4,412.4 L1000.8,410.7 L1001.3,410.3 L1001.7,416.1 L1002.1,417.1 L1002.6,418.2 L1003.0,414.9 L1003.5,422.0 L1003.9,420.1 L1004.3,418.3 L1004.8,422.8 L1005.2,421.6 L1005.6,420.8 L1006.1,426.1 L1006.5,428.7 L1006.9,421.5 L1007.4,428.4 L1009.1,428.8 L1009.5,427.2 L1009.9,435.8 L1010.3,430.6 L1010.8,429.0 L1011.2,429.6 L1011.6,430.9 L1012.1,434.7 L1012.5,433.9 L1013.0,435.4 L1013.4,431.7 L1013.8,438.9 L1014.3,433.5 L1014.7,440.3 L1015.1,436.4 L1015.6,443.8 L1016.0,444.8 L1016.4,439.0 L1016.9,439.0 L1017.3,440.4 L1019.4,448.7 L1019.8,441.6 L1020.2,444.7 L1020.6,446.2 L1021.1,447.7 L1021.5,452.6 L1021.9,452.6 L1022.3,447.8 L1022.7,450.6 L1023.2,451.4 L1023.6,453.7 L1024.0,455.6 L1024.5,453.4 L1024.9,451.4 L1025.3,453.6 L1025.8,457.6 L1026.2,453.3 L1026.6,459.0 L1027.1,459.6 L1027.5,460.2 L1027.9,459.1 L1029.7,459.1 L1030.1,463.3 L1030.6,461.1 L1031.0,465.2 L1031.4,463.0 L1031.9,462.7 L1032.3,464.1 L1032.7,464.2 L1033.2,465.6 L1033.6,466.0 L1034.1,468.5 L1034.5,469.0 L1034.9,469.4 L1035.4,469.2 L1035.8,472.8 L1036.2,472.8 L1036.7,472.2 L1037.1,473.4 L1037.5,475.0 L1038.0,475.6 L1040.0,477.4 L1040.5,477.6 L1040.9,478.9 L1041.4,479.9 L1041.8,481.3 L1042.2,481.0 L1042.7,482.5 L1043.1,483.4 L1043.6,483.5 L1044.1,484.7 L1044.5,485.2 L1044.9,485.7 L1045.4,486.4 L1045.8,487.5 L1046.3,487.8 L1046.7,488.6 L1047.1,489.4 L1047.6,489.8 L1048.0,490.8 L1048.4,491.5 L1050.4,494.5 L1050.9,495.6 L1051.3,495.1 L1051.7,496.3 L1052.2,497.2 L1052.6,497.1 L1053.1,498.0 L1053.5,500.6 L1053.9,499.5 L1054.4,502.0 L1054.8,502.2 L1055.2,501.7 L1055.7,501.8 L1056.1,502.6 L1056.5,502.6 L1057.0,506.5 L1057.4,504.5 L1057.9,508.0 L1058.3,507.5 L1058.7,508.2 L1060.8,510.5 L1061.2,513.3 L1061.7,512.2 L1062.1,510.7 L1062.6,511.6 L1063.0,516.1 L1063.4,512.3 L1063.9,513.0 L1064.3,517.5 L1064.7,519.2 L1065.2,516.5 L1065.6,519.3 L1066.0,519.4 L1066.5,519.3 L1066.9,519.4 L1067.4,521.2 L1067.8,518.6 L1068.2,522.9 L1068.7,520.2 L1069.1,527.0 L1071.1,527.2 L1071.5,528.4 L1073.6,526.7 L1074.0,528.1 L1074.5,527.1 L1074.9,529.6 L1075.4,529.9 L1075.8,530.5 L1076.2,529.7 L1076.7,530.4 L1077.1,535.9 L1077.6,531.6 L1078.0,537.7 L1078.4,537.3 L1078.9,533.8 L1079.3,540.4 L1079.7,535.0 L1080.9,542.6 L1081.4,540.7 L1081.8,538.2 L1082.3,540.1 L1082.7,538.9 L1083.1,540.5 L1083.6,544.0 L1084.0,540.8" fill="none" stroke="#1f77b4" stroke-width="1.4" opacity="0.85"/><text x="1040" y="54" fill="#ff7f0e" font-size="11">roll 49</text><text x="1090" y="558" fill="#ff7f0e" font-size="11">-20</text><path d="M651.6,406.4 L652.1,406.4 L652.5,405.8 L652.9,406.4 L653.4,405.1 L654.0,405.8 L654.5,405.8 L654.9,405.8 L655.3,405.1 L655.7,404.4 L656.2,403.7 L656.6,403.1 L657.0,402.4 L657.5,402.4 L657.9,402.4 L658.3,400.4 L658.8,399.7 L659.2,399.7 L659.7,398.3 L660.1,397.7 L660.5,395.6 L661.0,395.0 L661.4,394.3 L661.8,390.2 L662.3,388.9 L662.7,388.9 L663.1,384.9 L663.6,385.5 L664.0,382.2 L664.4,380.8 L664.9,380.8 L665.3,381.5 L665.8,376.8 L666.2,370.7 L666.6,369.3 L667.1,368.0 L667.5,370.0 L667.9,366.6 L668.4,363.3 L668.8,361.9 L669.2,361.3 L669.7,354.5 L670.1,355.9 L670.5,355.9 L671.0,347.8 L671.4,345.7 L671.8,346.4 L672.3,339.7 L672.7,333.6 L673.1,335.0 L673.6,333.6 L674.0,326.2 L674.5,333.6 L674.9,330.2 L675.3,326.2 L675.8,312.7 L676.2,314.0 L676.6,319.4 L677.1,297.2 L677.5,306.6 L678.0,303.3 L678.4,307.3 L678.8,289.1 L679.3,293.1 L679.7,296.5 L680.1,279.7 L680.6,288.4 L681.0,287.1 L681.4,268.9 L681.9,291.8 L682.3,274.9 L682.7,285.0 L683.2,270.9 L683.6,257.4 L684.0,269.5 L684.5,254.0 L684.9,259.4 L685.3,254.7 L685.8,257.4 L686.2,246.6 L686.8,262.1 L687.2,233.1 L687.6,240.5 L688.1,240.5 L688.5,254.7 L688.9,239.9 L689.4,222.3 L689.8,236.5 L690.2,217.6 L690.7,237.2 L691.1,212.2 L691.6,204.1 L692.0,200.8 L692.4,203.5 L692.9,217.6 L693.3,197.4 L693.7,208.8 L694.2,215.6 L694.6,191.3 L695.0,199.4 L695.7,208.2 L696.2,175.8 L696.6,205.5 L697.0,203.5 L697.4,174.5 L697.8,177.8 L698.3,179.2 L698.7,191.3 L699.1,162.3 L699.6,185.9 L700.0,184.6 L700.4,183.2 L700.9,150.9 L701.3,181.9 L701.8,153.6 L702.2,144.8 L702.6,180.5 L703.0,130.6 L703.5,156.2 L703.9,151.5 L704.3,139.4 L704.7,158.9 L705.1,143.4 L705.5,127.9 L705.9,136.0 L706.4,111.7 L706.8,120.5 L707.2,149.5 L707.7,158.3 L708.1,140.1 L708.6,129.9 L709.0,143.4 L709.4,141.4 L709.9,94.2 L710.3,99.6 L710.7,128.6 L711.2,99.6 L711.6,92.2 L712.0,136.7 L712.5,96.2 L712.9,139.4 L713.3,138.0 L713.9,84.8 L714.3,113.8 L714.7,111.1 L715.2,96.9 L715.6,94.2 L716.0,95.6 L716.5,87.5 L716.9,89.5 L717.4,113.8 L717.8,101.0 L718.2,78.0 L718.7,114.4 L719.1,78.7 L719.5,76.0 L720.0,410.5 L720.4,397.7 L720.8,376.8 L721.3,364.6 L721.7,351.8 L722.2,345.7 L722.6,330.9 L723.0,332.9 L723.4,326.2 L723.9,306.6 L724.3,305.3 L724.8,297.9 L725.2,312.7 L725.6,295.8 L726.1,312.0 L726.5,289.1 L726.9,290.4 L727.4,304.6 L727.8,295.8 L728.3,306.6 L728.7,307.3 L729.1,300.6 L729.6,316.1 L730.0,301.2 L730.4,308.7 L730.9,322.1 L731.5,314.7 L732.0,317.4 L732.4,327.5 L732.8,330.9 L733.3,337.6 L733.7,342.4 L734.2,335.6 L734.6,337.6 L735.0,351.8 L735.5,353.8 L735.9,351.1 L736.4,359.9 L736.8,359.9 L737.2,366.6 L737.7,370.7 L738.1,373.4 L738.6,373.4 L739.0,377.4 L739.5,369.3 L739.9,377.4 L740.7,382.2 L741.2,380.8 L741.6,376.8 L742.0,375.4 L742.5,375.4 L742.9,386.9 L743.3,386.2 L743.8,384.2 L744.2,387.6 L744.6,388.9 L745.1,390.2 L745.5,396.3 L746.0,395.6 L746.4,392.3 L746.8,393.6 L747.3,395.6 L747.7,399.7 L748.1,395.0 L748.6,400.4 L749.0,403.1 L749.9,397.7 L750.3,394.3 L750.7,396.3 L751.2,397.7 L751.6,395.0 L752.1,398.3 L752.5,401.0 L752.9,403.1 L753.4,403.7 L753.8,403.7 L754.2,403.1 L754.7,405.8 L755.1,406.4 L755.5,405.8 L756.0,409.8 L756.4,417.2 L756.8,416.5 L757.3,421.9 L757.7,419.2 L758.2,416.5 L759.0,424.0 L759.5,425.3 L759.9,430.7 L760.3,427.3 L760.8,427.3 L761.2,427.3 L761.6,428.0 L762.1,427.3 L762.5,428.0 L762.9,427.3 L763.4,430.7 L763.8,427.3 L764.3,428.7 L764.7,424.6 L765.1,429.4 L765.6,434.1 L766.0,430.0 L766.4,432.7 L766.9,436.1 L767.3,438.1 L768.2,434.8 L768.6,430.0 L769.0,428.7 L769.5,432.1 L769.9,437.5 L770.4,430.7 L770.8,427.3 L771.2,433.4 L771.7,438.1 L772.1,435.4 L772.5,432.1 L773.0,433.4 L773.4,436.1 L773.8,428.7 L774.3,426.7 L774.7,423.3 L775.2,430.7 L775.6,427.3 L776.0,430.0 L776.5,435.4 L777.3,434.8 L777.8,429.4 L778.2,433.4 L778.6,427.3 L779.1,431.4 L779.5,430.0 L779.9,436.8 L780.4,434.8 L780.8,434.1 L781.3,436.8 L781.7,429.4 L782.1,429.4 L782.6,436.8 L783.0,434.1 L783.4,434.1 L783.9,428.7 L784.3,434.1 L784.7,439.5 L785.2,438.8 L785.6,433.4 L786.0,434.1 L786.5,424.0 L786.9,424.0 L787.4,423.3 L787.8,425.3 L788.3,428.7 L788.7,427.3 L789.2,430.7 L789.6,429.4 L790.1,424.6 L790.5,425.3 L790.9,428.7 L791.4,431.4 L791.8,432.1 L792.2,435.4 L792.7,438.1 L793.1,440.1 L793.5,439.5 L794.0,437.5 L794.4,435.4 L794.9,436.8 L795.7,428.0 L796.1,430.0 L796.6,430.0 L797.0,430.7 L797.4,430.7 L797.9,429.4 L798.3,434.1 L798.7,431.4 L799.1,428.0 L799.6,430.0 L800.0,424.0 L800.4,430.0 L800.9,423.3 L801.3,426.7 L801.7,426.0 L802.2,428.0 L802.6,430.7 L803.0,430.0 L803.5,427.3 L803.9,426.0 L804.4,434.8 L804.9,409.1 L805.3,407.8 L805.7,413.2 L806.2,414.5 L806.6,417.2 L807.1,418.6 L807.5,414.5 L807.9,414.5 L808.4,416.5 L808.8,421.9 L809.2,422.6 L809.7,422.6 L810.1,424.6 L810.5,421.3 L811.0,422.6 L811.4,423.3 L811.9,421.3 L812.4,424.0 L812.8,419.9 L813.2,417.9 L814.4,420.6 L814.8,419.2 L815.3,419.2 L815.8,419.2 L816.2,417.2 L816.6,417.2 L817.1,414.5 L817.5,416.5 L818.0,415.9 L818.4,421.9 L818.8,424.0 L819.3,423.3 L819.7,420.6 L820.1,421.3 L820.6,418.6 L821.0,417.2 L821.4,421.3 L821.9,421.3 L822.3,414.5 L822.7,413.2 L823.9,411.2 L824.4,411.8 L824.8,412.5 L825.3,412.5 L825.7,415.2 L826.1,419.2 L826.6,419.9 L827.0,419.2 L827.5,419.9 L827.9,418.6 L828.3,417.9 L828.8,417.2 L829.2,416.5 L829.6,415.2 L830.1,413.2 L830.5,415.2 L830.9,415.9 L831.4,414.5 L831.8,419.2 L832.2,423.3 L833.5,417.2 L834.0,421.9 L834.4,422.6 L834.9,416.5 L835.3,419.2 L835.7,415.2 L836.2,416.5 L836.6,415.2 L837.0,412.5 L837.5,414.5 L837.9,411.8 L838.4,410.5 L838.8,409.8 L839.2,412.5 L839.7,413.9 L840.1,414.5 L840.5,414.5 L841.0,403.7 L841.4,405.1 L841.8,404.4 L843.1,405.8 L843.6,406.4 L844.0,407.8 L844.5,406.4 L844.9,407.1 L845.3,408.5 L845.8,409.8 L846.2,410.5 L846.6,411.2 L847.1,414.5 L847.5,411.8 L847.9,412.5 L848.4,413.9 L848.8,410.5 L849.2,411.2 L849.7,407.8 L850.1,408.5 L850.6,409.8 L851.0,411.2 L852.7,430.7 L853.1,424.6 L853.6,419.9 L854.0,419.2 L854.5,415.9 L854.9,416.5 L855.3,414.5 L855.8,415.2 L856.2,415.2 L856.7,413.9 L857.1,413.2 L857.5,412.5 L858.0,411.2 L858.4,409.1 L858.8,409.1 L859.3,409.8 L859.7,409.1 L860.1,407.8 L860.6,407.8 L861.0,408.5 L862.3,413.9 L862.7,411.2 L863.2,409.1 L863.6,405.8 L864.1,405.8 L864.5,403.7 L864.9,402.4 L865.4,403.1 L865.8,403.7 L866.2,405.1 L866.7,406.4 L867.1,402.4 L867.6,402.4 L868.0,402.4 L868.4,403.1 L868.9,399.7 L869.3,399.0 L869.7,397.0 L870.2,396.3 L870.6,398.3 L871.9,404.4 L872.3,402.4 L872.8,400.4 L873.2,401.7 L873.7,403.1 L874.1,399.0 L874.5,396.3 L875.0,397.7 L875.4,395.0 L875.8,397.0 L876.3,399.7 L876.7,401.7 L877.1,401.0 L877.6,404.4 L878.0,403.7 L878.4,405.8 L878.9,405.8 L879.3,395.6 L879.8,396.3 L880.2,399.0 L881.4,397.7 L881.8,394.3 L882.3,397.0 L882.7,398.3 L883.2,399.7 L883.6,396.3 L884.0,403.1 L884.5,404.4 L884.9,405.1 L885.3,405.1 L885.8,405.8 L886.2,407.8 L886.6,407.8 L887.1,409.8 L887.5,412.5 L887.9,413.2 L888.4,411.8 L888.8,410.5 L889.3,411.8 L889.7,410.5 L891.0,407.1 L891.4,409.1 L891.9,404.4 L892.3,405.1 L892.7,406.4 L893.2,403.7 L893.6,403.7 L894.1,405.1 L894.5,408.5 L894.9,407.8 L895.4,405.8 L895.8,406.4 L896.2,403.1 L896.7,403.7 L897.1,407.1 L897.5,402.4 L898.0,402.4 L898.4,403.7 L898.8,402.4 L899.3,401.0 L900.6,405.8 L901.0,407.1 L901.5,407.1 L901.9,404.4 L902.3,402.4 L902.8,401.7 L903.2,403.1 L903.6,403.7 L904.1,405.8 L904.5,406.4 L904.9,407.1 L905.4,404.4 L905.8,405.8 L906.3,403.1 L906.7,405.1 L907.1,405.8 L907.6,407.1 L908.0,405.8 L908.4,407.1 L908.9,413.9 L910.2,413.9 L910.6,417.2 L911.1,414.5 L911.5,413.2 L911.9,411.2 L912.4,411.8 L912.8,411.8 L913.2,414.5 L913.7,413.2 L914.1,413.2 L914.5,413.2 L915.0,411.2 L915.4,409.8 L915.8,409.1 L916.3,409.1 L916.7,407.1 L917.2,407.1 L917.6,406.4 L918.0,407.1 L918.5,405.8 L919.8,399.0 L920.2,399.0 L920.6,399.7 L921.1,400.4 L921.5,402.4 L921.9,401.7 L922.4,405.1 L922.8,399.7 L923.3,401.0 L923.7,398.3 L924.1,399.0 L924.6,400.4 L925.0,400.4 L925.4,401.7 L925.9,401.0 L926.3,401.0 L926.7,401.7 L927.2,401.7 L927.6,399.0 L928.0,398.3 L929.3,401.0 L929.8,400.4 L930.2,399.0 L930.7,400.4 L931.1,401.7 L931.5,403.1 L932.0,402.4 L932.4,402.4 L932.8,402.4 L933.3,403.7 L933.7,403.7 L934.1,403.7 L934.6,404.4 L935.0,402.4 L935.5,403.1 L935.9,404.4 L936.3,407.1 L936.8,411.8 L937.2,414.5 L937.6,417.2 L939.0,412.5 L939.4,411.2 L939.8,413.9 L940.3,412.5 L940.7,410.5 L941.1,413.2 L941.6,411.8 L942.0,410.5 L942.4,409.1 L942.9,407.1 L943.3,407.8 L943.7,408.5 L944.2,409.8 L944.6,410.5 L945.0,411.2 L945.5,411.2 L945.9,411.2 L946.4,408.5 L946.8,407.1 L947.2,405.8 L948.5,398.3 L949.0,399.7 L949.4,401.7 L949.8,400.4 L950.3,401.7 L950.7,401.7 L951.1,401.0 L951.6,399.7 L952.0,402.4 L952.5,403.7 L952.9,403.7 L953.3,416.5 L953.7,428.0 L954.2,443.5 L954.6,450.3 L955.1,465.8 L955.5,477.2 L955.9,484.7 L956.4,486.7 L956.8,495.4 L958.1,509.6 L958.6,513.7 L959.0,519.7 L959.4,521.1 L959.9,503.5 L960.3,515.7 L960.7,511.0 L961.2,504.9 L961.6,515.7 L962.0,504.9 L962.5,522.4 L962.9,523.1 L963.4,517.0 L963.8,517.0 L964.2,504.9 L964.7,526.5 L965.1,525.8 L965.5,525.8 L966.0,504.2 L966.4,517.7 L967.7,507.6 L968.1,507.6 L968.6,520.4 L969.0,513.7 L969.5,519.7 L969.9,508.9 L970.7,518.4 L971.2,512.3 L971.6,513.0 L972.0,526.5 L972.4,511.0 L972.9,517.0 L973.3,517.7 L973.7,504.9 L974.2,506.9 L974.6,520.4 L975.0,515.0 L975.5,522.4 L975.9,517.7 L976.3,505.6 L978.1,527.1 L978.4,509.6 L978.9,520.4 L979.3,521.1 L979.7,522.4 L980.2,519.7 L980.6,512.3 L981.0,525.1 L981.5,522.4 L981.9,518.4 L982.4,526.5 L982.8,512.3 L983.2,511.6 L983.7,510.3 L984.1,523.8 L984.5,506.9 L985.0,529.2 L985.4,516.4 L985.8,520.4 L986.3,506.9 L986.7,513.0 L988.4,519.0 L988.8,517.7 L989.2,527.8 L989.7,513.0 L990.1,511.6 L990.6,517.0 L991.0,527.1 L991.4,504.2 L991.9,517.0 L992.3,520.4 L992.7,512.3 L993.2,508.3 L993.6,517.7 L994.0,521.1 L994.5,510.3 L994.9,513.7 L995.3,520.4 L995.8,509.6 L996.2,506.9 L996.7,507.6 L998.7,510.3 L999.1,513.7 L999.5,508.9 L1000.0,523.1 L1000.4,504.2 L1000.8,504.2 L1001.3,500.2 L1001.7,496.8 L1002.1,509.6 L1002.6,501.5 L1003.0,508.9 L1003.5,504.2 L1003.9,506.2 L1004.3,515.7 L1004.8,501.5 L1005.2,518.4 L1005.6,508.9 L1006.1,500.8 L1006.5,490.7 L1006.9,499.5 L1007.4,489.4 L1009.1,409.8 L1009.5,419.2 L1009.9,430.0 L1010.3,430.7 L1010.8,445.5 L1011.2,443.5 L1011.6,428.0 L1012.1,438.1 L1012.5,449.6 L1013.0,437.5 L1013.4,448.9 L1013.8,447.6 L1014.3,459.7 L1014.7,456.3 L1015.1,465.8 L1015.6,455.0 L1016.0,432.7 L1016.4,421.3 L1016.9,418.6 L1017.3,426.0 L1019.4,368.7 L1019.8,373.4 L1020.2,359.9 L1020.6,349.8 L1021.1,345.1 L1021.5,326.2 L1021.9,333.6 L1022.3,312.0 L1022.7,318.8 L1023.2,317.4 L1023.6,301.2 L1024.0,302.6 L1024.5,300.6 L1024.9,299.9 L1025.3,299.9 L1025.8,291.8 L1026.2,301.2 L1026.6,306.6 L1027.1,303.3 L1027.5,292.5 L1027.9,298.5 L1029.7,301.2 L1030.1,299.9 L1030.6,299.9 L1031.0,283.7 L1031.4,301.2 L1031.9,299.9 L1032.3,291.8 L1032.7,303.3 L1033.2,282.4 L1033.6,301.2 L1034.0,302.6 L1034.5,283.7 L1034.9,285.7 L1035.4,285.7 L1035.8,296.5 L1036.2,295.2 L1036.7,304.6 L1037.1,303.9 L1037.5,288.4 L1038.0,293.8 L1040.0,297.2 L1040.5,299.2 L1040.9,292.5 L1041.4,301.2 L1041.8,294.5 L1042.2,319.4 L1042.7,345.7 L1043.1,364.6 L1043.6,384.9 L1044.1,377.4 L1044.5,364.6 L1044.9,384.9 L1045.4,401.0 L1045.8,419.9 L1046.3,430.0 L1046.7,448.2 L1047.1,452.3 L1047.6,462.4 L1048.0,467.8 L1048.4,457.7 L1050.4,480.6 L1050.9,486.0 L1051.3,490.7 L1051.7,506.9 L1052.2,514.3 L1052.6,519.7 L1053.1,515.7 L1053.5,531.2 L1053.9,525.1 L1054.4,521.7 L1054.8,544.0 L1055.2,529.8 L1055.7,533.2 L1056.1,527.1 L1056.5,539.3 L1057.0,528.5 L1057.4,529.8 L1057.8,525.1 L1058.3,527.8 L1058.7,515.0 L1060.8,535.9 L1061.2,523.8 L1061.7,529.2 L1062.1,513.0 L1062.6,501.5 L1063.0,506.2 L1063.4,496.8 L1063.9,499.5 L1064.3,484.0 L1064.7,497.5 L1065.2,487.4 L1065.6,488.7 L1066.0,482.6 L1066.5,461.7 L1066.9,470.5 L1067.3,466.4 L1067.8,457.7 L1068.2,452.3 L1068.7,463.8 L1069.1,457.7 L1071.1,456.3 L1071.5,473.2 L1073.6,514.3 L1074.0,511.0 L1074.5,490.1 L1074.9,488.7 L1075.4,475.2 L1075.8,472.5 L1076.2,460.4 L1076.7,456.3 L1077.1,446.9 L1077.5,446.9 L1078.0,442.2 L1078.4,439.5 L1078.9,437.5 L1079.3,431.4 L1079.7,431.4 L1080.9,424.0 L1081.4,424.0 L1081.8,419.2 L1082.3,417.9 L1082.7,417.2 L1083.1,417.2 L1083.6,414.5 L1084.0,413.9" fill="none" stroke="#ff7f0e" stroke-width="1.1" opacity="0.85"/><text x="616" y="572" font-size="11" fill="#888">time 0..54 s — altitude (blue) &amp; roll (orange)</text></svg>