<svg xmlns="http://www.w3.org/2000/svg" width="1140" height="600" font-family="sans-serif" font-size="13"><rect width="1140" height="600" fill="white"/><text x="20" y="26" font-size="15" fill="#333">Coludo flight</text><rect x="20" y="40" width="540" height="540" fill="#fbfbfb" stroke="#ddd"/><rect x="50" y="305" width="317" height="68" fill="#cde" stroke="#369" opacity="0.7"/><text x="50" y="300" fill="#369" font-size="12">landing zone</text><circle cx="250" cy="411" r="5" fill="black"/><text x="258" y="415" font-size="12">pad</text><path d="M251.0,411.1 L251.0,411.1 L251.0,411.1 L251.0,411.1 L251.0,411.1 L251.0,411.1 L251.0,411.1 L251.0,411.1 L251.0,411.1 L251.0,411.1 L251.0,411.1 L251.0,411.1 L251.0,411.1 L251.0,411.1 L251.0,411.1 L251.0,411.1 L251.0,411.1 L251.0,411.1 L251.0,411.1 L251.0,411.1 L251.0,411.1 L251.0,411.1 L251.0,411.1 L251.0,411.1 L251.0,411.1 L251.0,411.1 L251.0,411.1 L251.0,411.1 L251.0,411.1 L251.0,411.1 L251.0,411.1 L251.0,411.1 L251.0,411.1 L251.0,411.1 L251.0,411.1 L251.0,411.1 L251.0,411.1 L251.0,411.1 L251.0,411.1 L251.0,411.1 L251.0,411.1 L251.0,411.1 L251.0,411.1 L251.0,411.1 L251.0,411.1 L251.0,411.1 L251.0,411.1 L251.0,411.1 L251.0,411.1 L251.0,411.1 L251.0,411.1 L251.0,411.1 L251.0,411.1 L251.0,411.1 L251.0,411.1 L251.0,411.1 L251.0,411.1 L251.0,411.1 L251.0,411.1 L251.0,411.1 L251.0,411.1 L251.0,411.1 L251.0,411.1 L251.0,411.1 L251.0,411.1 L251.0,411.1 L252.1,409.2 L252.7,407.3 L254.5,404.7 L256.2,402.1 L257.5,400.6 L257.9,397.9 L261.3,395.7 L263.0,393.8 L263.0,391.9 L266.4,390.0 L268.1,387.7 L268.4,386.2 L271.5,384.4 L273.8,382.5 L274.9,380.6 L278.3,378.7 L279.3,377.2 L281.7,375.3 L283.4,373.8 L285.1,372.3 L288.5,370.8 L291.5,369.3 L293.6,367.4 L295.3,365.5 L297.0,364.0 L300.4,362.9 L301.1,361.0 L303.8,358.7 L305.5,357.2 L307.2,355.0 L310.6,353.1 L312.3,350.8 L313.3,348.5 L315.7,346.3 L317.4,344.4 L318.7,342.1 L319.1,339.9 L320.8,338.0 L322.5,335.7 L324.2,332.3 L325.9,330.4 L327.6,327.8 L327.6,324.8 L328.3,322.5 L329.3,320.3 L331.0,317.3 L331.0,315.0 L332.7,312.0 L332.7,309.3 L333.7,306.7 L333.7,304.1 L334.4,301.4 L334.4,298.8 L334.4,295.8 L336.1,292.8 L336.1,290.9 L336.1,287.9 L337.8,284.8 L337.8,282.2 L339.5,279.6 L339.5,276.9 L339.8,274.3 L341.2,271.6 L341.2,269.4 L342.9,267.1 L344.6,264.5 L346.0,261.5 L346.3,258.8 L348.0,256.6 L349.7,254.3 L350.0,252.0 L353.1,249.8 L354.8,247.5 L355.5,246.0 L356.5,243.8 L359.9,240.7 L361.6,238.9 L363.3,237.3 L365.0,235.1 L367.1,233.2 L368.4,231.3 L371.8,229.8 L373.5,228.3 L375.2,226.8 L377.3,224.5 L380.3,223.4 L382.7,222.3 L385.4,220.8 L388.8,219.3 L389.5,218.1 L392.2,217.0 L394.3,215.9 L397.3,215.1 L400.7,214.0 L404.1,212.8 L405.8,212.5 L409.2,211.7 L410.9,211.0 L414.3,210.2 L416.0,209.8 L419.4,209.4 L422.2,209.1 L426.2,208.7 L427.9,208.7 L431.3,208.7 L433.0,208.7 L436.4,208.7 L439.2,208.7 L441.6,209.1 L444.6,209.4 L446.7,209.8 L450.1,210.6 L453.5,211.0 L456.9,211.7 L458.6,212.5 L460.3,213.2 L465.4,214.4 L467.1,215.1 L468.8,215.9 L471.8,217.0 L475.6,218.9 L477.3,220.4 L480.7,221.9 L482.4,223.0 L485.8,224.2 L487.5,225.7 L489.2,227.5 L492.6,229.1 L492.9,230.9 L497.7,233.6 L499.0,235.5 L501.1,237.3 L502.8,238.9 L504.5,240.7 L506.2,242.6 L507.9,244.9 L509.9,246.4 L511.3,249.0 L513.0,250.9 L514.7,253.6 L514.7,255.4 L516.4,257.7 L518.1,260.3 L519.8,262.2 L520.1,264.9 L521.5,267.5 L523.2,269.8 L523.2,272.4 L524.9,276.5 L525.6,278.8 L526.6,281.8 L526.6,284.8 L528.3,287.1 L528.3,289.7 L528.3,292.8 L530.0,295.4 L530.0,297.7 L530.0,301.8 L530.0,304.8 L530.0,307.8 L530.0,309.7 L530.0,312.7 L530.0,315.7 L528.3,318.4 L528.3,321.0 L528.3,323.7 L526.6,328.2 L526.6,330.8 L525.6,333.1 L525.6,336.1 L524.9,338.7 L523.2,341.0 L521.5,343.6 L521.5,345.9 L520.1,348.2 L518.1,352.3 L516.4,354.6 L514.7,357.2 L514.7,359.1 L513.0,361.7 L511.3,364.0 L509.6,366.3 L507.9,368.1 L506.2,370.0 L503.1,373.4 L501.1,375.7 L499.4,377.9 L497.7,379.1 L496.0,381.0 L492.9,383.2 L490.9,384.7 L489.2,386.2 L487.5,387.7 L482.4,390.4 L480.7,391.9 L479.0,393.4 L475.9,394.2 L473.9,395.3 L471.8,396.8 L470.5,397.5 L465.0,398.7 L465.4,399.8 L460.3,401.3 L456.9,401.7 L454.8,402.4 L451.8,403.2 L449.4,404.0 L446.7,404.3 L444.6,404.7 L441.6,405.1 L439.2,405.5 L433.0,405.8 L431.3,405.8 L427.9,405.8 L426.2,405.8 L422.8,405.5 L421.1,405.5 L417.7,405.1 L416.0,404.7 L412.6,404.3 L407.5,403.2 L405.8,402.8 L402.4,401.7 L399.7,401.3 L397.3,400.6 L394.3,399.8 L392.2,398.7 L390.5,397.5 L388.8,396.8 L382.7,394.2 L382.0,393.4 L378.6,391.9 L376.9,390.4 L373.5,388.9 L373.9,387.4 L370.1,385.9 L367.1,384.7 L366.7,382.8 L363.0,379.5 L361.6,377.9 L358.2,376.1 L356.5,373.8 L354.8,371.9 L353.1,370.4 L350.0,368.1 L349.7,366.3 L348.0,364.0 L344.6,360.6 L342.9,359.1 L339.8,356.8 L339.5,355.3 L337.8,353.8 L334.4,351.9 L332.7,350.1 L331.0,348.2 L328.3,347.0 L324.2,344.0 L322.5,342.9 L319.1,341.4 L318.7,340.2 L315.7,339.1 L313.3,337.6 L310.6,336.5 L307.2,335.3 L305.5,334.2 L301.1,332.3 L298.7,332.0 L295.6,331.2 L293.6,330.1 L291.5,329.3 L288.5,328.9 L285.1,328.2 L283.4,327.8 L280.0,327.4 L273.8,326.7 L271.5,326.3 L268.4,326.3 L266.4,325.9 L263.0,325.9 L261.3,325.9 L257.9,326.3 L256.2,326.3 L252.7,326.7 L251.0,326.7 L245.9,327.4 L242.5,327.8 L240.8,328.2 L237.4,328.9 L230.6,330.1 L228.9,330.8 L225.5,331.6 L223.8,332.0 L219.4,332.3 L217.0,333.1 L214.0,333.5 L211.9,334.2 L208.5,334.6 L205.1,335.3" fill="none" stroke="#1f77b4" stroke-width="1.7" opacity="0.85"/><circle cx="205" cy="335" r="4.5" fill="#1f77b4"/><text x="28" y="572" font-size="11" fill="#888">ground track — m from pad (N up)</text><rect x="580" y="40" width="540" height="540" fill="#fbfbfb" stroke="#ddd"/><text x="586" y="54" fill="#1f77b4" font-size="11">alt 344</text><text x="586" y="558" fill="#1f77b4" font-size="11">-55</text><path d="M656.8,477.2 L657.4,477.0 L657.9,476.6 L658.5,476.9 L659.0,475.7 L659.6,476.0 L660.2,474.6 L660.8,474.0 L661.4,474.2 L662.0,472.4 L662.6,471.5 L663.0,471.6 L663.6,469.7 L664.2,469.4 L664.8,466.4 L665.4,466.0 L666.0,465.0 L666.6,463.4 L667.2,462.9 L667.7,460.2 L668.3,455.6 L668.9,454.2 L669.5,451.4 L670.1,453.4 L670.7,447.9 L671.3,449.6 L671.9,446.5 L672.3,438.1 L672.8,440.1 L673.3,435.7 L673.8,437.0 L674.4,433.1 L675.0,427.8 L675.6,430.3 L676.2,419.8 L676.8,417.1 L677.3,416.6 L677.9,415.9 L678.5,412.1 L679.1,407.2 L679.7,405.8 L680.3,403.1 L680.9,401.4 L681.5,395.9 L682.0,387.3 L682.6,379.0 L683.2,381.6 L683.8,366.2 L684.4,380.6 L685.0,370.2 L685.6,358.6 L686.2,357.7 L686.6,346.2 L687.2,346.9 L687.8,355.4 L688.4,324.9 L689.0,332.7 L689.6,337.3 L690.1,336.8 L690.7,332.0 L691.3,299.4 L691.8,304.7 L692.4,320.4 L693.0,300.4 L693.6,310.1 L694.2,288.3 L694.8,283.3 L695.4,277.3 L696.0,263.8 L696.5,290.4 L697.0,282.8 L697.6,274.5 L698.1,251.9 L698.7,236.4 L699.3,273.7 L699.9,242.6 L700.5,231.0 L701.1,257.0 L701.6,239.4 L702.2,222.3 L702.8,240.1 L703.4,245.8 L704.0,227.6 L704.6,225.5 L705.2,192.4 L705.8,187.1 L706.3,218.0 L707.0,208.5 L707.5,223.8 L708.1,188.7 L708.7,169.4 L709.3,188.2 L709.9,212.2 L710.5,196.2 L711.0,157.2 L711.6,189.5 L712.2,156.1 L712.8,178.6 L713.4,159.9 L713.9,169.4 L714.5,150.9 L715.1,136.7 L715.6,138.9 L716.3,156.2 L716.8,164.4 L717.3,183.0 L717.9,130.8 L718.5,180.2 L719.1,143.2 L719.7,125.5 L720.3,170.9 L720.8,159.0 L721.4,140.0 L722.0,139.7 L722.6,123.8 L723.2,161.0 L723.8,99.2 L724.4,135.1 L725.0,94.5 L725.5,116.5 L726.1,99.6 L726.7,112.1 L727.3,93.3 L727.9,92.6 L728.5,102.5 L729.1,111.2 L729.7,135.3 L730.2,133.7 L730.8,145.2 L731.4,145.3 L732.0,87.8 L732.6,134.5 L733.2,96.2 L733.7,91.3 L734.3,144.4 L734.8,85.6 L735.3,84.1 L735.8,97.6 L736.5,131.7 L736.9,111.5 L737.5,96.8 L738.1,97.7 L738.7,118.2 L739.3,120.4 L739.8,140.8 L740.4,118.4 L740.9,118.8 L741.5,76.0 L742.0,85.0 L742.6,111.3 L743.1,141.1 L743.7,109.4 L744.2,129.7 L744.7,86.3 L745.3,109.4 L745.8,103.0 L746.6,92.4 L747.2,77.9 L747.7,87.6 L748.3,88.8 L748.9,92.0 L749.4,131.9 L750.0,98.5 L750.6,85.0 L751.2,135.1 L751.7,135.3 L752.3,99.1 L752.8,127.4 L753.4,115.7 L753.9,141.1 L754.4,116.1 L755.0,98.2 L755.5,112.1 L756.0,116.2 L756.9,81.1 L757.5,125.8 L758.0,116.3 L758.6,114.1 L759.1,138.0 L759.6,115.7 L760.2,117.8 L760.8,118.2 L761.4,127.3 L762.0,129.3 L762.6,114.1 L763.1,136.0 L763.7,82.9 L764.2,137.9 L764.7,132.7 L765.3,111.6 L765.9,84.0 L766.5,109.3 L767.2,153.2 L767.8,94.9 L768.4,88.9 L768.9,91.8 L769.5,149.3 L770.1,132.6 L770.7,94.2 L771.2,111.8 L771.8,102.9 L772.3,146.5 L772.9,114.8 L773.4,137.0 L773.9,101.1 L774.4,99.6 L775.0,95.6 L775.5,91.9 L776.1,108.2 L776.7,145.7 L777.5,111.8 L778.1,112.0 L778.6,143.6 L779.1,117.1 L779.7,159.1 L780.3,132.5 L780.9,150.4 L781.5,93.6 L782.1,123.9 L782.6,111.2 L783.1,162.8 L783.6,163.1 L784.2,133.5 L784.8,124.0 L785.4,109.9 L786.0,149.1 L786.6,100.9 L787.2,120.8 L787.8,110.0 L788.3,107.3 L788.8,105.4 L789.4,128.9 L790.0,125.1 L790.6,162.9 L791.2,139.7 L791.8,141.8 L792.4,142.3 L792.9,143.8 L793.5,160.5 L794.0,141.4 L794.6,106.1 L795.1,111.2 L795.7,109.5 L796.2,164.7 L796.8,163.5 L797.3,126.5 L798.1,138.3 L798.6,171.5 L799.2,152.6 L799.8,161.2 L800.4,136.5 L801.0,158.1 L801.5,131.4 L802.1,165.2 L802.6,161.5 L803.1,143.1 L803.6,176.6 L804.2,113.7 L804.7,135.8 L805.3,178.4 L805.9,166.3 L806.5,163.0 L807.1,120.8 L807.6,123.3 L808.3,133.0 L808.9,179.7 L809.5,171.9 L810.1,159.4 L810.7,167.5 L811.3,166.2 L811.8,128.5 L812.3,120.8 L812.8,155.5 L813.4,132.5 L813.9,128.9 L814.4,151.8 L814.9,149.7 L815.5,158.3 L816.0,138.2 L816.6,146.6 L817.1,137.8 L817.7,168.0 L818.7,131.5 L819.2,134.7 L819.8,129.5 L820.4,146.7 L821.0,160.7 L821.5,173.9 L822.0,147.9 L822.6,143.3 L823.1,149.9 L823.7,172.5 L824.2,148.6 L824.8,150.6 L825.3,140.9 L825.9,180.2 L826.4,135.9 L826.9,183.4 L827.5,141.7 L828.1,145.7 L829.0,165.8 L829.4,159.7 L830.0,192.0 L830.6,170.3 L831.1,177.0 L831.7,144.0 L832.3,157.2 L832.8,151.5 L833.4,149.0 L833.9,170.1 L834.4,199.4 L835.0,200.4 L835.6,202.6 L836.1,189.6 L836.6,174.1 L837.2,170.4 L837.7,161.4 L838.3,171.8 L839.3,172.0 L839.9,209.9 L840.4,198.8 L840.9,180.0 L841.4,190.2 L842.0,177.1 L842.5,192.3 L843.1,176.3 L843.6,171.0 L844.2,212.3 L844.7,176.2 L845.3,163.8 L845.8,191.2 L846.4,179.5 L846.9,169.2 L847.5,169.0 L848.1,203.3 L848.7,186.4 L849.6,193.2 L850.1,204.2 L850.6,214.3 L851.2,179.2 L851.7,217.4 L852.3,192.6 L852.8,169.5 L853.4,175.4 L854.0,206.3 L854.6,182.5 L855.2,226.5 L855.7,223.6 L856.3,195.6 L856.8,205.0 L857.4,212.3 L857.9,177.8 L858.5,194.9 L859.0,197.8 L860.3,210.5 L860.9,200.3 L861.4,215.6 L862.0,184.0 L862.5,211.8 L863.1,214.3 L863.6,184.0 L864.2,227.0 L864.8,228.9 L865.3,219.7 L865.9,205.3 L866.5,210.1 L867.1,212.3 L867.6,217.0 L868.2,241.7 L868.7,210.2 L869.3,212.5 L869.8,244.4 L871.1,238.6 L871.7,242.6 L872.2,218.5 L872.8,237.6 L873.4,247.2 L873.9,223.1 L874.5,238.6 L875.0,202.6 L875.6,216.1 L876.2,231.0 L876.7,210.2 L877.3,237.9 L877.9,242.3 L878.4,226.7 L879.0,212.2 L879.5,209.3 L880.1,221.4 L880.6,218.9 L881.8,257.1 L882.3,225.8 L882.9,241.5 L883.4,242.7 L884.0,259.9 L884.5,253.5 L885.0,226.5 L885.6,254.0 L886.1,245.4 L886.6,233.0 L887.1,230.0 L887.7,260.2 L888.2,255.0 L888.8,233.6 L889.3,234.8 L889.8,236.6 L890.3,250.2 L890.9,236.0 L891.4,262.7 L892.6,266.8 L893.2,227.4 L893.8,253.5 L894.3,249.2 L894.8,250.5 L895.4,274.5 L895.9,271.6 L896.5,266.3 L897.0,268.0 L897.6,255.4 L898.2,239.8 L898.7,272.5 L899.3,240.4 L899.8,278.6 L900.4,248.6 L900.9,253.3 L901.5,260.8 L902.0,267.4 L903.3,263.5 L903.8,247.5 L904.3,247.3 L904.9,253.7 L905.5,255.7 L906.1,258.6 L906.7,285.9 L907.3,252.9 L907.9,277.4 L908.4,274.5 L908.9,268.5 L909.5,261.7 L910.1,274.6 L910.6,266.6 L911.2,259.9 L911.7,283.7 L912.3,262.1 L912.9,273.9 L914.0,289.4 L914.6,298.6 L915.2,264.8 L915.7,275.3 L916.3,289.9 L916.8,300.7 L917.4,267.5 L917.9,282.8 L918.4,285.2 L919.0,276.7 L919.6,301.7 L920.2,302.1 L920.8,293.9 L921.3,285.6 L921.9,299.2 L922.5,291.8 L923.0,284.9 L923.5,306.6 L924.8,279.1 L925.4,300.9 L926.0,306.1 L926.6,299.0 L927.2,314.4 L927.7,308.3 L928.3,313.1 L928.8,292.5 L929.4,288.1 L929.9,300.8 L930.5,287.4 L931.0,309.6 L931.6,301.9 L932.1,310.0 L932.6,312.2 L933.1,306.0 L933.6,319.3 L934.1,309.2 L935.6,323.9 L936.2,315.0 L936.8,314.5 L937.3,299.6 L937.8,332.1 L938.3,324.5 L938.9,329.2 L939.5,329.7 L940.0,324.4 L940.6,331.1 L941.2,317.8 L941.8,309.4 L942.3,327.1 L942.8,321.4 L943.3,314.0 L943.8,338.4 L944.4,312.7 L944.9,313.6 L946.4,340.1 L946.9,335.7 L947.4,340.7 L948.0,333.4 L948.5,344.0 L949.1,343.4 L949.7,340.3 L950.3,327.4 L950.9,323.9 L951.5,345.6 L952.0,342.9 L952.5,349.9 L953.1,347.0 L953.6,330.4 L954.2,337.1 L954.7,339.4 L955.3,334.3 L955.8,338.2 L957.2,348.6 L957.6,348.6 L958.1,357.8 L958.7,345.4 L959.2,350.1 L959.7,341.6 L960.3,362.8 L960.9,356.3 L961.4,353.0 L961.9,341.9 L962.4,356.3 L963.0,344.5 L963.5,354.3 L964.1,346.9 L964.6,359.1 L965.1,346.3 L965.7,369.5 L966.2,349.9 L966.8,354.3 L967.9,354.5 L968.5,374.7 L969.1,375.7 L969.7,363.4 L970.3,371.8 L970.8,360.8 L971.3,362.3 L971.9,370.9 L972.5,375.2 L973.0,373.5 L973.5,376.5 L974.0,365.4 L974.6,371.0 L975.1,373.8 L975.7,380.7 L976.2,367.1 L976.7,371.3 L977.2,386.9 L978.7,387.1 L979.3,375.8 L979.9,380.9 L980.5,385.9 L980.9,374.0 L981.5,375.5 L982.0,391.7 L982.6,382.5 L983.2,388.9 L983.8,384.3 L984.4,395.8 L984.9,392.5 L985.4,397.8 L986.0,388.4 L986.5,392.4 L987.0,393.4 L987.6,393.7 L988.1,387.6 L989.5,395.1 L990.1,391.3 L990.6,401.6 L991.1,392.5 L991.7,402.9 L992.3,402.4 L992.9,396.2 L993.5,405.8 L994.0,411.7 L994.6,399.6 L995.1,402.8 L995.7,409.1 L996.2,405.5 L996.7,404.9 L997.2,407.9 L997.7,416.8 L998.3,414.4 L998.8,416.1 L1000.3,413.6 L1000.8,412.3 L1001.4,416.0 L1002.0,418.1 L1002.6,411.8 L1003.2,416.2 L1003.8,414.0 L1004.3,419.4 L1004.8,424.6 L1005.3,426.7 L1005.8,420.3 L1006.3,421.3 L1006.8,419.6 L1007.3,425.8 L1007.8,430.9 L1008.4,422.3 L1008.9,431.9 L1009.4,424.6 L1010.0,426.3 L1011.1,433.3 L1011.6,434.2 L1012.1,429.8 L1012.6,431.0 L1013.1,434.0 L1013.7,439.1 L1014.2,440.9 L1014.7,441.3 L1015.3,435.6 L1015.8,437.2 L1016.4,437.8 L1016.9,445.1 L1017.5,442.2 L1018.0,443.6 L1018.6,443.5 L1019.1,447.2 L1019.6,444.9 L1020.2,445.9 L1020.7,446.6 L1021.8,448.8 L1022.4,450.2 L1022.9,451.8 L1023.5,452.7 L1024.0,452.1 L1024.5,453.8 L1025.0,452.5 L1025.6,454.1 L1026.1,457.9 L1026.7,455.6 L1027.3,455.8 L1027.9,459.4 L1028.5,458.4 L1029.0,459.9 L1029.5,460.6 L1030.0,461.1 L1030.6,463.8 L1031.1,465.5 L1032.6,467.6 L1033.2,468.2 L1033.7,467.0 L1034.2,469.0 L1034.7,469.7 L1035.3,469.6 L1035.8,471.6 L1036.4,472.3 L1037.0,473.2 L1037.6,474.0 L1038.2,475.4 L1038.7,476.1 L1039.3,476.5 L1039.8,477.4 L1040.4,478.2 L1040.9,479.0 L1041.5,479.8 L1042.0,480.9 L1043.4,482.5 L1043.9,483.5 L1044.4,484.9 L1045.2,485.5 L1045.7,486.5 L1046.3,487.3 L1046.9,488.4 L1047.5,488.3 L1048.0,490.7 L1048.5,490.2 L1049.1,492.3 L1049.6,491.9 L1050.2,493.9 L1050.7,493.0 L1051.3,496.3 L1051.8,495.0 L1052.3,496.7 L1052.8,495.4 L1055.0,498.9 L1055.6,500.7 L1056.1,504.4 L1056.7,500.8 L1057.2,503.9 L1057.7,506.4 L1058.3,507.3 L1058.8,506.0 L1059.3,508.3 L1059.9,509.4 L1060.4,506.6 L1061.0,509.9 L1061.5,512.5 L1062.1,512.5 L1062.6,514.1 L1063.1,510.8 L1063.6,514.5 L1064.2,513.3 L1064.7,516.0 L1066.6,518.5 L1067.1,518.2 L1067.7,522.5 L1068.2,520.0 L1068.7,523.9 L1069.3,520.6 L1069.9,520.4 L1070.5,523.2 L1072.7,527.1 L1073.2,527.2 L1073.8,522.6 L1074.4,532.5 L1075.0,530.6 L1075.6,525.9 L1076.2,535.5 L1077.6,536.7 L1078.1,531.7 L1078.7,533.6 L1079.3,533.1 L1079.9,539.6 L1080.5,538.0 L1081.1,537.9 L1081.6,539.3 L1082.2,534.9 L1082.8,544.0 L1083.4,534.3 L1084.0,542.3" fill="none" stroke="#1f77b4" stroke-width="1.4" opacity="0.85"/><text x="1040" y="54" fill="#ff7f0e" font-size="11">roll 19</text><text x="1090" y="558" fill="#ff7f0e" font-size="11">-20</text><path d="M656.8,306.4 L657.4,305.2 L657.9,305.2 L658.5,306.4 L659.0,305.2 L659.6,305.2 L660.2,305.2 L660.8,305.2 L661.4,304.1 L662.0,305.2 L662.5,304.1 L663.0,304.1 L663.6,304.1 L664.2,305.2 L664.8,304.1 L665.4,305.2 L666.0,306.4 L666.6,306.4 L667.2,304.1 L667.7,304.1 L668.3,305.2 L668.9,306.4 L669.5,306.4 L670.1,305.2 L670.7,304.1 L671.3,304.1 L671.9,305.2 L672.3,305.2 L672.8,305.2 L673.3,305.2 L673.8,305.2 L674.4,305.2 L675.0,305.2 L675.6,306.4 L676.2,305.2 L676.8,305.2 L677.3,306.4 L677.9,305.2 L678.5,304.1 L679.1,305.2 L679.7,306.4 L680.3,305.2 L680.9,305.2 L681.5,305.2 L682.0,306.4 L682.6,304.1 L683.2,305.2 L683.8,304.1 L684.4,305.2 L685.0,306.4 L685.6,304.1 L686.2,306.4 L686.6,304.1 L687.2,304.1 L687.8,305.2 L688.4,304.1 L689.0,305.2 L689.6,305.2 L690.1,305.2 L690.7,305.2 L691.2,304.1 L691.8,305.2 L692.4,305.2 L693.0,306.4 L693.6,305.2 L694.2,306.4 L694.8,306.4 L695.4,306.4 L696.0,304.1 L696.5,304.1 L697.0,306.4 L697.6,305.2 L698.1,305.2 L698.7,305.2 L699.3,306.4 L699.9,306.4 L700.5,304.1 L701.0,305.2 L701.6,304.1 L702.2,304.1 L702.8,306.4 L703.4,304.1 L704.0,306.4 L704.6,305.2 L705.2,305.2 L705.7,305.2 L706.3,305.2 L706.9,305.2 L707.5,304.1 L708.1,306.4 L708.7,305.2 L709.3,305.2 L709.9,304.1 L710.5,305.2 L711.0,305.2 L711.6,305.2 L712.2,305.2 L712.8,306.4 L713.4,306.4 L713.9,304.1 L714.5,306.4 L715.1,305.2 L715.6,306.4 L716.3,304.1 L716.8,305.2 L717.3,305.2 L717.9,304.1 L718.5,305.2 L719.1,305.2 L719.7,304.1 L720.2,305.2 L720.8,305.2 L721.4,306.4 L722.0,306.4 L722.6,304.1 L723.2,304.1 L723.8,304.1 L724.4,306.4 L724.9,304.1 L725.5,305.2 L726.1,304.1 L726.7,304.1 L727.3,305.2 L727.9,304.1 L728.5,304.1 L729.1,305.2 L729.7,306.4 L730.2,304.1 L730.8,304.1 L731.4,305.2 L732.0,304.1 L732.6,306.4 L733.2,279.1 L733.7,247.0 L734.3,220.9 L734.8,200.7 L735.3,193.6 L735.8,160.3 L736.5,142.5 L736.9,160.3 L737.5,155.6 L738.1,136.6 L738.7,139.0 L739.3,124.7 L739.8,93.8 L740.4,96.2 L740.9,128.3 L741.5,112.8 L742.0,93.8 L742.6,99.8 L743.1,95.0 L743.7,123.5 L744.2,137.8 L744.7,135.4 L745.3,116.4 L745.8,105.7 L746.6,117.6 L747.2,122.3 L747.7,135.4 L748.3,121.1 L748.9,128.3 L749.4,127.1 L750.0,142.5 L750.6,159.1 L751.2,158.0 L751.7,168.6 L752.3,152.0 L752.8,154.4 L753.4,179.3 L753.9,160.3 L754.4,178.2 L755.0,203.1 L755.5,217.4 L756.0,270.8 L756.9,320.7 L757.5,353.9 L758.0,375.3 L758.6,418.1 L759.1,431.2 L759.6,437.1 L760.2,451.4 L760.8,470.4 L761.4,471.5 L762.0,470.4 L762.6,502.4 L763.1,485.8 L763.6,508.4 L764.1,513.1 L764.7,508.4 L765.3,482.2 L765.9,489.4 L766.5,488.2 L767.2,510.7 L767.8,516.7 L768.4,521.4 L768.9,503.6 L769.5,494.1 L770.1,521.4 L770.7,508.4 L771.2,502.4 L771.8,501.2 L772.3,503.6 L772.9,514.3 L773.4,519.1 L773.9,479.9 L774.4,507.2 L775.0,501.2 L775.5,495.3 L776.1,495.3 L776.7,491.7 L777.5,513.1 L778.0,502.4 L778.5,515.5 L779.1,502.4 L779.7,495.3 L780.3,502.4 L780.9,510.7 L781.5,487.0 L782.1,515.5 L782.6,515.5 L783.1,506.0 L783.6,488.2 L784.2,483.4 L784.8,520.2 L785.4,496.5 L786.0,483.4 L786.6,511.9 L787.2,484.6 L787.8,508.4 L788.3,494.1 L788.8,522.6 L789.4,495.3 L790.0,504.8 L790.6,496.5 L791.2,477.5 L791.8,428.8 L792.4,377.7 L792.9,330.2 L793.5,298.1 L794.0,267.2 L794.6,230.4 L795.1,200.7 L795.7,200.7 L796.2,159.1 L796.8,142.5 L797.3,150.8 L798.1,128.3 L798.6,149.6 L799.2,117.6 L799.8,114.0 L800.4,118.8 L801.0,129.5 L801.5,125.9 L802.1,116.4 L802.6,119.9 L803.1,124.7 L803.6,111.6 L804.2,92.6 L804.7,106.9 L805.3,97.4 L805.9,117.6 L806.5,93.8 L807.0,133.0 L807.6,108.1 L808.3,106.9 L808.9,86.7 L809.5,112.8 L810.1,86.7 L810.7,124.7 L811.3,111.6 L811.8,86.7 L812.3,104.5 L812.8,86.7 L813.4,103.3 L813.9,128.3 L814.4,97.4 L814.9,125.9 L815.5,124.7 L816.0,123.5 L816.6,90.3 L817.1,98.6 L817.7,102.1 L818.6,95.0 L819.2,108.1 L819.8,106.9 L820.4,123.5 L821.0,112.8 L821.5,102.1 L822.0,128.3 L822.6,95.0 L823.1,95.0 L823.7,118.8 L824.2,112.8 L824.8,112.8 L825.3,121.1 L825.9,121.1 L826.4,109.3 L826.9,129.5 L827.5,85.5 L828.1,115.2 L829.0,127.1 L829.4,117.6 L830.0,133.0 L830.6,102.1 L831.1,128.3 L831.7,129.5 L832.3,106.9 L832.8,96.2 L833.4,100.9 L833.9,102.1 L834.4,102.1 L835.0,121.1 L835.6,106.9 L836.1,105.7 L836.6,93.8 L837.2,121.1 L837.7,121.1 L838.3,104.5 L839.3,108.1 L839.9,106.9 L840.4,99.8 L840.9,92.6 L841.4,121.1 L842.0,103.3 L842.5,97.4 L843.1,116.4 L843.6,118.8 L844.2,100.9 L844.7,102.1 L845.3,102.1 L845.8,115.2 L846.4,106.9 L846.9,96.2 L847.5,111.6 L848.1,122.3 L848.7,128.3 L849.6,104.5 L850.1,102.1 L850.6,122.3 L851.2,93.8 L851.7,117.6 L852.3,116.4 L852.8,99.8 L853.4,104.5 L854.0,129.5 L854.6,127.1 L855.1,128.3 L855.7,117.6 L856.3,117.6 L856.8,127.1 L857.4,115.2 L857.9,90.3 L858.5,102.1 L859.0,115.2 L860.3,119.9 L860.9,118.8 L861.4,100.9 L862.0,129.5 L862.5,114.0 L863.1,125.9 L863.6,110.4 L864.2,97.4 L864.7,117.6 L865.3,102.1 L865.9,103.3 L866.5,127.1 L867.1,121.1 L867.6,114.0 L868.2,98.6 L868.7,99.8 L869.3,103.3 L869.8,104.5 L871.1,100.9 L871.7,89.1 L872.2,123.5 L872.8,100.9 L873.4,89.1 L873.9,98.6 L874.4,95.0 L875.0,93.8 L875.6,118.8 L876.2,112.8 L876.7,93.8 L877.3,87.9 L877.9,105.7 L878.4,96.2 L879.0,105.7 L879.5,99.8 L880.1,115.2 L880.6,98.6 L881.8,127.1 L882.3,121.1 L882.9,125.9 L883.4,121.1 L884.0,100.9 L884.5,117.6 L885.0,91.4 L885.6,108.1 L886.1,127.1 L886.6,104.5 L887.1,96.2 L887.7,117.6 L888.2,108.1 L888.7,92.6 L889.3,93.8 L889.8,131.8 L890.3,118.8 L890.9,119.9 L891.4,118.8 L892.6,116.4 L893.2,93.8 L893.7,93.8 L894.3,111.6 L894.8,91.4 L895.4,105.7 L895.9,112.8 L896.5,119.9 L897.0,103.3 L897.6,104.5 L898.2,122.3 L898.7,106.9 L899.3,123.5 L899.8,133.0 L900.4,97.4 L900.9,114.0 L901.5,116.4 L902.0,110.4 L903.3,76.0 L903.8,117.6 L904.3,90.3 L904.9,121.1 L905.5,99.8 L906.1,125.9 L906.7,108.1 L907.3,114.0 L907.9,112.8 L908.4,89.1 L908.9,100.9 L909.5,116.4 L910.1,125.9 L910.6,109.3 L911.2,91.4 L911.7,95.0 L912.3,123.5 L912.8,105.7 L914.0,129.5 L914.6,103.3 L915.2,128.3 L915.7,116.4 L916.3,112.8 L916.8,116.4 L917.4,96.2 L917.9,109.3 L918.4,98.6 L919.0,106.9 L919.6,106.9 L920.2,102.1 L920.8,114.0 L921.3,118.8 L921.9,106.9 L922.4,97.4 L923.0,109.3 L923.5,97.4 L924.8,114.0 L925.4,109.3 L926.0,118.8 L926.6,87.9 L927.2,103.3 L927.7,93.8 L928.3,108.1 L928.8,122.3 L929.4,95.0 L929.9,102.1 L930.5,111.6 L931.0,131.8 L931.6,115.2 L932.1,93.8 L932.6,108.1 L933.1,97.4 L933.6,119.9 L934.1,95.0 L935.6,104.5 L936.2,104.5 L936.8,124.7 L937.3,91.4 L937.7,114.0 L938.3,99.8 L938.9,108.1 L939.5,114.0 L940.0,103.3 L940.6,106.9 L941.2,119.9 L941.8,96.2 L942.3,97.4 L942.8,91.4 L943.3,112.8 L943.8,116.4 L944.4,125.9 L944.9,100.9 L946.4,103.3 L946.9,128.3 L947.4,118.8 L948.0,108.1 L948.5,100.9 L949.1,106.9 L949.7,92.6 L950.3,105.7 L950.9,106.9 L951.4,102.1 L952.0,92.6 L952.5,118.8 L953.1,102.1 L953.6,116.4 L954.2,123.5 L954.7,102.1 L955.3,121.1 L955.8,92.6 L957.2,105.7 L957.6,129.5 L958.1,109.3 L958.7,128.3 L959.2,121.1 L959.7,114.0 L960.3,98.6 L960.9,111.6 L961.4,103.3 L961.9,114.0 L962.4,114.0 L963.0,123.5 L963.5,99.8 L964.1,127.1 L964.6,106.9 L965.1,102.1 L965.7,122.3 L966.2,95.0 L966.7,122.3 L967.9,92.6 L968.5,97.4 L969.1,115.2 L969.7,106.9 L970.3,127.1 L970.8,110.4 L971.3,114.0 L971.9,123.5 L972.5,109.3 L973.0,104.5 L973.5,133.0 L974.0,119.9 L974.6,102.1 L975.1,103.3 L975.6,118.8 L976.1,115.2 L976.7,106.9 L977.2,108.1 L978.7,116.4 L979.3,129.5 L979.9,125.9 L980.4,117.6 L980.9,118.8 L981.5,114.0 L982.0,112.8 L982.6,104.5 L983.2,117.6 L983.8,103.3 L984.4,123.5 L984.9,127.1 L985.4,118.8 L985.9,127.1 L986.5,95.0 L987.0,122.3 L987.6,119.9 L988.1,125.9 L989.5,121.1 L990.0,90.3 L990.5,97.4 L991.1,119.9 L991.7,100.9 L992.3,117.6 L992.9,119.9 L993.5,118.8 L994.0,91.4 L994.6,109.3 L995.1,116.4 L995.7,104.5 L996.2,115.2 L996.7,108.1 L997.2,114.0 L997.7,127.1 L998.3,91.4 L998.8,108.1 L1000.3,100.9 L1000.8,103.3 L1001.4,112.8 L1002.0,125.9 L1002.6,97.4 L1003.2,125.9 L1003.8,99.8 L1004.3,116.4 L1004.8,119.9 L1005.3,97.4 L1005.8,118.8 L1006.3,114.0 L1006.8,129.5 L1007.3,128.3 L1007.8,116.4 L1008.4,96.2 L1008.9,100.9 L1009.4,98.6 L1009.9,96.2 L1011.1,102.1 L1011.6,109.3 L1012.1,114.0 L1012.6,115.2 L1013.1,125.9 L1013.7,98.6 L1014.2,98.6 L1014.7,122.3 L1015.2,122.3 L1015.8,181.7 L1016.4,224.5 L1016.9,258.9 L1017.5,276.7 L1018.0,310.0 L1018.6,336.1 L1019.1,361.1 L1019.6,373.0 L1020.2,390.8 L1020.7,411.0 L1021.8,435.9 L1022.4,446.6 L1022.9,456.1 L1023.5,459.7 L1024.0,479.9 L1024.5,462.0 L1025.0,491.7 L1025.6,475.1 L1026.1,500.1 L1026.7,472.7 L1027.3,495.3 L1027.9,477.5 L1028.4,472.7 L1029.0,477.5 L1029.5,475.1 L1030.0,500.1 L1030.6,498.9 L1031.1,463.2 L1032.6,435.9 L1033.2,462.0 L1033.7,471.5 L1034.2,483.4 L1034.7,460.9 L1035.3,472.7 L1035.8,441.8 L1036.4,457.3 L1037.0,444.2 L1037.6,454.9 L1038.1,464.4 L1038.7,466.8 L1039.3,488.2 L1039.8,492.9 L1040.4,466.8 L1040.9,473.9 L1041.5,510.7 L1042.0,489.4 L1043.4,494.1 L1043.9,530.9 L1044.4,539.2 L1045.2,544.0 L1045.7,528.6 L1046.3,502.4 L1046.9,468.0 L1047.5,465.6 L1048.0,466.8 L1048.5,456.1 L1049.1,492.9 L1049.6,494.1 L1050.2,495.3 L1050.7,507.2 L1051.3,446.6 L1051.8,468.0 L1052.3,471.5 L1052.8,490.5 L1055.0,511.9 L1055.6,450.2 L1056.1,443.0 L1056.7,450.2 L1057.2,466.8 L1057.7,479.9 L1058.2,476.3 L1058.8,462.0 L1059.3,489.4 L1059.9,465.6 L1060.4,443.0 L1061.0,465.6 L1061.5,452.5 L1062.1,481.0 L1062.6,464.4 L1063.1,479.9 L1063.6,484.6 L1064.2,446.6 L1064.7,456.1 L1066.6,502.4 L1067.1,522.6 L1067.7,454.9 L1068.2,431.2 L1068.7,393.1 L1069.3,361.1 L1069.9,357.5 L1070.5,331.4 L1072.7,323.1 L1073.2,319.5 L1073.8,315.9 L1074.4,318.3 L1075.0,313.6 L1075.6,313.6 L1076.2,313.6 L1077.6,308.8 L1078.1,311.2 L1078.7,311.2 L1079.3,310.0 L1079.9,308.8 L1080.5,307.6 L1081.1,307.6 L1081.6,307.6 L1082.2,307.6 L1082.8,307.6 L1083.4,306.4 L1084.0,306.4" fill="none" stroke="#ff7f0e" stroke-width="1.1" opacity="0.85"/><text x="616" y="572" font-size="11" fill="#888">time 0..48 s — altitude (blue) &amp; roll (orange)</text></svg>