<svg xmlns="http://www.w3.org/2000/svg" width="1140" height="600" font-family="sans-serif" font-size="13"><rect width="1140" height="600" fill="white"/><text x="20" y="26" font-size="15" fill="#333">Coludo flight</text><rect x="20" y="40" width="540" height="540" fill="#fbfbfb" stroke="#ddd"/><rect x="50" y="259" width="338" height="73" fill="#cde" stroke="#369" opacity="0.7"/><text x="50" y="254" fill="#369" font-size="12">landing zone</text><circle cx="264" cy="372" r="5" fill="black"/><text x="272" y="376" font-size="12">pad</text><path d="M264.7,372.2 L264.7,372.2 L264.7,372.2 L264.7,372.2 L264.7,372.2 L264.7,372.2 L264.7,372.2 L264.7,372.2 L264.7,372.2 L264.7,372.2 L264.7,372.2 L264.7,372.2 L264.7,372.2 L264.7,372.2 L264.7,372.2 L264.7,372.2 L264.7,372.2 L264.7,372.2 L264.7,372.2 L264.7,372.2 L264.7,372.2 L264.7,372.2 L264.7,372.2 L264.7,372.2 L264.7,372.2 L264.7,372.2 L264.7,372.2 L264.7,372.2 L264.7,372.2 L264.7,372.2 L264.7,372.2 L264.7,372.2 L264.7,372.2 L264.7,372.2 L264.7,372.2 L264.7,372.2 L264.7,372.2 L264.7,372.2 L264.7,372.2 L264.7,372.2 L264.7,372.2 L264.7,372.2 L264.7,372.2 L264.7,372.2 L264.7,372.2 L264.7,372.2 L264.7,372.2 L264.7,372.2 L264.7,372.2 L264.7,372.2 L264.7,372.2 L264.7,372.2 L264.7,372.2 L264.7,372.2 L264.7,372.2 L264.7,372.2 L264.7,372.2 L264.7,372.2 L264.7,372.2 L264.7,372.2 L264.7,372.2 L264.7,372.2 L264.7,372.2 L264.7,372.2 L264.7,372.2 L264.7,372.2 L264.7,372.2 L264.7,372.2 L264.7,372.2 L264.7,372.2 L264.7,372.2 L264.7,372.2 L264.7,372.2 L264.7,372.2 L264.7,372.2 L264.7,372.2 L264.7,372.2 L265.8,370.6 L265.8,369.0 L266.6,367.0 L268.4,365.0 L270.2,362.9 L271.7,361.7 L272.0,359.7 L273.8,358.1 L275.6,356.9 L277.5,354.9 L277.5,353.7 L279.3,352.1 L282.9,350.9 L283.3,349.3 L284.7,347.6 L286.5,346.4 L289.1,345.2 L290.2,343.6 L293.8,342.8 L294.9,341.2 L295.6,340.0 L299.3,338.8 L300.7,338.0 L302.9,336.8 L304.7,336.0 L308.0,334.8 L308.3,334.0 L312.0,332.7 L312.3,331.9 L315.6,330.7 L317.4,329.9 L319.3,328.7 L321.1,328.3 L324.0,327.1 L324.7,325.9 L326.5,324.7 L330.2,323.1 L331.2,321.9 L332.0,320.7 L335.6,319.5 L337.1,317.9 L337.4,316.6 L339.2,314.6 L341.1,313.4 L341.4,311.8 L342.9,310.2 L344.7,308.2 L346.5,306.6 L347.2,304.6 L348.3,303.0 L350.1,300.9 L350.1,298.9 L352.0,296.9 L353.0,295.3 L353.8,292.1 L353.8,289.7 L355.6,287.7 L355.6,285.6 L355.6,283.6 L357.4,281.2 L357.4,279.2 L357.4,277.2 L357.4,275.2 L359.2,272.4 L359.2,270.7 L359.2,268.3 L359.2,265.9 L357.4,263.5 L357.4,261.5 L357.4,259.1 L357.4,257.1 L357.4,254.2 L355.6,252.6 L355.6,250.2 L355.6,247.8 L355.6,245.8 L353.8,243.4 L353.8,240.9 L353.8,238.5 L353.8,236.5 L353.8,234.5 L353.8,231.7 L353.8,229.7 L355.6,225.6 L355.6,223.2 L357.4,221.2 L357.4,219.2 L357.4,216.8 L359.2,214.8 L359.2,212.8 L359.6,211.2 L361.0,208.7 L361.0,206.7 L362.9,205.1 L364.7,203.1 L366.1,201.5 L366.1,199.5 L366.5,197.5 L368.3,195.9 L370.1,194.2 L370.5,192.6 L371.9,191.0 L375.6,189.4 L376.3,187.8 L377.4,186.6 L379.2,185.4 L382.8,183.8 L384.3,182.6 L384.7,181.0 L386.5,179.8 L388.7,178.9 L390.1,178.1 L393.7,176.9 L395.9,176.1 L397.4,175.3 L399.2,174.1 L401.0,173.7 L404.6,172.9 L405.4,172.1 L408.3,171.7 L410.1,171.7 L412.6,170.9 L415.5,170.9 L417.7,170.5 L419.2,170.5 L422.8,170.1 L424.6,170.1 L428.3,170.1 L430.1,170.5 L431.9,170.5 L434.4,170.9 L437.3,171.3 L441.7,171.7 L444.6,172.5 L447.5,172.9 L450.1,173.7 L451.9,174.5 L453.7,175.3 L457.3,176.5 L459.1,177.7 L462.8,178.9 L464.6,179.8 L466.4,181.0 L470.0,182.2 L471.5,183.8 L473.7,185.0 L476.6,186.6 L477.3,187.8 L480.9,189.8 L482.4,191.4 L484.6,193.4 L488.2,195.1 L488.2,196.7 L491.8,198.7 L493.7,200.7 L495.5,203.1 L497.3,204.7 L499.1,207.1 L500.9,209.5 L502.7,212.0 L504.6,214.0 L506.4,216.8 L508.2,219.2 L510.0,221.6 L511.5,224.4 L511.8,227.7 L513.6,229.7 L515.5,232.9 L517.3,235.3 L517.3,238.1 L519.1,240.9 L522.7,248.2 L523.1,251.8 L524.5,254.2 L524.5,257.9 L526.4,260.7 L526.4,263.9 L528.2,266.7 L528.2,270.3 L529.6,273.2 L529.6,276.8 L529.6,281.6 L530.0,285.6 L530.0,288.9 L530.0,292.1 L530.0,295.7 L530.0,298.5 L530.0,302.1 L530.0,305.0 L530.0,308.6 L529.6,317.0 L529.6,320.7 L528.2,324.3 L528.2,327.5 L526.4,330.7 L526.4,334.0 L524.5,337.2 L523.1,340.0 L523.1,344.0 L522.7,346.4 L519.1,352.5 L519.1,355.3 L517.3,358.5 L517.3,361.7 L513.6,364.6 L511.8,367.4 L511.5,370.6 L510.0,373.4 L508.2,376.6 L506.4,379.1 L502.7,384.3 L500.9,386.7 L499.1,389.9 L497.3,392.3 L493.3,394.8 L491.8,398.0 L490.0,400.4 L488.2,403.2 L486.4,404.8 L479.1,411.7 L476.6,413.7 L473.7,415.7 L471.5,418.1 L470.0,419.7 L466.4,421.7 L464.6,423.7 L461.0,425.4 L459.9,427.4 L455.5,429.0 L450.1,431.8 L447.5,433.8 L444.6,435.0 L441.7,436.6 L439.2,437.4 L434.4,439.0 L431.9,440.2 L428.6,441.5 L426.4,442.7 L423.5,443.9 L417.7,444.7 L415.5,445.9 L411.9,446.7 L408.3,447.1 L405.4,447.9 L402.8,448.3 L399.6,448.7 L395.6,449.1 L393.7,449.5 L390.1,449.9 L384.7,449.9 L382.8,449.9 L377.4,449.9 L375.6,449.9 L371.9,449.9 L370.1,449.5 L366.5,449.1 L362.9,448.7 L361.0,448.3 L359.2,447.9 L353.0,446.7 L350.1,446.3 L346.5,445.5 L344.7,444.7 L341.1,444.3 L339.2,443.5 L337.1,442.3 L332.0,441.5 L331.2,440.7 L322.9,437.8 L319.3,436.6 L318.2,435.8 L315.6,434.6 L312.3,433.8 L310.2,432.2 L308.0,431.4 L304.7,429.8 L302.9,428.6 L295.6,425.8 L293.8,424.1 L290.2,422.9 L288.4,421.3 L283.3,418.9 L281.1,417.3 L279.3,416.1 L277.5,414.5 L272.0,412.1 L270.2,410.9 L266.6,409.7 L264.7,408.0 L262.9,406.8 L260.0,405.6" fill="none" stroke="#1f77b4" stroke-width="1.7" opacity="0.85"/><circle cx="260" cy="406" r="4.5" fill="#1f77b4"/><text x="28" y="572" font-size="11" fill="#888">ground track — m from pad (N up)</text><rect x="580" y="40" width="540" height="540" fill="#fbfbfb" stroke="#ddd"/><text x="586" y="54" fill="#1f77b4" font-size="11">alt 319</text><text x="586" y="558" fill="#1f77b4" font-size="11">-57</text><path d="M1060.0,470.7 L1060.0,470.3 L1060.1,470.6 L1060.1,470.4 L1060.1,470.2 L1060.1,469.6 L1060.2,469.7 L1060.2,469.0 L1060.2,468.8 L1060.2,467.8 L1060.3,467.1 L1060.3,467.3 L1060.3,466.0 L1060.3,465.2 L1060.4,465.0 L1060.4,464.9 L1060.4,463.1 L1060.4,462.0 L1060.5,460.9 L1060.5,460.3 L1060.5,459.8 L1060.5,457.1 L1060.6,456.7 L1060.6,456.9 L1060.6,454.5 L1060.6,453.1 L1060.7,453.8 L1060.7,450.8 L1060.7,451.5 L1060.7,449.8 L1060.8,445.3 L1060.8,444.6 L1060.8,445.1 L1060.8,439.5 L1060.9,441.0 L1060.9,436.3 L1060.9,440.2 L1060.9,438.3 L1061.0,431.1 L1061.0,433.3 L1061.0,430.9 L1061.0,429.8 L1061.1,427.0 L1061.1,425.9 L1061.1,423.8 L1061.1,418.9 L1061.2,417.8 L1061.2,411.2 L1061.2,415.4 L1061.2,411.4 L1061.3,413.0 L1061.3,406.4 L1061.3,403.8 L1061.3,395.7 L1061.4,403.8 L1061.4,392.0 L1061.4,387.2 L1061.4,390.2 L1061.5,378.7 L1061.5,391.1 L1061.5,374.7 L1061.5,387.6 L1061.6,369.3 L1061.6,376.9 L1061.6,364.0 L1061.6,367.8 L1061.7,372.8 L1061.7,358.6 L1061.7,351.1 L1061.7,347.2 L1061.8,355.6 L1061.8,339.1 L1061.8,353.3 L1061.8,340.1 L1061.9,347.8 L1061.9,334.5 L1061.9,320.2 L1061.9,335.5 L1062.0,313.6 L1062.0,319.2 L1062.0,307.6 L1062.0,303.3 L1062.1,321.2 L1062.1,304.2 L1062.1,318.4 L1062.1,302.6 L1062.1,296.2 L1062.2,280.4 L1062.2,302.8 L1062.2,289.4 L1062.2,299.9 L1062.3,269.4 L1062.3,286.0 L1062.3,275.7 L1062.4,260.6 L1062.4,282.7 L1062.4,267.9 L1062.4,247.0 L1062.5,265.0 L1062.5,253.7 L1062.5,273.8 L1062.5,232.3 L1062.6,252.3 L1062.6,261.7 L1062.6,253.6 L1062.6,258.7 L1062.7,241.0 L1062.7,244.0 L1062.7,211.2 L1062.7,225.0 L1062.8,242.3 L1062.8,211.5 L1062.8,234.3 L1062.8,207.2 L1062.8,209.1 L1062.9,213.8 L1062.9,209.0 L1062.9,190.1 L1062.9,199.1 L1063.0,179.1 L1063.0,178.7 L1063.0,216.7 L1063.0,192.8 L1063.1,220.5 L1063.1,176.1 L1063.1,199.3 L1063.1,187.7 L1063.2,175.1 L1063.2,195.3 L1063.2,188.2 L1063.2,169.2 L1063.3,155.8 L1063.3,172.6 L1063.3,147.9 L1063.3,173.7 L1063.4,162.3 L1063.4,151.7 L1063.4,164.1 L1063.5,158.9 L1063.5,141.1 L1063.5,184.8 L1063.5,140.2 L1063.6,182.1 L1063.6,147.6 L1063.6,143.2 L1063.6,176.9 L1063.7,125.0 L1063.7,172.6 L1063.7,150.2 L1063.7,139.6 L1063.7,126.1 L1063.8,135.0 L1063.8,141.6 L1063.8,117.5 L1063.8,117.4 L1063.9,139.4 L1063.9,169.5 L1063.9,140.0 L1063.9,131.8 L1064.0,103.6 L1064.0,138.9 L1064.0,108.0 L1064.1,119.1 L1064.1,144.1 L1064.1,150.3 L1064.1,111.7 L1064.2,112.9 L1064.2,131.1 L1064.2,96.9 L1064.2,135.2 L1064.3,103.4 L1064.3,155.5 L1064.3,117.5 L1064.3,97.8 L1064.4,97.6 L1064.4,128.4 L1064.4,120.8 L1064.4,132.2 L1064.5,152.4 L1064.5,125.9 L1064.5,96.8 L1064.5,97.6 L1064.6,132.5 L1064.6,84.0 L1064.6,119.8 L1064.6,141.4 L1064.7,83.3 L1064.7,138.2 L1064.7,78.6 L1064.7,107.5 L1064.8,76.0 L1064.8,101.0 L1064.8,114.5 L1064.8,122.9 L1064.9,123.1 L1064.9,135.0 L1064.9,125.9 L1064.9,111.2 L1065.0,137.4 L1065.0,101.8 L1065.0,102.5 L1065.0,121.0 L1065.1,92.8 L1065.1,124.8 L1065.1,125.6 L1065.1,110.6 L1065.2,98.3 L1065.2,89.0 L1065.2,135.5 L1065.3,130.9 L1065.3,138.3 L1065.3,80.3 L1065.3,87.7 L1065.4,108.7 L1065.4,104.0 L1065.4,110.9 L1065.4,87.8 L1065.5,123.1 L1065.5,146.8 L1065.5,143.6 L1065.5,122.2 L1065.6,127.4 L1065.6,112.2 L1065.6,84.9 L1065.6,142.9 L1065.7,139.3 L1065.7,97.5 L1065.7,118.3 L1065.7,138.2 L1065.8,106.5 L1065.8,105.3 L1065.8,84.9 L1065.9,119.9 L1065.9,82.2 L1065.9,145.4 L1065.9,97.8 L1066.0,111.6 L1066.0,83.6 L1066.0,122.4 L1066.0,130.5 L1066.1,123.4 L1066.1,86.4 L1066.1,93.5 L1066.1,126.3 L1066.2,101.0 L1066.2,149.6 L1066.2,135.7 L1066.2,128.9 L1066.3,131.7 L1066.3,92.7 L1066.3,140.4 L1066.3,138.9 L1066.4,128.8 L1066.4,105.5 L1066.4,104.2 L1066.5,109.9 L1066.5,131.7 L1066.5,129.5 L1066.5,133.8 L1066.6,91.2 L1066.6,104.9 L1066.6,88.6 L1066.6,102.4 L1066.7,106.6 L1066.7,154.2 L1066.7,110.9 L1066.7,142.8 L1066.8,91.1 L1066.8,109.3 L1066.8,108.8 L1066.8,105.2 L1066.9,102.0 L1066.9,107.8 L1066.9,129.4 L1066.9,145.4 L1066.9,137.0 L1067.0,137.3 L1067.0,97.1 L1067.0,149.5 L1067.1,154.8 L1067.1,145.2 L1067.1,145.1 L1067.1,95.6 L1067.2,152.3 L1067.2,96.9 L1067.2,133.1 L1067.2,141.2 L1067.3,110.8 L1067.3,103.8 L1067.3,149.2 L1067.3,154.3 L1067.4,161.0 L1067.4,157.5 L1067.4,147.8 L1067.4,109.2 L1067.5,145.2 L1067.5,122.5 L1067.5,97.9 L1067.5,155.6 L1067.6,113.8 L1067.6,122.6 L1067.6,119.4 L1067.7,134.6 L1067.7,128.4 L1067.7,109.4 L1067.7,158.2 L1067.8,127.1 L1067.8,165.8 L1067.8,102.5 L1067.8,149.0 L1067.9,130.4 L1067.9,124.1 L1067.9,147.5 L1067.9,142.9 L1068.0,147.5 L1068.0,142.4 L1068.0,126.0 L1068.0,140.2 L1068.1,109.0 L1068.1,141.0 L1068.1,142.0 L1068.1,124.8 L1068.2,172.6 L1068.2,129.8 L1068.3,166.0 L1068.3,109.1 L1068.3,148.9 L1068.3,134.0 L1068.4,149.2 L1068.4,157.6 L1068.4,161.9 L1068.4,153.6 L1068.5,150.0 L1068.5,177.8 L1068.5,148.3 L1068.5,144.0 L1068.6,168.5 L1068.6,164.7 L1068.6,138.3 L1068.6,156.2 L1068.6,117.3 L1068.7,165.2 L1068.7,136.8 L1068.7,167.9 L1068.7,149.0 L1068.8,144.2 L1068.8,139.3 L1068.9,124.8 L1068.9,165.3 L1068.9,136.7 L1068.9,184.2 L1069.0,146.9 L1069.0,144.0 L1069.0,161.1 L1069.0,176.2 L1069.1,122.7 L1069.1,157.2 L1069.1,171.7 L1069.1,171.5 L1069.2,187.6 L1069.2,178.4 L1069.2,171.1 L1069.2,134.1 L1069.3,163.2 L1069.3,157.6 L1069.3,133.4 L1069.3,175.2 L1069.4,161.7 L1069.4,181.2 L1069.5,181.8 L1069.5,169.8 L1069.5,172.5 L1069.5,149.7 L1069.6,179.4 L1069.6,149.4 L1069.6,167.9 L1069.6,153.9 L1069.7,154.4 L1069.7,145.2 L1069.7,148.9 L1069.7,154.3 L1069.8,185.1 L1069.8,178.6 L1069.8,172.4 L1069.8,140.7 L1069.9,144.9 L1069.9,151.5 L1069.9,190.0 L1069.9,158.9 L1070.0,165.5 L1070.0,157.9 L1070.1,195.2 L1070.1,201.0 L1070.1,169.3 L1070.1,147.0 L1070.2,198.7 L1070.2,155.3 L1070.2,155.8 L1070.2,201.8 L1070.3,152.0 L1070.3,157.1 L1070.3,203.1 L1070.3,172.1 L1070.4,173.5 L1070.4,154.0 L1070.4,177.4 L1070.4,151.6 L1070.5,162.8 L1070.5,181.3 L1070.5,205.5 L1070.5,167.6 L1070.6,153.5 L1070.6,198.6 L1070.6,206.6 L1070.7,205.0 L1070.7,209.6 L1070.7,179.9 L1070.7,159.3 L1070.8,211.9 L1070.8,163.1 L1070.8,203.7 L1070.8,162.2 L1070.9,161.5 L1070.9,206.2 L1070.9,191.9 L1070.9,197.6 L1071.0,180.2 L1071.0,175.0 L1071.0,196.5 L1071.0,206.4 L1071.1,209.8 L1071.1,214.8 L1071.1,219.3 L1071.1,171.4 L1071.2,193.1 L1071.2,185.4 L1071.2,213.6 L1071.3,196.8 L1071.3,191.0 L1071.3,173.6 L1071.4,189.8 L1071.4,215.9 L1071.4,204.2 L1071.4,177.5 L1071.5,198.9 L1071.5,208.2 L1071.5,195.8 L1071.5,177.1 L1071.6,210.6 L1071.6,215.0 L1071.6,209.4 L1071.6,195.9 L1071.7,229.1 L1071.7,207.4 L1071.7,227.3 L1071.7,193.7 L1071.8,219.6 L1071.8,184.5 L1071.8,193.0 L1071.8,192.2 L1071.9,233.9 L1071.9,186.7 L1072.0,219.0 L1072.0,227.8 L1072.0,219.5 L1072.0,218.5 L1072.1,210.5 L1072.1,192.4 L1072.1,237.9 L1072.1,216.6 L1072.2,213.2 L1072.2,237.0 L1072.2,194.9 L1072.2,197.7 L1072.3,206.3 L1072.3,216.9 L1072.3,214.7 L1072.3,241.0 L1072.4,219.5 L1072.4,231.9 L1072.4,201.1 L1072.4,215.1 L1072.5,215.1 L1072.5,238.3 L1072.6,248.0 L1072.6,215.0 L1072.6,239.6 L1072.6,222.1 L1072.7,244.9 L1072.7,233.5 L1072.7,221.1 L1072.7,227.5 L1072.8,209.0 L1072.8,249.7 L1072.8,226.8 L1072.8,243.0 L1072.9,222.6 L1072.9,250.1 L1072.9,249.5 L1072.9,235.6 L1073.0,247.8 L1073.0,226.9 L1073.0,223.4 L1073.0,238.0 L1073.1,247.2 L1073.1,258.3 L1073.1,242.8 L1073.2,229.9 L1073.2,247.0 L1073.2,246.7 L1073.2,230.6 L1073.3,231.8 L1073.3,246.9 L1073.3,240.9 L1073.3,241.2 L1073.4,251.4 L1073.4,239.7 L1073.4,237.9 L1073.4,250.4 L1073.5,255.1 L1073.5,241.4 L1073.5,248.2 L1073.5,238.0 L1073.6,229.3 L1073.6,258.6 L1073.6,263.8 L1073.6,247.7 L1073.7,259.5 L1073.7,254.3 L1073.8,249.6 L1073.8,266.2 L1073.8,239.3 L1073.8,239.6 L1073.9,236.4 L1073.9,249.2 L1073.9,262.8 L1073.9,244.5 L1074.0,257.5 L1074.0,240.4 L1074.0,253.7 L1074.0,268.6 L1074.1,269.2 L1074.1,270.1 L1074.1,271.7 L1074.1,273.7 L1074.2,283.6 L1074.2,264.4 L1074.2,255.8 L1074.2,277.4 L1074.3,284.0 L1074.3,249.3 L1074.3,281.6 L1074.4,276.2 L1074.4,280.6 L1074.4,287.7 L1074.5,255.6 L1074.5,259.4 L1074.5,290.5 L1074.5,258.0 L1074.6,290.0 L1074.6,289.9 L1074.6,277.9 L1074.6,258.5 L1074.7,264.2 L1074.7,277.0 L1074.7,263.4 L1074.7,283.3 L1074.8,279.5 L1074.8,297.2 L1074.8,279.0 L1074.8,274.3 L1074.9,274.7 L1074.9,269.7 L1074.9,281.5 L1074.9,287.6 L1075.0,282.0 L1075.0,274.5 L1075.1,268.3 L1075.1,287.6 L1075.1,272.1 L1075.2,301.0 L1075.2,277.7 L1075.2,303.7 L1075.2,284.2 L1075.3,292.7 L1075.3,289.1 L1075.3,309.3 L1075.3,287.1 L1075.4,290.0 L1075.4,289.3 L1075.4,294.2 L1075.4,304.2 L1075.5,308.6 L1075.5,285.7 L1075.5,281.9 L1075.5,316.8 L1075.6,290.7 L1075.7,292.6 L1075.7,316.8 L1075.7,305.7 L1075.7,314.8 L1075.8,309.1 L1075.8,318.1 L1075.8,291.5 L1075.8,319.5 L1075.9,310.6 L1075.9,312.1 L1075.9,295.9 L1075.9,322.7 L1076.0,316.4 L1076.0,308.5 L1076.0,309.0 L1076.0,305.0 L1076.1,311.1 L1076.1,310.9 L1076.1,324.4 L1076.1,331.7 L1076.2,307.8 L1076.2,325.9 L1076.2,320.4 L1076.3,321.8 L1076.4,329.3 L1076.4,309.3 L1076.4,332.8 L1076.4,332.0 L1076.5,314.8 L1076.5,329.8 L1076.5,319.8 L1076.5,321.6 L1076.6,322.3 L1076.6,338.9 L1076.6,320.5 L1076.6,325.4 L1076.7,322.4 L1076.7,342.0 L1076.7,327.3 L1076.7,346.4 L1076.8,334.3 L1076.8,325.2 L1076.8,348.6 L1076.8,327.9 L1076.9,324.7 L1076.9,342.9 L1077.0,328.4 L1077.0,350.6 L1077.1,344.7 L1077.1,335.7 L1077.1,336.9 L1077.1,341.5 L1077.2,346.6 L1077.2,336.9 L1077.2,345.6 L1077.2,349.4 L1077.3,340.7 L1077.3,346.9 L1077.3,348.6 L1077.3,338.2 L1077.4,357.2 L1077.4,348.4 L1077.4,362.0 L1077.4,356.4 L1077.5,361.1 L1077.5,360.9 L1077.5,353.3 L1077.5,355.5 L1077.6,346.0 L1077.7,350.9 L1077.7,368.3 L1077.7,364.4 L1077.8,362.3 L1077.8,360.1 L1077.8,365.5 L1077.8,352.7 L1077.9,364.8 L1077.9,358.0 L1077.9,356.5 L1077.9,368.9 L1077.9,360.3 L1078.0,359.5 L1078.0,359.0 L1078.0,371.2 L1078.0,365.6 L1078.1,360.9 L1078.1,365.3 L1078.1,381.2 L1078.1,377.2 L1078.2,370.7 L1078.2,373.5 L1078.2,375.7 L1078.3,369.6 L1078.4,377.5 L1078.4,381.9 L1078.4,374.0 L1078.4,382.8 L1078.5,380.4 L1078.5,378.4 L1078.5,389.3 L1078.5,379.8 L1078.6,378.5 L1078.6,388.8 L1078.6,382.1 L1078.6,383.4 L1078.7,392.0 L1078.7,395.1 L1078.7,383.0 L1078.7,384.2 L1078.8,391.4 L1078.8,399.0 L1078.8,386.2 L1078.8,388.5 L1078.9,390.6 L1078.9,398.0 L1079.0,399.1 L1079.0,394.7 L1079.1,401.7 L1079.1,405.3 L1079.1,406.1 L1079.1,395.5 L1079.2,405.8 L1079.2,407.7 L1079.2,409.6 L1079.2,398.6 L1079.3,411.1 L1079.3,412.5 L1079.3,404.1 L1079.3,404.9 L1079.4,407.6 L1079.4,415.2 L1079.4,409.2 L1079.4,415.4 L1079.5,408.4 L1079.5,415.3 L1079.5,410.2 L1079.5,414.9 L1079.6,414.3 L1079.7,419.2 L1079.7,417.5 L1079.7,418.9 L1079.8,415.0 L1079.8,422.9 L1079.8,418.0 L1079.8,425.8 L1079.9,420.6 L1079.9,422.8 L1079.9,429.1 L1079.9,426.7 L1080.0,428.0 L1080.0,423.9 L1080.0,424.1 L1080.0,429.8 L1080.1,429.2 L1080.1,431.1 L1080.1,430.6 L1080.1,428.9 L1080.2,427.5 L1080.2,428.6 L1080.2,432.6 L1080.2,430.7 L1080.3,434.4 L1080.4,440.8 L1080.4,439.0 L1080.4,442.8 L1080.4,440.3 L1080.5,440.8 L1080.5,443.7 L1080.5,442.4 L1080.5,443.1 L1080.6,442.9 L1080.6,446.0 L1080.6,444.9 L1080.6,445.2 L1080.7,444.7 L1080.7,445.7 L1080.7,448.6 L1080.7,450.5 L1080.8,449.2 L1080.8,448.9 L1080.8,450.3 L1080.8,452.0 L1080.9,451.9 L1080.9,454.3 L1081.0,457.5 L1081.0,457.5 L1081.1,457.4 L1081.1,458.2 L1081.1,460.9 L1081.1,460.9 L1081.2,461.8 L1081.2,462.2 L1081.2,463.0 L1081.2,464.2 L1081.3,464.1 L1081.3,465.3 L1081.3,465.8 L1081.3,467.7 L1081.4,467.2 L1081.4,467.9 L1081.4,469.4 L1081.4,470.1 L1081.5,470.4 L1081.5,471.1 L1081.5,471.8 L1081.5,472.7 L1081.6,473.3 L1081.7,476.6 L1081.7,477.4 L1081.7,478.5 L1081.8,478.5 L1081.8,479.8 L1081.8,481.7 L1081.8,482.2 L1081.9,482.5 L1081.9,482.7 L1081.9,483.0 L1081.9,484.4 L1082.0,484.5 L1082.0,486.0 L1082.0,485.1 L1082.0,488.7 L1082.1,486.7 L1082.1,489.5 L1082.1,490.1 L1082.1,490.1 L1082.2,489.4 L1082.2,492.3 L1082.2,491.6 L1082.2,492.2 L1082.4,495.9 L1082.4,498.3 L1082.4,499.6 L1082.4,498.6 L1082.5,500.0 L1082.5,500.3 L1082.5,499.5 L1082.5,503.1 L1082.6,502.2 L1082.6,505.4 L1082.6,500.9 L1082.6,504.4 L1082.7,507.0 L1082.7,503.0 L1082.7,505.0 L1082.7,509.8 L1082.8,505.7 L1082.8,510.1 L1082.8,512.3 L1082.8,512.8 L1082.9,511.8 L1082.9,510.0 L1082.9,510.0 L1083.0,511.9 L1083.1,518.9 L1083.1,518.6 L1083.1,513.2 L1083.1,520.1 L1083.2,518.3 L1083.2,520.9 L1083.2,514.7 L1083.3,525.2 L1083.4,523.8 L1083.4,528.7 L1083.4,523.0 L1083.4,530.4 L1083.5,529.8 L1083.5,522.8 L1083.5,526.6 L1083.5,533.7 L1083.6,523.8 L1083.7,529.8 L1083.7,528.4 L1083.7,527.4 L1083.7,532.2 L1083.8,534.3 L1083.8,533.3 L1083.8,530.3 L1083.8,540.7 L1083.9,535.0 L1083.9,533.8 L1083.9,535.1 L1083.9,544.0 L1084.0,534.7 L1084.0,542.6 L1084.0,535.5" fill="none" stroke="#1f77b4" stroke-width="1.4" opacity="0.85"/><text x="1040" y="54" fill="#ff7f0e" font-size="11">roll 19</text><text x="1090" y="558" fill="#ff7f0e" font-size="11">-18</text><path d="M1060.0,315.6 L1060.0,314.4 L1060.1,314.4 L1060.1,313.1 L1060.1,314.4 L1060.1,314.4 L1060.2,314.4 L1060.2,314.4 L1060.2,314.4 L1060.2,314.4 L1060.3,314.4 L1060.3,313.1 L1060.3,311.9 L1060.3,311.9 L1060.4,313.1 L1060.4,311.9 L1060.4,313.1 L1060.4,311.9 L1060.5,310.6 L1060.5,310.6 L1060.5,311.9 L1060.5,309.4 L1060.6,309.4 L1060.6,309.4 L1060.6,310.6 L1060.6,309.4 L1060.7,306.9 L1060.7,306.9 L1060.7,305.6 L1060.7,306.9 L1060.8,304.4 L1060.8,305.6 L1060.8,304.4 L1060.8,303.1 L1060.9,301.8 L1060.9,303.1 L1060.9,301.8 L1060.9,298.1 L1061.0,298.1 L1061.0,299.3 L1061.0,299.3 L1061.0,298.1 L1061.1,296.8 L1061.1,296.8 L1061.1,296.8 L1061.1,293.1 L1061.2,295.6 L1061.2,291.8 L1061.2,291.8 L1061.2,290.6 L1061.3,294.3 L1061.3,290.6 L1061.3,288.0 L1061.3,290.6 L1061.4,288.0 L1061.4,283.0 L1061.4,285.5 L1061.4,285.5 L1061.5,281.8 L1061.5,281.8 L1061.5,280.5 L1061.5,278.0 L1061.6,283.0 L1061.6,276.8 L1061.6,276.8 L1061.6,276.8 L1061.7,278.0 L1061.7,280.5 L1061.7,278.0 L1061.7,275.5 L1061.8,270.5 L1061.8,268.0 L1061.8,271.7 L1061.8,274.2 L1061.9,271.7 L1061.9,274.2 L1061.9,264.2 L1061.9,264.2 L1062.0,266.7 L1062.0,270.5 L1062.0,262.9 L1062.0,261.7 L1062.1,260.4 L1062.1,264.2 L1062.1,264.2 L1062.1,265.5 L1062.1,266.7 L1062.2,266.7 L1062.2,265.5 L1062.2,257.9 L1062.2,259.2 L1062.3,264.2 L1062.3,257.9 L1062.3,261.7 L1062.4,261.7 L1062.4,261.7 L1062.4,254.2 L1062.4,257.9 L1062.5,256.7 L1062.5,261.7 L1062.5,255.4 L1062.5,256.7 L1062.6,251.7 L1062.6,249.1 L1062.6,254.2 L1062.6,260.4 L1062.7,261.7 L1062.7,249.1 L1062.7,262.9 L1062.7,256.7 L1062.8,251.7 L1062.8,251.7 L1062.8,259.2 L1062.8,251.7 L1062.8,259.2 L1062.9,257.9 L1062.9,252.9 L1062.9,255.4 L1062.9,262.9 L1063.0,255.4 L1063.0,260.4 L1063.0,255.4 L1063.0,261.7 L1063.1,266.7 L1063.1,256.7 L1063.1,264.2 L1063.1,259.2 L1063.2,259.2 L1063.2,265.5 L1063.2,260.4 L1063.2,268.0 L1063.3,265.5 L1063.3,265.5 L1063.3,257.9 L1063.3,260.4 L1063.4,269.2 L1063.4,259.2 L1063.4,260.4 L1063.5,259.2 L1063.5,262.9 L1063.5,269.2 L1063.5,270.5 L1063.6,265.5 L1063.6,259.2 L1063.6,262.9 L1063.6,264.2 L1063.7,264.2 L1063.7,269.2 L1063.7,264.2 L1063.7,262.9 L1063.7,268.0 L1063.8,265.5 L1063.8,268.0 L1063.8,266.7 L1063.8,262.9 L1063.9,266.7 L1063.9,273.0 L1063.9,274.2 L1063.9,265.5 L1064.0,273.0 L1064.0,268.0 L1064.0,266.7 L1064.1,264.2 L1064.1,269.2 L1064.1,265.5 L1064.1,265.5 L1064.2,266.7 L1064.2,274.2 L1064.2,273.0 L1064.2,271.7 L1064.3,274.2 L1064.3,271.7 L1064.3,269.2 L1064.3,265.5 L1064.4,274.2 L1064.4,271.7 L1064.4,265.5 L1064.4,265.5 L1064.5,264.2 L1064.5,264.2 L1064.5,262.9 L1064.5,261.7 L1064.6,266.7 L1064.6,264.2 L1064.6,265.5 L1064.6,268.0 L1064.7,269.2 L1064.7,261.7 L1064.7,262.9 L1064.7,260.4 L1064.8,300.6 L1064.8,274.2 L1064.8,255.4 L1064.8,234.1 L1064.9,229.1 L1064.9,207.7 L1064.9,195.2 L1064.9,183.9 L1065.0,167.6 L1065.0,135.0 L1065.0,147.5 L1065.0,137.5 L1065.1,140.0 L1065.1,118.7 L1065.1,112.4 L1065.1,126.2 L1065.2,116.2 L1065.2,112.4 L1065.2,96.1 L1065.3,91.1 L1065.3,114.9 L1065.3,116.2 L1065.3,119.9 L1065.4,117.4 L1065.4,126.2 L1065.4,102.3 L1065.4,107.4 L1065.5,111.1 L1065.5,118.7 L1065.5,117.4 L1065.5,124.9 L1065.6,142.5 L1065.6,155.0 L1065.6,131.2 L1065.6,136.2 L1065.7,140.0 L1065.7,135.0 L1065.7,161.3 L1065.7,172.6 L1065.8,167.6 L1065.8,226.6 L1065.8,204.0 L1065.9,195.2 L1065.9,210.3 L1065.9,210.3 L1065.9,191.4 L1066.0,211.5 L1066.0,197.7 L1066.0,199.0 L1066.0,190.2 L1066.1,205.2 L1066.1,196.5 L1066.1,196.5 L1066.1,188.9 L1066.2,196.5 L1066.2,196.5 L1066.2,200.2 L1066.2,200.2 L1066.3,206.5 L1066.3,211.5 L1066.3,227.8 L1066.3,230.3 L1066.4,234.1 L1066.4,262.9 L1066.4,281.8 L1066.5,273.0 L1066.5,269.2 L1066.5,270.5 L1066.5,254.2 L1066.6,259.2 L1066.6,245.4 L1066.6,259.2 L1066.6,288.0 L1066.7,315.6 L1066.7,339.5 L1066.7,375.9 L1066.7,387.2 L1066.8,416.0 L1066.8,422.3 L1066.8,434.8 L1066.8,468.7 L1066.9,459.9 L1066.9,476.2 L1066.9,493.8 L1066.9,507.6 L1066.9,495.1 L1067.0,486.3 L1067.0,511.4 L1067.0,487.5 L1067.1,492.6 L1067.1,510.1 L1067.1,513.9 L1067.1,520.2 L1067.2,527.7 L1067.2,520.2 L1067.2,527.7 L1067.2,516.4 L1067.3,501.3 L1067.3,536.5 L1067.3,512.6 L1067.3,501.3 L1067.4,500.1 L1067.4,534.0 L1067.4,520.2 L1067.4,506.4 L1067.5,507.6 L1067.5,539.0 L1067.5,510.1 L1067.5,531.5 L1067.6,531.5 L1067.6,512.6 L1067.6,517.7 L1067.7,534.0 L1067.7,507.6 L1067.7,536.5 L1067.7,541.5 L1067.8,521.4 L1067.8,521.4 L1067.8,525.2 L1067.8,537.7 L1067.9,541.5 L1067.9,526.4 L1067.9,528.9 L1067.9,534.0 L1068.0,532.7 L1068.0,531.5 L1068.0,515.1 L1068.0,535.2 L1068.1,521.4 L1068.1,510.1 L1068.1,506.4 L1068.1,503.8 L1068.2,526.4 L1068.2,505.1 L1068.3,525.2 L1068.3,531.5 L1068.3,520.2 L1068.3,520.2 L1068.4,522.7 L1068.4,525.2 L1068.4,508.9 L1068.4,527.7 L1068.5,508.9 L1068.5,532.7 L1068.5,532.7 L1068.5,532.7 L1068.6,532.7 L1068.6,528.9 L1068.6,539.0 L1068.6,516.4 L1068.6,526.4 L1068.7,544.0 L1068.7,515.1 L1068.7,500.1 L1068.7,506.4 L1068.8,502.6 L1068.8,478.8 L1068.9,493.8 L1068.9,517.7 L1068.9,517.7 L1068.9,508.9 L1069.0,517.7 L1069.0,523.9 L1069.0,520.2 L1069.0,496.3 L1069.1,516.4 L1069.1,536.5 L1069.1,515.1 L1069.1,518.9 L1069.2,516.4 L1069.2,493.8 L1069.2,441.1 L1069.2,422.3 L1069.3,370.9 L1069.3,338.2 L1069.3,314.4 L1069.3,290.6 L1069.4,268.0 L1069.4,192.7 L1069.5,186.4 L1069.5,171.4 L1069.5,148.8 L1069.5,156.3 L1069.6,136.2 L1069.6,137.5 L1069.6,126.2 L1069.6,136.2 L1069.7,122.4 L1069.7,138.7 L1069.7,116.2 L1069.7,127.4 L1069.8,104.9 L1069.8,108.6 L1069.8,98.6 L1069.8,107.4 L1069.9,109.9 L1069.9,97.3 L1069.9,135.0 L1069.9,99.8 L1070.0,117.4 L1070.0,132.5 L1070.1,126.2 L1070.1,111.1 L1070.1,91.1 L1070.1,98.6 L1070.2,86.0 L1070.2,113.6 L1070.2,109.9 L1070.2,88.5 L1070.3,124.9 L1070.3,102.3 L1070.3,102.3 L1070.3,128.7 L1070.4,118.7 L1070.4,93.6 L1070.4,109.9 L1070.4,91.1 L1070.5,104.9 L1070.5,123.7 L1070.5,96.1 L1070.5,108.6 L1070.6,107.4 L1070.6,98.6 L1070.6,117.4 L1070.7,118.7 L1070.7,117.4 L1070.7,96.1 L1070.7,119.9 L1070.8,108.6 L1070.8,96.1 L1070.8,117.4 L1070.8,87.3 L1070.9,126.2 L1070.9,119.9 L1070.9,118.7 L1070.9,109.9 L1071.0,124.9 L1071.0,127.4 L1071.0,124.9 L1071.0,91.1 L1071.1,106.1 L1071.1,117.4 L1071.1,102.3 L1071.1,114.9 L1071.2,124.9 L1071.2,89.8 L1071.2,106.1 L1071.3,147.5 L1071.3,150.0 L1071.3,133.7 L1071.4,112.4 L1071.4,112.4 L1071.4,104.9 L1071.4,107.4 L1071.5,114.9 L1071.5,96.1 L1071.5,113.6 L1071.5,114.9 L1071.6,114.9 L1071.6,96.1 L1071.6,117.4 L1071.6,108.6 L1071.7,108.6 L1071.7,126.2 L1071.7,92.3 L1071.7,94.8 L1071.8,102.3 L1071.8,104.9 L1071.8,93.6 L1071.8,97.3 L1071.9,92.3 L1071.9,104.9 L1072.0,82.3 L1072.0,117.4 L1072.0,109.9 L1072.0,97.3 L1072.1,114.9 L1072.1,118.7 L1072.1,84.8 L1072.1,113.6 L1072.2,104.9 L1072.2,126.2 L1072.2,86.0 L1072.2,128.7 L1072.3,128.7 L1072.3,122.4 L1072.3,126.2 L1072.3,89.8 L1072.4,124.9 L1072.4,114.9 L1072.4,96.1 L1072.4,114.9 L1072.5,87.3 L1072.5,79.8 L1072.6,91.1 L1072.6,111.1 L1072.6,76.0 L1072.6,117.4 L1072.7,98.6 L1072.7,89.8 L1072.7,114.9 L1072.7,101.1 L1072.8,89.8 L1072.8,89.8 L1072.8,117.4 L1072.8,114.9 L1072.9,99.8 L1072.9,107.4 L1072.9,116.2 L1072.9,116.2 L1073.0,132.5 L1073.0,106.1 L1073.0,116.2 L1073.0,101.1 L1073.1,109.9 L1073.1,93.6 L1073.1,111.1 L1073.2,99.8 L1073.2,114.9 L1073.2,102.3 L1073.2,94.8 L1073.3,118.7 L1073.3,107.4 L1073.3,131.2 L1073.3,106.1 L1073.4,116.2 L1073.4,93.6 L1073.4,119.9 L1073.4,88.5 L1073.5,126.2 L1073.5,106.1 L1073.5,126.2 L1073.5,87.3 L1073.6,91.1 L1073.6,130.0 L1073.6,106.1 L1073.6,114.9 L1073.7,104.9 L1073.7,96.1 L1073.8,124.9 L1073.8,116.2 L1073.8,116.2 L1073.8,88.5 L1073.9,98.6 L1073.9,106.1 L1073.9,92.3 L1073.9,98.6 L1074.0,97.3 L1074.0,99.8 L1074.0,97.3 L1074.0,103.6 L1074.1,122.4 L1074.1,112.4 L1074.1,123.7 L1074.1,99.8 L1074.2,112.4 L1074.2,97.3 L1074.2,114.9 L1074.2,101.1 L1074.3,128.7 L1074.3,113.6 L1074.3,109.9 L1074.4,109.9 L1074.4,94.8 L1074.4,94.8 L1074.5,113.6 L1074.5,117.4 L1074.5,92.3 L1074.5,96.1 L1074.6,97.3 L1074.6,98.6 L1074.6,94.8 L1074.6,98.6 L1074.7,119.9 L1074.7,117.4 L1074.7,98.6 L1074.7,122.4 L1074.8,101.1 L1074.8,107.4 L1074.8,96.1 L1074.8,127.4 L1074.9,96.1 L1074.9,111.1 L1074.9,123.7 L1074.9,116.2 L1075.0,101.1 L1075.0,106.1 L1075.1,122.4 L1075.1,99.8 L1075.1,108.6 L1075.2,102.3 L1075.2,114.9 L1075.2,113.6 L1075.2,124.9 L1075.3,96.1 L1075.3,128.7 L1075.3,116.2 L1075.3,124.9 L1075.4,107.4 L1075.4,116.2 L1075.4,89.8 L1075.4,128.7 L1075.5,96.1 L1075.5,96.1 L1075.5,124.9 L1075.5,99.8 L1075.6,127.4 L1075.7,108.6 L1075.7,104.9 L1075.7,87.3 L1075.7,99.8 L1075.8,93.6 L1075.8,98.6 L1075.8,91.1 L1075.8,124.9 L1075.9,121.2 L1075.9,124.9 L1075.9,119.9 L1075.9,108.6 L1076.0,84.8 L1076.0,112.4 L1076.0,116.2 L1076.0,101.1 L1076.1,96.1 L1076.1,92.3 L1076.1,88.5 L1076.1,111.1 L1076.2,121.2 L1076.2,89.8 L1076.2,104.9 L1076.3,135.0 L1076.4,156.3 L1076.4,141.2 L1076.4,136.2 L1076.4,117.4 L1076.5,145.0 L1076.5,143.8 L1076.5,99.8 L1076.5,127.4 L1076.6,117.4 L1076.6,124.9 L1076.6,117.4 L1076.6,121.2 L1076.7,121.2 L1076.7,104.9 L1076.7,97.3 L1076.7,130.0 L1076.8,111.1 L1076.8,91.1 L1076.8,101.1 L1076.8,116.2 L1076.9,92.3 L1076.9,113.6 L1077.0,107.4 L1077.0,116.2 L1077.1,131.2 L1077.1,107.4 L1077.1,86.0 L1077.1,89.8 L1077.2,104.9 L1077.2,98.6 L1077.2,92.3 L1077.2,128.7 L1077.3,130.0 L1077.3,131.2 L1077.3,117.4 L1077.3,130.0 L1077.4,93.6 L1077.4,93.6 L1077.4,122.4 L1077.4,117.4 L1077.5,109.9 L1077.5,128.7 L1077.5,123.7 L1077.5,89.8 L1077.6,127.4 L1077.7,81.0 L1077.7,103.6 L1077.7,81.0 L1077.8,86.0 L1077.8,116.2 L1077.8,87.3 L1077.8,101.1 L1077.9,119.9 L1077.9,112.4 L1077.9,99.8 L1077.9,92.3 L1077.9,111.1 L1078.0,116.2 L1078.0,106.1 L1078.0,114.9 L1078.0,111.1 L1078.1,111.1 L1078.1,86.0 L1078.1,128.7 L1078.1,101.1 L1078.2,87.3 L1078.2,101.1 L1078.2,113.6 L1078.3,113.6 L1078.4,103.6 L1078.4,89.8 L1078.4,93.6 L1078.4,97.3 L1078.5,97.3 L1078.5,102.3 L1078.5,132.5 L1078.5,108.6 L1078.6,93.6 L1078.6,116.2 L1078.6,104.9 L1078.6,122.4 L1078.7,122.4 L1078.7,114.9 L1078.7,102.3 L1078.7,104.9 L1078.8,104.9 L1078.8,127.4 L1078.8,121.2 L1078.8,99.8 L1078.9,116.2 L1078.9,111.1 L1079.0,114.9 L1079.0,106.1 L1079.1,126.2 L1079.1,98.6 L1079.1,117.4 L1079.1,121.2 L1079.2,117.4 L1079.2,119.9 L1079.2,87.3 L1079.2,97.3 L1079.3,98.6 L1079.3,114.9 L1079.3,107.4 L1079.3,108.6 L1079.4,113.6 L1079.4,103.6 L1079.4,97.3 L1079.4,124.9 L1079.5,128.7 L1079.5,118.7 L1079.5,98.6 L1079.5,119.9 L1079.6,93.6 L1079.7,158.8 L1079.7,136.2 L1079.7,124.9 L1079.8,119.9 L1079.8,128.7 L1079.8,114.9 L1079.8,132.5 L1079.9,109.9 L1079.9,104.9 L1079.9,118.7 L1079.9,131.2 L1080.0,92.3 L1080.0,108.6 L1080.0,131.2 L1080.0,94.8 L1080.1,111.1 L1080.1,119.9 L1080.1,118.7 L1080.1,91.1 L1080.2,91.1 L1080.2,121.2 L1080.2,124.9 L1080.2,98.6 L1080.3,103.6 L1080.4,101.1 L1080.4,88.5 L1080.4,102.3 L1080.4,103.6 L1080.5,82.3 L1080.5,124.9 L1080.5,118.7 L1080.5,94.8 L1080.6,116.2 L1080.6,98.6 L1080.6,106.1 L1080.6,109.9 L1080.7,98.6 L1080.7,93.6 L1080.7,109.9 L1080.7,108.6 L1080.8,94.8 L1080.8,104.9 L1080.8,130.0 L1080.8,104.9 L1080.9,114.9 L1080.9,112.4 L1081.0,128.7 L1081.0,130.0 L1081.1,142.5 L1081.1,143.8 L1081.1,118.7 L1081.1,140.0 L1081.2,108.6 L1081.2,142.5 L1081.2,141.2 L1081.2,127.4 L1081.3,109.9 L1081.3,119.9 L1081.3,118.7 L1081.3,98.6 L1081.4,96.1 L1081.4,107.4 L1081.4,116.2 L1081.4,124.9 L1081.5,122.4 L1081.5,112.4 L1081.5,136.2 L1081.5,98.6 L1081.6,114.9 L1081.7,130.0 L1081.7,113.6 L1081.7,118.7 L1081.8,157.6 L1081.8,140.0 L1081.8,142.5 L1081.8,161.3 L1081.9,188.9 L1081.9,229.1 L1081.9,204.0 L1081.9,188.9 L1082.0,207.7 L1082.0,186.4 L1082.0,199.0 L1082.0,230.3 L1082.1,247.9 L1082.1,216.5 L1082.1,227.8 L1082.1,211.5 L1082.2,217.8 L1082.2,201.5 L1082.2,229.1 L1082.2,234.1 L1082.4,178.9 L1082.4,167.6 L1082.4,185.2 L1082.4,165.1 L1082.5,202.7 L1082.5,206.5 L1082.5,205.2 L1082.5,235.3 L1082.6,257.9 L1082.6,249.1 L1082.6,252.9 L1082.6,254.2 L1082.7,245.4 L1082.7,232.8 L1082.7,226.6 L1082.7,232.8 L1082.8,242.9 L1082.8,250.4 L1082.8,271.7 L1082.8,264.2 L1082.9,251.7 L1082.9,278.0 L1082.9,256.7 L1083.0,187.7 L1083.1,167.6 L1083.1,181.4 L1083.1,207.7 L1083.1,241.6 L1083.2,247.9 L1083.2,242.9 L1083.2,212.8 L1083.3,363.3 L1083.4,350.8 L1083.4,352.0 L1083.4,350.8 L1083.4,349.5 L1083.5,343.2 L1083.5,339.5 L1083.5,337.0 L1083.5,338.2 L1083.6,335.7 L1083.7,326.9 L1083.7,329.4 L1083.7,326.9 L1083.7,324.4 L1083.8,324.4 L1083.8,324.4 L1083.8,324.4 L1083.8,321.9 L1083.9,320.7 L1083.9,323.2 L1083.9,321.9 L1083.9,320.7 L1084.0,320.7 L1084.0,318.2 L1084.0,320.7" fill="none" stroke="#ff7f0e" stroke-width="1.1" opacity="0.85"/><text x="616" y="572" font-size="11" fill="#888">time 0..829 s — altitude (blue) &amp; roll (orange)</text></svg>