<svg xmlns="http://www.w3.org/2000/svg" width="1140" height="600" font-family="sans-serif" font-size="13"><rect width="1140" height="600" fill="white"/><text x="20" y="26" font-size="15" fill="#333">Coludo flight</text><rect x="20" y="40" width="540" height="540" fill="#fbfbfb" stroke="#ddd"/><rect x="50" y="302" width="315" height="68" fill="#cde" stroke="#369" opacity="0.7"/><text x="50" y="297" fill="#369" font-size="12">landing zone</text><circle cx="249" cy="408" r="5" fill="black"/><text x="257" y="412" font-size="12">pad</text><path d="M250.3,408.2 L250.3,408.2 L250.3,408.2 L250.3,408.2 L250.3,408.2 L250.3,408.2 L250.3,408.2 L250.3,408.2 L250.3,408.2 L250.3,408.2 L250.3,408.2 L250.3,408.2 L250.3,408.2 L250.3,408.2 L250.3,408.2 L250.3,408.2 L250.3,408.2 L250.3,408.2 L250.3,408.2 L250.3,408.2 L250.3,408.2 L250.3,408.2 L250.3,408.2 L250.3,408.2 L250.3,408.2 L250.3,408.2 L250.3,408.2 L250.3,408.2 L250.3,408.2 L250.3,408.2 L250.3,408.2 L250.3,408.2 L250.3,408.2 L250.3,408.2 L250.3,408.2 L250.3,408.2 L250.3,408.2 L250.3,408.2 L250.3,408.2 L250.3,408.2 L250.3,408.2 L250.3,408.2 L250.3,408.2 L250.3,408.2 L250.3,408.2 L250.3,408.2 L250.3,408.2 L250.3,408.2 L250.3,408.2 L250.3,408.2 L250.3,408.2 L250.3,408.2 L250.3,408.2 L250.3,408.2 L250.3,408.2 L250.3,408.2 L250.3,408.2 L250.3,408.2 L250.3,408.2 L250.3,408.2 L250.3,408.2 L250.3,408.2 L250.3,408.2 L250.3,408.2 L250.3,408.2 L250.3,408.2 L250.3,408.2 L250.3,408.2 L250.3,408.2 L250.3,408.2 L250.3,408.2 L250.3,407.8 L251.4,405.6 L252.0,403.3 L253.7,401.1 L255.4,398.8 L257.1,397.0 L258.8,394.7 L260.5,392.4 L262.2,390.9 L263.9,388.7 L265.6,386.8 L267.3,384.6 L269.0,383.1 L270.7,381.2 L273.1,378.9 L274.1,377.4 L277.5,375.5 L278.5,374.4 L280.8,372.5 L282.5,371.0 L284.2,369.2 L287.6,367.7 L289.3,366.5 L291.0,365.0 L294.4,363.1 L294.7,361.6 L297.8,360.1 L299.5,358.6 L301.2,356.8 L302.9,354.9 L305.6,353.0 L306.3,351.5 L308.0,349.3 L311.4,347.0 L312.4,345.1 L313.1,343.2 L314.7,341.0 L317.8,338.7 L318.1,336.9 L319.8,334.6 L321.5,332.3 L321.9,329.7 L323.2,327.8 L324.9,325.2 L324.9,323.0 L326.6,320.7 L327.3,318.1 L328.3,315.4 L328.3,313.6 L330.0,310.6 L330.0,308.3 L331.7,304.6 L331.7,301.9 L331.7,299.3 L332.7,296.7 L332.7,294.4 L332.7,291.4 L333.4,288.8 L333.4,286.5 L335.1,283.9 L335.1,281.6 L336.8,279.0 L336.8,276.4 L338.5,274.5 L338.8,271.5 L340.2,269.2 L340.2,267.0 L341.9,264.7 L343.6,262.1 L344.9,259.9 L345.3,257.6 L346.9,255.7 L348.6,253.5 L349.0,251.6 L350.3,249.3 L353.7,247.1 L354.4,245.2 L355.4,243.3 L358.8,241.5 L360.5,239.6 L361.9,237.7 L363.9,236.2 L365.6,234.3 L367.3,232.8 L369.0,230.9 L372.7,229.4 L374.1,227.9 L375.8,226.4 L377.5,224.9 L380.8,223.8 L382.5,222.3 L384.2,221.2 L387.6,220.0 L389.3,218.9 L392.7,217.8 L393.1,217.0 L397.8,215.9 L398.5,215.2 L401.2,214.4 L403.2,213.7 L406.3,212.9 L408.6,212.9 L411.4,212.2 L414.7,211.8 L416.4,211.4 L419.8,211.0 L421.5,210.7 L424.9,210.7 L426.6,210.7 L430.0,210.3 L431.7,210.7 L435.1,210.7 L437.8,210.7 L440.2,211.0 L443.2,211.4 L445.3,211.8 L448.0,212.2 L450.3,212.9 L453.4,212.9 L455.4,213.7 L458.8,214.4 L460.5,215.2 L462.2,215.9 L463.6,216.7 L467.3,217.8 L470.3,218.9 L472.4,220.0 L474.4,221.2 L475.8,222.3 L479.2,223.4 L480.8,224.9 L484.2,226.1 L485.9,227.6 L487.6,228.7 L491.0,230.6 L491.4,232.1 L494.4,233.9 L496.1,235.4 L497.8,236.9 L499.5,238.8 L501.5,240.7 L502.9,242.6 L506.3,244.5 L508.3,246.3 L508.0,248.6 L509.7,250.5 L513.1,252.3 L513.1,254.6 L514.7,256.9 L516.4,259.1 L518.1,261.4 L518.5,263.6 L519.8,266.2 L521.5,267.7 L521.5,270.7 L523.2,273.0 L523.9,275.3 L524.9,277.5 L524.9,280.5 L526.6,282.4 L526.6,285.4 L528.3,287.7 L528.3,290.3 L528.6,292.9 L528.6,295.5 L528.6,297.8 L528.6,300.8 L528.6,303.1 L530.0,306.1 L530.0,308.3 L530.0,311.3 L530.0,315.4 L528.6,318.1 L528.6,320.7 L528.6,323.3 L528.6,325.6 L528.3,328.6 L528.3,330.8 L526.6,333.5 L526.6,336.1 L524.9,338.4 L523.9,342.9 L523.9,345.1 L523.2,347.7 L521.5,350.0 L519.8,351.9 L518.5,354.9 L518.1,356.8 L516.4,359.4 L514.7,361.3 L513.1,363.9 L511.4,367.3 L509.7,369.5 L508.0,371.8 L508.3,373.7 L504.6,375.5 L502.9,377.4 L501.2,379.7 L499.5,381.2 L497.5,383.4 L492.7,387.6 L491.0,389.4 L487.6,390.9 L485.9,392.1 L484.2,393.9 L480.8,395.1 L479.2,396.6 L477.5,397.7 L474.4,398.8 L472.4,400.0 L469.0,401.8 L465.6,403.0 L463.9,404.1 L460.5,404.8 L458.8,405.6 L457.1,406.3 L453.4,406.7 L452.0,407.5 L448.6,407.8 L446.9,408.6 L441.9,409.0 L438.5,409.3 L436.8,409.7 L433.4,409.7 L432.4,409.7 L428.3,409.7 L426.3,409.7 L423.2,409.3 L420.8,409.3 L418.1,409.0 L414.7,408.2 L409.7,407.8 L408.6,407.5 L406.3,406.7 L403.2,406.3 L401.2,405.6 L398.5,404.8 L396.1,404.1 L393.1,403.0 L391.0,402.2 L387.6,400.0 L384.2,398.8 L381.5,398.1 L380.8,397.0 L377.5,395.5 L375.8,393.9 L374.1,392.8 L372.7,390.9 L369.0,390.2 L365.9,388.3 L363.9,385.3 L361.9,383.4 L360.5,381.9 L357.1,380.1 L355.4,378.2 L354.4,376.3 L352.0,374.4 L350.3,372.5 L348.6,370.7 L343.6,365.4 L341.9,363.5 L340.2,361.6 L338.5,359.8 L336.8,357.9 L333.4,356.0 L332.7,354.1 L331.7,351.9 L328.3,350.8 L323.2,345.5 L321.9,344.0 L319.8,342.1 L318.1,340.2 L316.4,338.4 L313.1,336.9 L312.4,335.7 L309.7,334.2 L306.3,332.3 L301.2,329.0 L296.1,326.7 L294.4,325.6 L291.0,324.5 L290.7,323.3 L287.6,322.2 L284.2,321.5 L282.5,320.7 L279.2,320.0 L277.5,318.8 L274.1,318.1 L272.4,316.9" fill="none" stroke="#1f77b4" stroke-width="1.7" opacity="0.85"/><circle cx="272" cy="317" r="4.5" fill="#1f77b4"/><text x="28" y="572" font-size="11" fill="#888">ground track — m from pad (N up)</text><rect x="580" y="40" width="540" height="540" fill="#fbfbfb" stroke="#ddd"/><text x="586" y="54" fill="#1f77b4" font-size="11">alt 308</text><text x="586" y="558" fill="#1f77b4" font-size="11">-56</text><path d="M1065.9,469.3 L1065.9,469.9 L1066.0,469.4 L1066.0,469.2 L1066.0,468.9 L1066.0,469.3 L1066.0,468.1 L1066.1,468.0 L1066.1,467.8 L1066.1,467.8 L1066.1,467.1 L1066.1,465.7 L1066.1,464.7 L1066.2,465.5 L1066.2,463.6 L1066.2,463.7 L1066.2,463.4 L1066.2,460.9 L1066.3,459.7 L1066.3,458.7 L1066.3,458.1 L1066.3,456.4 L1066.3,457.7 L1066.4,455.2 L1066.4,455.7 L1066.4,450.8 L1066.4,452.1 L1066.4,449.3 L1066.5,446.8 L1066.5,448.9 L1066.5,447.9 L1066.5,442.7 L1066.5,440.3 L1066.6,441.0 L1066.6,439.0 L1066.6,433.8 L1066.6,436.1 L1066.6,429.6 L1066.6,432.1 L1066.7,427.3 L1066.7,423.5 L1066.7,424.2 L1066.7,423.7 L1066.7,417.2 L1066.8,416.7 L1066.8,417.7 L1066.8,413.4 L1066.8,412.9 L1066.8,404.8 L1066.9,401.6 L1066.9,400.7 L1066.9,405.7 L1066.9,400.3 L1066.9,401.3 L1067.0,390.4 L1067.0,387.9 L1067.0,383.4 L1067.0,385.2 L1067.0,384.3 L1067.1,376.5 L1067.1,380.1 L1067.1,373.0 L1067.1,368.8 L1067.1,361.4 L1067.2,365.4 L1067.2,355.8 L1067.2,348.9 L1067.2,346.7 L1067.2,348.8 L1067.2,346.4 L1067.3,346.0 L1067.3,347.3 L1067.3,351.4 L1067.3,346.0 L1067.3,342.1 L1067.4,336.3 L1067.4,337.8 L1067.4,313.8 L1067.4,305.8 L1067.4,312.6 L1067.5,295.2 L1067.5,298.6 L1067.5,304.9 L1067.5,305.5 L1067.5,303.8 L1067.6,304.5 L1067.6,306.8 L1067.6,291.8 L1067.6,299.6 L1067.6,267.0 L1067.7,256.7 L1067.7,260.2 L1067.7,275.1 L1067.7,257.2 L1067.7,283.1 L1067.7,270.6 L1067.8,250.2 L1067.8,261.6 L1067.8,231.6 L1067.8,230.8 L1067.8,264.2 L1067.9,239.6 L1067.9,228.4 L1067.9,245.3 L1067.9,252.8 L1067.9,210.2 L1068.0,249.1 L1068.0,226.4 L1068.0,223.6 L1068.0,206.7 L1068.0,203.7 L1068.1,214.5 L1068.1,192.2 L1068.1,216.3 L1068.1,231.5 L1068.1,180.2 L1068.2,198.5 L1068.2,206.9 L1068.2,201.3 L1068.2,178.3 L1068.2,203.1 L1068.3,216.7 L1068.3,160.7 L1068.3,169.7 L1068.3,186.9 L1068.3,206.7 L1068.4,207.0 L1068.4,183.7 L1068.4,152.2 L1068.4,174.1 L1068.4,167.2 L1068.4,152.9 L1068.5,170.2 L1068.5,183.8 L1068.5,164.6 L1068.5,166.7 L1068.5,160.7 L1068.6,139.3 L1068.6,165.1 L1068.6,173.5 L1068.6,133.1 L1068.6,127.9 L1068.7,171.4 L1068.7,119.3 L1068.7,126.5 L1068.7,115.9 L1068.7,122.9 L1068.8,128.9 L1068.8,128.5 L1068.8,117.7 L1068.8,141.6 L1068.8,125.3 L1068.9,157.6 L1068.9,138.6 L1068.9,123.8 L1068.9,131.5 L1068.9,122.6 L1069.0,137.1 L1069.0,92.0 L1069.0,96.8 L1069.0,139.6 L1069.1,88.8 L1069.1,140.8 L1069.1,148.8 L1069.1,108.0 L1069.1,102.4 L1069.1,132.6 L1069.2,142.1 L1069.2,118.2 L1069.2,129.7 L1069.2,120.7 L1069.2,103.7 L1069.3,110.3 L1069.3,116.1 L1069.3,122.6 L1069.3,112.1 L1069.3,93.0 L1069.4,134.8 L1069.4,107.4 L1069.4,92.0 L1069.4,129.0 L1069.4,76.0 L1069.5,85.5 L1069.5,140.0 L1069.5,77.5 L1069.5,76.1 L1069.6,91.6 L1069.6,101.5 L1069.6,136.1 L1069.6,125.7 L1069.6,80.1 L1069.6,139.4 L1069.7,130.5 L1069.7,145.1 L1069.7,135.4 L1069.7,96.0 L1069.7,92.6 L1069.8,108.1 L1069.8,87.5 L1069.8,108.6 L1069.8,130.7 L1069.8,130.3 L1069.9,77.2 L1069.9,132.2 L1069.9,117.9 L1069.9,135.6 L1069.9,132.5 L1070.0,113.1 L1070.0,111.4 L1070.0,124.0 L1070.0,135.5 L1070.1,102.2 L1070.1,90.6 L1070.1,134.3 L1070.1,145.2 L1070.1,132.6 L1070.1,109.3 L1070.2,116.1 L1070.2,105.3 L1070.2,96.2 L1070.2,98.0 L1070.2,100.2 L1070.3,112.7 L1070.3,97.1 L1070.3,113.7 L1070.3,147.7 L1070.3,113.0 L1070.4,118.1 L1070.4,143.7 L1070.4,98.2 L1070.4,98.4 L1070.5,122.2 L1070.5,106.7 L1070.5,118.3 L1070.5,118.6 L1070.5,145.1 L1070.6,148.8 L1070.6,123.0 L1070.6,93.9 L1070.6,117.6 L1070.6,141.1 L1070.6,115.2 L1070.7,152.6 L1070.7,88.1 L1070.7,116.7 L1070.7,152.7 L1070.7,85.0 L1070.8,113.3 L1070.8,128.5 L1070.8,152.5 L1070.8,92.8 L1070.8,88.2 L1070.9,132.5 L1070.9,114.0 L1070.9,106.3 L1070.9,154.0 L1071.0,107.1 L1071.0,88.9 L1071.0,103.8 L1071.0,92.3 L1071.0,121.1 L1071.1,98.6 L1071.1,110.0 L1071.1,140.3 L1071.1,96.9 L1071.1,91.2 L1071.1,144.2 L1071.2,96.4 L1071.2,110.8 L1071.2,158.3 L1071.2,157.0 L1071.2,100.0 L1071.3,112.7 L1071.3,107.0 L1071.3,106.4 L1071.3,119.8 L1071.4,135.5 L1071.4,113.5 L1071.4,100.5 L1071.4,135.0 L1071.4,98.8 L1071.5,131.3 L1071.5,96.1 L1071.5,124.7 L1071.5,160.9 L1071.5,101.8 L1071.6,109.0 L1071.6,119.1 L1071.6,115.4 L1071.6,135.2 L1071.6,158.9 L1071.7,109.1 L1071.7,146.0 L1071.7,164.0 L1071.7,100.7 L1071.7,156.4 L1071.8,106.4 L1071.8,111.8 L1071.8,163.7 L1071.8,155.6 L1071.9,140.1 L1071.9,106.3 L1071.9,106.2 L1071.9,152.1 L1071.9,160.2 L1072.0,165.1 L1072.0,123.4 L1072.0,114.5 L1072.0,163.3 L1072.0,140.9 L1072.1,113.8 L1072.1,137.5 L1072.1,149.4 L1072.1,113.6 L1072.1,134.9 L1072.2,130.8 L1072.2,156.7 L1072.2,152.0 L1072.2,147.7 L1072.2,159.2 L1072.2,142.6 L1072.3,117.6 L1072.3,124.2 L1072.3,142.4 L1072.4,119.0 L1072.4,143.4 L1072.4,117.1 L1072.4,128.1 L1072.4,167.5 L1072.5,129.4 L1072.5,159.6 L1072.5,157.4 L1072.5,130.0 L1072.5,161.7 L1072.6,161.9 L1072.6,139.6 L1072.6,143.8 L1072.6,159.2 L1072.6,122.5 L1072.6,171.3 L1072.7,181.5 L1072.7,133.7 L1072.7,170.8 L1072.7,126.2 L1072.7,183.1 L1072.8,170.3 L1072.8,168.1 L1072.8,187.4 L1072.9,161.4 L1072.9,164.3 L1072.9,181.9 L1072.9,143.7 L1072.9,153.7 L1073.0,144.2 L1073.0,137.0 L1073.0,176.8 L1073.0,190.7 L1073.0,177.7 L1073.1,176.9 L1073.1,144.9 L1073.1,136.2 L1073.1,157.5 L1073.1,141.2 L1073.1,192.3 L1073.2,174.7 L1073.2,193.0 L1073.2,155.4 L1073.2,141.2 L1073.3,161.2 L1073.3,148.8 L1073.3,193.3 L1073.3,184.6 L1073.4,142.8 L1073.4,182.5 L1073.4,161.5 L1073.4,158.3 L1073.4,188.7 L1073.5,181.3 L1073.5,166.4 L1073.5,149.6 L1073.5,200.0 L1073.5,156.2 L1073.6,189.1 L1073.6,195.7 L1073.6,194.7 L1073.6,181.5 L1073.6,178.4 L1073.6,161.9 L1073.7,198.0 L1073.7,152.3 L1073.7,191.2 L1073.8,204.5 L1073.8,193.0 L1073.8,200.7 L1073.8,182.9 L1073.8,187.2 L1073.9,195.5 L1073.9,204.2 L1073.9,157.3 L1073.9,164.4 L1073.9,196.5 L1074.0,188.3 L1074.0,190.1 L1074.0,180.8 L1074.0,203.9 L1074.0,177.5 L1074.1,168.1 L1074.1,203.0 L1074.1,204.4 L1074.1,184.2 L1074.1,193.5 L1074.1,215.7 L1074.2,208.8 L1074.2,192.2 L1074.2,204.1 L1074.3,174.5 L1074.3,184.9 L1074.3,186.7 L1074.3,173.8 L1074.3,213.4 L1074.4,187.1 L1074.4,217.4 L1074.4,204.2 L1074.4,178.7 L1074.4,219.4 L1074.5,185.8 L1074.5,211.8 L1074.5,221.7 L1074.5,182.9 L1074.5,195.0 L1074.6,218.3 L1074.6,209.5 L1074.6,223.2 L1074.6,178.0 L1074.6,207.1 L1074.7,191.2 L1074.7,206.0 L1074.7,225.9 L1074.7,182.0 L1074.8,227.7 L1074.8,230.3 L1074.8,185.8 L1074.8,189.8 L1074.8,200.4 L1074.9,236.0 L1074.9,222.0 L1074.9,237.0 L1074.9,207.4 L1074.9,196.0 L1075.0,226.3 L1075.0,201.3 L1075.0,201.8 L1075.0,197.4 L1075.0,227.1 L1075.1,225.5 L1075.1,222.0 L1075.1,216.6 L1075.1,208.0 L1075.1,226.3 L1075.2,214.5 L1075.2,247.1 L1075.2,206.9 L1075.2,204.4 L1075.3,224.2 L1075.3,243.2 L1075.3,223.5 L1075.3,207.1 L1075.3,243.1 L1075.4,246.5 L1075.4,215.6 L1075.4,240.7 L1075.4,205.5 L1075.4,217.4 L1075.5,209.3 L1075.5,216.6 L1075.5,248.5 L1075.5,221.8 L1075.5,225.1 L1075.6,221.7 L1075.6,248.0 L1075.6,223.0 L1075.6,232.9 L1075.6,235.6 L1075.7,247.5 L1075.7,221.4 L1075.7,233.9 L1075.8,244.0 L1075.8,242.4 L1075.8,261.4 L1075.8,251.3 L1075.8,223.4 L1075.8,243.7 L1075.9,228.5 L1075.9,258.5 L1075.9,231.0 L1075.9,226.5 L1075.9,229.7 L1076.0,265.3 L1076.0,249.0 L1076.0,242.0 L1076.0,252.3 L1076.0,247.2 L1076.1,259.9 L1076.1,259.8 L1076.1,241.5 L1076.1,252.5 L1076.2,264.7 L1076.2,236.3 L1076.2,261.1 L1076.2,266.8 L1076.3,239.4 L1076.3,237.2 L1076.3,274.7 L1076.3,276.6 L1076.3,237.9 L1076.3,278.4 L1076.4,272.2 L1076.4,276.9 L1076.4,251.5 L1076.4,260.2 L1076.4,271.0 L1076.5,256.5 L1076.5,280.8 L1076.5,258.9 L1076.5,243.7 L1076.5,273.1 L1076.6,246.6 L1076.6,279.8 L1076.6,257.8 L1076.7,270.5 L1076.7,272.1 L1076.7,256.2 L1076.7,266.3 L1076.7,275.4 L1076.8,252.3 L1076.8,291.7 L1076.8,293.5 L1076.8,270.8 L1076.8,281.0 L1076.9,259.4 L1076.9,283.2 L1076.9,271.7 L1076.9,275.2 L1076.9,265.0 L1076.9,271.0 L1077.0,282.3 L1077.0,285.7 L1077.0,263.0 L1077.0,296.0 L1077.0,293.9 L1077.1,296.7 L1077.1,280.3 L1077.1,286.5 L1077.2,279.3 L1077.2,293.6 L1077.2,290.4 L1077.2,295.2 L1077.2,296.7 L1077.3,290.8 L1077.3,304.4 L1077.3,273.3 L1077.3,291.3 L1077.3,284.2 L1077.4,277.7 L1077.4,309.9 L1077.4,302.9 L1077.4,294.0 L1077.4,305.9 L1077.5,310.9 L1077.5,288.7 L1077.5,309.9 L1077.5,300.2 L1077.5,286.6 L1077.6,314.7 L1077.6,292.8 L1077.7,302.4 L1077.7,317.1 L1077.7,290.0 L1077.7,301.9 L1077.7,320.5 L1077.8,309.9 L1077.8,293.3 L1077.8,301.9 L1077.8,318.6 L1077.8,298.1 L1077.9,320.5 L1077.9,319.8 L1077.9,323.9 L1077.9,312.1 L1077.9,322.6 L1078.0,310.9 L1078.0,320.7 L1078.0,323.1 L1078.0,323.0 L1078.0,320.5 L1078.0,304.9 L1078.1,331.9 L1078.1,310.3 L1078.2,335.3 L1078.2,321.3 L1078.2,332.1 L1078.2,326.8 L1078.3,311.5 L1078.3,328.4 L1078.3,336.3 L1078.3,315.7 L1078.3,318.8 L1078.4,339.6 L1078.4,320.4 L1078.4,331.3 L1078.4,325.0 L1078.4,333.3 L1078.5,333.3 L1078.5,346.4 L1078.5,347.3 L1078.5,348.2 L1078.5,347.7 L1078.6,338.3 L1078.6,340.9 L1078.6,335.5 L1078.6,335.7 L1078.7,329.0 L1078.7,350.0 L1078.7,350.8 L1078.8,343.4 L1078.8,355.0 L1078.8,343.8 L1078.8,338.4 L1078.8,352.7 L1078.9,346.5 L1078.9,356.3 L1078.9,342.0 L1078.9,349.5 L1078.9,354.0 L1079.0,358.1 L1079.0,342.3 L1079.0,363.2 L1079.0,359.3 L1079.0,361.0 L1079.1,353.0 L1079.1,350.3 L1079.1,354.7 L1079.1,350.7 L1079.1,359.6 L1079.2,368.0 L1079.2,359.0 L1079.3,357.8 L1079.3,368.1 L1079.3,369.3 L1079.3,362.1 L1079.3,369.6 L1079.4,373.0 L1079.4,362.4 L1079.4,373.7 L1079.4,377.7 L1079.4,368.5 L1079.5,370.2 L1079.5,372.3 L1079.5,377.0 L1079.5,379.8 L1079.5,374.6 L1079.6,364.4 L1079.6,369.8 L1079.6,370.4 L1079.6,372.1 L1079.6,383.3 L1079.6,380.0 L1079.7,384.9 L1079.8,389.8 L1079.8,388.6 L1079.8,388.6 L1079.8,375.4 L1079.8,388.3 L1079.9,387.4 L1079.9,378.2 L1079.9,389.8 L1079.9,386.5 L1079.9,393.8 L1080.0,384.1 L1080.0,384.3 L1080.0,398.8 L1080.0,386.4 L1080.0,384.6 L1080.1,400.2 L1080.1,399.4 L1080.1,397.4 L1080.1,399.4 L1080.1,388.5 L1080.1,392.6 L1080.2,396.2 L1080.3,402.1 L1080.3,397.6 L1080.3,407.9 L1080.3,404.0 L1080.3,399.9 L1080.4,399.8 L1080.4,407.7 L1080.4,405.7 L1080.4,405.5 L1080.4,406.3 L1080.5,408.1 L1080.5,403.2 L1080.5,403.9 L1080.5,406.7 L1080.5,417.7 L1080.6,415.5 L1080.6,415.5 L1080.6,415.8 L1080.6,419.3 L1080.6,419.1 L1080.7,414.2 L1080.7,422.0 L1080.7,419.9 L1080.8,416.5 L1080.8,422.7 L1080.8,426.8 L1080.8,424.8 L1080.9,420.9 L1080.9,424.1 L1080.9,425.9 L1080.9,426.1 L1080.9,429.8 L1081.0,430.1 L1081.0,424.9 L1081.0,430.4 L1081.0,428.2 L1081.0,428.4 L1081.1,435.8 L1081.1,431.0 L1081.1,437.0 L1081.1,433.9 L1081.1,436.2 L1081.2,436.7 L1081.2,439.5 L1081.2,437.5 L1081.2,434.5 L1081.3,440.3 L1081.3,441.3 L1081.3,441.8 L1081.4,443.7 L1081.4,444.5 L1081.4,444.7 L1081.4,446.0 L1081.4,445.7 L1081.5,450.0 L1081.5,449.1 L1081.5,449.7 L1081.5,448.9 L1081.5,449.1 L1081.6,450.1 L1081.6,450.9 L1081.6,452.6 L1081.6,455.1 L1081.6,452.6 L1081.7,456.7 L1081.7,456.5 L1081.7,456.4 L1081.7,456.0 L1081.7,459.2 L1081.8,460.6 L1081.8,463.3 L1081.9,462.9 L1081.9,463.6 L1081.9,464.8 L1081.9,466.1 L1081.9,466.2 L1082.0,467.1 L1082.0,467.0 L1082.0,468.7 L1082.0,469.5 L1082.0,470.3 L1082.1,470.6 L1082.1,471.3 L1082.1,472.2 L1082.1,473.1 L1082.1,473.5 L1082.2,474.4 L1082.2,475.2 L1082.2,476.2 L1082.2,476.5 L1082.2,477.9 L1082.3,478.0 L1082.3,481.6 L1082.4,481.3 L1082.4,482.1 L1082.4,482.8 L1082.4,485.2 L1082.4,486.0 L1082.5,484.8 L1082.5,486.7 L1082.5,486.4 L1082.5,486.8 L1082.5,490.6 L1082.6,489.3 L1082.6,491.7 L1082.6,491.7 L1082.6,493.1 L1082.6,494.5 L1082.7,491.6 L1082.7,495.5 L1082.7,496.8 L1082.7,493.6 L1082.7,496.9 L1082.8,496.4 L1082.8,497.4 L1082.9,501.8 L1082.9,499.2 L1082.9,502.3 L1082.9,501.8 L1083.0,502.0 L1083.0,504.5 L1083.0,504.9 L1083.0,508.7 L1083.0,508.5 L1083.0,505.3 L1083.1,507.3 L1083.1,505.2 L1083.1,512.6 L1083.1,513.1 L1083.1,508.7 L1083.2,510.8 L1083.2,513.9 L1083.2,513.6 L1083.2,510.8 L1083.2,515.4 L1083.3,511.3 L1083.3,513.0 L1083.3,514.6 L1083.4,518.6 L1083.5,518.4 L1083.5,519.0 L1083.5,528.8 L1083.5,524.3 L1083.6,523.2 L1083.6,527.7 L1083.6,528.5 L1083.6,531.6 L1083.6,525.2 L1083.7,526.3 L1083.7,523.9 L1083.7,532.6 L1083.7,529.9 L1083.7,534.4 L1083.8,527.4 L1083.8,538.2 L1083.8,533.2 L1083.8,535.5 L1083.9,539.9 L1083.9,533.5 L1083.9,542.0 L1083.9,544.0 L1084.0,533.5 L1084.0,533.5 L1084.0,539.6" fill="none" stroke="#1f77b4" stroke-width="1.4" opacity="0.85"/><text x="1040" y="54" fill="#ff7f0e" font-size="11">roll 19</text><text x="1090" y="558" fill="#ff7f0e" font-size="11">-20</text><path d="M1065.9,308.2 L1065.9,309.4 L1066.0,308.2 L1066.0,310.6 L1066.0,309.4 L1066.0,309.4 L1066.0,309.4 L1066.1,308.2 L1066.1,309.4 L1066.1,308.2 L1066.1,309.4 L1066.1,309.4 L1066.1,308.2 L1066.2,309.4 L1066.2,309.4 L1066.2,310.6 L1066.2,310.6 L1066.2,309.4 L1066.3,308.2 L1066.3,309.4 L1066.3,309.4 L1066.3,308.2 L1066.3,310.6 L1066.4,309.4 L1066.4,308.2 L1066.4,310.6 L1066.4,310.6 L1066.4,309.4 L1066.5,308.2 L1066.5,308.2 L1066.5,309.4 L1066.5,308.2 L1066.5,309.4 L1066.6,309.4 L1066.6,308.2 L1066.6,309.4 L1066.6,310.6 L1066.6,309.4 L1066.6,309.4 L1066.7,309.4 L1066.7,309.4 L1066.7,309.4 L1066.7,310.6 L1066.7,308.2 L1066.8,310.6 L1066.8,309.4 L1066.8,310.6 L1066.8,309.4 L1066.8,309.4 L1066.9,309.4 L1066.9,309.4 L1066.9,309.4 L1066.9,310.6 L1066.9,308.2 L1067.0,309.4 L1067.0,309.4 L1067.0,308.2 L1067.0,309.4 L1067.0,310.6 L1067.1,308.2 L1067.1,309.4 L1067.1,308.2 L1067.1,310.6 L1067.1,309.4 L1067.2,308.2 L1067.2,310.6 L1067.2,310.6 L1067.2,308.2 L1067.2,309.4 L1067.2,310.6 L1067.3,309.4 L1067.3,310.6 L1067.3,310.6 L1067.3,309.4 L1067.3,309.4 L1067.4,310.6 L1067.4,310.6 L1067.4,310.6 L1067.4,309.4 L1067.4,309.4 L1067.5,310.6 L1067.5,309.4 L1067.5,308.2 L1067.5,309.4 L1067.5,309.4 L1067.6,309.4 L1067.6,309.4 L1067.6,310.6 L1067.6,309.4 L1067.6,310.6 L1067.7,308.2 L1067.7,309.4 L1067.7,310.6 L1067.7,309.4 L1067.7,308.2 L1067.7,309.4 L1067.8,308.2 L1067.8,310.6 L1067.8,310.6 L1067.8,309.4 L1067.8,309.4 L1067.9,309.4 L1067.9,308.2 L1067.9,309.4 L1067.9,309.4 L1067.9,308.2 L1068.0,309.4 L1068.0,309.4 L1068.0,309.4 L1068.0,310.6 L1068.0,310.6 L1068.1,309.4 L1068.1,308.2 L1068.1,310.6 L1068.1,310.6 L1068.1,308.2 L1068.2,309.4 L1068.2,310.6 L1068.2,310.6 L1068.2,309.4 L1068.2,310.6 L1068.3,309.4 L1068.3,310.6 L1068.3,308.2 L1068.3,309.4 L1068.3,309.4 L1068.4,310.6 L1068.4,310.6 L1068.4,310.6 L1068.4,308.2 L1068.4,309.4 L1068.4,310.6 L1068.5,309.4 L1068.5,310.6 L1068.5,310.6 L1068.5,309.4 L1068.5,309.4 L1068.6,309.4 L1068.6,310.6 L1068.6,310.6 L1068.6,308.2 L1068.6,309.4 L1068.7,310.6 L1068.7,309.4 L1068.7,310.6 L1068.7,309.4 L1068.7,309.4 L1068.8,309.4 L1068.8,309.4 L1068.8,309.4 L1068.8,308.2 L1068.8,309.4 L1068.9,310.6 L1068.9,308.2 L1068.9,310.6 L1068.9,309.4 L1068.9,310.6 L1069.0,310.6 L1069.0,310.6 L1069.0,309.4 L1069.0,309.4 L1069.1,309.4 L1069.1,309.4 L1069.1,310.6 L1069.1,310.6 L1069.1,309.4 L1069.1,310.6 L1069.2,309.4 L1069.2,310.6 L1069.2,309.4 L1069.2,308.2 L1069.2,310.6 L1069.3,309.4 L1069.3,310.6 L1069.3,309.4 L1069.3,309.4 L1069.3,309.4 L1069.4,287.7 L1069.4,254.1 L1069.4,218.0 L1069.4,210.7 L1069.4,187.9 L1069.5,178.3 L1069.5,179.5 L1069.5,168.6 L1069.5,179.5 L1069.6,172.2 L1069.6,155.4 L1069.6,148.2 L1069.6,132.5 L1069.6,138.6 L1069.6,141.0 L1069.7,110.9 L1069.7,126.5 L1069.7,109.7 L1069.7,106.1 L1069.7,102.5 L1069.8,114.5 L1069.8,130.1 L1069.8,106.1 L1069.8,122.9 L1069.8,137.4 L1069.9,113.3 L1069.9,126.5 L1069.9,119.3 L1069.9,101.3 L1069.9,136.2 L1070.0,128.9 L1070.0,138.6 L1070.0,119.3 L1070.0,147.0 L1070.1,130.1 L1070.1,144.6 L1070.1,133.7 L1070.1,133.7 L1070.1,160.2 L1070.1,128.9 L1070.2,136.2 L1070.2,136.2 L1070.2,141.0 L1070.2,137.4 L1070.2,173.4 L1070.3,179.5 L1070.3,151.8 L1070.3,157.8 L1070.3,191.5 L1070.3,218.0 L1070.4,255.3 L1070.4,291.4 L1070.4,317.8 L1070.4,367.1 L1070.5,386.4 L1070.5,398.4 L1070.5,408.1 L1070.5,430.9 L1070.5,456.2 L1070.6,464.6 L1070.6,469.4 L1070.6,474.2 L1070.6,476.6 L1070.6,469.4 L1070.6,483.8 L1070.7,493.5 L1070.7,512.7 L1070.7,503.1 L1070.7,497.1 L1070.7,518.7 L1070.8,493.5 L1070.8,500.7 L1070.8,519.9 L1070.8,516.3 L1070.8,500.7 L1070.9,495.9 L1070.9,519.9 L1070.9,526.0 L1070.9,510.3 L1071.0,499.5 L1071.0,495.9 L1071.0,519.9 L1071.0,523.5 L1071.0,493.5 L1071.1,518.7 L1071.1,506.7 L1071.1,504.3 L1071.1,505.5 L1071.1,498.3 L1071.1,503.1 L1071.2,498.3 L1071.2,491.1 L1071.2,512.7 L1071.2,504.3 L1071.2,503.1 L1071.3,519.9 L1071.3,501.9 L1071.3,524.8 L1071.3,516.3 L1071.4,533.2 L1071.4,504.3 L1071.4,492.3 L1071.4,509.1 L1071.4,495.9 L1071.5,505.5 L1071.5,527.2 L1071.5,517.5 L1071.5,521.1 L1071.5,521.1 L1071.6,522.3 L1071.6,513.9 L1071.6,489.9 L1071.6,492.3 L1071.6,505.5 L1071.7,501.9 L1071.7,498.3 L1071.7,526.0 L1071.7,486.3 L1071.7,510.3 L1071.8,487.5 L1071.8,519.9 L1071.8,494.7 L1071.8,524.8 L1071.9,526.0 L1071.9,523.5 L1071.9,498.3 L1071.9,439.3 L1071.9,409.3 L1072.0,365.9 L1072.0,334.7 L1072.0,298.6 L1072.0,278.1 L1072.0,261.3 L1072.1,228.8 L1072.1,210.7 L1072.1,190.3 L1072.1,189.1 L1072.1,163.8 L1072.2,138.6 L1072.2,161.4 L1072.2,155.4 L1072.2,127.7 L1072.2,130.1 L1072.2,120.5 L1072.3,128.9 L1072.3,138.6 L1072.3,128.9 L1072.4,148.2 L1072.4,127.7 L1072.4,114.5 L1072.4,110.9 L1072.4,116.9 L1072.5,110.9 L1072.5,112.1 L1072.5,116.9 L1072.5,101.3 L1072.5,108.5 L1072.6,120.5 L1072.6,113.3 L1072.6,97.7 L1072.6,97.7 L1072.6,96.5 L1072.6,100.1 L1072.7,113.3 L1072.7,95.2 L1072.7,121.7 L1072.7,130.1 L1072.7,103.7 L1072.8,103.7 L1072.8,113.3 L1072.8,103.7 L1072.9,132.5 L1072.9,94.0 L1072.9,135.0 L1072.9,130.1 L1072.9,108.5 L1073.0,130.1 L1073.0,118.1 L1073.0,96.5 L1073.0,95.2 L1073.0,130.1 L1073.1,101.3 L1073.1,130.1 L1073.1,100.1 L1073.1,115.7 L1073.1,130.1 L1073.1,102.5 L1073.2,103.7 L1073.2,100.1 L1073.2,121.7 L1073.2,110.9 L1073.3,127.7 L1073.3,131.3 L1073.3,94.0 L1073.3,104.9 L1073.4,120.5 L1073.4,112.1 L1073.4,102.5 L1073.4,113.3 L1073.4,106.1 L1073.5,108.5 L1073.5,125.3 L1073.5,120.5 L1073.5,113.3 L1073.5,127.7 L1073.6,127.7 L1073.6,114.5 L1073.6,130.1 L1073.6,127.7 L1073.6,125.3 L1073.6,102.5 L1073.7,92.8 L1073.7,118.1 L1073.7,128.9 L1073.8,120.5 L1073.8,131.3 L1073.8,109.7 L1073.8,101.3 L1073.8,103.7 L1073.9,124.1 L1073.9,97.7 L1073.9,124.1 L1073.9,126.5 L1073.9,125.3 L1074.0,116.9 L1074.0,104.9 L1074.0,92.8 L1074.0,112.1 L1074.0,95.2 L1074.1,126.5 L1074.1,108.5 L1074.1,131.3 L1074.1,115.7 L1074.1,124.1 L1074.1,126.5 L1074.2,91.6 L1074.2,112.1 L1074.2,165.0 L1074.3,142.2 L1074.3,151.8 L1074.3,136.2 L1074.3,115.7 L1074.3,110.9 L1074.4,104.9 L1074.4,103.7 L1074.4,122.9 L1074.4,132.5 L1074.4,127.7 L1074.5,127.7 L1074.5,122.9 L1074.5,109.7 L1074.5,102.5 L1074.5,127.7 L1074.6,113.3 L1074.6,107.3 L1074.6,125.3 L1074.6,122.9 L1074.6,115.7 L1074.7,120.5 L1074.7,108.5 L1074.7,109.7 L1074.7,137.4 L1074.8,136.2 L1074.8,133.7 L1074.8,110.9 L1074.8,97.7 L1074.8,114.5 L1074.9,126.5 L1074.9,120.5 L1074.9,127.7 L1074.9,132.5 L1074.9,118.1 L1075.0,98.9 L1075.0,128.9 L1075.0,122.9 L1075.0,113.3 L1075.0,100.1 L1075.1,116.9 L1075.1,103.7 L1075.1,109.7 L1075.1,118.1 L1075.1,118.1 L1075.2,110.9 L1075.2,172.2 L1075.2,142.2 L1075.2,155.4 L1075.3,120.5 L1075.3,127.7 L1075.3,119.3 L1075.3,122.9 L1075.3,114.5 L1075.4,106.1 L1075.4,113.3 L1075.4,109.7 L1075.4,102.5 L1075.4,109.7 L1075.5,109.7 L1075.5,120.5 L1075.5,133.7 L1075.5,126.5 L1075.5,116.9 L1075.6,119.3 L1075.6,110.9 L1075.6,120.5 L1075.6,124.1 L1075.6,130.1 L1075.7,160.2 L1075.7,141.0 L1075.7,139.8 L1075.8,142.2 L1075.8,141.0 L1075.8,141.0 L1075.8,109.7 L1075.8,106.1 L1075.8,121.7 L1075.9,127.7 L1075.9,132.5 L1075.9,97.7 L1075.9,126.5 L1075.9,110.9 L1076.0,135.0 L1076.0,96.5 L1076.0,98.9 L1076.0,127.7 L1076.0,91.6 L1076.1,128.9 L1076.1,131.3 L1076.1,126.5 L1076.1,107.3 L1076.2,114.5 L1076.2,107.3 L1076.2,120.5 L1076.2,120.5 L1076.3,108.5 L1076.3,125.3 L1076.3,100.1 L1076.3,109.7 L1076.3,137.4 L1076.3,109.7 L1076.4,118.1 L1076.4,109.7 L1076.4,128.9 L1076.4,92.8 L1076.4,110.9 L1076.5,109.7 L1076.5,126.5 L1076.5,132.5 L1076.5,98.9 L1076.5,102.5 L1076.6,100.1 L1076.6,112.1 L1076.6,109.7 L1076.7,118.1 L1076.7,84.4 L1076.7,82.0 L1076.7,101.3 L1076.7,108.5 L1076.8,109.7 L1076.8,100.1 L1076.8,131.3 L1076.8,127.7 L1076.8,127.7 L1076.9,114.5 L1076.9,126.5 L1076.9,120.5 L1076.9,121.7 L1076.9,97.7 L1076.9,122.9 L1077.0,119.3 L1077.0,107.3 L1077.0,107.3 L1077.0,131.3 L1077.0,100.1 L1077.1,130.1 L1077.1,103.7 L1077.1,130.1 L1077.2,128.9 L1077.2,124.1 L1077.2,100.1 L1077.2,118.1 L1077.2,104.9 L1077.3,114.5 L1077.3,94.0 L1077.3,118.1 L1077.3,108.5 L1077.3,91.6 L1077.4,122.9 L1077.4,95.2 L1077.4,122.9 L1077.4,104.9 L1077.4,119.3 L1077.5,95.2 L1077.5,107.3 L1077.5,112.1 L1077.5,133.7 L1077.5,106.1 L1077.6,104.9 L1077.6,130.1 L1077.7,116.9 L1077.7,95.2 L1077.7,126.5 L1077.7,98.9 L1077.7,115.7 L1077.8,96.5 L1077.8,125.3 L1077.8,113.3 L1077.8,95.2 L1077.8,132.5 L1077.9,94.0 L1077.9,132.5 L1077.9,97.7 L1077.9,131.3 L1077.9,115.7 L1078.0,109.7 L1078.0,92.8 L1078.0,120.5 L1078.0,125.3 L1078.0,96.5 L1078.0,97.7 L1078.1,109.7 L1078.1,128.9 L1078.2,94.0 L1078.2,97.7 L1078.2,102.5 L1078.2,103.7 L1078.3,100.1 L1078.3,118.1 L1078.3,106.1 L1078.3,98.9 L1078.3,101.3 L1078.4,106.1 L1078.4,131.3 L1078.4,104.9 L1078.4,110.9 L1078.4,132.5 L1078.5,130.1 L1078.5,96.5 L1078.5,103.7 L1078.5,122.9 L1078.5,95.2 L1078.6,135.0 L1078.6,115.7 L1078.6,109.7 L1078.6,101.3 L1078.7,110.9 L1078.7,119.3 L1078.7,108.5 L1078.8,139.8 L1078.8,132.5 L1078.8,126.5 L1078.8,109.7 L1078.9,124.1 L1078.9,94.0 L1078.9,97.7 L1078.9,115.7 L1078.9,106.1 L1079.0,101.3 L1079.0,107.3 L1079.0,135.0 L1079.0,104.9 L1079.0,110.9 L1079.1,119.3 L1079.1,128.9 L1079.1,116.9 L1079.1,107.3 L1079.1,91.6 L1079.2,139.8 L1079.2,153.0 L1079.3,144.6 L1079.3,137.4 L1079.3,143.4 L1079.3,139.8 L1079.3,131.3 L1079.4,122.9 L1079.4,121.7 L1079.4,132.5 L1079.4,103.7 L1079.4,112.1 L1079.5,98.9 L1079.5,98.9 L1079.5,101.3 L1079.5,124.1 L1079.5,118.1 L1079.6,103.7 L1079.6,109.7 L1079.6,120.5 L1079.6,95.2 L1079.6,115.7 L1079.6,114.5 L1079.7,88.0 L1079.8,109.7 L1079.8,92.8 L1079.8,97.7 L1079.8,119.3 L1079.8,108.5 L1079.9,94.0 L1079.9,126.5 L1079.9,118.1 L1079.9,112.1 L1079.9,102.5 L1080.0,124.1 L1080.0,114.5 L1080.0,112.1 L1080.0,115.7 L1080.0,104.9 L1080.1,101.3 L1080.1,112.1 L1080.1,124.1 L1080.1,113.3 L1080.1,107.3 L1080.1,108.5 L1080.2,101.3 L1080.3,76.0 L1080.3,89.2 L1080.3,116.9 L1080.3,103.7 L1080.3,118.1 L1080.4,116.9 L1080.4,91.6 L1080.4,121.7 L1080.4,127.7 L1080.4,126.5 L1080.5,92.8 L1080.5,100.1 L1080.5,92.8 L1080.5,94.0 L1080.5,118.1 L1080.6,95.2 L1080.6,120.5 L1080.6,106.1 L1080.6,103.7 L1080.6,107.3 L1080.7,118.1 L1080.7,121.7 L1080.7,121.7 L1080.8,156.6 L1080.8,160.2 L1080.8,157.8 L1080.8,155.4 L1080.9,144.6 L1080.9,118.1 L1080.9,120.5 L1080.9,109.7 L1080.9,106.1 L1081.0,131.3 L1081.0,103.7 L1081.0,112.1 L1081.0,141.0 L1081.0,100.1 L1081.1,116.9 L1081.1,128.9 L1081.1,136.2 L1081.1,115.7 L1081.1,119.3 L1081.2,131.3 L1081.2,136.2 L1081.2,110.9 L1081.2,137.4 L1081.3,131.3 L1081.3,124.1 L1081.3,122.9 L1081.4,104.9 L1081.4,100.1 L1081.4,131.3 L1081.4,127.7 L1081.4,101.3 L1081.5,101.3 L1081.5,97.7 L1081.5,125.3 L1081.5,135.0 L1081.5,135.0 L1081.6,115.7 L1081.6,95.2 L1081.6,110.9 L1081.6,101.3 L1081.6,118.1 L1081.7,125.3 L1081.7,115.7 L1081.7,94.0 L1081.7,98.9 L1081.7,113.3 L1081.8,112.1 L1081.8,95.2 L1081.9,107.3 L1081.9,84.4 L1081.9,102.5 L1081.9,122.9 L1081.9,109.7 L1082.0,130.1 L1082.0,148.2 L1082.0,185.5 L1082.0,177.1 L1082.0,207.1 L1082.1,236.0 L1082.1,258.9 L1082.1,269.7 L1082.1,284.1 L1082.1,302.2 L1082.2,299.8 L1082.2,313.0 L1082.2,295.0 L1082.2,295.0 L1082.2,273.3 L1082.3,296.2 L1082.3,270.9 L1082.4,278.1 L1082.4,292.6 L1082.4,326.2 L1082.4,323.8 L1082.4,341.9 L1082.5,359.9 L1082.5,326.2 L1082.5,331.1 L1082.5,309.4 L1082.5,329.9 L1082.6,347.9 L1082.6,374.4 L1082.6,387.6 L1082.6,385.2 L1082.6,387.6 L1082.7,380.4 L1082.7,365.9 L1082.7,353.9 L1082.7,363.5 L1082.7,375.6 L1082.8,405.6 L1082.8,392.4 L1082.9,370.8 L1082.9,394.8 L1082.9,408.1 L1082.9,421.3 L1083.0,433.3 L1083.0,433.3 L1083.0,452.6 L1083.0,442.9 L1083.0,463.4 L1083.0,464.6 L1083.1,461.0 L1083.1,459.8 L1083.1,467.0 L1083.1,462.2 L1083.1,477.8 L1083.2,500.7 L1083.2,498.3 L1083.2,495.9 L1083.2,500.7 L1083.2,510.3 L1083.3,510.3 L1083.3,500.7 L1083.3,506.7 L1083.4,523.5 L1083.5,544.0 L1083.5,544.0 L1083.5,489.9 L1083.5,506.7 L1083.6,497.1 L1083.6,451.4 L1083.6,436.9 L1083.6,446.6 L1083.6,426.1 L1083.7,427.3 L1083.7,397.2 L1083.7,404.4 L1083.7,393.6 L1083.7,390.0 L1083.8,380.4 L1083.8,373.2 L1083.8,370.8 L1083.8,368.3 L1083.9,353.9 L1083.9,341.9 L1083.9,343.1 L1083.9,335.9 L1084.0,334.7 L1084.0,338.3 L1084.0,333.5" fill="none" stroke="#ff7f0e" stroke-width="1.1" opacity="0.85"/><text x="616" y="572" font-size="11" fill="#888">time 0..1064 s — altitude (blue) &amp; roll (orange)</text></svg>