<svg xmlns="http://www.w3.org/2000/svg" width="1140" height="600" font-family="sans-serif" font-size="13"><rect width="1140" height="600" fill="white"/><text x="20" y="26" font-size="15" fill="#333">Coludo flight</text><rect x="20" y="40" width="540" height="540" fill="#fbfbfb" stroke="#ddd"/><rect x="50" y="305" width="318" height="68" fill="#cde" stroke="#369" opacity="0.7"/><text x="50" y="300" fill="#369" font-size="12">landing zone</text><circle cx="251" cy="411" r="5" fill="black"/><text x="259" y="415" font-size="12">pad</text><path d="M251.8,411.3 L251.8,411.3 L251.8,411.3 L251.8,411.3 L251.8,411.3 L251.8,411.3 L251.8,411.3 L251.8,411.3 L251.8,411.3 L251.8,411.3 L251.8,411.3 L251.8,411.3 L251.8,411.3 L251.8,411.3 L251.8,411.3 L251.8,411.3 L251.8,411.3 L251.8,411.3 L251.8,411.3 L251.8,411.3 L251.8,411.3 L251.8,411.3 L251.8,411.3 L251.8,411.3 L251.8,411.3 L251.8,411.3 L251.8,411.3 L251.8,411.3 L251.8,411.3 L251.8,411.3 L251.8,411.3 L251.8,411.3 L251.8,411.3 L251.8,411.3 L251.8,411.3 L251.8,411.3 L251.8,411.3 L251.8,411.3 L251.8,411.3 L251.8,411.3 L251.8,411.3 L251.8,411.3 L251.8,411.3 L251.8,411.3 L251.8,411.3 L251.8,411.3 L251.8,411.3 L251.8,411.3 L251.8,411.3 L251.8,411.3 L251.8,411.3 L251.8,411.3 L251.8,411.3 L251.8,411.3 L251.8,411.3 L251.8,411.3 L251.8,411.3 L251.8,411.3 L251.8,411.3 L251.8,411.3 L251.8,411.3 L251.8,411.3 L251.8,411.3 L251.8,411.3 L251.8,411.3 L251.8,411.3 L251.8,411.3 L251.8,411.3 L252.8,410.2 L252.8,408.3 L255.2,405.2 L256.9,403.0 L258.3,401.5 L258.6,398.8 L260.3,396.9 L263.7,394.3 L263.7,392.7 L265.4,390.5 L268.8,388.6 L269.2,386.7 L270.5,385.2 L274.0,382.9 L274.6,381.4 L277.4,379.5 L279.1,378.0 L280.8,376.5 L284.2,374.6 L285.6,373.1 L287.6,371.2 L291.0,370.1 L292.4,368.9 L294.4,367.0 L296.1,365.5 L297.9,363.2 L301.3,362.1 L301.9,360.2 L304.7,357.9 L307.4,356.1 L308.1,353.8 L311.5,351.5 L313.2,349.2 L314.2,347.4 L316.6,345.5 L318.3,342.4 L319.7,340.5 L320.0,338.3 L321.7,336.0 L323.5,333.4 L323.8,331.5 L325.2,328.8 L326.9,326.5 L328.6,323.5 L329.3,320.9 L329.3,318.2 L330.3,316.0 L330.3,313.7 L332.0,311.0 L332.0,308.0 L333.7,305.0 L333.7,302.3 L333.7,300.1 L334.7,297.4 L334.7,294.4 L334.7,291.4 L335.4,288.3 L335.4,286.1 L337.1,283.4 L337.1,280.4 L338.8,278.1 L338.8,276.2 L340.5,272.8 L340.9,270.2 L340.9,267.9 L342.2,265.3 L343.9,262.6 L345.6,260.0 L347.4,257.3 L347.4,255.1 L350.8,253.2 L351.1,250.9 L352.5,248.6 L354.2,246.4 L355.9,244.8 L357.6,242.2 L359.3,239.5 L362.7,237.7 L364.1,236.1 L366.1,233.9 L367.8,232.4 L369.5,230.5 L371.3,229.3 L375.0,227.4 L376.4,225.5 L378.4,223.7 L381.5,222.1 L383.9,220.6 L386.6,219.1 L390.0,218.0 L391.7,216.8 L395.1,215.7 L396.9,214.6 L400.3,214.2 L401.0,213.4 L405.4,212.3 L405.7,211.9 L408.8,211.2 L411.2,210.4 L413.9,210.0 L418.0,209.7 L420.8,209.3 L423.5,208.9 L427.6,208.5 L429.3,208.5 L432.7,208.5 L434.4,208.5 L439.5,208.5 L440.6,208.9 L444.7,209.3 L446.0,209.7 L449.8,210.0 L453.2,211.2 L456.3,211.9 L460.0,212.7 L461.7,213.4 L463.4,214.2 L466.8,214.6 L468.5,215.7 L472.0,216.8 L473.7,218.0 L477.4,220.3 L480.5,221.8 L483.6,222.9 L485.6,224.4 L487.3,225.9 L489.0,227.4 L490.7,229.0 L494.2,230.5 L494.5,232.0 L499.3,235.4 L501.0,237.7 L502.7,239.5 L504.4,241.1 L506.1,243.3 L507.8,246.0 L511.6,247.9 L511.2,249.8 L512.9,252.0 L516.3,255.8 L516.3,258.1 L518.1,260.7 L519.8,262.6 L519.8,264.9 L521.5,267.2 L521.8,269.4 L523.2,272.1 L523.2,274.3 L526.6,279.3 L526.6,282.7 L527.3,284.6 L527.3,287.6 L527.3,289.9 L528.3,292.5 L528.3,295.2 L528.3,297.8 L528.3,300.1 L530.0,305.0 L530.0,308.4 L530.0,311.0 L528.3,313.7 L528.3,316.3 L528.3,319.4 L528.3,321.6 L528.3,324.3 L527.3,326.9 L527.3,331.1 L526.6,334.1 L524.9,337.1 L524.9,339.4 L523.2,341.7 L521.8,344.3 L521.8,346.6 L521.5,348.9 L519.8,351.1 L516.3,355.3 L516.3,357.2 L514.6,359.8 L512.9,362.9 L511.2,365.1 L511.6,367.4 L507.8,369.3 L506.1,371.2 L504.7,373.1 L502.7,376.5 L500.6,378.0 L499.3,379.9 L495.9,381.8 L494.5,383.3 L492.4,385.6 L490.7,386.7 L489.0,388.2 L487.3,389.7 L483.9,391.6 L482.2,393.1 L480.5,393.9 L477.4,395.0 L475.4,396.5 L473.3,397.7 L470.3,399.2 L466.5,400.3 L465.1,401.5 L461.7,402.2 L458.3,403.3 L456.3,404.1 L453.2,404.9 L449.8,405.6 L448.1,406.4 L444.7,406.7 L442.9,407.1 L439.5,407.5 L437.8,407.5 L432.7,407.9 L428.9,407.9 L425.9,407.9 L423.5,407.9 L420.8,407.5 L418.0,407.1 L415.6,406.7 L411.2,406.4 L408.8,406.0 L405.7,405.2 L403.7,404.5 L401.0,403.3 L396.9,402.6 L395.5,401.8 L393.4,401.1 L390.0,399.9 L388.3,398.8 L384.9,397.7 L381.5,396.2 L378.4,394.6 L378.1,393.9 L374.7,392.0 L373.0,390.1 L369.5,388.6 L367.8,386.7 L366.1,385.2 L364.1,383.3 L361.0,381.0 L357.6,378.8 L356.6,377.2 L355.9,375.3 L352.5,373.1 L351.1,370.8 L349.1,368.9 L347.4,367.0 L347.0,365.1 L342.2,361.4 L340.9,358.7 L338.8,356.4 L337.1,354.5 L334.7,352.7 L333.7,351.1 L332.0,348.9 L329.3,347.4 L326.9,345.5 L323.5,341.7 L320.0,339.8 L319.7,338.7 L316.6,337.1 L314.2,335.3 L311.5,333.7 L309.8,332.6 L307.4,331.5 L304.7,330.7 L297.9,327.7 L296.1,326.9 L292.7,325.8 L291.0,325.0 L287.6,324.3 L285.6,323.9 L282.5,323.5 L280.1,323.1 L277.4,323.1 L270.5,322.4 L268.8,322.4 L265.4,322.8 L263.7,322.8 L258.6,323.1 L256.9,323.1 L253.5,323.5 L251.8,323.5 L248.3,324.3 L243.2,325.4 L236.4,326.5 L234.7,327.7 L231.3,328.1 L229.6,328.4 L226.2,329.2 L224.5,330.0 L221.0,330.3 L217.6,331.5 L214.6,331.8 L212.5,332.2 L209.1,332.6" fill="none" stroke="#1f77b4" stroke-width="1.7" opacity="0.85"/><circle cx="209" cy="333" r="4.5" fill="#1f77b4"/><text x="28" y="572" font-size="11" fill="#888">ground track — m from pad (N up)</text><rect x="580" y="40" width="540" height="540" fill="#fbfbfb" stroke="#ddd"/><text x="586" y="54" fill="#1f77b4" font-size="11">alt 345</text><text x="586" y="558" fill="#1f77b4" font-size="11">-57</text><path d="M653.7,475.2 L654.2,475.0 L654.7,474.8 L655.5,474.1 L656.0,474.1 L656.5,474.1 L656.9,473.0 L657.4,473.0 L657.9,471.7 L658.4,472.1 L658.9,470.2 L659.3,470.4 L659.8,468.8 L660.3,468.5 L660.8,467.8 L661.3,467.0 L661.8,463.7 L662.3,463.2 L662.8,462.4 L663.3,460.8 L663.8,458.8 L664.3,459.6 L664.8,456.2 L665.3,455.9 L665.8,453.8 L666.3,454.1 L666.8,447.4 L667.3,451.1 L667.8,449.2 L668.3,447.3 L668.8,442.6 L669.2,438.1 L669.7,438.4 L670.2,434.7 L670.7,429.9 L671.2,430.2 L671.7,432.0 L672.2,426.0 L672.7,428.9 L673.2,420.5 L673.8,416.0 L674.2,413.6 L674.7,408.1 L675.2,408.0 L675.7,409.4 L676.2,408.8 L676.7,400.7 L677.2,402.2 L677.7,399.5 L678.7,390.5 L679.2,377.9 L679.6,375.6 L680.1,379.6 L680.6,365.8 L681.1,363.8 L681.6,372.4 L682.1,371.1 L682.6,352.3 L683.1,361.5 L683.6,351.1 L684.1,354.5 L684.5,337.2 L685.0,330.5 L685.5,349.6 L686.0,330.3 L686.5,343.4 L687.0,311.2 L687.5,317.1 L688.0,325.8 L688.5,328.0 L689.0,305.1 L689.4,314.9 L689.9,311.7 L690.4,304.4 L690.9,286.4 L691.4,290.3 L691.9,283.0 L692.4,294.1 L692.9,268.3 L693.4,291.5 L693.9,277.0 L694.4,266.0 L694.9,263.5 L695.4,251.5 L695.9,239.4 L696.4,232.0 L696.9,255.8 L697.4,238.2 L697.9,242.1 L698.4,246.3 L698.9,220.0 L699.3,258.4 L699.8,217.5 L700.3,228.4 L700.9,222.2 L701.3,227.9 L701.8,228.7 L702.3,200.0 L702.8,196.0 L703.3,202.7 L703.7,189.4 L704.2,199.1 L704.7,194.7 L705.2,182.4 L705.7,179.6 L706.2,178.3 L706.7,177.9 L707.2,186.4 L707.7,160.0 L708.2,211.7 L708.7,190.1 L709.2,166.6 L709.6,184.3 L710.1,188.2 L710.6,144.4 L711.1,195.6 L711.6,189.9 L712.1,188.0 L712.6,164.6 L713.1,169.4 L713.6,135.7 L714.2,154.1 L714.6,143.1 L715.1,134.9 L715.6,180.1 L716.1,179.5 L716.6,145.3 L717.1,125.7 L717.6,148.3 L718.1,122.9 L718.6,131.4 L719.1,107.8 L719.5,105.5 L720.0,152.0 L720.5,144.1 L721.0,153.2 L721.5,100.9 L722.0,140.2 L722.5,156.9 L723.0,137.6 L723.5,124.1 L724.0,106.6 L724.5,103.2 L725.0,138.2 L725.5,132.7 L726.0,119.5 L726.5,106.8 L727.0,82.9 L727.5,95.3 L728.0,122.7 L728.5,79.7 L729.0,128.4 L729.4,144.1 L729.9,128.8 L730.4,140.7 L730.9,89.7 L731.4,123.9 L731.9,133.8 L732.4,115.1 L732.9,80.1 L733.4,91.9 L733.9,87.5 L734.5,95.5 L735.0,76.8 L735.5,139.5 L736.0,76.0 L736.5,92.2 L737.0,108.5 L737.5,109.5 L738.0,119.2 L738.5,101.2 L739.0,106.8 L739.4,77.0 L739.9,107.4 L740.4,130.8 L740.9,132.5 L741.4,130.6 L741.9,122.5 L742.4,89.4 L742.9,111.8 L743.4,102.9 L743.9,83.7 L744.4,119.3 L744.8,124.5 L745.4,83.4 L745.8,147.2 L746.4,115.3 L746.8,88.1 L747.3,90.7 L747.8,147.1 L748.3,140.4 L748.8,97.8 L749.3,127.6 L749.8,129.1 L750.2,124.1 L750.8,135.0 L751.2,83.0 L751.8,79.9 L752.2,108.1 L752.7,97.3 L753.2,113.1 L753.7,142.2 L754.2,137.6 L754.8,110.2 L755.3,107.7 L755.8,87.6 L756.3,85.5 L756.8,104.2 L757.3,141.9 L757.8,92.2 L758.3,130.0 L758.8,112.4 L759.3,124.1 L759.7,149.3 L760.2,117.1 L760.7,96.2 L761.2,100.5 L761.7,113.3 L762.2,107.3 L762.7,117.8 L763.2,86.7 L763.7,110.1 L764.2,146.9 L765.2,148.7 L765.7,130.2 L766.2,95.9 L766.7,94.5 L767.2,152.1 L767.7,146.1 L768.2,90.2 L768.7,130.7 L769.2,114.1 L769.6,131.2 L770.1,153.0 L770.6,88.7 L771.1,140.1 L771.6,144.4 L772.1,130.3 L772.6,112.0 L773.1,160.2 L773.6,154.7 L774.1,132.0 L774.6,99.3 L775.6,101.2 L776.1,113.3 L776.6,133.3 L777.1,156.9 L777.6,122.5 L778.1,160.1 L778.6,137.1 L779.1,99.2 L779.5,106.4 L780.0,125.4 L780.5,124.7 L781.0,118.1 L781.5,116.6 L782.0,154.0 L782.5,126.5 L783.0,117.5 L783.5,137.9 L784.0,100.4 L784.5,135.2 L785.0,143.4 L786.0,119.8 L786.5,125.9 L787.0,162.5 L787.5,102.1 L788.0,140.5 L788.5,102.9 L789.0,169.0 L789.4,108.1 L789.9,103.3 L790.4,142.3 L790.9,154.1 L791.4,109.3 L791.9,164.8 L792.4,122.3 L792.9,158.9 L793.4,110.2 L793.9,115.7 L794.4,163.6 L794.9,162.3 L795.4,171.4 L796.4,136.8 L796.9,137.4 L797.4,118.9 L797.9,117.4 L798.4,146.3 L798.9,117.0 L799.3,157.6 L799.8,135.6 L800.3,156.3 L800.8,164.2 L801.3,172.8 L801.8,125.9 L802.3,148.3 L802.8,150.8 L803.3,158.9 L803.8,120.8 L804.3,164.6 L804.8,117.1 L805.3,169.8 L805.8,137.4 L806.8,153.3 L807.3,148.2 L807.8,138.3 L808.3,177.7 L808.8,173.1 L809.2,171.1 L809.7,176.5 L810.2,137.5 L810.7,162.2 L811.2,168.3 L811.7,165.0 L812.2,168.7 L812.7,171.5 L813.2,131.0 L813.7,126.4 L814.2,147.8 L814.7,136.1 L815.2,164.3 L815.7,163.7 L816.2,167.5 L816.7,156.1 L817.3,147.2 L817.8,154.7 L818.3,132.9 L818.8,187.0 L819.3,152.4 L819.7,142.1 L820.2,153.4 L820.8,170.9 L821.2,158.6 L821.8,155.0 L822.2,148.8 L822.7,176.6 L823.2,173.0 L823.7,178.2 L824.2,147.0 L824.7,163.4 L825.2,166.6 L825.7,144.1 L826.2,171.9 L826.7,195.2 L828.1,144.2 L828.6,161.8 L829.1,199.2 L829.6,192.1 L830.0,182.6 L830.5,181.1 L831.0,152.2 L831.6,151.9 L832.0,182.8 L832.6,153.3 L833.0,187.7 L833.5,191.9 L834.0,189.2 L834.5,160.3 L835.1,184.9 L835.5,191.7 L836.1,165.7 L836.5,199.8 L837.0,180.8 L837.5,195.1 L838.1,177.7 L838.6,181.6 L839.1,165.9 L839.5,163.5 L840.0,204.2 L840.7,158.4 L841.2,207.5 L841.7,183.2 L842.2,210.7 L842.7,188.1 L843.2,183.1 L843.7,200.6 L844.2,165.4 L844.7,176.2 L845.2,191.8 L845.7,198.2 L846.2,170.9 L846.7,207.2 L847.2,203.9 L847.7,190.6 L848.9,210.2 L849.4,189.2 L849.9,207.8 L850.3,222.9 L850.8,171.1 L851.3,219.7 L851.8,174.9 L852.3,203.9 L852.8,226.8 L853.3,213.7 L853.8,213.3 L854.3,191.8 L854.8,216.0 L855.3,201.9 L855.8,203.7 L856.3,204.8 L856.8,189.4 L857.3,208.9 L857.8,215.6 L858.3,229.0 L858.8,180.8 L859.8,181.8 L860.2,221.1 L860.7,235.0 L861.2,233.4 L861.7,200.2 L862.2,208.8 L862.7,226.9 L863.2,220.5 L863.7,228.1 L864.2,214.4 L864.7,236.9 L865.2,200.4 L865.7,205.2 L866.2,207.9 L866.7,205.6 L867.2,200.3 L867.7,215.2 L868.2,206.9 L868.7,207.3 L869.2,243.2 L870.6,215.4 L871.0,227.4 L871.5,235.5 L872.1,207.0 L872.5,218.2 L873.0,209.1 L873.5,232.2 L874.0,201.5 L874.5,225.9 L875.0,238.4 L875.5,217.6 L876.0,248.5 L876.4,223.9 L876.9,253.2 L877.4,245.6 L877.9,218.1 L878.4,208.0 L878.9,215.9 L879.3,225.3 L879.8,216.6 L880.3,248.3 L881.5,225.0 L881.9,218.6 L882.4,219.1 L882.9,257.7 L883.4,239.9 L883.9,259.4 L884.4,256.9 L884.9,219.5 L885.4,264.9 L885.9,238.4 L886.4,261.3 L886.9,252.6 L887.4,253.5 L887.9,246.1 L888.4,236.8 L888.9,261.0 L889.3,251.0 L889.8,229.7 L890.3,230.3 L890.8,233.3 L891.3,235.2 L892.4,264.4 L892.8,268.0 L893.3,256.8 L893.8,252.0 L894.3,268.6 L894.8,267.1 L895.3,248.2 L895.8,238.9 L896.3,258.3 L896.8,242.4 L897.3,237.8 L897.8,264.7 L898.3,244.1 L898.8,281.1 L899.2,270.6 L899.7,245.4 L900.2,279.6 L900.7,244.9 L901.2,276.3 L901.7,272.7 L903.2,257.9 L903.6,259.2 L904.1,253.8 L904.7,262.2 L905.1,253.0 L905.7,285.1 L906.1,251.0 L906.6,275.3 L907.1,270.1 L907.6,252.9 L908.1,255.2 L908.6,263.8 L909.1,277.7 L909.5,273.4 L910.0,291.8 L910.5,264.5 L911.0,290.5 L911.5,289.8 L912.0,272.0 L912.5,290.6 L913.0,274.0 L914.1,300.6 L914.6,295.6 L915.0,285.8 L915.6,282.3 L916.0,286.4 L916.5,268.2 L917.0,271.3 L917.5,303.5 L918.0,301.4 L918.5,301.2 L919.0,306.4 L919.4,301.8 L919.9,295.8 L920.4,281.1 L920.9,304.1 L921.4,303.0 L921.9,311.4 L922.4,303.2 L922.9,295.6 L923.4,282.2 L923.9,301.2 L924.9,293.0 L925.5,299.2 L925.9,311.3 L926.5,287.2 L926.9,299.4 L927.4,315.9 L927.9,290.7 L928.4,314.7 L928.9,318.0 L929.3,301.2 L929.8,318.0 L930.3,313.5 L930.8,292.1 L931.3,292.9 L931.8,304.3 L932.3,307.9 L932.8,300.4 L933.3,320.5 L933.8,312.8 L934.3,302.6 L935.8,298.5 L936.3,299.9 L936.8,327.1 L937.3,318.2 L937.8,317.6 L938.3,304.8 L938.8,330.2 L939.2,310.7 L939.7,323.3 L940.2,321.1 L940.7,334.2 L941.2,317.7 L941.7,315.9 L942.2,324.4 L942.7,313.8 L943.2,322.9 L943.7,328.8 L944.2,331.7 L944.7,322.0 L945.2,324.0 L946.7,341.9 L947.2,327.8 L947.7,342.9 L948.2,329.2 L948.7,340.8 L949.1,329.5 L949.6,340.1 L950.1,335.0 L950.6,347.2 L951.1,347.1 L951.6,349.3 L952.1,324.7 L952.6,351.9 L953.1,353.3 L953.6,343.9 L954.1,353.3 L954.6,329.7 L955.1,335.9 L955.6,350.8 L956.1,348.7 L957.6,354.4 L958.1,349.4 L958.6,340.0 L959.1,359.9 L959.5,353.3 L960.0,352.1 L960.5,350.5 L961.0,352.1 L961.5,350.7 L962.0,343.9 L962.5,348.8 L963.0,365.3 L963.5,353.1 L964.0,352.3 L964.5,365.2 L965.0,351.8 L965.5,360.1 L966.0,363.3 L966.5,351.2 L967.0,364.6 L968.5,351.8 L969.0,370.2 L969.4,364.9 L969.9,359.4 L970.4,373.3 L970.9,372.1 L971.4,360.0 L971.9,365.2 L972.4,367.2 L972.9,370.3 L973.4,375.4 L973.9,367.0 L974.4,372.2 L974.9,377.5 L975.4,384.1 L975.9,369.5 L976.4,383.0 L976.9,383.8 L977.4,378.1 L977.9,381.6 L979.4,382.0 L979.9,385.0 L980.3,380.6 L980.9,380.5 L981.3,383.4 L981.8,390.1 L982.3,377.6 L982.8,393.3 L983.4,380.6 L983.8,393.3 L984.3,396.2 L984.8,381.7 L985.3,396.0 L985.8,386.1 L986.3,398.7 L986.8,395.7 L987.3,388.4 L987.8,397.6 L988.3,387.9 L988.8,392.4 L990.2,393.1 L990.7,401.3 L991.2,393.8 L991.7,404.0 L992.2,397.1 L992.7,396.2 L993.2,406.3 L993.7,402.3 L994.2,409.8 L994.7,402.5 L995.3,401.1 L995.7,408.1 L996.2,413.8 L996.7,403.7 L997.2,415.5 L997.7,414.0 L998.2,410.6 L998.7,417.1 L999.2,410.2 L999.7,416.7 L1001.2,413.3 L1001.7,417.7 L1002.1,420.6 L1002.6,418.3 L1003.1,418.4 L1003.6,413.8 L1004.1,423.1 L1004.6,417.4 L1005.1,420.3 L1005.6,417.4 L1006.1,424.2 L1006.5,426.9 L1007.0,428.6 L1007.5,428.6 L1008.0,429.2 L1008.5,427.4 L1009.0,424.2 L1009.4,423.7 L1009.9,431.9 L1010.4,426.2 L1010.9,434.1 L1012.1,429.3 L1012.6,429.0 L1013.0,432.8 L1013.6,434.0 L1014.0,434.8 L1014.6,437.9 L1015.0,433.6 L1015.6,438.2 L1016.0,440.4 L1016.5,442.8 L1017.0,437.4 L1017.5,442.1 L1018.0,445.2 L1018.5,443.7 L1018.9,444.4 L1019.4,443.3 L1019.9,446.7 L1020.4,447.4 L1020.9,448.3 L1021.4,448.8 L1021.9,447.9 L1023.0,448.1 L1023.5,452.4 L1024.4,449.8 L1024.9,455.2 L1025.4,451.9 L1025.9,454.9 L1026.4,457.3 L1026.9,456.6 L1027.4,456.8 L1027.9,458.7 L1028.4,456.7 L1028.9,459.0 L1029.3,460.3 L1029.8,460.8 L1030.3,460.0 L1030.8,461.0 L1031.3,463.9 L1031.8,462.9 L1032.3,464.8 L1032.8,465.1 L1034.7,467.6 L1035.2,468.1 L1035.7,469.6 L1036.2,469.7 L1036.7,471.8 L1037.2,472.0 L1037.7,472.4 L1038.2,473.2 L1038.7,474.2 L1039.1,474.9 L1039.6,475.7 L1040.1,476.3 L1040.6,477.0 L1041.1,477.8 L1041.6,478.5 L1042.1,479.3 L1042.5,480.2 L1043.0,480.6 L1043.5,481.3 L1044.0,482.1 L1044.5,482.9 L1046.4,486.2 L1046.9,487.3 L1047.4,487.3 L1047.9,488.8 L1048.4,489.2 L1048.9,489.8 L1049.3,489.4 L1049.8,490.3 L1050.3,493.3 L1050.8,491.3 L1051.3,492.2 L1051.8,492.6 L1052.3,494.6 L1052.8,493.7 L1053.3,495.6 L1053.8,497.3 L1054.3,495.8 L1054.8,500.3 L1055.3,500.7 L1055.8,502.2 L1058.1,505.0 L1058.6,506.6 L1059.1,507.3 L1059.5,506.6 L1060.0,506.9 L1060.5,509.4 L1061.0,508.9 L1061.5,511.3 L1062.0,510.1 L1062.5,509.3 L1063.0,509.9 L1063.5,510.0 L1064.0,510.6 L1064.5,510.6 L1065.0,511.1 L1065.5,514.1 L1066.0,511.4 L1066.5,518.3 L1067.0,518.7 L1067.5,516.9 L1068.0,519.0 L1069.9,524.7 L1072.5,521.1 L1073.0,528.7 L1073.5,528.8 L1074.0,523.2 L1074.5,525.2 L1075.0,525.1 L1075.5,533.4 L1076.0,525.2 L1076.5,529.8 L1077.0,531.1 L1077.5,534.4 L1078.0,537.1 L1078.5,529.3 L1078.9,534.1 L1079.4,535.0 L1081.0,532.2 L1081.5,537.0 L1082.0,541.9 L1082.5,533.3 L1083.0,542.6 L1083.5,544.0 L1084.0,538.2" fill="none" stroke="#1f77b4" stroke-width="1.4" opacity="0.85"/><text x="1040" y="54" fill="#ff7f0e" font-size="11">roll 255</text><text x="1090" y="558" fill="#ff7f0e" font-size="11">-22</text><path d="M653.7,506.5 L654.2,506.2 L654.7,506.2 L655.5,506.5 L656.0,506.2 L656.4,506.3 L656.9,506.3 L657.4,506.3 L657.9,506.3 L658.4,506.3 L658.9,506.3 L659.3,506.2 L659.8,506.3 L660.3,506.2 L660.8,506.5 L661.3,506.2 L661.8,506.2 L662.3,506.5 L662.8,506.3 L663.3,506.3 L663.8,506.3 L664.3,506.5 L664.8,506.3 L665.3,506.3 L665.8,506.3 L666.3,506.2 L666.8,506.3 L667.3,506.2 L667.8,506.3 L668.3,506.3 L668.8,506.3 L669.2,506.2 L669.7,506.5 L670.2,506.5 L670.7,506.3 L671.2,506.2 L671.7,506.3 L672.2,506.2 L672.7,506.2 L673.2,506.3 L673.8,506.5 L674.2,506.3 L674.7,506.3 L675.2,506.3 L675.7,506.2 L676.2,506.5 L676.7,506.3 L677.2,506.5 L677.7,506.3 L678.7,506.3 L679.1,506.2 L679.6,506.2 L680.1,506.3 L680.6,506.3 L681.1,506.3 L681.6,506.2 L682.1,506.3 L682.6,506.5 L683.1,506.3 L683.6,506.3 L684.1,506.3 L684.5,506.3 L685.0,506.2 L685.5,506.3 L686.0,506.5 L686.5,506.3 L687.0,506.5 L687.5,506.3 L688.0,506.3 L688.5,506.3 L688.9,506.3 L689.4,506.5 L689.9,506.5 L690.4,506.3 L690.9,506.3 L691.4,506.5 L691.9,506.3 L692.4,506.5 L692.9,506.5 L693.4,506.5 L693.9,506.5 L694.4,506.3 L694.9,506.3 L695.4,506.5 L695.9,506.3 L696.4,506.3 L696.9,506.5 L697.4,506.5 L697.9,506.3 L698.4,506.3 L698.8,506.5 L699.3,506.5 L699.8,506.5 L700.3,506.3 L700.9,506.2 L701.3,506.5 L701.8,506.5 L702.3,506.3 L702.8,506.3 L703.3,506.3 L703.7,506.3 L704.2,506.5 L704.7,506.5 L705.2,506.5 L705.7,506.5 L706.2,506.5 L706.7,506.5 L707.2,506.5 L707.7,506.5 L708.2,506.3 L708.6,506.3 L709.1,506.3 L709.6,506.3 L710.1,506.3 L710.6,506.3 L711.1,506.3 L711.6,506.3 L712.1,506.3 L712.6,506.5 L713.1,506.5 L713.6,506.3 L714.2,506.5 L714.6,506.3 L715.1,506.5 L715.6,506.3 L716.1,506.5 L716.6,506.5 L717.1,506.3 L717.6,506.3 L718.1,506.3 L718.6,506.3 L719.0,506.2 L719.5,506.3 L720.0,506.5 L720.5,506.2 L721.0,506.2 L721.5,506.2 L722.0,506.3 L722.5,506.2 L723.0,506.3 L723.5,506.5 L724.0,506.5 L724.5,506.2 L725.0,506.3 L725.5,506.3 L726.0,506.3 L726.5,506.3 L727.0,506.5 L727.5,506.5 L728.0,506.5 L728.5,506.3 L729.0,506.3 L729.4,506.3 L729.9,506.5 L730.4,504.3 L730.9,499.9 L731.4,496.5 L731.9,493.2 L732.4,491.7 L732.9,489.0 L733.4,484.7 L733.9,482.7 L734.5,486.2 L735.0,486.1 L735.5,480.5 L736.0,479.7 L736.5,480.0 L737.0,481.7 L737.5,482.4 L738.0,478.3 L738.5,482.4 L738.9,480.8 L739.4,477.8 L739.9,479.0 L740.4,478.7 L740.9,481.0 L741.4,477.3 L741.9,479.5 L742.4,477.6 L742.9,476.8 L743.4,480.5 L743.9,478.3 L744.4,478.5 L744.8,482.2 L745.4,478.7 L745.8,483.7 L746.3,480.7 L746.8,480.3 L747.3,485.1 L747.8,483.7 L748.3,482.0 L748.8,481.4 L749.3,486.1 L749.7,481.7 L750.2,484.4 L750.8,485.4 L751.2,486.4 L751.8,486.6 L752.2,489.6 L752.7,497.4 L753.2,502.3 L753.7,507.7 L754.2,510.9 L754.8,515.1 L755.3,518.8 L755.8,522.0 L756.3,525.3 L756.8,527.6 L757.3,528.6 L757.8,530.8 L758.3,529.0 L758.8,528.6 L759.2,532.7 L759.7,533.7 L760.2,531.5 L760.7,531.2 L761.2,532.2 L761.7,536.1 L762.2,533.2 L762.7,535.9 L763.2,531.3 L763.7,535.1 L764.2,531.2 L765.2,532.2 L765.7,534.7 L766.2,532.5 L766.7,532.3 L767.2,532.9 L767.7,534.9 L768.2,534.4 L768.7,533.9 L769.1,532.3 L769.6,533.7 L770.1,534.2 L770.6,531.7 L771.1,536.9 L771.6,531.3 L772.1,533.4 L772.6,534.4 L773.1,533.2 L773.6,532.0 L774.1,531.8 L774.6,532.0 L775.6,534.9 L776.1,536.1 L776.6,534.4 L777.1,532.7 L777.6,535.4 L778.1,536.6 L778.6,531.0 L779.0,534.9 L779.5,536.1 L780.0,535.9 L780.5,531.8 L781.0,532.9 L781.5,530.8 L782.0,536.1 L782.5,532.7 L783.0,534.9 L783.5,531.8 L784.0,533.4 L784.5,533.7 L785.0,536.2 L786.0,532.7 L786.5,534.5 L787.0,534.7 L787.5,531.7 L788.0,531.5 L788.5,533.5 L788.9,526.4 L789.4,520.5 L789.9,514.8 L790.4,510.1 L790.9,504.7 L791.4,501.4 L791.9,496.2 L792.4,494.5 L792.9,491.8 L793.4,487.8 L793.9,488.1 L794.4,487.3 L794.9,482.4 L795.4,481.0 L796.4,481.2 L796.9,482.9 L797.4,481.2 L797.9,482.2 L798.4,478.1 L798.9,480.3 L799.3,480.7 L799.8,477.0 L800.3,478.0 L800.8,477.0 L801.3,480.2 L801.8,481.5 L802.3,478.5 L802.8,480.5 L803.3,476.1 L803.8,480.3 L804.3,476.8 L804.8,479.3 L805.3,477.6 L805.8,478.8 L806.8,477.6 L807.3,478.1 L807.8,481.4 L808.3,478.1 L808.8,479.8 L809.2,479.3 L809.7,478.8 L810.2,481.2 L810.7,478.1 L811.2,477.6 L811.7,481.2 L812.2,479.2 L812.7,477.5 L813.2,480.5 L813.7,478.3 L814.2,479.0 L814.7,476.5 L815.2,477.1 L815.7,479.0 L816.2,478.5 L816.7,481.0 L817.3,479.3 L817.8,477.1 L818.3,477.0 L818.7,479.5 L819.2,480.8 L819.7,478.8 L820.2,476.8 L820.8,478.0 L821.2,481.2 L821.8,478.5 L822.2,475.8 L822.7,480.8 L823.2,480.7 L823.7,481.2 L824.2,476.5 L824.7,478.3 L825.2,480.3 L825.7,476.8 L826.2,478.8 L826.7,478.5 L827.6,76.0 L828.1,478.8 L828.6,475.6 L829.1,479.5 L829.5,480.8 L830.0,477.3 L830.5,476.8 L831.0,479.8 L831.6,476.3 L832.0,480.3 L832.6,479.0 L833.0,480.2 L833.5,480.8 L834.0,475.9 L834.5,479.5 L835.1,478.1 L835.5,477.1 L836.0,481.0 L836.5,478.7 L837.0,480.3 L837.5,480.3 L838.0,478.3 L838.6,476.5 L839.0,479.5 L839.5,477.6 L840.0,479.5 L840.6,479.3 L841.2,477.3 L841.7,481.2 L842.2,480.8 L842.7,480.3 L843.2,479.5 L843.7,477.1 L844.2,479.7 L844.7,478.0 L845.2,478.8 L845.7,480.8 L846.2,481.2 L846.7,480.2 L847.2,480.2 L847.7,478.7 L848.9,476.8 L849.4,479.3 L849.8,479.7 L850.3,476.1 L850.8,481.5 L851.3,480.8 L851.8,477.1 L852.3,476.8 L852.8,479.2 L853.3,476.6 L853.8,477.8 L854.3,477.5 L854.8,479.5 L855.3,477.0 L855.8,479.2 L856.3,476.6 L856.8,475.9 L857.3,481.4 L857.8,480.8 L858.3,475.9 L858.7,479.7 L859.8,479.8 L860.2,482.4 L860.7,481.2 L861.2,478.1 L861.7,477.1 L862.2,479.5 L862.7,479.2 L863.2,478.0 L863.7,477.3 L864.2,481.9 L864.7,479.3 L865.2,480.3 L865.7,477.6 L866.2,479.7 L866.7,480.5 L867.2,478.0 L867.7,481.0 L868.2,475.9 L868.7,478.8 L869.1,477.8 L870.6,478.0 L871.0,480.3 L871.5,481.2 L872.1,480.7 L872.5,478.5 L873.0,479.5 L873.5,479.0 L874.0,478.5 L874.5,477.1 L875.0,480.5 L875.5,479.8 L876.0,477.0 L876.4,480.7 L876.9,480.3 L877.4,477.0 L877.9,476.6 L878.4,477.6 L878.8,479.0 L879.3,476.3 L879.8,479.8 L880.3,478.8 L881.5,477.1 L881.9,481.0 L882.4,475.8 L882.9,476.5 L883.4,481.4 L883.9,479.3 L884.4,480.5 L884.9,480.0 L885.4,480.0 L885.9,481.4 L886.4,480.7 L886.9,480.7 L887.4,475.8 L887.9,476.5 L888.4,479.2 L888.8,479.3 L889.3,477.8 L889.8,479.8 L890.3,477.1 L890.8,481.5 L891.3,480.5 L892.4,478.7 L892.8,476.5 L893.3,475.8 L893.8,475.8 L894.3,480.0 L894.8,478.0 L895.3,479.0 L895.8,480.8 L896.3,478.0 L896.8,478.0 L897.3,481.2 L897.8,476.6 L898.3,480.0 L898.7,476.6 L899.2,476.1 L899.7,481.2 L900.2,480.5 L900.7,477.0 L901.2,480.3 L901.7,476.8 L903.2,477.8 L903.6,477.5 L904.1,478.8 L904.7,477.6 L905.1,479.5 L905.7,479.2 L906.1,481.2 L906.6,479.5 L907.1,477.1 L907.6,477.3 L908.1,478.5 L908.6,479.5 L909.0,476.5 L909.5,478.5 L910.0,476.8 L910.5,481.4 L911.0,475.9 L911.5,476.5 L912.0,480.7 L912.5,479.3 L913.0,476.1 L914.1,477.8 L914.6,480.7 L915.0,478.1 L915.6,480.0 L916.0,482.2 L916.5,478.3 L917.0,480.8 L917.5,479.2 L918.0,478.0 L918.5,477.1 L918.9,481.0 L919.4,480.5 L919.9,477.8 L920.4,480.0 L920.9,480.2 L921.4,477.0 L921.9,477.3 L922.4,481.0 L922.9,480.7 L923.4,475.9 L923.9,478.8 L924.9,479.2 L925.5,480.5 L925.9,480.7 L926.4,477.0 L926.9,475.9 L927.4,478.1 L927.9,479.3 L928.4,479.8 L928.9,480.0 L929.3,475.6 L929.8,477.5 L930.3,480.7 L930.8,480.8 L931.3,477.3 L931.8,481.4 L932.3,477.3 L932.8,477.0 L933.3,478.5 L933.8,480.0 L934.3,478.5 L935.8,480.3 L936.3,478.1 L936.8,481.2 L937.3,478.0 L937.8,478.5 L938.3,477.1 L938.7,476.5 L939.2,481.2 L939.7,479.5 L940.2,480.5 L940.7,478.0 L941.2,480.2 L941.7,477.3 L942.2,479.5 L942.7,477.3 L943.2,479.5 L943.7,475.8 L944.2,478.8 L944.7,481.4 L945.2,477.6 L946.7,476.5 L947.2,476.8 L947.7,479.0 L948.2,480.2 L948.6,479.3 L949.1,481.2 L949.6,477.5 L950.1,480.7 L950.6,480.3 L951.1,480.2 L951.6,480.7 L952.1,477.6 L952.6,478.1 L953.1,478.3 L953.6,480.0 L954.1,480.3 L954.6,481.2 L955.1,481.2 L955.6,480.2 L956.1,476.1 L957.6,476.3 L958.1,477.6 L958.6,481.2 L959.0,476.5 L959.5,481.2 L960.0,477.8 L960.5,476.8 L961.0,480.5 L961.5,479.0 L962.0,479.7 L962.5,481.0 L963.0,480.0 L963.5,476.5 L964.0,479.3 L964.5,477.1 L965.0,481.5 L965.5,481.0 L966.0,481.0 L966.5,481.0 L967.0,477.3 L968.5,480.7 L968.9,481.2 L969.4,476.1 L969.9,479.8 L970.4,478.0 L970.9,479.2 L971.4,481.0 L971.9,481.4 L972.4,476.5 L972.9,477.5 L973.4,479.2 L973.9,481.4 L974.4,477.1 L974.9,478.5 L975.4,477.6 L975.9,477.8 L976.4,480.0 L976.9,477.6 L977.4,478.3 L977.9,479.2 L979.4,480.5 L979.9,476.5 L980.3,480.7 L980.9,479.2 L981.3,478.8 L981.8,479.2 L982.3,478.1 L982.8,479.0 L983.4,479.0 L983.8,479.2 L984.3,476.1 L984.8,481.9 L985.3,476.3 L985.8,478.7 L986.3,478.3 L986.8,481.2 L987.3,476.8 L987.8,476.5 L988.3,481.7 L988.7,478.1 L990.2,481.9 L990.7,481.7 L991.2,478.1 L991.7,480.5 L992.2,478.5 L992.7,479.0 L993.2,479.8 L993.7,480.7 L994.2,479.7 L994.7,481.7 L995.3,479.7 L995.7,481.2 L996.2,481.4 L996.7,479.2 L997.2,479.8 L997.7,477.3 L998.2,476.6 L998.7,476.6 L999.2,480.2 L999.7,478.8 L1001.2,475.8 L1001.7,480.8 L1002.1,479.5 L1002.6,476.5 L1003.1,477.1 L1003.6,481.4 L1004.1,481.2 L1004.6,479.2 L1005.1,478.1 L1005.6,479.0 L1006.0,479.0 L1006.5,481.4 L1007.0,476.3 L1007.5,476.6 L1008.0,477.3 L1008.5,478.1 L1008.9,480.2 L1009.4,478.8 L1009.9,475.9 L1010.4,475.8 L1010.9,478.5 L1012.1,480.3 L1012.6,480.3 L1013.0,481.4 L1013.6,476.5 L1014.0,477.5 L1014.6,477.0 L1015.0,478.0 L1015.6,477.6 L1016.0,476.6 L1016.5,480.8 L1017.0,481.7 L1017.5,481.5 L1018.0,487.3 L1018.5,493.2 L1018.9,497.7 L1019.4,503.0 L1019.9,505.5 L1020.4,509.0 L1020.9,511.2 L1021.4,515.1 L1021.9,517.5 L1023.0,508.7 L1023.5,510.6 L1024.4,518.8 L1024.9,519.3 L1025.4,521.2 L1025.9,521.5 L1026.4,523.7 L1026.9,524.4 L1027.4,525.3 L1027.9,528.1 L1028.4,531.0 L1028.8,530.0 L1029.3,532.3 L1029.8,532.2 L1030.3,533.2 L1030.8,534.5 L1031.3,529.6 L1031.8,533.2 L1032.3,535.7 L1032.8,535.2 L1034.7,529.6 L1035.2,531.2 L1035.7,533.7 L1036.2,533.4 L1036.7,532.3 L1037.2,535.7 L1037.7,532.5 L1038.2,537.2 L1038.7,533.0 L1039.1,536.9 L1039.6,537.1 L1040.1,532.3 L1040.6,534.5 L1041.1,536.9 L1041.6,533.4 L1042.1,537.6 L1042.5,534.4 L1043.0,539.3 L1043.5,536.9 L1044.0,538.3 L1044.5,537.2 L1046.4,539.6 L1046.9,543.5 L1047.4,544.0 L1047.9,539.1 L1048.4,541.8 L1048.8,541.8 L1049.3,537.1 L1049.8,539.3 L1050.3,541.0 L1050.8,539.8 L1051.3,536.6 L1051.8,535.9 L1052.3,537.6 L1052.8,539.4 L1053.3,536.7 L1053.8,539.9 L1054.3,540.6 L1054.8,539.9 L1055.3,543.0 L1055.8,541.6 L1058.1,539.3 L1058.6,537.9 L1059.0,537.6 L1059.5,536.4 L1060.0,541.0 L1060.5,540.1 L1061.0,532.7 L1061.5,532.5 L1062.0,532.7 L1062.5,531.0 L1063.0,532.7 L1063.5,527.6 L1064.0,528.5 L1064.5,529.8 L1065.0,527.5 L1065.5,524.9 L1066.0,523.2 L1066.5,524.7 L1067.0,525.9 L1067.5,529.3 L1068.0,529.0 L1069.9,527.8 L1072.5,502.6 L1073.0,503.3 L1073.5,504.0 L1074.0,504.1 L1074.5,503.8 L1075.0,504.3 L1075.5,504.8 L1076.0,504.8 L1076.5,504.5 L1077.0,504.7 L1077.5,505.3 L1078.0,505.5 L1078.5,505.2 L1078.9,505.7 L1079.4,505.7 L1081.0,505.8 L1081.5,506.0 L1082.0,505.7 L1082.5,505.7 L1083.0,506.0 L1083.5,506.0 L1084.0,506.2" fill="none" stroke="#ff7f0e" stroke-width="1.1" opacity="0.85"/><text x="616" y="572" font-size="11" fill="#888">time 0..47 s — altitude (blue) &amp; roll (orange)</text></svg>