<svg xmlns="http://www.w3.org/2000/svg" width="1140" height="600" font-family="sans-serif" font-size="13"><rect width="1140" height="600" fill="white"/><text x="20" y="26" font-size="15" fill="#333">Coludo flight</text><rect x="20" y="40" width="540" height="540" fill="#fbfbfb" stroke="#ddd"/><rect x="50" y="305" width="319" height="69" fill="#cde" stroke="#369" opacity="0.7"/><text x="50" y="300" fill="#369" font-size="12">landing zone</text><circle cx="252" cy="412" r="5" fill="black"/><text x="260" y="416" font-size="12">pad</text><path d="M252.5,412.0 L252.5,412.0 L252.5,412.0 L252.5,412.0 L252.5,412.0 L252.5,412.0 L252.5,412.0 L252.5,412.0 L252.5,412.0 L252.5,412.0 L252.5,412.0 L252.5,412.0 L252.5,412.0 L252.5,412.0 L252.5,412.0 L252.5,412.0 L252.5,412.0 L252.5,412.0 L252.5,412.0 L252.5,412.0 L252.5,412.0 L252.5,412.0 L252.5,412.0 L252.5,412.0 L252.5,412.0 L252.5,412.0 L252.5,412.0 L252.5,412.0 L252.5,412.0 L252.5,412.0 L252.5,412.0 L252.5,412.0 L252.5,412.0 L252.5,412.0 L252.5,412.0 L252.5,412.0 L252.5,412.0 L252.5,412.0 L252.5,412.0 L252.5,412.0 L252.5,412.0 L252.5,412.0 L252.5,412.0 L252.5,412.0 L252.5,412.0 L252.5,412.0 L252.5,412.0 L252.5,412.0 L252.5,412.0 L252.5,412.0 L252.5,412.0 L252.5,412.0 L252.5,412.0 L252.5,412.0 L252.5,412.0 L252.5,412.0 L252.5,412.0 L252.5,412.0 L252.5,412.0 L252.5,412.0 L252.5,412.0 L252.5,412.0 L252.5,412.0 L252.5,412.0 L252.5,412.0 L252.5,412.0 L252.5,412.0 L252.5,412.0 L252.5,412.0 L252.5,412.0 L252.5,412.0 L252.5,412.0 L252.5,411.3 L253.5,409.4 L255.9,406.0 L257.6,403.3 L259.0,401.8 L259.3,399.5 L261.0,397.2 L262.8,395.3 L264.5,393.4 L266.2,391.5 L269.6,389.2 L270.0,387.4 L271.3,385.5 L274.8,383.9 L275.4,381.7 L278.2,380.1 L279.9,378.6 L281.6,377.1 L283.3,375.6 L286.4,373.7 L286.7,372.2 L290.2,370.3 L293.3,369.1 L295.3,367.2 L297.0,365.7 L298.7,363.8 L300.4,362.3 L302.2,360.8 L303.9,358.5 L305.6,357.0 L308.3,355.1 L309.0,353.2 L310.7,350.9 L314.2,349.0 L315.2,347.1 L315.9,344.8 L317.6,342.6 L319.3,340.3 L320.7,338.0 L321.0,336.1 L322.7,333.1 L324.4,331.2 L324.8,328.1 L326.1,325.8 L327.9,323.6 L327.9,321.3 L329.6,318.3 L329.6,316.4 L330.3,313.3 L331.3,310.7 L331.3,308.0 L331.3,305.7 L333.0,302.7 L333.0,300.4 L333.0,297.4 L334.7,295.1 L334.7,292.4 L334.7,290.2 L335.7,287.1 L335.7,283.0 L336.4,280.3 L338.1,277.6 L338.1,275.7 L339.9,273.1 L341.6,270.4 L341.6,268.1 L341.9,265.9 L343.3,263.2 L345.0,261.3 L346.7,258.7 L348.1,256.4 L348.4,254.1 L350.1,252.2 L351.8,249.9 L352.2,247.6 L355.3,245.7 L357.0,243.8 L357.7,241.6 L360.4,239.7 L362.1,238.2 L363.8,236.3 L365.5,234.4 L367.3,232.5 L369.3,230.6 L370.7,229.4 L374.1,227.9 L375.8,226.0 L377.5,224.5 L379.6,223.0 L382.7,222.2 L384.4,220.7 L386.1,219.6 L389.5,218.0 L391.9,216.9 L394.7,215.8 L396.4,214.6 L398.1,214.2 L401.5,213.1 L403.2,212.3 L406.7,211.6 L408.4,210.8 L411.8,210.4 L413.5,209.7 L416.9,209.3 L419.3,208.9 L422.1,208.5 L424.8,208.2 L427.2,208.2 L430.3,207.8 L432.4,207.8 L436.5,207.8 L437.5,208.2 L440.9,208.2 L442.6,208.5 L446.1,208.5 L447.8,209.3 L451.2,209.7 L452.2,210.1 L456.3,210.8 L458.1,211.2 L459.8,212.0 L463.2,213.1 L464.9,213.9 L468.3,214.6 L470.0,215.4 L473.5,216.5 L475.2,217.7 L478.6,218.8 L479.0,219.9 L482.0,221.5 L485.1,223.0 L485.5,223.7 L488.9,225.6 L490.6,227.1 L492.3,228.7 L495.7,230.2 L496.1,232.1 L499.2,233.6 L500.9,235.5 L502.6,237.4 L504.3,239.3 L506.0,241.2 L507.7,243.5 L509.4,245.4 L511.2,247.3 L513.2,249.5 L514.6,251.8 L516.3,254.1 L518.0,256.0 L518.0,258.3 L519.7,260.9 L519.7,262.8 L521.4,265.5 L523.1,267.8 L523.5,270.4 L524.9,272.7 L524.9,275.0 L526.6,277.6 L526.6,279.9 L528.3,283.0 L528.3,285.2 L529.0,287.9 L529.0,290.9 L529.0,292.8 L530.0,295.5 L530.0,298.1 L530.0,300.8 L530.0,303.5 L530.0,306.5 L530.0,310.7 L530.0,313.7 L530.0,316.0 L529.0,318.6 L529.0,321.3 L529.0,324.0 L529.0,326.2 L528.3,329.3 L528.3,331.5 L526.6,334.2 L524.9,338.4 L523.5,340.7 L523.5,343.3 L523.1,346.0 L521.4,347.9 L519.7,350.5 L518.0,352.8 L518.0,355.1 L516.3,357.4 L514.6,359.6 L513.2,363.4 L511.2,365.7 L509.4,367.6 L507.7,369.9 L506.4,371.4 L504.3,373.7 L502.6,375.6 L500.9,377.9 L499.2,379.0 L496.1,381.3 L494.0,383.9 L490.6,385.8 L488.9,387.4 L487.2,388.9 L485.1,390.4 L483.7,391.9 L480.3,393.4 L478.6,394.6 L475.2,395.7 L474.8,396.8 L468.0,398.7 L468.3,399.9 L463.2,401.0 L463.2,401.8 L459.8,402.5 L457.7,402.9 L454.6,403.7 L452.2,404.4 L449.5,404.8 L447.4,405.2 L441.9,406.0 L440.9,406.3 L435.8,406.7 L436.5,406.7 L430.6,406.7 L430.3,406.7 L425.5,406.7 L424.8,406.7 L420.4,406.3 L419.3,406.3 L413.5,405.6 L411.8,405.2 L408.4,404.4 L406.7,404.1 L403.2,403.3 L401.5,402.5 L398.1,402.2 L396.4,401.4 L393.0,400.3 L391.2,399.5 L386.1,397.6 L384.4,396.1 L382.7,394.9 L379.6,394.2 L377.5,392.7 L376.2,391.1 L374.1,389.6 L370.7,388.1 L369.0,387.0 L367.3,385.5 L363.8,382.0 L362.1,380.5 L358.7,378.6 L357.7,377.1 L355.3,375.2 L353.6,372.9 L351.8,371.0 L350.1,369.5 L348.4,367.2 L348.1,365.3 L343.3,361.5 L341.9,359.3 L341.6,357.4 L338.1,355.1 L336.4,353.6 L335.7,351.3 L334.7,349.4 L331.3,347.5 L330.3,345.6 L324.8,340.3 L322.7,338.8 L321.0,337.2 L319.3,335.3 L317.6,333.8 L315.2,332.3 L312.4,331.2 L309.0,330.0 L307.3,328.5 L300.4,325.5 L298.7,324.7 L297.0,324.0 L290.2,322.4 L286.7,321.7 L285.0,321.3 L281.6,320.5 L279.9,320.2 L275.4,319.8 L273.0,319.4 L270.0,319.0 L267.9,318.6 L264.5,318.3 L262.8,317.9" fill="none" stroke="#1f77b4" stroke-width="1.7" opacity="0.85"/><circle cx="263" cy="318" r="4.5" fill="#1f77b4"/><text x="28" y="572" font-size="11" fill="#888">ground track — m from pad (N up)</text><rect x="580" y="40" width="540" height="540" fill="#fbfbfb" stroke="#ddd"/><text x="586" y="54" fill="#1f77b4" font-size="11">alt 297</text><text x="586" y="558" fill="#1f77b4" font-size="11">-55</text><path d="M1037.7,468.1 L1037.7,468.1 L1037.8,468.0 L1037.8,468.1 L1037.9,467.9 L1037.9,467.2 L1038.0,466.9 L1038.0,466.4 L1038.1,466.5 L1038.1,465.9 L1038.2,465.1 L1038.2,464.8 L1038.3,464.2 L1038.3,463.6 L1038.4,462.2 L1038.4,462.0 L1038.5,461.1 L1038.5,460.4 L1038.6,458.5 L1038.6,457.7 L1038.7,456.9 L1038.7,455.6 L1038.7,453.8 L1038.8,454.0 L1038.9,452.9 L1038.9,450.3 L1038.9,449.3 L1039.0,448.6 L1039.0,446.3 L1039.1,445.4 L1039.1,444.2 L1039.2,441.0 L1039.2,441.3 L1039.3,437.5 L1039.3,437.0 L1039.4,435.2 L1039.4,430.6 L1039.5,432.1 L1039.5,430.9 L1039.6,428.5 L1039.6,423.4 L1039.7,423.3 L1039.7,421.7 L1039.8,416.7 L1039.8,414.3 L1039.9,415.2 L1039.9,411.4 L1040.0,410.1 L1040.0,407.0 L1040.1,403.9 L1040.1,403.7 L1040.2,397.2 L1040.2,398.8 L1040.3,396.5 L1040.3,388.4 L1040.4,388.1 L1040.4,384.6 L1040.5,386.0 L1040.5,378.1 L1040.6,374.8 L1040.6,376.9 L1040.7,370.5 L1040.7,365.5 L1040.8,366.4 L1040.8,359.2 L1040.9,354.6 L1040.9,356.5 L1041.0,354.3 L1041.0,347.5 L1041.1,340.7 L1041.1,332.6 L1041.2,342.7 L1041.2,327.2 L1041.3,328.6 L1041.3,326.6 L1041.4,323.6 L1041.4,321.4 L1041.5,322.2 L1041.5,318.7 L1041.6,307.4 L1041.6,297.0 L1041.7,291.4 L1041.7,304.2 L1041.7,294.5 L1041.8,286.8 L1041.8,287.3 L1041.9,289.7 L1041.9,281.9 L1042.0,268.5 L1042.0,278.3 L1042.1,264.9 L1042.1,254.2 L1042.2,267.7 L1042.2,252.9 L1042.3,252.1 L1042.3,255.0 L1042.4,239.6 L1042.4,256.0 L1042.5,249.4 L1042.5,231.2 L1042.6,238.1 L1042.6,233.8 L1042.7,230.9 L1042.7,222.5 L1042.8,233.8 L1042.8,218.0 L1042.9,206.5 L1042.9,225.0 L1043.0,215.9 L1043.0,208.8 L1043.1,220.5 L1043.1,215.6 L1043.2,213.5 L1043.2,207.1 L1043.3,186.0 L1043.3,196.4 L1043.4,205.0 L1043.4,188.8 L1043.5,173.5 L1043.5,197.8 L1043.6,192.0 L1043.6,188.2 L1043.7,187.2 L1043.7,188.3 L1043.8,160.9 L1043.8,164.3 L1043.9,175.8 L1043.9,161.3 L1044.0,152.6 L1044.0,155.3 L1044.1,171.4 L1044.1,147.7 L1044.2,165.3 L1044.2,138.7 L1044.3,151.5 L1044.3,138.3 L1044.4,152.1 L1044.4,136.3 L1044.5,129.9 L1044.5,143.5 L1044.6,134.9 L1044.6,132.1 L1044.7,128.4 L1044.7,139.7 L1044.8,137.6 L1044.8,125.1 L1044.9,138.1 L1044.9,145.0 L1045.0,116.8 L1045.0,135.6 L1045.1,117.8 L1045.1,137.7 L1045.2,108.7 L1045.2,104.3 L1045.3,103.4 L1045.3,113.2 L1045.4,113.7 L1045.4,127.7 L1045.5,109.2 L1045.5,110.5 L1045.6,102.1 L1045.7,117.6 L1045.7,97.8 L1045.8,95.7 L1045.8,114.8 L1045.9,87.6 L1045.9,88.6 L1045.9,108.4 L1046.0,107.3 L1046.0,115.0 L1046.1,110.0 L1046.1,115.0 L1046.2,104.0 L1046.2,112.2 L1046.3,106.1 L1046.3,90.9 L1046.4,95.9 L1046.4,77.2 L1046.5,93.0 L1046.5,76.0 L1046.6,88.0 L1046.6,89.6 L1046.7,97.2 L1046.7,79.6 L1046.8,81.8 L1046.9,97.7 L1046.9,82.7 L1047.0,104.0 L1047.0,111.6 L1047.1,111.5 L1047.1,90.6 L1047.2,85.4 L1047.2,99.5 L1047.3,78.0 L1047.3,101.0 L1047.4,109.7 L1047.4,95.6 L1047.5,107.5 L1047.5,102.8 L1047.6,77.5 L1047.6,108.8 L1047.7,108.0 L1047.7,102.0 L1047.8,101.6 L1047.8,87.4 L1047.9,88.7 L1047.9,93.6 L1048.0,98.4 L1048.0,85.5 L1048.1,109.9 L1048.1,78.5 L1048.2,110.4 L1048.2,91.2 L1048.3,83.8 L1048.3,101.0 L1048.4,93.4 L1048.4,110.7 L1048.5,79.0 L1048.5,105.2 L1048.6,86.6 L1048.6,98.7 L1048.7,99.0 L1048.7,95.4 L1048.8,88.4 L1048.8,95.7 L1048.9,96.0 L1048.9,92.5 L1049.0,103.0 L1049.0,86.4 L1049.1,105.1 L1049.2,88.5 L1049.2,89.6 L1049.3,92.6 L1049.3,88.0 L1049.4,103.4 L1049.4,109.5 L1049.5,109.3 L1049.5,104.8 L1049.6,99.8 L1049.6,108.6 L1049.7,105.0 L1049.7,100.3 L1049.8,89.5 L1049.8,91.3 L1049.9,102.4 L1049.9,105.1 L1050.0,107.4 L1050.0,95.2 L1050.0,111.5 L1050.1,97.2 L1050.1,88.3 L1050.2,103.6 L1050.2,107.9 L1050.3,100.7 L1050.4,97.6 L1050.4,119.8 L1050.5,102.8 L1050.5,104.4 L1050.6,121.8 L1050.6,113.8 L1050.7,116.5 L1050.7,96.1 L1050.8,117.7 L1050.8,110.9 L1050.9,113.4 L1050.9,95.1 L1051.0,92.7 L1051.0,118.4 L1051.1,100.4 L1051.1,125.2 L1051.2,111.4 L1051.2,125.6 L1051.3,94.9 L1051.3,104.8 L1051.4,122.4 L1051.4,110.5 L1051.5,109.2 L1051.6,128.8 L1051.6,101.3 L1051.7,126.6 L1051.7,95.5 L1051.8,120.1 L1051.8,127.3 L1051.9,106.1 L1051.9,120.1 L1052.0,119.8 L1052.0,111.9 L1052.1,119.0 L1052.1,124.4 L1052.2,105.4 L1052.2,117.2 L1052.3,99.0 L1052.3,106.0 L1052.4,126.9 L1052.4,131.4 L1052.5,122.1 L1052.5,126.7 L1052.6,103.9 L1052.6,131.2 L1052.7,121.4 L1052.8,116.9 L1052.8,133.5 L1052.9,118.7 L1052.9,119.4 L1053.0,127.4 L1053.0,119.4 L1053.1,133.9 L1053.1,129.1 L1053.2,137.8 L1053.2,114.9 L1053.3,112.1 L1053.3,125.1 L1053.4,139.5 L1053.4,131.0 L1053.5,137.3 L1053.5,136.5 L1053.6,141.5 L1053.6,121.3 L1053.7,112.7 L1053.7,112.5 L1053.8,120.8 L1053.8,135.9 L1054.0,128.3 L1054.0,115.0 L1054.1,142.0 L1054.1,146.6 L1054.2,119.1 L1054.2,123.9 L1054.3,140.4 L1054.3,139.3 L1054.4,128.1 L1054.4,133.3 L1054.5,142.6 L1054.5,145.7 L1054.5,144.4 L1054.6,119.6 L1054.6,136.8 L1054.7,138.0 L1054.7,119.5 L1054.8,132.1 L1054.8,141.1 L1054.9,148.2 L1054.9,126.1 L1055.0,140.0 L1055.0,132.8 L1055.2,151.8 L1055.2,156.5 L1055.3,157.2 L1055.3,133.4 L1055.4,142.7 L1055.4,127.1 L1055.5,154.5 L1055.5,133.0 L1055.6,149.1 L1055.6,136.8 L1055.7,156.9 L1055.7,154.9 L1055.8,143.5 L1055.8,146.9 L1055.9,142.6 L1055.9,146.4 L1056.0,162.9 L1056.0,164.1 L1056.1,147.3 L1056.1,152.7 L1056.2,163.2 L1056.2,164.2 L1056.3,149.1 L1056.4,158.6 L1056.5,156.1 L1056.5,162.3 L1056.6,142.4 L1056.6,143.0 L1056.7,155.4 L1056.7,144.0 L1056.8,167.1 L1056.8,157.7 L1056.9,148.8 L1056.9,165.9 L1057.0,147.0 L1057.0,170.6 L1057.1,147.3 L1057.1,150.5 L1057.1,157.3 L1057.2,152.5 L1057.2,156.1 L1057.3,171.6 L1057.3,169.2 L1057.4,150.9 L1057.4,175.6 L1057.5,161.0 L1057.6,164.3 L1057.7,153.8 L1057.7,177.1 L1057.8,152.2 L1057.8,181.2 L1057.9,177.6 L1057.9,157.8 L1058.0,163.0 L1058.0,156.8 L1058.1,156.0 L1058.1,177.7 L1058.2,165.6 L1058.2,165.2 L1058.3,173.2 L1058.3,178.0 L1058.4,167.9 L1058.4,163.9 L1058.5,179.4 L1058.5,181.5 L1058.6,186.6 L1058.6,186.6 L1058.7,188.8 L1058.7,174.8 L1058.9,181.4 L1058.9,184.2 L1059.0,188.6 L1059.0,180.9 L1059.1,190.4 L1059.1,178.0 L1059.2,191.4 L1059.2,174.6 L1059.3,186.2 L1059.3,174.0 L1059.4,186.8 L1059.4,173.5 L1059.5,171.5 L1059.5,181.2 L1059.5,191.3 L1059.6,185.3 L1059.6,196.1 L1059.7,188.0 L1059.7,176.1 L1059.8,193.0 L1059.8,185.0 L1059.9,179.4 L1059.9,180.9 L1060.1,187.4 L1060.1,189.9 L1060.2,193.9 L1060.2,188.4 L1060.3,192.7 L1060.3,185.8 L1060.4,189.2 L1060.4,205.0 L1060.5,205.5 L1060.5,183.7 L1060.6,188.4 L1060.6,201.4 L1060.7,193.5 L1060.7,199.0 L1060.8,202.8 L1060.8,208.5 L1060.9,201.2 L1060.9,200.6 L1061.0,213.0 L1061.0,208.3 L1061.1,195.0 L1061.1,199.3 L1061.2,203.5 L1061.3,218.7 L1061.4,215.0 L1061.4,201.3 L1061.5,198.0 L1061.5,201.1 L1061.6,197.7 L1061.6,198.6 L1061.7,224.0 L1061.7,211.4 L1061.8,214.1 L1061.8,212.1 L1061.9,209.1 L1061.9,203.0 L1062.0,209.5 L1062.0,227.2 L1062.0,227.9 L1062.1,216.9 L1062.1,214.6 L1062.2,212.4 L1062.2,228.6 L1062.3,218.5 L1062.3,222.6 L1062.4,212.4 L1062.5,222.2 L1062.6,234.5 L1062.6,220.3 L1062.7,221.1 L1062.7,226.3 L1062.8,227.1 L1062.8,214.5 L1062.9,235.6 L1062.9,230.4 L1063.0,240.0 L1063.0,218.8 L1063.1,221.3 L1063.1,235.9 L1063.2,232.6 L1063.2,225.1 L1063.3,227.0 L1063.3,223.1 L1063.4,226.3 L1063.4,230.9 L1063.5,240.8 L1063.5,244.5 L1063.6,237.0 L1063.6,245.5 L1063.8,242.9 L1063.8,248.2 L1063.9,244.9 L1063.9,247.4 L1064.0,244.6 L1064.0,243.2 L1064.1,242.6 L1064.1,251.1 L1064.2,250.1 L1064.2,254.3 L1064.3,245.5 L1064.3,242.8 L1064.4,256.5 L1064.4,257.9 L1064.5,248.7 L1064.5,247.8 L1064.6,255.9 L1064.6,253.7 L1064.7,248.4 L1064.7,242.5 L1064.8,256.8 L1064.8,258.4 L1064.9,261.7 L1065.0,245.3 L1065.0,251.6 L1065.1,264.8 L1065.1,249.5 L1065.2,250.3 L1065.2,256.2 L1065.3,249.6 L1065.3,252.6 L1065.4,263.9 L1065.4,258.6 L1065.5,256.1 L1065.5,263.0 L1065.6,252.9 L1065.6,256.3 L1065.7,274.5 L1065.7,273.3 L1065.8,270.7 L1065.8,273.0 L1065.9,266.9 L1065.9,275.0 L1066.0,270.3 L1066.0,272.9 L1066.1,264.6 L1066.2,264.1 L1066.3,266.1 L1066.3,279.7 L1066.4,282.5 L1066.4,269.9 L1066.5,270.9 L1066.5,269.9 L1066.6,282.1 L1066.6,286.0 L1066.7,285.4 L1066.7,281.4 L1066.8,271.1 L1066.8,281.5 L1066.9,274.4 L1066.9,273.2 L1067.0,274.5 L1067.0,283.6 L1067.1,287.9 L1067.1,293.5 L1067.2,284.9 L1067.2,282.3 L1067.3,278.7 L1067.3,291.7 L1067.5,285.5 L1067.6,295.8 L1067.6,292.8 L1067.7,296.0 L1067.7,294.2 L1067.8,289.4 L1067.8,298.1 L1067.9,299.2 L1067.9,303.1 L1068.0,290.0 L1068.0,301.1 L1068.1,294.4 L1068.1,298.4 L1068.2,306.8 L1068.2,297.6 L1068.3,294.3 L1068.3,309.3 L1068.4,296.7 L1068.4,303.0 L1068.5,311.3 L1068.5,298.5 L1068.6,303.6 L1068.6,307.8 L1068.9,317.0 L1068.9,318.7 L1069.0,309.7 L1069.0,311.1 L1069.1,307.0 L1069.1,320.3 L1069.2,321.8 L1069.2,311.4 L1069.3,314.3 L1069.3,315.9 L1069.4,316.0 L1069.4,311.8 L1069.5,321.2 L1069.5,321.8 L1069.6,325.4 L1069.6,319.8 L1069.6,323.5 L1069.7,317.1 L1069.7,316.6 L1069.8,321.1 L1069.8,328.0 L1069.9,319.7 L1069.9,332.0 L1070.2,329.0 L1070.2,332.5 L1070.3,338.1 L1070.3,335.2 L1070.4,330.8 L1070.4,330.8 L1070.5,328.5 L1070.5,340.5 L1070.6,339.9 L1070.6,333.9 L1070.7,336.1 L1070.7,336.1 L1070.8,338.6 L1070.8,336.0 L1070.9,345.1 L1070.9,346.3 L1071.0,341.4 L1071.0,338.7 L1071.1,337.6 L1071.1,350.7 L1071.2,341.5 L1071.2,352.1 L1071.3,348.1 L1071.5,349.0 L1071.6,347.3 L1071.6,357.1 L1071.7,353.5 L1071.7,351.1 L1071.8,349.1 L1071.8,354.4 L1071.9,358.6 L1071.9,353.4 L1072.0,355.0 L1072.0,358.4 L1072.1,358.7 L1072.1,364.0 L1072.2,355.4 L1072.2,363.3 L1072.3,356.9 L1072.3,364.2 L1072.4,361.4 L1072.4,359.9 L1072.4,360.0 L1072.5,363.4 L1072.5,368.2 L1072.6,370.6 L1072.8,367.2 L1072.9,374.7 L1072.9,368.7 L1073.0,377.4 L1073.0,378.9 L1073.1,376.3 L1073.1,375.7 L1073.2,374.6 L1073.2,372.3 L1073.3,382.1 L1073.3,377.5 L1073.4,379.2 L1073.4,379.1 L1073.5,376.3 L1073.5,380.2 L1073.6,378.4 L1073.6,385.6 L1073.7,382.6 L1073.7,383.9 L1073.8,384.1 L1073.8,390.1 L1073.9,384.9 L1073.9,390.8 L1074.2,389.8 L1074.2,391.8 L1074.3,395.8 L1074.3,391.0 L1074.4,391.2 L1074.4,396.2 L1074.5,398.4 L1074.5,393.0 L1074.6,400.4 L1074.6,396.9 L1074.7,398.3 L1074.7,403.4 L1074.7,402.9 L1074.8,400.6 L1074.8,404.8 L1074.9,401.0 L1074.9,405.8 L1075.0,405.1 L1075.0,406.4 L1075.1,404.4 L1075.1,406.1 L1075.2,406.3 L1075.2,405.7 L1075.5,411.8 L1075.5,413.3 L1075.6,414.1 L1075.6,415.7 L1075.7,412.9 L1075.7,417.1 L1075.8,418.6 L1075.8,417.3 L1075.9,416.3 L1075.9,420.7 L1076.0,421.2 L1076.0,420.3 L1076.1,422.7 L1076.1,422.9 L1076.2,423.8 L1076.2,423.3 L1076.3,426.8 L1076.3,424.1 L1076.4,427.7 L1076.4,425.8 L1076.5,426.5 L1076.5,430.8 L1076.6,430.1 L1076.8,432.3 L1076.9,433.1 L1076.9,434.7 L1077.0,435.2 L1077.0,435.6 L1077.1,437.7 L1077.1,439.5 L1077.2,440.5 L1077.2,441.0 L1077.3,439.5 L1077.3,440.8 L1077.4,441.1 L1077.4,442.0 L1077.5,444.3 L1077.5,443.5 L1077.6,444.6 L1077.6,446.4 L1077.6,447.6 L1077.7,446.5 L1077.7,447.1 L1077.8,449.3 L1077.8,449.5 L1077.9,451.5 L1078.1,455.3 L1078.2,455.8 L1078.2,456.8 L1078.3,456.6 L1078.3,457.7 L1078.4,458.8 L1078.4,459.6 L1078.5,459.8 L1078.5,460.5 L1078.6,461.1 L1078.6,462.6 L1078.7,463.6 L1078.7,464.1 L1078.8,465.1 L1078.8,465.3 L1078.9,466.8 L1078.9,467.5 L1079.0,468.0 L1079.0,468.8 L1079.1,469.5 L1079.1,470.5 L1079.2,471.2 L1079.2,472.0 L1079.5,475.9 L1079.5,476.4 L1079.6,477.4 L1079.6,478.2 L1079.7,479.0 L1079.7,480.0 L1079.8,480.2 L1079.8,482.1 L1079.9,482.5 L1079.9,482.7 L1080.0,483.1 L1080.0,484.7 L1080.1,485.0 L1080.1,485.7 L1080.2,487.1 L1080.2,487.9 L1080.3,488.8 L1080.3,490.0 L1080.4,488.9 L1080.4,491.0 L1080.5,491.5 L1080.5,492.9 L1080.6,492.0 L1080.8,494.9 L1080.8,497.8 L1080.9,497.3 L1080.9,498.0 L1081.0,500.4 L1081.0,500.8 L1081.1,499.7 L1081.1,502.5 L1081.2,500.8 L1081.2,504.2 L1081.3,504.2 L1081.3,504.3 L1081.4,506.3 L1081.4,506.9 L1081.5,505.2 L1081.5,507.2 L1081.6,507.4 L1081.6,510.5 L1081.7,509.0 L1081.7,509.0 L1081.8,511.2 L1081.8,510.2 L1081.9,512.1 L1082.1,517.3 L1082.2,516.5 L1082.2,514.8 L1082.3,516.9 L1082.3,519.0 L1082.4,521.9 L1082.4,520.2 L1082.7,521.3 L1082.7,524.1 L1082.8,527.1 L1082.8,527.1 L1082.9,528.1 L1082.9,527.2 L1083.0,527.3 L1083.0,527.7 L1083.1,530.4 L1083.1,531.2 L1083.2,529.4 L1083.4,531.6 L1083.4,534.2 L1083.5,535.2 L1083.5,536.1 L1083.6,535.9 L1083.6,540.2 L1083.7,535.5 L1083.7,539.9 L1083.8,537.1 L1083.8,541.4 L1083.9,541.8 L1083.9,541.8 L1084.0,541.8 L1084.0,544.0" fill="none" stroke="#1f77b4" stroke-width="1.4" opacity="0.85"/><text x="1040" y="54" fill="#ff7f0e" font-size="11">roll 19</text><text x="1090" y="558" fill="#ff7f0e" font-size="11">-23</text><path d="M1037.7,289.9 L1037.7,289.9 L1037.8,289.9 L1037.8,289.9 L1037.9,289.9 L1037.9,289.9 L1038.0,289.9 L1038.0,289.9 L1038.1,289.9 L1038.1,289.9 L1038.2,289.9 L1038.2,289.9 L1038.3,289.9 L1038.3,289.9 L1038.4,289.9 L1038.4,289.9 L1038.5,289.9 L1038.5,289.9 L1038.6,289.9 L1038.6,289.9 L1038.7,289.9 L1038.7,289.9 L1038.7,289.9 L1038.8,289.9 L1038.8,289.9 L1038.9,289.9 L1038.9,289.9 L1039.0,289.9 L1039.0,289.9 L1039.1,289.9 L1039.1,289.9 L1039.2,289.9 L1039.2,289.9 L1039.3,289.9 L1039.3,289.9 L1039.4,289.9 L1039.4,289.9 L1039.5,289.9 L1039.5,289.9 L1039.6,289.9 L1039.6,289.9 L1039.7,289.9 L1039.7,289.9 L1039.8,289.9 L1039.8,289.9 L1039.9,289.9 L1039.9,289.9 L1040.0,289.9 L1040.0,289.9 L1040.1,289.9 L1040.1,289.9 L1040.2,289.9 L1040.2,289.9 L1040.3,289.9 L1040.3,289.9 L1040.4,289.9 L1040.4,289.9 L1040.5,289.9 L1040.5,289.9 L1040.6,289.9 L1040.6,289.9 L1040.7,289.9 L1040.7,289.9 L1040.8,289.9 L1040.8,289.9 L1040.9,289.9 L1040.9,289.9 L1041.0,289.9 L1041.0,289.9 L1041.1,289.9 L1041.1,289.9 L1041.2,289.9 L1041.2,289.9 L1041.3,289.9 L1041.3,289.9 L1041.4,289.9 L1041.4,289.9 L1041.5,289.9 L1041.5,289.9 L1041.6,289.9 L1041.6,289.9 L1041.7,289.9 L1041.7,289.9 L1041.7,289.9 L1041.8,289.9 L1041.8,289.9 L1041.9,289.9 L1041.9,289.9 L1042.0,289.9 L1042.0,289.9 L1042.1,289.9 L1042.1,289.9 L1042.2,289.9 L1042.2,289.9 L1042.3,289.9 L1042.3,289.9 L1042.4,289.9 L1042.4,289.9 L1042.5,289.9 L1042.5,289.9 L1042.6,289.9 L1042.6,289.9 L1042.7,289.9 L1042.7,289.9 L1042.8,289.9 L1042.8,289.9 L1042.9,289.9 L1042.9,289.9 L1043.0,289.9 L1043.0,289.9 L1043.1,289.9 L1043.1,289.9 L1043.2,289.9 L1043.2,289.9 L1043.3,289.9 L1043.3,289.9 L1043.4,289.9 L1043.4,289.9 L1043.5,289.9 L1043.5,289.9 L1043.6,288.8 L1043.6,288.8 L1043.7,289.9 L1043.7,289.9 L1043.8,289.9 L1043.8,289.9 L1043.9,289.9 L1043.9,289.9 L1044.0,289.9 L1044.0,288.8 L1044.1,289.9 L1044.1,288.8 L1044.2,289.9 L1044.2,288.8 L1044.3,289.9 L1044.3,289.9 L1044.4,289.9 L1044.4,289.9 L1044.5,288.8 L1044.5,289.9 L1044.6,289.9 L1044.6,289.9 L1044.7,289.9 L1044.7,289.9 L1044.8,289.9 L1044.8,289.9 L1044.9,289.9 L1044.9,289.9 L1045.0,289.9 L1045.0,289.9 L1045.1,289.9 L1045.1,289.9 L1045.2,289.9 L1045.2,289.9 L1045.3,288.8 L1045.3,289.9 L1045.4,288.8 L1045.4,288.8 L1045.5,289.9 L1045.5,289.9 L1045.6,289.9 L1045.7,289.9 L1045.7,289.9 L1045.8,289.9 L1045.8,289.9 L1045.9,289.9 L1045.9,289.9 L1045.9,289.9 L1046.0,289.9 L1046.0,289.9 L1046.1,289.9 L1046.1,289.9 L1046.2,289.9 L1046.2,289.9 L1046.3,289.9 L1046.3,289.9 L1046.4,289.9 L1046.4,289.9 L1046.5,289.9 L1046.5,274.3 L1046.6,254.3 L1046.6,234.2 L1046.7,217.5 L1046.7,195.2 L1046.8,180.7 L1046.9,178.5 L1046.9,161.8 L1047.0,150.7 L1047.0,138.4 L1047.1,133.9 L1047.1,130.6 L1047.2,120.6 L1047.2,127.3 L1047.3,121.7 L1047.3,123.9 L1047.4,113.9 L1047.4,107.2 L1047.5,111.7 L1047.5,120.6 L1047.6,108.3 L1047.6,100.5 L1047.7,107.2 L1047.7,118.3 L1047.8,102.7 L1047.8,118.3 L1047.9,105.0 L1047.9,105.0 L1048.0,158.5 L1048.0,151.8 L1048.1,154.0 L1048.1,147.3 L1048.2,149.5 L1048.2,139.5 L1048.3,145.1 L1048.3,135.1 L1048.4,138.4 L1048.4,141.7 L1048.5,137.3 L1048.5,136.2 L1048.6,142.9 L1048.6,135.1 L1048.7,142.9 L1048.7,144.0 L1048.8,144.0 L1048.8,151.8 L1048.9,150.7 L1048.9,152.9 L1049.0,178.5 L1049.0,203.0 L1049.1,247.6 L1049.2,294.4 L1049.2,317.8 L1049.3,335.6 L1049.3,356.8 L1049.4,367.9 L1049.4,395.8 L1049.5,411.4 L1049.5,418.1 L1049.6,427.0 L1049.6,432.6 L1049.7,435.9 L1049.7,453.7 L1049.8,460.4 L1049.8,459.3 L1049.9,450.4 L1049.9,466.0 L1050.0,463.8 L1050.0,456.0 L1050.0,476.0 L1050.1,474.9 L1050.1,473.8 L1050.2,472.7 L1050.2,466.0 L1050.3,468.2 L1050.4,469.3 L1050.4,479.4 L1050.5,472.7 L1050.5,473.8 L1050.6,477.1 L1050.6,472.7 L1050.7,478.3 L1050.7,474.9 L1050.8,478.3 L1050.8,476.0 L1050.9,479.4 L1050.9,477.1 L1051.0,480.5 L1051.0,470.5 L1051.1,464.9 L1051.1,481.6 L1051.2,464.9 L1051.2,480.5 L1051.3,473.8 L1051.3,468.2 L1051.4,467.1 L1051.4,477.1 L1051.5,481.6 L1051.6,479.4 L1051.6,468.2 L1051.7,479.4 L1051.7,472.7 L1051.8,477.1 L1051.8,480.5 L1051.9,468.2 L1051.9,477.1 L1052.0,479.4 L1052.0,472.7 L1052.1,478.3 L1052.1,473.8 L1052.2,477.1 L1052.2,468.2 L1052.3,470.5 L1052.3,479.4 L1052.4,469.3 L1052.4,481.6 L1052.5,470.5 L1052.5,482.7 L1052.6,477.1 L1052.6,467.1 L1052.7,471.6 L1052.8,474.9 L1052.8,478.3 L1052.9,476.0 L1052.9,469.3 L1053.0,482.7 L1053.0,415.9 L1053.1,386.9 L1053.1,359.0 L1053.2,330.1 L1053.2,304.4 L1053.3,271.0 L1053.3,250.9 L1053.4,234.2 L1053.4,215.3 L1053.5,195.2 L1053.5,181.9 L1053.6,160.7 L1053.6,150.7 L1053.7,149.5 L1053.7,141.7 L1053.8,129.5 L1053.8,126.1 L1054.0,126.1 L1054.0,106.1 L1054.1,112.8 L1054.1,110.5 L1054.2,111.7 L1054.2,105.0 L1054.3,116.1 L1054.3,105.0 L1054.4,107.2 L1054.4,118.3 L1054.5,113.9 L1054.5,113.9 L1054.5,106.1 L1054.6,106.1 L1054.6,105.0 L1054.7,101.6 L1054.7,122.8 L1054.8,111.7 L1054.8,121.7 L1054.9,103.9 L1054.9,109.4 L1055.0,108.3 L1055.0,117.2 L1055.2,126.1 L1055.2,130.6 L1055.3,123.9 L1055.3,127.3 L1055.4,119.5 L1055.4,112.8 L1055.5,111.7 L1055.5,121.7 L1055.6,110.5 L1055.6,117.2 L1055.7,112.8 L1055.7,117.2 L1055.8,118.3 L1055.8,112.8 L1055.9,117.2 L1055.9,105.0 L1056.0,100.5 L1056.0,115.0 L1056.1,112.8 L1056.1,102.7 L1056.2,105.0 L1056.2,100.5 L1056.3,113.9 L1056.4,118.3 L1056.5,123.9 L1056.5,116.1 L1056.6,122.8 L1056.6,120.6 L1056.7,117.2 L1056.7,109.4 L1056.8,111.7 L1056.8,106.1 L1056.9,111.7 L1056.9,106.1 L1057.0,101.6 L1057.0,112.8 L1057.1,116.1 L1057.1,112.8 L1057.1,102.7 L1057.2,110.5 L1057.2,100.5 L1057.3,100.5 L1057.3,118.3 L1057.4,99.4 L1057.4,103.9 L1057.5,115.0 L1057.6,127.3 L1057.7,132.8 L1057.7,121.7 L1057.8,120.6 L1057.8,120.6 L1057.9,115.0 L1057.9,107.2 L1058.0,108.3 L1058.0,116.1 L1058.1,118.3 L1058.1,105.0 L1058.2,117.2 L1058.2,117.2 L1058.3,102.7 L1058.3,102.7 L1058.4,110.5 L1058.4,117.2 L1058.5,110.5 L1058.5,111.7 L1058.6,112.8 L1058.6,105.0 L1058.7,102.7 L1058.7,107.2 L1058.9,98.3 L1058.9,106.1 L1059.0,100.5 L1059.0,103.9 L1059.1,105.0 L1059.1,112.8 L1059.2,106.1 L1059.2,113.9 L1059.3,116.1 L1059.3,109.4 L1059.4,103.9 L1059.4,100.5 L1059.4,109.4 L1059.5,109.4 L1059.5,116.1 L1059.6,106.1 L1059.6,116.1 L1059.7,112.8 L1059.7,99.4 L1059.8,110.5 L1059.8,101.6 L1059.9,107.2 L1059.9,109.4 L1060.1,121.7 L1060.1,121.7 L1060.2,120.6 L1060.2,113.9 L1060.3,113.9 L1060.3,109.4 L1060.4,109.4 L1060.4,117.2 L1060.5,107.2 L1060.5,116.1 L1060.6,111.7 L1060.6,106.1 L1060.7,100.5 L1060.7,108.3 L1060.8,102.7 L1060.8,109.4 L1060.9,116.1 L1060.9,108.3 L1061.0,101.6 L1061.0,116.1 L1061.1,100.5 L1061.1,116.1 L1061.2,105.0 L1061.3,117.2 L1061.4,110.5 L1061.4,107.2 L1061.5,113.9 L1061.5,109.4 L1061.6,100.5 L1061.6,111.7 L1061.7,106.1 L1061.7,108.3 L1061.8,112.8 L1061.8,109.4 L1061.9,99.4 L1061.9,100.5 L1062.0,108.3 L1062.0,117.2 L1062.0,107.2 L1062.1,113.9 L1062.1,116.1 L1062.2,105.0 L1062.2,108.3 L1062.3,99.4 L1062.3,99.4 L1062.4,100.5 L1062.5,96.1 L1062.6,94.9 L1062.6,99.4 L1062.7,96.1 L1062.7,106.1 L1062.8,106.1 L1062.8,100.5 L1062.9,109.4 L1062.9,111.7 L1063.0,100.5 L1063.0,112.8 L1063.1,99.4 L1063.1,107.2 L1063.2,107.2 L1063.2,97.2 L1063.3,106.1 L1063.3,102.7 L1063.4,108.3 L1063.4,101.6 L1063.5,113.9 L1063.5,106.1 L1063.6,108.3 L1063.6,98.3 L1063.8,93.8 L1063.8,101.6 L1063.9,91.6 L1063.9,100.5 L1064.0,103.9 L1064.0,103.9 L1064.1,102.7 L1064.1,96.1 L1064.2,107.2 L1064.2,108.3 L1064.3,113.9 L1064.3,102.7 L1064.4,112.8 L1064.4,106.1 L1064.5,106.1 L1064.5,100.5 L1064.6,103.9 L1064.6,110.5 L1064.7,102.7 L1064.7,117.2 L1064.8,116.1 L1064.8,101.6 L1064.8,111.7 L1065.0,102.7 L1065.0,96.1 L1065.1,105.0 L1065.1,110.5 L1065.2,106.1 L1065.2,97.2 L1065.3,112.8 L1065.3,101.6 L1065.4,115.0 L1065.4,99.4 L1065.5,112.8 L1065.5,113.9 L1065.6,106.1 L1065.6,102.7 L1065.7,109.4 L1065.7,109.4 L1065.8,110.5 L1065.8,99.4 L1065.9,101.6 L1065.9,117.2 L1066.0,110.5 L1066.0,116.1 L1066.1,101.6 L1066.2,105.0 L1066.3,109.4 L1066.3,105.0 L1066.4,103.9 L1066.4,107.2 L1066.5,118.3 L1066.5,102.7 L1066.6,102.7 L1066.6,110.5 L1066.7,106.1 L1066.7,110.5 L1066.8,115.0 L1066.8,117.2 L1066.9,117.2 L1066.9,102.7 L1067.0,99.4 L1067.0,107.2 L1067.1,107.2 L1067.1,108.3 L1067.2,109.4 L1067.2,116.1 L1067.3,108.3 L1067.3,98.3 L1067.5,111.7 L1067.6,103.9 L1067.6,119.5 L1067.7,117.2 L1067.7,111.7 L1067.8,103.9 L1067.8,98.3 L1067.9,109.4 L1067.9,112.8 L1068.0,117.2 L1068.0,115.0 L1068.1,109.4 L1068.1,109.4 L1068.2,102.7 L1068.2,115.0 L1068.3,98.3 L1068.3,111.7 L1068.4,105.0 L1068.4,115.0 L1068.5,108.3 L1068.5,103.9 L1068.6,110.5 L1068.6,99.4 L1068.9,109.4 L1068.9,103.9 L1069.0,116.1 L1069.0,113.9 L1069.1,107.2 L1069.1,106.1 L1069.2,99.4 L1069.2,113.9 L1069.3,115.0 L1069.3,113.9 L1069.4,100.5 L1069.4,101.6 L1069.5,113.9 L1069.5,107.2 L1069.6,111.7 L1069.6,103.9 L1069.6,99.4 L1069.7,103.9 L1069.7,111.7 L1069.8,105.0 L1069.8,100.5 L1069.9,111.7 L1069.9,99.4 L1070.2,88.3 L1070.2,90.5 L1070.3,92.7 L1070.3,93.8 L1070.4,96.1 L1070.4,99.4 L1070.5,100.5 L1070.5,99.4 L1070.6,102.7 L1070.6,108.3 L1070.7,94.9 L1070.7,100.5 L1070.8,101.6 L1070.8,105.0 L1070.9,110.5 L1070.9,99.4 L1071.0,107.2 L1071.0,101.6 L1071.1,100.5 L1071.1,109.4 L1071.2,111.7 L1071.2,107.2 L1071.3,117.2 L1071.5,119.5 L1071.6,106.1 L1071.6,113.9 L1071.7,105.0 L1071.7,116.1 L1071.8,115.0 L1071.8,111.7 L1071.9,102.7 L1071.9,103.9 L1072.0,115.0 L1072.0,110.5 L1072.1,101.6 L1072.1,108.3 L1072.2,113.9 L1072.2,102.7 L1072.3,105.0 L1072.3,110.5 L1072.3,100.5 L1072.4,101.6 L1072.4,110.5 L1072.5,109.4 L1072.5,105.0 L1072.6,112.8 L1072.8,106.1 L1072.9,105.0 L1072.9,107.2 L1073.0,99.4 L1073.0,115.0 L1073.1,103.9 L1073.1,102.7 L1073.2,110.5 L1073.2,106.1 L1073.3,97.2 L1073.3,108.3 L1073.4,100.5 L1073.4,116.1 L1073.5,100.5 L1073.5,105.0 L1073.6,99.4 L1073.6,110.5 L1073.7,113.9 L1073.7,115.0 L1073.8,113.9 L1073.8,105.0 L1073.9,101.6 L1073.9,98.3 L1074.2,116.1 L1074.2,103.9 L1074.3,118.3 L1074.3,116.1 L1074.4,106.1 L1074.4,106.1 L1074.5,116.1 L1074.5,100.5 L1074.6,110.5 L1074.6,98.3 L1074.7,116.1 L1074.7,108.3 L1074.7,100.5 L1074.8,99.4 L1074.8,112.8 L1074.9,113.9 L1074.9,112.8 L1075.0,112.8 L1075.0,116.1 L1075.1,115.0 L1075.1,99.4 L1075.2,111.7 L1075.2,103.9 L1075.5,76.0 L1075.5,90.5 L1075.6,94.9 L1075.6,89.4 L1075.7,98.3 L1075.7,108.3 L1075.8,107.2 L1075.8,103.9 L1075.9,102.7 L1075.9,106.1 L1076.0,105.0 L1076.0,108.3 L1076.1,109.4 L1076.1,113.9 L1076.2,106.1 L1076.2,106.1 L1076.3,113.9 L1076.3,115.0 L1076.4,108.3 L1076.4,113.9 L1076.5,103.9 L1076.5,108.3 L1076.6,105.0 L1076.8,102.7 L1076.9,106.1 L1076.9,113.9 L1077.0,115.0 L1077.0,118.3 L1077.1,116.1 L1077.1,107.2 L1077.2,109.4 L1077.2,116.1 L1077.3,102.7 L1077.3,98.3 L1077.4,117.2 L1077.4,105.0 L1077.5,102.7 L1077.5,110.5 L1077.6,110.5 L1077.6,108.3 L1077.6,110.5 L1077.7,109.4 L1077.7,111.7 L1077.8,113.9 L1077.8,116.1 L1077.9,118.3 L1078.1,107.2 L1078.2,109.4 L1078.2,111.7 L1078.3,108.3 L1078.3,97.2 L1078.4,115.0 L1078.4,109.4 L1078.5,107.2 L1078.5,108.3 L1078.6,109.4 L1078.6,111.7 L1078.7,109.4 L1078.7,103.9 L1078.8,127.3 L1078.8,150.7 L1078.9,168.5 L1078.9,180.7 L1079.0,206.4 L1079.0,227.5 L1079.1,243.1 L1079.1,246.5 L1079.2,248.7 L1079.2,271.0 L1079.5,196.3 L1079.5,218.6 L1079.6,243.1 L1079.6,277.7 L1079.7,293.3 L1079.7,310.0 L1079.8,321.1 L1079.8,327.8 L1079.9,347.9 L1079.9,354.6 L1080.0,365.7 L1080.0,356.8 L1080.1,375.7 L1080.1,393.6 L1080.2,404.7 L1080.2,417.0 L1080.3,418.1 L1080.3,431.5 L1080.4,432.6 L1080.4,456.0 L1080.5,452.6 L1080.5,473.8 L1080.6,473.8 L1080.8,490.5 L1080.8,503.9 L1080.9,508.3 L1080.9,511.7 L1081.0,508.3 L1081.0,502.8 L1081.1,505.0 L1081.1,516.1 L1081.2,510.6 L1081.2,527.3 L1081.3,517.3 L1081.3,535.1 L1081.4,521.7 L1081.4,515.0 L1081.5,517.3 L1081.5,530.6 L1081.6,521.7 L1081.6,529.5 L1081.7,523.9 L1081.7,522.8 L1081.8,527.3 L1081.8,523.9 L1081.9,538.4 L1082.1,529.5 L1082.2,544.0 L1082.2,528.4 L1082.3,531.7 L1082.3,529.5 L1082.4,539.5 L1082.4,530.6 L1082.7,499.4 L1082.7,484.9 L1082.8,454.9 L1082.8,441.5 L1082.9,439.3 L1082.9,429.2 L1083.0,403.6 L1083.0,402.5 L1083.1,388.0 L1083.1,385.8 L1083.2,374.6 L1083.4,353.5 L1083.4,350.1 L1083.5,341.2 L1083.5,334.5 L1083.6,333.4 L1083.6,332.3 L1083.7,325.6 L1083.7,321.1 L1083.8,318.9 L1083.8,317.8 L1083.9,316.7 L1083.9,313.3 L1084.0,311.1 L1084.0,308.9" fill="none" stroke="#ff7f0e" stroke-width="1.1" opacity="0.85"/><text x="616" y="572" font-size="11" fill="#888">time 0..418 s — altitude (blue) &amp; roll (orange)</text></svg>