<svg xmlns="http://www.w3.org/2000/svg" width="1140" height="600" font-family="sans-serif" font-size="13"><rect width="1140" height="600" fill="white"/><text x="20" y="26" font-size="15" fill="#333">Coludo flight</text><rect x="20" y="40" width="540" height="540" fill="#fbfbfb" stroke="#ddd"/><rect x="69" y="293" width="302" height="65" fill="#cde" stroke="#369" opacity="0.7"/><text x="69" y="288" fill="#369" font-size="12">landing zone</text><circle cx="260" cy="395" r="5" fill="black"/><text x="268" y="399" font-size="12">pad</text><path d="M260.8,394.5 L260.8,394.5 L260.8,394.5 L260.8,394.5 L260.8,394.5 L260.8,394.5 L260.8,394.5 L260.8,394.5 L260.8,394.5 L260.8,394.5 L260.8,394.5 L260.8,394.5 L260.8,394.5 L260.8,394.5 L260.8,394.5 L260.8,394.5 L260.8,394.5 L260.8,394.5 L260.8,394.5 L260.8,394.5 L260.8,394.5 L260.8,394.5 L260.8,394.5 L260.8,394.5 L260.8,394.5 L260.8,394.5 L260.8,394.5 L260.8,394.5 L260.8,394.5 L260.8,394.5 L260.8,394.5 L260.8,394.5 L260.8,394.5 L260.8,394.5 L260.8,394.5 L260.8,394.5 L260.8,394.5 L260.8,394.5 L260.8,394.5 L260.8,394.5 L260.8,394.5 L260.8,394.5 L260.8,394.5 L260.8,394.5 L260.8,394.5 L260.8,394.5 L260.8,394.5 L260.8,394.5 L260.8,394.5 L260.8,394.5 L260.8,394.5 L260.8,394.5 L260.8,394.5 L260.8,394.5 L260.8,394.5 L260.8,394.5 L260.8,394.5 L260.8,394.5 L260.8,394.5 L260.8,394.5 L260.8,394.5 L260.8,394.5 L260.8,394.5 L260.8,394.5 L260.8,394.5 L260.8,394.5 L260.8,394.5 L260.8,394.5 L260.8,394.5 L260.8,394.5 L260.8,394.5 L261.8,392.7 L262.4,390.5 L264.1,388.3 L265.7,385.8 L267.0,384.4 L267.3,381.9 L268.9,380.1 L272.2,377.9 L272.2,376.1 L273.8,374.0 L275.4,372.2 L277.4,370.4 L278.6,368.6 L281.9,366.4 L282.5,364.6 L283.5,362.8 L286.8,361.4 L287.7,359.6 L290.0,357.8 L291.6,356.4 L293.2,354.6 L294.9,353.1 L298.1,351.3 L299.4,349.5 L301.4,348.1 L303.0,346.3 L304.6,344.5 L306.2,342.7 L307.8,340.9 L309.5,339.1 L311.1,337.3 L312.7,335.2 L314.3,333.4 L315.9,330.8 L317.6,329.0 L319.2,326.5 L320.2,324.7 L320.8,322.6 L322.4,320.4 L324.1,318.3 L325.4,316.1 L325.7,313.2 L325.7,311.1 L327.3,308.9 L328.9,306.8 L328.9,303.9 L329.2,302.1 L329.2,299.2 L330.5,296.7 L330.5,294.5 L332.2,292.0 L332.2,288.8 L332.2,285.9 L332.2,283.8 L333.8,281.3 L333.8,278.7 L333.8,275.9 L333.8,274.1 L334.4,271.2 L334.4,268.3 L335.4,266.5 L335.4,264.4 L337.0,261.5 L337.0,259.7 L338.6,256.8 L339.6,254.7 L339.6,252.1 L340.3,250.3 L341.9,247.5 L343.5,245.7 L345.1,243.5 L345.5,241.4 L346.8,239.2 L348.4,237.0 L350.0,235.3 L351.3,233.1 L351.6,230.9 L354.9,229.1 L355.2,227.3 L356.5,225.2 L359.7,223.0 L360.4,222.0 L363.0,220.2 L364.6,218.4 L367.5,216.6 L367.8,215.5 L371.1,213.7 L371.4,212.3 L374.3,210.8 L375.9,209.4 L377.6,207.9 L380.8,207.2 L382.4,205.8 L384.1,204.7 L386.3,203.3 L388.9,202.2 L392.2,201.1 L393.8,200.4 L397.0,199.3 L397.4,198.6 L400.3,197.5 L402.5,196.8 L405.1,196.1 L407.1,195.4 L410.0,194.6 L412.3,194.3 L414.9,193.6 L418.1,193.2 L419.7,193.2 L423.0,192.8 L424.6,192.5 L427.8,192.5 L429.5,192.1 L432.7,192.1 L434.3,192.1 L437.6,192.5 L440.2,192.5 L442.4,192.8 L445.4,192.8 L447.3,193.2 L452.2,193.9 L455.1,194.3 L457.0,195.0 L460.3,195.7 L461.9,196.4 L463.5,197.2 L464.8,197.9 L468.4,199.0 L471.3,200.0 L473.2,200.8 L475.2,201.8 L476.5,202.9 L479.7,204.3 L481.4,205.4 L484.6,206.9 L486.2,207.9 L487.8,209.4 L491.1,210.8 L491.4,212.6 L494.3,214.0 L497.2,215.5 L497.6,216.9 L500.8,219.1 L501.1,220.5 L502.4,222.7 L505.7,224.1 L507.6,226.3 L507.3,228.1 L510.5,229.9 L512.2,231.7 L512.2,233.8 L513.8,236.0 L515.4,238.1 L517.0,240.3 L517.4,242.4 L518.6,244.6 L520.3,246.8 L521.9,248.9 L522.5,251.8 L523.5,255.7 L525.1,258.3 L525.1,260.8 L526.8,263.3 L527.1,265.8 L527.1,268.0 L527.1,270.8 L528.4,273.3 L528.4,275.5 L530.0,281.6 L530.0,284.1 L530.0,286.6 L530.0,289.2 L530.0,292.0 L530.0,294.2 L530.0,296.7 L530.0,299.2 L530.0,302.1 L528.4,308.2 L528.4,311.1 L527.1,312.9 L527.1,315.7 L526.8,318.6 L526.8,320.4 L525.1,323.3 L525.1,325.5 L523.5,327.2 L523.5,330.1 L521.9,333.7 L521.9,336.2 L520.3,338.7 L518.6,340.5 L517.4,343.1 L517.0,345.2 L515.4,347.7 L513.8,349.5 L512.2,352.0 L512.2,353.8 L508.9,357.8 L507.3,359.6 L507.6,362.1 L505.7,363.5 L502.4,365.7 L501.1,367.5 L500.8,369.7 L499.2,371.1 L497.2,373.2 L495.9,375.0 L491.4,378.3 L491.1,379.7 L489.5,381.5 L486.2,383.3 L484.6,385.1 L483.0,386.5 L481.0,388.0 L479.7,389.8 L476.5,391.2 L474.9,392.7 L471.6,394.8 L470.0,396.2 L466.8,397.7 L465.1,398.8 L463.5,399.8 L460.3,400.9 L458.6,402.0 L455.4,403.1 L453.8,404.2 L450.5,405.2 L447.3,406.7 L445.4,407.4 L444.1,408.1 L440.8,409.2 L439.2,410.3 L435.9,411.0 L435.0,411.7 L431.1,412.8 L429.1,413.5 L426.2,414.2 L423.0,415.3 L419.7,416.0 L418.1,416.7 L414.9,417.5 L412.3,418.2 L410.0,418.5 L407.1,418.9 L405.1,419.6 L402.5,420.0 L400.3,420.7 L397.0,421.4 L393.8,421.8 L392.2,422.1 L388.9,422.5 L386.3,422.8 L384.1,423.2 L381.1,423.6 L379.2,424.3 L377.9,424.6 L374.3,425.0 L369.5,425.7 L367.5,426.4 L364.6,426.4 L361.4,426.8 L359.7,427.2 L356.5,427.5 L354.9,427.5 L351.6,427.9 L350.0,427.9 L343.5,427.9 L340.3,427.9 L338.6,427.9 L335.4,427.9 L333.8,427.9 L330.5,427.9 L328.9,427.5 L325.7,427.5 L324.1,427.2 L320.8,427.2 L315.9,426.4 L313.7,426.1 L311.1,425.7 L308.5,425.4 L306.2,425.0 L303.3,424.6 L301.4,423.9 L299.4,423.2 L296.5,422.8 L290.0,421.4 L287.7,420.7 L285.1,420.3 L282.5,419.6 L280.3,418.9 L277.4,418.5 L275.4,417.8 L272.2,417.5 L270.5,416.7 L264.1,414.9 L261.8,414.6 L259.2,413.9 L256.6,413.1 L254.3,412.4 L251.4,411.3 L249.5,410.6 L246.2,409.9 L244.6,409.2 L238.1,407.0 L235.8,406.0 L233.2,404.9 L230.6,403.8 L230.0,402.7 L226.8,401.6 L225.1,400.6 L221.9,399.5 L220.3,398.0 L213.8,394.5 L212.2,393.0 L209.9,392.3 L207.3,390.5 L205.7,389.4 L204.1,387.6 L200.8,386.2 L199.5,384.7 L197.6,383.3 L192.7,379.0 L189.5,377.6 L189.1,375.8 L186.2,374.3 L183.9,372.5 L183.0,371.1 L179.7,369.7 L178.8,367.9 L176.5,366.1 L171.6,362.1 L170.0,360.7 L167.1,358.9 L165.1,357.1 L163.5,355.6 L161.9,354.2 L160.3,352.8 L158.0,351.0 L155.4,349.5 L150.5,345.2 L148.9,343.4 L147.0,341.6 L145.7,340.2 L142.4,338.4 L140.5,336.6 L139.2,334.8 L137.6,333.4 L135.9,331.6 L131.1,326.2 L129.5,324.4 L127.8,322.9 L125.6,320.8 L124.6,319.0 L123.0,317.2 L121.0,315.0 L119.7,313.2 L118.1,311.1 L113.2,305.7 L111.6,303.9 L111.3,302.1 L110.0,300.3 L106.8,297.8 L106.1,296.3 L105.1,294.2 L101.9,292.0 L100.3,290.2 L97.0,284.8 L94.4,282.7 L93.8,281.3 L92.2,279.1 L90.5,276.9 L88.9,275.1 L87.3,273.3 L85.7,271.5 L84.1,269.4 L79.2,264.4 L77.6,262.2 L73.0,258.6 L72.7,257.2 L69.5,255.0 L68.5,253.2 L66.2,251.8 L64.6,250.0 L59.7,245.3 L58.1,243.5 L56.5,242.4 L53.6,239.6 L50.0,237.0" fill="none" stroke="#1f77b4" stroke-width="1.7" opacity="0.85"/><circle cx="50" cy="237" r="4.5" fill="#1f77b4"/><text x="28" y="572" font-size="11" fill="#888">ground track — m from pad (N up)</text><rect x="580" y="40" width="540" height="540" fill="#fbfbfb" stroke="#ddd"/><text x="586" y="54" fill="#1f77b4" font-size="11">alt 417</text><text x="586" y="558" fill="#1f77b4" font-size="11">-100</text><path d="M1057.1,452.3 L1057.2,451.4 L1057.2,450.8 L1057.2,452.2 L1057.2,449.7 L1057.3,452.0 L1057.3,450.5 L1057.3,450.7 L1057.3,449.6 L1057.4,452.1 L1057.4,450.2 L1057.4,449.9 L1057.4,446.5 L1057.4,447.8 L1057.5,444.8 L1057.5,444.1 L1057.5,444.7 L1057.5,449.6 L1057.5,443.7 L1057.6,442.4 L1057.6,447.2 L1057.6,437.6 L1057.6,439.3 L1057.7,438.0 L1057.7,444.4 L1057.7,439.1 L1057.7,441.4 L1057.7,431.4 L1057.8,435.9 L1057.8,433.7 L1057.8,433.5 L1057.8,429.7 L1057.9,428.8 L1057.9,434.6 L1057.9,421.1 L1057.9,424.0 L1057.9,422.3 L1058.0,424.3 L1058.0,427.9 L1058.0,433.5 L1058.0,436.1 L1058.0,435.4 L1058.1,418.4 L1058.1,416.6 L1058.1,434.5 L1058.1,411.1 L1058.2,432.1 L1058.2,416.1 L1058.2,424.9 L1058.2,420.5 L1058.2,407.8 L1058.3,389.3 L1058.3,426.3 L1058.3,378.0 L1058.3,396.7 L1058.3,398.0 L1058.4,382.9 L1058.4,401.8 L1058.4,359.4 L1058.4,358.5 L1058.5,412.9 L1058.5,416.6 L1058.5,374.8 L1058.5,402.8 L1058.5,396.0 L1058.6,353.3 L1058.6,353.9 L1058.6,411.4 L1058.6,376.2 L1058.7,323.7 L1058.7,362.0 L1058.7,391.5 L1058.7,386.6 L1058.7,381.4 L1058.8,371.0 L1058.8,311.1 L1058.8,349.9 L1058.8,368.0 L1058.8,319.7 L1058.9,296.1 L1058.9,393.7 L1058.9,383.9 L1058.9,370.0 L1059.0,320.7 L1059.0,331.3 L1059.0,309.2 L1059.0,321.9 L1059.0,308.5 L1059.1,357.5 L1059.1,277.8 L1059.1,320.7 L1059.1,335.8 L1059.2,273.2 L1059.2,344.9 L1059.2,343.5 L1059.2,365.0 L1059.3,257.8 L1059.3,270.3 L1059.3,284.6 L1059.3,339.0 L1059.3,334.6 L1059.4,305.3 L1059.4,232.1 L1059.4,205.7 L1059.4,227.9 L1059.5,244.7 L1059.5,300.6 L1059.5,346.9 L1059.5,284.5 L1059.5,181.9 L1059.6,185.1 L1059.6,228.7 L1059.6,300.2 L1059.6,190.8 L1059.7,255.0 L1059.7,317.4 L1059.7,346.0 L1059.7,299.2 L1059.7,201.1 L1059.8,325.7 L1059.8,347.5 L1059.8,313.7 L1059.8,295.5 L1059.9,226.5 L1059.9,343.6 L1059.9,334.7 L1059.9,332.7 L1059.9,217.0 L1060.0,153.3 L1060.0,150.4 L1060.0,141.6 L1060.0,192.2 L1060.0,220.5 L1060.1,264.5 L1060.1,187.8 L1060.1,244.7 L1060.1,313.7 L1060.2,328.8 L1060.2,282.9 L1060.2,116.4 L1060.2,153.4 L1060.2,212.5 L1060.3,152.6 L1060.3,137.0 L1060.3,132.1 L1060.3,111.6 L1060.4,320.0 L1060.4,240.2 L1060.4,163.4 L1060.4,113.0 L1060.4,184.9 L1060.5,286.7 L1060.5,318.9 L1060.5,331.4 L1060.5,271.0 L1060.6,315.8 L1060.6,209.7 L1060.6,305.0 L1060.6,165.5 L1060.7,136.6 L1060.7,257.1 L1060.7,123.7 L1060.7,146.9 L1060.7,161.3 L1060.8,113.5 L1060.8,229.5 L1060.8,183.7 L1060.8,322.9 L1060.8,308.5 L1060.9,213.8 L1060.9,113.6 L1060.9,287.6 L1060.9,172.6 L1061.0,84.5 L1061.0,229.5 L1061.0,298.9 L1061.0,81.0 L1061.0,89.2 L1061.1,217.3 L1061.1,93.9 L1061.1,270.9 L1061.1,120.7 L1061.2,260.7 L1061.2,205.2 L1061.2,284.4 L1061.2,85.4 L1061.3,104.5 L1061.3,245.4 L1061.3,230.2 L1061.3,305.5 L1061.3,275.1 L1061.4,223.5 L1061.4,254.7 L1061.4,96.6 L1061.4,314.7 L1061.5,212.4 L1061.5,157.9 L1061.5,244.5 L1061.5,323.9 L1061.5,210.8 L1061.6,147.3 L1061.6,277.6 L1061.6,148.4 L1061.6,289.5 L1061.6,177.1 L1061.7,311.9 L1061.7,76.0 L1061.7,241.0 L1061.8,113.7 L1061.8,224.8 L1061.8,118.6 L1061.8,228.4 L1061.8,304.0 L1061.9,238.3 L1061.9,191.6 L1061.9,235.0 L1061.9,77.6 L1061.9,243.3 L1062.0,316.8 L1062.0,284.9 L1062.0,286.7 L1062.0,311.5 L1062.1,217.6 L1062.1,117.1 L1062.1,185.5 L1062.1,118.9 L1062.1,249.6 L1062.2,144.7 L1062.2,293.1 L1062.2,135.1 L1062.2,196.9 L1062.3,194.3 L1062.3,174.1 L1062.3,117.4 L1062.3,82.0 L1062.4,192.7 L1062.4,212.0 L1062.4,312.7 L1062.4,152.1 L1062.4,313.4 L1062.5,111.4 L1062.5,248.8 L1062.5,226.6 L1062.5,233.6 L1062.5,196.6 L1062.6,318.0 L1062.6,176.2 L1062.6,238.7 L1062.6,154.6 L1062.7,183.2 L1062.7,318.7 L1062.7,185.8 L1062.7,309.1 L1062.8,211.5 L1062.8,175.1 L1062.8,263.2 L1062.8,178.1 L1062.8,251.4 L1062.9,204.3 L1062.9,218.8 L1062.9,103.7 L1062.9,305.7 L1063.0,278.8 L1063.0,242.6 L1063.0,218.6 L1063.0,167.7 L1063.0,178.0 L1063.1,321.5 L1063.1,219.0 L1063.1,130.3 L1063.1,237.5 L1063.1,293.0 L1063.2,293.5 L1063.2,129.4 L1063.2,193.2 L1063.3,143.9 L1063.3,132.5 L1063.3,265.0 L1063.3,154.2 L1063.3,181.1 L1063.4,146.0 L1063.4,158.6 L1063.4,141.4 L1063.4,270.4 L1063.4,215.2 L1063.5,300.6 L1063.5,245.3 L1063.5,203.4 L1063.5,184.4 L1063.6,304.2 L1063.6,320.9 L1063.6,103.8 L1063.6,133.2 L1063.6,235.0 L1063.7,153.0 L1063.7,332.2 L1063.7,113.4 L1063.8,204.1 L1063.8,299.8 L1063.8,254.7 L1063.8,213.2 L1063.9,289.2 L1063.9,98.7 L1063.9,151.6 L1063.9,117.2 L1063.9,189.5 L1064.0,151.7 L1064.0,334.2 L1064.0,195.3 L1064.0,314.9 L1064.0,198.0 L1064.1,152.8 L1064.1,279.9 L1064.1,129.8 L1064.1,175.5 L1064.2,119.5 L1064.2,323.4 L1064.2,196.8 L1064.2,121.2 L1064.2,326.2 L1064.3,124.8 L1064.3,212.7 L1064.3,238.9 L1064.4,237.5 L1064.4,258.6 L1064.4,129.0 L1064.4,177.6 L1064.5,152.5 L1064.5,281.1 L1064.5,113.5 L1064.5,245.5 L1064.5,202.3 L1064.6,285.4 L1064.6,298.6 L1064.6,196.8 L1064.6,225.7 L1064.7,297.3 L1064.7,167.0 L1064.7,279.1 L1064.7,154.9 L1064.7,225.4 L1064.8,281.5 L1064.8,296.3 L1064.8,121.8 L1064.9,197.1 L1064.9,192.0 L1064.9,317.0 L1064.9,240.5 L1065.0,180.7 L1065.0,222.3 L1065.0,317.7 L1065.0,163.8 L1065.0,268.3 L1065.1,210.6 L1065.1,185.8 L1065.1,164.2 L1065.1,315.2 L1065.1,132.1 L1065.2,165.6 L1065.2,302.8 L1065.2,193.4 L1065.2,228.6 L1065.3,291.2 L1065.3,238.7 L1065.3,257.5 L1065.3,324.0 L1065.4,184.6 L1065.4,297.3 L1065.4,345.4 L1065.4,159.8 L1065.5,128.9 L1065.5,226.2 L1065.5,130.2 L1065.5,334.5 L1065.6,208.1 L1065.6,288.3 L1065.6,250.5 L1065.6,165.0 L1065.6,178.4 L1065.7,331.5 L1065.7,285.8 L1065.7,159.4 L1065.7,200.2 L1065.7,149.7 L1065.8,284.2 L1065.8,199.1 L1065.8,303.9 L1065.8,276.9 L1065.9,327.0 L1065.9,273.3 L1065.9,201.2 L1066.0,339.4 L1066.0,343.7 L1066.0,246.7 L1066.0,205.2 L1066.0,207.0 L1066.1,340.1 L1066.1,264.2 L1066.1,303.4 L1066.1,235.1 L1066.2,150.0 L1066.2,305.3 L1066.2,346.3 L1066.2,271.7 L1066.2,340.1 L1066.3,193.5 L1066.3,177.6 L1066.3,246.3 L1066.3,254.5 L1066.3,223.9 L1066.4,195.5 L1066.4,267.8 L1066.5,171.5 L1066.5,317.6 L1066.5,293.2 L1066.5,307.5 L1066.5,281.8 L1066.6,223.8 L1066.6,155.8 L1066.6,277.7 L1066.6,192.9 L1066.7,161.9 L1066.7,320.9 L1066.7,171.8 L1066.7,279.3 L1066.7,320.0 L1066.8,163.2 L1066.8,178.0 L1066.8,291.1 L1066.8,269.2 L1066.8,319.4 L1066.9,287.7 L1066.9,348.9 L1066.9,239.5 L1066.9,285.4 L1067.0,336.0 L1067.0,328.2 L1067.0,264.6 L1067.1,244.3 L1067.1,335.7 L1067.1,353.3 L1067.1,240.6 L1067.1,333.9 L1067.2,200.0 L1067.2,279.9 L1067.2,296.5 L1067.2,306.7 L1067.3,270.8 L1067.3,173.8 L1067.3,252.2 L1067.3,264.1 L1067.3,216.8 L1067.4,235.9 L1067.4,174.6 L1067.4,218.4 L1067.4,248.7 L1067.5,252.5 L1067.5,282.1 L1067.5,352.1 L1067.6,322.9 L1067.6,343.7 L1067.6,339.8 L1067.6,266.9 L1067.6,278.8 L1067.7,324.9 L1067.7,331.2 L1067.7,228.9 L1067.7,224.8 L1067.7,301.6 L1067.8,248.7 L1067.8,327.5 L1067.8,281.2 L1067.8,343.1 L1067.9,255.4 L1067.9,365.1 L1067.9,232.3 L1067.9,298.9 L1067.9,192.7 L1068.0,192.5 L1068.0,265.6 L1068.0,341.4 L1068.1,350.7 L1068.1,336.8 L1068.1,261.8 L1068.1,254.3 L1068.2,255.8 L1068.2,256.1 L1068.2,223.6 L1068.2,234.0 L1068.2,326.6 L1068.3,245.3 L1068.3,297.7 L1068.3,220.6 L1068.3,280.4 L1068.4,364.9 L1068.4,239.0 L1068.4,253.9 L1068.4,308.7 L1068.4,244.4 L1068.5,311.4 L1068.5,249.3 L1068.5,355.4 L1068.5,329.4 L1068.5,294.7 L1068.6,298.6 L1068.6,269.5 L1068.7,370.1 L1068.7,272.6 L1068.7,303.3 L1068.7,281.7 L1068.7,287.7 L1068.8,280.9 L1068.8,289.4 L1068.8,240.9 L1068.8,236.7 L1068.8,361.0 L1068.9,220.1 L1068.9,234.1 L1068.9,360.5 L1068.9,269.8 L1069.0,335.8 L1069.0,237.2 L1069.0,225.9 L1069.0,280.0 L1069.0,248.8 L1069.1,254.3 L1069.1,335.6 L1069.2,350.7 L1069.2,323.8 L1069.2,292.0 L1069.2,237.9 L1069.2,341.3 L1069.3,371.6 L1069.3,336.2 L1069.3,319.8 L1069.3,353.4 L1069.3,262.8 L1069.4,312.2 L1069.4,303.2 L1069.4,250.5 L1069.4,327.3 L1069.5,313.4 L1069.5,297.1 L1069.5,351.3 L1069.5,346.3 L1069.5,330.9 L1069.6,288.5 L1069.6,263.3 L1069.6,289.3 L1069.6,376.1 L1069.7,300.9 L1069.7,372.8 L1069.7,298.0 L1069.8,355.8 L1069.8,326.3 L1069.8,275.4 L1069.8,344.5 L1069.9,369.7 L1069.9,322.5 L1069.9,362.2 L1069.9,276.4 L1069.9,385.0 L1070.0,309.8 L1070.0,333.2 L1070.0,378.2 L1070.0,359.7 L1070.1,373.7 L1070.1,276.8 L1070.1,310.6 L1070.1,325.3 L1070.1,295.0 L1070.2,266.8 L1070.3,290.0 L1070.3,277.5 L1070.3,386.3 L1070.3,343.5 L1070.4,364.2 L1070.4,357.8 L1070.4,286.4 L1070.4,309.5 L1070.4,299.6 L1070.5,345.1 L1070.5,386.8 L1070.5,378.1 L1070.5,386.5 L1070.6,317.7 L1070.6,327.6 L1070.6,328.9 L1070.6,324.3 L1070.6,296.9 L1070.7,280.0 L1070.7,364.4 L1070.7,311.0 L1070.7,309.6 L1070.7,301.6 L1070.8,298.4 L1070.9,282.1 L1070.9,314.5 L1070.9,329.4 L1070.9,369.7 L1071.0,327.0 L1071.0,306.7 L1071.0,337.1 L1071.0,393.3 L1071.0,291.7 L1071.1,314.2 L1071.1,358.0 L1071.1,297.2 L1071.1,283.8 L1071.2,347.3 L1071.2,291.1 L1071.2,391.2 L1071.2,312.7 L1071.2,393.4 L1071.3,372.9 L1071.3,364.2 L1071.3,390.1 L1071.3,315.9 L1071.4,382.3 L1071.5,309.8 L1071.5,380.3 L1071.5,323.0 L1071.5,308.1 L1071.5,334.6 L1071.6,375.8 L1071.6,350.4 L1071.6,313.8 L1071.6,388.1 L1071.6,308.8 L1071.7,390.2 L1071.7,370.5 L1071.7,348.7 L1071.7,347.0 L1071.8,324.9 L1071.8,401.8 L1071.8,318.8 L1071.8,304.7 L1071.8,309.7 L1071.9,369.4 L1071.9,355.8 L1071.9,321.7 L1072.0,317.9 L1072.0,334.3 L1072.1,352.5 L1072.1,345.4 L1072.1,317.3 L1072.1,387.0 L1072.1,394.3 L1072.2,385.7 L1072.2,317.6 L1072.2,403.4 L1072.2,370.6 L1072.2,351.1 L1072.3,331.9 L1072.3,362.2 L1072.3,331.4 L1072.3,374.0 L1072.4,343.8 L1072.4,371.9 L1072.4,400.2 L1072.4,345.6 L1072.4,344.5 L1072.5,393.6 L1072.5,332.1 L1072.6,338.3 L1072.6,331.3 L1072.6,390.0 L1072.7,381.4 L1072.7,363.1 L1072.7,374.5 L1072.7,375.8 L1072.7,345.6 L1072.8,404.0 L1072.8,411.1 L1072.8,375.4 L1072.8,411.8 L1072.9,349.5 L1072.9,395.2 L1072.9,409.0 L1072.9,400.1 L1072.9,339.6 L1073.0,343.2 L1073.0,406.6 L1073.0,339.8 L1073.0,354.8 L1073.0,408.9 L1073.1,346.6 L1073.2,346.9 L1073.2,407.9 L1073.2,391.9 L1073.2,348.4 L1073.3,349.4 L1073.3,364.8 L1073.3,399.3 L1073.3,406.6 L1073.3,394.8 L1073.4,413.1 L1073.4,418.4 L1073.4,397.7 L1073.4,358.3 L1073.5,408.5 L1073.5,389.7 L1073.5,372.6 L1073.5,363.3 L1073.5,403.6 L1073.6,379.0 L1073.6,393.4 L1073.6,407.0 L1073.6,395.1 L1073.7,366.0 L1073.8,419.4 L1073.8,419.1 L1073.8,370.6 L1073.8,369.4 L1073.8,403.9 L1073.9,395.7 L1073.9,419.0 L1073.9,382.5 L1073.9,382.5 L1074.0,367.9 L1074.0,373.5 L1074.0,388.1 L1074.0,407.4 L1074.0,401.7 L1074.1,413.5 L1074.1,411.5 L1074.1,407.8 L1074.1,421.6 L1074.1,385.0 L1074.2,396.7 L1074.2,401.9 L1074.2,380.6 L1074.2,387.8 L1074.3,404.1 L1074.4,398.1 L1074.4,418.7 L1074.4,413.9 L1074.4,395.1 L1074.4,388.1 L1074.5,416.2 L1074.5,384.5 L1074.5,399.9 L1074.5,408.9 L1074.6,390.2 L1074.6,410.3 L1074.6,393.2 L1074.6,390.6 L1074.6,403.9 L1074.7,429.3 L1074.7,411.0 L1074.7,421.7 L1074.7,421.5 L1074.7,401.1 L1074.8,426.1 L1074.8,415.1 L1074.8,392.4 L1074.9,422.1 L1074.9,422.0 L1075.0,423.7 L1075.0,424.9 L1075.0,433.5 L1075.0,420.0 L1075.0,409.6 L1075.1,400.1 L1075.1,406.9 L1075.1,423.8 L1075.1,403.6 L1075.2,404.0 L1075.2,404.4 L1075.2,430.9 L1075.2,434.5 L1075.2,404.5 L1075.3,407.3 L1075.3,406.0 L1075.3,413.3 L1075.3,422.7 L1075.3,426.5 L1075.4,419.4 L1075.4,435.3 L1075.5,430.3 L1075.5,432.5 L1075.5,413.0 L1075.6,426.4 L1075.6,427.5 L1075.6,414.3 L1075.6,438.6 L1075.7,421.5 L1075.7,438.0 L1075.7,423.7 L1075.7,420.3 L1075.7,422.3 L1075.8,438.7 L1075.8,431.5 L1075.8,431.3 L1075.8,427.3 L1075.9,442.7 L1075.9,431.1 L1075.9,435.4 L1075.9,430.2 L1075.9,427.1 L1076.0,426.9 L1076.0,442.9 L1076.1,438.0 L1076.1,431.5 L1076.1,431.9 L1076.1,440.2 L1076.2,436.4 L1076.2,437.0 L1076.2,433.4 L1076.2,433.5 L1076.3,439.4 L1076.3,441.4 L1076.3,438.7 L1076.3,438.1 L1076.3,437.3 L1076.4,437.8 L1076.4,442.5 L1076.4,442.9 L1076.4,437.4 L1076.5,439.8 L1076.5,438.5 L1076.5,439.1 L1076.5,438.8 L1076.5,440.8 L1076.6,443.7 L1076.7,444.3 L1076.7,446.8 L1076.7,444.8 L1076.7,449.8 L1076.8,450.2 L1076.8,449.8 L1076.8,449.7 L1076.8,449.3 L1076.8,448.2 L1076.9,449.9 L1076.9,450.2 L1076.9,449.5 L1076.9,450.2 L1077.0,450.1 L1077.0,450.7 L1077.0,452.2 L1077.0,453.0 L1077.0,451.7 L1077.1,453.4 L1077.1,453.3 L1077.1,453.6 L1077.1,453.3 L1077.1,455.3 L1077.3,455.3 L1077.3,457.3 L1077.3,457.0 L1077.3,459.0 L1077.3,456.2 L1077.4,460.0 L1077.4,457.9 L1077.4,459.1 L1077.4,462.4 L1077.4,457.1 L1077.5,462.4 L1077.5,458.9 L1077.5,459.1 L1077.5,463.8 L1077.6,457.4 L1077.6,465.8 L1077.6,459.3 L1077.6,464.9 L1077.6,458.6 L1077.7,464.1 L1077.7,468.3 L1077.7,467.5 L1077.7,464.1 L1077.8,468.8 L1077.9,463.3 L1077.9,463.7 L1077.9,470.6 L1077.9,468.0 L1077.9,468.2 L1078.0,473.0 L1078.0,472.6 L1078.0,468.8 L1078.0,476.0 L1078.1,465.2 L1078.1,466.3 L1078.1,478.3 L1078.1,467.7 L1078.1,472.2 L1078.2,464.9 L1078.2,468.0 L1078.2,478.1 L1078.2,471.7 L1078.3,478.8 L1078.3,468.6 L1078.3,476.6 L1078.3,484.0 L1078.4,480.9 L1078.4,472.6 L1078.5,468.2 L1078.5,487.3 L1078.5,487.8 L1078.5,473.7 L1078.5,483.8 L1078.6,470.6 L1078.6,488.8 L1078.6,484.0 L1078.6,479.1 L1078.7,468.4 L1078.7,473.4 L1078.7,492.2 L1078.7,486.9 L1078.7,475.4 L1078.8,491.9 L1078.8,492.9 L1078.8,485.3 L1078.8,487.2 L1078.9,485.4 L1078.9,479.4 L1078.9,472.5 L1079.0,498.4 L1079.0,497.8 L1079.1,469.0 L1079.1,491.5 L1079.1,493.3 L1079.1,479.1 L1079.1,473.1 L1079.2,491.0 L1079.2,493.4 L1079.2,475.6 L1079.2,473.2 L1079.2,475.2 L1079.3,471.6 L1079.3,485.4 L1079.3,472.4 L1079.3,490.2 L1079.4,481.1 L1079.4,504.0 L1079.4,474.4 L1079.4,477.0 L1079.4,488.3 L1079.5,499.7 L1079.5,510.9 L1079.6,504.4 L1079.6,512.1 L1079.6,502.2 L1079.7,503.5 L1079.7,503.1 L1079.7,504.8 L1079.7,495.4 L1079.7,516.4 L1079.8,488.6 L1079.8,489.1 L1079.8,513.7 L1079.8,493.2 L1079.9,502.0 L1079.9,484.4 L1079.9,517.7 L1079.9,510.9 L1079.9,497.5 L1080.0,500.2 L1080.0,519.5 L1080.0,513.5 L1080.0,480.4 L1080.0,499.1 L1080.1,485.0 L1080.2,480.9 L1080.2,497.8 L1080.2,515.1 L1080.2,502.4 L1080.3,482.3 L1080.3,524.6 L1080.3,490.7 L1080.3,503.5 L1080.4,508.2 L1080.4,497.7 L1080.4,484.7 L1080.4,515.7 L1080.4,500.8 L1080.5,529.4 L1080.5,502.1 L1080.5,525.4 L1080.5,487.1 L1080.5,514.4 L1080.6,511.5 L1080.6,512.5 L1080.6,495.0 L1080.6,494.2 L1080.7,534.5 L1080.8,529.9 L1080.8,519.3 L1080.8,482.2 L1080.8,497.0 L1080.8,524.7 L1080.9,497.2 L1080.9,514.3 L1080.9,517.5 L1080.9,498.3 L1081.0,513.9 L1081.0,531.7 L1081.0,486.1 L1081.0,530.7 L1081.0,510.2 L1081.1,522.0 L1081.1,526.2 L1081.1,534.9 L1081.1,543.5 L1081.2,491.3 L1081.2,497.7 L1081.2,518.8 L1081.2,536.0 L1081.2,540.2 L1081.3,504.0 L1081.4,504.0 L1081.4,510.6 L1081.4,486.5 L1081.4,518.8 L1081.5,520.7 L1081.5,498.4 L1081.5,536.5 L1081.5,534.7 L1081.5,544.0 L1081.6,536.1 L1081.6,544.0 L1081.6,503.3 L1081.6,544.0 L1081.7,544.0 L1081.7,503.0 L1081.7,489.9 L1081.7,510.7 L1081.7,535.5 L1081.8,543.2 L1081.8,544.0 L1081.8,516.4 L1081.8,504.2 L1081.9,534.2 L1082.0,503.7 L1082.0,544.0 L1082.0,544.0 L1082.0,539.3 L1082.0,536.3 L1082.1,544.0 L1082.1,507.3 L1082.1,544.0 L1082.1,499.8 L1082.1,544.0 L1082.2,513.3 L1082.2,544.0 L1082.2,539.4 L1082.2,505.9 L1082.3,520.0 L1082.3,544.0 L1082.3,500.8 L1082.3,544.0 L1082.3,544.0 L1082.4,494.5 L1082.4,523.4 L1082.4,501.9 L1082.5,498.9 L1082.5,544.0 L1082.6,541.3 L1082.6,544.0 L1082.6,540.5 L1082.6,544.0 L1082.6,544.0 L1082.7,500.1 L1082.7,544.0 L1082.7,536.3 L1082.7,544.0 L1082.8,544.0 L1082.8,535.6 L1082.8,534.9 L1082.8,504.6 L1082.8,537.9 L1082.9,512.6 L1082.9,497.8 L1082.9,544.0 L1082.9,534.8 L1083.0,544.0 L1083.0,524.3 L1083.0,532.8 L1083.1,544.0 L1083.1,540.2 L1083.1,544.0 L1083.2,544.0 L1083.2,544.0 L1083.3,509.0 L1083.3,544.0 L1083.3,544.0 L1083.3,544.0 L1083.4,544.0 L1083.4,532.1 L1083.4,544.0 L1083.4,544.0 L1083.5,515.7 L1083.5,526.6 L1083.5,544.0 L1083.5,501.3 L1083.5,544.0 L1083.6,544.0 L1083.6,544.0 L1083.7,512.5 L1083.7,544.0 L1083.7,526.9 L1083.8,544.0 L1083.8,524.4 L1083.9,543.2 L1083.9,544.0 L1084.0,541.8" fill="none" stroke="#1f77b4" stroke-width="1.4" opacity="0.85"/><text x="1040" y="54" fill="#ff7f0e" font-size="11">roll 25</text><text x="1090" y="558" fill="#ff7f0e" font-size="11">-25</text><path d="M1057.1,310.0 L1057.2,309.1 L1057.2,310.9 L1057.2,305.3 L1057.2,309.1 L1057.3,310.9 L1057.3,310.9 L1057.3,309.1 L1057.3,307.2 L1057.4,309.1 L1057.4,310.9 L1057.4,310.9 L1057.4,310.9 L1057.4,307.2 L1057.5,308.1 L1057.5,307.2 L1057.5,310.9 L1057.5,309.1 L1057.5,304.4 L1057.6,307.2 L1057.6,308.1 L1057.6,308.1 L1057.6,306.3 L1057.7,307.2 L1057.7,304.4 L1057.7,306.3 L1057.7,307.2 L1057.7,310.0 L1057.8,303.5 L1057.8,308.1 L1057.8,307.2 L1057.8,307.2 L1057.9,310.9 L1057.9,310.9 L1057.9,303.5 L1057.9,305.3 L1057.9,306.3 L1058.0,305.3 L1058.0,309.1 L1058.0,305.3 L1058.0,308.1 L1058.0,308.1 L1058.1,305.3 L1058.1,311.9 L1058.1,310.9 L1058.1,310.9 L1058.2,303.5 L1058.2,305.3 L1058.2,311.9 L1058.2,308.1 L1058.2,303.5 L1058.3,309.1 L1058.3,310.0 L1058.3,306.3 L1058.3,310.9 L1058.3,309.1 L1058.4,302.5 L1058.4,310.0 L1058.4,306.3 L1058.4,306.3 L1058.5,310.0 L1058.5,310.0 L1058.5,305.3 L1058.5,304.4 L1058.5,305.3 L1058.6,302.5 L1058.6,304.4 L1058.6,306.3 L1058.6,304.4 L1058.7,306.3 L1058.7,303.5 L1058.7,304.4 L1058.7,308.1 L1058.7,303.5 L1058.8,310.9 L1058.8,308.1 L1058.8,305.3 L1058.8,310.9 L1058.8,310.0 L1058.9,305.3 L1058.9,310.0 L1058.9,303.5 L1058.9,310.9 L1059.0,309.1 L1059.0,306.3 L1059.0,303.5 L1059.0,306.3 L1059.0,307.2 L1059.1,309.1 L1059.1,306.3 L1059.1,306.3 L1059.1,307.2 L1059.2,309.1 L1059.2,306.3 L1059.2,307.2 L1059.2,309.1 L1059.3,308.1 L1059.3,306.3 L1059.3,310.0 L1059.3,307.2 L1059.3,301.6 L1059.4,307.2 L1059.4,301.6 L1059.4,304.4 L1059.4,308.1 L1059.5,303.5 L1059.5,308.1 L1059.5,305.3 L1059.5,307.2 L1059.5,303.5 L1059.6,309.1 L1059.6,301.6 L1059.6,310.9 L1059.6,310.0 L1059.7,305.3 L1059.7,304.4 L1059.7,305.3 L1059.7,305.3 L1059.7,302.5 L1059.8,309.1 L1059.8,308.1 L1059.8,306.3 L1059.8,304.4 L1059.9,310.0 L1059.9,303.5 L1059.9,307.2 L1059.9,303.5 L1059.9,310.0 L1060.0,310.9 L1060.0,302.5 L1060.0,310.0 L1060.0,305.3 L1060.0,303.5 L1060.1,310.9 L1060.1,305.3 L1060.1,302.5 L1060.1,306.3 L1060.2,308.1 L1060.2,310.0 L1060.2,305.3 L1060.2,310.0 L1060.2,301.6 L1060.3,310.9 L1060.3,301.6 L1060.3,309.1 L1060.3,308.1 L1060.4,304.4 L1060.4,308.1 L1060.4,308.1 L1060.4,303.5 L1060.4,310.9 L1060.5,307.2 L1060.5,304.4 L1060.5,301.6 L1060.5,309.1 L1060.6,302.5 L1060.6,308.1 L1060.6,308.1 L1060.6,304.4 L1060.7,303.5 L1060.7,310.0 L1060.7,306.3 L1060.7,305.3 L1060.7,306.3 L1060.8,310.0 L1060.8,302.5 L1060.8,305.3 L1060.8,303.5 L1060.8,305.3 L1060.9,306.3 L1060.9,302.5 L1060.9,300.7 L1060.9,306.3 L1061.0,279.2 L1061.0,252.2 L1061.0,269.9 L1061.0,244.7 L1061.0,189.7 L1061.1,259.7 L1061.1,263.4 L1061.1,201.9 L1061.1,176.7 L1061.2,228.0 L1061.2,241.0 L1061.2,214.0 L1061.2,200.9 L1061.3,245.7 L1061.3,139.4 L1061.3,161.8 L1061.3,243.8 L1061.3,159.9 L1061.4,221.4 L1061.4,213.0 L1061.4,196.3 L1061.4,143.1 L1061.5,108.6 L1061.5,170.2 L1061.5,197.2 L1061.5,131.9 L1061.5,193.5 L1061.6,149.6 L1061.6,191.6 L1061.6,187.9 L1061.6,263.4 L1061.6,247.5 L1061.7,168.3 L1061.7,209.3 L1061.7,196.3 L1061.8,204.7 L1061.8,161.8 L1061.8,191.6 L1061.8,169.2 L1061.8,219.6 L1061.9,200.9 L1061.9,244.7 L1061.9,188.8 L1061.9,244.7 L1061.9,159.9 L1062.0,203.7 L1062.0,207.5 L1062.0,249.4 L1062.0,283.9 L1062.1,298.8 L1062.1,301.6 L1062.1,316.5 L1062.1,349.2 L1062.1,380.9 L1062.2,352.0 L1062.2,342.6 L1062.2,334.2 L1062.2,395.8 L1062.3,376.2 L1062.3,357.5 L1062.3,408.8 L1062.3,435.9 L1062.4,455.4 L1062.4,424.7 L1062.4,394.8 L1062.4,435.9 L1062.4,463.8 L1062.5,416.3 L1062.5,423.7 L1062.5,426.5 L1062.5,510.4 L1062.5,475.9 L1062.6,523.5 L1062.6,462.9 L1062.6,463.8 L1062.6,472.2 L1062.7,482.5 L1062.7,421.9 L1062.7,365.0 L1062.7,429.3 L1062.8,434.0 L1062.8,502.0 L1062.8,394.8 L1062.8,398.6 L1062.8,471.3 L1062.9,480.6 L1062.9,434.9 L1062.9,380.9 L1062.9,395.8 L1063.0,462.9 L1063.0,499.3 L1063.0,447.0 L1063.0,517.0 L1063.0,535.6 L1063.1,527.2 L1063.1,470.4 L1063.1,460.1 L1063.1,526.3 L1063.1,523.5 L1063.2,437.7 L1063.2,385.5 L1063.2,530.0 L1063.3,514.2 L1063.3,517.9 L1063.3,389.2 L1063.3,426.5 L1063.3,449.8 L1063.4,403.2 L1063.4,466.6 L1063.4,411.6 L1063.4,475.9 L1063.4,464.8 L1063.5,383.6 L1063.5,503.0 L1063.5,466.6 L1063.5,472.2 L1063.6,517.0 L1063.6,415.3 L1063.6,518.8 L1063.6,387.4 L1063.6,382.7 L1063.7,390.2 L1063.7,544.0 L1063.7,473.1 L1063.8,439.6 L1063.8,443.3 L1063.8,407.9 L1063.8,344.5 L1063.9,319.3 L1063.9,317.5 L1063.9,285.8 L1063.9,292.3 L1063.9,267.1 L1064.0,239.1 L1064.0,228.9 L1064.0,238.2 L1064.0,174.8 L1064.0,175.8 L1064.1,208.4 L1064.1,187.9 L1064.1,211.2 L1064.1,106.8 L1064.2,171.1 L1064.2,116.1 L1064.2,200.0 L1064.2,224.2 L1064.2,184.1 L1064.3,240.1 L1064.3,159.0 L1064.3,185.1 L1064.4,231.7 L1064.4,228.9 L1064.4,87.2 L1064.4,173.9 L1064.5,186.0 L1064.5,125.4 L1064.5,187.9 L1064.5,180.4 L1064.5,105.8 L1064.6,208.4 L1064.6,87.2 L1064.6,114.2 L1064.6,89.1 L1064.7,159.9 L1064.7,145.9 L1064.7,225.2 L1064.7,83.5 L1064.7,234.5 L1064.8,186.0 L1064.8,180.4 L1064.8,189.7 L1064.9,173.9 L1064.9,222.4 L1064.9,164.6 L1064.9,169.2 L1065.0,154.3 L1065.0,224.2 L1065.0,191.6 L1065.0,103.0 L1065.0,214.0 L1065.1,106.8 L1065.1,144.1 L1065.1,111.4 L1065.1,180.4 L1065.1,200.0 L1065.2,155.2 L1065.2,144.1 L1065.2,91.8 L1065.2,175.8 L1065.3,92.8 L1065.3,109.6 L1065.3,99.3 L1065.3,151.5 L1065.4,119.8 L1065.4,137.5 L1065.4,184.1 L1065.4,233.6 L1065.5,156.2 L1065.5,118.9 L1065.5,186.0 L1065.5,220.5 L1065.6,186.9 L1065.6,206.5 L1065.6,137.5 L1065.6,177.6 L1065.6,152.4 L1065.7,101.2 L1065.7,156.2 L1065.7,133.8 L1065.7,223.3 L1065.7,156.2 L1065.8,91.8 L1065.8,92.8 L1065.8,104.9 L1065.8,237.3 L1065.9,192.5 L1065.9,206.5 L1065.9,203.7 L1066.0,170.2 L1066.0,164.6 L1066.0,144.1 L1066.0,245.7 L1066.0,170.2 L1066.1,217.7 L1066.1,172.0 L1066.1,173.0 L1066.1,234.5 L1066.2,189.7 L1066.2,118.0 L1066.2,189.7 L1066.2,129.1 L1066.2,140.3 L1066.3,198.1 L1066.3,119.8 L1066.3,103.0 L1066.3,98.4 L1066.3,207.5 L1066.4,93.7 L1066.4,182.3 L1066.5,255.9 L1066.5,216.8 L1066.5,210.2 L1066.5,153.4 L1066.5,166.4 L1066.6,193.5 L1066.6,143.1 L1066.6,173.9 L1066.6,227.0 L1066.7,228.9 L1066.7,212.1 L1066.7,150.6 L1066.7,214.9 L1066.7,145.9 L1066.8,145.9 L1066.8,79.7 L1066.8,218.6 L1066.8,152.4 L1066.8,152.4 L1066.9,135.7 L1066.9,122.6 L1066.9,216.8 L1066.9,198.1 L1067.0,222.4 L1067.0,145.0 L1067.0,166.4 L1067.1,174.8 L1067.1,214.9 L1067.1,181.3 L1067.1,195.3 L1067.1,146.9 L1067.2,196.3 L1067.2,173.0 L1067.2,106.8 L1067.2,132.9 L1067.3,173.0 L1067.3,85.3 L1067.3,145.0 L1067.3,97.4 L1067.3,94.6 L1067.4,135.7 L1067.4,111.4 L1067.4,203.7 L1067.4,172.0 L1067.5,118.9 L1067.5,149.6 L1067.5,206.5 L1067.6,205.6 L1067.6,175.8 L1067.6,175.8 L1067.6,104.9 L1067.6,90.0 L1067.7,163.6 L1067.7,202.8 L1067.7,233.6 L1067.7,185.1 L1067.7,208.4 L1067.8,140.3 L1067.8,214.9 L1067.8,138.5 L1067.8,158.0 L1067.9,87.2 L1067.9,223.3 L1067.9,158.0 L1067.9,180.4 L1067.9,136.6 L1068.0,197.2 L1068.0,159.0 L1068.0,225.2 L1068.1,118.0 L1068.1,117.0 L1068.1,176.7 L1068.1,169.2 L1068.2,76.9 L1068.2,115.2 L1068.2,144.1 L1068.2,173.9 L1068.2,234.5 L1068.3,145.9 L1068.3,213.0 L1068.3,197.2 L1068.3,215.8 L1068.4,234.5 L1068.4,118.9 L1068.4,210.2 L1068.4,88.1 L1068.4,159.0 L1068.5,120.7 L1068.5,181.3 L1068.5,145.9 L1068.5,119.8 L1068.5,164.6 L1068.6,183.2 L1068.6,162.7 L1068.7,84.4 L1068.7,213.0 L1068.7,98.4 L1068.7,183.2 L1068.7,153.4 L1068.8,212.1 L1068.8,222.4 L1068.8,199.1 L1068.8,89.1 L1068.8,92.8 L1068.9,88.1 L1068.9,101.2 L1068.9,147.8 L1068.9,174.8 L1069.0,118.0 L1069.0,131.0 L1069.0,146.9 L1069.0,215.8 L1069.0,204.7 L1069.1,189.7 L1069.1,198.1 L1069.2,88.1 L1069.2,78.8 L1069.2,210.2 L1069.2,172.0 L1069.2,99.3 L1069.3,200.0 L1069.3,163.6 L1069.3,135.7 L1069.3,176.7 L1069.3,169.2 L1069.4,148.7 L1069.4,91.8 L1069.4,144.1 L1069.4,137.5 L1069.5,99.3 L1069.5,139.4 L1069.5,173.9 L1069.5,188.8 L1069.5,90.9 L1069.6,230.8 L1069.6,220.5 L1069.6,100.2 L1069.6,143.1 L1069.7,182.3 L1069.7,107.7 L1069.7,192.5 L1069.8,125.4 L1069.8,91.8 L1069.8,238.2 L1069.8,224.2 L1069.9,98.4 L1069.9,204.7 L1069.9,184.1 L1069.9,121.7 L1069.9,105.8 L1070.0,171.1 L1070.0,205.6 L1070.0,234.5 L1070.0,111.4 L1070.1,211.2 L1070.1,106.8 L1070.1,171.1 L1070.1,228.0 L1070.1,186.9 L1070.2,243.8 L1070.3,105.8 L1070.3,91.8 L1070.3,231.7 L1070.3,76.0 L1070.4,177.6 L1070.4,101.2 L1070.4,192.5 L1070.4,231.7 L1070.4,125.4 L1070.5,176.7 L1070.5,143.1 L1070.5,150.6 L1070.5,175.8 L1070.6,158.0 L1070.6,169.2 L1070.6,242.9 L1070.6,228.0 L1070.6,168.3 L1070.7,123.5 L1070.7,197.2 L1070.7,143.1 L1070.7,243.8 L1070.7,247.5 L1070.8,128.2 L1070.9,199.1 L1070.9,186.9 L1070.9,137.5 L1070.9,138.5 L1071.0,131.9 L1071.0,202.8 L1071.0,102.1 L1071.0,131.9 L1071.0,235.4 L1071.1,141.3 L1071.1,182.3 L1071.1,221.4 L1071.1,160.8 L1071.2,152.4 L1071.2,240.1 L1071.2,182.3 L1071.2,174.8 L1071.2,240.1 L1071.3,117.0 L1071.3,188.8 L1071.3,208.4 L1071.3,201.9 L1071.4,241.0 L1071.5,162.7 L1071.5,188.8 L1071.5,170.2 L1071.5,234.5 L1071.5,200.9 L1071.6,136.6 L1071.6,117.0 L1071.6,173.9 L1071.6,177.6 L1071.6,189.7 L1071.7,183.2 L1071.7,192.5 L1071.7,173.9 L1071.7,233.6 L1071.8,245.7 L1071.8,194.4 L1071.8,173.9 L1071.8,240.1 L1071.8,245.7 L1071.9,206.5 L1071.9,223.3 L1071.9,222.4 L1072.0,120.7 L1072.0,161.8 L1072.1,162.7 L1072.1,244.7 L1072.1,209.3 L1072.1,175.8 L1072.1,139.4 L1072.2,218.6 L1072.2,216.8 L1072.2,191.6 L1072.2,153.4 L1072.2,216.8 L1072.3,175.8 L1072.3,235.4 L1072.3,195.3 L1072.3,208.4 L1072.4,222.4 L1072.4,153.4 L1072.4,229.8 L1072.4,230.8 L1072.4,195.3 L1072.5,120.7 L1072.5,142.2 L1072.6,213.0 L1072.6,226.1 L1072.6,169.2 L1072.7,166.4 L1072.7,213.0 L1072.7,219.6 L1072.7,235.4 L1072.7,211.2 L1072.8,254.1 L1072.8,234.5 L1072.8,191.6 L1072.8,186.9 L1072.9,232.6 L1072.9,214.0 L1072.9,201.9 L1072.9,236.4 L1072.9,152.4 L1073.0,163.6 L1073.0,179.5 L1073.0,222.4 L1073.0,234.5 L1073.0,168.3 L1073.1,217.7 L1073.2,100.2 L1073.2,145.9 L1073.2,173.0 L1073.2,121.7 L1073.3,118.9 L1073.3,223.3 L1073.3,209.3 L1073.3,185.1 L1073.3,178.5 L1073.4,152.4 L1073.4,130.1 L1073.4,132.9 L1073.4,234.5 L1073.5,225.2 L1073.5,164.6 L1073.5,165.5 L1073.5,126.3 L1073.5,159.0 L1073.6,238.2 L1073.6,183.2 L1073.6,228.9 L1073.6,215.8 L1073.6,183.2 L1073.8,317.5 L1073.8,312.8 L1073.8,311.9 L1073.8,313.7 L1073.8,302.5 L1073.9,289.5 L1073.9,281.1 L1073.9,274.6 L1073.9,264.3 L1074.0,275.5 L1074.0,253.1 L1074.0,237.3 L1074.0,261.5 L1074.0,205.6 L1074.1,228.0 L1074.1,186.0 L1074.1,192.5 L1074.1,194.4 L1074.1,213.0 L1074.2,264.3 L1074.2,271.8 L1074.2,283.0 L1074.2,276.4 L1074.3,265.3 L1074.4,170.2 L1074.4,259.7 L1074.4,171.1 L1074.4,269.0 L1074.4,250.3 L1074.5,204.7 L1074.5,248.5 L1074.5,175.8 L1074.5,240.1 L1074.6,220.5 L1074.6,198.1 L1074.6,198.1 L1074.6,199.1 L1074.6,225.2 L1074.7,243.8 L1074.7,215.8 L1074.7,279.2 L1074.7,224.2 L1074.7,241.0 L1074.8,214.9 L1074.8,286.7 L1074.8,279.2 L1074.9,324.0 L1074.9,367.8 L1075.0,329.6 L1075.0,331.4 L1075.0,342.6 L1075.0,348.2 L1075.0,352.0 L1075.1,324.0 L1075.1,331.4 L1075.1,350.1 L1075.1,323.1 L1075.2,319.3 L1075.2,322.1 L1075.2,314.7 L1075.2,307.2 L1075.2,319.3 L1075.3,289.5 L1075.3,307.2 L1075.3,304.4 L1075.3,296.9 L1075.3,307.2 L1075.4,281.1 L1075.4,300.7 L1075.5,259.7 L1075.5,186.9 L1075.5,262.5 L1075.6,152.4 L1075.6,247.5 L1075.6,237.3 L1075.6,228.9 L1075.7,214.9 L1075.7,266.2 L1075.7,238.2 L1075.7,215.8 L1075.7,234.5 L1075.8,216.8 L1075.8,199.1 L1075.8,226.1 L1075.8,188.8 L1075.8,220.5 L1075.9,200.0 L1075.9,234.5 L1075.9,228.0 L1075.9,219.6 L1076.0,226.1 L1076.0,203.7 L1076.1,217.7 L1076.1,230.8 L1076.1,233.6 L1076.1,217.7 L1076.2,182.3 L1076.2,241.9 L1076.2,235.4 L1076.2,240.1 L1076.3,242.9 L1076.3,220.5 L1076.3,267.1 L1076.3,204.7 L1076.3,237.3 L1076.4,265.3 L1076.4,239.1 L1076.4,276.4 L1076.4,276.4 L1076.4,187.9 L1076.5,191.6 L1076.5,202.8 L1076.5,252.2 L1076.5,229.8 L1076.6,239.1 L1076.7,269.9 L1076.7,292.3 L1076.7,282.0 L1076.7,252.2 L1076.8,241.9 L1076.8,262.5 L1076.8,209.3 L1076.8,234.5 L1076.8,203.7 L1076.9,180.4 L1076.9,184.1 L1076.9,238.2 L1076.9,210.2 L1077.0,211.2 L1077.0,207.5 L1077.0,243.8 L1077.0,252.2 L1077.0,208.4 L1077.1,210.2 L1077.1,186.9 L1077.1,227.0 L1077.1,192.5 L1077.1,258.7 L1077.3,367.8 L1077.3,368.7 L1077.3,335.2 L1077.3,318.4 L1077.3,332.4 L1077.4,313.7 L1077.4,296.9 L1077.4,277.4 L1077.4,263.4 L1077.4,282.0 L1077.5,275.5 L1077.5,269.0 L1077.5,297.9 L1077.5,261.5 L1077.6,271.8 L1077.6,299.7 L1077.6,297.9 L1077.6,297.9 L1077.6,283.9 L1077.7,306.3 L1077.7,296.9 L1077.7,296.9 L1077.7,304.4 L1077.8,268.0 L1077.9,244.7 L1077.9,274.6 L1077.9,273.6 L1077.9,278.3 L1077.9,265.3 L1078.0,239.1 L1078.0,266.2 L1078.0,228.0 L1078.0,249.4 L1078.1,257.8 L1078.1,283.0 L1078.1,261.5 L1078.1,277.4 L1078.1,272.7 L1078.2,254.1 L1078.2,274.6 L1078.2,225.2 L1078.2,241.0 L1078.3,223.3 L1078.3,243.8 L1078.3,265.3 L1078.3,272.7 L1078.4,198.1 L1078.4,232.6 L1078.5,132.9 L1078.5,221.4 L1078.5,191.6 L1078.5,243.8 L1078.5,168.3 L1078.6,210.2 L1078.6,197.2 L1078.6,248.5 L1078.6,232.6 L1078.7,209.3 L1078.7,246.6 L1078.7,236.4 L1078.7,127.3 L1078.7,207.5 L1078.8,208.4 L1078.8,235.4 L1078.8,225.2 L1078.8,263.4 L1078.9,244.7 L1078.9,258.7 L1078.9,252.2 L1079.0,178.5 L1079.0,173.9 L1079.0,174.8 L1079.1,187.9 L1079.1,169.2 L1079.1,217.7 L1079.1,146.9 L1079.2,154.3 L1079.2,158.0 L1079.2,244.7 L1079.2,266.2 L1079.2,214.9 L1079.3,262.5 L1079.3,234.5 L1079.3,251.3 L1079.3,205.6 L1079.4,198.1 L1079.4,228.9 L1079.4,269.0 L1079.4,203.7 L1079.4,219.6 L1079.5,220.5 L1079.5,269.9 L1079.6,298.8 L1079.6,284.8 L1079.6,236.4 L1079.7,242.9 L1079.7,290.4 L1079.7,265.3 L1079.7,275.5 L1079.7,260.6 L1079.8,293.2 L1079.8,265.3 L1079.8,288.6 L1079.8,306.3 L1079.9,289.5 L1079.9,298.8 L1079.9,270.8 L1079.9,262.5 L1079.9,283.9 L1080.0,254.1 L1080.0,288.6 L1080.0,297.9 L1080.0,290.4 L1080.0,301.6 L1080.1,295.1 L1080.2,427.5 L1080.2,347.3 L1080.2,383.6 L1080.2,325.8 L1080.3,317.5 L1080.3,342.6 L1080.3,314.7 L1080.3,320.3 L1080.3,360.3 L1080.4,321.2 L1080.4,351.0 L1080.4,341.7 L1080.4,378.1 L1080.5,320.3 L1080.5,329.6 L1080.5,335.2 L1080.5,325.8 L1080.5,308.1 L1080.6,289.5 L1080.6,255.0 L1080.6,282.0 L1080.6,241.0 L1080.7,265.3 L1080.8,158.0 L1080.8,251.3 L1080.8,255.0 L1080.8,151.5 L1080.8,255.9 L1080.9,227.0 L1080.9,276.4 L1080.9,264.3 L1080.9,241.9 L1081.0,204.7 L1081.0,226.1 L1081.0,184.1 L1081.0,183.2 L1081.0,239.1 L1081.1,243.8 L1081.1,279.2 L1081.1,283.0 L1081.1,266.2 L1081.2,274.6 L1081.2,285.8 L1081.2,269.0 L1081.2,270.8 L1081.2,272.7 L1081.3,170.2 L1081.4,186.9 L1081.4,179.5 L1081.4,257.8 L1081.4,280.2 L1081.5,267.1 L1081.5,224.2 L1081.5,241.9 L1081.5,242.9 L1081.5,248.5 L1081.6,280.2 L1081.6,289.5 L1081.6,296.9 L1081.6,308.1 L1081.7,324.0 L1081.7,290.4 L1081.7,312.8 L1081.7,324.0 L1081.7,314.7 L1081.8,286.7 L1081.8,284.8 L1081.8,303.5 L1081.8,297.9 L1081.9,264.3 L1082.0,258.7 L1082.0,238.2 L1082.0,238.2 L1082.0,254.1 L1082.0,250.3 L1082.1,240.1 L1082.1,255.9 L1082.1,281.1 L1082.1,289.5 L1082.1,302.5 L1082.2,320.3 L1082.2,334.2 L1082.2,356.6 L1082.2,373.4 L1082.3,323.1 L1082.3,361.3 L1082.3,341.7 L1082.3,324.0 L1082.3,334.2 L1082.4,367.8 L1082.4,339.8 L1082.4,325.8 L1082.5,209.3 L1082.5,261.5 L1082.6,299.7 L1082.6,319.3 L1082.6,314.7 L1082.6,329.6 L1082.6,319.3 L1082.7,309.1 L1082.7,320.3 L1082.7,365.0 L1082.7,339.8 L1082.8,370.6 L1082.8,338.9 L1082.8,347.3 L1082.8,352.9 L1082.8,357.5 L1082.9,322.1 L1082.9,349.2 L1082.9,351.0 L1082.9,362.2 L1083.0,350.1 L1083.0,342.6 L1083.0,328.6 L1083.1,430.3 L1083.1,380.9 L1083.1,363.1 L1083.2,503.9 L1083.2,399.5 L1083.3,327.7 L1083.3,307.2 L1083.3,304.4 L1083.3,299.7 L1083.4,274.6 L1083.4,289.5 L1083.4,258.7 L1083.4,276.4 L1083.5,287.6 L1083.5,310.9 L1083.5,351.0 L1083.5,373.4 L1083.5,389.2 L1083.6,341.7 L1083.6,352.9 L1083.7,374.3 L1083.7,401.4 L1083.7,460.1 L1083.8,414.4 L1083.8,418.1 L1083.9,423.7 L1083.9,469.4 L1084.0,324.0" fill="none" stroke="#ff7f0e" stroke-width="1.1" opacity="0.85"/><text x="616" y="572" font-size="11" fill="#888">time 0..953 s — altitude (blue) &amp; roll (orange)</text></svg>