<svg xmlns="http://www.w3.org/2000/svg" width="1140" height="600" font-family="sans-serif" font-size="13"><rect width="1140" height="600" fill="white"/><text x="20" y="26" font-size="15" fill="#333">Coludo flight</text><rect x="20" y="40" width="540" height="540" fill="#fbfbfb" stroke="#ddd"/><rect x="50" y="229" width="480" height="103" fill="#cde" stroke="#369" opacity="0.7"/><text x="50" y="224" fill="#369" font-size="12">landing zone</text><circle cx="354" cy="391" r="5" fill="black"/><text x="362" y="395" font-size="12">pad</text><path d="M354.9,390.5 L354.9,390.5 L354.9,390.5 L354.9,390.5 L354.9,390.5 L354.9,390.5 L354.9,390.5 L354.9,390.5 L354.9,390.5 L354.9,390.5 L354.9,390.5 L354.9,390.5 L354.9,390.5 L354.9,390.5 L354.9,390.5 L354.9,390.5 L354.9,390.5 L354.9,390.5 L354.9,390.5 L354.9,390.5 L354.9,390.5 L354.9,390.5 L354.9,390.5 L354.9,390.5 L354.9,390.5 L354.9,390.5 L354.9,390.5 L354.9,390.5 L354.9,390.5 L354.9,390.5 L354.9,390.5 L354.9,390.5 L354.9,390.5 L354.9,390.5 L354.9,390.5 L354.9,390.5 L354.9,390.5 L354.9,390.5 L354.9,390.5 L354.9,390.5 L354.9,390.5 L354.9,390.5 L354.9,390.5 L354.9,390.5 L354.9,390.5 L354.9,390.5 L354.9,390.5 L354.9,390.5 L354.9,390.5 L354.9,390.5 L354.9,390.5 L354.9,390.5 L354.9,390.5 L354.9,390.5 L354.9,390.5 L354.9,390.5 L354.9,390.5 L354.9,390.5 L354.9,390.5 L354.9,390.5 L354.9,390.5 L354.9,390.5 L354.9,390.5 L354.9,390.5 L354.9,390.5 L354.9,390.5 L354.9,390.5 L354.9,390.5 L354.9,389.9 L356.4,388.2 L356.4,387.6 L356.4,386.5 L357.4,384.7 L357.4,383.6 L360.0,382.4 L362.6,381.3 L362.6,380.2 L364.7,379.0 L364.7,377.9 L365.2,376.7 L367.8,376.2 L367.8,375.6 L370.3,374.4 L372.9,373.3 L372.9,372.7 L372.9,371.6 L375.5,371.0 L378.1,369.9 L378.1,369.3 L380.7,368.2 L381.2,367.6 L383.2,366.4 L385.8,365.9 L385.8,365.3 L388.4,364.2 L389.4,364.2 L391.0,363.6 L391.0,362.4 L393.6,361.9 L396.1,361.3 L397.7,360.2 L398.7,359.6 L398.7,359.0 L401.3,358.4 L403.9,357.3 L405.9,356.7 L405.9,356.2 L406.5,355.0 L409.0,354.4" fill="none" stroke="#1f77b4" stroke-width="1.7" opacity="0.85"/><circle cx="409" cy="354" r="4.5" fill="#1f77b4"/><text x="28" y="572" font-size="11" fill="#888">ground track — m from pad (N up)</text><rect x="580" y="40" width="540" height="540" fill="#fbfbfb" stroke="#ddd"/><text x="586" y="54" fill="#1f77b4" font-size="11">alt 345</text><text x="586" y="558" fill="#1f77b4" font-size="11">2</text><path d="M729.9,543.6 L731.6,544.0 L733.0,543.4 L734.9,543.4 L736.4,542.8 L738.1,542.6 L739.8,541.4 L741.5,541.3 L743.2,540.4 L744.9,538.9 L746.3,537.2 L747.7,536.4 L749.4,534.7 L751.1,535.3 L752.8,533.5 L754.5,530.9 L756.2,528.4 L757.8,528.9 L759.1,524.5 L760.7,523.7 L762.4,522.3 L764.1,519.8 L765.8,519.3 L767.5,512.2 L769.2,511.4 L770.9,506.8 L772.6,510.1 L774.3,503.1 L776.0,501.2 L777.7,492.4 L779.2,498.3 L780.6,496.6 L782.3,490.0 L784.0,486.1 L785.7,486.6 L787.1,471.1 L788.8,473.7 L790.2,477.8 L791.9,460.6 L793.6,457.0 L795.3,452.3 L797.0,451.1 L798.7,448.3 L800.1,441.2 L801.5,450.2 L803.2,433.8 L804.9,427.2 L806.6,424.4 L808.0,411.3 L809.5,409.4 L811.1,411.3 L812.8,408.2 L814.5,414.9 L815.9,407.8 L817.4,382.2 L819.1,394.3 L820.8,380.2 L822.5,375.7 L823.9,387.6 L825.3,376.8 L826.7,363.0 L828.1,345.5 L829.5,340.1 L831.2,338.3 L832.7,343.0 L834.3,323.8 L836.0,316.6 L837.7,311.5 L839.4,323.5 L841.1,336.2 L842.8,327.0 L844.5,327.7 L846.2,289.9 L847.9,281.0 L849.6,299.4 L851.3,311.8 L852.8,306.3 L854.4,276.3 L855.9,261.8 L857.5,260.0 L859.0,253.0 L860.7,280.9 L862.1,254.4 L863.8,247.4 L865.5,277.0 L867.2,259.4 L868.6,248.3 L870.3,216.2 L871.7,237.8 L873.4,200.6 L874.8,254.7 L876.6,224.4 L878.2,212.9 L879.7,207.0 L881.3,214.9 L883.0,207.2 L884.7,180.3 L886.2,170.0 L887.6,168.9 L889.3,188.9 L891.0,226.3 L892.6,167.1 L894.3,211.3 L895.8,181.6 L897.2,170.4 L898.9,186.4 L900.6,200.2 L901.9,143.5 L903.4,194.9 L905.1,154.1 L906.8,157.6 L908.5,160.2 L910.0,182.8 L911.4,170.5 L913.0,166.4 L914.7,189.3 L916.4,176.1 L918.1,145.3 L919.8,134.7 L921.3,180.1 L922.7,169.7 L924.1,156.9 L925.8,111.8 L927.2,101.7 L928.6,138.6 L930.0,102.3 L931.7,91.2 L933.4,170.0 L934.9,129.5 L936.3,153.7 L937.9,128.6 L939.6,141.6 L941.3,162.0 L943.0,76.0 L944.7,107.6 L946.4,157.1 L948.1,126.1 L949.8,107.2 L951.5,135.5 L953.2,102.6 L954.9,80.0 L956.6,135.3 L958.3,148.0 L960.0,86.1 L961.7,85.1 L963.4,102.1 L965.1,156.1 L966.8,99.9 L968.5,158.7 L970.2,99.6 L971.9,137.8 L973.6,79.4 L975.3,92.2 L977.0,128.6 L978.7,104.3 L980.4,142.3 L982.1,157.4 L983.8,154.8 L985.5,100.6 L987.2,119.2 L989.1,139.2 L990.4,80.0 L992.0,149.8 L993.7,108.7 L995.4,146.8 L997.1,79.3 L998.8,124.7 L1000.5,158.6 L1002.2,117.8 L1003.9,97.6 L1005.6,162.0 L1007.3,127.0 L1009.0,92.4 L1010.7,146.1 L1012.4,106.6 L1014.1,109.6 L1015.8,157.5 L1017.5,119.6 L1018.7,156.3 L1020.3,100.5 L1022.1,80.6 L1023.5,125.3 L1025.1,134.5 L1026.8,101.6 L1028.5,85.6 L1030.2,97.1 L1031.7,152.6 L1033.3,131.5 L1035.0,90.4 L1036.7,147.5 L1038.4,119.9 L1040.1,86.6 L1041.8,127.4 L1043.5,121.3 L1045.2,122.8 L1048.1,136.8 L1051.2,90.6 L1052.9,157.5 L1054.6,113.7 L1056.3,141.4 L1058.0,147.6 L1059.7,90.2 L1061.4,137.5 L1063.1,97.4 L1064.5,89.8 L1065.9,123.6 L1067.6,135.9 L1069.3,140.8 L1070.7,91.3 L1072.1,159.5 L1073.5,92.5 L1075.2,165.9 L1077.7,108.4 L1078.9,101.3 L1080.6,117.8 L1082.3,173.4 L1084.0,104.9" fill="none" stroke="#1f77b4" stroke-width="1.4" opacity="0.85"/><text x="1040" y="54" fill="#ff7f0e" font-size="11">roll 26</text><text x="1090" y="558" fill="#ff7f0e" font-size="11">-0</text><path d="M729.9,542.2 L731.6,540.4 L733.0,542.2 L734.9,542.2 L736.4,544.0 L738.1,544.0 L739.8,542.2 L741.5,540.4 L743.2,540.4 L744.9,538.6 L746.3,536.8 L747.7,538.6 L749.4,535.0 L751.1,531.4 L752.8,531.4 L754.5,531.4 L756.2,527.9 L757.8,526.1 L759.1,518.9 L760.7,513.5 L762.4,513.5 L764.1,506.3 L765.8,506.3 L767.5,502.8 L769.2,499.2 L770.9,492.0 L772.6,488.4 L774.3,484.8 L776.0,477.7 L777.7,474.1 L779.2,470.5 L780.6,466.9 L782.2,457.9 L783.9,472.3 L785.6,457.9 L787.1,452.6 L788.8,441.8 L790.2,438.2 L791.9,431.0 L793.6,423.9 L795.3,420.3 L797.0,434.6 L798.7,414.9 L800.1,418.5 L801.5,405.9 L803.2,389.8 L804.9,386.2 L806.6,402.3 L808.0,402.3 L809.4,368.3 L811.1,375.4 L812.8,357.5 L814.5,384.4 L815.9,364.7 L817.4,348.6 L819.0,361.1 L820.7,334.2 L822.4,364.7 L823.9,321.7 L825.3,327.0 L826.7,350.3 L828.1,345.0 L829.5,310.9 L831.2,300.1 L832.6,312.7 L834.3,334.2 L836.0,318.1 L837.7,307.3 L839.4,285.8 L841.1,282.2 L842.8,316.3 L844.5,316.3 L846.2,300.1 L847.9,289.4 L849.6,291.2 L851.3,262.5 L852.7,289.4 L854.4,284.0 L855.9,249.9 L857.5,264.3 L859.0,253.5 L860.7,266.1 L862.1,255.3 L863.8,248.1 L865.5,215.9 L867.2,228.4 L868.6,201.5 L870.3,194.3 L871.7,224.8 L873.4,178.2 L874.8,194.3 L876.6,199.7 L878.2,181.8 L879.7,185.4 L881.3,219.4 L883.0,215.9 L884.7,156.7 L886.2,217.7 L887.6,194.3 L889.2,203.3 L890.9,151.3 L892.6,145.9 L894.3,203.3 L895.8,158.5 L897.2,149.5 L898.9,185.4 L900.6,147.7 L901.9,185.4 L903.4,174.6 L905.1,137.0 L906.8,122.6 L908.5,174.6 L909.9,145.9 L911.3,122.6 L913.0,133.4 L914.7,140.6 L916.4,110.1 L918.1,113.7 L919.8,97.5 L921.3,135.2 L922.7,124.4 L924.1,76.0 L925.8,95.7 L927.2,131.6 L928.6,99.3 L930.0,131.6 L931.7,88.6 L933.4,97.5 L934.9,120.8 L936.2,106.5 L937.9,97.5 L939.6,111.9 L941.3,90.3 L943.0,81.4 L944.7,137.0 L946.4,113.7 L948.1,90.3 L949.8,526.1 L951.5,483.0 L953.2,456.1 L954.9,411.3 L956.6,402.3 L958.3,402.3 L960.0,395.2 L961.7,404.1 L963.4,395.2 L965.1,364.7 L966.8,393.4 L968.5,384.4 L970.2,368.3 L971.9,382.6 L973.6,398.8 L975.3,389.8 L977.0,402.3 L978.7,418.5 L980.4,414.9 L982.1,427.4 L983.8,405.9 L985.5,414.9 L987.2,409.5 L989.1,411.3 L990.4,434.6 L992.0,422.1 L993.7,429.2 L995.4,431.0 L997.1,441.8 L998.8,456.1 L1000.5,470.5 L1002.2,472.3 L1003.9,479.4 L1005.6,492.0 L1007.3,490.2 L1009.0,499.2 L1010.7,484.8 L1012.4,499.2 L1014.1,490.2 L1015.8,495.6 L1017.5,493.8 L1018.6,495.6 L1020.3,492.0 L1022.1,497.4 L1023.4,506.3 L1025.1,509.9 L1026.8,492.0 L1028.5,511.7 L1030.2,515.3 L1031.7,520.7 L1033.3,502.8 L1035.0,506.3 L1036.7,506.3 L1038.4,506.3 L1040.1,508.1 L1041.8,526.1 L1043.5,515.3 L1045.2,517.1 L1048.1,536.8 L1051.2,536.8 L1052.9,540.4 L1054.5,540.4 L1056.2,540.4 L1057.9,540.4 L1059.6,542.2 L1061.3,542.2 L1063.0,540.4 L1064.5,542.2 L1065.9,540.4 L1067.6,540.4 L1069.3,542.2 L1070.7,540.4 L1072.1,542.2 L1073.5,542.2 L1075.2,540.4 L1077.6,544.0 L1078.9,540.4 L1080.6,540.4 L1082.3,540.4 L1084.0,540.4" fill="none" stroke="#ff7f0e" stroke-width="1.1" opacity="0.85"/><text x="616" y="572" font-size="11" fill="#888">time 0..17 s — altitude (blue) &amp; roll (orange)</text></svg>