<svg xmlns="http://www.w3.org/2000/svg" width="1140" height="600" font-family="sans-serif" font-size="13"><rect width="1140" height="600" fill="white"/><text x="20" y="26" font-size="15" fill="#333">Coludo flight</text><rect x="20" y="40" width="540" height="540" fill="#fbfbfb" stroke="#ddd"/><rect x="50" y="290" width="121" height="26" fill="#cde" stroke="#369" opacity="0.7"/><text x="50" y="285" fill="#369" font-size="12">landing zone</text><circle cx="127" cy="330" r="5" fill="black"/><text x="135" y="334" font-size="12">pad</text><path d="M127.0,330.3 L127.0,330.3 L127.0,330.3 L127.0,330.3 L127.0,330.3 L127.0,330.3 L127.0,330.3 L127.0,330.3 L127.0,330.3 L127.0,330.3 L127.0,330.3 L127.0,330.3 L127.0,330.3 L127.0,330.3 L127.0,330.3 L127.0,330.3 L127.0,330.3 L127.0,330.3 L127.0,330.3 L127.0,330.3 L127.0,330.3 L127.0,330.3 L127.0,330.3 L127.0,330.3 L127.0,330.3 L127.0,330.3 L127.0,330.3 L127.0,330.3 L127.0,330.3 L127.0,330.3 L127.0,330.3 L127.0,330.3 L127.0,330.3 L127.0,330.3 L127.0,330.3 L127.0,330.3 L127.0,330.3 L127.0,330.3 L127.0,330.3 L127.0,330.3 L127.0,330.3 L127.0,330.3 L127.0,330.3 L127.0,330.3 L127.0,330.3 L127.0,330.3 L127.0,330.3 L127.0,330.3 L127.0,330.3 L127.0,330.3 L127.0,330.3 L127.0,330.3 L127.0,330.3 L127.0,330.3 L127.0,330.3 L127.0,330.3 L127.0,330.3 L127.0,330.3 L127.0,330.3 L127.0,330.3 L127.0,330.3 L127.0,330.3 L127.0,330.3 L127.0,330.3 L127.0,330.3 L127.0,330.3 L127.0,330.3 L127.0,330.3 L127.0,330.3 L127.0,330.3 L127.0,330.3 L127.0,330.3 L127.0,330.3 L127.0,330.3 L127.0,330.3 L127.0,330.3 L127.0,330.3 L127.0,330.3 L127.0,330.3 L127.0,330.3 L127.0,330.3 L127.0,330.3 L127.4,329.6 L127.6,328.9 L128.3,328.0 L128.9,327.0 L129.4,326.4 L129.6,325.4 L130.2,324.5 L130.9,323.7 L131.5,323.0 L132.2,322.1 L132.8,321.2 L133.5,320.5 L133.6,319.6 L134.1,318.6 L135.4,317.9 L135.7,317.3 L136.1,316.5 L136.7,315.6 L137.8,314.7 L138.0,314.1 L138.7,313.3 L139.3,312.6 L140.0,311.8 L140.6,311.1 L141.3,310.3 L142.5,309.5 L142.6,308.7 L143.2,308.1 L144.0,307.4 L144.5,306.6 L145.8,305.8 L146.1,305.2 L146.5,304.5 L147.8,303.8 L148.2,303.0 L149.1,302.5 L150.4,301.9 L150.8,301.2 L151.7,300.6 L152.9,300.0 L153.0,299.6 L154.3,299.0 L154.4,298.6 L155.6,298.0 L156.5,297.6 L157.6,297.0 L158.6,296.7 L159.5,296.3 L160.2,295.8 L161.5,295.4 L162.8,295.0 L163.4,294.7 L164.7,294.4 L165.4,294.1 L166.7,293.9 L167.3,293.8 L168.6,293.5 L169.8,293.4 L170.6,293.2 L171.4,293.1 L172.5,292.9 L174.0,292.9 L174.5,292.8 L175.3,292.8 L176.4,292.8 L177.4,292.8 L177.7,292.8 L179.7,292.8 L180.0,292.8 L181.7,292.9 L181.8,293.1 L183.6,293.2 L183.9,293.4 L185.6,293.5 L185.7,293.7 L186.9,293.9 L187.8,293.9 L188.8,294.2 L190.1,294.5 L190.8,294.7 L192.1,295.0 L192.7,295.2 L194.0,295.5 L194.7,295.8 L196.0,296.3 L196.9,296.5 L197.9,296.8 L198.6,297.1 L199.2,297.4 L200.5,297.7 L201.2,298.1 L202.5,298.4 L203.1,298.9 L204.4,299.1 L205.1,299.6 L205.7,299.9 L207.0,300.2 L207.7,300.4 L209.0,300.9 L209.7,301.2 L211.0,301.6 L211.6,302.0 L212.3,302.5 L213.0,302.9 L214.2,303.0 L215.4,303.5 L216.2,303.9 L217.5,304.3 L217.5,304.8 L218.8,305.2 L219.5,305.5 L220.7,305.8 L221.9,306.2 L222.7,306.6 L223.5,306.9 L224.6,307.2 L225.3,307.7 L225.9,307.9 L227.2,308.2 L227.9,308.5 L229.2,308.7 L230.0,308.8 L231.1,309.1 L232.1,309.4 L233.1,309.5 L233.9,309.7 L235.0,309.8 L236.0,310.1 L237.0,310.3 L238.3,310.3 L239.0,310.4 L240.3,310.5 L240.9,310.7 L242.2,310.7 L242.9,310.8 L244.2,310.8 L244.8,310.8 L246.1,311.0 L247.2,311.0 L248.1,311.0 L249.2,311.1 L250.0,311.1 L251.1,311.1 L252.0,311.1 L253.1,311.1 L253.9,311.1 L255.0,311.0 L255.9,311.0 L257.2,311.0 L257.8,310.8 L259.1,310.8 L259.8,310.7 L261.1,310.7 L261.7,310.5 L263.0,310.5 L263.7,310.4 L265.0,310.3 L265.9,310.3 L267.0,310.1 L268.0,310.0 L268.9,310.0 L270.1,309.8 L270.9,309.7 L271.6,309.5 L272.8,309.4 L274.1,309.1 L275.4,308.8 L276.3,308.7 L278.4,308.4 L279.3,308.1 L280.5,307.8 L281.3,307.7 L282.1,307.4 L283.2,307.1 L284.5,306.8 L285.2,306.5 L286.5,306.2 L288.8,305.6 L289.7,305.3 L290.9,305.1 L291.7,304.8 L293.0,304.6 L293.0,304.3 L294.9,304.0 L295.1,303.8 L296.9,303.5 L297.2,303.3 L299.2,302.9 L300.2,302.7 L301.3,302.5 L302.1,302.2 L303.4,302.0 L304.1,301.7 L305.4,301.5 L306.0,301.3 L306.7,301.0 L308.0,300.7 L309.7,300.4 L310.6,300.2 L311.7,300.0 L312.5,299.9 L313.8,299.7 L314.5,299.4 L315.8,299.3 L316.4,299.0 L317.7,298.9 L318.4,298.7 L320.1,298.4 L321.0,298.3 L322.2,298.1 L322.9,298.1 L324.2,298.0 L324.9,297.8 L326.2,297.8 L326.9,297.7 L328.2,297.7 L330.8,297.7 L332.1,297.7 L333.1,297.7 L334.0,297.7 L335.2,297.8 L336.0,297.8 L336.7,298.0 L337.9,298.1 L338.8,298.3 L339.9,298.3 L341.2,298.6 L342.5,298.7 L343.3,298.9 L344.4,299.0 L345.6,299.1 L346.4,299.3 L347.2,299.4 L348.3,299.6 L349.3,299.7 L350.3,299.9 L352.2,300.0 L353.5,300.0 L354.2,300.2 L355.5,300.3 L356.2,300.4 L357.5,300.6 L358.1,300.7 L358.8,300.9 L360.1,301.0 L361.4,301.2 L362.7,301.3 L364.0,301.5 L364.6,301.6 L365.9,301.7 L366.6,301.7 L367.9,301.9 L368.5,301.9 L369.8,301.9 L370.5,302.0 L373.7,302.0 L374.8,302.2 L375.7,302.2 L376.9,302.3 L377.6,302.3 L378.4,302.5 L379.6,302.5 L380.9,302.6 L381.5,302.6 L382.8,302.7 L384.2,302.9 L385.2,302.9 L386.1,302.9 L387.3,303.0 L388.1,303.2 L389.4,303.2 L390.0,303.3 L391.3,303.5 L392.0,303.6 L393.3,303.6 L395.2,303.9 L395.9,303.9 L397.2,304.0 L397.8,304.2 L399.1,304.2 L399.8,304.3 L401.1,304.3 L401.9,304.5 L403.0,304.5 L404.2,304.6 L405.8,304.8 L406.3,304.8 L408.4,304.9 L408.2,304.9 L410.2,305.1 L410.8,305.2 L412.1,305.3 L412.3,305.3 L414.1,305.5 L414.4,305.6 L416.2,305.6 L417.4,305.8 L418.3,305.8 L419.3,305.8 L420.6,305.8 L421.3,305.8 L422.6,305.8 L423.2,305.8 L424.5,305.8 L425.2,305.8 L427.1,305.8 L428.4,305.8 L429.5,305.8 L430.4,305.9 L431.6,305.9 L432.3,305.9 L433.4,306.1 L434.3,306.1 L435.5,306.1 L436.2,306.2 L438.2,306.4 L439.5,306.4 L440.1,306.5 L441.4,306.5 L442.1,306.6 L442.8,306.6 L444.1,306.8 L445.4,306.9 L446.0,306.9 L447.3,306.9 L448.6,307.1 L449.9,307.1 L450.6,307.1 L451.9,307.1 L452.5,307.1 L453.8,306.9 L454.5,306.9 L455.8,306.9 L456.4,306.9 L457.7,306.8 L459.7,306.6 L460.7,306.5 L461.6,306.4 L462.8,306.2 L463.6,306.1 L464.4,305.9 L465.5,305.8 L466.8,305.8 L467.5,305.6 L468.8,305.5 L470.7,305.2 L471.1,305.1 L472.7,304.9 L473.2,304.8 L474.7,304.6 L475.3,304.6 L476.6,304.5 L477.3,304.3 L478.6,304.2 L479.2,304.0 L481.2,303.9 L481.8,303.8 L483.1,303.8 L483.8,303.6 L485.1,303.6 L485.7,303.5 L487.0,303.5 L487.8,303.3 L489.0,303.3 L489.9,303.3 L492.0,303.3 L492.9,303.2 L494.1,303.2 L494.8,303.0 L496.1,303.0 L496.8,303.0 L498.1,302.9 L498.7,302.9 L500.0,302.9 L500.7,302.7 L502.7,302.6 L504.0,302.5 L504.6,302.5 L505.9,302.3 L507.1,302.3 L507.9,302.3 L508.6,302.2 L509.8,302.2 L510.7,302.2 L511.8,302.0 L513.1,302.0 L515.0,302.0 L515.7,302.0 L517.0,301.9 L517.6,301.9 L518.9,301.9 L519.6,301.9 L520.9,301.9 L521.5,301.9 L522.8,301.9 L524.1,301.9 L525.4,301.9 L526.1,301.9 L527.4,301.9 L528.0,302.0 L530.0,302.0" fill="none" stroke="#1f77b4" stroke-width="1.7" opacity="0.85"/><circle cx="530" cy="302" r="4.5" fill="#1f77b4"/><text x="28" y="572" font-size="11" fill="#888">ground track — m from pad (N up)</text><rect x="580" y="40" width="540" height="540" fill="#fbfbfb" stroke="#ddd"/><text x="586" y="54" fill="#1f77b4" font-size="11">alt 578</text><text x="586" y="558" fill="#1f77b4" font-size="11">-1</text><path d="M1059.5,539.5 L1059.5,543.2 L1059.6,541.2 L1059.6,542.8 L1059.6,541.5 L1059.6,542.9 L1059.6,540.4 L1059.7,542.7 L1059.7,542.9 L1059.7,540.5 L1059.7,537.0 L1059.7,541.5 L1059.8,537.4 L1059.8,543.6 L1059.8,539.3 L1059.8,533.1 L1059.8,531.1 L1059.9,538.4 L1059.9,535.1 L1059.9,533.4 L1059.9,531.7 L1059.9,534.4 L1060.0,543.6 L1060.0,538.9 L1060.0,539.3 L1060.0,519.5 L1060.0,526.5 L1060.1,532.1 L1060.1,537.5 L1060.1,512.0 L1060.1,519.4 L1060.1,510.6 L1060.2,532.4 L1060.2,533.4 L1060.2,504.7 L1060.2,532.6 L1060.2,532.1 L1060.3,508.9 L1060.3,535.7 L1060.3,542.2 L1060.3,535.5 L1060.3,484.6 L1060.3,507.0 L1060.4,508.7 L1060.4,524.2 L1060.4,473.2 L1060.4,524.1 L1060.4,491.7 L1060.5,508.8 L1060.5,531.0 L1060.5,515.6 L1060.5,491.3 L1060.5,470.5 L1060.6,477.5 L1060.6,449.2 L1060.6,497.5 L1060.6,523.8 L1060.6,446.2 L1060.7,454.2 L1060.7,473.6 L1060.7,422.5 L1060.7,496.1 L1060.7,521.8 L1060.7,520.1 L1060.8,492.5 L1060.8,408.5 L1060.8,431.3 L1060.8,459.7 L1060.9,431.7 L1060.9,475.9 L1060.9,426.5 L1060.9,519.7 L1060.9,440.0 L1060.9,489.2 L1061.0,396.5 L1061.0,507.5 L1061.0,443.4 L1061.0,415.4 L1061.0,406.7 L1061.1,502.8 L1061.1,509.8 L1061.1,387.1 L1061.1,392.0 L1061.1,535.3 L1061.2,428.2 L1061.2,327.4 L1061.2,338.4 L1061.2,449.8 L1061.2,426.7 L1061.3,428.3 L1061.3,335.9 L1061.3,336.7 L1061.3,382.2 L1061.3,537.4 L1061.4,522.9 L1061.4,424.6 L1061.4,490.5 L1061.4,502.6 L1061.4,327.8 L1061.5,542.0 L1061.5,262.8 L1061.5,310.4 L1061.5,441.9 L1061.5,382.1 L1061.5,250.4 L1061.6,430.7 L1061.6,486.9 L1061.6,298.5 L1061.6,257.4 L1061.6,299.5 L1061.7,341.5 L1061.7,241.4 L1061.7,227.5 L1061.7,272.7 L1061.7,291.3 L1061.8,487.0 L1061.8,220.9 L1061.8,266.7 L1061.8,444.1 L1061.8,447.6 L1061.9,335.0 L1061.9,537.3 L1061.9,271.6 L1061.9,216.5 L1061.9,205.2 L1062.0,463.2 L1062.0,211.0 L1062.0,297.8 L1062.0,446.1 L1062.0,287.0 L1062.1,438.1 L1062.1,367.2 L1062.1,207.5 L1062.1,301.8 L1062.1,267.8 L1062.1,339.6 L1062.2,245.7 L1062.2,335.5 L1062.2,395.5 L1062.2,471.8 L1062.3,428.1 L1062.3,217.2 L1062.3,395.5 L1062.3,424.2 L1062.3,459.5 L1062.4,538.5 L1062.4,230.4 L1062.4,539.4 L1062.4,214.1 L1062.4,360.6 L1062.4,314.1 L1062.5,369.7 L1062.5,463.0 L1062.5,456.6 L1062.5,227.0 L1062.5,357.4 L1062.6,348.9 L1062.6,243.4 L1062.6,375.5 L1062.6,464.8 L1062.6,188.6 L1062.7,457.4 L1062.7,236.1 L1062.7,538.5 L1062.7,188.0 L1062.7,450.9 L1062.8,161.7 L1062.8,197.3 L1062.8,464.6 L1062.8,219.8 L1062.8,252.7 L1062.9,513.6 L1062.9,406.2 L1062.9,460.3 L1062.9,126.1 L1062.9,127.6 L1063.0,459.6 L1063.0,408.4 L1063.0,342.2 L1063.0,321.1 L1063.0,97.0 L1063.0,482.4 L1063.1,125.7 L1063.1,463.2 L1063.1,324.4 L1063.1,187.0 L1063.2,156.4 L1063.2,189.6 L1063.2,263.2 L1063.2,237.6 L1063.2,531.2 L1063.3,424.8 L1063.3,308.1 L1063.3,163.0 L1063.3,254.6 L1063.3,487.4 L1063.4,295.0 L1063.4,277.3 L1063.4,445.5 L1063.4,452.0 L1063.4,178.1 L1063.5,320.4 L1063.5,208.8 L1063.5,480.5 L1063.5,163.6 L1063.5,499.0 L1063.6,532.5 L1063.6,444.4 L1063.6,310.2 L1063.6,250.8 L1063.6,487.9 L1063.7,137.5 L1063.7,311.6 L1063.7,468.8 L1063.7,191.5 L1063.7,213.0 L1063.8,179.9 L1063.8,529.4 L1063.8,396.3 L1063.8,175.4 L1063.8,455.9 L1063.9,397.9 L1063.9,429.3 L1063.9,507.1 L1063.9,184.6 L1063.9,280.9 L1064.0,167.2 L1064.0,108.1 L1064.0,266.3 L1064.0,425.5 L1064.0,471.8 L1064.1,76.0 L1064.1,429.9 L1064.1,291.8 L1064.1,191.9 L1064.1,229.4 L1064.2,128.7 L1064.2,536.3 L1064.2,126.3 L1064.2,441.3 L1064.2,410.0 L1064.3,445.5 L1064.3,341.1 L1064.3,366.3 L1064.3,84.1 L1064.3,89.9 L1064.4,243.4 L1064.4,436.2 L1064.4,471.2 L1064.4,265.9 L1064.4,508.3 L1064.5,88.0 L1064.5,487.3 L1064.5,374.4 L1064.5,508.8 L1064.5,426.2 L1064.6,302.4 L1064.6,525.9 L1064.6,353.8 L1064.6,450.9 L1064.6,334.7 L1064.7,410.8 L1064.7,503.1 L1064.7,325.1 L1064.7,149.7 L1064.7,118.3 L1064.8,469.8 L1064.8,160.2 L1064.8,276.6 L1064.8,431.3 L1064.8,173.0 L1064.9,525.8 L1064.9,439.4 L1064.9,279.8 L1064.9,527.8 L1065.0,308.4 L1065.0,424.3 L1065.0,229.2 L1065.0,129.8 L1065.0,177.6 L1065.0,415.9 L1065.1,293.0 L1065.1,273.2 L1065.1,195.8 L1065.1,160.6 L1065.1,507.5 L1065.2,292.6 L1065.2,371.8 L1065.2,335.0 L1065.2,122.0 L1065.2,441.9 L1065.3,217.8 L1065.3,441.1 L1065.3,438.3 L1065.3,329.4 L1065.3,96.5 L1065.4,271.2 L1065.4,97.6 L1065.4,401.6 L1065.4,171.9 L1065.4,334.8 L1065.5,202.0 L1065.5,519.5 L1065.5,441.0 L1065.5,253.8 L1065.5,339.1 L1065.6,209.8 L1065.6,273.8 L1065.6,108.5 L1065.6,499.3 L1065.6,313.5 L1065.7,417.9 L1065.7,390.9 L1065.7,390.4 L1065.7,375.3 L1065.7,212.9 L1065.8,242.9 L1065.8,306.1 L1065.8,343.0 L1065.8,446.4 L1065.8,215.2 L1065.9,98.2 L1065.9,526.7 L1065.9,481.4 L1065.9,350.3 L1066.0,466.0 L1066.0,340.0 L1066.0,132.6 L1066.0,445.9 L1066.0,164.6 L1066.1,295.1 L1066.1,223.7 L1066.1,532.8 L1066.1,392.6 L1066.1,125.9 L1066.2,262.8 L1066.2,113.7 L1066.2,196.3 L1066.2,523.8 L1066.2,332.7 L1066.3,163.0 L1066.3,281.5 L1066.3,108.2 L1066.3,209.7 L1066.4,236.0 L1066.4,479.0 L1066.4,455.1 L1066.4,375.4 L1066.4,165.2 L1066.5,509.8 L1066.5,476.3 L1066.5,539.4 L1066.5,195.4 L1066.5,158.2 L1066.6,454.0 L1066.6,341.8 L1066.6,502.9 L1066.6,241.7 L1066.6,119.9 L1066.7,142.6 L1066.7,229.2 L1066.7,326.5 L1066.7,235.2 L1066.7,123.6 L1066.8,178.0 L1066.8,402.2 L1066.8,232.0 L1066.9,178.9 L1066.9,460.8 L1066.9,262.9 L1066.9,272.4 L1066.9,221.3 L1066.9,316.1 L1067.0,185.8 L1067.0,440.7 L1067.0,368.9 L1067.0,224.2 L1067.0,365.5 L1067.1,381.0 L1067.1,368.2 L1067.1,323.4 L1067.1,329.6 L1067.1,227.1 L1067.2,183.4 L1067.2,144.8 L1067.2,359.8 L1067.2,159.0 L1067.2,195.1 L1067.3,469.3 L1067.3,243.3 L1067.3,176.1 L1067.4,365.6 L1067.4,227.6 L1067.4,482.2 L1067.4,251.8 L1067.4,345.6 L1067.4,404.5 L1067.5,421.0 L1067.5,391.3 L1067.5,255.9 L1067.5,246.1 L1067.5,440.8 L1067.6,296.1 L1067.6,423.9 L1067.6,189.3 L1067.6,175.0 L1067.6,344.0 L1067.7,366.5 L1067.7,537.0 L1067.7,311.6 L1067.7,246.9 L1067.7,161.9 L1067.8,286.1 L1067.8,210.5 L1067.8,288.0 L1067.9,361.1 L1067.9,357.1 L1067.9,516.1 L1067.9,313.1 L1067.9,501.4 L1067.9,295.9 L1068.0,325.8 L1068.0,158.0 L1068.0,155.0 L1068.0,323.2 L1068.0,145.4 L1068.1,439.1 L1068.1,259.5 L1068.1,418.7 L1068.1,419.4 L1068.1,332.0 L1068.2,466.9 L1068.2,326.5 L1068.2,413.4 L1068.2,144.3 L1068.2,505.1 L1068.3,185.2 L1068.3,283.1 L1068.3,494.7 L1068.4,473.8 L1068.4,156.0 L1068.4,476.7 L1068.4,453.0 L1068.4,262.7 L1068.4,153.8 L1068.5,349.8 L1068.5,532.3 L1068.5,253.4 L1068.5,493.6 L1068.5,200.9 L1068.6,278.6 L1068.6,268.7 L1068.6,164.3 L1068.6,183.0 L1068.6,163.4 L1068.7,331.1 L1068.7,371.5 L1068.7,423.1 L1068.7,379.1 L1068.8,424.7 L1068.8,481.0 L1068.8,337.3 L1068.8,494.1 L1068.9,475.1 L1068.9,403.0 L1068.9,528.3 L1068.9,387.0 L1068.9,293.1 L1069.0,348.5 L1069.0,522.7 L1069.0,274.7 L1069.0,317.3 L1069.0,261.9 L1069.0,183.3 L1069.1,520.6 L1069.1,273.9 L1069.1,284.3 L1069.1,439.2 L1069.1,343.4 L1069.2,307.0 L1069.2,439.8 L1069.2,491.4 L1069.3,458.2 L1069.3,444.6 L1069.3,309.1 L1069.3,384.8 L1069.3,343.2 L1069.4,386.3 L1069.4,479.0 L1069.4,392.7 L1069.4,403.2 L1069.4,431.5 L1069.5,325.5 L1069.5,270.5 L1069.5,409.2 L1069.5,177.4 L1069.5,474.4 L1069.5,471.4 L1069.6,425.3 L1069.6,522.9 L1069.6,447.9 L1069.6,440.7 L1069.6,299.1 L1069.7,359.9 L1069.7,213.9 L1069.7,337.7 L1069.8,407.7 L1069.8,468.8 L1069.8,182.0 L1069.8,477.5 L1069.8,245.3 L1069.9,256.7 L1069.9,441.7 L1069.9,250.8 L1069.9,273.5 L1069.9,469.7 L1070.0,357.8 L1070.0,494.6 L1070.0,216.6 L1070.0,369.1 L1070.0,403.2 L1070.0,322.6 L1070.1,274.1 L1070.1,193.5 L1070.1,304.0 L1070.1,270.4 L1070.1,222.3 L1070.2,466.7 L1070.2,411.0 L1070.2,393.9 L1070.3,457.2 L1070.3,526.2 L1070.3,486.9 L1070.3,421.3 L1070.3,469.9 L1070.4,485.6 L1070.4,510.7 L1070.4,327.9 L1070.4,368.1 L1070.4,241.2 L1070.5,409.8 L1070.5,458.1 L1070.5,367.0 L1070.5,278.9 L1070.5,481.3 L1070.5,199.3 L1070.6,328.6 L1070.6,513.4 L1070.6,354.6 L1070.6,471.7 L1070.6,278.9 L1070.7,534.9 L1070.7,231.6 L1070.7,318.9 L1070.8,418.4 L1070.8,440.7 L1070.8,356.2 L1070.8,212.0 L1070.8,344.9 L1070.9,388.2 L1070.9,537.5 L1070.9,217.1 L1070.9,377.3 L1070.9,457.2 L1071.0,385.8 L1071.0,351.4 L1071.0,224.3 L1071.0,401.5 L1071.0,512.5 L1071.1,286.8 L1071.1,451.0 L1071.1,476.8 L1071.1,538.4 L1071.1,529.9 L1071.2,376.4 L1071.2,503.6 L1071.2,349.8 L1071.2,484.9 L1071.3,459.8 L1071.3,255.6 L1071.3,365.9 L1071.3,394.1 L1071.3,342.7 L1071.4,456.6 L1071.4,462.6 L1071.4,457.6 L1071.4,433.6 L1071.4,518.5 L1071.5,464.3 L1071.5,516.8 L1071.5,360.6 L1071.6,345.9 L1071.6,487.9 L1071.6,531.8 L1071.6,439.8 L1071.7,330.6 L1071.7,331.4 L1071.7,364.7 L1071.8,540.3 L1071.8,338.4 L1071.8,268.6 L1071.8,247.0 L1071.8,538.4 L1071.9,529.6 L1071.9,269.8 L1071.9,379.3 L1071.9,522.6 L1071.9,442.8 L1072.0,511.1 L1072.0,364.8 L1072.0,446.1 L1072.0,270.3 L1072.0,435.7 L1072.1,402.5 L1072.1,246.7 L1072.1,382.6 L1072.1,383.6 L1072.1,497.8 L1072.2,532.0 L1072.2,387.1 L1072.3,424.2 L1072.3,524.1 L1072.3,354.4 L1072.3,255.0 L1072.3,305.8 L1072.4,432.2 L1072.4,302.5 L1072.4,340.8 L1072.4,481.4 L1072.4,528.6 L1072.5,319.6 L1072.5,455.3 L1072.5,462.7 L1072.5,457.1 L1072.5,446.8 L1072.5,268.4 L1072.6,487.9 L1072.6,530.6 L1072.6,397.4 L1072.6,329.9 L1072.6,541.7 L1072.7,403.0 L1072.8,433.3 L1072.8,434.7 L1072.8,528.2 L1072.8,408.1 L1072.8,273.0 L1072.9,267.0 L1072.9,500.1 L1072.9,466.2 L1072.9,291.7 L1072.9,509.4 L1073.0,255.3 L1073.0,461.7 L1073.0,324.4 L1073.0,438.8 L1073.0,413.4 L1073.1,378.8 L1073.1,446.0 L1073.1,458.5 L1073.1,433.1 L1073.1,469.7 L1073.1,410.1 L1073.2,531.2 L1073.3,342.0 L1073.3,536.4 L1073.3,297.3 L1073.3,469.0 L1073.3,526.4 L1073.4,405.8 L1073.4,266.9 L1073.4,293.2 L1073.4,299.3 L1073.4,432.5 L1073.5,325.5 L1073.5,330.9 L1073.5,270.2 L1073.5,519.1 L1073.5,364.9 L1073.6,542.9 L1073.6,289.2 L1073.6,277.8 L1073.6,449.8 L1073.6,439.7 L1073.7,534.9 L1073.7,405.5 L1073.7,462.6 L1073.8,307.8 L1073.8,495.8 L1073.8,351.9 L1073.8,295.5 L1073.9,350.8 L1073.9,508.4 L1073.9,461.1 L1073.9,509.7 L1073.9,420.3 L1074.0,469.9 L1074.0,369.4 L1074.0,457.1 L1074.0,346.0 L1074.0,494.9 L1074.1,472.6 L1074.1,476.5 L1074.1,302.9 L1074.1,497.0 L1074.1,541.7 L1074.2,540.8 L1074.2,470.6 L1074.2,384.3 L1074.2,523.7 L1074.3,397.9 L1074.3,291.7 L1074.3,513.3 L1074.4,317.2 L1074.4,392.8 L1074.4,487.6 L1074.4,456.6 L1074.4,324.6 L1074.5,308.7 L1074.5,293.5 L1074.5,486.4 L1074.5,535.8 L1074.5,514.7 L1074.6,507.9 L1074.6,345.4 L1074.6,454.2 L1074.6,334.3 L1074.6,327.6 L1074.7,514.0 L1074.7,390.0 L1074.7,373.0 L1074.7,509.0 L1074.7,335.6 L1074.8,428.2 L1074.8,476.2 L1074.9,402.0 L1074.9,438.6 L1074.9,372.7 L1074.9,333.6 L1074.9,350.5 L1075.0,391.4 L1075.0,536.3 L1075.0,530.7 L1075.0,431.0 L1075.0,389.3 L1075.1,495.7 L1075.1,504.9 L1075.1,520.0 L1075.1,440.6 L1075.1,525.0 L1075.2,419.4 L1075.2,414.1 L1075.2,363.2 L1075.2,411.1 L1075.2,349.3 L1075.2,369.8 L1075.3,373.8 L1075.4,484.2 L1075.4,509.1 L1075.4,313.8 L1075.4,520.1 L1075.4,327.2 L1075.5,350.0 L1075.5,426.0 L1075.5,498.4 L1075.5,377.9 L1075.5,422.2 L1075.6,419.1 L1075.6,472.1 L1075.6,446.4 L1075.6,532.8 L1075.6,455.3 L1075.7,347.4 L1075.7,463.2 L1075.7,421.3 L1075.7,434.5 L1075.7,372.7 L1075.7,464.5 L1075.8,327.5 L1075.9,506.8 L1075.9,487.9 L1075.9,367.9 L1075.9,449.0 L1075.9,359.9 L1076.0,544.0 L1076.0,500.9 L1076.0,492.5 L1076.0,495.2 L1076.0,481.5 L1076.1,369.5 L1076.1,437.3 L1076.1,389.6 L1076.1,358.5 L1076.1,407.1 L1076.2,482.4 L1076.2,445.1 L1076.2,363.2 L1076.2,399.9 L1076.2,522.8 L1076.3,457.7 L1076.3,403.3 L1076.3,399.5 L1076.4,396.2 L1076.4,487.1 L1076.4,339.1 L1076.4,507.6 L1076.5,374.9 L1076.5,470.6 L1076.5,514.7 L1076.5,451.2 L1076.5,367.3 L1076.6,404.4 L1076.6,494.0 L1076.6,366.1 L1076.6,464.6 L1076.6,377.4 L1076.7,537.5 L1076.7,359.2 L1076.7,437.5 L1076.7,350.9 L1076.7,421.1 L1076.7,385.2 L1076.8,377.6 L1076.8,469.3 L1076.8,406.7 L1076.9,542.4 L1076.9,363.9 L1076.9,490.2 L1077.0,532.9 L1077.0,459.3 L1077.0,496.6 L1077.0,524.4 L1077.0,388.7 L1077.1,541.1 L1077.1,424.9 L1077.1,451.4 L1077.1,426.3 L1077.1,539.9 L1077.2,535.2 L1077.2,378.9 L1077.2,396.2 L1077.2,511.0 L1077.2,408.5 L1077.3,534.3 L1077.3,363.4 L1077.3,428.3 L1077.3,526.3 L1077.3,382.4 L1077.4,447.3 L1077.4,403.8 L1077.5,384.0 L1077.5,366.7 L1077.5,401.8 L1077.5,485.0 L1077.5,444.1 L1077.6,454.7 L1077.6,374.6 L1077.6,396.5 L1077.6,517.3 L1077.6,427.7 L1077.7,544.0 L1077.7,538.7 L1077.7,470.8 L1077.7,538.9 L1077.7,411.5 L1077.8,500.0 L1077.8,534.2 L1077.8,392.5 L1077.8,430.1 L1077.8,488.1 L1077.9,519.2 L1077.9,491.7 L1078.0,414.5 L1078.0,480.1 L1078.0,451.9 L1078.0,514.7 L1078.0,412.4 L1078.1,400.9 L1078.1,443.2 L1078.1,417.2 L1078.1,531.0 L1078.1,491.9 L1078.2,402.7 L1078.2,470.7 L1078.2,460.3 L1078.2,525.7 L1078.2,479.7 L1078.3,530.2 L1078.3,474.8 L1078.3,440.3 L1078.3,486.6 L1078.3,431.6 L1078.4,457.1 L1078.4,494.8 L1078.5,397.5 L1078.5,414.7 L1078.5,534.3 L1078.5,501.5 L1078.5,543.2 L1078.6,509.1 L1078.6,401.5 L1078.6,413.8 L1078.6,460.2 L1078.6,521.1 L1078.7,487.0 L1078.7,521.3 L1078.7,435.5 L1078.7,406.3 L1078.7,432.2 L1078.8,536.8 L1078.8,409.1 L1078.8,504.2 L1078.8,427.6 L1078.8,465.4 L1078.9,438.7 L1078.9,506.7 L1078.9,489.1 L1079.0,519.4 L1079.0,525.9 L1079.0,511.5 L1079.1,543.6 L1079.1,475.3 L1079.1,539.5 L1079.1,484.4 L1079.1,453.6 L1079.1,489.3 L1079.2,461.4 L1079.2,490.3 L1079.2,512.9 L1079.2,530.3 L1079.2,426.8 L1079.3,536.5 L1079.3,501.7 L1079.3,490.6 L1079.3,517.9 L1079.3,427.9 L1079.4,448.2 L1079.4,438.7 L1079.4,414.6 L1079.4,466.2 L1079.5,491.0 L1079.5,480.9 L1079.6,432.9 L1079.6,498.5 L1079.6,474.0 L1079.6,469.4 L1079.6,523.6 L1079.7,447.3 L1079.7,535.4 L1079.7,502.3 L1079.7,521.0 L1079.7,527.6 L1079.7,425.5 L1079.8,472.5 L1079.8,442.9 L1079.8,488.4 L1079.8,505.6 L1079.8,475.1 L1079.9,432.6 L1079.9,530.7 L1079.9,521.0 L1079.9,466.8 L1079.9,462.4 L1080.0,484.4 L1080.1,505.2 L1080.1,492.4 L1080.1,525.1 L1080.1,518.4 L1080.1,516.9 L1080.2,508.5 L1080.2,464.7 L1080.2,465.1 L1080.2,456.3 L1080.2,467.6 L1080.3,496.7 L1080.3,480.5 L1080.3,474.9 L1080.3,538.1 L1080.3,541.5 L1080.3,516.3 L1080.4,464.3 L1080.4,492.4 L1080.4,441.8 L1080.4,526.2 L1080.4,442.4 L1080.5,539.1 L1080.6,537.5 L1080.6,443.1 L1080.6,476.3 L1080.6,493.5 L1080.6,463.3 L1080.7,448.6 L1080.7,503.7 L1080.7,538.8 L1080.7,445.1 L1080.7,448.4 L1080.8,504.3 L1080.8,471.7 L1080.8,445.9 L1080.8,479.6 L1080.8,448.6 L1080.9,465.1 L1080.9,446.7 L1080.9,448.9 L1080.9,450.6 L1080.9,472.3 L1080.9,482.1 L1081.0,489.8 L1081.0,541.7 L1081.1,491.9 L1081.1,454.7 L1081.1,514.0 L1081.1,518.2 L1081.2,528.0 L1081.2,470.6 L1081.2,520.2 L1081.2,466.0 L1081.2,481.3 L1081.3,540.0 L1081.3,491.0 L1081.3,467.6 L1081.3,532.4 L1081.3,543.5 L1081.4,487.0 L1081.4,534.6 L1081.4,488.9 L1081.4,512.0 L1081.4,539.0 L1081.5,536.7 L1081.5,498.9 L1081.5,503.6 L1081.5,499.1 L1081.6,485.0 L1081.6,530.0 L1081.7,512.6 L1081.7,527.4 L1081.7,503.5 L1081.7,519.2 L1081.7,522.7 L1081.7,468.6 L1081.8,523.2 L1081.8,524.0 L1081.8,508.0 L1081.8,532.1 L1081.8,525.5 L1081.9,495.1 L1081.9,532.2 L1081.9,490.3 L1081.9,524.5 L1081.9,478.5 L1082.0,520.8 L1082.0,512.0 L1082.0,498.3 L1082.0,528.6 L1082.0,501.1 L1082.1,542.1 L1082.2,539.4 L1082.2,481.3 L1082.2,525.8 L1082.2,532.8 L1082.2,492.3 L1082.3,479.3 L1082.3,496.2 L1082.3,536.6 L1082.3,517.3 L1082.3,483.6 L1082.3,513.8 L1082.4,498.5 L1082.4,510.7 L1082.4,507.5 L1082.4,516.0 L1082.4,492.3 L1082.5,513.2 L1082.5,534.7 L1082.5,540.0 L1082.5,510.9 L1082.5,522.7 L1082.6,489.3 L1082.7,526.0 L1082.7,519.3 L1082.7,507.1 L1082.7,534.3 L1082.7,522.0 L1082.8,520.8 L1082.8,503.8 L1082.8,524.1 L1082.8,517.7 L1082.8,494.6 L1082.9,542.0 L1082.9,534.5 L1082.9,503.6 L1082.9,507.9 L1082.9,498.3 L1082.9,510.4 L1083.0,531.6 L1083.0,508.0 L1083.0,510.6 L1083.0,502.0 L1083.0,539.0 L1083.1,507.7 L1083.1,519.7 L1083.2,506.7 L1083.2,525.6 L1083.2,525.4 L1083.2,528.4 L1083.3,539.7 L1083.3,524.7 L1083.3,534.3 L1083.3,540.7 L1083.3,519.9 L1083.4,526.4 L1083.4,531.4 L1083.4,516.5 L1083.4,506.2 L1083.4,526.5 L1083.5,507.5 L1083.5,527.3 L1083.5,522.1 L1083.5,538.5 L1083.5,538.4 L1083.6,533.5 L1083.6,526.8 L1083.6,533.4 L1083.6,536.7 L1083.7,536.5 L1083.8,512.4 L1083.8,527.3 L1083.8,530.9 L1083.8,531.3 L1083.8,524.6 L1083.9,533.1 L1083.9,540.7 L1083.9,520.9 L1083.9,519.4 L1083.9,518.8 L1084.0,522.9" fill="none" stroke="#1f77b4" stroke-width="1.4" opacity="0.85"/><text x="1040" y="54" fill="#ff7f0e" font-size="11">roll 34</text><text x="1090" y="558" fill="#ff7f0e" font-size="11">-23</text><path d="M1059.5,356.0 L1059.5,350.2 L1059.6,346.9 L1059.6,360.9 L1059.6,346.9 L1059.6,346.9 L1059.6,350.2 L1059.7,347.8 L1059.7,360.1 L1059.7,352.7 L1059.7,352.7 L1059.7,345.3 L1059.8,360.1 L1059.8,354.3 L1059.8,358.4 L1059.8,356.8 L1059.8,349.4 L1059.9,346.9 L1059.9,351.1 L1059.9,351.1 L1059.9,350.2 L1059.9,351.1 L1060.0,356.0 L1060.0,348.6 L1060.0,351.9 L1060.0,346.9 L1060.0,350.2 L1060.1,345.3 L1060.1,355.2 L1060.1,348.6 L1060.1,346.9 L1060.1,354.3 L1060.2,352.7 L1060.2,347.8 L1060.2,346.1 L1060.2,356.8 L1060.2,353.5 L1060.3,356.8 L1060.3,357.6 L1060.3,346.9 L1060.3,359.3 L1060.3,349.4 L1060.3,352.7 L1060.4,356.0 L1060.4,345.3 L1060.4,359.3 L1060.4,351.1 L1060.4,356.8 L1060.5,356.8 L1060.5,346.9 L1060.5,345.3 L1060.5,353.5 L1060.5,359.3 L1060.6,351.9 L1060.6,351.1 L1060.6,348.6 L1060.6,344.5 L1060.6,352.7 L1060.7,355.2 L1060.7,348.6 L1060.7,342.8 L1060.7,346.1 L1060.7,346.9 L1060.7,350.2 L1060.8,342.0 L1060.8,343.7 L1060.8,356.8 L1060.8,353.5 L1060.9,353.5 L1060.9,357.6 L1060.9,351.1 L1060.9,360.1 L1060.9,358.4 L1060.9,354.3 L1061.0,359.3 L1061.0,348.6 L1061.0,359.3 L1061.0,350.2 L1061.0,360.1 L1061.1,360.1 L1061.1,340.4 L1061.1,344.5 L1061.1,355.2 L1061.1,355.2 L1061.2,340.4 L1061.2,345.3 L1061.2,354.3 L1061.2,360.1 L1061.2,353.5 L1061.3,350.2 L1061.3,341.2 L1061.3,360.9 L1061.3,355.2 L1061.3,356.8 L1061.4,349.4 L1061.4,352.7 L1061.4,346.9 L1061.4,349.4 L1061.4,348.6 L1061.4,351.9 L1061.5,342.0 L1061.5,345.3 L1061.5,359.3 L1061.5,356.0 L1061.5,351.1 L1061.6,348.6 L1061.6,342.0 L1061.6,345.3 L1061.6,351.1 L1061.6,346.1 L1061.7,354.3 L1061.7,354.3 L1061.7,345.3 L1061.7,351.1 L1061.7,349.4 L1061.8,354.3 L1061.8,357.6 L1061.8,339.6 L1061.8,357.6 L1061.8,336.3 L1061.9,349.4 L1061.9,355.2 L1061.9,360.9 L1061.9,350.2 L1061.9,344.5 L1062.0,356.8 L1062.0,356.0 L1062.0,338.7 L1062.0,345.3 L1062.0,355.2 L1062.1,346.1 L1062.1,339.6 L1062.1,334.6 L1062.1,342.0 L1062.1,337.1 L1062.1,346.1 L1062.2,346.9 L1062.2,350.2 L1062.2,353.5 L1062.2,342.8 L1062.3,339.6 L1062.3,335.5 L1062.3,343.7 L1062.3,346.9 L1062.3,347.8 L1062.4,351.9 L1062.4,337.9 L1062.4,355.2 L1062.4,343.7 L1062.4,358.4 L1062.4,338.7 L1062.5,356.0 L1062.5,352.7 L1062.5,342.8 L1062.5,352.7 L1062.5,343.7 L1062.6,334.6 L1062.6,334.6 L1062.6,359.3 L1062.6,356.0 L1062.6,351.9 L1062.7,352.7 L1062.7,341.2 L1062.7,339.6 L1062.7,359.3 L1062.7,340.4 L1062.8,356.8 L1062.8,334.6 L1062.8,342.0 L1062.8,336.3 L1062.8,351.1 L1062.9,359.3 L1062.9,354.3 L1062.9,360.1 L1062.9,360.9 L1062.9,356.8 L1063.0,355.2 L1063.0,357.6 L1063.0,342.0 L1063.0,346.9 L1063.0,342.8 L1063.0,344.5 L1063.1,358.4 L1063.1,346.1 L1063.1,354.3 L1063.1,349.4 L1063.2,336.3 L1063.2,350.2 L1063.2,356.0 L1063.2,351.1 L1063.2,336.3 L1063.3,357.6 L1063.3,345.3 L1063.3,343.7 L1063.3,345.3 L1063.3,346.9 L1063.4,345.3 L1063.4,354.3 L1063.4,356.0 L1063.4,359.3 L1063.4,356.0 L1063.5,351.9 L1063.5,357.6 L1063.5,309.2 L1063.5,359.3 L1063.5,317.4 L1063.6,240.2 L1063.6,356.8 L1063.6,338.7 L1063.6,319.0 L1063.6,275.5 L1063.7,292.8 L1063.7,267.3 L1063.7,348.6 L1063.7,321.5 L1063.7,322.3 L1063.8,322.3 L1063.8,309.2 L1063.8,260.7 L1063.8,346.1 L1063.8,262.4 L1063.9,330.5 L1063.9,291.1 L1063.9,239.4 L1063.9,352.7 L1063.9,341.2 L1064.0,343.7 L1064.0,319.0 L1064.0,314.1 L1064.0,351.9 L1064.0,318.2 L1064.1,340.4 L1064.1,305.1 L1064.1,303.4 L1064.1,333.8 L1064.1,343.7 L1064.2,306.7 L1064.2,350.2 L1064.2,218.9 L1064.2,328.9 L1064.2,332.2 L1064.3,281.3 L1064.3,275.5 L1064.3,274.7 L1064.3,340.4 L1064.3,296.9 L1064.4,339.6 L1064.4,295.2 L1064.4,307.5 L1064.4,278.8 L1064.4,308.4 L1064.5,334.6 L1064.5,356.8 L1064.5,329.7 L1064.5,356.8 L1064.5,351.1 L1064.6,359.3 L1064.6,365.0 L1064.6,369.9 L1064.6,356.8 L1064.6,338.7 L1064.7,328.1 L1064.7,345.3 L1064.7,298.5 L1064.7,352.7 L1064.7,305.1 L1064.8,292.8 L1064.8,316.6 L1064.8,248.4 L1064.8,279.6 L1064.8,291.1 L1064.9,342.8 L1064.9,319.9 L1064.9,285.4 L1064.9,343.7 L1064.9,235.3 L1065.0,260.7 L1065.0,233.6 L1065.0,229.5 L1065.0,278.0 L1065.0,355.2 L1065.1,315.7 L1065.1,181.9 L1065.1,353.5 L1065.1,130.2 L1065.1,90.0 L1065.2,319.0 L1065.2,271.4 L1065.2,297.7 L1065.2,159.7 L1065.2,223.8 L1065.3,191.8 L1065.3,330.5 L1065.3,272.2 L1065.3,236.9 L1065.3,342.8 L1065.4,129.4 L1065.4,351.1 L1065.4,172.1 L1065.4,214.8 L1065.4,315.7 L1065.5,254.2 L1065.5,171.2 L1065.5,176.2 L1065.5,142.5 L1065.5,339.6 L1065.6,146.6 L1065.6,289.5 L1065.6,312.5 L1065.6,267.3 L1065.6,158.1 L1065.7,330.5 L1065.7,346.9 L1065.7,126.9 L1065.7,158.9 L1065.7,220.5 L1065.8,157.3 L1065.8,231.2 L1065.8,98.2 L1065.8,358.4 L1065.8,301.0 L1065.9,255.0 L1065.9,351.1 L1065.9,278.0 L1065.9,135.1 L1066.0,314.1 L1066.0,195.1 L1066.0,200.8 L1066.0,264.8 L1066.0,199.2 L1066.1,243.5 L1066.1,349.4 L1066.1,188.5 L1066.1,232.8 L1066.1,186.0 L1066.2,108.0 L1066.2,180.3 L1066.2,204.9 L1066.2,278.8 L1066.2,163.9 L1066.3,218.9 L1066.3,281.3 L1066.3,183.6 L1066.3,144.1 L1066.4,116.2 L1066.4,88.3 L1066.4,338.7 L1066.4,223.0 L1066.4,76.0 L1066.5,157.3 L1066.5,208.2 L1066.5,303.4 L1066.5,112.1 L1066.5,180.3 L1066.6,273.1 L1066.6,320.7 L1066.6,192.6 L1066.6,316.6 L1066.6,142.5 L1066.7,202.4 L1066.7,246.8 L1066.7,333.8 L1066.7,140.9 L1066.7,181.1 L1066.8,220.5 L1066.8,200.8 L1066.8,209.8 L1066.9,260.7 L1066.9,354.3 L1066.9,338.7 L1066.9,304.3 L1066.9,112.1 L1066.9,261.6 L1067.0,264.8 L1067.0,80.9 L1067.0,217.2 L1067.0,142.5 L1067.0,305.1 L1067.1,125.3 L1067.1,252.5 L1067.1,176.2 L1067.1,356.8 L1067.1,255.8 L1067.2,352.7 L1067.2,353.5 L1067.2,316.6 L1067.2,359.3 L1067.2,324.0 L1067.3,317.4 L1067.3,270.6 L1067.3,195.1 L1067.4,196.7 L1067.4,320.7 L1067.4,291.1 L1067.4,223.8 L1067.4,196.7 L1067.4,259.9 L1067.5,262.4 L1067.5,282.1 L1067.5,348.6 L1067.5,244.3 L1067.5,263.2 L1067.6,300.1 L1067.6,334.6 L1067.6,321.5 L1067.6,338.7 L1067.6,329.7 L1067.7,354.3 L1067.7,334.6 L1067.7,357.6 L1067.7,353.5 L1067.7,351.9 L1067.8,319.9 L1067.8,346.1 L1067.8,355.2 L1067.9,356.8 L1067.9,344.5 L1067.9,357.6 L1067.9,346.1 L1067.9,365.0 L1067.9,335.5 L1068.0,286.2 L1068.0,294.4 L1068.0,311.6 L1068.0,265.7 L1068.0,291.9 L1068.1,197.5 L1068.1,319.9 L1068.1,328.9 L1068.1,292.8 L1068.1,347.8 L1068.2,320.7 L1068.2,325.6 L1068.2,310.0 L1068.2,331.3 L1068.2,335.5 L1068.3,278.0 L1068.3,262.4 L1068.3,305.9 L1068.4,289.5 L1068.4,351.1 L1068.4,270.6 L1068.4,339.6 L1068.4,333.8 L1068.4,329.7 L1068.5,314.9 L1068.5,329.7 L1068.5,288.7 L1068.5,340.4 L1068.5,328.1 L1068.6,362.5 L1068.6,346.9 L1068.6,360.9 L1068.6,369.1 L1068.6,365.8 L1068.7,349.4 L1068.7,403.6 L1068.7,423.3 L1068.7,386.4 L1068.8,419.2 L1068.8,369.1 L1068.8,351.9 L1068.8,355.2 L1068.9,346.9 L1068.9,381.4 L1068.9,400.3 L1068.9,369.9 L1068.9,470.1 L1068.9,458.6 L1069.0,484.9 L1069.0,375.7 L1069.0,513.6 L1069.0,363.4 L1069.0,392.1 L1069.1,521.0 L1069.1,451.2 L1069.1,344.5 L1069.1,388.8 L1069.1,349.4 L1069.2,505.4 L1069.2,421.7 L1069.2,392.1 L1069.3,386.4 L1069.3,447.1 L1069.3,474.2 L1069.3,465.2 L1069.3,466.8 L1069.4,516.9 L1069.4,544.0 L1069.4,504.6 L1069.4,407.7 L1069.4,466.0 L1069.5,401.1 L1069.5,426.6 L1069.5,489.8 L1069.5,420.8 L1069.5,393.7 L1069.5,458.6 L1069.6,530.9 L1069.6,521.8 L1069.6,513.6 L1069.6,413.5 L1069.6,364.2 L1069.7,409.3 L1069.7,352.7 L1069.7,448.8 L1069.8,434.8 L1069.8,489.0 L1069.8,461.1 L1069.8,442.2 L1069.8,443.0 L1069.9,413.5 L1069.9,436.4 L1069.9,394.6 L1069.9,404.4 L1069.9,374.9 L1070.0,405.2 L1070.0,367.5 L1070.0,402.8 L1070.0,411.0 L1070.0,354.3 L1070.0,383.1 L1070.1,367.5 L1070.1,356.0 L1070.1,345.3 L1070.1,346.1 L1070.1,347.8 L1070.2,385.5 L1070.2,482.4 L1070.2,416.7 L1070.3,471.7 L1070.3,365.0 L1070.3,461.1 L1070.3,397.0 L1070.3,369.9 L1070.4,357.6 L1070.4,431.5 L1070.4,348.6 L1070.4,359.3 L1070.4,424.1 L1070.5,348.6 L1070.5,431.5 L1070.5,387.2 L1070.5,412.6 L1070.5,463.5 L1070.5,452.0 L1070.6,428.2 L1070.6,423.3 L1070.6,433.2 L1070.6,423.3 L1070.6,439.7 L1070.7,359.3 L1070.7,361.7 L1070.7,424.9 L1070.8,368.3 L1070.8,406.9 L1070.8,360.1 L1070.8,375.7 L1070.8,398.7 L1070.9,388.8 L1070.9,374.0 L1070.9,420.0 L1070.9,414.3 L1070.9,381.4 L1071.0,348.6 L1071.0,359.3 L1071.0,355.2 L1071.0,356.0 L1071.0,365.0 L1071.1,415.1 L1071.1,384.7 L1071.1,359.3 L1071.1,343.7 L1071.1,333.0 L1071.2,438.1 L1071.2,447.9 L1071.2,443.0 L1071.2,373.2 L1071.3,364.2 L1071.3,366.7 L1071.3,362.5 L1071.3,446.3 L1071.3,350.2 L1071.4,384.7 L1071.4,390.5 L1071.4,447.9 L1071.4,478.3 L1071.4,491.5 L1071.5,468.5 L1071.5,455.3 L1071.5,439.7 L1071.6,344.5 L1071.6,508.7 L1071.6,374.0 L1071.6,442.2 L1071.7,359.3 L1071.7,345.3 L1071.7,351.1 L1071.8,392.9 L1071.8,369.1 L1071.8,393.7 L1071.8,420.8 L1071.8,388.0 L1071.9,452.0 L1071.9,424.9 L1071.9,365.0 L1071.9,395.4 L1071.9,437.3 L1072.0,422.5 L1072.0,379.8 L1072.0,417.6 L1072.0,367.5 L1072.0,402.8 L1072.1,345.3 L1072.1,419.2 L1072.1,365.0 L1072.1,360.9 L1072.1,345.3 L1072.2,360.1 L1072.2,296.0 L1072.3,358.4 L1072.3,300.1 L1072.3,299.3 L1072.3,291.9 L1072.3,319.0 L1072.4,351.1 L1072.4,318.2 L1072.4,318.2 L1072.4,337.1 L1072.4,360.1 L1072.5,322.3 L1072.5,381.4 L1072.5,357.6 L1072.5,356.0 L1072.5,349.4 L1072.5,355.2 L1072.6,326.4 L1072.6,283.7 L1072.6,298.5 L1072.6,308.4 L1072.6,295.2 L1072.7,371.6 L1072.8,417.6 L1072.8,375.7 L1072.8,374.0 L1072.8,347.8 L1072.8,353.5 L1072.9,347.8 L1072.9,332.2 L1072.9,353.5 L1072.9,342.8 L1072.9,353.5 L1073.0,324.0 L1073.0,346.9 L1073.0,303.4 L1073.0,328.9 L1073.0,330.5 L1073.1,333.0 L1073.1,351.9 L1073.1,349.4 L1073.1,331.3 L1073.1,319.9 L1073.1,332.2 L1073.2,292.8 L1073.3,365.0 L1073.3,346.1 L1073.3,335.5 L1073.3,342.0 L1073.3,346.9 L1073.4,356.0 L1073.4,324.8 L1073.4,339.6 L1073.4,359.3 L1073.4,337.1 L1073.5,358.4 L1073.5,358.4 L1073.5,356.8 L1073.5,330.5 L1073.5,342.8 L1073.6,287.8 L1073.6,312.5 L1073.6,290.3 L1073.6,255.8 L1073.6,250.1 L1073.7,287.8 L1073.7,360.9 L1073.7,249.2 L1073.8,358.4 L1073.8,325.6 L1073.8,207.4 L1073.8,321.5 L1073.9,337.9 L1073.9,265.7 L1073.9,262.4 L1073.9,267.3 L1073.9,266.5 L1074.0,337.9 L1074.0,305.9 L1074.0,273.9 L1074.0,312.5 L1074.0,260.7 L1074.1,343.7 L1074.1,291.9 L1074.1,360.1 L1074.1,284.5 L1074.1,263.2 L1074.2,311.6 L1074.2,294.4 L1074.2,325.6 L1074.2,311.6 L1074.3,234.5 L1074.3,259.9 L1074.3,145.8 L1074.4,360.1 L1074.4,198.3 L1074.4,213.9 L1074.4,291.1 L1074.4,231.2 L1074.5,239.4 L1074.5,337.9 L1074.5,293.6 L1074.5,264.0 L1074.5,329.7 L1074.6,258.3 L1074.6,225.4 L1074.6,242.7 L1074.6,218.0 L1074.6,272.2 L1074.7,351.1 L1074.7,355.2 L1074.7,328.1 L1074.7,353.5 L1074.7,309.2 L1074.8,281.3 L1074.8,337.9 L1074.9,315.7 L1074.9,294.4 L1074.9,313.3 L1074.9,353.5 L1074.9,276.3 L1075.0,272.2 L1075.0,290.3 L1075.0,333.8 L1075.0,352.7 L1075.0,351.1 L1075.1,332.2 L1075.1,344.5 L1075.1,360.1 L1075.1,369.9 L1075.1,384.7 L1075.2,379.8 L1075.2,381.4 L1075.2,359.3 L1075.2,410.2 L1075.2,383.1 L1075.2,382.3 L1075.3,278.0 L1075.4,342.0 L1075.4,324.8 L1075.4,324.8 L1075.4,357.6 L1075.4,320.7 L1075.5,348.6 L1075.5,349.4 L1075.5,360.9 L1075.5,365.0 L1075.5,365.8 L1075.6,350.2 L1075.6,347.8 L1075.6,285.4 L1075.6,329.7 L1075.6,350.2 L1075.7,333.8 L1075.7,340.4 L1075.7,363.4 L1075.7,357.6 L1075.7,352.7 L1075.7,358.4 L1075.8,350.2 L1075.9,420.8 L1075.9,414.3 L1075.9,399.5 L1075.9,434.0 L1075.9,376.5 L1076.0,389.6 L1076.0,462.7 L1076.0,489.0 L1076.0,464.4 L1076.0,367.5 L1076.1,424.1 L1076.1,426.6 L1076.1,380.6 L1076.1,404.4 L1076.1,425.8 L1076.2,389.6 L1076.2,376.5 L1076.2,457.8 L1076.2,438.1 L1076.2,422.5 L1076.3,369.9 L1076.3,385.5 L1076.3,365.8 L1076.4,349.4 L1076.4,317.4 L1076.4,325.6 L1076.4,357.6 L1076.5,355.2 L1076.5,356.8 L1076.5,345.3 L1076.5,355.2 L1076.5,353.5 L1076.6,354.3 L1076.6,351.9 L1076.6,339.6 L1076.6,339.6 L1076.6,287.0 L1076.7,286.2 L1076.7,319.0 L1076.7,320.7 L1076.7,324.8 L1076.7,352.7 L1076.7,346.9 L1076.8,354.3 L1076.8,376.5 L1076.8,363.4 L1076.9,310.8 L1076.9,253.3 L1076.9,281.3 L1077.0,295.2 L1077.0,310.0 L1077.0,268.9 L1077.0,325.6 L1077.0,356.8 L1077.1,368.3 L1077.1,374.0 L1077.1,357.6 L1077.1,349.4 L1077.1,354.3 L1077.2,328.9 L1077.2,353.5 L1077.2,337.9 L1077.2,323.1 L1077.2,350.2 L1077.3,370.8 L1077.3,314.1 L1077.3,363.4 L1077.3,345.3 L1077.3,388.0 L1077.4,342.8 L1077.4,379.0 L1077.5,393.7 L1077.5,360.1 L1077.5,392.1 L1077.5,369.9 L1077.5,369.1 L1077.6,423.3 L1077.6,365.8 L1077.6,359.3 L1077.6,415.9 L1077.6,350.2 L1077.7,367.5 L1077.7,383.1 L1077.7,347.8 L1077.7,349.4 L1077.7,376.5 L1077.8,363.4 L1077.8,395.4 L1077.8,371.6 L1077.8,387.2 L1077.8,361.7 L1077.9,350.2 L1077.9,241.9 L1078.0,323.1 L1078.0,310.0 L1078.0,280.4 L1078.0,357.6 L1078.0,310.8 L1078.1,336.3 L1078.1,348.6 L1078.1,287.0 L1078.1,300.1 L1078.1,360.1 L1078.2,324.0 L1078.2,336.3 L1078.2,351.1 L1078.2,374.9 L1078.2,386.4 L1078.3,397.9 L1078.3,391.3 L1078.3,346.1 L1078.3,388.0 L1078.3,379.0 L1078.4,350.2 L1078.4,382.3 L1078.5,517.7 L1078.5,427.4 L1078.5,431.5 L1078.5,424.9 L1078.5,446.3 L1078.6,382.3 L1078.6,400.3 L1078.6,379.0 L1078.6,380.6 L1078.6,360.1 L1078.7,320.7 L1078.7,352.7 L1078.7,364.2 L1078.7,361.7 L1078.7,352.7 L1078.8,365.8 L1078.8,351.9 L1078.8,366.7 L1078.8,429.9 L1078.8,403.6 L1078.9,374.0 L1078.9,352.7 L1078.9,360.9 L1079.0,313.3 L1079.0,280.4 L1079.0,329.7 L1079.1,308.4 L1079.1,333.0 L1079.1,305.1 L1079.1,333.0 L1079.1,320.7 L1079.1,333.0 L1079.2,354.3 L1079.2,308.4 L1079.2,346.9 L1079.2,315.7 L1079.2,333.0 L1079.3,333.0 L1079.3,358.4 L1079.3,359.3 L1079.3,339.6 L1079.3,351.9 L1079.4,339.6 L1079.4,333.8 L1079.4,355.2 L1079.4,355.2 L1079.5,287.8 L1079.5,287.8 L1079.6,310.0 L1079.6,314.1 L1079.6,287.0 L1079.6,350.2 L1079.6,323.1 L1079.7,330.5 L1079.7,346.9 L1079.7,371.6 L1079.7,345.3 L1079.7,399.5 L1079.7,383.1 L1079.8,374.9 L1079.8,362.5 L1079.8,386.4 L1079.8,369.9 L1079.8,350.2 L1079.9,388.8 L1079.9,393.7 L1079.9,380.6 L1079.9,399.5 L1079.9,416.7 L1080.0,484.1 L1080.1,395.4 L1080.1,370.8 L1080.1,421.7 L1080.1,388.0 L1080.1,472.6 L1080.2,357.6 L1080.2,430.7 L1080.2,419.2 L1080.2,454.5 L1080.2,444.7 L1080.3,428.2 L1080.3,355.2 L1080.3,415.9 L1080.3,418.4 L1080.3,395.4 L1080.3,361.7 L1080.4,475.9 L1080.4,425.8 L1080.4,405.2 L1080.4,367.5 L1080.4,444.7 L1080.5,392.9 L1080.6,470.1 L1080.6,363.4 L1080.6,521.8 L1080.6,393.7 L1080.6,485.7 L1080.7,460.3 L1080.7,449.6 L1080.7,347.8 L1080.7,383.1 L1080.7,345.3 L1080.8,359.3 L1080.8,346.9 L1080.8,351.9 L1080.8,389.6 L1080.8,367.5 L1080.9,346.1 L1080.9,345.3 L1080.9,384.7 L1080.9,342.8 L1080.9,376.5 L1080.9,356.8 L1081.0,342.0 L1081.0,351.9 L1081.1,359.3 L1081.1,358.4 L1081.1,331.3 L1081.1,348.6 L1081.2,354.3 L1081.2,251.7 L1081.2,299.3 L1081.2,341.2 L1081.2,357.6 L1081.3,357.6 L1081.3,379.0 L1081.3,342.0 L1081.3,357.6 L1081.3,342.0 L1081.4,351.9 L1081.4,346.1 L1081.4,335.5 L1081.4,352.7 L1081.4,344.5 L1081.5,352.7 L1081.5,292.8 L1081.5,333.0 L1081.5,360.9 L1081.6,342.0 L1081.6,339.6 L1081.7,356.8 L1081.7,310.0 L1081.7,358.4 L1081.7,310.8 L1081.7,334.6 L1081.7,329.7 L1081.8,360.9 L1081.8,360.1 L1081.8,311.6 L1081.8,332.2 L1081.8,336.3 L1081.9,248.4 L1081.9,294.4 L1081.9,305.1 L1081.9,279.6 L1081.9,307.5 L1082.0,264.8 L1082.0,308.4 L1082.0,287.0 L1082.0,311.6 L1082.0,355.2 L1082.1,353.5 L1082.2,344.5 L1082.2,397.0 L1082.2,382.3 L1082.2,396.2 L1082.2,391.3 L1082.3,459.4 L1082.3,383.9 L1082.3,437.3 L1082.3,388.0 L1082.3,394.6 L1082.3,451.2 L1082.4,398.7 L1082.4,404.4 L1082.4,436.4 L1082.4,373.2 L1082.4,397.9 L1082.5,355.2 L1082.5,359.3 L1082.5,347.8 L1082.5,344.5 L1082.5,360.1 L1082.6,356.8 L1082.7,258.3 L1082.7,256.6 L1082.7,285.4 L1082.7,331.3 L1082.7,333.8 L1082.8,301.0 L1082.8,333.0 L1082.8,355.2 L1082.8,345.3 L1082.8,350.2 L1082.9,360.1 L1082.9,314.9 L1082.9,326.4 L1082.9,355.2 L1082.9,359.3 L1082.9,328.9 L1083.0,358.4 L1083.0,340.4 L1083.0,295.2 L1083.0,305.1 L1083.0,351.9 L1083.1,333.8 L1083.1,280.4 L1083.2,329.7 L1083.2,338.7 L1083.2,317.4 L1083.2,350.2 L1083.3,357.6 L1083.3,350.2 L1083.3,350.2 L1083.3,343.7 L1083.3,379.8 L1083.4,372.4 L1083.4,345.3 L1083.4,372.4 L1083.4,337.9 L1083.4,332.2 L1083.5,353.5 L1083.5,337.1 L1083.5,339.6 L1083.5,355.2 L1083.5,351.9 L1083.6,354.3 L1083.6,359.3 L1083.6,328.1 L1083.6,370.8 L1083.7,341.2 L1083.8,172.9 L1083.8,336.3 L1083.8,273.1 L1083.8,202.4 L1083.8,275.5 L1083.9,320.7 L1083.9,312.5 L1083.9,297.7 L1083.9,329.7 L1083.9,332.2 L1084.0,271.4" fill="none" stroke="#ff7f0e" stroke-width="1.1" opacity="0.85"/><text x="616" y="572" font-size="11" fill="#888">time 0..1065 s — altitude (blue) &amp; roll (orange)</text></svg>