<svg xmlns="http://www.w3.org/2000/svg" width="1140" height="600" font-family="sans-serif" font-size="13"><rect width="1140" height="600" fill="white"/><text x="20" y="26" font-size="15" fill="#333">Coludo flight</text><rect x="20" y="40" width="540" height="540" fill="#fbfbfb" stroke="#ddd"/><rect x="50" y="222" width="480" height="103" fill="#cde" stroke="#369" opacity="0.7"/><text x="50" y="217" fill="#369" font-size="12">landing zone</text><circle cx="354" cy="383" r="5" fill="black"/><text x="362" y="387" font-size="12">pad</text><path d="M354.9,383.2 L354.9,383.2 L354.9,383.2 L354.9,383.2 L354.9,383.2 L354.9,383.2 L354.9,383.2 L354.9,383.2 L354.9,383.2 L354.9,383.2 L354.9,383.2 L354.9,383.2 L354.9,383.2 L354.9,383.2 L354.9,383.2 L354.9,383.2 L354.9,383.2 L354.9,383.2 L354.9,383.2 L354.9,383.2 L354.9,383.2 L354.9,383.2 L354.9,383.2 L354.9,383.2 L354.9,383.2 L354.9,383.2 L354.9,383.2 L354.9,383.2 L354.9,383.2 L354.9,383.2 L354.9,383.2 L354.9,383.2 L354.9,383.2 L354.9,383.2 L354.9,383.2 L354.9,383.2 L354.9,383.2 L354.9,383.2 L354.9,383.2 L354.9,383.2 L354.9,383.2 L354.9,383.2 L354.9,383.2 L354.9,383.2 L354.9,383.2 L354.9,383.2 L354.9,383.2 L354.9,383.2 L354.9,383.2 L354.9,383.2 L354.9,383.2 L354.9,383.2 L354.9,383.2 L354.9,383.2 L354.9,383.2 L354.9,383.2 L354.9,383.2 L354.9,383.2 L354.9,383.2 L354.9,383.2 L354.9,383.2 L354.9,383.2 L354.9,383.2 L354.9,383.2 L354.9,383.2 L354.9,383.2 L354.9,383.2 L354.9,383.2 L354.9,383.2 L354.9,383.2 L354.9,383.2 L354.9,383.2 L354.9,383.2 L354.9,382.6 L354.9,382.0 L356.4,381.4 L356.4,380.9 L356.4,380.9 L356.4,380.3 L357.4,380.3 L357.4,380.3 L360.0,380.3 L360.0,380.3 L362.6,380.3 L362.6,380.3 L364.7,380.3 L364.7,380.3 L365.2,380.9 L365.2,380.9 L367.8,381.4 L370.3,381.4 L370.3,382.0 L372.9,382.6 L372.9,382.6 L372.9,383.2 L375.5,383.7 L378.1,384.3 L380.7,384.9 L380.7,384.9 L381.2,385.5 L383.2,386.0 L385.8,386.6 L385.8,387.2 L388.4,387.7 L389.4,388.3 L389.4,388.9 L391.0,389.5 L393.6,390.0 L396.1,390.6 L396.1,391.2 L397.7,391.7 L398.7,391.7 L398.7,391.7 L401.3,392.3 L403.9,392.9 L403.9,392.9 L405.9,393.5 L406.5,394.0 L409.0,394.0 L409.0,394.6 L411.6,395.2 L414.2,395.2 L414.2,395.7 L416.3,395.7 L416.8,396.3 L416.8,396.3 L419.3,396.9 L419.3,396.9 L421.9,396.9 L422.4,397.5 L422.4,397.5 L424.5,397.5 L427.1,398.0 L427.1,398.0 L429.7,398.0 L429.7,398.0 L430.7,398.0 L430.7,398.0 L432.2,398.0 L432.2,398.0 L434.8,398.0 L434.8,398.0 L437.4,398.0 L437.4,398.0 L439.0,398.0 L439.0,398.0 L439.0,398.0 L440.0,397.5 L440.0,397.5 L442.6,397.5 L442.6,397.5 L442.6,396.9 L445.1,396.9 L445.1,396.3 L445.1,396.3 L447.7,396.3 L447.7,395.7 L449.3,395.7 L449.3,395.2 L449.3,395.2 L449.3,394.6 L450.3,394.6 L450.3,394.0 L450.3,394.0 L452.9,393.5 L452.9,393.5 L452.9,392.9 L455.5,392.9 L455.5,392.3 L455.5,391.7 L455.5,391.7 L457.5,391.7 L457.5,391.7 L457.5,391.2 L457.5,390.6 L458.0,390.6 L458.0,390.0 L458.0,389.5 L458.0,388.9 L460.6,388.9 L460.6,388.3 L460.6,387.7 L460.6,387.7 L460.6,387.2 L463.2,386.6 L463.2,386.0 L463.2,386.0 L463.2,385.5 L463.7,384.9 L463.7,384.3 L463.7,384.3 L463.7,383.7 L463.7,383.2 L465.8,382.6 L465.8,382.6 L465.8,382.0 L465.8,381.4 L465.8,380.9 L465.8,380.3 L468.4,380.3 L468.4,379.7 L468.4,379.7 L468.4,379.2 L468.4,378.6 L468.4,378.0 L468.4,377.4 L470.9,376.9 L470.9,376.3 L470.9,375.7 L470.9,375.2 L470.9,374.0 L470.9,374.0 L470.9,373.4 L472.0,372.9 L472.0,372.3 L472.0,371.7 L472.0,371.2 L472.0,370.6 L472.0,370.0 L472.0,369.4 L473.5,368.9 L473.5,368.9 L473.5,368.9 L473.5,368.3 L473.5,367.7 L473.5,367.2 L476.1,366.6 L476.1,366.0 L476.1,366.0 L476.1,365.4 L476.1,364.3 L478.7,363.7 L478.7,363.7 L478.7,363.2 L478.7,362.6 L478.7,362.0 L478.7,361.4 L480.2,360.9 L480.2,360.3 L480.2,360.3 L480.2,359.2 L480.2,358.6 L480.2,358.0 L480.2,357.4 L480.2,356.9 L481.3,356.9 L481.3,356.3 L481.3,355.7 L481.3,355.2 L481.3,354.6 L481.3,353.4 L481.3,352.9 L481.3,352.3 L481.3,351.7 L483.8,351.2 L483.8,350.6 L483.8,350.0 L483.8,349.4 L483.8,348.9 L483.8,348.3 L483.8,347.7 L483.8,347.2 L486.4,346.6 L486.4,346.0 L486.4,345.4 L486.4,345.4 L486.4,344.9 L486.4,344.3 L486.4,344.3 L489.0,343.7 L489.0,342.6 L489.0,342.0 L489.0,341.4 L489.0,340.9 L489.0,340.9 L489.5,340.3 L489.5,339.7 L489.5,339.2 L489.5,338.6 L489.5,338.0 L489.5,336.9 L491.6,336.9 L491.6,336.3 L491.6,335.7 L491.6,335.2 L491.6,334.6 L491.6,334.0 L491.6,333.4 L494.1,333.4 L494.1,332.9 L494.1,332.3 L494.1,332.3 L496.7,331.7 L496.7,331.1 L496.7,330.6 L496.7,330.0 L496.7,329.4 L496.7,329.4 L498.8,328.9 L498.8,328.3 L498.8,327.1 L498.8,326.6 L498.8,326.0 L498.8,325.4 L498.8,325.4 L499.3,324.3 L499.3,324.3 L499.3,323.7 L499.3,323.1 L499.3,322.6 L499.3,321.4 L499.3,320.9 L499.3,320.3 L498.8,319.1 L498.8,318.6 L498.8,317.4 L496.7,316.3 L496.7,315.7 L496.7,314.6 L494.1,313.4 L491.6,311.7 L489.5,310.6 L489.5,310.0 L489.0,308.9 L486.4,307.7 L483.8,307.1 L481.3,306.0 L480.2,304.9 L478.7,303.7 L476.1,302.6 L472.0,300.9 L470.9,300.3 L465.8,299.1 L463.7,298.0 L460.6,297.4 L458.0,296.9 L455.5,295.7 L452.9,295.1 L449.3,294.6 L447.7,294.0 L440.0,292.3 L437.4,291.7 L432.2,291.1 L429.7,290.6 L424.5,290.6 L421.9,290.0 L416.8,290.0 L414.2,289.4 L409.0,289.4 L405.9,289.4 L397.7,289.4 L393.6,289.4 L388.4,289.4 L383.2,289.4 L378.1,290.0 L372.9,290.6 L370.3,291.1 L364.7,291.1 L360.0,292.3 L354.9,292.9 L347.1,294.0 L339.9,295.1 L336.8,295.7 L331.7,296.9 L323.9,297.4 L321.3,298.6 L315.1,299.7 L308.4,300.9 L305.9,301.4 L298.6,302.6 L290.4,304.9 L285.2,306.0 L280.1,307.1 L273.9,308.3 L269.8,308.9 L264.6,310.0 L259.4,310.6 L254.3,311.7 L247.1,312.3 L236.2,314.6 L231.1,315.1 L224.4,315.7 L220.7,316.3 L215.1,317.4 L210.4,318.0 L205.3,318.6 L200.1,319.1 L195.0,319.7 L183.1,320.9 L176.9,321.4 L173.8,321.4 L166.6,321.4 L164.0,321.4 L158.8,322.0 L156.3,322.0 L150.1,322.6 L139.8,322.6 L133.1,323.1 L130.5,323.1 L125.3,323.1 L120.2,323.1 L117.1,323.1 L112.4,323.1 L108.8,323.1 L102.1,323.1 L98.5,323.1 L90.2,323.1" fill="none" stroke="#1f77b4" stroke-width="1.7" opacity="0.85"/><circle cx="90" cy="323" r="4.5" fill="#1f77b4"/><text x="28" y="572" font-size="11" fill="#888">ground track — m from pad (N up)</text><rect x="580" y="40" width="540" height="540" fill="#fbfbfb" stroke="#ddd"/><text x="586" y="54" fill="#1f77b4" font-size="11">alt 307</text><text x="586" y="558" fill="#1f77b4" font-size="11">-49</text><path d="M1062.2,476.9 L1062.2,476.5 L1062.3,476.4 L1062.3,476.8 L1062.3,476.3 L1062.3,475.5 L1062.3,475.8 L1062.4,475.5 L1062.4,474.3 L1062.4,474.5 L1062.4,473.8 L1062.5,473.1 L1062.5,471.7 L1062.5,471.8 L1062.5,470.4 L1062.5,470.2 L1062.6,468.0 L1062.6,467.4 L1062.6,468.4 L1062.6,465.8 L1062.6,465.4 L1062.7,464.5 L1062.7,464.5 L1062.7,460.0 L1062.7,458.5 L1062.7,460.8 L1062.8,457.0 L1062.8,457.3 L1062.8,456.3 L1062.8,455.7 L1062.8,449.3 L1062.9,450.2 L1062.9,446.2 L1062.9,446.3 L1062.9,442.3 L1062.9,444.9 L1063.0,441.6 L1063.0,443.0 L1063.0,436.1 L1063.0,436.0 L1063.0,434.2 L1063.1,431.4 L1063.1,428.3 L1063.1,427.0 L1063.1,428.2 L1063.1,422.4 L1063.2,425.3 L1063.2,413.8 L1063.2,407.9 L1063.2,410.5 L1063.2,405.0 L1063.3,412.2 L1063.3,400.6 L1063.3,396.6 L1063.3,405.1 L1063.3,398.0 L1063.4,386.6 L1063.4,395.1 L1063.4,389.2 L1063.4,389.6 L1063.4,378.6 L1063.5,381.6 L1063.5,370.2 L1063.5,380.7 L1063.5,358.8 L1063.5,368.8 L1063.6,371.1 L1063.6,354.1 L1063.6,353.5 L1063.6,348.3 L1063.7,353.6 L1063.7,336.0 L1063.7,351.8 L1063.7,353.3 L1063.7,327.6 L1063.8,325.9 L1063.8,337.0 L1063.8,336.6 L1063.8,333.5 L1063.8,328.0 L1063.9,306.0 L1063.9,322.6 L1063.9,297.7 L1063.9,299.6 L1063.9,307.8 L1064.0,296.8 L1064.0,284.2 L1064.0,274.0 L1064.0,281.7 L1064.0,271.9 L1064.1,281.9 L1064.1,275.4 L1064.1,256.6 L1064.1,261.6 L1064.1,258.6 L1064.2,270.7 L1064.2,267.0 L1064.2,257.9 L1064.2,269.5 L1064.2,235.9 L1064.3,269.0 L1064.3,225.2 L1064.3,258.2 L1064.3,225.9 L1064.3,244.5 L1064.4,237.2 L1064.4,217.1 L1064.4,243.5 L1064.4,227.6 L1064.4,234.1 L1064.5,230.2 L1064.5,231.2 L1064.5,193.5 L1064.5,228.3 L1064.5,220.8 L1064.6,206.7 L1064.6,204.3 L1064.6,224.3 L1064.6,202.6 L1064.7,204.3 L1064.7,207.9 L1064.7,217.3 L1064.7,214.7 L1064.7,180.3 L1064.8,213.4 L1064.8,159.8 L1064.8,187.0 L1064.8,178.3 L1064.8,158.6 L1064.9,193.4 L1064.9,150.5 L1064.9,149.7 L1064.9,177.1 L1064.9,133.8 L1065.0,151.9 L1065.0,156.0 L1065.0,142.0 L1065.0,182.4 L1065.0,139.3 L1065.1,132.8 L1065.1,153.5 L1065.1,122.8 L1065.1,170.8 L1065.2,121.9 L1065.2,164.1 L1065.2,173.0 L1065.2,154.0 L1065.2,154.7 L1065.3,161.4 L1065.3,138.1 L1065.3,114.5 L1065.3,165.6 L1065.3,139.7 L1065.4,110.3 L1065.4,122.3 L1065.4,163.2 L1065.4,111.3 L1065.4,158.8 L1065.5,124.8 L1065.5,107.5 L1065.5,117.7 L1065.5,95.7 L1065.6,107.0 L1065.6,109.7 L1065.6,89.1 L1065.6,120.3 L1065.6,102.2 L1065.7,120.1 L1065.7,84.3 L1065.7,108.9 L1065.7,130.6 L1065.7,86.4 L1065.8,81.8 L1065.8,144.9 L1065.8,88.1 L1065.8,118.0 L1065.8,77.6 L1065.9,89.8 L1065.9,99.2 L1065.9,133.6 L1065.9,111.6 L1065.9,135.3 L1066.0,76.2 L1066.0,84.4 L1066.0,105.0 L1066.0,86.8 L1066.1,115.4 L1066.1,104.4 L1066.1,85.9 L1066.1,111.5 L1066.1,136.5 L1066.2,133.7 L1066.2,85.9 L1066.2,137.7 L1066.2,100.9 L1066.3,94.5 L1066.3,116.2 L1066.3,112.7 L1066.3,104.4 L1066.3,140.5 L1066.4,76.0 L1066.4,85.2 L1066.4,115.6 L1066.4,123.4 L1066.4,118.8 L1066.5,95.8 L1066.5,86.7 L1066.5,109.9 L1066.5,118.6 L1066.5,111.2 L1066.6,131.9 L1066.6,131.2 L1066.6,93.5 L1066.6,110.5 L1066.7,136.0 L1066.7,126.4 L1066.7,142.6 L1066.7,143.7 L1066.7,111.4 L1066.8,101.4 L1066.8,99.7 L1066.8,93.9 L1066.8,104.1 L1066.8,101.7 L1066.9,107.0 L1066.9,143.2 L1066.9,132.6 L1066.9,126.4 L1066.9,145.2 L1067.0,143.3 L1067.0,107.8 L1067.0,104.4 L1067.0,78.9 L1067.1,114.9 L1067.1,106.4 L1067.1,79.0 L1067.1,113.1 L1067.1,89.1 L1067.2,94.0 L1067.2,136.0 L1067.2,109.3 L1067.2,80.9 L1067.2,95.2 L1067.3,139.3 L1067.3,116.0 L1067.3,129.8 L1067.3,127.8 L1067.3,98.1 L1067.4,123.0 L1067.4,132.9 L1067.4,132.0 L1067.4,88.4 L1067.4,118.2 L1067.5,143.4 L1067.5,133.4 L1067.5,96.8 L1067.5,102.8 L1067.6,84.0 L1067.6,143.6 L1067.6,104.9 L1067.6,86.6 L1067.6,91.6 L1067.7,143.3 L1067.7,154.5 L1067.7,103.0 L1067.7,152.2 L1067.7,117.5 L1067.8,141.8 L1067.8,108.6 L1067.8,110.3 L1067.8,115.6 L1067.8,118.6 L1067.9,126.3 L1067.9,103.1 L1067.9,102.3 L1067.9,153.1 L1068.0,137.9 L1068.0,100.6 L1068.0,91.5 L1068.0,135.9 L1068.1,103.6 L1068.1,129.6 L1068.1,101.4 L1068.1,145.2 L1068.1,97.1 L1068.2,118.4 L1068.2,160.6 L1068.2,123.9 L1068.2,123.1 L1068.2,111.0 L1068.3,161.8 L1068.3,160.5 L1068.3,158.2 L1068.3,150.5 L1068.3,154.7 L1068.4,108.8 L1068.4,102.5 L1068.4,123.3 L1068.4,115.1 L1068.5,139.9 L1068.5,161.4 L1068.5,136.4 L1068.5,153.8 L1068.6,115.6 L1068.6,120.4 L1068.6,108.5 L1068.6,122.7 L1068.6,106.8 L1068.7,136.3 L1068.7,108.7 L1068.7,106.7 L1068.7,122.3 L1068.7,144.5 L1068.8,113.4 L1068.8,120.4 L1068.8,166.6 L1068.8,102.7 L1068.8,156.4 L1068.9,104.5 L1068.9,142.6 L1068.9,135.5 L1068.9,107.0 L1069.0,154.8 L1069.0,156.3 L1069.0,150.0 L1069.0,114.1 L1069.1,167.1 L1069.1,144.5 L1069.1,110.8 L1069.1,149.0 L1069.1,141.3 L1069.2,162.7 L1069.2,120.2 L1069.2,127.1 L1069.2,121.1 L1069.2,113.2 L1069.3,124.5 L1069.3,134.7 L1069.3,166.3 L1069.3,138.3 L1069.4,116.3 L1069.4,129.1 L1069.4,178.0 L1069.4,170.4 L1069.4,115.3 L1069.5,166.5 L1069.5,148.4 L1069.5,124.7 L1069.6,138.3 L1069.6,153.5 L1069.6,136.3 L1069.6,126.4 L1069.6,174.4 L1069.7,150.6 L1069.7,159.4 L1069.7,157.3 L1069.7,121.3 L1069.7,180.7 L1069.8,125.4 L1069.8,126.4 L1069.8,126.4 L1069.8,170.7 L1069.8,163.8 L1069.9,156.9 L1069.9,128.5 L1069.9,158.6 L1069.9,170.0 L1069.9,148.4 L1070.0,127.5 L1070.0,186.6 L1070.0,173.3 L1070.1,156.7 L1070.1,188.8 L1070.1,167.4 L1070.1,176.0 L1070.1,188.7 L1070.2,159.8 L1070.2,161.8 L1070.2,184.9 L1070.2,191.5 L1070.2,135.5 L1070.3,146.5 L1070.3,191.9 L1070.3,151.9 L1070.3,151.9 L1070.3,195.1 L1070.4,152.5 L1070.4,186.3 L1070.4,197.0 L1070.4,173.5 L1070.5,184.5 L1070.5,177.7 L1070.5,145.6 L1070.6,143.1 L1070.6,175.5 L1070.6,155.5 L1070.6,194.5 L1070.6,165.8 L1070.7,165.5 L1070.7,166.1 L1070.7,164.7 L1070.7,187.2 L1070.7,176.4 L1070.8,167.8 L1070.8,191.2 L1070.8,143.9 L1070.8,174.7 L1070.8,186.9 L1070.9,196.3 L1070.9,198.4 L1070.9,167.6 L1070.9,161.0 L1070.9,165.4 L1071.0,188.6 L1071.0,183.5 L1071.0,174.2 L1071.1,164.9 L1071.1,175.2 L1071.1,204.4 L1071.1,168.4 L1071.1,199.4 L1071.2,203.3 L1071.2,177.3 L1071.2,202.3 L1071.2,162.2 L1071.2,186.8 L1071.3,208.7 L1071.3,192.8 L1071.3,187.2 L1071.3,162.6 L1071.3,156.5 L1071.4,174.0 L1071.4,163.3 L1071.4,175.3 L1071.4,166.1 L1071.4,204.1 L1071.5,192.5 L1071.5,181.3 L1071.5,162.1 L1071.6,204.0 L1071.6,174.3 L1071.6,198.4 L1071.6,220.2 L1071.6,179.1 L1071.7,219.0 L1071.7,185.4 L1071.7,187.3 L1071.7,218.8 L1071.8,208.7 L1071.8,177.7 L1071.8,184.8 L1071.8,177.0 L1071.8,180.5 L1071.9,204.6 L1071.9,187.3 L1071.9,177.1 L1071.9,210.2 L1071.9,183.6 L1072.0,191.3 L1072.0,205.2 L1072.0,180.9 L1072.1,216.0 L1072.1,229.4 L1072.1,220.6 L1072.1,189.1 L1072.1,215.7 L1072.2,181.2 L1072.2,228.8 L1072.2,208.9 L1072.2,183.7 L1072.2,217.1 L1072.3,213.4 L1072.3,199.1 L1072.3,185.2 L1072.3,209.2 L1072.3,220.4 L1072.4,184.7 L1072.4,234.5 L1072.4,236.1 L1072.4,202.4 L1072.4,186.4 L1072.5,237.0 L1072.5,224.0 L1072.5,188.9 L1072.6,221.9 L1072.6,239.9 L1072.6,193.7 L1072.6,196.2 L1072.7,194.6 L1072.7,236.5 L1072.7,217.9 L1072.7,210.5 L1072.7,217.9 L1072.8,199.6 L1072.8,241.4 L1072.8,197.8 L1072.8,226.0 L1072.8,222.0 L1072.9,217.3 L1072.9,243.8 L1072.9,247.4 L1072.9,209.5 L1072.9,236.9 L1073.0,219.5 L1073.0,226.0 L1073.0,246.2 L1073.1,200.8 L1073.1,235.2 L1073.1,246.8 L1073.1,218.0 L1073.1,212.1 L1073.2,208.3 L1073.2,236.2 L1073.2,233.7 L1073.2,206.4 L1073.2,255.1 L1073.3,233.6 L1073.3,207.5 L1073.3,239.6 L1073.3,229.7 L1073.3,221.4 L1073.4,232.5 L1073.4,218.0 L1073.4,248.4 L1073.4,251.1 L1073.4,225.9 L1073.5,257.2 L1073.5,254.7 L1073.5,257.9 L1073.6,258.5 L1073.6,257.0 L1073.6,241.5 L1073.6,242.2 L1073.7,218.9 L1073.7,250.3 L1073.7,253.2 L1073.7,225.0 L1073.7,235.7 L1073.8,230.1 L1073.8,229.4 L1073.8,252.8 L1073.8,252.4 L1073.8,260.8 L1073.9,237.5 L1073.9,245.5 L1073.9,238.5 L1073.9,244.2 L1073.9,230.4 L1074.0,269.7 L1074.0,270.5 L1074.0,243.2 L1074.1,239.9 L1074.1,246.5 L1074.2,233.7 L1074.2,232.7 L1074.2,259.6 L1074.2,255.5 L1074.2,269.5 L1074.3,261.2 L1074.3,258.1 L1074.3,275.7 L1074.3,254.7 L1074.3,244.8 L1074.4,240.9 L1074.4,242.7 L1074.4,253.6 L1074.4,252.2 L1074.4,259.5 L1074.5,252.3 L1074.5,276.4 L1074.5,274.9 L1074.5,246.7 L1074.5,273.3 L1074.6,257.3 L1074.7,283.9 L1074.7,267.2 L1074.7,251.0 L1074.7,252.0 L1074.7,285.4 L1074.8,281.0 L1074.8,252.4 L1074.8,288.9 L1074.8,284.5 L1074.9,251.7 L1074.9,279.7 L1074.9,257.2 L1074.9,279.2 L1074.9,256.0 L1075.0,285.3 L1075.0,264.0 L1075.0,262.5 L1075.0,271.3 L1075.0,255.6 L1075.1,272.7 L1075.1,266.5 L1075.1,278.8 L1075.1,259.4 L1075.2,268.4 L1075.2,282.3 L1075.3,297.8 L1075.3,292.2 L1075.3,266.0 L1075.3,279.4 L1075.3,290.8 L1075.4,294.4 L1075.4,302.5 L1075.4,289.9 L1075.4,277.9 L1075.4,293.1 L1075.5,268.8 L1075.5,286.7 L1075.5,279.0 L1075.5,303.5 L1075.5,295.8 L1075.6,278.4 L1075.6,288.6 L1075.6,300.0 L1075.6,297.1 L1075.6,287.9 L1075.7,295.3 L1075.8,307.7 L1075.8,286.9 L1075.8,304.9 L1075.8,301.7 L1075.8,296.9 L1075.9,299.2 L1075.9,315.0 L1075.9,306.4 L1075.9,285.8 L1075.9,308.8 L1076.0,313.5 L1076.0,284.4 L1076.0,291.5 L1076.0,285.0 L1076.0,301.8 L1076.1,298.6 L1076.1,304.9 L1076.1,321.8 L1076.1,305.9 L1076.2,317.7 L1076.2,323.5 L1076.2,324.0 L1076.2,295.9 L1076.3,310.6 L1076.3,324.1 L1076.4,310.7 L1076.4,315.4 L1076.4,325.9 L1076.4,305.1 L1076.4,308.2 L1076.5,301.2 L1076.5,321.2 L1076.5,325.1 L1076.5,329.8 L1076.5,301.3 L1076.6,319.7 L1076.6,331.0 L1076.6,308.2 L1076.6,332.9 L1076.6,324.2 L1076.7,305.0 L1076.7,306.5 L1076.7,314.4 L1076.7,329.1 L1076.7,311.1 L1076.8,309.3 L1076.9,318.0 L1076.9,315.6 L1076.9,333.1 L1076.9,311.5 L1076.9,320.5 L1077.0,340.5 L1077.0,316.5 L1077.0,317.6 L1077.0,317.0 L1077.0,329.1 L1077.1,342.5 L1077.1,333.0 L1077.1,335.8 L1077.1,334.4 L1077.1,338.6 L1077.2,340.4 L1077.2,348.2 L1077.2,323.0 L1077.2,324.0 L1077.3,348.6 L1077.3,339.5 L1077.3,346.9 L1077.3,326.9 L1077.4,336.8 L1077.4,328.7 L1077.5,347.0 L1077.5,346.5 L1077.5,329.5 L1077.5,334.9 L1077.5,349.2 L1077.6,338.2 L1077.6,348.9 L1077.6,350.3 L1077.6,359.6 L1077.6,335.2 L1077.7,348.4 L1077.7,356.3 L1077.7,347.9 L1077.7,358.0 L1077.7,355.1 L1077.8,339.8 L1077.8,357.8 L1077.8,363.6 L1077.8,351.7 L1077.8,358.5 L1077.9,364.5 L1078.0,346.3 L1078.0,345.9 L1078.0,345.2 L1078.0,351.2 L1078.0,351.4 L1078.1,365.2 L1078.1,348.2 L1078.1,349.7 L1078.1,364.8 L1078.1,363.0 L1078.2,362.8 L1078.2,364.6 L1078.2,354.4 L1078.2,352.3 L1078.2,361.0 L1078.3,354.0 L1078.3,368.0 L1078.3,376.8 L1078.3,356.0 L1078.4,375.7 L1078.4,373.1 L1078.4,361.9 L1078.4,361.0 L1078.5,369.0 L1078.5,364.5 L1078.6,364.5 L1078.6,382.3 L1078.6,370.0 L1078.6,376.3 L1078.6,364.6 L1078.7,372.7 L1078.7,379.8 L1078.7,366.6 L1078.7,379.4 L1078.7,373.5 L1078.8,369.9 L1078.8,380.7 L1078.8,372.7 L1078.8,386.0 L1078.8,373.9 L1078.9,381.7 L1078.9,373.1 L1078.9,386.9 L1078.9,380.4 L1078.9,390.8 L1079.0,379.9 L1079.1,391.5 L1079.1,382.5 L1079.1,395.5 L1079.1,390.5 L1079.1,383.9 L1079.2,391.7 L1079.2,395.7 L1079.2,393.7 L1079.2,392.4 L1079.2,391.6 L1079.3,386.7 L1079.3,397.5 L1079.3,401.1 L1079.3,393.1 L1079.3,400.9 L1079.4,399.2 L1079.4,398.7 L1079.4,402.4 L1079.4,397.3 L1079.5,405.4 L1079.5,404.6 L1079.5,395.6 L1079.5,406.5 L1079.6,408.4 L1079.6,408.2 L1079.7,407.4 L1079.7,404.3 L1079.7,406.0 L1079.7,409.4 L1079.7,409.2 L1079.8,408.0 L1079.8,403.0 L1079.8,414.7 L1079.8,410.8 L1079.8,409.0 L1079.9,413.5 L1079.9,411.5 L1079.9,413.4 L1079.9,419.8 L1079.9,414.8 L1080.0,418.5 L1080.0,411.1 L1080.0,412.1 L1080.0,420.2 L1080.0,411.8 L1080.1,412.4 L1080.2,416.7 L1080.2,416.1 L1080.2,418.3 L1080.2,418.0 L1080.2,425.2 L1080.3,422.2 L1080.3,422.3 L1080.3,426.1 L1080.3,429.5 L1080.3,426.3 L1080.4,429.7 L1080.4,430.5 L1080.4,428.7 L1080.4,432.3 L1080.5,435.2 L1080.5,426.1 L1080.5,433.7 L1080.5,435.5 L1080.5,435.0 L1080.6,435.4 L1080.6,434.2 L1080.6,435.4 L1080.6,433.0 L1080.7,435.5 L1080.7,443.3 L1080.8,443.8 L1080.8,437.5 L1080.8,440.4 L1080.8,440.5 L1080.8,444.2 L1080.9,446.3 L1080.9,447.9 L1080.9,445.1 L1080.9,447.4 L1080.9,443.2 L1081.0,448.7 L1081.0,449.8 L1081.0,450.3 L1081.0,448.6 L1081.0,449.7 L1081.1,453.5 L1081.1,452.3 L1081.1,454.7 L1081.1,453.1 L1081.1,450.8 L1081.2,454.7 L1081.3,458.0 L1081.3,459.8 L1081.3,458.7 L1081.3,457.7 L1081.4,461.6 L1081.4,460.1 L1081.4,461.6 L1081.4,462.9 L1081.4,462.0 L1081.5,464.7 L1081.5,463.0 L1081.5,466.1 L1081.5,466.4 L1081.5,466.9 L1081.6,467.1 L1081.6,467.9 L1081.6,467.8 L1081.6,470.0 L1081.6,468.6 L1081.7,470.0 L1081.7,470.6 L1081.7,471.8 L1081.7,472.9 L1081.8,475.3 L1081.8,475.9 L1081.9,477.1 L1081.9,477.6 L1081.9,478.3 L1081.9,479.1 L1081.9,479.6 L1082.0,480.3 L1082.0,481.2 L1082.0,481.4 L1082.0,481.8 L1082.1,482.6 L1082.1,483.8 L1082.1,483.9 L1082.1,485.0 L1082.1,485.3 L1082.2,486.5 L1082.2,487.7 L1082.2,486.7 L1082.2,488.1 L1082.2,488.8 L1082.3,489.4 L1082.3,489.9 L1082.4,492.2 L1082.4,494.3 L1082.4,493.3 L1082.4,494.8 L1082.5,497.0 L1082.5,497.0 L1082.5,497.4 L1082.5,497.5 L1082.5,498.3 L1082.6,500.3 L1082.6,498.2 L1082.6,502.1 L1082.6,499.8 L1082.6,499.2 L1082.7,503.5 L1082.7,502.4 L1082.7,503.2 L1082.7,505.5 L1082.8,502.3 L1082.8,502.9 L1082.8,507.6 L1082.8,505.3 L1082.8,505.2 L1082.9,509.8 L1082.9,507.7 L1083.0,513.0 L1083.0,511.0 L1083.0,515.7 L1083.0,511.6 L1083.1,514.3 L1083.1,514.2 L1083.1,517.8 L1083.1,517.0 L1083.1,512.5 L1083.2,517.8 L1083.2,515.8 L1083.2,516.6 L1083.2,520.0 L1083.2,516.6 L1083.3,518.4 L1083.3,521.8 L1083.3,524.5 L1083.4,520.5 L1083.5,526.7 L1083.5,530.4 L1083.5,529.0 L1083.5,529.9 L1083.5,524.6 L1083.6,530.8 L1083.6,527.1 L1083.6,530.7 L1083.6,530.4 L1083.7,536.1 L1083.7,534.4 L1083.7,531.9 L1083.7,534.1 L1083.7,532.2 L1083.8,532.2 L1083.8,529.8 L1083.8,530.0 L1083.8,536.2 L1083.8,539.2 L1083.9,539.4 L1083.9,534.8 L1083.9,537.9 L1083.9,533.0 L1084.0,544.0 L1084.0,538.8" fill="none" stroke="#1f77b4" stroke-width="1.4" opacity="0.85"/><text x="1040" y="54" fill="#ff7f0e" font-size="11">roll 42</text><text x="1090" y="558" fill="#ff7f0e" font-size="11">-21</text><path d="M1062.2,390.5 L1062.2,390.5 L1062.3,391.2 L1062.3,390.5 L1062.3,391.2 L1062.3,391.2 L1062.3,391.2 L1062.4,390.5 L1062.4,391.2 L1062.4,389.7 L1062.4,391.2 L1062.5,390.5 L1062.5,389.7 L1062.5,388.2 L1062.5,389.7 L1062.5,389.7 L1062.6,386.8 L1062.6,386.0 L1062.6,386.8 L1062.6,386.8 L1062.6,384.5 L1062.7,383.1 L1062.7,382.3 L1062.7,380.1 L1062.7,380.8 L1062.7,380.1 L1062.8,378.6 L1062.8,378.6 L1062.8,376.4 L1062.8,374.9 L1062.8,374.9 L1062.9,374.9 L1062.9,368.2 L1062.9,368.2 L1062.9,369.0 L1062.9,363.0 L1063.0,360.8 L1063.0,363.0 L1063.0,361.5 L1063.0,356.4 L1063.0,357.8 L1063.1,359.3 L1063.1,352.6 L1063.1,348.9 L1063.1,354.9 L1063.1,351.9 L1063.2,350.4 L1063.2,346.0 L1063.2,340.8 L1063.2,340.8 L1063.2,343.7 L1063.3,334.1 L1063.3,336.3 L1063.3,334.8 L1063.3,326.7 L1063.3,328.2 L1063.4,329.7 L1063.4,320.8 L1063.4,326.7 L1063.4,322.2 L1063.4,320.8 L1063.5,311.9 L1063.5,319.3 L1063.5,308.9 L1063.5,297.8 L1063.5,298.5 L1063.6,302.2 L1063.6,302.2 L1063.6,303.7 L1063.6,300.7 L1063.7,281.4 L1063.7,285.9 L1063.7,280.7 L1063.7,274.8 L1063.7,273.3 L1063.8,262.2 L1063.8,281.4 L1063.8,277.0 L1063.8,274.0 L1063.8,258.5 L1063.9,254.7 L1063.9,255.5 L1063.9,257.0 L1063.9,239.9 L1063.9,242.1 L1064.0,260.7 L1064.0,238.4 L1064.0,253.3 L1064.0,238.4 L1064.0,249.6 L1064.1,241.4 L1064.1,232.5 L1064.1,214.0 L1064.1,242.1 L1064.1,236.2 L1064.2,217.7 L1064.2,217.7 L1064.2,208.8 L1064.2,208.0 L1064.2,199.9 L1064.3,206.5 L1064.3,195.4 L1064.3,209.5 L1064.3,187.3 L1064.3,212.5 L1064.4,211.0 L1064.4,188.7 L1064.4,176.9 L1064.4,185.0 L1064.4,173.9 L1064.5,187.3 L1064.5,165.7 L1064.5,196.2 L1064.5,186.5 L1064.5,182.1 L1064.6,177.6 L1064.6,194.7 L1064.6,192.4 L1064.6,179.8 L1064.7,184.3 L1064.7,170.9 L1064.7,164.3 L1064.7,159.8 L1064.7,138.3 L1064.8,134.6 L1064.8,161.3 L1064.8,169.5 L1064.8,138.3 L1064.8,150.2 L1064.9,165.0 L1064.9,131.6 L1064.9,149.4 L1064.9,154.6 L1064.9,152.4 L1065.0,148.7 L1065.0,140.5 L1065.0,156.8 L1065.0,150.2 L1065.0,116.1 L1065.1,113.8 L1065.1,117.5 L1065.1,113.1 L1065.1,141.3 L1065.2,118.3 L1065.2,124.2 L1065.2,144.2 L1065.2,140.5 L1065.2,111.6 L1065.3,145.7 L1065.3,92.3 L1065.3,91.6 L1065.3,135.3 L1065.3,115.3 L1065.4,106.4 L1065.4,108.6 L1065.4,131.6 L1065.4,122.0 L1065.4,134.6 L1065.5,121.2 L1065.5,84.2 L1065.5,128.7 L1065.5,133.1 L1065.6,129.4 L1065.6,84.2 L1065.6,91.6 L1065.6,117.5 L1065.6,90.1 L1065.7,77.5 L1065.7,76.0 L1065.7,84.9 L1065.7,76.7 L1065.7,121.2 L1065.8,89.4 L1065.8,128.7 L1065.8,95.3 L1065.8,90.8 L1065.8,106.4 L1065.9,125.7 L1065.9,386.0 L1065.9,372.7 L1065.9,357.1 L1065.9,337.1 L1066.0,337.1 L1066.0,317.8 L1066.0,307.4 L1066.0,294.8 L1066.1,284.4 L1066.1,282.9 L1066.1,290.3 L1066.1,284.4 L1066.1,278.5 L1066.2,269.6 L1066.2,267.4 L1066.2,290.3 L1066.2,292.6 L1066.2,270.3 L1066.3,282.2 L1066.3,287.4 L1066.3,279.2 L1066.3,272.5 L1066.4,291.1 L1066.4,292.6 L1066.4,282.2 L1066.4,292.6 L1066.4,282.9 L1066.5,287.4 L1066.5,302.2 L1066.5,311.1 L1066.5,305.9 L1066.5,308.9 L1066.6,320.0 L1066.6,311.9 L1066.6,314.1 L1066.6,325.9 L1066.7,319.3 L1066.7,325.2 L1066.7,322.2 L1066.7,334.1 L1066.7,331.1 L1066.8,320.0 L1066.8,340.0 L1066.8,337.1 L1066.8,344.5 L1066.8,343.7 L1066.9,349.7 L1066.9,350.4 L1066.9,351.2 L1066.9,348.2 L1066.9,353.4 L1067.0,346.7 L1067.0,343.0 L1067.0,350.4 L1067.0,348.9 L1067.1,363.0 L1067.1,367.5 L1067.1,368.2 L1067.1,369.7 L1067.1,372.7 L1067.2,374.9 L1067.2,379.3 L1067.2,380.8 L1067.2,376.4 L1067.2,381.6 L1067.3,384.5 L1067.3,384.5 L1067.3,380.1 L1067.3,387.5 L1067.3,389.7 L1067.4,388.2 L1067.4,390.5 L1067.4,394.2 L1067.4,392.7 L1067.4,394.2 L1067.5,396.4 L1067.5,392.7 L1067.5,395.7 L1067.5,396.4 L1067.6,398.6 L1067.6,399.4 L1067.6,394.2 L1067.6,395.7 L1067.6,397.9 L1067.7,401.6 L1067.7,401.6 L1067.7,403.8 L1067.7,406.8 L1067.7,406.0 L1067.8,408.3 L1067.8,405.3 L1067.8,400.1 L1067.8,402.3 L1067.8,399.4 L1067.9,402.3 L1067.9,402.3 L1067.9,405.3 L1067.9,406.8 L1068.0,427.6 L1068.0,423.8 L1068.0,429.8 L1068.0,423.8 L1068.1,417.2 L1068.1,420.9 L1068.1,419.4 L1068.1,414.2 L1068.1,411.2 L1068.2,409.8 L1068.2,412.7 L1068.2,416.4 L1068.2,414.2 L1068.2,413.5 L1068.3,419.4 L1068.3,418.7 L1068.3,414.2 L1068.3,418.7 L1068.3,410.5 L1068.4,412.0 L1068.4,411.2 L1068.4,416.4 L1068.4,417.2 L1068.5,424.6 L1068.5,418.7 L1068.5,423.1 L1068.5,424.6 L1068.6,419.4 L1068.6,421.6 L1068.6,420.1 L1068.6,417.2 L1068.6,412.7 L1068.7,421.6 L1068.7,412.7 L1068.7,416.4 L1068.7,415.7 L1068.7,417.2 L1068.8,416.4 L1068.8,419.4 L1068.8,423.1 L1068.8,419.4 L1068.8,415.7 L1068.9,419.4 L1068.9,415.7 L1068.9,417.2 L1068.9,409.8 L1069.0,412.7 L1069.0,417.2 L1069.0,414.2 L1069.0,418.7 L1069.1,418.7 L1069.1,418.7 L1069.1,417.9 L1069.1,411.2 L1069.1,412.7 L1069.2,412.7 L1069.2,409.8 L1069.2,413.5 L1069.2,422.4 L1069.2,425.3 L1069.3,426.1 L1069.3,423.1 L1069.3,419.4 L1069.3,425.3 L1069.3,419.4 L1069.4,419.4 L1069.4,415.7 L1069.4,414.9 L1069.4,418.7 L1069.5,456.5 L1069.5,441.6 L1069.5,437.9 L1069.6,434.2 L1069.6,420.9 L1069.6,422.4 L1069.6,422.4 L1069.6,415.7 L1069.7,410.5 L1069.7,409.0 L1069.7,408.3 L1069.7,412.0 L1069.7,408.3 L1069.8,414.9 L1069.8,411.2 L1069.8,413.5 L1069.8,410.5 L1069.8,410.5 L1069.9,408.3 L1069.9,412.7 L1069.9,412.7 L1069.9,410.5 L1069.9,412.0 L1070.0,449.1 L1070.0,437.2 L1070.0,431.3 L1070.1,427.6 L1070.1,427.6 L1070.1,417.2 L1070.1,417.2 L1070.1,412.7 L1070.2,407.5 L1070.2,409.0 L1070.2,401.6 L1070.2,403.8 L1070.2,403.8 L1070.3,404.6 L1070.3,405.3 L1070.3,402.3 L1070.3,405.3 L1070.3,403.1 L1070.4,403.8 L1070.4,401.6 L1070.4,403.1 L1070.4,401.6 L1070.5,403.1 L1070.5,406.8 L1070.5,408.3 L1070.6,408.3 L1070.6,403.8 L1070.6,403.1 L1070.6,405.3 L1070.6,403.1 L1070.7,403.8 L1070.7,407.5 L1070.7,408.3 L1070.7,406.0 L1070.7,404.6 L1070.8,403.1 L1070.8,400.1 L1070.8,401.6 L1070.8,400.9 L1070.8,400.9 L1070.9,402.3 L1070.9,400.9 L1070.9,403.1 L1070.9,402.3 L1070.9,401.6 L1071.0,402.3 L1071.0,432.7 L1071.0,430.5 L1071.1,425.3 L1071.1,421.6 L1071.1,418.7 L1071.1,417.2 L1071.1,412.0 L1071.2,412.7 L1071.2,408.3 L1071.2,408.3 L1071.2,405.3 L1071.2,406.8 L1071.3,403.8 L1071.3,402.3 L1071.3,402.3 L1071.3,400.1 L1071.3,401.6 L1071.4,400.1 L1071.4,397.9 L1071.4,398.6 L1071.4,399.4 L1071.4,396.4 L1071.5,396.4 L1071.5,367.5 L1071.5,374.9 L1071.6,376.4 L1071.6,380.1 L1071.6,380.8 L1071.6,382.3 L1071.6,383.8 L1071.7,386.8 L1071.7,388.2 L1071.7,392.0 L1071.7,393.4 L1071.8,392.7 L1071.8,397.9 L1071.8,397.1 L1071.8,397.1 L1071.8,397.1 L1071.9,397.9 L1071.9,397.9 L1071.9,397.9 L1071.9,400.1 L1071.9,398.6 L1072.0,400.9 L1072.0,399.4 L1072.0,440.9 L1072.1,426.8 L1072.1,423.1 L1072.1,418.7 L1072.1,414.9 L1072.1,410.5 L1072.2,411.2 L1072.2,409.8 L1072.2,403.1 L1072.2,403.1 L1072.2,403.8 L1072.3,404.6 L1072.3,402.3 L1072.3,400.1 L1072.3,398.6 L1072.3,397.9 L1072.4,399.4 L1072.4,400.1 L1072.4,397.9 L1072.4,399.4 L1072.4,394.2 L1072.5,394.2 L1072.5,393.4 L1072.5,434.2 L1072.6,426.1 L1072.6,417.9 L1072.6,409.8 L1072.6,404.6 L1072.7,400.9 L1072.7,396.4 L1072.7,396.4 L1072.7,394.2 L1072.7,392.7 L1072.8,391.2 L1072.8,390.5 L1072.8,387.5 L1072.8,386.8 L1072.8,386.8 L1072.9,388.2 L1072.9,388.2 L1072.9,389.0 L1072.9,390.5 L1072.9,392.0 L1073.0,390.5 L1073.0,389.0 L1073.0,388.2 L1073.1,383.1 L1073.1,386.0 L1073.1,387.5 L1073.1,386.0 L1073.1,386.0 L1073.2,386.0 L1073.2,385.3 L1073.2,383.8 L1073.2,386.0 L1073.2,389.7 L1073.3,390.5 L1073.3,392.0 L1073.3,394.9 L1073.3,392.7 L1073.3,393.4 L1073.4,394.2 L1073.4,394.2 L1073.4,392.7 L1073.4,391.2 L1073.4,392.7 L1073.5,391.2 L1073.5,390.5 L1073.5,390.5 L1073.6,351.9 L1073.6,355.6 L1073.6,368.2 L1073.6,375.6 L1073.7,378.6 L1073.7,381.6 L1073.7,383.8 L1073.7,384.5 L1073.7,388.2 L1073.8,388.2 L1073.8,389.0 L1073.8,389.0 L1073.8,390.5 L1073.8,395.7 L1073.9,394.2 L1073.9,393.4 L1073.9,393.4 L1073.9,393.4 L1073.9,391.2 L1074.0,391.2 L1074.0,391.2 L1074.0,388.2 L1074.1,401.6 L1074.1,397.9 L1074.2,399.4 L1074.2,400.9 L1074.2,397.9 L1074.2,399.4 L1074.2,396.4 L1074.3,396.4 L1074.3,397.1 L1074.3,397.1 L1074.3,395.7 L1074.3,395.7 L1074.4,394.2 L1074.4,394.2 L1074.4,393.4 L1074.4,392.0 L1074.4,392.7 L1074.5,392.0 L1074.5,392.0 L1074.5,394.9 L1074.5,394.2 L1074.5,394.9 L1074.6,397.9 L1074.7,465.4 L1074.7,449.1 L1074.7,432.0 L1074.7,426.1 L1074.7,419.4 L1074.8,412.0 L1074.8,407.5 L1074.8,399.4 L1074.8,394.9 L1074.9,393.4 L1074.9,392.7 L1074.9,390.5 L1074.9,387.5 L1074.9,389.0 L1075.0,390.5 L1075.0,389.0 L1075.0,389.0 L1075.0,380.8 L1075.0,380.8 L1075.1,379.3 L1075.1,380.8 L1075.1,380.1 L1075.1,381.6 L1075.2,389.7 L1075.2,386.8 L1075.3,386.8 L1075.3,386.8 L1075.3,387.5 L1075.3,389.0 L1075.3,384.5 L1075.4,384.5 L1075.4,383.1 L1075.4,383.1 L1075.4,381.6 L1075.4,380.8 L1075.5,379.3 L1075.5,383.1 L1075.5,383.1 L1075.5,383.1 L1075.5,383.8 L1075.6,383.8 L1075.6,383.8 L1075.6,383.1 L1075.6,382.3 L1075.6,381.6 L1075.7,376.4 L1075.8,387.5 L1075.8,386.0 L1075.8,383.1 L1075.8,383.1 L1075.8,382.3 L1075.9,387.5 L1075.9,387.5 L1075.9,389.7 L1075.9,389.0 L1075.9,390.5 L1076.0,391.2 L1076.0,390.5 L1076.0,391.2 L1076.0,389.7 L1076.0,389.7 L1076.1,390.5 L1076.1,389.7 L1076.1,389.7 L1076.1,388.2 L1076.2,389.0 L1076.2,387.5 L1076.2,388.2 L1076.2,387.5 L1076.3,394.2 L1076.3,395.7 L1076.4,394.2 L1076.4,394.2 L1076.4,392.7 L1076.4,392.7 L1076.4,392.7 L1076.5,391.2 L1076.5,389.7 L1076.5,390.5 L1076.5,388.2 L1076.5,388.2 L1076.6,388.2 L1076.6,389.0 L1076.6,387.5 L1076.6,388.2 L1076.6,386.8 L1076.7,386.8 L1076.7,387.5 L1076.7,387.5 L1076.7,384.5 L1076.7,386.8 L1076.8,385.3 L1076.9,392.0 L1076.9,390.5 L1076.9,389.7 L1076.9,389.7 L1076.9,389.7 L1077.0,383.1 L1077.0,383.8 L1077.0,375.6 L1077.0,375.6 L1077.0,375.6 L1077.1,374.9 L1077.1,377.1 L1077.1,378.6 L1077.1,378.6 L1077.1,376.4 L1077.2,377.1 L1077.2,373.4 L1077.2,377.9 L1077.2,376.4 L1077.3,379.3 L1077.3,381.6 L1077.3,384.5 L1077.3,383.8 L1077.4,395.7 L1077.4,393.4 L1077.5,393.4 L1077.5,392.7 L1077.5,392.0 L1077.5,393.4 L1077.5,392.0 L1077.6,389.7 L1077.6,392.7 L1077.6,398.6 L1077.6,399.4 L1077.6,398.6 L1077.7,401.6 L1077.7,398.6 L1077.7,402.3 L1077.7,400.1 L1077.7,398.6 L1077.8,400.9 L1077.8,398.6 L1077.8,403.1 L1077.8,400.9 L1077.8,400.9 L1077.9,400.1 L1078.0,446.1 L1078.0,440.2 L1078.0,420.1 L1078.0,418.7 L1078.0,409.8 L1078.1,405.3 L1078.1,399.4 L1078.1,395.7 L1078.1,392.0 L1078.1,391.2 L1078.2,386.8 L1078.2,383.8 L1078.2,382.3 L1078.2,397.1 L1078.2,411.2 L1078.3,425.3 L1078.3,431.3 L1078.3,442.4 L1078.3,457.2 L1078.3,473.5 L1078.4,486.1 L1078.4,489.1 L1078.4,489.1 L1078.5,515.1 L1078.5,526.2 L1078.6,509.9 L1078.6,506.9 L1078.6,527.7 L1078.6,522.5 L1078.6,514.3 L1078.7,503.2 L1078.7,501.0 L1078.7,502.5 L1078.7,510.6 L1078.7,509.1 L1078.8,511.4 L1078.8,517.3 L1078.8,521.7 L1078.8,501.0 L1078.8,524.7 L1078.9,524.7 L1078.9,500.2 L1078.9,501.0 L1078.9,500.2 L1078.9,522.5 L1079.0,516.6 L1079.1,544.0 L1079.1,526.9 L1079.1,531.4 L1079.1,531.4 L1079.1,521.0 L1079.2,528.4 L1079.2,521.7 L1079.2,516.6 L1079.2,509.1 L1079.2,506.9 L1079.3,526.2 L1079.3,512.8 L1079.3,503.2 L1079.3,526.9 L1079.3,517.3 L1079.4,501.7 L1079.4,509.9 L1079.4,521.7 L1079.4,516.6 L1079.5,505.4 L1079.5,514.3 L1079.5,524.0 L1079.5,520.3 L1079.6,512.1 L1079.6,508.4 L1079.7,500.2 L1079.7,516.6 L1079.7,501.7 L1079.7,516.6 L1079.7,505.4 L1079.8,503.9 L1079.8,523.2 L1079.8,503.9 L1079.8,518.0 L1079.8,521.7 L1079.9,510.6 L1079.9,510.6 L1079.9,520.3 L1079.9,519.5 L1079.9,504.7 L1080.0,513.6 L1080.0,524.0 L1080.0,518.8 L1080.0,499.5 L1080.0,501.7 L1080.1,512.1 L1080.2,524.0 L1080.2,523.2 L1080.2,522.5 L1080.2,518.8 L1080.2,525.5 L1080.3,504.7 L1080.3,528.4 L1080.3,503.2 L1080.3,524.0 L1080.3,524.7 L1080.4,509.9 L1080.4,514.3 L1080.4,499.5 L1080.4,501.0 L1080.5,512.1 L1080.5,505.4 L1080.5,511.4 L1080.5,504.7 L1080.5,503.9 L1080.6,524.0 L1080.6,510.6 L1080.6,515.1 L1080.6,514.3 L1080.7,526.2 L1080.7,509.9 L1080.8,509.1 L1080.8,503.9 L1080.8,507.7 L1080.8,525.5 L1080.8,511.4 L1080.9,520.3 L1080.9,507.7 L1080.9,500.2 L1080.9,503.2 L1080.9,496.5 L1081.0,490.6 L1081.0,486.9 L1081.0,503.9 L1081.0,490.6 L1081.0,487.6 L1081.1,503.2 L1081.1,508.4 L1081.1,497.3 L1081.1,490.6 L1081.1,489.1 L1081.2,468.3 L1081.3,512.8 L1081.3,503.2 L1081.3,484.7 L1081.3,450.5 L1081.4,446.8 L1081.4,443.9 L1081.4,454.3 L1081.4,458.0 L1081.4,449.1 L1081.5,447.6 L1081.5,435.0 L1081.5,417.9 L1081.5,423.1 L1081.5,411.2 L1081.6,410.5 L1081.6,415.7 L1081.6,412.0 L1081.6,411.2 L1081.6,400.1 L1081.7,386.0 L1081.7,377.1 L1081.7,362.3 L1081.7,358.6 L1081.8,418.7 L1081.8,419.4 L1081.9,426.1 L1081.9,420.1 L1081.9,408.3 L1081.9,403.8 L1081.9,401.6 L1082.0,381.6 L1082.0,373.4 L1082.0,356.4 L1082.0,348.2 L1082.1,344.5 L1082.1,332.6 L1082.1,319.3 L1082.1,310.4 L1082.1,310.4 L1082.2,298.5 L1082.2,311.9 L1082.2,305.9 L1082.2,318.5 L1082.2,340.8 L1082.3,343.0 L1082.3,343.7 L1082.4,321.5 L1082.4,337.8 L1082.4,354.1 L1082.4,359.3 L1082.5,366.7 L1082.5,369.0 L1082.5,371.9 L1082.5,373.4 L1082.5,376.4 L1082.6,385.3 L1082.6,370.4 L1082.6,363.8 L1082.6,372.7 L1082.6,355.6 L1082.7,350.4 L1082.7,346.7 L1082.7,356.4 L1082.7,373.4 L1082.8,355.6 L1082.8,349.7 L1082.8,338.6 L1082.8,342.3 L1082.8,340.8 L1082.9,288.9 L1082.9,308.9 L1083.0,309.6 L1083.0,321.5 L1083.0,328.2 L1083.0,334.1 L1083.1,338.6 L1083.1,335.6 L1083.1,358.6 L1083.1,364.5 L1083.1,366.7 L1083.2,362.3 L1083.2,359.3 L1083.2,372.7 L1083.2,362.3 L1083.2,358.6 L1083.3,377.1 L1083.3,377.1 L1083.3,363.0 L1083.4,314.1 L1083.5,331.9 L1083.5,338.6 L1083.5,337.8 L1083.5,348.2 L1083.5,347.5 L1083.6,352.6 L1083.6,357.8 L1083.6,361.5 L1083.6,360.1 L1083.7,363.0 L1083.7,366.7 L1083.7,369.7 L1083.7,371.2 L1083.7,374.9 L1083.8,373.4 L1083.8,377.1 L1083.8,375.6 L1083.8,379.3 L1083.8,377.9 L1083.9,381.6 L1083.9,381.6 L1083.9,380.8 L1083.9,383.1 L1084.0,385.3 L1084.0,386.0" fill="none" stroke="#ff7f0e" stroke-width="1.1" opacity="0.85"/><text x="616" y="572" font-size="11" fill="#888">time 0..1008 s — altitude (blue) &amp; roll (orange)</text></svg>