<svg xmlns="http://www.w3.org/2000/svg" width="1140" height="600" font-family="sans-serif" font-size="13"><rect width="1140" height="600" fill="white"/><text x="20" y="26" font-size="15" fill="#333">Coludo flight</text><rect x="20" y="40" width="540" height="540" fill="#fbfbfb" stroke="#ddd"/><rect x="50" y="303" width="318" height="68" fill="#cde" stroke="#369" opacity="0.7"/><text x="50" y="298" fill="#369" font-size="12">landing zone</text><circle cx="251" cy="410" r="5" fill="black"/><text x="259" y="414" font-size="12">pad</text><path d="M251.8,410.2 L251.8,410.2 L251.8,410.2 L251.8,410.2 L251.8,410.2 L251.8,410.2 L251.8,410.2 L251.8,410.2 L251.8,410.2 L251.8,410.2 L251.8,410.2 L251.8,410.2 L251.8,410.2 L251.8,410.2 L251.8,410.2 L251.8,410.2 L251.8,410.2 L251.8,410.2 L251.8,410.2 L251.8,410.2 L251.8,410.2 L251.8,410.2 L251.8,410.2 L251.8,410.2 L251.8,410.2 L251.8,410.2 L251.8,410.2 L251.8,410.2 L251.8,410.2 L251.8,410.2 L251.8,410.2 L251.8,410.2 L251.8,410.2 L251.8,410.2 L251.8,410.2 L251.8,410.2 L251.8,410.2 L251.8,410.2 L251.8,410.2 L251.8,410.2 L251.8,410.2 L251.8,410.2 L251.8,410.2 L251.8,410.2 L251.8,410.2 L251.8,410.2 L251.8,410.2 L251.8,410.2 L251.8,410.2 L251.8,410.2 L251.8,410.2 L251.8,410.2 L251.8,410.2 L251.8,410.2 L251.8,410.2 L251.8,410.2 L251.8,410.2 L251.8,410.2 L251.8,410.2 L251.8,410.2 L251.8,410.2 L251.8,410.2 L251.8,410.2 L251.8,410.2 L251.8,410.2 L251.8,410.2 L251.8,410.2 L251.8,410.2 L251.8,410.2 L251.8,410.2 L252.8,408.3 L253.5,406.7 L255.2,404.1 L256.9,401.8 L258.3,399.9 L258.6,397.3 L262.0,394.6 L263.7,392.7 L263.7,390.9 L267.1,389.0 L268.8,386.7 L269.2,385.2 L272.2,383.3 L274.0,381.0 L275.7,379.5 L279.1,377.6 L280.1,376.5 L282.5,374.6 L284.2,372.7 L285.9,371.2 L289.3,369.7 L291.0,368.5 L292.7,367.0 L294.4,365.5 L296.5,364.0 L297.9,362.5 L301.3,360.6 L301.9,359.1 L304.7,357.2 L306.4,355.3 L308.1,353.4 L309.8,351.9 L313.2,349.6 L314.2,347.7 L314.9,345.5 L316.6,343.2 L319.7,340.9 L320.0,338.7 L321.7,336.8 L323.5,334.5 L323.8,331.8 L325.2,330.0 L326.9,326.9 L328.6,324.7 L328.6,322.4 L329.3,319.7 L330.3,317.1 L330.3,314.8 L332.0,312.2 L333.7,309.9 L333.7,306.1 L334.7,303.5 L334.7,300.4 L334.7,298.2 L335.4,295.5 L335.4,292.9 L335.4,290.2 L337.1,288.0 L337.1,284.9 L338.8,281.9 L338.8,278.5 L340.5,276.2 L340.9,274.0 L340.9,271.3 L342.2,268.7 L343.9,266.8 L345.6,264.1 L347.0,261.9 L347.4,258.8 L349.1,256.2 L350.8,253.5 L351.1,252.0 L352.5,249.8 L355.9,247.5 L356.6,245.6 L357.6,243.7 L359.3,241.8 L362.7,239.5 L364.1,237.7 L366.1,236.1 L367.8,233.9 L369.5,232.4 L373.0,230.5 L375.0,229.3 L376.4,227.4 L378.1,226.3 L379.8,224.4 L383.2,223.3 L384.9,221.8 L386.6,220.6 L390.0,219.5 L391.7,218.4 L395.1,217.2 L396.9,216.1 L400.3,215.0 L402.0,214.2 L405.4,213.4 L407.1,212.7 L411.2,211.9 L413.9,211.6 L417.3,210.8 L419.0,210.4 L423.5,210.0 L425.9,209.7 L428.9,209.7 L431.0,209.7 L435.1,209.7 L436.1,209.7 L439.5,209.7 L441.2,210.0 L444.7,210.4 L446.4,210.4 L449.8,211.2 L451.5,211.6 L454.9,212.3 L456.6,212.7 L460.0,213.4 L461.7,213.8 L465.1,215.0 L466.5,215.7 L470.3,216.8 L472.0,217.6 L473.7,219.1 L477.1,220.3 L478.8,221.4 L482.2,222.5 L483.6,223.7 L485.6,224.8 L489.0,226.7 L489.0,228.2 L492.4,229.3 L494.2,231.2 L495.9,233.1 L499.3,235.4 L501.0,238.0 L504.4,240.3 L504.7,242.2 L507.8,244.5 L509.5,246.0 L511.6,248.6 L511.2,250.5 L512.9,252.4 L514.6,254.7 L516.3,256.9 L516.3,258.8 L519.8,261.5 L519.8,263.8 L521.5,266.4 L521.8,268.3 L523.2,271.3 L524.9,273.6 L524.9,275.9 L526.6,278.5 L526.6,280.8 L527.3,283.0 L528.3,286.1 L528.3,288.7 L528.3,291.4 L530.0,294.8 L530.0,297.0 L530.0,299.7 L530.0,302.7 L530.0,305.7 L530.0,308.8 L530.0,311.8 L530.0,314.1 L530.0,316.3 L530.0,319.4 L530.0,322.4 L528.3,324.3 L528.3,327.3 L528.3,330.0 L527.3,332.2 L527.3,334.9 L526.6,337.5 L524.9,339.8 L524.9,342.1 L523.2,344.3 L521.8,346.6 L521.8,349.2 L521.5,351.5 L519.8,354.2 L518.1,356.1 L516.3,358.7 L516.3,361.4 L514.6,363.6 L511.2,365.5 L511.6,367.8 L509.5,369.7 L507.8,371.9 L506.1,373.8 L504.4,376.1 L502.7,377.6 L501.0,379.1 L499.3,381.4 L495.9,383.3 L494.5,385.2 L492.4,386.7 L489.0,388.6 L489.0,390.1 L485.6,392.0 L483.9,392.7 L480.5,395.4 L477.4,396.9 L475.4,398.0 L473.3,399.2 L470.3,400.7 L468.5,401.1 L466.8,402.2 L463.4,403.3 L460.0,404.5 L456.3,405.6 L454.9,406.4 L450.8,406.7 L448.1,407.5 L446.0,407.9 L442.9,408.3 L440.6,408.3 L437.8,408.6 L434.4,409.0 L435.1,409.0 L429.3,409.0 L427.6,409.0 L424.2,409.0 L422.5,409.0 L419.0,408.6 L417.3,408.3 L413.9,408.3 L411.2,407.9 L408.8,407.5 L407.1,406.7 L405.4,406.4 L401.0,405.6 L398.6,404.5 L396.9,403.7 L395.1,403.0 L391.7,401.8 L390.0,400.7 L386.6,399.9 L383.9,398.8 L379.8,396.5 L378.1,395.0 L374.7,393.5 L375.0,392.4 L371.3,390.9 L368.2,389.3 L367.8,387.5 L364.4,385.9 L362.7,384.4 L359.3,381.0 L356.6,378.8 L355.9,376.9 L352.5,375.3 L351.1,373.1 L350.8,371.2 L349.1,368.9 L347.0,367.0 L345.6,364.8 L342.2,361.4 L340.5,359.1 L338.8,356.8 L337.1,354.9 L334.7,353.0 L333.7,351.5 L330.3,349.2 L329.3,347.7 L326.9,345.8 L323.8,342.8 L321.7,340.9 L319.7,339.4 L316.6,338.3 L314.9,336.8 L313.2,335.3 L311.5,334.1 L308.1,332.6 L306.4,331.5 L303.0,330.3 L299.6,328.4 L296.5,327.7 L294.4,326.5 L292.7,325.8 L291.0,325.0 L287.6,324.3 L285.6,323.5 L282.5,323.1 L280.1,322.4 L277.4,322.4 L272.2,322.0 L269.2,321.6 L267.1,321.6 L263.7,321.6 L262.0,321.6 L258.6,321.6 L256.9,322.0 L253.5,322.0 L251.8,322.4 L244.9,323.1 L241.9,323.5 L236.4,324.3 L233.0,325.0 L230.9,325.4 L227.9,326.2 L225.5,326.5 L222.7,326.9 L217.6,327.7 L214.6,328.1 L212.5,328.4 L209.1,329.2" fill="none" stroke="#1f77b4" stroke-width="1.7" opacity="0.85"/><circle cx="209" cy="329" r="4.5" fill="#1f77b4"/><text x="28" y="572" font-size="11" fill="#888">ground track — m from pad (N up)</text><rect x="580" y="40" width="540" height="540" fill="#fbfbfb" stroke="#ddd"/><text x="586" y="54" fill="#1f77b4" font-size="11">alt 346</text><text x="586" y="558" fill="#1f77b4" font-size="11">-54</text><path d="M651.3,479.2 L651.9,478.5 L652.5,478.8 L653.0,478.7 L653.6,478.0 L654.1,477.2 L654.6,476.7 L655.1,476.6 L655.6,476.1 L656.1,475.2 L656.6,475.4 L657.2,473.8 L657.7,473.0 L658.2,470.8 L658.8,470.1 L659.3,468.2 L659.8,467.5 L660.3,468.5 L660.8,466.1 L661.3,464.0 L661.8,463.1 L662.3,460.0 L662.8,457.9 L663.3,460.2 L663.9,456.5 L664.4,454.7 L664.9,450.8 L665.4,450.4 L666.0,446.4 L666.5,449.6 L667.0,440.4 L667.5,443.2 L668.1,435.6 L668.6,437.2 L669.2,435.9 L669.7,431.0 L670.2,423.6 L670.7,424.7 L671.2,422.3 L671.7,422.0 L672.2,413.5 L672.7,412.0 L673.2,411.3 L673.7,407.9 L674.2,407.0 L674.8,394.8 L675.3,396.8 L675.9,390.9 L676.4,386.2 L677.0,382.9 L677.5,384.8 L678.1,386.0 L678.6,386.2 L679.1,364.0 L679.6,375.6 L680.2,369.9 L680.7,357.2 L681.4,366.8 L681.9,347.1 L682.4,360.5 L682.9,347.7 L683.5,340.8 L684.0,344.3 L684.6,316.2 L685.1,326.8 L685.7,309.1 L686.2,310.0 L686.8,300.9 L687.3,297.6 L687.9,302.4 L688.4,298.4 L689.0,278.3 L689.5,300.2 L690.1,299.2 L690.6,266.3 L691.2,265.3 L691.7,286.0 L692.3,261.3 L692.8,257.3 L693.4,246.6 L693.9,247.4 L694.5,241.0 L695.0,261.7 L695.6,247.3 L696.1,264.6 L696.7,217.9 L697.2,216.6 L697.8,241.1 L698.3,236.0 L698.9,210.1 L699.4,235.8 L700.0,223.4 L700.5,226.4 L701.0,196.5 L701.7,192.1 L702.3,231.0 L702.8,188.1 L703.4,182.4 L703.9,224.2 L704.4,192.2 L705.0,183.1 L705.5,161.6 L706.0,170.8 L706.6,186.3 L707.1,206.8 L707.7,170.0 L708.2,163.7 L708.8,195.8 L709.3,188.3 L709.9,144.8 L710.4,191.3 L711.0,191.6 L711.5,153.5 L712.0,169.3 L712.4,163.6 L712.9,178.8 L713.5,174.0 L714.0,146.0 L714.6,137.5 L715.1,144.6 L715.7,126.2 L716.2,123.0 L716.8,160.6 L717.3,109.6 L717.9,159.0 L718.4,165.1 L719.0,106.8 L719.5,130.9 L720.1,115.0 L720.6,139.2 L721.2,115.7 L721.7,146.5 L722.3,101.5 L722.8,122.7 L723.4,151.8 L723.9,109.3 L724.5,121.1 L725.0,139.1 L725.6,135.0 L726.1,145.7 L726.7,139.1 L727.2,90.7 L727.7,127.3 L728.3,116.4 L728.8,81.6 L729.3,77.0 L729.9,92.5 L730.4,105.3 L731.0,107.3 L731.5,91.4 L732.1,146.6 L732.7,123.4 L733.2,111.9 L733.7,82.2 L734.2,92.7 L734.7,76.0 L735.2,100.0 L735.8,116.6 L736.3,131.9 L736.9,109.9 L737.4,81.0 L738.0,113.1 L738.5,128.1 L739.1,82.8 L739.6,83.6 L740.2,149.2 L740.7,84.8 L741.3,122.3 L741.8,125.9 L742.4,122.7 L743.0,106.1 L743.6,103.2 L744.1,88.8 L744.7,117.6 L745.2,131.0 L745.8,122.6 L746.3,109.5 L746.9,108.8 L747.4,107.8 L748.0,147.5 L748.6,80.4 L749.2,122.7 L749.7,107.1 L750.3,149.6 L750.8,98.4 L751.3,96.9 L751.8,152.8 L752.4,111.9 L753.1,85.6 L753.6,104.3 L754.1,85.4 L754.6,105.2 L755.1,143.1 L755.6,129.1 L756.1,141.6 L756.6,84.0 L757.1,138.2 L757.7,96.1 L758.2,117.3 L758.8,121.3 L759.3,100.0 L759.9,140.9 L760.4,154.0 L761.0,134.1 L761.5,140.2 L762.1,112.1 L762.6,114.9 L763.6,121.2 L764.1,127.9 L764.6,140.1 L765.1,120.2 L765.6,159.4 L766.1,103.2 L766.7,103.2 L767.2,154.2 L767.8,151.8 L768.3,99.4 L768.9,159.6 L769.4,150.3 L770.0,149.6 L770.5,96.6 L771.1,104.7 L771.6,109.2 L772.2,138.9 L772.7,143.5 L773.2,146.4 L774.1,117.4 L774.6,162.2 L775.0,140.4 L775.6,112.5 L776.1,140.9 L776.7,145.1 L777.2,163.3 L777.8,164.9 L778.3,151.2 L778.9,127.3 L779.4,116.5 L780.0,165.3 L780.5,166.5 L781.1,152.0 L781.6,161.5 L782.2,112.7 L782.7,165.3 L783.3,135.4 L783.8,112.6 L784.5,143.4 L785.0,102.9 L785.5,156.2 L786.1,162.3 L786.6,131.1 L787.2,152.6 L787.7,159.8 L788.3,126.3 L788.8,108.0 L789.4,139.4 L789.9,134.9 L790.5,153.8 L791.0,138.2 L791.6,172.6 L792.1,112.2 L792.7,160.6 L793.2,112.9 L793.8,157.1 L794.3,158.0 L795.0,155.6 L795.5,168.8 L796.0,146.3 L796.5,136.2 L797.1,148.6 L797.6,139.8 L798.1,143.6 L798.7,178.1 L799.2,151.3 L799.8,118.5 L800.3,178.0 L800.9,149.2 L801.4,150.3 L802.0,183.2 L802.5,118.9 L803.1,176.9 L803.6,124.9 L804.2,150.9 L804.7,131.8 L805.4,140.2 L805.9,144.2 L806.4,136.6 L807.0,124.5 L807.5,147.9 L808.0,136.1 L808.5,173.2 L809.1,154.1 L809.6,146.1 L810.2,171.1 L810.7,142.9 L811.3,182.0 L811.8,138.5 L812.4,191.9 L812.9,153.1 L813.5,156.4 L814.0,190.6 L814.6,153.7 L815.1,191.4 L815.9,137.8 L816.4,158.2 L816.9,142.7 L817.4,162.9 L818.0,140.8 L818.5,135.5 L819.0,192.7 L819.6,166.8 L820.1,161.1 L820.7,175.7 L821.2,139.7 L821.7,162.2 L822.3,161.7 L822.8,174.0 L823.4,179.4 L823.9,190.6 L824.5,163.0 L825.0,197.8 L825.6,202.8 L826.4,175.8 L826.9,202.9 L827.4,183.2 L828.0,191.7 L828.5,166.8 L829.1,181.0 L829.6,167.6 L830.2,179.7 L830.7,188.9 L831.3,168.1 L831.8,165.8 L832.4,208.9 L832.9,206.2 L833.5,201.2 L834.0,157.6 L834.6,208.7 L835.1,189.1 L835.7,188.9 L836.2,177.2 L836.9,175.9 L837.4,211.1 L837.9,188.1 L838.5,168.3 L839.0,203.5 L839.5,191.6 L840.0,166.0 L840.5,191.6 L841.0,218.2 L841.5,218.8 L842.0,170.2 L842.5,177.3 L843.0,173.0 L843.5,173.7 L843.9,219.7 L844.7,169.3 L845.1,177.6 L845.7,194.8 L846.2,174.2 L846.8,187.1 L847.8,206.4 L848.3,214.1 L848.8,176.6 L849.3,180.6 L849.8,213.8 L850.4,201.6 L850.9,212.7 L851.5,206.2 L852.0,207.3 L852.6,210.1 L853.1,206.4 L853.7,225.8 L854.2,214.0 L854.8,225.0 L855.3,227.9 L855.9,220.8 L856.4,235.6 L857.0,198.6 L857.5,235.1 L858.8,185.0 L859.3,236.3 L859.8,216.4 L860.3,215.1 L860.8,231.5 L861.4,230.2 L861.9,237.4 L862.5,198.0 L863.0,209.6 L863.6,223.8 L864.1,221.8 L864.7,241.5 L865.2,199.9 L865.7,237.8 L866.3,244.4 L866.8,199.4 L867.3,246.0 L867.9,228.7 L868.4,199.0 L869.7,231.2 L870.2,213.6 L870.7,250.5 L871.2,230.4 L871.7,213.9 L872.2,229.7 L872.7,231.1 L873.3,238.1 L873.8,233.3 L874.4,239.7 L874.9,243.5 L875.5,236.5 L876.0,234.7 L876.5,213.9 L877.0,215.8 L877.5,212.7 L878.0,232.1 L878.5,232.0 L879.1,255.9 L879.6,228.4 L880.6,253.5 L881.1,260.6 L881.6,234.8 L882.2,237.5 L882.7,247.3 L883.3,254.0 L883.8,261.7 L884.4,229.3 L884.9,236.3 L885.5,268.8 L886.0,248.1 L886.6,231.1 L887.1,254.2 L887.6,270.0 L888.1,229.7 L888.6,262.7 L889.2,232.1 L889.7,229.3 L890.3,245.3 L891.6,235.7 L892.0,236.7 L892.5,233.3 L893.1,248.7 L893.6,256.1 L894.2,251.7 L894.7,266.0 L895.3,246.1 L895.8,256.1 L896.4,274.7 L896.9,253.5 L897.5,249.1 L898.0,245.4 L898.6,256.3 L899.1,271.5 L899.6,278.3 L900.1,277.0 L900.7,269.4 L901.2,289.4 L902.5,273.3 L903.0,271.9 L903.5,256.9 L904.1,266.1 L904.6,278.9 L905.1,264.2 L905.6,277.5 L906.1,263.0 L906.6,274.0 L907.1,280.8 L907.7,266.9 L908.2,273.5 L908.8,265.0 L909.3,264.5 L909.8,296.5 L910.3,298.8 L910.8,280.4 L911.3,266.5 L911.8,292.6 L912.3,276.6 L913.4,293.5 L914.0,270.9 L914.5,270.7 L915.0,273.3 L915.5,288.4 L916.0,293.7 L916.5,296.6 L917.0,308.2 L917.5,294.7 L918.1,274.5 L918.6,294.5 L919.2,309.9 L919.7,294.4 L920.3,281.3 L920.8,310.2 L921.4,282.6 L921.9,292.9 L922.5,313.4 L923.0,288.1 L924.4,294.9 L925.0,296.8 L925.5,298.6 L926.0,310.1 L926.5,289.2 L927.0,290.6 L927.5,296.4 L928.0,306.7 L928.5,293.6 L929.0,299.6 L929.5,319.7 L930.1,326.8 L930.6,305.4 L931.2,304.8 L931.7,308.6 L932.3,313.1 L932.8,318.0 L933.3,319.7 L933.8,331.7 L934.3,332.7 L935.3,321.9 L935.8,325.3 L936.3,311.5 L936.8,315.0 L937.3,335.1 L937.9,305.9 L938.4,312.6 L939.0,314.1 L939.5,336.5 L940.1,327.9 L940.6,326.3 L941.2,320.2 L941.7,341.3 L942.3,318.8 L942.8,321.9 L943.4,320.9 L943.9,330.4 L944.4,325.0 L944.9,337.7 L946.2,334.2 L946.7,345.9 L947.2,324.6 L947.8,328.2 L948.3,343.1 L948.9,342.7 L949.4,333.7 L949.9,325.8 L950.4,329.7 L950.9,329.7 L951.4,330.7 L951.9,342.4 L952.5,330.8 L953.0,350.3 L953.6,354.8 L954.1,341.8 L954.7,339.4 L955.2,340.0 L955.8,339.5 L957.2,342.5 L957.7,355.1 L958.2,355.6 L958.7,343.3 L959.2,343.7 L959.8,343.9 L960.3,346.7 L960.9,347.1 L961.4,346.4 L962.0,364.5 L962.5,367.3 L963.0,371.9 L963.5,358.5 L964.0,354.5 L964.5,370.1 L965.0,358.0 L965.5,354.1 L966.0,354.6 L966.6,373.2 L968.1,375.0 L968.6,364.6 L969.1,365.5 L969.6,369.6 L970.1,375.4 L970.7,378.1 L971.2,361.7 L971.8,365.7 L972.3,368.0 L972.9,381.5 L973.4,379.6 L974.0,382.9 L974.5,376.6 L975.1,382.1 L975.6,383.5 L976.2,376.6 L976.7,374.3 L977.2,383.5 L977.7,382.1 L979.1,388.1 L979.6,385.0 L980.1,388.6 L980.6,387.6 L981.2,395.6 L981.7,386.6 L982.2,394.9 L982.8,394.4 L983.3,395.7 L983.9,385.8 L984.4,385.3 L985.0,389.3 L985.5,398.7 L986.0,392.3 L986.5,404.5 L987.1,390.8 L987.6,397.8 L988.1,391.6 L988.6,402.9 L990.0,395.1 L990.5,400.0 L991.0,402.3 L991.6,398.1 L992.1,412.8 L992.7,402.8 L993.2,399.8 L993.8,404.9 L994.3,404.7 L994.9,415.7 L995.4,410.1 L996.0,417.1 L996.5,415.0 L997.1,417.5 L997.6,414.4 L998.2,408.7 L998.7,417.2 L999.2,410.3 L999.7,413.1 L1001.0,413.7 L1001.5,422.4 L1002.0,422.0 L1002.6,420.5 L1003.1,425.3 L1003.6,426.1 L1004.2,421.7 L1004.7,420.8 L1005.2,421.7 L1005.8,431.2 L1006.3,429.9 L1006.9,426.9 L1007.4,427.9 L1008.0,430.0 L1008.5,428.6 L1009.1,434.9 L1009.6,434.5 L1010.2,429.7 L1010.7,439.3 L1012.0,433.8 L1012.4,434.9 L1012.9,441.6 L1013.5,436.3 L1014.0,441.9 L1014.6,441.8 L1015.1,440.9 L1015.7,443.0 L1016.2,440.7 L1016.8,444.0 L1017.3,445.4 L1017.9,443.9 L1018.4,447.0 L1019.0,450.0 L1019.5,446.9 L1020.1,452.4 L1020.6,449.5 L1021.2,450.9 L1021.7,454.3 L1022.9,454.3 L1023.4,453.3 L1023.9,455.4 L1024.5,457.8 L1025.0,456.4 L1025.6,458.3 L1026.1,457.6 L1026.6,461.5 L1027.2,460.4 L1027.7,460.6 L1028.2,464.1 L1028.8,465.1 L1029.3,462.8 L1029.9,466.0 L1030.4,466.7 L1031.0,468.1 L1031.5,467.8 L1032.1,466.9 L1032.6,469.2 L1033.9,470.0 L1034.3,472.4 L1034.8,471.6 L1035.9,473.6 L1036.4,474.5 L1036.9,475.4 L1037.5,476.3 L1038.0,477.6 L1038.6,477.8 L1039.1,478.7 L1039.7,479.9 L1040.2,480.7 L1040.8,481.4 L1041.3,481.9 L1041.9,483.0 L1042.4,484.0 L1043.0,484.3 L1043.5,485.0 L1045.7,488.1 L1046.3,490.3 L1046.8,490.7 L1047.3,491.7 L1047.8,492.6 L1048.3,493.2 L1048.8,494.6 L1049.3,494.8 L1049.8,493.9 L1050.3,495.0 L1050.8,496.1 L1051.3,497.4 L1051.8,499.4 L1052.4,498.5 L1052.9,500.1 L1053.5,498.8 L1054.0,502.5 L1054.6,502.6 L1055.1,502.0 L1057.4,508.2 L1057.8,504.4 L1058.3,506.6 L1058.9,508.9 L1059.4,506.4 L1060.0,507.1 L1060.5,512.8 L1061.1,514.4 L1061.6,512.8 L1062.2,510.0 L1062.7,512.6 L1063.2,514.3 L1063.8,516.9 L1064.4,512.8 L1064.9,515.6 L1065.5,515.6 L1066.0,519.6 L1066.6,519.1 L1067.1,518.0 L1069.2,522.0 L1069.8,523.6 L1070.3,521.7 L1072.5,530.4 L1073.0,532.5 L1073.6,527.0 L1074.2,533.2 L1074.8,535.0 L1075.4,527.4 L1076.0,537.2 L1076.6,531.9 L1077.2,533.9 L1077.8,531.4 L1078.4,536.2 L1079.0,532.1 L1080.5,535.4 L1081.0,533.6 L1081.6,541.5 L1082.2,539.0 L1082.8,538.9 L1083.4,544.0 L1084.0,539.4" fill="none" stroke="#1f77b4" stroke-width="1.4" opacity="0.85"/><text x="1040" y="54" fill="#ff7f0e" font-size="11">roll 19</text><text x="1090" y="558" fill="#ff7f0e" font-size="11">-20</text><path d="M651.3,302.2 L651.9,302.2 L652.5,302.2 L653.0,301.0 L653.6,302.2 L654.1,302.2 L654.6,303.4 L655.1,302.2 L655.6,301.0 L656.1,301.0 L656.6,302.2 L657.1,302.2 L657.7,302.2 L658.2,303.4 L658.7,302.2 L659.3,303.4 L659.8,302.2 L660.3,301.0 L660.8,302.2 L661.3,302.2 L661.8,302.2 L662.3,301.0 L662.8,303.4 L663.3,301.0 L663.9,301.0 L664.4,301.0 L664.9,303.4 L665.4,302.2 L666.0,302.2 L666.5,302.2 L667.0,302.2 L667.5,301.0 L668.1,302.2 L668.6,301.0 L669.2,302.2 L669.7,303.4 L670.2,303.4 L670.7,301.0 L671.2,302.2 L671.7,302.2 L672.2,302.2 L672.7,302.2 L673.2,302.2 L673.7,303.4 L674.2,302.2 L674.8,302.2 L675.3,301.0 L675.9,302.2 L676.4,303.4 L677.0,301.0 L677.5,302.2 L678.1,301.0 L678.6,302.2 L679.1,303.4 L679.6,301.0 L680.1,301.0 L680.7,302.2 L681.4,301.0 L681.8,303.4 L682.4,303.4 L682.9,301.0 L683.5,303.4 L684.0,303.4 L684.6,302.2 L685.1,301.0 L685.7,303.4 L686.2,302.2 L686.8,303.4 L687.3,301.0 L687.9,303.4 L688.4,303.4 L689.0,302.2 L689.5,303.4 L690.1,302.2 L690.6,301.0 L691.2,303.4 L691.7,302.2 L692.3,302.2 L692.8,301.0 L693.4,303.4 L693.9,302.2 L694.5,301.0 L695.0,302.2 L695.6,301.0 L696.1,301.0 L696.7,302.2 L697.2,301.0 L697.8,301.0 L698.3,303.4 L698.9,301.0 L699.4,303.4 L700.0,301.0 L700.5,301.0 L701.0,303.4 L701.7,301.0 L702.3,303.4 L702.8,303.4 L703.3,302.2 L703.9,301.0 L704.4,302.2 L704.9,303.4 L705.5,303.4 L706.0,303.4 L706.6,302.2 L707.1,303.4 L707.7,302.2 L708.2,302.2 L708.8,301.0 L709.3,303.4 L709.9,301.0 L710.4,302.2 L711.0,302.2 L711.5,303.4 L712.0,302.2 L712.4,303.4 L712.9,303.4 L713.5,301.0 L714.0,303.4 L714.6,302.2 L715.1,302.2 L715.7,301.0 L716.2,302.2 L716.8,302.2 L717.3,302.2 L717.9,301.0 L718.4,301.0 L719.0,301.0 L719.5,302.2 L720.1,301.0 L720.6,303.4 L721.2,303.4 L721.7,302.2 L722.3,302.2 L722.8,302.2 L723.4,301.0 L723.9,302.2 L724.5,301.0 L725.0,301.0 L725.6,302.2 L726.1,302.2 L726.6,301.0 L727.2,303.4 L727.7,303.4 L728.3,286.5 L728.8,255.3 L729.3,226.4 L729.9,190.3 L730.4,186.7 L731.0,155.4 L731.5,157.8 L732.1,131.3 L732.7,125.3 L733.2,138.6 L733.7,113.3 L734.2,126.5 L734.7,122.9 L735.2,110.9 L735.8,128.9 L736.3,126.5 L736.9,122.9 L737.4,125.3 L738.0,112.1 L738.5,104.9 L739.1,104.9 L739.6,114.5 L740.2,109.7 L740.7,121.7 L741.3,109.7 L741.8,133.7 L742.4,114.5 L743.0,114.5 L743.6,112.1 L744.1,124.1 L744.7,118.1 L745.2,141.0 L745.8,135.0 L746.3,143.4 L746.9,147.0 L747.4,144.6 L748.0,162.6 L748.6,168.6 L749.1,161.4 L749.7,180.7 L750.2,171.0 L750.8,203.5 L751.3,255.3 L751.8,295.0 L752.4,334.7 L753.1,362.3 L753.6,392.4 L754.1,405.6 L754.6,441.7 L755.1,452.6 L755.6,457.4 L756.1,462.2 L756.6,457.4 L757.1,467.0 L757.7,499.5 L758.2,467.0 L758.8,505.5 L759.3,479.0 L759.9,482.6 L760.4,492.3 L761.0,504.3 L761.5,497.1 L762.1,507.9 L762.6,500.7 L763.6,501.9 L764.1,477.8 L764.6,504.3 L765.1,515.1 L765.6,510.3 L766.1,488.7 L766.7,481.4 L767.2,499.5 L767.8,479.0 L768.3,500.7 L768.9,503.1 L769.4,480.2 L770.0,497.1 L770.5,497.1 L771.1,519.9 L771.6,515.1 L772.2,513.9 L772.7,488.7 L773.2,491.1 L774.1,477.8 L774.5,485.0 L775.0,480.2 L775.6,479.0 L776.1,519.9 L776.7,480.2 L777.2,501.9 L777.8,480.2 L778.3,486.3 L778.9,480.2 L779.4,518.7 L780.0,511.5 L780.5,491.1 L781.1,512.7 L781.6,503.1 L782.2,512.7 L782.7,487.5 L783.3,497.1 L783.8,504.3 L784.5,515.1 L785.0,497.1 L785.5,509.1 L786.1,488.7 L786.6,494.7 L787.2,422.5 L787.7,376.8 L788.3,327.4 L788.8,304.6 L789.4,267.3 L789.9,237.2 L790.5,202.3 L791.0,205.9 L791.6,174.7 L792.1,167.4 L792.7,150.6 L793.2,132.5 L793.8,121.7 L794.3,112.1 L795.0,108.5 L795.5,127.7 L796.0,100.1 L796.5,110.9 L797.1,113.3 L797.6,115.7 L798.1,104.9 L798.7,98.9 L799.2,112.1 L799.8,125.3 L800.3,92.8 L800.9,113.3 L801.4,110.9 L802.0,109.7 L802.5,110.9 L803.1,102.5 L803.6,114.5 L804.2,90.4 L804.7,97.7 L805.4,90.4 L805.9,121.7 L806.4,102.5 L807.0,90.4 L807.5,112.1 L808.0,103.7 L808.5,109.7 L809.1,119.3 L809.6,86.8 L810.2,102.5 L810.7,98.9 L811.3,90.4 L811.8,95.2 L812.4,125.3 L812.9,95.2 L813.5,100.1 L814.0,113.3 L814.6,85.6 L815.1,88.0 L815.9,94.0 L816.4,103.7 L816.9,116.9 L817.4,97.7 L818.0,110.9 L818.5,115.7 L819.0,114.5 L819.6,114.5 L820.1,94.0 L820.6,122.9 L821.2,118.1 L821.7,84.4 L822.3,107.3 L822.8,89.2 L823.4,91.6 L823.9,125.3 L824.5,121.7 L825.0,92.8 L825.6,100.1 L826.4,108.5 L826.9,92.8 L827.4,122.9 L828.0,121.7 L828.5,121.7 L829.1,88.0 L829.6,110.9 L830.2,101.3 L830.7,106.1 L831.3,101.3 L831.8,101.3 L832.4,110.9 L832.9,106.1 L833.5,107.3 L834.0,124.1 L834.6,107.3 L835.1,118.1 L835.7,125.3 L836.2,86.8 L836.9,100.1 L837.4,95.2 L837.9,114.5 L838.5,91.6 L839.0,97.7 L839.5,98.9 L840.0,91.6 L840.5,97.7 L841.0,106.1 L841.5,98.9 L842.0,107.3 L842.5,114.5 L843.0,124.1 L843.4,116.9 L843.9,104.9 L844.7,96.5 L845.1,118.1 L845.7,104.9 L846.2,122.9 L846.8,109.7 L847.8,84.4 L848.3,90.4 L848.8,108.5 L849.3,89.2 L849.8,101.3 L850.4,110.9 L850.9,120.5 L851.5,119.3 L852.0,108.5 L852.6,115.7 L853.1,88.0 L853.7,92.8 L854.2,124.1 L854.8,95.2 L855.3,104.9 L855.9,96.5 L856.4,104.9 L857.0,100.1 L857.5,89.2 L858.8,110.9 L859.3,109.7 L859.8,113.3 L860.3,107.3 L860.8,102.5 L861.4,82.0 L861.9,116.9 L862.5,108.5 L863.0,103.7 L863.6,109.7 L864.1,88.0 L864.6,109.7 L865.2,121.7 L865.7,115.7 L866.3,122.9 L866.8,82.0 L867.3,91.6 L867.9,94.0 L868.4,86.8 L869.7,101.3 L870.2,90.4 L870.7,83.2 L871.2,114.5 L871.7,119.3 L872.2,110.9 L872.7,108.5 L873.3,104.9 L873.8,103.7 L874.4,96.5 L874.9,112.1 L875.5,113.3 L876.0,116.9 L876.5,83.2 L877.0,88.0 L877.5,108.5 L878.0,115.7 L878.5,86.8 L879.1,103.7 L879.6,101.3 L880.6,126.5 L881.1,109.7 L881.6,124.1 L882.2,104.9 L882.7,122.9 L883.3,88.0 L883.8,83.2 L884.4,112.1 L884.9,94.0 L885.5,127.7 L886.0,101.3 L886.6,101.3 L887.1,115.7 L887.6,100.1 L888.1,126.5 L888.6,104.9 L889.2,115.7 L889.7,114.5 L890.2,88.0 L891.5,76.0 L892.0,115.7 L892.5,94.0 L893.1,122.9 L893.6,106.1 L894.2,89.2 L894.7,98.9 L895.3,104.9 L895.8,118.1 L896.4,121.7 L896.9,89.2 L897.5,91.6 L898.0,96.5 L898.6,98.9 L899.1,107.3 L899.6,122.9 L900.1,114.5 L900.7,94.0 L901.2,115.7 L902.5,89.2 L903.0,90.4 L903.5,128.9 L904.1,95.2 L904.6,92.8 L905.1,113.3 L905.6,118.1 L906.1,110.9 L906.6,103.7 L907.1,107.3 L907.7,86.8 L908.2,92.8 L908.8,126.5 L909.3,112.1 L909.8,95.2 L910.3,98.9 L910.8,92.8 L911.3,115.7 L911.8,119.3 L912.3,114.5 L913.4,101.3 L914.0,95.2 L914.5,106.1 L915.0,112.1 L915.5,106.1 L916.0,94.0 L916.5,114.5 L917.0,90.4 L917.5,106.1 L918.1,124.1 L918.6,109.7 L919.2,121.7 L919.7,115.7 L920.3,90.4 L920.8,121.7 L921.4,94.0 L921.9,90.4 L922.5,107.3 L923.0,86.8 L924.4,114.5 L925.0,106.1 L925.5,104.9 L926.0,119.3 L926.5,95.2 L927.0,96.5 L927.5,116.9 L928.0,85.6 L928.5,92.8 L929.0,108.5 L929.5,86.8 L930.1,92.8 L930.6,109.7 L931.2,86.8 L931.7,100.1 L932.3,119.3 L932.8,91.6 L933.3,88.0 L933.8,95.2 L934.3,108.5 L935.3,100.1 L935.7,92.8 L936.2,115.7 L936.8,92.8 L937.3,120.5 L937.9,110.9 L938.4,113.3 L939.0,118.1 L939.5,106.1 L940.1,103.7 L940.6,115.7 L941.2,96.5 L941.7,127.7 L942.3,96.5 L942.8,96.5 L943.4,127.7 L943.9,110.9 L944.4,92.8 L944.9,126.5 L946.2,161.4 L946.7,133.7 L947.2,132.5 L947.8,138.6 L948.3,109.7 L948.9,133.7 L949.4,107.3 L949.9,104.9 L950.4,119.3 L950.9,122.9 L951.4,125.3 L951.9,119.3 L952.5,89.2 L953.0,114.5 L953.6,102.5 L954.1,114.5 L954.7,121.7 L955.2,102.5 L955.8,121.7 L957.2,122.9 L957.7,95.2 L958.2,114.5 L958.7,101.3 L959.2,125.3 L959.8,95.2 L960.3,101.3 L960.9,102.5 L961.4,88.0 L962.0,88.0 L962.5,103.7 L963.0,100.1 L963.5,108.5 L964.0,122.9 L964.5,89.2 L965.0,98.9 L965.5,88.0 L966.0,89.2 L966.6,100.1 L968.1,106.1 L968.6,128.9 L969.1,102.5 L969.6,107.3 L970.1,115.7 L970.7,126.5 L971.2,101.3 L971.8,116.9 L972.3,98.9 L972.9,101.3 L973.4,96.5 L974.0,122.9 L974.5,96.5 L975.1,106.1 L975.6,95.2 L976.2,119.3 L976.7,88.0 L977.2,107.3 L977.7,102.5 L979.1,107.3 L979.6,112.1 L980.1,107.3 L980.6,109.7 L981.2,116.9 L981.7,102.5 L982.2,122.9 L982.8,82.0 L983.3,102.5 L983.9,107.3 L984.4,124.1 L985.0,89.2 L985.5,113.3 L986.0,119.3 L986.5,101.3 L987.1,116.9 L987.6,110.9 L988.1,85.6 L988.6,89.2 L990.0,107.3 L990.5,100.1 L991.0,86.8 L991.6,125.3 L992.1,115.7 L992.7,106.1 L993.2,102.5 L993.8,121.7 L994.3,103.7 L994.9,107.3 L995.4,97.7 L996.0,118.1 L996.5,100.1 L997.1,89.2 L997.6,116.9 L998.2,86.8 L998.7,103.7 L999.2,120.5 L999.7,89.2 L1001.0,101.3 L1001.5,116.9 L1002.0,103.7 L1002.6,86.8 L1003.1,106.1 L1003.6,92.8 L1004.2,110.9 L1004.7,116.9 L1005.2,104.9 L1005.8,88.0 L1006.3,109.7 L1006.9,115.7 L1007.4,106.1 L1008.0,110.9 L1008.5,126.5 L1009.1,126.5 L1009.6,121.7 L1010.2,100.1 L1010.7,115.7 L1011.9,91.6 L1012.4,91.6 L1012.9,112.1 L1013.5,92.8 L1014.0,115.7 L1014.6,106.1 L1015.1,92.8 L1015.7,109.7 L1016.2,96.5 L1016.8,112.1 L1017.3,88.0 L1017.9,153.0 L1018.4,178.3 L1019.0,227.6 L1019.5,268.5 L1020.1,299.8 L1020.6,319.0 L1021.2,350.3 L1021.7,368.3 L1022.9,405.6 L1023.4,400.8 L1023.9,428.5 L1024.5,429.7 L1025.0,450.2 L1025.5,439.3 L1026.1,442.9 L1026.6,449.0 L1027.1,469.4 L1027.7,455.0 L1028.2,469.4 L1028.8,453.8 L1029.3,457.4 L1029.9,469.4 L1030.4,457.4 L1031.0,468.2 L1031.5,489.9 L1032.1,461.0 L1032.6,469.4 L1033.9,493.5 L1034.3,468.2 L1034.8,482.6 L1035.9,486.3 L1036.4,500.7 L1036.9,498.3 L1037.5,480.2 L1038.0,475.4 L1038.6,482.6 L1039.1,507.9 L1039.7,513.9 L1040.2,493.5 L1040.8,497.1 L1041.3,510.3 L1041.9,506.7 L1042.4,504.3 L1043.0,529.6 L1043.5,519.9 L1045.7,500.7 L1046.3,499.5 L1046.8,501.9 L1047.3,499.5 L1047.8,507.9 L1048.3,530.8 L1048.8,481.4 L1049.3,471.8 L1049.8,500.7 L1050.3,519.9 L1050.7,522.3 L1051.3,530.8 L1051.8,519.9 L1052.4,503.1 L1052.9,515.1 L1053.5,533.2 L1054.0,528.4 L1054.6,513.9 L1055.1,521.1 L1057.4,541.6 L1057.8,526.0 L1058.3,544.0 L1058.9,522.3 L1059.4,530.8 L1060.0,536.8 L1060.5,542.8 L1061.1,522.3 L1061.6,539.2 L1062.2,505.5 L1062.7,486.3 L1063.2,492.3 L1063.8,516.3 L1064.4,493.5 L1064.9,481.4 L1065.5,455.0 L1066.0,445.3 L1066.6,441.7 L1067.1,436.9 L1069.2,385.2 L1069.8,375.6 L1070.3,373.2 L1072.5,261.3 L1073.0,267.3 L1073.6,270.9 L1074.2,270.9 L1074.8,275.7 L1075.4,276.9 L1076.0,279.3 L1076.6,286.5 L1077.2,285.3 L1077.8,285.3 L1078.4,288.9 L1079.0,291.4 L1080.5,292.6 L1081.0,293.8 L1081.6,296.2 L1082.2,295.0 L1082.8,298.6 L1083.4,298.6 L1084.0,297.4" fill="none" stroke="#ff7f0e" stroke-width="1.1" opacity="0.85"/><text x="616" y="572" font-size="11" fill="#888">time 0..47 s — altitude (blue) &amp; roll (orange)</text></svg>