<svg xmlns="http://www.w3.org/2000/svg" width="1140" height="600" font-family="sans-serif" font-size="13"><rect width="1140" height="600" fill="white"/><text x="20" y="26" font-size="15" fill="#333">Coludo flight</text><rect x="20" y="40" width="540" height="540" fill="#fbfbfb" stroke="#ddd"/><rect x="50" y="305" width="317" height="68" fill="#cde" stroke="#369" opacity="0.7"/><text x="50" y="300" fill="#369" font-size="12">landing zone</text><circle cx="250" cy="412" r="5" fill="black"/><text x="258" y="416" font-size="12">pad</text><path d="M251.0,411.5 L251.0,411.5 L251.0,411.5 L251.0,411.5 L251.0,411.5 L251.0,411.5 L251.0,411.5 L251.0,411.5 L251.0,411.5 L251.0,411.5 L251.0,411.5 L251.0,411.5 L251.0,411.5 L251.0,411.5 L251.0,411.5 L251.0,411.5 L251.0,411.5 L251.0,411.5 L251.0,411.5 L251.0,411.5 L251.0,411.5 L251.0,411.5 L251.0,411.5 L251.0,411.5 L251.0,411.5 L251.0,411.5 L251.0,411.5 L251.0,411.5 L251.0,411.5 L251.0,411.5 L251.0,411.5 L251.0,411.5 L251.0,411.5 L251.0,411.5 L251.0,411.5 L251.0,411.5 L251.0,411.5 L251.0,411.5 L251.0,411.5 L251.0,411.5 L251.0,411.5 L251.0,411.5 L251.0,411.5 L251.0,411.5 L251.0,411.5 L251.0,411.5 L251.0,411.5 L251.0,411.5 L251.0,411.5 L251.0,411.5 L251.0,411.5 L251.0,411.5 L251.0,411.5 L251.0,411.5 L251.0,411.5 L251.0,411.5 L251.0,411.5 L251.0,411.5 L251.0,411.5 L251.0,411.5 L251.0,411.5 L251.0,411.5 L251.0,411.5 L251.0,411.5 L251.0,411.5 L251.0,411.5 L251.0,411.5 L251.0,411.5 L251.0,411.5 L251.0,411.5 L251.0,411.1 L252.1,408.9 L252.7,406.6 L254.5,404.3 L257.5,401.7 L257.9,399.1 L259.6,397.2 L261.3,394.9 L263.0,393.4 L264.7,391.1 L266.4,389.3 L268.4,387.0 L269.8,385.5 L273.2,383.6 L273.8,381.7 L274.9,380.2 L278.3,378.3 L279.3,376.8 L281.7,374.9 L283.4,373.4 L285.1,371.9 L288.5,370.8 L290.2,368.9 L291.9,367.0 L295.3,365.5 L295.6,363.6 L298.7,362.5 L300.4,360.6 L302.1,358.3 L303.8,356.8 L306.5,355.0 L307.2,353.1 L308.9,351.2 L312.3,348.9 L313.3,347.0 L314.0,344.8 L315.7,342.9 L317.4,340.2 L318.7,338.4 L319.1,335.7 L320.8,333.8 L322.5,332.0 L322.8,328.6 L324.2,325.9 L324.2,324.0 L325.9,321.0 L327.6,318.8 L327.6,316.5 L328.3,313.9 L328.3,311.2 L329.3,309.0 L329.3,305.9 L331.0,303.7 L331.0,301.0 L331.0,298.8 L331.0,296.1 L332.7,293.1 L332.7,291.2 L332.7,288.2 L333.7,285.6 L333.7,283.3 L334.4,280.7 L334.4,278.4 L336.1,276.2 L337.8,273.5 L337.8,270.9 L339.5,269.0 L339.8,266.4 L341.2,264.1 L342.9,261.5 L344.6,259.6 L346.0,256.9 L346.3,254.7 L348.0,252.4 L349.7,250.5 L350.0,248.7 L351.4,246.4 L353.1,244.5 L355.5,242.2 L356.5,240.4 L358.2,238.5 L361.6,236.6 L363.0,234.7 L363.3,232.8 L366.7,231.3 L367.1,229.8 L370.1,227.9 L373.9,226.4 L373.5,224.9 L376.9,223.8 L378.6,222.3 L380.3,221.1 L382.7,219.6 L385.4,218.5 L388.8,217.0 L390.5,216.2 L392.2,215.5 L394.3,214.4 L397.3,213.6 L399.7,212.8 L402.4,212.1 L404.5,211.3 L407.5,210.6 L409.9,210.2 L412.6,209.8 L416.0,209.1 L417.7,209.1 L421.1,208.7 L422.8,208.3 L426.2,208.3 L427.9,208.3 L431.3,208.3 L433.0,208.3 L436.4,208.7 L439.2,208.7 L441.6,209.1 L444.6,209.4 L446.7,209.8 L449.4,210.6 L451.8,211.0 L454.8,211.7 L456.9,212.5 L460.3,213.2 L460.3,214.0 L463.7,215.1 L465.0,215.5 L468.8,216.6 L471.8,217.7 L473.9,219.3 L475.6,220.4 L477.3,221.5 L480.7,223.0 L482.4,224.2 L484.1,225.7 L487.5,227.2 L487.5,228.7 L490.9,230.6 L492.9,231.7 L494.3,233.6 L497.7,235.5 L499.0,237.3 L499.4,238.9 L502.8,241.1 L503.1,242.6 L506.2,244.9 L507.9,246.8 L509.9,249.0 L509.6,251.3 L513.0,253.6 L514.7,255.4 L514.7,257.7 L518.1,262.2 L519.8,264.1 L520.1,266.7 L520.1,269.0 L521.5,271.3 L523.2,273.9 L524.9,276.5 L524.9,278.4 L525.6,281.4 L525.6,283.7 L526.6,286.3 L526.6,288.6 L528.3,291.6 L528.3,293.9 L528.3,296.1 L528.3,299.2 L530.0,301.0 L530.0,304.1 L530.0,306.7 L530.0,309.3 L530.0,314.2 L530.0,316.5 L528.3,319.5 L528.3,321.8 L528.3,324.4 L526.6,326.7 L526.6,329.7 L526.6,332.3 L525.6,334.6 L525.6,337.2 L523.2,341.4 L523.2,343.6 L521.5,346.7 L520.1,348.5 L519.8,351.2 L518.1,353.4 L516.4,355.7 L516.4,357.6 L514.7,360.2 L513.0,362.5 L509.6,365.9 L509.9,368.5 L507.9,370.4 L504.5,372.3 L503.1,374.2 L502.8,376.4 L499.4,377.9 L499.0,379.5 L496.0,381.3 L494.3,382.8 L490.9,386.2 L487.5,387.4 L487.5,388.9 L484.1,390.8 L482.4,391.9 L480.7,393.4 L477.3,394.2 L475.6,395.3 L473.9,396.8 L471.8,397.9 L465.0,399.8 L463.7,400.9 L462.0,401.7 L460.3,402.1 L456.9,402.8 L454.8,403.6 L451.8,404.3 L449.4,405.1 L446.7,405.5 L444.6,405.8 L439.9,406.6 L436.4,407.0 L433.0,407.0 L431.3,407.0 L427.9,407.0 L426.2,407.0 L422.8,407.0 L421.1,407.0 L419.4,406.6 L416.0,406.2 L410.9,405.5 L409.2,405.1 L405.8,404.3 L404.1,404.0 L400.7,403.2 L399.0,402.4 L395.6,402.1 L393.9,400.9 L390.5,400.2 L383.7,397.2 L382.7,396.0 L380.3,394.5 L377.3,393.4 L375.2,392.3 L373.9,390.8 L371.8,389.3 L368.4,387.4 L367.1,386.2 L361.6,381.7 L359.9,379.5 L358.2,378.3 L355.5,376.1 L354.8,374.2 L351.4,372.3 L350.0,370.8 L349.7,368.5 L346.3,366.3 L342.9,361.4 L339.8,359.1 L339.5,356.8 L337.8,355.0 L334.4,353.1 L333.7,351.2 L332.7,348.9 L329.3,347.4 L328.3,345.5 L322.8,340.2 L320.8,339.1 L319.1,337.2 L317.4,335.3 L315.7,333.8 L313.3,332.3 L310.6,331.2 L307.2,329.7 L305.5,328.2 L300.4,325.2 L295.3,323.3 L291.9,322.2 L290.2,321.0 L286.8,320.3 L284.7,319.5 L283.4,318.4 L279.3,317.6 L274.9,316.1 L273.2,315.4 L269.8,314.6" fill="none" stroke="#1f77b4" stroke-width="1.7" opacity="0.85"/><circle cx="270" cy="315" r="4.5" fill="#1f77b4"/><text x="28" y="572" font-size="11" fill="#888">ground track — m from pad (N up)</text><rect x="580" y="40" width="540" height="540" fill="#fbfbfb" stroke="#ddd"/><text x="586" y="54" fill="#1f77b4" font-size="11">alt 309</text><text x="586" y="558" fill="#1f77b4" font-size="11">-58</text><path d="M1043.4,467.5 L1043.4,467.5 L1043.5,467.3 L1043.5,466.7 L1043.6,466.9 L1043.6,466.9 L1043.7,466.5 L1043.7,465.4 L1043.8,465.5 L1043.8,465.5 L1043.9,464.9 L1043.9,464.2 L1043.9,463.8 L1044.0,462.7 L1044.0,460.5 L1044.1,460.0 L1044.1,460.1 L1044.2,458.2 L1044.2,457.3 L1044.2,457.2 L1044.3,455.2 L1044.3,453.4 L1044.4,453.7 L1044.4,452.7 L1044.5,450.9 L1044.5,450.9 L1044.5,450.7 L1044.6,446.8 L1044.6,446.4 L1044.7,443.4 L1044.7,441.7 L1044.8,441.1 L1044.8,436.5 L1044.9,438.7 L1044.9,439.0 L1044.9,436.3 L1045.0,428.6 L1045.0,428.9 L1045.1,426.8 L1045.1,424.3 L1045.2,429.2 L1045.2,425.6 L1045.2,419.1 L1045.3,423.3 L1045.3,411.6 L1045.4,415.5 L1045.4,413.9 L1045.5,408.2 L1045.5,409.0 L1045.5,397.0 L1045.6,403.8 L1045.6,393.9 L1045.7,400.3 L1045.7,395.8 L1045.8,398.5 L1045.8,396.3 L1045.8,393.3 L1045.9,374.9 L1045.9,373.3 L1046.0,374.5 L1046.0,366.2 L1046.1,376.6 L1046.1,361.4 L1046.2,366.0 L1046.2,361.6 L1046.2,354.2 L1046.3,345.1 L1046.3,352.1 L1046.4,345.2 L1046.4,355.1 L1046.5,344.1 L1046.5,334.8 L1046.5,338.8 L1046.6,330.3 L1046.6,332.0 L1046.7,331.4 L1046.7,311.8 L1046.8,306.5 L1046.8,318.5 L1046.8,301.0 L1046.9,316.9 L1046.9,300.4 L1047.0,291.1 L1047.0,294.2 L1047.1,276.1 L1047.1,279.2 L1047.1,301.1 L1047.2,296.4 L1047.2,293.1 L1047.3,260.9 L1047.3,265.7 L1047.4,288.3 L1047.4,275.4 L1047.5,252.6 L1047.5,271.4 L1047.6,272.2 L1047.6,246.4 L1047.6,234.9 L1047.7,232.4 L1047.7,229.9 L1047.8,245.8 L1047.8,216.4 L1047.9,243.1 L1047.9,253.4 L1047.9,218.8 L1048.0,239.8 L1048.0,208.9 L1048.1,203.2 L1048.1,209.5 L1048.2,206.7 L1048.2,191.5 L1048.2,210.9 L1048.3,204.0 L1048.3,223.0 L1048.4,229.6 L1048.4,212.6 L1048.5,224.2 L1048.5,199.1 L1048.6,174.9 L1048.6,182.6 L1048.7,164.5 L1048.7,181.5 L1048.7,170.5 L1048.8,163.6 L1048.8,196.9 L1048.9,198.5 L1048.9,191.6 L1049.0,168.3 L1049.0,195.3 L1049.0,149.6 L1049.1,148.7 L1049.1,154.1 L1049.2,173.0 L1049.2,137.6 L1049.3,187.3 L1049.3,151.5 L1049.3,139.9 L1049.4,172.1 L1049.4,178.5 L1049.5,134.6 L1049.5,132.9 L1049.6,128.8 L1049.6,119.8 L1049.7,113.6 L1049.7,149.8 L1049.8,122.0 L1049.8,146.6 L1049.8,128.1 L1049.9,117.3 L1049.9,148.1 L1050.0,144.0 L1050.0,115.8 L1050.1,152.1 L1050.1,102.8 L1050.2,119.3 L1050.2,123.9 L1050.2,124.4 L1050.3,95.2 L1050.3,101.9 L1050.4,106.8 L1050.4,105.5 L1050.5,152.4 L1050.5,114.1 L1050.6,106.5 L1050.6,89.5 L1050.7,133.3 L1050.7,100.1 L1050.7,135.4 L1050.8,80.2 L1050.8,102.0 L1050.9,113.1 L1050.9,131.9 L1051.0,99.7 L1051.0,83.8 L1051.0,91.3 L1051.1,127.2 L1051.1,100.7 L1051.2,128.4 L1051.2,90.3 L1051.3,116.9 L1051.3,132.0 L1051.3,128.3 L1051.4,84.5 L1051.5,91.5 L1051.5,139.8 L1051.6,101.5 L1051.6,95.3 L1051.6,77.9 L1051.7,144.7 L1051.7,78.0 L1051.8,76.0 L1051.8,128.5 L1051.9,114.6 L1051.9,94.4 L1052.0,136.9 L1052.0,89.5 L1052.0,145.0 L1052.1,142.7 L1052.1,123.2 L1052.2,132.0 L1052.2,118.2 L1052.3,104.3 L1052.3,77.5 L1052.3,110.5 L1052.4,81.7 L1052.4,98.6 L1052.5,132.6 L1052.6,96.6 L1052.6,115.1 L1052.6,142.3 L1052.7,132.1 L1052.7,106.2 L1052.8,138.4 L1052.8,142.2 L1052.9,79.0 L1052.9,149.4 L1052.9,90.3 L1053.0,98.3 L1053.0,139.5 L1053.1,107.2 L1053.1,122.0 L1053.2,128.8 L1053.2,144.0 L1053.2,95.6 L1053.3,128.4 L1053.3,109.5 L1053.4,115.9 L1053.4,120.9 L1053.5,143.6 L1053.5,138.5 L1053.6,111.5 L1053.6,152.9 L1053.7,145.4 L1053.7,128.4 L1053.8,110.7 L1053.8,102.9 L1053.8,120.5 L1053.9,117.4 L1053.9,120.3 L1054.0,131.1 L1054.0,141.8 L1054.1,109.1 L1054.1,106.5 L1054.2,107.0 L1054.2,153.5 L1054.2,121.0 L1054.3,133.9 L1054.3,101.3 L1054.4,146.5 L1054.4,99.8 L1054.5,133.6 L1054.5,150.4 L1054.6,117.2 L1054.6,98.0 L1054.7,135.0 L1054.7,117.2 L1054.8,95.8 L1054.8,141.5 L1054.8,152.9 L1054.9,106.5 L1054.9,105.9 L1055.0,113.6 L1055.0,145.7 L1055.1,130.7 L1055.1,103.9 L1055.1,99.6 L1055.2,150.9 L1055.2,132.0 L1055.3,131.7 L1055.3,154.5 L1055.4,105.5 L1055.4,129.4 L1055.4,94.1 L1055.5,162.4 L1055.5,135.4 L1055.6,123.2 L1055.7,130.3 L1055.7,148.1 L1055.7,162.7 L1055.8,158.4 L1055.8,119.5 L1055.9,130.2 L1055.9,139.7 L1056.0,141.7 L1056.0,126.6 L1056.1,137.7 L1056.1,109.1 L1056.1,142.7 L1056.2,134.1 L1056.2,107.6 L1056.3,136.7 L1056.3,120.4 L1056.4,108.0 L1056.4,135.1 L1056.4,156.4 L1056.5,133.6 L1056.5,149.8 L1056.6,124.2 L1056.7,124.7 L1056.7,108.7 L1056.8,160.1 L1056.8,110.5 L1056.9,116.6 L1056.9,119.5 L1057.0,118.6 L1057.0,135.9 L1057.0,159.4 L1057.1,116.6 L1057.1,143.1 L1057.2,129.8 L1057.2,109.5 L1057.3,137.6 L1057.3,143.2 L1057.3,174.8 L1057.4,144.9 L1057.4,132.1 L1057.5,175.9 L1057.5,146.4 L1057.6,130.1 L1057.6,137.4 L1057.6,146.8 L1057.8,131.5 L1057.8,142.2 L1057.9,157.0 L1057.9,168.9 L1057.9,133.2 L1058.0,136.4 L1058.0,161.9 L1058.1,125.9 L1058.1,150.4 L1058.2,165.5 L1058.2,124.1 L1058.3,138.7 L1058.3,141.6 L1058.3,166.8 L1058.4,129.3 L1058.4,173.6 L1058.5,138.7 L1058.5,126.9 L1058.6,154.0 L1058.6,168.1 L1058.6,159.3 L1058.7,180.4 L1058.7,186.5 L1058.9,179.1 L1058.9,146.6 L1058.9,187.7 L1059.0,153.0 L1059.0,135.5 L1059.1,136.6 L1059.1,178.0 L1059.2,139.4 L1059.2,190.9 L1059.2,170.6 L1059.3,173.6 L1059.3,157.2 L1059.4,137.9 L1059.4,188.3 L1059.5,134.2 L1059.5,190.2 L1059.5,171.3 L1059.6,152.3 L1059.6,151.7 L1059.7,178.0 L1059.7,188.0 L1059.8,190.1 L1059.8,187.7 L1059.9,178.0 L1060.0,148.2 L1060.0,177.8 L1060.1,165.7 L1060.1,159.7 L1060.1,199.1 L1060.2,175.7 L1060.2,182.8 L1060.3,171.6 L1060.3,179.6 L1060.4,174.3 L1060.4,159.7 L1060.5,195.7 L1060.5,147.4 L1060.5,203.5 L1060.6,191.8 L1060.6,151.1 L1060.7,182.9 L1060.7,165.7 L1060.8,196.9 L1060.8,171.4 L1060.8,163.8 L1060.9,191.9 L1061.0,176.8 L1061.1,177.2 L1061.1,200.6 L1061.1,190.7 L1061.2,187.0 L1061.2,186.6 L1061.3,157.7 L1061.3,197.3 L1061.4,199.3 L1061.4,209.2 L1061.4,190.1 L1061.5,185.8 L1061.5,201.5 L1061.6,179.1 L1061.6,162.6 L1061.7,180.9 L1061.7,213.8 L1061.7,195.7 L1061.8,186.8 L1061.8,164.3 L1061.9,167.8 L1061.9,189.5 L1062.0,178.0 L1062.1,174.1 L1062.1,197.2 L1062.2,205.3 L1062.2,213.6 L1062.3,213.2 L1062.3,199.4 L1062.3,214.7 L1062.4,198.9 L1062.4,205.6 L1062.5,213.7 L1062.5,181.0 L1062.6,219.0 L1062.6,199.3 L1062.7,176.3 L1062.7,194.7 L1062.7,228.6 L1062.8,187.3 L1062.8,179.4 L1062.9,224.5 L1062.9,199.5 L1063.0,181.7 L1063.0,191.6 L1063.0,214.6 L1063.2,188.9 L1063.2,224.2 L1063.3,202.9 L1063.3,189.9 L1063.3,206.6 L1063.4,192.4 L1063.4,229.6 L1063.5,217.6 L1063.5,194.8 L1063.6,201.4 L1063.6,201.4 L1063.7,239.0 L1063.7,212.1 L1063.7,208.5 L1063.8,195.8 L1063.8,211.2 L1063.9,192.0 L1063.9,242.5 L1064.0,215.2 L1064.0,204.2 L1064.0,215.8 L1064.1,243.2 L1064.1,236.0 L1064.3,237.4 L1064.3,202.6 L1064.3,238.2 L1064.4,244.0 L1064.4,246.1 L1064.5,231.2 L1064.5,210.2 L1064.6,228.1 L1064.6,246.9 L1064.6,230.0 L1064.7,216.0 L1064.7,222.5 L1064.8,207.0 L1064.8,235.3 L1064.9,247.5 L1064.9,255.5 L1064.9,221.3 L1065.0,225.3 L1065.0,243.9 L1065.1,246.0 L1065.1,250.1 L1065.2,230.5 L1065.2,255.9 L1065.3,235.4 L1065.4,255.0 L1065.4,254.8 L1065.5,224.0 L1065.5,254.9 L1065.5,257.2 L1065.6,241.8 L1065.6,248.4 L1065.7,226.4 L1065.7,238.2 L1065.8,226.9 L1065.8,248.3 L1065.9,225.1 L1065.9,266.2 L1065.9,264.0 L1066.0,246.1 L1066.0,241.5 L1066.1,245.8 L1066.1,231.7 L1066.2,233.6 L1066.2,269.4 L1066.2,234.3 L1066.3,257.5 L1066.4,242.4 L1066.5,236.6 L1066.5,259.0 L1066.6,266.5 L1066.6,255.7 L1066.6,239.6 L1066.7,258.5 L1066.7,272.7 L1066.8,270.0 L1066.8,238.6 L1066.9,242.1 L1066.9,264.5 L1066.9,253.9 L1067.0,271.5 L1067.0,275.3 L1067.1,264.8 L1067.1,281.4 L1067.2,276.2 L1067.2,284.0 L1067.3,274.2 L1067.3,261.3 L1067.3,262.8 L1067.4,262.6 L1067.5,256.6 L1067.5,287.1 L1067.6,253.6 L1067.6,261.5 L1067.7,280.3 L1067.7,282.7 L1067.8,268.2 L1067.8,271.9 L1067.9,261.6 L1067.9,287.4 L1067.9,281.1 L1068.0,282.3 L1068.0,282.9 L1068.1,272.4 L1068.1,268.8 L1068.2,292.2 L1068.2,277.6 L1068.2,283.6 L1068.3,279.9 L1068.3,279.9 L1068.4,289.4 L1068.4,301.8 L1068.5,292.3 L1068.6,297.7 L1068.6,281.6 L1068.7,290.5 L1068.7,303.0 L1068.8,285.3 L1068.8,292.6 L1068.8,282.7 L1068.9,279.8 L1068.9,292.5 L1069.0,283.7 L1069.0,300.6 L1069.1,290.8 L1069.1,282.9 L1069.2,285.2 L1069.2,311.1 L1069.3,290.5 L1069.3,311.0 L1069.3,285.3 L1069.4,295.9 L1069.4,305.4 L1069.5,303.7 L1069.5,288.5 L1069.6,302.4 L1069.8,313.2 L1069.8,315.9 L1069.8,311.8 L1069.9,313.6 L1069.9,306.1 L1070.0,323.6 L1070.0,324.6 L1070.1,320.7 L1070.1,324.0 L1070.1,311.9 L1070.2,316.8 L1070.2,297.4 L1070.3,320.2 L1070.3,305.4 L1070.4,298.4 L1070.4,327.6 L1070.4,316.9 L1070.5,300.8 L1070.5,313.6 L1070.6,321.3 L1070.6,315.7 L1070.7,329.2 L1070.7,308.2 L1070.9,308.1 L1071.0,313.7 L1071.0,311.8 L1071.0,323.7 L1071.1,331.2 L1071.1,337.5 L1071.2,325.2 L1071.2,328.9 L1071.3,330.6 L1071.3,333.4 L1071.4,317.2 L1071.4,318.3 L1071.4,341.1 L1071.5,320.3 L1071.5,346.0 L1071.6,337.5 L1071.6,336.9 L1071.7,338.5 L1071.7,328.0 L1071.7,337.6 L1071.8,334.8 L1071.8,334.8 L1071.9,347.8 L1072.1,354.6 L1072.1,350.3 L1072.2,341.4 L1072.2,342.1 L1072.3,334.3 L1072.3,334.9 L1072.3,357.6 L1072.4,342.8 L1072.4,342.3 L1072.5,339.8 L1072.5,358.2 L1072.6,355.7 L1072.6,347.2 L1072.6,356.7 L1072.7,357.2 L1072.7,362.0 L1072.8,361.3 L1072.8,356.6 L1072.9,359.9 L1072.9,352.9 L1072.9,364.8 L1073.0,366.1 L1073.0,357.6 L1073.3,363.6 L1073.3,366.2 L1073.3,367.4 L1073.4,356.3 L1073.4,367.5 L1073.5,370.7 L1073.5,355.3 L1073.6,367.2 L1073.6,366.8 L1073.6,359.2 L1073.7,363.1 L1073.7,372.7 L1073.8,364.3 L1073.8,372.5 L1073.9,374.5 L1073.9,366.6 L1073.9,369.6 L1074.0,363.5 L1074.0,369.1 L1074.1,376.4 L1074.1,375.7 L1074.2,372.3 L1074.2,372.9 L1074.4,386.7 L1074.5,373.0 L1074.5,390.7 L1074.5,389.6 L1074.6,385.2 L1074.6,384.9 L1074.7,377.0 L1074.7,381.6 L1074.8,383.2 L1074.8,394.5 L1074.9,379.5 L1074.9,394.1 L1074.9,381.1 L1075.0,386.0 L1075.0,396.5 L1075.1,390.3 L1075.1,399.8 L1075.2,385.6 L1075.2,395.3 L1075.2,389.9 L1075.3,398.6 L1075.3,400.9 L1075.4,392.1 L1075.6,401.4 L1075.6,396.0 L1075.7,396.6 L1075.7,397.9 L1075.8,398.1 L1075.8,398.3 L1075.8,408.1 L1075.9,401.3 L1075.9,409.5 L1076.0,409.4 L1076.0,407.1 L1076.1,412.6 L1076.1,410.5 L1076.2,412.4 L1076.2,407.3 L1076.2,415.9 L1076.3,408.9 L1076.3,411.6 L1076.4,409.5 L1076.4,415.9 L1076.5,415.6 L1076.5,419.8 L1076.5,413.2 L1076.8,415.9 L1076.8,416.5 L1076.8,420.5 L1076.9,425.9 L1076.9,421.3 L1077.0,423.3 L1077.0,421.4 L1077.1,427.7 L1077.1,422.9 L1077.1,423.4 L1077.2,428.8 L1077.2,428.6 L1077.3,428.7 L1077.3,431.9 L1077.4,430.7 L1077.4,433.8 L1077.5,428.6 L1077.5,432.0 L1077.5,436.0 L1077.6,432.7 L1077.6,437.4 L1077.7,432.8 L1077.7,438.3 L1077.9,440.5 L1078.0,443.6 L1078.0,441.5 L1078.0,440.1 L1078.1,444.2 L1078.1,442.1 L1078.2,447.0 L1078.2,445.7 L1078.3,444.5 L1078.3,447.1 L1078.4,449.0 L1078.4,447.7 L1078.4,450.4 L1078.5,449.3 L1078.5,452.0 L1078.6,449.5 L1078.6,452.2 L1078.7,453.7 L1078.7,452.7 L1078.8,455.1 L1078.8,455.4 L1078.8,455.0 L1078.9,457.8 L1079.1,459.8 L1079.1,461.8 L1079.2,460.8 L1079.2,462.4 L1079.3,463.5 L1079.3,464.2 L1079.4,464.6 L1079.4,466.1 L1079.4,466.0 L1079.5,467.1 L1079.5,467.7 L1079.6,468.8 L1079.6,469.5 L1079.7,470.1 L1079.7,470.6 L1079.7,471.5 L1079.8,472.6 L1079.8,473.0 L1079.9,474.0 L1079.9,474.9 L1080.0,475.1 L1080.0,475.9 L1080.1,476.8 L1080.3,480.4 L1080.3,481.1 L1080.3,481.1 L1080.4,482.0 L1080.4,482.7 L1080.5,484.0 L1080.5,483.7 L1080.6,483.8 L1080.6,485.6 L1080.7,486.2 L1080.7,486.3 L1080.7,488.4 L1080.8,487.8 L1080.8,490.5 L1080.9,490.1 L1080.9,489.6 L1081.0,490.9 L1081.0,492.9 L1081.0,494.0 L1081.1,496.6 L1081.1,496.3 L1081.2,497.0 L1081.2,493.3 L1081.4,496.7 L1081.5,497.4 L1081.5,498.8 L1081.6,504.2 L1081.6,505.3 L1081.6,500.6 L1081.7,504.3 L1081.7,504.1 L1081.8,504.7 L1081.8,509.1 L1081.9,504.5 L1081.9,509.1 L1082.0,511.6 L1082.0,505.9 L1082.0,512.2 L1082.1,512.0 L1082.1,510.6 L1082.2,509.5 L1082.2,516.1 L1082.3,511.2 L1082.3,515.3 L1082.4,516.9 L1082.4,518.4 L1082.6,520.2 L1082.8,521.6 L1082.9,517.2 L1082.9,517.7 L1083.0,523.7 L1083.0,523.0 L1083.0,522.2 L1083.1,519.9 L1083.1,530.4 L1083.2,525.2 L1083.2,521.8 L1083.3,532.4 L1083.3,529.1 L1083.3,534.7 L1083.4,525.9 L1083.4,528.8 L1083.5,534.3 L1083.5,530.6 L1083.6,532.6 L1083.7,529.9 L1083.7,536.6 L1083.8,535.0 L1083.8,530.2 L1083.9,538.2 L1083.9,536.0 L1084.0,544.0 L1084.0,534.9" fill="none" stroke="#1f77b4" stroke-width="1.4" opacity="0.85"/><text x="1040" y="54" fill="#ff7f0e" font-size="11">roll 20</text><text x="1090" y="558" fill="#ff7f0e" font-size="11">-23</text><path d="M1043.4,293.8 L1043.4,293.8 L1043.5,293.8 L1043.5,294.8 L1043.6,294.8 L1043.6,294.8 L1043.7,294.8 L1043.7,294.8 L1043.8,295.9 L1043.8,293.8 L1043.9,294.8 L1043.9,293.8 L1043.9,293.8 L1044.0,294.8 L1044.0,293.8 L1044.1,295.9 L1044.1,293.8 L1044.2,294.8 L1044.2,294.8 L1044.2,295.9 L1044.3,294.8 L1044.3,294.8 L1044.4,294.8 L1044.4,295.9 L1044.5,294.8 L1044.5,295.9 L1044.5,293.8 L1044.6,294.8 L1044.6,294.8 L1044.7,295.9 L1044.7,293.8 L1044.8,294.8 L1044.8,293.8 L1044.9,293.8 L1044.9,294.8 L1044.9,294.8 L1045.0,293.8 L1045.0,294.8 L1045.1,294.8 L1045.1,295.9 L1045.2,294.8 L1045.2,294.8 L1045.2,294.8 L1045.3,294.8 L1045.3,294.8 L1045.4,294.8 L1045.4,294.8 L1045.5,294.8 L1045.5,293.8 L1045.5,295.9 L1045.6,293.8 L1045.6,293.8 L1045.7,295.9 L1045.7,294.8 L1045.8,295.9 L1045.8,294.8 L1045.8,294.8 L1045.9,293.8 L1045.9,293.8 L1046.0,295.9 L1046.0,295.9 L1046.1,295.9 L1046.1,294.8 L1046.2,295.9 L1046.2,294.8 L1046.2,294.8 L1046.3,294.8 L1046.3,295.9 L1046.4,294.8 L1046.4,293.8 L1046.5,294.8 L1046.5,293.8 L1046.5,294.8 L1046.6,294.8 L1046.6,294.8 L1046.7,295.9 L1046.7,295.9 L1046.8,295.9 L1046.8,295.9 L1046.8,294.8 L1046.9,294.8 L1046.9,295.9 L1047.0,294.8 L1047.0,294.8 L1047.1,295.9 L1047.1,294.8 L1047.1,294.8 L1047.2,294.8 L1047.2,294.8 L1047.3,293.8 L1047.3,294.8 L1047.4,295.9 L1047.4,294.8 L1047.5,294.8 L1047.5,294.8 L1047.6,294.8 L1047.6,295.9 L1047.6,294.8 L1047.7,294.8 L1047.7,294.8 L1047.8,295.9 L1047.8,294.8 L1047.9,293.8 L1047.9,294.8 L1047.9,295.9 L1048.0,295.9 L1048.0,294.8 L1048.1,294.8 L1048.1,294.8 L1048.2,295.9 L1048.2,294.8 L1048.2,294.8 L1048.3,294.8 L1048.3,295.9 L1048.4,295.9 L1048.4,295.9 L1048.5,295.9 L1048.5,295.9 L1048.6,295.9 L1048.6,295.9 L1048.7,295.9 L1048.7,295.9 L1048.7,294.8 L1048.8,294.8 L1048.8,295.9 L1048.9,295.9 L1048.9,295.9 L1049.0,295.9 L1049.0,294.8 L1049.0,295.9 L1049.1,294.8 L1049.1,294.8 L1049.2,295.9 L1049.2,295.9 L1049.3,294.8 L1049.3,294.8 L1049.3,294.8 L1049.4,294.8 L1049.4,295.9 L1049.5,294.8 L1049.5,295.9 L1049.6,295.9 L1049.6,295.9 L1049.7,295.9 L1049.7,295.9 L1049.8,295.9 L1049.8,294.8 L1049.8,295.9 L1049.9,295.9 L1049.9,294.8 L1050.0,294.8 L1050.0,295.9 L1050.1,294.8 L1050.1,295.9 L1050.2,294.8 L1050.2,294.8 L1050.2,295.9 L1050.3,294.8 L1050.3,295.9 L1050.4,294.8 L1050.4,294.8 L1050.5,295.9 L1050.5,294.8 L1050.6,297.0 L1050.6,295.9 L1050.7,297.0 L1050.7,295.9 L1050.7,295.9 L1050.8,295.9 L1050.8,294.8 L1050.9,294.8 L1050.9,294.8 L1051.0,295.9 L1051.0,290.5 L1051.0,266.7 L1051.1,249.3 L1051.1,224.4 L1051.2,210.3 L1051.2,199.5 L1051.3,191.9 L1051.3,175.7 L1051.3,172.4 L1051.4,160.5 L1051.5,170.3 L1051.5,178.9 L1051.6,155.1 L1051.6,138.8 L1051.6,136.7 L1051.7,143.2 L1051.7,129.1 L1051.8,128.0 L1051.8,118.3 L1051.9,123.7 L1051.9,137.8 L1052.0,123.7 L1052.0,113.9 L1052.0,119.3 L1052.1,120.4 L1052.1,112.8 L1052.2,117.2 L1052.2,138.8 L1052.3,110.7 L1052.3,112.8 L1052.3,111.8 L1052.4,109.6 L1052.4,145.3 L1052.5,174.6 L1052.6,173.5 L1052.6,164.8 L1052.6,152.9 L1052.7,155.1 L1052.7,149.7 L1052.8,151.8 L1052.8,155.1 L1052.9,164.8 L1052.9,170.3 L1052.9,165.9 L1053.0,149.7 L1053.0,160.5 L1053.1,149.7 L1053.1,170.3 L1053.2,193.0 L1053.2,221.2 L1053.2,239.6 L1053.3,271.0 L1053.3,290.5 L1053.4,323.0 L1053.4,345.8 L1053.5,364.2 L1053.5,386.9 L1053.6,385.8 L1053.6,401.0 L1053.7,420.5 L1053.7,428.1 L1053.8,430.2 L1053.8,453.0 L1053.8,434.6 L1053.9,463.8 L1053.9,451.9 L1054.0,454.1 L1054.0,472.5 L1054.1,453.0 L1054.1,455.2 L1054.2,482.2 L1054.2,476.8 L1054.2,453.0 L1054.3,463.8 L1054.3,467.1 L1054.4,475.8 L1054.4,482.2 L1054.5,482.2 L1054.5,475.8 L1054.6,482.2 L1054.6,488.8 L1054.7,488.8 L1054.7,458.4 L1054.8,472.5 L1054.8,473.6 L1054.8,492.0 L1054.9,486.6 L1054.9,462.8 L1055.0,469.2 L1055.0,462.8 L1055.1,481.2 L1055.1,473.6 L1055.1,492.0 L1055.2,458.4 L1055.2,456.2 L1055.3,470.3 L1055.3,459.5 L1055.4,482.2 L1055.4,479.0 L1055.4,487.7 L1055.5,473.6 L1055.5,477.9 L1055.6,454.1 L1055.7,479.0 L1055.7,462.8 L1055.7,467.1 L1055.8,480.1 L1055.8,472.5 L1055.9,450.8 L1055.9,470.3 L1056.0,451.9 L1056.0,487.7 L1056.1,485.5 L1056.1,469.2 L1056.1,456.2 L1056.2,480.1 L1056.2,475.8 L1056.3,479.0 L1056.3,485.5 L1056.4,480.1 L1056.4,470.3 L1056.4,472.5 L1056.5,474.7 L1056.5,460.6 L1056.6,459.5 L1056.7,477.9 L1056.7,449.8 L1056.8,403.2 L1056.8,378.2 L1056.9,331.7 L1056.9,311.1 L1057.0,288.3 L1057.0,267.8 L1057.0,247.2 L1057.1,229.8 L1057.1,203.8 L1057.2,181.1 L1057.2,178.9 L1057.3,176.8 L1057.3,159.4 L1057.3,150.8 L1057.4,150.8 L1057.4,123.7 L1057.5,144.2 L1057.5,117.2 L1057.6,124.8 L1057.6,125.8 L1057.6,133.4 L1057.8,155.1 L1057.8,147.5 L1057.9,143.2 L1057.9,151.8 L1057.9,123.7 L1058.0,113.9 L1058.0,133.4 L1058.1,123.7 L1058.1,112.8 L1058.2,141.0 L1058.2,134.5 L1058.3,113.9 L1058.3,137.8 L1058.3,105.3 L1058.4,115.0 L1058.4,120.4 L1058.5,131.2 L1058.5,135.6 L1058.6,102.0 L1058.6,109.6 L1058.6,112.8 L1058.7,117.2 L1058.7,131.2 L1058.9,157.2 L1058.9,148.6 L1058.9,135.6 L1059.0,137.8 L1059.0,149.7 L1059.1,147.5 L1059.1,120.4 L1059.2,118.3 L1059.2,113.9 L1059.2,124.8 L1059.3,123.7 L1059.3,124.8 L1059.4,119.3 L1059.4,118.3 L1059.5,104.2 L1059.5,122.6 L1059.5,126.9 L1059.6,106.3 L1059.6,113.9 L1059.7,105.3 L1059.7,133.4 L1059.8,104.2 L1059.8,128.0 L1059.9,93.3 L1060.0,118.3 L1060.0,115.0 L1060.1,112.8 L1060.1,124.8 L1060.1,108.5 L1060.2,118.3 L1060.2,111.8 L1060.3,107.4 L1060.3,124.8 L1060.4,125.8 L1060.4,120.4 L1060.5,128.0 L1060.5,100.9 L1060.5,129.1 L1060.6,104.2 L1060.6,119.3 L1060.7,105.3 L1060.7,128.0 L1060.8,100.9 L1060.8,103.1 L1060.8,118.3 L1060.9,108.5 L1061.0,126.9 L1061.1,105.3 L1061.1,112.8 L1061.1,135.6 L1061.2,124.8 L1061.2,111.8 L1061.3,108.5 L1061.3,104.2 L1061.4,117.2 L1061.4,106.3 L1061.4,119.3 L1061.5,122.6 L1061.5,107.4 L1061.6,123.7 L1061.6,104.2 L1061.7,117.2 L1061.7,128.0 L1061.7,102.0 L1061.8,128.0 L1061.8,110.7 L1061.9,106.3 L1061.9,113.9 L1062.0,111.8 L1062.1,99.8 L1062.1,95.5 L1062.2,126.9 L1062.2,92.2 L1062.3,107.4 L1062.3,119.3 L1062.3,107.4 L1062.4,129.1 L1062.4,121.5 L1062.5,107.4 L1062.5,107.4 L1062.6,129.1 L1062.6,117.2 L1062.7,124.8 L1062.7,131.2 L1062.7,118.3 L1062.8,131.2 L1062.8,125.8 L1062.9,105.3 L1062.9,118.3 L1063.0,125.8 L1063.0,131.2 L1063.0,128.0 L1063.2,150.8 L1063.2,150.8 L1063.3,121.5 L1063.3,129.1 L1063.3,118.3 L1063.4,118.3 L1063.4,110.7 L1063.5,132.3 L1063.5,134.5 L1063.6,120.4 L1063.6,124.8 L1063.7,110.7 L1063.7,130.2 L1063.7,126.9 L1063.8,124.8 L1063.8,116.1 L1063.9,121.5 L1063.9,116.1 L1064.0,121.5 L1064.0,118.3 L1064.0,102.0 L1064.1,122.6 L1064.1,119.3 L1064.3,109.6 L1064.3,131.2 L1064.3,118.3 L1064.4,133.4 L1064.4,98.8 L1064.5,116.1 L1064.5,110.7 L1064.6,99.8 L1064.6,105.3 L1064.6,133.4 L1064.7,108.5 L1064.7,122.6 L1064.8,126.9 L1064.8,123.7 L1064.9,110.7 L1064.9,113.9 L1064.9,111.8 L1065.0,106.3 L1065.0,123.7 L1065.1,125.8 L1065.1,103.1 L1065.2,121.5 L1065.2,124.8 L1065.3,159.4 L1065.4,125.8 L1065.4,149.7 L1065.5,141.0 L1065.5,132.3 L1065.5,131.2 L1065.6,130.2 L1065.6,116.1 L1065.7,117.2 L1065.7,137.8 L1065.8,119.3 L1065.8,100.9 L1065.9,132.3 L1065.9,112.8 L1065.9,128.0 L1066.0,124.8 L1066.0,131.2 L1066.1,129.1 L1066.1,131.2 L1066.2,128.0 L1066.2,116.1 L1066.2,108.5 L1066.3,122.6 L1066.4,171.3 L1066.5,172.4 L1066.5,160.5 L1066.5,164.8 L1066.6,130.2 L1066.6,133.4 L1066.7,134.5 L1066.7,125.8 L1066.8,146.4 L1066.8,117.2 L1066.9,129.1 L1066.9,129.1 L1066.9,119.3 L1067.0,131.2 L1067.0,139.9 L1067.1,123.7 L1067.1,107.4 L1067.2,122.6 L1067.2,137.8 L1067.3,131.2 L1067.3,109.6 L1067.3,132.3 L1067.4,107.4 L1067.5,137.8 L1067.5,128.0 L1067.6,116.1 L1067.6,126.9 L1067.7,120.4 L1067.7,113.9 L1067.8,126.9 L1067.8,130.2 L1067.9,98.8 L1067.9,123.7 L1067.9,134.5 L1068.0,134.5 L1068.0,110.7 L1068.1,125.8 L1068.1,124.8 L1068.2,131.2 L1068.2,109.6 L1068.2,117.2 L1068.3,104.2 L1068.3,128.0 L1068.4,132.3 L1068.4,113.9 L1068.5,110.7 L1068.6,97.7 L1068.6,124.8 L1068.7,115.0 L1068.7,94.4 L1068.8,118.3 L1068.8,121.5 L1068.8,120.4 L1068.9,97.7 L1068.9,118.3 L1069.0,117.2 L1069.0,109.6 L1069.1,102.0 L1069.1,121.5 L1069.2,118.3 L1069.2,126.9 L1069.3,111.8 L1069.3,125.8 L1069.3,122.6 L1069.4,113.9 L1069.4,96.6 L1069.5,100.9 L1069.5,116.1 L1069.6,110.7 L1069.8,134.5 L1069.8,121.5 L1069.8,103.1 L1069.9,102.0 L1069.9,129.1 L1070.0,102.0 L1070.0,131.2 L1070.1,132.3 L1070.1,107.4 L1070.1,121.5 L1070.2,134.5 L1070.2,115.0 L1070.3,119.3 L1070.3,99.8 L1070.4,128.0 L1070.4,108.5 L1070.4,106.3 L1070.5,131.2 L1070.5,99.8 L1070.6,123.7 L1070.6,106.3 L1070.7,128.0 L1070.7,109.6 L1070.9,76.0 L1071.0,90.1 L1071.0,87.9 L1071.0,89.0 L1071.1,111.8 L1071.1,125.8 L1071.2,98.8 L1071.2,124.8 L1071.3,96.6 L1071.3,119.3 L1071.4,107.4 L1071.4,100.9 L1071.4,120.4 L1071.5,106.3 L1071.5,99.8 L1071.6,113.9 L1071.6,98.8 L1071.7,116.1 L1071.7,133.4 L1071.7,135.6 L1071.8,118.3 L1071.8,132.3 L1071.9,109.6 L1072.1,109.6 L1072.1,119.3 L1072.2,118.3 L1072.2,108.5 L1072.3,128.0 L1072.3,124.8 L1072.3,108.5 L1072.4,120.4 L1072.4,92.2 L1072.5,96.6 L1072.5,105.3 L1072.6,104.2 L1072.6,96.6 L1072.6,100.9 L1072.7,115.0 L1072.7,136.7 L1072.8,105.3 L1072.8,135.6 L1072.9,122.6 L1072.9,115.0 L1072.9,120.4 L1073.0,116.1 L1073.0,97.7 L1073.3,89.0 L1073.3,109.6 L1073.3,115.0 L1073.4,82.5 L1073.4,97.7 L1073.5,124.8 L1073.5,104.2 L1073.6,105.3 L1073.6,95.5 L1073.6,110.7 L1073.7,102.0 L1073.7,113.9 L1073.8,111.8 L1073.8,130.2 L1073.9,100.9 L1073.9,121.5 L1073.9,107.4 L1074.0,134.5 L1074.0,108.5 L1074.1,109.6 L1074.1,111.8 L1074.2,110.7 L1074.2,113.9 L1074.4,163.8 L1074.5,151.8 L1074.5,134.5 L1074.5,139.9 L1074.6,145.3 L1074.6,123.7 L1074.7,137.8 L1074.7,134.5 L1074.8,126.9 L1074.8,129.1 L1074.9,134.5 L1074.9,134.5 L1074.9,120.4 L1075.0,107.4 L1075.0,133.4 L1075.1,116.1 L1075.1,115.0 L1075.2,126.9 L1075.2,109.6 L1075.2,124.8 L1075.3,126.9 L1075.3,124.8 L1075.4,107.4 L1075.6,116.1 L1075.6,132.3 L1075.7,125.8 L1075.7,137.8 L1075.8,117.2 L1075.8,111.8 L1075.8,129.1 L1075.9,118.3 L1075.9,118.3 L1076.0,135.6 L1076.0,102.0 L1076.1,121.5 L1076.1,104.2 L1076.2,135.6 L1076.2,132.3 L1076.2,131.2 L1076.3,120.4 L1076.3,131.2 L1076.4,104.2 L1076.4,126.9 L1076.5,100.9 L1076.5,103.1 L1076.5,130.2 L1076.8,125.8 L1076.8,121.5 L1076.8,116.1 L1076.9,134.5 L1076.9,108.5 L1077.0,122.6 L1077.0,117.2 L1077.1,107.4 L1077.1,136.7 L1077.1,113.9 L1077.2,135.6 L1077.2,110.7 L1077.3,135.6 L1077.3,110.7 L1077.4,137.8 L1077.4,111.8 L1077.5,111.8 L1077.5,108.5 L1077.5,103.1 L1077.6,121.5 L1077.6,137.8 L1077.7,104.2 L1077.7,126.9 L1077.9,123.7 L1078.0,109.6 L1078.0,133.4 L1078.0,131.2 L1078.1,115.0 L1078.1,110.7 L1078.2,118.3 L1078.2,105.3 L1078.3,132.3 L1078.3,124.8 L1078.4,112.8 L1078.4,106.3 L1078.4,123.7 L1078.5,129.1 L1078.5,123.7 L1078.6,107.4 L1078.6,111.8 L1078.7,102.0 L1078.7,106.3 L1078.7,122.6 L1078.8,122.6 L1078.8,133.4 L1078.9,129.1 L1079.1,123.7 L1079.1,130.2 L1079.2,120.4 L1079.2,111.8 L1079.3,123.7 L1079.3,116.1 L1079.4,121.5 L1079.4,161.6 L1079.4,194.1 L1079.5,204.9 L1079.5,213.6 L1079.6,212.5 L1079.6,223.3 L1079.7,230.9 L1079.7,235.2 L1079.7,229.8 L1079.8,256.9 L1079.8,256.9 L1079.9,260.2 L1079.9,241.8 L1080.0,254.8 L1080.0,275.3 L1080.1,273.2 L1080.3,212.5 L1080.3,241.8 L1080.3,266.7 L1080.4,265.6 L1080.4,274.2 L1080.5,302.4 L1080.5,318.7 L1080.6,328.4 L1080.6,320.8 L1080.7,328.4 L1080.7,351.2 L1080.7,349.0 L1080.8,365.2 L1080.8,375.0 L1080.9,389.1 L1080.9,394.5 L1081.0,402.1 L1081.0,415.1 L1081.0,409.7 L1081.1,441.1 L1081.1,448.7 L1081.2,453.0 L1081.2,431.3 L1081.4,435.7 L1081.5,443.2 L1081.5,464.9 L1081.6,449.8 L1081.6,489.8 L1081.6,468.2 L1081.7,475.8 L1081.7,486.6 L1081.8,495.2 L1081.8,480.1 L1081.9,482.2 L1081.9,501.8 L1082.0,522.3 L1082.0,506.1 L1082.0,507.2 L1082.1,488.8 L1082.1,512.6 L1082.2,520.2 L1082.2,493.1 L1082.3,534.2 L1082.3,507.2 L1082.4,498.5 L1082.4,544.0 L1082.6,476.8 L1082.8,419.4 L1082.9,403.2 L1082.9,391.2 L1083.0,392.3 L1083.0,377.2 L1083.0,369.6 L1083.1,370.7 L1083.1,364.2 L1083.2,356.6 L1083.2,354.4 L1083.3,350.1 L1083.3,340.3 L1083.3,334.9 L1083.4,338.2 L1083.4,325.2 L1083.5,325.2 L1083.5,323.0 L1083.6,321.9 L1083.7,314.3 L1083.7,313.2 L1083.8,310.0 L1083.8,308.9 L1083.9,310.0 L1083.9,306.8 L1084.0,307.8 L1084.0,303.5" fill="none" stroke="#ff7f0e" stroke-width="1.1" opacity="0.85"/><text x="616" y="572" font-size="11" fill="#888">time 0..475 s — altitude (blue) &amp; roll (orange)</text></svg>