<svg xmlns="http://www.w3.org/2000/svg" width="1140" height="600" font-family="sans-serif" font-size="13"><rect width="1140" height="600" fill="white"/><text x="20" y="26" font-size="15" fill="#333">Coludo flight</text><rect x="20" y="40" width="540" height="540" fill="#fbfbfb" stroke="#ddd"/><rect x="50" y="305" width="319" height="69" fill="#cde" stroke="#369" opacity="0.7"/><text x="50" y="300" fill="#369" font-size="12">landing zone</text><circle cx="252" cy="412" r="5" fill="black"/><text x="260" y="416" font-size="12">pad</text><path d="M252.5,411.8 L252.5,411.8 L252.5,411.8 L252.5,411.8 L252.5,411.8 L252.5,411.8 L252.5,411.8 L252.5,411.8 L252.5,411.8 L252.5,411.8 L252.5,411.8 L252.5,411.8 L252.5,411.8 L252.5,411.8 L252.5,411.8 L252.5,411.8 L252.5,411.8 L252.5,411.8 L252.5,411.8 L252.5,411.8 L252.5,411.8 L252.5,411.8 L252.5,411.8 L252.5,411.8 L252.5,411.8 L252.5,411.8 L252.5,411.8 L252.5,411.8 L252.5,411.8 L252.5,411.8 L252.5,411.8 L252.5,411.8 L252.5,411.8 L252.5,411.8 L252.5,411.8 L252.5,411.8 L252.5,411.8 L252.5,411.8 L252.5,411.8 L252.5,411.8 L252.5,411.8 L252.5,411.8 L252.5,411.8 L252.5,411.8 L252.5,411.8 L252.5,411.8 L252.5,411.8 L252.5,411.8 L252.5,411.8 L252.5,411.8 L252.5,411.8 L252.5,411.8 L252.5,411.8 L252.5,411.8 L252.5,411.8 L252.5,411.8 L252.5,411.8 L252.5,411.8 L252.5,411.8 L252.5,411.8 L252.5,411.8 L252.5,411.8 L252.5,411.8 L252.5,411.8 L252.5,411.8 L252.5,411.8 L252.5,411.8 L252.5,411.8 L253.5,409.9 L254.2,407.7 L255.9,405.4 L257.6,402.7 L259.0,401.2 L259.3,398.9 L262.8,396.3 L264.5,394.4 L264.5,392.9 L267.9,390.6 L269.6,387.9 L271.3,386.4 L273.0,384.9 L275.4,382.6 L276.5,381.1 L279.9,379.2 L280.9,378.0 L283.3,376.2 L285.0,374.3 L286.7,372.7 L288.5,371.2 L291.9,370.5 L293.3,368.9 L295.3,366.7 L297.4,365.1 L300.4,363.2 L302.2,362.1 L302.8,360.2 L305.6,358.7 L307.3,356.0 L309.0,354.9 L312.4,351.9 L314.2,349.6 L315.2,347.7 L315.9,345.4 L319.3,343.5 L320.7,340.5 L321.0,338.9 L322.7,336.3 L324.4,334.0 L324.8,331.4 L326.1,327.9 L327.9,325.7 L329.6,323.4 L329.6,321.1 L330.3,317.7 L331.3,315.8 L331.3,312.8 L333.0,309.3 L333.0,307.4 L334.7,304.4 L334.7,301.4 L334.7,299.1 L335.7,295.7 L335.7,293.4 L335.7,290.7 L335.7,288.5 L336.4,284.7 L336.4,282.8 L338.1,279.3 L339.9,277.1 L339.9,274.4 L341.6,272.1 L341.6,269.9 L341.9,266.8 L343.3,264.5 L345.0,261.9 L346.7,259.2 L348.1,256.6 L348.4,253.9 L350.1,252.4 L351.8,250.1 L353.6,248.2 L355.3,246.3 L357.0,244.4 L357.7,242.5 L360.4,239.9 L362.1,238.0 L363.8,236.8 L365.5,234.5 L369.0,232.3 L369.3,230.8 L370.7,229.6 L374.1,227.7 L376.2,226.6 L377.5,224.7 L379.6,222.8 L382.7,221.6 L385.1,220.5 L387.8,219.0 L389.5,217.8 L391.9,216.7 L394.7,215.2 L396.7,214.4 L399.8,213.7 L403.2,212.5 L406.7,211.8 L408.4,211.0 L411.8,210.3 L413.5,209.5 L416.9,209.1 L419.3,208.7 L422.1,208.4 L424.8,208.4 L428.9,208.0 L432.4,208.0 L436.5,208.0 L435.8,208.0 L440.9,208.4 L441.9,208.4 L446.1,208.7 L447.8,209.1 L451.2,209.5 L454.6,210.6 L457.7,211.4 L461.5,212.5 L463.2,213.3 L464.9,214.0 L468.3,214.4 L470.0,215.6 L473.5,216.7 L475.2,217.8 L479.0,220.1 L480.3,221.3 L483.7,222.8 L485.5,223.9 L488.9,225.4 L490.6,227.0 L492.3,228.9 L494.0,230.4 L496.1,232.3 L499.2,233.8 L500.9,235.7 L502.2,237.2 L504.3,238.7 L506.0,241.4 L506.4,243.3 L509.4,245.6 L511.2,247.1 L513.2,249.0 L512.9,251.3 L514.6,253.1 L516.3,255.8 L518.0,258.5 L518.0,260.7 L519.7,263.0 L521.4,265.3 L523.1,268.0 L523.5,269.9 L524.9,273.3 L524.9,275.5 L526.6,277.4 L526.6,279.7 L528.3,283.1 L529.0,285.4 L529.0,288.5 L529.0,290.7 L530.0,293.0 L530.0,295.7 L530.0,299.5 L530.0,301.4 L530.0,305.9 L530.0,308.6 L530.0,311.6 L530.0,313.9 L530.0,316.2 L530.0,319.2 L530.0,321.5 L529.0,323.8 L529.0,326.0 L529.0,328.7 L528.3,332.1 L528.3,334.0 L526.6,336.7 L524.9,339.7 L524.9,342.0 L523.5,344.3 L523.1,346.9 L521.4,348.8 L519.7,351.9 L519.7,354.1 L518.0,356.0 L516.3,359.1 L514.6,361.3 L512.9,363.2 L513.2,365.5 L511.2,367.4 L509.4,370.1 L506.4,371.6 L506.0,373.5 L502.6,377.3 L500.9,379.2 L499.2,381.1 L496.1,382.6 L495.7,384.5 L492.3,386.4 L490.6,387.5 L488.9,389.4 L485.5,391.0 L485.1,392.1 L482.0,393.6 L479.0,394.8 L476.9,395.9 L474.8,397.4 L473.5,398.5 L470.0,399.3 L468.3,400.4 L464.9,401.6 L463.2,402.3 L458.1,403.5 L454.6,404.6 L452.2,405.0 L449.5,405.8 L447.4,406.1 L444.3,406.5 L441.9,406.9 L439.2,407.3 L435.8,407.3 L432.4,407.7 L428.9,407.7 L425.5,407.3 L424.8,407.3 L420.4,406.9 L418.7,406.5 L415.2,406.1 L412.5,405.8 L410.1,405.4 L406.7,404.2 L402.2,403.5 L401.5,402.7 L398.1,402.0 L394.7,401.2 L391.9,400.1 L391.2,398.9 L387.8,397.8 L385.1,396.7 L381.0,394.8 L379.3,393.2 L375.8,392.1 L376.2,390.2 L370.7,388.3 L369.3,386.8 L369.0,385.6 L365.5,384.1 L365.2,382.6 L360.4,379.2 L357.7,376.9 L357.0,375.4 L353.6,373.1 L352.2,371.2 L351.8,369.7 L350.1,367.8 L348.4,365.9 L346.7,363.2 L345.0,361.7 L343.3,359.8 L341.6,357.2 L339.9,355.3 L336.4,353.8 L335.7,352.2 L333.0,350.3 L331.3,348.4 L329.6,346.9 L326.1,344.6 L321.0,341.2 L319.3,339.7 L315.9,338.2 L314.2,336.7 L310.7,335.5 L309.0,334.4 L307.3,333.3 L303.9,332.1 L302.2,331.4 L295.3,329.8 L293.3,329.1 L290.2,328.3 L286.7,327.9 L285.0,327.6 L281.6,327.2 L279.9,327.2 L276.5,326.8 L274.8,326.8 L267.9,326.8 L264.5,327.2 L262.8,327.2 L259.3,327.6 L257.6,327.9 L254.2,328.3 L252.5,328.7 L249.1,329.5 L247.3,329.8 L240.5,331.0 L235.4,332.1 L231.9,332.5 L230.2,333.3 L226.1,333.6 L225.1,334.4 L220.6,335.2 L218.2,335.5 L213.1,336.7 L209.7,337.4 L207.9,338.2" fill="none" stroke="#1f77b4" stroke-width="1.7" opacity="0.85"/><circle cx="208" cy="338" r="4.5" fill="#1f77b4"/><text x="28" y="572" font-size="11" fill="#888">ground track — m from pad (N up)</text><rect x="580" y="40" width="540" height="540" fill="#fbfbfb" stroke="#ddd"/><text x="586" y="54" fill="#1f77b4" font-size="11">alt 332</text><text x="586" y="558" fill="#1f77b4" font-size="11">-56</text><path d="M650.6,473.5 L651.1,473.5 L651.6,473.3 L652.3,473.0 L652.9,472.6 L653.5,472.5 L654.1,471.5 L654.7,471.2 L655.3,470.4 L655.9,469.5 L656.5,468.7 L657.0,467.1 L657.5,467.0 L658.0,464.7 L658.6,464.1 L659.1,462.5 L659.6,461.4 L660.1,459.2 L660.6,459.1 L661.2,457.4 L661.7,454.5 L662.2,454.8 L662.7,450.7 L663.3,449.6 L663.9,445.7 L664.4,446.0 L664.9,443.1 L665.5,440.3 L666.1,437.7 L666.6,438.1 L667.1,435.3 L667.7,430.8 L668.2,430.7 L668.7,426.8 L669.3,422.1 L669.9,420.0 L670.5,414.4 L670.9,416.5 L671.5,412.9 L672.1,407.6 L672.7,401.7 L673.3,403.5 L673.8,400.6 L674.4,389.7 L675.0,387.2 L675.6,388.4 L676.2,380.7 L676.7,376.6 L677.2,379.3 L677.7,372.1 L678.2,369.1 L678.8,367.6 L679.3,362.3 L679.9,359.0 L680.5,352.1 L681.0,348.8 L681.5,343.2 L682.0,331.7 L682.5,337.2 L683.1,329.2 L683.7,329.8 L684.3,320.8 L684.8,308.2 L685.4,311.2 L686.0,309.5 L686.6,300.2 L687.2,299.4 L687.8,286.7 L688.4,282.3 L689.0,269.2 L689.6,266.5 L690.2,278.9 L690.8,270.2 L691.2,262.0 L691.7,255.9 L692.2,251.8 L692.8,255.5 L693.4,244.7 L693.9,244.5 L694.4,243.0 L694.9,234.3 L695.4,232.3 L696.0,225.0 L696.5,217.0 L697.0,211.9 L697.5,227.1 L698.0,213.2 L698.5,221.1 L699.1,214.6 L699.6,203.2 L700.1,194.4 L700.6,201.8 L701.2,204.3 L701.7,187.3 L702.2,188.3 L702.7,174.1 L703.2,194.5 L703.7,183.5 L704.2,175.5 L704.7,167.2 L705.2,178.8 L705.7,174.2 L706.2,166.3 L706.7,153.4 L707.2,173.7 L707.7,158.6 L708.2,161.2 L708.7,167.6 L709.2,167.8 L709.7,149.7 L710.2,144.7 L710.7,157.9 L711.2,157.9 L711.8,150.5 L712.3,138.7 L712.8,153.6 L713.3,129.7 L713.8,148.2 L714.3,134.4 L714.8,133.8 L715.2,146.1 L715.7,131.7 L716.2,134.6 L716.7,133.5 L717.2,138.2 L717.7,103.2 L718.2,123.1 L718.7,107.7 L719.2,127.9 L719.7,118.2 L720.2,121.6 L720.7,110.6 L721.5,121.2 L721.9,105.6 L722.5,101.5 L723.0,94.9 L723.5,87.8 L724.1,96.8 L724.6,119.5 L725.1,104.6 L725.7,110.3 L726.3,112.9 L726.8,85.4 L727.3,83.4 L727.8,83.9 L728.3,113.2 L728.8,76.0 L729.3,98.3 L729.8,78.8 L730.3,103.2 L730.8,83.0 L731.3,87.1 L731.8,102.1 L732.3,96.0 L732.8,105.6 L733.3,77.1 L733.8,106.4 L734.3,100.1 L734.8,85.2 L735.4,101.5 L735.9,100.6 L736.4,96.3 L736.9,85.2 L737.4,89.9 L737.9,90.7 L738.4,96.7 L738.9,84.1 L739.4,105.9 L739.9,105.6 L740.5,101.1 L741.0,79.3 L741.5,95.0 L742.1,94.6 L742.5,101.9 L743.1,86.7 L743.6,81.2 L744.1,83.3 L744.6,110.8 L745.1,87.8 L745.6,97.9 L746.1,113.3 L746.6,109.2 L747.1,86.6 L747.6,109.5 L748.1,104.0 L748.7,90.9 L749.2,98.1 L749.7,83.1 L750.2,108.3 L750.7,118.3 L751.2,92.1 L751.7,103.3 L752.5,107.7 L753.0,113.7 L753.5,116.1 L754.1,107.6 L754.6,105.6 L755.1,95.6 L755.6,89.2 L756.1,104.5 L756.6,119.2 L757.1,109.2 L757.6,110.9 L758.1,96.3 L758.6,120.9 L759.1,103.4 L759.6,95.7 L760.1,94.3 L760.7,94.2 L761.2,90.4 L761.7,89.9 L762.2,92.3 L763.0,99.5 L763.5,110.4 L764.0,97.1 L764.5,113.1 L765.0,110.1 L765.5,113.5 L766.0,103.2 L766.5,113.8 L767.0,112.0 L767.5,98.2 L768.0,103.7 L768.5,113.6 L769.0,108.0 L769.5,97.0 L770.0,98.9 L770.5,112.0 L771.0,96.5 L771.5,98.1 L772.0,119.0 L772.5,103.3 L773.5,100.1 L773.9,131.4 L774.4,113.1 L775.0,124.5 L775.5,106.8 L776.0,100.2 L776.5,121.7 L777.0,108.4 L777.5,111.4 L778.0,115.4 L778.5,115.3 L779.0,132.3 L779.6,135.1 L780.1,108.5 L780.6,122.7 L781.1,135.8 L781.6,121.8 L782.1,110.6 L782.6,119.6 L783.1,135.5 L783.9,131.1 L784.4,112.3 L784.9,117.3 L785.4,104.6 L785.9,128.9 L786.4,114.0 L786.9,106.5 L787.4,123.0 L787.9,139.4 L788.4,120.2 L789.0,134.9 L789.5,125.4 L790.0,129.3 L790.5,141.5 L791.0,125.2 L791.5,123.7 L792.0,137.3 L792.5,118.3 L793.0,145.1 L793.6,145.9 L794.4,133.4 L794.9,141.8 L795.4,144.0 L795.9,129.6 L796.5,140.5 L796.9,143.5 L797.4,130.6 L797.9,119.9 L798.4,119.5 L798.9,147.8 L799.4,145.6 L799.9,141.9 L800.4,150.0 L800.9,136.2 L801.5,123.3 L802.0,130.9 L802.5,124.5 L803.0,124.9 L803.5,128.0 L804.0,125.4 L804.9,147.2 L805.3,149.6 L805.8,141.6 L806.3,152.8 L806.8,140.1 L807.3,133.0 L807.8,135.4 L808.3,150.8 L808.8,151.7 L809.3,145.0 L809.8,131.5 L810.3,154.1 L810.8,157.0 L811.3,150.3 L811.8,147.4 L812.3,138.5 L812.8,158.8 L813.3,132.1 L813.8,148.5 L814.3,137.2 L815.3,152.1 L815.9,160.1 L816.4,147.3 L816.9,157.2 L817.4,135.0 L817.9,149.6 L818.4,154.2 L818.9,144.3 L819.4,161.0 L819.9,153.2 L820.5,158.6 L821.0,157.6 L821.5,147.9 L822.0,168.2 L822.5,151.3 L823.0,150.3 L823.5,161.2 L824.0,151.1 L824.5,163.9 L824.9,151.6 L825.8,161.2 L826.2,144.2 L826.7,145.8 L827.2,157.8 L827.7,156.9 L828.2,175.9 L828.7,168.3 L829.2,163.5 L829.7,157.7 L830.2,166.0 L830.7,164.5 L831.2,168.3 L831.7,164.8 L832.2,169.7 L832.8,163.8 L833.3,178.2 L833.8,173.1 L834.3,184.1 L834.8,183.1 L835.3,165.3 L836.3,159.0 L836.8,169.5 L837.3,163.7 L837.8,169.8 L838.3,183.5 L838.8,173.4 L839.3,167.7 L839.8,174.0 L840.3,179.6 L840.8,166.9 L841.4,172.9 L841.9,168.7 L842.4,167.4 L842.9,192.5 L843.4,192.6 L843.9,183.7 L844.4,194.7 L844.9,187.9 L845.4,172.6 L845.9,185.9 L847.2,193.4 L847.7,189.2 L848.2,184.0 L848.8,199.9 L849.3,175.1 L849.8,177.2 L850.3,200.6 L850.8,199.3 L851.3,201.6 L851.8,178.5 L852.2,199.0 L852.7,187.0 L853.3,199.6 L853.7,187.7 L854.2,202.5 L854.7,185.0 L855.3,181.2 L855.8,183.8 L856.3,186.6 L856.8,182.8 L858.2,197.9 L858.6,208.1 L859.1,207.5 L859.6,207.1 L860.1,211.5 L860.6,193.7 L861.1,205.0 L861.6,197.1 L862.1,199.5 L862.6,217.0 L863.1,198.0 L863.6,209.3 L864.1,211.4 L864.6,196.7 L865.1,194.8 L865.6,201.0 L866.1,218.1 L866.6,206.5 L867.1,215.0 L867.6,209.9 L868.1,217.9 L869.1,220.0 L869.6,215.6 L870.1,209.3 L870.6,213.1 L871.1,227.4 L871.6,221.8 L872.1,208.4 L872.7,213.7 L873.2,214.7 L873.7,217.0 L874.2,231.2 L874.7,213.8 L875.2,232.8 L875.7,213.8 L876.2,219.1 L876.7,227.7 L877.2,228.2 L877.7,215.7 L878.2,214.5 L878.8,222.2 L880.0,221.1 L880.5,226.5 L881.1,230.0 L881.5,227.1 L882.0,233.8 L882.5,230.9 L883.0,227.3 L883.5,225.8 L884.0,242.0 L884.5,244.8 L885.0,224.3 L885.5,239.3 L886.0,227.1 L886.5,247.2 L887.0,233.8 L887.5,242.5 L888.0,249.4 L888.5,249.9 L889.0,249.5 L889.5,231.7 L891.0,243.3 L891.4,236.1 L891.9,232.2 L892.4,234.7 L892.9,249.7 L893.5,253.1 L894.0,244.9 L894.6,244.1 L895.1,246.0 L895.6,244.7 L896.1,258.0 L896.6,249.4 L897.1,253.7 L897.6,253.0 L898.1,243.7 L898.6,242.3 L899.1,254.4 L899.6,254.3 L900.2,244.8 L900.7,253.9 L902.0,259.2 L902.5,265.1 L903.0,257.0 L903.6,267.9 L904.1,267.9 L904.7,272.2 L905.2,266.8 L905.7,258.0 L906.3,253.7 L906.8,268.9 L907.2,262.6 L907.7,269.9 L908.3,259.1 L908.7,270.5 L909.2,264.0 L909.7,271.3 L910.3,269.1 L910.8,276.1 L911.3,277.2 L911.8,267.4 L912.9,282.5 L913.4,271.7 L913.9,278.3 L914.4,270.8 L914.9,286.1 L915.5,268.8 L916.0,277.3 L916.5,281.7 L917.0,272.6 L917.5,288.9 L918.0,282.3 L918.5,283.1 L919.0,274.6 L919.5,279.7 L920.0,277.0 L920.5,290.5 L921.0,283.3 L921.5,293.3 L922.0,283.1 L922.5,279.4 L923.9,287.5 L924.4,288.4 L924.9,282.8 L925.4,295.2 L925.9,301.1 L926.4,303.2 L926.9,295.7 L927.5,295.7 L928.0,296.0 L928.5,290.0 L929.0,303.0 L929.5,296.5 L930.0,305.4 L930.5,308.4 L931.0,308.0 L931.5,297.4 L932.0,302.1 L932.5,307.7 L933.0,304.1 L933.6,304.6 L934.9,304.2 L935.3,310.6 L935.9,302.7 L936.4,316.4 L936.9,303.2 L937.4,317.9 L937.9,306.6 L938.4,309.8 L938.9,314.1 L939.4,314.1 L939.9,322.0 L940.4,317.1 L940.9,321.6 L941.4,319.4 L942.0,320.8 L942.5,315.1 L943.0,325.4 L943.5,320.7 L944.1,327.6 L944.6,316.1 L945.8,326.1 L946.3,329.6 L946.8,326.5 L947.4,330.7 L947.9,330.0 L948.4,327.9 L948.9,323.4 L949.4,336.6 L949.9,333.1 L950.4,332.2 L950.9,333.0 L951.4,332.2 L951.9,326.6 L952.4,331.2 L952.9,339.4 L953.4,342.4 L954.0,332.0 L954.5,338.3 L955.0,341.0 L955.5,345.2 L956.8,341.5 L957.3,343.1 L957.8,339.4 L958.4,349.6 L958.9,345.6 L959.5,351.4 L960.0,345.7 L960.5,345.4 L961.1,348.8 L961.6,348.1 L962.1,352.8 L962.5,344.2 L963.0,348.3 L963.5,357.4 L964.0,348.8 L964.5,353.7 L965.0,356.6 L965.5,355.7 L966.1,357.0 L966.6,354.4 L967.8,357.4 L968.2,364.3 L968.7,356.5 L969.3,358.8 L969.8,362.5 L970.3,364.3 L970.8,368.9 L971.3,365.6 L971.8,367.9 L972.3,365.0 L972.9,367.1 L973.4,364.8 L973.9,369.2 L974.4,368.2 L974.9,372.0 L975.4,366.9 L975.9,368.9 L976.4,373.6 L976.9,377.9 L977.4,379.2 L978.7,375.4 L979.2,373.9 L979.7,376.1 L980.3,381.5 L980.8,383.2 L981.3,382.0 L981.8,377.2 L982.3,382.1 L982.8,382.9 L983.3,383.9 L983.8,387.3 L984.3,384.1 L984.9,385.6 L985.4,384.9 L985.9,386.6 L986.4,389.0 L986.9,387.3 L987.4,393.8 L987.9,390.3 L988.4,393.6 L989.7,394.3 L990.1,392.1 L990.6,399.6 L991.2,395.8 L991.7,396.2 L992.2,399.8 L992.7,398.5 L993.2,399.9 L993.7,398.6 L994.2,401.8 L994.7,406.5 L995.2,400.9 L995.8,404.5 L996.3,408.1 L996.8,409.5 L997.3,407.8 L997.8,410.2 L998.3,406.9 L998.8,407.0 L999.3,411.0 L1000.6,411.2 L1001.1,410.8 L1001.6,415.8 L1002.2,416.1 L1002.7,418.0 L1003.2,416.1 L1003.7,418.7 L1004.2,415.5 L1004.7,421.2 L1005.2,417.1 L1005.8,421.6 L1006.3,421.6 L1006.8,423.2 L1007.3,425.0 L1007.8,422.4 L1008.3,425.1 L1008.8,424.2 L1009.3,426.0 L1009.9,427.8 L1010.4,429.2 L1011.6,429.2 L1012.1,431.4 L1012.6,432.5 L1013.2,431.1 L1013.7,435.0 L1014.2,435.8 L1014.7,435.2 L1015.1,435.8 L1015.7,439.2 L1016.2,437.6 L1016.7,440.8 L1017.2,439.9 L1017.7,438.8 L1018.1,441.3 L1018.6,442.2 L1019.1,442.3 L1019.6,442.5 L1020.1,443.3 L1020.7,446.6 L1021.2,447.4 L1022.6,449.2 L1023.0,449.4 L1023.5,450.8 L1024.1,451.8 L1024.6,452.1 L1025.1,452.2 L1025.6,454.3 L1026.1,453.7 L1026.6,456.0 L1027.2,455.9 L1027.7,457.3 L1028.3,457.7 L1028.8,457.9 L1029.3,459.5 L1029.8,460.6 L1030.3,461.2 L1030.8,461.8 L1031.9,463.3 L1032.4,464.4 L1034.3,466.9 L1034.8,467.9 L1035.3,469.0 L1035.9,469.8 L1036.5,470.6 L1037.1,471.3 L1037.7,472.3 L1038.3,473.5 L1038.9,474.5 L1039.5,475.3 L1040.0,476.2 L1040.6,477.1 L1041.1,477.9 L1041.7,478.6 L1042.3,479.8 L1042.8,480.6 L1043.4,481.3 L1044.0,482.9 L1046.2,486.2 L1046.6,486.8 L1047.1,488.1 L1047.7,487.8 L1048.3,489.0 L1048.8,490.6 L1049.3,491.7 L1049.9,491.1 L1050.4,493.0 L1051.0,492.6 L1051.5,493.6 L1052.1,494.7 L1052.6,495.7 L1053.2,497.1 L1053.7,497.1 L1054.3,499.2 L1054.8,499.3 L1055.4,500.4 L1055.9,500.2 L1058.0,503.0 L1058.4,504.5 L1058.9,505.3 L1059.5,505.4 L1060.0,507.3 L1060.6,507.3 L1061.2,510.4 L1061.8,508.7 L1062.3,512.7 L1062.9,513.4 L1063.4,512.1 L1064.0,515.2 L1064.5,514.0 L1065.1,513.5 L1065.6,517.0 L1066.2,517.5 L1066.7,517.4 L1067.3,518.9 L1067.8,520.8 L1069.8,520.8 L1072.1,526.9 L1072.6,526.0 L1073.1,525.0 L1073.6,527.9 L1074.1,528.0 L1074.6,528.4 L1075.1,530.5 L1075.6,529.4 L1076.1,532.1 L1076.6,533.9 L1077.1,533.1 L1077.6,534.2 L1078.1,535.4 L1078.6,537.3 L1079.1,538.0 L1079.6,533.8 L1081.0,537.2 L1081.5,536.9 L1082.0,540.6 L1082.5,537.6 L1083.0,542.8 L1083.5,541.4 L1084.0,544.0" fill="none" stroke="#1f77b4" stroke-width="1.4" opacity="0.85"/><text x="1040" y="54" fill="#ff7f0e" font-size="11">roll 18</text><text x="1090" y="558" fill="#ff7f0e" font-size="11">-21</text><path d="M650.6,288.2 L651.1,288.2 L651.6,288.2 L652.3,288.2 L652.9,288.2 L653.5,288.2 L654.1,288.2 L654.7,288.2 L655.3,288.2 L655.9,288.2 L656.4,288.2 L657.0,288.2 L657.5,288.2 L658.0,288.2 L658.6,288.2 L659.1,288.2 L659.6,288.2 L660.1,288.2 L660.6,288.2 L661.2,288.2 L661.7,288.2 L662.2,288.2 L662.7,288.2 L663.3,288.2 L663.9,288.2 L664.4,288.2 L664.9,288.2 L665.5,288.2 L666.1,288.2 L666.6,288.2 L667.1,288.2 L667.7,288.2 L668.2,288.2 L668.7,288.2 L669.3,288.2 L669.9,288.2 L670.5,288.2 L670.9,288.2 L671.5,288.2 L672.1,288.2 L672.7,288.2 L673.3,288.2 L673.8,288.2 L674.4,288.2 L675.0,288.2 L675.6,288.2 L676.2,288.2 L676.7,288.2 L677.2,288.2 L677.7,288.2 L678.2,288.2 L678.8,288.2 L679.3,288.2 L679.9,288.2 L680.5,288.2 L681.0,288.2 L681.5,288.2 L682.0,288.2 L682.5,288.2 L683.1,288.2 L683.6,288.2 L684.2,288.2 L684.8,288.2 L685.4,288.2 L686.0,288.2 L686.6,288.2 L687.2,288.2 L687.8,288.2 L688.4,288.2 L689.0,288.2 L689.6,288.2 L690.2,288.2 L690.8,288.2 L691.2,288.2 L691.7,288.2 L692.2,288.2 L692.8,288.2 L693.4,288.2 L693.9,288.2 L694.4,288.2 L694.9,288.2 L695.4,288.2 L696.0,288.2 L696.5,288.2 L697.0,288.2 L697.5,288.2 L698.0,288.2 L698.5,288.2 L699.1,288.2 L699.6,288.2 L700.1,288.2 L700.6,288.2 L701.2,288.2 L701.7,288.2 L702.2,288.2 L702.7,289.4 L703.2,288.2 L703.7,288.2 L704.2,289.4 L704.7,288.2 L705.2,288.2 L705.7,288.2 L706.2,288.2 L706.7,288.2 L707.2,288.2 L707.7,289.4 L708.2,288.2 L708.7,289.4 L709.2,288.2 L709.7,289.4 L710.2,288.2 L710.7,289.4 L711.2,288.2 L711.8,288.2 L712.3,289.4 L712.8,288.2 L713.3,288.2 L713.7,289.4 L714.2,288.2 L714.7,288.2 L715.2,288.2 L715.7,288.2 L716.2,288.2 L716.7,288.2 L717.2,288.2 L717.7,289.4 L718.2,288.2 L718.7,288.2 L719.2,288.2 L719.7,288.2 L720.2,288.2 L720.7,288.2 L721.5,288.2 L721.9,288.2 L722.5,288.2 L723.0,288.2 L723.5,288.2 L724.1,288.2 L724.6,288.2 L725.1,288.2 L725.7,289.4 L726.3,288.2 L726.8,288.2 L727.3,288.2 L727.8,268.8 L728.3,240.9 L728.8,222.7 L729.3,193.6 L729.8,173.0 L730.3,165.7 L730.8,146.3 L731.3,134.2 L731.8,117.2 L732.3,109.9 L732.8,119.6 L733.3,105.1 L733.8,112.4 L734.3,97.8 L734.8,107.5 L735.4,105.1 L735.9,91.8 L736.4,96.6 L736.9,85.7 L737.4,95.4 L737.9,93.0 L738.4,100.2 L738.9,96.6 L739.4,101.5 L739.9,88.1 L740.5,96.6 L740.9,106.3 L741.4,95.4 L742.1,103.9 L742.5,100.2 L743.1,125.7 L743.6,117.2 L744.1,117.2 L744.6,120.9 L745.1,128.1 L745.6,128.1 L746.1,124.5 L746.6,129.3 L747.1,125.7 L747.6,148.7 L748.1,152.4 L748.7,154.8 L749.2,154.8 L749.7,176.6 L750.2,216.6 L750.7,250.6 L751.2,289.4 L751.7,312.4 L752.5,356.1 L753.0,387.6 L753.5,404.6 L754.1,414.3 L754.6,434.9 L755.1,449.4 L755.6,459.1 L756.1,460.3 L756.6,471.3 L757.1,464.0 L757.6,482.2 L758.1,481.0 L758.6,488.2 L759.1,472.5 L759.6,484.6 L760.1,487.0 L760.7,484.6 L761.2,490.7 L761.7,473.7 L762.2,490.7 L763.0,484.6 L763.5,494.3 L764.0,478.5 L764.5,487.0 L765.0,483.4 L765.5,482.2 L766.0,487.0 L766.5,490.7 L767.0,489.4 L767.5,488.2 L768.0,488.2 L768.4,494.3 L769.0,495.5 L769.5,484.6 L770.0,493.1 L770.5,479.7 L771.0,493.1 L771.5,491.9 L772.0,481.0 L772.5,491.9 L773.5,491.9 L773.9,488.2 L774.4,478.5 L775.0,488.2 L775.5,482.2 L776.0,479.7 L776.5,493.1 L777.0,495.5 L777.5,477.3 L778.0,477.3 L778.5,493.1 L779.0,484.6 L779.6,487.0 L780.1,495.5 L780.6,494.3 L781.1,490.7 L781.6,478.5 L782.1,495.5 L782.6,489.4 L783.1,494.3 L783.9,482.2 L784.4,495.5 L784.9,482.2 L785.4,491.9 L785.9,479.7 L786.4,448.2 L786.9,393.7 L787.4,363.3 L787.9,317.3 L788.4,291.8 L789.0,257.9 L789.5,222.7 L790.0,208.2 L790.5,179.1 L791.0,168.1 L791.5,141.5 L792.0,137.8 L792.5,129.3 L793.0,124.5 L793.6,105.1 L794.4,102.7 L794.9,99.0 L795.4,89.3 L795.9,101.5 L796.4,88.1 L796.9,99.0 L797.4,99.0 L797.9,83.3 L798.4,84.5 L798.9,96.6 L799.4,96.6 L799.9,99.0 L800.4,95.4 L800.9,100.2 L801.5,93.0 L802.0,91.8 L802.5,84.5 L803.0,96.6 L803.5,89.3 L804.0,94.2 L804.9,93.0 L805.3,94.2 L805.8,93.0 L806.3,99.0 L806.8,93.0 L807.3,97.8 L807.8,84.5 L808.3,99.0 L808.8,97.8 L809.3,95.4 L809.8,90.5 L810.3,93.0 L810.8,91.8 L811.3,80.8 L811.8,86.9 L812.3,80.8 L812.8,82.1 L813.3,85.7 L813.8,80.8 L814.3,96.6 L815.3,83.3 L815.9,86.9 L816.4,90.5 L816.9,89.3 L817.4,91.8 L817.9,79.6 L818.4,80.8 L818.9,91.8 L819.4,93.0 L819.9,82.1 L820.5,80.8 L821.0,80.8 L821.5,100.2 L822.0,90.5 L822.5,100.2 L823.0,82.1 L823.5,97.8 L823.9,94.2 L824.4,80.8 L824.9,99.0 L825.8,94.2 L826.2,96.6 L826.7,79.6 L827.2,95.4 L827.7,80.8 L828.2,85.7 L828.7,90.5 L829.2,96.6 L829.7,99.0 L830.2,99.0 L830.7,89.3 L831.2,97.8 L831.7,78.4 L832.2,99.0 L832.8,85.7 L833.3,83.3 L833.8,85.7 L834.3,79.6 L834.8,94.2 L835.3,91.8 L836.3,86.9 L836.8,76.0 L837.3,90.5 L837.8,91.8 L838.3,83.3 L838.8,86.9 L839.3,96.6 L839.8,88.1 L840.3,80.8 L840.8,95.4 L841.4,90.5 L841.9,86.9 L842.4,83.3 L842.9,99.0 L843.4,84.5 L843.9,85.7 L844.4,90.5 L844.9,97.8 L845.4,84.5 L845.9,88.1 L847.2,100.2 L847.7,82.1 L848.2,83.3 L848.8,93.0 L849.3,101.5 L849.8,83.3 L850.3,93.0 L850.8,90.5 L851.2,97.8 L851.7,86.9 L852.2,90.5 L852.7,85.7 L853.2,79.6 L853.7,93.0 L854.2,93.0 L854.7,89.3 L855.3,86.9 L855.8,85.7 L856.3,93.0 L856.8,97.8 L858.2,82.1 L858.6,100.2 L859.1,79.6 L859.6,86.9 L860.1,91.8 L860.6,80.8 L861.1,97.8 L861.6,88.1 L862.1,94.2 L862.6,80.8 L863.1,79.6 L863.6,99.0 L864.1,95.4 L864.6,99.0 L865.1,91.8 L865.6,80.8 L866.1,85.7 L866.6,80.8 L867.1,96.6 L867.6,88.1 L868.1,85.7 L869.1,80.8 L869.6,88.1 L870.1,90.5 L870.6,86.9 L871.1,100.2 L871.6,95.4 L872.1,89.3 L872.7,80.8 L873.2,89.3 L873.7,88.1 L874.2,84.5 L874.7,86.9 L875.2,99.0 L875.7,88.1 L876.2,86.9 L876.7,97.8 L877.2,80.8 L877.7,93.0 L878.2,78.4 L878.7,94.2 L880.0,93.0 L880.5,88.1 L881.0,82.1 L881.5,79.6 L882.0,91.8 L882.5,95.4 L883.0,88.1 L883.5,97.8 L884.0,80.8 L884.5,99.0 L885.0,79.6 L885.5,85.7 L886.0,97.8 L886.5,79.6 L887.0,82.1 L887.5,95.4 L888.0,89.3 L888.5,88.1 L889.0,99.0 L889.5,95.4 L891.0,83.3 L891.4,97.8 L891.9,95.4 L892.4,99.0 L892.9,85.7 L893.5,88.1 L894.0,90.5 L894.6,80.8 L895.1,82.1 L895.6,89.3 L896.1,100.2 L896.6,79.6 L897.1,80.8 L897.6,97.8 L898.1,85.7 L898.6,84.5 L899.1,83.3 L899.6,99.0 L900.2,93.0 L900.7,78.4 L902.0,85.7 L902.5,91.8 L903.0,85.7 L903.6,95.4 L904.1,86.9 L904.6,94.2 L905.2,84.5 L905.7,93.0 L906.2,96.6 L906.7,99.0 L907.2,96.6 L907.7,91.8 L908.2,90.5 L908.7,85.7 L909.2,95.4 L909.7,90.5 L910.3,84.5 L910.8,94.2 L911.3,88.1 L911.8,86.9 L912.9,84.5 L913.4,90.5 L913.9,88.1 L914.4,90.5 L914.9,94.2 L915.5,96.6 L916.0,84.5 L916.5,89.3 L917.0,99.0 L917.5,99.0 L918.0,79.6 L918.5,94.2 L919.0,88.1 L919.5,95.4 L920.0,89.3 L920.5,94.2 L921.0,94.2 L921.5,79.6 L922.0,99.0 L922.5,97.8 L923.9,82.1 L924.4,82.1 L924.9,86.9 L925.4,91.8 L925.9,96.6 L926.4,84.5 L926.9,88.1 L927.5,83.3 L928.0,90.5 L928.5,91.8 L929.0,88.1 L929.5,89.3 L930.0,84.5 L930.5,89.3 L931.0,99.0 L931.5,85.7 L932.0,80.8 L932.5,88.1 L933.0,97.8 L933.6,88.1 L934.9,79.6 L935.3,89.3 L935.8,95.4 L936.4,90.5 L936.9,78.4 L937.4,94.2 L937.9,84.5 L938.4,79.6 L938.9,99.0 L939.4,88.1 L939.9,90.5 L940.4,85.7 L940.9,100.2 L941.4,93.0 L942.0,80.8 L942.5,95.4 L943.0,90.5 L943.5,96.6 L944.1,91.8 L944.6,85.7 L945.8,97.8 L946.3,86.9 L946.8,83.3 L947.4,94.2 L947.9,96.6 L948.4,89.3 L948.9,79.6 L949.4,83.3 L949.9,85.7 L950.4,97.8 L950.9,97.8 L951.4,89.3 L951.9,91.8 L952.4,82.1 L952.9,94.2 L953.4,95.4 L954.0,83.3 L954.5,84.5 L955.0,89.3 L955.5,93.0 L956.8,94.2 L957.3,97.8 L957.8,89.3 L958.4,95.4 L958.9,89.3 L959.4,97.8 L960.0,94.2 L960.5,93.0 L961.1,83.3 L961.5,96.6 L962.0,94.2 L962.5,95.4 L963.0,86.9 L963.5,90.5 L964.0,96.6 L964.5,82.1 L965.0,94.2 L965.5,91.8 L966.1,90.5 L966.6,94.2 L967.8,94.2 L968.2,88.1 L968.7,85.7 L969.3,91.8 L969.8,77.2 L970.3,91.8 L970.8,77.2 L971.3,94.2 L971.8,80.8 L972.3,97.8 L972.9,80.8 L973.4,80.8 L973.9,91.8 L974.4,96.6 L974.9,99.0 L975.4,85.7 L975.9,90.5 L976.4,97.8 L976.9,86.9 L977.4,89.3 L978.7,82.1 L979.2,90.5 L979.7,83.3 L980.3,100.2 L980.8,82.1 L981.3,84.5 L981.8,86.9 L982.3,82.1 L982.8,88.1 L983.3,86.9 L983.8,82.1 L984.3,101.5 L984.9,91.8 L985.4,88.1 L985.9,79.6 L986.4,100.2 L986.9,84.5 L987.4,89.3 L987.9,95.4 L988.4,99.0 L989.7,97.8 L990.1,93.0 L990.6,85.7 L991.2,82.1 L991.7,89.3 L992.2,83.3 L992.7,96.6 L993.2,89.3 L993.7,86.9 L994.2,91.8 L994.7,89.3 L995.2,89.3 L995.8,89.3 L996.3,101.5 L996.8,90.5 L997.3,88.1 L997.8,84.5 L998.3,93.0 L998.8,100.2 L999.3,82.1 L1000.6,89.3 L1001.1,85.7 L1001.6,99.0 L1002.2,91.8 L1002.7,85.7 L1003.2,100.2 L1003.7,80.8 L1004.2,91.8 L1004.7,84.5 L1005.2,82.1 L1005.8,80.8 L1006.3,96.6 L1006.8,100.2 L1007.3,94.2 L1007.8,84.5 L1008.3,89.3 L1008.8,94.2 L1009.3,95.4 L1009.9,96.6 L1010.4,94.2 L1011.6,97.8 L1012.1,83.3 L1012.6,88.1 L1013.2,91.8 L1013.7,79.6 L1014.2,84.5 L1014.7,95.4 L1015.1,85.7 L1015.7,99.0 L1016.1,100.2 L1016.6,152.4 L1017.1,190.0 L1017.6,221.5 L1018.1,248.2 L1018.6,283.3 L1019.1,303.9 L1019.6,331.8 L1020.1,350.0 L1020.7,373.0 L1021.2,387.6 L1022.6,419.1 L1023.0,432.5 L1023.5,442.2 L1024.1,455.5 L1024.6,462.8 L1025.1,457.9 L1025.6,473.7 L1026.1,466.4 L1026.6,468.8 L1027.2,478.5 L1027.7,479.7 L1028.3,488.2 L1028.8,479.7 L1029.3,477.3 L1029.8,473.7 L1030.3,487.0 L1030.8,479.7 L1031.9,482.2 L1032.4,474.9 L1034.3,496.7 L1034.8,493.1 L1035.3,491.9 L1035.9,506.4 L1036.5,495.5 L1037.1,482.2 L1037.7,477.3 L1038.3,494.3 L1038.9,500.4 L1039.5,493.1 L1040.0,500.4 L1040.6,501.6 L1041.1,521.0 L1041.6,507.6 L1042.2,527.0 L1042.8,513.7 L1043.4,514.9 L1044.0,530.7 L1046.2,528.2 L1046.6,544.0 L1047.1,535.5 L1047.7,527.0 L1048.3,537.9 L1048.8,522.2 L1049.3,531.9 L1049.9,525.8 L1050.4,499.1 L1051.0,508.8 L1051.5,506.4 L1052.1,507.6 L1052.6,501.6 L1053.2,513.7 L1053.7,507.6 L1054.3,512.5 L1054.8,502.8 L1055.4,484.6 L1055.9,482.2 L1058.0,504.0 L1058.4,496.7 L1058.9,464.0 L1059.5,468.8 L1060.0,451.9 L1060.6,447.0 L1061.2,424.0 L1061.8,431.2 L1062.3,437.3 L1062.9,416.7 L1063.4,399.7 L1064.0,402.1 L1064.5,403.4 L1065.1,397.3 L1065.6,403.4 L1066.2,368.2 L1066.7,360.9 L1067.3,336.7 L1067.8,341.5 L1069.8,329.4 L1072.1,314.8 L1072.6,312.4 L1073.1,308.8 L1073.6,310.0 L1074.1,305.2 L1074.6,305.2 L1075.1,303.9 L1075.6,301.5 L1076.1,301.5 L1076.6,300.3 L1077.1,297.9 L1077.6,297.9 L1078.1,296.7 L1078.6,295.5 L1079.1,295.5 L1079.6,294.2 L1081.0,291.8 L1081.5,293.0 L1082.0,291.8 L1082.5,291.8 L1083.0,291.8 L1083.5,290.6 L1084.0,290.6" fill="none" stroke="#ff7f0e" stroke-width="1.1" opacity="0.85"/><text x="616" y="572" font-size="11" fill="#888">time 0..47 s — altitude (blue) &amp; roll (orange)</text></svg>