<svg xmlns="http://www.w3.org/2000/svg" width="1140" height="600" font-family="sans-serif" font-size="13"><rect width="1140" height="600" fill="white"/><text x="20" y="26" font-size="15" fill="#333">Coludo flight</text><rect x="20" y="40" width="540" height="540" fill="#fbfbfb" stroke="#ddd"/><rect x="50" y="214" width="393" height="85" fill="#cde" stroke="#369" opacity="0.7"/><text x="50" y="209" fill="#369" font-size="12">landing zone</text><circle cx="299" cy="346" r="5" fill="black"/><text x="307" y="350" font-size="12">pad</text><path d="M299.7,345.8 L299.7,345.8 L299.7,345.8 L299.7,345.8 L299.7,345.8 L299.7,345.8 L299.7,345.8 L299.7,345.8 L299.7,345.8 L299.7,345.8 L299.7,345.8 L299.7,345.8 L299.7,345.8 L299.7,345.8 L299.7,345.8 L299.7,345.8 L299.7,345.8 L299.7,345.8 L299.7,345.8 L299.7,345.8 L299.7,345.8 L299.7,345.8 L299.7,345.8 L299.7,345.8 L299.7,345.8 L299.7,345.8 L299.7,345.8 L299.7,345.8 L299.7,345.8 L299.7,345.8 L299.7,345.8 L299.7,345.8 L299.7,345.8 L299.7,345.8 L299.7,345.8 L299.7,345.8 L299.7,345.8 L299.7,345.8 L299.7,345.8 L299.7,345.8 L299.7,345.8 L299.7,345.8 L299.7,345.8 L299.7,345.8 L299.7,345.8 L299.7,345.8 L299.7,345.8 L299.7,345.8 L299.7,345.8 L299.7,345.8 L299.7,345.8 L299.7,345.8 L299.7,345.8 L299.7,345.8 L299.7,345.8 L299.7,345.8 L299.7,345.8 L299.7,345.8 L299.7,345.8 L299.7,345.8 L299.7,345.8 L299.7,345.8 L299.7,345.8 L299.7,345.8 L299.7,345.8 L299.7,345.8 L299.7,345.8 L299.7,345.8 L299.7,345.8 L299.7,344.4 L301.0,343.5 L301.8,341.6 L301.8,339.7 L303.9,338.3 L306.1,336.9 L307.7,335.5 L307.7,334.1 L308.2,333.2 L310.3,331.8 L312.4,330.4 L314.5,329.4 L314.5,328.0 L316.6,327.1 L318.7,325.7 L320.8,324.7 L321.3,324.3 L323.0,323.3 L327.2,322.4 L328.0,321.9 L329.3,321.0 L331.4,320.1 L333.5,319.1 L335.6,318.2 L337.7,317.7 L339.9,316.8 L341.5,316.3 L344.1,315.4 L346.2,314.9 L348.3,314.4 L350.0,314.0 L352.5,313.5 L354.6,312.6 L355.1,312.1 L356.8,311.6 L361.0,310.7 L361.8,310.2 L365.2,309.8 L367.3,308.8 L368.6,308.4 L369.4,307.9 L373.7,307.0 L375.8,306.5 L377.0,306.0 L377.9,305.6 L380.0,304.6 L383.8,304.6 L384.2,303.7 L386.3,303.2 L388.5,302.3 L388.9,301.8 L392.7,300.9 L394.8,300.4 L395.6,299.5 L396.9,298.5 L399.0,298.1 L402.4,297.1 L403.2,296.2 L405.4,295.3 L407.5,294.8 L409.6,293.4 L410.0,292.0 L411.7,291.0 L413.8,289.6 L415.9,288.2 L417.6,286.8 L417.6,285.9 L418.0,284.5 L420.1,282.1 L422.3,280.3 L422.3,278.9 L422.7,277.0 L422.7,275.6 L424.4,273.7 L424.4,271.8 L426.5,270.0 L426.5,268.1 L426.5,266.2 L426.5,263.9 L426.5,261.5 L426.5,259.2 L426.5,257.3 L426.5,255.9 L426.5,254.1 L426.5,251.7 L426.5,249.4 L424.4,247.0 L424.4,244.7 L424.4,242.3 L422.7,240.0 L422.7,238.1 L422.3,235.8 L420.1,233.9 L420.1,231.6 L418.0,229.7 L417.6,227.4 L415.9,225.5 L413.8,223.6 L411.7,221.7 L410.0,219.4 L409.6,217.5 L407.5,215.7 L403.2,213.8 L402.4,211.4 L399.0,209.1 L396.9,207.7 L394.8,205.8 L392.7,204.0 L390.6,202.1 L388.5,199.7 L386.3,198.3 L384.2,196.5 L382.1,194.1 L380.0,191.3 L377.9,189.4 L377.0,187.6 L373.7,185.2 L371.5,183.4 L371.5,181.0 L369.4,179.6 L368.6,177.3 L367.3,174.9 L365.2,171.6 L365.2,169.8 L363.1,167.9 L363.1,165.6 L361.8,163.7 L361.8,161.3 L361.8,159.9 L361.0,157.6 L361.0,155.7 L361.0,153.4 L361.0,151.5 L361.0,149.6 L361.0,147.8 L361.0,145.9 L361.0,143.6 L361.0,141.7 L361.0,140.3 L361.8,138.4 L361.8,136.1 L361.8,134.7 L363.1,132.8 L363.1,131.4 L365.2,130.0 L365.2,128.1 L367.3,126.7 L368.6,124.8 L368.6,123.0 L369.4,122.0 L371.5,120.6 L373.7,118.3 L375.8,116.9 L377.0,115.5 L380.0,114.1 L382.1,113.1 L383.8,112.7 L384.2,111.7 L386.3,110.8 L388.5,109.8 L390.6,108.9 L394.8,108.4 L395.6,107.5 L396.9,107.0 L401.1,107.0 L402.4,106.6 L403.2,106.6 L407.5,106.6 L409.6,106.6 L413.8,106.6 L415.9,106.6 L418.0,107.0 L420.1,107.5 L422.7,108.0 L426.5,108.4 L428.6,109.4 L430.7,109.8 L432.8,110.8 L437.0,111.7 L438.7,112.7 L441.3,113.6 L443.8,114.5 L445.5,115.9 L449.7,117.3 L451.8,119.2 L453.9,120.6 L456.5,122.0 L458.2,123.4 L463.2,126.7 L464.5,128.6 L468.7,130.9 L470.8,132.3 L473.0,134.7 L475.1,137.0 L477.6,139.3 L479.3,141.2 L483.5,144.0 L484.4,146.8 L487.7,149.2 L489.9,152.0 L490.3,154.8 L494.1,158.1 L496.2,160.4 L497.0,163.7 L498.3,166.5 L502.5,170.2 L504.6,172.6 L505.5,176.3 L506.8,179.6 L508.9,182.9 L511.0,186.6 L512.3,190.4 L513.1,193.7 L515.2,198.3 L517.3,201.6 L519.0,205.8 L519.4,209.1 L521.5,215.7 L523.7,219.9 L523.7,223.6 L526.6,227.8 L526.6,231.6 L525.8,236.7 L525.8,240.5 L527.9,245.2 L527.9,248.4 L527.9,256.9 L530.0,262.0 L530.0,266.2 L530.0,270.4 L530.0,274.7 L530.0,278.4 L530.0,284.5 L530.0,287.8 L527.9,292.9 L527.9,299.9 L527.9,304.6 L525.8,308.8 L525.8,314.0 L526.6,317.7 L526.6,322.9 L523.7,326.6 L523.7,331.8 L521.5,335.5 L519.4,340.7 L519.4,344.4 L519.0,349.1 L517.3,352.8 L515.2,358.0 L513.1,362.2 L512.3,365.5 L511.0,370.6 L508.9,373.9 L506.8,378.1 L504.6,382.3 L502.5,388.0 L500.4,391.7 L497.0,395.9 L496.2,399.7 L492.0,403.9 L490.3,407.6 L487.7,411.8 L485.6,415.1 L483.5,419.8 L479.3,422.6 L477.2,426.8 L475.1,430.1 L471.7,434.3 L468.7,437.6 L464.5,440.9 L463.2,444.1 L460.3,447.4 L456.5,450.7 L453.9,454.0 L452.3,457.7 L443.8,462.9 L441.3,466.6 L437.0,469.4 L432.8,472.2 L429.4,475.5 L426.5,477.8 L422.7,480.2 L420.1,483.0 L415.9,485.8 L405.4,491.0 L402.4,493.3 L396.9,495.6 L394.8,497.0 L390.6,498.9 L386.3,500.3 L383.8,501.7 L377.9,503.6 L375.8,505.0 L371.5,506.4 L363.1,507.8 L358.9,509.2 L355.1,510.2 L352.5,510.6 L348.3,511.6 L342.0,512.0 L339.9,512.5 L335.6,513.0 L331.4,513.4 L323.0,513.4 L318.7,513.4 L310.3,513.0 L306.1,513.0 L301.8,512.5 L299.7,512.0 L295.5,511.6 L291.3,511.1 L287.0,510.2 L282.8,509.2 L280.7,508.7 L274.4,508.3" fill="none" stroke="#1f77b4" stroke-width="1.7" opacity="0.85"/><circle cx="274" cy="508" r="4.5" fill="#1f77b4"/><text x="28" y="572" font-size="11" fill="#888">ground track — m from pad (N up)</text><rect x="580" y="40" width="540" height="540" fill="#fbfbfb" stroke="#ddd"/><text x="586" y="54" fill="#1f77b4" font-size="11">alt 345</text><text x="586" y="558" fill="#1f77b4" font-size="11">-59</text><path d="M654.0,473.1 L654.4,473.4 L654.9,472.8 L655.7,472.4 L656.1,472.6 L656.6,472.3 L657.1,471.3 L657.6,471.5 L658.1,471.1 L658.5,470.7 L659.0,469.6 L659.5,468.9 L660.0,467.2 L660.4,467.3 L660.9,465.8 L661.4,465.5 L661.9,463.1 L662.4,463.9 L662.9,461.7 L663.3,460.7 L663.8,457.7 L664.3,456.2 L664.8,455.6 L665.3,455.7 L665.8,453.8 L666.2,452.4 L666.7,450.4 L667.2,448.0 L667.7,446.7 L668.2,441.2 L668.6,444.2 L669.1,439.2 L669.6,437.0 L670.1,437.2 L670.6,432.7 L671.1,425.0 L671.6,431.1 L672.0,426.6 L672.6,420.2 L673.1,414.5 L673.6,418.5 L674.1,419.4 L674.6,404.1 L675.1,401.8 L675.7,403.1 L676.1,402.1 L676.7,402.5 L677.2,390.4 L677.8,384.7 L678.3,394.9 L678.8,383.5 L679.3,372.3 L679.8,377.9 L680.3,364.6 L680.7,377.5 L681.2,376.9 L681.7,353.0 L682.2,360.7 L682.7,348.6 L683.1,362.1 L683.7,337.1 L684.2,329.8 L684.6,328.4 L685.1,336.6 L685.6,342.2 L686.1,325.5 L686.6,337.8 L687.0,331.8 L687.5,315.1 L688.0,321.7 L688.4,321.4 L688.9,313.6 L689.4,305.7 L689.9,301.4 L690.4,293.4 L690.9,288.0 L691.3,292.1 L691.8,265.1 L692.3,273.5 L692.7,259.6 L693.2,289.8 L693.7,283.8 L694.2,256.2 L694.7,258.0 L695.2,267.5 L695.7,266.7 L696.2,250.3 L696.6,252.2 L697.1,253.4 L697.6,221.2 L698.1,224.5 L698.5,227.3 L699.0,237.3 L699.5,244.1 L700.0,217.9 L700.5,229.7 L700.9,230.6 L701.4,205.6 L701.9,201.4 L702.5,209.2 L703.0,205.6 L703.5,213.2 L704.0,174.3 L704.5,190.4 L705.0,194.0 L705.5,207.5 L706.0,206.8 L706.5,190.0 L707.0,187.2 L707.5,185.4 L707.9,163.3 L708.4,152.4 L708.9,197.7 L709.3,191.2 L709.8,187.2 L710.3,189.2 L710.8,194.5 L711.3,167.9 L711.7,132.6 L712.4,155.4 L712.9,144.1 L713.3,156.5 L713.9,176.4 L714.4,143.4 L714.9,169.0 L715.4,169.0 L715.9,111.8 L716.5,157.3 L716.9,124.1 L717.4,121.8 L717.9,164.5 L718.4,151.0 L718.9,108.3 L719.4,128.1 L719.9,136.9 L720.4,133.3 L721.0,132.0 L721.5,128.6 L722.0,112.6 L722.5,121.8 L723.0,155.8 L723.5,88.6 L724.0,102.0 L724.5,83.6 L725.0,138.9 L725.5,131.3 L726.0,85.4 L726.5,91.4 L727.0,103.8 L727.5,113.2 L727.9,114.7 L728.4,122.3 L728.9,76.7 L729.5,117.0 L730.1,112.7 L730.7,85.4 L731.3,111.4 L731.8,124.3 L732.4,86.6 L732.9,123.7 L733.4,94.0 L733.9,86.4 L734.4,109.7 L735.0,76.0 L735.5,106.4 L736.1,101.8 L736.6,103.5 L737.1,146.7 L737.6,131.0 L738.2,80.3 L738.7,80.7 L739.2,133.6 L739.7,120.1 L740.3,86.5 L740.8,78.2 L741.3,113.2 L742.0,119.0 L742.6,84.0 L743.1,84.2 L743.7,106.2 L744.1,94.2 L744.7,97.5 L745.2,105.8 L745.8,139.6 L746.3,92.7 L746.8,126.4 L747.3,118.3 L747.9,144.5 L748.4,96.4 L748.9,109.3 L749.4,122.1 L749.9,104.7 L750.4,137.7 L751.0,122.4 L751.5,148.1 L752.1,150.3 L752.7,90.3 L753.3,111.8 L753.8,145.6 L754.4,117.9 L755.0,84.5 L755.5,104.5 L756.1,91.3 L756.5,145.4 L757.1,132.4 L757.6,122.6 L758.2,87.0 L758.7,112.1 L759.2,83.0 L759.7,122.7 L760.2,93.7 L760.7,110.7 L761.2,140.2 L762.3,102.2 L762.8,149.5 L763.3,97.3 L763.8,141.4 L764.4,145.6 L765.0,123.2 L765.5,133.5 L766.1,128.2 L766.6,138.4 L767.2,98.1 L767.8,97.4 L768.3,130.3 L768.8,105.0 L769.3,96.4 L769.9,121.7 L770.4,100.1 L771.0,112.7 L771.5,106.8 L772.3,151.0 L772.8,134.3 L773.4,152.0 L773.9,135.0 L774.4,155.9 L775.0,155.5 L775.5,160.6 L776.1,110.1 L776.6,120.0 L777.1,102.4 L777.6,140.2 L778.2,128.0 L778.7,157.2 L779.2,129.3 L779.7,103.8 L780.3,97.1 L780.8,140.3 L781.3,124.6 L781.8,141.0 L782.4,149.1 L782.9,140.5 L783.5,158.5 L783.9,131.8 L784.5,100.5 L785.0,152.2 L785.6,164.1 L786.1,164.2 L786.6,133.3 L787.1,112.7 L787.7,166.7 L788.2,113.9 L788.7,132.0 L789.2,130.5 L789.8,155.4 L790.3,162.4 L790.8,130.6 L791.3,162.4 L791.9,153.5 L792.5,157.3 L793.0,159.9 L793.5,115.8 L794.0,110.5 L794.5,122.6 L795.1,143.8 L795.6,109.1 L796.1,137.8 L796.6,167.4 L797.2,112.9 L797.7,113.8 L798.3,149.0 L798.7,128.2 L799.3,154.7 L799.8,139.2 L800.4,152.4 L800.9,134.2 L801.4,124.3 L802.0,125.6 L802.6,159.9 L803.2,153.7 L803.7,173.0 L804.3,161.4 L804.8,150.4 L805.4,119.8 L805.9,128.8 L806.4,158.5 L806.9,143.0 L807.5,145.9 L808.1,171.6 L808.6,181.4 L809.2,180.7 L809.8,121.3 L810.4,144.8 L810.9,156.0 L811.4,125.7 L811.9,184.3 L812.7,154.4 L813.2,177.9 L813.7,152.9 L814.3,149.1 L814.9,126.2 L815.5,183.5 L816.0,186.9 L816.6,144.9 L817.1,185.4 L817.7,161.8 L818.2,192.1 L818.7,190.7 L819.3,131.6 L819.8,189.2 L820.4,185.8 L820.9,178.6 L821.5,172.8 L822.1,181.3 L822.9,141.9 L823.4,174.3 L824.0,192.1 L824.6,191.7 L825.2,195.7 L825.7,170.6 L826.2,180.7 L826.8,158.4 L827.3,166.0 L827.8,172.4 L828.3,169.7 L828.8,162.2 L829.3,144.7 L829.9,192.7 L830.4,145.9 L830.9,186.8 L831.3,161.5 L831.9,155.6 L832.3,171.7 L833.0,154.0 L833.4,184.4 L834.0,175.4 L834.5,180.8 L835.0,193.8 L835.6,170.1 L836.1,192.9 L836.6,172.9 L837.2,202.2 L838.0,166.9 L838.5,193.1 L839.1,194.0 L839.6,210.1 L840.2,169.6 L840.7,213.0 L841.3,200.3 L841.9,160.8 L842.5,187.9 L843.5,186.6 L844.1,170.0 L844.6,174.2 L845.1,161.2 L845.6,174.6 L846.1,182.1 L846.6,179.3 L847.1,192.5 L847.6,194.3 L848.1,177.8 L848.6,177.5 L849.1,171.6 L849.6,177.4 L850.2,217.6 L850.7,208.1 L851.3,218.8 L851.8,182.1 L852.4,203.2 L852.9,198.2 L854.1,190.2 L854.7,192.2 L855.2,217.7 L855.7,174.8 L856.3,208.6 L856.9,206.8 L857.4,194.7 L858.0,211.2 L858.5,182.1 L859.1,230.8 L859.7,207.9 L860.2,201.6 L860.7,181.4 L861.2,202.8 L861.8,204.1 L862.4,197.1 L862.9,219.3 L863.5,229.4 L864.6,237.3 L865.1,228.4 L865.6,230.0 L866.2,216.1 L866.7,207.4 L867.3,193.3 L867.8,197.6 L868.3,221.4 L868.8,216.6 L869.4,197.6 L869.9,206.5 L870.4,233.4 L870.9,232.1 L871.4,194.9 L872.0,227.5 L872.6,240.1 L873.1,242.6 L873.6,227.2 L874.1,210.9 L875.2,213.1 L875.8,217.4 L876.3,236.9 L876.9,251.0 L877.4,234.7 L877.9,245.4 L878.4,241.6 L878.9,236.5 L879.5,221.3 L880.0,215.8 L880.5,255.8 L881.0,255.2 L881.6,215.9 L882.1,220.2 L882.7,225.7 L883.1,214.2 L883.7,240.9 L884.2,227.0 L884.8,255.9 L885.8,254.2 L886.3,231.4 L886.8,237.8 L887.4,254.3 L887.9,243.2 L888.4,262.5 L888.9,244.0 L889.5,248.3 L890.0,260.9 L890.5,265.0 L891.1,227.3 L891.7,230.7 L892.3,243.4 L892.8,248.0 L893.3,254.7 L893.9,235.4 L894.4,258.4 L895.0,255.5 L896.3,248.2 L896.9,244.4 L897.5,259.3 L898.0,253.5 L898.6,259.2 L899.1,240.0 L899.7,248.7 L900.2,236.7 L900.8,264.6 L901.3,265.8 L901.9,254.7 L902.5,278.0 L903.0,262.7 L903.6,251.1 L904.2,250.2 L904.8,276.9 L905.3,266.1 L905.8,276.4 L906.9,274.3 L907.5,286.2 L908.0,259.1 L908.5,285.0 L909.1,249.8 L909.7,270.2 L910.2,253.0 L910.8,276.0 L911.4,266.1 L911.9,284.0 L912.5,280.1 L913.0,268.4 L913.5,281.4 L913.9,264.2 L914.4,296.7 L915.0,264.5 L915.5,274.8 L916.0,277.7 L917.4,283.5 L917.9,273.5 L918.4,271.9 L919.0,282.6 L919.5,270.9 L920.0,279.8 L920.5,294.3 L921.1,299.4 L921.6,268.2 L922.1,290.5 L922.6,297.7 L923.1,290.9 L923.6,273.7 L924.2,297.6 L924.7,304.6 L925.2,307.9 L925.7,284.6 L926.3,301.2 L926.8,288.7 L928.1,302.8 L928.6,313.8 L929.0,313.6 L929.6,301.8 L930.1,309.5 L930.6,294.2 L931.1,283.3 L931.7,311.7 L932.2,313.7 L932.7,295.8 L933.2,313.7 L933.8,309.5 L934.3,297.3 L934.9,292.1 L935.3,307.0 L935.9,318.6 L936.4,313.9 L937.0,308.5 L937.5,294.5 L938.6,308.9 L939.1,309.1 L939.6,323.2 L940.1,327.5 L940.6,330.8 L941.2,331.4 L941.7,323.5 L942.3,331.1 L942.7,330.2 L943.3,317.1 L943.8,318.1 L944.4,321.6 L944.9,314.0 L945.4,336.4 L945.9,320.2 L946.5,329.6 L947.1,338.1 L947.6,313.0 L948.1,317.4 L949.2,320.7 L949.8,314.8 L950.2,338.2 L950.8,326.6 L951.3,331.6 L951.9,344.7 L952.4,329.1 L952.8,328.7 L953.4,337.1 L954.0,329.5 L954.5,340.8 L955.0,338.0 L955.5,344.0 L956.1,348.9 L956.6,346.1 L957.1,339.5 L957.6,341.8 L958.2,328.5 L958.7,337.5 L959.7,339.7 L960.2,339.1 L960.6,355.1 L961.2,358.2 L961.8,356.1 L962.3,358.9 L962.8,343.9 L963.4,356.2 L963.9,350.3 L964.4,361.2 L964.9,343.0 L965.4,343.7 L965.9,361.0 L966.5,356.3 L967.0,352.4 L967.5,344.6 L968.0,347.7 L968.6,352.1 L969.1,350.9 L970.3,349.0 L970.9,351.1 L971.4,370.5 L972.0,365.5 L972.5,359.9 L973.0,373.8 L973.5,357.6 L974.1,358.7 L974.6,357.2 L975.0,376.4 L975.5,363.8 L976.1,378.5 L976.6,370.9 L977.1,369.8 L977.6,368.7 L978.2,366.1 L978.7,370.5 L979.3,377.4 L979.8,376.6 L980.9,382.7 L981.4,382.3 L981.9,376.4 L982.4,387.6 L982.9,374.6 L983.5,381.4 L984.0,377.4 L984.5,376.0 L985.0,380.0 L985.5,376.7 L986.0,384.2 L986.5,378.9 L987.0,380.2 L987.5,393.4 L988.1,388.0 L988.6,392.3 L989.2,387.6 L989.7,396.8 L990.2,395.0 L991.5,395.5 L992.0,390.8 L992.5,395.7 L993.1,404.6 L993.6,395.7 L994.2,397.8 L994.7,393.0 L995.2,395.0 L995.7,403.7 L996.3,396.9 L996.8,404.9 L997.3,405.5 L997.8,399.4 L998.4,403.9 L998.9,403.4 L999.5,400.6 L999.9,403.8 L1000.5,412.1 L1001.0,408.5 L1002.1,407.2 L1002.5,417.3 L1003.1,409.2 L1003.7,412.7 L1004.2,418.4 L1004.7,416.7 L1005.2,411.4 L1005.8,414.4 L1006.3,413.9 L1006.8,417.3 L1007.2,423.6 L1007.8,416.4 L1008.3,415.9 L1008.9,420.2 L1009.4,418.0 L1009.8,420.3 L1010.4,421.4 L1010.9,426.3 L1011.5,425.5 L1012.7,433.3 L1013.2,427.9 L1013.8,434.5 L1014.3,429.8 L1014.8,431.2 L1015.4,432.5 L1015.9,435.5 L1016.5,431.2 L1017.0,439.3 L1017.5,438.0 L1018.0,439.4 L1018.6,441.1 L1019.1,440.1 L1019.6,438.2 L1020.1,437.6 L1020.6,443.1 L1021.2,441.2 L1021.7,445.4 L1022.2,442.3 L1023.3,447.7 L1023.8,443.7 L1024.3,448.1 L1024.8,447.2 L1025.4,447.5 L1026.0,450.8 L1026.5,448.9 L1027.0,449.3 L1027.5,454.2 L1028.1,452.4 L1028.5,453.9 L1029.0,453.1 L1029.5,455.0 L1030.1,456.7 L1030.6,458.1 L1031.2,458.5 L1031.7,459.5 L1032.2,460.5 L1032.7,462.4 L1034.7,464.0 L1035.2,463.9 L1035.7,465.0 L1036.1,465.9 L1036.7,466.6 L1037.2,468.3 L1037.7,469.9 L1038.3,470.1 L1038.8,470.8 L1039.3,472.3 L1039.8,472.5 L1040.3,473.7 L1040.8,474.4 L1041.2,474.9 L1041.7,476.0 L1042.2,476.6 L1042.8,477.5 L1043.3,478.4 L1043.9,479.0 L1046.0,483.4 L1046.6,483.4 L1047.1,485.2 L1047.6,484.7 L1048.1,487.1 L1048.6,486.9 L1049.1,488.7 L1049.7,487.6 L1050.2,490.1 L1050.7,489.3 L1051.2,491.6 L1051.7,490.8 L1052.2,493.0 L1052.7,493.3 L1053.1,494.4 L1053.7,495.8 L1054.2,496.8 L1054.7,495.4 L1055.2,496.3 L1057.5,503.2 L1057.9,504.1 L1058.4,504.8 L1059.0,502.6 L1059.4,505.0 L1060.0,506.3 L1060.5,504.8 L1061.0,507.1 L1061.5,507.2 L1062.1,505.3 L1062.6,507.8 L1063.2,512.3 L1063.8,509.4 L1064.3,515.0 L1064.8,509.2 L1065.4,512.5 L1066.0,513.4 L1066.5,511.9 L1068.9,516.2 L1069.3,520.6 L1069.8,520.5 L1070.4,522.7 L1072.5,520.6 L1072.9,529.4 L1073.4,522.7 L1073.9,529.6 L1074.4,529.1 L1074.9,528.7 L1075.3,530.5 L1075.8,526.2 L1076.3,523.9 L1076.8,530.9 L1077.3,532.2 L1077.8,533.9 L1078.2,536.1 L1079.7,533.5 L1080.2,539.3 L1080.6,530.3 L1081.1,532.8 L1081.6,533.6 L1082.1,533.2 L1082.6,543.3 L1083.0,533.3 L1083.5,538.6 L1084.0,544.0" fill="none" stroke="#1f77b4" stroke-width="1.4" opacity="0.85"/><text x="1040" y="54" fill="#ff7f0e" font-size="11">roll 24</text><text x="1090" y="558" fill="#ff7f0e" font-size="11">-18</text><path d="M654.0,340.2 L654.4,340.2 L654.9,340.2 L655.7,341.3 L656.1,341.3 L656.6,340.2 L657.1,341.3 L657.6,339.1 L658.1,339.1 L658.5,339.1 L659.0,339.1 L659.5,339.1 L660.0,336.9 L660.4,338.0 L660.9,336.9 L661.4,334.6 L661.9,336.9 L662.4,333.5 L662.9,333.5 L663.3,331.3 L663.8,329.0 L664.3,330.2 L664.8,331.3 L665.3,327.9 L665.7,327.9 L666.2,325.7 L666.7,322.3 L667.2,325.7 L667.7,323.4 L668.1,321.2 L668.6,321.2 L669.1,319.0 L669.6,312.2 L670.1,311.1 L670.6,315.6 L671.1,307.8 L671.6,311.1 L672.0,310.0 L672.6,305.5 L673.1,305.5 L673.6,303.3 L674.1,301.0 L674.6,299.9 L675.1,299.9 L675.6,297.7 L676.1,288.7 L676.6,287.6 L677.2,289.8 L677.8,280.9 L678.3,286.5 L678.8,285.4 L679.3,277.5 L679.8,283.1 L680.3,275.3 L680.7,276.4 L681.2,268.6 L681.7,265.2 L682.2,266.3 L682.7,277.5 L683.1,266.3 L683.7,261.9 L684.1,259.6 L684.6,268.6 L685.1,267.5 L685.6,259.6 L686.1,257.4 L686.5,263.0 L687.0,256.3 L687.5,268.6 L688.0,266.3 L688.4,265.2 L688.9,254.0 L689.4,264.1 L689.9,267.5 L690.4,259.6 L690.9,250.7 L691.3,251.8 L691.8,252.9 L692.3,249.5 L692.7,249.5 L693.2,257.4 L693.7,252.9 L694.2,258.5 L694.7,248.4 L695.2,254.0 L695.7,252.9 L696.2,240.6 L696.6,256.3 L697.1,242.8 L697.6,241.7 L698.0,249.5 L698.5,242.8 L699.0,248.4 L699.5,247.3 L700.0,232.7 L700.4,237.2 L700.9,233.9 L701.4,240.6 L701.9,241.7 L702.5,241.7 L703.0,231.6 L703.5,231.6 L704.0,233.9 L704.5,237.2 L705.0,227.1 L705.5,237.2 L706.0,223.8 L706.4,224.9 L707.0,223.8 L707.5,218.2 L707.9,212.6 L708.4,218.2 L708.9,210.4 L709.3,226.0 L709.8,232.7 L710.3,221.6 L710.8,213.7 L711.3,211.5 L711.7,209.2 L712.4,221.6 L712.8,230.5 L713.3,217.1 L713.9,210.4 L714.4,214.8 L714.9,216.0 L715.4,227.1 L715.9,214.8 L716.4,224.9 L716.9,214.8 L717.4,216.0 L717.9,202.5 L718.4,207.0 L718.9,207.0 L719.4,226.0 L719.9,216.0 L720.4,226.0 L721.0,219.3 L721.5,213.7 L722.0,208.1 L722.5,213.7 L723.0,223.8 L723.5,203.6 L724.0,210.4 L724.5,221.6 L725.0,226.0 L725.5,217.1 L726.0,213.7 L726.5,227.1 L727.0,216.0 L727.5,213.7 L727.9,208.1 L728.4,335.8 L728.9,302.2 L729.5,276.4 L730.1,247.3 L730.7,233.9 L731.3,218.2 L731.8,190.2 L732.4,199.2 L732.9,195.8 L733.4,172.3 L733.9,162.2 L734.4,184.6 L735.0,161.1 L735.5,173.4 L736.1,165.6 L736.6,158.9 L737.1,157.7 L737.6,144.3 L738.2,154.4 L738.7,166.7 L739.2,163.3 L739.7,173.4 L740.3,167.8 L740.8,186.8 L741.3,192.4 L742.0,194.7 L742.6,203.6 L743.1,198.0 L743.7,222.7 L744.1,221.6 L744.7,221.6 L745.2,212.6 L745.8,213.7 L746.3,229.4 L746.8,224.9 L747.3,227.1 L747.9,247.3 L748.4,248.4 L748.9,255.1 L749.4,259.6 L749.9,263.0 L750.4,258.5 L751.0,263.0 L751.4,275.3 L752.1,278.7 L752.7,276.4 L753.3,273.1 L753.8,279.8 L754.4,292.1 L755.0,295.4 L755.5,287.6 L756.1,299.9 L756.5,299.9 L757.1,297.7 L757.6,298.8 L758.2,303.3 L758.7,302.2 L759.2,299.9 L759.7,298.8 L760.2,294.3 L760.7,301.0 L761.2,307.8 L762.3,307.8 L762.8,314.5 L763.3,307.8 L763.8,314.5 L764.4,319.0 L765.0,322.3 L765.5,326.8 L766.0,332.4 L766.6,327.9 L767.2,333.5 L767.8,340.2 L768.3,343.6 L768.8,349.2 L769.3,360.4 L769.9,358.1 L770.4,345.8 L771.0,338.0 L771.5,344.7 L772.3,359.3 L772.8,359.3 L773.4,363.7 L773.9,366.0 L774.4,369.3 L775.0,358.1 L775.5,367.1 L776.0,372.7 L776.6,361.5 L777.1,358.1 L777.6,370.5 L778.2,364.9 L778.7,379.4 L779.2,371.6 L779.7,389.5 L780.3,379.4 L780.8,374.9 L781.3,376.1 L781.8,381.7 L782.4,402.9 L782.9,400.7 L783.4,392.9 L783.9,392.9 L784.5,380.5 L785.0,396.2 L785.6,392.9 L786.1,408.5 L786.6,406.3 L787.1,408.5 L787.7,398.4 L788.2,406.3 L788.7,432.0 L789.2,454.4 L789.8,467.9 L790.3,492.5 L790.8,486.9 L791.3,509.3 L791.9,509.3 L792.5,522.7 L793.0,514.9 L793.5,519.4 L794.0,526.1 L794.5,510.4 L795.1,516.0 L795.6,518.2 L796.1,516.0 L796.6,526.1 L797.2,516.0 L797.7,526.1 L798.3,518.2 L798.7,516.0 L799.3,517.1 L799.8,509.3 L800.4,538.4 L800.9,540.6 L801.4,539.5 L802.0,535.0 L802.6,516.0 L803.2,539.5 L803.7,520.5 L804.3,502.6 L804.8,503.7 L805.4,517.1 L805.9,530.6 L806.4,531.7 L806.9,509.3 L807.5,537.3 L808.1,532.8 L808.6,537.3 L809.2,522.7 L809.8,517.1 L810.4,510.4 L810.9,517.1 L811.4,535.0 L811.9,528.3 L812.7,532.8 L813.2,513.8 L813.7,516.0 L814.3,531.7 L814.9,513.8 L815.5,532.8 L816.0,538.4 L816.6,529.4 L817.1,508.2 L817.7,511.5 L818.2,520.5 L818.7,509.3 L819.3,535.0 L819.8,530.6 L820.4,526.1 L820.9,507.1 L821.5,541.8 L822.1,533.9 L822.9,528.3 L823.4,502.6 L824.0,521.6 L824.6,512.7 L825.2,512.7 L825.7,521.6 L826.2,513.8 L826.8,527.2 L827.3,530.6 L827.8,537.3 L828.3,514.9 L828.8,522.7 L829.3,544.0 L829.9,530.6 L830.4,511.5 L830.8,518.2 L831.3,520.5 L831.9,539.5 L832.3,533.9 L833.0,517.1 L833.4,503.7 L834.0,527.2 L834.5,513.8 L835.0,532.8 L835.5,542.9 L836.1,537.3 L836.6,517.1 L837.2,531.7 L838.0,517.1 L838.5,503.7 L839.1,526.1 L839.6,511.5 L840.2,539.5 L840.7,508.2 L841.3,539.5 L841.9,533.9 L842.5,503.7 L843.5,422.0 L844.1,366.0 L844.6,361.5 L845.1,329.0 L845.6,308.9 L846.1,278.7 L846.6,274.2 L847.1,261.9 L847.6,282.0 L848.1,279.8 L848.6,304.4 L849.1,275.3 L849.6,276.4 L850.2,264.1 L850.7,230.5 L851.3,204.8 L851.8,188.0 L852.4,179.0 L852.9,209.2 L854.1,203.6 L854.7,185.7 L855.2,186.8 L855.7,188.0 L856.3,165.6 L856.9,156.6 L857.4,158.9 L857.9,164.4 L858.5,175.6 L859.1,145.4 L859.7,148.8 L860.2,155.5 L860.7,145.4 L861.2,176.8 L861.8,176.8 L862.4,183.5 L862.9,155.5 L863.5,154.4 L864.6,144.3 L865.1,154.4 L865.6,151.0 L866.2,177.9 L866.7,152.1 L867.3,151.0 L867.8,166.7 L868.3,177.9 L868.8,168.9 L869.4,156.6 L869.9,139.8 L870.4,153.3 L870.9,149.9 L871.4,168.9 L872.0,162.2 L872.6,139.8 L873.0,160.0 L873.6,162.2 L874.1,166.7 L875.2,137.6 L875.8,151.0 L876.3,151.0 L876.9,146.5 L877.4,157.7 L877.9,157.7 L878.4,148.8 L878.9,174.5 L879.5,155.5 L880.0,148.8 L880.5,140.9 L881.0,158.9 L881.6,171.2 L882.1,152.1 L882.7,163.3 L883.1,139.8 L883.7,149.9 L884.2,148.8 L884.8,167.8 L885.8,155.5 L886.3,135.3 L886.8,162.2 L887.4,151.0 L887.9,146.5 L888.4,152.1 L888.9,153.3 L889.5,144.3 L890.0,172.3 L890.5,145.4 L891.1,160.0 L891.7,138.7 L892.3,155.5 L892.8,161.1 L893.3,163.3 L893.9,158.9 L894.4,151.0 L895.0,142.1 L896.3,140.9 L896.9,158.9 L897.5,143.2 L898.0,171.2 L898.6,139.8 L899.1,156.6 L899.7,176.8 L900.2,160.0 L900.8,172.3 L901.3,155.5 L901.9,146.5 L902.5,139.8 L903.0,174.5 L903.6,165.6 L904.2,139.8 L904.8,157.7 L905.3,142.1 L905.8,142.1 L906.9,147.7 L907.5,149.9 L908.0,162.2 L908.5,152.1 L909.1,172.3 L909.7,173.4 L910.2,175.6 L910.8,173.4 L911.4,147.7 L911.9,145.4 L912.5,172.3 L912.9,158.9 L913.5,143.2 L913.9,143.2 L914.4,144.3 L914.9,166.7 L915.5,167.8 L916.0,163.3 L917.4,148.8 L917.9,165.6 L918.4,153.3 L919.0,157.7 L919.5,143.2 L920.0,163.3 L920.5,162.2 L921.1,146.5 L921.6,155.5 L922.1,167.8 L922.6,142.1 L923.1,168.9 L923.6,149.9 L924.2,166.7 L924.7,152.1 L925.2,148.8 L925.7,152.1 L926.3,172.3 L926.8,142.1 L928.1,164.4 L928.6,147.7 L929.0,154.4 L929.6,153.3 L930.1,170.0 L930.6,171.2 L931.1,157.7 L931.7,160.0 L932.2,138.7 L932.7,161.1 L933.2,138.7 L933.8,168.9 L934.3,163.3 L934.8,168.9 L935.3,160.0 L935.9,165.6 L936.4,166.7 L937.0,160.0 L937.5,149.9 L938.6,162.2 L939.1,172.3 L939.6,170.0 L940.1,137.6 L940.6,138.7 L941.2,166.7 L941.7,140.9 L942.2,167.8 L942.7,147.7 L943.3,165.6 L943.8,171.2 L944.4,143.2 L944.9,152.1 L945.4,146.5 L945.9,176.8 L946.5,144.3 L947.1,161.1 L947.6,167.8 L948.1,148.8 L949.2,140.9 L949.7,151.0 L950.2,164.4 L950.8,153.3 L951.3,135.3 L951.9,153.3 L952.4,157.7 L952.8,168.9 L953.4,170.0 L954.0,155.5 L954.5,144.3 L955.0,163.3 L955.5,168.9 L956.1,136.5 L956.6,143.2 L957.1,165.6 L957.6,166.7 L958.2,140.9 L958.7,162.2 L959.7,139.8 L960.1,161.1 L960.6,176.8 L961.2,161.1 L961.8,162.2 L962.3,140.9 L962.8,147.7 L963.4,143.2 L963.9,176.8 L964.4,175.6 L964.9,165.6 L965.4,145.4 L965.9,143.2 L966.5,146.5 L967.0,142.1 L967.5,164.4 L968.0,154.4 L968.6,157.7 L969.1,142.1 L970.3,153.3 L970.9,149.9 L971.4,176.8 L972.0,155.5 L972.4,161.1 L973.0,164.4 L973.5,167.8 L974.1,172.3 L974.6,147.7 L975.0,144.3 L975.5,166.7 L976.1,147.7 L976.6,165.6 L977.1,171.2 L977.6,170.0 L978.2,149.9 L978.7,156.6 L979.3,176.8 L979.8,170.0 L980.9,147.7 L981.4,165.6 L981.9,154.4 L982.4,151.0 L982.9,145.4 L983.5,145.4 L984.0,154.4 L984.5,145.4 L985.0,175.6 L985.5,160.0 L986.0,165.6 L986.5,162.2 L987.0,137.6 L987.5,172.3 L988.1,173.4 L988.6,149.9 L989.2,173.4 L989.7,155.5 L990.2,136.5 L991.5,160.0 L992.0,144.3 L992.5,163.3 L993.1,155.5 L993.6,174.5 L994.2,161.1 L994.7,173.4 L995.2,146.5 L995.7,155.5 L996.3,156.6 L996.8,154.4 L997.3,177.9 L997.8,151.0 L998.4,142.1 L998.9,143.2 L999.4,180.1 L999.9,155.5 L1000.5,153.3 L1001.0,176.8 L1002.1,142.1 L1002.5,145.4 L1003.1,163.3 L1003.7,148.8 L1004.2,137.6 L1004.7,146.5 L1005.2,154.4 L1005.8,173.4 L1006.3,146.5 L1006.8,155.5 L1007.2,176.8 L1007.8,171.2 L1008.3,167.8 L1008.9,170.0 L1009.4,173.4 L1009.8,153.3 L1010.4,170.0 L1010.9,154.4 L1011.5,147.7 L1012.7,140.9 L1013.2,168.9 L1013.8,173.4 L1014.3,151.0 L1014.8,175.6 L1015.4,163.3 L1015.9,156.6 L1016.5,162.2 L1017.0,175.6 L1017.5,143.2 L1018.0,158.9 L1018.6,149.9 L1019.1,147.7 L1019.6,161.1 L1020.1,138.7 L1020.6,168.9 L1021.2,147.7 L1021.7,146.5 L1022.2,145.4 L1023.3,208.1 L1023.8,205.9 L1024.3,167.8 L1024.8,194.7 L1025.4,183.5 L1026.0,164.4 L1026.5,158.9 L1027.0,162.2 L1027.5,166.7 L1028.1,182.4 L1028.5,176.8 L1029.0,155.5 L1029.5,149.9 L1030.1,144.3 L1030.6,176.8 L1031.2,161.1 L1031.7,164.4 L1032.2,167.8 L1032.7,163.3 L1034.7,147.7 L1035.2,164.4 L1035.6,147.7 L1036.1,142.1 L1036.6,146.5 L1037.2,165.6 L1037.7,175.6 L1038.3,136.5 L1038.8,151.0 L1039.3,144.3 L1039.8,128.6 L1040.3,140.9 L1040.8,139.8 L1041.2,121.9 L1041.7,116.3 L1042.2,130.9 L1042.8,132.0 L1043.3,129.7 L1043.9,102.9 L1046.0,76.0 L1046.5,92.8 L1047.1,81.6 L1047.6,89.4 L1048.1,112.9 L1048.6,129.7 L1049.1,101.8 L1049.7,107.3 L1050.2,126.4 L1050.7,101.8 L1051.2,110.7 L1051.7,86.1 L1052.2,112.9 L1052.7,104.0 L1053.1,98.4 L1053.7,114.1 L1054.2,111.8 L1054.7,114.1 L1055.2,121.9 L1057.5,87.2 L1057.9,79.4 L1058.4,80.5 L1058.9,147.7 L1059.4,136.5 L1060.0,148.8 L1060.5,148.8 L1061.0,132.0 L1061.5,152.1 L1062.1,121.9 L1062.6,133.1 L1063.2,128.6 L1063.8,134.2 L1064.3,119.7 L1064.8,119.7 L1065.4,139.8 L1066.0,144.3 L1066.5,156.6 L1068.9,117.4 L1069.3,134.2 L1069.8,155.5 L1070.3,139.8 L1072.5,120.8 L1072.9,151.0 L1073.4,180.1 L1073.9,175.6 L1074.4,203.6 L1074.9,222.7 L1075.3,212.6 L1075.8,239.5 L1076.3,240.6 L1076.8,247.3 L1077.3,270.8 L1077.7,270.8 L1078.2,283.1 L1079.7,295.4 L1080.2,293.2 L1080.6,303.3 L1081.1,304.4 L1081.6,312.2 L1082.1,314.5 L1082.6,316.7 L1083.0,319.0 L1083.5,317.8 L1084.0,321.2" fill="none" stroke="#ff7f0e" stroke-width="1.1" opacity="0.85"/><text x="616" y="572" font-size="11" fill="#888">time 0..49 s — altitude (blue) &amp; roll (orange)</text></svg>