<svg xmlns="http://www.w3.org/2000/svg" width="1140" height="600" font-family="sans-serif" font-size="13"><rect width="1140" height="600" fill="white"/><text x="20" y="26" font-size="15" fill="#333">Coludo flight</text><rect x="20" y="40" width="540" height="540" fill="#fbfbfb" stroke="#ddd"/><rect x="50" y="301" width="319" height="69" fill="#cde" stroke="#369" opacity="0.7"/><text x="50" y="296" fill="#369" font-size="12">landing zone</text><circle cx="252" cy="409" r="5" fill="black"/><text x="260" y="413" font-size="12">pad</text><path d="M252.5,408.5 L252.5,408.5 L252.5,408.5 L252.5,408.5 L252.5,408.5 L252.5,408.5 L252.5,408.5 L252.5,408.5 L252.5,408.5 L252.5,408.5 L252.5,408.5 L252.5,408.5 L252.5,408.5 L252.5,408.5 L252.5,408.5 L252.5,408.5 L252.5,408.5 L252.5,408.5 L252.5,408.5 L252.5,408.5 L252.5,408.5 L252.5,408.5 L252.5,408.5 L252.5,408.5 L252.5,408.5 L252.5,408.5 L252.5,408.5 L252.5,408.5 L252.5,408.5 L252.5,408.5 L252.5,408.5 L252.5,408.5 L252.5,408.5 L252.5,408.5 L252.5,408.5 L252.5,408.5 L252.5,408.5 L252.5,408.5 L252.5,408.5 L252.5,408.5 L252.5,408.5 L252.5,408.5 L252.5,408.5 L252.5,408.5 L252.5,408.5 L252.5,408.5 L252.5,408.5 L252.5,408.5 L252.5,408.5 L252.5,408.5 L252.5,408.5 L252.5,408.5 L252.5,408.5 L252.5,408.5 L252.5,408.5 L252.5,408.5 L252.5,408.5 L252.5,408.5 L252.5,408.5 L252.5,408.5 L252.5,408.5 L252.5,408.5 L252.5,408.5 L252.5,408.5 L252.5,408.5 L252.5,408.5 L252.5,408.5 L252.5,408.5 L252.5,408.5 L252.5,408.5 L252.5,408.5 L252.5,408.5 L253.5,406.6 L254.2,405.1 L255.9,402.4 L257.6,400.2 L259.0,398.3 L259.3,396.0 L261.0,393.7 L262.8,391.8 L264.5,389.9 L266.2,388.0 L269.6,385.7 L270.0,383.8 L271.3,382.3 L274.8,380.0 L275.4,378.5 L278.2,376.2 L279.9,375.1 L281.6,373.2 L283.3,371.7 L286.4,370.2 L288.5,368.7 L291.9,367.1 L293.3,365.6 L293.6,364.5 L297.0,362.6 L298.7,361.1 L300.4,359.5 L302.8,358.0 L303.9,355.7 L307.3,354.2 L308.3,351.9 L310.7,350.4 L312.4,348.2 L315.2,346.3 L315.9,344.0 L317.6,342.1 L319.3,339.8 L320.7,337.9 L322.7,335.6 L324.4,333.3 L324.8,331.1 L326.1,328.8 L327.9,326.5 L327.9,324.2 L329.6,322.0 L330.3,319.7 L331.3,317.0 L331.3,314.7 L333.0,312.5 L334.7,309.8 L334.7,305.6 L335.7,303.0 L335.7,300.7 L336.4,297.7 L336.4,295.8 L336.4,292.7 L338.1,290.1 L338.1,287.8 L339.9,285.1 L339.9,282.1 L341.6,280.2 L341.6,277.5 L341.9,274.9 L343.3,272.6 L343.3,270.3 L345.0,268.1 L346.7,265.8 L348.1,263.5 L348.4,260.8 L350.1,258.6 L351.8,256.3 L352.2,254.4 L353.6,251.7 L355.3,250.2 L357.0,247.5 L358.7,245.7 L360.4,243.4 L362.1,241.9 L365.2,240.0 L365.5,238.1 L367.3,236.2 L369.3,234.6 L370.7,233.1 L374.1,231.2 L375.8,229.7 L377.5,227.8 L379.6,227.0 L382.7,225.2 L384.4,224.0 L386.1,222.5 L389.5,221.4 L391.9,219.8 L393.0,219.5 L396.4,217.9 L398.1,217.2 L401.5,216.0 L403.2,215.3 L406.7,214.5 L408.4,213.8 L411.8,213.0 L413.5,212.6 L415.2,212.2 L419.3,211.5 L420.4,211.1 L424.8,211.1 L425.5,211.1 L430.3,211.1 L430.6,210.7 L436.5,210.7 L435.8,211.1 L440.9,211.1 L441.9,211.1 L446.1,211.5 L447.4,211.9 L451.2,212.2 L452.2,212.6 L456.3,213.4 L457.7,214.1 L459.8,214.9 L463.2,215.7 L464.9,216.4 L468.3,217.2 L470.0,218.3 L473.5,219.5 L474.8,220.2 L476.9,221.4 L479.0,222.5 L482.0,224.0 L483.7,225.5 L485.5,227.0 L488.9,227.8 L490.6,229.7 L492.3,231.2 L495.7,233.1 L496.1,234.6 L499.2,236.2 L500.9,238.1 L502.6,240.0 L504.3,241.9 L506.0,243.8 L507.7,245.7 L509.4,247.9 L511.2,249.8 L513.2,252.1 L512.9,254.0 L516.3,256.7 L518.0,258.2 L518.0,260.8 L519.7,263.1 L519.7,265.4 L521.4,267.7 L523.1,270.3 L523.5,272.6 L524.9,275.3 L524.9,277.5 L526.6,280.2 L528.3,282.5 L528.3,285.1 L529.0,287.8 L529.0,290.4 L529.0,292.7 L530.0,295.8 L530.0,297.7 L530.0,300.7 L530.0,303.4 L530.0,306.0 L530.0,308.3 L530.0,311.3 L530.0,313.6 L530.0,320.8 L530.0,323.5 L529.0,326.1 L529.0,328.8 L529.0,331.1 L528.3,334.1 L528.3,336.4 L526.6,339.0 L524.9,341.3 L524.9,343.6 L523.5,348.2 L523.1,350.8 L521.4,352.7 L519.7,355.4 L518.0,357.6 L518.0,359.9 L516.3,361.8 L514.6,364.5 L512.9,366.4 L513.2,368.7 L509.4,372.1 L506.4,374.3 L506.0,375.9 L502.6,378.1 L502.2,380.0 L500.9,381.9 L497.5,383.5 L496.1,385.4 L494.0,386.9 L492.3,388.8 L488.9,391.1 L485.5,393.0 L485.1,394.1 L482.0,396.0 L479.0,397.1 L476.9,398.6 L475.2,399.0 L473.5,400.5 L470.0,401.3 L468.3,402.4 L463.2,404.3 L461.5,405.1 L458.1,405.9 L456.3,406.6 L452.9,406.6 L451.2,407.4 L447.8,407.8 L446.1,408.1 L442.6,408.5 L440.9,408.9 L435.8,409.3 L432.4,409.3 L430.3,409.3 L427.2,409.3 L424.8,409.3 L422.1,408.9 L419.3,408.9 L416.9,408.5 L413.5,408.1 L407.0,406.6 L404.9,406.2 L402.2,405.5 L399.8,404.7 L396.7,404.0 L394.7,403.2 L391.9,402.1 L391.2,400.9 L387.8,399.8 L385.1,399.0 L381.0,396.7 L379.3,395.2 L375.8,393.7 L376.2,392.2 L372.4,391.1 L369.3,389.5 L369.0,388.0 L365.5,386.1 L365.2,384.2 L362.1,382.7 L358.7,379.7 L357.0,377.4 L355.3,375.1 L353.6,373.6 L351.8,371.3 L350.1,369.4 L348.4,367.1 L348.1,365.2 L345.0,363.0 L341.6,357.3 L339.9,355.0 L338.1,352.7 L336.4,351.2 L334.7,348.9 L333.0,347.0 L331.3,344.7 L329.6,342.8 L327.9,340.9 L322.7,336.4 L320.7,334.1 L319.3,332.6 L315.9,330.7 L315.2,329.2 L312.4,328.0 L309.0,326.9 L307.3,325.4 L305.6,323.9 L298.7,320.8 L297.0,320.1 L291.9,318.2 L288.5,317.4 L285.0,316.6 L283.3,316.3 L279.9,315.5 L278.2,315.1 L273.0,314.0 L270.0,313.6 L267.9,313.2 L264.5,312.8 L262.8,312.8" fill="none" stroke="#1f77b4" stroke-width="1.7" opacity="0.85"/><circle cx="263" cy="313" r="4.5" fill="#1f77b4"/><text x="28" y="572" font-size="11" fill="#888">ground track — m from pad (N up)</text><rect x="580" y="40" width="540" height="540" fill="#fbfbfb" stroke="#ddd"/><text x="586" y="54" fill="#1f77b4" font-size="11">alt 309</text><text x="586" y="558" fill="#1f77b4" font-size="11">-58</text><path d="M1059.0,467.3 L1059.0,467.4 L1059.0,466.9 L1059.1,467.4 L1059.1,466.8 L1059.1,466.2 L1059.1,466.6 L1059.2,466.2 L1059.2,465.8 L1059.2,464.7 L1059.2,464.4 L1059.3,463.5 L1059.3,463.1 L1059.3,462.8 L1059.4,461.9 L1059.4,461.3 L1059.4,460.7 L1059.4,458.7 L1059.5,458.0 L1059.5,457.3 L1059.5,457.3 L1059.5,455.7 L1059.6,452.5 L1059.6,453.4 L1059.6,452.7 L1059.6,450.4 L1059.7,449.4 L1059.7,446.1 L1059.7,447.3 L1059.7,442.4 L1059.8,444.9 L1059.8,443.9 L1059.8,437.4 L1059.9,440.0 L1059.9,436.5 L1059.9,433.9 L1059.9,433.8 L1060.0,433.6 L1060.0,430.5 L1060.0,430.1 L1060.0,427.3 L1060.1,424.3 L1060.1,419.0 L1060.1,418.4 L1060.1,413.5 L1060.2,409.7 L1060.2,407.1 L1060.2,404.3 L1060.3,409.3 L1060.3,401.6 L1060.3,399.0 L1060.3,401.4 L1060.4,404.5 L1060.4,397.1 L1060.4,390.5 L1060.4,396.4 L1060.5,379.1 L1060.5,379.4 L1060.5,374.6 L1060.5,371.5 L1060.6,377.8 L1060.6,374.7 L1060.6,377.1 L1060.6,358.4 L1060.7,371.1 L1060.7,368.9 L1060.7,351.6 L1060.8,349.2 L1060.8,343.7 L1060.8,339.5 L1060.8,334.5 L1060.9,349.6 L1060.9,328.1 L1060.9,321.4 L1060.9,327.9 L1061.0,324.9 L1061.0,330.7 L1061.0,332.9 L1061.1,323.2 L1061.1,304.5 L1061.1,317.2 L1061.1,320.1 L1061.2,303.5 L1061.2,287.7 L1061.2,290.9 L1061.2,297.5 L1061.3,273.4 L1061.3,299.2 L1061.3,288.5 L1061.3,267.3 L1061.4,265.4 L1061.4,256.8 L1061.4,249.3 L1061.4,260.4 L1061.5,269.4 L1061.5,271.0 L1061.5,248.4 L1061.6,232.8 L1061.6,233.7 L1061.6,264.4 L1061.6,227.0 L1061.7,221.7 L1061.7,225.5 L1061.7,220.0 L1061.7,211.7 L1061.8,227.6 L1061.8,220.2 L1061.8,247.9 L1061.8,218.1 L1061.9,228.5 L1061.9,236.4 L1061.9,216.3 L1061.9,197.8 L1062.0,231.9 L1062.0,199.5 L1062.0,206.4 L1062.1,214.6 L1062.1,220.0 L1062.1,177.1 L1062.1,196.2 L1062.2,183.7 L1062.2,186.1 L1062.2,206.1 L1062.3,188.7 L1062.3,182.9 L1062.3,164.8 L1062.3,172.0 L1062.4,172.4 L1062.4,154.9 L1062.4,158.6 L1062.4,179.0 L1062.5,189.0 L1062.5,156.6 L1062.5,192.7 L1062.5,150.7 L1062.6,138.3 L1062.6,151.7 L1062.6,169.3 L1062.7,132.0 L1062.7,165.4 L1062.7,124.9 L1062.7,165.3 L1062.8,172.6 L1062.8,177.4 L1062.8,157.9 L1062.8,165.4 L1062.9,115.1 L1062.9,110.4 L1062.9,136.3 L1063.0,121.9 L1063.0,120.5 L1063.0,132.0 L1063.0,116.6 L1063.1,104.7 L1063.1,147.0 L1063.1,124.5 L1063.1,117.6 L1063.2,117.4 L1063.2,127.6 L1063.2,103.7 L1063.3,137.2 L1063.3,106.2 L1063.3,93.4 L1063.4,134.1 L1063.4,101.0 L1063.4,134.6 L1063.4,93.7 L1063.5,119.7 L1063.5,106.6 L1063.5,120.3 L1063.5,95.0 L1063.6,146.8 L1063.6,84.7 L1063.6,129.8 L1063.6,122.2 L1063.7,137.4 L1063.7,112.7 L1063.7,104.5 L1063.7,131.6 L1063.8,97.3 L1063.8,99.0 L1063.8,105.3 L1063.9,104.9 L1063.9,138.8 L1063.9,99.8 L1064.0,119.7 L1064.0,86.8 L1064.0,127.6 L1064.0,114.9 L1064.1,114.0 L1064.1,91.1 L1064.1,118.9 L1064.1,106.3 L1064.2,103.2 L1064.2,142.6 L1064.2,95.2 L1064.3,133.1 L1064.3,139.0 L1064.3,99.8 L1064.3,82.2 L1064.4,105.2 L1064.4,128.5 L1064.4,138.5 L1064.4,110.3 L1064.5,94.1 L1064.5,96.0 L1064.5,121.6 L1064.6,98.7 L1064.6,112.2 L1064.6,125.9 L1064.6,115.2 L1064.7,115.8 L1064.7,119.8 L1064.7,105.1 L1064.8,121.9 L1064.8,116.9 L1064.8,109.5 L1064.8,76.0 L1064.9,90.1 L1064.9,123.7 L1064.9,89.2 L1064.9,93.2 L1065.0,101.6 L1065.0,147.1 L1065.0,143.8 L1065.1,92.9 L1065.1,133.7 L1065.1,142.1 L1065.1,140.4 L1065.2,80.9 L1065.2,146.1 L1065.2,92.9 L1065.3,82.2 L1065.3,115.3 L1065.3,138.1 L1065.3,116.9 L1065.4,147.9 L1065.4,88.9 L1065.4,94.4 L1065.4,137.9 L1065.5,126.1 L1065.5,87.2 L1065.5,82.4 L1065.6,115.9 L1065.6,120.5 L1065.6,115.3 L1065.6,87.8 L1065.7,126.8 L1065.7,132.8 L1065.7,116.8 L1065.7,107.8 L1065.8,119.5 L1065.8,103.2 L1065.8,102.3 L1065.9,148.6 L1065.9,138.3 L1065.9,131.9 L1065.9,138.4 L1066.0,139.9 L1066.0,132.1 L1066.0,102.7 L1066.1,133.0 L1066.1,97.7 L1066.1,93.0 L1066.1,154.6 L1066.2,148.7 L1066.2,141.4 L1066.2,92.7 L1066.2,120.0 L1066.3,141.9 L1066.3,138.5 L1066.3,146.5 L1066.3,119.3 L1066.4,136.9 L1066.4,94.4 L1066.4,155.7 L1066.5,141.6 L1066.5,104.7 L1066.5,126.2 L1066.6,142.5 L1066.6,119.9 L1066.6,135.9 L1066.6,110.3 L1066.7,159.5 L1066.7,120.7 L1066.7,113.4 L1066.7,156.0 L1066.8,128.6 L1066.8,140.7 L1066.8,115.6 L1066.9,157.9 L1066.9,129.1 L1066.9,121.3 L1067.0,121.3 L1067.0,129.1 L1067.0,109.1 L1067.0,144.7 L1067.1,118.6 L1067.1,157.1 L1067.2,154.9 L1067.2,132.3 L1067.2,139.0 L1067.2,135.7 L1067.3,156.9 L1067.3,104.9 L1067.3,132.3 L1067.4,150.8 L1067.4,167.6 L1067.4,149.0 L1067.4,146.3 L1067.5,170.7 L1067.5,115.1 L1067.5,133.1 L1067.5,164.2 L1067.6,147.2 L1067.6,168.9 L1067.6,126.1 L1067.6,124.8 L1067.7,150.8 L1067.7,142.2 L1067.7,163.8 L1067.8,137.1 L1067.8,113.6 L1067.9,129.5 L1067.9,145.1 L1067.9,155.9 L1067.9,136.7 L1068.0,172.0 L1068.0,166.6 L1068.0,137.1 L1068.0,174.5 L1068.1,120.3 L1068.1,153.1 L1068.1,159.0 L1068.1,153.7 L1068.2,116.8 L1068.2,173.9 L1068.2,155.3 L1068.3,157.5 L1068.3,152.9 L1068.3,122.3 L1068.3,182.4 L1068.4,159.4 L1068.4,144.4 L1068.5,139.9 L1068.5,138.2 L1068.5,136.9 L1068.5,166.2 L1068.6,180.2 L1068.6,150.5 L1068.6,132.2 L1068.7,153.6 L1068.7,167.7 L1068.7,153.9 L1068.7,148.5 L1068.8,155.1 L1068.8,134.5 L1068.8,183.2 L1068.8,148.7 L1068.9,152.2 L1068.9,165.5 L1068.9,132.5 L1068.9,146.9 L1069.0,146.7 L1069.0,148.5 L1069.0,179.4 L1069.1,142.8 L1069.1,181.3 L1069.2,143.5 L1069.2,176.0 L1069.2,173.2 L1069.2,137.3 L1069.3,164.0 L1069.3,167.4 L1069.3,197.4 L1069.3,153.9 L1069.4,179.4 L1069.4,170.8 L1069.4,175.8 L1069.4,199.2 L1069.5,175.9 L1069.5,198.3 L1069.5,174.9 L1069.6,188.2 L1069.6,176.6 L1069.6,176.8 L1069.6,144.8 L1069.7,162.5 L1069.7,180.2 L1069.7,149.2 L1069.8,152.5 L1069.8,180.3 L1069.8,164.8 L1069.9,170.5 L1069.9,161.8 L1069.9,175.0 L1070.0,200.9 L1070.0,205.9 L1070.0,164.6 L1070.0,187.5 L1070.1,206.2 L1070.1,200.0 L1070.1,182.1 L1070.1,164.7 L1070.2,199.9 L1070.2,166.6 L1070.2,190.9 L1070.2,204.6 L1070.3,174.3 L1070.3,214.7 L1070.3,212.7 L1070.3,190.2 L1070.4,161.3 L1070.5,216.9 L1070.5,172.4 L1070.5,193.6 L1070.5,171.9 L1070.6,177.2 L1070.6,201.1 L1070.6,195.1 L1070.6,201.5 L1070.7,202.0 L1070.7,197.8 L1070.7,193.3 L1070.7,180.6 L1070.8,180.1 L1070.8,201.3 L1070.8,186.8 L1070.9,218.0 L1070.9,188.3 L1070.9,218.7 L1070.9,219.9 L1071.0,179.3 L1071.0,189.1 L1071.0,223.7 L1071.0,201.6 L1071.1,226.9 L1071.1,195.9 L1071.2,182.4 L1071.2,190.4 L1071.2,208.0 L1071.3,206.1 L1071.3,212.9 L1071.3,214.4 L1071.3,188.1 L1071.4,219.6 L1071.4,224.7 L1071.4,203.1 L1071.4,201.0 L1071.5,195.9 L1071.5,199.1 L1071.5,224.8 L1071.5,195.4 L1071.6,217.9 L1071.6,204.1 L1071.6,239.6 L1071.7,218.3 L1071.7,234.2 L1071.7,213.6 L1071.8,207.9 L1071.8,231.5 L1071.8,231.5 L1071.9,231.8 L1071.9,235.0 L1071.9,235.8 L1071.9,232.4 L1072.0,199.5 L1072.0,208.6 L1072.0,213.2 L1072.0,235.9 L1072.1,225.3 L1072.1,201.8 L1072.1,240.4 L1072.2,240.7 L1072.2,218.8 L1072.2,239.9 L1072.2,232.9 L1072.3,222.8 L1072.3,223.5 L1072.3,229.1 L1072.3,223.9 L1072.4,214.7 L1072.4,235.6 L1072.5,243.6 L1072.5,257.4 L1072.5,211.7 L1072.6,227.3 L1072.6,241.3 L1072.6,217.4 L1072.6,228.8 L1072.7,248.9 L1072.7,221.1 L1072.7,261.8 L1072.7,216.3 L1072.8,259.3 L1072.8,227.7 L1072.8,237.0 L1072.8,237.8 L1072.9,251.3 L1072.9,224.6 L1072.9,251.7 L1073.0,234.0 L1073.0,240.8 L1073.0,226.2 L1073.0,236.0 L1073.1,263.2 L1073.1,234.7 L1073.2,232.0 L1073.2,247.9 L1073.2,235.6 L1073.2,270.1 L1073.3,249.7 L1073.3,249.2 L1073.3,270.0 L1073.4,235.7 L1073.4,268.3 L1073.4,234.4 L1073.4,241.6 L1073.5,251.5 L1073.5,261.9 L1073.5,244.0 L1073.5,248.3 L1073.6,250.3 L1073.6,280.2 L1073.6,248.8 L1073.6,261.7 L1073.7,243.2 L1073.7,270.8 L1073.8,271.9 L1073.8,255.7 L1073.8,249.9 L1073.9,262.1 L1073.9,282.1 L1073.9,281.1 L1073.9,287.8 L1074.0,260.2 L1074.0,285.5 L1074.0,269.3 L1074.0,282.3 L1074.1,281.9 L1074.1,283.9 L1074.1,289.1 L1074.2,265.9 L1074.2,283.6 L1074.2,263.9 L1074.2,275.0 L1074.3,275.5 L1074.3,279.6 L1074.3,276.1 L1074.3,295.4 L1074.4,297.7 L1074.4,268.6 L1074.5,271.0 L1074.5,293.9 L1074.5,282.4 L1074.6,292.0 L1074.6,276.2 L1074.6,295.7 L1074.6,298.9 L1074.7,276.9 L1074.7,298.2 L1074.7,299.7 L1074.7,295.2 L1074.8,305.5 L1074.8,307.1 L1074.8,274.0 L1074.9,295.8 L1074.9,292.9 L1074.9,309.2 L1074.9,307.1 L1075.0,294.9 L1075.0,301.7 L1075.0,296.1 L1075.0,297.8 L1075.2,307.4 L1075.2,299.7 L1075.2,307.7 L1075.2,308.9 L1075.3,288.0 L1075.3,302.2 L1075.3,301.6 L1075.4,320.7 L1075.4,306.8 L1075.4,318.5 L1075.4,322.1 L1075.5,321.6 L1075.5,308.0 L1075.5,303.7 L1075.5,320.4 L1075.6,298.5 L1075.6,319.4 L1075.6,316.6 L1075.6,306.6 L1075.7,317.5 L1075.7,324.8 L1075.7,298.6 L1075.7,309.4 L1075.9,308.6 L1075.9,314.5 L1075.9,327.6 L1076.0,327.7 L1076.0,333.6 L1076.0,327.2 L1076.0,329.6 L1076.1,323.9 L1076.1,338.7 L1076.1,323.9 L1076.1,334.6 L1076.2,337.3 L1076.2,336.5 L1076.2,317.5 L1076.3,314.7 L1076.3,325.1 L1076.3,322.7 L1076.3,340.8 L1076.4,338.7 L1076.4,333.6 L1076.4,330.6 L1076.4,332.7 L1076.5,340.9 L1076.6,345.5 L1076.6,346.4 L1076.6,350.1 L1076.7,329.8 L1076.7,338.3 L1076.7,330.7 L1076.8,339.7 L1076.8,351.5 L1076.8,331.6 L1076.8,333.5 L1076.9,356.1 L1076.9,334.5 L1076.9,354.2 L1076.9,347.2 L1077.0,357.7 L1077.0,346.5 L1077.0,342.7 L1077.0,345.4 L1077.1,348.6 L1077.1,349.3 L1077.1,341.5 L1077.2,363.8 L1077.2,357.7 L1077.3,345.5 L1077.3,353.5 L1077.4,368.4 L1077.4,358.3 L1077.4,364.2 L1077.4,351.2 L1077.5,353.2 L1077.5,368.9 L1077.5,352.2 L1077.6,354.9 L1077.6,366.9 L1077.6,354.8 L1077.6,369.6 L1077.7,364.9 L1077.7,357.4 L1077.7,366.4 L1077.7,366.2 L1077.8,359.2 L1077.8,370.5 L1077.8,374.3 L1077.8,371.4 L1077.9,367.0 L1077.9,380.7 L1078.0,373.5 L1078.1,378.4 L1078.1,373.4 L1078.1,378.8 L1078.1,377.3 L1078.2,376.2 L1078.2,388.3 L1078.2,389.2 L1078.2,390.8 L1078.3,381.1 L1078.3,375.9 L1078.3,376.9 L1078.3,385.1 L1078.4,386.5 L1078.4,378.3 L1078.4,380.0 L1078.5,392.2 L1078.5,388.5 L1078.5,391.4 L1078.5,387.2 L1078.6,397.2 L1078.6,396.0 L1078.6,399.7 L1078.7,390.0 L1078.8,400.4 L1078.8,397.6 L1078.8,395.9 L1078.9,400.2 L1078.9,399.0 L1078.9,407.4 L1078.9,404.0 L1079.0,407.9 L1079.0,407.0 L1079.0,405.2 L1079.0,398.3 L1079.1,402.6 L1079.1,402.3 L1079.1,402.4 L1079.1,408.1 L1079.2,403.1 L1079.2,405.5 L1079.2,407.5 L1079.3,404.7 L1079.3,411.9 L1079.3,409.5 L1079.3,411.9 L1079.5,416.0 L1079.5,414.0 L1079.5,413.0 L1079.5,416.4 L1079.6,421.1 L1079.6,421.4 L1079.6,422.9 L1079.7,420.6 L1079.7,422.2 L1079.7,422.7 L1079.7,421.4 L1079.8,424.9 L1079.8,424.7 L1079.8,429.8 L1079.8,425.3 L1079.9,427.8 L1079.9,428.4 L1079.9,428.4 L1079.9,433.0 L1080.0,431.4 L1080.0,434.6 L1080.0,433.7 L1080.0,430.5 L1080.2,435.6 L1080.2,434.2 L1080.2,438.9 L1080.3,441.7 L1080.3,437.4 L1080.3,438.4 L1080.3,439.5 L1080.4,444.4 L1080.4,442.4 L1080.4,444.6 L1080.5,446.6 L1080.5,445.0 L1080.5,443.8 L1080.5,445.0 L1080.6,448.6 L1080.6,446.8 L1080.6,447.3 L1080.6,451.6 L1080.7,449.8 L1080.7,449.0 L1080.7,450.2 L1080.7,453.7 L1080.8,452.0 L1080.9,456.2 L1080.9,457.0 L1081.0,457.4 L1081.0,458.5 L1081.0,459.8 L1081.0,459.8 L1081.1,462.2 L1081.1,462.7 L1081.1,462.4 L1081.1,463.1 L1081.2,464.7 L1081.2,464.8 L1081.2,466.4 L1081.3,466.9 L1081.3,467.8 L1081.3,468.1 L1081.3,469.2 L1081.4,469.7 L1081.4,470.7 L1081.4,471.4 L1081.4,472.3 L1081.5,473.0 L1081.5,473.5 L1081.6,477.2 L1081.6,477.8 L1081.7,479.0 L1081.7,479.5 L1081.7,480.5 L1081.8,481.5 L1081.8,482.5 L1081.8,482.1 L1081.8,483.0 L1081.9,482.6 L1081.9,485.0 L1081.9,483.7 L1081.9,486.9 L1082.0,486.8 L1082.0,486.6 L1082.0,488.4 L1082.1,489.0 L1082.1,488.7 L1082.1,490.9 L1082.1,491.0 L1082.2,492.7 L1082.2,493.9 L1082.2,491.0 L1082.3,497.4 L1082.4,495.2 L1082.4,495.1 L1082.4,495.7 L1082.4,501.2 L1082.5,499.7 L1082.5,498.1 L1082.5,503.1 L1082.6,500.2 L1082.6,501.7 L1082.6,500.0 L1082.6,501.3 L1082.7,506.3 L1082.7,507.2 L1082.7,505.9 L1082.7,510.1 L1082.8,504.1 L1082.8,509.4 L1082.8,510.4 L1082.9,510.4 L1082.9,512.8 L1082.9,510.9 L1082.9,508.4 L1083.1,513.5 L1083.1,515.2 L1083.1,519.1 L1083.1,520.3 L1083.3,520.9 L1083.3,523.2 L1083.3,522.0 L1083.4,519.2 L1083.4,526.0 L1083.4,519.0 L1083.4,528.9 L1083.5,524.3 L1083.5,527.1 L1083.5,529.6 L1083.5,531.2 L1083.6,523.2 L1083.6,531.0 L1083.6,524.1 L1083.7,526.3 L1083.7,525.9 L1083.8,529.8 L1083.8,527.1 L1083.8,537.7 L1083.8,534.5 L1083.9,538.5 L1083.9,537.3 L1083.9,532.0 L1083.9,544.0 L1084.0,534.4 L1084.0,537.1" fill="none" stroke="#1f77b4" stroke-width="1.4" opacity="0.85"/><text x="1040" y="54" fill="#ff7f0e" font-size="11">roll 20</text><text x="1090" y="558" fill="#ff7f0e" font-size="11">-24</text><path d="M1059.0,288.4 L1059.0,288.4 L1059.0,287.4 L1059.1,286.3 L1059.1,287.4 L1059.1,287.4 L1059.1,288.4 L1059.2,286.3 L1059.2,288.4 L1059.2,287.4 L1059.2,287.4 L1059.3,287.4 L1059.3,287.4 L1059.3,286.3 L1059.4,286.3 L1059.4,288.4 L1059.4,287.4 L1059.4,286.3 L1059.5,286.3 L1059.5,286.3 L1059.5,286.3 L1059.5,287.4 L1059.6,286.3 L1059.6,288.4 L1059.6,286.3 L1059.6,287.4 L1059.7,286.3 L1059.7,288.4 L1059.7,287.4 L1059.7,287.4 L1059.8,287.4 L1059.8,286.3 L1059.8,286.3 L1059.9,287.4 L1059.9,286.3 L1059.9,286.3 L1059.9,288.4 L1060.0,287.4 L1060.0,287.4 L1060.0,287.4 L1060.0,287.4 L1060.1,286.3 L1060.1,287.4 L1060.1,288.4 L1060.1,287.4 L1060.2,287.4 L1060.2,287.4 L1060.2,286.3 L1060.3,286.3 L1060.3,288.4 L1060.3,288.4 L1060.3,288.4 L1060.4,287.4 L1060.4,287.4 L1060.4,287.4 L1060.4,287.4 L1060.5,287.4 L1060.5,287.4 L1060.5,286.3 L1060.5,286.3 L1060.6,287.4 L1060.6,288.4 L1060.6,288.4 L1060.6,287.4 L1060.7,287.4 L1060.7,286.3 L1060.7,287.4 L1060.8,287.4 L1060.8,287.4 L1060.8,286.3 L1060.8,287.4 L1060.9,288.4 L1060.9,286.3 L1060.9,287.4 L1060.9,287.4 L1061.0,286.3 L1061.0,288.4 L1061.0,286.3 L1061.1,287.4 L1061.1,286.3 L1061.1,286.3 L1061.1,287.4 L1061.2,287.4 L1061.2,287.4 L1061.2,287.4 L1061.2,287.4 L1061.3,287.4 L1061.3,288.4 L1061.3,287.4 L1061.3,286.3 L1061.4,286.3 L1061.4,287.4 L1061.4,287.4 L1061.4,287.4 L1061.5,287.4 L1061.5,286.3 L1061.5,288.4 L1061.6,288.4 L1061.6,288.4 L1061.6,287.4 L1061.6,286.3 L1061.7,288.4 L1061.7,287.4 L1061.7,287.4 L1061.7,288.4 L1061.8,287.4 L1061.8,287.4 L1061.8,288.4 L1061.8,287.4 L1061.9,287.4 L1061.9,288.4 L1061.9,288.4 L1061.9,287.4 L1062.0,286.3 L1062.0,288.4 L1062.0,288.4 L1062.1,287.4 L1062.1,287.4 L1062.1,288.4 L1062.1,288.4 L1062.2,288.4 L1062.2,287.4 L1062.2,286.3 L1062.3,287.4 L1062.3,288.4 L1062.3,286.3 L1062.3,288.4 L1062.4,287.4 L1062.4,287.4 L1062.4,287.4 L1062.4,288.4 L1062.5,288.4 L1062.5,288.4 L1062.5,287.4 L1062.5,288.4 L1062.6,288.4 L1062.6,287.4 L1062.6,288.4 L1062.7,288.4 L1062.7,288.4 L1062.7,287.4 L1062.7,287.4 L1062.8,287.4 L1062.8,287.4 L1062.8,287.4 L1062.8,287.4 L1062.9,287.4 L1062.9,287.4 L1062.9,288.4 L1063.0,288.4 L1063.0,288.4 L1063.0,287.4 L1063.0,287.4 L1063.1,288.4 L1063.1,287.4 L1063.1,286.3 L1063.1,287.4 L1063.2,288.4 L1063.2,288.4 L1063.2,287.4 L1063.3,288.4 L1063.3,287.4 L1063.3,287.4 L1063.4,288.4 L1063.4,288.4 L1063.4,287.4 L1063.4,287.4 L1063.5,287.4 L1063.5,287.4 L1063.5,288.4 L1063.5,287.4 L1063.6,288.4 L1063.6,287.4 L1063.6,287.4 L1063.6,288.4 L1063.7,287.4 L1063.7,288.4 L1063.7,287.4 L1063.7,264.7 L1063.8,250.7 L1063.8,227.0 L1063.8,220.5 L1063.9,192.5 L1063.9,178.4 L1063.9,145.0 L1064.0,146.1 L1064.0,129.9 L1064.0,125.6 L1064.0,124.5 L1064.1,124.5 L1064.1,134.2 L1064.1,140.7 L1064.1,101.9 L1064.2,125.6 L1064.2,119.1 L1064.2,128.8 L1064.3,104.0 L1064.3,106.2 L1064.3,126.7 L1064.3,109.4 L1064.4,117.0 L1064.4,113.7 L1064.4,114.8 L1064.4,100.8 L1064.5,110.5 L1064.5,123.4 L1064.5,129.9 L1064.6,110.5 L1064.6,108.4 L1064.6,111.6 L1064.6,125.6 L1064.7,123.4 L1064.7,125.6 L1064.7,146.1 L1064.8,115.9 L1064.8,134.2 L1064.8,159.0 L1064.8,154.7 L1064.9,155.8 L1064.9,141.8 L1064.9,155.8 L1064.9,166.6 L1065.0,146.1 L1065.0,164.4 L1065.0,175.2 L1065.0,173.1 L1065.1,182.8 L1065.1,165.5 L1065.1,217.3 L1065.2,247.5 L1065.2,293.8 L1065.2,312.2 L1065.3,338.0 L1065.3,347.7 L1065.3,381.2 L1065.3,385.5 L1065.4,408.1 L1065.4,400.6 L1065.4,411.4 L1065.4,426.5 L1065.5,451.3 L1065.5,437.2 L1065.5,436.2 L1065.6,439.4 L1065.6,445.9 L1065.6,446.9 L1065.6,454.5 L1065.7,464.2 L1065.7,448.0 L1065.7,471.8 L1065.7,452.3 L1065.8,476.1 L1065.8,444.8 L1065.8,438.3 L1065.9,455.6 L1065.9,454.5 L1065.9,432.9 L1065.9,458.8 L1066.0,468.5 L1066.0,465.3 L1066.0,448.0 L1066.1,457.7 L1066.1,453.4 L1066.1,454.5 L1066.1,442.6 L1066.2,469.6 L1066.2,456.7 L1066.2,452.3 L1066.2,467.4 L1066.3,458.8 L1066.3,468.5 L1066.3,449.1 L1066.3,466.4 L1066.4,481.5 L1066.4,451.3 L1066.4,449.1 L1066.5,417.8 L1066.5,440.5 L1066.5,443.7 L1066.6,455.6 L1066.6,461.0 L1066.6,464.2 L1066.6,453.4 L1066.7,446.9 L1066.7,443.7 L1066.7,450.2 L1066.7,466.4 L1066.8,463.1 L1066.8,446.9 L1066.8,467.4 L1066.9,467.4 L1066.9,455.6 L1066.9,459.9 L1067.0,449.1 L1067.0,451.3 L1067.0,457.7 L1067.0,468.5 L1067.1,453.4 L1067.1,459.9 L1067.2,464.2 L1067.2,483.6 L1067.2,481.5 L1067.2,461.0 L1067.3,453.4 L1067.3,401.7 L1067.3,377.9 L1067.4,352.1 L1067.4,331.6 L1067.4,300.3 L1067.4,282.0 L1067.5,249.6 L1067.5,230.2 L1067.5,221.6 L1067.5,202.2 L1067.6,179.5 L1067.6,169.8 L1067.6,166.6 L1067.6,148.2 L1067.7,127.8 L1067.7,127.8 L1067.7,137.5 L1067.8,134.2 L1067.8,134.2 L1067.9,141.8 L1067.9,136.4 L1067.9,127.8 L1067.9,110.5 L1068.0,124.5 L1068.0,117.0 L1068.0,115.9 L1068.0,133.2 L1068.1,103.0 L1068.1,100.8 L1068.1,128.8 L1068.1,121.3 L1068.2,127.8 L1068.2,128.8 L1068.2,124.5 L1068.3,113.7 L1068.3,122.4 L1068.3,121.3 L1068.3,117.0 L1068.4,115.9 L1068.4,105.1 L1068.5,78.2 L1068.5,108.4 L1068.5,107.3 L1068.5,113.7 L1068.6,84.6 L1068.6,110.5 L1068.6,103.0 L1068.7,114.8 L1068.7,104.0 L1068.7,124.5 L1068.7,97.6 L1068.8,97.6 L1068.8,94.3 L1068.8,119.1 L1068.8,124.5 L1068.9,117.0 L1068.9,100.8 L1068.9,127.8 L1068.9,98.6 L1069.0,99.7 L1069.0,129.9 L1069.0,108.4 L1069.1,114.8 L1069.1,122.4 L1069.2,128.8 L1069.2,123.4 L1069.2,120.2 L1069.2,97.6 L1069.3,92.2 L1069.3,113.7 L1069.3,127.8 L1069.3,121.3 L1069.4,95.4 L1069.4,122.4 L1069.4,122.4 L1069.4,99.7 L1069.5,120.2 L1069.5,117.0 L1069.5,112.7 L1069.6,126.7 L1069.6,113.7 L1069.6,125.6 L1069.6,124.5 L1069.7,94.3 L1069.7,93.3 L1069.7,99.7 L1069.8,114.8 L1069.8,81.4 L1069.8,108.4 L1069.9,83.5 L1069.9,103.0 L1069.9,120.2 L1070.0,112.7 L1070.0,121.3 L1070.0,99.7 L1070.0,124.5 L1070.1,91.1 L1070.1,106.2 L1070.1,103.0 L1070.1,113.7 L1070.2,110.5 L1070.2,101.9 L1070.2,97.6 L1070.2,108.4 L1070.3,103.0 L1070.3,101.9 L1070.3,100.8 L1070.3,108.4 L1070.4,98.6 L1070.5,110.5 L1070.5,87.9 L1070.5,115.9 L1070.5,86.8 L1070.6,99.7 L1070.6,91.1 L1070.6,113.7 L1070.6,105.1 L1070.7,110.5 L1070.7,106.2 L1070.7,91.1 L1070.7,120.2 L1070.8,120.2 L1070.8,99.7 L1070.8,114.8 L1070.9,120.2 L1070.9,103.0 L1070.9,105.1 L1070.9,98.6 L1071.0,122.4 L1071.0,96.5 L1071.0,101.9 L1071.0,93.3 L1071.1,91.1 L1071.1,86.8 L1071.2,113.7 L1071.2,122.4 L1071.2,94.3 L1071.3,91.1 L1071.3,101.9 L1071.3,100.8 L1071.3,96.5 L1071.4,104.0 L1071.4,115.9 L1071.4,118.1 L1071.4,125.6 L1071.5,93.3 L1071.5,108.4 L1071.5,110.5 L1071.5,126.7 L1071.6,122.4 L1071.6,117.0 L1071.6,94.3 L1071.7,115.9 L1071.7,121.3 L1071.7,96.5 L1071.8,104.0 L1071.8,107.3 L1071.8,119.1 L1071.9,107.3 L1071.9,121.3 L1071.9,118.1 L1071.9,119.1 L1072.0,100.8 L1072.0,101.9 L1072.0,120.2 L1072.0,97.6 L1072.1,109.4 L1072.1,118.1 L1072.1,127.8 L1072.2,122.4 L1072.2,105.1 L1072.2,100.8 L1072.2,129.9 L1072.3,112.7 L1072.3,98.6 L1072.3,127.8 L1072.3,110.5 L1072.4,124.5 L1072.4,113.7 L1072.5,95.4 L1072.5,122.4 L1072.5,97.6 L1072.6,107.3 L1072.6,125.6 L1072.6,110.5 L1072.6,110.5 L1072.7,91.1 L1072.7,120.2 L1072.7,126.7 L1072.7,109.4 L1072.8,110.5 L1072.8,96.5 L1072.8,106.2 L1072.8,94.3 L1072.9,127.8 L1072.9,121.3 L1072.9,117.0 L1073.0,115.9 L1073.0,104.0 L1073.0,108.4 L1073.0,97.6 L1073.1,103.0 L1073.1,123.4 L1073.2,127.8 L1073.2,127.8 L1073.2,115.9 L1073.2,120.2 L1073.3,121.3 L1073.3,97.6 L1073.3,121.3 L1073.4,98.6 L1073.4,112.7 L1073.4,119.1 L1073.4,93.3 L1073.5,132.1 L1073.5,99.7 L1073.5,122.4 L1073.5,100.8 L1073.6,117.0 L1073.6,125.6 L1073.6,111.6 L1073.6,107.3 L1073.7,129.9 L1073.7,100.8 L1073.8,76.0 L1073.8,105.1 L1073.8,92.2 L1073.9,82.5 L1073.9,120.2 L1073.9,99.7 L1073.9,103.0 L1074.0,101.9 L1074.0,121.3 L1074.0,120.2 L1074.0,118.1 L1074.1,98.6 L1074.1,104.0 L1074.1,123.4 L1074.2,104.0 L1074.2,95.4 L1074.2,101.9 L1074.2,98.6 L1074.3,107.3 L1074.3,125.6 L1074.3,106.2 L1074.3,100.8 L1074.4,103.0 L1074.4,128.8 L1074.5,106.2 L1074.5,122.4 L1074.5,110.5 L1074.6,126.7 L1074.6,127.8 L1074.6,106.2 L1074.6,125.6 L1074.7,117.0 L1074.7,98.6 L1074.7,113.7 L1074.7,125.6 L1074.8,108.4 L1074.8,125.6 L1074.8,95.4 L1074.9,100.8 L1074.9,104.0 L1074.9,99.7 L1074.9,114.8 L1075.0,114.8 L1075.0,120.2 L1075.0,96.5 L1075.0,106.2 L1075.2,106.2 L1075.2,107.3 L1075.2,115.9 L1075.2,114.8 L1075.3,131.0 L1075.3,125.6 L1075.3,104.0 L1075.4,98.6 L1075.4,105.1 L1075.4,104.0 L1075.4,103.0 L1075.5,99.7 L1075.5,104.0 L1075.5,106.2 L1075.5,127.8 L1075.6,106.2 L1075.6,113.7 L1075.6,124.5 L1075.6,105.1 L1075.7,98.6 L1075.7,113.7 L1075.7,107.3 L1075.7,100.8 L1075.9,107.3 L1075.9,111.6 L1075.9,118.1 L1076.0,97.6 L1076.0,92.2 L1076.0,115.9 L1076.0,125.6 L1076.1,95.4 L1076.1,93.3 L1076.1,126.7 L1076.1,120.2 L1076.2,121.3 L1076.2,95.4 L1076.2,99.7 L1076.3,111.6 L1076.3,128.8 L1076.3,109.4 L1076.3,105.1 L1076.4,122.4 L1076.4,93.3 L1076.4,106.2 L1076.4,104.0 L1076.5,110.5 L1076.6,124.5 L1076.6,111.6 L1076.6,110.5 L1076.7,122.4 L1076.7,96.5 L1076.7,98.6 L1076.8,120.2 L1076.8,110.5 L1076.8,98.6 L1076.8,104.0 L1076.9,123.4 L1076.9,126.7 L1076.9,120.2 L1076.9,117.0 L1077.0,109.4 L1077.0,117.0 L1077.0,105.1 L1077.0,118.1 L1077.1,114.8 L1077.1,113.7 L1077.1,115.9 L1077.2,99.7 L1077.2,128.8 L1077.3,94.3 L1077.3,114.8 L1077.4,88.9 L1077.4,113.7 L1077.4,119.1 L1077.4,109.4 L1077.5,129.9 L1077.5,101.9 L1077.5,111.6 L1077.6,105.1 L1077.6,112.7 L1077.6,113.7 L1077.6,117.0 L1077.7,99.7 L1077.7,127.8 L1077.7,93.3 L1077.7,120.2 L1077.8,122.4 L1077.8,121.3 L1077.8,107.3 L1077.8,114.8 L1077.9,99.7 L1077.9,98.6 L1078.0,108.4 L1078.1,90.0 L1078.1,103.0 L1078.1,100.8 L1078.1,113.7 L1078.2,90.0 L1078.2,100.8 L1078.2,122.4 L1078.2,126.7 L1078.3,93.3 L1078.3,108.4 L1078.3,117.0 L1078.3,95.4 L1078.4,94.3 L1078.4,121.3 L1078.4,101.9 L1078.5,115.9 L1078.5,111.6 L1078.5,118.1 L1078.5,117.0 L1078.6,117.0 L1078.6,122.4 L1078.6,107.3 L1078.7,90.0 L1078.8,112.7 L1078.8,105.1 L1078.8,114.8 L1078.9,92.2 L1078.9,105.1 L1078.9,115.9 L1078.9,112.7 L1079.0,104.0 L1079.0,122.4 L1079.0,111.6 L1079.0,108.4 L1079.1,108.4 L1079.1,121.3 L1079.1,110.5 L1079.1,124.5 L1079.2,91.1 L1079.2,99.7 L1079.2,105.1 L1079.3,121.3 L1079.3,94.3 L1079.3,109.4 L1079.3,94.3 L1079.5,126.7 L1079.5,100.8 L1079.5,100.8 L1079.5,127.8 L1079.6,100.8 L1079.6,100.8 L1079.6,97.6 L1079.7,124.5 L1079.7,107.3 L1079.7,128.8 L1079.7,98.6 L1079.8,107.3 L1079.8,104.0 L1079.8,98.6 L1079.8,125.6 L1079.9,101.9 L1079.9,104.0 L1079.9,120.2 L1079.9,124.5 L1080.0,108.4 L1080.0,107.3 L1080.0,131.0 L1080.0,100.8 L1080.2,111.6 L1080.2,99.7 L1080.2,105.1 L1080.3,114.8 L1080.3,120.2 L1080.3,98.6 L1080.3,96.5 L1080.4,103.0 L1080.4,114.8 L1080.4,129.9 L1080.5,100.8 L1080.5,104.0 L1080.5,99.7 L1080.5,111.6 L1080.6,117.0 L1080.6,112.7 L1080.6,95.4 L1080.6,103.0 L1080.7,109.4 L1080.7,122.4 L1080.7,93.3 L1080.7,94.3 L1080.8,110.5 L1080.9,111.6 L1080.9,113.7 L1081.0,119.1 L1081.0,115.9 L1081.0,95.4 L1081.0,120.2 L1081.1,110.5 L1081.1,96.5 L1081.1,100.8 L1081.1,88.9 L1081.2,96.5 L1081.2,118.1 L1081.2,172.0 L1081.3,196.8 L1081.3,194.6 L1081.3,211.9 L1081.3,210.8 L1081.4,196.8 L1081.4,207.6 L1081.4,224.8 L1081.4,246.4 L1081.5,261.5 L1081.5,285.2 L1081.6,366.1 L1081.6,353.1 L1081.7,352.1 L1081.7,340.2 L1081.7,362.8 L1081.8,376.9 L1081.8,361.8 L1081.8,383.3 L1081.8,397.3 L1081.9,399.5 L1081.9,416.8 L1081.9,415.7 L1081.9,416.8 L1082.0,409.2 L1082.0,422.1 L1082.0,426.5 L1082.1,421.1 L1082.1,410.3 L1082.1,414.6 L1082.1,424.3 L1082.2,422.1 L1082.2,420.0 L1082.2,457.7 L1082.3,482.5 L1082.4,476.1 L1082.4,504.1 L1082.4,486.8 L1082.4,473.9 L1082.5,481.5 L1082.5,484.7 L1082.5,499.8 L1082.6,480.4 L1082.6,493.3 L1082.6,480.4 L1082.6,521.4 L1082.7,508.4 L1082.7,496.6 L1082.7,511.6 L1082.7,494.4 L1082.8,503.0 L1082.8,487.9 L1082.8,492.2 L1082.8,513.8 L1082.9,516.0 L1082.9,478.2 L1082.9,501.9 L1083.1,528.9 L1083.1,536.5 L1083.1,506.3 L1083.1,514.9 L1083.3,544.0 L1083.3,511.6 L1083.3,498.7 L1083.4,483.6 L1083.4,449.1 L1083.4,440.5 L1083.4,413.5 L1083.5,416.8 L1083.5,393.0 L1083.5,399.5 L1083.5,388.7 L1083.6,375.8 L1083.6,363.9 L1083.6,367.2 L1083.7,358.5 L1083.7,337.0 L1083.8,333.7 L1083.8,335.9 L1083.8,327.3 L1083.8,325.1 L1083.9,319.7 L1083.9,318.6 L1083.9,318.6 L1083.9,308.9 L1084.0,313.2 L1084.0,306.8" fill="none" stroke="#ff7f0e" stroke-width="1.1" opacity="0.85"/><text x="616" y="572" font-size="11" fill="#888">time 0..772 s — altitude (blue) &amp; roll (orange)</text></svg>