<svg xmlns="http://www.w3.org/2000/svg" width="1140" height="600" font-family="sans-serif" font-size="13"><rect width="1140" height="600" fill="white"/><text x="20" y="26" font-size="15" fill="#333">Coludo flight</text><rect x="20" y="40" width="540" height="540" fill="#fbfbfb" stroke="#ddd"/><rect x="114" y="240" width="416" height="89" fill="#cde" stroke="#369" opacity="0.7"/><text x="114" y="235" fill="#369" font-size="12">landing zone</text><circle cx="377" cy="380" r="5" fill="black"/><text x="385" y="384" font-size="12">pad</text><path d="M378.3,379.7 L378.3,379.7 L378.3,379.7 L378.3,379.7 L378.3,379.7 L378.3,379.7 L378.3,379.7 L378.3,379.7 L378.3,379.7 L378.3,379.7 L378.3,379.7 L378.3,379.7 L378.3,379.7 L378.3,379.7 L378.3,379.7 L378.3,379.7 L378.3,379.7 L378.3,379.7 L378.3,379.7 L378.3,379.7 L378.3,379.7 L378.3,379.7 L378.3,379.7 L378.3,379.7 L378.3,379.7 L378.3,379.7 L378.3,379.7 L378.3,379.7 L378.3,379.7 L378.3,379.7 L378.3,379.7 L378.3,379.7 L378.3,379.7 L378.3,379.7 L378.3,379.7 L378.3,379.7 L378.3,379.7 L378.3,379.7 L378.3,379.7 L378.3,379.7 L378.3,379.7 L378.3,379.7 L378.3,379.7 L378.3,379.7 L378.3,379.7 L378.3,379.7 L378.3,379.7 L378.3,379.7 L378.3,379.7 L378.3,379.7 L378.3,379.7 L378.3,379.7 L378.3,379.7 L378.3,379.7 L378.3,379.7 L378.3,379.7 L378.3,379.7 L378.3,379.7 L378.3,379.7 L378.3,379.7 L378.3,379.7 L378.3,379.7 L378.3,379.7 L378.3,379.7 L378.3,379.7 L378.3,379.7 L378.3,379.7 L378.3,379.7 L378.3,379.7 L378.3,379.7 L378.3,379.7 L378.3,379.7 L378.3,378.7 L379.7,377.7 L379.7,376.7 L380.6,375.7 L380.6,374.7 L382.8,374.2 L382.8,373.2 L385.0,372.2 L385.0,371.3 L386.8,370.8 L387.3,370.3 L387.3,369.8 L389.5,368.8 L391.7,368.3 L394.0,367.8 L394.0,367.8 L396.2,367.3 L398.4,367.3 L398.4,367.3 L400.7,366.8 L401.1,366.8 L402.9,366.3 L405.1,366.3 L407.4,365.8 L408.3,365.8 L409.6,365.3 L411.8,365.3 L414.1,365.3 L415.4,365.3 L416.3,364.8 L418.5,364.8 L420.8,364.8 L422.6,364.3 L423.0,364.3 L425.2,364.3 L427.5,364.3 L429.7,363.8 L431.5,363.8 L431.9,363.8 L434.2,363.8 L436.4,363.3 L436.9,363.3 L438.6,363.3 L438.6,362.8 L440.9,362.8 L443.1,362.3 L444.0,362.3 L445.3,361.9 L447.6,361.9 L449.8,361.4 L451.2,361.4 L452.0,360.9 L454.3,360.4 L456.5,360.4 L458.7,359.9 L460.1,359.4 L461.0,358.9 L463.2,358.9 L463.2,358.4 L467.2,357.4 L467.7,356.9 L469.9,356.9 L469.9,356.4 L472.1,355.9 L472.6,355.4 L474.4,354.9 L476.6,354.4 L476.6,353.4 L478.9,352.9 L479.7,352.4 L479.7,352.0 L481.1,351.0 L483.3,350.5 L483.3,350.0 L485.6,349.0 L486.9,348.5 L486.9,347.5 L487.8,347.0 L490.0,346.5 L490.0,346.0 L492.3,345.0 L494.5,344.0 L494.5,343.5 L494.9,342.5 L494.9,341.6 L496.7,340.6 L496.7,340.1 L499.0,339.1 L499.0,338.1 L501.2,337.1 L501.2,336.1 L503.0,335.6 L503.0,334.6 L503.4,333.6 L503.4,332.6 L503.4,331.7 L505.7,330.7 L505.7,329.7 L507.9,328.2 L507.9,327.2 L507.9,326.2 L508.3,325.7 L508.3,324.2 L508.3,323.2 L508.3,321.8 L510.1,320.8 L510.1,319.3 L510.1,317.8 L510.1,316.3 L510.1,315.3 L510.1,314.3 L508.3,312.4 L508.3,311.4 L508.3,309.4 L508.3,307.9 L507.9,306.4 L507.9,305.4 L505.7,303.9 L505.7,302.5 L503.4,300.5 L503.4,299.0 L503.0,297.5 L501.2,296.0 L499.0,294.5 L499.0,293.5 L496.7,291.6 L494.9,290.1 L494.5,288.6 L492.3,287.1 L487.8,285.6 L486.9,284.6 L485.6,283.6 L483.3,281.7 L479.7,280.7 L478.9,279.2 L476.6,278.2 L472.6,276.7 L472.1,275.7 L467.7,274.7 L465.4,273.7 L463.2,272.3 L460.1,271.3 L456.5,270.3 L454.3,269.3 L451.2,268.3 L447.6,267.8 L444.0,266.8 L440.9,266.3 L436.9,265.3 L434.2,264.8 L431.5,264.8 L427.5,264.3 L423.0,263.8 L420.8,263.8 L415.4,263.3 L411.8,263.3 L408.3,263.3 L405.1,263.3 L400.7,263.3 L396.2,263.3 L394.0,263.3 L387.3,263.8 L382.8,264.3 L379.7,264.8 L373.9,264.8 L371.6,265.3 L365.4,266.3 L362.7,266.8 L351.1,269.3 L344.8,270.8 L342.6,271.8 L336.8,273.2 L333.7,274.7 L329.2,275.7 L322.5,277.2 L318.0,279.2 L315.4,280.7 L309.1,282.7 L302.4,285.6 L297.9,288.1 L293.5,290.1 L289.0,292.6 L284.5,294.5 L279.6,296.0 L273.4,298.5 L271.1,300.5 L265.3,302.9 L262.2,304.9 L253.3,307.9 L248.8,309.4 L244.3,311.4 L239.9,312.8 L235.4,314.8 L230.9,316.3 L226.5,317.3 L222.0,318.3 L217.5,319.8 L213.1,320.8 L206.4,322.7 L201.0,323.2 L197.4,324.2 L192.1,324.7 L188.5,325.7 L184.0,326.2 L179.5,326.2 L175.1,326.2 L172.4,326.7 L168.4,326.7 L159.4,327.2 L156.3,327.2 L152.7,326.7 L149.2,326.7 L143.8,326.2 L141.6,326.2 L137.1,326.2 L134.9,325.7 L130.4,325.2 L126.8,324.7 L119.7,323.2 L117.0,322.7 L114.8,321.8 L112.5,320.8 L108.1,320.3 L105.8,319.3 L101.4,318.3 L99.1,316.8 L96.9,316.3 L92.4,315.3 L90.2,313.3 L85.7,311.9 L83.5,310.4 L81.3,309.4 L79.0,307.9 L76.8,306.4 L74.6,305.4 L72.3,304.4 L70.5,302.9 L65.6,298.5 L63.4,297.0 L63.4,295.5 L61.2,294.5 L61.2,293.0 L58.9,291.1 L56.7,289.6 L56.7,288.1 L56.3,286.6 L54.5,285.1 L54.5,282.7 L52.2,281.2 L52.2,279.2 L52.2,278.2 L52.2,276.2 L50.0,275.7 L50.0,273.7 L50.0,272.8 L50.0,271.3 L50.0,269.8 L50.0,267.3 L52.2,265.8 L52.2,264.8 L52.2,264.3 L52.2,262.9 L54.5,261.9 L54.5,260.9 L56.3,259.9 L56.3,258.9 L56.7,257.9 L58.9,256.4 L58.9,255.9 L61.2,254.9 L63.4,254.9 L63.4,254.4 L63.4,253.4 L65.6,253.0 L67.9,252.5 L70.1,252.5 L70.5,252.0 L72.3,252.0 L74.6,252.0 L76.8,252.0 L79.0,252.0 L81.3,252.5 L83.5,253.0 L84.0,253.4 L85.7,253.9 L88.0,254.4 L94.7,256.9 L96.9,257.9 L99.1,259.4 L101.4,260.9 L103.6,262.4 L106.3,264.3 L108.1,265.8 L110.3,267.3 L113.4,269.8 L119.2,275.7 L125.9,282.2 L128.2,284.6 L130.4,286.6 L132.6,289.1 L136.7,292.1 L137.1,294.5 L141.6,296.5 L142.0,299.5 L146.0,302.5 L148.3,304.4 L149.2,306.9" fill="none" stroke="#1f77b4" stroke-width="1.7" opacity="0.85"/><circle cx="149" cy="307" r="4.5" fill="#1f77b4"/><text x="28" y="572" font-size="11" fill="#888">ground track — m from pad (N up)</text><rect x="580" y="40" width="540" height="540" fill="#fbfbfb" stroke="#ddd"/><text x="586" y="54" fill="#1f77b4" font-size="11">alt 309</text><text x="586" y="558" fill="#1f77b4" font-size="11">-52</text><path d="M1062.4,474.4 L1062.4,474.5 L1062.5,473.9 L1062.5,474.5 L1062.5,473.7 L1062.5,473.9 L1062.6,472.9 L1062.6,473.2 L1062.6,472.6 L1062.6,471.6 L1062.6,471.6 L1062.7,470.4 L1062.7,470.9 L1062.7,468.9 L1062.7,468.8 L1062.8,468.7 L1062.8,467.8 L1062.8,466.2 L1062.8,465.3 L1062.8,465.5 L1062.9,462.5 L1062.9,462.4 L1062.9,462.8 L1062.9,460.2 L1062.9,460.2 L1063.0,458.1 L1063.0,454.0 L1063.0,456.6 L1063.0,453.8 L1063.1,450.5 L1063.1,447.8 L1063.1,448.6 L1063.1,446.9 L1063.1,444.6 L1063.2,440.3 L1063.2,444.0 L1063.2,442.8 L1063.2,437.0 L1063.3,438.7 L1063.3,429.7 L1063.3,429.0 L1063.3,430.9 L1063.3,430.3 L1063.4,424.7 L1063.4,420.2 L1063.4,418.0 L1063.4,423.2 L1063.4,418.5 L1063.5,408.7 L1063.5,411.8 L1063.5,403.8 L1063.5,403.8 L1063.6,399.7 L1063.6,407.0 L1063.6,395.2 L1063.6,392.7 L1063.6,385.4 L1063.7,395.7 L1063.7,385.1 L1063.7,387.7 L1063.7,379.5 L1063.7,369.2 L1063.8,364.9 L1063.8,377.8 L1063.8,364.3 L1063.8,375.1 L1063.9,368.4 L1063.9,364.4 L1063.9,363.1 L1063.9,345.9 L1063.9,339.7 L1064.0,345.0 L1064.0,343.0 L1064.0,334.7 L1064.0,342.4 L1064.1,323.2 L1064.1,337.6 L1064.1,337.9 L1064.1,334.3 L1064.1,325.3 L1064.2,303.3 L1064.2,299.1 L1064.2,313.4 L1064.2,308.1 L1064.3,288.9 L1064.3,298.6 L1064.3,302.2 L1064.3,280.2 L1064.3,269.1 L1064.4,298.1 L1064.4,271.5 L1064.4,283.2 L1064.4,277.9 L1064.5,264.4 L1064.5,269.5 L1064.5,274.3 L1064.5,257.8 L1064.5,262.1 L1064.6,248.5 L1064.6,264.4 L1064.6,254.0 L1064.6,253.9 L1064.6,237.6 L1064.7,241.8 L1064.7,240.3 L1064.7,218.9 L1064.7,223.6 L1064.8,231.9 L1064.8,221.9 L1064.8,205.7 L1064.8,219.8 L1064.8,214.7 L1064.9,208.7 L1064.9,190.2 L1064.9,187.7 L1064.9,225.8 L1064.9,215.4 L1065.0,206.3 L1065.0,200.0 L1065.0,217.0 L1065.0,169.4 L1065.1,214.7 L1065.1,207.8 L1065.1,206.1 L1065.1,160.3 L1065.1,188.5 L1065.2,183.5 L1065.2,155.1 L1065.2,200.0 L1065.2,158.1 L1065.3,177.8 L1065.3,170.4 L1065.3,166.3 L1065.3,182.2 L1065.3,161.6 L1065.4,163.0 L1065.4,184.6 L1065.4,135.8 L1065.4,158.2 L1065.5,175.8 L1065.5,178.6 L1065.5,121.3 L1065.5,121.9 L1065.5,146.9 L1065.6,136.1 L1065.6,114.5 L1065.6,131.0 L1065.6,142.5 L1065.7,168.7 L1065.7,133.5 L1065.7,106.2 L1065.7,122.2 L1065.7,118.8 L1065.8,166.7 L1065.8,117.1 L1065.8,138.7 L1065.8,122.9 L1065.8,123.0 L1065.9,95.4 L1065.9,118.4 L1065.9,158.0 L1066.0,148.0 L1066.0,124.7 L1066.0,130.5 L1066.0,83.9 L1066.0,129.0 L1066.1,146.7 L1066.1,151.5 L1066.1,103.5 L1066.1,114.7 L1066.1,131.2 L1066.2,145.4 L1066.2,76.8 L1066.2,79.3 L1066.2,145.8 L1066.3,133.4 L1066.3,118.5 L1066.3,121.1 L1066.3,104.7 L1066.3,134.8 L1066.4,138.8 L1066.4,91.2 L1066.4,117.8 L1066.4,107.6 L1066.5,76.7 L1066.5,115.0 L1066.5,145.6 L1066.5,113.4 L1066.6,118.7 L1066.6,110.9 L1066.6,131.1 L1066.6,78.4 L1066.6,118.2 L1066.7,111.7 L1066.7,124.2 L1066.7,129.8 L1066.7,114.1 L1066.8,129.3 L1066.8,78.3 L1066.8,129.3 L1066.8,135.4 L1066.8,103.1 L1066.9,138.1 L1066.9,95.1 L1066.9,106.7 L1066.9,89.2 L1067.0,105.0 L1067.0,84.6 L1067.0,147.9 L1067.0,117.1 L1067.1,140.7 L1067.1,76.0 L1067.1,91.0 L1067.1,83.1 L1067.1,105.3 L1067.2,139.1 L1067.2,107.6 L1067.2,84.7 L1067.2,119.1 L1067.3,79.1 L1067.3,124.0 L1067.3,99.9 L1067.3,99.4 L1067.3,88.0 L1067.4,133.7 L1067.4,122.9 L1067.4,83.4 L1067.4,121.8 L1067.4,132.0 L1067.5,141.4 L1067.5,110.8 L1067.5,99.5 L1067.6,86.0 L1067.6,92.6 L1067.6,87.1 L1067.6,131.3 L1067.6,140.6 L1067.7,98.0 L1067.7,148.9 L1067.7,138.7 L1067.7,86.2 L1067.7,129.4 L1067.8,108.0 L1067.8,145.8 L1067.8,137.1 L1067.8,101.6 L1067.9,88.0 L1067.9,145.0 L1067.9,107.2 L1067.9,129.6 L1067.9,89.5 L1068.0,147.3 L1068.0,133.9 L1068.0,118.5 L1068.1,86.2 L1068.1,94.5 L1068.1,88.7 L1068.1,156.6 L1068.1,100.8 L1068.2,152.6 L1068.2,128.8 L1068.2,114.7 L1068.2,100.8 L1068.2,102.5 L1068.3,146.2 L1068.3,120.3 L1068.3,121.5 L1068.3,140.6 L1068.4,117.6 L1068.4,92.1 L1068.4,119.3 L1068.4,121.2 L1068.4,158.5 L1068.5,91.0 L1068.5,157.8 L1068.5,114.1 L1068.5,132.8 L1068.6,148.9 L1068.6,107.5 L1068.6,97.5 L1068.6,107.8 L1068.7,150.8 L1068.7,130.6 L1068.7,118.6 L1068.7,143.4 L1068.7,152.8 L1068.8,148.5 L1068.8,98.7 L1068.8,136.9 L1068.8,96.0 L1068.9,141.7 L1068.9,145.5 L1068.9,152.1 L1068.9,116.3 L1068.9,111.0 L1069.0,130.9 L1069.0,127.2 L1069.0,127.7 L1069.0,164.3 L1069.1,110.7 L1069.1,115.0 L1069.1,104.6 L1069.2,138.5 L1069.2,142.5 L1069.2,160.6 L1069.2,162.5 L1069.2,129.3 L1069.3,130.4 L1069.3,113.7 L1069.3,165.9 L1069.3,139.1 L1069.4,163.5 L1069.4,141.0 L1069.4,123.7 L1069.4,118.6 L1069.4,137.2 L1069.5,130.4 L1069.5,159.9 L1069.5,129.1 L1069.5,128.3 L1069.5,151.4 L1069.6,160.0 L1069.6,156.4 L1069.7,169.2 L1069.7,145.0 L1069.7,111.4 L1069.7,117.7 L1069.7,145.4 L1069.8,167.9 L1069.8,127.6 L1069.8,158.7 L1069.8,177.4 L1069.8,177.0 L1069.9,145.5 L1069.9,163.6 L1069.9,155.7 L1069.9,168.2 L1070.0,146.5 L1070.0,142.4 L1070.0,122.2 L1070.0,129.6 L1070.0,161.1 L1070.1,169.7 L1070.1,180.1 L1070.1,126.5 L1070.2,160.8 L1070.2,119.2 L1070.2,127.2 L1070.2,171.7 L1070.3,177.5 L1070.3,160.5 L1070.3,155.4 L1070.3,135.0 L1070.3,132.6 L1070.4,156.4 L1070.4,185.6 L1070.4,152.5 L1070.4,172.6 L1070.5,175.4 L1070.5,129.4 L1070.5,149.5 L1070.5,132.8 L1070.5,181.1 L1070.6,153.9 L1070.6,152.4 L1070.6,180.0 L1070.6,134.4 L1070.6,153.3 L1070.7,178.2 L1070.7,140.9 L1070.8,140.5 L1070.8,191.7 L1070.8,139.2 L1070.8,165.9 L1070.8,142.4 L1070.9,192.7 L1070.9,188.8 L1070.9,151.8 L1070.9,180.4 L1071.0,165.2 L1071.0,179.6 L1071.0,135.3 L1071.0,177.7 L1071.0,163.6 L1071.1,152.0 L1071.1,196.9 L1071.1,184.4 L1071.1,198.3 L1071.1,167.8 L1071.2,144.1 L1071.2,182.2 L1071.3,140.6 L1071.3,156.2 L1071.3,167.0 L1071.3,147.0 L1071.3,170.3 L1071.4,150.7 L1071.4,179.4 L1071.4,187.6 L1071.4,159.1 L1071.4,167.8 L1071.5,190.8 L1071.5,154.8 L1071.5,173.9 L1071.5,203.4 L1071.6,159.1 L1071.6,186.6 L1071.6,194.1 L1071.6,152.4 L1071.6,179.9 L1071.7,158.0 L1071.7,167.2 L1071.7,150.7 L1071.7,198.9 L1071.8,207.8 L1071.8,169.8 L1071.8,173.8 L1071.9,210.0 L1071.9,202.0 L1071.9,178.1 L1071.9,204.6 L1071.9,208.2 L1072.0,204.2 L1072.0,171.5 L1072.0,184.4 L1072.0,175.2 L1072.1,178.0 L1072.1,216.5 L1072.1,160.4 L1072.1,215.4 L1072.1,193.3 L1072.2,203.7 L1072.2,197.3 L1072.2,163.0 L1072.2,199.2 L1072.3,182.5 L1072.3,169.9 L1072.3,187.4 L1072.4,195.6 L1072.4,178.4 L1072.4,215.8 L1072.4,183.5 L1072.4,195.8 L1072.5,184.4 L1072.5,199.6 L1072.5,210.1 L1072.5,223.2 L1072.6,215.3 L1072.6,202.9 L1072.6,207.0 L1072.6,218.1 L1072.6,183.4 L1072.7,202.9 L1072.7,224.4 L1072.7,189.2 L1072.7,189.7 L1072.7,212.2 L1072.8,225.2 L1072.8,204.6 L1072.8,212.0 L1072.9,220.8 L1072.9,202.9 L1072.9,192.2 L1072.9,182.0 L1073.0,218.6 L1073.0,200.0 L1073.0,230.5 L1073.0,204.8 L1073.1,199.0 L1073.1,206.0 L1073.1,218.3 L1073.1,198.8 L1073.1,195.3 L1073.2,210.5 L1073.2,210.2 L1073.2,195.3 L1073.2,216.3 L1073.2,233.9 L1073.3,238.0 L1073.3,209.9 L1073.3,219.4 L1073.3,228.9 L1073.4,197.5 L1073.4,197.0 L1073.4,236.5 L1073.5,215.5 L1073.5,204.5 L1073.5,212.6 L1073.5,211.8 L1073.6,225.0 L1073.6,244.4 L1073.6,244.4 L1073.6,218.6 L1073.6,246.2 L1073.7,210.7 L1073.7,230.7 L1073.7,211.4 L1073.7,246.2 L1073.7,251.3 L1073.8,214.5 L1073.8,250.6 L1073.8,232.7 L1073.8,226.4 L1073.9,249.9 L1073.9,207.3 L1073.9,243.3 L1074.0,233.7 L1074.0,237.2 L1074.0,254.2 L1074.0,225.6 L1074.0,239.9 L1074.1,237.2 L1074.1,254.3 L1074.1,231.2 L1074.1,256.6 L1074.2,217.1 L1074.2,244.5 L1074.2,236.8 L1074.2,252.0 L1074.2,228.3 L1074.3,222.5 L1074.3,262.4 L1074.3,218.5 L1074.3,223.6 L1074.4,237.9 L1074.4,251.7 L1074.4,237.5 L1074.4,253.1 L1074.4,265.4 L1074.5,255.0 L1074.5,250.6 L1074.6,238.9 L1074.6,235.5 L1074.6,236.4 L1074.6,262.0 L1074.6,236.4 L1074.7,234.0 L1074.7,256.4 L1074.7,267.5 L1074.7,247.5 L1074.7,255.9 L1074.8,249.4 L1074.8,250.2 L1074.8,254.9 L1074.8,277.9 L1074.9,263.1 L1074.9,273.3 L1074.9,253.2 L1074.9,276.2 L1074.9,238.3 L1075.0,254.4 L1075.0,255.5 L1075.1,253.0 L1075.1,267.0 L1075.1,245.2 L1075.1,279.7 L1075.1,285.5 L1075.2,253.8 L1075.2,259.1 L1075.2,285.2 L1075.2,261.8 L1075.3,266.9 L1075.3,279.1 L1075.3,288.7 L1075.3,279.5 L1075.3,280.0 L1075.4,252.2 L1075.4,279.4 L1075.4,270.3 L1075.4,272.0 L1075.5,254.7 L1075.5,278.0 L1075.5,271.2 L1075.5,285.7 L1075.6,269.9 L1075.7,298.2 L1075.7,273.6 L1075.7,295.1 L1075.7,279.8 L1075.7,277.0 L1075.8,265.4 L1075.8,285.0 L1075.8,266.3 L1075.8,281.0 L1075.9,273.9 L1075.9,271.9 L1075.9,288.9 L1075.9,291.2 L1075.9,296.7 L1076.0,290.6 L1076.0,281.7 L1076.0,284.2 L1076.0,296.3 L1076.0,299.4 L1076.1,274.5 L1076.1,276.3 L1076.1,291.3 L1076.2,300.5 L1076.2,292.0 L1076.3,290.9 L1076.3,284.4 L1076.3,295.9 L1076.3,313.1 L1076.4,314.6 L1076.4,290.7 L1076.4,290.8 L1076.4,303.8 L1076.4,306.3 L1076.5,296.0 L1076.5,311.0 L1076.5,304.9 L1076.5,295.4 L1076.5,305.4 L1076.6,307.2 L1076.6,293.3 L1076.6,312.9 L1076.6,295.9 L1076.7,309.4 L1076.7,318.0 L1076.7,323.0 L1076.8,330.8 L1076.8,328.4 L1076.8,303.0 L1076.9,302.4 L1076.9,309.7 L1076.9,314.9 L1076.9,304.0 L1077.0,310.1 L1077.0,310.7 L1077.0,333.9 L1077.0,318.1 L1077.0,323.6 L1077.1,325.7 L1077.1,322.3 L1077.1,324.3 L1077.1,334.7 L1077.2,314.7 L1077.2,327.3 L1077.2,313.4 L1077.2,329.0 L1077.2,319.4 L1077.3,327.6 L1077.3,323.6 L1077.4,326.0 L1077.4,341.2 L1077.4,332.3 L1077.5,322.0 L1077.5,338.6 L1077.5,346.1 L1077.5,349.7 L1077.5,338.0 L1077.6,333.7 L1077.6,333.9 L1077.6,344.0 L1077.6,344.4 L1077.6,327.5 L1077.7,349.3 L1077.7,341.3 L1077.7,333.4 L1077.7,332.6 L1077.8,343.9 L1077.8,349.3 L1077.8,336.1 L1077.8,338.7 L1077.8,342.7 L1077.9,354.0 L1078.0,360.3 L1078.0,357.6 L1078.0,362.7 L1078.0,358.9 L1078.1,360.9 L1078.1,343.2 L1078.1,349.0 L1078.1,347.2 L1078.1,354.7 L1078.2,353.4 L1078.2,354.6 L1078.2,361.7 L1078.2,362.6 L1078.3,367.3 L1078.3,364.3 L1078.3,360.0 L1078.3,371.6 L1078.3,350.2 L1078.4,368.8 L1078.4,369.6 L1078.4,371.7 L1078.4,370.6 L1078.5,372.5 L1078.6,369.5 L1078.6,375.3 L1078.6,359.1 L1078.6,360.6 L1078.6,366.1 L1078.7,378.0 L1078.7,376.5 L1078.7,368.2 L1078.7,376.7 L1078.8,374.1 L1078.8,368.5 L1078.8,372.7 L1078.8,371.7 L1078.8,381.5 L1078.9,375.9 L1078.9,383.6 L1078.9,376.0 L1078.9,388.4 L1079.0,376.4 L1079.0,381.4 L1079.0,376.9 L1079.0,389.8 L1079.0,382.2 L1079.1,379.4 L1079.2,388.2 L1079.2,379.7 L1079.2,382.7 L1079.2,392.1 L1079.3,393.0 L1079.3,399.3 L1079.3,389.0 L1079.3,387.5 L1079.3,386.4 L1079.4,395.0 L1079.4,392.5 L1079.4,388.4 L1079.4,394.3 L1079.5,394.1 L1079.5,401.8 L1079.5,400.3 L1079.5,398.3 L1079.5,406.0 L1079.6,401.4 L1079.6,399.0 L1079.6,398.4 L1079.6,395.7 L1079.7,402.2 L1079.8,411.2 L1079.8,414.2 L1079.8,405.7 L1079.8,404.7 L1079.8,404.8 L1079.9,407.3 L1079.9,403.9 L1079.9,406.5 L1079.9,410.9 L1079.9,408.4 L1080.0,411.9 L1080.0,416.3 L1080.0,411.8 L1080.0,417.5 L1080.1,416.5 L1080.1,421.7 L1080.1,418.5 L1080.1,422.9 L1080.1,416.8 L1080.2,424.9 L1080.2,423.8 L1080.2,421.6 L1080.3,424.2 L1080.3,421.1 L1080.4,422.1 L1080.4,427.0 L1080.4,429.8 L1080.4,428.2 L1080.4,433.1 L1080.5,432.9 L1080.5,428.6 L1080.5,435.9 L1080.5,428.1 L1080.6,430.2 L1080.6,429.9 L1080.6,438.6 L1080.6,436.8 L1080.6,433.2 L1080.7,438.4 L1080.7,435.8 L1080.7,435.7 L1080.7,436.1 L1080.8,440.0 L1080.8,442.5 L1080.8,437.3 L1080.9,444.1 L1080.9,447.4 L1080.9,444.6 L1081.0,449.0 L1081.0,447.5 L1081.0,446.1 L1081.0,446.3 L1081.1,450.5 L1081.1,453.0 L1081.1,451.5 L1081.1,450.8 L1081.1,450.4 L1081.2,453.6 L1081.2,453.2 L1081.2,452.9 L1081.2,454.5 L1081.3,456.0 L1081.3,455.5 L1081.3,455.6 L1081.3,459.8 L1081.3,459.4 L1081.4,460.0 L1081.4,461.4 L1081.5,465.5 L1081.5,465.5 L1081.5,467.1 L1081.6,467.4 L1081.6,468.1 L1081.6,468.1 L1081.6,468.8 L1081.6,470.0 L1081.7,470.2 L1081.7,471.4 L1081.7,471.4 L1081.7,472.9 L1081.8,473.1 L1081.8,474.2 L1081.8,474.7 L1081.8,475.9 L1081.8,476.4 L1081.9,476.9 L1081.9,477.9 L1081.9,478.5 L1081.9,479.6 L1082.0,480.2 L1082.0,481.0 L1082.1,483.9 L1082.1,484.8 L1082.1,486.3 L1082.1,485.6 L1082.2,486.5 L1082.2,489.0 L1082.2,488.7 L1082.2,490.6 L1082.3,491.5 L1082.3,491.2 L1082.3,491.2 L1082.3,492.1 L1082.3,493.1 L1082.4,495.3 L1082.4,492.6 L1082.4,493.6 L1082.4,497.1 L1082.5,494.9 L1082.5,496.3 L1082.5,495.7 L1082.5,500.7 L1082.5,499.8 L1082.6,501.2 L1082.7,501.3 L1082.7,505.2 L1082.7,506.3 L1082.7,503.0 L1082.8,506.3 L1082.8,503.8 L1082.8,510.5 L1082.8,510.8 L1082.8,506.1 L1082.9,508.8 L1082.9,513.5 L1082.9,513.8 L1082.9,512.1 L1083.0,513.2 L1083.0,509.9 L1083.0,514.4 L1083.0,516.7 L1083.0,514.3 L1083.1,516.4 L1083.1,516.7 L1083.1,517.8 L1083.1,518.2 L1083.1,514.6 L1083.3,517.7 L1083.3,521.7 L1083.3,526.2 L1083.4,528.6 L1083.4,525.8 L1083.5,532.8 L1083.5,531.0 L1083.5,526.9 L1083.5,528.2 L1083.5,527.6 L1083.6,533.8 L1083.6,536.7 L1083.6,532.1 L1083.6,536.6 L1083.7,533.2 L1083.7,532.3 L1083.7,535.2 L1083.7,542.5 L1083.7,533.6 L1083.8,537.3 L1083.8,543.8 L1083.8,539.1 L1083.9,540.0 L1083.9,541.3 L1083.9,538.6 L1083.9,539.7 L1084.0,540.6 L1084.0,539.6 L1084.0,544.0" fill="none" stroke="#1f77b4" stroke-width="1.4" opacity="0.85"/><text x="1040" y="54" fill="#ff7f0e" font-size="11">roll 25</text><text x="1090" y="558" fill="#ff7f0e" font-size="11">-20</text><path d="M1062.4,339.2 L1062.4,340.3 L1062.5,339.2 L1062.5,339.2 L1062.5,340.3 L1062.5,339.2 L1062.6,339.2 L1062.6,340.3 L1062.6,339.2 L1062.6,338.2 L1062.6,339.2 L1062.7,337.2 L1062.7,338.2 L1062.7,337.2 L1062.7,337.2 L1062.8,336.1 L1062.8,335.1 L1062.8,334.0 L1062.8,334.0 L1062.8,331.9 L1062.9,330.9 L1062.9,330.9 L1062.9,331.9 L1062.9,327.8 L1062.9,328.8 L1063.0,326.7 L1063.0,325.7 L1063.0,324.6 L1063.0,324.6 L1063.1,320.4 L1063.1,317.3 L1063.1,316.3 L1063.1,317.3 L1063.1,315.2 L1063.2,316.3 L1063.2,311.0 L1063.2,310.0 L1063.2,312.1 L1063.3,303.7 L1063.3,307.9 L1063.3,302.7 L1063.3,303.7 L1063.3,304.8 L1063.4,303.7 L1063.4,297.5 L1063.4,298.5 L1063.4,289.1 L1063.4,290.2 L1063.5,293.3 L1063.5,287.0 L1063.5,290.2 L1063.5,288.1 L1063.6,280.7 L1063.6,282.8 L1063.6,280.7 L1063.6,279.7 L1063.6,275.5 L1063.7,263.0 L1063.7,271.3 L1063.7,261.9 L1063.7,263.0 L1063.7,253.6 L1063.8,268.2 L1063.8,253.6 L1063.8,249.4 L1063.8,252.5 L1063.9,247.3 L1063.9,240.0 L1063.9,250.5 L1063.9,246.3 L1063.9,248.4 L1064.0,241.1 L1064.0,246.3 L1064.0,231.7 L1064.0,227.5 L1064.1,234.8 L1064.1,237.9 L1064.1,219.1 L1064.1,219.1 L1064.1,219.1 L1064.2,210.8 L1064.2,220.2 L1064.2,205.5 L1064.2,202.4 L1064.3,214.9 L1064.3,205.5 L1064.3,192.0 L1064.3,204.5 L1064.3,195.1 L1064.4,198.2 L1064.4,199.3 L1064.4,202.4 L1064.4,198.2 L1064.5,195.1 L1064.5,186.7 L1064.5,193.0 L1064.5,185.7 L1064.5,192.0 L1064.6,187.8 L1064.6,186.7 L1064.6,188.8 L1064.6,187.8 L1064.6,170.0 L1064.7,183.6 L1064.7,176.3 L1064.7,169.0 L1064.7,170.0 L1064.8,163.7 L1064.8,153.3 L1064.8,159.6 L1064.8,132.4 L1064.8,133.5 L1064.9,163.7 L1064.9,127.2 L1064.9,153.3 L1064.9,143.9 L1064.9,119.9 L1065.0,141.8 L1065.0,149.1 L1065.0,142.9 L1065.0,120.9 L1065.1,142.9 L1065.1,122.0 L1065.1,144.9 L1065.1,144.9 L1065.1,128.2 L1065.2,138.7 L1065.2,129.3 L1065.2,112.6 L1065.2,122.0 L1065.3,110.5 L1065.3,103.2 L1065.3,128.2 L1065.3,131.4 L1065.3,132.4 L1065.4,132.4 L1065.4,131.4 L1065.4,128.2 L1065.4,117.8 L1065.5,88.5 L1065.5,87.5 L1065.5,122.0 L1065.5,125.1 L1065.5,92.7 L1065.6,80.2 L1065.6,113.6 L1065.6,124.1 L1065.6,117.8 L1065.7,102.1 L1065.7,80.2 L1065.7,102.1 L1065.7,120.9 L1065.7,96.9 L1065.8,82.3 L1065.8,84.4 L1065.8,117.8 L1065.8,108.4 L1065.8,101.1 L1065.9,82.3 L1065.9,80.2 L1065.9,111.5 L1066.0,101.1 L1066.0,76.0 L1066.0,105.2 L1066.0,89.6 L1066.0,119.9 L1066.1,85.4 L1066.1,81.2 L1066.1,109.4 L1066.1,79.1 L1066.1,90.6 L1066.2,114.7 L1066.2,81.2 L1066.2,122.0 L1066.2,97.9 L1066.3,118.8 L1066.3,84.4 L1066.3,325.7 L1066.3,297.5 L1066.3,286.0 L1066.4,280.7 L1066.4,260.9 L1066.4,237.9 L1066.4,226.4 L1066.5,195.1 L1066.5,210.8 L1066.5,202.4 L1066.5,179.4 L1066.6,198.2 L1066.6,166.9 L1066.6,165.8 L1066.6,173.2 L1066.6,193.0 L1066.7,171.1 L1066.7,157.5 L1066.7,178.4 L1066.7,172.1 L1066.8,188.8 L1066.8,184.6 L1066.8,175.2 L1066.8,175.2 L1066.8,193.0 L1066.9,188.8 L1066.9,201.4 L1066.9,177.3 L1066.9,193.0 L1067.0,181.5 L1067.0,211.8 L1067.0,216.0 L1067.0,222.2 L1067.1,214.9 L1067.1,225.4 L1067.1,213.9 L1067.1,222.2 L1067.1,233.7 L1067.2,247.3 L1067.2,250.5 L1067.2,249.4 L1067.2,264.0 L1067.3,260.9 L1067.3,254.6 L1067.3,248.4 L1067.3,260.9 L1067.3,263.0 L1067.4,272.4 L1067.4,272.4 L1067.4,270.3 L1067.4,279.7 L1067.4,297.5 L1067.5,299.6 L1067.5,328.8 L1067.5,321.5 L1067.6,317.3 L1067.6,304.8 L1067.6,297.5 L1067.6,298.5 L1067.6,297.5 L1067.7,305.8 L1067.7,307.9 L1067.7,309.0 L1067.7,312.1 L1067.7,316.3 L1067.8,313.1 L1067.8,317.3 L1067.8,311.0 L1067.8,317.3 L1067.9,324.6 L1067.9,324.6 L1067.9,329.8 L1067.9,335.1 L1067.9,329.8 L1068.0,333.0 L1068.0,333.0 L1068.0,340.3 L1068.1,341.3 L1068.1,342.4 L1068.1,338.2 L1068.1,336.1 L1068.1,331.9 L1068.2,338.2 L1068.2,344.5 L1068.2,345.5 L1068.2,340.3 L1068.2,340.3 L1068.3,340.3 L1068.3,345.5 L1068.3,347.6 L1068.3,345.5 L1068.4,351.8 L1068.4,350.7 L1068.4,352.8 L1068.4,349.7 L1068.4,348.7 L1068.5,349.7 L1068.5,356.0 L1068.5,352.8 L1068.5,380.0 L1068.6,372.7 L1068.6,373.7 L1068.6,365.4 L1068.6,363.3 L1068.7,368.5 L1068.7,373.7 L1068.7,369.5 L1068.7,362.2 L1068.7,367.5 L1068.8,367.5 L1068.8,365.4 L1068.8,366.4 L1068.8,371.6 L1068.9,369.5 L1068.9,366.4 L1068.9,366.4 L1068.9,374.8 L1068.9,371.6 L1069.0,367.5 L1069.0,371.6 L1069.0,372.7 L1069.0,372.7 L1069.1,369.5 L1069.1,367.5 L1069.1,372.7 L1069.2,390.4 L1069.2,386.3 L1069.2,384.2 L1069.2,387.3 L1069.2,390.4 L1069.3,384.2 L1069.3,383.1 L1069.3,386.3 L1069.3,374.8 L1069.4,377.9 L1069.4,382.1 L1069.4,381.0 L1069.4,399.8 L1069.4,399.8 L1069.5,401.9 L1069.5,385.2 L1069.5,396.7 L1069.5,394.6 L1069.5,391.5 L1069.6,391.5 L1069.6,389.4 L1069.7,394.6 L1069.7,384.2 L1069.7,377.9 L1069.7,380.0 L1069.7,376.9 L1069.8,378.9 L1069.8,376.9 L1069.8,376.9 L1069.8,378.9 L1069.8,373.7 L1069.9,384.2 L1069.9,371.6 L1069.9,380.0 L1069.9,380.0 L1070.0,385.2 L1070.0,393.6 L1070.0,386.3 L1070.0,392.5 L1070.0,389.4 L1070.1,381.0 L1070.1,391.5 L1070.1,383.1 L1070.2,382.1 L1070.2,383.1 L1070.2,385.2 L1070.2,378.9 L1070.3,388.3 L1070.3,381.0 L1070.3,383.1 L1070.3,386.3 L1070.3,393.6 L1070.4,384.2 L1070.4,381.0 L1070.4,382.1 L1070.4,374.8 L1070.4,385.2 L1070.5,392.5 L1070.5,398.8 L1070.5,394.6 L1070.5,398.8 L1070.6,398.8 L1070.6,398.8 L1070.6,405.1 L1070.6,404.0 L1070.6,397.8 L1070.7,393.6 L1070.7,393.6 L1070.8,398.8 L1070.8,383.1 L1070.8,389.4 L1070.8,383.1 L1070.8,380.0 L1070.9,389.4 L1070.9,385.2 L1070.9,390.4 L1070.9,397.8 L1071.0,388.3 L1071.0,391.5 L1071.0,394.6 L1071.0,391.5 L1071.0,391.5 L1071.1,394.6 L1071.1,389.4 L1071.1,382.1 L1071.1,391.5 L1071.1,390.4 L1071.2,393.6 L1071.2,383.1 L1071.3,419.7 L1071.3,424.9 L1071.3,414.5 L1071.3,404.0 L1071.3,412.4 L1071.4,399.8 L1071.4,393.6 L1071.4,392.5 L1071.4,378.9 L1071.4,381.0 L1071.5,387.3 L1071.5,377.9 L1071.5,374.8 L1071.5,375.8 L1071.6,366.4 L1071.6,361.2 L1071.6,364.3 L1071.6,375.8 L1071.6,373.7 L1071.7,367.5 L1071.7,365.4 L1071.7,363.3 L1071.7,371.6 L1071.8,413.4 L1071.8,426.0 L1071.8,443.7 L1071.9,460.4 L1071.9,456.2 L1071.9,488.6 L1071.9,467.7 L1071.9,480.3 L1072.0,476.1 L1072.0,493.9 L1072.0,485.5 L1072.0,505.3 L1072.1,513.7 L1072.1,488.6 L1072.1,501.2 L1072.1,488.6 L1072.1,498.0 L1072.2,516.8 L1072.2,515.8 L1072.2,509.5 L1072.2,502.2 L1072.3,507.4 L1072.3,518.9 L1072.3,518.9 L1072.4,517.9 L1072.4,524.2 L1072.4,499.1 L1072.4,499.1 L1072.4,516.8 L1072.5,516.8 L1072.5,523.1 L1072.5,500.1 L1072.5,521.0 L1072.6,527.3 L1072.6,518.9 L1072.6,505.3 L1072.6,503.3 L1072.6,498.0 L1072.7,502.2 L1072.7,494.9 L1072.7,500.1 L1072.7,515.8 L1072.7,512.7 L1072.8,513.7 L1072.8,525.2 L1072.8,518.9 L1072.9,520.0 L1072.9,529.4 L1072.9,544.0 L1072.9,529.4 L1073.0,514.8 L1073.0,504.3 L1073.0,532.5 L1073.0,521.0 L1073.1,500.1 L1073.1,509.5 L1073.1,502.2 L1073.1,509.5 L1073.1,517.9 L1073.2,501.2 L1073.2,527.3 L1073.2,499.1 L1073.2,512.7 L1073.2,514.8 L1073.3,515.8 L1073.3,517.9 L1073.3,524.2 L1073.3,499.1 L1073.4,502.2 L1073.4,514.8 L1073.4,513.7 L1073.5,503.3 L1073.5,493.9 L1073.5,521.0 L1073.5,507.4 L1073.6,529.4 L1073.6,503.3 L1073.6,498.0 L1073.6,521.0 L1073.6,528.3 L1073.7,515.8 L1073.7,501.2 L1073.7,515.8 L1073.7,515.8 L1073.7,516.8 L1073.8,491.8 L1073.8,525.2 L1073.8,525.2 L1073.8,516.8 L1073.9,510.6 L1073.9,499.1 L1073.9,505.3 L1074.0,485.5 L1074.0,482.4 L1074.0,488.6 L1074.0,504.3 L1074.0,498.0 L1074.1,493.9 L1074.1,520.0 L1074.1,501.2 L1074.1,505.3 L1074.2,511.6 L1074.2,489.7 L1074.2,507.4 L1074.2,515.8 L1074.2,505.3 L1074.3,505.3 L1074.3,505.3 L1074.3,513.7 L1074.3,497.0 L1074.4,514.8 L1074.4,518.9 L1074.4,526.2 L1074.4,506.4 L1074.4,526.2 L1074.5,524.2 L1074.5,507.4 L1074.6,520.0 L1074.6,538.8 L1074.6,516.8 L1074.6,514.8 L1074.6,518.9 L1074.7,506.4 L1074.7,503.3 L1074.7,498.0 L1074.7,530.4 L1074.7,523.1 L1074.8,506.4 L1074.8,506.4 L1074.8,491.8 L1074.8,524.2 L1074.9,509.5 L1074.9,504.3 L1074.9,497.0 L1074.9,521.0 L1074.9,500.1 L1075.0,498.0 L1075.0,528.3 L1075.1,508.5 L1075.1,541.9 L1075.1,533.6 L1075.1,529.4 L1075.1,508.5 L1075.2,510.6 L1075.2,518.9 L1075.2,521.0 L1075.2,523.1 L1075.3,491.8 L1075.3,491.8 L1075.3,495.9 L1075.3,510.6 L1075.3,489.7 L1075.4,506.4 L1075.4,516.8 L1075.4,499.1 L1075.4,508.5 L1075.5,506.4 L1075.5,492.8 L1075.5,488.6 L1075.5,510.6 L1075.6,510.6 L1075.7,510.6 L1075.7,513.7 L1075.7,498.0 L1075.7,516.8 L1075.7,516.8 L1075.8,502.2 L1075.8,515.8 L1075.8,513.7 L1075.8,516.8 L1075.9,525.2 L1075.9,512.7 L1075.9,525.2 L1075.9,493.9 L1075.9,522.1 L1076.0,506.4 L1076.0,511.6 L1076.0,523.1 L1076.0,510.6 L1076.0,505.3 L1076.1,518.9 L1076.1,509.5 L1076.1,494.9 L1076.2,481.3 L1076.2,466.7 L1076.3,471.9 L1076.3,444.8 L1076.3,422.8 L1076.3,427.0 L1076.4,384.2 L1076.4,372.7 L1076.4,395.7 L1076.4,389.4 L1076.4,358.1 L1076.5,353.9 L1076.5,354.9 L1076.5,331.9 L1076.5,315.2 L1076.5,298.5 L1076.6,279.7 L1076.6,263.0 L1076.6,258.8 L1076.6,232.7 L1076.7,237.9 L1076.7,211.8 L1076.7,240.0 L1076.8,209.7 L1076.8,198.2 L1076.8,199.3 L1076.9,183.6 L1076.9,171.1 L1076.9,187.8 L1076.9,178.4 L1077.0,181.5 L1077.0,167.9 L1077.0,165.8 L1077.0,165.8 L1077.0,155.4 L1077.1,177.3 L1077.1,176.3 L1077.1,160.6 L1077.1,173.2 L1077.2,156.4 L1077.2,152.3 L1077.2,166.9 L1077.2,154.3 L1077.2,175.2 L1077.3,175.2 L1077.3,157.5 L1077.4,182.6 L1077.4,161.7 L1077.4,176.3 L1077.5,154.3 L1077.5,178.4 L1077.5,162.7 L1077.5,174.2 L1077.5,171.1 L1077.6,166.9 L1077.6,169.0 L1077.6,170.0 L1077.6,158.5 L1077.6,175.2 L1077.7,169.0 L1077.7,184.6 L1077.7,158.5 L1077.7,152.3 L1077.8,182.6 L1077.8,177.3 L1077.8,181.5 L1077.8,158.5 L1077.8,176.3 L1077.9,172.1 L1078.0,178.4 L1078.0,154.3 L1078.0,174.2 L1078.0,150.2 L1078.1,158.5 L1078.1,161.7 L1078.1,160.6 L1078.1,179.4 L1078.1,180.5 L1078.2,171.1 L1078.2,178.4 L1078.2,180.5 L1078.2,164.8 L1078.3,175.2 L1078.3,177.3 L1078.3,162.7 L1078.3,178.4 L1078.3,175.2 L1078.4,176.3 L1078.4,151.2 L1078.4,159.6 L1078.4,180.5 L1078.5,173.2 L1078.6,242.1 L1078.6,226.4 L1078.6,204.5 L1078.6,193.0 L1078.6,189.9 L1078.7,204.5 L1078.7,189.9 L1078.7,171.1 L1078.7,195.1 L1078.8,164.8 L1078.8,163.7 L1078.8,183.6 L1078.8,165.8 L1078.8,177.3 L1078.9,160.6 L1078.9,167.9 L1078.9,166.9 L1078.9,160.6 L1079.0,166.9 L1079.0,177.3 L1079.0,173.2 L1079.0,188.8 L1079.0,167.9 L1079.1,143.9 L1079.2,160.6 L1079.2,136.6 L1079.2,151.2 L1079.2,176.3 L1079.3,166.9 L1079.3,174.2 L1079.3,172.1 L1079.3,172.1 L1079.3,174.2 L1079.4,180.5 L1079.4,163.7 L1079.4,178.4 L1079.4,160.6 L1079.5,147.0 L1079.5,171.1 L1079.5,179.4 L1079.5,174.2 L1079.5,157.5 L1079.6,172.1 L1079.6,182.6 L1079.6,161.7 L1079.6,184.6 L1079.7,171.1 L1079.8,162.7 L1079.8,169.0 L1079.8,165.8 L1079.8,170.0 L1079.8,146.0 L1079.9,175.2 L1079.9,147.0 L1079.9,182.6 L1079.9,162.7 L1079.9,149.1 L1080.0,186.7 L1080.0,181.5 L1080.0,180.5 L1080.0,164.8 L1080.1,159.6 L1080.1,155.4 L1080.1,174.2 L1080.1,185.7 L1080.1,177.3 L1080.2,158.5 L1080.2,163.7 L1080.2,167.9 L1080.3,167.9 L1080.3,163.7 L1080.4,163.7 L1080.4,163.7 L1080.4,162.7 L1080.4,163.7 L1080.4,157.5 L1080.5,166.9 L1080.5,162.7 L1080.5,184.6 L1080.5,152.3 L1080.6,166.9 L1080.6,178.4 L1080.6,161.7 L1080.6,157.5 L1080.6,153.3 L1080.7,175.2 L1080.7,181.5 L1080.7,183.6 L1080.7,169.0 L1080.8,180.5 L1080.8,183.6 L1080.8,169.0 L1080.9,185.7 L1080.9,162.7 L1080.9,170.0 L1081.0,174.2 L1081.0,175.2 L1081.0,175.2 L1081.0,176.3 L1081.1,158.5 L1081.1,165.8 L1081.1,174.2 L1081.1,180.5 L1081.1,176.3 L1081.2,161.7 L1081.2,165.8 L1081.2,176.3 L1081.2,172.1 L1081.3,182.6 L1081.3,160.6 L1081.3,171.1 L1081.3,177.3 L1081.3,172.1 L1081.4,173.2 L1081.4,184.6 L1081.5,268.2 L1081.5,251.5 L1081.5,243.1 L1081.6,226.4 L1081.6,232.7 L1081.6,200.3 L1081.6,211.8 L1081.6,182.6 L1081.7,184.6 L1081.7,195.1 L1081.7,163.7 L1081.7,161.7 L1081.8,170.0 L1081.8,167.9 L1081.8,140.8 L1081.8,160.6 L1081.8,164.8 L1081.9,150.2 L1081.9,153.3 L1081.9,154.3 L1081.9,122.0 L1082.0,127.2 L1082.0,117.8 L1082.1,129.3 L1082.1,129.3 L1082.1,146.0 L1082.1,101.1 L1082.2,140.8 L1082.2,137.6 L1082.2,113.6 L1082.2,120.9 L1082.3,127.2 L1082.3,117.8 L1082.3,131.4 L1082.3,95.8 L1082.3,90.6 L1082.4,131.4 L1082.4,113.6 L1082.4,129.3 L1082.4,95.8 L1082.5,96.9 L1082.5,126.1 L1082.5,103.2 L1082.5,123.0 L1082.5,105.2 L1082.6,112.6 L1082.7,104.2 L1082.7,110.5 L1082.7,114.7 L1082.7,123.0 L1082.8,112.6 L1082.8,83.3 L1082.8,92.7 L1082.8,119.9 L1082.8,97.9 L1082.9,92.7 L1082.9,111.5 L1082.9,103.2 L1082.9,123.0 L1083.0,100.0 L1083.0,122.0 L1083.0,83.3 L1083.0,114.7 L1083.0,129.3 L1083.1,124.1 L1083.1,138.7 L1083.1,120.9 L1083.1,140.8 L1083.1,160.6 L1083.3,211.8 L1083.3,203.4 L1083.3,235.8 L1083.4,299.6 L1083.4,297.5 L1083.5,306.9 L1083.5,303.7 L1083.5,309.0 L1083.5,310.0 L1083.5,313.1 L1083.6,315.2 L1083.6,316.3 L1083.6,317.3 L1083.6,321.5 L1083.7,322.5 L1083.7,323.6 L1083.7,326.7 L1083.7,324.6 L1083.7,326.7 L1083.8,331.9 L1083.8,329.8 L1083.8,330.9 L1083.9,334.0 L1083.9,334.0 L1083.9,333.0 L1083.9,333.0 L1084.0,333.0 L1084.0,335.1 L1084.0,336.1" fill="none" stroke="#ff7f0e" stroke-width="1.1" opacity="0.85"/><text x="616" y="572" font-size="11" fill="#888">time 0..946 s — altitude (blue) &amp; roll (orange)</text></svg>