<svg xmlns="http://www.w3.org/2000/svg" width="840" height="860" font-family="sans-serif" font-size="13"><rect width="840" height="860" fill="white"/><text x="20" y="26" font-size="15" fill="#333">E16 guarded — noise</text><rect x="20" y="40" width="800" height="800" fill="#fbfbfb" stroke="#ddd"/><rect x="50" y="240" width="125" height="27" fill="#cde" stroke="#369" opacity="0.7"/><text x="50" y="235" fill="#369" font-size="12">landing zone</text><circle cx="129" cy="282" r="5" fill="black"/><text x="137" y="286" font-size="12">pad</text><path d="M129.2,282.2 L129.2,282.2 L129.2,282.2 L129.2,282.2 L129.2,282.2 L129.2,282.2 L129.2,282.2 L129.2,282.2 L129.2,282.2 L129.2,282.2 L129.2,282.2 L129.2,282.2 L129.2,282.2 L129.2,282.2 L129.2,282.2 L129.2,282.2 L129.2,282.2 L129.2,282.2 L129.2,282.2 L129.2,282.2 L129.2,282.2 L129.2,282.2 L129.2,282.2 L129.2,282.2 L129.2,282.2 L129.2,282.2 L129.2,282.2 L129.2,282.2 L129.2,282.2 L129.2,282.2 L129.2,282.2 L129.2,282.2 L129.2,282.2 L129.2,282.2 L129.2,282.2 L129.2,282.2 L129.2,282.2 L129.2,282.2 L129.2,282.2 L129.2,282.2 L129.2,282.2 L129.2,282.2 L129.2,282.2 L129.2,282.2 L129.2,282.2 L129.2,282.2 L129.2,282.2 L129.2,282.2 L129.2,282.2 L129.2,282.2 L129.2,282.2 L129.2,282.2 L129.2,281.9 L129.6,281.0 L130.6,280.0 L131.2,279.2 L131.8,278.5 L131.9,277.6 L132.6,276.6 L133.2,275.7 L133.9,275.1 L134.6,274.3 L135.2,273.4 L136.0,272.7 L136.6,272.1 L137.3,271.4 L138.2,270.6 L138.6,269.9 L139.9,269.1 L140.6,268.4 L141.9,267.8 L142.5,267.3 L143.3,266.6 L144.6,266.0 L145.2,265.6 L146.0,264.7 L146.8,263.9 L147.3,263.3 L148.6,262.7 L148.9,262.2 L150.0,261.4 L151.1,260.4 L151.3,259.8 L152.7,259.0 L153.3,258.1 L154.0,257.1 L154.7,256.2 L155.4,255.5 L155.9,254.6 L156.0,254.0 L156.7,252.9 L157.4,251.9 L157.5,250.9 L158.0,249.8 L158.7,248.9 L159.4,247.9 L159.6,247.1 L159.6,246.0 L160.0,245.1 L160.7,243.9 L160.7,242.7 L161.4,241.8 L161.4,240.8 L161.8,239.9 L161.8,238.7 L161.8,237.5 L162.1,236.3 L162.1,235.6 L162.1,234.4 L162.7,233.3 L162.7,232.4 L163.4,231.4 L164.1,230.2 L164.1,229.2 L164.2,228.1 L164.7,227.0 L165.4,226.2 L166.1,225.0 L166.6,224.1 L166.7,223.2 L167.4,222.2 L168.1,221.3 L168.2,220.4 L169.4,219.5 L170.1,218.5 L170.4,217.7 L170.8,217.0 L172.1,216.3 L172.8,215.7 L173.3,214.8 L174.1,214.2 L174.9,213.3 L175.5,212.7 L176.8,212.1 L177.5,211.2 L178.1,210.8 L178.9,210.2 L180.1,209.6 L181.1,209.0 L182.2,208.4 L183.5,207.9 L184.2,207.5 L185.5,207.1 L186.2,206.6 L186.8,206.3 L188.2,205.9 L189.5,205.6 L190.2,205.3 L191.5,205.0 L192.2,204.8 L193.6,204.7 L194.2,204.5 L195.6,204.4 L196.6,204.2 L197.6,204.1 L198.9,204.1 L200.3,204.1 L200.9,204.1 L202.3,204.2 L203.3,204.2 L204.3,204.4 L205.5,204.5 L206.3,204.7 L207.4,204.8 L209.0,205.0 L209.5,205.3 L211.0,205.6 L211.6,205.9 L213.0,206.3 L213.5,206.8 L215.7,207.3 L216.3,207.8 L217.0,208.2 L217.8,208.7 L219.0,209.1 L220.2,209.9 L221.0,210.5 L222.4,211.2 L223.0,211.8 L224.4,212.5 L224.5,213.3 L225.7,214.0 L226.4,214.5 L227.1,215.4 L227.7,216.0 L228.4,216.7 L228.5,217.3 L229.7,218.3 L230.4,219.1 L231.2,219.8 L231.7,220.9 L232.4,221.9 L233.1,222.6 L233.1,223.4 L233.8,224.4 L234.4,225.5 L235.1,226.5 L235.2,227.4 L235.8,228.9 L236.4,229.8 L237.1,231.1 L237.1,232.3 L237.4,233.0 L237.4,234.2 L237.8,235.1 L237.8,235.9 L237.8,237.1 L238.5,238.7 L238.5,239.7 L238.5,240.6 L239.1,241.7 L239.1,242.5 L239.1,243.7 L239.3,244.8 L239.8,245.7 L239.8,247.0 L240.5,247.7 L240.5,248.6 L241.1,249.8 L241.4,250.7 L241.8,251.8 L242.5,252.6 L243.1,253.4 L243.8,254.1 L244.3,255.0 L245.2,256.1 L246.0,257.4 L246.5,258.1 L247.2,258.7 L248.1,259.5 L248.5,260.1 L249.8,260.8 L250.5,261.6 L251.2,262.2 L252.5,262.6 L253.2,263.3 L254.5,263.8 L255.2,264.2 L256.5,264.8 L257.2,265.3 L257.9,265.7 L259.2,266.2 L259.9,266.6 L261.0,267.2 L261.9,267.6 L263.6,268.2" fill="none" stroke="#1f77b4" stroke-width="1.7" opacity="0.85"/><circle cx="264" cy="268" r="4.5" fill="#1f77b4"/><rect x="28" y="48" width="13" height="13" fill="#1f77b4"/><text x="46" y="59" font-size="12">5%</text><path d="M129.2,282.2 L129.2,282.2 L129.2,282.2 L129.2,282.2 L129.2,282.2 L129.2,282.2 L129.2,282.2 L129.2,282.2 L129.2,282.2 L129.2,282.2 L129.2,282.2 L129.2,282.2 L129.2,282.2 L129.2,282.2 L129.2,282.2 L129.2,282.2 L129.2,282.2 L129.2,282.2 L129.2,282.2 L129.2,282.2 L129.2,282.2 L129.2,282.2 L129.2,282.2 L129.2,282.2 L129.2,282.2 L129.2,282.2 L129.2,282.2 L129.2,282.2 L129.2,282.2 L129.2,282.2 L129.2,282.2 L129.2,282.2 L129.2,282.2 L129.2,282.2 L129.2,282.2 L129.2,282.2 L129.2,282.2 L129.2,282.2 L129.2,282.2 L129.2,282.2 L129.2,282.2 L129.2,282.2 L129.2,282.2 L129.2,282.2 L129.2,282.2 L129.2,282.2 L129.2,282.2 L129.2,282.2 L129.2,282.2 L129.2,282.2 L129.2,282.2 L129.2,282.2 L129.2,282.2 L129.6,281.5 L129.9,280.7 L130.6,279.7 L131.2,278.6 L131.8,277.7 L132.6,276.9 L133.2,275.8 L133.9,275.1 L133.9,274.2 L134.6,273.3 L135.9,272.4 L136.0,271.7 L137.3,270.8 L137.9,270.0 L138.2,269.1 L138.6,268.2 L139.9,267.3 L140.3,266.5 L141.3,265.7 L141.9,264.8 L142.6,264.1 L143.3,263.2 L144.6,262.4 L145.2,261.7 L145.3,260.8 L146.6,260.1 L146.8,259.3 L148.0,258.4 L148.6,257.8 L149.3,257.1 L150.0,256.5 L151.1,255.9 L152.0,255.2 L152.7,254.6 L153.7,254.0 L154.7,253.2 L155.4,252.6 L156.0,252.1 L157.4,251.3 L157.5,250.9 L158.7,250.3" fill="none" stroke="#17becf" stroke-width="1.7" opacity="0.85"/><circle cx="159" cy="250" r="4.5" fill="#17becf"/><rect x="28" y="68" width="13" height="13" fill="#17becf"/><text x="46" y="79" font-size="12">10%</text><path d="M129.2,282.2 L129.2,282.2 L129.2,282.2 L129.2,282.2 L129.2,282.2 L129.2,282.2 L129.2,282.2 L129.2,282.2 L129.2,282.2 L129.2,282.2 L129.2,282.2 L129.2,282.2 L129.2,282.2 L129.2,282.2 L129.2,282.2 L129.2,282.2 L129.2,282.2 L129.2,282.2 L129.2,282.2 L129.2,282.2 L129.2,282.2 L129.2,282.2 L129.2,282.2 L129.2,282.2 L129.2,282.2 L129.2,282.2 L129.2,282.2 L129.2,282.2 L129.2,282.2 L129.2,282.2 L129.2,282.2 L129.2,282.2 L129.2,282.2 L129.2,282.2 L129.2,282.2 L129.2,282.2 L129.2,282.2 L129.2,282.2 L129.2,282.2 L129.2,282.2 L129.2,282.2 L129.2,282.2 L129.2,282.2 L129.2,282.2 L129.2,282.2 L129.2,282.2 L129.2,282.2 L129.2,282.2 L129.2,282.2 L129.2,282.2 L129.2,282.2 L129.2,282.2 L129.2,282.2 L129.6,281.5 L129.9,280.3 L130.6,279.4 L131.8,278.5 L131.9,277.6 L132.6,276.7 L133.2,275.7 L133.9,274.9 L134.6,274.2 L135.2,273.4 L136.0,272.5 L136.6,272.0 L137.3,271.4 L138.2,270.6 L138.6,269.9 L139.9,269.1 L140.6,268.4 L141.3,267.8 L141.9,267.2 L142.6,266.6 L144.0,266.2 L144.6,265.4 L145.3,264.8 L146.6,264.1 L146.8,263.5 L148.0,262.7 L148.6,262.2 L149.3,261.4 L150.0,260.8 L150.7,260.1 L151.3,259.3 L152.0,258.6 L153.3,257.5 L153.7,257.0 L154.0,255.9 L154.7,255.0 L155.4,254.1 L155.9,253.4 L156.0,252.5 L156.7,251.6 L157.4,250.9 L157.5,249.8 L158.0,248.6 L158.7,247.7 L158.7,246.9 L159.4,245.8 L159.6,244.8 L159.6,243.7 L160.0,242.4 L160.0,241.5 L160.7,240.6 L160.7,239.4 L160.7,238.4 L161.4,237.2 L161.4,236.3 L161.4,235.3 L161.8,234.1 L161.8,232.9 L162.1,232.0 L162.1,230.8 L162.7,229.9 L162.7,229.0 L163.4,228.1 L164.1,227.0 L164.2,225.8 L164.2,224.9 L164.7,224.0 L165.4,223.1 L166.1,222.2 L166.6,221.0 L166.7,220.4 L167.4,219.4 L168.2,218.6 L168.8,217.3 L170.1,216.6 L170.4,215.8 L170.8,214.9 L172.1,214.2 L172.8,213.4 L173.4,212.7 L174.1,212.0 L174.9,211.2 L176.1,210.5 L176.8,209.9 L177.5,209.4 L178.8,208.7 L178.9,208.2 L180.8,207.6 L181.1,207.1 L182.2,206.6 L183.5,206.2 L184.8,205.6 L185.6,205.1 L186.8,204.8 L187.5,204.5 L188.2,204.2 L189.5,203.9 L190.2,203.6 L191.5,203.5 L192.9,203.2 L194.2,202.9 L194.9,202.7 L196.2,202.7 L197.6,202.6 L198.2,202.6 L199.6,202.6 L200.3,202.6 L201.6,202.6 L202.9,202.6 L204.3,202.9 L205.5,203.0 L206.3,203.2 L207.4,203.3 L208.3,203.6 L209.5,203.9 L211.0,204.2 L211.6,204.7 L213.0,205.0 L213.5,205.4 L215.0,205.9 L216.2,206.3 L217.0,206.8 L217.7,207.2 L218.3,207.8 L219.7,208.2 L220.4,208.8 L221.0,209.3 L222.4,210.6 L223.7,211.2 L224.5,211.8 L225.0,212.7 L226.4,213.6 L227.1,214.2 L227.7,215.1 L228.5,216.1 L229.1,217.0 L230.4,217.7 L231.2,218.8 L231.1,219.8 L231.7,220.7 L233.1,221.8 L233.1,222.6 L233.8,223.5 L234.4,224.4 L234.4,225.3 L235.2,226.7 L235.2,227.5 L235.8,228.4 L235.8,229.3 L236.4,230.2 L237.1,231.3 L237.1,232.4 L237.4,233.6 L237.4,234.5 L237.8,235.6 L237.8,236.6 L237.8,237.6 L237.8,238.7 L238.5,239.9 L238.5,240.9 L238.5,242.1 L238.5,243.3 L238.5,244.5 L239.1,245.5 L239.1,246.9 L239.1,247.9 L239.1,249.1 L239.1,250.0 L239.3,251.0 L239.3,252.1 L239.3,253.4 L239.3,254.4 L239.8,255.5 L239.8,257.0 L239.8,257.8 L239.8,259.0 L240.5,260.1 L240.5,261.1 L240.5,262.0 L240.5,263.2 L241.1,264.4 L241.1,265.4 L241.1,267.1 L241.4,268.1 L241.4,269.1 L241.4,270.2 L241.8,271.5 L242.5,272.4 L242.5,273.6 L243.1,274.5 L243.8,275.7 L244.3,276.9 L244.3,278.0 L245.2,279.1 L245.8,280.0 L246.0,280.9 L246.5,281.8 L247.2,282.8 L248.1,283.8 L248.5,284.4 L249.8,285.5 L250.2,286.2 L251.2,287.1 L251.9,287.5 L252.9,288.3 L253.9,289.0 L255.1,289.8 L255.2,290.2 L256.5,290.7 L257.9,291.4 L259.1,291.9 L259.2,292.3 L260.6,292.7 L261.9,293.0 L262.6,293.3 L263.6,293.6 L265.3,293.8 L265.9,294.1 L267.1,294.2 L268.6,294.4 L269.8,294.4 L270.6,294.4 L272.0,294.4 L272.6,294.2 L274.0,294.2 L274.6,294.1 L276.0,293.9 L276.7,293.8 L278.0,293.6 L278.7,293.3 L280.0,292.9 L280.7,292.6 L282.0,292.2 L283.0,291.7 L284.0,291.1 L285.1,290.8 L286.0,290.4 L287.2,289.6 L288.0,289.0 L288.8,288.6 L290.1,287.8 L291.4,287.4 L291.5,287.0 L292.7,286.2 L293.7,285.5 L294.1,284.9 L295.8,284.0 L296.8,283.2 L297.4,282.6 L298.1,281.9 L298.8,281.5 L300.1,280.9 L300.8,280.1 L301.4,279.5 L302.1,278.9 L302.8,278.3 L304.1,277.4 L304.8,276.6 L305.5,276.0 L306.5,275.2 L306.8,274.5 L308.1,273.7 L308.8,272.7 L309.5,272.1 L310.8,271.2 L312.2,269.7 L312.8,269.1 L313.5,268.4 L314.2,267.6 L314.9,266.9 L315.5,266.2 L316.2,265.6 L316.9,264.8 L317.3,264.2 L318.2,263.3 L319.5,262.0 L320.2,261.1 L321.6,260.2 L321.6,259.6 L322.9,258.9 L323.6,258.1 L324.2,257.4 L324.9,256.8 L325.8,256.1 L328.0,254.6 L328.9,254.0 L330.1,253.4 L330.3,252.9 L331.6,252.3 L332.8,251.8 L333.6,251.5 L334.4,251.0 L335.6,250.7 L337.6,250.0 L338.7,249.7 L340.3,249.4 L341.0,249.2 L342.3,249.1 L343.5,248.9 L344.3,248.8 L345.1,248.8 L346.3,248.8 L349.0,248.8 L349.7,248.9 L351.0,248.9 L352.4,249.1 L353.1,249.1 L354.3,249.2 L355.7,249.4 L356.4,249.5 L357.7,249.7 L359.8,250.1 L361.1,250.4 L362.4,250.6 L363.1,250.9 L364.4,251.0 L365.1,251.2 L366.5,251.3 L367.1,251.5 L368.5,251.8 L371.1,252.2 L371.8,252.3 L373.2,252.5 L373.8,252.8 L374.5,252.9 L375.8,253.1 L376.5,253.2 L377.3,253.4 L378.5,253.7 L379.5,253.8 L381.9,254.0 L382.5,254.1 L383.9,254.3 L384.5,254.4 L385.9,254.4 L386.6,254.6 L388.0,254.7 L389.2,254.7 L390.6,254.9 L393.1,254.9 L393.9,254.9 L395.0,254.9 L395.9,254.9 L397.1,254.9 L398.0,254.9 L399.3,254.7 L400.0,254.7 L401.3,254.7 L404.0,254.6 L404.7,254.4 L406.0,254.4 L407.3,254.3 L408.0,254.3 L409.3,254.3 L410.0,254.1 L411.4,254.1 L412.2,254.0 L414.7,254.0 L416.0,254.0 L416.7,253.8 L418.1,253.7 L418.7,253.7 L420.1,253.7 L420.7,253.5 L422.1,253.5 L422.9,253.4 L426.1,253.2 L426.9,253.2 L428.1,253.2 L429.0,253.2 L430.1,253.1 L432.0,253.1 L432.8,253.1 L433.6,253.1 L434.1,253.1 L436.8,252.9 L438.2,252.9 L439.5,252.9 L440.6,252.9 L441.5,252.9 L442.7,252.9 L443.5,252.9 L444.2,252.8 L444.9,252.8 L446.2,252.8 L448.2,252.8 L448.9,252.8 L450.2,252.8 L451.3,252.8 L452.2,252.6 L453.6,252.6 L454.9,252.6 L455.6,252.6 L456.3,252.6 L459.6,252.5 L460.3,252.5 L461.6,252.6 L462.3,252.6 L463.6,252.6 L464.3,252.6 L465.6,252.6 L466.3,252.8 L468.2,252.8 L470.6,252.9 L471.7,252.9 L472.7,253.1 L473.7,253.1 L475.0,253.2 L476.4,253.2 L477.0,253.2 L478.4,253.4 L479.2,253.4 L481.3,253.5 L483.1,253.5 L483.7,253.5 L485.1,253.5 L485.7,253.5 L487.8,253.5 L488.4,253.5 L489.8,253.4 L490.4,253.4 L492.4,253.4 L493.8,253.4 L495.1,253.4 L496.3,253.4 L497.1,253.4 L498.5,253.4 L499.1,253.4 L500.5,253.4 L501.2,253.4 L503.8,253.2 L504.9,253.2 L506.5,253.2 L507.1,253.1 L507.9,253.1 L509.2,253.1 L509.9,253.1 L511.3,252.9 L512.6,252.9 L515.2,252.9 L515.9,252.9 L517.8,252.9 L517.9,252.9 L519.9,252.9 L520.5,252.9 L521.3,252.9 L522.1,252.9 L523.3,252.9 L526.4,253.1 L527.3,253.1 L528.6,253.2 L529.3,253.2 L530.6,253.2 L532.0,253.2 L532.8,253.4 L534.0,253.4 L534.9,253.4 L537.1,253.5 L538.7,253.5 L539.5,253.5 L540.0,253.5 L541.9,253.7 L542.0,253.7 L543.4,253.7 L544.0,253.8 L545.4,253.8 L548.1,254.0 L549.4,254.0 L550.7,254.0 L552.1,254.0 L552.8,254.1 L554.1,254.1 L554.8,254.1 L556.1,254.3 L556.8,254.3 L559.5,254.4 L560.8,254.4 L562.1,254.4 L563.1,254.4 L563.5,254.4 L565.0,254.4 L566.2,254.4 L567.1,254.3 L568.2,254.3 L570.9,254.3 L571.9,254.3 L572.9,254.3 L574.1,254.3 L574.9,254.3 L575.7,254.3 L576.9,254.3 L578.2,254.3 L578.9,254.3 L579.6,254.1 L582.2,254.1 L582.9,254.1 L584.3,254.1 L584.9,254.1 L586.3,254.1 L586.9,254.1 L588.3,254.1 L588.8,254.0 L590.3,254.0 L593.0,254.0 L594.3,254.0 L595.0,254.0 L596.3,254.0 L597.7,254.0 L598.3,254.0 L599.0,253.8 L600.3,253.8 L601.7,253.7 L603.8,253.5 L605.0,253.5 L606.4,253.5 L607.7,253.4 L608.4,253.4 L609.7,253.2 L610.5,253.2 L612.4,253.1 L612.7,253.1 L615.1,252.9 L616.4,252.8 L617.8,252.8 L618.4,252.6 L619.8,252.6 L620.4,252.6 L621.3,252.5 L622.5,252.5 L623.4,252.5 L624.5,252.3 L626.5,252.3 L627.8,252.3 L628.5,252.3 L630.4,252.3 L631.2,252.3 L632.2,252.3 L633.2,252.3 L634.4,252.5 L635.2,252.5 L637.9,252.6 L638.9,252.6 L640.6,252.8 L641.9,252.9 L643.2,253.1 L643.9,253.2 L645.1,253.4 L645.9,253.5 L649.3,253.8 L649.7,254.0 L651.3,254.0 L651.9,254.0 L653.3,254.0 L654.6,254.1 L655.8,254.1 L657.3,254.1" fill="none" stroke="#2ca02c" stroke-width="1.7" opacity="0.85"/><circle cx="657" cy="254" r="4.5" fill="#2ca02c"/><rect x="28" y="88" width="13" height="13" fill="#2ca02c"/><text x="46" y="99" font-size="12">25%</text><path d="M129.2,282.2 L129.2,282.2 L129.2,282.2 L129.2,282.2 L129.2,282.2 L129.2,282.2 L129.2,282.2 L129.2,282.2 L129.2,282.2 L129.2,282.2 L129.2,282.2 L129.2,282.2 L129.2,282.2 L129.2,282.2 L129.2,282.2 L129.2,282.2 L129.2,282.2 L129.2,282.2 L129.2,282.2 L129.2,282.2 L129.2,282.2 L129.2,282.2 L129.2,282.2 L129.2,282.2 L129.2,282.2 L129.2,282.2 L129.2,282.2 L129.2,282.2 L129.2,282.2 L129.2,282.2 L129.2,282.2 L129.2,282.2 L129.2,282.2 L129.2,282.2 L129.2,282.2 L129.2,282.2 L129.2,282.2 L129.2,282.2 L129.2,282.2 L129.2,282.2 L129.2,282.2 L129.2,282.2 L129.2,282.2 L129.2,282.2 L129.2,282.2 L129.2,282.2 L129.2,282.2 L129.2,282.2 L129.2,282.2 L129.2,282.2 L129.2,282.2 L129.2,282.2 L129.2,282.2 L129.2,282.2 L129.2,282.2 L129.2,282.2 L129.2,282.2 L129.2,282.2 L129.2,282.2 L129.2,282.2 L129.6,281.5 L129.9,280.7 L130.6,279.8 L131.2,278.8 L131.8,278.2 L131.9,277.2 L132.6,276.3 L133.2,275.4 L133.9,274.6 L133.9,273.9 L135.2,272.7 L135.9,272.1 L136.0,271.2 L136.6,270.5 L137.9,269.4 L138.2,268.8 L138.6,268.1 L139.9,267.1 L140.3,266.5 L140.6,265.7 L141.9,264.8 L142.5,264.1 L142.6,263.3 L144.0,262.7 L144.6,262.0 L145.3,261.1 L146.0,260.5 L146.8,259.8 L147.3,259.0 L148.6,258.3 L148.9,257.5 L150.0,256.8 L150.7,256.1 L151.3,255.5 L152.7,254.7 L153.3,254.1 L154.0,253.7 L154.7,253.1 L155.9,252.3 L156.7,251.9 L157.4,251.3 L158.0,251.0 L158.7,250.6 L160.0,250.0 L160.7,249.5 L161.8,249.1 L162.7,248.8 L164.1,248.3 L164.7,248.0 L166.1,247.7 L167.4,247.6 L168.1,247.4 L169.4,247.3 L170.1,247.1 L170.8,247.0 L172.1,246.9 L173.3,246.9 L174.1,246.7 L174.9,246.7 L176.1,246.7 L177.5,246.7 L178.1,246.7 L179.5,246.7 L180.1,246.9 L181.1,246.9 L182.2,247.0 L183.5,247.1 L184.2,247.3 L185.5,247.4 L186.8,247.7 L187.5,247.7 L188.9,248.0 L189.7,248.3 L190.9,248.6 L191.8,248.9 L192.9,249.4 L193.6,249.7 L194.9,250.1 L196.2,250.6 L196.9,250.9 L198.2,251.2 L198.9,251.5 L200.3,251.8 L200.9,252.2 L202.3,252.5 L203.3,252.8 L204.3,253.2 L205.5,253.7 L206.3,254.0 L207.4,254.1 L208.3,254.4 L209.5,254.7 L210.3,254.9 L211.6,255.2 L212.3,255.5 L213.5,255.6 L215.0,255.8 L216.2,256.1 L217.0,256.2 L217.8,256.4 L219.0,256.5 L220.2,256.7 L221.0,256.8 L222.4,257.0 L223.0,257.0 L224.5,257.1 L225.7,257.1 L226.9,257.1 L227.7,257.2 L228.5,257.2 L229.1,257.2 L230.4,257.2 L231.1,257.2 L233.1,257.2 L233.1,257.2 L235.1,257.2 L235.8,257.1 L237.1,257.1 L237.8,257.0 L239.1,257.0 L239.3,257.0 L241.1,256.8 L241.4,256.7 L242.5,256.5 L243.8,256.4 L245.2,256.2 L246.0,256.1 L247.2,255.9 L247.8,255.9 L249.2,255.8 L249.8,255.6 L251.2,255.5 L252.5,255.3 L253.2,255.3 L253.9,255.2 L255.2,255.2 L256.5,255.0 L257.2,255.0 L258.6,254.9 L259.2,254.9 L260.6,254.9 L261.2,254.7 L262.6,254.7 L263.9,254.7 L265.3,254.6 L265.9,254.6 L267.3,254.6 L267.9,254.6 L269.3,254.6 L269.9,254.4 L271.3,254.4 L272.2,254.4 L273.3,254.3 L274.4,254.3 L275.3,254.1 L276.5,254.0 L278.0,254.0 L278.7,254.0 L280.0,253.8 L280.7,253.7 L282.0,253.5 L283.0,253.5 L284.7,253.4 L285.4,253.2 L286.7,253.1 L287.4,253.1 L288.7,252.9 L289.4,252.9 L291.4,252.9 L291.5,252.9 L293.4,252.8 L294.7,252.8 L295.8,252.8 L296.8,252.8 L298.0,252.8 L299.4,252.8 L300.1,252.8 L301.4,252.8 L302.3,252.8 L303.5,252.8 L304.8,252.8 L306.1,252.8 L307.5,252.8 L308.1,252.8 L309.5,252.8 L310.2,252.8 L310.8,252.8 L312.8,252.8 L313.0,252.9 L314.9,252.9 L315.1,252.9 L316.9,252.9 L317.5,252.9 L318.9,253.1 L319.5,253.1 L320.9,253.2 L321.6,253.2 L322.9,253.4 L323.7,253.5 L325.6,253.5 L326.2,253.7 L328.0,253.7 L328.9,253.8 L330.1,254.0 L330.9,254.0 L332.3,254.0 L332.9,254.0 L334.3,254.1 L335.6,254.3 L337.0,254.3 L338.3,254.4 L339.0,254.4 L340.3,254.6 L341.4,254.6 L342.3,254.7 L343.5,254.7 L344.3,254.7 L346.3,254.9 L347.3,254.9 L348.4,254.9 L349.4,255.0 L350.4,255.0 L351.7,255.0 L352.4,255.0 L353.7,255.0 L354.4,255.0 L355.7,255.0 L356.4,255.2 L357.7,255.2 L358.4,255.0 L359.8,255.0 L361.0,255.0 L361.8,255.0 L362.6,255.0 L363.8,254.9 L365.2,254.9 L366.6,254.7 L367.8,254.7 L368.7,254.7 L369.8,254.7 L371.1,254.7 L371.8,254.6 L373.2,254.6 L374.5,254.6 L375.2,254.4 L377.2,254.4 L377.8,254.4 L379.2,254.3 L379.9,254.3 L381.2,254.3 L382.1,254.3 L383.2,254.1 L384.3,254.1 L385.9,254.1 L387.2,254.0 L388.0,254.0 L389.2,254.0 L390.6,254.0 L391.2,254.0 L392.6,254.0 L393.9,254.0 L395.0,254.0 L395.9,254.0 L397.3,253.8 L398.6,253.8 L399.3,253.8 L400.6,253.8 L401.2,253.7 L402.6,253.7 L403.8,253.7 L405.3,253.7 L405.5,253.5 L407.9,253.5 L408.7,253.5 L410.0,253.5 L410.7,253.5 L412.0,253.5 L412.7,253.5 L414.0,253.5 L414.7,253.5 L416.0,253.5 L418.7,253.5 L420.1,253.7 L420.7,253.7 L422.1,253.7 L422.9,253.8 L424.1,253.8 L425.0,254.0 L426.1,254.0 L426.9,254.0 L429.4,254.1 L431.5,254.3 L432.0,254.4 L433.5,254.6 L433.6,254.6 L435.5,254.7 L435.7,254.9 L437.5,255.0 L438.2,255.2 L440.8,255.5 L442.2,255.6 L442.9,255.6 L444.6,255.8 L445.5,255.9 L446.7,255.9 L447.5,256.1 L448.6,256.1 L449.6,256.2 L451.6,256.4 L453.4,256.4 L454.2,256.4 L454.8,256.4 L456.3,256.5 L457.5,256.5 L458.3,256.5 L459.6,256.5 L460.3,256.5 L463.0,256.5 L464.2,256.5 L465.0,256.5 L465.8,256.5 L467.0,256.5 L468.2,256.5 L469.0,256.5 L470.3,256.5 L471.7,256.4 L474.4,256.4 L475.0,256.4 L476.4,256.2 L477.0,256.2 L478.4,256.1 L479.2,255.9 L480.4,255.9 L481.3,255.8 L482.4,255.6 L483.5,255.5 L485.1,255.2 L485.7,255.0 L487.1,254.9 L487.8,254.7 L489.8,254.6 L489.9,254.6 L491.8,254.4 L492.4,254.3 L493.8,254.1 L496.3,253.8 L497.1,253.8 L498.5,253.7 L499.1,253.5 L500.5,253.4 L501.8,253.2 L502.5,253.2 L503.8,253.1 L504.5,253.1 L507.1,252.9 L508.5,252.8 L509.2,252.6 L510.5,252.6 L511.3,252.5 L512.6,252.5 L513.5,252.5 L514.6,252.3 L515.6,252.3 L517.9,252.2 L519.3,252.2 L520.5,252.2 L521.9,252.2 L522.1,252.2 L523.9,252.2 L524.2,252.2 L526.0,252.3 L526.4,252.3 L529.3,252.3 L530.6,252.3 L531.3,252.5 L532.7,252.5 L533.3,252.5 L534.7,252.6 L535.3,252.6 L536.7,252.6 L537.3,252.6 L538.7,252.8 L540.0,252.8 L541.9,252.9 L542.0,252.9 L543.5,252.9 L544.7,253.1 L545.7,253.2 L546.7,253.2 L547.8,253.4 L548.7,253.5 L551.4,253.7 L552.8,253.7 L554.1,253.7 L554.8,253.8 L556.1,253.8 L556.8,253.8 L558.1,253.8 L559.1,253.7 L560.1,253.7 L562.8,253.7 L563.5,253.5 L564.8,253.5 L565.5,253.5 L567.1,253.4 L567.5,253.4 L568.8,253.2 L569.8,253.1 L571.5,253.1 L574.1,252.8 L574.9,252.8 L575.7,252.8 L576.9,252.6 L578.2,252.6 L578.9,252.6 L580.2,252.6 L580.9,252.6 L582.2,252.6 L584.9,252.5 L586.3,252.6 L586.9,252.6 L588.3,252.6 L588.8,252.6 L590.3,252.8 L591.5,252.8 L592.3,252.9 L593.1,252.9 L595.7,253.2 L597.7,253.4 L597.7,253.4 L599.7,253.5 L599.8,253.7 L601.7,253.7 L602.4,253.8 L603.7,253.8 L603.8,254.0 L607.0,254.0 L608.4,254.1 L609.1,254.1 L610.4,254.1 L611.7,254.3 L612.7,254.3 L613.7,254.3 L614.5,254.4 L615.8,254.4 L617.8,254.4 L619.6,254.4 L620.4,254.3 L621.3,254.3 L622.5,254.3 L623.4,254.1 L624.5,254.1 L625.5,254.0 L626.5,254.0 L627.8,254.0 L629.2,254.0 L630.4,253.8 L631.8,253.7 L632.5,253.7 L633.9,253.5 L634.5,253.4 L635.9,253.2 L636.5,253.2 L637.9,253.1 L640.6,252.9 L641.2,252.8 L642.6,252.8 L643.2,252.8 L644.6,252.9 L645.2,252.9 L646.6,252.9 L647.5,252.9 L649.3,253.1 L651.8,253.2 L652.6,253.4 L653.4,253.4 L654.6,253.4 L655.8,253.5 L656.6,253.5 L658.2,253.5 L659.3,253.5 L660.4,253.5 L662.7,253.7 L663.3,253.7 L664.1,253.8 L665.3,253.8 L666.7,254.0 L667.4,254.0 L668.7,254.0 L669.4,254.0 L670.7,254.1 L672.1,254.1 L673.4,254.3 L674.7,254.3 L675.4,254.3 L677.4,254.3 L678.1,254.3 L679.4,254.3 L680.1,254.3 L681.4,254.3 L682.1,254.3 L684.8,254.1 L686.1,254.1 L686.8,254.1 L688.3,254.0 L689.5,254.0 L690.4,254.0 L691.5,254.0 L692.6,254.0 L693.5,254.0 L696.2,254.0 L697.5,254.0 L698.2,254.0 L699.5,253.8 L700.2,253.8 L701.1,253.7 L702.2,253.7 L703.3,253.5 L704.2,253.5 L705.4,253.4 L707.6,253.2 L708.2,253.2 L708.9,253.2 L710.2,253.1 L711.6,253.1 L712.3,252.9 L713.6,252.9 L714.3,252.9 L716.3,252.9 L718.8,252.8 L719.6,252.8 L720.4,252.6 L721.6,252.6 L722.6,252.5 L723.7,252.5 L724.7,252.5 L725.7,252.3 L727.1,252.3 L729.7,252.3 L731.0,252.3 L731.7,252.3 L733.0,252.3 L733.7,252.3 L735.0,252.3 L735.7,252.2 L737.1,252.2 L737.9,252.2 L739.1,252.2 L741.1,252.2 L741.9,252.2 L743.1,252.2 L744.0,252.2 L745.1,252.2 L746.4,252.2 L747.1,252.3 L748.4,252.3 L749.1,252.3 L751.8,252.5 L752.6,252.5 L753.8,252.5 L755.2,252.5 L756.5,252.5 L757.4,252.5 L758.5,252.5 L759.2,252.5 L760.5,252.5 L761.2,252.5 L763.2,252.5 L764.5,252.5 L765.9,252.5 L766.5,252.5 L767.2,252.5 L768.4,252.5 L769.2,252.5 L770.6,252.6 L771.2,252.6 L772.4,252.6 L774.6,252.8 L775.3,252.8 L776.5,252.8 L777.9,252.8 L779.1,252.9 L779.9,252.9 L780.8,252.9 L782.0,252.9 L783.2,253.1 L785.3,253.1 L787.3,253.1 L788.0,253.1 L790.0,253.1" fill="none" stroke="#bcbd22" stroke-width="1.7" opacity="0.85"/><circle cx="790" cy="253" r="4.5" fill="#bcbd22"/><rect x="28" y="108" width="13" height="13" fill="#bcbd22"/><text x="46" y="119" font-size="12">50%</text><path d="M129.2,282.2 L129.2,282.2 L129.2,282.2 L129.2,282.2 L129.2,282.2 L129.2,282.2 L129.2,282.2 L129.2,282.2 L129.2,282.2 L129.2,282.2 L129.2,282.2 L129.2,282.2 L129.2,282.2 L129.2,282.2 L129.2,282.2 L129.2,282.2 L129.2,282.2 L129.2,282.2 L129.2,282.2 L129.2,282.2 L129.2,282.2 L129.2,282.2 L129.2,282.2 L129.2,282.2 L129.2,282.2 L129.2,282.2 L129.2,282.2 L129.2,282.2 L129.2,282.2 L129.2,282.2 L129.2,282.2 L129.2,282.2 L129.2,282.2 L129.2,282.2 L129.2,282.2 L129.2,282.2 L129.2,282.2 L129.2,282.2 L129.2,282.2 L129.2,282.2 L129.2,282.2 L129.2,282.2 L129.2,282.2 L129.2,282.2 L129.2,282.2 L129.2,282.2 L129.2,282.2 L129.2,282.2 L129.2,282.2 L129.2,282.2 L129.2,282.2 L129.2,282.2 L129.2,282.2 L129.2,282.2 L129.2,282.2 L129.2,282.2 L129.2,282.2 L129.2,282.2 L129.2,282.2 L129.6,281.3 L129.9,280.4 L130.6,279.5 L131.2,278.6 L131.8,277.9 L131.9,277.0 L133.2,276.1 L133.9,275.4 L133.9,274.6 L134.6,273.9 L135.2,273.1 L135.9,272.4 L136.6,271.5 L137.3,270.8 L138.2,269.9 L138.6,269.1 L139.9,268.2 L140.3,267.5 L141.3,266.6 L141.9,266.0 L142.6,265.1 L143.3,264.4 L144.6,263.6 L145.2,263.0 L145.3,262.3 L146.6,261.4 L146.8,260.5 L147.3,259.8 L148.0,258.9 L148.9,258.0 L149.3,257.1 L150.0,256.2 L150.7,255.5 L151.1,254.6 L151.3,253.7 L151.3,252.8 L152.0,251.6 L152.7,250.7 L153.3,249.7 L153.7,248.8 L153.7,247.9 L154.0,246.9 L154.0,246.0 L154.7,244.8 L154.7,243.9 L155.4,242.7 L155.4,241.8 L155.4,240.9 L155.9,239.9 L155.9,238.7 L155.9,237.9 L155.9,236.8 L156.0,235.3 L156.0,233.9 L156.0,233.0 L156.7,232.0 L156.7,231.1 L156.7,230.1 L157.4,229.0 L157.4,228.1 L157.5,227.2 L158.0,225.6 L158.7,224.6 L158.7,223.4 L159.4,222.3 L159.6,221.5 L160.0,220.4 L160.7,219.7 L161.4,218.6 L161.8,217.4 L162.1,216.6 L162.7,215.5 L163.4,214.8 L164.2,213.9 L164.7,213.0 L165.4,212.2 L166.1,211.4 L166.7,210.8 L167.4,210.0 L168.2,209.0 L168.8,208.2 L170.1,207.5 L170.4,206.9 L171.4,206.3 L172.1,205.4 L173.3,204.8 L174.1,204.2 L174.8,203.6 L175.5,202.9 L176.8,202.1 L177.5,201.7 L178.8,201.1 L178.9,200.7 L180.1,200.2 L181.1,199.6 L182.2,199.2 L183.5,198.9 L183.8,198.6 L184.8,198.1 L186.2,197.7 L186.8,197.4 L187.8,197.1 L188.9,196.8 L190.2,196.5 L191.5,196.2 L192.2,195.9 L193.6,195.8 L194.5,195.6 L195.6,195.5 L196.6,195.3 L197.6,195.2 L198.8,195.2 L199.6,195.0 L201.2,195.0 L201.6,195.0 L202.9,195.0 L204.3,195.0 L205.5,195.0 L206.3,195.2 L207.4,195.2 L208.3,195.3 L209.5,195.5 L210.3,195.8 L211.6,195.8 L212.3,196.1 L214.3,196.5 L215.0,196.7 L216.2,197.0 L217.7,197.4 L217.8,197.7 L219.0,198.0 L220.2,198.3 L221.0,198.7 L222.4,199.0 L222.4,199.3 L224.4,199.8 L224.5,200.2 L225.7,200.7 L226.9,201.3 L227.7,201.7 L228.5,202.0 L229.1,202.4 L230.4,203.0 L231.1,203.5 L231.7,204.1 L233.1,204.5 L233.8,205.0 L235.1,205.7 L235.8,206.3 L236.4,206.9 L237.4,207.5 L238.5,208.2 L239.1,208.7 L239.8,209.4 L241.1,210.5 L241.8,211.2 L243.1,211.7 L243.8,212.4 L244.5,213.1 L245.2,213.7 L246.0,214.2 L247.2,214.9 L247.8,215.7 L249.2,217.0 L250.2,217.6 L250.5,218.3 L251.2,218.9 L252.5,219.8 L252.9,220.4 L253.9,221.3 L254.5,222.1 L255.2,222.9 L255.9,223.7 L256.5,224.4 L257.2,225.3 L257.9,226.2 L258.6,227.0 L259.2,227.8 L259.9,228.9 L260.6,229.6 L261.0,230.4 L261.9,231.4 L262.6,232.6 L263.2,233.3 L263.6,234.1 L264.6,235.1 L265.3,236.0 L265.8,236.8 L265.9,237.8 L266.6,238.7 L267.3,239.4 L267.9,241.4 L268.6,242.2 L269.3,243.0 L269.8,244.0 L269.9,244.9 L270.6,245.8 L271.3,246.9 L272.0,247.7 L272.2,248.6 L273.3,250.4 L274.0,251.3 L274.4,252.3 L274.4,253.1 L275.3,254.0 L276.0,255.2 L276.0,255.9 L276.5,257.0 L276.7,257.8 L278.0,259.5 L278.1,260.4 L278.7,261.4 L279.3,262.3 L280.0,263.0 L280.5,264.1 L280.7,265.1 L281.3,266.0 L282.0,266.9 L282.7,268.5 L283.0,269.4 L283.4,270.5 L284.7,271.5 L284.7,272.2 L285.1,273.0 L285.4,273.9 L286.0,274.8 L286.7,275.8 L287.4,277.4 L288.0,278.5 L288.7,279.4 L288.8,280.3 L289.4,281.3 L290.1,282.1 L290.7,282.9 L291.4,283.8 L291.4,284.4 L291.5,285.5 L292.1,286.5 L293.4,287.5 L293.7,288.4 L294.1,289.5 L294.1,290.4 L294.7,291.1 L295.8,292.3 L296.1,293.3 L296.1,294.1 L297.4,295.7 L298.0,296.6 L298.0,297.2 L298.8,298.5 L299.4,299.6 L299.4,300.3 L300.1,301.2 L300.1,302.0 L300.8,303.0 L302.1,304.8 L302.3,306.0 L302.8,306.9 L303.5,307.7 L303.5,308.8 L304.1,309.5 L304.4,310.4 L304.8,311.3 L304.8,312.1 L305.5,313.1 L306.5,315.0 L306.5,315.8 L306.8,316.8 L307.5,317.7 L307.5,318.4 L308.1,319.6 L308.7,320.5 L308.7,321.3 L308.8,322.6 L310.2,325.3 L310.8,326.3 L310.8,327.3 L310.8,328.2 L310.8,329.4 L311.5,330.3 L311.5,331.4 L312.2,332.7 L312.2,333.4 L312.8,336.0 L313.0,336.7 L313.0,337.9 L313.5,339.1 L313.5,340.0 L314.2,341.0 L314.2,342.2 L314.9,343.1 L314.9,344.1 L314.9,345.0 L315.1,346.8 L315.1,348.0 L315.1,348.9 L315.5,349.8 L315.5,351.1 L316.2,352.0 L316.2,353.2 L316.2,354.2 L316.9,355.1 L316.9,357.8 L317.3,358.8 L317.3,360.0 L317.3,360.9 L317.5,362.0 L317.5,362.8 L318.2,363.9 L318.2,364.9 L318.9,366.0 L319.4,368.5 L319.4,369.5 L319.4,370.3 L319.5,371.6 L319.5,372.6 L319.5,373.4 L320.2,374.6 L320.2,375.8 L320.2,376.7 L320.9,377.5 L320.9,379.3 L320.9,380.5 L320.9,381.6 L321.6,382.4 L321.6,383.5 L321.6,384.7 L321.6,385.6 L321.6,386.8 L321.6,387.6 L321.6,388.5 L321.6,390.6 L321.6,391.8 L321.6,392.8 L321.6,394.0 L321.6,395.1 L320.9,396.0 L320.9,397.2 L320.9,398.0 L320.9,399.2 L320.2,401.6 L320.2,402.6 L319.5,403.8 L319.5,405.0 L319.4,406.2 L319.4,407.3 L318.9,408.3 L318.9,409.5 L318.9,410.4 L318.2,412.6 L317.5,413.5 L317.5,414.5 L317.5,415.6 L317.3,416.6 L317.3,417.5 L317.3,418.5 L316.9,419.7 L316.9,420.9 L316.9,423.4 L316.2,424.6 L316.2,425.7 L316.2,426.9 L315.5,428.2 L315.5,428.9 L315.5,430.0 L315.5,431.2 L315.1,431.9 L315.1,434.6 L314.9,435.6 L314.9,436.7 L314.9,437.7 L314.9,438.9 L314.2,439.8 L314.2,440.7 L314.2,441.9 L314.2,442.9 L313.5,443.8 L313.5,445.7 L313.0,446.8 L313.0,447.6 L313.0,448.7 L312.8,449.6 L312.8,450.5 L312.8,451.8 L312.2,452.7 L312.2,453.7 L312.2,454.8 L311.5,456.6 L311.5,457.6 L310.8,458.8 L310.8,459.8 L310.8,461.0 L310.8,461.9 L310.8,462.9 L310.8,464.1 L310.2,465.2 L309.5,467.7 L309.5,468.6 L309.5,469.6 L308.8,470.7 L308.8,471.6 L308.7,472.6 L308.7,473.6 L308.1,474.5 L307.5,475.6 L307.5,476.5 L306.8,478.2 L306.5,479.3 L306.5,480.2 L306.1,481.1 L305.5,482.1 L304.8,483.0 L304.8,483.9 L304.4,485.1 L304.1,486.0 L303.5,486.9 L302.8,488.6 L302.3,489.4 L302.1,490.4 L301.4,491.5 L300.8,492.4 L300.1,493.2 L300.1,494.3 L299.4,495.3 L298.8,496.1 L298.0,498.4 L297.4,499.6 L296.8,500.7 L296.1,501.7 L295.8,502.5 L295.8,503.3 L295.4,504.4 L294.7,505.4 L294.1,506.3 L293.4,508.5 L292.7,509.6 L292.1,510.5 L292.1,511.4 L291.5,512.4 L291.4,513.4 L291.4,514.2 L290.7,515.4 L290.1,516.4 L289.4,517.3 L288.8,518.9 L288.7,520.0 L288.7,520.9 L288.0,521.9 L288.0,522.9 L287.4,523.8 L287.2,525.0 L287.2,525.9 L286.7,526.8 L286.0,527.8 L285.4,529.5 L285.4,530.7 L285.1,531.6 L284.7,532.3 L284.7,533.5 L284.0,534.4 L284.0,535.3 L283.4,536.5 L283.0,537.7 L283.0,538.4 L282.7,540.3 L282.0,541.4 L282.0,542.4 L281.3,543.3 L281.3,544.3 L280.7,545.1 L280.5,546.3 L280.5,547.3 L280.0,548.2 L280.0,549.2 L279.3,551.0 L278.7,552.1 L278.1,553.2 L278.1,554.0 L278.0,554.9 L277.3,556.2 L277.3,557.0 L276.7,558.0 L276.7,559.0 L276.5,559.9 L276.0,561.7 L276.0,562.7 L275.3,563.5 L274.6,564.7 L274.6,565.7 L274.4,566.6 L274.0,567.7 L274.0,568.7 L273.3,569.4 L272.6,570.6 L272.2,572.3 L272.0,573.1 L271.3,574.2 L271.3,575.1 L270.6,576.1 L269.9,577.2 L269.8,578.3 L269.8,579.5 L269.3,580.4 L267.9,582.7 L267.9,583.7 L267.1,584.6 L267.3,585.6 L266.6,586.7 L266.6,587.7 L265.9,588.6 L265.8,589.6 L265.3,590.4 L263.9,593.0 L263.6,593.9 L263.6,595.0 L263.2,596.0 L262.6,596.9 L261.9,597.9 L261.2,599.0 L261.2,599.7 L261.0,600.6 L260.6,601.5 L259.9,603.3 L259.2,604.5 L259.1,605.5 L259.1,606.3 L258.6,607.6 L257.9,608.5 L257.9,609.5 L257.2,610.4 L256.9,611.6 L256.5,614.0 L255.9,615.0 L255.2,616.1 L255.2,617.0 L255.1,617.8 L254.5,618.9 L254.5,619.8 L253.9,620.8 L253.2,621.7 L252.9,622.8 L252.5,624.4 L251.9,625.4 L251.9,626.3 L251.2,627.5 L250.5,628.4 L250.5,629.3 L250.2,630.0 L250.2,631.4 L249.8,632.3 L248.5,634.9 L248.5,636.1 L248.1,637.0 L248.1,638.0 L247.8,639.1 L247.8,640.1 L247.2,641.2 L247.2,642.2 L246.5,643.2 L246.0,645.9 L245.8,647.0 L245.8,648.0 L245.2,648.9 L245.2,649.9 L244.5,651.0 L244.5,651.9 L244.3,652.9 L244.3,654.1 L244.3,654.8 L243.8,656.9 L243.1,657.8 L243.1,659.1 L242.5,660.0 L242.5,661.1 L242.5,662.0 L241.8,663.1 L241.8,664.2 L241.4,665.1 L241.1,667.6 L240.5,668.8 L240.5,669.7 L240.5,670.9 L239.8,671.9 L239.8,672.8 L239.8,673.8 L239.3,675.0 L239.3,675.8 L239.1,678.9 L239.1,679.9 L238.5,681.1 L238.5,682.0 L237.8,683.9 L237.8,685.0" fill="none" stroke="#ff7f0e" stroke-width="1.7" opacity="0.85"/><circle cx="238" cy="685" r="4.5" fill="#ff7f0e"/><rect x="28" y="128" width="13" height="13" fill="#ff7f0e"/><text x="46" y="139" font-size="12">100%</text><text x="28" y="832" font-size="11" fill="#888">ground track — m from pad (N up)</text></svg>