<svg xmlns="http://www.w3.org/2000/svg" width="840" height="860" font-family="sans-serif" font-size="13"><rect width="840" height="860" fill="white"/><text x="20" y="26" font-size="15" fill="#333">Coludo flight</text><rect x="20" y="40" width="800" height="800" fill="#fbfbfb" stroke="#ddd"/><rect x="50" y="431" width="433" height="93" fill="#cde" stroke="#369" opacity="0.7"/><text x="50" y="426" fill="#369" font-size="12">landing zone</text><circle cx="324" cy="577" r="5" fill="black"/><text x="332" y="581" font-size="12">pad</text><path d="M324.9,576.4 L324.9,576.4 L324.9,576.4 L324.9,576.4 L324.9,576.4 L324.9,576.4 L324.9,576.4 L324.9,576.4 L324.9,576.4 L324.9,576.4 L324.9,576.4 L324.9,576.4 L324.9,576.4 L324.9,576.4 L324.9,576.4 L324.9,576.4 L324.9,576.4 L324.9,576.4 L324.9,576.4 L324.9,576.4 L324.9,576.4 L324.9,576.4 L324.9,576.4 L324.9,576.4 L324.9,576.4 L324.9,576.4 L324.9,576.4 L324.9,576.4 L324.9,576.4 L324.9,576.4 L324.9,576.4 L324.9,576.4 L324.9,576.4 L324.9,576.4 L324.9,576.4 L324.9,576.4 L324.9,576.4 L324.9,576.4 L324.9,576.4 L324.9,576.4 L324.9,576.4 L324.9,576.4 L324.9,576.4 L324.9,576.4 L324.9,576.4 L324.9,576.4 L324.9,576.4 L324.9,576.4 L324.9,576.4 L324.9,576.4 L324.9,576.4 L324.9,576.4 L324.9,576.4 L324.9,576.4 L324.9,576.4 L326.3,573.9 L327.2,571.3 L329.5,568.2 L331.9,565.1 L333.7,562.5 L334.2,558.9 L336.5,556.3 L341.2,553.3 L341.2,551.2 L343.5,548.1 L348.1,545.5 L348.6,542.9 L350.5,540.9 L355.1,538.3 L356.0,535.7 L359.8,533.7 L362.1,531.1 L364.4,529.0 L369.1,527.0 L370.9,524.9 L373.7,522.8 L376.0,520.8 L380.2,519.2 L383.0,516.7 L385.3,514.6 L387.7,512.0 L390.0,510.5 L393.3,507.4 L394.7,505.3 L399.3,501.7 L400.7,499.7 L404.0,497.1 L406.3,494.5 L408.6,491.4 L410.0,488.8 L413.3,485.7 L415.6,483.2 L417.4,479.6 L417.9,477.0 L420.2,474.4 L422.6,470.8 L423.0,468.2 L424.9,464.6 L424.9,461.5 L427.2,457.4 L429.5,454.8 L430.5,451.2 L430.5,447.6 L431.9,444.5 L431.9,440.4 L434.2,437.3 L434.2,433.7 L434.2,430.1 L436.5,426.5 L436.5,423.4 L436.5,419.3 L437.9,416.2 L437.9,412.6 L438.8,409.5 L438.8,405.3 L441.2,402.8 L441.2,398.6 L443.5,395.5 L443.5,392.5 L445.8,388.8 L446.3,385.2 L448.1,382.7 L450.5,377.0 L452.8,373.9 L454.7,370.8 L455.1,367.7 L457.4,364.6 L459.8,362.0 L460.2,359.5 L462.1,355.9 L464.4,353.3 L467.7,350.7 L469.1,348.1 L471.4,345.0 L476.0,342.5 L477.9,340.4 L480.7,337.8 L483.0,335.2 L485.3,333.2 L487.7,330.6 L492.8,329.1 L494.7,326.5 L497.0,324.9 L499.3,322.9 L504.0,320.8 L504.9,319.8 L508.6,317.7 L513.3,316.2 L515.6,314.6 L517.9,313.1 L520.7,311.5 L524.9,310.5 L528.1,309.5 L531.9,308.4 L534.7,307.9 L538.8,306.9 L542.1,306.4 L545.8,305.4 L550.5,304.8 L552.8,304.3 L557.4,303.8 L559.8,303.8 L564.4,303.3 L566.7,303.3 L571.4,303.3 L573.7,303.3 L578.4,303.8 L582.1,303.8 L585.3,304.3 L589.5,304.8 L592.3,305.4 L596.0,305.9 L599.3,306.9 L603.5,307.4 L604.0,308.4 L610.9,309.0 L610.9,310.0 L615.6,311.5 L617.4,312.6 L622.6,314.1 L626.7,315.7 L629.5,317.2 L631.9,318.8 L634.2,319.8 L638.8,321.8 L641.2,324.4 L643.5,326.0 L648.1,328.5 L650.5,330.1 L652.8,332.2 L655.6,334.7 L657.4,336.8 L662.1,339.4 L664.0,341.4 L666.7,344.0 L669.1,346.6 L669.5,349.7 L673.7,352.3 L676.0,354.8 L678.8,357.9 L678.4,361.0 L683.0,363.6 L683.0,366.7 L685.3,369.3 L687.7,372.4 L687.7,375.4 L690.0,379.1 L692.3,382.7 L692.8,385.2 L694.7,388.8 L697.0,391.9 L700.2,398.1 L701.6,401.2 L704.0,404.3 L706.3,407.4 L706.7,410.5 L708.6,413.6 L710.9,416.7 L713.3,419.8 L714.2,422.9 L717.9,427.5 L722.6,430.6 L724.4,434.2 L724.9,436.3 L729.5,439.4 L730.0,441.9 L731.9,445.0 L736.5,447.6 L737.4,450.2 L741.2,454.8 L744.9,457.4 L745.8,460.0 L750.5,462.5 L752.8,465.1 L759.8,470.3 L761.6,472.9 L764.4,474.9 L769.1,479.0 L773.7,481.6 L776.0,483.7 L778.4,485.7 L782.1,488.3 L785.3,489.3 L790.0,491.9" fill="none" stroke="#1f77b4" stroke-width="1.7" opacity="0.85"/><circle cx="790" cy="492" r="4.5" fill="#1f77b4"/><rect x="28" y="48" width="13" height="13" fill="#1f77b4"/><text x="46" y="59" font-size="12">calm</text><path d="M324.9,576.4 L324.9,576.4 L324.9,576.4 L324.9,576.4 L324.9,576.4 L324.9,576.4 L324.9,576.4 L324.9,576.4 L324.9,576.4 L324.9,576.4 L324.9,576.4 L324.9,576.4 L324.9,576.4 L324.9,576.4 L324.9,576.4 L324.9,576.4 L324.9,576.4 L324.9,576.4 L324.9,576.4 L324.9,576.4 L324.9,576.4 L324.9,576.4 L324.9,576.4 L324.9,576.4 L324.9,576.4 L324.9,576.4 L324.9,576.4 L324.9,576.4 L324.9,576.4 L324.9,576.4 L324.9,576.4 L324.9,576.4 L324.9,576.4 L324.9,576.4 L324.9,576.4 L324.9,576.4 L324.9,576.4 L324.9,576.4 L324.9,576.4 L324.9,576.4 L324.9,576.4 L324.9,576.4 L324.9,576.4 L324.9,576.4 L324.9,576.4 L324.9,576.4 L324.9,576.4 L324.9,576.4 L324.9,576.4 L324.9,576.4 L324.9,576.4 L324.9,576.4 L324.9,576.4 L324.9,576.4 L324.9,576.4 L326.3,574.4 L326.3,572.3 L327.2,570.3 L329.5,567.7 L331.9,565.1 L333.7,563.6 L334.2,561.0 L336.5,558.9 L338.8,556.9 L341.2,554.8 L341.2,552.7 L343.5,551.2 L348.1,549.1 L348.6,547.1 L350.5,545.5 L352.8,543.5 L356.0,542.4 L357.4,540.9 L359.8,538.8 L363.5,537.8 L364.4,536.2 L366.7,534.7 L370.9,533.2 L371.4,531.6 L376.0,530.6 L378.4,529.5 L380.7,528.0 L383.0,526.5 L385.8,525.4 L387.7,523.9 L392.3,522.8 L393.3,521.3 L397.0,520.3 L399.3,519.2 L401.6,517.7 L404.0,516.1 L406.3,514.6 L410.0,513.1 L410.9,511.0 L413.3,510.0 L415.6,507.9 L417.9,505.8 L420.2,503.8 L422.6,501.7 L423.0,499.1 L424.9,497.6 L427.2,495.5 L429.5,493.0 L430.5,490.4 L431.9,488.3 L431.9,485.7 L434.2,483.2 L436.5,480.6 L437.9,478.5 L437.9,475.9 L438.8,472.9 L438.8,470.3 L441.2,467.7 L441.2,465.1 L441.2,462.0 L443.5,459.5 L443.5,456.4 L443.5,453.8 L443.5,451.2 L443.5,447.6 L443.5,445.5 L443.5,442.4 L443.5,437.8 L443.5,435.2 L443.5,432.1 L441.2,429.0 L441.2,426.5 L441.2,423.4 L438.8,420.8 L438.8,417.2 L438.8,414.6 L438.8,411.5 L437.9,408.9 L437.9,405.9 L437.9,403.3 L437.9,400.2 L437.9,397.6 L437.9,394.0 L437.9,391.9 L438.8,388.8 L438.8,385.8 L438.8,383.2 L438.8,380.6 L441.2,378.0 L441.2,374.9 L443.5,372.4 L443.5,369.8 L445.8,367.7 L446.3,364.6 L446.3,362.0 L448.1,360.0 L450.5,357.4 L452.8,355.3 L452.8,352.8 L455.1,350.7 L455.1,348.6 L459.8,346.1 L459.8,344.0 L462.1,341.4 L464.4,340.4 L466.7,338.3 L467.7,336.3 L469.1,334.7 L473.7,332.7 L476.0,331.1 L477.9,330.1 L480.7,328.5 L483.0,327.0 L483.5,325.5 L487.7,324.4 L490.0,323.4 L492.3,321.8 L497.0,320.8 L497.4,319.8 L501.6,319.8 L504.9,318.8 L506.3,318.2 L510.9,317.7 L513.3,317.2 L515.6,316.7 L520.2,316.7 L524.9,316.2 L528.1,316.2 L531.9,316.2 L534.2,316.2 L536.5,316.7 L541.2,317.2 L543.5,317.7 L548.1,318.2 L551.4,318.8 L552.8,319.3 L557.4,319.8 L559.8,320.8 L564.4,321.8 L566.3,322.9 L569.1,324.4 L574.7,325.5 L576.0,327.0 L580.7,328.5 L582.1,330.1 L587.7,332.7 L590.0,334.7 L594.7,336.8 L597.0,338.9 L599.3,340.9 L603.5,342.5 L606.3,345.0 L608.6,347.6 L610.9,350.2 L615.6,354.3 L617.4,357.4 L620.2,360.0 L624.9,362.6 L626.7,365.7 L629.5,368.2 L631.9,371.3 L634.2,373.4 L636.5,377.0 L641.2,382.1 L643.5,385.2 L645.8,387.8 L648.1,391.4 L650.5,394.0 L652.8,397.1 L655.6,400.2 L657.4,403.3 L659.8,405.9 L664.4,412.0 L666.7,414.6 L669.1,417.7 L671.4,421.3 L673.7,424.9 L676.0,427.5 L678.8,431.1 L680.7,436.3 L685.3,439.4 L687.7,445.0 L690.0,448.1 L692.3,451.2 L692.8,455.3 L694.7,457.9 L697.0,461.5 L700.2,465.6 L701.6,468.2 L704.0,471.8" fill="none" stroke="#17becf" stroke-width="1.7" opacity="0.85"/><circle cx="704" cy="472" r="4.5" fill="#17becf"/><rect x="28" y="68" width="13" height="13" fill="#17becf"/><text x="46" y="79" font-size="12">3</text><path d="M324.9,576.4 L324.9,576.4 L324.9,576.4 L324.9,576.4 L324.9,576.4 L324.9,576.4 L324.9,576.4 L324.9,576.4 L324.9,576.4 L324.9,576.4 L324.9,576.4 L324.9,576.4 L324.9,576.4 L324.9,576.4 L324.9,576.4 L324.9,576.4 L324.9,576.4 L324.9,576.4 L324.9,576.4 L324.9,576.4 L324.9,576.4 L324.9,576.4 L324.9,576.4 L324.9,576.4 L324.9,576.4 L324.9,576.4 L324.9,576.4 L324.9,576.4 L324.9,576.4 L324.9,576.4 L324.9,576.4 L324.9,576.4 L324.9,576.4 L324.9,576.4 L324.9,576.4 L324.9,576.4 L324.9,576.4 L324.9,576.4 L324.9,576.4 L324.9,576.4 L324.9,576.4 L324.9,576.4 L324.9,576.4 L324.9,576.4 L324.9,576.4 L324.9,576.4 L324.9,576.4 L324.9,576.4 L324.9,576.4 L324.9,576.4 L324.9,576.4 L324.9,576.4 L324.9,576.4 L324.9,576.4 L324.9,576.4 L324.9,574.9 L326.3,573.9 L327.2,571.8 L327.2,570.3 L329.5,568.7 L331.9,567.2 L331.9,565.1 L333.7,563.6 L334.2,562.5 L336.5,561.0 L338.8,559.4 L341.2,558.4 L341.2,556.9 L343.5,555.8 L345.8,554.8 L348.1,553.8 L348.6,552.7 L350.5,552.2 L352.8,551.2 L356.0,549.6 L357.4,548.6 L359.8,548.1 L363.5,547.1 L364.4,546.6 L366.7,545.5 L369.1,544.5 L370.9,544.0 L371.4,543.5 L376.0,542.4 L378.4,542.4 L380.2,541.9 L380.7,540.9 L385.3,540.4 L385.8,539.9 L387.7,538.8 L390.0,538.3 L393.3,537.8 L394.7,537.3 L397.0,536.2 L399.3,535.7 L401.6,535.2 L404.0,534.2 L406.3,533.7 L410.0,533.2 L410.9,532.6 L413.3,532.1 L415.6,531.1 L417.4,531.1 L420.2,530.1 L422.6,529.5 L423.0,529.0 L424.9,528.0 L427.2,527.5 L430.5,526.5 L431.9,525.9 L434.2,524.9 L436.5,524.4 L438.8,523.4 L441.2,522.3 L443.5,520.8 L445.8,520.3 L446.3,519.2 L448.1,518.2 L450.5,516.7 L452.8,515.1 L454.7,513.6 L457.4,511.5 L457.4,510.5 L459.8,508.9 L460.2,506.9 L460.2,505.3 L462.1,503.8 L464.4,501.7 L464.4,499.7 L466.7,498.6 L466.7,496.6 L466.7,494.5 L467.7,492.4 L467.7,490.4 L467.7,488.3 L469.1,486.8 L469.1,484.2 L469.1,482.1 L469.1,479.6 L469.1,478.0 L469.1,475.4 L467.7,473.4 L467.7,471.3 L467.7,468.7 L467.7,467.2 L466.7,464.6 L466.7,462.5 L466.7,460.5 L464.4,457.9 L462.1,456.4 L462.1,453.8 L460.2,451.7 L459.8,449.1 L459.8,446.6 L457.4,445.0 L455.1,442.4 L454.7,440.4 L452.8,438.3 L450.5,436.3 L448.1,434.2 L446.3,432.7 L443.5,430.6 L441.2,428.5 L438.8,426.5 L437.9,424.9 L434.2,422.9 L431.9,420.8 L430.5,419.3 L427.2,416.7 L424.9,415.1 L423.0,413.6 L422.6,411.5 L417.9,409.5 L417.4,407.4 L415.6,404.8 L413.3,403.8 L410.9,401.2 L410.0,399.2 L408.6,396.6 L406.3,395.0 L404.0,393.5 L404.0,390.9 L401.6,388.8 L400.7,386.3 L399.3,384.2 L399.3,382.1 L397.0,380.1 L397.0,378.0 L394.7,375.4 L394.7,372.9 L393.3,370.8 L393.3,368.7 L393.3,366.2 L392.3,363.6 L392.3,362.0 L392.3,360.0 L392.3,357.4 L392.3,355.3 L392.3,353.3 L392.3,351.2 L392.3,349.2 L392.3,347.1 L393.3,345.0 L393.3,343.0 L393.3,340.9 L394.7,339.4 L394.7,337.3 L394.7,335.2 L397.0,333.2 L397.0,331.6 L399.3,330.1 L400.7,328.5 L400.7,326.5 L401.6,324.9 L404.0,323.4 L406.3,321.8 L408.6,320.3 L408.6,319.3 L410.0,317.7 L410.9,316.7 L415.6,314.6 L417.9,313.6 L420.2,313.1 L422.6,312.1 L423.0,311.5 L427.2,311.0 L429.5,310.5 L430.5,310.5 L434.2,310.0 L436.5,310.0 L438.8,310.5 L441.2,310.5 L443.5,310.5 L446.3,311.0 L450.5,311.5 L452.8,312.6 L455.1,313.1 L457.4,314.1 L460.2,315.1 L462.1,316.2 L467.7,318.8 L471.4,319.8 L473.7,321.3 L480.7,325.5 L483.5,327.5 L485.3,329.6 L490.0,331.1 L492.8,333.2 L497.0,336.8 L497.4,338.9 L501.6,340.4 L504.0,343.0 L506.3,345.0 L508.6,347.1" fill="none" stroke="#2ca02c" stroke-width="1.7" opacity="0.85"/><circle cx="509" cy="347" r="4.5" fill="#2ca02c"/><rect x="28" y="88" width="13" height="13" fill="#2ca02c"/><text x="46" y="99" font-size="12">6</text><path d="M324.9,576.4 L324.9,576.4 L324.9,576.4 L324.9,576.4 L324.9,576.4 L324.9,576.4 L324.9,576.4 L324.9,576.4 L324.9,576.4 L324.9,576.4 L324.9,576.4 L324.9,576.4 L324.9,576.4 L324.9,576.4 L324.9,576.4 L324.9,576.4 L324.9,576.4 L324.9,576.4 L324.9,576.4 L324.9,576.4 L324.9,576.4 L324.9,576.4 L324.9,576.4 L324.9,576.4 L324.9,576.4 L324.9,576.4 L324.9,576.4 L324.9,576.4 L324.9,576.4 L324.9,576.4 L324.9,576.4 L324.9,576.4 L324.9,576.4 L324.9,576.4 L324.9,576.4 L324.9,576.4 L324.9,576.4 L324.9,576.4 L324.9,576.4 L324.9,576.4 L324.9,576.4 L324.9,576.4 L324.9,576.4 L324.9,576.4 L324.9,576.4 L324.9,576.4 L324.9,576.4 L324.9,576.4 L324.9,576.4 L324.9,576.4 L324.9,576.4 L324.9,576.4 L324.9,576.4 L324.9,576.4 L324.9,576.4 L324.9,575.9 L324.9,574.9 L326.3,573.9 L326.3,573.4 L327.2,572.3 L327.2,571.3 L329.5,570.3 L329.5,569.2 L331.9,568.7 L333.7,567.7 L334.2,566.7 L334.2,566.1 L336.5,565.6 L338.8,565.1 L341.2,564.6 L341.2,564.1 L341.2,563.6 L343.5,563.6 L345.8,563.6 L348.1,563.0 L348.6,563.0 L350.5,562.5 L352.8,562.5 L355.1,562.5 L356.0,562.0 L357.4,562.0 L359.8,562.0 L362.1,561.5 L363.5,561.5 L363.5,561.5 L366.7,561.5 L366.7,561.0 L370.9,561.0 L370.9,561.0 L371.4,561.0 L373.7,560.5 L376.0,560.5 L378.4,560.5 L380.2,560.5 L380.7,560.0 L383.0,560.0 L385.3,560.0 L385.8,560.0 L387.7,559.4 L390.0,559.4 L392.3,559.4 L393.3,558.9 L394.7,558.9 L397.0,558.9 L399.3,558.4 L400.7,558.4 L401.6,557.9 L404.0,557.9 L406.3,557.4 L406.3,556.9 L408.6,556.9 L410.0,556.3 L410.9,555.8 L413.3,555.8 L415.6,555.3 L417.4,554.8 L417.9,554.3 L417.9,553.8 L420.2,553.3 L422.6,552.7 L423.0,552.7 L423.0,552.2 L427.2,551.2 L427.2,550.7 L429.5,549.6 L430.5,549.1 L431.9,548.6 L431.9,548.1 L434.2,547.1 L436.5,546.6 L436.5,545.5 L437.9,545.0 L438.8,544.5 L438.8,543.5 L441.2,542.9 L441.2,542.4 L443.5,541.4 L445.8,540.4 L445.8,539.9 L446.3,538.8 L446.3,537.8 L448.1,536.8 L448.1,535.7 L450.5,534.7 L450.5,534.2 L452.8,532.6 L452.8,532.1 L454.7,531.1 L454.7,530.6 L455.1,529.5 L455.1,528.0 L455.1,527.0 L457.4,525.9 L457.4,524.9 L459.8,523.9 L459.8,522.8 L460.2,521.8 L460.2,520.8 L460.2,519.8 L460.2,518.7 L462.1,517.2 L462.1,516.1 L462.1,514.6 L462.1,513.6 L462.1,512.0 L462.1,510.5 L462.1,509.4 L462.1,507.9 L462.1,506.4 L462.1,504.8 L460.2,503.3 L460.2,501.7 L460.2,500.2 L459.8,499.1 L459.8,497.6 L457.4,495.5 L457.4,494.0 L455.1,492.4 L454.7,490.9 L452.8,488.8 L452.8,487.8 L450.5,486.3 L448.1,484.7 L446.3,483.2 L445.8,481.6 L443.5,480.1 L441.2,478.5 L438.8,477.5 L436.5,475.9 L434.2,474.4 L431.9,472.9 L429.5,471.3 L427.2,470.3 L424.9,468.7 L422.6,468.2 L420.2,466.7 L417.4,465.6 L413.3,464.1 L410.9,463.1 L408.6,462.5 L404.0,461.0 L401.6,460.5 L399.3,459.5 L393.3,458.4 L392.3,457.9 L387.7,456.9 L385.3,456.9 L380.2,456.4 L376.0,455.8 L371.4,455.3 L369.1,455.3 L364.4,454.8 L362.1,454.8 L357.4,454.8 L352.8,454.8 L348.6,454.8 L343.5,454.8 L341.2,455.3 L336.5,455.8 L331.9,455.8 L327.2,456.4 L322.6,456.9 L318.8,457.4 L313.3,457.9 L310.9,458.9 L304.0,460.0 L299.3,461.0 L296.5,462.5 L290.0,463.6 L285.3,465.1 L280.7,467.2 L269.1,470.3 L264.4,471.8 L259.3,473.9 L255.1,475.4 L250.5,477.5 L244.4,479.0 L241.2,480.6 L236.5,482.6 L231.9,484.2 L217.9,488.8 L214.7,490.4 L208.6,492.4 L206.3,494.0 L199.3,496.0 L194.7,498.1 L190.0,499.1 L185.3,500.7 L180.7,502.2 L171.4,504.8 L166.7,506.9 L161.6,508.4 L157.4,510.0 L152.8,511.0 L147.7,512.0 L143.5,513.6 L138.8,515.1 L131.9,516.7 L129.5,517.7 L117.9,520.8" fill="none" stroke="#bcbd22" stroke-width="1.7" opacity="0.85"/><circle cx="118" cy="521" r="4.5" fill="#bcbd22"/><rect x="28" y="108" width="13" height="13" fill="#bcbd22"/><text x="46" y="119" font-size="12">9</text><path d="M324.9,576.4 L324.9,576.4 L324.9,576.4 L324.9,576.4 L324.9,576.4 L324.9,576.4 L324.9,576.4 L324.9,576.4 L324.9,576.4 L324.9,576.4 L324.9,576.4 L324.9,576.4 L324.9,576.4 L324.9,576.4 L324.9,576.4 L324.9,576.4 L324.9,576.4 L324.9,576.4 L324.9,576.4 L324.9,576.4 L324.9,576.4 L324.9,576.4 L324.9,576.4 L324.9,576.4 L324.9,576.4 L324.9,576.4 L324.9,576.4 L324.9,576.4 L324.9,576.4 L324.9,576.4 L324.9,576.4 L324.9,576.4 L324.9,576.4 L324.9,576.4 L324.9,576.4 L324.9,576.4 L324.9,576.4 L324.9,576.4 L324.9,576.4 L324.9,576.4 L324.9,576.4 L324.9,576.4 L324.9,576.4 L324.9,576.4 L324.9,576.4 L324.9,576.4 L324.9,576.4 L324.9,576.4 L324.9,576.4 L324.9,576.4 L324.9,576.4 L324.9,576.4 L324.9,576.4 L324.9,576.4 L324.9,576.4 L324.9,575.9 L324.9,575.9 L324.9,575.4 L326.3,574.9 L326.3,574.4 L326.3,573.9 L326.3,573.9 L327.2,573.9 L327.2,573.9 L327.2,573.4 L329.5,573.4 L329.5,572.8 L329.5,572.8 L331.9,572.8 L331.9,572.3 L333.7,572.3 L333.7,572.3 L333.7,572.3 L334.2,572.3 L334.2,572.3 L336.5,572.3 L336.5,572.3 L338.8,571.8 L338.8,571.8 L341.2,571.8 L341.2,572.3 L341.2,572.3 L341.2,572.3 L343.5,572.3 L345.8,572.3 L345.8,572.3 L348.1,572.3 L348.6,572.3 L348.6,572.3 L348.6,572.3 L350.5,572.8 L352.8,572.8 L352.8,572.8 L355.1,572.8 L355.1,572.8 L356.0,572.8 L356.0,572.8" fill="none" stroke="#ff7f0e" stroke-width="1.7" opacity="0.85"/><circle cx="356" cy="573" r="4.5" fill="#ff7f0e"/><rect x="28" y="128" width="13" height="13" fill="#ff7f0e"/><text x="46" y="139" font-size="12">12 m/s</text><text x="28" y="832" font-size="11" fill="#888">ground track — m from pad (N up)</text></svg>