<svg xmlns="http://www.w3.org/2000/svg" width="840" height="860" font-family="sans-serif" font-size="13"><rect width="840" height="860" fill="white"/><text x="20" y="26" font-size="15" fill="#333">Coludo flight</text><rect x="20" y="40" width="800" height="800" fill="#fbfbfb" stroke="#ddd"/><rect x="50" y="439" width="188" height="40" fill="#cde" stroke="#369" opacity="0.7"/><text x="50" y="434" fill="#369" font-size="12">landing zone</text><circle cx="169" cy="502" r="5" fill="black"/><text x="177" y="506" font-size="12">pad</text><path d="M169.3,502.1 L169.3,502.1 L169.3,502.1 L169.3,502.1 L169.3,502.1 L169.3,502.1 L169.3,502.1 L169.3,502.1 L169.3,502.1 L169.3,502.1 L169.3,502.1 L169.3,502.1 L169.3,502.1 L169.3,502.1 L169.3,502.1 L169.3,502.1 L169.3,502.1 L169.3,502.1 L169.3,502.1 L169.3,502.1 L169.3,502.1 L169.3,502.1 L169.3,502.1 L169.3,502.1 L169.3,502.1 L169.3,502.1 L169.3,502.1 L169.3,502.1 L169.3,502.1 L169.3,502.1 L169.3,502.1 L169.3,502.1 L169.3,502.1 L169.3,502.1 L169.3,502.1 L169.3,502.1 L169.3,502.1 L169.3,502.1 L169.3,502.1 L169.3,502.1 L169.3,502.1 L169.3,502.1 L169.3,502.1 L169.3,502.1 L169.3,502.1 L169.3,502.1 L169.3,502.1 L169.3,502.1 L169.3,502.1 L169.3,502.1 L169.3,502.1 L169.3,502.1 L169.3,502.1 L169.3,502.1 L169.3,502.1 L169.9,501.0 L170.3,499.7 L171.3,498.3 L172.3,497.0 L173.1,495.9 L173.3,494.5 L175.4,493.2 L176.4,492.1 L176.4,490.9 L178.4,489.6 L179.4,488.5 L179.6,487.4 L181.4,486.5 L182.4,485.3 L183.4,484.2 L184.4,483.3 L186.1,482.4 L186.5,481.3 L188.5,480.4 L189.3,479.5 L190.5,478.6 L192.5,477.7 L193.3,477.1 L194.5,476.0 L195.5,475.1 L196.5,473.9 L197.6,473.3 L199.0,472.2 L199.6,471.0 L201.6,469.9 L202.6,468.6 L203.6,467.9 L204.6,466.6 L206.2,465.4 L206.6,464.1 L207.6,463.0 L208.7,461.6 L209.5,460.5 L210.7,459.2 L211.7,457.8 L211.9,456.3 L211.9,455.2 L212.7,453.8 L213.7,452.5 L214.7,451.1 L215.1,449.6 L215.1,448.2 L215.7,446.7 L216.7,445.1 L216.7,443.5 L217.7,442.0 L217.7,440.4 L218.3,439.0 L218.3,437.3 L218.3,436.1 L218.8,434.4 L218.8,432.8 L218.8,431.4 L219.8,429.9 L219.8,428.1 L220.8,427.0 L220.8,425.2 L221.8,423.8 L221.8,422.3 L222.0,420.9 L222.8,419.6 L222.8,418.2 L223.8,416.0 L224.8,414.4 L225.6,413.3 L225.8,411.8 L226.8,410.4 L227.8,409.1 L228.0,408.0 L229.9,406.4 L230.9,405.3 L231.3,404.2 L231.9,403.0 L233.9,401.7 L234.9,400.6 L235.7,399.5 L236.9,398.6 L237.9,397.2 L238.9,396.3 L239.9,395.2 L242.2,394.5 L243.0,393.4 L244.0,392.5 L245.0,391.9 L246.0,390.7 L247.4,390.3 L249.0,389.4 L251.0,388.7 L251.5,388.1 L253.1,387.4 L254.3,386.7 L256.1,386.0 L257.5,385.8 L259.1,385.4 L260.3,384.7 L262.1,384.5 L263.6,384.0 L264.2,383.6 L267.2,383.4 L267.6,383.1 L270.2,382.9 L272.2,382.7 L274.1,382.5 L275.3,382.5 L277.7,382.5 L278.3,382.5 L280.3,382.7 L281.3,382.7 L283.3,382.9 L284.4,383.1 L286.4,383.6 L287.4,383.8 L289.4,384.0 L290.4,384.5 L292.4,384.9 L293.4,385.4 L295.5,385.8 L296.3,386.3 L297.5,386.7 L299.5,387.4 L300.5,388.1 L302.5,388.9 L303.5,389.6 L305.5,390.5 L306.4,391.0 L307.6,391.9 L309.6,392.8 L309.6,393.9 L311.6,394.8 L312.8,395.7 L313.6,396.6 L315.6,397.7 L316.4,398.8 L316.7,399.7 L318.7,400.8 L318.9,402.1 L319.7,403.3 L321.7,404.4 L322.9,405.5 L322.7,406.8 L324.7,409.1 L325.7,410.6 L325.7,412.0 L326.7,413.6 L327.8,414.9 L328.8,416.2 L329.0,417.8 L329.8,418.9 L330.8,420.5 L332.2,422.7 L332.8,424.3 L333.8,425.6 L334.8,427.2 L335.0,428.3 L335.8,429.7 L336.8,431.0 L337.8,432.1 L338.9,433.5 L340.9,435.7 L341.9,437.0 L342.7,438.2 L343.9,439.5 L344.9,440.8 L345.1,441.7 L346.9,443.1 L347.9,444.0 L348.9,445.3 L351.0,447.3 L352.0,448.7 L353.0,449.6 L355.0,450.7 L355.6,451.8 L359.0,455.2 L360.0,456.0 L363.1,458.3 L364.9,459.2 L365.1,459.9 L367.1,461.0 L368.1,461.9 L369.1,462.8 L371.2,463.7 L372.2,464.3" fill="none" stroke="#1f77b4" stroke-width="1.7" opacity="0.85"/><circle cx="372" cy="464" r="4.5" fill="#1f77b4"/><rect x="28" y="48" width="13" height="13" fill="#1f77b4"/><text x="46" y="59" font-size="12">5%</text><path d="M169.3,502.1 L169.3,502.1 L169.3,502.1 L169.3,502.1 L169.3,502.1 L169.3,502.1 L169.3,502.1 L169.3,502.1 L169.3,502.1 L169.3,502.1 L169.3,502.1 L169.3,502.1 L169.3,502.1 L169.3,502.1 L169.3,502.1 L169.3,502.1 L169.3,502.1 L169.3,502.1 L169.3,502.1 L169.3,502.1 L169.3,502.1 L169.3,502.1 L169.3,502.1 L169.3,502.1 L169.3,502.1 L169.3,502.1 L169.3,502.1 L169.3,502.1 L169.3,502.1 L169.3,502.1 L169.3,502.1 L169.3,502.1 L169.3,502.1 L169.3,502.1 L169.3,502.1 L169.3,502.1 L169.3,502.1 L169.3,502.1 L169.3,502.1 L169.3,502.1 L169.3,502.1 L169.3,502.1 L169.3,502.1 L169.3,502.1 L169.3,502.1 L169.3,502.1 L169.3,502.1 L169.3,502.1 L169.3,502.1 L169.3,502.1 L169.3,502.1 L169.3,502.1 L169.3,502.1 L169.3,502.1 L169.3,502.1 L169.3,501.7 L169.9,500.3 L170.3,499.0 L172.3,497.7 L173.1,496.5 L173.3,495.4 L174.3,493.8 L175.4,492.7 L176.4,491.6 L177.4,490.3 L178.4,489.2 L179.4,488.0 L180.4,486.9 L181.4,486.0 L182.8,484.7 L183.4,483.8 L185.4,482.7 L186.1,481.8 L187.5,480.7 L188.5,479.8 L189.5,478.9 L190.5,478.0 L192.5,477.1 L193.5,476.2 L194.5,475.3 L195.7,474.2 L196.5,473.0 L198.6,472.2 L199.0,470.8 L200.6,469.5 L201.6,468.6 L202.2,467.5 L203.6,466.1 L204.6,464.8 L205.6,463.9 L206.2,462.3 L206.6,461.2 L207.6,459.6 L208.7,458.5 L209.5,456.9 L209.7,455.4 L210.7,454.3 L211.7,452.7 L211.9,451.4 L211.9,449.8 L212.7,448.4 L213.7,446.9 L213.7,445.5 L213.7,444.2 L214.7,442.4 L214.7,441.3 L215.1,439.5 L215.1,437.9 L215.1,436.4 L215.1,434.8 L215.7,433.2 L215.7,431.7 L215.7,430.3 L215.7,428.8 L216.7,427.2 L216.7,425.9 L217.7,424.1 L217.7,422.7 L218.3,421.2 L218.8,419.6 L218.8,418.2 L219.8,416.7 L220.8,414.7 L221.8,413.6 L222.0,412.0 L222.8,410.6 L223.8,409.1 L224.8,408.0 L225.6,406.4 L225.8,405.3 L226.8,404.2 L227.8,402.8 L228.0,401.7 L229.9,400.4 L230.9,399.5 L231.9,398.1 L232.9,397.0 L233.9,395.9 L235.7,395.2 L235.9,393.9 L237.9,393.0 L238.9,391.9 L239.9,391.2 L242.2,390.3 L242.0,389.6 L244.0,388.5 L245.0,387.8 L247.0,387.2 L248.0,386.5 L249.0,385.8 L251.0,385.4 L252.1,384.7 L254.1,384.0 L255.1,383.6 L257.1,383.1 L257.5,382.7 L260.1,382.2 L260.3,381.8 L262.1,381.3 L263.6,381.3 L265.2,381.1 L267.2,380.9 L268.2,380.7 L270.2,380.4 L271.2,380.4 L273.3,380.2 L274.3,380.2 L276.3,380.2 L277.3,380.4 L279.3,380.4 L280.9,380.7 L282.3,380.9 L284.2,381.1 L285.4,381.3 L287.0,381.6 L288.4,381.8 L290.2,382.2 L291.4,382.7 L293.4,383.1 L294.4,383.8 L296.5,384.3 L297.5,384.9 L298.5,385.6 L300.3,386.0 L301.5,386.7 L302.7,387.6 L303.5,388.3 L305.5,389.4 L306.6,390.1 L308.6,391.0 L309.6,391.9 L310.6,392.8 L311.6,393.9 L312.8,394.8 L313.6,395.7 L314.6,396.8 L316.4,397.9 L316.7,399.0 L318.7,400.1 L318.9,401.5 L319.7,402.6 L321.7,404.2 L322.9,405.1 L322.7,406.6 L323.7,407.7 L324.7,409.1 L325.7,410.4 L325.7,412.0 L326.7,413.1 L327.8,414.4 L328.8,415.8 L329.8,418.5 L330.8,419.8 L331.8,421.2 L332.2,422.5 L332.8,423.8 L333.8,425.2 L334.8,426.5 L335.0,427.9 L335.8,429.0 L338.2,431.7 L338.9,432.6 L339.9,433.9 L340.9,435.2 L341.9,436.4 L342.7,437.5 L343.9,438.8 L344.9,440.2 L345.1,441.3 L347.9,443.7 L348.3,444.9 L350.0,446.0 L351.0,447.1 L351.6,448.2 L354.0,450.7 L355.6,451.8 L357.0,453.1 L358.8,455.2 L360.0,456.3 L361.1,457.4 L362.1,458.5 L363.1,459.4 L364.9,460.3 L365.1,461.4" fill="none" stroke="#17becf" stroke-width="1.7" opacity="0.85"/><circle cx="365" cy="461" r="4.5" fill="#17becf"/><rect x="28" y="68" width="13" height="13" fill="#17becf"/><text x="46" y="79" font-size="12">10%</text><path d="M169.3,502.1 L169.3,502.1 L169.3,502.1 L169.3,502.1 L169.3,502.1 L169.3,502.1 L169.3,502.1 L169.3,502.1 L169.3,502.1 L169.3,502.1 L169.3,502.1 L169.3,502.1 L169.3,502.1 L169.3,502.1 L169.3,502.1 L169.3,502.1 L169.3,502.1 L169.3,502.1 L169.3,502.1 L169.3,502.1 L169.3,502.1 L169.3,502.1 L169.3,502.1 L169.3,502.1 L169.3,502.1 L169.3,502.1 L169.3,502.1 L169.3,502.1 L169.3,502.1 L169.3,502.1 L169.3,502.1 L169.3,502.1 L169.3,502.1 L169.3,502.1 L169.3,502.1 L169.3,502.1 L169.3,502.1 L169.3,502.1 L169.3,502.1 L169.3,502.1 L169.3,502.1 L169.3,502.1 L169.3,502.1 L169.3,502.1 L169.3,502.1 L169.3,502.1 L169.3,502.1 L169.3,502.1 L169.3,502.1 L169.3,502.1 L169.3,502.1 L169.3,502.1 L169.3,502.1 L169.3,502.1 L169.3,502.1 L169.9,501.0 L170.3,500.1 L171.3,498.5 L172.3,497.2 L173.1,496.1 L173.3,494.5 L174.3,493.4 L176.4,492.1 L176.4,490.9 L177.4,489.6 L178.4,488.5 L179.4,487.4 L180.4,486.2 L181.4,485.3 L182.8,484.0 L183.4,482.9 L185.4,482.0 L186.1,480.9 L187.5,479.8 L188.5,478.9 L189.3,478.0 L190.5,476.8 L191.5,476.0 L193.3,474.8 L193.5,473.7 L195.5,472.8 L195.7,471.7 L197.6,470.4 L198.6,469.2 L199.0,467.9 L200.6,466.8 L201.6,465.2 L202.2,464.1 L202.6,462.8 L203.6,461.6 L204.6,460.1 L205.6,459.0 L206.2,457.4 L206.6,456.0 L207.6,454.9 L208.7,453.4 L208.7,452.0 L209.5,450.5 L209.7,449.1 L209.7,447.5 L210.7,446.0 L210.7,444.6 L211.7,443.1 L211.7,441.3 L211.7,439.9 L211.9,438.4 L211.9,436.6 L211.9,435.5 L211.9,433.7 L212.7,432.1 L212.7,430.6 L212.7,429.2 L213.7,427.4 L213.7,426.3 L213.7,424.5 L214.7,423.2 L214.7,421.6 L215.1,420.3 L215.7,418.5 L215.7,417.1 L216.7,415.8 L217.7,414.0 L218.3,412.2 L218.8,410.9 L219.8,409.3 L220.8,408.2 L221.8,406.6 L222.0,405.5 L222.8,404.2 L223.8,403.0 L224.8,401.9 L225.8,400.4 L226.8,399.5 L227.8,398.1 L228.8,397.2 L229.9,395.9 L230.9,395.0 L231.9,393.9 L232.9,393.0 L234.9,391.9 L235.9,390.7 L236.9,390.1 L238.1,389.2 L239.9,388.1 L241.0,387.4 L242.0,386.7 L244.0,385.8 L244.2,385.1 L246.0,384.5 L247.4,383.8 L249.0,383.1 L251.0,382.5 L252.1,382.0 L253.1,381.3 L254.3,381.1 L256.1,380.7 L257.5,380.0 L259.1,379.8 L260.3,379.3 L262.1,378.9 L263.6,378.7 L265.2,378.4 L267.2,378.2 L268.2,378.0 L270.2,378.0 L271.2,377.8 L273.3,377.8 L274.3,377.8 L276.3,377.8 L277.3,377.8 L279.3,378.0 L280.9,378.2 L282.3,378.2 L284.2,378.7 L285.4,378.9 L287.0,379.1 L288.4,379.6 L289.4,380.0 L290.4,380.4 L292.4,380.9 L293.4,381.3 L295.5,381.8 L296.3,382.2 L298.5,382.9 L300.3,383.6 L300.5,384.3 L302.5,385.1 L303.5,385.8 L305.5,386.5 L306.4,387.2 L307.6,388.3 L309.6,388.9 L309.6,390.1 L311.6,390.7 L312.8,391.9 L313.6,392.8 L315.6,393.9 L316.4,395.0 L317.7,395.9 L318.7,397.0 L318.9,398.1 L320.7,399.2 L321.7,400.4 L322.9,401.7 L323.7,403.0 L324.7,404.2 L325.7,405.5 L325.7,406.6 L326.7,408.2 L327.8,409.3 L328.8,410.9 L329.8,413.6 L329.8,414.9 L330.8,416.2 L331.8,417.8 L332.2,418.9 L332.2,420.7 L332.8,422.1 L333.8,423.4 L333.8,425.0 L334.8,426.5 L335.0,427.6 L335.0,429.4 L335.8,431.0 L336.8,432.3 L336.8,433.9 L337.8,435.2 L338.2,436.8 L338.2,438.2 L338.9,439.9 L339.9,442.4 L340.9,444.2 L340.9,445.8 L341.9,446.9 L342.7,448.7 L342.7,450.0 L342.9,451.6 L343.9,453.1 L343.9,454.5 L345.1,458.3 L345.9,459.6 L346.9,461.2 L347.9,462.5 L348.3,464.1 L348.3,465.2 L348.9,466.8 L350.0,468.1 L351.0,469.5 L353.0,472.8 L354.0,474.2 L355.6,475.3 L356.0,476.6 L357.0,477.7 L358.8,478.9 L359.0,480.2 L360.0,481.3 L361.7,482.4 L362.1,483.3 L364.9,485.3 L365.1,486.2 L367.1,487.4 L368.1,488.0 L369.1,488.9 L371.2,489.6 L372.2,490.7 L374.2,491.4 L375.0,491.8 L378.2,493.8 L380.2,494.3 L381.2,495.0 L383.3,495.4 L384.7,495.9 L386.3,496.1 L387.9,496.5 L389.3,496.5 L391.1,496.8 L394.4,497.2 L396.4,497.2 L397.4,497.2 L399.4,497.2 L400.8,497.2 L402.4,497.0 L404.1,497.0 L405.5,496.8 L407.3,496.5 L411.5,495.9 L413.5,495.4 L414.5,495.2 L416.6,494.5 L417.0,494.3 L419.6,493.6 L420.2,493.2 L421.6,492.5 L423.4,492.1 L426.7,490.5 L428.7,489.8 L429.9,489.2 L431.7,488.3 L432.7,487.6 L433.7,486.9 L435.7,486.0 L436.8,485.3 L437.8,484.2 L441.8,482.2 L442.8,481.3 L443.8,480.4 L445.8,479.5 L446.8,478.6 L447.9,478.0 L449.3,477.1 L450.9,476.2 L451.9,475.1 L455.7,472.8 L455.9,471.9 L457.9,471.0 L459.0,470.1 L460.0,469.0 L462.0,468.3 L463.0,467.5 L465.0,466.6 L465.4,465.7 L469.1,463.4 L471.1,462.5 L471.9,461.9 L473.1,461.0 L475.1,460.3 L476.1,459.6 L477.1,459.0 L478.3,458.3 L480.2,457.6 L481.6,456.9 L484.2,455.8 L485.2,455.4 L487.2,454.9 L488.8,454.5 L490.2,453.8 L492.1,453.4 L493.3,452.9 L494.5,452.5 L496.3,452.2 L500.3,451.4 L501.3,451.1 L503.4,450.9 L504.6,450.5 L506.4,450.5 L508.2,450.2 L509.4,450.2 L510.6,450.0 L512.4,450.0 L516.5,449.8 L518.5,449.8 L520.5,449.8 L521.5,449.8 L523.6,450.0 L524.6,450.0 L526.6,450.2 L527.6,450.2 L529.6,450.5 L533.6,451.4 L534.7,451.6 L536.7,452.0 L537.7,452.5 L539.7,452.9 L540.7,453.4 L542.7,453.8 L543.7,454.3 L545.8,454.7 L549.8,455.8 L550.8,456.3 L552.8,456.7 L553.8,457.2 L555.8,457.4 L556.9,457.8 L558.9,458.3 L559.9,458.7 L561.9,459.2 L562.9,459.6 L565.9,460.1 L567.0,460.5 L569.0,461.0 L570.0,461.2 L572.0,461.4 L573.0,461.9 L575.0,462.1 L576.0,462.3 L578.1,462.8 L582.1,463.4 L583.1,463.7 L585.3,463.9 L586.1,464.1 L589.0,464.1 L589.2,464.3 L592.2,464.3 L592.2,464.5 L595.2,464.5 L599.0,464.8 L600.3,465.0 L601.5,465.0 L603.3,465.0 L605.5,465.2 L606.3,465.2 L608.3,465.2 L609.3,465.2 L611.4,465.2 L615.4,465.0 L617.4,465.0 L618.4,464.8 L620.4,464.8 L621.5,464.5 L623.5,464.5 L625.3,464.5 L626.5,464.3 L627.7,464.1 L631.5,464.1 L634.2,463.9 L635.6,463.7 L637.6,463.7 L638.6,463.4 L640.6,463.2 L641.6,462.8 L643.7,462.5 L644.7,462.3 L648.7,461.6 L650.3,461.4 L651.7,461.2 L653.7,460.7 L654.8,460.5 L656.8,460.3 L657.8,460.1 L659.8,459.9 L660.8,459.6 L665.9,459.4 L667.3,459.2 L668.9,459.2 L670.5,459.0 L671.9,459.0 L673.7,458.7 L676.2,458.7 L678.0,458.5 L683.0,458.5 L684.0,458.7 L686.0,458.7 L687.1,458.7 L689.1,458.7 L690.1,458.7 L692.3,459.0" fill="none" stroke="#bcbd22" stroke-width="1.7" opacity="0.85"/><circle cx="692" cy="459" r="4.5" fill="#bcbd22"/><rect x="28" y="108" width="13" height="13" fill="#bcbd22"/><text x="46" y="119" font-size="12">50%</text><path d="M169.3,502.1 L169.3,502.1 L169.3,502.1 L169.3,502.1 L169.3,502.1 L169.3,502.1 L169.3,502.1 L169.3,502.1 L169.3,502.1 L169.3,502.1 L169.3,502.1 L169.3,502.1 L169.3,502.1 L169.3,502.1 L169.3,502.1 L169.3,502.1 L169.3,502.1 L169.3,502.1 L169.3,502.1 L169.3,502.1 L169.3,502.1 L169.3,502.1 L169.3,502.1 L169.3,502.1 L169.3,502.1 L169.3,502.1 L169.3,502.1 L169.3,502.1 L169.3,502.1 L169.3,502.1 L169.3,502.1 L169.3,502.1 L169.3,502.1 L169.3,502.1 L169.3,502.1 L169.3,502.1 L169.3,502.1 L169.3,502.1 L169.3,502.1 L169.3,502.1 L169.3,502.1 L169.3,502.1 L169.3,502.1 L169.3,502.1 L169.3,502.1 L169.3,502.1 L169.3,502.1 L169.3,502.1 L169.3,502.1 L169.3,502.1 L169.3,502.1 L169.3,502.1 L169.3,502.1 L169.3,502.1 L169.3,502.1 L169.3,502.1 L169.3,502.1 L169.3,502.1 L169.3,502.1 L169.3,502.1 L169.9,501.0 L170.3,499.4 L171.3,498.3 L172.3,496.8 L173.1,495.9 L173.3,494.5 L174.3,493.0 L175.4,491.8 L176.4,490.5 L177.4,489.2 L178.4,488.0 L179.4,486.7 L179.6,485.6 L181.4,484.2 L182.4,482.4 L182.8,481.5 L184.4,480.2 L185.4,478.9 L186.1,478.0 L187.5,476.6 L188.5,475.5 L189.3,474.2 L190.5,473.3 L191.5,471.5 L193.3,470.1 L193.5,469.0 L195.5,467.9 L195.7,466.8 L196.5,465.7 L198.6,464.3 L199.0,463.7 L200.6,462.3 L202.2,460.7 L202.6,459.9 L204.6,459.0 L206.2,458.1 L206.6,456.9 L208.7,456.0 L209.7,455.2 L210.7,454.5 L211.9,453.6 L214.7,452.5 L215.7,451.6 L216.7,451.1 L218.3,450.2 L219.8,450.0 L221.8,449.1 L222.8,448.7 L224.8,448.0 L225.6,447.5 L226.8,447.1 L228.0,446.7 L229.9,446.4 L231.3,446.0 L232.9,445.8 L234.9,445.5 L235.9,445.3 L237.9,445.1 L238.9,444.9 L241.0,444.9 L242.0,444.6 L244.0,444.4 L246.0,444.4 L247.4,444.2 L249.0,444.2 L251.0,444.2 L252.1,444.2 L254.1,444.2 L255.1,444.2 L257.5,444.2 L259.1,444.4 L260.3,444.4 L262.1,444.6 L263.6,444.6 L265.2,444.9 L267.2,445.1 L268.2,445.3 L270.2,445.5 L271.2,445.8 L273.3,445.8 L274.3,446.0 L276.3,446.4 L277.3,446.7 L279.3,447.1 L280.9,447.5 L282.3,448.0 L284.2,448.4 L285.4,448.9 L287.0,449.3 L287.4,449.8 L289.4,450.2 L290.4,450.7 L292.4,451.4 L293.4,451.8 L295.5,452.5 L296.3,453.1 L298.5,453.8 L299.5,454.3 L300.5,455.2 L302.5,455.6 L303.5,456.3 L304.5,456.9 L306.4,457.8 L307.6,458.5 L309.6,459.4 L309.6,460.1 L311.6,461.0 L312.8,461.6 L314.6,462.8 L315.6,463.4 L316.7,464.1 L317.7,465.2 L318.9,465.9 L320.7,467.0 L321.7,467.9 L322.7,468.6 L324.7,469.5 L325.7,470.4 L326.7,471.3 L328.8,472.2 L329.0,473.0 L330.8,473.7 L332.2,474.6 L332.8,475.5 L334.8,476.4 L335.8,477.3 L337.8,478.2 L338.2,478.9 L340.9,480.4 L342.7,481.3 L343.9,482.0 L345.1,482.7 L345.9,483.3 L347.9,484.2 L348.9,484.9 L351.0,485.6 L352.0,486.2 L354.0,486.9 L355.0,487.4 L356.0,488.0 L358.0,488.7 L359.0,489.4 L361.1,489.8 L362.1,490.7 L364.1,491.4 L364.9,491.8 L366.1,492.3 L367.7,493.0 L369.1,493.4 L371.2,494.1 L371.8,494.5 L374.2,495.2 L375.0,495.6 L376.2,496.1 L377.0,496.5 L379.2,496.8 L381.0,497.2 L382.3,497.7 L384.3,497.9 L385.3,498.3 L387.3,498.5 L388.3,499.0 L390.3,499.2 L391.3,499.7 L393.4,499.9 L394.4,500.1 L396.4,500.3 L397.4,500.6 L399.4,500.8 L400.8,501.0 L402.4,501.0 L404.1,501.0 L405.5,501.2 L407.3,501.2 L408.5,501.5 L409.7,501.5 L411.5,501.7 L414.5,501.7 L416.6,501.9 L417.6,501.9 L419.6,501.9 L420.6,501.9 L422.6,502.1 L423.6,502.1 L426.7,502.1 L428.7,502.1 L430.7,502.1 L432.7,501.9 L434.7,501.9 L435.7,501.7 L437.8,501.7 L438.8,501.5 L440.8,501.2 L441.8,501.0 L443.8,501.0 L447.9,500.1 L449.3,499.7 L450.9,499.2 L452.5,498.8 L453.9,498.3 L454.9,497.9 L456.9,497.2 L459.0,496.8 L459.0,496.3 L463.0,494.7 L465.0,494.1 L466.0,493.2 L468.0,492.7 L469.1,491.8 L470.1,491.4 L471.9,490.5 L473.1,489.8 L475.1,488.9 L478.1,487.1 L479.1,486.2 L481.2,485.6 L482.2,484.7 L484.2,484.0 L484.8,483.1 L486.2,482.4 L488.2,481.8 L489.2,481.1 L492.3,478.9 L494.3,478.2 L495.3,477.5 L497.3,476.8 L497.7,476.2 L499.3,475.3 L500.9,474.6 L502.4,473.9 L504.4,473.5 L507.4,471.3 L508.4,470.4 L510.4,469.7 L511.4,468.8 L513.5,468.3 L513.9,467.7 L515.5,466.8 L517.5,466.1 L518.5,465.2 L521.5,463.4 L523.6,462.5 L524.6,461.9 L526.6,461.0 L527.6,460.3 L528.6,459.6 L530.0,459.0 L531.6,458.3 L533.6,457.4 L536.9,455.8 L538.7,455.2 L540.1,454.5 L540.7,454.0 L542.7,453.4 L543.7,452.9 L545.8,452.5 L546.8,452.0 L548.8,451.6 L552.8,450.5 L553.8,450.2 L555.8,450.0 L556.9,449.8 L558.9,449.6 L559.9,449.3 L561.9,449.1 L563.5,448.9 L564.9,448.7 L569.6,448.2 L571.0,448.2 L572.8,448.2 L574.0,448.2 L576.0,448.0 L577.0,448.2 L579.1,448.2 L580.1,448.2 L582.1,448.2 L585.3,448.7 L587.1,448.9 L589.2,449.1 L590.2,449.6 L592.2,449.8 L593.2,450.0 L595.2,450.2 L596.2,450.7 L598.2,451.1 L602.3,452.2 L603.3,452.7 L605.5,453.1 L606.3,453.6 L608.3,454.3 L609.3,454.7 L611.4,455.2 L612.4,455.4 L614.4,455.8 L617.6,456.9 L619.4,457.6 L620.8,458.1 L622.5,458.7 L624.5,459.2 L625.5,459.6 L627.5,460.3 L628.5,460.7 L630.5,461.6 L633.6,463.2 L634.6,463.9 L636.6,464.3 L638.2,464.8 L639.6,465.7 L641.4,466.3 L642.6,466.8 L644.3,467.5 L644.7,468.1 L648.7,469.7 L650.7,470.4 L651.7,470.8 L653.7,471.5 L654.8,471.9 L656.8,472.6 L657.8,473.0 L659.8,473.5 L660.8,473.9 L664.8,475.3 L666.9,475.7 L667.9,476.4 L669.9,476.8 L670.9,477.3 L672.9,477.7 L673.9,478.0 L676.0,478.4 L677.0,478.9 L681.0,479.8 L683.0,480.2 L684.0,480.4 L686.0,480.7 L687.1,480.9 L689.1,481.1 L690.1,481.3 L692.1,481.3 L693.1,481.5 L698.2,481.8 L699.2,481.8 L701.2,482.0 L702.2,482.0 L704.2,482.0 L706.0,482.2 L707.2,482.2 L709.3,482.0 L710.3,482.0 L714.3,481.8 L715.7,481.5 L717.3,481.3 L718.9,481.1 L720.4,480.9 L722.2,480.4 L723.4,480.2 L725.4,479.8 L726.4,479.3 L731.5,478.2 L732.5,478.0 L734.5,477.7 L735.5,477.1 L736.5,476.6 L738.3,476.2 L740.5,475.7 L741.6,475.1 L742.6,474.6 L746.6,473.3 L748.0,472.6 L749.6,471.7 L751.2,471.3 L752.7,470.4 L754.5,469.7 L754.7,469.0 L756.7,468.3 L758.5,467.7 L761.7,465.7 L763.8,465.0 L764.2,464.3 L765.8,463.7 L767.4,463.0 L768.8,462.5 L770.8,461.9 L771.8,461.2 L774.7,460.3 L777.1,459.2 L778.9,458.7 L780.3,458.3 L781.9,457.6 L783.5,456.9 L786.0,456.3 L787.0,455.8 L788.0,455.2 L790.0,454.9" fill="none" stroke="#ff7f0e" stroke-width="1.7" opacity="0.85"/><circle cx="790" cy="455" r="4.5" fill="#ff7f0e"/><rect x="28" y="128" width="13" height="13" fill="#ff7f0e"/><text x="46" y="139" font-size="12">100%</text><text x="28" y="832" font-size="11" fill="#888">ground track — m from pad (N up)</text></svg>