<svg xmlns="http://www.w3.org/2000/svg" width="840" height="860" font-family="sans-serif" font-size="13"><rect width="840" height="860" fill="white"/><text x="20" y="26" font-size="15" fill="#333">E16 guarded — wind</text><rect x="20" y="40" width="800" height="800" fill="#fbfbfb" stroke="#ddd"/><rect x="50" y="423" width="444" height="95" fill="#cde" stroke="#369" opacity="0.7"/><text x="50" y="418" fill="#369" font-size="12">landing zone</text><circle cx="331" cy="572" r="5" fill="black"/><text x="339" y="576" font-size="12">pad</text><path d="M332.0,571.6 L332.0,571.6 L332.0,571.6 L332.0,571.6 L332.0,571.6 L332.0,571.6 L332.0,571.6 L332.0,571.6 L332.0,571.6 L332.0,571.6 L332.0,571.6 L332.0,571.6 L332.0,571.6 L332.0,571.6 L332.0,571.6 L332.0,571.6 L332.0,571.6 L332.0,571.6 L332.0,571.6 L332.0,571.6 L332.0,571.6 L332.0,571.6 L332.0,571.6 L332.0,571.6 L332.0,571.6 L332.0,571.6 L332.0,571.6 L332.0,571.6 L332.0,571.6 L332.0,571.6 L332.0,571.6 L332.0,571.6 L332.0,571.6 L332.0,571.6 L332.0,571.6 L332.0,571.6 L332.0,571.6 L332.0,571.6 L332.0,571.6 L332.0,571.6 L332.0,571.6 L332.0,571.6 L332.0,571.6 L332.0,571.6 L332.0,571.6 L332.0,571.6 L332.0,571.6 L332.0,571.6 L332.0,571.6 L332.0,571.6 L332.0,571.6 L332.0,571.6 L332.0,571.6 L332.0,570.6 L333.4,567.4 L336.7,563.7 L339.1,560.0 L341.0,557.4 L341.5,553.7 L346.3,550.5 L348.7,547.8 L348.7,545.2 L353.4,542.0 L355.8,539.4 L356.3,536.7 L360.6,534.1 L363.0,530.9 L365.4,528.8 L370.1,526.2 L371.6,524.6 L374.9,521.9 L377.3,519.3 L379.7,517.2 L384.5,514.5 L388.7,513.0 L391.6,510.3 L394.0,507.7 L396.4,505.0 L401.2,502.9 L402.1,500.3 L405.9,497.6 L409.7,494.5 L410.7,491.8 L415.5,488.6 L417.9,485.5 L419.3,482.3 L422.6,479.7 L425.0,475.9 L426.9,472.2 L427.4,469.1 L432.2,465.4 L432.6,461.7 L434.6,458.5 L436.9,454.8 L436.9,451.6 L439.3,448.5 L440.3,444.2 L440.3,441.1 L441.7,437.4 L444.1,433.7 L444.1,429.4 L446.5,425.7 L446.5,422.0 L446.5,417.8 L447.9,414.6 L447.9,410.9 L448.9,406.7 L448.9,403.5 L448.9,399.8 L451.3,396.1 L451.3,392.4 L453.6,388.7 L456.0,384.5 L456.0,381.3 L456.5,378.1 L458.4,373.4 L460.8,370.2 L463.2,366.5 L465.1,363.3 L465.6,360.2 L467.9,357.0 L470.3,353.3 L472.7,350.7 L475.1,347.5 L477.5,343.8 L479.9,340.6 L482.3,338.5 L484.6,335.3 L488.9,332.7 L489.4,329.5 L494.2,327.9 L494.7,325.3 L499.0,322.6 L501.3,320.5 L503.7,318.9 L508.5,316.8 L509.0,314.7 L513.3,312.6 L516.6,310.5 L520.4,308.9 L525.2,307.3 L527.6,305.7 L530.0,304.1 L532.8,302.5 L539.5,301.0 L541.9,299.9 L546.7,298.8 L549.1,297.8 L553.8,296.7 L556.2,296.2 L561.0,295.7 L564.3,295.1 L568.1,294.6 L572.0,294.1 L575.3,294.1 L577.7,294.1 L582.5,293.6 L588.2,293.6 L589.6,294.1 L594.4,294.1 L596.8,294.6 L603.4,295.1 L606.3,295.7 L610.1,296.7 L613.5,296.7 L617.8,297.8 L620.6,298.8 L625.4,300.4 L627.8,301.5 L632.6,302.5 L634.9,304.7 L639.7,306.2 L642.1,307.8 L646.9,308.9 L649.3,311.0 L651.6,312.6 L655.9,314.7 L658.8,316.8 L661.2,318.9 L663.6,320.5 L668.3,323.2 L670.7,325.3 L673.1,327.9 L675.5,329.5 L679.8,332.7 L680.3,335.9 L685.0,338.5 L685.5,341.1 L687.4,343.8 L692.2,349.1 L694.6,351.7 L697.0,354.9 L699.3,358.1 L701.7,360.7 L701.7,363.3 L704.1,367.0 L706.5,370.7 L708.9,373.9 L709.4,380.3 L711.3,384.0 L713.7,387.1 L716.0,390.8 L716.0,394.5 L717.0,397.7 L717.0,401.9 L718.4,405.6 L718.4,408.8 L720.8,415.7 L720.8,418.9 L720.8,422.6 L723.2,426.8 L723.2,430.5 L723.7,434.7 L723.7,438.4 L723.7,441.6 L725.6,445.8 L725.6,451.1 L728.0,455.3 L728.0,459.6 L730.4,462.2 L730.4,466.4 L731.3,470.1 L732.7,473.8 L732.7,477.5 L735.1,481.8 L737.5,486.0 L739.9,489.7 L742.3,492.9 L744.7,496.6 L747.1,500.3 L747.5,502.9 L749.4,505.0 L751.8,508.2 L756.6,514.0 L761.4,516.7 L762.8,519.3 L766.1,521.9 L768.5,525.1 L772.3,527.2 L775.7,529.9 L778.1,533.0 L780.5,535.7 L785.2,537.8 L786.7,539.9 L790.0,543.1" fill="none" stroke="#1f77b4" stroke-width="1.7" opacity="0.85"/><circle cx="790" cy="543" r="4.5" fill="#1f77b4"/><rect x="28" y="48" width="13" height="13" fill="#1f77b4"/><text x="46" y="59" font-size="12">calm</text><path d="M332.0,571.6 L332.0,571.6 L332.0,571.6 L332.0,571.6 L332.0,571.6 L332.0,571.6 L332.0,571.6 L332.0,571.6 L332.0,571.6 L332.0,571.6 L332.0,571.6 L332.0,571.6 L332.0,571.6 L332.0,571.6 L332.0,571.6 L332.0,571.6 L332.0,571.6 L332.0,571.6 L332.0,571.6 L332.0,571.6 L332.0,571.6 L332.0,571.6 L332.0,571.6 L332.0,571.6 L332.0,571.6 L332.0,571.6 L332.0,571.6 L332.0,571.6 L332.0,571.6 L332.0,571.6 L332.0,571.6 L332.0,571.6 L332.0,571.6 L332.0,571.6 L332.0,571.6 L332.0,571.6 L332.0,571.6 L332.0,571.6 L332.0,571.6 L332.0,571.6 L332.0,571.6 L332.0,571.6 L332.0,571.6 L332.0,571.6 L332.0,571.6 L332.0,571.6 L332.0,571.6 L332.0,571.6 L332.0,571.6 L332.0,571.6 L332.0,571.6 L332.0,571.6 L332.0,571.6 L332.0,570.6 L333.4,569.0 L334.4,566.4 L336.7,563.2 L339.1,560.5 L341.0,558.4 L341.5,556.3 L343.9,554.2 L346.3,551.5 L348.7,550.0 L348.7,547.3 L351.1,546.3 L355.8,543.6 L356.3,541.5 L358.2,539.9 L360.6,538.3 L363.9,536.7 L365.4,535.2 L367.8,533.6 L370.1,532.0 L372.5,530.4 L377.3,528.3 L379.2,527.2 L382.1,525.6 L384.5,525.1 L388.7,523.5 L389.2,521.9 L394.0,520.9 L394.5,519.3 L398.8,517.7 L402.1,516.7 L403.5,515.1 L408.3,514.0 L409.7,513.0 L413.1,511.4 L415.5,509.8 L419.3,508.2 L420.2,506.6 L425.0,504.5 L426.9,503.4 L427.4,501.3 L429.8,499.2 L432.6,497.1 L434.6,494.5 L436.9,492.9 L439.3,491.3 L440.3,488.6 L441.7,486.0 L444.1,483.4 L446.5,481.2 L447.9,478.1 L447.9,475.9 L448.9,472.2 L451.3,470.7 L453.6,468.0 L453.6,464.3 L456.0,461.1 L456.0,459.0 L456.5,456.4 L456.5,452.7 L456.5,449.5 L458.4,447.4 L458.4,444.2 L458.4,441.1 L458.4,437.9 L458.4,433.7 L458.4,431.0 L458.4,427.8 L458.4,425.2 L456.5,422.6 L456.5,419.4 L456.5,416.2 L456.5,413.6 L456.0,410.4 L456.0,407.2 L456.0,404.6 L456.0,401.9 L453.6,398.8 L453.6,396.1 L453.6,393.5 L453.6,389.8 L453.6,387.1 L453.6,384.0 L456.0,380.3 L456.0,377.6 L456.0,375.0 L456.0,372.3 L456.5,368.6 L456.5,366.0 L458.4,362.8 L458.4,360.7 L460.8,358.1 L463.2,353.3 L465.1,351.2 L465.1,348.5 L465.6,346.4 L467.9,343.8 L470.3,341.7 L470.8,339.6 L472.7,336.9 L475.1,334.3 L477.5,332.2 L478.4,330.0 L479.9,329.0 L482.3,326.9 L484.6,324.8 L488.9,323.2 L489.4,321.0 L494.2,319.5 L494.7,318.4 L496.6,316.8 L501.3,314.2 L503.7,312.6 L508.5,311.5 L509.0,310.5 L510.9,309.4 L515.7,308.4 L518.0,308.4 L520.4,307.3 L525.2,306.8 L530.0,305.2 L532.8,305.2 L537.1,304.7 L540.5,304.7 L541.9,304.1 L546.7,304.1 L549.1,304.1 L553.8,304.7 L554.8,304.7 L558.6,305.2 L563.4,305.7 L565.8,306.2 L568.1,306.8 L572.0,307.3 L575.3,308.4 L579.6,308.9 L582.5,310.5 L588.2,311.5 L589.6,312.6 L595.8,315.2 L599.2,316.8 L601.5,318.9 L603.9,320.0 L608.7,322.1 L610.1,323.7 L613.5,326.3 L617.8,328.5 L620.6,330.0 L625.4,333.7 L627.8,336.4 L630.2,338.5 L632.1,341.7 L634.9,344.3 L639.7,347.0 L641.6,350.1 L644.5,352.8 L646.9,355.4 L649.3,361.2 L654.0,364.9 L655.9,368.6 L658.8,372.3 L661.2,375.0 L663.6,379.2 L666.0,382.9 L670.7,386.1 L671.2,389.8 L673.1,392.9 L675.5,396.6 L679.8,399.8 L680.3,404.1 L682.6,406.7 L685.0,410.4 L685.5,413.6 L689.8,416.7 L692.2,421.0 L694.6,425.7 L697.0,428.4 L699.3,432.6 L701.7,436.8 L704.1,440.0 L706.5,443.7 L708.9,446.9 L711.3,449.5 L713.7,452.7 L717.0,459.0 L718.4,462.2 L723.2,466.4 L723.7,469.6 L728.0,472.8 L730.4,475.9 L731.3,479.1 L735.1,482.3 L737.5,485.5 L739.9,489.2 L742.3,492.3" fill="none" stroke="#17becf" stroke-width="1.7" opacity="0.85"/><circle cx="742" cy="492" r="4.5" fill="#17becf"/><rect x="28" y="68" width="13" height="13" fill="#17becf"/><text x="46" y="79" font-size="12">3</text><path d="M332.0,571.6 L332.0,571.6 L332.0,571.6 L332.0,571.6 L332.0,571.6 L332.0,571.6 L332.0,571.6 L332.0,571.6 L332.0,571.6 L332.0,571.6 L332.0,571.6 L332.0,571.6 L332.0,571.6 L332.0,571.6 L332.0,571.6 L332.0,571.6 L332.0,571.6 L332.0,571.6 L332.0,571.6 L332.0,571.6 L332.0,571.6 L332.0,571.6 L332.0,571.6 L332.0,571.6 L332.0,571.6 L332.0,571.6 L332.0,571.6 L332.0,571.6 L332.0,571.6 L332.0,571.6 L332.0,571.6 L332.0,571.6 L332.0,571.6 L332.0,571.6 L332.0,571.6 L332.0,571.6 L332.0,571.6 L332.0,571.6 L332.0,571.6 L332.0,571.6 L332.0,571.6 L332.0,571.6 L332.0,571.6 L332.0,571.6 L332.0,571.6 L332.0,571.6 L332.0,571.6 L332.0,571.6 L332.0,571.6 L332.0,571.6 L332.0,571.6 L332.0,571.6 L332.0,571.1 L333.4,569.0 L334.4,567.4 L334.4,565.3 L336.7,563.7 L339.1,561.1 L341.0,559.5 L341.0,558.4 L341.5,556.8 L343.9,555.2 L346.3,553.7 L348.7,552.1 L348.7,551.0 L353.4,549.4 L353.4,548.4 L356.3,547.3 L358.2,546.8 L360.6,545.2 L363.0,544.1 L363.9,543.1 L365.4,542.6 L370.1,541.5 L371.6,540.4 L372.5,539.4 L374.9,538.9 L379.2,537.8 L379.7,536.7 L382.1,536.7 L384.5,536.2 L388.7,535.2 L389.2,534.1 L394.0,533.6 L394.5,533.0 L396.4,532.0 L398.8,531.5 L402.1,530.9 L403.5,530.4 L405.9,529.3 L409.7,528.8 L410.7,528.3 L413.1,527.8 L415.5,527.2 L419.3,526.2 L420.2,525.6 L422.6,525.1 L426.9,524.6 L427.4,523.5 L432.2,523.0 L432.6,521.9 L434.6,521.4 L439.3,520.4 L440.3,519.8 L441.7,518.8 L444.1,517.7 L447.9,517.2 L448.9,515.6 L451.3,514.5 L453.6,514.0 L456.0,513.0 L456.5,511.9 L458.4,509.8 L463.2,508.7 L463.2,507.1 L465.1,505.6 L465.6,504.0 L467.9,501.9 L470.3,500.3 L470.3,498.7 L470.8,497.1 L472.7,495.0 L472.7,492.9 L475.1,490.8 L475.1,488.6 L475.1,486.5 L477.5,483.9 L477.5,482.3 L477.5,480.2 L477.5,478.1 L477.5,475.4 L477.5,473.3 L477.5,471.2 L477.5,468.5 L477.5,465.9 L477.5,463.8 L477.5,460.6 L475.1,459.0 L475.1,456.9 L475.1,454.8 L472.7,452.2 L472.7,449.5 L470.8,446.3 L470.3,443.7 L467.9,441.1 L465.6,438.4 L465.1,436.3 L463.2,433.7 L460.8,431.0 L458.4,428.4 L456.5,426.8 L456.0,425.2 L453.6,422.6 L451.3,420.4 L447.9,418.3 L446.5,416.2 L444.1,414.6 L440.3,412.5 L439.3,410.4 L436.9,408.3 L432.6,405.6 L432.2,403.5 L429.8,401.4 L426.9,398.8 L426.9,396.6 L422.6,394.5 L420.2,392.4 L419.3,390.3 L419.3,387.7 L415.5,384.0 L413.1,381.8 L410.7,378.7 L410.7,376.0 L409.7,373.9 L409.7,372.3 L408.3,369.7 L408.3,367.6 L405.9,364.9 L405.9,361.8 L403.5,359.1 L403.5,357.0 L403.5,354.4 L403.5,351.7 L403.5,350.1 L403.5,348.0 L403.5,344.8 L403.5,342.7 L405.9,339.6 L405.9,336.9 L405.9,334.8 L405.9,332.7 L408.3,331.1 L408.3,329.5 L409.7,327.4 L409.7,324.8 L410.7,323.2 L413.1,320.5 L415.5,318.9 L417.9,316.8 L417.9,315.2 L419.3,313.6 L420.2,312.1 L422.6,311.0 L425.0,309.4 L426.9,308.4 L429.8,306.8 L432.2,305.7 L432.6,304.7 L436.9,303.6 L439.3,302.5 L440.3,302.0 L441.7,301.5 L444.1,301.0 L447.9,300.4 L451.3,299.9 L456.0,299.4 L456.5,299.4 L460.8,299.9 L463.2,299.9 L465.6,300.4 L470.3,301.0 L470.8,301.5 L472.7,302.5 L478.4,304.1 L482.3,305.7 L487.0,307.3 L488.9,308.4 L491.8,309.9 L494.7,311.5 L496.6,313.6 L501.3,315.8 L503.7,318.9 L508.5,321.0 L509.0,323.7 L513.3,326.3 L515.7,329.0 L518.0,332.2 L525.2,339.6 L526.2,341.7 L530.0,345.4 L532.8,349.6 L534.7,351.7 L537.1,355.4 L540.5,359.1 L541.9,362.3 L544.3,366.0 L547.2,370.2 L551.4,373.4" fill="none" stroke="#2ca02c" stroke-width="1.7" opacity="0.85"/><circle cx="551" cy="373" r="4.5" fill="#2ca02c"/><rect x="28" y="88" width="13" height="13" fill="#2ca02c"/><text x="46" y="99" font-size="12">6</text><path d="M332.0,571.6 L332.0,571.6 L332.0,571.6 L332.0,571.6 L332.0,571.6 L332.0,571.6 L332.0,571.6 L332.0,571.6 L332.0,571.6 L332.0,571.6 L332.0,571.6 L332.0,571.6 L332.0,571.6 L332.0,571.6 L332.0,571.6 L332.0,571.6 L332.0,571.6 L332.0,571.6 L332.0,571.6 L332.0,571.6 L332.0,571.6 L332.0,571.6 L332.0,571.6 L332.0,571.6 L332.0,571.6 L332.0,571.6 L332.0,571.6 L332.0,571.6 L332.0,571.6 L332.0,571.6 L332.0,571.6 L332.0,571.6 L332.0,571.6 L332.0,571.6 L332.0,571.6 L332.0,571.6 L332.0,571.6 L332.0,571.6 L332.0,571.6 L332.0,571.6 L332.0,571.6 L332.0,571.6 L332.0,571.6 L332.0,571.6 L332.0,571.6 L332.0,571.6 L332.0,571.6 L332.0,571.6 L332.0,571.6 L332.0,571.6 L332.0,571.6 L332.0,571.6 L332.0,571.6 L332.0,571.1 L333.4,570.1 L333.4,569.0 L333.4,568.5 L334.4,566.9 L334.4,565.8 L336.7,565.3 L339.1,564.2 L339.1,563.2 L341.0,562.7 L341.5,561.6 L341.5,561.1 L343.9,560.5 L346.3,560.0 L348.7,559.5 L348.7,559.0 L351.1,558.4 L353.4,558.4 L355.8,558.4 L356.3,557.9 L358.2,557.9 L360.6,557.4 L363.0,557.4 L363.9,556.8 L365.4,556.8 L367.8,556.8 L370.1,556.3 L371.6,556.3 L372.5,556.3 L374.9,555.8 L377.3,555.8 L379.2,555.8 L379.7,555.8 L382.1,555.2 L384.5,555.2 L386.8,555.2 L388.7,555.2 L389.2,554.7 L391.6,554.7 L394.0,554.7 L394.5,554.2 L396.4,554.2 L398.8,554.2 L401.2,553.7 L402.1,553.7 L403.5,553.1 L405.9,553.1 L408.3,552.6 L409.7,552.6 L410.7,552.1 L413.1,551.5 L413.1,551.5 L417.9,551.0 L417.9,550.5 L419.3,550.0 L420.2,549.4 L422.6,549.4 L425.0,548.9 L426.9,547.8 L427.4,547.3 L429.8,547.3 L429.8,546.8 L432.2,546.3 L432.6,545.7 L434.6,544.7 L436.9,544.1 L439.3,543.6 L439.3,543.1 L440.3,542.0 L441.7,541.5 L444.1,540.4 L444.1,539.4 L446.5,538.9 L447.9,537.8 L447.9,537.3 L448.9,536.7 L451.3,535.7 L451.3,535.2 L453.6,534.1 L453.6,533.6 L456.0,532.5 L456.5,530.9 L456.5,530.4 L458.4,528.8 L458.4,528.3 L460.8,527.2 L460.8,526.2 L463.2,525.1 L463.2,524.6 L465.1,523.5 L465.6,521.9 L465.6,520.9 L465.6,519.8 L467.9,518.8 L467.9,517.7 L470.3,516.7 L470.3,515.6 L470.3,514.5 L470.8,513.5 L470.8,512.4 L470.8,511.4 L470.8,509.8 L472.7,508.2 L472.7,506.6 L472.7,505.0 L472.7,504.0 L472.7,502.9 L472.7,501.3 L470.8,499.7 L470.8,497.1 L470.8,495.0 L470.3,493.4 L470.3,491.8 L467.9,490.2 L467.9,488.6 L465.6,486.5 L465.6,485.5 L465.1,483.9 L463.2,481.2 L460.8,479.1 L458.4,477.5 L456.5,475.9 L456.0,474.4 L451.3,472.2 L448.9,471.2 L447.9,469.1 L444.1,467.5 L441.7,465.9 L439.3,464.3 L436.9,462.7 L432.6,461.1 L432.2,460.6 L427.4,459.6 L426.9,458.0 L422.6,456.9 L419.3,455.3 L413.1,453.7 L409.7,453.2 L405.9,452.2 L402.1,451.1 L401.2,450.6 L394.5,449.5 L391.6,449.0 L388.7,449.0 L384.5,448.5 L377.3,447.9 L372.5,447.9 L370.1,447.4 L363.9,447.4 L360.6,447.4 L356.3,447.4 L351.1,447.4 L346.3,447.9 L341.5,448.5 L334.4,449.0 L329.6,449.0 L325.8,449.5 L320.0,450.6 L317.7,451.6 L310.5,452.2 L308.1,453.2 L303.3,454.3 L298.6,455.9 L287.6,458.5 L281.9,460.6 L277.1,461.7 L272.3,463.8 L265.2,465.4 L262.8,467.0 L257.1,469.6 L250.9,471.2 L246.1,472.8 L241.3,475.4 L234.2,478.1 L229.4,479.7 L224.6,481.8 L219.9,482.8 L215.1,484.4 L211.3,486.0 L205.5,488.1 L198.4,490.2 L193.6,492.3 L188.4,493.4 L181.7,495.0 L176.9,496.6 L173.1,497.6 L169.8,499.2 L164.5,500.3 L157.8,501.3 L155.4,502.9 L150.2,504.0 L143.5,504.5 L141.1,505.6 L131.6,507.1 L126.3,507.7 L122.0,508.7 L117.3,509.3 L112.5,509.8 L107.7,510.3 L104.4,510.8 L98.2,511.4 L94.8,511.9 L88.6,512.4 L86.3,513.0" fill="none" stroke="#bcbd22" stroke-width="1.7" opacity="0.85"/><circle cx="86" cy="513" r="4.5" fill="#bcbd22"/><rect x="28" y="108" width="13" height="13" fill="#bcbd22"/><text x="46" y="119" font-size="12">9</text><path d="M332.0,571.6 L332.0,571.6 L332.0,571.6 L332.0,571.6 L332.0,571.6 L332.0,571.6 L332.0,571.6 L332.0,571.6 L332.0,571.6 L332.0,571.6 L332.0,571.6 L332.0,571.6 L332.0,571.6 L332.0,571.6 L332.0,571.6 L332.0,571.6 L332.0,571.6 L332.0,571.6 L332.0,571.6 L332.0,571.6 L332.0,571.6 L332.0,571.6 L332.0,571.6 L332.0,571.6 L332.0,571.6 L332.0,571.6 L332.0,571.6 L332.0,571.6 L332.0,571.6 L332.0,571.6 L332.0,571.6 L332.0,571.6 L332.0,571.6 L332.0,571.6 L332.0,571.6 L332.0,571.6 L332.0,571.6 L332.0,571.6 L332.0,571.6 L332.0,571.6 L332.0,571.6 L332.0,571.6 L332.0,571.6 L332.0,571.6 L332.0,571.6 L332.0,571.6 L332.0,571.6 L332.0,571.6 L332.0,571.6 L332.0,571.6 L332.0,571.6 L332.0,571.6 L332.0,571.6 L332.0,571.1 L332.0,570.6 L332.0,570.6 L333.4,570.1 L333.4,569.5 L333.4,569.5 L334.4,569.0 L334.4,569.0 L334.4,569.0 L336.7,569.0 L336.7,569.0 L339.1,569.0 L339.1,569.0 L341.0,569.0 L341.0,569.5 L341.5,569.5 L343.9,570.1 L346.3,570.1 L346.3,570.6 L348.7,571.1 L348.7,571.1 L348.7,571.6 L351.1,572.2 L353.4,572.7 L353.4,573.2 L355.8,573.8 L356.3,573.8 L358.2,574.3 L358.2,574.8 L360.6,575.3 L363.0,575.9 L363.0,576.4 L363.9,576.9 L365.4,577.5 L367.8,578.0 L367.8,578.5 L370.1,579.0 L371.6,579.6 L372.5,579.6 L374.9,580.1 L374.9,580.1 L377.3,580.6 L379.2,581.2 L379.7,581.7 L379.7,582.2 L382.1,582.2 L384.5,582.7 L384.5,583.3 L386.8,583.3 L388.7,583.8 L388.7,583.8 L389.2,584.3 L391.6,584.9 L391.6,584.9 L394.0,584.9 L394.5,585.4 L394.5,585.4 L396.4,585.9 L396.4,585.9 L398.8,585.9 L401.2,586.4 L401.2,586.4 L402.1,586.4 L402.1,586.4 L403.5,586.4 L403.5,586.4 L405.9,586.4 L405.9,586.4 L408.3,586.4 L408.3,586.4 L409.7,586.4 L409.7,586.4 L410.7,586.4 L410.7,585.9 L413.1,585.9 L413.1,585.9 L415.5,585.9 L415.5,585.4 L415.5,585.4 L417.9,585.4 L417.9,584.9 L417.9,584.9 L419.3,584.3 L419.3,584.3 L420.2,583.8 L420.2,583.8 L420.2,583.3 L422.6,583.3 L422.6,582.7 L422.6,582.7 L425.0,582.2 L425.0,581.7 L425.0,581.7 L425.0,581.2 L426.9,581.2 L426.9,580.6 L426.9,580.1 L427.4,580.1 L427.4,579.6 L427.4,579.6 L427.4,579.6 L427.4,579.0 L429.8,578.5 L429.8,578.5 L429.8,578.0 L429.8,577.5 L432.2,576.9 L432.2,576.4 L432.2,576.4 L432.2,575.9 L432.6,575.3 L432.6,574.8 L432.6,574.8 L432.6,574.3 L432.6,573.8 L432.6,573.2 L434.6,572.7 L434.6,572.7 L434.6,572.2 L434.6,571.6 L434.6,571.1 L434.6,570.6 L436.9,570.1 L436.9,569.5 L436.9,569.0 L436.9,569.0 L436.9,568.5 L436.9,567.9 L436.9,567.4 L439.3,566.9 L439.3,566.4 L439.3,565.8 L439.3,565.3 L439.3,564.8 L439.3,564.2 L440.3,563.7 L440.3,563.2 L440.3,563.2 L440.3,562.7 L440.3,562.1 L440.3,561.6 L440.3,561.1 L441.7,560.5 L441.7,560.0 L441.7,559.5 L441.7,559.0 L441.7,559.0 L441.7,558.4 L441.7,558.4 L441.7,557.9 L444.1,557.4 L444.1,556.8 L444.1,556.3 L444.1,555.8 L444.1,555.2 L444.1,554.7 L444.1,554.2 L446.5,553.7 L446.5,553.1 L446.5,552.6 L446.5,552.1 L446.5,551.5 L446.5,551.0 L447.9,551.0 L447.9,550.5 L447.9,550.0 L447.9,549.4 L447.9,548.9 L447.9,548.4 L448.9,547.8 L448.9,547.3 L448.9,547.3 L448.9,546.8 L448.9,546.8 L448.9,546.3 L448.9,545.7 L451.3,545.2 L451.3,544.7 L451.3,544.1 L451.3,543.6 L451.3,543.1 L453.6,543.1 L453.6,542.6 L453.6,542.0 L453.6,542.0 L453.6,541.5 L456.0,541.0 L456.0,540.4 L456.5,540.4 L456.5,540.4 L456.5,539.9 L458.4,539.9 L458.4,539.9 L460.8,539.4 L460.8,539.4 L460.8,539.4 L463.2,539.4 L465.1,539.4 L465.1,539.4 L465.6,539.4 L465.6,539.4 L467.9,539.4 L467.9,539.4 L470.3,539.4 L470.3,539.4 L470.8,539.4 L472.7,539.4 L475.1,539.4 L477.5,539.4 L477.5,539.4 L478.4,539.4 L478.4,539.9 L479.9,539.9 L479.9,539.9 L482.3,539.9 L484.6,539.9 L484.6,539.9" fill="none" stroke="#ff7f0e" stroke-width="1.7" opacity="0.85"/><circle cx="485" cy="540" r="4.5" fill="#ff7f0e"/><rect x="28" y="128" width="13" height="13" fill="#ff7f0e"/><text x="46" y="139" font-size="12">12 m/s</text><text x="28" y="832" font-size="11" fill="#888">ground track — m from pad (N up)</text></svg>