<svg xmlns="http://www.w3.org/2000/svg" width="1140" height="600" font-family="sans-serif" font-size="13"><rect width="1140" height="600" fill="white"/><text x="20" y="26" font-size="15" fill="#333">Coludo flight</text><rect x="20" y="40" width="540" height="540" fill="#fbfbfb" stroke="#ddd"/><rect x="50" y="261" width="241" height="52" fill="#cde" stroke="#369" opacity="0.7"/><text x="50" y="256" fill="#369" font-size="12">landing zone</text><circle cx="202" cy="342" r="5" fill="black"/><text x="210" y="346" font-size="12">pad</text><path d="M202.8,342.2 L202.8,342.2 L202.8,342.2 L202.8,342.2 L202.8,342.2 L202.8,342.2 L202.8,342.2 L202.8,342.2 L202.8,342.2 L202.8,342.2 L202.8,342.2 L202.8,342.2 L202.8,342.2 L202.8,342.2 L202.8,342.2 L202.8,342.2 L202.8,342.2 L202.8,342.2 L202.8,342.2 L202.8,342.2 L202.8,342.2 L202.8,342.2 L202.8,342.2 L202.8,342.2 L202.8,342.2 L202.8,342.2 L202.8,342.2 L202.8,342.2 L202.8,342.2 L202.8,342.2 L202.8,342.2 L202.8,342.2 L202.8,342.2 L202.8,342.2 L202.8,342.2 L202.8,342.2 L202.8,342.2 L202.8,342.2 L202.8,342.2 L202.8,342.2 L202.8,342.2 L202.8,342.2 L202.8,342.2 L202.8,342.2 L202.8,342.2 L202.8,342.2 L202.8,342.2 L202.8,342.2 L202.8,342.2 L202.8,342.2 L202.8,342.2 L202.8,342.2 L202.8,342.2 L202.8,342.2 L202.8,342.2 L202.8,342.2 L202.8,342.2 L202.8,342.2 L202.8,342.2 L202.8,342.2 L202.8,342.2 L202.8,342.2 L202.8,342.2 L202.8,342.2 L202.8,342.2 L202.8,342.0 L202.8,341.7 L202.8,341.7 L203.6,341.4 L203.6,341.1 L203.6,340.8 L204.1,340.8 L204.1,340.8 L204.1,340.8 L205.4,340.8 L205.4,340.8 L206.7,340.8 L206.7,340.8 L207.8,340.8 L208.0,340.8 L208.0,340.8 L209.3,340.8 L209.3,341.1 L210.6,341.1 L211.9,341.4 L211.9,341.7 L211.9,341.7 L213.2,342.0 L213.2,342.0 L214.5,342.2 L215.8,342.5 L216.0,342.8 L216.0,343.1 L217.1,343.4 L218.4,343.4 L219.7,343.7 L219.7,344.0 L220.2,344.2 L220.9,344.5 L220.9,344.8 L222.2,344.8 L223.5,345.1 L224.3,345.4 L224.3,345.7 L224.8,345.7 L226.1,346.0 L227.4,346.3 L227.4,346.3 L228.4,346.5 L228.7,346.5 L228.7,346.5 L230.0,346.8 L231.3,347.1 L231.3,347.1 L232.6,347.4 L233.6,347.7 L233.6,347.7 L233.9,348.0 L235.2,348.0 L235.2,348.3 L236.5,348.3 L236.7,348.5 L236.7,348.5 L237.8,348.8 L239.1,348.8 L239.1,348.8 L240.3,349.1 L240.3,349.1 L240.9,349.1 L241.6,349.4 L241.6,349.4 L242.9,349.4 L242.9,349.4 L244.2,349.4 L244.2,349.4 L245.0,349.4 L245.0,349.4 L245.5,349.4 L245.5,349.4 L246.8,349.4 L246.8,349.4 L248.1,349.4 L248.1,349.4 L249.4,349.4 L249.4,349.4 L250.2,349.1 L250.2,349.1 L250.7,349.1 L250.7,349.1 L250.7,348.8 L252.0,348.8 L252.0,348.5 L253.3,348.5 L253.3,348.5 L253.3,348.3 L254.3,348.3 L254.3,348.0 L254.3,348.0 L254.6,347.7 L254.6,347.7 L254.6,347.4 L255.9,347.1 L255.9,347.1 L255.9,346.8 L255.9,346.5 L257.2,346.5 L257.2,346.5 L257.2,346.3 L257.2,346.0 L257.4,345.7 L257.4,345.7 L257.4,345.4 L257.4,345.1 L258.4,344.8 L258.4,344.5 L258.4,344.5 L258.4,344.2 L258.4,344.0 L258.4,343.4 L259.7,343.1 L259.7,342.8 L259.7,342.5 L259.7,342.2 L259.7,342.2 L259.7,342.0 L259.7,341.7 L259.7,341.4 L261.0,340.8 L261.0,340.8 L261.0,340.5 L261.0,340.2 L261.0,339.9 L261.0,339.7 L261.6,339.4 L261.6,339.4 L261.6,339.1 L261.6,338.5 L261.6,338.2 L261.6,337.9 L262.3,337.7 L262.3,337.4 L262.3,337.1 L262.3,336.8 L262.3,336.5 L262.3,336.2 L262.3,335.9 L262.3,335.6 L262.3,335.4 L263.6,335.1 L263.6,334.8 L263.6,334.8 L263.6,334.2 L263.6,333.9 L263.6,333.6 L263.6,333.4 L263.6,333.1 L264.9,332.8 L264.9,332.5 L264.9,332.2 L264.9,331.9 L264.9,331.6 L264.9,331.3 L264.9,331.1 L264.9,330.5 L265.7,330.2 L265.7,329.9 L265.7,329.9 L265.7,329.6 L265.7,329.3 L265.7,329.1 L266.2,329.1 L266.2,328.8 L266.2,328.2 L266.2,328.2 L266.2,327.9 L266.2,327.6 L267.5,327.3 L267.5,327.1 L267.5,326.8 L267.5,326.5 L267.5,326.2 L268.8,325.9 L268.8,325.6 L268.8,325.3 L268.8,325.0 L268.8,325.0 L268.8,324.8 L270.1,324.5 L270.1,324.2 L270.1,323.9 L270.3,323.6 L270.3,323.6 L270.3,323.6 L271.4,323.3 L271.4,323.3 L272.7,323.3 L272.7,323.3 L274.0,323.3 L274.0,323.3 L275.0,323.3 L275.0,323.3 L275.3,323.3 L275.3,323.3 L276.6,323.3 L276.6,323.3 L277.8,323.3 L277.8,323.3 L278.1,323.3 L279.1,323.3 L279.1,323.3 L280.4,323.3 L280.4,323.3 L281.7,323.3 L282.2,323.6 L282.2,323.6 L283.0,323.6 L283.0,323.9 L284.3,323.9 L285.6,324.2 L286.9,324.2 L286.9,324.5 L287.9,324.5 L288.2,324.8 L288.2,324.8 L289.5,325.0 L290.8,325.3 L291.0,325.6 L291.0,325.6 L292.1,325.6 L293.4,325.9 L293.4,325.9 L294.7,326.2 L294.7,326.2 L296.2,326.5 L295.9,326.5 L297.2,326.8 L297.2,326.8 L298.5,327.1 L298.8,327.1 L298.8,327.1 L299.8,327.1 L299.8,327.3 L301.1,327.3 L302.4,327.3 L302.4,327.6 L302.9,327.6 L303.7,327.6 L303.7,327.9 L305.0,327.9 L305.0,327.9 L306.3,328.2 L307.6,328.2 L307.6,328.2 L308.1,328.5 L308.9,328.8 L310.2,328.8 L310.2,329.1 L311.5,329.1 L311.5,329.1 L311.7,329.1 L312.8,329.3 L312.8,329.3 L315.3,329.6 L315.3,329.6 L315.9,329.9 L315.9,329.9 L316.6,330.2 L316.6,330.2 L317.9,330.5 L319.2,330.5 L319.2,330.8 L319.5,330.8 L320.5,331.1 L321.8,331.1 L321.8,331.3 L323.1,331.3 L323.6,331.6 L323.6,331.6 L324.4,331.6 L325.7,331.9 L325.7,331.9 L327.0,332.2 L328.3,332.2 L328.8,332.2 L328.8,332.2 L329.6,332.5 L329.6,332.5 L330.9,332.5 L330.9,332.5 L332.2,332.5 L332.9,332.8 L333.4,332.8 L334.7,333.1 L334.7,333.1 L336.0,333.1 L336.0,333.4 L337.1,333.4 L337.3,333.6 L337.3,333.6 L339.9,333.9 L339.9,334.2 L341.7,334.2 L341.2,334.2 L341.2,334.5 L342.5,334.5 L342.5,334.5 L343.8,334.8 L343.8,334.8 L345.9,335.1 L346.4,335.1 L346.4,335.1 L347.7,335.1 L347.7,335.1 L349.0,335.4 L350.0,335.4 L350.0,335.4 L350.3,335.6 L351.6,335.9 L352.8,336.2 L353.6,336.2 L353.6,336.5 L354.1,336.5 L355.4,336.8 L355.4,336.8 L356.7,337.1 L357.8,337.1 L358.0,337.4 L359.3,337.7 L359.3,337.7 L360.6,337.9 L361.9,338.2 L361.9,338.2 L361.9,338.5 L363.2,338.5 L363.2,338.8 L365.8,339.1 L365.5,339.1 L365.5,339.4 L367.1,339.4 L368.4,339.7 L368.4,339.9 L369.7,339.9 L370.7,340.2 L370.7,340.2 L372.2,340.8 L373.5,340.8 L373.5,340.8 L373.8,341.1 L374.8,341.1 L374.8,341.4 L376.1,341.4 L377.4,341.7 L377.4,341.7 L378.7,342.0 L378.7,342.2 L380.0,342.2 L380.0,342.2 L381.3,342.5 L381.3,342.5 L382.6,342.5 L382.6,342.5 L382.6,342.5 L383.9,342.8 L385.2,342.8 L386.5,342.8 L386.5,343.1 L386.7,343.1 L386.7,343.1 L387.8,343.4 L389.1,343.4 L389.1,343.4 L391.4,343.7 L391.4,343.7 L391.6,343.7 L391.6,343.7 L392.9,343.7 L392.9,344.0 L394.2,344.0 L394.5,344.0 L394.5,344.0 L395.5,344.0 L396.8,344.2 L398.1,344.2 L398.1,344.2 L399.7,344.2 L399.7,344.5 L399.4,344.5 L399.4,344.5 L400.7,344.8 L403.3,345.1 L403.3,345.1 L403.3,345.1 L403.3,345.1 L404.6,345.4 L405.9,345.4 L405.9,345.4 L407.2,345.4 L407.2,345.7 L408.4,345.7 L408.4,346.0 L409.7,346.0 L411.0,346.3 L411.0,346.3 L411.6,346.5 L411.6,346.5 L412.3,346.5 L413.6,346.5 L414.9,346.5 L415.2,346.5 L415.2,346.8 L416.2,346.8 L416.2,346.8 L417.5,346.8 L417.5,346.8 L418.8,346.8 L418.8,346.8 L420.1,347.1 L420.1,347.1 L421.4,347.1 L421.4,347.1 L422.7,347.4 L424.0,347.4 L424.0,347.7 L425.0,347.7 L425.3,347.7 L426.6,348.0 L427.8,348.3 L427.8,348.3 L428.1,348.5 L428.1,348.5 L429.1,348.8 L430.4,348.8 L430.4,348.8 L431.7,349.1 L433.0,349.4 L433.0,349.7 L434.3,349.7 L434.3,350.0 L435.6,350.0 L436.4,350.3 L436.4,350.3 L436.9,350.5 L438.2,350.8 L439.5,351.1 L440.8,351.4 L441.6,351.4 L441.6,351.4 L442.1,351.7 L442.1,351.7 L443.4,352.0 L444.7,352.0 L444.7,352.3 L445.9,352.6 L447.2,352.6 L447.2,352.6 L448.5,352.6 L448.5,352.6 L449.3,352.6 L449.8,352.8 L449.8,352.8 L451.1,352.8 L452.4,353.1 L453.4,353.1 L453.4,353.1 L453.7,353.1 L453.7,353.1 L455.0,353.1 L455.0,353.1 L456.3,353.1 L456.3,353.1 L457.6,353.1 L457.6,353.4 L458.9,353.4 L458.9,353.4 L460.2,353.4 L460.2,353.7 L461.5,353.7 L462.2,353.7 L462.2,354.0 L464.1,354.0 L464.1,354.3 L465.3,354.3 L466.4,354.3 L466.4,354.6 L466.6,354.6 L466.6,354.8 L467.9,354.8 L469.2,354.8 L469.0,355.1 L470.5,355.1 L470.5,355.4 L471.8,355.4 L471.8,355.4 L473.1,355.4 L473.1,355.4 L474.1,355.4 L474.1,355.4 L475.7,355.7 L475.7,355.7 L477.0,355.7 L477.0,355.7 L478.3,355.7 L478.3,355.7 L478.8,355.7 L479.6,355.7 L479.6,355.7 L480.9,356.0 L482.2,356.0 L482.9,356.0 L482.9,356.0 L483.4,356.3 L483.4,356.3 L484.7,356.3 L486.0,356.6 L486.0,356.6 L487.3,356.9 L487.3,356.9 L488.6,357.1 L488.6,357.1 L489.9,357.1 L490.2,357.4 L490.2,357.4 L491.2,357.7 L492.5,357.7 L492.5,358.0 L493.8,358.0 L494.8,358.3 L495.1,358.3 L495.1,358.3 L496.4,358.3 L496.4,358.3 L497.7,358.3 L497.7,358.3 L499.0,358.3 L499.5,358.3 L499.5,358.3 L500.3,358.3 L500.3,358.3 L501.6,358.3 L501.6,358.3 L502.8,358.3 L502.8,358.3 L503.6,358.3 L504.1,358.3 L504.1,358.3 L505.4,358.3 L506.7,358.3 L506.7,358.3 L507.8,358.3 L507.8,358.3 L508.0,358.3 L508.0,358.3 L509.3,358.3 L510.6,358.3 L510.6,358.3 L510.9,358.3 L511.9,358.3 L511.9,358.3 L513.2,358.3 L513.2,358.3 L514.5,358.3 L515.8,358.6 L516.0,358.6 L516.0,358.6 L517.1,358.6 L517.1,358.6 L518.4,358.6 L518.4,358.6 L519.7,358.6 L519.7,358.6 L520.2,358.6 L520.9,358.6 L520.9,358.6 L522.2,358.6 L522.2,358.6 L523.5,358.6 L524.3,358.6 L524.3,358.6 L524.8,358.6 L524.8,358.6 L526.1,358.6 L527.4,358.6 L527.4,358.6 L528.4,358.6 L528.4,358.6 L528.7,358.6 L530.0,358.6" fill="none" stroke="#1f77b4" stroke-width="1.7" opacity="0.85"/><circle cx="530" cy="359" r="4.5" fill="#1f77b4"/><text x="28" y="572" font-size="11" fill="#888">ground track — m from pad (N up)</text><rect x="580" y="40" width="540" height="540" fill="#fbfbfb" stroke="#ddd"/><text x="586" y="54" fill="#1f77b4" font-size="11">alt 207</text><text x="586" y="558" fill="#1f77b4" font-size="11">-100</text><path d="M636.0,389.5 L636.3,387.2 L636.7,387.6 L637.0,385.0 L637.3,389.8 L637.7,384.9 L638.0,388.0 L638.3,382.8 L638.7,382.5 L639.0,377.9 L639.3,375.1 L639.7,384.7 L640.0,378.1 L640.3,368.3 L640.7,371.9 L641.0,362.5 L641.3,363.1 L641.6,376.9 L641.8,365.9 L642.2,351.9 L642.4,362.8 L642.7,357.7 L643.0,358.5 L643.3,340.9 L643.5,336.3 L643.9,354.9 L644.2,339.2 L644.5,318.9 L644.8,347.2 L645.1,308.0 L645.3,329.4 L645.6,349.1 L645.9,351.8 L646.2,281.4 L646.5,344.4 L646.9,329.9 L647.2,341.7 L647.5,274.9 L647.8,308.6 L648.0,304.4 L648.3,256.1 L648.6,323.3 L649.0,264.8 L649.2,248.3 L649.5,265.0 L649.8,331.9 L650.1,221.1 L650.4,290.6 L650.6,232.5 L651.0,321.8 L651.3,301.6 L651.5,275.1 L651.8,323.2 L652.1,230.8 L652.4,245.2 L652.7,303.0 L653.0,211.8 L653.4,188.1 L653.6,206.1 L653.9,297.3 L654.2,302.6 L654.5,155.3 L654.7,202.0 L655.1,284.0 L655.3,278.2 L655.7,250.7 L656.0,193.6 L656.2,165.4 L656.5,150.0 L656.8,262.1 L657.1,156.4 L657.3,138.1 L657.6,264.7 L657.9,138.5 L658.2,294.6 L658.5,235.7 L658.8,255.7 L659.1,256.3 L659.3,185.7 L659.6,127.4 L659.9,230.9 L660.2,237.6 L660.4,247.6 L660.8,286.9 L661.0,249.2 L661.3,160.0 L661.6,254.6 L661.9,233.8 L662.2,121.4 L662.4,223.5 L662.8,140.9 L663.1,139.6 L663.4,139.3 L663.7,79.9 L664.0,201.4 L664.4,76.2 L664.7,185.0 L665.0,159.4 L665.4,132.9 L665.7,199.2 L666.0,157.1 L666.4,250.7 L666.7,260.8 L667.0,94.1 L667.4,238.8 L667.6,199.9 L668.0,230.9 L668.2,113.3 L668.6,216.6 L668.9,166.2 L669.2,136.9 L669.6,78.9 L669.9,118.0 L670.2,115.1 L670.5,273.9 L670.8,221.2 L671.1,264.4 L671.3,230.1 L671.6,139.7 L671.9,197.1 L672.2,91.7 L672.5,225.5 L672.8,235.5 L673.1,117.6 L673.4,157.7 L673.8,169.0 L674.1,176.5 L674.4,83.1 L674.8,88.8 L675.1,219.1 L675.4,163.8 L675.8,76.0 L676.1,126.6 L676.4,255.9 L676.8,209.9 L677.1,152.4 L677.4,157.9 L677.7,98.3 L678.0,274.7 L678.3,191.2 L678.6,209.2 L678.9,92.6 L679.2,83.7 L679.5,211.4 L679.9,175.1 L680.2,101.9 L680.5,284.3 L680.9,133.1 L681.3,258.8 L681.6,98.2 L681.9,88.5 L682.2,205.3 L682.6,97.7 L682.9,158.3 L683.2,103.1 L683.5,191.9 L683.9,190.6 L684.2,140.4 L684.5,231.5 L684.8,254.6 L685.1,94.0 L685.5,190.1 L685.8,131.4 L686.1,208.3 L686.5,276.2 L686.8,285.8 L687.1,226.6 L687.4,100.1 L687.7,270.6 L688.0,95.6 L688.3,290.9 L688.7,158.1 L689.0,192.3 L689.3,195.2 L689.7,257.1 L690.0,241.3 L690.3,237.9 L690.6,143.4 L690.9,272.9 L691.2,230.9 L691.5,102.2 L691.8,217.7 L692.2,114.0 L692.5,278.7 L692.8,205.4 L693.2,292.8 L693.5,112.5 L693.8,268.1 L694.1,245.8 L694.4,187.5 L694.8,243.5 L695.1,123.0 L695.4,260.7 L695.7,281.9 L696.0,123.9 L696.3,287.8 L696.6,264.3 L697.0,226.4 L697.3,269.5 L697.6,220.5 L698.0,253.7 L698.3,158.4 L698.6,174.8 L698.9,108.4 L699.2,275.0 L699.5,233.6 L699.9,166.2 L700.2,119.6 L700.5,297.8 L700.9,111.9 L701.2,249.7 L701.5,199.3 L701.8,212.1 L702.1,127.5 L702.4,226.8 L702.7,220.3 L703.1,134.4 L703.4,223.6 L703.8,161.1 L704.1,146.7 L704.4,253.7 L704.8,188.3 L705.1,207.7 L705.4,130.5 L705.8,222.0 L706.1,235.8 L706.4,213.5 L706.7,141.9 L707.0,262.1 L707.3,261.7 L707.7,176.4 L708.0,215.1 L708.3,290.6 L708.7,221.1 L709.0,133.6 L709.3,157.1 L709.7,176.1 L710.0,259.0 L710.3,231.7 L710.6,216.3 L711.0,264.6 L711.3,276.1 L711.6,195.6 L711.9,266.8 L712.2,250.4 L712.5,257.6 L712.9,261.6 L713.2,132.0 L713.5,198.6 L713.9,302.5 L714.2,181.4 L714.5,178.4 L714.8,169.0 L715.1,173.2 L715.5,255.0 L715.8,287.6 L716.1,140.7 L716.4,221.5 L716.7,243.5 L717.1,261.3 L717.4,190.7 L717.7,180.7 L718.0,189.8 L718.3,160.6 L718.6,285.1 L719.0,265.5 L719.2,163.8 L719.6,169.9 L719.9,172.6 L720.2,207.3 L720.6,230.2 L720.9,280.9 L721.3,301.3 L721.6,299.7 L721.9,151.9 L722.2,242.6 L722.6,173.8 L722.9,182.4 L723.2,274.2 L723.6,307.3 L723.8,298.7 L724.2,281.3 L724.4,251.0 L724.8,172.8 L725.0,254.7 L725.3,164.2 L725.6,205.2 L725.9,261.5 L726.2,171.5 L726.5,231.1 L727.1,165.5 L727.4,239.2 L727.7,247.9 L728.0,186.9 L728.3,292.1 L728.6,288.5 L729.0,167.9 L729.3,309.3 L729.6,261.1 L729.9,294.9 L730.2,270.3 L730.6,267.9 L730.9,282.9 L731.2,247.8 L731.5,228.3 L731.8,314.4 L732.1,249.2 L732.5,257.9 L732.9,197.1 L733.2,264.7 L733.5,266.8 L733.8,202.0 L734.1,288.7 L734.5,309.2 L734.8,210.3 L735.1,238.7 L735.4,223.3 L735.7,244.0 L736.0,270.4 L736.3,262.9 L736.6,314.2 L736.9,283.9 L737.3,243.6 L737.6,240.7 L737.9,228.7 L738.2,264.8 L738.8,219.3 L739.0,289.9 L739.3,211.5 L739.7,210.7 L740.0,289.6 L740.3,300.8 L740.6,241.4 L740.9,207.5 L741.3,228.2 L741.6,206.5 L741.9,262.0 L742.3,207.9 L742.5,288.3 L742.9,219.2 L743.2,244.8 L743.5,314.5 L743.9,209.3 L744.2,252.3 L744.6,244.8 L744.9,278.5 L745.1,246.7 L745.5,326.1 L745.8,216.5 L746.1,221.7 L746.5,298.7 L746.8,333.6 L747.1,245.1 L747.5,283.8 L747.8,319.1 L748.1,331.4 L748.4,274.4 L748.7,284.6 L749.1,275.1 L749.4,306.6 L749.7,279.0 L750.1,310.4 L750.6,296.1 L750.9,333.0 L751.2,231.8 L751.6,325.4 L751.8,325.9 L752.2,334.4 L752.5,323.4 L752.8,266.0 L753.1,251.5 L753.4,268.4 L753.7,311.6 L754.1,259.8 L754.4,255.9 L754.7,305.9 L755.1,338.6 L755.3,312.9 L755.7,244.7 L756.0,307.5 L756.7,292.6 L757.0,273.6 L757.3,274.4 L757.7,288.9 L758.0,259.0 L758.3,261.5 L758.7,257.6 L758.9,268.0 L759.3,318.2 L759.6,311.3 L759.9,304.9 L760.2,266.4 L760.5,343.4 L760.9,270.8 L761.2,339.0 L761.5,342.1 L761.9,290.2 L762.2,303.6 L762.8,296.6 L763.1,299.4 L763.5,343.8 L763.8,298.5 L764.1,277.2 L764.5,316.4 L764.8,340.8 L765.1,300.0 L765.4,313.7 L765.7,332.5 L766.0,304.5 L766.3,317.2 L766.7,302.1 L767.0,340.9 L767.3,328.6 L767.6,343.4 L767.9,293.6 L768.2,317.6 L768.8,335.6 L769.1,296.3 L769.4,333.8 L769.7,299.2 L770.1,298.1 L770.4,323.8 L770.7,337.0 L771.1,301.6 L771.4,321.8 L771.7,317.5 L772.0,354.1 L772.3,352.1 L772.7,306.0 L772.9,307.2 L773.3,320.0 L773.6,319.7 L773.9,359.9 L774.2,318.7 L774.9,328.8 L775.2,315.4 L775.5,328.3 L775.8,347.0 L776.1,364.9 L776.4,359.0 L776.8,364.1 L777.1,358.7 L777.4,348.4 L777.7,347.8 L778.0,337.2 L778.4,361.9 L778.7,321.3 L779.0,321.5 L779.3,352.9 L779.6,340.5 L780.0,329.9 L780.3,364.9 L780.9,350.8 L781.2,338.0 L781.6,333.0 L781.9,338.2 L782.2,366.3 L782.5,350.2 L782.8,363.6 L783.2,348.9 L783.5,352.7 L783.8,363.3 L784.2,356.4 L784.5,350.3 L784.8,357.5 L785.1,349.9 L785.4,371.8 L785.7,373.0 L786.1,367.1 L786.4,369.4 L787.0,351.2 L787.3,364.4 L787.7,352.0 L788.0,360.2 L788.3,357.9 L788.6,367.2 L788.9,380.3 L789.3,362.5 L789.6,378.2 L789.9,380.2 L790.2,380.3 L790.5,364.4 L790.9,374.5 L791.2,379.1 L791.5,383.1 L791.8,382.9 L792.1,371.8 L792.5,383.4 L793.1,373.2 L793.4,382.1 L793.7,385.6 L794.0,383.5 L794.4,385.9 L794.7,382.5 L795.0,385.9 L795.3,379.3 L795.6,388.4 L795.9,383.0 L796.2,386.9 L796.6,387.9 L796.9,388.6 L797.2,387.1 L797.5,387.3 L797.8,390.8 L798.1,391.0 L798.5,391.6 L799.2,392.8 L799.6,393.0 L799.9,397.0 L800.2,395.3 L800.6,394.4 L800.9,397.7 L801.2,394.6 L801.5,399.2 L801.8,399.0 L802.2,400.7 L802.5,403.4 L802.8,401.9 L803.2,405.3 L803.5,401.0 L803.8,411.3 L804.2,410.4 L804.4,400.1 L804.8,402.1 L805.4,408.7 L805.7,407.8 L806.0,413.0 L806.3,412.9 L806.7,401.7 L807.0,402.3 L807.3,404.9 L807.6,420.5 L807.9,414.9 L808.2,420.9 L808.5,420.1 L808.9,424.0 L809.2,417.4 L809.5,423.0 L809.8,409.1 L810.1,431.6 L810.5,405.8 L810.8,411.3 L811.4,411.5 L811.7,429.4 L812.1,433.2 L812.4,443.0 L812.7,414.3 L813.1,432.1 L813.4,427.0 L813.7,426.9 L814.0,411.3 L814.3,427.9 L814.7,410.9 L815.0,444.2 L815.3,438.1 L815.6,415.5 L816.0,440.3 L816.3,438.2 L816.6,453.8 L816.8,428.0 L817.5,442.8 L817.8,459.6 L818.2,420.1 L818.5,456.9 L818.8,466.8 L819.2,422.1 L819.5,426.2 L819.8,420.9 L820.1,431.3 L820.4,439.0 L820.8,438.7 L821.1,440.0 L821.4,440.0 L821.7,473.8 L822.0,459.0 L822.4,430.8 L822.7,447.9 L823.0,431.2 L823.6,427.8 L823.9,422.9 L824.2,431.0 L824.5,439.9 L824.9,447.7 L825.2,435.0 L825.5,442.6 L825.9,461.0 L826.2,449.9 L826.5,462.2 L826.8,455.5 L827.1,428.2 L827.4,464.4 L827.7,437.0 L828.1,441.5 L828.4,475.5 L828.7,437.4 L829.0,488.0 L829.7,495.0 L830.0,496.6 L830.3,448.3 L830.7,448.4 L831.0,476.9 L831.3,446.6 L831.7,507.8 L832.0,469.3 L832.3,452.7 L832.6,504.7 L832.9,511.6 L833.2,439.4 L833.6,457.7 L833.8,507.4 L834.2,437.9 L834.5,516.2 L834.8,515.3 L835.2,465.2 L835.8,524.2 L836.1,482.9 L836.4,494.7 L836.8,471.5 L837.1,490.5 L837.4,525.1 L837.8,459.4 L838.1,473.4 L838.3,537.0 L838.6,479.6 L838.9,440.0 L839.2,535.9 L839.5,513.2 L839.9,488.9 L840.2,531.5 L840.5,474.4 L840.9,533.5 L841.2,521.8 L841.9,532.8 L842.2,510.5 L842.5,508.4 L842.8,449.2 L843.1,544.0 L843.4,472.8 L843.7,467.1 L844.0,544.0 L844.4,544.0 L844.7,498.5 L845.0,544.0 L845.4,531.1 L845.7,544.0 L846.0,529.1 L846.3,463.9 L846.6,466.2 L847.0,451.0 L847.3,528.8 L848.0,474.1 L848.2,544.0 L848.6,482.1 L848.9,544.0 L849.2,500.0 L849.5,495.3 L849.7,541.5 L850.0,542.4 L850.3,535.3 L850.6,526.3 L850.9,502.7 L851.3,465.7 L851.6,473.4 L851.9,535.3 L852.2,461.8 L852.6,520.5 L852.9,544.0 L853.5,472.0 L854.6,495.5 L854.9,522.6 L855.3,544.0 L855.6,499.3 L855.9,544.0 L856.2,544.0 L856.5,481.9 L856.9,524.3 L857.2,475.7 L857.5,544.0 L857.8,544.0 L858.1,504.8 L858.5,513.4 L858.8,465.3 L859.1,513.5 L859.5,537.6 L859.8,470.2 L860.1,489.4 L861.2,544.0 L861.5,504.5 L861.8,544.0 L862.1,483.2 L862.4,521.1 L862.7,486.3 L863.1,541.3 L863.4,516.7 L863.7,510.3 L864.0,544.0 L864.3,522.3 L864.7,522.4 L865.0,531.8 L865.3,544.0 L865.6,544.0 L865.9,544.0 L866.3,477.7 L866.6,544.0 L867.7,544.0 L868.0,544.0 L868.3,524.9 L868.6,544.0 L868.9,544.0 L869.3,544.0 L869.6,544.0 L869.9,544.0 L870.3,544.0 L870.6,544.0 L870.9,544.0 L871.2,544.0 L871.5,544.0 L871.8,544.0 L872.1,544.0 L872.4,544.0 L872.8,538.2 L873.1,544.0 L874.2,544.0 L874.5,544.0 L874.8,544.0 L875.1,544.0 L875.4,544.0 L875.7,531.5 L876.1,528.9 L876.4,538.4 L876.6,544.0 L877.0,544.0 L877.3,517.6 L877.6,544.0 L877.9,544.0 L878.2,544.0 L878.5,544.0 L878.8,508.9 L879.2,503.5 L879.5,544.0 L880.8,544.0 L881.1,544.0 L881.4,544.0 L881.7,544.0 L882.1,544.0 L882.4,544.0 L882.7,525.7 L883.0,544.0 L883.3,544.0 L883.7,544.0 L883.9,544.0 L884.3,544.0 L884.6,518.6 L884.9,544.0 L885.2,541.3 L885.5,544.0 L885.9,544.0 L886.2,544.0 L887.3,544.0 L887.7,537.4 L888.0,516.8 L888.3,542.7 L888.6,544.0 L888.9,544.0 L889.2,544.0 L889.5,544.0 L889.8,503.5 L890.1,544.0 L890.4,544.0 L890.8,539.8 L891.0,544.0 L891.4,544.0 L891.6,544.0 L892.0,544.0 L892.3,524.2 L892.6,544.0 L893.9,544.0 L894.2,544.0 L894.6,544.0 L894.9,544.0 L895.2,544.0 L895.5,544.0 L895.8,514.4 L896.2,544.0 L896.5,544.0 L896.8,544.0 L897.2,544.0 L897.5,544.0 L897.8,544.0 L898.1,544.0 L898.4,544.0 L898.8,544.0 L899.1,544.0 L899.4,544.0 L900.5,544.0 L900.8,544.0 L901.1,544.0 L901.4,544.0 L901.8,526.2 L902.1,544.0 L902.4,544.0 L902.8,544.0 L903.1,519.2 L903.4,544.0 L903.7,544.0 L904.0,544.0 L904.3,544.0 L904.6,524.9 L904.9,544.0 L905.3,544.0 L905.5,544.0 L905.9,544.0 L907.1,544.0 L907.4,544.0 L907.6,544.0 L908.0,541.7 L908.3,544.0 L908.6,544.0 L909.0,544.0 L909.3,544.0 L909.6,544.0 L909.9,544.0 L910.2,544.0 L910.6,544.0 L910.9,544.0 L911.2,544.0 L911.6,540.0 L911.9,544.0 L912.2,544.0 L912.5,544.0 L913.7,544.0 L914.0,537.1 L914.2,544.0 L914.6,544.0 L914.9,544.0 L915.2,544.0 L915.6,544.0 L915.9,544.0 L916.2,544.0 L916.5,544.0 L916.8,544.0 L917.2,544.0 L917.5,541.1 L917.8,544.0 L918.1,544.0 L918.4,544.0 L918.8,544.0 L919.1,544.0 L920.3,544.0 L920.6,544.0 L920.9,544.0 L921.2,544.0 L921.5,544.0 L921.9,544.0 L922.2,544.0 L922.5,544.0 L922.9,544.0 L923.1,544.0 L923.5,544.0 L923.8,544.0 L924.1,544.0 L924.4,544.0 L924.7,544.0 L925.1,544.0 L925.4,544.0 L925.7,544.0 L926.8,544.0 L927.2,544.0 L927.5,544.0 L927.8,544.0 L928.1,544.0 L928.4,544.0 L928.7,544.0 L929.1,544.0 L929.4,544.0 L929.7,544.0 L930.1,544.0 L930.3,544.0 L930.7,544.0 L931.0,544.0 L931.3,544.0 L931.6,544.0 L931.8,544.0 L932.1,544.0 L933.4,544.0 L933.7,544.0 L934.0,544.0 L934.4,544.0 L934.7,544.0 L935.0,544.0 L935.3,544.0 L935.7,544.0 L936.0,544.0 L936.3,544.0 L936.6,544.0 L936.9,544.0 L937.3,544.0 L937.5,544.0 L937.9,544.0 L938.2,544.0 L938.5,544.0 L938.8,544.0 L940.1,544.0 L940.4,544.0 L940.6,544.0 L941.0,544.0 L941.3,544.0 L941.6,544.0 L942.0,544.0 L942.3,544.0 L942.6,544.0 L942.9,544.0 L943.2,544.0 L943.6,544.0 L943.9,544.0 L944.2,544.0 L944.6,544.0 L944.9,544.0 L945.2,544.0 L945.5,544.0 L946.6,544.0 L946.9,544.0 L947.2,544.0 L947.5,544.0 L947.8,544.0 L948.1,544.0 L948.4,544.0 L948.7,544.0 L949.1,544.0 L949.3,544.0 L949.6,544.0 L949.9,544.0 L950.3,544.0 L950.6,544.0 L950.9,544.0 L951.3,544.0 L951.6,544.0 L951.9,544.0 L953.2,544.0 L953.5,544.0 L953.8,544.0 L954.1,544.0 L954.5,544.0 L954.8,544.0 L955.1,544.0 L955.5,544.0 L955.8,544.0 L956.1,544.0 L956.4,544.0 L956.6,544.0 L957.0,544.0 L957.3,544.0 L957.6,544.0 L957.9,544.0 L958.2,544.0 L958.5,544.0 L959.8,544.0 L960.1,544.0 L960.4,544.0 L960.7,544.0 L961.1,544.0 L961.4,544.0 L961.7,544.0 L962.1,544.0 L962.3,544.0 L962.7,544.0 L963.0,544.0 L963.3,544.0 L963.7,544.0 L964.0,544.0 L964.3,544.0 L964.6,544.0 L964.9,544.0 L965.2,544.0 L966.4,544.0 L966.7,544.0 L967.0,544.0 L967.3,544.0 L967.7,544.0 L968.0,544.0 L968.3,544.0 L968.6,544.0 L968.9,544.0 L969.3,544.0 L969.6,544.0 L969.9,544.0 L970.3,544.0 L970.5,544.0 L970.9,544.0 L971.2,544.0 L971.5,544.0 L971.8,544.0 L973.0,544.0 L973.3,544.0 L973.6,544.0 L973.9,544.0 L974.2,544.0 L974.5,544.0 L974.9,544.0 L975.2,544.0 L975.5,544.0 L975.8,544.0 L976.1,544.0 L976.4,544.0 L976.7,544.0 L977.0,544.0 L977.3,544.0 L977.6,544.0 L978.0,544.0 L978.3,544.0 L979.6,544.0 L979.9,544.0 L980.2,544.0 L980.5,544.0 L980.8,544.0 L981.2,544.0 L981.4,544.0 L981.7,544.0 L982.0,544.0 L982.4,544.0 L982.7,544.0 L983.0,544.0 L983.3,544.0 L983.7,544.0 L984.0,544.0 L984.3,544.0 L984.7,544.0 L985.0,544.0 L986.2,544.0 L986.5,544.0 L986.8,544.0 L987.1,544.0 L987.4,544.0 L987.8,544.0 L988.1,544.0 L988.4,544.0 L988.7,544.0 L989.0,544.0 L989.4,544.0 L989.7,544.0 L990.0,544.0 L990.3,544.0 L990.6,544.0 L991.0,544.0 L991.3,544.0 L991.6,544.0 L992.8,544.0 L993.0,544.0 L993.3,544.0 L993.7,544.0 L994.0,544.0 L994.2,544.0 L994.6,544.0 L994.9,544.0 L995.2,544.0 L995.5,544.0 L995.8,544.0 L996.2,544.0 L996.5,544.0 L996.8,544.0 L997.1,544.0 L997.4,544.0 L997.8,544.0 L998.1,544.0 L999.4,544.0 L999.7,544.0 L1000.0,544.0 L1000.3,544.0 L1000.6,544.0 L1000.9,544.0 L1001.2,544.0 L1001.5,544.0 L1001.9,544.0 L1002.2,544.0 L1002.5,544.0 L1002.9,544.0 L1003.2,544.0 L1003.5,544.0 L1003.8,544.0 L1004.1,544.0 L1004.4,544.0 L1004.7,544.0 L1006.0,544.0 L1006.3,544.0 L1006.6,544.0 L1006.9,544.0 L1007.2,544.0 L1007.6,544.0 L1007.9,544.0 L1008.2,544.0 L1008.6,544.0 L1008.9,544.0 L1009.2,544.0 L1009.5,544.0 L1009.8,544.0 L1010.1,544.0 L1010.5,544.0 L1010.8,544.0 L1011.1,544.0 L1011.4,544.0 L1012.6,544.0 L1012.8,544.0 L1013.2,544.0 L1013.5,544.0 L1013.8,544.0 L1014.1,544.0 L1014.4,544.0 L1014.7,544.0 L1015.0,544.0 L1015.4,544.0 L1015.7,544.0 L1016.0,544.0 L1016.3,544.0 L1016.7,544.0 L1017.0,544.0 L1017.3,544.0 L1017.6,544.0 L1017.9,544.0 L1019.2,544.0 L1019.5,544.0 L1019.8,544.0 L1020.1,544.0 L1020.4,544.0 L1020.7,544.0 L1021.1,544.0 L1021.4,544.0 L1021.7,544.0 L1022.0,544.0 L1022.4,544.0 L1022.7,544.0 L1023.0,544.0 L1023.3,544.0 L1023.6,544.0 L1023.9,544.0 L1024.2,544.0 L1024.5,544.0 L1025.9,544.0 L1026.2,544.0 L1026.5,544.0 L1026.8,544.0 L1027.1,544.0 L1027.4,544.0 L1027.7,544.0 L1028.1,544.0 L1028.4,544.0 L1028.7,544.0 L1029.1,544.0 L1029.3,544.0 L1029.7,544.0 L1030.0,544.0 L1030.3,544.0 L1030.6,544.0 L1030.9,544.0 L1031.3,544.0 L1032.5,544.0 L1032.8,544.0 L1033.2,544.0 L1033.5,544.0 L1033.8,544.0 L1034.1,544.0 L1034.4,544.0 L1034.7,544.0 L1035.0,544.0 L1035.3,544.0 L1035.6,544.0 L1036.0,544.0 L1036.3,544.0 L1036.6,544.0 L1036.9,544.0 L1037.1,544.0 L1037.5,544.0 L1037.8,544.0 L1038.1,544.0 L1039.3,544.0 L1039.6,544.0 L1039.9,544.0 L1040.2,544.0 L1040.5,544.0 L1040.8,544.0 L1041.2,544.0 L1041.5,544.0 L1041.7,544.0 L1042.0,544.0 L1042.3,544.0 L1042.7,544.0 L1043.0,544.0 L1043.3,544.0 L1043.6,544.0 L1043.9,544.0 L1044.3,544.0 L1044.6,544.0 L1045.8,544.0 L1046.2,544.0 L1046.5,544.0 L1046.8,544.0 L1047.2,544.0 L1047.5,544.0 L1047.8,544.0 L1048.1,544.0 L1048.4,544.0 L1048.7,544.0 L1049.0,544.0 L1049.3,544.0 L1049.6,544.0 L1049.9,544.0 L1050.3,544.0 L1050.6,544.0 L1050.9,544.0 L1051.3,544.0 L1052.5,544.0 L1052.8,544.0 L1053.1,544.0 L1053.5,544.0 L1053.8,544.0 L1054.1,544.0 L1054.4,544.0 L1054.7,544.0 L1055.0,544.0 L1055.4,544.0 L1055.7,544.0 L1056.0,544.0 L1056.3,544.0 L1056.6,544.0 L1056.9,544.0 L1057.2,544.0 L1057.5,544.0 L1057.8,544.0 L1059.1,544.0 L1059.4,544.0 L1059.7,544.0 L1060.1,544.0 L1060.4,544.0 L1060.7,544.0 L1061.1,544.0 L1061.4,544.0 L1061.7,544.0 L1062.0,544.0 L1062.3,544.0 L1062.7,544.0 L1063.0,544.0 L1063.3,544.0 L1063.7,544.0 L1064.0,544.0 L1064.3,544.0 L1064.6,544.0 L1065.8,544.0 L1066.1,544.0 L1066.4,544.0 L1066.7,544.0 L1067.0,544.0 L1067.4,544.0 L1067.7,544.0 L1068.0,544.0 L1068.4,544.0 L1068.6,544.0 L1069.0,544.0 L1069.3,544.0 L1069.6,544.0 L1069.9,544.0 L1070.1,544.0 L1070.5,544.0 L1070.8,544.0 L1071.1,544.0 L1072.4,544.0 L1072.7,544.0 L1073.1,544.0 L1073.4,544.0 L1073.8,544.0 L1074.1,544.0 L1074.4,544.0 L1074.7,544.0 L1075.1,544.0 L1075.3,544.0 L1075.7,544.0 L1076.0,544.0 L1076.3,544.0 L1076.7,544.0 L1077.0,544.0 L1077.3,544.0 L1077.7,544.0 L1078.6,544.0 L1079.8,544.0 L1080.1,544.0 L1080.4,544.0 L1080.7,544.0 L1081.0,544.0 L1081.3,544.0 L1081.6,544.0 L1081.9,544.0 L1082.3,544.0 L1083.3,544.0 L1083.6,544.0 L1084.0,544.0" fill="none" stroke="#1f77b4" stroke-width="1.4" opacity="0.85"/><text x="1040" y="54" fill="#ff7f0e" font-size="11">roll 43</text><text x="1090" y="558" fill="#ff7f0e" font-size="11">-12</text><path d="M636.0,445.4 L636.3,439.4 L636.7,448.0 L637.0,441.1 L637.3,445.4 L637.7,442.9 L638.0,440.3 L638.3,440.3 L638.7,438.6 L639.0,438.6 L639.3,438.6 L639.7,435.1 L640.0,441.1 L640.3,436.0 L640.7,433.4 L641.0,430.0 L641.3,423.1 L641.6,425.7 L641.8,421.4 L642.2,425.7 L642.4,413.7 L642.7,428.3 L643.0,415.4 L643.3,427.4 L643.5,409.4 L643.9,401.7 L644.2,412.0 L644.5,388.0 L644.8,375.1 L645.0,388.9 L645.3,401.7 L645.6,415.4 L645.9,402.6 L646.2,412.9 L646.5,384.6 L646.9,363.1 L647.2,382.0 L647.5,336.6 L647.8,314.3 L648.0,382.0 L648.3,388.9 L648.6,345.1 L649.0,318.6 L649.2,304.0 L649.5,336.6 L649.8,267.1 L650.1,379.4 L650.4,302.3 L650.6,308.3 L651.0,329.7 L651.3,237.1 L651.5,265.4 L651.8,311.7 L652.1,216.6 L652.4,358.0 L652.7,239.7 L653.0,353.7 L653.3,264.6 L653.6,261.1 L653.9,334.9 L654.2,264.6 L654.5,278.3 L654.7,298.0 L655.1,346.0 L655.3,188.3 L655.7,238.9 L656.0,214.0 L656.2,185.7 L656.5,166.0 L656.8,256.9 L657.1,185.7 L657.3,182.3 L657.6,168.6 L657.9,214.0 L658.2,163.4 L658.5,262.9 L658.8,256.9 L659.1,256.0 L659.3,173.7 L659.6,183.1 L659.9,160.0 L660.2,184.0 L660.4,313.4 L660.8,148.0 L661.0,248.3 L661.3,318.6 L661.6,218.3 L661.9,187.4 L662.1,218.3 L662.4,122.3 L662.8,232.9 L663.1,143.7 L663.4,132.6 L663.7,323.7 L664.0,237.1 L664.4,238.0 L664.7,165.1 L665.0,298.0 L665.4,174.6 L665.7,222.6 L666.0,154.0 L666.4,288.6 L666.7,226.9 L667.0,132.6 L667.4,156.6 L667.6,217.4 L668.0,176.3 L668.2,94.9 L668.6,174.6 L668.9,318.6 L669.2,278.3 L669.6,172.0 L669.9,145.4 L670.2,173.7 L670.5,149.7 L670.8,140.3 L671.1,325.4 L671.3,272.3 L671.6,76.0 L671.9,233.7 L672.2,318.6 L672.5,144.6 L672.8,119.7 L673.1,118.9 L673.4,297.1 L673.8,85.4 L674.1,237.1 L674.4,262.9 L674.8,188.3 L675.1,198.6 L675.4,141.1 L675.8,100.0 L676.1,102.6 L676.4,293.7 L676.8,130.0 L677.1,119.7 L677.4,444.6 L677.7,402.6 L678.0,386.3 L678.3,385.4 L678.6,338.3 L678.9,371.7 L679.2,387.1 L679.5,301.4 L679.9,316.9 L680.2,386.3 L680.5,375.1 L680.9,352.0 L681.2,373.4 L681.6,292.0 L681.9,340.9 L682.2,380.3 L682.6,313.4 L682.9,270.6 L683.2,339.1 L683.5,358.9 L683.9,374.3 L684.2,309.1 L684.5,334.9 L684.8,370.0 L685.1,344.3 L685.5,350.3 L685.8,358.0 L686.1,326.3 L686.5,372.6 L686.8,406.9 L687.1,421.4 L687.4,378.6 L687.7,403.4 L688.0,392.3 L688.3,380.3 L688.7,366.6 L689.0,426.6 L689.3,423.1 L689.7,417.1 L690.0,435.1 L690.3,418.0 L690.6,415.4 L690.9,412.9 L691.2,400.9 L691.5,407.7 L691.8,406.9 L692.2,421.4 L692.5,389.7 L692.8,422.3 L693.2,407.7 L693.5,426.6 L693.8,449.7 L694.1,441.1 L694.4,436.9 L694.8,439.4 L695.1,430.9 L695.4,419.7 L695.7,448.0 L696.0,463.4 L696.3,448.9 L696.6,460.0 L697.0,460.0 L697.3,440.3 L697.6,416.3 L698.0,436.9 L698.3,461.7 L698.6,431.7 L698.9,445.4 L699.2,446.3 L699.5,464.3 L699.9,460.9 L700.2,479.7 L700.5,478.0 L700.8,472.9 L701.2,466.9 L701.5,509.7 L701.8,458.3 L702.1,495.1 L702.4,463.4 L702.7,432.6 L703.1,467.7 L703.4,455.7 L703.8,433.4 L704.1,432.6 L704.4,435.1 L704.8,433.4 L705.1,434.3 L705.4,441.1 L705.8,469.4 L706.1,475.4 L706.4,497.7 L706.7,492.6 L707.0,448.0 L707.3,447.1 L707.7,436.0 L708.0,443.7 L708.3,455.7 L708.7,436.0 L709.0,459.1 L709.3,449.7 L709.7,476.3 L710.0,457.4 L710.3,464.3 L710.6,473.7 L711.0,458.3 L711.3,469.4 L711.6,476.3 L711.9,459.1 L712.2,449.7 L712.5,452.3 L712.9,450.6 L713.2,467.7 L713.5,460.9 L713.9,479.7 L714.2,523.4 L714.5,480.6 L714.8,454.0 L715.1,447.1 L715.5,427.4 L715.7,443.7 L716.1,443.7 L716.4,478.9 L716.7,452.3 L717.1,445.4 L717.4,448.0 L717.7,468.6 L718.0,469.4 L718.3,477.1 L718.6,506.3 L719.0,502.0 L719.2,497.7 L719.6,517.4 L719.9,521.7 L720.2,520.9 L720.6,527.7 L720.9,516.6 L721.3,443.7 L721.6,460.0 L721.9,449.7 L722.2,442.9 L722.6,445.4 L722.9,493.4 L723.2,460.0 L723.5,466.0 L723.8,496.0 L724.2,496.0 L724.4,463.4 L724.8,511.4 L725.0,464.3 L725.3,488.3 L725.6,478.9 L725.9,455.7 L726.2,466.9 L726.5,434.3 L727.1,449.7 L727.4,466.9 L727.7,465.1 L728.0,484.0 L728.3,487.4 L728.6,500.3 L729.0,461.7 L729.3,470.3 L729.6,470.3 L729.9,458.3 L730.2,462.6 L730.6,510.6 L730.9,495.1 L731.2,517.4 L731.5,483.1 L731.8,484.0 L732.1,479.7 L732.5,466.0 L732.9,446.3 L733.2,454.0 L733.5,453.1 L733.8,451.4 L734.1,448.9 L734.5,454.0 L734.8,454.0 L735.1,454.0 L735.4,457.4 L735.7,467.7 L736.0,496.9 L736.3,469.4 L736.6,471.1 L736.9,524.3 L737.3,466.9 L737.6,496.9 L737.9,482.3 L738.2,470.3 L738.7,458.3 L739.0,491.7 L739.3,467.7 L739.7,460.9 L740.0,476.3 L740.3,460.0 L740.6,451.4 L740.9,460.0 L741.3,439.4 L741.6,455.7 L741.9,427.4 L742.3,437.7 L742.5,439.4 L742.9,438.6 L743.2,451.4 L743.5,462.6 L743.9,459.1 L744.2,484.9 L744.6,465.1 L744.9,471.1 L745.1,468.6 L745.5,486.6 L745.8,453.1 L746.1,467.7 L746.5,484.0 L746.8,472.9 L747.1,507.1 L747.5,454.9 L747.8,452.3 L748.1,484.0 L748.4,462.6 L748.7,472.9 L749.1,467.7 L749.4,498.6 L749.7,474.6 L750.1,460.0 L750.6,468.6 L750.9,472.0 L751.2,466.0 L751.6,456.6 L751.8,443.7 L752.2,440.3 L752.5,445.4 L752.8,453.1 L753.1,416.3 L753.4,421.4 L753.7,406.0 L754.1,412.0 L754.4,427.4 L754.7,421.4 L755.0,429.1 L755.3,436.9 L755.7,443.7 L756.0,430.9 L756.7,458.3 L757.0,441.1 L757.3,436.9 L757.7,439.4 L758.0,441.1 L758.3,446.3 L758.6,433.4 L758.9,445.4 L759.3,438.6 L759.6,418.9 L759.9,427.4 L760.2,442.9 L760.5,448.9 L760.9,458.3 L761.2,446.3 L761.5,455.7 L761.9,503.7 L762.2,470.3 L762.8,501.1 L763.1,509.7 L763.5,485.7 L763.8,459.1 L764.1,443.7 L764.5,439.4 L764.7,434.3 L765.1,454.0 L765.4,457.4 L765.7,468.6 L766.0,450.6 L766.3,454.0 L766.7,465.1 L767.0,447.1 L767.3,427.4 L767.6,421.4 L767.9,433.4 L768.2,415.4 L768.8,455.7 L769.1,460.0 L769.4,473.7 L769.7,443.7 L770.1,447.1 L770.4,445.4 L770.7,452.3 L771.1,451.4 L771.4,466.9 L771.7,460.0 L772.0,445.4 L772.3,429.1 L772.7,414.6 L772.9,428.3 L773.3,424.9 L773.6,445.4 L773.9,454.0 L774.2,442.0 L774.9,386.3 L775.2,436.9 L775.5,448.9 L775.8,424.0 L776.1,427.4 L776.4,442.9 L776.8,438.6 L777.1,420.6 L777.4,426.6 L777.7,447.1 L778.0,443.7 L778.4,442.9 L778.7,446.3 L779.0,451.4 L779.3,448.9 L779.6,435.1 L780.0,448.0 L780.3,442.9 L780.9,400.9 L781.2,434.3 L781.6,424.0 L781.9,436.9 L782.2,402.6 L782.5,406.9 L782.8,415.4 L783.2,424.9 L783.5,446.3 L783.8,449.7 L784.2,477.1 L784.5,462.6 L784.8,448.0 L785.1,460.9 L785.4,450.6 L785.7,443.7 L786.1,432.6 L786.4,418.0 L787.0,446.3 L787.3,446.3 L787.7,437.7 L788.0,426.6 L788.3,418.0 L788.6,410.3 L788.9,425.7 L789.3,422.3 L789.6,390.6 L789.9,426.6 L790.2,441.1 L790.5,448.0 L790.9,466.9 L791.2,443.7 L791.5,436.9 L791.8,435.1 L792.1,415.4 L792.5,443.7 L793.1,443.7 L793.4,414.6 L793.7,447.1 L794.0,446.3 L794.4,430.0 L794.7,436.0 L795.0,428.3 L795.3,422.3 L795.6,396.6 L795.9,383.7 L796.2,397.4 L796.6,405.1 L796.9,408.6 L797.2,369.1 L797.5,353.7 L797.8,313.4 L798.1,391.4 L798.5,326.3 L799.2,288.6 L799.6,376.0 L799.9,390.6 L800.2,322.9 L800.6,339.1 L800.9,318.6 L801.2,366.6 L801.5,374.3 L801.8,377.7 L802.2,397.4 L802.5,398.3 L802.8,411.1 L803.2,400.9 L803.5,415.4 L803.8,429.1 L804.2,408.6 L804.4,416.3 L804.8,416.3 L805.4,454.0 L805.7,430.9 L806.0,422.3 L806.3,409.4 L806.7,393.1 L807.0,400.9 L807.3,411.1 L807.6,435.1 L807.9,437.7 L808.2,429.1 L808.5,421.4 L808.9,407.7 L809.2,429.1 L809.5,418.9 L809.8,395.7 L810.1,357.1 L810.5,341.7 L810.8,404.3 L811.4,394.0 L811.7,393.1 L812.1,440.3 L812.4,431.7 L812.7,442.9 L813.1,438.6 L813.4,429.1 L813.7,420.6 L814.0,421.4 L814.3,438.6 L814.7,390.6 L815.0,398.3 L815.3,390.6 L815.6,384.6 L816.0,400.0 L816.3,429.1 L816.6,438.6 L816.8,439.4 L817.5,383.7 L817.8,415.4 L818.2,426.6 L818.5,428.3 L818.8,433.4 L819.2,424.9 L819.5,446.3 L819.8,413.7 L820.1,424.0 L820.4,395.7 L820.8,435.1 L821.1,430.0 L821.4,435.1 L821.7,430.0 L822.0,423.1 L822.4,448.0 L822.7,452.3 L823.0,457.4 L823.6,486.6 L823.9,503.7 L824.2,465.1 L824.5,486.6 L824.9,526.0 L825.2,459.1 L825.5,489.1 L825.9,457.4 L826.2,442.0 L826.5,424.0 L826.8,396.6 L827.1,402.6 L827.4,419.7 L827.7,436.9 L828.1,434.3 L828.4,426.6 L828.7,443.7 L829.0,456.6 L829.7,484.9 L830.0,488.3 L830.3,447.1 L830.7,467.7 L831.0,503.7 L831.3,500.3 L831.7,507.1 L832.0,457.4 L832.3,484.0 L832.6,453.1 L832.9,448.0 L833.2,490.9 L833.6,448.9 L833.8,423.1 L834.2,406.0 L834.5,408.6 L834.8,412.0 L835.2,430.0 L835.8,451.4 L836.1,453.1 L836.4,448.0 L836.8,456.6 L837.1,432.6 L837.4,448.9 L837.8,446.3 L838.0,429.1 L838.3,420.6 L838.6,443.7 L838.9,430.0 L839.2,420.6 L839.5,442.0 L839.9,409.4 L840.2,437.7 L840.5,432.6 L840.9,404.3 L841.2,416.3 L841.9,403.4 L842.2,412.0 L842.5,406.0 L842.8,412.0 L843.1,413.7 L843.4,424.9 L843.7,437.7 L844.0,469.4 L844.4,448.9 L844.7,446.3 L845.0,449.7 L845.4,427.4 L845.7,444.6 L846.0,452.3 L846.3,447.1 L846.6,484.0 L847.0,474.6 L847.3,453.1 L848.0,393.1 L848.2,417.1 L848.6,441.1 L848.9,441.1 L849.2,449.7 L849.5,454.0 L849.7,461.7 L850.0,479.7 L850.3,454.0 L850.6,448.0 L850.9,445.4 L851.3,448.9 L851.6,457.4 L851.9,457.4 L852.2,441.1 L852.5,423.1 L852.9,396.6 L853.5,448.9 L854.6,483.1 L854.9,480.6 L855.3,536.3 L855.6,502.9 L855.9,450.6 L856.2,447.1 L856.5,436.0 L856.9,443.7 L857.2,432.6 L857.5,435.1 L857.8,438.6 L858.1,439.4 L858.5,448.9 L858.8,463.4 L859.1,436.9 L859.5,463.4 L859.8,448.0 L860.1,437.7 L861.2,510.6 L861.5,512.3 L861.7,450.6 L862.1,484.0 L862.4,487.4 L862.7,472.9 L863.1,484.0 L863.4,453.1 L863.7,458.3 L864.0,444.6 L864.3,427.4 L864.7,402.6 L865.0,414.6 L865.3,432.6 L865.6,443.7 L865.9,435.1 L866.3,446.3 L866.6,448.9 L867.7,418.9 L868.0,413.7 L868.3,392.3 L868.6,423.1 L868.9,406.0 L869.3,430.0 L869.6,438.6 L869.9,415.4 L870.3,407.7 L870.5,386.3 L870.9,418.0 L871.2,412.0 L871.5,399.1 L871.8,440.3 L872.1,441.1 L872.4,420.6 L872.8,430.0 L873.1,433.4 L874.2,520.9 L874.5,496.9 L874.8,473.7 L875.1,476.3 L875.4,493.4 L875.7,483.1 L876.1,480.6 L876.4,461.7 L876.6,456.6 L877.0,442.9 L877.3,448.9 L877.6,449.7 L877.9,442.9 L878.2,423.1 L878.5,449.7 L878.8,467.7 L879.2,460.0 L879.5,460.0 L880.8,429.1 L881.1,412.9 L881.4,422.3 L881.7,387.1 L882.1,409.4 L882.4,440.3 L882.7,456.6 L883.0,443.7 L883.3,449.7 L883.7,433.4 L883.9,442.9 L884.3,430.9 L884.6,411.1 L884.9,408.6 L885.2,427.4 L885.5,421.4 L885.9,438.6 L886.2,448.9 L887.3,416.3 L887.6,421.4 L888.0,412.9 L888.3,385.4 L888.6,428.3 L888.9,416.3 L889.2,457.4 L889.5,456.6 L889.8,442.0 L890.1,456.6 L890.4,457.4 L890.8,430.0 L891.0,454.9 L891.4,460.9 L891.6,479.7 L892.0,502.9 L892.3,461.7 L892.6,473.7 L893.9,406.9 L894.2,391.4 L894.6,418.9 L894.9,425.7 L895.2,449.7 L895.5,454.9 L895.8,436.0 L896.2,443.7 L896.5,451.4 L896.8,462.6 L897.2,456.6 L897.5,445.4 L897.8,454.0 L898.1,470.3 L898.4,453.1 L898.8,472.0 L899.1,459.1 L899.4,446.3 L900.5,389.7 L900.8,398.3 L901.1,411.1 L901.4,424.9 L901.8,403.4 L902.1,392.3 L902.4,436.9 L902.8,435.1 L903.1,441.1 L903.4,438.6 L903.7,462.6 L904.0,468.6 L904.3,465.1 L904.6,449.7 L904.9,498.6 L905.3,472.0 L905.5,490.9 L905.9,492.6 L907.1,376.9 L907.4,426.6 L907.6,425.7 L908.0,416.3 L908.3,391.4 L908.6,440.3 L909.0,439.4 L909.3,463.4 L909.6,485.7 L909.9,467.7 L910.2,480.6 L910.6,485.7 L910.9,473.7 L911.2,436.9 L911.6,443.7 L911.9,469.4 L912.2,454.0 L912.5,449.7 L913.7,480.6 L914.0,530.3 L914.2,502.9 L914.6,484.9 L914.9,454.0 L915.2,490.9 L915.6,510.6 L915.9,473.7 L916.2,466.0 L916.5,472.9 L916.8,451.4 L917.2,485.7 L917.5,492.6 L917.8,457.4 L918.1,442.9 L918.4,440.3 L918.8,437.7 L919.1,448.0 L920.3,362.3 L920.6,415.4 L920.9,418.9 L921.2,378.6 L921.5,415.4 L921.9,408.6 L922.2,437.7 L922.5,439.4 L922.9,435.1 L923.1,462.6 L923.5,460.0 L923.8,444.6 L924.1,441.1 L924.4,440.3 L924.7,445.4 L925.1,453.1 L925.4,453.1 L925.7,453.1 L926.8,544.0 L927.2,500.3 L927.5,512.3 L927.8,466.0 L928.1,467.7 L928.4,441.1 L928.7,434.3 L929.1,436.0 L929.4,435.1 L929.7,430.0 L930.1,445.4 L930.3,448.0 L930.7,443.7 L931.0,411.1 L931.3,431.7 L931.6,451.4 L931.8,452.3 L932.1,446.3 L933.4,388.0 L933.7,421.4 L934.0,413.7 L934.4,415.4 L934.7,405.1 L935.0,423.1 L935.3,391.4 L935.6,420.6 L936.0,437.7 L936.3,451.4 L936.6,437.7 L936.9,440.3 L937.3,419.7 L937.5,419.7 L937.9,432.6 L938.2,438.6 L938.5,442.0 L938.8,491.7 L940.1,425.7 L940.4,442.9 L940.6,444.6 L941.0,448.9 L941.3,468.6 L941.6,450.6 L942.0,475.4 L942.3,511.4 L942.6,484.9 L942.9,465.1 L943.2,473.7 L943.6,437.7 L943.9,426.6 L944.2,430.0 L944.6,428.3 L944.9,421.4 L945.2,425.7 L945.5,430.0 L946.6,340.9 L946.9,388.0 L947.2,390.6 L947.5,421.4 L947.8,437.7 L948.1,454.9 L948.4,453.1 L948.7,491.7 L949.0,467.7 L949.3,486.6 L949.6,478.9 L949.9,473.7 L950.3,461.7 L950.6,481.4 L950.9,449.7 L951.3,445.4 L951.5,452.3 L951.9,448.9 L953.2,516.6 L953.5,480.6 L953.8,478.9 L954.1,485.7 L954.5,472.0 L954.8,460.9 L955.1,448.0 L955.5,430.0 L955.8,455.7 L956.1,449.7 L956.4,470.3 L956.6,479.7 L957.0,443.7 L957.2,441.1 L957.6,425.7 L957.9,446.3 L958.2,457.4 L958.5,462.6 L959.8,395.7 L960.1,421.4 L960.4,364.9 L960.7,367.4 L961.1,406.0 L961.4,405.1 L961.7,403.4 L962.1,408.6 L962.3,435.1 L962.7,430.9 L963.0,401.7 L963.3,436.9 L963.7,429.1 L963.9,382.9 L964.3,404.3 L964.6,440.3 L964.9,442.9 L965.2,442.0 L966.4,392.3 L966.7,423.1 L967.0,448.0 L967.3,453.1 L967.7,460.0 L968.0,459.1 L968.3,442.9 L968.6,441.1 L968.9,457.4 L969.3,452.3 L969.6,449.7 L969.9,438.6 L970.3,425.7 L970.5,400.0 L970.9,423.1 L971.2,455.7 L971.5,446.3 L971.8,447.1 L973.0,403.4 L973.2,415.4 L973.6,418.0 L973.9,435.1 L974.2,439.4 L974.5,436.0 L974.8,423.1 L975.2,446.3 L975.5,445.4 L975.8,444.6 L976.1,424.9 L976.4,443.7 L976.7,420.6 L977.0,436.0 L977.3,421.4 L977.6,442.9 L977.9,427.4 L978.3,442.0 L979.6,538.0 L979.9,471.1 L980.2,500.3 L980.5,476.3 L980.8,454.9 L981.2,475.4 L981.4,448.0 L981.7,424.9 L982.0,407.7 L982.4,413.7 L982.7,430.0 L983.0,441.1 L983.3,433.4 L983.7,428.3 L984.0,400.9 L984.3,394.0 L984.6,393.1 L985.0,438.6 L986.2,502.9 L986.5,485.7 L986.8,524.3 L987.1,499.4 L987.4,489.1 L987.7,498.6 L988.1,450.6 L988.4,490.0 L988.7,454.0 L989.0,460.9 L989.4,471.1 L989.7,469.4 L990.0,444.6 L990.3,461.7 L990.6,442.9 L991.0,427.4 L991.3,435.1 L991.6,448.9 L992.8,521.7 L993.0,460.0 L993.3,460.0 L993.7,453.1 L994.0,478.0 L994.2,436.9 L994.6,447.1 L994.9,460.9 L995.2,470.3 L995.5,482.3 L995.8,469.4 L996.2,518.3 L996.4,489.1 L996.8,461.7 L997.1,460.9 L997.4,421.4 L997.8,408.6 L998.1,434.3 L999.4,303.1 L999.7,405.1 L1000.0,411.1 L1000.3,411.1 L1000.6,386.3 L1000.9,407.7 L1001.2,416.3 L1001.5,417.1 L1001.9,443.7 L1002.2,436.9 L1002.5,441.1 L1002.9,465.1 L1003.2,434.3 L1003.5,433.4 L1003.8,447.1 L1004.1,460.9 L1004.4,464.3 L1004.7,479.7 L1006.0,394.9 L1006.3,414.6 L1006.6,412.9 L1006.9,424.0 L1007.2,426.6 L1007.6,412.0 L1007.9,427.4 L1008.2,414.6 L1008.6,415.4 L1008.9,425.7 L1009.2,430.9 L1009.5,442.9 L1009.8,426.6 L1010.1,446.3 L1010.4,451.4 L1010.8,457.4 L1011.1,471.1 L1011.4,462.6 L1012.6,486.6 L1012.8,483.1 L1013.2,471.1 L1013.5,474.6 L1013.8,473.7 L1014.1,524.3 L1014.4,500.3 L1014.7,462.6 L1015.0,458.3 L1015.4,440.3 L1015.7,431.7 L1016.0,438.6 L1016.3,426.6 L1016.6,403.4 L1017.0,391.4 L1017.3,430.0 L1017.6,436.0 L1017.9,418.9 L1019.2,522.6 L1019.5,462.6 L1019.8,459.1 L1020.1,485.7 L1020.4,450.6 L1020.7,458.3 L1021.1,480.6 L1021.4,443.7 L1021.7,450.6 L1022.0,450.6 L1022.4,444.6 L1022.7,437.7 L1023.0,430.9 L1023.3,409.4 L1023.6,410.3 L1023.9,445.4 L1024.2,432.6 L1024.5,442.0 L1025.9,394.0 L1026.2,384.6 L1026.5,361.4 L1026.8,398.3 L1027.1,416.3 L1027.4,406.0 L1027.7,396.6 L1028.1,407.7 L1028.4,442.0 L1028.7,462.6 L1029.1,458.3 L1029.3,446.3 L1029.7,463.4 L1030.0,437.7 L1030.3,448.0 L1030.6,472.9 L1030.9,452.3 L1031.3,471.1 L1032.5,388.9 L1032.8,354.6 L1033.1,339.1 L1033.5,420.6 L1033.8,358.9 L1034.1,390.6 L1034.4,401.7 L1034.7,435.1 L1035.0,449.7 L1035.3,436.9 L1035.6,460.0 L1036.0,443.7 L1036.3,436.0 L1036.6,430.9 L1036.9,437.7 L1037.1,447.1 L1037.5,469.4 L1037.8,480.6 L1038.1,487.4 L1039.3,486.6 L1039.6,468.6 L1039.9,465.1 L1040.2,475.4 L1040.5,512.3 L1040.8,457.4 L1041.2,472.9 L1041.5,512.3 L1041.7,478.0 L1042.0,481.4 L1042.3,482.3 L1042.7,488.3 L1043.0,482.3 L1043.3,492.6 L1043.6,467.7 L1043.9,467.7 L1044.3,467.7 L1044.6,490.9 L1045.8,533.7 L1046.2,523.4 L1046.5,495.1 L1046.8,454.9 L1047.2,456.6 L1047.5,450.6 L1047.8,447.1 L1048.1,442.0 L1048.4,438.6 L1048.7,448.9 L1049.0,440.3 L1049.3,446.3 L1049.6,418.9 L1049.9,420.6 L1050.3,405.1 L1050.6,426.6 L1050.9,400.9 L1051.3,397.4 L1052.5,430.9 L1052.8,420.6 L1053.1,395.7 L1053.5,416.3 L1053.8,412.0 L1054.1,445.4 L1054.4,431.7 L1054.7,426.6 L1055.0,444.6 L1055.3,460.0 L1055.7,464.3 L1056.0,474.6 L1056.3,493.4 L1056.6,477.1 L1056.9,470.3 L1057.2,494.3 L1057.5,448.0 L1057.8,445.4 L1059.1,387.1 L1059.4,387.1 L1059.7,425.7 L1060.1,408.6 L1060.4,407.7 L1060.7,422.3 L1061.1,425.7 L1061.4,423.1 L1061.7,416.3 L1062.0,430.0 L1062.3,404.3 L1062.7,424.0 L1063.0,436.0 L1063.3,445.4 L1063.7,450.6 L1064.0,442.0 L1064.3,435.1 L1064.6,430.9 L1065.8,526.0 L1066.1,515.7 L1066.4,520.0 L1066.7,480.6 L1067.0,495.1 L1067.4,473.7 L1067.7,457.4 L1068.0,446.3 L1068.4,457.4 L1068.6,438.6 L1069.0,442.9 L1069.3,416.3 L1069.6,430.0 L1069.9,443.7 L1070.1,436.0 L1070.5,418.9 L1070.8,394.0 L1071.1,388.9 L1072.4,482.3 L1072.7,481.4 L1073.1,464.3 L1073.4,460.0 L1073.8,466.0 L1074.1,466.0 L1074.4,446.3 L1074.7,449.7 L1075.1,454.0 L1075.3,438.6 L1075.7,435.1 L1076.0,439.4 L1076.3,397.4 L1076.7,372.6 L1077.0,430.0 L1077.3,430.0 L1077.7,446.3 L1078.6,530.3 L1079.8,407.7 L1080.0,436.0 L1080.4,435.1 L1080.7,397.4 L1081.0,436.0 L1081.3,452.3 L1081.6,440.3 L1081.9,440.3 L1082.3,449.7 L1083.3,425.7 L1083.6,420.6 L1084.0,423.1" fill="none" stroke="#ff7f0e" stroke-width="1.1" opacity="0.85"/><text x="616" y="572" font-size="11" fill="#888">time 0..85 s — altitude (blue) &amp; roll (orange)</text></svg>