<svg xmlns="http://www.w3.org/2000/svg" width="1140" height="600" font-family="sans-serif" font-size="13"><rect width="1140" height="600" fill="white"/><text x="20" y="26" font-size="15" fill="#333">Coludo flight</text><rect x="20" y="40" width="540" height="540" fill="#fbfbfb" stroke="#ddd"/><rect x="50" y="229" width="480" height="103" fill="#cde" stroke="#369" opacity="0.7"/><text x="50" y="224" fill="#369" font-size="12">landing zone</text><circle cx="354" cy="391" r="5" fill="black"/><text x="362" y="395" font-size="12">pad</text><path d="M354.9,390.5 L354.9,390.5 L354.9,390.5 L354.9,390.5 L354.9,390.5 L354.9,390.5 L354.9,390.5 L354.9,390.5 L354.9,390.5 L354.9,390.5 L354.9,390.5 L354.9,390.5 L354.9,390.5 L354.9,390.5 L354.9,390.5 L354.9,390.5 L354.9,390.5 L354.9,390.5 L354.9,390.5 L354.9,390.5 L354.9,390.5 L354.9,390.5 L354.9,390.5 L354.9,390.5 L354.9,390.5 L354.9,390.5 L354.9,390.5 L354.9,390.5 L354.9,390.5 L354.9,390.5 L354.9,390.5 L354.9,390.5 L354.9,390.5 L354.9,390.5 L354.9,390.5 L354.9,390.5 L354.9,390.5 L354.9,390.5 L354.9,390.5 L354.9,390.5 L354.9,390.5 L354.9,390.5 L354.9,390.5 L354.9,390.5 L354.9,390.5 L354.9,390.5 L354.9,390.5 L354.9,390.5 L354.9,390.5 L354.9,390.5 L354.9,390.5 L354.9,390.5 L354.9,390.5 L356.4,387.6 L357.4,384.7 L360.0,380.7 L362.6,376.7 L364.7,373.3 L367.8,369.9 L370.3,365.9 L372.9,363.0 L372.9,359.6 L375.5,356.2 L380.7,352.7 L381.2,349.9 L385.8,346.4 L388.4,343.6 L389.4,340.2 L391.0,336.7 L396.1,333.3 L397.7,329.9 L401.3,327.0 L403.9,323.6 L406.5,320.7 L409.0,317.3 L414.2,314.4 L416.3,311.6 L416.8,308.1 L421.9,305.3 L422.4,302.4 L427.1,299.0 L429.7,296.7 L432.2,293.9 L434.8,291.6 L439.0,289.3 L442.6,286.4 L445.1,284.1 L449.3,281.8 L452.9,279.0 L455.5,276.7 L458.0,274.4 L463.2,271.6 L463.7,269.8 L468.4,267.6" fill="none" stroke="#1f77b4" stroke-width="1.7" opacity="0.85"/><circle cx="468" cy="268" r="4.5" fill="#1f77b4"/><text x="28" y="572" font-size="11" fill="#888">ground track — m from pad (N up)</text><rect x="580" y="40" width="540" height="540" fill="#fbfbfb" stroke="#ddd"/><text x="586" y="54" fill="#1f77b4" font-size="11">alt 153</text><text x="586" y="558" fill="#1f77b4" font-size="11">2</text><path d="M750.6,543.1 L752.4,544.0 L754.2,542.4 L756.0,542.5 L757.6,540.4 L759.2,538.9 L760.8,537.5 L762.6,537.2 L764.2,534.2 L765.7,531.5 L767.2,530.8 L768.8,525.6 L770.3,523.1 L772.2,521.5 L774.0,520.4 L775.9,516.0 L777.7,508.6 L779.6,505.4 L781.2,498.1 L783.0,492.8 L784.6,491.2 L786.4,487.9 L788.2,484.8 L790.1,470.9 L792.0,465.6 L793.8,466.1 L795.7,444.1 L797.5,455.2 L799.4,436.9 L801.2,429.1 L803.1,432.7 L804.9,417.7 L806.5,412.2 L808.3,404.1 L809.9,395.7 L811.7,395.3 L813.6,362.1 L815.4,367.2 L817.3,374.5 L819.1,363.8 L821.0,339.1 L822.9,318.8 L824.7,329.1 L826.6,315.3 L828.4,288.8 L830.3,312.1 L832.1,310.4 L834.0,274.3 L835.8,273.3 L837.7,272.3 L839.3,257.4 L841.1,248.2 L842.7,246.8 L844.5,252.7 L846.1,231.3 L847.9,271.4 L849.5,263.6 L851.3,209.5 L853.1,247.2 L855.0,225.4 L856.9,194.1 L858.7,244.9 L860.6,210.8 L862.4,227.0 L864.3,230.5 L866.1,211.9 L868.0,173.3 L869.8,209.8 L871.7,188.7 L873.5,194.8 L875.4,168.1 L877.2,153.5 L879.1,127.6 L881.0,163.7 L882.8,195.7 L884.7,189.7 L886.5,117.9 L888.4,135.1 L890.2,130.8 L892.1,159.2 L893.9,115.1 L895.8,100.5 L897.4,165.6 L899.2,90.9 L900.8,94.7 L902.3,121.9 L903.8,124.1 L905.7,84.5 L907.5,132.5 L909.4,144.9 L911.2,141.5 L913.1,154.0 L915.0,89.9 L916.8,150.5 L918.4,84.7 L920.2,99.6 L921.8,93.3 L923.6,126.0 L925.2,128.6 L927.0,151.8 L928.6,105.5 L930.4,122.6 L932.0,92.9 L933.8,111.1 L935.4,80.7 L937.2,126.4 L938.6,92.5 L940.3,144.0 L942.2,92.6 L944.0,115.3 L945.9,145.4 L947.7,131.0 L949.6,111.0 L951.4,138.7 L953.3,116.4 L955.1,150.2 L957.0,82.1 L958.8,105.4 L960.7,119.2 L962.5,136.3 L964.4,136.2 L966.3,115.7 L968.1,94.7 L970.5,96.4 L972.1,150.1 L974.0,120.0 L975.8,97.3 L977.7,115.6 L979.5,88.8 L981.4,121.0 L983.0,81.0 L984.5,92.0 L986.3,77.2 L988.2,131.2 L990.1,81.1 L991.9,79.0 L993.8,90.7 L995.6,135.9 L997.5,76.0 L999.3,138.9 L1001.2,83.9 L1003.0,137.7 L1004.9,90.8 L1006.7,160.7 L1008.6,107.9 L1010.4,152.3 L1012.3,134.0 L1014.2,146.3 L1016.0,116.9 L1017.9,139.3 L1019.5,112.8 L1021.3,142.4 L1022.9,100.1 L1024.7,112.7 L1026.2,132.7 L1028.1,104.0 L1029.9,126.7 L1031.8,112.7 L1034.0,104.2 L1035.8,100.1 L1037.7,116.3 L1039.3,136.2 L1041.0,121.8 L1042.6,135.2 L1044.4,99.0 L1047.0,151.1 L1048.8,163.7 L1050.3,118.5 L1052.2,101.1 L1054.0,115.7 L1055.9,111.5 L1057.4,158.9 L1059.3,108.0 L1060.8,118.0 L1062.7,102.9 L1064.5,104.3 L1066.4,109.3 L1067.9,119.7 L1069.8,172.7 L1071.3,149.4 L1073.2,134.4 L1075.0,108.8 L1076.9,113.0 L1078.4,139.6 L1080.4,107.3 L1082.1,162.2 L1084.0,167.9" fill="none" stroke="#1f77b4" stroke-width="1.4" opacity="0.85"/><text x="1040" y="54" fill="#ff7f0e" font-size="11">roll 16</text><text x="1090" y="558" fill="#ff7f0e" font-size="11">-0</text><path d="M750.6,544.0 L752.4,541.0 L754.2,541.0 L756.0,541.0 L757.6,538.0 L759.2,538.0 L760.7,538.0 L762.6,541.0 L764.1,541.0 L765.7,538.0 L767.2,541.0 L768.8,541.0 L770.3,544.0 L772.2,538.0 L774.0,541.0 L775.9,544.0 L777.7,541.0 L779.6,544.0 L781.2,538.0 L783.0,541.0 L784.6,538.0 L786.4,538.0 L788.2,541.0 L790.1,544.0 L791.9,541.0 L793.8,538.0 L795.6,538.0 L797.5,544.0 L799.4,538.0 L801.2,544.0 L803.1,538.0 L804.9,541.0 L806.5,541.0 L808.3,541.0 L809.9,544.0 L811.7,541.0 L813.6,541.0 L815.4,544.0 L817.3,541.0 L819.1,544.0 L821.0,541.0 L822.8,538.0 L824.7,544.0 L826.6,541.0 L828.4,538.0 L830.3,544.0 L832.1,544.0 L834.0,538.0 L835.8,544.0 L837.7,544.0 L839.3,544.0 L841.1,541.0 L842.7,541.0 L844.5,544.0 L846.0,544.0 L847.9,541.0 L849.5,541.0 L851.3,544.0 L853.1,538.0 L855.0,541.0 L856.8,541.0 L858.7,538.0 L860.5,541.0 L862.4,541.0 L864.3,544.0 L866.1,541.0 L868.0,544.0 L869.8,538.0 L871.7,544.0 L873.5,544.0 L875.4,541.0 L877.2,544.0 L879.1,544.0 L880.9,541.0 L882.8,538.0 L884.7,541.0 L886.5,541.0 L888.4,544.0 L890.2,544.0 L892.1,538.0 L893.9,541.0 L895.8,538.0 L897.3,541.0 L899.2,541.0 L900.7,538.0 L902.3,541.0 L903.8,541.0 L905.7,538.0 L907.5,538.0 L909.4,538.0 L911.2,541.0 L913.1,541.0 L914.9,541.0 L916.8,538.0 L918.4,538.0 L920.2,541.0 L921.8,544.0 L923.6,544.0 L925.2,544.0 L927.0,541.0 L928.6,544.0 L930.4,538.0 L932.0,544.0 L933.8,544.0 L935.4,541.0 L937.2,541.0 L938.6,490.0 L940.3,454.0 L942.1,400.0 L944.0,337.0 L945.8,295.0 L947.7,307.0 L949.6,280.0 L951.4,229.0 L953.3,259.0 L955.1,274.0 L957.0,262.0 L958.8,280.0 L960.7,229.0 L962.5,250.0 L964.4,271.0 L966.2,271.0 L968.1,268.0 L970.5,292.0 L972.1,343.0 L974.0,361.0 L975.8,370.0 L977.7,349.0 L979.5,379.0 L981.4,355.0 L983.0,361.0 L984.5,382.0 L986.3,364.0 L988.2,385.0 L990.0,394.0 L991.9,406.0 L993.8,424.0 L995.6,430.0 L997.5,454.0 L999.3,457.0 L1001.2,466.0 L1003.0,457.0 L1004.9,475.0 L1006.7,457.0 L1008.6,466.0 L1010.4,448.0 L1012.3,433.0 L1014.1,430.0 L1016.0,460.0 L1017.9,418.0 L1019.5,358.0 L1021.3,382.0 L1022.9,367.0 L1024.7,346.0 L1026.2,295.0 L1028.1,325.0 L1029.9,292.0 L1031.8,199.0 L1033.9,157.0 L1035.8,154.0 L1037.6,127.0 L1039.3,97.0 L1041.0,145.0 L1042.6,76.0 L1044.4,88.0 L1046.9,166.0 L1048.8,154.0 L1050.3,238.0 L1052.1,223.0 L1054.0,298.0 L1055.9,298.0 L1057.4,334.0 L1059.3,343.0 L1060.8,391.0 L1062.7,382.0 L1064.5,412.0 L1066.4,433.0 L1067.9,427.0 L1069.8,451.0 L1071.3,472.0 L1073.2,463.0 L1075.0,472.0 L1076.9,475.0 L1078.4,487.0 L1080.3,499.0 L1082.1,499.0 L1084.0,511.0" fill="none" stroke="#ff7f0e" stroke-width="1.1" opacity="0.85"/><text x="616" y="572" font-size="11" fill="#888">time 0..15 s — altitude (blue) &amp; roll (orange)</text></svg>