<svg xmlns="http://www.w3.org/2000/svg" width="1140" height="600" font-family="sans-serif" font-size="13"><rect width="1140" height="600" fill="white"/><text x="20" y="26" font-size="15" fill="#333">Coludo flight</text><rect x="20" y="40" width="540" height="540" fill="#fbfbfb" stroke="#ddd"/><rect x="50" y="296" width="81" height="17" fill="#cde" stroke="#369" opacity="0.7"/><text x="50" y="291" fill="#369" font-size="12">landing zone</text><circle cx="101" cy="324" r="5" fill="black"/><text x="109" y="328" font-size="12">pad</text><path d="M101.4,323.6 L101.4,323.6 L101.4,323.6 L101.4,323.6 L101.4,323.6 L101.4,323.6 L101.4,323.6 L101.4,323.6 L101.4,323.6 L101.4,323.6 L101.4,323.6 L101.4,323.6 L101.4,323.6 L101.4,323.6 L101.4,323.6 L101.4,323.6 L101.4,323.6 L101.4,323.6 L101.4,323.6 L101.4,323.6 L101.4,323.6 L101.4,323.6 L101.4,323.6 L101.4,323.6 L101.4,323.6 L101.4,323.6 L101.4,323.6 L101.4,323.6 L101.4,323.6 L101.4,323.6 L101.4,323.6 L101.4,323.6 L101.4,323.6 L101.4,323.6 L101.4,323.6 L101.4,323.6 L101.4,323.6 L101.4,323.6 L101.4,323.6 L101.4,323.6 L101.4,323.6 L101.4,323.6 L101.4,323.6 L101.4,323.6 L101.4,323.6 L101.4,323.6 L101.4,323.6 L101.4,323.6 L101.4,323.6 L101.4,323.6 L101.4,323.6 L101.4,323.6 L101.4,323.6 L101.4,323.6 L101.4,323.6 L101.4,323.6 L101.4,323.6 L101.4,323.6 L101.4,323.6 L101.4,323.6 L101.6,323.1 L101.8,322.6 L102.3,322.0 L102.7,321.3 L103.0,321.0 L103.1,320.3 L103.6,319.7 L104.0,319.1 L104.4,318.6 L104.4,318.2 L105.3,317.4 L105.7,317.0 L105.8,316.4 L106.2,315.9 L107.0,315.3 L107.2,314.9 L107.5,314.4 L108.3,313.7 L108.6,313.3 L108.8,312.9 L109.6,312.3 L110.0,311.8 L110.1,311.3 L110.9,310.9 L111.4,310.5 L111.8,309.9 L112.2,309.5 L112.8,309.0 L113.1,308.5 L114.0,308.0 L114.2,307.6 L114.9,307.1 L115.3,306.6 L115.7,306.2 L116.6,305.7 L117.0,305.4 L117.5,305.1 L117.9,304.7 L118.7,304.2 L119.2,303.9 L119.6,303.5 L120.1,303.3 L120.5,303.0 L121.4,302.7 L121.8,302.4 L122.5,302.1 L123.1,301.9 L124.0,301.6 L124.4,301.4 L125.3,301.2 L126.2,301.1 L126.6,301.0 L127.5,300.9 L127.9,300.8 L128.3,300.7 L129.2,300.6 L130.0,300.6 L130.5,300.5 L131.0,300.5 L131.8,300.5 L132.7,300.5 L133.1,300.5 L134.0,300.5 L134.4,300.6 L135.0,300.6 L135.7,300.7 L136.6,300.8 L137.0,300.9 L137.9,301.0 L138.8,301.2 L139.2,301.2 L140.1,301.4 L140.6,301.6 L141.4,301.8 L142.0,302.0 L142.7,302.3 L143.1,302.5 L144.0,302.8 L144.9,303.0 L145.3,303.2 L146.2,303.4 L146.6,303.6 L147.5,303.8 L147.9,304.1 L148.8,304.3 L149.5,304.5 L150.1,304.8 L150.9,305.1 L151.4,305.3 L152.1,305.4 L152.7,305.5 L153.5,305.7 L154.0,305.8 L154.9,306.0 L155.3,306.2 L156.1,306.3 L157.0,306.4 L157.8,306.6 L158.3,306.7 L158.8,306.8 L159.6,306.9 L160.4,307.0 L160.9,307.1 L161.8,307.2 L162.2,307.2 L163.2,307.3 L164.0,307.3 L164.8,307.3 L165.3,307.4 L165.8,307.4 L166.2,307.4 L167.0,307.4 L167.5,307.4 L168.8,307.4 L168.8,307.4 L170.1,307.4 L170.5,307.3 L171.4,307.3 L171.8,307.2 L172.7,307.2 L172.8,307.2 L174.0,307.1 L174.2,307.0 L174.8,306.9 L175.7,306.8 L176.6,306.7 L177.1,306.6 L177.9,306.5 L178.3,306.5 L179.2,306.4 L179.6,306.3 L180.5,306.2 L181.4,306.1 L181.8,306.1 L182.2,306.0 L183.1,306.0 L184.0,305.9 L184.4,305.9 L185.3,305.8 L185.7,305.8 L186.6,305.8 L187.0,305.7 L187.9,305.7 L188.8,305.7 L189.6,305.6 L190.1,305.6 L190.9,305.6 L191.4,305.6 L192.2,305.6 L192.7,305.5 L193.5,305.5 L194.1,305.5 L194.8,305.4 L195.5,305.4 L196.1,305.4 L196.9,305.3 L197.9,305.3 L198.3,305.3 L199.2,305.2 L199.6,305.1 L200.5,305.0 L201.1,305.0 L202.2,304.9 L202.7,304.8 L203.5,304.7 L204.0,304.7 L204.8,304.6 L205.3,304.6 L206.6,304.6 L206.7,304.6 L207.9,304.5 L208.8,304.5 L209.4,304.5 L210.1,304.5 L210.8,304.5 L211.8,304.5 L212.2,304.5 L213.1,304.5 L213.6,304.5 L214.4,304.5 L215.3,304.5 L216.1,304.5 L217.0,304.5 L217.4,304.5 L218.3,304.5 L218.8,304.5 L219.2,304.5 L220.5,304.5 L220.6,304.6 L221.8,304.6 L222.0,304.6 L223.1,304.6 L223.5,304.6 L224.4,304.7 L224.8,304.7 L225.7,304.8 L226.1,304.8 L227.0,304.9 L227.5,305.0 L228.8,305.0 L229.2,305.1 L230.3,305.1 L230.9,305.2 L231.7,305.3 L232.2,305.3 L233.1,305.3 L233.5,305.3 L234.4,305.4 L235.3,305.4 L236.1,305.4 L237.0,305.5 L237.4,305.5 L238.3,305.6 L239.0,305.6 L239.6,305.7 L240.4,305.7 L240.9,305.7 L242.2,305.8 L242.8,305.8 L243.5,305.8 L244.2,305.9 L244.8,305.9 L245.7,305.9 L246.1,305.9 L247.0,305.9 L247.4,305.9 L248.3,305.9 L248.7,306.0 L249.6,306.0 L250.1,305.9 L250.9,305.9 L251.7,305.9 L252.2,305.9 L252.7,305.9 L253.5,305.8 L254.5,305.8 L255.4,305.7 L256.1,305.7 L256.7,305.7 L257.4,305.7 L258.3,305.7 L258.7,305.6 L259.6,305.6 L260.5,305.6 L260.9,305.5 L262.2,305.5 L262.7,305.5 L263.5,305.4 L264.0,305.4 L264.8,305.4 L265.4,305.4 L266.1,305.4 L266.8,305.4 L267.9,305.4 L268.7,305.3 L269.3,305.3 L270.0,305.3 L270.9,305.3 L271.4,305.3 L272.2,305.3 L273.1,305.3 L273.8,305.3 L274.4,305.3 L275.3,305.2 L276.1,305.2 L276.6,305.2 L277.4,305.2 L277.8,305.1 L278.7,305.1 L279.5,305.1 L280.5,305.1 L280.6,305.0 L282.1,305.0 L282.7,305.0 L283.5,305.0 L284.0,305.0 L284.8,305.0 L285.3,305.0 L286.1,305.0 L286.6,305.0 L287.4,305.0 L289.2,305.0 L290.0,305.1 L290.5,305.1 L291.3,305.1 L291.9,305.2 L292.7,305.2 L293.3,305.3 L294.0,305.3 L294.5,305.3 L296.1,305.4 L297.4,305.4 L297.8,305.5 L298.7,305.6 L298.8,305.6 L300.0,305.7 L300.2,305.8 L301.3,305.9 L301.8,306.0 L303.5,306.2 L304.4,306.3 L304.8,306.3 L306.0,306.4 L306.6,306.5 L307.3,306.5 L307.9,306.6 L308.6,306.6 L309.2,306.7 L310.5,306.8 L311.7,306.8 L312.2,306.8 L312.6,306.8 L313.5,306.9 L314.3,306.9 L314.8,306.9 L315.7,306.9 L316.1,306.9 L317.9,306.9 L318.6,306.9 L319.2,306.9 L319.7,306.9 L320.5,306.9 L321.3,306.9 L321.8,306.9 L322.6,306.9 L323.5,306.8 L325.3,306.8 L325.7,306.8 L326.6,306.7 L327.0,306.7 L327.9,306.6 L328.4,306.5 L329.2,306.5 L329.8,306.4 L330.5,306.3 L331.2,306.2 L332.2,306.0 L332.6,305.9 L333.5,305.8 L333.9,305.7 L335.3,305.6 L335.3,305.6 L336.6,305.5 L337.0,305.4 L337.9,305.4 L339.5,305.2 L340.0,305.2 L340.9,305.1 L341.3,305.0 L342.2,304.9 L343.1,304.8 L343.5,304.8 L344.4,304.7 L344.8,304.7 L346.5,304.6 L347.4,304.5 L347.9,304.4 L348.7,304.4 L349.3,304.3 L350.0,304.3 L350.6,304.3 L351.3,304.2 L352.0,304.2 L353.5,304.1 L354.4,304.1 L355.2,304.1 L356.1,304.1 L356.2,304.1 L357.4,304.1 L357.6,304.1 L358.7,304.2 L359.0,304.2 L360.9,304.2 L361.8,304.2 L362.2,304.3 L363.1,304.3 L363.5,304.3 L364.4,304.4 L364.8,304.4 L365.7,304.4 L366.1,304.4 L367.0,304.5 L367.9,304.5 L369.1,304.6 L369.2,304.6 L370.1,304.6 L370.9,304.7 L371.5,304.8 L372.2,304.8 L372.9,304.9 L373.5,305.0 L375.2,305.1 L376.1,305.1 L377.0,305.1 L377.4,305.2 L378.3,305.2 L378.7,305.2 L379.6,305.2 L380.2,305.1 L380.9,305.1 L382.6,305.1 L383.1,305.0 L383.9,305.0 L384.4,305.0 L385.4,304.9 L385.7,304.9 L386.5,304.8 L387.2,304.7 L388.3,304.7 L389.9,304.5 L390.5,304.5 L391.0,304.5 L391.8,304.4 L392.6,304.4 L393.1,304.4 L393.9,304.4 L394.4,304.4 L395.2,304.4 L397.0,304.3 L397.9,304.4 L398.3,304.4 L399.2,304.4 L399.5,304.4 L400.5,304.5 L401.2,304.5 L401.8,304.6 L402.3,304.6 L403.9,304.8 L405.2,304.9 L405.2,304.9 L406.5,305.0 L406.6,305.1 L407.8,305.1 L408.3,305.2 L409.2,305.2 L409.2,305.3 L411.3,305.3 L412.2,305.4 L412.6,305.4 L413.5,305.4 L414.4,305.4 L415.0,305.4 L415.7,305.4 L416.2,305.5 L417.0,305.5 L418.3,305.5 L419.5,305.5 L420.0,305.4 L420.5,305.4 L421.3,305.4 L421.9,305.4 L422.6,305.4 L423.3,305.3 L423.9,305.3 L424.8,305.3 L425.7,305.3 L426.5,305.2 L427.4,305.1 L427.8,305.1 L428.7,305.0 L429.1,304.9 L430.0,304.8 L430.5,304.8 L431.3,304.7 L433.1,304.6 L433.5,304.5 L434.4,304.5 L434.8,304.5 L435.7,304.6 L436.1,304.6 L437.0,304.6 L437.6,304.6 L438.7,304.7 L440.4,304.8 L440.9,304.9 L441.4,304.9 L442.2,304.9 L443.0,305.0 L443.5,305.0 L444.5,305.0 L445.2,305.0 L445.9,305.0 L447.4,305.1 L447.8,305.1 L448.4,305.2 L449.1,305.2 L450.0,305.3 L450.4,305.3 L451.3,305.3 L451.8,305.3 L452.6,305.4 L453.5,305.4 L454.4,305.4 L455.2,305.4 L455.7,305.4 L457.0,305.4 L457.4,305.4 L458.3,305.4 L458.7,305.4 L459.6,305.4 L460.0,305.4 L461.8,305.4 L462.6,305.4 L463.1,305.4 L464.0,305.3 L464.8,305.3 L465.4,305.3 L466.1,305.3 L466.8,305.3 L467.4,305.3 L469.1,305.3 L470.0,305.3 L470.4,305.3 L471.3,305.2 L471.7,305.2 L472.4,305.1 L473.1,305.1 L473.7,305.0 L474.4,305.0 L475.1,304.9 L476.5,304.8 L477.0,304.8 L477.4,304.8 L478.3,304.7 L479.1,304.7 L479.6,304.6 L480.4,304.6 L480.9,304.6 L482.2,304.6 L483.8,304.5 L484.4,304.5 L484.9,304.4 L485.7,304.4 L486.3,304.3 L487.0,304.3 L487.7,304.3 L488.3,304.2 L489.2,304.2 L490.9,304.2 L491.7,304.2 L492.2,304.2 L493.1,304.2 L493.5,304.2 L494.4,304.2 L494.8,304.1 L495.7,304.1 L496.2,304.1 L497.0,304.1 L498.3,304.1 L498.8,304.1 L499.6,304.1 L500.2,304.1 L500.9,304.1 L501.7,304.1 L502.2,304.2 L503.0,304.2 L503.5,304.2 L505.2,304.3 L505.7,304.3 L506.5,304.3 L507.4,304.3 L508.3,304.3 L508.9,304.3 L509.6,304.3 L510.0,304.3 L510.9,304.3 L511.3,304.3 L512.6,304.3 L513.5,304.3 L514.4,304.3 L514.8,304.3 L515.2,304.3 L516.0,304.3 L516.5,304.3 L517.4,304.4 L517.8,304.4 L518.6,304.4 L520.0,304.5 L520.4,304.5 L521.2,304.5 L522.2,304.5 L523.0,304.6 L523.5,304.6 L524.0,304.6 L524.8,304.6 L525.6,304.7 L527.0,304.7 L528.3,304.7 L528.7,304.7 L530.0,304.7" fill="none" stroke="#1f77b4" stroke-width="1.7" opacity="0.85"/><circle cx="530" cy="305" r="4.5" fill="#1f77b4"/><text x="28" y="572" font-size="11" fill="#888">ground track — m from pad (N up)</text><rect x="580" y="40" width="540" height="540" fill="#fbfbfb" stroke="#ddd"/><text x="586" y="54" fill="#1f77b4" font-size="11">alt 209</text><text x="586" y="558" fill="#1f77b4" font-size="11">-100</text><path d="M641.0,389.4 L641.3,389.5 L641.7,389.3 L642.0,386.2 L642.3,389.8 L642.7,387.4 L643.0,384.2 L643.3,387.7 L643.7,388.4 L644.0,382.4 L644.3,384.9 L644.7,381.1 L645.0,373.4 L645.3,377.1 L645.7,370.7 L646.0,378.5 L646.3,378.9 L646.6,375.9 L646.9,368.5 L647.2,361.9 L647.5,354.4 L647.7,370.6 L648.0,361.8 L648.3,368.5 L648.6,361.2 L648.9,363.4 L649.1,323.9 L649.4,335.8 L649.7,365.5 L650.0,334.5 L650.3,342.3 L650.6,334.5 L650.9,295.1 L651.1,349.6 L651.4,296.7 L651.7,321.4 L652.0,305.0 L652.2,283.4 L652.5,329.0 L652.9,278.5 L653.1,314.1 L653.4,304.3 L653.7,315.7 L654.0,289.1 L654.3,283.2 L654.5,296.9 L654.8,231.3 L655.1,274.8 L655.4,324.9 L655.7,292.9 L656.0,300.3 L656.3,293.8 L656.5,250.9 L656.8,191.5 L657.1,313.0 L657.4,186.1 L657.7,261.5 L657.9,317.7 L658.2,212.3 L658.5,227.3 L658.8,241.6 L659.1,233.8 L659.3,256.0 L659.6,294.2 L659.9,201.8 L660.2,302.6 L660.4,229.6 L660.7,147.5 L661.1,172.2 L661.3,240.9 L661.7,158.6 L662.0,254.7 L662.2,222.4 L662.5,278.7 L662.8,193.6 L663.1,134.9 L663.4,192.0 L663.7,121.8 L664.0,205.4 L664.3,258.3 L664.6,151.8 L664.9,173.8 L665.2,132.8 L665.5,277.5 L665.7,165.4 L666.0,214.0 L666.3,211.5 L666.6,103.6 L666.9,128.5 L667.1,196.6 L667.4,254.9 L667.7,130.7 L668.0,129.2 L668.3,123.7 L668.6,160.9 L668.9,220.4 L669.1,150.1 L669.4,253.6 L669.7,250.0 L670.0,232.3 L670.3,256.9 L670.6,175.5 L670.9,231.2 L671.2,256.6 L671.5,207.5 L671.8,252.8 L672.0,89.9 L672.4,172.3 L672.7,77.5 L672.9,265.4 L673.2,192.9 L673.5,102.3 L673.9,105.0 L674.2,159.8 L674.4,233.6 L674.9,135.1 L675.1,138.8 L675.4,108.3 L675.7,193.7 L676.0,116.2 L676.3,131.8 L676.6,223.5 L676.9,76.0 L677.2,272.4 L677.4,250.0 L677.7,134.4 L678.1,233.5 L678.4,278.2 L678.7,102.2 L679.0,137.9 L679.3,81.6 L679.6,93.1 L680.0,279.9 L680.2,122.1 L680.6,224.2 L680.9,134.2 L681.2,107.0 L681.5,204.5 L681.8,222.5 L682.1,205.1 L682.4,112.1 L682.7,140.9 L683.0,240.0 L683.2,210.1 L683.5,93.5 L683.8,152.4 L684.1,243.3 L684.4,156.1 L684.6,119.7 L684.9,237.4 L685.2,252.8 L685.5,282.5 L685.8,97.9 L686.1,133.4 L686.4,93.9 L686.8,143.6 L687.0,152.1 L687.4,110.4 L687.7,129.5 L688.0,186.5 L688.3,213.8 L688.6,252.5 L688.9,94.6 L689.2,171.0 L689.4,143.2 L689.7,140.4 L690.0,88.8 L690.3,140.5 L690.6,145.9 L690.8,241.7 L691.2,118.4 L691.4,155.9 L691.8,152.7 L692.0,172.7 L692.3,219.0 L692.6,96.1 L692.9,107.5 L693.2,276.9 L693.6,89.9 L693.8,285.5 L694.2,93.3 L694.5,152.3 L694.8,278.0 L695.1,208.0 L695.4,182.9 L695.7,177.0 L696.0,118.3 L696.3,271.0 L696.6,176.6 L696.9,258.0 L697.2,101.7 L697.5,287.2 L697.8,116.8 L698.0,94.7 L698.3,193.5 L698.6,97.1 L698.9,168.7 L699.2,218.9 L699.5,168.1 L699.9,223.4 L700.1,246.7 L700.5,155.1 L700.8,103.8 L701.1,173.2 L701.4,101.7 L701.7,215.7 L702.0,221.7 L702.3,138.9 L702.6,271.5 L702.9,113.8 L703.2,283.3 L703.7,148.9 L703.9,109.6 L704.2,170.1 L704.5,227.8 L704.8,281.7 L705.0,269.9 L705.3,224.3 L705.6,226.9 L705.9,263.0 L706.2,173.2 L706.5,223.7 L706.8,134.5 L707.2,174.6 L707.4,141.7 L707.8,269.3 L708.1,253.3 L708.4,131.7 L708.7,244.5 L709.0,238.7 L709.5,124.4 L709.8,242.0 L710.1,201.5 L710.4,236.8 L710.7,285.5 L711.0,204.0 L711.3,132.0 L711.6,214.9 L711.9,227.7 L712.2,263.0 L712.5,223.8 L712.8,288.7 L713.1,229.2 L713.4,183.5 L713.7,190.6 L714.0,194.2 L714.3,211.5 L714.6,147.5 L714.9,174.4 L715.4,258.8 L715.6,296.9 L715.9,156.4 L716.2,189.2 L716.5,270.6 L716.8,136.5 L717.1,162.4 L717.4,219.8 L717.8,154.4 L718.0,289.4 L718.3,135.9 L718.6,264.8 L718.9,286.3 L719.2,257.8 L719.4,141.0 L719.7,159.1 L720.0,205.9 L720.3,256.0 L720.5,295.4 L720.8,191.5 L721.2,278.1 L721.5,183.7 L721.8,302.8 L722.1,262.4 L722.4,299.8 L722.7,228.9 L723.0,253.9 L723.3,177.8 L723.6,283.5 L723.8,249.4 L724.1,174.1 L724.4,293.0 L724.7,155.0 L724.9,170.2 L725.3,202.8 L725.6,204.9 L725.9,174.4 L726.2,275.5 L726.5,172.4 L727.1,273.9 L727.3,241.2 L727.6,169.1 L727.9,205.8 L728.2,260.2 L728.5,200.4 L728.7,202.6 L729.0,198.3 L729.3,294.2 L729.6,199.6 L729.9,295.6 L730.2,276.8 L730.5,300.5 L730.8,255.8 L731.1,267.2 L731.4,284.5 L731.7,274.5 L732.0,255.4 L732.4,185.5 L732.6,312.6 L733.0,250.3 L733.3,193.6 L733.5,261.6 L733.9,290.3 L734.1,291.8 L734.5,236.3 L734.8,305.0 L735.1,217.1 L735.4,231.5 L735.7,276.6 L735.9,291.1 L736.2,237.3 L736.5,182.4 L736.8,294.2 L737.0,214.8 L737.3,231.4 L737.7,253.6 L737.9,318.3 L738.3,210.1 L738.8,210.9 L739.1,211.2 L739.3,286.4 L739.7,209.7 L739.9,230.2 L740.2,261.5 L740.5,210.5 L740.8,324.5 L741.1,204.8 L741.3,283.0 L741.6,223.9 L741.9,241.1 L742.2,197.4 L742.5,260.7 L742.8,266.8 L743.1,258.5 L743.4,300.8 L743.7,238.3 L744.0,329.6 L744.3,291.0 L744.7,319.2 L744.9,324.1 L745.2,291.0 L745.5,247.5 L745.7,330.8 L746.1,262.4 L746.4,327.9 L746.7,244.6 L747.0,289.9 L747.3,235.0 L747.6,299.7 L747.9,252.3 L748.1,309.9 L748.4,275.3 L748.7,224.1 L749.0,223.1 L749.3,304.8 L749.6,252.2 L750.0,292.2 L750.7,249.8 L751.0,222.6 L751.3,299.5 L751.6,247.5 L751.9,253.4 L752.2,243.8 L752.5,292.8 L752.8,330.1 L753.1,269.3 L753.4,325.2 L753.7,260.1 L754.0,312.1 L754.3,327.0 L754.6,304.5 L754.9,327.0 L755.2,283.1 L755.5,280.1 L755.8,316.8 L756.1,326.2 L756.9,268.4 L757.1,318.6 L757.4,284.4 L757.7,245.0 L758.0,330.0 L758.3,254.2 L758.6,245.3 L758.9,259.3 L759.2,278.4 L759.5,339.0 L759.8,255.6 L760.1,344.9 L760.4,290.8 L760.7,278.9 L761.0,284.0 L761.3,286.3 L761.6,292.7 L761.9,291.8 L762.1,260.6 L762.4,289.8 L763.0,319.7 L763.3,258.7 L763.5,337.6 L763.9,297.4 L764.1,294.9 L764.5,342.8 L764.8,332.9 L765.1,270.1 L765.4,299.7 L765.7,348.1 L766.0,270.6 L766.3,275.0 L766.6,303.6 L766.9,273.9 L767.2,297.1 L767.5,282.8 L767.8,312.0 L768.1,336.6 L768.4,293.5 L769.1,334.1 L769.4,297.6 L769.7,313.1 L769.9,346.7 L770.2,297.9 L770.5,326.7 L770.8,290.8 L771.1,334.7 L771.4,340.7 L771.7,311.1 L772.0,294.4 L772.3,315.7 L772.6,355.8 L772.9,323.5 L773.2,351.8 L773.6,340.8 L773.8,302.5 L774.2,334.4 L774.5,346.7 L775.2,337.0 L775.5,339.8 L775.7,334.1 L776.0,350.7 L776.3,324.6 L776.6,328.2 L776.9,349.8 L777.1,331.6 L777.4,325.0 L777.7,341.7 L778.0,324.3 L778.3,332.6 L778.6,359.0 L778.9,312.5 L779.1,356.0 L779.4,314.0 L779.7,308.0 L780.0,345.5 L780.3,346.3 L780.5,333.4 L781.3,345.6 L781.5,315.8 L781.8,314.0 L782.1,314.5 L782.4,321.1 L782.8,332.3 L783.0,355.7 L783.4,339.8 L783.7,346.7 L784.0,354.9 L784.3,346.5 L784.6,354.7 L784.9,324.6 L785.2,326.7 L785.5,369.1 L785.8,358.5 L786.1,331.3 L786.3,352.2 L786.6,350.4 L787.4,358.7 L787.7,344.1 L788.0,371.7 L788.3,334.2 L788.6,335.5 L788.8,335.5 L789.1,352.3 L789.4,337.2 L789.7,369.6 L790.0,355.6 L790.2,366.0 L790.5,354.5 L790.8,372.1 L791.1,366.1 L791.4,358.4 L791.7,347.1 L792.0,349.0 L792.3,365.5 L792.6,357.2 L792.9,350.0 L793.6,350.7 L793.8,367.8 L794.1,369.8 L794.4,357.4 L794.7,378.4 L795.0,378.0 L795.3,358.5 L795.6,375.5 L795.9,369.2 L796.2,360.4 L796.5,366.3 L796.9,374.7 L797.1,371.1 L797.4,374.3 L797.7,366.8 L798.0,364.9 L798.3,368.6 L798.6,378.2 L798.9,371.1 L799.7,371.7 L799.9,383.8 L800.2,371.6 L800.5,371.0 L800.8,372.8 L801.1,378.2 L801.4,374.6 L801.7,377.5 L801.9,376.5 L802.2,382.4 L802.5,381.1 L802.8,382.0 L803.1,387.1 L803.4,382.2 L803.7,384.1 L804.0,388.6 L804.3,388.3 L804.6,384.0 L804.9,387.8 L805.8,386.4 L806.1,389.6 L806.4,389.9 L806.7,391.1 L807.0,390.1 L807.3,391.1 L807.6,393.3 L807.9,394.2 L808.2,394.2 L808.5,394.0 L808.8,394.3 L809.1,395.9 L809.4,399.0 L809.7,398.4 L810.0,395.5 L810.4,395.9 L810.6,398.3 L811.0,399.7 L811.2,401.9 L811.9,404.5 L812.2,397.6 L812.5,404.2 L812.8,397.5 L813.1,399.7 L813.4,405.3 L813.7,409.4 L814.0,399.2 L814.3,411.8 L814.6,401.1 L814.9,404.2 L815.3,413.8 L815.5,408.3 L815.9,407.4 L816.2,404.4 L816.5,414.3 L816.8,421.1 L817.1,417.4 L817.4,412.6 L818.1,414.8 L818.3,426.0 L818.6,407.9 L818.9,422.9 L819.2,408.9 L819.5,409.6 L819.8,428.1 L820.2,408.8 L820.4,424.2 L820.8,405.7 L821.1,406.6 L821.4,410.5 L821.7,415.4 L822.0,429.7 L822.3,427.0 L822.6,433.9 L822.8,435.3 L823.2,442.1 L823.5,441.7 L824.2,439.5 L824.5,421.8 L824.7,437.0 L825.1,414.7 L825.4,434.8 L825.7,422.7 L826.0,413.8 L826.3,413.8 L826.6,450.7 L826.9,433.4 L827.2,426.2 L827.5,436.7 L827.8,432.2 L828.0,447.3 L828.3,456.0 L828.6,433.3 L828.9,422.2 L829.1,431.3 L829.4,433.4 L829.7,450.4 L830.3,433.2 L830.6,462.1 L830.9,443.2 L831.2,425.2 L831.5,430.9 L831.8,422.7 L832.1,450.2 L832.4,427.7 L832.7,423.2 L833.0,460.0 L833.3,451.5 L833.6,470.8 L833.9,445.9 L834.2,463.2 L834.4,447.6 L834.7,461.0 L835.0,450.9 L835.3,423.6 L835.7,444.9 L836.5,466.1 L836.7,429.0 L837.0,447.3 L837.3,471.5 L837.6,453.9 L837.9,475.9 L838.2,459.1 L838.5,444.3 L838.8,441.8 L839.1,439.0 L839.3,448.8 L839.6,450.7 L839.9,438.0 L840.2,440.1 L840.5,494.9 L840.7,433.2 L841.0,464.3 L841.3,447.1 L841.6,432.5 L841.9,451.7 L842.6,492.5 L842.9,479.5 L843.1,505.7 L843.5,466.2 L843.7,463.8 L844.1,441.6 L844.4,474.3 L844.7,474.4 L845.0,483.2 L845.3,508.5 L845.5,459.4 L845.8,462.8 L846.1,439.9 L846.4,488.3 L846.7,454.5 L847.0,488.4 L847.3,482.6 L847.6,488.7 L847.9,478.2 L848.7,451.8 L849.0,517.5 L849.3,480.2 L849.6,492.8 L849.9,486.8 L850.2,466.0 L850.5,461.2 L850.8,492.9 L851.1,519.7 L851.4,496.4 L851.7,464.1 L852.1,492.7 L852.3,460.9 L852.6,519.7 L852.9,510.9 L853.2,491.9 L853.4,456.8 L853.7,451.2 L854.0,519.5 L854.3,495.4 L854.9,442.9 L855.2,499.3 L855.5,510.5 L856.1,484.0 L856.3,519.1 L856.6,456.2 L857.0,450.1 L857.2,456.7 L857.5,541.7 L857.8,462.0 L858.1,470.7 L858.4,520.3 L858.7,490.0 L859.0,491.4 L859.4,533.2 L859.6,536.9 L859.9,474.9 L860.2,457.1 L861.5,499.6 L861.8,486.3 L862.0,499.7 L862.3,543.1 L862.6,492.5 L862.9,495.7 L863.2,497.3 L863.5,482.0 L863.8,494.3 L864.0,505.6 L864.3,530.0 L864.6,544.0 L864.9,541.5 L865.2,544.0 L865.4,544.0 L865.7,540.9 L866.0,544.0 L866.3,497.8 L866.7,503.0 L866.9,489.7 L868.1,487.8 L868.3,537.0 L868.6,539.2 L868.9,523.0 L869.2,544.0 L869.6,481.7 L869.8,544.0 L870.2,493.2 L870.5,489.7 L870.8,530.2 L871.1,544.0 L871.4,462.8 L871.6,482.5 L871.9,543.0 L872.2,490.6 L872.5,504.4 L872.7,544.0 L873.0,544.0 L873.3,482.5 L873.6,544.0 L874.7,544.0 L875.0,511.0 L875.2,544.0 L875.5,544.0 L875.8,510.4 L876.1,544.0 L876.4,544.0 L876.6,544.0 L876.9,544.0 L877.2,497.3 L877.5,533.3 L877.8,544.0 L878.0,475.9 L878.3,493.7 L878.6,535.8 L878.9,482.8 L879.2,532.0 L879.5,544.0 L879.8,510.6 L880.1,544.0 L881.3,544.0 L881.5,544.0 L881.8,544.0 L882.2,504.3 L882.4,512.2 L882.8,540.0 L883.1,544.0 L883.4,544.0 L883.7,507.9 L884.0,544.0 L884.3,502.6 L884.6,544.0 L884.8,544.0 L885.1,544.0 L885.4,544.0 L885.7,544.0 L886.0,529.9 L886.3,529.4 L886.6,544.0 L887.9,544.0 L888.2,503.5 L888.5,491.1 L888.8,544.0 L889.1,529.3 L889.4,544.0 L889.7,539.4 L890.0,544.0 L890.3,486.8 L890.6,544.0 L890.9,544.0 L891.2,544.0 L891.5,542.5 L891.8,525.5 L892.1,544.0 L892.4,544.0 L892.6,544.0 L892.9,544.0 L893.2,498.2 L893.5,544.0 L894.5,540.1 L894.8,544.0 L895.1,544.0 L895.4,544.0 L895.7,537.7 L896.0,544.0 L896.3,544.0 L896.6,544.0 L896.9,526.0 L897.3,544.0 L897.5,522.3 L897.8,542.9 L898.1,534.3 L898.4,507.1 L898.7,544.0 L899.0,544.0 L899.3,544.0 L899.7,544.0 L899.9,544.0 L901.2,544.0 L901.5,544.0 L901.8,544.0 L902.1,544.0 L902.3,544.0 L902.6,544.0 L902.9,544.0 L903.2,542.2 L903.5,544.0 L903.8,544.0 L904.1,533.3 L904.5,544.0 L904.7,544.0 L905.0,544.0 L905.3,544.0 L905.6,544.0 L905.9,544.0 L906.1,544.0 L906.4,544.0 L906.7,536.5 L907.8,511.0 L908.1,544.0 L908.4,544.0 L908.6,544.0 L908.9,544.0 L909.2,544.0 L909.5,544.0 L909.8,544.0 L910.0,536.4 L910.3,544.0 L910.6,544.0 L910.9,544.0 L911.2,544.0 L911.5,544.0 L911.8,544.0 L912.0,544.0 L912.3,544.0 L912.6,544.0 L912.9,544.0 L913.2,504.3 L914.4,525.4 L914.8,544.0 L915.1,544.0 L915.3,544.0 L915.6,544.0 L915.9,544.0 L916.2,544.0 L916.5,544.0 L916.8,544.0 L917.1,544.0 L917.4,544.0 L917.7,544.0 L918.0,544.0 L918.3,527.2 L918.6,544.0 L918.8,544.0 L919.1,544.0 L919.4,544.0 L919.7,544.0 L921.1,544.0 L921.3,544.0 L921.6,518.0 L921.9,516.5 L922.2,544.0 L922.5,544.0 L922.8,544.0 L923.1,544.0 L923.4,544.0 L923.7,544.0 L924.0,544.0 L924.4,544.0 L924.6,544.0 L925.0,544.0 L925.3,517.9 L925.6,544.0 L925.9,544.0 L926.1,544.0 L926.4,544.0 L927.7,544.0 L928.0,544.0 L928.3,544.0 L928.5,544.0 L928.8,544.0 L929.1,544.0 L929.4,544.0 L929.7,544.0 L930.0,544.0 L930.3,544.0 L930.6,544.0 L930.9,544.0 L931.2,544.0 L931.5,544.0 L931.8,540.0 L932.1,544.0 L932.4,544.0 L932.7,544.0 L933.0,544.0 L934.3,544.0 L934.6,544.0 L934.9,544.0 L935.2,544.0 L935.5,544.0 L935.7,544.0 L936.0,541.7 L936.3,544.0 L936.6,544.0 L936.8,544.0 L937.1,544.0 L937.4,531.2 L937.7,544.0 L938.0,544.0 L938.3,544.0 L938.6,544.0 L938.9,539.3 L939.2,544.0 L939.5,544.0 L939.8,544.0 L941.0,544.0 L941.3,544.0 L941.5,544.0 L941.9,544.0 L942.1,544.0 L942.5,544.0 L942.8,544.0 L943.1,544.0 L943.4,544.0 L943.7,544.0 L944.0,544.0 L944.3,544.0 L944.6,544.0 L944.9,544.0 L945.2,544.0 L945.5,544.0 L945.8,544.0 L946.1,544.0 L946.3,544.0 L947.6,544.0 L947.9,544.0 L948.2,544.0 L948.4,544.0 L948.7,544.0 L949.1,544.0 L949.3,544.0 L949.6,544.0 L949.9,544.0 L950.2,544.0 L950.5,544.0 L950.7,544.0 L951.0,544.0 L951.3,544.0 L951.6,544.0 L951.8,544.0 L952.2,544.0 L952.5,544.0 L952.8,544.0 L953.1,544.0 L954.3,544.0 L954.5,544.0 L954.8,544.0 L955.1,544.0 L955.4,544.0 L955.7,544.0 L956.0,544.0 L956.4,544.0 L956.6,544.0 L957.0,544.0 L957.3,544.0 L957.6,544.0 L957.9,544.0 L958.2,544.0 L958.5,544.0 L958.8,544.0 L959.1,544.0 L959.4,544.0 L959.7,544.0 L960.9,544.0 L961.2,544.0 L961.4,544.0 L961.8,544.0 L962.1,544.0 L962.3,544.0 L962.6,544.0 L962.9,544.0 L963.2,544.0 L963.4,544.0 L963.7,544.0 L964.0,544.0 L964.3,544.0 L964.6,544.0 L964.9,544.0 L965.2,544.0 L965.5,544.0 L965.8,544.0 L966.1,544.0 L966.4,544.0 L967.5,544.0 L967.8,544.0 L968.1,544.0 L968.4,544.0 L968.7,544.0 L969.0,544.0 L969.3,544.0 L969.6,544.0 L969.9,544.0 L970.2,544.0 L970.5,544.0 L970.8,544.0 L971.1,544.0 L971.4,544.0 L971.6,544.0 L971.9,544.0 L972.2,544.0 L972.5,544.0 L972.8,544.0 L973.0,544.0 L974.2,544.0 L974.4,544.0 L974.7,544.0 L975.0,544.0 L975.3,544.0 L975.5,544.0 L975.8,544.0 L976.1,544.0 L976.4,544.0 L976.7,544.0 L977.0,544.0 L977.3,544.0 L977.5,544.0 L977.8,544.0 L978.1,544.0 L978.4,544.0 L978.7,544.0 L979.0,544.0 L979.3,544.0 L979.6,544.0 L980.8,544.0 L981.1,544.0 L981.3,544.0 L981.7,544.0 L981.9,544.0 L982.2,544.0 L982.5,544.0 L982.8,544.0 L983.1,544.0 L983.4,544.0 L983.7,544.0 L984.1,544.0 L984.3,544.0 L984.7,544.0 L985.0,544.0 L985.3,544.0 L985.6,544.0 L985.9,544.0 L986.2,544.0 L987.5,544.0 L987.7,544.0 L988.0,544.0 L988.3,544.0 L988.6,544.0 L988.9,544.0 L989.2,544.0 L989.5,544.0 L989.8,544.0 L990.1,544.0 L990.4,544.0 L990.6,544.0 L990.9,544.0 L991.2,544.0 L991.5,544.0 L991.8,544.0 L992.0,544.0 L992.3,544.0 L992.6,544.0 L992.9,544.0 L994.1,544.0 L994.4,544.0 L994.7,544.0 L994.9,544.0 L995.2,544.0 L995.5,544.0 L995.8,544.0 L996.2,544.0 L996.4,544.0 L996.8,544.0 L997.1,544.0 L997.4,544.0 L997.7,544.0 L998.0,544.0 L998.3,544.0 L998.6,544.0 L998.8,544.0 L999.1,544.0 L999.4,544.0 L1000.8,544.0 L1001.0,544.0 L1001.3,544.0 L1001.6,544.0 L1001.9,544.0 L1002.2,544.0 L1002.5,544.0 L1002.8,544.0 L1003.1,544.0 L1003.5,544.0 L1003.7,544.0 L1004.0,544.0 L1004.3,544.0 L1004.6,544.0 L1004.9,544.0 L1005.1,544.0 L1005.4,544.0 L1005.7,544.0 L1006.0,544.0 L1006.3,544.0 L1007.4,544.0 L1007.7,544.0 L1008.0,544.0 L1008.3,544.0 L1008.5,544.0 L1008.8,544.0 L1009.1,544.0 L1009.4,544.0 L1009.7,544.0 L1009.9,544.0 L1010.2,544.0 L1010.5,544.0 L1010.8,544.0 L1011.1,544.0 L1011.4,544.0 L1011.7,544.0 L1011.9,544.0 L1012.2,544.0 L1012.5,544.0 L1012.8,544.0 L1014.1,544.0 L1014.4,544.0 L1014.7,544.0 L1015.0,544.0 L1015.2,544.0 L1015.5,544.0 L1015.8,544.0 L1016.1,544.0 L1016.4,544.0 L1016.7,544.0 L1017.0,544.0 L1017.3,544.0 L1017.6,544.0 L1017.9,544.0 L1018.1,544.0 L1018.4,544.0 L1018.7,544.0 L1019.0,544.0 L1019.3,544.0 L1019.6,544.0 L1020.7,544.0 L1021.1,544.0 L1021.4,544.0 L1021.6,544.0 L1021.9,544.0 L1022.2,544.0 L1022.5,544.0 L1022.8,544.0 L1023.0,544.0 L1023.3,544.0 L1023.6,544.0 L1023.9,544.0 L1024.2,544.0 L1024.5,544.0 L1024.8,544.0 L1025.1,544.0 L1025.4,544.0 L1025.7,544.0 L1026.0,544.0 L1027.4,544.0 L1027.7,544.0 L1027.9,544.0 L1028.3,544.0 L1028.6,544.0 L1028.9,544.0 L1029.2,544.0 L1029.5,544.0 L1029.7,544.0 L1030.1,544.0 L1030.3,544.0 L1030.7,544.0 L1031.0,544.0 L1031.2,544.0 L1031.5,544.0 L1031.8,544.0 L1032.1,544.0 L1032.5,544.0 L1032.7,544.0 L1034.1,544.0 L1034.4,544.0 L1034.6,544.0 L1034.9,544.0 L1035.2,544.0 L1035.5,544.0 L1035.7,544.0 L1036.1,544.0 L1036.4,544.0 L1036.7,544.0 L1037.0,544.0 L1037.3,544.0 L1037.6,544.0 L1037.9,544.0 L1038.1,544.0 L1038.4,544.0 L1038.7,544.0 L1039.0,544.0 L1039.3,544.0 L1039.6,544.0 L1040.7,544.0 L1041.0,544.0 L1041.3,544.0 L1041.6,544.0 L1041.9,544.0 L1042.2,544.0 L1042.5,544.0 L1042.8,544.0 L1043.0,544.0 L1043.4,544.0 L1043.7,544.0 L1043.9,544.0 L1044.2,544.0 L1044.5,544.0 L1044.8,544.0 L1045.1,544.0 L1045.4,544.0 L1045.7,544.0 L1046.0,544.0 L1046.3,544.0 L1047.4,544.0 L1047.7,544.0 L1048.0,544.0 L1048.3,544.0 L1048.6,544.0 L1048.9,544.0 L1049.2,544.0 L1049.5,544.0 L1049.8,544.0 L1050.1,544.0 L1050.4,544.0 L1050.7,544.0 L1051.0,544.0 L1051.3,544.0 L1051.6,544.0 L1051.9,544.0 L1052.2,544.0 L1052.5,544.0 L1052.8,544.0 L1054.1,544.0 L1054.4,544.0 L1054.6,544.0 L1055.0,544.0 L1055.3,544.0 L1055.6,544.0 L1055.9,544.0 L1056.2,544.0 L1056.5,544.0 L1056.8,544.0 L1057.0,544.0 L1057.4,544.0 L1057.7,544.0 L1058.0,544.0 L1058.3,544.0 L1058.6,544.0 L1058.8,544.0 L1059.1,544.0 L1059.4,544.0 L1060.8,544.0 L1061.1,544.0 L1061.3,544.0 L1061.6,544.0 L1061.9,544.0 L1062.2,544.0 L1062.5,544.0 L1062.8,544.0 L1063.1,544.0 L1063.4,544.0 L1063.7,544.0 L1064.0,544.0 L1064.3,544.0 L1064.6,544.0 L1064.9,544.0 L1065.2,544.0 L1065.5,544.0 L1065.8,544.0 L1066.1,544.0 L1067.5,544.0 L1067.7,544.0 L1068.0,544.0 L1068.3,544.0 L1068.6,544.0 L1068.9,544.0 L1069.1,544.0 L1069.4,544.0 L1069.7,544.0 L1070.0,544.0 L1070.3,544.0 L1070.5,544.0 L1070.8,544.0 L1071.1,544.0 L1071.4,544.0 L1071.6,544.0 L1072.0,544.0 L1072.3,544.0 L1072.5,544.0 L1073.0,544.0 L1074.3,544.0 L1074.5,544.0 L1074.8,544.0 L1075.1,544.0 L1075.4,544.0 L1075.7,544.0 L1076.0,544.0 L1076.3,544.0 L1076.6,544.0 L1076.9,544.0 L1077.2,544.0 L1077.6,544.0 L1078.0,544.0 L1078.3,544.0 L1078.6,544.0 L1078.9,544.0 L1079.2,544.0 L1079.5,544.0 L1080.9,544.0 L1081.2,544.0 L1081.5,544.0 L1081.8,544.0 L1082.1,544.0 L1082.4,544.0 L1083.6,544.0 L1084.0,544.0" fill="none" stroke="#1f77b4" stroke-width="1.4" opacity="0.85"/><text x="1040" y="54" fill="#ff7f0e" font-size="11">roll 31</text><text x="1090" y="558" fill="#ff7f0e" font-size="11">-19</text><path d="M641.0,365.2 L641.3,371.8 L641.7,369.9 L642.0,371.8 L642.3,368.0 L642.7,368.0 L643.0,362.4 L643.3,369.0 L643.7,364.3 L644.0,369.0 L644.3,369.0 L644.7,368.0 L645.0,363.4 L645.3,369.0 L645.7,366.2 L646.0,370.8 L646.3,363.4 L646.6,368.0 L646.9,363.4 L647.2,369.0 L647.5,364.3 L647.7,364.3 L648.0,365.2 L648.3,368.0 L648.6,364.3 L648.8,370.8 L649.1,366.2 L649.4,370.8 L649.7,365.2 L650.0,366.2 L650.3,366.2 L650.6,366.2 L650.9,363.4 L651.1,362.4 L651.4,363.4 L651.7,362.4 L652.0,364.3 L652.2,370.8 L652.5,371.8 L652.9,369.0 L653.1,371.8 L653.4,371.8 L653.7,369.0 L654.0,368.0 L654.3,369.9 L654.5,366.2 L654.8,373.6 L655.1,365.2 L655.4,372.7 L655.7,366.2 L656.0,371.8 L656.3,370.8 L656.5,370.8 L656.8,368.0 L657.1,367.1 L657.4,367.1 L657.7,363.4 L657.9,363.4 L658.2,365.2 L658.5,373.6 L658.8,369.9 L659.1,364.3 L659.3,365.2 L659.6,368.0 L659.9,369.0 L660.2,373.6 L660.4,371.8 L660.7,366.2 L661.1,370.8 L661.3,373.6 L661.7,373.6 L661.9,366.2 L662.2,367.1 L662.5,364.3 L662.8,366.2 L663.1,366.2 L663.4,363.4 L663.7,371.8 L664.0,372.7 L664.3,364.3 L664.6,367.1 L664.9,368.0 L665.2,372.7 L665.5,370.8 L665.7,363.4 L666.0,373.6 L666.3,372.7 L666.6,368.0 L666.9,365.2 L667.1,364.3 L667.4,364.3 L667.7,363.4 L668.0,371.8 L668.3,370.8 L668.6,363.4 L668.9,370.8 L669.1,373.6 L669.4,366.2 L669.7,365.2 L670.0,365.2 L670.3,364.3 L670.6,364.3 L670.9,373.6 L671.2,363.4 L671.5,366.2 L671.8,371.8 L672.0,369.0 L672.4,366.2 L672.7,365.2 L672.9,372.7 L673.2,373.6 L673.5,372.7 L673.9,365.2 L674.2,369.0 L674.4,370.8 L674.9,366.2 L675.1,366.2 L675.4,370.8 L675.7,364.3 L676.0,369.9 L676.3,371.8 L676.6,371.8 L676.9,369.0 L677.2,363.4 L677.4,364.3 L677.7,365.2 L678.1,366.2 L678.4,369.9 L678.7,365.2 L679.0,354.9 L679.3,331.5 L679.6,347.4 L680.0,305.3 L680.2,340.9 L680.6,351.2 L680.8,337.1 L681.2,338.1 L681.5,326.8 L681.8,330.6 L682.1,297.8 L682.4,299.7 L682.7,319.4 L683.0,291.3 L683.2,271.6 L683.5,332.5 L683.8,328.7 L684.1,294.1 L684.4,261.3 L684.6,297.8 L684.9,283.8 L685.2,292.2 L685.5,252.9 L685.8,313.7 L686.1,317.5 L686.4,296.9 L686.8,215.5 L687.0,283.8 L687.4,282.9 L687.7,296.9 L688.0,298.8 L688.3,315.6 L688.6,285.7 L688.9,310.9 L689.2,224.8 L689.4,305.3 L689.7,325.0 L690.0,330.6 L690.3,308.1 L690.5,305.3 L690.8,307.2 L691.2,305.3 L691.4,328.7 L691.8,333.4 L692.0,305.3 L692.3,324.0 L692.6,331.5 L692.9,346.5 L693.2,340.9 L693.6,364.3 L693.8,372.7 L694.2,365.2 L694.5,350.2 L694.8,336.2 L695.1,306.3 L695.4,319.4 L695.7,285.7 L696.0,326.8 L696.3,270.7 L696.6,224.8 L696.9,288.5 L697.2,255.7 L697.5,236.1 L697.8,304.4 L698.0,269.8 L698.3,210.8 L698.6,278.2 L698.9,296.9 L699.2,314.7 L699.5,293.2 L699.9,281.9 L700.1,233.2 L700.5,218.3 L700.8,238.9 L701.1,224.8 L701.4,260.4 L701.7,271.6 L702.0,239.8 L702.3,289.4 L702.6,275.4 L702.9,296.0 L703.2,242.6 L703.7,149.0 L703.9,267.9 L704.2,206.1 L704.5,109.7 L704.8,259.5 L705.0,161.2 L705.3,120.0 L705.6,221.1 L705.9,175.2 L706.2,238.9 L706.5,150.9 L706.8,203.3 L707.2,282.9 L707.4,234.2 L707.8,175.2 L708.1,193.9 L708.4,231.4 L708.7,86.3 L709.0,166.8 L709.5,76.0 L709.8,264.1 L710.1,271.6 L710.4,261.3 L710.7,268.8 L711.0,113.4 L711.3,164.9 L711.6,197.7 L711.9,161.2 L712.2,213.6 L712.5,249.2 L712.8,269.8 L713.1,268.8 L713.4,238.9 L713.7,291.3 L714.0,266.9 L714.3,228.6 L714.6,281.9 L714.9,220.1 L715.4,220.1 L715.6,258.5 L715.9,252.0 L716.2,320.3 L716.5,298.8 L716.8,296.9 L717.1,298.8 L717.4,237.9 L717.8,306.3 L718.0,178.0 L718.3,287.5 L718.6,292.2 L718.9,228.6 L719.1,218.3 L719.4,224.8 L719.7,161.2 L720.0,237.0 L720.3,248.2 L720.5,212.7 L720.8,223.0 L721.2,167.7 L721.5,199.6 L721.8,219.2 L722.1,223.0 L722.4,264.1 L722.7,199.6 L723.0,295.0 L723.3,171.5 L723.6,274.4 L723.8,284.7 L724.1,272.6 L724.4,293.2 L724.7,283.8 L724.9,301.6 L725.3,258.5 L725.6,266.9 L725.9,284.7 L726.2,248.2 L726.5,333.4 L727.1,363.4 L727.3,363.4 L727.6,356.8 L727.9,369.9 L728.2,398.9 L728.5,398.0 L728.7,400.8 L729.0,382.1 L729.3,410.2 L729.6,394.2 L729.9,409.2 L730.2,358.7 L730.5,347.4 L730.8,369.9 L731.1,376.5 L731.4,354.9 L731.7,381.1 L732.0,378.3 L732.4,378.3 L732.6,394.2 L733.0,384.9 L733.3,434.5 L733.5,433.6 L733.9,417.6 L734.1,400.8 L734.5,485.0 L734.8,481.3 L735.1,415.8 L735.4,457.9 L735.7,455.1 L735.9,428.9 L736.2,439.2 L736.5,447.6 L736.8,513.1 L737.0,487.8 L737.3,486.0 L737.7,479.4 L737.9,457.0 L738.3,449.5 L738.8,385.8 L739.1,382.1 L739.3,409.2 L739.7,481.3 L739.9,431.7 L740.2,414.8 L740.5,383.9 L740.8,420.4 L741.1,398.9 L741.3,388.6 L741.6,437.3 L741.9,443.8 L742.2,399.9 L742.5,454.1 L742.8,469.1 L743.1,512.2 L743.4,406.4 L743.7,451.3 L744.0,483.2 L744.3,484.1 L744.7,437.3 L744.9,441.0 L745.2,438.2 L745.5,413.0 L745.7,412.0 L746.1,444.8 L746.4,457.0 L746.7,414.8 L747.0,428.9 L747.3,437.3 L747.6,462.6 L747.9,398.9 L748.1,407.3 L748.4,410.2 L748.7,473.8 L749.0,446.7 L749.3,413.0 L749.6,454.1 L750.0,437.3 L750.7,460.7 L751.0,442.9 L751.3,418.6 L751.6,441.0 L751.9,475.7 L752.2,544.0 L752.5,475.7 L752.8,448.5 L753.1,447.6 L753.4,464.4 L753.7,424.2 L754.0,392.4 L754.3,423.3 L754.6,457.9 L754.9,427.9 L755.2,393.3 L755.5,384.9 L755.8,380.2 L756.1,362.4 L756.9,350.2 L757.1,327.8 L757.4,336.2 L757.7,365.2 L758.0,368.0 L758.3,355.9 L758.6,327.8 L758.9,346.5 L759.2,347.4 L759.5,341.8 L759.8,348.4 L760.1,353.1 L760.4,356.8 L760.7,363.4 L761.0,371.8 L761.3,366.2 L761.6,365.2 L761.8,356.8 L762.1,326.8 L762.4,298.8 L763.0,308.1 L763.3,241.7 L763.5,286.6 L763.9,248.2 L764.1,298.8 L764.5,314.7 L764.8,360.5 L765.1,339.0 L765.4,317.5 L765.7,353.1 L766.0,350.2 L766.3,332.5 L766.6,347.4 L766.9,346.5 L767.2,352.1 L767.5,382.1 L767.8,405.5 L768.1,372.7 L768.4,363.4 L769.1,356.8 L769.4,341.8 L769.7,360.5 L769.9,354.0 L770.2,369.9 L770.5,379.3 L770.8,364.3 L771.1,358.7 L771.4,342.8 L771.7,344.6 L772.0,381.1 L772.3,416.7 L772.6,403.6 L772.9,406.4 L773.2,415.8 L773.6,400.8 L773.8,429.8 L774.2,473.8 L774.5,440.1 L775.2,440.1 L775.5,447.6 L775.7,491.6 L776.0,467.2 L776.3,401.7 L776.6,425.1 L776.8,399.9 L777.1,369.0 L777.4,368.0 L777.7,371.8 L778.0,403.6 L778.3,416.7 L778.6,381.1 L778.9,365.2 L779.1,358.7 L779.4,331.5 L779.7,281.0 L780.2,318.4 L780.5,340.0 L781.3,367.1 L781.5,356.8 L781.8,344.6 L782.1,282.9 L782.4,334.3 L782.8,323.1 L783.0,353.1 L783.4,296.0 L783.6,307.2 L784.0,310.0 L784.3,328.7 L784.6,325.0 L784.9,299.7 L785.2,325.9 L785.5,287.5 L785.8,274.4 L786.0,266.9 L786.3,318.4 L786.6,316.6 L787.4,373.6 L787.7,360.5 L788.0,326.8 L788.3,366.2 L788.6,369.9 L788.8,380.2 L789.1,366.2 L789.4,379.3 L789.7,378.3 L790.0,424.2 L790.2,415.8 L790.5,400.8 L790.8,406.4 L791.1,387.7 L791.4,398.0 L791.7,370.8 L792.0,329.7 L792.3,349.3 L792.6,319.4 L792.9,367.1 L793.6,310.9 L793.8,324.0 L794.1,312.8 L794.4,357.7 L794.7,350.2 L795.0,337.1 L795.3,325.9 L795.6,367.1 L795.9,346.5 L796.2,348.4 L796.5,369.9 L796.9,379.3 L797.1,380.2 L797.4,369.0 L797.7,361.5 L798.0,337.1 L798.3,299.7 L798.6,329.7 L798.9,347.4 L799.7,334.3 L799.9,330.6 L800.2,272.6 L800.5,286.6 L800.8,263.2 L801.1,296.9 L801.4,340.0 L801.7,297.8 L801.9,314.7 L802.2,340.0 L802.5,361.5 L802.8,324.0 L803.1,361.5 L803.4,346.5 L803.7,315.6 L804.0,338.1 L804.3,356.8 L804.6,363.4 L804.9,370.8 L805.8,378.3 L806.1,377.4 L806.4,376.5 L806.7,381.1 L807.0,404.5 L807.3,369.0 L807.6,335.3 L807.9,350.2 L808.2,359.6 L808.5,353.1 L808.8,325.9 L809.1,365.2 L809.4,336.2 L809.7,382.1 L810.0,368.0 L810.3,419.5 L810.6,420.4 L811.0,371.8 L811.2,343.7 L811.9,334.3 L812.2,346.5 L812.5,365.2 L812.8,376.5 L813.1,404.5 L813.4,377.4 L813.7,364.3 L814.0,369.9 L814.3,386.8 L814.6,406.4 L814.9,412.0 L815.3,379.3 L815.5,383.9 L815.9,398.9 L816.2,369.9 L816.5,356.8 L816.8,384.9 L817.1,416.7 L817.4,374.6 L818.1,379.3 L818.3,390.5 L818.6,402.7 L818.9,387.7 L819.2,399.9 L819.5,431.7 L819.8,427.9 L820.2,373.6 L820.4,378.3 L820.8,400.8 L821.1,404.5 L821.4,369.9 L821.7,380.2 L822.0,363.4 L822.3,339.0 L822.6,364.3 L822.8,327.8 L823.2,366.2 L823.5,340.9 L824.2,387.7 L824.5,403.6 L824.7,475.7 L825.1,459.8 L825.3,465.4 L825.7,497.2 L826.0,403.6 L826.3,444.8 L826.6,443.8 L826.9,386.8 L827.2,378.3 L827.5,367.1 L827.8,379.3 L828.0,407.3 L828.3,373.6 L828.6,386.8 L828.9,367.1 L829.1,380.2 L829.4,379.3 L829.7,382.1 L830.3,300.6 L830.6,342.8 L830.9,310.0 L831.2,352.1 L831.5,318.4 L831.8,353.1 L832.1,367.1 L832.4,367.1 L832.7,374.6 L833.0,382.1 L833.3,396.1 L833.6,404.5 L833.9,384.9 L834.2,369.0 L834.4,388.6 L834.7,379.3 L835.0,375.5 L835.3,411.1 L835.7,380.2 L836.5,343.7 L836.7,346.5 L837.0,310.0 L837.3,311.9 L837.6,342.8 L837.9,367.1 L838.2,369.9 L838.5,375.5 L838.8,377.4 L839.1,379.3 L839.3,374.6 L839.6,368.0 L839.9,335.3 L840.2,364.3 L840.5,358.7 L840.7,363.4 L841.0,345.6 L841.3,355.9 L841.6,355.9 L841.9,386.8 L842.6,388.6 L842.9,375.5 L843.1,375.5 L843.5,377.4 L843.7,372.7 L844.1,383.0 L844.4,349.3 L844.7,345.6 L845.0,331.5 L845.3,356.8 L845.5,340.0 L845.8,364.3 L846.1,343.7 L846.4,359.6 L846.7,343.7 L847.0,350.2 L847.3,357.7 L847.6,379.3 L847.9,346.5 L848.7,377.4 L849.0,418.6 L849.3,398.0 L849.6,378.3 L849.9,365.2 L850.2,333.4 L850.5,369.9 L850.8,376.5 L851.1,392.4 L851.4,420.4 L851.7,396.1 L852.0,402.7 L852.3,382.1 L852.6,384.9 L852.9,382.1 L853.2,345.6 L853.4,354.0 L853.7,359.6 L854.0,364.3 L854.3,335.3 L854.9,289.4 L855.2,260.4 L855.5,319.4 L856.1,297.8 L856.3,304.4 L856.6,310.0 L857.0,315.6 L857.2,351.2 L857.5,357.7 L857.8,358.7 L858.1,395.2 L858.4,430.7 L858.7,379.3 L859.0,392.4 L859.4,406.4 L859.6,373.6 L859.9,358.7 L860.2,358.7 L861.5,329.7 L861.8,296.0 L862.0,296.9 L862.3,198.6 L862.6,240.7 L862.9,331.5 L863.2,302.5 L863.5,345.6 L863.8,354.0 L864.0,369.0 L864.3,361.5 L864.6,352.1 L864.9,397.0 L865.2,390.5 L865.4,360.5 L865.7,382.1 L866.0,352.1 L866.3,354.9 L866.7,340.0 L866.9,362.4 L868.1,273.5 L868.3,315.6 L868.6,288.5 L868.9,276.3 L869.2,347.4 L869.6,294.1 L869.8,302.5 L870.2,342.8 L870.4,344.6 L870.8,352.1 L871.1,362.4 L871.3,369.0 L871.6,383.9 L871.9,383.0 L872.2,372.7 L872.5,384.9 L872.7,401.7 L873.0,402.7 L873.3,398.0 L873.6,398.9 L874.7,428.9 L875.0,439.2 L875.2,403.6 L875.5,385.8 L875.8,428.9 L876.1,379.3 L876.4,370.8 L876.6,383.9 L876.9,367.1 L877.2,370.8 L877.5,394.2 L877.8,402.7 L878.0,413.0 L878.3,384.9 L878.6,431.7 L878.9,440.1 L879.2,392.4 L879.5,381.1 L879.8,374.6 L880.1,398.0 L881.3,383.9 L881.5,385.8 L881.8,413.9 L882.2,398.0 L882.4,409.2 L882.8,385.8 L883.0,387.7 L883.4,387.7 L883.7,427.9 L884.0,441.0 L884.3,423.3 L884.6,432.6 L884.8,397.0 L885.1,406.4 L885.4,403.6 L885.7,407.3 L886.0,415.8 L886.3,383.0 L886.6,394.2 L887.9,331.5 L888.2,361.5 L888.5,354.0 L888.8,367.1 L889.1,369.0 L889.4,332.5 L889.7,352.1 L890.0,374.6 L890.3,378.3 L890.6,397.0 L890.9,402.7 L891.2,383.9 L891.5,401.7 L891.8,389.6 L892.1,384.9 L892.4,369.0 L892.6,370.8 L892.9,362.4 L893.2,364.3 L893.5,379.3 L894.5,441.0 L894.8,399.9 L895.1,415.8 L895.4,432.6 L895.7,439.2 L896.0,479.4 L896.3,474.7 L896.6,475.7 L896.9,457.9 L897.3,477.5 L897.5,427.9 L897.8,443.8 L898.1,410.2 L898.4,444.8 L898.7,392.4 L899.0,461.6 L899.3,433.6 L899.7,420.4 L899.9,395.2 L901.2,310.0 L901.5,337.1 L901.8,327.8 L902.1,354.9 L902.3,326.8 L902.6,315.6 L902.9,333.4 L903.2,377.4 L903.5,369.0 L903.8,372.7 L904.1,369.9 L904.5,394.2 L904.7,377.4 L905.0,413.0 L905.3,407.3 L905.6,375.5 L905.8,373.6 L906.1,372.7 L906.4,376.5 L906.7,390.5 L907.8,281.0 L908.1,343.7 L908.4,334.3 L908.6,351.2 L908.9,320.3 L909.2,325.0 L909.5,285.7 L909.8,280.0 L910.0,321.2 L910.3,341.8 L910.6,343.7 L910.9,361.5 L911.2,351.2 L911.5,354.9 L911.8,320.3 L912.0,349.3 L912.3,346.5 L912.6,340.9 L912.9,327.8 L913.2,351.2 L914.4,395.2 L914.8,371.8 L915.0,380.2 L915.3,364.3 L915.6,340.9 L915.9,344.6 L916.2,334.3 L916.5,369.0 L916.8,364.3 L917.1,365.2 L917.4,368.0 L917.7,333.4 L918.0,332.5 L918.3,340.9 L918.6,345.6 L918.8,298.8 L919.1,296.9 L919.4,360.5 L919.7,355.9 L921.1,307.2 L921.3,298.8 L921.6,303.4 L921.9,302.5 L922.2,291.3 L922.5,302.5 L922.8,356.8 L923.1,344.6 L923.4,383.0 L923.7,378.3 L924.0,387.7 L924.4,356.8 L924.6,369.0 L925.0,371.8 L925.2,350.2 L925.6,339.0 L925.9,336.2 L926.1,354.0 L926.4,364.3 L927.7,259.5 L928.0,342.8 L928.3,329.7 L928.5,315.6 L928.8,307.2 L929.1,344.6 L929.4,350.2 L929.7,351.2 L930.0,393.3 L930.3,378.3 L930.6,408.3 L930.9,389.6 L931.2,388.6 L931.5,405.5 L931.8,369.0 L932.1,367.1 L932.4,378.3 L932.7,355.9 L933.0,365.2 L934.3,339.0 L934.6,347.4 L934.9,326.8 L935.2,325.9 L935.5,306.3 L935.7,300.6 L936.0,262.3 L936.3,287.5 L936.6,295.0 L936.8,351.2 L937.1,328.7 L937.4,317.5 L937.7,352.1 L938.0,325.9 L938.3,341.8 L938.6,369.0 L938.9,400.8 L939.2,404.5 L939.5,389.6 L939.8,425.1 L941.0,450.4 L941.2,447.6 L941.5,435.4 L941.9,411.1 L942.1,410.2 L942.5,423.3 L942.8,487.8 L943.1,440.1 L943.4,462.6 L943.7,385.8 L944.0,407.3 L944.3,436.4 L944.6,432.6 L944.9,421.4 L945.2,415.8 L945.5,421.4 L945.8,446.7 L946.0,378.3 L946.3,372.7 L947.6,390.5 L947.9,405.5 L948.2,406.4 L948.4,400.8 L948.7,402.7 L949.1,380.2 L949.3,388.6 L949.6,398.9 L949.9,460.7 L950.2,413.9 L950.4,396.1 L950.7,424.2 L951.0,401.7 L951.3,383.0 L951.6,376.5 L951.8,367.1 L952.2,364.3 L952.5,348.4 L952.8,340.9 L953.1,363.4 L954.3,322.2 L954.5,331.5 L954.8,317.5 L955.1,339.0 L955.4,316.6 L955.7,330.6 L956.0,334.3 L956.4,315.6 L956.6,321.2 L957.0,316.6 L957.2,315.6 L957.6,326.8 L957.9,325.0 L958.2,300.6 L958.5,341.8 L958.8,352.1 L959.1,375.5 L959.4,369.9 L959.7,363.4 L960.9,311.9 L961.2,327.8 L961.4,341.8 L961.8,316.6 L962.1,345.6 L962.3,314.7 L962.6,310.0 L962.9,341.8 L963.2,320.3 L963.4,309.1 L963.7,279.1 L964.0,300.6 L964.3,330.6 L964.6,325.9 L964.9,341.8 L965.2,332.5 L965.5,312.8 L965.8,299.7 L966.1,330.6 L966.4,329.7 L967.5,303.4 L967.8,333.4 L968.1,361.5 L968.4,368.0 L968.7,388.6 L969.0,378.3 L969.3,382.1 L969.6,390.5 L969.9,397.0 L970.2,389.6 L970.5,381.1 L970.8,391.4 L971.1,413.0 L971.4,419.5 L971.6,397.0 L971.9,387.7 L972.2,380.2 L972.5,366.2 L972.7,348.4 L973.0,362.4 L974.2,401.7 L974.4,407.3 L974.7,398.0 L975.0,412.0 L975.3,384.9 L975.5,398.0 L975.8,379.3 L976.1,397.0 L976.4,392.4 L976.6,386.8 L977.0,384.9 L977.3,361.5 L977.5,361.5 L977.8,371.8 L978.1,393.3 L978.4,413.9 L978.7,406.4 L979.0,413.9 L979.3,429.8 L979.6,454.1 L980.8,495.3 L981.1,469.1 L981.3,508.4 L981.7,410.2 L981.9,423.3 L982.2,431.7 L982.5,412.0 L982.8,417.6 L983.1,383.0 L983.4,380.2 L983.7,394.2 L984.1,421.4 L984.3,400.8 L984.7,384.9 L985.0,367.1 L985.3,382.1 L985.6,368.0 L985.9,347.4 L986.2,377.4 L987.5,482.2 L987.7,457.9 L988.0,419.5 L988.3,438.2 L988.6,410.2 L988.9,427.0 L989.2,381.1 L989.5,368.0 L989.8,344.6 L990.1,364.3 L990.4,365.2 L990.6,366.2 L990.9,366.2 L991.2,357.7 L991.5,345.6 L991.8,353.1 L992.0,339.0 L992.3,329.7 L992.6,310.0 L992.9,291.3 L994.1,232.3 L994.4,265.1 L994.7,257.6 L994.9,281.0 L995.2,267.9 L995.5,243.5 L995.8,266.0 L996.2,330.6 L996.4,338.1 L996.8,297.8 L997.1,340.0 L997.4,311.9 L997.7,331.5 L998.0,300.6 L998.3,277.2 L998.6,297.8 L998.8,289.4 L999.1,297.8 L999.4,319.4 L1000.8,410.2 L1001.0,377.4 L1001.3,405.5 L1001.6,383.9 L1001.9,412.0 L1002.2,378.3 L1002.5,369.0 L1002.8,375.5 L1003.1,383.9 L1003.5,412.0 L1003.7,418.6 L1004.0,391.4 L1004.3,379.3 L1004.6,396.1 L1004.9,382.1 L1005.1,377.4 L1005.4,361.5 L1005.7,349.3 L1006.0,345.6 L1006.3,366.2 L1007.4,278.2 L1007.7,320.3 L1008.0,291.3 L1008.3,326.8 L1008.5,346.5 L1008.8,354.0 L1009.1,340.9 L1009.4,352.1 L1009.7,354.0 L1009.9,329.7 L1010.2,320.3 L1010.5,364.3 L1010.8,379.3 L1011.1,383.0 L1011.4,391.4 L1011.7,413.9 L1011.9,410.2 L1012.2,394.2 L1012.5,443.8 L1012.8,378.3 L1014.1,444.8 L1014.4,455.1 L1014.7,437.3 L1015.0,412.0 L1015.2,401.7 L1015.5,402.7 L1015.8,412.0 L1016.1,460.7 L1016.4,423.3 L1016.7,436.4 L1017.0,408.3 L1017.3,427.0 L1017.6,409.2 L1017.8,389.6 L1018.1,392.4 L1018.4,391.4 L1018.7,398.9 L1019.0,383.0 L1019.3,365.2 L1019.6,374.6 L1020.7,350.2 L1021.1,383.0 L1021.4,376.5 L1021.6,379.3 L1021.9,390.5 L1022.2,379.3 L1022.5,358.7 L1022.8,325.0 L1023.0,358.7 L1023.3,363.4 L1023.6,346.5 L1023.9,350.2 L1024.2,344.6 L1024.5,330.6 L1024.8,326.8 L1025.1,332.5 L1025.4,357.7 L1025.7,352.1 L1026.0,370.8 L1027.4,451.3 L1027.7,453.2 L1027.9,486.0 L1028.3,419.5 L1028.6,413.0 L1028.9,421.4 L1029.2,395.2 L1029.5,391.4 L1029.7,383.0 L1030.1,394.2 L1030.3,402.7 L1030.7,358.7 L1030.9,364.3 L1031.2,364.3 L1031.5,350.2 L1031.8,375.5 L1032.1,406.4 L1032.5,366.2 L1032.7,336.2 L1034.1,398.9 L1034.3,425.1 L1034.6,384.9 L1034.9,371.8 L1035.2,362.4 L1035.5,326.8 L1035.7,343.7 L1036.1,330.6 L1036.4,305.3 L1036.7,321.2 L1037.0,303.4 L1037.3,295.0 L1037.6,345.6 L1037.9,340.9 L1038.1,296.0 L1038.4,346.5 L1038.7,312.8 L1039.0,334.3 L1039.3,364.3 L1039.6,381.1 L1040.7,469.1 L1041.0,443.8 L1041.3,444.8 L1041.6,421.4 L1041.9,471.9 L1042.2,435.4 L1042.5,380.2 L1042.8,366.2 L1043.0,334.3 L1043.4,346.5 L1043.7,318.4 L1043.9,297.8 L1044.2,339.0 L1044.5,311.9 L1044.8,288.5 L1045.1,331.5 L1045.4,241.7 L1045.7,250.1 L1046.0,231.4 L1046.3,265.1 L1047.4,374.6 L1047.7,374.6 L1048.0,386.8 L1048.3,367.1 L1048.6,382.1 L1048.9,367.1 L1049.2,377.4 L1049.5,423.3 L1049.8,385.8 L1050.1,394.2 L1050.4,413.9 L1050.7,396.1 L1051.0,365.2 L1051.3,331.5 L1051.6,335.3 L1051.9,369.0 L1052.2,368.0 L1052.5,371.8 L1052.8,396.1 L1054.1,307.2 L1054.4,286.6 L1054.6,312.8 L1055.0,315.6 L1055.3,333.4 L1055.6,341.8 L1055.9,334.3 L1056.2,362.4 L1056.5,332.5 L1056.8,362.4 L1057.0,362.4 L1057.4,350.2 L1057.7,325.9 L1058.0,338.1 L1058.3,329.7 L1058.6,341.8 L1058.8,358.7 L1059.1,403.6 L1059.4,384.9 L1060.8,464.4 L1061.1,417.6 L1061.3,388.6 L1061.6,373.6 L1061.9,350.2 L1062.2,370.8 L1062.5,385.8 L1062.8,381.1 L1063.1,380.2 L1063.4,381.1 L1063.7,397.0 L1064.0,376.5 L1064.3,376.5 L1064.6,380.2 L1064.9,356.8 L1065.2,369.9 L1065.5,369.0 L1065.8,383.9 L1066.1,378.3 L1067.5,363.4 L1067.7,379.3 L1068.0,368.0 L1068.3,352.1 L1068.6,321.2 L1068.9,336.2 L1069.1,325.9 L1069.4,266.9 L1069.7,262.3 L1070.0,317.5 L1070.3,335.3 L1070.5,331.5 L1070.8,305.3 L1071.1,281.9 L1071.4,326.8 L1071.6,342.8 L1072.0,352.1 L1072.3,365.2 L1072.5,368.0 L1073.0,370.8 L1074.3,413.9 L1074.5,413.0 L1074.8,398.9 L1075.1,384.9 L1075.4,395.2 L1075.7,370.8 L1076.0,360.5 L1076.3,334.3 L1076.6,306.3 L1076.9,341.8 L1077.2,355.9 L1077.5,316.6 L1078.0,355.9 L1078.3,349.3 L1078.6,350.2 L1078.9,340.9 L1079.2,374.6 L1079.5,399.9 L1080.9,506.6 L1081.2,481.3 L1081.5,413.0 L1081.8,409.2 L1082.1,405.5 L1082.4,411.1 L1083.6,302.5 L1083.9,354.0" fill="none" stroke="#ff7f0e" stroke-width="1.1" opacity="0.85"/><text x="616" y="572" font-size="11" fill="#888">time 0..84 s — altitude (blue) &amp; roll (orange)</text></svg>