<svg xmlns="http://www.w3.org/2000/svg" width="1140" height="600" font-family="sans-serif" font-size="13"><rect width="1140" height="600" fill="white"/><text x="20" y="26" font-size="15" fill="#333">Coludo flight</text><rect x="20" y="40" width="540" height="540" fill="#fbfbfb" stroke="#ddd"/><rect x="50" y="306" width="281" height="60" fill="#cde" stroke="#369" opacity="0.7"/><text x="50" y="301" fill="#369" font-size="12">landing zone</text><circle cx="228" cy="400" r="5" fill="black"/><text x="236" y="404" font-size="12">pad</text><path d="M228.3,400.0 L228.3,400.0 L228.3,400.0 L228.3,400.0 L228.3,400.0 L228.3,400.0 L228.3,400.0 L228.3,400.0 L228.3,400.0 L228.3,400.0 L228.3,400.0 L228.3,400.0 L228.3,400.0 L228.3,400.0 L228.3,400.0 L228.3,400.0 L228.3,400.0 L228.3,400.0 L228.3,400.0 L228.3,400.0 L228.3,400.0 L228.3,400.0 L228.3,400.0 L228.3,400.0 L228.3,400.0 L228.3,400.0 L228.3,400.0 L228.3,400.0 L228.3,400.0 L228.3,400.0 L228.3,400.0 L228.3,400.0 L228.3,400.0 L228.3,400.0 L228.3,400.0 L228.3,400.0 L228.3,400.0 L228.3,400.0 L228.3,400.0 L228.3,400.0 L228.3,400.0 L228.3,400.0 L228.3,400.0 L228.3,400.0 L228.3,400.0 L228.3,400.0 L228.3,400.0 L228.3,400.0 L228.3,400.0 L228.3,400.0 L228.3,400.0 L228.3,400.0 L228.3,400.0 L228.3,400.0 L228.3,400.0 L229.2,398.3 L229.8,396.7 L231.3,394.3 L232.8,391.7 L234.0,390.3 L234.3,388.3 L237.4,386.6 L238.9,384.6 L238.9,383.3 L241.9,381.3 L243.4,379.3 L243.7,377.9 L246.4,376.3 L248.5,374.3 L249.4,372.9 L252.4,371.3 L253.3,370.3 L255.5,368.3 L258.2,366.9 L260.0,365.2 L261.5,363.9 L264.2,362.9 L264.5,361.6 L267.5,360.2 L267.8,358.9 L270.5,357.2 L272.0,356.2 L273.6,354.9 L275.1,352.9 L277.5,351.2 L278.1,349.5 L281.1,347.9 L282.6,346.2 L283.5,344.5 L285.6,342.5 L287.1,340.8 L288.3,338.5 L288.6,336.5 L290.2,334.5 L291.7,332.5 L292.0,330.1 L293.2,327.8 L294.7,325.8 L296.2,323.1 L296.8,321.4 L296.8,319.1 L297.7,316.4 L299.2,313.8 L299.2,311.8 L300.7,309.1 L300.7,307.1 L301.6,304.7 L301.6,302.1 L301.6,300.4 L301.6,297.4 L302.2,295.0 L302.2,292.4 L302.2,290.0 L303.7,288.0 L303.7,285.7 L305.2,282.7 L306.7,280.7 L306.7,278.7 L307.0,276.3 L308.3,274.3 L308.3,272.3 L309.8,270.3 L311.3,268.0 L312.5,266.3 L312.8,264.3 L314.3,261.6 L315.8,259.9 L316.1,258.3 L317.3,255.9 L318.8,254.3 L320.9,252.6 L321.8,250.9 L323.3,248.9 L324.8,247.2 L327.6,245.2 L329.4,243.6 L330.9,241.9 L331.2,240.5 L333.9,239.2 L337.2,237.9 L336.9,236.2 L339.9,234.9 L340.2,233.9 L342.9,232.5 L345.1,231.2 L347.5,229.9 L350.5,228.5 L352.0,227.5 L355.3,226.2 L358.0,225.8 L359.5,224.8 L361.0,224.2 L364.1,223.5 L365.6,222.8 L368.6,222.5 L370.1,221.8 L373.1,221.5 L375.2,220.8 L377.6,220.5 L380.1,220.5 L382.2,220.2 L383.7,220.2 L385.2,219.8 L390.3,219.8 L391.2,220.2 L394.2,220.2 L397.3,220.5 L400.0,220.8 L401.8,221.2 L404.8,221.8 L406.3,222.2 L409.0,222.8 L410.8,223.5 L413.8,224.2 L415.4,224.8 L418.1,226.2 L421.4,226.8 L424.1,227.8 L425.9,228.8 L427.7,229.9 L428.9,231.2 L431.9,232.5 L433.5,233.5 L436.5,234.9 L439.5,237.5 L441.0,239.2 L442.8,240.5 L444.0,241.9 L447.0,243.6 L448.5,245.9 L450.1,247.2 L451.9,248.9 L453.1,250.9 L456.1,253.6 L457.9,255.6 L459.1,257.6 L460.6,259.6 L462.1,261.3 L462.1,263.3 L463.6,265.3 L465.1,267.6 L466.6,270.0 L466.9,273.3 L468.2,275.3 L468.2,277.3 L469.7,280.3 L471.2,282.0 L471.2,284.7 L471.8,286.7 L471.8,288.7 L472.7,291.0 L472.7,293.4 L474.2,295.0 L474.2,297.7 L475.7,299.7 L476.0,302.4 L476.0,304.4 L477.2,307.1 L478.7,309.1 L478.7,311.1 L480.2,313.1 L481.7,316.8 L483.2,318.8 L484.7,321.1 L486.3,322.5 L487.5,325.1 L487.8,326.8 L489.3,329.1 L491.1,330.8 L492.3,332.8 L495.3,335.8 L496.8,336.8 L498.3,338.5 L500.7,340.2 L502.8,342.2 L504.4,343.2 L508.9,346.2 L511.6,347.2 L513.4,348.9 L515.8,349.9 L517.9,350.5 L520.6,351.9 L522.5,352.9 L524.0,353.9 L525.5,354.9 L530.0,356.2" fill="none" stroke="#1f77b4" stroke-width="1.7" opacity="0.85"/><circle cx="530" cy="356" r="4.5" fill="#1f77b4"/><text x="28" y="572" font-size="11" fill="#888">ground track — m from pad (N up)</text><rect x="580" y="40" width="540" height="540" fill="#fbfbfb" stroke="#ddd"/><text x="586" y="54" fill="#1f77b4" font-size="11">alt 155</text><text x="586" y="558" fill="#1f77b4" font-size="11">-51</text><path d="M668.2,423.6 L668.9,423.4 L669.6,422.1 L670.8,421.4 L671.6,420.7 L672.3,420.9 L673.0,418.7 L673.8,416.8 L674.5,416.8 L675.2,414.3 L675.9,413.3 L676.7,411.9 L677.4,411.5 L678.2,405.6 L678.9,406.9 L679.6,404.1 L680.4,399.0 L681.1,395.2 L681.8,391.7 L682.7,389.8 L683.3,391.9 L684.0,383.0 L684.8,385.3 L685.5,383.4 L686.2,373.1 L687.0,367.6 L687.7,370.6 L688.4,358.0 L689.2,357.4 L689.9,357.1 L690.6,343.9 L691.4,350.2 L692.1,341.1 L692.8,324.5 L693.6,326.4 L694.3,313.9 L695.0,324.5 L695.8,301.8 L696.6,308.0 L697.6,293.0 L698.3,282.4 L699.0,280.1 L699.7,292.7 L700.5,296.9 L701.2,275.7 L701.9,275.5 L702.7,266.8 L703.4,266.5 L704.1,271.8 L704.9,256.8 L705.6,255.2 L706.3,254.2 L707.1,243.0 L707.8,225.1 L708.5,243.1 L709.3,229.5 L710.0,221.1 L710.7,236.0 L711.5,223.6 L712.2,215.2 L713.1,215.4 L713.8,201.5 L714.6,198.0 L715.3,186.9 L716.0,215.1 L716.8,205.8 L717.5,194.4 L718.2,196.1 L719.0,183.6 L719.7,155.6 L720.4,180.8 L721.1,191.0 L721.9,161.2 L722.6,179.1 L723.3,189.7 L724.1,145.0 L724.8,185.5 L725.5,184.3 L726.3,176.3 L727.0,171.4 L727.7,127.4 L728.5,129.0 L729.2,148.3 L730.0,128.4 L730.7,163.7 L731.4,134.9 L732.2,144.2 L732.9,108.5 L733.8,125.3 L734.5,133.2 L735.2,104.9 L736.0,125.0 L736.7,102.8 L737.4,136.7 L738.2,114.1 L738.9,132.8 L739.6,126.9 L740.4,144.0 L741.1,94.4 L741.8,85.6 L742.5,97.1 L743.2,136.5 L743.9,92.8 L744.6,97.7 L745.4,133.2 L746.1,79.1 L746.8,99.4 L747.6,105.1 L748.3,99.1 L749.0,99.4 L749.8,123.3 L750.5,92.0 L751.2,122.6 L752.0,89.1 L752.7,76.0 L753.4,99.0 L754.2,101.3 L754.9,81.2 L755.6,130.8 L756.4,108.6 L757.1,105.1 L758.0,130.0 L758.6,109.8 L759.3,86.1 L760.0,88.8 L760.8,89.2 L761.5,111.0 L762.2,118.2 L763.0,100.8 L763.7,136.0 L764.5,122.1 L765.2,116.8 L765.9,94.0 L766.6,108.5 L767.4,85.0 L768.1,88.7 L768.9,127.5 L769.6,90.5 L770.3,77.9 L771.0,108.1 L771.8,137.8 L772.6,124.9 L773.4,89.9 L774.1,89.2 L774.9,138.6 L775.6,110.8 L776.3,130.4 L777.1,107.4 L777.8,110.5 L778.5,120.2 L779.3,100.5 L780.0,97.7 L780.7,103.9 L781.5,119.3 L782.2,132.1 L782.9,83.8 L783.7,119.3 L784.4,135.4 L785.1,127.9 L785.9,97.9 L786.6,134.5 L787.7,103.0 L788.4,135.8 L789.1,114.0 L789.8,92.1 L790.6,123.3 L791.3,119.7 L792.0,111.9 L792.8,106.0 L793.5,130.2 L794.2,95.6 L795.0,140.1 L795.7,132.6 L796.4,93.7 L797.2,103.5 L797.9,148.1 L798.6,143.7 L799.4,114.5 L800.1,145.5 L800.8,132.3 L801.5,131.6 L802.3,101.9 L803.2,125.8 L803.9,151.4 L804.6,138.0 L805.4,102.0 L806.1,102.7 L806.8,105.3 L807.6,139.0 L808.3,100.1 L809.1,98.4 L809.8,118.9 L810.5,147.6 L811.2,139.6 L812.0,153.4 L812.7,109.2 L813.5,148.2 L814.2,109.9 L814.9,145.1 L815.6,141.1 L816.4,131.8 L817.1,156.8 L818.2,116.8 L818.9,156.3 L819.6,148.4 L820.3,124.9 L821.1,156.9 L821.8,164.6 L822.5,134.0 L823.3,149.5 L824.0,159.4 L824.7,115.1 L825.5,154.6 L826.2,160.7 L827.0,158.0 L827.7,122.4 L828.4,139.0 L829.2,161.6 L829.9,157.3 L830.6,171.2 L831.4,156.3 L832.1,128.2 L833.5,141.2 L834.3,143.2 L835.0,140.8 L835.8,145.8 L836.5,126.6 L837.2,161.6 L838.0,136.1 L838.7,131.6 L839.4,129.6 L840.2,164.5 L840.9,147.7 L841.6,151.2 L842.4,168.1 L843.1,148.4 L843.8,133.4 L844.6,159.1 L845.3,153.5 L846.0,163.4 L846.8,172.8 L847.5,161.2 L848.9,138.6 L849.7,145.6 L850.4,167.5 L851.2,170.9 L851.9,167.4 L852.6,153.4 L853.4,142.3 L854.1,177.3 L854.8,151.4 L855.6,171.1 L856.3,163.0 L857.0,172.3 L857.8,190.2 L858.5,177.3 L859.2,184.1 L860.0,168.9 L860.7,185.7 L861.4,191.3 L862.2,174.8 L862.9,185.4 L864.3,178.6 L865.1,166.5 L865.8,160.5 L866.6,187.2 L867.3,182.9 L868.0,176.6 L868.8,199.7 L869.5,162.2 L870.2,207.2 L871.0,174.5 L871.7,186.4 L872.4,205.4 L873.2,194.4 L873.9,166.9 L874.6,171.4 L875.4,200.0 L876.1,179.1 L876.8,199.2 L877.6,205.2 L878.3,175.7 L879.8,197.0 L880.5,209.6 L881.2,212.3 L882.0,221.7 L882.7,216.2 L883.4,199.3 L884.2,210.4 L884.9,184.1 L885.6,214.0 L886.4,184.9 L887.1,223.7 L887.8,205.3 L888.6,223.0 L889.3,218.0 L890.0,206.0 L890.8,228.3 L891.5,203.8 L892.2,224.7 L893.0,215.3 L893.7,201.1 L895.2,227.4 L895.9,218.2 L896.6,218.2 L897.4,229.6 L898.1,237.9 L898.8,208.7 L899.6,219.0 L900.3,232.9 L901.0,230.8 L901.8,232.6 L902.5,211.6 L903.3,228.5 L904.0,214.7 L904.7,242.4 L905.4,218.6 L906.2,234.4 L906.9,241.1 L907.6,237.3 L908.4,243.9 L909.1,236.5 L910.6,223.0 L911.3,243.6 L912.1,233.1 L912.8,239.4 L913.5,232.3 L914.2,253.0 L915.0,252.4 L915.7,259.5 L916.5,250.4 L917.2,231.7 L917.9,263.4 L918.7,237.0 L919.4,242.1 L920.1,254.4 L920.9,272.1 L921.6,248.9 L922.3,267.2 L923.1,249.1 L923.8,260.6 L924.5,259.1 L925.2,246.8 L926.1,251.8 L926.9,257.6 L927.6,268.4 L928.3,276.4 L929.1,263.3 L929.8,280.8 L930.5,274.4 L931.3,281.0 L932.0,261.1 L932.7,272.3 L933.5,273.5 L934.2,283.5 L934.9,271.4 L935.7,273.3 L936.4,277.6 L937.1,292.1 L937.9,295.2 L938.6,281.1 L939.3,282.3 L940.1,295.0 L942.2,288.3 L942.9,276.3 L943.6,295.7 L944.3,297.5 L945.1,301.2 L945.8,280.6 L946.5,284.6 L947.2,288.3 L948.0,286.4 L948.7,294.6 L949.5,307.8 L950.2,296.3 L950.9,303.9 L951.7,296.4 L952.4,293.7 L953.1,300.9 L953.9,302.7 L954.6,304.0 L955.3,321.5 L956.1,302.1 L958.2,323.7 L958.9,319.4 L959.6,308.3 L960.3,310.1 L961.1,324.7 L961.8,329.6 L962.5,330.0 L963.3,316.0 L964.0,325.6 L964.7,319.8 L965.5,325.2 L966.2,331.2 L966.9,322.5 L967.7,330.8 L968.4,329.0 L969.1,333.6 L969.9,333.5 L970.6,342.5 L971.3,333.9 L972.1,331.7 L972.8,348.4 L974.3,335.1 L975.0,344.4 L975.7,340.1 L976.5,352.5 L977.2,347.0 L977.9,352.2 L978.7,356.6 L979.4,344.1 L980.1,352.9 L980.9,355.3 L981.6,349.0 L982.3,361.0 L983.1,357.3 L983.8,363.4 L984.5,364.6 L985.3,365.5 L986.0,365.8 L986.7,368.8 L987.5,362.7 L988.2,370.3 L988.9,365.3 L990.5,367.9 L991.1,370.9 L991.9,368.1 L992.6,370.5 L993.3,372.0 L994.1,372.3 L994.8,373.9 L995.5,383.8 L996.3,386.0 L997.0,381.2 L997.7,381.4 L998.5,384.1 L999.2,383.9 L999.9,390.4 L1000.7,392.2 L1001.4,392.6 L1002.1,389.4 L1002.9,389.7 L1003.6,392.9 L1004.3,396.0 L1006.5,397.6 L1007.1,400.8 L1007.9,403.1 L1008.6,403.6 L1009.3,406.5 L1010.1,406.5 L1010.8,405.8 L1011.5,408.3 L1012.3,409.1 L1013.0,413.2 L1013.7,412.7 L1014.5,413.7 L1015.2,416.6 L1016.0,418.7 L1016.7,418.9 L1017.4,420.8 L1018.1,421.2 L1018.9,423.3 L1019.6,424.1 L1020.3,425.9 L1021.1,427.1 L1022.6,429.2 L1023.3,430.7 L1024.0,432.9 L1024.7,434.2 L1025.5,434.1 L1026.2,437.6 L1026.9,437.8 L1027.7,439.8 L1028.4,441.2 L1029.1,440.3 L1029.9,444.0 L1030.6,443.2 L1031.3,446.0 L1032.1,447.9 L1032.8,448.9 L1033.5,447.9 L1034.3,448.9 L1035.0,453.6 L1035.7,452.6 L1036.5,452.1 L1038.7,460.9 L1039.4,456.9 L1040.2,463.9 L1040.9,460.1 L1041.6,466.9 L1042.3,468.4 L1043.1,466.5 L1043.8,469.8 L1044.5,472.0 L1045.3,466.9 L1046.0,467.9 L1046.8,473.5 L1047.5,469.9 L1048.2,473.7 L1048.9,478.5 L1049.7,474.6 L1050.4,477.5 L1051.1,477.2 L1051.9,486.3 L1052.6,478.4 L1054.7,483.3 L1055.5,483.6 L1056.3,492.1 L1057.0,492.1 L1057.7,494.0 L1058.5,490.5 L1059.2,496.1 L1059.9,495.2 L1060.7,499.8 L1061.4,506.3 L1062.1,495.7 L1062.9,501.0 L1063.6,509.4 L1064.3,508.3 L1066.8,509.2 L1067.5,507.3 L1068.3,507.3 L1069.0,505.7 L1070.7,508.5 L1071.5,508.6 L1072.3,524.8 L1073.0,511.7 L1073.7,521.9 L1074.5,523.4 L1075.2,530.0 L1075.9,532.5 L1076.7,536.9 L1077.4,535.5 L1078.1,536.2 L1078.9,520.2 L1079.6,534.9 L1080.3,543.2 L1081.1,534.1 L1081.8,544.0 L1082.5,533.6 L1083.3,543.6 L1084.0,531.7" fill="none" stroke="#1f77b4" stroke-width="1.4" opacity="0.85"/><text x="1040" y="54" fill="#ff7f0e" font-size="11">roll 18</text><text x="1090" y="558" fill="#ff7f0e" font-size="11">-25</text><path d="M668.2,275.3 L668.9,275.3 L669.6,275.3 L670.8,274.2 L671.6,275.3 L672.3,274.2 L673.0,275.3 L673.8,275.3 L674.5,276.4 L675.2,275.3 L675.9,275.3 L676.7,274.2 L677.4,275.3 L678.2,276.4 L678.9,275.3 L679.6,274.2 L680.4,276.4 L681.1,275.3 L681.8,275.3 L682.6,276.4 L683.3,274.2 L684.0,275.3 L684.8,275.3 L685.5,275.3 L686.2,275.3 L687.0,276.4 L687.7,274.2 L688.4,276.4 L689.2,276.4 L689.9,275.3 L690.6,274.2 L691.4,275.3 L692.1,275.3 L692.8,275.3 L693.6,275.3 L694.3,275.3 L695.0,274.2 L695.8,274.2 L696.6,274.2 L697.5,275.3 L698.3,274.2 L699.0,275.3 L699.7,276.4 L700.5,274.2 L701.2,275.3 L701.9,276.4 L702.7,275.3 L703.4,274.2 L704.1,274.2 L704.9,274.2 L705.6,275.3 L706.3,276.4 L707.1,275.3 L707.8,275.3 L708.5,276.4 L709.3,276.4 L710.0,275.3 L710.7,274.2 L711.5,274.2 L712.2,274.2 L713.1,276.4 L713.8,275.3 L714.6,276.4 L715.3,276.4 L716.0,274.2 L716.8,275.3 L717.5,275.3 L718.2,275.3 L719.0,275.3 L719.7,276.4 L720.4,275.3 L721.1,274.2 L721.9,274.2 L722.6,275.3 L723.3,275.3 L724.1,275.3 L724.8,274.2 L725.5,276.4 L726.3,276.4 L727.0,276.4 L727.7,274.2 L728.5,275.3 L729.2,275.3 L730.0,274.2 L730.7,275.3 L731.4,275.3 L732.2,274.2 L732.9,275.3 L733.8,276.4 L734.5,274.2 L735.2,275.3 L736.0,275.3 L736.7,275.3 L737.4,275.3 L738.2,274.2 L738.9,274.2 L739.6,275.3 L740.4,275.3 L741.1,274.2 L741.8,275.3 L742.5,274.2 L743.2,275.3 L743.9,275.3 L744.6,276.4 L745.4,274.2 L746.1,275.3 L746.8,276.4 L747.6,276.4 L748.3,275.3 L749.0,274.2 L749.8,275.3 L750.5,275.3 L751.2,274.2 L752.0,274.2 L752.7,274.2 L753.4,274.2 L754.2,275.3 L754.9,276.4 L755.6,275.3 L756.4,275.3 L757.1,260.2 L758.0,229.8 L758.6,203.8 L759.3,199.5 L760.0,169.2 L760.8,151.8 L761.5,145.3 L762.2,148.6 L763.0,116.1 L763.7,108.5 L764.5,109.6 L765.2,109.6 L765.9,96.6 L766.6,109.6 L767.4,103.1 L768.1,119.3 L768.9,116.1 L769.6,118.3 L770.3,106.3 L771.0,112.8 L771.8,115.0 L772.6,113.9 L773.4,89.0 L774.1,107.4 L774.9,115.0 L775.6,95.5 L776.3,94.4 L777.1,85.8 L777.8,87.9 L778.5,122.6 L779.3,112.8 L780.0,116.1 L780.7,104.2 L781.5,122.6 L782.2,130.2 L782.9,135.6 L783.7,142.1 L784.4,131.2 L785.1,131.2 L785.9,144.2 L786.6,148.6 L787.7,155.1 L788.4,155.1 L789.1,156.2 L789.8,193.0 L790.6,234.2 L791.3,253.7 L792.0,286.2 L792.8,305.7 L793.5,331.7 L794.2,354.4 L795.0,369.6 L795.7,397.8 L796.4,408.6 L797.2,418.3 L797.9,425.9 L798.6,414.0 L799.4,429.2 L800.1,420.5 L800.8,424.8 L801.5,459.5 L802.3,453.0 L803.2,467.1 L803.9,445.4 L804.6,443.2 L805.4,462.8 L806.1,458.4 L806.8,446.5 L807.6,432.4 L808.3,441.1 L809.0,459.5 L809.8,457.3 L810.5,447.6 L811.2,443.2 L812.0,469.2 L812.7,446.5 L813.4,472.5 L814.2,480.1 L814.9,464.9 L815.6,464.9 L816.4,449.8 L817.1,440.0 L818.2,463.8 L818.9,443.2 L819.6,457.3 L820.3,443.2 L821.1,447.6 L821.8,437.8 L822.5,442.2 L823.3,458.4 L824.0,474.7 L824.7,459.5 L825.5,470.3 L826.2,471.4 L826.9,463.8 L827.7,472.5 L828.4,463.8 L829.1,453.0 L829.9,442.2 L830.6,471.4 L831.3,459.5 L832.1,447.6 L833.5,454.1 L834.3,435.7 L835.0,469.2 L835.7,464.9 L836.5,437.8 L837.2,453.0 L837.9,445.4 L838.7,445.4 L839.4,461.7 L840.2,445.4 L840.9,461.7 L841.6,460.6 L842.3,436.8 L843.1,437.8 L843.8,430.2 L844.6,366.3 L845.3,343.6 L846.0,299.2 L846.7,278.6 L847.5,248.2 L848.9,213.6 L849.7,194.1 L850.4,159.4 L851.2,142.1 L851.9,133.4 L852.6,118.3 L853.4,132.3 L854.1,135.6 L854.8,115.0 L855.6,107.4 L856.3,110.7 L857.0,103.1 L857.8,121.5 L858.5,117.2 L859.2,106.3 L860.0,99.8 L860.7,102.0 L861.4,117.2 L862.2,84.7 L862.9,117.2 L864.3,116.1 L865.1,117.2 L865.8,108.5 L866.6,111.8 L867.3,110.7 L868.0,111.8 L868.8,86.8 L869.5,106.3 L870.2,96.6 L871.0,92.2 L871.7,77.1 L872.4,92.2 L873.2,112.8 L873.9,85.8 L874.6,82.5 L875.4,85.8 L876.1,115.0 L876.8,111.8 L877.6,96.6 L878.3,109.6 L879.8,92.2 L880.5,82.5 L881.2,104.2 L882.0,91.2 L882.7,90.1 L883.4,90.1 L884.2,107.4 L884.9,99.8 L885.6,89.0 L886.4,102.0 L887.1,113.9 L887.8,92.2 L888.6,97.7 L889.3,81.4 L890.0,82.5 L890.8,85.8 L891.5,104.2 L892.2,83.6 L893.0,111.8 L893.7,85.8 L895.2,86.8 L895.9,93.3 L896.6,108.5 L897.4,97.7 L898.1,110.7 L898.8,99.8 L899.6,103.1 L900.3,84.7 L901.0,117.2 L901.8,89.0 L902.5,84.7 L903.2,98.8 L904.0,85.8 L904.7,100.9 L905.4,83.6 L906.2,109.6 L906.9,108.5 L907.6,85.8 L908.4,90.1 L909.1,85.8 L910.6,104.2 L911.3,93.3 L912.0,113.9 L912.8,82.5 L913.5,106.3 L914.2,90.1 L915.0,108.5 L915.7,103.1 L916.4,100.9 L917.2,96.6 L917.9,106.3 L918.7,93.3 L919.4,86.8 L920.1,104.2 L920.8,108.5 L921.6,100.9 L922.3,113.9 L923.1,113.9 L923.8,108.5 L924.5,102.0 L925.2,111.8 L926.1,76.0 L926.9,105.3 L927.6,112.8 L928.3,95.5 L929.1,107.4 L929.8,97.7 L930.5,99.8 L931.3,91.2 L932.0,82.5 L932.7,80.3 L933.5,110.7 L934.2,112.8 L934.9,78.2 L935.7,85.8 L936.4,112.8 L937.1,90.1 L937.9,79.2 L938.6,96.6 L939.3,116.1 L940.1,93.3 L942.2,106.3 L942.9,111.8 L943.6,89.0 L944.3,98.8 L945.1,95.5 L945.8,82.5 L946.5,92.2 L947.2,104.2 L948.0,109.6 L948.7,83.6 L949.5,89.0 L950.2,116.1 L950.9,103.1 L951.7,102.0 L952.4,116.1 L953.1,92.2 L953.9,105.3 L954.6,103.1 L955.3,110.7 L956.1,80.3 L958.2,80.3 L958.8,100.9 L959.6,85.8 L960.3,106.3 L961.1,102.0 L961.8,109.6 L962.5,95.5 L963.2,102.0 L964.0,109.6 L964.7,93.3 L965.5,76.0 L966.2,104.2 L966.9,92.2 L967.6,92.2 L968.4,91.2 L969.1,83.6 L969.9,92.2 L970.6,112.8 L971.3,97.7 L972.1,92.2 L972.8,92.2 L974.3,98.8 L975.0,110.7 L975.7,106.3 L976.5,86.8 L977.2,83.6 L977.9,108.5 L978.7,104.2 L979.4,83.6 L980.1,94.4 L980.9,97.7 L981.6,82.5 L982.3,105.3 L983.1,111.8 L983.8,98.8 L984.5,105.3 L985.3,78.2 L986.0,99.8 L986.7,85.8 L987.5,83.6 L988.2,84.7 L988.9,80.3 L990.5,122.6 L991.1,103.1 L991.9,103.1 L992.6,86.8 L993.3,115.0 L994.1,84.7 L994.8,105.3 L995.5,93.3 L996.3,90.1 L997.0,103.1 L997.7,83.6 L998.5,93.3 L999.2,95.5 L999.9,109.6 L1000.7,105.3 L1001.4,113.9 L1002.1,96.6 L1002.9,96.6 L1003.6,110.7 L1004.3,102.0 L1006.4,104.2 L1007.1,103.1 L1007.9,103.1 L1008.6,79.2 L1009.3,97.7 L1010.1,105.3 L1010.8,84.7 L1011.5,110.7 L1012.3,98.8 L1013.0,90.1 L1013.7,100.9 L1014.5,90.1 L1015.2,96.6 L1015.9,123.7 L1016.7,143.2 L1017.4,189.8 L1018.1,222.2 L1018.9,255.8 L1019.6,278.6 L1020.3,302.4 L1021.1,325.2 L1022.6,350.1 L1023.3,383.7 L1024.0,397.8 L1024.7,399.9 L1025.5,401.0 L1026.2,408.6 L1026.9,417.2 L1027.7,409.7 L1028.4,438.9 L1029.1,421.6 L1029.9,425.9 L1030.6,415.1 L1031.3,420.5 L1032.1,410.8 L1032.8,407.5 L1033.5,429.2 L1034.3,411.8 L1035.0,454.1 L1035.7,422.7 L1036.5,427.0 L1038.7,463.8 L1039.4,450.8 L1040.2,441.1 L1040.9,480.1 L1041.6,472.5 L1042.3,468.2 L1043.1,468.2 L1043.8,488.8 L1044.5,458.4 L1045.3,483.3 L1046.0,481.2 L1046.7,495.2 L1047.5,479.0 L1048.2,492.0 L1048.9,505.0 L1049.7,485.5 L1050.4,484.4 L1051.1,520.2 L1051.9,519.1 L1052.6,488.8 L1054.7,537.5 L1055.5,498.5 L1056.3,512.6 L1057.0,521.2 L1057.7,494.2 L1058.5,519.1 L1059.2,544.0 L1059.9,536.4 L1060.7,532.1 L1061.4,520.2 L1062.1,541.8 L1062.9,544.0 L1063.6,524.5 L1064.3,540.8 L1066.8,476.8 L1067.5,495.2 L1068.3,468.2 L1069.0,430.2 L1070.7,414.0 L1071.5,401.0 L1072.3,376.1 L1073.0,372.8 L1073.7,357.7 L1074.5,346.8 L1075.2,342.5 L1075.9,339.2 L1076.7,328.4 L1077.4,323.0 L1078.1,316.5 L1078.9,320.8 L1079.6,307.8 L1080.3,312.2 L1081.1,307.8 L1081.8,306.8 L1082.5,301.3 L1083.3,300.2 L1084.0,294.8" fill="none" stroke="#ff7f0e" stroke-width="1.1" opacity="0.85"/><text x="616" y="572" font-size="11" fill="#888">time 0..32 s — altitude (blue) &amp; roll (orange)</text></svg>