<svg xmlns="http://www.w3.org/2000/svg" width="1140" height="600" font-family="sans-serif" font-size="13"><rect width="1140" height="600" fill="white"/><text x="20" y="26" font-size="15" fill="#333">Coludo flight</text><rect x="20" y="40" width="540" height="540" fill="#fbfbfb" stroke="#ddd"/><rect x="50" y="303" width="288" height="62" fill="#cde" stroke="#369" opacity="0.7"/><text x="50" y="298" fill="#369" font-size="12">landing zone</text><circle cx="232" cy="400" r="5" fill="black"/><text x="240" y="404" font-size="12">pad</text><path d="M232.9,400.1 L232.9,400.1 L232.9,400.1 L232.9,400.1 L232.9,400.1 L232.9,400.1 L232.9,400.1 L232.9,400.1 L232.9,400.1 L232.9,400.1 L232.9,400.1 L232.9,400.1 L232.9,400.1 L232.9,400.1 L232.9,400.1 L232.9,400.1 L232.9,400.1 L232.9,400.1 L232.9,400.1 L232.9,400.1 L232.9,400.1 L232.9,400.1 L232.9,400.1 L232.9,400.1 L232.9,400.1 L232.9,400.1 L232.9,400.1 L232.9,400.1 L232.9,400.1 L232.9,400.1 L232.9,400.1 L232.9,400.1 L232.9,400.1 L232.9,400.1 L232.9,400.1 L232.9,400.1 L232.9,400.1 L232.9,400.1 L232.9,400.1 L232.9,400.1 L232.9,400.1 L232.9,400.1 L232.9,400.1 L232.9,400.1 L232.9,400.1 L232.9,400.1 L232.9,400.1 L232.9,400.1 L232.9,400.1 L232.9,400.1 L232.9,400.1 L232.9,400.1 L232.9,400.1 L232.9,399.4 L233.8,397.4 L236.0,395.0 L237.5,392.6 L238.8,390.8 L239.1,388.4 L242.2,386.4 L243.7,384.7 L243.7,383.0 L246.8,380.9 L248.4,379.2 L248.7,377.5 L251.5,375.8 L253.0,373.7 L254.6,372.3 L257.7,370.6 L258.6,369.6 L260.8,367.9 L262.3,366.2 L263.8,364.8 L266.9,363.1 L269.7,362.0 L271.6,360.3 L273.1,358.6 L274.7,356.9 L277.8,355.5 L278.4,353.8 L280.9,352.1 L283.3,350.0 L284.0,348.3 L287.1,346.3 L288.6,344.2 L289.5,342.1 L291.7,340.4 L293.2,338.0 L294.5,335.6 L294.8,333.6 L297.9,331.2 L298.2,328.8 L299.4,326.7 L301.0,324.3 L301.0,322.3 L302.5,320.2 L303.2,317.5 L303.2,315.4 L304.1,313.0 L305.6,310.6 L305.6,307.9 L307.2,305.5 L307.2,303.1 L307.2,300.3 L308.1,298.3 L308.1,295.9 L308.7,293.1 L308.7,291.1 L308.7,288.7 L310.3,286.3 L310.3,283.9 L311.8,281.5 L313.4,278.7 L313.4,276.7 L313.7,274.6 L314.9,271.5 L316.5,269.4 L318.0,267.0 L319.2,265.0 L319.6,262.9 L321.1,260.9 L322.6,258.5 L324.2,256.8 L325.7,254.7 L327.3,252.3 L328.8,250.2 L330.4,248.9 L331.9,246.8 L334.7,245.1 L335.0,243.0 L338.1,242.0 L338.4,240.3 L341.2,238.6 L342.8,237.2 L344.3,236.2 L347.4,234.8 L347.7,233.4 L350.5,232.1 L352.7,230.7 L355.1,229.7 L358.2,228.6 L359.8,227.6 L361.3,226.6 L363.2,225.6 L367.5,224.5 L369.1,223.8 L372.2,223.2 L373.7,222.5 L376.8,221.8 L378.4,221.4 L381.5,221.1 L383.6,220.8 L386.1,220.4 L388.6,220.1 L390.7,220.1 L392.3,220.1 L395.4,219.7 L399.1,219.7 L400.0,220.1 L403.1,220.1 L404.7,220.4 L409.0,220.8 L410.9,221.1 L413.3,221.8 L415.5,221.8 L418.3,222.5 L420.1,223.2 L423.2,224.2 L424.8,224.9 L427.9,225.6 L429.4,226.9 L432.5,228.0 L434.1,229.0 L437.2,229.7 L438.7,231.0 L440.3,232.1 L443.0,233.4 L444.9,234.8 L446.4,236.2 L448.0,237.2 L451.1,238.9 L452.6,240.3 L454.2,242.0 L455.7,243.0 L458.5,245.1 L458.8,247.2 L461.9,248.9 L462.2,250.6 L463.5,252.3 L466.6,255.7 L468.1,257.4 L469.7,259.5 L471.2,261.6 L472.7,263.3 L472.7,265.0 L474.3,267.4 L475.8,269.8 L477.4,271.9 L477.7,276.0 L478.9,278.4 L480.5,280.4 L482.0,282.8 L482.0,285.2 L482.6,287.3 L482.6,290.0 L483.6,292.4 L483.6,294.5 L485.1,298.9 L485.1,301.0 L485.1,303.4 L486.7,306.1 L486.7,308.5 L487.0,311.3 L487.0,313.7 L487.0,315.7 L488.2,318.5 L488.2,321.9 L489.8,324.7 L489.8,327.4 L491.3,329.1 L491.3,331.9 L491.9,334.3 L492.9,336.7 L492.9,339.1 L494.4,341.8 L496.0,344.5 L497.5,346.9 L499.1,349.0 L500.6,351.4 L502.1,353.8 L502.5,355.5 L503.7,356.9 L505.2,359.0 L508.3,362.7 L511.4,364.4 L512.4,366.2 L514.5,367.9 L516.1,369.9 L518.5,371.3 L520.7,373.0 L522.3,375.1 L523.8,376.8 L526.9,378.2 L527.8,379.5 L530.0,381.6" fill="none" stroke="#1f77b4" stroke-width="1.7" opacity="0.85"/><circle cx="530" cy="382" r="4.5" fill="#1f77b4"/><text x="28" y="572" font-size="11" fill="#888">ground track — m from pad (N up)</text><rect x="580" y="40" width="540" height="540" fill="#fbfbfb" stroke="#ddd"/><text x="586" y="54" fill="#1f77b4" font-size="11">alt 156</text><text x="586" y="558" fill="#1f77b4" font-size="11">-52</text><path d="M681.1,422.5 L681.9,421.8 L682.6,422.0 L683.5,421.6 L684.3,421.2 L685.0,419.9 L685.7,417.8 L686.4,418.2 L687.1,416.8 L687.9,413.1 L688.6,411.5 L689.5,412.6 L690.3,408.1 L691.2,404.8 L692.0,403.0 L692.9,399.4 L693.6,396.1 L694.4,394.3 L695.3,388.4 L696.1,388.4 L696.8,380.3 L697.7,381.1 L698.5,372.6 L699.3,373.6 L700.2,361.1 L701.0,361.2 L701.9,355.3 L702.7,351.1 L703.6,341.2 L704.4,334.0 L705.1,340.3 L706.0,320.3 L706.7,326.7 L707.5,312.8 L708.2,303.7 L709.1,292.2 L709.8,303.3 L710.6,293.4 L711.5,276.7 L712.3,277.3 L713.2,282.1 L714.0,280.7 L714.8,271.0 L715.7,273.5 L716.4,240.2 L717.2,252.1 L718.0,225.9 L718.8,227.8 L719.5,251.9 L720.3,214.3 L721.1,208.8 L721.9,222.2 L722.6,209.9 L723.5,203.0 L724.2,189.6 L725.0,220.9 L725.8,204.6 L726.7,217.8 L727.5,200.0 L728.4,184.0 L729.2,186.9 L730.1,170.9 L730.9,198.8 L731.8,174.6 L732.6,152.5 L733.4,180.8 L734.2,183.9 L735.0,167.5 L735.7,138.0 L736.5,164.3 L737.4,131.0 L738.2,142.0 L739.0,153.7 L739.8,144.5 L740.5,166.9 L741.3,148.4 L742.2,154.5 L743.0,137.8 L743.7,125.6 L744.6,145.2 L745.3,128.3 L746.1,158.9 L747.0,148.2 L747.8,153.4 L748.5,150.1 L749.4,133.7 L750.1,144.9 L750.9,114.4 L751.6,109.2 L752.4,115.8 L753.0,114.1 L753.7,115.7 L754.6,90.3 L755.3,111.9 L756.1,133.9 L756.8,91.8 L757.7,130.0 L758.4,102.2 L759.2,101.0 L759.9,88.1 L760.8,101.4 L761.5,90.5 L762.3,108.7 L763.0,134.6 L763.9,118.5 L764.6,103.2 L765.4,101.6 L766.1,136.8 L766.9,88.7 L767.7,81.6 L768.5,103.0 L769.4,106.2 L770.2,136.2 L771.1,131.1 L771.9,126.9 L772.8,135.4 L773.6,95.2 L774.4,117.8 L775.3,128.1 L776.1,105.5 L777.0,76.0 L777.8,89.6 L778.5,98.8 L779.4,138.6 L780.1,84.4 L780.9,87.7 L781.8,129.1 L782.5,108.3 L783.3,117.0 L784.2,118.9 L785.0,101.8 L785.9,93.7 L786.7,120.4 L787.4,142.0 L788.1,100.4 L789.0,135.2 L789.8,104.2 L790.5,105.6 L791.4,142.5 L792.1,126.3 L792.9,86.7 L793.6,93.8 L794.5,110.6 L795.2,145.8 L795.9,116.1 L796.7,143.5 L797.6,99.1 L798.3,114.8 L799.1,145.0 L799.9,91.0 L800.8,130.7 L801.6,115.4 L802.5,126.2 L803.3,117.6 L804.2,125.5 L805.0,126.1 L805.9,95.0 L806.7,119.7 L807.6,99.7 L808.4,115.2 L809.2,98.5 L810.3,142.3 L811.0,128.4 L811.8,148.0 L812.6,130.9 L813.5,129.1 L814.3,126.5 L815.2,106.0 L816.0,108.7 L816.9,118.8 L817.7,133.4 L818.5,155.7 L819.4,119.2 L820.2,131.9 L821.1,108.0 L821.9,107.9 L822.8,153.2 L823.5,118.1 L824.2,124.0 L825.2,135.0 L826.0,144.7 L826.9,121.4 L827.7,116.1 L828.6,146.0 L829.4,122.3 L830.2,151.0 L831.1,158.6 L831.9,146.1 L832.8,143.3 L833.5,167.3 L834.3,156.3 L835.2,167.7 L836.0,142.5 L836.9,162.5 L837.7,169.7 L838.6,118.3 L840.0,169.0 L840.8,159.7 L841.7,151.8 L842.5,174.5 L843.3,141.3 L844.2,130.9 L845.0,156.7 L845.9,174.0 L846.7,137.1 L847.6,139.5 L848.4,146.3 L849.1,143.5 L849.8,178.5 L850.7,169.9 L851.5,177.6 L852.4,145.8 L853.2,152.0 L854.1,184.5 L854.9,148.7 L855.5,162.7 L856.3,176.4 L857.2,178.0 L857.9,181.2 L858.6,187.7 L859.4,142.7 L860.3,182.6 L861.1,187.8 L861.9,192.4 L862.8,172.1 L863.6,180.2 L864.5,169.7 L865.2,156.4 L865.9,163.5 L866.6,181.1 L867.4,199.2 L868.3,175.2 L869.6,196.4 L870.4,160.3 L871.1,167.1 L871.9,169.6 L872.7,188.5 L873.5,207.6 L874.3,189.6 L875.2,175.3 L876.0,204.1 L876.9,179.5 L877.7,202.5 L878.4,174.8 L879.3,211.4 L880.1,212.0 L881.0,183.9 L881.7,190.6 L882.5,185.7 L883.4,197.8 L884.4,183.9 L885.2,179.4 L885.9,192.7 L886.7,214.2 L887.6,218.0 L888.4,190.8 L889.3,218.3 L890.1,197.2 L891.0,194.5 L891.7,204.2 L892.4,207.6 L893.1,212.1 L893.8,211.1 L894.6,215.2 L895.5,215.9 L896.2,195.6 L896.9,200.1 L897.6,209.9 L898.4,223.5 L899.3,235.7 L900.1,212.9 L900.8,222.8 L901.5,204.2 L902.4,240.8 L903.2,231.0 L903.9,226.6 L904.8,235.8 L905.6,210.3 L906.5,214.4 L907.3,244.6 L908.2,222.3 L909.0,214.7 L909.7,231.6 L910.6,221.0 L911.3,217.1 L912.1,247.0 L912.9,221.5 L914.1,230.2 L914.9,244.5 L915.8,250.7 L916.6,226.1 L917.5,248.1 L918.3,238.1 L919.1,242.8 L920.0,250.9 L920.8,249.2 L921.6,260.9 L922.4,246.9 L923.1,249.1 L923.9,267.3 L924.7,244.5 L925.5,252.2 L926.3,261.1 L927.0,265.7 L927.8,250.2 L929.0,273.8 L929.7,266.6 L930.4,267.3 L931.1,274.5 L931.8,269.4 L932.7,253.3 L933.4,258.8 L934.2,262.8 L935.1,270.2 L935.9,282.0 L936.8,273.9 L937.6,275.8 L938.4,285.1 L939.2,288.5 L939.9,287.1 L940.7,274.6 L941.5,290.4 L942.3,280.6 L943.8,281.8 L944.6,289.3 L945.4,278.0 L946.2,283.3 L947.0,297.3 L947.9,292.5 L948.7,299.8 L949.6,291.0 L950.4,293.2 L951.3,294.1 L952.1,291.1 L952.8,291.9 L953.7,313.6 L954.4,297.7 L955.1,302.8 L955.9,298.6 L956.6,308.5 L957.5,296.7 L958.7,309.0 L959.3,313.0 L960.1,313.1 L961.0,318.4 L961.7,310.6 L962.5,324.6 L963.4,316.9 L964.2,328.4 L964.8,320.9 L965.5,321.9 L966.3,313.2 L967.2,317.3 L968.0,321.8 L968.9,327.6 L969.7,326.7 L970.5,334.6 L971.1,335.8 L971.9,333.4 L972.6,338.4 L974.2,336.9 L974.8,345.2 L975.6,341.3 L976.5,333.9 L977.2,350.0 L978.0,344.0 L978.9,349.6 L979.7,344.1 L980.6,352.4 L981.3,342.8 L982.1,350.0 L983.0,346.1 L983.8,354.0 L984.7,361.0 L985.5,354.9 L986.2,354.0 L986.9,359.5 L987.8,355.6 L989.6,366.7 L990.3,365.6 L991.1,362.0 L992.0,366.3 L992.7,368.9 L993.5,374.9 L994.1,375.1 L994.9,374.8 L995.7,376.8 L996.4,375.8 L997.2,383.3 L998.0,382.6 L998.8,381.5 L999.6,382.5 L1000.3,382.9 L1001.0,388.2 L1001.7,389.4 L1002.6,387.7 L1003.4,391.2 L1005.1,393.9 L1005.8,394.2 L1006.5,399.8 L1007.3,398.2 L1008.1,400.4 L1008.9,400.4 L1009.6,400.7 L1010.4,405.5 L1011.3,406.2 L1012.1,408.9 L1013.0,407.0 L1013.8,408.8 L1014.7,412.5 L1015.4,415.0 L1016.2,416.0 L1017.0,415.6 L1017.7,416.6 L1018.5,419.8 L1020.6,423.0 L1021.2,424.6 L1022.0,426.1 L1022.7,427.3 L1023.6,429.2 L1024.4,430.1 L1025.2,432.4 L1026.1,433.4 L1026.9,436.1 L1027.8,437.8 L1028.6,437.4 L1029.5,438.6 L1030.3,440.9 L1031.1,443.7 L1031.7,444.2 L1032.4,444.2 L1033.2,447.8 L1034.0,449.2 L1036.1,452.0 L1036.9,452.5 L1037.7,453.3 L1038.5,455.6 L1039.2,457.4 L1040.0,457.6 L1040.9,460.8 L1041.7,463.8 L1042.6,465.8 L1043.4,466.3 L1044.3,466.7 L1045.1,470.6 L1046.0,472.1 L1046.8,469.0 L1047.5,470.7 L1048.3,474.6 L1049.2,470.6 L1050.0,479.1 L1051.6,476.4 L1052.4,478.4 L1053.3,476.2 L1054.1,486.1 L1055.0,481.7 L1055.8,491.4 L1056.5,488.5 L1057.4,489.2 L1058.1,491.7 L1058.8,487.8 L1059.6,488.8 L1060.3,493.3 L1061.2,494.4 L1062.0,503.2 L1062.9,497.7 L1063.7,504.1 L1065.9,496.3 L1067.3,506.7 L1068.1,514.3 L1068.8,516.9 L1069.6,514.2 L1070.5,511.8 L1071.3,506.6 L1072.2,520.0 L1073.0,514.9 L1073.8,518.1 L1074.7,520.3 L1075.5,522.1 L1076.4,516.4 L1077.2,515.9 L1078.1,529.9 L1078.9,533.5 L1079.8,524.3 L1080.6,524.0 L1082.5,538.2 L1083.3,544.0 L1084.0,541.3" fill="none" stroke="#1f77b4" stroke-width="1.4" opacity="0.85"/><text x="1040" y="54" fill="#ff7f0e" font-size="11">roll 18</text><text x="1090" y="558" fill="#ff7f0e" font-size="11">-25</text><path d="M681.0,272.3 L681.9,273.3 L682.6,271.2 L683.5,272.3 L684.3,271.2 L685.0,272.3 L685.7,273.3 L686.4,273.3 L687.1,272.3 L687.9,272.3 L688.6,272.3 L689.5,273.3 L690.3,272.3 L691.2,272.3 L692.0,272.3 L692.9,271.2 L693.6,273.3 L694.4,273.3 L695.3,271.2 L696.1,271.2 L696.8,272.3 L697.6,271.2 L698.5,272.3 L699.3,273.3 L700.2,272.3 L701.0,273.3 L701.9,272.3 L702.7,273.3 L703.6,273.3 L704.4,272.3 L705.1,272.3 L706.0,272.3 L706.7,273.3 L707.5,271.2 L708.2,271.2 L709.1,272.3 L709.8,271.2 L710.6,273.3 L711.5,273.3 L712.3,272.3 L713.1,272.3 L714.0,272.3 L714.8,273.3 L715.7,272.3 L716.4,273.3 L717.2,272.3 L718.0,272.3 L718.8,272.3 L719.5,272.3 L720.3,272.3 L721.1,272.3 L721.9,272.3 L722.6,271.2 L723.5,273.3 L724.1,272.3 L725.0,272.3 L725.8,272.3 L726.7,272.3 L727.5,273.3 L728.4,272.3 L729.2,273.3 L730.1,272.3 L730.9,272.3 L731.7,272.3 L732.6,272.3 L733.4,272.3 L734.2,273.3 L735.0,272.3 L735.7,271.2 L736.5,272.3 L737.4,273.3 L738.2,272.3 L738.9,273.3 L739.8,271.2 L740.5,272.3 L741.3,271.2 L742.2,273.3 L743.0,272.3 L743.7,273.3 L744.6,272.3 L745.3,272.3 L746.1,273.3 L747.0,273.3 L747.8,271.2 L748.5,273.3 L749.4,272.3 L750.1,273.3 L750.9,271.2 L751.6,273.3 L752.4,271.2 L753.0,273.3 L753.7,272.3 L754.6,272.3 L755.3,272.3 L756.1,272.3 L756.8,273.3 L757.7,272.3 L758.4,272.3 L759.2,272.3 L759.9,273.3 L760.8,273.3 L761.5,272.3 L762.3,271.2 L763.0,272.3 L763.9,271.2 L764.6,271.2 L765.4,272.3 L766.1,273.3 L766.9,259.3 L767.7,227.0 L768.5,205.4 L769.4,189.2 L770.2,175.2 L771.1,153.6 L771.9,145.0 L772.8,120.2 L773.6,104.0 L774.4,104.0 L775.3,124.5 L776.1,115.9 L777.0,90.0 L777.8,83.5 L778.5,80.3 L779.4,106.2 L780.1,108.4 L780.9,110.5 L781.8,99.7 L782.5,80.3 L783.3,106.2 L784.2,111.6 L785.0,104.0 L785.9,90.0 L786.7,120.2 L787.4,97.6 L788.1,125.6 L789.0,110.5 L789.8,113.7 L790.5,131.0 L791.3,134.2 L792.1,103.0 L792.9,118.1 L793.6,139.6 L794.4,135.3 L795.2,138.5 L795.8,123.4 L796.7,146.1 L797.5,148.2 L798.3,193.5 L799.1,230.2 L799.9,265.8 L800.8,299.2 L801.6,330.5 L802.5,345.6 L803.3,374.7 L804.2,387.6 L805.0,404.9 L805.9,417.8 L806.7,417.8 L807.6,437.2 L808.4,432.9 L809.2,423.2 L810.3,443.7 L811.0,442.6 L811.8,463.1 L812.6,442.6 L813.5,444.8 L814.3,462.0 L815.2,429.7 L816.0,453.4 L816.8,440.5 L817.7,454.5 L818.5,465.3 L819.4,445.9 L820.2,458.8 L821.1,439.4 L821.9,436.2 L822.8,464.2 L823.5,456.7 L824.2,434.0 L825.2,457.7 L826.0,442.6 L826.9,448.0 L827.7,439.4 L828.5,461.0 L829.4,429.7 L830.2,443.7 L831.1,466.4 L831.9,456.7 L832.8,461.0 L833.5,431.9 L834.3,456.7 L835.2,450.2 L836.0,437.2 L836.9,442.6 L837.7,442.6 L838.5,446.9 L840.0,458.8 L840.8,451.3 L841.6,461.0 L842.5,452.3 L843.3,465.3 L844.2,458.8 L845.0,443.7 L845.9,453.4 L846.7,454.5 L847.6,439.4 L848.4,444.8 L849.1,395.2 L849.8,355.3 L850.7,326.2 L851.5,285.2 L852.4,253.9 L853.2,221.6 L854.0,194.6 L854.9,178.4 L855.5,143.9 L856.3,135.3 L857.1,128.8 L857.9,135.3 L858.6,108.4 L859.4,105.1 L860.2,106.2 L861.1,94.3 L861.9,100.8 L862.8,85.7 L863.6,120.2 L864.5,104.0 L865.2,101.9 L865.9,103.0 L866.6,93.3 L867.4,95.4 L868.3,91.1 L869.6,111.6 L870.4,99.7 L871.1,109.4 L871.9,87.9 L872.7,94.3 L873.5,104.0 L874.3,112.7 L875.2,98.6 L876.0,95.4 L876.9,93.3 L877.7,108.4 L878.4,93.3 L879.3,84.6 L880.1,86.8 L881.0,109.4 L881.7,93.3 L882.5,100.8 L883.4,83.5 L884.4,96.5 L885.2,112.7 L885.9,109.4 L886.7,96.5 L887.6,105.1 L888.4,98.6 L889.3,100.8 L890.1,87.9 L891.0,109.4 L891.7,97.6 L892.4,97.6 L893.1,101.9 L893.8,85.7 L894.6,100.8 L895.5,79.2 L896.2,83.5 L896.9,90.0 L897.6,98.6 L898.4,90.0 L899.3,85.7 L900.1,106.2 L900.8,84.6 L901.5,91.1 L902.4,90.0 L903.2,103.0 L903.9,100.8 L904.8,77.1 L905.6,80.3 L906.5,107.3 L907.3,80.3 L908.1,96.5 L909.0,108.4 L909.7,112.7 L910.5,111.6 L911.3,106.2 L912.1,104.0 L912.9,107.3 L914.1,92.2 L914.9,94.3 L915.8,105.1 L916.6,83.5 L917.4,82.5 L918.3,85.7 L919.1,84.6 L920.0,112.7 L920.8,82.5 L921.6,101.9 L922.4,91.1 L923.1,104.0 L923.9,85.7 L924.7,85.7 L925.5,92.2 L926.3,108.4 L927.0,83.5 L927.8,96.5 L928.9,92.2 L929.7,90.0 L930.4,93.3 L931.1,103.0 L931.8,110.5 L932.7,87.9 L933.4,83.5 L934.2,95.4 L935.1,103.0 L935.9,111.6 L936.8,101.9 L937.6,98.6 L938.4,95.4 L939.2,108.4 L939.9,77.1 L940.7,100.8 L941.5,82.5 L942.3,87.9 L943.8,100.8 L944.6,88.9 L945.4,113.7 L946.2,109.4 L947.0,106.2 L947.9,96.5 L948.7,91.1 L949.6,81.4 L950.4,93.3 L951.3,104.0 L952.1,76.0 L952.8,84.6 L953.7,86.8 L954.4,91.1 L955.1,110.5 L955.9,94.3 L956.6,91.1 L957.5,92.2 L958.7,104.0 L959.3,94.3 L960.1,94.3 L961.0,96.5 L961.7,86.8 L962.5,103.0 L963.4,79.2 L964.2,105.1 L964.8,84.6 L965.5,82.5 L966.3,111.6 L967.2,95.4 L968.0,98.6 L968.9,93.3 L969.7,100.8 L970.5,83.5 L971.1,106.2 L971.9,95.4 L972.6,83.5 L974.2,93.3 L974.8,115.9 L975.6,86.8 L976.5,99.7 L977.2,81.4 L978.0,83.5 L978.9,107.3 L979.7,85.7 L980.6,101.9 L981.3,83.5 L982.1,109.4 L983.0,87.9 L983.8,109.4 L984.7,93.3 L985.5,100.8 L986.2,106.2 L986.9,88.9 L987.8,98.6 L989.6,145.0 L990.3,142.9 L991.1,121.3 L992.0,120.2 L992.7,96.5 L993.5,110.5 L994.1,98.6 L994.9,114.8 L995.7,91.1 L996.4,82.5 L997.2,90.0 L998.0,113.7 L998.8,110.5 L999.6,78.2 L1000.3,88.9 L1001.0,82.5 L1001.7,81.4 L1002.6,100.8 L1003.4,103.0 L1005.0,76.0 L1005.8,104.0 L1006.5,86.8 L1007.3,111.6 L1008.1,113.7 L1008.9,112.7 L1009.6,93.3 L1010.4,92.2 L1011.3,109.4 L1012.1,98.6 L1013.0,84.6 L1013.8,114.8 L1014.7,92.2 L1015.4,87.9 L1016.2,81.4 L1017.0,122.4 L1017.7,147.2 L1018.5,196.8 L1020.6,275.5 L1021.2,303.5 L1022.0,321.9 L1022.7,284.1 L1023.5,255.0 L1024.4,228.0 L1025.2,211.9 L1026.1,181.7 L1026.9,206.5 L1027.8,244.2 L1028.6,275.5 L1029.5,306.8 L1030.3,272.3 L1031.0,282.0 L1031.7,303.5 L1032.4,320.8 L1033.1,338.0 L1034.0,362.8 L1036.1,396.3 L1036.9,439.4 L1037.7,422.1 L1038.5,431.9 L1039.2,400.6 L1040.0,392.0 L1040.9,358.5 L1041.7,377.9 L1042.6,400.6 L1043.4,423.2 L1044.3,437.2 L1045.1,440.5 L1045.9,450.2 L1046.8,446.9 L1047.5,455.6 L1048.3,480.4 L1049.2,466.4 L1050.0,469.6 L1051.6,497.6 L1052.4,475.0 L1053.3,477.1 L1054.1,508.4 L1055.0,499.8 L1055.8,506.3 L1056.5,518.1 L1057.4,505.2 L1058.1,493.3 L1058.8,526.7 L1059.6,536.5 L1060.3,533.2 L1061.2,544.0 L1062.0,534.3 L1062.9,539.7 L1063.7,537.5 L1065.9,468.5 L1067.3,432.9 L1068.1,397.3 L1068.8,386.6 L1069.6,372.5 L1070.5,360.7 L1071.3,362.8 L1072.2,340.2 L1073.0,341.3 L1073.8,335.9 L1074.7,321.9 L1075.5,318.6 L1076.4,308.9 L1077.2,306.8 L1078.1,301.4 L1078.9,297.1 L1079.8,294.9 L1080.6,296.0 L1082.5,290.6 L1083.3,284.1 L1084.0,283.0" fill="none" stroke="#ff7f0e" stroke-width="1.1" opacity="0.85"/><text x="616" y="572" font-size="11" fill="#888">time 0..33 s — altitude (blue) &amp; roll (orange)</text></svg>