<svg xmlns="http://www.w3.org/2000/svg" width="1140" height="600" font-family="sans-serif" font-size="13"><rect width="1140" height="600" fill="white"/><text x="20" y="26" font-size="15" fill="#333">Coludo flight</text><rect x="20" y="40" width="540" height="540" fill="#fbfbfb" stroke="#ddd"/><rect x="50" y="229" width="480" height="103" fill="#cde" stroke="#369" opacity="0.7"/><text x="50" y="224" fill="#369" font-size="12">landing zone</text><circle cx="354" cy="391" r="5" fill="black"/><text x="362" y="395" font-size="12">pad</text><path d="M354.9,390.5 L354.9,390.5 L354.9,390.5 L354.9,390.5 L354.9,390.5 L354.9,390.5 L354.9,390.5 L354.9,390.5 L354.9,390.5 L354.9,390.5 L354.9,390.5 L354.9,390.5 L354.9,390.5 L354.9,390.5 L354.9,390.5 L354.9,390.5 L354.9,390.5 L354.9,390.5 L354.9,390.5 L354.9,390.5 L354.9,390.5 L354.9,390.5 L354.9,390.5 L354.9,390.5 L354.9,390.5 L354.9,390.5 L354.9,390.5 L354.9,390.5 L354.9,390.5 L354.9,390.5 L354.9,390.5 L354.9,390.5 L354.9,390.5 L354.9,390.5 L354.9,390.5 L354.9,390.5 L354.9,390.5 L354.9,390.5 L354.9,390.5 L354.9,390.5 L354.9,390.5 L354.9,390.5 L354.9,390.5 L354.9,390.5 L354.9,390.5 L354.9,390.5 L354.9,390.5 L354.9,390.5 L354.9,390.5 L354.9,390.5 L354.9,390.5 L354.9,390.5 L354.9,390.5 L354.9,389.9 L356.4,388.7 L356.4,387.6 L356.4,387.0 L357.4,385.3 L357.4,384.2 L360.0,383.6 L362.6,382.4 L362.6,381.3 L364.7,380.7 L365.2,379.6 L365.2,379.0 L367.8,378.4 L370.3,377.9 L372.9,377.3 L372.9,376.7 L375.5,376.2 L378.1,376.2 L380.7,376.2 L381.2,375.6 L383.2,375.6 L385.8,375.0 L388.4,375.0 L389.4,374.4 L391.0,374.4 L393.6,374.4 L396.1,373.9 L397.7,373.9 L398.7,373.9 L401.3,373.3 L403.9,373.3 L405.9,373.3 L406.5,373.3 L409.0,372.7 L411.6,372.7 L414.2,372.7 L416.3,372.7 L416.8,372.2 L419.3,372.2 L421.9,372.2 L422.4,371.6 L424.5,371.6 L427.1,371.6 L429.7,371.0 L430.7,371.0 L432.2,370.4 L434.8,370.4 L437.4,369.9 L439.0,369.9 L440.0,369.3 L442.6,368.7 L442.6,368.7 L447.7,368.2 L447.7,367.6 L449.3,367.0 L450.3,366.4 L452.9,366.4 L455.5,365.9 L457.5,364.7 L458.0,364.2 L460.6,364.2 L460.6,363.6 L463.2,363.0 L463.7,362.4 L465.8,361.3 L468.4,360.7 L470.9,360.2 L470.9,359.6 L472.0,358.4 L473.5,357.9 L476.1,356.7 L476.1,355.6 L478.7,355.0 L480.2,353.9 L480.2,353.3 L481.3,352.7 L483.8,351.6 L483.8,351.0 L486.4,349.9 L486.4,349.3 L489.0,348.2 L489.5,346.4 L489.5,345.9 L491.6,344.2 L491.6,343.6 L494.1,342.4 L494.1,341.3 L496.7,340.2 L496.7,339.6 L498.8,338.4 L499.3,336.7 L499.3,335.6 L499.3,334.4 L501.9,333.3 L501.9,332.1 L504.5,331.0 L504.5,329.9 L504.5,328.7 L505.0,327.6 L505.0,326.4 L505.0,325.3 L505.0,323.6 L507.0,321.9 L507.0,320.1 L507.0,318.4 L507.0,317.3 L507.0,316.1 L507.0,314.4 L505.0,312.7 L505.0,309.9 L505.0,307.6 L504.5,305.9 L504.5,304.1 L501.9,302.4 L501.9,300.7 L499.3,298.4 L499.3,297.3 L498.8,295.6 L496.7,292.7 L494.1,290.4 L491.6,288.7 L489.5,287.0 L489.0,285.3 L483.8,283.0 L481.3,281.8 L480.2,279.6 L476.1,277.8 L473.5,276.1 L470.9,274.4 L468.4,272.7 L463.7,271.0 L463.2,270.4 L458.0,269.3 L457.5,267.6 L452.9,266.4 L449.3,264.7 L442.6,263.0 L439.0,262.4 L434.8,261.3 L430.7,260.1 L429.7,259.6 L422.4,258.4 L419.3,257.8 L416.3,257.8 L411.6,257.3 L403.9,256.7 L398.7,256.7 L396.1,256.1 L389.4,256.1 L385.8,256.1 L381.2,256.1 L375.5,256.1 L370.3,256.7 L365.2,257.3 L357.4,257.8 L352.3,257.8 L348.2,258.4 L342.0,259.6 L339.4,260.7 L331.7,261.3 L329.1,262.4 L323.9,263.6 L318.8,265.3 L306.9,268.1 L300.7,270.4 L295.5,271.6 L290.4,273.8 L282.6,275.6 L280.1,277.3 L273.9,280.1 L267.2,281.8 L262.0,283.6 L256.9,286.4 L249.1,289.3 L244.0,291.0 L238.8,293.3 L233.6,294.4 L228.5,296.1 L224.4,297.9 L218.2,300.1 L210.4,302.4 L205.3,304.7 L199.6,305.9 L192.4,307.6 L187.2,309.3 L183.1,310.4 L179.5,312.1 L173.8,313.3 L166.6,314.4 L164.0,316.1 L158.3,317.3 L151.1,317.9 L148.5,319.0 L138.2,320.7 L132.5,321.3 L127.9,322.4 L122.7,323.0 L117.6,323.6 L112.4,324.1 L108.8,324.7 L102.1,325.3 L98.5,325.9 L91.8,326.4 L89.2,327.0" fill="none" stroke="#1f77b4" stroke-width="1.7" opacity="0.85"/><circle cx="89" cy="327" r="4.5" fill="#1f77b4"/><text x="28" y="572" font-size="11" fill="#888">ground track — m from pad (N up)</text><rect x="580" y="40" width="540" height="540" fill="#fbfbfb" stroke="#ddd"/><text x="586" y="54" fill="#1f77b4" font-size="11">alt 157</text><text x="586" y="558" fill="#1f77b4" font-size="11">-47</text><path d="M663.7,432.6 L664.4,431.7 L665.1,431.0 L666.2,430.3 L666.9,429.6 L667.6,429.6 L668.3,428.4 L669.0,426.5 L669.7,426.5 L670.4,424.3 L671.1,421.6 L671.8,422.2 L672.4,418.4 L673.2,416.5 L673.9,412.5 L674.6,410.3 L675.3,411.6 L676.0,404.6 L676.7,406.6 L677.4,404.1 L678.1,398.5 L678.8,397.3 L679.5,388.8 L680.1,387.7 L680.8,386.6 L681.6,378.3 L682.2,370.5 L683.0,377.4 L683.6,365.9 L684.3,364.9 L685.0,350.7 L685.8,345.0 L686.5,351.6 L687.2,334.7 L687.9,336.5 L688.6,335.5 L689.3,326.3 L690.0,332.5 L690.6,319.0 L691.4,300.6 L692.1,292.7 L692.7,312.7 L693.4,307.2 L694.1,285.3 L694.8,279.0 L695.5,281.5 L696.2,269.7 L696.9,287.9 L697.6,266.3 L698.3,261.9 L699.0,265.5 L699.7,258.9 L700.4,246.3 L701.1,254.5 L701.8,253.9 L702.5,225.3 L703.2,239.0 L703.8,237.1 L704.6,238.1 L705.2,243.5 L705.9,228.9 L706.6,235.7 L707.2,211.1 L708.0,219.2 L708.7,224.3 L709.3,209.2 L710.0,210.9 L710.7,173.1 L711.4,203.2 L712.2,196.5 L712.9,172.7 L713.6,204.5 L714.3,160.7 L714.9,179.0 L715.7,155.4 L716.4,159.1 L717.1,169.6 L717.8,190.3 L718.5,147.6 L719.2,185.2 L719.9,166.2 L720.6,160.7 L721.3,166.0 L721.9,171.5 L722.7,150.4 L723.4,133.5 L724.1,170.1 L724.8,170.3 L725.5,127.2 L726.1,156.6 L726.8,131.8 L727.5,150.5 L728.2,140.5 L728.9,124.2 L729.6,130.9 L730.3,106.1 L731.0,97.2 L731.7,127.4 L732.4,132.2 L733.1,97.8 L733.8,146.9 L734.5,146.6 L735.2,116.2 L735.9,125.4 L736.6,133.0 L737.3,124.2 L738.0,122.1 L738.7,124.1 L739.4,114.5 L740.1,140.1 L740.8,135.3 L741.5,84.9 L742.2,127.9 L742.9,138.7 L743.6,100.7 L744.3,94.3 L745.0,122.0 L745.7,91.6 L746.4,79.8 L747.1,76.0 L747.8,118.0 L748.5,84.9 L749.3,140.3 L750.0,95.5 L750.7,91.3 L751.4,80.7 L752.1,114.8 L752.8,117.1 L753.5,121.3 L754.3,100.3 L755.0,113.8 L755.6,98.6 L756.4,110.9 L757.1,100.3 L757.8,83.8 L758.4,142.9 L759.2,80.9 L759.9,122.8 L760.6,112.1 L761.2,84.3 L762.0,126.1 L762.7,94.2 L763.3,80.3 L763.9,103.6 L764.7,109.2 L765.3,128.1 L766.1,94.3 L766.7,95.8 L767.5,101.6 L768.2,141.7 L768.9,145.8 L769.6,114.4 L770.3,116.2 L771.0,116.3 L771.7,84.7 L772.4,147.1 L773.1,118.1 L773.8,148.3 L774.5,136.6 L775.2,91.1 L775.8,128.9 L776.6,127.0 L777.2,148.3 L778.0,122.8 L778.7,90.2 L779.4,143.9 L780.0,131.4 L780.8,104.7 L781.5,93.3 L782.2,139.5 L782.8,121.4 L783.5,142.8 L784.3,105.1 L785.0,128.8 L785.6,118.2 L786.4,153.2 L787.0,96.9 L787.8,95.9 L788.4,152.6 L789.2,148.2 L789.9,136.6 L790.5,111.8 L791.3,154.0 L792.0,151.5 L792.7,118.4 L793.4,156.1 L794.0,137.2 L794.7,136.4 L795.4,111.5 L796.1,116.1 L796.8,119.9 L797.5,112.0 L798.2,121.4 L798.9,150.8 L799.6,114.0 L800.3,157.3 L801.0,103.8 L801.7,162.1 L802.4,116.0 L803.1,152.8 L803.8,160.6 L804.5,129.6 L805.1,116.5 L805.9,160.7 L806.6,159.7 L807.3,164.6 L808.0,148.0 L808.7,147.4 L809.4,151.2 L810.1,123.1 L810.8,112.5 L811.5,134.5 L812.1,156.0 L812.8,154.6 L813.5,151.0 L814.2,130.8 L814.9,156.3 L815.6,169.0 L816.3,126.5 L817.0,174.8 L817.7,139.4 L818.4,129.3 L819.1,145.6 L819.8,168.8 L820.5,160.9 L821.4,161.1 L822.0,134.3 L822.7,176.9 L823.4,140.2 L824.1,159.1 L824.8,134.0 L825.5,166.9 L826.2,152.0 L826.9,168.8 L827.5,161.5 L828.2,157.5 L828.9,181.3 L829.6,172.7 L830.3,140.3 L831.0,162.8 L831.7,171.1 L832.4,143.3 L833.1,163.7 L833.8,161.9 L834.5,167.9 L835.2,188.5 L836.1,161.0 L836.8,175.4 L837.5,171.4 L838.2,181.8 L838.9,157.8 L839.6,172.5 L840.3,179.1 L841.1,161.5 L841.7,156.4 L842.4,194.9 L843.1,147.7 L843.8,178.2 L844.5,146.7 L845.2,173.3 L845.9,172.5 L846.6,148.0 L847.3,153.6 L848.0,192.6 L848.7,194.6 L849.4,171.9 L850.8,191.6 L851.5,163.3 L852.2,156.7 L852.9,190.6 L853.6,180.1 L854.3,183.5 L855.0,175.6 L855.7,207.2 L856.4,164.4 L857.1,194.9 L857.8,209.3 L858.5,200.5 L859.2,195.7 L859.9,198.2 L860.6,186.4 L861.3,180.6 L862.0,164.6 L862.7,195.1 L863.4,206.6 L864.1,194.3 L864.8,168.3 L865.6,213.2 L866.3,217.5 L867.0,192.1 L867.7,213.5 L868.4,213.5 L869.1,178.3 L869.8,205.0 L870.5,206.5 L871.2,214.6 L871.9,194.1 L872.6,205.5 L873.3,202.7 L874.0,197.5 L874.7,188.9 L875.4,202.6 L876.1,203.1 L876.9,224.5 L877.5,218.6 L878.2,211.6 L878.9,210.2 L880.2,216.8 L880.9,210.6 L881.6,194.1 L882.3,205.3 L883.0,235.1 L883.7,202.6 L884.4,229.3 L885.1,196.2 L885.8,222.0 L886.5,228.3 L887.2,209.7 L887.9,213.6 L888.6,217.8 L889.3,240.2 L889.9,209.9 L890.6,240.6 L891.3,242.0 L892.0,243.5 L892.7,225.3 L893.4,242.5 L894.1,220.0 L895.0,214.2 L895.7,234.0 L896.4,223.5 L897.1,220.3 L897.8,210.8 L898.5,251.4 L899.3,246.1 L900.0,239.1 L900.7,224.5 L901.4,229.0 L902.1,219.5 L902.8,235.4 L903.5,224.7 L904.2,258.7 L904.9,255.7 L905.6,233.1 L906.3,226.8 L906.9,244.4 L907.7,233.1 L908.3,252.5 L909.7,257.2 L910.4,256.8 L911.2,230.1 L911.9,243.5 L912.6,234.2 L913.3,247.8 L914.0,254.4 L914.7,260.9 L915.4,265.4 L916.1,271.9 L916.8,257.6 L917.5,249.1 L918.2,263.1 L918.9,274.9 L919.6,271.2 L920.3,244.0 L921.0,272.3 L921.7,277.6 L922.4,246.1 L923.1,262.1 L925.0,272.4 L925.7,259.3 L926.4,266.5 L927.1,263.7 L927.7,269.1 L928.4,278.6 L929.1,284.7 L929.8,264.2 L930.5,270.8 L931.2,262.8 L931.9,265.8 L932.6,268.4 L933.3,284.3 L934.0,273.7 L934.7,278.6 L935.4,292.1 L936.1,284.4 L936.8,284.0 L937.5,292.0 L938.2,301.5 L938.9,275.3 L940.4,303.3 L941.0,285.5 L941.7,304.0 L942.5,291.5 L943.1,282.5 L943.9,292.5 L944.6,299.1 L945.3,296.0 L946.0,308.4 L946.7,305.4 L947.3,306.6 L948.0,311.0 L948.7,302.4 L949.4,300.9 L950.1,311.4 L950.8,308.2 L951.5,298.4 L952.2,309.4 L952.9,304.5 L953.6,318.4 L954.3,312.5 L955.8,310.7 L956.4,311.5 L957.1,312.6 L957.9,320.5 L958.6,326.2 L959.3,326.9 L959.9,321.7 L960.6,321.5 L961.3,324.6 L962.0,325.8 L962.7,323.4 L963.4,329.5 L964.1,335.5 L964.8,317.9 L965.5,338.7 L966.2,321.9 L966.9,322.9 L967.6,341.9 L968.3,324.5 L969.1,338.7 L971.1,340.6 L971.7,343.3 L972.4,336.5 L973.1,336.3 L973.8,343.2 L974.5,337.0 L975.2,339.8 L975.9,344.7 L976.6,355.5 L977.3,343.9 L978.0,357.0 L978.7,345.1 L979.4,361.5 L980.1,360.6 L980.8,347.9 L981.5,352.3 L982.2,358.9 L982.8,357.4 L983.5,357.4 L984.2,366.0 L984.9,361.7 L986.4,368.3 L987.1,362.9 L987.8,366.7 L988.5,367.0 L989.2,375.1 L989.9,374.6 L990.6,376.5 L991.2,375.8 L992.0,374.5 L992.7,377.4 L993.4,381.9 L994.1,380.3 L994.8,381.4 L995.5,381.5 L996.2,383.7 L996.9,387.0 L997.6,386.7 L998.3,385.9 L998.9,387.0 L999.7,390.6 L1001.7,396.0 L1002.4,398.8 L1003.1,396.9 L1003.8,394.2 L1004.5,401.0 L1005.2,399.2 L1005.9,398.0 L1006.6,399.3 L1007.3,403.8 L1008.0,401.6 L1008.7,403.2 L1009.4,404.5 L1010.1,407.4 L1010.9,409.6 L1011.6,414.1 L1012.3,414.7 L1012.9,414.8 L1013.6,417.3 L1014.3,414.9 L1015.0,419.5 L1017.1,420.4 L1017.7,422.2 L1018.5,424.8 L1019.2,426.8 L1019.9,426.6 L1020.6,428.6 L1021.3,430.4 L1022.0,430.5 L1022.7,432.6 L1023.4,433.9 L1024.1,434.5 L1024.8,436.6 L1025.5,437.5 L1026.2,439.0 L1026.9,440.0 L1027.6,441.0 L1028.3,442.2 L1028.9,445.0 L1029.6,445.4 L1030.3,447.2 L1031.0,447.7 L1032.5,450.5 L1033.2,452.4 L1033.9,452.9 L1034.6,453.2 L1035.3,454.5 L1036.0,457.2 L1036.7,460.3 L1037.4,461.6 L1038.1,460.9 L1038.8,462.9 L1039.5,464.6 L1040.2,463.6 L1040.9,466.0 L1041.6,469.3 L1042.3,471.8 L1042.9,469.6 L1043.7,474.2 L1044.3,470.7 L1045.1,475.4 L1045.7,472.6 L1046.4,478.6 L1047.9,482.9 L1048.6,484.6 L1049.3,482.2 L1050.0,480.6 L1050.7,488.3 L1051.4,481.8 L1052.1,483.1 L1052.8,491.1 L1053.5,492.3 L1054.2,493.2 L1054.9,497.2 L1055.6,498.6 L1056.3,498.3 L1057.0,493.8 L1057.7,493.5 L1058.4,497.6 L1059.1,500.5 L1059.8,494.5 L1060.5,500.5 L1061.2,496.5 L1063.2,499.8 L1063.9,510.2 L1064.6,505.4 L1065.3,510.2 L1067.7,518.0 L1068.3,511.9 L1069.0,513.5 L1069.7,515.8 L1070.4,527.0 L1071.1,525.4 L1071.8,521.8 L1072.5,525.9 L1073.2,525.0 L1073.9,530.5 L1074.6,517.5 L1075.3,529.7 L1076.0,524.1 L1076.7,530.3 L1078.4,532.3 L1079.1,531.8 L1079.8,544.0 L1080.5,532.1 L1081.2,536.8 L1081.9,535.6 L1082.6,533.0 L1083.3,543.2 L1084.0,543.2" fill="none" stroke="#1f77b4" stroke-width="1.4" opacity="0.85"/><text x="1040" y="54" fill="#ff7f0e" font-size="11">roll 19</text><text x="1090" y="558" fill="#ff7f0e" font-size="11">-19</text><path d="M663.7,310.6 L664.4,309.4 L665.1,311.9 L666.2,311.9 L666.9,310.6 L667.6,311.9 L668.3,310.6 L669.0,309.4 L669.7,309.4 L670.4,308.1 L671.1,309.4 L671.8,308.1 L672.4,304.4 L673.2,304.4 L673.9,303.1 L674.6,304.4 L675.3,299.3 L676.0,300.6 L676.7,298.1 L677.4,295.6 L678.1,293.1 L678.8,290.6 L679.5,288.0 L680.1,290.6 L680.8,281.8 L681.6,279.3 L682.2,280.5 L683.0,280.5 L683.6,273.0 L684.3,275.5 L685.0,264.2 L685.7,271.7 L686.4,261.7 L687.1,260.4 L687.8,252.9 L688.5,254.2 L689.2,247.9 L689.9,251.7 L690.6,242.9 L691.3,249.1 L692.0,239.1 L692.7,237.9 L693.4,226.6 L694.1,230.3 L694.8,227.8 L695.4,232.8 L696.2,227.8 L696.8,229.1 L697.6,211.5 L698.2,209.0 L698.9,206.5 L699.6,219.0 L700.3,219.0 L701.0,199.0 L701.7,211.5 L702.4,206.5 L703.1,211.5 L703.8,205.2 L704.5,211.5 L705.2,204.0 L705.9,207.7 L706.6,186.4 L707.2,200.2 L708.0,190.2 L708.7,195.2 L709.3,181.4 L710.0,178.9 L710.7,193.9 L711.4,191.4 L712.2,176.4 L712.9,175.1 L713.6,195.2 L714.3,171.4 L714.9,192.7 L715.7,188.9 L716.4,187.7 L717.1,192.7 L717.8,168.8 L718.5,188.9 L719.2,178.9 L719.9,183.9 L720.6,183.9 L721.3,190.2 L721.9,166.3 L722.7,172.6 L723.4,188.9 L724.1,163.8 L724.8,158.8 L725.5,167.6 L726.1,161.3 L726.8,186.4 L727.5,175.1 L728.2,183.9 L728.9,178.9 L729.6,165.1 L730.3,156.3 L731.0,167.6 L731.7,177.6 L732.4,180.1 L733.1,167.6 L733.8,176.4 L734.5,163.8 L735.2,166.3 L735.9,177.6 L736.6,153.8 L737.3,146.3 L738.0,147.5 L738.7,142.5 L739.4,155.0 L740.1,155.0 L740.8,152.5 L741.5,167.6 L742.2,168.8 L742.9,158.8 L743.6,165.1 L744.3,155.0 L745.0,136.2 L745.7,143.8 L746.4,147.5 L747.1,137.5 L747.8,155.0 L748.5,279.3 L749.3,247.9 L750.0,230.3 L750.7,207.7 L751.4,180.1 L752.1,163.8 L752.8,166.3 L753.5,142.5 L754.3,150.0 L755.0,130.0 L755.6,106.1 L756.4,103.6 L757.1,133.7 L757.8,130.0 L758.4,128.7 L759.2,92.3 L759.9,113.6 L760.6,122.4 L761.2,137.5 L762.0,122.4 L762.7,109.9 L763.3,136.2 L763.9,127.4 L764.7,142.5 L765.3,122.4 L766.1,132.5 L766.7,127.4 L767.5,155.0 L768.2,143.8 L768.9,150.0 L769.6,153.8 L770.3,176.4 L771.0,171.4 L771.7,188.9 L772.4,160.1 L773.1,178.9 L773.8,197.7 L774.5,196.5 L775.2,207.7 L775.8,212.8 L776.6,234.1 L777.2,236.6 L778.0,230.3 L778.7,236.6 L779.4,240.4 L780.0,234.1 L780.8,246.6 L781.5,249.1 L782.2,257.9 L782.8,261.7 L783.5,265.5 L784.3,259.2 L785.0,269.2 L785.6,274.2 L786.3,274.2 L787.0,271.7 L787.7,283.0 L788.4,290.6 L789.1,288.0 L789.8,290.6 L790.5,286.8 L791.2,276.8 L791.9,274.2 L792.6,284.3 L793.3,293.1 L794.0,281.8 L794.7,306.9 L795.3,303.1 L796.1,315.6 L796.7,305.6 L797.5,319.4 L798.1,315.6 L798.8,308.1 L799.5,306.9 L800.2,301.8 L800.9,308.1 L801.6,300.6 L802.3,304.4 L803.0,311.9 L803.7,311.9 L804.4,326.9 L805.1,326.9 L805.8,330.7 L806.6,314.4 L807.3,328.2 L808.0,333.2 L808.7,334.5 L809.4,335.7 L810.1,333.2 L810.8,333.2 L811.5,334.5 L812.1,333.2 L812.8,326.9 L813.5,326.9 L814.2,339.5 L814.9,342.0 L815.6,344.5 L816.3,343.2 L817.0,345.8 L817.7,339.5 L818.4,335.7 L819.1,337.0 L819.8,338.2 L820.5,335.7 L821.3,369.6 L822.0,369.6 L822.6,370.9 L823.4,367.1 L824.1,367.1 L824.8,372.1 L825.5,358.3 L826.2,372.1 L826.9,359.6 L827.5,350.8 L828.2,358.3 L828.9,368.3 L829.6,374.6 L830.3,374.6 L831.0,380.9 L831.7,379.6 L832.4,367.1 L833.1,375.9 L833.8,368.3 L834.5,358.3 L835.2,364.6 L836.0,382.1 L836.8,384.7 L837.5,374.6 L838.2,365.8 L838.9,363.3 L839.6,368.3 L840.3,368.3 L841.1,368.3 L841.7,364.6 L842.4,372.1 L843.1,363.3 L843.8,365.8 L844.5,372.1 L845.2,373.4 L845.9,374.6 L846.6,368.3 L847.3,367.1 L848.0,377.1 L848.7,364.6 L849.4,360.8 L850.8,348.3 L851.5,355.8 L852.2,349.5 L852.9,348.3 L853.6,347.0 L854.3,350.8 L855.0,348.3 L855.7,348.3 L856.4,357.1 L857.1,378.4 L857.8,368.3 L858.5,370.9 L859.2,380.9 L859.9,385.9 L860.6,383.4 L861.3,372.1 L861.9,380.9 L862.7,378.4 L863.3,378.4 L864.1,370.9 L864.7,374.6 L865.6,388.4 L866.3,372.1 L867.0,378.4 L867.7,384.7 L868.4,387.2 L869.1,385.9 L869.8,380.9 L870.5,373.4 L871.2,377.1 L871.9,380.9 L872.6,367.1 L873.3,365.8 L874.0,357.1 L874.7,357.1 L875.4,359.6 L876.1,358.3 L876.9,355.8 L877.5,347.0 L878.2,354.5 L878.9,367.1 L880.2,358.3 L880.9,357.1 L881.6,350.8 L882.3,357.1 L882.9,362.1 L883.7,355.8 L884.3,349.5 L885.1,348.3 L885.7,343.2 L886.5,355.8 L887.2,362.1 L887.8,357.1 L888.5,358.3 L889.2,364.6 L889.9,372.1 L890.6,362.1 L891.3,370.9 L892.0,369.6 L892.7,368.3 L893.4,359.6 L894.1,353.3 L895.0,367.1 L895.7,357.1 L896.4,355.8 L897.1,347.0 L897.8,343.2 L898.5,340.7 L899.3,339.5 L900.0,344.5 L900.7,347.0 L901.4,352.0 L902.1,373.4 L902.8,397.2 L903.5,418.5 L904.2,438.6 L904.9,456.2 L905.6,473.7 L906.3,475.0 L906.9,497.6 L907.7,495.1 L908.3,497.6 L909.7,496.3 L910.4,501.3 L911.2,497.6 L911.9,497.6 L912.6,517.7 L913.3,498.8 L914.0,523.9 L914.7,503.8 L915.4,512.6 L916.1,526.4 L916.8,530.2 L917.5,503.8 L918.2,539.0 L918.9,502.6 L919.6,508.9 L920.3,520.2 L921.0,521.4 L921.7,527.7 L922.4,507.6 L923.1,505.1 L925.0,532.7 L925.7,503.8 L926.4,501.3 L927.1,516.4 L927.7,508.9 L928.4,518.9 L929.1,503.8 L929.8,502.6 L930.5,507.6 L931.2,515.1 L931.9,521.4 L932.6,530.2 L933.3,503.8 L934.0,527.7 L934.7,520.2 L935.4,501.3 L936.1,534.0 L936.8,527.7 L937.5,521.4 L938.2,493.8 L938.9,506.4 L940.3,523.9 L941.0,515.1 L941.7,518.9 L942.5,532.7 L943.1,535.2 L943.9,537.7 L944.6,521.4 L945.3,540.2 L946.0,497.6 L946.7,517.7 L947.3,512.6 L948.0,506.4 L948.7,500.1 L949.4,516.4 L950.1,530.2 L950.8,512.6 L951.5,526.4 L952.2,507.6 L952.9,521.4 L953.6,520.2 L954.3,508.9 L955.7,507.6 L956.4,544.0 L957.1,525.2 L957.9,511.4 L958.6,502.6 L959.3,535.2 L959.9,508.9 L960.6,501.3 L961.3,503.8 L962.0,539.0 L962.7,498.8 L963.4,511.4 L964.1,515.1 L964.8,520.2 L965.5,526.4 L966.2,517.7 L966.9,498.8 L967.6,516.4 L968.3,502.6 L969.1,515.1 L971.1,500.1 L971.7,520.2 L972.4,508.9 L973.1,495.1 L973.8,516.4 L974.5,534.0 L975.2,493.8 L975.9,503.8 L976.6,539.0 L977.3,532.7 L978.0,521.4 L978.7,526.4 L979.4,500.1 L980.1,495.1 L980.7,517.7 L981.5,500.1 L982.1,503.8 L982.8,506.4 L983.5,532.7 L984.2,535.2 L984.9,508.9 L986.4,498.8 L987.0,513.9 L987.8,501.3 L988.4,506.4 L989.2,505.1 L989.8,521.4 L990.6,491.3 L991.2,496.3 L991.9,531.5 L992.7,512.6 L993.3,527.7 L994.1,496.3 L994.8,512.6 L995.5,497.6 L996.2,513.9 L996.8,512.6 L997.6,500.1 L998.2,527.7 L998.9,513.9 L999.7,513.9 L1001.7,531.5 L1002.4,515.1 L1003.1,531.5 L1003.8,511.4 L1004.5,503.8 L1005.2,530.2 L1005.9,506.4 L1006.6,501.3 L1007.3,534.0 L1008.0,501.3 L1008.7,506.4 L1009.4,525.2 L1010.1,534.0 L1010.9,520.2 L1011.6,501.3 L1012.3,503.8 L1012.9,510.1 L1013.6,525.2 L1014.3,527.7 L1015.0,528.9 L1017.1,506.4 L1017.7,515.1 L1018.5,502.6 L1019.2,513.9 L1019.9,491.3 L1020.6,456.2 L1021.3,457.4 L1022.0,426.1 L1022.7,421.0 L1023.4,436.1 L1024.1,451.2 L1024.8,458.7 L1025.5,443.6 L1026.2,417.3 L1026.9,395.9 L1027.6,368.3 L1028.3,353.3 L1028.9,352.0 L1029.6,332.0 L1030.3,315.6 L1031.0,333.2 L1032.5,273.0 L1033.2,255.4 L1033.9,256.7 L1034.6,249.1 L1035.3,270.5 L1036.0,266.7 L1036.7,235.3 L1037.4,221.5 L1038.1,229.1 L1038.8,215.3 L1039.5,195.2 L1040.2,188.9 L1040.9,212.8 L1041.6,215.3 L1042.3,206.5 L1042.9,193.9 L1043.7,192.7 L1044.3,191.4 L1045.1,226.6 L1045.7,231.6 L1046.4,219.0 L1047.9,295.6 L1048.6,288.0 L1049.3,255.4 L1050.0,249.1 L1050.7,246.6 L1051.4,229.1 L1052.1,226.6 L1052.8,219.0 L1053.5,230.3 L1054.2,214.0 L1054.9,187.7 L1055.6,204.0 L1056.3,220.3 L1057.0,220.3 L1057.7,187.7 L1058.4,177.6 L1059.1,185.2 L1059.8,167.6 L1060.5,152.5 L1061.2,131.2 L1063.2,99.8 L1063.9,112.4 L1064.6,76.0 L1065.3,96.1 L1067.7,162.6 L1068.3,176.4 L1069.0,193.9 L1069.7,192.7 L1070.4,211.5 L1071.1,205.2 L1071.8,232.8 L1072.5,227.8 L1073.2,246.6 L1073.9,249.1 L1074.6,251.7 L1075.3,262.9 L1076.0,268.0 L1076.7,271.7 L1078.4,273.0 L1079.1,278.0 L1079.8,281.8 L1080.5,285.5 L1081.2,290.6 L1081.9,289.3 L1082.6,291.8 L1083.3,291.8 L1084.0,296.8" fill="none" stroke="#ff7f0e" stroke-width="1.1" opacity="0.85"/><text x="616" y="572" font-size="11" fill="#888">time 0..33 s — altitude (blue) &amp; roll (orange)</text></svg>