<svg xmlns="http://www.w3.org/2000/svg" width="1140" height="600" font-family="sans-serif" font-size="13"><rect width="1140" height="600" fill="white"/><text x="20" y="26" font-size="15" fill="#333">Coludo flight</text><rect x="20" y="40" width="540" height="540" fill="#fbfbfb" stroke="#ddd"/><rect x="50" y="299" width="318" height="68" fill="#cde" stroke="#369" opacity="0.7"/><text x="50" y="294" fill="#369" font-size="12">landing zone</text><circle cx="251" cy="406" r="5" fill="black"/><text x="259" y="410" font-size="12">pad</text><path d="M251.8,405.4 L251.8,405.4 L251.8,405.4 L251.8,405.4 L251.8,405.4 L251.8,405.4 L251.8,405.4 L251.8,405.4 L251.8,405.4 L251.8,405.4 L251.8,405.4 L251.8,405.4 L251.8,405.4 L251.8,405.4 L251.8,405.4 L251.8,405.4 L251.8,405.4 L251.8,405.4 L251.8,405.4 L251.8,405.4 L251.8,405.4 L251.8,405.4 L251.8,405.4 L251.8,405.4 L251.8,405.4 L251.8,405.4 L251.8,405.4 L251.8,405.4 L251.8,405.4 L251.8,405.4 L251.8,405.4 L251.8,405.4 L251.8,405.4 L251.8,405.4 L251.8,405.4 L251.8,405.4 L251.8,405.4 L251.8,405.4 L251.8,405.4 L251.8,405.4 L251.8,405.4 L251.8,405.4 L251.8,405.4 L251.8,405.4 L251.8,405.4 L251.8,405.4 L251.8,405.4 L251.8,405.4 L251.8,405.4 L251.8,405.4 L251.8,405.4 L251.8,405.4 L251.8,405.4 L251.8,405.4 L251.8,405.4 L252.8,403.9 L252.8,402.4 L253.5,400.9 L255.2,399.0 L256.9,397.1 L258.3,396.0 L258.6,394.1 L260.3,392.6 L262.0,391.0 L263.7,389.5 L263.7,388.0 L265.4,386.9 L268.8,385.4 L269.2,383.9 L270.5,382.7 L272.2,381.2 L274.6,380.5 L275.7,379.3 L277.4,377.8 L280.1,377.1 L280.8,375.9 L282.5,374.8 L285.6,373.6 L285.9,372.5 L289.3,371.8 L291.0,371.0 L292.7,369.9 L294.4,368.7 L296.5,368.0 L297.9,366.8 L301.3,366.1 L301.9,364.9 L304.7,364.2 L306.4,363.4 L308.1,362.3 L309.8,361.2 L311.5,360.0 L314.2,358.9 L314.9,357.4 L316.6,356.6 L318.3,355.1 L320.0,353.6 L321.7,352.1 L323.5,350.6 L323.8,348.7 L325.2,347.5 L326.9,346.0 L328.6,344.1 L329.3,342.2 L330.3,340.7 L330.3,338.8 L332.0,337.0 L333.7,335.1 L334.7,333.5 L334.7,331.7 L335.4,329.4 L335.4,327.5 L337.1,325.6 L337.1,323.7 L337.1,321.4 L338.8,319.6 L338.8,317.3 L338.8,315.4 L338.8,313.5 L338.8,310.9 L338.8,309.3 L338.8,307.1 L338.8,303.7 L338.8,301.8 L338.8,299.5 L337.1,297.2 L337.1,295.3 L337.1,293.1 L335.4,291.2 L335.4,288.5 L335.4,286.6 L335.4,284.4 L334.7,282.5 L334.7,280.2 L334.7,278.3 L334.7,276.0 L334.7,274.2 L334.7,271.5 L334.7,270.0 L335.4,267.7 L335.4,265.5 L335.4,263.6 L335.4,261.7 L337.1,259.8 L337.1,257.5 L338.8,255.6 L338.8,253.7 L340.5,252.2 L340.9,249.9 L340.9,248.1 L342.2,246.5 L343.9,244.7 L345.6,243.1 L345.6,241.2 L347.4,239.7 L347.4,238.2 L350.8,236.3 L350.8,234.8 L352.5,232.9 L354.2,232.2 L355.9,230.7 L356.6,229.1 L357.6,228.0 L361.0,226.5 L362.7,225.4 L364.1,224.6 L366.1,223.5 L367.8,222.3 L368.2,221.2 L371.3,220.4 L373.0,219.7 L374.7,218.5 L378.1,217.8 L378.4,217.0 L381.5,217.0 L383.9,216.3 L384.9,215.9 L388.3,215.5 L390.0,215.1 L391.7,214.8 L395.1,214.8 L398.6,214.4 L401.0,214.4 L403.7,214.4 L405.4,214.4 L407.1,214.8 L410.5,215.1 L412.2,215.5 L415.6,215.9 L418.0,216.3 L419.0,216.7 L422.5,217.0 L424.2,217.8 L427.6,218.5 L428.9,219.3 L431.0,220.4 L435.1,221.2 L436.1,222.3 L439.5,223.5 L440.6,224.6 L444.7,226.5 L446.4,228.0 L449.8,229.5 L451.5,231.0 L453.2,232.5 L456.3,233.7 L458.3,235.6 L460.0,237.5 L461.7,239.4 L465.1,242.4 L466.5,244.7 L468.5,246.5 L472.0,248.4 L473.3,250.7 L475.4,252.6 L477.1,254.9 L478.8,256.4 L480.5,259.0 L483.9,262.8 L485.6,265.1 L487.3,267.0 L489.0,269.6 L490.7,271.5 L492.4,273.8 L494.5,276.0 L495.9,278.3 L497.6,280.2 L501.0,284.7 L502.7,286.6 L504.4,288.9 L506.1,291.6 L507.8,294.2 L509.5,296.1 L511.6,298.7 L512.9,302.5 L516.3,304.8 L518.1,309.0 L519.8,311.2 L521.5,313.5 L521.8,316.5 L523.2,318.4 L524.9,321.1 L527.3,324.1 L528.3,326.0 L530.0,328.6" fill="none" stroke="#1f77b4" stroke-width="1.7" opacity="0.85"/><circle cx="530" cy="329" r="4.5" fill="#1f77b4"/><text x="28" y="572" font-size="11" fill="#888">ground track — m from pad (N up)</text><rect x="580" y="40" width="540" height="540" fill="#fbfbfb" stroke="#ddd"/><text x="586" y="54" fill="#1f77b4" font-size="11">alt 142</text><text x="586" y="558" fill="#1f77b4" font-size="11">-51</text><path d="M946.1,416.6 L946.4,415.4 L946.6,416.6 L946.9,415.0 L947.1,415.3 L947.3,414.3 L947.6,414.3 L947.8,411.7 L948.0,412.3 L948.2,410.1 L948.5,410.0 L948.7,408.6 L948.9,405.9 L949.1,404.3 L949.3,403.1 L949.5,399.2 L949.8,398.2 L950.0,398.8 L950.2,394.6 L950.4,394.1 L950.6,389.2 L950.9,387.2 L951.1,386.1 L951.3,377.7 L951.5,374.9 L951.8,375.0 L952.0,374.6 L952.2,374.2 L952.4,360.9 L952.6,364.8 L952.8,358.9 L953.1,357.0 L953.3,351.3 L953.5,346.4 L953.7,348.3 L953.9,333.0 L954.1,326.3 L954.4,338.4 L954.6,320.8 L954.8,320.1 L955.0,309.9 L955.3,306.4 L955.5,312.0 L955.7,297.7 L955.9,303.9 L956.2,297.1 L956.4,292.4 L956.6,270.5 L956.8,281.0 L957.0,286.8 L957.3,263.7 L957.5,261.2 L957.7,275.5 L957.9,255.3 L958.1,247.1 L958.3,248.8 L958.6,253.0 L958.8,249.4 L959.0,225.5 L959.2,229.8 L959.4,221.8 L959.6,236.3 L959.9,218.6 L960.1,212.5 L960.3,211.0 L960.5,221.7 L960.7,206.5 L961.0,204.5 L961.2,221.3 L961.4,206.1 L961.7,178.9 L961.9,217.6 L962.1,183.8 L962.3,186.1 L962.6,190.1 L962.8,186.7 L963.0,162.9 L963.2,169.5 L963.4,154.6 L963.6,155.0 L963.9,164.2 L964.1,153.3 L964.3,160.5 L964.5,188.2 L964.7,184.7 L965.0,181.9 L965.2,158.6 L965.4,150.0 L965.6,162.2 L965.8,140.7 L966.0,149.5 L966.3,163.8 L966.6,167.2 L966.8,120.7 L967.0,159.2 L967.2,138.1 L967.4,145.0 L967.7,115.1 L967.9,157.7 L968.1,128.0 L968.3,147.7 L968.5,145.0 L968.7,149.5 L969.0,98.3 L969.2,109.5 L969.4,150.0 L969.6,120.0 L969.8,103.3 L970.1,137.4 L970.3,146.3 L970.5,102.4 L970.7,126.6 L970.9,102.8 L971.1,120.6 L971.5,135.5 L971.7,103.6 L971.9,115.6 L972.1,129.9 L972.4,134.8 L972.6,110.0 L972.8,104.6 L973.0,124.5 L973.2,82.6 L973.4,103.8 L973.7,97.5 L973.9,128.3 L974.1,95.4 L974.3,109.6 L974.5,106.6 L974.7,111.6 L975.0,92.6 L975.2,133.9 L975.4,119.5 L975.6,85.1 L975.8,129.5 L976.0,100.4 L976.3,97.6 L976.6,97.9 L976.8,85.2 L977.0,94.0 L977.3,95.8 L977.5,81.0 L977.7,98.6 L977.9,81.5 L978.1,110.0 L978.3,127.1 L978.6,94.5 L978.8,76.0 L979.0,83.1 L979.2,117.0 L979.4,111.4 L979.7,124.3 L979.9,80.3 L980.2,83.2 L980.4,83.6 L980.6,94.7 L980.8,137.9 L981.1,103.0 L981.3,125.3 L981.5,116.6 L981.8,83.6 L982.1,97.7 L982.3,111.1 L982.5,122.3 L982.7,77.1 L982.9,132.0 L983.2,123.7 L983.4,107.6 L983.6,115.5 L983.8,107.3 L984.0,103.3 L984.3,108.8 L984.5,107.5 L984.7,128.7 L984.9,87.9 L985.1,93.6 L985.4,108.5 L985.6,107.8 L985.8,103.3 L986.0,116.2 L986.2,110.4 L986.4,94.4 L986.7,99.5 L987.1,127.5 L987.3,106.3 L987.5,105.1 L987.8,104.9 L988.0,116.4 L988.2,143.9 L988.4,128.9 L988.6,121.7 L988.9,145.8 L989.1,119.4 L989.3,118.6 L989.5,96.5 L989.7,144.2 L990.0,94.6 L990.2,109.6 L990.4,103.4 L990.6,98.9 L990.8,107.8 L991.1,137.2 L991.3,92.5 L991.5,135.5 L991.7,152.9 L991.9,143.4 L992.3,113.3 L992.5,142.4 L992.8,149.2 L993.0,116.8 L993.2,109.5 L993.4,108.3 L993.6,98.1 L993.9,101.2 L994.1,140.2 L994.3,106.3 L994.5,154.3 L994.7,153.0 L994.9,138.7 L995.2,117.8 L995.4,137.4 L995.6,156.7 L995.8,120.6 L996.0,159.5 L996.3,123.0 L996.5,152.2 L996.7,153.7 L996.9,126.4 L997.1,153.7 L997.6,125.7 L997.8,130.4 L998.0,150.9 L998.2,119.3 L998.4,146.8 L998.7,125.3 L998.9,147.7 L999.1,127.9 L999.3,119.1 L999.5,115.1 L999.8,153.5 L1000.0,120.3 L1000.2,166.2 L1000.4,154.4 L1000.6,140.4 L1000.9,153.1 L1001.1,135.7 L1001.3,153.8 L1001.5,148.9 L1001.7,137.9 L1001.9,149.0 L1002.2,154.3 L1002.4,170.2 L1002.8,130.3 L1003.0,132.7 L1003.3,127.4 L1003.5,131.1 L1003.7,161.7 L1003.9,143.1 L1004.1,157.1 L1004.3,164.3 L1004.6,167.7 L1004.8,155.9 L1005.0,170.5 L1005.2,136.7 L1005.4,150.2 L1005.7,167.8 L1005.9,179.8 L1006.1,158.3 L1006.3,138.4 L1006.5,172.8 L1006.8,182.6 L1007.0,161.6 L1007.2,156.4 L1007.4,170.6 L1007.6,173.3 L1008.1,156.3 L1008.3,190.2 L1008.5,180.4 L1008.7,153.8 L1008.9,153.8 L1009.2,184.6 L1009.4,146.2 L1009.6,160.0 L1009.8,146.8 L1010.0,149.4 L1010.3,167.8 L1010.5,150.0 L1010.8,183.0 L1011.0,175.1 L1011.2,192.0 L1011.4,160.5 L1011.6,158.4 L1011.9,190.8 L1012.1,162.3 L1012.3,181.2 L1012.5,167.8 L1012.7,158.1 L1013.0,193.1 L1013.5,201.6 L1013.7,163.0 L1014.0,166.7 L1014.2,167.6 L1014.4,185.2 L1014.6,207.6 L1014.8,209.2 L1015.1,212.5 L1015.3,207.9 L1015.5,173.8 L1015.7,183.6 L1015.9,201.0 L1016.1,185.0 L1016.4,191.7 L1016.6,206.9 L1016.8,201.2 L1017.0,192.7 L1017.2,186.6 L1017.5,213.3 L1017.7,212.1 L1017.9,178.8 L1018.1,213.7 L1018.3,207.4 L1019.0,210.4 L1019.2,213.8 L1019.4,221.3 L1019.6,196.1 L1019.9,221.9 L1020.1,219.5 L1020.3,229.8 L1020.5,207.6 L1020.7,202.7 L1021.0,210.4 L1021.2,227.3 L1021.4,205.7 L1021.6,214.6 L1021.8,230.8 L1022.1,208.5 L1022.3,226.3 L1022.5,223.3 L1022.7,206.0 L1022.9,215.4 L1023.2,234.3 L1023.4,229.8 L1023.6,218.1 L1023.8,211.6 L1024.4,219.7 L1024.7,219.5 L1024.9,246.6 L1025.1,232.6 L1025.3,223.9 L1025.5,217.9 L1025.7,220.0 L1026.0,250.5 L1026.2,235.6 L1026.4,247.2 L1026.6,249.7 L1026.8,252.7 L1027.1,251.1 L1027.3,232.9 L1027.5,236.9 L1027.7,257.0 L1027.9,236.7 L1028.2,235.9 L1028.4,226.9 L1028.6,257.0 L1028.8,252.9 L1029.0,237.2 L1029.2,244.1 L1029.9,263.2 L1030.1,237.2 L1030.4,244.8 L1030.6,240.8 L1030.8,264.2 L1031.0,240.8 L1031.3,270.8 L1031.5,271.9 L1031.7,243.1 L1031.9,263.7 L1032.1,258.2 L1032.3,272.0 L1032.6,248.8 L1032.8,264.8 L1033.0,272.2 L1033.2,265.3 L1033.4,276.2 L1033.7,282.3 L1033.9,283.5 L1034.1,263.6 L1034.3,264.0 L1034.5,275.9 L1034.7,258.8 L1035.4,262.4 L1035.6,263.1 L1035.8,279.7 L1036.0,281.4 L1036.3,286.4 L1036.5,277.3 L1036.7,277.5 L1036.9,273.2 L1037.2,286.4 L1037.4,274.3 L1037.6,275.2 L1037.8,286.7 L1038.0,276.5 L1038.2,287.2 L1038.5,304.0 L1038.7,290.0 L1038.9,294.9 L1039.1,298.0 L1039.3,285.9 L1039.6,288.8 L1039.8,305.5 L1040.0,301.2 L1040.2,297.2 L1040.9,296.7 L1041.1,297.2 L1041.3,295.6 L1041.5,317.0 L1041.7,297.0 L1042.0,310.8 L1042.2,302.3 L1042.4,304.4 L1042.6,308.0 L1042.9,315.1 L1043.1,325.1 L1043.3,311.3 L1043.5,318.7 L1043.7,322.6 L1044.0,311.4 L1044.2,325.5 L1044.4,311.5 L1044.6,326.8 L1044.8,316.0 L1045.1,325.6 L1045.3,321.1 L1045.5,332.1 L1045.7,323.5 L1046.3,328.0 L1046.6,329.7 L1046.8,328.8 L1047.0,338.9 L1047.2,339.2 L1047.4,344.4 L1047.6,345.4 L1047.9,332.4 L1048.1,347.3 L1048.3,341.4 L1048.5,343.2 L1048.7,343.9 L1049.0,351.1 L1049.2,345.5 L1049.4,341.0 L1049.6,350.6 L1049.8,346.9 L1050.1,352.6 L1050.3,357.1 L1050.5,350.4 L1050.7,353.0 L1051.0,361.2 L1051.2,359.9 L1051.8,363.6 L1052.0,360.6 L1052.3,361.8 L1052.5,364.7 L1052.7,368.5 L1052.9,371.7 L1053.1,368.5 L1053.4,365.4 L1053.6,370.3 L1053.8,376.7 L1054.0,375.8 L1054.3,376.6 L1054.5,374.1 L1054.7,373.9 L1054.9,379.3 L1055.1,379.6 L1055.4,380.0 L1055.6,379.6 L1055.8,383.5 L1056.0,385.4 L1056.2,381.5 L1056.5,388.3 L1056.7,389.1 L1057.3,390.1 L1057.5,389.6 L1057.7,395.1 L1058.0,391.9 L1058.2,394.0 L1058.4,396.2 L1058.6,399.9 L1058.8,397.3 L1059.1,402.1 L1059.3,402.2 L1059.5,401.8 L1059.7,404.7 L1060.0,404.4 L1060.2,407.1 L1060.4,409.4 L1060.6,410.0 L1060.8,410.2 L1061.1,410.9 L1061.3,412.2 L1061.5,414.8 L1061.7,415.8 L1062.0,417.3 L1062.2,417.8 L1062.8,421.5 L1063.0,423.0 L1063.2,424.7 L1063.4,425.5 L1063.7,426.2 L1063.9,428.8 L1064.1,429.3 L1064.3,430.9 L1064.6,432.1 L1064.8,432.7 L1065.0,434.8 L1065.2,436.2 L1065.5,438.8 L1065.7,438.1 L1065.9,441.8 L1066.1,440.0 L1066.3,441.6 L1066.6,444.1 L1066.8,444.1 L1067.0,446.9 L1067.2,444.6 L1067.5,449.5 L1067.7,452.4 L1068.3,454.7 L1068.5,454.7 L1068.7,455.0 L1068.9,457.6 L1069.2,461.6 L1069.4,459.3 L1069.6,459.9 L1069.8,461.9 L1070.1,463.4 L1070.3,459.9 L1070.5,465.2 L1070.7,470.3 L1071.0,468.7 L1071.2,472.0 L1071.4,471.5 L1071.6,467.3 L1071.8,475.1 L1072.1,479.3 L1072.3,478.8 L1072.5,479.8 L1072.7,475.0 L1073.0,484.1 L1073.2,481.1 L1073.8,484.5 L1074.0,482.4 L1074.2,484.6 L1074.4,490.0 L1074.7,489.4 L1074.9,493.3 L1075.4,491.3 L1075.6,490.7 L1075.8,498.8 L1076.0,497.9 L1076.2,494.5 L1076.5,499.0 L1076.7,502.6 L1076.9,508.2 L1077.1,498.8 L1078.1,512.6 L1078.3,509.8 L1078.5,502.9 L1078.7,508.8 L1079.6,514.5 L1079.8,517.1 L1080.0,522.9 L1080.2,524.1 L1080.5,517.2 L1080.7,514.6 L1080.9,521.7 L1081.1,521.9 L1081.4,525.4 L1081.6,522.2 L1081.8,537.9 L1082.0,531.7 L1082.2,531.0 L1082.5,531.2 L1082.7,544.0 L1082.9,534.3 L1083.1,538.3 L1083.3,540.6 L1083.6,528.2 L1083.8,532.5 L1084.0,532.8" fill="none" stroke="#1f77b4" stroke-width="1.4" opacity="0.85"/><text x="1040" y="54" fill="#ff7f0e" font-size="11">roll 20</text><text x="1090" y="558" fill="#ff7f0e" font-size="11">-18</text><path d="M946.1,316.8 L946.4,315.6 L946.6,318.0 L946.9,315.6 L947.1,316.8 L947.3,315.6 L947.6,316.8 L947.8,316.8 L948.0,318.0 L948.2,316.8 L948.5,316.8 L948.7,315.6 L948.9,315.6 L949.1,316.8 L949.3,315.6 L949.5,315.6 L949.8,314.3 L950.0,313.1 L950.2,313.1 L950.4,311.9 L950.6,313.1 L950.9,311.9 L951.1,313.1 L951.3,310.6 L951.5,309.4 L951.8,310.6 L952.0,309.4 L952.2,306.9 L952.4,308.1 L952.6,308.1 L952.8,305.7 L953.1,306.9 L953.3,306.9 L953.5,304.4 L953.7,303.2 L953.9,304.4 L954.1,298.3 L954.4,300.7 L954.6,302.0 L954.8,302.0 L955.0,297.0 L955.2,299.5 L955.5,299.5 L955.7,298.3 L955.9,292.1 L956.2,292.1 L956.4,297.0 L956.6,294.6 L956.8,294.6 L957.0,287.2 L957.3,292.1 L957.5,287.2 L957.7,289.6 L957.9,288.4 L958.1,290.9 L958.3,284.7 L958.6,282.2 L958.8,288.4 L959.0,285.9 L959.2,282.2 L959.4,283.5 L959.6,285.9 L959.9,278.5 L960.1,278.5 L960.3,284.7 L960.5,279.7 L960.7,283.5 L961.0,281.0 L961.2,277.3 L961.4,285.9 L961.7,284.7 L961.9,277.3 L962.1,279.7 L962.3,282.2 L962.5,278.5 L962.8,278.5 L963.0,281.0 L963.2,276.0 L963.4,278.5 L963.6,279.7 L963.9,283.5 L964.1,284.7 L964.3,281.0 L964.5,283.5 L964.7,281.0 L965.0,276.0 L965.2,283.5 L965.4,282.2 L965.6,277.3 L965.8,278.5 L966.0,284.7 L966.3,283.5 L966.6,276.0 L966.8,283.5 L967.0,281.0 L967.2,283.5 L967.4,283.5 L967.7,276.0 L967.9,278.5 L968.1,284.7 L968.3,283.5 L968.5,276.0 L968.7,281.0 L969.0,277.3 L969.2,277.3 L969.4,274.8 L969.6,283.5 L969.8,281.0 L970.1,273.6 L970.3,277.3 L970.5,273.6 L970.7,278.5 L970.9,274.8 L971.1,273.6 L971.5,272.3 L971.7,279.7 L971.9,274.8 L972.1,277.3 L972.4,269.9 L972.6,272.3 L972.8,271.1 L973.0,268.6 L973.2,274.8 L973.4,268.6 L973.7,269.9 L973.9,269.9 L974.1,274.8 L974.3,268.6 L974.5,268.6 L974.7,268.6 L975.0,273.6 L975.2,276.0 L975.4,272.3 L975.6,268.6 L975.8,273.6 L976.0,309.4 L976.3,283.5 L976.6,257.5 L976.8,246.4 L977.0,209.4 L977.3,190.8 L977.5,182.2 L977.7,176.0 L977.9,173.6 L978.1,142.7 L978.3,146.4 L978.6,130.3 L978.8,131.6 L979.0,127.9 L979.2,135.3 L979.4,114.3 L979.7,114.3 L979.9,118.0 L980.2,129.1 L980.4,111.8 L980.6,118.0 L980.8,103.2 L981.1,129.1 L981.3,111.8 L981.5,139.0 L981.8,124.2 L982.1,104.4 L982.3,134.0 L982.5,104.4 L982.7,131.6 L982.9,124.2 L983.2,120.5 L983.4,145.2 L983.6,163.7 L983.8,136.5 L984.0,155.0 L984.3,173.6 L984.5,152.6 L984.7,162.4 L984.9,161.2 L985.1,172.3 L985.4,167.4 L985.6,173.6 L985.8,183.4 L986.0,188.4 L986.2,202.0 L986.4,202.0 L986.7,205.7 L987.1,198.2 L987.3,194.5 L987.5,208.1 L987.8,225.4 L988.0,213.1 L988.2,224.2 L988.4,220.5 L988.6,230.4 L988.9,231.6 L989.1,220.5 L989.3,218.0 L989.5,230.4 L989.7,252.6 L990.0,252.6 L990.2,245.2 L990.4,248.9 L990.6,252.6 L990.8,264.9 L991.1,269.9 L991.3,269.9 L991.5,269.9 L991.7,263.7 L991.9,273.6 L992.3,264.9 L992.5,303.2 L992.8,330.4 L993.0,348.9 L993.2,368.7 L993.4,394.6 L993.6,414.3 L993.9,437.8 L994.1,444.0 L994.3,468.7 L994.5,469.9 L994.7,478.6 L994.9,493.4 L995.2,510.7 L995.4,513.1 L995.6,490.9 L995.8,510.7 L996.0,520.5 L996.3,495.8 L996.5,514.4 L996.7,511.9 L996.9,511.9 L997.1,502.0 L997.6,520.5 L997.8,499.5 L998.0,519.3 L998.2,507.0 L998.4,509.4 L998.7,509.4 L998.9,502.0 L999.1,532.9 L999.3,520.5 L999.5,518.1 L999.8,514.4 L1000.0,521.8 L1000.2,511.9 L1000.4,505.7 L1000.6,510.7 L1000.8,531.7 L1001.1,524.2 L1001.3,537.8 L1001.5,516.8 L1001.7,515.6 L1001.9,508.2 L1002.1,534.1 L1002.4,532.9 L1002.8,524.2 L1003.0,539.1 L1003.3,521.8 L1003.5,544.0 L1003.7,532.9 L1003.9,509.4 L1004.1,532.9 L1004.3,509.4 L1004.6,542.8 L1004.8,504.5 L1005.0,515.6 L1005.2,525.5 L1005.4,514.4 L1005.7,507.0 L1005.9,511.9 L1006.1,503.3 L1006.3,532.9 L1006.5,525.5 L1006.8,525.5 L1007.0,507.0 L1007.2,508.2 L1007.4,497.1 L1007.6,515.6 L1008.1,523.0 L1008.3,531.7 L1008.5,537.8 L1008.7,532.9 L1008.9,536.6 L1009.2,509.4 L1009.4,523.0 L1009.6,516.8 L1009.8,500.8 L1010.0,526.7 L1010.3,498.3 L1010.5,537.8 L1010.8,525.5 L1011.0,532.9 L1011.2,520.5 L1011.4,510.7 L1011.6,507.0 L1011.9,526.7 L1012.1,515.6 L1012.3,497.1 L1012.5,505.7 L1012.7,518.1 L1013.0,503.3 L1013.5,521.8 L1013.7,539.1 L1014.0,503.3 L1014.2,535.4 L1014.4,523.0 L1014.6,535.4 L1014.8,511.9 L1015.1,535.4 L1015.3,500.8 L1015.5,473.6 L1015.7,424.2 L1015.9,376.1 L1016.1,347.7 L1016.4,319.3 L1016.6,294.6 L1016.8,267.4 L1017.0,237.8 L1017.2,215.5 L1017.5,198.2 L1017.7,198.2 L1017.9,184.7 L1018.1,163.7 L1018.3,146.4 L1019.0,140.2 L1019.2,140.2 L1019.4,137.7 L1019.6,101.9 L1019.9,139.0 L1020.1,98.2 L1020.3,115.5 L1020.5,98.2 L1020.7,97.0 L1021.0,131.6 L1021.2,118.0 L1021.4,127.9 L1021.6,121.7 L1021.8,130.3 L1022.1,105.6 L1022.3,109.3 L1022.5,118.0 L1022.7,99.5 L1022.9,114.3 L1023.2,98.2 L1023.4,126.6 L1023.6,111.8 L1023.8,132.8 L1024.4,98.2 L1024.7,109.3 L1024.9,98.2 L1025.1,114.3 L1025.3,95.8 L1025.5,129.1 L1025.7,119.2 L1026.0,130.3 L1026.2,92.1 L1026.4,108.1 L1026.6,106.9 L1026.8,130.3 L1027.1,125.4 L1027.3,130.3 L1027.5,121.7 L1027.7,100.7 L1027.9,118.0 L1028.2,90.8 L1028.4,105.6 L1028.6,106.9 L1028.8,125.4 L1029.0,130.3 L1029.2,122.9 L1029.9,119.2 L1030.1,98.2 L1030.4,111.8 L1030.6,131.6 L1030.8,114.3 L1031.0,110.6 L1031.3,119.2 L1031.5,135.3 L1031.7,103.2 L1031.9,126.6 L1032.1,113.0 L1032.3,124.2 L1032.6,116.7 L1032.8,135.3 L1033.0,124.2 L1033.2,101.9 L1033.4,116.7 L1033.7,132.8 L1033.9,95.8 L1034.1,122.9 L1034.3,97.0 L1034.5,118.0 L1034.7,103.2 L1035.4,76.0 L1035.6,116.7 L1035.8,100.7 L1036.0,103.2 L1036.3,101.9 L1036.5,125.4 L1036.7,106.9 L1036.9,101.9 L1037.1,94.5 L1037.4,116.7 L1037.6,101.9 L1037.8,98.2 L1038.0,95.8 L1038.2,98.2 L1038.5,104.4 L1038.7,111.8 L1038.9,103.2 L1039.1,100.7 L1039.3,115.5 L1039.6,111.8 L1039.8,105.6 L1040.0,97.0 L1040.2,125.4 L1040.9,118.0 L1041.1,124.2 L1041.3,114.3 L1041.5,126.6 L1041.7,105.6 L1042.0,136.5 L1042.2,111.8 L1042.4,111.8 L1042.6,134.0 L1042.9,98.2 L1043.1,99.5 L1043.3,116.7 L1043.5,97.0 L1043.7,99.5 L1044.0,127.9 L1044.2,93.3 L1044.4,122.9 L1044.6,119.2 L1044.8,126.6 L1045.1,121.7 L1045.3,132.8 L1045.5,120.5 L1045.7,98.2 L1046.3,122.9 L1046.6,108.1 L1046.8,110.6 L1047.0,98.2 L1047.2,105.6 L1047.4,111.8 L1047.6,113.0 L1047.9,98.2 L1048.1,127.9 L1048.3,115.5 L1048.5,125.4 L1048.7,98.2 L1049.0,101.9 L1049.2,101.9 L1049.4,120.5 L1049.6,127.9 L1049.8,108.1 L1050.1,126.6 L1050.3,119.2 L1050.5,130.3 L1050.7,134.0 L1051.0,119.2 L1051.2,132.8 L1051.8,150.1 L1052.0,169.8 L1052.3,153.8 L1052.5,145.2 L1052.7,148.9 L1052.9,145.2 L1053.1,111.8 L1053.4,122.9 L1053.6,122.9 L1053.8,134.0 L1054.0,129.1 L1054.3,99.5 L1054.5,139.0 L1054.7,99.5 L1054.9,136.5 L1055.1,108.1 L1055.4,98.2 L1055.6,110.6 L1055.8,105.6 L1056.0,109.3 L1056.2,129.1 L1056.5,126.6 L1056.7,105.6 L1057.3,116.7 L1057.5,101.9 L1057.7,137.7 L1058.0,122.9 L1058.2,116.7 L1058.4,113.0 L1058.6,120.5 L1058.8,114.3 L1059.1,108.1 L1059.3,130.3 L1059.5,90.8 L1059.7,129.1 L1060.0,129.1 L1060.2,114.3 L1060.4,124.2 L1060.6,88.3 L1060.8,106.9 L1061.1,92.1 L1061.3,118.0 L1061.5,94.5 L1061.7,136.5 L1062.0,114.3 L1062.2,137.7 L1062.8,143.9 L1063.0,140.2 L1063.2,168.6 L1063.4,198.2 L1063.7,183.4 L1063.9,202.0 L1064.1,206.9 L1064.3,219.2 L1064.6,232.8 L1064.8,235.3 L1065.0,229.1 L1065.2,230.4 L1065.5,243.9 L1065.7,240.2 L1065.9,215.5 L1066.1,216.8 L1066.3,221.7 L1066.6,236.5 L1066.8,252.6 L1067.0,246.4 L1067.2,234.1 L1067.5,243.9 L1067.7,237.8 L1068.3,306.9 L1068.5,288.4 L1068.7,266.2 L1068.9,269.9 L1069.2,269.9 L1069.4,253.8 L1069.6,237.8 L1069.8,230.4 L1070.1,227.9 L1070.3,236.5 L1070.5,263.7 L1070.7,278.5 L1070.9,294.6 L1071.2,289.6 L1071.4,293.3 L1071.6,295.8 L1071.8,292.1 L1072.1,295.8 L1072.3,288.4 L1072.5,279.7 L1072.7,279.7 L1072.9,290.9 L1073.2,281.0 L1073.8,239.0 L1074.0,256.3 L1074.2,263.7 L1074.4,269.9 L1074.7,277.3 L1074.9,267.4 L1075.4,235.3 L1075.6,242.7 L1075.8,276.0 L1076.0,281.0 L1076.2,271.1 L1076.5,266.2 L1076.7,261.2 L1076.9,241.5 L1077.1,246.4 L1078.1,218.0 L1078.3,214.3 L1078.5,232.8 L1078.7,242.7 L1079.6,260.0 L1079.8,269.9 L1080.0,271.1 L1080.2,273.6 L1080.5,279.7 L1080.7,283.5 L1080.9,285.9 L1081.1,287.2 L1081.4,285.9 L1081.6,292.1 L1081.8,292.1 L1082.0,297.0 L1082.2,297.0 L1082.5,297.0 L1082.7,299.5 L1082.9,299.5 L1083.1,305.7 L1083.3,304.4 L1083.6,305.7 L1083.8,306.9 L1084.0,305.7" fill="none" stroke="#ff7f0e" stroke-width="1.1" opacity="0.85"/><text x="616" y="572" font-size="11" fill="#888">time 0..94 s — altitude (blue) &amp; roll (orange)</text></svg>