<svg xmlns="http://www.w3.org/2000/svg" width="1140" height="600" font-family="sans-serif" font-size="13"><rect width="1140" height="600" fill="white"/><text x="20" y="26" font-size="15" fill="#333">Coludo flight</text><rect x="20" y="40" width="540" height="540" fill="#fbfbfb" stroke="#ddd"/><rect x="50" y="299" width="308" height="66" fill="#cde" stroke="#369" opacity="0.7"/><text x="50" y="294" fill="#369" font-size="12">landing zone</text><circle cx="245" cy="403" r="5" fill="black"/><text x="253" y="407" font-size="12">pad</text><path d="M245.5,402.6 L245.5,402.6 L245.5,402.6 L245.5,402.6 L245.5,402.6 L245.5,402.6 L245.5,402.6 L245.5,402.6 L245.5,402.6 L245.5,402.6 L245.5,402.6 L245.5,402.6 L245.5,402.6 L245.5,402.6 L245.5,402.6 L245.5,402.6 L245.5,402.6 L245.5,402.6 L245.5,402.6 L245.5,402.6 L245.5,402.6 L245.5,402.6 L245.5,402.6 L245.5,402.6 L245.5,402.6 L245.5,402.6 L245.5,402.6 L245.5,402.6 L245.5,402.6 L245.5,402.6 L245.5,402.6 L245.5,402.6 L245.5,402.6 L245.5,402.6 L245.5,402.6 L245.5,402.6 L245.5,402.6 L245.5,402.6 L245.5,402.6 L245.5,402.6 L245.5,402.6 L245.5,402.6 L245.5,402.6 L245.5,402.6 L245.5,402.6 L245.5,402.6 L245.5,402.6 L245.5,402.6 L245.5,402.6 L245.5,402.6 L245.5,402.6 L245.5,402.6 L245.5,402.6 L245.5,401.9 L246.5,400.8 L247.2,399.0 L248.8,396.8 L250.5,394.9 L251.8,393.5 L252.1,392.0 L253.8,390.6 L255.4,388.7 L257.1,387.6 L257.1,385.8 L258.7,385.1 L262.0,383.2 L262.4,381.8 L263.7,380.7 L265.4,379.6 L267.7,378.5 L268.7,377.4 L270.3,376.3 L272.0,375.2 L273.6,374.1 L276.9,372.6 L278.3,371.9 L280.2,370.8 L281.9,370.4 L284.9,369.3 L285.2,368.2 L288.5,367.5 L288.8,366.4 L291.8,365.3 L294.1,364.5 L295.1,363.4 L298.4,362.7 L299.4,362.0 L301.7,360.9 L303.4,359.8 L306.0,358.7 L306.7,357.6 L310.0,356.1 L311.3,355.4 L311.7,353.9 L313.3,352.4 L315.3,351.0 L316.6,349.1 L318.3,348.0 L319.9,346.9 L320.6,345.1 L321.6,343.3 L323.2,341.4 L324.9,340.0 L325.9,337.8 L325.9,336.3 L326.6,333.7 L328.2,332.6 L329.9,330.8 L329.9,328.2 L331.5,326.0 L331.5,324.6 L331.8,322.7 L331.8,320.2 L331.8,318.0 L333.2,316.5 L333.2,314.3 L333.2,312.1 L333.2,309.9 L333.2,307.0 L333.2,305.1 L333.2,302.9 L333.2,301.1 L331.8,299.3 L331.8,297.1 L331.8,294.9 L331.8,293.0 L331.5,290.8 L331.5,288.6 L331.5,286.8 L331.5,285.0 L329.9,282.8 L329.9,281.0 L329.9,279.1 L329.9,276.6 L329.9,274.7 L329.9,272.5 L331.5,270.0 L331.5,268.1 L331.5,266.3 L331.5,264.5 L331.8,261.9 L331.8,260.1 L333.2,257.9 L333.2,256.4 L334.8,254.6 L336.5,251.3 L337.8,249.8 L337.8,248.0 L338.1,246.5 L339.8,244.7 L341.4,243.2 L341.8,241.7 L343.1,239.9 L344.7,238.1 L346.4,236.6 L347.1,235.1 L348.1,234.4 L349.7,232.9 L351.4,231.5 L354.3,230.4 L354.7,228.9 L358.0,227.8 L358.3,227.1 L359.6,226.0 L362.9,224.1 L364.6,223.0 L367.9,222.3 L368.2,221.6 L369.6,220.8 L372.9,220.1 L374.5,220.1 L376.2,219.4 L379.5,219.0 L382.8,217.9 L384.8,217.9 L387.8,217.5 L390.1,217.5 L391.1,217.2 L394.4,217.2 L396.0,217.2 L399.3,217.5 L400.0,217.5 L402.6,217.9 L405.9,218.3 L407.6,218.6 L409.3,219.0 L411.9,219.4 L414.2,220.1 L417.2,220.5 L419.2,221.6 L423.1,222.3 L424.1,223.0 L428.4,224.9 L430.8,226.0 L432.4,227.4 L434.1,228.2 L437.4,229.6 L438.4,230.7 L440.7,232.6 L443.7,234.0 L445.6,235.1 L449.0,237.7 L450.6,239.5 L452.3,241.0 L453.6,243.2 L455.6,245.0 L458.9,246.9 L460.2,249.1 L462.2,250.9 L463.8,252.7 L465.5,256.8 L468.8,259.3 L470.1,261.9 L472.1,264.5 L473.8,266.3 L475.4,269.2 L477.1,271.8 L480.4,274.0 L480.7,276.6 L482.0,278.8 L483.7,281.3 L486.7,283.5 L487.0,286.4 L488.6,288.3 L490.3,290.8 L490.6,293.0 L493.6,295.2 L495.3,298.2 L496.9,301.5 L498.6,303.3 L500.2,306.2 L501.9,309.2 L503.5,311.4 L505.2,313.9 L506.8,316.1 L508.5,318.0 L510.2,320.2 L512.5,324.6 L513.5,326.8 L516.8,329.7 L517.1,331.9 L520.1,334.1 L521.7,336.3 L522.4,338.5 L525.0,340.7 L526.7,342.9 L528.3,345.5 L530.0,347.7" fill="none" stroke="#1f77b4" stroke-width="1.7" opacity="0.85"/><circle cx="530" cy="348" r="4.5" fill="#1f77b4"/><text x="28" y="572" font-size="11" fill="#888">ground track — m from pad (N up)</text><rect x="580" y="40" width="540" height="540" fill="#fbfbfb" stroke="#ddd"/><text x="586" y="54" fill="#1f77b4" font-size="11">alt 157</text><text x="586" y="558" fill="#1f77b4" font-size="11">-54</text><path d="M681.6,418.4 L682.3,418.8 L683.0,417.9 L684.1,417.5 L684.8,416.5 L685.5,416.4 L686.2,414.8 L686.9,415.0 L687.6,411.7 L688.3,411.3 L689.0,408.2 L689.6,409.9 L690.4,407.5 L691.0,403.6 L691.8,400.6 L692.5,399.9 L693.1,395.4 L693.8,392.0 L694.5,392.8 L695.2,386.9 L695.9,381.5 L696.6,383.3 L697.4,381.9 L698.1,371.9 L698.7,368.9 L699.4,364.9 L700.1,369.5 L700.8,355.8 L701.5,355.5 L702.2,345.1 L702.9,351.5 L703.6,346.6 L704.3,331.7 L705.0,339.4 L705.7,329.3 L706.4,321.0 L707.1,323.9 L707.8,319.1 L708.5,305.1 L709.2,296.2 L709.9,308.1 L710.6,302.5 L711.3,300.3 L712.0,288.1 L712.7,266.9 L713.4,260.4 L714.1,271.4 L714.8,255.4 L715.5,257.7 L716.2,242.8 L716.9,265.2 L717.6,250.1 L718.3,227.4 L719.0,253.3 L719.7,220.4 L720.4,237.7 L721.1,240.7 L721.8,214.4 L722.5,238.1 L723.2,217.8 L723.9,214.0 L724.6,199.5 L725.3,210.5 L726.0,190.6 L726.7,211.4 L727.4,187.6 L728.1,173.0 L728.8,172.9 L729.5,176.0 L730.2,206.9 L730.9,192.7 L731.6,196.3 L732.3,172.7 L733.0,179.4 L733.8,151.3 L734.4,165.0 L735.2,156.0 L735.8,172.0 L736.5,178.7 L737.2,179.3 L738.0,128.1 L738.6,148.0 L739.3,171.2 L740.0,167.4 L740.7,155.1 L741.4,155.0 L742.1,148.1 L742.8,115.4 L743.5,110.2 L744.2,137.2 L744.9,158.2 L745.6,147.8 L746.3,120.2 L747.0,144.5 L747.7,121.9 L748.4,103.5 L749.1,116.4 L749.8,106.2 L750.5,145.9 L751.2,140.6 L751.9,109.9 L752.7,148.4 L753.4,140.8 L754.1,139.4 L754.8,134.5 L755.5,107.9 L756.2,96.2 L756.9,133.3 L757.6,116.2 L758.3,123.4 L759.0,132.7 L759.7,105.7 L760.4,122.3 L761.1,138.9 L761.8,117.7 L762.5,102.6 L763.2,100.9 L763.9,82.2 L764.6,76.6 L765.3,87.4 L765.9,108.8 L766.7,86.2 L767.4,95.1 L768.1,81.4 L768.8,122.2 L769.5,99.0 L770.2,76.0 L770.9,80.1 L771.6,126.6 L772.3,110.2 L773.0,99.7 L773.7,105.6 L774.4,124.6 L775.1,119.0 L775.8,111.6 L776.5,107.7 L777.2,126.8 L777.9,109.2 L778.6,117.5 L779.3,101.4 L780.0,104.1 L781.1,86.5 L781.7,99.9 L782.4,84.3 L783.1,89.0 L783.8,139.2 L784.5,125.7 L785.2,140.0 L785.9,124.9 L786.6,104.3 L787.3,125.5 L788.0,112.0 L788.7,143.8 L789.4,117.8 L790.1,90.7 L790.8,132.1 L791.6,135.5 L792.2,119.2 L792.9,105.8 L793.6,127.7 L794.3,115.5 L795.0,132.4 L795.8,126.4 L796.4,136.8 L797.1,134.7 L797.9,119.7 L798.5,118.1 L799.2,109.7 L799.9,98.1 L800.6,119.5 L801.3,97.7 L802.0,95.8 L802.7,126.8 L803.4,128.8 L804.1,146.8 L804.8,102.1 L805.5,92.7 L806.2,132.4 L806.9,95.4 L807.6,95.0 L808.3,136.2 L809.0,130.0 L809.8,142.6 L810.5,144.8 L811.2,140.8 L811.9,143.2 L812.6,131.2 L813.3,134.4 L814.0,135.0 L814.7,101.3 L815.4,116.3 L816.1,116.5 L816.8,112.6 L817.5,153.0 L818.2,135.5 L818.9,120.2 L819.6,144.2 L820.3,159.7 L821.0,120.1 L821.7,116.2 L822.4,117.7 L823.1,120.0 L824.5,106.3 L825.2,152.2 L825.9,129.0 L826.6,144.5 L827.3,128.4 L828.0,148.5 L828.7,137.2 L829.4,152.9 L830.1,162.4 L830.8,149.6 L831.5,143.1 L832.2,155.0 L832.9,159.4 L833.6,143.3 L834.3,137.3 L835.0,120.0 L835.7,157.9 L836.4,139.0 L837.1,120.0 L837.8,168.7 L839.2,137.3 L839.9,133.7 L840.6,143.3 L841.3,161.2 L842.0,172.4 L842.7,154.8 L843.4,129.0 L844.1,152.7 L844.8,170.3 L845.5,175.8 L846.2,161.5 L846.9,135.8 L847.6,179.7 L848.3,153.1 L849.0,131.9 L849.7,130.5 L850.4,164.1 L851.1,139.6 L851.8,168.4 L852.5,164.0 L853.9,172.5 L854.6,147.3 L855.3,146.8 L856.0,145.0 L856.7,161.4 L857.4,171.3 L858.1,148.9 L858.8,158.3 L859.5,154.9 L860.2,191.6 L860.9,189.2 L861.6,174.8 L862.3,186.5 L863.0,194.6 L863.7,176.0 L864.4,172.2 L865.1,149.0 L865.8,176.7 L866.5,153.7 L867.2,151.7 L868.6,161.3 L869.3,170.4 L870.0,182.3 L870.7,178.6 L871.4,199.5 L872.1,201.5 L872.8,159.5 L873.5,164.6 L874.2,184.7 L874.9,200.2 L875.6,164.7 L876.3,163.7 L877.0,177.5 L877.7,203.7 L878.4,170.1 L879.1,191.7 L879.8,209.6 L880.5,192.3 L881.2,212.8 L881.9,173.0 L883.3,197.7 L884.0,186.9 L884.7,203.3 L885.4,195.3 L886.1,195.6 L886.8,196.1 L887.5,182.8 L888.2,222.0 L888.9,222.4 L889.6,191.1 L890.3,196.2 L891.0,220.6 L891.7,189.7 L892.4,187.7 L893.1,202.5 L893.8,216.8 L894.5,222.4 L895.2,197.0 L895.9,215.3 L896.6,207.7 L897.3,217.4 L898.1,222.8 L898.8,230.3 L899.5,223.3 L900.2,236.6 L900.9,228.1 L901.6,233.9 L902.3,211.5 L903.0,216.4 L903.7,211.0 L904.4,223.2 L905.1,206.1 L905.8,220.9 L906.5,238.0 L907.2,218.9 L907.9,222.2 L908.6,226.3 L909.3,246.7 L910.0,243.5 L910.7,227.4 L911.4,232.9 L912.9,217.0 L913.5,227.8 L914.2,251.8 L914.9,256.2 L915.6,248.9 L916.3,239.5 L917.0,250.6 L917.7,229.2 L918.4,244.5 L919.2,229.9 L919.8,237.7 L920.6,258.6 L921.2,254.7 L921.9,242.0 L922.6,241.8 L923.3,253.7 L924.0,236.1 L924.7,255.7 L925.4,255.1 L926.1,255.5 L926.8,264.9 L927.7,250.2 L928.4,245.7 L929.1,261.6 L929.8,252.9 L930.5,265.1 L931.2,277.3 L931.9,256.4 L932.6,263.7 L933.3,258.0 L934.0,252.1 L934.7,278.2 L935.4,284.2 L936.2,282.2 L936.8,276.3 L937.5,278.5 L938.2,269.2 L938.9,270.1 L939.6,272.8 L940.3,279.0 L941.1,265.0 L943.0,283.3 L943.6,274.9 L944.3,271.8 L945.0,277.1 L945.7,288.5 L946.6,282.5 L947.3,299.5 L948.0,289.9 L948.7,298.0 L949.4,293.6 L950.1,297.2 L950.8,291.2 L951.5,293.8 L952.2,300.8 L952.9,309.7 L953.6,309.4 L954.3,290.3 L955.0,312.7 L955.7,296.1 L956.4,302.1 L958.3,307.8 L958.9,319.0 L959.6,302.9 L960.3,301.0 L961.0,321.3 L961.7,312.7 L962.4,317.8 L963.1,320.8 L963.8,321.3 L964.5,311.1 L965.2,324.6 L965.9,315.3 L966.7,316.6 L967.3,331.5 L968.1,322.5 L968.8,320.5 L969.5,332.2 L970.2,332.8 L970.9,330.8 L971.6,337.1 L973.6,326.6 L974.3,331.7 L975.0,327.2 L975.7,339.1 L976.4,342.9 L977.1,331.4 L977.8,345.8 L978.6,342.6 L979.2,341.7 L979.9,348.1 L980.6,347.8 L981.3,351.1 L982.1,352.7 L982.7,345.5 L983.4,357.9 L984.1,350.1 L984.8,357.1 L985.5,352.5 L986.2,352.3 L986.9,356.6 L987.6,356.1 L989.0,364.7 L989.7,361.4 L990.4,367.2 L991.1,365.1 L991.8,360.8 L992.5,362.6 L993.2,368.3 L993.9,368.3 L994.6,368.5 L995.3,370.5 L996.0,371.8 L996.7,371.1 L997.4,380.2 L998.1,377.1 L998.8,379.8 L999.5,378.1 L1000.2,380.3 L1000.9,379.0 L1001.6,387.4 L1002.3,387.7 L1004.3,386.0 L1004.9,391.1 L1005.6,393.9 L1006.3,391.7 L1007.0,396.4 L1007.7,396.3 L1008.4,397.7 L1009.1,397.6 L1009.8,397.0 L1010.5,399.2 L1011.2,401.7 L1011.9,404.8 L1012.6,403.2 L1013.3,404.7 L1014.0,407.3 L1014.7,409.3 L1015.4,410.8 L1016.1,411.3 L1016.8,411.0 L1017.5,414.1 L1018.2,414.6 L1019.7,417.7 L1020.3,418.6 L1021.0,419.9 L1021.8,421.9 L1022.4,422.9 L1023.1,424.3 L1023.8,425.3 L1024.5,427.7 L1025.3,428.9 L1025.9,430.6 L1026.6,430.8 L1027.3,433.5 L1028.0,434.4 L1028.8,434.8 L1029.4,436.3 L1030.1,437.6 L1030.8,438.8 L1031.5,438.7 L1032.3,443.1 L1032.9,442.4 L1033.6,443.4 L1035.1,444.6 L1035.7,447.0 L1036.4,447.0 L1037.2,452.8 L1037.8,451.6 L1038.6,451.5 L1039.2,454.5 L1039.9,453.1 L1040.6,456.0 L1041.3,455.4 L1042.0,456.9 L1042.7,464.1 L1043.5,460.9 L1044.1,466.9 L1044.9,466.2 L1045.5,463.1 L1046.2,463.3 L1046.9,464.8 L1047.6,469.5 L1048.4,469.0 L1050.4,480.3 L1051.1,475.4 L1051.8,474.5 L1052.5,481.2 L1053.2,485.2 L1053.9,487.7 L1054.6,485.9 L1055.3,488.5 L1056.0,492.0 L1056.7,490.7 L1057.4,492.6 L1058.1,495.6 L1058.8,485.8 L1059.5,498.7 L1060.2,494.1 L1060.9,499.6 L1061.6,490.4 L1062.3,494.4 L1063.0,505.5 L1063.7,501.9 L1066.2,506.8 L1067.5,514.1 L1068.2,506.3 L1068.9,517.8 L1069.6,518.8 L1070.3,508.6 L1071.0,505.2 L1071.7,518.2 L1072.4,513.5 L1073.1,523.2 L1073.8,528.3 L1074.5,524.1 L1075.2,525.4 L1075.9,524.6 L1076.6,516.6 L1077.3,515.5 L1078.0,528.4 L1078.7,523.5 L1079.4,518.9 L1080.1,526.3 L1080.8,529.3 L1082.6,542.6 L1083.3,544.0 L1084.0,532.2" fill="none" stroke="#1f77b4" stroke-width="1.4" opacity="0.85"/><text x="1040" y="54" fill="#ff7f0e" font-size="11">roll 18</text><text x="1090" y="558" fill="#ff7f0e" font-size="11">-18</text><path d="M681.6,309.4 L682.3,311.9 L683.0,309.4 L684.1,309.4 L684.8,310.6 L685.5,309.4 L686.2,309.4 L686.9,310.6 L687.6,310.6 L688.3,310.6 L689.0,308.1 L689.6,308.1 L690.4,309.4 L691.0,309.4 L691.8,308.1 L692.5,306.8 L693.1,306.8 L693.8,305.6 L694.5,304.3 L695.2,304.3 L695.9,304.3 L696.6,303.0 L697.4,301.8 L698.1,300.5 L698.7,299.2 L699.4,301.8 L700.1,299.2 L700.8,299.2 L701.5,295.4 L702.2,299.2 L702.9,298.0 L703.6,294.1 L704.3,295.4 L705.0,294.1 L705.7,292.9 L706.4,291.6 L707.1,286.5 L707.8,285.3 L708.5,289.1 L709.2,287.8 L709.9,286.5 L710.6,286.5 L711.3,278.9 L712.0,278.9 L712.7,281.5 L713.4,284.0 L714.1,278.9 L714.8,280.2 L715.5,282.7 L716.2,281.5 L716.9,275.1 L717.6,275.1 L718.3,272.6 L719.0,278.9 L719.7,272.6 L720.4,272.6 L721.1,271.3 L721.8,275.1 L722.5,270.0 L723.2,272.6 L723.9,270.0 L724.6,272.6 L725.3,272.6 L726.0,270.0 L726.7,276.4 L727.4,270.0 L728.1,277.7 L728.8,272.6 L729.5,271.3 L730.2,268.8 L730.9,275.1 L731.6,276.4 L732.3,271.3 L733.0,268.8 L733.8,273.9 L734.4,277.7 L735.2,275.1 L735.8,271.3 L736.5,276.4 L737.2,271.3 L738.0,275.1 L738.6,272.6 L739.3,275.1 L740.0,271.3 L740.7,275.1 L741.4,270.0 L742.1,268.8 L742.8,271.3 L743.5,266.2 L744.2,267.5 L744.9,270.0 L745.6,275.1 L746.3,266.2 L747.0,267.5 L747.7,268.8 L748.4,268.8 L749.1,271.3 L749.8,270.0 L750.5,265.0 L751.2,270.0 L751.9,268.8 L752.7,266.2 L753.4,266.2 L754.1,261.2 L754.8,271.3 L755.5,262.4 L756.2,266.2 L756.9,268.8 L757.6,270.0 L758.3,266.2 L759.0,263.7 L759.7,259.9 L760.4,267.5 L761.1,265.0 L761.8,257.4 L762.5,265.0 L763.2,262.4 L763.9,266.2 L764.6,257.4 L765.3,266.2 L765.9,305.6 L766.7,272.6 L767.4,243.4 L768.1,218.0 L768.8,196.5 L769.5,169.9 L770.2,177.5 L770.9,153.4 L771.6,157.2 L772.3,121.7 L773.0,119.1 L773.7,134.3 L774.4,135.6 L775.1,116.6 L775.8,101.4 L776.5,97.6 L777.2,95.0 L777.9,110.2 L778.6,109.0 L779.3,120.4 L780.0,120.4 L781.1,105.2 L781.7,77.3 L782.4,106.4 L783.1,128.0 L783.8,107.7 L784.5,139.4 L785.2,139.4 L785.9,111.5 L786.6,150.8 L787.3,131.8 L788.0,129.3 L788.7,155.9 L789.4,147.0 L790.1,171.1 L790.8,144.5 L791.6,176.2 L792.2,176.2 L792.9,166.0 L793.6,157.2 L794.3,181.3 L795.0,169.9 L795.8,173.7 L796.4,178.7 L797.1,180.0 L797.9,204.1 L798.5,197.8 L799.2,225.7 L799.9,218.0 L800.6,215.5 L801.3,206.6 L802.0,216.8 L802.7,213.0 L803.4,210.4 L804.1,218.0 L804.8,233.3 L805.5,218.0 L806.2,235.8 L806.9,239.6 L807.6,242.1 L808.3,258.6 L809.0,254.8 L809.8,273.9 L810.5,273.9 L811.2,267.5 L811.9,258.6 L812.6,266.2 L813.3,276.4 L814.0,319.5 L814.7,338.5 L815.4,376.6 L816.1,388.0 L816.8,415.9 L817.5,446.3 L818.2,446.3 L818.9,480.6 L819.6,488.2 L820.3,498.3 L821.0,485.7 L821.7,486.9 L822.4,506.0 L823.1,489.5 L824.5,517.4 L825.2,523.7 L825.9,521.2 L826.6,531.3 L827.3,528.8 L828.0,507.2 L828.7,511.0 L829.4,527.5 L830.1,498.3 L830.8,527.5 L831.5,514.8 L832.2,500.9 L832.9,533.9 L833.6,516.1 L834.3,528.8 L835.0,498.3 L835.7,518.6 L836.4,536.4 L837.1,517.4 L837.8,517.4 L839.2,527.5 L839.9,504.7 L840.6,497.1 L841.3,527.5 L842.0,500.9 L842.7,519.9 L843.4,528.8 L844.1,535.1 L844.8,503.4 L845.5,537.7 L846.2,530.0 L846.9,504.7 L847.6,536.4 L848.3,528.8 L849.0,530.0 L849.7,522.4 L850.4,519.9 L851.1,531.3 L851.8,531.3 L852.5,495.8 L853.9,517.4 L854.6,511.0 L855.3,512.3 L856.0,500.9 L856.7,526.2 L857.4,519.9 L858.1,528.8 L858.8,533.9 L859.5,495.8 L860.2,541.5 L860.9,518.6 L861.6,503.4 L862.3,542.7 L863.0,514.8 L863.7,504.7 L864.4,533.9 L865.1,544.0 L865.8,516.1 L866.5,522.4 L867.2,518.6 L868.6,494.5 L869.3,513.6 L870.0,530.0 L870.7,502.1 L871.4,499.6 L872.1,525.0 L872.8,532.6 L873.5,507.2 L874.2,498.3 L874.9,497.1 L875.6,503.4 L876.3,507.2 L877.0,506.0 L877.7,497.1 L878.4,433.7 L879.1,402.0 L879.8,360.1 L880.5,327.1 L881.2,313.2 L881.9,285.3 L883.3,232.0 L884.0,199.0 L884.7,201.6 L885.4,166.0 L886.1,144.5 L886.8,147.0 L887.5,125.5 L888.2,145.8 L888.9,116.6 L889.6,112.8 L890.3,134.3 L891.0,103.9 L891.7,92.5 L892.4,110.2 L893.1,91.2 L893.8,100.1 L894.5,97.6 L895.2,121.7 L895.9,98.8 L896.6,125.5 L897.3,110.2 L898.1,112.8 L898.8,76.0 L899.5,115.3 L900.2,95.0 L900.9,117.9 L901.6,92.5 L902.3,111.5 L903.0,111.5 L903.7,120.4 L904.4,106.4 L905.1,122.9 L905.8,124.2 L906.5,120.4 L907.2,106.4 L907.9,109.0 L908.6,87.4 L909.3,87.4 L910.0,88.7 L910.7,100.1 L911.4,83.6 L912.9,122.9 L913.5,110.2 L914.2,92.5 L914.9,117.9 L915.6,83.6 L916.3,110.2 L917.0,119.1 L917.7,119.1 L918.4,78.5 L919.2,121.7 L919.8,111.5 L920.6,103.9 L921.2,86.1 L921.9,121.7 L922.6,88.7 L923.3,114.0 L924.0,86.1 L924.7,84.9 L925.4,90.0 L926.1,92.5 L926.8,105.2 L927.7,78.5 L928.4,103.9 L929.1,106.4 L929.8,117.9 L930.5,117.9 L931.2,110.2 L931.9,95.0 L932.6,97.6 L933.3,100.1 L934.0,117.9 L934.7,111.5 L935.4,114.0 L936.2,83.6 L936.8,110.2 L937.5,97.6 L938.2,110.2 L938.9,102.6 L939.6,82.3 L940.3,106.4 L941.1,84.9 L943.0,128.0 L943.6,117.9 L944.3,110.2 L945.0,91.2 L945.7,124.2 L946.6,105.2 L947.3,93.8 L948.0,100.1 L948.7,121.7 L949.4,96.3 L950.1,83.6 L950.8,109.0 L951.5,125.5 L952.2,102.6 L952.9,81.1 L953.6,114.0 L954.3,90.0 L955.0,79.8 L955.7,87.4 L956.4,121.7 L958.3,87.4 L958.9,107.7 L959.6,111.5 L960.3,121.7 L961.0,101.4 L961.7,87.4 L962.4,87.4 L963.1,106.4 L963.8,93.8 L964.5,82.3 L965.2,91.2 L965.9,92.5 L966.7,91.2 L967.3,84.9 L968.1,111.5 L968.8,93.8 L969.5,111.5 L970.2,126.7 L970.9,87.4 L971.6,93.8 L973.6,98.8 L974.3,90.0 L975.0,120.4 L975.7,117.9 L976.4,96.3 L977.1,122.9 L977.8,115.3 L978.6,93.8 L979.2,100.1 L979.9,126.7 L980.6,125.5 L981.3,93.8 L982.1,116.6 L982.7,84.9 L983.4,90.0 L984.1,93.8 L984.8,114.0 L985.5,110.2 L986.2,106.4 L986.9,119.1 L987.6,106.4 L989.0,110.2 L989.7,96.3 L990.4,111.5 L991.1,93.8 L991.8,86.1 L992.5,120.4 L993.2,103.9 L993.9,88.7 L994.6,115.3 L995.3,92.5 L996.0,102.6 L996.7,97.6 L997.4,86.1 L998.1,119.1 L998.8,95.0 L999.5,109.0 L1000.2,116.6 L1000.9,112.8 L1001.6,101.4 L1002.3,109.0 L1004.3,109.0 L1004.9,83.6 L1005.6,91.2 L1006.3,122.9 L1007.0,84.9 L1007.7,100.1 L1008.4,90.0 L1009.1,110.2 L1009.8,92.5 L1010.5,91.2 L1011.2,98.8 L1011.9,101.4 L1012.6,111.5 L1013.3,110.2 L1014.0,100.1 L1014.7,120.4 L1015.4,96.3 L1016.1,114.0 L1016.8,133.1 L1017.5,140.7 L1018.2,143.2 L1019.7,181.3 L1020.3,213.0 L1021.0,207.9 L1021.8,237.1 L1022.4,235.8 L1023.1,252.3 L1023.8,266.2 L1024.5,261.2 L1025.3,263.7 L1025.9,259.9 L1026.6,258.6 L1027.3,263.7 L1028.0,265.0 L1028.8,256.1 L1029.4,252.3 L1030.1,272.6 L1030.8,261.2 L1031.5,258.6 L1032.3,252.3 L1032.9,270.0 L1033.6,261.2 L1035.1,224.4 L1035.7,249.8 L1036.4,267.5 L1037.2,262.4 L1037.8,277.7 L1038.6,291.6 L1039.2,309.4 L1039.9,325.9 L1040.6,322.0 L1041.3,320.8 L1042.0,300.5 L1042.7,315.7 L1043.5,315.7 L1044.1,323.3 L1044.9,319.5 L1045.5,310.6 L1046.2,305.6 L1046.9,306.8 L1047.6,304.3 L1048.4,290.3 L1050.4,342.3 L1051.1,329.7 L1051.8,330.9 L1052.5,325.9 L1053.2,334.7 L1053.9,322.0 L1054.6,310.6 L1055.3,304.3 L1056.0,308.1 L1056.7,306.8 L1057.4,292.9 L1058.1,303.0 L1058.8,305.6 L1059.5,337.3 L1060.2,360.1 L1060.9,352.5 L1061.6,356.3 L1062.3,382.9 L1063.0,377.9 L1063.7,412.1 L1066.2,376.6 L1067.5,367.7 L1068.2,358.8 L1068.9,358.8 L1069.6,351.2 L1070.3,347.4 L1071.0,343.6 L1071.7,343.6 L1072.4,336.0 L1073.1,332.2 L1073.8,333.5 L1074.5,333.5 L1075.2,329.7 L1075.9,327.1 L1076.6,324.6 L1077.3,322.0 L1078.0,322.0 L1078.7,322.0 L1079.4,319.5 L1080.1,318.2 L1080.8,319.5 L1082.6,315.7 L1083.3,314.4 L1084.0,315.7" fill="none" stroke="#ff7f0e" stroke-width="1.1" opacity="0.85"/><text x="616" y="572" font-size="11" fill="#888">time 0..33 s — altitude (blue) &amp; roll (orange)</text></svg>