<svg xmlns="http://www.w3.org/2000/svg" width="1140" height="600" font-family="sans-serif" font-size="13"><rect width="1140" height="600" fill="white"/><text x="20" y="26" font-size="15" fill="#333">Coludo flight</text><rect x="20" y="40" width="540" height="540" fill="#fbfbfb" stroke="#ddd"/><rect x="50" y="309" width="140" height="30" fill="#cde" stroke="#369" opacity="0.7"/><text x="50" y="304" fill="#369" font-size="12">landing zone</text><circle cx="139" cy="357" r="5" fill="black"/><text x="147" y="361" font-size="12">pad</text><path d="M139.2,356.4 L139.2,356.4 L139.2,356.4 L139.2,356.4 L139.2,356.4 L139.2,356.4 L139.2,356.4 L139.2,356.4 L139.2,356.4 L139.2,356.4 L139.2,356.4 L139.2,356.4 L139.2,356.4 L139.2,356.4 L139.2,356.4 L139.2,356.4 L139.2,356.4 L139.2,356.4 L139.2,356.4 L139.2,356.4 L139.2,356.4 L139.2,356.4 L139.2,356.4 L139.2,356.4 L139.2,356.4 L139.2,356.4 L139.2,356.4 L139.2,356.4 L139.2,356.4 L139.2,356.4 L139.2,356.4 L139.2,356.4 L139.2,356.4 L139.2,356.4 L139.2,356.4 L139.2,356.4 L139.2,356.4 L139.2,356.4 L139.2,356.4 L139.2,356.4 L139.2,356.4 L139.2,356.4 L139.2,356.4 L139.2,356.4 L139.2,356.4 L139.2,356.4 L139.2,356.4 L139.2,356.4 L139.2,356.4 L139.2,356.4 L139.2,356.4 L139.2,356.4 L139.2,356.4 L139.2,356.4 L139.2,356.4 L139.6,355.6 L139.9,354.9 L140.7,353.8 L141.4,352.7 L142.0,351.9 L142.2,350.7 L142.9,349.9 L144.4,348.9 L144.4,348.1 L145.2,347.1 L145.9,346.2 L146.7,345.4 L147.4,344.6 L148.2,343.9 L149.3,342.9 L149.7,342.1 L151.2,341.4 L151.7,340.5 L152.7,339.7 L153.5,339.0 L154.1,338.4 L155.0,337.5 L155.7,336.9 L157.1,336.0 L157.3,335.2 L158.8,334.5 L158.9,333.7 L160.3,332.7 L161.0,331.9 L161.3,330.9 L162.5,330.0 L163.3,328.8 L163.7,328.0 L164.0,327.0 L164.8,326.2 L165.5,325.0 L166.3,324.2 L166.8,323.0 L167.1,322.0 L167.8,321.2 L168.6,320.0 L168.6,319.0 L169.2,317.8 L169.3,316.8 L169.3,315.6 L170.1,314.5 L170.1,313.5 L170.8,312.3 L170.8,311.0 L170.8,310.0 L171.0,308.8 L171.0,307.5 L171.0,306.6 L171.0,305.3 L171.6,304.1 L171.6,302.9 L171.6,301.9 L172.3,300.6 L172.3,299.8 L172.3,298.4 L173.1,297.4 L173.1,296.3 L173.4,295.2 L173.8,293.9 L173.8,292.9 L174.6,291.9 L175.4,290.6 L175.8,289.2 L176.1,288.2 L176.9,287.1 L177.6,286.2 L178.4,285.1 L178.5,284.2 L179.1,283.2 L179.9,282.4 L180.6,281.5 L181.4,280.4 L182.1,279.7 L182.9,278.7 L183.7,278.0 L184.4,277.0 L185.2,276.4 L185.9,275.5 L186.7,274.9 L188.2,274.0 L188.9,273.2 L189.7,272.7 L190.6,272.0 L191.9,271.2 L192.7,270.7 L193.5,270.2 L195.0,269.5 L195.1,269.0 L196.5,268.5 L197.5,268.0 L198.7,267.5 L200.2,267.0 L201.0,266.7 L201.8,266.2 L202.7,266.0 L204.0,265.7 L205.1,265.2 L206.3,265.0 L207.2,264.7 L208.5,264.3 L209.6,264.2 L210.8,264.0 L212.3,263.8 L213.1,263.7 L214.6,263.7 L215.3,263.5 L216.8,263.5 L217.6,263.5 L219.1,263.5 L219.9,263.5 L221.4,263.7 L222.6,263.8 L223.6,263.8 L225.0,264.2 L225.9,264.3 L227.1,264.5 L228.2,264.8 L228.9,265.2 L229.7,265.5 L231.2,265.8 L231.9,266.2 L233.4,266.5 L234.0,266.8 L235.7,267.3 L237.1,267.8 L237.2,268.3 L238.7,269.0 L239.5,269.5 L241.0,270.0 L241.6,270.5 L242.5,271.3 L244.0,271.8 L244.0,272.7 L245.5,273.2 L246.4,274.0 L247.0,274.7 L248.5,275.5 L249.1,276.4 L250.0,277.0 L250.8,277.9 L250.9,278.7 L252.3,279.5 L253.0,280.4 L253.9,281.4 L254.6,282.4 L255.3,283.2 L256.1,284.2 L256.1,285.1 L256.8,286.2 L257.6,287.1 L258.3,288.2 L259.1,290.2 L259.1,291.2 L259.8,292.2 L260.6,293.4 L260.9,294.2 L260.9,295.6 L261.3,296.6 L262.1,297.6 L262.1,298.8 L262.8,299.9 L263.0,300.8 L263.0,302.1 L263.6,303.3 L264.4,304.3 L264.4,305.4 L265.1,306.4 L265.4,307.6 L265.4,308.6 L265.9,310.0 L266.6,311.8 L267.4,313.1 L267.4,314.3 L268.1,315.1 L268.7,316.5 L268.7,317.5 L268.9,318.6 L269.6,319.8 L269.6,320.8 L270.5,323.7 L271.1,324.7 L271.9,325.8 L272.7,326.8 L273.0,328.0 L273.0,328.8 L273.4,330.0 L274.2,331.0 L274.9,332.0 L276.4,334.5 L277.2,335.5 L278.4,336.4 L278.7,337.4 L279.4,338.2 L280.8,339.0 L280.9,340.0 L281.7,340.9 L282.9,341.7 L283.2,342.4 L285.3,343.9 L285.5,344.6 L287.0,345.4 L287.7,345.9 L288.5,346.6 L290.0,347.1 L290.8,347.9 L292.3,348.4 L292.9,348.7 L295.3,350.2 L296.8,350.6 L297.5,351.1 L299.1,351.4 L300.1,351.7 L301.3,351.9 L302.5,352.2 L303.6,352.2 L304.9,352.4 L307.3,352.7 L308.9,352.7 L309.6,352.7 L311.1,352.7 L312.2,352.7 L313.4,352.6 L314.6,352.6 L315.6,352.4 L317.0,352.2 L320.2,351.7 L321.7,351.4 L322.4,351.2 L323.9,350.7 L324.2,350.6 L326.2,350.1 L326.7,349.7 L327.7,349.2 L329.1,348.9 L331.5,347.7 L333.0,347.2 L333.9,346.7 L335.3,346.1 L336.0,345.6 L336.8,345.1 L338.3,344.4 L339.0,343.9 L339.8,343.1 L342.8,341.5 L343.6,340.9 L344.3,340.2 L345.8,339.5 L346.6,338.9 L347.3,338.4 L348.4,337.7 L349.6,337.0 L350.3,336.2 L353.2,334.5 L353.4,333.9 L354.9,333.2 L355.6,332.5 L356.4,331.7 L357.9,331.2 L358.6,330.5 L360.1,329.8 L360.4,329.2 L363.2,327.5 L364.7,326.8 L365.3,326.3 L366.2,325.7 L367.7,325.2 L368.4,324.7 L369.2,324.2 L370.1,323.7 L371.5,323.2 L372.5,322.7 L374.5,321.8 L375.2,321.5 L376.7,321.2 L377.9,320.8 L379.0,320.3 L380.4,320.0 L381.3,319.7 L382.2,319.3 L383.5,319.2 L386.5,318.5 L387.3,318.3 L388.8,318.1 L389.7,317.8 L391.1,317.8 L392.4,317.6 L393.3,317.6 L394.2,317.5 L395.6,317.5 L398.6,317.3 L400.1,317.3 L401.6,317.3 L402.4,317.3 L403.9,317.5 L404.6,317.5 L406.2,317.6 L406.9,317.6 L408.4,317.8 L411.4,318.5 L412.2,318.6 L413.7,319.0 L414.5,319.3 L416.0,319.7 L416.7,320.0 L418.2,320.3 L419.0,320.7 L420.5,321.0 L423.5,321.8 L424.3,322.2 L425.8,322.5 L426.5,322.8 L428.0,323.0 L428.8,323.3 L430.3,323.7 L431.0,324.0 L432.6,324.3 L433.3,324.7 L435.6,325.0 L436.3,325.3 L437.8,325.7 L438.6,325.8 L440.1,326.0 L440.8,326.3 L442.4,326.5 L443.1,326.7 L444.6,327.0 L447.6,327.5 L448.4,327.7 L450.1,327.8 L450.7,328.0 L452.8,328.0 L452.9,328.2 L455.2,328.2 L455.2,328.3 L457.4,328.3 L460.3,328.5 L461.2,328.7 L462.1,328.7 L463.5,328.7 L465.1,328.8 L465.7,328.8 L467.2,328.8 L468.0,328.8 L469.5,328.8 L472.5,328.7 L474.0,328.7 L474.8,328.5 L476.3,328.5 L477.1,328.3 L478.6,328.3 L479.9,328.3 L480.8,328.2 L481.7,328.0 L484.6,328.0 L486.6,327.8 L487.6,327.7 L489.1,327.7 L489.9,327.5 L491.4,327.3 L492.1,327.0 L493.6,326.8 L494.4,326.7 L497.4,326.2 L498.6,326.0 L499.7,325.8 L501.2,325.5 L501.9,325.3 L503.5,325.2 L504.2,325.0 L505.7,324.8 L506.5,324.7 L510.2,324.5 L511.3,324.3 L512.5,324.3 L513.7,324.2 L514.8,324.2 L516.1,324.0 L517.9,324.0 L519.3,323.8 L523.1,323.8 L523.8,324.0 L525.3,324.0 L526.1,324.0 L527.6,324.0 L528.3,324.0 L530.0,324.2" fill="none" stroke="#1f77b4" stroke-width="1.7" opacity="0.85"/><circle cx="530" cy="324" r="4.5" fill="#1f77b4"/><text x="28" y="572" font-size="11" fill="#888">ground track — m from pad (N up)</text><rect x="580" y="40" width="540" height="540" fill="#fbfbfb" stroke="#ddd"/><text x="586" y="54" fill="#1f77b4" font-size="11">alt 195</text><text x="586" y="558" fill="#1f77b4" font-size="11">-100</text><path d="M1040.4,384.4 L1040.4,380.6 L1040.5,384.1 L1040.5,384.0 L1040.6,382.6 L1040.6,380.9 L1040.6,380.9 L1040.7,381.1 L1040.7,378.5 L1040.7,377.4 L1040.8,378.2 L1040.8,376.9 L1040.8,378.8 L1040.9,380.8 L1040.9,367.0 L1040.9,364.5 L1041.0,376.7 L1041.0,367.6 L1041.1,373.5 L1041.1,355.8 L1041.1,375.4 L1041.2,373.8 L1041.2,364.6 L1041.2,362.2 L1041.3,347.2 L1041.3,368.8 L1041.3,354.2 L1041.4,351.9 L1041.4,366.9 L1041.4,347.2 L1041.5,363.7 L1041.5,337.9 L1041.6,321.7 L1041.6,347.3 L1041.6,318.4 L1041.7,325.0 L1041.7,312.3 L1041.7,310.5 L1041.8,296.1 L1041.8,349.1 L1041.8,328.0 L1041.9,301.5 L1041.9,337.2 L1041.9,320.5 L1042.0,282.0 L1042.0,307.1 L1042.1,296.2 L1042.1,279.8 L1042.1,260.9 L1042.2,247.4 L1042.2,258.1 L1042.2,251.9 L1042.3,266.8 L1042.3,332.2 L1042.3,313.7 L1042.4,262.1 L1042.4,260.4 L1042.4,240.4 L1042.5,307.6 L1042.5,281.3 L1042.6,250.7 L1042.6,297.7 L1042.6,250.2 L1042.7,320.1 L1042.7,192.3 L1042.7,236.6 L1042.8,208.0 L1042.8,190.0 L1042.8,237.5 L1042.9,296.3 L1042.9,293.5 L1042.9,287.4 L1043.0,256.2 L1043.0,221.6 L1043.1,205.5 L1043.1,153.5 L1043.1,177.5 L1043.2,207.1 L1043.2,229.5 L1043.2,265.8 L1043.3,287.3 L1043.3,192.8 L1043.3,162.9 L1043.4,216.2 L1043.4,204.1 L1043.4,269.9 L1043.5,286.0 L1043.5,205.3 L1043.5,123.4 L1043.6,144.6 L1043.6,222.8 L1043.7,270.0 L1043.7,142.5 L1043.7,217.8 L1043.8,210.7 L1043.8,265.8 L1043.9,234.8 L1043.9,105.0 L1043.9,216.1 L1044.0,250.4 L1044.0,168.1 L1044.0,237.5 L1044.1,161.5 L1044.1,153.8 L1044.1,220.8 L1044.2,114.1 L1044.2,208.3 L1044.2,110.2 L1044.3,210.3 L1044.3,161.6 L1044.3,153.2 L1044.4,255.8 L1044.4,135.4 L1044.5,252.5 L1044.5,193.5 L1044.5,141.1 L1044.6,260.0 L1044.6,189.9 L1044.6,106.9 L1044.7,260.5 L1044.7,210.3 L1044.8,157.0 L1044.8,193.1 L1044.8,244.7 L1044.9,78.1 L1044.9,115.5 L1044.9,97.4 L1045.0,164.0 L1045.0,78.0 L1045.0,174.3 L1045.1,278.3 L1045.1,80.1 L1045.1,141.5 L1045.2,252.5 L1045.2,238.2 L1045.3,145.4 L1045.3,246.1 L1045.3,140.5 L1045.4,164.8 L1045.4,133.3 L1045.4,158.0 L1045.5,223.1 L1045.5,76.0 L1045.6,266.7 L1045.6,130.8 L1045.6,188.9 L1045.7,183.6 L1045.7,195.8 L1045.7,160.0 L1045.8,111.1 L1045.8,226.4 L1045.8,153.4 L1045.9,245.4 L1045.9,203.2 L1046.0,155.7 L1046.0,221.3 L1046.0,223.0 L1046.1,245.5 L1046.1,206.1 L1046.1,231.6 L1046.2,150.5 L1046.2,241.5 L1046.3,242.4 L1046.3,159.1 L1046.3,279.7 L1046.4,79.7 L1046.4,232.8 L1046.4,179.0 L1046.5,186.1 L1046.5,249.9 L1046.6,146.5 L1046.6,177.3 L1046.6,184.9 L1046.7,90.3 L1046.7,268.6 L1046.7,160.8 L1046.8,137.5 L1046.8,96.0 L1046.8,198.2 L1046.9,152.1 L1046.9,200.6 L1046.9,186.6 L1047.0,135.2 L1047.0,236.7 L1047.1,241.3 L1047.1,175.7 L1047.2,203.2 L1047.2,276.4 L1047.2,149.9 L1047.3,140.5 L1047.3,279.7 L1047.3,251.9 L1047.4,158.7 L1047.4,98.6 L1047.4,210.9 L1047.5,282.3 L1047.5,126.0 L1047.5,134.0 L1047.6,118.5 L1047.6,220.2 L1047.7,199.8 L1047.7,118.5 L1047.7,259.6 L1047.8,268.6 L1047.8,182.6 L1047.8,244.0 L1047.9,234.0 L1047.9,243.5 L1048.0,209.2 L1048.0,110.9 L1048.0,177.6 L1048.1,196.9 L1048.1,227.1 L1048.2,202.9 L1048.2,109.3 L1048.2,213.9 L1048.3,241.4 L1048.3,134.8 L1048.3,195.4 L1048.4,226.3 L1048.4,266.9 L1048.4,169.6 L1048.5,171.9 L1048.5,269.6 L1048.5,117.1 L1048.6,287.2 L1048.6,255.9 L1048.6,276.0 L1048.7,132.2 L1048.7,215.7 L1048.8,214.3 L1048.8,177.8 L1048.9,207.4 L1048.9,268.4 L1048.9,170.6 L1049.0,141.3 L1049.0,138.3 L1049.0,259.7 L1049.1,159.5 L1049.1,222.2 L1049.1,180.1 L1049.2,228.1 L1049.2,286.6 L1049.2,224.8 L1049.3,280.4 L1049.3,188.6 L1049.4,281.1 L1049.4,273.1 L1049.4,234.3 L1049.5,143.6 L1049.5,206.1 L1049.5,155.8 L1049.6,147.1 L1049.6,185.3 L1049.7,124.2 L1049.7,141.9 L1049.7,197.4 L1049.8,264.3 L1049.8,293.9 L1049.9,129.3 L1049.9,235.7 L1049.9,269.0 L1050.0,133.9 L1050.0,292.7 L1050.0,144.0 L1050.1,284.4 L1050.1,130.9 L1050.1,299.1 L1050.2,247.4 L1050.2,188.0 L1050.2,255.8 L1050.3,142.1 L1050.3,230.9 L1050.3,173.5 L1050.4,195.5 L1050.5,294.5 L1050.5,195.6 L1050.5,288.8 L1050.6,228.7 L1050.6,256.9 L1050.6,160.9 L1050.7,228.6 L1050.7,182.9 L1050.7,181.9 L1050.8,196.4 L1050.8,249.6 L1050.8,155.4 L1050.9,217.8 L1050.9,168.8 L1051.0,155.1 L1051.0,276.4 L1051.0,197.1 L1051.1,186.2 L1051.1,195.2 L1051.1,241.7 L1051.2,160.5 L1051.2,162.3 L1051.2,206.1 L1051.3,238.3 L1051.4,261.3 L1051.4,197.9 L1051.4,244.3 L1051.5,206.7 L1051.5,185.5 L1051.6,283.4 L1051.6,309.4 L1051.6,301.8 L1051.7,223.0 L1051.7,210.5 L1051.7,185.5 L1051.8,255.6 L1051.8,239.0 L1051.8,277.3 L1051.9,300.8 L1051.9,172.9 L1051.9,311.4 L1052.0,252.2 L1052.0,208.2 L1052.1,200.0 L1052.1,252.0 L1052.1,217.3 L1052.2,240.5 L1052.3,244.1 L1052.3,242.3 L1052.3,314.2 L1052.4,310.3 L1052.4,267.9 L1052.4,261.2 L1052.5,211.9 L1052.5,256.9 L1052.5,249.3 L1052.6,194.1 L1052.6,315.9 L1052.7,310.0 L1052.7,262.8 L1052.7,210.0 L1052.8,182.4 L1052.8,244.7 L1052.8,186.4 L1052.9,317.7 L1052.9,294.8 L1052.9,216.5 L1053.0,280.9 L1053.0,201.5 L1053.1,246.7 L1053.2,302.0 L1053.2,192.2 L1053.2,287.5 L1053.3,308.1 L1053.3,230.7 L1053.3,240.4 L1053.4,235.9 L1053.4,290.6 L1053.4,286.4 L1053.5,226.6 L1053.5,275.5 L1053.5,210.2 L1053.6,300.7 L1053.6,310.9 L1053.7,285.9 L1053.7,269.1 L1053.7,310.1 L1053.8,231.7 L1053.8,231.6 L1053.8,295.3 L1053.9,301.4 L1053.9,215.8 L1054.0,298.7 L1054.0,218.0 L1054.1,235.3 L1054.1,217.6 L1054.1,255.8 L1054.2,251.2 L1054.2,317.6 L1054.3,301.9 L1054.3,309.6 L1054.3,314.1 L1054.4,293.9 L1054.4,232.2 L1054.4,237.1 L1054.5,330.9 L1054.5,290.0 L1054.5,269.5 L1054.6,316.7 L1054.6,330.5 L1054.6,302.6 L1054.7,258.8 L1054.7,280.5 L1054.8,233.9 L1054.8,267.4 L1054.9,325.3 L1054.9,272.1 L1055.0,332.7 L1055.0,325.9 L1055.0,279.3 L1055.1,299.3 L1055.1,294.9 L1055.1,297.4 L1055.2,274.1 L1055.2,247.3 L1055.3,321.3 L1055.3,318.9 L1055.3,287.8 L1055.4,273.0 L1055.4,331.8 L1055.4,313.2 L1055.5,255.8 L1055.5,331.7 L1055.5,309.1 L1055.6,266.6 L1055.6,315.6 L1055.6,312.9 L1055.7,288.9 L1055.8,288.0 L1055.8,344.0 L1055.9,327.3 L1055.9,313.6 L1055.9,319.7 L1056.0,269.8 L1056.0,345.1 L1056.0,285.0 L1056.1,278.8 L1056.1,338.3 L1056.1,289.3 L1056.2,300.5 L1056.2,284.1 L1056.2,329.9 L1056.3,277.6 L1056.3,282.1 L1056.4,316.4 L1056.4,306.4 L1056.4,296.5 L1056.5,305.7 L1056.5,309.1 L1056.5,298.9 L1056.6,329.2 L1056.7,335.8 L1056.7,294.6 L1056.7,320.7 L1056.8,303.3 L1056.8,293.5 L1056.9,290.6 L1056.9,325.5 L1056.9,328.6 L1057.0,331.0 L1057.0,313.0 L1057.0,302.5 L1057.1,298.9 L1057.1,299.1 L1057.1,300.2 L1057.2,321.2 L1057.2,316.3 L1057.2,334.3 L1057.3,308.7 L1057.3,308.7 L1057.4,333.8 L1057.4,317.2 L1057.4,330.9 L1057.5,329.6 L1057.6,316.0 L1057.6,354.3 L1057.6,338.1 L1057.7,358.6 L1057.7,326.5 L1057.7,339.6 L1057.8,353.2 L1057.8,351.8 L1057.9,336.9 L1057.9,334.9 L1057.9,344.0 L1058.0,360.5 L1058.0,344.4 L1058.0,351.4 L1058.1,361.5 L1058.1,350.7 L1058.1,355.9 L1058.2,361.1 L1058.2,338.6 L1058.2,335.4 L1058.3,348.1 L1058.3,334.8 L1058.4,361.2 L1058.5,358.7 L1058.5,362.4 L1058.5,358.3 L1058.6,342.7 L1058.6,359.7 L1058.6,347.6 L1058.7,366.4 L1058.7,366.5 L1058.7,361.4 L1058.8,357.7 L1058.8,362.2 L1058.9,354.7 L1058.9,351.7 L1058.9,374.1 L1059.0,374.0 L1059.0,369.7 L1059.0,370.7 L1059.1,371.3 L1059.1,376.6 L1059.1,361.1 L1059.2,363.6 L1059.2,372.6 L1059.2,375.0 L1059.3,373.9 L1059.4,373.7 L1059.4,370.1 L1059.5,380.8 L1059.5,374.7 L1059.5,380.9 L1059.6,375.1 L1059.6,375.0 L1059.6,374.7 L1059.7,377.2 L1059.7,376.9 L1059.7,379.9 L1059.8,384.0 L1059.8,380.7 L1059.8,383.0 L1059.9,383.8 L1059.9,385.4 L1060.0,385.2 L1060.0,385.8 L1060.0,386.0 L1060.1,386.8 L1060.1,389.3 L1060.1,388.6 L1060.2,394.4 L1060.3,389.1 L1060.3,389.0 L1060.3,388.9 L1060.4,389.8 L1060.4,391.0 L1060.5,401.5 L1060.5,392.5 L1060.5,397.1 L1060.6,399.0 L1060.6,391.4 L1060.6,406.0 L1060.7,395.9 L1060.7,394.6 L1060.7,410.5 L1060.8,403.8 L1060.8,401.1 L1060.9,395.1 L1060.9,413.7 L1060.9,414.5 L1061.0,410.2 L1061.0,395.3 L1061.0,404.4 L1061.1,409.2 L1061.2,399.3 L1061.2,411.9 L1061.3,403.9 L1061.3,403.1 L1061.4,406.3 L1061.4,406.5 L1061.4,399.5 L1061.5,429.7 L1061.5,425.4 L1061.5,433.5 L1061.6,405.4 L1061.6,416.9 L1061.6,420.4 L1061.7,419.5 L1061.7,434.7 L1061.8,422.9 L1061.8,419.2 L1061.8,422.3 L1061.9,408.3 L1061.9,409.7 L1061.9,435.4 L1062.1,417.6 L1062.1,437.7 L1062.2,446.5 L1062.2,412.3 L1062.2,433.5 L1062.3,435.7 L1062.3,422.1 L1062.3,413.2 L1062.4,445.2 L1062.4,424.4 L1062.5,453.3 L1062.5,434.8 L1062.5,441.6 L1062.6,452.8 L1062.6,432.4 L1062.6,425.2 L1062.7,430.9 L1062.7,414.7 L1062.7,440.9 L1062.8,446.7 L1062.8,422.4 L1062.9,458.3 L1062.9,448.2 L1063.1,464.2 L1063.1,434.7 L1063.1,452.4 L1063.2,418.1 L1063.2,432.0 L1063.2,470.7 L1063.3,434.9 L1063.3,449.4 L1063.3,418.0 L1063.4,483.7 L1063.4,476.1 L1063.4,472.3 L1063.5,425.9 L1063.5,476.0 L1063.6,468.2 L1063.6,460.4 L1063.6,453.6 L1063.7,478.1 L1063.7,477.9 L1063.7,467.5 L1063.8,449.4 L1063.8,470.3 L1063.8,427.0 L1064.0,482.1 L1064.0,478.1 L1064.1,454.7 L1064.1,433.2 L1064.2,425.1 L1064.2,483.9 L1064.2,486.0 L1064.3,485.8 L1064.3,457.1 L1064.3,433.3 L1064.4,496.9 L1064.4,506.1 L1064.4,464.8 L1064.5,437.3 L1064.5,449.4 L1064.6,507.3 L1064.6,490.8 L1064.6,486.7 L1064.7,491.6 L1064.7,515.7 L1064.7,454.2 L1064.8,501.6 L1064.8,432.0 L1065.0,491.5 L1065.0,477.7 L1065.0,469.4 L1065.1,513.4 L1065.1,434.8 L1065.2,474.3 L1065.2,525.8 L1065.2,475.7 L1065.3,474.3 L1065.3,469.3 L1065.3,459.1 L1065.4,441.1 L1065.4,512.6 L1065.4,477.3 L1065.5,478.5 L1065.5,438.5 L1065.5,541.0 L1065.6,494.4 L1065.6,456.5 L1065.7,520.6 L1065.7,544.0 L1065.7,529.1 L1065.8,444.6 L1065.9,496.1 L1066.0,534.1 L1066.0,507.2 L1066.0,538.5 L1066.1,530.7 L1066.1,524.6 L1066.2,529.2 L1066.2,544.0 L1066.2,452.7 L1066.3,544.0 L1066.3,538.4 L1066.3,544.0 L1066.4,544.0 L1066.4,544.0 L1066.4,494.2 L1066.5,527.7 L1066.5,544.0 L1066.5,479.8 L1066.6,534.8 L1066.6,507.3 L1066.7,543.2 L1066.7,505.4 L1066.7,544.0 L1066.9,452.1 L1066.9,489.8 L1067.0,544.0 L1067.0,544.0 L1067.0,544.0 L1067.1,544.0 L1067.1,544.0 L1067.1,455.4 L1067.2,544.0 L1067.2,476.5 L1067.3,463.6 L1067.3,504.3 L1067.3,544.0 L1067.4,544.0 L1067.4,544.0 L1067.4,512.2 L1067.5,469.7 L1067.5,459.0 L1067.5,544.0 L1067.6,468.3 L1067.6,501.5 L1067.7,539.6 L1067.7,544.0 L1067.9,544.0 L1067.9,544.0 L1067.9,544.0 L1068.0,544.0 L1068.0,468.7 L1068.0,536.8 L1068.1,482.4 L1068.1,542.1 L1068.1,544.0 L1068.2,544.0 L1068.2,544.0 L1068.3,544.0 L1068.3,517.4 L1068.3,542.2 L1068.4,544.0 L1068.4,544.0 L1068.4,544.0 L1068.5,543.7 L1068.5,544.0 L1068.5,544.0 L1068.6,544.0 L1068.6,534.5 L1068.7,488.7 L1068.8,544.0 L1068.9,482.1 L1068.9,476.3 L1068.9,544.0 L1069.0,544.0 L1069.0,544.0 L1069.0,540.6 L1069.1,544.0 L1069.1,472.6 L1069.1,544.0 L1069.2,544.0 L1069.2,481.6 L1069.3,544.0 L1069.3,544.0 L1069.3,544.0 L1069.4,479.5 L1069.4,544.0 L1069.4,544.0 L1069.5,512.3 L1069.5,544.0 L1069.5,544.0 L1069.6,538.1 L1069.6,544.0 L1069.8,544.0 L1069.8,544.0 L1069.9,544.0 L1069.9,527.1 L1069.9,532.0 L1070.0,544.0 L1070.0,538.1 L1070.0,505.6 L1070.1,533.6 L1070.1,524.6 L1070.1,544.0 L1070.2,491.2 L1070.2,544.0 L1070.3,537.2 L1070.3,488.8 L1070.3,538.4 L1070.4,501.1 L1070.4,544.0 L1070.4,507.5 L1070.5,544.0 L1070.5,544.0 L1070.5,544.0 L1070.6,544.0 L1070.7,544.0 L1070.8,544.0 L1070.8,544.0 L1070.9,504.4 L1070.9,490.2 L1070.9,544.0 L1071.0,544.0 L1071.0,544.0 L1071.0,518.7 L1071.1,517.0 L1071.1,544.0 L1071.1,544.0 L1071.2,496.1 L1071.2,525.5 L1071.2,544.0 L1071.3,524.6 L1071.3,540.5 L1071.4,544.0 L1071.4,544.0 L1071.4,518.5 L1071.5,544.0 L1071.5,544.0 L1071.5,544.0 L1071.7,544.0 L1071.8,544.0 L1071.8,544.0 L1071.8,544.0 L1071.9,544.0 L1071.9,544.0 L1071.9,544.0 L1072.0,544.0 L1072.0,526.0 L1072.0,501.5 L1072.1,544.0 L1072.1,544.0 L1072.1,544.0 L1072.2,544.0 L1072.2,532.5 L1072.3,544.0 L1072.3,535.5 L1072.3,536.5 L1072.4,544.0 L1072.4,544.0 L1072.4,544.0 L1072.5,544.0 L1072.5,544.0 L1072.7,544.0 L1072.7,544.0 L1072.7,544.0 L1072.8,544.0 L1072.8,544.0 L1072.9,544.0 L1072.9,544.0 L1072.9,512.1 L1073.0,544.0 L1073.0,544.0 L1073.0,544.0 L1073.1,544.0 L1073.1,544.0 L1073.1,544.0 L1073.2,520.8 L1073.2,531.9 L1073.3,544.0 L1073.3,544.0 L1073.3,544.0 L1073.4,544.0 L1073.4,544.0 L1073.4,544.0 L1073.5,544.0 L1073.6,540.4 L1073.7,544.0 L1073.7,518.2 L1073.8,544.0 L1073.8,544.0 L1073.8,544.0 L1073.9,544.0 L1073.9,544.0 L1073.9,524.9 L1074.0,544.0 L1074.0,544.0 L1074.0,544.0 L1074.1,544.0 L1074.1,520.8 L1074.1,544.0 L1074.2,544.0 L1074.2,544.0 L1074.3,544.0 L1074.3,544.0 L1074.3,544.0 L1074.4,544.0 L1074.4,544.0 L1074.4,544.0 L1074.6,544.0 L1074.6,544.0 L1074.7,544.0 L1074.7,544.0 L1074.8,544.0 L1074.8,544.0 L1074.8,544.0 L1074.9,544.0 L1074.9,544.0 L1074.9,544.0 L1075.0,544.0 L1075.0,544.0 L1075.0,544.0 L1075.1,544.0 L1075.1,544.0 L1075.1,544.0 L1075.2,544.0 L1075.2,544.0 L1075.3,544.0 L1075.3,544.0 L1075.3,544.0 L1075.4,544.0 L1075.4,544.0 L1075.6,544.0 L1075.6,544.0 L1075.6,544.0 L1075.7,544.0 L1075.7,544.0 L1075.8,544.0 L1075.8,544.0 L1075.8,544.0 L1075.9,544.0 L1075.9,544.0 L1075.9,544.0 L1076.0,544.0 L1076.0,544.0 L1076.0,544.0 L1076.1,544.0 L1076.1,544.0 L1076.1,544.0 L1076.2,544.0 L1076.2,544.0 L1076.3,544.0 L1076.3,544.0 L1076.3,544.0 L1076.4,544.0 L1076.5,544.0 L1076.6,544.0 L1076.6,544.0 L1076.7,544.0 L1076.7,544.0 L1076.7,543.7 L1076.8,544.0 L1076.8,544.0 L1076.8,544.0 L1076.9,544.0 L1076.9,544.0 L1076.9,544.0 L1077.0,544.0 L1077.0,544.0 L1077.1,544.0 L1077.1,544.0 L1077.1,544.0 L1077.2,544.0 L1077.2,544.0 L1077.2,544.0 L1077.3,544.0 L1077.3,544.0 L1077.3,544.0 L1077.5,544.0 L1077.5,544.0 L1077.6,544.0 L1077.6,544.0 L1077.7,544.0 L1077.7,544.0 L1077.7,544.0 L1077.8,544.0 L1077.8,544.0 L1077.8,544.0 L1077.9,544.0 L1077.9,544.0 L1077.9,544.0 L1078.0,544.0 L1078.0,544.0 L1078.1,544.0 L1078.1,544.0 L1078.1,544.0 L1078.2,544.0 L1078.2,544.0 L1078.2,544.0 L1078.3,544.0 L1078.3,544.0 L1078.5,544.0 L1078.5,544.0 L1078.6,544.0 L1078.6,544.0 L1078.6,544.0 L1078.7,544.0 L1078.7,544.0 L1078.7,544.0 L1078.8,544.0 L1078.8,544.0 L1078.8,544.0 L1078.9,544.0 L1078.9,544.0 L1078.9,544.0 L1079.0,544.0 L1079.0,544.0 L1079.1,544.0 L1079.1,544.0 L1079.1,544.0 L1079.2,544.0 L1079.2,544.0 L1079.2,544.0 L1079.3,544.0 L1079.4,544.0 L1079.5,544.0 L1079.5,544.0 L1079.6,544.0 L1079.6,544.0 L1079.6,544.0 L1079.7,544.0 L1079.7,544.0 L1079.7,544.0 L1079.8,544.0 L1079.8,544.0 L1079.8,544.0 L1079.9,544.0 L1079.9,544.0 L1080.0,544.0 L1080.0,544.0 L1080.0,544.0 L1080.1,544.0 L1080.1,544.0 L1080.1,544.0 L1080.2,544.0 L1080.2,544.0 L1080.2,544.0 L1080.4,544.0 L1080.5,544.0 L1080.5,544.0 L1080.5,544.0 L1080.6,544.0 L1080.6,544.0 L1080.6,544.0 L1080.7,544.0 L1080.7,544.0 L1080.7,544.0 L1080.8,544.0 L1080.8,544.0 L1080.9,544.0 L1080.9,544.0 L1080.9,544.0 L1081.0,544.0 L1081.0,544.0 L1081.0,544.0 L1081.1,544.0 L1081.1,544.0 L1081.1,544.0 L1081.2,544.0 L1081.2,544.0 L1081.4,544.0 L1081.4,544.0 L1081.5,544.0 L1081.5,544.0 L1081.5,544.0 L1081.6,544.0 L1081.6,544.0 L1081.6,544.0 L1081.7,544.0 L1081.7,544.0 L1081.7,544.0 L1081.8,544.0 L1081.8,544.0 L1081.9,544.0 L1081.9,544.0 L1081.9,544.0 L1082.0,544.0 L1082.0,544.0 L1082.0,544.0 L1082.1,544.0 L1082.1,544.0 L1082.1,544.0 L1082.2,544.0 L1082.4,544.0 L1082.4,544.0 L1082.4,544.0 L1082.5,544.0 L1082.5,544.0 L1082.5,544.0 L1082.6,544.0 L1082.6,544.0 L1082.6,544.0 L1082.7,544.0 L1082.7,544.0 L1082.8,544.0 L1082.8,544.0 L1082.8,544.0 L1082.9,544.0 L1083.0,544.0 L1083.0,544.0 L1083.1,544.0 L1083.1,544.0 L1083.1,544.0 L1083.3,544.0 L1083.4,544.0 L1083.4,544.0 L1083.4,544.0 L1083.5,544.0 L1083.5,544.0 L1083.6,544.0 L1083.6,544.0 L1083.6,544.0 L1083.7,544.0 L1083.7,544.0 L1083.8,544.0 L1083.8,544.0 L1083.9,544.0 L1084.0,544.0" fill="none" stroke="#1f77b4" stroke-width="1.4" opacity="0.85"/><text x="1040" y="54" fill="#ff7f0e" font-size="11">roll 26</text><text x="1090" y="558" fill="#ff7f0e" font-size="11">-30</text><path d="M1040.4,297.2 L1040.4,294.7 L1040.5,297.2 L1040.5,297.2 L1040.6,295.5 L1040.6,293.0 L1040.6,295.5 L1040.7,295.5 L1040.7,293.0 L1040.7,298.0 L1040.8,290.5 L1040.8,296.3 L1040.8,289.7 L1040.9,291.4 L1040.9,294.7 L1040.9,295.5 L1041.0,291.4 L1041.0,295.5 L1041.1,292.2 L1041.1,293.8 L1041.1,290.5 L1041.2,298.0 L1041.2,296.3 L1041.2,295.5 L1041.3,296.3 L1041.3,289.7 L1041.3,295.5 L1041.4,293.8 L1041.4,297.2 L1041.4,293.8 L1041.5,294.7 L1041.5,293.0 L1041.6,291.4 L1041.6,296.3 L1041.6,293.0 L1041.7,293.0 L1041.7,292.2 L1041.7,291.4 L1041.8,291.4 L1041.8,296.3 L1041.8,290.5 L1041.9,292.2 L1041.9,291.4 L1041.9,293.8 L1042.0,289.7 L1042.0,293.0 L1042.1,294.7 L1042.1,291.4 L1042.1,291.4 L1042.2,288.9 L1042.2,295.5 L1042.2,297.2 L1042.3,289.7 L1042.3,292.2 L1042.3,291.4 L1042.4,295.5 L1042.4,292.2 L1042.4,294.7 L1042.5,295.5 L1042.5,297.2 L1042.6,294.7 L1042.6,294.7 L1042.6,293.8 L1042.7,293.8 L1042.7,292.2 L1042.7,292.2 L1042.8,293.8 L1042.8,293.8 L1042.8,295.5 L1042.9,292.2 L1042.9,294.7 L1042.9,291.4 L1043.0,297.2 L1043.0,296.3 L1043.1,293.0 L1043.1,288.9 L1043.1,293.8 L1043.2,288.9 L1043.2,288.9 L1043.2,293.8 L1043.3,292.2 L1043.3,290.5 L1043.3,292.2 L1043.4,296.3 L1043.4,296.3 L1043.4,292.2 L1043.5,293.0 L1043.5,297.2 L1043.5,295.5 L1043.6,293.8 L1043.6,289.7 L1043.7,293.8 L1043.7,294.7 L1043.7,293.8 L1043.8,292.2 L1043.8,291.4 L1043.9,296.3 L1043.9,293.0 L1043.9,288.0 L1044.0,293.8 L1044.0,292.2 L1044.0,291.4 L1044.1,294.7 L1044.1,292.2 L1044.1,289.7 L1044.2,294.7 L1044.2,293.0 L1044.2,297.2 L1044.3,289.7 L1044.3,292.2 L1044.3,289.7 L1044.4,291.4 L1044.4,288.0 L1044.5,294.7 L1044.5,289.7 L1044.5,293.8 L1044.6,289.7 L1044.6,290.5 L1044.6,293.8 L1044.7,289.7 L1044.7,293.0 L1044.8,293.8 L1044.8,297.2 L1044.8,289.7 L1044.9,292.2 L1044.9,296.3 L1044.9,293.0 L1045.0,288.9 L1045.0,290.5 L1045.0,289.7 L1045.1,288.0 L1045.1,293.8 L1045.1,296.3 L1045.2,289.7 L1045.2,291.4 L1045.3,284.7 L1045.3,287.2 L1045.3,264.9 L1045.4,247.5 L1045.4,237.5 L1045.4,230.1 L1045.5,214.3 L1045.5,238.4 L1045.6,167.1 L1045.6,167.1 L1045.6,206.0 L1045.7,166.3 L1045.7,140.6 L1045.7,195.3 L1045.8,200.2 L1045.8,194.4 L1045.8,128.2 L1045.9,179.5 L1045.9,179.5 L1046.0,218.5 L1046.0,131.5 L1046.0,141.4 L1046.1,216.8 L1046.1,226.8 L1046.1,145.6 L1046.2,156.3 L1046.2,157.2 L1046.3,232.6 L1046.3,143.1 L1046.3,172.1 L1046.4,201.9 L1046.4,180.4 L1046.4,138.1 L1046.5,236.7 L1046.5,139.8 L1046.6,196.1 L1046.6,182.9 L1046.6,239.2 L1046.7,248.3 L1046.7,183.7 L1046.7,264.0 L1046.8,227.6 L1046.8,177.1 L1046.8,200.2 L1046.9,255.7 L1046.9,200.2 L1046.9,191.1 L1047.0,195.3 L1047.0,260.7 L1047.1,286.4 L1047.1,303.8 L1047.2,332.0 L1047.2,321.2 L1047.2,370.1 L1047.3,332.8 L1047.3,357.6 L1047.3,375.9 L1047.4,360.1 L1047.4,375.0 L1047.4,418.9 L1047.5,453.7 L1047.5,466.1 L1047.5,437.1 L1047.6,446.3 L1047.6,457.0 L1047.7,385.8 L1047.7,356.8 L1047.7,457.0 L1047.8,462.8 L1047.8,360.1 L1047.8,455.4 L1047.9,433.8 L1047.9,467.0 L1048.0,394.1 L1048.0,476.1 L1048.0,351.8 L1048.1,456.2 L1048.1,429.7 L1048.1,418.1 L1048.2,362.6 L1048.2,387.4 L1048.3,427.2 L1048.3,428.0 L1048.3,409.8 L1048.4,394.1 L1048.4,402.4 L1048.4,445.4 L1048.5,432.2 L1048.5,451.2 L1048.5,423.1 L1048.6,485.2 L1048.6,397.4 L1048.6,451.2 L1048.7,455.4 L1048.7,387.4 L1048.8,462.0 L1048.8,413.1 L1048.9,404.0 L1048.9,469.5 L1048.9,382.5 L1049.0,438.0 L1049.0,476.9 L1049.0,385.0 L1049.1,431.3 L1049.1,395.7 L1049.1,428.9 L1049.2,372.5 L1049.2,392.4 L1049.2,449.6 L1049.3,444.6 L1049.3,448.7 L1049.4,383.3 L1049.4,433.0 L1049.4,476.1 L1049.5,427.2 L1049.5,489.3 L1049.5,458.7 L1049.6,381.6 L1049.6,423.1 L1049.7,482.7 L1049.7,389.1 L1049.7,454.5 L1049.8,389.9 L1049.8,471.1 L1049.9,394.1 L1049.9,328.6 L1049.9,353.5 L1050.0,317.9 L1050.0,291.4 L1050.0,270.7 L1050.1,268.2 L1050.1,255.7 L1050.1,215.2 L1050.2,257.4 L1050.2,232.6 L1050.2,210.2 L1050.3,189.5 L1050.3,162.1 L1050.3,165.5 L1050.4,124.0 L1050.5,206.9 L1050.5,171.3 L1050.5,217.6 L1050.6,160.5 L1050.6,218.5 L1050.6,137.3 L1050.7,177.1 L1050.7,89.3 L1050.7,144.8 L1050.8,116.6 L1050.8,231.7 L1050.8,179.5 L1050.9,108.3 L1050.9,122.4 L1051.0,136.5 L1051.0,105.8 L1051.0,201.9 L1051.1,176.2 L1051.1,179.5 L1051.1,205.2 L1051.2,108.3 L1051.2,231.7 L1051.2,144.8 L1051.3,133.2 L1051.4,154.7 L1051.4,139.0 L1051.4,155.5 L1051.5,114.9 L1051.5,99.2 L1051.6,185.3 L1051.6,127.4 L1051.6,182.0 L1051.7,137.3 L1051.7,129.0 L1051.7,225.9 L1051.8,155.5 L1051.8,104.2 L1051.8,186.2 L1051.9,230.1 L1051.9,177.1 L1051.9,105.0 L1052.0,191.1 L1052.0,101.7 L1052.1,148.9 L1052.1,154.7 L1052.1,142.3 L1052.2,97.5 L1052.3,95.9 L1052.3,124.9 L1052.3,222.6 L1052.4,100.0 L1052.4,156.3 L1052.4,225.9 L1052.5,198.6 L1052.5,201.1 L1052.5,196.1 L1052.6,81.0 L1052.6,104.2 L1052.7,99.2 L1052.7,158.0 L1052.7,100.0 L1052.8,105.8 L1052.8,120.7 L1052.8,125.7 L1052.9,212.7 L1052.9,210.2 L1052.9,153.0 L1053.0,207.7 L1053.0,118.2 L1053.1,132.3 L1053.2,189.5 L1053.2,183.7 L1053.2,119.9 L1053.3,104.2 L1053.3,208.5 L1053.3,152.2 L1053.4,192.0 L1053.4,201.9 L1053.4,94.2 L1053.5,225.1 L1053.5,158.8 L1053.5,221.0 L1053.6,182.0 L1053.6,133.2 L1053.7,158.8 L1053.7,134.8 L1053.7,206.0 L1053.8,201.1 L1053.8,200.2 L1053.8,188.7 L1053.9,134.8 L1053.9,195.3 L1054.0,223.4 L1054.0,196.9 L1054.1,211.8 L1054.1,216.8 L1054.1,233.4 L1054.2,178.7 L1054.2,138.1 L1054.3,167.1 L1054.3,151.4 L1054.3,212.7 L1054.4,190.3 L1054.4,178.7 L1054.4,102.5 L1054.5,178.7 L1054.5,194.4 L1054.5,129.0 L1054.6,111.6 L1054.6,101.7 L1054.6,96.7 L1054.7,167.9 L1054.7,233.4 L1054.8,179.5 L1054.8,222.6 L1054.9,139.0 L1054.9,214.3 L1055.0,182.9 L1055.0,126.5 L1055.0,201.9 L1055.1,108.3 L1055.1,204.4 L1055.1,147.2 L1055.2,153.0 L1055.2,93.4 L1055.3,176.2 L1055.3,219.3 L1055.3,179.5 L1055.4,201.1 L1055.4,209.4 L1055.4,166.3 L1055.5,192.8 L1055.5,131.5 L1055.5,167.1 L1055.6,119.9 L1055.6,153.0 L1055.6,130.7 L1055.7,134.0 L1055.8,113.3 L1055.8,201.1 L1055.9,136.5 L1055.9,174.6 L1055.9,137.3 L1056.0,182.0 L1056.0,121.6 L1056.0,154.7 L1056.1,116.6 L1056.1,104.2 L1056.1,117.4 L1056.2,216.8 L1056.2,162.1 L1056.2,182.9 L1056.3,154.7 L1056.3,143.9 L1056.4,177.9 L1056.4,142.3 L1056.4,213.5 L1056.5,107.5 L1056.5,177.9 L1056.5,167.1 L1056.6,92.6 L1056.7,157.2 L1056.7,99.2 L1056.7,83.5 L1056.8,173.7 L1056.8,212.7 L1056.9,167.1 L1056.9,149.7 L1056.9,111.6 L1057.0,121.6 L1057.0,130.7 L1057.0,119.9 L1057.1,219.3 L1057.1,133.2 L1057.1,172.9 L1057.2,177.9 L1057.2,122.4 L1057.2,143.9 L1057.3,196.1 L1057.3,179.5 L1057.4,229.2 L1057.4,107.5 L1057.4,134.8 L1057.5,193.6 L1057.6,194.4 L1057.6,159.7 L1057.6,239.2 L1057.7,212.7 L1057.7,143.1 L1057.7,134.8 L1057.8,213.5 L1057.8,189.5 L1057.9,186.2 L1057.9,218.5 L1057.9,167.1 L1058.0,165.5 L1058.0,131.5 L1058.0,212.7 L1058.1,169.6 L1058.1,128.2 L1058.1,105.0 L1058.2,206.9 L1058.2,127.4 L1058.2,193.6 L1058.3,216.0 L1058.3,93.4 L1058.4,186.2 L1058.5,113.3 L1058.5,155.5 L1058.5,183.7 L1058.6,208.5 L1058.6,76.0 L1058.6,192.8 L1058.7,196.1 L1058.7,97.5 L1058.7,136.5 L1058.8,109.1 L1058.8,194.4 L1058.9,106.6 L1058.9,187.8 L1058.9,175.4 L1059.0,147.2 L1059.0,215.2 L1059.0,136.5 L1059.1,200.2 L1059.1,155.5 L1059.1,137.3 L1059.2,119.9 L1059.2,144.8 L1059.2,143.9 L1059.3,133.2 L1059.4,235.0 L1059.4,209.4 L1059.5,130.7 L1059.5,169.6 L1059.5,185.3 L1059.6,188.7 L1059.6,235.9 L1059.6,187.8 L1059.7,255.7 L1059.7,264.0 L1059.7,242.5 L1059.8,247.5 L1059.8,249.9 L1059.8,265.7 L1059.9,268.2 L1059.9,270.7 L1060.0,211.8 L1060.0,230.9 L1060.0,262.4 L1060.1,256.6 L1060.1,274.8 L1060.1,234.2 L1060.2,302.1 L1060.3,292.2 L1060.3,293.0 L1060.3,284.7 L1060.4,281.4 L1060.4,306.3 L1060.5,293.0 L1060.5,276.5 L1060.5,294.7 L1060.6,294.7 L1060.6,277.3 L1060.6,266.5 L1060.7,269.0 L1060.7,262.4 L1060.7,238.4 L1060.8,235.0 L1060.8,244.1 L1060.9,263.2 L1060.9,284.7 L1060.9,295.5 L1061.0,298.0 L1061.0,334.4 L1061.0,319.5 L1061.1,309.6 L1061.2,316.2 L1061.2,303.0 L1061.3,322.8 L1061.3,319.5 L1061.4,307.9 L1061.4,290.5 L1061.4,309.6 L1061.5,317.0 L1061.5,312.9 L1061.5,292.2 L1061.6,293.0 L1061.6,308.8 L1061.6,303.0 L1061.7,293.0 L1061.7,283.1 L1061.8,283.9 L1061.8,296.3 L1061.8,302.1 L1061.9,307.9 L1061.9,320.4 L1061.9,330.3 L1062.1,348.5 L1062.1,424.7 L1062.2,348.5 L1062.2,425.6 L1062.2,346.9 L1062.3,364.3 L1062.3,483.5 L1062.3,394.9 L1062.4,415.6 L1062.4,394.1 L1062.5,467.0 L1062.5,437.1 L1062.5,385.0 L1062.6,400.7 L1062.6,433.8 L1062.6,350.2 L1062.7,380.8 L1062.7,446.3 L1062.7,424.7 L1062.8,434.7 L1062.8,467.0 L1062.8,368.4 L1062.9,453.7 L1063.1,446.3 L1063.1,437.1 L1063.1,455.4 L1063.2,438.0 L1063.2,481.0 L1063.2,423.1 L1063.3,378.3 L1063.3,380.0 L1063.3,362.6 L1063.4,422.2 L1063.4,375.0 L1063.4,417.3 L1063.5,443.8 L1063.5,359.3 L1063.6,387.4 L1063.6,376.7 L1063.6,347.7 L1063.7,405.7 L1063.7,396.6 L1063.7,401.5 L1063.8,476.9 L1063.8,386.6 L1063.8,463.7 L1064.0,413.1 L1064.0,378.3 L1064.1,534.1 L1064.1,386.6 L1064.2,430.5 L1064.2,493.5 L1064.2,523.3 L1064.3,428.9 L1064.3,379.2 L1064.3,347.7 L1064.4,483.5 L1064.4,457.0 L1064.4,399.0 L1064.5,363.4 L1064.5,448.7 L1064.6,368.4 L1064.6,399.0 L1064.6,396.6 L1064.7,392.4 L1064.7,494.3 L1064.7,460.3 L1064.8,463.7 L1064.8,407.3 L1065.0,401.5 L1065.0,474.4 L1065.0,531.6 L1065.1,544.0 L1065.1,443.8 L1065.2,397.4 L1065.2,505.1 L1065.2,526.6 L1065.3,510.9 L1065.3,535.7 L1065.3,448.7 L1065.4,512.5 L1065.4,371.7 L1065.4,491.0 L1065.5,441.3 L1065.5,388.3 L1065.5,457.9 L1065.6,469.5 L1065.6,413.1 L1065.7,501.8 L1065.7,521.6 L1065.7,391.6 L1065.8,424.7 L1065.9,417.3 L1066.0,505.1 L1066.0,430.5 L1066.0,472.8 L1066.1,447.9 L1066.1,428.9 L1066.2,393.2 L1066.2,410.6 L1066.2,487.7 L1066.3,390.8 L1066.3,466.1 L1066.3,393.2 L1066.4,377.5 L1066.4,518.3 L1066.4,462.8 L1066.5,381.6 L1066.5,372.5 L1066.5,353.5 L1066.6,365.9 L1066.6,452.1 L1066.7,488.5 L1066.7,448.7 L1066.7,365.9 L1066.9,428.0 L1066.9,447.1 L1067.0,422.2 L1067.0,442.9 L1067.0,389.9 L1067.1,362.6 L1067.1,348.5 L1067.1,411.5 L1067.2,428.9 L1067.2,419.8 L1067.3,452.9 L1067.3,459.5 L1067.3,348.5 L1067.4,446.3 L1067.4,356.0 L1067.4,469.5 L1067.5,462.8 L1067.5,394.1 L1067.5,441.3 L1067.6,370.1 L1067.6,353.5 L1067.7,387.4 L1067.7,426.4 L1067.9,447.9 L1067.9,445.4 L1067.9,433.8 L1068.0,449.6 L1068.0,352.7 L1068.0,403.2 L1068.1,347.7 L1068.1,397.4 L1068.1,360.1 L1068.2,370.9 L1068.2,384.1 L1068.3,336.9 L1068.3,375.0 L1068.3,382.5 L1068.4,346.9 L1068.4,358.5 L1068.4,341.9 L1068.5,377.5 L1068.5,385.0 L1068.5,325.3 L1068.6,344.4 L1068.6,354.3 L1068.6,315.4 L1068.8,278.1 L1068.9,293.0 L1068.9,294.7 L1068.9,322.8 L1069.0,320.4 L1069.0,316.2 L1069.0,302.1 L1069.1,325.3 L1069.1,327.0 L1069.1,357.6 L1069.2,353.5 L1069.2,316.2 L1069.3,375.9 L1069.3,351.8 L1069.3,361.8 L1069.4,362.6 L1069.4,372.5 L1069.4,353.5 L1069.5,332.0 L1069.5,309.6 L1069.5,305.4 L1069.6,327.8 L1069.6,304.6 L1069.8,264.9 L1069.8,274.0 L1069.9,253.3 L1069.9,278.1 L1069.9,264.9 L1070.0,278.9 L1070.0,280.6 L1070.0,274.8 L1070.1,247.5 L1070.1,261.5 L1070.1,278.1 L1070.2,285.6 L1070.2,294.7 L1070.3,301.3 L1070.3,301.3 L1070.3,283.1 L1070.4,298.8 L1070.4,289.7 L1070.4,274.8 L1070.5,256.6 L1070.5,262.4 L1070.5,256.6 L1070.6,264.9 L1070.7,223.4 L1070.8,249.9 L1070.8,223.4 L1070.9,206.0 L1070.9,181.2 L1070.9,179.5 L1071.0,235.0 L1071.0,210.2 L1071.0,219.3 L1071.1,195.3 L1071.1,194.4 L1071.1,208.5 L1071.2,131.5 L1071.2,206.0 L1071.2,222.6 L1071.3,230.1 L1071.3,203.6 L1071.4,185.3 L1071.4,221.8 L1071.4,211.0 L1071.5,187.8 L1071.5,239.2 L1071.5,155.5 L1071.7,217.6 L1071.8,225.1 L1071.8,192.0 L1071.8,190.3 L1071.9,167.9 L1071.9,222.6 L1071.9,204.4 L1072.0,161.3 L1072.0,177.1 L1072.0,198.6 L1072.1,242.5 L1072.1,192.8 L1072.1,225.9 L1072.2,148.1 L1072.2,185.3 L1072.3,142.3 L1072.3,119.1 L1072.3,188.7 L1072.4,133.2 L1072.4,239.2 L1072.4,174.6 L1072.5,229.2 L1072.5,114.9 L1072.7,288.0 L1072.7,280.6 L1072.7,280.6 L1072.8,235.9 L1072.8,264.0 L1072.9,256.6 L1072.9,262.4 L1072.9,265.7 L1073.0,252.4 L1073.0,224.3 L1073.0,213.5 L1073.1,169.6 L1073.1,201.9 L1073.1,159.7 L1073.2,240.8 L1073.2,202.7 L1073.3,187.8 L1073.3,230.9 L1073.3,211.0 L1073.4,178.7 L1073.4,221.0 L1073.4,177.1 L1073.5,222.6 L1073.6,194.4 L1073.7,149.7 L1073.7,181.2 L1073.8,183.7 L1073.8,176.2 L1073.8,178.7 L1073.9,181.2 L1073.9,233.4 L1073.9,142.3 L1074.0,195.3 L1074.0,206.9 L1074.0,188.7 L1074.1,171.3 L1074.1,145.6 L1074.1,227.6 L1074.2,182.9 L1074.2,190.3 L1074.3,160.5 L1074.3,237.5 L1074.3,207.7 L1074.4,189.5 L1074.4,227.6 L1074.4,207.7 L1074.6,206.0 L1074.6,143.9 L1074.7,230.9 L1074.7,213.5 L1074.8,167.1 L1074.8,244.1 L1074.8,254.9 L1074.9,208.5 L1074.9,273.1 L1074.9,235.0 L1075.0,240.8 L1075.0,242.5 L1075.0,224.3 L1075.1,215.2 L1075.1,260.7 L1075.1,245.0 L1075.2,238.4 L1075.2,259.1 L1075.3,269.0 L1075.3,278.1 L1075.3,286.4 L1075.4,278.9 L1075.4,275.6 L1075.6,373.4 L1075.6,336.9 L1075.6,328.6 L1075.7,310.4 L1075.7,337.7 L1075.8,317.0 L1075.8,345.2 L1075.8,330.3 L1075.9,299.6 L1075.9,317.0 L1075.9,294.7 L1076.0,279.8 L1076.0,303.8 L1076.0,280.6 L1076.1,272.3 L1076.1,262.4 L1076.1,278.9 L1076.2,287.2 L1076.2,299.6 L1076.3,274.8 L1076.3,307.9 L1076.3,300.5 L1076.4,334.4 L1076.5,382.5 L1076.6,358.5 L1076.6,360.9 L1076.7,336.1 L1076.7,387.4 L1076.7,346.0 L1076.8,407.3 L1076.8,341.1 L1076.8,325.3 L1076.9,354.3 L1076.9,341.1 L1076.9,301.3 L1077.0,323.7 L1077.0,347.7 L1077.1,308.8 L1077.1,316.2 L1077.1,310.4 L1077.2,298.8 L1077.2,320.4 L1077.2,307.1 L1077.3,330.3 L1077.3,389.1 L1077.3,398.2 L1077.5,259.9 L1077.5,293.8 L1077.6,310.4 L1077.6,318.7 L1077.7,316.2 L1077.7,380.0 L1077.7,363.4 L1077.8,387.4 L1077.8,389.1 L1077.8,390.8 L1077.9,351.0 L1077.9,340.2 L1077.9,374.2 L1078.0,337.7 L1078.0,357.6 L1078.1,358.5 L1078.1,354.3 L1078.1,356.0 L1078.2,326.2 L1078.2,370.9 L1078.2,351.0 L1078.3,376.7 L1078.3,339.4 L1078.5,283.1 L1078.5,283.1 L1078.6,296.3 L1078.6,296.3 L1078.6,320.4 L1078.7,293.8 L1078.7,322.0 L1078.7,357.6 L1078.8,361.8 L1078.8,387.4 L1078.8,349.3 L1078.9,328.6 L1078.9,367.6 L1078.9,356.0 L1079.0,323.7 L1079.0,345.2 L1079.1,321.2 L1079.1,348.5 L1079.1,385.0 L1079.2,322.0 L1079.2,378.3 L1079.2,356.0 L1079.3,327.8 L1079.4,303.8 L1079.5,315.4 L1079.5,353.5 L1079.6,346.9 L1079.6,302.1 L1079.6,323.7 L1079.7,302.1 L1079.7,312.9 L1079.7,320.4 L1079.8,308.8 L1079.8,303.0 L1079.8,340.2 L1079.9,313.7 L1079.9,313.7 L1080.0,315.4 L1080.0,315.4 L1080.0,300.5 L1080.1,296.3 L1080.1,300.5 L1080.1,303.0 L1080.2,297.2 L1080.2,299.6 L1080.2,288.9 L1080.4,334.4 L1080.5,331.1 L1080.5,347.7 L1080.5,340.2 L1080.6,349.3 L1080.6,332.8 L1080.6,356.8 L1080.7,344.4 L1080.7,317.0 L1080.7,363.4 L1080.8,346.0 L1080.8,369.2 L1080.9,323.7 L1080.9,346.9 L1080.9,365.1 L1081.0,318.7 L1081.0,350.2 L1081.0,320.4 L1081.1,314.6 L1081.1,298.8 L1081.1,315.4 L1081.2,322.8 L1081.2,304.6 L1081.4,271.5 L1081.4,238.4 L1081.5,278.9 L1081.5,295.5 L1081.5,293.0 L1081.6,278.9 L1081.6,279.8 L1081.6,251.6 L1081.7,259.9 L1081.7,245.0 L1081.7,279.8 L1081.8,249.9 L1081.8,254.9 L1081.9,267.3 L1081.9,278.9 L1081.9,269.8 L1082.0,267.3 L1082.0,288.0 L1082.0,286.4 L1082.1,295.5 L1082.1,292.2 L1082.1,290.5 L1082.2,293.8 L1082.4,201.9 L1082.4,205.2 L1082.4,225.9 L1082.5,222.6 L1082.5,187.8 L1082.5,181.2 L1082.6,266.5 L1082.6,230.9 L1082.6,238.4 L1082.7,219.3 L1082.7,269.0 L1082.8,254.1 L1082.8,269.0 L1082.8,240.0 L1082.9,249.1 L1083.0,236.7 L1083.0,248.3 L1083.1,240.8 L1083.1,208.5 L1083.1,193.6 L1083.3,230.1 L1083.4,206.0 L1083.4,194.4 L1083.4,271.5 L1083.5,273.1 L1083.5,274.8 L1083.6,254.9 L1083.6,253.3 L1083.6,264.9 L1083.7,276.5 L1083.7,293.8 L1083.7,290.5 L1083.8,302.1 L1083.9,365.1 L1084.0,334.4" fill="none" stroke="#ff7f0e" stroke-width="1.1" opacity="0.85"/><text x="616" y="572" font-size="11" fill="#888">time 0..576 s — altitude (blue) &amp; roll (orange)</text></svg>