<svg xmlns="http://www.w3.org/2000/svg" width="1140" height="600" font-family="sans-serif" font-size="13"><rect width="1140" height="600" fill="white"/><text x="20" y="26" font-size="15" fill="#333">Coludo flight</text><rect x="20" y="40" width="540" height="540" fill="#fbfbfb" stroke="#ddd"/><rect x="50" y="290" width="122" height="26" fill="#cde" stroke="#369" opacity="0.7"/><text x="50" y="285" fill="#369" font-size="12">landing zone</text><circle cx="127" cy="330" r="5" fill="black"/><text x="135" y="334" font-size="12">pad</text><path d="M127.4,330.4 L127.4,330.4 L127.4,330.4 L127.4,330.4 L127.4,330.4 L127.4,330.4 L127.4,330.4 L127.4,330.4 L127.4,330.4 L127.4,330.4 L127.4,330.4 L127.4,330.4 L127.4,330.4 L127.4,330.4 L127.4,330.4 L127.4,330.4 L127.4,330.4 L127.4,330.4 L127.4,330.4 L127.4,330.4 L127.4,330.4 L127.4,330.4 L127.4,330.4 L127.4,330.4 L127.4,330.4 L127.4,330.4 L127.4,330.4 L127.4,330.4 L127.4,330.4 L127.4,330.4 L127.4,330.4 L127.4,330.4 L127.4,330.4 L127.4,330.4 L127.4,330.4 L127.4,330.4 L127.4,330.4 L127.4,330.4 L127.4,330.4 L127.4,330.4 L127.4,330.4 L127.4,330.4 L127.4,330.4 L127.4,330.4 L127.4,330.4 L127.4,330.4 L127.4,330.4 L127.4,330.4 L127.4,330.4 L127.4,330.4 L127.4,330.4 L127.4,330.4 L127.4,330.4 L127.4,330.4 L127.4,330.4 L127.4,330.4 L127.4,330.4 L127.4,330.4 L127.4,330.4 L127.4,330.4 L127.8,329.7 L128.0,328.7 L128.7,328.0 L129.3,326.9 L129.9,326.4 L130.0,325.5 L130.7,324.5 L131.3,323.7 L132.0,322.9 L132.6,322.0 L133.3,321.3 L133.9,320.4 L134.1,319.7 L135.2,318.8 L135.9,317.7 L136.2,317.1 L137.2,316.2 L137.9,315.3 L138.2,314.8 L139.2,313.9 L139.8,313.2 L140.3,312.3 L141.1,311.7 L141.8,310.5 L143.0,309.7 L143.1,308.9 L144.4,308.2 L144.5,307.5 L145.1,306.8 L146.4,305.9 L146.6,305.5 L147.7,304.6 L148.7,303.6 L149.0,303.0 L150.3,302.4 L151.3,301.8 L151.6,301.1 L152.9,300.5 L153.6,300.0 L154.2,299.5 L155.0,298.9 L156.8,298.2 L157.5,297.6 L158.2,297.3 L159.2,296.8 L160.1,296.6 L161.4,296.0 L162.1,295.7 L163.4,295.3 L163.9,295.0 L164.7,294.7 L165.5,294.4 L166.7,294.3 L167.6,294.0 L168.6,293.9 L169.9,293.7 L170.6,293.6 L171.9,293.4 L172.6,293.3 L173.9,293.3 L174.5,293.1 L175.8,293.0 L177.1,293.0 L178.1,292.8 L179.1,292.8 L180.4,292.8 L181.1,292.8 L182.4,292.8 L183.0,292.8 L184.6,292.8 L185.6,293.0 L186.4,293.0 L187.6,293.1 L188.5,293.1 L189.6,293.3 L190.9,293.4 L191.5,293.6 L192.8,293.7 L193.5,293.9 L194.8,293.9 L195.5,294.0 L196.8,294.3 L197.4,294.4 L198.7,294.7 L199.8,295.0 L200.7,295.3 L201.9,295.6 L202.7,295.9 L203.7,296.2 L204.0,296.5 L205.3,296.8 L205.9,297.1 L207.3,297.5 L207.9,297.8 L209.2,298.2 L209.7,298.6 L211.2,299.1 L211.8,299.4 L212.5,300.0 L213.8,300.2 L214.5,300.7 L215.1,301.1 L216.3,301.7 L217.1,302.1 L218.4,302.7 L218.4,303.1 L219.7,303.7 L220.5,304.2 L221.7,304.9 L222.3,305.3 L223.0,305.8 L223.6,306.5 L224.4,306.9 L225.6,307.6 L226.2,308.2 L226.9,308.7 L228.2,309.2 L228.9,309.8 L229.5,310.4 L230.8,311.0 L230.9,311.6 L232.1,312.0 L233.0,312.6 L233.4,313.2 L234.7,313.7 L235.4,314.3 L236.7,314.9 L237.0,315.3 L238.7,316.3 L239.9,316.9 L240.6,317.4 L241.4,317.8 L241.9,318.2 L243.3,318.8 L243.9,319.2 L245.2,319.7 L245.9,320.1 L247.2,320.6 L247.8,320.8 L248.5,321.3 L249.8,321.7 L250.5,322.2 L251.8,322.4 L252.4,323.0 L253.7,323.5 L254.3,323.7 L255.0,324.0 L256.1,324.5 L257.0,324.8 L258.3,325.2 L258.7,325.5 L260.3,325.9 L260.8,326.2 L261.6,326.5 L262.1,326.8 L263.6,326.9 L264.7,327.2 L265.5,327.5 L266.8,327.7 L267.5,328.0 L268.8,328.1 L269.4,328.4 L270.8,328.5 L271.4,328.8 L272.7,329.0 L273.4,329.1 L274.7,329.3 L275.3,329.4 L276.6,329.5 L277.6,329.7 L278.6,329.7 L279.7,329.7 L280.6,329.8 L281.8,329.8 L282.5,330.0 L283.3,330.0 L284.5,330.1 L286.5,330.1 L287.8,330.3 L288.4,330.3 L289.7,330.3 L290.4,330.3 L291.7,330.4 L292.4,330.4 L294.3,330.4 L295.6,330.4 L296.9,330.4 L298.2,330.3 L299.6,330.3 L300.2,330.1 L301.5,330.1 L302.2,330.0 L303.5,329.8 L304.1,329.7 L305.5,329.7 L308.1,329.1 L309.0,328.8 L310.0,328.5 L311.1,328.2 L312.0,328.0 L312.7,327.7 L314.0,327.2 L315.3,326.9 L315.3,326.6 L317.9,325.6 L319.2,325.2 L319.9,324.6 L321.2,324.3 L321.8,323.7 L322.5,323.5 L323.6,322.9 L324.4,322.4 L325.7,321.9 L327.7,320.7 L328.4,320.1 L329.7,319.7 L330.3,319.1 L331.6,318.7 L332.0,318.1 L332.9,317.7 L334.3,317.2 L334.9,316.8 L336.9,315.3 L338.2,314.9 L338.8,314.5 L340.1,314.0 L340.4,313.6 L341.5,313.0 L342.5,312.6 L343.4,312.1 L344.7,311.8 L346.7,310.4 L347.3,309.8 L348.7,309.4 L349.3,308.8 L350.6,308.5 L350.9,308.1 L351.9,307.5 L353.2,307.1 L353.9,306.5 L355.9,305.3 L357.2,304.7 L357.8,304.3 L359.1,303.7 L359.8,303.3 L360.4,302.9 L361.4,302.4 L362.4,302.0 L363.7,301.4 L365.8,300.4 L367.0,300.0 L367.9,299.5 L368.3,299.2 L369.6,298.8 L370.3,298.5 L371.6,298.2 L372.2,297.9 L373.5,297.6 L376.2,296.9 L376.8,296.8 L378.1,296.6 L378.8,296.5 L380.1,296.3 L380.7,296.2 L382.0,296.0 L383.1,295.9 L384.0,295.7 L387.0,295.5 L387.9,295.5 L389.1,295.5 L389.9,295.5 L391.2,295.3 L391.9,295.5 L393.2,295.5 L393.8,295.5 L395.1,295.5 L397.2,295.7 L398.4,295.9 L399.7,296.0 L400.4,296.3 L401.7,296.5 L402.3,296.6 L403.6,296.8 L404.3,297.1 L405.6,297.3 L408.2,298.1 L408.9,298.4 L410.3,298.6 L410.9,298.9 L412.2,299.4 L412.8,299.7 L414.1,300.0 L414.8,300.1 L416.1,300.4 L418.2,301.1 L419.4,301.5 L420.3,301.8 L421.3,302.3 L422.6,302.6 L423.3,302.9 L424.6,303.3 L425.3,303.6 L426.6,304.2 L428.5,305.2 L429.2,305.6 L430.5,305.9 L431.5,306.2 L432.5,306.8 L433.6,307.2 L434.4,307.5 L435.5,307.9 L435.7,308.4 L438.3,309.4 L439.7,309.8 L440.3,310.1 L441.6,310.5 L442.3,310.8 L443.6,311.3 L444.2,311.6 L445.5,311.8 L446.2,312.1 L448.8,313.0 L450.1,313.3 L450.8,313.7 L452.1,314.0 L452.7,314.3 L454.1,314.6 L454.7,314.8 L456.0,315.0 L456.7,315.3 L459.3,315.9 L460.6,316.2 L461.3,316.3 L462.6,316.5 L463.2,316.6 L464.5,316.8 L465.2,316.9 L466.5,316.9 L467.2,317.1 L470.4,317.2 L471.1,317.2 L472.4,317.4 L473.0,317.4 L474.4,317.4 L475.5,317.5 L476.3,317.5 L477.6,317.4 L478.3,317.4 L480.9,317.2 L481.8,317.1 L482.9,316.9 L483.9,316.8 L484.8,316.6 L486.0,316.3 L486.8,316.2 L488.1,315.9 L488.8,315.6 L492.0,314.9 L492.7,314.8 L494.0,314.6 L494.6,314.2 L495.3,313.9 L496.5,313.6 L497.9,313.3 L498.6,312.9 L499.2,312.6 L501.8,311.7 L502.8,311.3 L503.8,310.7 L504.9,310.4 L505.8,309.8 L507.0,309.4 L507.1,308.9 L508.4,308.5 L509.6,308.1 L511.7,306.8 L513.0,306.3 L513.2,305.9 L514.3,305.5 L515.3,305.0 L516.3,304.7 L517.6,304.3 L518.2,303.9 L520.0,303.3 L521.6,302.6 L522.8,302.3 L523.7,302.0 L524.8,301.5 L525.8,301.1 L527.4,300.7 L528.0,300.4 L528.7,300.0 L530.0,299.8" fill="none" stroke="#1f77b4" stroke-width="1.7" opacity="0.85"/><circle cx="530" cy="300" r="4.5" fill="#1f77b4"/><text x="28" y="572" font-size="11" fill="#888">ground track — m from pad (N up)</text><rect x="580" y="40" width="540" height="540" fill="#fbfbfb" stroke="#ddd"/><text x="586" y="54" fill="#1f77b4" font-size="11">alt 251</text><text x="586" y="558" fill="#1f77b4" font-size="11">-100</text><path d="M1046.7,405.0 L1046.7,412.1 L1046.7,408.2 L1046.8,403.4 L1046.8,406.5 L1046.8,402.9 L1046.9,405.1 L1046.9,410.0 L1046.9,403.2 L1047.0,402.1 L1047.0,406.5 L1047.0,409.7 L1047.0,398.5 L1047.1,409.4 L1047.1,397.6 L1047.1,398.6 L1047.2,392.8 L1047.2,390.1 L1047.2,403.7 L1047.3,401.1 L1047.3,386.8 L1047.3,382.7 L1047.4,406.0 L1047.4,368.8 L1047.4,385.9 L1047.4,368.2 L1047.5,385.5 L1047.5,373.0 L1047.5,398.8 L1047.6,401.2 L1047.6,344.5 L1047.6,403.0 L1047.6,368.9 L1047.7,331.6 L1047.7,395.6 L1047.7,396.6 L1047.8,322.1 L1047.8,381.5 L1047.8,369.9 L1047.9,354.9 L1047.9,321.6 L1047.9,339.9 L1047.9,399.2 L1048.0,355.1 L1048.0,294.7 L1048.0,307.4 L1048.1,405.5 L1048.1,287.9 L1048.1,375.8 L1048.2,336.0 L1048.2,306.1 L1048.2,383.3 L1048.2,353.7 L1048.3,233.7 L1048.3,373.2 L1048.3,330.6 L1048.4,256.5 L1048.4,384.3 L1048.4,395.3 L1048.5,323.9 L1048.5,374.6 L1048.5,236.3 L1048.5,271.3 L1048.6,406.0 L1048.6,387.9 L1048.6,318.1 L1048.7,180.7 L1048.7,338.7 L1048.7,331.0 L1048.8,219.3 L1048.8,401.5 L1048.8,186.7 L1048.8,242.9 L1048.9,256.3 L1048.9,229.0 L1048.9,189.8 L1049.0,348.0 L1049.0,321.0 L1049.0,348.4 L1049.1,267.9 L1049.1,178.1 L1049.1,333.2 L1049.1,247.7 L1049.2,240.8 L1049.2,271.2 L1049.2,233.8 L1049.3,356.6 L1049.3,324.3 L1049.3,380.8 L1049.4,125.0 L1049.4,342.9 L1049.4,290.2 L1049.5,132.3 L1049.5,363.8 L1049.5,356.9 L1049.5,226.3 L1049.6,112.9 L1049.6,250.3 L1049.6,103.8 L1049.7,314.1 L1049.7,292.3 L1049.7,345.3 L1049.8,273.8 L1049.8,135.9 L1049.8,276.7 L1049.8,245.1 L1049.9,103.5 L1049.9,120.9 L1049.9,334.2 L1050.0,346.9 L1050.0,255.6 L1050.0,184.5 L1050.0,331.0 L1050.1,320.8 L1050.1,338.9 L1050.1,85.3 L1050.2,182.5 L1050.2,315.9 L1050.2,356.1 L1050.3,192.7 L1050.3,283.6 L1050.3,146.3 L1050.4,80.7 L1050.4,169.8 L1050.4,301.4 L1050.4,353.6 L1050.5,376.6 L1050.5,96.1 L1050.5,361.4 L1050.6,287.3 L1050.6,364.1 L1050.6,81.9 L1050.7,92.8 L1050.7,267.3 L1050.7,185.8 L1050.7,317.7 L1050.8,292.3 L1050.8,76.0 L1050.8,214.6 L1050.9,212.7 L1050.9,368.2 L1050.9,256.2 L1051.0,329.7 L1051.0,376.2 L1051.0,273.4 L1051.1,237.8 L1051.1,261.5 L1051.1,185.7 L1051.1,225.2 L1051.2,213.5 L1051.2,364.7 L1051.2,316.0 L1051.3,358.9 L1051.3,309.7 L1051.3,163.9 L1051.4,254.4 L1051.4,263.0 L1051.4,284.6 L1051.4,248.1 L1051.5,189.4 L1051.5,172.7 L1051.5,380.0 L1051.6,205.6 L1051.6,411.4 L1051.6,297.0 L1051.7,343.5 L1051.7,130.9 L1051.7,145.6 L1051.8,160.6 L1051.8,134.9 L1051.8,163.5 L1051.8,397.5 L1051.9,290.4 L1051.9,142.2 L1051.9,314.4 L1052.0,157.8 L1052.0,410.3 L1052.0,227.6 L1052.1,381.3 L1052.1,301.1 L1052.1,380.5 L1052.1,137.8 L1052.2,115.6 L1052.2,246.7 L1052.3,178.3 L1052.3,395.5 L1052.3,324.5 L1052.3,79.2 L1052.4,204.2 L1052.4,288.3 L1052.4,328.0 L1052.5,284.7 L1052.5,328.6 L1052.5,189.1 L1052.6,192.3 L1052.6,275.1 L1052.6,283.9 L1052.7,280.8 L1052.7,160.6 L1052.7,408.0 L1052.7,91.6 L1052.8,238.1 L1052.8,238.5 L1052.8,344.4 L1052.9,241.4 L1052.9,171.7 L1052.9,398.5 L1053.0,294.9 L1053.0,317.3 L1053.0,154.4 L1053.1,362.3 L1053.1,404.2 L1053.1,329.0 L1053.2,392.4 L1053.2,196.6 L1053.2,301.3 L1053.2,141.9 L1053.3,95.5 L1053.3,231.4 L1053.3,406.3 L1053.4,173.2 L1053.4,216.0 L1053.4,251.7 L1053.5,133.1 L1053.5,314.2 L1053.5,166.9 L1053.5,256.5 L1053.6,370.9 L1053.6,108.1 L1053.7,228.4 L1053.7,119.8 L1053.7,223.8 L1053.7,260.8 L1053.8,248.7 L1053.8,389.0 L1053.8,336.9 L1053.9,150.8 L1053.9,317.5 L1053.9,381.3 L1054.0,113.1 L1054.0,162.1 L1054.0,143.1 L1054.0,384.9 L1054.1,212.5 L1054.1,346.0 L1054.1,109.5 L1054.2,326.7 L1054.2,240.1 L1054.2,403.3 L1054.3,212.3 L1054.3,98.3 L1054.3,273.7 L1054.4,343.5 L1054.4,113.2 L1054.4,408.9 L1054.5,348.1 L1054.5,340.7 L1054.5,182.7 L1054.5,275.4 L1054.6,330.1 L1054.6,243.0 L1054.6,148.5 L1054.7,234.8 L1054.7,229.7 L1054.7,260.1 L1054.8,153.3 L1054.8,410.4 L1054.8,190.6 L1054.8,293.3 L1054.9,329.9 L1054.9,118.8 L1054.9,159.5 L1055.0,406.4 L1055.0,263.0 L1055.0,250.6 L1055.1,356.2 L1055.1,179.1 L1055.1,249.1 L1055.2,411.5 L1055.2,160.2 L1055.2,357.5 L1055.3,215.2 L1055.3,352.4 L1055.3,394.9 L1055.4,267.5 L1055.4,376.1 L1055.4,322.3 L1055.4,281.3 L1055.5,222.0 L1055.5,280.8 L1055.5,353.5 L1055.6,132.4 L1055.6,271.5 L1055.6,215.8 L1055.7,342.8 L1055.7,331.7 L1055.7,304.8 L1055.7,186.7 L1055.8,181.4 L1055.8,348.0 L1055.9,335.9 L1055.9,167.3 L1055.9,356.2 L1056.0,159.3 L1056.0,232.2 L1056.0,238.0 L1056.0,132.4 L1056.1,263.7 L1056.1,174.9 L1056.1,381.3 L1056.2,182.6 L1056.2,404.2 L1056.2,206.6 L1056.3,311.9 L1056.3,396.2 L1056.3,285.8 L1056.3,150.5 L1056.4,335.6 L1056.4,380.5 L1056.4,246.4 L1056.5,341.1 L1056.5,199.0 L1056.6,369.2 L1056.6,202.4 L1056.6,219.7 L1056.7,384.0 L1056.7,409.0 L1056.7,233.9 L1056.7,270.1 L1056.8,406.3 L1056.8,238.1 L1056.8,386.3 L1056.9,322.8 L1056.9,247.5 L1056.9,203.7 L1057.0,157.2 L1057.0,303.1 L1057.0,207.2 L1057.0,226.4 L1057.1,270.9 L1057.1,334.8 L1057.1,227.6 L1057.2,231.9 L1057.2,351.1 L1057.3,381.4 L1057.3,278.7 L1057.3,254.6 L1057.4,322.6 L1057.4,323.4 L1057.4,178.7 L1057.5,207.6 L1057.5,191.1 L1057.5,384.6 L1057.6,308.0 L1057.6,186.6 L1057.6,300.1 L1057.6,180.1 L1057.7,324.4 L1057.7,400.6 L1057.7,376.8 L1057.8,331.4 L1057.8,193.0 L1057.8,392.6 L1057.9,218.6 L1057.9,245.2 L1057.9,244.2 L1057.9,385.6 L1058.0,293.8 L1058.1,218.4 L1058.1,392.3 L1058.1,398.1 L1058.1,235.5 L1058.2,182.0 L1058.2,351.7 L1058.2,365.3 L1058.3,244.9 L1058.3,225.4 L1058.3,187.1 L1058.4,289.7 L1058.4,394.7 L1058.4,190.0 L1058.4,403.8 L1058.5,245.4 L1058.5,257.5 L1058.5,241.0 L1058.6,228.4 L1058.6,256.1 L1058.6,395.3 L1058.7,293.0 L1058.7,271.5 L1058.8,192.1 L1058.8,347.4 L1058.8,268.6 L1058.9,308.1 L1058.9,250.4 L1058.9,263.0 L1059.0,348.5 L1059.0,225.6 L1059.0,349.9 L1059.0,358.1 L1059.1,273.4 L1059.1,205.7 L1059.1,323.2 L1059.2,350.9 L1059.2,379.4 L1059.2,313.0 L1059.2,275.2 L1059.3,323.9 L1059.3,385.1 L1059.3,316.6 L1059.4,276.4 L1059.4,302.5 L1059.4,359.2 L1059.5,312.9 L1059.5,226.8 L1059.6,359.9 L1059.6,248.7 L1059.6,249.5 L1059.7,270.7 L1059.7,328.2 L1059.7,337.8 L1059.8,215.6 L1059.8,302.4 L1059.8,388.6 L1059.8,223.1 L1059.9,340.2 L1059.9,216.4 L1059.9,264.4 L1060.0,407.6 L1060.0,357.9 L1060.0,292.8 L1060.1,369.8 L1060.1,287.7 L1060.1,365.9 L1060.1,354.2 L1060.2,257.5 L1060.3,261.8 L1060.3,315.5 L1060.3,368.0 L1060.4,277.5 L1060.4,331.8 L1060.4,318.9 L1060.4,265.4 L1060.5,349.2 L1060.5,287.5 L1060.5,303.8 L1060.6,369.0 L1060.6,246.6 L1060.6,265.6 L1060.7,255.4 L1060.7,378.4 L1060.7,322.5 L1060.7,314.7 L1060.8,367.8 L1060.8,356.4 L1060.8,405.7 L1060.9,340.8 L1060.9,408.9 L1060.9,368.2 L1061.0,295.5 L1061.0,289.9 L1061.1,282.5 L1061.1,405.1 L1061.1,243.1 L1061.2,382.3 L1061.2,375.2 L1061.2,273.8 L1061.2,271.9 L1061.3,344.8 L1061.3,318.0 L1061.3,344.9 L1061.4,377.4 L1061.4,253.9 L1061.4,288.8 L1061.5,294.6 L1061.5,255.9 L1061.5,367.4 L1061.5,284.0 L1061.6,395.5 L1061.6,400.8 L1061.6,258.6 L1061.7,325.4 L1061.8,309.0 L1061.8,331.8 L1061.8,410.3 L1061.8,280.9 L1061.9,391.3 L1061.9,271.5 L1061.9,267.8 L1062.0,348.2 L1062.0,317.2 L1062.0,323.4 L1062.1,284.4 L1062.1,402.5 L1062.1,374.3 L1062.1,331.7 L1062.2,272.8 L1062.2,337.1 L1062.2,300.8 L1062.3,290.3 L1062.3,314.8 L1062.3,323.7 L1062.3,288.6 L1062.4,307.4 L1062.4,405.6 L1062.5,346.5 L1062.5,358.9 L1062.6,409.1 L1062.6,389.4 L1062.6,372.0 L1062.6,283.4 L1062.7,354.2 L1062.7,286.7 L1062.7,356.9 L1062.8,291.6 L1062.8,408.2 L1062.8,378.9 L1062.9,302.2 L1062.9,294.8 L1062.9,296.0 L1062.9,387.9 L1063.0,401.5 L1063.0,357.0 L1063.0,365.5 L1063.1,401.6 L1063.1,344.7 L1063.1,359.8 L1063.2,338.0 L1063.2,308.2 L1063.3,393.1 L1063.3,314.0 L1063.3,406.6 L1063.4,360.9 L1063.4,331.5 L1063.4,312.2 L1063.5,378.1 L1063.5,391.5 L1063.5,330.7 L1063.5,383.1 L1063.6,354.0 L1063.6,357.4 L1063.6,356.4 L1063.7,375.0 L1063.7,328.8 L1063.7,359.5 L1063.8,323.8 L1063.8,375.7 L1063.8,335.2 L1063.8,312.1 L1063.9,379.7 L1063.9,372.2 L1064.0,331.5 L1064.0,357.7 L1064.1,369.7 L1064.1,360.2 L1064.1,406.9 L1064.1,371.2 L1064.2,336.9 L1064.2,358.4 L1064.2,323.2 L1064.3,327.7 L1064.3,324.0 L1064.3,395.7 L1064.4,404.5 L1064.4,387.5 L1064.4,408.5 L1064.4,379.3 L1064.5,329.7 L1064.5,391.2 L1064.5,361.5 L1064.6,362.9 L1064.6,377.6 L1064.6,344.7 L1064.7,406.7 L1064.7,358.6 L1064.8,382.2 L1064.8,394.1 L1064.9,379.7 L1064.9,356.3 L1064.9,342.2 L1064.9,346.2 L1065.0,396.7 L1065.0,342.2 L1065.0,387.6 L1065.1,384.2 L1065.1,407.3 L1065.1,366.4 L1065.2,376.9 L1065.2,366.6 L1065.2,360.3 L1065.2,391.2 L1065.3,353.4 L1065.3,385.3 L1065.3,364.9 L1065.4,407.0 L1065.4,356.8 L1065.5,395.5 L1065.6,382.7 L1065.6,357.7 L1065.6,384.3 L1065.7,396.9 L1065.7,370.9 L1065.7,390.6 L1065.8,383.3 L1065.8,361.5 L1065.8,389.9 L1065.8,404.7 L1065.9,402.2 L1065.9,377.2 L1065.9,367.1 L1066.0,399.4 L1066.0,387.1 L1066.0,367.5 L1066.1,376.0 L1066.1,401.8 L1066.1,371.0 L1066.1,371.4 L1066.2,395.0 L1066.2,397.2 L1066.3,388.0 L1066.4,395.7 L1066.4,394.2 L1066.4,378.3 L1066.5,399.6 L1066.5,406.0 L1066.5,382.7 L1066.6,396.7 L1066.6,404.4 L1066.6,408.6 L1066.6,405.0 L1066.7,388.2 L1066.7,405.2 L1066.7,387.5 L1066.8,402.5 L1066.8,407.2 L1066.8,408.7 L1066.9,400.4 L1066.9,391.0 L1066.9,397.9 L1067.0,394.3 L1067.0,394.4 L1067.0,401.3 L1067.1,402.3 L1067.2,401.4 L1067.2,411.6 L1067.2,406.9 L1067.3,410.4 L1067.3,410.0 L1067.3,405.8 L1067.4,403.1 L1067.4,410.8 L1067.4,411.8 L1067.5,407.7 L1067.5,410.8 L1067.5,408.7 L1067.5,407.4 L1067.6,409.0 L1067.6,409.2 L1067.6,410.3 L1067.7,412.6 L1067.7,411.0 L1067.7,413.3 L1067.8,412.7 L1067.8,414.0 L1067.8,413.6 L1068.0,413.6 L1068.0,416.5 L1068.0,414.0 L1068.0,417.3 L1068.1,409.5 L1068.1,422.8 L1068.1,422.5 L1068.2,415.7 L1068.2,421.9 L1068.2,426.5 L1068.3,411.4 L1068.3,426.5 L1068.3,421.3 L1068.3,426.6 L1068.4,414.4 L1068.4,418.8 L1068.4,413.0 L1068.5,420.3 L1068.5,412.1 L1068.5,427.9 L1068.6,414.7 L1068.6,420.5 L1068.6,427.0 L1068.8,435.2 L1068.8,413.1 L1068.8,423.2 L1068.8,435.8 L1068.9,431.3 L1068.9,416.9 L1068.9,420.5 L1069.0,429.9 L1069.0,443.2 L1069.0,439.4 L1069.1,416.9 L1069.1,416.8 L1069.1,447.1 L1069.1,417.0 L1069.2,432.6 L1069.2,433.7 L1069.2,447.5 L1069.3,443.9 L1069.3,416.3 L1069.3,411.7 L1069.4,415.8 L1069.4,433.3 L1069.4,449.9 L1069.6,423.1 L1069.6,450.8 L1069.6,439.3 L1069.7,430.6 L1069.7,422.5 L1069.7,465.0 L1069.7,419.5 L1069.8,431.7 L1069.8,453.4 L1069.8,445.1 L1069.9,447.4 L1069.9,418.7 L1069.9,424.8 L1070.0,438.7 L1070.0,440.6 L1070.0,461.6 L1070.0,467.2 L1070.1,409.7 L1070.1,439.1 L1070.1,436.3 L1070.2,447.0 L1070.2,466.9 L1070.2,434.1 L1070.4,433.4 L1070.4,455.1 L1070.4,412.3 L1070.5,474.7 L1070.5,450.6 L1070.5,438.6 L1070.5,411.6 L1070.6,430.6 L1070.6,427.4 L1070.6,460.3 L1070.7,474.7 L1070.7,448.8 L1070.7,461.4 L1070.8,448.1 L1070.8,430.9 L1070.8,438.1 L1070.9,447.9 L1070.9,466.3 L1070.9,468.7 L1070.9,489.6 L1071.0,418.3 L1071.0,483.1 L1071.0,433.1 L1071.2,503.5 L1071.2,467.1 L1071.2,423.3 L1071.3,497.7 L1071.3,434.6 L1071.3,466.8 L1071.4,485.8 L1071.4,509.3 L1071.4,458.2 L1071.4,480.3 L1071.5,464.1 L1071.5,489.2 L1071.5,415.2 L1071.6,451.0 L1071.6,508.9 L1071.6,471.8 L1071.7,441.3 L1071.7,500.7 L1071.7,496.7 L1071.7,431.3 L1071.8,515.6 L1071.8,433.8 L1071.8,436.7 L1072.0,449.6 L1072.0,430.3 L1072.0,478.3 L1072.1,517.2 L1072.1,474.4 L1072.1,466.9 L1072.2,493.2 L1072.2,453.6 L1072.2,482.1 L1072.3,470.4 L1072.3,454.7 L1072.3,420.4 L1072.3,423.2 L1072.4,452.7 L1072.4,412.0 L1072.4,518.8 L1072.5,429.4 L1072.5,493.7 L1072.5,477.4 L1072.6,511.5 L1072.6,530.3 L1072.6,501.3 L1072.6,443.8 L1072.8,493.4 L1072.8,417.4 L1072.8,543.4 L1072.9,544.0 L1072.9,505.4 L1072.9,409.8 L1073.0,543.6 L1073.0,534.1 L1073.0,452.7 L1073.1,519.9 L1073.1,433.0 L1073.1,422.7 L1073.1,531.9 L1073.2,488.3 L1073.2,544.0 L1073.2,524.2 L1073.3,513.2 L1073.3,493.9 L1073.3,522.5 L1073.4,491.5 L1073.4,544.0 L1073.4,544.0 L1073.4,544.0 L1073.6,430.0 L1073.6,440.1 L1073.7,436.4 L1073.7,478.0 L1073.7,516.9 L1073.7,464.7 L1073.8,544.0 L1073.8,495.5 L1073.8,471.5 L1073.9,457.4 L1073.9,507.3 L1073.9,544.0 L1074.0,544.0 L1074.0,483.8 L1074.0,450.4 L1074.0,532.5 L1074.1,441.6 L1074.1,515.9 L1074.1,544.0 L1074.2,430.5 L1074.2,543.9 L1074.2,496.4 L1074.3,544.0 L1074.4,433.4 L1074.4,539.8 L1074.5,491.1 L1074.5,544.0 L1074.5,544.0 L1074.5,469.5 L1074.6,427.5 L1074.6,544.0 L1074.6,544.0 L1074.7,544.0 L1074.7,544.0 L1074.7,544.0 L1074.8,544.0 L1074.8,544.0 L1074.8,508.5 L1074.9,434.7 L1074.9,514.4 L1074.9,424.0 L1074.9,517.9 L1075.0,425.9 L1075.0,426.3 L1075.0,544.0 L1075.1,491.2 L1075.2,472.4 L1075.2,516.5 L1075.3,544.0 L1075.3,542.4 L1075.3,524.7 L1075.4,477.0 L1075.4,506.2 L1075.4,544.0 L1075.4,544.0 L1075.5,436.0 L1075.5,486.1 L1075.5,518.6 L1075.6,480.1 L1075.6,526.6 L1075.6,478.3 L1075.7,469.7 L1075.7,528.8 L1075.7,501.1 L1075.7,500.8 L1075.8,420.3 L1075.8,544.0 L1075.8,544.0 L1075.9,544.0 L1076.0,544.0 L1076.0,430.8 L1076.1,487.0 L1076.1,544.0 L1076.1,446.1 L1076.2,508.2 L1076.2,424.7 L1076.2,469.5 L1076.3,544.0 L1076.3,510.1 L1076.3,415.9 L1076.3,412.8 L1076.4,544.0 L1076.4,544.0 L1076.4,446.7 L1076.5,424.0 L1076.5,448.9 L1076.5,497.2 L1076.6,544.0 L1076.6,544.0 L1076.6,544.0 L1076.7,522.2 L1076.7,469.5 L1076.8,544.0 L1076.9,544.0 L1076.9,512.5 L1076.9,412.4 L1076.9,443.3 L1077.0,462.1 L1077.0,544.0 L1077.0,544.0 L1077.1,544.0 L1077.1,544.0 L1077.1,544.0 L1077.2,489.9 L1077.2,544.0 L1077.2,544.0 L1077.2,544.0 L1077.3,539.5 L1077.3,492.6 L1077.3,544.0 L1077.4,534.2 L1077.4,425.4 L1077.4,544.0 L1077.5,412.2 L1077.5,527.5 L1077.6,422.9 L1077.7,544.0 L1077.7,544.0 L1077.7,544.0 L1077.7,440.4 L1077.8,544.0 L1077.8,544.0 L1077.8,456.6 L1077.9,544.0 L1077.9,465.1 L1077.9,544.0 L1078.0,544.0 L1078.0,527.5 L1078.0,544.0 L1078.1,544.0 L1078.1,458.4 L1078.1,544.0 L1078.1,434.6 L1078.2,431.5 L1078.2,537.4 L1078.2,433.6 L1078.3,544.0 L1078.3,489.3 L1078.4,544.0 L1078.5,475.3 L1078.5,488.3 L1078.5,544.0 L1078.6,544.0 L1078.6,544.0 L1078.6,544.0 L1078.6,544.0 L1078.7,498.8 L1078.7,472.6 L1078.7,509.2 L1078.8,544.0 L1078.8,439.6 L1078.8,544.0 L1078.9,544.0 L1078.9,544.0 L1078.9,544.0 L1079.0,544.0 L1079.0,544.0 L1079.0,411.8 L1079.0,534.8 L1079.1,544.0 L1079.1,544.0 L1079.2,544.0 L1079.3,544.0 L1079.3,544.0 L1079.3,544.0 L1079.4,544.0 L1079.4,544.0 L1079.4,479.8 L1079.5,438.1 L1079.5,472.7 L1079.5,544.0 L1079.6,544.0 L1079.6,521.9 L1079.6,544.0 L1079.6,544.0 L1079.7,544.0 L1079.7,523.7 L1079.7,428.0 L1079.8,544.0 L1079.8,544.0 L1079.8,544.0 L1079.9,544.0 L1079.9,544.0 L1079.9,429.9 L1080.1,544.0 L1080.1,456.9 L1080.1,457.7 L1080.1,544.0 L1080.2,476.4 L1080.2,544.0 L1080.2,544.0 L1080.3,492.1 L1080.3,541.6 L1080.3,496.2 L1080.4,527.0 L1080.4,417.0 L1080.4,502.3 L1080.5,544.0 L1080.5,422.9 L1080.5,544.0 L1080.5,544.0 L1080.6,544.0 L1080.6,499.0 L1080.6,544.0 L1080.7,544.0 L1080.7,544.0 L1080.7,544.0 L1080.9,544.0 L1080.9,508.7 L1080.9,416.6 L1081.0,544.0 L1081.0,544.0 L1081.0,544.0 L1081.1,544.0 L1081.1,422.3 L1081.1,544.0 L1081.1,544.0 L1081.2,544.0 L1081.2,544.0 L1081.2,544.0 L1081.3,539.3 L1081.3,486.9 L1081.3,544.0 L1081.4,544.0 L1081.4,544.0 L1081.4,478.2 L1081.4,544.0 L1081.5,544.0 L1081.5,544.0 L1081.5,544.0 L1081.7,544.0 L1081.7,544.0 L1081.7,457.9 L1081.8,465.1 L1081.8,544.0 L1081.8,544.0 L1081.9,544.0 L1081.9,544.0 L1081.9,544.0 L1082.0,451.6 L1082.0,544.0 L1082.0,544.0 L1082.0,544.0 L1082.1,544.0 L1082.1,544.0 L1082.1,544.0 L1082.2,544.0 L1082.2,521.4 L1082.2,544.0 L1082.3,544.0 L1082.3,544.0 L1082.3,544.0 L1082.3,544.0 L1082.5,544.0 L1082.5,544.0 L1082.6,544.0 L1082.6,544.0 L1082.6,544.0 L1082.6,440.9 L1082.7,544.0 L1082.7,544.0 L1082.7,544.0 L1082.8,544.0 L1082.8,544.0 L1082.8,544.0 L1082.9,544.0 L1082.9,544.0 L1082.9,538.8 L1082.9,544.0 L1083.0,490.6 L1083.0,544.0 L1083.1,544.0 L1083.1,544.0 L1083.3,544.0 L1083.3,475.1 L1083.4,544.0 L1083.4,544.0 L1083.4,544.0 L1083.5,544.0 L1083.5,544.0 L1083.5,544.0 L1083.5,544.0 L1083.6,544.0 L1083.7,544.0 L1083.7,507.4 L1083.7,544.0 L1083.8,544.0 L1083.8,544.0 L1083.8,418.0 L1083.9,544.0 L1084.0,544.0 L1084.0,544.0" fill="none" stroke="#1f77b4" stroke-width="1.4" opacity="0.85"/><text x="1040" y="54" fill="#ff7f0e" font-size="11">roll 32</text><text x="1090" y="558" fill="#ff7f0e" font-size="11">-29</text><path d="M1046.7,322.6 L1046.7,316.5 L1046.7,316.5 L1046.8,318.0 L1046.8,326.4 L1046.8,321.0 L1046.9,326.4 L1046.9,321.8 L1046.9,319.5 L1047.0,315.7 L1047.0,322.6 L1047.0,318.8 L1047.0,328.6 L1047.1,318.8 L1047.1,321.8 L1047.1,314.9 L1047.2,313.4 L1047.2,323.3 L1047.2,318.0 L1047.3,324.8 L1047.3,322.6 L1047.3,316.5 L1047.4,317.2 L1047.4,324.8 L1047.4,320.3 L1047.4,327.1 L1047.5,320.3 L1047.5,314.2 L1047.5,325.6 L1047.6,321.0 L1047.6,322.6 L1047.6,325.6 L1047.6,323.3 L1047.7,322.6 L1047.7,322.6 L1047.7,319.5 L1047.8,313.4 L1047.8,314.9 L1047.8,316.5 L1047.9,315.7 L1047.9,318.0 L1047.9,327.9 L1047.9,325.6 L1048.0,321.8 L1048.0,323.3 L1048.0,314.9 L1048.1,314.9 L1048.1,312.7 L1048.1,311.9 L1048.2,311.9 L1048.2,322.6 L1048.2,315.7 L1048.2,321.0 L1048.3,314.2 L1048.3,323.3 L1048.3,324.8 L1048.4,328.6 L1048.4,317.2 L1048.4,315.7 L1048.5,324.8 L1048.5,317.2 L1048.5,314.2 L1048.5,326.4 L1048.6,312.7 L1048.6,320.3 L1048.6,326.4 L1048.7,311.1 L1048.7,309.6 L1048.7,314.9 L1048.8,309.6 L1048.8,324.8 L1048.8,322.6 L1048.8,326.4 L1048.9,311.1 L1048.9,309.6 L1048.9,325.6 L1049.0,322.6 L1049.0,314.2 L1049.0,312.7 L1049.1,314.2 L1049.1,323.3 L1049.1,308.9 L1049.1,321.8 L1049.2,312.7 L1049.2,313.4 L1049.2,322.6 L1049.3,317.2 L1049.3,321.8 L1049.3,320.3 L1049.4,318.0 L1049.4,327.9 L1049.4,311.9 L1049.5,327.1 L1049.5,311.1 L1049.5,314.2 L1049.5,325.6 L1049.6,318.0 L1049.6,314.9 L1049.6,327.1 L1049.7,321.8 L1049.7,308.9 L1049.7,321.8 L1049.8,324.8 L1049.8,320.3 L1049.8,313.4 L1049.8,327.9 L1049.9,313.4 L1049.9,327.1 L1049.9,318.0 L1050.0,313.4 L1050.0,310.4 L1050.0,327.1 L1050.0,311.9 L1050.1,314.2 L1050.1,310.4 L1050.1,321.0 L1050.2,319.5 L1050.2,310.4 L1050.2,321.0 L1050.3,308.9 L1050.3,321.8 L1050.3,320.3 L1050.4,318.0 L1050.4,314.9 L1050.4,311.9 L1050.4,323.3 L1050.5,317.2 L1050.5,313.4 L1050.5,323.3 L1050.6,318.8 L1050.6,311.1 L1050.6,307.3 L1050.7,312.7 L1050.7,324.1 L1050.7,313.4 L1050.7,326.4 L1050.8,327.9 L1050.8,324.1 L1050.8,327.9 L1050.9,308.1 L1050.9,311.9 L1050.9,319.5 L1051.0,310.4 L1051.0,309.6 L1051.0,308.1 L1051.1,324.8 L1051.1,323.3 L1051.1,298.2 L1051.1,314.9 L1051.2,295.9 L1051.2,277.7 L1051.2,243.4 L1051.3,229.7 L1051.3,279.2 L1051.3,324.8 L1051.4,283.0 L1051.4,317.2 L1051.4,318.8 L1051.4,326.4 L1051.5,301.2 L1051.5,273.9 L1051.5,257.9 L1051.6,297.4 L1051.6,270.8 L1051.6,289.8 L1051.7,322.6 L1051.7,318.0 L1051.7,230.5 L1051.8,248.0 L1051.8,315.7 L1051.8,309.6 L1051.8,296.7 L1051.9,257.1 L1051.9,235.8 L1051.9,260.2 L1052.0,267.0 L1052.0,288.3 L1052.0,234.3 L1052.1,285.3 L1052.1,257.9 L1052.1,299.7 L1052.1,287.6 L1052.2,307.3 L1052.2,285.3 L1052.3,311.1 L1052.3,213.7 L1052.3,219.1 L1052.3,295.9 L1052.4,293.6 L1052.4,321.8 L1052.4,190.1 L1052.5,222.9 L1052.5,277.7 L1052.5,324.8 L1052.6,316.5 L1052.6,248.7 L1052.6,261.7 L1052.7,279.9 L1052.7,321.0 L1052.7,279.2 L1052.7,309.6 L1052.8,324.8 L1052.8,330.9 L1052.8,318.8 L1052.9,328.6 L1052.9,324.1 L1052.9,276.9 L1053.0,320.3 L1053.0,295.2 L1053.0,311.1 L1053.1,292.9 L1053.1,288.3 L1053.1,243.4 L1053.2,312.7 L1053.2,300.5 L1053.2,212.2 L1053.2,248.0 L1053.3,296.7 L1053.3,300.5 L1053.3,288.3 L1053.4,273.1 L1053.4,258.6 L1053.4,197.0 L1053.5,281.5 L1053.5,227.4 L1053.5,296.7 L1053.5,311.1 L1053.6,179.5 L1053.6,114.8 L1053.7,112.5 L1053.7,319.5 L1053.7,279.2 L1053.7,287.6 L1053.8,250.3 L1053.8,209.2 L1053.8,201.6 L1053.9,209.9 L1053.9,150.6 L1053.9,108.7 L1054.0,251.8 L1054.0,262.4 L1054.0,302.8 L1054.0,313.4 L1054.1,241.1 L1054.1,247.2 L1054.1,197.0 L1054.2,263.2 L1054.2,232.8 L1054.2,266.2 L1054.3,284.5 L1054.3,291.4 L1054.3,289.8 L1054.4,243.4 L1054.4,159.7 L1054.4,93.5 L1054.5,98.8 L1054.5,127.0 L1054.5,249.5 L1054.5,145.2 L1054.6,217.5 L1054.6,305.1 L1054.6,204.6 L1054.7,133.1 L1054.7,181.0 L1054.7,253.3 L1054.8,259.4 L1054.8,95.0 L1054.8,76.8 L1054.8,205.4 L1054.9,286.0 L1054.9,154.4 L1054.9,133.8 L1055.0,79.8 L1055.0,265.5 L1055.0,82.1 L1055.1,222.9 L1055.1,137.6 L1055.1,155.1 L1055.2,299.7 L1055.2,76.0 L1055.2,276.1 L1055.3,206.9 L1055.3,295.2 L1055.3,235.0 L1055.4,205.4 L1055.4,293.6 L1055.4,213.7 L1055.4,149.1 L1055.5,184.1 L1055.5,218.3 L1055.5,248.0 L1055.6,252.5 L1055.6,197.0 L1055.6,205.4 L1055.7,194.7 L1055.7,155.9 L1055.7,296.7 L1055.7,181.8 L1055.8,261.7 L1055.8,274.6 L1055.9,255.6 L1055.9,299.7 L1055.9,295.2 L1056.0,195.5 L1056.0,307.3 L1056.0,182.5 L1056.0,181.0 L1056.1,305.8 L1056.1,289.1 L1056.1,224.4 L1056.2,250.3 L1056.2,295.9 L1056.2,226.7 L1056.3,322.6 L1056.3,234.3 L1056.3,182.5 L1056.3,212.2 L1056.4,245.7 L1056.4,256.4 L1056.4,203.1 L1056.5,248.7 L1056.5,214.5 L1056.6,194.7 L1056.6,283.0 L1056.6,280.7 L1056.7,296.7 L1056.7,283.7 L1056.7,238.8 L1056.7,225.2 L1056.8,229.7 L1056.8,286.8 L1056.8,263.2 L1056.9,314.9 L1056.9,308.1 L1056.9,257.1 L1057.0,208.4 L1057.0,244.9 L1057.0,250.3 L1057.0,258.6 L1057.1,306.6 L1057.1,172.6 L1057.1,204.6 L1057.2,158.9 L1057.2,173.4 L1057.3,304.3 L1057.3,168.8 L1057.3,309.6 L1057.4,251.0 L1057.4,222.1 L1057.4,265.5 L1057.5,296.7 L1057.5,275.4 L1057.5,325.6 L1057.6,180.3 L1057.6,185.6 L1057.6,182.5 L1057.6,244.9 L1057.7,182.5 L1057.7,272.3 L1057.7,197.0 L1057.8,313.4 L1057.8,316.5 L1057.8,221.3 L1057.9,310.4 L1057.9,215.3 L1057.9,227.4 L1057.9,249.5 L1058.0,316.5 L1058.1,193.2 L1058.1,304.3 L1058.1,241.9 L1058.1,320.3 L1058.2,226.7 L1058.2,314.9 L1058.2,244.9 L1058.3,248.7 L1058.3,261.7 L1058.3,302.8 L1058.4,328.6 L1058.4,328.6 L1058.4,235.0 L1058.4,241.9 L1058.5,237.3 L1058.5,317.2 L1058.5,231.2 L1058.6,318.0 L1058.6,216.8 L1058.6,315.7 L1058.7,227.4 L1058.7,213.7 L1058.8,273.1 L1058.8,160.5 L1058.8,311.9 L1058.9,324.1 L1058.9,173.4 L1058.9,325.6 L1059.0,238.1 L1059.0,310.4 L1059.0,282.2 L1059.0,149.1 L1059.1,153.6 L1059.1,286.0 L1059.1,155.1 L1059.2,318.0 L1059.2,206.9 L1059.2,174.2 L1059.2,328.6 L1059.3,314.9 L1059.3,273.1 L1059.3,234.3 L1059.4,250.3 L1059.4,249.5 L1059.4,264.0 L1059.5,324.8 L1059.5,314.9 L1059.6,315.7 L1059.6,315.7 L1059.6,324.1 L1059.7,323.3 L1059.7,337.8 L1059.7,354.5 L1059.8,329.4 L1059.8,335.5 L1059.8,316.5 L1059.8,305.8 L1059.9,299.7 L1059.9,313.4 L1059.9,314.2 L1060.0,342.3 L1060.0,326.4 L1060.0,323.3 L1060.1,351.5 L1060.1,328.6 L1060.1,333.2 L1060.1,327.1 L1060.2,313.4 L1060.3,309.6 L1060.3,299.0 L1060.3,313.4 L1060.3,325.6 L1060.4,349.2 L1060.4,354.5 L1060.4,332.4 L1060.5,347.7 L1060.5,320.3 L1060.5,369.0 L1060.6,353.8 L1060.6,338.5 L1060.6,329.4 L1060.7,365.2 L1060.7,315.7 L1060.7,377.3 L1060.7,318.8 L1060.8,348.4 L1060.8,343.9 L1060.8,357.6 L1060.9,345.4 L1060.9,378.1 L1060.9,394.8 L1061.0,431.4 L1061.0,421.5 L1061.1,388.8 L1061.1,324.1 L1061.1,441.3 L1061.2,441.3 L1061.2,317.2 L1061.2,328.6 L1061.2,395.6 L1061.3,337.0 L1061.3,483.9 L1061.3,356.0 L1061.4,465.6 L1061.4,479.3 L1061.4,418.4 L1061.5,359.8 L1061.5,359.1 L1061.5,378.1 L1061.5,380.4 L1061.6,362.9 L1061.6,343.9 L1061.6,327.1 L1061.7,320.3 L1061.8,297.4 L1061.8,333.2 L1061.8,316.5 L1061.8,391.0 L1061.9,387.2 L1061.9,374.3 L1061.9,316.5 L1062.0,359.1 L1062.0,321.8 L1062.0,347.7 L1062.0,334.7 L1062.1,334.7 L1062.1,349.2 L1062.1,343.9 L1062.2,396.4 L1062.2,329.4 L1062.2,395.6 L1062.3,333.2 L1062.3,357.6 L1062.3,360.6 L1062.3,359.1 L1062.4,355.3 L1062.4,351.5 L1062.5,446.6 L1062.5,413.1 L1062.6,474.0 L1062.6,429.1 L1062.6,431.4 L1062.6,452.7 L1062.7,447.4 L1062.7,322.6 L1062.7,313.4 L1062.8,353.8 L1062.8,329.4 L1062.8,372.8 L1062.9,483.9 L1062.9,371.3 L1062.9,436.7 L1062.9,454.2 L1063.0,330.2 L1063.0,372.8 L1063.0,439.7 L1063.1,368.2 L1063.1,356.8 L1063.1,319.5 L1063.2,360.6 L1063.2,449.6 L1063.3,411.6 L1063.3,406.3 L1063.3,328.6 L1063.4,359.8 L1063.4,323.3 L1063.4,344.6 L1063.5,386.5 L1063.5,450.4 L1063.5,389.5 L1063.5,388.0 L1063.6,343.9 L1063.6,426.0 L1063.6,381.9 L1063.7,319.5 L1063.7,455.0 L1063.7,380.4 L1063.8,445.8 L1063.8,446.6 L1063.8,376.6 L1063.8,384.2 L1063.9,377.3 L1063.9,321.8 L1064.0,323.3 L1064.0,340.8 L1064.1,383.4 L1064.1,332.4 L1064.1,330.2 L1064.1,345.4 L1064.2,321.0 L1064.2,351.5 L1064.2,377.3 L1064.3,350.0 L1064.3,336.3 L1064.3,381.9 L1064.4,328.6 L1064.4,318.0 L1064.4,378.1 L1064.4,429.9 L1064.5,381.2 L1064.5,406.3 L1064.5,334.7 L1064.6,346.9 L1064.6,372.8 L1064.6,381.2 L1064.7,356.8 L1064.7,314.2 L1064.8,317.2 L1064.8,327.9 L1064.9,332.4 L1064.9,327.9 L1064.9,318.0 L1064.9,316.5 L1065.0,336.3 L1065.0,334.7 L1065.0,358.3 L1065.1,378.9 L1065.1,346.1 L1065.1,325.6 L1065.2,378.9 L1065.2,317.2 L1065.2,342.3 L1065.2,318.0 L1065.3,322.6 L1065.3,332.4 L1065.3,343.1 L1065.4,355.3 L1065.4,343.9 L1065.5,374.3 L1065.6,343.1 L1065.6,477.8 L1065.6,455.7 L1065.7,413.9 L1065.7,315.7 L1065.7,414.6 L1065.8,379.6 L1065.8,392.6 L1065.8,493.8 L1065.8,394.1 L1065.9,448.1 L1065.9,334.0 L1065.9,353.0 L1066.0,410.8 L1066.0,349.2 L1066.0,346.9 L1066.1,429.1 L1066.1,346.9 L1066.1,468.7 L1066.1,484.6 L1066.2,452.7 L1066.2,346.1 L1066.3,496.8 L1066.4,430.6 L1066.4,537.9 L1066.4,427.6 L1066.5,334.0 L1066.5,443.6 L1066.5,377.3 L1066.6,331.7 L1066.6,439.0 L1066.6,442.0 L1066.6,410.8 L1066.7,348.4 L1066.7,420.7 L1066.7,329.4 L1066.8,356.8 L1066.8,432.1 L1066.8,363.6 L1066.9,392.6 L1066.9,372.8 L1066.9,357.6 L1067.0,346.1 L1067.0,417.7 L1067.0,356.8 L1067.1,453.4 L1067.2,512.0 L1067.2,389.5 L1067.2,347.7 L1067.3,429.9 L1067.3,335.5 L1067.3,428.3 L1067.4,381.2 L1067.4,398.7 L1067.4,409.3 L1067.5,439.7 L1067.5,451.9 L1067.5,338.5 L1067.5,381.9 L1067.6,389.5 L1067.6,344.6 L1067.6,356.8 L1067.7,316.5 L1067.7,343.1 L1067.7,383.4 L1067.8,315.7 L1067.8,321.0 L1067.8,397.1 L1068.0,229.7 L1068.0,301.2 L1068.0,285.3 L1068.0,318.0 L1068.1,303.5 L1068.1,324.8 L1068.1,314.9 L1068.2,305.8 L1068.2,318.8 L1068.2,327.9 L1068.3,292.9 L1068.3,295.2 L1068.3,318.8 L1068.3,337.0 L1068.4,322.6 L1068.4,350.0 L1068.4,345.4 L1068.5,344.6 L1068.5,342.3 L1068.5,323.3 L1068.6,337.0 L1068.6,354.5 L1068.6,381.2 L1068.8,287.6 L1068.8,326.4 L1068.8,247.2 L1068.8,325.6 L1068.9,326.4 L1068.9,279.9 L1068.9,288.3 L1069.0,283.0 L1069.0,312.7 L1069.0,333.2 L1069.1,316.5 L1069.1,318.8 L1069.1,328.6 L1069.1,333.2 L1069.2,315.7 L1069.2,348.4 L1069.2,317.2 L1069.3,343.1 L1069.3,315.7 L1069.3,321.8 L1069.4,365.9 L1069.4,337.0 L1069.4,319.5 L1069.6,281.5 L1069.6,311.1 L1069.6,321.0 L1069.7,294.4 L1069.7,323.3 L1069.7,314.9 L1069.7,321.0 L1069.8,307.3 L1069.8,337.8 L1069.8,315.7 L1069.9,316.5 L1069.9,320.3 L1069.9,327.1 L1070.0,315.7 L1070.0,349.2 L1070.0,311.1 L1070.0,291.4 L1070.1,327.1 L1070.1,315.7 L1070.1,279.2 L1070.2,300.5 L1070.2,298.2 L1070.2,316.5 L1070.4,364.4 L1070.4,368.2 L1070.4,349.2 L1070.5,388.0 L1070.5,388.8 L1070.5,344.6 L1070.5,318.8 L1070.6,328.6 L1070.6,321.0 L1070.6,294.4 L1070.7,271.6 L1070.7,239.6 L1070.7,327.1 L1070.8,241.1 L1070.8,319.5 L1070.8,325.6 L1070.9,233.5 L1070.9,219.8 L1070.9,220.6 L1070.9,299.7 L1071.0,287.6 L1071.0,322.6 L1071.0,305.1 L1071.2,280.7 L1071.2,276.1 L1071.2,269.3 L1071.3,174.2 L1071.3,286.8 L1071.3,258.6 L1071.4,170.4 L1071.4,318.0 L1071.4,133.8 L1071.4,178.7 L1071.5,139.9 L1071.5,179.5 L1071.5,205.4 L1071.6,148.3 L1071.6,185.6 L1071.6,162.8 L1071.7,188.6 L1071.7,286.8 L1071.7,111.0 L1071.7,233.5 L1071.8,251.0 L1071.8,167.3 L1071.8,200.8 L1072.0,252.5 L1072.0,249.5 L1072.0,256.4 L1072.1,249.5 L1072.1,247.2 L1072.1,166.6 L1072.2,318.8 L1072.2,302.0 L1072.2,209.2 L1072.3,279.9 L1072.3,307.3 L1072.3,251.0 L1072.3,290.6 L1072.4,267.0 L1072.4,238.8 L1072.4,229.0 L1072.5,283.0 L1072.5,173.4 L1072.5,255.6 L1072.6,223.6 L1072.6,171.1 L1072.6,237.3 L1072.6,158.9 L1072.8,239.6 L1072.8,119.4 L1072.8,297.4 L1072.9,296.7 L1072.9,269.3 L1072.9,301.2 L1073.0,212.2 L1073.0,213.0 L1073.0,287.6 L1073.1,163.5 L1073.1,179.5 L1073.1,215.3 L1073.1,261.7 L1073.2,289.1 L1073.2,188.6 L1073.2,220.6 L1073.3,295.2 L1073.3,307.3 L1073.3,218.3 L1073.4,192.4 L1073.4,303.5 L1073.4,201.6 L1073.4,268.5 L1073.6,188.6 L1073.6,207.6 L1073.7,260.9 L1073.7,162.8 L1073.7,200.8 L1073.7,241.1 L1073.8,289.8 L1073.8,171.9 L1073.8,298.2 L1073.9,258.6 L1073.9,257.1 L1073.9,310.4 L1074.0,149.8 L1074.0,238.8 L1074.0,102.6 L1074.0,305.1 L1074.1,218.3 L1074.1,300.5 L1074.1,200.8 L1074.2,281.5 L1074.2,168.8 L1074.2,168.8 L1074.3,206.9 L1074.4,347.7 L1074.4,346.9 L1074.5,369.0 L1074.5,366.7 L1074.5,316.5 L1074.5,302.8 L1074.6,299.7 L1074.6,322.6 L1074.6,334.0 L1074.7,348.4 L1074.7,329.4 L1074.7,314.9 L1074.8,331.7 L1074.8,320.3 L1074.8,327.1 L1074.9,305.8 L1074.9,316.5 L1074.9,322.6 L1074.9,311.1 L1075.0,304.3 L1075.0,321.8 L1075.0,272.3 L1075.1,297.4 L1075.2,243.4 L1075.2,197.8 L1075.3,208.4 L1075.3,204.6 L1075.3,213.7 L1075.4,318.0 L1075.4,244.2 L1075.4,308.9 L1075.4,189.4 L1075.5,314.9 L1075.5,228.2 L1075.5,307.3 L1075.6,289.1 L1075.6,261.7 L1075.6,318.0 L1075.7,292.1 L1075.7,283.7 L1075.7,289.1 L1075.7,286.8 L1075.8,286.8 L1075.8,241.1 L1075.8,286.0 L1075.9,311.9 L1076.0,327.9 L1076.0,336.3 L1076.1,318.0 L1076.1,317.2 L1076.1,311.1 L1076.2,338.5 L1076.2,314.9 L1076.2,323.3 L1076.3,311.9 L1076.3,328.6 L1076.3,324.1 L1076.3,310.4 L1076.4,311.9 L1076.4,295.2 L1076.4,292.1 L1076.5,295.2 L1076.5,327.1 L1076.5,321.0 L1076.6,308.1 L1076.6,334.7 L1076.6,334.7 L1076.7,298.2 L1076.7,305.1 L1076.8,334.0 L1076.9,314.9 L1076.9,397.9 L1076.9,424.5 L1076.9,328.6 L1077.0,318.8 L1077.0,338.5 L1077.0,326.4 L1077.1,340.8 L1077.1,339.3 L1077.1,350.0 L1077.2,341.6 L1077.2,400.9 L1077.2,341.6 L1077.2,433.7 L1077.3,393.3 L1077.3,424.5 L1077.3,321.0 L1077.4,394.8 L1077.4,358.3 L1077.4,321.0 L1077.5,350.0 L1077.5,326.4 L1077.6,290.6 L1077.7,315.7 L1077.7,321.0 L1077.7,317.2 L1077.7,351.5 L1077.8,361.4 L1077.8,335.5 L1077.8,323.3 L1077.9,336.3 L1077.9,399.4 L1077.9,362.9 L1078.0,399.4 L1078.0,430.6 L1078.0,435.2 L1078.1,460.3 L1078.1,315.7 L1078.1,336.3 L1078.1,390.3 L1078.2,385.0 L1078.2,421.5 L1078.2,350.7 L1078.3,359.1 L1078.3,328.6 L1078.4,413.9 L1078.5,407.0 L1078.5,404.7 L1078.5,473.2 L1078.6,322.6 L1078.6,335.5 L1078.6,419.2 L1078.6,469.4 L1078.7,346.1 L1078.7,419.2 L1078.7,468.7 L1078.8,425.3 L1078.8,324.1 L1078.8,394.1 L1078.9,460.3 L1078.9,438.2 L1078.9,464.1 L1079.0,513.6 L1079.0,364.4 L1079.0,421.5 L1079.0,407.8 L1079.1,383.4 L1079.1,455.7 L1079.2,283.0 L1079.3,321.8 L1079.3,301.2 L1079.3,322.6 L1079.4,346.1 L1079.4,315.7 L1079.4,333.2 L1079.5,343.9 L1079.5,333.2 L1079.5,389.5 L1079.5,353.0 L1079.6,388.0 L1079.6,326.4 L1079.6,417.7 L1079.7,365.9 L1079.7,405.5 L1079.7,445.8 L1079.8,314.2 L1079.8,417.7 L1079.8,330.9 L1079.9,430.6 L1079.9,407.0 L1079.9,367.5 L1080.1,362.1 L1080.1,480.1 L1080.1,336.3 L1080.1,403.2 L1080.2,459.5 L1080.2,404.0 L1080.2,344.6 L1080.3,544.0 L1080.3,453.4 L1080.3,454.2 L1080.4,426.0 L1080.4,376.6 L1080.4,317.2 L1080.5,488.4 L1080.5,362.9 L1080.5,413.1 L1080.5,404.0 L1080.6,416.2 L1080.6,442.8 L1080.6,427.6 L1080.7,321.8 L1080.7,430.6 L1080.7,361.4 L1080.9,319.5 L1080.9,337.8 L1080.9,332.4 L1081.0,318.8 L1081.0,377.3 L1081.0,380.4 L1081.1,340.1 L1081.1,332.4 L1081.1,365.9 L1081.1,325.6 L1081.2,325.6 L1081.2,389.5 L1081.2,404.7 L1081.3,372.0 L1081.3,330.9 L1081.3,317.2 L1081.4,323.3 L1081.4,403.2 L1081.4,420.7 L1081.4,420.0 L1081.5,353.0 L1081.5,337.0 L1081.5,396.4 L1081.7,511.3 L1081.7,498.3 L1081.7,350.7 L1081.8,404.7 L1081.8,372.8 L1081.8,420.7 L1081.9,375.1 L1081.9,424.5 L1081.9,319.5 L1082.0,388.0 L1082.0,337.0 L1082.0,388.0 L1082.0,371.3 L1082.1,340.8 L1082.1,336.3 L1082.1,318.8 L1082.2,324.8 L1082.2,311.1 L1082.2,311.1 L1082.3,337.0 L1082.3,358.3 L1082.3,321.8 L1082.3,317.2 L1082.5,311.1 L1082.5,229.0 L1082.6,321.0 L1082.6,265.5 L1082.6,305.8 L1082.6,276.1 L1082.7,302.0 L1082.7,257.9 L1082.7,236.6 L1082.8,325.6 L1082.8,283.7 L1082.8,233.5 L1082.9,260.2 L1082.9,254.1 L1082.9,241.1 L1082.9,274.6 L1083.0,279.9 L1083.0,287.6 L1083.0,316.5 L1083.1,217.5 L1083.3,321.8 L1083.3,314.2 L1083.4,283.7 L1083.4,297.4 L1083.4,283.7 L1083.5,279.9 L1083.5,278.4 L1083.5,260.2 L1083.5,322.6 L1083.6,325.6 L1083.7,335.5 L1083.7,320.3 L1083.7,321.0 L1083.8,323.3 L1083.8,334.0 L1083.8,339.3 L1083.9,332.4 L1084.0,350.7 L1084.0,365.9" fill="none" stroke="#ff7f0e" stroke-width="1.1" opacity="0.85"/><text x="616" y="572" font-size="11" fill="#888">time 0..689 s — altitude (blue) &amp; roll (orange)</text></svg>