<svg xmlns="http://www.w3.org/2000/svg" width="1140" height="600" font-family="sans-serif" font-size="13"><rect width="1140" height="600" fill="white"/><text x="20" y="26" font-size="15" fill="#333">Coludo flight</text><rect x="20" y="40" width="540" height="540" fill="#fbfbfb" stroke="#ddd"/><rect x="50" y="297" width="453" height="97" fill="#cde" stroke="#369" opacity="0.7"/><text x="50" y="292" fill="#369" font-size="12">landing zone</text><circle cx="336" cy="450" r="5" fill="black"/><text x="344" y="454" font-size="12">pad</text><path d="M337.7,449.3 L337.7,449.3 L337.7,449.3 L337.7,449.3 L337.7,449.3 L337.7,449.3 L337.7,449.3 L337.7,449.3 L337.7,449.3 L337.7,449.3 L337.7,449.3 L337.7,449.3 L337.7,449.3 L337.7,449.3 L337.7,449.3 L337.7,449.3 L337.7,449.3 L337.7,449.3 L337.7,449.3 L337.7,449.3 L337.7,449.3 L337.7,449.3 L337.7,449.3 L337.7,449.3 L337.7,449.3 L337.7,449.3 L337.7,449.3 L337.7,449.3 L337.7,449.3 L337.7,449.3 L337.7,449.3 L337.7,449.3 L337.7,449.3 L337.7,449.3 L337.7,449.3 L337.7,449.3 L337.7,449.3 L337.7,449.3 L337.7,449.3 L337.7,449.3 L337.7,449.3 L337.7,449.3 L337.7,449.3 L337.7,449.3 L337.7,449.3 L337.7,449.3 L337.7,449.3 L337.7,449.3 L337.7,449.3 L337.7,449.3 L337.7,449.3 L337.7,449.3 L337.7,449.3 L337.7,449.3 L337.7,449.3 L337.7,447.7 L339.2,446.6 L340.1,444.5 L340.1,442.8 L342.6,441.2 L345.0,439.6 L345.0,437.4 L347.0,435.8 L347.4,434.7 L349.9,433.1 L352.3,431.5 L354.7,430.4 L354.7,428.8 L357.2,427.7 L359.6,426.6 L362.0,425.6 L362.5,424.5 L364.5,424.0 L366.9,422.9 L370.3,421.3 L371.8,420.2 L374.2,419.6 L378.1,418.6 L379.1,418.0 L381.5,416.9 L384.0,415.9 L385.9,415.3 L386.4,414.8 L391.3,413.7 L393.7,413.7 L395.6,413.2 L396.1,412.1 L401.0,411.5 L401.5,411.0 L403.4,409.9 L405.9,409.4 L409.3,408.8 L410.7,408.3 L413.2,407.2 L415.6,406.7 L418.0,406.2 L420.5,405.1 L422.9,404.5 L426.8,404.0 L427.8,403.5 L430.2,402.9 L432.6,401.8 L434.6,401.8 L437.5,400.8 L439.9,400.2 L440.4,399.7 L442.4,398.6 L444.8,398.1 L448.2,397.0 L449.7,396.4 L452.1,395.4 L454.5,394.8 L457.0,393.7 L459.4,392.7 L461.8,391.0 L464.3,390.5 L464.8,389.4 L466.7,388.4 L469.1,386.7 L471.6,385.1 L473.5,383.5 L476.5,381.3 L476.5,380.3 L478.9,378.6 L479.4,376.5 L479.4,374.9 L481.3,373.2 L483.8,371.1 L483.8,368.9 L486.2,367.9 L486.2,365.7 L486.2,363.5 L487.2,361.4 L487.2,359.2 L487.2,357.1 L488.6,355.4 L488.6,352.7 L488.6,350.6 L488.6,347.9 L488.6,346.3 L488.6,343.6 L487.2,341.4 L487.2,339.3 L487.2,336.6 L487.2,334.9 L486.2,332.3 L486.2,330.1 L486.2,327.9 L483.8,325.2 L481.3,323.6 L481.3,320.9 L479.4,318.8 L478.9,316.1 L478.9,313.4 L476.5,311.8 L474.0,309.1 L473.5,306.9 L471.6,304.7 L469.1,302.6 L466.7,300.4 L464.8,298.8 L461.8,296.6 L459.4,294.5 L457.0,292.3 L456.0,290.7 L452.1,288.6 L449.7,286.4 L448.2,284.8 L444.8,282.1 L442.4,280.5 L440.4,278.8 L439.9,276.7 L435.1,274.5 L434.6,272.4 L432.6,269.7 L430.2,268.6 L427.8,265.9 L426.8,263.7 L425.3,261.0 L422.9,259.4 L420.5,257.8 L420.5,255.1 L418.0,253.0 L417.1,250.3 L415.6,248.1 L415.6,245.9 L413.2,243.8 L413.2,241.6 L410.7,238.9 L410.7,236.2 L409.3,234.1 L409.3,231.9 L409.3,229.2 L408.3,226.5 L408.3,224.9 L408.3,222.7 L408.3,220.1 L408.3,217.9 L408.3,215.7 L408.3,213.6 L408.3,211.4 L408.3,209.3 L409.3,207.1 L409.3,204.9 L409.3,202.8 L410.7,201.2 L410.7,199.0 L410.7,196.9 L413.2,194.7 L413.2,193.1 L415.6,191.5 L417.1,189.8 L417.1,187.7 L418.0,186.1 L420.5,184.4 L422.9,182.8 L425.3,181.2 L425.3,180.1 L426.8,178.5 L427.8,177.4 L432.6,175.3 L435.1,174.2 L437.5,173.7 L439.9,172.6 L440.4,172.0 L444.8,171.5 L447.2,171.0 L448.2,171.0 L452.1,170.4 L454.5,170.4 L457.0,171.0 L459.4,171.0 L461.8,171.0 L464.8,171.5 L469.1,172.0 L471.6,173.1 L474.0,173.7 L476.5,174.7 L479.4,175.8 L481.3,176.9 L487.2,179.6 L491.1,180.7 L493.5,182.3 L500.8,186.6 L503.7,188.8 L505.7,190.9 L510.5,192.5 L513.4,194.7 L517.8,198.5 L518.3,200.6 L522.7,202.3 L525.1,204.9 L527.6,207.1 L530.0,209.3" fill="none" stroke="#1f77b4" stroke-width="1.7" opacity="0.85"/><circle cx="530" cy="209" r="4.5" fill="#1f77b4"/><text x="28" y="572" font-size="11" fill="#888">ground track — m from pad (N up)</text><rect x="580" y="40" width="540" height="540" fill="#fbfbfb" stroke="#ddd"/><text x="586" y="54" fill="#1f77b4" font-size="11">alt 143</text><text x="586" y="558" fill="#1f77b4" font-size="11">-50</text><path d="M986.9,417.4 L987.1,417.7 L987.2,417.3 L987.4,416.6 L987.6,415.7 L987.7,415.6 L987.9,415.2 L988.0,412.6 L988.2,412.4 L988.4,410.3 L988.5,409.0 L988.7,407.1 L988.8,406.1 L989.0,405.3 L989.1,403.4 L989.3,401.1 L989.4,398.1 L989.6,396.6 L989.7,393.3 L989.9,393.8 L990.0,388.4 L990.2,391.3 L990.3,388.8 L990.5,381.9 L990.6,381.3 L990.8,372.8 L990.9,370.7 L991.1,374.2 L991.2,371.1 L991.4,368.6 L991.5,357.5 L991.7,355.0 L991.8,351.3 L992.0,343.6 L992.1,344.4 L992.3,341.1 L992.4,338.7 L992.6,336.3 L992.7,324.9 L992.9,320.6 L993.0,325.3 L993.2,301.7 L993.3,303.4 L993.5,299.2 L993.6,300.7 L993.8,292.4 L993.9,296.5 L994.1,284.9 L994.2,291.1 L994.4,274.4 L994.5,272.1 L994.7,261.2 L994.8,262.2 L995.0,269.1 L995.1,248.4 L995.3,236.1 L995.4,238.6 L995.6,246.7 L995.7,254.6 L995.9,245.2 L996.0,230.4 L996.2,217.3 L996.3,232.2 L996.5,212.2 L996.6,214.3 L996.8,233.6 L996.9,215.7 L997.1,232.5 L997.2,215.8 L997.4,210.7 L997.5,189.2 L997.7,183.0 L997.8,181.0 L998.0,183.8 L998.2,177.8 L998.3,179.2 L998.4,164.2 L998.6,196.7 L998.7,188.3 L998.9,178.2 L999.0,196.8 L999.2,182.7 L999.3,175.2 L999.5,176.5 L999.6,160.3 L999.8,150.5 L999.9,150.7 L1000.1,162.7 L1000.2,146.5 L1000.4,128.3 L1000.5,150.8 L1000.8,150.9 L1000.9,161.3 L1001.0,119.8 L1001.2,127.7 L1001.3,126.5 L1001.5,111.3 L1001.6,149.5 L1001.8,133.6 L1001.9,128.2 L1002.1,138.9 L1002.2,156.7 L1002.4,109.0 L1002.5,156.8 L1002.7,147.6 L1002.8,104.1 L1003.0,136.8 L1003.1,149.8 L1003.3,112.6 L1003.4,131.3 L1003.6,140.8 L1003.7,97.2 L1003.9,91.5 L1004.0,101.4 L1004.3,114.2 L1004.4,133.9 L1004.5,93.4 L1004.7,138.8 L1004.9,131.2 L1005.0,128.8 L1005.1,103.3 L1005.3,127.6 L1005.4,114.2 L1005.6,136.6 L1005.7,92.7 L1005.9,137.9 L1006.0,97.2 L1006.2,121.9 L1006.3,85.6 L1006.5,124.1 L1006.6,89.0 L1006.8,114.0 L1006.9,108.8 L1007.1,101.7 L1007.2,109.8 L1007.4,90.0 L1007.5,114.7 L1007.8,128.5 L1007.9,98.3 L1008.1,120.1 L1008.2,81.6 L1008.4,107.2 L1008.5,79.8 L1008.7,92.3 L1008.8,81.2 L1009.0,76.0 L1009.1,95.3 L1009.3,82.5 L1009.4,134.0 L1009.6,122.9 L1009.7,113.7 L1009.9,133.7 L1010.0,100.9 L1010.2,88.9 L1010.3,128.4 L1010.5,135.4 L1010.6,120.2 L1010.8,97.9 L1010.9,106.1 L1011.1,80.2 L1011.3,110.2 L1011.5,133.1 L1011.6,134.7 L1011.8,116.7 L1011.9,98.5 L1012.1,142.2 L1012.2,89.4 L1012.4,87.1 L1012.5,131.7 L1012.7,133.8 L1012.8,136.1 L1013.0,87.5 L1013.1,130.3 L1013.3,85.1 L1013.4,110.4 L1013.6,91.4 L1013.7,106.4 L1013.9,85.8 L1014.0,117.1 L1014.2,144.9 L1014.3,111.7 L1014.5,94.5 L1014.6,125.4 L1014.9,132.2 L1015.1,118.3 L1015.2,144.4 L1015.4,124.8 L1015.5,111.4 L1015.7,139.0 L1015.8,123.2 L1016.0,129.2 L1016.1,137.7 L1016.3,139.6 L1016.4,99.2 L1016.6,103.3 L1016.7,139.1 L1016.9,128.5 L1017.0,136.7 L1017.2,104.5 L1017.3,94.2 L1017.5,138.6 L1017.6,140.3 L1017.8,109.6 L1017.9,106.3 L1018.1,146.7 L1018.2,113.1 L1018.5,128.9 L1018.7,139.5 L1018.8,137.8 L1019.0,139.6 L1019.1,108.5 L1019.3,139.5 L1019.4,121.8 L1019.6,138.4 L1019.7,127.2 L1019.9,159.5 L1020.0,136.4 L1020.1,130.0 L1020.3,136.3 L1020.4,138.5 L1020.6,120.1 L1020.7,161.3 L1020.9,159.6 L1021.0,134.1 L1021.2,141.8 L1021.3,150.9 L1021.5,144.2 L1021.6,110.6 L1021.8,146.9 L1022.1,138.9 L1022.2,115.7 L1022.4,117.0 L1022.6,116.8 L1022.7,139.2 L1022.9,159.1 L1023.0,133.5 L1023.2,121.5 L1023.3,153.7 L1023.5,138.1 L1023.6,163.1 L1023.8,163.8 L1023.9,162.4 L1024.1,172.3 L1024.2,150.2 L1024.4,168.8 L1024.5,139.9 L1024.7,157.5 L1024.8,160.2 L1025.0,123.0 L1025.1,170.4 L1025.3,124.1 L1025.4,154.9 L1025.7,134.1 L1025.8,146.3 L1026.0,159.2 L1026.1,167.5 L1026.3,139.2 L1026.4,126.6 L1026.6,155.7 L1026.7,135.0 L1026.9,155.8 L1027.0,151.7 L1027.2,167.4 L1027.3,147.5 L1027.5,180.8 L1027.6,144.4 L1027.8,181.2 L1027.9,172.9 L1028.1,182.5 L1028.2,165.9 L1028.4,162.5 L1028.5,183.0 L1028.7,159.1 L1028.8,163.5 L1029.0,140.9 L1029.3,175.8 L1029.4,164.2 L1029.6,171.9 L1029.7,155.2 L1029.9,155.3 L1030.2,153.0 L1030.3,168.3 L1030.5,175.7 L1030.6,175.9 L1030.8,196.6 L1030.9,193.2 L1031.1,180.4 L1031.2,192.0 L1031.4,179.8 L1031.5,199.2 L1031.7,197.5 L1031.8,188.0 L1032.0,192.5 L1032.1,164.4 L1032.3,182.7 L1032.4,170.5 L1032.6,201.8 L1033.0,171.7 L1033.2,166.6 L1033.3,194.7 L1033.5,192.0 L1033.6,194.3 L1033.8,163.3 L1033.9,205.8 L1034.1,191.9 L1034.2,174.7 L1034.4,175.7 L1034.5,176.9 L1034.7,204.2 L1034.8,188.3 L1035.0,194.7 L1035.1,181.4 L1035.3,200.9 L1035.4,216.2 L1035.6,182.9 L1035.7,199.8 L1035.9,203.3 L1036.0,216.6 L1036.2,214.3 L1036.3,188.9 L1036.7,210.9 L1036.9,222.2 L1037.0,188.2 L1037.2,203.3 L1037.4,215.5 L1037.5,206.8 L1037.7,185.5 L1037.8,200.9 L1038.0,223.8 L1038.1,204.2 L1038.2,190.8 L1038.4,212.5 L1038.6,226.1 L1038.7,214.5 L1038.9,212.0 L1039.0,231.3 L1039.1,232.4 L1039.3,215.7 L1039.4,209.6 L1039.6,209.2 L1039.7,220.5 L1039.9,232.1 L1040.0,233.8 L1040.5,222.4 L1040.6,210.5 L1040.8,231.2 L1040.9,231.3 L1041.1,211.2 L1041.2,211.2 L1041.4,240.2 L1041.5,234.0 L1041.7,218.8 L1041.8,245.3 L1042.0,248.1 L1042.1,245.2 L1042.3,239.6 L1042.4,226.3 L1042.6,214.7 L1042.7,243.8 L1042.9,242.7 L1043.0,237.1 L1043.2,223.3 L1043.3,225.6 L1043.5,232.2 L1043.6,249.6 L1043.8,247.9 L1044.2,228.0 L1044.4,227.5 L1044.5,245.7 L1044.7,253.8 L1044.8,245.7 L1045.0,244.1 L1045.1,233.2 L1045.3,244.1 L1045.4,259.8 L1045.6,265.4 L1045.7,267.7 L1045.9,260.7 L1046.0,239.7 L1046.2,264.4 L1046.3,261.6 L1046.5,253.1 L1046.6,243.9 L1046.8,245.4 L1046.9,273.3 L1047.1,247.4 L1047.2,273.2 L1047.4,256.8 L1047.5,268.2 L1048.0,259.4 L1048.1,282.1 L1048.3,255.5 L1048.4,274.5 L1048.6,279.9 L1048.7,277.7 L1048.9,280.5 L1049.0,270.7 L1049.2,273.1 L1049.3,287.4 L1049.5,287.3 L1049.6,265.1 L1049.8,268.6 L1049.9,279.3 L1050.1,276.9 L1050.2,293.0 L1050.4,282.9 L1050.5,277.7 L1050.7,297.5 L1050.8,294.1 L1051.0,275.9 L1051.1,293.9 L1051.3,292.9 L1051.7,281.3 L1051.9,281.6 L1052.0,282.8 L1052.2,285.7 L1052.3,286.6 L1052.5,296.0 L1052.6,307.7 L1052.8,308.2 L1052.9,310.2 L1053.1,291.1 L1053.2,295.3 L1053.4,295.8 L1053.5,292.8 L1053.7,310.4 L1053.8,312.4 L1054.0,313.7 L1054.1,303.8 L1054.3,310.6 L1054.4,300.9 L1054.6,321.9 L1054.7,316.1 L1054.9,320.2 L1055.0,307.6 L1055.5,320.0 L1055.6,312.7 L1055.8,312.2 L1055.9,327.1 L1056.1,325.3 L1056.2,332.9 L1056.4,327.3 L1056.5,319.1 L1056.7,316.9 L1056.8,333.6 L1056.9,323.7 L1057.1,331.9 L1057.2,331.1 L1057.4,328.8 L1057.5,326.8 L1057.7,328.3 L1057.9,333.0 L1058.0,344.2 L1058.1,333.1 L1058.3,333.6 L1058.4,344.3 L1058.6,343.8 L1058.7,333.7 L1059.2,336.4 L1059.4,350.8 L1059.5,350.4 L1059.7,352.5 L1059.8,340.7 L1060.0,350.0 L1060.1,351.3 L1060.3,345.5 L1060.4,356.7 L1060.6,347.9 L1060.7,355.0 L1060.9,357.2 L1061.0,356.0 L1061.2,357.9 L1061.3,364.0 L1061.4,360.2 L1061.6,357.0 L1061.7,361.0 L1061.9,360.6 L1062.0,361.5 L1062.2,362.2 L1062.4,364.1 L1062.5,363.7 L1063.0,368.3 L1063.1,376.2 L1063.3,374.8 L1063.4,373.9 L1063.6,374.5 L1063.7,375.9 L1063.9,380.3 L1064.0,381.1 L1064.2,383.0 L1064.3,382.2 L1064.5,382.2 L1064.6,383.5 L1064.8,383.9 L1064.9,388.8 L1065.1,389.9 L1065.2,386.6 L1065.4,387.3 L1065.5,388.9 L1065.7,389.9 L1065.8,392.7 L1066.0,396.9 L1066.1,392.2 L1066.3,396.4 L1066.7,397.6 L1066.9,401.6 L1067.0,403.7 L1067.2,405.2 L1067.3,405.6 L1067.5,405.3 L1067.6,408.3 L1067.8,409.3 L1067.9,410.4 L1068.1,410.2 L1068.2,410.8 L1068.4,413.5 L1068.5,414.0 L1068.7,416.0 L1068.8,415.6 L1069.0,417.3 L1069.1,418.8 L1069.3,419.6 L1069.4,421.1 L1069.6,422.1 L1069.7,424.0 L1069.9,424.5 L1070.0,426.6 L1070.5,429.8 L1070.6,430.5 L1070.8,430.7 L1070.9,431.9 L1071.1,434.1 L1071.2,434.1 L1071.4,434.7 L1071.5,439.1 L1071.7,439.9 L1071.8,441.7 L1072.0,440.0 L1072.1,440.9 L1072.3,446.2 L1072.4,444.4 L1072.6,445.3 L1072.7,446.0 L1072.9,450.8 L1073.0,452.7 L1073.2,452.1 L1073.3,448.9 L1073.5,453.3 L1073.6,455.6 L1073.8,454.1 L1074.2,461.9 L1074.4,463.3 L1074.5,458.6 L1074.7,467.7 L1074.9,462.9 L1075.0,468.4 L1075.2,464.4 L1075.3,469.1 L1075.5,473.9 L1075.6,472.3 L1075.8,474.0 L1075.9,470.6 L1076.1,470.8 L1076.3,473.8 L1076.4,475.8 L1076.6,475.8 L1076.7,478.3 L1076.9,483.7 L1077.0,479.0 L1077.2,480.3 L1077.3,487.4 L1077.5,481.6 L1077.6,484.0 L1078.3,488.9 L1078.4,491.8 L1078.6,494.6 L1078.7,494.7 L1078.9,493.7 L1079.0,500.6 L1079.2,502.6 L1079.9,498.2 L1080.1,507.4 L1080.2,500.6 L1080.4,502.1 L1080.5,507.7 L1080.7,512.5 L1080.8,510.3 L1081.0,515.8 L1081.1,517.2 L1081.3,513.8 L1081.4,513.4 L1081.6,516.3 L1082.0,525.3 L1082.2,525.4 L1082.3,534.8 L1082.5,533.3 L1082.6,529.9 L1082.8,527.2 L1082.9,537.8 L1083.1,534.1 L1083.2,538.8 L1083.4,530.9 L1083.5,541.6 L1083.7,544.0 L1083.9,539.7 L1084.0,525.8" fill="none" stroke="#1f77b4" stroke-width="1.4" opacity="0.85"/><text x="1040" y="54" fill="#ff7f0e" font-size="11">roll 26</text><text x="1090" y="558" fill="#ff7f0e" font-size="11">-19</text><path d="M986.9,345.7 L987.1,344.6 L987.2,344.6 L987.4,345.7 L987.6,344.6 L987.7,343.6 L987.9,343.6 L988.0,343.6 L988.2,344.6 L988.4,344.6 L988.5,342.5 L988.7,342.5 L988.8,343.6 L989.0,341.5 L989.1,340.4 L989.3,341.5 L989.4,340.4 L989.6,340.4 L989.7,340.4 L989.9,337.3 L990.0,338.3 L990.2,338.3 L990.3,334.1 L990.5,333.1 L990.6,336.2 L990.8,333.1 L990.9,333.1 L991.1,332.0 L991.2,327.8 L991.4,327.8 L991.5,325.7 L991.7,327.8 L991.8,326.8 L992.0,324.7 L992.1,322.6 L992.3,316.3 L992.4,318.4 L992.6,316.3 L992.7,317.3 L992.9,317.3 L993.0,310.0 L993.1,307.9 L993.3,312.1 L993.4,307.9 L993.6,304.8 L993.8,299.5 L993.9,299.5 L994.1,304.8 L994.2,300.6 L994.4,297.4 L994.5,294.3 L994.7,289.0 L994.8,295.3 L995.0,285.9 L995.1,293.2 L995.3,283.8 L995.4,294.3 L995.6,285.9 L995.7,289.0 L995.9,289.0 L996.0,282.7 L996.2,277.5 L996.3,282.7 L996.5,283.8 L996.6,276.4 L996.8,288.0 L996.9,284.8 L997.1,283.8 L997.2,282.7 L997.4,279.6 L997.5,273.3 L997.7,274.3 L997.8,276.4 L998.0,281.7 L998.2,282.7 L998.3,281.7 L998.4,279.6 L998.6,278.5 L998.7,278.5 L998.9,281.7 L999.0,283.8 L999.2,272.2 L999.3,280.6 L999.5,276.4 L999.6,282.7 L999.8,275.4 L999.9,270.1 L1000.1,283.8 L1000.2,275.4 L1000.4,268.0 L1000.5,273.3 L1000.7,269.1 L1000.9,278.5 L1001.0,274.3 L1001.2,281.7 L1001.3,272.2 L1001.5,269.1 L1001.6,281.7 L1001.8,270.1 L1001.9,275.4 L1002.1,267.0 L1002.2,270.1 L1002.4,271.2 L1002.5,268.0 L1002.7,276.4 L1002.8,280.6 L1003.0,268.0 L1003.1,270.1 L1003.3,276.4 L1003.4,276.4 L1003.6,261.7 L1003.7,271.2 L1003.9,267.0 L1004.0,267.0 L1004.2,269.1 L1004.4,259.6 L1004.5,274.3 L1004.7,267.0 L1004.8,269.1 L1005.0,268.0 L1005.1,268.0 L1005.3,261.7 L1005.4,270.1 L1005.6,260.7 L1005.7,261.7 L1005.9,270.1 L1006.0,265.9 L1006.2,254.4 L1006.3,264.9 L1006.5,255.4 L1006.6,270.1 L1006.8,263.8 L1006.9,263.8 L1007.1,259.6 L1007.2,262.8 L1007.4,340.4 L1007.5,321.5 L1007.8,297.4 L1007.9,280.6 L1008.1,263.8 L1008.2,235.5 L1008.4,235.5 L1008.5,215.6 L1008.7,224.0 L1008.8,195.6 L1009.0,193.5 L1009.1,196.7 L1009.3,177.8 L1009.4,197.7 L1009.6,188.3 L1009.7,180.9 L1009.9,194.6 L1010.0,183.0 L1010.2,159.9 L1010.3,159.9 L1010.5,180.9 L1010.6,189.3 L1010.8,170.4 L1010.9,163.1 L1011.1,173.6 L1011.3,171.5 L1011.5,170.4 L1011.6,189.3 L1011.8,175.7 L1011.9,184.1 L1012.1,197.7 L1012.2,206.1 L1012.4,222.9 L1012.5,208.2 L1012.7,221.9 L1012.8,211.4 L1013.0,232.3 L1013.1,234.4 L1013.3,220.8 L1013.4,226.1 L1013.6,244.9 L1013.7,234.4 L1013.9,251.2 L1014.0,262.8 L1014.2,253.3 L1014.3,268.0 L1014.5,277.5 L1014.6,265.9 L1014.9,272.2 L1015.1,270.1 L1015.2,280.6 L1015.4,264.9 L1015.5,278.5 L1015.7,263.8 L1015.8,269.1 L1016.0,279.6 L1016.1,289.0 L1016.3,284.8 L1016.4,280.6 L1016.6,277.5 L1016.7,293.2 L1016.9,307.9 L1017.0,306.9 L1017.2,306.9 L1017.3,305.8 L1017.5,299.5 L1017.6,307.9 L1017.8,295.3 L1017.9,299.5 L1018.1,296.4 L1018.2,297.4 L1018.5,298.5 L1018.7,297.4 L1018.8,306.9 L1019.0,306.9 L1019.1,313.1 L1019.3,315.2 L1019.4,314.2 L1019.6,318.4 L1019.7,325.7 L1019.8,322.6 L1020.0,328.9 L1020.1,336.2 L1020.3,340.4 L1020.4,343.6 L1020.6,341.5 L1020.7,342.5 L1020.9,342.5 L1021.0,340.4 L1021.2,343.6 L1021.3,338.3 L1021.5,339.4 L1021.6,342.5 L1021.8,344.6 L1022.1,328.9 L1022.2,326.8 L1022.4,326.8 L1022.6,334.1 L1022.7,333.1 L1022.9,336.2 L1023.0,347.8 L1023.2,346.7 L1023.3,355.1 L1023.5,352.0 L1023.6,355.1 L1023.8,363.5 L1023.9,360.4 L1024.1,357.2 L1024.2,358.3 L1024.4,360.4 L1024.5,366.7 L1024.7,369.8 L1024.8,375.1 L1025.0,375.1 L1025.1,376.1 L1025.3,377.2 L1025.4,383.5 L1025.7,347.8 L1025.8,361.4 L1026.0,360.4 L1026.1,367.7 L1026.3,367.7 L1026.4,375.1 L1026.6,375.1 L1026.7,381.4 L1026.9,385.6 L1027.0,397.1 L1027.2,402.3 L1027.3,395.0 L1027.5,391.8 L1027.6,399.2 L1027.8,396.0 L1027.9,403.4 L1028.1,397.1 L1028.2,403.4 L1028.4,406.5 L1028.5,411.8 L1028.7,406.5 L1028.8,407.6 L1029.0,403.4 L1029.3,440.1 L1029.4,437.0 L1029.6,453.8 L1029.7,480.0 L1029.9,482.1 L1030.2,495.7 L1030.3,486.3 L1030.5,503.1 L1030.6,510.4 L1030.8,511.5 L1030.9,508.3 L1031.1,501.0 L1031.2,524.1 L1031.4,515.7 L1031.5,519.9 L1031.7,494.7 L1031.8,526.2 L1032.0,506.2 L1032.1,532.5 L1032.3,502.0 L1032.4,513.6 L1032.6,522.0 L1033.0,483.1 L1033.2,501.0 L1033.3,487.3 L1033.5,489.4 L1033.6,519.9 L1033.8,509.4 L1033.9,522.0 L1034.1,497.8 L1034.2,523.0 L1034.4,527.2 L1034.5,510.4 L1034.7,496.8 L1034.8,514.6 L1035.0,514.6 L1035.1,499.9 L1035.3,498.9 L1035.4,512.5 L1035.6,526.2 L1035.7,511.5 L1035.9,517.8 L1036.0,498.9 L1036.2,507.3 L1036.3,510.4 L1036.7,533.5 L1036.9,519.9 L1037.0,539.8 L1037.2,532.5 L1037.4,527.2 L1037.5,525.1 L1037.7,530.4 L1037.8,515.7 L1037.9,520.9 L1038.1,518.8 L1038.2,529.3 L1038.4,520.9 L1038.6,532.5 L1038.7,533.5 L1038.8,527.2 L1039.0,530.4 L1039.1,519.9 L1039.3,503.1 L1039.4,532.5 L1039.6,508.3 L1039.7,523.0 L1039.9,511.5 L1040.0,533.5 L1040.5,533.5 L1040.6,544.0 L1040.8,530.4 L1040.9,532.5 L1041.1,506.2 L1041.2,520.9 L1041.4,527.2 L1041.5,513.6 L1041.7,506.2 L1041.8,505.2 L1042.0,529.3 L1042.1,510.4 L1042.3,504.1 L1042.4,522.0 L1042.6,509.4 L1042.7,531.4 L1042.9,502.0 L1043.0,504.1 L1043.2,534.6 L1043.3,525.1 L1043.5,510.4 L1043.6,519.9 L1043.8,514.6 L1044.2,516.7 L1044.4,507.3 L1044.5,513.6 L1044.7,519.9 L1044.8,516.7 L1045.0,530.4 L1045.1,524.1 L1045.3,501.0 L1045.4,516.7 L1045.6,499.9 L1045.7,510.4 L1045.9,507.3 L1046.0,524.1 L1046.2,511.5 L1046.3,524.1 L1046.5,501.0 L1046.6,534.6 L1046.8,522.0 L1046.9,499.9 L1047.1,503.1 L1047.2,516.7 L1047.4,499.9 L1047.5,501.0 L1048.0,506.2 L1048.1,498.9 L1048.3,487.3 L1048.4,460.1 L1048.6,429.6 L1048.7,426.5 L1048.9,416.0 L1049.0,417.0 L1049.2,417.0 L1049.3,421.2 L1049.5,399.2 L1049.6,378.2 L1049.8,344.6 L1049.9,322.6 L1050.1,306.9 L1050.2,312.1 L1050.4,331.0 L1050.5,300.6 L1050.7,303.7 L1050.8,313.1 L1051.0,290.1 L1051.1,293.2 L1051.3,265.9 L1051.7,229.2 L1051.9,234.4 L1052.0,235.5 L1052.2,216.6 L1052.3,212.4 L1052.5,199.8 L1052.6,197.7 L1052.8,194.6 L1052.9,188.3 L1053.1,233.4 L1053.2,240.7 L1053.4,208.2 L1053.5,207.2 L1053.7,208.2 L1053.8,201.9 L1054.0,200.9 L1054.1,199.8 L1054.3,198.8 L1054.4,204.0 L1054.6,197.7 L1054.7,196.7 L1054.9,211.4 L1055.0,193.5 L1055.5,208.2 L1055.6,232.3 L1055.8,227.1 L1055.9,195.6 L1056.1,199.8 L1056.2,201.9 L1056.4,203.0 L1056.5,176.7 L1056.7,184.1 L1056.8,184.1 L1056.9,185.1 L1057.1,171.5 L1057.2,170.4 L1057.4,187.2 L1057.5,194.6 L1057.7,163.1 L1057.8,175.7 L1058.0,188.3 L1058.1,184.1 L1058.3,166.2 L1058.4,177.8 L1058.6,171.5 L1058.7,180.9 L1059.2,193.5 L1059.4,185.1 L1059.5,184.1 L1059.7,175.7 L1059.8,164.1 L1060.0,192.5 L1060.1,164.1 L1060.3,178.8 L1060.4,178.8 L1060.6,184.1 L1060.7,172.5 L1060.9,171.5 L1061.0,185.1 L1061.1,157.8 L1061.3,172.5 L1061.4,157.8 L1061.6,183.0 L1061.7,157.8 L1061.9,176.7 L1062.0,177.8 L1062.2,159.9 L1062.3,171.5 L1062.5,192.5 L1063.0,218.7 L1063.1,226.1 L1063.3,213.5 L1063.4,199.8 L1063.6,196.7 L1063.7,177.8 L1063.9,198.8 L1064.0,189.3 L1064.2,185.1 L1064.3,170.4 L1064.5,166.2 L1064.6,166.2 L1064.8,185.1 L1064.9,169.4 L1065.1,162.0 L1065.2,165.2 L1065.4,192.5 L1065.5,169.4 L1065.7,190.4 L1065.8,171.5 L1066.0,187.2 L1066.1,183.0 L1066.3,171.5 L1066.7,210.3 L1066.9,197.7 L1067.0,195.6 L1067.2,180.9 L1067.3,186.2 L1067.5,190.4 L1067.6,171.5 L1067.8,188.3 L1067.9,167.3 L1068.1,168.3 L1068.2,166.2 L1068.4,139.0 L1068.5,146.3 L1068.7,151.6 L1068.8,144.2 L1069.0,148.4 L1069.1,106.4 L1069.3,139.0 L1069.4,109.6 L1069.6,133.7 L1069.7,133.7 L1069.9,124.3 L1070.0,94.9 L1070.5,87.5 L1070.6,87.5 L1070.8,105.4 L1070.9,125.3 L1071.1,112.7 L1071.2,110.6 L1071.4,101.2 L1071.5,118.0 L1071.7,114.8 L1071.8,85.4 L1072.0,109.6 L1072.1,127.4 L1072.3,126.4 L1072.4,83.3 L1072.6,82.3 L1072.7,90.7 L1072.9,76.0 L1073.0,100.1 L1073.2,81.2 L1073.3,102.2 L1073.5,114.8 L1073.6,130.6 L1073.8,127.4 L1074.2,164.1 L1074.4,176.7 L1074.5,182.0 L1074.7,152.6 L1074.9,169.4 L1075.0,136.9 L1075.2,161.0 L1075.3,151.6 L1075.5,119.0 L1075.6,123.2 L1075.8,107.5 L1075.9,124.3 L1076.1,121.1 L1076.3,109.6 L1076.4,129.5 L1076.6,102.2 L1076.7,125.3 L1076.9,99.1 L1077.0,87.5 L1077.2,126.4 L1077.3,99.1 L1077.5,127.4 L1077.6,119.0 L1078.3,139.0 L1078.4,112.7 L1078.6,136.9 L1078.7,101.2 L1078.9,102.2 L1079.0,132.7 L1079.2,110.6 L1079.9,200.9 L1080.1,198.8 L1080.2,220.8 L1080.4,234.4 L1080.5,236.5 L1080.7,236.5 L1080.8,248.1 L1081.0,268.0 L1081.1,270.1 L1081.3,284.8 L1081.4,275.4 L1081.6,282.7 L1082.0,301.6 L1082.2,303.7 L1082.3,304.8 L1082.5,306.9 L1082.6,316.3 L1082.8,313.1 L1082.9,317.3 L1083.1,319.4 L1083.2,325.7 L1083.4,325.7 L1083.5,327.8 L1083.7,329.9 L1083.8,328.9 L1084.0,331.0" fill="none" stroke="#ff7f0e" stroke-width="1.1" opacity="0.85"/><text x="616" y="572" font-size="11" fill="#888">time 0..137 s — altitude (blue) &amp; roll (orange)</text></svg>