<svg xmlns="http://www.w3.org/2000/svg" width="1140" height="600" font-family="sans-serif" font-size="13"><rect width="1140" height="600" fill="white"/><text x="20" y="26" font-size="15" fill="#333">Coludo flight</text><rect x="20" y="40" width="540" height="540" fill="#fbfbfb" stroke="#ddd"/><rect x="50" y="229" width="480" height="103" fill="#cde" stroke="#369" opacity="0.7"/><text x="50" y="224" fill="#369" font-size="12">landing zone</text><circle cx="354" cy="391" r="5" fill="black"/><text x="362" y="395" font-size="12">pad</text><path d="M354.9,390.5 L354.9,390.5 L354.9,390.5 L354.9,390.5 L354.9,390.5 L354.9,390.5 L354.9,390.5 L354.9,390.5 L354.9,390.5 L354.9,390.5 L354.9,390.5 L354.9,390.5 L354.9,390.5 L354.9,390.5 L354.9,390.5 L354.9,390.5 L354.9,390.5 L354.9,390.5 L354.9,390.5 L354.9,390.5 L354.9,390.5 L354.9,390.5 L354.9,390.5 L354.9,390.5 L354.9,390.5 L354.9,390.5 L354.9,390.5 L354.9,390.5 L354.9,390.5 L354.9,390.5 L354.9,390.5 L354.9,390.5 L354.9,390.5 L354.9,390.5 L354.9,390.5 L354.9,390.5 L354.9,390.5 L354.9,390.5 L354.9,390.5 L354.9,390.5 L354.9,390.5 L354.9,390.5 L354.9,390.5 L354.9,390.5 L354.9,390.5 L354.9,390.5 L354.9,390.5 L354.9,390.5 L354.9,390.5 L354.9,390.5 L354.9,390.5 L354.9,390.5 L354.9,390.5 L354.9,390.5 L354.9,390.5 L354.9,389.9 L354.9,388.7 L356.4,387.6 L356.4,387.0 L357.4,385.9 L357.4,384.7 L360.0,383.6 L360.0,382.4 L362.6,381.9 L364.7,380.7 L365.2,379.6 L365.2,379.0 L367.8,378.4 L370.3,377.9 L372.9,377.3 L372.9,376.7 L372.9,376.2 L375.5,376.2 L378.1,376.2 L380.7,375.6 L381.2,375.6 L383.2,375.0 L385.8,375.0 L388.4,375.0 L389.4,374.4 L391.0,374.4 L393.6,374.4 L396.1,373.9 L397.7,373.9 L397.7,373.9 L401.3,373.9 L401.3,373.3 L405.9,373.3 L405.9,373.3 L406.5,373.3 L409.0,372.7 L411.6,372.7 L414.2,372.7 L416.3,372.7 L416.8,372.2 L419.3,372.2 L421.9,372.2 L422.4,372.2 L424.5,371.6 L427.1,371.6 L429.7,371.6 L430.7,371.0 L432.2,371.0 L434.8,371.0 L437.4,370.4 L439.0,370.4 L440.0,369.9 L442.6,369.9 L445.1,369.3 L445.1,368.7 L447.7,368.7 L449.3,368.2 L450.3,367.6 L452.9,367.6 L455.5,367.0 L457.5,366.4 L458.0,365.9 L458.0,365.3 L460.6,364.7 L463.2,364.2 L463.7,364.2 L463.7,363.6 L468.4,362.4 L468.4,361.9 L470.9,360.7 L472.0,360.2 L473.5,359.6 L473.5,359.0 L476.1,357.9 L478.7,357.3 L478.7,356.2 L480.2,355.6 L481.3,355.0 L481.3,353.9 L483.8,353.3 L483.8,352.7 L486.4,351.6 L489.0,350.4 L489.0,349.9 L489.5,348.7 L489.5,347.6 L491.6,346.4 L491.6,345.3 L494.1,344.2 L494.1,343.6 L496.7,341.9 L496.7,341.3 L498.8,340.2 L498.8,339.6 L499.3,338.4 L499.3,336.7 L499.3,335.6 L501.9,334.4 L501.9,333.3 L504.5,332.1 L504.5,331.0 L505.0,329.9 L505.0,328.7 L505.0,327.6 L505.0,326.4 L507.0,324.7 L507.0,323.6 L507.0,321.9 L507.0,320.7 L507.0,319.0 L507.0,317.3 L507.0,316.1 L507.0,314.4 L507.0,312.7 L507.0,311.0 L505.0,309.3 L505.0,307.6 L505.0,305.9 L504.5,304.7 L504.5,303.0 L501.9,300.7 L501.9,299.0 L499.3,297.3 L498.8,295.6 L496.7,293.3 L496.7,292.1 L494.1,290.4 L491.6,288.7 L489.5,287.0 L489.0,285.3 L486.4,283.6 L483.8,281.8 L481.3,280.7 L478.7,279.0 L476.1,277.3 L473.5,275.6 L470.9,273.8 L468.4,272.7 L465.8,271.0 L463.2,270.4 L460.6,268.7 L457.5,267.6 L452.9,265.8 L450.3,264.7 L447.7,264.1 L442.6,262.4 L440.0,261.8 L437.4,260.7 L430.7,259.6 L429.7,259.0 L424.5,257.8 L421.9,257.8 L416.3,257.3 L411.6,256.7 L406.5,256.1 L403.9,256.1 L398.7,255.6 L396.1,255.6 L391.0,255.6 L385.8,255.6 L381.2,255.6 L375.5,255.6 L372.9,256.1 L367.8,256.7 L362.6,256.7 L357.4,257.3 L352.3,257.8 L348.2,258.4 L342.0,259.0 L339.4,260.1 L331.7,261.3 L326.5,262.4 L323.4,264.1 L316.2,265.3 L311.0,267.0 L305.9,269.3 L293.0,272.7 L287.8,274.4 L282.1,276.7 L277.5,278.4 L272.3,280.7 L265.6,282.4 L262.0,284.1 L256.9,286.4 L251.7,288.1 L236.2,293.3 L232.6,295.0 L225.9,297.3 L223.3,299.0 L215.6,301.3 L210.4,303.6 L205.3,304.7 L200.1,306.4 L195.0,308.1 L184.6,311.0 L179.5,313.3 L173.8,315.0 L169.2,316.7 L164.0,317.9 L158.3,319.0 L153.7,320.7 L148.5,322.4 L140.8,324.1 L138.2,325.3 L125.3,328.7" fill="none" stroke="#1f77b4" stroke-width="1.7" opacity="0.85"/><circle cx="125" cy="329" r="4.5" fill="#1f77b4"/><text x="28" y="572" font-size="11" fill="#888">ground track — m from pad (N up)</text><rect x="580" y="40" width="540" height="540" fill="#fbfbfb" stroke="#ddd"/><text x="586" y="54" fill="#1f77b4" font-size="11">alt 142</text><text x="586" y="558" fill="#1f77b4" font-size="11">-48</text><path d="M1008.5,420.4 L1008.6,420.3 L1008.7,420.6 L1008.9,419.3 L1009.0,419.8 L1009.1,418.8 L1009.2,416.5 L1009.3,417.2 L1009.4,416.9 L1009.6,413.8 L1009.7,412.4 L1009.8,410.8 L1009.9,408.8 L1010.0,407.6 L1010.1,409.0 L1010.2,406.0 L1010.3,400.4 L1010.5,403.4 L1010.6,396.5 L1010.7,394.3 L1010.8,394.1 L1010.9,393.4 L1011.0,388.0 L1011.1,385.4 L1011.2,382.8 L1011.4,376.7 L1011.5,374.8 L1011.6,379.2 L1011.7,367.9 L1011.8,369.0 L1011.9,364.0 L1012.0,365.5 L1012.1,362.4 L1012.3,346.1 L1012.4,348.4 L1012.5,346.7 L1012.6,334.8 L1012.7,330.4 L1012.8,337.3 L1012.9,334.4 L1013.0,310.8 L1013.2,314.0 L1013.3,322.4 L1013.4,305.2 L1013.5,301.8 L1013.6,309.6 L1013.7,294.7 L1013.8,278.7 L1014.0,287.8 L1014.1,277.3 L1014.2,260.7 L1014.3,277.0 L1014.4,259.8 L1014.5,259.0 L1014.6,264.7 L1014.7,239.7 L1014.9,242.6 L1015.0,244.9 L1015.1,229.9 L1015.2,224.9 L1015.3,251.6 L1015.4,252.4 L1015.5,212.6 L1015.6,220.1 L1015.8,206.7 L1015.9,220.4 L1016.0,211.7 L1016.1,195.1 L1016.2,209.0 L1016.3,195.0 L1016.4,224.0 L1016.6,222.1 L1016.7,176.5 L1016.8,200.5 L1016.9,200.9 L1017.0,173.2 L1017.1,165.5 L1017.2,179.1 L1017.4,168.9 L1017.5,165.8 L1017.6,158.0 L1017.7,171.4 L1017.8,149.1 L1017.9,144.5 L1018.0,167.8 L1018.2,142.7 L1018.3,175.5 L1018.4,182.1 L1018.5,154.6 L1018.6,156.1 L1018.7,163.4 L1018.8,149.2 L1018.9,164.5 L1019.1,125.2 L1019.2,157.2 L1019.3,163.5 L1019.4,137.6 L1019.5,124.9 L1019.6,139.5 L1019.7,110.7 L1019.8,161.7 L1019.9,159.7 L1020.1,145.6 L1020.2,156.1 L1020.3,114.6 L1020.4,99.1 L1020.5,105.4 L1020.6,113.3 L1020.7,102.7 L1020.8,123.7 L1021.0,101.8 L1021.1,98.8 L1021.2,87.2 L1021.3,112.0 L1021.4,126.9 L1021.6,119.7 L1021.7,86.2 L1021.8,127.0 L1021.9,137.3 L1022.0,131.5 L1022.2,122.7 L1022.3,105.9 L1022.4,95.1 L1022.5,132.6 L1022.6,87.7 L1022.7,98.4 L1022.8,85.8 L1022.9,78.7 L1023.1,133.5 L1023.2,124.2 L1023.3,87.5 L1023.4,135.7 L1023.5,100.9 L1023.6,128.1 L1023.7,84.5 L1023.8,82.6 L1024.0,83.4 L1024.1,127.3 L1024.2,77.4 L1024.4,101.0 L1024.5,97.6 L1024.6,91.5 L1024.7,133.1 L1024.8,85.6 L1024.9,77.3 L1025.0,125.6 L1025.2,130.3 L1025.3,108.9 L1025.4,76.0 L1025.5,117.4 L1025.6,79.2 L1025.7,127.4 L1025.8,83.1 L1026.0,129.8 L1026.1,77.4 L1026.2,126.7 L1026.3,132.2 L1026.4,80.2 L1026.5,108.3 L1026.7,114.7 L1026.8,125.5 L1027.0,77.2 L1027.1,131.0 L1027.2,139.2 L1027.3,120.4 L1027.4,121.8 L1027.5,78.4 L1027.6,94.2 L1027.8,100.0 L1027.9,82.6 L1028.0,101.6 L1028.1,109.2 L1028.2,99.3 L1028.3,135.8 L1028.4,91.9 L1028.6,92.5 L1028.7,86.1 L1028.8,103.3 L1028.9,122.3 L1029.0,138.8 L1029.1,113.7 L1029.2,129.5 L1029.4,96.7 L1029.5,89.9 L1029.7,140.9 L1029.8,117.9 L1029.9,105.1 L1030.0,112.9 L1030.1,91.3 L1030.2,141.4 L1030.3,101.1 L1030.5,114.1 L1030.6,148.7 L1030.7,126.6 L1030.8,100.2 L1030.9,91.6 L1031.0,135.9 L1031.1,98.4 L1031.2,138.0 L1031.4,109.1 L1031.5,141.4 L1031.6,137.9 L1031.7,151.4 L1031.8,153.1 L1031.9,131.3 L1032.0,111.3 L1032.2,140.0 L1032.4,106.2 L1032.5,138.5 L1032.6,131.5 L1032.7,150.2 L1032.8,101.5 L1032.9,148.5 L1033.1,116.1 L1033.2,120.4 L1033.3,110.5 L1033.4,136.3 L1033.5,154.3 L1033.6,105.5 L1033.7,129.5 L1033.9,140.1 L1034.0,102.4 L1034.1,127.2 L1034.2,144.4 L1034.3,162.0 L1034.4,145.9 L1034.5,110.1 L1034.6,162.2 L1034.8,118.8 L1034.9,160.1 L1035.1,129.9 L1035.2,124.8 L1035.3,134.6 L1035.4,166.7 L1035.5,123.4 L1035.7,139.9 L1035.8,147.0 L1035.9,120.5 L1036.0,132.7 L1036.1,145.9 L1036.2,169.0 L1036.4,147.9 L1036.5,136.7 L1036.6,161.9 L1036.7,160.2 L1036.8,139.9 L1036.9,149.8 L1037.0,161.8 L1037.1,133.7 L1037.3,168.9 L1037.4,144.8 L1037.5,166.1 L1037.6,136.7 L1037.8,152.5 L1037.9,138.8 L1038.0,128.0 L1038.1,173.2 L1038.3,157.1 L1038.4,147.2 L1038.5,165.8 L1038.6,171.3 L1038.7,135.0 L1038.8,176.6 L1038.9,170.6 L1039.1,158.7 L1039.2,130.4 L1039.3,183.7 L1039.4,131.6 L1039.5,144.9 L1039.6,184.2 L1039.7,137.8 L1039.8,135.7 L1040.0,157.6 L1040.1,147.2 L1040.2,186.4 L1040.3,175.0 L1040.5,183.1 L1040.6,152.3 L1040.8,181.7 L1040.9,163.6 L1041.0,162.2 L1041.1,171.9 L1041.2,185.8 L1041.3,147.5 L1041.4,166.4 L1041.6,182.4 L1041.7,178.6 L1041.8,182.3 L1041.9,181.9 L1042.0,181.3 L1042.1,181.9 L1042.2,188.5 L1042.4,171.4 L1042.5,166.6 L1042.6,161.3 L1042.7,182.9 L1042.8,157.9 L1042.9,190.6 L1043.0,173.7 L1043.4,163.8 L1043.5,201.3 L1043.6,177.5 L1043.7,204.7 L1043.8,201.7 L1043.9,198.5 L1044.0,172.6 L1044.2,176.9 L1044.3,205.6 L1044.4,187.9 L1044.5,196.5 L1044.6,173.5 L1044.7,208.0 L1044.8,205.4 L1045.0,202.1 L1045.1,210.0 L1045.2,204.5 L1045.3,178.3 L1045.4,201.0 L1045.5,210.6 L1045.6,196.8 L1045.7,178.1 L1045.9,204.2 L1046.2,177.9 L1046.3,213.3 L1046.4,206.7 L1046.5,191.3 L1046.6,197.8 L1046.8,179.7 L1046.9,223.7 L1047.0,186.3 L1047.1,222.2 L1047.2,203.5 L1047.3,218.5 L1047.4,203.0 L1047.5,211.3 L1047.7,227.0 L1047.8,213.1 L1047.9,217.1 L1048.0,229.0 L1048.1,225.0 L1048.2,201.8 L1048.3,198.0 L1048.4,232.9 L1048.6,216.3 L1048.7,202.1 L1049.0,195.9 L1049.1,199.1 L1049.2,218.9 L1049.4,206.4 L1049.5,212.7 L1049.6,220.6 L1049.7,236.2 L1049.8,212.6 L1049.9,237.3 L1050.0,207.6 L1050.2,217.7 L1050.3,223.1 L1050.4,232.4 L1050.5,214.7 L1050.6,219.0 L1050.7,225.2 L1050.8,243.1 L1050.9,233.8 L1051.1,229.3 L1051.2,217.5 L1051.3,238.1 L1051.4,218.0 L1051.5,232.1 L1051.9,245.0 L1052.0,221.2 L1052.1,247.2 L1052.2,254.9 L1052.3,233.9 L1052.4,250.4 L1052.5,259.0 L1052.6,249.4 L1052.8,245.1 L1052.9,257.2 L1053.0,258.8 L1053.1,241.0 L1053.2,234.3 L1053.3,257.2 L1053.4,264.1 L1053.6,232.4 L1053.7,233.3 L1053.8,236.5 L1053.9,249.8 L1054.0,261.3 L1054.1,246.8 L1054.2,263.4 L1054.3,250.6 L1054.7,256.6 L1054.8,252.2 L1054.9,269.0 L1055.0,276.0 L1055.1,252.4 L1055.3,275.2 L1055.4,264.1 L1055.5,259.0 L1055.6,271.8 L1055.7,251.3 L1055.8,263.9 L1055.9,253.5 L1056.0,275.0 L1056.2,281.1 L1056.3,258.7 L1056.4,254.8 L1056.5,276.5 L1056.6,283.4 L1056.7,286.0 L1056.8,282.8 L1056.9,283.7 L1057.1,287.3 L1057.2,284.7 L1057.5,285.0 L1057.6,292.4 L1057.7,294.9 L1057.9,289.5 L1058.0,285.9 L1058.1,276.1 L1058.2,274.6 L1058.3,280.6 L1058.4,299.3 L1058.5,288.4 L1058.6,300.5 L1058.8,283.3 L1058.9,282.0 L1059.0,293.5 L1059.1,289.8 L1059.2,301.0 L1059.3,305.1 L1059.4,289.1 L1059.6,284.3 L1059.7,301.8 L1059.8,306.4 L1059.9,309.7 L1060.0,308.4 L1060.4,292.1 L1060.5,298.6 L1060.6,300.2 L1060.7,319.1 L1060.8,317.7 L1060.9,298.9 L1061.0,301.3 L1061.2,318.1 L1061.3,301.1 L1061.4,324.0 L1061.5,315.5 L1061.6,311.7 L1061.7,324.8 L1061.8,318.3 L1061.9,321.7 L1062.1,316.2 L1062.2,319.6 L1062.3,321.5 L1062.4,330.3 L1062.5,322.0 L1062.6,318.6 L1062.7,320.1 L1062.9,336.0 L1063.2,334.8 L1063.3,340.4 L1063.4,337.1 L1063.5,331.3 L1063.7,331.9 L1063.8,328.5 L1063.9,340.5 L1064.0,343.7 L1064.1,344.9 L1064.2,339.1 L1064.3,334.7 L1064.4,336.0 L1064.6,338.7 L1064.7,342.5 L1064.8,337.5 L1064.9,351.9 L1065.0,350.9 L1065.1,342.2 L1065.2,354.8 L1065.4,343.3 L1065.5,350.2 L1065.6,346.1 L1065.7,347.6 L1066.0,359.4 L1066.2,356.7 L1066.3,360.3 L1066.4,360.3 L1066.5,357.5 L1066.6,368.4 L1066.7,368.7 L1066.8,365.2 L1067.0,371.0 L1067.1,361.5 L1067.2,368.7 L1067.3,371.4 L1067.4,370.9 L1067.5,372.8 L1067.6,370.0 L1067.7,373.6 L1067.9,370.7 L1068.0,381.3 L1068.1,381.0 L1068.2,378.4 L1068.3,382.5 L1068.4,378.8 L1068.5,383.0 L1068.9,382.6 L1069.0,386.4 L1069.1,389.0 L1069.2,388.8 L1069.3,393.6 L1069.4,389.9 L1069.6,390.4 L1069.7,391.9 L1069.8,395.1 L1069.9,395.7 L1070.0,398.1 L1070.1,397.4 L1070.2,399.2 L1070.4,403.0 L1070.5,400.0 L1070.6,405.1 L1070.7,406.8 L1070.8,405.7 L1070.9,407.4 L1071.0,406.5 L1071.2,409.2 L1071.3,409.7 L1071.4,410.6 L1071.7,415.3 L1071.8,417.4 L1072.0,417.5 L1072.1,420.1 L1072.2,419.7 L1072.3,421.0 L1072.4,422.8 L1072.5,423.4 L1072.6,425.3 L1072.8,426.7 L1072.9,427.6 L1073.0,428.7 L1073.1,430.3 L1073.2,431.5 L1073.3,433.5 L1073.5,433.7 L1073.6,436.3 L1073.8,436.3 L1073.9,439.4 L1074.0,440.8 L1074.1,441.6 L1074.3,440.8 L1074.8,450.1 L1074.9,447.1 L1075.0,452.8 L1075.1,448.6 L1075.2,450.6 L1075.4,452.9 L1075.5,455.1 L1075.6,459.0 L1075.7,461.5 L1075.8,455.5 L1075.9,462.0 L1076.0,460.2 L1076.2,462.8 L1076.3,461.1 L1076.4,468.1 L1076.5,470.5 L1076.6,464.3 L1076.7,466.1 L1076.8,473.2 L1077.0,469.5 L1077.1,477.0 L1077.2,469.7 L1077.3,472.3 L1077.8,485.3 L1077.9,480.8 L1078.1,478.7 L1078.2,484.4 L1078.3,480.4 L1078.4,489.6 L1078.5,481.8 L1078.6,493.4 L1078.7,496.1 L1078.9,492.8 L1079.0,488.6 L1079.1,494.8 L1079.2,488.7 L1079.3,492.2 L1079.4,498.6 L1079.5,491.3 L1079.7,496.3 L1079.8,503.0 L1079.9,501.7 L1080.0,503.0 L1080.1,498.1 L1080.7,507.7 L1081.0,507.5 L1081.1,511.0 L1081.2,520.1 L1081.3,517.8 L1081.5,520.2 L1081.6,519.0 L1081.7,514.4 L1081.8,522.2 L1081.9,527.8 L1082.0,527.0 L1082.2,516.7 L1082.3,528.4 L1082.4,526.3 L1082.5,537.1 L1082.6,531.8 L1082.7,531.0 L1082.8,527.7 L1082.9,532.3 L1083.1,535.3 L1083.2,544.0 L1083.3,529.1 L1083.4,537.1 L1083.5,537.1 L1083.9,534.7 L1084.0,533.2" fill="none" stroke="#1f77b4" stroke-width="1.4" opacity="0.85"/><text x="1040" y="54" fill="#ff7f0e" font-size="11">roll 16</text><text x="1090" y="558" fill="#ff7f0e" font-size="11">-21</text><path d="M1008.5,280.7 L1008.6,280.7 L1008.7,280.7 L1008.9,281.9 L1009.0,280.7 L1009.1,280.7 L1009.2,280.7 L1009.3,280.7 L1009.4,279.4 L1009.6,280.7 L1009.7,279.4 L1009.8,279.4 L1009.9,279.4 L1010.0,279.4 L1010.1,279.4 L1010.2,276.9 L1010.3,275.7 L1010.5,273.2 L1010.6,274.4 L1010.7,270.7 L1010.8,269.4 L1010.9,270.7 L1011.0,268.2 L1011.1,268.2 L1011.2,265.7 L1011.4,265.7 L1011.5,262.0 L1011.6,262.0 L1011.7,259.5 L1011.8,257.0 L1011.9,254.5 L1012.0,249.5 L1012.1,247.0 L1012.3,240.7 L1012.4,239.5 L1012.5,239.5 L1012.6,239.5 L1012.7,240.7 L1012.8,235.7 L1012.9,225.8 L1013.0,224.5 L1013.2,229.5 L1013.3,227.0 L1013.4,217.0 L1013.5,224.5 L1013.6,219.5 L1013.7,209.5 L1013.8,215.8 L1014.0,205.8 L1014.1,204.5 L1014.2,199.6 L1014.3,197.1 L1014.4,210.8 L1014.5,199.6 L1014.6,204.5 L1014.7,204.5 L1014.9,193.3 L1015.0,188.3 L1015.1,185.8 L1015.2,194.6 L1015.3,180.8 L1015.4,183.3 L1015.5,172.1 L1015.6,172.1 L1015.8,190.8 L1015.9,190.8 L1016.0,188.3 L1016.1,180.8 L1016.2,183.3 L1016.3,173.3 L1016.4,179.6 L1016.6,169.6 L1016.7,158.4 L1016.8,164.6 L1016.9,164.6 L1017.0,168.4 L1017.1,172.1 L1017.2,175.8 L1017.4,157.1 L1017.5,172.1 L1017.6,173.3 L1017.7,153.4 L1017.8,170.8 L1017.9,149.6 L1018.0,148.4 L1018.2,152.1 L1018.3,157.1 L1018.4,158.4 L1018.5,169.6 L1018.6,160.9 L1018.7,155.9 L1018.8,154.6 L1018.9,148.4 L1019.0,168.4 L1019.2,150.9 L1019.3,140.9 L1019.4,147.1 L1019.5,158.4 L1019.6,140.9 L1019.7,154.6 L1019.8,149.6 L1019.9,147.1 L1020.1,154.6 L1020.2,157.1 L1020.3,140.9 L1020.4,159.6 L1020.5,158.4 L1020.6,145.9 L1020.7,160.9 L1020.8,132.2 L1021.0,140.9 L1021.1,140.9 L1021.2,129.7 L1021.3,153.4 L1021.4,135.9 L1021.6,150.9 L1021.7,139.6 L1021.8,145.9 L1021.9,133.4 L1022.0,139.6 L1022.2,128.4 L1022.3,142.1 L1022.4,127.2 L1022.5,122.2 L1022.6,142.1 L1022.7,149.6 L1022.8,144.6 L1022.9,125.9 L1023.1,143.4 L1023.2,123.4 L1023.3,134.7 L1023.4,135.9 L1023.5,124.7 L1023.6,122.2 L1023.7,143.4 L1023.8,125.9 L1024.0,276.9 L1024.1,252.0 L1024.2,218.3 L1024.4,210.8 L1024.5,185.8 L1024.6,158.4 L1024.7,160.9 L1024.8,149.6 L1024.9,127.2 L1025.0,103.5 L1025.2,110.9 L1025.3,93.5 L1025.4,101.0 L1025.5,98.5 L1025.6,107.2 L1025.7,99.7 L1025.8,76.0 L1025.9,83.5 L1026.1,103.5 L1026.2,81.0 L1026.3,102.2 L1026.4,79.7 L1026.5,112.2 L1026.7,108.4 L1026.8,103.5 L1027.0,78.5 L1027.1,96.0 L1027.2,109.7 L1027.3,109.7 L1027.4,108.4 L1027.5,110.9 L1027.6,129.7 L1027.8,120.9 L1027.9,154.6 L1028.0,134.7 L1028.1,134.7 L1028.2,140.9 L1028.3,148.4 L1028.4,160.9 L1028.6,177.1 L1028.7,165.9 L1028.8,162.1 L1028.9,180.8 L1029.0,169.6 L1029.1,167.1 L1029.2,169.6 L1029.4,179.6 L1029.5,180.8 L1029.7,218.3 L1029.8,214.5 L1029.9,213.3 L1030.0,214.5 L1030.1,217.0 L1030.2,219.5 L1030.3,220.8 L1030.4,214.5 L1030.6,215.8 L1030.7,230.8 L1030.8,238.2 L1030.9,234.5 L1031.0,240.7 L1031.1,245.7 L1031.2,249.5 L1031.4,265.7 L1031.5,269.4 L1031.6,278.2 L1031.7,273.2 L1031.8,270.7 L1031.9,275.7 L1032.0,279.4 L1032.2,269.4 L1032.4,235.7 L1032.5,244.5 L1032.6,248.2 L1032.7,268.2 L1032.8,264.4 L1032.9,278.2 L1033.1,281.9 L1033.2,286.9 L1033.3,285.7 L1033.4,279.4 L1033.5,283.2 L1033.6,284.4 L1033.7,286.9 L1033.9,288.2 L1034.0,288.2 L1034.1,286.9 L1034.2,283.2 L1034.3,283.2 L1034.4,288.2 L1034.5,288.2 L1034.6,288.2 L1034.8,283.2 L1034.9,284.4 L1035.1,280.7 L1035.2,283.2 L1035.3,284.4 L1035.4,281.9 L1035.5,293.2 L1035.7,300.6 L1035.8,300.6 L1035.9,303.1 L1036.0,306.9 L1036.1,310.6 L1036.2,319.4 L1036.4,329.3 L1036.5,318.1 L1036.6,316.9 L1036.7,324.4 L1036.8,320.6 L1036.9,326.8 L1037.0,318.1 L1037.1,321.9 L1037.3,319.4 L1037.4,333.1 L1037.5,318.1 L1037.6,323.1 L1037.8,313.1 L1037.9,328.1 L1038.0,333.1 L1038.1,325.6 L1038.3,324.4 L1038.4,328.1 L1038.5,326.8 L1038.6,331.8 L1038.7,326.8 L1038.8,325.6 L1038.9,330.6 L1039.1,324.4 L1039.2,311.9 L1039.3,336.8 L1039.4,328.1 L1039.5,333.1 L1039.6,336.8 L1039.7,334.3 L1039.8,336.8 L1040.0,330.6 L1040.1,334.3 L1040.2,331.8 L1040.3,345.6 L1040.5,370.5 L1040.6,368.0 L1040.8,359.3 L1040.9,366.8 L1041.0,369.3 L1041.1,363.0 L1041.2,373.0 L1041.3,366.8 L1041.4,364.3 L1041.6,351.8 L1041.7,349.3 L1041.8,353.1 L1041.9,350.6 L1042.0,358.0 L1042.1,343.1 L1042.2,346.8 L1042.4,355.6 L1042.5,341.8 L1042.6,346.8 L1042.7,351.8 L1042.8,340.6 L1042.9,335.6 L1043.0,346.8 L1043.4,262.0 L1043.5,275.7 L1043.6,288.2 L1043.7,290.7 L1043.8,306.9 L1043.9,326.8 L1044.0,325.6 L1044.2,336.8 L1044.3,336.8 L1044.4,348.1 L1044.5,349.3 L1044.6,366.8 L1044.7,353.1 L1044.8,363.0 L1045.0,358.0 L1045.1,350.6 L1045.2,350.6 L1045.3,351.8 L1045.4,348.1 L1045.5,344.3 L1045.6,350.6 L1045.7,340.6 L1045.9,346.8 L1046.2,400.5 L1046.3,389.2 L1046.4,383.0 L1046.5,370.5 L1046.6,369.3 L1046.7,355.6 L1046.9,349.3 L1047.0,354.3 L1047.1,358.0 L1047.2,354.3 L1047.3,345.6 L1047.4,348.1 L1047.5,335.6 L1047.7,343.1 L1047.8,329.3 L1047.9,341.8 L1048.0,331.8 L1048.1,334.3 L1048.2,330.6 L1048.3,326.8 L1048.4,336.8 L1048.6,335.6 L1048.7,339.3 L1049.0,389.2 L1049.1,366.8 L1049.2,348.1 L1049.4,349.3 L1049.5,340.6 L1049.6,330.6 L1049.7,333.1 L1049.8,325.6 L1049.9,330.6 L1050.0,338.1 L1050.2,331.8 L1050.3,325.6 L1050.4,335.6 L1050.5,329.3 L1050.6,319.4 L1050.7,331.8 L1050.8,324.4 L1050.9,330.6 L1051.1,328.1 L1051.2,320.6 L1051.3,325.6 L1051.4,329.3 L1051.5,324.4 L1051.8,245.7 L1052.0,263.2 L1052.1,271.9 L1052.2,279.4 L1052.3,285.7 L1052.4,305.6 L1052.5,325.6 L1052.6,346.8 L1052.8,365.5 L1052.9,386.8 L1053.0,396.7 L1053.1,416.7 L1053.2,425.4 L1053.3,437.9 L1053.4,432.9 L1053.6,441.7 L1053.7,477.9 L1053.8,477.9 L1053.9,466.6 L1054.0,480.4 L1054.1,464.1 L1054.2,487.8 L1054.3,484.1 L1054.7,480.4 L1054.8,467.9 L1054.9,470.4 L1055.0,500.3 L1055.1,504.1 L1055.3,462.9 L1055.4,504.1 L1055.5,490.3 L1055.6,475.4 L1055.7,485.3 L1055.8,467.9 L1055.9,497.8 L1056.0,500.3 L1056.2,484.1 L1056.3,500.3 L1056.4,495.3 L1056.5,477.9 L1056.6,484.1 L1056.7,472.9 L1056.8,494.1 L1056.9,480.4 L1057.1,466.6 L1057.2,491.6 L1057.5,516.5 L1057.6,510.3 L1057.7,485.3 L1057.9,497.8 L1058.0,500.3 L1058.1,481.6 L1058.2,479.1 L1058.3,484.1 L1058.4,504.1 L1058.5,484.1 L1058.6,505.3 L1058.8,477.9 L1058.9,509.1 L1059.0,484.1 L1059.1,489.1 L1059.2,485.3 L1059.3,482.8 L1059.4,495.3 L1059.6,501.6 L1059.7,501.6 L1059.8,482.8 L1059.9,506.6 L1060.0,467.9 L1060.4,437.9 L1060.5,426.7 L1060.6,454.1 L1060.7,455.4 L1060.8,472.9 L1060.9,456.6 L1061.0,462.9 L1061.1,485.3 L1061.3,492.8 L1061.4,479.1 L1061.5,492.8 L1061.6,464.1 L1061.7,474.1 L1061.8,482.8 L1061.9,506.6 L1062.1,486.6 L1062.2,490.3 L1062.3,469.1 L1062.4,479.1 L1062.5,469.1 L1062.6,499.1 L1062.7,500.3 L1062.9,489.1 L1063.2,491.6 L1063.3,496.6 L1063.4,487.8 L1063.5,499.1 L1063.7,511.6 L1063.8,499.1 L1063.9,501.6 L1064.0,495.3 L1064.1,467.9 L1064.2,490.3 L1064.3,490.3 L1064.4,494.1 L1064.6,465.4 L1064.7,507.8 L1064.8,491.6 L1064.9,499.1 L1065.0,475.4 L1065.1,486.6 L1065.2,467.9 L1065.4,505.3 L1065.5,506.6 L1065.6,496.6 L1065.7,489.1 L1066.0,500.3 L1066.2,519.0 L1066.3,502.8 L1066.4,490.3 L1066.5,514.0 L1066.6,492.8 L1066.7,485.3 L1066.8,494.1 L1067.0,507.8 L1067.1,479.1 L1067.2,506.6 L1067.3,470.4 L1067.4,497.8 L1067.5,494.1 L1067.6,479.1 L1067.7,467.9 L1067.9,471.6 L1068.0,482.8 L1068.1,487.8 L1068.2,481.6 L1068.3,506.6 L1068.4,474.1 L1068.5,501.6 L1068.9,466.6 L1069.0,482.8 L1069.1,495.3 L1069.2,472.9 L1069.3,476.6 L1069.4,477.9 L1069.6,471.6 L1069.7,499.1 L1069.8,506.6 L1069.9,490.3 L1070.0,467.9 L1070.1,504.1 L1070.2,470.4 L1070.4,497.8 L1070.5,504.1 L1070.6,495.3 L1070.7,487.8 L1070.8,490.3 L1070.9,475.4 L1071.0,466.6 L1071.2,486.6 L1071.3,464.1 L1071.4,461.6 L1071.7,460.4 L1071.8,506.6 L1072.0,490.3 L1072.1,501.6 L1072.2,507.8 L1072.3,511.6 L1072.4,501.6 L1072.5,516.5 L1072.6,544.0 L1072.8,509.1 L1072.9,512.8 L1073.0,515.3 L1073.1,520.3 L1073.2,530.3 L1073.3,529.0 L1073.5,529.0 L1073.6,514.0 L1073.8,509.1 L1073.9,491.6 L1074.0,464.1 L1074.1,481.6 L1074.3,437.9 L1074.8,303.1 L1074.9,296.9 L1075.0,323.1 L1075.1,344.3 L1075.2,343.1 L1075.4,336.8 L1075.5,321.9 L1075.6,336.8 L1075.7,325.6 L1075.8,331.8 L1075.9,313.1 L1076.0,333.1 L1076.2,341.8 L1076.3,314.4 L1076.4,315.6 L1076.5,310.6 L1076.6,310.6 L1076.7,325.6 L1076.8,313.1 L1077.0,305.6 L1077.1,286.9 L1077.2,269.4 L1077.3,239.5 L1077.8,345.6 L1077.9,326.8 L1078.1,296.9 L1078.2,273.2 L1078.3,243.2 L1078.4,237.0 L1078.5,223.3 L1078.6,228.3 L1078.7,202.0 L1078.9,185.8 L1079.0,190.8 L1079.1,175.8 L1079.2,172.1 L1079.3,193.3 L1079.4,182.1 L1079.5,172.1 L1079.7,170.8 L1079.8,144.6 L1079.9,165.9 L1080.0,149.6 L1080.1,137.2 L1080.6,247.0 L1081.0,257.0 L1081.1,258.2 L1081.2,255.7 L1081.3,262.0 L1081.5,264.4 L1081.6,263.2 L1081.7,266.9 L1081.8,265.7 L1081.9,268.2 L1082.0,268.2 L1082.1,271.9 L1082.3,271.9 L1082.4,270.7 L1082.5,274.4 L1082.6,273.2 L1082.7,275.7 L1082.8,275.7 L1082.9,276.9 L1083.1,275.7 L1083.2,278.2 L1083.3,275.7 L1083.4,276.9 L1083.5,278.2 L1083.9,279.4 L1084.0,278.2" fill="none" stroke="#ff7f0e" stroke-width="1.1" opacity="0.85"/><text x="616" y="572" font-size="11" fill="#888">time 0..181 s — altitude (blue) &amp; roll (orange)</text></svg>