<svg xmlns="http://www.w3.org/2000/svg" width="1140" height="600" font-family="sans-serif" font-size="13"><rect width="1140" height="600" fill="white"/><text x="20" y="26" font-size="15" fill="#333">Coludo flight</text><rect x="20" y="40" width="540" height="540" fill="#fbfbfb" stroke="#ddd"/><rect x="50" y="304" width="281" height="60" fill="#cde" stroke="#369" opacity="0.7"/><text x="50" y="299" fill="#369" font-size="12">landing zone</text><circle cx="228" cy="399" r="5" fill="black"/><text x="236" y="403" font-size="12">pad</text><path d="M228.3,398.5 L228.3,398.5 L228.3,398.5 L228.3,398.5 L228.3,398.5 L228.3,398.5 L228.3,398.5 L228.3,398.5 L228.3,398.5 L228.3,398.5 L228.3,398.5 L228.3,398.5 L228.3,398.5 L228.3,398.5 L228.3,398.5 L228.3,398.5 L228.3,398.5 L228.3,398.5 L228.3,398.5 L228.3,398.5 L228.3,398.5 L228.3,398.5 L228.3,398.5 L228.3,398.5 L228.3,398.5 L228.3,398.5 L228.3,398.5 L228.3,398.5 L228.3,398.5 L228.3,398.5 L228.3,398.5 L228.3,398.5 L228.3,398.5 L228.3,398.5 L228.3,398.5 L228.3,398.5 L228.3,398.5 L228.3,398.5 L228.3,398.5 L228.3,398.5 L228.3,398.5 L228.3,398.5 L228.3,398.5 L228.3,398.5 L228.3,398.5 L228.3,398.5 L228.3,398.5 L228.3,398.5 L228.3,398.5 L228.3,398.5 L228.3,398.5 L228.3,398.5 L228.3,398.5 L228.3,398.5 L228.3,398.5 L229.2,396.8 L229.8,395.2 L231.3,393.2 L232.8,391.2 L234.0,389.5 L234.3,387.1 L235.8,385.5 L238.9,383.5 L238.9,382.1 L240.4,380.1 L243.4,378.4 L243.7,376.8 L244.9,375.4 L247.9,373.8 L248.5,372.1 L250.9,370.8 L252.4,369.1 L253.9,367.8 L257.0,366.4 L258.2,365.1 L260.0,363.7 L261.5,362.4 L264.2,361.4 L266.0,359.7 L267.5,358.4 L269.0,356.7 L270.5,355.7 L272.7,353.7 L273.6,352.4 L276.6,350.0 L277.5,348.7 L279.6,347.0 L281.1,345.4 L282.6,343.3 L283.5,341.7 L285.6,339.7 L287.1,338.0 L288.3,335.7 L288.6,334.0 L290.2,332.3 L291.7,330.0 L292.0,328.3 L293.2,326.0 L293.2,324.0 L294.7,321.3 L296.2,319.6 L296.8,317.3 L296.8,314.9 L297.7,312.9 L297.7,310.3 L299.2,308.2 L299.2,305.9 L299.2,303.6 L300.7,301.2 L300.7,299.2 L300.7,296.5 L301.6,294.5 L301.6,292.2 L302.2,290.2 L302.2,287.5 L303.7,285.8 L303.7,283.2 L305.2,281.2 L305.2,279.2 L306.7,276.8 L307.0,274.5 L308.3,272.8 L309.8,269.1 L311.3,267.1 L312.5,265.1 L312.8,263.1 L314.3,261.1 L315.8,259.4 L316.1,257.8 L317.3,255.4 L318.8,253.8 L320.9,252.1 L321.8,250.4 L323.3,248.4 L326.4,246.7 L327.6,245.4 L329.4,243.7 L330.9,242.1 L332.4,240.7 L333.9,239.0 L337.2,238.0 L338.4,236.4 L339.9,235.4 L341.4,234.0 L344.5,232.7 L345.1,232.0 L347.5,230.7 L350.5,229.7 L352.0,228.7 L353.5,227.7 L355.3,226.7 L358.0,226.0 L360.1,225.3 L362.6,224.7 L364.4,224.3 L367.1,223.7 L369.2,223.3 L371.6,222.7 L374.6,222.3 L376.1,222.0 L379.2,221.7 L380.7,221.7 L383.7,221.3 L385.2,221.3 L388.2,221.3 L389.7,221.3 L392.7,221.7 L395.1,221.7 L397.3,222.0 L400.0,222.3 L401.8,222.7 L404.2,223.0 L406.3,223.7 L409.0,224.0 L409.3,224.7 L413.8,225.0 L413.8,225.7 L416.9,226.7 L418.1,227.3 L421.4,228.3 L424.1,229.4 L425.9,230.4 L427.4,231.4 L428.9,232.0 L431.9,233.4 L433.5,235.0 L435.0,236.0 L438.0,237.7 L439.5,238.7 L441.0,240.0 L442.8,241.7 L444.0,243.1 L447.0,244.7 L448.2,246.1 L450.1,247.7 L451.6,249.4 L451.9,251.4 L454.6,253.1 L456.1,254.8 L457.9,256.8 L457.6,258.8 L460.6,260.4 L460.6,262.4 L462.1,264.1 L463.6,266.1 L463.6,268.1 L465.1,270.5 L466.6,272.8 L466.9,274.5 L468.2,276.8 L469.7,278.8 L471.8,282.8 L472.7,284.8 L474.2,286.8 L475.7,288.9 L476.0,290.9 L477.2,292.9 L478.7,294.9 L480.2,296.9 L480.8,298.9 L483.2,301.9 L486.3,303.9 L487.5,306.2 L487.8,307.6 L490.8,309.6 L491.1,311.3 L492.3,313.3 L495.3,314.9 L495.9,316.6 L498.3,319.6 L500.7,321.3 L501.3,323.0 L504.4,324.6 L505.9,326.3 L510.4,329.6 L511.6,331.3 L513.4,332.6 L516.4,335.3 L519.4,337.0 L520.9,338.3 L522.5,339.7 L524.9,341.3 L527.0,342.0 L530.0,343.7" fill="none" stroke="#1f77b4" stroke-width="1.7" opacity="0.85"/><circle cx="530" cy="344" r="4.5" fill="#1f77b4"/><text x="28" y="572" font-size="11" fill="#888">ground track — m from pad (N up)</text><rect x="580" y="40" width="540" height="540" fill="#fbfbfb" stroke="#ddd"/><text x="586" y="54" fill="#1f77b4" font-size="11">alt 142</text><text x="586" y="558" fill="#1f77b4" font-size="11">-50</text><path d="M1067.4,417.5 L1067.4,418.1 L1067.4,417.9 L1067.5,416.5 L1067.5,417.4 L1067.5,415.3 L1067.6,415.5 L1067.6,413.5 L1067.6,412.6 L1067.6,410.9 L1067.7,411.8 L1067.7,410.0 L1067.7,408.6 L1067.8,405.9 L1067.8,405.4 L1067.8,401.8 L1067.8,401.2 L1067.9,397.4 L1067.9,397.0 L1067.9,394.9 L1067.9,387.8 L1068.0,389.7 L1068.0,388.4 L1068.0,380.0 L1068.0,383.8 L1068.1,377.9 L1068.1,376.3 L1068.1,368.9 L1068.2,369.3 L1068.2,369.3 L1068.2,363.7 L1068.2,362.7 L1068.3,348.2 L1068.3,346.3 L1068.3,351.9 L1068.3,346.0 L1068.4,328.3 L1068.4,328.0 L1068.4,318.0 L1068.4,324.4 L1068.5,309.2 L1068.5,310.0 L1068.5,314.3 L1068.6,306.4 L1068.6,306.0 L1068.6,290.4 L1068.6,279.8 L1068.7,284.1 L1068.7,291.0 L1068.7,282.2 L1068.7,260.8 L1068.8,263.8 L1068.8,255.2 L1068.8,253.2 L1068.8,249.3 L1068.9,236.7 L1068.9,240.5 L1068.9,252.6 L1069.0,242.5 L1069.0,235.3 L1069.0,217.6 L1069.0,232.9 L1069.1,217.5 L1069.1,209.1 L1069.1,226.2 L1069.1,235.5 L1069.2,207.3 L1069.2,190.2 L1069.2,227.3 L1069.2,194.2 L1069.3,193.0 L1069.3,205.5 L1069.3,189.8 L1069.4,205.7 L1069.4,202.5 L1069.4,185.2 L1069.4,169.8 L1069.5,166.5 L1069.5,152.6 L1069.5,192.3 L1069.5,167.6 L1069.6,178.3 L1069.6,190.0 L1069.6,143.9 L1069.6,149.7 L1069.7,147.0 L1069.7,141.9 L1069.7,182.0 L1069.8,130.0 L1069.8,139.3 L1069.8,166.3 L1069.8,157.3 L1069.9,142.0 L1069.9,136.5 L1069.9,158.8 L1069.9,120.0 L1070.0,143.1 L1070.0,161.9 L1070.0,144.9 L1070.1,152.1 L1070.1,148.7 L1070.1,148.1 L1070.1,147.3 L1070.2,109.5 L1070.2,123.0 L1070.2,149.6 L1070.2,111.0 L1070.3,150.4 L1070.3,143.2 L1070.3,92.5 L1070.3,85.7 L1070.4,97.8 L1070.4,97.1 L1070.4,126.4 L1070.5,97.8 L1070.5,131.4 L1070.5,114.2 L1070.5,131.9 L1070.6,115.1 L1070.6,112.3 L1070.6,93.4 L1070.6,136.2 L1070.7,84.9 L1070.7,123.6 L1070.7,81.5 L1070.8,101.8 L1070.8,132.4 L1070.8,134.0 L1070.8,76.8 L1070.9,122.0 L1070.9,79.6 L1070.9,100.5 L1070.9,112.6 L1071.0,122.3 L1071.0,116.3 L1071.0,88.0 L1071.0,113.9 L1071.1,132.5 L1071.1,92.7 L1071.1,76.9 L1071.2,107.4 L1071.2,124.0 L1071.2,86.3 L1071.2,87.1 L1071.3,112.2 L1071.3,114.2 L1071.3,106.9 L1071.4,76.8 L1071.4,136.3 L1071.4,81.4 L1071.4,104.0 L1071.5,76.0 L1071.5,94.2 L1071.5,126.9 L1071.5,131.9 L1071.6,81.7 L1071.6,102.3 L1071.6,88.0 L1071.6,78.2 L1071.7,108.7 L1071.7,103.5 L1071.7,133.3 L1071.8,90.9 L1071.8,104.5 L1071.8,121.8 L1071.9,121.5 L1071.9,126.1 L1071.9,103.6 L1071.9,124.2 L1072.0,130.2 L1072.0,95.0 L1072.0,119.9 L1072.0,137.6 L1072.1,90.6 L1072.1,80.5 L1072.1,96.1 L1072.1,122.7 L1072.2,83.6 L1072.2,102.8 L1072.2,129.8 L1072.3,107.5 L1072.3,110.4 L1072.3,110.3 L1072.4,110.1 L1072.4,116.3 L1072.4,87.5 L1072.4,134.3 L1072.5,124.4 L1072.5,87.2 L1072.5,141.2 L1072.5,97.7 L1072.6,132.8 L1072.6,89.9 L1072.6,112.5 L1072.7,147.8 L1072.7,113.6 L1072.7,128.6 L1072.7,148.6 L1072.8,143.2 L1072.8,93.4 L1072.8,93.4 L1072.8,103.8 L1072.9,107.5 L1072.9,152.3 L1072.9,104.9 L1072.9,143.3 L1073.0,119.1 L1073.0,132.8 L1073.0,100.1 L1073.1,127.1 L1073.1,118.9 L1073.1,135.3 L1073.2,122.4 L1073.2,131.2 L1073.2,117.1 L1073.2,121.0 L1073.3,121.7 L1073.3,112.8 L1073.3,133.4 L1073.3,153.1 L1073.4,123.2 L1073.4,157.2 L1073.4,125.1 L1073.4,125.8 L1073.5,111.7 L1073.5,160.2 L1073.5,141.4 L1073.6,109.9 L1073.6,112.7 L1073.6,127.3 L1073.7,153.3 L1073.7,153.0 L1073.7,140.9 L1073.7,127.3 L1073.8,134.1 L1073.8,144.4 L1073.8,126.4 L1073.8,159.6 L1073.9,131.2 L1073.9,157.1 L1073.9,148.1 L1073.9,130.0 L1074.0,144.3 L1074.0,123.8 L1074.0,126.1 L1074.1,127.3 L1074.1,129.8 L1074.1,145.5 L1074.1,152.5 L1074.2,168.5 L1074.2,166.8 L1074.2,157.2 L1074.3,129.3 L1074.3,172.9 L1074.3,172.7 L1074.3,127.8 L1074.4,159.9 L1074.4,158.4 L1074.4,175.3 L1074.4,164.2 L1074.5,154.1 L1074.5,158.0 L1074.5,147.7 L1074.6,153.7 L1074.6,166.9 L1074.6,159.8 L1074.6,153.9 L1074.7,171.5 L1074.7,180.1 L1074.7,156.7 L1074.7,162.7 L1074.8,151.2 L1074.8,139.3 L1074.8,188.0 L1074.8,182.0 L1074.9,146.4 L1074.9,161.1 L1075.0,151.9 L1075.0,183.3 L1075.0,182.5 L1075.0,191.4 L1075.1,170.2 L1075.1,162.9 L1075.1,174.1 L1075.1,187.3 L1075.2,172.1 L1075.2,198.8 L1075.2,198.1 L1075.2,184.8 L1075.3,191.8 L1075.3,194.8 L1075.3,197.9 L1075.4,177.8 L1075.4,160.1 L1075.4,189.2 L1075.4,206.5 L1075.5,163.0 L1075.5,192.1 L1075.6,182.0 L1075.6,165.6 L1075.6,183.8 L1075.6,207.5 L1075.7,210.4 L1075.7,203.9 L1075.7,200.6 L1075.7,214.3 L1075.8,185.7 L1075.8,178.2 L1075.8,179.8 L1075.9,184.3 L1075.9,217.4 L1075.9,186.8 L1075.9,216.1 L1076.0,191.8 L1076.0,202.4 L1076.0,212.5 L1076.0,209.5 L1076.1,189.5 L1076.1,188.3 L1076.1,224.6 L1076.1,190.6 L1076.2,224.5 L1076.3,222.0 L1076.3,206.1 L1076.3,215.8 L1076.3,218.4 L1076.4,209.9 L1076.4,200.9 L1076.4,235.1 L1076.4,210.9 L1076.5,221.2 L1076.5,213.8 L1076.5,222.4 L1076.5,230.2 L1076.6,216.7 L1076.6,240.2 L1076.6,239.5 L1076.7,241.4 L1076.7,223.9 L1076.7,233.7 L1076.7,230.0 L1076.8,222.1 L1076.8,221.8 L1076.8,240.1 L1076.9,236.6 L1076.9,248.4 L1076.9,248.8 L1077.0,232.6 L1077.0,239.9 L1077.0,238.4 L1077.0,230.5 L1077.1,227.2 L1077.1,241.3 L1077.1,247.5 L1077.2,248.9 L1077.2,233.5 L1077.2,249.8 L1077.2,245.2 L1077.3,229.0 L1077.3,258.7 L1077.3,248.1 L1077.3,251.5 L1077.4,235.3 L1077.4,238.9 L1077.4,249.1 L1077.4,266.4 L1077.5,247.5 L1077.6,254.6 L1077.6,259.1 L1077.6,241.1 L1077.6,271.7 L1077.7,274.7 L1077.7,270.6 L1077.7,256.6 L1077.7,276.1 L1077.8,275.7 L1077.8,278.0 L1077.8,263.0 L1077.8,262.1 L1077.9,260.7 L1077.9,281.7 L1077.9,255.2 L1077.9,267.3 L1078.0,279.4 L1078.0,280.5 L1078.0,273.6 L1078.1,271.5 L1078.1,285.2 L1078.1,275.1 L1078.1,269.9 L1078.2,279.0 L1078.2,271.8 L1078.3,289.5 L1078.3,280.8 L1078.3,297.1 L1078.3,298.6 L1078.4,281.2 L1078.4,285.7 L1078.4,282.4 L1078.5,293.8 L1078.5,285.9 L1078.5,300.4 L1078.5,295.2 L1078.6,283.9 L1078.6,289.0 L1078.6,304.9 L1078.6,296.6 L1078.7,305.2 L1078.7,307.6 L1078.7,299.3 L1078.7,308.3 L1078.8,310.3 L1078.8,309.7 L1078.9,314.0 L1078.9,317.1 L1078.9,310.2 L1079.0,318.1 L1079.0,319.3 L1079.0,314.8 L1079.0,315.8 L1079.1,312.4 L1079.1,318.6 L1079.1,325.2 L1079.1,322.5 L1079.2,315.4 L1079.2,318.8 L1079.2,332.4 L1079.3,317.0 L1079.3,331.6 L1079.3,319.3 L1079.3,324.1 L1079.4,336.0 L1079.4,338.5 L1079.4,330.2 L1079.4,337.9 L1079.5,324.4 L1079.5,338.0 L1079.6,346.1 L1079.6,333.9 L1079.6,347.6 L1079.6,339.9 L1079.7,335.3 L1079.7,340.4 L1079.7,343.5 L1079.8,352.6 L1079.8,344.2 L1079.8,346.5 L1079.8,345.6 L1079.9,345.5 L1079.9,357.9 L1079.9,352.6 L1079.9,353.3 L1080.0,352.3 L1080.0,352.3 L1080.0,364.3 L1080.0,360.6 L1080.1,355.0 L1080.1,356.3 L1080.1,365.0 L1080.2,364.7 L1080.2,369.6 L1080.3,372.3 L1080.3,367.7 L1080.3,366.5 L1080.3,367.4 L1080.4,373.8 L1080.4,372.4 L1080.4,372.8 L1080.4,377.8 L1080.5,381.1 L1080.5,383.1 L1080.5,376.2 L1080.6,379.5 L1080.6,381.5 L1080.6,386.8 L1080.6,386.5 L1080.7,387.7 L1080.7,388.6 L1080.7,392.8 L1080.7,392.5 L1080.8,389.1 L1080.8,394.5 L1080.9,398.8 L1080.9,400.5 L1080.9,399.2 L1081.0,398.3 L1081.0,402.8 L1081.0,404.9 L1081.0,403.1 L1081.1,406.5 L1081.1,406.8 L1081.1,408.6 L1081.1,409.5 L1081.2,411.2 L1081.2,410.8 L1081.2,412.5 L1081.3,415.6 L1081.3,415.1 L1081.3,417.3 L1081.3,418.5 L1081.4,419.2 L1081.4,421.2 L1081.4,421.7 L1081.4,423.8 L1081.5,425.0 L1081.5,427.6 L1081.6,429.6 L1081.6,430.5 L1081.6,431.5 L1081.6,432.8 L1081.7,433.7 L1081.7,435.2 L1081.7,437.1 L1081.8,439.3 L1081.8,440.6 L1081.8,441.8 L1081.8,443.0 L1081.9,442.2 L1081.9,446.5 L1081.9,443.4 L1081.9,446.8 L1082.0,449.7 L1082.0,447.4 L1082.0,449.3 L1082.0,453.6 L1082.1,453.2 L1082.1,453.3 L1082.1,457.4 L1082.2,456.3 L1082.2,456.4 L1082.3,464.7 L1082.3,465.2 L1082.3,467.2 L1082.3,461.4 L1082.4,461.7 L1082.4,463.3 L1082.4,472.4 L1082.4,468.1 L1082.5,472.2 L1082.5,469.1 L1082.5,473.3 L1082.6,477.0 L1082.6,474.0 L1082.6,479.6 L1082.6,475.0 L1082.7,476.1 L1082.7,480.4 L1082.7,477.6 L1082.7,487.8 L1082.8,478.5 L1082.8,481.4 L1082.9,493.6 L1082.9,484.0 L1082.9,487.5 L1083.0,491.3 L1083.0,495.6 L1083.0,496.2 L1083.0,502.0 L1083.1,505.0 L1083.1,506.4 L1083.1,497.7 L1083.1,494.0 L1083.2,496.7 L1083.3,510.6 L1083.3,508.1 L1083.3,502.6 L1083.4,508.3 L1083.4,509.1 L1083.4,518.5 L1083.4,505.3 L1083.6,519.9 L1083.6,526.2 L1083.6,517.0 L1083.7,527.1 L1083.7,522.4 L1083.7,533.2 L1083.7,531.6 L1083.8,535.2 L1083.8,539.7 L1083.8,537.3 L1083.8,543.3 L1083.9,533.9 L1083.9,530.9 L1083.9,540.0 L1083.9,544.0 L1084.0,527.1 L1084.0,527.5" fill="none" stroke="#1f77b4" stroke-width="1.4" opacity="0.85"/><text x="1040" y="54" fill="#ff7f0e" font-size="11">roll 19</text><text x="1090" y="558" fill="#ff7f0e" font-size="11">-18</text><path d="M1067.4,319.5 L1067.4,318.2 L1067.4,320.7 L1067.5,318.2 L1067.5,318.2 L1067.5,320.7 L1067.6,318.2 L1067.6,319.5 L1067.6,319.5 L1067.6,318.2 L1067.7,320.7 L1067.7,319.5 L1067.7,318.2 L1067.8,319.5 L1067.8,319.5 L1067.8,319.5 L1067.8,320.7 L1067.9,319.5 L1067.9,320.7 L1067.9,319.5 L1067.9,319.5 L1068.0,318.2 L1068.0,319.5 L1068.0,319.5 L1068.0,318.2 L1068.1,318.2 L1068.1,318.2 L1068.1,320.7 L1068.2,319.5 L1068.2,320.7 L1068.2,320.7 L1068.2,319.5 L1068.3,320.7 L1068.3,319.5 L1068.3,318.2 L1068.3,318.2 L1068.4,319.5 L1068.4,318.2 L1068.4,320.7 L1068.4,318.2 L1068.5,320.7 L1068.5,319.5 L1068.5,319.5 L1068.6,318.2 L1068.6,318.2 L1068.6,319.5 L1068.6,318.2 L1068.7,319.5 L1068.7,320.7 L1068.7,319.5 L1068.7,318.2 L1068.8,319.5 L1068.8,320.7 L1068.8,320.7 L1068.8,319.5 L1068.9,319.5 L1068.9,319.5 L1068.9,318.2 L1069.0,319.5 L1069.0,319.5 L1069.0,319.5 L1069.0,319.5 L1069.1,320.7 L1069.1,319.5 L1069.1,318.2 L1069.1,318.2 L1069.2,320.7 L1069.2,319.5 L1069.2,320.7 L1069.2,319.5 L1069.3,319.5 L1069.3,318.2 L1069.3,319.5 L1069.4,319.5 L1069.4,319.5 L1069.4,318.2 L1069.4,319.5 L1069.5,319.5 L1069.5,318.2 L1069.5,319.5 L1069.5,320.7 L1069.6,320.7 L1069.6,320.7 L1069.6,320.7 L1069.6,319.5 L1069.7,320.7 L1069.7,319.5 L1069.7,319.5 L1069.8,320.7 L1069.8,319.5 L1069.8,319.5 L1069.8,319.5 L1069.9,318.2 L1069.9,320.7 L1069.9,318.2 L1069.9,318.2 L1070.0,320.7 L1070.0,320.7 L1070.0,319.5 L1070.1,319.5 L1070.1,319.5 L1070.1,319.5 L1070.1,318.2 L1070.2,319.5 L1070.2,320.7 L1070.2,319.5 L1070.2,318.2 L1070.3,319.5 L1070.3,319.5 L1070.3,320.7 L1070.3,319.5 L1070.4,318.2 L1070.4,319.5 L1070.4,318.2 L1070.5,318.2 L1070.5,319.5 L1070.5,319.5 L1070.5,318.2 L1070.6,318.2 L1070.6,319.5 L1070.6,319.5 L1070.6,320.7 L1070.7,319.5 L1070.7,318.2 L1070.7,318.2 L1070.8,318.2 L1070.8,319.5 L1070.8,318.2 L1070.8,318.2 L1070.9,320.7 L1070.9,318.2 L1070.9,319.5 L1070.9,319.5 L1071.0,319.5 L1071.0,319.5 L1071.0,314.4 L1071.0,285.4 L1071.1,258.9 L1071.1,240.0 L1071.1,222.3 L1071.2,205.9 L1071.2,192.1 L1071.2,166.8 L1071.2,166.8 L1071.3,164.3 L1071.3,141.6 L1071.3,146.6 L1071.4,136.5 L1071.4,135.3 L1071.4,115.1 L1071.4,126.5 L1071.5,132.8 L1071.5,132.8 L1071.5,125.2 L1071.5,112.6 L1071.6,123.9 L1071.6,100.0 L1071.6,106.3 L1071.6,117.6 L1071.7,111.3 L1071.7,94.9 L1071.7,97.4 L1071.8,108.8 L1071.8,121.4 L1071.8,131.5 L1071.9,136.5 L1071.9,139.1 L1071.9,132.8 L1071.9,149.2 L1072.0,144.1 L1072.0,140.3 L1072.0,110.1 L1072.0,130.2 L1072.1,142.9 L1072.1,141.6 L1072.1,168.1 L1072.1,135.3 L1072.2,168.1 L1072.2,149.2 L1072.2,163.0 L1072.3,144.1 L1072.3,171.9 L1072.3,161.8 L1072.4,226.1 L1072.4,260.2 L1072.4,295.5 L1072.4,325.8 L1072.5,348.5 L1072.5,376.2 L1072.5,386.3 L1072.5,414.1 L1072.6,433.0 L1072.6,457.0 L1072.6,465.8 L1072.7,460.7 L1072.7,475.9 L1072.7,498.6 L1072.7,496.1 L1072.8,492.3 L1072.8,509.9 L1072.8,530.1 L1072.8,506.2 L1072.9,520.0 L1072.9,497.3 L1072.9,507.4 L1072.9,523.8 L1073.0,515.0 L1073.0,518.8 L1073.0,531.4 L1073.1,535.2 L1073.1,503.6 L1073.1,536.4 L1073.2,502.4 L1073.2,526.3 L1073.2,527.6 L1073.2,530.1 L1073.3,530.1 L1073.3,532.6 L1073.3,530.1 L1073.3,537.7 L1073.4,527.6 L1073.4,525.1 L1073.4,541.5 L1073.4,503.6 L1073.5,533.9 L1073.5,544.0 L1073.5,539.0 L1073.6,541.5 L1073.6,537.7 L1073.6,531.4 L1073.7,528.9 L1073.7,526.3 L1073.7,515.0 L1073.7,528.9 L1073.8,517.5 L1073.8,522.6 L1073.8,513.7 L1073.8,526.3 L1073.9,527.6 L1073.9,523.8 L1073.9,511.2 L1073.9,527.6 L1074.0,527.6 L1074.0,511.2 L1074.0,506.2 L1074.1,518.8 L1074.1,506.2 L1074.1,537.7 L1074.1,542.7 L1074.2,526.3 L1074.2,539.0 L1074.2,512.5 L1074.3,491.0 L1074.3,506.2 L1074.3,517.5 L1074.3,496.1 L1074.4,515.0 L1074.4,523.8 L1074.4,540.2 L1074.4,521.3 L1074.5,508.7 L1074.5,502.4 L1074.5,518.8 L1074.6,463.3 L1074.6,425.4 L1074.6,392.6 L1074.6,359.8 L1074.7,330.8 L1074.7,298.0 L1074.7,266.5 L1074.7,251.3 L1074.8,241.3 L1074.8,218.5 L1074.8,197.1 L1074.8,192.1 L1074.9,166.8 L1074.9,150.4 L1075.0,149.2 L1075.0,126.5 L1075.0,140.3 L1075.0,121.4 L1075.1,141.6 L1075.1,129.0 L1075.1,141.6 L1075.1,121.4 L1075.2,100.0 L1075.2,112.6 L1075.2,116.4 L1075.2,101.2 L1075.3,127.7 L1075.3,121.4 L1075.3,123.9 L1075.4,131.5 L1075.4,125.2 L1075.4,122.7 L1075.4,130.2 L1075.5,130.2 L1075.5,123.9 L1075.6,184.5 L1075.6,147.9 L1075.6,144.1 L1075.6,141.6 L1075.7,127.7 L1075.7,117.6 L1075.7,121.4 L1075.7,145.4 L1075.8,107.5 L1075.8,116.4 L1075.8,101.2 L1075.9,120.2 L1075.9,131.5 L1075.9,101.2 L1075.9,115.1 L1076.0,129.0 L1076.0,96.2 L1076.0,106.3 L1076.0,117.6 L1076.1,107.5 L1076.1,117.6 L1076.1,105.0 L1076.1,122.7 L1076.2,115.1 L1076.3,121.4 L1076.3,96.2 L1076.3,96.2 L1076.3,89.9 L1076.4,117.6 L1076.4,117.6 L1076.4,127.7 L1076.4,96.2 L1076.5,111.3 L1076.5,130.2 L1076.5,89.9 L1076.5,112.6 L1076.6,129.0 L1076.6,132.8 L1076.6,110.1 L1076.7,116.4 L1076.7,122.7 L1076.7,94.9 L1076.7,129.0 L1076.8,129.0 L1076.8,105.0 L1076.8,89.9 L1076.9,112.6 L1076.9,76.0 L1076.9,83.6 L1077.0,122.7 L1077.0,86.1 L1077.0,106.3 L1077.0,98.7 L1077.1,125.2 L1077.1,106.3 L1077.1,115.1 L1077.2,107.5 L1077.2,94.9 L1077.2,122.7 L1077.2,111.3 L1077.3,93.7 L1077.3,116.4 L1077.3,115.1 L1077.3,107.5 L1077.4,131.5 L1077.4,108.8 L1077.4,102.5 L1077.4,105.0 L1077.5,130.2 L1077.6,96.2 L1077.6,100.0 L1077.6,97.4 L1077.6,106.3 L1077.7,106.3 L1077.7,129.0 L1077.7,121.4 L1077.7,96.2 L1077.8,100.0 L1077.8,121.4 L1077.8,107.5 L1077.8,107.5 L1077.9,134.0 L1077.9,94.9 L1077.9,97.4 L1077.9,120.2 L1078.0,98.7 L1078.0,96.2 L1078.0,118.9 L1078.1,97.4 L1078.1,115.1 L1078.1,103.8 L1078.1,113.8 L1078.2,140.3 L1078.2,117.6 L1078.3,127.7 L1078.3,139.1 L1078.3,121.4 L1078.3,142.9 L1078.4,116.4 L1078.4,102.5 L1078.4,110.1 L1078.5,136.5 L1078.5,105.0 L1078.5,107.5 L1078.5,134.0 L1078.6,116.4 L1078.6,135.3 L1078.6,106.3 L1078.6,120.2 L1078.7,110.1 L1078.7,101.2 L1078.7,97.4 L1078.7,134.0 L1078.8,122.7 L1078.8,117.6 L1078.9,92.4 L1078.9,91.1 L1078.9,121.4 L1079.0,126.5 L1079.0,118.9 L1079.0,134.0 L1079.0,123.9 L1079.1,121.4 L1079.1,130.2 L1079.1,100.0 L1079.1,118.9 L1079.2,98.7 L1079.2,135.3 L1079.2,122.7 L1079.3,96.2 L1079.3,125.2 L1079.3,126.5 L1079.3,107.5 L1079.4,94.9 L1079.4,127.7 L1079.4,100.0 L1079.4,131.5 L1079.5,127.7 L1079.5,127.7 L1079.6,106.3 L1079.6,102.5 L1079.6,115.1 L1079.6,129.0 L1079.7,113.8 L1079.7,130.2 L1079.7,101.2 L1079.8,105.0 L1079.8,101.2 L1079.8,117.6 L1079.8,102.5 L1079.9,110.1 L1079.9,113.8 L1079.9,111.3 L1079.9,135.3 L1080.0,118.9 L1080.0,120.2 L1080.0,117.6 L1080.0,123.9 L1080.1,107.5 L1080.1,106.3 L1080.1,116.4 L1080.2,139.1 L1080.2,129.0 L1080.3,121.4 L1080.3,144.1 L1080.3,131.5 L1080.3,136.5 L1080.4,139.1 L1080.4,121.4 L1080.4,94.9 L1080.4,111.3 L1080.5,118.9 L1080.5,132.8 L1080.5,111.3 L1080.6,110.1 L1080.6,108.8 L1080.6,108.8 L1080.6,98.7 L1080.7,118.9 L1080.7,101.2 L1080.7,129.0 L1080.7,96.2 L1080.8,98.7 L1080.8,112.6 L1080.9,105.0 L1080.9,132.8 L1080.9,97.4 L1081.0,131.5 L1081.0,113.8 L1081.0,107.5 L1081.0,107.5 L1081.1,113.8 L1081.1,117.6 L1081.1,105.0 L1081.1,134.0 L1081.2,175.7 L1081.2,209.7 L1081.2,236.2 L1081.2,270.3 L1081.3,301.8 L1081.3,318.2 L1081.3,357.3 L1081.4,376.2 L1081.4,386.3 L1081.4,414.1 L1081.4,402.7 L1081.5,395.1 L1081.5,453.2 L1081.6,438.0 L1081.6,458.2 L1081.6,458.2 L1081.6,433.0 L1081.7,439.3 L1081.7,469.6 L1081.7,462.0 L1081.8,465.8 L1081.8,412.8 L1081.8,438.0 L1081.8,438.0 L1081.9,448.1 L1081.9,457.0 L1081.9,459.5 L1081.9,479.7 L1082.0,463.3 L1082.0,462.0 L1082.0,445.6 L1082.0,444.3 L1082.1,446.9 L1082.1,441.8 L1082.1,430.5 L1082.2,455.7 L1082.2,441.8 L1082.3,426.7 L1082.3,420.4 L1082.3,445.6 L1082.3,412.8 L1082.4,407.8 L1082.4,398.9 L1082.4,405.2 L1082.4,404.0 L1082.5,397.7 L1082.5,404.0 L1082.5,411.5 L1082.6,429.2 L1082.6,433.0 L1082.6,438.0 L1082.6,427.9 L1082.7,425.4 L1082.7,430.5 L1082.7,421.6 L1082.7,425.4 L1082.8,419.1 L1082.8,439.3 L1082.9,451.9 L1082.9,451.9 L1082.9,448.1 L1083.0,446.9 L1083.0,415.3 L1083.0,426.7 L1083.0,449.4 L1083.1,458.2 L1083.1,475.9 L1083.1,467.1 L1083.1,491.0 L1083.2,483.5 L1083.3,492.3 L1083.3,501.1 L1083.3,472.1 L1083.4,460.7 L1083.4,434.3 L1083.4,445.6 L1083.4,421.6 L1083.6,393.9 L1083.6,386.3 L1083.6,380.0 L1083.7,373.7 L1083.7,373.7 L1083.7,362.4 L1083.7,361.1 L1083.8,359.8 L1083.8,354.8 L1083.8,347.2 L1083.8,347.2 L1083.9,346.0 L1083.9,340.9 L1083.9,338.4 L1083.9,340.9 L1084.0,339.6 L1084.0,334.6" fill="none" stroke="#ff7f0e" stroke-width="1.1" opacity="0.85"/><text x="616" y="572" font-size="11" fill="#888">time 0..772 s — altitude (blue) &amp; roll (orange)</text></svg>