<svg xmlns="http://www.w3.org/2000/svg" width="1140" height="600" font-family="sans-serif" font-size="13"><rect width="1140" height="600" fill="white"/><text x="20" y="26" font-size="15" fill="#333">Coludo flight</text><rect x="20" y="40" width="540" height="540" fill="#fbfbfb" stroke="#ddd"/><rect x="50" y="297" width="425" height="91" fill="#cde" stroke="#369" opacity="0.7"/><text x="50" y="292" fill="#369" font-size="12">landing zone</text><circle cx="319" cy="440" r="5" fill="black"/><text x="327" y="444" font-size="12">pad</text><path d="M319.9,440.2 L319.9,440.2 L319.9,440.2 L319.9,440.2 L319.9,440.2 L319.9,440.2 L319.9,440.2 L319.9,440.2 L319.9,440.2 L319.9,440.2 L319.9,440.2 L319.9,440.2 L319.9,440.2 L319.9,440.2 L319.9,440.2 L319.9,440.2 L319.9,440.2 L319.9,440.2 L319.9,440.2 L319.9,440.2 L319.9,440.2 L319.9,440.2 L319.9,440.2 L319.9,440.2 L319.9,440.2 L319.9,440.2 L319.9,440.2 L319.9,440.2 L319.9,440.2 L319.9,440.2 L319.9,440.2 L319.9,440.2 L319.9,440.2 L319.9,440.2 L319.9,440.2 L319.9,440.2 L319.9,440.2 L319.9,440.2 L319.9,440.2 L319.9,440.2 L319.9,440.2 L319.9,440.2 L319.9,440.2 L319.9,440.2 L319.9,440.2 L319.9,440.2 L319.9,440.2 L319.9,440.2 L319.9,440.2 L319.9,440.2 L319.9,440.2 L319.9,440.2 L319.9,439.7 L321.3,437.7 L322.2,436.1 L322.2,434.1 L324.5,432.6 L326.8,430.1 L328.6,428.5 L328.6,427.5 L329.0,426.0 L331.3,424.5 L333.6,423.0 L335.9,421.5 L335.9,420.4 L340.5,418.9 L340.5,417.9 L343.2,416.9 L345.0,416.4 L347.3,414.9 L349.6,413.9 L350.5,412.9 L351.9,412.4 L356.5,411.3 L357.8,410.3 L358.7,409.3 L361.0,408.8 L365.1,407.8 L365.6,406.8 L367.9,406.8 L370.2,406.3 L374.3,405.3 L374.7,404.3 L379.3,403.7 L379.7,403.2 L381.6,402.2 L383.9,401.7 L387.1,401.2 L388.4,400.7 L390.7,399.7 L394.4,399.2 L395.3,398.7 L397.6,398.2 L399.8,397.7 L403.5,396.7 L404.4,396.2 L406.7,395.7 L410.8,395.1 L411.3,394.1 L415.8,393.6 L416.3,392.6 L418.1,392.1 L422.7,391.1 L423.6,390.6 L425.0,389.6 L427.2,388.6 L430.9,388.1 L431.8,386.5 L434.1,385.5 L436.4,385.0 L438.7,384.0 L439.1,383.0 L440.9,381.0 L445.5,380.0 L445.5,378.4 L447.3,376.9 L447.8,375.4 L450.1,373.4 L452.4,371.9 L452.4,370.3 L452.8,368.8 L454.6,366.8 L454.6,364.8 L456.9,362.8 L456.9,360.7 L456.9,358.7 L459.2,356.2 L459.2,354.7 L459.2,352.6 L459.2,350.6 L459.2,348.1 L459.2,346.1 L459.2,344.0 L459.2,341.5 L459.2,339.0 L459.2,336.9 L459.2,333.9 L456.9,332.4 L456.9,330.4 L456.9,328.3 L454.6,325.8 L454.6,323.3 L452.8,320.2 L452.4,317.7 L450.1,315.2 L447.8,312.7 L447.3,310.6 L445.5,308.1 L443.2,305.6 L440.9,303.0 L439.1,301.5 L438.7,300.0 L436.4,297.5 L434.1,295.5 L430.9,293.4 L429.5,291.4 L427.2,289.9 L423.6,287.9 L422.7,285.8 L420.4,283.8 L416.3,281.3 L415.8,279.3 L413.5,277.2 L410.8,274.7 L410.8,272.7 L406.7,270.7 L404.4,268.6 L403.5,266.6 L403.5,264.1 L399.8,260.5 L397.6,258.5 L395.3,255.5 L395.3,252.9 L394.4,250.9 L394.4,249.4 L393.0,246.9 L393.0,244.8 L390.7,242.3 L390.7,239.3 L388.4,236.7 L388.4,234.7 L388.4,232.2 L388.4,229.7 L388.4,228.1 L388.4,226.1 L388.4,223.1 L388.4,221.1 L390.7,218.0 L390.7,215.5 L390.7,213.5 L390.7,211.4 L393.0,209.9 L393.0,208.4 L394.4,206.4 L394.4,203.9 L395.3,202.3 L397.6,199.8 L399.8,198.3 L402.1,196.3 L402.1,194.7 L403.5,193.2 L404.4,191.7 L406.7,190.7 L409.0,189.2 L410.8,188.2 L413.5,186.6 L415.8,185.6 L416.3,184.6 L420.4,183.6 L422.7,182.6 L423.6,182.1 L425.0,181.6 L427.2,181.1 L430.9,180.6 L434.1,180.1 L438.7,179.6 L439.1,179.6 L443.2,180.1 L445.5,180.1 L447.8,180.6 L452.4,181.1 L452.8,181.6 L454.6,182.6 L460.1,184.1 L463.8,185.6 L468.3,187.2 L470.2,188.2 L472.9,189.7 L475.7,191.2 L477.5,193.2 L482.0,195.3 L484.3,198.3 L488.9,200.3 L489.4,202.8 L493.5,205.4 L495.7,207.9 L498.0,210.9 L504.9,218.0 L505.8,220.0 L509.4,223.6 L512.2,227.6 L514.0,229.7 L516.3,233.2 L519.5,236.7 L520.9,239.8 L523.1,243.3 L525.9,247.4 L530.0,250.4" fill="none" stroke="#1f77b4" stroke-width="1.7" opacity="0.85"/><circle cx="530" cy="250" r="4.5" fill="#1f77b4"/><text x="28" y="572" font-size="11" fill="#888">ground track — m from pad (N up)</text><rect x="580" y="40" width="540" height="540" fill="#fbfbfb" stroke="#ddd"/><text x="586" y="54" fill="#1f77b4" font-size="11">alt 155</text><text x="586" y="558" fill="#1f77b4" font-size="11">-52</text><path d="M680.5,422.8 L681.2,422.9 L681.9,422.7 L682.9,421.5 L683.6,420.2 L684.3,420.0 L685.0,418.4 L685.7,417.6 L686.4,415.7 L687.0,414.4 L687.8,413.2 L688.5,411.7 L689.1,409.1 L689.8,408.4 L690.5,405.1 L691.2,401.7 L691.9,397.9 L692.6,397.8 L693.3,396.4 L694.0,389.8 L694.7,389.7 L695.3,387.3 L696.0,381.8 L696.7,379.1 L697.4,370.8 L698.1,367.1 L698.8,367.3 L699.5,354.9 L700.1,364.9 L700.8,345.6 L701.5,350.7 L702.2,341.5 L702.9,333.2 L703.6,342.0 L704.3,323.9 L705.0,325.6 L705.6,310.5 L706.4,300.7 L707.0,301.2 L707.7,307.4 L708.4,285.5 L709.1,279.5 L709.8,284.7 L710.5,272.0 L711.1,271.3 L711.8,257.7 L712.5,270.9 L713.2,266.9 L713.9,263.0 L714.6,256.7 L715.3,234.8 L716.0,245.0 L716.6,241.7 L717.3,241.0 L718.0,230.5 L718.7,239.3 L719.4,234.3 L720.1,240.2 L720.8,227.0 L721.5,195.7 L722.3,200.0 L722.9,209.2 L723.5,227.4 L724.2,184.0 L724.9,197.0 L725.6,209.4 L726.3,211.7 L727.0,174.1 L727.7,195.3 L728.3,196.3 L729.0,158.1 L729.7,172.9 L730.4,159.8 L731.1,186.1 L731.8,157.3 L732.5,164.1 L733.2,168.6 L733.8,156.9 L734.5,134.6 L735.2,180.5 L735.9,153.5 L736.5,136.3 L737.1,140.4 L737.8,156.8 L738.5,116.8 L739.2,123.6 L739.9,151.9 L740.6,155.1 L741.3,144.8 L742.0,154.7 L742.6,127.5 L743.3,112.7 L744.0,137.2 L744.7,139.0 L745.4,131.3 L746.1,96.6 L746.8,145.4 L747.5,112.4 L748.1,144.2 L748.8,138.7 L749.5,103.7 L750.3,128.8 L751.0,131.9 L751.7,121.2 L752.4,143.6 L753.1,127.2 L753.7,114.9 L754.4,113.5 L755.1,82.8 L755.8,129.5 L756.5,92.7 L757.2,112.3 L757.9,76.0 L758.6,86.0 L759.2,103.1 L759.9,134.5 L760.6,125.2 L761.3,103.6 L762.0,121.2 L762.7,104.6 L763.4,100.7 L764.0,125.3 L764.7,132.5 L765.3,115.7 L766.0,111.3 L766.7,134.5 L767.4,112.6 L768.1,117.8 L768.8,88.3 L769.5,80.1 L770.2,99.2 L770.8,85.2 L771.5,84.7 L772.2,109.2 L772.9,89.0 L773.6,97.8 L774.3,93.0 L775.0,127.1 L775.7,87.2 L776.3,130.9 L777.0,100.9 L777.7,106.8 L778.5,136.1 L779.1,81.9 L779.8,119.7 L780.5,98.8 L781.2,78.9 L781.9,135.6 L782.5,89.5 L783.3,80.0 L783.9,118.3 L784.6,132.4 L785.3,138.0 L786.0,111.6 L786.7,80.9 L787.3,84.8 L788.0,123.7 L788.7,132.7 L789.4,116.6 L790.1,96.1 L790.8,106.1 L791.5,128.3 L792.4,97.0 L793.1,136.4 L793.8,144.9 L794.5,93.7 L795.2,122.4 L795.9,127.8 L796.6,96.3 L797.2,96.8 L797.9,111.6 L798.6,106.2 L799.3,123.5 L800.0,120.0 L800.7,103.3 L801.4,90.1 L802.2,137.0 L802.8,100.3 L803.4,129.2 L804.1,136.2 L804.8,128.6 L805.5,142.3 L806.6,145.5 L807.3,117.5 L808.0,115.2 L808.7,149.2 L809.3,134.0 L810.0,142.8 L810.7,147.8 L811.4,101.0 L812.1,141.2 L812.8,144.0 L813.5,150.4 L814.2,130.0 L814.8,129.6 L815.5,137.7 L816.2,116.5 L816.9,159.3 L817.6,157.5 L818.3,133.7 L819.0,104.4 L819.7,139.6 L821.0,110.0 L821.7,130.6 L822.4,117.2 L823.1,121.1 L823.8,132.5 L824.5,128.7 L825.2,160.7 L825.8,112.3 L826.5,159.9 L827.3,132.2 L827.9,120.1 L828.7,119.4 L829.3,160.6 L830.0,135.3 L830.7,156.1 L831.4,162.5 L832.0,120.2 L832.7,163.4 L833.4,154.7 L834.1,155.2 L835.5,120.0 L836.2,165.9 L836.9,164.5 L837.5,152.3 L838.2,141.2 L838.9,122.5 L839.6,123.3 L840.3,126.0 L841.0,165.9 L841.7,137.3 L842.4,176.2 L843.1,151.2 L843.8,133.8 L844.4,168.8 L845.1,152.7 L845.8,137.3 L846.5,179.6 L847.2,132.3 L847.9,147.6 L848.5,179.6 L849.9,140.7 L850.6,185.8 L851.3,136.5 L852.0,137.5 L852.7,135.3 L853.4,142.1 L854.0,184.4 L854.7,163.1 L855.4,173.6 L856.1,191.5 L856.8,190.8 L857.5,150.8 L858.2,169.3 L858.9,189.1 L859.5,156.6 L860.2,185.9 L860.9,185.1 L861.6,176.2 L862.3,149.3 L863.0,166.9 L864.4,162.6 L865.0,182.0 L865.7,186.4 L866.4,163.5 L867.1,178.6 L867.8,156.1 L868.5,181.9 L869.2,192.2 L869.9,201.5 L870.5,175.2 L871.2,191.2 L871.9,195.6 L872.6,187.8 L873.3,178.5 L874.0,180.1 L874.7,176.1 L875.4,177.8 L876.1,169.0 L876.7,168.6 L877.4,194.8 L878.8,170.6 L879.5,191.3 L880.2,201.7 L880.9,200.0 L881.6,216.7 L882.2,190.0 L882.9,183.9 L883.6,213.4 L884.3,190.6 L885.0,192.0 L885.7,200.9 L886.4,190.7 L887.1,200.8 L887.7,191.2 L888.4,207.5 L889.1,225.5 L889.8,185.1 L890.5,202.6 L891.2,211.0 L891.9,219.6 L893.3,214.2 L893.9,202.2 L894.6,198.8 L895.3,215.2 L896.0,199.8 L896.7,199.3 L897.4,223.6 L898.1,230.1 L898.7,226.4 L899.4,207.4 L900.1,238.7 L900.8,209.6 L901.5,212.8 L902.2,238.9 L902.9,214.7 L903.6,214.3 L904.2,213.5 L904.9,244.1 L905.6,244.9 L906.3,219.7 L907.0,214.0 L907.8,241.1 L908.5,221.3 L909.2,234.2 L909.9,234.6 L910.6,216.3 L911.3,217.5 L911.9,253.3 L912.6,235.0 L913.3,227.3 L914.0,245.4 L914.7,244.3 L915.4,256.4 L916.1,253.3 L916.8,252.4 L917.4,235.3 L918.1,235.6 L918.8,254.4 L919.5,258.9 L920.2,263.4 L920.9,256.2 L922.3,252.0 L922.9,259.0 L923.6,260.7 L924.3,264.2 L925.0,266.2 L925.7,271.5 L926.4,263.8 L927.1,251.2 L927.8,276.1 L928.4,271.8 L929.0,262.2 L929.7,251.2 L930.5,251.9 L931.2,256.1 L931.9,264.9 L932.6,271.7 L933.3,284.6 L934.0,268.0 L934.6,283.8 L935.3,276.0 L937.3,261.2 L937.9,267.6 L938.6,286.8 L939.3,278.7 L940.0,285.6 L940.7,275.0 L941.4,277.6 L942.1,287.9 L942.8,270.5 L943.5,291.6 L944.1,299.4 L944.8,273.0 L945.5,287.2 L946.2,281.1 L946.9,285.5 L947.6,298.4 L948.3,279.2 L948.9,287.9 L949.6,291.7 L950.3,308.1 L951.0,302.6 L952.4,295.3 L953.1,312.1 L953.8,307.0 L954.4,303.5 L955.1,291.9 L955.8,297.7 L956.5,298.5 L957.2,316.0 L957.9,311.1 L958.6,306.7 L959.3,304.8 L959.9,306.0 L960.6,310.2 L961.3,311.2 L962.0,302.7 L962.7,316.9 L963.4,316.3 L964.1,314.2 L964.8,325.0 L965.4,309.5 L967.4,324.2 L968.1,319.4 L968.7,330.0 L969.4,330.9 L970.1,332.0 L970.8,331.0 L971.5,338.6 L972.2,331.3 L972.9,337.3 L973.6,328.7 L974.3,331.0 L974.9,343.3 L975.6,340.2 L976.3,334.2 L977.0,336.8 L977.7,337.3 L978.4,342.6 L979.1,340.7 L979.8,337.8 L980.4,336.4 L981.1,351.9 L982.6,347.4 L983.2,348.9 L983.9,352.0 L984.6,349.0 L985.3,357.7 L985.9,348.0 L986.6,350.8 L987.3,357.1 L988.0,354.1 L988.7,352.3 L989.4,354.4 L990.1,365.2 L990.8,369.4 L991.4,365.8 L992.1,364.6 L992.8,372.7 L993.5,369.6 L994.2,363.1 L994.9,372.5 L995.6,371.0 L997.6,378.6 L998.2,374.2 L998.9,374.7 L999.6,373.9 L1000.2,375.3 L1000.9,384.3 L1001.6,380.4 L1002.3,380.3 L1003.0,382.4 L1003.7,385.7 L1004.4,391.1 L1005.1,385.1 L1005.7,388.7 L1006.4,392.4 L1007.1,389.8 L1007.8,390.6 L1008.5,396.4 L1009.2,399.4 L1009.9,397.8 L1010.6,399.7 L1011.2,401.5 L1012.7,403.6 L1013.3,405.9 L1014.0,405.3 L1014.7,405.3 L1015.4,408.8 L1016.1,407.9 L1016.7,409.1 L1017.4,410.1 L1018.1,411.6 L1018.8,413.9 L1019.5,416.5 L1020.2,417.0 L1021.0,417.0 L1021.7,418.6 L1022.3,419.8 L1023.0,422.1 L1023.7,422.9 L1024.4,424.3 L1025.0,426.1 L1025.7,427.5 L1026.4,428.1 L1027.8,430.4 L1028.4,432.0 L1029.1,434.4 L1029.8,436.0 L1030.5,437.0 L1031.2,438.2 L1031.9,437.9 L1032.6,440.9 L1033.2,440.5 L1033.9,442.2 L1034.6,442.6 L1035.3,446.7 L1036.0,446.7 L1036.7,447.8 L1037.4,448.6 L1038.1,451.9 L1038.8,451.2 L1039.4,452.6 L1040.1,456.3 L1040.8,456.0 L1041.5,459.2 L1043.0,457.7 L1043.6,457.8 L1044.3,461.0 L1044.9,466.0 L1045.6,464.4 L1046.3,465.8 L1047.0,471.0 L1047.7,471.6 L1048.4,474.2 L1049.1,476.4 L1049.8,472.6 L1050.4,477.0 L1051.2,478.2 L1051.8,481.1 L1052.5,482.8 L1053.2,475.1 L1053.9,476.8 L1054.6,477.9 L1055.3,488.8 L1055.9,481.5 L1058.0,482.5 L1058.7,494.8 L1059.4,485.6 L1060.1,495.0 L1060.8,496.9 L1061.4,494.6 L1062.1,497.6 L1062.8,500.0 L1063.5,505.7 L1064.2,506.0 L1064.9,504.3 L1065.6,498.0 L1067.8,506.3 L1068.6,509.9 L1069.3,506.6 L1070.0,507.4 L1070.7,512.6 L1071.3,509.8 L1072.9,524.6 L1073.6,510.7 L1074.3,520.6 L1075.1,526.3 L1075.7,516.3 L1076.4,515.6 L1077.1,522.0 L1077.8,525.3 L1078.5,530.7 L1079.2,537.0 L1079.9,537.3 L1080.6,534.7 L1081.2,526.5 L1081.9,533.4 L1082.6,531.1 L1083.3,542.6 L1084.0,544.0" fill="none" stroke="#1f77b4" stroke-width="1.4" opacity="0.85"/><text x="1040" y="54" fill="#ff7f0e" font-size="11">roll 25</text><text x="1090" y="558" fill="#ff7f0e" font-size="11">-18</text><path d="M680.5,347.5 L681.2,348.5 L681.8,348.5 L682.9,347.5 L683.6,348.5 L684.3,346.4 L685.0,346.4 L685.7,346.4 L686.4,347.5 L687.0,346.4 L687.8,344.2 L688.4,346.4 L689.1,344.2 L689.8,344.2 L690.5,343.1 L691.2,343.1 L691.9,340.9 L692.6,340.9 L693.3,337.7 L694.0,337.7 L694.7,335.5 L695.3,333.3 L696.0,334.4 L696.7,331.2 L697.4,330.1 L698.1,332.3 L698.8,326.8 L699.5,327.9 L700.1,325.7 L700.8,322.5 L701.5,321.4 L702.2,320.3 L702.9,322.5 L703.6,316.0 L704.3,318.1 L705.0,311.6 L705.6,313.8 L706.4,310.5 L707.0,311.6 L707.7,307.3 L708.4,304.0 L709.1,300.8 L709.8,300.8 L710.5,296.4 L711.1,296.4 L711.8,295.3 L712.5,297.5 L713.2,291.0 L713.9,299.7 L714.6,289.9 L715.3,289.9 L716.0,284.5 L716.6,292.1 L717.3,285.6 L718.0,281.2 L718.7,279.1 L719.4,286.7 L720.1,289.9 L720.8,285.6 L721.5,289.9 L722.2,286.7 L722.9,282.3 L723.5,283.4 L724.2,273.6 L724.9,282.3 L725.6,281.2 L726.3,272.5 L727.0,278.0 L727.6,282.3 L728.3,274.7 L729.0,276.9 L729.7,270.4 L730.4,276.9 L731.1,275.8 L731.8,269.3 L732.5,275.8 L733.1,281.2 L733.8,274.7 L734.5,278.0 L735.2,268.2 L735.9,273.6 L736.5,271.5 L737.1,276.9 L737.8,268.2 L738.5,267.1 L739.2,269.3 L739.9,266.0 L740.6,266.0 L741.3,268.2 L741.9,264.9 L742.6,270.4 L743.3,278.0 L744.0,269.3 L744.7,279.1 L745.4,268.2 L746.1,264.9 L746.8,278.0 L747.4,276.9 L748.1,262.8 L748.8,274.7 L749.5,272.5 L750.3,273.6 L751.0,261.7 L751.7,261.7 L752.4,262.8 L753.1,273.6 L753.7,258.4 L754.4,272.5 L755.1,259.5 L755.8,264.9 L756.5,262.8 L757.2,271.5 L757.9,257.3 L758.6,260.6 L759.2,253.0 L759.9,264.9 L760.6,259.5 L761.3,270.4 L762.0,262.8 L762.7,268.2 L763.4,337.7 L764.0,318.1 L764.7,296.4 L765.3,282.3 L766.0,256.3 L766.7,247.6 L767.4,230.2 L768.1,224.8 L768.8,213.9 L769.5,186.8 L770.1,198.7 L770.8,200.9 L771.5,195.4 L772.2,183.5 L772.9,170.5 L773.6,175.9 L774.3,183.5 L775.0,167.2 L775.6,183.5 L776.3,182.4 L777.0,171.6 L777.7,166.1 L778.5,202.0 L779.1,204.1 L779.8,223.7 L780.5,225.8 L781.2,203.0 L781.9,219.3 L782.5,209.6 L783.3,221.5 L783.9,234.5 L784.6,236.7 L785.3,236.7 L786.0,238.9 L786.6,235.6 L787.3,240.0 L788.0,233.4 L788.7,244.3 L789.4,243.2 L790.1,241.0 L790.8,251.9 L791.5,249.7 L792.4,243.2 L793.1,253.0 L793.8,263.9 L794.5,253.0 L795.2,269.3 L795.9,274.7 L796.6,282.3 L797.2,292.1 L797.9,275.8 L798.6,278.0 L799.3,280.1 L800.0,282.3 L800.7,287.7 L801.4,288.8 L802.2,298.6 L802.7,306.2 L803.4,298.6 L804.1,304.0 L804.8,305.1 L805.5,316.0 L806.5,297.5 L807.3,306.2 L808.0,301.9 L808.7,308.4 L809.3,304.0 L810.0,301.9 L810.7,300.8 L811.4,305.1 L812.1,323.6 L812.8,317.1 L813.5,321.4 L814.2,319.2 L814.8,320.3 L815.5,324.7 L816.2,329.0 L816.9,331.2 L817.6,331.2 L818.3,340.9 L819.0,333.3 L819.7,340.9 L821.0,345.3 L821.7,344.2 L822.4,343.1 L823.1,348.5 L823.8,355.1 L824.5,359.4 L825.2,364.8 L825.8,364.8 L826.5,360.5 L827.3,357.2 L827.9,360.5 L828.7,357.2 L829.3,354.0 L830.0,360.5 L830.7,362.7 L831.3,367.0 L832.0,368.1 L832.7,373.5 L833.4,367.0 L834.1,376.8 L835.5,380.0 L836.2,384.4 L836.8,381.1 L837.5,382.2 L838.2,382.2 L838.9,384.4 L839.6,379.0 L840.3,383.3 L841.0,384.4 L841.7,389.8 L842.4,388.7 L843.0,392.0 L843.8,397.4 L844.4,393.1 L845.1,407.2 L845.8,389.8 L846.5,397.4 L847.2,406.1 L847.8,409.4 L848.5,415.9 L849.9,441.9 L850.6,465.8 L851.3,484.3 L852.0,497.3 L852.7,484.3 L853.4,504.9 L854.0,521.2 L854.7,517.9 L855.4,527.7 L856.1,498.4 L856.8,521.2 L857.5,515.8 L858.2,522.3 L858.9,525.5 L859.5,527.7 L860.2,523.4 L860.9,515.8 L861.6,533.1 L862.3,532.1 L863.0,516.9 L864.4,535.3 L865.0,533.1 L865.7,532.1 L866.4,521.2 L867.1,537.5 L867.8,522.3 L868.5,517.9 L869.2,522.3 L869.9,520.1 L870.5,524.5 L871.2,527.7 L871.9,538.6 L872.6,519.0 L873.3,528.8 L874.0,531.0 L874.7,514.7 L875.4,528.8 L876.0,511.4 L876.7,516.9 L877.4,541.8 L878.8,538.6 L879.5,506.0 L880.2,539.7 L880.9,524.5 L881.5,504.9 L882.2,508.2 L882.9,538.6 L883.6,540.7 L884.3,514.7 L885.0,521.2 L885.7,540.7 L886.4,524.5 L887.0,524.5 L887.7,525.5 L888.4,538.6 L889.1,520.1 L889.8,536.4 L890.5,526.6 L891.2,532.1 L891.9,534.2 L893.3,523.4 L893.9,509.3 L894.6,531.0 L895.3,524.5 L896.0,542.9 L896.7,523.4 L897.4,536.4 L898.0,525.5 L898.7,535.3 L899.4,541.8 L900.1,526.6 L900.8,513.6 L901.5,542.9 L902.2,515.8 L902.9,528.8 L903.6,535.3 L904.2,527.7 L904.9,510.3 L905.6,511.4 L906.3,509.3 L907.0,537.5 L907.8,522.3 L908.5,524.5 L909.2,536.4 L909.9,504.9 L910.6,524.5 L911.3,536.4 L911.9,523.4 L912.6,539.7 L913.3,536.4 L914.0,532.1 L914.7,520.1 L915.4,519.0 L916.1,503.8 L916.8,511.4 L917.4,538.6 L918.1,522.3 L918.8,516.9 L919.5,544.0 L920.2,531.0 L920.9,534.2 L922.3,540.7 L922.9,539.7 L923.6,508.2 L924.3,514.7 L925.0,526.6 L925.7,477.8 L926.4,450.6 L927.1,445.2 L927.8,411.5 L928.4,421.3 L929.0,389.8 L929.7,358.3 L930.5,358.3 L931.2,324.7 L931.9,299.7 L932.6,324.7 L933.3,356.1 L933.9,331.2 L934.6,301.9 L935.3,306.2 L937.3,251.9 L937.9,235.6 L938.6,206.3 L939.3,197.6 L940.0,223.7 L940.7,196.5 L941.4,194.4 L942.1,198.7 L942.7,187.8 L943.4,224.8 L944.1,206.3 L944.8,209.6 L945.5,223.7 L946.2,209.6 L946.9,209.6 L947.6,197.6 L948.2,209.6 L948.9,196.5 L949.6,184.6 L950.3,165.0 L951.0,184.6 L952.4,181.3 L953.1,159.6 L953.7,193.3 L954.4,182.4 L955.1,162.9 L955.8,171.6 L956.5,168.3 L957.2,202.0 L957.9,181.3 L958.6,181.3 L959.3,168.3 L959.9,164.0 L960.6,174.8 L961.3,180.2 L962.0,159.6 L962.7,165.0 L963.4,188.9 L964.1,167.2 L964.8,159.6 L965.4,181.3 L967.4,170.5 L968.1,153.1 L968.7,174.8 L969.4,182.4 L970.1,184.6 L970.8,181.3 L971.5,185.7 L972.2,174.8 L972.9,157.4 L973.6,156.4 L974.2,165.0 L974.9,161.8 L975.6,170.5 L976.3,161.8 L977.0,159.6 L977.7,187.8 L978.4,166.1 L979.1,184.6 L979.7,182.4 L980.4,182.4 L981.1,157.4 L982.6,210.6 L983.2,209.6 L983.9,190.0 L984.6,190.0 L985.2,181.3 L985.9,171.6 L986.6,193.3 L987.3,165.0 L988.0,175.9 L988.7,172.6 L989.4,170.5 L990.1,174.8 L990.7,153.1 L991.4,162.9 L992.1,164.0 L992.8,167.2 L993.5,182.4 L994.2,159.6 L994.9,155.3 L995.6,173.7 L997.6,164.0 L998.2,183.5 L998.9,178.1 L999.5,172.6 L1000.2,181.3 L1000.9,180.2 L1001.6,180.2 L1002.3,153.1 L1003.0,149.8 L1003.7,164.0 L1004.4,166.1 L1005.1,180.2 L1005.7,185.7 L1006.4,153.1 L1007.1,155.3 L1007.8,187.8 L1008.5,174.8 L1009.2,186.8 L1009.9,186.8 L1010.6,161.8 L1011.2,167.2 L1012.7,202.0 L1013.3,179.2 L1014.0,193.3 L1014.7,179.2 L1015.4,185.7 L1016.1,187.8 L1016.7,169.4 L1017.4,175.9 L1018.1,178.1 L1018.8,172.6 L1019.5,181.3 L1020.2,137.9 L1021.0,154.2 L1021.7,149.8 L1022.3,146.6 L1023.0,114.0 L1023.7,136.8 L1024.4,128.1 L1025.0,119.4 L1025.7,112.9 L1026.4,128.1 L1027.8,133.5 L1028.4,118.3 L1029.1,131.4 L1029.8,120.5 L1030.5,116.2 L1031.2,112.9 L1031.9,83.6 L1032.6,119.4 L1033.2,86.9 L1033.9,92.3 L1034.6,115.1 L1035.3,95.5 L1036.0,103.1 L1036.7,119.4 L1037.4,90.1 L1038.1,81.4 L1038.7,106.4 L1039.4,105.3 L1040.1,122.7 L1040.8,125.9 L1041.5,122.7 L1043.0,78.2 L1043.6,97.7 L1044.2,80.3 L1044.9,103.1 L1045.6,105.3 L1046.3,124.9 L1047.0,77.1 L1047.7,85.8 L1048.4,127.0 L1049.1,106.4 L1049.7,80.3 L1050.4,106.4 L1051.2,111.8 L1051.8,108.6 L1052.5,104.2 L1053.2,106.4 L1053.9,83.6 L1054.6,93.4 L1055.2,110.7 L1055.9,76.0 L1058.0,121.6 L1058.7,99.9 L1059.4,111.8 L1060.1,97.7 L1060.8,133.5 L1061.4,114.0 L1062.1,108.6 L1062.8,136.8 L1063.5,110.7 L1064.2,155.3 L1064.9,135.7 L1065.6,183.5 L1067.8,229.1 L1068.6,223.7 L1069.3,240.0 L1070.0,257.3 L1070.7,269.3 L1071.3,278.0 L1072.9,284.5 L1073.6,293.2 L1074.3,295.3 L1075.1,298.6 L1075.7,302.9 L1076.4,310.5 L1077.1,319.2 L1077.8,313.8 L1078.5,322.5 L1079.2,322.5 L1079.9,325.7 L1080.6,329.0 L1081.2,329.0 L1081.9,333.3 L1082.6,335.5 L1083.3,333.3 L1084.0,335.5" fill="none" stroke="#ff7f0e" stroke-width="1.1" opacity="0.85"/><text x="616" y="572" font-size="11" fill="#888">time 0..34 s — altitude (blue) &amp; roll (orange)</text></svg>