<svg xmlns="http://www.w3.org/2000/svg" width="1140" height="600" font-family="sans-serif" font-size="13"><rect width="1140" height="600" fill="white"/><text x="20" y="26" font-size="15" fill="#333">Coludo flight</text><rect x="20" y="40" width="540" height="540" fill="#fbfbfb" stroke="#ddd"/><rect x="50" y="307" width="286" height="62" fill="#cde" stroke="#369" opacity="0.7"/><text x="50" y="302" fill="#369" font-size="12">landing zone</text><circle cx="231" cy="403" r="5" fill="black"/><text x="239" y="407" font-size="12">pad</text><path d="M231.7,402.8 L231.7,402.8 L231.7,402.8 L231.7,402.8 L231.7,402.8 L231.7,402.8 L231.7,402.8 L231.7,402.8 L231.7,402.8 L231.7,402.8 L231.7,402.8 L231.7,402.8 L231.7,402.8 L231.7,402.8 L231.7,402.8 L231.7,402.8 L231.7,402.8 L231.7,402.8 L231.7,402.8 L231.7,402.8 L231.7,402.8 L231.7,402.8 L231.7,402.8 L231.7,402.8 L231.7,402.8 L231.7,402.8 L231.7,402.8 L231.7,402.8 L231.7,402.8 L231.7,402.8 L231.7,402.8 L231.7,402.8 L231.7,402.8 L231.7,402.8 L231.7,402.8 L231.7,402.8 L231.7,402.8 L231.7,402.8 L231.7,402.8 L231.7,402.8 L231.7,402.8 L231.7,402.8 L231.7,402.8 L231.7,402.8 L231.7,402.8 L231.7,402.8 L231.7,402.8 L231.7,402.8 L231.7,402.8 L231.7,402.8 L231.7,402.8 L231.7,402.8 L231.7,402.8 L231.7,402.8 L231.7,402.8 L231.7,402.1 L232.7,400.0 L233.3,398.0 L236.3,395.9 L237.6,394.2 L237.9,392.5 L239.4,390.2 L241.0,388.5 L242.5,386.7 L244.0,384.7 L245.6,383.0 L247.1,381.3 L248.6,379.6 L250.2,378.2 L252.3,376.2 L253.3,374.8 L256.3,373.1 L257.3,371.8 L259.4,370.1 L260.9,368.7 L262.5,367.3 L264.0,366.0 L267.1,364.6 L268.6,363.2 L270.2,361.9 L272.0,360.2 L273.2,358.5 L276.3,357.1 L276.9,355.1 L279.4,353.0 L280.9,351.7 L281.9,349.9 L284.0,347.9 L285.5,345.9 L287.1,344.5 L288.0,342.1 L288.6,340.4 L290.2,338.0 L291.7,336.3 L292.9,333.9 L293.2,331.6 L294.8,329.8 L296.3,327.5 L296.6,325.4 L296.6,323.0 L297.8,321.0 L299.4,318.6 L299.4,316.6 L299.4,314.5 L300.9,311.8 L300.9,310.1 L301.5,307.4 L301.5,305.0 L301.5,302.6 L301.5,300.2 L302.5,297.8 L302.5,295.4 L302.5,293.4 L302.5,291.0 L304.0,288.6 L304.0,286.6 L305.5,283.8 L305.5,281.8 L306.5,279.4 L307.1,277.0 L307.1,275.0 L308.6,272.6 L310.1,269.5 L311.7,267.8 L312.0,265.5 L313.2,263.4 L314.8,261.0 L316.3,259.3 L317.5,256.9 L317.8,255.2 L319.4,253.5 L320.9,251.5 L321.2,249.8 L324.0,247.7 L325.5,246.4 L327.1,244.3 L328.6,242.6 L330.1,240.9 L332.9,239.9 L333.2,237.9 L336.3,236.5 L337.8,234.8 L339.4,233.8 L342.7,232.4 L342.4,231.4 L345.5,229.7 L347.0,228.7 L350.1,227.6 L351.7,226.6 L353.2,225.6 L356.3,224.9 L357.8,223.9 L360.9,222.9 L362.4,222.2 L365.5,221.5 L366.1,220.8 L370.1,220.1 L370.4,219.5 L373.2,218.8 L375.3,218.8 L377.8,218.4 L380.9,218.1 L382.4,217.7 L385.5,217.4 L387.0,217.4 L390.1,217.1 L391.6,217.1 L394.7,217.1 L396.2,217.4 L399.3,217.4 L401.8,217.7 L403.9,218.1 L406.7,218.4 L408.5,218.8 L411.0,219.1 L413.2,219.5 L415.9,220.1 L417.8,220.8 L420.8,221.5 L422.4,222.5 L425.5,223.2 L427.0,224.2 L428.5,225.2 L431.3,225.9 L433.1,226.9 L435.0,228.3 L436.2,229.3 L439.3,231.0 L440.8,232.1 L443.9,233.4 L445.4,234.8 L447.0,236.1 L448.5,237.9 L450.4,239.2 L451.6,240.6 L453.1,242.3 L455.9,244.0 L456.2,245.7 L459.3,247.4 L459.6,249.4 L460.8,251.1 L463.9,253.5 L465.7,254.9 L465.4,257.3 L467.0,259.0 L468.5,261.0 L470.0,263.1 L470.0,265.5 L471.6,267.2 L473.1,269.2 L474.7,271.2 L476.2,275.3 L477.7,277.4 L479.3,279.4 L479.9,281.5 L480.8,283.5 L482.3,285.6 L483.9,287.6 L484.2,289.6 L485.4,291.3 L489.1,295.4 L490.0,296.8 L491.6,298.8 L493.1,300.9 L494.6,302.6 L495.9,304.3 L497.7,306.3 L499.3,308.4 L499.6,310.1 L503.9,313.8 L504.5,315.5 L506.9,317.2 L508.5,318.9 L509.4,320.6 L513.1,324.4 L515.5,326.1 L517.7,328.1 L520.5,331.2 L522.3,332.9 L523.9,334.6 L525.4,336.3 L526.9,337.7 L529.7,339.0 L530.0,340.8" fill="none" stroke="#1f77b4" stroke-width="1.7" opacity="0.85"/><circle cx="530" cy="341" r="4.5" fill="#1f77b4"/><text x="28" y="572" font-size="11" fill="#888">ground track — m from pad (N up)</text><rect x="580" y="40" width="540" height="540" fill="#fbfbfb" stroke="#ddd"/><text x="586" y="54" fill="#1f77b4" font-size="11">alt 143</text><text x="586" y="558" fill="#1f77b4" font-size="11">-48</text><path d="M1069.1,420.6 L1069.2,420.5 L1069.2,420.3 L1069.2,419.6 L1069.3,418.6 L1069.3,417.8 L1069.3,417.7 L1069.3,417.0 L1069.4,416.5 L1069.4,414.6 L1069.4,414.3 L1069.4,411.7 L1069.4,410.9 L1069.5,410.6 L1069.5,407.1 L1069.5,406.9 L1069.5,404.1 L1069.6,403.4 L1069.6,400.5 L1069.6,397.4 L1069.6,392.0 L1069.7,394.5 L1069.7,384.8 L1069.7,387.9 L1069.7,382.4 L1069.8,381.8 L1069.8,374.7 L1069.8,373.8 L1069.8,370.4 L1069.9,370.2 L1069.9,356.9 L1069.9,357.9 L1069.9,358.5 L1069.9,358.6 L1070.0,340.2 L1070.0,340.9 L1070.0,345.5 L1070.0,341.0 L1070.1,324.0 L1070.1,317.4 L1070.1,320.4 L1070.1,315.7 L1070.2,307.3 L1070.2,317.8 L1070.2,313.3 L1070.2,300.5 L1070.3,282.8 L1070.3,294.8 L1070.3,293.0 L1070.3,278.1 L1070.4,266.7 L1070.4,273.4 L1070.4,276.2 L1070.4,269.9 L1070.4,274.3 L1070.5,253.5 L1070.5,259.8 L1070.5,252.4 L1070.5,248.4 L1070.6,253.2 L1070.6,229.9 L1070.6,219.2 L1070.6,214.1 L1070.7,211.9 L1070.7,206.5 L1070.7,236.4 L1070.7,198.8 L1070.8,195.7 L1070.8,193.7 L1070.8,207.3 L1070.8,204.2 L1070.9,187.6 L1070.9,199.6 L1070.9,214.8 L1070.9,182.9 L1070.9,190.5 L1071.0,162.3 L1071.0,187.2 L1071.0,156.3 L1071.0,166.5 L1071.1,157.1 L1071.1,181.6 L1071.1,173.5 L1071.1,148.8 L1071.2,159.5 L1071.2,141.9 L1071.2,168.8 L1071.2,166.0 L1071.3,140.8 L1071.3,149.9 L1071.3,157.7 L1071.3,128.4 L1071.4,118.4 L1071.4,116.7 L1071.4,167.4 L1071.4,159.3 L1071.5,128.6 L1071.5,108.4 L1071.5,107.1 L1071.5,159.8 L1071.6,117.5 L1071.6,133.7 L1071.6,115.4 L1071.6,138.6 L1071.6,120.2 L1071.7,135.9 L1071.7,131.7 L1071.7,147.3 L1071.7,94.3 L1071.8,99.2 L1071.8,122.2 L1071.8,119.4 L1071.8,129.1 L1071.9,98.8 L1071.9,91.1 L1071.9,97.2 L1071.9,127.5 L1072.0,122.9 L1072.0,80.0 L1072.0,140.3 L1072.0,88.9 L1072.1,133.3 L1072.1,117.2 L1072.1,91.6 L1072.2,83.1 L1072.2,137.1 L1072.2,94.8 L1072.2,84.5 L1072.2,138.1 L1072.3,102.4 L1072.3,137.8 L1072.3,129.5 L1072.3,109.9 L1072.4,117.6 L1072.4,96.8 L1072.4,89.3 L1072.4,76.0 L1072.5,97.9 L1072.5,88.1 L1072.5,101.1 L1072.5,126.5 L1072.6,80.5 L1072.6,128.6 L1072.6,115.0 L1072.6,100.1 L1072.7,104.1 L1072.7,118.4 L1072.7,120.1 L1072.7,112.6 L1072.8,127.8 L1072.8,79.4 L1072.8,138.6 L1072.8,128.6 L1072.9,131.9 L1072.9,119.2 L1072.9,135.8 L1072.9,120.1 L1073.0,94.8 L1073.0,134.7 L1073.0,104.8 L1073.0,86.3 L1073.1,132.1 L1073.1,106.7 L1073.1,108.5 L1073.1,132.0 L1073.2,83.5 L1073.2,113.1 L1073.2,91.6 L1073.2,97.2 L1073.3,132.4 L1073.3,98.8 L1073.3,111.7 L1073.3,121.1 L1073.4,89.3 L1073.4,92.9 L1073.4,92.6 L1073.4,128.4 L1073.4,135.9 L1073.5,102.1 L1073.5,112.2 L1073.5,104.0 L1073.5,114.6 L1073.6,128.4 L1073.6,92.0 L1073.6,98.4 L1073.7,126.7 L1073.7,125.7 L1073.7,118.2 L1073.7,91.9 L1073.8,137.7 L1073.8,147.9 L1073.8,115.6 L1073.8,146.6 L1073.8,122.6 L1073.9,111.0 L1073.9,132.1 L1073.9,99.7 L1073.9,134.5 L1074.0,121.0 L1074.0,134.7 L1074.0,123.9 L1074.0,105.0 L1074.1,96.6 L1074.1,115.2 L1074.1,151.2 L1074.2,122.9 L1074.2,107.2 L1074.2,133.2 L1074.2,101.6 L1074.2,137.4 L1074.3,100.6 L1074.3,111.2 L1074.3,117.8 L1074.3,111.3 L1074.4,157.5 L1074.4,126.3 L1074.4,150.6 L1074.4,104.5 L1074.5,143.4 L1074.5,109.0 L1074.5,107.3 L1074.5,160.8 L1074.6,156.9 L1074.6,121.2 L1074.6,140.8 L1074.6,165.7 L1074.7,133.5 L1074.7,148.3 L1074.7,128.7 L1074.7,167.2 L1074.8,130.1 L1074.8,161.7 L1074.8,136.9 L1074.9,168.8 L1074.9,125.3 L1074.9,133.1 L1074.9,124.5 L1075.0,119.2 L1075.0,125.6 L1075.0,167.8 L1075.0,134.6 L1075.1,168.6 L1075.1,169.5 L1075.1,149.5 L1075.1,162.0 L1075.1,156.3 L1075.2,126.1 L1075.2,138.4 L1075.2,154.2 L1075.2,161.0 L1075.3,179.1 L1075.3,167.5 L1075.3,136.5 L1075.4,147.2 L1075.4,140.8 L1075.4,134.3 L1075.4,153.7 L1075.5,185.2 L1075.5,160.7 L1075.5,169.9 L1075.5,178.3 L1075.5,150.8 L1075.6,138.7 L1075.6,146.3 L1075.6,141.4 L1075.6,165.5 L1075.7,141.1 L1075.7,182.6 L1075.7,172.1 L1075.7,155.5 L1075.8,189.8 L1075.8,147.8 L1075.8,152.7 L1075.9,167.1 L1075.9,170.0 L1075.9,157.8 L1075.9,184.3 L1076.0,176.4 L1076.0,168.5 L1076.0,154.3 L1076.0,174.6 L1076.0,173.3 L1076.1,177.1 L1076.1,193.8 L1076.1,189.3 L1076.1,159.8 L1076.2,166.2 L1076.2,169.1 L1076.2,163.4 L1076.2,204.1 L1076.3,177.7 L1076.3,177.1 L1076.3,177.0 L1076.3,196.7 L1076.4,165.2 L1076.4,193.0 L1076.4,170.0 L1076.5,169.5 L1076.5,211.8 L1076.5,183.4 L1076.5,174.5 L1076.6,201.9 L1076.6,208.4 L1076.6,195.9 L1076.6,188.4 L1076.7,194.2 L1076.7,210.2 L1076.7,209.8 L1076.7,185.9 L1076.8,218.0 L1076.8,188.4 L1076.8,196.8 L1076.8,219.9 L1076.8,190.1 L1076.9,221.4 L1076.9,215.5 L1076.9,217.6 L1076.9,212.7 L1077.0,190.8 L1077.0,226.9 L1077.1,199.4 L1077.1,221.2 L1077.1,226.7 L1077.1,192.3 L1077.2,204.7 L1077.2,202.2 L1077.2,202.7 L1077.2,199.6 L1077.3,237.8 L1077.3,238.7 L1077.3,201.1 L1077.3,235.9 L1077.3,214.5 L1077.4,242.2 L1077.4,203.2 L1077.4,207.5 L1077.4,219.8 L1077.5,220.4 L1077.5,215.2 L1077.5,229.3 L1077.5,232.4 L1077.6,235.2 L1077.6,215.8 L1077.7,221.8 L1077.7,231.9 L1077.7,236.0 L1077.7,232.1 L1077.7,248.1 L1077.8,247.2 L1077.8,244.6 L1077.8,245.8 L1077.8,226.6 L1077.9,239.7 L1077.9,244.8 L1077.9,260.3 L1077.9,262.0 L1078.0,236.8 L1078.0,235.6 L1078.0,241.4 L1078.0,254.3 L1078.1,240.2 L1078.1,247.5 L1078.1,264.9 L1078.1,240.6 L1078.2,244.7 L1078.2,240.6 L1078.2,274.2 L1078.3,248.6 L1078.3,248.2 L1078.3,258.5 L1078.3,248.4 L1078.4,265.7 L1078.4,263.9 L1078.4,273.0 L1078.4,279.1 L1078.5,280.9 L1078.5,275.2 L1078.5,254.6 L1078.5,274.1 L1078.6,283.5 L1078.6,272.7 L1078.6,262.5 L1078.6,287.4 L1078.7,290.5 L1078.7,285.7 L1078.7,279.5 L1078.7,272.1 L1078.7,283.6 L1078.8,292.5 L1078.8,284.8 L1078.9,291.4 L1078.9,295.6 L1078.9,284.1 L1078.9,299.5 L1079.0,276.2 L1079.0,287.2 L1079.0,288.1 L1079.0,296.0 L1079.1,300.4 L1079.1,293.4 L1079.1,299.0 L1079.1,297.6 L1079.1,288.3 L1079.2,309.1 L1079.2,299.2 L1079.2,305.9 L1079.2,296.8 L1079.3,291.4 L1079.3,307.2 L1079.3,307.0 L1079.3,302.1 L1079.4,304.9 L1079.4,305.5 L1079.5,307.6 L1079.5,316.2 L1079.5,320.6 L1079.5,307.9 L1079.6,305.7 L1079.6,326.7 L1079.6,324.1 L1079.6,329.0 L1079.6,311.3 L1079.7,317.7 L1079.7,320.6 L1079.7,323.4 L1079.7,329.8 L1079.8,333.9 L1079.8,335.4 L1079.8,332.8 L1079.8,322.9 L1079.9,336.6 L1079.9,333.4 L1079.9,328.2 L1079.9,342.9 L1080.0,346.2 L1080.0,347.1 L1080.0,343.3 L1080.1,339.0 L1080.1,350.0 L1080.1,346.0 L1080.1,344.5 L1080.2,339.3 L1080.2,345.5 L1080.2,355.7 L1080.2,346.8 L1080.3,347.2 L1080.3,359.2 L1080.3,358.1 L1080.3,351.7 L1080.4,355.1 L1080.4,355.4 L1080.4,359.1 L1080.4,356.2 L1080.5,361.7 L1080.5,364.1 L1080.5,360.2 L1080.5,368.6 L1080.6,373.2 L1080.6,364.7 L1080.6,372.1 L1080.7,368.3 L1080.7,373.2 L1080.7,368.7 L1080.7,379.6 L1080.8,377.1 L1080.8,378.4 L1080.8,376.3 L1080.8,384.8 L1080.9,385.7 L1080.9,377.8 L1080.9,384.8 L1080.9,385.5 L1081.0,383.9 L1081.0,383.3 L1081.0,385.5 L1081.0,393.3 L1081.0,390.6 L1081.1,394.2 L1081.1,396.1 L1081.1,396.3 L1081.2,399.1 L1081.2,398.5 L1081.2,401.5 L1081.3,404.9 L1081.3,405.3 L1081.3,404.1 L1081.3,407.5 L1081.4,408.5 L1081.4,409.7 L1081.4,409.2 L1081.4,410.9 L1081.5,413.2 L1081.5,413.3 L1081.5,414.5 L1081.5,417.2 L1081.5,418.1 L1081.6,418.5 L1081.6,420.1 L1081.6,421.9 L1081.6,422.3 L1081.7,423.6 L1081.7,425.3 L1081.7,426.1 L1081.8,429.3 L1081.8,430.4 L1081.8,432.3 L1081.9,432.2 L1081.9,435.0 L1081.9,437.1 L1081.9,435.8 L1082.0,437.3 L1082.0,440.1 L1082.0,442.0 L1082.0,441.2 L1082.0,445.1 L1082.1,443.9 L1082.1,447.8 L1082.1,447.3 L1082.1,447.6 L1082.2,450.8 L1082.2,448.6 L1082.2,451.2 L1082.2,451.5 L1082.3,451.5 L1082.3,458.7 L1082.3,459.7 L1082.4,459.4 L1082.4,460.7 L1082.4,458.8 L1082.5,460.4 L1082.5,463.3 L1082.5,469.5 L1082.5,463.3 L1082.5,468.0 L1082.6,472.6 L1082.6,470.9 L1082.6,473.4 L1082.6,475.2 L1082.7,480.0 L1082.7,477.6 L1082.7,478.6 L1082.7,476.9 L1082.8,484.6 L1082.8,479.5 L1082.8,481.0 L1082.8,485.4 L1082.9,479.6 L1082.9,488.9 L1082.9,490.3 L1083.0,492.8 L1083.0,495.7 L1083.0,497.9 L1083.0,496.4 L1083.1,495.4 L1083.1,496.1 L1083.1,503.4 L1083.1,494.2 L1083.2,498.4 L1083.2,501.8 L1083.2,503.3 L1083.2,499.8 L1083.4,507.1 L1083.4,509.5 L1083.4,505.4 L1083.4,507.4 L1083.4,513.0 L1083.5,509.9 L1083.5,510.2 L1083.6,511.7 L1083.6,531.2 L1083.6,522.2 L1083.7,518.1 L1083.7,529.9 L1083.7,522.1 L1083.7,534.7 L1083.8,533.0 L1083.8,525.6 L1083.8,536.3 L1083.8,529.7 L1083.9,537.5 L1083.9,544.0 L1083.9,525.5 L1083.9,532.9 L1084.0,543.4 L1084.0,532.4 L1084.0,535.2" fill="none" stroke="#1f77b4" stroke-width="1.4" opacity="0.85"/><text x="1040" y="54" fill="#ff7f0e" font-size="11">roll 20</text><text x="1090" y="558" fill="#ff7f0e" font-size="11">-18</text><path d="M1069.1,317.4 L1069.2,316.2 L1069.2,316.2 L1069.2,317.4 L1069.3,317.4 L1069.3,316.2 L1069.3,317.4 L1069.3,317.4 L1069.4,317.4 L1069.4,317.4 L1069.4,318.7 L1069.4,317.4 L1069.4,317.4 L1069.5,316.2 L1069.5,317.4 L1069.5,317.4 L1069.5,318.7 L1069.6,316.2 L1069.6,316.2 L1069.6,318.7 L1069.6,317.4 L1069.7,318.7 L1069.7,317.4 L1069.7,317.4 L1069.7,317.4 L1069.8,317.4 L1069.8,316.2 L1069.8,317.4 L1069.8,317.4 L1069.9,317.4 L1069.9,318.7 L1069.9,317.4 L1069.9,317.4 L1069.9,316.2 L1070.0,317.4 L1070.0,317.4 L1070.0,318.7 L1070.0,317.4 L1070.1,316.2 L1070.1,317.4 L1070.1,317.4 L1070.1,317.4 L1070.2,316.2 L1070.2,316.2 L1070.2,316.2 L1070.2,317.4 L1070.3,317.4 L1070.3,317.4 L1070.3,317.4 L1070.3,317.4 L1070.4,318.7 L1070.4,317.4 L1070.4,316.2 L1070.4,318.7 L1070.4,316.2 L1070.5,316.2 L1070.5,316.2 L1070.5,317.4 L1070.5,317.4 L1070.6,318.7 L1070.6,316.2 L1070.6,317.4 L1070.6,316.2 L1070.7,317.4 L1070.7,317.4 L1070.7,318.7 L1070.7,316.2 L1070.8,316.2 L1070.8,317.4 L1070.8,317.4 L1070.8,317.4 L1070.9,316.2 L1070.9,318.7 L1070.9,318.7 L1070.9,316.2 L1070.9,317.4 L1071.0,317.4 L1071.0,317.4 L1071.0,317.4 L1071.0,317.4 L1071.1,317.4 L1071.1,318.7 L1071.1,317.4 L1071.1,317.4 L1071.2,316.2 L1071.2,317.4 L1071.2,316.2 L1071.2,316.2 L1071.3,317.4 L1071.3,318.7 L1071.3,317.4 L1071.3,318.7 L1071.4,317.4 L1071.4,318.7 L1071.4,318.7 L1071.4,318.7 L1071.5,317.4 L1071.5,318.7 L1071.5,318.7 L1071.5,317.4 L1071.5,316.2 L1071.6,318.7 L1071.6,317.4 L1071.6,318.7 L1071.6,318.7 L1071.7,316.2 L1071.7,318.7 L1071.7,317.4 L1071.7,317.4 L1071.8,316.2 L1071.8,317.4 L1071.8,317.4 L1071.8,317.4 L1071.9,316.2 L1071.9,316.2 L1071.9,318.7 L1071.9,317.4 L1072.0,317.4 L1072.0,316.2 L1072.0,317.4 L1072.0,316.2 L1072.1,316.2 L1072.1,316.2 L1072.1,317.4 L1072.2,316.2 L1072.2,317.4 L1072.2,316.2 L1072.2,317.4 L1072.2,317.4 L1072.3,317.4 L1072.3,316.2 L1072.3,317.4 L1072.3,318.7 L1072.4,317.4 L1072.4,316.2 L1072.4,312.5 L1072.4,284.0 L1072.5,256.8 L1072.5,235.7 L1072.5,203.5 L1072.5,201.0 L1072.6,183.7 L1072.6,177.5 L1072.6,150.3 L1072.6,154.0 L1072.7,156.5 L1072.7,154.0 L1072.7,139.1 L1072.7,116.9 L1072.8,125.5 L1072.8,145.3 L1072.8,107.0 L1072.8,115.6 L1072.9,119.3 L1072.9,129.2 L1072.9,109.4 L1072.9,120.6 L1073.0,133.0 L1073.0,107.0 L1073.0,185.0 L1073.0,172.6 L1073.1,151.5 L1073.1,149.0 L1073.1,155.2 L1073.1,139.1 L1073.2,160.2 L1073.2,160.2 L1073.2,156.5 L1073.2,130.5 L1073.3,154.0 L1073.3,144.1 L1073.3,137.9 L1073.3,133.0 L1073.3,142.9 L1073.4,155.2 L1073.4,178.8 L1073.4,163.9 L1073.4,180.0 L1073.5,163.9 L1073.5,150.3 L1073.5,146.6 L1073.5,176.3 L1073.6,225.8 L1073.6,251.8 L1073.6,290.2 L1073.7,319.9 L1073.7,343.4 L1073.7,369.4 L1073.7,389.2 L1073.8,423.9 L1073.8,422.7 L1073.8,447.4 L1073.8,461.0 L1073.8,474.7 L1073.9,492.0 L1073.9,473.4 L1073.9,484.6 L1073.9,513.0 L1074.0,483.3 L1074.0,518.0 L1074.0,508.1 L1074.0,499.4 L1074.1,511.8 L1074.1,506.9 L1074.1,494.5 L1074.1,531.6 L1074.2,521.7 L1074.2,503.1 L1074.2,501.9 L1074.2,510.6 L1074.3,544.0 L1074.3,535.3 L1074.3,527.9 L1074.3,516.8 L1074.4,509.3 L1074.4,527.9 L1074.4,526.7 L1074.4,524.2 L1074.5,527.9 L1074.5,542.8 L1074.5,518.0 L1074.5,523.0 L1074.6,516.8 L1074.6,511.8 L1074.6,529.1 L1074.6,531.6 L1074.7,503.1 L1074.7,505.6 L1074.7,542.8 L1074.7,509.3 L1074.8,519.2 L1074.8,509.3 L1074.8,523.0 L1074.9,532.9 L1074.9,498.2 L1074.9,529.1 L1074.9,513.0 L1075.0,541.5 L1075.0,526.7 L1075.0,503.1 L1075.0,537.8 L1075.1,506.9 L1075.1,523.0 L1075.1,515.5 L1075.1,532.9 L1075.1,506.9 L1075.2,509.3 L1075.2,514.3 L1075.2,503.1 L1075.2,514.3 L1075.3,526.7 L1075.3,504.4 L1075.3,508.1 L1075.4,515.5 L1075.4,505.6 L1075.4,523.0 L1075.4,504.4 L1075.5,541.5 L1075.5,505.6 L1075.5,535.3 L1075.5,541.5 L1075.5,458.6 L1075.6,421.4 L1075.6,386.8 L1075.6,358.3 L1075.6,319.9 L1075.7,296.4 L1075.7,271.6 L1075.7,256.8 L1075.7,237.0 L1075.8,198.6 L1075.8,189.9 L1075.8,181.2 L1075.9,167.6 L1075.9,149.0 L1075.9,159.0 L1075.9,146.6 L1076.0,118.1 L1076.0,144.1 L1076.0,111.9 L1076.0,111.9 L1076.0,124.3 L1076.1,129.2 L1076.1,105.7 L1076.1,119.3 L1076.1,102.0 L1076.2,111.9 L1076.2,123.0 L1076.2,123.0 L1076.2,133.0 L1076.3,110.7 L1076.3,129.2 L1076.3,99.5 L1076.3,128.0 L1076.4,120.6 L1076.4,95.8 L1076.4,171.3 L1076.5,166.4 L1076.5,155.2 L1076.5,130.5 L1076.5,129.2 L1076.6,136.7 L1076.6,133.0 L1076.6,128.0 L1076.6,124.3 L1076.7,136.7 L1076.7,116.9 L1076.7,102.0 L1076.7,102.0 L1076.8,133.0 L1076.8,113.1 L1076.8,118.1 L1076.8,137.9 L1076.8,133.0 L1076.9,131.7 L1076.9,118.1 L1076.9,120.6 L1076.9,97.0 L1077.0,120.6 L1077.0,104.5 L1077.1,115.6 L1077.1,108.2 L1077.1,85.9 L1077.1,119.3 L1077.2,125.5 L1077.2,115.6 L1077.2,128.0 L1077.2,129.2 L1077.3,125.5 L1077.3,121.8 L1077.3,129.2 L1077.3,129.2 L1077.3,120.6 L1077.4,119.3 L1077.4,113.1 L1077.4,97.0 L1077.4,92.1 L1077.5,128.0 L1077.5,115.6 L1077.5,100.8 L1077.5,92.1 L1077.6,98.3 L1077.6,114.4 L1077.7,76.0 L1077.7,89.6 L1077.7,88.4 L1077.7,114.4 L1077.7,105.7 L1077.8,97.0 L1077.8,105.7 L1077.8,90.9 L1077.8,126.8 L1077.9,120.6 L1077.9,110.7 L1077.9,136.7 L1077.9,105.7 L1078.0,135.4 L1078.0,111.9 L1078.0,109.4 L1078.0,133.0 L1078.1,104.5 L1078.1,121.8 L1078.1,121.8 L1078.1,105.7 L1078.2,133.0 L1078.2,212.2 L1078.2,189.9 L1078.3,180.0 L1078.3,165.1 L1078.3,178.8 L1078.3,159.0 L1078.4,133.0 L1078.4,154.0 L1078.4,119.3 L1078.4,130.5 L1078.5,126.8 L1078.5,108.2 L1078.5,109.4 L1078.5,113.1 L1078.6,103.2 L1078.6,135.4 L1078.6,133.0 L1078.6,110.7 L1078.7,115.6 L1078.7,115.6 L1078.7,104.5 L1078.7,124.3 L1078.7,108.2 L1078.8,123.0 L1078.8,105.7 L1078.9,103.2 L1078.9,103.2 L1078.9,90.9 L1078.9,95.8 L1079.0,93.3 L1079.0,116.9 L1079.0,130.5 L1079.0,102.0 L1079.1,131.7 L1079.1,93.3 L1079.1,133.0 L1079.1,128.0 L1079.1,94.6 L1079.2,98.3 L1079.2,113.1 L1079.2,123.0 L1079.2,121.8 L1079.3,97.0 L1079.3,108.2 L1079.3,137.9 L1079.3,125.5 L1079.4,131.7 L1079.4,103.2 L1079.5,99.5 L1079.5,123.0 L1079.5,107.0 L1079.5,100.8 L1079.6,123.0 L1079.6,131.7 L1079.6,134.2 L1079.6,118.1 L1079.6,115.6 L1079.7,128.0 L1079.7,99.5 L1079.7,128.0 L1079.7,103.2 L1079.8,114.4 L1079.8,115.6 L1079.8,111.9 L1079.8,107.0 L1079.9,126.8 L1079.9,110.7 L1079.9,93.3 L1079.9,110.7 L1080.0,118.1 L1080.0,105.7 L1080.0,104.5 L1080.1,130.5 L1080.1,95.8 L1080.1,115.6 L1080.1,115.6 L1080.2,133.0 L1080.2,98.3 L1080.2,98.3 L1080.2,102.0 L1080.3,137.9 L1080.3,129.2 L1080.3,94.6 L1080.3,99.5 L1080.4,95.8 L1080.4,124.3 L1080.4,99.5 L1080.4,108.2 L1080.5,125.5 L1080.5,110.7 L1080.5,103.2 L1080.5,105.7 L1080.6,100.8 L1080.6,116.9 L1080.6,95.8 L1080.7,120.6 L1080.7,97.0 L1080.7,102.0 L1080.7,105.7 L1080.8,135.4 L1080.8,98.3 L1080.8,99.5 L1080.8,102.0 L1080.9,115.6 L1080.9,124.3 L1080.9,133.0 L1080.9,97.0 L1081.0,128.0 L1081.0,104.5 L1081.0,130.5 L1081.0,104.5 L1081.0,98.3 L1081.1,94.6 L1081.1,111.9 L1081.1,130.5 L1081.2,124.3 L1081.2,121.8 L1081.2,125.5 L1081.3,103.2 L1081.3,104.5 L1081.3,119.3 L1081.3,98.3 L1081.4,130.5 L1081.4,111.9 L1081.4,110.7 L1081.4,109.4 L1081.5,146.6 L1081.5,189.9 L1081.5,235.7 L1081.5,266.7 L1081.5,292.7 L1081.6,303.8 L1081.6,342.2 L1081.6,355.8 L1081.6,360.8 L1081.7,376.9 L1081.7,386.8 L1081.7,405.3 L1081.8,407.8 L1081.8,436.3 L1081.8,407.8 L1081.9,410.3 L1081.9,393.0 L1081.9,409.0 L1081.9,397.9 L1082.0,402.9 L1082.0,402.9 L1082.0,399.1 L1082.0,406.6 L1082.0,414.0 L1082.1,421.4 L1082.1,426.4 L1082.1,422.7 L1082.1,431.3 L1082.2,412.8 L1082.2,425.1 L1082.2,409.0 L1082.2,407.8 L1082.3,393.0 L1082.3,391.7 L1082.3,395.4 L1082.4,360.8 L1082.4,373.1 L1082.4,378.1 L1082.5,369.4 L1082.5,378.1 L1082.5,385.5 L1082.5,371.9 L1082.5,390.5 L1082.6,384.3 L1082.6,400.4 L1082.6,405.3 L1082.6,435.0 L1082.7,396.7 L1082.7,411.5 L1082.7,404.1 L1082.7,406.6 L1082.8,385.5 L1082.8,390.5 L1082.8,362.0 L1082.8,354.6 L1082.9,362.0 L1082.9,365.7 L1082.9,355.8 L1083.0,396.7 L1083.0,400.4 L1083.0,378.1 L1083.0,363.2 L1083.1,378.1 L1083.1,367.0 L1083.1,371.9 L1083.1,370.7 L1083.2,381.8 L1083.2,401.6 L1083.2,407.8 L1083.2,419.0 L1083.3,480.9 L1083.4,458.6 L1083.4,442.5 L1083.4,425.1 L1083.4,433.8 L1083.5,417.7 L1083.5,405.3 L1083.6,373.1 L1083.6,373.1 L1083.6,364.5 L1083.7,360.8 L1083.7,354.6 L1083.7,357.0 L1083.7,348.4 L1083.8,348.4 L1083.8,344.7 L1083.8,345.9 L1083.8,338.5 L1083.9,339.7 L1083.9,339.7 L1083.9,336.0 L1083.9,334.8 L1084.0,331.0 L1084.0,329.8 L1084.0,329.8" fill="none" stroke="#ff7f0e" stroke-width="1.1" opacity="0.85"/><text x="616" y="572" font-size="11" fill="#888">time 0..865 s — altitude (blue) &amp; roll (orange)</text></svg>