<svg xmlns="http://www.w3.org/2000/svg" width="1140" height="600" font-family="sans-serif" font-size="13"><rect width="1140" height="600" fill="white"/><text x="20" y="26" font-size="15" fill="#333">Coludo flight</text><rect x="20" y="40" width="540" height="540" fill="#fbfbfb" stroke="#ddd"/><rect x="50" y="229" width="480" height="103" fill="#cde" stroke="#369" opacity="0.7"/><text x="50" y="224" fill="#369" font-size="12">landing zone</text><circle cx="354" cy="391" r="5" fill="black"/><text x="362" y="395" font-size="12">pad</text><path d="M354.9,390.5 L354.9,390.5 L354.9,390.5 L354.9,390.5 L354.9,390.5 L354.9,390.5 L354.9,390.5 L354.9,390.5 L354.9,390.5 L354.9,390.5 L354.9,390.5 L354.9,390.5 L354.9,390.5 L354.9,390.5 L354.9,390.5 L354.9,390.5 L354.9,390.5 L354.9,390.5 L354.9,390.5 L354.9,390.5 L354.9,390.5 L354.9,390.5 L354.9,390.5 L354.9,390.5 L354.9,390.5 L354.9,390.5 L354.9,390.5 L354.9,390.5 L354.9,390.5 L354.9,390.5 L354.9,390.5 L354.9,390.5 L354.9,390.5 L354.9,390.5 L354.9,390.5 L354.9,390.5 L354.9,390.5 L354.9,390.5 L354.9,390.5 L354.9,390.5 L354.9,390.5 L354.9,390.5 L354.9,390.5 L354.9,390.5 L354.9,390.5 L354.9,390.5 L354.9,390.5 L354.9,390.5 L354.9,390.5 L354.9,390.5 L354.9,390.5 L354.9,390.5 L354.9,390.5 L354.9,390.5 L354.9,390.5 L354.9,389.9 L354.9,389.9 L354.9,389.3 L356.4,388.7 L356.4,388.2 L356.4,387.6 L356.4,387.6 L357.4,387.6 L357.4,387.6 L357.4,387.0 L360.0,387.0 L360.0,386.5 L360.0,386.5 L362.6,386.5 L362.6,385.9 L364.7,385.9 L364.7,385.9 L364.7,385.9 L365.2,385.9 L365.2,385.9 L367.8,385.9 L367.8,385.9 L370.3,385.3 L370.3,385.3 L372.9,385.3 L372.9,385.9 L372.9,385.9 L372.9,385.9 L375.5,385.9 L378.1,385.9 L378.1,385.9 L380.7,385.9 L381.2,385.9 L381.2,385.9 L381.2,385.9 L383.2,386.5 L385.8,386.5 L385.8,386.5 L388.4,386.5 L388.4,386.5 L389.4,386.5 L389.4,386.5" fill="none" stroke="#1f77b4" stroke-width="1.7" opacity="0.85"/><circle cx="389" cy="386" r="4.5" fill="#1f77b4"/><text x="28" y="572" font-size="11" fill="#888">ground track — m from pad (N up)</text><rect x="580" y="40" width="540" height="540" fill="#fbfbfb" stroke="#ddd"/><text x="586" y="54" fill="#1f77b4" font-size="11">alt 144</text><text x="586" y="558" fill="#1f77b4" font-size="11">2</text><path d="M1059.5,543.7 L1059.6,544.0 L1059.7,543.2 L1059.9,541.2 L1060.0,542.4 L1060.1,541.0 L1060.2,539.7 L1060.3,537.6 L1060.4,537.0 L1060.5,535.9 L1060.6,533.2 L1060.7,529.4 L1060.8,531.9 L1060.9,525.9 L1061.0,523.3 L1061.1,520.9 L1061.2,518.0 L1061.3,517.3 L1061.4,513.7 L1061.5,508.6 L1061.6,508.9 L1061.7,499.8 L1061.8,500.5 L1061.9,502.4 L1062.0,489.7 L1062.1,493.5 L1062.2,482.3 L1062.3,476.5 L1062.4,468.3 L1062.5,464.8 L1062.6,472.7 L1062.7,453.7 L1062.8,461.5 L1062.9,447.4 L1063.0,449.4 L1063.1,437.6 L1063.2,431.6 L1063.3,429.4 L1063.4,433.4 L1063.5,419.7 L1063.6,399.0 L1063.7,406.0 L1063.7,385.8 L1063.8,384.3 L1064.0,386.1 L1064.1,361.0 L1064.2,373.7 L1064.3,346.2 L1064.4,365.1 L1064.5,357.6 L1064.6,346.0 L1064.7,336.9 L1064.8,315.3 L1064.9,349.9 L1065.0,317.9 L1065.1,310.6 L1065.2,321.2 L1065.3,311.8 L1065.4,298.0 L1065.5,284.2 L1065.6,311.9 L1065.7,277.7 L1065.7,259.0 L1065.8,256.8 L1065.9,267.0 L1066.0,260.5 L1066.1,259.1 L1066.2,290.1 L1066.4,276.4 L1066.5,259.3 L1066.6,257.9 L1066.7,251.9 L1066.8,262.5 L1066.9,244.9 L1067.0,227.6 L1067.1,237.4 L1067.2,202.7 L1067.3,209.8 L1067.4,203.3 L1067.5,190.1 L1067.6,181.0 L1067.7,209.4 L1067.8,206.6 L1067.9,225.9 L1068.0,180.2 L1068.1,176.2 L1068.2,201.3 L1068.3,193.2 L1068.4,151.5 L1068.5,205.8 L1068.6,151.4 L1068.7,174.2 L1068.8,150.7 L1068.9,146.7 L1069.0,168.3 L1069.1,149.3 L1069.2,196.8 L1069.3,126.5 L1069.4,123.6 L1069.5,166.2 L1069.6,129.4 L1069.7,132.8 L1069.8,119.1 L1069.9,178.5 L1070.0,150.7 L1070.1,160.7 L1070.2,152.2 L1070.3,180.4 L1070.4,128.6 L1070.5,117.6 L1070.6,120.0 L1070.7,111.6 L1070.8,134.8 L1070.9,111.6 L1071.0,161.3 L1071.1,115.9 L1071.2,111.7 L1071.3,87.4 L1071.4,163.2 L1071.5,95.0 L1071.6,130.4 L1071.7,110.4 L1071.8,112.6 L1071.9,124.6 L1072.0,147.1 L1072.1,105.4 L1072.2,132.3 L1072.3,90.4 L1072.4,130.6 L1072.5,119.3 L1072.6,76.0 L1072.7,98.0 L1072.8,154.7 L1072.9,140.4 L1073.0,121.1 L1073.1,89.3 L1073.2,79.3 L1073.3,83.6 L1073.4,151.1 L1073.5,113.6 L1073.6,103.2 L1073.7,101.2 L1073.8,99.9 L1073.9,107.4 L1074.0,142.8 L1074.1,118.4 L1074.2,141.7 L1074.3,93.4 L1074.4,156.0 L1074.5,116.4 L1074.6,113.4 L1074.7,97.1 L1074.8,159.5 L1074.9,105.0 L1075.0,134.8 L1075.1,121.6 L1075.2,101.2 L1075.3,124.9 L1075.4,108.3 L1075.5,93.8 L1075.7,102.8 L1075.8,127.4 L1075.9,103.4 L1076.0,119.9 L1076.1,150.6 L1076.2,143.6 L1076.3,116.0 L1076.4,125.6 L1076.5,139.2 L1076.6,106.1 L1076.7,103.4 L1076.8,87.9 L1076.9,151.6 L1077.0,92.9 L1077.1,163.9 L1077.2,128.7 L1077.3,116.2 L1077.4,146.7 L1077.5,144.4 L1077.6,118.3 L1077.7,102.9 L1077.8,93.7 L1077.9,152.5 L1078.1,111.5 L1078.2,136.7 L1078.3,129.4 L1078.4,141.8 L1078.5,120.9 L1078.6,130.8 L1078.7,176.8 L1078.8,114.5 L1078.9,111.7 L1079.0,161.8 L1079.1,150.1 L1079.2,152.4 L1079.3,164.8 L1079.4,119.5 L1079.5,128.8 L1079.6,158.6 L1079.7,174.0 L1079.8,118.2 L1079.9,109.4 L1080.0,119.5 L1080.1,155.1 L1080.2,181.8 L1080.3,122.2 L1080.5,108.0 L1080.6,149.3 L1080.7,152.1 L1080.8,154.7 L1080.9,179.6 L1081.1,185.2 L1081.2,137.4 L1081.3,177.9 L1081.4,145.1 L1081.5,183.4 L1081.6,176.4 L1081.7,121.7 L1081.8,149.2 L1081.9,118.9 L1082.0,117.7 L1082.1,136.2 L1082.2,189.6 L1082.3,152.6 L1082.4,182.2 L1082.5,165.1 L1082.6,173.0 L1082.7,153.2 L1082.8,162.1 L1082.9,189.3 L1083.0,131.2 L1083.1,135.8 L1083.2,161.1 L1083.3,152.1 L1083.4,131.6 L1083.5,178.5 L1083.6,188.7 L1083.7,191.3 L1083.8,148.8 L1083.9,200.8 L1084.0,202.1" fill="none" stroke="#1f77b4" stroke-width="1.4" opacity="0.85"/><text x="1040" y="54" fill="#ff7f0e" font-size="11">roll 19</text><text x="1090" y="558" fill="#ff7f0e" font-size="11">-0</text><path d="M1059.5,544.0 L1059.6,539.1 L1059.7,539.1 L1059.9,541.5 L1060.0,541.5 L1060.1,541.5 L1060.2,541.5 L1060.3,541.5 L1060.4,536.6 L1060.5,541.5 L1060.6,536.6 L1060.7,539.1 L1060.8,534.1 L1060.9,534.1 L1061.0,534.1 L1061.1,529.2 L1061.2,524.3 L1061.3,526.8 L1061.4,516.9 L1061.5,516.9 L1061.6,519.4 L1061.7,507.1 L1061.8,504.6 L1061.9,507.1 L1062.0,492.3 L1062.1,492.3 L1062.2,480.0 L1062.3,475.0 L1062.4,484.9 L1062.5,462.7 L1062.6,460.3 L1062.7,455.3 L1062.8,460.3 L1062.9,460.3 L1063.0,440.5 L1063.1,425.8 L1063.2,440.5 L1063.3,428.2 L1063.4,430.7 L1063.5,425.8 L1063.6,408.5 L1063.7,413.5 L1063.7,391.3 L1063.8,391.3 L1063.9,388.8 L1064.1,356.8 L1064.2,364.2 L1064.3,351.9 L1064.4,361.7 L1064.5,329.7 L1064.6,344.5 L1064.7,322.3 L1064.8,339.6 L1064.9,305.1 L1065.0,327.2 L1065.1,310.0 L1065.2,278.0 L1065.3,307.5 L1065.4,285.4 L1065.5,273.1 L1065.6,290.3 L1065.7,273.1 L1065.7,290.3 L1065.8,260.7 L1065.9,275.5 L1066.0,238.6 L1066.1,236.1 L1066.2,258.3 L1066.4,201.6 L1066.5,204.1 L1066.6,255.8 L1066.7,236.1 L1066.8,231.2 L1066.9,238.6 L1067.0,233.6 L1067.1,181.9 L1067.2,201.6 L1067.3,199.2 L1067.4,196.7 L1067.5,213.9 L1067.6,164.7 L1067.7,172.1 L1067.8,223.8 L1067.9,223.8 L1068.0,186.8 L1068.1,211.5 L1068.2,181.9 L1068.3,201.6 L1068.4,194.2 L1068.5,211.5 L1068.6,140.0 L1068.7,201.6 L1068.8,157.3 L1068.9,137.6 L1069.0,132.7 L1069.1,184.4 L1069.2,186.8 L1069.3,204.1 L1069.4,204.1 L1069.5,174.5 L1069.6,164.7 L1069.7,167.1 L1069.8,122.8 L1069.9,186.8 L1070.0,120.3 L1070.1,132.7 L1070.2,125.3 L1070.3,122.8 L1070.4,186.8 L1070.5,115.4 L1070.6,115.4 L1070.7,181.9 L1070.8,108.0 L1070.9,108.0 L1071.0,110.5 L1071.1,157.3 L1071.2,122.8 L1071.3,164.7 L1071.4,120.3 L1071.5,135.1 L1071.6,95.7 L1071.7,152.4 L1071.8,135.1 L1071.9,147.4 L1072.0,159.7 L1072.1,147.4 L1072.2,142.5 L1072.3,78.5 L1072.4,120.3 L1072.5,98.2 L1072.6,147.4 L1072.7,117.9 L1072.8,105.6 L1072.9,105.6 L1073.0,76.0 L1073.1,529.2 L1073.2,484.9 L1073.3,516.9 L1073.4,475.0 L1073.5,450.4 L1073.6,401.1 L1073.7,359.3 L1073.8,383.9 L1073.9,339.6 L1074.0,319.9 L1074.1,349.4 L1074.2,314.9 L1074.3,329.7 L1074.4,297.7 L1074.5,312.5 L1074.6,300.1 L1074.7,337.1 L1074.8,342.0 L1074.9,349.4 L1075.0,327.2 L1075.1,327.2 L1075.2,324.8 L1075.3,356.8 L1075.4,346.9 L1075.5,324.8 L1075.7,359.3 L1075.8,344.5 L1075.9,354.3 L1076.0,359.3 L1076.1,359.3 L1076.2,354.3 L1076.3,388.8 L1076.4,401.1 L1076.5,415.9 L1076.6,386.4 L1076.7,396.2 L1076.8,406.1 L1076.9,411.0 L1077.0,381.4 L1077.1,418.4 L1077.2,418.4 L1077.3,411.0 L1077.4,438.1 L1077.5,418.4 L1077.6,435.6 L1077.7,423.3 L1077.8,447.9 L1077.9,465.2 L1078.1,475.0 L1078.2,494.7 L1078.3,484.9 L1078.4,489.8 L1078.5,484.9 L1078.6,484.9 L1078.7,487.3 L1078.8,477.5 L1078.9,492.3 L1079.0,482.4 L1079.1,484.9 L1079.2,480.0 L1079.3,489.8 L1079.4,487.3 L1079.5,482.4 L1079.6,489.8 L1079.7,480.0 L1079.8,482.4 L1079.9,482.4 L1080.0,482.4 L1080.1,492.3 L1080.2,494.7 L1080.3,494.7 L1080.5,516.9 L1080.6,516.9 L1080.7,512.0 L1080.8,524.3 L1080.9,521.8 L1081.1,526.8 L1081.2,524.3 L1081.3,521.8 L1081.4,524.3 L1081.5,529.2 L1081.6,526.8 L1081.7,531.7 L1081.8,531.7 L1081.9,529.2 L1082.0,529.2 L1082.1,531.7 L1082.2,531.7 L1082.3,536.6 L1082.4,536.6 L1082.5,536.6 L1082.6,536.6 L1082.7,536.6 L1082.8,536.6 L1082.9,539.1 L1083.0,539.1 L1083.1,536.6 L1083.2,536.6 L1083.3,536.6 L1083.4,539.1 L1083.5,541.5 L1083.6,539.1 L1083.7,541.5 L1083.8,541.5 L1083.9,539.1 L1084.0,541.5" fill="none" stroke="#ff7f0e" stroke-width="1.1" opacity="0.85"/><text x="616" y="572" font-size="11" fill="#888">time 0..207 s — altitude (blue) &amp; roll (orange)</text></svg>