<svg xmlns="http://www.w3.org/2000/svg" width="1140" height="600" font-family="sans-serif" font-size="13"><rect width="1140" height="600" fill="white"/><text x="20" y="26" font-size="15" fill="#333">Coludo flight</text><rect x="20" y="40" width="540" height="540" fill="#fbfbfb" stroke="#ddd"/><rect x="157" y="114" width="122" height="26" fill="#cde" stroke="#369" opacity="0.7"/><text x="157" y="109" fill="#369" font-size="12">landing zone</text><circle cx="234" cy="155" r="5" fill="black"/><text x="242" y="159" font-size="12">pad</text><path d="M234.6,155.4 L234.6,155.4 L234.6,155.4 L234.6,155.4 L234.6,155.4 L234.6,155.4 L234.6,155.4 L234.6,155.4 L234.6,155.4 L234.6,155.4 L234.6,155.4 L234.6,155.4 L234.6,155.4 L234.6,155.4 L234.6,155.4 L234.6,155.4 L234.6,155.4 L234.6,155.4 L234.6,155.4 L234.6,155.4 L234.6,155.4 L234.6,155.4 L234.6,155.4 L234.6,155.4 L234.6,155.4 L234.6,155.4 L234.6,155.4 L234.6,155.4 L234.6,155.4 L234.6,155.4 L234.6,155.4 L234.6,155.4 L234.6,155.4 L234.6,155.4 L234.6,155.4 L234.6,155.4 L234.6,155.4 L234.6,155.4 L234.6,155.4 L234.6,155.4 L234.6,155.4 L234.6,155.4 L234.6,155.4 L234.6,155.4 L234.6,155.4 L234.6,155.4 L234.6,155.4 L234.6,155.4 L234.6,155.4 L234.6,155.4 L234.6,155.4 L234.6,155.4 L234.6,155.4 L234.6,155.4 L234.6,155.4 L234.6,155.4 L234.6,155.4 L234.6,155.4 L234.6,155.4 L235.0,154.5 L235.2,153.7 L235.9,152.8 L236.6,151.9 L237.1,151.2 L237.2,150.3 L238.5,149.4 L239.2,148.7 L239.2,148.0 L239.8,147.3 L240.5,146.5 L241.2,145.8 L241.8,144.9 L242.5,144.2 L243.4,143.3 L243.8,142.6 L245.1,141.7 L245.5,141.0 L246.4,140.1 L247.1,139.5 L247.7,138.7 L248.4,137.9 L249.7,137.2 L250.2,136.6 L250.3,135.9 L251.7,135.0 L251.8,134.2 L252.3,133.4 L253.0,132.6 L253.9,131.7 L254.3,130.8 L254.9,129.9 L255.6,129.2 L256.0,128.3 L256.3,127.5 L256.3,126.6 L256.9,125.4 L257.6,124.6 L258.2,123.5 L258.6,122.7 L258.6,121.8 L258.9,120.8 L258.9,119.9 L259.5,118.7 L259.5,117.9 L260.2,116.7 L260.2,115.8 L260.2,115.0 L260.7,113.9 L260.7,112.8 L260.7,112.0 L260.7,110.9 L260.8,109.4 L260.8,108.1 L260.8,107.2 L261.5,106.2 L261.5,105.4 L261.5,104.3 L262.2,103.3 L262.2,102.4 L262.3,101.6 L262.8,100.0 L263.5,99.0 L263.5,97.8 L264.1,96.8 L264.4,95.9 L264.8,94.9 L265.4,94.2 L266.1,93.1 L266.5,92.0 L266.8,91.1 L267.4,90.1 L268.1,89.4 L268.9,88.5 L269.4,87.6 L270.0,86.9 L270.7,86.0 L271.4,85.4 L272.0,84.7 L272.8,83.7 L273.3,82.9 L274.6,82.2 L274.9,81.6 L275.9,81.1 L276.6,80.2 L277.8,79.6 L278.6,79.0 L279.2,78.4 L279.9,77.7 L281.2,77.0 L281.9,76.5 L283.2,76.0 L283.3,75.5 L284.5,75.1 L285.4,74.5 L286.5,74.1 L287.8,73.8 L288.0,73.5 L289.1,73.1 L290.4,72.6 L291.1,72.3 L292.0,72.0 L293.0,71.7 L294.3,71.5 L295.6,71.2 L296.3,70.9 L297.6,70.7 L298.5,70.6 L299.6,70.4 L300.6,70.3 L301.6,70.1 L302.7,70.1 L303.5,70.0 L305.1,70.0 L305.5,70.0 L306.8,70.0 L308.1,70.0 L309.3,70.0 L310.1,70.1 L311.1,70.1 L312.1,70.3 L313.2,70.4 L314.0,70.7 L315.3,70.7 L316.0,71.0 L318.0,71.5 L318.6,71.6 L319.8,71.9 L321.3,72.3 L321.4,72.6 L322.6,72.9 L323.7,73.2 L324.5,73.6 L325.8,73.9 L325.8,74.2 L327.8,74.7 L327.9,75.1 L329.1,75.5 L330.3,76.1 L331.1,76.5 L331.9,76.8 L332.4,77.3 L333.7,77.9 L334.4,78.3 L335.0,78.9 L336.4,79.3 L337.0,79.7 L338.3,80.5 L339.0,81.1 L339.6,81.6 L340.6,82.2 L341.6,82.9 L342.3,83.4 L342.9,84.1 L344.2,85.1 L344.9,85.9 L346.2,86.3 L346.9,87.0 L347.5,87.8 L348.2,88.3 L349.0,88.8 L350.1,89.5 L350.8,90.2 L352.1,91.5 L353.2,92.1 L353.4,92.8 L354.1,93.4 L355.4,94.3 L355.8,94.9 L356.7,95.8 L357.4,96.5 L358.0,97.4 L358.7,98.1 L359.3,98.8 L360.0,99.7 L360.6,100.6 L361.3,101.3 L362.0,102.2 L362.6,103.2 L363.3,103.9 L363.7,104.6 L364.6,105.6 L365.2,106.8 L365.9,107.5 L366.3,108.3 L367.2,109.3 L367.9,110.2 L368.4,110.9 L368.5,111.9 L369.2,112.8 L369.8,113.5 L370.5,115.4 L371.1,116.3 L371.8,117.0 L372.3,118.0 L372.5,118.9 L373.1,119.8 L373.8,120.8 L374.4,121.7 L374.7,122.5 L375.7,124.3 L376.4,125.1 L376.8,126.2 L376.8,126.9 L377.7,127.8 L378.4,128.9 L378.4,129.7 L378.9,130.7 L379.0,131.5 L380.3,133.1 L380.5,134.0 L381.0,135.0 L381.7,135.9 L382.3,136.6 L382.8,137.7 L383.0,138.7 L383.6,139.5 L384.3,140.4 L384.9,142.0 L385.2,142.9 L385.6,143.9 L386.9,144.9 L386.9,145.7 L387.3,146.4 L387.6,147.3 L388.2,148.1 L388.9,149.2 L389.5,150.8 L390.2,151.8 L390.8,152.6 L391.0,153.5 L391.5,154.5 L392.2,155.3 L392.8,156.1 L393.5,157.0 L393.5,157.6 L393.6,158.6 L394.1,159.6 L395.4,160.6 L395.7,161.5 L396.1,162.5 L396.1,163.4 L396.8,164.1 L397.8,165.3 L398.1,166.3 L398.1,167.0 L399.4,168.6 L399.9,169.5 L399.9,170.1 L400.7,171.4 L401.4,172.4 L401.4,173.2 L402.0,174.0 L402.0,174.8 L402.7,175.8 L404.0,177.5 L404.1,178.7 L404.6,179.6 L405.3,180.4 L405.3,181.5 L405.9,182.2 L406.2,183.1 L406.6,183.9 L406.6,184.7 L407.3,185.7 L408.3,187.6 L408.3,188.3 L408.6,189.3 L409.2,190.2 L409.2,190.9 L409.9,192.1 L410.4,192.9 L410.4,193.7 L410.5,195.0 L411.9,197.6 L412.5,198.6 L412.5,199.6 L412.5,200.5 L412.5,201.7 L413.2,202.5 L413.2,203.6 L413.8,204.9 L413.8,205.6 L414.5,208.1 L414.6,208.8 L414.6,210.0 L415.1,211.1 L415.1,212.0 L415.8,213.0 L415.8,214.2 L416.5,215.1 L416.5,216.1 L416.5,217.0 L416.7,218.7 L416.7,219.9 L416.7,220.7 L417.1,221.6 L417.1,222.9 L417.8,223.8 L417.8,225.0 L417.8,226.0 L418.4,226.8 L418.4,229.5 L418.8,230.5 L418.8,231.6 L418.8,232.5 L419.1,233.5 L419.1,234.4 L419.7,235.4 L419.7,236.5 L420.4,237.5 L420.9,239.9 L420.9,241.0 L420.9,241.7 L421.0,243.0 L421.0,244.0 L421.0,244.7 L421.7,245.9 L421.7,247.1 L421.7,247.9 L422.4,248.8 L422.4,250.6 L422.4,251.7 L422.4,252.7 L423.0,253.6 L423.0,254.6 L423.0,255.8 L423.0,256.7 L423.0,257.8 L423.0,258.7 L423.0,259.6 L423.0,261.6 L423.0,262.8 L423.0,263.8 L423.0,265.0 L423.0,266.0 L422.4,266.9 L422.4,268.0 L422.4,268.9 L422.4,270.1 L421.7,272.4 L421.7,273.4 L421.0,274.6 L421.0,275.7 L420.9,276.9 L420.9,277.9 L420.4,278.9 L420.4,280.1 L420.4,281.0 L419.7,283.2 L419.1,284.0 L419.1,285.0 L419.1,286.1 L418.8,287.1 L418.8,288.0 L418.8,289.0 L418.4,290.1 L418.4,291.3 L418.4,293.8 L417.8,294.9 L417.8,296.0 L417.8,297.1 L417.1,298.4 L417.1,299.2 L417.1,300.2 L417.1,301.3 L416.7,302.1 L416.7,304.7 L416.5,305.7 L416.5,306.7 L416.5,307.7 L416.5,308.9 L415.8,309.8 L415.8,310.7 L415.8,311.8 L415.8,312.8 L415.1,313.7 L415.1,315.6 L414.6,316.6 L414.6,317.5 L414.6,318.5 L414.5,319.4 L414.5,320.3 L414.5,321.6 L413.8,322.4 L413.8,323.5 L413.8,324.5 L413.2,326.2 L413.2,327.2 L412.5,328.4 L412.5,329.4 L412.5,330.6 L412.5,331.5 L412.5,332.5 L412.5,333.6 L411.9,334.7 L411.2,337.1 L411.2,338.0 L411.2,339.0 L410.5,340.0 L410.5,340.9 L410.4,341.9 L410.4,343.0 L409.9,343.8 L409.2,344.8 L409.2,345.7 L408.6,347.5 L408.3,348.5 L408.3,349.4 L407.9,350.2 L407.3,351.2 L406.6,352.1 L406.6,353.0 L406.2,354.2 L405.9,355.0 L405.3,355.9 L404.6,357.7 L404.1,358.4 L404.0,359.4 L403.3,360.4 L402.7,361.3 L402.0,362.2 L402.0,363.2 L401.4,364.2 L400.7,364.9 L399.9,367.3 L399.4,368.4 L398.7,369.4 L398.1,370.5 L397.8,371.2 L397.8,372.1 L397.4,373.1 L396.8,374.1 L396.1,375.0 L395.4,377.1 L394.8,378.2 L394.1,379.0 L394.1,379.9 L393.6,380.9 L393.5,381.9 L393.5,382.7 L392.8,383.8 L392.2,384.9 L391.5,385.7 L391.0,387.3 L390.8,388.4 L390.8,389.2 L390.2,390.2 L390.2,391.3 L389.5,392.1 L389.4,393.3 L389.4,394.2 L388.9,395.0 L388.2,396.1 L387.6,397.7 L387.6,398.8 L387.3,399.7 L386.9,400.4 L386.9,401.6 L386.2,402.5 L386.2,403.3 L385.6,404.5 L385.2,405.7 L385.2,406.4 L384.9,408.3 L384.3,409.3 L384.3,410.3 L383.6,411.2 L383.6,412.2 L383.0,412.9 L382.8,414.1 L382.8,415.1 L382.3,416.0 L382.3,417.0 L381.7,418.8 L381.0,419.8 L380.5,420.9 L380.5,421.7 L380.3,422.5 L379.7,423.9 L379.7,424.6 L379.0,425.6 L379.0,426.6 L378.9,427.5 L378.4,429.2 L378.4,430.3 L377.7,431.0 L377.1,432.1 L377.1,433.2 L376.8,434.0 L376.4,435.1 L376.4,436.1 L375.7,436.8 L375.1,438.0 L374.7,439.6 L374.4,440.4 L373.8,441.5 L373.8,442.3 L373.1,443.3 L372.5,444.4 L372.3,445.5 L372.3,446.7 L371.8,447.6 L370.5,449.8 L370.5,450.8 L369.7,451.6 L369.8,452.7 L369.2,453.7 L369.2,454.7 L368.5,455.6 L368.4,456.6 L367.9,457.3 L366.6,459.9 L366.3,460.8 L366.3,461.8 L365.9,462.8 L365.2,463.7 L364.6,464.7 L363.9,465.8 L363.9,466.5 L363.7,467.4 L363.3,468.2 L362.6,470.0 L362.0,471.1 L361.8,472.2 L361.8,472.9 L361.3,474.2 L360.6,475.1 L360.6,476.1 L360.0,477.0 L359.7,478.1 L359.3,480.5 L358.7,481.5 L358.0,482.5 L358.0,483.4 L357.9,484.2 L357.4,485.3 L357.4,486.1 L356.7,487.1 L356.0,488.0 L355.8,489.0 L355.4,490.6 L354.7,491.7 L354.7,492.5 L354.1,493.7 L353.4,494.6 L353.4,495.4 L353.2,496.2 L353.2,497.5 L352.8,498.3 L351.5,501.0 L351.5,502.1 L351.1,503.0 L351.1,504.0 L350.8,505.0 L350.8,506.1 L350.1,507.1 L350.1,508.1 L349.5,509.1 L349.0,511.7 L348.8,512.8 L348.8,513.8 L348.2,514.6 L348.2,515.7 L347.5,516.7 L347.5,517.6 L347.4,518.6 L347.4,519.7 L347.4,520.5 L346.9,522.5 L346.2,523.4 L346.2,524.7 L345.5,525.6 L345.5,526.6 L345.5,527.4 L344.9,528.6 L344.9,529.6 L344.5,530.5 L344.2,533.0 L343.6,534.1 L343.6,535.0 L343.6,536.2 L342.9,537.2 L342.9,538.1 L342.9,539.1 L342.4,540.3 L342.4,541.0 L342.3,544.0 L342.3,545.1 L341.6,546.2 L341.6,547.1 L340.9,549.0 L340.9,550.0" fill="none" stroke="#1f77b4" stroke-width="1.7" opacity="0.85"/><circle cx="341" cy="550" r="4.5" fill="#1f77b4"/><text x="28" y="572" font-size="11" fill="#888">ground track — m from pad (N up)</text><rect x="580" y="40" width="540" height="540" fill="#fbfbfb" stroke="#ddd"/><text x="586" y="54" fill="#1f77b4" font-size="11">alt 277</text><text x="586" y="558" fill="#1f77b4" font-size="11">-100</text><path d="M641.6,415.0 L641.9,415.7 L642.2,415.2 L642.5,418.9 L642.8,418.3 L643.2,418.6 L643.5,413.4 L643.8,417.4 L644.1,416.4 L644.4,417.0 L644.7,418.9 L645.0,406.0 L645.3,418.5 L645.5,415.5 L645.8,405.5 L646.1,401.2 L646.4,419.9 L646.7,399.8 L647.0,382.4 L647.2,384.1 L647.5,400.0 L647.8,396.1 L648.1,382.9 L648.4,392.1 L648.6,377.2 L648.9,359.9 L649.3,388.6 L649.5,378.7 L649.9,400.8 L650.2,414.6 L650.4,402.2 L650.7,372.6 L651.0,348.2 L651.3,316.7 L651.6,337.3 L651.9,347.0 L652.2,418.4 L652.5,295.5 L652.7,374.3 L653.0,283.3 L653.3,300.1 L653.6,340.9 L653.9,344.1 L654.2,385.2 L654.5,275.6 L654.8,321.9 L655.0,326.7 L655.3,344.8 L655.6,290.5 L655.9,419.3 L656.2,379.2 L656.5,331.2 L656.7,402.2 L657.0,412.1 L657.3,253.1 L657.6,226.7 L657.9,222.1 L658.1,262.6 L658.5,253.2 L658.8,337.5 L659.1,372.6 L659.4,175.5 L659.7,344.1 L659.9,221.9 L660.2,217.5 L660.5,220.2 L660.8,211.4 L661.1,383.9 L661.3,269.2 L661.6,260.6 L661.9,215.6 L662.2,406.5 L662.5,204.0 L662.8,298.1 L663.1,229.3 L663.4,248.0 L663.7,376.8 L663.9,190.5 L664.3,143.6 L664.6,128.9 L664.8,206.0 L665.1,231.5 L665.4,214.4 L665.7,355.3 L666.0,202.8 L666.2,110.2 L666.6,152.4 L666.9,341.8 L667.1,111.6 L667.4,414.7 L667.8,408.2 L668.0,179.7 L668.4,396.7 L668.7,242.1 L669.0,339.4 L669.3,241.3 L669.6,258.4 L669.9,157.4 L670.2,174.6 L670.5,281.8 L670.8,142.0 L671.1,386.3 L671.5,84.2 L671.7,293.4 L672.1,388.9 L672.4,210.9 L672.7,177.9 L673.0,93.0 L673.3,388.9 L673.6,133.5 L673.9,291.5 L674.2,167.7 L674.6,349.1 L674.8,259.1 L675.2,406.3 L675.5,348.6 L675.8,347.2 L676.1,76.0 L676.4,401.6 L676.7,209.5 L677.0,139.0 L677.3,371.5 L677.7,233.4 L678.0,420.3 L678.3,219.0 L678.6,315.1 L678.9,163.3 L679.2,109.4 L679.6,353.3 L679.9,420.0 L680.2,330.0 L680.5,412.2 L680.8,329.7 L681.1,229.5 L681.4,217.9 L681.6,404.2 L681.9,356.8 L682.2,302.5 L682.5,316.9 L682.8,324.7 L683.1,132.5 L683.3,186.8 L683.6,314.0 L683.9,186.3 L684.2,378.0 L684.5,310.5 L684.7,234.1 L685.0,409.6 L685.3,294.2 L685.6,88.6 L685.9,113.0 L686.3,187.4 L686.5,252.0 L686.9,301.2 L687.2,273.0 L687.4,166.7 L687.7,386.9 L688.0,177.6 L688.3,253.2 L688.6,147.9 L688.9,130.1 L689.2,281.9 L689.5,200.2 L689.8,91.4 L690.1,235.2 L690.4,400.4 L690.6,176.4 L691.0,147.7 L691.3,105.1 L691.6,273.9 L691.9,419.1 L692.2,300.4 L692.4,285.6 L692.8,354.0 L693.2,287.1 L693.5,308.4 L693.8,129.2 L694.1,396.9 L694.4,109.6 L694.7,99.7 L695.0,368.1 L695.3,182.2 L695.6,147.1 L695.9,119.4 L696.2,417.4 L696.5,220.7 L696.8,235.0 L697.2,183.0 L697.5,296.6 L697.8,408.8 L698.0,189.9 L698.3,413.1 L698.6,417.8 L699.1,311.2 L699.5,158.2 L699.8,282.6 L700.0,179.8 L700.3,139.2 L700.6,300.5 L700.9,165.0 L701.2,219.1 L701.6,407.4 L701.8,289.8 L702.2,96.1 L702.5,237.8 L702.7,402.4 L703.0,309.9 L703.4,251.0 L703.6,282.1 L704.0,175.4 L704.3,203.4 L704.6,350.1 L705.1,322.4 L705.3,254.1 L705.6,163.2 L705.9,380.3 L706.2,177.8 L706.5,238.5 L706.8,283.1 L707.1,372.4 L707.4,352.2 L707.7,364.3 L708.0,278.9 L708.3,187.5 L708.6,375.7 L708.9,341.6 L709.2,206.2 L709.5,343.3 L709.8,320.6 L710.1,151.5 L710.3,270.5 L710.6,179.0 L711.0,339.6 L711.2,171.0 L711.5,304.0 L711.8,381.0 L712.1,132.7 L712.5,157.9 L712.7,244.5 L713.1,257.7 L713.4,134.4 L713.7,299.7 L713.9,198.9 L714.2,255.2 L714.5,136.6 L714.8,140.1 L715.1,335.5 L715.3,303.2 L715.6,159.2 L715.9,184.0 L716.2,342.6 L716.5,233.6 L716.9,362.2 L717.1,197.1 L717.4,375.2 L717.7,235.7 L718.0,381.5 L718.3,310.9 L718.5,289.8 L718.8,265.6 L719.2,258.2 L719.4,416.5 L719.8,400.7 L720.1,243.4 L720.4,378.1 L720.7,153.4 L721.0,241.7 L721.2,270.4 L721.5,326.9 L721.8,373.7 L722.1,187.8 L722.4,400.2 L722.8,406.5 L723.0,250.5 L723.3,184.4 L723.6,306.8 L723.9,262.3 L724.2,189.6 L724.4,198.2 L724.7,391.7 L725.1,167.5 L725.3,157.1 L725.7,172.0 L726.0,293.1 L726.3,188.6 L726.6,190.5 L726.9,233.7 L727.1,420.4 L727.5,415.4 L727.8,384.4 L728.1,186.2 L728.7,183.1 L729.0,326.7 L729.2,302.9 L729.6,401.5 L729.8,313.6 L730.1,314.2 L730.4,349.2 L730.7,201.9 L731.0,232.2 L731.4,354.5 L731.6,290.0 L731.9,203.8 L732.2,242.2 L732.5,195.8 L732.8,254.0 L733.1,244.2 L733.3,335.8 L733.6,201.3 L733.9,415.4 L734.2,348.9 L734.6,303.7 L734.9,264.0 L735.2,407.7 L735.5,379.0 L735.8,321.6 L736.0,232.3 L736.3,259.9 L736.6,226.0 L736.9,254.2 L737.2,201.9 L737.4,225.4 L737.7,240.4 L738.0,234.0 L738.3,203.0 L738.6,239.1 L738.9,290.2 L739.2,301.2 L739.5,296.0 L739.8,305.5 L740.0,275.7 L740.5,372.1 L740.8,207.9 L741.0,246.9 L741.3,266.2 L741.6,233.9 L741.9,385.9 L742.2,208.4 L742.5,361.0 L742.8,228.3 L743.1,405.4 L743.3,286.8 L743.6,315.9 L743.9,395.3 L744.2,398.6 L744.5,226.3 L744.8,231.9 L745.0,328.5 L745.3,240.0 L745.6,248.6 L745.9,226.3 L746.4,382.6 L746.7,294.3 L746.9,418.7 L747.2,397.8 L747.5,313.7 L747.7,357.3 L748.0,273.2 L748.3,321.2 L748.6,294.4 L748.9,282.7 L749.1,375.9 L749.5,406.0 L749.8,232.7 L750.1,395.6 L750.4,273.3 L750.7,378.7 L751.0,273.7 L751.3,269.1 L751.6,315.6 L751.9,317.7 L752.6,365.1 L752.9,419.8 L753.2,402.5 L753.5,286.0 L753.8,287.2 L754.0,263.3 L754.3,318.7 L754.6,334.8 L754.9,333.1 L755.2,365.0 L755.5,420.4 L755.8,336.7 L756.1,256.2 L756.3,375.3 L756.6,410.5 L756.9,410.6 L757.2,314.7 L757.5,383.0 L757.8,265.4 L758.1,303.2 L758.7,357.5 L759.0,405.1 L759.3,354.3 L759.6,344.2 L759.9,387.7 L760.2,390.4 L760.4,342.9 L760.8,351.9 L761.1,292.8 L761.4,368.9 L761.7,391.2 L762.0,298.7 L762.3,351.3 L762.6,406.9 L762.9,401.8 L763.2,361.0 L763.5,404.0 L763.8,353.0 L764.1,420.4 L764.9,371.2 L765.2,388.6 L765.5,293.1 L765.8,365.6 L766.1,347.1 L766.4,339.7 L766.6,323.2 L767.0,395.9 L767.3,367.1 L767.6,324.2 L767.9,406.5 L768.2,337.6 L768.5,370.7 L768.8,365.2 L769.0,420.3 L769.4,350.4 L769.7,381.3 L770.0,402.1 L770.3,346.2 L771.1,369.9 L771.4,360.0 L771.7,349.3 L772.0,391.7 L772.3,359.0 L772.6,333.5 L772.9,369.1 L773.2,359.4 L773.5,391.9 L773.8,332.8 L774.1,331.3 L774.4,399.7 L774.7,380.4 L775.1,348.9 L775.3,415.9 L775.7,372.3 L776.0,379.2 L776.3,333.5 L776.6,368.9 L777.2,393.0 L777.5,376.9 L777.8,376.7 L778.1,401.0 L778.4,395.9 L778.7,348.7 L778.9,386.4 L779.3,367.3 L779.6,349.0 L779.8,367.5 L780.1,420.3 L780.4,365.5 L780.7,395.5 L781.0,350.3 L781.3,389.6 L781.5,412.1 L781.8,400.2 L782.1,407.1 L782.4,355.2 L782.7,356.2 L783.4,358.6 L783.7,406.8 L784.0,409.4 L784.3,389.6 L784.6,361.4 L784.8,362.8 L785.1,377.5 L785.4,377.0 L785.7,384.4 L786.0,409.4 L786.3,377.3 L786.6,367.4 L786.9,403.2 L787.2,420.6 L787.4,416.7 L787.7,395.5 L788.0,389.8 L788.3,406.0 L788.6,407.4 L788.9,385.5 L789.7,418.7 L790.0,419.7 L790.3,402.1 L790.6,395.0 L790.9,408.2 L791.2,417.0 L791.5,403.9 L791.8,413.2 L792.1,398.4 L792.3,404.0 L792.6,387.2 L792.9,397.0 L793.2,417.0 L793.5,415.3 L793.8,411.1 L794.1,406.4 L794.4,413.5 L794.6,405.5 L794.9,415.1 L795.2,407.1 L795.8,420.5 L796.1,418.9 L796.4,403.4 L796.7,414.1 L796.9,416.9 L797.2,410.5 L797.5,415.5 L797.8,418.1 L798.1,416.8 L798.5,420.3 L798.7,412.0 L799.1,415.1 L799.4,420.8 L799.7,412.6 L800.0,418.2 L800.4,416.3 L800.7,419.1 L801.0,418.7 L801.3,419.3 L802.0,422.0 L802.3,423.3 L802.6,421.3 L802.9,419.1 L803.2,420.2 L803.5,419.2 L803.7,423.7 L804.0,423.9 L804.3,429.7 L804.6,422.1 L804.9,428.8 L805.2,425.3 L805.4,423.4 L805.7,418.9 L806.0,419.8 L806.3,424.8 L806.7,427.9 L807.0,431.7 L807.3,421.5 L807.6,420.2 L808.2,426.4 L808.5,435.7 L808.8,429.3 L809.1,442.4 L809.4,426.7 L809.7,442.7 L810.0,433.3 L810.3,432.3 L810.6,420.5 L810.8,447.3 L811.2,427.8 L811.5,443.6 L811.8,425.2 L812.1,428.0 L812.4,453.8 L812.7,452.1 L813.0,451.0 L813.2,458.1 L813.5,456.5 L814.4,421.3 L814.7,436.3 L814.9,435.3 L815.2,433.7 L815.5,446.6 L815.8,430.6 L816.1,450.9 L816.3,442.3 L816.6,431.9 L816.9,424.0 L817.2,439.2 L817.5,433.6 L817.8,430.3 L818.1,428.2 L818.4,459.8 L818.7,421.4 L819.0,447.1 L819.3,475.9 L819.6,425.7 L819.8,462.2 L820.6,433.1 L820.8,419.0 L821.1,469.5 L821.5,454.9 L821.7,478.6 L822.0,481.3 L822.3,450.7 L822.6,420.3 L822.9,485.6 L823.2,419.5 L823.4,444.7 L823.7,490.0 L824.0,423.2 L824.3,468.8 L824.6,431.6 L824.9,430.7 L825.2,464.3 L825.5,472.6 L825.8,449.6 L826.1,502.0 L826.8,462.0 L827.0,437.8 L827.3,423.3 L827.6,420.8 L827.9,470.7 L828.3,428.4 L828.5,449.5 L828.9,480.3 L829.2,506.3 L829.5,426.6 L829.7,511.2 L830.1,511.1 L830.3,444.2 L830.6,427.3 L830.9,517.1 L831.2,425.6 L831.5,501.6 L831.8,521.5 L832.1,480.0 L833.0,500.9 L833.2,460.2 L833.5,479.5 L833.8,467.5 L834.1,449.4 L834.4,515.4 L834.7,509.3 L835.0,451.8 L835.2,530.5 L835.6,533.6 L835.9,501.6 L836.1,483.9 L836.4,506.1 L836.7,452.2 L837.0,501.7 L837.4,507.4 L837.7,472.4 L838.0,500.4 L838.3,536.2 L839.1,428.4 L839.5,535.6 L839.7,422.2 L840.0,492.3 L840.3,496.7 L840.6,507.4 L840.9,495.4 L841.1,422.4 L841.4,435.8 L841.7,437.9 L842.0,465.0 L842.3,435.5 L842.6,450.1 L842.9,474.7 L843.2,506.2 L843.4,517.2 L843.8,518.8 L844.1,544.0 L844.3,540.7 L844.6,527.8 L845.3,439.6 L845.6,510.4 L845.9,419.1 L846.2,461.5 L846.5,543.3 L846.8,544.0 L847.1,522.1 L847.4,544.0 L847.7,544.0 L848.0,493.9 L848.3,500.4 L848.6,423.1 L848.9,420.8 L849.2,464.4 L849.5,544.0 L849.8,525.0 L850.1,516.3 L850.4,498.1 L850.7,512.5 L852.0,529.4 L852.2,473.2 L852.6,543.6 L852.9,446.9 L853.2,426.6 L853.5,544.0 L853.8,544.0 L854.1,429.9 L854.4,447.5 L854.7,517.8 L855.0,480.4 L855.3,425.8 L855.6,544.0 L855.9,429.8 L856.2,544.0 L856.4,519.6 L856.7,431.6 L857.0,427.9 L857.3,481.1 L858.6,479.8 L858.9,514.7 L859.1,445.2 L859.5,544.0 L859.8,460.1 L860.1,544.0 L860.4,455.5 L860.7,444.1 L861.0,544.0 L861.3,457.7 L861.6,506.2 L861.9,544.0 L862.2,536.9 L862.5,544.0 L862.7,453.9 L863.0,544.0 L863.4,490.3 L863.6,544.0 L863.9,482.6 L865.2,470.8 L865.5,494.8 L865.8,442.5 L866.2,518.9 L866.5,440.4 L866.7,544.0 L867.0,544.0 L867.3,544.0 L867.6,437.8 L868.0,544.0 L868.3,468.3 L868.6,492.6 L868.9,544.0 L869.2,502.8 L869.4,544.0 L869.7,476.7 L870.0,451.3 L870.3,425.5 L870.6,544.0 L870.9,544.0 L872.0,544.0 L872.4,544.0 L872.7,428.7 L873.0,544.0 L873.3,544.0 L873.5,516.5 L873.8,544.0 L874.1,497.6 L874.4,544.0 L874.7,461.7 L875.0,544.0 L875.3,423.1 L875.6,544.0 L875.9,544.0 L876.2,544.0 L876.5,544.0 L876.7,544.0 L877.0,544.0 L877.3,544.0 L878.6,504.7 L878.9,544.0 L879.2,529.9 L879.5,487.8 L879.8,544.0 L880.1,453.4 L880.4,484.1 L880.7,517.3 L881.0,537.4 L881.3,544.0 L881.6,456.1 L882.0,544.0 L882.3,544.0 L882.6,517.3 L882.9,544.0 L883.2,544.0 L883.5,443.5 L883.8,544.0 L884.1,544.0 L885.3,462.1 L885.6,544.0 L885.9,544.0 L886.1,544.0 L886.4,544.0 L886.7,544.0 L887.0,503.9 L887.3,480.0 L887.5,544.0 L887.9,530.1 L888.2,538.3 L888.5,544.0 L888.8,436.7 L889.1,482.1 L889.3,526.7 L889.6,501.0 L889.9,524.7 L890.2,544.0 L890.5,481.1 L890.8,543.7 L892.0,531.2 L892.3,544.0 L892.6,544.0 L892.8,544.0 L893.2,544.0 L893.5,493.1 L893.7,470.6 L894.1,544.0 L894.3,544.0 L894.6,544.0 L894.9,544.0 L895.2,539.8 L895.5,534.8 L895.8,544.0 L896.1,450.4 L896.4,451.9 L896.7,544.0 L897.0,544.0 L897.3,544.0 L897.6,513.4 L898.7,544.0 L899.0,527.1 L899.2,544.0 L899.6,468.9 L899.9,493.0 L900.2,544.0 L900.5,544.0 L900.8,544.0 L901.1,447.1 L901.5,544.0 L901.8,544.0 L902.1,544.0 L902.4,526.4 L902.7,518.4 L903.0,472.0 L903.3,500.4 L903.6,430.8 L904.0,544.0 L904.2,544.0 L905.4,471.5 L905.7,544.0 L906.0,544.0 L906.3,463.7 L906.6,513.4 L906.8,544.0 L907.1,449.7 L907.4,544.0 L907.7,544.0 L908.0,536.1 L908.2,544.0 L908.6,482.9 L908.9,544.0 L909.2,544.0 L909.6,544.0 L909.9,544.0 L910.3,543.6 L910.5,544.0 L910.9,544.0 L912.1,422.3 L912.3,544.0 L912.6,449.7 L913.0,544.0 L913.3,544.0 L913.5,544.0 L913.9,544.0 L914.2,544.0 L914.5,544.0 L914.8,467.1 L915.1,544.0 L915.4,526.2 L915.7,544.0 L915.9,544.0 L916.2,523.5 L916.6,489.9 L916.9,544.0 L917.2,544.0 L917.5,544.0 L918.7,544.0 L919.0,544.0 L919.3,544.0 L919.6,544.0 L919.9,544.0 L920.2,544.0 L920.4,542.8 L920.7,544.0 L921.0,544.0 L921.3,425.9 L921.6,457.7 L921.8,544.0 L922.1,420.8 L922.4,544.0 L922.7,434.9 L923.0,544.0 L923.3,544.0 L923.5,462.7 L923.8,505.4 L924.1,470.5 L925.4,544.0 L925.8,518.8 L926.1,544.0 L926.4,475.6 L926.6,544.0 L926.9,544.0 L927.2,544.0 L927.5,544.0 L927.8,544.0 L928.1,514.5 L928.4,511.6 L928.7,544.0 L929.0,514.5 L929.3,544.0 L929.6,421.5 L929.9,461.9 L930.3,544.0 L930.6,544.0 L930.9,451.4 L932.2,544.0 L932.5,544.0 L932.8,544.0 L933.1,544.0 L933.4,544.0 L933.7,518.1 L934.0,462.1 L934.3,544.0 L934.6,544.0 L934.8,544.0 L935.1,506.4 L935.4,544.0 L935.7,544.0 L936.0,544.0 L936.3,544.0 L936.6,534.3 L936.9,544.0 L937.1,544.0 L937.4,522.1 L937.7,544.0 L938.9,470.2 L939.2,544.0 L939.5,544.0 L939.8,544.0 L940.1,544.0 L940.4,544.0 L940.7,544.0 L941.0,544.0 L941.3,544.0 L941.6,544.0 L941.9,544.0 L942.2,544.0 L942.5,544.0 L942.8,463.4 L943.1,500.2 L943.4,544.0 L943.7,469.3 L943.9,544.0 L944.2,544.0 L945.5,544.0 L945.8,423.8 L946.1,507.8 L946.4,544.0 L946.6,544.0 L947.0,544.0 L947.3,507.1 L947.6,544.0 L947.9,544.0 L948.2,511.4 L948.5,544.0 L948.8,469.7 L949.1,439.9 L949.5,544.0 L949.7,482.9 L950.1,544.0 L950.4,444.4 L950.6,466.4 L950.9,456.6 L952.2,544.0 L952.5,544.0 L952.9,495.3 L953.2,544.0 L953.5,544.0 L953.7,514.3 L954.0,544.0 L954.3,544.0 L954.6,544.0 L954.9,544.0 L955.2,544.0 L955.5,493.7 L955.8,544.0 L956.1,472.1 L956.4,544.0 L956.7,544.0 L957.0,544.0 L957.3,488.6 L957.6,544.0 L958.9,544.0 L959.2,544.0 L959.5,544.0 L959.9,544.0 L960.2,544.0 L960.5,544.0 L960.8,544.0 L961.1,544.0 L961.4,544.0 L961.7,437.1 L962.0,544.0 L962.3,476.3 L962.6,533.6 L962.9,544.0 L963.1,455.8 L963.5,544.0 L963.8,544.0 L964.0,449.2 L964.3,544.0 L965.6,544.0 L965.9,544.0 L966.2,499.2 L966.5,544.0 L966.7,544.0 L967.0,544.0 L967.3,544.0 L967.6,544.0 L967.9,544.0 L968.1,544.0 L968.5,544.0 L968.7,544.0 L969.0,544.0 L969.3,544.0 L969.6,544.0 L969.9,418.7 L970.2,426.8 L970.4,544.0 L970.7,544.0 L971.0,544.0 L972.3,518.8 L972.6,544.0 L972.9,544.0 L973.2,544.0 L973.5,544.0 L973.8,544.0 L974.1,544.0 L974.5,544.0 L974.8,467.4 L975.1,544.0 L975.4,544.0 L975.7,544.0 L976.0,544.0 L976.2,544.0 L976.5,528.1 L976.8,430.2 L977.2,544.0 L977.5,544.0 L977.8,540.2 L979.0,544.0 L979.4,544.0 L979.7,463.2 L979.9,544.0 L980.2,544.0 L980.6,544.0 L980.8,544.0 L981.1,544.0 L981.4,544.0 L981.7,544.0 L982.0,544.0 L982.3,443.8 L982.6,544.0 L982.9,544.0 L983.2,544.0 L983.5,544.0 L983.8,430.6 L984.1,544.0 L984.4,544.0 L985.8,544.0 L986.1,544.0 L986.3,544.0 L986.6,544.0 L987.0,544.0 L987.3,421.8 L987.5,527.8 L987.9,544.0 L988.2,463.5 L988.4,544.0 L988.8,544.0 L989.1,446.4 L989.3,443.4 L989.6,544.0 L989.9,505.9 L990.2,544.0 L990.5,544.0 L990.7,544.0 L991.0,544.0 L991.4,544.0 L992.5,544.0 L992.8,544.0 L993.2,544.0 L993.5,531.5 L993.8,544.0 L994.1,544.0 L994.4,544.0 L994.7,544.0 L995.0,544.0 L995.2,544.0 L995.5,544.0 L995.9,544.0 L996.2,544.0 L996.5,544.0 L996.8,544.0 L997.1,544.0 L997.4,544.0 L997.7,544.0 L997.9,544.0 L999.2,544.0 L999.6,544.0 L999.9,544.0 L1000.2,544.0 L1000.5,544.0 L1000.8,544.0 L1001.1,544.0 L1001.4,544.0 L1001.7,544.0 L1002.0,544.0 L1002.3,544.0 L1002.6,544.0 L1002.8,442.0 L1003.2,478.1 L1003.5,431.1 L1003.8,475.4 L1004.1,544.0 L1004.4,544.0 L1004.6,544.0 L1005.9,544.0 L1006.3,544.0 L1006.5,544.0 L1006.8,544.0 L1007.1,544.0 L1007.4,532.3 L1007.7,516.1 L1008.0,544.0 L1008.3,544.0 L1008.6,544.0 L1008.9,544.0 L1009.2,544.0 L1009.5,544.0 L1009.9,544.0 L1010.1,544.0 L1010.5,544.0 L1010.8,544.0 L1011.1,544.0 L1011.4,544.0 L1012.7,532.6 L1013.0,544.0 L1013.3,544.0 L1013.6,544.0 L1013.9,544.0 L1014.2,544.0 L1014.5,544.0 L1014.8,544.0 L1015.0,544.0 L1015.3,544.0 L1015.6,470.8 L1015.9,544.0 L1016.2,544.0 L1016.4,544.0 L1016.8,445.3 L1017.1,544.0 L1017.4,544.0 L1017.7,544.0 L1018.1,516.3 L1019.4,544.0 L1019.7,544.0 L1020.0,544.0 L1020.3,481.6 L1020.6,429.2 L1020.9,540.1 L1021.2,530.5 L1021.5,544.0 L1021.8,544.0 L1022.1,544.0 L1022.4,544.0 L1022.7,544.0 L1023.0,544.0 L1023.4,544.0 L1023.6,544.0 L1024.0,544.0 L1024.3,544.0 L1024.6,544.0 L1024.9,544.0 L1026.1,544.0 L1026.4,544.0 L1026.7,544.0 L1027.0,438.5 L1027.3,544.0 L1027.6,457.1 L1027.9,544.0 L1028.1,544.0 L1028.4,544.0 L1028.7,544.0 L1029.0,544.0 L1029.3,544.0 L1029.6,544.0 L1029.9,544.0 L1030.2,544.0 L1030.4,544.0 L1030.7,544.0 L1031.0,544.0 L1031.3,544.0 L1031.6,544.0 L1032.9,544.0 L1033.2,544.0 L1033.5,544.0 L1033.9,442.6 L1034.2,544.0 L1034.5,544.0 L1034.8,544.0 L1035.1,544.0 L1035.3,544.0 L1035.7,544.0 L1036.0,544.0 L1036.3,544.0 L1036.6,544.0 L1036.9,544.0 L1037.2,544.0 L1037.5,544.0 L1037.8,534.2 L1038.1,452.8 L1038.4,544.0 L1039.6,544.0 L1039.9,544.0 L1040.3,544.0 L1040.6,544.0 L1040.9,544.0 L1041.2,544.0 L1041.5,544.0 L1041.7,498.2 L1042.1,544.0 L1042.4,544.0 L1042.7,544.0 L1043.0,544.0 L1043.3,544.0 L1043.5,544.0 L1043.8,544.0 L1044.1,544.0 L1044.4,508.4 L1044.7,544.0 L1045.0,471.2 L1046.3,544.0 L1046.6,544.0 L1046.9,544.0 L1047.2,528.6 L1047.5,544.0 L1047.8,544.0 L1048.0,544.0 L1048.4,544.0 L1048.7,544.0 L1048.9,544.0 L1049.2,544.0 L1049.6,544.0 L1049.8,544.0 L1050.1,544.0 L1050.4,544.0 L1050.7,544.0 L1051.0,534.9 L1051.3,544.0 L1051.5,544.0 L1051.8,470.5 L1053.1,544.0 L1053.3,544.0 L1053.6,519.1 L1053.9,544.0 L1054.2,544.0 L1054.5,544.0 L1054.7,544.0 L1055.1,544.0 L1055.4,544.0 L1055.6,544.0 L1055.9,431.3 L1056.2,480.8 L1056.5,544.0 L1056.8,544.0 L1057.0,544.0 L1057.3,544.0 L1057.6,544.0 L1057.9,517.1 L1058.2,544.0 L1058.5,544.0 L1059.8,544.0 L1060.1,544.0 L1060.4,544.0 L1060.6,544.0 L1060.9,544.0 L1061.3,544.0 L1061.5,455.4 L1061.8,544.0 L1062.1,516.4 L1062.4,544.0 L1062.7,544.0 L1063.1,544.0 L1063.3,544.0 L1063.7,544.0 L1064.0,544.0 L1064.3,544.0 L1064.6,544.0 L1064.9,544.0 L1065.3,544.0 L1066.6,544.0 L1066.9,544.0 L1067.2,474.2 L1067.5,520.5 L1067.7,442.5 L1068.1,544.0 L1068.3,544.0 L1068.7,544.0 L1069.0,544.0 L1069.3,477.5 L1069.6,544.0 L1069.9,544.0 L1070.2,544.0 L1070.5,544.0 L1070.9,544.0 L1071.2,544.0 L1071.5,544.0 L1071.8,497.8 L1072.1,544.0 L1073.3,544.0 L1073.6,544.0 L1073.9,544.0 L1074.6,544.0 L1074.9,544.0 L1075.2,544.0 L1075.5,544.0 L1075.8,469.5 L1076.1,458.9 L1076.3,544.0 L1076.6,544.0 L1076.9,544.0 L1077.2,544.0 L1077.5,544.0 L1077.8,544.0 L1078.1,544.0 L1078.7,544.0 L1080.1,544.0 L1080.3,544.0 L1080.6,544.0 L1080.9,472.0 L1081.2,544.0 L1081.6,544.0 L1081.9,544.0 L1082.2,544.0 L1082.5,544.0 L1083.3,544.0 L1083.6,544.0 L1084.0,431.4" fill="none" stroke="#1f77b4" stroke-width="1.4" opacity="0.85"/><text x="1040" y="54" fill="#ff7f0e" font-size="11">roll 31</text><text x="1090" y="558" fill="#ff7f0e" font-size="11">-32</text><path d="M641.6,304.8 L641.9,299.6 L642.2,301.1 L642.5,311.5 L642.8,305.5 L643.2,310.7 L643.5,307.8 L643.8,310.7 L644.1,302.6 L644.4,310.7 L644.7,304.1 L645.0,308.5 L645.3,304.1 L645.5,310.0 L645.8,301.8 L646.1,306.3 L646.4,308.5 L646.7,312.2 L646.9,311.5 L647.2,311.5 L647.5,298.1 L647.8,305.5 L648.1,299.6 L648.4,302.6 L648.6,298.9 L648.9,310.0 L649.2,303.3 L649.5,298.9 L649.9,309.3 L650.2,299.6 L650.4,298.9 L650.7,307.8 L651.0,298.9 L651.3,298.9 L651.6,308.5 L651.9,298.1 L652.2,313.7 L652.5,298.1 L652.7,304.8 L653.0,310.7 L653.3,307.0 L653.6,312.2 L653.9,312.2 L654.2,315.2 L654.5,307.0 L654.8,315.9 L655.0,303.3 L655.3,304.1 L655.6,312.2 L655.9,305.5 L656.2,310.0 L656.5,298.9 L656.7,314.5 L657.0,300.3 L657.3,310.0 L657.6,311.5 L657.9,310.7 L658.1,300.3 L658.5,310.7 L658.8,298.9 L659.1,313.7 L659.4,316.7 L659.7,304.1 L659.9,317.4 L660.2,303.3 L660.5,306.3 L660.8,307.0 L661.1,303.3 L661.3,301.1 L661.6,310.0 L661.9,310.7 L662.2,305.5 L662.5,309.3 L662.8,301.8 L663.1,315.9 L663.4,315.9 L663.7,301.8 L663.9,307.0 L664.3,312.2 L664.6,298.1 L664.8,300.3 L665.1,308.5 L665.4,304.8 L665.7,315.9 L666.0,315.2 L666.2,301.8 L666.6,315.9 L666.9,307.8 L667.1,308.5 L667.4,298.9 L667.8,297.4 L668.0,313.0 L668.4,310.7 L668.7,316.7 L669.0,315.2 L669.3,301.8 L669.6,307.0 L669.9,311.5 L670.2,305.5 L670.5,301.1 L670.8,314.5 L671.1,307.0 L671.5,308.5 L671.7,301.8 L672.1,317.4 L672.4,304.8 L672.7,318.2 L673.0,312.2 L673.3,299.6 L673.6,307.8 L673.9,315.2 L674.2,312.2 L674.6,307.8 L674.8,297.4 L675.2,307.0 L675.5,300.3 L675.8,316.7 L676.1,302.6 L676.4,298.1 L676.7,313.0 L677.0,314.5 L677.3,315.2 L677.6,302.6 L678.0,298.9 L678.3,281.0 L678.6,244.6 L678.9,266.9 L679.2,225.3 L679.6,209.7 L679.9,209.7 L680.2,197.8 L680.5,181.5 L680.8,294.4 L681.1,282.5 L681.4,119.1 L681.6,181.5 L681.9,177.0 L682.2,178.5 L682.5,221.6 L682.8,226.1 L683.1,234.2 L683.3,209.0 L683.6,172.6 L683.9,228.3 L684.2,201.5 L684.5,180.7 L684.7,171.1 L685.0,232.7 L685.3,237.9 L685.6,213.4 L685.9,280.3 L686.3,266.9 L686.5,295.1 L686.9,292.2 L687.2,277.3 L687.4,215.7 L687.7,242.4 L688.0,269.9 L688.3,174.1 L688.6,212.7 L688.9,232.7 L689.2,287.0 L689.5,309.3 L689.8,306.3 L690.1,301.8 L690.4,328.6 L690.6,303.3 L691.0,399.9 L691.3,396.9 L691.6,361.3 L691.9,300.3 L692.2,364.2 L692.4,307.0 L692.8,329.3 L693.2,328.6 L693.5,324.9 L693.8,304.1 L694.1,393.2 L694.4,375.4 L694.7,512.1 L695.0,327.8 L695.3,460.1 L695.6,391.0 L695.9,471.9 L696.2,469.0 L696.5,390.2 L696.8,414.7 L697.2,469.7 L697.5,302.6 L697.8,315.9 L698.0,340.5 L698.3,530.6 L698.6,309.3 L699.1,333.8 L699.5,454.1 L699.8,342.7 L700.0,544.0 L700.3,313.0 L700.6,511.3 L700.9,307.8 L701.2,443.7 L701.6,481.6 L701.8,498.7 L702.2,402.9 L702.5,489.8 L702.7,389.5 L703.0,422.9 L703.4,392.5 L703.6,513.5 L704.0,409.5 L704.3,409.5 L704.6,460.1 L705.1,399.1 L705.3,405.8 L705.6,521.7 L705.9,512.8 L706.2,437.0 L706.5,534.3 L706.8,382.8 L707.1,330.8 L707.4,323.4 L707.7,312.2 L708.0,324.1 L708.3,379.8 L708.6,388.7 L708.9,396.2 L709.2,313.7 L709.5,300.3 L709.8,308.5 L710.1,283.3 L710.3,307.0 L710.6,261.0 L711.0,255.0 L711.2,287.0 L711.5,252.8 L711.8,264.7 L712.1,211.9 L712.5,126.5 L712.7,180.7 L713.1,187.4 L713.4,285.5 L713.7,149.5 L713.9,116.1 L714.2,223.1 L714.5,128.0 L714.8,85.7 L715.1,198.6 L715.3,102.7 L715.6,243.9 L715.9,151.8 L716.2,168.1 L716.5,133.9 L716.9,271.4 L717.1,234.2 L717.4,222.3 L717.7,188.9 L718.0,261.7 L718.3,192.6 L718.5,295.9 L718.8,244.6 L719.2,261.7 L719.4,256.5 L719.8,144.3 L720.1,189.7 L720.4,127.3 L720.7,137.7 L721.0,155.5 L721.2,246.9 L721.5,173.3 L721.8,241.7 L722.1,245.4 L722.4,270.6 L722.8,131.0 L723.0,151.0 L723.3,107.2 L723.6,141.4 L723.9,284.0 L724.2,226.8 L724.4,151.0 L724.7,276.6 L725.1,253.5 L725.3,79.0 L725.7,185.2 L726.0,223.8 L726.3,258.7 L726.6,192.6 L726.9,93.8 L727.1,167.4 L727.5,204.5 L727.8,98.3 L728.1,186.7 L728.7,172.6 L729.0,261.7 L729.2,264.7 L729.6,115.4 L729.8,206.0 L730.1,193.4 L730.4,301.1 L730.7,115.4 L731.0,136.9 L731.4,137.7 L731.6,191.1 L731.9,183.7 L732.2,192.6 L732.5,128.7 L732.8,212.7 L733.1,99.0 L733.3,141.4 L733.6,127.3 L733.9,204.5 L734.2,174.8 L734.6,265.4 L734.9,166.6 L735.2,262.5 L735.5,224.6 L735.8,193.4 L736.0,298.9 L736.3,201.5 L736.6,235.0 L736.9,141.4 L737.2,300.3 L737.4,169.6 L737.7,231.3 L738.0,273.6 L738.3,166.6 L738.6,197.1 L738.9,139.1 L739.2,218.6 L739.5,252.1 L739.7,283.3 L740.0,307.0 L740.5,206.0 L740.8,131.7 L741.0,249.1 L741.3,295.9 L741.6,242.4 L741.9,116.9 L742.2,194.9 L742.5,86.4 L742.8,260.2 L743.1,273.6 L743.3,129.5 L743.6,165.1 L743.9,180.0 L744.2,121.3 L744.5,243.1 L744.8,259.5 L745.0,142.9 L745.3,258.0 L745.6,246.1 L745.9,174.1 L746.4,291.4 L746.7,301.1 L746.9,277.3 L747.2,197.8 L747.5,167.4 L747.7,243.9 L748.0,106.5 L748.3,142.1 L748.6,169.6 L748.9,159.2 L749.1,148.1 L749.5,112.4 L749.8,252.1 L750.1,261.7 L750.4,150.3 L750.7,194.9 L751.0,299.6 L751.3,279.5 L751.6,132.5 L751.9,255.0 L752.6,107.2 L752.9,263.2 L753.2,133.9 L753.5,216.4 L753.7,178.5 L754.0,243.9 L754.3,186.7 L754.6,76.0 L754.9,116.1 L755.2,248.3 L755.5,226.8 L755.8,83.4 L756.1,104.2 L756.3,211.9 L756.6,185.2 L756.9,287.0 L757.2,270.6 L757.5,180.0 L757.8,240.2 L758.1,234.2 L758.7,258.7 L759.0,289.2 L759.3,170.3 L759.6,208.2 L759.9,187.4 L760.2,273.6 L760.4,305.5 L760.8,243.1 L761.1,240.2 L761.4,251.3 L761.7,99.0 L762.0,293.7 L762.3,159.2 L762.6,295.1 L762.9,252.1 L763.2,295.9 L763.5,218.6 L763.8,241.7 L764.1,253.5 L764.9,237.9 L765.2,192.6 L765.5,174.8 L765.8,285.5 L766.1,278.1 L766.3,168.9 L766.6,216.4 L767.0,232.7 L767.2,298.1 L767.6,275.8 L767.9,226.8 L768.2,168.1 L768.5,278.1 L768.8,220.1 L769.0,310.7 L769.4,281.0 L769.7,298.9 L770.0,249.1 L770.3,218.6 L771.1,180.7 L771.4,159.2 L771.7,246.1 L772.0,247.6 L772.2,215.7 L772.6,238.7 L772.9,277.3 L773.2,269.9 L773.5,209.7 L773.8,207.5 L774.1,186.7 L774.4,206.0 L774.7,295.9 L775.1,255.8 L775.3,232.0 L775.7,232.7 L776.0,235.7 L776.3,261.7 L776.6,228.3 L777.2,263.9 L777.5,301.1 L777.8,282.5 L778.1,288.5 L778.4,311.5 L778.7,310.0 L778.9,291.4 L779.3,308.5 L779.6,312.2 L779.8,295.9 L780.1,271.4 L780.4,241.7 L780.7,249.1 L781.0,246.9 L781.3,244.6 L781.5,243.1 L781.8,224.6 L782.1,240.2 L782.4,292.9 L782.7,247.6 L783.4,209.0 L783.7,183.0 L784.0,249.1 L784.3,201.5 L784.6,232.0 L784.8,242.4 L785.1,263.9 L785.4,275.1 L785.7,312.2 L786.0,140.6 L786.3,191.9 L786.6,180.0 L786.9,188.9 L787.2,234.2 L787.4,299.6 L787.7,261.7 L788.0,213.4 L788.3,239.4 L788.6,227.5 L788.9,236.5 L789.7,147.3 L790.0,310.7 L790.3,302.6 L790.6,226.8 L790.9,216.4 L791.2,205.3 L791.5,305.5 L791.8,235.7 L792.1,200.8 L792.3,269.1 L792.6,260.2 L792.9,261.0 L793.2,258.0 L793.5,239.4 L793.8,256.5 L794.1,286.2 L794.4,304.1 L794.6,271.4 L794.9,252.1 L795.2,287.0 L795.8,230.5 L796.1,309.3 L796.4,260.2 L796.7,287.0 L796.9,278.1 L797.2,310.0 L797.5,208.2 L797.8,250.6 L798.1,221.6 L798.5,248.3 L798.7,211.9 L799.1,234.2 L799.4,195.6 L799.7,209.0 L800.0,247.6 L800.4,275.8 L800.7,307.0 L801.0,295.1 L801.3,297.4 L802.0,277.3 L802.3,240.9 L802.6,264.7 L802.9,252.1 L803.2,264.7 L803.5,291.4 L803.7,296.6 L804.0,261.0 L804.3,286.2 L804.6,284.0 L804.9,291.4 L805.2,272.1 L805.4,269.9 L805.7,291.4 L806.0,298.9 L806.3,310.7 L806.7,308.5 L807.0,285.5 L807.3,316.7 L807.6,296.6 L808.2,297.4 L808.5,300.3 L808.8,301.8 L809.1,295.9 L809.4,289.9 L809.7,283.3 L810.0,310.7 L810.3,316.7 L810.6,279.5 L810.8,303.3 L811.2,327.1 L811.5,334.5 L811.8,353.1 L812.1,301.8 L812.4,317.4 L812.7,313.0 L813.0,300.3 L813.2,313.7 L813.5,326.3 L814.4,302.6 L814.7,288.5 L814.9,329.3 L815.2,302.6 L815.5,291.4 L815.8,289.9 L816.1,322.6 L816.3,299.6 L816.6,349.4 L816.9,338.2 L817.2,304.1 L817.5,298.9 L817.8,309.3 L818.1,237.9 L818.4,307.0 L818.7,304.8 L819.0,281.0 L819.3,269.1 L819.6,306.3 L819.8,280.3 L820.6,307.0 L820.8,307.8 L821.1,300.3 L821.5,305.5 L821.7,315.9 L822.0,338.2 L822.3,301.8 L822.6,318.9 L822.9,300.3 L823.2,339.0 L823.4,321.9 L823.7,320.4 L824.0,294.4 L824.3,308.5 L824.6,306.3 L824.9,253.5 L825.2,303.3 L825.4,302.6 L825.8,339.7 L826.1,321.1 L826.8,310.7 L827.0,304.8 L827.3,294.4 L827.6,261.7 L827.9,292.9 L828.3,258.0 L828.5,293.7 L828.9,264.7 L829.2,304.8 L829.5,305.5 L829.7,298.1 L830.1,307.0 L830.3,301.1 L830.6,297.4 L830.9,308.5 L831.2,310.0 L831.5,307.0 L831.8,331.5 L832.1,314.5 L832.9,333.0 L833.2,327.1 L833.5,309.3 L833.8,310.7 L834.1,306.3 L834.4,319.7 L834.7,313.0 L835.0,308.5 L835.2,307.0 L835.6,242.4 L835.9,255.0 L836.1,284.0 L836.4,269.9 L836.7,292.9 L837.0,307.0 L837.4,266.9 L837.7,285.5 L838.0,211.9 L838.3,264.7 L839.1,252.1 L839.5,301.8 L839.7,325.6 L840.0,310.7 L840.3,307.0 L840.6,306.3 L840.9,335.3 L841.1,334.5 L841.4,304.8 L841.7,295.1 L842.0,310.7 L842.3,315.9 L842.6,353.1 L842.9,321.9 L843.2,309.3 L843.4,284.0 L843.8,302.6 L844.1,298.9 L844.3,289.9 L844.6,311.5 L845.3,237.9 L845.6,285.5 L845.9,295.9 L846.2,287.0 L846.5,275.8 L846.8,232.7 L847.1,308.5 L847.4,255.8 L847.7,249.1 L848.0,279.5 L848.3,309.3 L848.6,221.6 L848.9,301.1 L849.2,295.9 L849.5,312.2 L849.8,305.5 L850.1,310.0 L850.4,299.6 L850.7,258.7 L852.0,231.3 L852.2,264.7 L852.6,250.6 L852.9,262.5 L853.2,297.4 L853.5,310.7 L853.8,298.9 L854.1,290.7 L854.4,311.5 L854.7,275.8 L855.0,287.0 L855.3,295.1 L855.6,272.1 L855.9,272.1 L856.2,289.2 L856.4,271.4 L856.7,194.9 L857.0,301.8 L857.3,241.7 L858.6,172.6 L858.9,284.0 L859.1,197.1 L859.5,297.4 L859.8,275.8 L860.1,286.2 L860.4,274.3 L860.7,295.1 L861.0,310.7 L861.3,198.6 L861.6,310.7 L861.9,277.3 L862.2,307.0 L862.5,261.7 L862.7,261.7 L863.0,289.2 L863.4,312.2 L863.6,327.8 L863.9,330.8 L865.2,223.1 L865.5,295.1 L865.8,301.1 L866.2,310.7 L866.5,279.5 L866.7,304.1 L867.0,300.3 L867.3,298.1 L867.6,251.3 L868.0,243.9 L868.2,216.4 L868.6,169.6 L868.9,209.0 L869.2,293.7 L869.4,307.0 L869.7,243.9 L870.0,268.4 L870.3,299.6 L870.6,245.4 L870.9,262.5 L872.0,390.2 L872.3,333.0 L872.7,307.0 L873.0,298.9 L873.3,311.5 L873.5,293.7 L873.8,304.8 L874.1,305.5 L874.4,322.6 L874.7,330.8 L875.0,324.1 L875.3,307.8 L875.6,260.2 L875.9,265.4 L876.2,266.9 L876.5,304.1 L876.7,264.7 L877.0,232.0 L877.3,302.6 L878.6,358.3 L878.9,377.6 L879.2,395.4 L879.5,378.3 L879.8,388.0 L880.1,318.9 L880.4,341.2 L880.7,369.4 L881.0,374.6 L881.3,374.6 L881.6,315.2 L882.0,373.1 L882.3,417.0 L882.6,410.3 L882.9,347.1 L883.2,302.6 L883.5,350.9 L883.8,322.6 L884.1,306.3 L885.3,269.1 L885.6,245.4 L885.9,230.5 L886.1,258.0 L886.4,242.4 L886.7,199.3 L887.0,222.3 L887.3,298.1 L887.5,243.9 L887.9,192.6 L888.2,208.2 L888.5,305.5 L888.8,282.5 L889.1,287.7 L889.3,229.8 L889.6,263.2 L889.9,281.0 L890.2,301.8 L890.5,298.9 L890.8,275.8 L892.0,302.6 L892.3,183.0 L892.5,191.9 L892.8,228.3 L893.2,246.1 L893.4,262.5 L893.7,233.5 L894.1,235.7 L894.3,168.9 L894.6,175.5 L894.9,278.1 L895.2,287.0 L895.5,267.7 L895.8,251.3 L896.1,271.4 L896.4,288.5 L896.7,303.3 L897.0,289.9 L897.3,227.5 L898.7,244.6 L899.0,219.4 L899.2,255.0 L899.6,220.9 L899.9,240.9 L900.2,208.2 L900.5,297.4 L900.8,285.5 L901.1,229.8 L901.5,205.3 L901.8,262.5 L902.1,287.7 L902.4,168.9 L902.7,179.3 L903.0,240.9 L903.3,272.9 L903.6,179.3 L904.0,272.9 L904.2,200.8 L905.4,219.4 L905.7,218.6 L906.0,306.3 L906.3,310.7 L906.5,226.1 L906.8,292.2 L907.1,299.6 L907.4,266.2 L907.7,300.3 L908.0,311.5 L908.2,296.6 L908.6,278.1 L908.9,303.3 L909.2,310.0 L909.6,257.3 L909.9,271.4 L910.3,309.3 L910.5,299.6 L910.9,304.1 L912.1,347.1 L912.3,350.1 L912.6,362.7 L913.0,389.5 L913.2,320.4 L913.5,350.9 L913.9,321.9 L914.2,340.5 L914.5,331.5 L914.8,314.5 L915.1,298.1 L915.4,361.3 L915.7,360.5 L915.9,304.8 L916.2,367.9 L916.6,386.5 L916.9,347.1 L917.2,341.2 L917.5,369.4 L918.7,267.7 L919.0,277.3 L919.3,271.4 L919.6,284.0 L919.9,276.6 L920.2,287.0 L920.4,306.3 L920.7,310.0 L921.0,311.5 L921.3,300.3 L921.6,305.5 L921.8,289.9 L922.1,307.0 L922.4,298.1 L922.7,304.8 L923.0,301.8 L923.3,308.5 L923.5,252.1 L923.8,263.2 L924.1,268.4 L925.4,323.4 L925.8,301.1 L926.1,370.2 L926.3,330.1 L926.6,376.1 L926.9,307.0 L927.2,298.1 L927.5,298.1 L927.8,337.5 L928.1,301.8 L928.4,310.0 L928.7,303.3 L929.0,316.7 L929.3,353.1 L929.6,330.1 L929.9,307.8 L930.3,293.7 L930.6,249.8 L930.9,240.9 L932.2,229.8 L932.5,216.4 L932.8,203.0 L933.1,261.7 L933.4,242.4 L933.7,297.4 L934.0,261.7 L934.3,218.6 L934.6,267.7 L934.8,289.9 L935.1,296.6 L935.4,299.6 L935.7,353.1 L936.0,361.3 L936.3,358.3 L936.6,421.4 L936.9,410.3 L937.1,332.3 L937.4,317.4 L937.7,397.7 L938.8,240.2 L939.2,281.0 L939.5,307.0 L939.8,304.8 L940.1,300.3 L940.4,327.1 L940.7,275.8 L941.0,307.0 L941.3,300.3 L941.6,263.2 L941.9,278.1 L942.2,285.5 L942.5,290.7 L942.8,268.4 L943.1,261.0 L943.4,292.2 L943.7,258.7 L943.9,263.9 L944.2,310.0 L945.5,281.0 L945.8,209.0 L946.1,183.0 L946.4,261.0 L946.6,284.7 L947.0,287.0 L947.3,106.5 L947.6,277.3 L947.9,281.0 L948.2,279.5 L948.5,306.3 L948.8,307.8 L949.1,295.9 L949.5,235.7 L949.7,309.3 L950.1,269.9 L950.4,236.5 L950.6,236.5 L950.9,232.0 L952.2,237.2 L952.5,209.0 L952.9,156.2 L953.2,284.7 L953.5,213.4 L953.7,295.9 L954.0,245.4 L954.3,203.8 L954.6,180.7 L954.9,272.1 L955.2,288.5 L955.5,177.0 L955.8,233.5 L956.1,304.8 L956.4,243.9 L956.7,255.0 L957.0,312.2 L957.3,291.4 L957.6,214.9 L958.9,301.1 L959.2,261.0 L959.5,225.3 L959.9,277.3 L960.2,287.0 L960.5,311.5 L960.8,298.9 L961.1,310.7 L961.4,304.8 L961.7,308.5 L962.0,306.3 L962.3,324.9 L962.6,301.8 L962.8,298.9 L963.1,303.3 L963.5,297.4 L963.7,270.6 L964.0,294.4 L964.3,302.6 L965.6,329.3 L965.9,316.7 L966.2,333.8 L966.4,368.7 L966.7,330.1 L967.0,363.5 L967.3,367.9 L967.6,327.8 L967.9,347.1 L968.1,301.1 L968.5,300.3 L968.7,257.3 L969.0,295.1 L969.3,304.8 L969.6,313.0 L969.9,318.2 L970.2,318.2 L970.4,317.4 L970.7,330.8 L971.0,367.2 L972.3,332.3 L972.6,397.7 L972.9,309.3 L973.2,365.0 L973.5,392.5 L973.8,356.8 L974.1,314.5 L974.5,327.8 L974.8,402.9 L975.1,336.7 L975.4,305.5 L975.7,313.7 L976.0,313.0 L976.2,318.9 L976.5,319.7 L976.8,315.9 L977.2,295.1 L977.5,295.1 L977.8,292.2 L979.0,380.6 L979.4,308.5 L979.7,304.1 L979.9,382.1 L980.2,337.5 L980.6,384.3 L980.8,360.5 L981.1,310.0 L981.4,300.3 L981.7,311.5 L982.0,319.7 L982.3,307.8 L982.6,314.5 L982.9,318.9 L983.2,299.6 L983.5,310.7 L983.8,286.2 L984.1,261.7 L984.4,308.5 L985.8,315.2 L986.1,341.2 L986.3,338.2 L986.6,342.7 L987.0,323.4 L987.3,311.5 L987.5,323.4 L987.9,323.4 L988.2,298.9 L988.4,302.6 L988.8,300.3 L989.1,336.7 L989.3,309.3 L989.6,289.2 L989.9,310.7 L990.2,311.5 L990.5,272.1 L990.7,288.5 L991.0,283.3 L991.4,275.1 L992.5,363.5 L992.8,323.4 L993.2,342.7 L993.5,366.5 L993.8,327.1 L994.1,353.8 L994.4,309.3 L994.7,301.8 L995.0,307.0 L995.2,298.9 L995.5,298.9 L995.8,240.2 L996.2,235.0 L996.5,255.8 L996.8,239.4 L997.1,264.7 L997.4,298.1 L997.7,267.7 L997.9,311.5 L999.2,237.9 L999.6,250.6 L999.9,269.1 L1000.2,321.1 L1000.5,317.4 L1000.8,303.3 L1001.1,334.5 L1001.4,398.4 L1001.7,381.3 L1002.0,425.9 L1002.3,383.5 L1002.6,353.1 L1002.8,407.3 L1003.2,402.9 L1003.5,301.1 L1003.8,323.4 L1004.1,307.8 L1004.4,307.0 L1004.6,277.3 L1005.9,261.0 L1006.3,239.4 L1006.5,265.4 L1006.8,289.2 L1007.1,185.2 L1007.4,267.7 L1007.7,270.6 L1008.0,301.1 L1008.3,145.1 L1008.6,263.2 L1008.9,277.3 L1009.2,253.5 L1009.5,243.1 L1009.9,307.8 L1010.1,303.3 L1010.5,289.9 L1010.8,309.3 L1011.1,310.7 L1011.4,276.6 L1012.7,345.7 L1013.0,299.6 L1013.3,310.0 L1013.6,353.8 L1013.9,398.4 L1014.2,388.0 L1014.5,367.9 L1014.8,312.2 L1015.0,301.8 L1015.3,268.4 L1015.6,303.3 L1015.9,317.4 L1016.2,325.6 L1016.4,304.8 L1016.8,366.5 L1017.1,306.3 L1017.4,338.2 L1017.7,316.7 L1018.1,285.5 L1019.4,276.6 L1019.7,252.8 L1020.0,263.2 L1020.3,270.6 L1020.6,292.2 L1020.9,269.9 L1021.2,311.5 L1021.5,272.1 L1021.8,274.3 L1022.1,232.7 L1022.4,278.1 L1022.7,304.8 L1023.0,289.2 L1023.4,309.3 L1023.6,294.4 L1024.0,297.4 L1024.3,272.1 L1024.6,257.3 L1024.9,237.2 L1026.1,321.9 L1026.4,308.5 L1026.7,315.2 L1027.0,354.6 L1027.3,301.1 L1027.6,333.8 L1027.9,336.7 L1028.1,353.1 L1028.4,292.2 L1028.7,289.9 L1029.0,347.9 L1029.3,317.4 L1029.6,300.3 L1029.9,291.4 L1030.2,297.4 L1030.4,314.5 L1030.7,305.5 L1031.0,298.1 L1031.3,347.1 L1031.6,363.5 L1032.9,378.3 L1033.2,397.7 L1033.5,405.8 L1033.9,382.8 L1034.2,350.1 L1034.5,367.9 L1034.8,298.1 L1035.1,313.0 L1035.3,339.7 L1035.7,341.2 L1035.9,338.2 L1036.3,345.7 L1036.6,335.3 L1036.9,326.3 L1037.2,305.5 L1037.5,306.3 L1037.8,318.9 L1038.1,307.8 L1038.4,299.6 L1039.6,194.9 L1039.9,133.9 L1040.3,162.2 L1040.6,190.4 L1040.9,284.0 L1041.2,259.5 L1041.5,303.3 L1041.7,306.3 L1042.1,300.3 L1042.4,256.5 L1042.7,210.5 L1043.0,259.5 L1043.3,277.3 L1043.5,271.4 L1043.8,304.8 L1044.1,298.1 L1044.4,322.6 L1044.7,308.5 L1045.0,314.5 L1046.3,363.5 L1046.6,424.4 L1046.9,343.4 L1047.2,407.3 L1047.5,318.2 L1047.8,343.4 L1048.0,324.9 L1048.4,330.1 L1048.7,396.2 L1048.9,356.8 L1049.2,316.7 L1049.6,332.3 L1049.8,323.4 L1050.1,301.8 L1050.4,319.7 L1050.7,299.6 L1051.0,337.5 L1051.3,302.6 L1051.5,310.7 L1051.8,301.8 L1053.1,402.9 L1053.3,332.3 L1053.6,356.1 L1053.9,375.4 L1054.2,306.3 L1054.5,327.1 L1054.7,407.3 L1055.1,347.9 L1055.4,299.6 L1055.6,321.9 L1055.9,318.2 L1056.2,311.5 L1056.5,341.2 L1056.8,330.8 L1057.0,314.5 L1057.3,306.3 L1057.6,323.4 L1057.9,315.9 L1058.2,335.3 L1058.4,313.0 L1059.8,278.1 L1060.1,289.9 L1060.4,258.0 L1060.6,310.7 L1060.9,301.1 L1061.3,310.0 L1061.5,310.0 L1061.8,310.7 L1062.1,301.8 L1062.4,325.6 L1062.7,309.3 L1063.1,303.3 L1063.3,354.6 L1063.7,343.4 L1064.0,317.4 L1064.3,310.7 L1064.6,312.2 L1064.9,280.3 L1065.2,300.3 L1066.6,406.6 L1066.9,331.5 L1067.2,350.9 L1067.5,315.2 L1067.7,327.8 L1068.1,307.0 L1068.3,291.4 L1068.7,284.7 L1069.0,273.6 L1069.3,279.5 L1069.6,267.7 L1069.9,281.8 L1070.2,261.7 L1070.5,276.6 L1070.9,283.3 L1071.2,289.2 L1071.5,269.9 L1071.8,302.6 L1072.1,310.0 L1073.3,302.6 L1073.6,332.3 L1073.9,375.4 L1074.6,408.1 L1074.9,301.8 L1075.2,353.8 L1075.5,341.2 L1075.8,314.5 L1076.1,385.0 L1076.3,335.3 L1076.6,308.5 L1076.9,315.9 L1077.2,363.5 L1077.5,341.9 L1077.8,362.0 L1078.1,353.1 L1078.7,327.8 L1080.1,266.9 L1080.3,307.8 L1080.6,258.0 L1080.9,245.4 L1081.2,268.4 L1081.6,230.5 L1081.8,291.4 L1082.2,306.3 L1082.5,258.7 L1083.3,306.3 L1083.6,326.3 L1084.0,298.9" fill="none" stroke="#ff7f0e" stroke-width="1.1" opacity="0.85"/><text x="616" y="572" font-size="11" fill="#888">time 0..83 s — altitude (blue) &amp; roll (orange)</text></svg>