<svg xmlns="http://www.w3.org/2000/svg" width="1140" height="600" font-family="sans-serif" font-size="13"><rect width="1140" height="600" fill="white"/><text x="20" y="26" font-size="15" fill="#333">Coludo flight</text><rect x="20" y="40" width="540" height="540" fill="#fbfbfb" stroke="#ddd"/><rect x="50" y="304" width="99" height="21" fill="#cde" stroke="#369" opacity="0.7"/><text x="50" y="299" fill="#369" font-size="12">landing zone</text><circle cx="112" cy="337" r="5" fill="black"/><text x="120" y="341" font-size="12">pad</text><path d="M112.6,336.6 L112.6,336.6 L112.6,336.6 L112.6,336.6 L112.6,336.6 L112.6,336.6 L112.6,336.6 L112.6,336.6 L112.6,336.6 L112.6,336.6 L112.6,336.6 L112.6,336.6 L112.6,336.6 L112.6,336.6 L112.6,336.6 L112.6,336.6 L112.6,336.6 L112.6,336.6 L112.6,336.6 L112.6,336.6 L112.6,336.6 L112.6,336.6 L112.6,336.6 L112.6,336.6 L112.6,336.6 L112.6,336.6 L112.6,336.6 L112.6,336.6 L112.6,336.6 L112.6,336.6 L112.6,336.6 L112.6,336.6 L112.6,336.6 L112.6,336.6 L112.6,336.6 L112.6,336.6 L112.6,336.6 L112.6,336.6 L112.6,336.6 L112.6,336.6 L112.6,336.6 L112.6,336.6 L112.6,336.6 L112.6,336.6 L112.6,336.6 L112.6,336.6 L112.6,336.6 L112.6,336.6 L112.6,336.6 L112.6,336.6 L112.6,336.6 L112.6,336.6 L112.6,336.6 L112.9,336.1 L113.1,335.1 L113.7,334.4 L114.6,333.7 L114.7,333.0 L115.3,332.3 L115.8,331.5 L116.3,330.9 L116.8,330.3 L117.4,329.7 L118.0,329.0 L118.4,328.5 L119.0,328.1 L119.7,327.5 L120.0,326.9 L121.1,326.3 L121.6,325.7 L122.1,325.3 L122.7,324.8 L123.2,324.3 L124.3,324.0 L124.8,323.4 L125.3,322.9 L126.4,322.3 L126.5,321.9 L127.4,321.3 L128.0,320.8 L128.5,320.2 L129.0,319.7 L129.6,319.2 L130.1,318.6 L130.6,318.0 L131.7,317.2 L132.0,316.7 L132.2,315.9 L132.7,315.2 L133.3,314.5 L133.7,313.9 L133.8,313.2 L134.3,312.5 L134.9,311.9 L135.0,311.1 L135.4,310.1 L135.9,309.4 L135.9,308.7 L136.4,307.9 L136.7,307.1 L136.7,306.2 L137.0,305.2 L137.0,304.5 L137.5,303.8 L137.5,302.8 L137.5,302.0 L138.0,301.1 L138.0,300.4 L138.0,299.6 L138.4,298.6 L138.4,297.7 L138.6,297.0 L138.6,296.0 L139.1,295.3 L139.1,294.6 L139.6,293.9 L140.2,293.0 L140.3,292.0 L140.3,291.3 L140.7,290.6 L141.2,289.9 L141.7,289.2 L142.2,288.3 L142.3,287.8 L142.8,287.0 L143.4,286.4 L143.9,285.3 L144.9,284.8 L145.1,284.2 L145.4,283.5 L146.5,282.9 L147.0,282.3 L147.6,281.7 L148.1,281.1 L148.7,280.5 L149.7,279.9 L150.2,279.5 L150.7,279.1 L151.8,278.5 L151.9,278.2 L153.4,277.7 L153.6,277.2 L154.5,276.9 L155.5,276.5 L156.6,276.1 L157.2,275.7 L158.2,275.5 L158.7,275.3 L159.2,275.0 L160.3,274.8 L160.8,274.5 L161.9,274.4 L162.9,274.2 L164.0,274.0 L164.5,273.8 L165.6,273.8 L166.6,273.7 L167.2,273.7 L168.2,273.7 L168.8,273.7 L169.8,273.7 L170.9,273.7 L171.9,274.0 L172.9,274.1 L173.5,274.2 L174.4,274.3 L175.1,274.5 L176.1,274.8 L177.2,275.0 L177.8,275.4 L178.8,275.6 L179.2,276.0 L180.4,276.3 L181.4,276.7 L182.0,277.0 L182.5,277.4 L183.1,277.8 L184.1,278.2 L184.6,278.7 L185.2,279.0 L186.2,280.1 L187.3,280.5 L187.9,281.0 L188.4,281.7 L189.4,282.4 L189.9,282.9 L190.5,283.6 L191.1,284.4 L191.5,285.1 L192.6,285.7 L193.2,286.5 L193.1,287.3 L193.7,288.0 L194.7,288.9 L194.7,289.6 L195.2,290.3 L195.8,291.0 L195.8,291.7 L196.4,292.7 L196.4,293.4 L196.8,294.2 L196.8,294.9 L197.4,295.6 L197.9,296.4 L197.9,297.3 L198.1,298.3 L198.1,299.0 L198.4,299.8 L198.4,300.6 L198.4,301.4 L198.4,302.3 L198.9,303.2 L198.9,304.0 L198.9,305.0 L198.9,305.9 L198.9,306.8 L199.5,307.7 L199.5,308.7 L199.5,309.5 L199.5,310.5 L199.5,311.2 L199.6,312.0 L199.6,312.8 L199.6,313.9 L199.6,314.7 L200.0,315.5 L200.0,316.7 L200.0,317.4 L200.0,318.3 L200.5,319.2 L200.5,320.0 L200.5,320.7 L200.5,321.6 L201.1,322.6 L201.1,323.4 L201.1,324.7 L201.3,325.5 L201.3,326.3 L201.3,327.1 L201.6,328.2 L202.1,328.9 L202.1,329.8 L202.7,330.5 L203.2,331.5 L203.6,332.4 L203.6,333.4 L204.2,334.2 L204.8,334.9 L204.9,335.6 L205.3,336.3 L205.8,337.1 L206.6,337.9 L206.9,338.4 L208.0,339.2 L208.3,339.8 L209.0,340.5 L209.5,340.9 L210.4,341.5 L211.1,342.0 L212.1,342.6 L212.2,343.0 L213.2,343.3 L214.3,343.9 L215.3,344.3 L215.4,344.6 L216.4,345.0 L217.5,345.2 L218.0,345.5 L218.9,345.7 L220.1,345.8 L220.7,346.0 L221.6,346.2 L222.8,346.3 L223.7,346.3 L224.4,346.3 L225.4,346.3 L226.0,346.2 L227.0,346.2 L227.6,346.0 L228.6,345.9 L229.1,345.8 L230.2,345.7 L230.7,345.5 L231.8,345.1 L232.3,344.9 L233.4,344.5 L234.1,344.2 L235.0,343.7 L235.8,343.5 L236.6,343.1 L237.5,342.5 L238.1,342.0 L238.8,341.7 L239.7,341.1 L240.8,340.8 L240.9,340.4 L241.9,339.8 L242.6,339.2 L242.9,338.8 L244.3,338.1 L245.0,337.5 L245.6,337.0 L246.1,336.4 L246.6,336.1 L247.7,335.6 L248.2,335.0 L248.7,334.5 L249.3,334.1 L249.8,333.6 L250.9,332.9 L251.4,332.2 L251.9,331.7 L252.8,331.1 L253.0,330.5 L254.0,330.0 L254.6,329.1 L255.1,328.7 L256.2,328.0 L257.2,326.8 L257.7,326.3 L258.3,325.7 L258.8,325.1 L259.3,324.6 L259.9,324.0 L260.4,323.5 L260.9,322.9 L261.2,322.4 L262.0,321.7 L263.0,320.7 L263.6,320.0 L264.6,319.3 L264.6,318.8 L265.7,318.2 L266.2,317.6 L266.7,317.0 L267.3,316.6 L268.0,316.0 L269.7,314.8 L270.5,314.3 L271.4,313.9 L271.5,313.5 L272.6,313.1 L273.5,312.6 L274.2,312.3 L274.8,312.0 L275.8,311.8 L277.3,311.2 L278.2,310.9 L279.5,310.7 L280.0,310.6 L281.0,310.5 L282.0,310.4 L282.6,310.2 L283.3,310.2 L284.2,310.2 L286.3,310.2 L286.9,310.4 L287.9,310.4 L289.0,310.5 L289.5,310.5 L290.5,310.6 L291.6,310.7 L292.2,310.8 L293.2,310.9 L294.8,311.3 L295.9,311.5 L296.9,311.6 L297.5,311.9 L298.5,312.0 L299.1,312.1 L300.1,312.2 L300.6,312.3 L301.7,312.6 L303.8,312.9 L304.4,313.1 L305.4,313.2 L305.9,313.4 L306.5,313.5 L307.5,313.6 L308.1,313.8 L308.7,313.9 L309.7,314.1 L310.4,314.2 L312.3,314.3 L312.8,314.5 L313.9,314.6 L314.4,314.7 L315.5,314.7 L316.0,314.8 L317.2,314.9 L318.1,314.9 L319.2,315.0 L321.2,315.0 L321.8,315.0 L322.7,315.0 L323.4,315.0 L324.4,315.0 L325.0,315.0 L326.1,314.9 L326.6,314.9 L327.7,314.9 L329.8,314.8 L330.3,314.7 L331.4,314.7 L332.4,314.6 L333.0,314.6 L334.0,314.6 L334.5,314.5 L335.6,314.5 L336.2,314.3 L338.3,314.3 L339.3,314.3 L339.8,314.2 L340.9,314.1 L341.4,314.1 L342.5,314.1 L343.0,314.0 L344.1,314.0 L344.7,313.9 L347.3,313.8 L347.9,313.8 L348.8,313.8 L349.6,313.8 L350.4,313.6 L351.9,313.6 L352.6,313.6 L353.2,313.6 L353.6,313.6 L355.7,313.5 L356.8,313.5 L357.9,313.5 L358.7,313.5 L359.4,313.5 L360.4,313.5 L361.0,313.5 L361.6,313.4 L362.1,313.4 L363.1,313.4 L364.7,313.4 L365.3,313.4 L366.3,313.4 L367.2,313.4 L367.9,313.3 L369.0,313.3 L370.0,313.3 L370.6,313.3 L371.1,313.3 L373.7,313.2 L374.3,313.2 L375.3,313.3 L375.9,313.3 L376.9,313.3 L377.5,313.3 L378.5,313.3 L379.0,313.4 L380.5,313.4 L382.4,313.5 L383.3,313.5 L384.1,313.6 L384.9,313.6 L385.9,313.8 L387.0,313.8 L387.5,313.8 L388.6,313.9 L389.2,313.9 L390.9,314.0 L392.3,314.0 L392.8,314.0 L393.9,314.0 L394.4,314.0 L396.0,314.0 L396.5,314.0 L397.6,313.9 L398.1,313.9 L399.7,313.9 L400.8,313.9 L401.8,313.9 L402.8,313.9 L403.4,313.9 L404.5,313.9 L405.0,313.9 L406.1,313.9 L406.6,313.9 L408.7,313.8 L409.5,313.8 L410.8,313.8 L411.2,313.6 L411.9,313.6 L412.9,313.6 L413.5,313.6 L414.6,313.5 L415.6,313.5 L417.7,313.5 L418.2,313.5 L419.7,313.5 L419.8,313.5 L421.4,313.5 L421.8,313.5 L422.5,313.5 L423.1,313.5 L424.1,313.5 L426.5,313.6 L427.2,313.6 L428.3,313.8 L428.8,313.8 L429.9,313.8 L430.9,313.8 L431.6,313.9 L432.5,313.9 L433.3,313.9 L435.0,314.0 L436.2,314.0 L436.9,314.0 L437.3,314.0 L438.8,314.1 L438.9,314.1 L440.0,314.1 L440.5,314.2 L441.5,314.2 L443.7,314.3 L444.7,314.3 L445.8,314.3 L446.8,314.3 L447.4,314.5 L448.4,314.5 L449.0,314.5 L450.0,314.6 L450.5,314.6 L452.7,314.7 L453.7,314.7 L454.8,314.7 L455.5,314.7 L455.8,314.7 L457.0,314.7 L458.0,314.7 L458.7,314.6 L459.6,314.6 L461.7,314.6 L462.5,314.6 L463.3,314.6 L464.2,314.6 L464.8,314.6 L465.5,314.6 L466.4,314.6 L467.5,314.6 L468.0,314.6 L468.6,314.5 L470.7,314.5 L471.2,314.5 L472.3,314.5 L472.8,314.5 L473.9,314.5 L474.4,314.5 L475.4,314.5 L475.9,314.3 L477.0,314.3 L479.2,314.3 L480.2,314.3 L480.7,314.3 L481.8,314.3 L482.9,314.3 L483.4,314.3 L483.9,314.2 L485.0,314.2 L486.0,314.1 L487.7,314.0 L488.7,314.0 L489.7,314.0 L490.8,313.9 L491.3,313.9 L492.4,313.8 L493.0,313.8 L494.5,313.6 L494.7,313.6 L496.6,313.5 L497.7,313.4 L498.7,313.4 L499.3,313.3 L500.3,313.3 L500.9,313.3 L501.5,313.2 L502.5,313.2 L503.2,313.2 L504.0,313.1 L505.6,313.1 L506.7,313.1 L507.2,313.1 L508.7,313.1 L509.3,313.1 L510.2,313.1 L510.9,313.1 L511.9,313.2 L512.5,313.2 L514.6,313.3 L515.5,313.3 L516.8,313.4 L517.8,313.5 L518.9,313.6 L519.4,313.8 L520.4,313.9 L521.0,314.0 L523.6,314.2 L524.0,314.3 L525.2,314.3 L525.8,314.3 L526.8,314.3 L527.9,314.5 L528.8,314.5 L530.0,314.5" fill="none" stroke="#1f77b4" stroke-width="1.7" opacity="0.85"/><circle cx="530" cy="314" r="4.5" fill="#1f77b4"/><text x="28" y="572" font-size="11" fill="#888">ground track — m from pad (N up)</text><rect x="580" y="40" width="540" height="540" fill="#fbfbfb" stroke="#ddd"/><text x="586" y="54" fill="#1f77b4" font-size="11">alt 176</text><text x="586" y="558" fill="#1f77b4" font-size="11">-100</text><path d="M642.0,370.3 L642.3,372.2 L642.6,369.8 L643.0,370.5 L643.3,369.0 L643.6,370.2 L643.9,367.3 L644.2,366.9 L644.5,368.6 L644.8,364.2 L645.1,363.6 L645.4,364.5 L645.7,358.1 L646.0,358.1 L646.3,355.8 L646.5,356.2 L646.8,354.4 L647.1,356.3 L647.4,349.1 L647.7,351.6 L648.0,341.0 L648.2,336.0 L648.5,349.4 L648.8,332.5 L649.1,329.5 L649.4,340.8 L649.7,330.3 L650.0,320.9 L650.3,313.2 L650.6,329.2 L650.9,302.3 L651.2,307.9 L651.5,317.9 L651.8,308.0 L652.1,294.8 L652.4,299.2 L652.6,308.9 L652.9,283.8 L653.2,276.2 L653.5,288.9 L653.9,260.4 L654.2,294.8 L654.5,273.7 L654.8,262.1 L655.1,266.3 L655.3,269.0 L655.6,227.5 L655.9,249.2 L656.2,277.4 L656.5,274.3 L656.8,249.4 L657.1,258.4 L657.4,223.6 L657.7,206.0 L658.0,230.4 L658.3,209.7 L658.6,205.2 L658.9,208.0 L659.2,252.4 L659.4,243.1 L659.7,187.2 L660.0,172.1 L660.3,240.5 L660.6,185.5 L660.9,198.0 L661.2,224.4 L661.4,166.0 L661.7,170.3 L662.0,228.6 L662.3,157.6 L662.6,233.8 L662.9,211.2 L663.2,138.5 L663.5,136.9 L663.8,195.9 L664.1,143.0 L664.4,208.4 L664.7,148.3 L665.0,200.7 L665.3,176.1 L665.6,191.8 L665.9,197.4 L666.2,218.2 L666.5,204.8 L666.8,133.7 L667.1,126.1 L667.4,167.6 L667.7,130.7 L668.0,185.6 L668.3,143.8 L668.5,175.1 L668.8,112.8 L669.1,102.9 L669.4,114.8 L669.7,161.0 L670.0,189.4 L670.3,160.2 L670.6,156.6 L670.9,154.6 L671.2,128.1 L671.5,168.9 L671.8,132.1 L672.1,111.3 L672.4,155.8 L672.7,185.5 L673.0,166.4 L673.3,183.0 L673.6,123.2 L673.9,138.1 L674.2,110.3 L674.5,110.5 L674.8,179.0 L675.1,76.7 L675.3,163.4 L675.6,160.9 L675.9,159.7 L676.2,87.8 L676.5,132.0 L676.8,76.0 L677.1,122.2 L677.4,190.8 L677.7,103.7 L678.0,111.7 L678.3,96.6 L678.6,100.9 L678.9,91.5 L679.2,111.2 L679.5,114.8 L679.8,81.1 L680.0,89.3 L680.3,77.6 L680.6,106.8 L680.9,131.4 L681.2,100.4 L681.5,170.3 L681.8,165.3 L682.1,98.8 L682.4,87.8 L682.7,172.8 L683.0,76.7 L683.3,106.0 L683.6,82.9 L683.9,193.2 L684.2,99.9 L684.4,98.2 L684.7,145.4 L685.0,79.5 L685.3,153.6 L685.6,149.4 L685.9,186.8 L686.2,78.7 L686.5,133.6 L686.8,194.5 L687.1,140.2 L687.4,93.7 L687.7,125.7 L688.0,152.4 L688.3,159.4 L688.6,134.3 L688.8,178.6 L689.1,192.6 L689.5,94.0 L689.7,141.2 L690.0,184.4 L690.3,123.0 L690.6,116.6 L690.9,98.4 L691.2,102.8 L691.5,188.3 L691.8,131.5 L692.1,92.5 L692.4,165.9 L692.7,197.5 L692.9,113.2 L693.2,153.9 L693.5,136.5 L693.8,177.7 L694.1,105.9 L694.4,143.5 L694.7,109.7 L695.0,113.8 L695.3,88.7 L695.6,156.9 L695.9,153.7 L696.2,152.9 L696.5,174.7 L696.8,102.6 L697.1,143.0 L697.4,127.6 L697.7,135.4 L698.0,154.2 L698.3,194.1 L698.6,166.7 L698.9,163.2 L699.2,104.6 L699.5,193.3 L699.8,141.9 L700.0,113.4 L700.3,115.9 L700.6,110.8 L700.9,172.8 L701.2,200.3 L701.5,156.5 L701.9,100.1 L702.2,152.9 L702.5,102.0 L702.8,176.7 L703.1,120.7 L703.4,139.7 L703.7,161.2 L704.0,198.1 L704.3,178.3 L704.6,105.9 L704.9,143.9 L705.1,150.8 L705.4,188.5 L705.7,161.3 L706.0,166.5 L706.3,156.4 L706.6,156.8 L706.9,133.5 L707.2,209.8 L707.5,163.7 L708.1,211.4 L708.4,216.0 L708.7,171.8 L709.0,139.2 L709.3,194.2 L709.6,129.6 L709.8,179.3 L710.1,170.4 L710.4,142.2 L710.7,171.4 L711.0,142.8 L711.3,128.8 L711.6,188.5 L711.9,135.6 L712.2,143.4 L712.5,153.4 L712.8,150.6 L713.1,139.1 L713.4,214.8 L713.7,132.9 L714.2,161.7 L714.5,165.6 L714.8,183.0 L715.1,208.4 L715.4,171.7 L715.7,136.0 L716.0,161.7 L716.3,222.1 L716.6,213.0 L716.9,213.8 L717.2,191.2 L717.5,160.3 L717.8,168.1 L718.1,194.4 L718.3,181.6 L718.6,205.2 L718.9,185.7 L719.2,185.6 L719.5,187.8 L719.8,192.1 L720.4,217.6 L720.7,144.1 L721.0,229.3 L721.3,187.1 L721.6,154.5 L721.9,230.2 L722.2,157.9 L722.5,199.1 L722.8,184.6 L723.0,200.0 L723.3,178.1 L723.6,225.8 L723.9,201.8 L724.2,189.8 L724.5,180.1 L724.8,173.7 L725.4,188.4 L725.7,200.0 L726.0,199.8 L726.6,229.2 L726.9,178.0 L727.1,221.0 L727.4,242.3 L727.7,191.3 L728.0,237.2 L728.3,184.7 L728.6,175.3 L728.9,197.1 L729.2,232.8 L729.5,232.2 L729.8,226.6 L730.1,191.8 L730.4,170.7 L730.7,177.4 L731.0,204.4 L731.2,220.9 L731.5,252.3 L731.8,173.7 L732.1,206.8 L732.7,234.2 L733.0,246.0 L733.3,203.2 L733.6,232.8 L733.9,253.2 L734.2,180.7 L734.5,200.4 L734.8,202.9 L735.1,211.3 L735.4,229.3 L735.7,190.2 L736.0,198.7 L736.2,225.9 L736.5,198.3 L736.8,222.2 L737.1,240.1 L737.4,250.5 L737.7,199.7 L738.0,240.3 L738.3,203.9 L738.9,202.4 L739.2,235.3 L739.5,241.9 L739.8,257.7 L740.1,213.2 L740.3,220.4 L740.6,214.2 L740.9,205.6 L741.2,219.5 L741.5,217.1 L741.8,266.4 L742.1,244.3 L742.4,273.8 L742.7,258.8 L743.0,275.2 L743.3,234.9 L743.6,219.1 L743.9,236.5 L744.2,241.2 L744.5,243.0 L745.1,255.7 L745.3,225.3 L745.6,274.1 L745.9,267.6 L746.2,253.5 L746.5,237.5 L746.8,255.8 L747.1,240.9 L747.4,240.6 L747.7,285.3 L748.0,280.7 L748.3,256.3 L748.6,265.7 L748.9,262.4 L749.1,250.8 L749.4,242.8 L749.7,233.4 L750.0,278.0 L750.3,251.5 L750.6,260.3 L751.5,245.2 L751.7,241.1 L752.0,287.8 L752.3,282.2 L752.6,292.5 L752.9,249.0 L753.2,267.0 L753.5,284.2 L753.8,293.0 L754.1,294.9 L754.4,254.5 L754.7,300.8 L755.0,274.6 L755.3,256.8 L755.5,283.2 L755.8,263.7 L756.1,297.0 L756.4,277.0 L756.7,292.2 L757.0,301.0 L757.3,277.1 L757.9,288.0 L758.2,292.0 L758.5,266.9 L758.8,270.7 L759.1,293.3 L759.4,282.9 L759.6,272.0 L759.9,301.7 L760.2,295.0 L760.5,277.4 L760.8,307.5 L761.1,280.6 L761.4,279.1 L761.7,283.0 L762.0,316.9 L762.3,294.2 L762.6,290.5 L762.9,291.3 L763.2,304.6 L763.5,316.6 L764.3,315.4 L764.6,314.4 L764.9,312.2 L765.2,312.3 L765.5,321.1 L765.8,316.5 L766.0,319.1 L766.3,326.4 L766.6,315.7 L766.9,319.5 L767.2,326.5 L767.5,314.7 L767.8,326.5 L768.1,305.6 L768.4,331.2 L768.7,330.0 L769.0,332.6 L769.3,309.6 L769.6,321.9 L769.9,327.8 L770.1,335.2 L770.7,316.8 L771.0,322.3 L771.3,327.5 L771.6,341.8 L771.9,329.3 L772.2,324.2 L772.5,323.8 L772.8,334.6 L773.1,339.0 L773.4,344.3 L773.6,337.5 L773.9,341.7 L774.2,342.1 L774.5,347.0 L774.8,347.9 L775.1,349.3 L775.4,341.8 L775.7,343.9 L776.0,352.2 L776.3,351.7 L776.5,346.4 L777.2,349.7 L777.5,352.2 L777.8,352.1 L778.1,348.2 L778.4,356.1 L778.7,350.1 L778.9,353.4 L779.2,351.8 L779.5,353.9 L779.8,357.3 L780.1,355.7 L780.4,361.6 L780.7,358.0 L781.0,360.0 L781.3,362.3 L781.6,365.0 L781.9,367.5 L782.2,364.5 L782.5,367.6 L782.8,368.6 L783.6,371.4 L783.9,372.5 L784.2,372.3 L784.5,373.6 L784.8,375.4 L785.0,375.8 L785.3,376.0 L785.6,378.4 L785.9,378.6 L786.2,378.4 L786.5,379.1 L786.8,382.1 L787.1,380.4 L787.4,384.2 L787.7,386.0 L788.0,384.3 L788.3,388.6 L788.6,390.8 L788.9,391.9 L789.2,391.7 L789.4,391.7 L790.1,390.1 L790.3,396.1 L790.6,390.6 L790.9,397.6 L791.2,395.2 L791.5,394.8 L791.8,403.6 L792.1,402.2 L792.4,397.9 L792.7,399.3 L793.0,397.7 L793.3,400.7 L793.6,402.6 L793.9,410.7 L794.1,403.6 L794.4,404.8 L794.7,411.1 L795.0,399.6 L795.3,411.0 L795.6,412.5 L796.5,418.4 L796.8,408.3 L797.1,415.2 L797.4,410.5 L797.7,421.1 L798.0,423.8 L798.2,409.3 L798.5,414.1 L798.8,414.0 L799.1,424.0 L799.4,425.4 L799.7,411.8 L800.0,414.0 L800.3,423.1 L800.6,419.6 L800.9,428.7 L801.2,432.5 L801.5,418.6 L801.8,420.6 L802.1,431.6 L802.9,429.0 L803.2,419.0 L803.5,424.6 L803.8,444.6 L804.1,424.0 L804.3,437.3 L804.6,440.4 L804.9,443.6 L805.2,436.7 L805.5,437.8 L805.8,436.7 L806.1,445.6 L806.4,437.5 L806.7,448.0 L807.0,455.3 L807.3,429.0 L807.6,457.6 L807.9,449.6 L808.2,434.1 L808.5,438.6 L808.7,434.6 L809.4,461.7 L809.6,444.8 L809.9,468.6 L810.2,442.1 L810.5,445.9 L810.8,455.4 L811.1,457.3 L811.4,474.9 L811.7,452.8 L812.0,460.5 L812.3,470.3 L812.6,442.0 L812.9,439.0 L813.2,460.7 L813.4,445.4 L813.7,481.5 L814.0,454.3 L814.3,460.8 L814.6,462.1 L814.9,476.6 L815.2,475.6 L815.8,464.2 L816.1,493.8 L816.4,450.9 L816.7,466.8 L817.0,461.7 L817.3,449.8 L817.6,469.5 L817.9,450.5 L818.2,470.7 L818.5,480.2 L818.8,500.8 L819.1,504.6 L819.4,483.8 L819.7,499.8 L820.0,480.1 L820.2,489.9 L820.5,478.7 L820.8,474.7 L821.1,459.6 L821.4,483.6 L822.3,498.2 L822.6,483.6 L822.9,477.4 L823.2,474.7 L823.5,510.3 L823.8,507.6 L824.1,479.5 L824.3,506.9 L824.6,513.6 L824.9,481.0 L825.2,521.9 L825.5,505.8 L825.8,500.3 L826.1,503.3 L826.4,525.3 L826.7,490.1 L827.0,472.7 L827.3,517.8 L827.6,534.1 L827.9,508.8 L828.7,524.9 L829.0,483.5 L829.3,519.0 L829.6,518.8 L829.9,515.3 L830.2,523.7 L830.5,511.8 L830.8,489.6 L831.1,537.9 L831.4,483.7 L831.7,501.2 L832.0,508.7 L832.3,494.0 L832.6,487.0 L832.9,541.1 L833.1,505.5 L833.4,527.9 L833.7,490.3 L834.0,532.7 L834.3,544.0 L835.2,498.6 L835.5,544.0 L835.8,543.4 L836.1,505.9 L836.4,528.6 L836.7,495.0 L837.0,537.4 L837.3,500.7 L837.5,544.0 L837.8,497.7 L838.1,544.0 L838.4,508.5 L838.7,523.2 L839.0,544.0 L839.3,512.0 L839.6,544.0 L839.9,515.5 L840.2,505.5 L840.5,539.5 L840.8,544.0 L841.6,524.3 L841.9,529.6 L842.2,535.3 L842.5,544.0 L842.8,544.0 L843.1,544.0 L843.4,540.0 L843.7,521.9 L844.0,544.0 L844.3,535.5 L844.6,544.0 L844.9,523.3 L845.2,544.0 L845.5,544.0 L845.8,539.6 L846.1,544.0 L846.3,544.0 L846.6,527.8 L846.9,544.0 L847.2,544.0 L848.1,544.0 L848.4,544.0 L848.7,544.0 L849.0,544.0 L849.3,544.0 L849.6,544.0 L849.9,544.0 L850.2,544.0 L850.5,544.0 L850.7,544.0 L851.0,544.0 L851.3,544.0 L851.6,544.0 L851.9,544.0 L852.2,544.0 L852.5,544.0 L852.8,544.0 L853.1,544.0 L853.4,544.0 L853.7,544.0 L854.6,544.0 L854.9,544.0 L855.1,544.0 L855.4,544.0 L855.7,544.0 L856.0,544.0 L856.7,544.0 L857.0,544.0 L857.3,544.0 L857.6,544.0 L857.9,544.0 L858.2,544.0 L858.5,544.0 L858.8,544.0 L859.1,544.0 L859.4,544.0 L859.7,544.0 L860.0,544.0 L860.2,544.0 L861.5,544.0 L861.8,544.0 L862.1,544.0 L862.4,544.0 L862.7,544.0 L862.9,544.0 L863.2,544.0 L863.5,544.0 L863.8,544.0 L864.1,544.0 L864.4,544.0 L864.7,544.0 L865.0,544.0 L865.3,544.0 L865.6,544.0 L865.9,544.0 L866.2,544.0 L866.5,544.0 L866.8,544.0 L867.1,544.0 L867.3,544.0 L868.5,544.0 L868.8,544.0 L869.0,544.0 L869.3,544.0 L869.6,544.0 L869.9,544.0 L870.2,544.0 L870.5,544.0 L870.8,544.0 L871.1,544.0 L871.4,544.0 L871.7,544.0 L872.0,544.0 L872.3,544.0 L872.6,544.0 L872.9,544.0 L873.2,544.0 L873.5,544.0 L873.7,544.0 L874.0,544.0 L875.4,544.0 L875.7,544.0 L876.0,544.0 L876.3,544.0 L876.6,544.0 L876.9,544.0 L877.1,544.0 L877.4,544.0 L877.7,544.0 L878.0,544.0 L878.3,544.0 L878.6,544.0 L878.9,544.0 L879.2,544.0 L879.5,544.0 L879.8,544.0 L880.1,544.0 L880.4,544.0 L880.7,544.0 L881.0,544.0 L882.3,544.0 L882.6,544.0 L883.0,544.0 L883.2,544.0 L883.5,544.0 L883.8,544.0 L884.1,544.0 L884.4,544.0 L884.7,544.0 L885.0,544.0 L885.3,544.0 L885.6,544.0 L885.9,544.0 L886.2,544.0 L886.5,544.0 L886.8,544.0 L887.1,544.0 L887.4,544.0 L887.6,544.0 L887.9,544.0 L889.3,544.0 L889.6,544.0 L889.9,544.0 L890.2,544.0 L890.5,544.0 L890.8,544.0 L891.0,544.0 L891.3,544.0 L891.6,544.0 L891.9,544.0 L892.2,544.0 L892.5,544.0 L892.8,544.0 L893.1,544.0 L893.4,544.0 L893.7,544.0 L894.0,544.0 L894.3,544.0 L894.6,544.0 L894.9,544.0 L895.2,544.0 L896.3,544.0 L896.6,544.0 L896.9,544.0 L897.1,544.0 L897.4,544.0 L897.7,544.0 L898.0,544.0 L898.3,544.0 L898.6,544.0 L898.9,544.0 L899.2,544.0 L899.5,544.0 L899.8,544.0 L900.1,544.0 L900.4,544.0 L900.7,544.0 L901.0,544.0 L901.3,544.0 L901.6,544.0 L901.8,544.0 L903.2,544.0 L903.5,544.0 L903.8,544.0 L904.1,544.0 L904.4,544.0 L904.7,544.0 L905.0,544.0 L905.3,544.0 L905.6,544.0 L905.9,544.0 L906.2,544.0 L906.5,544.0 L906.8,544.0 L907.1,544.0 L907.4,544.0 L907.6,544.0 L907.9,544.0 L908.2,544.0 L908.5,544.0 L908.8,544.0 L910.2,544.0 L910.5,544.0 L910.8,544.0 L911.1,544.0 L911.4,544.0 L911.7,544.0 L912.0,544.0 L912.3,544.0 L912.6,544.0 L912.9,544.0 L913.2,544.0 L913.5,544.0 L913.7,544.0 L914.0,544.0 L914.3,544.0 L914.6,544.0 L914.9,544.0 L915.2,544.0 L915.5,544.0 L915.8,544.0 L917.2,544.0 L917.5,544.0 L917.8,544.0 L918.1,544.0 L918.4,544.0 L918.7,544.0 L919.0,544.0 L919.3,544.0 L919.6,544.0 L919.8,544.0 L920.1,544.0 L920.4,544.0 L920.7,544.0 L921.0,544.0 L921.3,544.0 L921.6,544.0 L921.9,544.0 L922.2,544.0 L922.5,544.0 L922.8,544.0 L924.2,544.0 L924.5,544.0 L924.8,544.0 L925.1,544.0 L925.4,544.0 L925.7,544.0 L925.9,544.0 L926.2,544.0 L926.5,544.0 L926.8,544.0 L927.1,544.0 L927.4,544.0 L927.7,544.0 L928.0,544.0 L928.3,544.0 L928.6,544.0 L928.9,544.0 L929.2,544.0 L929.5,544.0 L929.8,544.0 L931.2,544.0 L931.5,544.0 L931.8,544.0 L932.0,544.0 L932.3,544.0 L932.6,544.0 L932.9,544.0 L933.2,544.0 L933.5,544.0 L933.8,544.0 L934.1,544.0 L934.4,544.0 L934.7,544.0 L935.0,544.0 L935.3,544.0 L935.6,544.0 L935.9,544.0 L936.2,544.0 L936.5,544.0 L936.7,544.0 L938.1,544.0 L938.4,544.0 L938.7,544.0 L939.0,544.0 L939.3,544.0 L939.6,544.0 L939.9,544.0 L940.2,544.0 L940.5,544.0 L940.8,544.0 L941.1,544.0 L941.4,544.0 L941.7,544.0 L942.0,544.0 L942.3,544.0 L942.6,544.0 L942.8,544.0 L943.1,544.0 L943.4,544.0 L943.7,544.0 L945.1,544.0 L945.4,544.0 L945.7,544.0 L946.0,544.0 L946.3,544.0 L946.6,544.0 L946.9,544.0 L947.2,544.0 L947.5,544.0 L947.8,544.0 L948.1,544.0 L948.4,544.0 L948.7,544.0 L948.9,544.0 L949.2,544.0 L949.5,544.0 L949.8,544.0 L950.1,544.0 L950.4,544.0 L950.7,544.0 L952.1,544.0 L952.4,544.0 L952.7,544.0 L953.0,544.0 L953.3,544.0 L953.6,544.0 L953.9,544.0 L954.2,544.0 L954.5,544.0 L954.8,544.0 L955.0,544.0 L955.3,544.0 L955.6,544.0 L955.9,544.0 L956.2,544.0 L956.5,544.0 L956.8,544.0 L957.1,544.0 L957.4,544.0 L957.7,544.0 L959.1,544.0 L959.4,544.0 L959.7,544.0 L960.0,544.0 L960.3,544.0 L960.6,544.0 L960.9,544.0 L961.1,544.0 L961.4,544.0 L961.7,544.0 L962.0,544.0 L962.3,544.0 L962.6,544.0 L962.9,544.0 L963.2,544.0 L963.5,544.0 L963.8,544.0 L964.1,544.0 L964.4,544.0 L964.7,544.0 L966.1,544.0 L966.4,544.0 L966.7,544.0 L967.0,544.0 L967.2,544.0 L967.5,544.0 L967.8,544.0 L968.1,544.0 L968.4,544.0 L968.7,544.0 L969.0,544.0 L969.3,544.0 L969.6,544.0 L969.9,544.0 L970.2,544.0 L970.5,544.0 L970.8,544.0 L971.1,544.0 L971.4,544.0 L971.6,544.0 L973.1,544.0 L973.3,544.0 L973.6,544.0 L973.9,544.0 L974.2,544.0 L974.5,544.0 L974.8,544.0 L975.1,544.0 L975.4,544.0 L975.7,544.0 L976.0,544.0 L976.3,544.0 L976.6,544.0 L976.9,544.0 L977.2,544.0 L977.5,544.0 L977.7,544.0 L978.0,544.0 L978.3,544.0 L978.6,544.0 L980.0,544.0 L980.3,544.0 L980.6,544.0 L980.9,544.0 L981.2,544.0 L981.5,544.0 L981.8,544.0 L982.1,544.0 L982.4,544.0 L982.7,544.0 L983.0,544.0 L983.3,544.0 L983.6,544.0 L983.9,544.0 L984.1,544.0 L984.4,544.0 L984.7,544.0 L985.0,544.0 L985.3,544.0 L985.6,544.0 L987.0,544.0 L987.3,544.0 L987.6,544.0 L987.9,544.0 L988.2,544.0 L988.5,544.0 L988.8,544.0 L989.1,544.0 L989.4,544.0 L989.7,544.0 L990.0,544.0 L990.2,544.0 L990.5,544.0 L991.1,544.0 L991.4,544.0 L991.7,544.0 L992.0,544.0 L992.3,544.0 L992.6,544.0 L994.0,544.0 L994.3,544.0 L994.6,544.0 L994.9,544.0 L995.2,544.0 L995.5,544.0 L995.8,544.0 L996.0,544.0 L996.3,544.0 L996.6,544.0 L996.9,544.0 L997.2,544.0 L997.5,544.0 L997.8,544.0 L998.1,544.0 L998.4,544.0 L998.7,544.0 L999.0,544.0 L999.3,544.0 L999.6,544.0 L1001.0,544.0 L1001.3,544.0 L1001.6,544.0 L1001.9,544.0 L1002.2,544.0 L1002.4,544.0 L1002.7,544.0 L1003.0,544.0 L1003.3,544.0 L1003.6,544.0 L1003.9,544.0 L1004.2,544.0 L1004.5,544.0 L1004.8,544.0 L1005.1,544.0 L1005.4,544.0 L1005.7,544.0 L1006.0,544.0 L1006.3,544.0 L1006.6,544.0 L1006.8,544.0 L1008.0,544.0 L1008.3,544.0 L1008.6,544.0 L1008.9,544.0 L1009.2,544.0 L1009.5,544.0 L1009.8,544.0 L1010.1,544.0 L1010.4,544.0 L1010.7,544.0 L1010.9,544.0 L1011.2,544.0 L1011.5,544.0 L1011.8,544.0 L1012.1,544.0 L1012.4,544.0 L1012.7,544.0 L1013.0,544.0 L1013.3,544.0 L1013.6,544.0 L1015.0,544.0 L1015.3,544.0 L1015.6,544.0 L1015.9,544.0 L1016.2,544.0 L1016.5,544.0 L1016.8,544.0 L1017.0,544.0 L1017.3,544.0 L1017.6,544.0 L1017.9,544.0 L1018.2,544.0 L1018.5,544.0 L1018.8,544.0 L1019.1,544.0 L1019.4,544.0 L1019.7,544.0 L1020.0,544.0 L1020.3,544.0 L1020.6,544.0 L1020.9,544.0 L1022.0,544.0 L1022.3,544.0 L1022.6,544.0 L1022.9,544.0 L1023.2,544.0 L1023.5,544.0 L1023.8,544.0 L1024.1,544.0 L1024.4,544.0 L1024.7,544.0 L1025.0,544.0 L1025.3,544.0 L1025.6,544.0 L1025.8,544.0 L1026.1,544.0 L1026.4,544.0 L1026.7,544.0 L1027.0,544.0 L1027.3,544.0 L1027.6,544.0 L1029.0,544.0 L1029.3,544.0 L1029.6,544.0 L1029.9,544.0 L1030.2,544.0 L1030.5,544.0 L1030.8,544.0 L1031.1,544.0 L1031.4,544.0 L1031.7,544.0 L1031.9,544.0 L1032.2,544.0 L1032.5,544.0 L1032.8,544.0 L1033.1,544.0 L1033.4,544.0 L1033.7,544.0 L1034.0,544.0 L1034.3,544.0 L1034.6,544.0 L1034.9,544.0 L1036.1,544.0 L1036.3,544.0 L1036.6,544.0 L1036.9,544.0 L1037.2,544.0 L1037.5,544.0 L1037.8,544.0 L1038.1,544.0 L1038.4,544.0 L1038.7,544.0 L1039.0,544.0 L1039.3,544.0 L1039.6,544.0 L1039.9,544.0 L1040.2,544.0 L1040.5,544.0 L1040.7,544.0 L1041.0,544.0 L1041.3,544.0 L1041.6,544.0 L1043.1,544.0 L1043.4,544.0 L1043.7,544.0 L1044.0,544.0 L1044.3,544.0 L1044.6,544.0 L1044.9,544.0 L1045.1,544.0 L1045.4,544.0 L1045.7,544.0 L1046.0,544.0 L1046.3,544.0 L1046.6,544.0 L1046.9,544.0 L1047.2,544.0 L1047.5,544.0 L1047.8,544.0 L1048.1,544.0 L1048.4,544.0 L1048.7,544.0 L1050.1,544.0 L1050.4,544.0 L1050.7,544.0 L1051.0,544.0 L1051.3,544.0 L1051.6,544.0 L1051.9,544.0 L1052.2,544.0 L1052.5,544.0 L1052.8,544.0 L1053.1,544.0 L1053.4,544.0 L1053.7,544.0 L1053.9,544.0 L1054.2,544.0 L1054.5,544.0 L1054.8,544.0 L1055.1,544.0 L1055.4,544.0 L1055.7,544.0 L1057.2,544.0 L1057.5,544.0 L1057.8,544.0 L1058.1,544.0 L1058.3,544.0 L1058.6,544.0 L1058.9,544.0 L1059.2,544.0 L1059.5,544.0 L1059.8,544.0 L1060.1,544.0 L1060.4,544.0 L1060.7,544.0 L1061.0,544.0 L1061.3,544.0 L1061.6,544.0 L1061.9,544.0 L1062.2,544.0 L1062.5,544.0 L1062.7,544.0 L1064.2,544.0 L1064.5,544.0 L1064.7,544.0 L1065.0,544.0 L1065.3,544.0 L1065.6,544.0 L1065.9,544.0 L1066.2,544.0 L1066.5,544.0 L1066.8,544.0 L1067.1,544.0 L1067.4,544.0 L1067.7,544.0 L1068.0,544.0 L1068.3,544.0 L1068.6,544.0 L1068.8,544.0 L1069.1,544.0 L1069.4,544.0 L1069.7,544.0 L1070.0,544.0 L1071.2,544.0 L1071.5,544.0 L1071.8,544.0 L1072.1,544.0 L1072.4,544.0 L1072.7,544.0 L1073.0,544.0 L1073.9,544.0 L1074.2,544.0 L1074.4,544.0 L1074.7,544.0 L1075.0,544.0 L1075.3,544.0 L1075.6,544.0 L1075.9,544.0 L1076.2,544.0 L1076.5,544.0 L1076.8,544.0 L1078.2,544.0 L1078.5,544.0 L1079.4,544.0 L1079.6,544.0 L1079.9,544.0 L1080.2,544.0 L1080.5,544.0 L1080.8,544.0 L1081.1,544.0 L1081.4,544.0 L1081.7,544.0 L1082.0,544.0 L1082.4,544.0 L1082.7,544.0 L1083.8,544.0 L1084.0,544.0" fill="none" stroke="#1f77b4" stroke-width="1.4" opacity="0.85"/><text x="1040" y="54" fill="#ff7f0e" font-size="11">roll 26</text><text x="1090" y="558" fill="#ff7f0e" font-size="11">-29</text><path d="M642.0,299.3 L642.3,298.5 L642.6,298.5 L643.0,297.6 L643.3,296.8 L643.6,296.8 L643.9,299.3 L644.2,297.6 L644.5,300.2 L644.8,298.5 L645.1,296.8 L645.4,300.2 L645.7,299.3 L645.9,299.3 L646.3,297.6 L646.5,299.3 L646.8,296.8 L647.1,299.3 L647.4,297.6 L647.7,297.6 L648.0,298.5 L648.2,300.2 L648.5,296.8 L648.8,298.5 L649.1,301.0 L649.4,297.6 L649.7,297.6 L650.0,296.8 L650.3,299.3 L650.6,299.3 L650.9,296.8 L651.2,300.2 L651.5,300.2 L651.8,299.3 L652.1,296.8 L652.4,297.6 L652.6,300.2 L652.9,301.0 L653.2,296.8 L653.5,298.5 L653.9,300.2 L654.2,298.5 L654.5,298.5 L654.8,300.2 L655.1,299.3 L655.3,299.3 L655.6,301.0 L655.9,300.2 L656.2,297.6 L656.5,298.5 L656.8,297.6 L657.1,298.5 L657.4,298.5 L657.7,298.5 L658.0,300.2 L658.3,300.2 L658.6,301.0 L658.9,298.5 L659.2,300.2 L659.4,300.2 L659.7,300.2 L660.0,299.3 L660.3,300.2 L660.6,297.6 L660.9,296.8 L661.2,299.3 L661.4,298.5 L661.7,298.5 L662.0,297.6 L662.3,298.5 L662.6,300.2 L662.9,299.3 L663.2,298.5 L663.5,298.5 L663.8,300.2 L664.1,299.3 L664.4,299.3 L664.7,300.2 L665.0,301.0 L665.3,300.2 L665.6,299.3 L665.9,298.5 L666.2,300.2 L666.5,298.5 L666.8,299.3 L667.1,301.0 L667.4,300.2 L667.7,296.8 L668.0,297.6 L668.2,296.8 L668.5,300.2 L668.8,297.6 L669.1,301.0 L669.4,298.5 L669.7,300.2 L670.0,299.3 L670.3,299.3 L670.6,300.2 L670.9,299.3 L671.2,297.6 L671.5,299.3 L671.8,297.6 L672.1,297.6 L672.4,299.3 L672.7,299.3 L673.0,296.8 L673.3,297.6 L673.6,299.3 L673.9,299.3 L674.2,300.2 L674.5,299.3 L674.8,301.0 L675.0,296.8 L675.3,298.5 L675.6,297.6 L675.9,299.3 L676.2,300.2 L676.5,297.6 L676.8,297.6 L677.1,297.6 L677.4,287.4 L677.7,272.9 L678.0,250.8 L678.3,245.6 L678.6,215.0 L678.9,237.1 L679.2,180.9 L679.5,172.3 L679.8,157.8 L680.0,168.9 L680.3,195.3 L680.6,190.2 L680.9,162.1 L681.2,142.5 L681.5,141.6 L681.8,151.9 L682.1,171.5 L682.4,186.8 L682.7,199.6 L683.0,176.6 L683.3,160.4 L683.6,165.5 L683.9,145.9 L684.2,195.3 L684.4,197.9 L684.7,155.3 L685.0,171.5 L685.3,167.2 L685.6,174.0 L685.9,200.5 L686.2,203.0 L686.5,160.4 L686.8,183.4 L687.1,190.2 L687.4,195.3 L687.7,206.4 L687.9,195.3 L688.3,186.0 L688.5,167.2 L688.8,161.2 L689.1,180.0 L689.5,172.3 L689.7,202.2 L690.0,191.1 L690.3,207.3 L690.6,228.6 L690.9,255.0 L691.2,281.4 L691.5,307.9 L691.8,331.7 L692.1,336.9 L692.4,363.3 L692.7,355.6 L692.9,375.2 L693.2,424.7 L693.5,382.9 L693.8,435.7 L694.1,401.6 L694.4,407.6 L694.7,420.4 L695.0,440.9 L695.3,404.2 L695.6,422.1 L695.9,405.9 L696.2,407.6 L696.5,438.3 L696.8,445.1 L697.1,481.8 L697.4,411.0 L697.7,461.3 L698.0,415.3 L698.3,457.0 L698.6,434.0 L698.9,469.0 L699.2,439.1 L699.5,468.1 L699.8,434.0 L700.0,471.5 L700.3,453.6 L700.6,414.4 L700.9,457.9 L701.2,453.6 L701.5,472.4 L701.9,456.2 L702.2,413.6 L702.5,457.0 L702.8,468.1 L703.1,402.5 L703.4,440.9 L703.7,432.3 L704.0,428.9 L704.3,456.2 L704.6,405.0 L704.9,406.8 L705.1,475.0 L705.4,462.2 L705.7,452.8 L706.0,446.0 L706.3,446.0 L706.6,467.3 L706.9,454.5 L707.2,417.8 L707.5,433.2 L708.1,422.1 L708.4,457.0 L708.7,421.2 L709.0,415.3 L709.3,412.7 L709.5,475.8 L709.8,472.4 L710.1,437.4 L710.4,411.0 L710.7,478.4 L711.0,417.8 L711.3,461.3 L711.6,416.1 L711.9,389.7 L712.2,341.1 L712.5,323.2 L712.8,303.6 L713.1,274.6 L713.4,272.1 L713.7,257.6 L714.2,235.4 L714.5,210.7 L714.8,205.6 L715.1,170.6 L715.4,182.6 L715.7,168.9 L716.0,154.4 L716.3,161.2 L716.6,180.9 L716.9,140.8 L717.2,181.7 L717.5,139.9 L717.8,157.0 L718.1,148.5 L718.3,145.0 L718.6,167.2 L718.9,153.6 L719.2,142.5 L719.5,130.6 L719.8,139.1 L720.4,139.9 L720.7,157.8 L721.0,178.3 L721.3,187.7 L721.6,170.6 L721.9,136.5 L722.2,195.3 L722.5,177.4 L722.7,165.5 L723.0,129.7 L723.3,143.3 L723.6,178.3 L723.9,179.1 L724.2,151.9 L724.5,125.4 L724.8,129.7 L725.4,159.5 L725.7,147.6 L726.0,151.9 L726.6,195.3 L726.9,159.5 L727.1,120.3 L727.4,139.9 L727.7,139.9 L728.0,162.1 L728.3,145.9 L728.6,161.2 L728.9,150.2 L729.2,184.3 L729.5,126.3 L729.8,139.1 L730.1,185.1 L730.4,125.4 L730.7,154.4 L731.0,186.0 L731.2,177.4 L731.5,157.0 L731.8,157.8 L732.1,158.7 L732.7,191.1 L733.0,193.6 L733.3,147.6 L733.6,167.2 L733.9,168.1 L734.2,162.1 L734.5,157.0 L734.8,164.7 L735.1,126.3 L735.4,189.4 L735.7,139.1 L735.9,180.9 L736.2,153.6 L736.5,188.5 L736.8,124.6 L737.1,166.4 L737.4,189.4 L737.7,175.7 L738.0,160.4 L738.3,137.4 L738.9,129.7 L739.2,141.6 L739.5,149.3 L739.8,145.9 L740.1,171.5 L740.3,180.0 L740.6,182.6 L740.9,157.0 L741.2,191.1 L741.5,122.9 L741.8,135.7 L742.1,189.4 L742.4,169.8 L742.7,126.3 L743.0,151.0 L743.3,174.9 L743.6,177.4 L743.9,195.3 L744.2,143.3 L744.4,134.8 L745.1,135.7 L745.3,186.0 L745.6,122.9 L745.9,193.6 L746.2,191.9 L746.5,160.4 L746.8,122.0 L747.1,140.8 L747.4,190.2 L747.7,140.8 L748.0,174.9 L748.3,173.2 L748.6,119.5 L748.9,165.5 L749.1,169.8 L749.4,129.7 L749.7,122.9 L750.0,115.2 L750.3,145.0 L750.6,161.2 L751.5,154.4 L751.7,173.2 L752.0,185.1 L752.3,166.4 L752.6,185.1 L752.9,129.7 L753.2,180.0 L753.5,191.9 L753.8,148.5 L754.1,153.6 L754.4,134.0 L754.7,144.2 L755.0,157.8 L755.2,159.5 L755.5,180.9 L755.8,167.2 L756.1,189.4 L756.4,186.8 L756.7,139.1 L757.0,172.3 L757.3,161.2 L757.9,165.5 L758.2,148.5 L758.5,177.4 L758.8,178.3 L759.1,186.8 L759.4,135.7 L759.6,156.1 L759.9,169.8 L760.2,161.2 L760.5,144.2 L760.8,172.3 L761.1,155.3 L761.4,130.6 L761.7,124.6 L762.0,163.0 L762.3,118.6 L762.6,168.1 L762.9,154.4 L763.2,138.2 L763.5,137.4 L764.3,180.9 L764.6,126.3 L764.9,186.8 L765.2,193.6 L765.5,141.6 L765.8,192.8 L766.0,127.1 L766.3,145.9 L766.6,196.2 L766.9,191.9 L767.2,128.9 L767.5,175.7 L767.8,182.6 L768.1,182.6 L768.4,187.7 L768.7,140.8 L769.0,137.4 L769.3,150.2 L769.6,184.3 L769.9,162.1 L770.1,133.1 L770.7,201.3 L771.0,188.5 L771.3,139.1 L771.6,186.0 L771.9,174.9 L772.2,186.8 L772.5,174.9 L772.8,134.8 L773.1,151.9 L773.4,168.9 L773.6,149.3 L773.9,157.0 L774.2,165.5 L774.5,155.3 L774.8,122.9 L775.1,174.0 L775.4,182.6 L775.7,191.1 L776.0,155.3 L776.3,180.0 L776.5,138.2 L777.2,159.5 L777.5,182.6 L777.8,151.9 L778.1,165.5 L778.4,173.2 L778.7,180.0 L778.9,157.8 L779.2,129.7 L779.5,139.9 L779.8,186.0 L780.1,187.7 L780.4,145.0 L780.7,157.0 L781.0,187.7 L781.3,143.3 L781.6,189.4 L781.9,173.2 L782.2,163.8 L782.5,174.0 L782.8,161.2 L783.6,193.6 L783.9,204.7 L784.2,217.5 L784.5,244.8 L784.8,254.2 L785.0,242.2 L785.3,224.3 L785.6,209.0 L785.9,226.0 L786.2,221.8 L786.5,230.3 L786.8,245.6 L787.1,250.8 L787.4,249.0 L787.7,260.1 L788.0,291.7 L788.3,310.4 L788.6,318.1 L788.9,299.3 L789.1,286.6 L789.4,307.9 L790.0,353.0 L790.3,322.4 L790.6,301.9 L790.9,282.3 L791.2,262.7 L791.5,278.0 L791.8,307.9 L792.1,320.7 L792.4,356.5 L792.7,353.0 L793.0,314.7 L793.3,310.4 L793.6,325.8 L793.9,331.7 L794.1,304.5 L794.4,301.9 L794.7,318.1 L795.0,344.5 L795.3,373.5 L795.6,371.8 L796.5,312.1 L796.8,283.1 L797.1,254.2 L797.4,248.2 L797.7,236.3 L797.9,200.5 L798.2,215.0 L798.5,216.7 L798.8,251.6 L799.1,273.8 L799.4,307.0 L799.7,320.7 L800.0,347.9 L800.3,361.6 L800.6,386.3 L800.9,396.5 L801.2,405.9 L801.5,373.5 L801.8,356.5 L802.1,344.5 L802.9,407.6 L803.2,376.9 L803.5,382.0 L803.8,387.1 L804.0,343.7 L804.3,359.9 L804.6,390.6 L804.9,408.5 L805.2,426.4 L805.5,401.6 L805.8,392.3 L806.1,454.5 L806.4,463.0 L806.7,411.0 L807.0,411.9 L807.3,431.5 L807.6,488.6 L807.9,450.2 L808.2,449.4 L808.5,480.9 L808.7,446.0 L809.4,448.5 L809.6,434.9 L809.9,480.1 L810.2,521.8 L810.5,439.1 L810.8,493.7 L811.1,480.9 L811.4,460.5 L811.7,473.2 L812.0,464.7 L812.3,455.3 L812.6,459.6 L812.8,490.3 L813.1,469.8 L813.4,535.5 L813.7,521.8 L814.0,501.4 L814.3,486.0 L814.6,539.7 L814.9,444.3 L815.2,490.3 L815.8,544.0 L816.1,541.4 L816.4,527.8 L816.7,532.9 L817.0,529.5 L817.3,452.8 L817.6,529.5 L817.9,472.4 L818.2,519.3 L818.5,526.1 L818.8,498.8 L819.1,454.5 L819.4,534.6 L819.7,538.9 L820.0,469.0 L820.2,463.9 L820.5,535.5 L820.8,535.5 L821.1,529.5 L821.4,487.7 L822.3,521.0 L822.6,512.5 L822.9,476.7 L823.2,515.9 L823.5,521.8 L823.8,447.7 L824.1,486.9 L824.3,471.5 L824.6,462.2 L824.9,512.5 L825.2,477.5 L825.5,486.0 L825.8,475.8 L826.1,469.8 L826.4,478.4 L826.7,445.1 L827.0,446.0 L827.3,451.1 L827.6,449.4 L827.9,499.7 L828.7,524.4 L829.0,492.0 L829.3,534.6 L829.6,466.4 L829.9,474.1 L830.2,533.8 L830.5,514.2 L830.8,486.0 L831.1,487.7 L831.4,485.2 L831.7,521.0 L832.0,499.7 L832.3,480.9 L832.6,489.4 L832.9,464.7 L833.1,436.6 L833.4,452.8 L833.7,503.9 L834.0,490.3 L834.3,428.9 L835.2,434.9 L835.5,510.8 L835.8,435.7 L836.1,503.9 L836.4,468.1 L836.7,480.9 L837.0,497.1 L837.3,463.9 L837.5,446.0 L837.8,493.7 L838.1,452.8 L838.4,413.6 L838.7,418.7 L839.0,408.5 L839.3,465.6 L839.6,452.8 L839.9,463.0 L840.2,434.0 L840.5,424.7 L840.8,427.2 L841.6,416.1 L841.9,401.6 L842.2,378.6 L842.5,386.3 L842.8,369.2 L843.1,377.8 L843.4,374.4 L843.7,363.3 L844.0,356.5 L844.3,350.5 L844.6,381.2 L844.9,372.7 L845.2,361.6 L845.5,403.3 L845.8,376.9 L846.1,373.5 L846.3,347.1 L846.6,353.0 L846.9,371.8 L847.2,376.1 L848.1,340.3 L848.4,343.7 L848.7,345.4 L849.0,330.9 L849.3,350.5 L849.6,324.9 L849.9,347.1 L850.2,356.5 L850.5,336.9 L850.7,356.5 L851.0,333.4 L851.3,335.1 L851.6,332.6 L851.9,347.9 L852.2,319.8 L852.5,322.4 L852.8,326.6 L853.1,319.8 L853.4,339.4 L853.7,324.1 L854.6,362.4 L854.9,353.9 L855.1,347.1 L855.4,333.4 L855.7,346.2 L856.0,347.9 L856.7,369.2 L857.0,375.2 L857.3,360.7 L857.6,330.9 L857.9,327.5 L858.2,317.2 L858.5,313.0 L858.8,321.5 L859.1,307.0 L859.4,318.1 L859.7,310.4 L860.0,304.5 L860.2,300.2 L861.5,343.7 L861.8,346.2 L862.1,349.6 L862.4,324.9 L862.7,329.2 L862.9,325.8 L863.2,332.6 L863.5,314.7 L863.8,293.4 L864.1,294.2 L864.4,290.0 L864.7,292.5 L865.0,280.6 L865.3,277.2 L865.6,278.0 L865.9,298.5 L866.2,300.2 L866.5,295.1 L866.8,295.1 L867.1,297.6 L867.3,303.6 L868.5,296.8 L868.8,293.4 L869.0,291.7 L869.3,282.3 L869.6,280.6 L869.9,267.0 L870.2,266.1 L870.5,251.6 L870.8,237.1 L871.1,209.8 L871.4,218.4 L871.7,203.0 L872.0,197.0 L872.3,191.1 L872.6,174.9 L872.9,170.6 L873.2,165.5 L873.5,201.3 L873.7,191.9 L874.0,180.9 L875.4,179.1 L875.7,116.1 L876.0,138.2 L876.3,124.6 L876.6,141.6 L876.8,145.9 L877.1,134.8 L877.4,168.1 L877.7,128.0 L878.0,146.8 L878.3,158.7 L878.6,131.4 L878.9,110.1 L879.2,161.2 L879.5,105.8 L879.8,130.6 L880.1,158.7 L880.4,116.1 L880.7,110.1 L881.0,157.8 L882.3,76.0 L882.6,145.0 L882.9,124.6 L883.2,99.0 L883.5,163.0 L883.8,81.1 L884.1,90.5 L884.4,87.9 L884.7,177.4 L885.0,107.5 L885.3,151.0 L885.6,180.9 L885.9,168.1 L886.2,157.8 L886.5,141.6 L886.8,126.3 L887.1,137.4 L887.4,180.9 L887.6,138.2 L887.9,186.0 L889.3,241.4 L889.6,231.1 L889.9,214.1 L890.2,203.9 L890.5,213.2 L890.8,238.8 L891.0,189.4 L891.3,194.5 L891.6,232.9 L891.9,215.8 L892.2,226.9 L892.5,208.1 L892.8,225.2 L893.1,208.1 L893.4,183.4 L893.7,221.8 L894.0,215.0 L894.3,215.0 L894.6,268.7 L894.9,255.0 L895.2,268.7 L896.3,289.1 L896.6,261.0 L896.9,261.0 L897.1,242.2 L897.4,243.1 L897.7,251.6 L898.0,256.7 L898.3,270.4 L898.6,279.7 L898.9,290.8 L899.2,292.5 L899.5,319.8 L899.8,321.5 L900.1,341.1 L900.4,323.2 L900.7,326.6 L901.0,330.9 L901.3,309.6 L901.6,312.1 L901.8,310.4 L903.2,301.0 L903.5,275.5 L903.8,292.5 L904.1,295.1 L904.4,316.4 L904.7,314.7 L905.0,303.6 L905.3,310.4 L905.6,314.7 L905.9,324.1 L906.2,303.6 L906.5,296.8 L906.8,307.9 L907.1,308.7 L907.4,292.5 L907.6,294.2 L907.9,306.2 L908.2,316.4 L908.5,312.1 L908.8,317.2 L910.2,398.2 L910.5,395.7 L910.8,379.5 L911.1,345.4 L911.4,344.5 L911.7,357.3 L912.0,352.2 L912.3,379.5 L912.6,364.1 L912.9,347.9 L913.2,341.1 L913.5,329.2 L913.7,333.4 L914.0,356.5 L914.3,338.6 L914.6,345.4 L914.9,362.4 L915.2,359.0 L915.5,357.3 L915.8,349.6 L917.2,382.0 L917.5,381.2 L917.8,378.6 L918.1,351.3 L918.4,351.3 L918.7,347.1 L919.0,320.7 L919.3,333.4 L919.6,304.5 L919.8,310.4 L920.1,319.8 L920.4,327.5 L920.7,317.2 L921.0,332.6 L921.3,336.9 L921.6,331.7 L921.9,330.9 L922.2,319.8 L922.5,336.9 L922.8,327.5 L924.2,283.1 L924.5,301.9 L924.8,285.7 L925.1,307.9 L925.4,318.1 L925.7,338.6 L925.9,341.1 L926.2,331.7 L926.5,312.1 L926.8,303.6 L927.1,293.4 L927.4,293.4 L927.7,295.9 L928.0,307.9 L928.3,307.9 L928.6,289.1 L928.9,288.3 L929.2,263.5 L929.5,290.8 L929.8,294.2 L931.1,369.2 L931.5,326.6 L931.8,330.9 L932.0,332.6 L932.3,319.0 L932.6,305.3 L932.9,284.9 L933.2,284.0 L933.5,264.4 L933.8,281.4 L934.1,280.6 L934.4,279.7 L934.7,300.2 L935.0,281.4 L935.3,267.0 L935.6,272.9 L935.9,272.1 L936.2,249.0 L936.4,267.0 L936.7,251.6 L938.1,263.5 L938.4,283.1 L938.7,284.0 L939.0,279.7 L939.3,269.5 L939.6,290.8 L939.9,290.0 L940.2,281.4 L940.5,288.3 L940.8,297.6 L941.1,281.4 L941.4,295.1 L941.7,282.3 L942.0,297.6 L942.3,278.9 L942.6,296.8 L942.8,274.6 L943.1,296.8 L943.4,294.2 L943.7,301.0 L945.1,325.8 L945.4,313.0 L945.7,281.4 L946.0,283.1 L946.3,287.4 L946.6,283.1 L946.9,274.6 L947.2,274.6 L947.5,282.3 L947.8,293.4 L948.1,261.8 L948.4,243.9 L948.6,277.2 L948.9,277.2 L949.2,297.6 L949.5,295.9 L949.8,303.6 L950.1,304.5 L950.4,300.2 L950.7,284.0 L952.1,358.2 L952.4,336.9 L952.7,343.7 L953.0,342.8 L953.3,316.4 L953.6,313.8 L953.9,295.9 L954.2,307.9 L954.5,306.2 L954.7,295.9 L955.0,297.6 L955.3,267.0 L955.6,267.8 L955.9,277.2 L956.2,278.0 L956.5,256.7 L956.8,269.5 L957.1,251.6 L957.4,284.0 L957.7,280.6 L959.1,235.4 L959.4,238.8 L959.7,254.2 L960.0,270.4 L960.3,251.6 L960.6,263.5 L960.9,293.4 L961.1,302.8 L961.4,297.6 L961.7,282.3 L962.0,262.7 L962.3,267.8 L962.6,257.6 L962.9,271.2 L963.2,282.3 L963.5,268.7 L963.8,301.9 L964.1,294.2 L964.4,300.2 L964.7,289.1 L966.1,247.3 L966.4,276.3 L966.7,263.5 L967.0,283.1 L967.2,292.5 L967.5,297.6 L967.8,295.9 L968.1,304.5 L968.4,316.4 L968.7,336.9 L969.0,320.7 L969.3,345.4 L969.6,323.2 L969.9,326.6 L970.2,304.5 L970.5,318.1 L970.8,319.0 L971.1,301.9 L971.4,303.6 L971.6,288.3 L973.1,353.9 L973.3,372.7 L973.6,360.7 L973.9,365.0 L974.2,377.8 L974.5,341.1 L974.8,318.1 L975.1,318.1 L975.4,305.3 L975.7,304.5 L976.0,293.4 L976.3,302.8 L976.6,317.2 L976.9,321.5 L977.2,319.0 L977.5,327.5 L977.7,298.5 L978.0,311.3 L978.3,312.1 L978.6,305.3 L980.0,307.0 L980.3,294.2 L980.6,271.2 L980.9,272.9 L981.2,278.9 L981.5,268.7 L981.8,284.0 L982.1,304.5 L982.4,290.0 L982.7,285.7 L983.0,301.0 L983.3,312.1 L983.6,312.1 L983.8,302.8 L984.1,302.8 L984.4,311.3 L984.7,307.9 L985.0,292.5 L985.3,286.6 L985.6,309.6 L987.0,353.0 L987.3,362.4 L987.6,336.0 L987.9,337.7 L988.2,318.1 L988.5,316.4 L988.8,316.4 L989.1,302.8 L989.4,284.0 L989.7,292.5 L989.9,303.6 L990.2,294.2 L990.5,278.0 L991.1,283.1 L991.4,275.5 L991.7,267.0 L992.0,266.1 L992.3,246.5 L992.6,252.5 L994.0,270.4 L994.3,280.6 L994.6,278.0 L994.9,266.1 L995.2,281.4 L995.5,277.2 L995.8,278.9 L996.0,278.9 L996.3,298.5 L996.6,286.6 L996.9,287.4 L997.2,294.2 L997.5,294.2 L997.8,284.0 L998.1,284.0 L998.4,273.8 L998.7,273.8 L999.0,263.5 L999.3,261.0 L999.6,259.3 L1001.0,292.5 L1001.3,286.6 L1001.6,292.5 L1001.9,302.8 L1002.1,319.8 L1002.4,322.4 L1002.7,298.5 L1003.0,295.9 L1003.3,307.0 L1003.6,306.2 L1003.9,314.7 L1004.2,306.2 L1004.5,275.5 L1004.8,296.8 L1005.1,290.8 L1005.4,287.4 L1005.7,314.7 L1006.0,313.0 L1006.3,310.4 L1006.5,302.8 L1006.8,310.4 L1008.0,301.0 L1008.3,317.2 L1008.6,284.9 L1008.9,267.0 L1009.2,290.8 L1009.5,277.2 L1009.8,272.1 L1010.1,270.4 L1010.4,250.8 L1010.7,265.2 L1010.9,272.1 L1011.2,278.9 L1011.5,296.8 L1011.8,301.9 L1012.1,309.6 L1012.4,306.2 L1012.7,309.6 L1013.0,303.6 L1013.3,323.2 L1013.6,306.2 L1015.0,256.7 L1015.3,272.9 L1015.6,272.1 L1015.9,282.3 L1016.2,278.9 L1016.5,309.6 L1016.8,310.4 L1017.0,300.2 L1017.3,303.6 L1017.6,311.3 L1017.9,315.5 L1018.2,301.0 L1018.5,316.4 L1018.8,301.0 L1019.1,301.9 L1019.4,296.8 L1019.7,289.1 L1020.0,296.8 L1020.3,295.1 L1020.6,294.2 L1020.9,312.1 L1022.0,360.7 L1022.3,368.4 L1022.6,340.3 L1022.9,352.2 L1023.2,351.3 L1023.5,339.4 L1023.8,352.2 L1024.1,330.0 L1024.4,325.8 L1024.7,326.6 L1025.0,324.1 L1025.3,323.2 L1025.6,322.4 L1025.8,311.3 L1026.1,314.7 L1026.4,306.2 L1026.7,303.6 L1027.0,278.0 L1027.3,272.1 L1027.6,272.9 L1029.0,292.5 L1029.3,273.8 L1029.6,284.0 L1029.9,291.7 L1030.2,311.3 L1030.5,299.3 L1030.8,307.9 L1031.1,314.7 L1031.4,315.5 L1031.7,313.0 L1031.9,301.9 L1032.2,304.5 L1032.5,313.8 L1032.8,304.5 L1033.1,300.2 L1033.4,292.5 L1033.7,298.5 L1034.0,311.3 L1034.3,330.0 L1034.6,321.5 L1034.9,310.4 L1036.1,304.5 L1036.3,298.5 L1036.6,287.4 L1036.9,290.0 L1037.2,268.7 L1037.5,266.1 L1037.8,267.8 L1038.1,278.0 L1038.4,298.5 L1038.7,296.8 L1039.0,313.0 L1039.3,306.2 L1039.6,303.6 L1039.9,309.6 L1040.2,319.8 L1040.5,313.0 L1040.7,313.0 L1041.0,300.2 L1041.3,305.3 L1041.6,291.7 L1043.1,319.0 L1043.4,335.1 L1043.7,320.7 L1044.0,321.5 L1044.3,343.7 L1044.6,336.0 L1044.9,331.7 L1045.1,332.6 L1045.4,341.1 L1045.7,354.8 L1046.0,338.6 L1046.3,348.8 L1046.6,329.2 L1046.9,313.0 L1047.2,284.0 L1047.5,298.5 L1047.8,299.3 L1048.1,315.5 L1048.4,285.7 L1048.7,281.4 L1050.1,315.5 L1050.4,294.2 L1050.7,292.5 L1051.0,304.5 L1051.3,287.4 L1051.6,281.4 L1051.9,297.6 L1052.2,313.0 L1052.5,308.7 L1052.8,303.6 L1053.1,295.9 L1053.4,298.5 L1053.7,295.1 L1053.9,298.5 L1054.2,307.0 L1054.5,307.9 L1054.8,321.5 L1055.1,308.7 L1055.4,322.4 L1055.7,307.9 L1057.2,351.3 L1057.5,313.8 L1057.8,291.7 L1058.1,278.0 L1058.3,278.0 L1058.6,267.8 L1058.9,261.8 L1059.2,266.1 L1059.5,278.9 L1059.8,291.7 L1060.1,289.1 L1060.4,297.6 L1060.7,291.7 L1061.0,280.6 L1061.3,277.2 L1061.6,267.0 L1061.9,263.5 L1062.2,243.9 L1062.5,250.8 L1062.7,261.8 L1064.2,280.6 L1064.5,254.2 L1064.7,232.9 L1065.0,256.7 L1065.3,217.5 L1065.6,213.2 L1065.9,240.5 L1066.2,244.8 L1066.5,253.3 L1066.8,264.4 L1067.1,282.3 L1067.4,279.7 L1067.7,273.8 L1068.0,265.2 L1068.3,261.8 L1068.6,255.9 L1068.8,279.7 L1069.1,267.8 L1069.4,275.5 L1069.7,294.2 L1070.0,275.5 L1071.2,212.4 L1071.5,227.7 L1071.8,226.0 L1072.1,256.7 L1072.4,249.9 L1072.7,271.2 L1073.0,280.6 L1073.9,230.3 L1074.2,246.5 L1074.4,243.1 L1074.7,238.0 L1075.0,238.0 L1075.3,260.1 L1075.6,261.8 L1075.9,284.9 L1076.2,301.9 L1076.5,301.0 L1076.8,308.7 L1078.2,358.2 L1078.5,353.9 L1079.4,395.7 L1079.6,370.1 L1079.9,354.8 L1080.2,360.7 L1080.5,353.0 L1080.8,336.0 L1081.1,348.8 L1081.4,369.2 L1081.7,340.3 L1082.0,338.6 L1082.4,336.0 L1082.7,326.6 L1083.7,361.6 L1084.0,327.5" fill="none" stroke="#ff7f0e" stroke-width="1.1" opacity="0.85"/><text x="616" y="572" font-size="11" fill="#888">time 0..80 s — altitude (blue) &amp; roll (orange)</text></svg>