<svg xmlns="http://www.w3.org/2000/svg" width="1140" height="600" font-family="sans-serif" font-size="13"><rect width="1140" height="600" fill="white"/><text x="20" y="26" font-size="15" fill="#333">Coludo flight</text><rect x="20" y="40" width="540" height="540" fill="#fbfbfb" stroke="#ddd"/><rect x="50" y="242" width="305" height="65" fill="#cde" stroke="#369" opacity="0.7"/><text x="50" y="237" fill="#369" font-size="12">landing zone</text><circle cx="243" cy="345" r="5" fill="black"/><text x="251" y="349" font-size="12">pad</text><path d="M243.5,344.6 L243.5,344.6 L243.5,344.6 L243.5,344.6 L243.5,344.6 L243.5,344.6 L243.5,344.6 L243.5,344.6 L243.5,344.6 L243.5,344.6 L243.5,344.6 L243.5,344.6 L243.5,344.6 L243.5,344.6 L243.5,344.6 L243.5,344.6 L243.5,344.6 L243.5,344.6 L243.5,344.6 L243.5,344.6 L243.5,344.6 L243.5,344.6 L243.5,344.6 L243.5,344.6 L243.5,344.6 L243.5,344.6 L243.5,344.6 L243.5,344.6 L243.5,344.6 L243.5,344.6 L243.5,344.6 L243.5,344.6 L243.5,344.6 L243.5,344.6 L243.5,344.6 L243.5,344.6 L243.5,344.6 L243.5,344.6 L243.5,344.6 L243.5,344.6 L243.5,344.6 L243.5,344.6 L243.5,344.6 L243.5,344.6 L243.5,344.6 L243.5,344.6 L243.5,344.6 L243.5,344.6 L243.5,344.6 L243.5,344.6 L243.5,344.6 L243.5,344.6 L243.5,344.6 L243.5,344.6 L243.5,344.6 L243.5,344.6 L243.5,344.6 L243.5,344.6 L243.5,344.6 L243.5,344.3 L243.5,343.9 L243.5,343.6 L244.5,343.6 L244.5,343.2 L244.5,342.8 L244.5,342.8 L245.1,342.8 L245.1,342.5 L245.1,342.1 L246.8,342.1 L246.8,341.7 L246.8,341.7 L246.8,341.7 L248.4,341.4 L248.4,341.4 L249.7,341.0 L249.7,341.0 L249.7,341.0 L250.1,341.0 L250.1,340.7 L251.7,340.7 L251.7,340.7 L251.7,340.7 L253.3,340.7 L253.3,340.7 L255.0,340.7 L255.0,340.7 L255.0,340.7 L255.0,340.7 L256.6,340.7 L258.2,340.7 L258.2,341.0 L259.9,341.0 L259.9,341.0 L260.2,341.0 L260.2,341.4 L261.5,341.4 L263.2,341.7 L263.2,341.7 L264.8,342.1 L264.8,342.1 L265.4,342.1 L266.4,342.5 L266.4,342.5 L268.1,342.5 L268.1,342.8 L269.7,342.8 L270.7,342.8 L270.7,342.8 L271.3,342.8 L271.3,342.8 L273.0,342.8 L273.0,343.2 L274.6,343.2 L274.6,343.2 L275.9,343.2 L275.9,343.2 L276.2,343.2 L276.2,343.2 L277.9,343.2 L277.9,343.6 L279.5,343.6 L281.2,343.6 L281.2,343.6 L282.5,343.6 L282.5,343.9 L282.8,343.9 L284.4,343.9 L284.4,343.9 L286.1,343.9 L286.1,344.3 L286.4,344.3 L286.4,344.3 L287.7,344.3 L287.7,344.6 L289.3,344.6 L291.0,344.6 L291.0,345.0 L291.6,345.0 L291.6,345.0 L292.6,345.4 L292.6,345.4 L294.3,345.4 L295.9,345.4 L295.9,345.7 L296.9,345.7 L296.9,345.7 L297.5,346.1 L297.5,346.1 L299.2,346.1 L300.8,346.5 L300.8,346.5 L302.4,346.5 L302.4,346.8 L303.4,346.8 L304.1,347.2 L304.1,347.2 L305.7,347.6 L305.7,347.6 L307.4,347.6 L308.7,347.9 L308.7,347.9 L309.0,348.3 L309.0,348.3 L310.6,348.6 L312.3,348.6 L312.3,349.0 L312.6,349.0 L312.6,349.0 L313.9,349.4 L315.5,349.4 L315.5,349.4 L317.2,349.7 L317.2,349.7 L317.8,349.7 L317.8,349.7 L318.8,350.1 L320.5,350.1 L320.5,350.1 L322.1,350.1 L322.1,350.1 L323.1,350.1 L323.1,350.1 L323.7,350.1 L323.7,350.1 L325.4,350.5 L325.4,350.5 L327.0,350.5 L328.6,350.8 L328.6,350.8 L329.0,350.8 L330.3,351.2 L330.3,351.2 L331.9,351.5 L333.5,351.5 L333.5,351.5 L334.9,351.9 L334.9,351.9 L335.2,351.9 L336.8,352.3 L336.8,352.3 L338.5,352.3 L338.5,352.6 L338.8,352.6 L340.1,353.0 L340.1,353.0 L341.7,353.0 L341.7,353.4 L343.4,353.4 L344.0,353.7 L344.0,353.7 L345.0,353.7 L345.0,354.1 L346.6,354.1 L348.3,354.4 L348.3,354.4 L349.9,354.4 L349.9,354.8 L351.2,354.8 L351.6,355.2 L351.6,355.2 L353.2,355.5 L353.2,355.5 L354.8,355.9 L355.2,355.9 L355.2,356.3 L356.5,356.3 L358.1,356.6 L358.1,357.0 L359.7,357.0 L361.7,357.3 L361.4,357.7 L361.4,357.7 L363.0,357.7 L364.7,357.7 L364.7,358.1 L365.0,358.1 L365.0,358.4 L366.3,358.4 L367.9,358.8 L369.6,359.2 L370.2,359.5 L371.2,359.5 L371.2,359.5 L372.8,359.9 L372.8,359.9 L374.5,360.2 L376.1,360.2 L376.1,360.6 L376.8,360.6 L377.7,360.6 L377.7,361.0 L379.4,361.0 L379.4,361.0 L381.0,361.0 L381.4,361.0 L381.4,361.0 L382.7,361.3 L382.7,361.3 L384.3,361.3 L385.9,361.3 L385.9,361.3 L386.6,361.0 L386.6,361.0 L387.6,361.0 L387.6,361.0 L387.6,361.0 L389.2,360.6 L390.8,360.6 L390.8,360.6 L391.2,360.2 L391.2,360.2 L392.5,360.2 L392.5,359.9 L392.5,359.9 L394.1,359.9 L394.1,359.9 L396.4,359.9 L396.4,359.9 L396.4,359.9 L397.4,359.9 L399.0,359.9 L399.0,359.9 L400.7,359.9 L400.7,359.9 L402.3,359.9 L403.0,360.2 L403.9,360.2 L403.9,360.2 L405.6,360.6 L405.6,360.6 L407.2,360.6 L408.2,361.0 L408.2,361.0 L408.9,361.0 L410.5,361.3 L412.1,361.3 L412.1,361.3 L413.4,361.3 L413.4,361.3 L413.8,361.3 L413.8,361.7 L415.4,361.7 L415.4,361.7 L419.3,361.7 L419.3,361.7 L418.7,361.7 L418.7,362.1 L420.3,362.1 L420.3,362.1 L422.0,362.1 L422.0,362.1 L423.6,362.1 L424.6,362.1 L425.2,362.1 L425.2,362.1 L426.9,362.1 L426.9,362.1 L428.5,362.1 L428.5,362.1 L429.8,362.4 L429.8,362.4 L431.8,362.4 L431.8,362.4 L433.4,362.8 L434.4,362.8 L434.4,362.8 L435.0,362.8 L435.0,362.8 L436.7,363.2 L436.7,363.2 L439.6,363.5 L439.6,363.5 L440.0,363.9 L441.6,363.9 L441.6,364.2 L443.2,364.2 L444.9,364.6 L444.9,364.6 L444.9,365.0 L448.1,365.0 L448.1,365.3 L449.8,365.7 L449.5,365.7 L449.5,366.1 L451.4,366.4 L453.1,366.4 L453.1,366.8 L454.7,366.8 L456.3,367.5 L456.3,367.9 L458.0,367.9 L459.6,367.9 L459.6,368.2 L459.9,368.2 L459.9,368.6 L461.2,368.6 L462.9,368.6 L464.5,369.0 L465.8,369.3 L465.8,369.3 L466.2,369.3 L466.2,369.3 L467.8,369.7 L469.4,369.7 L469.4,369.7 L471.1,369.7 L471.1,370.0 L472.7,370.0 L472.7,370.0 L474.3,370.4 L474.3,370.4 L476.0,370.4 L476.3,370.4 L476.3,370.8 L477.6,370.8 L479.2,371.1 L480.9,371.1 L480.9,371.1 L482.2,371.1 L482.2,371.1 L482.5,371.1 L482.5,371.1 L484.2,371.1 L484.2,371.1 L486.1,371.5 L486.1,371.5 L487.4,371.5 L487.4,371.5 L489.1,371.9 L490.7,371.9 L490.7,371.9 L492.7,371.9 L492.7,371.9 L494.0,372.2 L494.0,372.2 L495.6,372.6 L495.6,372.6 L497.3,372.6 L497.3,372.6 L497.3,372.9 L498.9,372.9 L498.9,372.9 L502.2,373.3 L502.5,373.3 L502.5,373.7 L503.8,373.7 L505.4,374.0 L505.4,374.0 L507.1,374.0 L507.1,374.4 L507.7,374.4 L510.4,374.8 L510.4,375.1 L512.0,375.1 L512.0,375.1 L512.3,375.1 L512.3,375.1 L513.6,375.5 L513.6,375.5 L515.3,375.5 L517.6,375.8 L517.6,375.8 L518.5,375.8 L518.5,376.2 L520.2,376.2 L521.8,376.2 L521.8,376.6 L523.5,376.6 L523.5,376.6 L525.1,376.9 L525.1,377.3 L526.7,377.3 L528.4,377.3 L528.4,377.7 L528.7,377.7 L530.0,377.7" fill="none" stroke="#1f77b4" stroke-width="1.7" opacity="0.85"/><circle cx="530" cy="378" r="4.5" fill="#1f77b4"/><text x="28" y="572" font-size="11" fill="#888">ground track — m from pad (N up)</text><rect x="580" y="40" width="540" height="540" fill="#fbfbfb" stroke="#ddd"/><text x="586" y="54" fill="#1f77b4" font-size="11">alt 196</text><text x="586" y="558" fill="#1f77b4" font-size="11">-100</text><path d="M1054.7,383.2 L1054.7,383.6 L1054.7,382.8 L1054.8,383.4 L1054.8,381.6 L1054.8,380.5 L1054.8,383.2 L1054.9,378.5 L1054.9,376.1 L1054.9,376.0 L1054.9,377.6 L1055.0,380.5 L1055.0,380.2 L1055.0,377.8 L1055.0,377.4 L1055.1,370.7 L1055.1,363.7 L1055.1,375.0 L1055.1,365.5 L1055.2,357.8 L1055.2,367.2 L1055.2,361.6 L1055.2,367.8 L1055.3,364.4 L1055.3,348.5 L1055.3,351.2 L1055.3,366.7 L1055.4,356.5 L1055.4,349.8 L1055.4,358.4 L1055.4,344.3 L1055.5,342.6 L1055.5,358.2 L1055.5,346.1 L1055.5,351.8 L1055.6,356.8 L1055.6,302.1 L1055.6,322.5 L1055.6,328.7 L1055.7,347.3 L1055.7,345.3 L1055.7,317.9 L1055.7,326.0 L1055.8,273.3 L1055.8,269.6 L1055.8,286.1 L1055.8,334.8 L1055.9,290.7 L1055.9,292.2 L1055.9,332.5 L1055.9,272.5 L1056.0,242.5 L1056.0,330.3 L1056.0,278.8 L1056.0,310.1 L1056.1,308.1 L1056.1,295.6 L1056.1,236.9 L1056.1,216.8 L1056.2,325.5 L1056.2,206.2 L1056.2,250.5 L1056.2,274.8 L1056.2,318.9 L1056.3,272.4 L1056.3,195.9 L1056.3,188.5 L1056.3,287.0 L1056.4,209.6 L1056.4,303.7 L1056.4,311.9 L1056.5,293.2 L1056.5,219.7 L1056.5,268.5 L1056.5,164.9 L1056.5,185.5 L1056.6,261.4 L1056.6,158.9 L1056.6,154.2 L1056.6,235.4 L1056.7,276.7 L1056.7,181.5 L1056.7,236.5 L1056.7,246.5 L1056.8,173.3 L1056.8,301.0 L1056.8,265.3 L1056.8,160.3 L1056.9,149.7 L1056.9,187.0 L1056.9,242.9 L1056.9,271.6 L1057.0,136.5 L1057.0,188.0 L1057.0,223.3 L1057.0,237.6 L1057.1,289.8 L1057.1,128.5 L1057.1,161.1 L1057.1,255.0 L1057.2,276.6 L1057.2,149.1 L1057.2,245.1 L1057.2,264.1 L1057.3,210.2 L1057.3,105.6 L1057.3,166.1 L1057.3,223.6 L1057.4,278.4 L1057.4,244.2 L1057.4,259.4 L1057.4,142.1 L1057.5,93.0 L1057.5,277.7 L1057.5,111.6 L1057.5,159.8 L1057.6,99.2 L1057.6,251.3 L1057.6,269.0 L1057.6,181.5 L1057.7,174.6 L1057.7,253.7 L1057.7,127.6 L1057.7,263.7 L1057.8,175.2 L1057.8,151.9 L1057.8,114.4 L1057.8,82.3 L1057.9,164.9 L1057.9,200.1 L1057.9,188.7 L1057.9,159.1 L1058.0,248.0 L1058.0,195.6 L1058.0,129.6 L1058.0,76.0 L1058.1,237.0 L1058.1,267.6 L1058.1,190.6 L1058.1,226.8 L1058.2,139.1 L1058.2,157.9 L1058.2,118.5 L1058.2,108.0 L1058.3,216.0 L1058.3,112.0 L1058.3,81.4 L1058.3,220.7 L1058.4,260.4 L1058.4,213.0 L1058.4,156.7 L1058.4,141.5 L1058.5,170.9 L1058.5,134.1 L1058.5,94.3 L1058.5,235.2 L1058.6,214.7 L1058.6,247.7 L1058.6,174.1 L1058.6,79.0 L1058.7,249.8 L1058.7,152.0 L1058.7,135.0 L1058.7,231.5 L1058.8,283.9 L1058.8,172.0 L1058.8,85.2 L1058.8,138.5 L1058.9,170.4 L1058.9,251.1 L1058.9,279.9 L1058.9,283.3 L1059.0,130.5 L1059.0,96.3 L1059.0,253.8 L1059.0,136.4 L1059.1,84.5 L1059.1,266.8 L1059.1,278.4 L1059.1,130.7 L1059.2,166.8 L1059.2,200.3 L1059.2,117.4 L1059.3,147.5 L1059.3,250.5 L1059.3,175.2 L1059.3,152.1 L1059.4,183.1 L1059.4,119.3 L1059.4,242.0 L1059.4,141.7 L1059.5,232.4 L1059.5,225.5 L1059.5,102.3 L1059.5,110.6 L1059.6,266.5 L1059.6,111.7 L1059.6,241.8 L1059.6,186.0 L1059.7,139.4 L1059.7,110.6 L1059.7,155.7 L1059.7,250.1 L1059.7,257.2 L1059.8,168.4 L1059.8,188.4 L1059.8,163.3 L1059.9,113.8 L1059.9,200.9 L1059.9,284.3 L1059.9,189.2 L1060.0,237.5 L1060.0,221.8 L1060.0,105.2 L1060.0,136.3 L1060.1,96.7 L1060.1,288.8 L1060.1,224.4 L1060.1,173.2 L1060.2,263.5 L1060.2,121.9 L1060.2,282.2 L1060.2,166.3 L1060.3,137.0 L1060.3,158.0 L1060.3,150.6 L1060.3,132.8 L1060.4,226.2 L1060.4,271.8 L1060.4,194.6 L1060.5,230.2 L1060.5,114.5 L1060.5,288.9 L1060.5,158.7 L1060.6,250.5 L1060.6,143.1 L1060.6,180.5 L1060.6,121.3 L1060.6,287.4 L1060.7,262.7 L1060.7,233.1 L1060.7,239.5 L1060.7,258.7 L1060.8,258.2 L1060.8,212.4 L1060.8,211.6 L1060.8,112.2 L1060.9,227.1 L1060.9,278.1 L1060.9,258.7 L1060.9,266.4 L1061.0,253.3 L1061.0,209.4 L1061.0,222.8 L1061.1,184.8 L1061.1,189.0 L1061.1,228.8 L1061.1,245.8 L1061.2,172.4 L1061.2,165.0 L1061.2,247.0 L1061.2,175.3 L1061.3,279.6 L1061.3,237.1 L1061.3,210.0 L1061.3,251.1 L1061.4,160.3 L1061.4,121.7 L1061.4,122.7 L1061.4,273.2 L1061.5,125.8 L1061.5,234.0 L1061.5,219.6 L1061.5,145.5 L1061.6,156.8 L1061.6,294.3 L1061.6,271.2 L1061.7,293.9 L1061.7,128.3 L1061.7,173.2 L1061.7,219.2 L1061.7,195.2 L1061.8,249.8 L1061.8,172.5 L1061.8,154.0 L1061.8,190.6 L1061.9,289.2 L1061.9,166.2 L1061.9,177.4 L1062.0,252.6 L1062.0,136.4 L1062.0,142.3 L1062.0,278.9 L1062.1,294.9 L1062.1,259.9 L1062.1,298.5 L1062.1,204.6 L1062.2,187.1 L1062.2,199.4 L1062.2,249.6 L1062.3,252.9 L1062.3,209.1 L1062.3,195.2 L1062.3,159.9 L1062.4,154.1 L1062.4,184.9 L1062.4,167.0 L1062.4,215.1 L1062.5,201.1 L1062.5,240.2 L1062.5,165.4 L1062.5,199.2 L1062.6,304.2 L1062.6,295.9 L1062.6,177.7 L1062.6,285.6 L1062.7,211.6 L1062.7,176.6 L1062.7,266.5 L1062.7,250.8 L1062.7,242.8 L1062.8,153.7 L1062.8,240.3 L1062.9,207.0 L1062.9,296.6 L1062.9,196.1 L1062.9,272.9 L1063.0,209.3 L1063.0,182.1 L1063.0,300.5 L1063.0,270.3 L1063.1,222.8 L1063.1,282.3 L1063.1,286.7 L1063.1,267.2 L1063.2,183.0 L1063.2,187.4 L1063.2,177.7 L1063.2,218.2 L1063.3,257.0 L1063.3,260.8 L1063.3,260.9 L1063.3,247.6 L1063.4,256.0 L1063.4,287.3 L1063.5,298.2 L1063.5,174.2 L1063.5,193.8 L1063.5,297.4 L1063.5,310.2 L1063.6,189.1 L1063.6,304.8 L1063.6,279.1 L1063.6,288.3 L1063.7,289.8 L1063.7,301.0 L1063.7,276.5 L1063.7,302.8 L1063.8,309.7 L1063.8,244.4 L1063.8,228.7 L1063.8,298.2 L1063.9,304.0 L1063.9,258.2 L1063.9,213.7 L1063.9,311.7 L1064.0,268.0 L1064.0,278.0 L1064.1,275.1 L1064.1,191.8 L1064.1,229.5 L1064.1,257.1 L1064.2,300.4 L1064.2,298.7 L1064.2,313.8 L1064.2,273.6 L1064.3,223.5 L1064.3,237.4 L1064.3,232.6 L1064.3,265.3 L1064.4,204.4 L1064.4,318.9 L1064.4,213.6 L1064.4,238.0 L1064.4,212.3 L1064.5,249.3 L1064.5,223.8 L1064.5,311.5 L1064.5,302.6 L1064.6,312.0 L1064.6,207.4 L1064.7,214.2 L1064.7,214.0 L1064.7,287.0 L1064.7,277.4 L1064.8,279.7 L1064.8,220.0 L1064.8,232.7 L1064.8,232.9 L1064.9,322.3 L1064.9,282.0 L1064.9,234.1 L1064.9,323.8 L1065.0,267.0 L1065.0,305.0 L1065.0,233.2 L1065.0,231.7 L1065.1,270.1 L1065.1,281.4 L1065.1,301.5 L1065.1,311.3 L1065.2,284.2 L1065.2,322.8 L1065.3,224.5 L1065.3,304.2 L1065.3,316.9 L1065.3,324.6 L1065.4,221.3 L1065.4,268.9 L1065.4,221.3 L1065.4,260.6 L1065.5,298.3 L1065.5,277.9 L1065.5,292.7 L1065.5,263.5 L1065.6,260.7 L1065.6,237.0 L1065.6,316.4 L1065.6,284.9 L1065.7,274.1 L1065.7,280.4 L1065.7,250.9 L1065.7,284.1 L1065.7,296.8 L1065.8,248.4 L1065.8,324.6 L1065.9,266.4 L1065.9,248.8 L1065.9,297.1 L1065.9,265.0 L1066.0,336.2 L1066.0,312.8 L1066.0,311.2 L1066.0,294.7 L1066.1,284.6 L1066.1,288.9 L1066.1,323.2 L1066.1,270.0 L1066.2,277.2 L1066.2,273.6 L1066.2,272.5 L1066.2,331.3 L1066.3,330.3 L1066.3,267.7 L1066.3,262.4 L1066.3,339.7 L1066.4,329.1 L1066.4,253.9 L1066.4,300.4 L1066.5,267.8 L1066.5,302.4 L1066.5,318.4 L1066.6,316.9 L1066.6,308.2 L1066.6,336.9 L1066.6,286.7 L1066.7,341.6 L1066.7,305.0 L1066.7,262.3 L1066.7,321.8 L1066.7,299.1 L1066.8,282.1 L1066.8,286.2 L1066.8,342.7 L1066.8,329.5 L1066.9,312.9 L1066.9,302.3 L1066.9,279.0 L1066.9,335.0 L1067.0,322.9 L1067.0,324.4 L1067.0,302.0 L1067.1,287.6 L1067.1,312.3 L1067.1,332.5 L1067.2,276.4 L1067.2,336.4 L1067.2,304.7 L1067.2,292.9 L1067.3,328.7 L1067.3,314.1 L1067.3,295.7 L1067.3,328.1 L1067.4,326.2 L1067.4,286.3 L1067.4,320.8 L1067.4,352.9 L1067.5,350.4 L1067.5,341.0 L1067.5,320.5 L1067.5,347.8 L1067.6,293.9 L1067.6,314.3 L1067.6,316.3 L1067.6,314.2 L1067.7,314.4 L1067.7,345.4 L1067.8,325.8 L1067.8,331.4 L1067.8,311.2 L1067.8,336.2 L1067.8,302.6 L1067.9,352.6 L1067.9,325.5 L1067.9,344.7 L1067.9,306.2 L1068.0,332.2 L1068.0,307.0 L1068.0,317.2 L1068.0,331.8 L1068.1,341.2 L1068.1,322.9 L1068.1,320.1 L1068.1,316.2 L1068.2,349.6 L1068.2,343.7 L1068.2,333.1 L1068.2,351.0 L1068.3,359.1 L1068.3,337.2 L1068.4,359.6 L1068.4,336.2 L1068.4,340.5 L1068.4,319.3 L1068.5,325.3 L1068.5,349.9 L1068.5,328.3 L1068.5,321.5 L1068.6,356.2 L1068.6,358.8 L1068.6,348.9 L1068.6,363.4 L1068.7,339.9 L1068.7,346.1 L1068.7,362.5 L1068.7,354.2 L1068.8,330.6 L1068.8,364.2 L1068.8,361.8 L1068.8,330.9 L1068.9,335.2 L1069.0,352.3 L1069.0,360.1 L1069.0,350.6 L1069.1,360.2 L1069.1,355.2 L1069.1,359.6 L1069.1,343.8 L1069.1,350.9 L1069.2,366.7 L1069.2,357.9 L1069.2,364.8 L1069.2,368.7 L1069.3,366.8 L1069.3,364.9 L1069.3,356.7 L1069.3,361.2 L1069.4,356.6 L1069.4,364.4 L1069.4,373.1 L1069.4,365.9 L1069.5,353.9 L1069.5,361.5 L1069.5,375.1 L1069.6,366.5 L1069.7,365.6 L1069.7,373.9 L1069.7,373.2 L1069.7,373.7 L1069.8,368.3 L1069.8,375.0 L1069.8,365.5 L1069.8,379.3 L1069.9,376.1 L1069.9,367.4 L1069.9,371.7 L1069.9,378.9 L1070.0,369.9 L1070.0,381.2 L1070.0,371.9 L1070.0,379.9 L1070.0,373.8 L1070.1,378.6 L1070.1,380.6 L1070.1,378.4 L1070.1,380.0 L1070.2,379.4 L1070.3,381.5 L1070.3,382.8 L1070.3,384.1 L1070.4,385.2 L1070.4,385.9 L1070.4,385.4 L1070.4,386.7 L1070.5,387.5 L1070.5,389.5 L1070.5,390.0 L1070.5,388.3 L1070.6,388.9 L1070.6,388.3 L1070.6,394.0 L1070.6,390.3 L1070.7,395.5 L1070.7,390.4 L1070.7,389.4 L1070.7,393.2 L1070.8,389.9 L1070.8,395.0 L1070.8,396.0 L1070.8,391.6 L1070.9,396.2 L1071.0,395.2 L1071.0,403.4 L1071.0,393.0 L1071.0,398.9 L1071.1,402.4 L1071.1,401.9 L1071.1,394.6 L1071.1,406.8 L1071.2,404.8 L1071.2,412.9 L1071.2,402.2 L1071.2,410.0 L1071.3,399.7 L1071.3,399.2 L1071.3,404.2 L1071.3,406.4 L1071.4,412.5 L1071.4,411.9 L1071.4,421.5 L1071.4,416.5 L1071.5,423.9 L1071.5,416.6 L1071.6,415.8 L1071.6,404.7 L1071.7,422.2 L1071.7,416.8 L1071.7,412.8 L1071.7,426.5 L1071.8,432.2 L1071.8,424.7 L1071.8,433.8 L1071.8,421.1 L1071.9,412.1 L1071.9,422.3 L1071.9,438.0 L1071.9,432.5 L1072.0,408.6 L1072.0,408.5 L1072.0,412.6 L1072.0,414.0 L1072.1,422.8 L1072.1,406.4 L1072.1,429.2 L1072.1,420.1 L1072.2,431.7 L1072.3,426.4 L1072.3,415.1 L1072.3,420.1 L1072.3,436.8 L1072.4,430.6 L1072.4,412.1 L1072.4,436.6 L1072.4,429.5 L1072.5,459.7 L1072.5,418.3 L1072.5,452.8 L1072.5,448.8 L1072.6,431.9 L1072.6,464.6 L1072.6,421.6 L1072.6,448.1 L1072.7,459.9 L1072.7,428.7 L1072.7,462.4 L1072.7,446.2 L1072.8,442.4 L1072.8,422.5 L1072.8,466.2 L1072.9,461.0 L1073.0,436.4 L1073.0,450.0 L1073.0,444.1 L1073.0,430.2 L1073.1,434.0 L1073.1,430.1 L1073.1,441.3 L1073.1,459.3 L1073.1,480.8 L1073.2,430.1 L1073.2,443.5 L1073.2,470.0 L1073.2,428.8 L1073.3,438.7 L1073.3,432.3 L1073.3,471.0 L1073.3,489.3 L1073.4,428.1 L1073.4,453.0 L1073.4,429.5 L1073.4,445.1 L1073.5,491.6 L1073.6,455.4 L1073.6,453.4 L1073.6,448.7 L1073.7,457.4 L1073.7,493.4 L1073.7,477.9 L1073.7,505.5 L1073.8,468.7 L1073.8,445.4 L1073.8,478.0 L1073.8,470.5 L1073.9,488.0 L1073.9,487.4 L1073.9,454.6 L1073.9,506.3 L1074.0,509.6 L1074.0,503.6 L1074.0,495.3 L1074.0,473.7 L1074.1,481.0 L1074.1,494.2 L1074.1,443.5 L1074.1,478.7 L1074.2,476.6 L1074.3,438.8 L1074.3,458.5 L1074.3,449.4 L1074.3,470.7 L1074.4,446.0 L1074.4,495.0 L1074.4,527.8 L1074.4,479.3 L1074.5,484.9 L1074.5,486.5 L1074.5,530.3 L1074.5,523.2 L1074.6,526.0 L1074.6,514.0 L1074.6,468.2 L1074.6,539.7 L1074.7,523.0 L1074.7,515.6 L1074.7,470.8 L1074.7,463.6 L1074.8,442.8 L1074.8,490.0 L1074.9,540.0 L1074.9,489.8 L1075.0,451.7 L1075.0,503.5 L1075.0,533.2 L1075.0,458.8 L1075.1,451.0 L1075.1,544.0 L1075.1,523.4 L1075.1,475.9 L1075.2,488.3 L1075.2,487.6 L1075.2,544.0 L1075.2,470.5 L1075.3,447.4 L1075.3,461.0 L1075.3,544.0 L1075.3,464.5 L1075.4,495.6 L1075.4,503.4 L1075.4,515.2 L1075.4,498.4 L1075.5,499.1 L1075.6,515.7 L1075.6,544.0 L1075.6,496.6 L1075.6,534.5 L1075.7,544.0 L1075.7,484.7 L1075.7,544.0 L1075.7,479.3 L1075.8,544.0 L1075.8,484.0 L1075.8,480.9 L1075.8,502.4 L1075.9,525.9 L1075.9,544.0 L1075.9,472.3 L1075.9,522.6 L1076.0,544.0 L1076.0,498.1 L1076.0,515.9 L1076.0,517.8 L1076.1,544.0 L1076.1,491.1 L1076.1,474.4 L1076.2,492.2 L1076.3,467.9 L1076.3,496.0 L1076.3,463.6 L1076.3,477.1 L1076.4,525.3 L1076.4,544.0 L1076.4,544.0 L1076.4,544.0 L1076.5,544.0 L1076.5,510.0 L1076.5,528.7 L1076.5,544.0 L1076.6,544.0 L1076.6,502.4 L1076.6,510.2 L1076.6,544.0 L1076.6,491.2 L1076.7,476.0 L1076.7,544.0 L1076.7,544.0 L1076.7,544.0 L1076.8,544.0 L1076.9,544.0 L1076.9,544.0 L1076.9,544.0 L1077.0,544.0 L1077.0,544.0 L1077.0,544.0 L1077.0,544.0 L1077.1,468.8 L1077.1,544.0 L1077.1,544.0 L1077.1,544.0 L1077.2,486.6 L1077.2,515.5 L1077.2,544.0 L1077.2,495.1 L1077.3,480.7 L1077.3,544.0 L1077.3,544.0 L1077.3,478.8 L1077.4,544.0 L1077.4,544.0 L1077.4,544.0 L1077.4,544.0 L1077.6,535.3 L1077.6,544.0 L1077.6,472.5 L1077.6,544.0 L1077.7,544.0 L1077.7,544.0 L1077.7,540.8 L1077.7,544.0 L1077.8,544.0 L1077.8,499.6 L1077.8,544.0 L1077.8,544.0 L1077.9,544.0 L1077.9,544.0 L1077.9,544.0 L1077.9,499.7 L1077.9,544.0 L1078.0,544.0 L1078.0,544.0 L1078.0,544.0 L1078.0,544.0 L1078.1,544.0 L1078.1,544.0 L1078.2,542.3 L1078.2,544.0 L1078.3,484.4 L1078.3,544.0 L1078.3,482.2 L1078.3,544.0 L1078.4,544.0 L1078.4,544.0 L1078.4,544.0 L1078.4,544.0 L1078.5,544.0 L1078.5,510.7 L1078.5,544.0 L1078.5,544.0 L1078.6,486.0 L1078.6,544.0 L1078.6,544.0 L1078.6,544.0 L1078.7,544.0 L1078.7,544.0 L1078.7,495.7 L1078.7,544.0 L1078.8,544.0 L1078.9,544.0 L1078.9,544.0 L1078.9,544.0 L1079.0,544.0 L1079.0,501.0 L1079.0,499.4 L1079.0,544.0 L1079.1,544.0 L1079.1,544.0 L1079.1,516.7 L1079.1,522.5 L1079.2,544.0 L1079.2,530.4 L1079.2,544.0 L1079.2,544.0 L1079.3,544.0 L1079.3,544.0 L1079.3,544.0 L1079.3,544.0 L1079.3,544.0 L1079.4,544.0 L1079.4,544.0 L1079.4,494.4 L1079.5,503.7 L1079.6,544.0 L1079.6,544.0 L1079.6,544.0 L1079.6,544.0 L1079.7,544.0 L1079.7,544.0 L1079.7,500.0 L1079.7,544.0 L1079.8,529.8 L1079.8,544.0 L1079.8,544.0 L1079.8,508.5 L1079.9,507.4 L1079.9,544.0 L1079.9,544.0 L1079.9,544.0 L1080.0,515.3 L1080.0,544.0 L1080.0,544.0 L1080.0,544.0 L1080.1,544.0 L1080.1,544.0 L1080.2,544.0 L1080.2,544.0 L1080.3,544.0 L1080.3,526.3 L1080.3,544.0 L1080.3,542.8 L1080.4,507.1 L1080.4,518.8 L1080.4,544.0 L1080.4,544.0 L1080.5,544.0 L1080.5,544.0 L1080.5,544.0 L1080.5,544.0 L1080.6,544.0 L1080.6,544.0 L1080.6,544.0 L1080.6,544.0 L1080.7,544.0 L1080.7,540.7 L1080.7,544.0 L1080.7,544.0 L1080.8,536.6 L1080.9,544.0 L1080.9,544.0 L1080.9,544.0 L1080.9,544.0 L1081.0,544.0 L1081.0,544.0 L1081.0,544.0 L1081.0,544.0 L1081.1,544.0 L1081.1,544.0 L1081.1,544.0 L1081.1,544.0 L1081.2,544.0 L1081.2,544.0 L1081.2,544.0 L1081.2,544.0 L1081.3,544.0 L1081.3,544.0 L1081.3,520.1 L1081.3,544.0 L1081.4,544.0 L1081.4,544.0 L1081.4,544.0 L1081.5,544.0 L1081.6,543.7 L1081.6,523.7 L1081.6,544.0 L1081.6,544.0 L1081.7,544.0 L1081.7,544.0 L1081.7,544.0 L1081.7,544.0 L1081.8,544.0 L1081.8,544.0 L1081.8,544.0 L1081.8,544.0 L1081.9,544.0 L1081.9,544.0 L1081.9,544.0 L1081.9,544.0 L1082.0,544.0 L1082.0,544.0 L1082.0,544.0 L1082.0,544.0 L1082.1,544.0 L1082.1,544.0 L1082.2,544.0 L1082.2,544.0 L1082.2,544.0 L1082.3,544.0 L1082.3,544.0 L1082.3,544.0 L1082.3,544.0 L1082.4,544.0 L1082.4,544.0 L1082.4,544.0 L1082.4,544.0 L1082.5,544.0 L1082.5,544.0 L1082.5,544.0 L1082.5,544.0 L1082.6,544.0 L1082.6,544.0 L1082.6,544.0 L1082.6,544.0 L1082.7,544.0 L1082.7,541.1 L1082.7,544.0 L1082.7,540.7 L1082.9,544.0 L1082.9,544.0 L1082.9,544.0 L1082.9,541.4 L1083.0,544.0 L1083.0,544.0 L1083.0,544.0 L1083.0,544.0 L1083.1,544.0 L1083.1,540.4 L1083.1,544.0 L1083.1,544.0 L1083.2,544.0 L1083.2,544.0 L1083.2,544.0 L1083.2,544.0 L1083.3,544.0 L1083.3,544.0 L1083.3,544.0 L1083.3,544.0 L1083.4,544.0 L1083.4,544.0 L1083.4,544.0 L1083.5,544.0 L1083.6,544.0 L1083.6,544.0 L1083.7,544.0 L1083.7,544.0 L1083.7,544.0 L1083.8,544.0 L1083.8,544.0 L1083.8,544.0 L1083.8,544.0 L1083.9,544.0 L1083.9,544.0 L1083.9,544.0 L1084.0,544.0" fill="none" stroke="#1f77b4" stroke-width="1.4" opacity="0.85"/><text x="1040" y="54" fill="#ff7f0e" font-size="11">roll 32</text><text x="1090" y="558" fill="#ff7f0e" font-size="11">-14</text><path d="M1054.7,404.9 L1054.7,401.9 L1054.7,404.9 L1054.8,405.9 L1054.8,408.0 L1054.8,407.0 L1054.8,404.9 L1054.9,408.0 L1054.9,407.0 L1054.9,405.9 L1054.9,407.0 L1055.0,407.0 L1055.0,403.9 L1055.0,408.0 L1055.0,400.9 L1055.1,405.9 L1055.1,400.9 L1055.1,396.8 L1055.1,390.7 L1055.2,391.7 L1055.2,390.7 L1055.2,396.8 L1055.2,393.8 L1055.3,397.8 L1055.3,384.6 L1055.3,398.8 L1055.3,394.8 L1055.4,381.6 L1055.4,367.4 L1055.4,355.2 L1055.4,359.2 L1055.5,375.5 L1055.5,360.3 L1055.5,380.6 L1055.5,386.6 L1055.6,336.9 L1055.6,336.9 L1055.6,338.9 L1055.6,321.7 L1055.7,372.4 L1055.7,321.7 L1055.7,326.8 L1055.7,369.4 L1055.8,336.9 L1055.8,330.8 L1055.8,316.6 L1055.8,339.9 L1055.9,289.2 L1055.9,299.3 L1055.9,308.5 L1055.9,281.1 L1056.0,354.2 L1056.0,265.8 L1056.0,327.8 L1056.0,316.6 L1056.1,296.3 L1056.1,242.5 L1056.1,227.3 L1056.1,237.4 L1056.2,269.9 L1056.2,296.3 L1056.2,315.6 L1056.2,230.3 L1056.2,238.4 L1056.3,291.2 L1056.3,235.4 L1056.3,307.5 L1056.3,260.8 L1056.4,215.1 L1056.4,195.8 L1056.4,251.6 L1056.5,228.3 L1056.5,246.6 L1056.5,265.8 L1056.5,219.1 L1056.5,167.4 L1056.6,255.7 L1056.6,162.3 L1056.6,182.6 L1056.6,199.9 L1056.7,308.5 L1056.7,288.2 L1056.7,163.3 L1056.7,189.7 L1056.8,302.4 L1056.8,285.1 L1056.8,182.6 L1056.8,183.6 L1056.9,240.5 L1056.9,272.9 L1056.9,313.6 L1056.9,292.2 L1057.0,265.8 L1057.0,209.0 L1057.0,230.3 L1057.0,108.5 L1057.1,129.8 L1057.1,200.9 L1057.1,186.7 L1057.1,248.6 L1057.2,231.3 L1057.2,222.2 L1057.2,133.9 L1057.2,286.1 L1057.3,268.9 L1057.3,202.9 L1057.3,114.6 L1057.3,213.0 L1057.4,161.3 L1057.4,200.9 L1057.4,232.3 L1057.4,105.4 L1057.5,157.2 L1057.5,202.9 L1057.5,194.8 L1057.5,148.1 L1057.6,287.2 L1057.6,234.4 L1057.6,176.5 L1057.6,87.2 L1057.7,104.4 L1057.7,222.2 L1057.7,224.2 L1057.7,263.8 L1057.8,180.6 L1057.8,222.2 L1057.8,205.9 L1057.8,84.1 L1057.9,225.2 L1057.9,124.7 L1057.9,146.0 L1057.9,227.3 L1058.0,94.3 L1058.0,162.3 L1058.0,130.8 L1058.0,89.2 L1058.1,205.9 L1058.1,179.5 L1058.1,123.7 L1058.1,76.0 L1058.2,158.2 L1058.2,205.9 L1058.2,258.7 L1058.2,402.9 L1058.3,404.9 L1058.3,384.6 L1058.3,392.7 L1058.3,396.8 L1058.4,363.3 L1058.4,363.3 L1058.4,356.2 L1058.4,332.8 L1058.5,347.1 L1058.5,358.2 L1058.5,364.3 L1058.5,353.1 L1058.6,279.0 L1058.6,345.0 L1058.6,351.1 L1058.6,318.6 L1058.7,350.1 L1058.7,300.4 L1058.7,310.5 L1058.7,322.7 L1058.8,349.1 L1058.8,339.9 L1058.8,325.7 L1058.8,326.8 L1058.9,338.9 L1058.9,349.1 L1058.9,349.1 L1058.9,380.6 L1059.0,392.7 L1059.0,390.7 L1059.0,385.6 L1059.0,337.9 L1059.1,363.3 L1059.1,311.5 L1059.1,346.0 L1059.1,347.1 L1059.2,368.4 L1059.2,364.3 L1059.2,362.3 L1059.3,323.7 L1059.3,316.6 L1059.3,333.9 L1059.3,377.5 L1059.4,331.8 L1059.4,351.1 L1059.4,308.5 L1059.4,390.7 L1059.5,333.9 L1059.5,350.1 L1059.5,365.3 L1059.5,395.8 L1059.6,396.8 L1059.6,380.6 L1059.6,371.4 L1059.6,400.9 L1059.6,362.3 L1059.7,335.9 L1059.7,362.3 L1059.7,326.8 L1059.7,315.6 L1059.8,363.3 L1059.8,321.7 L1059.8,295.3 L1059.9,342.0 L1059.9,298.3 L1059.9,377.5 L1059.9,332.8 L1060.0,375.5 L1060.0,383.6 L1060.0,341.0 L1060.0,382.6 L1060.1,328.8 L1060.1,333.9 L1060.1,384.6 L1060.1,355.2 L1060.2,337.9 L1060.2,297.3 L1060.2,326.8 L1060.2,388.7 L1060.3,361.3 L1060.3,389.7 L1060.3,369.4 L1060.3,379.5 L1060.4,384.6 L1060.4,357.2 L1060.4,332.8 L1060.5,367.4 L1060.5,352.1 L1060.5,357.2 L1060.5,360.3 L1060.6,382.6 L1060.6,369.4 L1060.6,378.5 L1060.6,402.9 L1060.6,409.0 L1060.7,387.7 L1060.7,392.7 L1060.7,418.1 L1060.7,410.0 L1060.8,416.1 L1060.8,409.0 L1060.8,381.6 L1060.8,417.1 L1060.9,407.0 L1060.9,420.1 L1060.9,414.1 L1060.9,417.1 L1061.0,421.2 L1061.0,439.4 L1061.0,459.7 L1061.1,428.3 L1061.1,409.0 L1061.1,389.7 L1061.1,405.9 L1061.2,425.2 L1061.2,450.6 L1061.2,430.3 L1061.2,423.2 L1061.3,441.5 L1061.3,432.3 L1061.3,411.0 L1061.3,397.8 L1061.4,400.9 L1061.4,416.1 L1061.4,419.1 L1061.4,440.5 L1061.5,430.3 L1061.5,424.2 L1061.5,461.8 L1061.5,443.5 L1061.6,440.5 L1061.6,461.8 L1061.6,471.9 L1061.7,486.1 L1061.7,445.5 L1061.7,430.3 L1061.7,426.2 L1061.7,408.0 L1061.8,419.1 L1061.8,390.7 L1061.8,396.8 L1061.8,400.9 L1061.9,360.3 L1061.9,394.8 L1061.9,396.8 L1062.0,394.8 L1062.0,375.5 L1062.0,359.2 L1062.0,395.8 L1062.1,377.5 L1062.1,380.6 L1062.1,358.2 L1062.1,394.8 L1062.2,429.3 L1062.2,389.7 L1062.2,378.5 L1062.3,387.7 L1062.3,409.0 L1062.3,402.9 L1062.3,432.3 L1062.4,425.2 L1062.4,404.9 L1062.4,389.7 L1062.4,404.9 L1062.5,394.8 L1062.5,397.8 L1062.5,370.4 L1062.5,397.8 L1062.6,417.1 L1062.6,403.9 L1062.6,416.1 L1062.6,423.2 L1062.6,411.0 L1062.7,398.8 L1062.7,410.0 L1062.7,392.7 L1062.7,404.9 L1062.8,375.5 L1062.8,362.3 L1062.9,348.1 L1062.9,380.6 L1062.9,368.4 L1062.9,372.4 L1063.0,396.8 L1063.0,404.9 L1063.0,402.9 L1063.0,386.6 L1063.1,395.8 L1063.1,405.9 L1063.1,416.1 L1063.1,405.9 L1063.2,414.1 L1063.2,408.0 L1063.2,453.6 L1063.2,428.3 L1063.3,439.4 L1063.3,420.1 L1063.3,427.3 L1063.3,419.1 L1063.4,414.1 L1063.4,372.4 L1063.5,393.8 L1063.5,380.6 L1063.5,386.6 L1063.5,394.8 L1063.5,371.4 L1063.6,378.5 L1063.6,401.9 L1063.6,409.0 L1063.6,391.7 L1063.7,415.1 L1063.7,386.6 L1063.7,377.5 L1063.7,371.4 L1063.8,380.6 L1063.8,410.0 L1063.8,393.8 L1063.8,382.6 L1063.9,398.8 L1063.9,423.2 L1063.9,419.1 L1063.9,397.8 L1064.0,404.9 L1064.0,338.9 L1064.1,358.2 L1064.1,386.6 L1064.1,390.7 L1064.1,392.7 L1064.2,382.6 L1064.2,385.6 L1064.2,398.8 L1064.2,390.7 L1064.3,412.0 L1064.3,394.8 L1064.3,387.7 L1064.3,380.6 L1064.4,394.8 L1064.4,402.9 L1064.4,398.8 L1064.4,407.0 L1064.4,396.8 L1064.5,397.8 L1064.5,388.7 L1064.5,399.8 L1064.5,429.3 L1064.6,402.9 L1064.6,446.5 L1064.7,444.5 L1064.7,417.1 L1064.7,408.0 L1064.7,411.0 L1064.8,436.4 L1064.8,412.0 L1064.8,403.9 L1064.8,410.0 L1064.9,394.8 L1064.9,422.2 L1064.9,421.2 L1064.9,433.3 L1065.0,434.4 L1065.0,424.2 L1065.0,447.6 L1065.0,407.0 L1065.1,417.1 L1065.1,409.0 L1065.1,411.0 L1065.1,414.1 L1065.2,416.1 L1065.2,413.0 L1065.3,431.3 L1065.3,431.3 L1065.3,434.4 L1065.3,438.4 L1065.4,419.1 L1065.4,418.1 L1065.4,410.0 L1065.4,401.9 L1065.5,383.6 L1065.5,392.7 L1065.5,402.9 L1065.5,412.0 L1065.6,429.3 L1065.6,424.2 L1065.6,411.0 L1065.6,434.4 L1065.6,419.1 L1065.7,456.7 L1065.7,453.6 L1065.7,450.6 L1065.7,448.6 L1065.8,432.3 L1065.8,410.0 L1065.9,376.5 L1065.9,389.7 L1065.9,392.7 L1065.9,363.3 L1066.0,372.4 L1066.0,332.8 L1066.0,374.5 L1066.0,391.7 L1066.1,366.3 L1066.1,371.4 L1066.1,388.7 L1066.1,391.7 L1066.2,333.9 L1066.2,359.2 L1066.2,364.3 L1066.2,358.2 L1066.3,367.4 L1066.3,364.3 L1066.3,392.7 L1066.3,387.7 L1066.4,416.1 L1066.4,436.4 L1066.4,423.2 L1066.5,410.0 L1066.5,413.0 L1066.5,421.2 L1066.6,396.8 L1066.6,398.8 L1066.6,397.8 L1066.6,397.8 L1066.7,413.0 L1066.7,380.6 L1066.7,399.8 L1066.7,384.6 L1066.7,394.8 L1066.8,412.0 L1066.8,385.6 L1066.8,380.6 L1066.8,378.5 L1066.9,384.6 L1066.9,395.8 L1066.9,415.1 L1066.9,410.0 L1067.0,401.9 L1067.0,407.0 L1067.0,405.9 L1067.1,379.5 L1067.1,349.1 L1067.1,370.4 L1067.2,384.6 L1067.2,412.0 L1067.2,382.6 L1067.2,403.9 L1067.3,411.0 L1067.3,420.1 L1067.3,445.5 L1067.3,452.6 L1067.4,449.6 L1067.4,409.0 L1067.4,413.0 L1067.4,429.3 L1067.5,414.1 L1067.5,436.4 L1067.5,405.9 L1067.5,420.1 L1067.6,407.0 L1067.6,397.8 L1067.6,405.9 L1067.6,403.9 L1067.7,342.0 L1067.7,333.9 L1067.8,374.5 L1067.8,383.6 L1067.8,356.2 L1067.8,394.8 L1067.8,395.8 L1067.9,404.9 L1067.9,396.8 L1067.9,429.3 L1067.9,396.8 L1068.0,408.0 L1068.0,404.9 L1068.0,410.0 L1068.0,393.8 L1068.1,370.4 L1068.1,339.9 L1068.1,354.2 L1068.1,370.4 L1068.2,418.1 L1068.2,440.5 L1068.2,412.0 L1068.2,411.0 L1068.3,338.9 L1068.3,390.7 L1068.4,365.3 L1068.4,392.7 L1068.4,407.0 L1068.4,409.0 L1068.5,400.9 L1068.5,396.8 L1068.5,398.8 L1068.5,414.1 L1068.6,388.7 L1068.6,382.6 L1068.6,368.4 L1068.6,381.6 L1068.7,380.6 L1068.7,390.7 L1068.7,398.8 L1068.7,400.9 L1068.8,413.0 L1068.8,409.0 L1068.8,399.8 L1068.8,398.8 L1068.9,375.5 L1069.0,442.5 L1069.0,442.5 L1069.0,459.7 L1069.1,438.4 L1069.1,409.0 L1069.1,434.4 L1069.1,410.0 L1069.1,415.1 L1069.2,402.9 L1069.2,397.8 L1069.2,397.8 L1069.2,382.6 L1069.3,395.8 L1069.3,400.9 L1069.3,411.0 L1069.3,420.1 L1069.4,401.9 L1069.4,439.4 L1069.4,425.2 L1069.4,421.2 L1069.5,486.1 L1069.5,492.2 L1069.5,442.5 L1069.6,317.6 L1069.7,372.4 L1069.7,358.2 L1069.7,389.7 L1069.7,413.0 L1069.8,411.0 L1069.8,432.3 L1069.8,418.1 L1069.8,424.2 L1069.9,409.0 L1069.9,410.0 L1069.9,426.2 L1069.9,424.2 L1069.9,416.1 L1070.0,445.5 L1070.0,433.3 L1070.0,437.4 L1070.0,462.8 L1070.1,421.2 L1070.1,441.5 L1070.1,463.8 L1070.1,454.7 L1070.2,422.2 L1070.3,485.1 L1070.3,477.0 L1070.3,465.8 L1070.4,436.4 L1070.4,458.7 L1070.4,431.3 L1070.4,456.7 L1070.5,450.6 L1070.5,400.9 L1070.5,405.9 L1070.5,387.7 L1070.6,403.9 L1070.6,402.9 L1070.6,413.0 L1070.6,414.1 L1070.7,405.9 L1070.7,399.8 L1070.7,409.0 L1070.7,415.1 L1070.8,446.5 L1070.8,463.8 L1070.8,488.2 L1070.8,447.6 L1070.9,508.5 L1071.0,470.9 L1071.0,469.9 L1071.0,484.1 L1071.0,474.0 L1071.1,453.6 L1071.1,492.2 L1071.1,430.3 L1071.1,412.0 L1071.2,437.4 L1071.2,409.0 L1071.2,420.1 L1071.2,414.1 L1071.3,416.1 L1071.3,456.7 L1071.3,415.1 L1071.3,424.2 L1071.4,440.5 L1071.4,413.0 L1071.4,408.0 L1071.4,389.7 L1071.5,398.8 L1071.5,396.8 L1071.6,451.6 L1071.6,421.2 L1071.7,443.5 L1071.7,457.7 L1071.7,405.9 L1071.7,414.1 L1071.8,404.9 L1071.8,392.7 L1071.8,378.5 L1071.8,394.8 L1071.9,366.3 L1071.9,385.6 L1071.9,390.7 L1071.9,337.9 L1072.0,385.6 L1072.0,363.3 L1072.0,385.6 L1072.0,376.5 L1072.1,357.2 L1072.1,360.3 L1072.1,343.0 L1072.1,336.9 L1072.2,394.8 L1072.3,278.0 L1072.3,298.3 L1072.3,278.0 L1072.3,337.9 L1072.4,344.0 L1072.4,384.6 L1072.4,393.8 L1072.4,372.4 L1072.5,376.5 L1072.5,383.6 L1072.5,386.6 L1072.5,397.8 L1072.6,399.8 L1072.6,390.7 L1072.6,394.8 L1072.6,400.9 L1072.7,390.7 L1072.7,388.7 L1072.7,386.6 L1072.7,397.8 L1072.8,355.2 L1072.8,375.5 L1072.8,401.9 L1072.9,358.2 L1073.0,354.2 L1073.0,378.5 L1073.0,354.2 L1073.0,375.5 L1073.1,407.0 L1073.1,401.9 L1073.1,398.8 L1073.1,400.9 L1073.1,395.8 L1073.2,403.9 L1073.2,405.9 L1073.2,393.8 L1073.2,385.6 L1073.3,376.5 L1073.3,391.7 L1073.3,369.4 L1073.3,381.6 L1073.4,393.8 L1073.4,391.7 L1073.4,420.1 L1073.4,423.2 L1073.5,408.0 L1073.6,448.6 L1073.6,455.7 L1073.6,487.1 L1073.7,497.3 L1073.7,431.3 L1073.7,429.3 L1073.7,416.1 L1073.8,394.8 L1073.8,402.9 L1073.8,364.3 L1073.8,398.8 L1073.9,396.8 L1073.9,392.7 L1073.9,395.8 L1073.9,392.7 L1074.0,400.9 L1074.0,407.0 L1074.0,396.8 L1074.0,413.0 L1074.1,408.0 L1074.1,403.9 L1074.1,398.8 L1074.1,402.9 L1074.2,447.6 L1074.3,450.6 L1074.3,514.6 L1074.3,478.0 L1074.3,413.0 L1074.4,397.8 L1074.4,394.8 L1074.4,394.8 L1074.4,403.9 L1074.5,381.6 L1074.5,389.7 L1074.5,403.9 L1074.5,388.7 L1074.6,407.0 L1074.6,411.0 L1074.6,408.0 L1074.6,418.1 L1074.7,436.4 L1074.7,419.1 L1074.7,440.5 L1074.7,413.0 L1074.8,411.0 L1074.8,419.1 L1074.9,339.9 L1074.9,378.5 L1075.0,372.4 L1075.0,376.5 L1075.0,341.0 L1075.0,379.5 L1075.1,334.9 L1075.1,377.5 L1075.1,392.7 L1075.1,382.6 L1075.2,400.9 L1075.2,413.0 L1075.2,397.8 L1075.2,396.8 L1075.3,407.0 L1075.3,442.5 L1075.3,409.0 L1075.3,402.9 L1075.4,399.8 L1075.4,412.0 L1075.4,438.4 L1075.4,407.0 L1075.4,395.8 L1075.6,357.2 L1075.6,365.3 L1075.6,390.7 L1075.6,391.7 L1075.7,401.9 L1075.7,408.0 L1075.7,408.0 L1075.7,409.0 L1075.8,410.0 L1075.8,396.8 L1075.8,396.8 L1075.8,382.6 L1075.9,339.9 L1075.9,369.4 L1075.9,408.0 L1075.9,411.0 L1076.0,414.1 L1076.0,402.9 L1076.0,402.9 L1076.0,353.1 L1076.1,345.0 L1076.1,389.7 L1076.1,377.5 L1076.2,276.0 L1076.3,282.1 L1076.3,320.7 L1076.3,363.3 L1076.3,387.7 L1076.4,367.4 L1076.4,380.6 L1076.4,393.8 L1076.4,385.6 L1076.5,394.8 L1076.5,362.3 L1076.5,393.8 L1076.5,399.8 L1076.6,409.0 L1076.6,420.1 L1076.6,412.0 L1076.6,445.5 L1076.6,416.1 L1076.7,431.3 L1076.7,449.6 L1076.7,425.2 L1076.7,422.2 L1076.8,412.0 L1076.9,330.8 L1076.9,321.7 L1076.9,356.2 L1077.0,375.5 L1077.0,370.4 L1077.0,334.9 L1077.0,360.3 L1077.1,365.3 L1077.1,356.2 L1077.1,375.5 L1077.1,401.9 L1077.2,430.3 L1077.2,427.3 L1077.2,421.2 L1077.2,410.0 L1077.3,403.9 L1077.3,421.2 L1077.3,429.3 L1077.3,412.0 L1077.4,409.0 L1077.4,411.0 L1077.4,395.8 L1077.4,404.9 L1077.6,526.7 L1077.6,491.2 L1077.6,516.6 L1077.6,482.1 L1077.7,433.3 L1077.7,456.7 L1077.7,462.8 L1077.7,435.4 L1077.8,469.9 L1077.8,420.1 L1077.8,427.3 L1077.8,403.9 L1077.8,404.9 L1077.9,396.8 L1077.9,418.1 L1077.9,404.9 L1077.9,408.0 L1078.0,407.0 L1078.0,392.7 L1078.0,380.6 L1078.0,388.7 L1078.1,379.5 L1078.1,402.9 L1078.2,443.5 L1078.2,477.0 L1078.3,430.3 L1078.3,496.3 L1078.3,423.2 L1078.3,453.6 L1078.4,442.5 L1078.4,423.2 L1078.4,426.2 L1078.4,412.0 L1078.5,411.0 L1078.5,412.0 L1078.5,441.5 L1078.5,438.4 L1078.6,417.1 L1078.6,413.0 L1078.6,409.0 L1078.6,390.7 L1078.7,404.9 L1078.7,396.8 L1078.7,399.8 L1078.7,395.8 L1078.8,376.5 L1078.9,418.1 L1078.9,454.7 L1078.9,425.2 L1079.0,457.7 L1079.0,420.1 L1079.0,422.2 L1079.0,398.8 L1079.1,403.9 L1079.1,376.5 L1079.1,370.4 L1079.1,364.3 L1079.2,347.1 L1079.2,381.6 L1079.2,364.3 L1079.2,386.6 L1079.3,378.5 L1079.3,394.8 L1079.3,383.6 L1079.3,408.0 L1079.3,411.0 L1079.4,415.1 L1079.4,426.2 L1079.4,414.1 L1079.5,544.0 L1079.6,500.3 L1079.6,477.0 L1079.6,443.5 L1079.6,449.6 L1079.7,433.3 L1079.7,428.3 L1079.7,433.3 L1079.7,428.3 L1079.8,409.0 L1079.8,412.0 L1079.8,405.9 L1079.8,395.8 L1079.9,395.8 L1079.9,411.0 L1079.9,402.9 L1079.9,408.0 L1080.0,420.1 L1080.0,407.0 L1080.0,397.8 L1080.0,397.8 L1080.1,387.7 L1080.1,389.7 L1080.2,388.7 L1080.2,352.1 L1080.3,376.5 L1080.3,390.7 L1080.3,373.4 L1080.3,404.9 L1080.4,412.0 L1080.4,405.9 L1080.4,423.2 L1080.4,405.9 L1080.5,397.8 L1080.5,399.8 L1080.5,402.9 L1080.5,391.7 L1080.6,407.0 L1080.6,379.5 L1080.6,391.7 L1080.6,368.4 L1080.7,398.8 L1080.7,397.8 L1080.7,384.6 L1080.7,392.7 L1080.8,412.0 L1080.9,397.8 L1080.9,397.8 L1080.9,369.4 L1080.9,388.7 L1081.0,385.6 L1081.0,383.6 L1081.0,359.2 L1081.0,392.7 L1081.1,384.6 L1081.1,385.6 L1081.1,370.4 L1081.1,370.4 L1081.2,354.2 L1081.2,363.3 L1081.2,368.4 L1081.2,360.3 L1081.3,389.7 L1081.3,403.9 L1081.3,382.6 L1081.3,364.3 L1081.4,375.5 L1081.4,401.9 L1081.4,417.1 L1081.5,282.1 L1081.6,360.3 L1081.6,392.7 L1081.6,403.9 L1081.6,408.0 L1081.7,375.5 L1081.7,366.3 L1081.7,389.7 L1081.7,391.7 L1081.8,425.2 L1081.8,403.9 L1081.8,405.9 L1081.8,402.9 L1081.9,435.4 L1081.9,427.3 L1081.9,429.3 L1081.9,436.4 L1082.0,429.3 L1082.0,419.1 L1082.0,441.5 L1082.0,450.6 L1082.1,428.3 L1082.1,437.4 L1082.2,478.0 L1082.2,459.7 L1082.2,437.4 L1082.3,461.8 L1082.3,464.8 L1082.3,423.2 L1082.3,455.7 L1082.4,437.4 L1082.4,419.1 L1082.4,417.1 L1082.4,428.3 L1082.5,409.0 L1082.5,401.9 L1082.5,402.9 L1082.5,407.0 L1082.6,384.6 L1082.6,374.5 L1082.6,391.7 L1082.6,379.5 L1082.7,387.7 L1082.7,404.9 L1082.7,395.8 L1082.7,392.7 L1082.9,394.8 L1082.9,395.8 L1082.9,381.6 L1082.9,386.6 L1083.0,371.4 L1083.0,372.4 L1083.0,391.7 L1083.0,400.9 L1083.1,400.9 L1083.1,403.9 L1083.1,395.8 L1083.1,380.6 L1083.2,376.5 L1083.2,385.6 L1083.2,395.8 L1083.2,410.0 L1083.3,409.0 L1083.3,392.7 L1083.3,374.5 L1083.3,383.6 L1083.4,355.2 L1083.4,391.7 L1083.4,408.0 L1083.5,443.5 L1083.6,506.4 L1083.6,492.2 L1083.7,425.2 L1083.7,421.2 L1083.7,423.2 L1083.8,416.1 L1083.8,428.3 L1083.8,420.1 L1083.8,398.8 L1083.9,403.9 L1083.9,412.0 L1083.9,431.3 L1084.0,386.6" fill="none" stroke="#ff7f0e" stroke-width="1.1" opacity="0.85"/><text x="616" y="572" font-size="11" fill="#888">time 0..840 s — altitude (blue) &amp; roll (orange)</text></svg>