<svg xmlns="http://www.w3.org/2000/svg" width="1140" height="600" font-family="sans-serif" font-size="13"><rect width="1140" height="600" fill="white"/><text x="20" y="26" font-size="15" fill="#333">Coludo flight</text><rect x="20" y="40" width="540" height="540" fill="#fbfbfb" stroke="#ddd"/><rect x="50" y="304" width="280" height="60" fill="#cde" stroke="#369" opacity="0.7"/><text x="50" y="299" fill="#369" font-size="12">landing zone</text><circle cx="227" cy="398" r="5" fill="black"/><text x="235" y="402" font-size="12">pad</text><path d="M228.0,397.7 L228.0,397.7 L228.0,397.7 L228.0,397.7 L228.0,397.7 L228.0,397.7 L228.0,397.7 L228.0,397.7 L228.0,397.7 L228.0,397.7 L228.0,397.7 L228.0,397.7 L228.0,397.7 L228.0,397.7 L228.0,397.7 L228.0,397.7 L228.0,397.7 L228.0,397.7 L228.0,397.7 L228.0,397.7 L228.0,397.7 L228.0,397.7 L228.0,397.7 L228.0,397.7 L228.0,397.7 L228.0,397.7 L228.0,397.7 L228.0,397.7 L228.0,397.7 L228.0,397.7 L228.0,397.7 L228.0,397.7 L228.0,397.7 L228.0,397.7 L228.0,397.7 L228.0,397.7 L228.0,397.7 L228.0,397.7 L228.0,397.7 L228.0,397.7 L228.0,397.7 L228.0,397.7 L228.0,397.7 L228.0,397.7 L228.0,397.7 L228.0,397.7 L228.0,397.7 L228.0,397.7 L228.0,397.7 L228.0,397.7 L228.0,397.7 L228.0,397.7 L228.0,397.0 L228.9,395.0 L231.0,392.7 L232.5,391.0 L233.7,389.3 L234.0,387.3 L235.5,385.0 L237.0,383.0 L238.5,381.7 L240.0,380.0 L241.5,378.0 L243.3,376.3 L244.5,375.0 L246.0,373.3 L248.1,371.6 L249.0,370.0 L252.1,368.3 L253.6,366.6 L256.6,365.3 L257.8,364.3 L259.6,362.6 L262.6,361.3 L263.8,360.3 L265.6,358.3 L267.4,356.6 L268.6,355.3 L271.6,354.0 L272.2,352.6 L274.6,351.0 L277.1,348.6 L277.7,347.3 L280.7,345.6 L282.2,343.6 L283.7,341.3 L285.2,339.3 L286.7,337.6 L287.9,335.6 L288.2,334.3 L289.7,331.9 L291.2,329.6 L291.5,327.3 L292.7,324.9 L294.2,322.9 L295.7,320.6 L296.3,318.9 L296.3,316.3 L297.2,314.3 L298.7,311.6 L298.7,308.9 L300.2,306.9 L300.2,304.6 L301.1,302.6 L301.1,299.9 L301.1,297.2 L301.7,294.6 L301.7,292.9 L301.7,290.2 L303.2,287.9 L303.2,285.9 L304.8,283.6 L306.3,280.9 L306.3,278.6 L306.6,276.2 L307.8,273.5 L309.3,271.9 L310.8,269.2 L312.0,267.2 L312.3,265.2 L313.8,262.9 L315.3,260.9 L315.6,258.9 L318.3,256.9 L319.8,254.5 L320.4,252.9 L321.3,251.2 L324.3,249.5 L325.8,248.2 L327.0,246.2 L328.8,244.9 L330.7,242.8 L331.9,241.5 L334.9,240.2 L336.4,238.2 L337.9,237.2 L339.7,235.8 L342.4,234.5 L344.5,233.2 L346.9,231.8 L349.9,230.8 L351.4,229.8 L354.4,228.8 L355.9,227.8 L357.5,227.2 L360.5,226.2 L363.5,225.5 L365.0,224.8 L368.0,224.2 L369.5,223.8 L372.5,223.5 L374.0,223.2 L377.0,222.8 L379.4,222.5 L381.5,222.2 L384.6,222.2 L387.6,222.2 L389.1,222.2 L392.1,222.5 L394.5,222.5 L396.6,222.8 L399.3,223.2 L401.1,223.5 L403.5,223.8 L407.1,224.2 L408.3,224.8 L411.7,225.5 L413.2,226.2 L416.2,227.2 L417.4,228.2 L422.2,229.5 L423.7,230.5 L425.2,231.5 L427.0,232.5 L429.7,233.5 L432.4,235.2 L434.2,236.5 L437.3,238.2 L438.8,239.5 L441.8,241.2 L442.1,242.8 L444.8,244.5 L446.3,245.5 L447.8,247.5 L449.3,248.9 L450.8,250.5 L451.1,251.9 L453.8,254.2 L455.3,255.9 L457.1,257.5 L458.3,259.9 L459.8,262.2 L461.3,263.9 L461.3,265.5 L462.8,267.9 L464.4,270.2 L465.9,272.5 L466.2,274.5 L467.4,277.9 L468.9,279.9 L470.4,282.9 L470.4,285.6 L471.0,287.2 L471.0,289.9 L471.9,291.9 L471.9,293.6 L471.9,296.2 L473.4,299.9 L473.4,302.2 L473.4,304.2 L474.9,306.6 L474.9,308.6 L474.9,311.3 L475.2,313.6 L476.4,315.6 L476.4,318.6 L477.9,320.3 L477.9,322.3 L479.4,324.9 L480.0,326.9 L480.9,329.3 L482.4,331.3 L483.9,332.9 L485.4,334.6 L486.6,336.6 L488.4,338.9 L490.3,341.9 L491.5,343.6 L493.0,345.0 L495.1,346.6 L496.0,348.0 L499.0,349.6 L500.5,351.3 L502.0,352.6 L505.0,353.6 L506.5,355.3 L509.5,356.3 L511.0,357.3 L514.0,358.6 L515.5,359.6 L517.1,360.6 L520.1,361.6 L521.6,362.6 L524.0,364.0 L526.1,365.0 L530.0,366.3" fill="none" stroke="#1f77b4" stroke-width="1.7" opacity="0.85"/><circle cx="530" cy="366" r="4.5" fill="#1f77b4"/><text x="28" y="572" font-size="11" fill="#888">ground track — m from pad (N up)</text><rect x="580" y="40" width="540" height="540" fill="#fbfbfb" stroke="#ddd"/><text x="586" y="54" fill="#1f77b4" font-size="11">alt 149</text><text x="586" y="558" fill="#1f77b4" font-size="11">-52</text><path d="M677.2,418.2 L677.9,417.9 L678.6,417.5 L679.7,417.3 L680.4,416.0 L681.1,415.6 L681.8,414.9 L682.5,413.9 L683.2,411.5 L683.9,410.4 L684.6,408.5 L685.3,407.9 L686.0,404.0 L686.8,403.2 L687.5,399.4 L688.2,399.0 L688.9,394.8 L689.6,393.8 L690.3,389.1 L691.0,386.0 L691.7,383.2 L692.5,379.9 L693.2,378.4 L693.9,370.5 L694.6,367.1 L695.3,367.3 L696.0,362.1 L696.7,355.2 L697.4,351.5 L698.1,345.9 L698.9,344.8 L699.6,337.5 L700.2,327.8 L700.9,331.5 L701.6,325.1 L702.3,315.5 L703.1,311.9 L703.8,311.5 L704.6,301.1 L705.3,290.0 L706.0,292.0 L706.7,280.7 L707.4,277.4 L708.1,279.8 L708.9,266.1 L709.6,270.2 L710.3,253.8 L711.0,257.8 L711.7,251.5 L712.4,244.7 L713.1,239.5 L713.8,239.7 L714.5,229.2 L715.3,233.9 L716.0,229.4 L716.7,214.8 L717.4,206.8 L718.1,220.9 L718.8,207.9 L719.5,200.7 L720.5,203.3 L721.2,198.8 L721.9,184.4 L722.6,180.5 L723.3,185.3 L724.0,194.3 L724.7,175.9 L725.4,185.7 L726.2,165.3 L726.9,167.9 L727.6,176.5 L728.3,166.8 L729.0,150.1 L729.7,149.7 L730.4,163.3 L731.1,157.5 L731.8,139.1 L732.6,146.4 L733.3,136.4 L734.0,149.9 L734.8,127.6 L735.5,128.0 L736.3,130.0 L737.0,123.8 L737.7,127.0 L738.4,138.7 L739.1,135.8 L739.8,136.7 L740.5,122.4 L741.2,113.9 L742.0,106.1 L742.7,110.5 L743.3,103.2 L744.0,105.6 L744.7,122.7 L745.4,102.3 L746.1,112.5 L746.8,95.1 L747.5,104.3 L748.3,91.3 L749.1,112.7 L749.8,109.2 L750.5,99.2 L751.2,83.8 L752.0,92.9 L752.7,107.2 L753.4,84.7 L754.1,98.8 L754.8,103.5 L755.5,79.5 L756.2,87.5 L756.9,94.1 L757.6,78.0 L758.4,97.1 L759.1,79.2 L759.8,82.3 L760.5,85.7 L761.2,94.3 L761.9,77.7 L762.6,102.3 L763.7,91.4 L764.4,82.8 L765.1,102.2 L765.8,102.3 L766.5,92.5 L767.2,82.1 L768.0,96.5 L768.7,100.3 L769.4,82.7 L770.1,98.8 L770.8,76.0 L771.5,79.0 L772.2,101.2 L773.0,85.5 L773.6,96.1 L774.3,96.8 L775.0,84.4 L775.7,89.7 L776.4,91.7 L777.1,96.7 L777.8,100.9 L778.6,109.8 L779.4,81.3 L780.0,89.3 L780.8,104.8 L781.5,107.9 L782.1,99.8 L782.9,82.8 L783.5,111.0 L784.3,111.1 L785.0,103.3 L785.7,83.7 L786.4,94.9 L787.2,89.7 L787.8,111.6 L788.6,107.6 L789.2,112.7 L790.0,98.0 L790.7,105.9 L791.4,113.5 L792.2,87.8 L792.9,94.6 L793.6,86.1 L794.3,115.1 L795.0,102.5 L795.8,117.2 L796.5,109.7 L797.2,113.3 L797.9,108.8 L798.6,95.3 L799.3,105.1 L800.0,117.5 L800.7,114.0 L801.4,101.1 L802.2,101.4 L802.9,91.3 L803.6,119.0 L804.3,114.5 L805.0,107.1 L805.7,103.4 L806.4,106.8 L807.5,106.6 L808.1,115.5 L808.9,102.0 L809.6,95.2 L810.4,102.1 L811.0,124.4 L811.7,121.8 L812.6,109.2 L813.3,113.3 L814.0,116.4 L814.7,119.1 L815.4,104.6 L816.1,127.4 L816.8,116.0 L817.5,119.8 L818.2,123.0 L818.9,107.6 L819.7,130.3 L820.4,117.6 L821.1,131.3 L822.5,108.0 L823.2,109.0 L823.9,127.4 L824.6,124.6 L825.3,127.4 L826.1,112.6 L826.8,137.2 L827.5,125.5 L828.2,112.7 L828.9,112.0 L829.6,124.0 L830.3,132.8 L831.0,138.6 L831.7,130.4 L832.5,121.0 L833.2,119.1 L833.9,129.7 L834.6,131.6 L835.3,136.1 L836.0,129.4 L837.4,133.4 L838.1,120.1 L838.9,145.4 L839.6,137.7 L840.3,134.8 L841.0,127.6 L841.7,151.6 L842.4,130.5 L843.1,129.7 L843.8,127.1 L844.5,136.6 L845.3,135.7 L846.0,155.1 L846.7,155.1 L847.4,141.7 L848.1,157.7 L848.8,156.0 L849.5,157.5 L850.2,138.5 L850.9,156.6 L852.4,136.1 L853.1,163.1 L853.8,153.0 L854.5,146.0 L855.2,158.8 L855.9,156.3 L856.6,160.4 L857.3,159.7 L858.1,155.1 L858.8,162.2 L859.5,155.9 L860.2,161.5 L860.9,166.8 L861.6,148.8 L862.3,170.4 L863.0,158.6 L863.7,169.6 L864.5,172.8 L865.2,174.5 L865.9,176.2 L867.3,168.6 L868.0,155.1 L868.7,173.0 L869.4,180.5 L870.1,174.6 L870.9,180.1 L871.6,170.6 L872.3,160.3 L873.0,161.6 L873.7,186.4 L874.4,165.7 L875.1,180.6 L875.8,182.7 L876.5,175.3 L877.3,169.2 L878.0,173.0 L878.7,184.6 L879.4,188.0 L880.1,178.4 L880.8,194.2 L882.2,188.2 L882.9,187.5 L883.7,196.5 L884.4,194.6 L885.1,190.6 L885.8,197.1 L886.5,182.0 L887.2,193.5 L887.9,194.3 L888.6,195.0 L889.3,200.7 L890.1,191.9 L890.8,196.2 L891.5,197.6 L892.2,197.6 L892.9,200.3 L893.6,210.5 L894.3,190.7 L895.0,197.6 L895.7,201.6 L896.5,212.2 L897.3,204.4 L898.0,205.0 L898.7,201.8 L899.4,216.5 L900.2,210.9 L900.9,211.2 L901.6,211.9 L902.3,207.9 L903.0,207.7 L903.7,216.2 L904.4,222.4 L905.1,223.6 L905.8,222.6 L906.6,224.4 L907.3,215.2 L908.0,223.5 L908.7,231.6 L909.4,215.5 L910.1,220.9 L910.8,232.8 L912.2,236.7 L913.0,224.8 L913.8,228.7 L914.4,231.7 L915.1,231.0 L915.9,232.4 L916.5,239.3 L917.2,232.2 L917.9,242.5 L918.7,244.5 L919.4,234.6 L920.1,232.7 L920.9,249.5 L921.5,241.1 L922.2,244.9 L922.9,240.5 L923.6,250.7 L924.3,251.6 L925.1,243.2 L925.8,257.1 L927.2,257.6 L927.9,258.5 L928.6,254.4 L929.4,259.3 L930.0,248.3 L930.7,264.5 L931.5,261.8 L932.2,252.6 L932.9,254.1 L933.6,259.9 L934.3,270.5 L935.0,268.8 L935.8,266.5 L936.5,265.5 L937.1,261.2 L937.9,273.4 L938.6,269.0 L939.3,272.5 L940.0,267.7 L940.7,272.4 L942.2,282.1 L942.8,281.3 L943.5,277.4 L944.2,279.7 L945.0,281.3 L945.7,283.4 L946.4,286.2 L947.2,277.3 L948.0,283.8 L948.7,286.0 L949.4,283.8 L950.1,283.2 L950.8,295.1 L951.5,294.8 L952.2,291.1 L952.9,292.3 L953.6,295.7 L954.3,299.8 L955.1,300.0 L955.8,297.6 L957.7,298.3 L958.3,305.6 L959.1,298.8 L959.8,304.5 L960.5,302.4 L961.2,309.1 L961.9,306.3 L962.6,308.9 L963.3,312.0 L964.0,313.0 L964.7,311.7 L965.4,313.7 L966.1,316.9 L966.9,317.4 L967.6,315.9 L968.3,322.7 L969.0,324.2 L969.7,325.6 L970.4,326.8 L971.1,325.1 L971.8,328.6 L973.3,327.8 L974.0,333.9 L974.7,331.8 L975.4,338.5 L976.1,339.1 L976.8,339.9 L977.5,342.3 L978.2,339.1 L978.9,340.4 L979.7,346.0 L980.4,345.3 L981.1,347.0 L981.8,343.1 L982.5,346.2 L983.3,346.3 L983.9,353.0 L984.6,349.3 L985.4,349.6 L986.2,356.9 L986.9,358.5 L988.9,359.0 L989.6,363.2 L990.3,361.1 L991.0,361.3 L991.6,363.8 L992.3,364.1 L993.0,367.0 L993.7,369.5 L994.4,368.4 L995.2,371.6 L995.9,370.4 L996.6,375.9 L997.3,374.6 L998.0,376.5 L998.7,378.1 L999.4,378.2 L1000.1,379.5 L1000.8,382.7 L1001.6,385.0 L1002.4,384.1 L1003.0,386.6 L1004.4,387.8 L1005.1,390.9 L1005.8,391.0 L1006.5,392.4 L1007.2,393.6 L1008.0,396.2 L1008.7,395.8 L1009.4,398.9 L1010.1,399.2 L1010.8,401.5 L1011.5,403.3 L1012.2,403.5 L1012.9,405.9 L1013.6,407.9 L1014.4,408.9 L1015.1,410.6 L1015.8,411.3 L1016.5,412.6 L1017.2,414.2 L1017.9,415.3 L1020.0,419.7 L1020.7,420.8 L1021.4,422.3 L1022.1,423.4 L1022.8,425.0 L1023.6,426.2 L1024.3,427.8 L1024.9,428.9 L1025.7,431.0 L1026.4,432.0 L1027.1,433.0 L1027.7,433.9 L1028.4,435.9 L1029.2,437.3 L1029.9,438.3 L1030.6,439.9 L1031.3,442.4 L1032.0,442.1 L1032.7,444.1 L1033.4,445.3 L1034.2,447.8 L1035.7,450.8 L1036.4,450.1 L1037.1,452.4 L1037.8,453.4 L1038.5,454.7 L1039.3,457.7 L1040.0,457.4 L1040.7,459.2 L1041.4,458.6 L1042.1,463.7 L1042.9,462.9 L1043.6,462.5 L1044.3,463.7 L1045.0,465.8 L1045.7,468.2 L1046.5,468.9 L1047.2,472.7 L1047.9,470.8 L1048.6,472.4 L1049.2,473.3 L1051.3,478.8 L1052.1,478.2 L1052.8,480.2 L1053.5,483.3 L1054.2,483.9 L1054.9,484.3 L1055.7,486.0 L1056.3,491.9 L1057.0,492.5 L1057.7,489.8 L1058.4,490.7 L1059.3,493.8 L1059.9,493.5 L1060.7,499.6 L1061.4,498.7 L1062.1,502.1 L1062.8,497.0 L1063.5,499.7 L1065.8,505.0 L1067.2,509.8 L1067.9,511.3 L1068.6,515.4 L1069.4,513.4 L1070.1,513.9 L1070.8,513.3 L1071.5,518.2 L1072.2,521.4 L1072.9,519.5 L1073.6,518.6 L1074.3,521.7 L1075.0,526.4 L1075.8,520.7 L1076.5,526.3 L1077.2,525.4 L1077.9,530.3 L1078.6,532.6 L1079.3,533.3 L1080.0,528.2 L1080.7,532.7 L1082.6,539.2 L1083.3,540.2 L1084.0,544.0" fill="none" stroke="#1f77b4" stroke-width="1.4" opacity="0.85"/><text x="1040" y="54" fill="#ff7f0e" font-size="11">roll 18</text><text x="1090" y="558" fill="#ff7f0e" font-size="11">-24</text><path d="M677.2,274.0 L677.8,274.0 L678.6,274.0 L679.7,274.0 L680.4,274.0 L681.1,274.0 L681.8,274.0 L682.5,274.0 L683.2,274.0 L683.9,274.0 L684.6,274.0 L685.3,274.0 L686.0,274.0 L686.8,274.0 L687.5,274.0 L688.2,274.0 L688.9,274.0 L689.6,274.0 L690.3,274.0 L691.0,274.0 L691.7,274.0 L692.4,274.0 L693.2,274.0 L693.9,274.0 L694.6,274.0 L695.3,274.0 L696.0,274.0 L696.7,274.0 L697.4,274.0 L698.1,274.0 L698.8,274.0 L699.6,274.0 L700.2,274.0 L700.9,274.0 L701.6,274.0 L702.3,274.0 L703.1,274.0 L703.8,274.0 L704.5,274.0 L705.2,274.0 L706.0,274.0 L706.7,274.0 L707.4,274.0 L708.1,274.0 L708.9,274.0 L709.6,274.0 L710.3,274.0 L711.0,274.0 L711.7,274.0 L712.4,274.0 L713.1,274.0 L713.8,274.0 L714.5,274.0 L715.3,274.0 L716.0,274.0 L716.7,274.0 L717.4,274.0 L718.1,274.0 L718.8,274.0 L719.5,274.0 L720.5,274.0 L721.2,274.0 L721.9,274.0 L722.6,274.0 L723.3,274.0 L724.0,274.0 L724.7,274.0 L725.4,274.0 L726.2,274.0 L726.9,274.0 L727.6,274.0 L728.3,274.0 L729.0,274.0 L729.7,274.0 L730.4,274.0 L731.1,274.0 L731.8,274.0 L732.6,274.0 L733.3,274.0 L734.0,274.0 L734.8,274.0 L735.5,274.0 L736.3,274.0 L737.0,274.0 L737.7,274.0 L738.4,274.0 L739.1,274.0 L739.8,274.0 L740.5,274.0 L741.2,274.0 L742.0,274.0 L742.7,274.0 L743.3,274.0 L744.0,274.0 L744.7,274.0 L745.4,274.0 L746.1,274.0 L746.8,274.0 L747.5,274.0 L748.2,274.0 L749.1,274.0 L749.8,274.0 L750.5,274.0 L751.2,274.0 L751.9,274.0 L752.7,274.0 L753.4,274.0 L754.1,274.0 L754.8,274.0 L755.5,274.0 L756.2,274.0 L756.9,274.0 L757.6,274.0 L758.3,274.0 L759.1,274.0 L759.8,274.0 L760.5,274.0 L761.2,274.0 L761.9,274.0 L762.6,274.0 L763.7,243.6 L764.3,220.0 L765.1,199.8 L765.8,181.8 L766.5,167.1 L767.2,144.6 L768.0,141.2 L768.7,126.6 L769.4,126.6 L770.1,114.2 L770.8,110.9 L771.5,97.4 L772.2,103.0 L772.9,106.4 L773.6,97.4 L774.3,100.8 L775.0,103.0 L775.7,92.9 L776.4,85.0 L777.1,100.8 L777.8,82.8 L778.6,89.5 L779.3,92.9 L780.0,90.6 L780.8,96.3 L781.5,99.6 L782.1,89.5 L782.9,96.3 L783.5,99.6 L784.3,100.8 L785.0,105.2 L785.7,109.8 L786.4,106.4 L787.2,119.9 L787.8,118.8 L788.6,121.0 L789.2,125.5 L789.9,134.5 L790.7,132.2 L791.4,139.0 L792.1,143.5 L792.9,141.2 L793.6,132.2 L794.3,144.6 L795.0,175.0 L795.8,221.1 L796.5,244.8 L797.2,283.0 L797.9,302.1 L798.6,334.8 L799.3,348.2 L800.0,370.8 L800.7,383.1 L801.4,410.1 L802.2,409.0 L802.9,419.1 L803.6,428.1 L804.3,434.9 L805.0,447.2 L805.7,442.8 L806.4,455.1 L807.5,451.8 L808.1,449.5 L808.9,449.5 L809.6,447.2 L810.4,451.8 L811.0,460.8 L811.7,450.6 L812.6,452.9 L813.2,448.4 L814.0,454.0 L814.7,455.1 L815.4,465.2 L816.1,451.8 L816.8,464.1 L817.5,455.1 L818.2,460.8 L818.9,465.2 L819.6,467.5 L820.4,450.6 L821.1,463.0 L822.5,463.0 L823.2,456.2 L823.9,466.4 L824.6,466.4 L825.3,449.5 L826.0,451.8 L826.8,467.5 L827.5,455.1 L828.2,456.2 L828.9,458.5 L829.6,454.0 L830.3,465.2 L831.0,464.1 L831.7,454.0 L832.4,459.6 L833.2,450.6 L833.9,466.4 L834.6,459.6 L835.3,463.0 L836.0,448.4 L837.4,466.4 L838.1,451.8 L838.8,463.0 L839.6,451.8 L840.3,464.1 L841.0,465.2 L841.7,458.5 L842.4,450.6 L843.1,457.4 L843.8,459.6 L844.5,466.4 L845.2,464.1 L846.0,446.1 L846.7,382.0 L847.4,356.1 L848.1,312.2 L848.8,287.5 L849.5,253.8 L850.2,233.5 L850.9,202.0 L852.4,173.9 L853.1,151.4 L853.8,133.4 L854.5,133.4 L855.2,118.8 L855.9,121.0 L856.6,112.0 L857.3,106.4 L858.0,104.1 L858.8,106.4 L859.5,101.9 L860.2,100.8 L860.9,98.5 L861.6,97.4 L862.3,90.6 L863.0,90.6 L863.7,88.4 L864.4,86.1 L865.2,90.6 L865.9,95.1 L867.3,97.4 L868.0,98.5 L868.7,94.0 L869.4,87.2 L870.1,98.5 L870.8,97.4 L871.6,83.9 L872.3,82.8 L873.0,85.0 L873.7,96.3 L874.4,85.0 L875.1,83.9 L875.8,94.0 L876.5,98.5 L877.2,83.9 L878.0,99.6 L878.7,94.0 L879.4,96.3 L880.1,98.5 L880.8,82.8 L882.2,82.8 L882.9,96.3 L883.6,89.5 L884.4,99.6 L885.1,94.0 L885.8,91.8 L886.5,97.4 L887.2,83.9 L887.9,82.8 L888.6,86.1 L889.3,97.4 L890.0,85.0 L890.8,83.9 L891.5,98.5 L892.2,91.8 L892.9,92.9 L893.6,94.0 L894.3,97.4 L895.0,92.9 L895.7,80.5 L896.4,80.5 L897.3,91.8 L898.0,81.6 L898.7,89.5 L899.4,98.5 L900.1,88.4 L900.9,90.6 L901.6,95.1 L902.3,96.3 L903.0,86.1 L903.7,91.8 L904.4,96.3 L905.1,91.8 L905.8,90.6 L906.5,96.3 L907.3,81.6 L908.0,86.1 L908.7,81.6 L909.4,96.3 L910.1,95.1 L910.8,94.0 L912.2,92.9 L912.9,88.4 L913.8,90.6 L914.4,94.0 L915.1,86.1 L915.9,90.6 L916.5,92.9 L917.2,80.5 L917.9,95.1 L918.7,88.4 L919.4,87.2 L920.1,95.1 L920.9,83.9 L921.5,82.8 L922.2,92.9 L922.9,81.6 L923.6,85.0 L924.3,94.0 L925.1,92.9 L925.8,81.6 L927.2,95.1 L927.9,86.1 L928.6,90.6 L929.4,99.6 L930.0,92.9 L930.7,86.1 L931.4,94.0 L932.1,80.5 L932.9,89.5 L933.6,85.0 L934.3,96.3 L935.0,97.4 L935.8,95.1 L936.5,98.5 L937.1,90.6 L937.8,81.6 L938.5,80.5 L939.3,92.9 L940.0,81.6 L940.7,86.1 L942.2,97.4 L942.8,79.4 L943.5,81.6 L944.2,90.6 L944.9,95.1 L945.7,95.1 L946.4,81.6 L947.2,80.5 L947.9,87.2 L948.6,96.3 L949.4,79.4 L950.1,95.1 L950.8,98.5 L951.5,98.5 L952.2,86.1 L952.9,81.6 L953.6,91.8 L954.3,94.0 L955.0,88.4 L955.8,96.3 L957.7,83.9 L958.3,89.5 L959.1,91.8 L959.7,90.6 L960.5,97.4 L961.2,89.5 L961.9,91.8 L962.6,97.4 L963.3,92.9 L964.0,94.0 L964.7,88.4 L965.4,85.0 L966.1,95.1 L966.8,88.4 L967.6,88.4 L968.3,81.6 L969.0,82.8 L969.7,94.0 L970.4,94.0 L971.1,97.4 L971.8,82.8 L973.3,105.2 L974.0,105.2 L974.7,96.3 L975.4,96.3 L976.1,92.9 L976.8,92.9 L977.5,97.4 L978.2,98.5 L978.9,103.0 L979.6,90.6 L980.4,99.6 L981.1,99.6 L981.8,97.4 L982.5,95.1 L983.3,90.6 L983.9,96.3 L984.6,95.1 L985.4,85.0 L986.1,80.5 L986.9,83.9 L988.8,85.0 L989.6,89.5 L990.3,94.0 L991.0,91.8 L991.6,87.2 L992.3,87.2 L993.0,87.2 L993.7,86.1 L994.4,82.8 L995.2,81.6 L995.9,81.6 L996.6,96.3 L997.3,92.9 L998.0,96.3 L998.7,91.8 L999.4,97.4 L1000.1,98.5 L1000.8,90.6 L1001.6,86.1 L1002.4,80.5 L1003.0,88.4 L1004.4,79.4 L1005.1,86.1 L1005.8,80.5 L1006.5,81.6 L1007.2,96.3 L1008.0,85.0 L1008.7,91.8 L1009.4,85.0 L1010.1,85.0 L1010.8,80.5 L1011.5,85.0 L1012.2,90.6 L1012.9,88.4 L1013.6,95.1 L1014.4,90.6 L1015.1,98.5 L1015.8,76.0 L1016.5,81.6 L1017.2,118.8 L1017.9,157.0 L1020.0,254.9 L1020.7,276.2 L1021.4,305.5 L1022.0,324.6 L1022.8,343.8 L1023.6,360.6 L1024.3,383.1 L1024.9,397.8 L1025.7,414.6 L1026.4,421.4 L1027.1,440.5 L1027.7,442.8 L1028.4,458.5 L1029.1,466.4 L1029.9,460.8 L1030.6,463.0 L1031.3,487.8 L1032.0,487.8 L1032.7,490.0 L1033.4,488.9 L1034.2,487.8 L1035.7,504.6 L1036.4,515.9 L1037.1,520.4 L1037.8,521.5 L1038.5,523.8 L1039.2,527.1 L1040.0,522.6 L1040.7,529.4 L1041.4,515.9 L1042.1,512.5 L1042.9,537.2 L1043.6,533.9 L1044.3,526.0 L1045.0,523.8 L1045.7,518.1 L1046.4,537.2 L1047.2,522.6 L1047.9,524.9 L1048.6,541.8 L1049.2,527.1 L1051.3,521.5 L1052.0,536.1 L1052.8,517.0 L1053.5,520.4 L1054.2,519.2 L1054.9,539.5 L1055.7,527.1 L1056.3,527.1 L1057.0,538.4 L1057.7,529.4 L1058.4,544.0 L1059.2,541.8 L1059.9,538.4 L1060.7,538.4 L1061.4,542.9 L1062.1,535.0 L1062.8,544.0 L1063.5,521.5 L1065.8,467.5 L1067.2,421.4 L1067.9,409.0 L1068.6,397.8 L1069.3,385.4 L1070.1,379.8 L1070.8,362.9 L1071.5,359.5 L1072.2,346.0 L1072.9,339.2 L1073.6,332.5 L1074.3,329.1 L1075.0,322.4 L1075.7,319.0 L1076.5,314.5 L1077.2,312.2 L1077.9,307.8 L1078.6,305.5 L1079.3,301.0 L1080.0,297.6 L1080.7,296.5 L1082.6,292.0 L1083.3,289.8 L1084.0,287.5" fill="none" stroke="#ff7f0e" stroke-width="1.1" opacity="0.85"/><text x="616" y="572" font-size="11" fill="#888">time 0..33 s — altitude (blue) &amp; roll (orange)</text></svg>