<svg xmlns="http://www.w3.org/2000/svg" width="1140" height="600" font-family="sans-serif" font-size="13"><rect width="1140" height="600" fill="white"/><text x="20" y="26" font-size="15" fill="#333">Coludo flight</text><rect x="20" y="40" width="540" height="540" fill="#fbfbfb" stroke="#ddd"/><rect x="50" y="305" width="284" height="61" fill="#cde" stroke="#369" opacity="0.7"/><text x="50" y="300" fill="#369" font-size="12">landing zone</text><circle cx="229" cy="400" r="5" fill="black"/><text x="237" y="404" font-size="12">pad</text><path d="M230.2,400.3 L230.2,400.3 L230.2,400.3 L230.2,400.3 L230.2,400.3 L230.2,400.3 L230.2,400.3 L230.2,400.3 L230.2,400.3 L230.2,400.3 L230.2,400.3 L230.2,400.3 L230.2,400.3 L230.2,400.3 L230.2,400.3 L230.2,400.3 L230.2,400.3 L230.2,400.3 L230.2,400.3 L230.2,400.3 L230.2,400.3 L230.2,400.3 L230.2,400.3 L230.2,400.3 L230.2,400.3 L230.2,400.3 L230.2,400.3 L230.2,400.3 L230.2,400.3 L230.2,400.3 L230.2,400.3 L230.2,400.3 L230.2,400.3 L230.2,400.3 L230.2,400.3 L230.2,400.3 L230.2,400.3 L230.2,400.3 L230.2,400.3 L230.2,400.3 L230.2,400.3 L230.2,400.3 L230.2,400.3 L230.2,400.3 L230.2,400.3 L230.2,400.3 L230.2,400.3 L230.2,400.3 L230.2,400.3 L230.2,400.3 L230.2,400.3 L230.2,400.3 L230.2,400.3 L230.2,400.3 L230.2,400.3 L230.2,399.6 L231.1,397.9 L231.8,395.6 L233.3,393.9 L236.0,391.9 L236.3,390.2 L237.9,387.8 L239.4,386.1 L240.9,384.8 L242.4,382.7 L244.0,380.7 L245.5,379.0 L247.0,377.3 L248.5,376.0 L250.1,374.3 L251.6,372.6 L254.6,371.2 L255.5,369.9 L257.7,368.5 L259.2,366.9 L260.7,365.5 L263.8,363.8 L265.3,363.1 L266.8,361.4 L268.3,360.1 L270.2,358.7 L271.4,357.1 L274.4,355.7 L275.1,354.0 L277.5,352.3 L279.9,350.3 L280.5,348.9 L282.1,346.9 L283.6,345.2 L286.0,343.2 L286.6,341.8 L288.2,339.5 L289.7,337.8 L290.9,335.8 L291.2,333.7 L292.7,331.4 L294.3,329.7 L294.6,327.3 L295.8,325.3 L297.3,322.9 L297.3,321.2 L298.8,318.9 L299.5,316.5 L299.5,314.5 L300.4,311.8 L300.4,309.7 L301.9,307.4 L301.9,305.0 L301.9,302.7 L303.4,300.6 L303.4,297.9 L303.4,295.9 L304.3,293.5 L304.3,291.2 L304.3,288.8 L304.9,286.8 L304.9,284.4 L306.5,282.0 L308.0,280.0 L308.0,277.3 L309.5,275.3 L309.8,273.3 L311.0,270.2 L312.6,267.8 L314.1,266.5 L315.3,264.1 L315.6,262.1 L317.1,259.7 L318.7,258.4 L319.0,256.0 L320.2,254.3 L323.2,252.3 L323.9,251.0 L324.8,248.9 L327.8,247.2 L329.3,245.5 L330.6,244.2 L332.4,242.2 L333.9,240.8 L335.4,239.1 L337.0,238.1 L340.3,236.8 L341.5,235.1 L343.1,234.1 L344.6,232.4 L347.6,231.7 L349.2,230.3 L350.7,229.3 L353.7,228.0 L355.3,227.0 L358.3,225.9 L358.6,225.3 L361.4,224.6 L363.5,223.9 L365.9,223.2 L367.8,222.6 L370.5,221.9 L372.6,221.6 L375.1,220.9 L378.1,220.5 L379.7,220.2 L382.7,219.9 L384.2,219.9 L387.3,219.5 L388.8,219.5 L391.9,219.5 L393.4,219.5 L396.4,219.5 L398.9,219.9 L401.0,220.2 L403.7,220.5 L405.6,220.9 L408.0,221.2 L410.2,221.9 L412.9,222.2 L414.7,222.9 L417.8,223.6 L419.3,224.6 L420.8,224.9 L422.0,225.9 L425.4,226.6 L428.1,227.6 L430.0,228.6 L431.5,229.7 L433.0,231.0 L436.1,232.0 L437.6,233.0 L439.1,234.4 L442.2,236.1 L443.7,237.1 L445.2,238.4 L447.1,239.8 L448.3,241.5 L451.3,243.2 L452.5,244.9 L454.4,246.2 L455.9,247.9 L456.2,249.9 L457.4,251.6 L460.5,253.3 L462.3,255.3 L462.0,257.4 L463.5,259.4 L465.0,261.1 L466.6,263.1 L466.6,265.5 L468.1,267.2 L469.6,269.5 L471.1,271.6 L471.4,273.6 L472.7,275.6 L474.2,278.0 L474.2,280.0 L475.7,282.0 L476.3,284.1 L477.2,286.4 L478.8,288.1 L480.3,290.5 L480.6,292.2 L481.8,294.2 L483.3,296.2 L485.5,300.3 L486.4,302.3 L489.4,304.0 L491.0,306.0 L492.2,308.1 L492.5,309.7 L494.0,311.4 L495.8,313.8 L497.1,315.2 L500.1,318.9 L501.6,320.9 L503.2,322.2 L504.7,324.3 L506.2,326.0 L507.7,327.7 L511.7,330.7 L513.8,332.4 L516.9,336.1 L519.9,337.8 L520.9,339.1 L523.0,340.8 L525.7,342.2 L526.0,343.5 L529.1,345.2 L530.0,346.9" fill="none" stroke="#1f77b4" stroke-width="1.7" opacity="0.85"/><circle cx="530" cy="347" r="4.5" fill="#1f77b4"/><text x="28" y="572" font-size="11" fill="#888">ground track — m from pad (N up)</text><rect x="580" y="40" width="540" height="540" fill="#fbfbfb" stroke="#ddd"/><text x="586" y="54" fill="#1f77b4" font-size="11">alt 141</text><text x="586" y="558" fill="#1f77b4" font-size="11">-51</text><path d="M1032.3,415.0 L1032.3,414.2 L1032.4,413.6 L1032.5,413.6 L1032.6,413.1 L1032.7,413.2 L1032.8,411.6 L1032.9,411.1 L1033.0,410.3 L1033.0,409.2 L1033.1,406.3 L1033.2,405.0 L1033.3,403.4 L1033.4,402.3 L1033.5,399.3 L1033.5,398.9 L1033.6,397.3 L1033.7,394.1 L1033.8,392.9 L1033.9,386.7 L1034.0,385.1 L1034.0,385.7 L1034.1,383.6 L1034.2,383.3 L1034.3,376.4 L1034.4,369.9 L1034.4,374.7 L1034.5,368.2 L1034.6,369.9 L1034.7,360.2 L1034.8,349.5 L1034.9,350.9 L1034.9,354.4 L1035.0,341.1 L1035.1,349.6 L1035.2,337.0 L1035.3,329.6 L1035.3,337.0 L1035.4,321.9 L1035.5,316.0 L1035.6,314.1 L1035.7,307.4 L1035.8,305.3 L1035.8,294.0 L1035.9,295.5 L1036.0,286.2 L1036.1,295.2 L1036.2,281.1 L1036.3,281.3 L1036.3,267.0 L1036.4,266.7 L1036.5,276.0 L1036.6,245.3 L1036.7,273.8 L1036.8,256.7 L1036.8,240.9 L1036.9,258.4 L1037.0,235.3 L1037.1,220.6 L1037.2,221.3 L1037.3,211.7 L1037.3,227.1 L1037.4,231.1 L1037.5,219.8 L1037.6,232.6 L1037.7,222.0 L1037.7,228.8 L1037.8,189.0 L1037.9,181.6 L1038.0,205.1 L1038.1,197.8 L1038.2,203.8 L1038.3,191.2 L1038.3,183.8 L1038.4,187.1 L1038.5,169.6 L1038.6,193.1 L1038.7,158.6 L1038.7,191.9 L1038.8,174.6 L1038.9,150.8 L1039.0,158.7 L1039.1,158.9 L1039.2,154.4 L1039.2,162.6 L1039.3,168.0 L1039.4,155.4 L1039.5,155.2 L1039.6,153.2 L1039.6,129.8 L1039.7,123.3 L1039.8,123.6 L1039.9,144.9 L1040.0,152.1 L1040.1,164.9 L1040.2,110.0 L1040.3,112.3 L1040.3,124.5 L1040.4,157.4 L1040.5,135.1 L1040.6,121.2 L1040.7,129.2 L1040.7,134.0 L1040.8,138.3 L1040.9,150.2 L1041.0,121.8 L1041.1,127.8 L1041.2,123.3 L1041.2,115.5 L1041.3,89.3 L1041.4,139.3 L1041.5,133.3 L1041.6,126.4 L1041.6,106.3 L1041.8,139.6 L1041.9,76.3 L1041.9,125.1 L1042.0,110.4 L1042.1,76.8 L1042.2,111.9 L1042.3,109.4 L1042.3,133.0 L1042.4,130.2 L1042.5,83.2 L1042.6,88.1 L1042.7,111.9 L1042.8,117.8 L1042.8,120.0 L1042.9,92.9 L1043.0,81.1 L1043.1,77.5 L1043.2,97.1 L1043.2,109.9 L1043.3,101.2 L1043.4,105.2 L1043.5,80.2 L1043.6,76.0 L1043.7,103.2 L1043.8,130.5 L1043.9,122.9 L1044.0,82.9 L1044.0,87.6 L1044.1,76.0 L1044.2,103.9 L1044.3,104.4 L1044.4,107.1 L1044.4,115.9 L1044.5,88.7 L1044.6,112.3 L1044.7,95.0 L1044.8,129.3 L1044.9,93.3 L1044.9,86.0 L1045.0,78.6 L1045.1,134.6 L1045.2,114.4 L1045.3,85.9 L1045.4,86.7 L1045.5,135.2 L1045.5,132.5 L1045.7,128.4 L1045.8,133.9 L1045.8,85.5 L1045.9,110.8 L1046.0,83.1 L1046.1,107.4 L1046.2,131.3 L1046.3,80.9 L1046.3,110.9 L1046.4,119.3 L1046.5,118.0 L1046.6,122.9 L1046.7,125.1 L1046.7,105.4 L1046.8,117.1 L1046.9,114.6 L1047.0,125.9 L1047.1,78.4 L1047.2,137.8 L1047.2,82.4 L1047.3,97.5 L1047.4,94.5 L1047.5,101.4 L1047.6,126.7 L1047.7,81.8 L1047.8,106.9 L1047.9,113.8 L1048.0,136.6 L1048.1,118.1 L1048.1,133.1 L1048.2,97.7 L1048.3,126.5 L1048.4,91.6 L1048.5,95.4 L1048.5,95.4 L1048.6,114.5 L1048.7,91.8 L1048.8,100.0 L1048.9,135.3 L1049.0,139.2 L1049.0,131.3 L1049.1,94.3 L1049.2,116.9 L1049.3,93.8 L1049.4,106.5 L1049.5,135.8 L1049.6,114.0 L1049.7,126.9 L1049.8,137.3 L1049.9,151.2 L1049.9,131.4 L1050.0,96.6 L1050.1,121.3 L1050.2,121.9 L1050.3,137.6 L1050.4,96.9 L1050.4,103.7 L1050.5,101.4 L1050.6,148.5 L1050.7,112.7 L1050.8,104.7 L1050.8,106.4 L1050.9,156.7 L1051.0,151.9 L1051.1,119.8 L1051.2,148.8 L1051.3,123.2 L1051.3,137.7 L1051.4,130.5 L1051.6,150.4 L1051.7,149.1 L1051.8,156.5 L1051.8,113.5 L1051.9,151.4 L1052.0,108.2 L1052.1,141.3 L1052.2,126.6 L1052.2,142.9 L1052.3,150.3 L1052.4,142.0 L1052.5,114.2 L1052.6,151.4 L1052.7,145.0 L1052.7,162.6 L1052.8,132.3 L1052.9,125.7 L1053.0,120.2 L1053.1,163.3 L1053.2,155.5 L1053.2,155.9 L1053.3,137.0 L1053.4,138.7 L1053.6,124.5 L1053.6,135.8 L1053.7,133.6 L1053.8,168.2 L1053.9,139.3 L1054.0,131.8 L1054.1,149.5 L1054.1,174.3 L1054.2,159.6 L1054.3,158.7 L1054.4,139.8 L1054.5,173.8 L1054.6,149.5 L1054.6,172.8 L1054.7,162.0 L1054.8,151.9 L1054.9,172.9 L1055.0,181.2 L1055.1,136.4 L1055.1,147.8 L1055.2,151.6 L1055.3,172.4 L1055.4,138.9 L1055.5,154.0 L1055.6,159.2 L1055.7,182.2 L1055.8,172.5 L1055.9,187.8 L1056.0,148.3 L1056.0,161.9 L1056.1,156.5 L1056.2,181.7 L1056.3,189.5 L1056.4,158.5 L1056.5,172.1 L1056.5,152.4 L1056.6,171.1 L1056.7,177.6 L1056.8,195.3 L1056.9,178.5 L1057.0,187.4 L1057.1,191.0 L1057.1,158.3 L1057.2,192.7 L1057.3,162.7 L1057.4,167.1 L1057.6,170.3 L1057.7,197.1 L1057.8,172.4 L1057.8,182.8 L1057.9,169.9 L1058.0,205.4 L1058.1,178.3 L1058.2,193.0 L1058.2,180.8 L1058.3,197.2 L1058.4,200.1 L1058.5,187.7 L1058.6,212.0 L1058.7,188.1 L1058.7,213.1 L1058.8,179.3 L1058.9,186.7 L1059.0,209.8 L1059.1,180.5 L1059.2,213.5 L1059.2,177.6 L1059.3,191.5 L1059.4,185.8 L1059.6,195.4 L1059.7,197.1 L1059.8,224.0 L1059.9,215.3 L1060.0,193.8 L1060.1,227.2 L1060.1,208.2 L1060.2,229.8 L1060.3,223.5 L1060.4,224.9 L1060.5,203.4 L1060.6,197.7 L1060.6,201.8 L1060.7,210.4 L1060.8,225.4 L1060.9,219.2 L1061.0,210.6 L1061.0,210.7 L1061.1,205.5 L1061.2,206.6 L1061.3,215.1 L1061.4,211.2 L1061.5,211.5 L1061.7,237.4 L1061.8,239.7 L1061.9,217.5 L1062.0,226.5 L1062.0,219.5 L1062.1,228.8 L1062.2,215.4 L1062.3,237.6 L1062.4,240.0 L1062.4,227.1 L1062.5,248.1 L1062.6,220.6 L1062.7,241.5 L1062.8,223.5 L1062.9,256.5 L1062.9,257.7 L1063.0,243.2 L1063.1,242.8 L1063.2,250.0 L1063.3,229.1 L1063.4,255.8 L1063.4,241.9 L1063.5,239.6 L1063.8,252.8 L1063.8,261.8 L1063.9,243.6 L1064.0,268.8 L1064.1,271.2 L1064.2,245.4 L1064.2,252.4 L1064.3,264.6 L1064.4,254.0 L1064.5,275.0 L1064.6,256.9 L1064.7,262.3 L1064.7,277.5 L1064.8,268.0 L1064.9,260.0 L1065.0,254.6 L1065.1,254.1 L1065.2,260.4 L1065.2,278.8 L1065.3,272.8 L1065.4,284.7 L1065.5,258.9 L1065.6,274.4 L1065.8,267.3 L1065.9,276.6 L1066.0,286.3 L1066.1,267.2 L1066.1,274.4 L1066.2,269.2 L1066.3,275.9 L1066.4,277.6 L1066.5,291.1 L1066.5,298.0 L1066.6,295.8 L1066.7,277.4 L1066.8,296.4 L1066.9,296.3 L1067.0,278.6 L1067.0,294.6 L1067.1,291.0 L1067.2,306.1 L1067.3,307.2 L1067.4,304.8 L1067.5,301.8 L1067.5,294.1 L1067.6,302.7 L1067.9,306.9 L1068.0,316.0 L1068.0,312.7 L1068.1,299.6 L1068.2,302.0 L1068.3,316.5 L1068.4,308.4 L1068.5,303.6 L1068.5,316.5 L1068.6,321.4 L1068.7,320.2 L1068.8,325.8 L1068.9,315.0 L1069.0,321.3 L1069.0,326.8 L1069.1,322.6 L1069.2,311.7 L1069.3,326.4 L1069.4,319.0 L1069.4,321.9 L1069.5,333.2 L1069.6,318.8 L1069.7,319.0 L1069.9,326.7 L1070.0,327.0 L1070.1,339.2 L1070.2,343.0 L1070.3,341.5 L1070.3,340.2 L1070.4,331.5 L1070.5,338.9 L1070.6,341.2 L1070.7,336.4 L1070.8,343.9 L1070.8,345.7 L1070.9,349.6 L1071.0,342.1 L1071.1,350.8 L1071.2,348.7 L1071.2,346.7 L1071.3,345.9 L1071.4,349.2 L1071.5,353.6 L1071.6,361.4 L1071.7,358.3 L1071.7,362.7 L1072.0,366.6 L1072.1,357.6 L1072.2,362.3 L1072.2,365.7 L1072.3,369.7 L1072.4,369.6 L1072.5,368.2 L1072.6,371.8 L1072.6,376.0 L1072.7,367.7 L1072.8,370.6 L1072.9,373.6 L1073.0,372.4 L1073.1,379.6 L1073.1,374.1 L1073.2,382.1 L1073.3,379.3 L1073.4,379.6 L1073.5,382.5 L1073.6,382.1 L1073.6,385.5 L1073.7,384.5 L1073.8,388.1 L1074.0,391.4 L1074.1,391.7 L1074.2,396.1 L1074.3,394.7 L1074.4,397.9 L1074.5,397.8 L1074.5,398.5 L1074.6,399.9 L1074.7,400.3 L1074.8,403.4 L1074.9,403.8 L1075.0,404.5 L1075.0,407.3 L1075.1,407.7 L1075.2,408.8 L1075.3,410.8 L1075.4,411.5 L1075.5,412.8 L1075.5,414.9 L1075.6,416.1 L1075.7,416.4 L1075.8,418.4 L1075.9,419.7 L1076.1,422.8 L1076.2,423.8 L1076.3,425.9 L1076.4,427.5 L1076.4,427.2 L1076.5,429.0 L1076.6,430.2 L1076.7,431.0 L1076.8,432.1 L1076.9,435.3 L1076.9,434.3 L1077.0,435.7 L1077.1,436.0 L1077.2,439.4 L1077.3,439.6 L1077.4,440.3 L1077.4,442.4 L1077.5,443.2 L1077.6,446.7 L1077.7,445.3 L1077.8,447.1 L1077.9,449.0 L1077.9,449.4 L1078.2,452.7 L1078.3,453.6 L1078.3,457.0 L1078.4,454.2 L1078.5,457.3 L1078.6,460.1 L1078.7,462.8 L1078.8,462.1 L1078.8,467.3 L1078.9,468.1 L1079.0,469.1 L1079.1,468.4 L1079.2,467.2 L1079.3,472.7 L1079.3,470.7 L1079.4,471.1 L1079.5,472.4 L1079.6,478.5 L1079.7,475.5 L1079.8,471.7 L1079.8,482.3 L1079.9,481.9 L1080.0,479.6 L1080.2,487.0 L1080.3,490.7 L1080.4,485.9 L1080.5,483.7 L1080.6,485.9 L1080.7,495.3 L1080.7,486.7 L1080.8,491.8 L1080.9,494.1 L1081.0,498.7 L1081.1,494.3 L1081.2,499.9 L1081.2,495.7 L1081.3,505.3 L1081.7,498.2 L1081.8,503.4 L1081.9,505.7 L1082.0,508.4 L1082.1,501.3 L1082.4,515.8 L1082.5,514.1 L1082.6,517.2 L1082.7,525.6 L1082.8,518.4 L1082.8,524.0 L1082.9,517.7 L1083.0,513.4 L1083.1,522.4 L1083.2,527.0 L1083.3,532.2 L1083.3,526.9 L1083.4,522.7 L1083.5,523.6 L1083.6,530.2 L1083.7,527.1 L1083.8,522.8 L1083.8,539.2 L1083.9,524.2 L1084.0,544.0" fill="none" stroke="#1f77b4" stroke-width="1.4" opacity="0.85"/><text x="1040" y="54" fill="#ff7f0e" font-size="11">roll 19</text><text x="1090" y="558" fill="#ff7f0e" font-size="11">-18</text><path d="M1032.3,316.3 L1032.3,313.8 L1032.4,315.0 L1032.5,315.0 L1032.6,313.8 L1032.7,316.3 L1032.8,315.0 L1032.9,313.8 L1033.0,315.0 L1033.0,316.3 L1033.1,316.3 L1033.2,315.0 L1033.3,315.0 L1033.4,315.0 L1033.5,315.0 L1033.5,313.8 L1033.6,313.8 L1033.7,315.0 L1033.8,315.0 L1033.9,316.3 L1034.0,313.8 L1034.0,316.3 L1034.1,315.0 L1034.2,316.3 L1034.3,316.3 L1034.4,313.8 L1034.4,315.0 L1034.5,313.8 L1034.6,316.3 L1034.7,316.3 L1034.8,316.3 L1034.9,313.8 L1034.9,315.0 L1035.0,315.0 L1035.1,315.0 L1035.2,315.0 L1035.3,315.0 L1035.3,315.0 L1035.4,316.3 L1035.5,315.0 L1035.6,316.3 L1035.7,313.8 L1035.7,315.0 L1035.8,315.0 L1035.9,315.0 L1036.0,313.8 L1036.1,313.8 L1036.2,316.3 L1036.3,315.0 L1036.3,316.3 L1036.4,316.3 L1036.5,315.0 L1036.6,315.0 L1036.7,316.3 L1036.8,315.0 L1036.8,313.8 L1036.9,313.8 L1037.0,316.3 L1037.1,315.0 L1037.2,315.0 L1037.3,315.0 L1037.3,315.0 L1037.4,313.8 L1037.5,316.3 L1037.6,315.0 L1037.7,313.8 L1037.7,315.0 L1037.8,316.3 L1037.9,315.0 L1038.0,316.3 L1038.1,315.0 L1038.2,315.0 L1038.2,315.0 L1038.3,313.8 L1038.4,313.8 L1038.5,316.3 L1038.6,316.3 L1038.7,313.8 L1038.7,315.0 L1038.8,313.8 L1038.9,316.3 L1039.0,315.0 L1039.1,313.8 L1039.2,316.3 L1039.2,313.8 L1039.3,313.8 L1039.4,316.3 L1039.5,315.0 L1039.6,313.8 L1039.6,316.3 L1039.7,313.8 L1039.8,315.0 L1039.9,316.3 L1040.0,316.3 L1040.1,315.0 L1040.2,316.3 L1040.3,313.8 L1040.3,315.0 L1040.4,315.0 L1040.5,315.0 L1040.6,313.8 L1040.7,313.8 L1040.7,316.3 L1040.8,313.8 L1040.9,315.0 L1041.0,315.0 L1041.1,315.0 L1041.2,313.8 L1041.2,315.0 L1041.3,313.8 L1041.4,316.3 L1041.5,315.0 L1041.6,315.0 L1041.6,315.0 L1041.8,315.0 L1041.9,315.0 L1041.9,315.0 L1042.0,313.8 L1042.1,316.3 L1042.2,315.0 L1042.3,315.0 L1042.3,316.3 L1042.4,316.3 L1042.5,313.8 L1042.6,315.0 L1042.7,315.0 L1042.8,315.0 L1042.8,315.0 L1042.9,315.0 L1043.0,316.3 L1043.1,313.8 L1043.2,316.3 L1043.2,313.8 L1043.3,315.0 L1043.4,315.0 L1043.5,316.3 L1043.6,310.0 L1043.7,276.2 L1043.8,253.7 L1043.9,218.7 L1044.0,197.4 L1044.0,179.9 L1044.1,177.4 L1044.2,163.6 L1044.3,159.8 L1044.4,158.6 L1044.4,139.8 L1044.5,119.8 L1044.6,144.8 L1044.7,114.8 L1044.8,112.3 L1044.9,102.3 L1044.9,109.8 L1045.0,123.6 L1045.1,127.3 L1045.2,138.6 L1045.3,118.5 L1045.4,111.0 L1045.5,104.8 L1045.5,104.8 L1045.7,106.0 L1045.8,136.1 L1045.8,113.5 L1045.9,111.0 L1046.0,132.3 L1046.1,118.5 L1046.2,129.8 L1046.3,109.8 L1046.3,123.6 L1046.4,122.3 L1046.5,123.6 L1046.6,128.6 L1046.7,126.1 L1046.7,132.3 L1046.8,147.3 L1046.9,152.3 L1047.0,167.3 L1047.1,151.1 L1047.2,146.1 L1047.2,161.1 L1047.3,172.4 L1047.4,181.1 L1047.5,168.6 L1047.6,158.6 L1047.7,187.4 L1047.8,207.4 L1047.9,248.7 L1048.0,292.5 L1048.1,316.3 L1048.1,341.3 L1048.2,365.1 L1048.3,392.6 L1048.4,407.6 L1048.5,426.4 L1048.5,450.1 L1048.6,445.1 L1048.7,471.4 L1048.8,493.9 L1048.9,491.4 L1049.0,480.2 L1049.0,502.7 L1049.1,509.0 L1049.2,512.7 L1049.3,505.2 L1049.4,490.2 L1049.5,520.2 L1049.6,517.7 L1049.7,512.7 L1049.8,520.2 L1049.9,511.5 L1049.9,516.5 L1050.0,529.0 L1050.1,527.7 L1050.2,535.2 L1050.3,540.2 L1050.4,506.5 L1050.4,515.2 L1050.5,544.0 L1050.6,534.0 L1050.7,500.2 L1050.8,525.2 L1050.8,500.2 L1050.9,510.2 L1051.0,515.2 L1051.1,541.5 L1051.2,502.7 L1051.3,525.2 L1051.3,507.7 L1051.4,531.5 L1051.6,529.0 L1051.7,530.2 L1051.8,522.7 L1051.8,532.7 L1051.9,516.5 L1052.0,540.2 L1052.1,516.5 L1052.2,505.2 L1052.2,531.5 L1052.3,507.7 L1052.4,530.2 L1052.5,536.5 L1052.6,524.0 L1052.7,504.0 L1052.7,497.7 L1052.8,522.7 L1052.9,495.2 L1053.0,520.2 L1053.1,511.5 L1053.2,532.7 L1053.2,521.5 L1053.3,532.7 L1053.4,511.5 L1053.6,527.7 L1053.6,504.0 L1053.7,496.4 L1053.8,495.2 L1053.9,511.5 L1054.0,501.5 L1054.1,537.7 L1054.1,502.7 L1054.2,510.2 L1054.3,535.2 L1054.4,530.2 L1054.5,493.9 L1054.6,466.4 L1054.6,417.6 L1054.7,392.6 L1054.8,357.6 L1054.9,316.3 L1055.0,291.2 L1055.1,263.7 L1055.1,247.4 L1055.2,233.7 L1055.3,204.9 L1055.4,189.9 L1055.5,179.9 L1055.6,164.8 L1055.7,174.9 L1055.8,148.6 L1055.9,161.1 L1056.0,139.8 L1056.0,136.1 L1056.1,142.3 L1056.2,126.1 L1056.3,108.5 L1056.4,111.0 L1056.4,137.3 L1056.5,96.0 L1056.6,109.8 L1056.7,129.8 L1056.8,107.3 L1056.9,134.8 L1057.0,98.5 L1057.1,94.8 L1057.1,119.8 L1057.2,97.3 L1057.3,126.1 L1057.4,109.8 L1057.6,104.8 L1057.7,91.0 L1057.8,101.0 L1057.8,86.0 L1057.9,84.8 L1058.0,87.3 L1058.1,89.8 L1058.2,107.3 L1058.2,91.0 L1058.3,123.6 L1058.4,102.3 L1058.5,93.5 L1058.6,112.3 L1058.7,107.3 L1058.7,119.8 L1058.8,94.8 L1058.9,98.5 L1059.0,126.1 L1059.1,89.8 L1059.2,129.8 L1059.2,124.8 L1059.3,117.3 L1059.4,128.6 L1059.6,191.1 L1059.7,168.6 L1059.8,157.3 L1059.9,147.3 L1060.0,139.8 L1060.1,158.6 L1060.1,139.8 L1060.2,136.1 L1060.3,119.8 L1060.4,128.6 L1060.5,109.8 L1060.5,101.0 L1060.6,128.6 L1060.7,129.8 L1060.8,118.5 L1060.9,117.3 L1061.0,113.5 L1061.0,128.6 L1061.1,124.8 L1061.2,103.5 L1061.3,91.0 L1061.4,98.5 L1061.5,104.8 L1061.7,112.3 L1061.8,124.8 L1061.9,129.8 L1062.0,97.3 L1062.0,121.0 L1062.1,96.0 L1062.2,98.5 L1062.3,104.8 L1062.4,102.3 L1062.4,108.5 L1062.5,98.5 L1062.6,102.3 L1062.7,132.3 L1062.8,128.6 L1062.9,119.8 L1062.9,114.8 L1063.0,99.8 L1063.1,131.1 L1063.2,132.3 L1063.3,121.0 L1063.4,97.3 L1063.4,114.8 L1063.5,89.8 L1063.8,76.0 L1063.8,84.8 L1063.9,97.3 L1064.0,87.3 L1064.1,113.5 L1064.2,118.5 L1064.2,97.3 L1064.3,83.5 L1064.4,86.0 L1064.5,103.5 L1064.6,98.5 L1064.7,112.3 L1064.7,108.5 L1064.8,104.8 L1064.9,119.8 L1065.0,126.1 L1065.1,127.3 L1065.2,121.0 L1065.2,113.5 L1065.3,132.3 L1065.4,97.3 L1065.5,99.8 L1065.6,97.3 L1065.8,128.6 L1065.9,104.8 L1066.0,99.8 L1066.1,132.3 L1066.1,132.3 L1066.2,96.0 L1066.3,129.8 L1066.4,92.3 L1066.5,103.5 L1066.5,109.8 L1066.6,116.0 L1066.7,121.0 L1066.8,92.3 L1066.9,124.8 L1067.0,103.5 L1067.0,119.8 L1067.1,112.3 L1067.2,106.0 L1067.3,114.8 L1067.4,106.0 L1067.5,102.3 L1067.5,116.0 L1067.6,91.0 L1067.9,106.0 L1068.0,106.0 L1068.0,123.6 L1068.1,113.5 L1068.2,89.8 L1068.3,94.8 L1068.4,121.0 L1068.5,128.6 L1068.5,116.0 L1068.6,104.8 L1068.7,101.0 L1068.8,99.8 L1068.9,116.0 L1069.0,102.3 L1069.0,108.5 L1069.1,127.3 L1069.2,112.3 L1069.3,121.0 L1069.4,92.3 L1069.4,117.3 L1069.5,112.3 L1069.6,118.5 L1069.7,102.3 L1069.9,127.3 L1070.0,99.8 L1070.1,128.6 L1070.2,97.3 L1070.3,104.8 L1070.3,124.8 L1070.4,106.0 L1070.5,109.8 L1070.6,87.3 L1070.7,126.1 L1070.8,108.5 L1070.8,122.3 L1070.9,107.3 L1071.0,111.0 L1071.1,129.8 L1071.2,117.3 L1071.2,121.0 L1071.3,126.1 L1071.4,91.0 L1071.5,92.3 L1071.6,124.8 L1071.7,89.8 L1071.7,122.3 L1072.0,77.3 L1072.1,107.3 L1072.2,99.8 L1072.2,101.0 L1072.3,104.8 L1072.4,117.3 L1072.5,99.8 L1072.6,94.8 L1072.6,121.0 L1072.7,98.5 L1072.8,92.3 L1072.9,96.0 L1073.0,99.8 L1073.1,123.6 L1073.1,113.5 L1073.2,111.0 L1073.3,117.3 L1073.4,113.5 L1073.5,127.3 L1073.6,127.3 L1073.6,121.0 L1073.7,104.8 L1073.8,91.0 L1074.0,78.5 L1074.1,84.8 L1074.2,102.3 L1074.3,103.5 L1074.4,127.3 L1074.5,104.8 L1074.5,96.0 L1074.6,124.8 L1074.7,121.0 L1074.8,103.5 L1074.9,103.5 L1075.0,122.3 L1075.0,116.0 L1075.1,119.8 L1075.2,161.1 L1075.3,203.6 L1075.4,233.7 L1075.5,277.5 L1075.5,297.5 L1075.6,320.0 L1075.7,345.0 L1075.8,368.8 L1075.9,377.6 L1076.1,323.8 L1076.2,337.5 L1076.3,352.5 L1076.4,375.1 L1076.4,391.3 L1076.5,411.4 L1076.6,421.4 L1076.7,437.6 L1076.8,452.7 L1076.9,432.6 L1076.9,428.9 L1077.0,431.4 L1077.1,451.4 L1077.2,443.9 L1077.3,443.9 L1077.4,437.6 L1077.4,461.4 L1077.5,463.9 L1077.6,443.9 L1077.7,465.2 L1077.8,431.4 L1077.9,432.6 L1077.9,431.4 L1078.2,495.2 L1078.3,473.9 L1078.3,443.9 L1078.4,407.6 L1078.5,406.4 L1078.6,395.1 L1078.7,391.3 L1078.8,402.6 L1078.8,390.1 L1078.9,415.1 L1079.0,405.1 L1079.1,392.6 L1079.2,408.9 L1079.3,410.1 L1079.3,386.3 L1079.4,396.3 L1079.5,408.9 L1079.6,386.3 L1079.7,391.3 L1079.8,397.6 L1079.8,407.6 L1079.9,407.6 L1080.0,410.1 L1080.2,400.1 L1080.3,405.1 L1080.4,430.1 L1080.5,411.4 L1080.6,421.4 L1080.7,438.9 L1080.7,447.6 L1080.8,457.7 L1080.9,468.9 L1081.0,492.7 L1081.1,501.5 L1081.2,495.2 L1081.2,509.0 L1081.3,510.2 L1081.7,447.6 L1081.8,423.9 L1081.9,426.4 L1082.0,416.4 L1082.1,415.1 L1082.4,375.1 L1082.5,372.6 L1082.6,363.8 L1082.7,366.3 L1082.8,358.8 L1082.8,351.3 L1082.9,347.5 L1083.0,348.8 L1083.1,346.3 L1083.2,341.3 L1083.3,336.3 L1083.3,336.3 L1083.4,337.5 L1083.5,333.8 L1083.6,335.0 L1083.7,331.3 L1083.8,331.3 L1083.8,326.3 L1083.9,325.0 L1084.0,323.8" fill="none" stroke="#ff7f0e" stroke-width="1.1" opacity="0.85"/><text x="616" y="572" font-size="11" fill="#888">time 0..249 s — altitude (blue) &amp; roll (orange)</text></svg>