<svg xmlns="http://www.w3.org/2000/svg" width="1140" height="600" font-family="sans-serif" font-size="13"><rect width="1140" height="600" fill="white"/><text x="20" y="26" font-size="15" fill="#333">Coludo flight</text><rect x="20" y="40" width="540" height="540" fill="#fbfbfb" stroke="#ddd"/><rect x="50" y="221" width="480" height="103" fill="#cde" stroke="#369" opacity="0.7"/><text x="50" y="216" fill="#369" font-size="12">landing zone</text><circle cx="354" cy="383" r="5" fill="black"/><text x="362" y="387" font-size="12">pad</text><path d="M354.9,382.6 L354.9,382.6 L354.9,382.6 L354.9,382.6 L354.9,382.6 L354.9,382.6 L354.9,382.6 L354.9,382.6 L354.9,382.6 L354.9,382.6 L354.9,382.6 L354.9,382.6 L354.9,382.6 L354.9,382.6 L354.9,382.6 L354.9,382.6 L354.9,382.6 L354.9,382.6 L354.9,382.6 L354.9,382.6 L354.9,382.6 L354.9,382.6 L354.9,382.6 L354.9,382.6 L354.9,382.6 L354.9,382.6 L354.9,382.6 L354.9,382.6 L354.9,382.6 L354.9,382.6 L354.9,382.6 L354.9,382.6 L354.9,382.6 L354.9,382.6 L354.9,382.6 L354.9,382.6 L354.9,382.6 L354.9,382.6 L354.9,382.6 L354.9,382.6 L354.9,382.6 L354.9,382.6 L354.9,382.6 L354.9,382.6 L354.9,382.6 L354.9,382.6 L354.9,382.6 L354.9,382.6 L354.9,382.6 L354.9,382.6 L354.9,382.6 L354.9,382.6 L354.9,382.6 L354.9,382.0 L354.9,381.4 L354.9,381.4 L356.4,380.9 L356.4,380.3 L356.4,380.3 L357.4,379.7 L357.4,379.7 L357.4,379.7 L360.0,379.7 L360.0,379.7 L362.6,379.7 L362.6,379.7 L364.7,379.7 L364.7,380.3 L365.2,380.3 L367.8,380.9 L370.3,380.9 L370.3,381.4 L372.9,382.0 L372.9,382.0 L372.9,382.6 L375.5,383.2 L378.1,383.7 L378.1,384.3 L380.7,384.9 L381.2,384.9 L383.2,385.5 L383.2,386.0 L385.8,386.6 L388.4,387.2 L388.4,387.7 L389.4,388.3 L391.0,388.9 L393.6,389.5 L393.6,390.0 L396.1,390.6 L397.7,391.2 L398.7,391.2 L401.3,391.7 L401.3,391.7 L403.9,392.3 L405.9,392.9 L406.5,393.5 L406.5,394.0 L409.0,394.0 L411.6,394.6 L411.6,395.2 L414.2,395.2 L416.3,395.7 L416.3,395.7 L416.8,396.3 L419.3,396.9 L419.3,396.9 L421.9,396.9 L422.4,397.5 L422.4,397.5 L424.5,398.0 L424.5,398.0 L427.1,398.0 L429.7,398.6 L429.7,398.6 L430.7,398.6 L430.7,398.6 L432.2,398.6 L432.2,398.6 L434.8,398.6 L434.8,398.6 L437.4,398.6 L437.4,398.6 L439.0,398.6 L439.0,398.6 L440.0,398.6 L440.0,398.0 L442.6,398.0 L442.6,398.0 L445.1,398.0 L445.1,397.5 L445.1,397.5 L447.7,397.5 L447.7,396.9 L447.7,396.9 L449.3,396.3 L449.3,396.3 L450.3,395.7 L450.3,395.7 L450.3,395.2 L452.9,395.2 L452.9,394.6 L452.9,394.6 L455.5,394.0 L455.5,393.5 L455.5,393.5 L455.5,392.9 L457.5,392.9 L457.5,392.3 L457.5,391.7 L458.0,391.7 L458.0,391.2 L458.0,391.2 L458.0,391.2 L458.0,390.6 L460.6,390.0 L460.6,390.0 L460.6,389.5 L460.6,388.9 L463.2,388.3 L463.2,387.7 L463.2,387.7 L463.2,387.2 L463.7,386.6 L463.7,386.0 L463.7,386.0 L463.7,385.5 L463.7,384.9 L463.7,384.3 L465.8,383.7 L465.8,383.7 L465.8,383.2 L465.8,382.6 L465.8,382.0 L465.8,381.4 L468.4,380.9 L468.4,380.3 L468.4,379.7 L468.4,379.7 L468.4,379.2 L468.4,378.6 L468.4,378.0 L470.9,377.4 L470.9,376.9 L470.9,376.3 L470.9,375.7 L470.9,375.2 L470.9,374.6 L472.0,374.0 L472.0,373.4 L472.0,373.4 L472.0,372.9 L472.0,372.3 L472.0,371.7 L472.0,371.2 L473.5,370.6 L473.5,370.0 L473.5,369.4 L473.5,368.9 L473.5,368.9 L473.5,368.3 L473.5,368.3 L473.5,367.7 L476.1,367.2 L476.1,366.6 L476.1,366.0 L476.1,365.4 L476.1,364.9 L476.1,364.3 L476.1,363.7 L478.7,363.2 L478.7,362.6 L478.7,362.0 L478.7,361.4 L478.7,360.9 L478.7,360.3 L480.2,360.3 L480.2,359.7 L480.2,359.2 L480.2,358.6 L480.2,358.0 L480.2,357.4 L481.3,356.9 L481.3,356.3 L481.3,356.3 L481.3,355.7 L481.3,355.7 L481.3,355.2 L481.3,354.6 L483.8,354.0 L483.8,353.4 L483.8,352.9 L483.8,352.3 L483.8,351.7 L486.4,351.7 L486.4,351.2 L486.4,350.6 L486.4,350.6 L486.4,350.0 L489.0,349.4 L489.0,348.9 L489.5,348.9 L489.5,348.9 L489.5,348.3 L491.6,348.3 L491.6,348.3 L494.1,347.7 L494.1,347.7 L494.1,347.7 L496.7,347.7 L498.8,347.7 L498.8,347.7 L499.3,347.7 L499.3,347.7 L501.9,347.7 L501.9,347.7 L504.5,347.7 L504.5,347.7 L505.0,347.7 L507.0,347.7 L509.6,347.7 L512.2,347.7 L512.2,347.7 L513.2,347.7 L513.2,348.3 L514.8,348.3 L514.8,348.3 L517.4,348.3 L519.9,348.3 L519.9,348.3" fill="none" stroke="#1f77b4" stroke-width="1.7" opacity="0.85"/><circle cx="520" cy="348" r="4.5" fill="#1f77b4"/><text x="28" y="572" font-size="11" fill="#888">ground track — m from pad (N up)</text><rect x="580" y="40" width="540" height="540" fill="#fbfbfb" stroke="#ddd"/><text x="586" y="54" fill="#1f77b4" font-size="11">alt 156</text><text x="586" y="558" fill="#1f77b4" font-size="11">-44</text><path d="M663.1,437.3 L663.9,436.8 L664.7,435.8 L665.5,435.4 L666.2,434.7 L666.9,432.9 L667.7,432.4 L668.4,432.3 L669.1,428.3 L669.9,428.4 L670.6,425.7 L671.2,425.6 L671.9,423.3 L672.7,420.0 L673.4,415.1 L674.1,415.5 L674.7,409.1 L675.4,405.5 L676.1,404.5 L676.8,400.6 L677.6,401.4 L678.3,395.3 L678.9,389.7 L679.6,383.7 L680.3,383.0 L681.0,374.5 L681.6,369.9 L682.4,365.2 L683.1,363.9 L683.8,360.0 L684.5,357.5 L685.2,350.7 L685.8,334.5 L686.5,333.0 L687.2,340.0 L687.9,324.5 L688.5,331.8 L689.3,319.2 L690.2,322.4 L690.8,291.3 L691.5,292.8 L692.2,295.1 L692.9,274.7 L693.5,288.1 L694.3,286.2 L695.0,269.4 L695.7,282.9 L696.4,249.5 L697.1,275.6 L697.7,265.8 L698.4,249.1 L699.1,237.0 L699.8,228.6 L700.4,244.4 L701.1,220.2 L701.8,224.5 L702.5,236.1 L703.2,228.4 L703.9,234.2 L704.5,213.4 L705.2,191.9 L705.9,212.8 L706.5,190.7 L707.2,189.2 L707.9,220.1 L708.7,176.5 L709.4,187.0 L710.1,201.1 L710.7,182.6 L711.4,184.2 L712.1,163.7 L712.8,197.9 L713.4,187.6 L714.1,189.8 L714.8,186.6 L715.5,148.3 L716.2,170.8 L716.8,177.6 L717.7,157.8 L718.3,146.9 L719.0,142.8 L719.8,167.0 L720.5,123.2 L721.1,140.3 L721.8,112.5 L722.5,155.5 L723.2,162.0 L723.9,130.0 L724.5,111.4 L725.2,160.9 L725.9,121.3 L726.6,135.1 L727.2,121.5 L727.9,140.8 L728.7,134.7 L729.4,120.7 L730.2,116.6 L730.9,113.1 L731.6,93.7 L732.2,140.2 L732.9,118.6 L733.6,85.5 L734.3,130.9 L734.9,135.0 L735.6,133.4 L736.3,103.8 L737.0,116.4 L737.7,118.6 L738.5,88.5 L739.3,107.2 L740.0,119.4 L740.6,129.6 L741.4,78.5 L742.1,134.2 L742.8,76.0 L743.5,126.2 L744.3,110.5 L745.0,91.8 L745.6,81.0 L746.3,77.2 L747.0,97.5 L747.7,120.8 L748.3,115.6 L749.1,107.5 L749.8,105.3 L750.5,90.4 L751.2,124.1 L752.0,80.5 L752.7,140.1 L753.3,78.0 L754.0,113.1 L754.8,131.9 L755.5,120.0 L756.2,136.6 L756.9,113.8 L757.7,98.4 L758.4,123.0 L759.2,97.4 L760.0,130.5 L760.8,142.1 L761.5,120.5 L762.1,140.1 L762.8,111.2 L763.5,140.0 L764.2,105.5 L764.8,128.4 L765.5,122.6 L766.2,90.6 L766.9,146.2 L767.5,140.3 L768.4,117.6 L769.0,131.5 L769.7,116.0 L770.4,86.9 L771.1,86.2 L771.7,130.8 L772.4,99.3 L773.5,127.9 L774.1,147.0 L774.7,139.5 L775.4,90.1 L776.2,148.4 L776.9,135.0 L777.7,101.9 L778.4,102.5 L779.2,104.3 L779.9,100.2 L780.5,114.9 L781.2,120.7 L782.0,138.7 L782.7,121.7 L783.4,139.5 L784.1,128.1 L784.9,117.8 L785.6,141.2 L786.4,111.8 L787.4,128.5 L788.0,144.7 L788.7,100.6 L789.3,106.9 L790.0,102.0 L790.7,146.1 L791.4,117.4 L792.0,147.4 L792.7,151.0 L793.4,104.6 L794.2,119.0 L794.9,139.0 L795.6,161.7 L796.2,133.3 L796.9,114.6 L797.6,145.2 L798.3,135.3 L798.9,109.6 L799.6,150.2 L800.3,116.6 L801.6,146.0 L802.3,137.3 L803.0,108.7 L803.8,111.0 L804.5,132.2 L805.3,114.9 L806.0,133.2 L806.6,161.9 L807.3,162.6 L808.0,115.9 L808.7,167.0 L809.4,125.5 L810.0,145.9 L810.7,119.2 L811.5,165.8 L812.2,141.2 L813.0,155.9 L813.7,149.2 L814.5,146.7 L815.9,132.1 L816.5,128.2 L817.2,132.2 L818.0,162.7 L818.7,153.6 L819.5,144.3 L820.2,140.7 L821.0,124.6 L821.7,158.5 L822.4,163.5 L823.0,134.2 L823.7,132.9 L824.4,157.9 L825.1,135.1 L825.9,135.9 L826.5,155.3 L827.2,160.9 L827.9,183.2 L828.7,138.0 L830.1,167.6 L830.8,158.4 L831.4,164.3 L832.1,139.6 L832.8,177.9 L833.4,148.7 L834.1,169.4 L834.8,190.5 L835.5,149.3 L836.2,171.3 L836.8,175.7 L837.5,172.5 L838.3,158.0 L839.0,155.8 L839.7,144.4 L840.3,150.2 L841.1,163.2 L841.8,173.7 L842.5,200.9 L843.2,175.6 L844.3,190.9 L844.9,175.2 L845.6,186.0 L846.3,153.2 L847.0,197.0 L847.6,174.3 L848.3,183.7 L849.0,199.2 L849.7,190.1 L850.4,201.1 L851.0,177.1 L851.7,199.9 L852.4,164.3 L853.1,172.2 L853.7,168.8 L854.4,190.2 L855.1,182.9 L855.8,168.0 L856.4,191.0 L857.2,173.9 L858.5,179.9 L859.2,205.9 L859.8,203.6 L860.5,199.8 L861.2,195.8 L861.8,197.0 L862.5,198.6 L863.2,215.2 L863.9,217.8 L864.6,198.8 L865.4,210.1 L866.1,190.1 L866.7,183.4 L867.4,184.7 L868.1,187.3 L868.8,184.4 L869.4,199.6 L870.1,205.1 L870.8,197.0 L871.5,195.2 L872.7,210.5 L873.4,212.2 L874.0,218.9 L874.7,217.5 L875.4,200.7 L876.1,212.3 L876.7,231.6 L877.4,237.3 L878.2,225.1 L878.9,235.8 L879.6,213.0 L880.3,235.8 L880.9,214.3 L881.6,218.0 L882.3,220.8 L883.0,223.9 L883.6,206.4 L884.3,217.1 L885.0,203.5 L885.8,232.7 L887.0,247.2 L887.6,246.1 L888.2,240.9 L889.0,229.9 L889.7,216.3 L890.5,219.0 L891.2,216.0 L892.0,248.6 L892.7,248.2 L893.5,220.3 L894.2,253.1 L895.0,250.6 L895.7,237.0 L896.3,220.2 L897.0,232.0 L897.7,228.8 L898.4,223.6 L899.2,256.4 L899.9,263.1 L901.2,261.7 L901.8,245.2 L902.4,253.9 L903.1,238.4 L903.9,261.8 L904.6,262.3 L905.3,271.1 L906.0,255.0 L906.6,242.3 L907.5,266.5 L908.1,251.1 L908.8,242.3 L909.5,256.4 L910.2,246.3 L910.8,275.4 L911.5,266.7 L912.2,259.1 L912.9,266.7 L913.5,275.1 L914.2,278.4 L915.9,260.9 L916.5,282.8 L917.2,259.0 L917.9,262.7 L918.5,261.5 L919.3,269.2 L920.0,270.0 L920.7,282.1 L921.4,290.0 L922.2,288.9 L922.9,293.7 L923.5,266.8 L924.2,281.7 L924.9,288.7 L925.6,266.8 L926.4,291.0 L927.1,267.3 L927.7,269.0 L928.4,289.6 L929.2,293.5 L930.8,277.8 L931.4,303.1 L932.1,301.2 L932.9,280.0 L933.6,289.0 L934.4,281.0 L935.1,283.1 L935.9,307.5 L936.5,283.8 L937.2,308.9 L937.9,309.7 L938.7,307.9 L939.4,292.4 L940.0,303.3 L940.7,312.0 L941.4,301.2 L942.1,310.3 L942.8,313.8 L943.6,295.6 L944.3,296.8 L945.6,316.0 L946.3,321.1 L947.0,304.5 L947.6,320.3 L948.3,323.3 L949.0,325.1 L949.7,304.3 L950.5,308.7 L951.2,329.2 L951.8,325.2 L952.5,326.4 L953.2,314.1 L953.9,323.2 L954.5,334.4 L955.2,318.8 L955.9,336.7 L956.7,337.8 L957.4,320.5 L958.0,335.6 L958.7,329.6 L960.5,327.4 L961.2,325.1 L961.8,335.0 L962.6,344.0 L963.3,338.6 L964.1,334.1 L964.8,331.7 L965.6,350.2 L966.3,347.6 L967.1,338.8 L967.8,334.8 L968.6,348.4 L969.3,339.9 L969.9,351.2 L970.6,339.1 L971.3,348.7 L972.0,350.3 L972.8,345.8 L973.5,354.9 L975.3,361.6 L976.0,360.6 L976.7,364.0 L977.4,360.7 L978.1,368.1 L978.8,356.2 L979.4,361.6 L980.2,357.9 L980.9,358.5 L981.7,361.0 L982.4,367.4 L983.1,375.3 L983.8,369.0 L984.4,373.0 L985.1,372.4 L985.8,368.2 L986.6,368.4 L987.3,376.1 L987.9,378.2 L988.6,383.8 L990.2,382.6 L990.9,376.8 L991.6,385.0 L992.3,378.7 L993.0,381.1 L993.6,390.5 L994.3,382.3 L995.0,388.3 L995.7,390.8 L996.5,394.0 L997.2,394.2 L997.8,392.8 L998.5,393.2 L999.3,395.0 L1000.0,391.0 L1000.8,401.1 L1001.5,399.8 L1002.3,398.2 L1003.0,403.5 L1003.6,399.5 L1005.1,406.4 L1005.7,401.9 L1006.4,407.9 L1007.0,407.7 L1007.7,406.7 L1008.4,405.7 L1009.1,410.8 L1009.7,411.2 L1010.4,412.8 L1011.1,413.4 L1011.8,415.8 L1012.5,413.2 L1013.1,417.7 L1013.8,419.3 L1014.5,418.3 L1015.1,421.1 L1015.9,423.3 L1016.6,424.2 L1017.4,423.8 L1018.1,424.8 L1019.9,429.1 L1020.6,429.6 L1021.2,429.7 L1022.0,431.3 L1022.7,433.1 L1023.5,433.6 L1024.2,434.7 L1025.0,435.6 L1025.7,437.0 L1026.5,439.3 L1027.2,439.6 L1028.0,441.2 L1028.7,442.2 L1029.5,443.6 L1030.2,444.4 L1031.0,446.0 L1031.7,446.7 L1032.5,449.6 L1033.1,450.4 L1034.8,452.3 L1035.4,454.5 L1036.1,454.3 L1036.9,455.5 L1037.6,456.6 L1038.4,459.3 L1039.1,460.3 L1039.9,462.9 L1040.6,462.2 L1041.4,466.1 L1042.1,464.6 L1042.9,467.8 L1043.6,466.4 L1044.4,470.8 L1045.0,469.7 L1045.9,471.9 L1046.5,473.2 L1047.3,476.4 L1048.0,476.5 L1049.7,474.5 L1050.3,480.6 L1051.0,479.9 L1051.8,478.3 L1052.5,485.2 L1053.3,484.7 L1054.0,488.7 L1054.8,482.4 L1055.5,489.1 L1056.3,493.2 L1057.0,488.1 L1057.8,488.2 L1058.4,489.9 L1059.2,492.4 L1059.9,494.7 L1060.7,496.7 L1061.4,495.2 L1062.2,500.1 L1062.9,502.6 L1064.6,507.8 L1065.2,498.6 L1065.9,511.1 L1068.2,506.7 L1069.0,507.2 L1069.8,509.4 L1070.6,509.1 L1071.4,520.9 L1072.2,513.4 L1073.0,514.3 L1073.9,516.3 L1074.7,524.5 L1075.5,523.6 L1076.3,524.6 L1077.1,525.1 L1077.9,532.4 L1079.2,535.5 L1079.9,522.5 L1080.8,522.7 L1081.6,539.8 L1082.4,541.3 L1083.2,524.9 L1084.0,544.0" fill="none" stroke="#1f77b4" stroke-width="1.4" opacity="0.85"/><text x="1040" y="54" fill="#ff7f0e" font-size="11">roll 20</text><text x="1090" y="558" fill="#ff7f0e" font-size="11">-5</text><path d="M663.1,447.5 L663.9,447.5 L664.7,445.7 L665.5,447.5 L666.2,443.8 L666.9,443.8 L667.7,443.8 L668.4,443.8 L669.1,443.8 L669.9,442.0 L670.6,440.2 L671.2,436.6 L671.9,436.6 L672.7,434.7 L673.4,429.3 L674.1,425.6 L674.7,429.3 L675.4,425.6 L676.1,422.0 L676.8,411.1 L677.6,405.6 L678.3,409.2 L678.9,400.1 L679.6,396.5 L680.3,391.0 L681.0,383.8 L681.6,391.0 L682.4,371.0 L683.1,380.1 L683.8,365.5 L684.5,367.4 L685.2,347.3 L685.8,351.0 L686.5,347.3 L687.2,341.9 L687.9,327.3 L688.5,314.6 L689.3,310.9 L690.2,320.0 L690.8,305.4 L691.5,305.4 L692.2,294.5 L692.9,267.2 L693.5,274.5 L694.3,252.6 L695.0,252.6 L695.7,265.4 L696.4,252.6 L697.1,247.2 L697.7,239.9 L698.4,252.6 L699.1,250.8 L699.8,216.2 L700.4,236.2 L701.1,207.1 L701.8,210.8 L702.5,194.4 L703.1,188.9 L703.9,210.8 L704.5,203.5 L705.2,176.2 L705.9,178.0 L706.5,192.5 L707.2,214.4 L707.9,198.0 L708.7,168.9 L709.4,194.4 L710.0,161.6 L710.7,181.6 L711.4,150.7 L712.1,148.8 L712.8,187.1 L713.4,154.3 L714.1,145.2 L714.8,137.9 L715.5,192.5 L716.1,174.3 L716.8,156.1 L717.7,161.6 L718.3,178.0 L719.0,165.2 L719.8,127.0 L720.5,137.9 L721.1,134.3 L721.8,147.0 L722.5,145.2 L723.2,137.9 L723.8,139.7 L724.5,156.1 L725.2,119.7 L725.9,137.9 L726.6,168.9 L727.2,174.3 L727.9,116.1 L728.7,123.3 L729.4,128.8 L730.2,117.9 L730.9,110.6 L731.6,161.6 L732.2,123.3 L732.9,103.3 L733.6,134.3 L734.3,148.8 L734.9,157.9 L735.6,125.2 L736.3,112.4 L737.0,132.5 L737.6,147.0 L738.4,147.0 L739.3,121.5 L739.9,108.8 L740.6,130.6 L741.4,125.2 L742.1,137.9 L742.8,139.7 L743.5,119.7 L744.3,76.0 L745.0,425.6 L745.6,387.4 L746.3,352.8 L747.0,323.7 L747.7,292.7 L748.3,269.0 L749.1,218.0 L749.8,199.8 L750.5,188.9 L751.2,187.1 L752.0,178.0 L752.7,190.7 L753.3,150.7 L754.0,168.9 L754.8,152.5 L755.5,163.4 L756.2,132.5 L756.9,165.2 L757.7,157.9 L758.4,207.1 L759.2,199.8 L760.0,203.5 L760.8,156.1 L761.5,192.5 L762.1,227.1 L762.8,223.5 L763.5,203.5 L764.2,236.2 L764.8,243.5 L765.5,234.4 L766.2,265.4 L766.9,239.9 L767.5,283.6 L768.4,292.7 L769.0,300.0 L769.7,307.3 L770.4,318.2 L771.1,316.4 L771.7,334.6 L772.4,352.8 L773.5,340.0 L774.0,365.5 L774.7,365.5 L775.4,349.2 L776.2,360.1 L776.9,347.3 L777.7,369.2 L778.4,376.5 L779.2,385.6 L779.9,389.2 L780.5,402.0 L781.2,411.1 L782.0,427.5 L782.7,423.8 L783.4,418.4 L784.0,414.7 L784.9,416.5 L785.5,412.9 L786.3,431.1 L787.4,443.8 L788.0,440.2 L788.7,443.8 L789.3,434.7 L790.0,434.7 L790.7,434.7 L791.4,449.3 L792.0,449.3 L792.7,451.1 L793.4,456.6 L794.2,469.3 L794.9,469.3 L795.5,460.2 L796.2,467.5 L796.9,467.5 L797.6,480.3 L798.3,478.4 L798.9,482.1 L799.6,473.0 L800.3,474.8 L801.6,483.9 L802.3,478.4 L803.0,473.0 L803.8,491.2 L804.5,476.6 L805.3,496.7 L806.0,500.3 L806.6,500.3 L807.3,500.3 L808.0,496.7 L808.7,500.3 L809.3,493.0 L810.0,483.9 L810.7,474.8 L811.5,474.8 L812.2,491.2 L813.0,500.3 L813.7,491.2 L814.5,489.4 L815.9,480.3 L816.5,493.0 L817.2,509.4 L818.0,507.6 L818.7,503.9 L819.5,491.2 L820.2,498.5 L821.0,498.5 L821.7,505.8 L822.3,505.8 L823.0,513.0 L823.7,507.6 L824.4,511.2 L825.1,493.0 L825.9,511.2 L826.5,513.0 L827.2,509.4 L827.9,516.7 L828.7,514.9 L830.1,544.0 L830.8,542.2 L831.4,531.3 L832.1,529.4 L832.8,527.6 L833.4,513.0 L834.1,514.9 L834.8,509.4 L835.5,509.4 L836.1,516.7 L836.8,524.0 L837.5,525.8 L838.3,524.0 L839.0,514.9 L839.7,513.0 L840.3,511.2 L841.1,522.1 L841.8,525.8 L842.5,525.8 L843.2,520.3 L844.3,524.0 L844.9,520.3 L845.6,518.5 L846.3,520.3 L847.0,533.1 L847.6,516.7 L848.3,520.3 L849.0,513.0 L849.7,513.0 L850.4,509.4 L851.0,516.7 L851.7,514.9 L852.4,509.4 L853.1,511.2 L853.7,531.3 L854.4,529.4 L855.1,524.0 L855.8,518.5 L856.4,533.1 L857.2,524.0 L858.5,503.9 L859.2,525.8 L859.8,527.6 L860.5,516.7 L861.2,522.1 L861.8,513.0 L862.5,516.7 L863.2,513.0 L863.9,525.8 L864.5,516.7 L865.4,494.8 L866.0,498.5 L866.7,500.3 L867.4,493.0 L868.1,493.0 L868.8,491.2 L869.4,482.1 L870.1,483.9 L870.8,480.3 L871.5,493.0 L872.7,511.2 L873.4,496.7 L874.0,505.8 L874.7,500.3 L875.4,513.0 L876.0,502.1 L876.7,507.6 L877.4,494.8 L878.2,485.7 L878.9,489.4 L879.6,478.4 L880.3,474.8 L880.9,483.9 L881.6,493.0 L882.3,478.4 L883.0,478.4 L883.6,489.4 L884.3,483.9 L885.0,485.7 L885.8,474.8 L887.0,471.2 L887.6,471.2 L888.2,480.3 L889.0,482.1 L889.7,487.5 L890.5,489.4 L891.2,507.6 L892.0,500.3 L892.7,502.1 L893.5,496.7 L894.2,483.9 L895.0,493.0 L895.7,483.9 L896.3,487.5 L897.0,491.2 L897.7,496.7 L898.4,493.0 L899.2,491.2 L899.9,496.7 L901.2,482.1 L901.8,473.0 L902.4,471.2 L903.1,469.3 L903.9,467.5 L904.6,462.1 L905.3,463.9 L906.0,465.7 L906.6,465.7 L907.5,463.9 L908.1,462.1 L908.8,456.6 L909.5,449.3 L910.2,471.2 L910.8,473.0 L911.5,462.1 L912.2,469.3 L912.9,469.3 L913.5,469.3 L914.2,473.0 L915.9,527.6 L916.5,520.3 L917.2,502.1 L917.9,498.5 L918.5,494.8 L919.3,491.2 L920.0,489.4 L920.7,480.3 L921.4,485.7 L922.2,483.9 L922.9,473.0 L923.5,471.2 L924.2,471.2 L924.9,469.3 L925.6,465.7 L926.4,462.1 L927.1,462.1 L927.7,463.9 L928.4,465.7 L929.2,460.2 L930.8,467.5 L931.4,458.4 L932.1,458.4 L932.9,456.6 L933.6,454.8 L934.4,454.8 L935.0,452.9 L935.9,449.3 L936.5,445.7 L937.2,447.5 L937.9,447.5 L938.7,443.8 L939.4,443.8 L940.0,447.5 L940.7,443.8 L941.4,440.2 L942.1,429.3 L942.7,432.9 L943.6,429.3 L944.2,434.7 L945.6,442.0 L946.3,449.3 L947.0,449.3 L947.6,449.3 L948.3,445.7 L949.0,447.5 L949.7,445.7 L950.5,447.5 L951.1,442.0 L951.8,447.5 L952.5,451.1 L953.2,452.9 L953.9,454.8 L954.5,449.3 L955.2,449.3 L955.9,436.6 L956.7,436.6 L957.4,443.8 L958.0,451.1 L958.7,452.9 L960.5,494.8 L961.2,485.7 L961.8,474.8 L962.6,469.3 L963.3,471.2 L964.1,465.7 L964.8,456.6 L965.6,454.8 L966.3,447.5 L967.1,442.0 L967.8,440.2 L968.6,447.5 L969.3,442.0 L969.9,447.5 L970.6,447.5 L971.3,443.8 L972.0,445.7 L972.8,440.2 L973.5,442.0 L975.3,422.0 L976.0,425.6 L976.7,431.1 L977.4,438.4 L978.1,438.4 L978.7,434.7 L979.4,432.9 L980.2,438.4 L980.9,436.6 L981.7,436.6 L982.4,432.9 L983.1,432.9 L983.8,436.6 L984.4,438.4 L985.1,427.5 L985.8,434.7 L986.6,434.7 L987.3,443.8 L987.9,443.8 L988.6,451.1 L990.2,447.5 L990.9,440.2 L991.6,442.0 L992.3,442.0 L993.0,449.3 L993.6,443.8 L994.3,442.0 L995.0,443.8 L995.7,443.8 L996.5,438.4 L997.1,438.4 L997.8,463.9 L998.5,463.9 L999.3,462.1 L1000.0,462.1 L1000.8,454.8 L1001.5,454.8 L1002.3,456.6 L1003.0,451.1 L1003.6,440.2 L1005.1,358.3 L1005.7,380.1 L1006.3,396.5 L1007.0,407.4 L1007.7,423.8 L1008.4,431.1 L1009.1,436.6 L1009.7,438.4 L1010.4,442.0 L1011.1,449.3 L1011.8,451.1 L1012.5,449.3 L1013.1,458.4 L1013.8,458.4 L1014.5,456.6 L1015.1,462.1 L1015.9,454.8 L1016.6,451.1 L1017.4,447.5 L1018.1,447.5 L1019.9,536.7 L1020.6,465.7 L1021.2,432.9 L1022.0,374.6 L1022.7,338.2 L1023.5,314.6 L1024.2,303.6 L1025.0,312.7 L1025.7,287.2 L1026.5,280.0 L1027.2,290.9 L1028.0,283.6 L1028.7,287.2 L1029.5,292.7 L1030.2,258.1 L1031.0,301.8 L1031.6,285.4 L1032.4,290.9 L1033.1,285.4 L1034.8,340.0 L1035.4,343.7 L1036.1,343.7 L1036.9,341.9 L1037.6,341.9 L1038.4,329.1 L1039.1,320.0 L1039.9,352.8 L1040.6,345.5 L1041.4,351.0 L1042.1,360.1 L1042.9,356.4 L1043.6,381.9 L1044.4,369.2 L1045.0,376.5 L1045.8,367.4 L1046.5,391.0 L1047.3,376.5 L1048.0,371.0 L1049.7,385.6 L1050.3,383.8 L1051.0,374.6 L1051.8,381.9 L1052.5,374.6 L1053.3,389.2 L1054.0,369.2 L1054.8,376.5 L1055.5,387.4 L1056.3,381.9 L1056.9,389.2 L1057.7,412.9 L1058.4,411.1 L1059.2,412.9 L1059.9,414.7 L1060.7,414.7 L1061.4,418.4 L1062.2,420.2 L1062.9,422.0 L1064.5,414.7 L1065.2,409.2 L1065.9,416.5 L1068.2,422.0 L1069.0,427.5 L1069.8,427.5 L1070.6,431.1 L1071.4,434.7 L1072.2,436.6 L1073.0,436.6 L1073.8,436.6 L1074.7,438.4 L1075.5,436.6 L1076.3,440.2 L1077.1,442.0 L1077.9,440.2 L1079.2,440.2 L1079.9,440.2 L1080.7,443.8 L1081.6,442.0 L1082.4,443.8 L1083.2,445.7 L1084.0,442.0" fill="none" stroke="#ff7f0e" stroke-width="1.1" opacity="0.85"/><text x="616" y="572" font-size="11" fill="#888">time 0..35 s — altitude (blue) &amp; roll (orange)</text></svg>