<svg xmlns="http://www.w3.org/2000/svg" width="1140" height="600" font-family="sans-serif" font-size="13"><rect width="1140" height="600" fill="white"/><text x="20" y="26" font-size="15" fill="#333">Coludo flight</text><rect x="20" y="40" width="540" height="540" fill="#fbfbfb" stroke="#ddd"/><rect x="50" y="305" width="280" height="60" fill="#cde" stroke="#369" opacity="0.7"/><text x="50" y="300" fill="#369" font-size="12">landing zone</text><circle cx="227" cy="399" r="5" fill="black"/><text x="235" y="403" font-size="12">pad</text><path d="M227.7,399.1 L227.7,399.1 L227.7,399.1 L227.7,399.1 L227.7,399.1 L227.7,399.1 L227.7,399.1 L227.7,399.1 L227.7,399.1 L227.7,399.1 L227.7,399.1 L227.7,399.1 L227.7,399.1 L227.7,399.1 L227.7,399.1 L227.7,399.1 L227.7,399.1 L227.7,399.1 L227.7,399.1 L227.7,399.1 L227.7,399.1 L227.7,399.1 L227.7,399.1 L227.7,399.1 L227.7,399.1 L227.7,399.1 L227.7,399.1 L227.7,399.1 L227.7,399.1 L227.7,399.1 L227.7,399.1 L227.7,399.1 L227.7,399.1 L227.7,399.1 L227.7,399.1 L227.7,399.1 L227.7,399.1 L227.7,399.1 L227.7,399.1 L227.7,399.1 L227.7,399.1 L227.7,399.1 L227.7,399.1 L227.7,399.1 L227.7,399.1 L227.7,399.1 L227.7,399.1 L227.7,399.1 L227.7,399.1 L227.7,399.1 L227.7,399.1 L227.7,399.1 L227.7,399.1 L227.7,399.1 L227.7,399.1 L228.6,397.4 L229.2,395.4 L230.8,393.4 L232.3,391.4 L233.5,389.7 L233.8,387.7 L236.8,385.7 L238.3,384.1 L238.3,382.4 L241.3,380.4 L242.8,378.7 L243.1,377.1 L245.8,375.7 L247.3,374.1 L248.8,372.4 L250.3,371.1 L252.7,369.7 L253.3,368.1 L256.3,366.7 L257.5,365.4 L259.3,364.1 L262.3,362.7 L263.5,361.7 L265.3,360.1 L266.8,358.7 L268.3,357.1 L269.8,356.1 L272.0,354.4 L272.9,352.7 L275.9,351.1 L277.4,349.1 L278.9,348.1 L280.4,346.1 L282.8,344.4 L283.4,342.4 L284.9,340.7 L286.4,338.7 L287.6,337.1 L289.4,335.1 L290.9,333.1 L291.2,330.7 L291.2,329.1 L292.4,327.1 L293.9,325.1 L295.4,323.1 L296.0,320.7 L296.0,318.7 L296.9,316.4 L298.4,314.1 L298.4,311.7 L299.9,309.4 L299.9,307.1 L300.8,305.1 L300.8,302.4 L300.8,300.8 L301.4,298.1 L301.4,295.8 L301.4,293.8 L302.9,291.4 L302.9,288.8 L304.4,287.1 L304.4,284.4 L305.9,282.4 L305.9,280.1 L306.2,278.1 L307.4,276.1 L307.4,274.1 L308.9,270.8 L310.5,268.4 L311.7,266.8 L312.0,264.4 L313.5,262.4 L315.0,260.4 L315.3,258.8 L318.0,256.4 L319.5,254.8 L320.1,253.1 L321.0,251.4 L324.0,249.4 L325.5,247.8 L326.7,246.1 L328.5,244.8 L330.0,242.8 L331.5,241.4 L333.0,239.8 L336.3,238.8 L337.5,237.1 L339.0,235.8 L340.5,234.8 L342.0,233.1 L344.1,232.4 L346.5,231.1 L349.5,230.1 L350.2,229.1 L352.6,228.1 L354.4,227.1 L357.1,226.1 L359.2,225.8 L361.6,225.1 L363.4,224.1 L366.1,223.8 L368.2,223.1 L369.1,222.4 L373.6,222.1 L374.2,221.8 L378.1,221.4 L381.1,221.1 L383.8,220.8 L385.6,220.8 L389.2,220.8 L390.2,220.8 L393.2,221.1 L394.7,221.1 L397.7,221.4 L399.2,221.8 L402.2,222.4 L403.7,222.8 L406.7,223.1 L408.2,223.8 L411.2,224.4 L412.7,225.1 L415.7,225.8 L416.9,226.4 L418.7,227.1 L421.7,228.1 L423.2,229.1 L426.2,230.4 L427.7,231.4 L430.8,232.8 L432.0,233.4 L433.8,234.8 L436.8,236.1 L436.8,237.8 L439.8,239.1 L441.6,240.4 L442.8,241.8 L445.8,243.4 L447.0,245.1 L447.3,246.4 L450.3,248.1 L450.6,250.1 L451.8,251.8 L454.8,253.4 L456.6,255.1 L456.3,257.1 L459.3,260.4 L460.8,262.8 L460.8,264.8 L462.3,267.1 L463.8,269.1 L465.3,271.1 L465.6,273.4 L466.8,275.1 L468.3,277.4 L470.5,280.8 L471.4,283.1 L472.9,285.1 L474.4,287.4 L474.7,289.1 L475.9,291.1 L477.4,293.1 L478.9,294.8 L480.4,296.8 L483.4,300.1 L484.9,302.1 L486.1,303.8 L487.9,305.8 L489.4,307.8 L489.7,309.1 L492.4,311.1 L493.9,312.4 L495.4,314.4 L498.4,317.4 L499.9,319.4 L501.4,320.7 L504.4,322.4 L505.3,324.1 L510.5,329.1 L512.0,330.4 L516.5,333.7 L519.2,335.1 L519.5,336.1 L522.5,337.7 L524.0,339.1 L525.5,340.4 L528.5,341.7 L530.0,342.7" fill="none" stroke="#1f77b4" stroke-width="1.7" opacity="0.85"/><circle cx="530" cy="343" r="4.5" fill="#1f77b4"/><text x="28" y="572" font-size="11" fill="#888">ground track — m from pad (N up)</text><rect x="580" y="40" width="540" height="540" fill="#fbfbfb" stroke="#ddd"/><text x="586" y="54" fill="#1f77b4" font-size="11">alt 137</text><text x="586" y="558" fill="#1f77b4" font-size="11">-49</text><path d="M1068.4,415.1 L1068.4,414.5 L1068.4,414.5 L1068.4,414.1 L1068.5,413.5 L1068.5,413.2 L1068.5,412.2 L1068.5,411.1 L1068.6,410.5 L1068.6,408.2 L1068.6,407.6 L1068.6,406.2 L1068.7,404.3 L1068.7,402.2 L1068.7,400.4 L1068.7,399.9 L1068.8,395.6 L1068.8,394.7 L1068.8,391.6 L1068.8,390.0 L1068.9,388.3 L1068.9,383.2 L1068.9,381.4 L1068.9,377.1 L1069.0,376.7 L1069.0,374.7 L1069.0,369.2 L1069.0,368.8 L1069.1,362.0 L1069.1,362.4 L1069.1,356.5 L1069.1,354.2 L1069.2,345.9 L1069.2,346.9 L1069.2,340.5 L1069.2,333.6 L1069.3,328.9 L1069.3,327.4 L1069.3,324.1 L1069.3,316.9 L1069.4,310.8 L1069.4,307.3 L1069.4,295.7 L1069.4,302.1 L1069.5,299.0 L1069.5,288.2 L1069.5,278.8 L1069.5,276.8 L1069.6,281.7 L1069.6,267.0 L1069.6,265.7 L1069.6,253.3 L1069.7,260.4 L1069.7,260.6 L1069.7,242.7 L1069.7,240.9 L1069.8,248.6 L1069.8,235.5 L1069.8,239.6 L1069.8,224.2 L1069.9,216.5 L1069.9,216.3 L1069.9,212.2 L1069.9,224.6 L1070.0,202.0 L1070.0,214.0 L1070.0,197.7 L1070.0,192.5 L1070.1,202.6 L1070.1,199.0 L1070.1,192.6 L1070.1,195.6 L1070.2,182.7 L1070.2,176.2 L1070.2,177.6 L1070.2,186.2 L1070.3,164.4 L1070.3,159.7 L1070.3,168.6 L1070.3,165.6 L1070.4,153.1 L1070.4,164.4 L1070.4,154.0 L1070.4,142.5 L1070.5,155.0 L1070.5,138.5 L1070.5,153.9 L1070.5,137.2 L1070.6,134.0 L1070.6,127.3 L1070.6,131.1 L1070.7,128.3 L1070.7,145.9 L1070.7,122.2 L1070.7,125.1 L1070.8,113.5 L1070.8,126.7 L1070.8,131.5 L1070.8,129.0 L1070.9,105.9 L1070.9,129.2 L1070.9,113.0 L1070.9,125.0 L1071.0,107.7 L1071.0,103.5 L1071.0,114.9 L1071.0,125.0 L1071.1,111.7 L1071.1,110.5 L1071.1,116.3 L1071.1,94.7 L1071.1,88.1 L1071.2,103.7 L1071.2,95.9 L1071.2,84.0 L1071.3,112.4 L1071.3,112.9 L1071.3,84.3 L1071.3,83.9 L1071.4,88.7 L1071.4,107.0 L1071.4,98.5 L1071.4,85.6 L1071.5,94.5 L1071.5,100.5 L1071.5,103.2 L1071.5,98.3 L1071.6,76.1 L1071.6,76.0 L1071.6,92.0 L1071.6,96.7 L1071.7,86.8 L1071.7,81.4 L1071.7,95.3 L1071.7,101.6 L1071.8,92.2 L1071.8,81.1 L1071.8,85.6 L1071.8,107.1 L1071.9,103.9 L1071.9,93.2 L1071.9,96.8 L1071.9,85.6 L1072.0,94.1 L1072.0,98.6 L1072.0,105.4 L1072.0,99.0 L1072.1,96.7 L1072.1,107.4 L1072.1,105.3 L1072.1,107.5 L1072.2,93.7 L1072.2,104.9 L1072.2,91.0 L1072.2,104.9 L1072.3,100.3 L1072.3,85.4 L1072.3,88.9 L1072.3,87.7 L1072.4,108.3 L1072.4,80.2 L1072.4,110.1 L1072.5,104.8 L1072.5,108.8 L1072.5,108.9 L1072.5,108.5 L1072.6,113.1 L1072.6,101.9 L1072.6,94.7 L1072.6,104.2 L1072.7,110.9 L1072.7,94.4 L1072.7,111.0 L1072.7,103.4 L1072.8,115.9 L1072.8,88.9 L1072.8,104.6 L1072.8,110.8 L1072.9,93.9 L1072.9,86.8 L1072.9,114.0 L1072.9,92.7 L1073.0,94.4 L1073.0,106.5 L1073.0,92.9 L1073.1,96.5 L1073.1,100.7 L1073.1,95.8 L1073.1,89.7 L1073.2,120.3 L1073.2,101.2 L1073.2,98.3 L1073.2,117.9 L1073.3,92.3 L1073.3,96.8 L1073.3,107.0 L1073.3,93.2 L1073.4,121.2 L1073.4,108.7 L1073.4,97.3 L1073.4,109.6 L1073.5,107.8 L1073.5,96.7 L1073.5,112.1 L1073.5,115.6 L1073.6,119.7 L1073.6,123.3 L1073.6,102.0 L1073.7,109.8 L1073.7,122.6 L1073.7,109.8 L1073.7,125.0 L1073.8,104.2 L1073.8,120.5 L1073.8,128.4 L1073.8,132.5 L1073.9,113.8 L1073.9,131.2 L1073.9,112.9 L1073.9,125.4 L1074.0,111.6 L1074.0,125.9 L1074.0,130.6 L1074.0,117.0 L1074.1,136.8 L1074.1,129.1 L1074.1,138.0 L1074.1,136.3 L1074.2,132.0 L1074.2,132.7 L1074.2,138.5 L1074.3,140.4 L1074.3,123.9 L1074.3,141.6 L1074.3,141.0 L1074.4,122.7 L1074.4,121.2 L1074.4,119.8 L1074.4,120.8 L1074.5,126.5 L1074.5,135.7 L1074.5,119.4 L1074.5,139.5 L1074.6,143.8 L1074.6,131.1 L1074.6,146.0 L1074.6,123.1 L1074.7,124.4 L1074.7,126.0 L1074.7,129.5 L1074.7,131.7 L1074.8,126.9 L1074.8,147.8 L1074.8,134.9 L1074.9,146.9 L1074.9,135.3 L1074.9,134.1 L1074.9,130.1 L1075.0,144.1 L1075.0,157.5 L1075.0,155.3 L1075.0,134.4 L1075.1,146.3 L1075.1,157.2 L1075.1,162.1 L1075.1,162.1 L1075.2,163.2 L1075.2,139.9 L1075.2,155.9 L1075.2,141.7 L1075.3,159.5 L1075.3,164.6 L1075.3,145.2 L1075.3,151.0 L1075.4,148.7 L1075.4,161.3 L1075.4,157.1 L1075.5,164.6 L1075.5,165.4 L1075.5,156.4 L1075.5,158.4 L1075.6,165.1 L1075.6,166.2 L1075.6,165.5 L1075.6,163.7 L1075.7,156.2 L1075.7,176.9 L1075.7,176.8 L1075.7,168.9 L1075.8,171.2 L1075.8,159.7 L1075.8,164.6 L1075.8,158.7 L1075.9,177.6 L1075.9,160.9 L1075.9,163.0 L1075.9,179.8 L1076.0,173.8 L1076.0,188.4 L1076.0,174.6 L1076.1,176.5 L1076.1,187.3 L1076.1,175.9 L1076.1,172.4 L1076.2,177.2 L1076.2,187.3 L1076.2,177.2 L1076.2,179.8 L1076.3,178.7 L1076.3,195.6 L1076.3,189.2 L1076.3,196.7 L1076.4,199.8 L1076.4,182.7 L1076.4,192.6 L1076.4,199.2 L1076.5,181.1 L1076.5,187.7 L1076.5,204.3 L1076.5,196.8 L1076.6,203.0 L1076.6,192.0 L1076.7,201.7 L1076.7,200.0 L1076.7,190.6 L1076.7,211.9 L1076.8,203.9 L1076.8,213.0 L1076.8,194.0 L1076.8,205.8 L1076.9,216.7 L1076.9,201.1 L1076.9,216.1 L1076.9,212.2 L1077.0,217.9 L1077.0,216.6 L1077.0,202.1 L1077.0,211.6 L1077.1,223.7 L1077.1,211.0 L1077.1,211.2 L1077.1,221.9 L1077.2,219.8 L1077.2,216.4 L1077.3,213.9 L1077.3,217.1 L1077.3,224.3 L1077.3,228.5 L1077.4,224.7 L1077.4,228.4 L1077.4,235.8 L1077.4,227.2 L1077.5,221.2 L1077.5,236.8 L1077.5,236.1 L1077.5,240.4 L1077.6,227.7 L1077.6,243.4 L1077.6,236.5 L1077.6,239.2 L1077.7,238.7 L1077.7,244.4 L1077.7,235.3 L1077.7,233.3 L1077.8,232.5 L1077.8,236.6 L1077.8,251.7 L1077.9,244.4 L1077.9,255.5 L1077.9,247.3 L1078.0,248.4 L1078.0,243.0 L1078.0,257.9 L1078.0,254.8 L1078.1,260.2 L1078.1,254.8 L1078.1,262.2 L1078.1,265.5 L1078.2,254.7 L1078.2,251.8 L1078.2,267.9 L1078.2,264.6 L1078.3,261.5 L1078.3,266.4 L1078.3,269.2 L1078.3,268.0 L1078.4,260.8 L1078.4,275.6 L1078.4,275.5 L1078.4,270.4 L1078.5,270.6 L1078.5,281.2 L1078.6,271.8 L1078.6,279.2 L1078.6,275.3 L1078.6,278.6 L1078.7,274.0 L1078.7,288.4 L1078.7,276.0 L1078.7,278.0 L1078.8,278.6 L1078.8,284.3 L1078.8,286.6 L1078.8,290.7 L1078.9,295.0 L1078.9,290.3 L1078.9,290.7 L1078.9,287.0 L1079.0,291.0 L1079.0,291.0 L1079.0,302.1 L1079.0,291.3 L1079.1,298.5 L1079.1,306.5 L1079.2,304.5 L1079.2,308.7 L1079.2,305.5 L1079.2,306.7 L1079.3,312.0 L1079.3,310.0 L1079.3,313.1 L1079.3,315.4 L1079.4,312.8 L1079.4,309.9 L1079.4,313.3 L1079.4,320.7 L1079.5,314.3 L1079.5,321.6 L1079.5,321.6 L1079.5,318.7 L1079.6,320.6 L1079.6,319.4 L1079.6,328.0 L1079.6,329.6 L1079.7,325.5 L1079.7,331.9 L1079.8,329.1 L1079.8,328.3 L1079.8,336.0 L1079.8,332.8 L1079.9,333.1 L1079.9,334.9 L1079.9,336.0 L1079.9,342.4 L1080.0,343.5 L1080.0,342.1 L1080.0,344.1 L1080.0,344.1 L1080.1,347.4 L1080.1,345.0 L1080.1,351.2 L1080.1,346.1 L1080.2,348.6 L1080.2,350.1 L1080.2,352.2 L1080.2,354.5 L1080.3,357.2 L1080.3,355.5 L1080.3,356.4 L1080.4,360.9 L1080.4,364.7 L1080.4,361.8 L1080.5,365.1 L1080.5,368.2 L1080.5,367.8 L1080.5,367.1 L1080.6,368.4 L1080.6,370.6 L1080.6,372.9 L1080.6,372.8 L1080.7,376.8 L1080.7,374.4 L1080.7,378.4 L1080.7,378.8 L1080.8,382.7 L1080.8,380.3 L1080.8,382.9 L1080.8,384.4 L1080.9,387.6 L1080.9,386.6 L1080.9,389.7 L1080.9,387.7 L1081.0,393.1 L1081.0,394.6 L1081.1,397.0 L1081.1,397.8 L1081.1,397.9 L1081.1,399.6 L1081.2,400.2 L1081.2,402.3 L1081.2,404.2 L1081.2,403.7 L1081.3,405.9 L1081.3,408.1 L1081.3,408.4 L1081.3,409.3 L1081.4,411.4 L1081.4,412.5 L1081.4,413.5 L1081.4,415.1 L1081.5,416.0 L1081.5,417.8 L1081.5,419.0 L1081.5,420.2 L1081.6,421.3 L1081.6,424.7 L1081.7,426.1 L1081.7,427.6 L1081.7,428.5 L1081.7,430.5 L1081.8,431.1 L1081.8,432.8 L1081.8,434.2 L1081.8,434.7 L1081.9,436.6 L1081.9,439.2 L1081.9,439.9 L1081.9,441.2 L1082.0,441.2 L1082.0,444.4 L1082.0,443.7 L1082.0,445.0 L1082.1,447.0 L1082.1,450.1 L1082.1,450.3 L1082.1,451.7 L1082.2,450.3 L1082.2,453.0 L1082.3,455.1 L1082.3,458.2 L1082.3,459.6 L1082.3,462.7 L1082.4,460.4 L1082.4,461.8 L1082.4,466.9 L1082.4,466.9 L1082.5,467.0 L1082.5,468.5 L1082.5,467.8 L1082.5,470.2 L1082.6,470.6 L1082.6,471.3 L1082.6,472.9 L1082.6,476.5 L1082.7,478.9 L1082.7,477.6 L1082.7,482.4 L1082.7,478.9 L1082.8,485.4 L1082.8,482.0 L1082.8,487.0 L1082.9,485.7 L1082.9,486.3 L1082.9,489.0 L1083.0,495.1 L1083.0,493.9 L1083.0,496.7 L1083.0,496.8 L1083.1,496.8 L1083.1,502.5 L1083.1,500.7 L1083.1,503.1 L1083.2,501.9 L1083.2,501.8 L1083.3,513.5 L1083.4,511.3 L1083.4,509.6 L1083.4,511.7 L1083.4,513.0 L1083.5,522.9 L1083.6,522.9 L1083.6,529.0 L1083.6,528.0 L1083.6,525.7 L1083.7,532.1 L1083.7,529.0 L1083.7,528.6 L1083.7,527.1 L1083.8,537.5 L1083.8,528.5 L1083.8,537.1 L1083.8,538.3 L1083.9,535.5 L1083.9,542.0 L1083.9,542.9 L1083.9,544.0 L1084.0,536.7 L1084.0,540.4" fill="none" stroke="#1f77b4" stroke-width="1.4" opacity="0.85"/><text x="1040" y="54" fill="#ff7f0e" font-size="11">roll 18</text><text x="1090" y="558" fill="#ff7f0e" font-size="11">-18</text><path d="M1068.4,308.7 L1068.4,308.7 L1068.4,308.7 L1068.4,308.7 L1068.5,308.7 L1068.5,308.7 L1068.5,308.7 L1068.5,308.7 L1068.6,308.7 L1068.6,308.7 L1068.6,308.7 L1068.6,308.7 L1068.7,308.7 L1068.7,308.7 L1068.7,308.7 L1068.7,308.7 L1068.8,308.7 L1068.8,308.7 L1068.8,308.7 L1068.8,308.7 L1068.9,308.7 L1068.9,308.7 L1068.9,308.7 L1068.9,308.7 L1069.0,308.7 L1069.0,308.7 L1069.0,308.7 L1069.0,308.7 L1069.1,308.7 L1069.1,308.7 L1069.1,308.7 L1069.1,308.7 L1069.2,308.7 L1069.2,308.7 L1069.2,308.7 L1069.2,308.7 L1069.3,308.7 L1069.3,308.7 L1069.3,308.7 L1069.3,308.7 L1069.4,308.7 L1069.4,308.7 L1069.4,308.7 L1069.4,308.7 L1069.5,308.7 L1069.5,308.7 L1069.5,308.7 L1069.5,308.7 L1069.6,308.7 L1069.6,308.7 L1069.6,308.7 L1069.6,308.7 L1069.7,308.7 L1069.7,308.7 L1069.7,308.7 L1069.7,308.7 L1069.8,308.7 L1069.8,308.7 L1069.8,308.7 L1069.8,308.7 L1069.9,308.7 L1069.9,308.7 L1069.9,308.7 L1069.9,308.7 L1070.0,308.7 L1070.0,308.7 L1070.0,308.7 L1070.0,308.7 L1070.1,308.7 L1070.1,307.5 L1070.1,308.7 L1070.1,308.7 L1070.2,308.7 L1070.2,308.7 L1070.2,308.7 L1070.2,308.7 L1070.3,308.7 L1070.3,308.7 L1070.3,308.7 L1070.3,308.7 L1070.4,308.7 L1070.4,308.7 L1070.4,307.5 L1070.4,308.7 L1070.5,308.7 L1070.5,308.7 L1070.5,308.7 L1070.5,308.7 L1070.6,307.5 L1070.6,308.7 L1070.6,307.5 L1070.7,307.5 L1070.7,308.7 L1070.7,308.7 L1070.7,308.7 L1070.8,308.7 L1070.8,308.7 L1070.8,308.7 L1070.8,308.7 L1070.9,308.7 L1070.9,307.5 L1070.9,308.7 L1070.9,308.7 L1071.0,308.7 L1071.0,308.7 L1071.0,308.7 L1071.0,308.7 L1071.1,308.7 L1071.1,308.7 L1071.1,308.7 L1071.1,308.7 L1071.1,307.5 L1071.2,308.7 L1071.2,308.7 L1071.2,308.7 L1071.3,308.7 L1071.3,307.5 L1071.3,307.5 L1071.3,308.7 L1071.4,308.7 L1071.4,308.7 L1071.4,307.5 L1071.4,308.7 L1071.5,308.7 L1071.5,308.7 L1071.5,308.7 L1071.5,308.7 L1071.6,308.7 L1071.6,307.5 L1071.6,308.7 L1071.6,308.7 L1071.7,308.7 L1071.7,308.7 L1071.7,308.7 L1071.7,308.7 L1071.8,301.1 L1071.8,268.0 L1071.8,240.1 L1071.8,217.2 L1071.9,193.0 L1071.9,181.6 L1071.9,170.1 L1071.9,149.8 L1072.0,147.2 L1072.0,142.1 L1072.0,133.2 L1072.0,133.2 L1072.1,114.2 L1072.1,121.8 L1072.1,109.1 L1072.1,118.0 L1072.2,116.7 L1072.2,116.7 L1072.2,102.7 L1072.2,109.1 L1072.3,111.6 L1072.3,102.7 L1072.3,97.6 L1072.3,106.5 L1072.4,102.7 L1072.4,114.2 L1072.4,118.0 L1072.5,112.9 L1072.5,111.6 L1072.5,110.3 L1072.5,107.8 L1072.6,124.3 L1072.6,118.0 L1072.6,124.3 L1072.6,135.8 L1072.7,126.9 L1072.7,124.3 L1072.7,130.7 L1072.7,147.2 L1072.8,142.1 L1072.8,134.5 L1072.8,153.6 L1072.8,139.6 L1072.9,153.6 L1072.9,154.8 L1072.9,162.5 L1072.9,158.7 L1073.0,166.3 L1073.0,143.4 L1073.0,181.6 L1073.1,219.7 L1073.1,265.5 L1073.1,294.7 L1073.1,320.2 L1073.2,345.6 L1073.2,366.0 L1073.2,396.5 L1073.2,420.6 L1073.3,433.4 L1073.3,439.7 L1073.3,463.9 L1073.3,474.1 L1073.4,474.1 L1073.4,485.5 L1073.4,484.2 L1073.4,495.7 L1073.5,505.8 L1073.5,504.6 L1073.5,514.8 L1073.5,509.7 L1073.6,500.8 L1073.6,512.2 L1073.6,513.5 L1073.7,500.8 L1073.7,504.6 L1073.7,514.8 L1073.7,510.9 L1073.8,519.8 L1073.8,516.0 L1073.8,513.5 L1073.8,508.4 L1073.9,519.8 L1073.9,508.4 L1073.9,526.2 L1073.9,514.8 L1074.0,507.1 L1074.0,524.9 L1074.0,524.9 L1074.0,523.7 L1074.1,508.4 L1074.1,519.8 L1074.1,526.2 L1074.1,514.8 L1074.2,505.8 L1074.2,493.1 L1074.2,485.5 L1074.3,499.5 L1074.3,495.7 L1074.3,510.9 L1074.3,504.6 L1074.4,509.7 L1074.4,502.0 L1074.4,504.6 L1074.4,524.9 L1074.5,507.1 L1074.5,507.1 L1074.5,526.2 L1074.5,512.2 L1074.6,517.3 L1074.6,513.5 L1074.6,510.9 L1074.6,512.2 L1074.7,526.2 L1074.7,518.6 L1074.7,508.4 L1074.7,509.7 L1074.8,509.7 L1074.8,502.0 L1074.8,499.5 L1074.9,517.3 L1074.9,522.4 L1074.9,517.3 L1074.9,517.3 L1075.0,523.7 L1075.0,512.2 L1075.0,504.6 L1075.0,512.2 L1075.1,512.2 L1075.1,519.8 L1075.1,517.3 L1075.1,485.5 L1075.2,453.7 L1075.2,411.7 L1075.2,369.8 L1075.2,335.4 L1075.3,310.0 L1075.3,283.3 L1075.3,259.1 L1075.3,238.8 L1075.4,209.5 L1075.4,175.2 L1075.4,172.7 L1075.5,159.9 L1075.5,148.5 L1075.5,137.0 L1075.5,119.2 L1075.6,119.2 L1075.6,114.2 L1075.6,109.1 L1075.6,115.4 L1075.7,105.2 L1075.7,112.9 L1075.7,115.4 L1075.7,115.4 L1075.8,114.2 L1075.8,98.9 L1075.8,95.1 L1075.8,106.5 L1075.9,107.8 L1075.9,106.5 L1075.9,92.5 L1075.9,111.6 L1076.0,109.1 L1076.0,111.6 L1076.0,112.9 L1076.1,119.2 L1076.1,109.1 L1076.1,105.2 L1076.1,105.2 L1076.2,107.8 L1076.2,112.9 L1076.2,106.5 L1076.2,112.9 L1076.3,111.6 L1076.3,95.1 L1076.3,90.0 L1076.3,95.1 L1076.4,107.8 L1076.4,92.5 L1076.4,98.9 L1076.4,110.3 L1076.5,100.2 L1076.5,101.4 L1076.5,104.0 L1076.5,110.3 L1076.6,104.0 L1076.6,93.8 L1076.7,90.0 L1076.7,104.0 L1076.7,100.2 L1076.7,104.0 L1076.8,106.5 L1076.8,87.4 L1076.8,107.8 L1076.8,100.2 L1076.9,104.0 L1076.9,90.0 L1076.9,98.9 L1076.9,104.0 L1077.0,102.7 L1077.0,106.5 L1077.0,92.5 L1077.0,97.6 L1077.1,95.1 L1077.1,97.6 L1077.1,105.2 L1077.1,91.3 L1077.2,98.9 L1077.2,92.5 L1077.3,91.3 L1077.3,102.7 L1077.3,95.1 L1077.3,95.1 L1077.4,109.1 L1077.4,91.3 L1077.4,91.3 L1077.4,97.6 L1077.5,111.6 L1077.5,96.3 L1077.5,101.4 L1077.5,110.3 L1077.6,111.6 L1077.6,107.8 L1077.6,106.5 L1077.6,106.5 L1077.7,102.7 L1077.7,107.8 L1077.7,107.8 L1077.7,109.1 L1077.8,96.3 L1077.8,96.3 L1077.8,109.1 L1077.9,95.1 L1077.9,97.6 L1077.9,93.8 L1078.0,109.1 L1078.0,105.2 L1078.0,110.3 L1078.0,106.5 L1078.1,107.8 L1078.1,98.9 L1078.1,97.6 L1078.1,95.1 L1078.2,104.0 L1078.2,95.1 L1078.2,101.4 L1078.2,95.1 L1078.3,109.1 L1078.3,106.5 L1078.3,109.1 L1078.3,105.2 L1078.4,109.1 L1078.4,87.4 L1078.4,88.7 L1078.4,90.0 L1078.5,98.9 L1078.5,107.8 L1078.6,93.8 L1078.6,91.3 L1078.6,109.1 L1078.6,107.8 L1078.7,96.3 L1078.7,101.4 L1078.7,107.8 L1078.7,100.2 L1078.8,95.1 L1078.8,97.6 L1078.8,101.4 L1078.8,96.3 L1078.9,101.4 L1078.9,110.3 L1078.9,92.5 L1078.9,92.5 L1079.0,102.7 L1079.0,101.4 L1079.0,88.7 L1079.0,95.1 L1079.1,102.7 L1079.1,95.1 L1079.2,102.7 L1079.2,93.8 L1079.2,98.9 L1079.2,112.9 L1079.3,106.5 L1079.3,101.4 L1079.3,114.2 L1079.3,109.1 L1079.4,98.9 L1079.4,105.2 L1079.4,110.3 L1079.4,91.3 L1079.5,92.5 L1079.5,104.0 L1079.5,110.3 L1079.5,97.6 L1079.6,111.6 L1079.6,102.7 L1079.6,98.9 L1079.6,95.1 L1079.7,96.3 L1079.7,92.5 L1079.8,77.3 L1079.8,76.0 L1079.8,78.5 L1079.8,84.9 L1079.9,97.6 L1079.9,81.1 L1079.9,91.3 L1079.9,86.2 L1080.0,107.8 L1080.0,106.5 L1080.0,97.6 L1080.0,106.5 L1080.1,98.9 L1080.1,98.9 L1080.1,110.3 L1080.1,92.5 L1080.2,107.8 L1080.2,91.3 L1080.2,106.5 L1080.2,104.0 L1080.3,106.5 L1080.3,98.9 L1080.3,96.3 L1080.4,120.5 L1080.4,105.2 L1080.4,109.1 L1080.5,105.2 L1080.5,110.3 L1080.5,104.0 L1080.5,98.9 L1080.6,112.9 L1080.6,102.7 L1080.6,106.5 L1080.6,102.7 L1080.7,100.2 L1080.7,95.1 L1080.7,106.5 L1080.7,100.2 L1080.8,97.6 L1080.8,100.2 L1080.8,97.6 L1080.8,104.0 L1080.9,107.8 L1080.9,91.3 L1080.9,96.3 L1080.9,91.3 L1081.0,114.2 L1081.0,100.2 L1081.1,97.6 L1081.1,92.5 L1081.1,102.7 L1081.1,97.6 L1081.2,100.2 L1081.2,91.3 L1081.2,109.1 L1081.2,109.1 L1081.3,133.2 L1081.3,172.7 L1081.3,214.6 L1081.3,240.1 L1081.4,270.6 L1081.4,312.5 L1081.4,336.7 L1081.4,354.5 L1081.5,377.4 L1081.5,402.8 L1081.5,411.7 L1081.5,427.0 L1081.6,428.3 L1081.6,465.2 L1081.7,456.2 L1081.7,449.9 L1081.7,455.0 L1081.7,457.5 L1081.8,453.7 L1081.8,458.8 L1081.8,462.6 L1081.8,469.0 L1081.9,455.0 L1081.9,441.0 L1081.9,449.9 L1081.9,441.0 L1082.0,429.5 L1082.0,437.2 L1082.0,447.3 L1082.0,439.7 L1082.1,442.3 L1082.1,411.7 L1082.1,413.0 L1082.1,413.0 L1082.2,420.6 L1082.2,411.7 L1082.3,443.5 L1082.3,434.6 L1082.3,441.0 L1082.3,441.0 L1082.4,423.2 L1082.4,400.3 L1082.4,406.7 L1082.4,410.5 L1082.5,402.8 L1082.5,387.6 L1082.5,386.3 L1082.5,383.8 L1082.6,379.9 L1082.6,379.9 L1082.6,368.5 L1082.6,366.0 L1082.7,373.6 L1082.7,367.2 L1082.7,353.2 L1082.7,352.0 L1082.8,349.4 L1082.8,349.4 L1082.8,352.0 L1082.9,363.4 L1082.9,372.3 L1082.9,386.3 L1083.0,391.4 L1083.0,400.3 L1083.0,401.6 L1083.0,413.0 L1083.1,420.6 L1083.1,432.1 L1083.1,449.9 L1083.1,458.8 L1083.2,460.1 L1083.2,475.3 L1083.3,544.0 L1083.4,503.3 L1083.4,491.9 L1083.4,470.2 L1083.4,463.9 L1083.5,415.6 L1083.6,407.9 L1083.6,392.7 L1083.6,386.3 L1083.6,386.3 L1083.7,374.9 L1083.7,369.8 L1083.7,364.7 L1083.7,359.6 L1083.8,354.5 L1083.8,352.0 L1083.8,345.6 L1083.8,345.6 L1083.9,343.1 L1083.9,340.5 L1083.9,335.4 L1083.9,335.4 L1084.0,330.3 L1084.0,329.1" fill="none" stroke="#ff7f0e" stroke-width="1.1" opacity="0.85"/><text x="616" y="572" font-size="11" fill="#888">time 0..822 s — altitude (blue) &amp; roll (orange)</text></svg>