<svg xmlns="http://www.w3.org/2000/svg" width="840" height="860" font-family="sans-serif" font-size="13"><rect width="840" height="860" fill="white"/><text x="20" y="26" font-size="15" fill="#333">TMS-7 F15 — cross-wind sweep (10% noise)</text><rect x="20" y="40" width="800" height="800" fill="#fbfbfb" stroke="#ddd"/><rect x="50" y="528" width="247" height="4" fill="#cde" stroke="#369" opacity="0.7"/><text x="50" y="523" fill="#369" font-size="12">landing zone</text><circle cx="205" cy="572" r="5" fill="black"/><text x="213" y="576" font-size="12">pad</text><path d="M205.2,571.7 L205.2,571.7 L205.2,571.7 L205.2,571.7 L205.2,571.7 L205.2,571.7 L205.2,571.7 L205.2,571.7 L205.2,571.7 L205.2,571.7 L205.2,571.7 L205.2,571.7 L205.2,571.7 L205.2,571.7 L205.2,571.7 L205.2,571.7 L205.2,571.7 L205.2,571.7 L205.2,571.7 L205.2,571.7 L205.2,571.7 L205.2,571.7 L205.2,571.7 L205.2,571.7 L205.2,571.7 L205.2,571.7 L205.2,571.7 L205.2,571.7 L205.2,571.7 L205.2,571.7 L205.2,571.7 L205.2,571.7 L205.2,571.7 L205.2,571.7 L205.2,571.7 L205.2,571.7 L205.2,571.7 L205.2,571.7 L205.2,571.7 L205.2,571.7 L205.2,571.7 L205.2,571.7 L205.2,571.7 L205.2,571.7 L205.2,571.7 L205.2,571.7 L205.2,571.7 L205.2,571.7 L205.2,571.7 L205.2,571.7 L205.2,571.7 L205.2,571.7 L205.2,571.7 L205.2,571.7 L205.2,571.7 L205.2,571.7 L205.2,571.7 L205.2,571.7 L206.2,570.0 L207.3,567.9 L208.6,565.8 L209.9,563.8 L211.0,561.7 L212.3,559.7 L213.6,557.7 L214.8,555.7 L216.0,553.6 L217.3,551.6 L218.6,549.5 L219.9,547.6 L221.3,545.5 L222.6,543.6 L223.9,541.6 L225.2,539.7 L226.6,537.6 L227.9,535.7 L229.4,533.7 L230.8,531.8 L232.1,529.9 L233.5,527.8 L234.8,525.9 L236.2,523.8 L237.5,521.9 L238.9,520.0 L240.4,518.0 L241.8,516.1 L243.2,514.2 L244.7,512.3 L246.1,510.4 L247.5,508.5 L248.9,506.6 L250.4,504.7 L251.8,502.8 L253.4,500.9 L254.8,499.0 L256.4,497.2 L257.8,495.3 L259.4,493.4 L260.8,491.7 L262.4,489.8 L264.0,488.0 L265.5,486.1 L267.1,484.4 L268.7,482.5 L270.3,480.7 L271.8,479.0 L273.4,477.1 L275.0,475.3 L276.5,473.6 L278.3,471.9 L279.8,470.1 L281.4,468.4 L283.1,466.6 L284.7,464.9 L286.4,463.1 L288.1,461.4 L289.7,459.7 L291.4,458.1 L293.1,456.3 L294.9,454.6 L296.6,453.0 L298.3,451.3 L300.0,449.7 L301.7,447.9 L303.4,446.3 L305.2,444.8 L307.0,443.0 L308.7,441.4 L310.4,439.8 L312.3,438.3 L314.0,436.7 L315.9,435.1 L317.6,433.5 L319.5,431.9 L321.3,430.3 L323.0,428.7 L324.9,427.3 L326.7,425.7 L328.6,424.2 L330.5,422.7 L332.3,421.1 L334.2,419.7 L336.0,418.1 L337.9,416.7 L339.8,415.3 L341.6,413.9 L343.6,412.3 L345.5,410.8 L347.3,409.4 L349.3,408.0 L351.2,406.6 L353.2,405.1 L355.1,403.7 L357.1,402.4 L358.9,401.0 L360.9,399.6 L362.9,398.3 L364.9,396.9 L366.9,395.6 L368.8,394.2 L370.8,392.9 L372.8,391.7 L374.8,390.2 L376.8,389.0 L378.8,387.7 L381.0,386.4 L383.0,385.2 L385.0,383.9 L387.0,382.6 L389.0,381.4 L391.1,380.1 L393.1,379.0 L395.3,377.7 L397.3,376.5 L399.4,375.3 L401.4,374.1 L403.6,373.0 L405.6,371.9 L407.7,370.6 L409.8,369.5 L411.8,368.4 L414.0,367.3 L416.1,366.1 L418.3,365.0 L420.4,363.9 L422.4,362.8 L424.6,361.7 L426.7,360.8 L428.9,359.7 L431.0,358.5 L433.3,357.6 L435.4,356.6 L437.6,355.5 L439.7,354.6 L441.9,353.6 L444.0,352.5 L446.3,351.6 L448.5,350.6 L450.6,349.7 L452.9,348.7 L455.0,347.8 L457.3,347.0 L459.5,346.0 L461.8,345.1 L463.9,344.1 L466.2,343.3 L468.3,342.4 L470.6,341.6 L472.8,340.8 L475.1,339.8 L477.4,339.0 L479.5,338.3 L481.8,337.5 L484.1,336.7 L486.4,335.9 L488.7,335.1 L490.8,334.3 L493.1,333.7 L495.4,332.9 L497.7,332.1 L499.9,331.4 L502.2,330.7 L504.5,330.0 L506.8,329.4 L509.1,328.6 L511.4,328.0 L513.7,327.3 L516.0,326.7 L518.4,326.1 L520.7,325.4 L523.0,324.8 L525.3,324.2 L527.6,323.7 L529.8,323.0 L532.3,322.4 L534.6,321.9 L536.8,321.3 L539.3,320.8 L541.6,320.3 L543.9,319.7 L546.3,319.2 L548.6,318.8 L550.9,318.3 L553.3,317.8 L555.6,317.3 L558.0,316.9 L560.3,316.5 L562.6,316.1 L565.0,315.6 L567.3,315.3 L569.7,314.8 L572.0,314.5 L574.5,314.2 L576.8,313.7 L579.2,313.4 L581.6,313.1 L583.9,312.7 L586.3,312.4 L588.6,312.1 L591.1,311.8 L593.3,311.6 L595.8,311.3 L598.2,311.0 L600.5,310.8 L602.9,310.5 L605.4,310.4 L607.6,310.2 L610.1,309.9 L612.5,309.7 L614.8,309.6 L617.2,309.4 L619.7,309.3 L621.9,309.1 L624.4,308.9 L626.4,308.9 L628.4,308.8 L630.4,308.6 L632.4,308.6 L634.4,308.5 L636.4,308.5 L638.4,308.5 L640.3,308.3 L642.3,308.3 L644.3,308.3 L646.3,308.3 L648.3,308.3 L650.3,308.3 L652.3,308.3 L654.3,308.3 L656.3,308.3 L658.3,308.3 L660.3,308.3 L662.3,308.3 L664.3,308.5 L666.3,308.5 L668.3,308.5 L670.1,308.6 L672.1,308.6 L674.2,308.8 L676.2,308.8 L678.2,308.9 L680.2,309.1 L682.2,309.1 L684.2,309.3 L686.2,309.4 L688.2,309.6 L690.2,309.7 L692.0,309.9 L694.0,310.0 L696.0,310.2 L698.0,310.4 L700.0,310.5 L702.0,310.7 L704.0,311.0 L706.0,311.2 L707.9,311.3 L709.9,311.6 L711.9,311.8 L713.9,312.1 L715.9,312.3 L717.9,312.6 L719.8,312.9 L721.8,313.1 L723.8,313.4 L725.8,313.7 L727.8,314.0 L729.6,314.3 L731.6,314.6 L733.6,315.0 L735.7,315.3 L737.5,315.6 L739.5,315.9 L741.5,316.2 L743.5,316.5 L745.4,317.0 L747.4,317.3 L749.4,317.8 L751.2,318.1 L753.2,318.4 L755.2,318.9 L757.1,319.4 L759.1,319.7 L761.0,320.2 L763.0,320.7 L765.0,321.0 L766.8,321.5 L768.8,321.9 L770.7,322.4 L772.7,322.9 L774.6,323.4 L776.6,323.8 L778.4,324.3 L780.4,324.8 L782.3,325.4 L784.3,325.9 L786.1,326.4 L788.1,327.0 L790.0,327.5" fill="none" stroke="#1f77b4" stroke-width="1.7" opacity="0.85"/><circle cx="790" cy="327" r="4.5" fill="#1f77b4"/><rect x="28" y="48" width="13" height="13" fill="#1f77b4"/><text x="46" y="59" font-size="12">calm</text><path d="M205.2,571.7 L205.2,571.7 L205.2,571.7 L205.2,571.7 L205.2,571.7 L205.2,571.7 L205.2,571.7 L205.2,571.7 L205.2,571.7 L205.2,571.7 L205.2,571.7 L205.2,571.7 L205.2,571.7 L205.2,571.7 L205.2,571.7 L205.2,571.7 L205.2,571.7 L205.2,571.7 L205.2,571.7 L205.2,571.7 L205.2,571.7 L205.2,571.7 L205.2,571.7 L205.2,571.7 L205.2,571.7 L205.2,571.7 L205.2,571.7 L205.2,571.7 L205.2,571.7 L205.2,571.7 L205.2,571.7 L205.2,571.7 L205.2,571.7 L205.2,571.7 L205.2,571.7 L205.2,571.7 L205.2,571.7 L205.2,571.7 L205.2,571.7 L205.2,571.7 L205.2,571.7 L205.2,571.7 L205.2,571.7 L205.2,571.7 L205.2,571.7 L205.2,571.7 L205.2,571.7 L205.2,571.7 L205.2,571.7 L205.2,571.7 L205.2,571.7 L205.2,571.7 L205.2,571.7 L205.2,571.7 L205.2,571.7 L205.2,571.7 L205.2,571.7 L205.2,571.7 L206.0,570.3 L206.9,568.7 L207.9,567.1 L208.9,565.5 L209.9,563.9 L210.8,562.3 L211.8,560.8 L212.8,559.2 L213.9,557.6 L214.9,556.0 L215.9,554.4 L216.9,552.8 L218.1,551.3 L219.1,549.7 L220.2,548.2 L221.2,546.7 L222.3,545.1 L223.3,543.6 L224.5,542.1 L225.6,540.5 L226.8,539.0 L227.9,537.5 L229.1,536.0 L230.2,534.6 L231.4,533.0 L232.5,531.6 L233.6,530.2 L234.8,528.6 L236.1,527.2 L237.2,525.6 L238.4,524.2 L239.5,522.7 L240.6,521.3 L241.9,519.7 L243.1,518.3 L244.2,516.9 L245.5,515.4 L246.8,514.0 L247.9,512.6 L249.2,511.2 L250.5,509.7 L251.7,508.3 L252.9,506.9 L254.2,505.6 L255.5,504.2 L256.8,502.8 L258.2,501.5 L259.5,500.1 L260.8,498.8 L262.1,497.4 L263.5,496.1 L264.8,494.7 L266.3,493.4 L267.5,492.1 L269.0,490.7 L270.3,489.4 L271.7,488.2 L273.1,486.9 L274.5,485.6 L275.8,484.4 L277.3,483.1 L278.7,481.8 L280.1,480.6 L281.7,479.3 L283.1,478.2 L284.6,476.9 L286.0,475.7 L287.6,474.5 L289.0,473.3 L290.4,472.2 L292.0,470.9 L293.4,469.8 L295.0,468.5 L296.6,467.4 L298.0,466.3 L299.6,465.2 L301.1,464.1 L302.7,462.8 L304.3,461.7 L305.9,460.6 L307.4,459.7 L309.0,458.5 L310.6,457.4 L312.2,456.3 L313.7,455.2 L315.3,454.3 L317.0,453.2 L318.6,452.2 L320.2,451.1 L321.9,450.1 L323.5,449.0 L325.2,448.1 L326.9,447.1 L328.5,446.2 L330.2,445.2 L331.9,444.3 L333.5,443.3 L335.2,442.4 L336.9,441.4 L338.6,440.5 L340.3,439.5 L342.1,438.6 L343.8,437.8 L345.5,436.8 L347.2,436.0 L348.9,435.1 L350.8,434.3 L352.5,433.3 L354.2,432.6 L356.1,431.8 L357.8,430.8 L359.5,430.0 L361.4,429.2 L363.1,428.4 L364.9,427.6 L366.8,426.8 L368.5,426.2 L370.4,425.4 L372.2,424.6 L373.9,424.0 L375.8,423.2 L377.7,422.4 L379.5,421.8 L381.4,421.1 L383.2,420.3 L385.1,419.7 L387.0,419.1 L388.8,418.4 L390.7,417.8 L392.5,417.2 L394.4,416.5 L396.3,415.9 L398.3,415.3 L400.1,414.6 L402.0,414.2 L404.0,413.5 L405.8,412.9 L407.7,412.4 L409.7,411.8 L411.6,411.3 L413.6,410.8 L415.4,410.2 L417.4,409.7 L419.3,409.3 L421.3,408.8 L423.3,408.3 L425.1,407.8 L427.2,407.4 L429.2,407.0 L431.2,406.6 L433.0,406.1 L435.0,405.8 L437.0,405.3 L439.0,405.0 L441.0,404.5 L443.0,404.2 L445.0,403.9 L447.0,403.6 L449.0,403.1 L451.0,402.8 L453.0,402.4 L455.0,402.3 L457.0,402.0 L459.0,401.6 L461.2,401.3 L463.2,401.2 L465.2,400.9 L467.2,400.5 L469.2,400.4 L471.3,400.2 L473.3,399.9 L475.3,399.7 L477.5,399.6 L479.5,399.4 L481.5,399.3 L483.6,399.1 L485.6,399.0 L487.8,398.8 L489.8,398.6 L491.9,398.6 L493.9,398.5 L496.1,398.5 L498.1,398.3 L500.2,398.3 L502.2,398.2 L504.4,398.2 L506.4,398.2 L508.5,398.2 L510.7,398.2 L512.7,398.2 L514.8,398.2 L517.0,398.2 L519.0,398.2 L521.1,398.3 L523.3,398.3 L525.4,398.3 L527.4,398.5 L529.6,398.6 L531.7,398.6 L533.8,398.8 L535.8,399.0 L538.0,399.1 L540.1,399.1 L542.3,399.3 L544.4,399.6 L546.4,399.7 L548.6,399.9 L550.7,400.1 L552.9,400.4 L555.0,400.5 L557.2,400.9 L559.3,401.0 L561.3,401.3 L563.5,401.5 L565.6,401.8 L567.7,402.1 L569.6,402.4 L571.3,402.6 L573.0,402.9 L574.9,403.2 L576.6,403.6 L578.5,403.7 L580.2,404.0 L582.0,404.3 L583.8,404.7 L585.5,405.0 L587.3,405.3 L589.1,405.8 L590.9,406.1 L592.6,406.4 L594.5,406.7 L596.2,407.2 L597.9,407.5 L599.8,407.8 L601.5,408.3 L603.4,408.6 L605.1,409.1 L606.9,409.6 L608.6,409.9 L610.5,410.4 L612.2,410.8 L613.9,411.3 L615.8,411.8 L617.5,412.3 L619.4,412.7 L621.1,413.2 L622.9,413.7 L624.7,414.2 L626.4,414.6 L628.2,415.1 L630.0,415.6 L631.8,416.2 L633.5,416.7 L635.2,417.3 L637.1,417.8 L638.8,418.4 L640.5,418.9 L642.4,419.6 L644.1,420.0 L646.0,420.7 L647.7,421.3 L649.4,421.9 L651.3,422.6 L653.0,423.2 L654.7,423.8 L656.6,424.5 L658.3,425.1 L660.0,425.7 L661.7,426.4 L663.6,427.0 L665.3,427.6 L667.0,428.4 L668.9,429.1 L670.6,429.7 L672.3,430.5 L674.0,431.1 L675.9,431.9 L677.6,432.7 L679.3,433.3 L681.0,434.1 L682.7,434.9 L684.6,435.6 L686.3,436.4 L688.0,437.1 L689.7,437.9 L691.5,438.7 L693.2,439.5 L694.9,440.3 L696.6,441.1 L698.3,442.1 L700.2,442.9 L701.9,443.6 L703.6,444.4 L705.3,445.4 L707.0,446.2 L708.8,447.1 L710.5,447.9 L712.2,448.9 L713.9,449.7 L715.6,450.6" fill="none" stroke="#17becf" stroke-width="1.7" opacity="0.85"/><circle cx="716" cy="451" r="4.5" fill="#17becf"/><rect x="28" y="68" width="13" height="13" fill="#17becf"/><text x="46" y="79" font-size="12">3 m/s</text><path d="M205.2,571.7 L205.2,571.7 L205.2,571.7 L205.2,571.7 L205.2,571.7 L205.2,571.7 L205.2,571.7 L205.2,571.7 L205.2,571.7 L205.2,571.7 L205.2,571.7 L205.2,571.7 L205.2,571.7 L205.2,571.7 L205.2,571.7 L205.2,571.7 L205.2,571.7 L205.2,571.7 L205.2,571.7 L205.2,571.7 L205.2,571.7 L205.2,571.7 L205.2,571.7 L205.2,571.7 L205.2,571.7 L205.2,571.7 L205.2,571.7 L205.2,571.7 L205.2,571.7 L205.2,571.7 L205.2,571.7 L205.2,571.7 L205.2,571.7 L205.2,571.7 L205.2,571.7 L205.2,571.7 L205.2,571.7 L205.2,571.7 L205.2,571.7 L205.2,571.7 L205.2,571.7 L205.2,571.7 L205.2,571.7 L205.2,571.7 L205.2,571.7 L205.2,571.7 L205.2,571.7 L205.2,571.7 L205.2,571.7 L205.2,571.7 L205.2,571.7 L205.2,571.7 L205.2,571.7 L205.2,571.7 L205.2,571.7 L205.2,571.7 L205.2,571.7 L205.2,571.7 L205.2,571.7 L205.8,570.7 L206.5,569.5 L207.2,568.4 L207.9,567.3 L208.6,566.0 L209.3,564.9 L210.0,563.8 L210.8,562.7 L211.6,561.4 L212.3,560.3 L213.2,559.2 L213.9,558.1 L214.8,557.0 L215.5,555.8 L216.3,554.7 L217.2,553.6 L217.9,552.5 L218.8,551.4 L219.6,550.5 L220.5,549.3 L221.3,548.2 L222.3,547.1 L223.2,546.2 L224.1,545.1 L224.9,544.1 L225.9,543.0 L226.8,542.1 L227.8,541.0 L228.6,540.0 L229.6,538.9 L230.5,537.9 L231.5,537.0 L232.5,536.0 L233.5,534.9 L234.5,534.0 L235.5,533.0 L236.5,532.1 L237.5,531.1 L238.5,530.2 L239.5,529.2 L240.5,528.3 L241.4,527.2 L242.4,526.2 L243.4,525.3 L244.4,524.3 L245.4,523.4 L246.5,522.4 L247.5,521.5 L248.5,520.5 L249.5,519.6 L250.7,518.8 L251.7,517.8 L252.8,516.9 L253.8,516.1 L255.0,515.1 L256.0,514.2 L257.1,513.4 L258.2,512.4 L259.4,511.6 L260.5,510.8 L261.7,509.9 L262.8,509.1 L264.0,508.3 L265.1,507.5 L266.3,506.7 L267.4,505.9 L268.7,505.1 L269.8,504.3 L271.0,503.5 L272.3,502.8 L273.4,502.0 L274.7,501.2 L276.0,500.4 L277.1,499.7 L278.4,499.0 L279.7,498.3 L281.0,497.5 L282.3,496.9 L283.6,496.1 L284.8,495.5 L286.1,494.8 L287.4,494.0 L288.7,493.4 L290.0,492.8 L291.3,492.1 L292.7,491.5 L294.0,490.9 L295.3,490.2 L296.7,489.6 L298.0,489.1 L299.4,488.5 L300.7,487.9 L302.1,487.4 L303.6,486.8 L305.0,486.1 L306.3,485.6 L307.7,485.2 L309.2,484.5 L310.6,484.1 L312.0,483.6 L313.4,483.1 L314.9,482.6 L316.3,482.0 L317.7,481.5 L319.3,481.2 L320.7,480.7 L322.2,480.3 L323.6,479.8 L325.2,479.3 L326.6,479.0 L328.2,478.5 L329.6,478.2 L331.2,477.7 L332.6,477.4 L334.2,476.9 L335.8,476.6 L337.2,476.3 L338.8,476.0 L340.3,475.7 L341.9,475.3 L343.5,475.0 L345.1,474.7 L346.6,474.4 L348.2,474.1 L349.8,473.8 L351.3,473.6 L352.9,473.3 L354.5,473.1 L356.1,472.8 L357.6,472.6 L359.4,472.3 L360.9,472.2 L362.5,472.0 L364.2,471.9 L365.8,471.7 L367.4,471.4 L369.1,471.4 L370.7,471.2 L372.4,471.1 L373.9,470.9 L375.7,470.7 L377.4,470.7 L379.0,470.6 L380.7,470.4 L382.4,470.4 L384.1,470.4 L385.7,470.3 L387.4,470.3 L389.1,470.3 L390.8,470.3 L392.5,470.3 L394.3,470.3 L396.0,470.3 L397.7,470.3 L399.4,470.3 L401.1,470.3 L402.8,470.4 L404.6,470.4 L406.3,470.6 L408.0,470.6 L409.8,470.7 L411.6,470.7 L413.3,470.9 L415.0,471.1 L416.9,471.2 L418.6,471.4 L420.3,471.5 L422.1,471.7 L423.9,471.9 L425.6,472.0 L427.4,472.2 L429.2,472.5 L431.0,472.6 L432.7,473.0 L434.6,473.1 L436.3,473.4 L438.2,473.6 L440.0,473.9 L441.7,474.2 L443.6,474.5 L445.3,474.9 L447.2,475.2 L449.0,475.5 L450.7,475.8 L452.6,476.1 L454.5,476.6 L456.3,476.9 L458.0,477.2 L459.9,477.7 L461.8,478.0 L463.6,478.5 L465.5,479.0 L467.2,479.3 L469.1,479.8 L470.9,480.3 L472.8,480.7 L474.6,481.2 L476.5,481.7 L478.4,482.2 L480.2,482.6 L482.1,483.1 L483.8,483.7 L485.6,484.2 L487.5,484.7 L489.4,485.3 L491.2,485.8 L493.1,486.3 L494.9,486.9 L496.8,487.5 L498.7,488.0 L500.5,488.7 L502.4,489.3 L504.2,489.8 L506.1,490.4 L508.0,491.0 L509.5,491.5 L511.1,492.1 L512.7,492.6 L514.3,493.1 L515.8,493.7 L517.4,494.2 L518.8,494.8 L520.4,495.3 L522.0,495.9 L523.5,496.4 L525.1,497.1 L526.7,497.5 L528.3,498.2 L529.8,498.6 L531.4,499.3 L532.8,499.9 L534.4,500.4 L536.0,501.0 L537.6,501.6 L539.1,502.3 L540.7,502.8 L542.3,503.4 L543.9,504.0 L545.4,504.7 L547.0,505.3 L548.6,505.9 L550.2,506.6 L551.6,507.2 L553.2,507.8 L554.7,508.5 L556.3,509.1 L557.9,509.7 L559.4,510.4 L561.0,511.0 L562.6,511.6 L564.2,512.3 L565.7,512.9 L567.3,513.5 L568.9,514.2 L570.5,514.8 L572.0,515.6 L573.6,516.2 L575.0,516.9 L576.6,517.5 L578.2,518.1 L579.8,518.9 L581.3,519.6 L582.9,520.2 L584.5,520.8 L586.0,521.6 L587.6,522.3 L589.2,522.9 L590.8,523.7 L592.3,524.3 L593.9,525.1 L595.5,525.7 L597.1,526.5 L598.6,527.2 L600.2,528.0 L601.8,528.6 L603.4,529.2 L604.8,530.0 L606.4,530.6 L607.9,531.4 L609.5,532.1 L611.1,532.9 L612.7,533.5 L614.2,534.3 L615.8,534.9 L617.4,535.7 L618.9,536.4 L620.5,537.1 L622.1,537.8 L623.7,538.6 L625.2,539.2 L626.8,540.0 L628.4,540.6 L630.0,541.4 L631.5,542.1 L633.1,542.9 L634.5,543.5 L636.1,544.1 L637.7,544.9 L639.3,545.5 L640.8,546.3 L642.4,547.0 L644.0,547.6 L645.5,548.4 L647.1,549.0" fill="none" stroke="#2ca02c" stroke-width="1.7" opacity="0.85"/><circle cx="647" cy="549" r="4.5" fill="#2ca02c"/><rect x="28" y="88" width="13" height="13" fill="#2ca02c"/><text x="46" y="99" font-size="12">6 m/s</text><path d="M205.2,571.7 L205.2,571.7 L205.2,571.7 L205.2,571.7 L205.2,571.7 L205.2,571.7 L205.2,571.7 L205.2,571.7 L205.2,571.7 L205.2,571.7 L205.2,571.7 L205.2,571.7 L205.2,571.7 L205.2,571.7 L205.2,571.7 L205.2,571.7 L205.2,571.7 L205.2,571.7 L205.2,571.7 L205.2,571.7 L205.2,571.7 L205.2,571.7 L205.2,571.7 L205.2,571.7 L205.2,571.7 L205.2,571.7 L205.2,571.7 L205.2,571.7 L205.2,571.7 L205.2,571.7 L205.2,571.7 L205.2,571.7 L205.2,571.7 L205.2,571.7 L205.2,571.7 L205.2,571.7 L205.2,571.7 L205.2,571.7 L205.2,571.7 L205.2,571.7 L205.2,571.7 L205.2,571.7 L205.2,571.7 L205.2,571.7 L205.2,571.7 L205.2,571.7 L205.2,571.7 L205.2,571.7 L205.2,571.7 L205.2,571.7 L205.2,571.7 L205.2,571.7 L205.2,571.7 L205.2,571.7 L205.2,571.7 L205.2,571.7 L205.2,571.7 L205.2,571.7 L205.6,571.1 L206.0,570.4 L206.5,569.6 L206.9,568.8 L207.3,568.2 L207.9,567.4 L208.3,566.8 L208.8,566.0 L209.3,565.4 L209.8,564.7 L210.3,563.9 L210.9,563.3 L211.3,562.7 L211.9,562.0 L212.5,561.4 L213.0,560.6 L213.6,560.0 L214.2,559.3 L214.8,558.7 L215.3,558.1 L216.0,557.4 L216.6,556.8 L217.2,556.2 L217.9,555.7 L218.5,555.1 L219.2,554.4 L219.8,553.8 L220.5,553.3 L221.2,552.7 L221.8,552.0 L222.5,551.6 L223.2,550.9 L223.9,550.5 L224.6,549.8 L225.3,549.3 L226.1,548.9 L226.8,548.2 L227.5,547.8 L228.3,547.3 L229.1,546.7 L229.8,546.2 L230.6,545.7 L231.4,545.2 L232.2,544.8 L232.9,544.3 L233.8,543.8 L234.6,543.3 L235.4,542.9 L236.2,542.4 L237.1,542.1 L237.9,541.6 L238.8,541.1 L239.6,540.8 L240.5,540.3 L241.4,539.8 L242.2,539.5 L243.1,539.0 L244.1,538.7 L244.9,538.4 L245.8,537.9 L246.8,537.6 L247.7,537.3 L248.7,537.0 L249.5,536.5 L250.5,536.2 L251.5,535.9 L252.4,535.6 L253.4,535.2 L254.4,534.9 L255.4,534.8 L256.4,534.5 L257.4,534.1 L258.4,533.8 L259.4,533.5 L260.4,533.3 L261.4,533.0 L262.4,532.9 L263.5,532.6 L264.5,532.4 L265.5,532.1 L266.5,531.9 L267.7,531.6 L268.7,531.4 L269.7,531.3 L270.8,531.0 L271.8,530.6 L272.8,530.5 L273.8,530.2 L274.8,529.9 L275.8,529.7 L276.8,529.4 L277.8,529.1 L278.7,528.7 L279.7,528.4 L280.7,528.1 L281.6,527.8 L282.6,527.5 L283.6,527.0 L284.4,526.7 L285.4,526.5 L286.4,526.2 L287.4,525.9 L288.4,525.6 L289.4,525.3 L290.4,525.1 L291.4,524.8 L292.4,524.5 L293.6,524.3 L294.6,524.0 L295.6,523.8 L296.7,523.7 L297.7,523.4 L298.9,523.2 L299.9,523.0 L301.0,522.9 L302.0,522.7 L303.2,522.6 L304.3,522.4 L305.4,522.3 L306.4,522.1 L307.6,521.9 L308.7,521.8 L309.9,521.6 L311.0,521.6 L312.0,521.5 L313.2,521.1 L314.3,521.0 L315.3,520.8 L316.5,520.7 L317.5,520.5 L318.6,520.2 L319.6,520.0 L320.6,519.9 L321.6,519.6 L322.7,519.4 L323.7,519.1 L324.7,518.8 L325.7,518.6 L326.7,518.3 L327.8,518.0 L328.8,517.7 L329.8,517.3 L330.6,517.0 L331.6,516.7 L332.6,516.4 L333.5,516.1 L334.5,515.8 L335.3,515.4 L336.3,515.0 L337.2,514.6 L338.2,514.3 L339.0,513.9 L339.9,513.5 L340.8,513.1 L341.6,512.7 L342.5,512.3 L343.3,511.9 L344.2,511.5 L345.1,511.0 L345.9,510.5 L346.8,510.0 L347.6,509.6 L348.3,509.3 L349.2,508.8 L349.9,508.3 L350.8,507.7 L351.5,507.2 L352.4,506.7 L353.1,506.2 L353.8,505.8 L354.5,505.1 L355.2,504.7 L355.9,504.2 L356.6,503.5 L357.4,503.1 L358.1,502.4 L358.8,501.8 L359.5,501.3 L360.1,500.7 L360.8,500.1 L361.5,499.6 L362.1,499.0 L362.6,498.3 L363.4,497.7 L363.9,497.1 L364.5,496.4 L365.1,495.8 L365.7,495.2 L366.4,494.5 L366.8,493.9 L367.4,493.2 L367.9,492.6 L368.5,492.0 L369.1,491.2 L369.5,490.6 L370.1,489.9 L370.5,489.1 L371.1,488.5 L371.5,487.7 L371.9,487.1 L372.5,486.3 L372.9,485.6 L373.4,484.8 L373.8,484.1 L374.2,483.4 L374.7,482.6 L375.1,481.8 L375.4,481.0 L375.8,480.4 L376.2,479.6 L376.5,478.8 L377.0,478.0 L377.2,477.2 L377.5,476.4 L378.0,475.7 L378.2,474.9 L378.5,474.2 L378.7,473.4 L379.0,472.8 L379.2,472.2 L379.4,471.5 L379.7,470.7 L379.8,470.1 L380.1,469.3 L380.2,468.7 L380.4,468.1 L380.7,467.3 L380.8,466.6 L381.0,465.8 L381.1,465.2 L381.2,464.4 L381.4,463.8 L381.5,463.0 L381.7,462.2 L381.8,461.6 L382.0,460.8 L382.1,460.1 L382.1,459.3 L382.2,458.5 L382.4,457.7 L382.4,457.1 L382.5,456.3 L382.5,455.5 L382.7,454.7 L382.7,454.1 L382.7,453.3 L382.8,452.5 L382.8,451.7 L382.8,450.9 L382.8,450.3 L382.8,449.5 L382.8,448.7 L382.8,447.9 L382.8,447.1 L382.8,446.3 L382.8,445.5 L382.7,444.8 L382.7,444.0 L382.7,443.2 L382.5,442.4 L382.5,441.6 L382.4,440.8 L382.4,440.0 L382.2,439.2 L382.2,438.4 L382.1,437.5 L382.0,436.7 L381.8,435.9 L381.7,435.1 L381.5,434.3 L381.4,433.5 L381.2,432.7 L381.1,431.8 L381.0,431.0 L380.8,430.2 L380.7,429.4 L380.4,428.4 L380.2,427.6 L380.1,426.8 L379.8,426.1 L379.7,425.1 L379.4,424.3 L379.1,423.5 L379.0,422.6 L378.7,421.8 L378.4,421.0 L378.1,420.0 L377.8,419.2 L377.5,418.4 L377.2,417.5 L377.0,416.7 L376.7,415.9 L376.4,415.0 L376.1,414.2 L375.8,413.2 L375.4,412.4 L375.1,411.5 L374.7,410.7 L374.4,409.9 L373.9,408.9" fill="none" stroke="#bcbd22" stroke-width="1.7" opacity="0.85"/><circle cx="374" cy="409" r="4.5" fill="#bcbd22"/><rect x="28" y="108" width="13" height="13" fill="#bcbd22"/><text x="46" y="119" font-size="12">9 m/s</text><path d="M205.2,571.7 L205.2,571.7 L205.2,571.7 L205.2,571.7 L205.2,571.7 L205.2,571.7 L205.2,571.7 L205.2,571.7 L205.2,571.7 L205.2,571.7 L205.2,571.7 L205.2,571.7 L205.2,571.7 L205.2,571.7 L205.2,571.7 L205.2,571.7 L205.2,571.7 L205.2,571.7 L205.2,571.7 L205.2,571.7 L205.2,571.7 L205.2,571.7 L205.2,571.7 L205.2,571.7 L205.2,571.7 L205.2,571.7 L205.2,571.7 L205.2,571.7 L205.2,571.7 L205.2,571.7 L205.2,571.7 L205.2,571.7 L205.2,571.7 L205.2,571.7 L205.2,571.7 L205.2,571.7 L205.2,571.7 L205.2,571.7 L205.2,571.7 L205.2,571.7 L205.2,571.7 L205.2,571.7 L205.2,571.7 L205.2,571.7 L205.2,571.7 L205.2,571.7 L205.2,571.7 L205.2,571.7 L205.2,571.7 L205.2,571.7 L205.2,571.7 L205.2,571.7 L205.2,571.7 L205.2,571.7 L205.2,571.7 L205.2,571.7 L205.2,571.7 L205.2,571.7 L205.3,571.4 L205.5,571.2 L205.8,570.9 L205.9,570.6 L206.2,570.3 L206.3,570.1 L206.6,569.8 L206.8,569.5 L207.0,569.3 L207.3,569.0 L207.6,568.8 L207.9,568.5 L208.2,568.4 L208.5,568.1 L208.8,567.9 L209.0,567.7 L209.3,567.4 L209.6,567.3 L210.0,567.1 L210.3,566.9 L210.6,566.8 L211.0,566.6 L211.3,566.3 L211.8,566.1 L212.2,566.0 L212.5,565.8 L212.9,565.7 L213.3,565.7 L213.8,565.5 L214.2,565.4 L214.6,565.2 L215.0,565.0 L215.5,565.0 L215.9,564.9 L216.3,564.7 L216.8,564.7 L217.3,564.6 L217.8,564.4 L218.2,564.4 L218.8,564.2 L219.2,564.2 L219.8,564.1 L220.2,564.1 L220.8,564.1 L221.2,563.9 L221.8,563.9 L222.3,563.9 L222.8,563.9 L223.3,563.8 L223.9,563.8 L224.5,563.8 L225.1,563.8 L225.6,563.8 L226.2,563.8 L226.8,563.8 L227.3,563.8 L227.9,563.8 L228.5,563.8 L229.1,563.8 L229.8,563.8 L230.4,563.9 L230.9,563.9 L231.5,563.9 L232.2,563.9 L232.8,564.1 L233.5,564.1 L234.1,564.1 L234.8,564.2 L235.4,564.2 L236.1,564.2 L236.6,564.4 L237.4,564.4 L237.9,564.6 L238.6,564.6 L239.4,564.7 L239.9,564.9 L240.6,564.9 L241.4,565.0 L242.1,565.0 L242.7,565.2 L243.4,565.4 L244.1,565.4 L244.8,565.5 L245.5,565.7 L246.2,565.7 L246.8,565.8 L247.5,566.0 L248.2,566.1 L248.9,566.1 L249.7,566.3 L250.4,566.5 L251.1,566.6 L251.8,566.8 L252.5,566.8 L253.2,566.9 L254.0,567.1 L254.7,567.3 L255.4,567.4 L256.1,567.4 L256.8,567.6 L257.5,567.7 L258.2,567.9 L258.8,568.1 L259.5,568.1 L260.2,568.2 L261.0,568.4 L261.7,568.5 L262.4,568.7 L263.1,568.7 L263.8,568.8 L264.5,569.0 L265.2,569.2 L266.0,569.2 L266.7,569.3 L267.3,569.5 L268.0,569.6 L268.7,569.6 L269.4,569.8 L270.1,570.0 L270.7,570.0 L271.4,570.1 L272.1,570.1 L272.8,570.3 L273.4,570.3 L274.1,570.4 L274.7,570.4 L275.4,570.6 L276.1,570.6 L276.7,570.7 L277.4,570.7 L278.0,570.7 L278.6,570.9 L279.3,570.9 L279.8,570.9 L280.6,571.1 L281.1,571.1 L281.7,571.1 L282.3,571.1 L282.8,571.1 L283.6,571.1 L284.1,571.1 L284.7,571.1 L285.3,571.1 L285.8,571.1 L286.3,571.1 L286.8,571.1 L287.4,571.1 L288.0,571.1 L288.6,570.9 L289.0,570.9 L289.6,570.9 L290.0,570.7 L290.6,570.7 L291.0,570.6 L291.6,570.6 L292.0,570.4 L292.6,570.4 L293.0,570.3 L293.4,570.3 L293.9,570.1 L294.3,570.0 L294.7,570.0 L295.1,569.8 L295.6,569.6 L296.0,569.5 L296.4,569.3 L296.9,569.2 L297.3,569.0 L297.6,568.8 L298.0,568.7 L298.3,568.5 L298.7,568.4 L299.0,568.2 L299.4,568.1 L299.7,567.7 L300.0,567.6 L300.3,567.4 L300.6,567.1 L300.9,566.9 L301.1,566.8 L301.4,566.5 L301.7,566.3 L302.0,566.0 L302.3,565.7 L302.4,565.5 L302.7,565.2 L302.9,564.9 L303.2,564.7 L303.3,564.4 L303.4,564.1 L303.7,563.8 L303.9,563.5 L304.0,563.3 L304.2,563.0 L304.3,562.7 L304.4,562.3 L304.6,562.0 L304.7,561.6 L304.7,561.2 L304.9,560.9 L304.9,560.6 L305.0,560.3 L305.0,560.0 L305.2,559.5 L305.2,559.2 L305.2,558.9 L305.2,558.4 L305.2,558.1 L305.3,557.6 L305.2,557.3 L305.2,557.0 L305.2,556.5 L305.2,556.0 L305.0,555.7 L305.0,555.2 L305.0,554.9 L304.9,554.4 L304.9,554.1 L304.7,553.8 L304.6,553.5 L304.6,553.0 L304.4,552.7 L304.3,552.4 L304.2,551.9 L304.2,551.6 L304.0,551.3 L303.9,550.8 L303.7,550.5 L303.6,550.0 L303.3,549.7 L303.2,549.2 L303.0,548.9 L302.9,548.4 L302.6,548.1 L302.4,547.6 L302.3,547.3 L302.0,546.8 L301.9,546.5 L301.6,546.0 L301.3,545.5 L301.1,545.2 L300.9,544.8 L300.6,544.4 L300.3,544.0 L300.1,543.5 L299.9,543.2 L299.6,542.7 L299.3,542.2 L299.0,541.7 L298.6,541.4 L298.3,541.0 L298.0,540.5 L297.7,540.0 L297.4,539.5 L297.0,539.2 L296.7,538.7 L296.4,538.3 L296.0,537.8 L295.7,537.3 L295.3,537.0 L295.0,536.5 L294.7,536.0 L294.3,535.6 L294.0,535.1 L293.7,534.8 L293.3,534.3 L293.0,533.8 L292.7,533.3 L292.4,532.9 L292.0,532.6 L291.7,532.1 L291.4,531.6 L291.1,531.1 L290.9,530.8 L290.6,530.3 L290.3,529.9 L289.8,529.4 L289.6,529.1 L289.3,528.6 L288.8,528.1 L288.6,527.6 L288.1,527.2 L287.8,526.7 L287.6,526.4 L287.1,525.9 L286.8,525.4 L286.6,524.9 L286.3,524.5 L286.0,524.2 L285.6,523.7 L285.3,523.2 L285.1,522.9 L284.8,522.4 L284.6,521.9 L284.3,521.6 L284.0,521.1 L283.8,520.7 L283.6,520.3 L283.3,519.9 L283.1,519.4" fill="none" stroke="#ff7f0e" stroke-width="1.7" opacity="0.85"/><circle cx="283" cy="519" r="4.5" fill="#ff7f0e"/><rect x="28" y="128" width="13" height="13" fill="#ff7f0e"/><text x="46" y="139" font-size="12">12 m/s</text><text x="28" y="832" font-size="11" fill="#888">ground track — m from pad (N up)</text></svg>