<svg xmlns="http://www.w3.org/2000/svg" width="840" height="860" font-family="sans-serif" font-size="13"><rect width="840" height="860" fill="white"/><text x="20" y="26" font-size="15" fill="#333">TMS-7 F15 — sensor-noise sweep (no wind)</text><rect x="20" y="40" width="800" height="800" fill="#fbfbfb" stroke="#ddd"/><rect x="50" y="638" width="240" height="4" fill="#cde" stroke="#369" opacity="0.7"/><text x="50" y="633" fill="#369" font-size="12">landing zone</text><circle cx="201" cy="681" r="5" fill="black"/><text x="209" y="685" font-size="12">pad</text><path d="M201.1,681.0 L201.1,681.0 L201.1,681.0 L201.1,681.0 L201.1,681.0 L201.1,681.0 L201.1,681.0 L201.1,681.0 L201.1,681.0 L201.1,681.0 L201.1,681.0 L201.1,681.0 L201.1,681.0 L201.1,681.0 L201.1,681.0 L201.1,681.0 L201.1,681.0 L201.1,681.0 L201.1,681.0 L201.1,681.0 L201.1,681.0 L201.1,681.0 L201.1,681.0 L201.1,681.0 L201.1,681.0 L201.1,681.0 L201.1,681.0 L201.1,681.0 L201.1,681.0 L201.1,681.0 L201.1,681.0 L201.1,681.0 L201.1,681.0 L201.1,681.0 L201.1,681.0 L201.1,681.0 L201.1,681.0 L201.1,681.0 L201.1,681.0 L201.1,681.0 L201.1,681.0 L201.1,681.0 L201.1,681.0 L201.1,681.0 L201.1,681.0 L201.1,681.0 L201.1,681.0 L201.1,681.0 L201.1,681.0 L201.1,681.0 L201.1,681.0 L201.1,681.0 L201.1,681.0 L201.1,681.0 L201.1,681.0 L201.1,681.0 L201.1,681.0 L201.1,681.0 L202.1,679.3 L203.2,677.3 L204.5,675.3 L205.7,673.3 L206.9,671.3 L208.1,669.3 L209.4,667.5 L210.6,665.4 L211.9,663.4 L213.0,661.4 L214.4,659.6 L215.6,657.6 L216.9,655.6 L218.1,653.7 L219.4,651.7 L220.8,649.9 L222.0,647.8 L223.4,646.0 L224.7,644.0 L226.1,642.1 L227.5,640.3 L228.7,638.3 L230.1,636.4 L231.4,634.6 L232.8,632.6 L234.2,630.7 L235.6,628.9 L236.8,627.0 L238.2,625.2 L239.6,623.1 L241.0,621.3 L242.5,619.4 L243.9,617.6 L245.3,615.9 L246.7,614.0 L248.2,612.2 L249.6,610.3 L251.2,608.5 L252.6,606.8 L254.1,604.9 L255.5,603.1 L257.0,601.4 L258.5,599.5 L260.1,597.8 L261.6,596.0 L263.1,594.3 L264.7,592.6 L266.2,590.7 L267.7,589.0 L269.3,587.3 L270.9,585.6 L272.5,583.9 L274.0,582.2 L275.7,580.5 L277.2,578.8 L278.9,577.1 L280.4,575.5 L282.1,573.8 L283.8,572.1 L285.4,570.5 L287.1,568.8 L288.6,567.1 L290.3,565.6 L292.0,563.9 L293.6,562.3 L295.5,560.6 L297.1,559.1 L298.8,557.5 L300.5,556.0 L302.3,554.3 L304.0,552.8 L305.6,551.2 L307.4,549.7 L309.1,548.1 L310.9,546.6 L312.7,545.0 L314.4,543.7 L316.2,542.1 L318.0,540.6 L319.8,539.0 L321.6,537.6 L323.5,536.1 L325.3,534.7 L327.1,533.2 L328.9,531.8 L330.7,530.4 L332.5,528.8 L334.3,527.4 L336.3,526.1 L338.1,524.7 L339.9,523.3 L341.8,521.9 L343.7,520.5 L345.6,519.1 L347.4,517.7 L349.4,516.5 L351.3,515.1 L353.1,513.7 L355.1,512.5 L357.0,511.1 L359.0,509.8 L360.9,508.5 L362.9,507.2 L364.8,506.0 L366.8,504.6 L368.7,503.4 L370.7,502.1 L372.6,500.9 L374.6,499.7 L376.5,498.4 L378.6,497.2 L380.6,496.0 L382.5,494.9 L384.6,493.6 L386.6,492.4 L388.7,491.3 L390.6,490.1 L392.7,489.0 L394.6,487.8 L396.7,486.7 L398.8,485.6 L400.8,484.5 L402.9,483.5 L405.0,482.4 L407.0,481.3 L409.0,480.2 L411.1,479.1 L413.2,478.0 L415.3,477.0 L417.4,475.9 L419.4,475.0 L421.5,473.9 L423.6,473.0 L425.7,471.9 L427.9,470.9 L430.0,470.0 L432.1,468.9 L434.2,468.0 L436.4,467.1 L438.5,466.2 L440.6,465.2 L442.8,464.3 L444.9,463.4 L447.2,462.6 L449.3,461.7 L451.5,460.8 L453.6,460.0 L455.8,459.1 L457.9,458.3 L460.1,457.4 L462.2,456.6 L464.4,455.8 L466.7,454.9 L468.9,454.1 L471.0,453.4 L473.2,452.6 L475.4,451.8 L477.7,451.2 L479.9,450.4 L482.1,449.6 L484.2,448.9 L486.4,448.3 L488.7,447.5 L490.9,446.9 L493.1,446.1 L495.4,445.5 L497.6,444.9 L499.8,444.2 L502.2,443.6 L504.4,443.0 L506.6,442.4 L508.9,441.8 L511.1,441.2 L513.3,440.5 L515.7,439.9 L517.9,439.5 L520.2,438.8 L522.4,438.4 L524.8,437.8 L527.0,437.3 L529.2,436.8 L531.6,436.4 L533.8,435.8 L536.0,435.3 L538.4,434.8 L540.6,434.4 L542.9,434.1 L545.2,433.6 L547.5,433.1 L549.8,432.7 L552.1,432.4 L554.4,431.9 L556.7,431.6 L559.0,431.1 L561.3,430.8 L563.6,430.5 L565.9,430.2 L568.2,429.9 L570.6,429.6 L572.8,429.3 L575.2,429.0 L577.4,428.7 L579.8,428.3 L582.2,428.2 L584.4,427.9 L586.8,427.7 L589.0,427.4 L591.3,427.3 L593.7,427.0 L595.9,426.8 L598.3,426.6 L600.7,426.5 L602.9,426.3 L605.3,426.2 L607.6,426.0 L610.0,425.9 L611.8,425.9 L613.8,425.7 L615.7,425.6 L617.7,425.6 L619.6,425.6 L621.6,425.4 L623.5,425.4 L625.5,425.4 L627.4,425.3 L629.4,425.3 L631.3,425.3 L633.3,425.3 L635.2,425.3 L637.2,425.3 L639.1,425.3 L640.9,425.3 L642.9,425.3 L644.8,425.4 L646.8,425.4 L648.7,425.4 L650.7,425.4 L652.6,425.6 L654.6,425.6 L656.5,425.7 L658.5,425.7 L660.4,425.9 L662.4,426.0 L664.3,426.0 L666.2,426.2 L668.1,426.3 L670.1,426.5 L672.0,426.6 L674.0,426.8 L675.9,427.0 L677.9,427.1 L679.8,427.3 L681.8,427.4 L683.6,427.6 L685.5,427.7 L687.5,428.0 L689.4,428.2 L691.4,428.5 L693.3,428.7 L695.3,428.8 L697.1,429.1 L699.0,429.4 L701.0,429.6 L702.9,429.9 L704.9,430.2 L706.7,430.4 L708.6,430.7 L710.6,431.0 L712.5,431.3 L714.5,431.6 L716.3,431.9 L718.3,432.2 L720.2,432.5 L722.2,433.0 L724.0,433.3 L725.9,433.6 L727.9,433.9 L729.7,434.4 L731.6,434.7 L733.6,435.1 L735.4,435.4 L737.3,435.9 L739.3,436.2 L741.1,436.7 L743.1,437.1 L744.9,437.5 L746.8,437.9 L748.8,438.4 L750.6,438.8 L752.5,439.3 L754.3,439.8 L756.3,440.2 L758.1,440.7 L760.0,441.2 L761.9,441.6 L763.8,442.2 L765.6,442.7 L767.6,443.2 L769.4,443.8 L771.2,444.2" fill="none" stroke="#1f77b4" stroke-width="1.7" opacity="0.85"/><circle cx="771" cy="444" r="4.5" fill="#1f77b4"/><rect x="28" y="48" width="13" height="13" fill="#1f77b4"/><text x="46" y="59" font-size="12">5%</text><path d="M201.1,681.0 L201.1,681.0 L201.1,681.0 L201.1,681.0 L201.1,681.0 L201.1,681.0 L201.1,681.0 L201.1,681.0 L201.1,681.0 L201.1,681.0 L201.1,681.0 L201.1,681.0 L201.1,681.0 L201.1,681.0 L201.1,681.0 L201.1,681.0 L201.1,681.0 L201.1,681.0 L201.1,681.0 L201.1,681.0 L201.1,681.0 L201.1,681.0 L201.1,681.0 L201.1,681.0 L201.1,681.0 L201.1,681.0 L201.1,681.0 L201.1,681.0 L201.1,681.0 L201.1,681.0 L201.1,681.0 L201.1,681.0 L201.1,681.0 L201.1,681.0 L201.1,681.0 L201.1,681.0 L201.1,681.0 L201.1,681.0 L201.1,681.0 L201.1,681.0 L201.1,681.0 L201.1,681.0 L201.1,681.0 L201.1,681.0 L201.1,681.0 L201.1,681.0 L201.1,681.0 L201.1,681.0 L201.1,681.0 L201.1,681.0 L201.1,681.0 L201.1,681.0 L201.1,681.0 L201.1,681.0 L201.1,681.0 L201.1,681.0 L201.1,681.0 L201.1,681.0 L202.1,679.3 L203.2,677.3 L204.5,675.3 L205.7,673.3 L206.9,671.3 L208.1,669.3 L209.4,667.5 L210.6,665.4 L211.7,663.4 L213.0,661.4 L214.2,659.6 L215.6,657.6 L216.9,655.6 L218.1,653.7 L219.4,651.7 L220.8,649.9 L222.0,647.8 L223.4,646.0 L224.7,644.0 L226.1,642.1 L227.3,640.3 L228.7,638.3 L230.0,636.4 L231.4,634.4 L232.8,632.6 L234.0,630.7 L235.4,628.9 L236.8,626.9 L238.2,625.0 L239.6,623.1 L241.0,621.3 L242.4,619.4 L243.8,617.6 L245.2,615.7 L246.7,613.9 L248.1,612.0 L249.6,610.3 L251.0,608.5 L252.6,606.6 L253.9,604.8 L255.5,603.1 L257.0,601.2 L258.4,599.5 L259.9,597.7 L261.5,596.0 L263.0,594.1 L264.5,592.4 L266.1,590.7 L267.6,589.0 L269.3,587.2 L270.8,585.5 L272.3,583.8 L273.9,582.1 L275.5,580.4 L277.1,578.7 L278.7,577.0 L280.4,575.3 L281.9,573.6 L283.6,572.1 L285.3,570.4 L287.0,568.7 L288.5,567.1 L290.2,565.4 L291.8,563.9 L293.5,562.2 L295.3,560.6 L297.0,558.9 L298.7,557.4 L300.3,555.8 L302.0,554.3 L303.8,552.6 L305.5,551.1 L307.3,549.5 L309.0,548.0 L310.8,546.4 L312.6,544.9 L314.3,543.5 L316.1,542.0 L317.9,540.4 L319.7,538.9 L321.4,537.5 L323.2,535.9 L325.0,534.5 L326.8,533.0 L328.8,531.6 L330.6,530.2 L332.4,528.7 L334.2,527.3 L336.0,525.9 L337.9,524.5 L339.8,523.1 L341.7,521.7 L343.5,520.3 L345.5,519.0 L347.3,517.6 L349.2,516.2 L351.0,514.9 L353.0,513.6 L354.9,512.2 L356.9,510.9 L358.7,509.5 L360.7,508.3 L362.6,507.1 L364.6,505.7 L366.5,504.4 L368.5,503.2 L370.4,502.0 L372.5,500.7 L374.4,499.5 L376.4,498.3 L378.3,497.0 L380.4,495.8 L382.4,494.6 L384.3,493.5 L386.4,492.3 L388.4,491.2 L390.5,489.9 L392.4,488.9 L394.5,487.6 L396.5,486.5 L398.5,485.5 L400.6,484.2 L402.7,483.1 L404.7,482.1 L406.8,481.0 L408.9,479.9 L410.9,478.8 L413.0,477.9 L415.1,476.8 L417.2,475.7 L419.3,474.8 L421.4,473.7 L423.5,472.8 L425.6,471.7 L427.7,470.8 L429.8,469.7 L432.0,468.8 L434.1,467.9 L436.2,466.9 L438.2,466.0 L440.5,465.1 L442.6,464.2 L444.8,463.2 L446.9,462.3 L449.1,461.5 L451.2,460.6 L453.4,459.7 L455.5,458.9 L457.8,458.0 L459.8,457.2 L462.1,456.4 L464.3,455.5 L466.4,454.7 L468.6,454.0 L470.8,453.2 L473.1,452.4 L475.3,451.7 L477.4,450.9 L479.6,450.3 L481.9,449.5 L484.1,448.7 L486.3,448.1 L488.5,447.3 L490.8,446.7 L493.0,445.9 L495.2,445.3 L497.5,444.7 L499.7,444.1 L501.9,443.3 L504.1,442.7 L506.4,442.1 L508.7,441.6 L511.0,441.0 L513.2,440.4 L515.4,439.8 L517.7,439.3 L520.0,438.7 L522.3,438.2 L524.5,437.6 L526.7,437.1 L529.1,436.7 L531.3,436.1 L533.5,435.6 L535.9,435.1 L538.1,434.7 L540.5,434.2 L542.7,433.7 L545.0,433.4 L547.3,433.0 L549.6,432.5 L551.9,432.2 L554.2,431.7 L556.5,431.4 L558.8,431.0 L561.1,430.7 L563.3,430.4 L565.7,430.0 L568.1,429.7 L570.3,429.4 L572.7,429.1 L574.9,428.8 L577.3,428.5 L579.6,428.2 L581.9,428.0 L584.2,427.7 L586.5,427.4 L588.8,427.3 L591.2,427.1 L593.4,426.8 L595.8,426.6 L598.2,426.5 L600.4,426.3 L602.8,426.2 L605.1,426.0 L607.4,425.9 L609.7,425.7 L611.7,425.7 L613.6,425.6 L615.6,425.4 L617.5,425.4 L619.5,425.4 L621.4,425.3 L623.4,425.3 L625.3,425.3 L627.3,425.1 L629.1,425.1 L631.1,425.1 L633.0,425.1 L635.0,425.1 L636.9,425.1 L638.9,425.1 L640.8,425.1 L642.8,425.1 L644.7,425.3 L646.7,425.3 L648.6,425.3 L650.6,425.4 L652.5,425.4 L654.5,425.4 L656.3,425.6 L658.2,425.7 L660.2,425.7 L662.1,425.9 L664.1,425.9 L666.0,426.0 L668.0,426.2 L669.9,426.3 L671.9,426.5 L673.8,426.6 L675.8,426.8 L677.6,427.0 L679.5,427.1 L681.5,427.3 L683.4,427.4 L685.4,427.7 L687.3,427.9 L689.3,428.0 L691.1,428.3 L693.0,428.5 L695.0,428.8 L696.9,429.0 L698.9,429.3 L700.8,429.4 L702.7,429.7 L704.6,430.0 L706.6,430.4 L708.5,430.7 L710.5,430.8 L712.3,431.1 L714.2,431.4 L716.2,431.7 L718.1,432.1 L719.9,432.5 L721.9,432.8 L723.8,433.1 L725.6,433.4 L727.6,433.9 L729.5,434.2 L731.5,434.5 L733.3,435.0 L735.3,435.3 L737.2,435.8 L739.0,436.2 L741.0,436.5 L742.8,437.0 L744.7,437.5 L746.7,437.9 L748.5,438.2 L750.4,438.7 L752.2,439.2 L754.2,439.6 L756.0,440.1 L758.0,440.7 L759.8,441.2 L761.7,441.6 L763.5,442.1 L765.5,442.5 L767.3,443.2 L769.1,443.6 L771.1,444.2" fill="none" stroke="#17becf" stroke-width="1.7" opacity="0.85"/><circle cx="771" cy="444" r="4.5" fill="#17becf"/><rect x="28" y="68" width="13" height="13" fill="#17becf"/><text x="46" y="79" font-size="12">10%</text><path d="M201.1,681.0 L201.1,681.0 L201.1,681.0 L201.1,681.0 L201.1,681.0 L201.1,681.0 L201.1,681.0 L201.1,681.0 L201.1,681.0 L201.1,681.0 L201.1,681.0 L201.1,681.0 L201.1,681.0 L201.1,681.0 L201.1,681.0 L201.1,681.0 L201.1,681.0 L201.1,681.0 L201.1,681.0 L201.1,681.0 L201.1,681.0 L201.1,681.0 L201.1,681.0 L201.1,681.0 L201.1,681.0 L201.1,681.0 L201.1,681.0 L201.1,681.0 L201.1,681.0 L201.1,681.0 L201.1,681.0 L201.1,681.0 L201.1,681.0 L201.1,681.0 L201.1,681.0 L201.1,681.0 L201.1,681.0 L201.1,681.0 L201.1,681.0 L201.1,681.0 L201.1,681.0 L201.1,681.0 L201.1,681.0 L201.1,681.0 L201.1,681.0 L201.1,681.0 L201.1,681.0 L201.1,681.0 L201.1,681.0 L201.1,681.0 L201.1,681.0 L201.1,681.0 L201.1,681.0 L201.1,681.0 L201.1,681.0 L201.1,681.0 L201.1,681.0 L201.1,681.0 L201.1,681.0 L201.1,681.0 L201.1,681.0 L202.0,679.6 L203.1,677.6 L204.4,675.6 L205.5,673.6 L206.7,671.6 L207.8,669.6 L209.1,667.6 L210.3,665.8 L211.5,663.7 L212.7,661.7 L214.0,659.7 L215.2,657.7 L216.5,655.9 L217.7,653.9 L219.0,651.9 L220.2,650.0 L221.6,648.0 L222.9,646.1 L224.1,644.1 L225.5,642.3 L226.8,640.3 L228.0,638.3 L229.3,636.4 L230.7,634.4 L231.9,632.6 L233.3,630.7 L234.6,628.7 L236.0,626.9 L237.4,624.8 L238.6,623.0 L240.0,621.1 L241.4,619.3 L242.8,617.4 L244.2,615.4 L245.6,613.6 L247.0,611.7 L248.4,609.9 L249.8,608.0 L251.3,606.3 L252.7,604.5 L254.1,602.6 L255.6,600.8 L257.0,598.9 L258.5,597.2 L260.1,595.4 L261.5,593.7 L263.0,591.8 L264.5,590.0 L266.1,588.3 L267.6,586.6 L269.1,584.7 L270.7,583.0 L272.2,581.3 L273.7,579.6 L275.4,577.8 L276.9,576.1 L278.5,574.4 L280.1,572.7 L281.7,571.0 L283.3,569.3 L284.9,567.6 L286.5,566.0 L288.2,564.3 L289.7,562.6 L291.4,560.9 L293.1,559.4 L294.8,557.7 L296.4,556.2 L298.1,554.5 L299.8,552.9 L301.4,551.4 L303.3,549.7 L304.9,548.1 L306.6,546.6 L308.4,545.0 L310.1,543.3 L311.8,541.8 L313.6,540.3 L315.4,538.9 L317.1,537.3 L318.9,535.8 L320.7,534.2 L322.3,532.7 L324.2,531.3 L326.0,529.8 L327.8,528.2 L329.6,526.8 L331.4,525.3 L333.2,523.9 L335.0,522.5 L337.0,521.0 L338.8,519.6 L340.6,518.2 L342.4,516.8 L344.4,515.4 L346.2,514.0 L348.1,512.6 L349.9,511.2 L351.9,509.8 L353.7,508.5 L355.6,507.2 L357.6,505.8 L359.4,504.4 L361.4,503.2 L363.3,501.8 L365.3,500.6 L367.2,499.4 L369.2,498.0 L371.1,496.7 L373.1,495.5 L375.0,494.3 L377.0,493.0 L378.9,491.8 L380.9,490.6 L382.9,489.3 L384.9,488.1 L386.8,486.8 L388.9,485.8 L390.9,484.5 L393.0,483.3 L394.9,482.2 L397.0,481.0 L399.0,479.9 L401.1,478.8 L403.0,477.6 L405.1,476.5 L407.2,475.4 L409.3,474.3 L411.2,473.3 L413.3,472.2 L415.4,471.1 L417.5,470.0 L419.6,468.9 L421.7,468.0 L423.8,466.9 L425.9,466.0 L427.9,464.9 L430.0,464.0 L432.1,462.9 L434.3,462.0 L436.4,461.1 L438.5,460.0 L440.6,459.1 L442.8,458.1 L444.9,457.2 L447.0,456.3 L449.3,455.4 L451.3,454.6 L453.6,453.7 L455.7,452.7 L457.9,452.0 L460.0,451.0 L462.2,450.3 L464.4,449.3 L466.5,448.6 L468.8,447.8 L471.0,447.0 L473.1,446.1 L475.3,445.3 L477.5,444.6 L479.8,443.8 L481.9,443.0 L484.1,442.4 L486.3,441.6 L488.5,440.8 L490.8,440.2 L493.0,439.5 L495.2,438.8 L497.5,438.1 L499.7,437.5 L501.9,436.8 L504.1,436.2 L506.4,435.4 L508.6,434.8 L510.8,434.2 L513.2,433.7 L515.4,433.1 L517.7,432.5 L519.9,431.9 L522.1,431.4 L524.5,430.8 L526.7,430.2 L528.9,429.7 L531.2,429.3 L533.5,428.7 L535.8,428.2 L538.0,427.7 L540.4,427.3 L542.6,426.8 L545.0,426.3 L547.2,425.9 L549.4,425.4 L551.8,425.1 L554.0,424.6 L556.4,424.2 L558.6,423.9 L561.0,423.4 L563.2,423.1 L565.6,422.8 L567.8,422.3 L570.2,422.0 L572.4,421.7 L574.8,421.4 L577.1,421.1 L579.4,420.8 L581.7,420.5 L584.0,420.2 L586.3,420.0 L588.7,419.7 L590.9,419.5 L593.3,419.2 L595.7,419.1 L597.9,418.8 L599.8,418.6 L601.8,418.5 L603.7,418.3 L605.7,418.2 L607.6,418.2 L609.6,418.0 L611.5,417.8 L613.4,417.7 L615.3,417.5 L617.3,417.5 L619.2,417.4 L621.2,417.4 L623.1,417.2 L625.1,417.2 L627.0,417.1 L629.0,417.1 L630.9,417.1 L632.9,417.1 L634.8,416.9 L636.8,416.9 L638.6,416.9 L640.5,416.9 L642.5,416.9 L644.4,416.9 L646.4,416.9 L648.3,416.9 L650.3,417.1 L652.2,417.1 L654.2,417.1 L656.1,417.1 L658.1,417.2 L660.0,417.2 L662.0,417.4 L663.9,417.4 L665.9,417.5 L667.7,417.5 L669.6,417.7 L671.6,417.8 L673.5,418.0 L675.5,418.0 L677.4,418.2 L679.4,418.3 L681.3,418.5 L683.3,418.6 L685.2,418.8 L687.1,418.9 L689.0,419.1 L691.0,419.4 L692.9,419.5 L694.9,419.7 L696.8,419.9 L698.8,420.2 L700.6,420.3 L702.5,420.6 L704.5,420.8 L706.4,421.1 L708.4,421.2 L710.3,421.6 L712.1,421.9 L714.1,422.0 L716.0,422.3 L718.0,422.6 L719.9,422.9 L721.7,423.3 L723.7,423.6 L725.6,423.9 L727.6,424.2 L729.4,424.5 L731.4,424.8 L733.3,425.1 L735.3,425.6 L737.1,425.9 L739.0,426.2 L741.0,426.5 L742.8,427.0 L744.7,427.3 L746.7,427.7 L748.5,428.0 L750.4,428.5 L752.4,429.0 L754.2,429.3 L756.1,429.7 L758.0,430.2 L759.9,430.7 L761.9,431.0 L763.7,431.4 L765.6,431.9 L767.4,432.4 L769.4,432.8 L771.2,433.3 L773.1,433.7 L775.0,434.2 L776.9,434.8 L778.7,435.3 L780.7,435.8 L782.5,436.4 L784.3,436.8 L786.2,437.3 L788.0,437.9 L790.0,438.4" fill="none" stroke="#2ca02c" stroke-width="1.7" opacity="0.85"/><circle cx="790" cy="438" r="4.5" fill="#2ca02c"/><rect x="28" y="88" width="13" height="13" fill="#2ca02c"/><text x="46" y="99" font-size="12">25%</text><path d="M201.1,681.0 L201.1,681.0 L201.1,681.0 L201.1,681.0 L201.1,681.0 L201.1,681.0 L201.1,681.0 L201.1,681.0 L201.1,681.0 L201.1,681.0 L201.1,681.0 L201.1,681.0 L201.1,681.0 L201.1,681.0 L201.1,681.0 L201.1,681.0 L201.1,681.0 L201.1,681.0 L201.1,681.0 L201.1,681.0 L201.1,681.0 L201.1,681.0 L201.1,681.0 L201.1,681.0 L201.1,681.0 L201.1,681.0 L201.1,681.0 L201.1,681.0 L201.1,681.0 L201.1,681.0 L201.1,681.0 L201.1,681.0 L201.1,681.0 L201.1,681.0 L201.1,681.0 L201.1,681.0 L201.1,681.0 L201.1,681.0 L201.1,681.0 L201.1,681.0 L201.1,681.0 L201.1,681.0 L201.1,681.0 L201.1,681.0 L201.1,681.0 L201.1,681.0 L201.1,681.0 L201.1,681.0 L201.1,681.0 L201.1,681.0 L201.1,681.0 L201.1,681.0 L201.1,681.0 L201.1,681.0 L201.1,681.0 L201.1,681.0 L201.1,681.0 L201.1,681.0 L201.6,680.4 L202.7,678.4 L203.9,676.4 L205.0,674.4 L206.3,672.4 L207.4,670.4 L208.7,668.4 L209.8,666.4 L211.0,664.4 L212.3,662.4 L213.4,660.4 L214.7,658.3 L215.9,656.3 L217.2,654.3 L218.3,652.5 L219.5,650.5 L220.8,648.5 L222.0,646.5 L223.3,644.6 L224.6,642.6 L225.9,640.6 L227.2,638.7 L228.5,636.7 L229.7,634.7 L231.0,632.7 L232.2,630.9 L233.5,628.9 L234.7,627.0 L236.0,625.0 L237.4,623.1 L238.6,621.1 L239.9,619.3 L241.3,617.3 L242.5,615.4 L243.9,613.4 L245.3,611.6 L246.6,609.7 L248.0,607.7 L249.3,605.9 L250.7,604.0 L252.1,602.2 L253.5,600.3 L254.9,598.5 L256.3,596.6 L257.7,594.7 L259.1,592.9 L260.5,591.0 L261.9,589.2 L263.4,587.3 L264.8,585.5 L266.3,583.6 L267.7,581.8 L269.3,580.1 L270.7,578.2 L272.2,576.4 L273.7,574.7 L275.1,572.8 L276.7,571.1 L278.2,569.3 L279.7,567.6 L281.2,565.9 L282.8,564.0 L284.3,562.3 L286.0,560.6 L287.5,558.9 L289.1,557.2 L290.6,555.4 L292.3,553.7 L293.8,552.0 L295.5,550.4 L297.0,548.7 L298.7,547.0 L300.3,545.4 L301.9,543.7 L303.5,542.0 L305.2,540.4 L306.9,538.7 L308.6,537.0 L310.2,535.5 L311.9,533.8 L313.6,532.2 L315.2,530.7 L316.9,529.0 L318.6,527.4 L320.3,525.9 L322.1,524.2 L323.7,522.7 L325.5,521.1 L327.2,519.6 L329.0,518.0 L330.7,516.5 L332.5,514.9 L334.2,513.4 L336.0,512.0 L337.8,510.5 L339.6,508.9 L341.4,507.5 L343.2,506.0 L344.9,504.6 L346.9,503.1 L348.7,501.7 L350.5,500.1 L352.3,498.7 L354.1,497.3 L355.9,495.8 L357.9,494.4 L359.7,493.0 L361.5,491.6 L363.4,490.2 L365.3,488.9 L367.2,487.5 L369.0,486.1 L371.0,484.8 L372.8,483.5 L374.7,482.1 L376.7,480.8 L378.6,479.4 L380.4,478.0 L382.4,476.8 L384.3,475.6 L386.3,474.2 L388.2,473.0 L390.2,471.7 L392.1,470.3 L394.1,469.1 L396.0,467.9 L398.0,466.6 L400.1,465.4 L402.0,464.2 L404.0,462.9 L405.9,461.8 L408.0,460.6 L410.0,459.4 L412.1,458.3 L414.0,457.1 L416.0,455.8 L418.0,454.7 L420.0,453.5 L422.1,452.4 L424.0,451.2 L426.1,450.1 L428.2,449.0 L430.2,447.8 L432.3,446.7 L434.3,445.6 L436.3,444.6 L438.4,443.5 L440.5,442.4 L442.6,441.3 L444.7,440.2 L446.7,439.2 L448.7,438.1 L450.8,437.0 L452.9,435.9 L455.0,434.8 L457.1,433.9 L459.1,432.8 L461.2,431.7 L463.3,430.8 L465.4,429.7 L467.5,428.8 L469.7,427.9 L471.8,426.8 L473.9,425.9 L476.0,424.9 L478.2,424.0 L480.3,423.1 L482.4,422.0 L484.5,421.1 L486.7,420.3 L488.8,419.4 L491.0,418.5 L493.1,417.5 L495.4,416.6 L497.5,415.8 L499.7,414.9 L501.8,414.0 L504.0,413.2 L506.1,412.3 L508.3,411.5 L510.4,410.6 L512.6,409.8 L514.7,408.9 L517.0,408.1 L519.2,407.4 L521.3,406.4 L523.5,405.7 L525.7,404.9 L527.8,404.0 L530.1,403.2 L532.3,402.4 L534.5,401.6 L536.6,400.9 L538.8,400.1 L541.1,399.3 L543.3,398.6 L545.4,397.8 L547.6,397.0 L549.8,396.2 L552.1,395.5 L554.3,394.7 L556.4,393.9 L558.6,393.3 L560.8,392.5 L563.1,391.8 L565.3,391.1 L567.5,390.4 L569.8,389.8 L572.0,389.0 L574.2,388.4 L576.4,387.6 L578.7,387.0 L580.9,386.2 L583.1,385.6 L585.4,385.0 L587.6,384.2 L589.4,383.7 L591.3,383.1 L593.2,382.7 L595.0,382.0 L596.9,381.6 L598.7,381.1 L600.7,380.5 L602.5,380.0 L604.4,379.6 L606.3,379.0 L608.2,378.5 L610.0,378.0 L612.0,377.6 L613.8,377.1 L615.7,376.5 L617.5,376.0 L619.3,375.6 L621.3,375.1 L623.2,374.6 L625.1,374.2 L627.0,373.7 L628.8,373.2 L630.8,372.8 L632.6,372.3 L634.5,371.8 L636.3,371.4 L638.3,370.9 L640.1,370.5 L642.1,370.0 L644.0,369.7 L645.8,369.2 L647.8,368.8 L649.6,368.3 L651.5,367.8 L653.3,367.5 L655.3,367.1 L657.2,366.6 L659.1,366.1 L661.0,365.8 L663.0,365.4 L664.8,364.9 L666.7,364.6 L668.5,364.1 L670.5,363.8 L672.4,363.4 L674.2,363.1 L676.2,362.6 L678.1,362.3 L679.9,361.8 L681.9,361.5 L683.8,361.0 L685.7,360.7 L687.6,360.4 L689.6,360.0 L691.4,359.7 L693.3,359.3 L695.3,358.9 L697.2,358.6 L699.0,358.3 L701.0,358.0 L702.9,357.5 L704.7,357.2 L706.7,356.9 L708.6,356.6 L710.6,356.3 L712.4,356.0 L714.4,355.6 L716.3,355.3 L718.3,355.0 L720.1,354.7 L722.0,354.4 L724.0,354.1 L725.9,353.8 L727.9,353.5 L729.7,353.2 L731.6,353.0 L733.6,352.7 L735.5,352.4 L737.3,352.1 L739.3,351.8 L741.2,351.5 L743.2,351.3 L745.1,351.0 L747.0,350.7 L748.9,350.5 L750.9,350.2 L752.8,349.9 L754.8,349.8 L756.7,349.5" fill="none" stroke="#bcbd22" stroke-width="1.7" opacity="0.85"/><circle cx="757" cy="349" r="4.5" fill="#bcbd22"/><rect x="28" y="108" width="13" height="13" fill="#bcbd22"/><text x="46" y="119" font-size="12">50%</text><path d="M201.1,681.0 L201.1,681.0 L201.1,681.0 L201.1,681.0 L201.1,681.0 L201.1,681.0 L201.1,681.0 L201.1,681.0 L201.1,681.0 L201.1,681.0 L201.1,681.0 L201.1,681.0 L201.1,681.0 L201.1,681.0 L201.1,681.0 L201.1,681.0 L201.1,681.0 L201.1,681.0 L201.1,681.0 L201.1,681.0 L201.1,681.0 L201.1,681.0 L201.1,681.0 L201.1,681.0 L201.1,681.0 L201.1,681.0 L201.1,681.0 L201.1,681.0 L201.1,681.0 L201.1,681.0 L201.1,681.0 L201.1,681.0 L201.1,681.0 L201.1,681.0 L201.1,681.0 L201.1,681.0 L201.1,681.0 L201.1,681.0 L201.1,681.0 L201.1,681.0 L201.1,681.0 L201.1,681.0 L201.1,681.0 L201.1,681.0 L201.1,681.0 L201.1,681.0 L201.1,681.0 L201.1,681.0 L201.1,681.0 L201.1,681.0 L201.1,681.0 L201.1,681.0 L201.1,681.0 L201.1,681.0 L201.1,681.0 L201.1,681.0 L201.1,681.0 L201.1,681.0 L201.1,681.0 L201.1,681.0 L201.1,681.0 L201.1,681.0 L201.1,681.0 L201.1,681.0 L201.1,681.0 L202.0,679.6 L203.1,677.6 L204.2,675.6 L205.5,673.6 L206.6,671.6 L207.8,669.6 L208.9,667.6 L210.2,665.6 L211.5,663.6 L212.6,661.6 L213.8,659.6 L214.9,657.6 L216.2,655.6 L217.4,653.7 L218.6,651.7 L219.8,649.7 L221.1,647.7 L222.2,645.7 L223.4,643.7 L224.7,641.7 L225.9,639.7 L227.1,637.8 L228.3,635.8 L229.6,633.8 L230.8,631.8 L231.9,629.8 L233.2,627.8 L234.4,625.9 L235.7,623.9 L237.0,621.9 L238.2,619.9 L239.5,618.1 L240.7,616.0 L242.0,614.0 L243.2,612.2 L244.6,610.2 L245.9,608.2 L247.1,606.3 L248.4,604.3 L249.8,602.5 L251.0,600.5 L252.3,598.6 L253.7,596.6 L254.9,594.7 L256.3,592.9 L257.6,590.9 L259.0,589.0 L260.4,587.2 L261.6,585.2 L263.0,583.3 L264.4,581.5 L265.8,579.6 L267.2,577.6 L268.6,575.8 L270.0,573.9 L271.4,572.1 L272.8,570.2 L274.1,568.4 L275.5,566.5 L276.9,564.6 L278.3,562.8 L279.7,560.9 L281.2,559.1 L282.6,557.2 L284.0,555.4 L285.6,553.7 L287.0,551.8 L288.5,550.0 L289.9,548.1 L291.4,546.4 L292.8,544.6 L294.3,542.7 L295.9,541.0 L297.4,539.2 L298.8,537.5 L300.3,535.6 L301.9,533.9 L303.4,532.1 L304.9,530.4 L306.5,528.7 L308.0,526.8 L309.5,525.1 L311.1,523.3 L312.6,521.6 L314.1,519.9 L315.7,518.2 L317.2,516.3 L318.9,514.6 L320.4,512.9 L321.9,511.2 L323.5,509.5 L325.1,507.7 L326.7,506.0 L328.2,504.3 L329.9,502.6 L331.4,500.9 L333.1,499.2 L334.6,497.5 L336.3,495.8 L337.8,494.1 L339.5,492.4 L341.0,490.7 L342.7,489.2 L344.2,487.5 L345.9,485.8 L347.6,484.1 L349.1,482.4 L350.8,480.7 L352.4,479.1 L354.0,477.4 L355.6,475.7 L357.3,474.0 L359.0,472.5 L360.7,470.8 L362.2,469.1 L363.9,467.6 L365.5,465.9 L367.2,464.3 L368.9,462.6 L370.5,461.1 L372.2,459.4 L373.9,457.8 L375.6,456.1 L377.2,454.6 L378.9,452.9 L380.7,451.3 L382.4,449.8 L384.1,448.1 L385.7,446.6 L387.5,445.0 L389.2,443.5 L390.9,441.8 L392.6,440.2 L394.4,438.7 L396.0,437.1 L397.7,435.4 L399.4,433.9 L401.2,432.4 L402.9,430.8 L404.5,429.1 L406.3,427.6 L408.0,426.0 L409.7,424.5 L411.5,422.9 L413.2,421.2 L414.8,419.7 L416.7,418.2 L418.3,416.6 L420.1,415.1 L421.8,413.5 L423.6,412.0 L425.3,410.4 L427.1,408.9 L428.8,407.4 L430.6,405.8 L432.3,404.3 L434.1,402.7 L435.7,401.2 L437.6,399.6 L439.2,398.1 L441.0,396.5 L442.7,395.0 L444.5,393.5 L446.2,391.9 L448.0,390.4 L449.8,388.8 L451.5,387.3 L453.3,385.9 L455.1,384.4 L456.9,382.8 L458.6,381.3 L460.4,379.9 L462.2,378.3 L464.0,376.8 L465.8,375.4 L467.6,373.9 L469.5,372.3 L471.1,370.9 L472.9,369.4 L474.7,368.0 L476.6,366.4 L478.4,365.1 L480.2,363.5 L482.0,362.1 L483.8,360.6 L485.6,359.2 L487.6,357.6 L489.4,356.3 L491.2,354.9 L493.0,353.3 L494.8,351.9 L496.6,350.5 L498.6,349.2 L500.4,347.6 L502.2,346.2 L504.0,344.8 L505.8,343.4 L507.8,341.9 L509.6,340.5 L511.4,339.1 L513.3,337.7 L515.1,336.3 L517.0,335.0 L518.8,333.6 L520.7,332.2 L522.5,330.6 L524.5,329.2 L526.3,327.9 L528.1,326.5 L529.8,325.4 L531.3,324.2 L532.8,323.1 L534.4,321.8 L535.9,320.8 L537.4,319.5 L539.1,318.4 L540.6,317.2 L542.2,316.1 L543.7,314.9 L545.4,313.8 L546.9,312.7 L548.4,311.5 L550.0,310.4 L551.5,309.2 L553.2,308.1 L554.7,306.9 L556.2,305.8 L557.8,304.5 L559.4,303.5 L561.0,302.4 L562.5,301.2 L564.0,300.1 L565.7,298.8 L567.2,297.8 L568.8,296.7 L570.5,295.4 L572.0,294.4 L573.5,293.1 L575.0,292.0 L576.7,291.0 L578.3,289.7 L579.8,288.6 L581.5,287.6 L583.0,286.3 L584.5,285.3 L586.2,284.2 L587.7,282.9 L589.3,281.9 L590.9,280.8 L592.5,279.5 L594.0,278.5 L595.7,277.4 L597.2,276.3 L598.7,275.1 L600.4,274.0 L601.9,272.9 L603.5,271.7 L605.1,270.6 L606.7,269.5 L608.3,268.4 L609.9,267.2 L611.4,266.1 L613.1,265.0 L614.6,264.0 L616.3,262.7 L617.8,261.6 L619.3,260.6 L621.0,259.5 L622.6,258.4 L624.2,257.2 L625.8,256.1 L627.4,255.0 L629.0,253.9 L630.6,252.8 L632.2,251.8 L633.8,250.7 L635.4,249.6 L637.0,248.5 L638.6,247.4 L640.2,246.4 L641.9,245.3 L643.4,244.2 L645.1,243.1 L646.7,242.0 L648.3,241.0 L650.0,239.9 L651.5,238.8 L653.2,237.7 L654.7,236.6 L656.4,235.5 L658.1,234.5 L659.6,233.4 L661.3,232.5 L663.0,231.4 L664.5,230.3 L666.2,229.2 L667.8,228.1 L669.4,227.1 L671.0,226.0 L672.7,225.1 L674.4,224.0 L675.9,222.9 L677.6,221.8 L679.3,220.7 L680.8,219.8 L682.5,218.7 L684.1,217.6 L685.8,216.6 L687.3,215.5 L689.0,214.6 L690.7,213.5 L692.3,212.4 L693.9,211.3 L695.5,210.4 L697.2,209.3 L698.9,208.2 L700.4,207.1 L702.1,206.2 L703.8,205.1 L705.4,204.1 L707.0,203.0 L708.6,202.1 L710.3,201.0 L712.0,199.9 L713.7,199.0" fill="none" stroke="#ff7f0e" stroke-width="1.7" opacity="0.85"/><circle cx="714" cy="199" r="4.5" fill="#ff7f0e"/><rect x="28" y="128" width="13" height="13" fill="#ff7f0e"/><text x="46" y="139" font-size="12">100%</text><text x="28" y="832" font-size="11" fill="#888">ground track — m from pad (N up)</text></svg>