<svg xmlns="http://www.w3.org/2000/svg" width="840" height="860" font-family="sans-serif" font-size="13"><rect width="840" height="860" fill="white"/><text x="20" y="26" font-size="15" fill="#333">TMS-7 F15 — sensor-noise sweep (no wind)</text><rect x="20" y="40" width="800" height="800" fill="#fbfbfb" stroke="#ddd"/><rect x="50" y="394" width="261" height="56" fill="#cde" stroke="#369" opacity="0.7"/><text x="50" y="389" fill="#369" font-size="12">landing zone</text><circle cx="215" cy="482" r="5" fill="black"/><text x="223" y="486" font-size="12">pad</text><path d="M215.3,481.7 L215.3,481.7 L215.3,481.7 L215.3,481.7 L215.3,481.7 L215.3,481.7 L215.3,481.7 L215.3,481.7 L215.3,481.7 L215.3,481.7 L215.3,481.7 L215.3,481.7 L215.3,481.7 L215.3,481.7 L215.3,481.7 L215.3,481.7 L215.3,481.7 L215.3,481.7 L215.3,481.7 L215.3,481.7 L215.3,481.7 L215.3,481.7 L215.3,481.7 L215.3,481.7 L215.3,481.7 L215.3,481.7 L215.3,481.7 L215.3,481.7 L215.3,481.7 L215.3,481.7 L215.3,481.7 L215.3,481.7 L215.3,481.7 L215.3,481.7 L215.3,481.7 L215.3,481.7 L215.3,481.7 L215.3,481.7 L215.3,481.7 L215.3,481.7 L215.3,481.7 L215.3,481.7 L215.3,481.7 L215.3,481.7 L215.3,481.7 L215.3,481.7 L215.3,481.7 L215.3,481.7 L215.3,481.7 L215.3,481.7 L215.3,481.7 L215.3,481.7 L215.3,481.7 L215.3,481.7 L215.3,481.7 L215.3,481.7 L215.3,481.7 L215.3,481.7 L216.3,480.0 L217.5,478.0 L218.6,475.9 L219.9,474.1 L221.3,472.1 L222.7,470.2 L224.1,468.3 L225.5,466.5 L227.1,464.7 L228.6,462.9 L230.3,461.2 L232.0,459.6 L233.7,457.9 L235.4,456.3 L237.2,454.8 L239.0,453.4 L240.8,451.8 L242.7,450.4 L244.5,449.0 L246.4,447.6 L248.3,446.2 L250.1,444.7 L251.9,443.3 L253.6,441.7 L255.4,440.2 L257.1,438.4 L258.8,436.7 L260.3,435.0 L261.9,433.3 L263.4,431.4 L264.8,429.6 L266.2,427.7 L267.5,425.8 L268.8,423.8 L270.0,421.8 L271.2,419.8 L272.3,417.8 L273.3,415.6 L274.2,413.5 L275.2,411.4 L276.1,409.2 L276.8,406.9 L277.6,404.7 L278.2,402.3 L278.7,400.2 L279.3,397.8 L279.7,395.5 L280.1,393.2 L280.4,391.0 L280.8,388.7 L281.1,386.3 L281.5,384.0 L282.0,381.7 L282.5,379.3 L283.1,377.0 L283.7,374.8 L284.4,372.5 L285.1,370.3 L285.8,368.1 L286.6,365.9 L287.6,363.8 L288.6,361.6 L289.6,359.6 L290.7,357.4 L291.9,355.4 L293.1,353.3 L294.3,351.5 L295.7,349.4 L297.1,347.6 L298.5,345.7 L300.1,344.0 L301.6,342.1 L303.2,340.4 L304.9,338.9 L306.5,337.2 L308.4,335.6 L310.2,334.2 L312.0,332.6 L313.8,331.2 L315.8,330.0 L317.8,328.6 L319.7,327.4 L321.7,326.3 L323.8,325.2 L325.9,324.1 L328.0,323.0 L330.3,322.1 L332.4,321.3 L334.6,320.5 L336.9,319.7 L339.1,319.1 L341.4,318.5 L343.6,317.9 L346.0,317.4 L348.2,317.1 L350.6,316.8 L352.9,316.5 L355.3,316.3 L357.7,316.1 L359.9,316.0 L362.3,316.0 L364.7,316.1 L366.9,316.3 L369.3,316.5 L371.7,316.8 L373.9,317.1 L376.3,317.5 L378.6,318.0 L380.8,318.6 L383.1,319.3 L385.3,319.9 L387.6,320.7 L389.8,321.4 L391.9,322.4 L394.2,323.3 L396.3,324.2 L398.4,325.3 L400.3,326.4 L402.4,327.7 L404.4,328.9 L406.4,330.2 L408.3,331.6 L410.2,333.0 L412.0,334.4 L413.8,335.9 L415.5,337.5 L417.2,339.2 L418.9,340.9 L420.4,342.6 L422.0,344.3 L423.5,346.2 L424.9,347.9 L426.3,349.9 L427.7,351.8 L429.0,353.8 L430.1,355.8 L431.4,357.8 L432.4,359.9 L433.5,362.0 L434.5,364.1 L435.3,366.2 L436.1,368.4 L437.0,370.8 L437.7,372.9 L438.4,375.3 L439.0,377.5 L439.4,379.8 L439.9,382.1 L440.2,384.5 L440.6,386.8 L440.8,389.1 L441.1,391.5 L441.1,393.8 L441.2,396.1 L441.1,398.5 L441.1,400.8 L440.8,403.1 L440.6,405.5 L440.4,407.8 L439.9,410.1 L439.5,412.5 L439.0,414.6 L438.4,417.0 L437.7,419.3 L437.0,421.5 L436.3,423.7 L435.4,425.8 L434.6,428.0 L433.6,430.2 L432.5,432.4 L431.5,434.4 L430.4,436.4 L429.1,438.4 L427.9,440.5 L426.6,442.3 L425.2,444.4 L423.8,446.2 L422.2,447.9 L420.7,449.8 L419.2,451.5 L417.6,453.2 L415.9,454.8 L414.1,456.5 L412.4,458.0 L410.6,459.4 L408.8,460.8 L406.8,462.2 L404.8,463.6 L402.9,464.9 L400.9,466.1 L398.8,467.2 L396.8,468.5 L394.7,469.4 L392.6,470.5 L390.4,471.3 L388.3,472.2 L386.0,473.0 L383.8,473.8 L381.5,474.4 L379.3,475.0 L376.9,475.5 L374.6,475.9 L372.4,476.4 L370.0,476.7 L367.6,477.0 L365.4,477.3 L363.0,477.5 L360.6,477.5 L358.4,477.5 L356.0,477.5 L353.6,477.3 L351.3,477.2 L348.9,477.0 L346.6,476.7 L344.3,476.3 L341.9,475.9 L340.1,475.5 L338.1,475.0 L336.3,474.5 L334.3,474.1 L332.5,473.5 L330.7,472.8 L328.9,472.2 L327.0,471.4 L325.2,470.7 L323.4,469.9 L321.6,469.1 L319.9,468.2 L318.2,467.2 L316.4,466.3 L314.7,465.4 L313.1,464.3 L311.5,463.2 L309.8,462.1 L308.2,461.0 L306.7,459.8 L305.1,458.5 L303.7,457.3 L302.2,456.0 L300.8,454.8 L299.4,453.4 L298.0,452.0" fill="none" stroke="#1f77b4" stroke-width="1.7" opacity="0.85"/><circle cx="298" cy="452" r="4.5" fill="#1f77b4"/><rect x="28" y="48" width="13" height="13" fill="#1f77b4"/><text x="46" y="59" font-size="12">5%</text><path d="M215.3,481.7 L215.3,481.7 L215.3,481.7 L215.3,481.7 L215.3,481.7 L215.3,481.7 L215.3,481.7 L215.3,481.7 L215.3,481.7 L215.3,481.7 L215.3,481.7 L215.3,481.7 L215.3,481.7 L215.3,481.7 L215.3,481.7 L215.3,481.7 L215.3,481.7 L215.3,481.7 L215.3,481.7 L215.3,481.7 L215.3,481.7 L215.3,481.7 L215.3,481.7 L215.3,481.7 L215.3,481.7 L215.3,481.7 L215.3,481.7 L215.3,481.7 L215.3,481.7 L215.3,481.7 L215.3,481.7 L215.3,481.7 L215.3,481.7 L215.3,481.7 L215.3,481.7 L215.3,481.7 L215.3,481.7 L215.3,481.7 L215.3,481.7 L215.3,481.7 L215.3,481.7 L215.3,481.7 L215.3,481.7 L215.3,481.7 L215.3,481.7 L215.3,481.7 L215.3,481.7 L215.3,481.7 L215.3,481.7 L215.3,481.7 L215.3,481.7 L215.3,481.7 L215.3,481.7 L215.3,481.7 L215.3,481.7 L215.3,481.7 L215.3,481.7 L215.3,481.7 L216.3,480.0 L217.5,478.0 L218.6,475.9 L219.9,474.1 L221.3,472.1 L222.7,470.2 L224.1,468.3 L225.5,466.5 L227.1,464.6 L228.6,462.9 L230.2,461.2 L231.8,459.4 L233.5,457.9 L235.2,456.3 L237.0,454.6 L238.7,453.2 L240.5,451.7 L242.4,450.3 L244.2,448.7 L246.2,447.3 L248.0,445.9 L249.8,444.4 L251.5,442.8 L253.3,441.2 L255.0,439.7 L256.7,438.0 L258.2,436.3 L259.9,434.6 L261.3,432.8 L262.9,431.0 L264.3,429.1 L265.7,427.2 L266.9,425.2 L268.2,423.2 L269.5,421.2 L270.6,419.2 L271.7,417.1 L272.7,414.9 L273.7,412.8 L274.5,410.7 L275.4,408.4 L276.2,406.2 L276.9,404.1 L277.5,401.7 L278.2,399.5 L278.6,397.2 L279.2,394.9 L279.4,392.5 L279.9,390.2 L280.3,388.0 L280.7,385.7 L281.1,383.4 L281.5,381.0 L282.1,378.7 L282.7,376.5 L283.4,374.2 L284.1,372.0 L284.9,369.8 L285.8,367.7 L286.6,365.5 L287.6,363.3 L288.6,361.1 L289.7,359.1 L290.8,357.1 L291.9,355.0 L293.2,353.0 L294.5,351.0 L295.9,349.1 L297.3,347.3 L298.8,345.4 L300.2,343.7 L301.9,341.8 L303.5,340.1 L305.1,338.6 L306.8,336.8 L308.6,335.3 L310.3,333.9 L312.2,332.3 L314.1,330.9 L316.0,329.5 L317.9,328.3 L320.0,327.0 L322.0,326.0 L324.1,324.7 L326.2,323.6 L328.3,322.7 L330.4,321.8 L332.7,320.8 L334.8,320.0 L337.0,319.3 L339.3,318.6 L341.5,318.0 L343.8,317.4 L346.1,316.9 L348.4,316.5 L350.8,316.0 L353.0,315.7 L355.4,315.5 L357.7,315.4 L360.0,315.2 L362.4,315.2 L364.8,315.2 L367.1,315.2 L369.4,315.4 L371.8,315.7 L374.1,316.0 L376.5,316.3 L378.7,316.8 L381.1,317.2 L383.4,317.7 L385.6,318.3 L387.8,319.1 L390.1,319.9 L392.2,320.7 L394.4,321.4 L396.6,322.5 L398.7,323.5 L400.8,324.6 L402.9,325.6 L405.0,326.7 L406.9,328.0 L408.9,329.4 L410.7,330.6 L412.7,332.0 L414.5,333.6 L416.3,335.0 L418.0,336.5 L419.7,338.2 L421.4,339.8 L423.1,341.5 L424.6,343.4 L426.2,345.1 L427.6,347.0 L429.0,348.8 L430.4,350.7 L431.7,352.7 L432.9,354.7 L434.2,356.8 L435.3,358.8 L436.3,360.8 L437.4,363.0 L438.3,365.2 L439.2,367.3 L440.1,369.5 L440.8,371.7 L441.5,373.9 L442.2,376.2 L442.7,378.4 L443.3,380.7 L443.7,383.1 L444.0,385.4 L444.4,387.7 L444.7,390.1 L444.9,392.4 L445.0,394.7 L445.0,397.1 L445.0,399.4 L445.0,401.7 L444.9,404.1 L444.7,406.4 L444.4,408.7 L444.2,411.1 L443.7,413.4 L443.3,415.7 L442.7,418.1 L442.2,420.2 L441.6,422.6 L440.9,424.8 L440.1,427.1 L439.4,429.3 L438.5,431.4 L437.6,433.6 L436.6,435.6 L435.4,437.8 L434.5,439.8 L433.2,441.9 L432.1,443.9 L430.8,445.9 L429.4,447.9 L428.1,449.8 L426.7,451.7 L425.2,453.5 L423.7,455.2 L422.1,457.1 L420.6,458.8 L418.9,460.4 L417.2,462.1 L415.5,463.6 L413.7,465.2 L411.9,466.6 L410.0,468.0 L408.1,469.4 L406.1,470.8 L404.1,472.1 L402.2,473.3 L400.2,474.5 L398.1,475.6 L396.0,476.7 L393.9,477.7 L391.8,478.6 L389.5,479.5 L387.4,480.5 L385.2,481.2 L382.9,481.9 L380.7,482.6 L378.4,483.1 L376.2,483.7 L373.8,484.2 L371.6,484.7 L369.2,485.0 L366.9,485.3 L364.5,485.6 L362.3,485.7 L359.9,485.9 L357.5,485.9 L355.1,485.9 L353.2,485.9 L351.3,485.7 L349.4,485.7 L347.4,485.4 L345.4,485.3 L343.5,485.0 L341.5,484.8 L339.7,484.3 L337.7,484.0 L335.7,483.6 L333.9,483.1 L332.0,482.6 L330.1,482.2 L328.3,481.5 L326.3,480.9 L324.5,480.3 L322.7,479.5 L320.9,478.7 L319.2,478.0 L317.4,477.2 L315.5,476.3 L313.8,475.5 L312.2,474.5 L310.5,473.5 L308.8,472.5 L307.1,471.4 L305.4,470.3 L303.9,469.3 L302.2,468.2 L300.6,466.9 L299.1,465.8 L297.7,464.6 L296.2,463.3 L294.7,461.9" fill="none" stroke="#17becf" stroke-width="1.7" opacity="0.85"/><circle cx="295" cy="462" r="4.5" fill="#17becf"/><rect x="28" y="68" width="13" height="13" fill="#17becf"/><text x="46" y="79" font-size="12">10%</text><path d="M215.3,481.7 L215.3,481.7 L215.3,481.7 L215.3,481.7 L215.3,481.7 L215.3,481.7 L215.3,481.7 L215.3,481.7 L215.3,481.7 L215.3,481.7 L215.3,481.7 L215.3,481.7 L215.3,481.7 L215.3,481.7 L215.3,481.7 L215.3,481.7 L215.3,481.7 L215.3,481.7 L215.3,481.7 L215.3,481.7 L215.3,481.7 L215.3,481.7 L215.3,481.7 L215.3,481.7 L215.3,481.7 L215.3,481.7 L215.3,481.7 L215.3,481.7 L215.3,481.7 L215.3,481.7 L215.3,481.7 L215.3,481.7 L215.3,481.7 L215.3,481.7 L215.3,481.7 L215.3,481.7 L215.3,481.7 L215.3,481.7 L215.3,481.7 L215.3,481.7 L215.3,481.7 L215.3,481.7 L215.3,481.7 L215.3,481.7 L215.3,481.7 L215.3,481.7 L215.3,481.7 L215.3,481.7 L215.3,481.7 L215.3,481.7 L215.3,481.7 L215.3,481.7 L215.3,481.7 L215.3,481.7 L215.3,481.7 L215.3,481.7 L215.3,481.7 L215.3,481.7 L216.1,480.3 L217.2,478.3 L218.5,476.3 L219.8,474.4 L221.0,472.4 L222.3,470.5 L223.7,468.5 L225.1,466.6 L226.5,464.7 L228.0,463.0 L229.6,461.2 L231.1,459.4 L232.7,457.7 L234.4,456.0 L235.9,454.3 L237.6,452.6 L239.3,451.0 L241.1,449.5 L242.8,447.8 L244.5,446.2 L246.2,444.7 L247.8,443.0 L249.5,441.2 L251.1,439.5 L252.6,437.8 L254.2,436.0 L255.6,434.1 L257.0,432.2 L258.4,430.4 L259.6,428.5 L260.9,426.5 L262.2,424.4 L263.3,422.4 L264.4,420.4 L265.5,418.2 L266.5,416.2 L267.5,414.0 L268.5,411.8 L269.3,409.7 L270.0,407.5 L270.9,405.1 L271.6,403.0 L272.1,400.6 L272.8,398.5 L273.3,396.1 L273.8,393.8 L274.2,391.5 L274.7,389.3 L275.1,386.9 L275.5,384.6 L276.1,382.3 L276.6,380.1 L277.2,377.8 L277.9,375.6 L278.6,373.3 L279.3,371.1 L280.1,368.9 L281.0,366.7 L282.0,364.5 L283.0,362.4 L284.1,360.3 L285.1,358.2 L286.3,356.1 L287.4,354.1 L288.7,352.2 L290.0,350.2 L291.4,348.4 L292.8,346.5 L294.3,344.6 L295.7,342.8 L297.3,341.0 L299.0,339.3 L300.5,337.6 L302.2,336.1 L304.0,334.4 L305.7,332.8 L307.5,331.4 L309.4,330.0 L311.3,328.6 L313.1,327.2 L315.1,325.8 L317.2,324.6 L319.2,323.5 L321.1,322.2 L323.3,321.1 L325.4,320.2 L327.5,319.1 L329.7,318.2 L331.8,317.4 L334.1,316.5 L336.3,315.7 L338.6,315.1 L340.8,314.3 L343.1,313.8 L345.3,313.2 L347.5,312.7 L349.9,312.3 L352.2,311.9 L354.6,311.5 L357.0,311.3 L359.2,311.0 L361.6,310.9 L364.0,310.9 L366.2,310.7 L368.6,310.9 L371.0,310.9 L373.2,311.0 L375.6,311.2 L378.0,311.5 L380.3,311.8 L382.6,312.1 L384.9,312.6 L387.3,313.0 L389.5,313.7 L391.8,314.3 L394.0,314.9 L396.3,315.7 L398.5,316.3 L400.6,317.2 L402.9,318.0 L405.0,319.0 L407.2,320.0 L409.3,321.0 L411.3,322.1 L413.4,323.2 L415.5,324.4 L417.5,325.6 L419.4,326.9 L421.4,328.1 L423.2,329.5 L425.2,330.9 L427.0,332.3 L428.8,333.9 L430.7,335.4 L432.4,337.0 L434.2,338.6 L435.9,340.1 L437.4,341.8 L439.1,343.5 L440.6,345.2 L442.2,347.1 L443.6,349.0 L445.0,350.8 L446.4,352.7 L447.8,354.6 L449.1,356.6 L450.3,358.5 L451.6,360.5 L452.7,362.5 L453.8,364.7 L455.0,366.7 L455.9,368.9 L456.9,370.9 L457.9,373.1 L458.9,375.3 L459.7,377.5 L460.4,379.6 L461.3,382.0 L462.0,384.1 L462.5,386.3 L463.2,388.7 L463.7,391.0 L464.2,393.2 L464.7,395.5 L465.1,397.8 L465.5,400.2 L465.8,402.5 L466.1,404.8 L466.2,407.2 L466.3,409.5 L466.5,411.8 L466.5,414.2 L466.5,416.5 L466.5,418.8 L466.3,421.3 L466.2,423.7 L466.1,426.0 L465.8,428.3 L465.5,430.7 L465.1,432.8 L464.7,435.2 L464.2,437.5 L463.7,439.8 L463.1,442.0 L462.5,444.4 L461.8,446.7 L461.1,448.9 L460.3,451.0 L459.6,453.2 L458.6,455.4 L457.8,457.6 L456.8,459.8 L455.8,461.9 L454.7,464.0 L453.7,466.1 L452.6,468.2 L451.3,470.2 L450.0,472.2 L448.8,474.1 L447.5,476.1 L446.1,478.0 L444.9,479.8 L443.3,481.7 L441.9,483.6 L440.4,485.4 L438.8,487.1 L437.3,488.9 L435.7,490.6 L434.0,492.3 L432.4,494.0 L430.7,495.5 L428.8,497.1 L427.2,498.7 L425.3,500.2 L423.5,501.6 L421.5,503.0 L420.0,504.1 L418.5,505.3 L416.8,506.4 L415.1,507.5 L413.5,508.5 L411.9,509.5 L410.2,510.5 L408.3,511.4 L406.7,512.3 L405.0,513.3 L403.1,514.1 L401.5,515.0 L399.6,515.8 L397.8,516.6 L396.0,517.3 L394.2,518.1 L392.3,518.7 L390.5,519.4 L388.7,520.1 L386.9,520.6 L385.0,521.2 L383.1,521.7 L381.2,522.3 L379.3,522.8 L377.5,523.2 L375.5,523.6 L373.5,524.0 L371.7,524.3 L369.7,524.6 L367.8,524.8 L365.8,525.1 L363.8,525.3 L361.9,525.6 L360.0,525.7 L358.1,525.7 L356.1,525.9 L354.1,525.9 L352.2,526.0 L350.2,526.0 L348.2,525.9 L346.3,525.9 L344.3,525.7 L342.3,525.6 L340.4,525.4 L338.6,525.3 L336.6,525.1 L334.6,524.8 L332.7,524.6 L330.7,524.3 L328.7,524.0 L326.9,523.6 L324.9,523.2 L323.0,522.8 L321.1,522.5 L319.2,522.0 L317.4,521.4 L315.4,520.9 L313.6,520.4 L311.7,519.8 L309.8,519.2 L307.9,518.6 L306.1,518.0" fill="none" stroke="#2ca02c" stroke-width="1.7" opacity="0.85"/><circle cx="306" cy="518" r="4.5" fill="#2ca02c"/><rect x="28" y="88" width="13" height="13" fill="#2ca02c"/><text x="46" y="99" font-size="12">25%</text><path d="M215.3,481.7 L215.3,481.7 L215.3,481.7 L215.3,481.7 L215.3,481.7 L215.3,481.7 L215.3,481.7 L215.3,481.7 L215.3,481.7 L215.3,481.7 L215.3,481.7 L215.3,481.7 L215.3,481.7 L215.3,481.7 L215.3,481.7 L215.3,481.7 L215.3,481.7 L215.3,481.7 L215.3,481.7 L215.3,481.7 L215.3,481.7 L215.3,481.7 L215.3,481.7 L215.3,481.7 L215.3,481.7 L215.3,481.7 L215.3,481.7 L215.3,481.7 L215.3,481.7 L215.3,481.7 L215.3,481.7 L215.3,481.7 L215.3,481.7 L215.3,481.7 L215.3,481.7 L215.3,481.7 L215.3,481.7 L215.3,481.7 L215.3,481.7 L215.3,481.7 L215.3,481.7 L215.3,481.7 L215.3,481.7 L215.3,481.7 L215.3,481.7 L215.3,481.7 L215.3,481.7 L215.3,481.7 L215.3,481.7 L215.3,481.7 L215.3,481.7 L215.3,481.7 L215.3,481.7 L215.3,481.7 L215.3,481.7 L215.3,481.7 L215.3,481.7 L215.3,481.7 L215.3,481.7 L215.3,481.7 L215.8,480.6 L217.1,478.6 L218.2,476.7 L219.5,474.7 L220.7,472.7 L222.0,470.7 L223.4,468.8 L224.7,466.9 L226.1,464.9 L227.5,463.0 L228.9,461.2 L230.4,459.3 L231.8,457.6 L233.4,455.7 L234.9,454.0 L236.5,452.1 L238.0,450.4 L239.7,448.7 L241.2,447.2 L242.9,445.4 L244.5,443.7 L246.2,441.9 L247.7,440.2 L249.1,438.4 L250.7,436.6 L252.1,434.7 L253.5,432.8 L254.9,431.0 L256.1,429.0 L257.5,426.9 L258.8,425.1 L259.9,423.0 L261.2,421.0 L262.3,419.0 L263.3,416.8 L264.4,414.8 L265.4,412.6 L266.4,410.4 L267.2,408.3 L268.2,406.1 L269.1,403.9 L269.8,401.7 L270.5,399.5 L271.2,397.2 L271.9,395.0 L272.4,392.7 L273.0,390.4 L273.5,388.2 L274.2,385.9 L274.8,383.7 L275.5,381.3 L276.2,379.2 L277.1,377.0 L277.9,374.8 L278.7,372.6 L279.6,370.5 L280.6,368.3 L281.5,366.1 L282.7,364.1 L283.8,361.9 L284.9,359.9 L286.0,357.8 L287.3,355.8 L288.6,353.8 L289.8,351.9 L291.1,349.9 L292.5,348.0 L293.9,346.2 L295.4,344.5 L297.0,342.6 L298.5,340.9 L300.1,339.0 L301.6,337.3 L303.3,335.8 L305.0,334.0 L306.7,332.5 L308.5,330.9 L310.2,329.4 L312.0,327.8 L314.0,326.4 L315.8,325.0 L317.8,323.6 L319.6,322.4 L321.6,321.1 L323.5,319.9 L325.6,318.6 L327.6,317.4 L329.7,316.3 L331.8,315.2 L333.9,314.1 L336.0,313.2 L338.1,312.3 L340.4,311.3 L342.5,310.4 L344.7,309.6 L346.8,308.8 L349.1,308.1 L351.3,307.3 L353.6,306.7 L355.8,306.0 L358.1,305.4 L360.5,304.8 L362.7,304.3 L365.0,303.9 L367.3,303.4 L369.6,303.1 L372.0,302.8 L374.4,302.5 L376.6,302.1 L379.0,302.0 L381.4,301.8 L383.6,301.8 L386.0,301.7 L388.4,301.7 L390.7,301.7 L393.0,301.8 L395.4,302.0 L397.8,302.1 L400.1,302.3 L402.4,302.6 L404.7,302.9 L407.1,303.2 L409.3,303.7 L411.7,304.2 L414.0,304.6 L416.2,305.1 L418.6,305.7 L420.8,306.2 L423.1,307.0 L425.3,307.6 L427.6,308.4 L429.8,309.1 L431.9,309.9 L434.2,310.7 L436.3,311.6 L438.5,312.6 L440.6,313.5 L442.7,314.6 L444.9,315.7 L447.0,316.8 L448.9,317.9 L451.0,319.0 L453.0,320.2 L455.1,321.4 L457.1,322.7 L458.9,324.1 L460.9,325.3 L462.8,326.7 L464.7,328.1 L466.5,329.7 L468.3,331.1 L470.1,332.6 L471.8,334.2 L473.6,335.8 L475.3,337.3 L477.0,339.0 L478.7,340.6 L480.4,342.3 L481.9,344.0 L483.5,345.7 L485.2,347.6 L486.6,349.3 L488.1,351.2 L489.5,353.0 L490.9,354.9 L492.3,356.8 L493.7,358.6 L495.1,360.5 L496.4,362.5 L497.7,364.5 L498.8,366.6 L500.0,368.6 L501.2,370.6 L502.3,372.6 L503.4,374.7 L504.4,376.8 L505.5,379.0 L506.4,381.0 L507.3,383.2 L508.2,385.4 L509.0,387.6 L509.9,389.7 L510.7,392.1 L511.4,394.3 L512.1,396.4 L512.8,398.8 L513.4,400.9 L513.9,403.3 L514.5,405.6 L515.1,407.8 L515.6,410.1 L516.0,412.5 L516.5,414.8 L516.7,417.1 L517.2,419.5 L517.4,421.8 L517.7,424.1 L517.9,426.5 L518.0,428.8 L518.2,431.1 L518.3,433.5 L518.4,435.8 L518.4,438.1 L518.3,440.5 L518.3,442.8 L518.2,445.1 L518.0,447.5 L517.9,449.8 L517.6,452.1 L517.3,454.5 L517.0,456.8 L516.6,459.1 L516.2,461.5 L515.8,463.8 L515.5,465.7 L515.1,467.7 L514.6,469.6 L514.2,471.4 L513.7,473.3 L513.2,475.2 L512.7,477.2 L512.1,479.1 L511.6,480.9 L511.0,482.8 L510.3,484.7 L509.7,486.4 L509.0,488.2 L508.3,490.1 L507.6,492.0 L506.8,493.7 L506.1,495.5 L505.2,497.3 L504.5,499.1 L503.7,500.8 L502.8,502.7 L502.0,504.4 L501.0,506.1 L500.2,507.8 L499.3,509.5 L498.4,511.4 L497.4,513.1 L496.4,514.7 L495.4,516.4 L494.4,518.1 L493.4,519.8 L492.5,521.5 L491.3,523.1 L490.3,524.8 L489.2,526.4 L488.1,528.1 L487.0,529.6 L485.9,531.2 L484.7,532.7 L483.6,534.4 L482.3,536.0 L481.2,537.4 L480.0,539.0 L478.7,540.5 L477.4,542.1 L476.2,543.5 L474.9,545.0 L473.6,546.4 L472.4,548.0 L471.1,549.4 L469.7,550.8 L468.4,552.3 L467.0,553.7 L465.6,555.1 L464.4,556.5 L463.0,557.9 L461.6,559.2 L460.2,560.6 L458.6,562.0 L457.2,563.2 L455.8,564.6 L454.3,565.9 L452.9,567.1 L451.3,568.4 L449.8,569.6 L448.4,570.9 L446.8,572.1 L445.3,573.3 L443.7,574.4 L442.0,575.7 L440.5,576.8 L439.0,578.0 L437.3,579.1 L435.7,580.2 L434.0,581.3 L432.5,582.4 L430.8,583.3 L429.1,584.4 L427.4,585.5 L425.8,586.4 L424.1,587.5 L422.4,588.4 L420.7,589.4 L419.0,590.3 L417.3,591.4 L415.6,592.3 L413.8,593.3 L412.1,594.0 L410.5,595.0 L408.6,595.9 L406.9,596.7 L405.1,597.6 L403.3,598.4 L401.6,599.2 L399.8,600.1 L398.0,600.9 L396.3,601.7 L394.4,602.4 L392.6,603.2 L390.8,603.8 L389.0,604.6 L387.1,605.2 L385.3,606.0 L383.5,606.6 L381.7,607.3 L379.8,608.0 L377.9,608.7 L376.0,609.3 L374.2,609.9 L372.4,610.5 L370.6,611.2 L368.6,611.8 L366.8,612.2" fill="none" stroke="#bcbd22" stroke-width="1.7" opacity="0.85"/><circle cx="367" cy="612" r="4.5" fill="#bcbd22"/><rect x="28" y="108" width="13" height="13" fill="#bcbd22"/><text x="46" y="119" font-size="12">50%</text><path d="M215.3,481.7 L215.3,481.7 L215.3,481.7 L215.3,481.7 L215.3,481.7 L215.3,481.7 L215.3,481.7 L215.3,481.7 L215.3,481.7 L215.3,481.7 L215.3,481.7 L215.3,481.7 L215.3,481.7 L215.3,481.7 L215.3,481.7 L215.3,481.7 L215.3,481.7 L215.3,481.7 L215.3,481.7 L215.3,481.7 L215.3,481.7 L215.3,481.7 L215.3,481.7 L215.3,481.7 L215.3,481.7 L215.3,481.7 L215.3,481.7 L215.3,481.7 L215.3,481.7 L215.3,481.7 L215.3,481.7 L215.3,481.7 L215.3,481.7 L215.3,481.7 L215.3,481.7 L215.3,481.7 L215.3,481.7 L215.3,481.7 L215.3,481.7 L215.3,481.7 L215.3,481.7 L215.3,481.7 L215.3,481.7 L215.3,481.7 L215.3,481.7 L215.3,481.7 L215.3,481.7 L215.3,481.7 L215.3,481.7 L215.3,481.7 L215.3,481.7 L215.3,481.7 L215.3,481.7 L215.3,481.7 L215.3,481.7 L215.3,481.7 L215.3,481.7 L215.3,481.7 L215.3,481.7 L215.3,481.7 L215.7,481.1 L216.8,479.1 L218.1,477.0 L219.2,475.0 L220.5,473.0 L221.6,471.0 L222.9,468.9 L224.1,466.9 L225.4,464.9 L226.8,463.0 L228.0,461.0 L229.3,459.1 L230.7,457.3 L232.1,455.2 L233.5,453.4 L234.9,451.5 L236.3,449.6 L237.7,447.8 L239.1,445.9 L240.5,444.0 L242.0,442.2 L243.4,440.3 L244.6,438.3 L245.9,436.3 L247.1,434.4 L248.4,432.4 L249.5,430.4 L250.8,428.3 L251.9,426.3 L253.0,424.1 L254.0,422.1 L255.1,419.9 L256.1,417.9 L257.1,415.7 L258.0,413.5 L258.9,411.4 L259.8,409.2 L260.6,407.0 L261.3,404.8 L262.2,402.5 L262.9,400.3 L263.4,398.0 L264.1,395.8 L264.7,393.5 L265.3,391.3 L265.8,389.0 L266.4,386.6 L266.9,384.5 L267.6,382.1 L268.3,379.9 L269.1,377.6 L269.8,375.4 L270.6,373.3 L271.4,371.1 L272.3,368.9 L273.3,366.7 L274.1,364.5 L275.1,362.4 L276.2,360.3 L277.2,358.2 L278.3,356.1 L279.4,354.1 L280.6,351.9 L281.7,349.9 L283.0,347.9 L284.1,346.0 L285.5,344.0 L286.7,342.0 L288.0,340.1 L289.4,338.2 L290.8,336.4 L292.2,334.5 L293.8,332.6 L295.3,330.8 L296.7,329.1 L298.4,327.4 L299.9,325.5 L301.5,323.8 L303.2,322.2 L304.9,320.5 L306.5,318.8 L308.2,317.2 L309.9,315.7 L311.7,314.1 L313.4,312.6 L315.2,311.0 L317.1,309.6 L318.9,308.2 L320.9,306.7 L322.7,305.3 L324.7,304.0 L326.5,302.6 L328.4,301.2 L330.4,300.0 L332.4,298.7 L334.3,297.5 L336.5,296.2 L338.4,295.0 L340.4,293.9 L342.5,292.7 L344.6,291.6 L346.6,290.5 L348.7,289.4 L350.8,288.3 L352.9,287.2 L355.0,286.3 L357.1,285.3 L359.3,284.3 L361.4,283.5 L363.7,282.5 L365.8,281.6 L368.0,280.8 L370.2,280.1 L372.4,279.3 L374.6,278.5 L376.9,277.7 L379.1,276.9 L381.4,276.3 L383.6,275.7 L385.9,275.1 L388.1,274.5 L390.4,273.8 L392.8,273.2 L395.0,272.7 L397.3,272.3 L399.6,271.8 L401.9,271.3 L404.1,270.9 L406.5,270.6 L408.8,270.1 L411.2,269.8 L413.5,269.5 L415.8,269.2 L418.2,268.8 L420.4,268.7 L422.8,268.4 L425.2,268.2 L427.4,268.1 L429.8,267.9 L432.2,267.9 L434.5,267.8 L436.9,267.8 L439.2,267.8 L441.6,267.8 L443.9,267.8 L446.3,267.9 L448.6,267.9 L451.0,268.1 L453.3,268.1 L455.7,268.2 L458.1,268.4 L460.3,268.5 L462.7,268.7 L465.1,269.0 L467.3,269.2 L469.7,269.5 L472.0,269.8 L474.3,270.1 L476.6,270.6 L479.0,271.0 L481.2,271.3 L483.6,271.8 L485.9,272.3 L488.2,272.7 L490.5,273.4 L492.7,273.8 L495.0,274.5 L497.2,275.1 L499.6,275.7 L501.9,276.3 L504.1,276.9 L506.4,277.6 L508.6,278.2 L510.9,279.0 L513.1,279.6 L515.3,280.4 L517.6,281.0 L519.8,281.8 L522.1,282.5 L524.2,283.2 L526.4,283.9 L528.7,284.7 L530.9,285.5 L533.2,286.3 L535.3,287.2 L537.5,288.0 L539.6,288.8 L541.9,289.7 L544.0,290.6 L546.2,291.6 L548.3,292.3 L550.6,293.3 L552.7,294.2 L554.8,295.1 L557.0,296.1 L559.2,297.0 L561.3,297.9 L563.5,299.0 L565.6,300.0 L567.7,301.1 L569.8,302.0 L571.9,303.1 L574.0,304.2 L576.0,305.3 L578.1,306.3 L580.2,307.4 L582.3,308.5 L584.3,309.8 L586.4,310.9 L588.5,311.9 L590.5,313.2 L592.6,314.3 L594.5,315.5 L596.5,316.8 L598.2,317.7 L599.9,318.8 L601.6,319.7 L603.2,320.8 L604.8,321.9 L606.5,323.0 L608.2,324.1 L609.7,325.2 L611.4,326.3 L612.9,327.4 L614.5,328.6 L616.2,329.7 L617.7,330.9 L619.3,332.0 L620.8,333.3 L622.3,334.4 L623.9,335.6 L625.4,336.8 L627.0,337.9 L628.5,339.2 L630.1,340.4 L631.6,341.7 L633.2,342.8 L634.7,344.0 L636.2,345.2 L637.8,346.5 L639.3,347.7 L640.9,349.0 L642.3,350.1 L643.8,351.3 L645.4,352.6 L646.9,353.8 L648.5,355.0 L650.0,356.3 L651.4,357.5 L653.0,358.8 L654.5,360.0 L655.9,361.4 L657.4,362.7 L658.9,363.9 L660.3,365.3 L661.8,366.6 L663.2,368.0 L664.6,369.2 L666.0,370.6 L667.4,372.0 L668.8,373.3 L670.2,374.7 L671.6,376.1 L673.0,377.5 L674.4,378.9 L675.8,380.3 L677.1,381.7 L678.5,383.1 L679.9,384.5 L681.2,385.9 L682.6,387.3 L683.8,388.7 L685.1,390.2 L686.5,391.6 L687.8,393.2 L689.0,394.6 L690.3,396.0 L691.7,397.5 L693.0,398.9 L694.2,400.5 L695.5,401.9 L696.8,403.4 L698.0,405.0 L699.3,406.4 L700.6,407.9 L701.8,409.3 L703.1,410.9 L704.3,412.5 L705.6,413.9 L706.9,415.4 L708.1,417.0 L709.3,418.5 L710.5,419.9 L711.8,421.5 L713.1,423.0 L714.3,424.6 L715.4,426.0 L716.7,427.6 L717.8,429.1 L719.1,430.7 L720.2,432.2 L721.3,433.8 L722.6,435.5 L723.7,437.0 L724.8,438.6 L725.8,440.3 L727.0,441.9 L728.1,443.4 L729.2,445.1 L730.3,446.7 L731.3,448.4 L732.4,450.0 L733.6,451.7 L734.5,453.2 L735.7,454.9 L736.6,456.6 L737.8,458.2 L738.7,459.9 L739.7,461.6 L740.9,463.2 L741.8,464.9 L742.8,466.6 L743.8,468.3 L744.8,469.9 L745.9,471.6 L746.9,473.3 L747.9,475.0 L748.9,476.7 L749.8,478.3 L750.8,480.0 L751.8,481.7 L752.6,483.4 L753.6,485.1 L754.6,486.8 L755.5,488.5 L756.4,490.4 L757.3,492.1 L758.3,493.8 L759.1,495.5 L760.0,497.3 L760.9,499.1 L761.8,500.8 L762.6,502.5 L763.5,504.4 L764.3,506.1 L765.1,507.8 L766.0,509.7 L766.8,511.4 L767.7,513.1 L768.5,515.0 L769.4,516.7 L770.2,518.4 L770.9,520.3 L771.7,522.0 L772.6,523.9 L773.3,525.6 L774.1,527.4 L774.8,529.3 L775.7,531.0 L776.4,532.9 L777.1,534.6 L777.8,536.5 L778.6,538.3 L779.3,540.0 L780.0,541.9 L780.7,543.8 L781.4,545.5 L782.3,547.4 L783.0,549.2 L783.7,550.9 L784.4,552.8 L785.1,554.7 L785.8,556.5 L786.5,558.2 L787.2,560.1 L787.9,562.0 L788.6,563.9 L789.3,565.6 L790.0,567.4" fill="none" stroke="#ff7f0e" stroke-width="1.7" opacity="0.85"/><circle cx="790" cy="567" r="4.5" fill="#ff7f0e"/><rect x="28" y="128" width="13" height="13" fill="#ff7f0e"/><text x="46" y="139" font-size="12">100%</text><text x="28" y="832" font-size="11" fill="#888">ground track — m from pad (N up)</text></svg>