<svg xmlns="http://www.w3.org/2000/svg" width="840" height="860" font-family="sans-serif" font-size="13"><rect width="840" height="860" fill="white"/><text x="20" y="26" font-size="15" fill="#333">TMS-7 F15 — cross-wind sweep (10% noise)</text><rect x="20" y="40" width="800" height="800" fill="#fbfbfb" stroke="#ddd"/><rect x="183" y="379" width="403" height="87" fill="#cde" stroke="#369" opacity="0.7"/><text x="183" y="374" fill="#369" font-size="12">landing zone</text><circle cx="438" cy="514" r="5" fill="black"/><text x="446" y="518" font-size="12">pad</text><path d="M437.8,514.2 L437.8,514.2 L437.8,514.2 L437.8,514.2 L437.8,514.2 L437.8,514.2 L437.8,514.2 L437.8,514.2 L437.8,514.2 L437.8,514.2 L437.8,514.2 L437.8,514.2 L437.8,514.2 L437.8,514.2 L437.8,514.2 L437.8,514.2 L437.8,514.2 L437.8,514.2 L437.8,514.2 L437.8,514.2 L437.8,514.2 L437.8,514.2 L437.8,514.2 L437.8,514.2 L437.8,514.2 L437.8,514.2 L437.8,514.2 L437.8,514.2 L437.8,514.2 L437.8,514.2 L437.8,514.2 L437.8,514.2 L437.8,514.2 L437.8,514.2 L437.8,514.2 L437.8,514.2 L437.8,514.2 L437.8,514.2 L437.8,514.2 L437.8,514.2 L437.8,514.2 L437.8,514.2 L437.8,514.2 L437.8,514.2 L437.8,514.2 L437.8,514.2 L437.8,514.2 L437.8,514.2 L437.8,514.2 L437.8,514.2 L437.8,514.2 L437.8,514.2 L437.8,514.2 L437.8,514.2 L437.8,514.2 L437.8,514.2 L437.8,514.2 L437.8,514.2 L439.3,511.6 L441.2,508.5 L443.0,505.3 L444.9,502.4 L447.1,499.3 L449.3,496.4 L451.4,493.6 L453.6,490.7 L456.0,487.8 L458.4,485.2 L460.7,482.5 L463.4,479.9 L466.0,477.5 L468.6,474.8 L471.2,472.4 L474.0,470.0 L476.8,467.9 L479.6,465.5 L482.4,463.3 L485.2,460.9 L488.1,458.5 L490.7,456.3 L493.5,453.7 L496.1,451.3 L498.7,448.6 L501.1,446.2 L503.7,443.4 L505.8,440.7 L508.2,437.8 L510.4,435.0 L512.6,432.1 L514.5,429.0 L516.5,426.1 L518.4,422.9 L520.1,419.8 L521.9,416.5 L523.4,413.3 L524.9,410.0 L526.2,406.6 L527.5,403.3 L528.8,399.9 L529.9,396.3 L531.0,392.9 L531.8,389.3 L532.5,385.7 L533.4,382.4 L533.8,378.8 L534.4,375.2 L534.9,371.5 L535.5,367.9 L536.0,364.3 L536.6,360.7 L537.3,357.1 L538.1,353.8 L539.0,350.2 L540.1,346.8 L540.9,343.2 L542.2,339.8 L543.6,336.5 L544.9,333.1 L546.4,329.8 L547.9,326.4 L549.6,323.3 L551.4,320.2 L553.1,316.8 L555.0,313.9 L557.0,310.8 L558.9,307.9 L561.1,305.0 L563.5,302.1 L565.7,299.3 L568.0,296.6 L570.6,294.0 L573.2,291.3 L575.8,288.9 L578.4,286.3 L581.3,284.1 L584.1,281.7 L586.9,279.6 L589.9,277.4 L593.0,275.5 L596.0,273.6 L599.0,271.6 L602.3,270.0 L605.5,268.3 L608.8,266.6 L612.0,265.2 L615.3,263.7 L618.8,262.5 L622.2,261.3 L625.7,260.1 L629.2,259.1 L632.6,258.2 L636.1,257.2 L639.8,256.5 L643.3,256.0 L646.9,255.5 L650.4,255.1 L654.1,254.8 L657.6,254.6 L661.2,254.3 L664.9,254.3 L668.6,254.6 L672.1,254.8 L675.8,255.1 L679.5,255.5 L682.9,256.0 L686.6,256.5 L690.1,257.2 L693.5,258.2 L697.0,259.1 L700.7,260.1 L703.9,261.3 L707.4,262.5 L710.9,263.7 L714.1,265.2 L717.4,266.6 L720.6,268.3 L723.9,270.0 L727.1,271.9 L730.2,273.6 L733.2,275.7 L736.2,277.6 L739.1,279.8 L741.9,282.0 L744.7,284.4 L747.5,286.8 L750.1,289.2 L752.7,291.8 L755.3,294.5 L757.7,297.1 L760.1,299.7 L762.5,302.6 L764.6,305.5 L766.8,308.4 L768.8,311.3 L770.7,314.4 L772.7,317.5 L774.4,320.6 L775.9,324.0 L777.6,327.1 L779.2,330.5 L780.5,333.8 L781.8,337.2 L783.1,340.6 L784.1,344.2 L785.2,347.5 L786.1,351.1 L787.0,354.5 L787.6,358.1 L788.3,361.7 L788.9,365.3 L789.3,368.9 L789.6,372.5 L789.8,376.1 L790.0,379.7 L790.0,383.3 L789.8,386.9 L789.8,390.5 L789.3,394.1 L789.1,397.7 L788.5,401.3 L788.0,404.9 L787.4,408.5 L786.7,412.1 L785.9,415.7 L784.8,419.1 L783.9,422.7 L782.6,426.1 L781.5,429.4 L780.2,432.8 L778.7,436.2 L777.2,439.5 L775.7,442.6 L774.0,446.0 L772.2,449.1 L770.5,452.2 L768.5,455.4 L766.6,458.3 L764.4,461.4 L762.3,464.3 L759.9,467.1 L757.7,469.8 L755.3,472.4 L752.7,475.3 L750.3,477.7 L747.7,480.3 L744.9,482.8 L742.3,485.2 L739.5,487.3 L736.7,489.7 L733.6,491.9 L730.6,493.8 L727.6,496.0 L724.5,497.9 L721.5,499.6 L718.3,501.5 L715.0,503.2 L711.8,504.6 L708.5,506.3 L705.2,507.7 L701.8,508.9 L698.5,510.1 L695.1,511.3 L691.6,512.5 L688.1,513.5 L684.7,514.5 L681.0,515.2 L677.5,515.9 L673.8,516.6 L670.4,517.1 L666.7,517.6 L663.2,517.8 L659.5,518.1 L655.8,518.3 L652.1,518.3 L649.3,518.3 L646.3,518.3 L643.3,518.1 L640.2,517.8 L637.2,517.6 L634.2,517.3 L631.1,516.9 L628.1,516.4 L625.3,515.9 L622.2,515.4 L619.2,514.7 L616.4,514.0 L613.3,513.3 L610.5,512.3 L607.7,511.6 L604.9,510.6 L601.9,509.4 L599.0,508.5 L596.2,507.2 L593.6,506.0 L590.8,504.8 L588.0,503.6 L585.4,502.2 L582.8,500.8 L580.2,499.3 L577.6,497.6 L575.0,496.2 L572.4,494.5 L570.0,492.8 L567.4,490.9 L565.0,489.2 L562.6,487.3 L560.2,485.4" fill="none" stroke="#1f77b4" stroke-width="1.7" opacity="0.85"/><circle cx="560" cy="485" r="4.5" fill="#1f77b4"/><rect x="28" y="48" width="13" height="13" fill="#1f77b4"/><text x="46" y="59" font-size="12">calm</text><path d="M437.8,514.2 L437.8,514.2 L437.8,514.2 L437.8,514.2 L437.8,514.2 L437.8,514.2 L437.8,514.2 L437.8,514.2 L437.8,514.2 L437.8,514.2 L437.8,514.2 L437.8,514.2 L437.8,514.2 L437.8,514.2 L437.8,514.2 L437.8,514.2 L437.8,514.2 L437.8,514.2 L437.8,514.2 L437.8,514.2 L437.8,514.2 L437.8,514.2 L437.8,514.2 L437.8,514.2 L437.8,514.2 L437.8,514.2 L437.8,514.2 L437.8,514.2 L437.8,514.2 L437.8,514.2 L437.8,514.2 L437.8,514.2 L437.8,514.2 L437.8,514.2 L437.8,514.2 L437.8,514.2 L437.8,514.2 L437.8,514.2 L437.8,514.2 L437.8,514.2 L437.8,514.2 L437.8,514.2 L437.8,514.2 L437.8,514.2 L437.8,514.2 L437.8,514.2 L437.8,514.2 L437.8,514.2 L437.8,514.2 L437.8,514.2 L437.8,514.2 L437.8,514.2 L437.8,514.2 L437.8,514.2 L437.8,514.2 L437.8,514.2 L437.8,514.2 L437.8,514.2 L439.1,512.1 L440.4,509.7 L441.9,507.2 L443.6,504.8 L445.1,502.7 L446.9,500.3 L448.6,498.1 L450.6,496.0 L452.5,493.8 L454.5,491.9 L456.6,489.7 L458.6,487.8 L460.7,485.9 L463.1,484.2 L465.3,482.3 L467.7,480.6 L469.9,478.7 L472.2,477.0 L474.6,475.3 L477.0,473.9 L479.4,472.2 L482.0,470.5 L484.4,469.1 L487.0,467.6 L489.6,466.2 L492.0,464.7 L494.6,463.3 L497.2,461.9 L499.5,460.2 L502.1,458.7 L504.5,457.1 L506.9,455.4 L509.1,453.4 L511.3,451.5 L513.4,449.6 L515.6,447.7 L517.5,445.8 L519.5,443.6 L521.2,441.2 L523.0,439.0 L524.7,436.6 L526.2,434.5 L527.7,431.8 L529.0,429.4 L530.3,427.0 L531.6,424.4 L532.7,421.7 L533.8,419.1 L534.7,416.5 L535.5,413.6 L536.2,410.9 L536.8,408.1 L537.5,405.2 L537.9,402.3 L538.1,399.4 L538.3,396.5 L538.6,393.6 L538.6,390.8 L538.6,387.9 L538.3,384.8 L538.1,381.9 L537.7,379.0 L537.3,376.1 L536.8,373.0 L536.4,370.1 L536.0,367.2 L535.5,364.1 L535.3,361.2 L535.1,358.3 L534.9,355.5 L534.9,352.3 L535.1,349.5 L535.3,346.6 L535.5,343.7 L536.0,340.8 L536.4,337.9 L537.0,335.3 L537.7,332.4 L538.6,329.8 L539.4,326.9 L540.3,324.2 L541.4,321.6 L542.7,319.0 L544.0,316.5 L545.3,313.9 L546.8,311.5 L548.3,309.1 L549.8,306.7 L551.6,304.5 L553.3,302.1 L555.3,300.0 L557.2,298.1 L559.2,295.9 L561.3,294.0 L563.5,292.1 L565.7,290.4 L568.0,288.4 L570.4,286.8 L572.8,285.3 L575.4,283.9 L578.0,282.4 L580.6,281.0 L583.2,279.8 L586.0,278.6 L588.9,277.6 L591.7,276.4 L594.5,275.7 L597.5,274.8 L600.3,274.3 L603.4,273.6 L606.4,273.1 L609.4,272.6 L612.7,272.4 L615.7,272.1 L618.8,271.9 L622.0,271.9 L625.3,272.1 L628.5,272.1 L631.6,272.6 L634.8,272.8 L638.1,273.3 L641.3,274.0 L644.6,274.8 L647.8,275.5 L651.1,276.4 L654.3,277.4 L657.6,278.4 L660.6,279.8 L663.8,281.0 L667.1,282.4 L670.1,283.9 L673.2,285.6 L676.4,287.2 L679.5,288.9 L682.5,290.8 L685.3,293.0 L688.3,294.9 L691.2,297.3 L694.2,299.5 L697.0,301.9 L699.6,304.3 L702.4,306.9 L705.0,309.6 L707.6,312.2 L710.2,315.1 L712.6,318.0 L715.0,320.9 L717.4,324.0 L719.8,327.1 L721.9,330.2 L724.1,333.6 L726.1,337.0 L728.0,340.3 L730.0,343.9 L731.9,347.3 L733.6,350.9 L735.2,354.7 L736.9,358.3 L738.2,362.2 L739.7,366.0 L741.0,369.9 L742.3,373.7 L743.4,377.8 L744.5,381.6 L745.3,385.7 L746.2,389.8 L746.9,393.9 L747.5,398.2 L748.2,402.3 L748.6,406.4 L749.0,410.7 L749.3,415.0 L749.3,419.1 L749.5,423.4 L749.3,427.8 L749.3,432.1 L749.0,436.4 L748.6,440.7 L748.2,445.0 L747.5,449.1 L746.9,453.4 L746.2,457.8 L745.3,462.1 L744.3,466.4 L743.2,470.5 L742.1,474.8 L740.8,478.9 L739.5,483.2 L738.0,487.3 L736.5,491.4 L734.7,495.5 L733.0,499.6 L731.3,503.4 L729.3,507.5 L727.4,511.3 L725.2,515.2 L723.0,519.0 L720.9,522.9 L718.5,526.5 L715.9,530.1 L713.5,533.7 L710.9,537.3 L708.1,540.9 L705.5,544.2 L702.6,547.6 L699.6,551.0 L696.8,554.1 L693.8,557.2 L690.5,560.3 L687.5,563.2 L684.2,566.3 L681.0,569.0 L677.5,571.9 L674.0,574.5 L670.8,577.1 L667.1,579.8 L664.3,581.7 L661.2,583.6 L658.2,585.5 L655.2,587.5 L652.1,589.4 L648.9,591.1 L645.9,592.8 L642.6,594.4 L639.6,595.9 L636.3,597.3 L633.1,598.8 L629.8,600.2 L626.6,601.4 L623.3,602.6 L620.1,603.8 L616.8,604.8 L613.3,606.0 L610.1,606.7 L606.8,607.6 L603.4,608.4 L600.1,609.3 L596.9,609.8 L593.4,610.5 L590.2,611.0 L586.7,611.5 L583.4,612.0 L580.2,612.2 L576.7,612.4 L573.5,612.7 L570.2,612.9 L566.7,612.9 L563.5,612.9 L560.2,612.9 L557.0,612.7 L553.7,612.4 L550.5,612.2 L547.2,612.0 L544.2,611.5" fill="none" stroke="#17becf" stroke-width="1.7" opacity="0.85"/><circle cx="544" cy="611" r="4.5" fill="#17becf"/><rect x="28" y="68" width="13" height="13" fill="#17becf"/><text x="46" y="79" font-size="12">3 m/s</text><path d="M437.8,514.2 L437.8,514.2 L437.8,514.2 L437.8,514.2 L437.8,514.2 L437.8,514.2 L437.8,514.2 L437.8,514.2 L437.8,514.2 L437.8,514.2 L437.8,514.2 L437.8,514.2 L437.8,514.2 L437.8,514.2 L437.8,514.2 L437.8,514.2 L437.8,514.2 L437.8,514.2 L437.8,514.2 L437.8,514.2 L437.8,514.2 L437.8,514.2 L437.8,514.2 L437.8,514.2 L437.8,514.2 L437.8,514.2 L437.8,514.2 L437.8,514.2 L437.8,514.2 L437.8,514.2 L437.8,514.2 L437.8,514.2 L437.8,514.2 L437.8,514.2 L437.8,514.2 L437.8,514.2 L437.8,514.2 L437.8,514.2 L437.8,514.2 L437.8,514.2 L437.8,514.2 L437.8,514.2 L437.8,514.2 L437.8,514.2 L437.8,514.2 L437.8,514.2 L437.8,514.2 L437.8,514.2 L437.8,514.2 L437.8,514.2 L437.8,514.2 L437.8,514.2 L437.8,514.2 L437.8,514.2 L437.8,514.2 L437.8,514.2 L437.8,514.2 L437.8,514.2 L438.6,512.8 L439.7,510.9 L440.8,509.2 L442.1,507.5 L443.4,505.8 L444.7,504.4 L446.0,502.7 L447.5,501.2 L449.0,499.8 L450.8,498.4 L452.3,497.2 L454.0,496.0 L456.0,494.5 L457.7,493.6 L459.7,492.4 L461.6,491.2 L463.6,490.2 L465.5,489.2 L467.5,488.3 L469.4,487.3 L471.6,486.4 L473.5,485.4 L475.7,484.7 L477.9,483.7 L480.0,483.0 L482.0,482.0 L484.2,481.3 L486.3,480.6 L488.5,479.6 L490.7,478.9 L492.8,478.2 L495.0,477.5 L497.4,476.7 L499.5,476.0 L501.7,475.3 L503.9,474.6 L506.1,473.9 L508.4,473.1 L510.6,472.7 L512.8,471.9 L515.2,471.2 L517.3,470.5 L519.5,470.0 L521.9,469.3 L524.0,468.6 L526.2,467.9 L528.4,467.1 L530.8,466.4 L532.9,465.7 L535.1,465.0 L537.3,464.3 L539.4,463.5 L541.6,462.8 L543.8,461.9 L545.7,460.9 L547.7,459.9 L549.6,458.7 L551.4,457.5 L553.1,456.3 L554.8,455.1 L556.6,453.7 L558.1,452.2 L559.4,450.8 L560.9,449.1 L562.2,447.4 L563.3,445.8 L564.6,444.1 L565.4,442.4 L566.5,440.5 L567.4,438.6 L568.0,436.6 L568.7,434.7 L569.3,432.6 L569.8,430.6 L570.2,428.5 L570.4,426.3 L570.6,424.1 L570.6,422.0 L570.6,419.8 L570.6,417.7 L570.4,415.5 L570.0,413.1 L569.6,410.9 L569.1,408.5 L568.5,406.4 L567.8,404.0 L567.0,401.8 L565.9,399.7 L565.0,397.2 L563.9,395.1 L562.6,392.7 L561.3,390.5 L559.8,388.4 L558.3,386.0 L556.8,383.8 L555.0,381.6 L553.3,379.7 L551.4,377.6 L549.4,375.4 L547.5,373.2 L545.5,371.3 L543.6,369.1 L541.6,367.0 L539.9,365.1 L537.9,362.9 L536.2,360.7 L534.4,358.6 L532.9,356.4 L531.4,354.3 L529.9,351.9 L528.6,349.7 L527.3,347.5 L526.0,345.1 L524.9,343.0 L523.8,340.6 L523.0,338.4 L522.1,336.0 L521.4,333.8 L520.8,331.4 L520.1,329.3 L519.7,327.1 L519.5,324.7 L519.1,322.6 L519.1,320.4 L519.1,318.0 L519.1,315.8 L519.1,313.7 L519.5,311.5 L519.7,309.6 L520.1,307.4 L520.8,305.5 L521.2,303.3 L522.1,301.4 L522.7,299.5 L523.8,297.6 L524.7,295.9 L525.8,294.0 L526.9,292.3 L528.2,290.6 L529.5,289.2 L531.0,287.5 L532.5,286.0 L534.0,284.6 L535.7,283.4 L537.5,282.0 L539.2,280.8 L541.2,279.8 L543.1,278.6 L545.1,277.6 L547.0,276.9 L549.2,276.0 L551.4,275.2 L553.7,274.8 L556.1,274.0 L558.5,273.6 L560.9,273.3 L563.3,273.1 L565.9,272.8 L568.3,272.8 L570.9,272.8 L573.7,272.8 L576.3,273.1 L578.9,273.3 L581.7,273.8 L584.5,274.3 L587.1,275.0 L589.9,275.7 L592.8,276.4 L595.6,277.4 L598.4,278.6 L601.2,279.6 L604.2,280.8 L607.1,282.2 L609.9,283.6 L612.7,285.1 L615.5,286.8 L618.3,288.7 L621.1,290.4 L624.0,292.3 L626.8,294.5 L629.6,296.6 L632.2,298.8 L635.0,301.2 L637.6,303.6 L640.2,306.2 L642.8,308.9 L645.4,311.5 L648.0,314.4 L650.4,317.3 L652.8,320.4 L655.2,323.5 L657.6,326.6 L659.9,330.0 L662.1,333.4 L664.3,337.0 L666.2,340.3 L668.4,343.9 L670.4,347.8 L672.3,351.6 L674.0,355.5 L675.8,359.3 L677.5,363.4 L679.0,367.5 L680.5,371.5 L682.1,375.9 L683.4,380.2 L684.7,384.5 L685.7,388.8 L686.8,393.4 L687.9,397.7 L688.8,402.3 L689.6,406.9 L690.5,411.7 L691.2,416.2 L691.6,421.0 L692.0,425.8 L692.2,429.7 L692.7,433.8 L692.7,437.8 L692.9,441.9 L692.9,446.0 L692.9,450.1 L692.7,454.2 L692.5,458.3 L692.2,462.3 L692.0,466.4 L691.6,470.5 L691.2,474.6 L690.5,478.9 L689.9,483.0 L689.2,487.1 L688.6,491.2 L687.7,495.5 L686.8,499.6 L685.7,503.6 L684.7,507.7 L683.6,511.8 L682.5,515.9 L681.2,520.0 L679.9,524.1 L678.6,528.1 L677.1,532.2 L675.6,536.1 L674.0,540.2 L672.3,544.2 L670.6,548.1 L668.8,551.9 L666.9,556.0 L664.9,559.8 L663.0,563.7 L661.0,567.3 L658.9,571.1 L656.7,575.0 L654.5,578.6 L652.1,582.2 L649.8,585.8 L647.4,589.4 L645.0,593.0 L642.4,596.4 L639.8,600.0 L637.2,603.3 L634.6,606.7 L631.8,610.0 L629.0,613.2 L626.1,616.3 L623.3,619.7 L620.3,622.5 L617.5,625.7" fill="none" stroke="#2ca02c" stroke-width="1.7" opacity="0.85"/><circle cx="617" cy="626" r="4.5" fill="#2ca02c"/><rect x="28" y="88" width="13" height="13" fill="#2ca02c"/><text x="46" y="99" font-size="12">6 m/s</text><path d="M437.8,514.2 L437.8,514.2 L437.8,514.2 L437.8,514.2 L437.8,514.2 L437.8,514.2 L437.8,514.2 L437.8,514.2 L437.8,514.2 L437.8,514.2 L437.8,514.2 L437.8,514.2 L437.8,514.2 L437.8,514.2 L437.8,514.2 L437.8,514.2 L437.8,514.2 L437.8,514.2 L437.8,514.2 L437.8,514.2 L437.8,514.2 L437.8,514.2 L437.8,514.2 L437.8,514.2 L437.8,514.2 L437.8,514.2 L437.8,514.2 L437.8,514.2 L437.8,514.2 L437.8,514.2 L437.8,514.2 L437.8,514.2 L437.8,514.2 L437.8,514.2 L437.8,514.2 L437.8,514.2 L437.8,514.2 L437.8,514.2 L437.8,514.2 L437.8,514.2 L437.8,514.2 L437.8,514.2 L437.8,514.2 L437.8,514.2 L437.8,514.2 L437.8,514.2 L437.8,514.2 L437.8,514.2 L437.8,514.2 L437.8,514.2 L437.8,514.2 L437.8,514.2 L437.8,514.2 L437.8,514.2 L437.8,514.2 L437.8,514.2 L437.8,514.2 L437.8,514.2 L438.4,513.3 L439.1,512.3 L439.7,511.1 L440.6,510.1 L441.5,509.2 L442.3,508.2 L443.4,507.2 L444.5,506.5 L445.6,505.8 L446.9,505.1 L448.2,504.4 L449.5,503.6 L450.8,503.2 L452.1,502.7 L453.6,502.0 L455.1,501.7 L456.6,501.2 L458.1,500.8 L459.7,500.3 L461.2,500.0 L462.9,499.8 L464.4,499.3 L466.2,499.1 L467.7,498.8 L469.4,498.6 L470.9,498.4 L472.7,498.1 L474.4,497.9 L476.1,497.6 L477.9,497.4 L479.4,497.2 L481.1,496.9 L482.9,496.9 L484.6,496.7 L486.3,496.4 L488.1,496.4 L489.8,496.2 L491.5,496.0 L493.3,496.0 L495.0,495.7 L496.7,495.7 L498.5,495.5 L500.2,495.2 L501.9,495.2 L503.7,495.0 L505.4,494.8 L507.1,494.5 L508.9,494.3 L510.6,494.3 L512.1,494.0 L513.9,493.8 L515.6,493.6 L517.1,493.3 L518.8,492.8 L520.4,492.6 L522.1,492.4 L523.6,491.9 L525.3,491.6 L526.9,491.4 L528.4,490.9 L529.9,490.4 L531.4,490.0 L532.9,489.7 L534.4,489.2 L535.7,488.5 L537.3,488.0 L538.6,487.6 L540.1,487.1 L541.4,486.4 L542.7,485.9 L544.0,485.2 L545.3,484.4 L546.6,483.7 L547.9,483.2 L549.0,482.5 L550.3,481.8 L551.4,481.1 L552.7,480.1 L553.7,479.4 L554.8,478.7 L555.9,477.7 L557.0,477.0 L558.1,476.0 L558.9,475.3 L560.0,474.3 L560.9,473.4 L561.8,472.4 L562.8,471.5 L563.7,470.5 L564.4,469.5 L565.2,468.6 L566.1,467.4 L566.7,466.4 L567.6,465.2 L568.3,464.3 L568.9,463.1 L569.3,461.9 L569.8,460.7 L570.2,459.5 L570.6,458.3 L570.9,456.8 L570.9,455.4 L571.1,453.9 L570.9,452.5 L570.9,451.0 L570.4,449.6 L570.2,448.2 L569.8,446.5 L569.1,445.0 L568.5,443.4 L567.8,441.9 L567.0,440.2 L565.9,438.8 L564.8,437.1 L563.7,435.4 L562.4,434.0 L560.9,432.3 L559.6,430.6 L557.9,429.2 L556.1,427.5 L554.4,426.1 L552.7,424.4 L550.5,422.9 L548.5,421.5 L546.4,420.1 L544.2,418.6 L541.8,417.2 L539.4,415.7 L536.8,414.3 L534.2,413.1 L531.6,411.9 L528.8,410.5 L526.0,409.5 L523.0,408.3 L519.9,407.1 L516.9,406.1 L513.6,405.2 L510.4,404.2 L507.1,403.3 L503.9,402.3 L500.4,401.6 L496.7,400.9 L493.3,400.1 L489.6,399.7 L485.9,399.2 L482.0,398.7 L478.1,398.2 L474.2,398.0 L470.3,397.5 L466.2,397.5 L462.1,397.2 L457.9,397.2 L453.8,397.2 L449.5,397.2 L445.1,397.5 L440.8,397.7 L436.5,398.2 L432.1,398.7 L427.6,399.2 L423.0,399.7 L418.5,400.4 L413.9,401.1 L409.4,402.1 L404.8,403.0 L400.1,404.0 L395.5,405.2 L390.7,406.4 L386.0,407.8 L381.2,409.0 L376.4,410.7 L371.7,412.4 L366.9,414.1 L362.1,415.7 L357.4,417.7 L352.6,419.6 L347.8,421.7 L343.1,423.9 L338.3,426.1 L333.5,428.2 L328.7,430.4 L324.0,432.8 L319.2,435.0 L314.2,437.4 L309.5,439.5 L304.7,441.7 L299.9,443.8 L295.1,446.0 L290.4,448.2 L285.6,450.3 L280.8,452.2 L276.1,454.2 L271.3,456.1 L266.5,458.0 L261.8,459.9 L257.0,461.6 L252.2,463.1 L247.5,464.7 L242.7,466.2 L237.9,467.6 L233.2,468.8 L228.4,470.0 L223.8,471.2 L219.1,472.4 L214.5,473.4 L209.7,474.3 L205.2,475.3 L200.6,476.0 L196.1,476.7 L191.5,477.5 L187.2,477.9 L182.7,478.4 L178.3,478.7 L174.0,479.1 L169.6,479.1 L165.3,479.4 L161.2,479.4 L157.7,479.4 L154.3,479.4 L150.8,479.1 L147.5,479.1 L144.3,478.9 L141.0,478.4 L137.8,478.2 L134.5,477.9 L131.3,477.5 L128.2,477.0 L125.2,476.5 L122.2,475.8 L119.4,475.3 L116.3,474.6 L113.5,473.9 L110.7,473.1 L108.1,472.4 L105.3,471.7 L102.7,470.7 L100.1,470.0 L97.5,469.1 L95.1,468.1 L92.7,467.1 L90.3,466.2 L88.1,465.0 L85.8,464.0 L83.6,462.8 L81.6,461.9 L79.5,460.7 L77.5,459.5 L75.6,458.3 L73.8,457.1 L72.1,455.9 L70.4,454.7 L68.6,453.4 L67.1,452.0 L65.6,450.8 L64.1,449.6 L62.8,448.2 L61.5,447.0 L60.2,445.5 L59.1,444.1 L58.0,442.9 L56.9,441.4 L56.1,440.2 L55.0,438.8 L54.3,437.6 L53.5,436.2 L52.8,435.0 L52.2,433.5 L51.7,432.3 L51.3,430.9 L50.9,429.7 L50.4,428.5 L50.2,427.0 L50.0,425.8 L50.0,424.6 L50.0,423.4 L50.0,422.2 L50.0,421.3 L50.2,420.1 L50.4,418.9 L50.7,417.9 L51.1,416.9 L51.5,415.7 L52.0,414.8 L52.4,414.1 L53.0,413.1 L53.7,412.1" fill="none" stroke="#bcbd22" stroke-width="1.7" opacity="0.85"/><circle cx="54" cy="412" r="4.5" fill="#bcbd22"/><rect x="28" y="108" width="13" height="13" fill="#bcbd22"/><text x="46" y="119" font-size="12">9 m/s</text><path d="M437.8,514.2 L437.8,514.2 L437.8,514.2 L437.8,514.2 L437.8,514.2 L437.8,514.2 L437.8,514.2 L437.8,514.2 L437.8,514.2 L437.8,514.2 L437.8,514.2 L437.8,514.2 L437.8,514.2 L437.8,514.2 L437.8,514.2 L437.8,514.2 L437.8,514.2 L437.8,514.2 L437.8,514.2 L437.8,514.2 L437.8,514.2 L437.8,514.2 L437.8,514.2 L437.8,514.2 L437.8,514.2 L437.8,514.2 L437.8,514.2 L437.8,514.2 L437.8,514.2 L437.8,514.2 L437.8,514.2 L437.8,514.2 L437.8,514.2 L437.8,514.2 L437.8,514.2 L437.8,514.2 L437.8,514.2 L437.8,514.2 L437.8,514.2 L437.8,514.2 L437.8,514.2 L437.8,514.2 L437.8,514.2 L437.8,514.2 L437.8,514.2 L437.8,514.2 L437.8,514.2 L437.8,514.2 L437.8,514.2 L437.8,514.2 L437.8,514.2 L437.8,514.2 L437.8,514.2 L437.8,514.2 L437.8,514.2 L437.8,514.2 L437.8,514.2 L437.8,514.2 L438.0,513.7 L438.2,513.5 L438.6,513.0 L439.1,512.8 L439.5,512.3 L440.2,512.1 L440.8,511.8 L441.5,511.8 L442.1,511.6 L443.0,511.6 L443.8,511.6 L444.7,511.6 L445.8,511.8 L446.9,511.8 L447.7,512.1 L448.8,512.3 L449.9,512.5 L451.2,512.8 L452.3,513.0 L453.4,513.3 L454.5,513.5 L455.8,513.7 L456.8,514.2 L458.1,514.5 L459.4,514.9 L460.5,515.2 L461.8,515.7 L463.1,515.9 L464.2,516.4 L465.5,516.6 L466.8,517.1 L467.9,517.3 L469.2,517.8 L470.5,518.3 L471.6,518.5 L472.9,519.0 L474.2,519.3 L475.3,519.7 L476.6,520.0 L477.9,520.5 L479.0,520.7 L480.3,521.2 L481.6,521.4 L482.6,521.7 L483.9,522.1 L485.0,522.4 L486.3,522.9 L487.4,523.1 L488.7,523.3 L489.8,523.8 L490.9,524.1 L492.2,524.3 L493.3,524.5 L494.3,524.8 L495.6,525.0 L496.7,525.3 L497.8,525.5 L498.9,525.7 L500.0,526.0 L501.1,526.2 L502.1,526.2 L503.0,526.5 L504.1,526.7 L505.2,526.7 L506.1,526.9 L507.1,526.9 L508.2,527.2 L509.1,527.2 L510.0,527.2 L511.0,527.2 L511.9,527.4 L512.8,527.4 L513.6,527.4 L514.5,527.4 L515.4,527.2 L516.2,527.2 L516.9,527.2 L517.8,527.2 L518.4,526.9 L519.3,526.9 L519.9,526.7 L520.6,526.5 L521.4,526.5 L522.1,526.2 L522.7,526.0 L523.2,525.7 L523.8,525.7 L524.5,525.5 L525.1,525.3 L525.6,525.0 L526.2,524.5 L526.6,524.3 L527.3,524.1 L527.7,523.8 L528.2,523.6 L528.6,523.1 L529.0,522.9 L529.5,522.4 L529.9,522.1 L530.3,521.9 L530.8,521.4 L531.2,521.2 L531.6,520.7 L532.1,520.5 L532.5,520.0 L532.7,519.5 L533.1,519.3 L533.6,518.8 L533.8,518.5 L534.2,518.1 L534.7,517.6 L534.9,517.3 L535.1,516.9 L535.5,516.4 L535.7,515.9 L536.2,515.7 L536.4,515.2 L536.6,514.7 L536.8,514.2 L537.3,513.7 L537.5,513.3 L537.7,512.8 L537.9,512.5 L538.1,512.1 L538.3,511.6 L538.6,511.1 L538.8,510.6 L539.0,510.1 L539.2,509.7 L539.4,509.2 L539.6,508.7 L539.9,508.2 L540.1,507.7 L540.1,507.2 L540.3,506.8 L540.5,506.0 L540.7,505.6 L540.9,505.1 L540.9,504.6 L541.2,504.1 L541.4,503.6 L541.6,503.2 L541.6,502.7 L541.8,502.2 L542.0,501.7 L542.2,501.2 L542.5,500.8 L542.5,500.3 L542.7,499.8 L542.9,499.1 L543.1,498.6 L543.3,498.1 L543.6,497.6 L543.6,497.2 L543.8,496.7 L544.0,496.2 L544.2,495.7 L544.4,495.2 L544.6,494.8 L544.9,494.3 L545.1,493.8 L545.3,493.3 L545.5,492.8 L545.7,492.4 L545.9,491.9 L546.2,491.4 L546.2,490.9 L546.4,490.4 L546.6,490.0 L546.8,489.5 L547.0,489.0 L547.5,488.5 L547.7,488.0 L547.9,487.8 L548.1,487.3 L548.3,486.8 L548.5,486.4 L548.8,485.9 L549.0,485.4 L549.2,484.9 L549.6,484.4 L549.8,484.0 L550.1,483.7 L550.3,483.2 L550.5,482.8 L550.7,482.3 L551.1,481.8 L551.4,481.3 L551.6,480.8 L551.8,480.3 L552.0,479.9 L552.2,479.6 L552.7,479.1 L552.9,478.7 L553.1,478.2 L553.3,477.7 L553.5,477.2 L554.0,476.7 L554.2,476.3 L554.4,476.0 L554.6,475.5 L555.0,475.1 L555.3,474.6 L555.5,474.1 L555.7,473.9 L556.1,473.4 L556.3,472.9 L556.6,472.4 L556.8,471.9 L557.2,471.5 L557.4,471.2 L557.6,470.7 L558.1,470.3 L558.3,469.8 L558.5,469.3 L558.9,469.1 L559.2,468.6 L559.4,468.3 L559.6,467.9 L559.8,467.6 L560.0,467.1 L560.5,466.9 L560.7,466.4 L560.9,466.2 L561.1,465.7 L561.3,465.5 L561.5,465.0 L561.8,464.7 L562.0,464.3 L562.0,463.8 L562.2,463.3 L562.2,462.8 L562.2,462.3 L562.0,461.9 L561.8,461.4 L561.5,460.7 L561.3,460.2 L560.9,459.5 L560.7,458.7 L560.0,458.3 L559.6,457.5 L558.9,456.8 L558.3,456.1 L557.4,455.4 L556.6,454.7 L555.7,453.9 L554.8,453.0 L553.7,452.2 L552.7,451.5 L551.4,450.8 L550.1,450.1 L548.8,449.1 L547.5,448.4 L545.9,447.7 L544.4,447.0 L542.7,446.2 L541.2,445.3 L539.4,444.6 L537.7,443.8 L535.7,443.1 L533.8,442.4 L531.8,441.7 L529.7,441.0 L527.7,440.5 L525.6,439.8 L523.2,439.0 L521.0,438.6 L518.6,437.8 L516.0,437.4 L513.6,436.9 L511.0,436.4 L508.4,435.9 L505.8,435.4 L503.0,435.0 L500.4,434.7 L497.6,434.2 L494.6,434.0 L491.7,433.5 L488.7,433.3 L485.7,433.0 L482.6,432.8 L479.6,432.8 L476.4,432.6 L473.1,432.6 L469.9,432.6 L466.6,432.6 L463.4,432.6 L459.9,432.6 L456.4,432.6 L452.9,432.8 L449.5,433.0 L446.0,433.3 L442.3,433.5 L438.6,433.8 L435.2,434.0 L431.5,434.5 L427.8,435.0 L424.1,435.2 L420.2,435.7 L416.5,436.2 L412.8,436.9 L408.9,437.4 L405.0,437.8 L401.4,438.6 L397.5,439.0 L393.8,439.8 L389.9,440.2 L386.2,440.7 L382.3,441.2 L378.6,441.7 L374.9,442.2 L371.2,442.6 L367.5,442.9 L364.1,443.1 L360.4,443.4 L356.9,443.6 L353.5,443.8" fill="none" stroke="#ff7f0e" stroke-width="1.7" opacity="0.85"/><circle cx="353" cy="444" r="4.5" fill="#ff7f0e"/><rect x="28" y="128" width="13" height="13" fill="#ff7f0e"/><text x="46" y="139" font-size="12">12 m/s</text><text x="28" y="832" font-size="11" fill="#888">ground track — m from pad (N up)</text></svg>