<svg xmlns="http://www.w3.org/2000/svg" width="1140" height="600" font-family="sans-serif" font-size="13"><rect width="1140" height="600" fill="white"/><text x="20" y="26" font-size="15" fill="#333">TMS-7 F15 — sensor noise 50%</text><rect x="20" y="40" width="540" height="540" fill="#fbfbfb" stroke="#ddd"/><rect x="50" y="245" width="268" height="58" fill="#cde" stroke="#369" opacity="0.7"/><text x="50" y="240" fill="#369" font-size="12">landing zone</text><circle cx="219" cy="335" r="5" fill="black"/><text x="227" y="339" font-size="12">pad</text><path d="M219.4,335.3 L219.4,335.3 L219.4,335.3 L219.4,335.3 L219.4,335.3 L219.4,335.3 L219.4,335.3 L219.4,335.3 L219.4,335.3 L219.4,335.3 L219.4,335.3 L219.4,335.3 L219.4,335.3 L219.4,335.3 L219.4,335.3 L219.4,335.3 L219.4,335.3 L219.4,335.3 L219.4,335.3 L219.4,335.3 L219.4,335.3 L219.4,335.3 L219.4,335.3 L219.4,335.3 L219.4,335.3 L219.4,335.3 L219.4,335.3 L219.4,335.3 L219.4,335.3 L219.4,335.3 L219.4,335.3 L219.4,335.3 L219.4,335.3 L219.4,335.3 L219.4,335.3 L219.4,335.3 L219.4,335.3 L219.4,335.3 L219.4,335.3 L219.4,335.3 L219.4,335.3 L219.4,335.3 L219.4,335.3 L219.4,335.3 L219.4,335.3 L219.4,335.3 L219.4,335.3 L219.4,335.3 L219.4,335.3 L219.4,335.3 L219.4,335.3 L219.4,335.3 L219.4,335.3 L219.4,335.3 L219.4,335.3 L219.4,335.3 L219.4,335.3 L219.4,335.3 L219.4,335.3 L219.4,335.3 L219.9,334.2 L221.2,332.2 L222.4,330.2 L223.7,328.2 L225.0,326.1 L226.3,324.0 L227.7,322.1 L229.0,320.2 L230.4,318.1 L231.9,316.2 L233.3,314.3 L234.9,312.4 L236.3,310.6 L237.9,308.7 L239.5,307.0 L241.1,305.1 L242.7,303.3 L244.4,301.6 L246.0,300.0 L247.7,298.2 L249.3,296.4 L251.0,294.5 L252.6,292.8 L254.0,291.0 L255.6,289.1 L257.1,287.2 L258.5,285.3 L259.9,283.4 L261.2,281.3 L262.7,279.2 L264.0,277.3 L265.1,275.2 L266.4,273.2 L267.6,271.1 L268.6,268.9 L269.7,266.8 L270.7,264.6 L271.7,262.3 L272.6,260.1 L273.6,257.9 L274.5,255.6 L275.2,253.4 L275.9,251.2 L276.6,248.8 L277.3,246.5 L277.9,244.2 L278.5,241.8 L279.1,239.5 L279.8,237.1 L280.4,234.9 L281.1,232.5 L281.8,230.3 L282.7,228.1 L283.5,225.8 L284.4,223.6 L285.3,221.4 L286.3,219.1 L287.3,216.9 L288.4,214.8 L289.6,212.6 L290.7,210.5 L291.9,208.4 L293.2,206.4 L294.5,204.3 L295.8,202.4 L297.1,200.3 L298.5,198.4 L299.9,196.5 L301.5,194.7 L303.1,192.8 L304.7,191.1 L306.3,189.1 L307.8,187.4 L309.6,185.8 L311.3,184.0 L313.0,182.5 L314.9,180.9 L316.6,179.3 L318.5,177.7 L320.5,176.2 L322.4,174.8 L324.4,173.4 L326.3,172.1 L328.3,170.8 L330.3,169.5 L332.4,168.3 L334.5,167.0 L336.6,165.9 L338.8,164.8 L340.9,163.6 L343.1,162.7 L345.3,161.7 L347.6,160.8 L349.7,159.8 L352.0,159.0 L354.2,158.2 L356.5,157.4 L358.8,156.6 L361.1,156.0 L363.4,155.3 L365.7,154.7 L368.1,154.1 L370.4,153.6 L372.7,153.1 L375.2,152.6 L377.5,152.3 L379.9,152.0 L382.4,151.7 L384.7,151.4 L387.1,151.2 L389.6,151.0 L391.9,151.0 L394.3,150.9 L396.8,150.9 L399.1,150.9 L401.5,151.0 L404.0,151.2 L406.4,151.4 L408.7,151.5 L411.2,151.8 L413.5,152.2 L415.9,152.5 L418.2,153.0 L420.6,153.4 L422.9,153.9 L425.3,154.4 L427.7,155.0 L430.0,155.5 L432.3,156.3 L434.6,156.9 L436.9,157.7 L439.2,158.5 L441.4,159.3 L443.7,160.1 L445.8,161.1 L448.1,162.0 L450.3,163.0 L452.4,164.1 L454.6,165.2 L456.8,166.4 L458.8,167.5 L460.9,168.6 L462.9,169.9 L465.1,171.1 L467.1,172.4 L469.0,173.8 L471.0,175.1 L473.0,176.6 L474.9,178.0 L476.8,179.6 L478.6,181.0 L480.5,182.6 L482.2,184.2 L484.1,185.8 L485.8,187.4 L487.6,189.1 L489.3,190.7 L491.0,192.5 L492.6,194.3 L494.2,196.0 L495.9,197.9 L497.3,199.7 L498.9,201.6 L500.4,203.5 L501.8,205.4 L503.2,207.3 L504.7,209.2 L506.1,211.2 L507.4,213.2 L508.7,215.3 L509.9,217.4 L511.2,219.4 L512.3,221.5 L513.5,223.6 L514.6,225.7 L515.6,227.9 L516.8,230.1 L517.6,232.2 L518.6,234.4 L519.5,236.7 L520.4,238.9 L521.2,241.1 L522.1,243.5 L522.8,245.7 L523.5,248.0 L524.2,250.4 L524.8,252.6 L525.4,255.0 L526.0,257.4 L526.5,259.6 L527.1,262.0 L527.6,264.4 L528.0,266.8 L528.3,269.2 L528.7,271.6 L529.0,274.0 L529.3,276.4 L529.4,278.8 L529.6,281.1 L529.7,283.5 L529.9,285.9 L530.0,288.3 L530.0,290.7 L529.9,293.1 L529.9,295.5 L529.7,297.9 L529.6,300.3 L529.4,302.7 L529.1,305.1 L528.8,307.4 L528.6,309.8 L528.1,312.2 L527.7,314.6 L527.3,317.0 L527.0,318.9 L526.5,321.0 L526.1,322.9 L525.7,324.8 L525.1,326.7 L524.7,328.7 L524.1,330.7 L523.5,332.6 L522.9,334.6 L522.4,336.5 L521.7,338.4 L521.1,340.1 L520.4,342.0 L519.6,344.0 L518.9,345.9 L518.1,347.6 L517.3,349.5 L516.5,351.3 L515.8,353.2 L514.9,355.0 L514.0,356.9 L513.2,358.6 L512.2,360.4 L511.3,362.1 L510.4,363.9 L509.4,365.8 L508.4,367.6 L507.4,369.1 L506.4,370.9 L505.4,372.7 L504.4,374.4 L503.4,376.2 L502.2,377.8 L501.2,379.5 L500.1,381.1 L498.9,382.9 L497.8,384.5 L496.6,386.0 L495.5,387.6 L494.3,389.4 L493.0,391.0 L491.9,392.4 L490.6,394.0 L489.3,395.6 L488.0,397.2 L486.7,398.6 L485.4,400.2 L484.1,401.7 L482.8,403.3 L481.5,404.7 L480.1,406.1 L478.8,407.7 L477.3,409.2 L475.9,410.6 L474.6,412.0 L473.2,413.5 L471.7,414.7 L470.3,416.2 L468.7,417.6 L467.3,418.9 L465.8,420.3 L464.2,421.6 L462.8,422.9 L461.2,424.2 L459.6,425.4 L458.2,426.7 L456.6,428.0 L455.0,429.3 L453.5,430.4 L451.7,431.6 L450.1,432.8 L448.6,434.0 L446.8,435.2 L445.3,436.3 L443.5,437.4 L441.9,438.5 L440.2,439.5 L438.5,440.6 L436.8,441.7 L435.0,442.6 L433.3,443.8 L431.6,444.7 L429.9,445.7 L428.1,446.6 L426.4,447.8 L424.7,448.7 L422.8,449.7 L421.1,450.5 L419.4,451.4 L417.5,452.4 L415.8,453.2 L413.9,454.1 L412.0,454.9 L410.3,455.7 L408.4,456.7 L406.5,457.5 L404.8,458.3 L402.9,459.1 L401.1,459.9 L399.2,460.5 L397.3,461.3 L395.5,461.9 L393.6,462.7 L391.7,463.4 L389.9,464.0 L388.0,464.8 L386.0,465.4 L384.1,466.1 L382.2,466.7 L380.4,467.4 L378.5,468.0 L376.5,468.6 L374.6,469.1" fill="none" stroke="#1f77b4" stroke-width="1.7" opacity="0.85"/><circle cx="375" cy="469" r="4.5" fill="#1f77b4"/><text x="28" y="572" font-size="11" fill="#888">ground track — m from pad (N up)</text><rect x="580" y="40" width="540" height="540" fill="#fbfbfb" stroke="#ddd"/><text x="586" y="54" fill="#1f77b4" font-size="11">alt 424</text><text x="586" y="558" fill="#1f77b4" font-size="11">1</text><path d="M616.0,544.0 L616.2,543.7 L616.4,543.0 L616.6,542.9 L616.9,542.9 L617.1,542.2 L617.3,543.3 L617.5,543.1 L617.7,542.8 L617.9,541.3 L618.2,543.6 L618.4,542.5 L618.6,541.8 L618.8,543.0 L619.0,541.0 L619.2,542.3 L619.5,543.3 L619.7,542.2 L619.9,541.7 L620.1,542.1 L620.3,539.2 L620.5,543.3 L620.8,541.1 L621.0,543.1 L621.2,541.7 L621.4,536.8 L621.6,538.6 L621.8,539.0 L622.0,536.7 L622.3,537.2 L622.5,534.9 L622.7,541.7 L622.9,536.6 L623.1,538.3 L623.3,536.8 L623.6,531.6 L623.8,531.3 L624.0,531.1 L624.2,531.2 L624.4,533.0 L624.6,531.8 L624.9,530.6 L625.1,534.9 L625.3,532.5 L625.5,529.8 L625.7,527.4 L625.9,530.6 L626.2,525.5 L626.4,533.3 L626.6,523.1 L626.8,529.4 L627.0,531.5 L627.2,529.3 L627.4,532.6 L627.7,520.6 L627.9,536.3 L628.1,533.3 L628.3,527.6 L628.5,520.6 L628.7,525.3 L629.0,516.1 L629.2,520.7 L629.4,532.1 L629.6,521.5 L629.8,513.3 L630.0,522.5 L630.3,510.3 L630.5,526.7 L630.7,529.6 L630.9,519.0 L631.1,522.5 L631.3,506.6 L631.5,510.7 L631.8,512.7 L632.0,516.7 L632.2,516.0 L632.4,510.0 L632.6,520.3 L632.8,507.4 L633.1,505.1 L633.3,495.0 L633.5,503.7 L633.7,513.9 L633.9,498.5 L634.1,497.0 L634.4,525.4 L634.6,515.3 L634.8,487.4 L635.0,482.7 L635.2,511.7 L635.4,513.2 L635.7,501.1 L635.9,501.6 L636.1,475.1 L636.3,496.9 L636.5,489.7 L636.7,478.8 L636.9,503.9 L637.2,488.2 L637.4,501.6 L637.6,479.4 L637.8,504.3 L638.0,497.9 L638.2,485.0 L638.5,463.0 L638.7,515.3 L638.9,511.5 L639.1,464.6 L639.3,457.7 L639.5,473.7 L639.8,498.5 L640.0,508.7 L640.2,477.5 L640.4,474.9 L640.6,505.0 L640.8,470.0 L641.1,501.0 L641.3,448.1 L641.5,497.2 L641.7,456.7 L641.9,472.2 L642.1,461.6 L642.3,465.5 L642.6,443.6 L642.8,423.9 L643.0,484.6 L643.2,486.2 L643.4,471.9 L643.6,457.2 L643.9,457.4 L644.1,470.9 L644.3,482.9 L644.5,442.9 L644.7,471.6 L644.9,409.5 L645.2,433.8 L645.4,491.9 L645.6,406.3 L645.8,439.4 L646.0,412.1 L646.2,453.5 L646.5,393.8 L646.7,401.9 L646.9,463.3 L647.1,463.2 L647.3,396.5 L647.5,430.2 L647.7,487.9 L648.0,383.5 L648.2,377.1 L648.4,384.7 L648.6,393.7 L648.8,478.2 L649.0,444.3 L649.3,455.7 L649.5,406.2 L649.7,412.6 L649.9,405.6 L650.1,402.2 L650.3,396.7 L650.6,374.3 L650.8,385.3 L651.0,410.8 L651.2,417.0 L651.4,448.3 L651.6,398.4 L651.9,439.3 L652.1,467.9 L652.3,438.3 L652.5,447.2 L652.7,442.0 L652.9,348.2 L653.1,340.0 L653.4,390.8 L653.6,365.7 L653.8,407.1 L654.0,335.0 L654.2,392.8 L654.4,401.5 L654.7,414.4 L654.9,330.2 L655.1,382.3 L655.3,379.9 L655.5,371.2 L655.7,397.4 L656.0,418.5 L656.2,356.1 L656.4,340.8 L656.6,448.1 L656.8,436.2 L657.0,409.6 L657.2,344.1 L657.5,283.8 L657.7,399.9 L657.9,445.8 L658.1,397.5 L658.3,397.4 L658.5,316.0 L658.8,422.2 L659.0,299.4 L659.2,343.2 L659.4,342.2 L659.6,320.1 L659.8,261.7 L660.1,269.4 L660.3,278.9 L660.5,325.8 L660.7,345.6 L660.9,413.0 L661.1,392.9 L661.4,384.3 L661.6,256.9 L661.8,417.0 L662.0,251.2 L662.2,410.6 L662.4,283.7 L662.6,247.5 L662.9,230.1 L663.1,362.6 L663.3,425.4 L663.5,371.2 L663.7,378.2 L663.9,326.9 L664.2,381.5 L664.4,322.7 L664.6,419.3 L664.8,280.4 L665.0,303.0 L665.2,204.7 L665.5,253.3 L665.7,349.7 L665.9,354.4 L666.1,307.4 L666.3,297.5 L666.5,310.7 L666.8,203.8 L667.0,369.6 L667.2,387.5 L667.4,360.3 L667.6,218.5 L667.8,412.5 L668.0,218.5 L668.3,369.8 L668.5,222.8 L668.7,390.1 L668.9,322.7 L669.1,369.6 L669.3,260.5 L669.6,256.1 L669.8,375.3 L670.0,382.7 L670.2,378.4 L670.4,307.4 L670.6,318.2 L670.9,189.9 L671.1,214.9 L671.3,207.4 L671.5,204.2 L671.7,282.0 L671.9,379.9 L672.2,396.3 L672.4,155.2 L672.6,404.0 L672.8,377.2 L673.0,327.9 L673.2,356.1 L673.4,264.6 L673.7,194.6 L673.9,163.9 L674.1,269.1 L674.3,223.2 L674.5,398.5 L674.7,253.9 L675.0,298.7 L675.2,307.4 L675.4,332.8 L675.6,286.6 L675.8,155.7 L676.0,352.6 L676.3,389.6 L676.5,170.5 L676.7,351.0 L676.9,279.2 L677.1,157.4 L677.3,177.4 L677.6,121.6 L677.8,327.8 L678.0,282.2 L678.2,256.7 L678.4,343.5 L678.6,132.7 L678.8,354.8 L679.1,234.7 L679.3,242.1 L679.5,224.3 L679.7,335.8 L679.9,256.6 L680.1,156.5 L680.4,263.7 L680.6,313.2 L680.8,332.7 L681.0,260.7 L681.2,220.2 L681.4,139.7 L681.7,362.4 L681.9,206.9 L682.1,342.9 L682.3,138.3 L682.5,196.8 L682.7,207.4 L682.9,338.8 L683.2,345.6 L683.4,364.4 L683.6,314.1 L683.8,280.7 L684.0,135.8 L684.2,237.1 L684.5,332.0 L684.7,201.8 L684.9,358.8 L685.1,76.8 L685.3,102.8 L685.5,385.2 L685.8,191.5 L686.0,271.6 L686.2,346.5 L686.4,182.4 L686.6,206.6 L686.8,326.8 L687.1,251.4 L687.3,79.2 L687.5,189.0 L687.7,153.9 L687.9,242.3 L688.1,141.0 L688.3,170.9 L688.6,379.9 L688.8,371.6 L689.0,114.3 L689.2,383.7 L689.4,218.2 L689.6,151.3 L689.9,283.2 L690.1,192.2 L690.3,261.0 L690.5,272.8 L690.7,126.3 L690.9,332.7 L691.2,204.0 L691.4,81.1 L691.6,79.8 L691.8,284.8 L692.0,76.0 L692.2,365.0 L692.5,221.6 L692.7,357.5 L692.9,331.5 L693.1,281.5 L693.3,152.0 L693.5,165.6 L693.7,255.0 L694.0,300.3 L694.2,366.9 L694.4,368.9 L694.6,197.3 L694.8,339.2 L695.0,280.5 L695.3,381.4 L695.5,221.8 L695.7,258.1 L695.9,314.8 L696.1,348.0 L696.3,143.8 L696.6,301.9 L696.8,255.9 L697.0,250.2 L697.2,96.1 L697.4,373.4 L697.6,168.5 L697.9,149.6 L698.1,152.5 L698.3,106.0 L698.5,142.2 L698.7,367.6 L698.9,358.6 L699.1,309.2 L699.4,270.6 L699.6,257.3 L699.8,228.6 L700.0,345.9 L700.2,145.3 L700.4,204.5 L700.7,309.9 L700.9,338.4 L701.1,100.1 L701.3,284.2 L701.5,246.6 L701.7,267.2 L702.0,212.1 L702.2,142.1 L702.4,352.8 L702.6,242.3 L702.8,178.4 L703.0,220.3 L703.3,133.0 L703.5,140.4 L703.7,308.5 L703.9,254.9 L704.1,349.4 L704.3,278.7 L704.5,144.8 L704.8,202.5 L705.0,98.2 L705.2,230.9 L705.4,348.0 L705.6,251.5 L705.8,297.8 L706.1,221.9 L706.3,356.5 L706.5,353.3 L706.7,103.8 L706.9,354.1 L707.1,270.1 L707.4,351.0 L707.6,331.9 L707.8,145.0 L708.0,145.9 L708.2,290.0 L708.4,103.9 L708.6,256.7 L708.9,258.5 L709.1,282.4 L709.3,168.1 L709.5,256.3 L709.7,215.2 L709.9,255.2 L710.2,161.1 L710.4,201.9 L710.6,328.2 L710.8,346.3 L711.0,146.2 L711.2,292.5 L711.5,290.0 L711.7,373.6 L711.9,89.1 L712.1,144.8 L712.3,139.2 L712.5,282.7 L712.8,192.6 L713.0,311.1 L713.2,222.5 L713.4,330.7 L713.6,198.8 L713.8,381.1 L714.0,235.4 L714.3,379.1 L714.5,261.6 L714.7,372.2 L714.9,319.9 L715.1,196.4 L715.3,282.3 L715.6,264.4 L715.8,316.9 L716.0,94.4 L716.2,373.6 L716.4,285.5 L716.6,88.6 L716.9,240.3 L717.1,125.7 L717.3,380.7 L717.5,241.6 L717.7,258.7 L717.9,85.0 L718.2,199.2 L718.4,234.9 L718.6,354.7 L718.8,362.8 L719.0,175.3 L719.2,315.9 L719.4,244.2 L719.7,182.0 L719.9,112.6 L720.1,339.4 L720.3,308.9 L720.5,371.4 L720.7,284.2 L721.0,344.2 L721.2,204.9 L721.4,260.0 L721.6,272.3 L721.8,123.8 L722.0,149.5 L722.3,109.6 L722.5,108.7 L722.7,184.7 L722.9,163.8 L723.1,357.5 L723.3,88.2 L723.6,137.9 L723.8,298.6 L724.0,281.1 L724.2,305.9 L724.4,185.1 L724.6,226.4 L724.8,176.3 L725.1,165.8 L725.3,207.0 L725.5,195.0 L725.7,160.1 L725.9,186.5 L726.1,114.6 L726.4,308.7 L726.6,377.0 L726.8,101.5 L727.0,391.6 L727.2,333.3 L727.4,99.9 L727.7,207.5 L727.9,148.1 L728.1,338.8 L728.3,272.2 L728.5,116.2 L728.7,90.6 L729.0,177.9 L729.2,302.8 L729.4,142.0 L729.6,111.8 L729.8,119.4 L730.0,283.4 L730.2,120.7 L730.5,279.1 L730.7,160.0 L730.9,345.9 L731.1,362.1 L731.3,164.4 L731.5,335.6 L731.8,339.2 L732.0,371.6 L732.2,191.1 L732.4,378.7 L732.6,349.2 L732.8,360.0 L733.1,356.2 L733.3,327.4 L733.5,360.3 L733.7,129.7 L733.9,119.6 L734.1,303.7 L734.3,186.1 L734.6,384.5 L734.8,233.5 L735.0,341.5 L735.2,318.1 L735.4,191.7 L735.6,339.7 L735.9,128.6 L736.1,221.1 L736.3,255.5 L736.5,236.0 L736.7,114.9 L736.9,220.4 L737.2,289.1 L737.4,319.7 L737.6,154.9 L737.8,143.2 L738.0,155.9 L738.2,106.5 L738.5,392.4 L738.7,259.4 L738.9,229.4 L739.1,182.4 L739.3,182.6 L739.5,146.8 L739.7,181.9 L740.0,107.3 L740.2,242.9 L740.4,378.8 L740.6,141.4 L740.8,190.8 L741.0,326.2 L741.3,333.3 L741.5,280.3 L741.7,262.2 L741.9,217.4 L742.1,325.3 L742.3,253.1 L742.6,249.4 L742.8,393.1 L743.0,372.6 L743.2,381.4 L743.4,379.4 L743.6,113.0 L743.9,204.6 L744.1,121.6 L744.3,313.4 L744.5,214.3 L744.7,225.8 L744.9,330.0 L745.1,224.2 L745.4,179.9 L745.6,266.0 L745.8,109.0 L746.0,377.2 L746.2,239.8 L746.4,334.0 L746.7,290.9 L746.9,154.9 L747.1,173.3 L747.3,188.6 L747.5,271.1 L747.7,123.5 L748.0,131.0 L748.2,347.9 L748.4,271.5 L748.6,193.3 L748.8,225.1 L749.0,358.8 L749.3,154.3 L749.5,258.2 L749.7,145.4 L749.9,246.1 L750.1,172.5 L750.3,372.4 L750.5,133.1 L750.8,117.4 L751.0,297.1 L751.2,343.8 L751.4,203.8 L751.6,377.4 L751.8,378.1 L752.1,146.8 L752.3,107.1 L752.5,245.5 L752.7,219.3 L752.9,267.6 L753.1,397.6 L753.4,303.4 L753.6,326.0 L753.8,203.7 L754.0,368.3 L754.2,275.8 L754.4,231.9 L754.7,305.3 L754.9,396.0 L755.1,368.0 L755.3,141.5 L755.5,161.5 L755.7,278.8 L755.9,148.4 L756.2,172.6 L756.4,267.5 L756.6,354.3 L756.8,170.3 L757.0,340.6 L757.2,347.1 L757.5,292.2 L757.7,334.5 L757.9,301.0 L758.1,147.0 L758.3,325.1 L758.5,169.1 L758.8,244.9 L759.0,282.2 L759.2,269.6 L759.4,301.3 L759.6,239.2 L759.8,241.4 L760.0,126.9 L760.3,221.2 L760.5,208.2 L760.7,140.9 L760.9,238.0 L761.1,178.4 L761.3,132.8 L761.6,266.5 L761.8,248.9 L762.0,124.9 L762.2,190.9 L762.4,305.8 L762.6,245.3 L762.9,155.8 L763.1,243.0 L763.3,239.5 L763.5,248.7 L763.7,321.3 L763.9,221.2 L764.2,174.3 L764.4,236.5 L764.6,201.1 L764.8,124.4 L765.0,368.4 L765.2,372.8 L765.4,178.7 L765.7,292.5 L765.9,334.7 L766.1,121.7 L766.3,291.2 L766.5,218.4 L766.7,331.1 L767.0,193.1 L767.2,193.3 L767.4,147.4 L767.6,249.2 L767.8,135.5 L768.0,163.5 L768.3,278.2 L768.5,253.0 L768.7,316.2 L768.9,212.2 L769.1,238.7 L769.3,335.8 L769.6,396.8 L769.8,225.8 L770.0,347.3 L770.2,123.7 L770.4,318.5 L770.6,160.9 L770.8,244.0 L771.1,338.0 L771.3,139.6 L771.5,366.2 L771.7,309.8 L771.9,168.5 L772.1,161.9 L772.4,246.9 L772.6,154.5 L772.8,350.8 L773.0,324.8 L773.2,314.3 L773.4,154.2 L773.7,300.0 L773.9,255.9 L774.1,139.5 L774.3,179.5 L774.5,233.6 L774.7,397.2 L775.0,136.4 L775.2,378.3 L775.4,320.0 L775.6,191.5 L775.8,348.2 L776.0,351.9 L776.2,301.7 L776.5,335.2 L776.7,387.4 L776.9,315.0 L777.1,201.2 L777.3,205.5 L777.5,296.8 L777.8,171.9 L778.0,379.5 L778.2,366.9 L778.4,388.8 L778.6,405.2 L778.8,136.6 L779.1,136.4 L779.3,298.8 L779.5,369.8 L779.7,349.9 L779.9,254.1 L780.1,354.6 L780.4,182.4 L780.6,181.0 L780.8,215.2 L781.0,208.2 L781.2,354.5 L781.4,370.1 L781.6,320.4 L781.9,184.7 L782.1,398.8 L782.3,389.7 L782.5,134.9 L782.7,251.5 L782.9,239.2 L783.2,390.5 L783.4,200.7 L783.6,168.4 L783.8,268.4 L784.0,306.3 L784.2,174.0 L784.5,386.2 L784.7,271.7 L784.9,200.5 L785.1,314.1 L785.3,147.2 L785.5,287.7 L785.7,234.8 L786.0,301.5 L786.2,345.6 L786.4,381.8 L786.6,161.9 L786.8,174.9 L787.0,346.7 L787.3,355.0 L787.5,245.8 L787.7,142.4 L787.9,168.6 L788.1,228.9 L788.3,317.6 L788.6,215.0 L788.8,160.8 L789.0,336.0 L789.2,184.7 L789.4,378.0 L789.6,274.9 L789.9,376.3 L790.1,206.2 L790.3,178.7 L790.5,210.6 L790.7,280.1 L790.9,287.6 L791.1,248.1 L791.4,363.3 L791.6,320.4 L791.8,197.3 L792.0,213.9 L792.2,374.9 L792.4,258.8 L792.7,309.0 L792.9,264.9 L793.1,383.1 L793.3,270.1 L793.5,183.0 L793.7,267.1 L794.0,273.4 L794.2,198.3 L794.4,386.4 L794.6,186.3 L794.8,187.0 L795.0,158.9 L795.3,151.3 L795.5,320.5 L795.7,366.6 L795.9,275.8 L796.1,375.5 L796.3,307.6 L796.5,231.7 L796.8,280.9 L797.0,223.3 L797.2,315.1 L797.4,227.5 L797.6,296.1 L797.8,186.0 L798.1,392.1 L798.3,270.7 L798.5,278.7 L798.7,241.1 L798.9,321.9 L799.1,251.7 L799.4,301.4 L799.6,402.9 L799.8,268.5 L800.0,190.1 L800.2,402.2 L800.4,225.6 L800.7,369.7 L800.9,335.9 L801.1,374.6 L801.3,213.1 L801.5,217.5 L801.7,299.7 L801.9,279.5 L802.2,236.2 L802.4,206.5 L802.6,255.9 L802.8,287.1 L803.0,412.0 L803.2,352.6 L803.5,314.4 L803.7,211.6 L803.9,213.7 L804.1,362.4 L804.3,382.9 L804.5,282.7 L804.8,335.3 L805.0,184.6 L805.2,306.5 L805.4,360.1 L805.6,244.0 L805.8,345.9 L806.1,273.2 L806.3,308.2 L806.5,278.3 L806.7,209.2 L806.9,348.1 L807.1,407.2 L807.3,190.2 L807.6,273.7 L807.8,416.1 L808.0,399.1 L808.2,402.8 L808.4,261.3 L808.6,205.7 L808.9,174.1 L809.1,403.4 L809.3,271.0 L809.5,233.8 L809.7,287.2 L809.9,356.0 L810.2,325.3 L810.4,268.5 L810.6,190.2 L810.8,342.3 L811.0,205.6 L811.2,232.7 L811.4,324.5 L811.7,319.2 L811.9,274.5 L812.1,339.8 L812.3,273.0 L812.5,392.5 L812.7,326.4 L813.0,199.6 L813.2,267.4 L813.4,373.9 L813.6,406.0 L813.8,394.3 L814.0,186.1 L814.3,203.6 L814.5,306.4 L814.7,347.1 L814.9,183.9 L815.1,308.4 L815.3,214.3 L815.6,356.3 L815.8,322.0 L816.0,250.0 L816.2,270.7 L816.4,389.6 L816.6,412.1 L816.8,206.5 L817.1,180.9 L817.3,421.2 L817.5,416.6 L817.7,409.3 L817.9,365.9 L818.1,215.5 L818.4,358.3 L818.6,193.3 L818.8,177.1 L819.0,351.7 L819.2,239.4 L819.4,191.9 L819.7,332.7 L819.9,351.0 L820.1,222.4 L820.3,352.8 L820.5,188.7 L820.7,236.9 L821.0,326.3 L821.2,302.5 L821.4,175.6 L821.6,396.0 L821.8,225.2 L822.0,207.6 L822.2,211.9 L822.5,370.7 L822.7,271.4 L822.9,295.0 L823.1,202.2 L823.3,313.0 L823.5,392.9 L823.8,207.7 L824.0,217.7 L824.2,250.9 L824.4,314.4 L824.6,319.5 L824.8,212.7 L825.1,262.6 L825.3,349.8 L825.5,186.9 L825.7,336.5 L825.9,185.5 L826.1,235.7 L826.4,218.6 L826.6,254.1 L826.8,282.6 L827.0,401.1 L827.2,307.5 L827.4,255.6 L827.6,227.9 L827.9,351.5 L828.1,286.5 L828.3,355.4 L828.5,316.1 L828.7,367.0 L828.9,227.9 L829.2,266.2 L829.4,346.4 L829.6,314.7 L829.8,186.5 L830.0,188.2 L830.2,237.4 L830.5,247.6 L830.7,350.4 L830.9,354.2 L831.1,413.4 L831.3,205.5 L831.5,422.5 L831.8,281.7 L832.0,386.7 L832.2,313.7 L832.4,420.2 L832.6,248.9 L832.8,275.2 L833.0,206.4 L833.3,224.1 L833.5,261.3 L833.7,426.9 L833.9,274.9 L834.1,387.7 L834.3,341.4 L834.6,197.9 L834.8,235.4 L835.0,360.4 L835.2,338.5 L835.4,297.6 L835.6,194.7 L835.9,373.7 L836.1,410.9 L836.3,377.9 L836.5,323.6 L836.7,326.0 L836.9,296.7 L837.1,423.1 L837.4,370.6 L837.6,371.5 L837.8,406.5 L838.0,249.1 L838.2,234.7 L838.4,317.3 L838.7,233.4 L838.9,422.3 L839.1,401.2 L839.3,387.6 L839.5,326.7 L839.7,400.9 L840.0,200.6 L840.2,365.6 L840.4,337.1 L840.6,295.5 L840.8,324.1 L841.0,319.5 L841.3,343.4 L841.5,392.1 L841.7,301.0 L841.9,284.6 L842.1,213.6 L842.3,339.8 L842.5,312.3 L842.8,404.7 L843.0,250.2 L843.2,224.1 L843.4,282.1 L843.6,319.8 L843.8,278.3 L844.1,269.6 L844.3,302.3 L844.5,310.1 L844.7,406.6 L844.9,204.5 L845.1,340.5 L845.4,319.7 L845.6,301.4 L845.8,222.1 L846.0,296.9 L846.2,244.6 L846.4,428.4 L846.7,263.2 L846.9,312.0 L847.1,329.2 L847.3,297.4 L847.5,358.1 L847.7,382.4 L847.9,309.2 L848.2,249.3 L848.4,300.2 L848.6,306.4 L848.8,302.8 L849.0,399.2 L849.2,384.7 L849.5,217.8 L849.7,364.0 L849.9,399.2 L850.1,360.2 L850.3,366.2 L850.5,354.2 L850.8,373.6 L851.0,420.2 L851.2,330.7 L851.4,297.4 L851.6,401.0 L851.8,385.5 L852.1,231.1 L852.3,409.0 L852.5,297.4 L852.7,236.2 L852.9,426.8 L853.1,219.7 L853.3,345.1 L853.6,418.5 L853.8,247.5 L854.0,390.4 L854.2,269.3 L854.4,232.9 L854.6,307.8 L854.9,275.1 L855.1,316.6 L855.3,386.1 L855.5,295.4 L855.7,388.6 L855.9,239.2 L856.2,423.3 L856.4,307.5 L856.6,229.1 L856.8,401.5 L857.0,286.9 L857.2,406.7 L857.5,307.3 L857.7,354.1 L857.9,341.4 L858.1,271.8 L858.3,282.1 L858.5,283.4 L858.7,243.5 L859.0,333.5 L859.2,263.2 L859.4,326.7 L859.6,368.2 L859.8,233.9 L860.0,320.5 L860.3,428.3 L860.5,266.7 L860.7,267.3 L860.9,343.7 L861.1,339.2 L861.3,276.0 L861.6,253.6 L861.8,383.8 L862.0,299.4 L862.2,329.6 L862.4,383.7 L862.6,395.7 L862.9,286.7 L863.1,379.6 L863.3,329.9 L863.5,277.3 L863.7,400.0 L863.9,376.2 L864.1,337.0 L864.4,299.6 L864.6,280.7 L864.8,371.4 L865.0,314.7 L865.2,248.9 L865.4,339.4 L865.7,296.8 L865.9,429.2 L866.1,285.5 L866.3,246.6 L866.5,431.9 L866.7,441.2 L867.0,417.8 L867.2,392.5 L867.4,430.2 L867.6,295.2 L867.8,367.1 L868.0,356.1 L868.2,420.1 L868.5,283.3 L868.7,278.9 L868.9,319.5 L869.1,297.0 L869.3,402.6 L869.5,378.3 L869.8,402.1 L870.0,330.3 L870.2,395.3 L870.4,363.4 L870.6,292.2 L870.8,388.6 L871.1,432.2 L871.3,276.8 L871.5,438.9 L871.7,371.7 L871.9,262.7 L872.1,353.6 L872.4,243.6 L872.6,334.0 L872.8,326.3 L873.0,429.3 L873.2,312.3 L873.4,401.0 L873.6,421.4 L873.9,439.6 L874.1,279.1 L874.3,242.8 L874.5,403.3 L874.7,252.4 L874.9,339.4 L875.2,320.7 L875.4,307.8 L875.6,411.8 L875.8,441.8 L876.0,408.2 L876.2,327.2 L876.5,408.1 L876.7,353.2 L876.9,294.0 L877.1,417.2 L877.3,250.7 L877.5,284.5 L877.8,257.6 L878.0,338.1 L878.2,293.2 L878.4,333.5 L878.6,429.3 L878.8,402.0 L879.0,419.1 L879.3,331.5 L879.5,381.5 L879.7,282.7 L879.9,284.8 L880.1,312.0 L880.3,398.5 L880.6,398.7 L880.8,421.7 L881.0,375.2 L881.2,268.4 L881.4,369.7 L881.6,432.1 L881.9,355.1 L882.1,309.9 L882.3,394.0 L882.5,406.3 L882.7,426.9 L882.9,385.7 L883.2,296.5 L883.4,265.8 L883.6,336.6 L883.8,410.9 L884.0,397.7 L884.2,317.0 L884.4,288.8 L884.7,285.9 L884.9,423.5 L885.1,441.8 L885.3,341.3 L885.5,421.2 L885.7,376.4 L886.0,387.9 L886.2,432.5 L886.4,296.5 L886.6,336.0 L886.8,408.4 L887.0,418.8 L887.3,387.4 L887.5,281.5 L887.7,382.0 L887.9,317.6 L888.1,445.4 L888.3,262.4 L888.6,376.0 L888.8,345.9 L889.0,393.2 L889.2,276.9 L889.4,343.3 L889.6,343.8 L889.8,376.0 L890.1,366.0 L890.3,351.2 L890.5,285.0 L890.7,286.2 L890.9,309.1 L891.1,376.1 L891.4,374.9 L891.6,351.1 L891.8,421.8 L892.0,386.8 L892.2,398.0 L892.4,304.6 L892.7,338.2 L892.9,294.8 L893.1,419.4 L893.3,309.1 L893.5,403.9 L893.7,424.7 L893.9,351.3 L894.2,396.5 L894.4,339.9 L894.6,293.4 L894.8,363.1 L895.0,447.7 L895.2,273.5 L895.5,435.6 L895.7,449.5 L895.9,433.6 L896.1,277.6 L896.3,386.3 L896.5,275.2 L896.8,358.2 L897.0,369.1 L897.2,416.8 L897.4,421.8 L897.6,296.8 L897.8,402.4 L898.1,405.6 L898.3,311.2 L898.5,398.4 L898.7,429.4 L898.9,380.7 L899.1,401.8 L899.3,440.4 L899.6,442.0 L899.8,412.4 L900.0,359.0 L900.2,310.6 L900.4,362.1 L900.6,368.0 L900.9,399.5 L901.1,409.2 L901.3,400.3 L901.5,338.1 L901.7,444.6 L901.9,454.4 L902.2,380.8 L902.4,418.9 L902.6,396.5 L902.8,421.2 L903.0,414.4 L903.2,422.3 L903.5,400.5 L903.7,333.9 L903.9,362.4 L904.1,450.5 L904.3,356.8 L904.5,319.6 L904.7,336.7 L905.0,446.1 L905.2,452.5 L905.4,330.1 L905.6,400.4 L905.8,294.2 L906.0,393.9 L906.3,321.5 L906.5,286.3 L906.7,390.7 L906.9,331.4 L907.1,289.0 L907.3,443.1 L907.6,288.1 L907.8,420.6 L908.0,431.4 L908.2,377.7 L908.4,423.9 L908.6,444.8 L908.9,325.1 L909.1,377.1 L909.3,435.8 L909.5,429.2 L909.7,321.5 L909.9,399.3 L910.1,359.4 L910.4,339.4 L910.6,454.9 L910.8,461.1 L911.0,435.5 L911.2,414.5 L911.4,409.5 L911.7,317.2 L911.9,435.9 L912.1,323.8 L912.3,306.7 L912.5,343.2 L912.7,317.5 L913.0,312.9 L913.2,321.6 L913.4,375.4 L913.6,339.9 L913.8,360.0 L914.0,390.7 L914.3,379.6 L914.5,412.0 L914.7,342.0 L914.9,363.7 L915.1,445.6 L915.3,437.8 L915.5,329.5 L915.8,405.6 L916.0,311.2 L916.2,300.1 L916.4,334.7 L916.6,425.4 L916.8,377.8 L917.1,339.3 L917.3,381.2 L917.5,365.6 L917.7,410.4 L917.9,311.6 L918.1,450.7 L918.4,430.7 L918.6,366.1 L918.8,315.2 L919.0,383.0 L919.2,310.9 L919.4,307.7 L919.6,418.0 L919.9,442.7 L920.1,386.9 L920.3,316.6 L920.5,408.1 L920.7,379.4 L920.9,456.8 L921.2,345.0 L921.4,327.9 L921.6,466.3 L921.8,355.7 L922.0,321.7 L922.2,380.4 L922.5,392.6 L922.7,388.8 L922.9,359.3 L923.1,446.4 L923.3,347.3 L923.5,354.7 L923.8,390.8 L924.0,390.7 L924.2,426.1 L924.4,435.3 L924.6,446.4 L924.8,457.8 L925.0,455.2 L925.3,378.9 L925.5,379.9 L925.7,386.1 L925.9,436.2 L926.1,319.2 L926.3,422.6 L926.6,397.7 L926.8,439.9 L927.0,426.1 L927.2,463.4 L927.4,397.3 L927.6,379.8 L927.9,331.6 L928.1,372.3 L928.3,358.7 L928.5,348.0 L928.7,435.5 L928.9,466.3 L929.2,434.3 L929.4,333.6 L929.6,442.1 L929.8,391.4 L930.0,431.0 L930.2,358.4 L930.4,404.6 L930.7,384.2 L930.9,420.9 L931.1,335.3 L931.3,353.7 L931.5,353.9 L931.7,373.2 L932.0,464.0 L932.2,336.8 L932.4,336.2 L932.6,442.3 L932.8,416.6 L933.0,403.7 L933.3,463.0 L933.5,328.4 L933.7,335.5 L933.9,459.0 L934.1,335.5 L934.3,329.3 L934.6,413.2 L934.8,391.6 L935.0,379.3 L935.2,382.0 L935.4,422.8 L935.6,472.7 L935.8,432.4 L936.1,356.8 L936.3,439.9 L936.5,329.9 L936.7,340.1 L936.9,394.5 L937.1,332.3 L937.4,339.1 L937.6,358.1 L937.8,339.2 L938.0,405.7 L938.2,422.7 L938.4,337.3 L938.7,468.5 L938.9,413.2 L939.1,367.4 L939.3,414.1 L939.5,413.9 L939.7,451.2 L940.0,358.4 L940.2,354.3 L940.4,471.8 L940.6,361.8 L940.8,466.8 L941.0,359.8 L941.2,343.7 L941.5,353.1 L941.7,444.4 L941.9,410.9 L942.1,469.1 L942.3,345.7 L942.5,366.0 L942.8,406.0 L943.0,436.0 L943.2,352.7 L943.4,460.3 L943.6,471.8 L943.8,403.9 L944.1,391.2 L944.3,405.9 L944.5,471.5 L944.7,401.2 L944.9,405.4 L945.1,417.6 L945.3,466.6 L945.6,477.0 L945.8,418.8 L946.0,405.4 L946.2,406.7 L946.4,369.1 L946.6,389.2 L946.9,379.3 L947.1,418.4 L947.3,388.9 L947.5,348.9 L947.7,353.1 L947.9,398.3 L948.2,477.8 L948.4,363.7 L948.6,368.0 L948.8,452.8 L949.0,411.5 L949.2,383.0 L949.5,363.0 L949.7,426.9 L949.9,463.5 L950.1,399.9 L950.3,396.9 L950.5,361.3 L950.7,352.5 L951.0,441.6 L951.2,400.8 L951.4,374.8 L951.6,385.8 L951.8,364.3 L952.0,407.9 L952.3,448.9 L952.5,467.4 L952.7,421.2 L952.9,467.2 L953.1,443.1 L953.3,430.5 L953.6,442.2 L953.8,434.8 L954.0,388.6 L954.2,442.4 L954.4,475.9 L954.6,461.4 L954.9,426.0 L955.1,434.8 L955.3,394.0 L955.5,461.1 L955.7,467.9 L955.9,422.9 L956.1,449.4 L956.4,474.6 L956.6,427.1 L956.8,425.7 L957.0,401.7 L957.2,442.4 L957.4,411.1 L957.7,416.8 L957.9,412.5 L958.1,405.9 L958.3,406.5 L958.5,423.3 L958.7,369.7 L959.0,463.4 L959.2,397.2 L959.4,362.4 L959.6,463.5 L959.8,408.3 L960.0,366.9 L960.3,416.5 L960.5,417.9 L960.7,480.1 L960.9,416.3 L961.1,392.2 L961.3,398.9 L961.5,419.2 L961.8,425.7 L962.0,367.6 L962.2,434.3 L962.4,400.7 L962.6,447.3 L962.8,425.7 L963.1,442.4 L963.3,459.4 L963.5,377.7 L963.7,451.2 L963.9,480.3 L964.1,471.9 L964.4,377.4 L964.6,405.4 L964.8,474.2 L965.0,375.3 L965.2,375.5 L965.4,477.0 L965.7,480.7 L965.9,401.9 L966.1,417.7 L966.3,405.8 L966.5,453.6 L966.7,441.5 L966.9,415.5 L967.2,456.7 L967.4,471.1 L967.6,375.7 L967.8,428.8 L968.0,439.9 L968.2,430.8 L968.5,435.4 L968.7,394.3 L968.9,456.6 L969.1,439.3 L969.3,473.5 L969.5,487.4 L969.8,384.3 L970.0,438.3 L970.2,425.2 L970.4,466.1 L970.6,381.6 L970.8,397.5 L971.0,450.4 L971.3,462.8 L971.5,406.9 L971.7,441.4 L971.9,415.4 L972.1,458.5 L972.3,441.4 L972.6,482.5 L972.8,454.1 L973.0,388.8 L973.2,437.8 L973.4,461.2 L973.6,424.2 L973.9,414.9 L974.1,477.3 L974.3,459.0 L974.5,465.5 L974.7,398.7 L974.9,443.5 L975.2,483.9 L975.4,421.9 L975.6,451.9 L975.8,388.7 L976.0,398.4 L976.2,424.4 L976.4,434.4 L976.7,416.1 L976.9,483.4 L977.1,482.0 L977.3,411.4 L977.5,398.4 L977.7,463.8 L978.0,431.9 L978.2,453.0 L978.4,456.3 L978.6,480.6 L978.8,465.0 L979.0,468.4 L979.3,461.5 L979.5,483.4 L979.7,410.9 L979.9,410.0 L980.1,408.7 L980.3,432.1 L980.6,424.3 L980.8,460.0 L981.0,476.4 L981.2,446.2 L981.4,442.4 L981.6,451.0 L981.8,442.1 L982.1,484.0 L982.3,494.9 L982.5,400.8 L982.7,403.9 L982.9,472.3 L983.1,487.8 L983.4,448.8 L983.6,403.7 L983.8,426.0 L984.0,411.9 L984.2,433.5 L984.4,412.7 L984.7,451.7 L984.9,454.4 L985.1,461.1 L985.3,408.1 L985.5,406.3 L985.7,459.9 L986.0,480.7 L986.2,416.7 L986.4,436.3 L986.6,415.9 L986.8,455.2 L987.0,440.4 L987.2,408.4 L987.5,481.9 L987.7,454.0 L987.9,424.5 L988.1,493.1 L988.3,448.2 L988.5,464.8 L988.8,493.9 L989.0,489.4 L989.2,497.7 L989.4,449.7 L989.6,445.5 L989.8,457.7 L990.1,411.2 L990.3,424.3 L990.5,431.1 L990.7,441.8 L990.9,425.4 L991.1,444.4 L991.4,492.6 L991.6,493.9 L991.8,451.8 L992.0,449.5 L992.2,451.5 L992.4,493.1 L992.6,432.1 L992.9,452.6 L993.1,468.7 L993.3,432.5 L993.5,437.0 L993.7,500.9 L993.9,427.8 L994.2,438.9 L994.4,483.3 L994.6,444.4 L994.8,488.8 L995.0,437.6 L995.2,461.8 L995.5,440.4 L995.7,452.8 L995.9,455.6 L996.1,450.0 L996.3,429.7 L996.5,447.5 L996.7,464.6 L997.0,434.3 L997.2,439.1 L997.4,489.2 L997.6,479.3 L997.8,474.1 L998.0,483.4 L998.3,449.2 L998.5,423.1 L998.7,461.8 L998.9,428.5 L999.1,438.2 L999.3,460.1 L999.6,458.5 L999.8,479.4 L1000.0,499.6 L1000.2,453.5 L1000.4,447.7 L1000.6,461.4 L1000.9,460.1 L1001.1,481.8 L1001.3,433.3 L1001.5,485.3 L1001.7,469.5 L1001.9,460.4 L1002.1,496.3 L1002.4,472.9 L1002.6,481.6 L1002.8,439.3 L1003.0,492.9 L1003.2,453.8 L1003.4,434.6 L1003.7,487.8 L1003.9,468.0 L1004.1,474.1 L1004.3,446.4 L1004.5,498.9 L1004.7,492.2 L1005.0,448.0 L1005.2,429.8 L1005.4,429.4 L1005.6,490.1 L1005.8,505.5 L1006.0,493.8 L1006.3,465.4 L1006.5,478.2 L1006.7,443.8 L1006.9,502.7 L1007.1,480.2 L1007.3,470.2 L1007.5,479.2 L1007.8,507.4 L1008.0,457.3 L1008.2,453.2 L1008.4,483.3 L1008.6,499.7 L1008.8,464.3 L1009.1,463.3 L1009.3,463.5 L1009.5,471.5 L1009.7,451.1 L1009.9,477.8 L1010.1,468.5 L1010.4,497.4 L1010.6,500.8 L1010.8,485.5 L1011.0,438.2 L1011.2,443.3 L1011.4,484.2 L1011.7,487.7 L1011.9,454.8 L1012.1,488.5 L1012.3,473.7 L1012.5,446.0 L1012.7,469.0 L1012.9,474.8 L1013.2,486.9 L1013.4,452.8 L1013.6,496.7 L1013.8,494.5 L1014.0,494.2 L1014.2,483.1 L1014.5,494.7 L1014.7,460.6 L1014.9,455.0 L1015.1,449.0 L1015.3,482.8 L1015.5,478.6 L1015.8,460.6 L1016.0,466.1 L1016.2,502.3 L1016.4,475.8 L1016.6,470.0 L1016.8,511.8 L1017.1,497.3 L1017.3,493.4 L1017.5,471.0 L1017.7,466.6 L1017.9,460.8 L1018.1,469.7 L1018.3,493.5 L1018.6,495.3 L1018.8,466.2 L1019.0,458.2 L1019.2,456.3 L1019.4,513.9 L1019.6,485.5 L1019.9,472.2 L1020.1,496.7 L1020.3,475.3 L1020.5,472.0 L1020.7,497.9 L1020.9,513.0 L1021.2,505.6 L1021.4,460.5 L1021.6,482.3 L1021.8,493.3 L1022.0,495.5 L1022.2,503.1 L1022.4,474.3 L1022.7,460.8 L1022.9,462.1 L1023.1,491.0 L1023.3,493.8 L1023.5,512.5 L1023.7,467.7 L1024.0,462.9 L1024.2,504.6 L1024.4,471.3 L1024.6,483.6 L1024.8,461.1 L1025.0,508.9 L1025.3,508.8 L1025.5,512.4 L1025.7,463.0 L1025.9,510.2 L1026.1,472.5 L1026.3,478.0 L1026.6,488.9 L1026.8,481.1 L1027.0,494.5 L1027.2,462.5 L1027.4,492.0 L1027.6,474.8 L1027.8,507.3 L1028.1,484.9 L1028.3,465.4 L1028.5,495.5 L1028.7,509.9 L1028.9,512.2 L1029.1,486.2 L1029.4,515.6 L1029.6,469.1 L1029.8,483.6 L1030.0,484.8 L1030.2,505.5 L1030.4,469.0 L1030.7,500.5 L1030.9,515.5 L1031.1,513.8 L1031.3,508.7 L1031.5,515.1 L1031.7,510.0 L1032.0,471.3 L1032.2,496.5 L1032.4,479.5 L1032.6,502.0 L1032.8,495.7 L1033.0,518.9 L1033.2,517.6 L1033.5,477.2 L1033.7,516.5 L1033.9,508.6 L1034.1,488.3 L1034.3,504.9 L1034.5,499.9 L1034.8,485.0 L1035.0,485.6 L1035.2,490.5 L1035.4,475.3 L1035.6,475.2 L1035.8,495.5 L1036.1,473.9 L1036.3,520.9 L1036.5,513.3 L1036.7,476.9 L1036.9,480.9 L1037.1,483.8 L1037.4,519.1 L1037.6,480.3 L1037.8,519.4 L1038.0,479.2 L1038.2,491.0 L1038.4,512.9 L1038.6,513.7 L1038.9,515.8 L1039.1,523.2 L1039.3,487.7 L1039.5,489.4 L1039.7,495.6 L1039.9,521.8 L1040.2,480.4 L1040.4,517.8 L1040.6,497.4 L1040.8,516.2 L1041.0,487.6 L1041.2,489.4 L1041.5,501.5 L1041.7,515.4 L1041.9,494.6 L1042.1,505.3 L1042.3,497.9 L1042.5,490.5 L1042.8,489.7 L1043.0,514.4 L1043.2,518.0 L1043.4,490.9 L1043.6,487.7 L1043.8,516.0 L1044.0,515.0 L1044.3,501.5 L1044.5,497.1 L1044.7,521.4 L1044.9,525.6 L1045.1,500.5 L1045.3,487.6 L1045.6,498.4 L1045.8,521.2 L1046.0,509.0 L1046.2,520.4 L1046.4,499.4 L1046.6,492.7 L1046.9,498.6 L1047.1,508.6 L1047.3,527.2 L1047.5,522.8 L1047.7,507.1 L1047.9,511.4 L1048.1,518.3 L1048.4,511.0 L1048.6,521.5 L1048.8,498.9 L1049.0,505.1 L1049.2,512.9 L1049.4,517.8 L1049.7,503.0 L1049.9,519.2 L1050.1,522.5 L1050.3,514.3 L1050.5,517.7 L1050.7,518.2 L1051.0,516.2 L1051.2,502.7 L1051.4,498.0 L1051.6,516.4 L1051.8,501.8 L1052.0,510.0 L1052.3,527.0 L1052.5,521.5 L1052.7,529.0 L1052.9,521.7 L1053.1,498.5 L1053.3,516.9 L1053.5,522.2 L1053.8,519.7 L1054.0,502.5 L1054.2,530.7 L1054.4,504.3 L1054.6,504.0 L1054.8,511.8 L1055.1,514.2 L1055.3,526.4 L1055.5,524.1 L1055.7,531.1 L1055.9,517.3 L1056.1,510.0 L1056.4,514.0 L1056.6,523.0 L1056.8,531.6 L1057.0,529.6 L1057.2,527.5 L1057.4,527.8 L1057.7,522.3 L1057.9,516.7 L1058.1,514.5 L1058.3,509.1 L1058.5,521.4 L1058.7,523.5 L1058.9,507.1 L1059.2,508.4 L1059.4,517.5 L1059.6,515.3 L1059.8,524.9 L1060.0,526.5 L1060.2,529.2 L1060.5,532.4 L1060.7,524.1 L1060.9,525.0 L1061.1,514.6 L1061.3,525.5 L1061.5,527.3 L1061.8,531.2 L1062.0,517.6 L1062.2,514.7 L1062.4,531.2 L1062.6,524.0 L1062.8,526.0 L1063.1,515.0 L1063.3,526.3 L1063.5,521.3 L1063.7,516.5 L1063.9,523.5 L1064.1,521.4 L1064.3,516.8 L1064.6,529.0 L1064.8,525.6 L1065.0,530.5 L1065.2,532.4 L1065.4,532.8 L1065.6,531.1 L1065.9,526.7 L1066.1,533.1 L1066.3,530.6 L1066.5,527.3 L1066.7,524.7 L1066.9,528.7 L1067.2,530.5 L1067.4,521.0 L1067.6,518.5 L1067.8,525.6 L1068.0,525.8 L1068.2,535.1 L1068.5,523.7 L1068.7,529.3 L1068.9,532.2 L1069.1,524.6 L1069.3,527.7 L1069.5,525.2 L1069.7,525.5 L1070.0,534.9 L1070.2,533.6 L1070.4,523.1 L1070.6,536.7 L1070.8,534.2 L1071.0,525.9 L1071.3,533.8 L1071.5,525.9 L1071.7,536.0 L1071.9,528.5 L1072.1,532.6 L1072.3,533.0 L1072.6,537.9 L1072.8,534.3 L1073.0,535.5 L1073.2,526.7 L1073.4,531.8 L1073.6,533.5 L1073.8,533.8 L1074.1,531.2 L1074.3,530.2 L1074.5,531.8 L1074.7,531.7 L1074.9,531.4 L1075.1,529.5 L1075.4,540.6 L1075.6,530.5 L1075.8,536.4 L1076.0,540.1 L1076.2,538.5 L1076.4,540.2 L1076.7,535.4 L1076.9,536.2 L1077.1,539.3 L1077.3,533.2 L1077.5,541.6 L1077.7,536.0 L1078.0,540.6 L1078.2,539.1 L1078.4,537.7 L1078.6,538.6 L1078.8,538.5 L1079.0,536.2 L1079.2,536.8 L1079.5,539.5 L1079.7,537.3 L1079.9,536.1 L1080.1,539.6 L1080.3,541.3 L1080.5,542.5 L1080.8,540.5 L1081.0,542.8 L1081.2,543.1 L1081.4,542.4 L1081.6,538.8 L1081.8,539.6 L1082.1,542.3 L1082.3,542.7 L1082.5,539.4 L1082.7,543.3 L1082.9,541.4 L1083.1,541.6 L1083.4,543.7 L1083.6,542.9 L1083.8,541.1 L1084.0,541.6" fill="none" stroke="#1f77b4" stroke-width="1.4" opacity="0.85"/><text x="1040" y="54" fill="#ff7f0e" font-size="11">roll 20</text><text x="1090" y="558" fill="#ff7f0e" font-size="11">-18</text><path d="M616.0,323.8 L616.2,323.8 L616.4,320.1 L616.6,318.8 L616.9,320.1 L617.1,318.8 L617.3,318.8 L617.5,322.6 L617.7,325.1 L617.9,318.8 L618.2,322.6 L618.4,320.1 L618.6,325.1 L618.8,326.4 L619.0,327.6 L619.2,327.6 L619.5,316.3 L619.7,322.6 L619.9,317.5 L620.1,327.6 L620.3,327.6 L620.5,326.4 L620.8,317.5 L621.0,317.5 L621.2,316.3 L621.4,320.1 L621.6,320.1 L621.8,328.9 L622.0,323.8 L622.3,325.1 L622.5,322.6 L622.7,325.1 L622.9,322.6 L623.1,321.3 L623.3,317.5 L623.6,326.4 L623.8,322.6 L624.0,320.1 L624.2,320.1 L624.4,321.3 L624.6,318.8 L624.9,317.5 L625.1,325.1 L625.3,320.1 L625.5,322.6 L625.7,326.4 L625.9,317.5 L626.2,326.4 L626.4,320.1 L626.6,328.9 L626.8,326.4 L627.0,321.3 L627.2,328.9 L627.4,320.1 L627.7,326.4 L627.9,326.4 L628.1,316.3 L628.3,321.3 L628.5,322.6 L628.7,316.3 L629.0,317.5 L629.2,327.6 L629.4,318.8 L629.6,323.8 L629.8,325.1 L630.0,323.8 L630.3,321.3 L630.5,322.6 L630.7,317.5 L630.9,321.3 L631.1,317.5 L631.3,322.6 L631.5,320.1 L631.8,321.3 L632.0,323.8 L632.2,323.8 L632.4,320.1 L632.6,317.5 L632.8,320.1 L633.1,327.6 L633.3,317.5 L633.5,321.3 L633.7,317.5 L633.9,325.1 L634.1,325.1 L634.4,327.6 L634.6,323.8 L634.8,328.9 L635.0,320.1 L635.2,327.6 L635.4,322.6 L635.7,320.1 L635.9,321.3 L636.1,321.3 L636.3,318.8 L636.5,318.8 L636.7,326.4 L636.9,322.6 L637.2,323.8 L637.4,318.8 L637.6,316.3 L637.8,327.6 L638.0,322.6 L638.2,320.1 L638.5,320.1 L638.7,318.8 L638.9,317.5 L639.1,325.1 L639.3,317.5 L639.5,326.4 L639.8,326.4 L640.0,322.6 L640.2,318.8 L640.4,321.3 L640.6,320.1 L640.8,318.8 L641.1,327.6 L641.3,327.6 L641.5,328.9 L641.7,322.6 L641.9,317.5 L642.1,326.4 L642.3,322.6 L642.6,323.8 L642.8,322.6 L643.0,327.6 L643.2,325.1 L643.4,327.6 L643.6,320.1 L643.9,323.8 L644.1,321.3 L644.3,328.9 L644.5,317.5 L644.7,327.6 L644.9,318.8 L645.2,321.3 L645.4,326.4 L645.6,322.6 L645.8,320.1 L646.0,323.8 L646.2,326.4 L646.5,321.3 L646.7,321.3 L646.9,326.4 L647.1,321.3 L647.3,328.9 L647.5,323.8 L647.7,327.6 L648.0,323.8 L648.2,322.6 L648.4,316.3 L648.6,322.6 L648.8,318.8 L649.0,327.6 L649.3,318.8 L649.5,323.8 L649.7,326.4 L649.9,325.1 L650.1,321.3 L650.3,325.1 L650.6,316.3 L650.8,320.1 L651.0,326.4 L651.2,326.4 L651.4,321.3 L651.6,317.5 L651.9,320.1 L652.1,320.1 L652.3,326.4 L652.5,326.4 L652.7,327.6 L652.9,322.6 L653.1,323.8 L653.4,327.6 L653.6,326.4 L653.8,325.1 L654.0,318.8 L654.2,320.1 L654.4,322.6 L654.7,321.3 L654.9,318.8 L655.1,323.8 L655.3,322.6 L655.5,318.8 L655.7,326.4 L656.0,325.1 L656.2,325.1 L656.4,318.8 L656.6,327.6 L656.8,320.1 L657.0,321.3 L657.2,326.4 L657.5,320.1 L657.7,321.3 L657.9,318.8 L658.1,326.4 L658.3,320.1 L658.5,320.1 L658.8,322.6 L659.0,325.1 L659.2,323.8 L659.4,323.8 L659.6,328.9 L659.8,326.4 L660.1,325.1 L660.3,327.6 L660.5,327.6 L660.7,327.6 L660.9,327.6 L661.1,317.5 L661.4,326.4 L661.6,322.6 L661.8,316.3 L662.0,321.3 L662.2,328.9 L662.4,318.8 L662.6,327.6 L662.9,326.4 L663.1,322.6 L663.3,322.6 L663.5,323.8 L663.7,326.4 L663.9,322.6 L664.2,328.9 L664.4,321.3 L664.6,323.8 L664.8,327.6 L665.0,320.1 L665.2,322.6 L665.5,326.4 L665.7,317.5 L665.9,325.1 L666.1,320.1 L666.3,325.1 L666.5,323.8 L666.8,321.3 L667.0,326.4 L667.2,322.6 L667.4,321.3 L667.6,327.6 L667.8,317.5 L668.0,317.5 L668.3,321.3 L668.5,321.3 L668.7,322.6 L668.9,317.5 L669.1,317.5 L669.3,317.5 L669.6,327.6 L669.8,321.3 L670.0,317.5 L670.2,320.1 L670.4,320.1 L670.6,327.6 L670.9,323.8 L671.1,317.5 L671.3,326.4 L671.5,326.4 L671.7,318.8 L671.9,323.8 L672.2,320.1 L672.4,328.9 L672.6,318.8 L672.8,317.5 L673.0,317.5 L673.2,320.1 L673.4,322.6 L673.7,318.8 L673.9,317.5 L674.1,325.1 L674.3,327.6 L674.5,318.8 L674.7,322.6 L675.0,322.6 L675.2,318.8 L675.4,322.6 L675.6,320.1 L675.8,318.8 L676.0,317.5 L676.3,325.1 L676.5,322.6 L676.7,322.6 L676.9,322.6 L677.1,316.3 L677.3,327.6 L677.6,321.3 L677.8,322.6 L678.0,323.8 L678.2,328.9 L678.4,322.6 L678.6,323.8 L678.8,321.3 L679.1,322.6 L679.3,320.1 L679.5,320.1 L679.7,327.6 L679.9,317.5 L680.1,327.6 L680.4,328.9 L680.6,326.4 L680.8,318.8 L681.0,317.5 L681.2,327.6 L681.4,327.6 L681.7,326.4 L681.9,322.6 L682.1,328.9 L682.3,321.3 L682.5,327.6 L682.7,321.3 L682.9,326.4 L683.2,316.3 L683.4,326.4 L683.6,317.5 L683.8,320.1 L684.0,320.1 L684.2,328.9 L684.5,321.3 L684.7,317.5 L684.9,317.5 L685.1,327.6 L685.3,321.3 L685.5,297.4 L685.8,321.3 L686.0,288.6 L686.2,299.9 L686.4,282.3 L686.6,269.7 L686.8,247.1 L687.1,266.0 L687.3,254.6 L687.5,228.2 L687.7,184.2 L687.9,284.8 L688.1,227.0 L688.3,225.7 L688.6,253.4 L688.8,224.5 L689.0,193.0 L689.2,201.8 L689.4,239.5 L689.6,157.8 L689.9,196.8 L690.1,186.7 L690.3,242.1 L690.5,215.6 L690.7,244.6 L690.9,262.2 L691.2,159.0 L691.4,244.6 L691.6,239.5 L691.8,273.5 L692.0,258.4 L692.2,250.9 L692.5,234.5 L692.7,268.5 L692.9,233.3 L693.1,252.1 L693.3,224.5 L693.5,272.3 L693.7,254.6 L694.0,160.3 L694.2,232.0 L694.4,262.2 L694.6,260.9 L694.8,175.4 L695.0,254.6 L695.3,189.2 L695.5,272.3 L695.7,249.6 L695.9,219.4 L696.1,164.1 L696.3,176.6 L696.6,225.7 L696.8,232.0 L697.0,189.2 L697.2,196.8 L697.4,213.1 L697.6,143.9 L697.9,263.5 L698.1,258.4 L698.3,176.6 L698.5,237.0 L698.7,272.3 L698.9,216.9 L699.1,237.0 L699.4,213.1 L699.6,219.4 L699.8,169.1 L700.0,258.4 L700.2,214.4 L700.4,223.2 L700.7,252.1 L700.9,262.2 L701.1,229.5 L701.3,259.7 L701.5,190.5 L701.7,234.5 L702.0,179.2 L702.2,240.8 L702.4,232.0 L702.6,229.5 L702.8,123.8 L703.0,171.6 L703.3,195.5 L703.5,203.1 L703.7,199.3 L703.9,96.1 L704.1,249.6 L704.3,190.5 L704.5,162.8 L704.8,230.7 L705.0,210.6 L705.2,188.0 L705.4,179.2 L705.6,126.3 L705.8,154.0 L706.1,142.7 L706.3,210.6 L706.5,201.8 L706.7,230.7 L706.9,162.8 L707.1,157.8 L707.4,243.3 L707.6,255.9 L707.8,264.7 L708.0,248.4 L708.2,293.6 L708.4,292.4 L708.6,306.2 L708.9,311.3 L709.1,332.6 L709.3,347.7 L709.5,359.1 L709.7,351.5 L709.9,405.6 L710.2,388.0 L710.4,414.4 L710.6,386.7 L710.8,442.1 L711.0,425.7 L711.2,410.6 L711.5,400.6 L711.7,386.7 L711.9,415.7 L712.1,455.9 L712.3,473.5 L712.5,496.2 L712.8,440.8 L713.0,384.2 L713.2,437.1 L713.4,427.0 L713.6,395.5 L713.8,481.1 L714.0,383.0 L714.3,463.5 L714.5,498.7 L714.7,458.5 L714.9,388.0 L715.1,522.6 L715.3,433.3 L715.6,478.6 L715.8,428.3 L716.0,448.4 L716.2,384.2 L716.4,420.7 L716.6,444.6 L716.9,493.7 L717.1,389.3 L717.3,481.1 L717.5,482.4 L717.7,498.7 L717.9,380.5 L718.2,498.7 L718.4,409.4 L718.6,512.5 L718.8,425.7 L719.0,472.3 L719.2,448.4 L719.4,473.5 L719.7,454.7 L719.9,445.9 L720.1,448.4 L720.3,395.5 L720.5,506.3 L720.7,386.7 L721.0,516.3 L721.2,457.2 L721.4,450.9 L721.6,522.6 L721.8,405.6 L722.0,396.8 L722.3,464.7 L722.5,483.6 L722.7,489.9 L722.9,505.0 L723.1,489.9 L723.3,413.2 L723.6,537.7 L723.8,381.7 L724.0,430.8 L724.2,430.8 L724.4,532.7 L724.6,484.9 L724.8,469.8 L725.1,405.6 L725.3,532.7 L725.5,466.0 L725.7,452.2 L725.9,501.2 L726.1,508.8 L726.4,476.1 L726.6,518.8 L726.8,409.4 L727.0,526.4 L727.2,496.2 L727.4,506.3 L727.7,517.6 L727.9,471.0 L728.1,491.2 L728.3,443.4 L728.5,525.1 L728.7,384.2 L729.0,464.7 L729.2,384.2 L729.4,463.5 L729.6,423.2 L729.8,411.9 L730.0,488.6 L730.2,414.4 L730.5,498.7 L730.7,419.5 L730.9,447.1 L731.1,506.3 L731.3,486.1 L731.5,463.5 L731.8,484.9 L732.0,403.1 L732.2,489.9 L732.4,423.2 L732.6,507.5 L732.8,415.7 L733.1,430.8 L733.3,462.2 L733.5,432.0 L733.7,432.0 L733.9,503.7 L734.1,410.6 L734.3,390.5 L734.6,458.5 L734.8,443.4 L735.0,443.4 L735.2,423.2 L735.4,474.8 L735.6,396.8 L735.9,435.8 L736.1,435.8 L736.3,472.3 L736.5,494.9 L736.7,539.0 L736.9,424.5 L737.2,469.8 L737.4,447.1 L737.6,531.4 L737.8,488.6 L738.0,477.3 L738.2,423.2 L738.5,483.6 L738.7,449.6 L738.9,445.9 L739.1,409.4 L739.3,544.0 L739.5,415.7 L739.7,466.0 L740.0,388.0 L740.2,494.9 L740.4,443.4 L740.6,496.2 L740.8,503.7 L741.0,461.0 L741.3,512.5 L741.5,405.6 L741.7,439.6 L741.9,399.3 L742.1,531.4 L742.3,390.5 L742.6,467.3 L742.8,476.1 L743.0,389.3 L743.2,437.1 L743.4,396.8 L743.6,466.0 L743.9,422.0 L744.1,374.2 L744.3,371.6 L744.5,356.5 L744.7,393.0 L744.9,386.7 L745.1,349.0 L745.4,341.5 L745.6,322.6 L745.8,306.2 L746.0,294.9 L746.2,264.7 L746.4,257.2 L746.7,281.1 L746.9,288.6 L747.1,234.5 L747.3,245.8 L747.5,238.3 L747.7,216.9 L748.0,179.2 L748.2,240.8 L748.4,181.7 L748.6,271.0 L748.8,177.9 L749.0,210.6 L749.3,245.8 L749.5,214.4 L749.7,181.7 L749.9,238.3 L750.1,238.3 L750.3,262.2 L750.5,211.9 L750.8,196.8 L751.0,204.3 L751.2,162.8 L751.4,194.3 L751.6,107.5 L751.8,267.2 L752.1,130.1 L752.3,262.2 L752.5,205.6 L752.7,181.7 L752.9,215.6 L753.1,224.5 L753.4,235.8 L753.6,191.7 L753.8,185.5 L754.0,218.2 L754.2,145.2 L754.4,155.3 L754.7,177.9 L754.9,237.0 L755.1,196.8 L755.3,130.1 L755.5,204.3 L755.7,130.1 L755.9,182.9 L756.2,121.3 L756.4,228.2 L756.6,213.1 L756.8,247.1 L757.0,196.8 L757.2,181.7 L757.5,203.1 L757.7,150.2 L757.9,215.6 L758.1,98.6 L758.3,260.9 L758.5,184.2 L758.8,181.7 L759.0,262.2 L759.2,149.0 L759.4,162.8 L759.6,245.8 L759.8,177.9 L760.0,191.7 L760.3,193.0 L760.5,154.0 L760.7,146.5 L760.9,239.5 L761.1,180.4 L761.3,260.9 L761.6,107.5 L761.8,170.4 L762.0,186.7 L762.2,127.6 L762.4,243.3 L762.6,194.3 L762.9,156.5 L763.1,152.7 L763.3,176.6 L763.5,255.9 L763.7,137.6 L763.9,166.6 L764.2,190.5 L764.4,169.1 L764.6,179.2 L764.8,235.8 L765.0,205.6 L765.2,113.7 L765.4,205.6 L765.7,186.7 L765.9,107.5 L766.1,252.1 L766.3,146.5 L766.5,186.7 L766.7,191.7 L767.0,167.8 L767.2,193.0 L767.4,233.3 L767.6,180.4 L767.8,242.1 L768.0,238.3 L768.3,218.2 L768.5,229.5 L768.7,126.3 L768.9,132.6 L769.1,195.5 L769.3,238.3 L769.6,229.5 L769.8,179.2 L770.0,166.6 L770.2,89.8 L770.4,224.5 L770.6,243.3 L770.8,225.7 L771.1,193.0 L771.3,162.8 L771.5,190.5 L771.7,125.1 L771.9,115.0 L772.1,115.0 L772.4,171.6 L772.6,250.9 L772.8,182.9 L773.0,152.7 L773.2,106.2 L773.4,152.7 L773.7,127.6 L773.9,149.0 L774.1,232.0 L774.3,120.0 L774.5,254.6 L774.7,220.7 L775.0,113.7 L775.2,257.2 L775.4,259.7 L775.6,203.1 L775.8,142.7 L776.0,204.3 L776.2,242.1 L776.5,126.3 L776.7,247.1 L776.9,149.0 L777.1,228.2 L777.3,177.9 L777.5,206.8 L777.8,189.2 L778.0,195.5 L778.2,205.6 L778.4,108.7 L778.6,200.5 L778.8,262.2 L779.1,232.0 L779.3,254.6 L779.5,201.8 L779.7,180.4 L779.9,216.9 L780.1,228.2 L780.4,221.9 L780.6,106.2 L780.8,213.1 L781.0,200.5 L781.2,155.3 L781.4,162.8 L781.6,191.7 L781.9,203.1 L782.1,81.0 L782.3,111.2 L782.5,211.9 L782.7,184.2 L782.9,117.5 L783.2,232.0 L783.4,211.9 L783.6,189.2 L783.8,209.4 L784.0,116.3 L784.2,201.8 L784.5,132.6 L784.7,201.8 L784.9,201.8 L785.1,126.3 L785.3,155.3 L785.5,176.6 L785.7,234.5 L786.0,172.9 L786.2,132.6 L786.4,123.8 L786.6,113.7 L786.8,155.3 L787.0,127.6 L787.3,228.2 L787.5,130.1 L787.7,211.9 L787.9,255.9 L788.1,225.7 L788.3,232.0 L788.6,102.4 L788.8,184.2 L789.0,204.3 L789.2,233.3 L789.4,120.0 L789.6,142.7 L789.9,110.0 L790.1,248.4 L790.3,184.2 L790.5,132.6 L790.7,208.1 L790.9,253.4 L791.1,155.3 L791.4,175.4 L791.6,169.1 L791.8,200.5 L792.0,196.8 L792.2,169.1 L792.4,165.3 L792.7,203.1 L792.9,99.9 L793.1,135.1 L793.3,203.1 L793.5,128.8 L793.7,195.5 L794.0,150.2 L794.2,126.3 L794.4,162.8 L794.6,110.0 L794.8,157.8 L795.0,176.6 L795.3,177.9 L795.5,106.2 L795.7,116.3 L795.9,239.5 L796.1,150.2 L796.3,242.1 L796.5,182.9 L796.8,155.3 L797.0,248.4 L797.2,154.0 L797.4,200.5 L797.6,198.0 L797.8,127.6 L798.1,257.2 L798.3,220.7 L798.5,189.2 L798.7,255.9 L798.9,182.9 L799.1,195.5 L799.4,245.8 L799.6,120.0 L799.8,166.6 L800.0,221.9 L800.2,180.4 L800.4,185.5 L800.7,244.6 L800.9,195.5 L801.1,237.0 L801.3,94.9 L801.5,181.7 L801.7,252.1 L801.9,166.6 L802.2,210.6 L802.4,132.6 L802.6,255.9 L802.8,142.7 L803.0,179.2 L803.2,174.1 L803.5,259.7 L803.7,210.6 L803.9,227.0 L804.1,154.0 L804.3,172.9 L804.5,225.7 L804.8,240.8 L805.0,185.5 L805.2,227.0 L805.4,143.9 L805.6,203.1 L805.8,171.6 L806.1,135.1 L806.3,242.1 L806.5,145.2 L806.7,177.9 L806.9,126.3 L807.1,225.7 L807.3,248.4 L807.6,140.2 L807.8,248.4 L808.0,250.9 L808.2,180.4 L808.4,266.0 L808.6,200.5 L808.9,242.1 L809.1,127.6 L809.3,171.6 L809.5,169.1 L809.7,214.4 L809.9,209.4 L810.2,194.3 L810.4,132.6 L810.6,143.9 L810.8,239.5 L811.0,175.4 L811.2,243.3 L811.4,159.0 L811.7,257.2 L811.9,161.5 L812.1,253.4 L812.3,206.8 L812.5,156.5 L812.7,147.7 L813.0,204.3 L813.2,172.9 L813.4,244.6 L813.6,221.9 L813.8,130.1 L814.0,203.1 L814.3,175.4 L814.5,162.8 L814.7,205.6 L814.9,170.4 L815.1,254.6 L815.3,126.3 L815.6,235.8 L815.8,254.6 L816.0,210.6 L816.2,204.3 L816.4,247.1 L816.6,130.1 L816.8,167.8 L817.1,262.2 L817.3,169.1 L817.5,235.8 L817.7,220.7 L817.9,259.7 L818.1,214.4 L818.4,199.3 L818.6,240.8 L818.8,138.9 L819.0,194.3 L819.2,201.8 L819.4,193.0 L819.7,164.1 L819.9,227.0 L820.1,179.2 L820.3,112.5 L820.5,196.8 L820.7,232.0 L821.0,133.9 L821.2,239.5 L821.4,123.8 L821.6,166.6 L821.8,137.6 L822.0,143.9 L822.2,230.7 L822.5,242.1 L822.7,167.8 L822.9,204.3 L823.1,113.7 L823.3,135.1 L823.5,181.7 L823.8,151.5 L824.0,161.5 L824.2,200.5 L824.4,234.5 L824.6,167.8 L824.8,147.7 L825.1,245.8 L825.3,190.5 L825.5,240.8 L825.7,108.7 L825.9,189.2 L826.1,191.7 L826.4,185.5 L826.6,195.5 L826.8,104.9 L827.0,216.9 L827.2,167.8 L827.4,259.7 L827.6,234.5 L827.9,149.0 L828.1,193.0 L828.3,130.1 L828.5,177.9 L828.7,185.5 L828.9,170.4 L829.2,121.3 L829.4,141.4 L829.6,110.0 L829.8,250.9 L830.0,130.1 L830.2,266.0 L830.5,230.7 L830.7,133.9 L830.9,247.1 L831.1,250.9 L831.3,189.2 L831.5,225.7 L831.8,257.2 L832.0,203.1 L832.2,228.2 L832.4,220.7 L832.6,157.8 L832.8,221.9 L833.0,211.9 L833.3,237.0 L833.5,191.7 L833.7,252.1 L833.9,234.5 L834.1,177.9 L834.3,147.7 L834.6,180.4 L834.8,92.4 L835.0,172.9 L835.2,203.1 L835.4,138.9 L835.6,254.6 L835.9,255.9 L836.1,223.2 L836.3,130.1 L836.5,123.8 L836.7,145.2 L836.9,147.7 L837.1,216.9 L837.4,170.4 L837.6,218.2 L837.8,118.8 L838.0,247.1 L838.2,229.5 L838.4,120.0 L838.7,259.7 L838.9,159.0 L839.1,208.1 L839.3,245.8 L839.5,219.4 L839.7,245.8 L840.0,135.1 L840.2,208.1 L840.4,184.2 L840.6,143.9 L840.8,235.8 L841.0,169.1 L841.3,244.6 L841.5,151.5 L841.7,233.3 L841.9,169.1 L842.1,221.9 L842.3,206.8 L842.5,169.1 L842.8,196.8 L843.0,254.6 L843.2,196.8 L843.4,132.6 L843.6,165.3 L843.8,191.7 L844.1,244.6 L844.3,218.2 L844.5,150.2 L844.7,149.0 L844.9,230.7 L845.1,161.5 L845.4,154.0 L845.6,199.3 L845.8,141.4 L846.0,200.5 L846.2,195.5 L846.4,169.1 L846.7,247.1 L846.9,137.6 L847.1,239.5 L847.3,250.9 L847.5,188.0 L847.7,174.1 L847.9,233.3 L848.2,215.6 L848.4,128.8 L848.6,137.6 L848.8,127.6 L849.0,223.2 L849.2,208.1 L849.5,235.8 L849.7,244.6 L849.9,147.7 L850.1,225.7 L850.3,215.6 L850.5,239.5 L850.8,131.4 L851.0,123.8 L851.2,213.1 L851.4,210.6 L851.6,133.9 L851.8,111.2 L852.1,232.0 L852.3,161.5 L852.5,150.2 L852.7,201.8 L852.9,154.0 L853.1,223.2 L853.3,189.2 L853.6,164.1 L853.8,209.4 L854.0,130.1 L854.2,253.4 L854.4,111.2 L854.6,209.4 L854.9,218.2 L855.1,252.1 L855.3,238.3 L855.5,150.2 L855.7,252.1 L855.9,198.0 L856.2,245.8 L856.4,229.5 L856.6,196.8 L856.8,216.9 L857.0,128.8 L857.2,176.6 L857.5,245.8 L857.7,176.6 L857.9,230.7 L858.1,120.0 L858.3,181.7 L858.5,239.5 L858.7,182.9 L859.0,189.2 L859.2,214.4 L859.4,228.2 L859.6,98.6 L859.8,221.9 L860.0,110.0 L860.3,234.5 L860.5,142.7 L860.7,209.4 L860.9,136.4 L861.1,181.7 L861.3,195.5 L861.6,211.9 L861.8,170.4 L862.0,229.5 L862.2,258.4 L862.4,160.3 L862.6,155.3 L862.9,245.8 L863.1,132.6 L863.3,198.0 L863.5,213.1 L863.7,233.3 L863.9,244.6 L864.1,164.1 L864.4,152.7 L864.6,195.5 L864.8,243.3 L865.0,223.2 L865.2,185.5 L865.4,223.2 L865.7,242.1 L865.9,91.1 L866.1,133.9 L866.3,123.8 L866.5,211.9 L866.7,250.9 L867.0,220.7 L867.2,162.8 L867.4,250.9 L867.6,97.4 L867.8,128.8 L868.0,225.7 L868.2,93.6 L868.5,126.3 L868.7,102.4 L868.9,118.8 L869.1,204.3 L869.3,128.8 L869.5,214.4 L869.8,211.9 L870.0,136.4 L870.2,137.6 L870.4,122.5 L870.6,210.6 L870.8,108.7 L871.1,149.0 L871.3,170.4 L871.5,155.3 L871.7,145.2 L871.9,156.5 L872.1,224.5 L872.4,164.1 L872.6,239.5 L872.8,166.6 L873.0,179.2 L873.2,208.1 L873.4,128.8 L873.6,122.5 L873.9,186.7 L874.1,188.0 L874.3,106.2 L874.5,186.7 L874.7,167.8 L874.9,208.1 L875.2,223.2 L875.4,146.5 L875.6,120.0 L875.8,120.0 L876.0,150.2 L876.2,149.0 L876.5,219.4 L876.7,147.7 L876.9,189.2 L877.1,106.2 L877.3,248.4 L877.5,206.8 L877.8,123.8 L878.0,203.1 L878.2,141.4 L878.4,194.3 L878.6,243.3 L878.8,230.7 L879.0,110.0 L879.3,225.7 L879.5,147.7 L879.7,230.7 L879.9,181.7 L880.1,262.2 L880.3,140.2 L880.6,216.9 L880.8,219.4 L881.0,227.0 L881.2,188.0 L881.4,138.9 L881.6,175.4 L881.9,140.2 L882.1,252.1 L882.3,229.5 L882.5,260.9 L882.7,154.0 L882.9,195.5 L883.2,233.3 L883.4,151.5 L883.6,244.6 L883.8,123.8 L884.0,230.7 L884.2,258.4 L884.4,180.4 L884.7,218.2 L884.9,145.2 L885.1,271.0 L885.3,170.4 L885.5,205.6 L885.7,150.2 L886.0,249.6 L886.2,253.4 L886.4,240.8 L886.6,162.8 L886.8,239.5 L887.0,211.9 L887.3,216.9 L887.5,123.8 L887.7,193.0 L887.9,149.0 L888.1,200.5 L888.3,165.3 L888.6,151.5 L888.8,137.6 L889.0,233.3 L889.2,211.9 L889.4,257.2 L889.6,203.1 L889.8,196.8 L890.1,151.5 L890.3,186.7 L890.5,113.7 L890.7,131.4 L890.9,167.8 L891.1,172.9 L891.4,227.0 L891.6,84.8 L891.8,118.8 L892.0,157.8 L892.2,233.3 L892.4,117.5 L892.7,118.8 L892.9,116.3 L893.1,245.8 L893.3,104.9 L893.5,156.5 L893.7,142.7 L893.9,181.7 L894.2,249.6 L894.4,132.6 L894.6,174.1 L894.8,196.8 L895.0,181.7 L895.2,102.4 L895.5,190.5 L895.7,143.9 L895.9,209.4 L896.1,115.0 L896.3,188.0 L896.5,161.5 L896.8,186.7 L897.0,248.4 L897.2,125.1 L897.4,264.7 L897.6,253.4 L897.8,143.9 L898.1,174.1 L898.3,191.7 L898.5,219.4 L898.7,229.5 L898.9,117.5 L899.1,249.6 L899.3,157.8 L899.6,180.4 L899.8,137.6 L900.0,245.8 L900.2,194.3 L900.4,221.9 L900.6,253.4 L900.9,254.6 L901.1,121.3 L901.3,206.8 L901.5,201.8 L901.7,143.9 L901.9,195.5 L902.2,208.1 L902.4,141.4 L902.6,145.2 L902.8,159.0 L903.0,232.0 L903.2,166.6 L903.5,122.5 L903.7,252.1 L903.9,227.0 L904.1,110.0 L904.3,245.8 L904.5,142.7 L904.7,242.1 L905.0,211.9 L905.2,264.7 L905.4,204.3 L905.6,156.5 L905.8,253.4 L906.0,253.4 L906.3,209.4 L906.5,186.7 L906.7,240.8 L906.9,218.2 L907.1,228.2 L907.3,126.3 L907.6,239.5 L907.8,242.1 L908.0,174.1 L908.2,225.7 L908.4,198.0 L908.6,188.0 L908.9,247.1 L909.1,230.7 L909.3,87.3 L909.5,205.6 L909.7,176.6 L909.9,198.0 L910.1,219.4 L910.4,216.9 L910.6,76.0 L910.8,108.7 L911.0,198.0 L911.2,113.7 L911.4,245.8 L911.7,160.3 L911.9,252.1 L912.1,156.5 L912.3,248.4 L912.5,195.5 L912.7,196.8 L913.0,253.4 L913.2,260.9 L913.4,185.5 L913.6,184.2 L913.8,142.7 L914.0,185.5 L914.3,248.4 L914.5,147.7 L914.7,194.3 L914.9,240.8 L915.1,152.7 L915.3,227.0 L915.5,172.9 L915.8,255.9 L916.0,262.2 L916.2,126.3 L916.4,175.4 L916.6,140.2 L916.8,218.2 L917.1,184.2 L917.3,216.9 L917.5,235.8 L917.7,229.5 L917.9,115.0 L918.1,174.1 L918.4,118.8 L918.6,216.9 L918.8,189.2 L919.0,176.6 L919.2,215.6 L919.4,140.2 L919.6,240.8 L919.9,170.4 L920.1,169.1 L920.3,242.1 L920.5,211.9 L920.7,237.0 L920.9,154.0 L921.2,250.9 L921.4,166.6 L921.6,164.1 L921.8,257.2 L922.0,154.0 L922.2,185.5 L922.5,169.1 L922.7,136.4 L922.9,157.8 L923.1,242.1 L923.3,120.0 L923.5,180.4 L923.8,234.5 L924.0,117.5 L924.2,155.3 L924.4,259.7 L924.6,193.0 L924.8,149.0 L925.0,260.9 L925.3,151.5 L925.5,186.7 L925.7,216.9 L925.9,140.2 L926.1,160.3 L926.3,190.5 L926.6,136.4 L926.8,188.0 L927.0,157.8 L927.2,216.9 L927.4,179.2 L927.6,262.2 L927.9,250.9 L928.1,147.7 L928.3,240.8 L928.5,143.9 L928.7,214.4 L928.9,229.5 L929.2,132.6 L929.4,253.4 L929.6,140.2 L929.8,262.2 L930.0,266.0 L930.2,190.5 L930.4,218.2 L930.7,142.7 L930.9,188.0 L931.1,186.7 L931.3,205.6 L931.5,211.9 L931.7,191.7 L932.0,215.6 L932.2,137.6 L932.4,169.1 L932.6,122.5 L932.8,189.2 L933.0,227.0 L933.3,116.3 L933.5,240.8 L933.7,167.8 L933.9,225.7 L934.1,262.2 L934.3,233.3 L934.6,239.5 L934.8,142.7 L935.0,263.5 L935.2,234.5 L935.4,131.4 L935.6,196.8 L935.8,230.7 L936.1,121.3 L936.3,248.4 L936.5,186.7 L936.7,159.0 L936.9,224.5 L937.1,244.6 L937.4,248.4 L937.6,140.2 L937.8,213.1 L938.0,252.1 L938.2,200.5 L938.4,155.3 L938.7,164.1 L938.9,157.8 L939.1,229.5 L939.3,223.2 L939.5,243.3 L939.7,171.6 L940.0,151.5 L940.2,233.3 L940.4,208.1 L940.6,252.1 L940.8,147.7 L941.0,182.9 L941.2,205.6 L941.5,130.1 L941.7,137.6 L941.9,224.5 L942.1,206.8 L942.3,244.6 L942.5,151.5 L942.8,181.7 L943.0,157.8 L943.2,130.1 L943.4,193.0 L943.6,230.7 L943.8,240.8 L944.1,182.9 L944.3,206.8 L944.5,103.7 L944.7,121.3 L944.9,216.9 L945.1,101.2 L945.3,238.3 L945.6,132.6 L945.8,208.1 L946.0,201.8 L946.2,164.1 L946.4,169.1 L946.6,255.9 L946.9,248.4 L947.1,167.8 L947.3,159.0 L947.5,188.0 L947.7,189.2 L947.9,213.1 L948.2,196.8 L948.4,258.4 L948.6,247.1 L948.8,196.8 L949.0,147.7 L949.2,182.9 L949.5,117.5 L949.7,141.4 L949.9,253.4 L950.1,250.9 L950.3,239.5 L950.5,156.5 L950.7,204.3 L951.0,220.7 L951.2,214.4 L951.4,248.4 L951.6,237.0 L951.8,208.1 L952.0,155.3 L952.3,188.0 L952.5,132.6 L952.7,180.4 L952.9,160.3 L953.1,235.8 L953.3,200.5 L953.6,229.5 L953.8,221.9 L954.0,159.0 L954.2,200.5 L954.4,194.3 L954.6,223.2 L954.9,230.7 L955.1,233.3 L955.3,186.7 L955.5,157.8 L955.7,138.9 L955.9,110.0 L956.1,254.6 L956.4,229.5 L956.6,239.5 L956.8,181.7 L957.0,184.2 L957.2,180.4 L957.4,243.3 L957.7,115.0 L957.9,266.0 L958.1,156.5 L958.3,152.7 L958.5,238.3 L958.7,235.8 L959.0,260.9 L959.2,147.7 L959.4,229.5 L959.6,206.8 L959.8,218.2 L960.0,260.9 L960.3,235.8 L960.5,167.8 L960.7,233.3 L960.9,260.9 L961.1,140.2 L961.3,239.5 L961.5,180.4 L961.8,253.4 L962.0,208.1 L962.2,174.1 L962.4,263.5 L962.6,238.3 L962.8,224.5 L963.1,250.9 L963.3,229.5 L963.5,181.7 L963.7,237.0 L963.9,209.4 L964.1,142.7 L964.4,200.5 L964.6,132.6 L964.8,232.0 L965.0,175.4 L965.2,159.0 L965.4,229.5 L965.7,182.9 L965.9,191.7 L966.1,230.7 L966.3,264.7 L966.5,184.2 L966.7,224.5 L966.9,206.8 L967.2,206.8 L967.4,234.5 L967.6,196.8 L967.8,115.0 L968.0,229.5 L968.2,238.3 L968.5,211.9 L968.7,174.1 L968.9,253.4 L969.1,128.8 L969.3,191.7 L969.5,214.4 L969.8,206.8 L970.0,267.2 L970.2,194.3 L970.4,260.9 L970.6,245.8 L970.8,238.3 L971.0,161.5 L971.3,189.2 L971.5,193.0 L971.7,194.3 L971.9,180.4 L972.1,136.4 L972.3,196.8 L972.6,188.0 L972.8,97.4 L973.0,127.6 L973.2,155.3 L973.4,140.2 L973.6,162.8 L973.9,214.4 L974.1,240.8 L974.3,205.6 L974.5,224.5 L974.7,195.5 L974.9,142.7 L975.2,204.3 L975.4,174.1 L975.6,133.9 L975.8,151.5 L976.0,188.0 L976.2,230.7 L976.4,120.0 L976.7,253.4 L976.9,169.1 L977.1,266.0 L977.3,233.3 L977.5,193.0 L977.7,266.0 L978.0,229.5 L978.2,269.7 L978.4,177.9 L978.6,200.5 L978.8,199.3 L979.0,250.9 L979.3,195.5 L979.5,191.7 L979.7,223.2 L979.9,182.9 L980.1,223.2 L980.3,269.7 L980.6,258.4 L980.8,162.8 L981.0,184.2 L981.2,253.4 L981.4,257.2 L981.6,253.4 L981.8,180.4 L982.1,266.0 L982.3,238.3 L982.5,146.5 L982.7,268.5 L982.9,165.3 L983.1,172.9 L983.4,189.2 L983.6,243.3 L983.8,262.2 L984.0,284.8 L984.2,230.7 L984.4,205.6 L984.7,228.2 L984.9,252.1 L985.1,201.8 L985.3,248.4 L985.5,279.8 L985.7,193.0 L986.0,273.5 L986.2,234.5 L986.4,255.9 L986.6,264.7 L986.8,220.7 L987.0,230.7 L987.2,194.3 L987.5,194.3 L987.7,211.9 L987.9,147.7 L988.1,269.7 L988.3,151.5 L988.5,228.2 L988.8,195.5 L989.0,172.9 L989.2,200.5 L989.4,179.2 L989.6,211.9 L989.8,204.3 L990.1,191.7 L990.3,250.9 L990.5,221.9 L990.7,189.2 L990.9,174.1 L991.1,260.9 L991.4,227.0 L991.6,234.5 L991.8,210.6 L992.0,255.9 L992.2,210.6 L992.4,182.9 L992.6,201.8 L992.9,156.5 L993.1,165.3 L993.3,165.3 L993.5,208.1 L993.7,170.4 L993.9,215.6 L994.2,127.6 L994.4,149.0 L994.6,198.0 L994.8,262.2 L995.0,156.5 L995.2,195.5 L995.5,272.3 L995.7,232.0 L995.9,216.9 L996.1,254.6 L996.3,254.6 L996.5,250.9 L996.7,209.4 L997.0,258.4 L997.2,216.9 L997.4,220.7 L997.6,176.6 L997.8,249.6 L998.0,208.1 L998.3,252.1 L998.5,260.9 L998.7,218.2 L998.9,244.6 L999.1,224.5 L999.3,215.6 L999.6,214.4 L999.8,177.9 L1000.0,267.2 L1000.2,267.2 L1000.4,260.9 L1000.6,150.2 L1000.9,225.7 L1001.1,195.5 L1001.3,227.0 L1001.5,209.4 L1001.7,209.4 L1001.9,271.0 L1002.1,171.6 L1002.4,177.9 L1002.6,249.6 L1002.8,239.5 L1003.0,170.4 L1003.2,151.5 L1003.4,239.5 L1003.7,218.2 L1003.9,175.4 L1004.1,262.2 L1004.3,237.0 L1004.5,194.3 L1004.7,184.2 L1005.0,194.3 L1005.2,145.2 L1005.4,242.1 L1005.6,234.5 L1005.8,235.8 L1006.0,260.9 L1006.3,206.8 L1006.5,156.5 L1006.7,260.9 L1006.9,146.5 L1007.1,227.0 L1007.3,257.2 L1007.5,243.3 L1007.8,165.3 L1008.0,225.7 L1008.2,193.0 L1008.4,213.1 L1008.6,247.1 L1008.8,262.2 L1009.1,177.9 L1009.3,233.3 L1009.5,225.7 L1009.7,291.1 L1009.9,262.2 L1010.1,260.9 L1010.4,224.5 L1010.6,238.3 L1010.8,186.7 L1011.0,259.7 L1011.2,284.8 L1011.4,190.5 L1011.7,220.7 L1011.9,227.0 L1012.1,218.2 L1012.3,205.6 L1012.5,238.3 L1012.7,208.1 L1012.9,230.7 L1013.2,266.0 L1013.4,219.4 L1013.6,258.4 L1013.8,254.6 L1014.0,180.4 L1014.2,198.0 L1014.5,224.5 L1014.7,171.6 L1014.9,257.2 L1015.1,164.1 L1015.3,255.9 L1015.5,263.5 L1015.8,267.2 L1016.0,171.6 L1016.2,171.6 L1016.4,250.9 L1016.6,189.2 L1016.8,249.6 L1017.1,268.5 L1017.3,182.9 L1017.5,233.3 L1017.7,234.5 L1017.9,219.4 L1018.1,223.2 L1018.3,218.2 L1018.6,230.7 L1018.8,180.4 L1019.0,284.8 L1019.2,227.0 L1019.4,200.5 L1019.6,268.5 L1019.9,243.3 L1020.1,224.5 L1020.3,221.9 L1020.5,244.6 L1020.7,235.8 L1020.9,247.1 L1021.2,193.0 L1021.4,243.3 L1021.6,242.1 L1021.8,279.8 L1022.0,228.2 L1022.2,274.8 L1022.4,189.2 L1022.7,219.4 L1022.9,201.8 L1023.1,203.1 L1023.3,182.9 L1023.5,216.9 L1023.7,245.8 L1024.0,204.3 L1024.2,184.2 L1024.4,244.6 L1024.6,200.5 L1024.8,214.4 L1025.0,234.5 L1025.3,273.5 L1025.5,221.9 L1025.7,276.0 L1025.9,244.6 L1026.1,267.2 L1026.3,264.7 L1026.6,166.6 L1026.8,240.8 L1027.0,266.0 L1027.2,269.7 L1027.4,180.4 L1027.6,250.9 L1027.8,152.7 L1028.1,262.2 L1028.3,195.5 L1028.5,200.5 L1028.7,210.6 L1028.9,161.5 L1029.1,247.1 L1029.4,199.3 L1029.6,257.2 L1029.8,189.2 L1030.0,235.8 L1030.2,244.6 L1030.4,162.8 L1030.7,199.3 L1030.9,206.8 L1031.1,282.3 L1031.3,223.2 L1031.5,184.2 L1031.7,225.7 L1032.0,282.3 L1032.2,214.4 L1032.4,247.1 L1032.6,258.4 L1032.8,208.1 L1033.0,223.2 L1033.2,208.1 L1033.5,257.2 L1033.7,191.7 L1033.9,214.4 L1034.1,281.1 L1034.3,229.5 L1034.5,286.1 L1034.8,196.8 L1035.0,205.6 L1035.2,237.0 L1035.4,225.7 L1035.6,230.7 L1035.8,262.2 L1036.1,216.9 L1036.3,232.0 L1036.5,281.1 L1036.7,247.1 L1036.9,253.4 L1037.1,233.3 L1037.4,264.7 L1037.6,260.9 L1037.8,250.9 L1038.0,250.9 L1038.2,189.2 L1038.4,225.7 L1038.6,250.9 L1038.9,267.2 L1039.1,260.9 L1039.3,266.0 L1039.5,260.9 L1039.7,259.7 L1039.9,213.1 L1040.2,206.8 L1040.4,249.6 L1040.6,237.0 L1040.8,228.2 L1041.0,253.4 L1041.2,151.5 L1041.5,181.7 L1041.7,191.7 L1041.9,262.2 L1042.1,228.2 L1042.3,203.1 L1042.5,240.8 L1042.8,186.7 L1043.0,242.1 L1043.2,272.3 L1043.4,223.2 L1043.6,282.3 L1043.8,179.2 L1044.0,274.8 L1044.3,239.5 L1044.5,206.8 L1044.7,240.8 L1044.9,220.7 L1045.1,228.2 L1045.3,248.4 L1045.6,244.6 L1045.8,203.1 L1046.0,257.2 L1046.2,259.7 L1046.4,211.9 L1046.6,213.1 L1046.9,244.6 L1047.1,263.5 L1047.3,220.7 L1047.5,244.6 L1047.7,288.6 L1047.9,289.9 L1048.1,253.4 L1048.4,247.1 L1048.6,215.6 L1048.8,274.8 L1049.0,225.7 L1049.2,269.7 L1049.4,186.7 L1049.7,257.2 L1049.9,262.2 L1050.1,272.3 L1050.3,234.5 L1050.5,287.4 L1050.7,292.4 L1051.0,234.5 L1051.2,252.1 L1051.4,244.6 L1051.6,238.3 L1051.8,278.5 L1052.0,287.4 L1052.3,257.2 L1052.5,218.2 L1052.7,278.5 L1052.9,294.9 L1053.1,276.0 L1053.3,196.8 L1053.5,259.7 L1053.8,291.1 L1054.0,216.9 L1054.2,269.7 L1054.4,227.0 L1054.6,230.7 L1054.8,186.7 L1055.1,242.1 L1055.3,252.1 L1055.5,250.9 L1055.7,260.9 L1055.9,179.2 L1056.1,196.8 L1056.4,218.2 L1056.6,262.2 L1056.8,257.2 L1057.0,254.6 L1057.2,229.5 L1057.4,278.5 L1057.7,172.9 L1057.9,220.7 L1058.1,206.8 L1058.3,229.5 L1058.5,244.6 L1058.7,263.5 L1058.9,292.4 L1059.2,221.9 L1059.4,204.3 L1059.6,220.7 L1059.8,286.1 L1060.0,286.1 L1060.2,244.6 L1060.5,289.9 L1060.7,263.5 L1060.9,282.3 L1061.1,242.1 L1061.3,234.5 L1061.5,250.9 L1061.8,283.6 L1062.0,235.8 L1062.2,190.5 L1062.4,266.0 L1062.6,257.2 L1062.8,255.9 L1063.1,282.3 L1063.3,244.6 L1063.5,249.6 L1063.7,254.6 L1063.9,244.6 L1064.1,263.5 L1064.3,257.2 L1064.6,267.2 L1064.8,248.4 L1065.0,263.5 L1065.2,193.0 L1065.4,215.6 L1065.6,185.5 L1065.9,204.3 L1066.1,268.5 L1066.3,206.8 L1066.5,182.9 L1066.7,211.9 L1066.9,228.2 L1067.2,230.7 L1067.4,272.3 L1067.6,279.8 L1067.8,205.6 L1068.0,227.0 L1068.2,232.0 L1068.5,194.3 L1068.7,245.8 L1068.9,247.1 L1069.1,248.4 L1069.3,282.3 L1069.5,277.3 L1069.7,240.8 L1070.0,242.1 L1070.2,190.5 L1070.4,230.7 L1070.6,228.2 L1070.8,176.6 L1071.0,238.3 L1071.3,229.5 L1071.5,268.5 L1071.7,239.5 L1071.9,190.5 L1072.1,225.7 L1072.3,225.7 L1072.6,276.0 L1072.8,283.6 L1073.0,260.9 L1073.2,281.1 L1073.4,235.8 L1073.6,235.8 L1073.8,252.1 L1074.1,238.3 L1074.3,279.8 L1074.5,268.5 L1074.7,228.2 L1074.9,266.0 L1075.1,273.5 L1075.4,284.8 L1075.6,230.7 L1075.8,262.2 L1076.0,282.3 L1076.2,250.9 L1076.4,235.8 L1076.7,257.2 L1076.9,249.6 L1077.1,283.6 L1077.3,296.2 L1077.5,303.7 L1077.7,303.7 L1078.0,260.9 L1078.2,260.9 L1078.4,250.9 L1078.6,254.6 L1078.8,297.4 L1079.0,254.6 L1079.2,292.4 L1079.5,296.2 L1079.7,291.1 L1079.9,272.3 L1080.1,277.3 L1080.3,267.2 L1080.5,267.2 L1080.8,247.1 L1081.0,287.4 L1081.2,291.1 L1081.4,288.6 L1081.6,301.2 L1081.8,289.9 L1082.1,276.0 L1082.3,303.7 L1082.5,263.5 L1082.7,284.8 L1082.9,303.7 L1083.1,302.5 L1083.4,272.3 L1083.6,299.9 L1083.8,302.5 L1084.0,313.8" fill="none" stroke="#ff7f0e" stroke-width="1.1" opacity="0.85"/><text x="616" y="572" font-size="11" fill="#888">time 0..43 s — altitude (blue) &amp; roll (orange)</text></svg>