<svg xmlns="http://www.w3.org/2000/svg" width="1140" height="600" font-family="sans-serif" font-size="13"><rect width="1140" height="600" fill="white"/><text x="20" y="26" font-size="15" fill="#333">TMS-7 F15 — sensor noise 05%</text><rect x="20" y="40" width="540" height="540" fill="#fbfbfb" stroke="#ddd"/><rect x="50" y="304" width="321" height="69" fill="#cde" stroke="#369" opacity="0.7"/><text x="50" y="299" fill="#369" font-size="12">landing zone</text><circle cx="253" cy="412" r="5" fill="black"/><text x="261" y="416" font-size="12">pad</text><path d="M252.8,411.7 L252.8,411.7 L252.8,411.7 L252.8,411.7 L252.8,411.7 L252.8,411.7 L252.8,411.7 L252.8,411.7 L252.8,411.7 L252.8,411.7 L252.8,411.7 L252.8,411.7 L252.8,411.7 L252.8,411.7 L252.8,411.7 L252.8,411.7 L252.8,411.7 L252.8,411.7 L252.8,411.7 L252.8,411.7 L252.8,411.7 L252.8,411.7 L252.8,411.7 L252.8,411.7 L252.8,411.7 L252.8,411.7 L252.8,411.7 L252.8,411.7 L252.8,411.7 L252.8,411.7 L252.8,411.7 L252.8,411.7 L252.8,411.7 L252.8,411.7 L252.8,411.7 L252.8,411.7 L252.8,411.7 L252.8,411.7 L252.8,411.7 L252.8,411.7 L252.8,411.7 L252.8,411.7 L252.8,411.7 L252.8,411.7 L252.8,411.7 L252.8,411.7 L252.8,411.7 L252.8,411.7 L252.8,411.7 L252.8,411.7 L252.8,411.7 L252.8,411.7 L252.8,411.7 L252.8,411.7 L252.8,411.7 L252.8,411.7 L252.8,411.7 L252.8,411.7 L254.0,409.6 L255.5,407.1 L256.9,404.6 L258.5,402.3 L260.2,399.8 L261.9,397.5 L263.6,395.2 L265.4,392.9 L267.3,390.8 L269.2,388.6 L271.2,386.5 L273.3,384.5 L275.4,382.4 L277.4,380.5 L279.7,378.6 L281.9,376.9 L284.1,375.0 L286.4,373.3 L288.6,371.6 L291.0,369.8 L293.3,368.1 L295.5,366.2 L297.8,364.5 L299.8,362.6 L302.1,360.7 L304.1,358.6 L306.2,356.5 L308.1,354.4 L310.0,352.3 L311.9,350.0 L313.6,347.7 L315.3,345.4 L316.9,343.1 L318.4,340.6 L320.0,338.2 L321.4,335.7 L322.7,333.2 L323.9,330.5 L325.1,328.0 L326.4,325.4 L327.4,322.7 L328.2,319.8 L329.3,317.2 L330.0,314.3 L330.7,311.6 L331.3,308.8 L331.9,305.9 L332.4,303.0 L332.7,300.4 L333.2,297.5 L333.6,294.6 L334.1,291.8 L334.6,288.9 L335.3,286.0 L336.0,283.2 L336.7,280.5 L337.6,277.6 L338.4,275.0 L339.3,272.3 L340.3,269.6 L341.5,267.0 L342.7,264.3 L343.9,261.8 L345.3,259.1 L346.9,256.6 L348.2,254.2 L349.8,251.9 L351.5,249.4 L353.2,247.1 L355.0,244.8 L356.8,242.7 L358.7,240.4 L360.6,238.3 L362.7,236.4 L364.8,234.3 L367.0,232.4 L369.3,230.7 L371.5,228.8 L373.7,227.1 L376.1,225.5 L378.6,223.8 L381.0,222.3 L383.4,220.9 L386.0,219.6 L388.5,218.3 L391.1,216.9 L393.9,215.8 L396.5,214.8 L399.2,213.9 L402.0,212.9 L404.7,212.2 L407.5,211.4 L410.3,210.6 L413.2,210.1 L415.9,209.7 L418.9,209.3 L421.6,208.9 L424.6,208.7 L427.5,208.5 L430.2,208.3 L433.2,208.3 L436.1,208.5 L438.9,208.7 L441.8,208.9 L444.7,209.3 L447.5,209.7 L450.4,210.3 L453.2,210.8 L455.9,211.6 L458.7,212.4 L461.4,213.1 L464.2,214.1 L466.9,215.0 L469.5,216.2 L472.3,217.3 L474.9,218.5 L477.5,219.8 L479.9,221.1 L482.4,222.7 L484.9,224.2 L487.3,225.7 L489.7,227.4 L491.9,229.2 L494.2,230.9 L496.4,232.8 L498.5,234.7 L500.5,236.8 L502.6,238.9 L504.5,241.0 L506.4,243.1 L508.3,245.4 L510.0,247.5 L511.7,250.0 L513.5,252.3 L515.0,254.7 L516.4,257.2 L517.9,259.7 L519.1,262.2 L520.5,264.9 L521.7,267.3 L522.8,270.0 L523.8,272.7 L524.8,275.5 L525.7,278.2 L526.6,281.1 L527.2,283.8 L527.8,286.6 L528.4,289.5 L528.8,292.3 L529.3,295.2 L529.5,298.1 L529.8,300.9 L529.8,303.8 L530.0,306.7 L529.8,309.5 L529.8,312.4 L529.5,315.2 L529.3,318.1 L529.0,321.0 L528.4,323.8 L527.9,326.7 L527.2,329.4 L526.6,332.2 L525.7,335.1 L524.8,337.8 L524.0,340.4 L522.9,343.1 L521.9,345.8 L520.7,348.5 L519.3,351.1 L518.1,353.6 L516.7,356.1 L515.2,358.6 L513.6,361.1 L512.1,363.4 L510.4,365.8 L508.6,368.1 L506.7,370.2 L504.8,372.5 L503.0,374.6 L501.1,376.7 L499.0,378.6 L496.7,380.7 L494.7,382.6 L492.4,384.4 L490.2,386.1 L487.8,387.8 L485.4,389.5 L483.0,391.0 L480.6,392.6 L478.0,393.9 L475.6,395.4 L473.0,396.6 L470.4,397.9 L467.6,398.9 L465.0,400.0 L462.3,401.0 L459.5,401.9 L456.8,402.7 L454.0,403.4 L451.1,404.0 L448.3,404.6 L445.6,405.2 L442.6,405.5 L439.7,405.9 L437.0,406.3 L434.0,406.5 L431.1,406.5 L428.3,406.5 L425.4,406.5 L422.5,406.3 L419.7,406.1 L416.8,405.9 L413.9,405.5 L411.1,405.0 L408.2,404.6 L406.0,404.0 L403.5,403.4 L401.3,402.9 L398.9,402.3 L396.6,401.5 L394.4,400.8 L392.2,400.0 L389.9,399.1 L387.7,398.1 L385.4,397.1 L383.2,396.2 L381.1,395.0 L379.1,393.9 L376.8,392.8 L374.8,391.6 L372.9,390.3 L370.8,388.9 L368.7,387.6 L366.8,386.3 L364.9,384.7 L363.1,383.2 L361.3,381.7 L359.4,380.2 L357.7,378.6 L356.0,376.9 L354.3,375.2" fill="none" stroke="#1f77b4" stroke-width="1.7" opacity="0.85"/><circle cx="354" cy="375" r="4.5" fill="#1f77b4"/><text x="28" y="572" font-size="11" fill="#888">ground track — m from pad (N up)</text><rect x="580" y="40" width="540" height="540" fill="#fbfbfb" stroke="#ddd"/><text x="586" y="54" fill="#1f77b4" font-size="11">alt 288</text><text x="586" y="558" fill="#1f77b4" font-size="11">2</text><path d="M616.0,543.7 L616.3,543.7 L616.5,543.7 L616.8,544.0 L617.1,543.6 L617.4,543.5 L617.6,543.8 L617.9,543.4 L618.2,543.4 L618.4,543.1 L618.7,543.3 L619.0,542.8 L619.2,542.8 L619.5,542.3 L619.8,542.2 L620.1,542.1 L620.3,541.6 L620.6,541.1 L620.9,541.4 L621.1,540.9 L621.4,540.2 L621.7,540.3 L621.9,540.2 L622.2,539.2 L622.5,539.7 L622.8,539.3 L623.0,538.0 L623.3,537.9 L623.6,537.1 L623.8,537.6 L624.1,536.5 L624.4,535.9 L624.6,535.3 L624.9,534.7 L625.2,534.4 L625.5,533.8 L625.7,533.7 L626.0,532.4 L626.3,531.8 L626.5,531.5 L626.8,531.6 L627.1,531.4 L627.3,530.0 L627.6,528.8 L627.9,527.8 L628.2,528.8 L628.4,527.5 L628.7,527.2 L629.0,526.1 L629.2,524.7 L629.5,525.1 L629.8,522.3 L630.0,523.9 L630.3,521.5 L630.6,519.8 L630.9,520.0 L631.1,518.5 L631.4,519.3 L631.7,517.2 L631.9,515.5 L632.2,514.6 L632.5,513.5 L632.7,513.5 L633.0,511.4 L633.3,512.8 L633.6,509.4 L633.8,509.7 L634.1,507.8 L634.4,506.7 L634.6,506.9 L634.9,504.7 L635.2,506.5 L635.4,504.9 L635.7,501.6 L636.0,499.7 L636.3,500.9 L636.5,499.6 L636.8,497.3 L637.1,498.1 L637.3,493.9 L637.6,493.7 L637.9,491.0 L638.1,493.0 L638.4,488.9 L638.7,487.6 L639.0,487.6 L639.2,488.6 L639.5,484.3 L639.8,482.0 L640.0,481.8 L640.3,478.7 L640.6,480.8 L640.8,477.3 L641.1,476.6 L641.4,479.0 L641.7,475.3 L641.9,474.5 L642.2,474.0 L642.5,471.3 L642.7,465.8 L643.0,465.4 L643.3,469.7 L643.5,461.2 L643.8,461.9 L644.1,459.9 L644.4,460.7 L644.6,461.6 L644.9,460.0 L645.2,453.5 L645.4,450.3 L645.7,449.8 L646.0,446.9 L646.2,443.7 L646.5,447.2 L646.8,448.4 L647.1,439.6 L647.3,445.0 L647.6,438.0 L647.9,439.0 L648.1,441.8 L648.4,433.6 L648.7,430.6 L648.9,433.4 L649.2,432.4 L649.5,430.9 L649.8,424.6 L650.0,427.0 L650.3,428.5 L650.6,421.0 L650.8,422.9 L651.1,415.9 L651.4,411.8 L651.6,418.3 L651.9,406.4 L652.2,414.6 L652.5,411.9 L652.7,401.3 L653.0,398.9 L653.3,397.5 L653.5,397.6 L653.8,398.2 L654.1,399.7 L654.3,386.1 L654.6,386.5 L654.9,386.3 L655.2,380.6 L655.4,391.1 L655.7,386.5 L656.0,374.0 L656.2,377.4 L656.5,380.3 L656.8,378.7 L657.0,381.3 L657.3,376.5 L657.6,374.3 L657.9,374.9 L658.1,366.1 L658.4,353.2 L658.7,353.3 L658.9,351.0 L659.2,357.8 L659.5,349.0 L659.7,346.4 L660.0,345.0 L660.3,355.2 L660.6,351.1 L660.8,343.6 L661.1,331.6 L661.4,331.3 L661.6,343.3 L661.9,329.0 L662.2,335.3 L662.4,327.0 L662.7,329.2 L663.0,311.7 L663.3,327.4 L663.5,324.6 L663.8,326.3 L664.1,314.6 L664.3,318.6 L664.6,320.4 L664.9,297.8 L665.1,297.7 L665.4,310.2 L665.7,308.8 L666.0,303.3 L666.2,284.2 L666.5,294.1 L666.8,284.1 L667.0,288.4 L667.3,298.4 L667.6,292.4 L667.8,270.5 L668.1,287.9 L668.4,291.3 L668.7,278.3 L668.9,286.6 L669.2,260.8 L669.5,264.0 L669.7,274.0 L670.0,272.7 L670.3,273.8 L670.6,262.6 L670.8,259.8 L671.1,256.8 L671.4,253.9 L671.6,240.2 L671.9,264.3 L672.2,254.2 L672.4,239.5 L672.7,255.0 L673.0,239.9 L673.3,234.3 L673.5,252.8 L673.8,246.6 L674.1,235.4 L674.3,238.1 L674.6,235.9 L674.9,215.3 L675.1,224.8 L675.4,214.3 L675.7,216.3 L676.0,212.9 L676.2,208.0 L676.5,217.7 L676.8,206.4 L677.0,224.0 L677.3,203.2 L677.6,204.3 L677.8,215.8 L678.1,220.5 L678.4,216.6 L678.7,190.7 L678.9,217.1 L679.2,198.0 L679.5,191.0 L679.7,182.5 L680.0,208.6 L680.3,195.4 L680.5,190.0 L680.8,189.9 L681.1,195.1 L681.4,176.2 L681.6,179.5 L681.9,190.8 L682.2,178.2 L682.4,169.7 L682.7,164.0 L683.0,160.1 L683.2,169.5 L683.5,173.5 L683.8,159.9 L684.1,169.0 L684.3,188.3 L684.6,161.1 L684.9,164.0 L685.1,183.1 L685.4,159.8 L685.7,147.4 L685.9,156.1 L686.2,152.8 L686.5,160.6 L686.8,145.3 L687.0,157.8 L687.3,141.8 L687.6,138.1 L687.8,133.6 L688.1,136.4 L688.4,153.0 L688.6,141.7 L688.9,128.3 L689.2,130.2 L689.5,156.5 L689.7,156.3 L690.0,155.6 L690.3,150.2 L690.5,133.2 L690.8,154.2 L691.1,139.4 L691.3,114.2 L691.6,116.0 L691.9,139.9 L692.2,145.6 L692.4,113.8 L692.7,106.8 L693.0,143.3 L693.2,117.5 L693.5,125.3 L693.8,128.0 L694.0,114.5 L694.3,125.2 L694.6,102.5 L694.9,103.4 L695.1,130.6 L695.4,97.6 L695.7,103.9 L695.9,90.7 L696.2,125.3 L696.5,87.7 L696.7,123.4 L697.0,98.8 L697.3,88.3 L697.6,96.8 L697.8,122.1 L698.1,99.8 L698.4,96.4 L698.6,114.5 L698.9,102.8 L699.2,104.7 L699.4,102.6 L699.7,85.2 L700.0,96.1 L700.3,76.9 L700.5,113.1 L700.8,103.2 L701.1,77.8 L701.3,84.7 L701.6,107.8 L701.9,86.8 L702.1,87.6 L702.4,99.7 L702.7,76.0 L703.0,106.5 L703.2,81.4 L703.5,78.1 L703.8,108.9 L704.0,106.5 L704.3,93.7 L704.6,86.0 L704.8,92.1 L705.1,116.3 L705.4,76.7 L705.7,98.6 L705.9,115.0 L706.2,121.4 L706.5,86.5 L706.7,78.5 L707.0,103.3 L707.3,112.4 L707.5,117.0 L707.8,100.9 L708.1,88.8 L708.4,119.8 L708.6,86.7 L708.9,121.9 L709.2,96.0 L709.4,112.4 L709.7,99.2 L710.0,117.7 L710.2,120.5 L710.5,115.5 L710.8,117.3 L711.1,94.6 L711.3,97.2 L711.6,111.9 L711.9,116.3 L712.1,109.0 L712.4,114.3 L712.7,104.5 L712.9,117.7 L713.2,119.5 L713.5,116.7 L713.8,81.1 L714.0,99.3 L714.3,111.5 L714.6,107.8 L714.8,90.9 L715.1,90.0 L715.4,107.2 L715.6,105.2 L715.9,100.3 L716.2,111.3 L716.5,99.9 L716.7,91.5 L717.0,99.7 L717.3,116.0 L717.5,120.1 L717.8,98.2 L718.1,118.3 L718.3,91.8 L718.6,86.3 L718.9,121.8 L719.2,82.8 L719.4,116.5 L719.7,94.7 L720.0,106.8 L720.2,125.0 L720.5,92.5 L720.8,109.2 L721.1,114.5 L721.3,123.9 L721.6,89.9 L721.9,105.8 L722.1,86.6 L722.4,102.9 L722.7,124.1 L722.9,103.5 L723.2,89.4 L723.5,106.0 L723.8,88.4 L724.0,125.6 L724.3,116.5 L724.6,117.6 L724.8,122.3 L725.1,97.0 L725.4,85.7 L725.6,84.2 L725.9,99.5 L726.2,110.3 L726.5,90.0 L726.7,84.1 L727.0,93.9 L727.3,97.0 L727.5,107.4 L727.8,106.5 L728.1,90.0 L728.3,114.9 L728.6,113.4 L728.9,105.7 L729.2,127.1 L729.4,128.2 L729.7,87.4 L730.0,127.1 L730.2,128.0 L730.5,97.7 L730.8,87.2 L731.0,98.7 L731.3,86.2 L731.6,121.1 L731.9,115.9 L732.1,116.7 L732.4,89.2 L732.7,110.1 L732.9,124.7 L733.2,99.5 L733.5,104.1 L733.7,89.1 L734.0,89.8 L734.3,113.2 L734.6,128.6 L734.8,93.0 L735.1,100.1 L735.4,109.0 L735.6,94.1 L735.9,99.5 L736.2,119.1 L736.4,125.0 L736.7,126.4 L737.0,109.0 L737.3,117.2 L737.5,94.0 L737.8,113.0 L738.1,104.1 L738.3,113.9 L738.6,97.3 L738.9,123.3 L739.1,107.3 L739.4,114.5 L739.7,126.9 L740.0,101.6 L740.2,118.2 L740.5,121.9 L740.8,96.0 L741.0,102.6 L741.3,110.9 L741.6,110.0 L741.8,120.4 L742.1,117.0 L742.4,107.8 L742.7,109.6 L742.9,131.5 L743.2,98.9 L743.5,93.4 L743.7,95.6 L744.0,109.7 L744.3,122.3 L744.5,132.3 L744.8,132.5 L745.1,117.7 L745.4,101.5 L745.6,99.6 L745.9,129.8 L746.2,118.7 L746.4,120.4 L746.7,100.7 L747.0,122.0 L747.2,104.2 L747.5,116.4 L747.8,100.0 L748.1,93.6 L748.3,116.1 L748.6,129.4 L748.9,130.6 L749.1,104.7 L749.4,97.4 L749.7,136.8 L749.9,130.6 L750.2,121.2 L750.5,130.3 L750.8,102.3 L751.0,119.4 L751.3,96.9 L751.6,123.5 L751.8,127.8 L752.1,112.3 L752.4,121.7 L752.6,102.2 L752.9,130.0 L753.2,130.3 L753.5,131.2 L753.7,97.1 L754.0,127.7 L754.3,132.9 L754.5,109.5 L754.8,109.4 L755.1,112.8 L755.3,120.4 L755.6,123.7 L755.9,112.4 L756.2,133.4 L756.4,112.8 L756.7,118.6 L757.0,103.1 L757.2,112.1 L757.5,136.7 L757.8,118.7 L758.0,131.0 L758.3,103.2 L758.6,114.6 L758.9,111.6 L759.1,109.7 L759.4,133.4 L759.7,126.5 L759.9,108.1 L760.2,140.5 L760.5,120.2 L760.7,143.1 L761.0,122.1 L761.3,112.0 L761.6,107.6 L761.8,136.7 L762.1,131.7 L762.4,142.6 L762.6,142.5 L762.9,134.0 L763.2,143.5 L763.4,119.7 L763.7,141.5 L764.0,115.8 L764.3,104.6 L764.5,107.4 L764.8,122.4 L765.1,124.4 L765.3,110.2 L765.6,117.1 L765.9,132.0 L766.1,121.8 L766.4,126.0 L766.7,131.6 L767.0,107.7 L767.2,135.1 L767.5,127.0 L767.8,135.8 L768.0,109.6 L768.3,118.0 L768.6,107.8 L768.8,120.2 L769.1,117.3 L769.4,123.1 L769.7,118.3 L769.9,114.4 L770.2,131.6 L770.5,119.4 L770.7,126.4 L771.0,128.3 L771.3,147.0 L771.5,115.8 L771.8,150.7 L772.1,133.5 L772.4,131.3 L772.6,121.6 L772.9,149.8 L773.2,147.0 L773.4,129.7 L773.7,125.4 L774.0,128.1 L774.3,143.2 L774.5,120.1 L774.8,149.4 L775.1,137.6 L775.3,149.3 L775.6,128.2 L775.9,112.0 L776.1,145.6 L776.4,132.0 L776.7,139.9 L777.0,128.9 L777.2,133.1 L777.5,149.6 L777.8,123.1 L778.0,124.9 L778.3,128.3 L778.6,139.9 L778.8,147.5 L779.1,119.6 L779.4,117.0 L779.7,145.9 L779.9,141.2 L780.2,127.0 L780.5,151.9 L780.7,125.1 L781.0,116.2 L781.3,119.8 L781.5,125.1 L781.8,126.5 L782.1,126.1 L782.4,133.9 L782.6,120.4 L782.9,133.0 L783.2,144.2 L783.4,151.0 L783.7,140.5 L784.0,142.7 L784.2,155.8 L784.5,155.3 L784.8,119.6 L785.1,149.6 L785.3,130.9 L785.6,138.8 L785.9,142.8 L786.1,130.2 L786.4,159.4 L786.7,158.8 L786.9,150.9 L787.2,136.5 L787.5,158.8 L787.8,159.8 L788.0,126.3 L788.3,161.2 L788.6,132.4 L788.8,124.7 L789.1,155.6 L789.4,146.9 L789.6,156.3 L789.9,146.8 L790.2,142.4 L790.5,158.9 L790.7,155.1 L791.0,129.1 L791.3,160.6 L791.5,140.2 L791.8,163.8 L792.1,128.5 L792.3,131.5 L792.6,155.6 L792.9,127.3 L793.2,161.2 L793.4,144.2 L793.7,148.9 L794.0,139.4 L794.2,153.5 L794.5,131.7 L794.8,130.6 L795.0,159.7 L795.3,143.1 L795.6,135.0 L795.9,147.1 L796.1,138.0 L796.4,137.0 L796.7,152.9 L796.9,150.5 L797.2,159.3 L797.5,151.9 L797.7,131.4 L798.0,133.1 L798.3,145.1 L798.6,139.6 L798.8,132.3 L799.1,144.3 L799.4,157.3 L799.6,161.9 L799.9,160.2 L800.2,159.2 L800.4,160.5 L800.7,140.8 L801.0,162.6 L801.3,172.4 L801.5,146.4 L801.8,149.8 L802.1,169.2 L802.3,167.8 L802.6,170.2 L802.9,143.2 L803.1,149.0 L803.4,151.0 L803.7,174.3 L804.0,154.3 L804.2,170.5 L804.5,175.8 L804.8,138.7 L805.0,150.9 L805.3,145.6 L805.6,139.5 L805.8,154.3 L806.1,171.6 L806.4,172.8 L806.7,140.2 L806.9,150.6 L807.2,151.5 L807.5,153.7 L807.7,142.6 L808.0,161.5 L808.3,149.8 L808.5,164.5 L808.8,169.1 L809.1,169.3 L809.4,144.5 L809.6,159.8 L809.9,179.2 L810.2,145.2 L810.4,172.3 L810.7,169.5 L811.0,145.6 L811.2,173.6 L811.5,166.4 L811.8,154.2 L812.1,157.1 L812.3,163.8 L812.6,173.4 L812.9,147.8 L813.1,150.4 L813.4,164.7 L813.7,155.2 L813.9,170.7 L814.2,168.1 L814.5,153.5 L814.8,160.9 L815.0,164.8 L815.3,179.7 L815.6,163.7 L815.8,151.8 L816.1,150.5 L816.4,173.0 L816.6,172.3 L816.9,184.1 L817.2,181.0 L817.5,178.3 L817.7,175.6 L818.0,169.6 L818.3,178.3 L818.5,167.3 L818.8,183.3 L819.1,172.3 L819.3,165.2 L819.6,162.0 L819.9,185.4 L820.2,157.6 L820.4,158.5 L820.7,189.0 L821.0,188.5 L821.2,160.8 L821.5,159.0 L821.8,185.1 L822.0,174.7 L822.3,169.4 L822.6,172.9 L822.9,160.6 L823.1,162.2 L823.4,165.5 L823.7,178.3 L823.9,175.6 L824.2,169.9 L824.5,174.9 L824.8,171.3 L825.0,191.4 L825.3,192.2 L825.6,159.6 L825.8,189.1 L826.1,176.7 L826.4,192.4 L826.6,173.2 L826.9,170.6 L827.2,188.4 L827.5,169.4 L827.7,176.7 L828.0,162.1 L828.3,183.2 L828.5,164.2 L828.8,175.1 L829.1,191.7 L829.3,192.4 L829.6,197.7 L829.9,181.4 L830.2,182.4 L830.4,172.6 L830.7,177.6 L831.0,187.4 L831.2,195.8 L831.5,185.7 L831.8,197.7 L832.0,191.0 L832.3,181.6 L832.6,177.7 L832.9,189.3 L833.1,197.4 L833.4,187.5 L833.7,201.3 L833.9,175.1 L834.2,187.0 L834.5,169.7 L834.7,197.3 L835.0,202.5 L835.3,180.7 L835.6,178.1 L835.8,198.8 L836.1,203.3 L836.4,188.6 L836.6,179.5 L836.9,203.4 L837.2,183.0 L837.4,186.9 L837.7,183.4 L838.0,175.1 L838.3,184.5 L838.5,186.3 L838.8,202.3 L839.1,197.4 L839.3,197.7 L839.6,203.7 L839.9,199.2 L840.1,190.8 L840.4,178.3 L840.7,196.7 L841.0,196.1 L841.2,203.8 L841.5,179.8 L841.8,196.3 L842.0,190.4 L842.3,200.9 L842.6,191.0 L842.8,209.9 L843.1,198.1 L843.4,181.8 L843.7,193.2 L843.9,193.0 L844.2,200.3 L844.5,180.2 L844.7,213.7 L845.0,196.3 L845.3,205.5 L845.5,189.6 L845.8,192.5 L846.1,187.9 L846.4,200.0 L846.6,204.2 L846.9,183.0 L847.2,203.2 L847.4,217.4 L847.7,212.9 L848.0,184.3 L848.2,215.3 L848.5,215.7 L848.8,185.9 L849.1,199.9 L849.3,188.2 L849.6,202.2 L849.9,204.3 L850.1,208.5 L850.4,188.9 L850.7,202.2 L850.9,216.7 L851.2,219.0 L851.5,212.6 L851.8,194.6 L852.0,190.0 L852.3,195.2 L852.6,216.1 L852.8,197.1 L853.1,208.4 L853.4,223.1 L853.6,195.4 L853.9,204.4 L854.2,202.7 L854.5,217.0 L854.7,221.8 L855.0,214.4 L855.3,196.2 L855.5,203.2 L855.8,226.7 L856.1,209.6 L856.3,196.9 L856.6,221.9 L856.9,228.2 L857.2,225.1 L857.4,197.3 L857.7,214.4 L858.0,228.8 L858.2,219.8 L858.5,226.3 L858.8,223.8 L859.0,199.6 L859.3,225.8 L859.6,223.9 L859.9,201.3 L860.1,216.1 L860.4,226.6 L860.7,210.1 L860.9,207.2 L861.2,214.6 L861.5,212.4 L861.7,219.7 L862.0,214.0 L862.3,210.9 L862.6,219.9 L862.8,213.2 L863.1,211.0 L863.4,234.3 L863.6,231.3 L863.9,220.5 L864.2,208.4 L864.4,229.4 L864.7,233.4 L865.0,235.4 L865.3,207.3 L865.5,209.9 L865.8,207.7 L866.1,222.9 L866.3,222.5 L866.6,235.8 L866.9,226.9 L867.1,222.9 L867.4,231.7 L867.7,217.7 L868.0,231.8 L868.2,217.2 L868.5,226.2 L868.8,211.0 L869.0,228.6 L869.3,221.5 L869.6,235.5 L869.8,237.8 L870.1,220.5 L870.4,214.3 L870.7,227.3 L870.9,213.0 L871.2,242.6 L871.5,242.5 L871.7,237.4 L872.0,245.0 L872.3,241.0 L872.5,221.9 L872.8,239.0 L873.1,215.9 L873.4,225.9 L873.6,234.0 L873.9,219.0 L874.2,221.0 L874.4,226.9 L874.7,239.4 L875.0,236.0 L875.2,223.5 L875.5,222.3 L875.8,247.3 L876.1,236.1 L876.3,235.6 L876.6,249.0 L876.9,236.7 L877.1,226.0 L877.4,230.0 L877.7,236.3 L878.0,245.2 L878.2,238.9 L878.5,227.7 L878.8,249.2 L879.0,240.4 L879.3,241.2 L879.6,229.0 L879.8,242.6 L880.1,244.4 L880.4,252.7 L880.7,240.2 L880.9,246.9 L881.2,226.8 L881.5,253.9 L881.7,253.9 L882.0,243.8 L882.3,242.2 L882.5,254.8 L882.8,243.0 L883.1,234.4 L883.4,250.1 L883.6,251.3 L883.9,230.8 L884.2,251.7 L884.4,234.3 L884.7,249.5 L885.0,240.6 L885.2,232.6 L885.5,251.4 L885.8,257.1 L886.1,243.7 L886.3,260.8 L886.6,234.9 L886.9,262.7 L887.1,240.3 L887.4,255.8 L887.7,254.0 L887.9,239.5 L888.2,260.9 L888.5,261.2 L888.8,263.3 L889.0,262.9 L889.3,251.1 L889.6,241.1 L889.8,249.4 L890.1,255.1 L890.4,255.9 L890.6,248.7 L890.9,267.0 L891.2,265.4 L891.5,252.5 L891.7,247.2 L892.0,264.6 L892.3,254.6 L892.5,251.6 L892.8,250.1 L893.1,246.4 L893.3,270.1 L893.6,260.5 L893.9,269.2 L894.2,251.9 L894.4,257.3 L894.7,255.8 L895.0,266.2 L895.2,272.2 L895.5,271.7 L895.8,268.2 L896.0,251.0 L896.3,250.9 L896.6,268.4 L896.9,249.5 L897.1,252.9 L897.4,267.2 L897.7,258.0 L897.9,252.5 L898.2,262.8 L898.5,260.9 L898.7,261.1 L899.0,270.5 L899.3,263.2 L899.6,251.5 L899.8,271.9 L900.1,272.8 L900.4,253.7 L900.6,256.5 L900.9,262.8 L901.2,280.7 L901.4,275.3 L901.7,281.4 L902.0,254.5 L902.3,275.4 L902.5,260.2 L902.8,281.8 L903.1,273.1 L903.3,256.3 L903.6,265.3 L903.9,264.0 L904.1,278.6 L904.4,276.8 L904.7,276.7 L905.0,259.0 L905.2,262.4 L905.5,276.8 L905.8,286.6 L906.0,276.7 L906.3,284.4 L906.6,278.0 L906.8,272.7 L907.1,283.4 L907.4,263.9 L907.7,270.4 L907.9,271.2 L908.2,274.5 L908.5,272.6 L908.7,276.8 L909.0,285.7 L909.3,283.4 L909.5,280.0 L909.8,281.2 L910.1,282.6 L910.4,292.7 L910.6,289.8 L910.9,274.9 L911.2,277.5 L911.4,289.8 L911.7,290.2 L912.0,294.4 L912.2,277.1 L912.5,280.1 L912.8,272.9 L913.1,272.9 L913.3,280.2 L913.6,273.0 L913.9,291.6 L914.1,279.8 L914.4,275.4 L914.7,277.2 L914.9,278.2 L915.2,281.9 L915.5,283.2 L915.8,299.0 L916.0,292.7 L916.3,300.0 L916.6,277.7 L916.8,281.6 L917.1,293.3 L917.4,298.0 L917.6,299.2 L917.9,288.0 L918.2,301.8 L918.5,280.5 L918.7,294.5 L919.0,299.6 L919.3,293.7 L919.5,281.7 L919.8,296.8 L920.1,298.3 L920.3,293.9 L920.6,295.2 L920.9,282.2 L921.2,285.6 L921.4,282.9 L921.7,299.2 L922.0,305.5 L922.2,295.4 L922.5,287.1 L922.8,302.7 L923.0,293.1 L923.3,307.4 L923.6,304.3 L923.9,298.3 L924.1,292.4 L924.4,288.3 L924.7,291.1 L924.9,307.8 L925.2,303.8 L925.5,296.1 L925.7,302.9 L926.0,313.2 L926.3,290.7 L926.6,298.9 L926.8,293.7 L927.1,312.8 L927.4,303.3 L927.6,303.5 L927.9,307.7 L928.2,306.1 L928.5,314.5 L928.7,314.5 L929.0,306.4 L929.3,311.6 L929.5,304.4 L929.8,296.9 L930.1,307.5 L930.3,309.7 L930.6,308.8 L930.9,300.5 L931.2,305.3 L931.4,296.5 L931.7,305.0 L932.0,304.9 L932.2,316.5 L932.5,321.6 L932.8,299.1 L933.0,303.8 L933.3,312.1 L933.6,306.6 L933.9,303.0 L934.1,314.1 L934.4,316.2 L934.7,316.1 L934.9,313.2 L935.2,309.1 L935.5,311.2 L935.7,319.1 L936.0,318.4 L936.3,319.5 L936.6,324.4 L936.8,318.4 L937.1,317.3 L937.4,312.4 L937.6,311.4 L937.9,320.9 L938.2,306.6 L938.4,317.9 L938.7,309.4 L939.0,318.2 L939.3,314.0 L939.5,324.8 L939.8,325.8 L940.1,319.3 L940.3,316.2 L940.6,327.1 L940.9,320.9 L941.1,313.2 L941.4,329.7 L941.7,329.1 L942.0,332.3 L942.2,324.7 L942.5,327.5 L942.8,314.7 L943.0,314.1 L943.3,333.5 L943.6,321.9 L943.8,326.3 L944.1,316.3 L944.4,334.9 L944.7,325.0 L944.9,334.9 L945.2,335.7 L945.5,318.0 L945.7,337.7 L946.0,329.4 L946.3,333.7 L946.5,323.5 L946.8,338.9 L947.1,323.2 L947.4,341.4 L947.6,338.9 L947.9,332.5 L948.2,328.8 L948.4,325.9 L948.7,343.1 L949.0,327.7 L949.2,324.3 L949.5,332.1 L949.8,333.3 L950.1,330.1 L950.3,331.5 L950.6,343.0 L950.9,344.9 L951.1,327.5 L951.4,338.4 L951.7,347.0 L951.9,347.6 L952.2,346.5 L952.5,336.7 L952.8,341.8 L953.0,334.5 L953.3,331.7 L953.6,343.6 L953.8,344.9 L954.1,333.9 L954.4,346.8 L954.6,352.1 L954.9,338.8 L955.2,349.6 L955.5,347.3 L955.7,348.9 L956.0,349.2 L956.3,348.4 L956.5,343.3 L956.8,344.1 L957.1,338.0 L957.3,341.1 L957.6,349.3 L957.9,348.5 L958.2,345.3 L958.4,344.5 L958.7,353.9 L959.0,347.6 L959.2,341.0 L959.5,346.8 L959.8,342.2 L960.0,343.3 L960.3,343.8 L960.6,347.0 L960.9,356.1 L961.1,357.5 L961.4,344.4 L961.7,343.5 L961.9,358.0 L962.2,357.5 L962.5,347.6 L962.7,345.1 L963.0,363.0 L963.3,362.7 L963.6,364.1 L963.8,357.7 L964.1,361.9 L964.4,350.2 L964.6,364.9 L964.9,349.1 L965.2,357.8 L965.4,365.4 L965.7,364.3 L966.0,353.6 L966.3,361.0 L966.5,356.3 L966.8,361.0 L967.1,362.0 L967.3,353.9 L967.6,363.2 L967.9,362.3 L968.1,366.5 L968.4,363.8 L968.7,362.3 L969.0,356.1 L969.2,358.9 L969.5,366.3 L969.8,365.2 L970.0,370.9 L970.3,359.6 L970.6,372.8 L970.8,372.6 L971.1,374.3 L971.4,371.3 L971.7,365.3 L971.9,364.1 L972.2,369.4 L972.5,376.2 L972.7,362.6 L973.0,373.5 L973.3,376.4 L973.5,374.8 L973.8,374.9 L974.1,362.9 L974.4,373.2 L974.6,369.0 L974.9,377.9 L975.2,369.8 L975.4,371.1 L975.7,376.9 L976.0,379.8 L976.2,376.4 L976.5,366.3 L976.8,368.4 L977.1,367.9 L977.3,382.4 L977.6,377.2 L977.9,368.0 L978.1,378.8 L978.4,375.7 L978.7,374.5 L978.9,384.9 L979.2,375.2 L979.5,371.1 L979.8,383.1 L980.0,373.5 L980.3,384.5 L980.6,373.6 L980.8,387.6 L981.1,380.2 L981.4,387.1 L981.7,381.1 L981.9,389.6 L982.2,388.3 L982.5,382.8 L982.7,377.6 L983.0,380.2 L983.3,391.5 L983.5,388.7 L983.8,377.6 L984.1,385.2 L984.4,380.7 L984.6,380.7 L984.9,379.1 L985.2,384.8 L985.4,384.2 L985.7,381.8 L986.0,385.4 L986.2,391.5 L986.5,390.5 L986.8,383.8 L987.1,384.1 L987.3,394.0 L987.6,389.0 L987.9,398.5 L988.1,387.1 L988.4,389.6 L988.7,397.7 L988.9,400.2 L989.2,388.4 L989.5,393.4 L989.8,391.5 L990.0,399.8 L990.3,400.7 L990.6,388.6 L990.8,393.8 L991.1,403.6 L991.4,390.8 L991.6,398.5 L991.9,402.5 L992.2,394.3 L992.5,394.2 L992.7,398.9 L993.0,393.3 L993.3,405.4 L993.5,402.3 L993.8,406.8 L994.1,406.2 L994.3,396.2 L994.6,401.6 L994.9,399.9 L995.2,407.8 L995.4,405.0 L995.7,403.2 L996.0,399.4 L996.2,402.3 L996.5,403.3 L996.8,403.8 L997.0,410.6 L997.3,402.1 L997.6,412.2 L997.9,407.1 L998.1,406.8 L998.4,411.3 L998.7,408.7 L998.9,407.2 L999.2,403.6 L999.5,409.0 L999.7,413.4 L1000.0,412.3 L1000.3,413.9 L1000.6,407.8 L1000.8,408.3 L1001.1,412.4 L1001.4,416.6 L1001.6,415.6 L1001.9,417.8 L1002.2,415.2 L1002.4,414.9 L1002.7,417.6 L1003.0,418.3 L1003.3,419.5 L1003.5,410.0 L1003.8,415.0 L1004.1,410.8 L1004.3,417.7 L1004.6,420.1 L1004.9,416.1 L1005.1,416.2 L1005.4,418.2 L1005.7,413.2 L1006.0,423.7 L1006.2,425.4 L1006.5,422.7 L1006.8,426.7 L1007.0,417.8 L1007.3,418.1 L1007.6,425.5 L1007.8,428.0 L1008.1,417.7 L1008.4,427.9 L1008.7,424.3 L1008.9,421.3 L1009.2,420.4 L1009.5,428.7 L1009.7,428.9 L1010.0,429.5 L1010.3,430.9 L1010.5,420.3 L1010.8,430.6 L1011.1,428.9 L1011.4,427.3 L1011.6,433.4 L1011.9,429.2 L1012.2,430.2 L1012.4,429.7 L1012.7,430.8 L1013.0,427.9 L1013.2,426.6 L1013.5,429.0 L1013.8,434.9 L1014.1,426.6 L1014.3,436.1 L1014.6,431.7 L1014.9,435.3 L1015.1,436.0 L1015.4,432.4 L1015.7,432.9 L1015.9,433.7 L1016.2,436.5 L1016.5,440.9 L1016.8,434.7 L1017.0,432.8 L1017.3,438.3 L1017.6,434.7 L1017.8,439.1 L1018.1,438.9 L1018.4,442.2 L1018.6,438.5 L1018.9,443.0 L1019.2,440.9 L1019.5,434.8 L1019.7,444.1 L1020.0,444.8 L1020.3,438.2 L1020.5,446.2 L1020.8,443.8 L1021.1,440.5 L1021.3,445.6 L1021.6,438.4 L1021.9,447.9 L1022.2,445.3 L1022.4,449.1 L1022.7,443.4 L1023.0,446.1 L1023.2,450.8 L1023.5,449.3 L1023.8,441.9 L1024.0,447.6 L1024.3,443.1 L1024.6,447.1 L1024.9,445.9 L1025.1,451.5 L1025.4,446.5 L1025.7,445.6 L1025.9,450.7 L1026.2,448.0 L1026.5,451.8 L1026.7,449.7 L1027.0,450.5 L1027.3,453.0 L1027.6,451.2 L1027.8,450.7 L1028.1,451.8 L1028.4,457.1 L1028.6,450.3 L1028.9,458.5 L1029.2,456.4 L1029.4,453.2 L1029.7,457.2 L1030.0,457.4 L1030.3,456.4 L1030.5,454.8 L1030.8,459.5 L1031.1,456.9 L1031.3,460.0 L1031.6,462.7 L1031.9,460.0 L1032.2,456.4 L1032.4,459.3 L1032.7,462.9 L1033.0,463.7 L1033.2,458.0 L1033.5,463.2 L1033.8,466.0 L1034.0,458.9 L1034.3,467.0 L1034.6,463.7 L1034.9,467.6 L1035.1,466.9 L1035.4,461.7 L1035.7,463.7 L1035.9,464.1 L1036.2,464.4 L1036.5,465.1 L1036.7,470.7 L1037.0,469.1 L1037.3,465.0 L1037.6,466.4 L1037.8,471.1 L1038.1,468.8 L1038.4,471.1 L1038.6,467.5 L1038.9,472.2 L1039.2,470.7 L1039.4,471.6 L1039.7,475.7 L1040.0,475.7 L1040.3,469.5 L1040.5,472.7 L1040.8,471.6 L1041.1,472.6 L1041.3,473.6 L1041.6,477.1 L1041.9,475.8 L1042.1,475.6 L1042.4,474.6 L1042.7,478.8 L1043.0,477.4 L1043.2,474.3 L1043.5,475.8 L1043.8,477.6 L1044.0,479.0 L1044.3,481.8 L1044.6,480.3 L1044.8,477.6 L1045.1,482.1 L1045.4,478.5 L1045.7,478.6 L1045.9,478.9 L1046.2,484.5 L1046.5,482.7 L1046.7,484.1 L1047.0,484.6 L1047.3,482.2 L1047.5,484.1 L1047.8,488.2 L1048.1,483.9 L1048.4,483.0 L1048.6,484.2 L1048.9,484.0 L1049.2,489.6 L1049.4,488.6 L1049.7,488.9 L1050.0,486.3 L1050.2,486.8 L1050.5,489.0 L1050.8,491.7 L1051.1,487.3 L1051.3,492.5 L1051.6,493.9 L1051.9,492.9 L1052.1,491.0 L1052.4,491.2 L1052.7,491.5 L1052.9,494.1 L1053.2,495.9 L1053.5,495.4 L1053.8,493.8 L1054.0,493.6 L1054.3,497.8 L1054.6,494.6 L1054.8,497.3 L1055.1,494.3 L1055.4,499.1 L1055.6,495.2 L1055.9,495.9 L1056.2,500.6 L1056.5,501.1 L1056.7,499.4 L1057.0,497.8 L1057.3,500.0 L1057.5,499.3 L1057.8,501.5 L1058.1,500.4 L1058.3,503.4 L1058.6,500.2 L1058.9,501.7 L1059.2,503.3 L1059.4,504.9 L1059.7,505.4 L1060.0,505.2 L1060.2,502.9 L1060.5,504.0 L1060.8,505.3 L1061.0,507.9 L1061.3,505.7 L1061.6,507.3 L1061.9,507.6 L1062.1,508.1 L1062.4,509.8 L1062.7,509.8 L1062.9,509.8 L1063.2,511.6 L1063.5,509.2 L1063.7,511.5 L1064.0,511.5 L1064.3,510.0 L1064.6,510.6 L1064.8,511.1 L1065.1,511.9 L1065.4,511.7 L1065.6,514.9 L1065.9,515.0 L1066.2,514.4 L1066.4,513.4 L1066.7,514.0 L1067.0,516.4 L1067.3,517.8 L1067.5,518.3 L1067.8,516.5 L1068.1,518.6 L1068.3,517.1 L1068.6,519.5 L1068.9,517.9 L1069.1,520.2 L1069.4,519.5 L1069.7,520.1 L1070.0,520.6 L1070.2,520.1 L1070.5,520.7 L1070.8,523.1 L1071.0,522.6 L1071.3,523.5 L1071.6,524.3 L1071.8,524.6 L1072.1,525.1 L1072.4,525.3 L1072.7,525.5 L1072.9,525.3 L1073.2,526.2 L1073.5,525.9 L1073.7,527.6 L1074.0,526.7 L1074.3,527.8 L1074.5,529.0 L1074.8,529.3 L1075.1,530.0 L1075.4,530.1 L1075.6,529.2 L1075.9,530.8 L1076.2,531.2 L1076.4,530.8 L1076.7,530.9 L1077.0,532.5 L1077.2,531.9 L1077.5,532.2 L1077.8,533.8 L1078.1,534.4 L1078.3,534.5 L1078.6,534.9 L1078.9,535.6 L1079.1,536.0 L1079.4,536.0 L1079.7,536.2 L1079.9,536.9 L1080.2,537.2 L1080.5,538.1 L1080.8,538.7 L1081.0,538.9 L1081.3,538.7 L1081.6,539.6 L1081.8,539.7 L1082.1,540.9 L1082.4,540.7 L1082.6,541.4 L1082.9,541.6 L1083.2,542.4 L1083.5,542.4 L1083.7,543.3 L1084.0,543.8" fill="none" stroke="#1f77b4" stroke-width="1.4" opacity="0.85"/><text x="1040" y="54" fill="#ff7f0e" font-size="11">roll 18</text><text x="1090" y="558" fill="#ff7f0e" font-size="11">-17</text><path d="M616.0,311.3 L616.3,311.3 L616.5,311.3 L616.8,311.3 L617.1,311.3 L617.4,311.3 L617.6,311.3 L617.9,311.3 L618.2,311.3 L618.4,311.3 L618.7,311.3 L619.0,311.3 L619.2,311.3 L619.5,311.3 L619.8,311.3 L620.1,311.3 L620.3,311.3 L620.6,311.3 L620.9,311.3 L621.1,311.3 L621.4,311.3 L621.7,311.3 L621.9,311.3 L622.2,311.3 L622.5,311.3 L622.8,311.3 L623.0,311.3 L623.3,311.3 L623.6,311.3 L623.8,311.3 L624.1,311.3 L624.4,311.3 L624.6,311.3 L624.9,311.3 L625.2,311.3 L625.5,311.3 L625.7,311.3 L626.0,311.3 L626.3,311.3 L626.5,311.3 L626.8,311.3 L627.1,311.3 L627.3,311.3 L627.6,311.3 L627.9,311.3 L628.2,311.3 L628.4,311.3 L628.7,311.3 L629.0,311.3 L629.2,311.3 L629.5,311.3 L629.8,311.3 L630.0,311.3 L630.3,311.3 L630.6,311.3 L630.9,311.3 L631.1,311.3 L631.4,311.3 L631.7,311.3 L631.9,311.3 L632.2,311.3 L632.5,311.3 L632.7,311.3 L633.0,311.3 L633.3,311.3 L633.6,311.3 L633.8,311.3 L634.1,311.3 L634.4,311.3 L634.6,311.3 L634.9,311.3 L635.2,311.3 L635.4,311.3 L635.7,311.3 L636.0,311.3 L636.3,311.3 L636.5,311.3 L636.8,311.3 L637.1,311.3 L637.3,311.3 L637.6,311.3 L637.9,311.3 L638.1,311.3 L638.4,311.3 L638.7,311.3 L639.0,311.3 L639.2,311.3 L639.5,311.3 L639.8,311.3 L640.0,311.3 L640.3,311.3 L640.6,311.3 L640.8,311.3 L641.1,311.3 L641.4,311.3 L641.7,311.3 L641.9,311.3 L642.2,311.3 L642.5,311.3 L642.7,311.3 L643.0,311.3 L643.3,311.3 L643.5,311.3 L643.8,311.3 L644.1,311.3 L644.4,311.3 L644.6,311.3 L644.9,311.3 L645.2,311.3 L645.4,311.3 L645.7,311.3 L646.0,311.3 L646.2,311.3 L646.5,311.3 L646.8,311.3 L647.1,311.3 L647.3,311.3 L647.6,311.3 L647.9,311.3 L648.1,311.3 L648.4,311.3 L648.7,311.3 L648.9,311.3 L649.2,311.3 L649.5,311.3 L649.8,311.3 L650.0,311.3 L650.3,311.3 L650.6,311.3 L650.8,311.3 L651.1,311.3 L651.4,311.3 L651.6,311.3 L651.9,311.3 L652.2,311.3 L652.5,311.3 L652.7,311.3 L653.0,311.3 L653.3,311.3 L653.5,311.3 L653.8,311.3 L654.1,311.3 L654.3,311.3 L654.6,311.3 L654.9,311.3 L655.2,311.3 L655.4,311.3 L655.7,311.3 L656.0,311.3 L656.2,311.3 L656.5,311.3 L656.8,311.3 L657.0,311.3 L657.3,311.3 L657.6,311.3 L657.9,311.3 L658.1,311.3 L658.4,311.3 L658.7,311.3 L658.9,311.3 L659.2,311.3 L659.5,311.3 L659.7,311.3 L660.0,311.3 L660.3,311.3 L660.6,311.3 L660.8,311.3 L661.1,311.3 L661.4,311.3 L661.6,311.3 L661.9,311.3 L662.2,311.3 L662.4,311.3 L662.7,311.3 L663.0,311.3 L663.3,311.3 L663.5,311.3 L663.8,311.3 L664.1,311.3 L664.3,311.3 L664.6,311.3 L664.9,311.3 L665.1,311.3 L665.4,311.3 L665.7,311.3 L666.0,311.3 L666.2,311.3 L666.5,311.3 L666.8,311.3 L667.0,311.3 L667.3,311.3 L667.6,311.3 L667.8,311.3 L668.1,311.3 L668.4,311.3 L668.7,311.3 L668.9,311.3 L669.2,311.3 L669.5,311.3 L669.7,311.3 L670.0,311.3 L670.3,311.3 L670.6,311.3 L670.8,311.3 L671.1,311.3 L671.4,311.3 L671.6,311.3 L671.9,311.3 L672.2,311.3 L672.4,311.3 L672.7,311.3 L673.0,311.3 L673.3,311.3 L673.5,311.3 L673.8,311.3 L674.1,311.3 L674.3,311.3 L674.6,311.3 L674.9,311.3 L675.1,311.3 L675.4,311.3 L675.7,311.3 L676.0,311.3 L676.2,311.3 L676.5,311.3 L676.8,311.3 L677.0,311.3 L677.3,311.3 L677.6,311.3 L677.8,311.3 L678.1,311.3 L678.4,311.3 L678.7,311.3 L678.9,311.3 L679.2,311.3 L679.5,311.3 L679.7,311.3 L680.0,311.3 L680.3,311.3 L680.5,311.3 L680.8,311.3 L681.1,311.3 L681.4,311.3 L681.6,311.3 L681.9,311.3 L682.2,311.3 L682.4,311.3 L682.7,311.3 L683.0,311.3 L683.2,311.3 L683.5,311.3 L683.8,311.3 L684.1,311.3 L684.3,311.3 L684.6,311.3 L684.9,311.3 L685.1,311.3 L685.4,311.3 L685.7,311.3 L685.9,311.3 L686.2,311.3 L686.5,311.3 L686.8,311.3 L687.0,311.3 L687.3,311.3 L687.6,311.3 L687.8,311.3 L688.1,311.3 L688.4,311.3 L688.6,311.3 L688.9,311.3 L689.2,311.3 L689.5,311.3 L689.7,311.3 L690.0,311.3 L690.3,311.3 L690.5,311.3 L690.8,311.3 L691.1,311.3 L691.3,311.3 L691.6,311.3 L691.9,311.3 L692.2,311.3 L692.4,311.3 L692.7,311.3 L693.0,311.3 L693.2,311.3 L693.5,311.3 L693.8,311.3 L694.0,311.3 L694.3,311.3 L694.6,311.3 L694.9,311.3 L695.1,311.3 L695.4,311.3 L695.7,311.3 L695.9,311.3 L696.2,311.3 L696.5,311.3 L696.7,311.3 L697.0,311.3 L697.3,311.3 L697.6,311.3 L697.8,311.3 L698.1,311.3 L698.4,311.3 L698.6,311.3 L698.9,304.6 L699.2,291.2 L699.4,277.7 L699.7,265.6 L700.0,257.6 L700.3,246.8 L700.5,233.3 L700.8,223.9 L701.1,221.2 L701.3,211.8 L701.6,199.7 L701.9,189.0 L702.1,189.0 L702.4,175.5 L702.7,171.5 L703.0,160.7 L703.2,170.1 L703.5,151.3 L703.8,159.4 L704.0,143.2 L704.3,154.0 L704.6,148.6 L704.8,135.2 L705.1,129.8 L705.4,131.1 L705.7,128.4 L705.9,119.0 L706.2,129.8 L706.5,129.8 L706.7,123.1 L707.0,116.3 L707.3,108.3 L707.5,106.9 L707.8,112.3 L708.1,116.3 L708.4,104.2 L708.6,101.6 L708.9,113.7 L709.2,112.3 L709.4,94.8 L709.7,102.9 L710.0,113.7 L710.2,93.5 L710.5,96.2 L710.8,106.9 L711.1,92.1 L711.3,113.7 L711.6,98.9 L711.9,108.3 L712.1,92.1 L712.4,97.5 L712.7,108.3 L712.9,89.4 L713.2,104.2 L713.5,88.1 L713.8,109.6 L714.0,97.5 L714.3,105.6 L714.6,89.4 L714.8,111.0 L715.1,89.4 L715.4,101.6 L715.6,89.4 L715.9,101.6 L716.2,111.0 L716.5,97.5 L716.7,96.2 L717.0,94.8 L717.3,88.1 L717.5,109.6 L717.8,109.6 L718.1,113.7 L718.3,101.6 L718.6,121.7 L718.9,112.3 L719.2,111.0 L719.4,121.7 L719.7,115.0 L720.0,127.1 L720.2,116.3 L720.5,113.7 L720.8,116.3 L721.1,139.2 L721.3,120.4 L721.6,141.9 L721.9,140.6 L722.1,156.7 L722.4,155.3 L722.7,137.9 L722.9,164.8 L723.2,160.7 L723.5,140.6 L723.8,171.5 L724.0,162.1 L724.3,175.5 L724.6,162.1 L724.8,164.8 L725.1,159.4 L725.4,171.5 L725.6,154.0 L725.9,179.6 L726.2,171.5 L726.5,159.4 L726.7,180.9 L727.0,178.2 L727.3,178.2 L727.5,180.9 L727.8,197.0 L728.1,179.6 L728.3,203.8 L728.6,221.2 L728.9,241.4 L729.2,252.2 L729.4,272.3 L729.7,285.8 L730.0,299.2 L730.2,315.4 L730.5,327.5 L730.8,339.6 L731.0,351.7 L731.3,362.4 L731.6,375.9 L731.9,390.7 L732.1,398.8 L732.4,400.1 L732.7,420.3 L732.9,420.3 L733.2,428.3 L733.5,429.7 L733.7,441.8 L734.0,451.2 L734.3,456.6 L734.6,453.9 L734.8,463.3 L735.1,462.0 L735.4,468.7 L735.6,472.7 L735.9,475.4 L736.2,492.9 L736.4,492.9 L736.7,480.8 L737.0,495.6 L737.3,505.0 L737.5,491.6 L737.8,506.3 L738.1,494.2 L738.3,513.1 L738.6,506.3 L738.9,511.7 L739.1,505.0 L739.4,521.1 L739.7,503.7 L740.0,509.0 L740.2,514.4 L740.5,519.8 L740.8,506.3 L741.0,518.4 L741.3,526.5 L741.6,526.5 L741.8,511.7 L742.1,531.9 L742.4,529.2 L742.7,519.8 L742.9,534.6 L743.2,514.4 L743.5,519.8 L743.7,522.5 L744.0,521.1 L744.3,531.9 L744.5,526.5 L744.8,529.2 L745.1,531.9 L745.4,523.8 L745.6,518.4 L745.9,522.5 L746.2,527.9 L746.4,525.2 L746.7,521.1 L747.0,538.6 L747.2,535.9 L747.5,523.8 L747.8,521.1 L748.1,530.6 L748.3,534.6 L748.6,526.5 L748.9,535.9 L749.1,521.1 L749.4,525.2 L749.7,530.6 L749.9,535.9 L750.2,526.5 L750.5,519.8 L750.8,534.6 L751.0,518.4 L751.3,537.3 L751.6,530.6 L751.8,535.9 L752.1,537.3 L752.4,530.6 L752.6,534.6 L752.9,525.2 L753.2,530.6 L753.5,523.8 L753.7,534.6 L754.0,538.6 L754.3,519.8 L754.5,534.6 L754.8,525.2 L755.1,525.2 L755.3,526.5 L755.6,544.0 L755.9,531.9 L756.2,529.2 L756.4,529.2 L756.7,529.2 L757.0,531.9 L757.2,540.0 L757.5,538.6 L757.8,533.2 L758.0,527.9 L758.3,531.9 L758.6,531.9 L758.9,527.9 L759.1,537.3 L759.4,525.2 L759.7,527.9 L759.9,523.8 L760.2,538.6 L760.5,526.5 L760.7,526.5 L761.0,525.2 L761.3,541.3 L761.6,530.6 L761.8,526.5 L762.1,530.6 L762.4,534.6 L762.6,540.0 L762.9,518.4 L763.2,541.3 L763.4,518.4 L763.7,540.0 L764.0,517.1 L764.3,523.8 L764.5,529.2 L764.8,541.3 L765.1,518.4 L765.3,535.9 L765.6,535.9 L765.9,534.6 L766.1,523.8 L766.4,529.2 L766.7,522.5 L767.0,526.5 L767.2,533.2 L767.5,521.1 L767.8,526.5 L768.0,529.2 L768.3,527.9 L768.6,523.8 L768.8,526.5 L769.1,521.1 L769.4,538.6 L769.7,518.4 L769.9,530.6 L770.2,527.9 L770.5,535.9 L770.7,540.0 L771.0,537.3 L771.3,529.2 L771.5,523.8 L771.8,533.2 L772.1,523.8 L772.4,529.2 L772.6,535.9 L772.9,526.5 L773.2,537.3 L773.4,540.0 L773.7,525.2 L774.0,529.2 L774.3,527.9 L774.5,529.2 L774.8,530.6 L775.1,531.9 L775.3,529.2 L775.6,527.9 L775.9,537.3 L776.1,513.1 L776.4,496.9 L776.7,460.6 L777.0,451.2 L777.2,423.0 L777.5,410.9 L777.8,390.7 L778.0,375.9 L778.3,361.1 L778.6,345.0 L778.8,328.8 L779.1,315.4 L779.4,300.6 L779.7,289.8 L779.9,275.0 L780.2,264.3 L780.5,253.5 L780.7,238.7 L781.0,226.6 L781.3,217.2 L781.5,217.2 L781.8,203.8 L782.1,199.7 L782.4,182.2 L782.6,187.6 L782.9,178.2 L783.2,168.8 L783.4,158.0 L783.7,160.7 L784.0,158.0 L784.2,155.3 L784.5,139.2 L784.8,148.6 L785.1,137.9 L785.3,133.8 L785.6,135.2 L785.9,129.8 L786.1,124.4 L786.4,133.8 L786.7,113.7 L786.9,124.4 L787.2,124.4 L787.5,105.6 L787.8,119.0 L788.0,116.3 L788.3,113.7 L788.6,102.9 L788.8,104.2 L789.1,106.9 L789.4,111.0 L789.6,113.7 L789.9,102.9 L790.2,102.9 L790.5,102.9 L790.7,93.5 L791.0,113.7 L791.3,89.4 L791.5,96.2 L791.8,93.5 L792.1,106.9 L792.3,105.6 L792.6,104.2 L792.9,93.5 L793.2,97.5 L793.4,100.2 L793.7,102.9 L794.0,98.9 L794.2,98.9 L794.5,89.4 L794.8,105.6 L795.0,102.9 L795.3,92.1 L795.6,88.1 L795.9,92.1 L796.1,105.6 L796.4,90.8 L796.7,84.1 L796.9,94.8 L797.2,92.1 L797.5,84.1 L797.7,105.6 L798.0,88.1 L798.3,84.1 L798.6,92.1 L798.8,94.8 L799.1,89.4 L799.4,90.8 L799.6,89.4 L799.9,104.2 L800.2,77.3 L800.4,101.6 L800.7,96.2 L801.0,82.7 L801.3,92.1 L801.5,100.2 L801.8,98.9 L802.1,85.4 L802.3,88.1 L802.6,98.9 L802.9,85.4 L803.1,85.4 L803.4,97.5 L803.7,80.0 L804.0,88.1 L804.2,85.4 L804.5,96.2 L804.8,102.9 L805.0,94.8 L805.3,102.9 L805.6,98.9 L805.8,94.8 L806.1,98.9 L806.4,86.8 L806.7,82.7 L806.9,96.2 L807.2,96.2 L807.5,80.0 L807.7,92.1 L808.0,97.5 L808.3,85.4 L808.5,94.8 L808.8,101.6 L809.1,97.5 L809.4,89.4 L809.6,96.2 L809.9,94.8 L810.2,90.8 L810.4,90.8 L810.7,96.2 L811.0,98.9 L811.2,89.4 L811.5,82.7 L811.8,101.6 L812.1,100.2 L812.3,100.2 L812.6,80.0 L812.9,89.4 L813.1,96.2 L813.4,101.6 L813.7,98.9 L813.9,77.3 L814.2,104.2 L814.5,80.0 L814.8,101.6 L815.0,97.5 L815.3,84.1 L815.6,88.1 L815.8,89.4 L816.1,101.6 L816.4,80.0 L816.6,93.5 L816.9,98.9 L817.2,98.9 L817.5,98.9 L817.7,90.8 L818.0,100.2 L818.3,92.1 L818.5,90.8 L818.8,89.4 L819.1,88.1 L819.3,88.1 L819.6,89.4 L819.9,81.4 L820.2,82.7 L820.4,92.1 L820.7,86.8 L821.0,86.8 L821.2,97.5 L821.5,100.2 L821.8,84.1 L822.0,93.5 L822.3,80.0 L822.6,97.5 L822.9,97.5 L823.1,97.5 L823.4,100.2 L823.7,89.4 L823.9,100.2 L824.2,77.3 L824.5,88.1 L824.8,85.4 L825.0,104.2 L825.3,90.8 L825.6,93.5 L825.8,86.8 L826.1,85.4 L826.4,102.9 L826.6,93.5 L826.9,85.4 L827.2,97.5 L827.5,92.1 L827.7,89.4 L828.0,86.8 L828.3,82.7 L828.5,97.5 L828.8,90.8 L829.1,80.0 L829.3,104.2 L829.6,92.1 L829.9,82.7 L830.2,88.1 L830.4,101.6 L830.7,85.4 L831.0,101.6 L831.2,88.1 L831.5,82.7 L831.8,93.5 L832.0,93.5 L832.3,94.8 L832.6,92.1 L832.9,89.4 L833.1,100.2 L833.4,78.7 L833.7,102.9 L833.9,82.7 L834.2,85.4 L834.5,96.2 L834.7,88.1 L835.0,98.9 L835.3,101.6 L835.6,81.4 L835.8,85.4 L836.1,92.1 L836.4,88.1 L836.6,85.4 L836.9,105.6 L837.2,86.8 L837.4,88.1 L837.7,94.8 L838.0,86.8 L838.3,104.2 L838.5,89.4 L838.8,89.4 L839.1,98.9 L839.3,89.4 L839.6,102.9 L839.9,81.4 L840.1,85.4 L840.4,100.2 L840.7,97.5 L841.0,84.1 L841.2,106.9 L841.5,92.1 L841.8,98.9 L842.0,85.4 L842.3,86.8 L842.6,102.9 L842.8,98.9 L843.1,88.1 L843.4,92.1 L843.7,82.7 L843.9,98.9 L844.2,100.2 L844.5,93.5 L844.7,98.9 L845.0,96.2 L845.3,93.5 L845.5,81.4 L845.8,85.4 L846.1,88.1 L846.4,81.4 L846.6,88.1 L846.9,100.2 L847.2,100.2 L847.4,92.1 L847.7,93.5 L848.0,92.1 L848.2,98.9 L848.5,94.8 L848.8,81.4 L849.1,90.8 L849.3,84.1 L849.6,82.7 L849.9,102.9 L850.1,85.4 L850.4,93.5 L850.7,90.8 L850.9,100.2 L851.2,98.9 L851.5,77.3 L851.8,100.2 L852.0,94.8 L852.3,80.0 L852.6,85.4 L852.8,101.6 L853.1,93.5 L853.4,81.4 L853.6,98.9 L853.9,78.7 L854.2,98.9 L854.5,85.4 L854.7,96.2 L855.0,94.8 L855.3,101.6 L855.5,90.8 L855.8,88.1 L856.1,90.8 L856.3,97.5 L856.6,101.6 L856.9,90.8 L857.2,81.4 L857.4,98.9 L857.7,86.8 L858.0,101.6 L858.2,80.0 L858.5,88.1 L858.8,89.4 L859.0,85.4 L859.3,97.5 L859.6,96.2 L859.9,86.8 L860.1,101.6 L860.4,78.7 L860.7,89.4 L860.9,96.2 L861.2,97.5 L861.5,85.4 L861.7,82.7 L862.0,101.6 L862.3,90.8 L862.6,94.8 L862.8,94.8 L863.1,93.5 L863.4,80.0 L863.6,86.8 L863.9,85.4 L864.2,84.1 L864.4,93.5 L864.7,101.6 L865.0,78.7 L865.3,106.9 L865.5,102.9 L865.8,89.4 L866.1,85.4 L866.3,102.9 L866.6,81.4 L866.9,86.8 L867.1,101.6 L867.4,86.8 L867.7,84.1 L868.0,86.8 L868.2,85.4 L868.5,98.9 L868.8,86.8 L869.0,89.4 L869.3,92.1 L869.6,88.1 L869.8,100.2 L870.1,94.8 L870.4,97.5 L870.7,85.4 L870.9,102.9 L871.2,86.8 L871.5,86.8 L871.7,85.4 L872.0,90.8 L872.3,86.8 L872.5,100.2 L872.8,89.4 L873.1,88.1 L873.4,88.1 L873.6,98.9 L873.9,81.4 L874.2,100.2 L874.4,81.4 L874.7,105.6 L875.0,90.8 L875.2,89.4 L875.5,84.1 L875.8,94.8 L876.1,104.2 L876.3,94.8 L876.6,85.4 L876.9,106.9 L877.1,89.4 L877.4,102.9 L877.7,101.6 L878.0,78.7 L878.2,97.5 L878.5,88.1 L878.8,100.2 L879.0,92.1 L879.3,100.2 L879.6,90.8 L879.8,85.4 L880.1,86.8 L880.4,89.4 L880.7,84.1 L880.9,86.8 L881.2,100.2 L881.5,92.1 L881.7,93.5 L882.0,86.8 L882.3,93.5 L882.5,100.2 L882.8,96.2 L883.1,80.0 L883.4,96.2 L883.6,93.5 L883.9,94.8 L884.2,86.8 L884.4,90.8 L884.7,90.8 L885.0,82.7 L885.2,101.6 L885.5,94.8 L885.8,93.5 L886.1,93.5 L886.3,86.8 L886.6,89.4 L886.9,97.5 L887.1,89.4 L887.4,97.5 L887.7,80.0 L887.9,96.2 L888.2,86.8 L888.5,96.2 L888.8,85.4 L889.0,105.6 L889.3,80.0 L889.6,96.2 L889.8,89.4 L890.1,85.4 L890.4,105.6 L890.6,86.8 L890.9,90.8 L891.2,81.4 L891.5,94.8 L891.7,92.1 L892.0,100.2 L892.3,93.5 L892.5,101.6 L892.8,78.7 L893.1,92.1 L893.3,94.8 L893.6,81.4 L893.9,92.1 L894.2,101.6 L894.4,84.1 L894.7,97.5 L895.0,80.0 L895.2,105.6 L895.5,84.1 L895.8,90.8 L896.0,85.4 L896.3,101.6 L896.6,81.4 L896.9,101.6 L897.1,94.8 L897.4,82.7 L897.7,97.5 L897.9,80.0 L898.2,106.9 L898.5,89.4 L898.7,92.1 L899.0,89.4 L899.3,104.2 L899.6,100.2 L899.8,86.8 L900.1,93.5 L900.4,82.7 L900.6,98.9 L900.9,82.7 L901.2,104.2 L901.4,80.0 L901.7,97.5 L902.0,81.4 L902.3,86.8 L902.5,93.5 L902.8,89.4 L903.1,84.1 L903.3,102.9 L903.6,100.2 L903.9,98.9 L904.1,100.2 L904.4,96.2 L904.7,80.0 L905.0,102.9 L905.2,92.1 L905.5,98.9 L905.8,94.8 L906.0,97.5 L906.3,102.9 L906.6,96.2 L906.8,100.2 L907.1,98.9 L907.4,96.2 L907.7,92.1 L907.9,80.0 L908.2,100.2 L908.5,85.4 L908.7,101.6 L909.0,93.5 L909.3,98.9 L909.5,84.1 L909.8,96.2 L910.1,89.4 L910.4,104.2 L910.6,92.1 L910.9,97.5 L911.2,82.7 L911.4,104.2 L911.7,90.8 L912.0,84.1 L912.2,82.7 L912.5,93.5 L912.8,89.4 L913.1,81.4 L913.3,84.1 L913.6,98.9 L913.9,96.2 L914.1,94.8 L914.4,82.7 L914.7,100.2 L914.9,84.1 L915.2,96.2 L915.5,92.1 L915.8,93.5 L916.0,97.5 L916.3,97.5 L916.6,81.4 L916.8,84.1 L917.1,82.7 L917.4,96.2 L917.6,90.8 L917.9,93.5 L918.2,92.1 L918.5,84.1 L918.7,84.1 L919.0,96.2 L919.3,80.0 L919.5,102.9 L919.8,97.5 L920.1,98.9 L920.3,97.5 L920.6,89.4 L920.9,93.5 L921.2,81.4 L921.4,89.4 L921.7,85.4 L922.0,86.8 L922.2,85.4 L922.5,92.1 L922.8,81.4 L923.0,85.4 L923.3,88.1 L923.6,89.4 L923.9,94.8 L924.1,90.8 L924.4,102.9 L924.7,90.8 L924.9,84.1 L925.2,97.5 L925.5,89.4 L925.7,98.9 L926.0,100.2 L926.3,92.1 L926.6,82.7 L926.8,100.2 L927.1,86.8 L927.4,86.8 L927.6,92.1 L927.9,92.1 L928.2,94.8 L928.5,96.2 L928.7,84.1 L929.0,101.6 L929.3,89.4 L929.5,98.9 L929.8,93.5 L930.1,94.8 L930.3,80.0 L930.6,98.9 L930.9,94.8 L931.2,93.5 L931.4,96.2 L931.7,97.5 L932.0,90.8 L932.2,100.2 L932.5,100.2 L932.8,93.5 L933.0,93.5 L933.3,100.2 L933.6,77.3 L933.9,94.8 L934.1,98.9 L934.4,80.0 L934.7,97.5 L934.9,78.7 L935.2,84.1 L935.5,89.4 L935.7,94.8 L936.0,89.4 L936.3,94.8 L936.6,93.5 L936.8,84.1 L937.1,92.1 L937.4,94.8 L937.6,90.8 L937.9,97.5 L938.2,80.0 L938.4,104.2 L938.7,101.6 L939.0,86.8 L939.3,82.7 L939.5,104.2 L939.8,101.6 L940.1,97.5 L940.3,98.9 L940.6,100.2 L940.9,81.4 L941.1,102.9 L941.4,94.8 L941.7,94.8 L942.0,92.1 L942.2,90.8 L942.5,100.2 L942.8,94.8 L943.0,92.1 L943.3,84.1 L943.6,97.5 L943.8,90.8 L944.1,92.1 L944.4,102.9 L944.7,80.0 L944.9,97.5 L945.2,94.8 L945.5,97.5 L945.7,100.2 L946.0,85.4 L946.3,88.1 L946.5,96.2 L946.8,94.8 L947.1,98.9 L947.4,89.4 L947.6,85.4 L947.9,84.1 L948.2,97.5 L948.4,97.5 L948.7,84.1 L949.0,104.2 L949.2,82.7 L949.5,90.8 L949.8,84.1 L950.1,100.2 L950.3,88.1 L950.6,92.1 L950.9,98.9 L951.1,93.5 L951.4,100.2 L951.7,90.8 L951.9,97.5 L952.2,80.0 L952.5,90.8 L952.8,94.8 L953.0,97.5 L953.3,92.1 L953.6,82.7 L953.8,98.9 L954.1,85.4 L954.4,88.1 L954.6,81.4 L954.9,88.1 L955.2,101.6 L955.5,85.4 L955.7,93.5 L956.0,86.8 L956.3,97.5 L956.5,89.4 L956.8,88.1 L957.1,94.8 L957.3,92.1 L957.6,80.0 L957.9,85.4 L958.2,82.7 L958.4,104.2 L958.7,85.4 L959.0,85.4 L959.2,96.2 L959.5,86.8 L959.8,102.9 L960.0,78.7 L960.3,90.8 L960.6,86.8 L960.9,88.1 L961.1,100.2 L961.4,100.2 L961.7,81.4 L961.9,86.8 L962.2,90.8 L962.5,94.8 L962.7,86.8 L963.0,96.2 L963.3,100.2 L963.6,84.1 L963.8,90.8 L964.1,100.2 L964.4,85.4 L964.6,84.1 L964.9,102.9 L965.2,84.1 L965.4,85.4 L965.7,89.4 L966.0,89.4 L966.3,98.9 L966.5,94.8 L966.8,96.2 L967.1,88.1 L967.3,81.4 L967.6,104.2 L967.9,90.8 L968.1,97.5 L968.4,81.4 L968.7,84.1 L969.0,105.6 L969.2,82.7 L969.5,96.2 L969.8,88.1 L970.0,90.8 L970.3,88.1 L970.6,85.4 L970.8,104.2 L971.1,98.9 L971.4,92.1 L971.7,96.2 L971.9,88.1 L972.2,97.5 L972.5,90.8 L972.7,85.4 L973.0,89.4 L973.3,97.5 L973.5,98.9 L973.8,84.1 L974.1,85.4 L974.4,100.2 L974.6,100.2 L974.9,96.2 L975.2,100.2 L975.4,81.4 L975.7,96.2 L976.0,81.4 L976.2,88.1 L976.5,102.9 L976.8,96.2 L977.1,92.1 L977.3,84.1 L977.6,98.9 L977.9,96.2 L978.1,90.8 L978.4,82.7 L978.7,88.1 L978.9,81.4 L979.2,85.4 L979.5,84.1 L979.8,96.2 L980.0,82.7 L980.3,101.6 L980.6,90.8 L980.8,94.8 L981.1,86.8 L981.4,90.8 L981.7,101.6 L981.9,96.2 L982.2,80.0 L982.5,88.1 L982.7,98.9 L983.0,93.5 L983.3,93.5 L983.5,80.0 L983.8,85.4 L984.1,92.1 L984.4,84.1 L984.6,92.1 L984.9,86.8 L985.2,92.1 L985.4,101.6 L985.7,81.4 L986.0,104.2 L986.2,86.8 L986.5,93.5 L986.8,93.5 L987.1,90.8 L987.3,100.2 L987.6,101.6 L987.9,86.8 L988.1,101.6 L988.4,82.7 L988.7,89.4 L988.9,96.2 L989.2,81.4 L989.5,101.6 L989.8,98.9 L990.0,92.1 L990.3,85.4 L990.6,86.8 L990.8,89.4 L991.1,89.4 L991.4,86.8 L991.6,89.4 L991.9,102.9 L992.2,93.5 L992.5,82.7 L992.7,86.8 L993.0,90.8 L993.3,81.4 L993.5,98.9 L993.8,92.1 L994.1,88.1 L994.3,92.1 L994.6,98.9 L994.9,88.1 L995.2,89.4 L995.4,102.9 L995.7,96.2 L996.0,100.2 L996.2,88.1 L996.5,96.2 L996.8,89.4 L997.0,89.4 L997.3,85.4 L997.6,92.1 L997.9,98.9 L998.1,84.1 L998.4,101.6 L998.7,92.1 L998.9,96.2 L999.2,89.4 L999.5,97.5 L999.7,101.6 L1000.0,94.8 L1000.3,93.5 L1000.6,92.1 L1000.8,85.4 L1001.1,84.1 L1001.4,88.1 L1001.6,93.5 L1001.9,94.8 L1002.2,92.1 L1002.4,102.9 L1002.7,96.2 L1003.0,84.1 L1003.3,81.4 L1003.5,100.2 L1003.8,94.8 L1004.1,86.8 L1004.3,102.9 L1004.6,85.4 L1004.9,94.8 L1005.1,90.8 L1005.4,97.5 L1005.7,100.2 L1006.0,97.5 L1006.2,98.9 L1006.5,98.9 L1006.8,76.0 L1007.0,96.2 L1007.3,88.1 L1007.6,102.9 L1007.8,88.1 L1008.1,89.4 L1008.4,89.4 L1008.7,98.9 L1008.9,96.2 L1009.2,100.2 L1009.5,86.8 L1009.7,94.8 L1010.0,82.7 L1010.3,92.1 L1010.5,84.1 L1010.8,84.1 L1011.1,100.2 L1011.4,97.5 L1011.6,98.9 L1011.9,85.4 L1012.2,84.1 L1012.4,104.2 L1012.7,80.0 L1013.0,92.1 L1013.2,88.1 L1013.5,88.1 L1013.8,84.1 L1014.1,105.6 L1014.3,90.8 L1014.6,90.8 L1014.9,96.2 L1015.1,97.5 L1015.4,100.2 L1015.7,89.4 L1015.9,81.4 L1016.2,89.4 L1016.5,93.5 L1016.8,92.1 L1017.0,86.8 L1017.3,101.6 L1017.6,96.2 L1017.8,81.4 L1018.1,100.2 L1018.4,82.7 L1018.6,100.2 L1018.9,96.2 L1019.2,92.1 L1019.5,90.8 L1019.7,94.8 L1020.0,88.1 L1020.3,96.2 L1020.5,92.1 L1020.8,101.6 L1021.1,88.1 L1021.3,84.1 L1021.6,88.1 L1021.9,89.4 L1022.2,86.8 L1022.4,82.7 L1022.7,97.5 L1023.0,96.2 L1023.2,101.6 L1023.5,98.9 L1023.8,92.1 L1024.0,82.7 L1024.3,90.8 L1024.6,90.8 L1024.9,102.9 L1025.1,82.7 L1025.4,94.8 L1025.7,78.7 L1025.9,102.9 L1026.2,82.7 L1026.5,102.9 L1026.7,82.7 L1027.0,94.8 L1027.3,85.4 L1027.6,96.2 L1027.8,97.5 L1028.1,82.7 L1028.4,98.9 L1028.6,82.7 L1028.9,101.6 L1029.2,94.8 L1029.4,100.2 L1029.7,101.6 L1030.0,82.7 L1030.3,85.4 L1030.5,105.6 L1030.8,94.8 L1031.1,89.4 L1031.3,98.9 L1031.6,94.8 L1031.9,93.5 L1032.2,94.8 L1032.4,101.6 L1032.7,85.4 L1033.0,86.8 L1033.2,92.1 L1033.5,97.5 L1033.8,84.1 L1034.0,82.7 L1034.3,94.8 L1034.6,90.8 L1034.9,102.9 L1035.1,94.8 L1035.4,89.4 L1035.7,86.8 L1035.9,98.9 L1036.2,92.1 L1036.5,88.1 L1036.7,90.8 L1037.0,100.2 L1037.3,89.4 L1037.6,85.4 L1037.8,97.5 L1038.1,89.4 L1038.4,85.4 L1038.6,84.1 L1038.9,97.5 L1039.2,97.5 L1039.4,81.4 L1039.7,102.9 L1040.0,98.9 L1040.3,78.7 L1040.5,96.2 L1040.8,98.9 L1041.1,96.2 L1041.3,93.5 L1041.6,89.4 L1041.9,97.5 L1042.1,97.5 L1042.4,97.5 L1042.7,84.1 L1043.0,90.8 L1043.2,98.9 L1043.5,97.5 L1043.8,81.4 L1044.0,85.4 L1044.3,86.8 L1044.6,81.4 L1044.8,84.1 L1045.1,96.2 L1045.4,86.8 L1045.7,90.8 L1045.9,81.4 L1046.2,85.4 L1046.5,104.2 L1046.7,88.1 L1047.0,100.2 L1047.3,85.4 L1047.5,86.8 L1047.8,105.6 L1048.1,77.3 L1048.4,94.8 L1048.6,102.9 L1048.9,94.8 L1049.2,100.2 L1049.4,89.4 L1049.7,102.9 L1050.0,84.1 L1050.2,92.1 L1050.5,88.1 L1050.8,90.8 L1051.1,84.1 L1051.3,84.1 L1051.6,90.8 L1051.9,94.8 L1052.1,93.5 L1052.4,85.4 L1052.7,85.4 L1052.9,86.8 L1053.2,98.9 L1053.5,93.5 L1053.8,94.8 L1054.0,98.9 L1054.3,100.2 L1054.6,85.4 L1054.8,101.6 L1055.1,86.8 L1055.4,100.2 L1055.6,92.1 L1055.9,89.4 L1056.2,88.1 L1056.5,93.5 L1056.7,90.8 L1057.0,100.2 L1057.3,85.4 L1057.5,102.9 L1057.8,84.1 L1058.1,85.4 L1058.3,86.8 L1058.6,98.9 L1058.9,80.0 L1059.2,89.4 L1059.4,104.2 L1059.7,84.1 L1060.0,85.4 L1060.2,97.5 L1060.5,96.2 L1060.8,90.8 L1061.0,94.8 L1061.3,82.7 L1061.6,82.7 L1061.9,101.6 L1062.1,88.1 L1062.4,90.8 L1062.7,89.4 L1062.9,82.7 L1063.2,102.9 L1063.5,98.9 L1063.7,78.7 L1064.0,102.9 L1064.3,86.8 L1064.6,96.2 L1064.8,94.8 L1065.1,102.9 L1065.4,97.5 L1065.6,97.5 L1065.9,90.8 L1066.2,98.9 L1066.4,84.1 L1066.7,101.6 L1067.0,86.8 L1067.3,104.2 L1067.5,92.1 L1067.8,98.9 L1068.1,89.4 L1068.3,98.9 L1068.6,93.5 L1068.9,101.6 L1069.1,84.1 L1069.4,89.4 L1069.7,94.8 L1070.0,82.7 L1070.2,82.7 L1070.5,89.4 L1070.8,85.4 L1071.0,93.5 L1071.3,102.9 L1071.6,97.5 L1071.8,97.5 L1072.1,92.1 L1072.4,92.1 L1072.7,80.0 L1072.9,97.5 L1073.2,88.1 L1073.5,96.2 L1073.7,86.8 L1074.0,84.1 L1074.3,86.8 L1074.5,85.4 L1074.8,104.2 L1075.1,96.2 L1075.4,102.9 L1075.6,90.8 L1075.9,82.7 L1076.2,100.2 L1076.4,101.6 L1076.7,77.3 L1077.0,101.6 L1077.2,94.8 L1077.5,89.4 L1077.8,93.5 L1078.1,101.6 L1078.3,81.4 L1078.6,97.5 L1078.9,98.9 L1079.1,92.1 L1079.4,94.8 L1079.7,98.9 L1079.9,82.7 L1080.2,100.2 L1080.5,78.7 L1080.8,106.9 L1081.0,94.8 L1081.3,86.8 L1081.6,90.8 L1081.8,101.6 L1082.1,84.1 L1082.4,90.8 L1082.6,104.2 L1082.9,80.0 L1083.2,86.8 L1083.5,112.3 L1083.7,127.1 L1084.0,140.6" fill="none" stroke="#ff7f0e" stroke-width="1.1" opacity="0.85"/><text x="616" y="572" font-size="11" fill="#888">time 0..35 s — altitude (blue) &amp; roll (orange)</text></svg>