<svg xmlns="http://www.w3.org/2000/svg" width="1140" height="600" font-family="sans-serif" font-size="13"><rect width="1140" height="600" fill="white"/><text x="20" y="26" font-size="15" fill="#333">TMS-7 F15 — sensor noise 10%</text><rect x="20" y="40" width="540" height="540" fill="#fbfbfb" stroke="#ddd"/><rect x="50" y="367" width="160" height="3" fill="#cde" stroke="#369" opacity="0.7"/><text x="50" y="362" fill="#369" font-size="12">landing zone</text><circle cx="151" cy="395" r="5" fill="black"/><text x="159" y="399" font-size="12">pad</text><path d="M150.6,395.2 L150.6,395.2 L150.6,395.2 L150.6,395.2 L150.6,395.2 L150.6,395.2 L150.6,395.2 L150.6,395.2 L150.6,395.2 L150.6,395.2 L150.6,395.2 L150.6,395.2 L150.6,395.2 L150.6,395.2 L150.6,395.2 L150.6,395.2 L150.6,395.2 L150.6,395.2 L150.6,395.2 L150.6,395.2 L150.6,395.2 L150.6,395.2 L150.6,395.2 L150.6,395.2 L150.6,395.2 L150.6,395.2 L150.6,395.2 L150.6,395.2 L150.6,395.2 L150.6,395.2 L150.6,395.2 L150.6,395.2 L150.6,395.2 L150.6,395.2 L150.6,395.2 L150.6,395.2 L150.6,395.2 L150.6,395.2 L150.6,395.2 L150.6,395.2 L150.6,395.2 L150.6,395.2 L150.6,395.2 L150.6,395.2 L150.6,395.2 L150.6,395.2 L150.6,395.2 L150.6,395.2 L150.6,395.2 L150.6,395.2 L150.6,395.2 L150.6,395.2 L150.6,395.2 L150.6,395.2 L150.6,395.2 L150.6,395.2 L150.6,395.2 L150.6,395.2 L151.3,394.1 L152.0,392.7 L152.8,391.4 L153.7,390.0 L154.4,388.7 L155.3,387.4 L156.1,386.1 L156.9,384.8 L157.7,383.5 L158.5,382.1 L159.3,380.9 L160.3,379.6 L161.1,378.2 L161.9,377.0 L162.8,375.7 L163.7,374.4 L164.5,373.1 L165.5,371.9 L166.3,370.5 L167.2,369.3 L168.1,368.1 L169.0,366.7 L169.8,365.5 L170.7,364.2 L171.7,362.9 L172.5,361.7 L173.4,360.5 L174.4,359.1 L175.3,357.9 L176.2,356.7 L177.1,355.4 L178.1,354.2 L179.0,353.0 L179.9,351.7 L180.9,350.5 L181.9,349.3 L182.9,348.1 L183.8,346.9 L184.8,345.7 L185.8,344.4 L186.8,343.3 L187.8,342.1 L188.7,340.9 L189.8,339.7 L190.8,338.6 L191.8,337.3 L192.8,336.2 L193.8,335.1 L194.9,333.9 L196.0,332.7 L197.0,331.6 L198.0,330.4 L199.0,329.3 L200.1,328.2 L201.2,327.1 L202.3,325.9 L203.4,324.8 L204.4,323.7 L205.5,322.6 L206.6,321.5 L207.7,320.4 L208.8,319.4 L209.9,318.2 L211.0,317.2 L212.1,316.1 L213.3,315.0 L214.4,313.9 L215.5,312.9 L216.6,311.8 L217.8,310.8 L219.0,309.7 L220.1,308.7 L221.3,307.6 L222.4,306.6 L223.6,305.6 L224.8,304.6 L225.9,303.6 L227.1,302.6 L228.3,301.6 L229.5,300.5 L230.6,299.6 L231.9,298.6 L233.1,297.7 L234.3,296.6 L235.6,295.7 L236.8,294.8 L238.0,293.8 L239.2,292.8 L240.4,291.9 L241.7,291.0 L242.9,290.1 L244.2,289.1 L245.4,288.2 L246.7,287.3 L247.9,286.4 L249.2,285.4 L250.4,284.6 L251.7,283.7 L253.0,282.8 L254.3,281.9 L255.5,281.0 L256.8,280.2 L258.1,279.4 L259.4,278.5 L260.7,277.6 L262.0,276.8 L263.3,276.0 L264.7,275.2 L266.0,274.3 L267.3,273.5 L268.6,272.7 L270.0,271.9 L271.3,271.1 L272.6,270.3 L274.0,269.5 L275.3,268.8 L276.6,268.0 L277.9,267.3 L279.3,266.4 L280.6,265.7 L282.0,265.0 L283.4,264.2 L284.8,263.5 L286.1,262.7 L287.5,262.0 L288.9,261.3 L290.3,260.6 L291.7,260.0 L293.1,259.2 L294.5,258.5 L295.8,257.9 L297.2,257.2 L298.6,256.6 L300.0,255.8 L301.4,255.2 L302.8,254.5 L304.3,253.9 L305.7,253.3 L307.1,252.7 L308.5,252.0 L309.9,251.4 L311.3,250.8 L312.8,250.2 L314.2,249.6 L315.7,249.1 L317.1,248.4 L318.6,247.8 L320.0,247.3 L321.4,246.7 L322.8,246.2 L324.3,245.7 L325.8,245.1 L327.2,244.5 L328.7,244.0 L330.2,243.5 L331.6,243.0 L333.1,242.5 L334.5,242.0 L336.0,241.6 L337.5,241.1 L339.0,240.5 L340.4,240.1 L341.9,239.6 L343.4,239.2 L344.9,238.7 L346.4,238.3 L347.9,237.9 L349.4,237.5 L350.8,236.9 L352.3,236.5 L353.8,236.1 L355.4,235.8 L356.9,235.4 L358.3,235.0 L359.8,234.6 L361.3,234.3 L362.9,233.9 L364.4,233.5 L365.9,233.1 L367.3,232.8 L368.9,232.5 L370.4,232.1 L371.9,231.8 L373.5,231.5 L374.9,231.2 L376.5,230.9 L378.0,230.6 L379.5,230.4 L381.1,230.1 L382.6,229.7 L384.1,229.5 L385.6,229.2 L387.2,229.0 L388.7,228.7 L390.2,228.5 L391.7,228.3 L393.3,228.1 L394.9,227.9 L396.4,227.7 L397.9,227.5 L399.4,227.3 L401.0,227.1 L402.6,226.9 L404.1,226.8 L405.6,226.6 L407.1,226.4 L408.7,226.3 L410.3,226.2 L411.8,225.9 L413.3,225.8 L414.9,225.7 L416.4,225.6 L418.0,225.5 L419.6,225.4 L421.0,225.3 L422.6,225.2 L423.9,225.2 L425.2,225.1 L426.5,225.0 L427.8,225.0 L429.1,225.0 L430.4,224.9 L431.7,224.9 L433.0,224.9 L434.3,224.8 L435.5,224.8 L436.8,224.8 L438.1,224.8 L439.4,224.8 L440.7,224.8 L442.0,224.8 L443.3,224.8 L444.6,224.8 L445.9,224.9 L447.2,224.9 L448.5,224.9 L449.8,225.0 L451.1,225.0 L452.4,225.0 L453.6,225.1 L454.9,225.2 L456.2,225.2 L457.5,225.3 L458.8,225.3 L460.1,225.4 L461.4,225.5 L462.7,225.6 L464.0,225.7 L465.3,225.8 L466.6,225.9 L467.8,226.0 L469.1,226.2 L470.4,226.3 L471.7,226.4 L473.0,226.6 L474.3,226.7 L475.6,226.8 L476.8,227.0 L478.1,227.1 L479.4,227.3 L480.7,227.4 L482.0,227.6 L483.3,227.7 L484.5,227.9 L485.8,228.1 L487.1,228.3 L488.4,228.5 L489.7,228.6 L490.9,228.8 L492.2,229.0 L493.5,229.2 L494.8,229.4 L496.0,229.7 L497.3,230.0 L498.6,230.2 L499.8,230.4 L501.1,230.7 L502.4,230.9 L503.7,231.1 L504.9,231.4 L506.2,231.6 L507.5,231.9 L508.7,232.2 L510.0,232.4 L511.2,232.7 L512.5,233.0 L513.8,233.3 L515.0,233.5 L516.3,233.9 L517.5,234.2 L518.8,234.5 L520.0,234.8 L521.3,235.2 L522.5,235.5 L523.8,235.8 L525.0,236.1 L526.3,236.4 L527.5,236.8 L528.7,237.1 L530.0,237.6" fill="none" stroke="#1f77b4" stroke-width="1.7" opacity="0.85"/><circle cx="530" cy="238" r="4.5" fill="#1f77b4"/><text x="28" y="572" font-size="11" fill="#888">ground track — m from pad (N up)</text><rect x="580" y="40" width="540" height="540" fill="#fbfbfb" stroke="#ddd"/><text x="586" y="54" fill="#1f77b4" font-size="11">alt 301</text><text x="586" y="558" fill="#1f77b4" font-size="11">2</text><path d="M616.0,544.0 L616.2,543.9 L616.5,543.0 L616.7,543.3 L616.9,543.7 L617.2,542.9 L617.4,542.7 L617.6,543.2 L617.9,542.7 L618.1,542.3 L618.3,542.3 L618.5,542.3 L618.8,542.6 L619.0,542.3 L619.2,541.9 L619.5,541.7 L619.7,541.3 L619.9,541.9 L620.2,540.7 L620.4,540.8 L620.6,540.7 L620.9,540.6 L621.1,540.3 L621.3,539.4 L621.6,538.4 L621.8,539.1 L622.0,537.8 L622.2,537.4 L622.5,537.0 L622.7,537.1 L622.9,537.5 L623.2,535.7 L623.4,535.8 L623.6,535.9 L623.9,533.9 L624.1,535.4 L624.3,534.8 L624.6,532.2 L624.8,532.4 L625.0,531.4 L625.3,532.2 L625.5,529.8 L625.7,530.4 L625.9,528.8 L626.2,530.0 L626.4,529.1 L626.6,528.8 L626.9,528.8 L627.1,525.1 L627.3,524.5 L627.6,526.1 L627.8,526.3 L628.0,523.5 L628.3,520.9 L628.5,521.7 L628.7,522.8 L629.0,518.8 L629.2,518.6 L629.4,518.0 L629.6,517.3 L629.9,513.8 L630.1,516.2 L630.3,515.3 L630.6,513.4 L630.8,513.9 L631.0,515.1 L631.3,513.2 L631.5,511.9 L631.7,507.5 L632.0,504.5 L632.2,506.3 L632.4,507.7 L632.7,508.6 L632.9,504.6 L633.1,502.1 L633.4,501.5 L633.6,505.3 L633.8,502.7 L634.0,501.8 L634.3,497.6 L634.5,497.2 L634.7,499.1 L635.0,496.9 L635.2,492.5 L635.4,491.9 L635.7,493.2 L635.9,493.0 L636.1,483.8 L636.4,483.2 L636.6,485.1 L636.8,484.6 L637.1,482.0 L637.3,481.5 L637.5,479.1 L637.7,478.7 L638.0,471.2 L638.2,473.4 L638.4,474.0 L638.7,475.8 L638.9,470.2 L639.1,468.2 L639.4,467.3 L639.6,460.6 L639.8,464.2 L640.1,457.5 L640.3,460.5 L640.5,456.7 L640.8,454.6 L641.0,463.7 L641.2,460.2 L641.4,455.0 L641.7,445.2 L641.9,455.0 L642.1,455.9 L642.4,448.8 L642.6,437.6 L642.8,456.0 L643.1,435.4 L643.3,434.1 L643.5,445.2 L643.8,445.1 L644.0,437.2 L644.2,441.3 L644.5,423.9 L644.7,425.1 L644.9,420.5 L645.1,436.7 L645.4,420.5 L645.6,424.1 L645.8,412.3 L646.1,410.5 L646.3,431.7 L646.5,412.8 L646.8,415.6 L647.0,424.0 L647.2,411.0 L647.5,403.5 L647.7,400.2 L647.9,399.5 L648.2,392.7 L648.4,389.7 L648.6,410.6 L648.9,406.6 L649.1,408.4 L649.3,410.1 L649.5,408.4 L649.8,376.4 L650.0,400.5 L650.2,403.8 L650.5,400.0 L650.7,383.3 L650.9,374.5 L651.2,387.8 L651.4,364.1 L651.6,370.5 L651.9,379.3 L652.1,383.0 L652.3,354.7 L652.6,360.3 L652.8,347.1 L653.0,346.9 L653.2,356.8 L653.5,372.0 L653.7,351.7 L653.9,369.1 L654.2,333.9 L654.4,353.6 L654.6,357.5 L654.9,342.8 L655.1,340.7 L655.3,344.2 L655.6,352.1 L655.8,357.5 L656.0,318.9 L656.3,328.9 L656.5,348.7 L656.7,334.6 L656.9,337.5 L657.2,338.1 L657.4,319.7 L657.6,335.4 L657.9,333.9 L658.1,322.8 L658.3,333.8 L658.6,328.6 L658.8,297.7 L659.0,322.2 L659.3,303.8 L659.5,288.1 L659.7,317.3 L660.0,285.5 L660.2,281.7 L660.4,311.6 L660.6,312.4 L660.9,282.7 L661.1,270.3 L661.3,264.2 L661.6,285.9 L661.8,273.0 L662.0,257.9 L662.3,273.4 L662.5,299.1 L662.7,280.7 L663.0,290.4 L663.2,249.3 L663.4,256.8 L663.7,266.4 L663.9,285.4 L664.1,245.5 L664.3,236.7 L664.6,238.7 L664.8,282.7 L665.0,244.0 L665.3,266.1 L665.5,229.3 L665.7,254.1 L666.0,230.6 L666.2,218.9 L666.4,237.3 L666.7,241.6 L666.9,227.7 L667.1,220.0 L667.4,261.3 L667.6,228.1 L667.8,212.1 L668.1,228.1 L668.3,233.6 L668.5,209.8 L668.7,196.0 L669.0,211.5 L669.2,225.4 L669.4,199.4 L669.7,244.9 L669.9,232.6 L670.1,224.2 L670.4,192.5 L670.6,207.9 L670.8,222.7 L671.1,184.4 L671.3,190.5 L671.5,186.0 L671.8,223.0 L672.0,210.9 L672.2,219.1 L672.4,206.1 L672.7,197.6 L672.9,206.5 L673.1,222.1 L673.4,179.8 L673.6,157.0 L673.8,180.7 L674.1,192.7 L674.3,155.6 L674.5,168.9 L674.8,180.1 L675.0,207.5 L675.2,205.7 L675.5,194.5 L675.7,199.2 L675.9,144.4 L676.1,155.1 L676.4,144.8 L676.6,144.3 L676.8,152.1 L677.1,188.7 L677.3,198.6 L677.5,155.2 L677.8,157.2 L678.0,168.0 L678.2,140.0 L678.5,137.5 L678.7,124.5 L678.9,153.2 L679.2,124.6 L679.4,158.3 L679.6,144.8 L679.8,175.2 L680.1,144.8 L680.3,112.4 L680.5,169.3 L680.8,122.8 L681.0,182.5 L681.2,106.0 L681.5,151.2 L681.7,132.2 L681.9,142.8 L682.2,107.7 L682.4,149.4 L682.6,147.4 L682.9,157.7 L683.1,130.2 L683.3,155.0 L683.6,130.5 L683.8,171.9 L684.0,170.9 L684.2,156.0 L684.5,159.3 L684.7,146.1 L684.9,156.2 L685.2,100.2 L685.4,150.2 L685.6,148.9 L685.9,92.3 L686.1,129.0 L686.3,129.1 L686.6,99.9 L686.8,143.0 L687.0,96.6 L687.3,148.8 L687.5,87.0 L687.7,152.5 L687.9,150.9 L688.2,91.9 L688.4,115.3 L688.6,107.7 L688.9,144.1 L689.1,113.3 L689.3,130.8 L689.6,150.0 L689.8,138.7 L690.0,77.0 L690.3,152.0 L690.5,99.4 L690.7,154.3 L691.0,96.0 L691.2,97.5 L691.4,105.8 L691.6,93.1 L691.9,110.3 L692.1,76.0 L692.3,84.3 L692.6,137.4 L692.8,140.9 L693.0,96.4 L693.3,82.4 L693.5,155.4 L693.7,85.8 L694.0,89.8 L694.2,126.8 L694.4,128.4 L694.7,79.9 L694.9,124.7 L695.1,107.5 L695.3,156.5 L695.6,90.9 L695.8,109.5 L696.0,105.3 L696.3,134.0 L696.5,99.1 L696.7,146.8 L697.0,115.8 L697.2,91.5 L697.4,98.4 L697.7,143.9 L697.9,121.0 L698.1,97.1 L698.4,100.8 L698.6,93.6 L698.8,84.9 L699.1,142.9 L699.3,152.7 L699.5,136.9 L699.7,141.1 L700.0,92.3 L700.2,124.5 L700.4,107.1 L700.7,114.2 L700.9,119.7 L701.1,100.8 L701.4,140.6 L701.6,102.6 L701.8,150.4 L702.1,143.7 L702.3,84.5 L702.5,111.0 L702.8,103.3 L703.0,114.2 L703.2,145.2 L703.4,94.5 L703.7,82.0 L703.9,162.5 L704.1,136.6 L704.4,101.1 L704.6,160.5 L704.8,160.0 L705.1,94.5 L705.3,100.6 L705.5,89.2 L705.8,94.2 L706.0,150.0 L706.2,127.6 L706.5,84.1 L706.7,104.1 L706.9,150.2 L707.1,86.7 L707.4,158.3 L707.6,157.8 L707.8,88.1 L708.1,96.4 L708.3,99.4 L708.5,158.1 L708.8,111.7 L709.0,95.4 L709.2,133.5 L709.5,87.5 L709.7,119.8 L709.9,100.3 L710.2,140.9 L710.4,151.3 L710.6,127.7 L710.8,118.0 L711.1,115.9 L711.3,93.9 L711.5,154.8 L711.8,154.8 L712.0,92.9 L712.2,148.0 L712.5,96.4 L712.7,129.7 L712.9,141.0 L713.2,140.7 L713.4,88.7 L713.6,166.3 L713.9,92.3 L714.1,113.8 L714.3,137.4 L714.6,125.5 L714.8,138.2 L715.0,163.3 L715.2,160.9 L715.5,103.4 L715.7,104.0 L715.9,91.9 L716.2,96.8 L716.4,132.8 L716.6,119.7 L716.9,108.1 L717.1,149.5 L717.3,96.8 L717.6,148.1 L717.8,139.1 L718.0,112.8 L718.3,150.8 L718.5,162.3 L718.7,94.9 L718.9,166.3 L719.2,105.2 L719.4,133.7 L719.6,136.8 L719.9,136.9 L720.1,167.3 L720.3,131.8 L720.6,88.7 L720.8,112.8 L721.0,167.7 L721.3,102.6 L721.5,112.0 L721.7,121.4 L722.0,154.2 L722.2,90.8 L722.4,100.5 L722.6,93.9 L722.9,95.6 L723.1,89.1 L723.3,94.3 L723.6,144.7 L723.8,146.1 L724.0,107.7 L724.3,166.5 L724.5,145.2 L724.7,122.6 L725.0,151.4 L725.2,130.1 L725.4,158.3 L725.7,157.4 L725.9,111.5 L726.1,113.9 L726.3,93.5 L726.6,149.0 L726.8,154.0 L727.0,151.4 L727.3,137.2 L727.5,99.7 L727.7,123.4 L728.0,114.0 L728.2,154.3 L728.4,155.6 L728.7,122.1 L728.9,119.4 L729.1,111.5 L729.4,95.1 L729.6,120.1 L729.8,90.3 L730.1,145.2 L730.3,157.1 L730.5,106.1 L730.7,112.2 L731.0,149.1 L731.2,119.0 L731.4,145.2 L731.7,97.1 L731.9,143.5 L732.1,156.4 L732.4,139.2 L732.6,148.8 L732.8,159.8 L733.1,144.3 L733.3,154.8 L733.5,158.4 L733.8,123.5 L734.0,95.2 L734.2,99.2 L734.4,172.7 L734.7,160.6 L734.9,156.1 L735.1,157.2 L735.4,131.3 L735.6,159.3 L735.8,144.9 L736.1,96.0 L736.3,163.6 L736.5,150.3 L736.8,149.1 L737.0,129.3 L737.2,146.7 L737.5,173.6 L737.7,147.8 L737.9,155.9 L738.1,107.3 L738.4,108.7 L738.6,151.8 L738.8,131.7 L739.1,127.1 L739.3,116.6 L739.5,164.7 L739.8,117.9 L740.0,176.0 L740.2,123.3 L740.5,138.6 L740.7,143.2 L740.9,134.2 L741.2,103.9 L741.4,152.1 L741.6,136.3 L741.8,160.9 L742.1,172.4 L742.3,179.9 L742.5,103.5 L742.8,103.7 L743.0,106.9 L743.2,108.8 L743.5,141.6 L743.7,160.9 L743.9,134.9 L744.2,121.2 L744.4,101.4 L744.6,170.0 L744.9,148.2 L745.1,124.1 L745.3,176.3 L745.6,134.1 L745.8,162.3 L746.0,153.3 L746.2,101.6 L746.5,105.5 L746.7,103.0 L746.9,142.6 L747.2,102.7 L747.4,108.6 L747.6,128.9 L747.9,167.6 L748.1,136.6 L748.3,154.6 L748.6,106.5 L748.8,137.6 L749.0,137.3 L749.3,113.4 L749.5,150.0 L749.7,108.7 L749.9,135.3 L750.2,133.4 L750.4,123.7 L750.6,137.7 L750.9,131.9 L751.1,183.2 L751.3,176.2 L751.6,161.6 L751.8,159.7 L752.0,133.2 L752.3,143.4 L752.5,120.3 L752.7,110.7 L753.0,163.3 L753.2,147.4 L753.4,182.2 L753.6,113.6 L753.9,177.3 L754.1,146.3 L754.3,110.3 L754.6,178.3 L754.8,121.5 L755.0,161.7 L755.3,120.0 L755.5,115.2 L755.7,168.3 L756.0,153.9 L756.2,124.4 L756.4,183.8 L756.7,145.2 L756.9,165.4 L757.1,114.4 L757.3,160.3 L757.6,159.7 L757.8,145.5 L758.0,133.3 L758.3,148.5 L758.5,127.5 L758.7,190.0 L759.0,156.6 L759.2,115.7 L759.4,136.1 L759.7,187.4 L759.9,167.6 L760.1,143.6 L760.4,119.1 L760.6,174.0 L760.8,159.1 L761.0,152.9 L761.3,189.6 L761.5,128.0 L761.7,185.1 L762.0,183.5 L762.2,135.8 L762.4,155.9 L762.7,171.6 L762.9,183.1 L763.1,159.8 L763.4,163.3 L763.6,156.2 L763.8,173.6 L764.1,176.8 L764.3,163.1 L764.5,170.1 L764.8,155.3 L765.0,158.0 L765.2,142.5 L765.4,156.9 L765.7,167.3 L765.9,178.8 L766.1,156.3 L766.4,186.8 L766.6,149.0 L766.8,137.3 L767.1,123.1 L767.3,118.7 L767.5,154.5 L767.8,143.5 L768.0,182.5 L768.2,126.5 L768.5,169.9 L768.7,190.9 L768.9,150.6 L769.1,154.8 L769.4,160.7 L769.6,176.5 L769.8,136.3 L770.1,143.3 L770.3,121.3 L770.5,120.8 L770.8,129.9 L771.0,172.0 L771.2,183.6 L771.5,154.9 L771.7,195.9 L771.9,181.4 L772.2,158.8 L772.4,199.7 L772.6,195.3 L772.8,185.1 L773.1,152.7 L773.3,196.3 L773.5,171.6 L773.8,151.8 L774.0,153.4 L774.2,152.9 L774.5,140.0 L774.7,143.9 L774.9,199.8 L775.2,143.7 L775.4,176.6 L775.6,172.9 L775.9,186.2 L776.1,147.4 L776.3,192.2 L776.5,164.8 L776.8,192.5 L777.0,178.4 L777.2,157.8 L777.5,203.2 L777.7,189.3 L777.9,164.0 L778.2,154.1 L778.4,197.4 L778.6,161.8 L778.9,156.7 L779.1,185.0 L779.3,177.5 L779.6,158.0 L779.8,154.9 L780.0,197.2 L780.3,201.6 L780.5,189.6 L780.7,199.2 L780.9,185.4 L781.2,168.7 L781.4,132.5 L781.6,152.6 L781.9,145.5 L782.1,200.4 L782.3,192.1 L782.6,145.9 L782.8,172.5 L783.0,198.0 L783.3,137.1 L783.5,192.6 L783.7,153.9 L784.0,189.5 L784.2,147.7 L784.4,141.0 L784.6,146.9 L784.9,179.9 L785.1,176.4 L785.3,138.4 L785.6,177.2 L785.8,154.2 L786.0,205.0 L786.3,201.9 L786.5,149.9 L786.7,177.3 L787.0,186.2 L787.2,193.9 L787.4,182.5 L787.7,157.9 L787.9,147.2 L788.1,178.3 L788.3,195.2 L788.6,173.8 L788.8,205.3 L789.0,205.5 L789.3,144.0 L789.5,205.0 L789.7,175.0 L790.0,196.1 L790.2,213.2 L790.4,186.1 L790.7,162.8 L790.9,205.4 L791.1,177.2 L791.4,194.3 L791.6,174.7 L791.8,198.0 L792.0,180.9 L792.3,181.8 L792.5,213.1 L792.7,211.4 L793.0,193.1 L793.2,178.3 L793.4,159.6 L793.7,164.8 L793.9,205.9 L794.1,193.2 L794.4,191.1 L794.6,202.4 L794.8,148.4 L795.1,209.6 L795.3,199.3 L795.5,217.8 L795.8,206.2 L796.0,177.9 L796.2,214.1 L796.4,173.4 L796.7,147.1 L796.9,187.6 L797.1,149.1 L797.4,150.5 L797.6,149.4 L797.8,208.1 L798.1,192.9 L798.3,190.7 L798.5,156.1 L798.8,186.0 L799.0,184.0 L799.2,188.8 L799.5,191.4 L799.7,221.4 L799.9,181.6 L800.1,168.0 L800.4,156.4 L800.6,203.9 L800.8,221.6 L801.1,201.8 L801.3,159.4 L801.5,171.8 L801.8,218.7 L802.0,191.8 L802.2,166.0 L802.5,200.9 L802.7,161.3 L802.9,214.1 L803.2,168.4 L803.4,200.5 L803.6,168.6 L803.8,173.3 L804.1,223.2 L804.3,166.3 L804.5,225.7 L804.8,211.7 L805.0,221.5 L805.2,164.1 L805.5,176.4 L805.7,178.9 L805.9,156.1 L806.2,206.6 L806.4,224.0 L806.6,199.2 L806.9,203.5 L807.1,184.0 L807.3,185.3 L807.5,163.9 L807.8,211.9 L808.0,176.0 L808.2,212.7 L808.5,226.6 L808.7,175.5 L808.9,189.3 L809.2,164.9 L809.4,217.4 L809.6,175.0 L809.9,209.4 L810.1,207.9 L810.3,219.5 L810.6,226.3 L810.8,201.2 L811.0,165.2 L811.3,208.2 L811.5,163.8 L811.7,176.2 L811.9,172.8 L812.2,171.0 L812.4,223.2 L812.6,212.6 L812.9,168.8 L813.1,215.7 L813.3,221.3 L813.6,165.8 L813.8,181.0 L814.0,175.0 L814.3,179.7 L814.5,169.0 L814.7,227.8 L815.0,208.6 L815.2,197.6 L815.4,177.7 L815.6,199.1 L815.9,171.2 L816.1,172.0 L816.3,188.7 L816.6,210.9 L816.8,235.7 L817.0,218.7 L817.3,228.5 L817.5,174.1 L817.7,237.5 L818.0,192.9 L818.2,196.1 L818.4,223.5 L818.7,178.2 L818.9,182.3 L819.1,199.7 L819.3,220.2 L819.6,172.8 L819.8,204.2 L820.0,204.7 L820.3,236.0 L820.5,193.3 L820.7,194.2 L821.0,201.9 L821.2,220.4 L821.4,180.7 L821.7,173.6 L821.9,227.6 L822.1,196.1 L822.4,193.2 L822.6,195.7 L822.8,202.1 L823.0,241.4 L823.3,181.0 L823.5,177.6 L823.7,222.7 L824.0,223.9 L824.2,243.1 L824.4,202.1 L824.7,201.6 L824.9,224.3 L825.1,191.5 L825.4,233.6 L825.6,221.9 L825.8,177.9 L826.1,231.2 L826.3,184.6 L826.5,188.7 L826.8,211.8 L827.0,209.0 L827.2,196.2 L827.4,238.3 L827.7,214.5 L827.9,227.9 L828.1,185.6 L828.4,181.0 L828.6,197.0 L828.8,237.8 L829.1,222.0 L829.3,211.7 L829.5,209.2 L829.8,224.9 L830.0,217.1 L830.2,214.4 L830.5,221.9 L830.7,200.0 L830.9,243.8 L831.1,222.6 L831.4,196.1 L831.6,208.5 L831.8,250.7 L832.1,231.5 L832.3,185.3 L832.5,240.8 L832.8,233.9 L833.0,223.4 L833.2,200.1 L833.5,191.0 L833.7,227.6 L833.9,207.3 L834.2,219.5 L834.4,201.0 L834.6,188.4 L834.8,248.0 L835.1,244.3 L835.3,220.4 L835.5,239.7 L835.8,201.6 L836.0,208.3 L836.2,220.7 L836.5,236.9 L836.7,194.8 L836.9,249.6 L837.2,231.1 L837.4,241.6 L837.6,240.5 L837.9,202.3 L838.1,202.8 L838.3,253.9 L838.5,213.4 L838.8,255.8 L839.0,208.8 L839.2,211.1 L839.5,239.7 L839.7,227.6 L839.9,200.4 L840.2,208.6 L840.4,211.1 L840.6,212.8 L840.9,225.5 L841.1,247.6 L841.3,199.5 L841.6,229.0 L841.8,241.2 L842.0,229.1 L842.3,202.3 L842.5,221.7 L842.7,247.0 L842.9,204.8 L843.2,223.2 L843.4,240.4 L843.6,203.7 L843.9,254.8 L844.1,204.5 L844.3,252.9 L844.6,222.2 L844.8,226.8 L845.0,244.8 L845.3,237.7 L845.5,209.7 L845.7,243.1 L846.0,247.0 L846.2,249.6 L846.4,227.2 L846.6,263.2 L846.9,258.9 L847.1,210.5 L847.3,211.5 L847.6,215.2 L847.8,221.2 L848.0,208.6 L848.3,237.9 L848.5,257.4 L848.7,237.0 L849.0,232.8 L849.2,236.2 L849.4,255.6 L849.7,209.3 L849.9,217.7 L850.1,268.4 L850.3,227.8 L850.6,239.1 L850.8,250.3 L851.0,255.3 L851.3,253.5 L851.5,258.9 L851.7,257.2 L852.0,259.3 L852.2,223.0 L852.4,221.3 L852.7,266.9 L852.9,267.5 L853.1,223.7 L853.4,258.4 L853.6,268.0 L853.8,227.3 L854.0,255.1 L854.3,243.9 L854.5,233.1 L854.7,273.3 L855.0,271.8 L855.2,220.4 L855.4,245.5 L855.7,216.3 L855.9,258.4 L856.1,227.6 L856.4,271.9 L856.6,231.4 L856.8,238.8 L857.1,231.9 L857.3,231.4 L857.5,266.8 L857.7,248.9 L858.0,233.4 L858.2,236.0 L858.4,270.0 L858.7,235.5 L858.9,223.7 L859.1,233.5 L859.4,275.6 L859.6,275.9 L859.8,257.3 L860.1,275.0 L860.3,265.3 L860.5,250.5 L860.8,259.3 L861.0,265.9 L861.2,254.2 L861.5,242.2 L861.7,266.6 L861.9,260.7 L862.1,274.1 L862.4,229.7 L862.6,265.0 L862.8,227.7 L863.1,237.8 L863.3,250.7 L863.5,234.2 L863.8,229.2 L864.0,224.6 L864.2,264.7 L864.5,230.6 L864.7,283.3 L864.9,230.2 L865.2,236.9 L865.4,282.4 L865.6,240.5 L865.8,232.7 L866.1,279.2 L866.3,255.4 L866.5,259.8 L866.8,252.6 L867.0,263.9 L867.2,232.8 L867.5,263.9 L867.7,243.7 L867.9,268.8 L868.2,269.9 L868.4,247.4 L868.6,287.7 L868.9,232.8 L869.1,251.9 L869.3,251.4 L869.5,237.7 L869.8,233.2 L870.0,251.5 L870.2,269.0 L870.5,274.4 L870.7,279.1 L870.9,263.5 L871.2,266.4 L871.4,286.9 L871.6,262.1 L871.9,286.3 L872.1,288.9 L872.3,267.5 L872.6,277.5 L872.8,257.6 L873.0,263.2 L873.2,284.8 L873.5,283.7 L873.7,271.5 L873.9,244.3 L874.2,272.9 L874.4,259.7 L874.6,272.4 L874.9,241.0 L875.1,274.7 L875.3,254.0 L875.6,253.4 L875.8,248.2 L876.0,253.4 L876.3,278.0 L876.5,253.7 L876.7,252.0 L877.0,257.3 L877.2,267.2 L877.4,254.0 L877.6,249.5 L877.9,259.4 L878.1,244.8 L878.3,268.9 L878.6,265.7 L878.8,275.4 L879.0,286.8 L879.3,275.2 L879.5,244.8 L879.7,268.8 L880.0,286.8 L880.2,290.9 L880.4,272.8 L880.7,274.8 L880.9,294.4 L881.1,256.1 L881.3,279.1 L881.6,250.3 L881.8,264.0 L882.0,261.0 L882.3,301.3 L882.5,271.9 L882.7,268.1 L883.0,250.5 L883.2,299.0 L883.4,293.4 L883.7,261.8 L883.9,279.3 L884.1,285.5 L884.4,257.1 L884.6,299.8 L884.8,256.8 L885.0,279.3 L885.3,270.0 L885.5,293.6 L885.7,286.2 L886.0,276.1 L886.2,282.6 L886.4,265.8 L886.7,279.8 L886.9,298.5 L887.1,286.2 L887.4,300.3 L887.6,266.2 L887.8,273.5 L888.1,283.4 L888.3,306.7 L888.5,275.1 L888.7,270.5 L889.0,260.9 L889.2,265.0 L889.4,281.8 L889.7,262.4 L889.9,271.7 L890.1,259.7 L890.4,260.7 L890.6,296.0 L890.8,303.8 L891.1,299.3 L891.3,279.6 L891.5,286.8 L891.8,291.9 L892.0,311.9 L892.2,295.1 L892.5,287.8 L892.7,281.0 L892.9,289.8 L893.1,283.0 L893.4,287.0 L893.6,267.2 L893.8,263.5 L894.1,269.1 L894.3,315.5 L894.5,276.8 L894.8,288.7 L895.0,266.3 L895.2,293.9 L895.5,294.8 L895.7,268.8 L895.9,274.1 L896.2,272.5 L896.4,304.4 L896.6,287.7 L896.8,296.9 L897.1,269.9 L897.3,269.7 L897.5,298.6 L897.8,315.3 L898.0,306.4 L898.2,319.0 L898.5,283.8 L898.7,275.6 L898.9,289.4 L899.2,300.2 L899.4,275.2 L899.6,286.4 L899.9,307.2 L900.1,283.7 L900.3,314.2 L900.5,296.7 L900.8,288.9 L901.0,277.2 L901.2,309.9 L901.5,314.2 L901.7,308.5 L901.9,277.2 L902.2,300.1 L902.4,302.4 L902.6,301.2 L902.9,296.5 L903.1,306.0 L903.3,279.2 L903.6,307.2 L903.8,277.5 L904.0,283.1 L904.2,288.8 L904.5,299.2 L904.7,285.6 L904.9,295.3 L905.2,311.8 L905.4,303.1 L905.6,287.9 L905.9,282.4 L906.1,294.9 L906.3,282.3 L906.6,285.2 L906.8,282.6 L907.0,287.5 L907.3,294.7 L907.5,302.0 L907.7,288.8 L908.0,284.8 L908.2,286.8 L908.4,313.1 L908.6,291.8 L908.9,295.8 L909.1,330.1 L909.3,330.5 L909.6,313.6 L909.8,288.1 L910.0,331.3 L910.3,296.0 L910.5,298.6 L910.7,317.5 L911.0,331.9 L911.2,325.4 L911.4,302.3 L911.7,293.7 L911.9,298.9 L912.1,302.9 L912.3,333.9 L912.6,327.1 L912.8,333.7 L913.0,310.0 L913.3,297.9 L913.5,335.7 L913.7,297.5 L914.0,316.0 L914.2,331.8 L914.4,326.1 L914.7,303.1 L914.9,311.8 L915.1,295.0 L915.4,307.9 L915.6,301.6 L915.8,295.6 L916.0,303.5 L916.3,324.7 L916.5,328.5 L916.7,318.0 L917.0,322.6 L917.2,315.2 L917.4,301.8 L917.7,339.2 L917.9,314.7 L918.1,322.4 L918.4,339.1 L918.6,334.3 L918.8,336.9 L919.1,322.0 L919.3,333.7 L919.5,313.0 L919.7,329.4 L920.0,310.3 L920.2,337.4 L920.4,336.1 L920.7,305.7 L920.9,331.6 L921.1,302.0 L921.4,327.2 L921.6,303.4 L921.8,303.3 L922.1,305.5 L922.3,309.7 L922.5,317.1 L922.8,335.4 L923.0,305.6 L923.2,304.9 L923.5,328.8 L923.7,320.7 L923.9,344.1 L924.1,317.9 L924.4,344.2 L924.6,341.0 L924.8,315.6 L925.1,337.3 L925.3,329.6 L925.5,307.8 L925.8,334.1 L926.0,315.0 L926.2,321.7 L926.5,326.6 L926.7,343.2 L926.9,324.8 L927.2,317.6 L927.4,331.9 L927.6,323.9 L927.8,320.9 L928.1,353.7 L928.3,324.7 L928.5,340.9 L928.8,317.9 L929.0,349.0 L929.2,317.3 L929.5,355.3 L929.7,313.4 L929.9,335.8 L930.2,343.5 L930.4,328.1 L930.6,317.8 L930.9,329.3 L931.1,329.4 L931.3,355.7 L931.5,336.5 L931.8,331.3 L932.0,357.2 L932.2,352.4 L932.5,345.7 L932.7,349.2 L932.9,340.6 L933.2,350.2 L933.4,359.4 L933.6,357.9 L933.9,336.3 L934.1,333.6 L934.3,346.5 L934.6,324.2 L934.8,359.6 L935.0,331.1 L935.2,347.0 L935.5,357.4 L935.7,346.0 L935.9,355.3 L936.2,337.5 L936.4,326.6 L936.6,341.7 L936.9,342.8 L937.1,351.6 L937.3,345.6 L937.6,339.0 L937.8,345.8 L938.0,353.2 L938.3,354.0 L938.5,365.7 L938.7,343.6 L939.0,354.5 L939.2,341.6 L939.4,343.6 L939.6,355.7 L939.9,360.5 L940.1,364.9 L940.3,368.1 L940.6,365.8 L940.8,341.5 L941.0,354.0 L941.3,330.5 L941.5,345.5 L941.7,331.3 L942.0,348.3 L942.2,342.1 L942.4,357.5 L942.7,332.3 L942.9,359.3 L943.1,366.3 L943.3,360.4 L943.6,356.6 L943.8,342.8 L944.0,333.7 L944.3,336.2 L944.5,356.9 L944.7,348.1 L945.0,365.5 L945.2,371.4 L945.4,369.0 L945.7,344.8 L945.9,373.3 L946.1,339.4 L946.4,346.8 L946.6,370.8 L946.8,340.4 L947.0,345.9 L947.3,346.6 L947.5,358.3 L947.7,361.2 L948.0,363.7 L948.2,373.7 L948.4,371.9 L948.7,354.8 L948.9,357.4 L949.1,360.1 L949.4,370.1 L949.6,346.8 L949.8,362.8 L950.1,379.2 L950.3,350.7 L950.5,351.2 L950.7,374.2 L951.0,355.4 L951.2,344.1 L951.4,375.8 L951.7,352.0 L951.9,366.0 L952.1,378.0 L952.4,368.4 L952.6,348.4 L952.8,347.0 L953.1,346.5 L953.3,362.1 L953.5,377.7 L953.8,371.3 L954.0,355.9 L954.2,378.1 L954.4,352.4 L954.7,350.6 L954.9,356.5 L955.1,384.9 L955.4,381.2 L955.6,369.2 L955.8,384.8 L956.1,366.4 L956.3,365.1 L956.5,351.7 L956.8,356.0 L957.0,374.3 L957.2,364.4 L957.5,352.9 L957.7,364.3 L957.9,368.9 L958.2,385.1 L958.4,363.2 L958.6,368.4 L958.8,357.7 L959.1,377.4 L959.3,375.6 L959.5,390.6 L959.8,367.6 L960.0,364.3 L960.2,388.3 L960.5,377.0 L960.7,383.8 L960.9,359.7 L961.2,380.5 L961.4,360.0 L961.6,383.3 L961.9,377.6 L962.1,377.5 L962.3,374.9 L962.5,385.0 L962.8,368.5 L963.0,361.6 L963.2,381.0 L963.5,391.9 L963.7,365.5 L963.9,372.1 L964.2,382.8 L964.4,391.4 L964.6,392.7 L964.9,381.7 L965.1,383.8 L965.3,384.7 L965.6,387.1 L965.8,397.2 L966.0,372.7 L966.2,369.5 L966.5,370.7 L966.7,387.2 L966.9,386.5 L967.2,368.4 L967.4,369.4 L967.6,386.8 L967.9,378.5 L968.1,380.2 L968.3,380.0 L968.6,385.8 L968.8,394.8 L969.0,401.3 L969.3,397.4 L969.5,385.5 L969.7,371.6 L969.9,381.8 L970.2,380.4 L970.4,375.1 L970.6,398.1 L970.9,384.3 L971.1,386.4 L971.3,385.6 L971.6,385.6 L971.8,405.3 L972.0,380.0 L972.3,376.7 L972.5,383.0 L972.7,375.0 L973.0,399.2 L973.2,392.5 L973.4,377.5 L973.7,385.8 L973.9,377.8 L974.1,396.9 L974.3,394.7 L974.6,382.7 L974.8,378.8 L975.0,391.8 L975.3,384.7 L975.5,399.8 L975.7,381.1 L976.0,403.4 L976.2,385.7 L976.4,409.3 L976.7,381.1 L976.9,407.5 L977.1,402.0 L977.4,400.5 L977.6,385.6 L977.8,383.9 L978.0,386.1 L978.3,409.2 L978.5,405.5 L978.7,408.0 L979.0,403.1 L979.2,413.0 L979.4,410.8 L979.7,394.4 L979.9,401.2 L980.1,402.6 L980.4,392.9 L980.6,408.8 L980.8,405.9 L981.1,398.2 L981.3,402.9 L981.5,401.5 L981.7,402.8 L982.0,395.1 L982.2,395.5 L982.4,412.0 L982.7,410.3 L982.9,390.7 L983.1,393.1 L983.4,400.6 L983.6,416.9 L983.8,405.5 L984.1,407.2 L984.3,399.5 L984.5,393.7 L984.8,404.2 L985.0,406.2 L985.2,406.7 L985.4,415.5 L985.7,410.5 L985.9,395.8 L986.1,412.7 L986.4,421.0 L986.6,408.1 L986.8,422.6 L987.1,404.4 L987.3,402.6 L987.5,401.1 L987.8,418.1 L988.0,404.1 L988.2,417.9 L988.5,406.9 L988.7,411.2 L988.9,408.1 L989.2,418.1 L989.4,400.7 L989.6,420.9 L989.8,419.6 L990.1,414.2 L990.3,417.7 L990.5,417.4 L990.8,425.4 L991.0,421.2 L991.2,419.8 L991.5,427.3 L991.7,416.2 L991.9,415.0 L992.2,425.0 L992.4,420.2 L992.6,428.1 L992.9,426.6 L993.1,417.5 L993.3,408.4 L993.5,410.8 L993.8,413.6 L994.0,419.8 L994.2,412.1 L994.5,409.4 L994.7,432.8 L994.9,410.2 L995.2,424.5 L995.4,421.2 L995.6,432.3 L995.9,429.4 L996.1,413.7 L996.3,423.5 L996.6,411.7 L996.8,426.2 L997.0,433.4 L997.2,425.8 L997.5,432.7 L997.7,419.0 L997.9,414.3 L998.2,421.5 L998.4,417.4 L998.6,436.5 L998.9,423.2 L999.1,430.9 L999.3,419.6 L999.6,431.6 L999.8,420.3 L1000.0,428.2 L1000.3,420.6 L1000.5,416.9 L1000.7,430.4 L1000.9,427.9 L1001.2,428.7 L1001.4,424.7 L1001.6,418.2 L1001.9,421.3 L1002.1,437.8 L1002.3,426.6 L1002.6,425.6 L1002.8,438.2 L1003.0,436.5 L1003.3,435.3 L1003.5,427.8 L1003.7,433.7 L1004.0,442.1 L1004.2,439.4 L1004.4,436.4 L1004.7,423.3 L1004.9,422.8 L1005.1,435.0 L1005.3,429.5 L1005.6,445.2 L1005.8,436.0 L1006.0,434.9 L1006.3,430.0 L1006.5,441.7 L1006.7,443.2 L1007.0,438.8 L1007.2,429.8 L1007.4,428.3 L1007.7,445.8 L1007.9,439.0 L1008.1,439.9 L1008.4,448.8 L1008.6,444.6 L1008.8,436.6 L1009.0,448.3 L1009.3,444.1 L1009.5,430.5 L1009.7,439.7 L1010.0,433.9 L1010.2,441.4 L1010.4,445.1 L1010.7,445.2 L1010.9,451.8 L1011.1,441.2 L1011.4,444.4 L1011.6,449.6 L1011.8,450.0 L1012.1,443.3 L1012.3,451.0 L1012.5,448.1 L1012.7,454.4 L1013.0,437.0 L1013.2,450.1 L1013.4,452.9 L1013.7,444.0 L1013.9,444.9 L1014.1,451.3 L1014.4,452.9 L1014.6,442.6 L1014.8,451.1 L1015.1,457.1 L1015.3,445.0 L1015.5,453.6 L1015.8,445.8 L1016.0,445.1 L1016.2,444.7 L1016.4,442.9 L1016.7,455.4 L1016.9,442.2 L1017.1,449.2 L1017.4,454.9 L1017.6,456.3 L1017.8,443.1 L1018.1,456.3 L1018.3,461.0 L1018.5,457.0 L1018.8,452.9 L1019.0,456.1 L1019.2,460.9 L1019.5,456.4 L1019.7,453.2 L1019.9,463.0 L1020.2,453.5 L1020.4,446.4 L1020.6,453.7 L1020.8,456.5 L1021.1,449.8 L1021.3,465.2 L1021.5,454.6 L1021.8,455.5 L1022.0,453.0 L1022.2,457.0 L1022.5,460.7 L1022.7,465.0 L1022.9,461.9 L1023.2,463.9 L1023.4,459.9 L1023.6,461.1 L1023.9,456.1 L1024.1,460.1 L1024.3,454.3 L1024.5,466.8 L1024.8,460.6 L1025.0,467.6 L1025.2,463.4 L1025.5,457.1 L1025.7,466.5 L1025.9,469.6 L1026.2,455.7 L1026.4,459.8 L1026.6,457.8 L1026.9,457.7 L1027.1,469.7 L1027.3,471.7 L1027.6,465.0 L1027.8,458.7 L1028.0,465.8 L1028.2,464.0 L1028.5,463.0 L1028.7,460.6 L1028.9,469.4 L1029.2,461.0 L1029.4,470.1 L1029.6,461.5 L1029.9,472.3 L1030.1,472.2 L1030.3,471.7 L1030.6,473.4 L1030.8,461.6 L1031.0,463.0 L1031.3,470.3 L1031.5,466.3 L1031.7,477.2 L1031.9,464.7 L1032.2,466.5 L1032.4,478.4 L1032.6,478.0 L1032.9,472.2 L1033.1,465.4 L1033.3,466.9 L1033.6,472.5 L1033.8,476.5 L1034.0,468.6 L1034.3,477.5 L1034.5,476.5 L1034.7,470.6 L1035.0,468.7 L1035.2,473.6 L1035.4,477.4 L1035.7,473.9 L1035.9,472.9 L1036.1,483.4 L1036.3,477.7 L1036.6,476.7 L1036.8,474.3 L1037.0,473.1 L1037.3,474.2 L1037.5,478.5 L1037.7,484.5 L1038.0,478.9 L1038.2,481.4 L1038.4,485.9 L1038.7,484.5 L1038.9,481.8 L1039.1,479.1 L1039.4,478.3 L1039.6,480.0 L1039.8,478.9 L1040.0,487.2 L1040.3,477.8 L1040.5,489.2 L1040.7,480.3 L1041.0,488.3 L1041.2,486.3 L1041.4,484.2 L1041.7,487.8 L1041.9,486.1 L1042.1,480.3 L1042.4,484.8 L1042.6,479.5 L1042.8,490.9 L1043.1,482.5 L1043.3,480.6 L1043.5,492.6 L1043.7,485.8 L1044.0,489.5 L1044.2,486.4 L1044.4,482.8 L1044.7,484.9 L1044.9,488.1 L1045.1,487.9 L1045.4,484.6 L1045.6,491.2 L1045.8,487.4 L1046.1,492.2 L1046.3,489.7 L1046.5,487.1 L1046.8,493.3 L1047.0,495.7 L1047.2,496.4 L1047.4,489.0 L1047.7,493.0 L1047.9,495.5 L1048.1,488.3 L1048.4,493.9 L1048.6,490.7 L1048.8,496.9 L1049.1,495.6 L1049.3,490.0 L1049.5,491.1 L1049.8,498.0 L1050.0,493.9 L1050.2,499.6 L1050.5,493.2 L1050.7,494.6 L1050.9,495.1 L1051.1,492.5 L1051.4,496.0 L1051.6,495.6 L1051.8,495.8 L1052.1,500.8 L1052.3,499.7 L1052.5,503.4 L1052.8,498.2 L1053.0,495.8 L1053.2,499.1 L1053.5,498.3 L1053.7,501.1 L1053.9,497.2 L1054.2,501.6 L1054.4,499.8 L1054.6,498.1 L1054.9,499.1 L1055.1,504.6 L1055.3,499.3 L1055.5,503.9 L1055.8,508.1 L1056.0,507.9 L1056.2,503.8 L1056.5,501.6 L1056.7,502.7 L1056.9,508.3 L1057.2,504.6 L1057.4,503.1 L1057.6,510.1 L1057.9,509.5 L1058.1,509.3 L1058.3,504.4 L1058.6,508.6 L1058.8,511.4 L1059.0,512.3 L1059.2,510.1 L1059.5,511.7 L1059.7,506.1 L1059.9,509.4 L1060.2,509.9 L1060.4,509.5 L1060.6,512.9 L1060.9,511.0 L1061.1,512.1 L1061.3,513.4 L1061.6,512.5 L1061.8,514.5 L1062.0,512.7 L1062.3,510.0 L1062.5,513.7 L1062.7,510.7 L1062.9,515.8 L1063.2,513.4 L1063.4,514.3 L1063.6,513.3 L1063.9,517.7 L1064.1,513.8 L1064.3,517.1 L1064.6,515.8 L1064.8,519.3 L1065.0,519.6 L1065.3,514.8 L1065.5,519.9 L1065.7,517.4 L1066.0,518.2 L1066.2,516.8 L1066.4,516.3 L1066.6,521.8 L1066.9,519.6 L1067.1,517.1 L1067.3,521.8 L1067.6,520.1 L1067.8,521.4 L1068.0,521.5 L1068.3,520.8 L1068.5,519.1 L1068.7,522.4 L1069.0,522.7 L1069.2,521.1 L1069.4,524.8 L1069.7,521.3 L1069.9,521.8 L1070.1,524.9 L1070.4,523.7 L1070.6,522.4 L1070.8,523.5 L1071.0,525.2 L1071.3,526.0 L1071.5,524.6 L1071.7,527.2 L1072.0,524.8 L1072.2,527.8 L1072.4,528.1 L1072.7,527.5 L1072.9,528.5 L1073.1,529.9 L1073.4,527.7 L1073.6,528.0 L1073.8,528.1 L1074.1,528.4 L1074.3,528.1 L1074.5,529.0 L1074.7,531.9 L1075.0,529.4 L1075.2,529.3 L1075.4,531.1 L1075.7,532.7 L1075.9,531.1 L1076.1,533.3 L1076.4,532.2 L1076.6,531.9 L1076.8,532.9 L1077.1,533.4 L1077.3,534.6 L1077.5,534.0 L1077.8,535.3 L1078.0,534.8 L1078.2,534.4 L1078.4,536.5 L1078.7,536.2 L1078.9,537.0 L1079.1,536.4 L1079.4,537.0 L1079.6,536.1 L1079.8,538.0 L1080.1,537.9 L1080.3,537.3 L1080.5,539.0 L1080.8,538.7 L1081.0,538.2 L1081.2,539.3 L1081.5,539.4 L1081.7,540.9 L1081.9,540.7 L1082.1,540.8 L1082.4,540.6 L1082.6,541.2 L1082.8,541.2 L1083.1,541.9 L1083.3,542.5 L1083.5,542.3 L1083.8,543.1 L1084.0,543.2" fill="none" stroke="#1f77b4" stroke-width="1.4" opacity="0.85"/><text x="1040" y="54" fill="#ff7f0e" font-size="11">roll 0</text><text x="1090" y="558" fill="#ff7f0e" font-size="11">-0</text><path d="M616.0,193.0 L616.2,427.0 L616.5,193.0 L616.7,310.0 L616.9,193.0 L617.2,193.0 L617.4,427.0 L617.6,427.0 L617.9,193.0 L618.1,310.0 L618.3,427.0 L618.5,310.0 L618.8,310.0 L619.0,193.0 L619.2,193.0 L619.5,310.0 L619.7,310.0 L619.9,427.0 L620.2,310.0 L620.4,427.0 L620.6,310.0 L620.9,310.0 L621.1,310.0 L621.3,427.0 L621.6,310.0 L621.8,310.0 L622.0,193.0 L622.2,310.0 L622.5,193.0 L622.7,310.0 L622.9,310.0 L623.2,427.0 L623.4,427.0 L623.6,310.0 L623.9,310.0 L624.1,193.0 L624.3,427.0 L624.6,427.0 L624.8,193.0 L625.0,427.0 L625.3,193.0 L625.5,427.0 L625.7,310.0 L625.9,427.0 L626.2,427.0 L626.4,310.0 L626.6,193.0 L626.9,310.0 L627.1,193.0 L627.3,310.0 L627.6,310.0 L627.8,427.0 L628.0,193.0 L628.3,310.0 L628.5,193.0 L628.7,310.0 L629.0,193.0 L629.2,310.0 L629.4,427.0 L629.6,193.0 L629.9,427.0 L630.1,193.0 L630.3,193.0 L630.6,310.0 L630.8,310.0 L631.0,427.0 L631.3,193.0 L631.5,310.0 L631.7,310.0 L632.0,427.0 L632.2,310.0 L632.4,193.0 L632.7,310.0 L632.9,427.0 L633.1,427.0 L633.4,193.0 L633.6,427.0 L633.8,193.0 L634.0,310.0 L634.3,310.0 L634.5,193.0 L634.7,310.0 L635.0,310.0 L635.2,310.0 L635.4,193.0 L635.7,193.0 L635.9,427.0 L636.1,310.0 L636.4,310.0 L636.6,310.0 L636.8,310.0 L637.1,427.0 L637.3,193.0 L637.5,193.0 L637.7,310.0 L638.0,310.0 L638.2,310.0 L638.4,193.0 L638.7,427.0 L638.9,193.0 L639.1,310.0 L639.4,193.0 L639.6,310.0 L639.8,193.0 L640.1,310.0 L640.3,427.0 L640.5,427.0 L640.8,310.0 L641.0,310.0 L641.2,427.0 L641.4,427.0 L641.7,193.0 L641.9,193.0 L642.1,310.0 L642.4,310.0 L642.6,427.0 L642.8,193.0 L643.1,310.0 L643.3,310.0 L643.5,310.0 L643.8,427.0 L644.0,427.0 L644.2,193.0 L644.5,193.0 L644.7,427.0 L644.9,193.0 L645.1,193.0 L645.4,310.0 L645.6,427.0 L645.8,427.0 L646.1,310.0 L646.3,310.0 L646.5,193.0 L646.8,310.0 L647.0,310.0 L647.2,427.0 L647.5,193.0 L647.7,427.0 L647.9,310.0 L648.2,310.0 L648.4,427.0 L648.6,310.0 L648.9,310.0 L649.1,427.0 L649.3,427.0 L649.5,427.0 L649.8,310.0 L650.0,427.0 L650.2,310.0 L650.5,310.0 L650.7,193.0 L650.9,310.0 L651.2,193.0 L651.4,310.0 L651.6,427.0 L651.9,193.0 L652.1,310.0 L652.3,310.0 L652.6,310.0 L652.8,310.0 L653.0,427.0 L653.2,310.0 L653.5,427.0 L653.7,193.0 L653.9,427.0 L654.2,310.0 L654.4,193.0 L654.6,427.0 L654.9,427.0 L655.1,427.0 L655.3,310.0 L655.6,310.0 L655.8,310.0 L656.0,193.0 L656.3,427.0 L656.5,193.0 L656.7,427.0 L656.9,427.0 L657.2,310.0 L657.4,427.0 L657.6,310.0 L657.9,310.0 L658.1,310.0 L658.3,310.0 L658.6,310.0 L658.8,310.0 L659.0,427.0 L659.3,193.0 L659.5,310.0 L659.7,310.0 L660.0,310.0 L660.2,310.0 L660.4,310.0 L660.6,193.0 L660.9,427.0 L661.1,193.0 L661.3,310.0 L661.6,310.0 L661.8,193.0 L662.0,193.0 L662.3,310.0 L662.5,310.0 L662.7,193.0 L663.0,193.0 L663.2,427.0 L663.4,310.0 L663.7,193.0 L663.9,310.0 L664.1,193.0 L664.3,193.0 L664.6,427.0 L664.8,193.0 L665.0,193.0 L665.3,427.0 L665.5,310.0 L665.7,427.0 L666.0,193.0 L666.2,427.0 L666.4,310.0 L666.7,427.0 L666.9,427.0 L667.1,310.0 L667.4,427.0 L667.6,427.0 L667.8,193.0 L668.1,427.0 L668.3,427.0 L668.5,310.0 L668.7,310.0 L669.0,310.0 L669.2,193.0 L669.4,310.0 L669.7,193.0 L669.9,310.0 L670.1,310.0 L670.4,310.0 L670.6,310.0 L670.8,310.0 L671.1,193.0 L671.3,193.0 L671.5,310.0 L671.8,193.0 L672.0,310.0 L672.2,310.0 L672.4,427.0 L672.7,310.0 L672.9,310.0 L673.1,310.0 L673.4,310.0 L673.6,193.0 L673.8,427.0 L674.1,193.0 L674.3,310.0 L674.5,193.0 L674.8,310.0 L675.0,310.0 L675.2,310.0 L675.5,193.0 L675.7,193.0 L675.9,193.0 L676.1,193.0 L676.4,310.0 L676.6,193.0 L676.8,193.0 L677.1,193.0 L677.3,310.0 L677.5,310.0 L677.8,310.0 L678.0,310.0 L678.2,310.0 L678.5,310.0 L678.7,310.0 L678.9,427.0 L679.2,427.0 L679.4,427.0 L679.6,427.0 L679.8,310.0 L680.1,193.0 L680.3,310.0 L680.5,193.0 L680.8,310.0 L681.0,310.0 L681.2,193.0 L681.5,310.0 L681.7,427.0 L681.9,427.0 L682.2,310.0 L682.4,310.0 L682.6,193.0 L682.9,193.0 L683.1,193.0 L683.3,193.0 L683.6,193.0 L683.8,193.0 L684.0,310.0 L684.2,427.0 L684.5,427.0 L684.7,310.0 L684.9,310.0 L685.2,427.0 L685.4,310.0 L685.6,193.0 L685.9,310.0 L686.1,427.0 L686.3,310.0 L686.6,310.0 L686.8,193.0 L687.0,310.0 L687.3,310.0 L687.5,310.0 L687.7,427.0 L687.9,193.0 L688.2,310.0 L688.4,193.0 L688.6,427.0 L688.9,193.0 L689.1,310.0 L689.3,310.0 L689.6,193.0 L689.8,427.0 L690.0,310.0 L690.3,193.0 L690.5,193.0 L690.7,310.0 L691.0,310.0 L691.2,310.0 L691.4,310.0 L691.6,193.0 L691.9,310.0 L692.1,193.0 L692.3,310.0 L692.6,193.0 L692.8,427.0 L693.0,310.0 L693.3,310.0 L693.5,193.0 L693.7,310.0 L694.0,310.0 L694.2,310.0 L694.4,193.0 L694.7,427.0 L694.9,193.0 L695.1,427.0 L695.3,193.0 L695.6,310.0 L695.8,427.0 L696.0,310.0 L696.3,310.0 L696.5,310.0 L696.7,310.0 L697.0,427.0 L697.2,310.0 L697.4,427.0 L697.7,310.0 L697.9,310.0 L698.1,427.0 L698.4,310.0 L698.6,310.0 L698.8,310.0 L699.1,310.0 L699.3,310.0 L699.5,310.0 L699.7,427.0 L700.0,310.0 L700.2,427.0 L700.4,193.0 L700.7,427.0 L700.9,193.0 L701.1,310.0 L701.4,310.0 L701.6,193.0 L701.8,193.0 L702.1,310.0 L702.3,427.0 L702.5,310.0 L702.8,427.0 L703.0,310.0 L703.2,427.0 L703.4,193.0 L703.7,310.0 L703.9,310.0 L704.1,310.0 L704.4,427.0 L704.6,310.0 L704.8,427.0 L705.1,193.0 L705.3,427.0 L705.5,193.0 L705.8,427.0 L706.0,193.0 L706.2,427.0 L706.5,310.0 L706.7,310.0 L706.9,310.0 L707.1,310.0 L707.4,427.0 L707.6,310.0 L707.8,427.0 L708.1,310.0 L708.3,310.0 L708.5,310.0 L708.8,427.0 L709.0,193.0 L709.2,310.0 L709.5,310.0 L709.7,310.0 L709.9,193.0 L710.2,310.0 L710.4,427.0 L710.6,310.0 L710.8,310.0 L711.1,310.0 L711.3,193.0 L711.5,310.0 L711.8,193.0 L712.0,310.0 L712.2,310.0 L712.5,427.0 L712.7,427.0 L712.9,310.0 L713.2,310.0 L713.4,427.0 L713.6,310.0 L713.9,310.0 L714.1,427.0 L714.3,193.0 L714.6,427.0 L714.8,310.0 L715.0,310.0 L715.2,310.0 L715.5,310.0 L715.7,427.0 L715.9,310.0 L716.2,193.0 L716.4,193.0 L716.6,310.0 L716.9,427.0 L717.1,310.0 L717.3,310.0 L717.6,310.0 L717.8,310.0 L718.0,310.0 L718.3,310.0 L718.5,310.0 L718.7,310.0 L718.9,310.0 L719.2,427.0 L719.4,310.0 L719.6,193.0 L719.9,310.0 L720.1,193.0 L720.3,427.0 L720.6,427.0 L720.8,310.0 L721.0,310.0 L721.3,310.0 L721.5,310.0 L721.7,310.0 L722.0,193.0 L722.2,193.0 L722.4,310.0 L722.6,310.0 L722.9,193.0 L723.1,310.0 L723.3,310.0 L723.6,193.0 L723.8,310.0 L724.0,427.0 L724.3,310.0 L724.5,427.0 L724.7,310.0 L725.0,193.0 L725.2,193.0 L725.4,427.0 L725.7,427.0 L725.9,310.0 L726.1,310.0 L726.3,193.0 L726.6,193.0 L726.8,310.0 L727.0,193.0 L727.3,310.0 L727.5,310.0 L727.7,310.0 L728.0,193.0 L728.2,427.0 L728.4,193.0 L728.7,310.0 L728.9,310.0 L729.1,310.0 L729.4,310.0 L729.6,310.0 L729.8,310.0 L730.1,310.0 L730.3,310.0 L730.5,310.0 L730.7,193.0 L731.0,193.0 L731.2,193.0 L731.4,193.0 L731.7,310.0 L731.9,310.0 L732.1,193.0 L732.4,427.0 L732.6,193.0 L732.8,310.0 L733.1,310.0 L733.3,427.0 L733.5,193.0 L733.8,310.0 L734.0,310.0 L734.2,193.0 L734.4,427.0 L734.7,310.0 L734.9,310.0 L735.1,193.0 L735.4,193.0 L735.6,310.0 L735.8,427.0 L736.1,310.0 L736.3,193.0 L736.5,310.0 L736.8,193.0 L737.0,427.0 L737.2,310.0 L737.5,310.0 L737.7,310.0 L737.9,427.0 L738.1,427.0 L738.4,310.0 L738.6,310.0 L738.8,193.0 L739.1,427.0 L739.3,427.0 L739.5,310.0 L739.8,193.0 L740.0,310.0 L740.2,427.0 L740.5,193.0 L740.7,310.0 L740.9,193.0 L741.2,193.0 L741.4,193.0 L741.6,427.0 L741.8,310.0 L742.1,310.0 L742.3,310.0 L742.5,310.0 L742.8,310.0 L743.0,427.0 L743.2,310.0 L743.5,427.0 L743.7,310.0 L743.9,310.0 L744.2,310.0 L744.4,427.0 L744.6,310.0 L744.9,193.0 L745.1,427.0 L745.3,193.0 L745.6,310.0 L745.8,310.0 L746.0,193.0 L746.2,310.0 L746.5,427.0 L746.7,310.0 L746.9,193.0 L747.2,427.0 L747.4,310.0 L747.6,310.0 L747.9,310.0 L748.1,193.0 L748.3,193.0 L748.6,310.0 L748.8,193.0 L749.0,193.0 L749.3,310.0 L749.5,310.0 L749.7,310.0 L749.9,427.0 L750.2,310.0 L750.4,310.0 L750.6,193.0 L750.9,310.0 L751.1,310.0 L751.3,193.0 L751.6,427.0 L751.8,310.0 L752.0,310.0 L752.3,427.0 L752.5,310.0 L752.7,310.0 L753.0,193.0 L753.2,427.0 L753.4,427.0 L753.6,310.0 L753.9,310.0 L754.1,193.0 L754.3,193.0 L754.6,427.0 L754.8,193.0 L755.0,310.0 L755.3,427.0 L755.5,310.0 L755.7,427.0 L756.0,193.0 L756.2,310.0 L756.4,310.0 L756.7,193.0 L756.9,193.0 L757.1,310.0 L757.3,193.0 L757.6,310.0 L757.8,193.0 L758.0,310.0 L758.3,427.0 L758.5,193.0 L758.7,310.0 L759.0,310.0 L759.2,193.0 L759.4,310.0 L759.7,193.0 L759.9,310.0 L760.1,193.0 L760.4,427.0 L760.6,193.0 L760.8,310.0 L761.0,193.0 L761.3,427.0 L761.5,193.0 L761.7,427.0 L762.0,310.0 L762.2,427.0 L762.4,193.0 L762.7,310.0 L762.9,310.0 L763.1,310.0 L763.4,193.0 L763.6,427.0 L763.8,427.0 L764.1,310.0 L764.3,310.0 L764.5,310.0 L764.8,193.0 L765.0,310.0 L765.2,193.0 L765.4,427.0 L765.7,310.0 L765.9,310.0 L766.1,427.0 L766.4,427.0 L766.6,193.0 L766.8,310.0 L767.1,310.0 L767.3,193.0 L767.5,427.0 L767.8,193.0 L768.0,310.0 L768.2,310.0 L768.5,427.0 L768.7,427.0 L768.9,193.0 L769.1,310.0 L769.4,427.0 L769.6,310.0 L769.8,193.0 L770.1,310.0 L770.3,427.0 L770.5,310.0 L770.8,310.0 L771.0,427.0 L771.2,427.0 L771.5,193.0 L771.7,310.0 L771.9,427.0 L772.2,427.0 L772.4,310.0 L772.6,427.0 L772.8,310.0 L773.1,310.0 L773.3,427.0 L773.5,310.0 L773.8,193.0 L774.0,193.0 L774.2,427.0 L774.5,310.0 L774.7,193.0 L774.9,427.0 L775.2,193.0 L775.4,427.0 L775.6,310.0 L775.9,310.0 L776.1,310.0 L776.3,427.0 L776.5,310.0 L776.8,310.0 L777.0,193.0 L777.2,427.0 L777.5,193.0 L777.7,310.0 L777.9,310.0 L778.2,310.0 L778.4,193.0 L778.6,193.0 L778.9,310.0 L779.1,310.0 L779.3,193.0 L779.6,310.0 L779.8,310.0 L780.0,193.0 L780.3,427.0 L780.5,310.0 L780.7,310.0 L780.9,310.0 L781.2,193.0 L781.4,310.0 L781.6,310.0 L781.9,310.0 L782.1,427.0 L782.3,310.0 L782.6,310.0 L782.8,193.0 L783.0,427.0 L783.3,310.0 L783.5,193.0 L783.7,193.0 L784.0,310.0 L784.2,193.0 L784.4,427.0 L784.6,310.0 L784.9,427.0 L785.1,193.0 L785.3,310.0 L785.6,193.0 L785.8,427.0 L786.0,193.0 L786.3,310.0 L786.5,193.0 L786.7,310.0 L787.0,193.0 L787.2,427.0 L787.4,310.0 L787.7,427.0 L787.9,193.0 L788.1,310.0 L788.3,193.0 L788.6,427.0 L788.8,310.0 L789.0,310.0 L789.3,310.0 L789.5,310.0 L789.7,310.0 L790.0,310.0 L790.2,193.0 L790.4,427.0 L790.7,427.0 L790.9,310.0 L791.1,310.0 L791.4,310.0 L791.6,193.0 L791.8,310.0 L792.0,310.0 L792.3,427.0 L792.5,310.0 L792.7,310.0 L793.0,427.0 L793.2,310.0 L793.4,193.0 L793.7,310.0 L793.9,193.0 L794.1,310.0 L794.4,310.0 L794.6,310.0 L794.8,193.0 L795.1,427.0 L795.3,310.0 L795.5,310.0 L795.8,193.0 L796.0,193.0 L796.2,193.0 L796.4,427.0 L796.7,193.0 L796.9,427.0 L797.1,310.0 L797.4,310.0 L797.6,427.0 L797.8,310.0 L798.1,310.0 L798.3,193.0 L798.5,310.0 L798.8,427.0 L799.0,427.0 L799.2,310.0 L799.5,193.0 L799.7,427.0 L799.9,193.0 L800.1,310.0 L800.4,193.0 L800.6,310.0 L800.8,310.0 L801.1,427.0 L801.3,310.0 L801.5,310.0 L801.8,193.0 L802.0,427.0 L802.2,193.0 L802.5,310.0 L802.7,310.0 L802.9,310.0 L803.2,193.0 L803.4,193.0 L803.6,310.0 L803.8,427.0 L804.1,310.0 L804.3,310.0 L804.5,427.0 L804.8,310.0 L805.0,193.0 L805.2,310.0 L805.5,193.0 L805.7,193.0 L805.9,310.0 L806.2,310.0 L806.4,310.0 L806.6,427.0 L806.9,193.0 L807.1,427.0 L807.3,193.0 L807.5,193.0 L807.8,427.0 L808.0,193.0 L808.2,310.0 L808.5,193.0 L808.7,193.0 L808.9,310.0 L809.2,310.0 L809.4,427.0 L809.6,427.0 L809.9,310.0 L810.1,193.0 L810.3,427.0 L810.6,427.0 L810.8,310.0 L811.0,427.0 L811.3,427.0 L811.5,310.0 L811.7,427.0 L811.9,427.0 L812.2,193.0 L812.4,427.0 L812.6,427.0 L812.9,427.0 L813.1,310.0 L813.3,427.0 L813.6,310.0 L813.8,310.0 L814.0,193.0 L814.3,427.0 L814.5,193.0 L814.7,310.0 L815.0,193.0 L815.2,310.0 L815.4,310.0 L815.6,427.0 L815.9,193.0 L816.1,310.0 L816.3,310.0 L816.6,193.0 L816.8,427.0 L817.0,310.0 L817.3,310.0 L817.5,193.0 L817.7,310.0 L818.0,193.0 L818.2,310.0 L818.4,193.0 L818.7,193.0 L818.9,427.0 L819.1,310.0 L819.3,310.0 L819.6,310.0 L819.8,427.0 L820.0,310.0 L820.3,193.0 L820.5,310.0 L820.7,310.0 L821.0,193.0 L821.2,310.0 L821.4,427.0 L821.7,427.0 L821.9,310.0 L822.1,310.0 L822.4,310.0 L822.6,310.0 L822.8,427.0 L823.0,310.0 L823.3,193.0 L823.5,427.0 L823.7,310.0 L824.0,427.0 L824.2,310.0 L824.4,310.0 L824.7,310.0 L824.9,310.0 L825.1,310.0 L825.4,193.0 L825.6,193.0 L825.8,310.0 L826.1,310.0 L826.3,310.0 L826.5,427.0 L826.8,310.0 L827.0,310.0 L827.2,310.0 L827.4,310.0 L827.7,310.0 L827.9,193.0 L828.1,193.0 L828.4,310.0 L828.6,427.0 L828.8,310.0 L829.1,193.0 L829.3,427.0 L829.5,310.0 L829.8,193.0 L830.0,193.0 L830.2,427.0 L830.5,310.0 L830.7,310.0 L830.9,193.0 L831.1,310.0 L831.4,193.0 L831.6,310.0 L831.8,310.0 L832.1,193.0 L832.3,310.0 L832.5,310.0 L832.8,310.0 L833.0,310.0 L833.2,310.0 L833.5,193.0 L833.7,427.0 L833.9,310.0 L834.2,76.0 L834.4,310.0 L834.6,193.0 L834.8,193.0 L835.1,193.0 L835.3,310.0 L835.5,193.0 L835.8,193.0 L836.0,310.0 L836.2,310.0 L836.5,310.0 L836.7,310.0 L836.9,193.0 L837.2,427.0 L837.4,193.0 L837.6,310.0 L837.9,193.0 L838.1,310.0 L838.3,427.0 L838.5,193.0 L838.8,310.0 L839.0,427.0 L839.2,310.0 L839.5,310.0 L839.7,193.0 L839.9,193.0 L840.2,310.0 L840.4,193.0 L840.6,193.0 L840.9,427.0 L841.1,193.0 L841.3,310.0 L841.6,310.0 L841.8,310.0 L842.0,310.0 L842.3,193.0 L842.5,427.0 L842.7,310.0 L842.9,310.0 L843.2,310.0 L843.4,310.0 L843.6,310.0 L843.9,310.0 L844.1,310.0 L844.3,193.0 L844.6,310.0 L844.8,427.0 L845.0,193.0 L845.3,310.0 L845.5,310.0 L845.7,427.0 L846.0,193.0 L846.2,310.0 L846.4,310.0 L846.6,310.0 L846.9,427.0 L847.1,193.0 L847.3,310.0 L847.6,310.0 L847.8,427.0 L848.0,193.0 L848.3,310.0 L848.5,310.0 L848.7,310.0 L849.0,310.0 L849.2,427.0 L849.4,193.0 L849.7,310.0 L849.9,310.0 L850.1,310.0 L850.3,427.0 L850.6,310.0 L850.8,310.0 L851.0,427.0 L851.3,310.0 L851.5,193.0 L851.7,310.0 L852.0,310.0 L852.2,427.0 L852.4,310.0 L852.7,310.0 L852.9,193.0 L853.1,427.0 L853.4,427.0 L853.6,193.0 L853.8,310.0 L854.0,310.0 L854.3,310.0 L854.5,427.0 L854.7,193.0 L855.0,193.0 L855.2,427.0 L855.4,310.0 L855.7,310.0 L855.9,310.0 L856.1,193.0 L856.4,310.0 L856.6,310.0 L856.8,427.0 L857.1,193.0 L857.3,310.0 L857.5,310.0 L857.7,310.0 L858.0,193.0 L858.2,310.0 L858.4,427.0 L858.7,310.0 L858.9,427.0 L859.1,310.0 L859.4,310.0 L859.6,427.0 L859.8,427.0 L860.1,310.0 L860.3,193.0 L860.5,193.0 L860.8,310.0 L861.0,310.0 L861.2,193.0 L861.5,193.0 L861.7,310.0 L861.9,310.0 L862.1,427.0 L862.4,427.0 L862.6,427.0 L862.8,310.0 L863.1,310.0 L863.3,193.0 L863.5,193.0 L863.8,427.0 L864.0,310.0 L864.2,310.0 L864.5,427.0 L864.7,310.0 L864.9,310.0 L865.2,193.0 L865.4,310.0 L865.6,427.0 L865.8,427.0 L866.1,310.0 L866.3,193.0 L866.5,310.0 L866.8,310.0 L867.0,310.0 L867.2,427.0 L867.5,193.0 L867.7,310.0 L867.9,310.0 L868.2,427.0 L868.4,310.0 L868.6,427.0 L868.9,193.0 L869.1,427.0 L869.3,193.0 L869.5,310.0 L869.8,310.0 L870.0,310.0 L870.2,427.0 L870.5,193.0 L870.7,427.0 L870.9,310.0 L871.2,310.0 L871.4,193.0 L871.6,310.0 L871.9,193.0 L872.1,193.0 L872.3,193.0 L872.6,427.0 L872.8,310.0 L873.0,310.0 L873.2,427.0 L873.5,310.0 L873.7,310.0 L873.9,310.0 L874.2,310.0 L874.4,310.0 L874.6,193.0 L874.9,427.0 L875.1,193.0 L875.3,310.0 L875.6,193.0 L875.8,310.0 L876.0,310.0 L876.3,310.0 L876.5,310.0 L876.7,193.0 L877.0,310.0 L877.2,193.0 L877.4,427.0 L877.6,193.0 L877.9,427.0 L878.1,310.0 L878.3,427.0 L878.6,310.0 L878.8,310.0 L879.0,310.0 L879.3,310.0 L879.5,310.0 L879.7,427.0 L880.0,310.0 L880.2,427.0 L880.4,310.0 L880.7,193.0 L880.9,310.0 L881.1,310.0 L881.3,427.0 L881.6,310.0 L881.8,193.0 L882.0,427.0 L882.3,310.0 L882.5,310.0 L882.7,427.0 L883.0,310.0 L883.2,310.0 L883.4,427.0 L883.7,193.0 L883.9,427.0 L884.1,193.0 L884.4,544.0 L884.6,310.0 L884.8,310.0 L885.0,427.0 L885.3,193.0 L885.5,427.0 L885.7,427.0 L886.0,310.0 L886.2,427.0 L886.4,427.0 L886.7,427.0 L886.9,427.0 L887.1,427.0 L887.4,310.0 L887.6,310.0 L887.8,310.0 L888.1,427.0 L888.3,193.0 L888.5,427.0 L888.7,310.0 L889.0,310.0 L889.2,193.0 L889.4,427.0 L889.7,193.0 L889.9,310.0 L890.1,310.0 L890.4,193.0 L890.6,427.0 L890.8,193.0 L891.1,193.0 L891.3,310.0 L891.5,427.0 L891.8,193.0 L892.0,193.0 L892.2,310.0 L892.5,310.0 L892.7,427.0 L892.9,193.0 L893.1,310.0 L893.4,310.0 L893.6,310.0 L893.8,310.0 L894.1,193.0 L894.3,427.0 L894.5,310.0 L894.8,310.0 L895.0,427.0 L895.2,310.0 L895.5,310.0 L895.7,427.0 L895.9,310.0 L896.2,193.0 L896.4,193.0 L896.6,310.0 L896.8,310.0 L897.1,310.0 L897.3,193.0 L897.5,310.0 L897.8,193.0 L898.0,310.0 L898.2,310.0 L898.5,310.0 L898.7,310.0 L898.9,427.0 L899.2,193.0 L899.4,193.0 L899.6,310.0 L899.9,310.0 L900.1,310.0 L900.3,193.0 L900.5,427.0 L900.8,193.0 L901.0,310.0 L901.2,310.0 L901.5,310.0 L901.7,310.0 L901.9,310.0 L902.2,193.0 L902.4,310.0 L902.6,193.0 L902.9,310.0 L903.1,310.0 L903.3,427.0 L903.6,310.0 L903.8,310.0 L904.0,427.0 L904.2,193.0 L904.5,193.0 L904.7,427.0 L904.9,193.0 L905.2,427.0 L905.4,310.0 L905.6,310.0 L905.9,310.0 L906.1,310.0 L906.3,310.0 L906.6,310.0 L906.8,310.0 L907.0,310.0 L907.3,427.0 L907.5,310.0 L907.7,427.0 L908.0,310.0 L908.2,427.0 L908.4,427.0 L908.6,310.0 L908.9,310.0 L909.1,310.0 L909.3,427.0 L909.6,310.0 L909.8,427.0 L910.0,193.0 L910.3,310.0 L910.5,310.0 L910.7,193.0 L911.0,427.0 L911.2,193.0 L911.4,427.0 L911.7,427.0 L911.9,193.0 L912.1,310.0 L912.3,310.0 L912.6,310.0 L912.8,310.0 L913.0,427.0 L913.3,427.0 L913.5,193.0 L913.7,310.0 L914.0,193.0 L914.2,310.0 L914.4,193.0 L914.7,310.0 L914.9,427.0 L915.1,310.0 L915.4,310.0 L915.6,310.0 L915.8,193.0 L916.0,310.0 L916.3,193.0 L916.5,427.0 L916.7,193.0 L917.0,310.0 L917.2,310.0 L917.4,193.0 L917.7,310.0 L917.9,310.0 L918.1,310.0 L918.4,193.0 L918.6,310.0 L918.8,427.0 L919.1,193.0 L919.3,427.0 L919.5,427.0 L919.7,427.0 L920.0,193.0 L920.2,427.0 L920.4,310.0 L920.7,310.0 L920.9,310.0 L921.1,310.0 L921.4,310.0 L921.6,193.0 L921.8,310.0 L922.1,193.0 L922.3,310.0 L922.5,310.0 L922.8,427.0 L923.0,427.0 L923.2,310.0 L923.5,193.0 L923.7,310.0 L923.9,427.0 L924.1,310.0 L924.4,427.0 L924.6,310.0 L924.8,310.0 L925.1,310.0 L925.3,427.0 L925.5,310.0 L925.8,427.0 L926.0,193.0 L926.2,310.0 L926.5,310.0 L926.7,310.0 L926.9,427.0 L927.2,193.0 L927.4,427.0 L927.6,310.0 L927.8,427.0 L928.1,310.0 L928.3,427.0 L928.5,310.0 L928.8,193.0 L929.0,310.0 L929.2,427.0 L929.5,310.0 L929.7,310.0 L929.9,310.0 L930.2,310.0 L930.4,193.0 L930.6,310.0 L930.9,427.0 L931.1,427.0 L931.3,193.0 L931.5,193.0 L931.8,193.0 L932.0,427.0 L932.2,310.0 L932.5,310.0 L932.7,310.0 L932.9,310.0 L933.2,193.0 L933.4,427.0 L933.6,427.0 L933.9,310.0 L934.1,310.0 L934.3,310.0 L934.6,310.0 L934.8,427.0 L935.0,310.0 L935.2,310.0 L935.5,310.0 L935.7,427.0 L935.9,193.0 L936.2,310.0 L936.4,193.0 L936.6,310.0 L936.9,193.0 L937.1,193.0 L937.3,427.0 L937.6,193.0 L937.8,310.0 L938.0,193.0 L938.3,427.0 L938.5,310.0 L938.7,193.0 L939.0,310.0 L939.2,193.0 L939.4,310.0 L939.6,310.0 L939.9,193.0 L940.1,427.0 L940.3,193.0 L940.6,310.0 L940.8,310.0 L941.0,427.0 L941.3,310.0 L941.5,427.0 L941.7,310.0 L942.0,310.0 L942.2,310.0 L942.4,193.0 L942.7,310.0 L942.9,427.0 L943.1,310.0 L943.3,310.0 L943.6,310.0 L943.8,193.0 L944.0,310.0 L944.3,193.0 L944.5,193.0 L944.7,310.0 L945.0,427.0 L945.2,193.0 L945.4,193.0 L945.7,427.0 L945.9,427.0 L946.1,193.0 L946.4,310.0 L946.6,193.0 L946.8,310.0 L947.0,193.0 L947.3,310.0 L947.5,193.0 L947.7,310.0 L948.0,310.0 L948.2,310.0 L948.4,310.0 L948.7,193.0 L948.9,427.0 L949.1,427.0 L949.4,193.0 L949.6,310.0 L949.8,310.0 L950.1,310.0 L950.3,427.0 L950.5,310.0 L950.7,193.0 L951.0,193.0 L951.2,310.0 L951.4,427.0 L951.7,193.0 L951.9,193.0 L952.1,427.0 L952.4,310.0 L952.6,193.0 L952.8,427.0 L953.1,310.0 L953.3,427.0 L953.5,193.0 L953.8,310.0 L954.0,310.0 L954.2,427.0 L954.4,193.0 L954.7,193.0 L954.9,427.0 L955.1,310.0 L955.4,310.0 L955.6,310.0 L955.8,310.0 L956.1,310.0 L956.3,310.0 L956.5,427.0 L956.8,193.0 L957.0,427.0 L957.2,193.0 L957.5,427.0 L957.7,310.0 L957.9,310.0 L958.2,310.0 L958.4,427.0 L958.6,193.0 L958.8,310.0 L959.1,310.0 L959.3,427.0 L959.5,193.0 L959.8,310.0 L960.0,193.0 L960.2,427.0 L960.5,310.0 L960.7,310.0 L960.9,310.0 L961.2,193.0 L961.4,193.0 L961.6,310.0 L961.9,310.0 L962.1,193.0 L962.3,427.0 L962.5,310.0 L962.8,193.0 L963.0,193.0 L963.2,310.0 L963.5,310.0 L963.7,427.0 L963.9,310.0 L964.2,310.0 L964.4,427.0 L964.6,310.0 L964.9,427.0 L965.1,310.0 L965.3,427.0 L965.6,310.0 L965.8,310.0 L966.0,310.0 L966.2,193.0 L966.5,310.0 L966.7,310.0 L966.9,310.0 L967.2,310.0 L967.4,310.0 L967.6,193.0 L967.9,310.0 L968.1,310.0 L968.3,310.0 L968.6,310.0 L968.8,310.0 L969.0,193.0 L969.3,310.0 L969.5,310.0 L969.7,310.0 L969.9,193.0 L970.2,310.0 L970.4,310.0 L970.6,193.0 L970.9,310.0 L971.1,427.0 L971.3,310.0 L971.6,310.0 L971.8,193.0 L972.0,310.0 L972.3,193.0 L972.5,310.0 L972.7,310.0 L973.0,427.0 L973.2,427.0 L973.4,193.0 L973.7,310.0 L973.9,427.0 L974.1,310.0 L974.3,193.0 L974.6,427.0 L974.8,310.0 L975.0,193.0 L975.3,193.0 L975.5,310.0 L975.7,310.0 L976.0,310.0 L976.2,310.0 L976.4,310.0 L976.7,310.0 L976.9,427.0 L977.1,193.0 L977.4,427.0 L977.6,193.0 L977.8,310.0 L978.0,427.0 L978.3,310.0 L978.5,193.0 L978.7,193.0 L979.0,193.0 L979.2,310.0 L979.4,193.0 L979.7,310.0 L979.9,427.0 L980.1,310.0 L980.4,193.0 L980.6,310.0 L980.8,193.0 L981.1,310.0 L981.3,427.0 L981.5,193.0 L981.7,310.0 L982.0,427.0 L982.2,310.0 L982.4,427.0 L982.7,310.0 L982.9,427.0 L983.1,310.0 L983.4,310.0 L983.6,193.0 L983.8,310.0 L984.1,193.0 L984.3,310.0 L984.5,310.0 L984.8,193.0 L985.0,310.0 L985.2,310.0 L985.4,193.0 L985.7,427.0 L985.9,193.0 L986.1,310.0 L986.4,427.0 L986.6,427.0 L986.8,193.0 L987.1,427.0 L987.3,427.0 L987.5,310.0 L987.8,310.0 L988.0,310.0 L988.2,310.0 L988.5,193.0 L988.7,310.0 L988.9,310.0 L989.2,193.0 L989.4,193.0 L989.6,193.0 L989.8,310.0 L990.1,310.0 L990.3,310.0 L990.5,310.0 L990.8,310.0 L991.0,193.0 L991.2,310.0 L991.5,193.0 L991.7,310.0 L991.9,310.0 L992.2,310.0 L992.4,193.0 L992.6,310.0 L992.9,193.0 L993.1,427.0 L993.3,310.0 L993.5,427.0 L993.8,310.0 L994.0,427.0 L994.2,310.0 L994.5,427.0 L994.7,310.0 L994.9,310.0 L995.2,427.0 L995.4,427.0 L995.6,310.0 L995.9,193.0 L996.1,193.0 L996.3,310.0 L996.6,427.0 L996.8,310.0 L997.0,310.0 L997.2,310.0 L997.5,427.0 L997.7,310.0 L997.9,310.0 L998.2,427.0 L998.4,310.0 L998.6,310.0 L998.9,427.0 L999.1,310.0 L999.3,310.0 L999.6,310.0 L999.8,193.0 L1000.0,427.0 L1000.3,427.0 L1000.5,310.0 L1000.7,193.0 L1000.9,427.0 L1001.2,310.0 L1001.4,310.0 L1001.6,310.0 L1001.9,310.0 L1002.1,427.0 L1002.3,310.0 L1002.6,310.0 L1002.8,310.0 L1003.0,427.0 L1003.3,193.0 L1003.5,310.0 L1003.7,310.0 L1004.0,310.0 L1004.2,193.0 L1004.4,310.0 L1004.7,310.0 L1004.9,193.0 L1005.1,310.0 L1005.3,427.0 L1005.6,310.0 L1005.8,310.0 L1006.0,310.0 L1006.3,427.0 L1006.5,427.0 L1006.7,310.0 L1007.0,310.0 L1007.2,310.0 L1007.4,193.0 L1007.7,427.0 L1007.9,310.0 L1008.1,193.0 L1008.4,427.0 L1008.6,193.0 L1008.8,193.0 L1009.0,193.0 L1009.3,193.0 L1009.5,310.0 L1009.7,310.0 L1010.0,193.0 L1010.2,310.0 L1010.4,193.0 L1010.7,310.0 L1010.9,310.0 L1011.1,310.0 L1011.4,310.0 L1011.6,193.0 L1011.8,193.0 L1012.1,310.0 L1012.3,310.0 L1012.5,427.0 L1012.7,310.0 L1013.0,193.0 L1013.2,310.0 L1013.4,310.0 L1013.7,427.0 L1013.9,427.0 L1014.1,193.0 L1014.4,427.0 L1014.6,310.0 L1014.8,310.0 L1015.1,310.0 L1015.3,427.0 L1015.5,427.0 L1015.8,310.0 L1016.0,310.0 L1016.2,310.0 L1016.4,427.0 L1016.7,310.0 L1016.9,427.0 L1017.1,193.0 L1017.4,427.0 L1017.6,427.0 L1017.8,193.0 L1018.1,193.0 L1018.3,310.0 L1018.5,427.0 L1018.8,193.0 L1019.0,427.0 L1019.2,193.0 L1019.5,427.0 L1019.7,193.0 L1019.9,310.0 L1020.2,427.0 L1020.4,310.0 L1020.6,193.0 L1020.8,310.0 L1021.1,427.0 L1021.3,427.0 L1021.5,193.0 L1021.8,427.0 L1022.0,193.0 L1022.2,193.0 L1022.5,310.0 L1022.7,193.0 L1022.9,310.0 L1023.2,310.0 L1023.4,193.0 L1023.6,427.0 L1023.9,193.0 L1024.1,193.0 L1024.3,310.0 L1024.5,193.0 L1024.8,310.0 L1025.0,193.0 L1025.2,310.0 L1025.5,427.0 L1025.7,193.0 L1025.9,427.0 L1026.2,193.0 L1026.4,193.0 L1026.6,310.0 L1026.9,427.0 L1027.1,193.0 L1027.3,310.0 L1027.6,310.0 L1027.8,427.0 L1028.0,310.0 L1028.2,310.0 L1028.5,193.0 L1028.7,427.0 L1028.9,310.0 L1029.2,427.0 L1029.4,427.0 L1029.6,310.0 L1029.9,427.0 L1030.1,310.0 L1030.3,193.0 L1030.6,427.0 L1030.8,193.0 L1031.0,310.0 L1031.3,310.0 L1031.5,193.0 L1031.7,310.0 L1031.9,427.0 L1032.2,310.0 L1032.4,193.0 L1032.6,310.0 L1032.9,193.0 L1033.1,310.0 L1033.3,310.0 L1033.6,310.0 L1033.8,310.0 L1034.0,310.0 L1034.3,193.0 L1034.5,427.0 L1034.7,310.0 L1035.0,193.0 L1035.2,193.0 L1035.4,427.0 L1035.7,310.0 L1035.9,310.0 L1036.1,193.0 L1036.3,427.0 L1036.6,193.0 L1036.8,427.0 L1037.0,193.0 L1037.3,193.0 L1037.5,193.0 L1037.7,310.0 L1038.0,310.0 L1038.2,427.0 L1038.4,193.0 L1038.7,310.0 L1038.9,310.0 L1039.1,310.0 L1039.4,427.0 L1039.6,310.0 L1039.8,310.0 L1040.0,310.0 L1040.3,193.0 L1040.5,310.0 L1040.7,193.0 L1041.0,310.0 L1041.2,193.0 L1041.4,310.0 L1041.7,310.0 L1041.9,193.0 L1042.1,310.0 L1042.4,310.0 L1042.6,193.0 L1042.8,310.0 L1043.1,310.0 L1043.3,310.0 L1043.5,193.0 L1043.7,193.0 L1044.0,193.0 L1044.2,310.0 L1044.4,310.0 L1044.7,427.0 L1044.9,193.0 L1045.1,310.0 L1045.4,310.0 L1045.6,427.0 L1045.8,193.0 L1046.1,427.0 L1046.3,310.0 L1046.5,427.0 L1046.8,310.0 L1047.0,193.0 L1047.2,427.0 L1047.4,427.0 L1047.7,310.0 L1047.9,310.0 L1048.1,193.0 L1048.4,310.0 L1048.6,310.0 L1048.8,427.0 L1049.1,427.0 L1049.3,310.0 L1049.5,310.0 L1049.8,310.0 L1050.0,310.0 L1050.2,427.0 L1050.5,193.0 L1050.7,193.0 L1050.9,427.0 L1051.1,427.0 L1051.4,193.0 L1051.6,310.0 L1051.8,310.0 L1052.1,310.0 L1052.3,310.0 L1052.5,427.0 L1052.8,427.0 L1053.0,193.0 L1053.2,193.0 L1053.5,193.0 L1053.7,427.0 L1053.9,193.0 L1054.2,310.0 L1054.4,310.0 L1054.6,193.0 L1054.9,427.0 L1055.1,310.0 L1055.3,193.0 L1055.5,310.0 L1055.8,310.0 L1056.0,193.0 L1056.2,310.0 L1056.5,310.0 L1056.7,427.0 L1056.9,193.0 L1057.2,193.0 L1057.4,310.0 L1057.6,427.0 L1057.9,193.0 L1058.1,427.0 L1058.3,310.0 L1058.6,310.0 L1058.8,427.0 L1059.0,193.0 L1059.2,310.0 L1059.5,427.0 L1059.7,310.0 L1059.9,427.0 L1060.2,193.0 L1060.4,310.0 L1060.6,310.0 L1060.9,427.0 L1061.1,193.0 L1061.3,310.0 L1061.6,310.0 L1061.8,310.0 L1062.0,427.0 L1062.3,193.0 L1062.5,310.0 L1062.7,427.0 L1062.9,193.0 L1063.2,427.0 L1063.4,427.0 L1063.6,193.0 L1063.9,427.0 L1064.1,310.0 L1064.3,427.0 L1064.6,193.0 L1064.8,193.0 L1065.0,427.0 L1065.3,310.0 L1065.5,310.0 L1065.7,310.0 L1066.0,427.0 L1066.2,193.0 L1066.4,427.0 L1066.6,193.0 L1066.9,310.0 L1067.1,310.0 L1067.3,310.0 L1067.6,193.0 L1067.8,193.0 L1068.0,310.0 L1068.3,310.0 L1068.5,193.0 L1068.7,310.0 L1069.0,310.0 L1069.2,193.0 L1069.4,310.0 L1069.7,310.0 L1069.9,427.0 L1070.1,193.0 L1070.4,310.0 L1070.6,310.0 L1070.8,310.0 L1071.0,310.0 L1071.3,193.0 L1071.5,310.0 L1071.7,193.0 L1072.0,310.0 L1072.2,310.0 L1072.4,193.0 L1072.7,310.0 L1072.9,193.0 L1073.1,427.0 L1073.4,310.0 L1073.6,193.0 L1073.8,310.0 L1074.1,310.0 L1074.3,193.0 L1074.5,310.0 L1074.7,310.0 L1075.0,427.0 L1075.2,310.0 L1075.4,310.0 L1075.7,310.0 L1075.9,193.0 L1076.1,310.0 L1076.4,193.0 L1076.6,310.0 L1076.8,193.0 L1077.1,427.0 L1077.3,310.0 L1077.5,193.0 L1077.8,427.0 L1078.0,193.0 L1078.2,310.0 L1078.4,427.0 L1078.7,310.0 L1078.9,193.0 L1079.1,310.0 L1079.4,310.0 L1079.6,310.0 L1079.8,310.0 L1080.1,310.0 L1080.3,193.0 L1080.5,310.0 L1080.8,193.0 L1081.0,310.0 L1081.2,193.0 L1081.5,427.0 L1081.7,76.0 L1081.9,427.0 L1082.1,310.0 L1082.4,193.0 L1082.6,310.0 L1082.8,193.0 L1083.1,310.0 L1083.3,193.0 L1083.5,193.0 L1083.8,193.0 L1084.0,310.0" fill="none" stroke="#ff7f0e" stroke-width="1.1" opacity="0.85"/><text x="616" y="572" font-size="11" fill="#888">time 0..40 s — altitude (blue) &amp; roll (orange)</text></svg>