<svg xmlns="http://www.w3.org/2000/svg" width="1140" height="600" font-family="sans-serif" font-size="13"><rect width="1140" height="600" fill="white"/><text x="20" y="26" font-size="15" fill="#333">TMS-7 F15 — sensor noise 25%</text><rect x="20" y="40" width="540" height="540" fill="#fbfbfb" stroke="#ddd"/><rect x="50" y="282" width="301" height="65" fill="#cde" stroke="#369" opacity="0.7"/><text x="50" y="277" fill="#369" font-size="12">landing zone</text><circle cx="240" cy="383" r="5" fill="black"/><text x="248" y="387" font-size="12">pad</text><path d="M240.5,383.0 L240.5,383.0 L240.5,383.0 L240.5,383.0 L240.5,383.0 L240.5,383.0 L240.5,383.0 L240.5,383.0 L240.5,383.0 L240.5,383.0 L240.5,383.0 L240.5,383.0 L240.5,383.0 L240.5,383.0 L240.5,383.0 L240.5,383.0 L240.5,383.0 L240.5,383.0 L240.5,383.0 L240.5,383.0 L240.5,383.0 L240.5,383.0 L240.5,383.0 L240.5,383.0 L240.5,383.0 L240.5,383.0 L240.5,383.0 L240.5,383.0 L240.5,383.0 L240.5,383.0 L240.5,383.0 L240.5,383.0 L240.5,383.0 L240.5,383.0 L240.5,383.0 L240.5,383.0 L240.5,383.0 L240.5,383.0 L240.5,383.0 L240.5,383.0 L240.5,383.0 L240.5,383.0 L240.5,383.0 L240.5,383.0 L240.5,383.0 L240.5,383.0 L240.5,383.0 L240.5,383.0 L240.5,383.0 L240.5,383.0 L240.5,383.0 L240.5,383.0 L240.5,383.0 L240.5,383.0 L240.5,383.0 L240.5,383.0 L240.5,383.0 L240.5,383.0 L241.4,381.4 L242.7,379.0 L244.2,376.7 L245.7,374.6 L247.1,372.2 L248.6,370.1 L250.2,367.7 L251.8,365.6 L253.4,363.4 L255.2,361.5 L257.0,359.3 L258.8,357.3 L260.5,355.4 L262.5,353.4 L264.3,351.4 L266.2,349.5 L268.2,347.7 L270.3,345.9 L272.2,343.9 L274.1,342.1 L276.1,340.3 L278.0,338.3 L280.0,336.4 L281.7,334.4 L283.5,332.4 L285.3,330.3 L286.9,328.1 L288.5,326.0 L290.2,323.8 L291.6,321.7 L293.1,319.3 L294.5,317.0 L295.8,314.7 L297.1,312.3 L298.4,309.8 L299.5,307.5 L300.7,305.0 L301.8,302.5 L302.8,300.0 L303.6,297.4 L304.6,294.8 L305.4,292.2 L306.0,289.6 L306.8,287.0 L307.3,284.4 L308.0,281.7 L308.4,279.0 L308.9,276.5 L309.4,273.8 L309.9,271.1 L310.6,268.4 L311.2,265.9 L311.8,263.2 L312.7,260.7 L313.5,258.0 L314.3,255.5 L315.2,253.0 L316.2,250.5 L317.3,248.0 L318.5,245.4 L319.8,243.1 L320.9,240.6 L322.4,238.3 L323.7,235.9 L325.1,233.8 L326.6,231.5 L328.2,229.3 L329.8,227.2 L331.6,225.0 L333.2,222.8 L335.0,220.9 L336.9,218.9 L338.7,216.9 L340.7,215.1 L342.8,213.2 L344.7,211.4 L346.8,209.8 L348.9,208.1 L351.2,206.5 L353.3,204.9 L355.5,203.3 L358.0,201.9 L360.2,200.6 L362.5,199.2 L364.9,197.9 L367.4,196.8 L369.8,195.6 L372.4,194.5 L374.8,193.6 L377.4,192.5 L380.0,191.6 L382.6,190.9 L385.2,190.0 L387.7,189.5 L390.3,188.8 L392.9,188.2 L395.7,187.7 L398.3,187.3 L401.0,186.8 L403.8,186.6 L406.4,186.3 L409.1,186.1 L411.9,186.1 L414.5,185.9 L417.2,186.1 L420.0,186.1 L422.5,186.3 L425.3,186.4 L428.0,186.8 L430.6,187.2 L433.4,187.5 L436.0,188.1 L438.7,188.6 L441.3,189.3 L443.9,190.0 L446.5,190.8 L449.1,191.6 L451.7,192.4 L454.1,193.4 L456.7,194.3 L459.1,195.4 L461.7,196.7 L464.1,197.7 L466.4,199.0 L468.8,200.3 L471.3,201.7 L473.5,203.1 L475.8,204.6 L478.1,206.0 L480.2,207.6 L482.4,209.2 L484.5,210.8 L486.6,212.6 L488.7,214.4 L490.7,216.2 L492.8,218.0 L494.7,219.8 L496.5,221.8 L498.4,223.7 L500.2,225.7 L502.0,227.9 L503.6,230.0 L505.2,232.2 L506.9,234.3 L508.5,236.5 L509.9,238.8 L511.4,241.0 L512.8,243.3 L514.1,245.6 L515.4,248.1 L516.7,250.5 L517.9,253.0 L519.0,255.3 L520.1,257.8 L521.3,260.3 L522.2,262.8 L523.0,265.3 L524.0,268.0 L524.8,270.5 L525.5,273.1 L526.3,275.7 L526.8,278.4 L527.4,280.9 L527.9,283.6 L528.4,286.3 L528.9,289.0 L529.2,291.7 L529.5,294.4 L529.7,297.1 L529.8,299.8 L530.0,302.5 L530.0,305.2 L530.0,307.8 L530.0,310.5 L529.8,313.4 L529.7,316.1 L529.5,318.8 L529.2,321.5 L528.9,324.2 L528.4,326.7 L527.9,329.4 L527.4,332.1 L526.8,334.7 L526.1,337.3 L525.5,339.9 L524.7,342.6 L523.9,345.1 L522.9,347.7 L522.1,350.2 L520.9,352.7 L520.0,355.2 L518.8,357.7 L517.7,360.2 L516.4,362.5 L515.3,365.1 L514.0,367.4 L512.5,369.7 L511.1,372.0 L509.6,374.2 L508.2,376.5 L506.5,378.7 L505.1,380.8 L503.3,383.0 L501.7,385.1 L499.9,387.3 L498.1,389.3 L496.3,391.2 L494.6,393.2 L492.6,395.2 L490.7,397.2 L488.7,398.9 L486.6,400.7 L484.7,402.5 L482.6,404.3 L480.5,405.9 L478.2,407.6 L476.4,408.8 L474.7,410.2 L472.7,411.5 L470.8,412.8 L469.0,413.8 L467.0,415.1 L465.1,416.2 L463.0,417.2 L461.1,418.3 L459.1,419.4 L457.0,420.3 L455.1,421.4 L453.0,422.3 L450.9,423.2 L448.8,424.0 L446.7,424.9 L444.6,425.7 L442.4,426.4 L440.3,427.3 L438.2,427.8 L436.1,428.5 L433.9,429.1 L431.8,429.8 L429.5,430.3 L427.4,430.9 L425.1,431.2 L422.9,431.8 L420.8,432.1 L418.5,432.5 L416.2,432.7 L414.0,433.0 L411.7,433.2 L409.4,433.6 L407.3,433.7 L405.1,433.7 L402.8,433.9 L400.5,433.9 L398.3,434.1 L396.0,434.1 L393.7,433.9 L391.5,433.9 L389.2,433.7 L386.9,433.6 L384.7,433.4 L382.6,433.2 L380.3,433.0 L378.0,432.7 L375.8,432.5 L373.5,432.1 L371.2,431.8 L369.1,431.2 L366.9,430.9 L364.6,430.3 L362.5,430.0 L360.2,429.4 L358.1,428.7 L355.9,428.2 L353.8,427.6 L351.7,426.9 L349.4,426.2 L347.3,425.5 L345.2,424.8" fill="none" stroke="#1f77b4" stroke-width="1.7" opacity="0.85"/><circle cx="345" cy="425" r="4.5" fill="#1f77b4"/><text x="28" y="572" font-size="11" fill="#888">ground track — m from pad (N up)</text><rect x="580" y="40" width="540" height="540" fill="#fbfbfb" stroke="#ddd"/><text x="586" y="54" fill="#1f77b4" font-size="11">alt 341</text><text x="586" y="558" fill="#1f77b4" font-size="11">1</text><path d="M616.0,543.8 L616.2,544.0 L616.5,543.7 L616.7,543.5 L617.0,543.9 L617.2,543.7 L617.5,541.9 L617.7,542.4 L618.0,543.8 L618.2,543.8 L618.4,542.1 L618.7,543.3 L618.9,542.8 L619.2,542.5 L619.4,541.9 L619.7,540.7 L619.9,540.2 L620.2,542.5 L620.4,539.7 L620.7,540.2 L620.9,541.4 L621.1,539.4 L621.4,539.5 L621.6,539.4 L621.9,539.4 L622.1,538.5 L622.4,538.8 L622.6,537.7 L622.9,537.4 L623.1,537.5 L623.3,539.4 L623.6,534.4 L623.8,534.5 L624.1,535.9 L624.3,533.1 L624.6,537.0 L624.8,533.3 L625.1,533.9 L625.3,532.8 L625.6,530.4 L625.8,530.9 L626.0,531.8 L626.3,530.1 L626.5,532.8 L626.8,534.3 L627.0,526.6 L627.3,526.2 L627.5,525.5 L627.8,523.5 L628.0,529.4 L628.2,527.7 L628.5,521.6 L628.7,520.9 L629.0,523.4 L629.2,529.2 L629.5,528.5 L629.7,525.5 L630.0,517.1 L630.2,523.3 L630.4,524.1 L630.7,526.4 L630.9,525.2 L631.2,513.8 L631.4,511.0 L631.7,519.3 L631.9,507.6 L632.2,518.8 L632.4,507.4 L632.7,515.4 L632.9,511.8 L633.1,513.3 L633.4,512.8 L633.6,518.3 L633.9,505.2 L634.1,509.2 L634.4,504.4 L634.6,507.9 L634.9,513.1 L635.1,510.7 L635.3,497.6 L635.6,499.5 L635.8,492.0 L636.1,509.5 L636.3,507.4 L636.6,498.7 L636.8,493.5 L637.1,482.6 L637.3,504.7 L637.6,493.9 L637.8,478.6 L638.0,501.3 L638.3,499.4 L638.5,475.8 L638.8,496.8 L639.0,498.5 L639.3,484.0 L639.5,499.5 L639.8,480.8 L640.0,483.6 L640.2,474.4 L640.5,473.6 L640.7,478.4 L641.0,477.4 L641.2,470.1 L641.5,473.6 L641.7,481.6 L642.0,454.9 L642.2,457.9 L642.4,474.5 L642.7,478.1 L642.9,470.4 L643.2,451.8 L643.4,443.5 L643.7,454.9 L643.9,455.0 L644.2,467.5 L644.4,469.5 L644.7,451.7 L644.9,474.7 L645.1,432.7 L645.4,443.4 L645.6,472.4 L645.9,455.3 L646.1,428.0 L646.4,438.8 L646.6,469.4 L646.9,441.6 L647.1,432.9 L647.3,423.8 L647.6,428.9 L647.8,444.2 L648.1,432.6 L648.3,430.4 L648.6,445.7 L648.8,404.2 L649.1,435.0 L649.3,408.8 L649.6,415.1 L649.8,406.9 L650.0,400.2 L650.3,441.3 L650.5,433.3 L650.8,408.5 L651.0,445.2 L651.3,382.1 L651.5,441.1 L651.8,433.1 L652.0,400.5 L652.2,371.0 L652.5,435.8 L652.7,371.4 L653.0,365.0 L653.2,379.3 L653.5,396.1 L653.7,361.5 L654.0,373.7 L654.2,365.4 L654.4,381.2 L654.7,408.1 L654.9,422.2 L655.2,382.0 L655.4,370.8 L655.7,408.3 L655.9,399.8 L656.2,343.5 L656.4,341.3 L656.7,360.8 L656.9,347.8 L657.1,385.2 L657.4,402.0 L657.6,345.7 L657.9,375.8 L658.1,334.1 L658.4,397.8 L658.6,401.6 L658.9,386.1 L659.1,378.5 L659.3,320.9 L659.6,312.7 L659.8,335.7 L660.1,338.0 L660.3,327.8 L660.6,307.1 L660.8,296.8 L661.1,366.4 L661.3,328.8 L661.6,283.2 L661.8,278.6 L662.0,291.6 L662.3,350.9 L662.5,377.4 L662.8,335.3 L663.0,362.2 L663.3,275.5 L663.5,317.2 L663.8,346.4 L664.0,301.3 L664.2,341.6 L664.5,339.0 L664.7,281.9 L665.0,292.6 L665.2,275.4 L665.5,287.5 L665.7,285.6 L666.0,350.0 L666.2,355.3 L666.4,258.2 L666.7,338.2 L666.9,252.0 L667.2,305.3 L667.4,331.4 L667.7,299.6 L667.9,276.2 L668.2,240.6 L668.4,270.6 L668.7,314.9 L668.9,291.2 L669.1,235.0 L669.4,297.9 L669.6,340.1 L669.9,208.4 L670.1,213.7 L670.4,271.7 L670.6,254.4 L670.9,210.7 L671.1,218.0 L671.3,271.3 L671.6,204.6 L671.8,279.2 L672.1,314.5 L672.3,243.6 L672.6,298.3 L672.8,212.5 L673.1,319.0 L673.3,188.2 L673.6,204.1 L673.8,233.3 L674.0,186.7 L674.3,313.1 L674.5,174.6 L674.8,242.8 L675.0,228.5 L675.3,245.9 L675.5,281.8 L675.8,291.4 L676.0,245.5 L676.2,286.8 L676.5,213.6 L676.7,158.6 L677.0,219.8 L677.2,268.5 L677.5,259.8 L677.7,219.1 L678.0,280.8 L678.2,281.4 L678.4,164.1 L678.7,152.4 L678.9,245.6 L679.2,285.7 L679.4,293.3 L679.7,261.5 L679.9,154.3 L680.2,229.5 L680.4,274.8 L680.7,217.1 L680.9,234.5 L681.1,141.9 L681.4,183.1 L681.6,260.7 L681.9,146.9 L682.1,176.4 L682.4,141.1 L682.6,191.7 L682.9,121.9 L683.1,175.8 L683.3,282.4 L683.6,195.3 L683.8,147.9 L684.1,121.4 L684.3,248.3 L684.6,198.2 L684.8,145.8 L685.1,138.4 L685.3,158.9 L685.6,238.2 L685.8,214.0 L686.0,104.1 L686.3,121.7 L686.5,231.2 L686.8,262.4 L687.0,142.7 L687.3,142.1 L687.5,203.8 L687.8,146.2 L688.0,175.1 L688.2,190.6 L688.5,194.9 L688.7,179.2 L689.0,260.0 L689.2,131.7 L689.5,90.7 L689.7,210.3 L690.0,190.5 L690.2,154.6 L690.4,169.0 L690.7,87.7 L690.9,144.5 L691.2,104.5 L691.4,153.5 L691.7,164.1 L691.9,128.4 L692.2,237.2 L692.4,85.2 L692.7,240.2 L692.9,172.6 L693.1,167.0 L693.4,244.6 L693.6,82.9 L693.9,127.3 L694.1,194.3 L694.4,200.5 L694.6,139.7 L694.9,157.0 L695.1,121.4 L695.3,255.4 L695.6,262.1 L695.8,201.4 L696.1,201.4 L696.3,201.9 L696.6,248.1 L696.8,76.3 L697.1,178.9 L697.3,221.3 L697.6,250.5 L697.8,259.8 L698.0,186.5 L698.3,81.0 L698.5,125.2 L698.8,128.9 L699.0,200.1 L699.3,237.2 L699.5,108.6 L699.8,117.1 L700.0,256.4 L700.2,151.4 L700.5,258.4 L700.7,88.1 L701.0,225.3 L701.2,76.0 L701.5,168.3 L701.7,169.1 L702.0,165.4 L702.2,191.3 L702.4,206.1 L702.7,76.1 L702.9,194.8 L703.2,113.5 L703.4,99.4 L703.7,262.1 L703.9,100.0 L704.2,77.4 L704.4,254.2 L704.7,109.7 L704.9,206.9 L705.1,174.2 L705.4,226.1 L705.6,179.9 L705.9,234.5 L706.1,159.3 L706.4,199.3 L706.6,107.3 L706.9,141.6 L707.1,94.0 L707.3,79.4 L707.6,187.4 L707.8,99.9 L708.1,239.5 L708.3,165.0 L708.6,93.0 L708.8,261.3 L709.1,119.0 L709.3,167.8 L709.6,196.5 L709.8,203.1 L710.0,259.6 L710.3,115.7 L710.5,203.9 L710.8,235.2 L711.0,176.8 L711.3,115.9 L711.5,115.7 L711.8,232.6 L712.0,166.5 L712.2,213.3 L712.5,121.4 L712.7,164.5 L713.0,187.4 L713.2,136.2 L713.5,131.7 L713.7,263.7 L714.0,179.1 L714.2,109.0 L714.4,107.9 L714.7,162.6 L714.9,251.6 L715.2,116.6 L715.4,215.3 L715.7,184.9 L715.9,232.4 L716.2,240.0 L716.4,228.5 L716.7,187.2 L716.9,121.8 L717.1,105.7 L717.4,210.6 L717.6,199.7 L717.9,128.0 L718.1,104.4 L718.4,228.0 L718.6,133.9 L718.9,142.7 L719.1,127.9 L719.3,218.8 L719.6,113.0 L719.8,93.7 L720.1,88.1 L720.3,244.3 L720.6,239.9 L720.8,120.4 L721.1,235.0 L721.3,167.4 L721.6,230.8 L721.8,158.9 L722.0,223.9 L722.3,204.9 L722.5,90.1 L722.8,186.8 L723.0,136.7 L723.3,239.1 L723.5,190.3 L723.8,175.2 L724.0,229.2 L724.2,212.7 L724.5,197.2 L724.7,159.6 L725.0,99.2 L725.2,262.2 L725.5,188.6 L725.7,163.2 L726.0,180.1 L726.2,239.6 L726.4,221.5 L726.7,159.7 L726.9,239.0 L727.2,158.9 L727.4,241.6 L727.7,99.5 L727.9,156.3 L728.2,182.8 L728.4,216.0 L728.7,247.2 L728.9,202.5 L729.1,259.5 L729.4,136.5 L729.6,173.1 L729.9,178.0 L730.1,253.3 L730.4,162.1 L730.6,100.0 L730.9,102.3 L731.1,169.0 L731.3,225.8 L731.6,248.7 L731.8,150.7 L732.1,160.0 L732.3,113.6 L732.6,119.2 L732.8,258.4 L733.1,222.4 L733.3,195.3 L733.6,116.2 L733.8,118.9 L734.0,199.7 L734.3,212.4 L734.5,121.5 L734.8,249.6 L735.0,138.2 L735.3,169.3 L735.5,107.6 L735.8,224.2 L736.0,152.6 L736.2,178.1 L736.5,249.0 L736.7,250.4 L737.0,90.9 L737.2,198.5 L737.5,95.4 L737.7,262.1 L738.0,215.1 L738.2,146.2 L738.4,179.1 L738.7,212.2 L738.9,106.8 L739.2,95.6 L739.4,109.9 L739.7,189.4 L739.9,202.5 L740.2,247.8 L740.4,212.2 L740.7,159.4 L740.9,147.8 L741.1,147.5 L741.4,116.8 L741.6,242.1 L741.9,142.7 L742.1,128.7 L742.4,223.8 L742.6,188.7 L742.9,208.2 L743.1,151.6 L743.3,135.7 L743.6,244.6 L743.8,272.8 L744.1,120.9 L744.3,178.6 L744.6,218.1 L744.8,224.5 L745.1,98.3 L745.3,269.0 L745.6,97.1 L745.8,199.0 L746.0,191.2 L746.3,101.9 L746.5,209.6 L746.8,142.4 L747.0,130.9 L747.3,164.2 L747.5,261.3 L747.8,242.7 L748.0,252.8 L748.2,124.0 L748.5,237.8 L748.7,184.6 L749.0,173.0 L749.2,232.0 L749.5,143.1 L749.7,219.1 L750.0,266.3 L750.2,236.4 L750.4,217.4 L750.7,116.2 L750.9,207.6 L751.2,99.4 L751.4,172.8 L751.7,241.9 L751.9,104.7 L752.2,203.2 L752.4,242.6 L752.7,207.4 L752.9,142.0 L753.1,181.0 L753.4,162.0 L753.6,182.9 L753.9,122.7 L754.1,181.5 L754.4,99.3 L754.6,190.4 L754.9,166.1 L755.1,121.6 L755.3,270.2 L755.6,217.0 L755.8,269.6 L756.1,161.1 L756.3,105.3 L756.6,164.6 L756.8,185.2 L757.1,274.7 L757.3,117.6 L757.6,197.5 L757.8,103.1 L758.0,247.8 L758.3,113.8 L758.5,169.0 L758.8,188.0 L759.0,261.2 L759.3,211.8 L759.5,114.2 L759.8,232.5 L760.0,174.9 L760.2,128.7 L760.5,155.9 L760.7,145.6 L761.0,271.1 L761.2,155.4 L761.5,210.3 L761.7,119.0 L762.0,153.7 L762.2,139.2 L762.4,191.4 L762.7,196.2 L762.9,236.3 L763.2,214.7 L763.4,145.3 L763.7,213.2 L763.9,157.7 L764.2,175.0 L764.4,183.4 L764.7,120.1 L764.9,256.4 L765.1,121.9 L765.4,152.8 L765.6,145.6 L765.9,141.1 L766.1,147.5 L766.4,252.1 L766.6,218.7 L766.9,234.4 L767.1,112.1 L767.3,282.1 L767.6,257.4 L767.8,268.4 L768.1,165.6 L768.3,193.5 L768.6,179.8 L768.8,175.9 L769.1,137.2 L769.3,212.5 L769.6,151.5 L769.8,200.0 L770.0,116.3 L770.3,205.3 L770.5,167.3 L770.8,112.6 L771.0,246.9 L771.3,113.5 L771.5,281.8 L771.8,230.0 L772.0,211.1 L772.2,155.8 L772.5,269.8 L772.7,131.3 L773.0,270.1 L773.2,268.7 L773.5,262.4 L773.7,174.6 L774.0,153.9 L774.2,116.6 L774.4,139.1 L774.7,253.5 L774.9,245.4 L775.2,183.9 L775.4,186.3 L775.7,288.0 L775.9,169.2 L776.2,122.2 L776.4,197.6 L776.7,150.3 L776.9,144.6 L777.1,221.9 L777.4,198.8 L777.6,238.3 L777.9,147.8 L778.1,162.9 L778.4,133.1 L778.6,149.4 L778.9,283.8 L779.1,138.3 L779.3,131.2 L779.6,210.0 L779.8,259.3 L780.1,261.1 L780.3,198.1 L780.6,125.7 L780.8,121.9 L781.1,274.1 L781.3,134.8 L781.6,271.8 L781.8,209.1 L782.0,146.8 L782.3,172.1 L782.5,235.7 L782.8,283.6 L783.0,163.5 L783.3,289.6 L783.5,154.5 L783.8,236.2 L784.0,179.4 L784.2,276.7 L784.5,277.6 L784.7,181.6 L785.0,273.2 L785.2,196.5 L785.5,226.5 L785.7,215.3 L786.0,166.0 L786.2,250.7 L786.4,282.4 L786.7,285.1 L786.9,161.8 L787.2,257.0 L787.4,230.9 L787.7,244.8 L787.9,135.3 L788.2,280.9 L788.4,127.9 L788.7,196.4 L788.9,162.4 L789.1,237.8 L789.4,287.7 L789.6,234.2 L789.9,227.2 L790.1,207.6 L790.4,225.6 L790.6,234.6 L790.9,249.8 L791.1,232.9 L791.3,235.0 L791.6,261.5 L791.8,153.0 L792.1,240.7 L792.3,212.4 L792.6,131.3 L792.8,169.3 L793.1,179.6 L793.3,166.5 L793.6,281.4 L793.8,142.7 L794.0,193.5 L794.3,187.3 L794.5,157.4 L794.8,187.1 L795.0,227.8 L795.3,177.3 L795.5,140.5 L795.8,221.3 L796.0,240.6 L796.2,136.1 L796.5,151.5 L796.7,223.6 L797.0,174.0 L797.2,194.6 L797.5,221.9 L797.7,235.9 L798.0,177.3 L798.2,181.2 L798.4,229.0 L798.7,270.0 L798.9,291.1 L799.2,171.8 L799.4,275.2 L799.7,284.9 L799.9,271.8 L800.2,158.0 L800.4,281.8 L800.7,250.5 L800.9,265.4 L801.1,232.2 L801.4,166.6 L801.6,155.4 L801.9,145.2 L802.1,166.4 L802.4,217.7 L802.6,162.1 L802.9,156.4 L803.1,173.5 L803.3,216.3 L803.6,145.2 L803.8,176.4 L804.1,187.5 L804.3,269.6 L804.6,293.7 L804.8,295.0 L805.1,276.6 L805.3,164.7 L805.6,277.4 L805.8,192.2 L806.0,149.5 L806.3,161.4 L806.5,291.6 L806.8,178.5 L807.0,168.2 L807.3,154.4 L807.5,186.7 L807.8,208.5 L808.0,180.5 L808.2,265.4 L808.5,297.8 L808.7,255.6 L809.0,182.2 L809.2,178.3 L809.5,306.1 L809.7,211.0 L810.0,243.0 L810.2,254.5 L810.4,203.1 L810.7,162.3 L810.9,172.7 L811.2,237.4 L811.4,174.2 L811.7,171.9 L811.9,195.0 L812.2,204.7 L812.4,195.9 L812.7,267.0 L812.9,266.4 L813.1,163.0 L813.4,271.3 L813.6,251.7 L813.9,199.7 L814.1,168.7 L814.4,274.0 L814.6,230.4 L814.9,286.7 L815.1,289.5 L815.3,298.7 L815.6,269.6 L815.8,204.5 L816.1,174.3 L816.3,266.9 L816.6,225.7 L816.8,166.0 L817.1,280.5 L817.3,210.1 L817.6,292.7 L817.8,278.3 L818.0,294.4 L818.3,257.7 L818.5,301.7 L818.8,311.6 L819.0,250.8 L819.3,171.4 L819.5,260.0 L819.8,217.3 L820.0,240.2 L820.2,258.8 L820.5,310.0 L820.7,207.7 L821.0,232.6 L821.2,307.1 L821.5,308.3 L821.7,208.7 L822.0,292.9 L822.2,288.1 L822.4,182.7 L822.7,302.9 L822.9,275.1 L823.2,279.1 L823.4,218.5 L823.7,232.7 L823.9,286.3 L824.2,307.6 L824.4,166.6 L824.7,215.0 L824.9,301.3 L825.1,292.1 L825.4,233.5 L825.6,308.9 L825.9,298.0 L826.1,173.0 L826.4,176.1 L826.6,286.0 L826.9,294.1 L827.1,293.8 L827.3,208.2 L827.6,176.2 L827.8,235.9 L828.1,213.6 L828.3,293.0 L828.6,276.7 L828.8,207.1 L829.1,230.0 L829.3,266.9 L829.6,207.7 L829.8,236.1 L830.0,244.0 L830.3,233.5 L830.5,278.2 L830.8,275.4 L831.0,184.5 L831.3,277.8 L831.5,251.4 L831.8,321.2 L832.0,183.2 L832.2,273.1 L832.5,191.7 L832.7,202.6 L833.0,311.0 L833.2,212.0 L833.5,300.0 L833.7,239.4 L834.0,268.9 L834.2,236.5 L834.4,300.0 L834.7,255.1 L834.9,319.6 L835.2,264.5 L835.4,212.2 L835.7,216.3 L835.9,287.4 L836.2,191.7 L836.4,317.8 L836.7,292.0 L836.9,235.2 L837.1,220.2 L837.4,272.4 L837.6,199.0 L837.9,236.4 L838.1,253.2 L838.4,200.4 L838.6,254.6 L838.9,257.0 L839.1,289.7 L839.3,256.7 L839.6,237.2 L839.8,303.0 L840.1,286.2 L840.3,239.3 L840.6,197.9 L840.8,247.2 L841.1,194.7 L841.3,254.9 L841.6,240.7 L841.8,242.9 L842.0,243.6 L842.3,273.1 L842.5,289.3 L842.8,320.7 L843.0,248.8 L843.3,271.0 L843.5,214.2 L843.8,231.1 L844.0,330.0 L844.2,278.0 L844.5,257.8 L844.7,204.1 L845.0,250.8 L845.2,261.1 L845.5,212.4 L845.7,294.9 L846.0,211.8 L846.2,236.7 L846.4,306.6 L846.7,241.8 L846.9,250.3 L847.2,333.6 L847.4,291.6 L847.7,321.5 L847.9,223.3 L848.2,256.0 L848.4,228.4 L848.7,316.4 L848.9,227.5 L849.1,321.3 L849.4,203.7 L849.6,277.9 L849.9,310.7 L850.1,259.9 L850.4,243.1 L850.6,322.7 L850.9,265.5 L851.1,230.5 L851.3,236.4 L851.6,214.2 L851.8,333.9 L852.1,264.7 L852.3,270.7 L852.6,208.3 L852.8,316.9 L853.1,205.8 L853.3,231.5 L853.6,301.1 L853.8,212.0 L854.0,217.4 L854.3,239.0 L854.5,217.5 L854.8,289.2 L855.0,251.5 L855.3,275.9 L855.5,314.0 L855.8,233.3 L856.0,315.6 L856.2,309.4 L856.5,243.0 L856.7,217.4 L857.0,326.1 L857.2,273.5 L857.5,266.7 L857.7,242.1 L858.0,300.1 L858.2,212.0 L858.4,278.4 L858.7,212.9 L858.9,315.2 L859.2,337.7 L859.4,225.3 L859.7,298.6 L859.9,236.7 L860.2,239.1 L860.4,242.9 L860.7,290.3 L860.9,336.7 L861.1,286.8 L861.4,258.6 L861.6,303.4 L861.9,338.3 L862.1,253.2 L862.4,339.1 L862.6,250.1 L862.9,251.2 L863.1,335.3 L863.3,319.7 L863.6,341.4 L863.8,229.9 L864.1,243.3 L864.3,270.5 L864.6,255.6 L864.8,271.1 L865.1,259.8 L865.3,283.7 L865.6,261.3 L865.8,284.9 L866.0,224.4 L866.3,294.8 L866.5,305.7 L866.8,337.2 L867.0,248.9 L867.3,297.1 L867.5,310.2 L867.8,278.4 L868.0,270.8 L868.2,312.4 L868.5,288.2 L868.7,320.1 L869.0,325.1 L869.2,308.7 L869.5,260.2 L869.7,274.4 L870.0,246.5 L870.2,249.2 L870.4,236.8 L870.7,279.9 L870.9,265.3 L871.2,271.3 L871.4,334.3 L871.7,273.3 L871.9,352.3 L872.2,226.1 L872.4,292.1 L872.7,241.1 L872.9,269.1 L873.1,314.0 L873.4,269.2 L873.6,335.8 L873.9,260.3 L874.1,279.5 L874.4,344.1 L874.6,284.6 L874.9,270.1 L875.1,347.0 L875.3,353.8 L875.6,279.1 L875.8,284.0 L876.1,322.9 L876.3,342.2 L876.6,342.9 L876.8,289.6 L877.1,262.6 L877.3,343.0 L877.6,279.1 L877.8,271.7 L878.0,272.5 L878.3,351.6 L878.5,321.9 L878.8,307.2 L879.0,307.2 L879.3,351.9 L879.5,354.1 L879.8,337.0 L880.0,333.2 L880.2,241.7 L880.5,266.9 L880.7,245.9 L881.0,356.8 L881.2,347.3 L881.5,314.8 L881.7,291.1 L882.0,356.4 L882.2,347.4 L882.4,340.3 L882.7,265.5 L882.9,293.8 L883.2,270.0 L883.4,270.3 L883.7,281.6 L883.9,317.5 L884.2,279.7 L884.4,298.0 L884.7,277.9 L884.9,248.0 L885.1,306.6 L885.4,333.7 L885.6,298.0 L885.9,355.2 L886.1,247.4 L886.4,347.6 L886.6,345.5 L886.9,317.7 L887.1,275.9 L887.3,355.8 L887.6,321.2 L887.8,284.8 L888.1,350.8 L888.3,354.7 L888.6,268.7 L888.8,255.8 L889.1,326.6 L889.3,280.3 L889.6,358.8 L889.8,318.6 L890.0,350.6 L890.3,289.1 L890.5,329.2 L890.8,333.4 L891.0,353.1 L891.3,259.5 L891.5,323.5 L891.8,321.9 L892.0,341.4 L892.2,252.7 L892.5,257.8 L892.7,362.6 L893.0,348.3 L893.2,292.1 L893.5,307.3 L893.7,324.6 L894.0,339.6 L894.2,316.5 L894.4,361.6 L894.7,324.2 L894.9,307.9 L895.2,330.3 L895.4,284.5 L895.7,314.4 L895.9,313.0 L896.2,327.9 L896.4,305.5 L896.7,322.8 L896.9,312.4 L897.1,260.9 L897.4,284.8 L897.6,319.8 L897.9,368.9 L898.1,299.4 L898.4,348.9 L898.6,307.1 L898.9,354.4 L899.1,335.8 L899.3,371.6 L899.6,298.1 L899.8,365.3 L900.1,315.6 L900.3,294.9 L900.6,312.7 L900.8,295.0 L901.1,331.6 L901.3,283.9 L901.6,333.7 L901.8,376.0 L902.0,354.6 L902.3,373.0 L902.5,279.9 L902.8,285.5 L903.0,317.5 L903.3,284.2 L903.5,310.3 L903.8,332.6 L904.0,362.5 L904.2,310.9 L904.5,328.4 L904.7,280.9 L905.0,335.3 L905.2,282.6 L905.5,378.2 L905.7,356.7 L906.0,369.9 L906.2,348.2 L906.4,309.1 L906.7,280.2 L906.9,348.9 L907.2,301.1 L907.4,349.4 L907.7,351.3 L907.9,315.8 L908.2,327.7 L908.4,293.9 L908.7,356.3 L908.9,297.3 L909.1,376.2 L909.4,326.4 L909.6,350.6 L909.9,301.5 L910.1,382.3 L910.4,337.9 L910.6,344.4 L910.9,336.2 L911.1,291.5 L911.3,302.4 L911.6,354.3 L911.8,380.9 L912.1,354.8 L912.3,384.3 L912.6,308.7 L912.8,298.8 L913.1,386.0 L913.3,313.5 L913.6,282.9 L913.8,363.2 L914.0,310.2 L914.3,361.7 L914.5,385.7 L914.8,336.7 L915.0,315.7 L915.3,385.1 L915.5,373.0 L915.8,303.7 L916.0,304.9 L916.2,355.1 L916.5,318.4 L916.7,359.1 L917.0,321.2 L917.2,288.9 L917.5,316.9 L917.7,289.8 L918.0,373.9 L918.2,289.7 L918.4,342.1 L918.7,289.1 L918.9,359.6 L919.2,360.8 L919.4,352.1 L919.7,291.7 L919.9,336.5 L920.2,322.8 L920.4,349.4 L920.7,391.7 L920.9,391.8 L921.1,309.4 L921.4,360.3 L921.6,384.2 L921.9,374.9 L922.1,333.8 L922.4,310.4 L922.6,376.0 L922.9,308.0 L923.1,374.7 L923.3,380.3 L923.6,342.5 L923.8,300.9 L924.1,303.8 L924.3,384.2 L924.6,340.4 L924.8,313.4 L925.1,368.8 L925.3,341.1 L925.6,356.4 L925.8,391.1 L926.0,333.6 L926.3,330.2 L926.5,363.8 L926.8,336.9 L927.0,320.6 L927.3,391.4 L927.5,304.4 L927.8,367.3 L928.0,395.7 L928.2,305.9 L928.5,373.7 L928.7,367.8 L929.0,304.4 L929.2,391.1 L929.5,346.7 L929.7,336.1 L930.0,315.9 L930.2,363.2 L930.4,366.0 L930.7,400.0 L930.9,401.3 L931.2,380.9 L931.4,389.0 L931.7,329.5 L931.9,325.5 L932.2,308.8 L932.4,394.4 L932.7,389.7 L932.9,370.5 L933.1,394.3 L933.4,337.3 L933.6,349.0 L933.9,343.3 L934.1,347.5 L934.4,327.2 L934.6,392.2 L934.9,317.6 L935.1,367.9 L935.3,340.3 L935.6,396.9 L935.8,399.7 L936.1,328.8 L936.3,352.4 L936.6,346.0 L936.8,329.6 L937.1,337.4 L937.3,359.0 L937.6,319.5 L937.8,355.1 L938.0,353.4 L938.3,398.2 L938.5,330.2 L938.8,409.0 L939.0,406.6 L939.3,356.5 L939.5,397.2 L939.8,338.7 L940.0,356.8 L940.2,398.4 L940.5,350.9 L940.7,399.0 L941.0,382.4 L941.2,405.5 L941.5,376.5 L941.7,341.5 L942.0,371.1 L942.2,382.9 L942.4,400.8 L942.7,390.1 L942.9,405.7 L943.2,346.2 L943.4,346.5 L943.7,354.3 L943.9,349.6 L944.2,371.6 L944.4,358.9 L944.7,401.7 L944.9,389.3 L945.1,374.4 L945.4,371.1 L945.6,407.5 L945.9,331.5 L946.1,341.8 L946.4,350.8 L946.6,341.6 L946.9,339.4 L947.1,334.4 L947.3,414.5 L947.6,395.4 L947.8,363.1 L948.1,332.9 L948.3,381.3 L948.6,402.6 L948.8,340.3 L949.1,383.6 L949.3,387.0 L949.6,366.4 L949.8,371.4 L950.0,399.5 L950.3,344.3 L950.5,411.1 L950.8,380.8 L951.0,405.7 L951.3,413.7 L951.5,370.3 L951.8,379.4 L952.0,346.6 L952.2,376.5 L952.5,397.4 L952.7,369.2 L953.0,369.1 L953.2,340.8 L953.5,403.0 L953.7,387.8 L954.0,341.7 L954.2,364.3 L954.4,362.0 L954.7,371.7 L954.9,342.4 L955.2,395.2 L955.4,357.8 L955.7,350.4 L955.9,406.2 L956.2,412.0 L956.4,360.8 L956.7,388.0 L956.9,423.2 L957.1,354.5 L957.4,401.7 L957.6,364.8 L957.9,401.1 L958.1,385.5 L958.4,405.3 L958.6,363.5 L958.9,383.8 L959.1,384.1 L959.3,412.2 L959.6,380.5 L959.8,379.6 L960.1,424.4 L960.3,428.3 L960.6,361.7 L960.8,380.2 L961.1,385.3 L961.3,397.6 L961.6,401.4 L961.8,387.3 L962.0,429.5 L962.3,390.4 L962.5,429.9 L962.8,369.7 L963.0,405.9 L963.3,407.3 L963.5,408.1 L963.8,388.5 L964.0,424.5 L964.2,397.0 L964.5,406.0 L964.7,386.3 L965.0,374.6 L965.2,357.1 L965.5,399.9 L965.7,383.2 L966.0,430.7 L966.2,422.1 L966.4,400.2 L966.7,368.5 L966.9,421.6 L967.2,388.0 L967.4,420.3 L967.7,424.4 L967.9,426.0 L968.2,402.5 L968.4,410.3 L968.7,414.4 L968.9,426.4 L969.1,412.7 L969.4,404.5 L969.6,368.3 L969.9,368.4 L970.1,432.4 L970.4,415.3 L970.6,411.6 L970.9,431.4 L971.1,399.3 L971.3,376.7 L971.6,415.6 L971.8,407.3 L972.1,399.2 L972.3,380.9 L972.6,439.1 L972.8,433.2 L973.1,407.9 L973.3,414.2 L973.6,381.8 L973.8,400.9 L974.0,420.1 L974.3,371.4 L974.5,421.5 L974.8,402.0 L975.0,382.9 L975.3,386.3 L975.5,425.1 L975.8,404.4 L976.0,440.9 L976.2,375.9 L976.5,375.6 L976.7,425.7 L977.0,423.7 L977.2,416.8 L977.5,377.6 L977.7,401.8 L978.0,406.3 L978.2,437.6 L978.4,420.4 L978.7,379.2 L978.9,427.8 L979.2,390.3 L979.4,404.7 L979.7,402.8 L979.9,433.9 L980.2,398.1 L980.4,388.9 L980.7,398.8 L980.9,445.1 L981.1,394.1 L981.4,400.1 L981.6,407.0 L981.9,387.4 L982.1,387.8 L982.4,396.4 L982.6,383.7 L982.9,405.9 L983.1,388.1 L983.3,386.9 L983.6,448.3 L983.8,407.5 L984.1,391.0 L984.3,430.7 L984.6,441.7 L984.8,397.4 L985.1,396.8 L985.3,419.8 L985.6,430.7 L985.8,426.1 L986.0,415.0 L986.3,401.4 L986.5,411.1 L986.8,440.4 L987.0,443.3 L987.3,426.5 L987.5,398.8 L987.8,401.0 L988.0,411.2 L988.2,407.3 L988.5,444.7 L988.7,433.5 L989.0,397.3 L989.2,420.3 L989.5,436.8 L989.7,396.3 L990.0,414.5 L990.2,446.1 L990.4,425.3 L990.7,423.6 L990.9,414.6 L991.2,416.5 L991.4,453.1 L991.7,425.1 L991.9,399.8 L992.2,445.2 L992.4,457.0 L992.7,417.4 L992.9,456.5 L993.1,435.4 L993.4,439.9 L993.6,428.7 L993.9,432.6 L994.1,423.1 L994.4,459.9 L994.6,458.5 L994.9,408.9 L995.1,445.0 L995.3,454.4 L995.6,411.6 L995.8,459.1 L996.1,407.9 L996.3,449.7 L996.6,420.4 L996.8,417.5 L997.1,419.9 L997.3,445.4 L997.6,409.6 L997.8,454.1 L998.0,439.3 L998.3,416.1 L998.5,442.9 L998.8,455.4 L999.0,453.1 L999.3,442.0 L999.5,458.2 L999.8,417.9 L1000.0,453.4 L1000.2,439.9 L1000.5,457.5 L1000.7,428.5 L1001.0,461.8 L1001.2,429.5 L1001.5,465.7 L1001.7,417.8 L1002.0,448.1 L1002.2,458.4 L1002.4,459.9 L1002.7,417.2 L1002.9,434.2 L1003.2,433.4 L1003.4,442.1 L1003.7,451.0 L1003.9,458.6 L1004.2,451.6 L1004.4,457.3 L1004.7,463.8 L1004.9,444.6 L1005.1,451.2 L1005.4,442.2 L1005.6,439.9 L1005.9,467.0 L1006.1,431.9 L1006.4,461.2 L1006.6,457.4 L1006.9,463.3 L1007.1,448.6 L1007.3,428.1 L1007.6,436.4 L1007.8,450.3 L1008.1,428.1 L1008.3,445.4 L1008.6,436.1 L1008.8,468.6 L1009.1,467.4 L1009.3,446.0 L1009.6,473.1 L1009.8,450.8 L1010.0,459.6 L1010.3,438.1 L1010.5,450.4 L1010.8,435.8 L1011.0,449.5 L1011.3,441.3 L1011.5,467.5 L1011.8,447.0 L1012.0,437.9 L1012.2,440.1 L1012.5,454.3 L1012.7,452.1 L1013.0,430.9 L1013.2,451.8 L1013.5,458.7 L1013.7,447.1 L1014.0,463.9 L1014.2,464.5 L1014.4,448.1 L1014.7,449.1 L1014.9,462.4 L1015.2,440.3 L1015.4,475.3 L1015.7,447.9 L1015.9,453.1 L1016.2,477.5 L1016.4,477.7 L1016.7,441.3 L1016.9,459.9 L1017.1,463.2 L1017.4,463.7 L1017.6,454.5 L1017.9,440.2 L1018.1,464.2 L1018.4,470.9 L1018.6,455.3 L1018.9,467.3 L1019.1,460.9 L1019.3,474.6 L1019.6,449.9 L1019.8,466.5 L1020.1,445.1 L1020.3,472.9 L1020.6,465.6 L1020.8,483.4 L1021.1,453.1 L1021.3,447.9 L1021.6,449.2 L1021.8,459.5 L1022.0,464.6 L1022.3,481.3 L1022.5,453.8 L1022.8,474.1 L1023.0,454.7 L1023.3,454.6 L1023.5,459.2 L1023.8,481.7 L1024.0,451.3 L1024.2,486.7 L1024.5,470.2 L1024.7,473.5 L1025.0,468.0 L1025.2,452.4 L1025.5,466.9 L1025.7,484.7 L1026.0,474.0 L1026.2,479.5 L1026.4,483.9 L1026.7,488.6 L1026.9,481.5 L1027.2,457.1 L1027.4,478.8 L1027.7,481.9 L1027.9,491.0 L1028.2,459.9 L1028.4,491.2 L1028.7,471.7 L1028.9,491.9 L1029.1,486.2 L1029.4,460.8 L1029.6,469.0 L1029.9,478.6 L1030.1,457.3 L1030.4,477.5 L1030.6,484.6 L1030.9,491.4 L1031.1,469.0 L1031.3,472.2 L1031.6,462.1 L1031.8,490.3 L1032.1,470.2 L1032.3,481.6 L1032.6,471.2 L1032.8,491.0 L1033.1,476.1 L1033.3,487.4 L1033.6,464.7 L1033.8,485.5 L1034.0,473.5 L1034.3,482.2 L1034.5,469.7 L1034.8,491.4 L1035.0,490.4 L1035.3,480.5 L1035.5,468.6 L1035.8,472.4 L1036.0,471.5 L1036.2,495.9 L1036.5,489.7 L1036.7,497.9 L1037.0,485.9 L1037.2,486.2 L1037.5,478.2 L1037.7,484.8 L1038.0,489.3 L1038.2,492.8 L1038.4,475.1 L1038.7,481.0 L1038.9,494.5 L1039.2,488.0 L1039.4,493.2 L1039.7,491.3 L1039.9,472.8 L1040.2,501.0 L1040.4,482.3 L1040.7,497.6 L1040.9,492.1 L1041.1,492.2 L1041.4,501.5 L1041.6,486.0 L1041.9,495.4 L1042.1,489.9 L1042.4,498.4 L1042.6,492.3 L1042.9,498.9 L1043.1,489.7 L1043.3,498.5 L1043.6,492.0 L1043.8,497.2 L1044.1,501.4 L1044.3,488.0 L1044.6,501.3 L1044.8,494.8 L1045.1,497.8 L1045.3,494.3 L1045.6,485.0 L1045.8,495.0 L1046.0,492.7 L1046.3,488.8 L1046.5,497.3 L1046.8,490.9 L1047.0,492.2 L1047.3,507.5 L1047.5,508.2 L1047.8,496.1 L1048.0,488.8 L1048.2,496.3 L1048.5,506.7 L1048.7,503.6 L1049.0,496.9 L1049.2,510.5 L1049.5,497.9 L1049.7,506.1 L1050.0,491.5 L1050.2,495.4 L1050.4,496.0 L1050.7,497.7 L1050.9,512.2 L1051.2,498.6 L1051.4,509.0 L1051.7,509.2 L1051.9,511.1 L1052.2,508.5 L1052.4,503.0 L1052.7,512.8 L1052.9,502.9 L1053.1,501.8 L1053.4,503.3 L1053.6,499.6 L1053.9,496.8 L1054.1,511.3 L1054.4,501.9 L1054.6,504.2 L1054.9,514.9 L1055.1,513.0 L1055.3,506.9 L1055.6,498.5 L1055.8,498.4 L1056.1,501.0 L1056.3,506.6 L1056.6,517.6 L1056.8,508.7 L1057.1,511.6 L1057.3,508.8 L1057.6,502.1 L1057.8,506.1 L1058.0,509.9 L1058.3,510.3 L1058.5,514.3 L1058.8,507.4 L1059.0,505.4 L1059.3,514.9 L1059.5,514.9 L1059.8,514.0 L1060.0,506.3 L1060.2,518.5 L1060.5,517.7 L1060.7,510.2 L1061.0,511.9 L1061.2,518.8 L1061.5,515.6 L1061.7,515.8 L1062.0,508.7 L1062.2,515.2 L1062.4,512.8 L1062.7,512.2 L1062.9,511.8 L1063.2,521.2 L1063.4,509.9 L1063.7,518.4 L1063.9,517.0 L1064.2,515.9 L1064.4,523.5 L1064.7,519.4 L1064.9,523.7 L1065.1,519.3 L1065.4,516.1 L1065.6,516.6 L1065.9,521.6 L1066.1,514.7 L1066.4,514.6 L1066.6,522.5 L1066.9,523.5 L1067.1,516.1 L1067.3,525.5 L1067.6,519.6 L1067.8,525.3 L1068.1,522.3 L1068.3,527.2 L1068.6,527.5 L1068.8,522.1 L1069.1,521.1 L1069.3,522.0 L1069.6,526.7 L1069.8,527.2 L1070.0,529.7 L1070.3,528.1 L1070.5,529.2 L1070.8,521.9 L1071.0,522.7 L1071.3,527.2 L1071.5,527.1 L1071.8,524.2 L1072.0,528.2 L1072.2,532.6 L1072.5,532.5 L1072.7,524.8 L1073.0,528.1 L1073.2,531.6 L1073.5,527.1 L1073.7,528.3 L1074.0,529.6 L1074.2,527.4 L1074.4,534.9 L1074.7,534.3 L1074.9,527.9 L1075.2,533.6 L1075.4,530.0 L1075.7,535.7 L1075.9,529.9 L1076.2,534.8 L1076.4,531.9 L1076.7,530.6 L1076.9,537.3 L1077.1,537.4 L1077.4,533.3 L1077.6,535.9 L1077.9,537.3 L1078.1,533.4 L1078.4,536.6 L1078.6,535.1 L1078.9,536.6 L1079.1,538.8 L1079.3,538.0 L1079.6,539.7 L1079.8,539.2 L1080.1,538.1 L1080.3,538.6 L1080.6,537.4 L1080.8,538.9 L1081.1,538.3 L1081.3,539.9 L1081.6,540.6 L1081.8,539.2 L1082.0,541.3 L1082.3,540.4 L1082.5,542.5 L1082.8,541.2 L1083.0,541.4 L1083.3,541.3 L1083.5,542.3 L1083.8,542.5 L1084.0,543.0" fill="none" stroke="#1f77b4" stroke-width="1.4" opacity="0.85"/><text x="1040" y="54" fill="#ff7f0e" font-size="11">roll 19</text><text x="1090" y="558" fill="#ff7f0e" font-size="11">-18</text><path d="M616.0,315.8 L616.2,314.5 L616.5,317.1 L616.7,317.1 L617.0,315.8 L617.2,314.5 L617.5,315.8 L617.7,318.3 L618.0,315.8 L618.2,314.5 L618.4,313.2 L618.7,315.8 L618.9,313.2 L619.2,314.5 L619.4,315.8 L619.7,317.1 L619.9,314.5 L620.2,314.5 L620.4,318.3 L620.7,318.3 L620.9,318.3 L621.1,313.2 L621.4,317.1 L621.6,314.5 L621.9,317.1 L622.1,314.5 L622.4,314.5 L622.6,318.3 L622.9,313.2 L623.1,317.1 L623.3,317.1 L623.6,317.1 L623.8,317.1 L624.1,315.8 L624.3,318.3 L624.6,313.2 L624.8,313.2 L625.1,317.1 L625.3,317.1 L625.6,315.8 L625.8,314.5 L626.0,314.5 L626.3,315.8 L626.5,313.2 L626.8,313.2 L627.0,317.1 L627.3,318.3 L627.5,317.1 L627.8,315.8 L628.0,318.3 L628.2,315.8 L628.5,317.1 L628.7,318.3 L629.0,313.2 L629.2,313.2 L629.5,317.1 L629.7,315.8 L630.0,313.2 L630.2,314.5 L630.4,313.2 L630.7,317.1 L630.9,314.5 L631.2,318.3 L631.4,317.1 L631.7,314.5 L631.9,318.3 L632.2,318.3 L632.4,317.1 L632.7,315.8 L632.9,314.5 L633.1,317.1 L633.4,314.5 L633.6,315.8 L633.9,317.1 L634.1,313.2 L634.4,317.1 L634.6,313.2 L634.9,314.5 L635.1,315.8 L635.3,313.2 L635.6,313.2 L635.8,317.1 L636.1,317.1 L636.3,313.2 L636.6,314.5 L636.8,315.8 L637.1,317.1 L637.3,315.8 L637.6,317.1 L637.8,317.1 L638.0,318.3 L638.3,313.2 L638.5,318.3 L638.8,313.2 L639.0,314.5 L639.3,313.2 L639.5,315.8 L639.8,313.2 L640.0,314.5 L640.2,315.8 L640.5,315.8 L640.7,315.8 L641.0,317.1 L641.2,317.1 L641.5,313.2 L641.7,315.8 L642.0,315.8 L642.2,314.5 L642.4,314.5 L642.7,315.8 L642.9,317.1 L643.2,317.1 L643.4,315.8 L643.7,317.1 L643.9,318.3 L644.2,313.2 L644.4,315.8 L644.7,314.5 L644.9,315.8 L645.1,318.3 L645.4,317.1 L645.6,318.3 L645.9,314.5 L646.1,318.3 L646.4,315.8 L646.6,318.3 L646.9,314.5 L647.1,313.2 L647.3,318.3 L647.6,314.5 L647.8,318.3 L648.1,317.1 L648.3,315.8 L648.6,313.2 L648.8,315.8 L649.1,318.3 L649.3,313.2 L649.6,314.5 L649.8,318.3 L650.0,318.3 L650.3,315.8 L650.5,317.1 L650.8,315.8 L651.0,317.1 L651.3,313.2 L651.5,318.3 L651.8,317.1 L652.0,317.1 L652.2,314.5 L652.5,318.3 L652.7,314.5 L653.0,317.1 L653.2,317.1 L653.5,314.5 L653.7,314.5 L654.0,318.3 L654.2,318.3 L654.4,317.1 L654.7,315.8 L654.9,318.3 L655.2,313.2 L655.4,314.5 L655.7,314.5 L655.9,313.2 L656.2,317.1 L656.4,318.3 L656.7,315.8 L656.9,317.1 L657.1,318.3 L657.4,317.1 L657.6,313.2 L657.9,313.2 L658.1,317.1 L658.4,318.3 L658.6,318.3 L658.9,313.2 L659.1,313.2 L659.3,315.8 L659.6,317.1 L659.8,314.5 L660.1,318.3 L660.3,317.1 L660.6,318.3 L660.8,313.2 L661.1,313.2 L661.3,317.1 L661.6,314.5 L661.8,314.5 L662.0,317.1 L662.3,315.8 L662.5,317.1 L662.8,317.1 L663.0,313.2 L663.3,314.5 L663.5,315.8 L663.8,317.1 L664.0,318.3 L664.2,315.8 L664.5,317.1 L664.7,313.2 L665.0,315.8 L665.2,313.2 L665.5,317.1 L665.7,314.5 L666.0,314.5 L666.2,317.1 L666.4,317.1 L666.7,317.1 L666.9,317.1 L667.2,315.8 L667.4,313.2 L667.7,318.3 L667.9,315.8 L668.2,317.1 L668.4,313.2 L668.7,313.2 L668.9,318.3 L669.1,317.1 L669.4,313.2 L669.6,318.3 L669.9,315.8 L670.1,315.8 L670.4,318.3 L670.6,313.2 L670.9,318.3 L671.1,318.3 L671.3,315.8 L671.6,313.2 L671.8,317.1 L672.1,313.2 L672.3,315.8 L672.6,315.8 L672.8,318.3 L673.1,313.2 L673.3,314.5 L673.6,313.2 L673.8,318.3 L674.0,317.1 L674.3,314.5 L674.5,315.8 L674.8,314.5 L675.0,313.2 L675.3,318.3 L675.5,317.1 L675.8,313.2 L676.0,318.3 L676.2,313.2 L676.5,318.3 L676.7,317.1 L677.0,318.3 L677.2,314.5 L677.5,317.1 L677.7,318.3 L678.0,317.1 L678.2,318.3 L678.4,318.3 L678.7,318.3 L678.9,318.3 L679.2,317.1 L679.4,313.2 L679.7,314.5 L679.9,315.8 L680.2,318.3 L680.4,317.1 L680.7,318.3 L680.9,317.1 L681.1,314.5 L681.4,317.1 L681.6,314.5 L681.9,315.8 L682.1,314.5 L682.4,313.2 L682.6,318.3 L682.9,315.8 L683.1,318.3 L683.3,315.8 L683.6,315.8 L683.8,315.8 L684.1,318.3 L684.3,314.5 L684.6,315.8 L684.8,317.1 L685.1,313.2 L685.3,313.2 L685.6,314.5 L685.8,315.8 L686.0,313.2 L686.3,317.1 L686.5,318.3 L686.8,314.5 L687.0,318.3 L687.3,314.5 L687.5,317.1 L687.8,315.8 L688.0,314.5 L688.2,315.8 L688.5,315.8 L688.7,317.1 L689.0,317.1 L689.2,313.2 L689.5,315.8 L689.7,314.5 L690.0,318.3 L690.2,315.8 L690.4,318.3 L690.7,314.5 L690.9,313.2 L691.2,315.8 L691.4,313.2 L691.7,300.4 L691.9,285.0 L692.2,285.0 L692.4,268.3 L692.7,247.8 L692.9,233.7 L693.1,259.4 L693.4,250.4 L693.6,238.8 L693.9,232.4 L694.1,181.1 L694.4,227.3 L694.6,232.4 L694.9,223.5 L695.1,204.2 L695.3,150.4 L695.6,169.6 L695.8,149.1 L696.1,185.0 L696.3,202.9 L696.6,149.1 L696.8,179.9 L697.1,167.0 L697.3,202.9 L697.6,124.7 L697.8,200.4 L698.0,147.8 L698.3,185.0 L698.5,182.4 L698.8,181.1 L699.0,163.2 L699.3,167.0 L699.5,124.7 L699.8,152.9 L700.0,176.0 L700.2,160.6 L700.5,128.6 L700.7,197.8 L701.0,140.1 L701.2,177.3 L701.5,131.1 L701.7,178.6 L702.0,188.8 L702.2,151.6 L702.4,167.0 L702.7,188.8 L702.9,187.6 L703.2,200.4 L703.4,168.3 L703.7,151.6 L703.9,117.0 L704.2,122.2 L704.4,163.2 L704.7,192.7 L704.9,156.8 L705.1,185.0 L705.4,167.0 L705.6,178.6 L705.9,91.4 L706.1,159.3 L706.4,117.0 L706.6,173.4 L706.9,118.3 L707.1,173.4 L707.3,178.6 L707.6,177.3 L707.8,181.1 L708.1,211.9 L708.3,146.5 L708.6,160.6 L708.8,205.5 L709.1,201.7 L709.3,201.7 L709.6,220.9 L709.8,214.5 L710.0,201.7 L710.3,140.1 L710.5,208.1 L710.8,154.2 L711.0,176.0 L711.3,149.1 L711.5,149.1 L711.8,206.8 L712.0,219.6 L712.2,167.0 L712.5,211.9 L712.7,190.1 L713.0,237.6 L713.2,182.4 L713.5,231.1 L713.7,197.8 L714.0,191.4 L714.2,164.5 L714.4,232.4 L714.7,179.9 L714.9,227.3 L715.2,231.1 L715.4,195.2 L715.7,168.3 L715.9,202.9 L716.2,215.8 L716.4,214.5 L716.7,174.7 L716.9,237.6 L717.1,244.0 L717.4,258.1 L717.6,268.3 L717.9,267.0 L718.1,283.7 L718.4,308.1 L718.6,317.1 L718.9,331.2 L719.1,336.3 L719.3,349.1 L719.6,378.6 L719.8,369.6 L720.1,385.0 L720.3,413.2 L720.6,376.0 L720.8,391.4 L721.1,388.9 L721.3,415.8 L721.6,427.3 L721.8,451.7 L722.0,438.9 L722.3,413.2 L722.5,472.2 L722.8,465.8 L723.0,450.4 L723.3,436.3 L723.5,488.9 L723.8,435.0 L724.0,446.6 L724.2,447.8 L724.5,494.0 L724.7,446.6 L725.0,432.4 L725.2,440.1 L725.5,500.4 L725.7,459.4 L726.0,490.1 L726.2,509.4 L726.4,485.0 L726.7,470.9 L726.9,527.3 L727.2,474.8 L727.4,441.4 L727.7,517.1 L727.9,506.8 L728.2,474.8 L728.4,508.1 L728.7,447.8 L728.9,465.8 L729.1,492.7 L729.4,514.5 L729.6,450.4 L729.9,446.6 L730.1,464.5 L730.4,445.3 L730.6,544.0 L730.9,468.4 L731.1,509.4 L731.3,459.4 L731.6,500.4 L731.8,495.3 L732.1,515.8 L732.3,474.8 L732.6,491.4 L732.8,459.4 L733.1,515.8 L733.3,503.0 L733.6,467.1 L733.8,491.4 L734.0,476.0 L734.3,479.9 L734.5,482.5 L734.8,460.7 L735.0,478.6 L735.3,472.2 L735.5,517.1 L735.8,474.8 L736.0,506.8 L736.2,504.3 L736.5,464.5 L736.7,468.4 L737.0,506.8 L737.2,541.4 L737.5,450.4 L737.7,529.9 L738.0,509.4 L738.2,486.3 L738.4,495.3 L738.7,499.1 L738.9,453.0 L739.2,495.3 L739.4,509.4 L739.7,510.7 L739.9,529.9 L740.2,456.8 L740.4,518.4 L740.7,445.3 L740.9,536.3 L741.1,491.4 L741.4,487.6 L741.6,496.6 L741.9,453.0 L742.1,447.8 L742.4,458.1 L742.6,453.0 L742.9,479.9 L743.1,463.2 L743.3,520.9 L743.6,527.3 L743.8,472.2 L744.1,542.7 L744.3,506.8 L744.6,467.1 L744.8,533.7 L745.1,458.1 L745.3,476.0 L745.6,482.5 L745.8,524.8 L746.0,438.9 L746.3,510.7 L746.5,444.0 L746.8,467.1 L747.0,508.1 L747.3,447.8 L747.5,509.4 L747.8,476.0 L748.0,445.3 L748.2,483.7 L748.5,509.4 L748.7,456.8 L749.0,458.1 L749.2,504.3 L749.5,436.3 L749.7,499.1 L750.0,447.8 L750.2,479.9 L750.4,477.3 L750.7,485.0 L750.9,505.5 L751.2,485.0 L751.4,506.8 L751.7,487.6 L751.9,528.6 L752.2,494.0 L752.4,499.1 L752.7,531.2 L752.9,509.4 L753.1,447.8 L753.4,532.5 L753.6,509.4 L753.9,463.2 L754.1,468.4 L754.4,487.6 L754.6,442.7 L754.9,459.4 L755.1,472.2 L755.3,496.6 L755.6,451.7 L755.8,492.7 L756.1,532.5 L756.3,503.0 L756.6,446.6 L756.8,473.5 L757.1,517.1 L757.3,496.6 L757.6,501.7 L757.8,536.3 L758.0,522.2 L758.3,518.4 L758.5,469.6 L758.8,461.9 L759.0,449.1 L759.3,442.7 L759.5,426.0 L759.8,399.1 L760.0,401.7 L760.2,353.0 L760.5,358.1 L760.7,333.7 L761.0,323.5 L761.2,315.8 L761.5,306.8 L761.7,294.0 L762.0,286.3 L762.2,274.7 L762.4,245.2 L762.7,265.8 L762.9,254.2 L763.2,237.6 L763.4,215.8 L763.7,191.4 L763.9,238.8 L764.2,204.2 L764.4,178.6 L764.7,226.0 L764.9,220.9 L765.1,213.2 L765.4,197.8 L765.6,150.4 L765.9,211.9 L766.1,146.5 L766.4,165.8 L766.6,182.4 L766.9,144.0 L767.1,205.5 L767.3,185.0 L767.6,151.6 L767.8,209.3 L768.1,191.4 L768.3,154.2 L768.6,173.4 L768.8,165.8 L769.1,131.1 L769.3,142.7 L769.6,165.8 L769.8,113.2 L770.0,119.6 L770.3,120.9 L770.5,150.4 L770.8,128.6 L771.0,118.3 L771.3,141.4 L771.5,154.2 L771.8,152.9 L772.0,140.1 L772.2,108.1 L772.5,144.0 L772.7,147.8 L773.0,99.1 L773.2,133.7 L773.5,90.1 L773.7,117.0 L774.0,118.3 L774.2,132.4 L774.4,91.4 L774.7,174.7 L774.9,145.2 L775.2,185.0 L775.4,142.7 L775.7,114.5 L775.9,131.1 L776.2,133.7 L776.4,169.6 L776.7,168.3 L776.9,117.0 L777.1,120.9 L777.4,156.8 L777.6,174.7 L777.9,113.2 L778.1,179.9 L778.4,146.5 L778.6,158.1 L778.9,164.5 L779.1,137.5 L779.3,142.7 L779.6,91.4 L779.8,118.3 L780.1,163.2 L780.3,118.3 L780.6,101.6 L780.8,101.6 L781.1,132.4 L781.3,111.9 L781.6,132.4 L781.8,160.6 L782.0,131.1 L782.3,141.4 L782.5,145.2 L782.8,79.8 L783.0,101.6 L783.3,172.2 L783.5,114.5 L783.8,120.9 L784.0,163.2 L784.2,152.9 L784.5,111.9 L784.7,152.9 L785.0,169.6 L785.2,106.8 L785.5,158.1 L785.7,155.5 L786.0,156.8 L786.2,111.9 L786.4,181.1 L786.7,170.9 L786.9,108.1 L787.2,181.1 L787.4,135.0 L787.7,172.2 L787.9,179.9 L788.2,156.8 L788.4,142.7 L788.7,131.1 L788.9,99.1 L789.1,115.7 L789.4,146.5 L789.6,123.4 L789.9,140.1 L790.1,127.3 L790.4,156.8 L790.6,128.6 L790.9,137.5 L791.1,167.0 L791.3,95.2 L791.6,159.3 L791.8,164.5 L792.1,167.0 L792.3,104.2 L792.6,106.8 L792.8,105.5 L793.1,113.2 L793.3,138.8 L793.6,86.3 L793.8,104.2 L794.0,179.9 L794.3,136.3 L794.5,128.6 L794.8,165.8 L795.0,151.6 L795.3,140.1 L795.5,101.6 L795.8,136.3 L796.0,158.1 L796.2,168.3 L796.5,99.1 L796.7,179.9 L797.0,126.0 L797.2,172.2 L797.5,127.3 L797.7,99.1 L798.0,108.1 L798.2,147.8 L798.4,150.4 L798.7,145.2 L798.9,160.6 L799.2,99.1 L799.4,120.9 L799.7,136.3 L799.9,102.9 L800.2,160.6 L800.4,173.4 L800.7,146.5 L800.9,165.8 L801.1,156.8 L801.4,168.3 L801.6,90.1 L801.9,147.8 L802.1,168.3 L802.4,110.6 L802.6,141.4 L802.9,176.0 L803.1,132.4 L803.3,137.5 L803.6,126.0 L803.8,151.6 L804.1,155.5 L804.3,123.4 L804.6,173.4 L804.8,104.2 L805.1,170.9 L805.3,95.2 L805.6,136.3 L805.8,181.1 L806.0,108.1 L806.3,118.3 L806.5,115.7 L806.8,140.1 L807.0,147.8 L807.3,127.3 L807.5,137.5 L807.8,160.6 L808.0,145.2 L808.2,117.0 L808.5,164.5 L808.7,127.3 L809.0,105.5 L809.2,185.0 L809.5,95.2 L809.7,161.9 L810.0,146.5 L810.2,170.9 L810.4,141.4 L810.7,154.2 L810.9,114.5 L811.2,147.8 L811.4,163.2 L811.7,124.7 L811.9,135.0 L812.2,138.8 L812.4,155.5 L812.7,167.0 L812.9,109.3 L813.1,156.8 L813.4,106.8 L813.6,99.1 L813.9,186.3 L814.1,155.5 L814.4,115.7 L814.6,129.9 L814.9,108.1 L815.1,123.4 L815.3,144.0 L815.6,158.1 L815.8,129.9 L816.1,151.6 L816.3,109.3 L816.6,97.8 L816.8,147.8 L817.1,135.0 L817.3,110.6 L817.6,163.2 L817.8,174.7 L818.0,123.4 L818.3,129.9 L818.5,97.8 L818.8,164.5 L819.0,95.2 L819.3,150.4 L819.5,174.7 L819.8,136.3 L820.0,182.4 L820.2,120.9 L820.5,108.1 L820.7,113.2 L821.0,156.8 L821.2,172.2 L821.5,156.8 L821.7,127.3 L822.0,124.7 L822.2,114.5 L822.4,185.0 L822.7,96.5 L822.9,149.1 L823.2,187.6 L823.4,168.3 L823.7,108.1 L823.9,188.8 L824.2,142.7 L824.4,161.9 L824.7,168.3 L824.9,117.0 L825.1,159.3 L825.4,177.3 L825.6,156.8 L825.9,154.2 L826.1,117.0 L826.4,160.6 L826.6,140.1 L826.9,172.2 L827.1,88.8 L827.3,111.9 L827.6,185.0 L827.8,127.3 L828.1,195.2 L828.3,176.0 L828.6,123.4 L828.8,163.2 L829.1,120.9 L829.3,115.7 L829.6,123.4 L829.8,168.3 L830.0,99.1 L830.3,133.7 L830.5,123.4 L830.8,195.2 L831.0,182.4 L831.3,160.6 L831.5,128.6 L831.8,183.7 L832.0,190.1 L832.2,178.6 L832.5,129.9 L832.7,115.7 L833.0,190.1 L833.2,181.1 L833.5,172.2 L833.7,117.0 L834.0,118.3 L834.2,164.5 L834.4,154.2 L834.7,108.1 L834.9,181.1 L835.2,140.1 L835.4,144.0 L835.7,151.6 L835.9,96.5 L836.2,142.7 L836.4,144.0 L836.7,108.1 L836.9,140.1 L837.1,120.9 L837.4,168.3 L837.6,101.6 L837.9,169.6 L838.1,145.2 L838.4,170.9 L838.6,147.8 L838.9,113.2 L839.1,176.0 L839.3,152.9 L839.6,164.5 L839.8,110.6 L840.1,111.9 L840.3,163.2 L840.6,158.1 L840.8,140.1 L841.1,123.4 L841.3,117.0 L841.6,128.6 L841.8,127.3 L842.0,131.1 L842.3,155.5 L842.5,115.7 L842.8,137.5 L843.0,159.3 L843.3,123.4 L843.5,119.6 L843.8,152.9 L844.0,149.1 L844.2,104.2 L844.5,92.7 L844.7,105.5 L845.0,154.2 L845.2,163.2 L845.5,113.2 L845.7,87.5 L846.0,151.6 L846.2,94.0 L846.4,158.1 L846.7,155.5 L846.9,115.7 L847.2,173.4 L847.4,106.8 L847.7,185.0 L847.9,168.3 L848.2,173.4 L848.4,170.9 L848.7,163.2 L848.9,117.0 L849.1,145.2 L849.4,122.2 L849.6,147.8 L849.9,160.6 L850.1,127.3 L850.4,181.1 L850.6,119.6 L850.9,123.4 L851.1,132.4 L851.3,178.6 L851.6,144.0 L851.8,141.4 L852.1,128.6 L852.3,145.2 L852.6,85.0 L852.8,165.8 L853.1,169.6 L853.3,155.5 L853.6,161.9 L853.8,115.7 L854.0,158.1 L854.3,161.9 L854.5,117.0 L854.8,172.2 L855.0,135.0 L855.3,120.9 L855.5,129.9 L855.8,172.2 L856.0,77.3 L856.2,108.1 L856.5,159.3 L856.7,136.3 L857.0,109.3 L857.2,123.4 L857.5,135.0 L857.7,146.5 L858.0,146.5 L858.2,85.0 L858.4,140.1 L858.7,141.4 L858.9,164.5 L859.2,79.8 L859.4,113.2 L859.7,172.2 L859.9,150.4 L860.2,140.1 L860.4,135.0 L860.7,138.8 L860.9,91.4 L861.1,94.0 L861.4,186.3 L861.6,169.6 L861.9,154.2 L862.1,99.1 L862.4,118.3 L862.6,123.4 L862.9,161.9 L863.1,85.0 L863.3,117.0 L863.6,106.8 L863.8,146.5 L864.1,110.6 L864.3,140.1 L864.6,140.1 L864.8,176.0 L865.1,177.3 L865.3,145.2 L865.6,132.4 L865.8,172.2 L866.0,127.3 L866.3,117.0 L866.5,123.4 L866.8,105.5 L867.0,136.3 L867.3,120.9 L867.5,102.9 L867.8,117.0 L868.0,95.2 L868.2,173.4 L868.5,88.8 L868.7,167.0 L869.0,118.3 L869.2,190.1 L869.5,110.6 L869.7,160.6 L870.0,135.0 L870.2,146.5 L870.4,154.2 L870.7,127.3 L870.9,161.9 L871.2,156.8 L871.4,115.7 L871.7,123.4 L871.9,190.1 L872.2,110.6 L872.4,145.2 L872.7,141.4 L872.9,122.2 L873.1,163.2 L873.4,141.4 L873.6,135.0 L873.9,160.6 L874.1,133.7 L874.4,119.6 L874.6,164.5 L874.9,115.7 L875.1,158.1 L875.3,185.0 L875.6,161.9 L875.8,111.9 L876.1,110.6 L876.3,111.9 L876.6,173.4 L876.8,178.6 L877.1,109.3 L877.3,141.4 L877.6,109.3 L877.8,117.0 L878.0,137.5 L878.3,136.3 L878.5,122.2 L878.8,179.9 L879.0,161.9 L879.3,88.8 L879.5,140.1 L879.8,111.9 L880.0,109.3 L880.2,123.4 L880.5,141.4 L880.7,127.3 L881.0,141.4 L881.2,174.7 L881.5,123.4 L881.7,140.1 L882.0,87.5 L882.2,120.9 L882.4,88.8 L882.7,146.5 L882.9,127.3 L883.2,142.7 L883.4,91.4 L883.7,183.7 L883.9,165.8 L884.2,163.2 L884.4,127.3 L884.7,154.2 L884.9,99.1 L885.1,185.0 L885.4,100.4 L885.6,179.9 L885.9,113.2 L886.1,170.9 L886.4,136.3 L886.6,199.1 L886.9,182.4 L887.1,178.6 L887.3,194.0 L887.6,136.3 L887.8,182.4 L888.1,182.4 L888.3,173.4 L888.6,142.7 L888.8,152.9 L889.1,97.8 L889.3,120.9 L889.6,182.4 L889.8,124.7 L890.0,127.3 L890.3,158.1 L890.5,150.4 L890.8,170.9 L891.0,160.6 L891.3,172.2 L891.5,168.3 L891.8,136.3 L892.0,99.1 L892.2,165.8 L892.5,176.0 L892.7,123.4 L893.0,91.4 L893.2,147.8 L893.5,91.4 L893.7,170.9 L894.0,131.1 L894.2,136.3 L894.4,117.0 L894.7,177.3 L894.9,141.4 L895.2,159.3 L895.4,185.0 L895.7,169.6 L895.9,109.3 L896.2,102.9 L896.4,144.0 L896.7,177.3 L896.9,100.4 L897.1,144.0 L897.4,147.8 L897.6,158.1 L897.9,181.1 L898.1,101.6 L898.4,154.2 L898.6,118.3 L898.9,183.7 L899.1,140.1 L899.3,146.5 L899.6,149.1 L899.8,172.2 L900.1,176.0 L900.3,88.8 L900.6,190.1 L900.8,129.9 L901.1,142.7 L901.3,129.9 L901.6,104.2 L901.8,114.5 L902.0,110.6 L902.3,170.9 L902.5,95.2 L902.8,156.8 L903.0,183.7 L903.3,126.0 L903.5,137.5 L903.8,140.1 L904.0,181.1 L904.2,147.8 L904.5,101.6 L904.7,176.0 L905.0,176.0 L905.2,164.5 L905.5,177.3 L905.7,123.4 L906.0,187.6 L906.2,110.6 L906.4,117.0 L906.7,127.3 L906.9,168.3 L907.2,182.4 L907.4,128.6 L907.7,131.1 L907.9,174.7 L908.2,117.0 L908.4,190.1 L908.7,133.7 L908.9,192.7 L909.1,161.9 L909.4,109.3 L909.6,163.2 L909.9,164.5 L910.1,128.6 L910.4,117.0 L910.6,154.2 L910.9,115.7 L911.1,151.6 L911.3,115.7 L911.6,147.8 L911.8,128.6 L912.1,131.1 L912.3,167.0 L912.6,100.4 L912.8,199.1 L913.1,120.9 L913.3,165.8 L913.6,164.5 L913.8,126.0 L914.0,179.9 L914.3,156.8 L914.5,123.4 L914.8,137.5 L915.0,128.6 L915.3,124.7 L915.5,147.8 L915.8,118.3 L916.0,191.4 L916.2,172.2 L916.5,147.8 L916.7,169.6 L917.0,137.5 L917.2,104.2 L917.5,161.9 L917.7,186.3 L918.0,140.1 L918.2,119.6 L918.4,115.7 L918.7,151.6 L918.9,119.6 L919.2,101.6 L919.4,176.0 L919.7,114.5 L919.9,185.0 L920.2,137.5 L920.4,173.4 L920.7,186.3 L920.9,145.2 L921.1,170.9 L921.4,187.6 L921.6,127.3 L921.9,152.9 L922.1,187.6 L922.4,138.8 L922.6,140.1 L922.9,161.9 L923.1,154.2 L923.3,173.4 L923.6,117.0 L923.8,138.8 L924.1,163.2 L924.3,90.1 L924.6,181.1 L924.8,101.6 L925.1,197.8 L925.3,195.2 L925.6,145.2 L925.8,154.2 L926.0,151.6 L926.3,144.0 L926.5,185.0 L926.8,95.2 L927.0,133.7 L927.3,127.3 L927.5,109.3 L927.8,169.6 L928.0,152.9 L928.2,152.9 L928.5,169.6 L928.7,97.8 L929.0,164.5 L929.2,176.0 L929.5,179.9 L929.7,111.9 L930.0,191.4 L930.2,181.1 L930.4,149.1 L930.7,152.9 L930.9,170.9 L931.2,97.8 L931.4,185.0 L931.7,114.5 L931.9,199.1 L932.2,128.6 L932.4,144.0 L932.7,159.3 L932.9,167.0 L933.1,129.9 L933.4,118.3 L933.6,159.3 L933.9,179.9 L934.1,158.1 L934.4,135.0 L934.6,172.2 L934.9,170.9 L935.1,176.0 L935.3,141.4 L935.6,135.0 L935.8,147.8 L936.1,169.6 L936.3,136.3 L936.6,79.8 L936.8,178.6 L937.1,141.4 L937.3,168.3 L937.6,118.3 L937.8,179.9 L938.0,168.3 L938.3,113.2 L938.5,183.7 L938.8,114.5 L939.0,177.3 L939.3,128.6 L939.5,196.5 L939.8,163.2 L940.0,115.7 L940.2,129.9 L940.5,196.5 L940.7,179.9 L941.0,155.5 L941.2,190.1 L941.5,140.1 L941.7,169.6 L942.0,135.0 L942.2,119.6 L942.4,185.0 L942.7,120.9 L942.9,154.2 L943.2,155.5 L943.4,161.9 L943.7,177.3 L943.9,144.0 L944.2,100.4 L944.4,167.0 L944.7,172.2 L944.9,176.0 L945.1,86.3 L945.4,151.6 L945.6,132.4 L945.9,127.3 L946.1,135.0 L946.4,97.8 L946.6,146.5 L946.9,152.9 L947.1,140.1 L947.3,91.4 L947.6,168.3 L947.8,133.7 L948.1,154.2 L948.3,179.9 L948.6,151.6 L948.8,183.7 L949.1,167.0 L949.3,177.3 L949.6,164.5 L949.8,152.9 L950.0,176.0 L950.3,119.6 L950.5,133.7 L950.8,113.2 L951.0,159.3 L951.3,144.0 L951.5,170.9 L951.8,141.4 L952.0,104.2 L952.2,181.1 L952.5,172.2 L952.7,163.2 L953.0,127.3 L953.2,113.2 L953.5,146.5 L953.7,91.4 L954.0,154.2 L954.2,147.8 L954.4,149.1 L954.7,104.2 L954.9,108.1 L955.2,145.2 L955.4,169.6 L955.7,159.3 L955.9,88.8 L956.2,128.6 L956.4,92.7 L956.7,135.0 L956.9,129.9 L957.1,177.3 L957.4,120.9 L957.6,167.0 L957.9,100.4 L958.1,136.3 L958.4,100.4 L958.6,173.4 L958.9,108.1 L959.1,169.6 L959.3,128.6 L959.6,137.5 L959.8,149.1 L960.1,192.7 L960.3,132.4 L960.6,150.4 L960.8,174.7 L961.1,142.7 L961.3,101.6 L961.6,152.9 L961.8,106.8 L962.0,122.2 L962.3,194.0 L962.5,170.9 L962.8,128.6 L963.0,133.7 L963.3,144.0 L963.5,136.3 L963.8,174.7 L964.0,117.0 L964.2,190.1 L964.5,126.0 L964.7,128.6 L965.0,144.0 L965.2,177.3 L965.5,119.6 L965.7,144.0 L966.0,149.1 L966.2,104.2 L966.4,117.0 L966.7,122.2 L966.9,104.2 L967.2,154.2 L967.4,127.3 L967.7,131.1 L967.9,182.4 L968.2,97.8 L968.4,124.7 L968.7,177.3 L968.9,185.0 L969.1,177.3 L969.4,96.5 L969.6,118.3 L969.9,161.9 L970.1,181.1 L970.4,150.4 L970.6,154.2 L970.9,144.0 L971.1,177.3 L971.3,76.0 L971.6,170.9 L971.8,133.7 L972.1,132.4 L972.3,145.2 L972.6,140.1 L972.8,131.1 L973.1,135.0 L973.3,164.5 L973.6,131.1 L973.8,169.6 L974.0,82.4 L974.3,147.8 L974.5,149.1 L974.8,97.8 L975.0,109.3 L975.3,176.0 L975.5,129.9 L975.8,158.1 L976.0,106.8 L976.2,170.9 L976.5,156.8 L976.7,156.8 L977.0,128.6 L977.2,120.9 L977.5,155.5 L977.7,102.9 L978.0,119.6 L978.2,114.5 L978.4,111.9 L978.7,97.8 L978.9,97.8 L979.2,128.6 L979.4,119.6 L979.7,181.1 L979.9,155.5 L980.2,135.0 L980.4,167.0 L980.7,136.3 L980.9,102.9 L981.1,169.6 L981.4,96.5 L981.6,188.8 L981.9,126.0 L982.1,178.6 L982.4,128.6 L982.6,142.7 L982.9,113.2 L983.1,140.1 L983.3,165.8 L983.6,118.3 L983.8,147.8 L984.1,168.3 L984.3,113.2 L984.6,135.0 L984.8,117.0 L985.1,186.3 L985.3,186.3 L985.6,102.9 L985.8,129.9 L986.0,145.2 L986.3,165.8 L986.5,128.6 L986.8,159.3 L987.0,110.6 L987.3,131.1 L987.5,127.3 L987.8,161.9 L988.0,108.1 L988.2,183.7 L988.5,114.5 L988.7,183.7 L989.0,179.9 L989.2,141.4 L989.5,155.5 L989.7,174.7 L990.0,106.8 L990.2,188.8 L990.4,113.2 L990.7,144.0 L990.9,150.4 L991.2,164.5 L991.4,142.7 L991.7,129.9 L991.9,127.3 L992.2,183.7 L992.4,91.4 L992.7,188.8 L992.9,122.2 L993.1,149.1 L993.4,144.0 L993.6,154.2 L993.9,188.8 L994.1,158.1 L994.4,190.1 L994.6,111.9 L994.9,174.7 L995.1,176.0 L995.3,185.0 L995.6,119.6 L995.8,163.2 L996.1,181.1 L996.3,140.1 L996.6,132.4 L996.8,100.4 L997.1,183.7 L997.3,122.2 L997.6,199.1 L997.8,108.1 L998.0,205.5 L998.3,149.1 L998.5,142.7 L998.8,151.6 L999.0,174.7 L999.3,199.1 L999.5,190.1 L999.8,170.9 L1000.0,111.9 L1000.2,178.6 L1000.5,122.2 L1000.7,187.6 L1001.0,188.8 L1001.2,165.8 L1001.5,154.2 L1001.7,137.5 L1002.0,155.5 L1002.2,158.1 L1002.4,176.0 L1002.7,122.2 L1002.9,181.1 L1003.2,123.4 L1003.4,111.9 L1003.7,192.7 L1003.9,133.7 L1004.2,136.3 L1004.4,182.4 L1004.7,169.6 L1004.9,131.1 L1005.1,142.7 L1005.4,160.6 L1005.6,115.7 L1005.9,140.1 L1006.1,105.5 L1006.4,181.1 L1006.6,137.5 L1006.9,165.8 L1007.1,163.2 L1007.3,177.3 L1007.6,152.9 L1007.8,160.6 L1008.1,174.7 L1008.3,173.4 L1008.6,169.6 L1008.8,97.8 L1009.1,150.4 L1009.3,190.1 L1009.6,127.3 L1009.8,152.9 L1010.0,149.1 L1010.3,128.6 L1010.5,126.0 L1010.8,188.8 L1011.0,169.6 L1011.3,133.7 L1011.5,114.5 L1011.8,172.2 L1012.0,168.3 L1012.2,106.8 L1012.5,152.9 L1012.7,122.2 L1013.0,129.9 L1013.2,127.3 L1013.5,173.4 L1013.7,100.4 L1014.0,182.4 L1014.2,176.0 L1014.4,137.5 L1014.7,164.5 L1014.9,161.9 L1015.2,106.8 L1015.4,161.9 L1015.7,131.1 L1015.9,186.3 L1016.2,170.9 L1016.4,104.2 L1016.7,160.6 L1016.9,111.9 L1017.1,192.7 L1017.4,194.0 L1017.6,132.4 L1017.9,135.0 L1018.1,181.1 L1018.4,137.5 L1018.6,159.3 L1018.9,154.2 L1019.1,151.6 L1019.3,161.9 L1019.6,135.0 L1019.8,146.5 L1020.1,141.4 L1020.3,163.2 L1020.6,123.4 L1020.8,174.7 L1021.1,142.7 L1021.3,124.7 L1021.6,167.0 L1021.8,123.4 L1022.0,173.4 L1022.3,131.1 L1022.5,120.9 L1022.8,131.1 L1023.0,122.2 L1023.3,179.9 L1023.5,192.7 L1023.8,155.5 L1024.0,128.6 L1024.2,197.8 L1024.5,115.7 L1024.7,150.4 L1025.0,172.2 L1025.2,182.4 L1025.5,152.9 L1025.7,141.4 L1026.0,128.6 L1026.2,197.8 L1026.4,115.7 L1026.7,155.5 L1026.9,181.1 L1027.2,133.7 L1027.4,199.1 L1027.7,127.3 L1027.9,152.9 L1028.2,164.5 L1028.4,163.2 L1028.7,195.2 L1028.9,156.8 L1029.1,156.8 L1029.4,141.4 L1029.6,181.1 L1029.9,136.3 L1030.1,122.2 L1030.4,152.9 L1030.6,122.2 L1030.9,128.6 L1031.1,123.4 L1031.3,177.3 L1031.6,178.6 L1031.8,164.5 L1032.1,195.2 L1032.3,128.6 L1032.6,196.5 L1032.8,160.6 L1033.1,155.5 L1033.3,182.4 L1033.6,128.6 L1033.8,127.3 L1034.0,144.0 L1034.3,144.0 L1034.5,119.6 L1034.8,128.6 L1035.0,110.6 L1035.3,115.7 L1035.5,105.5 L1035.8,150.4 L1036.0,172.2 L1036.2,109.3 L1036.5,110.6 L1036.7,164.5 L1037.0,126.0 L1037.2,163.2 L1037.5,102.9 L1037.7,129.9 L1038.0,141.4 L1038.2,187.6 L1038.4,185.0 L1038.7,183.7 L1038.9,177.3 L1039.2,147.8 L1039.4,179.9 L1039.7,179.9 L1039.9,92.7 L1040.2,114.5 L1040.4,191.4 L1040.7,115.7 L1040.9,178.6 L1041.1,161.9 L1041.4,183.7 L1041.6,105.5 L1041.9,126.0 L1042.1,192.7 L1042.4,150.4 L1042.6,177.3 L1042.9,136.3 L1043.1,150.4 L1043.3,113.2 L1043.6,187.6 L1043.8,123.4 L1044.1,102.9 L1044.3,132.4 L1044.6,165.8 L1044.8,140.1 L1045.1,123.4 L1045.3,197.8 L1045.6,152.9 L1045.8,195.2 L1046.0,154.2 L1046.3,183.7 L1046.5,114.5 L1046.8,187.6 L1047.0,158.1 L1047.3,160.6 L1047.5,156.8 L1047.8,152.9 L1048.0,156.8 L1048.2,114.5 L1048.5,208.1 L1048.7,182.4 L1049.0,211.9 L1049.2,192.7 L1049.5,187.6 L1049.7,145.2 L1050.0,187.6 L1050.2,188.8 L1050.4,199.1 L1050.7,152.9 L1050.9,185.0 L1051.2,170.9 L1051.4,141.4 L1051.7,185.0 L1051.9,183.7 L1052.2,156.8 L1052.4,120.9 L1052.7,136.3 L1052.9,136.3 L1053.1,187.6 L1053.4,105.5 L1053.6,165.8 L1053.9,154.2 L1054.1,170.9 L1054.4,170.9 L1054.6,168.3 L1054.9,147.8 L1055.1,185.0 L1055.3,158.1 L1055.6,129.9 L1055.8,200.4 L1056.1,158.1 L1056.3,164.5 L1056.6,135.0 L1056.8,127.3 L1057.1,154.2 L1057.3,155.5 L1057.6,120.9 L1057.8,154.2 L1058.0,197.8 L1058.3,129.9 L1058.5,181.1 L1058.8,136.3 L1059.0,191.4 L1059.3,167.0 L1059.5,124.7 L1059.8,141.4 L1060.0,145.2 L1060.2,131.1 L1060.5,150.4 L1060.7,182.4 L1061.0,146.5 L1061.2,124.7 L1061.5,115.7 L1061.7,168.3 L1062.0,129.9 L1062.2,201.7 L1062.4,155.5 L1062.7,201.7 L1062.9,158.1 L1063.2,173.4 L1063.4,190.1 L1063.7,218.3 L1063.9,228.6 L1064.2,232.4 L1064.4,196.5 L1064.7,179.9 L1064.9,179.9 L1065.1,194.0 L1065.4,172.2 L1065.6,202.9 L1065.9,208.1 L1066.1,142.7 L1066.4,196.5 L1066.6,201.7 L1066.9,200.4 L1067.1,114.5 L1067.3,145.2 L1067.6,192.7 L1067.8,190.1 L1068.1,142.7 L1068.3,169.6 L1068.6,167.0 L1068.8,129.9 L1069.1,190.1 L1069.3,168.3 L1069.6,181.1 L1069.8,172.2 L1070.0,158.1 L1070.3,168.3 L1070.5,142.7 L1070.8,195.2 L1071.0,205.5 L1071.3,173.4 L1071.5,172.2 L1071.8,161.9 L1072.0,188.8 L1072.2,161.9 L1072.5,183.7 L1072.7,129.9 L1073.0,146.5 L1073.2,174.7 L1073.5,172.2 L1073.7,199.1 L1074.0,196.5 L1074.2,199.1 L1074.4,183.7 L1074.7,163.2 L1074.9,187.6 L1075.2,141.4 L1075.4,167.0 L1075.7,165.8 L1075.9,120.9 L1076.2,114.5 L1076.4,188.8 L1076.7,185.0 L1076.9,145.2 L1077.1,200.4 L1077.4,200.4 L1077.6,126.0 L1077.9,169.6 L1078.1,182.4 L1078.4,156.8 L1078.6,208.1 L1078.9,163.2 L1079.1,218.3 L1079.3,214.5 L1079.6,179.9 L1079.8,227.3 L1080.1,191.4 L1080.3,179.9 L1080.6,186.3 L1080.8,208.1 L1081.1,188.8 L1081.3,215.8 L1081.6,220.9 L1081.8,218.3 L1082.0,232.4 L1082.3,196.5 L1082.5,197.8 L1082.8,252.9 L1083.0,201.7 L1083.3,256.8 L1083.5,233.7 L1083.8,263.2 L1084.0,233.7" fill="none" stroke="#ff7f0e" stroke-width="1.1" opacity="0.85"/><text x="616" y="572" font-size="11" fill="#888">time 0..38 s — altitude (blue) &amp; roll (orange)</text></svg>