<svg xmlns="http://www.w3.org/2000/svg" width="1140" height="600" font-family="sans-serif" font-size="13"><rect width="1140" height="600" fill="white"/><text x="20" y="26" font-size="15" fill="#333">TMS-7 F15 — cross-wind calm (10% noise)</text><rect x="20" y="40" width="540" height="540" fill="#fbfbfb" stroke="#ddd"/><rect x="50" y="304" width="319" height="69" fill="#cde" stroke="#369" opacity="0.7"/><text x="50" y="299" fill="#369" font-size="12">landing zone</text><circle cx="252" cy="411" r="5" fill="black"/><text x="260" y="415" font-size="12">pad</text><path d="M251.6,411.1 L251.6,411.1 L251.6,411.1 L251.6,411.1 L251.6,411.1 L251.6,411.1 L251.6,411.1 L251.6,411.1 L251.6,411.1 L251.6,411.1 L251.6,411.1 L251.6,411.1 L251.6,411.1 L251.6,411.1 L251.6,411.1 L251.6,411.1 L251.6,411.1 L251.6,411.1 L251.6,411.1 L251.6,411.1 L251.6,411.1 L251.6,411.1 L251.6,411.1 L251.6,411.1 L251.6,411.1 L251.6,411.1 L251.6,411.1 L251.6,411.1 L251.6,411.1 L251.6,411.1 L251.6,411.1 L251.6,411.1 L251.6,411.1 L251.6,411.1 L251.6,411.1 L251.6,411.1 L251.6,411.1 L251.6,411.1 L251.6,411.1 L251.6,411.1 L251.6,411.1 L251.6,411.1 L251.6,411.1 L251.6,411.1 L251.6,411.1 L251.6,411.1 L251.6,411.1 L251.6,411.1 L251.6,411.1 L251.6,411.1 L251.6,411.1 L251.6,411.1 L251.6,411.1 L251.6,411.1 L251.6,411.1 L251.6,411.1 L251.6,411.1 L251.6,411.1 L252.8,409.0 L254.4,406.5 L255.7,404.1 L257.3,401.8 L259.0,399.3 L260.7,397.0 L262.4,394.8 L264.1,392.5 L266.0,390.2 L267.9,388.1 L269.8,386.0 L271.8,383.9 L273.9,382.0 L276.0,379.9 L278.0,378.0 L280.2,376.2 L282.5,374.4 L284.7,372.5 L286.9,370.8 L289.1,368.9 L291.4,367.0 L293.4,365.3 L295.7,363.2 L297.7,361.3 L299.8,359.3 L301.6,357.4 L303.7,355.1 L305.4,353.0 L307.3,350.7 L309.0,348.4 L310.7,346.2 L312.3,343.7 L313.8,341.4 L315.4,338.9 L316.7,336.5 L318.1,333.8 L319.3,331.4 L320.5,328.7 L321.5,326.0 L322.5,323.4 L323.6,320.7 L324.4,317.9 L325.3,315.2 L326.0,312.4 L326.5,309.5 L327.2,306.9 L327.5,304.0 L328.0,301.2 L328.4,298.3 L328.9,295.5 L329.2,292.6 L329.7,289.8 L330.3,286.9 L330.9,284.3 L331.6,281.4 L332.5,278.8 L333.2,275.9 L334.2,273.3 L335.2,270.6 L336.3,268.0 L337.5,265.3 L338.7,262.6 L340.0,260.2 L341.4,257.7 L342.8,255.0 L344.3,252.8 L345.8,250.3 L347.4,248.0 L349.1,245.7 L351.0,243.5 L352.7,241.2 L354.6,239.1 L356.6,237.0 L358.7,234.9 L360.7,233.0 L362.8,230.9 L365.0,229.2 L367.3,227.3 L369.5,225.6 L371.9,223.9 L374.3,222.4 L376.7,220.9 L379.1,219.4 L381.6,218.0 L384.2,216.7 L386.8,215.4 L389.4,214.2 L391.9,213.1 L394.7,212.1 L397.4,211.2 L400.1,210.3 L402.9,209.5 L405.6,208.7 L408.4,208.0 L411.3,207.4 L414.0,207.0 L416.9,206.6 L419.7,206.3 L422.6,206.1 L425.3,205.9 L428.2,205.7 L431.2,205.7 L434.1,205.9 L436.8,206.1 L439.7,206.3 L442.6,206.6 L445.4,207.0 L448.3,207.4 L451.0,208.0 L453.8,208.7 L456.5,209.5 L459.4,210.3 L462.0,211.2 L464.7,212.1 L467.5,213.1 L470.0,214.2 L472.6,215.4 L475.2,216.7 L477.8,218.0 L480.3,219.6 L482.7,220.9 L485.1,222.6 L487.5,224.1 L489.7,225.8 L492.0,227.5 L494.2,229.4 L496.4,231.3 L498.5,233.2 L500.5,235.3 L502.6,237.4 L504.5,239.5 L506.4,241.6 L508.2,243.8 L510.0,246.1 L511.7,248.4 L513.2,250.7 L514.8,253.1 L516.3,255.6 L517.7,258.1 L518.9,260.7 L520.2,263.2 L521.4,265.9 L522.5,268.5 L523.5,271.2 L524.5,273.8 L525.4,276.7 L526.2,279.3 L526.9,282.2 L527.6,284.8 L528.1,287.7 L528.6,290.5 L529.1,293.4 L529.5,296.2 L529.7,299.1 L529.8,301.9 L530.0,304.8 L530.0,307.6 L529.8,310.5 L529.8,313.3 L529.5,316.2 L529.3,319.0 L528.8,321.9 L528.5,324.7 L527.9,327.6 L527.4,330.4 L526.7,333.3 L525.9,335.9 L525.2,338.8 L524.2,341.4 L523.3,344.1 L522.3,346.7 L521.1,349.4 L519.9,352.0 L518.7,354.5 L517.3,357.2 L516.0,359.6 L514.6,362.1 L513.0,364.6 L511.5,366.9 L509.8,369.3 L508.1,371.6 L506.2,373.9 L504.5,376.0 L502.6,378.0 L500.5,380.3 L498.7,382.2 L496.6,384.3 L494.4,386.2 L492.3,388.1 L490.1,389.8 L487.9,391.7 L485.5,393.4 L483.1,394.9 L480.7,396.7 L478.3,398.2 L475.9,399.5 L473.3,401.0 L470.7,402.3 L468.2,403.5 L465.6,404.8 L463.0,406.0 L460.3,406.9 L457.7,407.9 L455.0,408.8 L452.2,409.7 L449.5,410.5 L446.7,411.3 L443.8,411.8 L441.1,412.4 L438.2,413.0 L435.4,413.4 L432.5,413.7 L429.8,413.9 L426.9,414.1 L424.0,414.3 L421.0,414.3 L418.8,414.3 L416.4,414.3 L414.0,414.1 L411.6,413.9 L409.2,413.7 L406.8,413.5 L404.4,413.2 L402.0,412.8 L399.8,412.4 L397.4,412.0 L395.0,411.5 L392.8,410.9 L390.4,410.3 L388.2,409.6 L385.9,409.0 L383.7,408.2 L381.3,407.3 L379.1,406.5 L376.9,405.6 L374.8,404.6 L372.6,403.7 L370.3,402.7 L368.3,401.6 L366.2,400.4 L364.2,399.3 L362.1,398.0 L360.1,396.8 L358.0,395.5 L356.1,394.2 L354.1,392.7 L352.2,391.3 L350.3,389.8 L348.4,388.3" fill="none" stroke="#1f77b4" stroke-width="1.7" opacity="0.85"/><circle cx="348" cy="388" r="4.5" fill="#1f77b4"/><text x="28" y="572" font-size="11" fill="#888">ground track — m from pad (N up)</text><rect x="580" y="40" width="540" height="540" fill="#fbfbfb" stroke="#ddd"/><text x="586" y="54" fill="#1f77b4" font-size="11">alt 301</text><text x="586" y="558" fill="#1f77b4" font-size="11">2</text><path d="M616.0,543.5 L616.3,544.0 L616.5,543.9 L616.8,543.6 L617.1,543.2 L617.3,543.1 L617.6,543.6 L617.9,542.9 L618.1,543.1 L618.4,543.2 L618.6,542.6 L618.9,542.2 L619.2,542.7 L619.4,541.8 L619.7,541.9 L620.0,542.2 L620.2,541.4 L620.5,540.7 L620.8,540.4 L621.0,541.2 L621.3,541.0 L621.6,540.6 L621.8,539.6 L622.1,539.9 L622.3,539.0 L622.6,538.9 L622.9,538.3 L623.1,537.0 L623.4,537.9 L623.7,537.8 L623.9,537.5 L624.2,535.2 L624.5,534.8 L624.7,536.0 L625.0,535.4 L625.3,533.2 L625.5,532.5 L625.8,532.7 L626.0,533.6 L626.3,533.4 L626.6,531.7 L626.8,529.9 L627.1,529.5 L627.4,528.1 L627.6,529.4 L627.9,530.3 L628.2,525.7 L628.4,526.5 L628.7,527.3 L629.0,525.1 L629.2,526.2 L629.5,524.5 L629.7,524.1 L630.0,520.5 L630.3,522.9 L630.5,519.5 L630.8,522.6 L631.1,522.1 L631.3,520.3 L631.6,516.5 L631.9,515.3 L632.1,513.1 L632.4,515.0 L632.7,514.1 L632.9,516.5 L633.2,515.0 L633.5,512.6 L633.7,509.8 L634.0,511.0 L634.2,507.3 L634.5,510.6 L634.8,504.9 L635.0,508.5 L635.3,503.9 L635.6,502.3 L635.8,498.0 L636.1,500.4 L636.4,498.9 L636.6,497.2 L636.9,499.0 L637.2,494.1 L637.4,495.2 L637.7,497.1 L637.9,490.0 L638.2,490.7 L638.5,494.2 L638.7,487.8 L639.0,490.7 L639.3,489.5 L639.5,480.3 L639.8,482.4 L640.1,488.9 L640.3,483.6 L640.6,484.1 L640.9,472.5 L641.1,484.4 L641.4,472.6 L641.6,481.3 L641.9,469.9 L642.2,469.2 L642.4,466.6 L642.7,472.3 L643.0,472.2 L643.2,461.0 L643.5,468.6 L643.8,468.1 L644.0,454.3 L644.3,458.0 L644.6,459.0 L644.8,456.2 L645.1,453.9 L645.3,459.5 L645.6,452.2 L645.9,459.8 L646.1,443.0 L646.4,439.5 L646.7,455.8 L646.9,444.5 L647.2,451.3 L647.5,432.4 L647.7,434.2 L648.0,446.0 L648.3,439.6 L648.5,424.3 L648.8,427.5 L649.1,421.9 L649.3,427.8 L649.6,438.3 L649.8,430.4 L650.1,430.2 L650.4,423.5 L650.6,417.3 L650.9,424.6 L651.2,409.6 L651.4,413.2 L651.7,407.1 L652.0,419.7 L652.2,415.0 L652.5,396.0 L652.8,396.3 L653.0,394.1 L653.3,395.5 L653.5,396.9 L653.8,400.9 L654.1,382.8 L654.3,405.9 L654.6,381.8 L654.9,388.8 L655.1,384.8 L655.4,384.1 L655.7,393.0 L655.9,367.6 L656.2,378.1 L656.5,363.9 L656.7,383.5 L657.0,387.9 L657.2,363.5 L657.5,366.8 L657.8,363.6 L658.0,379.2 L658.3,374.0 L658.6,357.8 L658.8,369.2 L659.1,339.9 L659.4,352.2 L659.6,367.1 L659.9,359.9 L660.2,345.0 L660.4,334.4 L660.7,343.6 L660.9,321.0 L661.2,355.2 L661.5,321.9 L661.7,319.9 L662.0,317.0 L662.3,339.8 L662.5,310.9 L662.8,323.6 L663.1,316.2 L663.3,300.8 L663.6,297.9 L663.9,336.3 L664.1,292.7 L664.4,334.8 L664.7,298.0 L664.9,329.6 L665.2,303.2 L665.4,310.3 L665.7,301.1 L666.0,322.6 L666.2,309.6 L666.5,281.4 L666.8,280.3 L667.0,300.1 L667.3,265.6 L667.6,279.1 L667.8,263.6 L668.1,301.4 L668.4,282.8 L668.6,285.8 L668.9,286.9 L669.1,283.5 L669.4,271.3 L669.7,276.0 L669.9,254.2 L670.2,239.5 L670.5,275.6 L670.7,265.7 L671.0,268.3 L671.3,285.5 L671.5,237.4 L671.8,271.2 L672.1,282.9 L672.3,255.5 L672.6,264.0 L672.8,232.0 L673.1,275.4 L673.4,217.5 L673.6,257.1 L673.9,255.7 L674.2,223.0 L674.4,245.6 L674.7,242.4 L675.0,206.2 L675.2,247.9 L675.5,236.7 L675.8,217.6 L676.0,198.4 L676.3,204.0 L676.5,247.3 L676.8,231.2 L677.1,251.3 L677.3,250.4 L677.6,190.3 L677.9,196.8 L678.1,227.3 L678.4,245.0 L678.7,222.7 L678.9,223.0 L679.2,232.8 L679.5,191.0 L679.7,178.2 L680.0,213.8 L680.3,220.2 L680.5,203.9 L680.8,181.8 L681.0,217.9 L681.3,186.5 L681.6,176.2 L681.8,201.1 L682.1,205.4 L682.4,188.1 L682.6,206.6 L682.9,219.6 L683.2,184.0 L683.4,150.5 L683.7,215.7 L684.0,175.3 L684.2,198.9 L684.5,204.7 L684.7,140.2 L685.0,197.9 L685.3,195.6 L685.5,192.8 L685.8,200.3 L686.1,163.9 L686.3,199.4 L686.6,163.3 L686.9,153.4 L687.1,193.0 L687.4,171.9 L687.7,169.2 L687.9,173.9 L688.2,156.2 L688.4,150.7 L688.7,136.5 L689.0,132.2 L689.2,144.8 L689.5,140.0 L689.8,153.3 L690.0,135.4 L690.3,184.2 L690.6,143.4 L690.8,160.9 L691.1,167.3 L691.4,128.2 L691.6,146.0 L691.9,168.5 L692.1,147.9 L692.4,166.9 L692.7,158.9 L692.9,127.6 L693.2,156.3 L693.5,97.6 L693.7,145.4 L694.0,109.8 L694.3,129.7 L694.5,116.6 L694.8,137.7 L695.1,163.1 L695.3,127.8 L695.6,154.5 L695.9,151.9 L696.1,151.9 L696.4,148.2 L696.6,76.0 L696.9,96.8 L697.2,156.8 L697.4,111.9 L697.7,97.1 L698.0,159.5 L698.2,147.4 L698.5,151.8 L698.8,116.6 L699.0,89.4 L699.3,80.9 L699.6,143.1 L699.8,144.6 L700.1,159.4 L700.3,81.5 L700.6,145.3 L700.9,78.5 L701.1,115.9 L701.4,80.0 L701.7,120.2 L701.9,96.1 L702.2,133.5 L702.5,154.2 L702.7,128.3 L703.0,127.9 L703.3,125.0 L703.5,128.0 L703.8,131.1 L704.0,78.9 L704.3,129.0 L704.6,114.1 L704.8,123.9 L705.1,82.7 L705.4,128.9 L705.6,91.0 L705.9,160.3 L706.2,134.0 L706.4,92.5 L706.7,131.1 L707.0,138.6 L707.2,99.0 L707.5,81.9 L707.7,92.4 L708.0,83.8 L708.3,110.6 L708.5,138.8 L708.8,136.6 L709.1,81.3 L709.3,109.8 L709.6,83.2 L709.9,106.2 L710.1,107.9 L710.4,78.7 L710.7,124.2 L710.9,126.5 L711.2,119.5 L711.5,105.1 L711.7,98.5 L712.0,110.4 L712.2,89.3 L712.5,85.1 L712.8,124.4 L713.0,107.9 L713.3,155.0 L713.6,92.8 L713.8,146.2 L714.1,119.6 L714.4,102.6 L714.6,107.0 L714.9,106.5 L715.2,141.8 L715.4,108.8 L715.7,87.3 L715.9,148.8 L716.2,119.5 L716.5,113.8 L716.7,92.2 L717.0,125.5 L717.3,89.8 L717.5,156.9 L717.8,155.8 L718.1,110.0 L718.3,107.7 L718.6,139.4 L718.9,145.4 L719.1,106.7 L719.4,84.2 L719.6,137.9 L719.9,151.9 L720.2,102.8 L720.4,128.3 L720.7,157.0 L721.0,109.1 L721.2,102.3 L721.5,126.6 L721.8,85.8 L722.0,150.2 L722.3,120.0 L722.6,157.7 L722.8,130.7 L723.1,124.3 L723.3,137.9 L723.6,144.4 L723.9,82.3 L724.1,157.9 L724.4,132.2 L724.7,116.7 L724.9,122.0 L725.2,145.6 L725.5,95.4 L725.7,138.5 L726.0,133.2 L726.3,140.4 L726.5,112.1 L726.8,149.3 L727.1,86.1 L727.3,102.7 L727.6,83.5 L727.8,137.5 L728.1,127.0 L728.4,104.2 L728.6,128.7 L728.9,145.2 L729.2,97.9 L729.4,140.3 L729.7,117.4 L730.0,96.5 L730.2,138.1 L730.5,121.0 L730.8,114.6 L731.0,105.5 L731.3,97.6 L731.5,140.2 L731.8,86.2 L732.1,89.2 L732.3,156.8 L732.6,145.0 L732.9,168.5 L733.1,127.4 L733.4,137.8 L733.7,129.1 L733.9,139.7 L734.2,108.3 L734.5,153.7 L734.7,120.5 L735.0,136.1 L735.2,153.2 L735.5,137.5 L735.8,109.9 L736.0,147.3 L736.3,114.2 L736.6,148.1 L736.8,97.5 L737.1,97.0 L737.4,90.4 L737.6,155.1 L737.9,130.6 L738.2,95.2 L738.4,112.9 L738.7,129.5 L738.9,109.6 L739.2,87.8 L739.5,157.3 L739.7,116.7 L740.0,101.3 L740.3,127.9 L740.5,100.3 L740.8,126.4 L741.1,121.5 L741.3,97.8 L741.6,118.6 L741.9,96.8 L742.1,107.4 L742.4,96.9 L742.7,135.1 L742.9,105.3 L743.2,168.4 L743.4,145.5 L743.7,142.2 L744.0,105.7 L744.2,157.0 L744.5,153.1 L744.8,132.1 L745.0,98.9 L745.3,122.5 L745.6,118.3 L745.8,169.1 L746.1,171.2 L746.4,140.3 L746.6,97.0 L746.9,101.2 L747.1,158.1 L747.4,146.7 L747.7,99.9 L747.9,117.2 L748.2,131.0 L748.5,164.2 L748.7,147.1 L749.0,122.5 L749.3,157.9 L749.5,114.6 L749.8,101.0 L750.1,136.6 L750.3,105.9 L750.6,102.2 L750.8,132.4 L751.1,161.5 L751.4,136.1 L751.6,151.9 L751.9,137.4 L752.2,114.2 L752.4,116.1 L752.7,110.3 L753.0,108.4 L753.2,136.0 L753.5,109.1 L753.8,126.0 L754.0,97.2 L754.3,117.9 L754.5,145.9 L754.8,167.7 L755.1,142.9 L755.3,125.2 L755.6,152.0 L755.9,149.8 L756.1,119.7 L756.4,103.4 L756.7,174.0 L756.9,167.0 L757.2,161.1 L757.5,145.3 L757.7,176.4 L758.0,169.6 L758.3,127.2 L758.5,138.8 L758.8,120.3 L759.0,135.4 L759.3,111.6 L759.6,121.2 L759.8,158.4 L760.1,108.9 L760.4,154.4 L760.6,116.2 L760.9,127.8 L761.2,125.0 L761.4,123.7 L761.7,181.4 L762.0,178.9 L762.2,140.1 L762.5,147.9 L762.7,139.5 L763.0,139.3 L763.3,172.7 L763.5,166.1 L763.8,117.2 L764.1,158.6 L764.3,134.0 L764.6,117.5 L764.9,115.6 L765.1,172.8 L765.4,154.4 L765.7,129.3 L765.9,127.1 L766.2,158.9 L766.4,182.9 L766.7,173.5 L767.0,124.5 L767.2,114.0 L767.5,130.9 L767.8,157.0 L768.0,161.1 L768.3,118.4 L768.6,172.3 L768.8,119.0 L769.1,177.5 L769.4,165.1 L769.6,113.5 L769.9,158.8 L770.1,185.9 L770.4,165.2 L770.7,148.7 L770.9,138.7 L771.2,152.3 L771.5,147.9 L771.7,163.9 L772.0,156.0 L772.3,164.7 L772.5,152.9 L772.8,117.7 L773.1,189.1 L773.3,111.9 L773.6,163.5 L773.9,117.6 L774.1,133.3 L774.4,116.5 L774.6,127.7 L774.9,167.0 L775.2,172.2 L775.4,126.3 L775.7,123.6 L776.0,186.5 L776.2,185.6 L776.5,161.4 L776.8,181.7 L777.0,182.2 L777.3,126.5 L777.6,117.5 L777.8,190.2 L778.1,124.9 L778.3,193.0 L778.6,189.6 L778.9,159.2 L779.1,153.3 L779.4,191.2 L779.7,162.7 L779.9,124.1 L780.2,180.0 L780.5,122.8 L780.7,144.6 L781.0,133.0 L781.3,181.5 L781.5,180.3 L781.8,124.3 L782.0,131.8 L782.3,124.1 L782.6,140.5 L782.8,130.1 L783.1,183.0 L783.4,157.5 L783.6,155.7 L783.9,137.5 L784.2,128.2 L784.4,132.0 L784.7,164.4 L785.0,168.8 L785.2,127.1 L785.5,174.0 L785.7,144.1 L786.0,123.5 L786.3,160.8 L786.5,165.9 L786.8,122.0 L787.1,151.7 L787.3,191.3 L787.6,128.8 L787.9,125.0 L788.1,188.2 L788.4,168.5 L788.7,183.8 L788.9,148.5 L789.2,136.1 L789.5,193.9 L789.7,136.8 L790.0,125.9 L790.2,125.1 L790.5,187.7 L790.8,179.7 L791.0,158.2 L791.3,169.9 L791.6,158.7 L791.8,199.5 L792.1,167.4 L792.4,158.5 L792.6,138.7 L792.9,155.7 L793.2,172.8 L793.4,137.8 L793.7,200.4 L793.9,192.2 L794.2,188.7 L794.5,181.9 L794.7,174.8 L795.0,173.7 L795.3,174.3 L795.5,138.3 L795.8,176.4 L796.1,176.1 L796.3,138.6 L796.6,145.7 L796.9,205.5 L797.1,138.5 L797.4,140.0 L797.6,142.2 L797.9,136.2 L798.2,144.5 L798.4,196.6 L798.7,167.2 L799.0,204.6 L799.2,174.7 L799.5,143.6 L799.8,166.2 L800.0,171.1 L800.3,187.6 L800.6,191.6 L800.8,179.5 L801.1,162.8 L801.3,188.1 L801.6,198.6 L801.9,194.4 L802.1,201.5 L802.4,143.6 L802.7,172.3 L802.9,198.5 L803.2,188.9 L803.5,138.9 L803.7,210.9 L804.0,142.4 L804.3,201.7 L804.5,188.7 L804.8,183.9 L805.1,138.0 L805.3,207.4 L805.6,169.8 L805.8,198.5 L806.1,206.8 L806.4,164.0 L806.6,171.0 L806.9,142.9 L807.2,184.2 L807.4,188.6 L807.7,147.2 L808.0,151.2 L808.2,162.0 L808.5,175.7 L808.8,160.3 L809.0,157.5 L809.3,206.4 L809.5,173.5 L809.8,190.4 L810.1,169.7 L810.3,152.6 L810.6,172.8 L810.9,206.2 L811.1,176.9 L811.4,175.4 L811.7,180.6 L811.9,176.3 L812.2,173.2 L812.5,194.5 L812.7,174.0 L813.0,206.5 L813.2,149.2 L813.5,218.7 L813.8,200.1 L814.0,158.1 L814.3,204.2 L814.6,211.4 L814.8,195.4 L815.1,183.9 L815.4,151.9 L815.6,170.4 L815.9,155.5 L816.2,215.0 L816.4,175.3 L816.7,171.9 L816.9,155.2 L817.2,183.3 L817.5,208.6 L817.7,183.6 L818.0,176.4 L818.3,201.6 L818.5,160.5 L818.8,212.2 L819.1,213.3 L819.3,192.6 L819.6,204.8 L819.9,211.4 L820.1,202.1 L820.4,222.9 L820.7,158.0 L820.9,176.6 L821.2,185.3 L821.4,206.4 L821.7,215.1 L822.0,189.7 L822.2,195.0 L822.5,212.2 L822.8,207.8 L823.0,211.5 L823.3,202.8 L823.6,195.3 L823.8,214.3 L824.1,169.8 L824.4,226.9 L824.6,158.6 L824.9,228.0 L825.1,209.3 L825.4,171.8 L825.7,210.0 L825.9,203.6 L826.2,221.8 L826.5,173.1 L826.7,224.7 L827.0,163.1 L827.3,191.5 L827.5,228.7 L827.8,200.5 L828.1,167.0 L828.3,167.8 L828.6,184.8 L828.8,230.5 L829.1,204.1 L829.4,228.6 L829.6,188.1 L829.9,174.4 L830.2,228.8 L830.4,191.1 L830.7,185.7 L831.0,234.1 L831.2,175.4 L831.5,181.9 L831.8,181.4 L832.0,229.8 L832.3,196.6 L832.5,224.1 L832.8,198.1 L833.1,192.1 L833.3,234.9 L833.6,174.6 L833.9,175.6 L834.1,233.5 L834.4,184.2 L834.7,181.2 L834.9,176.4 L835.2,221.4 L835.5,190.8 L835.7,238.8 L836.0,236.4 L836.3,202.4 L836.5,185.5 L836.8,209.9 L837.0,210.5 L837.3,190.0 L837.6,216.4 L837.8,188.0 L838.1,181.5 L838.4,225.2 L838.6,206.3 L838.9,223.4 L839.2,198.4 L839.4,198.8 L839.7,183.4 L840.0,197.9 L840.2,243.3 L840.5,181.1 L840.7,238.5 L841.0,215.8 L841.3,212.0 L841.5,183.9 L841.8,234.4 L842.1,231.0 L842.3,239.4 L842.6,224.9 L842.9,218.2 L843.1,188.4 L843.4,218.2 L843.7,228.9 L843.9,242.4 L844.2,210.9 L844.4,200.5 L844.7,232.4 L845.0,197.9 L845.2,214.5 L845.5,221.0 L845.8,183.5 L846.0,226.0 L846.3,236.1 L846.6,199.7 L846.8,249.5 L847.1,215.5 L847.4,221.3 L847.6,235.0 L847.9,246.9 L848.1,250.0 L848.4,239.9 L848.7,217.9 L848.9,244.9 L849.2,232.1 L849.5,192.9 L849.7,199.0 L850.0,227.8 L850.3,188.1 L850.5,197.9 L850.8,190.1 L851.1,229.8 L851.3,190.6 L851.6,236.1 L851.9,208.3 L852.1,211.8 L852.4,239.8 L852.6,221.1 L852.9,232.8 L853.2,199.7 L853.4,223.7 L853.7,194.6 L854.0,194.5 L854.2,207.2 L854.5,247.0 L854.8,248.3 L855.0,222.2 L855.3,251.8 L855.6,234.9 L855.8,212.9 L856.1,254.6 L856.3,242.6 L856.6,253.8 L856.9,198.3 L857.1,229.3 L857.4,230.0 L857.7,245.6 L857.9,210.7 L858.2,199.5 L858.5,228.4 L858.7,240.9 L859.0,247.0 L859.3,256.3 L859.5,224.0 L859.8,223.1 L860.0,206.0 L860.3,213.4 L860.6,259.9 L860.8,226.5 L861.1,217.7 L861.4,217.1 L861.6,240.6 L861.9,204.0 L862.2,210.7 L862.4,210.9 L862.7,242.6 L863.0,257.7 L863.2,262.9 L863.5,209.0 L863.7,215.1 L864.0,242.5 L864.3,206.8 L864.5,210.3 L864.8,206.4 L865.1,221.7 L865.3,252.4 L865.6,221.5 L865.9,229.1 L866.1,215.6 L866.4,261.6 L866.7,224.7 L866.9,225.6 L867.2,236.9 L867.5,254.1 L867.7,229.5 L868.0,254.5 L868.2,246.2 L868.5,220.6 L868.8,271.3 L869.0,248.9 L869.3,230.5 L869.6,237.9 L869.8,223.7 L870.1,269.4 L870.4,241.6 L870.6,229.4 L870.9,230.1 L871.2,274.4 L871.4,223.5 L871.7,231.7 L871.9,242.9 L872.2,272.3 L872.5,249.2 L872.7,254.9 L873.0,252.4 L873.3,268.4 L873.5,260.7 L873.8,252.1 L874.1,250.0 L874.3,264.5 L874.6,260.8 L874.9,277.8 L875.1,257.5 L875.4,257.0 L875.6,236.8 L875.9,264.4 L876.2,233.0 L876.4,241.6 L876.7,249.4 L877.0,249.3 L877.2,273.1 L877.5,252.4 L877.8,254.2 L878.0,251.7 L878.3,232.7 L878.6,230.4 L878.8,232.2 L879.1,233.1 L879.3,232.3 L879.6,266.1 L879.9,262.4 L880.1,232.5 L880.4,226.0 L880.7,240.8 L880.9,245.2 L881.2,246.2 L881.5,257.2 L881.7,273.4 L882.0,269.0 L882.3,243.6 L882.5,250.3 L882.8,241.3 L883.1,251.3 L883.3,254.3 L883.6,238.4 L883.8,237.7 L884.1,252.9 L884.4,253.1 L884.6,262.3 L884.9,275.4 L885.2,245.0 L885.4,260.9 L885.7,270.8 L886.0,269.3 L886.2,243.4 L886.5,277.6 L886.8,273.8 L887.0,274.4 L887.3,249.2 L887.5,289.9 L887.8,282.8 L888.1,265.2 L888.3,259.7 L888.6,261.0 L888.9,291.9 L889.1,291.6 L889.4,268.8 L889.7,257.0 L889.9,279.6 L890.2,294.7 L890.5,272.2 L890.7,283.9 L891.0,293.2 L891.2,287.6 L891.5,285.4 L891.8,287.0 L892.0,269.4 L892.3,244.3 L892.6,248.5 L892.8,251.5 L893.1,298.2 L893.4,262.6 L893.6,280.1 L893.9,270.3 L894.2,289.7 L894.4,285.0 L894.7,294.7 L894.9,255.5 L895.2,276.0 L895.5,279.4 L895.7,253.0 L896.0,296.7 L896.3,265.0 L896.5,301.2 L896.8,274.1 L897.1,280.4 L897.3,303.1 L897.6,267.5 L897.9,263.1 L898.1,300.2 L898.4,262.4 L898.7,283.0 L898.9,270.6 L899.2,261.6 L899.4,284.5 L899.7,264.8 L900.0,275.1 L900.2,306.5 L900.5,266.2 L900.8,304.0 L901.0,305.5 L901.3,270.8 L901.6,276.8 L901.8,267.8 L902.1,272.6 L902.4,297.6 L902.6,298.9 L902.9,276.4 L903.1,267.8 L903.4,258.4 L903.7,309.6 L903.9,292.8 L904.2,281.6 L904.5,310.4 L904.7,283.7 L905.0,263.7 L905.3,291.9 L905.5,296.1 L905.8,296.6 L906.1,268.1 L906.3,271.8 L906.6,300.4 L906.8,301.6 L907.1,291.7 L907.4,301.2 L907.6,269.5 L907.9,270.0 L908.2,276.1 L908.4,269.3 L908.7,266.4 L909.0,272.3 L909.2,295.4 L909.5,279.5 L909.8,299.7 L910.0,270.6 L910.3,303.9 L910.5,283.6 L910.8,285.3 L911.1,271.6 L911.3,317.7 L911.6,280.4 L911.9,288.1 L912.1,308.4 L912.4,282.3 L912.7,291.3 L912.9,307.7 L913.2,304.6 L913.5,292.7 L913.7,295.5 L914.0,298.5 L914.3,289.1 L914.5,287.1 L914.8,276.2 L915.0,274.9 L915.3,286.6 L915.6,292.9 L915.8,290.6 L916.1,297.1 L916.4,278.1 L916.6,300.6 L916.9,320.1 L917.2,309.3 L917.4,282.2 L917.7,289.3 L918.0,304.6 L918.2,304.2 L918.5,286.7 L918.7,316.2 L919.0,286.9 L919.3,310.0 L919.5,324.3 L919.8,299.0 L920.1,326.0 L920.3,294.0 L920.6,319.2 L920.9,314.0 L921.1,326.2 L921.4,306.6 L921.7,290.4 L921.9,297.6 L922.2,297.8 L922.4,329.4 L922.7,327.0 L923.0,327.5 L923.2,319.9 L923.5,323.5 L923.8,297.4 L924.0,298.4 L924.3,315.5 L924.6,325.4 L924.8,306.1 L925.1,295.7 L925.4,324.5 L925.6,304.0 L925.9,325.8 L926.1,304.2 L926.4,325.9 L926.7,333.3 L926.9,318.3 L927.2,326.3 L927.5,320.2 L927.7,302.9 L928.0,312.6 L928.3,332.6 L928.5,316.7 L928.8,323.1 L929.1,338.7 L929.3,310.0 L929.6,310.0 L929.9,328.4 L930.1,305.6 L930.4,319.6 L930.6,300.0 L930.9,301.1 L931.2,309.9 L931.4,328.9 L931.7,303.5 L932.0,327.0 L932.2,305.3 L932.5,308.3 L932.8,313.6 L933.0,319.6 L933.3,320.9 L933.6,326.4 L933.8,321.1 L934.1,330.5 L934.3,320.6 L934.6,337.0 L934.9,335.7 L935.1,309.4 L935.4,310.0 L935.7,309.4 L935.9,339.6 L936.2,323.9 L936.5,342.8 L936.7,328.5 L937.0,324.4 L937.3,331.8 L937.5,313.3 L937.8,350.5 L938.0,332.4 L938.3,334.0 L938.6,335.0 L938.8,323.0 L939.1,340.4 L939.4,324.3 L939.6,325.6 L939.9,324.9 L940.2,317.3 L940.4,328.2 L940.7,339.4 L941.0,340.3 L941.2,312.7 L941.5,353.7 L941.7,326.0 L942.0,315.5 L942.3,323.5 L942.5,315.7 L942.8,322.0 L943.1,327.0 L943.3,339.9 L943.6,350.9 L943.9,325.7 L944.1,345.3 L944.4,327.0 L944.7,342.4 L944.9,355.9 L945.2,344.8 L945.5,350.5 L945.7,341.2 L946.0,338.4 L946.2,345.6 L946.5,334.5 L946.8,355.6 L947.0,328.9 L947.3,321.9 L947.6,353.0 L947.8,356.3 L948.1,347.5 L948.4,346.2 L948.6,332.5 L948.9,345.8 L949.2,337.4 L949.4,360.1 L949.7,332.3 L949.9,341.4 L950.2,363.3 L950.5,332.9 L950.7,350.3 L951.0,327.9 L951.3,351.5 L951.5,343.8 L951.8,359.1 L952.1,350.1 L952.3,345.5 L952.6,342.8 L952.9,352.6 L953.1,366.0 L953.4,354.6 L953.6,341.6 L953.9,367.1 L954.2,370.6 L954.4,336.3 L954.7,363.7 L955.0,341.4 L955.2,346.5 L955.5,349.7 L955.8,358.9 L956.0,360.4 L956.3,345.3 L956.6,339.5 L956.8,371.1 L957.1,340.5 L957.3,364.2 L957.6,347.2 L957.9,349.4 L958.1,363.2 L958.4,338.5 L958.7,353.2 L958.9,369.4 L959.2,362.6 L959.5,370.6 L959.7,349.6 L960.0,366.2 L960.3,365.6 L960.5,348.2 L960.8,342.9 L961.1,366.8 L961.3,366.2 L961.6,371.8 L961.8,345.1 L962.1,380.5 L962.4,355.5 L962.6,345.7 L962.9,353.2 L963.2,380.6 L963.4,348.8 L963.7,378.4 L964.0,355.5 L964.2,366.2 L964.5,377.2 L964.8,356.3 L965.0,361.4 L965.3,376.3 L965.5,374.0 L965.8,382.3 L966.1,384.8 L966.3,356.6 L966.6,363.2 L966.9,375.9 L967.1,374.3 L967.4,360.0 L967.7,359.1 L967.9,358.1 L968.2,353.7 L968.5,371.7 L968.7,386.5 L969.0,361.5 L969.2,386.9 L969.5,363.6 L969.8,367.6 L970.0,386.6 L970.3,381.2 L970.6,376.1 L970.8,362.2 L971.1,361.4 L971.4,379.8 L971.6,374.5 L971.9,392.0 L972.2,390.8 L972.4,377.8 L972.7,390.2 L972.9,391.9 L973.2,373.1 L973.5,363.7 L973.7,364.8 L974.0,363.2 L974.3,378.0 L974.5,390.3 L974.8,394.9 L975.1,387.9 L975.3,367.8 L975.6,372.1 L975.9,375.9 L976.1,373.6 L976.4,383.4 L976.7,367.0 L976.9,372.2 L977.2,367.9 L977.4,387.6 L977.7,369.5 L978.0,377.6 L978.2,394.0 L978.5,396.1 L978.8,376.0 L979.0,396.1 L979.3,392.3 L979.6,388.5 L979.8,401.2 L980.1,374.2 L980.4,381.7 L980.6,376.9 L980.9,393.7 L981.1,394.6 L981.4,390.4 L981.7,378.7 L981.9,402.7 L982.2,399.5 L982.5,392.5 L982.7,406.0 L983.0,376.9 L983.3,379.9 L983.5,399.3 L983.8,393.3 L984.1,382.1 L984.3,384.5 L984.6,405.7 L984.8,396.1 L985.1,396.3 L985.4,408.3 L985.6,381.8 L985.9,409.6 L986.2,404.5 L986.4,391.9 L986.7,397.5 L987.0,393.3 L987.2,395.7 L987.5,398.4 L987.8,410.1 L988.0,406.2 L988.3,398.2 L988.5,415.2 L988.8,387.4 L989.1,405.9 L989.3,405.7 L989.6,389.2 L989.9,410.8 L990.1,406.9 L990.4,390.9 L990.7,417.2 L990.9,394.5 L991.2,406.8 L991.5,413.8 L991.7,396.7 L992.0,402.0 L992.3,397.5 L992.5,404.9 L992.8,415.2 L993.0,418.7 L993.3,410.4 L993.6,402.3 L993.8,413.7 L994.1,394.7 L994.4,403.9 L994.6,417.7 L994.9,398.5 L995.2,399.3 L995.4,400.1 L995.7,402.2 L996.0,422.0 L996.2,411.5 L996.5,406.9 L996.7,416.4 L997.0,402.3 L997.3,423.1 L997.5,405.2 L997.8,408.9 L998.1,427.7 L998.3,405.5 L998.6,419.1 L998.9,425.0 L999.1,425.1 L999.4,424.7 L999.7,413.1 L999.9,415.4 L1000.2,425.0 L1000.4,405.3 L1000.7,414.8 L1001.0,424.5 L1001.2,421.0 L1001.5,408.1 L1001.8,421.8 L1002.0,427.5 L1002.3,429.9 L1002.6,408.9 L1002.8,411.4 L1003.1,414.9 L1003.4,425.8 L1003.6,431.0 L1003.9,425.1 L1004.1,419.2 L1004.4,414.8 L1004.7,427.4 L1004.9,429.0 L1005.2,414.9 L1005.5,414.0 L1005.7,417.5 L1006.0,416.1 L1006.3,423.9 L1006.5,415.0 L1006.8,434.9 L1007.1,429.4 L1007.3,429.2 L1007.6,428.3 L1007.9,434.9 L1008.1,440.5 L1008.4,420.9 L1008.6,432.4 L1008.9,430.0 L1009.2,430.2 L1009.4,430.0 L1009.7,427.3 L1010.0,437.5 L1010.2,421.3 L1010.5,423.8 L1010.8,433.6 L1011.0,427.6 L1011.3,445.2 L1011.6,425.4 L1011.8,438.3 L1012.1,445.9 L1012.3,442.3 L1012.6,426.3 L1012.9,430.7 L1013.1,440.3 L1013.4,447.5 L1013.7,432.1 L1013.9,428.2 L1014.2,428.0 L1014.5,447.9 L1014.7,444.5 L1015.0,446.9 L1015.3,449.7 L1015.5,450.6 L1015.8,431.2 L1016.0,450.1 L1016.3,443.6 L1016.6,432.5 L1016.8,447.6 L1017.1,445.0 L1017.4,451.5 L1017.6,453.3 L1017.9,446.1 L1018.2,452.0 L1018.4,451.1 L1018.7,439.4 L1019.0,451.0 L1019.2,440.0 L1019.5,439.5 L1019.7,442.9 L1020.0,450.2 L1020.3,447.5 L1020.5,455.5 L1020.8,444.2 L1021.1,456.5 L1021.3,450.1 L1021.6,439.3 L1021.9,452.7 L1022.1,442.7 L1022.4,446.1 L1022.7,442.3 L1022.9,443.1 L1023.2,454.8 L1023.5,456.8 L1023.7,451.6 L1024.0,451.6 L1024.2,454.9 L1024.5,445.2 L1024.8,459.4 L1025.0,445.3 L1025.3,460.0 L1025.6,452.1 L1025.8,462.1 L1026.1,456.9 L1026.4,449.1 L1026.6,454.0 L1026.9,460.4 L1027.2,457.3 L1027.4,465.8 L1027.7,465.9 L1027.9,453.6 L1028.2,464.2 L1028.5,453.8 L1028.7,464.8 L1029.0,465.0 L1029.3,460.5 L1029.5,468.3 L1029.8,455.8 L1030.1,459.5 L1030.3,470.6 L1030.6,462.0 L1030.9,461.9 L1031.1,462.3 L1031.4,470.5 L1031.6,460.1 L1031.9,463.7 L1032.2,466.5 L1032.4,459.6 L1032.7,471.6 L1033.0,459.3 L1033.2,466.4 L1033.5,472.1 L1033.8,474.0 L1034.0,461.5 L1034.3,462.3 L1034.6,471.3 L1034.8,463.3 L1035.1,472.2 L1035.3,465.7 L1035.6,467.5 L1035.9,475.8 L1036.1,478.1 L1036.4,467.3 L1036.7,468.1 L1036.9,471.2 L1037.2,472.9 L1037.5,467.4 L1037.7,467.0 L1038.0,480.1 L1038.3,476.6 L1038.5,470.6 L1038.8,473.3 L1039.1,480.6 L1039.3,471.4 L1039.6,480.7 L1039.8,475.6 L1040.1,470.6 L1040.4,470.5 L1040.6,484.4 L1040.9,472.1 L1041.2,484.8 L1041.4,485.1 L1041.7,472.2 L1042.0,472.9 L1042.2,475.2 L1042.5,479.5 L1042.8,478.0 L1043.0,484.0 L1043.3,484.4 L1043.5,475.6 L1043.8,478.2 L1044.1,480.2 L1044.3,485.6 L1044.6,485.7 L1044.9,489.5 L1045.1,488.5 L1045.4,480.5 L1045.7,483.7 L1045.9,490.7 L1046.2,485.5 L1046.5,485.2 L1046.7,482.5 L1047.0,490.2 L1047.2,493.4 L1047.5,486.1 L1047.8,492.9 L1048.0,488.3 L1048.3,488.2 L1048.6,491.8 L1048.8,492.8 L1049.1,490.9 L1049.4,485.0 L1049.6,494.1 L1049.9,494.7 L1050.2,487.4 L1050.4,496.4 L1050.7,488.2 L1050.9,495.1 L1051.2,488.8 L1051.5,489.1 L1051.7,490.6 L1052.0,499.0 L1052.3,492.9 L1052.5,492.0 L1052.8,494.3 L1053.1,496.6 L1053.3,501.2 L1053.6,497.6 L1053.9,493.7 L1054.1,501.5 L1054.4,501.9 L1054.7,498.1 L1054.9,496.8 L1055.2,501.6 L1055.4,501.7 L1055.7,503.5 L1056.0,501.7 L1056.2,496.7 L1056.5,501.1 L1056.8,503.7 L1057.0,502.6 L1057.3,498.5 L1057.6,504.8 L1057.8,506.0 L1058.1,506.3 L1058.4,508.1 L1058.6,506.5 L1058.9,503.2 L1059.1,506.2 L1059.4,504.7 L1059.7,509.8 L1059.9,504.8 L1060.2,509.2 L1060.5,511.1 L1060.7,504.7 L1061.0,504.5 L1061.3,511.9 L1061.5,505.8 L1061.8,507.6 L1062.1,512.3 L1062.3,509.0 L1062.6,507.1 L1062.8,512.0 L1063.1,514.8 L1063.4,508.6 L1063.6,514.6 L1063.9,514.4 L1064.2,510.2 L1064.4,513.9 L1064.7,515.9 L1065.0,515.9 L1065.2,517.6 L1065.5,512.6 L1065.8,513.2 L1066.0,516.3 L1066.3,516.3 L1066.5,518.7 L1066.8,519.6 L1067.1,514.7 L1067.3,516.6 L1067.6,520.7 L1067.9,518.7 L1068.1,521.1 L1068.4,520.2 L1068.7,518.6 L1068.9,521.4 L1069.2,519.3 L1069.5,521.2 L1069.7,523.9 L1070.0,521.6 L1070.3,524.5 L1070.5,520.4 L1070.8,522.3 L1071.0,525.9 L1071.3,525.9 L1071.6,522.5 L1071.8,527.0 L1072.1,524.9 L1072.4,524.6 L1072.6,527.5 L1072.9,527.5 L1073.2,527.7 L1073.4,525.1 L1073.7,528.5 L1074.0,528.6 L1074.2,530.4 L1074.5,530.5 L1074.7,530.3 L1075.0,527.9 L1075.3,530.3 L1075.5,529.8 L1075.8,530.1 L1076.1,531.5 L1076.3,530.9 L1076.6,533.3 L1076.9,533.2 L1077.1,533.9 L1077.4,532.6 L1077.7,532.3 L1077.9,534.5 L1078.2,533.3 L1078.4,536.2 L1078.7,536.3 L1079.0,536.9 L1079.2,536.6 L1079.5,535.9 L1079.8,537.2 L1080.0,538.4 L1080.3,538.6 L1080.6,538.9 L1080.8,538.4 L1081.1,539.0 L1081.4,540.0 L1081.6,539.7 L1081.9,540.7 L1082.1,540.7 L1082.4,540.4 L1082.7,541.1 L1082.9,541.6 L1083.2,542.0 L1083.5,542.2 L1083.7,542.8 L1084.0,543.0" fill="none" stroke="#1f77b4" stroke-width="1.4" opacity="0.85"/><text x="1040" y="54" fill="#ff7f0e" font-size="11">roll 18</text><text x="1090" y="558" fill="#ff7f0e" font-size="11">-18</text><path d="M616.0,314.6 L616.3,314.6 L616.5,313.3 L616.8,313.3 L617.1,312.0 L617.3,312.0 L617.6,313.3 L617.9,312.0 L618.1,314.6 L618.4,313.3 L618.6,313.3 L618.9,312.0 L619.2,314.6 L619.4,313.3 L619.7,313.3 L620.0,313.3 L620.2,314.6 L620.5,312.0 L620.8,312.0 L621.0,312.0 L621.3,312.0 L621.6,313.3 L621.8,312.0 L622.1,313.3 L622.3,313.3 L622.6,313.3 L622.9,313.3 L623.1,313.3 L623.4,314.6 L623.7,312.0 L623.9,313.3 L624.2,314.6 L624.5,314.6 L624.7,314.6 L625.0,314.6 L625.3,314.6 L625.5,313.3 L625.8,312.0 L626.0,314.6 L626.3,313.3 L626.6,314.6 L626.8,313.3 L627.1,313.3 L627.4,313.3 L627.6,313.3 L627.9,313.3 L628.2,313.3 L628.4,312.0 L628.7,312.0 L629.0,312.0 L629.2,314.6 L629.5,313.3 L629.7,313.3 L630.0,312.0 L630.3,313.3 L630.5,314.6 L630.8,314.6 L631.1,314.6 L631.3,314.6 L631.6,313.3 L631.9,313.3 L632.1,312.0 L632.4,314.6 L632.7,314.6 L632.9,314.6 L633.2,312.0 L633.5,314.6 L633.7,313.3 L634.0,314.6 L634.2,313.3 L634.5,314.6 L634.8,313.3 L635.0,313.3 L635.3,312.0 L635.6,312.0 L635.8,312.0 L636.1,314.6 L636.4,312.0 L636.6,314.6 L636.9,314.6 L637.2,313.3 L637.4,313.3 L637.7,314.6 L637.9,313.3 L638.2,313.3 L638.5,314.6 L638.7,313.3 L639.0,314.6 L639.3,313.3 L639.5,313.3 L639.8,313.3 L640.1,313.3 L640.3,312.0 L640.6,313.3 L640.9,314.6 L641.1,313.3 L641.4,312.0 L641.6,312.0 L641.9,312.0 L642.2,313.3 L642.4,313.3 L642.7,312.0 L643.0,313.3 L643.2,313.3 L643.5,313.3 L643.8,313.3 L644.0,313.3 L644.3,313.3 L644.6,314.6 L644.8,312.0 L645.1,313.3 L645.3,314.6 L645.6,313.3 L645.9,313.3 L646.1,314.6 L646.4,312.0 L646.7,314.6 L646.9,312.0 L647.2,312.0 L647.5,314.6 L647.7,314.6 L648.0,312.0 L648.3,313.3 L648.5,313.3 L648.8,313.3 L649.1,313.3 L649.3,312.0 L649.6,314.6 L649.8,312.0 L650.1,314.6 L650.4,312.0 L650.6,312.0 L650.9,313.3 L651.2,313.3 L651.4,312.0 L651.7,313.3 L652.0,313.3 L652.2,313.3 L652.5,313.3 L652.8,314.6 L653.0,313.3 L653.3,313.3 L653.5,312.0 L653.8,313.3 L654.1,312.0 L654.3,312.0 L654.6,312.0 L654.9,313.3 L655.1,313.3 L655.4,313.3 L655.7,312.0 L655.9,313.3 L656.2,314.6 L656.5,313.3 L656.7,313.3 L657.0,312.0 L657.2,313.3 L657.5,313.3 L657.8,312.0 L658.0,313.3 L658.3,314.6 L658.6,314.6 L658.8,312.0 L659.1,312.0 L659.4,313.3 L659.6,312.0 L659.9,312.0 L660.2,312.0 L660.4,312.0 L660.7,314.6 L660.9,314.6 L661.2,312.0 L661.5,314.6 L661.7,313.3 L662.0,313.3 L662.3,314.6 L662.5,313.3 L662.8,313.3 L663.1,313.3 L663.3,312.0 L663.6,314.6 L663.9,314.6 L664.1,312.0 L664.4,313.3 L664.7,314.6 L664.9,313.3 L665.2,313.3 L665.4,312.0 L665.7,313.3 L666.0,314.6 L666.2,313.3 L666.5,313.3 L666.8,314.6 L667.0,312.0 L667.3,312.0 L667.6,313.3 L667.8,312.0 L668.1,312.0 L668.4,314.6 L668.6,314.6 L668.9,313.3 L669.1,312.0 L669.4,314.6 L669.7,313.3 L669.9,312.0 L670.2,312.0 L670.5,312.0 L670.7,313.3 L671.0,313.3 L671.3,314.6 L671.5,313.3 L671.8,313.3 L672.1,314.6 L672.3,314.6 L672.6,314.6 L672.8,313.3 L673.1,313.3 L673.4,314.6 L673.6,314.6 L673.9,313.3 L674.2,313.3 L674.4,313.3 L674.7,313.3 L675.0,314.6 L675.2,313.3 L675.5,314.6 L675.8,314.6 L676.0,313.3 L676.3,314.6 L676.5,313.3 L676.8,314.6 L677.1,314.6 L677.3,314.6 L677.6,312.0 L677.9,313.3 L678.1,314.6 L678.4,313.3 L678.7,314.6 L678.9,312.0 L679.2,313.3 L679.5,313.3 L679.7,313.3 L680.0,313.3 L680.3,313.3 L680.5,313.3 L680.8,314.6 L681.0,312.0 L681.3,313.3 L681.6,313.3 L681.8,313.3 L682.1,313.3 L682.4,313.3 L682.6,313.3 L682.9,313.3 L683.2,313.3 L683.4,312.0 L683.7,313.3 L684.0,313.3 L684.2,314.6 L684.5,312.0 L684.7,314.6 L685.0,312.0 L685.3,313.3 L685.5,314.6 L685.8,312.0 L686.1,312.0 L686.3,313.3 L686.6,314.6 L686.9,312.0 L687.1,313.3 L687.4,314.6 L687.7,313.3 L687.9,312.0 L688.2,312.0 L688.4,313.3 L688.7,313.3 L689.0,313.3 L689.2,313.3 L689.5,312.0 L689.8,313.3 L690.0,312.0 L690.3,312.0 L690.6,313.3 L690.8,313.3 L691.1,312.0 L691.4,312.0 L691.6,312.0 L691.9,312.0 L692.1,314.6 L692.4,313.3 L692.7,313.3 L692.9,312.0 L693.2,312.0 L693.5,313.3 L693.7,314.6 L694.0,313.3 L694.3,313.3 L694.5,314.6 L694.8,313.3 L695.1,312.0 L695.3,313.3 L695.6,312.0 L695.9,313.3 L696.1,313.3 L696.4,314.6 L696.6,312.0 L696.9,313.3 L697.2,306.7 L697.4,291.1 L697.7,284.6 L698.0,275.5 L698.2,258.5 L698.5,255.9 L698.8,235.0 L699.0,231.1 L699.3,214.2 L699.6,216.8 L699.8,216.8 L700.1,199.8 L700.3,201.1 L700.6,189.4 L700.9,175.1 L701.1,169.9 L701.4,162.0 L701.7,168.6 L701.9,150.3 L702.2,168.6 L702.5,169.9 L702.7,154.2 L703.0,162.0 L703.3,158.1 L703.5,126.8 L703.8,147.7 L704.0,151.6 L704.3,117.7 L704.6,147.7 L704.8,116.4 L705.1,128.1 L705.4,146.4 L705.6,128.1 L705.9,136.0 L706.2,137.3 L706.4,137.3 L706.7,111.2 L707.0,142.5 L707.2,96.9 L707.5,130.8 L707.7,111.2 L708.0,133.4 L708.3,121.6 L708.5,104.7 L708.8,113.8 L709.1,133.4 L709.3,106.0 L709.6,122.9 L709.9,112.5 L710.1,98.2 L710.4,120.3 L710.7,129.4 L710.9,126.8 L711.2,133.4 L711.5,121.6 L711.7,112.5 L712.0,124.2 L712.2,116.4 L712.5,119.0 L712.8,124.2 L713.0,142.5 L713.3,113.8 L713.6,119.0 L713.8,95.6 L714.1,139.9 L714.4,116.4 L714.6,134.7 L714.9,95.6 L715.2,109.9 L715.4,113.8 L715.7,119.0 L715.9,130.8 L716.2,129.4 L716.5,134.7 L716.7,141.2 L717.0,128.1 L717.3,128.1 L717.5,125.5 L717.8,172.5 L718.1,155.5 L718.3,180.3 L718.6,176.4 L718.9,168.6 L719.1,189.4 L719.4,177.7 L719.6,188.1 L719.9,167.3 L720.2,190.7 L720.4,203.8 L720.7,180.3 L721.0,201.1 L721.2,214.2 L721.5,203.8 L721.8,214.2 L722.0,222.0 L722.3,212.9 L722.6,216.8 L722.8,225.9 L723.1,209.0 L723.3,206.4 L723.6,225.9 L723.9,207.7 L724.1,207.7 L724.4,219.4 L724.7,202.5 L724.9,228.5 L725.2,198.5 L725.5,202.5 L725.7,225.9 L726.0,237.6 L726.3,252.0 L726.5,274.2 L726.8,285.9 L727.1,298.9 L727.3,313.3 L727.6,325.0 L727.8,339.3 L728.1,348.5 L728.4,362.8 L728.6,370.6 L728.9,387.6 L729.2,399.3 L729.4,409.7 L729.7,414.9 L730.0,416.2 L730.2,429.3 L730.5,422.8 L730.8,442.3 L731.0,452.7 L731.3,446.2 L731.5,459.3 L731.8,442.3 L732.1,450.1 L732.3,481.4 L732.6,469.7 L732.9,484.0 L733.1,481.4 L733.4,476.2 L733.7,474.9 L733.9,485.3 L734.2,486.6 L734.5,508.8 L734.7,490.6 L735.0,511.4 L735.2,506.2 L735.5,515.3 L735.8,481.4 L736.0,487.9 L736.3,498.4 L736.6,502.3 L736.8,514.0 L737.1,521.8 L737.4,521.8 L737.6,517.9 L737.9,508.8 L738.2,498.4 L738.4,504.9 L738.7,495.8 L738.9,533.6 L739.2,527.1 L739.5,527.1 L739.7,499.7 L740.0,524.4 L740.3,511.4 L740.5,534.9 L740.8,490.6 L741.1,529.7 L741.3,521.8 L741.6,499.7 L741.9,516.6 L742.1,523.1 L742.4,511.4 L742.7,523.1 L742.9,497.1 L743.2,511.4 L743.4,502.3 L743.7,536.2 L744.0,515.3 L744.2,521.8 L744.5,532.3 L744.8,529.7 L745.0,524.4 L745.3,531.0 L745.6,527.1 L745.8,532.3 L746.1,514.0 L746.4,512.7 L746.6,503.6 L746.9,533.6 L747.1,516.6 L747.4,525.7 L747.7,532.3 L747.9,501.0 L748.2,511.4 L748.5,534.9 L748.7,523.1 L749.0,537.5 L749.3,536.2 L749.5,537.5 L749.8,506.2 L750.1,533.6 L750.3,519.2 L750.6,502.3 L750.8,514.0 L751.1,537.5 L751.4,515.3 L751.6,520.5 L751.9,516.6 L752.2,501.0 L752.4,520.5 L752.7,536.2 L753.0,510.1 L753.2,502.3 L753.5,515.3 L753.8,532.3 L754.0,540.1 L754.3,527.1 L754.5,503.6 L754.8,506.2 L755.1,514.0 L755.3,524.4 L755.6,525.7 L755.9,524.4 L756.1,524.4 L756.4,515.3 L756.7,516.6 L756.9,544.0 L757.2,502.3 L757.5,503.6 L757.7,538.8 L758.0,528.4 L758.3,534.9 L758.5,534.9 L758.8,516.6 L759.0,512.7 L759.3,523.1 L759.6,521.8 L759.8,506.2 L760.1,531.0 L760.4,516.6 L760.6,504.9 L760.9,524.4 L761.2,510.1 L761.4,538.8 L761.7,499.7 L762.0,538.8 L762.2,507.5 L762.5,506.2 L762.7,502.3 L763.0,524.4 L763.3,532.3 L763.5,527.1 L763.8,525.7 L764.1,528.4 L764.3,501.0 L764.6,510.1 L764.9,527.1 L765.1,538.8 L765.4,520.5 L765.7,534.9 L765.9,514.0 L766.2,544.0 L766.4,506.2 L766.7,503.6 L767.0,506.2 L767.2,520.5 L767.5,498.4 L767.8,533.6 L768.0,514.0 L768.3,520.5 L768.6,541.4 L768.8,515.3 L769.1,528.4 L769.4,512.7 L769.6,538.8 L769.9,510.1 L770.1,525.7 L770.4,520.5 L770.7,517.9 L770.9,524.4 L771.2,533.6 L771.5,514.0 L771.7,478.8 L772.0,481.4 L772.3,450.1 L772.5,425.4 L772.8,416.2 L773.1,404.5 L773.3,381.0 L773.6,361.5 L773.9,355.0 L774.1,335.4 L774.4,323.7 L774.6,309.3 L774.9,296.3 L775.2,280.7 L775.4,276.8 L775.7,263.7 L776.0,257.2 L776.2,242.9 L776.5,232.4 L776.8,229.8 L777.0,209.0 L777.3,215.5 L777.6,206.4 L777.8,181.6 L778.1,189.4 L778.3,175.1 L778.6,165.9 L778.9,171.2 L779.1,182.9 L779.4,163.3 L779.7,167.3 L779.9,163.3 L780.2,154.2 L780.5,151.6 L780.7,134.7 L781.0,155.5 L781.3,137.3 L781.5,146.4 L781.8,145.1 L782.0,121.6 L782.3,138.6 L782.6,138.6 L782.8,116.4 L783.1,124.2 L783.4,115.1 L783.6,126.8 L783.9,106.0 L784.2,129.4 L784.4,109.9 L784.7,125.5 L785.0,120.3 L785.2,104.7 L785.5,128.1 L785.7,112.5 L786.0,122.9 L786.3,116.4 L786.5,132.1 L786.8,108.6 L787.1,103.4 L787.3,102.1 L787.6,99.5 L787.9,116.4 L788.1,115.1 L788.4,113.8 L788.7,92.9 L788.9,120.3 L789.2,91.6 L789.5,103.4 L789.7,115.1 L790.0,86.4 L790.2,109.9 L790.5,104.7 L790.8,86.4 L791.0,108.6 L791.3,102.1 L791.6,92.9 L791.8,126.8 L792.1,86.4 L792.4,116.4 L792.6,109.9 L792.9,109.9 L793.2,91.6 L793.4,130.8 L793.7,103.4 L793.9,98.2 L794.2,134.7 L794.5,96.9 L794.7,113.8 L795.0,121.6 L795.3,113.8 L795.5,98.2 L795.8,136.0 L796.1,124.2 L796.3,103.4 L796.6,119.0 L796.9,119.0 L797.1,89.0 L797.4,129.4 L797.6,100.8 L797.9,108.6 L798.2,98.2 L798.4,122.9 L798.7,132.1 L799.0,120.3 L799.2,87.7 L799.5,122.9 L799.8,98.2 L800.0,130.8 L800.3,121.6 L800.6,107.3 L800.8,119.0 L801.1,129.4 L801.3,98.2 L801.6,98.2 L801.9,106.0 L802.1,103.4 L802.4,98.2 L802.7,104.7 L802.9,91.6 L803.2,126.8 L803.5,121.6 L803.7,115.1 L804.0,90.3 L804.3,98.2 L804.5,96.9 L804.8,126.8 L805.1,94.3 L805.3,126.8 L805.6,111.2 L805.8,116.4 L806.1,129.4 L806.4,107.3 L806.6,100.8 L806.9,90.3 L807.2,98.2 L807.4,108.6 L807.7,126.8 L808.0,82.5 L808.2,115.1 L808.5,125.5 L808.8,115.1 L809.0,111.2 L809.3,91.6 L809.5,91.6 L809.8,102.1 L810.1,103.4 L810.3,109.9 L810.6,109.9 L810.9,113.8 L811.1,116.4 L811.4,94.3 L811.7,112.5 L811.9,117.7 L812.2,89.0 L812.5,125.5 L812.7,91.6 L813.0,89.0 L813.2,95.6 L813.5,104.7 L813.8,85.1 L814.0,100.8 L814.3,116.4 L814.6,96.9 L814.8,103.4 L815.1,126.8 L815.4,109.9 L815.6,87.7 L815.9,98.2 L816.2,109.9 L816.4,102.1 L816.7,87.7 L816.9,90.3 L817.2,108.6 L817.5,99.5 L817.7,120.3 L818.0,78.6 L818.3,120.3 L818.5,96.9 L818.8,95.6 L819.1,107.3 L819.3,115.1 L819.6,87.7 L819.9,120.3 L820.1,86.4 L820.4,133.4 L820.7,106.0 L820.9,129.4 L821.2,90.3 L821.4,102.1 L821.7,95.6 L822.0,96.9 L822.2,136.0 L822.5,132.1 L822.8,129.4 L823.0,96.9 L823.3,112.5 L823.6,96.9 L823.8,98.2 L824.1,133.4 L824.4,100.8 L824.6,98.2 L824.9,116.4 L825.1,91.6 L825.4,129.4 L825.7,129.4 L825.9,116.4 L826.2,92.9 L826.5,119.0 L826.7,124.2 L827.0,91.6 L827.3,132.1 L827.5,99.5 L827.8,138.6 L828.1,128.1 L828.3,120.3 L828.6,124.2 L828.8,115.1 L829.1,129.4 L829.4,98.2 L829.6,99.5 L829.9,106.0 L830.2,128.1 L830.4,115.1 L830.7,108.6 L831.0,94.3 L831.2,116.4 L831.5,120.3 L831.8,83.8 L832.0,126.8 L832.3,113.8 L832.5,96.9 L832.8,121.6 L833.1,126.8 L833.3,92.9 L833.6,103.4 L833.9,104.7 L834.1,125.5 L834.4,103.4 L834.7,109.9 L834.9,109.9 L835.2,95.6 L835.5,113.8 L835.7,86.4 L836.0,94.3 L836.3,106.0 L836.5,102.1 L836.8,122.9 L837.0,83.8 L837.3,92.9 L837.6,130.8 L837.8,115.1 L838.1,115.1 L838.4,85.1 L838.6,117.7 L838.9,99.5 L839.2,104.7 L839.4,112.5 L839.7,109.9 L840.0,119.0 L840.2,111.2 L840.5,85.1 L840.7,122.9 L841.0,103.4 L841.3,103.4 L841.5,120.3 L841.8,117.7 L842.1,125.5 L842.3,85.1 L842.6,125.5 L842.9,98.2 L843.1,108.6 L843.4,91.6 L843.7,100.8 L843.9,112.5 L844.2,120.3 L844.4,92.9 L844.7,92.9 L845.0,116.4 L845.2,87.7 L845.5,132.1 L845.8,126.8 L846.0,89.0 L846.3,112.5 L846.6,128.1 L846.8,94.3 L847.1,125.5 L847.4,129.4 L847.6,95.6 L847.9,122.9 L848.1,87.7 L848.4,111.2 L848.7,126.8 L848.9,126.8 L849.2,107.3 L849.5,100.8 L849.7,108.6 L850.0,89.0 L850.3,112.5 L850.5,108.6 L850.8,109.9 L851.1,104.7 L851.3,90.3 L851.6,115.1 L851.9,112.5 L852.1,109.9 L852.4,122.9 L852.6,85.1 L852.9,90.3 L853.2,95.6 L853.4,107.3 L853.7,113.8 L854.0,103.4 L854.2,108.6 L854.5,124.2 L854.8,108.6 L855.0,96.9 L855.3,99.5 L855.6,122.9 L855.8,113.8 L856.1,119.0 L856.3,85.1 L856.6,116.4 L856.9,91.6 L857.1,99.5 L857.4,92.9 L857.7,92.9 L857.9,109.9 L858.2,119.0 L858.5,120.3 L858.7,89.0 L859.0,103.4 L859.3,96.9 L859.5,94.3 L859.8,95.6 L860.0,96.9 L860.3,90.3 L860.6,90.3 L860.8,96.9 L861.1,91.6 L861.4,120.3 L861.6,122.9 L861.9,115.1 L862.2,82.5 L862.4,106.0 L862.7,89.0 L863.0,126.8 L863.2,104.7 L863.5,102.1 L863.7,111.2 L864.0,112.5 L864.3,89.0 L864.5,92.9 L864.8,112.5 L865.1,96.9 L865.3,90.3 L865.6,102.1 L865.9,99.5 L866.1,86.4 L866.4,90.3 L866.7,92.9 L866.9,126.8 L867.2,104.7 L867.5,129.4 L867.7,87.7 L868.0,112.5 L868.2,122.9 L868.5,99.5 L868.8,108.6 L869.0,117.7 L869.3,109.9 L869.6,95.6 L869.8,100.8 L870.1,122.9 L870.4,112.5 L870.6,125.5 L870.9,87.7 L871.2,125.5 L871.4,108.6 L871.7,94.3 L871.9,125.5 L872.2,111.2 L872.5,129.4 L872.7,102.1 L873.0,104.7 L873.3,120.3 L873.5,117.7 L873.8,115.1 L874.1,125.5 L874.3,117.7 L874.6,83.8 L874.9,107.3 L875.1,125.5 L875.4,103.4 L875.6,121.6 L875.9,83.8 L876.2,108.6 L876.4,122.9 L876.7,94.3 L877.0,128.1 L877.2,98.2 L877.5,107.3 L877.8,109.9 L878.0,100.8 L878.3,128.1 L878.6,104.7 L878.8,129.4 L879.1,107.3 L879.3,124.2 L879.6,103.4 L879.9,106.0 L880.1,102.1 L880.4,86.4 L880.7,113.8 L880.9,108.6 L881.2,121.6 L881.5,92.9 L881.7,98.2 L882.0,96.9 L882.3,92.9 L882.5,111.2 L882.8,113.8 L883.1,111.2 L883.3,108.6 L883.6,106.0 L883.8,99.5 L884.1,90.3 L884.4,92.9 L884.6,116.4 L884.9,99.5 L885.2,92.9 L885.4,95.6 L885.7,102.1 L886.0,86.4 L886.2,103.4 L886.5,113.8 L886.8,120.3 L887.0,116.4 L887.3,76.0 L887.5,95.6 L887.8,121.6 L888.1,81.2 L888.3,94.3 L888.6,122.9 L888.9,103.4 L889.1,85.1 L889.4,108.6 L889.7,90.3 L889.9,125.5 L890.2,117.7 L890.5,117.7 L890.7,122.9 L891.0,113.8 L891.2,120.3 L891.5,112.5 L891.8,116.4 L892.0,121.6 L892.3,98.2 L892.6,117.7 L892.8,120.3 L893.1,99.5 L893.4,85.1 L893.6,92.9 L893.9,92.9 L894.2,92.9 L894.4,95.6 L894.7,103.4 L894.9,102.1 L895.2,117.7 L895.5,115.1 L895.7,111.2 L896.0,81.2 L896.3,117.7 L896.5,111.2 L896.8,89.0 L897.1,125.5 L897.3,120.3 L897.6,83.8 L897.9,108.6 L898.1,98.2 L898.4,104.7 L898.7,95.6 L898.9,130.8 L899.2,111.2 L899.4,89.0 L899.7,109.9 L900.0,100.8 L900.2,106.0 L900.5,120.3 L900.8,86.4 L901.0,107.3 L901.3,111.2 L901.6,122.9 L901.8,85.1 L902.1,111.2 L902.4,113.8 L902.6,99.5 L902.9,96.9 L903.1,102.1 L903.4,106.0 L903.7,91.6 L903.9,117.7 L904.2,120.3 L904.5,122.9 L904.7,85.1 L905.0,89.0 L905.3,96.9 L905.5,125.5 L905.8,103.4 L906.1,121.6 L906.3,119.0 L906.6,91.6 L906.8,89.0 L907.1,120.3 L907.4,100.8 L907.6,98.2 L907.9,111.2 L908.2,108.6 L908.4,121.6 L908.7,121.6 L909.0,94.3 L909.2,100.8 L909.5,89.0 L909.8,107.3 L910.0,91.6 L910.3,106.0 L910.5,113.8 L910.8,122.9 L911.1,107.3 L911.3,92.9 L911.6,111.2 L911.9,98.2 L912.1,111.2 L912.4,83.8 L912.7,124.2 L912.9,121.6 L913.2,94.3 L913.5,112.5 L913.7,108.6 L914.0,96.9 L914.3,100.8 L914.5,121.6 L914.8,106.0 L915.0,109.9 L915.3,117.7 L915.6,95.6 L915.8,117.7 L916.1,107.3 L916.4,115.1 L916.6,94.3 L916.9,116.4 L917.2,99.5 L917.4,120.3 L917.7,108.6 L918.0,106.0 L918.2,86.4 L918.5,113.8 L918.7,122.9 L919.0,82.5 L919.3,90.3 L919.5,96.9 L919.8,96.9 L920.1,86.4 L920.3,91.6 L920.6,120.3 L920.9,95.6 L921.1,129.4 L921.4,95.6 L921.7,111.2 L921.9,86.4 L922.2,130.8 L922.4,90.3 L922.7,134.7 L923.0,124.2 L923.2,98.2 L923.5,113.8 L923.8,98.2 L924.0,121.6 L924.3,119.0 L924.6,91.6 L924.8,99.5 L925.1,106.0 L925.4,104.7 L925.6,125.5 L925.9,99.5 L926.1,92.9 L926.4,103.4 L926.7,104.7 L926.9,124.2 L927.2,124.2 L927.5,109.9 L927.7,119.0 L928.0,92.9 L928.3,102.1 L928.5,113.8 L928.8,116.4 L929.1,107.3 L929.3,125.5 L929.6,98.2 L929.9,96.9 L930.1,116.4 L930.4,103.4 L930.6,108.6 L930.9,85.1 L931.2,89.0 L931.4,102.1 L931.7,103.4 L932.0,115.1 L932.2,107.3 L932.5,96.9 L932.8,113.8 L933.0,117.7 L933.3,99.5 L933.6,92.9 L933.8,83.8 L934.1,117.7 L934.3,81.2 L934.6,113.8 L934.9,112.5 L935.1,121.6 L935.4,107.3 L935.7,96.9 L935.9,124.2 L936.2,122.9 L936.5,120.3 L936.7,111.2 L937.0,102.1 L937.3,87.7 L937.5,121.6 L937.8,107.3 L938.0,102.1 L938.3,108.6 L938.6,92.9 L938.8,98.2 L939.1,106.0 L939.4,103.4 L939.6,113.8 L939.9,90.3 L940.2,128.1 L940.4,98.2 L940.7,107.3 L941.0,104.7 L941.2,85.1 L941.5,106.0 L941.7,112.5 L942.0,103.4 L942.3,122.9 L942.5,100.8 L942.8,112.5 L943.1,122.9 L943.3,116.4 L943.6,96.9 L943.9,113.8 L944.1,98.2 L944.4,83.8 L944.7,100.8 L944.9,92.9 L945.2,117.7 L945.5,86.4 L945.7,92.9 L946.0,112.5 L946.2,98.2 L946.5,85.1 L946.8,130.8 L947.0,104.7 L947.3,91.6 L947.6,125.5 L947.8,128.1 L948.1,125.5 L948.4,125.5 L948.6,104.7 L948.9,96.9 L949.2,96.9 L949.4,129.4 L949.7,96.9 L949.9,107.3 L950.2,128.1 L950.5,104.7 L950.7,90.3 L951.0,133.4 L951.3,86.4 L951.5,138.6 L951.8,124.2 L952.1,128.1 L952.3,99.5 L952.6,115.1 L952.9,122.9 L953.1,116.4 L953.4,98.2 L953.6,125.5 L953.9,117.7 L954.2,103.4 L954.4,102.1 L954.7,109.9 L955.0,108.6 L955.2,116.4 L955.5,99.5 L955.8,96.9 L956.0,121.6 L956.3,115.1 L956.6,92.9 L956.8,112.5 L957.1,96.9 L957.3,107.3 L957.6,124.2 L957.9,85.1 L958.1,107.3 L958.4,113.8 L958.7,85.1 L958.9,95.6 L959.2,104.7 L959.5,90.3 L959.7,109.9 L960.0,106.0 L960.3,94.3 L960.5,122.9 L960.8,125.5 L961.1,87.7 L961.3,124.2 L961.6,116.4 L961.8,112.5 L962.1,124.2 L962.4,99.5 L962.6,99.5 L962.9,121.6 L963.2,103.4 L963.4,99.5 L963.7,124.2 L964.0,98.2 L964.2,102.1 L964.5,87.7 L964.8,99.5 L965.0,87.7 L965.3,98.2 L965.5,98.2 L965.8,125.5 L966.1,104.7 L966.3,120.3 L966.6,83.8 L966.9,104.7 L967.1,119.0 L967.4,94.3 L967.7,106.0 L967.9,103.4 L968.2,125.5 L968.5,117.7 L968.7,94.3 L969.0,109.9 L969.2,119.0 L969.5,121.6 L969.8,98.2 L970.0,102.1 L970.3,116.4 L970.6,104.7 L970.8,119.0 L971.1,116.4 L971.4,104.7 L971.6,102.1 L971.9,116.4 L972.2,92.9 L972.4,107.3 L972.7,112.5 L972.9,77.3 L973.2,120.3 L973.5,98.2 L973.7,90.3 L974.0,94.3 L974.3,112.5 L974.5,113.8 L974.8,109.9 L975.1,111.2 L975.3,103.4 L975.6,95.6 L975.9,94.3 L976.1,96.9 L976.4,99.5 L976.7,95.6 L976.9,83.8 L977.2,122.9 L977.4,122.9 L977.7,89.0 L978.0,107.3 L978.2,121.6 L978.5,96.9 L978.8,128.1 L979.0,95.6 L979.3,111.2 L979.6,104.7 L979.8,128.1 L980.1,119.0 L980.4,112.5 L980.6,121.6 L980.9,96.9 L981.1,99.5 L981.4,91.6 L981.7,115.1 L981.9,103.4 L982.2,103.4 L982.5,122.9 L982.7,77.3 L983.0,120.3 L983.3,96.9 L983.5,103.4 L983.8,116.4 L984.1,90.3 L984.3,99.5 L984.6,100.8 L984.8,89.0 L985.1,122.9 L985.4,87.7 L985.6,106.0 L985.9,102.1 L986.2,98.2 L986.4,104.7 L986.7,91.6 L987.0,109.9 L987.2,100.8 L987.5,122.9 L987.8,98.2 L988.0,98.2 L988.3,120.3 L988.5,108.6 L988.8,87.7 L989.1,133.4 L989.3,117.7 L989.6,129.4 L989.9,115.1 L990.1,102.1 L990.4,99.5 L990.7,95.6 L990.9,99.5 L991.2,121.6 L991.5,111.2 L991.7,112.5 L992.0,121.6 L992.3,116.4 L992.5,85.1 L992.8,115.1 L993.0,115.1 L993.3,113.8 L993.6,91.6 L993.8,117.7 L994.1,109.9 L994.4,125.5 L994.6,91.6 L994.9,87.7 L995.2,90.3 L995.4,103.4 L995.7,125.5 L996.0,94.3 L996.2,113.8 L996.5,120.3 L996.7,109.9 L997.0,82.5 L997.3,100.8 L997.5,103.4 L997.8,91.6 L998.1,126.8 L998.3,107.3 L998.6,99.5 L998.9,124.2 L999.1,115.1 L999.4,91.6 L999.7,96.9 L999.9,92.9 L1000.2,112.5 L1000.4,111.2 L1000.7,116.4 L1001.0,104.7 L1001.2,115.1 L1001.5,106.0 L1001.8,82.5 L1002.0,96.9 L1002.3,90.3 L1002.6,119.0 L1002.8,108.6 L1003.1,96.9 L1003.4,107.3 L1003.6,95.6 L1003.9,120.3 L1004.1,115.1 L1004.4,98.2 L1004.7,87.7 L1004.9,115.1 L1005.2,107.3 L1005.5,119.0 L1005.7,78.6 L1006.0,126.8 L1006.3,90.3 L1006.5,115.1 L1006.8,125.5 L1007.1,87.7 L1007.3,121.6 L1007.6,95.6 L1007.9,132.1 L1008.1,128.1 L1008.4,104.7 L1008.6,99.5 L1008.9,102.1 L1009.2,111.2 L1009.4,125.5 L1009.7,126.8 L1010.0,103.4 L1010.2,94.3 L1010.5,113.8 L1010.8,94.3 L1011.0,99.5 L1011.3,117.7 L1011.6,106.0 L1011.8,92.9 L1012.1,120.3 L1012.3,91.6 L1012.6,132.1 L1012.9,96.9 L1013.1,102.1 L1013.4,125.5 L1013.7,126.8 L1013.9,94.3 L1014.2,117.7 L1014.5,116.4 L1014.7,116.4 L1015.0,122.9 L1015.3,120.3 L1015.5,121.6 L1015.8,95.6 L1016.0,91.6 L1016.3,124.2 L1016.6,119.0 L1016.8,90.3 L1017.1,133.4 L1017.4,109.9 L1017.6,113.8 L1017.9,104.7 L1018.2,129.4 L1018.4,91.6 L1018.7,102.1 L1019.0,104.7 L1019.2,108.6 L1019.5,104.7 L1019.7,124.2 L1020.0,82.5 L1020.3,117.7 L1020.5,121.6 L1020.8,86.4 L1021.1,124.2 L1021.3,98.2 L1021.6,133.4 L1021.9,100.8 L1022.1,104.7 L1022.4,117.7 L1022.7,117.7 L1022.9,120.3 L1023.2,96.9 L1023.5,94.3 L1023.7,96.9 L1024.0,96.9 L1024.2,119.0 L1024.5,107.3 L1024.8,100.8 L1025.0,102.1 L1025.3,100.8 L1025.6,113.8 L1025.8,109.9 L1026.1,109.9 L1026.4,85.1 L1026.6,109.9 L1026.9,108.6 L1027.2,91.6 L1027.4,104.7 L1027.7,102.1 L1027.9,89.0 L1028.2,112.5 L1028.5,119.0 L1028.7,111.2 L1029.0,106.0 L1029.3,125.5 L1029.5,89.0 L1029.8,111.2 L1030.1,108.6 L1030.3,120.3 L1030.6,113.8 L1030.9,120.3 L1031.1,95.6 L1031.4,119.0 L1031.6,99.5 L1031.9,122.9 L1032.2,92.9 L1032.4,87.7 L1032.7,98.2 L1033.0,119.0 L1033.2,108.6 L1033.5,86.4 L1033.8,96.9 L1034.0,89.0 L1034.3,119.0 L1034.6,116.4 L1034.8,121.6 L1035.1,90.3 L1035.3,111.2 L1035.6,91.6 L1035.9,113.8 L1036.1,117.7 L1036.4,91.6 L1036.7,122.9 L1036.9,90.3 L1037.2,96.9 L1037.5,104.7 L1037.7,122.9 L1038.0,104.7 L1038.3,87.7 L1038.5,119.0 L1038.8,96.9 L1039.1,91.6 L1039.3,112.5 L1039.6,96.9 L1039.8,129.4 L1040.1,99.5 L1040.4,130.8 L1040.6,111.2 L1040.9,125.5 L1041.2,96.9 L1041.4,104.7 L1041.7,107.3 L1042.0,117.7 L1042.2,86.4 L1042.5,126.8 L1042.8,104.7 L1043.0,129.4 L1043.3,126.8 L1043.5,124.2 L1043.8,108.6 L1044.1,98.2 L1044.3,111.2 L1044.6,90.3 L1044.9,95.6 L1045.1,129.4 L1045.4,107.3 L1045.7,117.7 L1045.9,112.5 L1046.2,125.5 L1046.5,83.8 L1046.7,125.5 L1047.0,94.3 L1047.2,96.9 L1047.5,113.8 L1047.8,92.9 L1048.0,92.9 L1048.3,98.2 L1048.6,103.4 L1048.8,117.7 L1049.1,124.2 L1049.4,115.1 L1049.6,121.6 L1049.9,121.6 L1050.2,92.9 L1050.4,122.9 L1050.7,108.6 L1050.9,85.1 L1051.2,128.1 L1051.5,94.3 L1051.7,122.9 L1052.0,125.5 L1052.3,92.9 L1052.5,96.9 L1052.8,130.8 L1053.1,91.6 L1053.3,122.9 L1053.6,94.3 L1053.9,120.3 L1054.1,124.2 L1054.4,112.5 L1054.7,95.6 L1054.9,136.0 L1055.2,100.8 L1055.4,103.4 L1055.7,109.9 L1056.0,102.1 L1056.2,133.4 L1056.5,126.8 L1056.8,129.4 L1057.0,112.5 L1057.3,109.9 L1057.6,98.2 L1057.8,104.7 L1058.1,107.3 L1058.4,106.0 L1058.6,90.3 L1058.9,113.8 L1059.1,99.5 L1059.4,96.9 L1059.7,95.6 L1059.9,100.8 L1060.2,100.8 L1060.5,92.9 L1060.7,116.4 L1061.0,103.4 L1061.3,102.1 L1061.5,109.9 L1061.8,111.2 L1062.1,125.5 L1062.3,94.3 L1062.6,100.8 L1062.8,117.7 L1063.1,83.8 L1063.4,106.0 L1063.6,108.6 L1063.9,119.0 L1064.2,104.7 L1064.4,95.6 L1064.7,100.8 L1065.0,125.5 L1065.2,98.2 L1065.5,91.6 L1065.8,112.5 L1066.0,86.4 L1066.3,109.9 L1066.5,98.2 L1066.8,117.7 L1067.1,117.7 L1067.3,100.8 L1067.6,92.9 L1067.9,86.4 L1068.1,124.2 L1068.4,83.8 L1068.7,124.2 L1068.9,111.2 L1069.2,111.2 L1069.5,103.4 L1069.7,128.1 L1070.0,95.6 L1070.3,94.3 L1070.5,134.7 L1070.8,116.4 L1071.0,128.1 L1071.3,120.3 L1071.6,89.0 L1071.8,95.6 L1072.1,125.5 L1072.4,107.3 L1072.6,95.6 L1072.9,130.8 L1073.2,124.2 L1073.4,112.5 L1073.7,90.3 L1074.0,99.5 L1074.2,124.2 L1074.5,89.0 L1074.7,130.8 L1075.0,98.2 L1075.3,125.5 L1075.5,133.4 L1075.8,112.5 L1076.1,104.7 L1076.3,103.4 L1076.6,125.5 L1076.9,94.3 L1077.1,106.0 L1077.4,112.5 L1077.7,112.5 L1077.9,119.0 L1078.2,100.8 L1078.4,89.0 L1078.7,134.7 L1079.0,86.4 L1079.2,108.6 L1079.5,104.7 L1079.8,100.8 L1080.0,115.1 L1080.3,124.2 L1080.6,115.1 L1080.8,128.1 L1081.1,96.9 L1081.4,125.5 L1081.6,108.6 L1081.9,111.2 L1082.1,106.0 L1082.4,108.6 L1082.7,117.7 L1082.9,85.1 L1083.2,106.0 L1083.5,119.0 L1083.7,134.7 L1084.0,171.2" fill="none" stroke="#ff7f0e" stroke-width="1.1" opacity="0.85"/><text x="616" y="572" font-size="11" fill="#888">time 0..35 s — altitude (blue) &amp; roll (orange)</text></svg>