<svg xmlns="http://www.w3.org/2000/svg" width="1140" height="600" font-family="sans-serif" font-size="13"><rect width="1140" height="600" fill="white"/><text x="20" y="26" font-size="15" fill="#333">TMS-7 F15 — cross-wind calm (10% noise)</text><rect x="20" y="40" width="540" height="540" fill="#fbfbfb" stroke="#ddd"/><rect x="50" y="367" width="160" height="3" fill="#cde" stroke="#369" opacity="0.7"/><text x="50" y="362" fill="#369" font-size="12">landing zone</text><circle cx="151" cy="395" r="5" fill="black"/><text x="159" y="399" font-size="12">pad</text><path d="M150.7,395.4 L150.7,395.4 L150.7,395.4 L150.7,395.4 L150.7,395.4 L150.7,395.4 L150.7,395.4 L150.7,395.4 L150.7,395.4 L150.7,395.4 L150.7,395.4 L150.7,395.4 L150.7,395.4 L150.7,395.4 L150.7,395.4 L150.7,395.4 L150.7,395.4 L150.7,395.4 L150.7,395.4 L150.7,395.4 L150.7,395.4 L150.7,395.4 L150.7,395.4 L150.7,395.4 L150.7,395.4 L150.7,395.4 L150.7,395.4 L150.7,395.4 L150.7,395.4 L150.7,395.4 L150.7,395.4 L150.7,395.4 L150.7,395.4 L150.7,395.4 L150.7,395.4 L150.7,395.4 L150.7,395.4 L150.7,395.4 L150.7,395.4 L150.7,395.4 L150.7,395.4 L150.7,395.4 L150.7,395.4 L150.7,395.4 L150.7,395.4 L150.7,395.4 L150.7,395.4 L150.7,395.4 L150.7,395.4 L150.7,395.4 L150.7,395.4 L150.7,395.4 L150.7,395.4 L150.7,395.4 L150.7,395.4 L150.7,395.4 L150.7,395.4 L150.7,395.4 L151.3,394.3 L152.0,393.0 L152.9,391.6 L153.7,390.3 L154.5,388.9 L155.3,387.6 L156.1,386.4 L156.9,385.0 L157.7,383.7 L158.5,382.4 L159.4,381.0 L160.2,379.8 L161.1,378.5 L162.0,377.2 L162.8,375.9 L163.6,374.7 L164.6,373.3 L165.4,372.1 L166.3,370.8 L167.3,369.5 L168.1,368.3 L169.0,366.9 L169.9,365.7 L170.8,364.4 L171.6,363.1 L172.6,361.9 L173.5,360.6 L174.4,359.3 L175.3,358.1 L176.3,356.9 L177.2,355.6 L178.1,354.4 L179.0,353.2 L180.0,351.9 L180.9,350.7 L181.9,349.5 L182.8,348.2 L183.9,347.1 L184.8,345.9 L185.8,344.6 L186.7,343.5 L187.8,342.3 L188.8,341.1 L189.8,339.9 L190.8,338.8 L191.8,337.5 L192.9,336.4 L193.9,335.3 L194.9,334.1 L195.9,332.9 L197.0,331.8 L198.1,330.7 L199.1,329.5 L200.1,328.4 L201.2,327.3 L202.2,326.1 L203.4,325.0 L204.5,323.9 L205.5,322.7 L206.6,321.7 L207.7,320.6 L208.8,319.5 L209.9,318.4 L211.1,317.3 L212.2,316.3 L213.3,315.1 L214.4,314.1 L215.5,313.1 L216.7,312.0 L217.8,310.9 L218.9,309.9 L220.1,308.9 L221.3,307.8 L222.5,306.8 L223.6,305.8 L224.8,304.8 L226.0,303.7 L227.1,302.7 L228.3,301.8 L229.5,300.7 L230.7,299.7 L231.9,298.8 L233.1,297.8 L234.3,296.8 L235.5,295.8 L236.7,294.9 L238.0,294.0 L239.2,293.0 L240.5,292.0 L241.7,291.1 L242.9,290.2 L244.2,289.2 L245.4,288.3 L246.7,287.4 L247.9,286.5 L249.2,285.6 L250.4,284.7 L251.7,283.8 L253.0,283.0 L254.3,282.0 L255.6,281.2 L256.8,280.3 L258.1,279.5 L259.4,278.6 L260.7,277.7 L262.0,276.9 L263.3,276.1 L264.7,275.3 L266.0,274.4 L267.3,273.6 L268.6,272.8 L269.9,272.0 L271.3,271.1 L272.6,270.4 L274.0,269.6 L275.2,268.8 L276.6,268.1 L277.9,267.2 L279.3,266.5 L280.6,265.8 L282.0,265.0 L283.4,264.3 L284.7,263.5 L286.1,262.8 L287.5,262.1 L288.9,261.4 L290.3,260.7 L291.6,259.9 L293.0,259.2 L294.4,258.6 L295.8,257.9 L297.1,257.2 L298.6,256.5 L300.0,255.9 L301.4,255.2 L302.8,254.6 L304.2,254.0 L305.6,253.3 L307.1,252.6 L308.5,252.0 L309.9,251.4 L311.3,250.8 L312.7,250.2 L314.2,249.7 L315.6,249.0 L317.1,248.4 L318.5,247.8 L320.0,247.3 L321.4,246.7 L322.8,246.2 L324.2,245.6 L325.7,245.0 L327.2,244.5 L328.6,244.0 L330.1,243.5 L331.6,243.0 L333.0,242.5 L334.5,241.9 L335.9,241.4 L337.4,241.0 L338.9,240.5 L340.4,240.0 L341.9,239.6 L343.3,239.1 L344.8,238.7 L346.3,238.2 L347.8,237.7 L349.3,237.3 L350.8,236.9 L352.2,236.5 L353.8,236.1 L355.3,235.7 L356.8,235.3 L358.3,234.9 L359.8,234.5 L361.2,234.1 L362.8,233.7 L364.3,233.4 L365.8,233.0 L367.4,232.7 L368.9,232.4 L370.3,232.0 L371.9,231.7 L373.4,231.4 L374.9,231.1 L376.5,230.7 L377.9,230.4 L379.5,230.1 L381.0,229.9 L382.5,229.6 L384.1,229.3 L385.6,229.1 L387.1,228.8 L388.6,228.6 L390.2,228.4 L391.7,228.1 L393.3,227.9 L394.8,227.7 L396.3,227.5 L397.9,227.2 L399.4,227.0 L401.0,226.8 L402.4,226.7 L404.0,226.5 L405.6,226.3 L407.1,226.2 L408.7,226.0 L410.2,225.9 L411.7,225.8 L413.3,225.6 L414.9,225.5 L416.4,225.4 L417.9,225.3 L419.5,225.2 L421.0,225.1 L422.6,225.0 L423.9,225.0 L425.2,224.9 L426.5,224.8 L427.8,224.8 L429.1,224.7 L430.4,224.7 L431.7,224.7 L432.9,224.6 L434.2,224.6 L435.5,224.6 L436.8,224.6 L438.1,224.6 L439.4,224.6 L440.7,224.6 L442.0,224.6 L443.3,224.6 L444.6,224.6 L445.9,224.6 L447.2,224.6 L448.5,224.7 L449.8,224.7 L451.1,224.7 L452.3,224.8 L453.6,224.8 L454.9,224.9 L456.2,224.9 L457.5,225.0 L458.8,225.1 L460.1,225.1 L461.3,225.2 L462.6,225.3 L463.9,225.4 L465.2,225.5 L466.5,225.6 L467.8,225.7 L469.0,225.8 L470.3,225.9 L471.6,226.0 L472.9,226.1 L474.2,226.3 L475.5,226.4 L476.7,226.5 L478.0,226.7 L479.3,226.8 L480.6,227.0 L481.9,227.1 L483.2,227.4 L484.4,227.6 L485.7,227.7 L487.0,227.9 L488.3,228.1 L489.6,228.3 L490.9,228.5 L492.1,228.7 L493.4,228.9 L494.7,229.1 L496.0,229.3 L497.3,229.5 L498.6,229.7 L499.8,229.9 L501.1,230.2 L502.4,230.4 L503.7,230.7 L504.9,230.9 L506.2,231.2 L507.5,231.5 L508.7,231.8 L510.0,232.0 L511.2,232.3 L512.5,232.6 L513.8,232.8 L515.0,233.1 L516.3,233.4 L517.5,233.7 L518.8,234.0 L520.0,234.3 L521.3,234.7 L522.5,235.0 L523.8,235.3 L525.0,235.7 L526.3,236.0 L527.5,236.3 L528.8,236.7 L530.0,237.0" fill="none" stroke="#1f77b4" stroke-width="1.7" opacity="0.85"/><circle cx="530" cy="237" r="4.5" fill="#1f77b4"/><text x="28" y="572" font-size="11" fill="#888">ground track — m from pad (N up)</text><rect x="580" y="40" width="540" height="540" fill="#fbfbfb" stroke="#ddd"/><text x="586" y="54" fill="#1f77b4" font-size="11">alt 301</text><text x="586" y="558" fill="#1f77b4" font-size="11">2</text><path d="M616.0,543.6 L616.2,544.0 L616.5,543.6 L616.7,543.6 L616.9,543.2 L617.2,543.3 L617.4,543.0 L617.6,543.4 L617.8,542.7 L618.1,542.8 L618.3,542.9 L618.5,542.5 L618.8,542.7 L619.0,542.2 L619.2,542.1 L619.5,541.6 L619.7,542.3 L619.9,540.8 L620.2,541.3 L620.4,540.5 L620.6,541.3 L620.9,540.2 L621.1,539.6 L621.3,538.9 L621.5,538.7 L621.8,539.6 L622.0,538.3 L622.2,538.2 L622.5,538.0 L622.7,536.7 L622.9,537.5 L623.2,535.2 L623.4,536.5 L623.6,535.5 L623.9,534.5 L624.1,534.8 L624.3,535.3 L624.6,533.6 L624.8,533.6 L625.0,533.4 L625.2,530.7 L625.5,531.5 L625.7,528.9 L625.9,528.5 L626.2,530.8 L626.4,530.0 L626.6,528.2 L626.9,528.1 L627.1,527.5 L627.3,523.5 L627.6,522.9 L627.8,524.0 L628.0,522.5 L628.3,524.3 L628.5,523.5 L628.7,522.5 L628.9,521.9 L629.2,519.8 L629.4,521.3 L629.6,519.7 L629.9,514.9 L630.1,514.5 L630.3,517.6 L630.6,515.9 L630.8,514.5 L631.0,513.9 L631.3,508.0 L631.5,508.7 L631.7,510.9 L632.0,510.8 L632.2,511.3 L632.4,507.0 L632.6,507.7 L632.9,500.8 L633.1,502.1 L633.3,502.6 L633.6,496.5 L633.8,502.6 L634.0,494.7 L634.3,498.0 L634.5,494.0 L634.7,496.2 L635.0,497.7 L635.2,490.5 L635.4,496.3 L635.7,491.0 L635.9,488.1 L636.1,485.4 L636.3,481.8 L636.6,482.1 L636.8,483.2 L637.0,480.4 L637.3,479.5 L637.5,483.8 L637.7,477.2 L638.0,472.3 L638.2,478.6 L638.4,473.2 L638.7,477.2 L638.9,469.0 L639.1,467.0 L639.4,475.6 L639.6,472.0 L639.8,468.2 L640.0,458.4 L640.3,460.4 L640.5,468.1 L640.7,456.4 L641.0,466.7 L641.2,450.0 L641.4,449.1 L641.7,462.0 L641.9,458.8 L642.1,451.2 L642.4,448.7 L642.6,448.7 L642.8,436.4 L643.1,444.0 L643.3,443.5 L643.5,434.9 L643.7,450.0 L644.0,428.1 L644.2,446.8 L644.4,438.0 L644.7,441.2 L644.9,420.7 L645.1,431.6 L645.4,426.9 L645.6,422.2 L645.8,429.2 L646.1,428.7 L646.3,429.9 L646.5,426.4 L646.8,422.9 L647.0,409.1 L647.2,402.3 L647.4,397.6 L647.7,422.7 L647.9,407.4 L648.1,411.9 L648.4,403.9 L648.6,389.0 L648.8,392.0 L649.1,389.6 L649.3,397.1 L649.5,383.0 L649.8,387.1 L650.0,401.5 L650.2,392.2 L650.5,376.9 L650.7,387.8 L650.9,394.8 L651.1,363.8 L651.4,370.2 L651.6,385.8 L651.8,379.2 L652.1,365.4 L652.3,356.8 L652.5,357.8 L652.8,377.0 L653.0,369.5 L653.2,371.3 L653.5,344.7 L653.7,373.0 L653.9,343.4 L654.2,333.2 L654.4,336.6 L654.6,367.4 L654.8,365.6 L655.1,349.4 L655.3,335.5 L655.5,323.1 L655.8,331.7 L656.0,317.6 L656.2,317.2 L656.5,321.0 L656.7,318.7 L656.9,315.5 L657.2,342.6 L657.4,325.2 L657.6,327.2 L657.9,333.4 L658.1,305.8 L658.3,290.6 L658.5,306.9 L658.8,301.3 L659.0,285.9 L659.2,280.1 L659.5,302.8 L659.7,306.4 L659.9,288.4 L660.2,281.0 L660.4,270.9 L660.6,283.7 L660.9,304.9 L661.1,309.6 L661.3,301.0 L661.6,295.3 L661.8,304.7 L662.0,289.8 L662.2,273.2 L662.5,297.7 L662.7,275.2 L662.9,256.8 L663.2,257.2 L663.4,291.3 L663.6,283.6 L663.9,262.6 L664.1,261.1 L664.3,236.2 L664.6,242.3 L664.8,276.0 L665.0,262.1 L665.3,228.2 L665.5,275.6 L665.7,249.5 L665.9,225.5 L666.2,230.2 L666.4,239.2 L666.6,258.3 L666.9,266.7 L667.1,229.3 L667.3,219.8 L667.6,244.1 L667.8,256.7 L668.0,239.8 L668.3,229.3 L668.5,234.9 L668.7,246.5 L669.0,214.2 L669.2,201.7 L669.4,215.9 L669.6,241.2 L669.9,210.6 L670.1,187.9 L670.3,222.1 L670.6,228.0 L670.8,228.3 L671.0,226.0 L671.3,183.9 L671.5,209.4 L671.7,194.1 L672.0,217.7 L672.2,200.8 L672.4,222.3 L672.7,172.7 L672.9,211.1 L673.1,225.5 L673.3,218.2 L673.6,181.7 L673.8,180.3 L674.0,198.7 L674.3,189.1 L674.5,185.3 L674.7,189.4 L675.0,162.8 L675.2,159.3 L675.4,181.6 L675.7,153.3 L675.9,183.4 L676.1,145.7 L676.3,204.2 L676.6,139.6 L676.8,171.7 L677.0,158.3 L677.3,201.9 L677.5,174.4 L677.7,128.8 L678.0,160.3 L678.2,184.0 L678.4,123.3 L678.7,181.6 L678.9,146.2 L679.1,167.8 L679.4,145.3 L679.6,163.5 L679.8,172.6 L680.0,155.9 L680.3,164.6 L680.5,117.2 L680.7,175.3 L681.0,121.9 L681.2,140.6 L681.4,155.3 L681.7,156.8 L681.9,162.6 L682.1,149.7 L682.4,136.6 L682.6,112.7 L682.8,165.6 L683.1,146.7 L683.3,98.2 L683.5,136.2 L683.7,163.7 L684.0,127.1 L684.2,115.0 L684.4,130.1 L684.7,124.5 L684.9,98.6 L685.1,115.7 L685.4,120.1 L685.6,82.6 L685.8,111.7 L686.1,119.3 L686.3,93.3 L686.5,87.5 L686.8,157.5 L687.0,100.4 L687.2,78.5 L687.4,148.0 L687.7,89.3 L687.9,114.6 L688.1,144.0 L688.4,113.3 L688.6,145.4 L688.8,102.9 L689.1,134.8 L689.3,82.3 L689.5,85.5 L689.8,150.7 L690.0,132.1 L690.2,144.4 L690.5,116.6 L690.7,76.0 L690.9,134.0 L691.1,159.7 L691.4,88.8 L691.6,155.6 L691.8,95.2 L692.1,96.4 L692.3,141.2 L692.5,134.4 L692.8,91.5 L693.0,96.0 L693.2,137.6 L693.5,132.7 L693.7,102.1 L693.9,116.6 L694.2,121.8 L694.4,153.3 L694.6,110.4 L694.8,147.2 L695.1,128.2 L695.3,120.8 L695.5,106.9 L695.8,120.7 L696.0,129.7 L696.2,120.4 L696.5,101.3 L696.7,160.3 L696.9,85.9 L697.2,157.2 L697.4,127.9 L697.6,89.7 L697.9,158.3 L698.1,121.8 L698.3,123.7 L698.5,135.6 L698.8,124.9 L699.0,77.8 L699.2,100.6 L699.5,151.8 L699.7,146.7 L699.9,130.5 L700.2,161.2 L700.4,90.5 L700.6,80.9 L700.9,107.6 L701.1,84.5 L701.3,104.8 L701.6,141.4 L701.8,124.4 L702.0,102.0 L702.2,127.8 L702.5,157.7 L702.7,93.7 L702.9,124.2 L703.2,87.8 L703.4,146.8 L703.6,97.7 L703.9,150.5 L704.1,132.2 L704.3,85.3 L704.6,121.0 L704.8,93.8 L705.0,127.8 L705.3,105.5 L705.5,89.2 L705.7,122.1 L705.9,132.7 L706.2,147.6 L706.4,156.2 L706.6,104.3 L706.9,86.5 L707.1,95.1 L707.3,157.8 L707.6,127.1 L707.8,123.3 L708.0,100.3 L708.3,141.8 L708.5,122.4 L708.7,152.3 L709.0,143.7 L709.2,97.7 L709.4,145.6 L709.6,113.9 L709.9,137.7 L710.1,100.8 L710.3,154.5 L710.6,99.8 L710.8,107.1 L711.0,83.5 L711.3,118.9 L711.5,142.3 L711.7,160.0 L712.0,149.1 L712.2,121.5 L712.4,132.2 L712.7,142.5 L712.9,160.8 L713.1,155.7 L713.3,158.9 L713.6,133.5 L713.8,133.7 L714.0,136.3 L714.3,87.0 L714.5,83.7 L714.7,158.1 L715.0,157.5 L715.2,88.2 L715.4,116.9 L715.7,157.7 L715.9,161.4 L716.1,125.8 L716.4,141.2 L716.6,119.6 L716.8,166.4 L717.0,106.3 L717.3,167.4 L717.5,108.9 L717.7,118.2 L718.0,164.5 L718.2,112.4 L718.4,166.7 L718.7,120.4 L718.9,115.8 L719.1,140.2 L719.4,97.2 L719.6,140.4 L719.8,96.2 L720.1,99.4 L720.3,124.8 L720.5,141.4 L720.7,115.6 L721.0,89.6 L721.2,165.3 L721.4,148.7 L721.7,96.1 L721.9,122.8 L722.1,110.9 L722.4,130.4 L722.6,152.1 L722.8,125.3 L723.1,156.9 L723.3,134.0 L723.5,101.2 L723.8,153.5 L724.0,97.3 L724.2,161.4 L724.4,162.5 L724.7,148.6 L724.9,160.7 L725.1,170.6 L725.4,156.7 L725.6,134.9 L725.8,151.7 L726.1,159.8 L726.3,126.7 L726.5,108.2 L726.8,134.3 L727.0,145.4 L727.2,136.6 L727.5,142.0 L727.7,167.7 L727.9,114.3 L728.1,126.9 L728.4,167.4 L728.6,164.9 L728.8,166.3 L729.1,163.8 L729.3,172.5 L729.5,135.2 L729.8,120.9 L730.0,96.4 L730.2,107.4 L730.5,149.7 L730.7,150.1 L730.9,159.1 L731.2,170.2 L731.4,139.5 L731.6,99.6 L731.8,116.9 L732.1,127.8 L732.3,158.7 L732.5,160.2 L732.8,169.7 L733.0,121.5 L733.2,104.4 L733.5,168.6 L733.7,164.5 L733.9,101.3 L734.2,125.9 L734.4,131.0 L734.6,129.0 L734.8,113.0 L735.1,125.3 L735.3,143.0 L735.5,172.6 L735.8,169.9 L736.0,100.1 L736.2,134.4 L736.5,163.5 L736.7,115.8 L736.9,103.5 L737.2,97.3 L737.4,131.3 L737.6,124.8 L737.9,122.3 L738.1,147.0 L738.3,99.7 L738.5,144.7 L738.8,123.5 L739.0,98.2 L739.2,169.2 L739.5,162.6 L739.7,153.3 L739.9,172.4 L740.2,128.0 L740.4,107.5 L740.6,178.7 L740.9,108.1 L741.1,173.2 L741.3,117.2 L741.6,174.8 L741.8,149.2 L742.0,109.2 L742.2,100.3 L742.5,142.9 L742.7,103.8 L742.9,124.2 L743.2,177.2 L743.4,122.1 L743.6,156.1 L743.9,160.9 L744.1,107.3 L744.3,168.7 L744.6,122.7 L744.8,124.4 L745.0,119.0 L745.3,164.0 L745.5,117.1 L745.7,111.5 L745.9,110.9 L746.2,152.9 L746.4,162.4 L746.6,136.5 L746.9,142.3 L747.1,107.9 L747.3,133.2 L747.6,125.6 L747.8,129.3 L748.0,147.0 L748.3,166.6 L748.5,178.9 L748.7,177.1 L749.0,175.6 L749.2,174.5 L749.4,119.8 L749.6,144.6 L749.9,174.4 L750.1,121.0 L750.3,181.1 L750.6,136.7 L750.8,149.5 L751.0,112.2 L751.3,183.1 L751.5,162.6 L751.7,127.1 L752.0,172.2 L752.2,121.4 L752.4,162.4 L752.7,114.0 L752.9,152.1 L753.1,124.3 L753.3,115.7 L753.6,129.7 L753.8,170.9 L754.0,107.8 L754.3,134.6 L754.5,108.2 L754.7,112.1 L755.0,161.8 L755.2,170.8 L755.4,143.6 L755.7,147.0 L755.9,153.0 L756.1,153.0 L756.4,175.9 L756.6,135.4 L756.8,179.7 L757.0,131.7 L757.3,147.8 L757.5,119.5 L757.7,180.7 L758.0,115.5 L758.2,157.5 L758.4,135.8 L758.7,146.2 L758.9,171.5 L759.1,154.4 L759.4,163.5 L759.6,129.2 L759.8,131.4 L760.1,139.1 L760.3,169.6 L760.5,137.6 L760.7,139.7 L761.0,128.7 L761.2,163.9 L761.4,128.2 L761.7,140.2 L761.9,181.9 L762.1,116.7 L762.4,187.0 L762.6,189.5 L762.8,120.9 L763.1,147.9 L763.3,143.6 L763.5,117.0 L763.8,146.8 L764.0,143.8 L764.2,123.3 L764.4,119.8 L764.7,158.7 L764.9,151.2 L765.1,162.1 L765.4,119.3 L765.6,157.5 L765.8,119.2 L766.1,119.2 L766.3,183.6 L766.5,152.8 L766.8,160.1 L767.0,173.3 L767.2,131.1 L767.5,153.8 L767.7,129.5 L767.9,147.1 L768.1,129.0 L768.4,169.6 L768.6,187.3 L768.8,124.0 L769.1,168.5 L769.3,197.6 L769.5,141.5 L769.8,142.6 L770.0,166.2 L770.2,129.6 L770.5,123.0 L770.7,169.0 L770.9,126.9 L771.2,129.8 L771.4,192.7 L771.6,165.9 L771.8,166.7 L772.1,170.4 L772.3,189.4 L772.5,141.7 L772.8,133.0 L773.0,169.4 L773.2,136.3 L773.5,137.2 L773.7,159.8 L773.9,189.8 L774.2,126.6 L774.4,171.2 L774.6,130.2 L774.9,158.4 L775.1,181.8 L775.3,183.0 L775.5,167.9 L775.8,158.0 L776.0,145.2 L776.2,153.8 L776.5,198.2 L776.7,197.5 L776.9,173.4 L777.2,172.4 L777.4,191.4 L777.6,196.7 L777.9,161.4 L778.1,190.9 L778.3,138.4 L778.6,160.9 L778.8,195.7 L779.0,161.0 L779.2,167.9 L779.5,190.9 L779.7,156.3 L779.9,133.1 L780.2,150.6 L780.4,197.9 L780.6,202.9 L780.9,163.4 L781.1,149.0 L781.3,161.2 L781.6,163.4 L781.8,163.0 L782.0,137.0 L782.3,207.8 L782.5,186.1 L782.7,151.8 L782.9,138.3 L783.2,171.7 L783.4,177.6 L783.6,185.0 L783.9,179.4 L784.1,190.6 L784.3,168.7 L784.6,187.0 L784.8,145.6 L785.0,167.8 L785.3,147.4 L785.5,197.9 L785.7,164.5 L786.0,161.6 L786.2,137.2 L786.4,195.3 L786.6,162.7 L786.9,197.2 L787.1,159.9 L787.3,173.1 L787.6,161.8 L787.8,147.6 L788.0,152.4 L788.3,200.1 L788.5,154.1 L788.7,168.3 L789.0,176.4 L789.2,191.1 L789.4,149.4 L789.7,208.9 L789.9,210.6 L790.1,200.2 L790.3,160.7 L790.6,169.7 L790.8,212.9 L791.0,189.2 L791.3,197.8 L791.5,196.4 L791.7,203.7 L792.0,153.7 L792.2,203.4 L792.4,189.4 L792.7,215.6 L792.9,204.7 L793.1,205.6 L793.3,162.3 L793.6,156.4 L793.8,167.6 L794.0,164.8 L794.3,176.5 L794.5,145.3 L794.7,146.2 L795.0,157.6 L795.2,171.5 L795.4,197.7 L795.7,175.8 L795.9,204.7 L796.1,213.5 L796.4,172.0 L796.6,153.7 L796.8,148.4 L797.0,190.0 L797.3,211.8 L797.5,154.3 L797.7,159.0 L798.0,169.1 L798.2,215.4 L798.4,154.1 L798.7,159.0 L798.9,204.4 L799.1,178.8 L799.4,200.9 L799.6,152.5 L799.8,177.2 L800.1,213.5 L800.3,205.0 L800.5,188.0 L800.7,157.9 L801.0,197.3 L801.2,218.6 L801.4,200.1 L801.7,165.9 L801.9,193.9 L802.1,154.7 L802.4,157.9 L802.6,218.9 L802.8,197.1 L803.1,190.2 L803.3,168.2 L803.5,215.4 L803.8,180.3 L804.0,208.7 L804.2,168.1 L804.4,215.0 L804.7,160.3 L804.9,186.2 L805.1,177.1 L805.4,178.8 L805.6,187.9 L805.8,219.3 L806.1,168.9 L806.3,200.9 L806.5,216.4 L806.8,184.5 L807.0,180.4 L807.2,178.9 L807.5,174.0 L807.7,204.7 L807.9,227.9 L808.1,222.7 L808.4,172.5 L808.6,207.1 L808.8,163.5 L809.1,168.6 L809.3,207.6 L809.5,170.5 L809.8,182.7 L810.0,194.3 L810.2,164.4 L810.5,221.8 L810.7,177.7 L810.9,207.3 L811.2,170.8 L811.4,163.2 L811.6,198.6 L811.8,220.2 L812.1,200.7 L812.3,227.8 L812.5,174.3 L812.8,168.6 L813.0,172.3 L813.2,221.3 L813.5,217.5 L813.7,229.0 L813.9,185.1 L814.2,186.8 L814.4,191.9 L814.6,193.0 L814.9,172.0 L815.1,176.3 L815.3,223.9 L815.5,206.8 L815.8,197.0 L816.0,222.1 L816.2,229.6 L816.5,188.2 L816.7,169.8 L816.9,234.3 L817.2,228.8 L817.4,208.4 L817.6,212.1 L817.9,233.5 L818.1,182.6 L818.3,232.0 L818.6,172.0 L818.8,170.9 L819.0,174.1 L819.2,204.6 L819.5,225.4 L819.7,184.5 L819.9,183.1 L820.2,235.9 L820.4,196.2 L820.6,173.2 L820.9,201.5 L821.1,229.6 L821.3,200.5 L821.6,191.9 L821.8,231.6 L822.0,222.3 L822.3,180.3 L822.5,227.8 L822.7,212.0 L822.9,175.3 L823.2,201.8 L823.4,201.7 L823.6,224.1 L823.9,201.6 L824.1,184.2 L824.3,187.8 L824.6,195.5 L824.8,219.7 L825.0,244.7 L825.3,187.3 L825.5,182.4 L825.7,215.8 L826.0,224.3 L826.2,232.0 L826.4,206.9 L826.6,221.2 L826.9,220.9 L827.1,220.8 L827.3,199.1 L827.6,229.6 L827.8,190.4 L828.0,227.3 L828.3,233.1 L828.5,219.4 L828.7,194.5 L829.0,189.6 L829.2,183.1 L829.4,211.1 L829.7,203.0 L829.9,226.0 L830.1,223.8 L830.3,238.7 L830.6,247.8 L830.8,221.8 L831.0,247.8 L831.3,228.8 L831.5,204.5 L831.7,200.1 L832.0,225.3 L832.2,228.3 L832.4,195.8 L832.7,215.5 L832.9,229.6 L833.1,232.8 L833.4,201.7 L833.6,227.9 L833.8,206.7 L834.0,224.0 L834.3,227.6 L834.5,205.6 L834.7,201.3 L835.0,224.7 L835.2,247.9 L835.4,220.3 L835.7,227.4 L835.9,250.4 L836.1,231.3 L836.4,236.3 L836.6,208.0 L836.8,201.1 L837.1,249.0 L837.3,210.7 L837.5,198.6 L837.7,214.5 L838.0,208.1 L838.2,246.0 L838.4,204.0 L838.7,251.9 L838.9,258.0 L839.1,218.4 L839.4,242.3 L839.6,223.0 L839.8,230.0 L840.1,241.1 L840.3,235.1 L840.5,212.0 L840.8,202.6 L841.0,231.9 L841.2,219.7 L841.4,205.6 L841.7,203.8 L841.9,234.3 L842.1,203.6 L842.4,215.5 L842.6,231.8 L842.8,216.0 L843.1,206.1 L843.3,225.8 L843.5,213.4 L843.8,210.1 L844.0,225.4 L844.2,201.6 L844.5,216.4 L844.7,251.4 L844.9,218.5 L845.1,201.9 L845.4,255.7 L845.6,256.2 L845.8,250.5 L846.1,249.4 L846.3,213.2 L846.5,232.6 L846.8,232.3 L847.0,217.9 L847.2,210.5 L847.5,223.7 L847.7,220.1 L847.9,260.6 L848.2,265.7 L848.4,219.5 L848.6,220.0 L848.8,253.9 L849.1,260.9 L849.3,254.1 L849.5,213.7 L849.8,248.1 L850.0,266.9 L850.2,253.7 L850.5,229.7 L850.7,242.5 L850.9,254.2 L851.2,223.7 L851.4,223.8 L851.6,217.9 L851.8,237.8 L852.1,267.2 L852.3,252.0 L852.5,251.6 L852.8,258.3 L853.0,215.4 L853.2,226.1 L853.5,249.7 L853.7,215.0 L853.9,271.4 L854.2,220.2 L854.4,230.3 L854.6,234.4 L854.9,263.1 L855.1,251.1 L855.3,237.1 L855.5,254.2 L855.8,244.3 L856.0,225.4 L856.2,268.9 L856.5,243.4 L856.7,218.4 L856.9,275.6 L857.2,228.6 L857.4,255.2 L857.6,252.9 L857.9,241.3 L858.1,263.4 L858.3,264.1 L858.6,259.7 L858.8,253.5 L859.0,230.3 L859.2,218.7 L859.5,278.4 L859.7,279.0 L859.9,245.7 L860.2,267.8 L860.4,234.8 L860.6,247.7 L860.9,269.1 L861.1,268.7 L861.3,225.3 L861.6,225.5 L861.8,271.0 L862.0,230.1 L862.3,233.7 L862.5,233.5 L862.7,277.7 L862.9,230.0 L863.2,252.4 L863.4,282.3 L863.6,280.0 L863.9,234.0 L864.1,263.8 L864.3,243.1 L864.6,269.4 L864.8,229.6 L865.0,235.6 L865.3,279.6 L865.5,253.0 L865.7,277.3 L866.0,280.3 L866.2,269.8 L866.4,249.8 L866.6,236.8 L866.9,244.2 L867.1,261.6 L867.3,247.1 L867.6,230.9 L867.8,283.7 L868.0,241.0 L868.3,244.2 L868.5,266.5 L868.7,235.9 L869.0,260.7 L869.2,236.7 L869.4,273.0 L869.7,287.4 L869.9,267.5 L870.1,281.9 L870.3,237.9 L870.6,263.9 L870.8,284.5 L871.0,258.6 L871.3,273.2 L871.5,238.6 L871.7,240.0 L872.0,253.9 L872.2,273.1 L872.4,241.6 L872.7,287.5 L872.9,266.6 L873.1,266.8 L873.4,266.4 L873.6,243.4 L873.8,271.0 L874.0,278.7 L874.3,269.2 L874.5,274.7 L874.7,257.3 L875.0,282.5 L875.2,276.0 L875.4,282.6 L875.7,288.4 L875.9,294.5 L876.1,257.6 L876.4,263.9 L876.6,254.2 L876.8,251.2 L877.1,242.9 L877.3,289.0 L877.5,281.9 L877.7,257.4 L878.0,286.8 L878.2,285.9 L878.4,287.2 L878.7,263.8 L878.9,277.6 L879.1,252.0 L879.4,264.6 L879.6,290.2 L879.8,270.0 L880.1,300.1 L880.3,249.5 L880.5,278.6 L880.8,295.2 L881.0,276.4 L881.2,290.6 L881.4,265.8 L881.7,250.6 L881.9,266.9 L882.1,264.2 L882.4,275.6 L882.6,271.0 L882.8,298.5 L883.1,294.4 L883.3,281.8 L883.5,297.8 L883.8,276.0 L884.0,292.4 L884.2,295.5 L884.5,293.0 L884.7,263.2 L884.9,261.3 L885.1,279.4 L885.4,267.7 L885.6,262.9 L885.8,304.6 L886.1,265.2 L886.3,265.3 L886.5,304.0 L886.8,265.6 L887.0,306.8 L887.2,276.3 L887.5,283.3 L887.7,308.3 L887.9,308.6 L888.2,262.5 L888.4,268.1 L888.6,267.7 L888.8,282.7 L889.1,294.6 L889.3,289.0 L889.5,304.8 L889.8,302.7 L890.0,291.8 L890.2,292.6 L890.5,300.9 L890.7,308.1 L890.9,276.3 L891.2,275.3 L891.4,266.4 L891.6,268.1 L891.9,312.1 L892.1,277.0 L892.3,272.5 L892.5,280.9 L892.8,297.9 L893.0,268.9 L893.2,304.9 L893.5,302.3 L893.7,269.8 L893.9,311.4 L894.2,312.8 L894.4,291.5 L894.6,283.1 L894.9,266.8 L895.1,267.3 L895.3,281.6 L895.6,294.3 L895.8,276.2 L896.0,296.3 L896.2,290.3 L896.5,302.9 L896.7,278.9 L896.9,284.5 L897.2,280.8 L897.4,286.1 L897.6,280.9 L897.9,282.9 L898.1,279.7 L898.3,296.5 L898.6,312.6 L898.8,277.9 L899.0,296.7 L899.3,311.6 L899.5,294.9 L899.7,289.8 L899.9,282.5 L900.2,286.3 L900.4,315.4 L900.6,286.0 L900.9,312.1 L901.1,296.7 L901.3,288.3 L901.6,314.1 L901.8,306.1 L902.0,306.8 L902.3,285.7 L902.5,321.9 L902.7,316.1 L903.0,291.1 L903.2,315.7 L903.4,322.0 L903.6,316.6 L903.9,318.9 L904.1,283.4 L904.3,287.2 L904.6,280.1 L904.8,284.3 L905.0,316.0 L905.3,322.0 L905.5,326.8 L905.7,327.5 L906.0,323.3 L906.2,288.6 L906.4,294.8 L906.7,320.2 L906.9,287.4 L907.1,290.8 L907.3,327.1 L907.6,324.0 L907.8,307.8 L908.0,300.4 L908.3,291.9 L908.5,302.5 L908.7,288.5 L909.0,307.9 L909.2,329.1 L909.4,295.9 L909.7,309.8 L909.9,288.0 L910.1,297.0 L910.3,325.7 L910.6,319.2 L910.8,320.5 L911.0,288.3 L911.3,312.0 L911.5,303.6 L911.7,327.5 L912.0,331.3 L912.2,305.6 L912.4,310.4 L912.7,299.2 L912.9,336.2 L913.1,300.8 L913.4,334.5 L913.6,293.1 L913.8,331.1 L914.0,305.3 L914.3,325.3 L914.5,317.4 L914.7,323.7 L915.0,304.0 L915.2,297.7 L915.4,296.1 L915.7,317.0 L915.9,326.4 L916.1,327.5 L916.4,303.7 L916.6,312.0 L916.8,325.4 L917.1,319.8 L917.3,331.2 L917.5,320.8 L917.7,329.7 L918.0,335.9 L918.2,317.6 L918.4,332.3 L918.7,309.6 L918.9,315.3 L919.1,309.7 L919.4,323.2 L919.6,312.7 L919.8,332.9 L920.1,333.1 L920.3,324.4 L920.5,339.1 L920.8,322.7 L921.0,332.5 L921.2,322.6 L921.4,342.8 L921.7,314.3 L921.9,334.3 L922.1,322.1 L922.4,347.5 L922.6,304.0 L922.8,336.2 L923.1,328.9 L923.3,334.5 L923.5,324.1 L923.8,342.1 L924.0,342.5 L924.2,341.2 L924.5,349.8 L924.7,315.4 L924.9,337.9 L925.1,312.1 L925.4,314.6 L925.6,323.2 L925.8,335.1 L926.1,326.3 L926.3,325.0 L926.5,328.9 L926.8,330.8 L927.0,324.0 L927.2,337.2 L927.5,340.7 L927.7,320.4 L927.9,336.6 L928.2,346.8 L928.4,347.6 L928.6,311.9 L928.8,347.3 L929.1,318.2 L929.3,316.2 L929.5,332.4 L929.8,347.8 L930.0,320.8 L930.2,338.4 L930.5,342.2 L930.7,318.5 L930.9,334.3 L931.2,318.4 L931.4,321.2 L931.6,325.7 L931.9,349.5 L932.1,344.8 L932.3,348.0 L932.5,326.2 L932.8,356.7 L933.0,350.1 L933.2,358.5 L933.5,343.5 L933.7,324.9 L933.9,345.8 L934.2,348.7 L934.4,356.3 L934.6,345.1 L934.9,334.5 L935.1,333.4 L935.3,351.3 L935.6,343.0 L935.8,333.6 L936.0,355.5 L936.2,354.6 L936.5,328.9 L936.7,353.4 L936.9,353.1 L937.2,336.8 L937.4,348.5 L937.6,327.4 L937.9,350.8 L938.1,346.7 L938.3,330.0 L938.6,333.7 L938.8,329.5 L939.0,362.1 L939.3,355.3 L939.5,329.8 L939.7,357.4 L939.9,345.4 L940.2,337.7 L940.4,334.4 L940.6,352.9 L940.9,338.1 L941.1,365.7 L941.3,351.5 L941.6,360.3 L941.8,333.9 L942.0,350.0 L942.3,335.2 L942.5,369.4 L942.7,341.4 L943.0,342.9 L943.2,350.0 L943.4,367.0 L943.6,335.6 L943.9,352.2 L944.1,336.2 L944.3,361.5 L944.6,358.6 L944.8,369.3 L945.0,358.7 L945.3,345.4 L945.5,355.7 L945.7,360.8 L946.0,344.8 L946.2,367.3 L946.4,360.7 L946.7,360.8 L946.9,346.2 L947.1,353.3 L947.3,343.5 L947.6,375.0 L947.8,351.1 L948.0,343.1 L948.3,366.4 L948.5,363.1 L948.7,375.8 L949.0,359.8 L949.2,368.1 L949.4,347.9 L949.7,356.7 L949.9,372.0 L950.1,373.7 L950.4,361.2 L950.6,357.4 L950.8,376.3 L951.0,345.2 L951.3,344.6 L951.5,378.1 L951.7,361.0 L952.0,361.2 L952.2,366.9 L952.4,373.0 L952.7,358.3 L952.9,354.7 L953.1,367.9 L953.4,356.4 L953.6,375.2 L953.8,357.2 L954.1,362.7 L954.3,381.9 L954.5,365.2 L954.7,365.8 L955.0,361.1 L955.2,367.1 L955.4,384.5 L955.7,375.9 L955.9,383.6 L956.1,358.7 L956.4,356.5 L956.6,385.8 L956.8,359.1 L957.1,377.4 L957.3,377.2 L957.5,384.9 L957.8,366.2 L958.0,381.2 L958.2,363.8 L958.4,371.0 L958.7,363.0 L958.9,356.1 L959.1,378.5 L959.4,361.0 L959.6,371.1 L959.8,375.0 L960.1,357.4 L960.3,359.1 L960.5,388.8 L960.8,365.6 L961.0,369.0 L961.2,361.1 L961.5,376.6 L961.7,384.0 L961.9,361.6 L962.1,377.1 L962.4,361.7 L962.6,393.3 L962.8,363.8 L963.1,384.3 L963.3,379.0 L963.5,388.4 L963.8,393.7 L964.0,391.0 L964.2,395.1 L964.5,367.0 L964.7,382.9 L964.9,364.4 L965.2,391.8 L965.4,381.6 L965.6,396.5 L965.8,378.1 L966.1,383.9 L966.3,388.8 L966.5,366.7 L966.8,375.4 L967.0,392.4 L967.2,381.8 L967.5,374.9 L967.7,398.4 L967.9,389.6 L968.2,396.0 L968.4,381.2 L968.6,398.6 L968.8,389.1 L969.1,370.6 L969.3,395.9 L969.5,374.2 L969.8,402.4 L970.0,377.7 L970.2,387.4 L970.5,373.2 L970.7,380.3 L970.9,393.5 L971.2,386.7 L971.4,374.2 L971.6,377.9 L971.9,381.0 L972.1,379.3 L972.3,378.4 L972.5,377.3 L972.8,382.2 L973.0,385.6 L973.2,391.4 L973.5,402.7 L973.7,404.1 L973.9,400.3 L974.2,397.1 L974.4,406.6 L974.6,383.4 L974.9,379.3 L975.1,392.2 L975.3,399.4 L975.6,385.8 L975.8,400.0 L976.0,384.1 L976.2,392.6 L976.5,408.4 L976.7,389.1 L976.9,396.4 L977.2,405.0 L977.4,396.6 L977.6,399.5 L977.9,401.9 L978.1,383.1 L978.3,385.0 L978.6,385.2 L978.8,385.3 L979.0,412.0 L979.3,409.1 L979.5,410.1 L979.7,386.1 L979.9,414.7 L980.2,405.4 L980.4,390.1 L980.6,402.2 L980.9,403.8 L981.1,414.1 L981.3,390.9 L981.6,393.9 L981.8,389.7 L982.0,394.0 L982.3,398.2 L982.5,390.9 L982.7,394.5 L983.0,405.9 L983.2,397.4 L983.4,391.4 L983.6,405.4 L983.9,405.1 L984.1,408.2 L984.3,406.3 L984.6,416.8 L984.8,394.4 L985.0,414.4 L985.3,394.6 L985.5,418.1 L985.7,395.2 L986.0,405.8 L986.2,401.6 L986.4,421.1 L986.7,402.4 L986.9,406.6 L987.1,401.2 L987.3,398.4 L987.6,406.6 L987.8,403.9 L988.0,416.5 L988.3,425.0 L988.5,418.1 L988.7,403.3 L989.0,415.2 L989.2,412.7 L989.4,415.0 L989.7,412.7 L989.9,413.3 L990.1,415.3 L990.4,422.6 L990.6,425.5 L990.8,426.5 L991.0,421.0 L991.3,417.9 L991.5,403.2 L991.7,422.7 L992.0,417.6 L992.2,405.2 L992.4,412.9 L992.7,413.7 L992.9,413.2 L993.1,415.6 L993.4,408.0 L993.6,413.3 L993.8,420.7 L994.1,419.5 L994.3,419.8 L994.5,412.5 L994.7,411.1 L995.0,413.5 L995.2,413.9 L995.4,411.3 L995.7,414.2 L995.9,434.5 L996.1,415.0 L996.4,429.3 L996.6,418.9 L996.8,425.6 L997.1,424.3 L997.3,413.6 L997.5,427.5 L997.8,414.8 L998.0,427.3 L998.2,417.6 L998.4,416.5 L998.7,427.6 L998.9,429.7 L999.1,420.3 L999.4,438.0 L999.6,428.6 L999.8,429.6 L1000.1,422.3 L1000.3,426.2 L1000.5,431.5 L1000.8,418.0 L1001.0,439.6 L1001.2,439.7 L1001.5,431.7 L1001.7,437.0 L1001.9,428.2 L1002.1,420.0 L1002.4,440.6 L1002.6,426.0 L1002.8,422.3 L1003.1,442.2 L1003.3,443.3 L1003.5,429.1 L1003.8,438.0 L1004.0,423.8 L1004.2,439.8 L1004.5,425.2 L1004.7,440.9 L1004.9,430.6 L1005.2,439.8 L1005.4,440.3 L1005.6,425.9 L1005.8,435.7 L1006.1,426.8 L1006.3,446.1 L1006.5,425.7 L1006.8,446.6 L1007.0,437.5 L1007.2,442.7 L1007.5,436.8 L1007.7,432.4 L1007.9,440.5 L1008.2,445.9 L1008.4,449.4 L1008.6,439.4 L1008.9,438.9 L1009.1,444.1 L1009.3,447.7 L1009.5,445.5 L1009.8,430.7 L1010.0,434.5 L1010.2,450.6 L1010.5,431.8 L1010.7,451.3 L1010.9,435.2 L1011.2,437.8 L1011.4,437.9 L1011.6,449.0 L1011.9,450.8 L1012.1,452.4 L1012.3,441.0 L1012.6,441.2 L1012.8,443.7 L1013.0,451.7 L1013.2,446.9 L1013.5,440.5 L1013.7,439.4 L1013.9,442.8 L1014.2,448.8 L1014.4,451.8 L1014.6,447.7 L1014.9,453.0 L1015.1,445.7 L1015.3,443.4 L1015.6,444.5 L1015.8,451.5 L1016.0,447.9 L1016.3,456.4 L1016.5,443.7 L1016.7,441.0 L1016.9,446.2 L1017.2,446.0 L1017.4,450.4 L1017.6,456.9 L1017.9,450.8 L1018.1,454.2 L1018.3,450.1 L1018.6,449.4 L1018.8,458.1 L1019.0,454.4 L1019.3,455.3 L1019.5,459.4 L1019.7,445.3 L1020.0,448.6 L1020.2,445.8 L1020.4,451.0 L1020.6,460.5 L1020.9,459.2 L1021.1,465.3 L1021.3,452.5 L1021.6,464.4 L1021.8,450.7 L1022.0,463.2 L1022.3,450.9 L1022.5,467.0 L1022.7,464.5 L1023.0,463.2 L1023.2,463.7 L1023.4,451.6 L1023.7,459.8 L1023.9,461.9 L1024.1,463.1 L1024.3,453.3 L1024.6,464.7 L1024.8,462.6 L1025.0,468.7 L1025.3,455.1 L1025.5,455.9 L1025.7,455.4 L1026.0,464.8 L1026.2,455.7 L1026.4,468.4 L1026.7,460.7 L1026.9,461.7 L1027.1,459.3 L1027.3,470.4 L1027.6,463.0 L1027.8,462.8 L1028.0,465.0 L1028.3,458.2 L1028.5,459.2 L1028.7,471.8 L1029.0,470.4 L1029.2,474.5 L1029.4,460.7 L1029.7,474.3 L1029.9,470.5 L1030.1,463.3 L1030.4,474.5 L1030.6,477.2 L1030.8,462.7 L1031.0,466.1 L1031.3,474.4 L1031.5,476.5 L1031.7,465.1 L1032.0,468.3 L1032.2,466.0 L1032.4,478.4 L1032.7,471.6 L1032.9,466.8 L1033.1,468.1 L1033.4,476.6 L1033.6,472.2 L1033.8,479.9 L1034.1,476.3 L1034.3,473.9 L1034.5,481.4 L1034.7,469.3 L1035.0,468.4 L1035.2,479.1 L1035.4,475.5 L1035.7,479.0 L1035.9,481.1 L1036.1,472.9 L1036.4,472.4 L1036.6,483.9 L1036.8,479.4 L1037.1,475.4 L1037.3,484.1 L1037.5,478.3 L1037.8,477.3 L1038.0,485.1 L1038.2,484.1 L1038.4,484.7 L1038.7,479.3 L1038.9,484.9 L1039.1,484.8 L1039.4,476.6 L1039.6,482.7 L1039.8,478.8 L1040.1,485.2 L1040.3,477.9 L1040.5,483.3 L1040.8,477.7 L1041.0,485.5 L1041.2,483.4 L1041.5,479.5 L1041.7,491.0 L1041.9,489.1 L1042.1,480.1 L1042.4,491.7 L1042.6,481.5 L1042.8,480.8 L1043.1,484.5 L1043.3,480.9 L1043.5,481.3 L1043.8,490.5 L1044.0,484.7 L1044.2,489.6 L1044.5,492.5 L1044.7,488.5 L1044.9,484.0 L1045.2,490.9 L1045.4,485.6 L1045.6,484.5 L1045.8,485.9 L1046.1,489.6 L1046.3,485.5 L1046.5,491.7 L1046.8,488.0 L1047.0,497.1 L1047.2,490.3 L1047.5,493.0 L1047.7,494.1 L1047.9,494.7 L1048.2,498.1 L1048.4,489.7 L1048.6,492.7 L1048.9,494.1 L1049.1,493.6 L1049.3,491.2 L1049.5,496.9 L1049.8,491.7 L1050.0,501.1 L1050.2,500.7 L1050.5,497.3 L1050.7,498.3 L1050.9,500.5 L1051.2,497.5 L1051.4,496.7 L1051.6,497.2 L1051.9,498.6 L1052.1,502.2 L1052.3,496.1 L1052.6,501.2 L1052.8,497.0 L1053.0,496.8 L1053.2,505.3 L1053.5,500.9 L1053.7,504.3 L1053.9,503.5 L1054.2,505.3 L1054.4,502.7 L1054.6,505.1 L1054.9,498.7 L1055.1,501.6 L1055.3,501.0 L1055.6,507.2 L1055.8,501.7 L1056.0,503.8 L1056.3,502.8 L1056.5,501.6 L1056.7,503.5 L1056.9,502.5 L1057.2,507.5 L1057.4,505.0 L1057.6,508.9 L1057.9,507.9 L1058.1,509.8 L1058.3,510.0 L1058.6,506.5 L1058.8,510.4 L1059.0,512.2 L1059.3,508.5 L1059.5,508.2 L1059.7,511.1 L1060.0,509.1 L1060.2,513.1 L1060.4,507.7 L1060.6,511.9 L1060.9,508.7 L1061.1,509.6 L1061.3,510.3 L1061.6,512.3 L1061.8,510.6 L1062.0,510.1 L1062.3,516.4 L1062.5,516.7 L1062.7,513.3 L1063.0,517.2 L1063.2,517.6 L1063.4,516.9 L1063.7,514.5 L1063.9,518.7 L1064.1,514.0 L1064.3,515.1 L1064.6,518.1 L1064.8,514.3 L1065.0,516.4 L1065.3,518.0 L1065.5,517.1 L1065.7,518.7 L1066.0,518.4 L1066.2,518.7 L1066.4,521.4 L1066.7,519.4 L1066.9,521.2 L1067.1,522.3 L1067.4,520.1 L1067.6,522.6 L1067.8,519.2 L1068.0,523.9 L1068.3,519.8 L1068.5,520.4 L1068.7,522.7 L1069.0,524.9 L1069.2,522.0 L1069.4,523.8 L1069.7,524.0 L1069.9,521.6 L1070.1,521.9 L1070.4,524.6 L1070.6,522.9 L1070.8,524.8 L1071.1,524.8 L1071.3,524.2 L1071.5,527.6 L1071.7,524.9 L1072.0,528.6 L1072.2,526.6 L1072.4,525.6 L1072.7,529.8 L1072.9,528.6 L1073.1,528.7 L1073.4,530.6 L1073.6,530.5 L1073.8,531.2 L1074.1,528.3 L1074.3,531.7 L1074.5,532.0 L1074.8,529.9 L1075.0,531.9 L1075.2,531.1 L1075.4,530.4 L1075.7,532.4 L1075.9,533.4 L1076.1,531.1 L1076.4,532.3 L1076.6,531.9 L1076.8,535.1 L1077.1,535.0 L1077.3,534.9 L1077.5,534.9 L1077.8,535.5 L1078.0,535.6 L1078.2,536.8 L1078.5,535.0 L1078.7,536.8 L1078.9,535.3 L1079.1,536.8 L1079.4,537.7 L1079.6,537.7 L1079.8,537.7 L1080.1,538.9 L1080.3,537.9 L1080.5,539.2 L1080.8,539.5 L1081.0,539.2 L1081.2,538.9 L1081.5,539.3 L1081.7,539.9 L1081.9,540.7 L1082.2,540.3 L1082.4,540.8 L1082.6,542.1 L1082.8,542.4 L1083.1,541.8 L1083.3,543.2 L1083.5,543.3 L1083.8,543.1 L1084.0,543.5" fill="none" stroke="#1f77b4" stroke-width="1.4" opacity="0.85"/><text x="1040" y="54" fill="#ff7f0e" font-size="11">roll 0</text><text x="1090" y="558" fill="#ff7f0e" font-size="11">-0</text><path d="M616.0,310.0 L616.2,310.0 L616.5,193.0 L616.7,193.0 L616.9,427.0 L617.2,310.0 L617.4,427.0 L617.6,310.0 L617.8,310.0 L618.1,310.0 L618.3,310.0 L618.5,310.0 L618.8,310.0 L619.0,193.0 L619.2,310.0 L619.5,310.0 L619.7,193.0 L619.9,427.0 L620.2,193.0 L620.4,310.0 L620.6,310.0 L620.9,310.0 L621.1,310.0 L621.3,193.0 L621.5,310.0 L621.8,310.0 L622.0,427.0 L622.2,427.0 L622.5,310.0 L622.7,427.0 L622.9,310.0 L623.2,193.0 L623.4,427.0 L623.6,310.0 L623.9,310.0 L624.1,193.0 L624.3,193.0 L624.6,427.0 L624.8,310.0 L625.0,310.0 L625.2,427.0 L625.5,193.0 L625.7,193.0 L625.9,427.0 L626.2,310.0 L626.4,310.0 L626.6,310.0 L626.9,427.0 L627.1,310.0 L627.3,193.0 L627.6,427.0 L627.8,310.0 L628.0,310.0 L628.3,310.0 L628.5,193.0 L628.7,193.0 L628.9,193.0 L629.2,310.0 L629.4,310.0 L629.6,310.0 L629.9,310.0 L630.1,427.0 L630.3,193.0 L630.6,310.0 L630.8,427.0 L631.0,310.0 L631.3,427.0 L631.5,310.0 L631.7,427.0 L632.0,427.0 L632.2,427.0 L632.4,193.0 L632.6,427.0 L632.9,193.0 L633.1,310.0 L633.3,310.0 L633.6,310.0 L633.8,310.0 L634.0,310.0 L634.3,193.0 L634.5,310.0 L634.7,427.0 L635.0,193.0 L635.2,193.0 L635.4,193.0 L635.7,310.0 L635.9,193.0 L636.1,427.0 L636.3,193.0 L636.6,193.0 L636.8,427.0 L637.0,310.0 L637.3,310.0 L637.5,310.0 L637.7,427.0 L638.0,310.0 L638.2,427.0 L638.4,427.0 L638.7,427.0 L638.9,193.0 L639.1,193.0 L639.4,310.0 L639.6,427.0 L639.8,427.0 L640.0,427.0 L640.3,310.0 L640.5,427.0 L640.7,427.0 L641.0,193.0 L641.2,310.0 L641.4,310.0 L641.7,427.0 L641.9,193.0 L642.1,310.0 L642.4,310.0 L642.6,427.0 L642.8,310.0 L643.1,427.0 L643.3,310.0 L643.5,427.0 L643.7,310.0 L644.0,310.0 L644.2,310.0 L644.4,310.0 L644.7,427.0 L644.9,310.0 L645.1,310.0 L645.4,310.0 L645.6,193.0 L645.8,193.0 L646.1,310.0 L646.3,310.0 L646.5,193.0 L646.8,310.0 L647.0,193.0 L647.2,310.0 L647.4,427.0 L647.7,310.0 L647.9,193.0 L648.1,310.0 L648.4,427.0 L648.6,310.0 L648.8,427.0 L649.1,310.0 L649.3,193.0 L649.5,310.0 L649.8,427.0 L650.0,310.0 L650.2,193.0 L650.5,193.0 L650.7,310.0 L650.9,310.0 L651.1,427.0 L651.4,310.0 L651.6,427.0 L651.8,427.0 L652.1,427.0 L652.3,310.0 L652.5,310.0 L652.8,310.0 L653.0,310.0 L653.2,310.0 L653.5,310.0 L653.7,310.0 L653.9,427.0 L654.2,427.0 L654.4,193.0 L654.6,427.0 L654.8,193.0 L655.1,310.0 L655.3,310.0 L655.5,310.0 L655.8,310.0 L656.0,310.0 L656.2,427.0 L656.5,310.0 L656.7,310.0 L656.9,310.0 L657.2,310.0 L657.4,427.0 L657.6,193.0 L657.9,310.0 L658.1,427.0 L658.3,427.0 L658.5,310.0 L658.8,427.0 L659.0,310.0 L659.2,310.0 L659.5,310.0 L659.7,193.0 L659.9,310.0 L660.2,193.0 L660.4,310.0 L660.6,427.0 L660.9,310.0 L661.1,310.0 L661.3,427.0 L661.6,310.0 L661.8,310.0 L662.0,193.0 L662.2,427.0 L662.5,193.0 L662.7,427.0 L662.9,193.0 L663.2,427.0 L663.4,193.0 L663.6,427.0 L663.9,310.0 L664.1,310.0 L664.3,310.0 L664.6,193.0 L664.8,427.0 L665.0,310.0 L665.3,427.0 L665.5,310.0 L665.7,193.0 L665.9,193.0 L666.2,193.0 L666.4,193.0 L666.6,310.0 L666.9,310.0 L667.1,427.0 L667.3,427.0 L667.6,427.0 L667.8,310.0 L668.0,310.0 L668.3,193.0 L668.5,310.0 L668.7,193.0 L669.0,310.0 L669.2,193.0 L669.4,427.0 L669.6,310.0 L669.9,310.0 L670.1,310.0 L670.3,310.0 L670.6,193.0 L670.8,310.0 L671.0,310.0 L671.3,193.0 L671.5,310.0 L671.7,310.0 L672.0,193.0 L672.2,310.0 L672.4,427.0 L672.7,310.0 L672.9,193.0 L673.1,310.0 L673.3,310.0 L673.6,193.0 L673.8,193.0 L674.0,310.0 L674.3,310.0 L674.5,193.0 L674.7,310.0 L675.0,427.0 L675.2,310.0 L675.4,193.0 L675.7,310.0 L675.9,427.0 L676.1,193.0 L676.3,193.0 L676.6,310.0 L676.8,193.0 L677.0,427.0 L677.3,310.0 L677.5,193.0 L677.7,310.0 L678.0,310.0 L678.2,427.0 L678.4,193.0 L678.7,193.0 L678.9,310.0 L679.1,427.0 L679.4,310.0 L679.6,193.0 L679.8,427.0 L680.0,310.0 L680.3,310.0 L680.5,193.0 L680.7,193.0 L681.0,310.0 L681.2,310.0 L681.4,193.0 L681.7,427.0 L681.9,193.0 L682.1,310.0 L682.4,310.0 L682.6,310.0 L682.8,193.0 L683.1,310.0 L683.3,193.0 L683.5,193.0 L683.7,193.0 L684.0,427.0 L684.2,427.0 L684.4,310.0 L684.7,427.0 L684.9,310.0 L685.1,193.0 L685.4,427.0 L685.6,427.0 L685.8,427.0 L686.1,310.0 L686.3,310.0 L686.5,310.0 L686.8,427.0 L687.0,310.0 L687.2,310.0 L687.4,427.0 L687.7,193.0 L687.9,310.0 L688.1,193.0 L688.4,310.0 L688.6,427.0 L688.8,193.0 L689.1,310.0 L689.3,427.0 L689.5,427.0 L689.8,427.0 L690.0,310.0 L690.2,310.0 L690.5,310.0 L690.7,310.0 L690.9,310.0 L691.1,193.0 L691.4,427.0 L691.6,310.0 L691.8,310.0 L692.1,427.0 L692.3,310.0 L692.5,427.0 L692.8,193.0 L693.0,310.0 L693.2,193.0 L693.5,427.0 L693.7,310.0 L693.9,193.0 L694.2,193.0 L694.4,310.0 L694.6,310.0 L694.8,310.0 L695.1,427.0 L695.3,310.0 L695.5,193.0 L695.8,427.0 L696.0,310.0 L696.2,193.0 L696.5,310.0 L696.7,310.0 L696.9,427.0 L697.2,427.0 L697.4,427.0 L697.6,193.0 L697.9,427.0 L698.1,310.0 L698.3,193.0 L698.5,310.0 L698.8,427.0 L699.0,310.0 L699.2,427.0 L699.5,193.0 L699.7,310.0 L699.9,310.0 L700.2,310.0 L700.4,427.0 L700.6,310.0 L700.9,193.0 L701.1,427.0 L701.3,310.0 L701.6,427.0 L701.8,310.0 L702.0,427.0 L702.2,427.0 L702.5,193.0 L702.7,193.0 L702.9,310.0 L703.2,427.0 L703.4,310.0 L703.6,427.0 L703.9,193.0 L704.1,310.0 L704.3,427.0 L704.6,310.0 L704.8,427.0 L705.0,310.0 L705.3,310.0 L705.5,193.0 L705.7,310.0 L705.9,193.0 L706.2,427.0 L706.4,310.0 L706.6,310.0 L706.9,310.0 L707.1,310.0 L707.3,310.0 L707.6,310.0 L707.8,310.0 L708.0,310.0 L708.3,310.0 L708.5,310.0 L708.7,427.0 L709.0,310.0 L709.2,310.0 L709.4,310.0 L709.6,310.0 L709.9,427.0 L710.1,427.0 L710.3,193.0 L710.6,310.0 L710.8,193.0 L711.0,427.0 L711.3,193.0 L711.5,310.0 L711.7,193.0 L712.0,310.0 L712.2,310.0 L712.4,310.0 L712.7,427.0 L712.9,193.0 L713.1,310.0 L713.3,310.0 L713.6,310.0 L713.8,193.0 L714.0,310.0 L714.3,193.0 L714.5,427.0 L714.7,310.0 L715.0,427.0 L715.2,193.0 L715.4,310.0 L715.7,427.0 L715.9,193.0 L716.1,193.0 L716.4,310.0 L716.6,310.0 L716.8,427.0 L717.0,193.0 L717.3,310.0 L717.5,193.0 L717.7,310.0 L718.0,310.0 L718.2,193.0 L718.4,310.0 L718.7,193.0 L718.9,310.0 L719.1,193.0 L719.4,427.0 L719.6,193.0 L719.8,310.0 L720.1,310.0 L720.3,310.0 L720.5,427.0 L720.7,310.0 L721.0,193.0 L721.2,427.0 L721.4,193.0 L721.7,310.0 L721.9,193.0 L722.1,427.0 L722.4,193.0 L722.6,310.0 L722.8,310.0 L723.1,193.0 L723.3,193.0 L723.5,427.0 L723.8,193.0 L724.0,427.0 L724.2,427.0 L724.4,310.0 L724.7,193.0 L724.9,427.0 L725.1,310.0 L725.4,310.0 L725.6,427.0 L725.8,427.0 L726.1,193.0 L726.3,310.0 L726.5,310.0 L726.8,310.0 L727.0,193.0 L727.2,310.0 L727.5,427.0 L727.7,310.0 L727.9,310.0 L728.1,193.0 L728.4,427.0 L728.6,193.0 L728.8,310.0 L729.1,310.0 L729.3,310.0 L729.5,193.0 L729.8,427.0 L730.0,310.0 L730.2,193.0 L730.5,310.0 L730.7,193.0 L730.9,310.0 L731.2,310.0 L731.4,427.0 L731.6,310.0 L731.8,427.0 L732.1,193.0 L732.3,193.0 L732.5,310.0 L732.8,427.0 L733.0,310.0 L733.2,310.0 L733.5,193.0 L733.7,310.0 L733.9,427.0 L734.2,310.0 L734.4,427.0 L734.6,193.0 L734.8,310.0 L735.1,193.0 L735.3,310.0 L735.5,310.0 L735.8,193.0 L736.0,427.0 L736.2,310.0 L736.5,427.0 L736.7,310.0 L736.9,310.0 L737.2,310.0 L737.4,310.0 L737.6,310.0 L737.9,310.0 L738.1,310.0 L738.3,193.0 L738.5,310.0 L738.8,310.0 L739.0,310.0 L739.2,310.0 L739.5,310.0 L739.7,310.0 L739.9,310.0 L740.2,193.0 L740.4,427.0 L740.6,193.0 L740.9,310.0 L741.1,427.0 L741.3,193.0 L741.6,193.0 L741.8,193.0 L742.0,310.0 L742.2,310.0 L742.5,310.0 L742.7,193.0 L742.9,310.0 L743.2,310.0 L743.4,193.0 L743.6,310.0 L743.9,193.0 L744.1,427.0 L744.3,76.0 L744.6,427.0 L744.8,193.0 L745.0,310.0 L745.3,310.0 L745.5,310.0 L745.7,193.0 L745.9,427.0 L746.2,310.0 L746.4,310.0 L746.6,193.0 L746.9,193.0 L747.1,310.0 L747.3,193.0 L747.6,427.0 L747.8,310.0 L748.0,427.0 L748.3,427.0 L748.5,310.0 L748.7,427.0 L749.0,310.0 L749.2,310.0 L749.4,427.0 L749.6,193.0 L749.9,193.0 L750.1,310.0 L750.3,310.0 L750.6,310.0 L750.8,310.0 L751.0,427.0 L751.3,193.0 L751.5,310.0 L751.7,310.0 L752.0,310.0 L752.2,310.0 L752.4,193.0 L752.7,310.0 L752.9,427.0 L753.1,310.0 L753.3,193.0 L753.6,427.0 L753.8,193.0 L754.0,193.0 L754.3,310.0 L754.5,427.0 L754.7,193.0 L755.0,193.0 L755.2,310.0 L755.4,310.0 L755.7,193.0 L755.9,193.0 L756.1,310.0 L756.4,310.0 L756.6,310.0 L756.8,427.0 L757.0,310.0 L757.3,193.0 L757.5,310.0 L757.7,310.0 L758.0,310.0 L758.2,427.0 L758.4,310.0 L758.7,310.0 L758.9,427.0 L759.1,310.0 L759.4,427.0 L759.6,310.0 L759.8,193.0 L760.1,427.0 L760.3,310.0 L760.5,193.0 L760.7,310.0 L761.0,193.0 L761.2,310.0 L761.4,427.0 L761.7,310.0 L761.9,427.0 L762.1,310.0 L762.4,427.0 L762.6,310.0 L762.8,310.0 L763.1,310.0 L763.3,193.0 L763.5,310.0 L763.8,427.0 L764.0,193.0 L764.2,310.0 L764.4,193.0 L764.7,427.0 L764.9,193.0 L765.1,193.0 L765.4,193.0 L765.6,193.0 L765.8,427.0 L766.1,193.0 L766.3,310.0 L766.5,427.0 L766.8,427.0 L767.0,310.0 L767.2,193.0 L767.5,310.0 L767.7,427.0 L767.9,310.0 L768.1,427.0 L768.4,310.0 L768.6,310.0 L768.8,310.0 L769.1,310.0 L769.3,310.0 L769.5,310.0 L769.8,310.0 L770.0,193.0 L770.2,310.0 L770.5,310.0 L770.7,427.0 L770.9,310.0 L771.2,310.0 L771.4,193.0 L771.6,310.0 L771.8,310.0 L772.1,310.0 L772.3,310.0 L772.5,310.0 L772.8,427.0 L773.0,310.0 L773.2,310.0 L773.5,310.0 L773.7,310.0 L773.9,310.0 L774.2,427.0 L774.4,427.0 L774.6,310.0 L774.9,427.0 L775.1,310.0 L775.3,427.0 L775.5,193.0 L775.8,310.0 L776.0,193.0 L776.2,427.0 L776.5,193.0 L776.7,310.0 L776.9,193.0 L777.2,193.0 L777.4,310.0 L777.6,427.0 L777.9,193.0 L778.1,427.0 L778.3,193.0 L778.6,310.0 L778.8,310.0 L779.0,310.0 L779.2,427.0 L779.5,310.0 L779.7,310.0 L779.9,310.0 L780.2,193.0 L780.4,427.0 L780.6,310.0 L780.9,427.0 L781.1,193.0 L781.3,427.0 L781.6,193.0 L781.8,310.0 L782.0,310.0 L782.3,193.0 L782.5,427.0 L782.7,310.0 L782.9,310.0 L783.2,310.0 L783.4,193.0 L783.6,427.0 L783.9,193.0 L784.1,427.0 L784.3,310.0 L784.6,427.0 L784.8,310.0 L785.0,310.0 L785.3,310.0 L785.5,193.0 L785.7,310.0 L786.0,310.0 L786.2,193.0 L786.4,193.0 L786.6,310.0 L786.9,193.0 L787.1,310.0 L787.3,193.0 L787.6,427.0 L787.8,310.0 L788.0,310.0 L788.3,427.0 L788.5,193.0 L788.7,427.0 L789.0,193.0 L789.2,310.0 L789.4,310.0 L789.7,310.0 L789.9,193.0 L790.1,310.0 L790.3,193.0 L790.6,310.0 L790.8,310.0 L791.0,310.0 L791.3,310.0 L791.5,310.0 L791.7,193.0 L792.0,193.0 L792.2,193.0 L792.4,427.0 L792.7,310.0 L792.9,310.0 L793.1,310.0 L793.3,310.0 L793.6,193.0 L793.8,310.0 L794.0,310.0 L794.3,427.0 L794.5,310.0 L794.7,427.0 L795.0,310.0 L795.2,427.0 L795.4,193.0 L795.7,310.0 L795.9,310.0 L796.1,310.0 L796.4,427.0 L796.6,310.0 L796.8,310.0 L797.0,310.0 L797.3,427.0 L797.5,310.0 L797.7,193.0 L798.0,427.0 L798.2,193.0 L798.4,310.0 L798.7,193.0 L798.9,427.0 L799.1,310.0 L799.4,193.0 L799.6,310.0 L799.8,193.0 L800.1,193.0 L800.3,310.0 L800.5,427.0 L800.7,193.0 L801.0,310.0 L801.2,310.0 L801.4,193.0 L801.7,310.0 L801.9,310.0 L802.1,427.0 L802.4,427.0 L802.6,427.0 L802.8,310.0 L803.1,427.0 L803.3,193.0 L803.5,310.0 L803.8,310.0 L804.0,310.0 L804.2,310.0 L804.4,427.0 L804.7,310.0 L804.9,427.0 L805.1,193.0 L805.4,427.0 L805.6,193.0 L805.8,427.0 L806.1,310.0 L806.3,427.0 L806.5,193.0 L806.8,310.0 L807.0,427.0 L807.2,310.0 L807.5,310.0 L807.7,310.0 L807.9,310.0 L808.1,310.0 L808.4,310.0 L808.6,310.0 L808.8,427.0 L809.1,310.0 L809.3,193.0 L809.5,310.0 L809.8,310.0 L810.0,310.0 L810.2,310.0 L810.5,193.0 L810.7,427.0 L810.9,310.0 L811.2,310.0 L811.4,427.0 L811.6,427.0 L811.8,427.0 L812.1,193.0 L812.3,427.0 L812.5,427.0 L812.8,427.0 L813.0,310.0 L813.2,310.0 L813.5,310.0 L813.7,310.0 L813.9,427.0 L814.2,310.0 L814.4,193.0 L814.6,310.0 L814.9,193.0 L815.1,427.0 L815.3,427.0 L815.5,193.0 L815.8,193.0 L816.0,310.0 L816.2,427.0 L816.5,427.0 L816.7,310.0 L816.9,427.0 L817.2,310.0 L817.4,310.0 L817.6,310.0 L817.9,427.0 L818.1,310.0 L818.3,427.0 L818.6,193.0 L818.8,427.0 L819.0,427.0 L819.2,310.0 L819.5,310.0 L819.7,193.0 L819.9,427.0 L820.2,310.0 L820.4,427.0 L820.6,193.0 L820.9,310.0 L821.1,310.0 L821.3,193.0 L821.6,427.0 L821.8,427.0 L822.0,310.0 L822.3,427.0 L822.5,310.0 L822.7,310.0 L822.9,193.0 L823.2,310.0 L823.4,427.0 L823.6,193.0 L823.9,310.0 L824.1,310.0 L824.3,310.0 L824.6,427.0 L824.8,310.0 L825.0,310.0 L825.3,427.0 L825.5,310.0 L825.7,427.0 L826.0,427.0 L826.2,427.0 L826.4,427.0 L826.6,193.0 L826.9,310.0 L827.1,310.0 L827.3,310.0 L827.6,310.0 L827.8,427.0 L828.0,310.0 L828.3,310.0 L828.5,310.0 L828.7,193.0 L829.0,310.0 L829.2,310.0 L829.4,310.0 L829.7,193.0 L829.9,310.0 L830.1,193.0 L830.3,310.0 L830.6,310.0 L830.8,310.0 L831.0,310.0 L831.3,193.0 L831.5,427.0 L831.7,310.0 L832.0,310.0 L832.2,310.0 L832.4,427.0 L832.7,193.0 L832.9,310.0 L833.1,76.0 L833.4,193.0 L833.6,310.0 L833.8,310.0 L834.0,310.0 L834.3,427.0 L834.5,310.0 L834.7,310.0 L835.0,193.0 L835.2,427.0 L835.4,193.0 L835.7,310.0 L835.9,193.0 L836.1,193.0 L836.4,427.0 L836.6,427.0 L836.8,193.0 L837.1,310.0 L837.3,193.0 L837.5,427.0 L837.7,310.0 L838.0,427.0 L838.2,193.0 L838.4,310.0 L838.7,310.0 L838.9,193.0 L839.1,310.0 L839.4,310.0 L839.6,310.0 L839.8,193.0 L840.1,310.0 L840.3,427.0 L840.5,193.0 L840.8,310.0 L841.0,310.0 L841.2,427.0 L841.4,193.0 L841.7,427.0 L841.9,193.0 L842.1,310.0 L842.4,310.0 L842.6,310.0 L842.8,310.0 L843.1,310.0 L843.3,427.0 L843.5,310.0 L843.8,310.0 L844.0,310.0 L844.2,193.0 L844.5,427.0 L844.7,310.0 L844.9,427.0 L845.1,310.0 L845.4,310.0 L845.6,427.0 L845.8,310.0 L846.1,310.0 L846.3,427.0 L846.5,310.0 L846.8,427.0 L847.0,427.0 L847.2,427.0 L847.5,193.0 L847.7,310.0 L847.9,310.0 L848.2,427.0 L848.4,193.0 L848.6,427.0 L848.8,427.0 L849.1,427.0 L849.3,427.0 L849.5,427.0 L849.8,427.0 L850.0,310.0 L850.2,427.0 L850.5,427.0 L850.7,310.0 L850.9,427.0 L851.2,193.0 L851.4,310.0 L851.6,427.0 L851.8,310.0 L852.1,310.0 L852.3,310.0 L852.5,193.0 L852.8,427.0 L853.0,310.0 L853.2,310.0 L853.5,193.0 L853.7,310.0 L853.9,193.0 L854.2,427.0 L854.4,310.0 L854.6,427.0 L854.9,193.0 L855.1,310.0 L855.3,310.0 L855.5,310.0 L855.8,427.0 L856.0,193.0 L856.2,193.0 L856.5,310.0 L856.7,193.0 L856.9,310.0 L857.2,310.0 L857.4,193.0 L857.6,427.0 L857.9,310.0 L858.1,310.0 L858.3,427.0 L858.6,193.0 L858.8,310.0 L859.0,310.0 L859.2,310.0 L859.5,310.0 L859.7,193.0 L859.9,310.0 L860.2,310.0 L860.4,427.0 L860.6,310.0 L860.9,310.0 L861.1,427.0 L861.3,310.0 L861.6,193.0 L861.8,427.0 L862.0,310.0 L862.3,310.0 L862.5,310.0 L862.7,427.0 L862.9,193.0 L863.2,310.0 L863.4,310.0 L863.6,427.0 L863.9,193.0 L864.1,427.0 L864.3,427.0 L864.6,310.0 L864.8,193.0 L865.0,193.0 L865.3,427.0 L865.5,193.0 L865.7,310.0 L866.0,310.0 L866.2,193.0 L866.4,310.0 L866.6,193.0 L866.9,193.0 L867.1,310.0 L867.3,193.0 L867.6,193.0 L867.8,193.0 L868.0,310.0 L868.3,310.0 L868.5,310.0 L868.7,310.0 L869.0,193.0 L869.2,427.0 L869.4,193.0 L869.7,310.0 L869.9,310.0 L870.1,427.0 L870.3,427.0 L870.6,310.0 L870.8,427.0 L871.0,427.0 L871.3,427.0 L871.5,193.0 L871.7,427.0 L872.0,427.0 L872.2,310.0 L872.4,310.0 L872.7,427.0 L872.9,310.0 L873.1,310.0 L873.4,310.0 L873.6,193.0 L873.8,193.0 L874.0,310.0 L874.3,427.0 L874.5,310.0 L874.7,310.0 L875.0,310.0 L875.2,427.0 L875.4,310.0 L875.7,310.0 L875.9,310.0 L876.1,310.0 L876.4,310.0 L876.6,193.0 L876.8,310.0 L877.1,310.0 L877.3,193.0 L877.5,310.0 L877.7,193.0 L878.0,310.0 L878.2,193.0 L878.4,310.0 L878.7,310.0 L878.9,310.0 L879.1,310.0 L879.4,193.0 L879.6,427.0 L879.8,193.0 L880.1,310.0 L880.3,310.0 L880.5,193.0 L880.8,310.0 L881.0,427.0 L881.2,310.0 L881.4,427.0 L881.7,310.0 L881.9,310.0 L882.1,427.0 L882.4,193.0 L882.6,427.0 L882.8,193.0 L883.1,427.0 L883.3,193.0 L883.5,193.0 L883.8,310.0 L884.0,427.0 L884.2,193.0 L884.5,310.0 L884.7,193.0 L884.9,427.0 L885.1,427.0 L885.4,310.0 L885.6,427.0 L885.8,193.0 L886.1,427.0 L886.3,193.0 L886.5,310.0 L886.8,310.0 L887.0,427.0 L887.2,310.0 L887.5,310.0 L887.7,427.0 L887.9,193.0 L888.2,310.0 L888.4,427.0 L888.6,310.0 L888.8,310.0 L889.1,310.0 L889.3,310.0 L889.5,427.0 L889.8,193.0 L890.0,310.0 L890.2,310.0 L890.5,310.0 L890.7,310.0 L890.9,310.0 L891.2,427.0 L891.4,193.0 L891.6,427.0 L891.9,310.0 L892.1,310.0 L892.3,310.0 L892.5,427.0 L892.8,427.0 L893.0,310.0 L893.2,310.0 L893.5,427.0 L893.7,310.0 L893.9,193.0 L894.2,310.0 L894.4,427.0 L894.6,193.0 L894.9,427.0 L895.1,193.0 L895.3,427.0 L895.6,193.0 L895.8,310.0 L896.0,310.0 L896.2,310.0 L896.5,193.0 L896.7,310.0 L896.9,310.0 L897.2,310.0 L897.4,310.0 L897.6,193.0 L897.9,310.0 L898.1,310.0 L898.3,193.0 L898.6,427.0 L898.8,310.0 L899.0,427.0 L899.3,310.0 L899.5,310.0 L899.7,310.0 L899.9,193.0 L900.2,310.0 L900.4,310.0 L900.6,310.0 L900.9,427.0 L901.1,310.0 L901.3,193.0 L901.6,310.0 L901.8,310.0 L902.0,193.0 L902.3,310.0 L902.5,427.0 L902.7,310.0 L903.0,310.0 L903.2,427.0 L903.4,427.0 L903.6,310.0 L903.9,310.0 L904.1,310.0 L904.3,427.0 L904.6,310.0 L904.8,427.0 L905.0,193.0 L905.3,427.0 L905.5,310.0 L905.7,310.0 L906.0,193.0 L906.2,427.0 L906.4,193.0 L906.7,427.0 L906.9,193.0 L907.1,427.0 L907.3,193.0 L907.6,427.0 L907.8,193.0 L908.0,310.0 L908.3,427.0 L908.5,310.0 L908.7,310.0 L909.0,310.0 L909.2,310.0 L909.4,310.0 L909.7,310.0 L909.9,427.0 L910.1,310.0 L910.3,193.0 L910.6,310.0 L910.8,427.0 L911.0,310.0 L911.3,310.0 L911.5,427.0 L911.7,310.0 L912.0,310.0 L912.2,310.0 L912.4,310.0 L912.7,310.0 L912.9,193.0 L913.1,193.0 L913.4,310.0 L913.6,310.0 L913.8,310.0 L914.0,310.0 L914.3,310.0 L914.5,427.0 L914.7,427.0 L915.0,193.0 L915.2,310.0 L915.4,310.0 L915.7,427.0 L915.9,310.0 L916.1,427.0 L916.4,310.0 L916.6,193.0 L916.8,427.0 L917.1,193.0 L917.3,310.0 L917.5,310.0 L917.7,310.0 L918.0,193.0 L918.2,310.0 L918.4,310.0 L918.7,310.0 L918.9,310.0 L919.1,427.0 L919.4,193.0 L919.6,427.0 L919.8,310.0 L920.1,427.0 L920.3,310.0 L920.5,310.0 L920.8,193.0 L921.0,193.0 L921.2,310.0 L921.4,310.0 L921.7,193.0 L921.9,310.0 L922.1,427.0 L922.4,193.0 L922.6,310.0 L922.8,193.0 L923.1,310.0 L923.3,193.0 L923.5,310.0 L923.8,310.0 L924.0,310.0 L924.2,427.0 L924.5,193.0 L924.7,427.0 L924.9,427.0 L925.1,310.0 L925.4,427.0 L925.6,193.0 L925.8,193.0 L926.1,427.0 L926.3,193.0 L926.5,310.0 L926.8,310.0 L927.0,310.0 L927.2,193.0 L927.5,427.0 L927.7,193.0 L927.9,310.0 L928.2,427.0 L928.4,310.0 L928.6,427.0 L928.8,310.0 L929.1,310.0 L929.3,193.0 L929.5,427.0 L929.8,310.0 L930.0,310.0 L930.2,310.0 L930.5,427.0 L930.7,193.0 L930.9,427.0 L931.2,310.0 L931.4,427.0 L931.6,193.0 L931.9,427.0 L932.1,310.0 L932.3,310.0 L932.5,193.0 L932.8,310.0 L933.0,193.0 L933.2,310.0 L933.5,310.0 L933.7,427.0 L933.9,193.0 L934.2,193.0 L934.4,310.0 L934.6,427.0 L934.9,310.0 L935.1,310.0 L935.3,193.0 L935.6,310.0 L935.8,193.0 L936.0,310.0 L936.2,310.0 L936.5,310.0 L936.7,310.0 L936.9,310.0 L937.2,310.0 L937.4,427.0 L937.6,193.0 L937.9,544.0 L938.1,310.0 L938.3,310.0 L938.6,427.0 L938.8,310.0 L939.0,310.0 L939.3,427.0 L939.5,310.0 L939.7,427.0 L939.9,427.0 L940.2,193.0 L940.4,310.0 L940.6,310.0 L940.9,310.0 L941.1,193.0 L941.3,427.0 L941.6,310.0 L941.8,310.0 L942.0,427.0 L942.3,310.0 L942.5,310.0 L942.7,310.0 L943.0,310.0 L943.2,193.0 L943.4,310.0 L943.6,310.0 L943.9,310.0 L944.1,193.0 L944.3,427.0 L944.6,310.0 L944.8,310.0 L945.0,193.0 L945.3,427.0 L945.5,193.0 L945.7,427.0 L946.0,310.0 L946.2,193.0 L946.4,427.0 L946.7,193.0 L946.9,427.0 L947.1,193.0 L947.3,427.0 L947.6,427.0 L947.8,193.0 L948.0,427.0 L948.3,310.0 L948.5,310.0 L948.7,193.0 L949.0,427.0 L949.2,193.0 L949.4,427.0 L949.7,193.0 L949.9,427.0 L950.1,310.0 L950.4,193.0 L950.6,310.0 L950.8,310.0 L951.0,427.0 L951.3,310.0 L951.5,310.0 L951.7,193.0 L952.0,427.0 L952.2,310.0 L952.4,310.0 L952.7,193.0 L952.9,310.0 L953.1,310.0 L953.4,193.0 L953.6,310.0 L953.8,193.0 L954.1,427.0 L954.3,193.0 L954.5,427.0 L954.7,193.0 L955.0,427.0 L955.2,193.0 L955.4,193.0 L955.7,427.0 L955.9,193.0 L956.1,310.0 L956.4,310.0 L956.6,193.0 L956.8,193.0 L957.1,310.0 L957.3,310.0 L957.5,310.0 L957.8,193.0 L958.0,193.0 L958.2,310.0 L958.4,310.0 L958.7,310.0 L958.9,310.0 L959.1,193.0 L959.4,310.0 L959.6,310.0 L959.8,310.0 L960.1,310.0 L960.3,193.0 L960.5,310.0 L960.8,310.0 L961.0,427.0 L961.2,427.0 L961.5,310.0 L961.7,427.0 L961.9,427.0 L962.1,193.0 L962.4,310.0 L962.6,193.0 L962.8,310.0 L963.1,310.0 L963.3,427.0 L963.5,193.0 L963.8,310.0 L964.0,310.0 L964.2,310.0 L964.5,310.0 L964.7,193.0 L964.9,427.0 L965.2,310.0 L965.4,310.0 L965.6,193.0 L965.8,310.0 L966.1,310.0 L966.3,310.0 L966.5,427.0 L966.8,310.0 L967.0,427.0 L967.2,310.0 L967.5,427.0 L967.7,193.0 L967.9,427.0 L968.2,193.0 L968.4,427.0 L968.6,310.0 L968.8,193.0 L969.1,310.0 L969.3,427.0 L969.5,193.0 L969.8,427.0 L970.0,310.0 L970.2,310.0 L970.5,310.0 L970.7,310.0 L970.9,310.0 L971.2,310.0 L971.4,193.0 L971.6,310.0 L971.9,310.0 L972.1,427.0 L972.3,427.0 L972.5,310.0 L972.8,310.0 L973.0,427.0 L973.2,193.0 L973.5,427.0 L973.7,310.0 L973.9,310.0 L974.2,310.0 L974.4,310.0 L974.6,427.0 L974.9,310.0 L975.1,310.0 L975.3,193.0 L975.6,193.0 L975.8,310.0 L976.0,193.0 L976.2,427.0 L976.5,310.0 L976.7,193.0 L976.9,427.0 L977.2,427.0 L977.4,310.0 L977.6,310.0 L977.9,427.0 L978.1,310.0 L978.3,193.0 L978.6,427.0 L978.8,310.0 L979.0,310.0 L979.3,310.0 L979.5,310.0 L979.7,427.0 L979.9,193.0 L980.2,310.0 L980.4,427.0 L980.6,310.0 L980.9,310.0 L981.1,310.0 L981.3,310.0 L981.6,193.0 L981.8,310.0 L982.0,310.0 L982.3,427.0 L982.5,193.0 L982.7,310.0 L983.0,310.0 L983.2,310.0 L983.4,427.0 L983.6,193.0 L983.9,427.0 L984.1,310.0 L984.3,427.0 L984.6,310.0 L984.8,193.0 L985.0,427.0 L985.3,310.0 L985.5,427.0 L985.7,427.0 L986.0,310.0 L986.2,310.0 L986.4,193.0 L986.7,310.0 L986.9,310.0 L987.1,310.0 L987.3,310.0 L987.6,427.0 L987.8,193.0 L988.0,427.0 L988.3,193.0 L988.5,310.0 L988.7,193.0 L989.0,427.0 L989.2,427.0 L989.4,310.0 L989.7,427.0 L989.9,193.0 L990.1,427.0 L990.4,310.0 L990.6,193.0 L990.8,310.0 L991.0,310.0 L991.3,310.0 L991.5,193.0 L991.7,310.0 L992.0,310.0 L992.2,310.0 L992.4,193.0 L992.7,427.0 L992.9,193.0 L993.1,310.0 L993.4,193.0 L993.6,427.0 L993.8,310.0 L994.1,193.0 L994.3,310.0 L994.5,427.0 L994.7,310.0 L995.0,193.0 L995.2,427.0 L995.4,310.0 L995.7,427.0 L995.9,310.0 L996.1,427.0 L996.4,193.0 L996.6,427.0 L996.8,310.0 L997.1,310.0 L997.3,310.0 L997.5,193.0 L997.8,310.0 L998.0,193.0 L998.2,310.0 L998.4,310.0 L998.7,310.0 L998.9,193.0 L999.1,193.0 L999.4,310.0 L999.6,310.0 L999.8,193.0 L1000.1,427.0 L1000.3,193.0 L1000.5,427.0 L1000.8,193.0 L1001.0,310.0 L1001.2,310.0 L1001.5,193.0 L1001.7,310.0 L1001.9,310.0 L1002.1,427.0 L1002.4,310.0 L1002.6,193.0 L1002.8,427.0 L1003.1,310.0 L1003.3,310.0 L1003.5,193.0 L1003.8,427.0 L1004.0,427.0 L1004.2,310.0 L1004.5,310.0 L1004.7,427.0 L1004.9,310.0 L1005.2,310.0 L1005.4,193.0 L1005.6,427.0 L1005.8,310.0 L1006.1,310.0 L1006.3,193.0 L1006.5,310.0 L1006.8,310.0 L1007.0,310.0 L1007.2,310.0 L1007.5,193.0 L1007.7,310.0 L1007.9,310.0 L1008.2,427.0 L1008.4,427.0 L1008.6,427.0 L1008.9,193.0 L1009.1,427.0 L1009.3,310.0 L1009.5,427.0 L1009.8,310.0 L1010.0,427.0 L1010.2,427.0 L1010.5,310.0 L1010.7,310.0 L1010.9,310.0 L1011.2,193.0 L1011.4,310.0 L1011.6,427.0 L1011.9,310.0 L1012.1,310.0 L1012.3,193.0 L1012.6,310.0 L1012.8,310.0 L1013.0,310.0 L1013.2,193.0 L1013.5,310.0 L1013.7,193.0 L1013.9,310.0 L1014.2,310.0 L1014.4,310.0 L1014.6,193.0 L1014.9,193.0 L1015.1,427.0 L1015.3,310.0 L1015.6,310.0 L1015.8,193.0 L1016.0,193.0 L1016.3,427.0 L1016.5,193.0 L1016.7,310.0 L1016.9,310.0 L1017.2,193.0 L1017.4,310.0 L1017.6,193.0 L1017.9,310.0 L1018.1,310.0 L1018.3,310.0 L1018.6,310.0 L1018.8,193.0 L1019.0,310.0 L1019.3,193.0 L1019.5,310.0 L1019.7,310.0 L1020.0,310.0 L1020.2,193.0 L1020.4,193.0 L1020.6,193.0 L1020.9,310.0 L1021.1,427.0 L1021.3,310.0 L1021.6,193.0 L1021.8,310.0 L1022.0,310.0 L1022.3,193.0 L1022.5,427.0 L1022.7,193.0 L1023.0,310.0 L1023.2,310.0 L1023.4,193.0 L1023.7,310.0 L1023.9,427.0 L1024.1,310.0 L1024.3,310.0 L1024.6,193.0 L1024.8,427.0 L1025.0,310.0 L1025.3,427.0 L1025.5,310.0 L1025.7,427.0 L1026.0,310.0 L1026.2,310.0 L1026.4,310.0 L1026.7,427.0 L1026.9,427.0 L1027.1,193.0 L1027.3,427.0 L1027.6,310.0 L1027.8,310.0 L1028.0,310.0 L1028.3,310.0 L1028.5,427.0 L1028.7,427.0 L1029.0,193.0 L1029.2,310.0 L1029.4,310.0 L1029.7,193.0 L1029.9,427.0 L1030.1,427.0 L1030.4,310.0 L1030.6,427.0 L1030.8,310.0 L1031.0,310.0 L1031.3,427.0 L1031.5,427.0 L1031.7,310.0 L1032.0,310.0 L1032.2,310.0 L1032.4,193.0 L1032.7,310.0 L1032.9,310.0 L1033.1,310.0 L1033.4,427.0 L1033.6,310.0 L1033.8,427.0 L1034.1,193.0 L1034.3,310.0 L1034.5,427.0 L1034.7,193.0 L1035.0,427.0 L1035.2,310.0 L1035.4,310.0 L1035.7,310.0 L1035.9,427.0 L1036.1,193.0 L1036.4,427.0 L1036.6,193.0 L1036.8,310.0 L1037.1,427.0 L1037.3,310.0 L1037.5,310.0 L1037.8,310.0 L1038.0,427.0 L1038.2,310.0 L1038.4,193.0 L1038.7,427.0 L1038.9,193.0 L1039.1,427.0 L1039.4,310.0 L1039.6,193.0 L1039.8,427.0 L1040.1,310.0 L1040.3,310.0 L1040.5,310.0 L1040.8,427.0 L1041.0,193.0 L1041.2,310.0 L1041.5,193.0 L1041.7,310.0 L1041.9,193.0 L1042.1,193.0 L1042.4,310.0 L1042.6,427.0 L1042.8,193.0 L1043.1,310.0 L1043.3,310.0 L1043.5,427.0 L1043.8,310.0 L1044.0,310.0 L1044.2,310.0 L1044.5,310.0 L1044.7,193.0 L1044.9,427.0 L1045.2,310.0 L1045.4,193.0 L1045.6,310.0 L1045.8,193.0 L1046.1,193.0 L1046.3,193.0 L1046.5,193.0 L1046.8,310.0 L1047.0,310.0 L1047.2,193.0 L1047.5,310.0 L1047.7,310.0 L1047.9,310.0 L1048.2,193.0 L1048.4,427.0 L1048.6,310.0 L1048.9,310.0 L1049.1,310.0 L1049.3,193.0 L1049.5,427.0 L1049.8,193.0 L1050.0,310.0 L1050.2,427.0 L1050.5,427.0 L1050.7,193.0 L1050.9,193.0 L1051.2,427.0 L1051.4,310.0 L1051.6,427.0 L1051.9,193.0 L1052.1,193.0 L1052.3,427.0 L1052.6,193.0 L1052.8,310.0 L1053.0,193.0 L1053.2,310.0 L1053.5,310.0 L1053.7,310.0 L1053.9,427.0 L1054.2,193.0 L1054.4,310.0 L1054.6,310.0 L1054.9,427.0 L1055.1,310.0 L1055.3,427.0 L1055.6,193.0 L1055.8,310.0 L1056.0,310.0 L1056.3,193.0 L1056.5,427.0 L1056.7,310.0 L1056.9,427.0 L1057.2,193.0 L1057.4,427.0 L1057.6,193.0 L1057.9,310.0 L1058.1,427.0 L1058.3,310.0 L1058.6,193.0 L1058.8,310.0 L1059.0,427.0 L1059.3,193.0 L1059.5,427.0 L1059.7,310.0 L1060.0,310.0 L1060.2,310.0 L1060.4,427.0 L1060.6,193.0 L1060.9,427.0 L1061.1,427.0 L1061.3,310.0 L1061.6,193.0 L1061.8,193.0 L1062.0,427.0 L1062.3,427.0 L1062.5,310.0 L1062.7,427.0 L1063.0,193.0 L1063.2,310.0 L1063.4,427.0 L1063.7,427.0 L1063.9,310.0 L1064.1,427.0 L1064.3,193.0 L1064.6,427.0 L1064.8,310.0 L1065.0,310.0 L1065.3,310.0 L1065.5,310.0 L1065.7,193.0 L1066.0,427.0 L1066.2,193.0 L1066.4,310.0 L1066.7,310.0 L1066.9,427.0 L1067.1,310.0 L1067.4,310.0 L1067.6,310.0 L1067.8,193.0 L1068.0,310.0 L1068.3,427.0 L1068.5,427.0 L1068.7,310.0 L1069.0,193.0 L1069.2,193.0 L1069.4,310.0 L1069.7,427.0 L1069.9,193.0 L1070.1,310.0 L1070.4,310.0 L1070.6,310.0 L1070.8,427.0 L1071.1,310.0 L1071.3,310.0 L1071.5,310.0 L1071.7,427.0 L1072.0,193.0 L1072.2,427.0 L1072.4,310.0 L1072.7,310.0 L1072.9,310.0 L1073.1,427.0 L1073.4,427.0 L1073.6,427.0 L1073.8,427.0 L1074.1,427.0 L1074.3,310.0 L1074.5,427.0 L1074.8,193.0 L1075.0,427.0 L1075.2,310.0 L1075.4,427.0 L1075.7,427.0 L1075.9,193.0 L1076.1,310.0 L1076.4,310.0 L1076.6,310.0 L1076.8,193.0 L1077.1,427.0 L1077.3,193.0 L1077.5,310.0 L1077.8,193.0 L1078.0,427.0 L1078.2,427.0 L1078.5,427.0 L1078.7,193.0 L1078.9,310.0 L1079.1,310.0 L1079.4,427.0 L1079.6,193.0 L1079.8,427.0 L1080.1,310.0 L1080.3,310.0 L1080.5,193.0 L1080.8,310.0 L1081.0,310.0 L1081.2,310.0 L1081.5,310.0 L1081.7,427.0 L1081.9,427.0 L1082.2,310.0 L1082.4,310.0 L1082.6,427.0 L1082.8,310.0 L1083.1,310.0 L1083.3,427.0 L1083.5,310.0 L1083.8,427.0 L1084.0,427.0" fill="none" stroke="#ff7f0e" stroke-width="1.1" opacity="0.85"/><text x="616" y="572" font-size="11" fill="#888">time 0..40 s — altitude (blue) &amp; roll (orange)</text></svg>