<svg xmlns="http://www.w3.org/2000/svg" width="1140" height="600" font-family="sans-serif" font-size="13"><rect width="1140" height="600" fill="white"/><text x="20" y="26" font-size="15" fill="#333">TMS-7 F15 — sensor noise 100%</text><rect x="20" y="40" width="540" height="540" fill="#fbfbfb" stroke="#ddd"/><rect x="50" y="453" width="174" height="3" fill="#cde" stroke="#369" opacity="0.7"/><text x="50" y="448" fill="#369" font-size="12">landing zone</text><circle cx="159" cy="484" r="5" fill="black"/><text x="167" y="488" font-size="12">pad</text><path d="M159.3,484.3 L159.3,484.3 L159.3,484.3 L159.3,484.3 L159.3,484.3 L159.3,484.3 L159.3,484.3 L159.3,484.3 L159.3,484.3 L159.3,484.3 L159.3,484.3 L159.3,484.3 L159.3,484.3 L159.3,484.3 L159.3,484.3 L159.3,484.3 L159.3,484.3 L159.3,484.3 L159.3,484.3 L159.3,484.3 L159.3,484.3 L159.3,484.3 L159.3,484.3 L159.3,484.3 L159.3,484.3 L159.3,484.3 L159.3,484.3 L159.3,484.3 L159.3,484.3 L159.3,484.3 L159.3,484.3 L159.3,484.3 L159.3,484.3 L159.3,484.3 L159.3,484.3 L159.3,484.3 L159.3,484.3 L159.3,484.3 L159.3,484.3 L159.3,484.3 L159.3,484.3 L159.3,484.3 L159.3,484.3 L159.3,484.3 L159.3,484.3 L159.3,484.3 L159.3,484.3 L159.3,484.3 L159.3,484.3 L159.3,484.3 L159.3,484.3 L159.3,484.3 L159.3,484.3 L159.3,484.3 L159.3,484.3 L159.3,484.3 L159.3,484.3 L159.3,484.3 L159.3,484.3 L159.3,484.3 L159.3,484.3 L159.3,484.3 L159.3,484.3 L159.3,484.3 L159.3,484.3 L159.9,483.3 L160.7,481.9 L161.5,480.4 L162.4,479.0 L163.2,477.5 L164.2,476.1 L165.0,474.6 L165.9,473.2 L166.8,471.7 L167.6,470.3 L168.5,468.8 L169.3,467.4 L170.2,465.9 L171.1,464.6 L171.9,463.1 L172.8,461.7 L173.7,460.2 L174.5,458.8 L175.4,457.3 L176.3,455.9 L177.3,454.4 L178.1,453.1 L179.0,451.6 L179.9,450.2 L180.8,448.7 L181.6,447.3 L182.5,445.8 L183.4,444.5 L184.3,443.0 L185.2,441.6 L186.1,440.1 L187.0,438.8 L187.9,437.3 L188.8,435.9 L189.7,434.5 L190.8,433.1 L191.7,431.6 L192.6,430.3 L193.5,428.8 L194.5,427.5 L195.4,426.1 L196.3,424.7 L197.3,423.3 L198.2,421.9 L199.2,420.6 L200.1,419.1 L201.1,417.8 L202.1,416.5 L203.0,415.0 L204.1,413.7 L205.1,412.3 L206.1,411.0 L207.1,409.5 L208.1,408.2 L209.1,406.9 L210.1,405.5 L211.1,404.2 L212.1,402.8 L213.1,401.5 L214.1,400.2 L215.1,398.8 L216.1,397.5 L217.3,396.1 L218.3,394.8 L219.3,393.5 L220.4,392.2 L221.4,390.9 L222.5,389.5 L223.5,388.2 L224.6,387.0 L225.6,385.6 L226.7,384.3 L227.8,383.1 L228.9,381.7 L229.9,380.5 L231.1,379.2 L232.2,377.9 L233.3,376.6 L234.4,375.4 L235.5,374.1 L236.6,372.8 L237.7,371.6 L238.8,370.2 L239.9,369.0 L241.0,367.8 L242.1,366.5 L243.2,365.2 L244.5,364.0 L245.6,362.8 L246.7,361.5 L247.8,360.3 L249.0,359.0 L250.1,357.7 L251.2,356.5 L252.4,355.3 L253.5,354.0 L254.7,352.8 L255.8,351.6 L257.1,350.4 L258.2,349.1 L259.4,347.9 L260.5,346.7 L261.7,345.6 L262.8,344.3 L264.0,343.1 L265.2,341.9 L266.3,340.6 L267.5,339.4 L268.7,338.3 L269.8,337.1 L271.1,335.8 L272.3,334.6 L273.5,333.5 L274.7,332.3 L275.8,331.0 L277.0,329.9 L278.2,328.7 L279.4,327.6 L280.6,326.4 L281.8,325.2 L283.0,324.0 L284.3,322.9 L285.5,321.7 L286.7,320.6 L287.9,319.3 L289.2,318.2 L290.4,317.1 L291.6,315.9 L292.8,314.7 L294.1,313.6 L295.3,312.5 L296.5,311.3 L297.8,310.2 L299.1,309.1 L300.3,307.9 L301.5,306.7 L302.7,305.6 L304.0,304.5 L305.2,303.4 L306.4,302.1 L307.7,301.0 L308.9,299.9 L310.2,298.8 L311.5,297.7 L312.7,296.4 L313.9,295.3 L315.2,294.2 L316.4,293.1 L317.7,292.0 L318.9,290.9 L320.2,289.7 L321.4,288.6 L322.7,287.5 L324.0,286.4 L325.3,285.3 L326.5,284.2 L327.8,283.0 L329.0,281.9 L330.3,280.8 L331.5,279.7 L332.8,278.6 L334.0,277.5 L335.3,276.3 L336.5,275.2 L337.9,274.1 L339.2,273.0 L340.4,271.9 L341.7,270.9 L343.0,269.8 L344.3,268.6 L345.5,267.5 L346.8,266.5 L348.1,265.4 L349.4,264.3 L350.8,263.3 L352.1,262.2 L353.4,261.0 L354.6,260.0 L355.9,258.9 L357.2,257.9 L358.5,256.8 L359.8,255.8 L361.1,254.7 L362.4,253.7 L363.8,252.6 L365.1,251.6 L366.5,250.4 L367.8,249.4 L369.1,248.4 L370.4,247.3 L371.7,246.3 L373.0,245.3 L374.4,244.3 L375.7,243.2 L377.1,242.2 L378.4,241.2 L379.7,240.2 L381.1,239.1 L382.4,238.0 L383.7,237.0 L385.1,236.0 L386.4,235.0 L387.7,234.0 L389.0,233.0 L390.5,232.0 L391.8,230.9 L393.2,229.9 L394.5,228.9 L395.8,227.9 L397.0,227.1 L398.1,226.2 L399.2,225.4 L400.3,224.5 L401.4,223.8 L402.5,222.9 L403.8,222.1 L404.9,221.2 L406.0,220.4 L407.1,219.5 L408.3,218.7 L409.4,217.9 L410.5,217.1 L411.6,216.3 L412.7,215.4 L413.9,214.6 L415.0,213.7 L416.1,212.9 L417.3,212.0 L418.5,211.3 L419.6,210.5 L420.7,209.6 L421.8,208.8 L423.0,207.9 L424.1,207.1 L425.2,206.3 L426.4,205.4 L427.5,204.7 L428.6,203.8 L429.7,203.0 L431.0,202.2 L432.1,201.3 L433.2,200.5 L434.4,199.8 L435.5,198.9 L436.6,198.1 L437.8,197.3 L438.9,196.4 L440.0,195.6 L441.2,194.8 L442.3,193.9 L443.5,193.2 L444.7,192.4 L445.8,191.6 L446.9,190.7 L448.1,189.9 L449.2,189.1 L450.3,188.3 L451.5,187.5 L452.6,186.7 L453.8,185.9 L454.9,185.0 L456.0,184.2 L457.3,183.5 L458.4,182.7 L459.6,181.8 L460.7,181.0 L461.8,180.2 L463.0,179.4 L464.1,178.7 L465.3,177.8 L466.4,177.0 L467.6,176.2 L468.7,175.4 L469.9,174.6 L471.1,173.9 L472.3,173.1 L473.4,172.3 L474.6,171.5 L475.7,170.7 L476.9,169.9 L478.1,169.2 L479.2,168.4 L480.4,167.6 L481.5,166.8 L482.7,166.0 L484.0,165.3 L485.1,164.5 L486.3,163.7 L487.4,162.9 L488.6,162.1 L489.8,161.3 L490.9,160.6 L492.1,159.9 L493.3,159.1 L494.4,158.3 L495.6,157.6 L496.9,156.8 L498.0,156.0 L499.2,155.2 L500.4,154.5 L501.6,153.8 L502.7,153.0 L503.9,152.2 L505.1,151.4 L506.2,150.7 L507.4,150.0 L508.6,149.2 L509.8,148.4 L511.0,147.6 L512.2,146.9 L513.4,146.2 L514.6,145.4 L515.7,144.6 L516.9,143.9 L518.1,143.1 L519.3,142.4 L520.4,141.6 L521.6,140.9 L522.8,140.1 L524.1,139.4 L525.2,138.6 L526.4,137.9 L527.6,137.1 L528.8,136.3 L530.0,135.7" fill="none" stroke="#1f77b4" stroke-width="1.7" opacity="0.85"/><circle cx="530" cy="136" r="4.5" fill="#1f77b4"/><text x="28" y="572" font-size="11" fill="#888">ground track — m from pad (N up)</text><rect x="580" y="40" width="540" height="540" fill="#fbfbfb" stroke="#ddd"/><text x="586" y="54" fill="#1f77b4" font-size="11">alt 596</text><text x="586" y="558" fill="#1f77b4" font-size="11">-1</text><path d="M616.0,543.8 L616.2,543.5 L616.4,542.4 L616.6,543.7 L616.9,540.5 L617.1,542.4 L617.3,539.6 L617.5,542.6 L617.7,542.2 L617.9,543.9 L618.1,542.9 L618.4,542.1 L618.6,540.1 L618.8,541.0 L619.0,543.8 L619.2,540.1 L619.4,537.7 L619.6,540.4 L619.9,537.2 L620.1,542.4 L620.3,538.0 L620.5,537.1 L620.7,543.3 L620.9,543.1 L621.1,537.8 L621.4,540.0 L621.6,537.1 L621.8,539.7 L622.0,538.3 L622.2,536.8 L622.4,543.9 L622.6,538.7 L622.9,538.6 L623.1,538.4 L623.3,543.6 L623.5,538.1 L623.7,534.1 L623.9,543.7 L624.1,533.2 L624.4,530.0 L624.6,537.2 L624.8,535.9 L625.0,534.7 L625.2,536.9 L625.4,535.8 L625.6,538.8 L625.9,530.9 L626.1,535.7 L626.3,542.0 L626.5,540.9 L626.7,535.3 L626.9,532.6 L627.1,527.6 L627.4,536.5 L627.6,532.5 L627.8,523.7 L628.0,516.5 L628.2,519.7 L628.4,529.7 L628.6,542.6 L628.9,516.2 L629.1,540.5 L629.3,523.2 L629.5,512.1 L629.7,532.7 L629.9,533.7 L630.1,508.2 L630.4,514.8 L630.6,507.0 L630.8,517.3 L631.0,509.6 L631.2,527.5 L631.4,510.9 L631.6,509.7 L631.8,503.0 L632.1,502.4 L632.3,523.6 L632.5,512.2 L632.7,525.3 L632.9,536.8 L633.1,515.7 L633.3,514.0 L633.6,538.2 L633.8,542.4 L634.0,542.2 L634.2,540.5 L634.4,543.3 L634.6,521.9 L634.8,519.1 L635.1,537.4 L635.3,532.9 L635.5,490.8 L635.7,519.2 L635.9,491.5 L636.1,493.0 L636.3,495.2 L636.6,520.4 L636.8,528.4 L637.0,502.1 L637.2,497.2 L637.4,535.0 L637.6,530.5 L637.8,508.4 L638.1,535.7 L638.3,529.8 L638.5,543.1 L638.7,519.1 L638.9,507.4 L639.1,485.2 L639.3,491.3 L639.6,462.6 L639.8,486.0 L640.0,473.1 L640.2,455.7 L640.4,452.5 L640.6,522.9 L640.8,483.7 L641.1,506.4 L641.3,521.7 L641.5,508.9 L641.7,522.1 L641.9,468.3 L642.1,435.0 L642.3,517.8 L642.6,434.2 L642.8,521.6 L643.0,506.3 L643.2,529.4 L643.4,544.0 L643.6,425.6 L643.8,520.6 L644.1,471.7 L644.3,488.1 L644.5,447.2 L644.7,542.1 L644.9,463.5 L645.1,529.4 L645.3,412.2 L645.6,530.9 L645.8,531.0 L646.0,507.7 L646.2,437.4 L646.4,400.1 L646.6,489.4 L646.8,451.3 L647.1,422.0 L647.3,445.1 L647.5,387.3 L647.7,508.5 L647.9,471.4 L648.1,510.1 L648.3,388.3 L648.6,539.2 L648.8,377.1 L649.0,533.2 L649.2,417.9 L649.4,391.5 L649.6,520.2 L649.8,393.7 L650.1,386.8 L650.3,426.3 L650.5,490.9 L650.7,476.1 L650.9,457.5 L651.1,399.4 L651.3,365.1 L651.6,481.8 L651.8,523.9 L652.0,453.2 L652.2,405.2 L652.4,357.1 L652.6,429.5 L652.8,433.5 L653.1,375.3 L653.3,480.4 L653.5,338.7 L653.7,429.4 L653.9,525.4 L654.1,393.9 L654.3,338.2 L654.6,322.2 L654.8,326.2 L655.0,372.6 L655.2,437.1 L655.4,334.9 L655.6,342.4 L655.8,373.2 L656.1,324.3 L656.3,299.7 L656.5,501.4 L656.7,427.8 L656.9,487.8 L657.1,305.3 L657.3,417.5 L657.6,494.4 L657.8,305.4 L658.0,350.5 L658.2,319.4 L658.4,417.3 L658.6,396.5 L658.8,338.9 L659.1,476.5 L659.3,420.3 L659.5,294.1 L659.7,445.9 L659.9,483.7 L660.1,402.5 L660.3,437.5 L660.6,388.7 L660.8,415.2 L661.0,339.5 L661.2,385.0 L661.4,386.5 L661.6,354.4 L661.8,264.4 L662.1,526.4 L662.3,434.2 L662.5,273.0 L662.7,282.8 L662.9,417.4 L663.1,535.2 L663.3,402.7 L663.5,283.7 L663.8,354.6 L664.0,262.4 L664.2,505.5 L664.4,331.7 L664.6,365.1 L664.8,340.9 L665.0,220.3 L665.3,426.2 L665.5,487.2 L665.7,502.1 L665.9,458.1 L666.1,311.5 L666.3,315.6 L666.5,323.1 L666.8,302.3 L667.0,415.1 L667.2,276.2 L667.4,477.5 L667.6,216.1 L667.8,509.0 L668.0,349.3 L668.3,476.0 L668.5,538.6 L668.7,386.3 L668.9,523.6 L669.1,541.7 L669.3,393.9 L669.5,394.7 L669.8,299.3 L670.0,210.8 L670.2,382.6 L670.4,246.1 L670.6,514.6 L670.8,301.3 L671.0,259.4 L671.3,343.3 L671.5,511.6 L671.7,364.6 L671.9,195.0 L672.1,418.3 L672.3,500.4 L672.5,289.6 L672.8,393.2 L673.0,413.4 L673.2,314.2 L673.4,176.7 L673.6,393.4 L673.8,436.9 L674.0,343.8 L674.3,286.7 L674.5,526.1 L674.7,285.0 L674.9,279.0 L675.1,301.5 L675.3,504.2 L675.5,489.4 L675.8,289.1 L676.0,394.1 L676.2,419.8 L676.4,509.3 L676.6,424.3 L676.8,415.9 L677.0,482.9 L677.3,339.7 L677.5,218.3 L677.7,520.9 L677.9,250.6 L678.1,189.3 L678.3,144.3 L678.5,224.0 L678.8,344.5 L679.0,173.0 L679.2,477.1 L679.4,516.9 L679.6,164.8 L679.8,382.8 L680.0,406.5 L680.3,543.5 L680.5,255.9 L680.7,478.0 L680.9,450.8 L681.1,422.6 L681.3,358.6 L681.5,271.0 L681.8,311.4 L682.0,359.6 L682.2,408.4 L682.4,182.2 L682.6,265.1 L682.8,260.8 L683.0,499.4 L683.3,421.1 L683.5,357.8 L683.7,486.0 L683.9,504.7 L684.1,170.3 L684.3,347.2 L684.5,236.3 L684.8,452.7 L685.0,526.3 L685.2,530.8 L685.4,176.7 L685.6,413.0 L685.8,415.2 L686.0,326.8 L686.3,233.2 L686.5,535.0 L686.7,329.4 L686.9,167.0 L687.1,373.0 L687.3,387.1 L687.5,497.4 L687.8,497.8 L688.0,226.4 L688.2,357.0 L688.4,424.2 L688.6,90.3 L688.8,182.0 L689.0,508.5 L689.3,230.1 L689.5,274.6 L689.7,384.3 L689.9,195.6 L690.1,455.4 L690.3,406.1 L690.5,139.3 L690.8,453.0 L691.0,159.7 L691.2,290.3 L691.4,411.3 L691.6,406.8 L691.8,327.5 L692.0,202.5 L692.3,432.9 L692.5,537.1 L692.7,129.7 L692.9,285.4 L693.1,411.5 L693.3,335.7 L693.5,79.5 L693.8,517.1 L694.0,298.9 L694.2,507.8 L694.4,543.5 L694.6,182.9 L694.8,338.3 L695.0,173.7 L695.2,539.4 L695.5,496.6 L695.7,425.3 L695.9,520.6 L696.1,294.0 L696.3,132.4 L696.5,179.7 L696.7,81.6 L697.0,316.1 L697.2,500.3 L697.4,374.7 L697.6,472.0 L697.8,85.7 L698.0,161.8 L698.2,347.4 L698.5,519.6 L698.7,415.9 L698.9,536.2 L699.1,497.1 L699.3,253.0 L699.5,394.6 L699.7,179.9 L700.0,390.1 L700.2,159.8 L700.4,168.5 L700.6,306.1 L700.8,479.7 L701.0,494.9 L701.2,328.2 L701.5,107.6 L701.7,202.9 L701.9,403.2 L702.1,291.0 L702.3,212.8 L702.5,309.1 L702.7,372.6 L703.0,321.0 L703.2,103.4 L703.4,343.7 L703.6,249.2 L703.8,276.9 L704.0,467.1 L704.2,404.2 L704.5,333.0 L704.7,76.0 L704.9,100.6 L705.1,435.4 L705.3,434.3 L705.5,436.5 L705.7,493.4 L706.0,324.9 L706.2,464.8 L706.4,90.5 L706.6,78.1 L706.8,129.6 L707.0,287.3 L707.2,521.4 L707.5,250.9 L707.7,413.0 L707.9,97.5 L708.1,448.1 L708.3,222.2 L708.5,204.6 L708.7,471.6 L709.0,471.0 L709.2,300.2 L709.4,245.1 L709.6,139.7 L709.8,539.4 L710.0,469.7 L710.2,295.3 L710.5,259.9 L710.7,430.0 L710.9,110.3 L711.1,118.9 L711.3,208.7 L711.5,86.7 L711.7,84.2 L712.0,429.6 L712.2,410.8 L712.4,153.1 L712.6,281.2 L712.8,112.5 L713.0,343.7 L713.2,367.7 L713.5,228.6 L713.7,196.9 L713.9,532.1 L714.1,188.2 L714.3,511.8 L714.5,535.3 L714.7,185.7 L715.0,378.4 L715.2,185.9 L715.4,534.7 L715.6,490.2 L715.8,435.5 L716.0,476.3 L716.2,222.5 L716.5,148.5 L716.7,393.2 L716.9,169.3 L717.1,429.6 L717.3,299.9 L717.5,196.4 L717.7,292.7 L718.0,356.3 L718.2,103.1 L718.4,295.2 L718.6,372.7 L718.8,452.2 L719.0,475.5 L719.2,537.1 L719.5,138.4 L719.7,392.7 L719.9,459.9 L720.1,452.2 L720.3,131.4 L720.5,181.9 L720.7,381.4 L721.0,275.0 L721.2,119.0 L721.4,526.6 L721.6,396.4 L721.8,537.1 L722.0,450.8 L722.2,414.2 L722.5,320.0 L722.7,425.6 L722.9,528.7 L723.1,374.4 L723.3,187.7 L723.5,403.1 L723.7,270.6 L724.0,327.3 L724.2,125.2 L724.4,301.5 L724.6,165.1 L724.8,264.6 L725.0,391.1 L725.2,127.8 L725.4,103.2 L725.7,126.0 L725.9,427.3 L726.1,104.0 L726.3,460.7 L726.5,489.7 L726.7,391.0 L726.9,507.4 L727.2,538.5 L727.4,491.9 L727.6,165.2 L727.8,228.3 L728.0,149.1 L728.2,295.9 L728.4,511.3 L728.7,245.9 L728.9,299.1 L729.1,542.6 L729.3,443.6 L729.5,162.5 L729.7,521.1 L729.9,172.5 L730.2,254.1 L730.4,323.5 L730.6,439.3 L730.8,349.3 L731.0,418.4 L731.2,539.4 L731.4,349.7 L731.7,183.4 L731.9,542.9 L732.1,219.9 L732.3,326.1 L732.5,485.1 L732.7,304.5 L732.9,227.0 L733.2,353.3 L733.4,104.9 L733.6,279.9 L733.8,216.7 L734.0,291.0 L734.2,488.9 L734.4,279.0 L734.7,490.0 L734.9,457.9 L735.1,210.8 L735.3,509.1 L735.5,221.3 L735.7,232.5 L735.9,452.1 L736.2,248.9 L736.4,177.9 L736.6,181.0 L736.8,517.3 L737.0,537.2 L737.2,118.1 L737.4,450.5 L737.7,485.4 L737.9,230.4 L738.1,137.0 L738.3,367.0 L738.5,155.9 L738.7,504.8 L738.9,238.2 L739.2,290.7 L739.4,144.2 L739.6,285.2 L739.8,424.8 L740.0,122.3 L740.2,513.3 L740.4,395.8 L740.7,114.2 L740.9,142.2 L741.1,312.2 L741.3,520.5 L741.5,310.6 L741.7,117.1 L741.9,388.1 L742.2,344.7 L742.4,367.9 L742.6,127.4 L742.8,136.2 L743.0,136.8 L743.2,456.7 L743.4,439.8 L743.7,325.5 L743.9,382.8 L744.1,281.2 L744.3,427.1 L744.5,442.9 L744.7,444.0 L744.9,507.2 L745.2,348.3 L745.4,95.8 L745.6,494.5 L745.8,343.1 L746.0,304.7 L746.2,127.5 L746.4,191.0 L746.7,457.0 L746.9,139.6 L747.1,353.6 L747.3,496.6 L747.5,390.9 L747.7,143.9 L747.9,468.0 L748.2,181.7 L748.4,384.2 L748.6,113.8 L748.8,270.5 L749.0,425.6 L749.2,225.9 L749.4,540.6 L749.7,236.9 L749.9,438.0 L750.1,283.0 L750.3,393.3 L750.5,158.7 L750.7,296.6 L750.9,217.7 L751.2,479.6 L751.4,480.8 L751.6,347.5 L751.8,213.5 L752.0,476.2 L752.2,341.4 L752.4,473.3 L752.7,430.5 L752.9,129.9 L753.1,300.3 L753.3,400.8 L753.5,153.2 L753.7,358.4 L753.9,122.3 L754.2,523.6 L754.4,505.7 L754.6,506.0 L754.8,511.8 L755.0,181.1 L755.2,163.7 L755.4,291.2 L755.7,389.6 L755.9,472.9 L756.1,357.5 L756.3,485.2 L756.5,135.3 L756.7,179.3 L756.9,429.1 L757.1,338.7 L757.4,327.3 L757.6,203.4 L757.8,536.0 L758.0,123.6 L758.2,220.7 L758.4,331.4 L758.6,150.8 L758.9,439.1 L759.1,370.3 L759.3,299.8 L759.5,153.7 L759.7,272.2 L759.9,274.7 L760.1,335.3 L760.4,343.8 L760.6,355.8 L760.8,130.9 L761.0,175.2 L761.2,535.8 L761.4,377.1 L761.6,347.0 L761.9,497.8 L762.1,420.5 L762.3,447.0 L762.5,502.5 L762.7,150.1 L762.9,463.1 L763.1,329.1 L763.4,483.1 L763.6,301.6 L763.8,377.7 L764.0,528.6 L764.2,404.2 L764.4,394.2 L764.6,402.1 L764.9,199.4 L765.1,413.8 L765.3,219.7 L765.5,393.6 L765.7,343.0 L765.9,235.5 L766.1,114.0 L766.4,141.1 L766.6,505.0 L766.8,369.7 L767.0,468.0 L767.2,350.9 L767.4,281.7 L767.6,188.9 L767.9,194.4 L768.1,232.4 L768.3,504.7 L768.5,176.8 L768.7,147.1 L768.9,460.4 L769.1,437.0 L769.4,250.9 L769.6,540.2 L769.8,458.1 L770.0,226.2 L770.2,138.1 L770.4,293.7 L770.6,231.1 L770.9,504.4 L771.1,277.7 L771.3,155.4 L771.5,510.1 L771.7,277.7 L771.9,476.3 L772.1,325.1 L772.4,206.8 L772.6,369.4 L772.8,184.7 L773.0,500.4 L773.2,163.7 L773.4,440.2 L773.6,409.2 L773.9,185.7 L774.1,506.7 L774.3,248.1 L774.5,120.2 L774.7,535.8 L774.9,473.5 L775.1,322.5 L775.4,179.0 L775.6,276.2 L775.8,387.3 L776.0,462.1 L776.2,436.4 L776.4,387.4 L776.6,146.4 L776.9,366.5 L777.1,236.9 L777.3,504.0 L777.5,540.3 L777.7,239.3 L777.9,381.8 L778.1,371.0 L778.4,269.9 L778.6,268.9 L778.8,343.7 L779.0,229.8 L779.2,416.4 L779.4,125.2 L779.6,231.5 L779.9,431.3 L780.1,489.4 L780.3,313.6 L780.5,171.6 L780.7,142.5 L780.9,359.7 L781.1,348.6 L781.4,371.6 L781.6,271.3 L781.8,297.4 L782.0,221.8 L782.2,482.6 L782.4,184.3 L782.6,317.6 L782.9,521.2 L783.1,289.3 L783.3,481.6 L783.5,499.5 L783.7,457.1 L783.9,445.8 L784.1,210.8 L784.4,136.3 L784.6,294.2 L784.8,529.7 L785.0,215.0 L785.2,362.4 L785.4,244.3 L785.6,521.8 L785.9,315.4 L786.1,430.8 L786.3,350.3 L786.5,219.3 L786.7,193.3 L786.9,376.1 L787.1,250.0 L787.4,288.4 L787.6,420.2 L787.8,312.2 L788.0,424.8 L788.2,487.6 L788.4,313.7 L788.6,173.0 L788.8,375.5 L789.1,162.1 L789.3,190.1 L789.5,527.4 L789.7,480.0 L789.9,372.9 L790.1,135.4 L790.3,282.6 L790.6,534.6 L790.8,266.1 L791.0,434.1 L791.2,519.0 L791.4,532.8 L791.6,473.6 L791.8,279.7 L792.1,507.2 L792.3,274.0 L792.5,525.6 L792.7,525.3 L792.9,456.7 L793.1,262.7 L793.3,161.5 L793.6,216.7 L793.8,170.4 L794.0,443.8 L794.2,282.3 L794.4,204.8 L794.6,234.9 L794.8,493.0 L795.1,165.5 L795.3,453.6 L795.5,220.9 L795.7,440.9 L795.9,199.8 L796.1,248.7 L796.3,524.5 L796.6,221.0 L796.8,246.3 L797.0,366.8 L797.2,468.4 L797.4,376.4 L797.6,424.2 L797.8,474.7 L798.1,192.3 L798.3,540.6 L798.5,353.5 L798.7,396.6 L798.9,228.1 L799.1,483.5 L799.3,208.9 L799.6,523.1 L799.8,355.4 L800.0,310.9 L800.2,467.7 L800.4,367.1 L800.6,471.9 L800.8,530.7 L801.1,320.1 L801.3,244.3 L801.5,363.8 L801.7,438.5 L801.9,435.9 L802.1,314.1 L802.3,341.5 L802.6,162.0 L802.8,415.0 L803.0,241.0 L803.2,461.6 L803.4,168.9 L803.6,524.7 L803.8,472.1 L804.1,425.3 L804.3,369.6 L804.5,515.1 L804.7,480.2 L804.9,250.3 L805.1,153.8 L805.3,540.1 L805.6,171.2 L805.8,173.2 L806.0,290.7 L806.2,260.6 L806.4,475.1 L806.6,230.0 L806.8,167.6 L807.1,395.5 L807.3,239.6 L807.5,330.5 L807.7,331.5 L807.9,372.7 L808.1,364.8 L808.3,268.9 L808.6,515.9 L808.8,528.6 L809.0,302.1 L809.2,309.1 L809.4,419.3 L809.6,223.6 L809.8,527.7 L810.1,203.3 L810.3,279.0 L810.5,257.8 L810.7,479.7 L810.9,264.4 L811.1,403.9 L811.3,410.4 L811.6,177.2 L811.8,513.2 L812.0,352.1 L812.2,332.5 L812.4,309.8 L812.6,270.1 L812.8,512.3 L813.1,182.4 L813.3,281.0 L813.5,506.1 L813.7,266.1 L813.9,509.2 L814.1,292.0 L814.3,470.0 L814.6,181.7 L814.8,366.4 L815.0,461.1 L815.2,252.3 L815.4,448.6 L815.6,357.0 L815.8,505.5 L816.1,398.0 L816.3,238.9 L816.5,236.4 L816.7,472.7 L816.9,205.1 L817.1,269.5 L817.3,391.9 L817.6,377.4 L817.8,240.6 L818.0,518.1 L818.2,344.9 L818.4,289.1 L818.6,288.5 L818.8,419.2 L819.0,382.9 L819.3,327.0 L819.5,330.0 L819.7,285.1 L819.9,176.3 L820.1,266.8 L820.3,510.2 L820.5,364.0 L820.8,346.1 L821.0,179.7 L821.2,215.1 L821.4,340.2 L821.6,430.5 L821.8,274.5 L822.0,404.7 L822.3,419.1 L822.5,276.5 L822.7,262.9 L822.9,505.7 L823.1,502.7 L823.3,204.1 L823.5,236.8 L823.8,266.4 L824.0,527.5 L824.2,260.6 L824.4,416.9 L824.6,495.1 L824.8,365.2 L825.0,243.4 L825.3,521.2 L825.5,488.8 L825.7,500.2 L825.9,337.4 L826.1,214.4 L826.3,356.9 L826.5,184.4 L826.8,476.1 L827.0,432.6 L827.2,213.3 L827.4,531.0 L827.6,490.3 L827.8,483.2 L828.0,395.2 L828.3,392.1 L828.5,276.8 L828.7,284.3 L828.9,177.9 L829.1,430.1 L829.3,480.0 L829.5,190.3 L829.8,411.1 L830.0,407.5 L830.2,266.7 L830.4,411.2 L830.6,203.3 L830.8,203.9 L831.0,481.1 L831.3,326.7 L831.5,349.9 L831.7,520.5 L831.9,251.5 L832.1,541.4 L832.3,300.1 L832.5,231.3 L832.8,456.6 L833.0,288.8 L833.2,295.7 L833.4,474.2 L833.6,507.4 L833.8,511.5 L834.0,540.1 L834.3,195.9 L834.5,250.8 L834.7,499.7 L834.9,508.9 L835.1,418.6 L835.3,307.8 L835.5,187.9 L835.8,253.9 L836.0,334.2 L836.2,445.4 L836.4,423.9 L836.6,257.0 L836.8,506.5 L837.0,347.8 L837.3,232.6 L837.5,291.3 L837.7,470.7 L837.9,388.9 L838.1,392.5 L838.3,232.0 L838.5,345.4 L838.8,405.5 L839.0,278.2 L839.2,498.5 L839.4,437.4 L839.6,532.2 L839.8,401.9 L840.0,512.7 L840.3,224.4 L840.5,477.2 L840.7,263.4 L840.9,400.7 L841.1,518.1 L841.3,342.2 L841.5,346.0 L841.8,286.2 L842.0,497.5 L842.2,274.6 L842.4,226.1 L842.6,288.5 L842.8,325.6 L843.0,337.1 L843.3,203.2 L843.5,537.6 L843.7,367.7 L843.9,441.9 L844.1,462.2 L844.3,259.9 L844.5,341.0 L844.8,275.3 L845.0,540.8 L845.2,207.1 L845.4,378.2 L845.6,329.3 L845.8,238.5 L846.0,520.1 L846.3,494.7 L846.5,293.0 L846.7,503.8 L846.9,226.9 L847.1,447.0 L847.3,369.1 L847.5,219.1 L847.8,489.5 L848.0,410.6 L848.2,280.4 L848.4,371.2 L848.6,436.8 L848.8,296.2 L849.0,455.0 L849.3,225.1 L849.5,258.5 L849.7,394.0 L849.9,486.1 L850.1,440.5 L850.3,484.7 L850.5,388.6 L850.7,359.4 L851.0,309.8 L851.2,531.0 L851.4,420.8 L851.6,360.8 L851.8,285.5 L852.0,352.0 L852.2,455.3 L852.5,266.3 L852.7,310.8 L852.9,383.7 L853.1,228.7 L853.3,403.2 L853.5,312.7 L853.7,406.6 L854.0,464.7 L854.2,419.1 L854.4,337.4 L854.6,349.1 L854.8,351.0 L855.0,314.8 L855.2,315.3 L855.5,349.9 L855.7,213.3 L855.9,284.3 L856.1,453.6 L856.3,387.8 L856.5,261.3 L856.7,222.4 L857.0,530.4 L857.2,383.8 L857.4,346.0 L857.6,484.3 L857.8,493.7 L858.0,414.9 L858.2,259.8 L858.5,320.4 L858.7,274.4 L858.9,363.8 L859.1,241.5 L859.3,388.9 L859.5,452.3 L859.7,512.2 L860.0,490.4 L860.2,384.5 L860.4,300.9 L860.6,401.6 L860.8,536.2 L861.0,419.7 L861.2,442.1 L861.5,295.5 L861.7,233.0 L861.9,327.0 L862.1,447.9 L862.3,480.5 L862.5,320.5 L862.7,405.8 L863.0,312.9 L863.2,483.2 L863.4,234.8 L863.6,244.7 L863.8,311.3 L864.0,344.8 L864.2,497.6 L864.5,408.6 L864.7,275.9 L864.9,285.2 L865.1,525.6 L865.3,276.9 L865.5,366.4 L865.7,225.9 L866.0,222.7 L866.2,525.8 L866.4,253.7 L866.6,543.8 L866.8,426.7 L867.0,438.9 L867.2,272.4 L867.5,433.3 L867.7,531.9 L867.9,437.0 L868.1,273.9 L868.3,517.1 L868.5,401.6 L868.7,469.3 L869.0,542.0 L869.2,506.7 L869.4,523.6 L869.6,398.2 L869.8,409.9 L870.0,376.3 L870.2,268.4 L870.5,360.5 L870.7,398.6 L870.9,336.5 L871.1,230.1 L871.3,292.9 L871.5,379.8 L871.7,429.4 L872.0,253.1 L872.2,524.7 L872.4,336.6 L872.6,505.0 L872.8,288.2 L873.0,375.4 L873.2,290.9 L873.5,469.6 L873.7,252.5 L873.9,513.9 L874.1,467.3 L874.3,438.2 L874.5,469.1 L874.7,413.7 L875.0,355.6 L875.2,505.0 L875.4,461.6 L875.6,396.3 L875.8,454.0 L876.0,417.2 L876.2,281.7 L876.5,260.6 L876.7,444.3 L876.9,356.8 L877.1,303.7 L877.3,533.0 L877.5,497.8 L877.7,540.3 L878.0,488.8 L878.2,346.8 L878.4,480.9 L878.6,518.8 L878.8,352.1 L879.0,312.9 L879.2,531.4 L879.5,484.1 L879.7,372.5 L879.9,351.1 L880.1,360.4 L880.3,344.6 L880.5,473.8 L880.7,316.5 L881.0,298.6 L881.2,437.7 L881.4,504.2 L881.6,307.0 L881.8,424.3 L882.0,400.2 L882.2,310.5 L882.4,530.7 L882.7,405.8 L882.9,540.7 L883.1,422.8 L883.3,282.2 L883.5,281.3 L883.7,290.2 L883.9,467.0 L884.2,335.0 L884.4,347.6 L884.6,330.9 L884.8,321.7 L885.0,330.2 L885.2,398.5 L885.4,316.7 L885.7,315.9 L885.9,447.1 L886.1,396.5 L886.3,300.4 L886.5,452.4 L886.7,340.3 L886.9,303.6 L887.2,284.0 L887.4,255.1 L887.6,352.1 L887.8,438.2 L888.0,496.3 L888.2,316.1 L888.4,517.0 L888.7,328.9 L888.9,479.4 L889.1,504.5 L889.3,498.7 L889.5,483.4 L889.7,393.7 L889.9,308.4 L890.2,269.4 L890.4,449.0 L890.6,336.1 L890.8,286.7 L891.0,421.8 L891.2,484.7 L891.4,427.3 L891.7,393.6 L891.9,500.8 L892.1,390.7 L892.3,314.1 L892.5,421.6 L892.7,524.6 L892.9,362.7 L893.2,348.8 L893.4,369.1 L893.6,297.7 L893.8,457.5 L894.0,511.4 L894.2,261.9 L894.4,418.7 L894.7,347.5 L894.9,269.1 L895.1,372.9 L895.3,525.9 L895.5,262.5 L895.7,543.8 L895.9,529.7 L896.2,294.1 L896.4,506.5 L896.6,495.8 L896.8,436.1 L897.0,516.4 L897.2,424.5 L897.4,530.5 L897.7,488.4 L897.9,317.1 L898.1,322.9 L898.3,532.4 L898.5,385.1 L898.7,428.3 L898.9,362.5 L899.2,514.4 L899.4,385.7 L899.6,462.2 L899.8,343.1 L900.0,472.7 L900.2,382.5 L900.4,357.9 L900.7,447.5 L900.9,494.9 L901.1,469.1 L901.3,315.4 L901.5,288.8 L901.7,432.7 L901.9,301.6 L902.2,304.8 L902.4,353.4 L902.6,543.2 L902.8,312.8 L903.0,306.2 L903.2,291.8 L903.4,273.0 L903.7,493.9 L903.9,286.3 L904.1,414.1 L904.3,432.7 L904.5,326.3 L904.7,405.5 L904.9,488.3 L905.2,288.4 L905.4,423.5 L905.6,540.5 L905.8,354.8 L906.0,449.3 L906.2,313.7 L906.4,340.3 L906.7,452.3 L906.9,318.6 L907.1,290.6 L907.3,304.3 L907.5,315.0 L907.7,337.6 L907.9,491.0 L908.2,512.6 L908.4,431.0 L908.6,509.2 L908.8,279.4 L909.0,499.7 L909.2,392.8 L909.4,471.1 L909.7,465.0 L909.9,449.3 L910.1,409.8 L910.3,526.1 L910.5,401.2 L910.7,479.1 L910.9,426.6 L911.2,386.3 L911.4,360.0 L911.6,511.1 L911.8,324.6 L912.0,511.2 L912.2,349.6 L912.4,443.5 L912.6,512.5 L912.9,339.2 L913.1,369.0 L913.3,292.8 L913.5,426.7 L913.7,397.9 L913.9,504.8 L914.1,291.8 L914.4,351.7 L914.6,398.4 L914.8,467.6 L915.0,418.4 L915.2,346.9 L915.4,470.5 L915.6,510.5 L915.9,489.1 L916.1,347.8 L916.3,407.4 L916.5,366.6 L916.7,390.0 L916.9,516.2 L917.1,366.9 L917.4,354.7 L917.6,388.1 L917.8,389.3 L918.0,352.7 L918.2,297.1 L918.4,432.1 L918.6,319.9 L918.9,407.1 L919.1,408.9 L919.3,491.1 L919.5,409.7 L919.7,295.7 L919.9,398.2 L920.1,512.1 L920.4,513.3 L920.6,463.0 L920.8,469.5 L921.0,419.3 L921.2,333.7 L921.4,530.3 L921.6,402.2 L921.9,465.7 L922.1,523.2 L922.3,535.4 L922.5,487.7 L922.7,364.0 L922.9,437.3 L923.1,365.9 L923.4,317.2 L923.6,354.9 L923.8,504.3 L924.0,400.6 L924.2,516.9 L924.4,492.9 L924.6,361.4 L924.9,465.3 L925.1,453.9 L925.3,507.1 L925.5,453.0 L925.7,302.9 L925.9,405.3 L926.1,521.1 L926.4,453.9 L926.6,425.6 L926.8,343.5 L927.0,346.9 L927.2,505.8 L927.4,359.7 L927.6,321.3 L927.9,360.2 L928.1,521.7 L928.3,381.2 L928.5,446.7 L928.7,398.3 L928.9,338.5 L929.1,349.6 L929.4,345.8 L929.6,448.4 L929.8,349.8 L930.0,454.1 L930.2,392.3 L930.4,318.2 L930.6,481.6 L930.9,361.7 L931.1,440.0 L931.3,479.4 L931.5,539.7 L931.7,452.3 L931.9,538.7 L932.1,390.7 L932.4,415.9 L932.6,384.0 L932.8,542.4 L933.0,349.7 L933.2,528.7 L933.4,491.7 L933.6,495.2 L933.9,375.9 L934.1,433.6 L934.3,327.6 L934.5,535.9 L934.7,397.3 L934.9,372.0 L935.1,360.3 L935.4,513.3 L935.6,467.4 L935.8,359.7 L936.0,431.4 L936.2,455.7 L936.4,521.7 L936.6,508.2 L936.9,351.6 L937.1,399.9 L937.3,528.9 L937.5,333.7 L937.7,359.5 L937.9,500.4 L938.1,508.1 L938.4,448.5 L938.6,481.3 L938.8,389.5 L939.0,376.9 L939.2,429.2 L939.4,418.0 L939.6,389.6 L939.9,417.1 L940.1,418.1 L940.3,412.8 L940.5,490.8 L940.7,418.1 L940.9,412.2 L941.1,537.2 L941.4,458.1 L941.6,484.7 L941.8,346.6 L942.0,449.3 L942.2,392.0 L942.4,366.3 L942.6,499.3 L942.9,470.5 L943.1,365.9 L943.3,454.4 L943.5,469.7 L943.7,443.7 L943.9,402.9 L944.1,436.1 L944.3,338.0 L944.6,503.1 L944.8,496.2 L945.0,355.8 L945.2,473.3 L945.4,413.8 L945.6,424.0 L945.8,494.8 L946.1,362.5 L946.3,514.4 L946.5,366.3 L946.7,394.1 L946.9,528.8 L947.1,438.9 L947.3,532.0 L947.6,496.8 L947.8,436.5 L948.0,534.6 L948.2,413.0 L948.4,387.4 L948.6,346.2 L948.8,523.5 L949.1,422.6 L949.3,538.6 L949.5,346.4 L949.7,356.8 L949.9,466.7 L950.1,395.0 L950.3,529.2 L950.6,472.9 L950.8,513.3 L951.0,518.4 L951.2,495.0 L951.4,446.7 L951.6,446.6 L951.8,362.8 L952.1,467.0 L952.3,394.2 L952.5,424.5 L952.7,456.6 L952.9,350.4 L953.1,409.2 L953.3,374.0 L953.6,497.5 L953.8,525.7 L954.0,538.1 L954.2,456.4 L954.4,528.5 L954.6,373.2 L954.8,533.8 L955.1,376.3 L955.3,395.1 L955.5,509.5 L955.7,481.1 L955.9,437.9 L956.1,466.2 L956.3,445.0 L956.6,392.3 L956.8,504.5 L957.0,517.8 L957.2,484.3 L957.4,363.7 L957.6,370.6 L957.8,478.9 L958.1,434.8 L958.3,357.4 L958.5,426.5 L958.7,366.2 L958.9,430.1 L959.1,384.1 L959.3,412.3 L959.6,478.9 L959.8,449.4 L960.0,407.0 L960.2,516.4 L960.4,504.7 L960.6,361.7 L960.8,383.1 L961.1,523.6 L961.3,467.2 L961.5,453.9 L961.7,395.7 L961.9,514.3 L962.1,356.7 L962.3,450.7 L962.6,478.7 L962.8,423.0 L963.0,393.5 L963.2,450.7 L963.4,362.1 L963.6,484.0 L963.8,536.6 L964.1,452.7 L964.3,490.2 L964.5,366.9 L964.7,529.9 L964.9,442.3 L965.1,408.4 L965.3,488.3 L965.6,431.2 L965.8,511.6 L966.0,398.7 L966.2,366.4 L966.4,394.5 L966.6,539.1 L966.8,482.2 L967.1,417.4 L967.3,367.9 L967.5,384.8 L967.7,405.4 L967.9,482.8 L968.1,408.4 L968.3,418.0 L968.6,499.7 L968.8,366.2 L969.0,434.1 L969.2,428.5 L969.4,485.0 L969.6,503.0 L969.8,540.1 L970.1,403.7 L970.3,449.5 L970.5,426.0 L970.7,509.1 L970.9,466.7 L971.1,537.2 L971.3,378.2 L971.6,487.6 L971.8,473.9 L972.0,392.8 L972.2,375.2 L972.4,480.8 L972.6,414.2 L972.8,522.7 L973.1,413.8 L973.3,459.0 L973.5,464.3 L973.7,521.9 L973.9,437.8 L974.1,524.6 L974.3,473.2 L974.6,539.7 L974.8,459.3 L975.0,399.8 L975.2,422.4 L975.4,467.4 L975.6,437.1 L975.8,440.6 L976.0,521.8 L976.3,444.0 L976.5,489.8 L976.7,472.3 L976.9,529.3 L977.1,485.8 L977.3,514.1 L977.5,521.9 L977.8,542.7 L978.0,484.2 L978.2,488.9 L978.4,471.4 L978.6,473.5 L978.8,392.2 L979.0,397.3 L979.3,452.4 L979.5,410.2 L979.7,444.3 L979.9,461.0 L980.1,459.6 L980.3,464.3 L980.5,402.7 L980.8,504.6 L981.0,447.6 L981.2,467.4 L981.4,492.5 L981.6,543.7 L981.8,451.0 L982.0,489.2 L982.3,417.7 L982.5,424.9 L982.7,537.8 L982.9,461.6 L983.1,443.2 L983.3,527.2 L983.5,484.7 L983.8,498.0 L984.0,489.6 L984.2,412.1 L984.4,453.3 L984.6,399.7 L984.8,484.6 L985.0,512.7 L985.3,474.2 L985.5,503.4 L985.7,410.8 L985.9,445.0 L986.1,425.2 L986.3,462.5 L986.5,452.1 L986.8,510.0 L987.0,522.8 L987.2,419.6 L987.4,399.1 L987.6,432.9 L987.8,522.3 L988.0,410.3 L988.3,470.4 L988.5,437.9 L988.7,479.2 L988.9,449.5 L989.1,489.5 L989.3,443.3 L989.5,496.3 L989.8,460.4 L990.0,528.2 L990.2,465.0 L990.4,524.7 L990.6,398.2 L990.8,397.9 L991.0,410.0 L991.3,454.0 L991.5,539.3 L991.7,449.4 L991.9,536.7 L992.1,416.2 L992.3,518.0 L992.5,536.8 L992.8,416.0 L993.0,533.8 L993.2,487.2 L993.4,539.0 L993.6,510.6 L993.8,489.5 L994.0,513.8 L994.3,445.3 L994.5,515.8 L994.7,426.9 L994.9,474.6 L995.1,428.2 L995.3,421.9 L995.5,404.3 L995.8,539.9 L996.0,436.4 L996.2,460.4 L996.4,485.6 L996.6,460.2 L996.8,457.6 L997.0,527.0 L997.3,441.3 L997.5,526.9 L997.7,481.0 L997.9,459.5 L998.1,416.3 L998.3,499.9 L998.5,471.4 L998.8,463.3 L999.0,482.1 L999.2,475.3 L999.4,442.2 L999.6,534.4 L999.8,525.9 L1000.0,490.6 L1000.3,531.7 L1000.5,440.4 L1000.7,541.1 L1000.9,420.7 L1001.1,543.0 L1001.3,528.4 L1001.5,498.0 L1001.8,472.2 L1002.0,421.8 L1002.2,438.9 L1002.4,528.7 L1002.6,468.5 L1002.8,526.3 L1003.0,512.4 L1003.3,476.7 L1003.5,491.4 L1003.7,424.1 L1003.9,527.3 L1004.1,520.2 L1004.3,433.6 L1004.5,486.3 L1004.8,470.9 L1005.0,473.3 L1005.2,528.2 L1005.4,433.0 L1005.6,430.7 L1005.8,427.4 L1006.0,481.3 L1006.2,459.4 L1006.5,543.6 L1006.7,496.9 L1006.9,512.8 L1007.1,529.7 L1007.3,449.9 L1007.5,538.8 L1007.7,506.6 L1008.0,517.1 L1008.2,510.5 L1008.4,477.2 L1008.6,435.5 L1008.8,426.0 L1009.0,510.1 L1009.2,482.2 L1009.5,511.1 L1009.7,471.2 L1009.9,512.9 L1010.1,513.9 L1010.3,468.1 L1010.5,460.6 L1010.7,474.6 L1011.0,490.8 L1011.2,534.8 L1011.4,506.2 L1011.6,519.1 L1011.8,483.2 L1012.0,510.6 L1012.2,525.6 L1012.5,507.4 L1012.7,485.4 L1012.9,432.1 L1013.1,464.5 L1013.3,445.9 L1013.5,517.6 L1013.7,450.5 L1014.0,508.1 L1014.2,488.4 L1014.4,530.8 L1014.6,449.2 L1014.8,532.9 L1015.0,482.1 L1015.2,464.2 L1015.5,492.5 L1015.7,449.8 L1015.9,469.7 L1016.1,526.3 L1016.3,447.9 L1016.5,493.3 L1016.7,453.4 L1017.0,467.1 L1017.2,485.3 L1017.4,481.0 L1017.6,531.7 L1017.8,522.4 L1018.0,467.6 L1018.2,507.6 L1018.5,468.2 L1018.7,526.4 L1018.9,534.0 L1019.1,458.1 L1019.3,539.2 L1019.5,504.6 L1019.7,474.7 L1020.0,517.8 L1020.2,449.5 L1020.4,445.4 L1020.6,493.3 L1020.8,451.7 L1021.0,513.5 L1021.2,524.1 L1021.5,527.6 L1021.7,526.7 L1021.9,456.1 L1022.1,541.5 L1022.3,453.5 L1022.5,514.1 L1022.7,466.4 L1023.0,474.0 L1023.2,505.3 L1023.4,446.4 L1023.6,498.9 L1023.8,447.4 L1024.0,487.1 L1024.2,486.5 L1024.5,485.7 L1024.7,522.2 L1024.9,486.7 L1025.1,461.2 L1025.3,536.4 L1025.5,531.7 L1025.7,500.9 L1026.0,463.9 L1026.2,462.8 L1026.4,508.0 L1026.6,455.2 L1026.8,460.5 L1027.0,517.7 L1027.2,464.9 L1027.5,540.8 L1027.7,486.1 L1027.9,512.3 L1028.1,506.1 L1028.3,499.6 L1028.5,496.1 L1028.7,456.7 L1029.0,472.4 L1029.2,493.2 L1029.4,530.0 L1029.6,499.7 L1029.8,525.6 L1030.0,504.5 L1030.2,493.7 L1030.5,520.3 L1030.7,512.6 L1030.9,497.7 L1031.1,516.7 L1031.3,489.0 L1031.5,483.2 L1031.7,540.9 L1032.0,511.6 L1032.2,490.8 L1032.4,530.9 L1032.6,484.8 L1032.8,466.0 L1033.0,476.0 L1033.2,529.7 L1033.5,537.8 L1033.7,520.0 L1033.9,465.1 L1034.1,487.1 L1034.3,525.9 L1034.5,465.8 L1034.7,517.9 L1035.0,471.0 L1035.2,471.1 L1035.4,465.2 L1035.6,505.9 L1035.8,488.8 L1036.0,502.5 L1036.2,538.6 L1036.5,492.2 L1036.7,484.2 L1036.9,514.4 L1037.1,486.8 L1037.3,499.8 L1037.5,522.0 L1037.7,539.9 L1037.9,526.6 L1038.2,481.7 L1038.4,512.1 L1038.6,501.2 L1038.8,474.5 L1039.0,542.8 L1039.2,519.3 L1039.4,525.8 L1039.7,488.8 L1039.9,508.2 L1040.1,519.3 L1040.3,515.9 L1040.5,496.9 L1040.7,480.6 L1040.9,484.9 L1041.2,494.9 L1041.4,543.8 L1041.6,500.5 L1041.8,540.9 L1042.0,500.4 L1042.2,482.1 L1042.4,486.1 L1042.7,506.2 L1042.9,521.3 L1043.1,480.4 L1043.3,528.7 L1043.5,503.3 L1043.7,479.7 L1043.9,521.7 L1044.2,489.2 L1044.4,483.3 L1044.6,537.8 L1044.8,505.2 L1045.0,485.3 L1045.2,490.7 L1045.4,523.5 L1045.7,518.6 L1045.9,498.2 L1046.1,534.7 L1046.3,533.7 L1046.5,491.4 L1046.7,529.6 L1046.9,536.1 L1047.2,505.1 L1047.4,541.1 L1047.6,539.1 L1047.8,494.5 L1048.0,533.4 L1048.2,497.3 L1048.4,530.4 L1048.7,495.1 L1048.9,514.2 L1049.1,497.5 L1049.3,495.6 L1049.5,542.7 L1049.7,541.8 L1049.9,521.8 L1050.2,505.6 L1050.4,499.2 L1050.6,525.3 L1050.8,520.0 L1051.0,522.1 L1051.2,514.4 L1051.4,522.3 L1051.7,508.7 L1051.9,503.8 L1052.1,522.7 L1052.3,542.5 L1052.5,513.8 L1052.7,509.9 L1052.9,502.8 L1053.2,508.6 L1053.4,523.9 L1053.6,527.6 L1053.8,516.9 L1054.0,511.4 L1054.2,537.5 L1054.4,510.6 L1054.7,525.5 L1054.9,512.9 L1055.1,498.8 L1055.3,534.9 L1055.5,519.7 L1055.7,501.2 L1055.9,524.6 L1056.2,520.9 L1056.4,517.5 L1056.6,514.6 L1056.8,541.4 L1057.0,538.5 L1057.2,515.5 L1057.4,528.1 L1057.7,499.5 L1057.9,504.0 L1058.1,518.1 L1058.3,525.5 L1058.5,517.4 L1058.7,536.7 L1058.9,508.6 L1059.2,502.9 L1059.4,525.7 L1059.6,514.7 L1059.8,519.9 L1060.0,540.5 L1060.2,539.2 L1060.4,522.6 L1060.7,543.1 L1060.9,515.2 L1061.1,543.2 L1061.3,537.3 L1061.5,535.2 L1061.7,505.8 L1061.9,535.1 L1062.2,540.2 L1062.4,528.6 L1062.6,543.9 L1062.8,510.0 L1063.0,534.5 L1063.2,543.5 L1063.4,532.3 L1063.7,540.8 L1063.9,533.2 L1064.1,537.8 L1064.3,520.9 L1064.5,509.2 L1064.7,516.1 L1064.9,510.1 L1065.2,538.1 L1065.4,528.6 L1065.6,537.4 L1065.8,517.5 L1066.0,516.4 L1066.2,518.4 L1066.4,518.1 L1066.7,513.3 L1066.9,538.3 L1067.1,518.0 L1067.3,539.7 L1067.5,540.6 L1067.7,527.8 L1067.9,515.9 L1068.2,543.8 L1068.4,537.0 L1068.6,519.6 L1068.8,529.4 L1069.0,533.7 L1069.2,541.0 L1069.4,525.8 L1069.6,535.2 L1069.9,532.0 L1070.1,523.5 L1070.3,540.1 L1070.5,535.2 L1070.7,523.9 L1070.9,536.4 L1071.1,538.6 L1071.4,522.1 L1071.6,521.8 L1071.8,537.4 L1072.0,538.6 L1072.2,536.6 L1072.4,522.9 L1072.6,537.2 L1072.9,543.8 L1073.1,542.6 L1073.3,522.5 L1073.5,541.1 L1073.7,525.7 L1073.9,527.6 L1074.1,539.3 L1074.4,540.7 L1074.6,543.6 L1074.8,533.8 L1075.0,525.3 L1075.2,535.5 L1075.4,541.3 L1075.6,541.8 L1075.9,536.2 L1076.1,527.2 L1076.3,543.7 L1076.5,543.6 L1076.7,540.4 L1076.9,531.1 L1077.1,543.2 L1077.4,539.4 L1077.6,533.2 L1077.8,533.3 L1078.0,531.1 L1078.2,535.5 L1078.4,531.6 L1078.6,533.8 L1078.9,536.8 L1079.1,537.2 L1079.3,541.9 L1079.5,536.0 L1079.7,544.0 L1079.9,536.2 L1080.1,542.5 L1080.4,540.7 L1080.6,538.9 L1080.8,535.3 L1081.0,541.5 L1081.2,539.4 L1081.4,536.5 L1081.6,538.7 L1081.9,540.8 L1082.1,543.8 L1082.3,542.3 L1082.5,536.9 L1082.7,541.8 L1082.9,541.2 L1083.1,543.3 L1083.4,541.8 L1083.6,543.8 L1083.8,543.7 L1084.0,539.5" fill="none" stroke="#1f77b4" stroke-width="1.4" opacity="0.85"/><text x="1040" y="54" fill="#ff7f0e" font-size="11">roll 2</text><text x="1090" y="558" fill="#ff7f0e" font-size="11">-2</text><path d="M616.0,180.0 L616.2,271.0 L616.4,297.0 L616.6,193.0 L616.9,388.0 L617.1,258.0 L617.3,375.0 L617.5,401.0 L617.7,401.0 L617.9,349.0 L618.1,271.0 L618.4,206.0 L618.6,388.0 L618.8,206.0 L619.0,427.0 L619.2,232.0 L619.4,297.0 L619.6,193.0 L619.9,232.0 L620.1,388.0 L620.3,414.0 L620.5,349.0 L620.7,284.0 L620.9,323.0 L621.1,193.0 L621.4,193.0 L621.6,219.0 L621.8,388.0 L622.0,349.0 L622.2,310.0 L622.4,258.0 L622.6,258.0 L622.9,284.0 L623.1,362.0 L623.3,414.0 L623.5,245.0 L623.7,284.0 L623.9,180.0 L624.1,414.0 L624.4,271.0 L624.6,180.0 L624.8,388.0 L625.0,414.0 L625.2,245.0 L625.4,427.0 L625.6,206.0 L625.9,297.0 L626.1,232.0 L626.3,401.0 L626.5,388.0 L626.7,245.0 L626.9,388.0 L627.1,297.0 L627.4,349.0 L627.6,388.0 L627.8,336.0 L628.0,193.0 L628.2,336.0 L628.4,349.0 L628.6,401.0 L628.9,310.0 L629.1,180.0 L629.3,232.0 L629.5,336.0 L629.7,271.0 L629.9,336.0 L630.1,427.0 L630.4,284.0 L630.6,232.0 L630.8,206.0 L631.0,219.0 L631.2,375.0 L631.4,297.0 L631.6,180.0 L631.8,193.0 L632.1,323.0 L632.3,206.0 L632.5,180.0 L632.7,375.0 L632.9,388.0 L633.1,271.0 L633.3,258.0 L633.6,232.0 L633.8,219.0 L634.0,206.0 L634.2,349.0 L634.4,232.0 L634.6,232.0 L634.8,219.0 L635.1,323.0 L635.3,167.0 L635.5,336.0 L635.7,219.0 L635.9,232.0 L636.1,388.0 L636.3,388.0 L636.6,219.0 L636.8,284.0 L637.0,388.0 L637.2,245.0 L637.4,258.0 L637.6,180.0 L637.8,219.0 L638.1,362.0 L638.3,180.0 L638.5,245.0 L638.7,180.0 L638.9,297.0 L639.1,232.0 L639.3,297.0 L639.6,362.0 L639.8,232.0 L640.0,193.0 L640.2,388.0 L640.4,388.0 L640.6,232.0 L640.8,245.0 L641.1,297.0 L641.3,323.0 L641.5,336.0 L641.7,258.0 L641.9,414.0 L642.1,258.0 L642.3,206.0 L642.6,180.0 L642.8,323.0 L643.0,349.0 L643.2,284.0 L643.4,193.0 L643.6,206.0 L643.8,245.0 L644.1,388.0 L644.3,427.0 L644.5,375.0 L644.7,297.0 L644.9,297.0 L645.1,193.0 L645.3,193.0 L645.6,375.0 L645.8,297.0 L646.0,375.0 L646.2,258.0 L646.4,310.0 L646.6,245.0 L646.8,258.0 L647.1,219.0 L647.3,193.0 L647.5,271.0 L647.7,271.0 L647.9,362.0 L648.1,193.0 L648.3,271.0 L648.6,336.0 L648.8,388.0 L649.0,167.0 L649.2,349.0 L649.4,284.0 L649.6,349.0 L649.8,206.0 L650.1,219.0 L650.3,336.0 L650.5,297.0 L650.7,414.0 L650.9,323.0 L651.1,349.0 L651.3,336.0 L651.6,362.0 L651.8,414.0 L652.0,258.0 L652.2,206.0 L652.4,219.0 L652.6,271.0 L652.8,336.0 L653.1,245.0 L653.3,362.0 L653.5,323.0 L653.7,310.0 L653.9,180.0 L654.1,401.0 L654.3,401.0 L654.6,258.0 L654.8,349.0 L655.0,323.0 L655.2,232.0 L655.4,271.0 L655.6,362.0 L655.8,375.0 L656.1,180.0 L656.3,258.0 L656.5,297.0 L656.7,323.0 L656.9,375.0 L657.1,284.0 L657.3,284.0 L657.6,427.0 L657.8,219.0 L658.0,323.0 L658.2,362.0 L658.4,336.0 L658.6,219.0 L658.8,375.0 L659.1,375.0 L659.3,401.0 L659.5,349.0 L659.7,323.0 L659.9,362.0 L660.1,401.0 L660.3,258.0 L660.6,219.0 L660.8,401.0 L661.0,375.0 L661.2,271.0 L661.4,310.0 L661.6,271.0 L661.8,232.0 L662.1,336.0 L662.3,362.0 L662.5,232.0 L662.7,427.0 L662.9,219.0 L663.1,310.0 L663.3,388.0 L663.5,258.0 L663.8,427.0 L664.0,206.0 L664.2,232.0 L664.4,375.0 L664.6,245.0 L664.8,362.0 L665.0,219.0 L665.3,414.0 L665.5,297.0 L665.7,180.0 L665.9,193.0 L666.1,193.0 L666.3,219.0 L666.5,245.0 L666.8,349.0 L667.0,232.0 L667.2,180.0 L667.4,206.0 L667.6,284.0 L667.8,245.0 L668.0,297.0 L668.3,414.0 L668.5,401.0 L668.7,232.0 L668.9,167.0 L669.1,323.0 L669.3,427.0 L669.5,271.0 L669.8,349.0 L670.0,245.0 L670.2,375.0 L670.4,297.0 L670.6,414.0 L670.8,349.0 L671.0,193.0 L671.3,323.0 L671.5,323.0 L671.7,219.0 L671.9,206.0 L672.1,167.0 L672.3,362.0 L672.5,362.0 L672.8,258.0 L673.0,284.0 L673.2,245.0 L673.4,219.0 L673.6,362.0 L673.8,219.0 L674.0,271.0 L674.3,336.0 L674.5,323.0 L674.7,336.0 L674.9,349.0 L675.1,219.0 L675.3,232.0 L675.5,375.0 L675.8,180.0 L676.0,245.0 L676.2,349.0 L676.4,388.0 L676.6,336.0 L676.8,323.0 L677.0,206.0 L677.3,219.0 L677.5,401.0 L677.7,258.0 L677.9,414.0 L678.1,297.0 L678.3,206.0 L678.5,206.0 L678.8,375.0 L679.0,258.0 L679.2,375.0 L679.4,310.0 L679.6,388.0 L679.8,245.0 L680.0,375.0 L680.3,206.0 L680.5,284.0 L680.7,180.0 L680.9,401.0 L681.1,336.0 L681.3,336.0 L681.5,388.0 L681.8,375.0 L682.0,219.0 L682.2,323.0 L682.4,388.0 L682.6,349.0 L682.8,349.0 L683.0,297.0 L683.3,219.0 L683.5,245.0 L683.7,219.0 L683.9,284.0 L684.1,258.0 L684.3,180.0 L684.5,297.0 L684.8,414.0 L685.0,401.0 L685.2,193.0 L685.4,180.0 L685.6,258.0 L685.8,427.0 L686.0,219.0 L686.3,349.0 L686.5,414.0 L686.7,336.0 L686.9,258.0 L687.1,245.0 L687.3,206.0 L687.5,258.0 L687.8,349.0 L688.0,310.0 L688.2,180.0 L688.4,232.0 L688.6,232.0 L688.8,271.0 L689.0,414.0 L689.3,362.0 L689.5,206.0 L689.7,336.0 L689.9,336.0 L690.1,193.0 L690.3,232.0 L690.5,401.0 L690.8,375.0 L691.0,284.0 L691.2,388.0 L691.4,284.0 L691.6,414.0 L691.8,336.0 L692.0,219.0 L692.3,297.0 L692.5,219.0 L692.7,349.0 L692.9,388.0 L693.1,375.0 L693.3,323.0 L693.5,427.0 L693.8,245.0 L694.0,336.0 L694.2,245.0 L694.4,193.0 L694.6,440.0 L694.8,271.0 L695.0,349.0 L695.2,414.0 L695.5,375.0 L695.7,115.0 L695.9,479.0 L696.1,245.0 L696.3,245.0 L696.5,349.0 L696.7,323.0 L697.0,154.0 L697.2,258.0 L697.4,271.0 L697.6,271.0 L697.8,362.0 L698.0,375.0 L698.2,245.0 L698.5,388.0 L698.7,284.0 L698.9,323.0 L699.1,141.0 L699.3,427.0 L699.5,206.0 L699.7,258.0 L700.0,440.0 L700.2,154.0 L700.4,271.0 L700.6,180.0 L700.8,271.0 L701.0,375.0 L701.2,219.0 L701.5,336.0 L701.7,349.0 L701.9,271.0 L702.1,362.0 L702.3,219.0 L702.5,232.0 L702.7,271.0 L703.0,284.0 L703.2,323.0 L703.4,193.0 L703.6,258.0 L703.8,245.0 L704.0,232.0 L704.2,388.0 L704.5,219.0 L704.7,466.0 L704.9,167.0 L705.1,349.0 L705.3,258.0 L705.5,362.0 L705.7,323.0 L706.0,258.0 L706.2,414.0 L706.4,362.0 L706.6,297.0 L706.8,245.0 L707.0,180.0 L707.2,375.0 L707.5,310.0 L707.7,219.0 L707.9,479.0 L708.1,141.0 L708.3,180.0 L708.5,414.0 L708.7,323.0 L709.0,323.0 L709.2,414.0 L709.4,271.0 L709.6,349.0 L709.8,297.0 L710.0,414.0 L710.2,128.0 L710.5,271.0 L710.7,310.0 L710.9,206.0 L711.1,375.0 L711.3,297.0 L711.5,349.0 L711.7,414.0 L712.0,388.0 L712.2,349.0 L712.4,323.0 L712.6,310.0 L712.8,323.0 L713.0,154.0 L713.2,479.0 L713.5,245.0 L713.7,349.0 L713.9,206.0 L714.1,297.0 L714.3,375.0 L714.5,284.0 L714.7,323.0 L715.0,336.0 L715.2,310.0 L715.4,167.0 L715.6,349.0 L715.8,258.0 L716.0,427.0 L716.2,180.0 L716.5,284.0 L716.7,271.0 L716.9,336.0 L717.1,271.0 L717.3,258.0 L717.5,349.0 L717.7,271.0 L718.0,414.0 L718.2,167.0 L718.4,297.0 L718.6,232.0 L718.8,193.0 L719.0,180.0 L719.2,219.0 L719.5,388.0 L719.7,206.0 L719.9,167.0 L720.1,180.0 L720.3,336.0 L720.5,180.0 L720.7,271.0 L721.0,310.0 L721.2,206.0 L721.4,479.0 L721.6,414.0 L721.8,141.0 L722.0,466.0 L722.2,401.0 L722.5,414.0 L722.7,336.0 L722.9,388.0 L723.1,414.0 L723.3,167.0 L723.5,167.0 L723.7,440.0 L724.0,375.0 L724.2,154.0 L724.4,284.0 L724.6,362.0 L724.8,297.0 L725.0,375.0 L725.2,271.0 L725.4,245.0 L725.7,401.0 L725.9,310.0 L726.1,414.0 L726.3,206.0 L726.5,271.0 L726.7,375.0 L726.9,271.0 L727.2,414.0 L727.4,102.0 L727.6,505.0 L727.8,388.0 L728.0,310.0 L728.2,388.0 L728.4,206.0 L728.7,232.0 L728.9,271.0 L729.1,245.0 L729.3,336.0 L729.5,206.0 L729.7,375.0 L729.9,401.0 L730.2,167.0 L730.4,427.0 L730.6,232.0 L730.8,180.0 L731.0,388.0 L731.2,362.0 L731.4,271.0 L731.7,167.0 L731.9,375.0 L732.1,310.0 L732.3,375.0 L732.5,336.0 L732.7,141.0 L732.9,167.0 L733.2,297.0 L733.4,349.0 L733.6,193.0 L733.8,180.0 L734.0,193.0 L734.2,310.0 L734.4,271.0 L734.7,401.0 L734.9,349.0 L735.1,336.0 L735.3,167.0 L735.5,193.0 L735.7,401.0 L735.9,193.0 L736.2,271.0 L736.4,323.0 L736.6,310.0 L736.8,180.0 L737.0,219.0 L737.2,219.0 L737.4,206.0 L737.7,310.0 L737.9,219.0 L738.1,219.0 L738.3,349.0 L738.5,193.0 L738.7,245.0 L738.9,479.0 L739.2,206.0 L739.4,258.0 L739.6,479.0 L739.8,115.0 L740.0,193.0 L740.2,427.0 L740.4,336.0 L740.7,297.0 L740.9,297.0 L741.1,375.0 L741.3,206.0 L741.5,297.0 L741.7,323.0 L741.9,271.0 L742.2,310.0 L742.4,258.0 L742.6,414.0 L742.8,258.0 L743.0,310.0 L743.2,180.0 L743.4,362.0 L743.7,180.0 L743.9,284.0 L744.1,284.0 L744.3,284.0 L744.5,388.0 L744.7,245.0 L744.9,271.0 L745.2,362.0 L745.4,271.0 L745.6,466.0 L745.8,115.0 L746.0,544.0 L746.2,297.0 L746.4,375.0 L746.7,349.0 L746.9,297.0 L747.1,232.0 L747.3,245.0 L747.5,193.0 L747.7,180.0 L747.9,271.0 L748.2,167.0 L748.4,310.0 L748.6,180.0 L748.8,336.0 L749.0,206.0 L749.2,245.0 L749.4,180.0 L749.7,271.0 L749.9,453.0 L750.1,375.0 L750.3,206.0 L750.5,414.0 L750.7,206.0 L750.9,258.0 L751.2,245.0 L751.4,323.0 L751.6,336.0 L751.8,349.0 L752.0,427.0 L752.2,232.0 L752.4,310.0 L752.7,440.0 L752.9,271.0 L753.1,310.0 L753.3,193.0 L753.5,232.0 L753.7,427.0 L753.9,401.0 L754.2,401.0 L754.4,414.0 L754.6,375.0 L754.8,310.0 L755.0,219.0 L755.2,414.0 L755.4,297.0 L755.7,388.0 L755.9,310.0 L756.1,206.0 L756.3,323.0 L756.5,336.0 L756.7,245.0 L756.9,245.0 L757.1,362.0 L757.4,206.0 L757.6,271.0 L757.8,375.0 L758.0,349.0 L758.2,245.0 L758.4,297.0 L758.6,167.0 L758.9,323.0 L759.1,154.0 L759.3,323.0 L759.5,193.0 L759.7,479.0 L759.9,193.0 L760.1,167.0 L760.4,258.0 L760.6,362.0 L760.8,245.0 L761.0,193.0 L761.2,323.0 L761.4,271.0 L761.6,310.0 L761.9,401.0 L762.1,167.0 L762.3,427.0 L762.5,362.0 L762.7,193.0 L762.9,349.0 L763.1,271.0 L763.4,440.0 L763.6,388.0 L763.8,375.0 L764.0,219.0 L764.2,375.0 L764.4,115.0 L764.6,258.0 L764.9,271.0 L765.1,310.0 L765.3,401.0 L765.5,310.0 L765.7,271.0 L765.9,193.0 L766.1,453.0 L766.4,245.0 L766.6,336.0 L766.8,219.0 L767.0,232.0 L767.2,414.0 L767.4,284.0 L767.6,180.0 L767.9,167.0 L768.1,349.0 L768.3,362.0 L768.5,375.0 L768.7,297.0 L768.9,336.0 L769.1,154.0 L769.4,440.0 L769.6,206.0 L769.8,427.0 L770.0,362.0 L770.2,271.0 L770.4,375.0 L770.6,362.0 L770.9,180.0 L771.1,401.0 L771.3,232.0 L771.5,180.0 L771.7,284.0 L771.9,284.0 L772.1,427.0 L772.4,115.0 L772.6,258.0 L772.8,258.0 L773.0,401.0 L773.2,245.0 L773.4,258.0 L773.6,336.0 L773.9,167.0 L774.1,258.0 L774.3,219.0 L774.5,193.0 L774.7,297.0 L774.9,206.0 L775.1,492.0 L775.4,232.0 L775.6,427.0 L775.8,180.0 L776.0,232.0 L776.2,271.0 L776.4,427.0 L776.6,349.0 L776.9,375.0 L777.1,206.0 L777.3,440.0 L777.5,115.0 L777.7,362.0 L777.9,141.0 L778.1,323.0 L778.4,245.0 L778.6,336.0 L778.8,310.0 L779.0,297.0 L779.2,284.0 L779.4,440.0 L779.6,154.0 L779.9,479.0 L780.1,297.0 L780.3,375.0 L780.5,414.0 L780.7,310.0 L780.9,193.0 L781.1,414.0 L781.4,206.0 L781.6,414.0 L781.8,154.0 L782.0,232.0 L782.2,193.0 L782.4,258.0 L782.6,336.0 L782.9,401.0 L783.1,154.0 L783.3,362.0 L783.5,258.0 L783.7,206.0 L783.9,362.0 L784.1,219.0 L784.4,466.0 L784.6,271.0 L784.8,323.0 L785.0,323.0 L785.2,375.0 L785.4,310.0 L785.6,284.0 L785.9,310.0 L786.1,167.0 L786.3,453.0 L786.5,427.0 L786.7,232.0 L786.9,388.0 L787.1,219.0 L787.4,362.0 L787.6,336.0 L787.8,323.0 L788.0,206.0 L788.2,180.0 L788.4,284.0 L788.6,427.0 L788.8,89.0 L789.1,375.0 L789.3,219.0 L789.5,206.0 L789.7,453.0 L789.9,232.0 L790.1,206.0 L790.3,193.0 L790.6,193.0 L790.8,362.0 L791.0,219.0 L791.2,349.0 L791.4,180.0 L791.6,375.0 L791.8,375.0 L792.1,310.0 L792.3,362.0 L792.5,297.0 L792.7,206.0 L792.9,180.0 L793.1,362.0 L793.3,258.0 L793.6,375.0 L793.8,232.0 L794.0,440.0 L794.2,219.0 L794.4,258.0 L794.6,219.0 L794.8,323.0 L795.1,414.0 L795.3,206.0 L795.5,310.0 L795.7,232.0 L795.9,323.0 L796.1,232.0 L796.3,232.0 L796.6,427.0 L796.8,388.0 L797.0,141.0 L797.2,206.0 L797.4,505.0 L797.6,258.0 L797.8,414.0 L798.1,245.0 L798.3,440.0 L798.5,271.0 L798.7,167.0 L798.9,180.0 L799.1,232.0 L799.3,414.0 L799.6,258.0 L799.8,206.0 L800.0,336.0 L800.2,323.0 L800.4,206.0 L800.6,427.0 L800.8,362.0 L801.1,375.0 L801.3,388.0 L801.5,414.0 L801.7,401.0 L801.9,414.0 L802.1,414.0 L802.3,193.0 L802.6,297.0 L802.8,232.0 L803.0,180.0 L803.2,388.0 L803.4,362.0 L803.6,206.0 L803.8,167.0 L804.1,297.0 L804.3,271.0 L804.5,440.0 L804.7,232.0 L804.9,284.0 L805.1,297.0 L805.3,206.0 L805.6,180.0 L805.8,466.0 L806.0,128.0 L806.2,180.0 L806.4,336.0 L806.6,219.0 L806.8,297.0 L807.1,232.0 L807.3,323.0 L807.5,180.0 L807.7,453.0 L807.9,193.0 L808.1,388.0 L808.3,414.0 L808.6,271.0 L808.8,414.0 L809.0,206.0 L809.2,349.0 L809.4,232.0 L809.6,284.0 L809.8,414.0 L810.1,388.0 L810.3,245.0 L810.5,206.0 L810.7,232.0 L810.9,440.0 L811.1,349.0 L811.3,336.0 L811.6,414.0 L811.8,375.0 L812.0,232.0 L812.2,375.0 L812.4,375.0 L812.6,115.0 L812.8,427.0 L813.1,310.0 L813.3,388.0 L813.5,245.0 L813.7,206.0 L813.9,193.0 L814.1,323.0 L814.3,154.0 L814.6,336.0 L814.8,297.0 L815.0,414.0 L815.2,219.0 L815.4,180.0 L815.6,310.0 L815.8,297.0 L816.1,232.0 L816.3,388.0 L816.5,206.0 L816.7,193.0 L816.9,284.0 L817.1,180.0 L817.3,336.0 L817.6,414.0 L817.8,193.0 L818.0,336.0 L818.2,167.0 L818.4,258.0 L818.6,245.0 L818.8,258.0 L819.0,245.0 L819.3,258.0 L819.5,466.0 L819.7,115.0 L819.9,388.0 L820.1,414.0 L820.3,349.0 L820.5,284.0 L820.8,258.0 L821.0,258.0 L821.2,336.0 L821.4,362.0 L821.6,349.0 L821.8,401.0 L822.0,362.0 L822.3,141.0 L822.5,245.0 L822.7,349.0 L822.9,310.0 L823.1,245.0 L823.3,362.0 L823.5,375.0 L823.8,349.0 L824.0,349.0 L824.2,245.0 L824.4,297.0 L824.6,206.0 L824.8,180.0 L825.0,232.0 L825.3,206.0 L825.5,245.0 L825.7,388.0 L825.9,388.0 L826.1,336.0 L826.3,362.0 L826.5,310.0 L826.8,206.0 L827.0,349.0 L827.2,336.0 L827.4,167.0 L827.6,375.0 L827.8,180.0 L828.0,271.0 L828.3,245.0 L828.5,206.0 L828.7,297.0 L828.9,414.0 L829.1,141.0 L829.3,349.0 L829.5,297.0 L829.8,349.0 L830.0,180.0 L830.2,232.0 L830.4,388.0 L830.6,336.0 L830.8,297.0 L831.0,323.0 L831.3,232.0 L831.5,466.0 L831.7,336.0 L831.9,167.0 L832.1,453.0 L832.3,258.0 L832.5,440.0 L832.8,115.0 L833.0,518.0 L833.2,76.0 L833.4,427.0 L833.6,375.0 L833.8,375.0 L834.0,180.0 L834.3,310.0 L834.5,180.0 L834.7,310.0 L834.9,349.0 L835.1,232.0 L835.3,362.0 L835.5,219.0 L835.8,219.0 L836.0,284.0 L836.2,232.0 L836.4,414.0 L836.6,388.0 L836.8,167.0 L837.0,440.0 L837.3,401.0 L837.5,388.0 L837.7,310.0 L837.9,388.0 L838.1,427.0 L838.3,349.0 L838.5,284.0 L838.8,349.0 L839.0,219.0 L839.2,414.0 L839.4,128.0 L839.6,440.0 L839.8,115.0 L840.0,375.0 L840.3,180.0 L840.5,219.0 L840.7,401.0 L840.9,336.0 L841.1,297.0 L841.3,284.0 L841.5,258.0 L841.8,232.0 L842.0,193.0 L842.2,362.0 L842.4,219.0 L842.6,245.0 L842.8,167.0 L843.0,440.0 L843.3,375.0 L843.5,414.0 L843.7,401.0 L843.9,180.0 L844.1,362.0 L844.3,310.0 L844.5,375.0 L844.8,427.0 L845.0,323.0 L845.2,297.0 L845.4,245.0 L845.6,219.0 L845.8,388.0 L846.0,349.0 L846.3,323.0 L846.5,167.0 L846.7,401.0 L846.9,323.0 L847.1,219.0 L847.3,440.0 L847.5,336.0 L847.8,193.0 L848.0,284.0 L848.2,297.0 L848.4,206.0 L848.6,414.0 L848.8,401.0 L849.0,323.0 L849.3,284.0 L849.5,193.0 L849.7,284.0 L849.9,245.0 L850.1,219.0 L850.3,440.0 L850.5,362.0 L850.7,206.0 L851.0,336.0 L851.2,401.0 L851.4,271.0 L851.6,245.0 L851.8,362.0 L852.0,206.0 L852.2,466.0 L852.5,167.0 L852.7,453.0 L852.9,401.0 L853.1,245.0 L853.3,414.0 L853.5,102.0 L853.7,193.0 L854.0,466.0 L854.2,167.0 L854.4,232.0 L854.6,206.0 L854.8,245.0 L855.0,219.0 L855.2,349.0 L855.5,297.0 L855.7,323.0 L855.9,219.0 L856.1,245.0 L856.3,297.0 L856.5,258.0 L856.7,206.0 L857.0,466.0 L857.2,232.0 L857.4,271.0 L857.6,297.0 L857.8,206.0 L858.0,206.0 L858.2,193.0 L858.5,388.0 L858.7,167.0 L858.9,349.0 L859.1,206.0 L859.3,297.0 L859.5,388.0 L859.7,414.0 L860.0,401.0 L860.2,401.0 L860.4,180.0 L860.6,349.0 L860.8,349.0 L861.0,362.0 L861.2,362.0 L861.5,349.0 L861.7,414.0 L861.9,245.0 L862.1,401.0 L862.3,193.0 L862.5,284.0 L862.7,284.0 L863.0,375.0 L863.2,401.0 L863.4,362.0 L863.6,388.0 L863.8,193.0 L864.0,180.0 L864.2,453.0 L864.5,388.0 L864.7,271.0 L864.9,206.0 L865.1,401.0 L865.3,297.0 L865.5,297.0 L865.7,245.0 L866.0,245.0 L866.2,323.0 L866.4,258.0 L866.6,232.0 L866.8,427.0 L867.0,336.0 L867.2,180.0 L867.5,388.0 L867.7,427.0 L867.9,414.0 L868.1,271.0 L868.3,388.0 L868.5,219.0 L868.7,440.0 L869.0,154.0 L869.2,453.0 L869.4,232.0 L869.6,323.0 L869.8,180.0 L870.0,427.0 L870.2,362.0 L870.5,115.0 L870.7,401.0 L870.9,258.0 L871.1,336.0 L871.3,284.0 L871.5,388.0 L871.7,414.0 L872.0,193.0 L872.2,388.0 L872.4,141.0 L872.6,232.0 L872.8,453.0 L873.0,336.0 L873.2,154.0 L873.5,479.0 L873.7,128.0 L873.9,206.0 L874.1,388.0 L874.3,206.0 L874.5,427.0 L874.7,388.0 L875.0,245.0 L875.2,349.0 L875.4,310.0 L875.6,323.0 L875.8,310.0 L876.0,206.0 L876.2,193.0 L876.5,375.0 L876.7,232.0 L876.9,349.0 L877.1,401.0 L877.3,414.0 L877.5,271.0 L877.7,271.0 L878.0,206.0 L878.2,271.0 L878.4,349.0 L878.6,401.0 L878.8,362.0 L879.0,115.0 L879.2,440.0 L879.5,297.0 L879.7,167.0 L879.9,414.0 L880.1,206.0 L880.3,336.0 L880.5,180.0 L880.7,466.0 L881.0,336.0 L881.2,219.0 L881.4,167.0 L881.6,336.0 L881.8,323.0 L882.0,284.0 L882.2,258.0 L882.4,180.0 L882.7,310.0 L882.9,193.0 L883.1,206.0 L883.3,453.0 L883.5,349.0 L883.7,258.0 L883.9,271.0 L884.2,219.0 L884.4,362.0 L884.6,414.0 L884.8,206.0 L885.0,414.0 L885.2,102.0 L885.4,375.0 L885.7,336.0 L885.9,401.0 L886.1,271.0 L886.3,193.0 L886.5,362.0 L886.7,310.0 L886.9,349.0 L887.2,284.0 L887.4,219.0 L887.6,297.0 L887.8,375.0 L888.0,284.0 L888.2,323.0 L888.4,297.0 L888.7,180.0 L888.9,427.0 L889.1,375.0 L889.3,375.0 L889.5,245.0 L889.7,336.0 L889.9,180.0 L890.2,427.0 L890.4,89.0 L890.6,388.0 L890.8,271.0 L891.0,180.0 L891.2,453.0 L891.4,336.0 L891.7,245.0 L891.9,362.0 L892.1,310.0 L892.3,323.0 L892.5,193.0 L892.7,271.0 L892.9,297.0 L893.2,258.0 L893.4,310.0 L893.6,232.0 L893.8,401.0 L894.0,375.0 L894.2,219.0 L894.4,271.0 L894.7,232.0 L894.9,245.0 L895.1,375.0 L895.3,258.0 L895.5,440.0 L895.7,401.0 L895.9,401.0 L896.2,141.0 L896.4,323.0 L896.6,414.0 L896.8,245.0 L897.0,206.0 L897.2,375.0 L897.4,310.0 L897.7,414.0 L897.9,258.0 L898.1,180.0 L898.3,453.0 L898.5,349.0 L898.7,167.0 L898.9,414.0 L899.2,310.0 L899.4,180.0 L899.6,310.0 L899.8,271.0 L900.0,206.0 L900.2,245.0 L900.4,284.0 L900.7,310.0 L900.9,362.0 L901.1,349.0 L901.3,154.0 L901.5,219.0 L901.7,206.0 L901.9,336.0 L902.2,271.0 L902.4,440.0 L902.6,388.0 L902.8,388.0 L903.0,193.0 L903.2,167.0 L903.4,219.0 L903.7,388.0 L903.9,414.0 L904.1,284.0 L904.3,297.0 L904.5,232.0 L904.7,297.0 L904.9,271.0 L905.2,206.0 L905.4,414.0 L905.6,284.0 L905.8,284.0 L906.0,284.0 L906.2,323.0 L906.4,362.0 L906.7,219.0 L906.9,258.0 L907.1,440.0 L907.3,401.0 L907.5,284.0 L907.7,310.0 L907.9,414.0 L908.2,349.0 L908.4,180.0 L908.6,180.0 L908.8,310.0 L909.0,258.0 L909.2,440.0 L909.4,232.0 L909.7,440.0 L909.9,115.0 L910.1,505.0 L910.3,414.0 L910.5,414.0 L910.7,232.0 L910.9,167.0 L911.2,193.0 L911.4,297.0 L911.6,284.0 L911.8,245.0 L912.0,167.0 L912.2,310.0 L912.4,284.0 L912.6,297.0 L912.9,323.0 L913.1,310.0 L913.3,180.0 L913.5,466.0 L913.7,102.0 L913.9,531.0 L914.1,401.0 L914.4,128.0 L914.6,440.0 L914.8,310.0 L915.0,167.0 L915.2,297.0 L915.4,349.0 L915.6,232.0 L915.9,388.0 L916.1,375.0 L916.3,284.0 L916.5,271.0 L916.7,336.0 L916.9,336.0 L917.1,284.0 L917.4,323.0 L917.6,154.0 L917.8,245.0 L918.0,323.0 L918.2,401.0 L918.4,323.0 L918.6,206.0 L918.9,336.0 L919.1,258.0 L919.3,414.0 L919.5,245.0 L919.7,271.0 L919.9,297.0 L920.1,180.0 L920.4,362.0 L920.6,310.0 L920.8,375.0 L921.0,284.0 L921.2,167.0 L921.4,414.0 L921.6,115.0 L921.9,258.0 L922.1,284.0 L922.3,427.0 L922.5,349.0 L922.7,284.0 L922.9,388.0 L923.1,141.0 L923.4,479.0 L923.6,323.0 L923.8,180.0 L924.0,375.0 L924.2,232.0 L924.4,232.0 L924.6,427.0 L924.9,323.0 L925.1,180.0 L925.3,245.0 L925.5,310.0 L925.7,414.0 L925.9,362.0 L926.1,128.0 L926.4,349.0 L926.6,362.0 L926.8,232.0 L927.0,388.0 L927.2,258.0 L927.4,349.0 L927.6,414.0 L927.9,375.0 L928.1,206.0 L928.3,453.0 L928.5,245.0 L928.7,323.0 L928.9,258.0 L929.1,271.0 L929.4,193.0 L929.6,284.0 L929.8,336.0 L930.0,310.0 L930.2,258.0 L930.4,388.0 L930.6,388.0 L930.9,388.0 L931.1,414.0 L931.3,414.0 L931.5,89.0 L931.7,362.0 L931.9,180.0 L932.1,375.0 L932.4,245.0 L932.6,232.0 L932.8,427.0 L933.0,167.0 L933.2,375.0 L933.4,414.0 L933.6,128.0 L933.9,193.0 L934.1,297.0 L934.3,310.0 L934.5,232.0 L934.7,180.0 L934.9,336.0 L935.1,401.0 L935.4,167.0 L935.6,219.0 L935.8,297.0 L936.0,401.0 L936.2,297.0 L936.4,427.0 L936.6,362.0 L936.9,167.0 L937.1,323.0 L937.3,336.0 L937.5,388.0 L937.7,284.0 L937.9,401.0 L938.1,232.0 L938.4,427.0 L938.6,115.0 L938.8,271.0 L939.0,401.0 L939.2,245.0 L939.4,245.0 L939.6,336.0 L939.9,297.0 L940.1,388.0 L940.3,375.0 L940.5,180.0 L940.7,219.0 L940.9,466.0 L941.1,232.0 L941.4,414.0 L941.6,245.0 L941.8,414.0 L942.0,362.0 L942.2,349.0 L942.4,167.0 L942.6,375.0 L942.9,232.0 L943.1,258.0 L943.3,180.0 L943.5,492.0 L943.7,258.0 L943.9,297.0 L944.1,258.0 L944.3,401.0 L944.6,297.0 L944.8,258.0 L945.0,193.0 L945.2,193.0 L945.4,245.0 L945.6,362.0 L945.8,193.0 L946.1,271.0 L946.3,427.0 L946.5,401.0 L946.7,128.0 L946.9,206.0 L947.1,440.0 L947.3,401.0 L947.6,349.0 L947.8,193.0 L948.0,180.0 L948.2,193.0 L948.4,310.0 L948.6,310.0 L948.8,336.0 L949.1,362.0 L949.3,206.0 L949.5,297.0 L949.7,414.0 L949.9,245.0 L950.1,388.0 L950.3,245.0 L950.6,414.0 L950.8,193.0 L951.0,206.0 L951.2,362.0 L951.4,388.0 L951.6,271.0 L951.8,284.0 L952.1,232.0 L952.3,414.0 L952.5,180.0 L952.7,414.0 L952.9,414.0 L953.1,349.0 L953.3,297.0 L953.6,284.0 L953.8,401.0 L954.0,128.0 L954.2,219.0 L954.4,336.0 L954.6,336.0 L954.8,167.0 L955.1,388.0 L955.3,219.0 L955.5,349.0 L955.7,167.0 L955.9,414.0 L956.1,271.0 L956.3,388.0 L956.6,336.0 L956.8,284.0 L957.0,167.0 L957.2,323.0 L957.4,284.0 L957.6,258.0 L957.8,271.0 L958.1,440.0 L958.3,388.0 L958.5,180.0 L958.7,375.0 L958.9,427.0 L959.1,167.0 L959.3,453.0 L959.6,427.0 L959.8,206.0 L960.0,271.0 L960.2,206.0 L960.4,362.0 L960.6,375.0 L960.8,219.0 L961.1,245.0 L961.3,271.0 L961.5,310.0 L961.7,206.0 L961.9,349.0 L962.1,349.0 L962.3,271.0 L962.6,310.0 L962.8,401.0 L963.0,323.0 L963.2,401.0 L963.4,362.0 L963.6,232.0 L963.8,245.0 L964.1,362.0 L964.3,232.0 L964.5,258.0 L964.7,258.0 L964.9,336.0 L965.1,271.0 L965.3,323.0 L965.6,427.0 L965.8,167.0 L966.0,375.0 L966.2,414.0 L966.4,232.0 L966.6,167.0 L966.8,323.0 L967.1,180.0 L967.3,297.0 L967.5,232.0 L967.7,284.0 L967.9,258.0 L968.1,336.0 L968.3,271.0 L968.6,375.0 L968.8,336.0 L969.0,310.0 L969.2,362.0 L969.4,401.0 L969.6,336.0 L969.8,154.0 L970.1,479.0 L970.3,401.0 L970.5,193.0 L970.7,310.0 L970.9,232.0 L971.1,258.0 L971.3,284.0 L971.6,336.0 L971.8,310.0 L972.0,167.0 L972.2,258.0 L972.4,440.0 L972.6,115.0 L972.8,206.0 L973.1,440.0 L973.3,206.0 L973.5,414.0 L973.7,245.0 L973.9,206.0 L974.1,401.0 L974.3,154.0 L974.6,193.0 L974.8,349.0 L975.0,336.0 L975.2,310.0 L975.4,414.0 L975.6,401.0 L975.8,167.0 L976.0,180.0 L976.3,414.0 L976.5,193.0 L976.7,219.0 L976.9,427.0 L977.1,284.0 L977.3,401.0 L977.5,349.0 L977.8,141.0 L978.0,258.0 L978.2,336.0 L978.4,414.0 L978.6,349.0 L978.8,128.0 L979.0,440.0 L979.3,297.0 L979.5,154.0 L979.7,232.0 L979.9,258.0 L980.1,180.0 L980.3,466.0 L980.5,219.0 L980.8,414.0 L981.0,193.0 L981.2,401.0 L981.4,219.0 L981.6,336.0 L981.8,245.0 L982.0,193.0 L982.3,336.0 L982.5,414.0 L982.7,349.0 L982.9,297.0 L983.1,362.0 L983.3,375.0 L983.5,232.0 L983.8,336.0 L984.0,323.0 L984.2,180.0 L984.4,193.0 L984.6,349.0 L984.8,427.0 L985.0,206.0 L985.3,271.0 L985.5,375.0 L985.7,284.0 L985.9,258.0 L986.1,375.0 L986.3,154.0 L986.5,453.0 L986.8,154.0 L987.0,336.0 L987.2,310.0 L987.4,206.0 L987.6,245.0 L987.8,401.0 L988.0,414.0 L988.3,219.0 L988.5,453.0 L988.7,414.0 L988.9,141.0 L989.1,492.0 L989.3,258.0 L989.5,362.0 L989.8,271.0 L990.0,245.0 L990.2,349.0 L990.4,154.0 L990.6,297.0 L990.8,375.0 L991.0,310.0 L991.3,245.0 L991.5,414.0 L991.7,388.0 L991.9,115.0 L992.1,193.0 L992.3,271.0 L992.5,323.0 L992.8,323.0 L993.0,206.0 L993.2,206.0 L993.4,427.0 L993.6,232.0 L993.8,167.0 L994.0,206.0 L994.3,349.0 L994.5,388.0 L994.7,310.0 L994.9,284.0 L995.1,388.0 L995.3,414.0 L995.5,141.0 L995.8,427.0 L996.0,102.0 L996.2,440.0 L996.4,245.0 L996.6,453.0 L996.8,336.0 L997.0,154.0 L997.3,310.0 L997.5,297.0 L997.7,271.0 L997.9,414.0 L998.1,375.0 L998.3,427.0 L998.5,115.0 L998.8,440.0 L999.0,271.0 L999.2,219.0 L999.4,401.0 L999.6,297.0 L999.8,414.0 L1000.0,115.0 L1000.3,219.0 L1000.5,427.0 L1000.7,297.0 L1000.9,193.0 L1001.1,323.0 L1001.3,284.0 L1001.5,193.0 L1001.8,180.0 L1002.0,232.0 L1002.2,180.0 L1002.4,284.0 L1002.6,232.0 L1002.8,284.0 L1003.0,336.0 L1003.3,193.0 L1003.5,310.0 L1003.7,219.0 L1003.9,167.0 L1004.1,505.0 L1004.3,427.0 L1004.5,219.0 L1004.8,362.0 L1005.0,297.0 L1005.2,336.0 L1005.4,323.0 L1005.6,258.0 L1005.8,284.0 L1006.0,284.0 L1006.2,232.0 L1006.5,466.0 L1006.7,115.0 L1006.9,310.0 L1007.1,414.0 L1007.3,414.0 L1007.5,375.0 L1007.7,284.0 L1008.0,180.0 L1008.2,232.0 L1008.4,388.0 L1008.6,401.0 L1008.8,284.0 L1009.0,245.0 L1009.2,193.0 L1009.5,440.0 L1009.7,232.0 L1009.9,193.0 L1010.1,414.0 L1010.3,349.0 L1010.5,128.0 L1010.7,232.0 L1011.0,466.0 L1011.2,193.0 L1011.4,479.0 L1011.6,310.0 L1011.8,323.0 L1012.0,258.0 L1012.2,414.0 L1012.5,180.0 L1012.7,427.0 L1012.9,128.0 L1013.1,336.0 L1013.3,180.0 L1013.5,219.0 L1013.7,375.0 L1014.0,375.0 L1014.2,284.0 L1014.4,388.0 L1014.6,401.0 L1014.8,232.0 L1015.0,297.0 L1015.2,284.0 L1015.5,323.0 L1015.7,245.0 L1015.9,323.0 L1016.1,284.0 L1016.3,297.0 L1016.5,284.0 L1016.7,245.0 L1017.0,258.0 L1017.2,245.0 L1017.4,271.0 L1017.6,440.0 L1017.8,362.0 L1018.0,323.0 L1018.2,219.0 L1018.5,167.0 L1018.7,388.0 L1018.9,375.0 L1019.1,310.0 L1019.3,206.0 L1019.5,349.0 L1019.7,167.0 L1020.0,271.0 L1020.2,258.0 L1020.4,284.0 L1020.6,427.0 L1020.8,258.0 L1021.0,271.0 L1021.2,271.0 L1021.5,180.0 L1021.7,271.0 L1021.9,284.0 L1022.1,427.0 L1022.3,245.0 L1022.5,440.0 L1022.7,297.0 L1023.0,245.0 L1023.2,336.0 L1023.4,388.0 L1023.6,336.0 L1023.8,375.0 L1024.0,375.0 L1024.2,141.0 L1024.5,388.0 L1024.7,193.0 L1024.9,297.0 L1025.1,349.0 L1025.3,232.0 L1025.5,323.0 L1025.7,258.0 L1026.0,258.0 L1026.2,427.0 L1026.4,310.0 L1026.6,219.0 L1026.8,310.0 L1027.0,258.0 L1027.2,349.0 L1027.5,414.0 L1027.7,362.0 L1027.9,193.0 L1028.1,180.0 L1028.3,193.0 L1028.5,167.0 L1028.7,440.0 L1029.0,219.0 L1029.2,193.0 L1029.4,232.0 L1029.6,180.0 L1029.8,336.0 L1030.0,245.0 L1030.2,245.0 L1030.5,362.0 L1030.7,349.0 L1030.9,401.0 L1031.1,258.0 L1031.3,206.0 L1031.5,453.0 L1031.7,115.0 L1032.0,518.0 L1032.2,310.0 L1032.4,336.0 L1032.6,336.0 L1032.8,154.0 L1033.0,284.0 L1033.2,310.0 L1033.5,258.0 L1033.7,297.0 L1033.9,297.0 L1034.1,167.0 L1034.3,310.0 L1034.5,219.0 L1034.7,414.0 L1035.0,258.0 L1035.2,284.0 L1035.4,245.0 L1035.6,375.0 L1035.8,193.0 L1036.0,180.0 L1036.2,323.0 L1036.5,193.0 L1036.7,180.0 L1036.9,336.0 L1037.1,271.0 L1037.3,245.0 L1037.5,440.0 L1037.7,232.0 L1037.9,453.0 L1038.2,401.0 L1038.4,206.0 L1038.6,245.0 L1038.8,375.0 L1039.0,193.0 L1039.2,349.0 L1039.4,245.0 L1039.7,245.0 L1039.9,258.0 L1040.1,375.0 L1040.3,401.0 L1040.5,388.0 L1040.7,193.0 L1040.9,362.0 L1041.2,323.0 L1041.4,336.0 L1041.6,323.0 L1041.8,362.0 L1042.0,167.0 L1042.2,375.0 L1042.4,219.0 L1042.7,453.0 L1042.9,76.0 L1043.1,193.0 L1043.3,219.0 L1043.5,310.0 L1043.7,206.0 L1043.9,440.0 L1044.2,167.0 L1044.4,479.0 L1044.6,401.0 L1044.8,271.0 L1045.0,206.0 L1045.2,167.0 L1045.4,362.0 L1045.7,362.0 L1045.9,219.0 L1046.1,466.0 L1046.3,362.0 L1046.5,141.0 L1046.7,492.0 L1046.9,401.0 L1047.2,167.0 L1047.4,232.0 L1047.6,336.0 L1047.8,284.0 L1048.0,219.0 L1048.2,219.0 L1048.4,180.0 L1048.7,310.0 L1048.9,193.0 L1049.1,505.0 L1049.3,427.0 L1049.5,180.0 L1049.7,323.0 L1049.9,388.0 L1050.2,271.0 L1050.4,336.0 L1050.6,336.0 L1050.8,284.0 L1051.0,362.0 L1051.2,414.0 L1051.4,141.0 L1051.7,427.0 L1051.9,102.0 L1052.1,414.0 L1052.3,193.0 L1052.5,453.0 L1052.7,219.0 L1052.9,297.0 L1053.2,362.0 L1053.4,193.0 L1053.6,453.0 L1053.8,219.0 L1054.0,284.0 L1054.2,388.0 L1054.4,258.0 L1054.7,271.0 L1054.9,167.0 L1055.1,284.0 L1055.3,388.0 L1055.5,193.0 L1055.7,453.0 L1055.9,375.0 L1056.2,154.0 L1056.4,180.0 L1056.6,388.0 L1056.8,180.0 L1057.0,401.0 L1057.2,141.0 L1057.4,258.0 L1057.7,271.0 L1057.9,349.0 L1058.1,401.0 L1058.3,271.0 L1058.5,440.0 L1058.7,401.0 L1058.9,193.0 L1059.2,336.0 L1059.4,206.0 L1059.6,284.0 L1059.8,258.0 L1060.0,284.0 L1060.2,245.0 L1060.4,284.0 L1060.7,193.0 L1060.9,336.0 L1061.1,245.0 L1061.3,414.0 L1061.5,297.0 L1061.7,297.0 L1061.9,180.0 L1062.2,414.0 L1062.4,245.0 L1062.6,245.0 L1062.8,323.0 L1063.0,310.0 L1063.2,284.0 L1063.4,310.0 L1063.7,206.0 L1063.9,310.0 L1064.1,375.0 L1064.3,219.0 L1064.5,258.0 L1064.7,297.0 L1064.9,193.0 L1065.2,362.0 L1065.4,193.0 L1065.6,466.0 L1065.8,232.0 L1066.0,232.0 L1066.2,427.0 L1066.4,310.0 L1066.7,258.0 L1066.9,271.0 L1067.1,427.0 L1067.3,115.0 L1067.5,492.0 L1067.7,258.0 L1067.9,401.0 L1068.2,297.0 L1068.4,245.0 L1068.6,284.0 L1068.8,245.0 L1069.0,284.0 L1069.2,271.0 L1069.4,167.0 L1069.6,310.0 L1069.9,310.0 L1070.1,206.0 L1070.3,232.0 L1070.5,427.0 L1070.7,375.0 L1070.9,258.0 L1071.1,336.0 L1071.4,180.0 L1071.6,271.0 L1071.8,180.0 L1072.0,375.0 L1072.2,219.0 L1072.4,310.0 L1072.6,193.0 L1072.9,206.0 L1073.1,336.0 L1073.3,375.0 L1073.5,310.0 L1073.7,180.0 L1073.9,206.0 L1074.1,414.0 L1074.4,219.0 L1074.6,167.0 L1074.8,453.0 L1075.0,206.0 L1075.2,271.0 L1075.4,401.0 L1075.6,336.0 L1075.9,349.0 L1076.1,206.0 L1076.3,271.0 L1076.5,310.0 L1076.7,258.0 L1076.9,427.0 L1077.1,193.0 L1077.4,245.0 L1077.6,414.0 L1077.8,375.0 L1078.0,297.0 L1078.2,297.0 L1078.4,297.0 L1078.6,232.0 L1078.9,466.0 L1079.1,401.0 L1079.3,310.0 L1079.5,310.0 L1079.7,180.0 L1079.9,414.0 L1080.1,401.0 L1080.4,180.0 L1080.6,219.0 L1080.8,271.0 L1081.0,167.0 L1081.2,401.0 L1081.4,323.0 L1081.6,219.0 L1081.9,427.0 L1082.1,180.0 L1082.3,206.0 L1082.5,453.0 L1082.7,401.0 L1082.9,154.0 L1083.1,245.0 L1083.4,271.0 L1083.6,297.0 L1083.8,271.0 L1084.0,232.0" fill="none" stroke="#ff7f0e" stroke-width="1.1" opacity="0.85"/><text x="616" y="572" font-size="11" fill="#888">time 0..44 s — altitude (blue) &amp; roll (orange)</text></svg>