<svg xmlns="http://www.w3.org/2000/svg" width="1140" height="600" font-family="sans-serif" font-size="13"><rect width="1140" height="600" fill="white"/><text x="20" y="26" font-size="15" fill="#333">TMS-7 F15 — corner_spike</text><rect x="20" y="40" width="540" height="540" fill="#fbfbfb" stroke="#ddd"/><rect x="50" y="303" width="317" height="68" fill="#cde" stroke="#369" opacity="0.7"/><text x="50" y="298" fill="#369" font-size="12">landing zone</text><circle cx="250" cy="409" r="5" fill="black"/><text x="258" y="413" font-size="12">pad</text><path d="M250.3,409.1 L250.3,409.1 L250.3,409.1 L250.3,409.1 L250.3,409.1 L250.3,409.1 L250.3,409.1 L250.3,409.1 L250.3,409.1 L250.3,409.1 L250.3,409.1 L250.3,409.1 L250.3,409.1 L250.3,409.1 L250.3,409.1 L250.3,409.1 L250.3,409.1 L250.3,409.1 L250.3,409.1 L250.3,409.1 L250.3,409.1 L250.3,409.1 L250.3,409.1 L250.3,409.1 L250.3,409.1 L250.3,409.1 L250.3,409.1 L250.3,409.1 L250.3,409.1 L250.3,409.1 L250.3,409.1 L250.3,409.1 L250.3,409.1 L250.3,409.1 L250.3,409.1 L250.3,409.1 L250.3,409.1 L250.3,409.1 L250.3,409.1 L250.3,409.1 L250.3,409.1 L250.3,409.1 L250.3,409.1 L250.3,409.1 L250.3,409.1 L250.3,409.1 L250.3,409.1 L250.3,409.1 L250.3,409.1 L250.3,409.1 L250.3,409.1 L250.3,409.1 L250.3,409.1 L250.3,409.1 L250.3,409.1 L250.3,409.1 L250.3,409.1 L250.3,409.1 L251.5,407.0 L253.1,404.6 L254.4,402.1 L256.0,399.9 L257.7,397.4 L259.4,395.2 L261.1,392.9 L262.8,390.6 L264.6,388.4 L266.5,386.3 L268.4,384.2 L270.4,382.1 L272.5,380.3 L274.5,378.2 L276.6,376.3 L278.8,374.4 L281.0,372.5 L283.2,370.8 L285.4,368.9 L287.6,367.2 L289.7,365.4 L291.9,363.7 L294.1,361.8 L296.1,359.7 L298.2,357.8 L300.2,355.7 L302.1,353.7 L304.0,351.4 L305.8,349.3 L307.5,347.1 L309.2,344.8 L310.8,342.3 L312.3,340.1 L313.8,337.6 L315.4,335.2 L316.7,332.5 L317.9,330.1 L319.1,327.4 L320.3,324.8 L321.3,322.2 L322.3,319.5 L323.2,316.9 L324.0,314.1 L324.7,311.4 L325.4,308.6 L325.9,305.8 L326.4,303.1 L326.9,300.3 L327.3,297.5 L327.8,294.6 L328.1,291.8 L328.6,289.0 L329.3,286.1 L329.8,283.5 L330.5,280.7 L331.4,277.8 L332.2,275.2 L333.1,272.6 L334.1,269.9 L335.1,267.3 L336.3,264.6 L337.5,262.0 L338.9,259.5 L340.2,256.9 L341.6,254.5 L343.1,252.0 L344.6,249.7 L346.2,247.3 L347.9,245.0 L349.7,242.8 L351.4,240.7 L353.3,238.4 L355.4,236.3 L357.4,234.5 L359.4,232.4 L361.5,230.5 L363.7,228.6 L365.9,226.9 L368.1,225.2 L370.5,223.5 L372.7,221.8 L375.1,220.3 L377.7,218.8 L380.0,217.5 L382.6,216.2 L385.1,214.8 L387.7,213.7 L390.4,212.6 L393.0,211.6 L395.7,210.7 L398.4,209.8 L401.1,209.0 L403.9,208.2 L406.8,207.7 L409.5,207.1 L412.4,206.5 L415.1,206.2 L418.0,205.8 L420.7,205.6 L423.6,205.4 L426.5,205.4 L429.2,205.4 L432.1,205.4 L435.0,205.6 L437.9,205.8 L440.6,206.2 L443.5,206.5 L446.3,206.9 L449.1,207.5 L451.9,208.1 L454.6,208.8 L457.3,209.6 L460.0,210.3 L462.8,211.3 L465.5,212.4 L468.0,213.3 L470.8,214.5 L473.3,215.8 L475.9,217.1 L478.3,218.4 L480.8,219.8 L483.2,221.3 L485.6,223.0 L488.0,224.5 L490.2,226.2 L492.4,227.9 L494.6,229.7 L496.8,231.6 L498.9,233.5 L500.9,235.6 L502.8,237.7 L504.8,239.7 L506.7,241.8 L508.4,244.1 L510.1,246.3 L511.8,248.6 L513.3,251.1 L514.9,253.5 L516.4,256.0 L517.7,258.4 L519.1,260.9 L520.3,263.5 L521.5,266.1 L522.5,268.8 L523.5,271.4 L524.6,274.1 L525.4,276.7 L526.3,279.5 L526.9,282.2 L527.6,285.0 L528.1,287.8 L528.6,290.7 L529.1,293.5 L529.5,296.3 L529.7,299.2 L530.0,302.0 L530.0,304.8 L530.0,307.6 L530.0,310.5 L530.0,313.3 L529.8,316.1 L529.5,319.0 L529.1,321.8 L528.6,324.6 L528.3,327.4 L527.6,330.3 L526.9,332.9 L526.3,335.7 L525.4,338.4 L524.6,341.2 L523.5,343.9 L522.5,346.5 L521.5,349.1 L520.3,351.8 L519.1,354.2 L517.7,356.9 L516.4,359.3 L515.0,361.8 L513.5,364.2 L512.0,366.7 L510.4,368.9 L508.7,371.2 L507.0,373.5 L505.1,375.7 L503.3,377.8 L501.4,379.9 L499.4,382.0 L497.3,384.0 L495.3,385.9 L493.2,387.8 L491.0,389.7 L488.8,391.4 L486.6,393.3 L484.2,394.8 L481.8,396.5 L479.4,398.0 L477.1,399.5 L474.5,400.8 L472.0,402.1 L469.4,403.5 L466.9,404.6 L464.3,405.9 L461.7,406.8 L459.0,408.0 L456.3,408.9 L453.6,409.7 L450.9,410.6 L448.1,411.2 L445.4,411.9 L442.5,412.5 L439.8,413.1 L436.9,413.5 L434.2,413.8 L431.3,414.2 L428.6,414.4 L425.7,414.6 L423.3,414.6 L420.9,414.6 L418.5,414.6 L416.1,414.6 L413.7,414.4 L411.4,414.2 L409.0,414.0 L406.8,413.8 L404.4,413.5 L402.0,413.1 L399.6,412.7 L397.4,412.1 L395.0,411.6 L392.8,411.0 L390.4,410.4 L388.2,409.7 L385.8,409.1 L383.6,408.4 L381.4,407.4 L379.2,406.7 L377.0,405.7 L374.9,404.8 L372.7,403.8 L370.5,402.7 L368.5,401.6 L366.4,400.4 L364.4,399.3 L362.3,398.2 L360.3,396.9 L358.3,395.5 L356.4,394.2 L354.5,392.7 L352.5,391.4 L350.8,389.9 L348.9,388.4 L347.0,386.9" fill="none" stroke="#1f77b4" stroke-width="1.7" opacity="0.85"/><circle cx="347" cy="387" r="4.5" fill="#1f77b4"/><text x="28" y="572" font-size="11" fill="#888">ground track — m from pad (N up)</text><rect x="580" y="40" width="540" height="540" fill="#fbfbfb" stroke="#ddd"/><text x="586" y="54" fill="#1f77b4" font-size="11">alt 302</text><text x="586" y="558" fill="#1f77b4" font-size="11">2</text><path d="M616.0,543.4 L616.3,543.6 L616.5,544.0 L616.8,543.9 L617.0,543.9 L617.3,543.5 L617.6,543.4 L617.8,543.3 L618.1,543.2 L618.4,543.4 L618.6,542.4 L618.9,543.0 L619.1,542.2 L619.4,541.8 L619.7,542.6 L619.9,541.2 L620.2,542.0 L620.5,541.8 L620.7,541.1 L621.0,540.6 L621.2,541.0 L621.5,540.9 L621.8,539.8 L622.0,539.1 L622.3,538.8 L622.6,538.2 L622.8,537.9 L623.1,537.3 L623.3,537.2 L623.6,536.8 L623.9,536.4 L624.1,535.6 L624.4,535.1 L624.7,534.4 L624.9,535.6 L625.2,534.5 L625.4,533.8 L625.7,532.8 L626.0,532.5 L626.2,531.7 L626.5,532.3 L626.8,530.9 L627.0,530.4 L627.3,530.1 L627.5,529.2 L627.8,529.4 L628.1,527.6 L628.3,525.9 L628.6,526.1 L628.9,525.6 L629.1,523.2 L629.4,526.2 L629.6,521.3 L629.9,522.1 L630.2,523.5 L630.4,522.6 L630.7,518.0 L631.0,521.5 L631.2,516.9 L631.5,518.4 L631.7,516.3 L632.0,512.8 L632.3,514.3 L632.5,511.9 L632.8,516.0 L633.1,510.5 L633.3,507.9 L633.6,511.0 L633.8,506.0 L634.1,504.7 L634.4,504.9 L634.6,502.6 L634.9,508.2 L635.2,502.4 L635.4,501.5 L635.7,500.9 L635.9,496.9 L636.2,498.2 L636.5,500.0 L636.7,502.3 L637.0,500.5 L637.3,499.1 L637.5,496.7 L637.8,495.1 L638.0,490.3 L638.3,492.4 L638.6,483.5 L638.8,485.3 L639.1,487.7 L639.4,490.4 L639.6,489.0 L639.9,487.6 L640.1,485.2 L640.4,478.8 L640.7,482.9 L640.9,477.4 L641.2,481.6 L641.5,468.3 L641.7,472.0 L642.0,469.1 L642.2,472.1 L642.5,463.4 L642.8,474.7 L643.0,464.7 L643.3,458.4 L643.6,459.9 L643.8,466.5 L644.1,462.5 L644.3,454.5 L644.6,454.0 L644.9,449.1 L645.1,456.2 L645.4,451.9 L645.7,458.3 L645.9,453.7 L646.2,449.4 L646.4,451.7 L646.7,446.6 L647.0,433.2 L647.2,438.7 L647.5,450.5 L647.8,433.0 L648.0,432.9 L648.3,436.3 L648.5,439.8 L648.8,436.5 L649.1,426.2 L649.3,430.1 L649.6,426.3 L649.9,428.1 L650.1,430.7 L650.4,433.4 L650.6,416.8 L650.9,413.9 L651.2,405.8 L651.4,410.9 L651.7,411.4 L652.0,415.0 L652.2,400.3 L652.5,403.7 L652.7,390.5 L653.0,403.7 L653.3,386.0 L653.5,385.9 L653.8,385.6 L654.1,400.2 L654.3,377.4 L654.6,398.2 L654.8,396.8 L655.1,386.1 L655.4,370.3 L655.6,380.0 L655.9,370.5 L656.2,383.4 L656.4,370.5 L656.7,361.2 L656.9,383.7 L657.2,356.5 L657.5,358.8 L657.7,371.7 L658.0,358.8 L658.3,372.2 L658.5,342.6 L658.8,373.9 L659.0,347.7 L659.3,342.8 L659.6,367.0 L659.8,337.1 L660.1,366.3 L660.4,364.0 L660.6,336.2 L660.9,325.2 L661.1,329.0 L661.4,348.6 L661.7,330.6 L661.9,322.4 L662.2,308.6 L662.5,319.9 L662.7,317.9 L663.0,299.8 L663.2,335.5 L663.5,326.9 L663.8,322.7 L664.0,293.5 L664.3,326.6 L664.6,325.3 L664.8,318.1 L665.1,315.8 L665.3,289.8 L665.6,306.4 L665.9,311.1 L666.1,287.6 L666.4,299.7 L666.7,290.7 L666.9,287.9 L667.2,278.9 L667.4,263.4 L667.7,292.8 L668.0,263.2 L668.2,268.2 L668.5,281.9 L668.8,287.8 L669.0,252.0 L669.3,293.0 L669.5,283.5 L669.8,254.5 L670.1,263.6 L670.3,275.2 L670.6,239.7 L670.9,258.0 L671.1,248.9 L671.4,266.7 L671.6,242.9 L671.9,257.0 L672.2,263.9 L672.4,278.9 L672.7,250.1 L673.0,243.2 L673.2,274.9 L673.5,220.9 L673.7,240.5 L674.0,237.5 L674.3,225.5 L674.5,243.8 L674.8,225.3 L675.1,253.9 L675.3,209.3 L675.6,203.0 L675.8,231.9 L676.1,241.5 L676.4,236.0 L676.6,228.7 L676.9,213.7 L677.2,224.1 L677.4,237.9 L677.7,246.0 L677.9,235.9 L678.2,195.6 L678.5,209.1 L678.7,184.3 L679.0,204.3 L679.3,210.8 L679.5,195.7 L679.8,211.9 L680.0,213.3 L680.3,180.6 L680.6,184.5 L680.8,220.5 L681.1,202.1 L681.4,211.1 L681.6,191.3 L681.9,224.5 L682.1,192.9 L682.4,194.6 L682.7,205.9 L682.9,171.8 L683.2,210.5 L683.5,185.7 L683.7,157.8 L684.0,209.8 L684.2,160.2 L684.5,209.8 L684.8,154.1 L685.0,167.1 L685.3,167.6 L685.6,154.2 L685.8,162.4 L686.1,149.4 L686.3,143.6 L686.6,195.0 L686.9,149.7 L687.1,165.6 L687.4,170.8 L687.7,155.6 L687.9,167.2 L688.2,166.7 L688.4,157.3 L688.7,133.4 L689.0,171.4 L689.2,137.6 L689.5,135.4 L689.8,162.5 L690.0,136.0 L690.3,113.3 L690.5,154.5 L690.8,146.5 L691.1,147.2 L691.3,125.5 L691.6,122.4 L691.9,119.8 L692.1,151.0 L692.4,111.1 L692.6,117.4 L692.9,157.4 L693.2,145.8 L693.4,139.1 L693.7,163.4 L694.0,151.9 L694.2,101.3 L694.5,142.2 L694.7,101.0 L695.0,158.5 L695.3,153.6 L695.5,96.1 L695.8,145.8 L696.1,92.9 L696.3,76.0 L696.6,126.3 L696.8,139.5 L697.1,139.2 L697.4,140.2 L697.6,91.2 L697.9,105.5 L698.2,100.4 L698.4,89.1 L698.7,148.8 L698.9,146.8 L699.2,161.8 L699.5,152.3 L699.7,156.9 L700.0,162.4 L700.3,159.6 L700.5,87.4 L700.8,83.1 L701.0,77.7 L701.3,141.2 L701.6,100.7 L701.8,115.4 L702.1,130.3 L702.4,96.0 L702.6,128.6 L702.9,147.5 L703.1,85.5 L703.4,78.6 L703.7,137.3 L703.9,97.2 L704.2,156.4 L704.5,119.5 L704.7,79.0 L705.0,137.2 L705.2,121.1 L705.5,136.3 L705.8,134.6 L706.0,82.1 L706.3,130.3 L706.6,104.7 L706.8,80.7 L707.1,101.9 L707.3,114.9 L707.6,142.1 L707.9,86.5 L708.1,122.2 L708.4,107.2 L708.7,143.5 L708.9,154.8 L709.2,149.9 L709.4,127.0 L709.7,129.7 L710.0,158.3 L710.2,140.4 L710.5,124.7 L710.8,123.7 L711.0,154.3 L711.3,110.6 L711.5,147.1 L711.8,91.3 L712.1,133.8 L712.3,159.3 L712.6,112.5 L712.9,83.3 L713.1,145.0 L713.4,130.8 L713.6,144.3 L713.9,158.7 L714.2,81.7 L714.4,129.3 L714.7,99.6 L715.0,138.7 L715.2,98.4 L715.5,137.9 L715.7,127.3 L716.0,133.3 L716.3,86.5 L716.5,137.4 L716.8,105.0 L717.1,120.1 L717.3,140.5 L717.6,148.8 L717.8,102.4 L718.1,147.9 L718.4,129.8 L718.6,111.9 L718.9,137.4 L719.2,132.5 L719.4,132.5 L719.7,157.8 L719.9,119.1 L720.2,126.2 L720.5,140.2 L720.7,118.7 L721.0,117.5 L721.3,162.1 L721.5,127.0 L721.8,135.2 L722.0,146.0 L722.3,160.5 L722.6,89.1 L722.8,158.0 L723.1,127.4 L723.4,119.6 L723.6,120.7 L723.9,123.0 L724.1,105.7 L724.4,168.3 L724.7,86.2 L724.9,89.7 L725.2,102.8 L725.5,139.1 L725.7,116.8 L726.0,100.0 L726.2,102.3 L726.5,141.9 L726.8,93.8 L727.0,90.9 L727.3,106.0 L727.6,109.1 L727.8,153.9 L728.1,114.4 L728.3,98.2 L728.6,110.5 L728.9,92.5 L729.1,99.6 L729.4,132.7 L729.7,114.4 L729.9,147.4 L730.2,106.4 L730.4,133.4 L730.7,106.7 L731.0,89.9 L731.2,167.9 L731.5,93.5 L731.8,108.6 L732.0,153.4 L732.3,95.9 L732.5,102.9 L732.8,100.5 L733.1,108.0 L733.3,158.7 L733.6,95.6 L733.9,149.5 L734.1,160.9 L734.4,164.5 L734.6,115.5 L734.9,100.4 L735.2,130.7 L735.4,135.1 L735.7,90.5 L736.0,90.1 L736.2,115.5 L736.5,129.8 L736.7,102.2 L737.0,141.8 L737.3,160.1 L737.5,162.6 L737.8,141.0 L738.1,127.1 L738.3,140.3 L738.6,150.1 L738.8,103.0 L739.1,101.9 L739.4,146.7 L739.6,141.3 L739.9,111.4 L740.2,143.0 L740.4,162.5 L740.7,96.1 L740.9,157.8 L741.2,138.7 L741.5,163.2 L741.7,105.0 L742.0,172.4 L742.3,115.9 L742.5,173.7 L742.8,116.9 L743.0,163.0 L743.3,165.3 L743.6,141.7 L743.8,116.3 L744.1,148.2 L744.4,159.9 L744.6,121.1 L744.9,174.9 L745.1,148.1 L745.4,134.2 L745.7,96.6 L745.9,120.1 L746.2,134.2 L746.5,101.4 L746.7,122.1 L747.0,140.3 L747.2,150.1 L747.5,172.3 L747.8,143.8 L748.0,115.6 L748.3,112.7 L748.6,138.5 L748.8,165.4 L749.1,106.2 L749.3,173.2 L749.6,155.0 L749.9,137.7 L750.1,123.3 L750.4,134.1 L750.7,97.6 L750.9,132.6 L751.2,167.7 L751.4,171.1 L751.7,134.0 L752.0,168.9 L752.2,141.4 L752.5,148.4 L752.8,127.8 L753.0,176.8 L753.3,145.8 L753.5,116.5 L753.8,166.8 L754.1,153.8 L754.3,152.7 L754.6,120.9 L754.9,159.3 L755.1,130.9 L755.4,127.6 L755.6,159.4 L755.9,135.1 L756.2,100.6 L756.4,116.3 L756.7,130.3 L757.0,166.0 L757.2,173.2 L757.5,169.2 L757.7,130.9 L758.0,113.2 L758.3,109.1 L758.5,109.3 L758.8,111.5 L759.1,121.1 L759.3,140.5 L759.6,131.1 L759.8,163.8 L760.1,139.7 L760.4,150.4 L760.6,161.0 L760.9,175.8 L761.2,139.3 L761.4,116.1 L761.7,143.0 L761.9,135.1 L762.2,121.8 L762.5,157.0 L762.7,184.2 L763.0,132.7 L763.3,138.6 L763.5,178.6 L763.8,143.3 L764.0,180.4 L764.3,127.2 L764.6,175.4 L764.8,119.2 L765.1,181.2 L765.4,120.3 L765.6,154.3 L765.9,158.5 L766.1,120.8 L766.4,117.0 L766.7,116.6 L766.9,141.8 L767.2,142.8 L767.5,179.4 L767.7,126.8 L768.0,117.1 L768.2,128.3 L768.5,140.9 L768.8,123.4 L769.0,146.5 L769.3,123.9 L769.6,133.2 L769.8,166.8 L770.1,149.8 L770.3,188.1 L770.6,176.3 L770.9,122.2 L771.1,188.5 L771.4,130.0 L771.7,163.6 L771.9,183.4 L772.2,122.8 L772.4,119.5 L772.7,131.5 L773.0,141.0 L773.2,140.0 L773.5,187.1 L773.7,132.6 L774.0,116.8 L774.3,176.5 L774.5,156.3 L774.8,131.8 L775.1,169.3 L775.3,116.2 L775.6,155.8 L775.8,167.0 L776.1,140.5 L776.4,153.6 L776.6,158.5 L776.9,131.9 L777.2,191.2 L777.4,141.1 L777.7,142.1 L777.9,177.4 L778.2,134.7 L778.5,130.6 L778.7,141.5 L779.0,136.3 L779.3,150.0 L779.5,127.4 L779.8,167.4 L780.0,122.0 L780.3,173.5 L780.6,148.6 L780.8,173.7 L781.1,148.4 L781.4,149.0 L781.6,128.6 L781.9,179.6 L782.1,190.1 L782.4,172.4 L782.7,148.9 L782.9,194.8 L783.2,138.1 L783.5,174.6 L783.7,125.2 L784.0,159.8 L784.2,144.3 L784.5,195.7 L784.8,192.6 L785.0,122.9 L785.3,194.4 L785.6,129.8 L785.8,137.6 L786.1,141.6 L786.3,144.1 L786.6,183.1 L786.9,141.5 L787.1,192.1 L787.4,140.6 L787.7,125.0 L787.9,135.1 L788.2,182.8 L788.4,197.1 L788.7,183.9 L789.0,140.0 L789.2,195.1 L789.5,185.9 L789.8,140.0 L790.0,141.3 L790.3,130.6 L790.5,132.0 L790.8,155.2 L791.1,174.2 L791.3,146.1 L791.6,194.2 L791.9,201.9 L792.1,157.3 L792.4,153.3 L792.6,199.7 L792.9,177.2 L793.2,152.4 L793.4,155.3 L793.7,203.5 L794.0,147.3 L794.2,168.1 L794.5,145.1 L794.7,170.6 L795.0,168.8 L795.3,166.3 L795.5,167.0 L795.8,151.4 L796.1,204.9 L796.3,135.0 L796.6,144.4 L796.8,163.9 L797.1,145.3 L797.4,145.6 L797.6,157.4 L797.9,175.7 L798.2,137.6 L798.4,142.3 L798.7,139.8 L798.9,156.1 L799.2,153.3 L799.5,205.0 L799.7,143.8 L800.0,186.7 L800.3,164.8 L800.5,196.6 L800.8,182.1 L801.0,199.7 L801.3,200.4 L801.6,179.7 L801.8,182.1 L802.1,192.0 L802.4,172.2 L802.6,197.6 L802.9,203.8 L803.1,196.0 L803.4,206.9 L803.7,213.7 L803.9,161.6 L804.2,186.9 L804.5,165.9 L804.7,213.2 L805.0,214.2 L805.2,179.7 L805.5,176.8 L805.8,176.6 L806.0,149.5 L806.3,206.1 L806.6,149.4 L806.8,178.6 L807.1,186.0 L807.3,161.2 L807.6,150.5 L807.9,202.1 L808.1,177.6 L808.4,210.5 L808.7,209.8 L808.9,207.8 L809.2,169.2 L809.4,207.4 L809.7,179.8 L810.0,218.5 L810.2,163.2 L810.5,206.0 L810.8,191.8 L811.0,204.5 L811.3,165.0 L811.5,202.7 L811.8,160.6 L812.1,203.9 L812.3,149.6 L812.6,163.7 L812.9,177.5 L813.1,184.3 L813.4,217.8 L813.6,203.5 L813.9,166.8 L814.2,219.9 L814.4,206.2 L814.7,187.6 L815.0,163.8 L815.2,161.2 L815.5,223.4 L815.7,202.4 L816.0,172.6 L816.3,196.2 L816.5,190.3 L816.8,165.9 L817.1,205.8 L817.3,192.3 L817.6,186.0 L817.8,204.4 L818.1,201.3 L818.4,192.2 L818.6,207.8 L818.9,193.6 L819.2,169.3 L819.4,202.1 L819.7,189.6 L819.9,225.7 L820.2,157.1 L820.5,182.1 L820.7,212.0 L821.0,206.3 L821.3,215.0 L821.5,227.6 L821.8,222.0 L822.0,166.6 L822.3,215.7 L822.6,191.6 L822.8,178.0 L823.1,212.5 L823.4,187.9 L823.6,219.0 L823.9,172.1 L824.1,220.7 L824.4,195.8 L824.7,217.0 L824.9,230.7 L825.2,202.8 L825.5,195.3 L825.7,217.2 L826.0,206.8 L826.2,215.3 L826.5,205.7 L826.8,206.0 L827.0,178.6 L827.3,230.1 L827.6,186.4 L827.8,173.6 L828.1,166.8 L828.3,180.4 L828.6,184.3 L828.9,199.5 L829.1,190.5 L829.4,193.8 L829.7,193.9 L829.9,175.0 L830.2,202.3 L830.4,206.2 L830.7,180.1 L831.0,217.7 L831.2,189.7 L831.5,233.5 L831.8,208.1 L832.0,209.7 L832.3,202.5 L832.5,178.2 L832.8,176.2 L833.1,189.7 L833.3,196.9 L833.6,193.3 L833.9,176.3 L834.1,201.8 L834.4,231.2 L834.6,208.9 L834.9,217.1 L835.2,214.0 L835.4,186.7 L835.7,237.2 L836.0,229.3 L836.2,209.8 L836.5,190.5 L836.7,203.3 L837.0,220.9 L837.3,206.1 L837.5,193.9 L837.8,195.2 L838.1,202.0 L838.3,207.7 L838.6,237.4 L838.8,242.0 L839.1,181.9 L839.4,243.7 L839.6,178.2 L839.9,194.9 L840.2,213.7 L840.4,201.4 L840.7,198.4 L840.9,240.3 L841.2,212.5 L841.5,235.8 L841.7,215.4 L842.0,219.5 L842.3,201.4 L842.5,239.7 L842.8,239.0 L843.0,238.5 L843.3,218.6 L843.6,215.4 L843.8,226.9 L844.1,202.7 L844.4,195.9 L844.6,235.4 L844.9,250.0 L845.1,233.3 L845.4,241.9 L845.7,232.4 L845.9,234.3 L846.2,201.0 L846.5,246.5 L846.7,247.9 L847.0,242.1 L847.2,217.0 L847.5,199.1 L847.8,228.1 L848.0,249.5 L848.3,220.6 L848.6,249.6 L848.8,244.4 L849.1,211.6 L849.3,207.2 L849.6,236.5 L849.9,192.8 L850.1,195.7 L850.4,234.9 L850.7,241.8 L850.9,232.9 L851.2,227.4 L851.4,252.4 L851.7,228.2 L852.0,214.5 L852.2,209.5 L852.5,256.7 L852.8,209.4 L853.0,204.4 L853.3,231.8 L853.5,210.3 L853.8,248.7 L854.1,217.8 L854.3,216.7 L854.6,239.1 L854.9,256.9 L855.1,240.5 L855.4,200.6 L855.6,257.5 L855.9,231.7 L856.2,257.0 L856.4,260.2 L856.7,221.8 L857.0,227.4 L857.2,246.0 L857.5,214.2 L857.7,245.5 L858.0,200.7 L858.3,236.8 L858.5,224.4 L858.8,212.4 L859.1,222.9 L859.3,240.4 L859.6,206.3 L859.8,257.0 L860.1,225.3 L860.4,217.8 L860.6,257.5 L860.9,264.0 L861.2,232.6 L861.4,249.3 L861.7,242.6 L861.9,239.0 L862.2,232.5 L862.5,248.1 L862.7,220.6 L863.0,263.7 L863.3,258.1 L863.5,258.8 L863.8,261.4 L864.0,244.7 L864.3,223.4 L864.6,269.5 L864.8,230.0 L865.1,268.8 L865.4,269.0 L865.6,237.9 L865.9,212.9 L866.1,259.0 L866.4,268.7 L866.7,232.8 L866.9,221.3 L867.2,217.9 L867.5,230.7 L867.7,258.4 L868.0,236.1 L868.2,215.5 L868.5,222.8 L868.8,218.4 L869.0,243.5 L869.3,246.5 L869.6,260.1 L869.8,243.8 L870.1,253.1 L870.3,215.5 L870.6,253.6 L870.9,254.8 L871.1,234.4 L871.4,271.2 L871.7,229.9 L871.9,258.1 L872.2,254.8 L872.4,245.2 L872.7,221.7 L873.0,229.7 L873.2,223.2 L873.5,265.6 L873.8,226.0 L874.0,245.4 L874.3,270.5 L874.5,266.8 L874.8,259.7 L875.1,229.1 L875.3,269.7 L875.6,278.2 L875.9,256.1 L876.1,238.3 L876.4,239.6 L876.6,278.2 L876.9,224.7 L877.2,263.9 L877.4,262.1 L877.7,240.5 L878.0,283.5 L878.2,279.4 L878.5,239.4 L878.7,278.8 L879.0,230.4 L879.3,231.2 L879.5,230.8 L879.8,241.2 L880.1,250.2 L880.3,284.5 L880.6,243.0 L880.8,256.2 L881.1,286.3 L881.4,274.2 L881.6,257.3 L881.9,233.4 L882.2,245.6 L882.4,272.3 L882.7,259.3 L882.9,270.9 L883.2,249.5 L883.5,266.3 L883.7,256.9 L884.0,287.2 L884.3,258.1 L884.5,245.8 L884.8,239.8 L885.0,248.5 L885.3,282.6 L885.6,245.6 L885.8,287.9 L886.1,281.3 L886.4,237.9 L886.6,244.1 L886.9,259.4 L887.1,291.3 L887.4,287.4 L887.7,275.9 L887.9,262.5 L888.2,252.0 L888.5,257.0 L888.7,257.7 L889.0,250.1 L889.2,245.0 L889.5,272.4 L889.8,280.8 L890.0,280.2 L890.3,264.1 L890.6,245.3 L890.8,287.2 L891.1,256.9 L891.3,250.1 L891.6,247.2 L891.9,295.3 L892.1,259.9 L892.4,245.7 L892.7,274.0 L892.9,250.2 L893.2,270.2 L893.4,292.8 L893.7,259.1 L894.0,260.9 L894.2,301.7 L894.5,260.8 L894.8,280.3 L895.0,277.6 L895.3,280.9 L895.5,260.2 L895.8,294.0 L896.1,261.6 L896.3,250.9 L896.6,275.6 L896.9,291.5 L897.1,263.0 L897.4,278.7 L897.6,259.7 L897.9,256.0 L898.2,288.8 L898.4,253.0 L898.7,260.7 L899.0,275.4 L899.2,287.6 L899.5,269.2 L899.7,293.2 L900.0,294.9 L900.3,262.6 L900.5,295.5 L900.8,302.4 L901.1,285.1 L901.3,298.8 L901.6,293.9 L901.8,298.0 L902.1,272.9 L902.4,282.5 L902.6,279.2 L902.9,279.3 L903.2,309.3 L903.4,280.7 L903.7,300.4 L903.9,268.7 L904.2,311.9 L904.5,284.6 L904.7,308.0 L905.0,309.7 L905.3,289.6 L905.5,286.9 L905.8,310.4 L906.0,286.0 L906.3,270.6 L906.6,267.3 L906.8,310.1 L907.1,295.7 L907.4,293.2 L907.6,291.0 L907.9,297.7 L908.1,293.1 L908.4,312.4 L908.7,306.4 L908.9,310.9 L909.2,268.2 L909.5,316.6 L909.7,280.4 L910.0,293.1 L910.2,303.0 L910.5,290.3 L910.8,299.6 L911.0,283.7 L911.3,299.5 L911.6,279.7 L911.8,317.0 L912.1,290.5 L912.3,308.6 L912.6,298.0 L912.9,313.7 L913.1,274.5 L913.4,287.5 L913.7,289.7 L913.9,308.5 L914.2,303.9 L914.4,301.3 L914.7,308.5 L915.0,311.6 L915.2,314.1 L915.5,313.3 L915.8,325.8 L916.0,309.2 L916.3,322.5 L916.5,320.6 L916.8,322.7 L917.1,320.9 L917.3,302.5 L917.6,287.9 L917.9,314.9 L918.1,290.4 L918.4,284.4 L918.6,305.3 L918.9,329.5 L919.2,307.1 L919.4,317.2 L919.7,325.0 L920.0,284.6 L920.2,317.9 L920.5,312.3 L920.7,309.1 L921.0,311.2 L921.3,329.0 L921.5,331.9 L921.8,316.5 L922.1,303.4 L922.3,295.7 L922.6,321.0 L922.8,303.3 L923.1,329.4 L923.4,304.2 L923.6,330.0 L923.9,330.3 L924.2,296.3 L924.4,327.5 L924.7,323.5 L924.9,322.7 L925.2,331.4 L925.5,305.1 L925.7,327.3 L926.0,297.0 L926.3,329.9 L926.5,310.8 L926.8,297.9 L927.0,298.8 L927.3,334.1 L927.6,327.6 L927.8,295.1 L928.1,328.8 L928.3,297.8 L928.6,324.9 L928.9,340.4 L929.1,320.4 L929.4,325.9 L929.7,305.4 L929.9,326.1 L930.2,335.5 L930.4,337.8 L930.7,302.6 L931.0,321.1 L931.2,309.6 L931.5,317.1 L931.8,344.2 L932.0,342.5 L932.3,333.8 L932.5,338.5 L932.8,324.6 L933.1,330.3 L933.3,343.2 L933.6,342.0 L933.9,345.3 L934.1,325.6 L934.4,331.2 L934.6,332.7 L934.9,323.1 L935.2,331.7 L935.4,314.6 L935.7,332.3 L936.0,330.6 L936.2,328.8 L936.5,317.2 L936.7,318.3 L937.0,342.4 L937.3,348.3 L937.5,346.2 L937.8,345.9 L938.1,339.1 L938.3,312.4 L938.6,337.7 L938.8,338.0 L939.1,340.5 L939.4,339.8 L939.6,329.6 L939.9,331.7 L940.2,345.1 L940.4,317.8 L940.7,341.8 L940.9,331.1 L941.2,322.0 L941.5,334.3 L941.7,357.3 L942.0,316.4 L942.3,319.6 L942.5,346.2 L942.8,326.7 L943.0,329.8 L943.3,331.8 L943.6,342.1 L943.8,347.8 L944.1,359.3 L944.4,352.0 L944.6,334.8 L944.9,336.7 L945.1,359.5 L945.4,343.1 L945.7,339.0 L945.9,343.1 L946.2,323.9 L946.5,344.3 L946.7,345.5 L947.0,355.4 L947.2,360.8 L947.5,350.5 L947.8,330.6 L948.0,339.7 L948.3,328.4 L948.6,346.0 L948.8,358.5 L949.1,353.6 L949.3,341.8 L949.6,362.9 L949.9,352.3 L950.1,348.9 L950.4,356.5 L950.7,362.1 L950.9,365.5 L951.2,357.7 L951.4,340.3 L951.7,349.5 L952.0,346.9 L952.2,336.5 L952.5,339.1 L952.8,341.5 L953.0,344.6 L953.3,350.3 L953.5,360.3 L953.8,336.7 L954.1,354.4 L954.3,344.2 L954.6,369.8 L954.9,357.3 L955.1,335.9 L955.4,336.4 L955.6,356.8 L955.9,344.5 L956.2,372.2 L956.4,341.3 L956.7,353.1 L957.0,347.3 L957.2,354.6 L957.5,348.2 L957.7,363.0 L958.0,344.4 L958.3,353.9 L958.5,365.1 L958.8,346.5 L959.1,357.4 L959.3,361.2 L959.6,347.2 L959.8,342.8 L960.1,364.9 L960.4,379.7 L960.6,358.2 L960.9,347.0 L961.2,364.1 L961.4,380.7 L961.7,372.9 L961.9,353.7 L962.2,364.3 L962.5,358.9 L962.7,351.6 L963.0,365.9 L963.3,379.8 L963.5,351.8 L963.8,353.8 L964.0,374.5 L964.3,382.9 L964.6,378.8 L964.8,365.6 L965.1,376.2 L965.4,371.8 L965.6,383.7 L965.9,361.9 L966.1,362.4 L966.4,377.1 L966.7,356.4 L966.9,363.2 L967.2,379.9 L967.5,364.5 L967.7,384.6 L968.0,368.2 L968.2,387.5 L968.5,356.8 L968.8,384.8 L969.0,362.6 L969.3,376.8 L969.6,362.7 L969.8,383.9 L970.1,388.9 L970.3,384.9 L970.6,390.4 L970.9,382.5 L971.1,380.4 L971.4,382.0 L971.7,392.0 L971.9,361.7 L972.2,393.5 L972.4,380.7 L972.7,371.3 L973.0,372.5 L973.2,381.3 L973.5,392.1 L973.8,382.7 L974.0,375.8 L974.3,379.4 L974.5,372.0 L974.8,377.4 L975.1,371.1 L975.3,379.2 L975.6,392.5 L975.9,368.3 L976.1,368.8 L976.4,386.5 L976.6,376.0 L976.9,395.2 L977.2,378.9 L977.4,387.1 L977.7,400.7 L978.0,378.8 L978.2,387.0 L978.5,371.4 L978.7,401.6 L979.0,389.7 L979.3,384.6 L979.5,373.3 L979.8,377.4 L980.1,404.3 L980.3,378.1 L980.6,377.5 L980.8,389.8 L981.1,406.1 L981.4,399.8 L981.6,377.1 L981.9,383.0 L982.2,406.4 L982.4,379.7 L982.7,383.0 L982.9,387.7 L983.2,382.6 L983.5,380.0 L983.7,383.9 L984.0,405.2 L984.3,393.5 L984.5,389.1 L984.8,408.7 L985.0,400.5 L985.3,402.8 L985.6,407.9 L985.8,410.1 L986.1,399.7 L986.4,412.0 L986.6,393.3 L986.9,402.1 L987.1,403.2 L987.4,396.3 L987.7,414.7 L987.9,386.2 L988.2,398.1 L988.5,415.7 L988.7,409.2 L989.0,414.7 L989.2,399.2 L989.5,409.7 L989.8,392.6 L990.0,404.8 L990.3,402.3 L990.6,399.3 L990.8,407.4 L991.1,408.4 L991.3,406.2 L991.6,396.5 L991.9,408.8 L992.1,410.6 L992.4,412.7 L992.7,402.9 L992.9,414.0 L993.2,415.7 L993.4,412.4 L993.7,402.3 L994.0,409.6 L994.2,420.5 L994.5,401.5 L994.8,421.1 L995.0,417.9 L995.3,404.3 L995.5,420.9 L995.8,410.2 L996.1,411.5 L996.3,409.1 L996.6,409.1 L996.9,415.8 L997.1,404.2 L997.4,406.5 L997.6,421.5 L997.9,417.4 L998.2,404.0 L998.4,409.1 L998.7,408.2 L999.0,426.7 L999.2,417.0 L999.5,411.2 L999.7,430.5 L1000.0,418.4 L1000.3,409.6 L1000.5,415.1 L1000.8,411.4 L1001.1,409.3 L1001.3,415.4 L1001.6,419.7 L1001.8,427.2 L1002.1,426.1 L1002.4,423.5 L1002.6,421.7 L1002.9,428.7 L1003.2,430.9 L1003.4,426.2 L1003.7,424.8 L1003.9,421.7 L1004.2,424.0 L1004.5,432.6 L1004.7,423.0 L1005.0,421.5 L1005.3,430.4 L1005.5,426.6 L1005.8,430.0 L1006.0,438.7 L1006.3,434.3 L1006.6,437.5 L1006.8,429.4 L1007.1,431.5 L1007.4,425.7 L1007.6,431.9 L1007.9,432.5 L1008.1,427.4 L1008.4,442.1 L1008.7,428.6 L1008.9,434.2 L1009.2,432.6 L1009.5,435.2 L1009.7,438.1 L1010.0,437.9 L1010.2,437.3 L1010.5,431.4 L1010.8,442.0 L1011.0,431.3 L1011.3,428.1 L1011.6,433.9 L1011.8,424.6 L1012.1,446.0 L1012.3,444.2 L1012.6,432.5 L1012.9,442.5 L1013.1,437.1 L1013.4,437.5 L1013.7,446.5 L1013.9,435.8 L1014.2,438.8 L1014.4,434.1 L1014.7,434.9 L1015.0,436.5 L1015.2,440.2 L1015.5,435.8 L1015.8,435.6 L1016.0,437.7 L1016.3,431.7 L1016.5,451.8 L1016.8,432.8 L1017.1,444.8 L1017.3,445.2 L1017.6,452.9 L1017.9,441.1 L1018.1,451.6 L1018.4,453.8 L1018.6,453.8 L1018.9,440.1 L1019.2,440.9 L1019.4,443.6 L1019.7,440.3 L1020.0,457.2 L1020.2,449.7 L1020.5,455.3 L1020.7,455.7 L1021.0,454.4 L1021.3,452.3 L1021.5,455.6 L1021.8,448.3 L1022.1,454.9 L1022.3,454.4 L1022.6,453.4 L1022.8,443.7 L1023.1,457.3 L1023.4,446.3 L1023.6,455.7 L1023.9,450.7 L1024.2,454.7 L1024.4,449.5 L1024.7,462.2 L1024.9,446.3 L1025.2,458.2 L1025.5,450.1 L1025.7,457.7 L1026.0,450.2 L1026.3,455.9 L1026.5,464.5 L1026.8,457.0 L1027.0,453.2 L1027.3,454.2 L1027.6,463.1 L1027.8,458.2 L1028.1,451.2 L1028.4,462.4 L1028.6,459.0 L1028.9,464.9 L1029.1,458.2 L1029.4,460.3 L1029.7,455.1 L1029.9,462.1 L1030.2,469.9 L1030.5,465.8 L1030.7,459.4 L1031.0,460.8 L1031.2,471.3 L1031.5,469.6 L1031.8,456.9 L1032.0,462.0 L1032.3,465.6 L1032.6,460.7 L1032.8,462.3 L1033.1,462.8 L1033.3,459.1 L1033.6,464.1 L1033.9,462.6 L1034.1,475.9 L1034.4,473.7 L1034.7,464.2 L1034.9,467.7 L1035.2,477.1 L1035.4,467.8 L1035.7,465.2 L1036.0,474.0 L1036.2,475.1 L1036.5,468.0 L1036.8,477.5 L1037.0,467.3 L1037.3,466.7 L1037.5,471.0 L1037.8,476.9 L1038.1,472.2 L1038.3,468.8 L1038.6,470.6 L1038.9,480.7 L1039.1,482.7 L1039.4,474.3 L1039.6,469.4 L1039.9,482.6 L1040.2,475.8 L1040.4,479.7 L1040.7,474.5 L1041.0,477.2 L1041.2,476.0 L1041.5,483.5 L1041.7,475.5 L1042.0,481.8 L1042.3,474.2 L1042.5,482.9 L1042.8,476.5 L1043.1,480.3 L1043.3,481.7 L1043.6,485.7 L1043.8,486.4 L1044.1,480.6 L1044.4,485.3 L1044.6,485.8 L1044.9,484.1 L1045.2,489.2 L1045.4,486.4 L1045.7,489.4 L1045.9,488.6 L1046.2,480.7 L1046.5,490.0 L1046.7,489.0 L1047.0,492.5 L1047.3,489.2 L1047.5,489.7 L1047.8,493.0 L1048.0,492.7 L1048.3,487.8 L1048.6,494.9 L1048.8,489.1 L1049.1,492.5 L1049.4,487.3 L1049.6,495.7 L1049.9,496.7 L1050.1,488.1 L1050.4,489.3 L1050.7,496.2 L1050.9,496.8 L1051.2,497.8 L1051.5,492.0 L1051.7,491.9 L1052.0,495.3 L1052.2,495.5 L1052.5,499.0 L1052.8,492.5 L1053.0,496.3 L1053.3,496.1 L1053.6,497.5 L1053.8,495.5 L1054.1,494.7 L1054.3,496.0 L1054.6,495.5 L1054.9,496.0 L1055.1,500.3 L1055.4,499.2 L1055.7,501.6 L1055.9,501.5 L1056.2,499.7 L1056.4,498.8 L1056.7,502.9 L1057.0,506.7 L1057.2,499.0 L1057.5,502.6 L1057.8,506.5 L1058.0,503.1 L1058.3,506.5 L1058.5,503.4 L1058.8,507.5 L1059.1,501.7 L1059.3,502.1 L1059.6,507.2 L1059.9,509.9 L1060.1,503.9 L1060.4,510.5 L1060.6,505.6 L1060.9,512.0 L1061.2,511.1 L1061.4,509.4 L1061.7,506.0 L1062.0,508.4 L1062.2,507.7 L1062.5,511.7 L1062.7,509.3 L1063.0,509.5 L1063.3,511.8 L1063.5,514.5 L1063.8,514.6 L1064.1,510.7 L1064.3,511.7 L1064.6,514.4 L1064.8,516.9 L1065.1,513.3 L1065.4,513.5 L1065.6,518.3 L1065.9,517.5 L1066.2,513.7 L1066.4,514.4 L1066.7,517.5 L1066.9,514.5 L1067.2,515.7 L1067.5,515.7 L1067.7,519.3 L1068.0,521.1 L1068.3,518.9 L1068.5,520.1 L1068.8,522.0 L1069.0,520.6 L1069.3,519.8 L1069.6,518.8 L1069.8,522.9 L1070.1,523.7 L1070.4,524.1 L1070.6,524.1 L1070.9,521.9 L1071.1,524.4 L1071.4,524.9 L1071.7,523.9 L1071.9,525.9 L1072.2,524.2 L1072.5,526.7 L1072.7,527.8 L1073.0,526.9 L1073.2,526.2 L1073.5,527.0 L1073.8,528.1 L1074.0,527.3 L1074.3,528.8 L1074.6,528.0 L1074.8,529.7 L1075.1,528.9 L1075.3,529.8 L1075.6,531.1 L1075.9,531.6 L1076.1,531.1 L1076.4,530.9 L1076.7,533.0 L1076.9,533.2 L1077.2,531.6 L1077.4,534.0 L1077.7,533.0 L1078.0,533.8 L1078.2,535.1 L1078.5,534.7 L1078.8,536.2 L1079.0,536.9 L1079.3,535.9 L1079.5,537.3 L1079.8,537.4 L1080.1,538.3 L1080.3,538.3 L1080.6,537.4 L1080.9,537.6 L1081.1,538.2 L1081.4,539.2 L1081.6,539.5 L1081.9,539.6 L1082.2,541.2 L1082.4,541.5 L1082.7,541.8 L1083.0,541.6 L1083.2,542.3 L1083.5,542.1 L1083.7,542.8 L1084.0,543.6" fill="none" stroke="#1f77b4" stroke-width="1.4" opacity="0.85"/><text x="1040" y="54" fill="#ff7f0e" font-size="11">roll 34</text><text x="1090" y="558" fill="#ff7f0e" font-size="11">-26</text><path d="M616.0,339.2 L616.3,339.2 L616.5,339.2 L616.8,339.2 L617.0,340.0 L617.3,338.4 L617.6,338.4 L617.8,339.2 L618.1,338.4 L618.4,339.2 L618.6,339.2 L618.9,339.2 L619.1,339.2 L619.4,340.0 L619.7,340.0 L619.9,339.2 L620.2,339.2 L620.5,340.0 L620.7,338.4 L621.0,338.4 L621.2,338.4 L621.5,339.2 L621.8,340.0 L622.0,340.0 L622.3,339.2 L622.6,339.2 L622.8,339.2 L623.1,339.2 L623.3,339.2 L623.6,340.0 L623.9,340.0 L624.1,339.2 L624.4,339.2 L624.7,340.0 L624.9,339.2 L625.2,340.0 L625.4,339.2 L625.7,339.2 L626.0,340.0 L626.2,340.0 L626.5,339.2 L626.8,339.2 L627.0,339.2 L627.3,339.2 L627.5,338.4 L627.8,339.2 L628.1,338.4 L628.3,340.0 L628.6,338.4 L628.9,339.2 L629.1,339.2 L629.4,339.2 L629.6,339.2 L629.9,340.0 L630.2,340.0 L630.4,340.0 L630.7,339.2 L631.0,340.0 L631.2,338.4 L631.5,339.2 L631.7,339.2 L632.0,339.2 L632.3,339.2 L632.5,338.4 L632.8,339.2 L633.1,338.4 L633.3,338.4 L633.6,339.2 L633.8,339.2 L634.1,340.0 L634.4,338.4 L634.6,339.2 L634.9,340.0 L635.2,339.2 L635.4,338.4 L635.7,339.2 L635.9,340.0 L636.2,340.0 L636.5,340.0 L636.7,339.2 L637.0,339.2 L637.3,339.2 L637.5,339.2 L637.8,339.2 L638.0,338.4 L638.3,338.4 L638.6,339.2 L638.8,338.4 L639.1,340.0 L639.4,338.4 L639.6,338.4 L639.9,338.4 L640.1,340.0 L640.4,338.4 L640.7,340.0 L640.9,338.4 L641.2,338.4 L641.5,339.2 L641.7,339.2 L642.0,338.4 L642.2,339.2 L642.5,339.2 L642.8,340.0 L643.0,339.2 L643.3,340.0 L643.6,340.0 L643.8,339.2 L644.1,338.4 L644.3,339.2 L644.6,338.4 L644.9,340.0 L645.1,339.2 L645.4,339.2 L645.7,339.2 L645.9,340.0 L646.2,340.0 L646.4,338.4 L646.7,340.0 L647.0,338.4 L647.2,339.2 L647.5,339.2 L647.8,340.0 L648.0,340.0 L648.3,339.2 L648.5,338.4 L648.8,339.2 L649.1,339.2 L649.3,339.2 L649.6,340.0 L649.9,339.2 L650.1,339.2 L650.4,340.0 L650.6,339.2 L650.9,339.2 L651.2,338.4 L651.4,339.2 L651.7,339.2 L652.0,340.0 L652.2,339.2 L652.5,340.0 L652.7,339.2 L653.0,339.2 L653.3,340.0 L653.5,339.2 L653.8,338.4 L654.1,339.2 L654.3,339.2 L654.6,340.0 L654.8,339.2 L655.1,340.0 L655.4,338.4 L655.6,338.4 L655.9,338.4 L656.2,340.0 L656.4,340.0 L656.7,338.4 L656.9,339.2 L657.2,338.4 L657.5,340.0 L657.7,340.0 L658.0,339.2 L658.3,340.0 L658.5,339.2 L658.8,338.4 L659.0,339.2 L659.3,339.2 L659.6,340.0 L659.8,339.2 L660.1,339.2 L660.4,338.4 L660.6,339.2 L660.9,340.0 L661.1,340.0 L661.4,340.0 L661.7,338.4 L661.9,339.2 L662.2,339.2 L662.5,339.2 L662.7,340.0 L663.0,339.2 L663.2,339.2 L663.5,339.2 L663.8,339.2 L664.0,339.2 L664.3,339.2 L664.6,339.2 L664.8,340.0 L665.1,338.4 L665.3,339.2 L665.6,339.2 L665.9,338.4 L666.1,339.2 L666.4,339.2 L666.7,340.0 L666.9,340.0 L667.2,339.2 L667.4,339.2 L667.7,339.2 L668.0,339.2 L668.2,339.2 L668.5,340.0 L668.8,339.2 L669.0,338.4 L669.3,338.4 L669.5,339.2 L669.8,340.0 L670.1,338.4 L670.3,339.2 L670.6,338.4 L670.9,339.2 L671.1,338.4 L671.4,339.2 L671.6,338.4 L671.9,339.2 L672.2,339.2 L672.4,338.4 L672.7,340.0 L673.0,340.0 L673.2,340.0 L673.5,338.4 L673.7,339.2 L674.0,339.2 L674.3,339.2 L674.5,339.2 L674.8,340.0 L675.1,340.0 L675.3,338.4 L675.6,340.0 L675.8,339.2 L676.1,338.4 L676.4,339.2 L676.6,340.0 L676.9,340.0 L677.2,338.4 L677.4,340.0 L677.7,338.4 L677.9,340.0 L678.2,339.2 L678.5,340.0 L678.7,340.0 L679.0,339.2 L679.3,340.0 L679.5,338.4 L679.8,338.4 L680.0,340.0 L680.3,340.0 L680.6,339.2 L680.8,339.2 L681.1,339.2 L681.4,339.2 L681.6,339.2 L681.9,339.2 L682.1,338.4 L682.4,339.2 L682.7,339.2 L682.9,338.4 L683.2,340.0 L683.5,339.2 L683.7,339.2 L684.0,340.0 L684.2,340.0 L684.5,338.4 L684.8,339.2 L685.0,339.2 L685.3,339.2 L685.6,340.0 L685.8,338.4 L686.1,339.2 L686.3,339.2 L686.6,339.2 L686.9,339.2 L687.1,339.2 L687.4,339.2 L687.7,340.0 L687.9,338.4 L688.2,340.0 L688.4,338.4 L688.7,339.2 L689.0,340.0 L689.2,339.2 L689.5,338.4 L689.8,340.0 L690.0,339.2 L690.3,339.2 L690.5,339.2 L690.8,340.0 L691.1,340.0 L691.3,339.2 L691.6,340.0 L691.9,339.2 L692.1,338.4 L692.4,339.2 L692.6,339.2 L692.9,340.0 L693.2,340.0 L693.4,338.4 L693.7,340.0 L694.0,340.0 L694.2,339.2 L694.5,339.2 L694.7,338.4 L695.0,340.8 L695.3,340.0 L695.5,338.4 L695.8,340.0 L696.1,339.2 L696.3,340.0 L696.6,333.8 L696.8,326.0 L697.1,322.1 L697.4,312.7 L697.6,304.2 L697.9,304.9 L698.2,299.5 L698.4,294.0 L698.7,284.7 L698.9,275.3 L699.2,273.0 L699.5,271.5 L699.7,262.1 L700.0,271.5 L700.3,266.0 L700.5,265.2 L700.8,261.3 L701.0,244.2 L701.3,247.3 L701.6,253.5 L701.8,248.1 L702.1,232.5 L702.4,241.1 L702.6,246.5 L702.9,228.6 L703.1,229.4 L703.4,229.4 L703.7,237.2 L703.9,222.4 L704.2,232.5 L704.5,220.8 L704.7,236.4 L705.0,217.7 L705.2,233.3 L705.5,224.7 L705.8,220.8 L706.0,225.5 L706.3,220.8 L706.6,235.6 L706.8,218.5 L707.1,229.4 L707.3,217.7 L707.6,218.5 L707.9,213.1 L708.1,224.0 L708.4,213.1 L708.7,217.7 L708.9,232.5 L709.2,224.0 L709.4,210.7 L709.7,220.8 L710.0,226.3 L710.2,214.6 L710.5,214.6 L710.8,231.0 L711.0,208.4 L711.3,234.9 L711.5,216.2 L711.8,216.9 L712.1,224.0 L712.3,221.6 L712.6,221.6 L712.9,220.1 L713.1,224.0 L713.4,241.9 L713.6,240.3 L713.9,227.1 L714.2,234.1 L714.4,243.4 L714.7,245.8 L715.0,238.7 L715.2,245.0 L715.5,235.6 L715.7,231.0 L716.0,230.2 L716.3,254.3 L716.5,233.3 L716.8,254.3 L717.1,249.7 L717.3,250.4 L717.6,238.0 L717.8,265.2 L718.1,248.1 L718.4,252.8 L718.6,264.4 L718.9,265.2 L719.2,259.8 L719.4,259.8 L719.7,258.2 L719.9,257.4 L720.2,246.5 L720.5,253.5 L720.7,252.8 L721.0,251.2 L721.3,258.2 L721.5,260.6 L721.8,268.3 L722.0,248.1 L722.3,262.1 L722.6,259.0 L722.8,278.5 L723.1,278.5 L723.4,262.1 L723.6,277.7 L723.9,271.5 L724.1,280.8 L724.4,273.0 L724.7,273.0 L724.9,282.4 L725.2,286.2 L725.5,296.4 L725.7,306.5 L726.0,318.2 L726.2,326.0 L726.5,335.3 L726.8,344.7 L727.0,350.1 L727.3,361.0 L727.6,365.7 L727.8,375.8 L728.1,382.0 L728.3,381.3 L728.6,392.9 L728.9,399.2 L729.1,392.9 L729.4,404.6 L729.7,406.9 L729.9,416.3 L730.2,412.4 L730.4,421.7 L730.7,421.7 L731.0,432.6 L731.2,434.2 L731.5,422.5 L731.8,442.0 L732.0,435.8 L732.3,442.8 L732.5,435.8 L732.8,445.1 L733.1,431.9 L733.3,441.2 L733.6,442.0 L733.9,438.9 L734.1,445.1 L734.4,544.0 L734.6,439.7 L734.9,447.4 L735.2,437.3 L735.4,437.3 L735.7,442.8 L736.0,456.0 L736.2,434.2 L736.5,459.1 L736.7,446.7 L737.0,452.1 L737.3,442.0 L737.5,442.8 L737.8,459.1 L738.1,452.1 L738.3,443.5 L738.6,467.7 L738.8,442.0 L739.1,456.8 L739.4,444.3 L739.6,449.0 L739.9,448.2 L740.2,461.5 L740.4,447.4 L740.7,449.0 L740.9,446.7 L741.2,469.2 L741.5,448.2 L741.7,460.7 L742.0,464.6 L742.3,459.9 L742.5,457.6 L742.8,463.0 L743.0,455.2 L743.3,470.8 L743.6,466.9 L743.8,463.8 L744.1,470.8 L744.4,456.0 L744.6,471.6 L744.9,468.5 L745.1,460.7 L745.4,449.0 L745.7,466.9 L745.9,451.3 L746.2,465.4 L746.5,464.6 L746.7,452.9 L747.0,460.7 L747.2,459.1 L747.5,473.9 L747.8,460.7 L748.0,452.1 L748.3,463.0 L748.6,460.7 L748.8,459.9 L749.1,470.0 L749.3,457.6 L749.6,471.6 L749.9,464.6 L750.1,454.4 L750.4,473.9 L750.7,466.9 L750.9,457.6 L751.2,464.6 L751.4,465.4 L751.7,468.5 L752.0,464.6 L752.2,474.7 L752.5,456.0 L752.8,474.7 L753.0,471.6 L753.3,467.7 L753.5,454.4 L753.8,464.6 L754.1,455.2 L754.3,452.1 L754.6,474.7 L754.9,459.1 L755.1,470.0 L755.4,451.3 L755.6,452.9 L755.9,459.1 L756.2,469.2 L756.4,462.2 L756.7,458.3 L757.0,464.6 L757.2,452.1 L757.5,453.7 L757.7,471.6 L758.0,470.8 L758.3,472.4 L758.5,467.7 L758.8,473.9 L759.1,456.8 L759.3,451.3 L759.6,458.3 L759.8,466.1 L760.1,464.6 L760.4,462.2 L760.6,470.8 L760.9,451.3 L761.2,479.4 L761.4,470.0 L761.7,467.7 L761.9,466.9 L762.2,472.4 L762.5,458.3 L762.7,452.1 L763.0,453.7 L763.3,467.7 L763.5,463.8 L763.8,470.0 L764.0,474.7 L764.3,460.7 L764.6,452.9 L764.8,464.6 L765.1,469.2 L765.4,476.3 L765.6,449.8 L765.9,452.1 L766.1,466.9 L766.4,456.0 L766.7,455.2 L766.9,453.7 L767.2,466.1 L767.5,466.1 L767.7,455.2 L768.0,453.7 L768.2,476.3 L768.5,468.5 L768.8,476.3 L769.0,459.9 L769.3,451.3 L769.6,478.6 L769.8,458.3 L770.1,469.2 L770.3,463.8 L770.6,456.8 L770.9,451.3 L771.1,441.2 L771.4,418.6 L771.7,414.7 L771.9,404.6 L772.2,393.7 L772.4,382.0 L772.7,372.7 L773.0,363.3 L773.2,355.6 L773.5,344.7 L773.7,337.6 L774.0,330.6 L774.3,323.6 L774.5,317.4 L774.8,304.9 L775.1,300.3 L775.3,297.2 L775.6,293.3 L775.8,283.9 L776.1,275.3 L776.4,279.2 L776.6,269.1 L776.9,273.0 L777.2,269.9 L777.4,256.7 L777.7,256.7 L777.9,248.9 L778.2,254.3 L778.5,239.5 L778.7,248.9 L779.0,241.1 L779.3,252.0 L779.5,238.0 L779.8,247.3 L780.0,235.6 L780.3,230.2 L780.6,245.0 L780.8,224.0 L781.1,228.6 L781.4,231.7 L781.6,229.4 L781.9,227.8 L782.1,226.3 L782.4,235.6 L782.7,234.9 L782.9,224.0 L783.2,235.6 L783.5,218.5 L783.7,218.5 L784.0,235.6 L784.2,231.0 L784.5,219.3 L784.8,224.0 L785.0,223.2 L785.3,213.1 L785.6,227.8 L785.8,213.1 L786.1,215.4 L786.3,209.2 L786.6,231.7 L786.9,224.0 L787.1,227.1 L787.4,211.5 L787.7,222.4 L787.9,209.9 L788.2,228.6 L788.4,220.8 L788.7,217.7 L789.0,230.2 L789.2,216.2 L789.5,211.5 L789.8,220.8 L790.0,220.1 L790.3,209.9 L790.5,227.8 L790.8,211.5 L791.1,213.1 L791.3,220.8 L791.6,216.9 L791.9,222.4 L792.1,216.2 L792.4,205.3 L792.6,211.5 L792.9,210.7 L793.2,229.4 L793.4,204.5 L793.7,209.2 L794.0,213.1 L794.2,204.5 L794.5,230.2 L794.7,211.5 L795.0,230.2 L795.3,216.2 L795.5,210.7 L795.8,233.3 L796.1,208.4 L796.3,232.5 L796.6,231.0 L796.8,216.2 L797.1,227.1 L797.4,227.1 L797.6,213.1 L797.9,216.9 L798.2,215.4 L798.4,213.1 L798.7,213.8 L798.9,208.4 L799.2,230.2 L799.5,213.1 L799.7,218.5 L800.0,221.6 L800.3,218.5 L800.5,220.1 L800.8,206.0 L801.0,209.2 L801.3,215.4 L801.6,207.6 L801.8,227.8 L802.1,224.0 L802.4,220.1 L802.6,220.8 L802.9,207.6 L803.1,209.2 L803.4,206.8 L803.7,220.1 L803.9,213.1 L804.2,222.4 L804.5,211.5 L804.7,205.3 L805.0,225.5 L805.2,228.6 L805.5,214.6 L805.8,221.6 L806.0,226.3 L806.3,216.2 L806.6,207.6 L806.8,219.3 L807.1,216.2 L807.3,216.9 L807.6,202.1 L807.9,228.6 L808.1,225.5 L808.4,218.5 L808.7,209.2 L808.9,220.8 L809.2,209.9 L809.4,226.3 L809.7,218.5 L810.0,212.3 L810.2,219.3 L810.5,210.7 L810.8,206.0 L811.0,217.7 L811.3,212.3 L811.5,215.4 L811.8,225.5 L812.1,211.5 L812.3,220.8 L812.6,203.7 L812.9,221.6 L813.1,93.9 L813.4,217.7 L813.6,218.5 L813.9,220.8 L814.2,208.4 L814.4,234.1 L814.7,220.1 L815.0,228.6 L815.2,220.1 L815.5,229.4 L815.7,212.3 L816.0,231.0 L816.3,216.2 L816.5,231.0 L816.8,210.7 L817.1,231.0 L817.3,223.2 L817.6,218.5 L817.8,218.5 L818.1,224.7 L818.4,222.4 L818.6,224.7 L818.9,220.8 L819.2,226.3 L819.4,215.4 L819.7,206.0 L819.9,229.4 L820.2,225.5 L820.5,207.6 L820.7,225.5 L821.0,229.4 L821.3,202.9 L821.5,218.5 L821.8,224.7 L822.0,205.3 L822.3,226.3 L822.6,215.4 L822.8,214.6 L823.1,220.8 L823.4,223.2 L823.6,226.3 L823.9,202.1 L824.1,228.6 L824.4,209.9 L824.7,221.6 L824.9,220.1 L825.2,229.4 L825.5,218.5 L825.7,222.4 L826.0,206.0 L826.2,213.8 L826.5,206.0 L826.8,209.2 L827.0,208.4 L827.3,223.2 L827.6,215.4 L827.8,207.6 L828.1,224.0 L828.3,222.4 L828.6,226.3 L828.9,227.1 L829.1,217.7 L829.4,205.3 L829.7,213.8 L829.9,227.1 L830.2,208.4 L830.4,226.3 L830.7,224.7 L831.0,219.3 L831.2,216.2 L831.5,215.4 L831.8,213.1 L832.0,214.6 L832.3,218.5 L832.5,218.5 L832.8,214.6 L833.1,220.1 L833.3,209.2 L833.6,206.8 L833.9,215.4 L834.1,216.9 L834.4,208.4 L834.6,203.7 L834.9,209.2 L835.2,226.3 L835.4,202.1 L835.7,228.6 L836.0,219.3 L836.2,214.6 L836.5,225.5 L836.7,213.1 L837.0,230.2 L837.3,203.7 L837.5,220.8 L837.8,213.8 L838.1,211.5 L838.3,211.5 L838.6,223.2 L838.8,210.7 L839.1,214.6 L839.4,208.4 L839.6,231.0 L839.9,216.9 L840.2,220.1 L840.4,227.1 L840.7,207.6 L840.9,213.1 L841.2,222.4 L841.5,220.8 L841.7,212.3 L842.0,227.8 L842.3,204.5 L842.5,222.4 L842.8,222.4 L843.0,221.6 L843.3,206.8 L843.6,220.1 L843.8,224.7 L844.1,207.6 L844.4,218.5 L844.6,227.8 L844.9,209.2 L845.1,212.3 L845.4,209.9 L845.7,228.6 L845.9,206.8 L846.2,223.2 L846.5,213.8 L846.7,218.5 L847.0,224.0 L847.2,204.5 L847.5,220.1 L847.8,214.6 L848.0,214.6 L848.3,205.3 L848.6,216.9 L848.8,202.9 L849.1,215.4 L849.3,220.1 L849.6,213.8 L849.9,209.2 L850.1,220.8 L850.4,207.6 L850.7,213.8 L850.9,202.1 L851.2,230.2 L851.4,206.8 L851.7,230.2 L852.0,209.2 L852.2,210.7 L852.5,89.2 L852.8,227.1 L853.0,221.6 L853.3,237.2 L853.5,218.5 L853.8,227.8 L854.1,234.9 L854.3,231.7 L854.6,224.0 L854.9,221.6 L855.1,218.5 L855.4,232.5 L855.6,210.7 L855.9,235.6 L856.2,228.6 L856.4,230.2 L856.7,230.2 L857.0,209.9 L857.2,234.9 L857.5,232.5 L857.7,210.7 L858.0,220.1 L858.3,213.1 L858.5,212.3 L858.8,213.1 L859.1,219.3 L859.3,216.9 L859.6,220.8 L859.8,209.2 L860.1,215.4 L860.4,230.2 L860.6,216.2 L860.9,224.0 L861.2,228.6 L861.4,206.0 L861.7,225.5 L861.9,210.7 L862.2,217.7 L862.5,209.9 L862.7,214.6 L863.0,216.2 L863.3,229.4 L863.5,207.6 L863.8,217.7 L864.0,213.8 L864.3,226.3 L864.6,211.5 L864.8,226.3 L865.1,201.4 L865.4,210.7 L865.6,228.6 L865.9,210.7 L866.1,227.1 L866.4,206.8 L866.7,231.0 L866.9,206.8 L867.2,233.3 L867.5,209.2 L867.7,214.6 L868.0,221.6 L868.2,211.5 L868.5,213.1 L868.8,231.7 L869.0,228.6 L869.3,206.8 L869.6,236.4 L869.8,214.6 L870.1,229.4 L870.3,224.0 L870.6,219.3 L870.9,224.0 L871.1,225.5 L871.4,227.1 L871.7,227.8 L871.9,228.6 L872.2,221.6 L872.4,217.7 L872.7,227.1 L873.0,206.0 L873.2,228.6 L873.5,213.1 L873.8,221.6 L874.0,215.4 L874.3,221.6 L874.5,206.8 L874.8,231.0 L875.1,207.6 L875.3,213.1 L875.6,209.9 L875.9,233.3 L876.1,213.8 L876.4,216.2 L876.6,216.2 L876.9,211.5 L877.2,216.2 L877.4,228.6 L877.7,203.7 L878.0,222.4 L878.2,216.9 L878.5,209.9 L878.7,233.3 L879.0,226.3 L879.3,208.4 L879.5,225.5 L879.8,208.4 L880.1,230.2 L880.3,214.6 L880.6,230.2 L880.8,232.5 L881.1,220.8 L881.4,227.8 L881.6,209.9 L881.9,224.0 L882.2,220.1 L882.4,225.5 L882.7,220.8 L882.9,208.4 L883.2,220.8 L883.5,213.1 L883.7,216.9 L884.0,208.4 L884.3,221.6 L884.5,206.0 L884.8,220.8 L885.0,229.4 L885.3,220.8 L885.6,206.8 L885.8,228.6 L886.1,204.5 L886.4,211.5 L886.6,207.6 L886.9,220.1 L887.1,224.0 L887.4,218.5 L887.7,221.6 L887.9,226.3 L888.2,201.4 L888.5,228.6 L888.7,211.5 L889.0,216.2 L889.2,230.2 L889.5,214.6 L889.8,209.9 L890.0,212.3 L890.3,220.1 L890.6,216.9 L890.8,218.5 L891.1,212.3 L891.3,229.4 L891.6,224.7 L891.9,114.2 L892.1,221.6 L892.4,213.8 L892.7,220.8 L892.9,218.5 L893.2,226.3 L893.4,209.2 L893.7,220.8 L894.0,218.5 L894.2,227.8 L894.5,209.9 L894.8,224.0 L895.0,212.3 L895.3,216.2 L895.5,231.7 L895.8,220.1 L896.1,216.9 L896.3,221.6 L896.6,221.6 L896.9,227.1 L897.1,219.3 L897.4,206.8 L897.6,216.2 L897.9,214.6 L898.2,220.1 L898.4,224.7 L898.7,210.7 L899.0,220.8 L899.2,205.3 L899.5,224.7 L899.7,217.7 L900.0,209.2 L900.3,229.4 L900.5,220.1 L900.8,204.5 L901.1,223.2 L901.3,219.3 L901.6,222.4 L901.8,227.8 L902.1,216.9 L902.4,216.9 L902.6,210.7 L902.9,220.8 L903.2,209.2 L903.4,221.6 L903.7,211.5 L903.9,221.6 L904.2,204.5 L904.5,218.5 L904.7,222.4 L905.0,202.1 L905.3,209.9 L905.5,205.3 L905.8,219.3 L906.0,217.7 L906.3,201.4 L906.6,212.3 L906.8,213.8 L907.1,227.1 L907.4,203.7 L907.6,219.3 L907.9,226.3 L908.1,220.1 L908.4,218.5 L908.7,221.6 L908.9,224.7 L909.2,201.4 L909.5,208.4 L909.7,214.6 L910.0,219.3 L910.2,225.5 L910.5,217.7 L910.8,207.6 L911.0,208.4 L911.3,213.8 L911.6,220.8 L911.8,203.7 L912.1,220.8 L912.3,199.0 L912.6,207.6 L912.9,219.3 L913.1,205.3 L913.4,224.0 L913.7,210.7 L913.9,218.5 L914.2,222.4 L914.4,202.1 L914.7,212.3 L915.0,206.8 L915.2,227.8 L915.5,221.6 L915.8,227.1 L916.0,208.4 L916.3,229.4 L916.5,216.9 L916.8,228.6 L917.1,204.5 L917.3,231.0 L917.6,205.3 L917.9,213.8 L918.1,228.6 L918.4,223.2 L918.6,222.4 L918.9,227.8 L919.2,213.1 L919.4,211.5 L919.7,220.1 L920.0,213.8 L920.2,207.6 L920.5,231.0 L920.7,225.5 L921.0,227.1 L921.3,218.5 L921.5,206.8 L921.8,219.3 L922.1,203.7 L922.3,220.1 L922.6,218.5 L922.8,224.0 L923.1,217.7 L923.4,208.4 L923.6,229.4 L923.9,211.5 L924.2,212.3 L924.4,213.8 L924.7,204.5 L924.9,212.3 L925.2,206.8 L925.5,218.5 L925.7,208.4 L926.0,229.4 L926.3,209.2 L926.5,209.2 L926.8,216.9 L927.0,227.8 L927.3,222.4 L927.6,221.6 L927.8,217.7 L928.1,203.7 L928.3,224.7 L928.6,213.8 L928.9,228.6 L929.1,220.1 L929.4,217.7 L929.7,224.0 L929.9,208.4 L930.2,229.4 L930.4,227.8 L930.7,203.7 L931.0,212.3 L931.2,76.0 L931.5,224.0 L931.8,225.5 L932.0,235.6 L932.3,231.0 L932.5,209.9 L932.8,214.6 L933.1,236.4 L933.3,217.7 L933.6,236.4 L933.9,216.2 L934.1,237.2 L934.4,213.8 L934.6,216.9 L934.9,227.8 L935.2,232.5 L935.4,216.2 L935.7,227.8 L936.0,230.2 L936.2,228.6 L936.5,217.7 L936.7,216.2 L937.0,211.5 L937.3,230.2 L937.5,228.6 L937.8,206.8 L938.1,212.3 L938.3,212.3 L938.6,218.5 L938.8,208.4 L939.1,220.8 L939.4,229.4 L939.6,214.6 L939.9,212.3 L940.2,205.3 L940.4,229.4 L940.7,214.6 L940.9,227.8 L941.2,222.4 L941.5,228.6 L941.7,209.9 L942.0,206.0 L942.3,223.2 L942.5,206.0 L942.8,230.2 L943.0,208.4 L943.3,234.9 L943.6,216.2 L943.8,215.4 L944.1,234.1 L944.4,215.4 L944.6,229.4 L944.9,223.2 L945.1,213.1 L945.4,216.9 L945.7,233.3 L945.9,228.6 L946.2,212.3 L946.5,227.1 L946.7,213.1 L947.0,233.3 L947.2,227.8 L947.5,211.5 L947.8,230.2 L948.0,222.4 L948.3,226.3 L948.6,220.1 L948.8,224.0 L949.1,213.1 L949.3,224.7 L949.6,216.2 L949.9,217.7 L950.1,224.0 L950.4,218.5 L950.7,213.1 L950.9,210.7 L951.2,208.4 L951.4,230.2 L951.7,224.7 L952.0,212.3 L952.2,220.8 L952.5,219.3 L952.8,223.2 L953.0,220.8 L953.3,220.8 L953.5,209.2 L953.8,206.0 L954.1,216.9 L954.3,227.1 L954.6,216.2 L954.9,207.6 L955.1,225.5 L955.4,200.6 L955.6,213.1 L955.9,225.5 L956.2,219.3 L956.4,226.3 L956.7,218.5 L957.0,217.7 L957.2,219.3 L957.5,199.8 L957.7,208.4 L958.0,211.5 L958.3,202.9 L958.5,220.1 L958.8,225.5 L959.1,210.7 L959.3,227.8 L959.6,217.7 L959.8,202.1 L960.1,222.4 L960.4,204.5 L960.6,220.8 L960.9,226.3 L961.2,214.6 L961.4,206.0 L961.7,228.6 L961.9,209.9 L962.2,215.4 L962.5,206.8 L962.7,230.2 L963.0,214.6 L963.3,213.8 L963.5,231.0 L963.8,212.3 L964.0,233.3 L964.3,216.2 L964.6,229.4 L964.8,212.3 L965.1,227.1 L965.4,231.7 L965.6,209.9 L965.9,229.4 L966.1,221.6 L966.4,231.7 L966.7,225.5 L966.9,217.7 L967.2,212.3 L967.5,219.3 L967.7,216.9 L968.0,213.8 L968.2,206.0 L968.5,223.2 L968.8,225.5 L969.0,224.7 L969.3,204.5 L969.6,219.3 L969.8,227.1 L970.1,222.4 L970.3,219.3 L970.6,111.0 L970.9,232.5 L971.1,220.8 L971.4,234.1 L971.7,224.0 L971.9,213.8 L972.2,214.6 L972.4,237.2 L972.7,231.0 L973.0,213.8 L973.2,223.2 L973.5,215.4 L973.8,234.9 L974.0,229.4 L974.3,220.8 L974.5,224.7 L974.8,222.4 L975.1,220.1 L975.3,207.6 L975.6,216.9 L975.9,227.1 L976.1,227.1 L976.4,218.5 L976.6,222.4 L976.9,202.9 L977.2,220.8 L977.4,213.8 L977.7,213.1 L978.0,217.7 L978.2,213.1 L978.5,229.4 L978.7,212.3 L979.0,227.1 L979.3,227.1 L979.5,221.6 L979.8,220.1 L980.1,214.6 L980.3,223.2 L980.6,223.2 L980.8,225.5 L981.1,209.9 L981.4,222.4 L981.6,216.2 L981.9,216.9 L982.2,219.3 L982.4,213.1 L982.7,216.2 L982.9,199.8 L983.2,209.9 L983.5,215.4 L983.7,213.8 L984.0,224.7 L984.3,208.4 L984.5,206.0 L984.8,206.8 L985.0,205.3 L985.3,208.4 L985.6,216.2 L985.8,217.7 L986.1,212.3 L986.4,209.9 L986.6,220.1 L986.9,220.8 L987.1,208.4 L987.4,200.6 L987.7,216.2 L987.9,209.9 L988.2,210.7 L988.5,227.1 L988.7,209.9 L989.0,224.7 L989.2,211.5 L989.5,216.9 L989.8,218.5 L990.0,202.1 L990.3,227.8 L990.6,202.9 L990.8,213.8 L991.1,209.2 L991.3,217.7 L991.6,212.3 L991.9,221.6 L992.1,209.9 L992.4,213.8 L992.7,216.9 L992.9,203.7 L993.2,216.9 L993.4,209.9 L993.7,211.5 L994.0,207.6 L994.2,228.6 L994.5,213.8 L994.8,230.2 L995.0,222.4 L995.3,214.6 L995.5,228.6 L995.8,218.5 L996.1,204.5 L996.3,226.3 L996.6,213.1 L996.9,216.2 L997.1,229.4 L997.4,215.4 L997.6,229.4 L997.9,213.1 L998.2,230.2 L998.4,203.7 L998.7,227.8 L999.0,213.8 L999.2,223.2 L999.5,217.7 L999.7,215.4 L1000.0,223.2 L1000.3,224.0 L1000.5,227.1 L1000.8,220.8 L1001.1,224.7 L1001.3,223.2 L1001.6,215.4 L1001.8,208.4 L1002.1,217.7 L1002.4,218.5 L1002.6,214.6 L1002.9,204.5 L1003.2,227.8 L1003.4,217.7 L1003.7,216.9 L1003.9,220.8 L1004.2,217.7 L1004.5,202.1 L1004.7,215.4 L1005.0,211.5 L1005.3,226.3 L1005.5,216.9 L1005.8,205.3 L1006.0,213.1 L1006.3,216.9 L1006.6,227.8 L1006.8,205.3 L1007.1,225.5 L1007.4,225.5 L1007.6,200.6 L1007.9,213.8 L1008.1,229.4 L1008.4,223.2 L1008.7,227.1 L1008.9,214.6 L1009.2,223.2 L1009.5,206.8 L1009.7,206.8 L1010.0,76.0 L1010.2,237.2 L1010.5,216.2 L1010.8,227.1 L1011.0,220.8 L1011.3,229.4 L1011.6,221.6 L1011.8,235.6 L1012.1,215.4 L1012.3,237.2 L1012.6,226.3 L1012.9,223.2 L1013.1,236.4 L1013.4,217.7 L1013.7,216.9 L1013.9,223.2 L1014.2,223.2 L1014.4,224.0 L1014.7,209.9 L1015.0,212.3 L1015.2,224.0 L1015.5,221.6 L1015.8,206.8 L1016.0,225.5 L1016.3,212.3 L1016.5,228.6 L1016.8,218.5 L1017.1,226.3 L1017.3,210.7 L1017.6,218.5 L1017.9,226.3 L1018.1,218.5 L1018.4,227.1 L1018.6,203.7 L1018.9,209.2 L1019.2,231.0 L1019.4,216.2 L1019.7,213.1 L1020.0,224.7 L1020.2,214.6 L1020.5,212.3 L1020.7,212.3 L1021.0,224.7 L1021.3,219.3 L1021.5,217.7 L1021.8,210.7 L1022.1,215.4 L1022.3,227.1 L1022.6,199.8 L1022.8,230.2 L1023.1,204.5 L1023.4,226.3 L1023.6,227.1 L1023.9,211.5 L1024.2,231.0 L1024.4,221.6 L1024.7,224.0 L1024.9,224.0 L1025.2,216.2 L1025.5,207.6 L1025.7,223.2 L1026.0,213.8 L1026.3,222.4 L1026.5,224.0 L1026.8,206.0 L1027.0,213.1 L1027.3,220.1 L1027.6,203.7 L1027.8,224.0 L1028.1,220.8 L1028.4,229.4 L1028.6,220.8 L1028.9,215.4 L1029.1,211.5 L1029.4,208.4 L1029.7,207.6 L1029.9,231.0 L1030.2,222.4 L1030.5,216.2 L1030.7,212.3 L1031.0,227.8 L1031.2,212.3 L1031.5,207.6 L1031.8,212.3 L1032.0,216.9 L1032.3,217.7 L1032.6,227.1 L1032.8,202.9 L1033.1,225.5 L1033.3,210.7 L1033.6,213.1 L1033.9,224.0 L1034.1,224.0 L1034.4,207.6 L1034.7,216.9 L1034.9,212.3 L1035.2,228.6 L1035.4,201.4 L1035.7,224.0 L1036.0,210.7 L1036.2,220.8 L1036.5,217.7 L1036.8,217.7 L1037.0,204.5 L1037.3,225.5 L1037.5,206.8 L1037.8,224.7 L1038.1,227.1 L1038.3,207.6 L1038.6,227.8 L1038.9,230.2 L1039.1,228.6 L1039.4,220.1 L1039.6,211.5 L1039.9,217.7 L1040.2,210.7 L1040.4,231.0 L1040.7,209.9 L1041.0,216.9 L1041.2,220.8 L1041.5,226.3 L1041.7,214.6 L1042.0,211.5 L1042.3,227.8 L1042.5,225.5 L1042.8,223.2 L1043.1,203.7 L1043.3,227.1 L1043.6,209.2 L1043.8,210.7 L1044.1,223.2 L1044.4,209.2 L1044.6,224.0 L1044.9,224.0 L1045.2,204.5 L1045.4,214.6 L1045.7,214.6 L1045.9,227.1 L1046.2,215.4 L1046.5,218.5 L1046.7,215.4 L1047.0,216.9 L1047.3,204.5 L1047.5,220.8 L1047.8,227.1 L1048.0,221.6 L1048.3,220.1 L1048.6,205.3 L1048.8,217.7 L1049.1,226.3 L1049.4,103.3 L1049.6,219.3 L1049.9,224.7 L1050.1,213.1 L1050.4,222.4 L1050.7,215.4 L1050.9,208.4 L1051.2,225.5 L1051.5,222.4 L1051.7,220.1 L1052.0,206.0 L1052.2,217.7 L1052.5,206.8 L1052.8,220.1 L1053.0,222.4 L1053.3,215.4 L1053.6,216.9 L1053.8,217.7 L1054.1,229.4 L1054.3,211.5 L1054.6,230.2 L1054.9,219.3 L1055.1,212.3 L1055.4,205.3 L1055.7,218.5 L1055.9,212.3 L1056.2,228.6 L1056.4,208.4 L1056.7,209.2 L1057.0,230.2 L1057.2,223.2 L1057.5,213.1 L1057.8,222.4 L1058.0,221.6 L1058.3,204.5 L1058.5,228.6 L1058.8,224.7 L1059.1,227.1 L1059.3,228.6 L1059.6,216.9 L1059.9,205.3 L1060.1,207.6 L1060.4,221.6 L1060.6,205.3 L1060.9,210.7 L1061.2,229.4 L1061.4,213.8 L1061.7,217.7 L1062.0,211.5 L1062.2,206.0 L1062.5,209.2 L1062.7,231.7 L1063.0,203.7 L1063.3,221.6 L1063.5,210.7 L1063.8,218.5 L1064.1,219.3 L1064.3,224.7 L1064.6,203.7 L1064.8,232.5 L1065.1,225.5 L1065.4,213.1 L1065.6,232.5 L1065.9,230.2 L1066.2,218.5 L1066.4,231.7 L1066.7,229.4 L1066.9,220.8 L1067.2,216.9 L1067.5,216.2 L1067.7,205.3 L1068.0,219.3 L1068.3,220.8 L1068.5,204.5 L1068.8,231.7 L1069.0,229.4 L1069.3,217.7 L1069.6,225.5 L1069.8,227.8 L1070.1,216.2 L1070.4,205.3 L1070.6,227.1 L1070.9,224.0 L1071.1,217.7 L1071.4,227.8 L1071.7,224.7 L1071.9,213.8 L1072.2,224.7 L1072.5,204.5 L1072.7,210.7 L1073.0,223.2 L1073.2,224.0 L1073.5,214.6 L1073.8,215.4 L1074.0,204.5 L1074.3,205.3 L1074.6,229.4 L1074.8,208.4 L1075.1,211.5 L1075.3,206.0 L1075.6,214.6 L1075.9,218.5 L1076.1,209.2 L1076.4,206.0 L1076.7,230.2 L1076.9,202.9 L1077.2,232.5 L1077.4,209.9 L1077.7,232.5 L1078.0,227.1 L1078.2,220.1 L1078.5,210.7 L1078.8,214.6 L1079.0,227.8 L1079.3,229.4 L1079.5,217.7 L1079.8,231.7 L1080.1,213.1 L1080.3,227.1 L1080.6,213.1 L1080.9,227.8 L1081.1,220.8 L1081.4,207.6 L1081.6,220.8 L1081.9,217.7 L1082.2,224.7 L1082.4,202.9 L1082.7,216.9 L1083.0,207.6 L1083.2,233.3 L1083.5,243.4 L1083.7,237.2 L1084.0,258.2" fill="none" stroke="#ff7f0e" stroke-width="1.1" opacity="0.85"/><text x="616" y="572" font-size="11" fill="#888">time 0..36 s — altitude (blue) &amp; roll (orange)</text></svg>