<svg xmlns="http://www.w3.org/2000/svg" width="1140" height="600" font-family="sans-serif" font-size="13"><rect width="1140" height="600" fill="white"/><text x="20" y="26" font-size="15" fill="#333">TMS-7 F15 — sensor noise 50%</text><rect x="20" y="40" width="540" height="540" fill="#fbfbfb" stroke="#ddd"/><rect x="50" y="394" width="163" height="3" fill="#cde" stroke="#369" opacity="0.7"/><text x="50" y="389" fill="#369" font-size="12">landing zone</text><circle cx="153" cy="423" r="5" fill="black"/><text x="161" y="427" font-size="12">pad</text><path d="M152.7,422.6 L152.7,422.6 L152.7,422.6 L152.7,422.6 L152.7,422.6 L152.7,422.6 L152.7,422.6 L152.7,422.6 L152.7,422.6 L152.7,422.6 L152.7,422.6 L152.7,422.6 L152.7,422.6 L152.7,422.6 L152.7,422.6 L152.7,422.6 L152.7,422.6 L152.7,422.6 L152.7,422.6 L152.7,422.6 L152.7,422.6 L152.7,422.6 L152.7,422.6 L152.7,422.6 L152.7,422.6 L152.7,422.6 L152.7,422.6 L152.7,422.6 L152.7,422.6 L152.7,422.6 L152.7,422.6 L152.7,422.6 L152.7,422.6 L152.7,422.6 L152.7,422.6 L152.7,422.6 L152.7,422.6 L152.7,422.6 L152.7,422.6 L152.7,422.6 L152.7,422.6 L152.7,422.6 L152.7,422.6 L152.7,422.6 L152.7,422.6 L152.7,422.6 L152.7,422.6 L152.7,422.6 L152.7,422.6 L152.7,422.6 L152.7,422.6 L152.7,422.6 L152.7,422.6 L152.7,422.6 L152.7,422.6 L152.7,422.6 L152.7,422.6 L152.7,422.6 L152.9,422.2 L153.7,420.8 L154.6,419.5 L155.3,418.1 L156.2,416.7 L156.9,415.4 L157.8,414.0 L158.5,412.6 L159.4,411.3 L160.2,409.9 L161.0,408.6 L161.8,407.2 L162.7,405.8 L163.5,404.5 L164.3,403.2 L165.2,401.8 L166.0,400.5 L166.9,399.1 L167.7,397.9 L168.6,396.5 L169.5,395.1 L170.4,393.9 L171.2,392.5 L172.1,391.1 L172.9,389.8 L173.8,388.5 L174.6,387.2 L175.5,385.9 L176.3,384.5 L177.3,383.3 L178.1,381.9 L179.0,380.7 L179.9,379.3 L180.8,378.0 L181.7,376.7 L182.7,375.4 L183.5,374.2 L184.5,372.8 L185.4,371.5 L186.3,370.3 L187.3,369.0 L188.2,367.8 L189.2,366.5 L190.1,365.3 L191.1,364.0 L192.0,362.7 L193.0,361.5 L193.9,360.2 L195.0,359.0 L195.9,357.7 L196.9,356.4 L197.9,355.2 L198.9,354.0 L199.9,352.8 L200.9,351.5 L202.0,350.4 L202.9,349.1 L203.9,348.0 L205.0,346.7 L206.0,345.5 L207.1,344.4 L208.1,343.1 L209.1,342.0 L210.3,340.8 L211.3,339.7 L212.4,338.5 L213.4,337.3 L214.5,336.1 L215.6,335.0 L216.7,333.9 L217.8,332.8 L218.9,331.6 L220.0,330.4 L221.1,329.3 L222.2,328.1 L223.3,327.1 L224.5,325.9 L225.6,324.8 L226.7,323.7 L227.9,322.6 L229.0,321.5 L230.2,320.5 L231.3,319.3 L232.4,318.3 L233.6,317.2 L234.8,316.1 L235.9,315.0 L237.2,314.0 L238.3,312.9 L239.5,311.9 L240.7,310.8 L241.9,309.8 L243.0,308.7 L244.3,307.8 L245.5,306.7 L246.7,305.7 L247.9,304.8 L249.2,303.7 L250.3,302.8 L251.6,301.7 L252.9,300.8 L254.1,299.7 L255.3,298.8 L256.6,297.8 L257.8,296.8 L259.1,295.8 L260.3,294.9 L261.6,294.0 L262.9,293.0 L264.1,292.1 L265.4,291.1 L266.7,290.2 L268.0,289.3 L269.2,288.4 L270.6,287.5 L271.9,286.6 L273.2,285.7 L274.4,284.7 L275.8,283.9 L277.1,283.1 L278.4,282.1 L279.7,281.3 L281.1,280.4 L282.4,279.5 L283.7,278.7 L285.0,277.8 L286.4,277.0 L287.8,276.1 L289.1,275.3 L290.4,274.5 L291.8,273.7 L293.2,272.9 L294.5,272.0 L295.9,271.3 L297.2,270.5 L298.6,269.6 L300.0,268.9 L301.3,268.1 L302.7,267.3 L304.1,266.5 L305.5,265.8 L306.9,265.0 L308.2,264.2 L309.6,263.4 L311.1,262.7 L312.4,262.0 L313.8,261.2 L315.2,260.5 L316.6,259.8 L318.1,259.0 L319.5,258.3 L320.8,257.6 L322.2,256.8 L323.6,256.1 L325.1,255.4 L326.5,254.7 L327.9,254.0 L329.3,253.3 L330.7,252.7 L332.2,251.9 L333.6,251.3 L335.1,250.7 L336.5,249.9 L337.9,249.3 L339.3,248.7 L340.9,248.0 L342.3,247.4 L343.7,246.7 L345.1,246.0 L346.6,245.5 L348.0,244.9 L349.6,244.3 L351.0,243.6 L352.5,243.0 L353.9,242.5 L355.4,241.9 L356.8,241.2 L358.4,240.7 L359.8,240.1 L361.3,239.5 L362.7,238.9 L364.2,238.4 L365.6,237.8 L367.2,237.2 L368.7,236.7 L370.1,236.1 L371.6,235.6 L373.1,235.0 L374.5,234.4 L376.1,233.9 L377.6,233.4 L379.1,232.8 L380.5,232.3 L382.0,231.8 L383.5,231.3 L385.0,230.7 L386.5,230.2 L388.0,229.7 L389.5,229.2 L391.0,228.6 L392.5,228.1 L393.9,227.6 L395.5,227.2 L397.0,226.6 L398.5,226.1 L400.0,225.7 L401.5,225.2 L403.0,224.8 L404.5,224.2 L406.0,223.8 L407.6,223.3 L409.1,222.9 L410.6,222.4 L412.1,221.9 L413.6,221.5 L415.1,221.0 L416.4,220.7 L417.7,220.3 L418.9,219.9 L420.1,219.5 L421.5,219.2 L422.7,218.9 L424.0,218.5 L425.3,218.2 L426.6,217.8 L427.8,217.4 L429.1,217.1 L430.4,216.8 L431.7,216.5 L432.9,216.2 L434.2,215.7 L435.5,215.4 L436.7,215.1 L438.0,214.8 L439.4,214.5 L440.6,214.2 L441.9,213.9 L443.1,213.5 L444.5,213.2 L445.7,212.9 L447.0,212.6 L448.2,212.3 L449.6,212.0 L450.8,211.7 L452.1,211.3 L453.5,211.1 L454.7,210.8 L456.0,210.5 L457.2,210.2 L458.6,209.9 L459.8,209.7 L461.1,209.4 L462.4,209.0 L463.7,208.7 L465.0,208.5 L466.3,208.2 L467.6,207.9 L468.9,207.7 L470.1,207.4 L471.4,207.1 L472.8,206.8 L474.0,206.6 L475.3,206.3 L476.6,206.1 L477.9,205.8 L479.2,205.6 L480.5,205.3 L481.7,205.1 L483.1,204.8 L484.4,204.5 L485.6,204.3 L486.9,204.1 L488.3,203.8 L489.6,203.6 L490.8,203.4 L492.2,203.2 L493.5,202.9 L494.7,202.6 L496.0,202.4 L497.4,202.2 L498.7,202.0 L499.9,201.8 L501.2,201.6 L502.6,201.4 L503.9,201.2 L505.1,201.0 L506.4,200.8 L507.8,200.5 L509.1,200.3 L510.4,200.1 L511.6,199.9 L513.0,199.8 L514.3,199.6 L515.6,199.4 L516.8,199.2 L518.2,199.0 L519.5,198.8 L520.8,198.7 L522.1,198.4 L523.4,198.2 L524.7,198.1 L526.0,197.9 L527.4,197.7 L528.7,197.6 L530.0,197.4" fill="none" stroke="#1f77b4" stroke-width="1.7" opacity="0.85"/><circle cx="530" cy="197" r="4.5" fill="#1f77b4"/><text x="28" y="572" font-size="11" fill="#888">ground track — m from pad (N up)</text><rect x="580" y="40" width="540" height="540" fill="#fbfbfb" stroke="#ddd"/><text x="586" y="54" fill="#1f77b4" font-size="11">alt 409</text><text x="586" y="558" fill="#1f77b4" font-size="11">1</text><path d="M616.0,542.6 L616.2,542.5 L616.5,541.8 L616.7,543.5 L616.9,542.0 L617.1,543.2 L617.4,542.7 L617.6,541.6 L617.8,542.8 L618.1,541.8 L618.3,542.3 L618.5,543.4 L618.7,540.1 L619.0,543.3 L619.2,544.0 L619.4,541.7 L619.7,541.2 L619.9,539.3 L620.1,538.5 L620.3,538.6 L620.6,539.7 L620.8,543.1 L621.0,541.5 L621.3,536.9 L621.5,538.7 L621.7,542.1 L621.9,540.8 L622.2,537.1 L622.4,542.0 L622.6,535.1 L622.9,539.9 L623.1,538.5 L623.3,534.4 L623.5,539.0 L623.8,533.6 L624.0,532.6 L624.2,534.9 L624.5,539.9 L624.7,534.9 L624.9,530.4 L625.1,534.2 L625.4,532.5 L625.6,537.8 L625.8,529.1 L626.0,525.4 L626.3,532.0 L626.5,524.5 L626.7,523.2 L627.0,524.5 L627.2,521.6 L627.4,534.3 L627.6,529.9 L627.9,529.3 L628.1,534.6 L628.3,518.0 L628.6,536.1 L628.8,520.9 L629.0,519.9 L629.2,523.9 L629.5,529.3 L629.7,513.2 L629.9,525.8 L630.2,529.0 L630.4,524.5 L630.6,516.6 L630.8,510.1 L631.1,512.1 L631.3,510.3 L631.5,504.3 L631.8,522.6 L632.0,515.5 L632.2,513.0 L632.4,523.0 L632.7,517.5 L632.9,497.1 L633.1,510.7 L633.4,519.6 L633.6,510.8 L633.8,513.3 L634.0,498.8 L634.3,506.7 L634.5,514.3 L634.7,501.2 L635.0,490.9 L635.2,508.8 L635.4,484.3 L635.6,503.5 L635.9,523.4 L636.1,487.0 L636.3,523.1 L636.6,502.1 L636.8,485.2 L637.0,508.4 L637.2,487.2 L637.5,498.7 L637.7,507.9 L637.9,479.5 L638.2,505.5 L638.4,478.7 L638.6,509.5 L638.8,475.3 L639.1,492.2 L639.3,500.2 L639.5,459.0 L639.8,499.1 L640.0,499.9 L640.2,474.8 L640.4,476.9 L640.7,465.4 L640.9,483.5 L641.1,476.3 L641.4,467.7 L641.6,451.4 L641.8,462.0 L642.0,478.6 L642.3,447.8 L642.5,496.9 L642.7,471.2 L643.0,488.4 L643.2,461.5 L643.4,459.4 L643.6,434.3 L643.9,488.2 L644.1,499.5 L644.3,491.2 L644.6,453.0 L644.8,454.4 L645.0,465.4 L645.2,452.6 L645.5,497.4 L645.7,448.9 L645.9,484.0 L646.1,486.6 L646.4,416.3 L646.6,418.6 L646.8,411.5 L647.1,439.7 L647.3,397.2 L647.5,444.9 L647.7,489.3 L648.0,418.1 L648.2,444.1 L648.4,436.6 L648.7,458.3 L648.9,428.1 L649.1,438.7 L649.3,393.2 L649.6,462.2 L649.8,485.9 L650.0,434.2 L650.3,407.6 L650.5,401.5 L650.7,473.1 L650.9,374.5 L651.2,410.4 L651.4,365.4 L651.6,382.8 L651.9,355.3 L652.1,360.1 L652.3,435.4 L652.5,413.4 L652.8,462.4 L653.0,398.0 L653.2,423.9 L653.5,373.2 L653.7,435.4 L653.9,330.0 L654.1,416.5 L654.4,460.4 L654.6,451.9 L654.8,351.8 L655.1,323.0 L655.3,414.1 L655.5,427.7 L655.7,404.0 L656.0,397.9 L656.2,338.7 L656.4,313.0 L656.7,403.1 L656.9,385.7 L657.1,396.4 L657.3,338.0 L657.6,318.2 L657.8,432.8 L658.0,397.0 L658.3,416.1 L658.5,454.6 L658.7,358.8 L658.9,291.6 L659.2,289.3 L659.4,321.2 L659.6,449.2 L659.9,315.5 L660.1,366.6 L660.3,414.6 L660.5,420.9 L660.8,308.6 L661.0,267.6 L661.2,311.3 L661.5,397.4 L661.7,343.3 L661.9,340.5 L662.1,417.6 L662.4,379.8 L662.6,364.5 L662.8,288.4 L663.1,285.2 L663.3,375.6 L663.5,399.4 L663.7,333.5 L664.0,240.2 L664.2,432.0 L664.4,369.4 L664.7,304.9 L664.9,331.1 L665.1,355.2 L665.3,290.1 L665.6,365.0 L665.8,297.3 L666.0,341.7 L666.2,259.3 L666.5,241.7 L666.7,420.1 L666.9,385.0 L667.2,411.9 L667.4,204.2 L667.6,424.7 L667.8,197.6 L668.1,403.2 L668.3,301.7 L668.5,353.6 L668.8,327.4 L669.0,230.8 L669.2,400.2 L669.4,250.6 L669.7,403.2 L669.9,189.4 L670.1,403.4 L670.4,329.8 L670.6,319.2 L670.8,345.9 L671.0,400.1 L671.3,358.2 L671.5,186.9 L671.7,244.0 L672.0,390.2 L672.2,250.3 L672.4,403.0 L672.6,336.1 L672.9,220.3 L673.1,267.3 L673.3,284.6 L673.6,203.2 L673.8,183.9 L674.0,218.0 L674.2,378.6 L674.5,240.9 L674.7,205.1 L674.9,173.8 L675.2,178.0 L675.4,307.8 L675.6,139.4 L675.8,196.2 L676.1,145.9 L676.3,360.8 L676.5,230.5 L676.8,403.4 L677.0,314.2 L677.2,268.3 L677.4,204.9 L677.7,229.7 L677.9,270.5 L678.1,137.2 L678.4,331.7 L678.6,242.3 L678.8,228.2 L679.0,251.7 L679.3,298.9 L679.5,374.0 L679.7,333.4 L680.0,153.7 L680.2,162.3 L680.4,217.0 L680.6,227.1 L680.9,152.1 L681.1,384.9 L681.3,175.1 L681.6,324.6 L681.8,98.4 L682.0,388.5 L682.2,377.3 L682.5,300.6 L682.7,248.1 L682.9,242.9 L683.2,210.8 L683.4,119.2 L683.6,295.1 L683.8,295.7 L684.1,252.0 L684.3,131.6 L684.5,218.9 L684.7,158.2 L685.0,220.5 L685.2,346.7 L685.4,328.1 L685.7,79.9 L685.9,180.8 L686.1,224.4 L686.3,348.4 L686.6,96.9 L686.8,295.8 L687.0,384.5 L687.3,342.9 L687.5,210.8 L687.7,107.0 L687.9,226.5 L688.2,167.4 L688.4,192.4 L688.6,174.9 L688.9,374.9 L689.1,110.8 L689.3,239.4 L689.5,98.6 L689.8,115.6 L690.0,252.7 L690.2,219.2 L690.5,182.8 L690.7,129.2 L690.9,237.6 L691.1,77.9 L691.4,102.7 L691.6,211.5 L691.8,336.9 L692.1,293.8 L692.3,376.9 L692.5,208.8 L692.7,322.7 L693.0,283.5 L693.2,125.5 L693.4,296.0 L693.7,349.7 L693.9,261.3 L694.1,266.2 L694.3,198.6 L694.6,265.2 L694.8,192.2 L695.0,193.2 L695.3,230.6 L695.5,186.8 L695.7,148.8 L695.9,219.5 L696.2,176.2 L696.4,138.8 L696.6,373.8 L696.9,94.1 L697.1,256.7 L697.3,246.2 L697.5,127.2 L697.8,105.5 L698.0,377.1 L698.2,160.7 L698.5,91.0 L698.7,151.2 L698.9,257.0 L699.1,89.3 L699.4,101.3 L699.6,222.1 L699.8,125.2 L700.1,275.6 L700.3,148.1 L700.5,305.9 L700.7,181.6 L701.0,111.6 L701.2,383.3 L701.4,232.0 L701.7,216.6 L701.9,378.0 L702.1,210.8 L702.3,387.6 L702.6,291.5 L702.8,270.1 L703.0,335.1 L703.3,157.0 L703.5,81.8 L703.7,363.8 L703.9,297.3 L704.2,160.0 L704.4,200.6 L704.6,92.6 L704.8,131.6 L705.1,292.9 L705.3,224.5 L705.5,213.3 L705.8,363.9 L706.0,339.5 L706.2,341.9 L706.4,127.1 L706.7,103.9 L706.9,98.7 L707.1,387.6 L707.4,84.8 L707.6,286.1 L707.8,122.5 L708.0,293.1 L708.3,174.0 L708.5,209.6 L708.7,76.0 L709.0,341.1 L709.2,242.6 L709.4,117.5 L709.6,267.8 L709.9,201.9 L710.1,317.8 L710.3,218.9 L710.6,355.7 L710.8,184.8 L711.0,347.1 L711.2,318.9 L711.5,129.8 L711.7,143.8 L711.9,369.8 L712.2,369.6 L712.4,163.9 L712.6,95.9 L712.8,369.6 L713.1,152.4 L713.3,235.9 L713.5,210.8 L713.8,316.6 L714.0,135.3 L714.2,239.9 L714.4,255.1 L714.7,320.3 L714.9,89.1 L715.1,385.9 L715.4,80.9 L715.6,325.8 L715.8,225.3 L716.0,121.1 L716.3,157.7 L716.5,201.6 L716.7,125.6 L717.0,226.8 L717.2,103.1 L717.4,322.5 L717.6,101.5 L717.9,216.0 L718.1,115.0 L718.3,357.9 L718.6,165.0 L718.8,269.9 L719.0,358.5 L719.2,168.5 L719.5,301.8 L719.7,278.7 L719.9,331.9 L720.2,296.7 L720.4,379.6 L720.6,221.3 L720.8,295.5 L721.1,295.2 L721.3,194.4 L721.5,314.6 L721.8,297.9 L722.0,314.3 L722.2,330.4 L722.4,327.8 L722.7,190.3 L722.9,95.9 L723.1,378.0 L723.3,191.1 L723.6,308.3 L723.8,376.1 L724.0,290.1 L724.3,365.6 L724.5,365.9 L724.7,169.2 L724.9,295.9 L725.2,262.7 L725.4,191.6 L725.6,166.6 L725.9,265.0 L726.1,199.9 L726.3,241.2 L726.5,311.2 L726.8,183.5 L727.0,357.9 L727.2,177.5 L727.5,260.6 L727.7,202.0 L727.9,214.7 L728.1,134.1 L728.4,371.4 L728.6,240.7 L728.8,378.3 L729.1,262.5 L729.3,139.0 L729.5,118.5 L729.7,92.0 L730.0,190.0 L730.2,296.1 L730.4,362.6 L730.7,196.8 L730.9,256.2 L731.1,124.6 L731.3,297.6 L731.6,342.0 L731.8,114.7 L732.0,227.3 L732.3,332.3 L732.5,185.8 L732.7,279.5 L732.9,105.0 L733.2,268.6 L733.4,340.3 L733.6,107.5 L733.9,269.0 L734.1,101.6 L734.3,114.9 L734.5,299.1 L734.8,293.1 L735.0,256.4 L735.2,171.7 L735.5,137.3 L735.7,365.6 L735.9,296.2 L736.1,345.1 L736.4,170.9 L736.6,174.4 L736.8,339.5 L737.1,139.3 L737.3,145.6 L737.5,344.9 L737.7,216.6 L738.0,108.5 L738.2,194.5 L738.4,301.6 L738.7,162.0 L738.9,192.2 L739.1,224.1 L739.3,268.4 L739.6,360.1 L739.8,100.7 L740.0,247.3 L740.3,354.1 L740.5,190.0 L740.7,217.6 L740.9,309.8 L741.2,285.1 L741.4,326.9 L741.6,339.7 L741.9,104.2 L742.1,185.4 L742.3,133.2 L742.5,182.2 L742.8,129.6 L743.0,367.9 L743.2,131.1 L743.4,336.4 L743.7,234.5 L743.9,210.8 L744.1,222.6 L744.4,169.8 L744.6,177.7 L744.8,126.8 L745.0,389.1 L745.3,381.2 L745.5,120.1 L745.7,370.7 L746.0,307.3 L746.2,214.3 L746.4,186.5 L746.6,378.9 L746.9,184.9 L747.1,189.7 L747.3,152.1 L747.6,352.4 L747.8,219.6 L748.0,219.3 L748.2,199.7 L748.5,269.3 L748.7,183.5 L748.9,237.6 L749.2,383.8 L749.4,132.3 L749.6,393.5 L749.8,183.2 L750.1,102.7 L750.3,394.5 L750.5,172.5 L750.8,347.5 L751.0,212.8 L751.2,182.6 L751.4,281.7 L751.7,185.0 L751.9,323.9 L752.1,202.5 L752.4,159.5 L752.6,161.9 L752.8,176.3 L753.0,295.6 L753.3,332.6 L753.5,367.5 L753.7,371.4 L754.0,289.3 L754.2,268.0 L754.4,201.6 L754.6,269.9 L754.9,394.0 L755.1,143.9 L755.3,241.3 L755.6,271.3 L755.8,112.1 L756.0,317.9 L756.2,204.1 L756.5,376.1 L756.7,161.2 L756.9,301.4 L757.2,134.7 L757.4,293.8 L757.6,348.8 L757.8,380.6 L758.1,196.8 L758.3,196.5 L758.5,256.2 L758.8,145.7 L759.0,129.4 L759.2,252.2 L759.4,381.0 L759.7,308.7 L759.9,271.1 L760.1,345.5 L760.4,235.4 L760.6,204.1 L760.8,340.5 L761.0,154.4 L761.3,161.2 L761.5,174.5 L761.7,285.2 L762.0,176.0 L762.2,124.2 L762.4,229.1 L762.6,190.7 L762.9,346.5 L763.1,259.3 L763.3,370.3 L763.5,383.6 L763.8,335.0 L764.0,189.7 L764.2,319.3 L764.5,172.8 L764.7,391.1 L764.9,173.3 L765.1,332.6 L765.4,276.9 L765.6,232.7 L765.8,158.0 L766.1,192.1 L766.3,257.3 L766.5,158.9 L766.7,390.9 L767.0,397.1 L767.2,247.0 L767.4,383.2 L767.7,345.3 L767.9,334.5 L768.1,382.4 L768.3,343.3 L768.6,190.1 L768.8,330.0 L769.0,391.9 L769.3,248.9 L769.5,340.5 L769.7,352.4 L769.9,357.1 L770.2,118.6 L770.4,363.7 L770.6,257.6 L770.9,153.8 L771.1,361.7 L771.3,382.3 L771.5,363.1 L771.8,165.3 L772.0,241.6 L772.2,376.9 L772.5,252.2 L772.7,380.5 L772.9,139.7 L773.1,373.3 L773.4,245.8 L773.6,150.9 L773.8,221.2 L774.1,344.7 L774.3,383.8 L774.5,232.7 L774.7,336.9 L775.0,203.8 L775.2,151.5 L775.4,213.2 L775.7,238.9 L775.9,185.5 L776.1,163.0 L776.3,370.3 L776.6,259.9 L776.8,356.9 L777.0,373.7 L777.3,180.3 L777.5,181.9 L777.7,138.4 L777.9,232.9 L778.2,163.5 L778.4,207.1 L778.6,305.2 L778.9,141.9 L779.1,228.4 L779.3,150.1 L779.5,275.9 L779.8,211.2 L780.0,187.2 L780.2,320.2 L780.5,162.3 L780.7,291.7 L780.9,309.7 L781.1,401.1 L781.4,184.8 L781.6,147.5 L781.8,347.1 L782.0,140.2 L782.3,233.7 L782.5,345.0 L782.7,387.4 L783.0,326.0 L783.2,170.0 L783.4,367.9 L783.6,334.5 L783.9,186.6 L784.1,180.9 L784.3,191.3 L784.6,299.9 L784.8,157.3 L785.0,274.1 L785.2,405.7 L785.5,265.6 L785.7,306.6 L785.9,237.6 L786.2,396.7 L786.4,212.1 L786.6,183.4 L786.8,220.2 L787.1,255.4 L787.3,397.2 L787.5,243.9 L787.8,293.4 L788.0,379.8 L788.2,286.7 L788.4,325.4 L788.7,301.1 L788.9,381.5 L789.1,213.4 L789.4,296.3 L789.6,362.8 L789.8,352.2 L790.0,143.4 L790.3,301.4 L790.5,235.2 L790.7,302.8 L791.0,168.4 L791.2,376.1 L791.4,393.6 L791.6,326.7 L791.9,233.3 L792.1,211.3 L792.3,194.3 L792.6,354.8 L792.8,216.2 L793.0,316.9 L793.2,201.4 L793.5,280.0 L793.7,361.6 L793.9,273.3 L794.2,354.0 L794.4,208.5 L794.6,227.9 L794.8,249.3 L795.1,230.8 L795.3,350.0 L795.5,288.6 L795.8,377.4 L796.0,327.7 L796.2,302.1 L796.4,313.0 L796.7,363.6 L796.9,155.7 L797.1,364.3 L797.4,390.1 L797.6,222.4 L797.8,287.6 L798.0,227.7 L798.3,379.5 L798.5,299.6 L798.7,350.0 L799.0,389.0 L799.2,283.2 L799.4,283.8 L799.6,392.6 L799.9,156.6 L800.1,291.3 L800.3,280.9 L800.6,272.9 L800.8,401.6 L801.0,281.2 L801.2,239.4 L801.5,396.4 L801.7,321.6 L801.9,288.0 L802.1,293.8 L802.4,305.7 L802.6,211.4 L802.8,318.7 L803.1,338.0 L803.3,247.4 L803.5,378.8 L803.7,287.2 L804.0,356.4 L804.2,358.7 L804.4,407.8 L804.7,275.4 L804.9,178.7 L805.1,209.8 L805.3,213.8 L805.6,260.9 L805.8,370.9 L806.0,267.6 L806.3,236.8 L806.5,300.1 L806.7,178.4 L806.9,316.4 L807.2,401.1 L807.4,257.3 L807.6,401.8 L807.9,206.0 L808.1,160.5 L808.3,376.0 L808.5,258.3 L808.8,263.8 L809.0,162.4 L809.2,215.2 L809.5,297.4 L809.7,278.7 L809.9,165.1 L810.1,294.0 L810.4,237.4 L810.6,398.0 L810.8,323.5 L811.1,217.4 L811.3,206.6 L811.5,258.6 L811.7,346.8 L812.0,234.3 L812.2,206.5 L812.4,318.2 L812.7,333.4 L812.9,382.1 L813.1,188.8 L813.3,327.0 L813.6,372.3 L813.8,227.6 L814.0,222.1 L814.3,357.2 L814.5,294.8 L814.7,176.7 L814.9,387.1 L815.2,405.4 L815.4,277.7 L815.6,323.0 L815.9,238.4 L816.1,416.9 L816.3,356.2 L816.5,318.0 L816.8,411.0 L817.0,187.8 L817.2,231.3 L817.5,182.3 L817.7,399.7 L817.9,183.9 L818.1,337.5 L818.4,182.5 L818.6,414.6 L818.8,322.5 L819.1,280.7 L819.3,310.1 L819.5,222.3 L819.7,302.6 L820.0,208.7 L820.2,294.9 L820.4,321.4 L820.7,199.0 L820.9,249.0 L821.1,405.5 L821.3,203.0 L821.6,388.8 L821.8,241.8 L822.0,290.3 L822.2,392.5 L822.5,315.3 L822.7,375.0 L822.9,173.1 L823.2,225.4 L823.4,298.0 L823.6,228.0 L823.8,335.6 L824.1,311.1 L824.3,346.1 L824.5,286.0 L824.8,267.0 L825.0,220.6 L825.2,413.4 L825.4,319.4 L825.7,304.8 L825.9,318.1 L826.1,314.1 L826.4,331.3 L826.6,324.9 L826.8,363.6 L827.0,232.7 L827.3,376.8 L827.5,248.8 L827.7,209.1 L828.0,349.1 L828.2,315.9 L828.4,412.2 L828.6,255.1 L828.9,226.4 L829.1,352.2 L829.3,344.6 L829.6,190.0 L829.8,334.9 L830.0,261.0 L830.2,356.2 L830.5,256.4 L830.7,332.0 L830.9,390.7 L831.2,398.6 L831.4,389.0 L831.6,285.2 L831.8,299.4 L832.1,288.1 L832.3,386.2 L832.5,421.0 L832.8,296.3 L833.0,327.5 L833.2,304.7 L833.4,256.7 L833.7,227.8 L833.9,287.5 L834.1,221.0 L834.4,298.5 L834.6,259.3 L834.8,395.5 L835.0,237.5 L835.3,364.2 L835.5,424.4 L835.7,360.6 L836.0,370.7 L836.2,266.2 L836.4,308.2 L836.6,297.0 L836.9,245.9 L837.1,200.3 L837.3,328.2 L837.6,297.5 L837.8,357.8 L838.0,314.3 L838.2,368.6 L838.5,280.5 L838.7,378.2 L838.9,355.4 L839.2,425.2 L839.4,325.1 L839.6,411.9 L839.8,359.3 L840.1,396.1 L840.3,297.0 L840.5,288.2 L840.7,378.2 L841.0,308.5 L841.2,407.8 L841.4,205.6 L841.7,342.7 L841.9,197.0 L842.1,194.4 L842.3,286.3 L842.6,338.3 L842.8,370.9 L843.0,252.5 L843.3,242.6 L843.5,282.1 L843.7,364.5 L843.9,418.8 L844.2,262.3 L844.4,326.2 L844.6,398.4 L844.9,381.9 L845.1,401.6 L845.3,268.0 L845.5,258.9 L845.8,303.1 L846.0,262.1 L846.2,415.3 L846.5,322.2 L846.7,220.8 L846.9,407.1 L847.1,409.3 L847.4,380.9 L847.6,209.8 L847.8,283.0 L848.1,362.9 L848.3,406.8 L848.5,393.9 L848.7,203.0 L849.0,247.3 L849.2,396.1 L849.4,247.8 L849.7,326.4 L849.9,314.9 L850.1,339.3 L850.3,249.6 L850.6,404.0 L850.8,322.3 L851.0,287.0 L851.3,414.0 L851.5,416.0 L851.7,375.7 L851.9,264.0 L852.2,394.6 L852.4,417.2 L852.6,293.5 L852.9,217.8 L853.1,395.3 L853.3,400.8 L853.5,294.8 L853.8,410.4 L854.0,224.6 L854.2,234.8 L854.5,412.8 L854.7,346.7 L854.9,253.6 L855.1,261.9 L855.4,378.7 L855.6,361.3 L855.8,392.7 L856.1,315.6 L856.3,313.7 L856.5,276.7 L856.7,302.3 L857.0,309.9 L857.2,339.6 L857.4,216.4 L857.7,215.7 L857.9,250.7 L858.1,392.4 L858.3,417.7 L858.6,414.9 L858.8,311.3 L859.0,308.4 L859.3,416.2 L859.5,410.7 L859.7,368.0 L859.9,314.8 L860.2,215.8 L860.4,224.8 L860.6,226.7 L860.8,435.4 L861.1,262.0 L861.3,309.7 L861.5,246.8 L861.8,328.8 L862.0,287.0 L862.2,304.1 L862.4,246.5 L862.7,259.0 L862.9,393.2 L863.1,429.3 L863.4,414.6 L863.6,320.2 L863.8,274.3 L864.0,221.3 L864.3,328.7 L864.5,235.6 L864.7,241.7 L865.0,429.1 L865.2,307.7 L865.4,423.8 L865.6,377.8 L865.9,257.6 L866.1,353.2 L866.3,276.7 L866.6,398.7 L866.8,369.3 L867.0,410.1 L867.2,247.1 L867.5,412.5 L867.7,394.8 L867.9,262.5 L868.2,399.6 L868.4,438.8 L868.6,380.0 L868.8,265.4 L869.1,279.8 L869.3,292.0 L869.5,386.8 L869.8,291.4 L870.0,397.7 L870.2,238.4 L870.4,355.2 L870.7,298.3 L870.9,283.5 L871.1,295.4 L871.4,322.1 L871.6,419.1 L871.8,281.0 L872.0,368.2 L872.3,303.5 L872.5,383.0 L872.7,235.8 L873.0,374.3 L873.2,329.6 L873.4,321.5 L873.6,383.4 L873.9,363.5 L874.1,298.7 L874.3,298.2 L874.6,398.4 L874.8,436.9 L875.0,282.6 L875.2,359.2 L875.5,411.1 L875.7,415.2 L875.9,316.2 L876.2,323.9 L876.4,256.1 L876.6,274.2 L876.8,400.4 L877.1,282.2 L877.3,371.5 L877.5,284.4 L877.8,292.2 L878.0,301.5 L878.2,240.0 L878.4,266.3 L878.7,309.5 L878.9,346.0 L879.1,327.1 L879.3,395.8 L879.6,328.8 L879.8,352.0 L880.0,289.7 L880.3,278.1 L880.5,357.0 L880.7,386.7 L880.9,243.2 L881.2,382.8 L881.4,378.3 L881.6,388.9 L881.9,291.3 L882.1,278.4 L882.3,352.1 L882.5,382.4 L882.8,265.6 L883.0,286.1 L883.2,360.5 L883.5,301.8 L883.7,428.3 L883.9,370.9 L884.1,299.8 L884.4,250.9 L884.6,292.1 L884.8,323.6 L885.1,389.3 L885.3,386.0 L885.5,422.8 L885.7,265.3 L886.0,289.4 L886.2,340.8 L886.4,326.8 L886.7,418.0 L886.9,258.1 L887.1,255.7 L887.3,271.9 L887.6,392.7 L887.8,258.0 L888.0,364.5 L888.3,395.5 L888.5,281.2 L888.7,292.4 L888.9,388.9 L889.2,334.4 L889.4,287.3 L889.6,347.1 L889.9,419.4 L890.1,413.9 L890.3,351.7 L890.5,275.2 L890.8,361.1 L891.0,375.1 L891.2,370.9 L891.5,312.1 L891.7,420.1 L891.9,276.8 L892.1,445.9 L892.4,377.4 L892.6,412.6 L892.8,386.9 L893.1,324.0 L893.3,376.5 L893.5,275.2 L893.7,355.3 L894.0,308.5 L894.2,419.9 L894.4,344.7 L894.7,419.4 L894.9,274.6 L895.1,286.3 L895.3,337.8 L895.6,357.9 L895.8,418.0 L896.0,329.8 L896.3,380.1 L896.5,331.5 L896.7,344.4 L896.9,329.8 L897.2,433.8 L897.4,384.4 L897.6,296.5 L897.9,366.4 L898.1,301.0 L898.3,312.1 L898.5,402.8 L898.8,398.3 L899.0,313.8 L899.2,402.1 L899.4,269.4 L899.7,309.6 L899.9,280.2 L900.1,295.4 L900.4,303.1 L900.6,346.2 L900.8,409.2 L901.0,327.3 L901.3,428.1 L901.5,383.6 L901.7,348.8 L902.0,285.6 L902.2,314.4 L902.4,351.4 L902.6,403.3 L902.9,384.8 L903.1,424.5 L903.3,421.4 L903.6,364.5 L903.8,311.2 L904.0,383.7 L904.2,323.9 L904.5,419.7 L904.7,392.5 L904.9,398.1 L905.2,343.3 L905.4,437.2 L905.6,410.1 L905.8,306.0 L906.1,300.1 L906.3,277.3 L906.5,452.1 L906.8,282.3 L907.0,409.5 L907.2,378.8 L907.4,359.7 L907.7,336.1 L907.9,302.3 L908.1,435.1 L908.4,312.9 L908.6,360.6 L908.8,326.0 L909.0,412.7 L909.3,397.3 L909.5,301.0 L909.7,316.0 L910.0,310.2 L910.2,363.9 L910.4,338.0 L910.6,365.0 L910.9,418.1 L911.1,453.5 L911.3,403.3 L911.6,400.0 L911.8,346.0 L912.0,340.1 L912.2,327.6 L912.5,422.4 L912.7,308.3 L912.9,415.1 L913.2,295.7 L913.4,382.5 L913.6,323.1 L913.8,400.0 L914.1,441.9 L914.3,349.1 L914.5,421.9 L914.8,341.2 L915.0,330.7 L915.2,442.0 L915.4,337.6 L915.7,399.3 L915.9,317.0 L916.1,303.7 L916.4,410.2 L916.6,336.3 L916.8,432.3 L917.0,293.0 L917.3,311.4 L917.5,347.6 L917.7,360.8 L918.0,293.9 L918.2,384.8 L918.4,449.0 L918.6,461.5 L918.9,325.4 L919.1,451.3 L919.3,338.6 L919.5,353.2 L919.8,427.9 L920.0,419.4 L920.2,313.6 L920.5,335.4 L920.7,423.8 L920.9,422.3 L921.1,301.6 L921.4,304.7 L921.6,314.9 L921.8,327.8 L922.1,423.9 L922.3,378.2 L922.5,342.1 L922.7,417.8 L923.0,306.4 L923.2,322.1 L923.4,341.6 L923.7,313.5 L923.9,346.0 L924.1,440.4 L924.3,401.0 L924.6,422.4 L924.8,441.6 L925.0,431.3 L925.3,335.1 L925.5,304.9 L925.7,415.6 L925.9,434.3 L926.2,363.0 L926.4,451.8 L926.6,431.3 L926.9,356.6 L927.1,321.3 L927.3,422.3 L927.5,335.5 L927.8,320.0 L928.0,452.6 L928.2,318.0 L928.5,308.0 L928.7,335.2 L928.9,388.5 L929.1,323.9 L929.4,419.5 L929.6,418.3 L929.8,399.0 L930.1,426.7 L930.3,346.3 L930.5,320.9 L930.7,389.0 L931.0,343.7 L931.2,332.0 L931.4,443.1 L931.7,402.3 L931.9,460.6 L932.1,341.8 L932.3,409.8 L932.6,366.3 L932.8,367.8 L933.0,391.1 L933.3,334.8 L933.5,407.5 L933.7,429.3 L933.9,355.2 L934.2,400.4 L934.4,428.8 L934.6,368.6 L934.9,366.5 L935.1,409.4 L935.3,421.6 L935.5,331.9 L935.8,389.2 L936.0,358.9 L936.2,409.0 L936.5,387.3 L936.7,345.9 L936.9,404.8 L937.1,411.1 L937.4,457.4 L937.6,416.9 L937.8,337.5 L938.0,342.2 L938.3,463.1 L938.5,434.7 L938.7,434.8 L939.0,425.2 L939.2,328.9 L939.4,383.0 L939.6,337.9 L939.9,341.4 L940.1,411.6 L940.3,357.5 L940.6,465.0 L940.8,415.8 L941.0,403.8 L941.2,375.9 L941.5,342.7 L941.7,364.2 L941.9,363.4 L942.2,331.6 L942.4,340.5 L942.6,372.4 L942.8,393.9 L943.1,368.0 L943.3,362.6 L943.5,334.4 L943.8,334.8 L944.0,466.4 L944.2,464.1 L944.4,399.2 L944.7,471.0 L944.9,407.0 L945.1,363.1 L945.4,391.5 L945.6,462.9 L945.8,405.5 L946.0,458.1 L946.3,377.7 L946.5,378.1 L946.7,387.9 L947.0,335.2 L947.2,421.1 L947.4,378.2 L947.6,384.3 L947.9,427.1 L948.1,441.0 L948.3,452.3 L948.6,390.5 L948.8,446.9 L949.0,400.1 L949.2,466.1 L949.5,436.5 L949.7,410.0 L949.9,419.9 L950.2,399.1 L950.4,374.6 L950.6,440.3 L950.8,465.5 L951.1,415.0 L951.3,472.2 L951.5,443.0 L951.8,357.4 L952.0,403.2 L952.2,373.3 L952.4,367.1 L952.7,418.3 L952.9,426.3 L953.1,376.1 L953.4,422.8 L953.6,441.0 L953.8,468.9 L954.0,377.2 L954.3,401.6 L954.5,458.8 L954.7,458.5 L955.0,347.0 L955.2,475.4 L955.4,359.0 L955.6,392.7 L955.9,412.2 L956.1,377.8 L956.3,356.1 L956.6,392.0 L956.8,372.2 L957.0,416.2 L957.2,458.7 L957.5,385.7 L957.7,415.9 L957.9,429.1 L958.1,452.8 L958.4,436.8 L958.6,367.9 L958.8,421.5 L959.1,444.4 L959.3,443.9 L959.5,458.1 L959.7,402.7 L960.0,370.2 L960.2,456.8 L960.4,426.2 L960.7,392.4 L960.9,415.7 L961.1,423.4 L961.3,432.0 L961.6,436.4 L961.8,418.3 L962.0,457.6 L962.3,394.0 L962.5,480.9 L962.7,384.8 L962.9,388.3 L963.2,406.3 L963.4,483.1 L963.6,475.9 L963.9,446.1 L964.1,434.5 L964.3,410.4 L964.5,421.3 L964.8,446.7 L965.0,398.3 L965.2,400.9 L965.5,470.5 L965.7,385.3 L965.9,454.9 L966.1,427.5 L966.4,399.7 L966.6,450.2 L966.8,457.8 L967.1,447.2 L967.3,397.8 L967.5,412.8 L967.7,375.7 L968.0,453.8 L968.2,468.2 L968.4,435.0 L968.7,415.1 L968.9,466.5 L969.1,462.5 L969.3,458.7 L969.6,403.0 L969.8,373.1 L970.0,410.6 L970.3,411.3 L970.5,394.2 L970.7,451.3 L970.9,397.4 L971.2,380.6 L971.4,401.0 L971.6,416.6 L971.9,373.6 L972.1,388.2 L972.3,469.7 L972.5,462.6 L972.8,395.2 L973.0,480.5 L973.2,423.0 L973.5,451.8 L973.7,459.9 L973.9,483.4 L974.1,463.0 L974.4,427.3 L974.6,461.0 L974.8,456.5 L975.1,457.1 L975.3,411.3 L975.5,406.7 L975.7,405.1 L976.0,389.1 L976.2,448.6 L976.4,458.4 L976.7,436.2 L976.9,443.2 L977.1,478.2 L977.3,454.3 L977.6,438.6 L977.8,475.7 L978.0,460.7 L978.2,446.3 L978.5,468.2 L978.7,442.8 L978.9,411.9 L979.2,488.5 L979.4,411.0 L979.6,400.3 L979.8,445.5 L980.1,430.2 L980.3,469.9 L980.5,450.5 L980.8,442.0 L981.0,477.8 L981.2,464.8 L981.4,485.2 L981.7,468.6 L981.9,390.4 L982.1,459.8 L982.4,414.6 L982.6,397.2 L982.8,427.8 L983.0,456.2 L983.3,422.0 L983.5,472.0 L983.7,425.6 L984.0,477.1 L984.2,419.4 L984.4,393.2 L984.6,413.2 L984.9,460.4 L985.1,434.1 L985.3,461.9 L985.6,394.0 L985.8,438.6 L986.0,490.7 L986.2,439.5 L986.5,416.2 L986.7,407.7 L986.9,396.8 L987.2,444.9 L987.4,444.0 L987.6,419.9 L987.8,451.7 L988.1,425.2 L988.3,461.4 L988.5,474.6 L988.8,478.1 L989.0,475.4 L989.2,445.0 L989.4,464.6 L989.7,441.4 L989.9,436.7 L990.1,466.2 L990.4,422.8 L990.6,489.8 L990.8,417.3 L991.0,479.3 L991.3,407.1 L991.5,421.7 L991.7,422.8 L992.0,407.0 L992.2,442.9 L992.4,462.5 L992.6,467.2 L992.9,459.0 L993.1,474.0 L993.3,430.2 L993.6,472.5 L993.8,406.0 L994.0,470.2 L994.2,415.1 L994.5,406.4 L994.7,492.1 L994.9,461.5 L995.2,475.7 L995.4,435.6 L995.6,428.5 L995.8,431.1 L996.1,465.0 L996.3,452.0 L996.5,420.5 L996.7,490.8 L997.0,441.9 L997.2,411.4 L997.4,439.0 L997.7,475.6 L997.9,437.7 L998.1,463.3 L998.3,454.4 L998.6,418.9 L998.8,490.3 L999.0,485.6 L999.3,481.2 L999.5,420.8 L999.7,492.8 L999.9,424.3 L1000.2,414.3 L1000.4,419.7 L1000.6,485.6 L1000.9,428.0 L1001.1,475.6 L1001.3,419.6 L1001.5,476.7 L1001.8,489.8 L1002.0,431.1 L1002.2,449.6 L1002.5,443.7 L1002.7,463.0 L1002.9,440.6 L1003.1,426.8 L1003.4,428.0 L1003.6,462.5 L1003.8,456.5 L1004.1,489.5 L1004.3,469.4 L1004.5,503.0 L1004.7,430.2 L1005.0,461.4 L1005.2,464.8 L1005.4,497.4 L1005.7,440.6 L1005.9,476.1 L1006.1,435.6 L1006.3,436.5 L1006.6,444.2 L1006.8,501.6 L1007.0,483.4 L1007.3,476.1 L1007.5,478.9 L1007.7,500.2 L1007.9,501.0 L1008.2,436.2 L1008.4,498.4 L1008.6,437.6 L1008.9,487.7 L1009.1,468.8 L1009.3,501.4 L1009.5,467.4 L1009.8,502.1 L1010.0,482.4 L1010.2,434.8 L1010.5,486.3 L1010.7,455.1 L1010.9,498.3 L1011.1,498.7 L1011.4,453.8 L1011.6,488.7 L1011.8,497.1 L1012.1,456.8 L1012.3,452.4 L1012.5,471.8 L1012.7,459.4 L1013.0,433.5 L1013.2,477.1 L1013.4,459.2 L1013.7,472.1 L1013.9,499.5 L1014.1,442.2 L1014.3,481.7 L1014.6,498.1 L1014.8,459.8 L1015.0,483.4 L1015.3,466.1 L1015.5,477.2 L1015.7,464.6 L1015.9,485.2 L1016.2,442.7 L1016.4,508.1 L1016.6,501.4 L1016.8,471.2 L1017.1,457.6 L1017.3,455.5 L1017.5,461.6 L1017.8,480.5 L1018.0,471.7 L1018.2,471.0 L1018.4,483.5 L1018.7,496.7 L1018.9,456.4 L1019.1,457.4 L1019.4,461.0 L1019.6,446.0 L1019.8,450.4 L1020.0,469.9 L1020.3,508.7 L1020.5,488.7 L1020.7,501.0 L1021.0,503.9 L1021.2,475.1 L1021.4,499.0 L1021.6,485.3 L1021.9,473.1 L1022.1,477.7 L1022.3,493.5 L1022.6,458.3 L1022.8,477.1 L1023.0,497.6 L1023.2,455.6 L1023.5,452.8 L1023.7,454.9 L1023.9,458.7 L1024.2,495.9 L1024.4,459.7 L1024.6,497.2 L1024.8,495.2 L1025.1,512.4 L1025.3,453.5 L1025.5,495.8 L1025.8,500.3 L1026.0,457.1 L1026.2,459.5 L1026.4,474.3 L1026.7,503.6 L1026.9,473.3 L1027.1,492.7 L1027.4,477.5 L1027.6,512.7 L1027.8,475.0 L1028.0,460.4 L1028.3,490.2 L1028.5,503.3 L1028.7,474.2 L1029.0,484.4 L1029.2,470.9 L1029.4,506.6 L1029.6,466.7 L1029.9,515.6 L1030.1,481.7 L1030.3,505.7 L1030.6,511.7 L1030.8,511.2 L1031.0,478.0 L1031.2,471.5 L1031.5,492.7 L1031.7,506.4 L1031.9,494.9 L1032.2,473.7 L1032.4,473.5 L1032.6,500.3 L1032.8,507.8 L1033.1,489.9 L1033.3,502.3 L1033.5,509.4 L1033.8,494.9 L1034.0,464.6 L1034.2,471.0 L1034.4,479.1 L1034.7,515.6 L1034.9,504.8 L1035.1,478.0 L1035.3,484.6 L1035.6,486.8 L1035.8,510.6 L1036.0,473.9 L1036.3,496.2 L1036.5,505.1 L1036.7,481.6 L1036.9,488.0 L1037.2,489.3 L1037.4,484.3 L1037.6,509.8 L1037.9,495.4 L1038.1,492.7 L1038.3,490.9 L1038.5,500.2 L1038.8,505.5 L1039.0,509.1 L1039.2,501.2 L1039.5,478.0 L1039.7,518.3 L1039.9,520.6 L1040.1,508.9 L1040.4,499.4 L1040.6,506.4 L1040.8,502.9 L1041.1,478.2 L1041.3,486.0 L1041.5,504.4 L1041.7,517.5 L1042.0,482.9 L1042.2,509.1 L1042.4,498.1 L1042.7,478.8 L1042.9,499.4 L1043.1,513.3 L1043.3,510.9 L1043.6,519.5 L1043.8,499.8 L1044.0,487.3 L1044.3,490.3 L1044.5,518.5 L1044.7,505.1 L1044.9,523.8 L1045.2,506.4 L1045.4,493.6 L1045.6,513.9 L1045.9,521.5 L1046.1,497.3 L1046.3,485.9 L1046.5,506.0 L1046.8,495.4 L1047.0,514.4 L1047.2,515.1 L1047.5,517.7 L1047.7,502.1 L1047.9,518.6 L1048.1,490.2 L1048.4,508.9 L1048.6,522.3 L1048.8,499.5 L1049.1,488.7 L1049.3,497.8 L1049.5,502.5 L1049.7,494.1 L1050.0,504.9 L1050.2,521.5 L1050.4,522.3 L1050.7,520.9 L1050.9,514.1 L1051.1,512.4 L1051.3,513.5 L1051.6,515.9 L1051.8,527.1 L1052.0,497.2 L1052.3,498.4 L1052.5,524.1 L1052.7,501.4 L1052.9,497.9 L1053.2,517.4 L1053.4,497.3 L1053.6,505.5 L1053.9,495.1 L1054.1,504.7 L1054.3,502.8 L1054.5,506.4 L1054.8,500.4 L1055.0,509.5 L1055.2,518.4 L1055.4,510.1 L1055.7,503.5 L1055.9,530.0 L1056.1,527.1 L1056.4,504.6 L1056.6,528.5 L1056.8,516.2 L1057.0,527.0 L1057.3,509.6 L1057.5,523.3 L1057.7,511.3 L1058.0,523.1 L1058.2,524.6 L1058.4,521.0 L1058.6,511.7 L1058.9,530.7 L1059.1,510.7 L1059.3,504.8 L1059.6,517.7 L1059.8,518.1 L1060.0,504.5 L1060.2,527.1 L1060.5,526.8 L1060.7,507.5 L1060.9,523.0 L1061.2,512.4 L1061.4,527.5 L1061.6,524.2 L1061.8,519.0 L1062.1,512.9 L1062.3,513.0 L1062.5,521.0 L1062.8,513.4 L1063.0,512.6 L1063.2,516.6 L1063.4,522.3 L1063.7,515.6 L1063.9,517.1 L1064.1,520.6 L1064.4,512.8 L1064.6,514.0 L1064.8,529.9 L1065.0,518.1 L1065.3,517.1 L1065.5,522.2 L1065.7,519.4 L1066.0,522.7 L1066.2,535.1 L1066.4,514.5 L1066.6,526.2 L1066.9,533.1 L1067.1,525.9 L1067.3,515.6 L1067.6,519.8 L1067.8,518.8 L1068.0,534.5 L1068.2,519.0 L1068.5,518.8 L1068.7,523.0 L1068.9,530.4 L1069.2,526.4 L1069.4,534.8 L1069.6,532.2 L1069.8,526.2 L1070.1,536.0 L1070.3,529.7 L1070.5,521.3 L1070.8,532.8 L1071.0,530.0 L1071.2,531.5 L1071.4,536.5 L1071.7,523.9 L1071.9,522.4 L1072.1,537.4 L1072.4,535.1 L1072.6,537.1 L1072.8,530.7 L1073.0,531.9 L1073.3,534.9 L1073.5,530.8 L1073.7,534.0 L1074.0,530.7 L1074.2,535.4 L1074.4,536.2 L1074.6,533.2 L1074.9,527.7 L1075.1,535.9 L1075.3,530.8 L1075.5,528.3 L1075.8,534.9 L1076.0,540.1 L1076.2,535.0 L1076.5,534.1 L1076.7,533.2 L1076.9,537.0 L1077.1,538.3 L1077.4,535.8 L1077.6,534.9 L1077.8,540.4 L1078.1,537.0 L1078.3,536.6 L1078.5,538.1 L1078.7,535.1 L1079.0,536.1 L1079.2,540.5 L1079.4,534.3 L1079.7,541.8 L1079.9,538.5 L1080.1,538.6 L1080.3,541.2 L1080.6,536.0 L1080.8,542.2 L1081.0,538.6 L1081.3,541.1 L1081.5,538.4 L1081.7,543.0 L1081.9,542.9 L1082.2,541.2 L1082.4,542.5 L1082.6,541.9 L1082.9,543.9 L1083.1,541.3 L1083.3,541.3 L1083.5,542.9 L1083.8,543.0 L1084.0,542.4" fill="none" stroke="#1f77b4" stroke-width="1.4" opacity="0.85"/><text x="1040" y="54" fill="#ff7f0e" font-size="11">roll 1</text><text x="1090" y="558" fill="#ff7f0e" font-size="11">-1</text><path d="M616.0,169.6 L616.2,356.8 L616.5,200.8 L616.7,263.2 L616.9,263.2 L617.1,325.6 L617.4,294.4 L617.6,200.8 L617.8,450.4 L618.1,356.8 L618.3,325.6 L618.5,169.6 L618.7,325.6 L619.0,232.0 L619.2,325.6 L619.4,294.4 L619.7,169.6 L619.9,419.2 L620.1,325.6 L620.3,481.6 L620.6,419.2 L620.8,356.8 L621.0,232.0 L621.3,294.4 L621.5,200.8 L621.7,356.8 L621.9,200.8 L622.2,232.0 L622.4,419.2 L622.6,419.2 L622.9,481.6 L623.1,450.4 L623.3,356.8 L623.5,419.2 L623.8,232.0 L624.0,294.4 L624.2,200.8 L624.5,481.6 L624.7,169.6 L624.9,388.0 L625.1,388.0 L625.4,481.6 L625.6,325.6 L625.8,450.4 L626.0,388.0 L626.3,356.8 L626.5,356.8 L626.7,356.8 L627.0,325.6 L627.2,325.6 L627.4,419.2 L627.6,419.2 L627.9,388.0 L628.1,169.6 L628.3,232.0 L628.6,325.6 L628.8,356.8 L629.0,169.6 L629.2,356.8 L629.5,481.6 L629.7,419.2 L629.9,419.2 L630.2,200.8 L630.4,232.0 L630.6,200.8 L630.8,325.6 L631.1,200.8 L631.3,356.8 L631.5,450.4 L631.8,388.0 L632.0,325.6 L632.2,388.0 L632.4,232.0 L632.7,356.8 L632.9,263.2 L633.1,263.2 L633.4,169.6 L633.6,325.6 L633.8,481.6 L634.0,325.6 L634.3,481.6 L634.5,200.8 L634.7,388.0 L635.0,356.8 L635.2,356.8 L635.4,419.2 L635.6,169.6 L635.9,200.8 L636.1,419.2 L636.3,356.8 L636.6,263.2 L636.8,356.8 L637.0,294.4 L637.2,263.2 L637.5,263.2 L637.7,356.8 L637.9,388.0 L638.2,294.4 L638.4,232.0 L638.6,388.0 L638.8,325.6 L639.1,263.2 L639.3,169.6 L639.5,232.0 L639.8,481.6 L640.0,325.6 L640.2,450.4 L640.4,356.8 L640.7,325.6 L640.9,481.6 L641.1,294.4 L641.4,169.6 L641.6,200.8 L641.8,419.2 L642.0,200.8 L642.3,450.4 L642.5,200.8 L642.7,388.0 L643.0,325.6 L643.2,325.6 L643.4,450.4 L643.6,263.2 L643.9,481.6 L644.1,294.4 L644.3,419.2 L644.6,481.6 L644.8,481.6 L645.0,325.6 L645.2,200.8 L645.5,356.8 L645.7,294.4 L645.9,419.2 L646.1,388.0 L646.4,263.2 L646.6,294.4 L646.8,450.4 L647.1,450.4 L647.3,263.2 L647.5,232.0 L647.7,356.8 L648.0,450.4 L648.2,294.4 L648.4,294.4 L648.7,450.4 L648.9,419.2 L649.1,325.6 L649.3,388.0 L649.6,388.0 L649.8,232.0 L650.0,419.2 L650.3,419.2 L650.5,356.8 L650.7,388.0 L650.9,169.6 L651.2,356.8 L651.4,263.2 L651.6,294.4 L651.9,263.2 L652.1,325.6 L652.3,232.0 L652.5,294.4 L652.8,325.6 L653.0,388.0 L653.2,419.2 L653.5,450.4 L653.7,325.6 L653.9,325.6 L654.1,232.0 L654.4,481.6 L654.6,232.0 L654.8,325.6 L655.1,450.4 L655.3,263.2 L655.5,450.4 L655.7,200.8 L656.0,294.4 L656.2,325.6 L656.4,419.2 L656.7,232.0 L656.9,232.0 L657.1,325.6 L657.3,200.8 L657.6,450.4 L657.8,356.8 L658.0,263.2 L658.3,419.2 L658.5,294.4 L658.7,294.4 L658.9,481.6 L659.2,450.4 L659.4,294.4 L659.6,325.6 L659.9,232.0 L660.1,200.8 L660.3,481.6 L660.5,481.6 L660.8,481.6 L661.0,325.6 L661.2,419.2 L661.5,200.8 L661.7,325.6 L661.9,232.0 L662.1,388.0 L662.4,294.4 L662.6,263.2 L662.8,263.2 L663.1,419.2 L663.3,263.2 L663.5,450.4 L663.7,450.4 L664.0,169.6 L664.2,419.2 L664.4,356.8 L664.7,169.6 L664.9,232.0 L665.1,450.4 L665.3,450.4 L665.6,388.0 L665.8,294.4 L666.0,232.0 L666.2,419.2 L666.5,419.2 L666.7,419.2 L666.9,232.0 L667.2,232.0 L667.4,263.2 L667.6,200.8 L667.8,388.0 L668.1,419.2 L668.3,294.4 L668.5,388.0 L668.8,200.8 L669.0,325.6 L669.2,450.4 L669.4,169.6 L669.7,388.0 L669.9,294.4 L670.1,356.8 L670.4,294.4 L670.6,200.8 L670.8,263.2 L671.0,232.0 L671.3,263.2 L671.5,325.6 L671.7,325.6 L672.0,325.6 L672.2,325.6 L672.4,232.0 L672.6,450.4 L672.9,481.6 L673.1,294.4 L673.3,419.2 L673.6,325.6 L673.8,450.4 L674.0,388.0 L674.2,200.8 L674.5,356.8 L674.7,419.2 L674.9,200.8 L675.2,232.0 L675.4,356.8 L675.6,232.0 L675.8,325.6 L676.1,169.6 L676.3,325.6 L676.5,200.8 L676.8,263.2 L677.0,294.4 L677.2,356.8 L677.4,419.2 L677.7,263.2 L677.9,450.4 L678.1,419.2 L678.4,419.2 L678.6,200.8 L678.8,200.8 L679.0,481.6 L679.3,232.0 L679.5,388.0 L679.7,263.2 L680.0,356.8 L680.2,356.8 L680.4,263.2 L680.6,325.6 L680.9,232.0 L681.1,388.0 L681.3,294.4 L681.6,325.6 L681.8,169.6 L682.0,263.2 L682.2,325.6 L682.5,388.0 L682.7,294.4 L682.9,263.2 L683.2,294.4 L683.4,169.6 L683.6,450.4 L683.8,169.6 L684.1,232.0 L684.3,232.0 L684.5,232.0 L684.7,481.6 L685.0,419.2 L685.2,263.2 L685.4,263.2 L685.7,419.2 L685.9,450.4 L686.1,388.0 L686.3,356.8 L686.6,481.6 L686.8,419.2 L687.0,325.6 L687.3,232.0 L687.5,200.8 L687.7,325.6 L687.9,356.8 L688.2,388.0 L688.4,200.8 L688.6,544.0 L688.9,169.6 L689.1,356.8 L689.3,325.6 L689.5,419.2 L689.8,325.6 L690.0,263.2 L690.2,232.0 L690.5,481.6 L690.7,325.6 L690.9,450.4 L691.1,263.2 L691.4,512.8 L691.6,419.2 L691.8,169.6 L692.1,419.2 L692.3,232.0 L692.5,356.8 L692.7,419.2 L693.0,388.0 L693.2,388.0 L693.4,232.0 L693.7,450.4 L693.9,294.4 L694.1,263.2 L694.3,481.6 L694.6,107.2 L694.8,544.0 L695.0,107.2 L695.3,263.2 L695.5,419.2 L695.7,232.0 L695.9,325.6 L696.2,169.6 L696.4,232.0 L696.6,419.2 L696.9,356.8 L697.1,263.2 L697.3,512.8 L697.5,138.4 L697.8,481.6 L698.0,450.4 L698.2,419.2 L698.5,263.2 L698.7,325.6 L698.9,232.0 L699.1,481.6 L699.4,325.6 L699.6,232.0 L699.8,419.2 L700.1,450.4 L700.3,200.8 L700.5,232.0 L700.7,325.6 L701.0,263.2 L701.2,419.2 L701.4,325.6 L701.7,419.2 L701.9,138.4 L702.1,512.8 L702.3,200.8 L702.6,419.2 L702.8,325.6 L703.0,325.6 L703.3,325.6 L703.5,294.4 L703.7,325.6 L703.9,450.4 L704.2,138.4 L704.4,263.2 L704.6,232.0 L704.8,200.8 L705.1,481.6 L705.3,232.0 L705.5,356.8 L705.8,200.8 L706.0,512.8 L706.2,232.0 L706.4,388.0 L706.7,419.2 L706.9,450.4 L707.1,263.2 L707.4,356.8 L707.6,325.6 L707.8,481.6 L708.0,200.8 L708.3,325.6 L708.5,263.2 L708.7,232.0 L709.0,388.0 L709.2,419.2 L709.4,200.8 L709.6,200.8 L709.9,512.8 L710.1,419.2 L710.3,169.6 L710.6,325.6 L710.8,419.2 L711.0,200.8 L711.2,232.0 L711.5,200.8 L711.7,263.2 L711.9,263.2 L712.2,294.4 L712.4,356.8 L712.6,200.8 L712.8,356.8 L713.1,419.2 L713.3,325.6 L713.5,450.4 L713.8,388.0 L714.0,356.8 L714.2,263.2 L714.4,232.0 L714.7,263.2 L714.9,356.8 L715.1,263.2 L715.4,263.2 L715.6,388.0 L715.8,419.2 L716.0,294.4 L716.3,294.4 L716.5,356.8 L716.7,356.8 L717.0,294.4 L717.2,450.4 L717.4,200.8 L717.6,388.0 L717.9,450.4 L718.1,169.6 L718.3,356.8 L718.6,294.4 L718.8,481.6 L719.0,138.4 L719.2,232.0 L719.5,263.2 L719.7,263.2 L719.9,356.8 L720.2,481.6 L720.4,169.6 L720.6,450.4 L720.8,232.0 L721.1,356.8 L721.3,419.2 L721.5,232.0 L721.8,356.8 L722.0,263.2 L722.2,263.2 L722.4,325.6 L722.7,200.8 L722.9,512.8 L723.1,388.0 L723.3,325.6 L723.6,263.2 L723.8,200.8 L724.0,325.6 L724.3,200.8 L724.5,512.8 L724.7,419.2 L724.9,419.2 L725.2,325.6 L725.4,388.0 L725.6,263.2 L725.9,200.8 L726.1,450.4 L726.3,294.4 L726.5,481.6 L726.8,325.6 L727.0,263.2 L727.2,388.0 L727.5,200.8 L727.7,481.6 L727.9,107.2 L728.1,512.8 L728.4,200.8 L728.6,450.4 L728.8,200.8 L729.1,388.0 L729.3,356.8 L729.5,325.6 L729.7,232.0 L730.0,232.0 L730.2,200.8 L730.4,200.8 L730.7,232.0 L730.9,294.4 L731.1,294.4 L731.3,419.2 L731.6,388.0 L731.8,356.8 L732.0,232.0 L732.3,325.6 L732.5,294.4 L732.7,356.8 L732.9,356.8 L733.2,388.0 L733.4,388.0 L733.6,232.0 L733.9,232.0 L734.1,200.8 L734.3,325.6 L734.5,388.0 L734.8,450.4 L735.0,263.2 L735.2,450.4 L735.5,388.0 L735.7,169.6 L735.9,200.8 L736.1,294.4 L736.4,450.4 L736.6,263.2 L736.8,481.6 L737.1,263.2 L737.3,232.0 L737.5,450.4 L737.7,138.4 L738.0,356.8 L738.2,325.6 L738.4,388.0 L738.7,356.8 L738.9,388.0 L739.1,388.0 L739.3,200.8 L739.6,388.0 L739.8,138.4 L740.0,419.2 L740.3,294.4 L740.5,232.0 L740.7,325.6 L740.9,419.2 L741.2,356.8 L741.4,450.4 L741.6,356.8 L741.9,138.4 L742.1,419.2 L742.3,138.4 L742.5,388.0 L742.8,169.6 L743.0,481.6 L743.2,232.0 L743.4,388.0 L743.7,450.4 L743.9,419.2 L744.1,356.8 L744.4,294.4 L744.6,232.0 L744.8,200.8 L745.0,200.8 L745.3,450.4 L745.5,232.0 L745.7,294.4 L746.0,294.4 L746.2,232.0 L746.4,356.8 L746.6,356.8 L746.9,263.2 L747.1,388.0 L747.3,325.6 L747.6,263.2 L747.8,200.8 L748.0,200.8 L748.2,450.4 L748.5,325.6 L748.7,232.0 L748.9,294.4 L749.2,356.8 L749.4,356.8 L749.6,325.6 L749.8,450.4 L750.1,200.8 L750.3,481.6 L750.5,388.0 L750.8,388.0 L751.0,356.8 L751.2,263.2 L751.4,232.0 L751.7,294.4 L751.9,419.2 L752.1,419.2 L752.4,450.4 L752.6,263.2 L752.8,263.2 L753.0,481.6 L753.3,232.0 L753.5,169.6 L753.7,512.8 L754.0,263.2 L754.2,294.4 L754.4,294.4 L754.6,419.2 L754.9,388.0 L755.1,450.4 L755.3,419.2 L755.6,325.6 L755.8,232.0 L756.0,450.4 L756.2,294.4 L756.5,294.4 L756.7,169.6 L756.9,419.2 L757.2,388.0 L757.4,200.8 L757.6,356.8 L757.8,388.0 L758.1,200.8 L758.3,450.4 L758.5,138.4 L758.8,388.0 L759.0,388.0 L759.2,388.0 L759.4,356.8 L759.7,294.4 L759.9,169.6 L760.1,232.0 L760.4,450.4 L760.6,232.0 L760.8,419.2 L761.0,200.8 L761.3,388.0 L761.5,356.8 L761.7,232.0 L762.0,356.8 L762.2,388.0 L762.4,325.6 L762.6,294.4 L762.9,294.4 L763.1,169.6 L763.3,356.8 L763.5,450.4 L763.8,263.2 L764.0,481.6 L764.2,232.0 L764.5,481.6 L764.7,107.2 L764.9,512.8 L765.1,200.8 L765.4,450.4 L765.6,138.4 L765.8,388.0 L766.1,263.2 L766.3,200.8 L766.5,356.8 L766.7,450.4 L767.0,356.8 L767.2,169.6 L767.4,481.6 L767.7,388.0 L767.9,232.0 L768.1,419.2 L768.3,200.8 L768.6,388.0 L768.8,169.6 L769.0,512.8 L769.3,263.2 L769.5,325.6 L769.7,263.2 L769.9,232.0 L770.2,481.6 L770.4,138.4 L770.6,263.2 L770.9,419.2 L771.1,450.4 L771.3,294.4 L771.5,388.0 L771.8,169.6 L772.0,481.6 L772.2,450.4 L772.5,450.4 L772.7,388.0 L772.9,169.6 L773.1,481.6 L773.4,325.6 L773.6,263.2 L773.8,325.6 L774.1,294.4 L774.3,325.6 L774.5,263.2 L774.7,419.2 L775.0,450.4 L775.2,232.0 L775.4,450.4 L775.7,263.2 L775.9,481.6 L776.1,263.2 L776.3,388.0 L776.6,138.4 L776.8,325.6 L777.0,263.2 L777.3,450.4 L777.5,263.2 L777.7,356.8 L777.9,388.0 L778.2,169.6 L778.4,263.2 L778.6,450.4 L778.9,263.2 L779.1,356.8 L779.3,325.6 L779.5,232.0 L779.8,263.2 L780.0,294.4 L780.2,263.2 L780.5,481.6 L780.7,294.4 L780.9,232.0 L781.1,356.8 L781.4,325.6 L781.6,450.4 L781.8,294.4 L782.0,325.6 L782.3,419.2 L782.5,294.4 L782.7,481.6 L783.0,169.6 L783.2,325.6 L783.4,294.4 L783.6,481.6 L783.9,294.4 L784.1,481.6 L784.3,107.2 L784.6,263.2 L784.8,325.6 L785.0,325.6 L785.2,388.0 L785.5,232.0 L785.7,450.4 L785.9,200.8 L786.2,200.8 L786.4,544.0 L786.6,169.6 L786.8,544.0 L787.1,450.4 L787.3,356.8 L787.5,356.8 L787.8,388.0 L788.0,263.2 L788.2,388.0 L788.4,325.6 L788.7,325.6 L788.9,325.6 L789.1,450.4 L789.4,325.6 L789.6,450.4 L789.8,200.8 L790.0,294.4 L790.3,200.8 L790.5,481.6 L790.7,356.8 L791.0,232.0 L791.2,294.4 L791.4,419.2 L791.6,232.0 L791.9,512.8 L792.1,169.6 L792.3,200.8 L792.6,232.0 L792.8,481.6 L793.0,325.6 L793.2,388.0 L793.5,325.6 L793.7,450.4 L793.9,200.8 L794.2,544.0 L794.4,263.2 L794.6,200.8 L794.8,263.2 L795.1,232.0 L795.3,481.6 L795.5,450.4 L795.8,200.8 L796.0,232.0 L796.2,388.0 L796.4,294.4 L796.7,356.8 L796.9,200.8 L797.1,200.8 L797.4,263.2 L797.6,450.4 L797.8,200.8 L798.0,512.8 L798.3,263.2 L798.5,481.6 L798.7,263.2 L799.0,356.8 L799.2,169.6 L799.4,200.8 L799.6,544.0 L799.9,138.4 L800.1,232.0 L800.3,419.2 L800.6,419.2 L800.8,419.2 L801.0,450.4 L801.2,356.8 L801.5,388.0 L801.7,388.0 L801.9,263.2 L802.1,169.6 L802.4,200.8 L802.6,388.0 L802.8,450.4 L803.1,200.8 L803.3,419.2 L803.5,356.8 L803.7,294.4 L804.0,263.2 L804.2,325.6 L804.4,481.6 L804.7,138.4 L804.9,263.2 L805.1,388.0 L805.3,232.0 L805.6,263.2 L805.8,512.8 L806.0,450.4 L806.3,232.0 L806.5,325.6 L806.7,388.0 L806.9,419.2 L807.2,356.8 L807.4,263.2 L807.6,388.0 L807.9,356.8 L808.1,419.2 L808.3,356.8 L808.5,450.4 L808.8,450.4 L809.0,169.6 L809.2,481.6 L809.5,263.2 L809.7,263.2 L809.9,263.2 L810.1,325.6 L810.4,325.6 L810.6,169.6 L810.8,263.2 L811.1,232.0 L811.3,325.6 L811.5,388.0 L811.7,388.0 L812.0,388.0 L812.2,356.8 L812.4,263.2 L812.7,263.2 L812.9,356.8 L813.1,325.6 L813.3,294.4 L813.6,481.6 L813.8,419.2 L814.0,200.8 L814.3,512.8 L814.5,169.6 L814.7,263.2 L814.9,325.6 L815.2,232.0 L815.4,481.6 L815.6,169.6 L815.9,263.2 L816.1,481.6 L816.3,419.2 L816.5,232.0 L816.8,481.6 L817.0,294.4 L817.2,200.8 L817.5,356.8 L817.7,169.6 L817.9,544.0 L818.1,76.0 L818.4,294.4 L818.6,481.6 L818.8,263.2 L819.1,356.8 L819.3,388.0 L819.5,200.8 L819.7,356.8 L820.0,200.8 L820.2,263.2 L820.4,450.4 L820.7,232.0 L820.9,512.8 L821.1,232.0 L821.3,512.8 L821.6,419.2 L821.8,450.4 L822.0,232.0 L822.2,263.2 L822.5,325.6 L822.7,232.0 L822.9,419.2 L823.2,356.8 L823.4,419.2 L823.6,263.2 L823.8,419.2 L824.1,263.2 L824.3,294.4 L824.5,200.8 L824.8,388.0 L825.0,388.0 L825.2,232.0 L825.4,481.6 L825.7,388.0 L825.9,200.8 L826.1,512.8 L826.4,138.4 L826.6,200.8 L826.8,450.4 L827.0,388.0 L827.3,356.8 L827.5,169.6 L827.7,232.0 L828.0,232.0 L828.2,200.8 L828.4,481.6 L828.6,325.6 L828.9,481.6 L829.1,107.2 L829.3,200.8 L829.6,388.0 L829.8,263.2 L830.0,544.0 L830.2,200.8 L830.5,356.8 L830.7,419.2 L830.9,232.0 L831.2,356.8 L831.4,263.2 L831.6,481.6 L831.8,232.0 L832.1,450.4 L832.3,232.0 L832.5,388.0 L832.8,388.0 L833.0,356.8 L833.2,356.8 L833.4,388.0 L833.7,325.6 L833.9,388.0 L834.1,325.6 L834.4,419.2 L834.6,169.6 L834.8,294.4 L835.0,325.6 L835.3,294.4 L835.5,388.0 L835.7,294.4 L836.0,263.2 L836.2,512.8 L836.4,232.0 L836.6,450.4 L836.9,232.0 L837.1,232.0 L837.3,356.8 L837.6,450.4 L837.8,232.0 L838.0,450.4 L838.2,325.6 L838.5,232.0 L838.7,388.0 L838.9,388.0 L839.2,356.8 L839.4,169.6 L839.6,200.8 L839.8,325.6 L840.1,232.0 L840.3,294.4 L840.5,263.2 L840.7,325.6 L841.0,419.2 L841.2,169.6 L841.4,419.2 L841.7,294.4 L841.9,200.8 L842.1,200.8 L842.3,325.6 L842.6,356.8 L842.8,263.2 L843.0,200.8 L843.3,481.6 L843.5,200.8 L843.7,388.0 L843.9,200.8 L844.2,481.6 L844.4,356.8 L844.6,419.2 L844.9,419.2 L845.1,263.2 L845.3,294.4 L845.5,481.6 L845.8,263.2 L846.0,232.0 L846.2,263.2 L846.5,263.2 L846.7,294.4 L846.9,294.4 L847.1,450.4 L847.4,232.0 L847.6,450.4 L847.8,388.0 L848.1,263.2 L848.3,481.6 L848.5,138.4 L848.7,419.2 L849.0,325.6 L849.2,481.6 L849.4,232.0 L849.7,450.4 L849.9,356.8 L850.1,325.6 L850.3,388.0 L850.6,356.8 L850.8,481.6 L851.0,232.0 L851.3,450.4 L851.5,450.4 L851.7,325.6 L851.9,294.4 L852.2,419.2 L852.4,294.4 L852.6,356.8 L852.9,388.0 L853.1,232.0 L853.3,388.0 L853.5,232.0 L853.8,450.4 L854.0,419.2 L854.2,169.6 L854.5,200.8 L854.7,294.4 L854.9,169.6 L855.1,388.0 L855.4,388.0 L855.6,263.2 L855.8,356.8 L856.1,325.6 L856.3,200.8 L856.5,232.0 L856.7,388.0 L857.0,232.0 L857.2,232.0 L857.4,450.4 L857.7,419.2 L857.9,263.2 L858.1,325.6 L858.3,419.2 L858.6,200.8 L858.8,294.4 L859.0,450.4 L859.3,263.2 L859.5,263.2 L859.7,263.2 L859.9,388.0 L860.2,450.4 L860.4,138.4 L860.6,419.2 L860.8,169.6 L861.1,481.6 L861.3,356.8 L861.5,356.8 L861.8,263.2 L862.0,512.8 L862.2,419.2 L862.4,138.4 L862.7,232.0 L862.9,200.8 L863.1,200.8 L863.4,419.2 L863.6,232.0 L863.8,294.4 L864.0,419.2 L864.3,450.4 L864.5,419.2 L864.7,325.6 L865.0,325.6 L865.2,200.8 L865.4,232.0 L865.6,325.6 L865.9,481.6 L866.1,138.4 L866.3,544.0 L866.6,200.8 L866.8,512.8 L867.0,419.2 L867.2,232.0 L867.5,232.0 L867.7,294.4 L867.9,232.0 L868.2,356.8 L868.4,169.6 L868.6,388.0 L868.8,294.4 L869.1,294.4 L869.3,388.0 L869.5,263.2 L869.8,294.4 L870.0,388.0 L870.2,419.2 L870.4,450.4 L870.7,356.8 L870.9,200.8 L871.1,294.4 L871.4,232.0 L871.6,481.6 L871.8,294.4 L872.0,356.8 L872.3,419.2 L872.5,388.0 L872.7,294.4 L873.0,200.8 L873.2,388.0 L873.4,294.4 L873.6,481.6 L873.9,356.8 L874.1,232.0 L874.3,169.6 L874.6,200.8 L874.8,450.4 L875.0,263.2 L875.2,481.6 L875.5,356.8 L875.7,169.6 L875.9,325.6 L876.2,232.0 L876.4,481.6 L876.6,169.6 L876.8,263.2 L877.1,263.2 L877.3,232.0 L877.5,450.4 L877.8,450.4 L878.0,169.6 L878.2,294.4 L878.4,263.2 L878.7,325.6 L878.9,294.4 L879.1,481.6 L879.3,388.0 L879.6,325.6 L879.8,419.2 L880.0,294.4 L880.3,325.6 L880.5,263.2 L880.7,450.4 L880.9,388.0 L881.2,356.8 L881.4,263.2 L881.6,325.6 L881.9,481.6 L882.1,356.8 L882.3,325.6 L882.5,450.4 L882.8,325.6 L883.0,200.8 L883.2,356.8 L883.5,232.0 L883.7,263.2 L883.9,356.8 L884.1,419.2 L884.4,169.6 L884.6,419.2 L884.8,450.4 L885.1,263.2 L885.3,356.8 L885.5,325.6 L885.7,200.8 L886.0,450.4 L886.2,232.0 L886.4,294.4 L886.7,294.4 L886.9,388.0 L887.1,200.8 L887.3,356.8 L887.6,450.4 L887.8,388.0 L888.0,263.2 L888.3,232.0 L888.5,294.4 L888.7,263.2 L888.9,232.0 L889.2,388.0 L889.4,200.8 L889.6,325.6 L889.9,232.0 L890.1,512.8 L890.3,450.4 L890.5,169.6 L890.8,200.8 L891.0,294.4 L891.2,200.8 L891.5,294.4 L891.7,419.2 L891.9,356.8 L892.1,232.0 L892.4,325.6 L892.6,388.0 L892.8,481.6 L893.1,325.6 L893.3,388.0 L893.5,294.4 L893.7,325.6 L894.0,294.4 L894.2,169.6 L894.4,356.8 L894.7,294.4 L894.9,388.0 L895.1,450.4 L895.3,232.0 L895.6,263.2 L895.8,325.6 L896.0,294.4 L896.3,481.6 L896.5,325.6 L896.7,263.2 L896.9,325.6 L897.2,419.2 L897.4,356.8 L897.6,356.8 L897.9,263.2 L898.1,388.0 L898.3,356.8 L898.5,325.6 L898.8,294.4 L899.0,200.8 L899.2,512.8 L899.4,388.0 L899.7,263.2 L899.9,356.8 L900.1,450.4 L900.4,419.2 L900.6,356.8 L900.8,388.0 L901.0,138.4 L901.3,512.8 L901.5,169.6 L901.7,419.2 L902.0,138.4 L902.2,450.4 L902.4,450.4 L902.6,200.8 L902.9,325.6 L903.1,356.8 L903.3,388.0 L903.6,388.0 L903.8,419.2 L904.0,294.4 L904.2,200.8 L904.5,388.0 L904.7,481.6 L904.9,325.6 L905.2,419.2 L905.4,200.8 L905.6,450.4 L905.8,450.4 L906.1,169.6 L906.3,294.4 L906.5,481.6 L906.8,325.6 L907.0,325.6 L907.2,450.4 L907.4,263.2 L907.7,450.4 L907.9,450.4 L908.1,294.4 L908.4,481.6 L908.6,325.6 L908.8,232.0 L909.0,325.6 L909.3,200.8 L909.5,388.0 L909.7,388.0 L910.0,325.6 L910.2,356.8 L910.4,450.4 L910.6,450.4 L910.9,107.2 L911.1,294.4 L911.3,325.6 L911.6,294.4 L911.8,356.8 L912.0,325.6 L912.2,232.0 L912.5,294.4 L912.7,200.8 L912.9,419.2 L913.2,419.2 L913.4,356.8 L913.6,232.0 L913.8,200.8 L914.1,481.6 L914.3,356.8 L914.5,450.4 L914.8,138.4 L915.0,263.2 L915.2,388.0 L915.4,263.2 L915.7,294.4 L915.9,232.0 L916.1,200.8 L916.4,294.4 L916.6,388.0 L916.8,232.0 L917.0,232.0 L917.3,419.2 L917.5,232.0 L917.7,294.4 L918.0,388.0 L918.2,450.4 L918.4,356.8 L918.6,294.4 L918.9,356.8 L919.1,419.2 L919.3,200.8 L919.5,481.6 L919.8,107.2 L920.0,294.4 L920.2,419.2 L920.5,200.8 L920.7,481.6 L920.9,138.4 L921.1,388.0 L921.4,388.0 L921.6,325.6 L921.8,263.2 L922.1,232.0 L922.3,232.0 L922.5,419.2 L922.7,450.4 L923.0,232.0 L923.2,232.0 L923.4,450.4 L923.7,200.8 L923.9,263.2 L924.1,388.0 L924.3,419.2 L924.6,450.4 L924.8,450.4 L925.0,232.0 L925.3,263.2 L925.5,294.4 L925.7,356.8 L925.9,263.2 L926.2,481.6 L926.4,356.8 L926.6,200.8 L926.9,450.4 L927.1,232.0 L927.3,388.0 L927.5,263.2 L927.8,450.4 L928.0,325.6 L928.2,294.4 L928.5,263.2 L928.7,200.8 L928.9,325.6 L929.1,419.2 L929.4,169.6 L929.6,512.8 L929.8,232.0 L930.1,419.2 L930.3,232.0 L930.5,512.8 L930.7,294.4 L931.0,294.4 L931.2,388.0 L931.4,169.6 L931.7,512.8 L931.9,200.8 L932.1,263.2 L932.3,263.2 L932.6,232.0 L932.8,388.0 L933.0,263.2 L933.3,263.2 L933.5,512.8 L933.7,419.2 L933.9,325.6 L934.2,325.6 L934.4,481.6 L934.6,356.8 L934.9,356.8 L935.1,356.8 L935.3,450.4 L935.5,169.6 L935.8,294.4 L936.0,450.4 L936.2,356.8 L936.5,388.0 L936.7,450.4 L936.9,388.0 L937.1,169.6 L937.4,325.6 L937.6,294.4 L937.8,325.6 L938.0,200.8 L938.3,356.8 L938.5,200.8 L938.7,388.0 L939.0,169.6 L939.2,263.2 L939.4,263.2 L939.6,388.0 L939.9,481.6 L940.1,232.0 L940.3,388.0 L940.6,388.0 L940.8,169.6 L941.0,232.0 L941.2,232.0 L941.5,450.4 L941.7,138.4 L941.9,544.0 L942.2,325.6 L942.4,263.2 L942.6,450.4 L942.8,263.2 L943.1,263.2 L943.3,388.0 L943.5,200.8 L943.8,512.8 L944.0,356.8 L944.2,388.0 L944.4,419.2 L944.7,388.0 L944.9,263.2 L945.1,481.6 L945.4,200.8 L945.6,325.6 L945.8,200.8 L946.0,356.8 L946.3,294.4 L946.5,200.8 L946.7,294.4 L947.0,294.4 L947.2,232.0 L947.4,388.0 L947.6,263.2 L947.9,512.8 L948.1,232.0 L948.3,356.8 L948.6,232.0 L948.8,419.2 L949.0,419.2 L949.2,232.0 L949.5,450.4 L949.7,263.2 L949.9,450.4 L950.2,294.4 L950.4,200.8 L950.6,512.8 L950.8,200.8 L951.1,294.4 L951.3,419.2 L951.5,232.0 L951.8,450.4 L952.0,325.6 L952.2,419.2 L952.4,263.2 L952.7,481.6 L952.9,200.8 L953.1,325.6 L953.4,325.6 L953.6,481.6 L953.8,419.2 L954.0,419.2 L954.3,450.4 L954.5,356.8 L954.7,388.0 L955.0,356.8 L955.2,263.2 L955.4,200.8 L955.6,356.8 L955.9,232.0 L956.1,294.4 L956.3,325.6 L956.6,356.8 L956.8,481.6 L957.0,388.0 L957.2,325.6 L957.5,450.4 L957.7,325.6 L957.9,294.4 L958.1,450.4 L958.4,138.4 L958.6,512.8 L958.8,325.6 L959.1,263.2 L959.3,481.6 L959.5,450.4 L959.7,263.2 L960.0,388.0 L960.2,388.0 L960.4,419.2 L960.7,388.0 L960.9,138.4 L961.1,200.8 L961.3,232.0 L961.6,450.4 L961.8,200.8 L962.0,419.2 L962.3,325.6 L962.5,169.6 L962.7,450.4 L962.9,294.4 L963.2,263.2 L963.4,450.4 L963.6,200.8 L963.9,356.8 L964.1,200.8 L964.3,263.2 L964.5,450.4 L964.8,388.0 L965.0,450.4 L965.2,200.8 L965.5,325.6 L965.7,450.4 L965.9,138.4 L966.1,544.0 L966.4,325.6 L966.6,481.6 L966.8,169.6 L967.1,512.8 L967.3,232.0 L967.5,232.0 L967.7,512.8 L968.0,169.6 L968.2,450.4 L968.4,356.8 L968.7,325.6 L968.9,388.0 L969.1,388.0 L969.3,232.0 L969.6,388.0 L969.8,200.8 L970.0,263.2 L970.3,450.4 L970.5,325.6 L970.7,325.6 L970.9,263.2 L971.2,419.2 L971.4,294.4 L971.6,294.4 L971.9,263.2 L972.1,388.0 L972.3,419.2 L972.5,200.8 L972.8,512.8 L973.0,294.4 L973.2,325.6 L973.5,200.8 L973.7,200.8 L973.9,481.6 L974.1,450.4 L974.4,294.4 L974.6,325.6 L974.8,200.8 L975.1,356.8 L975.3,169.6 L975.5,419.2 L975.7,419.2 L976.0,388.0 L976.2,356.8 L976.4,200.8 L976.7,294.4 L976.9,169.6 L977.1,325.6 L977.3,232.0 L977.6,294.4 L977.8,481.6 L978.0,388.0 L978.2,232.0 L978.5,200.8 L978.7,263.2 L978.9,294.4 L979.2,294.4 L979.4,263.2 L979.6,450.4 L979.8,450.4 L980.1,450.4 L980.3,200.8 L980.5,419.2 L980.8,200.8 L981.0,263.2 L981.2,232.0 L981.4,450.4 L981.7,356.8 L981.9,356.8 L982.1,200.8 L982.4,512.8 L982.6,388.0 L982.8,419.2 L983.0,263.2 L983.3,294.4 L983.5,419.2 L983.7,325.6 L984.0,356.8 L984.2,419.2 L984.4,450.4 L984.6,138.4 L984.9,512.8 L985.1,200.8 L985.3,481.6 L985.6,419.2 L985.8,263.2 L986.0,388.0 L986.2,200.8 L986.5,325.6 L986.7,450.4 L986.9,263.2 L987.2,356.8 L987.4,388.0 L987.6,450.4 L987.8,107.2 L988.1,294.4 L988.3,388.0 L988.5,419.2 L988.8,294.4 L989.0,169.6 L989.2,450.4 L989.4,200.8 L989.7,232.0 L989.9,200.8 L990.1,419.2 L990.4,356.8 L990.6,200.8 L990.8,450.4 L991.0,325.6 L991.3,450.4 L991.5,356.8 L991.7,325.6 L992.0,200.8 L992.2,294.4 L992.4,200.8 L992.6,232.0 L992.9,325.6 L993.1,419.2 L993.3,388.0 L993.6,388.0 L993.8,419.2 L994.0,481.6 L994.2,325.6 L994.5,294.4 L994.7,481.6 L994.9,263.2 L995.2,232.0 L995.4,481.6 L995.6,200.8 L995.8,200.8 L996.1,450.4 L996.3,419.2 L996.5,450.4 L996.7,325.6 L997.0,263.2 L997.2,481.6 L997.4,419.2 L997.7,450.4 L997.9,263.2 L998.1,200.8 L998.3,388.0 L998.6,232.0 L998.8,263.2 L999.0,388.0 L999.3,138.4 L999.5,263.2 L999.7,388.0 L999.9,325.6 L1000.2,169.6 L1000.4,294.4 L1000.6,263.2 L1000.9,356.8 L1001.1,450.4 L1001.3,388.0 L1001.5,200.8 L1001.8,294.4 L1002.0,356.8 L1002.2,263.2 L1002.5,356.8 L1002.7,232.0 L1002.9,263.2 L1003.1,263.2 L1003.4,481.6 L1003.6,388.0 L1003.8,356.8 L1004.1,200.8 L1004.3,481.6 L1004.5,356.8 L1004.7,294.4 L1005.0,419.2 L1005.2,419.2 L1005.4,356.8 L1005.7,356.8 L1005.9,388.0 L1006.1,419.2 L1006.3,356.8 L1006.6,450.4 L1006.8,325.6 L1007.0,325.6 L1007.3,450.4 L1007.5,200.8 L1007.7,200.8 L1007.9,450.4 L1008.2,325.6 L1008.4,419.2 L1008.6,294.4 L1008.9,419.2 L1009.1,138.4 L1009.3,263.2 L1009.5,232.0 L1009.8,481.6 L1010.0,200.8 L1010.2,263.2 L1010.5,263.2 L1010.7,263.2 L1010.9,232.0 L1011.1,294.4 L1011.4,388.0 L1011.6,169.6 L1011.8,450.4 L1012.1,200.8 L1012.3,325.6 L1012.5,232.0 L1012.7,481.6 L1013.0,169.6 L1013.2,294.4 L1013.4,356.8 L1013.7,294.4 L1013.9,263.2 L1014.1,419.2 L1014.3,419.2 L1014.6,450.4 L1014.8,169.6 L1015.0,512.8 L1015.3,200.8 L1015.5,263.2 L1015.7,325.6 L1015.9,263.2 L1016.2,325.6 L1016.4,325.6 L1016.6,325.6 L1016.8,200.8 L1017.1,388.0 L1017.3,356.8 L1017.5,232.0 L1017.8,294.4 L1018.0,356.8 L1018.2,169.6 L1018.4,294.4 L1018.7,232.0 L1018.9,356.8 L1019.1,388.0 L1019.4,200.8 L1019.6,419.2 L1019.8,325.6 L1020.0,450.4 L1020.3,419.2 L1020.5,294.4 L1020.7,481.6 L1021.0,450.4 L1021.2,138.4 L1021.4,232.0 L1021.6,450.4 L1021.9,294.4 L1022.1,169.6 L1022.3,512.8 L1022.6,200.8 L1022.8,232.0 L1023.0,356.8 L1023.2,356.8 L1023.5,263.2 L1023.7,325.6 L1023.9,356.8 L1024.2,450.4 L1024.4,388.0 L1024.6,138.4 L1024.8,481.6 L1025.1,232.0 L1025.3,325.6 L1025.5,419.2 L1025.8,138.4 L1026.0,200.8 L1026.2,294.4 L1026.4,200.8 L1026.7,450.4 L1026.9,388.0 L1027.1,325.6 L1027.4,450.4 L1027.6,232.0 L1027.8,325.6 L1028.0,388.0 L1028.3,388.0 L1028.5,138.4 L1028.7,481.6 L1029.0,325.6 L1029.2,481.6 L1029.4,138.4 L1029.6,481.6 L1029.9,356.8 L1030.1,356.8 L1030.3,294.4 L1030.6,325.6 L1030.8,450.4 L1031.0,325.6 L1031.2,419.2 L1031.5,388.0 L1031.7,388.0 L1031.9,356.8 L1032.2,325.6 L1032.4,388.0 L1032.6,138.4 L1032.8,263.2 L1033.1,356.8 L1033.3,200.8 L1033.5,294.4 L1033.8,169.6 L1034.0,388.0 L1034.2,356.8 L1034.4,263.2 L1034.7,388.0 L1034.9,138.4 L1035.1,544.0 L1035.3,419.2 L1035.6,450.4 L1035.8,107.2 L1036.0,512.8 L1036.3,200.8 L1036.5,419.2 L1036.7,138.4 L1036.9,450.4 L1037.2,263.2 L1037.4,200.8 L1037.6,200.8 L1037.9,325.6 L1038.1,388.0 L1038.3,263.2 L1038.5,356.8 L1038.8,263.2 L1039.0,232.0 L1039.2,232.0 L1039.5,356.8 L1039.7,263.2 L1039.9,263.2 L1040.1,388.0 L1040.4,419.2 L1040.6,356.8 L1040.8,388.0 L1041.1,232.0 L1041.3,481.6 L1041.5,388.0 L1041.7,200.8 L1042.0,200.8 L1042.2,263.2 L1042.4,263.2 L1042.7,200.8 L1042.9,388.0 L1043.1,356.8 L1043.3,200.8 L1043.6,512.8 L1043.8,419.2 L1044.0,356.8 L1044.3,169.6 L1044.5,388.0 L1044.7,356.8 L1044.9,481.6 L1045.2,200.8 L1045.4,325.6 L1045.6,325.6 L1045.9,481.6 L1046.1,294.4 L1046.3,200.8 L1046.5,481.6 L1046.8,138.4 L1047.0,450.4 L1047.2,232.0 L1047.5,512.8 L1047.7,294.4 L1047.9,232.0 L1048.1,325.6 L1048.4,388.0 L1048.6,481.6 L1048.8,200.8 L1049.1,481.6 L1049.3,200.8 L1049.5,419.2 L1049.7,388.0 L1050.0,356.8 L1050.2,356.8 L1050.4,356.8 L1050.7,325.6 L1050.9,232.0 L1051.1,325.6 L1051.3,481.6 L1051.6,450.4 L1051.8,325.6 L1052.0,294.4 L1052.3,263.2 L1052.5,450.4 L1052.7,107.2 L1052.9,512.8 L1053.2,450.4 L1053.4,294.4 L1053.6,388.0 L1053.9,450.4 L1054.1,419.2 L1054.3,200.8 L1054.5,450.4 L1054.8,325.6 L1055.0,388.0 L1055.2,200.8 L1055.4,200.8 L1055.7,294.4 L1055.9,325.6 L1056.1,325.6 L1056.4,356.8 L1056.6,294.4 L1056.8,294.4 L1057.0,388.0 L1057.3,325.6 L1057.5,200.8 L1057.7,325.6 L1058.0,294.4 L1058.2,294.4 L1058.4,294.4 L1058.6,294.4 L1058.9,450.4 L1059.1,325.6 L1059.3,169.6 L1059.6,544.0 L1059.8,107.2 L1060.0,481.6 L1060.2,107.2 L1060.5,200.8 L1060.7,200.8 L1060.9,232.0 L1061.2,232.0 L1061.4,512.8 L1061.6,419.2 L1061.8,232.0 L1062.1,232.0 L1062.3,481.6 L1062.5,419.2 L1062.8,388.0 L1063.0,232.0 L1063.2,294.4 L1063.4,388.0 L1063.7,294.4 L1063.9,419.2 L1064.1,294.4 L1064.4,169.6 L1064.6,356.8 L1064.8,200.8 L1065.0,232.0 L1065.3,200.8 L1065.5,232.0 L1065.7,325.6 L1066.0,200.8 L1066.2,450.4 L1066.4,294.4 L1066.6,419.2 L1066.9,356.8 L1067.1,419.2 L1067.3,263.2 L1067.6,388.0 L1067.8,419.2 L1068.0,138.4 L1068.2,388.0 L1068.5,481.6 L1068.7,200.8 L1068.9,356.8 L1069.2,232.0 L1069.4,200.8 L1069.6,263.2 L1069.8,263.2 L1070.1,388.0 L1070.3,200.8 L1070.5,450.4 L1070.8,325.6 L1071.0,263.2 L1071.2,356.8 L1071.4,325.6 L1071.7,200.8 L1071.9,294.4 L1072.1,388.0 L1072.4,450.4 L1072.6,388.0 L1072.8,450.4 L1073.0,481.6 L1073.3,294.4 L1073.5,325.6 L1073.7,450.4 L1074.0,450.4 L1074.2,263.2 L1074.4,263.2 L1074.6,325.6 L1074.9,294.4 L1075.1,325.6 L1075.3,450.4 L1075.5,138.4 L1075.8,419.2 L1076.0,325.6 L1076.2,356.8 L1076.5,294.4 L1076.7,481.6 L1076.9,107.2 L1077.1,544.0 L1077.4,450.4 L1077.6,263.2 L1077.8,200.8 L1078.1,450.4 L1078.3,450.4 L1078.5,356.8 L1078.7,419.2 L1079.0,356.8 L1079.2,232.0 L1079.4,481.6 L1079.7,169.6 L1079.9,481.6 L1080.1,232.0 L1080.3,294.4 L1080.6,325.6 L1080.8,450.4 L1081.0,419.2 L1081.3,138.4 L1081.5,263.2 L1081.7,356.8 L1081.9,232.0 L1082.2,450.4 L1082.4,200.8 L1082.6,232.0 L1082.9,356.8 L1083.1,325.6 L1083.3,294.4 L1083.5,294.4 L1083.8,263.2 L1084.0,388.0" fill="none" stroke="#ff7f0e" stroke-width="1.1" opacity="0.85"/><text x="616" y="572" font-size="11" fill="#888">time 0..41 s — altitude (blue) &amp; roll (orange)</text></svg>