<svg xmlns="http://www.w3.org/2000/svg" width="1140" height="600" font-family="sans-serif" font-size="13"><rect width="1140" height="600" fill="white"/><text x="20" y="26" font-size="15" fill="#333">TMS-7 F15 — sensor noise 25%</text><rect x="20" y="40" width="540" height="540" fill="#fbfbfb" stroke="#ddd"/><rect x="50" y="368" width="156" height="3" fill="#cde" stroke="#369" opacity="0.7"/><text x="50" y="363" fill="#369" font-size="12">landing zone</text><circle cx="148" cy="396" r="5" fill="black"/><text x="156" y="400" font-size="12">pad</text><path d="M148.0,395.7 L148.0,395.7 L148.0,395.7 L148.0,395.7 L148.0,395.7 L148.0,395.7 L148.0,395.7 L148.0,395.7 L148.0,395.7 L148.0,395.7 L148.0,395.7 L148.0,395.7 L148.0,395.7 L148.0,395.7 L148.0,395.7 L148.0,395.7 L148.0,395.7 L148.0,395.7 L148.0,395.7 L148.0,395.7 L148.0,395.7 L148.0,395.7 L148.0,395.7 L148.0,395.7 L148.0,395.7 L148.0,395.7 L148.0,395.7 L148.0,395.7 L148.0,395.7 L148.0,395.7 L148.0,395.7 L148.0,395.7 L148.0,395.7 L148.0,395.7 L148.0,395.7 L148.0,395.7 L148.0,395.7 L148.0,395.7 L148.0,395.7 L148.0,395.7 L148.0,395.7 L148.0,395.7 L148.0,395.7 L148.0,395.7 L148.0,395.7 L148.0,395.7 L148.0,395.7 L148.0,395.7 L148.0,395.7 L148.0,395.7 L148.0,395.7 L148.0,395.7 L148.0,395.7 L148.0,395.7 L148.0,395.7 L148.0,395.7 L148.0,395.7 L148.0,395.7 L148.0,395.7 L148.0,395.7 L148.0,395.7 L148.6,394.8 L149.3,393.5 L150.1,392.2 L150.8,390.9 L151.7,389.6 L152.4,388.2 L153.2,386.9 L154.0,385.7 L154.7,384.4 L155.5,383.1 L156.4,381.8 L157.2,380.5 L158.0,379.3 L158.8,378.0 L159.6,376.7 L160.4,375.5 L161.3,374.2 L162.1,373.0 L163.0,371.7 L163.9,370.5 L164.7,369.2 L165.5,367.9 L166.3,366.7 L167.2,365.4 L168.0,364.2 L168.9,363.0 L169.7,361.7 L170.6,360.5 L171.5,359.2 L172.3,358.0 L173.3,356.8 L174.2,355.6 L175.1,354.4 L176.0,353.1 L176.9,351.9 L177.8,350.7 L178.7,349.5 L179.6,348.3 L180.6,347.2 L181.5,346.0 L182.4,344.8 L183.4,343.6 L184.3,342.4 L185.3,341.3 L186.3,340.1 L187.2,339.0 L188.2,337.8 L189.2,336.6 L190.2,335.5 L191.1,334.4 L192.1,333.2 L193.1,332.1 L194.1,331.0 L195.1,329.9 L196.2,328.7 L197.2,327.6 L198.2,326.5 L199.3,325.4 L200.3,324.3 L201.4,323.2 L202.3,322.1 L203.4,321.1 L204.5,320.0 L205.5,318.9 L206.6,317.8 L207.7,316.8 L208.8,315.7 L209.8,314.7 L210.9,313.6 L212.0,312.6 L213.1,311.6 L214.3,310.5 L215.4,309.4 L216.4,308.4 L217.6,307.4 L218.7,306.3 L219.8,305.3 L221.0,304.3 L222.1,303.4 L223.2,302.4 L224.4,301.4 L225.6,300.4 L226.7,299.4 L227.8,298.5 L229.0,297.5 L230.2,296.5 L231.4,295.6 L232.5,294.6 L233.7,293.7 L234.9,292.8 L236.1,291.8 L237.3,290.9 L238.5,290.0 L239.7,289.1 L240.9,288.2 L242.1,287.3 L243.4,286.4 L244.5,285.5 L245.8,284.6 L247.0,283.7 L248.3,282.9 L249.5,282.0 L250.7,281.1 L252.0,280.3 L253.2,279.4 L254.5,278.6 L255.8,277.8 L257.0,276.9 L258.3,276.1 L259.5,275.3 L260.8,274.5 L262.1,273.7 L263.3,272.9 L264.6,272.1 L266.0,271.3 L267.2,270.5 L268.5,269.7 L269.8,269.0 L271.1,268.2 L272.5,267.4 L273.7,266.7 L275.1,265.9 L276.4,265.2 L277.7,264.5 L279.0,263.7 L280.3,263.0 L281.7,262.3 L283.0,261.6 L284.3,260.9 L285.7,260.2 L287.0,259.5 L288.4,258.8 L289.7,258.1 L291.1,257.5 L292.4,256.8 L293.8,256.2 L295.2,255.5 L296.5,254.9 L297.9,254.2 L299.3,253.6 L300.7,253.0 L302.0,252.3 L303.4,251.7 L304.8,251.1 L306.2,250.5 L307.5,249.9 L309.0,249.3 L310.3,248.8 L311.8,248.2 L313.1,247.6 L314.6,247.1 L315.9,246.5 L317.4,246.0 L318.8,245.4 L320.2,244.9 L321.6,244.4 L323.1,243.9 L324.4,243.3 L325.9,242.8 L327.3,242.3 L328.8,241.8 L330.1,241.3 L331.6,240.9 L333.0,240.4 L334.5,239.9 L335.9,239.5 L337.3,239.0 L338.8,238.6 L340.2,238.1 L341.7,237.7 L343.1,237.3 L344.6,236.9 L346.0,236.4 L347.5,236.0 L348.9,235.6 L350.5,235.3 L351.9,234.9 L353.3,234.5 L354.8,234.1 L356.2,233.8 L357.8,233.4 L359.2,233.0 L360.7,232.7 L362.1,232.4 L363.6,232.0 L365.1,231.7 L366.5,231.4 L368.1,231.1 L369.5,230.8 L371.1,230.4 L372.5,230.1 L373.9,229.8 L375.5,229.6 L376.9,229.3 L378.5,229.0 L379.9,228.8 L381.4,228.5 L382.9,228.3 L384.4,228.1 L385.9,227.8 L387.4,227.6 L388.9,227.4 L390.4,227.2 L391.9,227.0 L393.4,226.8 L394.9,226.6 L396.4,226.4 L397.9,226.3 L399.4,226.1 L400.9,226.0 L402.4,225.8 L403.9,225.7 L405.4,225.5 L406.7,225.4 L407.9,225.3 L409.2,225.2 L410.5,225.1 L411.7,225.1 L413.0,225.0 L414.2,224.9 L415.4,224.8 L416.7,224.7 L418.0,224.7 L419.2,224.6 L420.5,224.6 L421.7,224.5 L423.0,224.5 L424.3,224.4 L425.5,224.4 L426.8,224.4 L428.1,224.4 L429.3,224.3 L430.6,224.3 L431.8,224.3 L433.0,224.3 L434.3,224.3 L435.6,224.3 L436.8,224.3 L438.1,224.3 L439.4,224.4 L440.6,224.4 L441.9,224.4 L443.2,224.4 L444.4,224.5 L445.7,224.5 L447.0,224.6 L448.2,224.6 L449.5,224.7 L450.7,224.7 L451.9,224.8 L453.2,224.9 L454.5,225.0 L455.7,225.0 L457.0,225.1 L458.3,225.2 L459.5,225.3 L460.8,225.4 L462.0,225.5 L463.2,225.6 L464.5,225.7 L465.8,225.9 L467.0,226.0 L468.3,226.1 L469.5,226.2 L470.8,226.4 L472.0,226.5 L473.3,226.7 L474.5,226.8 L475.8,227.0 L477.0,227.1 L478.3,227.3 L479.5,227.5 L480.8,227.6 L482.0,227.8 L483.3,228.0 L484.5,228.2 L485.7,228.4 L487.0,228.6 L488.3,228.8 L489.5,229.0 L490.7,229.2 L492.0,229.4 L493.2,229.6 L494.5,229.9 L495.7,230.1 L496.9,230.3 L498.2,230.6 L499.4,230.9 L500.6,231.1 L501.9,231.4 L503.1,231.6 L504.3,231.9 L505.6,232.2 L506.8,232.4 L508.0,232.7 L509.2,233.0 L510.5,233.3 L511.7,233.5 L512.9,233.8 L514.2,234.1 L515.4,234.4 L516.6,234.7 L517.8,235.0 L519.1,235.3 L520.2,235.6 L521.5,236.0 L522.7,236.3 L523.9,236.6 L525.1,237.0 L526.3,237.3 L527.6,237.6 L528.7,238.0 L530.0,238.3" fill="none" stroke="#1f77b4" stroke-width="1.7" opacity="0.85"/><circle cx="530" cy="238" r="4.5" fill="#1f77b4"/><text x="28" y="572" font-size="11" fill="#888">ground track — m from pad (N up)</text><rect x="580" y="40" width="540" height="540" fill="#fbfbfb" stroke="#ddd"/><text x="586" y="54" fill="#1f77b4" font-size="11">alt 356</text><text x="586" y="558" fill="#1f77b4" font-size="11">1</text><path d="M616.0,543.5 L616.2,542.4 L616.4,543.0 L616.7,544.0 L616.9,544.0 L617.1,543.8 L617.3,542.6 L617.6,543.8 L617.8,543.3 L618.0,541.9 L618.2,542.0 L618.5,541.8 L618.7,541.6 L618.9,541.0 L619.1,541.1 L619.3,542.3 L619.6,541.0 L619.8,542.3 L620.0,540.8 L620.2,539.5 L620.5,540.8 L620.7,541.2 L620.9,539.1 L621.1,539.6 L621.3,537.6 L621.6,537.4 L621.8,539.0 L622.0,538.6 L622.2,536.1 L622.5,536.4 L622.7,537.1 L622.9,539.4 L623.1,537.6 L623.4,537.7 L623.6,538.2 L623.8,534.0 L624.0,535.1 L624.2,535.5 L624.5,536.6 L624.7,531.5 L624.9,535.8 L625.1,534.8 L625.4,532.4 L625.6,533.4 L625.8,533.1 L626.0,529.6 L626.2,529.3 L626.5,526.5 L626.7,529.2 L626.9,526.2 L627.1,523.4 L627.4,525.0 L627.6,529.4 L627.8,530.2 L628.0,519.9 L628.3,518.8 L628.5,525.5 L628.7,526.0 L628.9,520.0 L629.1,526.0 L629.4,515.7 L629.6,523.8 L629.8,518.6 L630.0,514.4 L630.3,515.4 L630.5,519.4 L630.7,515.1 L630.9,519.8 L631.1,513.4 L631.4,518.7 L631.6,514.2 L631.8,515.8 L632.0,505.9 L632.3,512.8 L632.5,501.9 L632.7,503.3 L632.9,517.0 L633.2,507.9 L633.4,496.8 L633.6,512.6 L633.8,506.2 L634.0,492.8 L634.3,497.0 L634.5,508.0 L634.7,500.5 L634.9,491.2 L635.2,498.6 L635.4,489.2 L635.6,507.9 L635.8,485.6 L636.0,497.8 L636.3,505.2 L636.5,504.3 L636.7,490.4 L636.9,481.3 L637.2,495.1 L637.4,485.9 L637.6,489.0 L637.8,498.6 L638.1,497.6 L638.3,496.6 L638.5,483.7 L638.7,469.3 L638.9,477.7 L639.2,461.5 L639.4,472.3 L639.6,491.3 L639.8,489.8 L640.1,456.4 L640.3,486.1 L640.5,461.9 L640.7,471.7 L640.9,458.6 L641.2,446.6 L641.4,459.8 L641.6,455.5 L641.8,445.4 L642.1,469.6 L642.3,438.8 L642.5,449.8 L642.7,455.3 L643.0,461.3 L643.2,429.1 L643.4,468.1 L643.6,450.7 L643.8,429.4 L644.1,446.2 L644.3,430.2 L644.5,455.6 L644.7,459.6 L645.0,432.3 L645.2,430.5 L645.4,419.0 L645.6,447.9 L645.8,435.0 L646.1,407.6 L646.3,427.2 L646.5,446.3 L646.7,431.5 L647.0,405.8 L647.2,442.0 L647.4,443.5 L647.6,394.4 L647.9,388.8 L648.1,387.4 L648.3,402.4 L648.5,387.5 L648.7,407.8 L649.0,395.1 L649.2,376.0 L649.4,429.6 L649.6,430.1 L649.9,436.8 L650.1,396.2 L650.3,428.8 L650.5,417.1 L650.7,428.5 L651.0,406.8 L651.2,389.9 L651.4,391.1 L651.6,413.2 L651.9,380.7 L652.1,406.4 L652.3,420.6 L652.5,354.3 L652.8,384.0 L653.0,387.6 L653.2,419.8 L653.4,407.3 L653.6,404.0 L653.9,348.6 L654.1,333.3 L654.3,387.3 L654.5,398.9 L654.8,330.9 L655.0,343.9 L655.2,349.3 L655.4,377.4 L655.6,353.2 L655.9,336.4 L656.1,392.5 L656.3,375.1 L656.5,303.4 L656.8,363.4 L657.0,388.1 L657.2,354.4 L657.4,295.8 L657.7,376.6 L657.9,356.4 L658.1,326.2 L658.3,358.6 L658.5,385.6 L658.8,306.3 L659.0,298.2 L659.2,299.3 L659.4,313.6 L659.7,300.6 L659.9,368.9 L660.1,331.9 L660.3,377.0 L660.6,321.6 L660.8,338.0 L661.0,321.1 L661.2,327.6 L661.4,299.4 L661.7,320.9 L661.9,252.1 L662.1,248.2 L662.3,340.4 L662.6,349.4 L662.8,356.0 L663.0,341.1 L663.2,310.9 L663.4,343.4 L663.7,233.6 L663.9,282.4 L664.1,346.2 L664.3,315.0 L664.6,294.5 L664.8,227.2 L665.0,232.0 L665.2,339.6 L665.5,263.5 L665.7,337.7 L665.9,218.6 L666.1,254.1 L666.3,227.7 L666.6,281.5 L666.8,318.3 L667.0,270.6 L667.2,339.2 L667.5,288.4 L667.7,252.4 L667.9,285.1 L668.1,316.9 L668.3,194.7 L668.6,233.2 L668.8,215.8 L669.0,270.1 L669.2,274.3 L669.5,265.7 L669.7,231.1 L669.9,253.9 L670.1,203.6 L670.4,296.4 L670.6,250.1 L670.8,287.3 L671.0,241.7 L671.2,267.8 L671.5,282.8 L671.7,259.0 L671.9,307.5 L672.1,186.2 L672.4,205.8 L672.6,301.9 L672.8,246.4 L673.0,221.4 L673.2,193.3 L673.5,277.4 L673.7,249.5 L673.9,263.7 L674.1,266.0 L674.4,264.4 L674.6,193.3 L674.8,253.7 L675.0,250.0 L675.3,269.0 L675.5,197.2 L675.7,247.6 L675.9,158.7 L676.1,250.6 L676.4,209.5 L676.6,189.0 L676.8,259.3 L677.0,213.3 L677.3,222.6 L677.5,170.8 L677.7,283.1 L677.9,210.4 L678.1,219.0 L678.4,127.8 L678.6,124.7 L678.8,257.3 L679.0,208.7 L679.3,196.6 L679.5,149.4 L679.7,280.0 L679.9,117.2 L680.2,114.8 L680.4,234.2 L680.6,211.4 L680.8,283.3 L681.0,256.3 L681.3,164.3 L681.5,206.0 L681.7,132.4 L681.9,232.4 L682.2,114.1 L682.4,154.2 L682.6,174.2 L682.8,106.6 L683.0,160.8 L683.3,221.9 L683.5,110.5 L683.7,260.3 L683.9,172.9 L684.2,232.1 L684.4,114.1 L684.6,188.8 L684.8,187.1 L685.1,234.8 L685.3,259.1 L685.5,138.6 L685.7,234.2 L685.9,84.0 L686.2,96.8 L686.4,162.5 L686.6,161.4 L686.8,137.2 L687.1,104.3 L687.3,185.5 L687.5,183.8 L687.7,85.6 L687.9,147.4 L688.2,197.8 L688.4,123.3 L688.6,131.0 L688.8,200.6 L689.1,226.5 L689.3,140.9 L689.5,129.7 L689.7,126.8 L690.0,154.9 L690.2,137.2 L690.4,256.4 L690.6,230.7 L690.8,212.5 L691.1,76.4 L691.3,221.7 L691.5,139.6 L691.7,138.6 L692.0,79.5 L692.2,186.0 L692.4,169.8 L692.6,113.1 L692.8,159.0 L693.1,237.2 L693.3,225.3 L693.5,116.7 L693.7,153.8 L694.0,181.1 L694.2,123.0 L694.4,122.7 L694.6,248.8 L694.9,202.9 L695.1,233.8 L695.3,256.3 L695.5,190.6 L695.7,123.2 L696.0,240.9 L696.2,238.5 L696.4,170.8 L696.6,153.1 L696.9,216.4 L697.1,125.7 L697.3,222.9 L697.5,144.0 L697.7,121.7 L698.0,112.9 L698.2,132.1 L698.4,252.5 L698.6,168.3 L698.9,204.3 L699.1,243.4 L699.3,183.0 L699.5,154.7 L699.8,102.2 L700.0,230.9 L700.2,193.2 L700.4,204.9 L700.6,161.8 L700.9,165.0 L701.1,96.6 L701.3,98.4 L701.5,76.8 L701.8,218.4 L702.0,179.7 L702.2,149.1 L702.4,254.3 L702.7,90.8 L702.9,76.0 L703.1,237.4 L703.3,84.8 L703.5,134.3 L703.8,77.6 L704.0,121.6 L704.2,234.4 L704.4,120.7 L704.7,229.7 L704.9,147.3 L705.1,235.9 L705.3,90.4 L705.5,249.2 L705.8,99.6 L706.0,241.1 L706.2,252.0 L706.4,108.4 L706.7,114.2 L706.9,235.2 L707.1,158.6 L707.3,164.0 L707.6,226.2 L707.8,194.8 L708.0,79.8 L708.2,188.8 L708.4,202.1 L708.7,86.4 L708.9,245.4 L709.1,224.9 L709.3,154.6 L709.6,152.6 L709.8,210.6 L710.0,219.9 L710.2,193.9 L710.4,234.2 L710.7,92.1 L710.9,199.0 L711.1,256.5 L711.3,217.8 L711.6,218.8 L711.8,121.9 L712.0,108.9 L712.2,170.1 L712.5,98.7 L712.7,185.1 L712.9,192.2 L713.1,250.8 L713.3,216.3 L713.6,143.0 L713.8,156.9 L714.0,166.7 L714.2,115.1 L714.5,217.8 L714.7,142.4 L714.9,183.5 L715.1,242.1 L715.3,122.2 L715.6,175.9 L715.8,245.9 L716.0,263.5 L716.2,256.8 L716.5,151.4 L716.7,216.3 L716.9,266.5 L717.1,153.5 L717.4,83.8 L717.6,124.6 L717.8,193.2 L718.0,219.4 L718.2,210.5 L718.5,163.8 L718.7,231.6 L718.9,101.8 L719.1,171.4 L719.4,205.8 L719.6,192.9 L719.8,157.3 L720.0,98.2 L720.2,86.3 L720.5,232.4 L720.7,159.5 L720.9,136.3 L721.1,207.9 L721.4,240.5 L721.6,166.0 L721.8,208.6 L722.0,123.4 L722.3,236.2 L722.5,148.3 L722.7,246.5 L722.9,149.8 L723.1,144.9 L723.4,219.0 L723.6,129.3 L723.8,174.7 L724.0,90.4 L724.3,113.9 L724.5,86.2 L724.7,157.2 L724.9,159.9 L725.1,166.5 L725.4,149.8 L725.6,182.4 L725.8,204.3 L726.0,184.3 L726.3,165.1 L726.5,216.4 L726.7,231.8 L726.9,212.0 L727.2,177.2 L727.4,188.2 L727.6,162.5 L727.8,221.0 L728.0,242.1 L728.3,147.2 L728.5,194.7 L728.7,114.6 L728.9,138.6 L729.2,173.3 L729.4,174.0 L729.6,158.4 L729.8,252.7 L730.0,198.2 L730.3,212.9 L730.5,185.0 L730.7,222.5 L730.9,168.4 L731.2,225.6 L731.4,200.4 L731.6,259.1 L731.8,106.7 L732.1,102.0 L732.3,220.3 L732.5,251.0 L732.7,168.3 L732.9,188.4 L733.2,261.0 L733.4,253.2 L733.6,229.9 L733.8,183.4 L734.1,255.3 L734.3,192.9 L734.5,180.0 L734.7,130.0 L734.9,100.2 L735.2,111.2 L735.4,233.2 L735.6,250.3 L735.8,119.3 L736.1,147.7 L736.3,210.4 L736.5,154.5 L736.7,130.0 L737.0,211.4 L737.2,113.0 L737.4,223.9 L737.6,234.6 L737.8,206.0 L738.1,236.6 L738.3,173.3 L738.5,214.7 L738.7,268.1 L739.0,163.6 L739.2,175.5 L739.4,160.9 L739.6,140.6 L739.8,112.3 L740.1,270.6 L740.3,155.8 L740.5,183.4 L740.7,270.4 L741.0,142.5 L741.2,186.5 L741.4,139.1 L741.6,209.7 L741.9,165.7 L742.1,175.8 L742.3,195.3 L742.5,111.6 L742.7,190.8 L743.0,268.2 L743.2,190.1 L743.4,249.2 L743.6,227.6 L743.9,223.9 L744.1,241.5 L744.3,133.8 L744.5,167.7 L744.8,219.2 L745.0,164.2 L745.2,211.5 L745.4,134.9 L745.6,120.7 L745.9,234.4 L746.1,226.9 L746.3,156.4 L746.5,113.0 L746.8,134.8 L747.0,145.0 L747.2,108.6 L747.4,100.1 L747.6,185.1 L747.9,150.7 L748.1,269.3 L748.3,145.6 L748.5,156.0 L748.8,166.9 L749.0,202.8 L749.2,147.5 L749.4,229.3 L749.7,148.0 L749.9,131.8 L750.1,114.9 L750.3,227.7 L750.5,200.0 L750.8,139.1 L751.0,237.2 L751.2,225.6 L751.4,158.8 L751.7,199.5 L751.9,183.6 L752.1,141.5 L752.3,216.7 L752.5,197.7 L752.8,261.8 L753.0,120.5 L753.2,213.5 L753.4,192.3 L753.7,117.9 L753.9,278.2 L754.1,145.4 L754.3,182.9 L754.6,259.1 L754.8,251.6 L755.0,208.1 L755.2,167.8 L755.4,271.0 L755.7,276.3 L755.9,208.0 L756.1,141.9 L756.3,271.8 L756.6,146.6 L756.8,133.4 L757.0,151.1 L757.2,162.8 L757.4,129.8 L757.7,147.2 L757.9,240.3 L758.1,248.2 L758.3,218.1 L758.6,234.3 L758.8,244.1 L759.0,129.2 L759.2,155.0 L759.5,136.2 L759.7,212.3 L759.9,180.7 L760.1,233.5 L760.3,166.9 L760.6,155.7 L760.8,160.9 L761.0,233.5 L761.2,245.3 L761.5,269.6 L761.7,192.0 L761.9,217.1 L762.1,274.7 L762.3,168.6 L762.6,255.7 L762.8,209.4 L763.0,252.2 L763.2,259.9 L763.5,157.3 L763.7,179.9 L763.9,190.8 L764.1,215.4 L764.4,153.7 L764.6,174.0 L764.8,190.5 L765.0,210.1 L765.2,257.0 L765.5,124.6 L765.7,193.7 L765.9,182.3 L766.1,192.9 L766.4,176.9 L766.6,198.7 L766.8,249.7 L767.0,149.9 L767.2,133.8 L767.5,127.3 L767.7,253.6 L767.9,178.7 L768.1,148.8 L768.4,155.6 L768.6,144.5 L768.8,282.4 L769.0,218.1 L769.3,237.4 L769.5,217.9 L769.7,200.1 L769.9,194.9 L770.1,265.0 L770.4,137.9 L770.6,278.2 L770.8,210.3 L771.0,198.4 L771.3,183.1 L771.5,130.3 L771.7,162.7 L771.9,158.8 L772.1,170.0 L772.4,222.9 L772.6,251.7 L772.8,150.9 L773.0,147.8 L773.3,273.8 L773.5,283.5 L773.7,186.9 L773.9,199.8 L774.2,164.6 L774.4,153.0 L774.6,226.2 L774.8,210.8 L775.0,257.7 L775.3,256.3 L775.5,177.8 L775.7,185.2 L775.9,267.3 L776.2,138.4 L776.4,127.3 L776.6,266.0 L776.8,292.4 L777.0,288.2 L777.3,276.0 L777.5,220.4 L777.7,199.7 L777.9,274.1 L778.2,215.0 L778.4,240.4 L778.6,281.0 L778.8,184.8 L779.1,199.7 L779.3,214.8 L779.5,214.0 L779.7,251.6 L779.9,241.3 L780.2,241.0 L780.4,261.0 L780.6,267.6 L780.8,142.3 L781.1,291.4 L781.3,156.2 L781.5,195.8 L781.7,250.2 L781.9,178.8 L782.2,268.9 L782.4,170.4 L782.6,139.2 L782.8,236.0 L783.1,281.2 L783.3,278.4 L783.5,211.5 L783.7,149.3 L784.0,284.0 L784.2,271.5 L784.4,195.8 L784.6,272.9 L784.8,281.9 L785.1,207.1 L785.3,288.0 L785.5,143.2 L785.7,206.6 L786.0,260.5 L786.2,192.1 L786.4,207.1 L786.6,134.6 L786.9,192.4 L787.1,188.2 L787.3,177.3 L787.5,243.2 L787.7,241.2 L788.0,221.3 L788.2,147.6 L788.4,259.0 L788.6,155.2 L788.9,157.8 L789.1,183.3 L789.3,142.3 L789.5,258.2 L789.7,170.0 L790.0,265.2 L790.2,185.4 L790.4,208.6 L790.6,266.8 L790.9,170.5 L791.1,221.6 L791.3,221.7 L791.5,224.9 L791.8,267.8 L792.0,258.2 L792.2,165.3 L792.4,193.6 L792.6,180.3 L792.9,249.5 L793.1,166.2 L793.3,271.9 L793.5,299.4 L793.8,196.1 L794.0,284.0 L794.2,215.7 L794.4,287.2 L794.6,180.9 L794.9,277.9 L795.1,172.4 L795.3,183.4 L795.5,235.1 L795.8,226.8 L796.0,206.0 L796.2,262.5 L796.4,165.1 L796.7,301.6 L796.9,294.3 L797.1,223.9 L797.3,218.6 L797.5,195.3 L797.8,261.1 L798.0,162.9 L798.2,261.2 L798.4,264.7 L798.7,262.4 L798.9,231.4 L799.1,183.8 L799.3,293.2 L799.5,265.9 L799.8,169.9 L800.0,173.0 L800.2,179.5 L800.4,271.2 L800.7,280.2 L800.9,301.0 L801.1,180.5 L801.3,152.6 L801.6,214.4 L801.8,178.5 L802.0,154.2 L802.2,282.3 L802.4,158.2 L802.7,304.6 L802.9,213.7 L803.1,280.4 L803.3,243.4 L803.6,185.6 L803.8,199.4 L804.0,205.6 L804.2,309.2 L804.4,240.5 L804.7,257.7 L804.9,204.4 L805.1,258.0 L805.3,266.0 L805.6,295.9 L805.8,280.6 L806.0,216.0 L806.2,242.9 L806.5,305.0 L806.7,163.3 L806.9,185.1 L807.1,273.3 L807.3,259.6 L807.6,306.4 L807.8,298.8 L808.0,184.8 L808.2,190.5 L808.5,171.6 L808.7,165.8 L808.9,251.7 L809.1,265.0 L809.3,188.5 L809.6,195.7 L809.8,188.0 L810.0,269.3 L810.2,278.1 L810.5,276.0 L810.7,209.3 L810.9,290.0 L811.1,313.3 L811.4,294.3 L811.6,241.3 L811.8,165.8 L812.0,310.2 L812.2,285.5 L812.5,234.7 L812.7,161.5 L812.9,161.5 L813.1,216.9 L813.4,264.2 L813.6,255.9 L813.8,293.6 L814.0,185.1 L814.2,207.6 L814.5,234.3 L814.7,266.4 L814.9,310.9 L815.1,283.7 L815.4,200.9 L815.6,241.0 L815.8,190.2 L816.0,276.5 L816.3,172.9 L816.5,172.8 L816.7,289.3 L816.9,257.6 L817.1,171.2 L817.4,273.7 L817.6,168.6 L817.8,254.9 L818.0,318.0 L818.3,217.4 L818.5,200.2 L818.7,316.6 L818.9,205.5 L819.1,241.7 L819.4,317.9 L819.6,240.3 L819.8,216.1 L820.0,193.9 L820.3,317.9 L820.5,267.1 L820.7,312.8 L820.9,227.0 L821.2,280.1 L821.4,270.4 L821.6,235.6 L821.8,186.7 L822.0,291.3 L822.3,283.1 L822.5,249.5 L822.7,229.5 L822.9,188.5 L823.2,311.4 L823.4,271.6 L823.6,188.6 L823.8,200.8 L824.0,282.6 L824.3,287.7 L824.5,182.4 L824.7,273.9 L824.9,201.5 L825.2,235.5 L825.4,298.0 L825.6,271.7 L825.8,252.6 L826.1,210.9 L826.3,276.0 L826.5,311.8 L826.7,198.7 L826.9,288.8 L827.2,270.6 L827.4,215.5 L827.6,298.7 L827.8,262.5 L828.1,203.8 L828.3,298.5 L828.5,190.5 L828.7,286.6 L829.0,245.5 L829.2,324.6 L829.4,243.6 L829.6,286.5 L829.8,207.3 L830.1,245.8 L830.3,234.7 L830.5,186.2 L830.7,269.3 L831.0,305.8 L831.2,309.7 L831.4,190.9 L831.6,220.6 L831.8,276.6 L832.1,216.4 L832.3,268.5 L832.5,318.8 L832.7,295.6 L833.0,321.9 L833.2,306.4 L833.4,194.0 L833.6,266.0 L833.9,244.8 L834.1,309.7 L834.3,250.4 L834.5,325.1 L834.7,206.9 L835.0,240.2 L835.2,279.9 L835.4,300.2 L835.6,238.1 L835.9,220.4 L836.1,234.4 L836.3,257.5 L836.5,242.0 L836.7,228.3 L837.0,266.9 L837.2,318.4 L837.4,225.3 L837.6,250.2 L837.9,295.2 L838.1,219.8 L838.3,318.5 L838.5,210.8 L838.8,286.4 L839.0,203.0 L839.2,262.5 L839.4,197.8 L839.6,238.8 L839.9,233.9 L840.1,203.2 L840.3,267.4 L840.5,228.0 L840.8,283.5 L841.0,311.2 L841.2,268.2 L841.4,223.8 L841.6,305.9 L841.9,228.1 L842.1,256.2 L842.3,217.8 L842.5,267.2 L842.8,288.0 L843.0,206.0 L843.2,255.6 L843.4,242.2 L843.7,278.2 L843.9,318.9 L844.1,290.1 L844.3,265.5 L844.5,318.0 L844.8,233.1 L845.0,230.1 L845.2,219.6 L845.4,248.6 L845.7,289.4 L845.9,269.9 L846.1,319.2 L846.3,330.2 L846.5,274.3 L846.8,310.4 L847.0,266.6 L847.2,222.1 L847.4,232.9 L847.7,220.5 L847.9,298.8 L848.1,312.7 L848.3,294.8 L848.6,329.4 L848.8,308.2 L849.0,254.3 L849.2,327.2 L849.4,291.5 L849.7,328.3 L849.9,243.8 L850.1,254.8 L850.3,278.5 L850.6,236.9 L850.8,322.3 L851.0,265.4 L851.2,277.9 L851.4,285.9 L851.7,285.0 L851.9,270.1 L852.1,256.4 L852.3,315.6 L852.6,224.8 L852.8,276.9 L853.0,335.9 L853.2,334.8 L853.5,343.4 L853.7,254.2 L853.9,291.1 L854.1,338.5 L854.3,294.6 L854.6,265.4 L854.8,218.9 L855.0,233.3 L855.2,285.0 L855.5,236.4 L855.7,298.3 L855.9,337.7 L856.1,243.0 L856.3,326.8 L856.6,294.2 L856.8,233.5 L857.0,243.0 L857.2,294.8 L857.5,281.2 L857.7,303.4 L857.9,234.6 L858.1,291.6 L858.4,279.2 L858.6,320.6 L858.8,275.5 L859.0,242.4 L859.2,335.3 L859.5,302.3 L859.7,217.8 L859.9,256.5 L860.1,263.9 L860.4,348.6 L860.6,282.4 L860.8,330.0 L861.0,231.1 L861.2,341.3 L861.5,325.4 L861.7,249.0 L861.9,253.4 L862.1,264.5 L862.4,285.1 L862.6,294.9 L862.8,231.8 L863.0,253.7 L863.3,289.5 L863.5,225.1 L863.7,315.9 L863.9,225.4 L864.1,254.0 L864.4,319.0 L864.6,263.3 L864.8,275.5 L865.0,284.9 L865.3,253.4 L865.5,227.3 L865.7,338.7 L865.9,284.7 L866.1,351.7 L866.4,229.7 L866.6,345.1 L866.8,349.9 L867.0,350.1 L867.3,281.6 L867.5,250.3 L867.7,294.0 L867.9,289.8 L868.2,337.4 L868.4,301.7 L868.6,339.9 L868.8,248.6 L869.0,309.1 L869.3,251.3 L869.5,311.4 L869.7,269.7 L869.9,315.8 L870.2,285.8 L870.4,351.9 L870.6,346.7 L870.8,347.5 L871.0,292.5 L871.3,257.5 L871.5,329.9 L871.7,236.8 L871.9,351.6 L872.2,280.8 L872.4,256.8 L872.6,348.7 L872.8,275.8 L873.1,318.5 L873.3,327.1 L873.5,345.7 L873.7,307.3 L873.9,289.1 L874.2,244.7 L874.4,329.9 L874.6,351.8 L874.8,352.4 L875.1,322.3 L875.3,272.0 L875.5,351.5 L875.7,249.4 L876.0,288.9 L876.2,361.6 L876.4,314.8 L876.6,332.6 L876.8,338.0 L877.1,284.3 L877.3,339.9 L877.5,359.0 L877.7,315.2 L878.0,345.1 L878.2,271.1 L878.4,246.0 L878.6,244.8 L878.8,315.8 L879.1,275.0 L879.3,341.1 L879.5,361.4 L879.7,345.5 L880.0,291.9 L880.2,353.5 L880.4,341.1 L880.6,318.5 L880.9,253.5 L881.1,295.0 L881.3,325.3 L881.5,311.6 L881.7,249.3 L882.0,315.2 L882.2,339.9 L882.4,323.9 L882.6,351.5 L882.9,263.3 L883.1,345.7 L883.3,285.4 L883.5,261.8 L883.7,318.6 L884.0,280.3 L884.2,328.4 L884.4,311.0 L884.6,277.3 L884.9,326.8 L885.1,308.5 L885.3,309.1 L885.5,282.0 L885.8,270.3 L886.0,310.1 L886.2,357.3 L886.4,284.3 L886.6,252.8 L886.9,320.0 L887.1,358.3 L887.3,355.8 L887.5,280.1 L887.8,335.3 L888.0,315.7 L888.2,293.3 L888.4,357.7 L888.6,279.9 L888.9,284.9 L889.1,270.0 L889.3,313.7 L889.5,326.3 L889.8,290.1 L890.0,293.5 L890.2,328.8 L890.4,372.9 L890.7,270.8 L890.9,336.2 L891.1,335.6 L891.3,308.1 L891.5,304.8 L891.8,263.0 L892.0,320.3 L892.2,260.8 L892.4,367.9 L892.7,300.5 L892.9,365.8 L893.1,303.3 L893.3,272.7 L893.5,324.9 L893.8,317.8 L894.0,349.2 L894.2,322.2 L894.4,287.6 L894.7,325.0 L894.9,319.1 L895.1,348.0 L895.3,356.5 L895.6,312.7 L895.8,298.0 L896.0,344.9 L896.2,339.1 L896.4,345.8 L896.7,331.4 L896.9,294.9 L897.1,267.9 L897.3,281.8 L897.6,372.7 L897.8,275.5 L898.0,369.2 L898.2,365.0 L898.4,284.7 L898.7,367.6 L898.9,305.7 L899.1,341.0 L899.3,368.3 L899.6,300.5 L899.8,357.9 L900.0,276.6 L900.2,373.4 L900.5,275.9 L900.7,305.3 L900.9,350.0 L901.1,338.7 L901.3,301.8 L901.6,285.9 L901.8,378.9 L902.0,296.4 L902.2,378.0 L902.5,356.1 L902.7,283.4 L902.9,296.9 L903.1,375.2 L903.3,295.1 L903.6,286.9 L903.8,301.6 L904.0,350.8 L904.2,306.8 L904.5,303.1 L904.7,323.6 L904.9,305.0 L905.1,309.7 L905.4,360.8 L905.6,360.8 L905.8,285.0 L906.0,294.4 L906.2,301.0 L906.5,386.2 L906.7,350.4 L906.9,375.5 L907.1,312.7 L907.4,372.4 L907.6,357.2 L907.8,370.8 L908.0,386.9 L908.2,369.9 L908.5,354.0 L908.7,344.7 L908.9,340.5 L909.1,343.4 L909.4,364.1 L909.6,285.5 L909.8,362.3 L910.0,382.2 L910.3,333.1 L910.5,347.9 L910.7,322.7 L910.9,362.0 L911.1,374.9 L911.4,291.4 L911.6,371.2 L911.8,390.3 L912.0,296.7 L912.3,379.1 L912.5,385.9 L912.7,332.8 L912.9,343.9 L913.1,366.3 L913.4,361.4 L913.6,379.1 L913.8,391.2 L914.0,329.6 L914.3,329.0 L914.5,361.3 L914.7,391.5 L914.9,361.7 L915.2,329.7 L915.4,340.1 L915.6,330.3 L915.8,358.4 L916.0,338.2 L916.3,336.4 L916.5,358.4 L916.7,296.3 L916.9,371.7 L917.2,309.9 L917.4,368.0 L917.6,305.9 L917.8,334.6 L918.1,298.5 L918.3,335.7 L918.5,389.0 L918.7,332.2 L918.9,303.8 L919.2,394.3 L919.4,335.2 L919.6,308.6 L919.8,390.0 L920.1,313.3 L920.3,299.6 L920.5,351.2 L920.7,328.6 L920.9,369.6 L921.2,316.7 L921.4,385.3 L921.6,307.7 L921.8,393.1 L922.1,377.2 L922.3,306.8 L922.5,330.2 L922.7,366.1 L923.0,368.5 L923.2,307.3 L923.4,375.9 L923.6,324.5 L923.8,361.8 L924.1,345.2 L924.3,310.9 L924.5,304.7 L924.7,325.8 L925.0,334.9 L925.2,312.9 L925.4,324.4 L925.6,350.0 L925.8,351.8 L926.1,402.0 L926.3,336.2 L926.5,324.1 L926.7,380.8 L927.0,355.8 L927.2,399.7 L927.4,389.3 L927.6,326.4 L927.9,364.8 L928.1,314.5 L928.3,310.5 L928.5,386.5 L928.7,316.8 L929.0,351.8 L929.2,316.6 L929.4,333.5 L929.6,346.6 L929.9,390.2 L930.1,394.9 L930.3,387.9 L930.5,347.8 L930.7,363.9 L931.0,328.5 L931.2,353.1 L931.4,319.8 L931.6,316.2 L931.9,402.1 L932.1,395.2 L932.3,389.9 L932.5,407.5 L932.8,393.1 L933.0,320.1 L933.2,397.4 L933.4,404.3 L933.6,406.6 L933.9,331.1 L934.1,319.0 L934.3,344.0 L934.5,402.8 L934.8,364.4 L935.0,396.9 L935.2,375.7 L935.4,383.7 L935.6,345.4 L935.9,378.7 L936.1,351.4 L936.3,383.8 L936.5,391.7 L936.8,367.8 L937.0,345.8 L937.2,341.5 L937.4,338.0 L937.7,343.0 L937.9,368.2 L938.1,394.1 L938.3,389.2 L938.5,370.9 L938.8,396.0 L939.0,394.3 L939.2,356.7 L939.4,405.5 L939.7,413.2 L939.9,397.7 L940.1,410.2 L940.3,401.4 L940.5,407.1 L940.8,347.0 L941.0,349.4 L941.2,391.5 L941.4,348.8 L941.7,344.9 L941.9,367.6 L942.1,362.1 L942.3,336.0 L942.6,407.4 L942.8,385.9 L943.0,332.7 L943.2,356.2 L943.4,378.3 L943.7,339.2 L943.9,396.8 L944.1,377.6 L944.3,395.3 L944.6,336.7 L944.8,360.3 L945.0,356.2 L945.2,397.9 L945.4,410.8 L945.7,400.6 L945.9,361.7 L946.1,391.0 L946.3,363.5 L946.6,362.4 L946.8,396.7 L947.0,417.8 L947.2,387.1 L947.5,343.9 L947.7,377.9 L947.9,388.0 L948.1,417.8 L948.3,387.8 L948.6,349.3 L948.8,341.0 L949.0,383.6 L949.2,373.8 L949.5,347.7 L949.7,371.0 L949.9,405.8 L950.1,342.0 L950.3,382.6 L950.6,394.9 L950.8,352.7 L951.0,401.0 L951.2,408.7 L951.5,418.3 L951.7,357.5 L951.9,411.1 L952.1,367.1 L952.4,406.4 L952.6,367.8 L952.8,345.3 L953.0,359.5 L953.2,386.6 L953.5,378.1 L953.7,396.1 L953.9,416.9 L954.1,348.1 L954.4,383.8 L954.6,422.1 L954.8,379.0 L955.0,359.1 L955.2,380.2 L955.5,424.0 L955.7,382.0 L955.9,375.5 L956.1,414.7 L956.4,380.2 L956.6,358.0 L956.8,359.8 L957.0,425.6 L957.3,357.3 L957.5,378.4 L957.7,360.6 L957.9,397.7 L958.1,364.1 L958.4,361.5 L958.6,397.3 L958.8,376.1 L959.0,360.4 L959.3,396.3 L959.5,371.8 L959.7,364.8 L959.9,392.4 L960.2,365.3 L960.4,396.1 L960.6,410.4 L960.8,418.6 L961.0,362.9 L961.3,393.2 L961.5,420.8 L961.7,406.8 L961.9,402.2 L962.2,397.7 L962.4,390.1 L962.6,363.8 L962.8,416.6 L963.0,398.3 L963.3,427.8 L963.5,424.5 L963.7,383.8 L963.9,412.0 L964.2,384.9 L964.4,363.6 L964.6,418.1 L964.8,432.2 L965.1,408.5 L965.3,368.6 L965.5,422.7 L965.7,399.8 L965.9,404.7 L966.2,428.0 L966.4,412.2 L966.6,417.5 L966.8,370.0 L967.1,376.8 L967.3,422.6 L967.5,410.1 L967.7,390.1 L967.9,378.3 L968.2,437.9 L968.4,412.8 L968.6,396.4 L968.8,402.1 L969.1,378.9 L969.3,374.5 L969.5,418.6 L969.7,411.6 L970.0,403.2 L970.2,402.6 L970.4,400.6 L970.6,381.9 L970.8,441.3 L971.1,402.7 L971.3,404.6 L971.5,409.9 L971.7,419.3 L972.0,396.7 L972.2,392.4 L972.4,440.7 L972.6,407.1 L972.8,439.9 L973.1,443.0 L973.3,380.9 L973.5,406.3 L973.7,426.4 L974.0,417.3 L974.2,394.8 L974.4,444.2 L974.6,403.1 L974.9,392.7 L975.1,378.2 L975.3,414.5 L975.5,407.5 L975.7,411.6 L976.0,430.6 L976.2,387.7 L976.4,404.4 L976.6,393.3 L976.9,424.2 L977.1,410.0 L977.3,403.6 L977.5,382.7 L977.7,423.8 L978.0,385.3 L978.2,418.6 L978.4,384.3 L978.6,415.8 L978.9,410.0 L979.1,429.0 L979.3,437.7 L979.5,417.8 L979.8,421.6 L980.0,387.6 L980.2,413.1 L980.4,447.1 L980.6,415.5 L980.9,449.7 L981.1,441.2 L981.3,425.8 L981.5,440.3 L981.8,420.5 L982.0,433.2 L982.2,424.1 L982.4,433.6 L982.6,412.6 L982.9,426.3 L983.1,406.9 L983.3,402.9 L983.5,420.2 L983.8,418.5 L984.0,452.3 L984.2,396.9 L984.4,420.0 L984.7,402.1 L984.9,442.1 L985.1,392.9 L985.3,440.1 L985.5,408.6 L985.8,406.5 L986.0,394.6 L986.2,430.6 L986.4,428.5 L986.7,448.8 L986.9,408.6 L987.1,420.9 L987.3,443.4 L987.5,417.8 L987.8,397.2 L988.0,445.5 L988.2,413.8 L988.4,413.2 L988.7,442.5 L988.9,410.9 L989.1,439.1 L989.3,454.6 L989.6,408.3 L989.8,456.7 L990.0,405.5 L990.2,431.4 L990.4,424.1 L990.7,448.7 L990.9,419.6 L991.1,411.7 L991.3,423.9 L991.6,450.2 L991.8,418.7 L992.0,434.2 L992.2,426.7 L992.4,421.5 L992.7,426.1 L992.9,425.4 L993.1,405.7 L993.3,421.7 L993.6,426.8 L993.8,454.2 L994.0,453.7 L994.2,456.8 L994.5,449.0 L994.7,435.1 L994.9,450.9 L995.1,415.8 L995.3,451.0 L995.6,438.6 L995.8,416.5 L996.0,447.9 L996.2,449.7 L996.5,438.3 L996.7,439.0 L996.9,424.5 L997.1,450.5 L997.3,437.9 L997.6,415.4 L997.8,438.5 L998.0,439.2 L998.2,429.9 L998.5,450.3 L998.7,447.6 L998.9,436.9 L999.1,432.9 L999.4,462.2 L999.6,426.3 L999.8,423.5 L1000.0,421.9 L1000.2,425.5 L1000.5,444.7 L1000.7,425.9 L1000.9,436.8 L1001.1,450.2 L1001.4,443.8 L1001.6,419.7 L1001.8,428.9 L1002.0,450.8 L1002.3,450.6 L1002.5,436.1 L1002.7,419.8 L1002.9,433.0 L1003.1,433.4 L1003.4,453.1 L1003.6,442.8 L1003.8,460.8 L1004.0,425.7 L1004.3,462.9 L1004.5,437.6 L1004.7,428.5 L1004.9,421.9 L1005.1,440.8 L1005.4,438.9 L1005.6,458.4 L1005.8,446.9 L1006.0,431.1 L1006.3,466.3 L1006.5,458.9 L1006.7,458.7 L1006.9,468.3 L1007.2,464.5 L1007.4,451.9 L1007.6,458.3 L1007.8,429.7 L1008.0,458.9 L1008.3,434.7 L1008.5,470.2 L1008.7,429.4 L1008.9,447.2 L1009.2,451.1 L1009.4,461.5 L1009.6,470.7 L1009.8,457.8 L1010.0,462.0 L1010.3,441.6 L1010.5,472.4 L1010.7,473.3 L1010.9,467.8 L1011.2,432.7 L1011.4,453.8 L1011.6,436.0 L1011.8,471.7 L1012.1,459.8 L1012.3,450.2 L1012.5,439.3 L1012.7,469.7 L1012.9,451.6 L1013.2,440.8 L1013.4,450.1 L1013.6,455.5 L1013.8,479.5 L1014.1,451.8 L1014.3,452.3 L1014.5,453.4 L1014.7,474.7 L1014.9,477.5 L1015.2,462.0 L1015.4,441.1 L1015.6,474.8 L1015.8,471.6 L1016.1,444.0 L1016.3,440.0 L1016.5,466.4 L1016.7,463.1 L1017.0,441.8 L1017.2,480.3 L1017.4,457.0 L1017.6,445.4 L1017.8,467.3 L1018.1,459.8 L1018.3,473.4 L1018.5,474.8 L1018.7,443.4 L1019.0,459.2 L1019.2,474.2 L1019.4,449.2 L1019.6,454.1 L1019.8,476.3 L1020.1,453.5 L1020.3,484.0 L1020.5,478.3 L1020.7,480.1 L1021.0,460.9 L1021.2,453.1 L1021.4,474.4 L1021.6,451.8 L1021.9,458.9 L1022.1,485.7 L1022.3,454.2 L1022.5,450.8 L1022.7,454.5 L1023.0,484.6 L1023.2,474.8 L1023.4,455.4 L1023.6,451.1 L1023.9,475.4 L1024.1,469.6 L1024.3,487.2 L1024.5,468.2 L1024.7,470.5 L1025.0,486.0 L1025.2,457.4 L1025.4,454.2 L1025.6,479.4 L1025.9,455.1 L1026.1,464.6 L1026.3,476.6 L1026.5,469.3 L1026.8,485.5 L1027.0,489.0 L1027.2,479.7 L1027.4,484.9 L1027.6,461.1 L1027.9,458.4 L1028.1,478.0 L1028.3,479.3 L1028.5,458.3 L1028.8,478.4 L1029.0,461.4 L1029.2,468.8 L1029.4,477.3 L1029.6,463.7 L1029.9,483.7 L1030.1,475.5 L1030.3,469.9 L1030.5,470.1 L1030.8,466.9 L1031.0,462.6 L1031.2,474.6 L1031.4,474.8 L1031.7,489.1 L1031.9,464.6 L1032.1,495.1 L1032.3,472.6 L1032.5,480.2 L1032.8,482.0 L1033.0,477.9 L1033.2,482.0 L1033.4,481.4 L1033.7,480.7 L1033.9,475.5 L1034.1,481.9 L1034.3,486.6 L1034.5,488.6 L1034.8,480.5 L1035.0,479.7 L1035.2,476.8 L1035.4,494.4 L1035.7,490.3 L1035.9,489.7 L1036.1,479.1 L1036.3,490.6 L1036.6,497.8 L1036.8,470.0 L1037.0,489.3 L1037.2,488.5 L1037.4,483.7 L1037.7,479.6 L1037.9,472.4 L1038.1,499.9 L1038.3,495.6 L1038.6,496.1 L1038.8,501.4 L1039.0,479.9 L1039.2,497.6 L1039.4,483.6 L1039.7,476.2 L1039.9,481.4 L1040.1,501.5 L1040.3,493.3 L1040.6,476.9 L1040.8,503.8 L1041.0,497.0 L1041.2,495.0 L1041.5,488.5 L1041.7,490.0 L1041.9,487.9 L1042.1,505.3 L1042.3,487.3 L1042.6,485.2 L1042.8,486.8 L1043.0,484.0 L1043.2,497.0 L1043.5,502.8 L1043.7,487.6 L1043.9,481.8 L1044.1,497.5 L1044.4,481.4 L1044.6,504.3 L1044.8,488.3 L1045.0,499.7 L1045.2,492.2 L1045.5,501.5 L1045.7,485.8 L1045.9,493.0 L1046.1,504.2 L1046.4,493.8 L1046.6,509.1 L1046.8,496.5 L1047.0,491.4 L1047.2,495.3 L1047.5,497.7 L1047.7,498.1 L1047.9,491.2 L1048.1,492.1 L1048.4,503.1 L1048.6,501.6 L1048.8,498.5 L1049.0,492.9 L1049.3,504.7 L1049.5,489.6 L1049.7,507.2 L1049.9,498.1 L1050.1,501.7 L1050.4,501.7 L1050.6,498.4 L1050.8,495.3 L1051.0,497.3 L1051.3,501.6 L1051.5,513.0 L1051.7,501.2 L1051.9,505.9 L1052.1,505.9 L1052.4,499.0 L1052.6,499.9 L1052.8,509.1 L1053.0,515.1 L1053.3,514.8 L1053.5,510.2 L1053.7,499.1 L1053.9,505.0 L1054.2,504.2 L1054.4,506.4 L1054.6,507.9 L1054.8,511.5 L1055.0,514.2 L1055.3,505.7 L1055.5,517.1 L1055.7,510.0 L1055.9,509.7 L1056.2,505.0 L1056.4,504.5 L1056.6,513.8 L1056.8,514.3 L1057.0,510.7 L1057.3,510.9 L1057.5,519.0 L1057.7,505.6 L1057.9,519.5 L1058.2,506.7 L1058.4,505.6 L1058.6,510.7 L1058.8,520.4 L1059.1,510.6 L1059.3,518.4 L1059.5,511.4 L1059.7,512.7 L1059.9,521.2 L1060.2,515.0 L1060.4,514.9 L1060.6,517.3 L1060.8,521.4 L1061.1,514.4 L1061.3,521.0 L1061.5,516.3 L1061.7,516.5 L1061.9,515.1 L1062.2,511.9 L1062.4,515.0 L1062.6,510.7 L1062.8,522.3 L1063.1,522.8 L1063.3,512.0 L1063.5,524.1 L1063.7,511.4 L1064.0,523.4 L1064.2,519.3 L1064.4,518.7 L1064.6,515.9 L1064.8,525.0 L1065.1,522.9 L1065.3,526.2 L1065.5,519.6 L1065.7,515.5 L1066.0,526.2 L1066.2,522.1 L1066.4,523.6 L1066.6,520.9 L1066.8,519.5 L1067.1,525.0 L1067.3,525.8 L1067.5,518.1 L1067.7,526.7 L1068.0,525.6 L1068.2,526.6 L1068.4,518.1 L1068.6,526.2 L1068.9,527.4 L1069.1,523.5 L1069.3,528.9 L1069.5,526.9 L1069.7,522.6 L1070.0,522.5 L1070.2,530.8 L1070.4,523.8 L1070.6,530.0 L1070.9,530.2 L1071.1,529.5 L1071.3,529.2 L1071.5,528.9 L1071.7,526.5 L1072.0,527.7 L1072.2,528.1 L1072.4,527.0 L1072.6,530.8 L1072.9,529.4 L1073.1,532.4 L1073.3,531.1 L1073.5,527.2 L1073.8,528.6 L1074.0,528.7 L1074.2,532.9 L1074.4,528.9 L1074.6,530.0 L1074.9,530.7 L1075.1,530.3 L1075.3,534.6 L1075.5,529.3 L1075.8,530.0 L1076.0,530.4 L1076.2,530.7 L1076.4,536.6 L1076.6,533.1 L1076.9,533.7 L1077.1,533.9 L1077.3,533.4 L1077.5,533.0 L1077.8,533.2 L1078.0,536.5 L1078.2,534.5 L1078.4,537.7 L1078.7,536.1 L1078.9,538.1 L1079.1,535.0 L1079.3,536.0 L1079.5,537.7 L1079.8,537.6 L1080.0,539.2 L1080.2,539.6 L1080.4,537.1 L1080.7,539.3 L1080.9,541.1 L1081.1,538.9 L1081.3,540.6 L1081.5,541.2 L1081.8,540.3 L1082.0,541.3 L1082.2,541.1 L1082.4,542.3 L1082.7,542.1 L1082.9,543.0 L1083.1,542.0 L1083.3,541.4 L1083.6,542.2 L1083.8,542.3 L1084.0,543.6" fill="none" stroke="#1f77b4" stroke-width="1.4" opacity="0.85"/><text x="1040" y="54" fill="#ff7f0e" font-size="11">roll 0</text><text x="1090" y="558" fill="#ff7f0e" font-size="11">-0</text><path d="M616.0,427.0 L616.2,193.0 L616.4,368.5 L616.7,251.5 L616.9,427.0 L617.1,310.0 L617.3,251.5 L617.6,193.0 L617.8,193.0 L618.0,310.0 L618.2,193.0 L618.5,310.0 L618.7,310.0 L618.9,368.5 L619.1,193.0 L619.3,251.5 L619.6,427.0 L619.8,251.5 L620.0,251.5 L620.2,427.0 L620.5,193.0 L620.7,193.0 L620.9,368.5 L621.1,193.0 L621.3,427.0 L621.6,193.0 L621.8,368.5 L622.0,368.5 L622.2,368.5 L622.5,193.0 L622.7,251.5 L622.9,368.5 L623.1,368.5 L623.4,251.5 L623.6,368.5 L623.8,310.0 L624.0,193.0 L624.2,368.5 L624.5,251.5 L624.7,193.0 L624.9,193.0 L625.1,427.0 L625.4,427.0 L625.6,193.0 L625.8,251.5 L626.0,193.0 L626.2,368.5 L626.5,193.0 L626.7,368.5 L626.9,427.0 L627.1,193.0 L627.4,427.0 L627.6,427.0 L627.8,368.5 L628.0,427.0 L628.3,427.0 L628.5,193.0 L628.7,193.0 L628.9,368.5 L629.1,251.5 L629.4,310.0 L629.6,427.0 L629.8,251.5 L630.0,310.0 L630.3,427.0 L630.5,368.5 L630.7,368.5 L630.9,310.0 L631.1,310.0 L631.4,251.5 L631.6,193.0 L631.8,310.0 L632.0,368.5 L632.3,251.5 L632.5,310.0 L632.7,310.0 L632.9,368.5 L633.2,310.0 L633.4,427.0 L633.6,427.0 L633.8,251.5 L634.0,310.0 L634.3,251.5 L634.5,368.5 L634.7,310.0 L634.9,193.0 L635.2,310.0 L635.4,193.0 L635.6,310.0 L635.8,427.0 L636.0,427.0 L636.3,251.5 L636.5,368.5 L636.7,193.0 L636.9,251.5 L637.2,193.0 L637.4,368.5 L637.6,310.0 L637.8,193.0 L638.1,310.0 L638.3,427.0 L638.5,310.0 L638.7,193.0 L638.9,193.0 L639.2,251.5 L639.4,251.5 L639.6,368.5 L639.8,310.0 L640.1,368.5 L640.3,193.0 L640.5,427.0 L640.7,251.5 L640.9,310.0 L641.2,310.0 L641.4,368.5 L641.6,427.0 L641.8,251.5 L642.1,310.0 L642.3,310.0 L642.5,251.5 L642.7,368.5 L643.0,368.5 L643.2,368.5 L643.4,427.0 L643.6,368.5 L643.8,427.0 L644.1,368.5 L644.3,310.0 L644.5,310.0 L644.7,251.5 L645.0,310.0 L645.2,193.0 L645.4,368.5 L645.6,368.5 L645.8,368.5 L646.1,251.5 L646.3,368.5 L646.5,427.0 L646.7,251.5 L647.0,310.0 L647.2,251.5 L647.4,310.0 L647.6,251.5 L647.9,251.5 L648.1,251.5 L648.3,310.0 L648.5,368.5 L648.7,310.0 L649.0,310.0 L649.2,368.5 L649.4,193.0 L649.6,368.5 L649.9,193.0 L650.1,310.0 L650.3,368.5 L650.5,427.0 L650.7,310.0 L651.0,310.0 L651.2,427.0 L651.4,251.5 L651.6,193.0 L651.9,193.0 L652.1,193.0 L652.3,310.0 L652.5,427.0 L652.8,251.5 L653.0,251.5 L653.2,427.0 L653.4,427.0 L653.6,251.5 L653.9,368.5 L654.1,193.0 L654.3,310.0 L654.5,251.5 L654.8,251.5 L655.0,427.0 L655.2,251.5 L655.4,368.5 L655.6,310.0 L655.9,251.5 L656.1,310.0 L656.3,310.0 L656.5,251.5 L656.8,427.0 L657.0,251.5 L657.2,427.0 L657.4,310.0 L657.7,310.0 L657.9,427.0 L658.1,251.5 L658.3,251.5 L658.5,193.0 L658.8,193.0 L659.0,193.0 L659.2,427.0 L659.4,193.0 L659.7,251.5 L659.9,310.0 L660.1,368.5 L660.3,251.5 L660.6,310.0 L660.8,193.0 L661.0,368.5 L661.2,193.0 L661.4,368.5 L661.7,310.0 L661.9,310.0 L662.1,368.5 L662.3,427.0 L662.6,368.5 L662.8,368.5 L663.0,193.0 L663.2,251.5 L663.4,368.5 L663.7,193.0 L663.9,310.0 L664.1,368.5 L664.3,251.5 L664.6,368.5 L664.8,368.5 L665.0,251.5 L665.2,368.5 L665.5,368.5 L665.7,368.5 L665.9,251.5 L666.1,310.0 L666.3,310.0 L666.6,310.0 L666.8,368.5 L667.0,368.5 L667.2,310.0 L667.5,251.5 L667.7,251.5 L667.9,368.5 L668.1,368.5 L668.3,427.0 L668.6,251.5 L668.8,427.0 L669.0,251.5 L669.2,193.0 L669.5,427.0 L669.7,193.0 L669.9,193.0 L670.1,310.0 L670.4,193.0 L670.6,251.5 L670.8,427.0 L671.0,251.5 L671.2,427.0 L671.5,251.5 L671.7,251.5 L671.9,251.5 L672.1,310.0 L672.4,310.0 L672.6,193.0 L672.8,368.5 L673.0,427.0 L673.2,427.0 L673.5,310.0 L673.7,427.0 L673.9,368.5 L674.1,368.5 L674.4,193.0 L674.6,251.5 L674.8,193.0 L675.0,310.0 L675.3,310.0 L675.5,251.5 L675.7,193.0 L675.9,310.0 L676.1,368.5 L676.4,251.5 L676.6,310.0 L676.8,193.0 L677.0,193.0 L677.3,251.5 L677.5,310.0 L677.7,427.0 L677.9,427.0 L678.1,251.5 L678.4,368.5 L678.6,251.5 L678.8,368.5 L679.0,193.0 L679.3,368.5 L679.5,427.0 L679.7,251.5 L679.9,193.0 L680.2,251.5 L680.4,368.5 L680.6,251.5 L680.8,310.0 L681.0,193.0 L681.3,310.0 L681.5,193.0 L681.7,193.0 L681.9,251.5 L682.2,193.0 L682.4,193.0 L682.6,310.0 L682.8,310.0 L683.0,193.0 L683.3,310.0 L683.5,368.5 L683.7,368.5 L683.9,251.5 L684.2,251.5 L684.4,310.0 L684.6,427.0 L684.8,251.5 L685.1,427.0 L685.3,427.0 L685.5,427.0 L685.7,251.5 L685.9,310.0 L686.2,310.0 L686.4,193.0 L686.6,193.0 L686.8,193.0 L687.1,310.0 L687.3,251.5 L687.5,310.0 L687.7,193.0 L687.9,251.5 L688.2,310.0 L688.4,310.0 L688.6,193.0 L688.8,251.5 L689.1,310.0 L689.3,251.5 L689.5,368.5 L689.7,427.0 L690.0,251.5 L690.2,310.0 L690.4,134.5 L690.6,368.5 L690.8,368.5 L691.1,368.5 L691.3,193.0 L691.5,193.0 L691.7,310.0 L692.0,310.0 L692.2,251.5 L692.4,368.5 L692.6,427.0 L692.8,251.5 L693.1,368.5 L693.3,310.0 L693.5,310.0 L693.7,368.5 L694.0,368.5 L694.2,368.5 L694.4,310.0 L694.6,427.0 L694.9,368.5 L695.1,134.5 L695.3,427.0 L695.5,251.5 L695.7,368.5 L696.0,193.0 L696.2,310.0 L696.4,251.5 L696.6,485.5 L696.9,134.5 L697.1,368.5 L697.3,310.0 L697.5,368.5 L697.7,251.5 L698.0,368.5 L698.2,427.0 L698.4,251.5 L698.6,193.0 L698.9,193.0 L699.1,368.5 L699.3,310.0 L699.5,368.5 L699.8,368.5 L700.0,427.0 L700.2,251.5 L700.4,310.0 L700.6,251.5 L700.9,193.0 L701.1,427.0 L701.3,368.5 L701.5,251.5 L701.8,485.5 L702.0,134.5 L702.2,368.5 L702.4,368.5 L702.7,427.0 L702.9,134.5 L703.1,310.0 L703.3,193.0 L703.5,251.5 L703.8,193.0 L704.0,310.0 L704.2,368.5 L704.4,310.0 L704.7,427.0 L704.9,251.5 L705.1,251.5 L705.3,427.0 L705.5,368.5 L705.8,310.0 L706.0,310.0 L706.2,368.5 L706.4,310.0 L706.7,251.5 L706.9,368.5 L707.1,368.5 L707.3,310.0 L707.6,310.0 L707.8,251.5 L708.0,368.5 L708.2,251.5 L708.4,193.0 L708.7,368.5 L708.9,193.0 L709.1,251.5 L709.3,427.0 L709.6,251.5 L709.8,427.0 L710.0,427.0 L710.2,310.0 L710.4,193.0 L710.7,193.0 L710.9,427.0 L711.1,134.5 L711.3,368.5 L711.6,368.5 L711.8,368.5 L712.0,310.0 L712.2,251.5 L712.5,193.0 L712.7,368.5 L712.9,310.0 L713.1,368.5 L713.3,134.5 L713.6,485.5 L713.8,368.5 L714.0,310.0 L714.2,193.0 L714.5,368.5 L714.7,134.5 L714.9,251.5 L715.1,193.0 L715.3,368.5 L715.6,251.5 L715.8,368.5 L716.0,193.0 L716.2,251.5 L716.5,193.0 L716.7,251.5 L716.9,368.5 L717.1,310.0 L717.4,251.5 L717.6,427.0 L717.8,368.5 L718.0,193.0 L718.2,427.0 L718.5,427.0 L718.7,134.5 L718.9,368.5 L719.1,427.0 L719.4,427.0 L719.6,193.0 L719.8,251.5 L720.0,193.0 L720.2,368.5 L720.5,310.0 L720.7,427.0 L720.9,251.5 L721.1,368.5 L721.4,310.0 L721.6,251.5 L721.8,368.5 L722.0,427.0 L722.3,134.5 L722.5,427.0 L722.7,427.0 L722.9,368.5 L723.1,368.5 L723.4,310.0 L723.6,251.5 L723.8,427.0 L724.0,134.5 L724.3,193.0 L724.5,310.0 L724.7,193.0 L724.9,193.0 L725.1,427.0 L725.4,251.5 L725.6,134.5 L725.8,368.5 L726.0,251.5 L726.3,368.5 L726.5,310.0 L726.7,368.5 L726.9,134.5 L727.2,485.5 L727.4,76.0 L727.6,193.0 L727.8,310.0 L728.0,368.5 L728.3,310.0 L728.5,427.0 L728.7,368.5 L728.9,310.0 L729.2,134.5 L729.4,251.5 L729.6,193.0 L729.8,485.5 L730.0,193.0 L730.3,368.5 L730.5,310.0 L730.7,193.0 L730.9,251.5 L731.2,368.5 L731.4,427.0 L731.6,134.5 L731.8,251.5 L732.1,193.0 L732.3,251.5 L732.5,368.5 L732.7,310.0 L732.9,193.0 L733.2,427.0 L733.4,310.0 L733.6,427.0 L733.8,427.0 L734.1,134.5 L734.3,193.0 L734.5,485.5 L734.7,368.5 L734.9,134.5 L735.2,427.0 L735.4,251.5 L735.6,251.5 L735.8,310.0 L736.1,427.0 L736.3,251.5 L736.5,368.5 L736.7,251.5 L737.0,251.5 L737.2,193.0 L737.4,251.5 L737.6,193.0 L737.8,427.0 L738.1,251.5 L738.3,427.0 L738.5,368.5 L738.7,310.0 L739.0,427.0 L739.2,427.0 L739.4,427.0 L739.6,193.0 L739.8,368.5 L740.1,251.5 L740.3,427.0 L740.5,310.0 L740.7,193.0 L741.0,251.5 L741.2,310.0 L741.4,193.0 L741.6,251.5 L741.9,251.5 L742.1,485.5 L742.3,427.0 L742.5,368.5 L742.7,193.0 L743.0,485.5 L743.2,310.0 L743.4,251.5 L743.6,251.5 L743.9,485.5 L744.1,427.0 L744.3,427.0 L744.5,251.5 L744.8,251.5 L745.0,485.5 L745.2,368.5 L745.4,368.5 L745.6,193.0 L745.9,368.5 L746.1,193.0 L746.3,368.5 L746.5,193.0 L746.8,310.0 L747.0,251.5 L747.2,427.0 L747.4,368.5 L747.6,193.0 L747.9,427.0 L748.1,310.0 L748.3,310.0 L748.5,251.5 L748.8,251.5 L749.0,310.0 L749.2,427.0 L749.4,193.0 L749.7,427.0 L749.9,368.5 L750.1,251.5 L750.3,251.5 L750.5,251.5 L750.8,368.5 L751.0,368.5 L751.2,368.5 L751.4,193.0 L751.7,427.0 L751.9,310.0 L752.1,368.5 L752.3,368.5 L752.5,427.0 L752.8,134.5 L753.0,485.5 L753.2,310.0 L753.4,310.0 L753.7,251.5 L753.9,368.5 L754.1,193.0 L754.3,368.5 L754.6,368.5 L754.8,193.0 L755.0,310.0 L755.2,251.5 L755.4,251.5 L755.7,427.0 L755.9,134.5 L756.1,427.0 L756.3,368.5 L756.6,251.5 L756.8,368.5 L757.0,310.0 L757.2,427.0 L757.4,134.5 L757.7,251.5 L757.9,310.0 L758.1,310.0 L758.3,427.0 L758.6,193.0 L758.8,193.0 L759.0,310.0 L759.2,251.5 L759.5,485.5 L759.7,134.5 L759.9,368.5 L760.1,193.0 L760.3,485.5 L760.6,193.0 L760.8,193.0 L761.0,193.0 L761.2,485.5 L761.5,251.5 L761.7,427.0 L761.9,427.0 L762.1,368.5 L762.3,193.0 L762.6,251.5 L762.8,368.5 L763.0,193.0 L763.2,310.0 L763.5,193.0 L763.7,485.5 L763.9,427.0 L764.1,193.0 L764.4,368.5 L764.6,251.5 L764.8,310.0 L765.0,427.0 L765.2,427.0 L765.5,368.5 L765.7,427.0 L765.9,251.5 L766.1,427.0 L766.4,368.5 L766.6,427.0 L766.8,310.0 L767.0,427.0 L767.2,368.5 L767.5,134.5 L767.7,368.5 L767.9,134.5 L768.1,485.5 L768.4,427.0 L768.6,251.5 L768.8,368.5 L769.0,310.0 L769.3,368.5 L769.5,368.5 L769.7,368.5 L769.9,134.5 L770.1,251.5 L770.4,193.0 L770.6,310.0 L770.8,134.5 L771.0,310.0 L771.3,310.0 L771.5,310.0 L771.7,368.5 L771.9,310.0 L772.1,368.5 L772.4,368.5 L772.6,427.0 L772.8,427.0 L773.0,193.0 L773.3,251.5 L773.5,368.5 L773.7,368.5 L773.9,251.5 L774.2,310.0 L774.4,427.0 L774.6,251.5 L774.8,251.5 L775.0,485.5 L775.3,193.0 L775.5,310.0 L775.7,427.0 L775.9,193.0 L776.2,427.0 L776.4,310.0 L776.6,251.5 L776.8,427.0 L777.0,193.0 L777.3,310.0 L777.5,251.5 L777.7,427.0 L777.9,368.5 L778.2,193.0 L778.4,485.5 L778.6,310.0 L778.8,193.0 L779.1,251.5 L779.3,368.5 L779.5,310.0 L779.7,310.0 L779.9,310.0 L780.2,368.5 L780.4,368.5 L780.6,193.0 L780.8,427.0 L781.1,427.0 L781.3,368.5 L781.5,251.5 L781.7,427.0 L781.9,368.5 L782.2,251.5 L782.4,251.5 L782.6,485.5 L782.8,368.5 L783.1,310.0 L783.3,251.5 L783.5,310.0 L783.7,134.5 L784.0,310.0 L784.2,427.0 L784.4,368.5 L784.6,368.5 L784.8,193.0 L785.1,310.0 L785.3,427.0 L785.5,368.5 L785.7,368.5 L786.0,193.0 L786.2,193.0 L786.4,427.0 L786.6,368.5 L786.9,310.0 L787.1,427.0 L787.3,310.0 L787.5,368.5 L787.7,193.0 L788.0,368.5 L788.2,193.0 L788.4,310.0 L788.6,368.5 L788.9,134.5 L789.1,193.0 L789.3,251.5 L789.5,251.5 L789.7,251.5 L790.0,251.5 L790.2,427.0 L790.4,251.5 L790.6,368.5 L790.9,251.5 L791.1,251.5 L791.3,310.0 L791.5,193.0 L791.8,251.5 L792.0,485.5 L792.2,310.0 L792.4,310.0 L792.6,368.5 L792.9,368.5 L793.1,310.0 L793.3,193.0 L793.5,310.0 L793.8,134.5 L794.0,310.0 L794.2,485.5 L794.4,134.5 L794.6,310.0 L794.9,427.0 L795.1,193.0 L795.3,193.0 L795.5,193.0 L795.8,368.5 L796.0,134.5 L796.2,427.0 L796.4,251.5 L796.7,251.5 L796.9,193.0 L797.1,310.0 L797.3,251.5 L797.5,251.5 L797.8,427.0 L798.0,134.5 L798.2,310.0 L798.4,310.0 L798.7,368.5 L798.9,368.5 L799.1,368.5 L799.3,310.0 L799.5,485.5 L799.8,427.0 L800.0,251.5 L800.2,368.5 L800.4,134.5 L800.7,427.0 L800.9,134.5 L801.1,251.5 L801.3,368.5 L801.6,427.0 L801.8,427.0 L802.0,251.5 L802.2,368.5 L802.4,427.0 L802.7,193.0 L802.9,251.5 L803.1,368.5 L803.3,251.5 L803.6,368.5 L803.8,251.5 L804.0,251.5 L804.2,427.0 L804.4,310.0 L804.7,193.0 L804.9,368.5 L805.1,427.0 L805.3,193.0 L805.6,427.0 L805.8,368.5 L806.0,251.5 L806.2,368.5 L806.5,427.0 L806.7,134.5 L806.9,310.0 L807.1,427.0 L807.3,310.0 L807.6,427.0 L807.8,193.0 L808.0,310.0 L808.2,251.5 L808.5,427.0 L808.7,134.5 L808.9,251.5 L809.1,310.0 L809.3,193.0 L809.6,368.5 L809.8,193.0 L810.0,427.0 L810.2,251.5 L810.5,427.0 L810.7,427.0 L810.9,251.5 L811.1,193.0 L811.4,368.5 L811.6,193.0 L811.8,251.5 L812.0,251.5 L812.2,485.5 L812.5,310.0 L812.7,310.0 L812.9,427.0 L813.1,251.5 L813.4,251.5 L813.6,310.0 L813.8,193.0 L814.0,251.5 L814.2,310.0 L814.5,368.5 L814.7,427.0 L814.9,310.0 L815.1,427.0 L815.4,310.0 L815.6,368.5 L815.8,427.0 L816.0,251.5 L816.3,368.5 L816.5,368.5 L816.7,427.0 L816.9,251.5 L817.1,427.0 L817.4,134.5 L817.6,485.5 L817.8,427.0 L818.0,310.0 L818.3,193.0 L818.5,427.0 L818.7,134.5 L818.9,251.5 L819.1,427.0 L819.4,193.0 L819.6,310.0 L819.8,368.5 L820.0,193.0 L820.3,485.5 L820.5,310.0 L820.7,310.0 L820.9,427.0 L821.2,368.5 L821.4,368.5 L821.6,251.5 L821.8,427.0 L822.0,134.5 L822.3,427.0 L822.5,427.0 L822.7,193.0 L822.9,368.5 L823.2,134.5 L823.4,193.0 L823.6,485.5 L823.8,251.5 L824.0,251.5 L824.3,193.0 L824.5,368.5 L824.7,193.0 L824.9,251.5 L825.2,310.0 L825.4,193.0 L825.6,427.0 L825.8,427.0 L826.1,310.0 L826.3,427.0 L826.5,134.5 L826.7,485.5 L826.9,310.0 L827.2,251.5 L827.4,368.5 L827.6,251.5 L827.8,193.0 L828.1,427.0 L828.3,251.5 L828.5,485.5 L828.7,368.5 L829.0,251.5 L829.2,485.5 L829.4,427.0 L829.6,134.5 L829.8,485.5 L830.1,193.0 L830.3,310.0 L830.5,310.0 L830.7,251.5 L831.0,251.5 L831.2,368.5 L831.4,310.0 L831.6,310.0 L831.8,368.5 L832.1,251.5 L832.3,193.0 L832.5,485.5 L832.7,193.0 L833.0,427.0 L833.2,310.0 L833.4,251.5 L833.6,251.5 L833.9,310.0 L834.1,193.0 L834.3,368.5 L834.5,193.0 L834.7,193.0 L835.0,193.0 L835.2,310.0 L835.4,368.5 L835.6,310.0 L835.9,427.0 L836.1,368.5 L836.3,310.0 L836.5,193.0 L836.7,368.5 L837.0,134.5 L837.2,368.5 L837.4,193.0 L837.6,193.0 L837.9,310.0 L838.1,368.5 L838.3,251.5 L838.5,251.5 L838.8,193.0 L839.0,427.0 L839.2,134.5 L839.4,310.0 L839.6,193.0 L839.9,310.0 L840.1,485.5 L840.3,134.5 L840.5,485.5 L840.8,310.0 L841.0,310.0 L841.2,368.5 L841.4,368.5 L841.6,251.5 L841.9,251.5 L842.1,310.0 L842.3,368.5 L842.5,310.0 L842.8,310.0 L843.0,193.0 L843.2,310.0 L843.4,251.5 L843.7,251.5 L843.9,251.5 L844.1,368.5 L844.3,251.5 L844.5,368.5 L844.8,251.5 L845.0,251.5 L845.2,427.0 L845.4,134.5 L845.7,368.5 L845.9,193.0 L846.1,193.0 L846.3,485.5 L846.5,368.5 L846.8,193.0 L847.0,310.0 L847.2,310.0 L847.4,427.0 L847.7,193.0 L847.9,427.0 L848.1,310.0 L848.3,193.0 L848.6,251.5 L848.8,368.5 L849.0,427.0 L849.2,251.5 L849.4,310.0 L849.7,251.5 L849.9,368.5 L850.1,310.0 L850.3,193.0 L850.6,251.5 L850.8,310.0 L851.0,251.5 L851.2,193.0 L851.4,193.0 L851.7,251.5 L851.9,310.0 L852.1,310.0 L852.3,251.5 L852.6,368.5 L852.8,193.0 L853.0,485.5 L853.2,310.0 L853.5,193.0 L853.7,310.0 L853.9,310.0 L854.1,368.5 L854.3,310.0 L854.6,368.5 L854.8,368.5 L855.0,368.5 L855.2,251.5 L855.5,485.5 L855.7,193.0 L855.9,193.0 L856.1,485.5 L856.3,251.5 L856.6,485.5 L856.8,251.5 L857.0,368.5 L857.2,368.5 L857.5,251.5 L857.7,310.0 L857.9,368.5 L858.1,134.5 L858.4,485.5 L858.6,368.5 L858.8,310.0 L859.0,427.0 L859.2,251.5 L859.5,485.5 L859.7,368.5 L859.9,193.0 L860.1,310.0 L860.4,427.0 L860.6,368.5 L860.8,251.5 L861.0,368.5 L861.2,427.0 L861.5,368.5 L861.7,368.5 L861.9,310.0 L862.1,427.0 L862.4,368.5 L862.6,310.0 L862.8,251.5 L863.0,427.0 L863.3,427.0 L863.5,251.5 L863.7,193.0 L863.9,485.5 L864.1,251.5 L864.4,427.0 L864.6,310.0 L864.8,310.0 L865.0,368.5 L865.3,251.5 L865.5,251.5 L865.7,427.0 L865.9,368.5 L866.1,251.5 L866.4,251.5 L866.6,368.5 L866.8,251.5 L867.0,251.5 L867.3,193.0 L867.5,368.5 L867.7,193.0 L867.9,485.5 L868.2,427.0 L868.4,193.0 L868.6,485.5 L868.8,251.5 L869.0,485.5 L869.3,310.0 L869.5,368.5 L869.7,251.5 L869.9,251.5 L870.2,485.5 L870.4,193.0 L870.6,368.5 L870.8,368.5 L871.0,251.5 L871.3,485.5 L871.5,251.5 L871.7,427.0 L871.9,193.0 L872.2,427.0 L872.4,251.5 L872.6,193.0 L872.8,251.5 L873.1,310.0 L873.3,310.0 L873.5,193.0 L873.7,251.5 L873.9,368.5 L874.2,193.0 L874.4,485.5 L874.6,134.5 L874.8,310.0 L875.1,368.5 L875.3,310.0 L875.5,427.0 L875.7,310.0 L876.0,310.0 L876.2,310.0 L876.4,193.0 L876.6,310.0 L876.8,485.5 L877.1,134.5 L877.3,485.5 L877.5,368.5 L877.7,193.0 L878.0,368.5 L878.2,251.5 L878.4,251.5 L878.6,310.0 L878.8,368.5 L879.1,251.5 L879.3,310.0 L879.5,368.5 L879.7,193.0 L880.0,310.0 L880.2,310.0 L880.4,310.0 L880.6,251.5 L880.9,193.0 L881.1,368.5 L881.3,251.5 L881.5,368.5 L881.7,427.0 L882.0,310.0 L882.2,310.0 L882.4,193.0 L882.6,368.5 L882.9,368.5 L883.1,368.5 L883.3,310.0 L883.5,427.0 L883.7,310.0 L884.0,193.0 L884.2,427.0 L884.4,368.5 L884.6,193.0 L884.9,368.5 L885.1,193.0 L885.3,251.5 L885.5,368.5 L885.8,310.0 L886.0,368.5 L886.2,134.5 L886.4,368.5 L886.6,427.0 L886.9,427.0 L887.1,134.5 L887.3,310.0 L887.5,427.0 L887.8,193.0 L888.0,485.5 L888.2,310.0 L888.4,193.0 L888.6,251.5 L888.9,485.5 L889.1,251.5 L889.3,251.5 L889.5,251.5 L889.8,310.0 L890.0,427.0 L890.2,134.5 L890.4,251.5 L890.7,193.0 L890.9,368.5 L891.1,310.0 L891.3,193.0 L891.5,485.5 L891.8,251.5 L892.0,427.0 L892.2,193.0 L892.4,251.5 L892.7,193.0 L892.9,310.0 L893.1,193.0 L893.3,310.0 L893.5,251.5 L893.8,427.0 L894.0,310.0 L894.2,310.0 L894.4,368.5 L894.7,193.0 L894.9,368.5 L895.1,310.0 L895.3,310.0 L895.6,427.0 L895.8,368.5 L896.0,193.0 L896.2,485.5 L896.4,193.0 L896.7,251.5 L896.9,427.0 L897.1,251.5 L897.3,310.0 L897.6,251.5 L897.8,193.0 L898.0,427.0 L898.2,368.5 L898.4,368.5 L898.7,310.0 L898.9,251.5 L899.1,368.5 L899.3,193.0 L899.6,427.0 L899.8,134.5 L900.0,368.5 L900.2,193.0 L900.5,427.0 L900.7,251.5 L900.9,193.0 L901.1,368.5 L901.3,310.0 L901.6,251.5 L901.8,368.5 L902.0,193.0 L902.2,427.0 L902.5,368.5 L902.7,310.0 L902.9,251.5 L903.1,368.5 L903.3,310.0 L903.6,368.5 L903.8,368.5 L904.0,368.5 L904.2,368.5 L904.5,251.5 L904.7,193.0 L904.9,368.5 L905.1,193.0 L905.4,368.5 L905.6,251.5 L905.8,368.5 L906.0,251.5 L906.2,310.0 L906.5,368.5 L906.7,251.5 L906.9,193.0 L907.1,485.5 L907.4,368.5 L907.6,251.5 L907.8,368.5 L908.0,251.5 L908.2,310.0 L908.5,310.0 L908.7,193.0 L908.9,251.5 L909.1,368.5 L909.4,368.5 L909.6,134.5 L909.8,485.5 L910.0,310.0 L910.3,193.0 L910.5,251.5 L910.7,427.0 L910.9,193.0 L911.1,310.0 L911.4,427.0 L911.6,310.0 L911.8,193.0 L912.0,251.5 L912.3,251.5 L912.5,368.5 L912.7,193.0 L912.9,310.0 L913.1,251.5 L913.4,310.0 L913.6,310.0 L913.8,368.5 L914.0,310.0 L914.3,193.0 L914.5,310.0 L914.7,193.0 L914.9,193.0 L915.2,427.0 L915.4,193.0 L915.6,427.0 L915.8,251.5 L916.0,310.0 L916.3,427.0 L916.5,368.5 L916.7,427.0 L916.9,310.0 L917.2,251.5 L917.4,427.0 L917.6,310.0 L917.8,193.0 L918.1,310.0 L918.3,310.0 L918.5,134.5 L918.7,310.0 L918.9,310.0 L919.2,193.0 L919.4,251.5 L919.6,193.0 L919.8,310.0 L920.1,310.0 L920.3,193.0 L920.5,485.5 L920.7,193.0 L920.9,310.0 L921.2,368.5 L921.4,193.0 L921.6,485.5 L921.8,368.5 L922.1,193.0 L922.3,251.5 L922.5,193.0 L922.7,485.5 L923.0,251.5 L923.2,193.0 L923.4,427.0 L923.6,251.5 L923.8,427.0 L924.1,251.5 L924.3,251.5 L924.5,368.5 L924.7,134.5 L925.0,427.0 L925.2,251.5 L925.4,251.5 L925.6,310.0 L925.8,427.0 L926.1,134.5 L926.3,310.0 L926.5,310.0 L926.7,427.0 L927.0,427.0 L927.2,427.0 L927.4,368.5 L927.6,310.0 L927.9,310.0 L928.1,193.0 L928.3,251.5 L928.5,310.0 L928.7,193.0 L929.0,427.0 L929.2,368.5 L929.4,193.0 L929.6,485.5 L929.9,251.5 L930.1,251.5 L930.3,251.5 L930.5,427.0 L930.7,193.0 L931.0,427.0 L931.2,134.5 L931.4,251.5 L931.6,368.5 L931.9,310.0 L932.1,427.0 L932.3,251.5 L932.5,368.5 L932.8,193.0 L933.0,368.5 L933.2,427.0 L933.4,427.0 L933.6,427.0 L933.9,310.0 L934.1,368.5 L934.3,310.0 L934.5,193.0 L934.8,368.5 L935.0,368.5 L935.2,193.0 L935.4,427.0 L935.6,310.0 L935.9,251.5 L936.1,368.5 L936.3,251.5 L936.5,310.0 L936.8,134.5 L937.0,251.5 L937.2,368.5 L937.4,310.0 L937.7,368.5 L937.9,310.0 L938.1,251.5 L938.3,193.0 L938.5,368.5 L938.8,310.0 L939.0,251.5 L939.2,193.0 L939.4,310.0 L939.7,310.0 L939.9,251.5 L940.1,368.5 L940.3,193.0 L940.5,368.5 L940.8,427.0 L941.0,368.5 L941.2,310.0 L941.4,427.0 L941.7,251.5 L941.9,310.0 L942.1,193.0 L942.3,193.0 L942.6,251.5 L942.8,251.5 L943.0,251.5 L943.2,427.0 L943.4,427.0 L943.7,251.5 L943.9,368.5 L944.1,251.5 L944.3,251.5 L944.6,251.5 L944.8,368.5 L945.0,427.0 L945.2,427.0 L945.4,368.5 L945.7,251.5 L945.9,485.5 L946.1,193.0 L946.3,427.0 L946.6,368.5 L946.8,251.5 L947.0,368.5 L947.2,427.0 L947.5,368.5 L947.7,251.5 L947.9,310.0 L948.1,193.0 L948.3,251.5 L948.6,427.0 L948.8,193.0 L949.0,368.5 L949.2,193.0 L949.5,485.5 L949.7,368.5 L949.9,251.5 L950.1,310.0 L950.3,427.0 L950.6,134.5 L950.8,427.0 L951.0,251.5 L951.2,368.5 L951.5,193.0 L951.7,427.0 L951.9,427.0 L952.1,251.5 L952.4,310.0 L952.6,485.5 L952.8,427.0 L953.0,134.5 L953.2,427.0 L953.5,310.0 L953.7,251.5 L953.9,251.5 L954.1,251.5 L954.4,251.5 L954.6,193.0 L954.8,310.0 L955.0,427.0 L955.2,427.0 L955.5,368.5 L955.7,427.0 L955.9,310.0 L956.1,368.5 L956.4,368.5 L956.6,368.5 L956.8,310.0 L957.0,427.0 L957.3,134.5 L957.5,368.5 L957.7,310.0 L957.9,193.0 L958.1,251.5 L958.4,368.5 L958.6,310.0 L958.8,368.5 L959.0,193.0 L959.3,251.5 L959.5,368.5 L959.7,427.0 L959.9,310.0 L960.2,193.0 L960.4,427.0 L960.6,310.0 L960.8,193.0 L961.0,193.0 L961.3,251.5 L961.5,368.5 L961.7,368.5 L961.9,427.0 L962.2,193.0 L962.4,485.5 L962.6,134.5 L962.8,310.0 L963.0,427.0 L963.3,193.0 L963.5,485.5 L963.7,368.5 L963.9,310.0 L964.2,310.0 L964.4,427.0 L964.6,427.0 L964.8,251.5 L965.1,368.5 L965.3,368.5 L965.5,368.5 L965.7,251.5 L965.9,368.5 L966.2,310.0 L966.4,368.5 L966.6,193.0 L966.8,193.0 L967.1,251.5 L967.3,310.0 L967.5,310.0 L967.7,427.0 L967.9,193.0 L968.2,485.5 L968.4,368.5 L968.6,310.0 L968.8,310.0 L969.1,193.0 L969.3,310.0 L969.5,427.0 L969.7,427.0 L970.0,251.5 L970.2,251.5 L970.4,310.0 L970.6,427.0 L970.8,251.5 L971.1,427.0 L971.3,134.5 L971.5,310.0 L971.7,193.0 L972.0,193.0 L972.2,368.5 L972.4,310.0 L972.6,368.5 L972.8,368.5 L973.1,193.0 L973.3,310.0 L973.5,193.0 L973.7,485.5 L974.0,193.0 L974.2,427.0 L974.4,427.0 L974.6,251.5 L974.9,310.0 L975.1,427.0 L975.3,193.0 L975.5,310.0 L975.7,193.0 L976.0,193.0 L976.2,310.0 L976.4,193.0 L976.6,368.5 L976.9,427.0 L977.1,368.5 L977.3,193.0 L977.5,485.5 L977.7,134.5 L978.0,368.5 L978.2,251.5 L978.4,193.0 L978.6,310.0 L978.9,251.5 L979.1,368.5 L979.3,427.0 L979.5,134.5 L979.8,193.0 L980.0,310.0 L980.2,368.5 L980.4,134.5 L980.6,251.5 L980.9,251.5 L981.1,251.5 L981.3,485.5 L981.5,368.5 L981.8,368.5 L982.0,134.5 L982.2,485.5 L982.4,134.5 L982.6,251.5 L982.9,251.5 L983.1,485.5 L983.3,310.0 L983.5,251.5 L983.8,310.0 L984.0,251.5 L984.2,251.5 L984.4,427.0 L984.7,368.5 L984.9,310.0 L985.1,427.0 L985.3,310.0 L985.5,368.5 L985.8,193.0 L986.0,368.5 L986.2,193.0 L986.4,310.0 L986.7,485.5 L986.9,251.5 L987.1,368.5 L987.3,368.5 L987.5,193.0 L987.8,310.0 L988.0,368.5 L988.2,368.5 L988.4,310.0 L988.7,251.5 L988.9,310.0 L989.1,427.0 L989.3,310.0 L989.6,427.0 L989.8,134.5 L990.0,251.5 L990.2,310.0 L990.4,368.5 L990.7,427.0 L990.9,310.0 L991.1,251.5 L991.3,368.5 L991.6,427.0 L991.8,427.0 L992.0,134.5 L992.2,427.0 L992.4,310.0 L992.7,251.5 L992.9,427.0 L993.1,310.0 L993.3,193.0 L993.6,368.5 L993.8,368.5 L994.0,134.5 L994.2,193.0 L994.5,427.0 L994.7,193.0 L994.9,427.0 L995.1,251.5 L995.3,193.0 L995.6,368.5 L995.8,368.5 L996.0,427.0 L996.2,251.5 L996.5,368.5 L996.7,310.0 L996.9,427.0 L997.1,427.0 L997.3,427.0 L997.6,251.5 L997.8,251.5 L998.0,427.0 L998.2,368.5 L998.5,193.0 L998.7,368.5 L998.9,368.5 L999.1,193.0 L999.4,368.5 L999.6,193.0 L999.8,251.5 L1000.0,251.5 L1000.2,427.0 L1000.5,310.0 L1000.7,251.5 L1000.9,368.5 L1001.1,310.0 L1001.4,368.5 L1001.6,193.0 L1001.8,544.0 L1002.0,251.5 L1002.3,251.5 L1002.5,251.5 L1002.7,251.5 L1002.9,310.0 L1003.1,427.0 L1003.4,251.5 L1003.6,310.0 L1003.8,427.0 L1004.0,193.0 L1004.3,310.0 L1004.5,193.0 L1004.7,193.0 L1004.9,427.0 L1005.1,193.0 L1005.4,310.0 L1005.6,251.5 L1005.8,485.5 L1006.0,251.5 L1006.3,251.5 L1006.5,368.5 L1006.7,251.5 L1006.9,427.0 L1007.2,310.0 L1007.4,427.0 L1007.6,251.5 L1007.8,368.5 L1008.0,427.0 L1008.3,427.0 L1008.5,310.0 L1008.7,134.5 L1008.9,485.5 L1009.2,251.5 L1009.4,193.0 L1009.6,251.5 L1009.8,427.0 L1010.0,310.0 L1010.3,310.0 L1010.5,193.0 L1010.7,193.0 L1010.9,368.5 L1011.2,193.0 L1011.4,485.5 L1011.6,193.0 L1011.8,427.0 L1012.1,251.5 L1012.3,368.5 L1012.5,251.5 L1012.7,310.0 L1012.9,368.5 L1013.2,368.5 L1013.4,310.0 L1013.6,427.0 L1013.8,193.0 L1014.1,368.5 L1014.3,310.0 L1014.5,368.5 L1014.7,193.0 L1014.9,368.5 L1015.2,193.0 L1015.4,193.0 L1015.6,368.5 L1015.8,368.5 L1016.1,427.0 L1016.3,251.5 L1016.5,193.0 L1016.7,427.0 L1017.0,251.5 L1017.2,368.5 L1017.4,427.0 L1017.6,134.5 L1017.8,368.5 L1018.1,368.5 L1018.3,193.0 L1018.5,427.0 L1018.7,310.0 L1019.0,251.5 L1019.2,368.5 L1019.4,251.5 L1019.6,251.5 L1019.8,485.5 L1020.1,427.0 L1020.3,193.0 L1020.5,368.5 L1020.7,251.5 L1021.0,485.5 L1021.2,193.0 L1021.4,251.5 L1021.6,310.0 L1021.9,251.5 L1022.1,427.0 L1022.3,427.0 L1022.5,427.0 L1022.7,251.5 L1023.0,427.0 L1023.2,368.5 L1023.4,134.5 L1023.6,485.5 L1023.9,193.0 L1024.1,193.0 L1024.3,427.0 L1024.5,251.5 L1024.7,251.5 L1025.0,427.0 L1025.2,193.0 L1025.4,368.5 L1025.6,310.0 L1025.9,251.5 L1026.1,310.0 L1026.3,485.5 L1026.5,310.0 L1026.8,310.0 L1027.0,310.0 L1027.2,368.5 L1027.4,310.0 L1027.6,485.5 L1027.9,193.0 L1028.1,368.5 L1028.3,251.5 L1028.5,368.5 L1028.8,427.0 L1029.0,193.0 L1029.2,193.0 L1029.4,251.5 L1029.6,193.0 L1029.9,251.5 L1030.1,251.5 L1030.3,193.0 L1030.5,368.5 L1030.8,251.5 L1031.0,427.0 L1031.2,251.5 L1031.4,427.0 L1031.7,368.5 L1031.9,193.0 L1032.1,427.0 L1032.3,193.0 L1032.5,310.0 L1032.8,368.5 L1033.0,427.0 L1033.2,368.5 L1033.4,310.0 L1033.7,310.0 L1033.9,251.5 L1034.1,485.5 L1034.3,134.5 L1034.5,368.5 L1034.8,310.0 L1035.0,251.5 L1035.2,251.5 L1035.4,310.0 L1035.7,368.5 L1035.9,251.5 L1036.1,485.5 L1036.3,310.0 L1036.6,193.0 L1036.8,427.0 L1037.0,251.5 L1037.2,310.0 L1037.4,368.5 L1037.7,427.0 L1037.9,427.0 L1038.1,251.5 L1038.3,310.0 L1038.6,427.0 L1038.8,193.0 L1039.0,193.0 L1039.2,310.0 L1039.4,193.0 L1039.7,251.5 L1039.9,485.5 L1040.1,134.5 L1040.3,251.5 L1040.6,193.0 L1040.8,427.0 L1041.0,251.5 L1041.2,368.5 L1041.5,427.0 L1041.7,251.5 L1041.9,485.5 L1042.1,427.0 L1042.3,310.0 L1042.6,368.5 L1042.8,251.5 L1043.0,427.0 L1043.2,251.5 L1043.5,427.0 L1043.7,134.5 L1043.9,427.0 L1044.1,310.0 L1044.4,427.0 L1044.6,368.5 L1044.8,193.0 L1045.0,310.0 L1045.2,368.5 L1045.5,251.5 L1045.7,368.5 L1045.9,193.0 L1046.1,427.0 L1046.4,310.0 L1046.6,251.5 L1046.8,427.0 L1047.0,368.5 L1047.2,193.0 L1047.5,193.0 L1047.7,485.5 L1047.9,427.0 L1048.1,193.0 L1048.4,310.0 L1048.6,251.5 L1048.8,251.5 L1049.0,427.0 L1049.3,368.5 L1049.5,134.5 L1049.7,427.0 L1049.9,368.5 L1050.1,251.5 L1050.4,251.5 L1050.6,310.0 L1050.8,310.0 L1051.0,134.5 L1051.3,310.0 L1051.5,368.5 L1051.7,193.0 L1051.9,310.0 L1052.1,310.0 L1052.4,193.0 L1052.6,485.5 L1052.8,251.5 L1053.0,368.5 L1053.3,251.5 L1053.5,251.5 L1053.7,251.5 L1053.9,485.5 L1054.2,134.5 L1054.4,310.0 L1054.6,193.0 L1054.8,485.5 L1055.0,134.5 L1055.3,485.5 L1055.5,368.5 L1055.7,310.0 L1055.9,251.5 L1056.2,485.5 L1056.4,193.0 L1056.6,427.0 L1056.8,310.0 L1057.0,310.0 L1057.3,368.5 L1057.5,427.0 L1057.7,427.0 L1057.9,368.5 L1058.2,368.5 L1058.4,193.0 L1058.6,427.0 L1058.8,76.0 L1059.1,310.0 L1059.3,368.5 L1059.5,310.0 L1059.7,427.0 L1059.9,251.5 L1060.2,368.5 L1060.4,427.0 L1060.6,310.0 L1060.8,251.5 L1061.1,134.5 L1061.3,427.0 L1061.5,251.5 L1061.7,310.0 L1061.9,310.0 L1062.2,251.5 L1062.4,368.5 L1062.6,310.0 L1062.8,251.5 L1063.1,310.0 L1063.3,251.5 L1063.5,368.5 L1063.7,427.0 L1064.0,368.5 L1064.2,368.5 L1064.4,427.0 L1064.6,310.0 L1064.8,193.0 L1065.1,310.0 L1065.3,193.0 L1065.5,193.0 L1065.7,193.0 L1066.0,427.0 L1066.2,251.5 L1066.4,427.0 L1066.6,427.0 L1066.8,310.0 L1067.1,193.0 L1067.3,427.0 L1067.5,134.5 L1067.7,310.0 L1068.0,310.0 L1068.2,193.0 L1068.4,193.0 L1068.6,310.0 L1068.9,134.5 L1069.1,310.0 L1069.3,251.5 L1069.5,193.0 L1069.7,427.0 L1070.0,368.5 L1070.2,134.5 L1070.4,485.5 L1070.6,251.5 L1070.9,310.0 L1071.1,251.5 L1071.3,368.5 L1071.5,427.0 L1071.7,134.5 L1072.0,485.5 L1072.2,310.0 L1072.4,193.0 L1072.6,368.5 L1072.9,368.5 L1073.1,251.5 L1073.3,251.5 L1073.5,427.0 L1073.8,368.5 L1074.0,251.5 L1074.2,427.0 L1074.4,427.0 L1074.6,251.5 L1074.9,427.0 L1075.1,368.5 L1075.3,310.0 L1075.5,427.0 L1075.8,368.5 L1076.0,427.0 L1076.2,76.0 L1076.4,251.5 L1076.6,193.0 L1076.9,485.5 L1077.1,368.5 L1077.3,310.0 L1077.5,368.5 L1077.8,134.5 L1078.0,310.0 L1078.2,193.0 L1078.4,427.0 L1078.7,368.5 L1078.9,368.5 L1079.1,134.5 L1079.3,310.0 L1079.5,251.5 L1079.8,251.5 L1080.0,310.0 L1080.2,251.5 L1080.4,427.0 L1080.7,251.5 L1080.9,251.5 L1081.1,310.0 L1081.3,368.5 L1081.5,251.5 L1081.8,368.5 L1082.0,251.5 L1082.2,368.5 L1082.4,193.0 L1082.7,310.0 L1082.9,368.5 L1083.1,251.5 L1083.3,193.0 L1083.6,193.0 L1083.8,368.5 L1084.0,310.0" fill="none" stroke="#ff7f0e" stroke-width="1.1" opacity="0.85"/><text x="616" y="572" font-size="11" fill="#888">time 0..42 s — altitude (blue) &amp; roll (orange)</text></svg>