<svg xmlns="http://www.w3.org/2000/svg" width="1140" height="600" font-family="sans-serif" font-size="13"><rect width="1140" height="600" fill="white"/><text x="20" y="26" font-size="15" fill="#333">TMS-7 F15 — sensor noise 05%</text><rect x="20" y="40" width="540" height="540" fill="#fbfbfb" stroke="#ddd"/><rect x="50" y="367" width="160" height="3" fill="#cde" stroke="#369" opacity="0.7"/><text x="50" y="362" fill="#369" font-size="12">landing zone</text><circle cx="151" cy="395" r="5" fill="black"/><text x="159" y="399" font-size="12">pad</text><path d="M150.6,395.1 L150.6,395.1 L150.6,395.1 L150.6,395.1 L150.6,395.1 L150.6,395.1 L150.6,395.1 L150.6,395.1 L150.6,395.1 L150.6,395.1 L150.6,395.1 L150.6,395.1 L150.6,395.1 L150.6,395.1 L150.6,395.1 L150.6,395.1 L150.6,395.1 L150.6,395.1 L150.6,395.1 L150.6,395.1 L150.6,395.1 L150.6,395.1 L150.6,395.1 L150.6,395.1 L150.6,395.1 L150.6,395.1 L150.6,395.1 L150.6,395.1 L150.6,395.1 L150.6,395.1 L150.6,395.1 L150.6,395.1 L150.6,395.1 L150.6,395.1 L150.6,395.1 L150.6,395.1 L150.6,395.1 L150.6,395.1 L150.6,395.1 L150.6,395.1 L150.6,395.1 L150.6,395.1 L150.6,395.1 L150.6,395.1 L150.6,395.1 L150.6,395.1 L150.6,395.1 L150.6,395.1 L150.6,395.1 L150.6,395.1 L150.6,395.1 L150.6,395.1 L150.6,395.1 L150.6,395.1 L150.6,395.1 L150.6,395.1 L150.6,395.1 L150.6,395.1 L151.2,394.0 L152.0,392.7 L152.8,391.3 L153.7,390.0 L154.4,388.6 L155.2,387.3 L156.1,386.1 L156.9,384.7 L157.7,383.4 L158.5,382.1 L159.4,380.8 L160.2,379.5 L161.1,378.2 L161.9,376.9 L162.7,375.6 L163.7,374.4 L164.5,373.0 L165.4,371.8 L166.3,370.5 L167.2,369.2 L168.1,368.0 L169.0,366.7 L169.9,365.4 L170.7,364.2 L171.6,362.9 L172.6,361.6 L173.5,360.4 L174.3,359.2 L175.3,357.9 L176.2,356.6 L177.1,355.4 L178.1,354.1 L179.1,352.9 L180.0,351.8 L180.9,350.5 L181.9,349.3 L182.9,348.1 L183.9,346.8 L184.8,345.7 L185.8,344.5 L186.8,343.2 L187.8,342.1 L188.8,340.9 L189.8,339.7 L190.8,338.5 L191.9,337.4 L192.9,336.2 L193.9,335.0 L194.9,333.9 L195.9,332.8 L197.1,331.6 L198.1,330.5 L199.1,329.4 L200.2,328.2 L201.2,327.1 L202.3,326.0 L203.4,324.8 L204.5,323.7 L205.6,322.6 L206.7,321.6 L207.8,320.4 L208.8,319.3 L209.9,318.3 L211.1,317.1 L212.2,316.1 L213.4,315.0 L214.5,314.0 L215.6,312.9 L216.7,311.9 L217.9,310.8 L219.0,309.7 L220.1,308.7 L221.3,307.7 L222.5,306.7 L223.7,305.6 L224.9,304.6 L226.0,303.7 L227.2,302.7 L228.4,301.6 L229.6,300.6 L230.8,299.7 L232.0,298.6 L233.2,297.7 L234.4,296.7 L235.6,295.8 L236.8,294.8 L238.0,293.8 L239.2,292.9 L240.5,292.0 L241.7,291.0 L242.9,290.1 L244.2,289.2 L245.4,288.3 L246.7,287.3 L248.0,286.4 L249.3,285.6 L250.5,284.7 L251.8,283.8 L253.1,282.9 L254.4,282.0 L255.6,281.2 L256.9,280.3 L258.2,279.4 L259.5,278.6 L260.8,277.7 L262.1,276.9 L263.4,276.0 L264.7,275.2 L266.0,274.4 L267.3,273.6 L268.7,272.8 L270.0,271.9 L271.3,271.2 L272.7,270.4 L274.0,269.6 L275.4,268.9 L276.7,268.0 L278.1,267.3 L279.4,266.5 L280.8,265.8 L282.2,265.1 L283.5,264.3 L284.9,263.6 L286.2,262.9 L287.6,262.2 L288.9,261.5 L290.3,260.7 L291.7,260.0 L293.1,259.3 L294.5,258.6 L295.9,258.0 L297.3,257.2 L298.7,256.6 L300.1,255.9 L301.5,255.3 L302.9,254.7 L304.3,254.0 L305.7,253.3 L307.2,252.7 L308.6,252.1 L310.0,251.5 L311.5,250.9 L312.9,250.3 L314.3,249.7 L315.7,249.1 L317.2,248.5 L318.6,248.0 L320.1,247.4 L321.5,246.9 L323.0,246.3 L324.4,245.7 L325.8,245.2 L327.3,244.6 L328.8,244.1 L330.2,243.6 L331.7,243.1 L333.2,242.6 L334.6,242.1 L336.1,241.6 L337.6,241.1 L339.0,240.6 L340.5,240.2 L342.0,239.7 L343.5,239.3 L344.9,238.8 L346.4,238.3 L347.9,237.9 L349.4,237.5 L351.0,237.1 L352.4,236.7 L353.9,236.3 L355.4,235.9 L356.9,235.5 L358.4,235.1 L360.0,234.6 L361.4,234.3 L362.9,233.9 L364.4,233.6 L366.0,233.2 L367.5,232.9 L368.9,232.6 L370.5,232.3 L372.0,231.9 L373.5,231.6 L375.1,231.3 L376.6,230.9 L378.0,230.7 L379.6,230.4 L381.1,230.1 L382.7,229.8 L384.2,229.6 L385.7,229.3 L387.2,229.1 L388.8,228.8 L390.3,228.6 L391.9,228.4 L393.3,228.2 L394.9,228.0 L396.5,227.8 L398.0,227.6 L399.5,227.3 L401.0,227.1 L402.6,226.9 L404.2,226.8 L405.7,226.6 L407.2,226.5 L408.7,226.3 L410.3,226.2 L411.9,226.0 L413.4,225.9 L414.9,225.8 L416.5,225.7 L418.0,225.6 L419.6,225.5 L421.1,225.4 L422.7,225.3 L423.9,225.3 L425.2,225.2 L426.5,225.1 L427.8,225.1 L429.1,225.1 L430.4,225.0 L431.7,225.0 L433.0,225.0 L434.3,224.9 L435.6,224.9 L436.9,224.9 L438.2,224.9 L439.5,224.9 L440.8,224.9 L442.1,224.9 L443.3,224.9 L444.6,224.9 L445.9,225.0 L447.2,225.0 L448.5,225.0 L449.8,225.0 L451.1,225.1 L452.4,225.1 L453.7,225.2 L455.0,225.2 L456.3,225.3 L457.6,225.4 L458.9,225.4 L460.1,225.5 L461.4,225.6 L462.7,225.7 L464.0,225.8 L465.3,225.9 L466.6,226.0 L467.9,226.1 L469.2,226.2 L470.5,226.3 L471.7,226.4 L473.0,226.5 L474.3,226.7 L475.6,226.8 L476.9,227.0 L478.2,227.1 L479.5,227.2 L480.7,227.5 L482.0,227.7 L483.3,227.8 L484.6,228.0 L485.9,228.2 L487.1,228.3 L488.4,228.5 L489.7,228.7 L491.0,228.9 L492.3,229.1 L493.5,229.3 L494.8,229.5 L496.1,229.7 L497.4,230.0 L498.6,230.2 L499.9,230.4 L501.2,230.6 L502.4,230.9 L503.7,231.1 L505.0,231.5 L506.2,231.7 L507.5,232.0 L508.8,232.2 L510.0,232.5 L511.3,232.8 L512.5,233.0 L513.8,233.3 L515.1,233.6 L516.3,233.9 L517.6,234.2 L518.8,234.5 L520.1,234.8 L521.3,235.2 L522.6,235.5 L523.8,235.8 L525.1,236.2 L526.3,236.5 L527.6,236.8 L528.8,237.2 L530.0,237.5" fill="none" stroke="#1f77b4" stroke-width="1.7" opacity="0.85"/><circle cx="530" cy="238" r="4.5" fill="#1f77b4"/><text x="28" y="572" font-size="11" fill="#888">ground track — m from pad (N up)</text><rect x="580" y="40" width="540" height="540" fill="#fbfbfb" stroke="#ddd"/><text x="586" y="54" fill="#1f77b4" font-size="11">alt 287</text><text x="586" y="558" fill="#1f77b4" font-size="11">2</text><path d="M616.0,543.9 L616.2,543.9 L616.5,543.9 L616.7,543.8 L616.9,543.8 L617.2,543.8 L617.4,543.8 L617.6,543.7 L617.8,543.2 L618.1,543.1 L618.3,543.0 L618.5,542.9 L618.8,543.0 L619.0,542.4 L619.2,542.6 L619.5,542.0 L619.7,542.1 L619.9,541.9 L620.2,541.2 L620.4,540.9 L620.6,540.9 L620.9,540.7 L621.1,539.7 L621.3,539.3 L621.5,539.7 L621.8,539.0 L622.0,538.3 L622.2,538.0 L622.5,537.7 L622.7,537.8 L622.9,537.0 L623.2,536.6 L623.4,535.9 L623.6,535.5 L623.9,534.4 L624.1,533.8 L624.3,533.7 L624.6,532.9 L624.8,533.1 L625.0,532.7 L625.2,531.8 L625.5,531.6 L625.7,530.4 L625.9,528.7 L626.2,527.8 L626.4,527.2 L626.6,527.8 L626.9,525.8 L627.1,524.9 L627.3,524.0 L627.6,525.2 L627.8,524.8 L628.0,522.7 L628.2,522.5 L628.5,521.3 L628.7,519.5 L628.9,518.2 L629.2,517.3 L629.4,517.9 L629.6,517.7 L629.9,517.0 L630.1,513.5 L630.3,513.1 L630.6,514.8 L630.8,511.1 L631.0,509.5 L631.3,508.9 L631.5,508.0 L631.7,506.2 L631.9,506.6 L632.2,505.5 L632.4,506.2 L632.6,505.7 L632.9,503.1 L633.1,501.8 L633.3,499.5 L633.6,497.6 L633.8,497.5 L634.0,496.8 L634.3,494.7 L634.5,497.1 L634.7,491.4 L635.0,490.9 L635.2,488.0 L635.4,489.3 L635.6,488.7 L635.9,489.4 L636.1,484.8 L636.3,485.0 L636.6,480.2 L636.8,480.6 L637.0,480.0 L637.3,481.5 L637.5,476.8 L637.7,477.4 L638.0,472.6 L638.2,469.7 L638.4,471.8 L638.6,471.9 L638.9,466.9 L639.1,466.7 L639.3,464.4 L639.6,468.3 L639.8,463.4 L640.0,461.3 L640.3,463.5 L640.5,456.2 L640.7,459.7 L641.0,458.8 L641.2,452.3 L641.4,447.9 L641.7,449.0 L641.9,443.8 L642.1,447.6 L642.3,444.3 L642.6,438.8 L642.8,436.7 L643.0,440.3 L643.3,433.6 L643.5,439.6 L643.7,429.8 L644.0,429.5 L644.2,428.8 L644.4,432.1 L644.7,427.0 L644.9,424.7 L645.1,427.1 L645.4,426.7 L645.6,421.3 L645.8,416.4 L646.0,422.9 L646.3,416.3 L646.5,413.8 L646.7,407.2 L647.0,406.9 L647.2,413.3 L647.4,400.4 L647.7,395.9 L647.9,396.2 L648.1,401.0 L648.4,403.7 L648.6,390.9 L648.8,398.0 L649.0,387.3 L649.3,396.7 L649.5,384.5 L649.7,377.5 L650.0,390.9 L650.2,388.0 L650.4,374.9 L650.7,375.3 L650.9,378.8 L651.1,367.4 L651.4,373.8 L651.6,373.1 L651.8,364.7 L652.1,362.1 L652.3,360.6 L652.5,368.1 L652.7,356.9 L653.0,350.5 L653.2,347.1 L653.4,341.3 L653.7,357.7 L653.9,354.9 L654.1,353.1 L654.4,340.7 L654.6,329.8 L654.8,336.4 L655.1,341.2 L655.3,324.3 L655.5,339.9 L655.8,330.0 L656.0,315.8 L656.2,320.0 L656.4,326.7 L656.7,326.8 L656.9,304.3 L657.1,321.0 L657.4,304.6 L657.6,318.3 L657.8,309.9 L658.1,302.0 L658.3,304.8 L658.5,295.2 L658.8,309.0 L659.0,298.4 L659.2,304.1 L659.4,288.9 L659.7,278.5 L659.9,295.9 L660.1,292.0 L660.4,289.9 L660.6,280.7 L660.8,290.7 L661.1,285.0 L661.3,278.6 L661.5,277.4 L661.8,282.6 L662.0,263.3 L662.2,267.2 L662.5,252.2 L662.7,274.9 L662.9,269.7 L663.1,261.5 L663.4,246.8 L663.6,263.7 L663.8,262.2 L664.1,237.0 L664.3,247.0 L664.5,250.4 L664.8,241.2 L665.0,237.7 L665.2,249.5 L665.5,240.0 L665.7,220.7 L665.9,248.0 L666.2,227.2 L666.4,237.4 L666.6,236.0 L666.8,210.5 L667.1,210.4 L667.3,230.9 L667.5,220.5 L667.8,215.7 L668.0,205.8 L668.2,213.9 L668.5,216.0 L668.7,219.1 L668.9,202.2 L669.2,192.3 L669.4,195.5 L669.6,197.0 L669.8,200.4 L670.1,191.7 L670.3,195.0 L670.5,199.3 L670.8,187.2 L671.0,184.6 L671.2,204.8 L671.5,181.1 L671.7,190.7 L671.9,200.2 L672.2,185.4 L672.4,175.8 L672.6,167.4 L672.9,197.8 L673.1,186.1 L673.3,183.2 L673.5,178.8 L673.8,170.9 L674.0,189.7 L674.2,179.6 L674.5,166.8 L674.7,152.3 L674.9,182.7 L675.2,160.7 L675.4,151.0 L675.6,176.3 L675.9,165.0 L676.1,170.4 L676.3,150.9 L676.6,135.1 L676.8,145.0 L677.0,131.7 L677.2,141.2 L677.5,140.1 L677.7,153.1 L677.9,155.5 L678.2,124.3 L678.4,160.0 L678.6,146.0 L678.9,123.9 L679.1,147.1 L679.3,119.4 L679.6,138.4 L679.8,132.3 L680.0,148.8 L680.2,131.4 L680.5,143.4 L680.7,145.7 L680.9,132.6 L681.2,110.7 L681.4,139.1 L681.6,133.4 L681.9,141.3 L682.1,117.1 L682.3,127.7 L682.6,122.6 L682.8,117.7 L683.0,117.9 L683.3,102.4 L683.5,106.5 L683.7,128.0 L683.9,113.7 L684.2,111.8 L684.4,96.6 L684.6,113.1 L684.9,91.2 L685.1,124.9 L685.3,85.6 L685.6,103.7 L685.8,90.8 L686.0,109.2 L686.3,99.3 L686.5,114.1 L686.7,96.4 L687.0,102.5 L687.2,114.2 L687.4,116.9 L687.6,110.2 L687.9,108.2 L688.1,112.1 L688.3,117.9 L688.6,111.8 L688.8,103.5 L689.0,83.8 L689.3,92.1 L689.5,117.8 L689.7,99.1 L690.0,87.7 L690.2,78.5 L690.4,89.1 L690.6,101.7 L690.9,117.0 L691.1,95.6 L691.3,100.9 L691.6,119.5 L691.8,93.3 L692.0,118.8 L692.3,107.3 L692.5,119.3 L692.7,76.0 L693.0,118.1 L693.2,114.1 L693.4,108.2 L693.7,104.9 L693.9,100.8 L694.1,98.7 L694.3,93.7 L694.6,98.5 L694.8,85.2 L695.0,107.9 L695.3,109.3 L695.5,109.4 L695.7,85.5 L696.0,87.6 L696.2,116.8 L696.4,89.4 L696.7,110.6 L696.9,102.8 L697.1,78.5 L697.4,111.8 L697.6,104.4 L697.8,114.8 L698.0,93.6 L698.3,84.3 L698.5,82.2 L698.7,83.3 L699.0,110.5 L699.2,84.5 L699.4,93.3 L699.7,78.5 L699.9,120.6 L700.1,116.0 L700.4,86.6 L700.6,100.5 L700.8,101.4 L701.0,96.3 L701.3,111.4 L701.5,96.6 L701.7,104.2 L702.0,99.9 L702.2,82.6 L702.4,103.4 L702.7,121.3 L702.9,109.6 L703.1,98.0 L703.4,118.5 L703.6,108.9 L703.8,118.9 L704.1,115.2 L704.3,101.0 L704.5,106.5 L704.7,84.9 L705.0,111.2 L705.2,113.3 L705.4,84.5 L705.7,108.4 L705.9,81.6 L706.1,81.4 L706.4,101.9 L706.6,98.6 L706.8,92.4 L707.1,114.5 L707.3,109.7 L707.5,106.7 L707.8,108.7 L708.0,84.8 L708.2,108.0 L708.4,96.2 L708.7,84.3 L708.9,105.2 L709.1,82.1 L709.4,113.4 L709.6,94.3 L709.8,88.8 L710.1,101.8 L710.3,125.3 L710.5,92.4 L710.8,112.3 L711.0,110.8 L711.2,107.3 L711.4,114.8 L711.7,84.5 L711.9,114.5 L712.1,100.4 L712.4,116.4 L712.6,103.8 L712.8,97.5 L713.1,95.7 L713.3,86.2 L713.5,119.8 L713.8,110.2 L714.0,97.6 L714.2,83.7 L714.5,96.7 L714.7,109.0 L714.9,101.0 L715.1,95.5 L715.4,84.8 L715.6,116.5 L715.8,116.4 L716.1,116.6 L716.3,125.3 L716.5,100.0 L716.8,120.5 L717.0,84.0 L717.2,102.6 L717.5,88.4 L717.7,107.8 L717.9,86.5 L718.2,120.5 L718.4,93.1 L718.6,125.5 L718.8,128.3 L719.1,86.9 L719.3,95.8 L719.5,89.5 L719.8,101.7 L720.0,97.5 L720.2,111.9 L720.5,113.1 L720.7,117.0 L720.9,119.2 L721.2,115.9 L721.4,101.3 L721.6,124.7 L721.8,108.4 L722.1,96.2 L722.3,91.3 L722.5,102.1 L722.8,96.4 L723.0,88.1 L723.2,121.5 L723.5,113.1 L723.7,107.3 L723.9,99.8 L724.2,90.0 L724.4,127.1 L724.6,130.7 L724.9,127.5 L725.1,98.9 L725.3,99.0 L725.5,126.4 L725.8,118.1 L726.0,118.0 L726.2,90.3 L726.5,98.5 L726.7,109.5 L726.9,131.4 L727.2,124.0 L727.4,113.8 L727.6,130.5 L727.9,133.1 L728.1,123.5 L728.3,116.8 L728.6,121.2 L728.8,115.2 L729.0,114.5 L729.2,98.2 L729.5,105.3 L729.7,110.7 L729.9,90.9 L730.2,103.1 L730.4,110.5 L730.6,126.6 L730.9,132.5 L731.1,116.3 L731.3,134.0 L731.6,111.3 L731.8,111.4 L732.0,119.1 L732.2,106.8 L732.5,127.2 L732.7,109.6 L732.9,96.9 L733.2,92.9 L733.4,99.7 L733.6,92.9 L733.9,117.2 L734.1,109.7 L734.3,95.8 L734.6,135.7 L734.8,117.6 L735.0,100.8 L735.3,100.6 L735.5,100.9 L735.7,131.1 L735.9,126.5 L736.2,105.1 L736.4,126.6 L736.6,125.4 L736.9,134.3 L737.1,110.5 L737.3,101.1 L737.6,119.3 L737.8,132.2 L738.0,135.0 L738.3,126.1 L738.5,125.4 L738.7,106.5 L739.0,130.7 L739.2,107.0 L739.4,103.4 L739.6,128.3 L739.9,103.3 L740.1,108.4 L740.3,130.9 L740.6,128.8 L740.8,138.1 L741.0,120.9 L741.3,127.7 L741.5,128.4 L741.7,139.1 L742.0,139.0 L742.2,140.2 L742.4,121.7 L742.6,107.3 L742.9,135.6 L743.1,130.7 L743.3,106.2 L743.6,141.2 L743.8,122.9 L744.0,107.4 L744.3,126.5 L744.5,118.8 L744.7,114.4 L745.0,109.6 L745.2,101.5 L745.4,128.5 L745.7,102.0 L745.9,110.4 L746.1,122.7 L746.3,108.0 L746.6,141.7 L746.8,104.0 L747.0,107.0 L747.3,111.0 L747.5,128.7 L747.7,125.9 L748.0,118.1 L748.2,105.7 L748.4,143.6 L748.7,103.2 L748.9,134.9 L749.1,144.5 L749.4,144.7 L749.6,143.0 L749.8,134.3 L750.0,124.7 L750.3,105.0 L750.5,119.8 L750.7,120.3 L751.0,105.6 L751.2,106.9 L751.4,130.6 L751.7,138.4 L751.9,130.5 L752.1,128.6 L752.4,111.6 L752.6,131.1 L752.8,139.4 L753.0,113.6 L753.3,143.5 L753.5,140.5 L753.7,134.0 L754.0,143.9 L754.2,114.9 L754.4,148.3 L754.7,131.4 L754.9,128.4 L755.1,147.8 L755.4,130.6 L755.6,126.2 L755.8,126.9 L756.1,116.8 L756.3,148.2 L756.5,133.7 L756.7,147.5 L757.0,123.0 L757.2,128.7 L757.4,129.3 L757.7,138.3 L757.9,129.6 L758.1,114.1 L758.4,150.0 L758.6,126.8 L758.8,116.5 L759.1,117.1 L759.3,135.0 L759.5,144.0 L759.8,135.5 L760.0,133.3 L760.2,113.4 L760.4,132.2 L760.7,153.6 L760.9,128.6 L761.1,143.3 L761.4,119.6 L761.6,119.1 L761.8,134.1 L762.1,117.7 L762.3,128.4 L762.5,148.6 L762.8,152.7 L763.0,120.0 L763.2,150.8 L763.4,139.0 L763.7,127.5 L763.9,133.3 L764.1,135.0 L764.4,133.9 L764.6,139.7 L764.8,154.8 L765.1,139.2 L765.3,144.7 L765.5,130.0 L765.8,130.7 L766.0,132.2 L766.2,141.3 L766.5,133.3 L766.7,141.4 L766.9,145.0 L767.1,131.5 L767.4,132.4 L767.6,144.7 L767.8,150.8 L768.1,148.5 L768.3,153.6 L768.5,150.3 L768.8,120.3 L769.0,156.3 L769.2,134.7 L769.5,146.4 L769.7,128.0 L769.9,123.7 L770.2,147.6 L770.4,145.5 L770.6,132.0 L770.8,152.0 L771.1,131.1 L771.3,156.4 L771.5,148.0 L771.8,150.5 L772.0,153.4 L772.2,137.9 L772.5,148.9 L772.7,136.3 L772.9,131.1 L773.2,157.9 L773.4,140.0 L773.6,160.2 L773.8,160.5 L774.1,125.0 L774.3,162.1 L774.5,128.1 L774.8,129.8 L775.0,135.6 L775.2,137.6 L775.5,134.6 L775.7,145.4 L775.9,164.1 L776.2,133.3 L776.4,166.5 L776.6,157.9 L776.9,131.1 L777.1,152.7 L777.3,151.6 L777.5,146.6 L777.8,151.8 L778.0,132.7 L778.2,135.6 L778.5,143.0 L778.7,166.9 L778.9,164.2 L779.2,168.8 L779.4,136.2 L779.6,152.6 L779.9,162.9 L780.1,156.5 L780.3,156.9 L780.6,138.3 L780.8,133.3 L781.0,144.5 L781.2,170.5 L781.5,144.1 L781.7,154.1 L781.9,146.5 L782.2,144.3 L782.4,144.6 L782.6,138.0 L782.9,143.9 L783.1,163.6 L783.3,156.7 L783.6,172.0 L783.8,149.7 L784.0,135.5 L784.2,163.5 L784.5,171.6 L784.7,137.6 L784.9,144.5 L785.2,167.5 L785.4,166.0 L785.6,145.7 L785.9,171.3 L786.1,144.2 L786.3,164.9 L786.6,136.3 L786.8,151.9 L787.0,147.0 L787.3,144.3 L787.5,167.8 L787.7,160.4 L787.9,156.1 L788.2,164.9 L788.4,169.0 L788.6,142.6 L788.9,166.9 L789.1,165.0 L789.3,161.8 L789.6,143.4 L789.8,157.8 L790.0,160.9 L790.3,177.4 L790.5,175.7 L790.7,145.5 L791.0,153.8 L791.2,140.9 L791.4,155.5 L791.6,146.9 L791.9,162.9 L792.1,169.9 L792.3,174.2 L792.6,165.7 L792.8,152.5 L793.0,153.6 L793.3,149.0 L793.5,144.6 L793.7,179.7 L794.0,165.4 L794.2,147.8 L794.4,168.2 L794.6,153.2 L794.9,153.1 L795.1,147.8 L795.3,149.8 L795.6,159.3 L795.8,148.4 L796.0,168.2 L796.3,166.5 L796.5,150.4 L796.7,148.4 L797.0,174.3 L797.2,179.8 L797.4,170.5 L797.7,149.1 L797.9,157.6 L798.1,175.7 L798.3,180.8 L798.6,157.4 L798.8,172.1 L799.0,166.9 L799.3,156.5 L799.5,153.8 L799.7,152.7 L800.0,185.5 L800.2,150.6 L800.4,167.1 L800.7,182.5 L800.9,165.0 L801.1,182.1 L801.4,155.2 L801.6,180.0 L801.8,166.2 L802.0,187.8 L802.3,173.5 L802.5,184.6 L802.7,187.8 L803.0,173.6 L803.2,174.1 L803.4,189.8 L803.7,175.2 L803.9,173.4 L804.1,159.6 L804.4,184.5 L804.6,189.2 L804.8,170.2 L805.0,160.7 L805.3,187.9 L805.5,166.4 L805.7,188.0 L806.0,180.9 L806.2,178.8 L806.4,160.6 L806.7,166.8 L806.9,190.0 L807.1,188.0 L807.4,183.2 L807.6,160.1 L807.8,186.2 L808.1,162.6 L808.3,173.9 L808.5,176.5 L808.7,175.0 L809.0,170.2 L809.2,173.1 L809.4,163.9 L809.7,172.0 L809.9,162.3 L810.1,190.2 L810.4,195.4 L810.6,196.1 L810.8,168.0 L811.1,183.9 L811.3,183.4 L811.5,196.4 L811.8,174.9 L812.0,195.2 L812.2,192.2 L812.4,178.7 L812.7,177.2 L812.9,195.7 L813.1,197.3 L813.4,191.1 L813.6,178.0 L813.8,194.1 L814.1,182.4 L814.3,176.7 L814.5,187.4 L814.8,180.6 L815.0,182.8 L815.2,184.6 L815.4,189.9 L815.7,168.9 L815.9,177.7 L816.1,169.2 L816.4,180.5 L816.6,168.8 L816.8,202.5 L817.1,184.3 L817.3,187.8 L817.5,193.6 L817.8,198.3 L818.0,197.4 L818.2,178.2 L818.5,190.5 L818.7,173.5 L818.9,204.2 L819.1,180.9 L819.4,194.1 L819.6,177.6 L819.8,198.9 L820.1,181.5 L820.3,182.9 L820.5,183.9 L820.8,195.5 L821.0,175.0 L821.2,200.4 L821.5,193.8 L821.7,180.0 L821.9,187.0 L822.2,206.2 L822.4,193.8 L822.6,203.1 L822.8,183.4 L823.1,199.6 L823.3,176.3 L823.5,183.7 L823.8,206.1 L824.0,181.6 L824.2,204.7 L824.5,203.9 L824.7,207.7 L824.9,180.5 L825.2,179.3 L825.4,191.7 L825.6,203.0 L825.8,202.8 L826.1,203.7 L826.3,197.2 L826.5,196.7 L826.8,208.3 L827.0,197.5 L827.2,200.7 L827.5,185.5 L827.7,182.7 L827.9,182.5 L828.2,187.7 L828.4,205.9 L828.6,186.0 L828.9,209.3 L829.1,187.1 L829.3,216.6 L829.5,200.4 L829.8,199.3 L830.0,216.4 L830.2,210.3 L830.5,193.9 L830.7,204.3 L830.9,187.9 L831.2,192.5 L831.4,217.8 L831.6,200.2 L831.9,201.4 L832.1,217.3 L832.3,186.3 L832.6,212.5 L832.8,206.4 L833.0,203.8 L833.2,213.1 L833.5,187.2 L833.7,189.7 L833.9,193.5 L834.2,190.8 L834.4,218.4 L834.6,215.3 L834.9,193.8 L835.1,211.9 L835.3,202.9 L835.6,195.8 L835.8,195.6 L836.0,214.9 L836.2,218.0 L836.5,209.4 L836.7,200.7 L836.9,195.0 L837.2,196.5 L837.4,205.5 L837.6,193.6 L837.9,196.4 L838.1,217.5 L838.3,224.8 L838.6,205.3 L838.8,195.5 L839.0,222.2 L839.3,214.6 L839.5,204.4 L839.7,225.5 L839.9,209.5 L840.2,222.8 L840.4,200.0 L840.6,216.3 L840.9,222.6 L841.1,214.6 L841.3,197.8 L841.6,196.8 L841.8,213.2 L842.0,216.5 L842.3,213.1 L842.5,198.9 L842.7,199.2 L843.0,214.7 L843.2,220.4 L843.4,218.7 L843.6,224.4 L843.9,230.7 L844.1,200.2 L844.3,231.8 L844.6,209.5 L844.8,226.9 L845.0,212.9 L845.3,228.7 L845.5,212.0 L845.7,227.8 L846.0,209.0 L846.2,228.5 L846.4,229.6 L846.6,235.0 L846.9,213.0 L847.1,203.5 L847.3,216.8 L847.6,222.1 L847.8,223.6 L848.0,221.2 L848.3,235.2 L848.5,228.0 L848.7,214.1 L849.0,214.3 L849.2,209.2 L849.4,237.9 L849.7,228.8 L849.9,229.4 L850.1,219.3 L850.3,222.0 L850.6,228.2 L850.8,212.5 L851.0,211.8 L851.3,209.1 L851.5,215.0 L851.7,217.7 L852.0,230.6 L852.2,238.6 L852.4,237.9 L852.7,227.2 L852.9,222.9 L853.1,210.9 L853.4,226.9 L853.6,224.4 L853.8,225.5 L854.0,221.0 L854.3,231.4 L854.5,230.8 L854.7,235.7 L855.0,234.6 L855.2,225.5 L855.4,229.7 L855.7,223.7 L855.9,236.1 L856.1,216.6 L856.4,239.2 L856.6,221.9 L856.8,230.4 L857.0,218.5 L857.3,239.3 L857.5,220.2 L857.7,235.3 L858.0,217.7 L858.2,246.7 L858.4,226.5 L858.7,243.9 L858.9,248.0 L859.1,241.2 L859.4,245.6 L859.6,239.8 L859.8,230.8 L860.1,245.9 L860.3,225.9 L860.5,250.6 L860.7,245.2 L861.0,225.2 L861.2,226.7 L861.4,250.0 L861.7,239.7 L861.9,246.4 L862.1,232.4 L862.4,247.5 L862.6,238.9 L862.8,247.6 L863.1,233.3 L863.3,223.8 L863.5,243.6 L863.8,238.1 L864.0,225.5 L864.2,234.5 L864.4,229.3 L864.7,226.5 L864.9,247.9 L865.1,252.7 L865.4,251.2 L865.6,256.1 L865.8,227.9 L866.1,245.1 L866.3,245.0 L866.5,241.1 L866.8,236.5 L867.0,231.2 L867.2,258.7 L867.4,237.5 L867.7,237.1 L867.9,231.5 L868.1,254.2 L868.4,233.8 L868.6,254.9 L868.8,260.8 L869.1,254.9 L869.3,251.5 L869.5,259.8 L869.8,233.8 L870.0,250.3 L870.2,240.9 L870.5,235.4 L870.7,235.7 L870.9,243.2 L871.1,241.2 L871.4,260.2 L871.6,256.1 L871.8,250.7 L872.1,246.7 L872.3,252.0 L872.5,258.5 L872.8,253.7 L873.0,261.3 L873.2,252.5 L873.5,240.9 L873.7,239.9 L873.9,257.5 L874.2,259.5 L874.4,251.6 L874.6,247.4 L874.8,250.9 L875.1,246.4 L875.3,246.2 L875.5,245.9 L875.8,260.7 L876.0,256.6 L876.2,247.3 L876.5,263.1 L876.7,260.2 L876.9,264.1 L877.2,247.4 L877.4,245.9 L877.6,269.0 L877.8,264.1 L878.1,266.2 L878.3,259.0 L878.5,245.7 L878.8,256.7 L879.0,262.1 L879.2,263.1 L879.5,246.4 L879.7,266.8 L879.9,263.0 L880.2,248.9 L880.4,262.5 L880.6,268.6 L880.9,247.3 L881.1,257.5 L881.3,248.0 L881.5,260.0 L881.8,274.9 L882.0,273.1 L882.2,248.4 L882.5,256.5 L882.7,271.1 L882.9,273.0 L883.2,251.5 L883.4,275.6 L883.6,262.5 L883.9,256.8 L884.1,278.4 L884.3,272.3 L884.6,266.2 L884.8,267.1 L885.0,262.7 L885.2,275.9 L885.5,253.3 L885.7,267.9 L885.9,281.1 L886.2,278.2 L886.4,280.7 L886.6,281.6 L886.9,273.1 L887.1,274.2 L887.3,274.4 L887.6,274.6 L887.8,261.6 L888.0,282.1 L888.2,281.8 L888.5,268.1 L888.7,258.5 L888.9,276.2 L889.2,271.2 L889.4,267.2 L889.6,281.6 L889.9,277.4 L890.1,284.1 L890.3,273.0 L890.6,266.5 L890.8,277.7 L891.0,262.3 L891.3,269.4 L891.5,265.7 L891.7,280.1 L891.9,272.9 L892.2,272.6 L892.4,275.7 L892.6,264.5 L892.9,276.4 L893.1,281.5 L893.3,286.0 L893.6,289.4 L893.8,284.2 L894.0,275.1 L894.3,274.4 L894.5,279.8 L894.7,269.4 L895.0,278.3 L895.2,270.6 L895.4,281.5 L895.6,280.1 L895.9,270.2 L896.1,291.5 L896.3,274.9 L896.6,280.1 L896.8,291.9 L897.0,288.3 L897.3,276.7 L897.5,268.8 L897.7,291.8 L898.0,290.4 L898.2,280.0 L898.4,279.9 L898.6,296.2 L898.9,282.4 L899.1,277.2 L899.3,275.6 L899.6,294.7 L899.8,280.3 L900.0,276.6 L900.3,274.5 L900.5,297.4 L900.7,273.4 L901.0,273.6 L901.2,274.1 L901.4,287.9 L901.7,287.0 L901.9,278.9 L902.1,279.4 L902.3,282.9 L902.6,281.1 L902.8,293.6 L903.0,278.7 L903.3,278.0 L903.5,286.0 L903.7,300.4 L904.0,297.5 L904.2,298.7 L904.4,287.6 L904.7,282.5 L904.9,301.0 L905.1,289.2 L905.4,292.2 L905.6,289.0 L905.8,296.3 L906.0,287.9 L906.3,300.7 L906.5,285.5 L906.7,282.8 L907.0,303.3 L907.2,294.0 L907.4,304.5 L907.7,289.3 L907.9,297.5 L908.1,301.5 L908.4,303.8 L908.6,305.4 L908.8,284.4 L909.0,308.2 L909.3,286.2 L909.5,306.0 L909.7,300.5 L910.0,289.6 L910.2,310.8 L910.4,309.6 L910.7,293.7 L910.9,288.7 L911.1,307.0 L911.4,295.0 L911.6,290.3 L911.8,309.4 L912.1,307.4 L912.3,302.0 L912.5,306.7 L912.7,299.9 L913.0,290.0 L913.2,306.4 L913.4,301.3 L913.7,293.3 L913.9,307.5 L914.1,294.8 L914.4,296.2 L914.6,311.0 L914.8,316.6 L915.1,316.9 L915.3,317.3 L915.5,299.2 L915.8,313.3 L916.0,313.3 L916.2,307.3 L916.4,315.7 L916.7,298.6 L916.9,295.6 L917.1,300.9 L917.4,313.4 L917.6,312.8 L917.8,312.8 L918.1,303.9 L918.3,311.8 L918.5,317.5 L918.8,309.7 L919.0,315.2 L919.2,311.5 L919.4,311.3 L919.7,311.7 L919.9,302.8 L920.1,315.9 L920.4,309.1 L920.6,320.3 L920.8,315.6 L921.1,324.0 L921.3,304.4 L921.5,319.0 L921.8,307.4 L922.0,306.7 L922.2,306.9 L922.5,319.9 L922.7,321.5 L922.9,314.1 L923.1,318.2 L923.4,319.8 L923.6,323.2 L923.8,326.8 L924.1,313.4 L924.3,316.6 L924.5,312.2 L924.8,314.7 L925.0,327.9 L925.2,326.1 L925.5,324.1 L925.7,321.6 L925.9,323.6 L926.2,326.5 L926.4,321.9 L926.6,321.9 L926.8,330.9 L927.1,326.2 L927.3,329.7 L927.5,322.4 L927.8,331.8 L928.0,316.2 L928.2,328.9 L928.5,330.2 L928.7,330.0 L928.9,333.0 L929.2,325.6 L929.4,327.8 L929.6,317.3 L929.8,324.1 L930.1,318.9 L930.3,328.8 L930.5,321.7 L930.8,323.2 L931.0,335.6 L931.2,325.5 L931.5,317.8 L931.7,335.5 L931.9,322.6 L932.2,336.0 L932.4,335.8 L932.6,327.5 L932.9,330.1 L933.1,333.5 L933.3,332.5 L933.5,339.5 L933.8,334.5 L934.0,334.6 L934.2,336.7 L934.5,323.4 L934.7,338.0 L934.9,340.0 L935.2,340.3 L935.4,327.5 L935.6,333.8 L935.9,328.8 L936.1,329.6 L936.3,334.9 L936.6,339.0 L936.8,323.5 L937.0,334.7 L937.2,342.8 L937.5,330.1 L937.7,328.3 L937.9,334.6 L938.2,334.3 L938.4,336.5 L938.6,342.9 L938.9,334.5 L939.1,341.8 L939.3,336.4 L939.6,331.1 L939.8,343.1 L940.0,339.6 L940.2,335.0 L940.5,336.1 L940.7,347.6 L940.9,335.4 L941.2,347.9 L941.4,347.5 L941.6,347.4 L941.9,347.8 L942.1,336.2 L942.3,344.2 L942.6,351.1 L942.8,352.1 L943.0,344.1 L943.3,352.0 L943.5,351.3 L943.7,347.2 L943.9,347.3 L944.2,349.3 L944.4,342.0 L944.6,350.2 L944.9,353.3 L945.1,354.9 L945.3,335.6 L945.6,339.8 L945.8,348.4 L946.0,354.3 L946.3,347.3 L946.5,342.4 L946.7,338.5 L947.0,351.3 L947.2,341.9 L947.4,344.1 L947.6,348.2 L947.9,350.4 L948.1,353.1 L948.3,358.1 L948.6,358.3 L948.8,358.2 L949.0,355.6 L949.3,349.5 L949.5,360.3 L949.7,356.2 L950.0,350.8 L950.2,344.2 L950.4,346.0 L950.6,344.6 L950.9,357.1 L951.1,346.3 L951.3,357.5 L951.6,353.9 L951.8,354.2 L952.0,357.4 L952.3,360.3 L952.5,351.6 L952.7,358.0 L953.0,356.8 L953.2,352.7 L953.4,353.6 L953.7,350.9 L953.9,362.3 L954.1,350.1 L954.3,357.9 L954.6,351.7 L954.8,364.5 L955.0,358.1 L955.3,357.7 L955.5,353.6 L955.7,361.7 L956.0,362.0 L956.2,366.5 L956.4,356.9 L956.7,363.4 L956.9,369.9 L957.1,353.3 L957.4,358.8 L957.6,360.7 L957.8,368.2 L958.0,354.4 L958.3,355.4 L958.5,364.0 L958.7,363.7 L959.0,373.2 L959.2,367.1 L959.4,357.1 L959.7,367.7 L959.9,358.4 L960.1,364.9 L960.4,365.7 L960.6,368.3 L960.8,364.8 L961.0,369.3 L961.3,358.8 L961.5,367.8 L961.7,376.8 L962.0,371.2 L962.2,367.9 L962.4,370.7 L962.7,362.6 L962.9,362.0 L963.1,365.2 L963.4,373.6 L963.6,365.9 L963.8,378.0 L964.1,375.6 L964.3,379.5 L964.5,371.5 L964.7,379.1 L965.0,379.3 L965.2,370.1 L965.4,372.0 L965.7,374.4 L965.9,380.0 L966.1,376.0 L966.4,368.8 L966.6,373.9 L966.8,370.6 L967.1,383.3 L967.3,368.2 L967.5,375.0 L967.8,379.4 L968.0,370.5 L968.2,377.1 L968.4,370.1 L968.7,370.3 L968.9,383.7 L969.1,386.0 L969.4,385.8 L969.6,377.6 L969.8,373.6 L970.1,382.8 L970.3,388.3 L970.5,383.2 L970.8,388.3 L971.0,380.5 L971.2,384.2 L971.4,375.5 L971.7,376.0 L971.9,377.1 L972.1,386.6 L972.4,390.3 L972.6,385.4 L972.8,391.6 L973.1,379.1 L973.3,387.0 L973.5,384.1 L973.8,389.2 L974.0,380.0 L974.2,384.6 L974.5,378.8 L974.7,385.5 L974.9,390.8 L975.1,391.9 L975.4,381.9 L975.6,385.8 L975.8,392.3 L976.1,388.3 L976.3,385.5 L976.5,394.9 L976.8,393.8 L977.0,393.8 L977.2,395.3 L977.5,388.7 L977.7,387.3 L977.9,387.6 L978.2,384.6 L978.4,384.7 L978.6,392.4 L978.8,396.3 L979.1,393.9 L979.3,393.9 L979.5,401.0 L979.8,390.5 L980.0,392.1 L980.2,395.2 L980.5,395.3 L980.7,399.4 L980.9,389.3 L981.2,390.7 L981.4,390.6 L981.6,397.3 L981.8,395.3 L982.1,394.0 L982.3,399.2 L982.5,400.3 L982.8,393.8 L983.0,403.0 L983.2,392.4 L983.5,406.1 L983.7,393.2 L983.9,393.8 L984.2,395.9 L984.4,406.0 L984.6,393.9 L984.9,400.0 L985.1,394.9 L985.3,395.0 L985.5,396.1 L985.8,403.4 L986.0,403.6 L986.2,404.6 L986.5,398.3 L986.7,405.5 L986.9,409.5 L987.2,409.3 L987.4,409.6 L987.6,403.8 L987.9,403.8 L988.1,409.7 L988.3,403.8 L988.6,402.7 L988.8,409.8 L989.0,412.8 L989.2,410.9 L989.5,405.4 L989.7,405.0 L989.9,404.9 L990.2,402.4 L990.4,409.0 L990.6,403.2 L990.9,402.7 L991.1,415.9 L991.3,414.6 L991.6,409.5 L991.8,406.2 L992.0,404.5 L992.2,415.3 L992.5,413.6 L992.7,408.4 L992.9,406.9 L993.2,411.8 L993.4,410.6 L993.6,410.9 L993.9,411.6 L994.1,412.3 L994.3,420.1 L994.6,408.4 L994.8,410.4 L995.0,421.2 L995.3,414.8 L995.5,412.4 L995.7,411.3 L995.9,417.8 L996.2,422.8 L996.4,417.1 L996.6,420.0 L996.9,418.8 L997.1,420.5 L997.3,412.5 L997.6,413.7 L997.8,425.2 L998.0,422.3 L998.3,424.5 L998.5,424.1 L998.7,423.1 L999.0,425.7 L999.2,425.8 L999.4,424.5 L999.6,422.6 L999.9,421.5 L1000.1,416.3 L1000.3,428.9 L1000.6,425.5 L1000.8,417.0 L1001.0,422.0 L1001.3,420.9 L1001.5,423.5 L1001.7,430.6 L1002.0,424.7 L1002.2,426.3 L1002.4,419.6 L1002.6,424.7 L1002.9,425.2 L1003.1,422.1 L1003.3,432.3 L1003.6,431.1 L1003.8,426.1 L1004.0,422.2 L1004.3,431.7 L1004.5,430.9 L1004.7,432.2 L1005.0,433.0 L1005.2,433.9 L1005.4,429.5 L1005.7,425.6 L1005.9,429.8 L1006.1,435.5 L1006.3,430.0 L1006.6,425.7 L1006.8,436.0 L1007.0,430.4 L1007.3,433.0 L1007.5,431.6 L1007.7,438.0 L1008.0,429.7 L1008.2,432.2 L1008.4,430.0 L1008.7,436.9 L1008.9,430.4 L1009.1,437.5 L1009.4,438.4 L1009.6,438.8 L1009.8,434.3 L1010.0,434.7 L1010.3,435.7 L1010.5,442.0 L1010.7,442.3 L1011.0,437.3 L1011.2,434.2 L1011.4,434.0 L1011.7,440.1 L1011.9,435.7 L1012.1,434.5 L1012.4,443.7 L1012.6,435.1 L1012.8,443.7 L1013.0,442.2 L1013.3,446.3 L1013.5,445.6 L1013.7,441.8 L1014.0,440.4 L1014.2,441.5 L1014.4,438.2 L1014.7,447.1 L1014.9,440.6 L1015.1,448.9 L1015.4,444.1 L1015.6,449.4 L1015.8,444.2 L1016.1,443.4 L1016.3,440.4 L1016.5,450.6 L1016.7,442.2 L1017.0,450.2 L1017.2,443.5 L1017.4,452.1 L1017.7,445.6 L1017.9,444.4 L1018.1,449.5 L1018.4,449.3 L1018.6,448.8 L1018.8,452.9 L1019.1,447.4 L1019.3,451.6 L1019.5,449.3 L1019.8,454.5 L1020.0,455.0 L1020.2,446.3 L1020.4,454.1 L1020.7,447.4 L1020.9,448.3 L1021.1,449.2 L1021.4,449.8 L1021.6,451.9 L1021.8,458.1 L1022.1,456.2 L1022.3,451.8 L1022.5,458.7 L1022.8,453.4 L1023.0,453.4 L1023.2,455.3 L1023.4,454.6 L1023.7,458.2 L1023.9,453.6 L1024.1,459.9 L1024.4,456.6 L1024.6,458.9 L1024.8,462.2 L1025.1,455.3 L1025.3,461.0 L1025.5,458.6 L1025.8,459.9 L1026.0,456.6 L1026.2,459.5 L1026.5,461.4 L1026.7,464.2 L1026.9,457.9 L1027.1,463.2 L1027.4,463.0 L1027.6,463.0 L1027.8,459.3 L1028.1,459.7 L1028.3,461.4 L1028.5,461.7 L1028.8,462.2 L1029.0,460.0 L1029.2,462.4 L1029.5,462.4 L1029.7,467.6 L1029.9,466.7 L1030.2,462.7 L1030.4,465.0 L1030.6,462.8 L1030.8,462.4 L1031.1,462.7 L1031.3,463.9 L1031.5,465.1 L1031.8,466.9 L1032.0,467.4 L1032.2,469.0 L1032.5,469.8 L1032.7,465.2 L1032.9,473.0 L1033.2,470.1 L1033.4,469.2 L1033.6,474.1 L1033.8,467.0 L1034.1,474.6 L1034.3,474.6 L1034.5,474.4 L1034.8,468.9 L1035.0,470.0 L1035.2,471.0 L1035.5,475.6 L1035.7,471.9 L1035.9,474.4 L1036.2,477.1 L1036.4,471.5 L1036.6,472.5 L1036.9,475.3 L1037.1,472.8 L1037.3,475.9 L1037.5,477.3 L1037.8,473.1 L1038.0,476.9 L1038.2,480.3 L1038.5,479.5 L1038.7,475.1 L1038.9,480.0 L1039.2,479.2 L1039.4,478.2 L1039.6,482.2 L1039.9,479.9 L1040.1,477.0 L1040.3,482.6 L1040.6,478.4 L1040.8,484.0 L1041.0,478.7 L1041.2,482.3 L1041.5,483.1 L1041.7,480.4 L1041.9,483.2 L1042.2,485.4 L1042.4,481.9 L1042.6,486.2 L1042.9,481.4 L1043.1,487.2 L1043.3,483.5 L1043.6,486.3 L1043.8,488.1 L1044.0,483.9 L1044.2,483.4 L1044.5,487.8 L1044.7,484.5 L1044.9,489.2 L1045.2,488.2 L1045.4,488.0 L1045.6,488.6 L1045.9,486.8 L1046.1,485.5 L1046.3,489.7 L1046.6,488.8 L1046.8,491.8 L1047.0,487.3 L1047.3,488.8 L1047.5,488.8 L1047.7,490.0 L1047.9,491.9 L1048.2,494.2 L1048.4,493.3 L1048.6,492.5 L1048.9,494.6 L1049.1,493.3 L1049.3,491.9 L1049.6,492.5 L1049.8,495.8 L1050.0,496.8 L1050.3,492.3 L1050.5,495.2 L1050.7,495.7 L1051.0,496.7 L1051.2,494.7 L1051.4,498.5 L1051.6,496.8 L1051.9,497.2 L1052.1,496.1 L1052.3,496.5 L1052.6,497.6 L1052.8,498.4 L1053.0,496.6 L1053.3,496.4 L1053.5,497.5 L1053.7,499.3 L1054.0,502.1 L1054.2,501.4 L1054.4,498.3 L1054.6,499.5 L1054.9,500.3 L1055.1,501.3 L1055.3,502.7 L1055.6,503.6 L1055.8,503.2 L1056.0,502.2 L1056.3,503.6 L1056.5,501.6 L1056.7,506.1 L1057.0,504.2 L1057.2,503.3 L1057.4,503.4 L1057.7,507.4 L1057.9,504.2 L1058.1,504.4 L1058.3,507.5 L1058.6,508.0 L1058.8,505.1 L1059.0,506.8 L1059.3,508.1 L1059.5,509.9 L1059.7,506.5 L1060.0,508.8 L1060.2,507.8 L1060.4,507.5 L1060.7,508.8 L1060.9,511.1 L1061.1,509.4 L1061.4,510.3 L1061.6,509.3 L1061.8,512.3 L1062.0,511.0 L1062.3,510.9 L1062.5,512.8 L1062.7,513.5 L1063.0,512.0 L1063.2,512.6 L1063.4,513.5 L1063.7,515.1 L1063.9,513.7 L1064.1,515.8 L1064.4,516.7 L1064.6,514.5 L1064.8,515.3 L1065.0,516.1 L1065.3,515.0 L1065.5,516.6 L1065.7,517.7 L1066.0,518.5 L1066.2,518.3 L1066.4,517.7 L1066.7,518.5 L1066.9,519.9 L1067.1,517.9 L1067.4,520.5 L1067.6,520.5 L1067.8,519.8 L1068.1,520.4 L1068.3,521.5 L1068.5,521.9 L1068.7,520.6 L1069.0,523.0 L1069.2,521.1 L1069.4,521.7 L1069.7,522.7 L1069.9,522.1 L1070.1,523.5 L1070.4,523.4 L1070.6,524.1 L1070.8,524.0 L1071.1,526.0 L1071.3,525.8 L1071.5,526.1 L1071.8,524.7 L1072.0,525.7 L1072.2,527.5 L1072.4,527.1 L1072.7,527.6 L1072.9,528.2 L1073.1,527.2 L1073.4,528.0 L1073.6,529.2 L1073.8,529.5 L1074.1,529.5 L1074.3,529.9 L1074.5,530.2 L1074.8,529.4 L1075.0,530.1 L1075.2,531.4 L1075.4,530.5 L1075.7,532.5 L1075.9,532.3 L1076.1,532.3 L1076.4,533.4 L1076.6,532.3 L1076.8,533.0 L1077.1,533.3 L1077.3,534.5 L1077.5,533.8 L1077.8,534.5 L1078.0,534.8 L1078.2,534.9 L1078.5,535.4 L1078.7,536.7 L1078.9,536.3 L1079.1,537.2 L1079.4,537.0 L1079.6,537.6 L1079.8,538.1 L1080.1,538.6 L1080.3,538.9 L1080.5,538.7 L1080.8,539.1 L1081.0,539.4 L1081.2,540.1 L1081.5,539.9 L1081.7,540.6 L1081.9,540.7 L1082.2,540.8 L1082.4,541.6 L1082.6,541.6 L1082.8,542.0 L1083.1,542.3 L1083.3,542.6 L1083.5,543.0 L1083.8,543.3 L1084.0,544.0" fill="none" stroke="#1f77b4" stroke-width="1.4" opacity="0.85"/><text x="1040" y="54" fill="#ff7f0e" font-size="11">roll 0</text><text x="1090" y="558" fill="#ff7f0e" font-size="11">-0</text><path d="M616.0,310.0 L616.2,310.0 L616.5,310.0 L616.7,310.0 L616.9,310.0 L617.2,310.0 L617.4,310.0 L617.6,310.0 L617.8,310.0 L618.1,310.0 L618.3,310.0 L618.5,310.0 L618.8,310.0 L619.0,310.0 L619.2,310.0 L619.5,310.0 L619.7,310.0 L619.9,310.0 L620.2,310.0 L620.4,310.0 L620.6,310.0 L620.9,310.0 L621.1,310.0 L621.3,310.0 L621.5,310.0 L621.8,310.0 L622.0,310.0 L622.2,310.0 L622.5,310.0 L622.7,310.0 L622.9,310.0 L623.2,310.0 L623.4,310.0 L623.6,310.0 L623.9,310.0 L624.1,310.0 L624.3,310.0 L624.6,310.0 L624.8,310.0 L625.0,310.0 L625.2,310.0 L625.5,310.0 L625.7,310.0 L625.9,310.0 L626.2,310.0 L626.4,310.0 L626.6,310.0 L626.9,310.0 L627.1,310.0 L627.3,310.0 L627.6,310.0 L627.8,310.0 L628.0,310.0 L628.2,310.0 L628.5,310.0 L628.7,310.0 L628.9,310.0 L629.2,310.0 L629.4,310.0 L629.6,310.0 L629.9,310.0 L630.1,310.0 L630.3,310.0 L630.6,310.0 L630.8,310.0 L631.0,310.0 L631.3,310.0 L631.5,310.0 L631.7,310.0 L631.9,310.0 L632.2,310.0 L632.4,310.0 L632.6,310.0 L632.9,310.0 L633.1,310.0 L633.3,310.0 L633.6,310.0 L633.8,310.0 L634.0,310.0 L634.3,310.0 L634.5,310.0 L634.7,310.0 L635.0,310.0 L635.2,310.0 L635.4,310.0 L635.6,310.0 L635.9,310.0 L636.1,310.0 L636.3,310.0 L636.6,310.0 L636.8,310.0 L637.0,310.0 L637.3,310.0 L637.5,310.0 L637.7,310.0 L638.0,310.0 L638.2,310.0 L638.4,310.0 L638.6,310.0 L638.9,310.0 L639.1,310.0 L639.3,310.0 L639.6,310.0 L639.8,310.0 L640.0,310.0 L640.3,310.0 L640.5,310.0 L640.7,310.0 L641.0,310.0 L641.2,310.0 L641.4,310.0 L641.7,310.0 L641.9,310.0 L642.1,310.0 L642.3,310.0 L642.6,310.0 L642.8,310.0 L643.0,310.0 L643.3,310.0 L643.5,310.0 L643.7,310.0 L644.0,310.0 L644.2,310.0 L644.4,310.0 L644.7,310.0 L644.9,310.0 L645.1,310.0 L645.4,310.0 L645.6,310.0 L645.8,310.0 L646.0,310.0 L646.3,310.0 L646.5,310.0 L646.7,310.0 L647.0,310.0 L647.2,310.0 L647.4,310.0 L647.7,310.0 L647.9,310.0 L648.1,310.0 L648.4,310.0 L648.6,310.0 L648.8,310.0 L649.0,310.0 L649.3,310.0 L649.5,310.0 L649.7,310.0 L650.0,310.0 L650.2,310.0 L650.4,310.0 L650.7,310.0 L650.9,310.0 L651.1,310.0 L651.4,310.0 L651.6,310.0 L651.8,310.0 L652.1,310.0 L652.3,310.0 L652.5,310.0 L652.7,310.0 L653.0,310.0 L653.2,310.0 L653.4,310.0 L653.7,310.0 L653.9,310.0 L654.1,310.0 L654.4,310.0 L654.6,310.0 L654.8,310.0 L655.1,310.0 L655.3,310.0 L655.5,310.0 L655.8,310.0 L656.0,310.0 L656.2,310.0 L656.4,310.0 L656.7,310.0 L656.9,310.0 L657.1,310.0 L657.4,310.0 L657.6,310.0 L657.8,310.0 L658.1,310.0 L658.3,310.0 L658.5,310.0 L658.8,310.0 L659.0,310.0 L659.2,310.0 L659.4,310.0 L659.7,310.0 L659.9,310.0 L660.1,310.0 L660.4,310.0 L660.6,310.0 L660.8,310.0 L661.1,310.0 L661.3,310.0 L661.5,310.0 L661.8,310.0 L662.0,310.0 L662.2,310.0 L662.5,310.0 L662.7,310.0 L662.9,310.0 L663.1,310.0 L663.4,310.0 L663.6,310.0 L663.8,310.0 L664.1,310.0 L664.3,310.0 L664.5,310.0 L664.8,310.0 L665.0,310.0 L665.2,310.0 L665.5,310.0 L665.7,310.0 L665.9,310.0 L666.2,310.0 L666.4,310.0 L666.6,310.0 L666.8,310.0 L667.1,310.0 L667.3,310.0 L667.5,310.0 L667.8,310.0 L668.0,310.0 L668.2,310.0 L668.5,310.0 L668.7,310.0 L668.9,310.0 L669.2,310.0 L669.4,310.0 L669.6,310.0 L669.8,310.0 L670.1,310.0 L670.3,310.0 L670.5,310.0 L670.8,310.0 L671.0,310.0 L671.2,310.0 L671.5,310.0 L671.7,310.0 L671.9,310.0 L672.2,310.0 L672.4,310.0 L672.6,310.0 L672.9,310.0 L673.1,310.0 L673.3,310.0 L673.5,310.0 L673.8,310.0 L674.0,310.0 L674.2,310.0 L674.5,310.0 L674.7,310.0 L674.9,310.0 L675.2,310.0 L675.4,310.0 L675.6,310.0 L675.9,310.0 L676.1,310.0 L676.3,310.0 L676.6,310.0 L676.8,310.0 L677.0,310.0 L677.2,310.0 L677.5,310.0 L677.7,310.0 L677.9,310.0 L678.2,310.0 L678.4,310.0 L678.6,310.0 L678.9,310.0 L679.1,310.0 L679.3,310.0 L679.6,310.0 L679.8,310.0 L680.0,310.0 L680.2,310.0 L680.5,310.0 L680.7,310.0 L680.9,310.0 L681.2,310.0 L681.4,310.0 L681.6,310.0 L681.9,310.0 L682.1,310.0 L682.3,310.0 L682.6,310.0 L682.8,310.0 L683.0,310.0 L683.3,310.0 L683.5,310.0 L683.7,310.0 L683.9,310.0 L684.2,310.0 L684.4,310.0 L684.6,310.0 L684.9,310.0 L685.1,310.0 L685.3,310.0 L685.6,310.0 L685.8,310.0 L686.0,310.0 L686.3,310.0 L686.5,310.0 L686.7,310.0 L687.0,310.0 L687.2,310.0 L687.4,310.0 L687.6,310.0 L687.9,544.0 L688.1,310.0 L688.3,310.0 L688.6,310.0 L688.8,310.0 L689.0,310.0 L689.3,310.0 L689.5,310.0 L689.7,310.0 L690.0,544.0 L690.2,310.0 L690.4,544.0 L690.6,310.0 L690.9,310.0 L691.1,544.0 L691.3,310.0 L691.6,310.0 L691.8,544.0 L692.0,310.0 L692.3,544.0 L692.5,310.0 L692.7,544.0 L693.0,310.0 L693.2,310.0 L693.4,310.0 L693.7,544.0 L693.9,310.0 L694.1,310.0 L694.3,310.0 L694.6,544.0 L694.8,310.0 L695.0,310.0 L695.3,310.0 L695.5,310.0 L695.7,310.0 L696.0,310.0 L696.2,310.0 L696.4,76.0 L696.7,544.0 L696.9,310.0 L697.1,310.0 L697.4,544.0 L697.6,310.0 L697.8,310.0 L698.0,310.0 L698.3,310.0 L698.5,310.0 L698.7,310.0 L699.0,310.0 L699.2,310.0 L699.4,310.0 L699.7,310.0 L699.9,310.0 L700.1,310.0 L700.4,310.0 L700.6,544.0 L700.8,310.0 L701.0,310.0 L701.3,310.0 L701.5,310.0 L701.7,310.0 L702.0,310.0 L702.2,310.0 L702.4,310.0 L702.7,310.0 L702.9,310.0 L703.1,310.0 L703.4,310.0 L703.6,310.0 L703.8,310.0 L704.1,310.0 L704.3,310.0 L704.5,310.0 L704.7,310.0 L705.0,310.0 L705.2,310.0 L705.4,310.0 L705.7,310.0 L705.9,310.0 L706.1,310.0 L706.4,310.0 L706.6,310.0 L706.8,310.0 L707.1,310.0 L707.3,310.0 L707.5,310.0 L707.8,310.0 L708.0,310.0 L708.2,544.0 L708.4,310.0 L708.7,310.0 L708.9,310.0 L709.1,310.0 L709.4,544.0 L709.6,310.0 L709.8,310.0 L710.1,310.0 L710.3,544.0 L710.5,76.0 L710.8,310.0 L711.0,310.0 L711.2,310.0 L711.4,310.0 L711.7,310.0 L711.9,310.0 L712.1,310.0 L712.4,310.0 L712.6,544.0 L712.8,310.0 L713.1,310.0 L713.3,310.0 L713.5,544.0 L713.8,310.0 L714.0,544.0 L714.2,310.0 L714.5,310.0 L714.7,310.0 L714.9,544.0 L715.1,310.0 L715.4,310.0 L715.6,310.0 L715.8,310.0 L716.1,310.0 L716.3,310.0 L716.5,544.0 L716.8,310.0 L717.0,544.0 L717.2,310.0 L717.5,310.0 L717.7,310.0 L717.9,310.0 L718.2,310.0 L718.4,310.0 L718.6,310.0 L718.8,544.0 L719.1,310.0 L719.3,310.0 L719.5,310.0 L719.8,310.0 L720.0,310.0 L720.2,310.0 L720.5,310.0 L720.7,310.0 L720.9,310.0 L721.2,310.0 L721.4,310.0 L721.6,544.0 L721.8,310.0 L722.1,310.0 L722.3,310.0 L722.5,310.0 L722.8,310.0 L723.0,310.0 L723.2,310.0 L723.5,310.0 L723.7,310.0 L723.9,310.0 L724.2,310.0 L724.4,310.0 L724.6,310.0 L724.9,310.0 L725.1,310.0 L725.3,310.0 L725.5,310.0 L725.8,310.0 L726.0,310.0 L726.2,76.0 L726.5,310.0 L726.7,310.0 L726.9,310.0 L727.2,310.0 L727.4,310.0 L727.6,310.0 L727.9,310.0 L728.1,310.0 L728.3,310.0 L728.6,310.0 L728.8,310.0 L729.0,76.0 L729.2,310.0 L729.5,310.0 L729.7,310.0 L729.9,310.0 L730.2,310.0 L730.4,310.0 L730.6,310.0 L730.9,310.0 L731.1,310.0 L731.3,310.0 L731.6,76.0 L731.8,76.0 L732.0,310.0 L732.2,76.0 L732.5,76.0 L732.7,310.0 L732.9,310.0 L733.2,310.0 L733.4,76.0 L733.6,310.0 L733.9,76.0 L734.1,310.0 L734.3,310.0 L734.6,310.0 L734.8,310.0 L735.0,310.0 L735.3,310.0 L735.5,310.0 L735.7,310.0 L735.9,310.0 L736.2,310.0 L736.4,310.0 L736.6,310.0 L736.9,310.0 L737.1,310.0 L737.3,76.0 L737.6,310.0 L737.8,310.0 L738.0,76.0 L738.3,310.0 L738.5,76.0 L738.7,310.0 L739.0,310.0 L739.2,310.0 L739.4,310.0 L739.6,76.0 L739.9,310.0 L740.1,310.0 L740.3,76.0 L740.6,310.0 L740.8,310.0 L741.0,310.0 L741.3,310.0 L741.5,76.0 L741.7,310.0 L742.0,310.0 L742.2,310.0 L742.4,310.0 L742.6,310.0 L742.9,310.0 L743.1,310.0 L743.3,310.0 L743.6,310.0 L743.8,310.0 L744.0,310.0 L744.3,544.0 L744.5,310.0 L744.7,310.0 L745.0,310.0 L745.2,544.0 L745.4,310.0 L745.7,310.0 L745.9,310.0 L746.1,310.0 L746.3,310.0 L746.6,310.0 L746.8,544.0 L747.0,310.0 L747.3,310.0 L747.5,310.0 L747.7,310.0 L748.0,310.0 L748.2,310.0 L748.4,76.0 L748.7,310.0 L748.9,544.0 L749.1,310.0 L749.4,310.0 L749.6,310.0 L749.8,310.0 L750.0,310.0 L750.3,310.0 L750.5,310.0 L750.7,310.0 L751.0,310.0 L751.2,310.0 L751.4,310.0 L751.7,310.0 L751.9,310.0 L752.1,310.0 L752.4,310.0 L752.6,310.0 L752.8,310.0 L753.0,76.0 L753.3,310.0 L753.5,310.0 L753.7,310.0 L754.0,310.0 L754.2,310.0 L754.4,310.0 L754.7,310.0 L754.9,310.0 L755.1,310.0 L755.4,310.0 L755.6,310.0 L755.8,310.0 L756.1,310.0 L756.3,544.0 L756.5,310.0 L756.7,310.0 L757.0,310.0 L757.2,310.0 L757.4,310.0 L757.7,310.0 L757.9,544.0 L758.1,310.0 L758.4,310.0 L758.6,544.0 L758.8,310.0 L759.1,310.0 L759.3,76.0 L759.5,310.0 L759.8,310.0 L760.0,310.0 L760.2,310.0 L760.4,310.0 L760.7,310.0 L760.9,310.0 L761.1,310.0 L761.4,310.0 L761.6,310.0 L761.8,310.0 L762.1,76.0 L762.3,310.0 L762.5,310.0 L762.8,310.0 L763.0,310.0 L763.2,310.0 L763.4,310.0 L763.7,310.0 L763.9,310.0 L764.1,310.0 L764.4,310.0 L764.6,310.0 L764.8,310.0 L765.1,310.0 L765.3,310.0 L765.5,310.0 L765.8,310.0 L766.0,310.0 L766.2,310.0 L766.5,310.0 L766.7,310.0 L766.9,310.0 L767.1,310.0 L767.4,310.0 L767.6,310.0 L767.8,310.0 L768.1,310.0 L768.3,310.0 L768.5,310.0 L768.8,310.0 L769.0,310.0 L769.2,310.0 L769.5,310.0 L769.7,310.0 L769.9,310.0 L770.2,310.0 L770.4,310.0 L770.6,310.0 L770.8,310.0 L771.1,310.0 L771.3,76.0 L771.5,310.0 L771.8,76.0 L772.0,310.0 L772.2,310.0 L772.5,76.0 L772.7,310.0 L772.9,76.0 L773.2,310.0 L773.4,310.0 L773.6,310.0 L773.8,310.0 L774.1,310.0 L774.3,310.0 L774.5,310.0 L774.8,310.0 L775.0,310.0 L775.2,310.0 L775.5,310.0 L775.7,310.0 L775.9,310.0 L776.2,544.0 L776.4,310.0 L776.6,310.0 L776.9,310.0 L777.1,310.0 L777.3,310.0 L777.5,310.0 L777.8,310.0 L778.0,544.0 L778.2,310.0 L778.5,310.0 L778.7,310.0 L778.9,76.0 L779.2,310.0 L779.4,310.0 L779.6,76.0 L779.9,310.0 L780.1,310.0 L780.3,310.0 L780.6,310.0 L780.8,310.0 L781.0,310.0 L781.2,310.0 L781.5,310.0 L781.7,310.0 L781.9,310.0 L782.2,310.0 L782.4,310.0 L782.6,310.0 L782.9,310.0 L783.1,544.0 L783.3,76.0 L783.6,310.0 L783.8,310.0 L784.0,310.0 L784.2,310.0 L784.5,310.0 L784.7,310.0 L784.9,310.0 L785.2,310.0 L785.4,544.0 L785.6,310.0 L785.9,544.0 L786.1,310.0 L786.3,544.0 L786.6,310.0 L786.8,310.0 L787.0,76.0 L787.3,310.0 L787.5,310.0 L787.7,310.0 L787.9,310.0 L788.2,310.0 L788.4,310.0 L788.6,544.0 L788.9,310.0 L789.1,310.0 L789.3,310.0 L789.6,310.0 L789.8,544.0 L790.0,310.0 L790.3,310.0 L790.5,310.0 L790.7,544.0 L791.0,310.0 L791.2,310.0 L791.4,310.0 L791.6,310.0 L791.9,310.0 L792.1,310.0 L792.3,544.0 L792.6,310.0 L792.8,544.0 L793.0,310.0 L793.3,310.0 L793.5,310.0 L793.7,310.0 L794.0,544.0 L794.2,310.0 L794.4,310.0 L794.6,310.0 L794.9,310.0 L795.1,310.0 L795.3,310.0 L795.6,544.0 L795.8,76.0 L796.0,310.0 L796.3,310.0 L796.5,310.0 L796.7,310.0 L797.0,310.0 L797.2,310.0 L797.4,310.0 L797.7,310.0 L797.9,310.0 L798.1,310.0 L798.3,310.0 L798.6,310.0 L798.8,310.0 L799.0,310.0 L799.3,310.0 L799.5,310.0 L799.7,310.0 L800.0,310.0 L800.2,310.0 L800.4,310.0 L800.7,544.0 L800.9,310.0 L801.1,310.0 L801.4,544.0 L801.6,310.0 L801.8,544.0 L802.0,310.0 L802.3,310.0 L802.5,310.0 L802.7,310.0 L803.0,310.0 L803.2,544.0 L803.4,310.0 L803.7,310.0 L803.9,310.0 L804.1,310.0 L804.4,310.0 L804.6,544.0 L804.8,310.0 L805.0,310.0 L805.3,76.0 L805.5,310.0 L805.7,310.0 L806.0,310.0 L806.2,310.0 L806.4,310.0 L806.7,310.0 L806.9,310.0 L807.1,310.0 L807.4,310.0 L807.6,310.0 L807.8,310.0 L808.1,310.0 L808.3,310.0 L808.5,310.0 L808.7,310.0 L809.0,310.0 L809.2,310.0 L809.4,310.0 L809.7,310.0 L809.9,310.0 L810.1,310.0 L810.4,310.0 L810.6,310.0 L810.8,76.0 L811.1,310.0 L811.3,310.0 L811.5,310.0 L811.8,310.0 L812.0,310.0 L812.2,310.0 L812.4,310.0 L812.7,544.0 L812.9,310.0 L813.1,310.0 L813.4,310.0 L813.6,310.0 L813.8,76.0 L814.1,310.0 L814.3,310.0 L814.5,310.0 L814.8,310.0 L815.0,310.0 L815.2,310.0 L815.4,310.0 L815.7,76.0 L815.9,310.0 L816.1,310.0 L816.4,310.0 L816.6,544.0 L816.8,310.0 L817.1,310.0 L817.3,544.0 L817.5,310.0 L817.8,310.0 L818.0,310.0 L818.2,310.0 L818.5,310.0 L818.7,310.0 L818.9,310.0 L819.1,310.0 L819.4,310.0 L819.6,310.0 L819.8,310.0 L820.1,544.0 L820.3,76.0 L820.5,310.0 L820.8,544.0 L821.0,310.0 L821.2,310.0 L821.5,310.0 L821.7,310.0 L821.9,310.0 L822.2,310.0 L822.4,310.0 L822.6,310.0 L822.8,310.0 L823.1,310.0 L823.3,310.0 L823.5,310.0 L823.8,310.0 L824.0,76.0 L824.2,310.0 L824.5,310.0 L824.7,310.0 L824.9,310.0 L825.2,310.0 L825.4,310.0 L825.6,310.0 L825.8,310.0 L826.1,310.0 L826.3,310.0 L826.5,310.0 L826.8,310.0 L827.0,310.0 L827.2,310.0 L827.5,310.0 L827.7,310.0 L827.9,310.0 L828.2,310.0 L828.4,310.0 L828.6,310.0 L828.9,310.0 L829.1,310.0 L829.3,310.0 L829.5,310.0 L829.8,310.0 L830.0,310.0 L830.2,310.0 L830.5,310.0 L830.7,310.0 L830.9,310.0 L831.2,310.0 L831.4,310.0 L831.6,310.0 L831.9,310.0 L832.1,310.0 L832.3,310.0 L832.6,310.0 L832.8,310.0 L833.0,310.0 L833.2,310.0 L833.5,544.0 L833.7,310.0 L833.9,310.0 L834.2,310.0 L834.4,310.0 L834.6,310.0 L834.9,310.0 L835.1,310.0 L835.3,310.0 L835.6,310.0 L835.8,310.0 L836.0,310.0 L836.2,310.0 L836.5,310.0 L836.7,310.0 L836.9,310.0 L837.2,310.0 L837.4,310.0 L837.6,310.0 L837.9,310.0 L838.1,310.0 L838.3,310.0 L838.6,310.0 L838.8,310.0 L839.0,310.0 L839.3,310.0 L839.5,544.0 L839.7,310.0 L839.9,310.0 L840.2,310.0 L840.4,310.0 L840.6,310.0 L840.9,310.0 L841.1,310.0 L841.3,310.0 L841.6,310.0 L841.8,310.0 L842.0,310.0 L842.3,310.0 L842.5,310.0 L842.7,310.0 L843.0,544.0 L843.2,310.0 L843.4,310.0 L843.6,310.0 L843.9,544.0 L844.1,310.0 L844.3,544.0 L844.6,310.0 L844.8,310.0 L845.0,310.0 L845.3,310.0 L845.5,310.0 L845.7,310.0 L846.0,310.0 L846.2,310.0 L846.4,310.0 L846.6,310.0 L846.9,310.0 L847.1,310.0 L847.3,76.0 L847.6,310.0 L847.8,310.0 L848.0,310.0 L848.3,310.0 L848.5,310.0 L848.7,310.0 L849.0,310.0 L849.2,310.0 L849.4,76.0 L849.7,310.0 L849.9,310.0 L850.1,310.0 L850.3,310.0 L850.6,76.0 L850.8,310.0 L851.0,310.0 L851.3,310.0 L851.5,544.0 L851.7,310.0 L852.0,310.0 L852.2,310.0 L852.4,310.0 L852.7,310.0 L852.9,310.0 L853.1,310.0 L853.4,310.0 L853.6,310.0 L853.8,310.0 L854.0,310.0 L854.3,544.0 L854.5,310.0 L854.7,310.0 L855.0,310.0 L855.2,310.0 L855.4,310.0 L855.7,544.0 L855.9,310.0 L856.1,310.0 L856.4,310.0 L856.6,310.0 L856.8,310.0 L857.0,310.0 L857.3,310.0 L857.5,310.0 L857.7,544.0 L858.0,310.0 L858.2,310.0 L858.4,310.0 L858.7,310.0 L858.9,310.0 L859.1,310.0 L859.4,310.0 L859.6,310.0 L859.8,544.0 L860.1,310.0 L860.3,310.0 L860.5,310.0 L860.7,310.0 L861.0,310.0 L861.2,544.0 L861.4,310.0 L861.7,310.0 L861.9,310.0 L862.1,310.0 L862.4,310.0 L862.6,310.0 L862.8,310.0 L863.1,310.0 L863.3,310.0 L863.5,544.0 L863.8,310.0 L864.0,310.0 L864.2,310.0 L864.4,310.0 L864.7,310.0 L864.9,310.0 L865.1,310.0 L865.4,544.0 L865.6,544.0 L865.8,544.0 L866.1,310.0 L866.3,544.0 L866.5,310.0 L866.8,544.0 L867.0,310.0 L867.2,544.0 L867.4,310.0 L867.7,544.0 L867.9,544.0 L868.1,310.0 L868.4,310.0 L868.6,544.0 L868.8,310.0 L869.1,310.0 L869.3,544.0 L869.5,310.0 L869.8,544.0 L870.0,310.0 L870.2,310.0 L870.5,310.0 L870.7,310.0 L870.9,544.0 L871.1,310.0 L871.4,310.0 L871.6,310.0 L871.8,310.0 L872.1,310.0 L872.3,310.0 L872.5,310.0 L872.8,310.0 L873.0,544.0 L873.2,310.0 L873.5,310.0 L873.7,310.0 L873.9,310.0 L874.2,310.0 L874.4,310.0 L874.6,310.0 L874.8,310.0 L875.1,310.0 L875.3,544.0 L875.5,310.0 L875.8,310.0 L876.0,310.0 L876.2,310.0 L876.5,310.0 L876.7,310.0 L876.9,310.0 L877.2,310.0 L877.4,310.0 L877.6,544.0 L877.8,310.0 L878.1,544.0 L878.3,310.0 L878.5,544.0 L878.8,544.0 L879.0,310.0 L879.2,544.0 L879.5,310.0 L879.7,544.0 L879.9,544.0 L880.2,544.0 L880.4,310.0 L880.6,544.0 L880.9,310.0 L881.1,310.0 L881.3,310.0 L881.5,310.0 L881.8,310.0 L882.0,310.0 L882.2,310.0 L882.5,310.0 L882.7,310.0 L882.9,310.0 L883.2,310.0 L883.4,310.0 L883.6,310.0 L883.9,76.0 L884.1,310.0 L884.3,310.0 L884.6,76.0 L884.8,310.0 L885.0,76.0 L885.2,310.0 L885.5,310.0 L885.7,310.0 L885.9,310.0 L886.2,310.0 L886.4,310.0 L886.6,310.0 L886.9,310.0 L887.1,310.0 L887.3,310.0 L887.6,310.0 L887.8,76.0 L888.0,310.0 L888.2,310.0 L888.5,310.0 L888.7,310.0 L888.9,310.0 L889.2,310.0 L889.4,310.0 L889.6,310.0 L889.9,310.0 L890.1,310.0 L890.3,310.0 L890.6,310.0 L890.8,310.0 L891.0,310.0 L891.3,310.0 L891.5,310.0 L891.7,310.0 L891.9,310.0 L892.2,544.0 L892.4,310.0 L892.6,310.0 L892.9,76.0 L893.1,310.0 L893.3,310.0 L893.6,310.0 L893.8,310.0 L894.0,310.0 L894.3,310.0 L894.5,310.0 L894.7,310.0 L895.0,310.0 L895.2,310.0 L895.4,310.0 L895.6,310.0 L895.9,310.0 L896.1,310.0 L896.3,310.0 L896.6,310.0 L896.8,310.0 L897.0,310.0 L897.3,76.0 L897.5,544.0 L897.7,310.0 L898.0,310.0 L898.2,310.0 L898.4,310.0 L898.6,310.0 L898.9,310.0 L899.1,310.0 L899.3,310.0 L899.6,310.0 L899.8,310.0 L900.0,310.0 L900.3,310.0 L900.5,310.0 L900.7,310.0 L901.0,310.0 L901.2,310.0 L901.4,310.0 L901.7,310.0 L901.9,310.0 L902.1,310.0 L902.3,310.0 L902.6,544.0 L902.8,310.0 L903.0,310.0 L903.3,310.0 L903.5,544.0 L903.7,310.0 L904.0,310.0 L904.2,544.0 L904.4,310.0 L904.7,310.0 L904.9,544.0 L905.1,310.0 L905.4,310.0 L905.6,310.0 L905.8,310.0 L906.0,544.0 L906.3,310.0 L906.5,310.0 L906.7,310.0 L907.0,544.0 L907.2,310.0 L907.4,310.0 L907.7,544.0 L907.9,310.0 L908.1,310.0 L908.4,310.0 L908.6,310.0 L908.8,310.0 L909.0,310.0 L909.3,310.0 L909.5,76.0 L909.7,310.0 L910.0,310.0 L910.2,310.0 L910.4,76.0 L910.7,310.0 L910.9,310.0 L911.1,76.0 L911.4,310.0 L911.6,310.0 L911.8,310.0 L912.1,310.0 L912.3,310.0 L912.5,310.0 L912.7,310.0 L913.0,310.0 L913.2,310.0 L913.4,310.0 L913.7,310.0 L913.9,310.0 L914.1,310.0 L914.4,310.0 L914.6,310.0 L914.8,310.0 L915.1,310.0 L915.3,310.0 L915.5,310.0 L915.8,544.0 L916.0,310.0 L916.2,544.0 L916.4,310.0 L916.7,310.0 L916.9,310.0 L917.1,544.0 L917.4,310.0 L917.6,310.0 L917.8,544.0 L918.1,310.0 L918.3,310.0 L918.5,310.0 L918.8,310.0 L919.0,310.0 L919.2,310.0 L919.4,310.0 L919.7,310.0 L919.9,76.0 L920.1,310.0 L920.4,310.0 L920.6,310.0 L920.8,310.0 L921.1,310.0 L921.3,310.0 L921.5,310.0 L921.8,76.0 L922.0,310.0 L922.2,310.0 L922.5,310.0 L922.7,310.0 L922.9,310.0 L923.1,310.0 L923.4,310.0 L923.6,310.0 L923.8,76.0 L924.1,310.0 L924.3,310.0 L924.5,76.0 L924.8,310.0 L925.0,310.0 L925.2,544.0 L925.5,76.0 L925.7,310.0 L925.9,310.0 L926.2,76.0 L926.4,544.0 L926.6,310.0 L926.8,310.0 L927.1,310.0 L927.3,310.0 L927.5,310.0 L927.8,310.0 L928.0,310.0 L928.2,310.0 L928.5,310.0 L928.7,310.0 L928.9,310.0 L929.2,310.0 L929.4,310.0 L929.6,310.0 L929.8,310.0 L930.1,310.0 L930.3,310.0 L930.5,310.0 L930.8,310.0 L931.0,544.0 L931.2,310.0 L931.5,310.0 L931.7,310.0 L931.9,310.0 L932.2,310.0 L932.4,310.0 L932.6,310.0 L932.9,310.0 L933.1,544.0 L933.3,310.0 L933.5,544.0 L933.8,310.0 L934.0,544.0 L934.2,310.0 L934.5,544.0 L934.7,310.0 L934.9,310.0 L935.2,310.0 L935.4,310.0 L935.6,310.0 L935.9,310.0 L936.1,310.0 L936.3,310.0 L936.6,310.0 L936.8,310.0 L937.0,310.0 L937.2,310.0 L937.5,310.0 L937.7,544.0 L937.9,310.0 L938.2,310.0 L938.4,310.0 L938.6,310.0 L938.9,310.0 L939.1,310.0 L939.3,310.0 L939.6,310.0 L939.8,310.0 L940.0,310.0 L940.2,310.0 L940.5,310.0 L940.7,310.0 L940.9,310.0 L941.2,310.0 L941.4,310.0 L941.6,310.0 L941.9,310.0 L942.1,310.0 L942.3,310.0 L942.6,310.0 L942.8,310.0 L943.0,310.0 L943.3,310.0 L943.5,310.0 L943.7,310.0 L943.9,310.0 L944.2,310.0 L944.4,310.0 L944.6,310.0 L944.9,310.0 L945.1,310.0 L945.3,76.0 L945.6,310.0 L945.8,310.0 L946.0,76.0 L946.3,544.0 L946.5,310.0 L946.7,310.0 L947.0,310.0 L947.2,310.0 L947.4,310.0 L947.6,310.0 L947.9,310.0 L948.1,310.0 L948.3,310.0 L948.6,310.0 L948.8,310.0 L949.0,310.0 L949.3,310.0 L949.5,310.0 L949.7,310.0 L950.0,310.0 L950.2,310.0 L950.4,310.0 L950.6,310.0 L950.9,310.0 L951.1,310.0 L951.3,310.0 L951.6,310.0 L951.8,310.0 L952.0,310.0 L952.3,76.0 L952.5,310.0 L952.7,310.0 L953.0,544.0 L953.2,310.0 L953.4,310.0 L953.7,310.0 L953.9,544.0 L954.1,310.0 L954.3,310.0 L954.6,310.0 L954.8,310.0 L955.0,310.0 L955.3,310.0 L955.5,310.0 L955.7,310.0 L956.0,310.0 L956.2,310.0 L956.4,310.0 L956.7,310.0 L956.9,310.0 L957.1,310.0 L957.4,76.0 L957.6,310.0 L957.8,310.0 L958.0,310.0 L958.3,310.0 L958.5,310.0 L958.7,310.0 L959.0,310.0 L959.2,310.0 L959.4,310.0 L959.7,310.0 L959.9,310.0 L960.1,76.0 L960.4,310.0 L960.6,310.0 L960.8,310.0 L961.0,76.0 L961.3,544.0 L961.5,310.0 L961.7,310.0 L962.0,310.0 L962.2,310.0 L962.4,544.0 L962.7,310.0 L962.9,310.0 L963.1,310.0 L963.4,544.0 L963.6,310.0 L963.8,310.0 L964.1,76.0 L964.3,310.0 L964.5,76.0 L964.7,544.0 L965.0,310.0 L965.2,310.0 L965.4,310.0 L965.7,310.0 L965.9,310.0 L966.1,310.0 L966.4,76.0 L966.6,310.0 L966.8,310.0 L967.1,310.0 L967.3,76.0 L967.5,76.0 L967.8,310.0 L968.0,310.0 L968.2,76.0 L968.4,310.0 L968.7,76.0 L968.9,310.0 L969.1,310.0 L969.4,310.0 L969.6,310.0 L969.8,76.0 L970.1,310.0 L970.3,310.0 L970.5,310.0 L970.8,310.0 L971.0,76.0 L971.2,310.0 L971.4,76.0 L971.7,310.0 L971.9,544.0 L972.1,310.0 L972.4,310.0 L972.6,310.0 L972.8,310.0 L973.1,76.0 L973.3,310.0 L973.5,310.0 L973.8,310.0 L974.0,310.0 L974.2,310.0 L974.5,310.0 L974.7,310.0 L974.9,310.0 L975.1,76.0 L975.4,310.0 L975.6,76.0 L975.8,310.0 L976.1,310.0 L976.3,310.0 L976.5,310.0 L976.8,310.0 L977.0,310.0 L977.2,310.0 L977.5,310.0 L977.7,544.0 L977.9,310.0 L978.2,310.0 L978.4,310.0 L978.6,310.0 L978.8,544.0 L979.1,310.0 L979.3,310.0 L979.5,544.0 L979.8,310.0 L980.0,544.0 L980.2,310.0 L980.5,310.0 L980.7,310.0 L980.9,310.0 L981.2,310.0 L981.4,544.0 L981.6,310.0 L981.8,544.0 L982.1,310.0 L982.3,310.0 L982.5,310.0 L982.8,544.0 L983.0,310.0 L983.2,544.0 L983.5,310.0 L983.7,310.0 L983.9,310.0 L984.2,310.0 L984.4,310.0 L984.6,310.0 L984.9,310.0 L985.1,310.0 L985.3,310.0 L985.5,310.0 L985.8,310.0 L986.0,310.0 L986.2,310.0 L986.5,310.0 L986.7,310.0 L986.9,310.0 L987.2,310.0 L987.4,310.0 L987.6,76.0 L987.9,310.0 L988.1,544.0 L988.3,310.0 L988.6,310.0 L988.8,310.0 L989.0,310.0 L989.2,76.0 L989.5,310.0 L989.7,310.0 L989.9,310.0 L990.2,76.0 L990.4,310.0 L990.6,310.0 L990.9,310.0 L991.1,310.0 L991.3,310.0 L991.6,76.0 L991.8,310.0 L992.0,76.0 L992.2,310.0 L992.5,310.0 L992.7,310.0 L992.9,310.0 L993.2,310.0 L993.4,310.0 L993.6,310.0 L993.9,310.0 L994.1,76.0 L994.3,310.0 L994.6,310.0 L994.8,76.0 L995.0,310.0 L995.3,310.0 L995.5,76.0 L995.7,310.0 L995.9,544.0 L996.2,310.0 L996.4,310.0 L996.6,544.0 L996.9,310.0 L997.1,310.0 L997.3,310.0 L997.6,310.0 L997.8,310.0 L998.0,76.0 L998.3,310.0 L998.5,310.0 L998.7,76.0 L999.0,310.0 L999.2,310.0 L999.4,310.0 L999.6,310.0 L999.9,310.0 L1000.1,310.0 L1000.3,310.0 L1000.6,310.0 L1000.8,310.0 L1001.0,310.0 L1001.3,310.0 L1001.5,76.0 L1001.7,310.0 L1002.0,310.0 L1002.2,310.0 L1002.4,310.0 L1002.6,76.0 L1002.9,310.0 L1003.1,76.0 L1003.3,310.0 L1003.6,76.0 L1003.8,310.0 L1004.0,310.0 L1004.3,310.0 L1004.5,310.0 L1004.7,310.0 L1005.0,310.0 L1005.2,310.0 L1005.4,310.0 L1005.7,76.0 L1005.9,310.0 L1006.1,310.0 L1006.3,310.0 L1006.6,76.0 L1006.8,76.0 L1007.0,310.0 L1007.3,76.0 L1007.5,310.0 L1007.7,310.0 L1008.0,310.0 L1008.2,310.0 L1008.4,310.0 L1008.7,76.0 L1008.9,310.0 L1009.1,310.0 L1009.4,76.0 L1009.6,310.0 L1009.8,76.0 L1010.0,544.0 L1010.3,310.0 L1010.5,310.0 L1010.7,310.0 L1011.0,310.0 L1011.2,310.0 L1011.4,310.0 L1011.7,310.0 L1011.9,310.0 L1012.1,310.0 L1012.4,310.0 L1012.6,310.0 L1012.8,310.0 L1013.0,310.0 L1013.3,310.0 L1013.5,310.0 L1013.7,310.0 L1014.0,310.0 L1014.2,544.0 L1014.4,310.0 L1014.7,310.0 L1014.9,310.0 L1015.1,310.0 L1015.4,310.0 L1015.6,310.0 L1015.8,310.0 L1016.1,310.0 L1016.3,310.0 L1016.5,544.0 L1016.7,310.0 L1017.0,310.0 L1017.2,310.0 L1017.4,76.0 L1017.7,310.0 L1017.9,310.0 L1018.1,310.0 L1018.4,310.0 L1018.6,310.0 L1018.8,310.0 L1019.1,310.0 L1019.3,310.0 L1019.5,310.0 L1019.8,310.0 L1020.0,310.0 L1020.2,310.0 L1020.4,310.0 L1020.7,310.0 L1020.9,310.0 L1021.1,544.0 L1021.4,544.0 L1021.6,310.0 L1021.8,310.0 L1022.1,310.0 L1022.3,310.0 L1022.5,544.0 L1022.8,310.0 L1023.0,310.0 L1023.2,310.0 L1023.4,310.0 L1023.7,310.0 L1023.9,310.0 L1024.1,310.0 L1024.4,310.0 L1024.6,310.0 L1024.8,544.0 L1025.1,310.0 L1025.3,310.0 L1025.5,310.0 L1025.8,310.0 L1026.0,310.0 L1026.2,310.0 L1026.5,544.0 L1026.7,310.0 L1026.9,310.0 L1027.1,310.0 L1027.4,544.0 L1027.6,544.0 L1027.8,310.0 L1028.1,310.0 L1028.3,310.0 L1028.5,310.0 L1028.8,544.0 L1029.0,310.0 L1029.2,310.0 L1029.5,310.0 L1029.7,310.0 L1029.9,310.0 L1030.2,310.0 L1030.4,310.0 L1030.6,310.0 L1030.8,310.0 L1031.1,310.0 L1031.3,310.0 L1031.5,310.0 L1031.8,310.0 L1032.0,310.0 L1032.2,76.0 L1032.5,310.0 L1032.7,310.0 L1032.9,310.0 L1033.2,310.0 L1033.4,310.0 L1033.6,310.0 L1033.8,310.0 L1034.1,310.0 L1034.3,544.0 L1034.5,310.0 L1034.8,310.0 L1035.0,310.0 L1035.2,310.0 L1035.5,310.0 L1035.7,310.0 L1035.9,544.0 L1036.2,310.0 L1036.4,310.0 L1036.6,310.0 L1036.9,544.0 L1037.1,310.0 L1037.3,310.0 L1037.5,310.0 L1037.8,310.0 L1038.0,544.0 L1038.2,310.0 L1038.5,310.0 L1038.7,544.0 L1038.9,310.0 L1039.2,310.0 L1039.4,310.0 L1039.6,544.0 L1039.9,310.0 L1040.1,310.0 L1040.3,544.0 L1040.6,310.0 L1040.8,310.0 L1041.0,310.0 L1041.2,310.0 L1041.5,310.0 L1041.7,310.0 L1041.9,544.0 L1042.2,310.0 L1042.4,310.0 L1042.6,310.0 L1042.9,544.0 L1043.1,76.0 L1043.3,310.0 L1043.6,310.0 L1043.8,310.0 L1044.0,310.0 L1044.2,544.0 L1044.5,310.0 L1044.7,310.0 L1044.9,544.0 L1045.2,310.0 L1045.4,310.0 L1045.6,310.0 L1045.9,544.0 L1046.1,310.0 L1046.3,310.0 L1046.6,310.0 L1046.8,310.0 L1047.0,310.0 L1047.3,310.0 L1047.5,310.0 L1047.7,310.0 L1047.9,310.0 L1048.2,310.0 L1048.4,76.0 L1048.6,310.0 L1048.9,310.0 L1049.1,310.0 L1049.3,310.0 L1049.6,310.0 L1049.8,310.0 L1050.0,544.0 L1050.3,310.0 L1050.5,310.0 L1050.7,544.0 L1051.0,310.0 L1051.2,310.0 L1051.4,310.0 L1051.6,310.0 L1051.9,310.0 L1052.1,76.0 L1052.3,310.0 L1052.6,310.0 L1052.8,544.0 L1053.0,310.0 L1053.3,310.0 L1053.5,310.0 L1053.7,310.0 L1054.0,310.0 L1054.2,310.0 L1054.4,310.0 L1054.6,310.0 L1054.9,310.0 L1055.1,544.0 L1055.3,310.0 L1055.6,310.0 L1055.8,544.0 L1056.0,310.0 L1056.3,544.0 L1056.5,310.0 L1056.7,310.0 L1057.0,310.0 L1057.2,310.0 L1057.4,310.0 L1057.7,310.0 L1057.9,310.0 L1058.1,310.0 L1058.3,310.0 L1058.6,310.0 L1058.8,310.0 L1059.0,310.0 L1059.3,544.0 L1059.5,310.0 L1059.7,310.0 L1060.0,310.0 L1060.2,310.0 L1060.4,310.0 L1060.7,310.0 L1060.9,310.0 L1061.1,544.0 L1061.4,310.0 L1061.6,310.0 L1061.8,310.0 L1062.0,310.0 L1062.3,310.0 L1062.5,310.0 L1062.7,310.0 L1063.0,310.0 L1063.2,310.0 L1063.4,310.0 L1063.7,310.0 L1063.9,310.0 L1064.1,310.0 L1064.4,310.0 L1064.6,310.0 L1064.8,544.0 L1065.0,310.0 L1065.3,310.0 L1065.5,310.0 L1065.7,544.0 L1066.0,310.0 L1066.2,310.0 L1066.4,310.0 L1066.7,310.0 L1066.9,310.0 L1067.1,544.0 L1067.4,310.0 L1067.6,544.0 L1067.8,310.0 L1068.1,310.0 L1068.3,310.0 L1068.5,310.0 L1068.7,544.0 L1069.0,310.0 L1069.2,310.0 L1069.4,310.0 L1069.7,310.0 L1069.9,310.0 L1070.1,310.0 L1070.4,544.0 L1070.6,310.0 L1070.8,310.0 L1071.1,310.0 L1071.3,310.0 L1071.5,310.0 L1071.8,310.0 L1072.0,310.0 L1072.2,310.0 L1072.4,310.0 L1072.7,310.0 L1072.9,310.0 L1073.1,310.0 L1073.4,76.0 L1073.6,310.0 L1073.8,310.0 L1074.1,310.0 L1074.3,310.0 L1074.5,310.0 L1074.8,76.0 L1075.0,310.0 L1075.2,310.0 L1075.4,310.0 L1075.7,310.0 L1075.9,310.0 L1076.1,310.0 L1076.4,76.0 L1076.6,310.0 L1076.8,310.0 L1077.1,310.0 L1077.3,310.0 L1077.5,310.0 L1077.8,310.0 L1078.0,76.0 L1078.2,310.0 L1078.5,310.0 L1078.7,310.0 L1078.9,310.0 L1079.1,76.0 L1079.4,310.0 L1079.6,310.0 L1079.8,310.0 L1080.1,310.0 L1080.3,310.0 L1080.5,310.0 L1080.8,310.0 L1081.0,310.0 L1081.2,544.0 L1081.5,310.0 L1081.7,310.0 L1081.9,310.0 L1082.2,310.0 L1082.4,310.0 L1082.6,544.0 L1082.8,310.0 L1083.1,310.0 L1083.3,310.0 L1083.5,544.0 L1083.8,310.0 L1084.0,310.0" fill="none" stroke="#ff7f0e" stroke-width="1.1" opacity="0.85"/><text x="616" y="572" font-size="11" fill="#888">time 0..40 s — altitude (blue) &amp; roll (orange)</text></svg>