<svg xmlns="http://www.w3.org/2000/svg" width="1140" height="600" font-family="sans-serif" font-size="13"><rect width="1140" height="600" fill="white"/><text x="20" y="26" font-size="15" fill="#333">TMS-7 F15 — cross-wind 12 m/s (10% noise)</text><rect x="20" y="40" width="540" height="540" fill="#fbfbfb" stroke="#ddd"/><rect x="50" y="277" width="464" height="8" fill="#cde" stroke="#369" opacity="0.7"/><text x="50" y="272" fill="#369" font-size="12">landing zone</text><circle cx="342" cy="359" r="5" fill="black"/><text x="350" y="363" font-size="12">pad</text><path d="M341.8,359.2 L341.8,359.2 L341.8,359.2 L341.8,359.2 L341.8,359.2 L341.8,359.2 L341.8,359.2 L341.8,359.2 L341.8,359.2 L341.8,359.2 L341.8,359.2 L341.8,359.2 L341.8,359.2 L341.8,359.2 L341.8,359.2 L341.8,359.2 L341.8,359.2 L341.8,359.2 L341.8,359.2 L341.8,359.2 L341.8,359.2 L341.8,359.2 L341.8,359.2 L341.8,359.2 L341.8,359.2 L341.8,359.2 L341.8,359.2 L341.8,359.2 L341.8,359.2 L341.8,359.2 L341.8,359.2 L341.8,359.2 L341.8,359.2 L341.8,359.2 L341.8,359.2 L341.8,359.2 L341.8,359.2 L341.8,359.2 L341.8,359.2 L341.8,359.2 L341.8,359.2 L341.8,359.2 L341.8,359.2 L341.8,359.2 L341.8,359.2 L341.8,359.2 L341.8,359.2 L341.8,359.2 L341.8,359.2 L341.8,359.2 L341.8,359.2 L341.8,359.2 L341.8,359.2 L341.8,359.2 L341.8,359.2 L341.8,359.2 L341.8,359.2 L341.8,359.2 L342.0,358.6 L342.3,358.3 L342.8,357.7 L343.1,357.1 L343.6,356.5 L343.9,356.2 L344.5,355.6 L344.7,355.0 L345.3,354.7 L345.8,354.1 L346.3,353.8 L346.9,353.2 L347.4,352.9 L347.9,352.3 L348.5,352.0 L349.0,351.7 L349.6,351.1 L350.1,350.8 L350.9,350.5 L351.4,350.2 L352.0,349.9 L352.8,349.6 L353.3,349.0 L354.1,348.7 L354.9,348.4 L355.5,348.1 L356.3,347.8 L357.1,347.8 L357.9,347.5 L358.7,347.2 L359.5,346.9 L360.3,346.6 L361.1,346.6 L361.9,346.4 L362.7,346.1 L363.5,346.1 L364.6,345.8 L365.4,345.5 L366.2,345.5 L367.3,345.2 L368.1,345.2 L369.2,344.9 L370.0,344.9 L371.1,344.9 L371.9,344.6 L373.0,344.6 L374.0,344.6 L374.8,344.6 L375.9,344.3 L377.0,344.3 L378.1,344.3 L379.1,344.3 L380.2,344.3 L381.3,344.3 L382.4,344.3 L383.4,344.3 L384.5,344.3 L385.6,344.3 L386.7,344.3 L388.0,344.3 L389.1,344.6 L390.2,344.6 L391.2,344.6 L392.6,344.6 L393.7,344.9 L395.0,344.9 L396.1,344.9 L397.4,345.2 L398.5,345.2 L399.8,345.2 L400.9,345.5 L402.3,345.5 L403.3,345.8 L404.7,345.8 L406.0,346.1 L407.1,346.4 L408.5,346.4 L409.8,346.6 L411.1,346.6 L412.2,346.9 L413.6,347.2 L414.9,347.2 L416.3,347.5 L417.6,347.8 L418.9,347.8 L420.0,348.1 L421.4,348.4 L422.7,348.7 L424.1,348.7 L425.4,349.0 L426.7,349.3 L428.1,349.6 L429.4,349.9 L430.8,349.9 L432.1,350.2 L433.5,350.5 L434.8,350.8 L436.2,351.1 L437.5,351.1 L438.8,351.4 L440.2,351.7 L441.5,352.0 L442.6,352.3 L443.9,352.3 L445.3,352.6 L446.6,352.9 L448.0,353.2 L449.3,353.5 L450.7,353.5 L452.0,353.8 L453.4,354.1 L454.7,354.4 L456.1,354.4 L457.4,354.7 L458.5,355.0 L459.8,355.3 L461.2,355.3 L462.5,355.6 L463.8,355.9 L464.9,355.9 L466.3,356.2 L467.6,356.2 L469.0,356.5 L470.0,356.5 L471.4,356.8 L472.5,356.8 L473.8,357.1 L475.1,357.1 L476.2,357.4 L477.6,357.4 L478.6,357.4 L479.7,357.7 L481.1,357.7 L482.1,357.7 L483.5,358.0 L484.6,358.0 L485.6,358.0 L486.7,358.0 L487.8,358.0 L489.1,358.0 L490.2,358.0 L491.3,358.0 L492.4,358.0 L493.4,358.0 L494.2,358.0 L495.3,358.0 L496.4,358.0 L497.5,358.0 L498.5,357.7 L499.3,357.7 L500.4,357.7 L501.2,357.4 L502.3,357.4 L503.1,357.1 L504.2,357.1 L505.0,356.8 L506.1,356.8 L506.9,356.5 L507.7,356.5 L508.5,356.2 L509.3,355.9 L510.1,355.9 L510.9,355.6 L511.7,355.3 L512.5,355.0 L513.3,354.7 L514.1,354.4 L514.9,354.1 L515.5,353.8 L516.3,353.5 L516.8,353.2 L517.6,352.9 L518.2,352.6 L519.0,352.3 L519.5,351.7 L520.1,351.4 L520.6,351.1 L521.1,350.5 L521.7,350.2 L522.2,349.9 L522.7,349.3 L523.3,349.0 L523.8,348.4 L524.4,347.8 L524.6,347.5 L525.2,346.9 L525.4,346.4 L526.0,346.1 L526.2,345.5 L526.5,344.9 L527.0,344.3 L527.3,343.7 L527.6,343.4 L527.8,342.8 L528.1,342.2 L528.4,341.6 L528.7,341.0 L528.9,340.1 L528.9,339.5 L529.2,338.9 L529.2,338.3 L529.5,337.7 L529.5,337.1 L529.7,336.2 L529.7,335.6 L529.7,335.0 L529.7,334.1 L529.7,333.5 L530.0,332.6 L529.7,332.0 L529.7,331.5 L529.7,330.6 L529.7,329.7 L529.5,329.1 L529.5,328.2 L529.5,327.6 L529.2,326.7 L529.2,326.1 L528.9,325.5 L528.7,324.9 L528.7,324.0 L528.4,323.4 L528.1,322.8 L527.8,321.9 L527.8,321.3 L527.6,320.7 L527.3,319.8 L527.0,319.2 L526.8,318.3 L526.2,317.7 L526.0,316.9 L525.7,316.3 L525.4,315.4 L524.9,314.8 L524.6,313.9 L524.4,313.3 L523.8,312.4 L523.5,311.8 L523.0,310.9 L522.5,310.0 L522.2,309.4 L521.7,308.5 L521.1,307.9 L520.6,307.0 L520.3,306.1 L519.8,305.5 L519.2,304.6 L518.7,303.7 L518.2,302.8 L517.4,302.3 L516.8,301.4 L516.3,300.5 L515.7,299.6 L515.2,298.7 L514.4,298.1 L513.9,297.2 L513.3,296.3 L512.5,295.4 L512.0,294.5 L511.2,293.9 L510.6,293.0 L510.1,292.1 L509.3,291.2 L508.8,290.3 L508.2,289.7 L507.4,288.8 L506.9,288.0 L506.3,287.1 L505.8,286.2 L505.0,285.6 L504.5,284.7 L503.9,283.8 L503.4,282.9 L502.8,282.3 L502.3,281.4 L501.8,280.5 L501.0,279.6 L500.4,279.0 L499.9,278.1 L499.1,277.2 L498.5,276.3 L497.7,275.4 L497.2,274.5 L496.7,273.9 L495.8,273.1 L495.3,272.2 L494.8,271.3 L494.2,270.4 L493.7,269.8 L492.9,268.9 L492.4,268.0 L492.1,267.4 L491.5,266.5 L491.0,265.6 L490.5,265.0 L489.9,264.1 L489.7,263.2 L489.1,262.6 L488.6,261.7 L488.3,260.8" fill="none" stroke="#1f77b4" stroke-width="1.7" opacity="0.85"/><circle cx="488" cy="261" r="4.5" fill="#1f77b4"/><text x="28" y="572" font-size="11" fill="#888">ground track — m from pad (N up)</text><rect x="580" y="40" width="540" height="540" fill="#fbfbfb" stroke="#ddd"/><text x="586" y="54" fill="#1f77b4" font-size="11">alt 302</text><text x="586" y="558" fill="#1f77b4" font-size="11">2</text><path d="M616.0,544.0 L616.2,543.5 L616.5,543.4 L616.7,543.2 L616.9,543.3 L617.2,543.3 L617.4,543.4 L617.6,543.6 L617.8,542.8 L618.1,542.5 L618.3,542.4 L618.5,542.9 L618.8,542.7 L619.0,542.6 L619.2,542.4 L619.5,541.6 L619.7,541.1 L619.9,540.9 L620.2,541.1 L620.4,540.4 L620.6,540.9 L620.9,540.8 L621.1,540.7 L621.3,539.5 L621.5,538.9 L621.8,538.6 L622.0,539.2 L622.2,538.4 L622.5,537.6 L622.7,536.5 L622.9,537.0 L623.2,535.3 L623.4,536.2 L623.6,536.4 L623.9,533.9 L624.1,532.9 L624.3,534.5 L624.6,533.8 L624.8,532.3 L625.0,531.0 L625.2,532.8 L625.5,531.0 L625.7,529.1 L625.9,530.7 L626.2,527.4 L626.4,529.2 L626.6,527.0 L626.9,526.8 L627.1,528.4 L627.3,523.3 L627.6,523.0 L627.8,523.9 L628.0,524.0 L628.3,523.5 L628.5,521.4 L628.7,521.6 L628.9,518.6 L629.2,519.9 L629.4,518.9 L629.6,515.9 L629.9,513.9 L630.1,515.9 L630.3,511.8 L630.6,517.2 L630.8,514.1 L631.0,511.8 L631.3,514.5 L631.5,513.3 L631.7,509.6 L632.0,511.8 L632.2,510.4 L632.4,506.5 L632.6,503.6 L632.9,500.5 L633.1,506.5 L633.3,498.7 L633.6,500.4 L633.8,495.2 L634.0,499.7 L634.3,500.7 L634.5,498.6 L634.7,493.1 L635.0,496.8 L635.2,488.4 L635.4,496.4 L635.7,489.5 L635.9,495.0 L636.1,489.8 L636.3,486.9 L636.6,483.6 L636.8,480.0 L637.0,480.1 L637.3,478.6 L637.5,481.4 L637.7,484.2 L638.0,470.9 L638.2,477.5 L638.4,478.4 L638.7,469.2 L638.9,471.7 L639.1,474.3 L639.4,469.0 L639.6,464.7 L639.8,458.6 L640.0,464.9 L640.3,460.7 L640.5,460.4 L640.7,462.3 L641.0,451.7 L641.2,455.2 L641.4,450.8 L641.7,452.8 L641.9,458.0 L642.1,444.3 L642.4,451.5 L642.6,452.1 L642.8,446.1 L643.1,451.5 L643.3,447.3 L643.5,436.4 L643.7,441.4 L644.0,427.0 L644.2,442.4 L644.4,441.4 L644.7,443.3 L644.9,433.6 L645.1,419.5 L645.4,423.2 L645.6,424.3 L645.8,415.0 L646.1,413.9 L646.3,426.9 L646.5,418.3 L646.8,415.8 L647.0,418.7 L647.2,401.0 L647.4,424.5 L647.7,409.9 L647.9,408.3 L648.1,404.0 L648.4,398.6 L648.6,396.0 L648.8,395.9 L649.1,390.8 L649.3,393.1 L649.5,395.0 L649.8,397.7 L650.0,401.4 L650.2,390.8 L650.5,372.3 L650.7,397.5 L650.9,367.9 L651.1,378.1 L651.4,392.9 L651.6,379.8 L651.8,381.4 L652.1,366.7 L652.3,381.9 L652.5,357.3 L652.8,356.0 L653.0,381.3 L653.2,372.2 L653.5,355.2 L653.7,360.7 L653.9,372.8 L654.2,350.7 L654.4,349.8 L654.6,364.7 L654.8,340.3 L655.1,339.2 L655.3,335.1 L655.5,358.5 L655.8,355.1 L656.0,316.3 L656.2,352.3 L656.5,309.2 L656.7,336.9 L656.9,343.2 L657.2,344.2 L657.4,343.3 L657.6,299.9 L657.9,333.8 L658.1,330.4 L658.3,306.4 L658.5,328.1 L658.8,319.0 L659.0,318.9 L659.2,297.0 L659.5,285.7 L659.7,288.3 L659.9,312.9 L660.2,271.7 L660.4,302.1 L660.6,278.2 L660.9,272.9 L661.1,298.3 L661.3,269.4 L661.6,258.0 L661.8,268.1 L662.0,269.6 L662.2,265.1 L662.5,298.4 L662.7,261.7 L662.9,269.2 L663.2,264.2 L663.4,254.5 L663.6,255.4 L663.9,273.8 L664.1,280.9 L664.3,273.4 L664.6,253.8 L664.8,271.7 L665.0,250.7 L665.3,258.5 L665.5,261.1 L665.7,270.2 L665.9,270.0 L666.2,270.4 L666.4,250.6 L666.6,249.2 L666.9,262.8 L667.1,259.4 L667.3,221.3 L667.6,223.5 L667.8,258.5 L668.0,256.8 L668.3,232.3 L668.5,213.9 L668.7,241.3 L669.0,194.9 L669.2,192.5 L669.4,229.6 L669.6,239.6 L669.9,236.7 L670.1,202.0 L670.3,217.5 L670.6,242.4 L670.8,225.4 L671.0,241.7 L671.3,177.5 L671.5,187.9 L671.7,194.7 L672.0,188.2 L672.2,213.2 L672.4,227.1 L672.7,220.6 L672.9,186.4 L673.1,227.5 L673.3,205.9 L673.6,210.7 L673.8,186.3 L674.0,161.6 L674.3,170.8 L674.5,222.3 L674.7,166.2 L675.0,190.1 L675.2,163.8 L675.4,167.9 L675.7,154.3 L675.9,158.7 L676.1,153.0 L676.3,210.3 L676.6,200.1 L676.8,201.5 L677.0,193.1 L677.3,169.7 L677.5,174.9 L677.7,156.6 L678.0,147.2 L678.2,201.6 L678.4,127.5 L678.7,152.0 L678.9,188.1 L679.1,148.2 L679.4,135.9 L679.6,121.9 L679.8,164.4 L680.0,116.6 L680.3,149.3 L680.5,158.2 L680.7,134.9 L681.0,134.7 L681.2,155.3 L681.4,119.9 L681.7,170.1 L681.9,171.3 L682.1,144.6 L682.4,158.2 L682.6,142.1 L682.8,101.0 L683.1,146.8 L683.3,122.8 L683.5,111.8 L683.7,171.7 L684.0,99.0 L684.2,128.5 L684.4,140.4 L684.7,127.2 L684.9,133.8 L685.1,161.0 L685.4,161.2 L685.6,145.3 L685.8,130.8 L686.1,94.2 L686.3,93.2 L686.5,128.7 L686.8,157.8 L687.0,126.9 L687.2,76.0 L687.4,119.5 L687.7,153.3 L687.9,86.0 L688.1,128.4 L688.4,152.2 L688.6,157.6 L688.8,93.1 L689.1,116.4 L689.3,86.3 L689.5,143.7 L689.8,91.6 L690.0,128.7 L690.2,114.5 L690.5,159.9 L690.7,89.4 L690.9,110.1 L691.1,91.9 L691.4,84.0 L691.6,133.9 L691.8,119.8 L692.1,137.8 L692.3,103.5 L692.5,129.0 L692.8,121.3 L693.0,146.1 L693.2,111.6 L693.5,95.1 L693.7,114.6 L693.9,139.2 L694.2,106.7 L694.4,78.1 L694.6,147.5 L694.8,148.1 L695.1,156.8 L695.3,138.0 L695.5,149.2 L695.8,124.5 L696.0,99.0 L696.2,130.9 L696.5,157.6 L696.7,115.0 L696.9,94.0 L697.2,85.2 L697.4,114.2 L697.6,158.3 L697.9,95.0 L698.1,110.1 L698.3,120.5 L698.5,85.2 L698.8,132.8 L699.0,110.9 L699.2,129.8 L699.5,142.5 L699.7,104.1 L699.9,106.8 L700.2,121.9 L700.4,134.4 L700.6,155.1 L700.9,137.1 L701.1,108.0 L701.3,105.3 L701.6,129.5 L701.8,151.7 L702.0,106.6 L702.2,126.7 L702.5,161.4 L702.7,153.5 L702.9,125.2 L703.2,117.8 L703.4,158.9 L703.6,105.2 L703.9,157.6 L704.1,149.2 L704.3,159.0 L704.6,154.4 L704.8,124.2 L705.0,81.7 L705.3,135.9 L705.5,159.1 L705.7,102.4 L705.9,154.1 L706.2,94.6 L706.4,137.2 L706.6,85.0 L706.9,89.1 L707.1,82.8 L707.3,161.0 L707.6,154.8 L707.8,149.6 L708.0,157.6 L708.3,137.4 L708.5,117.6 L708.7,115.9 L709.0,148.5 L709.2,153.4 L709.4,114.8 L709.6,83.4 L709.9,94.9 L710.1,136.6 L710.3,98.6 L710.6,138.6 L710.8,101.9 L711.0,88.7 L711.3,115.1 L711.5,99.3 L711.7,133.1 L712.0,143.1 L712.2,138.9 L712.4,139.8 L712.7,108.8 L712.9,141.4 L713.1,138.6 L713.3,88.1 L713.6,91.3 L713.8,158.7 L714.0,122.5 L714.3,109.4 L714.5,124.3 L714.7,158.5 L715.0,154.4 L715.2,115.3 L715.4,120.1 L715.7,103.4 L715.9,149.1 L716.1,141.9 L716.4,154.9 L716.6,100.2 L716.8,87.2 L717.0,167.9 L717.3,150.7 L717.5,154.9 L717.7,131.5 L718.0,159.2 L718.2,133.5 L718.4,107.9 L718.7,156.8 L718.9,122.3 L719.1,159.4 L719.4,119.1 L719.6,99.2 L719.8,137.5 L720.1,123.6 L720.3,126.6 L720.5,98.5 L720.7,91.7 L721.0,131.1 L721.2,144.0 L721.4,163.8 L721.7,131.9 L721.9,147.3 L722.1,125.6 L722.4,153.4 L722.6,98.3 L722.8,152.6 L723.1,117.1 L723.3,141.1 L723.5,91.2 L723.8,153.9 L724.0,161.6 L724.2,130.4 L724.4,129.3 L724.7,131.8 L724.9,98.9 L725.1,101.8 L725.4,114.5 L725.6,103.5 L725.8,122.0 L726.1,153.2 L726.3,163.4 L726.5,131.8 L726.8,104.3 L727.0,127.0 L727.2,129.9 L727.5,122.4 L727.7,152.2 L727.9,146.1 L728.1,92.5 L728.4,134.5 L728.6,109.6 L728.8,144.6 L729.1,173.6 L729.3,152.4 L729.5,160.7 L729.8,118.3 L730.0,172.6 L730.2,173.4 L730.5,171.9 L730.7,137.8 L730.9,126.7 L731.2,96.4 L731.4,93.1 L731.6,110.3 L731.8,140.0 L732.1,102.5 L732.3,159.0 L732.5,99.3 L732.8,95.2 L733.0,141.6 L733.2,112.7 L733.5,110.7 L733.7,110.8 L733.9,104.3 L734.2,124.7 L734.4,163.2 L734.6,156.9 L734.8,159.0 L735.1,95.1 L735.3,134.9 L735.5,154.7 L735.8,127.6 L736.0,105.1 L736.2,109.6 L736.5,100.3 L736.7,176.0 L736.9,133.9 L737.2,159.5 L737.4,162.3 L737.6,138.3 L737.9,175.0 L738.1,99.0 L738.3,149.5 L738.5,167.9 L738.8,113.0 L739.0,171.0 L739.2,121.3 L739.5,154.8 L739.7,100.1 L739.9,139.1 L740.2,171.5 L740.4,141.8 L740.6,176.2 L740.9,103.0 L741.1,155.9 L741.3,164.0 L741.6,153.3 L741.8,116.1 L742.0,115.0 L742.2,178.6 L742.5,146.1 L742.7,118.3 L742.9,137.2 L743.2,163.3 L743.4,119.6 L743.6,173.4 L743.9,101.9 L744.1,102.6 L744.3,167.3 L744.6,180.3 L744.8,163.0 L745.0,129.6 L745.3,125.8 L745.5,107.3 L745.7,103.6 L745.9,156.0 L746.2,103.3 L746.4,109.9 L746.6,122.9 L746.9,115.4 L747.1,182.2 L747.3,165.9 L747.6,174.6 L747.8,182.1 L748.0,112.3 L748.3,151.1 L748.5,148.3 L748.7,104.9 L749.0,173.4 L749.2,105.6 L749.4,116.8 L749.6,143.6 L749.9,164.1 L750.1,117.8 L750.3,133.1 L750.6,139.3 L750.8,124.6 L751.0,127.3 L751.3,141.2 L751.5,126.0 L751.7,164.9 L752.0,174.1 L752.2,108.3 L752.4,152.2 L752.7,123.2 L752.9,155.2 L753.1,110.3 L753.3,123.3 L753.6,127.0 L753.8,186.3 L754.0,123.4 L754.3,160.1 L754.5,167.3 L754.7,179.1 L755.0,176.3 L755.2,136.9 L755.4,139.5 L755.7,152.7 L755.9,172.2 L756.1,141.6 L756.4,114.3 L756.6,181.9 L756.8,118.1 L757.0,164.7 L757.3,130.2 L757.5,134.3 L757.7,116.6 L758.0,113.6 L758.2,139.0 L758.4,119.2 L758.7,114.5 L758.9,151.9 L759.1,153.2 L759.4,122.4 L759.6,178.3 L759.8,126.4 L760.1,186.9 L760.3,152.6 L760.5,130.6 L760.7,130.1 L761.0,188.6 L761.2,131.3 L761.4,176.2 L761.7,120.3 L761.9,184.8 L762.1,134.5 L762.4,161.0 L762.6,186.8 L762.8,157.7 L763.1,186.8 L763.3,141.2 L763.5,125.3 L763.8,141.6 L764.0,129.1 L764.2,183.8 L764.4,187.6 L764.7,172.6 L764.9,137.2 L765.1,136.3 L765.4,177.3 L765.6,178.3 L765.8,178.8 L766.1,166.9 L766.3,175.4 L766.5,128.0 L766.8,119.8 L767.0,135.9 L767.2,119.2 L767.5,154.4 L767.7,181.7 L767.9,167.4 L768.1,157.5 L768.4,182.9 L768.6,140.1 L768.8,170.2 L769.1,168.4 L769.3,150.1 L769.5,128.7 L769.8,191.0 L770.0,172.3 L770.2,173.6 L770.5,164.6 L770.7,192.7 L770.9,173.8 L771.2,186.6 L771.4,161.3 L771.6,150.2 L771.8,138.2 L772.1,183.2 L772.3,133.7 L772.5,188.6 L772.8,158.2 L773.0,185.4 L773.2,184.1 L773.5,147.2 L773.7,126.4 L773.9,166.0 L774.2,180.8 L774.4,169.1 L774.6,196.0 L774.9,143.2 L775.1,146.6 L775.3,201.9 L775.5,164.4 L775.8,192.9 L776.0,183.7 L776.2,183.9 L776.5,162.6 L776.7,190.8 L776.9,175.1 L777.2,164.1 L777.4,200.5 L777.6,163.5 L777.9,132.5 L778.1,199.9 L778.3,133.5 L778.6,136.7 L778.8,202.0 L779.0,132.9 L779.2,179.6 L779.5,191.5 L779.7,193.0 L779.9,158.5 L780.2,145.5 L780.4,154.8 L780.6,203.7 L780.9,197.5 L781.1,152.0 L781.3,169.0 L781.6,140.3 L781.8,201.1 L782.0,197.9 L782.3,157.9 L782.5,183.1 L782.7,205.8 L782.9,161.7 L783.2,137.3 L783.4,173.8 L783.6,199.6 L783.9,205.1 L784.1,193.7 L784.3,138.4 L784.6,200.2 L784.8,202.1 L785.0,203.9 L785.3,174.1 L785.5,201.7 L785.7,204.5 L786.0,176.7 L786.2,140.9 L786.4,151.9 L786.6,141.3 L786.9,188.5 L787.1,153.0 L787.3,147.7 L787.6,186.0 L787.8,154.7 L788.0,199.9 L788.3,201.4 L788.5,181.4 L788.7,180.6 L789.0,176.5 L789.2,145.9 L789.4,166.5 L789.7,213.7 L789.9,157.5 L790.1,166.4 L790.3,205.1 L790.6,209.0 L790.8,204.9 L791.0,153.7 L791.3,141.3 L791.5,211.6 L791.7,146.7 L792.0,148.9 L792.2,192.8 L792.4,174.9 L792.7,197.2 L792.9,203.5 L793.1,209.3 L793.3,158.9 L793.6,194.1 L793.8,216.1 L794.0,212.8 L794.3,213.8 L794.5,189.3 L794.7,211.1 L795.0,169.5 L795.2,184.3 L795.4,152.6 L795.7,186.0 L795.9,155.8 L796.1,208.8 L796.4,204.0 L796.6,184.2 L796.8,169.3 L797.0,210.4 L797.3,183.7 L797.5,158.5 L797.7,185.5 L798.0,205.1 L798.2,214.0 L798.4,187.6 L798.7,219.1 L798.9,173.3 L799.1,219.0 L799.4,178.7 L799.6,214.3 L799.8,220.7 L800.1,207.3 L800.3,163.5 L800.5,188.3 L800.7,221.1 L801.0,177.0 L801.2,220.0 L801.4,166.9 L801.7,158.5 L801.9,220.0 L802.1,201.2 L802.4,167.0 L802.6,218.8 L802.8,199.5 L803.1,168.4 L803.3,188.0 L803.5,176.3 L803.8,181.2 L804.0,174.9 L804.2,195.3 L804.4,175.2 L804.7,182.7 L804.9,197.6 L805.1,192.7 L805.4,195.4 L805.6,203.6 L805.8,157.5 L806.1,201.1 L806.3,190.8 L806.5,192.7 L806.8,180.4 L807.0,191.9 L807.2,161.5 L807.5,181.5 L807.7,205.4 L807.9,206.3 L808.1,183.9 L808.4,214.3 L808.6,208.7 L808.8,172.6 L809.1,167.1 L809.3,189.4 L809.5,169.2 L809.8,182.3 L810.0,205.7 L810.2,228.5 L810.5,222.9 L810.7,212.4 L810.9,175.3 L811.2,217.3 L811.4,201.0 L811.6,211.2 L811.8,210.6 L812.1,164.7 L812.3,190.6 L812.5,177.3 L812.8,180.8 L813.0,233.3 L813.2,175.1 L813.5,222.4 L813.7,198.1 L813.9,201.5 L814.2,174.4 L814.4,204.9 L814.6,222.0 L814.9,201.0 L815.1,189.7 L815.3,180.4 L815.5,207.7 L815.8,229.4 L816.0,186.4 L816.2,176.6 L816.5,195.3 L816.7,223.9 L816.9,227.9 L817.2,182.7 L817.4,228.4 L817.6,193.8 L817.9,186.9 L818.1,211.3 L818.3,183.1 L818.6,239.0 L818.8,193.7 L819.0,198.7 L819.2,204.8 L819.5,226.4 L819.7,237.9 L819.9,231.6 L820.2,223.0 L820.4,205.4 L820.6,184.2 L820.9,205.8 L821.1,240.2 L821.3,173.5 L821.6,191.1 L821.8,193.5 L822.0,194.7 L822.3,209.3 L822.5,215.7 L822.7,179.8 L822.9,195.1 L823.2,240.2 L823.4,179.7 L823.6,206.1 L823.9,228.5 L824.1,239.9 L824.3,201.3 L824.6,226.6 L824.8,187.4 L825.0,204.5 L825.3,195.4 L825.5,215.0 L825.7,201.1 L826.0,235.2 L826.2,224.4 L826.4,202.2 L826.6,196.9 L826.9,193.1 L827.1,201.8 L827.3,181.9 L827.6,228.5 L827.8,235.6 L828.0,187.3 L828.3,213.3 L828.5,183.3 L828.7,190.9 L829.0,247.4 L829.2,239.6 L829.4,201.8 L829.7,223.8 L829.9,219.3 L830.1,233.0 L830.3,220.5 L830.6,230.7 L830.8,209.8 L831.0,190.2 L831.3,211.9 L831.5,230.1 L831.7,234.8 L832.0,246.8 L832.2,197.9 L832.4,228.3 L832.7,212.4 L832.9,228.0 L833.1,230.9 L833.4,216.2 L833.6,235.2 L833.8,211.2 L834.0,234.7 L834.3,207.8 L834.5,234.0 L834.7,244.9 L835.0,224.3 L835.2,226.1 L835.4,205.8 L835.7,211.9 L835.9,247.1 L836.1,207.1 L836.4,201.2 L836.6,252.4 L836.8,237.8 L837.1,204.0 L837.3,205.6 L837.5,204.4 L837.7,209.8 L838.0,206.1 L838.2,247.4 L838.4,205.7 L838.7,228.6 L838.9,244.6 L839.1,201.3 L839.4,256.8 L839.6,241.6 L839.8,203.3 L840.1,242.6 L840.3,197.8 L840.5,215.3 L840.8,235.2 L841.0,236.3 L841.2,256.4 L841.4,255.1 L841.7,231.8 L841.9,227.9 L842.1,217.6 L842.4,245.6 L842.6,261.7 L842.8,241.6 L843.1,224.1 L843.3,249.9 L843.5,202.2 L843.8,241.7 L844.0,205.4 L844.2,220.1 L844.5,226.2 L844.7,253.6 L844.9,217.7 L845.1,204.7 L845.4,206.3 L845.6,257.7 L845.8,264.6 L846.1,255.1 L846.3,251.3 L846.5,204.4 L846.8,257.8 L847.0,258.0 L847.2,237.0 L847.5,214.2 L847.7,230.2 L847.9,228.6 L848.2,243.7 L848.4,221.3 L848.6,252.3 L848.8,221.3 L849.1,228.0 L849.3,249.9 L849.5,263.3 L849.8,215.5 L850.0,238.8 L850.2,241.2 L850.5,250.1 L850.7,259.9 L850.9,259.3 L851.2,251.6 L851.4,240.7 L851.6,262.3 L851.8,270.8 L852.1,238.2 L852.3,246.7 L852.5,268.4 L852.8,237.2 L853.0,242.8 L853.2,259.1 L853.5,241.5 L853.7,243.9 L853.9,239.9 L854.2,265.0 L854.4,264.3 L854.6,262.3 L854.9,233.0 L855.1,217.4 L855.3,260.0 L855.5,246.9 L855.8,244.6 L856.0,258.5 L856.2,261.1 L856.5,244.7 L856.7,238.7 L856.9,263.7 L857.2,232.6 L857.4,256.7 L857.6,249.2 L857.9,224.3 L858.1,258.1 L858.3,264.5 L858.6,233.7 L858.8,246.2 L859.0,264.0 L859.2,252.4 L859.5,228.3 L859.7,221.6 L859.9,275.9 L860.2,265.0 L860.4,245.2 L860.6,256.5 L860.9,223.1 L861.1,228.4 L861.3,271.0 L861.6,272.8 L861.8,261.6 L862.0,247.5 L862.3,247.1 L862.5,278.9 L862.7,227.5 L862.9,276.0 L863.2,238.4 L863.4,277.7 L863.6,243.5 L863.9,271.1 L864.1,276.0 L864.3,246.3 L864.6,283.7 L864.8,249.0 L865.0,236.3 L865.3,264.3 L865.5,255.0 L865.7,277.8 L866.0,255.6 L866.2,267.7 L866.4,236.0 L866.6,231.0 L866.9,230.5 L867.1,265.6 L867.3,277.6 L867.6,233.9 L867.8,259.6 L868.0,244.0 L868.3,244.4 L868.5,273.7 L868.7,235.9 L869.0,235.2 L869.2,279.5 L869.4,281.9 L869.7,284.5 L869.9,249.7 L870.1,266.1 L870.3,259.2 L870.6,273.7 L870.8,274.5 L871.0,263.8 L871.3,273.4 L871.5,271.2 L871.7,266.6 L872.0,235.2 L872.2,278.8 L872.4,290.5 L872.7,274.5 L872.9,255.1 L873.1,237.6 L873.4,291.4 L873.6,265.7 L873.8,253.1 L874.0,281.0 L874.3,281.0 L874.5,269.8 L874.7,267.7 L875.0,264.4 L875.2,290.0 L875.4,280.4 L875.7,243.4 L875.9,285.9 L876.1,245.5 L876.4,278.6 L876.6,286.0 L876.8,267.2 L877.1,286.3 L877.3,267.3 L877.5,259.3 L877.7,268.7 L878.0,267.6 L878.2,261.4 L878.4,272.1 L878.7,249.9 L878.9,265.1 L879.1,292.1 L879.4,255.0 L879.6,253.5 L879.8,247.4 L880.1,291.3 L880.3,291.1 L880.5,274.3 L880.8,295.7 L881.0,279.7 L881.2,277.2 L881.4,276.9 L881.7,273.1 L881.9,288.4 L882.1,260.4 L882.4,253.6 L882.6,301.9 L882.8,251.0 L883.1,257.2 L883.3,304.1 L883.5,262.6 L883.8,270.2 L884.0,267.7 L884.2,251.8 L884.5,290.9 L884.7,301.9 L884.9,256.1 L885.1,272.4 L885.4,286.7 L885.6,284.1 L885.8,286.6 L886.1,288.7 L886.3,285.0 L886.5,260.6 L886.8,299.4 L887.0,295.3 L887.2,306.8 L887.5,294.1 L887.7,265.1 L887.9,287.7 L888.2,278.8 L888.4,283.8 L888.6,262.0 L888.8,275.0 L889.1,302.0 L889.3,296.8 L889.5,274.8 L889.8,266.9 L890.0,266.3 L890.2,297.2 L890.5,279.3 L890.7,291.1 L890.9,280.9 L891.2,298.9 L891.4,301.6 L891.6,295.4 L891.9,288.8 L892.1,301.1 L892.3,279.7 L892.5,307.2 L892.8,277.2 L893.0,278.3 L893.2,310.5 L893.5,297.2 L893.7,280.2 L893.9,299.4 L894.2,302.6 L894.4,274.8 L894.6,313.1 L894.9,316.4 L895.1,305.7 L895.3,272.9 L895.6,293.7 L895.8,267.5 L896.0,303.2 L896.2,292.0 L896.5,284.8 L896.7,298.7 L896.9,299.6 L897.2,281.9 L897.4,297.0 L897.6,313.0 L897.9,274.8 L898.1,314.0 L898.3,275.0 L898.6,310.9 L898.8,274.4 L899.0,280.2 L899.3,293.5 L899.5,279.5 L899.7,319.4 L899.9,299.2 L900.2,301.9 L900.4,281.7 L900.6,306.3 L900.9,282.7 L901.1,310.7 L901.3,293.9 L901.6,320.6 L901.8,320.4 L902.0,280.4 L902.3,304.9 L902.5,279.4 L902.7,281.2 L903.0,310.5 L903.2,277.6 L903.4,285.9 L903.6,287.8 L903.9,306.1 L904.1,297.8 L904.3,314.5 L904.6,317.2 L904.8,301.2 L905.0,296.1 L905.3,302.7 L905.5,300.3 L905.7,317.7 L906.0,309.1 L906.2,304.4 L906.4,295.9 L906.7,285.6 L906.9,323.0 L907.1,301.4 L907.3,310.7 L907.6,309.4 L907.8,284.9 L908.0,283.9 L908.3,315.5 L908.5,305.3 L908.7,310.3 L909.0,298.7 L909.2,318.9 L909.4,331.5 L909.7,295.2 L909.9,318.9 L910.1,302.0 L910.3,298.8 L910.6,319.6 L910.8,299.0 L911.0,310.4 L911.3,313.4 L911.5,300.3 L911.7,317.1 L912.0,328.6 L912.2,298.1 L912.4,307.1 L912.7,314.5 L912.9,317.8 L913.1,296.7 L913.4,303.7 L913.6,302.5 L913.8,294.6 L914.0,327.9 L914.3,308.6 L914.5,307.6 L914.7,305.5 L915.0,306.0 L915.2,324.9 L915.4,309.7 L915.7,312.7 L915.9,330.0 L916.1,308.3 L916.4,323.4 L916.6,295.3 L916.8,316.3 L917.1,330.2 L917.3,309.8 L917.5,302.5 L917.7,313.7 L918.0,315.0 L918.2,299.3 L918.4,310.9 L918.7,342.1 L918.9,310.4 L919.1,339.8 L919.4,343.3 L919.6,313.8 L919.8,308.6 L920.1,333.7 L920.3,316.6 L920.5,302.5 L920.8,339.3 L921.0,338.7 L921.2,342.0 L921.4,322.8 L921.7,329.6 L921.9,318.9 L922.1,344.8 L922.4,304.9 L922.6,318.6 L922.8,308.2 L923.1,336.4 L923.3,325.7 L923.5,344.0 L923.8,318.5 L924.0,332.7 L924.2,344.9 L924.5,336.7 L924.7,329.1 L924.9,340.7 L925.1,326.7 L925.4,346.9 L925.6,348.7 L925.8,317.7 L926.1,312.2 L926.3,349.9 L926.5,338.9 L926.8,332.3 L927.0,349.7 L927.2,333.0 L927.5,331.6 L927.7,311.6 L927.9,332.4 L928.2,341.3 L928.4,332.3 L928.6,323.4 L928.8,326.9 L929.1,327.7 L929.3,326.9 L929.5,315.0 L929.8,340.1 L930.0,326.7 L930.2,333.0 L930.5,321.1 L930.7,337.4 L930.9,322.3 L931.2,354.7 L931.4,345.1 L931.6,330.6 L931.9,324.5 L932.1,327.3 L932.3,328.8 L932.5,320.4 L932.8,319.3 L933.0,319.5 L933.2,349.8 L933.5,353.6 L933.7,338.9 L933.9,327.9 L934.2,350.3 L934.4,342.5 L934.6,359.4 L934.9,360.2 L935.1,342.6 L935.3,325.9 L935.6,341.9 L935.8,362.6 L936.0,354.0 L936.2,337.5 L936.5,337.4 L936.7,349.5 L936.9,363.5 L937.2,324.1 L937.4,331.8 L937.6,343.6 L937.9,343.8 L938.1,346.2 L938.3,343.2 L938.6,362.4 L938.8,354.2 L939.0,363.6 L939.3,339.3 L939.5,355.7 L939.7,335.1 L939.9,337.5 L940.2,350.9 L940.4,351.6 L940.6,367.1 L940.9,365.3 L941.1,346.2 L941.3,349.7 L941.6,357.0 L941.8,343.4 L942.0,367.8 L942.3,365.0 L942.5,367.7 L942.7,361.0 L943.0,355.5 L943.2,369.5 L943.4,350.0 L943.6,370.9 L943.9,357.5 L944.1,345.5 L944.3,354.0 L944.6,366.6 L944.8,363.1 L945.0,347.0 L945.3,343.2 L945.5,358.8 L945.7,344.8 L946.0,340.3 L946.2,361.0 L946.4,355.7 L946.7,345.6 L946.9,350.6 L947.1,366.8 L947.3,374.8 L947.6,367.1 L947.8,363.1 L948.0,360.6 L948.3,342.6 L948.5,370.3 L948.7,361.4 L949.0,370.0 L949.2,347.9 L949.4,362.2 L949.7,377.1 L949.9,362.3 L950.1,367.5 L950.4,345.0 L950.6,377.4 L950.8,356.2 L951.0,370.8 L951.3,372.8 L951.5,359.6 L951.7,361.1 L952.0,378.2 L952.2,355.4 L952.4,364.8 L952.7,355.3 L952.9,380.1 L953.1,374.9 L953.4,355.0 L953.6,355.3 L953.8,373.1 L954.1,376.6 L954.3,349.0 L954.5,375.9 L954.7,374.7 L955.0,378.6 L955.2,379.1 L955.4,357.0 L955.7,382.1 L955.9,352.2 L956.1,359.5 L956.4,379.1 L956.6,361.0 L956.8,370.5 L957.1,359.7 L957.3,371.2 L957.5,374.3 L957.8,364.9 L958.0,354.5 L958.2,382.8 L958.4,373.4 L958.7,384.8 L958.9,389.3 L959.1,370.4 L959.4,374.8 L959.6,384.8 L959.8,380.7 L960.1,380.4 L960.3,376.5 L960.5,368.7 L960.8,377.4 L961.0,391.8 L961.2,372.1 L961.5,371.6 L961.7,390.3 L961.9,393.4 L962.1,374.6 L962.4,393.4 L962.6,384.2 L962.8,372.8 L963.1,371.5 L963.3,391.7 L963.5,389.9 L963.8,363.4 L964.0,375.3 L964.2,377.1 L964.5,383.9 L964.7,371.9 L964.9,366.6 L965.2,371.2 L965.4,395.9 L965.6,387.5 L965.8,376.0 L966.1,371.9 L966.3,391.5 L966.5,384.2 L966.8,394.3 L967.0,374.9 L967.2,393.0 L967.5,377.9 L967.7,381.3 L967.9,370.2 L968.2,376.7 L968.4,401.3 L968.6,397.0 L968.8,398.4 L969.1,371.6 L969.3,386.5 L969.5,396.4 L969.8,377.7 L970.0,389.3 L970.2,400.3 L970.5,385.2 L970.7,400.2 L970.9,396.6 L971.2,375.2 L971.4,379.1 L971.6,380.3 L971.9,377.4 L972.1,404.6 L972.3,375.9 L972.5,385.3 L972.8,387.0 L973.0,381.5 L973.2,384.0 L973.5,398.5 L973.7,402.4 L973.9,384.0 L974.2,395.1 L974.4,396.1 L974.6,395.9 L974.9,390.5 L975.1,409.0 L975.3,388.4 L975.6,385.7 L975.8,395.8 L976.0,388.3 L976.2,410.0 L976.5,397.9 L976.7,387.1 L976.9,383.9 L977.2,397.5 L977.4,388.7 L977.6,399.2 L977.9,412.3 L978.1,406.5 L978.3,403.9 L978.6,398.0 L978.8,406.8 L979.0,408.6 L979.3,384.9 L979.5,390.1 L979.7,399.0 L979.9,396.5 L980.2,387.7 L980.4,413.7 L980.6,408.0 L980.9,412.7 L981.1,390.3 L981.3,400.3 L981.6,397.1 L981.8,416.3 L982.0,407.9 L982.3,416.1 L982.5,408.6 L982.7,408.2 L983.0,411.3 L983.2,404.8 L983.4,401.5 L983.6,418.8 L983.9,411.8 L984.1,392.6 L984.3,417.2 L984.6,404.8 L984.8,403.9 L985.0,397.5 L985.3,398.0 L985.5,420.1 L985.7,409.9 L986.0,400.5 L986.2,420.1 L986.4,420.5 L986.7,401.5 L986.9,415.6 L987.1,409.4 L987.3,401.4 L987.6,415.2 L987.8,403.1 L988.0,411.0 L988.3,405.5 L988.5,414.5 L988.7,407.5 L989.0,423.2 L989.2,401.9 L989.4,410.4 L989.7,420.6 L989.9,420.4 L990.1,404.0 L990.4,407.9 L990.6,403.1 L990.8,407.4 L991.0,409.4 L991.3,409.8 L991.5,427.1 L991.7,424.3 L992.0,407.3 L992.2,417.3 L992.4,423.6 L992.7,420.2 L992.9,409.6 L993.1,420.3 L993.4,416.4 L993.6,427.6 L993.8,415.4 L994.1,416.3 L994.3,417.1 L994.5,416.3 L994.7,426.2 L995.0,423.1 L995.2,425.7 L995.4,432.6 L995.7,431.5 L995.9,430.5 L996.1,433.3 L996.4,410.2 L996.6,412.9 L996.8,434.9 L997.1,415.9 L997.3,429.9 L997.5,434.3 L997.8,416.2 L998.0,423.2 L998.2,435.7 L998.4,421.7 L998.7,426.1 L998.9,421.8 L999.1,427.3 L999.4,432.1 L999.6,429.5 L999.8,421.0 L1000.1,424.4 L1000.3,423.2 L1000.5,419.8 L1000.8,417.0 L1001.0,439.6 L1001.2,431.2 L1001.5,421.4 L1001.7,426.7 L1001.9,428.5 L1002.1,421.7 L1002.4,425.2 L1002.6,429.4 L1002.8,423.3 L1003.1,430.9 L1003.3,437.1 L1003.5,435.2 L1003.8,423.5 L1004.0,430.4 L1004.2,426.3 L1004.5,438.3 L1004.7,437.0 L1004.9,427.1 L1005.2,433.5 L1005.4,425.5 L1005.6,426.8 L1005.8,441.6 L1006.1,431.7 L1006.3,433.4 L1006.5,427.4 L1006.8,445.5 L1007.0,443.7 L1007.2,433.5 L1007.5,443.9 L1007.7,434.1 L1007.9,435.0 L1008.2,436.3 L1008.4,448.0 L1008.6,434.4 L1008.9,435.9 L1009.1,432.5 L1009.3,439.5 L1009.5,442.7 L1009.8,435.3 L1010.0,448.9 L1010.2,451.5 L1010.5,434.7 L1010.7,435.0 L1010.9,443.8 L1011.2,437.4 L1011.4,452.8 L1011.6,447.6 L1011.9,436.9 L1012.1,447.1 L1012.3,447.9 L1012.6,436.3 L1012.8,439.0 L1013.0,443.9 L1013.2,450.5 L1013.5,447.8 L1013.7,449.0 L1013.9,454.8 L1014.2,444.8 L1014.4,445.0 L1014.6,457.3 L1014.9,454.8 L1015.1,451.5 L1015.3,441.5 L1015.6,450.8 L1015.8,439.6 L1016.0,453.1 L1016.3,440.5 L1016.5,454.4 L1016.7,453.2 L1016.9,441.3 L1017.2,451.8 L1017.4,454.3 L1017.6,447.1 L1017.9,455.8 L1018.1,461.6 L1018.3,454.8 L1018.6,444.6 L1018.8,447.9 L1019.0,454.0 L1019.3,459.1 L1019.5,452.9 L1019.7,449.4 L1020.0,446.5 L1020.2,459.6 L1020.4,450.4 L1020.6,453.9 L1020.9,464.2 L1021.1,459.0 L1021.3,463.6 L1021.6,452.9 L1021.8,460.3 L1022.0,461.1 L1022.3,455.1 L1022.5,457.3 L1022.7,450.4 L1023.0,450.6 L1023.2,454.5 L1023.4,467.3 L1023.7,458.2 L1023.9,451.2 L1024.1,456.0 L1024.3,465.4 L1024.6,456.9 L1024.8,453.7 L1025.0,454.0 L1025.3,462.3 L1025.5,464.8 L1025.7,464.5 L1026.0,457.9 L1026.2,469.2 L1026.4,466.7 L1026.7,462.0 L1026.9,470.7 L1027.1,459.7 L1027.3,461.2 L1027.6,470.9 L1027.8,466.2 L1028.0,457.8 L1028.3,458.8 L1028.5,468.5 L1028.7,465.9 L1029.0,464.7 L1029.2,474.9 L1029.4,467.9 L1029.7,469.0 L1029.9,462.4 L1030.1,460.8 L1030.4,463.2 L1030.6,465.2 L1030.8,466.0 L1031.0,472.4 L1031.3,470.3 L1031.5,477.0 L1031.7,465.7 L1032.0,466.1 L1032.2,468.0 L1032.4,472.1 L1032.7,475.5 L1032.9,479.1 L1033.1,473.5 L1033.4,470.2 L1033.6,473.9 L1033.8,468.1 L1034.1,477.2 L1034.3,474.4 L1034.5,468.7 L1034.7,474.9 L1035.0,469.0 L1035.2,475.3 L1035.4,470.5 L1035.7,472.4 L1035.9,479.7 L1036.1,474.5 L1036.4,474.8 L1036.6,470.8 L1036.8,474.6 L1037.1,479.4 L1037.3,482.6 L1037.5,472.2 L1037.8,478.5 L1038.0,478.4 L1038.2,486.3 L1038.4,479.7 L1038.7,487.0 L1038.9,483.0 L1039.1,475.8 L1039.4,475.1 L1039.6,481.1 L1039.8,485.3 L1040.1,484.3 L1040.3,482.3 L1040.5,478.7 L1040.8,483.7 L1041.0,481.2 L1041.2,482.2 L1041.5,489.3 L1041.7,484.2 L1041.9,482.7 L1042.1,480.3 L1042.4,488.5 L1042.6,490.3 L1042.8,489.5 L1043.1,486.9 L1043.3,484.6 L1043.5,490.0 L1043.8,490.9 L1044.0,492.0 L1044.2,493.0 L1044.5,491.1 L1044.7,488.4 L1044.9,489.3 L1045.2,494.3 L1045.4,484.9 L1045.6,489.5 L1045.8,495.7 L1046.1,490.0 L1046.3,485.8 L1046.5,490.5 L1046.8,490.6 L1047.0,496.0 L1047.2,495.2 L1047.5,497.5 L1047.7,493.8 L1047.9,491.5 L1048.2,489.8 L1048.4,496.2 L1048.6,498.5 L1048.9,492.3 L1049.1,491.6 L1049.3,497.4 L1049.5,495.1 L1049.8,500.1 L1050.0,495.1 L1050.2,491.9 L1050.5,498.5 L1050.7,498.5 L1050.9,500.6 L1051.2,501.0 L1051.4,498.0 L1051.6,496.1 L1051.9,496.6 L1052.1,497.7 L1052.3,495.1 L1052.6,500.5 L1052.8,504.5 L1053.0,504.4 L1053.2,504.9 L1053.5,503.7 L1053.7,501.0 L1053.9,496.8 L1054.2,503.7 L1054.4,505.5 L1054.6,499.5 L1054.9,503.7 L1055.1,506.8 L1055.3,503.4 L1055.6,501.4 L1055.8,502.0 L1056.0,503.5 L1056.3,502.6 L1056.5,507.3 L1056.7,505.2 L1056.9,505.8 L1057.2,503.7 L1057.4,509.8 L1057.6,507.2 L1057.9,504.4 L1058.1,510.6 L1058.3,509.4 L1058.6,507.8 L1058.8,508.0 L1059.0,509.7 L1059.3,509.5 L1059.5,506.1 L1059.7,511.3 L1060.0,511.9 L1060.2,513.4 L1060.4,507.0 L1060.6,513.1 L1060.9,508.4 L1061.1,510.7 L1061.3,511.8 L1061.6,511.2 L1061.8,512.1 L1062.0,510.3 L1062.3,510.0 L1062.5,512.6 L1062.7,515.6 L1063.0,515.9 L1063.2,517.5 L1063.4,511.6 L1063.7,518.2 L1063.9,513.6 L1064.1,517.1 L1064.3,517.5 L1064.6,518.5 L1064.8,514.8 L1065.0,517.4 L1065.3,520.3 L1065.5,516.2 L1065.7,516.0 L1066.0,515.8 L1066.2,515.8 L1066.4,517.8 L1066.7,519.0 L1066.9,520.2 L1067.1,519.0 L1067.4,519.6 L1067.6,521.2 L1067.8,519.9 L1068.0,520.7 L1068.3,521.5 L1068.5,523.1 L1068.7,521.8 L1069.0,521.8 L1069.2,521.5 L1069.4,522.3 L1069.7,525.3 L1069.9,521.7 L1070.1,523.1 L1070.4,523.7 L1070.6,524.7 L1070.8,524.5 L1071.1,523.9 L1071.3,525.0 L1071.5,524.8 L1071.7,526.8 L1072.0,525.8 L1072.2,528.6 L1072.4,527.5 L1072.7,525.6 L1072.9,526.4 L1073.1,530.0 L1073.4,529.6 L1073.6,527.0 L1073.8,528.3 L1074.1,529.1 L1074.3,529.3 L1074.5,528.5 L1074.8,529.0 L1075.0,530.7 L1075.2,531.1 L1075.4,529.9 L1075.7,532.6 L1075.9,531.7 L1076.1,532.5 L1076.4,532.1 L1076.6,531.8 L1076.8,534.6 L1077.1,533.6 L1077.3,533.6 L1077.5,534.8 L1077.8,534.3 L1078.0,534.0 L1078.2,536.1 L1078.5,534.6 L1078.7,536.1 L1078.9,535.9 L1079.1,536.5 L1079.4,536.8 L1079.6,536.3 L1079.8,536.9 L1080.1,538.6 L1080.3,538.9 L1080.5,538.6 L1080.8,538.2 L1081.0,539.1 L1081.2,539.1 L1081.5,539.8 L1081.7,540.3 L1081.9,540.8 L1082.2,541.0 L1082.4,541.6 L1082.6,541.4 L1082.8,541.2 L1083.1,542.3 L1083.3,542.2 L1083.5,542.8 L1083.8,543.2 L1084.0,543.3" fill="none" stroke="#1f77b4" stroke-width="1.4" opacity="0.85"/><text x="1040" y="54" fill="#ff7f0e" font-size="11">roll 0</text><text x="1090" y="558" fill="#ff7f0e" font-size="11">-0</text><path d="M616.0,76.0 L616.2,310.0 L616.5,310.0 L616.7,544.0 L616.9,310.0 L617.2,310.0 L617.4,310.0 L617.6,544.0 L617.8,76.0 L618.1,310.0 L618.3,310.0 L618.5,310.0 L618.8,310.0 L619.0,310.0 L619.2,310.0 L619.5,76.0 L619.7,76.0 L619.9,310.0 L620.2,310.0 L620.4,310.0 L620.6,310.0 L620.9,310.0 L621.1,544.0 L621.3,544.0 L621.5,310.0 L621.8,76.0 L622.0,544.0 L622.2,544.0 L622.5,310.0 L622.7,76.0 L622.9,76.0 L623.2,310.0 L623.4,544.0 L623.6,310.0 L623.9,310.0 L624.1,544.0 L624.3,544.0 L624.6,76.0 L624.8,544.0 L625.0,310.0 L625.2,310.0 L625.5,310.0 L625.7,544.0 L625.9,310.0 L626.2,544.0 L626.4,544.0 L626.6,76.0 L626.9,544.0 L627.1,544.0 L627.3,544.0 L627.6,310.0 L627.8,544.0 L628.0,544.0 L628.3,544.0 L628.5,310.0 L628.7,544.0 L628.9,544.0 L629.2,310.0 L629.4,544.0 L629.6,310.0 L629.9,310.0 L630.1,544.0 L630.3,310.0 L630.6,310.0 L630.8,76.0 L631.0,310.0 L631.3,544.0 L631.5,544.0 L631.7,544.0 L632.0,76.0 L632.2,76.0 L632.4,76.0 L632.6,544.0 L632.9,310.0 L633.1,544.0 L633.3,544.0 L633.6,310.0 L633.8,76.0 L634.0,310.0 L634.3,310.0 L634.5,76.0 L634.7,310.0 L635.0,544.0 L635.2,76.0 L635.4,544.0 L635.7,310.0 L635.9,76.0 L636.1,310.0 L636.3,544.0 L636.6,544.0 L636.8,310.0 L637.0,310.0 L637.3,310.0 L637.5,76.0 L637.7,310.0 L638.0,310.0 L638.2,310.0 L638.4,544.0 L638.7,544.0 L638.9,310.0 L639.1,310.0 L639.4,310.0 L639.6,310.0 L639.8,76.0 L640.0,310.0 L640.3,76.0 L640.5,310.0 L640.7,310.0 L641.0,310.0 L641.2,310.0 L641.4,310.0 L641.7,76.0 L641.9,544.0 L642.1,310.0 L642.4,76.0 L642.6,76.0 L642.8,76.0 L643.1,310.0 L643.3,310.0 L643.5,544.0 L643.7,544.0 L644.0,76.0 L644.2,544.0 L644.4,544.0 L644.7,310.0 L644.9,544.0 L645.1,310.0 L645.4,76.0 L645.6,310.0 L645.8,310.0 L646.1,544.0 L646.3,76.0 L646.5,544.0 L646.8,310.0 L647.0,310.0 L647.2,544.0 L647.4,544.0 L647.7,76.0 L647.9,76.0 L648.1,310.0 L648.4,310.0 L648.6,310.0 L648.8,544.0 L649.1,76.0 L649.3,310.0 L649.5,310.0 L649.8,310.0 L650.0,310.0 L650.2,310.0 L650.5,310.0 L650.7,76.0 L650.9,76.0 L651.1,310.0 L651.4,76.0 L651.6,310.0 L651.8,310.0 L652.1,310.0 L652.3,310.0 L652.5,310.0 L652.8,310.0 L653.0,310.0 L653.2,544.0 L653.5,310.0 L653.7,76.0 L653.9,310.0 L654.2,310.0 L654.4,76.0 L654.6,310.0 L654.8,544.0 L655.1,544.0 L655.3,76.0 L655.5,310.0 L655.8,76.0 L656.0,310.0 L656.2,76.0 L656.5,310.0 L656.7,310.0 L656.9,76.0 L657.2,544.0 L657.4,310.0 L657.6,76.0 L657.9,544.0 L658.1,76.0 L658.3,544.0 L658.5,310.0 L658.8,310.0 L659.0,310.0 L659.2,310.0 L659.5,310.0 L659.7,310.0 L659.9,310.0 L660.2,310.0 L660.4,76.0 L660.6,76.0 L660.9,76.0 L661.1,544.0 L661.3,310.0 L661.6,310.0 L661.8,310.0 L662.0,310.0 L662.2,76.0 L662.5,544.0 L662.7,544.0 L662.9,310.0 L663.2,544.0 L663.4,76.0 L663.6,544.0 L663.9,544.0 L664.1,76.0 L664.3,76.0 L664.6,310.0 L664.8,310.0 L665.0,544.0 L665.3,544.0 L665.5,544.0 L665.7,310.0 L665.9,544.0 L666.2,76.0 L666.4,310.0 L666.6,310.0 L666.9,310.0 L667.1,310.0 L667.3,544.0 L667.6,310.0 L667.8,310.0 L668.0,310.0 L668.3,310.0 L668.5,76.0 L668.7,310.0 L669.0,310.0 L669.2,310.0 L669.4,76.0 L669.6,310.0 L669.9,310.0 L670.1,310.0 L670.3,76.0 L670.6,310.0 L670.8,310.0 L671.0,310.0 L671.3,544.0 L671.5,310.0 L671.7,310.0 L672.0,310.0 L672.2,310.0 L672.4,76.0 L672.7,310.0 L672.9,76.0 L673.1,310.0 L673.3,310.0 L673.6,544.0 L673.8,76.0 L674.0,544.0 L674.3,76.0 L674.5,310.0 L674.7,76.0 L675.0,76.0 L675.2,544.0 L675.4,544.0 L675.7,76.0 L675.9,310.0 L676.1,544.0 L676.3,76.0 L676.6,76.0 L676.8,544.0 L677.0,544.0 L677.3,310.0 L677.5,76.0 L677.7,310.0 L678.0,310.0 L678.2,76.0 L678.4,310.0 L678.7,310.0 L678.9,310.0 L679.1,310.0 L679.4,310.0 L679.6,544.0 L679.8,76.0 L680.0,310.0 L680.3,310.0 L680.5,310.0 L680.7,310.0 L681.0,76.0 L681.2,310.0 L681.4,544.0 L681.7,310.0 L681.9,76.0 L682.1,310.0 L682.4,310.0 L682.6,310.0 L682.8,310.0 L683.1,310.0 L683.3,544.0 L683.5,76.0 L683.7,310.0 L684.0,76.0 L684.2,310.0 L684.4,310.0 L684.7,310.0 L684.9,544.0 L685.1,544.0 L685.4,544.0 L685.6,76.0 L685.8,544.0 L686.1,310.0 L686.3,76.0 L686.5,544.0 L686.8,76.0 L687.0,310.0 L687.2,544.0 L687.4,76.0 L687.7,310.0 L687.9,544.0 L688.1,76.0 L688.4,310.0 L688.6,310.0 L688.8,76.0 L689.1,310.0 L689.3,76.0 L689.5,310.0 L689.8,310.0 L690.0,544.0 L690.2,76.0 L690.5,310.0 L690.7,310.0 L690.9,310.0 L691.1,76.0 L691.4,544.0 L691.6,310.0 L691.8,76.0 L692.1,310.0 L692.3,310.0 L692.5,76.0 L692.8,310.0 L693.0,76.0 L693.2,310.0 L693.5,310.0 L693.7,76.0 L693.9,310.0 L694.2,310.0 L694.4,310.0 L694.6,310.0 L694.8,76.0 L695.1,310.0 L695.3,310.0 L695.5,76.0 L695.8,310.0 L696.0,310.0 L696.2,76.0 L696.5,76.0 L696.7,310.0 L696.9,310.0 L697.2,76.0 L697.4,310.0 L697.6,310.0 L697.9,310.0 L698.1,544.0 L698.3,76.0 L698.5,310.0 L698.8,544.0 L699.0,76.0 L699.2,544.0 L699.5,76.0 L699.7,310.0 L699.9,310.0 L700.2,310.0 L700.4,76.0 L700.6,76.0 L700.9,310.0 L701.1,76.0 L701.3,544.0 L701.6,76.0 L701.8,310.0 L702.0,544.0 L702.2,310.0 L702.5,310.0 L702.7,76.0 L702.9,544.0 L703.2,310.0 L703.4,310.0 L703.6,76.0 L703.9,76.0 L704.1,310.0 L704.3,310.0 L704.6,76.0 L704.8,76.0 L705.0,76.0 L705.3,76.0 L705.5,310.0 L705.7,310.0 L705.9,76.0 L706.2,76.0 L706.4,310.0 L706.6,76.0 L706.9,310.0 L707.1,310.0 L707.3,76.0 L707.6,310.0 L707.8,310.0 L708.0,544.0 L708.3,76.0 L708.5,310.0 L708.7,76.0 L709.0,544.0 L709.2,310.0 L709.4,310.0 L709.6,310.0 L709.9,310.0 L710.1,310.0 L710.3,76.0 L710.6,310.0 L710.8,544.0 L711.0,310.0 L711.3,310.0 L711.5,310.0 L711.7,76.0 L712.0,544.0 L712.2,76.0 L712.4,310.0 L712.7,310.0 L712.9,310.0 L713.1,310.0 L713.3,310.0 L713.6,310.0 L713.8,310.0 L714.0,310.0 L714.3,310.0 L714.5,76.0 L714.7,544.0 L715.0,310.0 L715.2,76.0 L715.4,310.0 L715.7,544.0 L715.9,544.0 L716.1,76.0 L716.4,310.0 L716.6,310.0 L716.8,310.0 L717.0,76.0 L717.3,76.0 L717.5,544.0 L717.7,310.0 L718.0,76.0 L718.2,76.0 L718.4,310.0 L718.7,544.0 L718.9,310.0 L719.1,76.0 L719.4,544.0 L719.6,310.0 L719.8,310.0 L720.1,310.0 L720.3,310.0 L720.5,76.0 L720.7,310.0 L721.0,544.0 L721.2,76.0 L721.4,544.0 L721.7,76.0 L721.9,310.0 L722.1,544.0 L722.4,544.0 L722.6,310.0 L722.8,310.0 L723.1,76.0 L723.3,310.0 L723.5,76.0 L723.8,76.0 L724.0,544.0 L724.2,310.0 L724.4,76.0 L724.7,310.0 L724.9,310.0 L725.1,544.0 L725.4,310.0 L725.6,310.0 L725.8,544.0 L726.1,310.0 L726.3,310.0 L726.5,76.0 L726.8,544.0 L727.0,76.0 L727.2,310.0 L727.5,310.0 L727.7,76.0 L727.9,310.0 L728.1,76.0 L728.4,76.0 L728.6,544.0 L728.8,310.0 L729.1,310.0 L729.3,76.0 L729.5,310.0 L729.8,310.0 L730.0,310.0 L730.2,310.0 L730.5,544.0 L730.7,76.0 L730.9,76.0 L731.2,76.0 L731.4,76.0 L731.6,310.0 L731.8,76.0 L732.1,310.0 L732.3,76.0 L732.5,544.0 L732.8,310.0 L733.0,76.0 L733.2,544.0 L733.5,310.0 L733.7,310.0 L733.9,76.0 L734.2,310.0 L734.4,310.0 L734.6,76.0 L734.8,310.0 L735.1,310.0 L735.3,310.0 L735.5,544.0 L735.8,76.0 L736.0,544.0 L736.2,310.0 L736.5,310.0 L736.7,76.0 L736.9,310.0 L737.2,310.0 L737.4,310.0 L737.6,310.0 L737.9,310.0 L738.1,76.0 L738.3,544.0 L738.5,544.0 L738.8,310.0 L739.0,544.0 L739.2,310.0 L739.5,310.0 L739.7,310.0 L739.9,544.0 L740.2,544.0 L740.4,310.0 L740.6,76.0 L740.9,544.0 L741.1,544.0 L741.3,76.0 L741.6,544.0 L741.8,544.0 L742.0,76.0 L742.2,310.0 L742.5,310.0 L742.7,76.0 L742.9,310.0 L743.2,76.0 L743.4,544.0 L743.6,76.0 L743.9,310.0 L744.1,310.0 L744.3,544.0 L744.6,310.0 L744.8,76.0 L745.0,544.0 L745.3,544.0 L745.5,310.0 L745.7,310.0 L745.9,76.0 L746.2,310.0 L746.4,76.0 L746.6,544.0 L746.9,310.0 L747.1,310.0 L747.3,76.0 L747.6,544.0 L747.8,76.0 L748.0,310.0 L748.3,76.0 L748.5,544.0 L748.7,76.0 L749.0,544.0 L749.2,76.0 L749.4,310.0 L749.6,76.0 L749.9,544.0 L750.1,310.0 L750.3,310.0 L750.6,544.0 L750.8,310.0 L751.0,544.0 L751.3,544.0 L751.5,310.0 L751.7,544.0 L752.0,76.0 L752.2,544.0 L752.4,76.0 L752.7,310.0 L752.9,310.0 L753.1,310.0 L753.3,544.0 L753.6,544.0 L753.8,76.0 L754.0,310.0 L754.3,310.0 L754.5,310.0 L754.7,76.0 L755.0,76.0 L755.2,544.0 L755.4,76.0 L755.7,76.0 L755.9,76.0 L756.1,544.0 L756.4,76.0 L756.6,310.0 L756.8,310.0 L757.0,310.0 L757.3,310.0 L757.5,310.0 L757.7,76.0 L758.0,544.0 L758.2,76.0 L758.4,310.0 L758.7,310.0 L758.9,310.0 L759.1,76.0 L759.4,310.0 L759.6,310.0 L759.8,544.0 L760.1,76.0 L760.3,76.0 L760.5,310.0 L760.7,310.0 L761.0,310.0 L761.2,310.0 L761.4,76.0 L761.7,310.0 L761.9,310.0 L762.1,310.0 L762.4,310.0 L762.6,76.0 L762.8,310.0 L763.1,76.0 L763.3,310.0 L763.5,310.0 L763.8,544.0 L764.0,310.0 L764.2,544.0 L764.4,76.0 L764.7,310.0 L764.9,544.0 L765.1,76.0 L765.4,544.0 L765.6,76.0 L765.8,310.0 L766.1,310.0 L766.3,310.0 L766.5,544.0 L766.8,76.0 L767.0,544.0 L767.2,544.0 L767.5,544.0 L767.7,310.0 L767.9,76.0 L768.1,310.0 L768.4,310.0 L768.6,310.0 L768.8,544.0 L769.1,544.0 L769.3,310.0 L769.5,544.0 L769.8,544.0 L770.0,310.0 L770.2,76.0 L770.5,310.0 L770.7,310.0 L770.9,544.0 L771.2,76.0 L771.4,310.0 L771.6,310.0 L771.8,310.0 L772.1,310.0 L772.3,310.0 L772.5,76.0 L772.8,310.0 L773.0,310.0 L773.2,76.0 L773.5,310.0 L773.7,310.0 L773.9,310.0 L774.2,310.0 L774.4,310.0 L774.6,310.0 L774.9,544.0 L775.1,544.0 L775.3,310.0 L775.5,310.0 L775.8,76.0 L776.0,310.0 L776.2,544.0 L776.5,310.0 L776.7,544.0 L776.9,310.0 L777.2,76.0 L777.4,310.0 L777.6,310.0 L777.9,310.0 L778.1,310.0 L778.3,310.0 L778.6,310.0 L778.8,310.0 L779.0,544.0 L779.2,310.0 L779.5,544.0 L779.7,310.0 L779.9,310.0 L780.2,544.0 L780.4,310.0 L780.6,544.0 L780.9,76.0 L781.1,544.0 L781.3,76.0 L781.6,544.0 L781.8,310.0 L782.0,310.0 L782.3,76.0 L782.5,310.0 L782.7,310.0 L782.9,544.0 L783.2,76.0 L783.4,544.0 L783.6,76.0 L783.9,544.0 L784.1,310.0 L784.3,76.0 L784.6,76.0 L784.8,544.0 L785.0,76.0 L785.3,544.0 L785.5,310.0 L785.7,76.0 L786.0,544.0 L786.2,544.0 L786.4,310.0 L786.6,310.0 L786.9,310.0 L787.1,310.0 L787.3,76.0 L787.6,310.0 L787.8,310.0 L788.0,544.0 L788.3,310.0 L788.5,310.0 L788.7,76.0 L789.0,544.0 L789.2,76.0 L789.4,76.0 L789.7,76.0 L789.9,310.0 L790.1,76.0 L790.3,310.0 L790.6,310.0 L790.8,310.0 L791.0,310.0 L791.3,544.0 L791.5,76.0 L791.7,544.0 L792.0,310.0 L792.2,544.0 L792.4,310.0 L792.7,310.0 L792.9,544.0 L793.1,544.0 L793.3,310.0 L793.6,544.0 L793.8,76.0 L794.0,310.0 L794.3,310.0 L794.5,544.0 L794.7,310.0 L795.0,310.0 L795.2,310.0 L795.4,76.0 L795.7,544.0 L795.9,544.0 L796.1,310.0 L796.4,310.0 L796.6,310.0 L796.8,544.0 L797.0,310.0 L797.3,310.0 L797.5,544.0 L797.7,310.0 L798.0,310.0 L798.2,544.0 L798.4,310.0 L798.7,76.0 L798.9,544.0 L799.1,310.0 L799.4,544.0 L799.6,310.0 L799.8,310.0 L800.1,310.0 L800.3,544.0 L800.5,310.0 L800.7,76.0 L801.0,310.0 L801.2,310.0 L801.4,76.0 L801.7,310.0 L801.9,76.0 L802.1,310.0 L802.4,76.0 L802.6,310.0 L802.8,544.0 L803.1,76.0 L803.3,310.0 L803.5,76.0 L803.8,310.0 L804.0,76.0 L804.2,310.0 L804.4,76.0 L804.7,310.0 L804.9,76.0 L805.1,544.0 L805.4,310.0 L805.6,310.0 L805.8,310.0 L806.1,310.0 L806.3,310.0 L806.5,310.0 L806.8,310.0 L807.0,544.0 L807.2,310.0 L807.5,310.0 L807.7,310.0 L807.9,310.0 L808.1,310.0 L808.4,544.0 L808.6,310.0 L808.8,310.0 L809.1,544.0 L809.3,76.0 L809.5,544.0 L809.8,310.0 L810.0,310.0 L810.2,310.0 L810.5,544.0 L810.7,310.0 L810.9,310.0 L811.2,76.0 L811.4,76.0 L811.6,310.0 L811.8,310.0 L812.1,544.0 L812.3,310.0 L812.5,544.0 L812.8,544.0 L813.0,76.0 L813.2,310.0 L813.5,310.0 L813.7,544.0 L813.9,76.0 L814.2,544.0 L814.4,310.0 L814.6,544.0 L814.9,76.0 L815.1,310.0 L815.3,544.0 L815.5,310.0 L815.8,310.0 L816.0,544.0 L816.2,76.0 L816.5,544.0 L816.7,76.0 L816.9,310.0 L817.2,310.0 L817.4,76.0 L817.6,544.0 L817.9,544.0 L818.1,76.0 L818.3,76.0 L818.6,310.0 L818.8,310.0 L819.0,76.0 L819.2,310.0 L819.5,76.0 L819.7,310.0 L819.9,310.0 L820.2,310.0 L820.4,310.0 L820.6,310.0 L820.9,76.0 L821.1,76.0 L821.3,310.0 L821.6,76.0 L821.8,310.0 L822.0,310.0 L822.3,310.0 L822.5,310.0 L822.7,544.0 L822.9,310.0 L823.2,310.0 L823.4,310.0 L823.6,76.0 L823.9,544.0 L824.1,76.0 L824.3,76.0 L824.6,76.0 L824.8,310.0 L825.0,310.0 L825.3,310.0 L825.5,310.0 L825.7,76.0 L826.0,310.0 L826.2,310.0 L826.4,310.0 L826.6,310.0 L826.9,544.0 L827.1,76.0 L827.3,310.0 L827.6,310.0 L827.8,76.0 L828.0,544.0 L828.3,76.0 L828.5,310.0 L828.7,310.0 L829.0,544.0 L829.2,310.0 L829.4,544.0 L829.7,76.0 L829.9,76.0 L830.1,310.0 L830.3,310.0 L830.6,76.0 L830.8,310.0 L831.0,310.0 L831.3,76.0 L831.5,544.0 L831.7,76.0 L832.0,544.0 L832.2,76.0 L832.4,76.0 L832.7,544.0 L832.9,76.0 L833.1,310.0 L833.4,310.0 L833.6,76.0 L833.8,76.0 L834.0,76.0 L834.3,310.0 L834.5,544.0 L834.7,76.0 L835.0,544.0 L835.2,310.0 L835.4,544.0 L835.7,76.0 L835.9,310.0 L836.1,310.0 L836.4,310.0 L836.6,310.0 L836.8,310.0 L837.1,76.0 L837.3,76.0 L837.5,310.0 L837.7,310.0 L838.0,310.0 L838.2,310.0 L838.4,544.0 L838.7,310.0 L838.9,310.0 L839.1,310.0 L839.4,76.0 L839.6,310.0 L839.8,310.0 L840.1,544.0 L840.3,76.0 L840.5,544.0 L840.8,76.0 L841.0,310.0 L841.2,544.0 L841.4,310.0 L841.7,310.0 L841.9,76.0 L842.1,310.0 L842.4,310.0 L842.6,544.0 L842.8,310.0 L843.1,310.0 L843.3,310.0 L843.5,76.0 L843.8,310.0 L844.0,76.0 L844.2,544.0 L844.5,76.0 L844.7,310.0 L844.9,76.0 L845.1,544.0 L845.4,310.0 L845.6,544.0 L845.8,310.0 L846.1,310.0 L846.3,76.0 L846.5,76.0 L846.8,544.0 L847.0,76.0 L847.2,544.0 L847.5,310.0 L847.7,310.0 L847.9,310.0 L848.2,544.0 L848.4,76.0 L848.6,544.0 L848.8,544.0 L849.1,544.0 L849.3,76.0 L849.5,310.0 L849.8,544.0 L850.0,76.0 L850.2,544.0 L850.5,76.0 L850.7,544.0 L850.9,310.0 L851.2,310.0 L851.4,544.0 L851.6,310.0 L851.8,310.0 L852.1,544.0 L852.3,310.0 L852.5,310.0 L852.8,310.0 L853.0,310.0 L853.2,544.0 L853.5,310.0 L853.7,544.0 L853.9,76.0 L854.2,310.0 L854.4,310.0 L854.6,310.0 L854.9,310.0 L855.1,76.0 L855.3,310.0 L855.5,544.0 L855.8,76.0 L856.0,310.0 L856.2,544.0 L856.5,544.0 L856.7,310.0 L856.9,310.0 L857.2,544.0 L857.4,310.0 L857.6,544.0 L857.9,544.0 L858.1,310.0 L858.3,76.0 L858.6,310.0 L858.8,310.0 L859.0,76.0 L859.2,310.0 L859.5,310.0 L859.7,544.0 L859.9,544.0 L860.2,310.0 L860.4,310.0 L860.6,76.0 L860.9,310.0 L861.1,76.0 L861.3,310.0 L861.6,544.0 L861.8,310.0 L862.0,310.0 L862.3,310.0 L862.5,76.0 L862.7,310.0 L862.9,544.0 L863.2,76.0 L863.4,310.0 L863.6,76.0 L863.9,310.0 L864.1,76.0 L864.3,76.0 L864.6,310.0 L864.8,76.0 L865.0,544.0 L865.3,76.0 L865.5,76.0 L865.7,310.0 L866.0,310.0 L866.2,310.0 L866.4,310.0 L866.6,544.0 L866.9,544.0 L867.1,544.0 L867.3,76.0 L867.6,544.0 L867.8,310.0 L868.0,310.0 L868.3,544.0 L868.5,310.0 L868.7,310.0 L869.0,310.0 L869.2,76.0 L869.4,544.0 L869.7,544.0 L869.9,544.0 L870.1,76.0 L870.3,310.0 L870.6,76.0 L870.8,310.0 L871.0,76.0 L871.3,544.0 L871.5,76.0 L871.7,310.0 L872.0,76.0 L872.2,544.0 L872.4,76.0 L872.7,544.0 L872.9,76.0 L873.1,76.0 L873.4,544.0 L873.6,76.0 L873.8,310.0 L874.0,310.0 L874.3,310.0 L874.5,310.0 L874.7,76.0 L875.0,310.0 L875.2,76.0 L875.4,544.0 L875.7,544.0 L875.9,544.0 L876.1,76.0 L876.4,544.0 L876.6,310.0 L876.8,544.0 L877.1,544.0 L877.3,76.0 L877.5,310.0 L877.7,76.0 L878.0,310.0 L878.2,310.0 L878.4,310.0 L878.7,310.0 L878.9,76.0 L879.1,544.0 L879.4,544.0 L879.6,310.0 L879.8,310.0 L880.1,76.0 L880.3,544.0 L880.5,310.0 L880.8,76.0 L881.0,544.0 L881.2,310.0 L881.4,310.0 L881.7,544.0 L881.9,544.0 L882.1,310.0 L882.4,310.0 L882.6,544.0 L882.8,76.0 L883.1,544.0 L883.3,310.0 L883.5,76.0 L883.8,310.0 L884.0,310.0 L884.2,310.0 L884.5,310.0 L884.7,310.0 L884.9,544.0 L885.1,310.0 L885.4,310.0 L885.6,76.0 L885.8,544.0 L886.1,76.0 L886.3,310.0 L886.5,310.0 L886.8,544.0 L887.0,310.0 L887.2,310.0 L887.5,544.0 L887.7,76.0 L887.9,544.0 L888.2,310.0 L888.4,310.0 L888.6,544.0 L888.8,310.0 L889.1,310.0 L889.3,310.0 L889.5,310.0 L889.8,310.0 L890.0,544.0 L890.2,310.0 L890.5,76.0 L890.7,310.0 L890.9,310.0 L891.2,310.0 L891.4,310.0 L891.6,76.0 L891.9,76.0 L892.1,310.0 L892.3,76.0 L892.5,310.0 L892.8,76.0 L893.0,76.0 L893.2,310.0 L893.5,310.0 L893.7,310.0 L893.9,76.0 L894.2,544.0 L894.4,310.0 L894.6,310.0 L894.9,310.0 L895.1,310.0 L895.3,310.0 L895.6,310.0 L895.8,76.0 L896.0,310.0 L896.2,310.0 L896.5,544.0 L896.7,76.0 L896.9,544.0 L897.2,310.0 L897.4,310.0 L897.6,310.0 L897.9,544.0 L898.1,310.0 L898.3,544.0 L898.6,310.0 L898.8,310.0 L899.0,76.0 L899.3,310.0 L899.5,544.0 L899.7,76.0 L899.9,310.0 L900.2,76.0 L900.4,310.0 L900.6,76.0 L900.9,544.0 L901.1,310.0 L901.3,544.0 L901.6,76.0 L901.8,544.0 L902.0,310.0 L902.3,76.0 L902.5,76.0 L902.7,76.0 L903.0,544.0 L903.2,76.0 L903.4,76.0 L903.6,544.0 L903.9,76.0 L904.1,310.0 L904.3,310.0 L904.6,310.0 L904.8,310.0 L905.0,76.0 L905.3,310.0 L905.5,310.0 L905.7,310.0 L906.0,76.0 L906.2,310.0 L906.4,310.0 L906.7,310.0 L906.9,310.0 L907.1,310.0 L907.3,310.0 L907.6,76.0 L907.8,310.0 L908.0,310.0 L908.3,544.0 L908.5,76.0 L908.7,310.0 L909.0,544.0 L909.2,76.0 L909.4,310.0 L909.7,310.0 L909.9,310.0 L910.1,544.0 L910.3,76.0 L910.6,76.0 L910.8,544.0 L911.0,76.0 L911.3,76.0 L911.5,76.0 L911.7,310.0 L912.0,310.0 L912.2,76.0 L912.4,76.0 L912.7,544.0 L912.9,76.0 L913.1,310.0 L913.4,544.0 L913.6,310.0 L913.8,544.0 L914.0,544.0 L914.3,76.0 L914.5,310.0 L914.7,544.0 L915.0,310.0 L915.2,310.0 L915.4,310.0 L915.7,310.0 L915.9,544.0 L916.1,76.0 L916.4,310.0 L916.6,310.0 L916.8,76.0 L917.1,310.0 L917.3,544.0 L917.5,310.0 L917.7,76.0 L918.0,310.0 L918.2,76.0 L918.4,76.0 L918.7,310.0 L918.9,310.0 L919.1,544.0 L919.4,544.0 L919.6,76.0 L919.8,544.0 L920.1,310.0 L920.3,310.0 L920.5,310.0 L920.8,544.0 L921.0,76.0 L921.2,544.0 L921.4,310.0 L921.7,76.0 L921.9,76.0 L922.1,310.0 L922.4,310.0 L922.6,76.0 L922.8,76.0 L923.1,310.0 L923.3,310.0 L923.5,76.0 L923.8,544.0 L924.0,76.0 L924.2,310.0 L924.5,544.0 L924.7,76.0 L924.9,544.0 L925.1,310.0 L925.4,76.0 L925.6,76.0 L925.8,76.0 L926.1,310.0 L926.3,76.0 L926.5,76.0 L926.8,544.0 L927.0,310.0 L927.2,544.0 L927.5,310.0 L927.7,310.0 L927.9,76.0 L928.2,76.0 L928.4,310.0 L928.6,76.0 L928.8,310.0 L929.1,76.0 L929.3,310.0 L929.5,310.0 L929.8,310.0 L930.0,76.0 L930.2,310.0 L930.5,310.0 L930.7,310.0 L930.9,76.0 L931.2,310.0 L931.4,310.0 L931.6,310.0 L931.9,310.0 L932.1,310.0 L932.3,76.0 L932.5,544.0 L932.8,310.0 L933.0,76.0 L933.2,310.0 L933.5,544.0 L933.7,544.0 L933.9,544.0 L934.2,310.0 L934.4,310.0 L934.6,544.0 L934.9,310.0 L935.1,544.0 L935.3,76.0 L935.6,310.0 L935.8,544.0 L936.0,310.0 L936.2,76.0 L936.5,310.0 L936.7,76.0 L936.9,310.0 L937.2,310.0 L937.4,310.0 L937.6,310.0 L937.9,310.0 L938.1,544.0 L938.3,310.0 L938.6,310.0 L938.8,544.0 L939.0,544.0 L939.3,310.0 L939.5,76.0 L939.7,310.0 L939.9,76.0 L940.2,76.0 L940.4,310.0 L940.6,76.0 L940.9,544.0 L941.1,310.0 L941.3,76.0 L941.6,544.0 L941.8,544.0 L942.0,310.0 L942.3,310.0 L942.5,310.0 L942.7,310.0 L943.0,310.0 L943.2,544.0 L943.4,310.0 L943.6,544.0 L943.9,76.0 L944.1,310.0 L944.3,310.0 L944.6,544.0 L944.8,76.0 L945.0,310.0 L945.3,310.0 L945.5,310.0 L945.7,544.0 L946.0,76.0 L946.2,310.0 L946.4,76.0 L946.7,310.0 L946.9,76.0 L947.1,544.0 L947.3,310.0 L947.6,310.0 L947.8,544.0 L948.0,310.0 L948.3,544.0 L948.5,310.0 L948.7,76.0 L949.0,544.0 L949.2,310.0 L949.4,310.0 L949.7,310.0 L949.9,310.0 L950.1,544.0 L950.4,310.0 L950.6,310.0 L950.8,310.0 L951.0,310.0 L951.3,76.0 L951.5,544.0 L951.7,310.0 L952.0,76.0 L952.2,544.0 L952.4,544.0 L952.7,310.0 L952.9,310.0 L953.1,76.0 L953.4,310.0 L953.6,310.0 L953.8,544.0 L954.1,544.0 L954.3,76.0 L954.5,310.0 L954.7,310.0 L955.0,76.0 L955.2,76.0 L955.4,76.0 L955.7,544.0 L955.9,310.0 L956.1,76.0 L956.4,310.0 L956.6,310.0 L956.8,310.0 L957.1,544.0 L957.3,310.0 L957.5,76.0 L957.8,310.0 L958.0,310.0 L958.2,76.0 L958.4,310.0 L958.7,76.0 L958.9,76.0 L959.1,544.0 L959.4,76.0 L959.6,76.0 L959.8,544.0 L960.1,76.0 L960.3,76.0 L960.5,76.0 L960.8,310.0 L961.0,310.0 L961.2,76.0 L961.5,310.0 L961.7,310.0 L961.9,310.0 L962.1,76.0 L962.4,544.0 L962.6,310.0 L962.8,544.0 L963.1,310.0 L963.3,310.0 L963.5,310.0 L963.8,544.0 L964.0,310.0 L964.2,310.0 L964.5,76.0 L964.7,544.0 L964.9,310.0 L965.2,544.0 L965.4,544.0 L965.6,310.0 L965.8,544.0 L966.1,310.0 L966.3,310.0 L966.5,310.0 L966.8,76.0 L967.0,544.0 L967.2,76.0 L967.5,310.0 L967.7,544.0 L967.9,544.0 L968.2,76.0 L968.4,310.0 L968.6,310.0 L968.8,310.0 L969.1,76.0 L969.3,544.0 L969.5,544.0 L969.8,310.0 L970.0,544.0 L970.2,310.0 L970.5,544.0 L970.7,76.0 L970.9,310.0 L971.2,310.0 L971.4,76.0 L971.6,310.0 L971.9,310.0 L972.1,544.0 L972.3,310.0 L972.5,76.0 L972.8,544.0 L973.0,310.0 L973.2,76.0 L973.5,310.0 L973.7,310.0 L973.9,544.0 L974.2,76.0 L974.4,76.0 L974.6,310.0 L974.9,544.0 L975.1,76.0 L975.3,76.0 L975.6,544.0 L975.8,76.0 L976.0,310.0 L976.2,310.0 L976.5,544.0 L976.7,310.0 L976.9,310.0 L977.2,310.0 L977.4,544.0 L977.6,310.0 L977.9,76.0 L978.1,310.0 L978.3,310.0 L978.6,310.0 L978.8,310.0 L979.0,310.0 L979.3,310.0 L979.5,310.0 L979.7,310.0 L979.9,544.0 L980.2,310.0 L980.4,544.0 L980.6,76.0 L980.9,310.0 L981.1,310.0 L981.3,76.0 L981.6,310.0 L981.8,310.0 L982.0,544.0 L982.3,76.0 L982.5,76.0 L982.7,76.0 L983.0,310.0 L983.2,310.0 L983.4,544.0 L983.6,544.0 L983.9,310.0 L984.1,310.0 L984.3,310.0 L984.6,76.0 L984.8,310.0 L985.0,544.0 L985.3,310.0 L985.5,310.0 L985.7,76.0 L986.0,76.0 L986.2,544.0 L986.4,76.0 L986.7,544.0 L986.9,310.0 L987.1,310.0 L987.3,310.0 L987.6,310.0 L987.8,310.0 L988.0,310.0 L988.3,544.0 L988.5,310.0 L988.7,76.0 L989.0,544.0 L989.2,310.0 L989.4,310.0 L989.7,544.0 L989.9,544.0 L990.1,310.0 L990.4,544.0 L990.6,310.0 L990.8,310.0 L991.0,310.0 L991.3,544.0 L991.5,310.0 L991.7,310.0 L992.0,310.0 L992.2,76.0 L992.4,76.0 L992.7,310.0 L992.9,310.0 L993.1,76.0 L993.4,310.0 L993.6,76.0 L993.8,544.0 L994.1,544.0 L994.3,544.0 L994.5,76.0 L994.7,544.0 L995.0,76.0 L995.2,544.0 L995.4,76.0 L995.7,310.0 L995.9,310.0 L996.1,544.0 L996.4,310.0 L996.6,76.0 L996.8,544.0 L997.1,310.0 L997.3,310.0 L997.5,544.0 L997.8,310.0 L998.0,310.0 L998.2,310.0 L998.4,310.0 L998.7,310.0 L998.9,310.0 L999.1,310.0 L999.4,310.0 L999.6,76.0 L999.8,544.0 L1000.1,544.0 L1000.3,76.0 L1000.5,76.0 L1000.8,544.0 L1001.0,310.0 L1001.2,310.0 L1001.5,76.0 L1001.7,310.0 L1001.9,76.0 L1002.1,310.0 L1002.4,76.0 L1002.6,310.0 L1002.8,310.0 L1003.1,76.0 L1003.3,310.0 L1003.5,310.0 L1003.8,310.0 L1004.0,310.0 L1004.2,544.0 L1004.5,76.0 L1004.7,76.0 L1004.9,544.0 L1005.2,310.0 L1005.4,310.0 L1005.6,310.0 L1005.8,76.0 L1006.1,544.0 L1006.3,310.0 L1006.5,544.0 L1006.8,310.0 L1007.0,310.0 L1007.2,544.0 L1007.5,310.0 L1007.7,310.0 L1007.9,544.0 L1008.2,310.0 L1008.4,76.0 L1008.6,310.0 L1008.9,310.0 L1009.1,544.0 L1009.3,544.0 L1009.5,544.0 L1009.8,310.0 L1010.0,310.0 L1010.2,310.0 L1010.5,76.0 L1010.7,310.0 L1010.9,310.0 L1011.2,76.0 L1011.4,544.0 L1011.6,76.0 L1011.9,310.0 L1012.1,544.0 L1012.3,310.0 L1012.6,310.0 L1012.8,76.0 L1013.0,544.0 L1013.2,310.0 L1013.5,544.0 L1013.7,76.0 L1013.9,544.0 L1014.2,544.0 L1014.4,76.0 L1014.6,76.0 L1014.9,76.0 L1015.1,76.0 L1015.3,310.0 L1015.6,76.0 L1015.8,544.0 L1016.0,76.0 L1016.3,310.0 L1016.5,76.0 L1016.7,310.0 L1016.9,310.0 L1017.2,76.0 L1017.4,76.0 L1017.6,76.0 L1017.9,310.0 L1018.1,544.0 L1018.3,544.0 L1018.6,310.0 L1018.8,310.0 L1019.0,76.0 L1019.3,310.0 L1019.5,310.0 L1019.7,76.0 L1020.0,544.0 L1020.2,310.0 L1020.4,544.0 L1020.6,310.0 L1020.9,310.0 L1021.1,310.0 L1021.3,76.0 L1021.6,544.0 L1021.8,544.0 L1022.0,76.0 L1022.3,544.0 L1022.5,310.0 L1022.7,310.0 L1023.0,76.0 L1023.2,544.0 L1023.4,310.0 L1023.7,310.0 L1023.9,76.0 L1024.1,310.0 L1024.3,310.0 L1024.6,310.0 L1024.8,310.0 L1025.0,310.0 L1025.3,76.0 L1025.5,76.0 L1025.7,76.0 L1026.0,310.0 L1026.2,310.0 L1026.4,310.0 L1026.7,544.0 L1026.9,76.0 L1027.1,544.0 L1027.3,310.0 L1027.6,76.0 L1027.8,310.0 L1028.0,310.0 L1028.3,76.0 L1028.5,310.0 L1028.7,544.0 L1029.0,76.0 L1029.2,310.0 L1029.4,310.0 L1029.7,310.0 L1029.9,310.0 L1030.1,76.0 L1030.4,544.0 L1030.6,310.0 L1030.8,310.0 L1031.0,544.0 L1031.3,310.0 L1031.5,310.0 L1031.7,310.0 L1032.0,76.0 L1032.2,310.0 L1032.4,76.0 L1032.7,310.0 L1032.9,310.0 L1033.1,310.0 L1033.4,76.0 L1033.6,544.0 L1033.8,310.0 L1034.1,544.0 L1034.3,76.0 L1034.5,544.0 L1034.7,76.0 L1035.0,544.0 L1035.2,544.0 L1035.4,544.0 L1035.7,310.0 L1035.9,544.0 L1036.1,76.0 L1036.4,310.0 L1036.6,310.0 L1036.8,76.0 L1037.1,544.0 L1037.3,76.0 L1037.5,544.0 L1037.8,76.0 L1038.0,544.0 L1038.2,76.0 L1038.4,544.0 L1038.7,76.0 L1038.9,76.0 L1039.1,544.0 L1039.4,310.0 L1039.6,310.0 L1039.8,76.0 L1040.1,310.0 L1040.3,310.0 L1040.5,76.0 L1040.8,310.0 L1041.0,544.0 L1041.2,310.0 L1041.5,544.0 L1041.7,76.0 L1041.9,310.0 L1042.1,310.0 L1042.4,310.0 L1042.6,310.0 L1042.8,310.0 L1043.1,76.0 L1043.3,310.0 L1043.5,310.0 L1043.8,544.0 L1044.0,310.0 L1044.2,310.0 L1044.5,76.0 L1044.7,76.0 L1044.9,310.0 L1045.2,76.0 L1045.4,544.0 L1045.6,76.0 L1045.8,310.0 L1046.1,76.0 L1046.3,310.0 L1046.5,76.0 L1046.8,544.0 L1047.0,76.0 L1047.2,544.0 L1047.5,310.0 L1047.7,310.0 L1047.9,76.0 L1048.2,310.0 L1048.4,544.0 L1048.6,310.0 L1048.9,310.0 L1049.1,310.0 L1049.3,310.0 L1049.5,544.0 L1049.8,76.0 L1050.0,76.0 L1050.2,76.0 L1050.5,310.0 L1050.7,76.0 L1050.9,76.0 L1051.2,544.0 L1051.4,310.0 L1051.6,310.0 L1051.9,76.0 L1052.1,310.0 L1052.3,310.0 L1052.6,310.0 L1052.8,310.0 L1053.0,544.0 L1053.2,310.0 L1053.5,76.0 L1053.7,310.0 L1053.9,544.0 L1054.2,76.0 L1054.4,310.0 L1054.6,544.0 L1054.9,76.0 L1055.1,310.0 L1055.3,76.0 L1055.6,310.0 L1055.8,544.0 L1056.0,76.0 L1056.3,310.0 L1056.5,544.0 L1056.7,76.0 L1056.9,544.0 L1057.2,76.0 L1057.4,544.0 L1057.6,310.0 L1057.9,310.0 L1058.1,310.0 L1058.3,310.0 L1058.6,310.0 L1058.8,76.0 L1059.0,310.0 L1059.3,310.0 L1059.5,76.0 L1059.7,310.0 L1060.0,310.0 L1060.2,310.0 L1060.4,76.0 L1060.6,76.0 L1060.9,310.0 L1061.1,310.0 L1061.3,310.0 L1061.6,544.0 L1061.8,76.0 L1062.0,310.0 L1062.3,544.0 L1062.5,76.0 L1062.7,544.0 L1063.0,544.0 L1063.2,544.0 L1063.4,310.0 L1063.7,76.0 L1063.9,310.0 L1064.1,310.0 L1064.3,544.0 L1064.6,76.0 L1064.8,310.0 L1065.0,544.0 L1065.3,76.0 L1065.5,310.0 L1065.7,76.0 L1066.0,310.0 L1066.2,310.0 L1066.4,76.0 L1066.7,310.0 L1066.9,544.0 L1067.1,310.0 L1067.4,310.0 L1067.6,310.0 L1067.8,310.0 L1068.0,310.0 L1068.3,544.0 L1068.5,544.0 L1068.7,310.0 L1069.0,310.0 L1069.2,310.0 L1069.4,544.0 L1069.7,310.0 L1069.9,310.0 L1070.1,544.0 L1070.4,544.0 L1070.6,310.0 L1070.8,544.0 L1071.1,310.0 L1071.3,544.0 L1071.5,76.0 L1071.7,544.0 L1072.0,310.0 L1072.2,310.0 L1072.4,310.0 L1072.7,544.0 L1072.9,76.0 L1073.1,310.0 L1073.4,310.0 L1073.6,544.0 L1073.8,310.0 L1074.1,310.0 L1074.3,310.0 L1074.5,76.0 L1074.8,310.0 L1075.0,310.0 L1075.2,310.0 L1075.4,310.0 L1075.7,76.0 L1075.9,544.0 L1076.1,310.0 L1076.4,76.0 L1076.6,310.0 L1076.8,310.0 L1077.1,76.0 L1077.3,310.0 L1077.5,76.0 L1077.8,76.0 L1078.0,76.0 L1078.2,310.0 L1078.5,76.0 L1078.7,310.0 L1078.9,76.0 L1079.1,76.0 L1079.4,76.0 L1079.6,310.0 L1079.8,310.0 L1080.1,544.0 L1080.3,544.0 L1080.5,310.0 L1080.8,310.0 L1081.0,76.0 L1081.2,310.0 L1081.5,310.0 L1081.7,310.0 L1081.9,310.0 L1082.2,310.0 L1082.4,76.0 L1082.6,76.0 L1082.8,310.0 L1083.1,310.0 L1083.3,310.0 L1083.5,310.0 L1083.8,76.0 L1084.0,310.0" fill="none" stroke="#ff7f0e" stroke-width="1.1" opacity="0.85"/><text x="616" y="572" font-size="11" fill="#888">time 0..40 s — altitude (blue) &amp; roll (orange)</text></svg>