<svg xmlns="http://www.w3.org/2000/svg" width="1140" height="600" font-family="sans-serif" font-size="13"><rect width="1140" height="600" fill="white"/><text x="20" y="26" font-size="15" fill="#333">TMS-7 F15 — cross-wind 12 m/s (10% noise)</text><rect x="20" y="40" width="540" height="540" fill="#fbfbfb" stroke="#ddd"/><rect x="50" y="221" width="480" height="103" fill="#cde" stroke="#369" opacity="0.7"/><text x="50" y="216" fill="#369" font-size="12">landing zone</text><circle cx="354" cy="383" r="5" fill="black"/><text x="362" y="387" font-size="12">pad</text><path d="M353.6,382.9 L353.6,382.9 L353.6,382.9 L353.6,382.9 L353.6,382.9 L353.6,382.9 L353.6,382.9 L353.6,382.9 L353.6,382.9 L353.6,382.9 L353.6,382.9 L353.6,382.9 L353.6,382.9 L353.6,382.9 L353.6,382.9 L353.6,382.9 L353.6,382.9 L353.6,382.9 L353.6,382.9 L353.6,382.9 L353.6,382.9 L353.6,382.9 L353.6,382.9 L353.6,382.9 L353.6,382.9 L353.6,382.9 L353.6,382.9 L353.6,382.9 L353.6,382.9 L353.6,382.9 L353.6,382.9 L353.6,382.9 L353.6,382.9 L353.6,382.9 L353.6,382.9 L353.6,382.9 L353.6,382.9 L353.6,382.9 L353.6,382.9 L353.6,382.9 L353.6,382.9 L353.6,382.9 L353.6,382.9 L353.6,382.9 L353.6,382.9 L353.6,382.9 L353.6,382.9 L353.6,382.9 L353.6,382.9 L353.6,382.9 L353.6,382.9 L353.6,382.9 L353.6,382.9 L353.6,382.9 L353.6,382.9 L353.6,382.9 L353.6,382.9 L353.6,382.9 L353.8,382.3 L354.1,382.0 L354.6,381.4 L355.1,381.2 L355.6,380.6 L356.4,380.3 L357.2,380.0 L358.0,380.0 L358.7,379.7 L359.8,379.7 L360.8,379.7 L361.8,379.7 L363.1,380.0 L364.4,380.0 L365.4,380.3 L366.7,380.6 L368.0,380.9 L369.6,381.2 L370.9,381.4 L372.1,381.7 L373.4,382.0 L375.0,382.3 L376.3,382.9 L377.8,383.2 L379.4,383.7 L380.7,384.0 L382.2,384.6 L383.8,384.9 L385.0,385.5 L386.6,385.7 L388.1,386.3 L389.4,386.6 L391.0,387.2 L392.5,387.7 L393.8,388.0 L395.4,388.6 L396.9,388.9 L398.2,389.5 L399.7,389.7 L401.3,390.3 L402.6,390.6 L404.1,391.2 L405.7,391.5 L407.0,391.7 L408.5,392.3 L409.8,392.6 L411.4,393.2 L412.6,393.5 L414.2,393.7 L415.5,394.3 L416.8,394.6 L418.3,394.9 L419.6,395.2 L420.9,395.5 L422.4,395.7 L423.7,396.0 L425.0,396.3 L426.3,396.6 L427.6,396.9 L428.9,397.2 L430.2,397.2 L431.2,397.5 L432.5,397.7 L433.8,397.7 L434.8,398.0 L436.1,398.0 L437.4,398.3 L438.4,398.3 L439.5,398.3 L440.8,398.3 L441.8,398.6 L442.8,398.6 L443.9,398.6 L444.9,398.6 L445.9,398.3 L446.9,398.3 L447.7,398.3 L448.8,398.3 L449.5,398.0 L450.6,398.0 L451.3,397.7 L452.1,397.5 L453.1,397.5 L453.9,397.2 L454.7,396.9 L455.2,396.6 L456.0,396.6 L456.7,396.3 L457.5,396.0 L458.0,395.7 L458.8,395.2 L459.3,394.9 L460.1,394.6 L460.6,394.3 L461.1,394.0 L461.6,393.5 L462.2,393.2 L462.7,392.6 L463.2,392.3 L463.7,392.0 L464.2,391.5 L464.7,391.2 L465.3,390.6 L465.8,390.3 L466.3,389.7 L466.6,389.2 L467.1,388.9 L467.6,388.3 L467.8,388.0 L468.4,387.5 L468.9,386.9 L469.1,386.6 L469.4,386.0 L469.9,385.5 L470.2,384.9 L470.7,384.6 L470.9,384.0 L471.2,383.4 L471.5,382.9 L472.0,382.3 L472.2,381.7 L472.5,381.2 L472.7,380.9 L473.0,380.3 L473.3,379.7 L473.5,379.2 L473.8,378.6 L474.0,378.0 L474.3,377.4 L474.5,376.9 L474.8,376.3 L475.1,375.7 L475.3,375.2 L475.3,374.6 L475.6,374.0 L475.8,373.2 L476.1,372.6 L476.4,372.0 L476.4,371.4 L476.6,370.9 L476.9,370.3 L477.1,369.7 L477.1,369.2 L477.4,368.6 L477.6,368.0 L477.9,367.4 L478.2,366.9 L478.2,366.3 L478.4,365.7 L478.7,364.9 L478.9,364.3 L479.2,363.7 L479.4,363.2 L479.4,362.6 L479.7,362.0 L480.0,361.4 L480.2,360.9 L480.5,360.3 L480.7,359.7 L481.0,359.2 L481.3,358.6 L481.5,358.0 L481.8,357.4 L482.0,356.9 L482.3,356.3 L482.5,355.7 L482.5,355.2 L482.8,354.6 L483.1,354.0 L483.3,353.4 L483.6,352.9 L484.1,352.3 L484.3,351.7 L484.6,351.4 L484.9,350.9 L485.1,350.3 L485.4,349.7 L485.6,349.2 L485.9,348.6 L486.2,348.0 L486.7,347.4 L486.9,346.9 L487.2,346.6 L487.4,346.0 L487.7,345.4 L488.0,344.9 L488.5,344.3 L488.7,343.7 L489.0,343.2 L489.2,342.6 L489.5,342.0 L489.8,341.7 L490.3,341.2 L490.5,340.6 L490.8,340.0 L491.1,339.4 L491.3,338.9 L491.8,338.3 L492.1,337.7 L492.3,337.4 L492.6,336.9 L493.1,336.3 L493.4,335.7 L493.6,335.2 L493.9,334.9 L494.4,334.3 L494.7,333.7 L494.9,333.1 L495.2,332.6 L495.7,332.0 L496.0,331.7 L496.2,331.1 L496.7,330.6 L497.0,330.0 L497.2,329.4 L497.8,329.1 L498.0,328.6 L498.3,328.3 L498.5,327.7 L498.8,327.4 L499.0,326.9 L499.6,326.6 L499.8,326.0 L500.1,325.7 L500.3,325.1 L500.6,324.9 L500.9,324.3 L501.1,324.0 L501.4,323.4 L501.4,322.9 L501.6,322.3 L501.6,321.7 L501.6,321.1 L501.4,320.6 L501.1,320.0 L500.9,319.1 L500.6,318.6 L500.1,317.7 L499.8,316.9 L499.0,316.3 L498.5,315.4 L497.8,314.6 L497.0,313.7 L496.0,312.9 L494.9,312.0 L493.9,311.1 L492.9,310.0 L491.6,309.1 L490.3,308.3 L488.7,307.4 L487.2,306.6 L485.6,305.4 L484.1,304.6 L482.3,303.7 L480.5,302.9 L478.4,302.0 L476.6,300.9 L474.5,300.0 L472.5,299.1 L470.2,298.3 L467.8,297.4 L465.5,296.6 L462.9,295.7 L460.6,295.1 L458.0,294.3 L455.2,293.4 L452.6,292.9 L449.8,292.0 L446.7,291.4 L443.9,290.9 L440.8,290.3 L437.7,289.7 L434.6,289.1 L431.2,288.6 L428.1,288.3 L424.8,287.7 L421.2,287.4 L417.8,286.9 L414.2,286.6 L410.6,286.3 L407.0,286.0 L403.4,286.0 L399.5,285.7 L395.6,285.7 L391.8,285.7 L387.9,285.7 L384.0,285.7 L379.9,285.7 L375.8,285.7 L371.6,286.0 L367.5,286.3 L363.4,286.6 L359.0,286.9 L354.6,287.1 L350.5,287.4 L346.1,288.0 L341.7,288.6 L337.3,288.9 L332.7,289.4 L328.3,290.0 L323.9,290.9 L319.3,291.4 L314.6,292.0 L310.2,292.9 L305.6,293.4 L301.2,294.3 L296.6,294.9 L292.2,295.4 L287.5,296.0 L283.2,296.6 L278.8,297.1 L274.4,297.7 L270.0,298.0 L265.9,298.3 L261.5,298.6 L257.4,298.9 L253.2,299.1" fill="none" stroke="#1f77b4" stroke-width="1.7" opacity="0.85"/><circle cx="253" cy="299" r="4.5" fill="#1f77b4"/><text x="28" y="572" font-size="11" fill="#888">ground track — m from pad (N up)</text><rect x="580" y="40" width="540" height="540" fill="#fbfbfb" stroke="#ddd"/><text x="586" y="54" fill="#1f77b4" font-size="11">alt 301</text><text x="586" y="558" fill="#1f77b4" font-size="11">2</text><path d="M616.0,544.0 L616.2,543.6 L616.4,544.0 L616.7,543.4 L616.9,543.2 L617.1,544.0 L617.3,544.0 L617.6,543.7 L617.8,543.6 L618.0,543.4 L618.2,543.1 L618.4,542.9 L618.7,542.8 L618.9,542.7 L619.1,542.7 L619.3,541.8 L619.6,541.8 L619.8,541.6 L620.0,541.4 L620.2,540.5 L620.4,541.2 L620.7,540.0 L620.9,540.3 L621.1,539.1 L621.3,538.9 L621.5,540.0 L621.8,538.0 L622.0,538.9 L622.2,536.7 L622.4,536.9 L622.7,536.8 L622.9,536.6 L623.1,537.3 L623.3,536.7 L623.5,535.9 L623.8,535.7 L624.0,534.7 L624.2,532.3 L624.4,531.8 L624.7,533.4 L624.9,531.2 L625.1,530.7 L625.3,529.9 L625.5,531.5 L625.8,528.9 L626.0,529.9 L626.2,529.1 L626.4,526.9 L626.7,527.6 L626.9,523.8 L627.1,527.0 L627.3,522.4 L627.5,521.2 L627.8,520.8 L628.0,521.9 L628.2,521.4 L628.4,518.0 L628.6,519.5 L628.9,518.7 L629.1,520.4 L629.3,514.8 L629.5,518.7 L629.8,513.9 L630.0,512.4 L630.2,514.9 L630.4,515.0 L630.6,508.3 L630.9,512.1 L631.1,506.1 L631.3,505.6 L631.5,507.3 L631.8,502.3 L632.0,509.4 L632.2,500.3 L632.4,503.3 L632.6,501.4 L632.9,501.8 L633.1,501.7 L633.3,502.5 L633.5,496.7 L633.8,495.9 L634.0,492.3 L634.2,489.7 L634.4,488.0 L634.6,495.4 L634.9,487.5 L635.1,494.3 L635.3,487.5 L635.5,489.2 L635.7,482.5 L636.0,484.1 L636.2,482.1 L636.4,487.1 L636.6,475.8 L636.9,472.4 L637.1,476.4 L637.3,480.0 L637.5,468.4 L637.7,469.7 L638.0,472.2 L638.2,471.6 L638.4,468.3 L638.6,470.4 L638.9,465.8 L639.1,459.6 L639.3,460.2 L639.5,455.2 L639.7,459.9 L640.0,454.5 L640.2,451.1 L640.4,460.0 L640.6,451.5 L640.9,445.7 L641.1,441.4 L641.3,453.1 L641.5,441.0 L641.7,442.4 L642.0,439.9 L642.2,453.5 L642.4,433.2 L642.6,435.7 L642.9,434.1 L643.1,437.6 L643.3,445.9 L643.5,439.1 L643.7,432.3 L644.0,418.5 L644.2,424.5 L644.4,437.3 L644.6,412.2 L644.8,421.6 L645.1,425.0 L645.3,406.5 L645.5,409.1 L645.7,409.7 L646.0,415.9 L646.2,399.5 L646.4,396.8 L646.6,411.1 L646.8,396.2 L647.1,400.2 L647.3,402.2 L647.5,387.1 L647.7,402.1 L648.0,403.5 L648.2,381.3 L648.4,397.1 L648.6,399.6 L648.8,377.3 L649.1,374.8 L649.3,396.0 L649.5,388.2 L649.7,368.3 L650.0,392.2 L650.2,365.9 L650.4,381.2 L650.6,387.3 L650.8,352.0 L651.1,352.1 L651.3,371.2 L651.5,356.6 L651.7,378.6 L651.9,356.1 L652.2,369.4 L652.4,341.7 L652.6,355.6 L652.8,333.7 L653.1,353.4 L653.3,361.0 L653.5,361.1 L653.7,353.1 L653.9,335.9 L654.2,328.2 L654.4,352.1 L654.6,348.7 L654.8,309.6 L655.1,336.2 L655.3,318.7 L655.5,333.9 L655.7,300.2 L655.9,341.1 L656.2,337.8 L656.4,293.4 L656.6,312.2 L656.8,298.0 L657.1,291.5 L657.3,308.6 L657.5,287.0 L657.7,292.9 L657.9,315.9 L658.2,320.9 L658.4,286.7 L658.6,306.7 L658.8,274.4 L659.0,313.7 L659.3,270.9 L659.5,305.2 L659.7,284.0 L659.9,268.6 L660.2,303.3 L660.4,254.2 L660.6,264.5 L660.8,249.5 L661.0,294.7 L661.3,244.6 L661.5,242.5 L661.7,238.6 L661.9,253.3 L662.2,274.9 L662.4,257.3 L662.6,245.9 L662.8,269.8 L663.0,240.8 L663.3,258.9 L663.5,244.1 L663.7,277.9 L663.9,252.6 L664.2,258.9 L664.4,229.1 L664.6,240.8 L664.8,236.7 L665.0,233.7 L665.3,214.4 L665.5,230.6 L665.7,255.5 L665.9,216.3 L666.2,219.2 L666.4,257.1 L666.6,211.4 L666.8,193.9 L667.0,193.5 L667.3,189.6 L667.5,227.5 L667.7,211.4 L667.9,228.8 L668.1,188.2 L668.4,188.8 L668.6,209.7 L668.8,243.2 L669.0,200.9 L669.3,217.7 L669.5,212.9 L669.7,191.8 L669.9,203.4 L670.1,223.0 L670.4,184.4 L670.6,204.8 L670.8,219.9 L671.0,201.8 L671.3,218.7 L671.5,174.2 L671.7,187.4 L671.9,208.8 L672.1,182.6 L672.4,160.6 L672.6,149.9 L672.8,192.7 L673.0,197.8 L673.3,194.1 L673.5,166.4 L673.7,180.9 L673.9,144.0 L674.1,184.5 L674.4,145.4 L674.6,166.1 L674.8,131.7 L675.0,165.9 L675.2,200.2 L675.5,131.8 L675.7,149.7 L675.9,149.8 L676.1,157.9 L676.4,168.0 L676.6,148.7 L676.8,183.4 L677.0,177.4 L677.2,152.1 L677.5,190.1 L677.7,148.0 L677.9,143.6 L678.1,162.0 L678.4,186.4 L678.6,136.4 L678.8,183.1 L679.0,102.7 L679.2,172.6 L679.5,132.8 L679.7,114.9 L679.9,151.9 L680.1,106.5 L680.4,154.3 L680.6,93.8 L680.8,122.8 L681.0,115.4 L681.2,157.1 L681.5,117.5 L681.7,91.5 L681.9,125.4 L682.1,140.5 L682.3,141.0 L682.6,117.3 L682.8,118.4 L683.0,160.6 L683.2,101.9 L683.5,159.3 L683.7,132.6 L683.9,76.6 L684.1,99.3 L684.3,133.7 L684.6,95.4 L684.8,84.7 L685.0,156.9 L685.2,115.2 L685.5,149.5 L685.7,150.2 L685.9,140.9 L686.1,101.9 L686.3,148.5 L686.6,154.8 L686.8,121.9 L687.0,111.4 L687.2,132.0 L687.5,86.6 L687.7,140.5 L687.9,149.7 L688.1,142.0 L688.3,90.8 L688.6,108.6 L688.8,152.2 L689.0,159.8 L689.2,101.0 L689.5,98.3 L689.7,155.4 L689.9,140.7 L690.1,79.8 L690.3,83.0 L690.6,129.5 L690.8,98.5 L691.0,84.3 L691.2,157.6 L691.4,76.0 L691.7,80.2 L691.9,101.8 L692.1,99.6 L692.3,77.1 L692.6,132.7 L692.8,146.5 L693.0,99.4 L693.2,104.1 L693.4,80.4 L693.7,80.3 L693.9,84.9 L694.1,82.8 L694.3,149.2 L694.6,93.9 L694.8,89.8 L695.0,97.1 L695.2,101.7 L695.4,159.2 L695.7,93.7 L695.9,86.9 L696.1,80.7 L696.3,100.0 L696.6,145.1 L696.8,134.4 L697.0,94.1 L697.2,99.9 L697.4,92.9 L697.7,162.5 L697.9,119.7 L698.1,151.7 L698.3,98.0 L698.5,87.7 L698.8,146.2 L699.0,108.9 L699.2,94.3 L699.4,117.6 L699.7,96.2 L699.9,139.8 L700.1,87.0 L700.3,103.0 L700.5,138.4 L700.8,92.1 L701.0,121.1 L701.2,114.7 L701.4,100.7 L701.7,79.7 L701.9,118.4 L702.1,154.2 L702.3,115.6 L702.5,85.8 L702.8,131.8 L703.0,136.5 L703.2,141.6 L703.4,116.3 L703.7,160.5 L703.9,133.2 L704.1,82.2 L704.3,95.6 L704.5,115.8 L704.8,108.5 L705.0,89.9 L705.2,89.0 L705.4,109.7 L705.7,161.6 L705.9,130.6 L706.1,82.3 L706.3,89.8 L706.5,153.9 L706.8,119.9 L707.0,103.7 L707.2,160.1 L707.4,115.8 L707.6,124.8 L707.9,126.0 L708.1,89.9 L708.3,91.6 L708.5,128.6 L708.8,135.7 L709.0,84.4 L709.2,85.3 L709.4,129.4 L709.6,150.1 L709.9,136.9 L710.1,132.7 L710.3,104.7 L710.5,142.2 L710.8,129.5 L711.0,99.3 L711.2,136.2 L711.4,147.6 L711.6,145.3 L711.9,163.8 L712.1,103.1 L712.3,148.7 L712.5,91.3 L712.8,158.1 L713.0,93.0 L713.2,149.3 L713.4,134.7 L713.6,142.5 L713.9,146.0 L714.1,161.4 L714.3,130.2 L714.5,87.6 L714.7,163.8 L715.0,143.6 L715.2,115.9 L715.4,122.3 L715.6,160.2 L715.9,146.5 L716.1,99.3 L716.3,108.4 L716.5,120.2 L716.7,132.7 L717.0,129.3 L717.2,108.2 L717.4,103.6 L717.6,146.0 L717.9,150.7 L718.1,134.9 L718.3,110.5 L718.5,116.6 L718.7,129.7 L719.0,129.4 L719.2,146.6 L719.4,108.4 L719.6,149.6 L719.9,144.2 L720.1,155.5 L720.3,157.3 L720.5,99.2 L720.7,91.6 L721.0,102.7 L721.2,145.3 L721.4,166.6 L721.6,130.4 L721.8,144.3 L722.1,163.6 L722.3,168.9 L722.5,94.3 L722.7,109.2 L723.0,95.0 L723.2,131.8 L723.4,149.6 L723.6,92.4 L723.8,137.6 L724.1,132.1 L724.3,158.2 L724.5,146.0 L724.7,95.8 L725.0,129.1 L725.2,99.4 L725.4,106.3 L725.6,148.9 L725.8,122.2 L726.1,130.4 L726.3,103.5 L726.5,144.6 L726.7,113.1 L727.0,153.4 L727.2,146.5 L727.4,135.3 L727.6,115.1 L727.8,136.9 L728.1,115.3 L728.3,114.1 L728.5,161.0 L728.7,118.5 L729.0,172.8 L729.2,94.2 L729.4,118.5 L729.6,160.0 L729.8,115.2 L730.1,118.9 L730.3,127.3 L730.5,135.9 L730.7,160.4 L730.9,101.1 L731.2,168.4 L731.4,165.2 L731.6,104.8 L731.8,108.2 L732.1,124.8 L732.3,175.6 L732.5,165.8 L732.7,105.8 L732.9,104.6 L733.2,164.7 L733.4,123.4 L733.6,149.0 L733.8,96.7 L734.1,158.4 L734.3,106.7 L734.5,115.5 L734.7,113.4 L734.9,160.4 L735.2,165.5 L735.4,116.6 L735.6,106.0 L735.8,171.3 L736.1,170.4 L736.3,156.9 L736.5,99.7 L736.7,168.9 L736.9,156.3 L737.2,178.4 L737.4,154.1 L737.6,108.5 L737.8,133.9 L738.0,110.1 L738.3,124.6 L738.5,175.1 L738.7,161.4 L738.9,161.6 L739.2,134.7 L739.4,131.0 L739.6,135.8 L739.8,138.2 L740.0,167.0 L740.3,163.8 L740.5,106.1 L740.7,171.0 L740.9,168.7 L741.2,126.9 L741.4,115.0 L741.6,152.4 L741.8,147.5 L742.0,127.3 L742.3,172.3 L742.5,129.7 L742.7,112.4 L742.9,131.7 L743.2,112.5 L743.4,164.3 L743.6,166.2 L743.8,125.2 L744.0,162.8 L744.3,152.3 L744.5,110.7 L744.7,111.5 L744.9,153.7 L745.1,166.5 L745.4,165.0 L745.6,117.9 L745.8,177.4 L746.0,174.0 L746.3,151.8 L746.5,155.7 L746.7,123.0 L746.9,182.8 L747.1,153.8 L747.4,171.2 L747.6,113.7 L747.8,163.3 L748.0,109.1 L748.3,127.3 L748.5,186.8 L748.7,113.9 L748.9,144.6 L749.1,149.7 L749.4,127.8 L749.6,152.6 L749.8,132.7 L750.0,137.5 L750.3,172.2 L750.5,137.4 L750.7,134.3 L750.9,165.3 L751.1,167.2 L751.4,130.8 L751.6,173.1 L751.8,115.9 L752.0,167.0 L752.3,170.0 L752.5,152.0 L752.7,111.2 L752.9,187.6 L753.1,152.2 L753.4,183.5 L753.6,111.6 L753.8,127.9 L754.0,120.1 L754.2,129.3 L754.5,122.1 L754.7,136.4 L754.9,154.2 L755.1,128.8 L755.4,164.3 L755.6,178.1 L755.8,114.3 L756.0,178.0 L756.2,183.8 L756.5,159.9 L756.7,116.6 L756.9,180.6 L757.1,164.3 L757.4,130.9 L757.6,190.0 L757.8,114.0 L758.0,168.2 L758.2,132.0 L758.5,156.4 L758.7,153.3 L758.9,116.2 L759.1,155.5 L759.4,133.2 L759.6,175.6 L759.8,151.5 L760.0,183.8 L760.2,185.7 L760.5,194.0 L760.7,180.4 L760.9,186.0 L761.1,162.9 L761.3,170.6 L761.6,127.8 L761.8,157.7 L762.0,127.0 L762.2,171.0 L762.5,167.4 L762.7,144.5 L762.9,140.9 L763.1,126.2 L763.3,141.7 L763.6,191.0 L763.8,123.7 L764.0,139.2 L764.2,150.6 L764.5,138.6 L764.7,174.6 L764.9,177.5 L765.1,123.1 L765.3,179.1 L765.6,181.8 L765.8,181.3 L766.0,164.5 L766.2,182.0 L766.5,151.6 L766.7,144.5 L766.9,170.2 L767.1,124.4 L767.3,152.0 L767.6,141.7 L767.8,173.6 L768.0,181.8 L768.2,133.5 L768.4,123.0 L768.7,133.7 L768.9,179.1 L769.1,195.2 L769.3,173.0 L769.6,188.7 L769.8,180.4 L770.0,186.0 L770.2,162.2 L770.4,169.4 L770.7,147.7 L770.9,141.2 L771.1,162.1 L771.3,152.0 L771.6,132.0 L771.8,193.4 L772.0,135.2 L772.2,186.6 L772.4,139.2 L772.7,144.4 L772.9,136.3 L773.1,163.4 L773.3,201.5 L773.6,159.5 L773.8,175.2 L774.0,193.3 L774.2,181.5 L774.4,200.4 L774.7,172.8 L774.9,141.4 L775.1,152.1 L775.3,165.5 L775.6,133.7 L775.8,199.3 L776.0,134.7 L776.2,149.4 L776.4,158.9 L776.7,197.9 L776.9,169.5 L777.1,147.8 L777.3,182.3 L777.5,202.5 L777.8,199.1 L778.0,137.5 L778.2,189.8 L778.4,188.6 L778.7,172.0 L778.9,180.6 L779.1,153.7 L779.3,147.9 L779.5,192.1 L779.8,188.0 L780.0,134.4 L780.2,197.9 L780.4,181.2 L780.7,197.8 L780.9,193.3 L781.1,171.8 L781.3,187.2 L781.5,160.3 L781.8,202.4 L782.0,180.8 L782.2,136.6 L782.4,210.0 L782.7,207.9 L782.9,154.6 L783.1,205.7 L783.3,151.0 L783.5,148.3 L783.8,198.7 L784.0,204.2 L784.2,172.0 L784.4,186.8 L784.6,190.4 L784.9,147.9 L785.1,144.9 L785.3,180.5 L785.5,191.3 L785.8,209.1 L786.0,207.6 L786.2,143.5 L786.4,198.1 L786.6,144.1 L786.9,143.5 L787.1,209.2 L787.3,145.7 L787.5,147.3 L787.8,166.9 L788.0,201.1 L788.2,192.4 L788.4,212.0 L788.6,171.0 L788.9,153.7 L789.1,187.4 L789.3,197.3 L789.5,162.6 L789.8,208.7 L790.0,170.5 L790.2,200.3 L790.4,162.6 L790.6,176.0 L790.9,163.2 L791.1,201.9 L791.3,189.8 L791.5,198.5 L791.7,160.8 L792.0,202.6 L792.2,152.3 L792.4,170.9 L792.6,163.2 L792.9,153.0 L793.1,198.8 L793.3,173.4 L793.5,215.3 L793.7,217.8 L794.0,160.5 L794.2,203.7 L794.4,181.4 L794.6,171.6 L794.9,147.2 L795.1,156.5 L795.3,183.1 L795.5,220.5 L795.7,214.3 L796.0,211.3 L796.2,193.1 L796.4,219.5 L796.6,171.7 L796.9,167.6 L797.1,177.1 L797.3,173.7 L797.5,194.8 L797.7,189.6 L798.0,152.5 L798.2,154.5 L798.4,162.3 L798.6,216.2 L798.9,189.3 L799.1,170.7 L799.3,158.8 L799.5,210.2 L799.7,180.0 L800.0,209.7 L800.2,212.5 L800.4,192.1 L800.6,156.3 L800.8,197.1 L801.1,218.4 L801.3,171.3 L801.5,169.5 L801.7,216.5 L802.0,171.6 L802.2,159.2 L802.4,183.9 L802.6,222.8 L802.8,187.5 L803.1,190.7 L803.3,182.6 L803.5,202.7 L803.7,218.9 L804.0,174.5 L804.2,161.6 L804.4,194.1 L804.6,179.1 L804.8,214.9 L805.1,162.6 L805.3,198.9 L805.5,226.6 L805.7,194.9 L806.0,211.0 L806.2,207.5 L806.4,167.3 L806.6,190.3 L806.8,207.2 L807.1,170.7 L807.3,185.3 L807.5,210.5 L807.7,211.8 L807.9,200.8 L808.2,192.8 L808.4,161.2 L808.6,173.5 L808.8,223.5 L809.1,221.9 L809.3,215.0 L809.5,228.8 L809.7,191.9 L809.9,225.4 L810.2,182.6 L810.4,217.8 L810.6,204.1 L810.8,167.8 L811.1,169.8 L811.3,186.8 L811.5,219.5 L811.7,172.9 L811.9,174.2 L812.2,176.5 L812.4,182.5 L812.6,173.3 L812.8,225.6 L813.1,180.1 L813.3,216.1 L813.5,171.4 L813.7,225.6 L813.9,196.1 L814.2,219.7 L814.4,232.3 L814.6,178.8 L814.8,201.5 L815.0,187.5 L815.3,225.1 L815.5,180.3 L815.7,175.7 L815.9,237.5 L816.2,189.5 L816.4,227.3 L816.6,209.5 L816.8,194.2 L817.0,228.6 L817.3,171.3 L817.5,213.2 L817.7,186.5 L817.9,215.4 L818.2,181.4 L818.4,217.3 L818.6,217.5 L818.8,180.7 L819.0,210.9 L819.3,183.4 L819.5,208.3 L819.7,177.0 L819.9,234.6 L820.2,213.8 L820.4,238.8 L820.6,176.3 L820.8,173.8 L821.0,174.5 L821.3,204.2 L821.5,236.5 L821.7,203.7 L821.9,226.2 L822.2,191.2 L822.4,181.1 L822.6,182.8 L822.8,180.6 L823.0,196.7 L823.3,181.7 L823.5,179.6 L823.7,187.3 L823.9,211.4 L824.1,202.2 L824.4,190.6 L824.6,228.0 L824.8,212.8 L825.0,232.9 L825.3,179.6 L825.5,190.9 L825.7,225.6 L825.9,197.0 L826.1,233.7 L826.4,200.6 L826.6,232.2 L826.8,192.3 L827.0,200.6 L827.3,188.2 L827.5,188.6 L827.7,181.6 L827.9,182.1 L828.1,208.9 L828.4,242.9 L828.6,226.3 L828.8,236.5 L829.0,212.1 L829.3,197.3 L829.5,231.2 L829.7,241.8 L829.9,215.0 L830.1,221.7 L830.4,233.3 L830.6,225.7 L830.8,240.6 L831.0,237.6 L831.2,233.1 L831.5,206.3 L831.7,230.7 L831.9,200.4 L832.1,246.3 L832.4,224.6 L832.6,235.6 L832.8,191.4 L833.0,233.5 L833.2,250.2 L833.5,235.9 L833.7,223.7 L833.9,199.6 L834.1,230.8 L834.4,194.8 L834.6,240.3 L834.8,223.7 L835.0,243.2 L835.2,246.0 L835.5,194.7 L835.7,239.5 L835.9,235.4 L836.1,250.6 L836.4,214.5 L836.6,218.9 L836.8,235.9 L837.0,210.7 L837.2,221.4 L837.5,227.6 L837.7,240.7 L837.9,244.9 L838.1,224.7 L838.3,199.9 L838.6,241.7 L838.8,228.0 L839.0,255.5 L839.2,258.2 L839.5,238.9 L839.7,226.8 L839.9,245.0 L840.1,234.3 L840.3,204.7 L840.6,203.3 L840.8,207.3 L841.0,250.0 L841.2,235.0 L841.5,237.5 L841.7,253.3 L841.9,223.5 L842.1,213.6 L842.3,199.2 L842.6,220.6 L842.8,232.6 L843.0,222.4 L843.2,202.3 L843.5,259.0 L843.7,215.9 L843.9,239.9 L844.1,200.3 L844.3,200.2 L844.6,229.3 L844.8,210.7 L845.0,245.5 L845.2,241.5 L845.5,258.9 L845.7,206.1 L845.9,207.0 L846.1,226.3 L846.3,204.6 L846.6,238.2 L846.8,229.1 L847.0,254.6 L847.2,234.2 L847.4,227.9 L847.7,225.9 L847.9,256.1 L848.1,237.6 L848.3,213.8 L848.6,233.4 L848.8,210.2 L849.0,264.1 L849.2,223.4 L849.4,207.8 L849.7,207.1 L849.9,248.0 L850.1,242.8 L850.3,233.0 L850.6,268.5 L850.8,229.3 L851.0,216.1 L851.2,216.5 L851.4,244.2 L851.7,214.4 L851.9,238.3 L852.1,244.3 L852.3,261.4 L852.6,220.6 L852.8,224.4 L853.0,259.8 L853.2,235.4 L853.4,225.5 L853.7,243.2 L853.9,262.4 L854.1,260.2 L854.3,211.8 L854.5,219.1 L854.8,257.3 L855.0,269.6 L855.2,244.3 L855.4,218.6 L855.7,259.7 L855.9,240.5 L856.1,255.5 L856.3,232.4 L856.5,265.3 L856.8,228.3 L857.0,256.1 L857.2,227.3 L857.4,225.2 L857.7,259.8 L857.9,271.4 L858.1,274.8 L858.3,258.9 L858.5,276.0 L858.8,218.1 L859.0,222.4 L859.2,218.2 L859.4,220.8 L859.7,246.2 L859.9,238.6 L860.1,270.1 L860.3,266.1 L860.5,228.0 L860.8,235.6 L861.0,255.0 L861.2,266.5 L861.4,269.1 L861.7,266.5 L861.9,256.1 L862.1,250.4 L862.3,243.8 L862.5,239.4 L862.8,267.9 L863.0,243.9 L863.2,244.0 L863.4,244.4 L863.6,228.2 L863.9,280.0 L864.1,273.2 L864.3,227.7 L864.5,235.7 L864.8,257.5 L865.0,249.6 L865.2,270.3 L865.4,246.5 L865.6,251.5 L865.9,272.5 L866.1,249.4 L866.3,233.1 L866.5,250.6 L866.8,268.1 L867.0,265.0 L867.2,279.2 L867.4,227.1 L867.6,263.1 L867.9,268.7 L868.1,246.0 L868.3,282.1 L868.5,257.3 L868.8,262.3 L869.0,230.2 L869.2,268.3 L869.4,239.3 L869.6,275.8 L869.9,235.6 L870.1,281.5 L870.3,245.3 L870.5,269.3 L870.7,262.5 L871.0,274.6 L871.2,258.4 L871.4,272.4 L871.6,265.1 L871.9,259.0 L872.1,249.8 L872.3,271.5 L872.5,272.3 L872.7,287.8 L873.0,290.1 L873.2,260.5 L873.4,268.4 L873.6,282.7 L873.9,261.1 L874.1,271.7 L874.3,239.6 L874.5,274.7 L874.7,272.6 L875.0,263.0 L875.2,239.4 L875.4,288.9 L875.6,253.1 L875.9,291.6 L876.1,271.6 L876.3,257.2 L876.5,249.3 L876.7,259.8 L877.0,248.0 L877.2,252.0 L877.4,288.0 L877.6,240.1 L877.8,270.0 L878.1,251.7 L878.3,283.8 L878.5,271.2 L878.7,294.5 L879.0,276.5 L879.2,272.8 L879.4,244.8 L879.6,247.0 L879.8,242.1 L880.1,279.3 L880.3,248.4 L880.5,269.2 L880.7,282.3 L881.0,287.6 L881.2,261.7 L881.4,261.4 L881.6,260.4 L881.8,299.4 L882.1,256.8 L882.3,294.8 L882.5,268.2 L882.7,252.9 L883.0,249.5 L883.2,259.4 L883.4,294.5 L883.6,292.5 L883.8,274.2 L884.1,296.0 L884.3,276.5 L884.5,261.2 L884.7,283.4 L885.0,271.4 L885.2,286.1 L885.4,265.8 L885.6,283.5 L885.8,254.4 L886.1,304.1 L886.3,292.4 L886.5,297.0 L886.7,276.4 L886.9,275.6 L887.2,257.8 L887.4,289.0 L887.6,282.3 L887.8,256.8 L888.1,281.0 L888.3,259.4 L888.5,288.4 L888.7,260.4 L888.9,303.6 L889.2,300.2 L889.4,287.7 L889.6,272.9 L889.8,299.0 L890.1,290.9 L890.3,308.3 L890.5,298.4 L890.7,300.3 L890.9,266.1 L891.2,273.4 L891.4,268.4 L891.6,271.8 L891.8,278.4 L892.1,283.6 L892.3,278.3 L892.5,304.9 L892.7,277.7 L892.9,295.0 L893.2,302.7 L893.4,299.0 L893.6,306.4 L893.8,285.3 L894.0,265.9 L894.3,290.7 L894.5,309.8 L894.7,306.9 L894.9,276.3 L895.2,298.2 L895.4,280.8 L895.6,293.7 L895.8,266.2 L896.0,270.2 L896.3,286.1 L896.5,288.9 L896.7,306.2 L896.9,304.8 L897.2,291.9 L897.4,312.3 L897.6,297.6 L897.8,295.5 L898.0,270.9 L898.3,314.9 L898.5,283.1 L898.7,295.0 L898.9,311.2 L899.2,302.0 L899.4,300.4 L899.6,274.3 L899.8,273.5 L900.0,292.8 L900.3,274.1 L900.5,297.1 L900.7,270.2 L900.9,290.4 L901.1,277.8 L901.4,314.9 L901.6,275.5 L901.8,296.2 L902.0,303.2 L902.3,280.7 L902.5,316.2 L902.7,299.5 L902.9,312.2 L903.1,294.1 L903.4,318.7 L903.6,303.1 L903.8,304.1 L904.0,289.0 L904.3,322.8 L904.5,301.5 L904.7,289.5 L904.9,288.8 L905.1,313.5 L905.4,298.3 L905.6,291.8 L905.8,321.9 L906.0,284.0 L906.3,306.5 L906.5,299.4 L906.7,314.3 L906.9,280.1 L907.1,294.2 L907.4,315.9 L907.6,320.2 L907.8,295.5 L908.0,287.8 L908.3,325.2 L908.5,314.0 L908.7,301.5 L908.9,319.6 L909.1,307.8 L909.4,291.8 L909.6,314.9 L909.8,298.5 L910.0,283.1 L910.2,320.4 L910.5,305.0 L910.7,320.3 L910.9,295.2 L911.1,325.3 L911.4,319.2 L911.6,311.1 L911.8,293.0 L912.0,312.1 L912.2,314.0 L912.5,328.1 L912.7,296.0 L912.9,325.7 L913.1,314.5 L913.4,330.7 L913.6,302.3 L913.8,299.7 L914.0,323.7 L914.2,297.2 L914.5,330.8 L914.7,329.4 L914.9,328.9 L915.1,297.6 L915.4,311.8 L915.6,309.3 L915.8,321.0 L916.0,289.1 L916.2,300.5 L916.5,294.9 L916.7,335.0 L916.9,293.3 L917.1,309.3 L917.3,318.7 L917.6,319.1 L917.8,322.1 L918.0,329.5 L918.2,315.4 L918.5,299.9 L918.7,324.7 L918.9,335.8 L919.1,304.7 L919.3,318.9 L919.6,337.9 L919.8,322.9 L920.0,329.4 L920.2,310.6 L920.5,313.5 L920.7,313.1 L920.9,328.6 L921.1,329.8 L921.3,303.6 L921.6,341.2 L921.8,323.6 L922.0,327.9 L922.2,316.4 L922.5,310.9 L922.7,309.1 L922.9,317.8 L923.1,331.8 L923.3,335.1 L923.6,331.0 L923.8,319.1 L924.0,313.8 L924.2,316.9 L924.4,324.9 L924.7,307.1 L924.9,343.2 L925.1,338.1 L925.3,317.7 L925.6,336.8 L925.8,333.6 L926.0,305.9 L926.2,321.3 L926.4,343.5 L926.7,321.2 L926.9,333.5 L927.1,332.7 L927.3,335.2 L927.6,342.5 L927.8,319.9 L928.0,339.0 L928.2,315.5 L928.4,313.2 L928.7,307.9 L928.9,329.5 L929.1,313.1 L929.3,334.6 L929.6,349.5 L929.8,315.7 L930.0,350.9 L930.2,330.3 L930.4,335.5 L930.7,349.2 L930.9,347.7 L931.1,345.2 L931.3,347.5 L931.6,334.5 L931.8,341.0 L932.0,310.7 L932.2,341.5 L932.4,312.7 L932.7,334.2 L932.9,333.7 L933.1,311.8 L933.3,336.7 L933.5,326.4 L933.8,346.4 L934.0,319.9 L934.2,345.4 L934.4,322.7 L934.7,346.2 L934.9,356.0 L935.1,351.6 L935.3,315.5 L935.5,348.5 L935.8,319.6 L936.0,335.5 L936.2,352.1 L936.4,329.0 L936.7,356.4 L936.9,337.1 L937.1,334.1 L937.3,352.3 L937.5,319.3 L937.8,356.5 L938.0,358.6 L938.2,352.5 L938.4,345.1 L938.7,348.7 L938.9,334.8 L939.1,326.6 L939.3,361.2 L939.5,335.6 L939.8,353.9 L940.0,358.5 L940.2,357.2 L940.4,358.2 L940.6,327.4 L940.9,349.1 L941.1,329.2 L941.3,358.9 L941.5,328.2 L941.8,341.7 L942.0,351.3 L942.2,360.0 L942.4,360.3 L942.6,364.1 L942.9,332.6 L943.1,358.8 L943.3,335.3 L943.5,346.0 L943.8,356.6 L944.0,358.6 L944.2,340.1 L944.4,356.8 L944.6,354.0 L944.9,328.4 L945.1,336.1 L945.3,337.5 L945.5,351.4 L945.8,336.9 L946.0,363.2 L946.2,340.3 L946.4,333.6 L946.6,357.1 L946.9,345.5 L947.1,350.1 L947.3,347.2 L947.5,333.0 L947.7,355.8 L948.0,337.4 L948.2,347.4 L948.4,333.1 L948.6,346.5 L948.9,336.7 L949.1,352.7 L949.3,357.1 L949.5,348.7 L949.7,354.6 L950.0,371.5 L950.2,361.3 L950.4,351.5 L950.6,361.8 L950.9,357.6 L951.1,365.0 L951.3,357.1 L951.5,357.1 L951.7,341.7 L952.0,342.5 L952.2,352.2 L952.4,360.1 L952.6,356.4 L952.9,341.6 L953.1,366.4 L953.3,369.4 L953.5,371.6 L953.7,367.5 L954.0,342.2 L954.2,367.5 L954.4,359.1 L954.6,344.6 L954.9,366.1 L955.1,363.2 L955.3,353.8 L955.5,357.6 L955.7,362.4 L956.0,345.9 L956.2,372.8 L956.4,366.4 L956.6,349.9 L956.8,350.6 L957.1,351.4 L957.3,370.1 L957.5,359.9 L957.7,347.4 L958.0,359.6 L958.2,349.7 L958.4,364.4 L958.6,348.3 L958.8,360.3 L959.1,354.9 L959.3,373.5 L959.5,364.7 L959.7,380.7 L960.0,362.9 L960.2,367.5 L960.4,368.8 L960.6,356.4 L960.8,357.6 L961.1,362.2 L961.3,367.4 L961.5,382.6 L961.7,373.1 L962.0,356.4 L962.2,362.9 L962.4,353.2 L962.6,384.2 L962.8,388.2 L963.1,370.8 L963.3,368.1 L963.5,359.1 L963.7,387.3 L963.9,354.6 L964.2,386.4 L964.4,380.0 L964.6,366.9 L964.8,360.3 L965.1,356.7 L965.3,373.0 L965.5,365.5 L965.7,367.8 L965.9,391.3 L966.2,369.4 L966.4,368.7 L966.6,392.0 L966.8,380.0 L967.1,370.2 L967.3,391.3 L967.5,387.5 L967.7,371.5 L967.9,370.0 L968.2,371.9 L968.4,385.4 L968.6,394.3 L968.8,363.2 L969.1,381.5 L969.3,364.4 L969.5,382.8 L969.7,379.7 L969.9,384.0 L970.2,368.5 L970.4,363.5 L970.6,366.0 L970.8,387.7 L971.0,396.6 L971.3,382.6 L971.5,384.2 L971.7,383.0 L971.9,373.7 L972.2,385.7 L972.4,386.6 L972.6,378.8 L972.8,386.2 L973.0,386.6 L973.3,395.9 L973.5,371.1 L973.7,371.3 L973.9,382.9 L974.2,390.4 L974.4,392.3 L974.6,397.2 L974.8,398.2 L975.0,384.9 L975.3,385.4 L975.5,388.9 L975.7,379.2 L975.9,387.6 L976.2,402.8 L976.4,381.0 L976.6,392.4 L976.8,378.8 L977.0,382.5 L977.3,379.4 L977.5,392.7 L977.7,377.4 L977.9,395.7 L978.2,379.0 L978.4,379.8 L978.6,403.8 L978.8,385.7 L979.0,399.2 L979.3,395.0 L979.5,385.9 L979.7,406.0 L979.9,390.2 L980.1,401.5 L980.4,395.5 L980.6,402.2 L980.8,382.5 L981.0,402.0 L981.3,378.7 L981.5,383.5 L981.7,401.4 L981.9,404.9 L982.1,381.2 L982.4,401.5 L982.6,383.3 L982.8,398.3 L983.0,390.1 L983.3,398.3 L983.5,391.0 L983.7,383.0 L983.9,398.1 L984.1,396.5 L984.4,384.5 L984.6,395.8 L984.8,403.8 L985.0,412.3 L985.3,389.4 L985.5,393.5 L985.7,386.3 L985.9,388.1 L986.1,407.5 L986.4,388.4 L986.6,401.9 L986.8,400.0 L987.0,405.5 L987.2,413.3 L987.5,406.2 L987.7,402.4 L987.9,415.1 L988.1,399.4 L988.4,398.3 L988.6,410.6 L988.8,410.4 L989.0,416.8 L989.2,395.1 L989.5,404.6 L989.7,392.0 L989.9,414.2 L990.1,405.7 L990.4,393.8 L990.6,392.1 L990.8,400.8 L991.0,406.1 L991.2,418.7 L991.5,415.4 L991.7,404.8 L991.9,405.4 L992.1,419.1 L992.4,408.5 L992.6,400.2 L992.8,413.3 L993.0,421.2 L993.2,404.5 L993.5,405.5 L993.7,417.1 L993.9,411.9 L994.1,398.4 L994.3,410.9 L994.6,409.4 L994.8,400.4 L995.0,417.7 L995.2,418.1 L995.5,399.8 L995.7,418.8 L995.9,419.5 L996.1,417.2 L996.3,408.6 L996.6,413.7 L996.8,417.3 L997.0,423.2 L997.2,420.8 L997.5,403.5 L997.7,427.8 L997.9,417.6 L998.1,426.8 L998.3,417.8 L998.6,416.3 L998.8,414.2 L999.0,412.4 L999.2,427.1 L999.5,425.3 L999.7,409.3 L999.9,427.5 L1000.1,411.2 L1000.3,407.5 L1000.6,423.1 L1000.8,427.4 L1001.0,410.6 L1001.2,409.8 L1001.5,407.6 L1001.7,432.6 L1001.9,421.7 L1002.1,411.6 L1002.3,411.2 L1002.6,433.5 L1002.8,432.9 L1003.0,412.4 L1003.2,434.9 L1003.4,419.5 L1003.7,430.3 L1003.9,428.7 L1004.1,423.3 L1004.3,424.5 L1004.6,414.4 L1004.8,425.0 L1005.0,426.6 L1005.2,426.9 L1005.4,417.8 L1005.7,437.1 L1005.9,429.5 L1006.1,421.2 L1006.3,423.1 L1006.6,421.6 L1006.8,418.8 L1007.0,434.1 L1007.2,423.5 L1007.4,423.3 L1007.7,431.3 L1007.9,430.8 L1008.1,417.6 L1008.3,419.0 L1008.6,441.2 L1008.8,438.1 L1009.0,426.7 L1009.2,441.5 L1009.4,419.8 L1009.7,434.5 L1009.9,427.4 L1010.1,432.6 L1010.3,442.5 L1010.5,439.8 L1010.8,428.6 L1011.0,432.7 L1011.2,425.6 L1011.4,436.0 L1011.7,442.8 L1011.9,427.3 L1012.1,431.1 L1012.3,440.2 L1012.5,425.7 L1012.8,443.3 L1013.0,446.6 L1013.2,430.6 L1013.4,445.9 L1013.7,445.4 L1013.9,433.3 L1014.1,437.3 L1014.3,428.1 L1014.5,431.0 L1014.8,447.9 L1015.0,438.4 L1015.2,434.6 L1015.4,437.2 L1015.7,433.4 L1015.9,440.3 L1016.1,435.1 L1016.3,439.4 L1016.5,447.9 L1016.8,451.2 L1017.0,447.9 L1017.2,452.5 L1017.4,449.4 L1017.7,450.3 L1017.9,440.0 L1018.1,441.6 L1018.3,446.5 L1018.5,453.1 L1018.8,449.3 L1019.0,440.1 L1019.2,451.7 L1019.4,454.5 L1019.6,452.9 L1019.9,437.9 L1020.1,446.4 L1020.3,441.7 L1020.5,441.7 L1020.8,456.4 L1021.0,439.0 L1021.2,451.7 L1021.4,452.7 L1021.6,449.2 L1021.9,451.5 L1022.1,458.5 L1022.3,457.0 L1022.5,456.4 L1022.8,448.0 L1023.0,445.2 L1023.2,450.3 L1023.4,450.0 L1023.6,446.9 L1023.9,453.0 L1024.1,452.2 L1024.3,449.2 L1024.5,460.2 L1024.8,443.8 L1025.0,451.7 L1025.2,449.2 L1025.4,457.6 L1025.6,460.7 L1025.9,445.7 L1026.1,456.5 L1026.3,456.6 L1026.5,459.0 L1026.7,455.4 L1027.0,456.4 L1027.2,455.9 L1027.4,461.3 L1027.6,466.1 L1027.9,463.8 L1028.1,454.2 L1028.3,459.8 L1028.5,466.8 L1028.7,459.6 L1029.0,455.3 L1029.2,462.3 L1029.4,458.1 L1029.6,453.5 L1029.9,465.9 L1030.1,455.2 L1030.3,454.3 L1030.5,461.6 L1030.7,464.5 L1031.0,465.7 L1031.2,467.0 L1031.4,462.6 L1031.6,459.7 L1031.9,466.1 L1032.1,468.6 L1032.3,467.7 L1032.5,468.6 L1032.7,468.6 L1033.0,472.9 L1033.2,467.2 L1033.4,469.5 L1033.6,469.7 L1033.8,469.6 L1034.1,471.8 L1034.3,473.0 L1034.5,472.0 L1034.7,469.9 L1035.0,470.0 L1035.2,474.2 L1035.4,475.3 L1035.6,469.9 L1035.8,462.4 L1036.1,470.1 L1036.3,465.8 L1036.5,474.5 L1036.7,470.5 L1037.0,464.7 L1037.2,469.0 L1037.4,472.5 L1037.6,466.1 L1037.8,467.2 L1038.1,474.3 L1038.3,467.6 L1038.5,473.6 L1038.7,474.9 L1039.0,480.3 L1039.2,471.1 L1039.4,480.4 L1039.6,482.3 L1039.8,475.3 L1040.1,477.6 L1040.3,471.0 L1040.5,479.5 L1040.7,474.7 L1041.0,482.3 L1041.2,473.0 L1041.4,471.4 L1041.6,483.8 L1041.8,473.9 L1042.1,482.2 L1042.3,474.4 L1042.5,482.5 L1042.7,484.0 L1042.9,480.0 L1043.2,480.6 L1043.4,486.2 L1043.6,474.9 L1043.8,482.8 L1044.1,478.9 L1044.3,487.5 L1044.5,486.4 L1044.7,476.9 L1044.9,483.7 L1045.2,488.5 L1045.4,478.0 L1045.6,486.6 L1045.8,485.5 L1046.1,488.0 L1046.3,490.6 L1046.5,489.7 L1046.7,482.0 L1046.9,484.6 L1047.2,485.3 L1047.4,489.0 L1047.6,485.0 L1047.8,484.7 L1048.1,484.8 L1048.3,488.8 L1048.5,494.2 L1048.7,490.9 L1048.9,490.9 L1049.2,492.1 L1049.4,494.0 L1049.6,486.3 L1049.8,491.3 L1050.0,489.7 L1050.3,494.1 L1050.5,491.2 L1050.7,488.9 L1050.9,489.0 L1051.2,491.8 L1051.4,492.0 L1051.6,491.0 L1051.8,489.2 L1052.0,499.1 L1052.3,499.4 L1052.5,494.5 L1052.7,491.0 L1052.9,496.0 L1053.2,496.4 L1053.4,497.1 L1053.6,493.6 L1053.8,499.6 L1054.0,493.8 L1054.3,493.5 L1054.5,498.3 L1054.7,501.2 L1054.9,503.6 L1055.2,504.1 L1055.4,502.5 L1055.6,497.5 L1055.8,501.5 L1056.0,502.1 L1056.3,501.9 L1056.5,500.6 L1056.7,497.9 L1056.9,502.8 L1057.1,499.7 L1057.4,500.8 L1057.6,498.8 L1057.8,506.9 L1058.0,504.7 L1058.3,501.7 L1058.5,506.5 L1058.7,507.0 L1058.9,505.6 L1059.1,508.5 L1059.4,506.4 L1059.6,503.1 L1059.8,509.3 L1060.0,509.2 L1060.3,509.3 L1060.5,507.2 L1060.7,511.3 L1060.9,510.6 L1061.1,512.4 L1061.4,506.6 L1061.6,508.0 L1061.8,509.7 L1062.0,511.3 L1062.3,513.4 L1062.5,513.5 L1062.7,514.4 L1062.9,510.7 L1063.1,511.9 L1063.4,515.4 L1063.6,509.6 L1063.8,512.0 L1064.0,516.0 L1064.3,516.5 L1064.5,510.6 L1064.7,512.0 L1064.9,517.1 L1065.1,517.9 L1065.4,515.2 L1065.6,515.2 L1065.8,516.4 L1066.0,512.9 L1066.2,519.0 L1066.5,518.7 L1066.7,514.5 L1066.9,517.1 L1067.1,518.2 L1067.4,516.0 L1067.6,518.0 L1067.8,518.5 L1068.0,520.5 L1068.2,521.3 L1068.5,520.7 L1068.7,522.7 L1068.9,517.9 L1069.1,518.2 L1069.4,523.2 L1069.6,521.5 L1069.8,523.7 L1070.0,523.9 L1070.2,524.9 L1070.5,525.3 L1070.7,523.5 L1070.9,523.4 L1071.1,522.7 L1071.4,526.7 L1071.6,526.2 L1071.8,527.2 L1072.0,527.0 L1072.2,525.5 L1072.5,526.3 L1072.7,526.5 L1072.9,525.7 L1073.1,528.9 L1073.3,527.5 L1073.6,527.2 L1073.8,529.4 L1074.0,530.2 L1074.2,530.4 L1074.5,528.2 L1074.7,530.8 L1074.9,531.2 L1075.1,529.1 L1075.3,528.6 L1075.6,530.7 L1075.8,530.9 L1076.0,532.7 L1076.2,531.0 L1076.5,532.1 L1076.7,533.2 L1076.9,532.8 L1077.1,531.6 L1077.3,532.7 L1077.6,533.4 L1077.8,534.0 L1078.0,533.9 L1078.2,536.0 L1078.5,535.5 L1078.7,536.3 L1078.9,536.6 L1079.1,535.3 L1079.3,537.5 L1079.6,536.2 L1079.8,537.8 L1080.0,536.7 L1080.2,537.7 L1080.4,539.1 L1080.7,539.3 L1080.9,539.2 L1081.1,538.6 L1081.3,539.8 L1081.6,539.1 L1081.8,540.3 L1082.0,540.3 L1082.2,540.1 L1082.4,540.6 L1082.7,541.4 L1082.9,542.2 L1083.1,542.5 L1083.3,542.8 L1083.6,543.1 L1083.8,543.7 L1084.0,543.4" fill="none" stroke="#1f77b4" stroke-width="1.4" opacity="0.85"/><text x="1040" y="54" fill="#ff7f0e" font-size="11">roll 16</text><text x="1090" y="558" fill="#ff7f0e" font-size="11">-18</text><path d="M616.0,300.5 L616.2,300.5 L616.4,300.5 L616.7,300.5 L616.9,301.8 L617.1,299.1 L617.3,301.8 L617.6,301.8 L617.8,299.1 L618.0,300.5 L618.2,299.1 L618.4,300.5 L618.7,300.5 L618.9,299.1 L619.1,300.5 L619.3,299.1 L619.6,300.5 L619.8,301.8 L620.0,300.5 L620.2,300.5 L620.4,301.8 L620.7,299.1 L620.9,300.5 L621.1,300.5 L621.3,300.5 L621.5,300.5 L621.8,301.8 L622.0,301.8 L622.2,300.5 L622.4,300.5 L622.7,299.1 L622.9,300.5 L623.1,300.5 L623.3,301.8 L623.5,299.1 L623.8,301.8 L624.0,299.1 L624.2,300.5 L624.4,300.5 L624.7,300.5 L624.9,300.5 L625.1,301.8 L625.3,300.5 L625.5,300.5 L625.8,300.5 L626.0,301.8 L626.2,299.1 L626.4,299.1 L626.7,300.5 L626.9,300.5 L627.1,299.1 L627.3,300.5 L627.5,299.1 L627.8,299.1 L628.0,299.1 L628.2,300.5 L628.4,301.8 L628.6,300.5 L628.9,301.8 L629.1,300.5 L629.3,301.8 L629.5,299.1 L629.8,301.8 L630.0,300.5 L630.2,299.1 L630.4,300.5 L630.6,301.8 L630.9,299.1 L631.1,301.8 L631.3,301.8 L631.5,300.5 L631.8,299.1 L632.0,301.8 L632.2,299.1 L632.4,300.5 L632.6,301.8 L632.9,300.5 L633.1,299.1 L633.3,300.5 L633.5,300.5 L633.8,300.5 L634.0,299.1 L634.2,301.8 L634.4,300.5 L634.6,300.5 L634.9,300.5 L635.1,300.5 L635.3,300.5 L635.5,301.8 L635.7,300.5 L636.0,300.5 L636.2,301.8 L636.4,301.8 L636.6,299.1 L636.9,301.8 L637.1,300.5 L637.3,301.8 L637.5,300.5 L637.7,299.1 L638.0,301.8 L638.2,301.8 L638.4,299.1 L638.6,299.1 L638.9,300.5 L639.1,301.8 L639.3,300.5 L639.5,300.5 L639.7,300.5 L640.0,300.5 L640.2,300.5 L640.4,301.8 L640.6,300.5 L640.9,299.1 L641.1,300.5 L641.3,300.5 L641.5,300.5 L641.7,300.5 L642.0,299.1 L642.2,299.1 L642.4,301.8 L642.6,299.1 L642.9,301.8 L643.1,301.8 L643.3,301.8 L643.5,301.8 L643.7,299.1 L644.0,300.5 L644.2,300.5 L644.4,300.5 L644.6,300.5 L644.8,300.5 L645.1,299.1 L645.3,300.5 L645.5,300.5 L645.7,300.5 L646.0,299.1 L646.2,300.5 L646.4,301.8 L646.6,300.5 L646.8,299.1 L647.1,299.1 L647.3,301.8 L647.5,299.1 L647.7,299.1 L648.0,301.8 L648.2,299.1 L648.4,300.5 L648.6,300.5 L648.8,301.8 L649.1,299.1 L649.3,301.8 L649.5,301.8 L649.7,299.1 L650.0,299.1 L650.2,299.1 L650.4,301.8 L650.6,301.8 L650.8,300.5 L651.1,301.8 L651.3,299.1 L651.5,301.8 L651.7,300.5 L651.9,300.5 L652.2,300.5 L652.4,301.8 L652.6,300.5 L652.8,300.5 L653.1,299.1 L653.3,300.5 L653.5,301.8 L653.7,300.5 L653.9,300.5 L654.2,300.5 L654.4,300.5 L654.6,300.5 L654.8,300.5 L655.1,301.8 L655.3,300.5 L655.5,300.5 L655.7,301.8 L655.9,301.8 L656.2,300.5 L656.4,301.8 L656.6,300.5 L656.8,300.5 L657.1,300.5 L657.3,300.5 L657.5,299.1 L657.7,301.8 L657.9,300.5 L658.2,301.8 L658.4,299.1 L658.6,300.5 L658.8,300.5 L659.0,300.5 L659.3,300.5 L659.5,300.5 L659.7,300.5 L659.9,301.8 L660.2,301.8 L660.4,300.5 L660.6,300.5 L660.8,300.5 L661.0,300.5 L661.3,301.8 L661.5,300.5 L661.7,301.8 L661.9,299.1 L662.2,299.1 L662.4,300.5 L662.6,299.1 L662.8,300.5 L663.0,300.5 L663.3,299.1 L663.5,300.5 L663.7,300.5 L663.9,300.5 L664.2,300.5 L664.4,300.5 L664.6,300.5 L664.8,300.5 L665.0,299.1 L665.3,300.5 L665.5,300.5 L665.7,301.8 L665.9,301.8 L666.2,300.5 L666.4,300.5 L666.6,301.8 L666.8,299.1 L667.0,299.1 L667.3,299.1 L667.5,301.8 L667.7,300.5 L667.9,300.5 L668.1,300.5 L668.4,301.8 L668.6,300.5 L668.8,300.5 L669.0,300.5 L669.3,300.5 L669.5,301.8 L669.7,300.5 L669.9,300.5 L670.1,299.1 L670.4,301.8 L670.6,300.5 L670.8,299.1 L671.0,300.5 L671.3,299.1 L671.5,301.8 L671.7,299.1 L671.9,301.8 L672.1,301.8 L672.4,300.5 L672.6,299.1 L672.8,299.1 L673.0,299.1 L673.3,300.5 L673.5,300.5 L673.7,301.8 L673.9,301.8 L674.1,300.5 L674.4,301.8 L674.6,300.5 L674.8,300.5 L675.0,299.1 L675.2,299.1 L675.5,300.5 L675.7,300.5 L675.9,300.5 L676.1,301.8 L676.4,300.5 L676.6,300.5 L676.8,300.5 L677.0,300.5 L677.2,299.1 L677.5,300.5 L677.7,300.5 L677.9,299.1 L678.1,300.5 L678.4,300.5 L678.6,299.1 L678.8,301.8 L679.0,299.1 L679.2,299.1 L679.5,299.1 L679.7,300.5 L679.9,300.5 L680.1,300.5 L680.4,300.5 L680.6,300.5 L680.8,300.5 L681.0,300.5 L681.2,301.8 L681.5,301.8 L681.7,301.8 L681.9,301.8 L682.1,301.8 L682.3,301.8 L682.6,300.5 L682.8,301.8 L683.0,299.1 L683.2,300.5 L683.5,299.1 L683.7,301.8 L683.9,301.8 L684.1,292.3 L684.3,282.8 L684.6,271.9 L684.8,255.6 L685.0,243.3 L685.2,235.2 L685.5,228.4 L685.7,212.0 L685.9,208.0 L686.1,208.0 L686.3,184.8 L686.6,186.2 L686.8,178.0 L687.0,180.8 L687.2,164.4 L687.5,160.3 L687.7,156.3 L687.9,153.5 L688.1,146.7 L688.3,123.6 L688.6,145.4 L688.8,141.3 L689.0,116.8 L689.2,133.1 L689.5,112.7 L689.7,104.6 L689.9,130.4 L690.1,108.7 L690.3,112.7 L690.6,104.6 L690.8,131.8 L691.0,104.6 L691.2,100.5 L691.4,127.7 L691.7,103.2 L691.9,95.0 L692.1,92.3 L692.3,110.0 L692.6,105.9 L692.8,84.2 L693.0,107.3 L693.2,107.3 L693.4,107.3 L693.7,129.1 L693.9,95.0 L694.1,91.0 L694.3,126.3 L694.6,118.2 L694.8,130.4 L695.0,118.2 L695.2,119.5 L695.4,93.7 L695.7,125.0 L695.9,123.6 L696.1,126.3 L696.3,134.5 L696.6,93.7 L696.8,134.5 L697.0,119.5 L697.2,153.5 L697.4,127.7 L697.7,130.4 L697.9,159.0 L698.1,153.5 L698.3,176.7 L698.5,157.6 L698.8,172.6 L699.0,171.2 L699.2,169.9 L699.4,142.7 L699.7,164.4 L699.9,172.6 L700.1,154.9 L700.3,175.3 L700.5,195.7 L700.8,176.7 L701.0,174.0 L701.2,194.4 L701.4,191.6 L701.7,183.5 L701.9,187.6 L702.1,190.3 L702.3,202.5 L702.5,218.8 L702.8,190.3 L703.0,183.5 L703.2,180.8 L703.4,198.4 L703.7,193.0 L703.9,208.0 L704.1,179.4 L704.3,203.9 L704.5,210.7 L704.8,205.2 L705.0,217.5 L705.2,214.8 L705.4,228.4 L705.7,235.2 L705.9,216.1 L706.1,228.4 L706.3,220.2 L706.5,232.5 L706.8,250.1 L707.0,232.5 L707.2,251.5 L707.4,237.9 L707.6,244.7 L707.9,252.9 L708.1,259.7 L708.3,248.8 L708.5,247.4 L708.8,254.2 L709.0,251.5 L709.2,244.7 L709.4,221.6 L709.6,250.1 L709.9,239.3 L710.1,235.2 L710.3,239.3 L710.5,256.9 L710.8,247.4 L711.0,227.0 L711.2,248.8 L711.4,255.6 L711.6,250.1 L711.9,244.7 L712.1,252.9 L712.3,259.7 L712.5,247.4 L712.8,236.5 L713.0,250.1 L713.2,270.5 L713.4,258.3 L713.6,248.8 L713.9,259.7 L714.1,251.5 L714.3,263.7 L714.5,266.5 L714.7,262.4 L715.0,254.2 L715.2,263.7 L715.4,269.2 L715.6,271.9 L715.9,258.3 L716.1,248.8 L716.3,269.2 L716.5,254.2 L716.7,277.3 L717.0,267.8 L717.2,282.8 L717.4,285.5 L717.6,271.9 L717.9,285.5 L718.1,292.3 L718.3,288.2 L718.5,296.4 L718.7,292.3 L719.0,295.0 L719.2,291.0 L719.4,286.9 L719.6,276.0 L719.9,288.2 L720.1,301.8 L720.3,291.0 L720.5,295.0 L720.7,282.8 L721.0,296.4 L721.2,308.6 L721.4,295.0 L721.6,284.2 L721.8,295.0 L722.1,303.2 L722.3,288.2 L722.5,303.2 L722.7,300.5 L723.0,291.0 L723.2,307.3 L723.4,293.7 L723.6,284.2 L723.8,300.5 L724.1,301.8 L724.3,303.2 L724.5,310.0 L724.7,299.1 L725.0,311.4 L725.2,318.2 L725.4,305.9 L725.6,316.8 L725.8,318.2 L726.1,300.5 L726.3,316.8 L726.5,300.5 L726.7,293.7 L727.0,303.2 L727.2,305.9 L727.4,299.1 L727.6,297.8 L727.8,303.2 L728.1,315.4 L728.3,300.5 L728.5,316.8 L728.7,300.5 L729.0,307.3 L729.2,297.8 L729.4,295.0 L729.6,291.0 L729.8,301.8 L730.1,304.6 L730.3,297.8 L730.5,296.4 L730.7,308.6 L730.9,296.4 L731.2,307.3 L731.4,293.7 L731.6,296.4 L731.8,310.0 L732.1,296.4 L732.3,311.4 L732.5,308.6 L732.7,293.7 L732.9,296.4 L733.2,310.0 L733.4,296.4 L733.6,303.2 L733.8,315.4 L734.1,304.6 L734.3,305.9 L734.5,318.2 L734.7,304.6 L734.9,300.5 L735.2,316.8 L735.4,310.0 L735.6,296.4 L735.8,310.0 L736.1,297.8 L736.3,310.0 L736.5,311.4 L736.7,322.2 L736.9,308.6 L737.2,301.8 L737.4,315.4 L737.6,304.6 L737.8,318.2 L738.0,331.8 L738.3,314.1 L738.5,323.6 L738.7,310.0 L738.9,305.9 L739.2,315.4 L739.4,330.4 L739.6,314.1 L739.8,318.2 L740.0,304.6 L740.3,318.2 L740.5,334.5 L740.7,338.6 L740.9,322.2 L741.2,316.8 L741.4,310.0 L741.6,307.3 L741.8,315.4 L742.0,307.3 L742.3,307.3 L742.5,307.3 L742.7,301.8 L742.9,314.1 L743.2,319.5 L743.4,305.9 L743.6,308.6 L743.8,307.3 L744.0,304.6 L744.3,299.1 L744.5,312.7 L744.7,297.8 L744.9,304.6 L745.1,320.9 L745.4,304.6 L745.6,314.1 L745.8,319.5 L746.0,308.6 L746.3,300.5 L746.5,314.1 L746.7,308.6 L746.9,326.3 L747.1,308.6 L747.4,311.4 L747.6,323.6 L747.8,330.4 L748.0,316.8 L748.3,327.7 L748.5,318.2 L748.7,311.4 L748.9,310.0 L749.1,325.0 L749.4,308.6 L749.6,322.2 L749.8,310.0 L750.0,323.6 L750.3,323.6 L750.5,330.4 L750.7,318.2 L750.9,326.3 L751.1,338.6 L751.4,322.2 L751.6,310.0 L751.8,316.8 L752.0,305.9 L752.3,323.6 L752.5,335.8 L752.7,331.8 L752.9,318.2 L753.1,325.0 L753.4,338.6 L753.6,319.5 L753.8,329.0 L754.0,341.3 L754.2,327.7 L754.5,329.0 L754.7,333.1 L754.9,346.7 L755.1,325.0 L755.4,339.9 L755.6,350.8 L755.8,334.5 L756.0,350.8 L756.2,356.3 L756.5,342.7 L756.7,353.5 L756.9,371.2 L757.1,353.5 L757.4,356.3 L757.6,365.8 L757.8,348.1 L758.0,342.7 L758.2,363.1 L758.5,349.5 L758.7,354.9 L758.9,334.5 L759.1,348.1 L759.4,331.8 L759.6,344.0 L759.8,329.0 L760.0,331.8 L760.2,341.3 L760.5,345.4 L760.7,348.1 L760.9,333.1 L761.1,350.8 L761.3,335.8 L761.6,348.1 L761.8,327.7 L762.0,344.0 L762.2,329.0 L762.5,341.3 L762.7,334.5 L762.9,346.7 L763.1,333.1 L763.3,344.0 L763.6,345.4 L763.8,323.6 L764.0,342.7 L764.2,333.1 L764.5,320.9 L764.7,337.2 L764.9,319.5 L765.1,330.4 L765.3,316.8 L765.6,304.6 L765.8,310.0 L766.0,311.4 L766.2,311.4 L766.5,325.0 L766.7,337.2 L766.9,323.6 L767.1,325.0 L767.3,341.3 L767.6,322.2 L767.8,329.0 L768.0,312.7 L768.2,314.1 L768.4,327.7 L768.7,314.1 L768.9,323.6 L769.1,333.1 L769.3,345.4 L769.6,344.0 L769.8,327.7 L770.0,345.4 L770.2,325.0 L770.4,345.4 L770.7,327.7 L770.9,341.3 L771.1,326.3 L771.3,330.4 L771.6,342.7 L771.8,359.0 L772.0,363.1 L772.2,360.3 L772.4,353.5 L772.7,361.7 L772.9,346.7 L773.1,341.3 L773.3,354.9 L773.6,344.0 L773.8,326.3 L774.0,331.8 L774.2,341.3 L774.4,346.7 L774.7,357.6 L774.9,342.7 L775.1,364.4 L775.3,360.3 L775.6,378.0 L775.8,367.1 L776.0,372.6 L776.2,361.7 L776.4,352.2 L776.7,354.9 L776.9,365.8 L777.1,349.5 L777.3,363.1 L777.5,368.5 L777.8,349.5 L778.0,360.3 L778.2,345.4 L778.4,352.2 L778.7,354.9 L778.9,341.3 L779.1,352.2 L779.3,360.3 L779.5,371.2 L779.8,364.4 L780.0,361.7 L780.2,363.1 L780.4,367.1 L780.7,350.8 L780.9,353.5 L781.1,339.9 L781.3,349.5 L781.5,346.7 L781.8,353.5 L782.0,344.0 L782.2,357.6 L782.4,334.5 L782.7,346.7 L782.9,359.0 L783.1,360.3 L783.3,359.0 L783.5,345.4 L783.8,356.3 L784.0,353.5 L784.2,353.5 L784.4,352.2 L784.6,346.7 L784.9,352.2 L785.1,341.3 L785.3,349.5 L785.5,369.9 L785.8,357.6 L786.0,364.4 L786.2,356.3 L786.4,339.9 L786.6,360.3 L786.9,369.9 L787.1,367.1 L787.3,387.5 L787.5,360.3 L787.8,378.0 L788.0,360.3 L788.2,349.5 L788.4,364.4 L788.6,352.2 L788.9,360.3 L789.1,344.0 L789.3,335.8 L789.5,341.3 L789.8,353.5 L790.0,348.1 L790.2,339.9 L790.4,348.1 L790.6,361.7 L790.9,339.9 L791.1,349.5 L791.3,367.1 L791.5,360.3 L791.7,344.0 L792.0,333.1 L792.2,346.7 L792.4,357.6 L792.6,356.3 L792.9,352.2 L793.1,345.4 L793.3,350.8 L793.5,337.2 L793.7,341.3 L794.0,346.7 L794.2,367.1 L794.4,342.7 L794.6,364.4 L794.9,356.3 L795.1,341.3 L795.3,356.3 L795.5,348.1 L795.7,359.0 L796.0,364.4 L796.2,360.3 L796.4,357.6 L796.6,365.8 L796.9,341.3 L797.1,361.7 L797.3,360.3 L797.5,352.2 L797.7,337.2 L798.0,348.1 L798.2,339.9 L798.4,330.4 L798.6,335.8 L798.9,348.1 L799.1,349.5 L799.3,339.9 L799.5,342.7 L799.7,353.5 L800.0,344.0 L800.2,349.5 L800.4,361.7 L800.6,345.4 L800.8,359.0 L801.1,345.4 L801.3,359.0 L801.5,335.8 L801.7,346.7 L802.0,353.5 L802.2,348.1 L802.4,337.2 L802.6,345.4 L802.8,365.8 L803.1,339.9 L803.3,360.3 L803.5,338.6 L803.7,344.0 L804.0,359.0 L804.2,352.2 L804.4,348.1 L804.6,367.1 L804.8,368.5 L805.1,352.2 L805.3,353.5 L805.5,348.1 L805.7,335.8 L806.0,339.9 L806.2,339.9 L806.4,331.8 L806.6,346.7 L806.8,338.6 L807.1,323.6 L807.3,338.6 L807.5,345.4 L807.7,326.3 L807.9,341.3 L808.2,320.9 L808.4,339.9 L808.6,318.2 L808.8,315.4 L809.1,326.3 L809.3,327.7 L809.5,319.5 L809.7,333.1 L809.9,331.8 L810.2,322.2 L810.4,331.8 L810.6,323.6 L810.8,337.2 L811.1,345.4 L811.3,352.2 L811.5,334.5 L811.7,323.6 L811.9,334.5 L812.2,337.2 L812.4,331.8 L812.6,348.1 L812.8,326.3 L813.1,344.0 L813.3,323.6 L813.5,341.3 L813.7,326.3 L813.9,312.7 L814.2,327.7 L814.4,337.2 L814.6,337.2 L814.8,333.1 L815.0,326.3 L815.3,319.5 L815.5,333.1 L815.7,319.5 L815.9,333.1 L816.2,327.7 L816.4,316.8 L816.6,334.5 L816.8,315.4 L817.0,330.4 L817.3,315.4 L817.5,320.9 L817.7,320.9 L817.9,334.5 L818.2,335.8 L818.4,337.2 L818.6,319.5 L818.8,320.9 L819.0,334.5 L819.3,320.9 L819.5,327.7 L819.7,341.3 L819.9,323.6 L820.2,327.7 L820.4,314.1 L820.6,315.4 L820.8,312.7 L821.0,329.0 L821.3,314.1 L821.5,299.1 L821.7,311.4 L821.9,316.8 L822.2,301.8 L822.4,316.8 L822.6,305.9 L822.8,318.2 L823.0,308.6 L823.3,319.5 L823.5,308.6 L823.7,319.5 L823.9,314.1 L824.1,315.4 L824.4,308.6 L824.6,320.9 L824.8,320.9 L825.0,305.9 L825.3,314.1 L825.5,327.7 L825.7,319.5 L825.9,307.3 L826.1,322.2 L826.4,305.9 L826.6,319.5 L826.8,327.7 L827.0,325.0 L827.3,312.7 L827.5,323.6 L827.7,311.4 L827.9,325.0 L828.1,318.2 L828.4,329.0 L828.6,314.1 L828.8,326.3 L829.0,341.3 L829.3,323.6 L829.5,320.9 L829.7,330.4 L829.9,334.5 L830.1,322.2 L830.4,331.8 L830.6,333.1 L830.8,342.7 L831.0,329.0 L831.2,339.9 L831.5,349.5 L831.7,335.8 L831.9,327.7 L832.1,345.4 L832.4,331.8 L832.6,329.0 L832.8,327.7 L833.0,337.2 L833.2,325.0 L833.5,320.9 L833.7,318.2 L833.9,330.4 L834.1,318.2 L834.4,327.7 L834.6,323.6 L834.8,314.1 L835.0,326.3 L835.2,312.7 L835.5,325.0 L835.7,311.4 L835.9,319.5 L836.1,310.0 L836.4,322.2 L836.6,318.2 L836.8,301.8 L837.0,303.2 L837.2,305.9 L837.5,315.4 L837.7,304.6 L837.9,319.5 L838.1,311.4 L838.3,325.0 L838.6,310.0 L838.8,322.2 L839.0,312.7 L839.2,311.4 L839.5,312.7 L839.7,320.9 L839.9,310.0 L840.1,319.5 L840.3,334.5 L840.6,319.5 L840.8,323.6 L841.0,325.0 L841.2,314.1 L841.5,311.4 L841.7,323.6 L841.9,320.9 L842.1,322.2 L842.3,327.7 L842.6,335.8 L842.8,330.4 L843.0,314.1 L843.2,330.4 L843.5,316.8 L843.7,312.7 L843.9,330.4 L844.1,312.7 L844.3,327.7 L844.6,326.3 L844.8,312.7 L845.0,326.3 L845.2,327.7 L845.5,315.4 L845.7,316.8 L845.9,314.1 L846.1,314.1 L846.3,330.4 L846.6,326.3 L846.8,308.6 L847.0,322.2 L847.2,310.0 L847.4,308.6 L847.7,327.7 L847.9,312.7 L848.1,314.1 L848.3,318.2 L848.6,322.2 L848.8,329.0 L849.0,314.1 L849.2,312.7 L849.4,327.7 L849.7,318.2 L849.9,307.3 L850.1,307.3 L850.3,307.3 L850.6,320.9 L850.8,315.4 L851.0,314.1 L851.2,301.8 L851.4,314.1 L851.7,300.5 L851.9,307.3 L852.1,316.8 L852.3,319.5 L852.6,326.3 L852.8,314.1 L853.0,325.0 L853.2,315.4 L853.4,322.2 L853.7,308.6 L853.9,315.4 L854.1,320.9 L854.3,318.2 L854.5,326.3 L854.8,325.0 L855.0,318.2 L855.2,329.0 L855.4,323.6 L855.7,314.1 L855.9,307.3 L856.1,311.4 L856.3,325.0 L856.5,326.3 L856.8,323.6 L857.0,310.0 L857.2,312.7 L857.4,312.7 L857.7,326.3 L857.9,310.0 L858.1,314.1 L858.3,316.8 L858.5,323.6 L858.8,318.2 L859.0,322.2 L859.2,322.2 L859.4,308.6 L859.7,318.2 L859.9,308.6 L860.1,303.2 L860.3,318.2 L860.5,303.2 L860.8,315.4 L861.0,303.2 L861.2,297.8 L861.4,299.1 L861.7,307.3 L861.9,300.5 L862.1,307.3 L862.3,310.0 L862.5,303.2 L862.8,307.3 L863.0,301.8 L863.2,305.9 L863.4,315.4 L863.6,300.5 L863.9,314.1 L864.1,301.8 L864.3,310.0 L864.5,295.0 L864.8,311.4 L865.0,304.6 L865.2,295.0 L865.4,308.6 L865.6,295.0 L865.9,292.3 L866.1,304.6 L866.3,314.1 L866.5,312.7 L866.8,300.5 L867.0,296.4 L867.2,289.6 L867.4,293.7 L867.6,292.3 L867.9,301.8 L868.1,304.6 L868.3,304.6 L868.5,299.1 L868.8,307.3 L869.0,295.0 L869.2,304.6 L869.4,308.6 L869.6,299.1 L869.9,307.3 L870.1,311.4 L870.3,296.4 L870.5,311.4 L870.7,297.8 L871.0,310.0 L871.2,296.4 L871.4,299.1 L871.6,310.0 L871.9,304.6 L872.1,300.5 L872.3,310.0 L872.5,301.8 L872.7,304.6 L873.0,296.4 L873.2,299.1 L873.4,314.1 L873.6,297.8 L873.9,296.4 L874.1,299.1 L874.3,291.0 L874.5,299.1 L874.7,303.2 L875.0,305.9 L875.2,303.2 L875.4,314.1 L875.6,301.8 L875.9,297.8 L876.1,282.8 L876.3,300.5 L876.5,292.3 L876.7,284.2 L877.0,299.1 L877.2,297.8 L877.4,296.4 L877.6,303.2 L877.8,307.3 L878.1,301.8 L878.3,299.1 L878.5,285.5 L878.7,299.1 L879.0,289.6 L879.2,291.0 L879.4,300.5 L879.6,308.6 L879.8,303.2 L880.1,300.5 L880.3,295.0 L880.5,299.1 L880.7,295.0 L881.0,295.0 L881.2,285.5 L881.4,301.8 L881.6,303.2 L881.8,297.8 L882.1,300.5 L882.3,291.0 L882.5,291.0 L882.7,301.8 L883.0,291.0 L883.2,286.9 L883.4,295.0 L883.6,293.7 L883.8,288.2 L884.1,301.8 L884.3,296.4 L884.5,297.8 L884.7,303.2 L885.0,291.0 L885.2,297.8 L885.4,304.6 L885.6,301.8 L885.8,299.1 L886.1,297.8 L886.3,297.8 L886.5,301.8 L886.7,300.5 L886.9,285.5 L887.2,293.7 L887.4,303.2 L887.6,295.0 L887.8,292.3 L888.1,304.6 L888.3,291.0 L888.5,304.6 L888.7,300.5 L888.9,292.3 L889.2,291.0 L889.4,282.8 L889.6,300.5 L889.8,284.2 L890.1,296.4 L890.3,292.3 L890.5,285.5 L890.7,280.1 L890.9,288.2 L891.2,299.1 L891.4,299.1 L891.6,307.3 L891.8,293.7 L892.1,293.7 L892.3,305.9 L892.5,297.8 L892.7,300.5 L892.9,288.2 L893.2,282.8 L893.4,300.5 L893.6,284.2 L893.8,295.0 L894.0,291.0 L894.3,285.5 L894.5,282.8 L894.7,296.4 L894.9,288.2 L895.2,303.2 L895.4,286.9 L895.6,278.7 L895.8,286.9 L896.0,292.3 L896.3,299.1 L896.5,285.5 L896.7,301.8 L896.9,291.0 L897.2,284.2 L897.4,295.0 L897.6,286.9 L897.8,278.7 L898.0,288.2 L898.3,301.8 L898.5,288.2 L898.7,288.2 L898.9,297.8 L899.2,282.8 L899.4,299.1 L899.6,291.0 L899.8,297.8 L900.0,297.8 L900.3,289.6 L900.5,303.2 L900.7,289.6 L900.9,304.6 L901.1,308.6 L901.4,303.2 L901.6,297.8 L901.8,288.2 L902.0,300.5 L902.3,307.3 L902.5,295.0 L902.7,304.6 L902.9,295.0 L903.1,310.0 L903.4,300.5 L903.6,308.6 L903.8,314.1 L904.0,303.2 L904.3,303.2 L904.5,289.6 L904.7,297.8 L904.9,289.6 L905.1,289.6 L905.4,303.2 L905.6,299.1 L905.8,311.4 L906.0,296.4 L906.3,301.8 L906.5,293.7 L906.7,285.5 L906.9,299.1 L907.1,288.2 L907.4,297.8 L907.6,289.6 L907.8,299.1 L908.0,296.4 L908.3,297.8 L908.5,297.8 L908.7,307.3 L908.9,296.4 L909.1,303.2 L909.4,292.3 L909.6,285.5 L909.8,300.5 L910.0,288.2 L910.2,305.9 L910.5,300.5 L910.7,296.4 L910.9,289.6 L911.1,297.8 L911.4,304.6 L911.6,288.2 L911.8,301.8 L912.0,300.5 L912.2,300.5 L912.5,305.9 L912.7,295.0 L912.9,284.2 L913.1,300.5 L913.4,286.9 L913.6,281.4 L913.8,276.0 L914.0,293.7 L914.2,281.4 L914.5,291.0 L914.7,285.5 L914.9,271.9 L915.1,284.2 L915.4,289.6 L915.6,276.0 L915.8,292.3 L916.0,286.9 L916.2,280.1 L916.5,286.9 L916.7,296.4 L916.9,280.1 L917.1,280.1 L917.3,296.4 L917.6,281.4 L917.8,288.2 L918.0,281.4 L918.2,291.0 L918.5,277.3 L918.7,292.3 L918.9,299.1 L919.1,289.6 L919.3,300.5 L919.6,297.8 L919.8,292.3 L920.0,282.8 L920.2,292.3 L920.5,305.9 L920.7,293.7 L920.9,305.9 L921.1,297.8 L921.3,282.8 L921.6,299.1 L921.8,289.6 L922.0,300.5 L922.2,299.1 L922.5,295.0 L922.7,284.2 L922.9,296.4 L923.1,288.2 L923.3,297.8 L923.6,296.4 L923.8,284.2 L924.0,296.4 L924.2,301.8 L924.4,288.2 L924.7,297.8 L924.9,291.0 L925.1,296.4 L925.3,296.4 L925.6,297.8 L925.8,282.8 L926.0,300.5 L926.2,301.8 L926.4,308.6 L926.7,308.6 L926.9,307.3 L927.1,293.7 L927.3,310.0 L927.6,295.0 L927.8,286.9 L928.0,301.8 L928.2,304.6 L928.4,292.3 L928.7,304.6 L928.9,303.2 L929.1,299.1 L929.3,301.8 L929.6,307.3 L929.8,292.3 L930.0,305.9 L930.2,301.8 L930.4,308.6 L930.7,293.7 L930.9,307.3 L931.1,303.2 L931.3,307.3 L931.6,301.8 L931.8,308.6 L932.0,315.4 L932.2,303.2 L932.4,304.6 L932.7,295.0 L932.9,307.3 L933.1,291.0 L933.3,305.9 L933.5,301.8 L933.8,315.4 L934.0,301.8 L934.2,316.8 L934.4,308.6 L934.7,323.6 L934.9,305.9 L935.1,318.2 L935.3,304.6 L935.5,320.9 L935.8,310.0 L936.0,308.6 L936.2,308.6 L936.4,319.5 L936.7,305.9 L936.9,312.7 L937.1,307.3 L937.3,292.3 L937.5,307.3 L937.8,300.5 L938.0,289.6 L938.2,286.9 L938.4,296.4 L938.7,286.9 L938.9,293.7 L939.1,284.2 L939.3,295.0 L939.5,278.7 L939.8,289.6 L940.0,295.0 L940.2,299.1 L940.4,299.1 L940.6,295.0 L940.9,296.4 L941.1,297.8 L941.3,286.9 L941.5,300.5 L941.8,288.2 L942.0,293.7 L942.2,282.8 L942.4,297.8 L942.6,280.1 L942.9,291.0 L943.1,292.3 L943.3,286.9 L943.5,297.8 L943.8,282.8 L944.0,286.9 L944.2,293.7 L944.4,286.9 L944.6,278.7 L944.9,288.2 L945.1,303.2 L945.3,292.3 L945.5,303.2 L945.8,289.6 L946.0,295.0 L946.2,280.1 L946.4,296.4 L946.6,292.3 L946.9,280.1 L947.1,295.0 L947.3,278.7 L947.5,292.3 L947.7,288.2 L948.0,292.3 L948.2,304.6 L948.4,288.2 L948.6,296.4 L948.9,281.4 L949.1,297.8 L949.3,292.3 L949.5,304.6 L949.7,299.1 L950.0,296.4 L950.2,285.5 L950.4,293.7 L950.6,304.6 L950.9,299.1 L951.1,301.8 L951.3,295.0 L951.5,303.2 L951.7,291.0 L952.0,305.9 L952.2,297.8 L952.4,303.2 L952.6,296.4 L952.9,286.9 L953.1,291.0 L953.3,303.2 L953.5,297.8 L953.7,299.1 L954.0,312.7 L954.2,297.8 L954.4,300.5 L954.6,310.0 L954.9,307.3 L955.1,295.0 L955.3,307.3 L955.5,305.9 L955.7,305.9 L956.0,300.5 L956.2,308.6 L956.4,301.8 L956.6,285.5 L956.8,300.5 L957.1,285.5 L957.3,300.5 L957.5,295.0 L957.7,282.8 L958.0,293.7 L958.2,286.9 L958.4,295.0 L958.6,293.7 L958.8,293.7 L959.1,301.8 L959.3,300.5 L959.5,285.5 L959.7,300.5 L960.0,286.9 L960.2,300.5 L960.4,293.7 L960.6,295.0 L960.8,293.7 L961.1,295.0 L961.3,292.3 L961.5,303.2 L961.7,292.3 L962.0,305.9 L962.2,291.0 L962.4,307.3 L962.6,304.6 L962.8,297.8 L963.1,281.4 L963.3,295.0 L963.5,295.0 L963.7,284.2 L963.9,300.5 L964.2,297.8 L964.4,289.6 L964.6,293.7 L964.8,292.3 L965.1,278.7 L965.3,296.4 L965.5,281.4 L965.7,284.2 L965.9,297.8 L966.2,284.2 L966.4,281.4 L966.6,297.8 L966.8,296.4 L967.1,282.8 L967.3,286.9 L967.5,288.2 L967.7,293.7 L967.9,281.4 L968.2,296.4 L968.4,300.5 L968.6,291.0 L968.8,289.6 L969.1,303.2 L969.3,295.0 L969.5,303.2 L969.7,292.3 L969.9,304.6 L970.2,293.7 L970.4,291.0 L970.6,286.9 L970.8,281.4 L971.0,299.1 L971.3,284.2 L971.5,293.7 L971.7,293.7 L971.9,308.6 L972.2,295.0 L972.4,307.3 L972.6,293.7 L972.8,301.8 L973.0,305.9 L973.3,319.5 L973.5,304.6 L973.7,318.2 L973.9,308.6 L974.2,304.6 L974.4,318.2 L974.6,303.2 L974.8,311.4 L975.0,323.6 L975.3,319.5 L975.5,307.3 L975.7,310.0 L975.9,316.8 L976.2,304.6 L976.4,316.8 L976.6,305.9 L976.8,300.5 L977.0,304.6 L977.3,304.6 L977.5,305.9 L977.7,310.0 L977.9,310.0 L978.2,316.8 L978.4,320.9 L978.6,315.4 L978.8,305.9 L979.0,310.0 L979.3,315.4 L979.5,297.8 L979.7,312.7 L979.9,323.6 L980.1,307.3 L980.4,322.2 L980.6,305.9 L980.8,315.4 L981.0,304.6 L981.3,301.8 L981.5,312.7 L981.7,300.5 L981.9,315.4 L982.1,300.5 L982.4,311.4 L982.6,308.6 L982.8,325.0 L983.0,305.9 L983.3,318.2 L983.5,329.0 L983.7,346.7 L983.9,353.5 L984.1,367.1 L984.4,384.8 L984.6,382.1 L984.8,388.9 L985.0,408.0 L985.3,406.6 L985.5,432.4 L985.7,427.0 L985.9,432.4 L986.1,425.6 L986.4,458.3 L986.6,439.2 L986.8,456.9 L987.0,465.1 L987.2,470.5 L987.5,461.0 L987.7,469.2 L987.9,489.6 L988.1,462.4 L988.4,463.7 L988.6,474.6 L988.8,500.5 L989.0,469.2 L989.2,482.8 L989.5,470.5 L989.7,476.0 L989.9,484.1 L990.1,485.5 L990.4,511.3 L990.6,501.8 L990.8,503.2 L991.0,489.6 L991.2,484.1 L991.5,527.7 L991.7,516.8 L991.9,503.2 L992.1,488.2 L992.4,520.9 L992.6,504.5 L992.8,518.2 L993.0,510.0 L993.2,511.3 L993.5,510.0 L993.7,533.1 L993.9,490.9 L994.1,516.8 L994.3,511.3 L994.6,526.3 L994.8,511.3 L995.0,531.8 L995.2,525.0 L995.5,505.9 L995.7,516.8 L995.9,529.0 L996.1,519.5 L996.3,526.3 L996.6,519.5 L996.8,507.3 L997.0,530.4 L997.2,529.0 L997.5,530.4 L997.7,490.9 L997.9,495.0 L998.1,496.4 L998.3,512.7 L998.6,523.6 L998.8,522.2 L999.0,527.7 L999.2,534.5 L999.5,522.2 L999.7,503.2 L999.9,534.5 L1000.1,503.2 L1000.3,531.8 L1000.6,504.5 L1000.8,527.7 L1001.0,503.2 L1001.2,510.0 L1001.5,512.7 L1001.7,530.4 L1001.9,511.3 L1002.1,503.2 L1002.3,534.5 L1002.6,510.0 L1002.8,508.6 L1003.0,514.1 L1003.2,495.0 L1003.4,500.5 L1003.7,504.5 L1003.9,544.0 L1004.1,531.8 L1004.3,497.7 L1004.6,496.4 L1004.8,537.2 L1005.0,523.6 L1005.2,533.1 L1005.4,489.6 L1005.7,530.4 L1005.9,496.4 L1006.1,512.7 L1006.3,505.9 L1006.6,519.5 L1006.8,518.2 L1007.0,523.6 L1007.2,500.5 L1007.4,525.0 L1007.7,514.1 L1007.9,499.1 L1008.1,539.9 L1008.3,530.4 L1008.6,495.0 L1008.8,500.5 L1009.0,537.2 L1009.2,490.9 L1009.4,534.5 L1009.7,500.5 L1009.9,503.2 L1010.1,488.2 L1010.3,535.8 L1010.5,497.7 L1010.8,520.9 L1011.0,501.8 L1011.2,495.0 L1011.4,490.9 L1011.7,530.4 L1011.9,495.0 L1012.1,495.0 L1012.3,500.5 L1012.5,534.5 L1012.8,486.9 L1013.0,531.8 L1013.2,514.1 L1013.4,516.8 L1013.7,501.8 L1013.9,526.3 L1014.1,518.2 L1014.3,525.0 L1014.5,507.3 L1014.8,499.1 L1015.0,523.6 L1015.2,529.0 L1015.4,518.2 L1015.7,505.9 L1015.9,523.6 L1016.1,505.9 L1016.3,511.3 L1016.5,538.6 L1016.8,489.6 L1017.0,501.8 L1017.2,499.1 L1017.4,522.2 L1017.7,533.1 L1017.9,525.0 L1018.1,515.4 L1018.3,515.4 L1018.5,530.4 L1018.8,495.0 L1019.0,497.7 L1019.2,497.7 L1019.4,522.2 L1019.6,496.4 L1019.9,511.3 L1020.1,497.7 L1020.3,520.9 L1020.5,529.0 L1020.8,518.2 L1021.0,537.2 L1021.2,497.7 L1021.4,515.4 L1021.6,510.0 L1021.9,510.0 L1022.1,520.9 L1022.3,523.6 L1022.5,531.8 L1022.8,518.2 L1023.0,522.2 L1023.2,495.0 L1023.4,500.5 L1023.6,526.3 L1023.9,525.0 L1024.1,495.0 L1024.3,535.8 L1024.5,523.6 L1024.8,527.7 L1025.0,500.5 L1025.2,534.5 L1025.4,526.3 L1025.6,525.0 L1025.9,514.1 L1026.1,526.3 L1026.3,514.1 L1026.5,526.3 L1026.7,522.2 L1027.0,527.7 L1027.2,526.3 L1027.4,504.5 L1027.6,537.2 L1027.9,515.4 L1028.1,516.8 L1028.3,507.3 L1028.5,541.3 L1028.7,507.3 L1029.0,511.3 L1029.2,529.0 L1029.4,493.7 L1029.6,504.5 L1029.9,523.6 L1030.1,499.1 L1030.3,519.5 L1030.5,533.1 L1030.7,493.7 L1031.0,533.1 L1031.2,489.6 L1031.4,527.7 L1031.6,505.9 L1031.9,495.0 L1032.1,505.9 L1032.3,493.7 L1032.5,500.5 L1032.7,534.5 L1033.0,488.2 L1033.2,512.7 L1033.4,499.1 L1033.6,514.1 L1033.8,527.7 L1034.1,492.3 L1034.3,525.0 L1034.5,488.2 L1034.7,510.0 L1035.0,526.3 L1035.2,495.0 L1035.4,496.4 L1035.6,530.4 L1035.8,511.3 L1036.1,499.1 L1036.3,496.4 L1036.5,534.5 L1036.7,488.2 L1037.0,508.6 L1037.2,508.6 L1037.4,518.2 L1037.6,503.2 L1037.8,499.1 L1038.1,534.5 L1038.3,501.8 L1038.5,527.7 L1038.7,495.0 L1039.0,511.3 L1039.2,520.9 L1039.4,497.7 L1039.6,501.8 L1039.8,510.0 L1040.1,493.7 L1040.3,520.9 L1040.5,495.0 L1040.7,510.0 L1041.0,522.2 L1041.2,480.1 L1041.4,519.5 L1041.6,488.2 L1041.8,505.9 L1042.1,499.1 L1042.3,471.9 L1042.5,474.6 L1042.7,493.7 L1042.9,482.8 L1043.2,515.4 L1043.4,470.5 L1043.6,480.1 L1043.8,476.0 L1044.1,507.3 L1044.3,489.6 L1044.5,482.8 L1044.7,489.6 L1044.9,492.3 L1045.2,492.3 L1045.4,527.7 L1045.6,514.1 L1045.8,485.5 L1046.1,520.9 L1046.3,486.9 L1046.5,527.7 L1046.7,489.6 L1046.9,496.4 L1047.2,500.5 L1047.4,474.6 L1047.6,484.1 L1047.8,508.6 L1048.1,488.2 L1048.3,505.9 L1048.5,510.0 L1048.7,495.0 L1048.9,516.8 L1049.2,499.1 L1049.4,503.2 L1049.6,505.9 L1049.8,512.7 L1050.0,493.7 L1050.3,511.3 L1050.5,504.5 L1050.7,499.1 L1050.9,514.1 L1051.2,481.4 L1051.4,503.2 L1051.6,518.2 L1051.8,488.2 L1052.0,480.1 L1052.3,497.7 L1052.5,473.3 L1052.7,471.9 L1052.9,484.1 L1053.2,478.7 L1053.4,477.3 L1053.6,488.2 L1053.8,496.4 L1054.0,495.0 L1054.3,497.7 L1054.5,485.5 L1054.7,486.9 L1054.9,495.0 L1055.2,489.6 L1055.4,484.1 L1055.6,466.5 L1055.8,503.2 L1056.0,462.4 L1056.3,505.9 L1056.5,463.7 L1056.7,486.9 L1056.9,446.0 L1057.1,448.8 L1057.4,466.5 L1057.6,456.9 L1057.8,448.8 L1058.0,440.6 L1058.3,456.9 L1058.5,439.2 L1058.7,466.5 L1058.9,425.6 L1059.1,446.0 L1059.4,439.2 L1059.6,417.5 L1059.8,437.9 L1060.0,442.0 L1060.3,429.7 L1060.5,440.6 L1060.7,447.4 L1060.9,431.1 L1061.1,456.9 L1061.4,432.4 L1061.6,444.7 L1061.8,435.2 L1062.0,458.3 L1062.3,436.5 L1062.5,469.2 L1062.7,444.7 L1062.9,421.6 L1063.1,444.7 L1063.4,459.7 L1063.6,446.0 L1063.8,431.1 L1064.0,397.1 L1064.3,429.7 L1064.5,403.9 L1064.7,387.5 L1064.9,403.9 L1065.1,395.7 L1065.4,394.3 L1065.6,413.4 L1065.8,384.8 L1066.0,393.0 L1066.2,382.1 L1066.5,397.1 L1066.7,371.2 L1066.9,394.3 L1067.1,398.4 L1067.4,382.1 L1067.6,363.1 L1067.8,338.6 L1068.0,354.9 L1068.2,338.6 L1068.5,322.2 L1068.7,341.3 L1068.9,326.3 L1069.1,338.6 L1069.4,319.5 L1069.6,305.9 L1069.8,322.2 L1070.0,304.6 L1070.2,289.6 L1070.5,281.4 L1070.7,262.4 L1070.9,256.9 L1071.1,242.0 L1071.4,259.7 L1071.6,243.3 L1071.8,232.5 L1072.0,231.1 L1072.2,203.9 L1072.5,227.0 L1072.7,222.9 L1072.9,213.4 L1073.1,191.6 L1073.3,201.2 L1073.6,179.4 L1073.8,168.5 L1074.0,172.6 L1074.2,161.7 L1074.5,154.9 L1074.7,141.3 L1074.9,153.5 L1075.1,126.3 L1075.3,160.3 L1075.6,133.1 L1075.8,137.2 L1076.0,120.9 L1076.2,139.9 L1076.5,119.5 L1076.7,131.8 L1076.9,129.1 L1077.1,134.5 L1077.3,125.0 L1077.6,95.0 L1077.8,118.2 L1078.0,99.1 L1078.2,129.1 L1078.5,110.0 L1078.7,126.3 L1078.9,112.7 L1079.1,97.8 L1079.3,85.5 L1079.6,91.0 L1079.8,97.8 L1080.0,78.7 L1080.2,120.9 L1080.4,115.5 L1080.7,97.8 L1080.9,89.6 L1081.1,76.0 L1081.3,108.7 L1081.6,114.1 L1081.8,80.1 L1082.0,111.4 L1082.2,81.4 L1082.4,116.8 L1082.7,123.6 L1082.9,142.7 L1083.1,139.9 L1083.3,150.8 L1083.6,178.0 L1083.8,169.9 L1084.0,197.1" fill="none" stroke="#ff7f0e" stroke-width="1.1" opacity="0.85"/><text x="616" y="572" font-size="11" fill="#888">time 0..42 s — altitude (blue) &amp; roll (orange)</text></svg>