<svg xmlns="http://www.w3.org/2000/svg" width="1140" height="600" font-family="sans-serif" font-size="13"><rect width="1140" height="600" fill="white"/><text x="20" y="26" font-size="15" fill="#333">TMS-7 F15 — sensor noise 10%</text><rect x="20" y="40" width="540" height="540" fill="#fbfbfb" stroke="#ddd"/><rect x="50" y="302" width="318" height="68" fill="#cde" stroke="#369" opacity="0.7"/><text x="50" y="297" fill="#369" font-size="12">landing zone</text><circle cx="251" cy="409" r="5" fill="black"/><text x="259" y="413" font-size="12">pad</text><path d="M250.8,408.6 L250.8,408.6 L250.8,408.6 L250.8,408.6 L250.8,408.6 L250.8,408.6 L250.8,408.6 L250.8,408.6 L250.8,408.6 L250.8,408.6 L250.8,408.6 L250.8,408.6 L250.8,408.6 L250.8,408.6 L250.8,408.6 L250.8,408.6 L250.8,408.6 L250.8,408.6 L250.8,408.6 L250.8,408.6 L250.8,408.6 L250.8,408.6 L250.8,408.6 L250.8,408.6 L250.8,408.6 L250.8,408.6 L250.8,408.6 L250.8,408.6 L250.8,408.6 L250.8,408.6 L250.8,408.6 L250.8,408.6 L250.8,408.6 L250.8,408.6 L250.8,408.6 L250.8,408.6 L250.8,408.6 L250.8,408.6 L250.8,408.6 L250.8,408.6 L250.8,408.6 L250.8,408.6 L250.8,408.6 L250.8,408.6 L250.8,408.6 L250.8,408.6 L250.8,408.6 L250.8,408.6 L250.8,408.6 L250.8,408.6 L250.8,408.6 L250.8,408.6 L250.8,408.6 L250.8,408.6 L250.8,408.6 L250.8,408.6 L250.8,408.6 L250.8,408.6 L252.0,406.5 L253.6,404.1 L254.9,401.6 L256.5,399.3 L258.2,396.9 L259.9,394.6 L261.6,392.3 L263.3,390.1 L265.2,387.8 L267.0,385.7 L268.9,383.6 L271.0,381.6 L273.0,379.7 L275.1,377.8 L277.3,375.7 L279.3,374.0 L281.6,372.1 L283.8,370.4 L286.0,368.5 L288.4,366.8 L290.6,365.1 L292.8,363.2 L294.9,361.3 L297.1,359.4 L299.1,357.6 L301.2,355.5 L303.1,353.4 L305.1,351.3 L306.8,349.2 L308.7,347.0 L310.4,344.7 L312.1,342.4 L313.6,340.0 L315.2,337.5 L316.7,335.1 L318.1,332.6 L319.4,330.1 L320.6,327.5 L321.8,324.8 L322.8,322.4 L323.9,319.5 L324.9,316.9 L325.7,314.3 L326.4,311.4 L327.3,308.8 L327.8,305.9 L328.5,303.1 L328.8,300.3 L329.3,297.4 L329.8,294.8 L330.4,291.9 L330.9,289.1 L331.4,286.3 L332.1,283.4 L332.7,280.8 L333.6,278.0 L334.5,275.3 L335.5,272.7 L336.5,270.0 L337.5,267.4 L338.7,264.7 L339.9,262.1 L341.3,259.6 L342.6,257.2 L344.0,254.7 L345.5,252.2 L347.1,249.8 L348.8,247.5 L350.5,245.2 L352.4,243.0 L354.1,240.9 L356.1,238.6 L358.0,236.5 L360.0,234.7 L362.1,232.6 L364.3,230.7 L366.4,229.0 L368.6,227.1 L371.0,225.4 L373.2,223.7 L375.6,222.2 L378.1,220.7 L380.5,219.3 L383.1,217.8 L385.6,216.5 L388.2,215.4 L390.8,214.2 L393.5,213.1 L396.1,212.2 L398.8,211.2 L401.5,210.5 L404.2,209.7 L407.0,208.9 L409.9,208.4 L412.6,207.8 L415.5,207.2 L418.2,206.9 L421.1,206.7 L423.9,206.5 L426.8,206.3 L429.7,206.3 L432.6,206.3 L435.3,206.3 L438.2,206.5 L441.1,206.9 L443.8,207.2 L446.7,207.6 L449.5,208.2 L452.4,208.8 L455.1,209.3 L457.8,210.1 L460.6,211.0 L463.3,212.0 L465.8,212.9 L468.6,213.9 L471.1,215.2 L473.7,216.3 L476.2,217.6 L478.8,219.0 L481.4,220.3 L483.8,221.8 L486.1,223.5 L488.4,225.0 L490.8,226.7 L493.0,228.6 L495.2,230.3 L497.2,232.2 L499.3,234.3 L501.3,236.2 L503.4,238.2 L505.3,240.5 L507.1,242.6 L508.8,244.9 L510.5,247.1 L512.3,249.4 L513.8,251.9 L515.3,254.3 L516.9,256.8 L518.2,259.2 L519.4,261.7 L520.8,264.3 L521.8,267.0 L523.0,269.6 L524.0,272.3 L524.9,274.9 L525.7,277.6 L526.6,280.4 L527.3,283.1 L528.0,285.9 L528.5,288.7 L528.8,291.6 L529.3,294.4 L529.7,297.2 L529.8,300.1 L530.0,302.9 L530.0,305.7 L530.0,308.6 L530.0,311.4 L529.8,314.3 L529.7,317.1 L529.3,319.9 L529.0,322.8 L528.5,325.6 L528.0,328.4 L527.3,331.3 L526.6,333.9 L525.9,336.8 L525.1,339.4 L524.0,342.2 L523.2,344.9 L522.2,347.5 L521.0,350.2 L519.8,352.6 L518.4,355.3 L517.2,357.7 L515.7,360.2 L514.3,362.7 L512.8,365.1 L511.1,367.6 L509.5,369.8 L507.8,372.1 L505.9,374.4 L504.1,376.5 L502.2,378.7 L500.3,380.8 L498.3,382.7 L496.2,384.8 L494.2,386.7 L491.9,388.6 L489.7,390.3 L487.5,392.0 L485.1,393.7 L482.7,395.4 L480.3,396.9 L478.0,398.4 L475.6,399.9 L473.0,401.2 L470.4,402.6 L467.9,403.7 L465.3,404.8 L462.6,406.0 L460.0,407.1 L457.3,408.0 L454.6,408.8 L451.8,409.7 L449.1,410.3 L446.4,411.1 L443.5,411.6 L440.8,412.2 L437.9,412.6 L435.1,413.0 L432.2,413.3 L429.5,413.5 L426.6,413.7 L423.7,413.7 L420.8,413.7 L418.4,413.7 L416.2,413.5 L413.8,413.5 L411.4,413.1 L409.0,413.0 L406.6,412.6 L404.2,412.4 L402.0,411.8 L399.6,411.4 L397.2,410.9 L395.0,410.3 L392.6,409.7 L390.4,409.2 L388.2,408.4 L385.8,407.7 L383.6,406.9 L381.4,406.0 L379.2,405.0 L377.1,404.1 L374.9,403.1 L372.7,402.0 L370.6,401.0 L368.6,399.9 L366.5,398.6 L364.5,397.4 L362.4,396.1 L360.4,394.8 L358.5,393.5 L356.5,392.2 L354.6,390.6 L352.7,389.3 L351.0,387.8 L349.1,386.3 L347.4,384.6" fill="none" stroke="#1f77b4" stroke-width="1.7" opacity="0.85"/><circle cx="347" cy="385" r="4.5" fill="#1f77b4"/><text x="28" y="572" font-size="11" fill="#888">ground track — m from pad (N up)</text><rect x="580" y="40" width="540" height="540" fill="#fbfbfb" stroke="#ddd"/><text x="586" y="54" fill="#1f77b4" font-size="11">alt 301</text><text x="586" y="558" fill="#1f77b4" font-size="11">2</text><path d="M616.0,544.0 L616.3,543.3 L616.5,543.9 L616.8,543.7 L617.1,543.7 L617.3,543.7 L617.6,542.9 L617.8,543.5 L618.1,543.0 L618.4,543.4 L618.6,542.9 L618.9,542.7 L619.2,542.1 L619.4,542.4 L619.7,542.1 L620.0,541.4 L620.2,541.8 L620.5,541.7 L620.8,541.2 L621.0,540.1 L621.3,539.7 L621.5,540.2 L621.8,540.2 L622.1,539.2 L622.3,538.4 L622.6,539.0 L622.9,538.0 L623.1,537.0 L623.4,538.6 L623.7,537.2 L623.9,537.2 L624.2,536.8 L624.5,535.7 L624.7,535.3 L625.0,535.8 L625.2,535.4 L625.5,535.0 L625.8,533.3 L626.0,533.1 L626.3,531.8 L626.6,532.3 L626.8,532.5 L627.1,530.1 L627.4,530.7 L627.6,530.1 L627.9,528.2 L628.2,529.6 L628.4,526.6 L628.7,525.1 L628.9,526.6 L629.2,523.2 L629.5,525.3 L629.7,520.9 L630.0,520.3 L630.3,522.1 L630.5,519.0 L630.8,518.1 L631.1,520.5 L631.3,517.6 L631.6,515.5 L631.9,514.5 L632.1,517.8 L632.4,516.5 L632.6,515.0 L632.9,511.9 L633.2,513.0 L633.4,514.4 L633.7,511.9 L634.0,510.4 L634.2,504.7 L634.5,503.0 L634.8,507.8 L635.0,505.9 L635.3,505.7 L635.6,502.6 L635.8,498.8 L636.1,497.9 L636.3,500.4 L636.6,496.9 L636.9,493.4 L637.1,493.9 L637.4,492.2 L637.7,495.7 L637.9,490.8 L638.2,490.1 L638.5,490.2 L638.7,492.2 L639.0,491.5 L639.3,490.4 L639.5,489.4 L639.8,479.8 L640.0,484.5 L640.3,481.4 L640.6,479.5 L640.8,483.3 L641.1,484.0 L641.4,482.6 L641.6,479.3 L641.9,472.3 L642.2,471.8 L642.4,470.6 L642.7,473.4 L643.0,465.4 L643.2,471.4 L643.5,461.5 L643.7,458.1 L644.0,466.4 L644.3,461.7 L644.5,460.3 L644.8,456.1 L645.1,446.2 L645.3,452.7 L645.6,449.9 L645.9,448.2 L646.1,453.4 L646.4,455.9 L646.7,455.0 L646.9,443.9 L647.2,446.9 L647.4,432.1 L647.7,428.7 L648.0,430.6 L648.2,429.2 L648.5,441.9 L648.8,433.4 L649.0,426.5 L649.3,434.5 L649.6,419.6 L649.8,416.0 L650.1,434.3 L650.4,421.8 L650.6,419.5 L650.9,418.8 L651.1,421.1 L651.4,410.1 L651.7,419.3 L651.9,412.4 L652.2,422.6 L652.5,417.1 L652.7,397.2 L653.0,401.9 L653.3,411.5 L653.5,387.3 L653.8,392.1 L654.1,392.4 L654.3,398.9 L654.6,382.5 L654.8,395.6 L655.1,403.6 L655.4,388.3 L655.6,395.2 L655.9,371.8 L656.2,381.8 L656.4,383.8 L656.7,368.0 L657.0,385.0 L657.2,378.6 L657.5,374.8 L657.8,380.5 L658.0,357.2 L658.3,370.0 L658.5,369.1 L658.8,348.2 L659.1,344.4 L659.3,355.5 L659.6,340.7 L659.9,361.8 L660.1,331.8 L660.4,331.6 L660.7,325.0 L660.9,320.8 L661.2,322.9 L661.5,354.6 L661.7,352.9 L662.0,344.6 L662.2,341.4 L662.5,340.6 L662.8,339.1 L663.0,304.2 L663.3,307.7 L663.6,336.1 L663.8,336.8 L664.1,327.4 L664.4,335.0 L664.6,324.5 L664.9,301.7 L665.2,298.6 L665.4,308.1 L665.7,312.2 L665.9,292.5 L666.2,276.8 L666.5,277.3 L666.7,301.2 L667.0,301.8 L667.3,296.3 L667.5,311.7 L667.8,304.9 L668.1,286.3 L668.3,291.2 L668.6,288.2 L668.9,255.1 L669.1,283.1 L669.4,262.5 L669.6,294.2 L669.9,278.2 L670.2,294.2 L670.4,243.5 L670.7,282.7 L671.0,258.3 L671.2,231.9 L671.5,261.3 L671.8,266.4 L672.0,236.9 L672.3,275.8 L672.6,267.3 L672.8,261.6 L673.1,249.5 L673.3,234.8 L673.6,221.5 L673.9,248.7 L674.1,234.7 L674.4,211.1 L674.7,241.5 L674.9,252.8 L675.2,205.2 L675.5,238.4 L675.7,201.7 L676.0,218.8 L676.3,200.5 L676.5,199.4 L676.8,205.9 L677.0,238.2 L677.3,219.3 L677.6,208.6 L677.8,243.0 L678.1,236.9 L678.4,187.9 L678.6,237.4 L678.9,189.9 L679.2,190.0 L679.4,207.8 L679.7,209.5 L680.0,180.9 L680.2,183.8 L680.5,176.8 L680.7,170.5 L681.0,222.2 L681.3,175.5 L681.5,224.6 L681.8,215.9 L682.1,174.5 L682.3,210.9 L682.6,221.3 L682.9,194.4 L683.1,219.3 L683.4,184.4 L683.6,192.8 L683.9,179.9 L684.2,213.4 L684.4,147.6 L684.7,160.6 L685.0,158.5 L685.2,165.7 L685.5,187.1 L685.8,202.9 L686.0,145.0 L686.3,196.0 L686.6,193.5 L686.8,151.8 L687.1,170.3 L687.3,142.7 L687.6,142.0 L687.9,119.1 L688.1,126.8 L688.4,144.0 L688.7,133.7 L688.9,160.9 L689.2,163.3 L689.5,115.5 L689.7,129.1 L690.0,169.9 L690.3,171.4 L690.5,107.3 L690.8,171.7 L691.0,104.4 L691.3,169.9 L691.6,165.9 L691.8,129.9 L692.1,153.1 L692.4,118.8 L692.6,121.2 L692.9,138.2 L693.2,172.9 L693.4,101.0 L693.7,168.6 L694.0,150.4 L694.2,95.0 L694.5,90.5 L694.7,167.3 L695.0,157.7 L695.3,106.2 L695.5,99.2 L695.8,138.5 L696.1,95.2 L696.3,99.5 L696.6,100.9 L696.9,155.5 L697.1,109.4 L697.4,79.3 L697.7,84.8 L697.9,112.3 L698.2,141.0 L698.4,118.9 L698.7,116.2 L699.0,80.6 L699.2,110.4 L699.5,94.1 L699.8,155.5 L700.0,124.3 L700.3,143.4 L700.6,118.0 L700.8,100.2 L701.1,90.2 L701.4,157.9 L701.6,86.1 L701.9,77.5 L702.1,146.7 L702.4,123.3 L702.7,148.4 L702.9,114.3 L703.2,122.0 L703.5,150.2 L703.7,76.0 L704.0,79.3 L704.3,114.2 L704.5,150.5 L704.8,148.2 L705.1,125.7 L705.3,78.2 L705.6,139.7 L705.8,117.1 L706.1,89.8 L706.4,150.1 L706.6,106.9 L706.9,118.6 L707.2,106.7 L707.4,120.6 L707.7,161.3 L708.0,140.8 L708.2,78.7 L708.5,144.1 L708.8,96.5 L709.0,100.1 L709.3,111.4 L709.5,86.3 L709.8,156.4 L710.1,124.0 L710.3,138.4 L710.6,159.6 L710.9,90.2 L711.1,131.5 L711.4,107.0 L711.7,77.9 L711.9,134.7 L712.2,144.7 L712.5,113.0 L712.7,94.6 L713.0,110.8 L713.2,160.5 L713.5,120.4 L713.8,143.9 L714.0,82.4 L714.3,125.2 L714.6,151.5 L714.8,130.4 L715.1,134.2 L715.4,140.3 L715.6,105.2 L715.9,145.0 L716.2,95.6 L716.4,82.4 L716.7,159.1 L716.9,109.9 L717.2,101.5 L717.5,101.8 L717.7,127.5 L718.0,142.8 L718.3,112.2 L718.5,114.3 L718.8,137.8 L719.1,149.2 L719.3,123.4 L719.6,148.4 L719.9,156.1 L720.1,132.9 L720.4,159.3 L720.6,106.3 L720.9,158.4 L721.2,85.1 L721.4,107.2 L721.7,162.8 L722.0,132.1 L722.2,90.6 L722.5,154.6 L722.8,109.5 L723.0,81.7 L723.3,133.1 L723.6,105.9 L723.8,94.3 L724.1,116.2 L724.3,121.6 L724.6,103.3 L724.9,152.9 L725.1,92.3 L725.4,154.3 L725.7,102.3 L725.9,133.0 L726.2,122.6 L726.5,154.3 L726.7,133.8 L727.0,146.1 L727.3,146.4 L727.5,131.1 L727.8,122.9 L728.0,104.4 L728.3,89.2 L728.6,161.8 L728.8,83.6 L729.1,96.5 L729.4,146.2 L729.6,97.7 L729.9,148.6 L730.2,139.2 L730.4,139.9 L730.7,107.2 L731.0,118.4 L731.2,110.7 L731.5,115.7 L731.7,87.5 L732.0,114.4 L732.3,138.0 L732.5,140.6 L732.8,154.0 L733.1,157.8 L733.3,148.5 L733.6,166.0 L733.9,86.4 L734.1,87.7 L734.4,134.8 L734.7,145.8 L734.9,114.4 L735.2,145.6 L735.4,112.5 L735.7,104.8 L736.0,119.3 L736.2,145.0 L736.5,102.5 L736.8,124.2 L737.0,161.7 L737.3,130.0 L737.6,118.3 L737.8,110.6 L738.1,143.8 L738.4,90.3 L738.6,155.4 L738.9,147.5 L739.1,107.8 L739.4,124.2 L739.7,113.9 L739.9,131.9 L740.2,93.0 L740.5,100.9 L740.7,134.0 L741.0,108.8 L741.3,95.4 L741.5,129.2 L741.8,92.8 L742.1,159.8 L742.3,135.0 L742.6,90.3 L742.8,128.5 L743.1,91.7 L743.4,119.1 L743.6,124.7 L743.9,91.9 L744.2,96.5 L744.4,108.5 L744.7,100.7 L745.0,118.1 L745.2,115.1 L745.5,114.4 L745.8,166.7 L746.0,120.7 L746.3,107.6 L746.5,168.4 L746.8,98.1 L747.1,132.4 L747.3,109.0 L747.6,100.3 L747.9,112.0 L748.1,100.7 L748.4,168.8 L748.7,148.1 L748.9,124.5 L749.2,131.9 L749.5,161.9 L749.7,101.2 L750.0,172.7 L750.2,105.8 L750.5,133.8 L750.8,166.8 L751.0,136.8 L751.3,103.7 L751.6,142.2 L751.8,129.9 L752.1,143.5 L752.4,166.4 L752.6,97.4 L752.9,173.5 L753.1,106.3 L753.4,139.4 L753.7,169.8 L753.9,128.0 L754.2,135.0 L754.5,152.1 L754.7,141.2 L755.0,175.1 L755.3,143.9 L755.5,174.1 L755.8,166.8 L756.1,123.5 L756.3,126.3 L756.6,139.0 L756.8,114.7 L757.1,99.8 L757.4,98.3 L757.6,171.2 L757.9,172.9 L758.2,99.3 L758.4,107.3 L758.7,140.8 L759.0,136.4 L759.2,176.3 L759.5,164.9 L759.8,109.5 L760.0,120.6 L760.3,106.1 L760.5,169.0 L760.8,146.5 L761.1,118.2 L761.3,145.0 L761.6,181.5 L761.9,107.0 L762.1,155.9 L762.4,162.0 L762.7,128.8 L762.9,109.8 L763.2,152.1 L763.5,179.7 L763.7,104.1 L764.0,132.6 L764.2,125.6 L764.5,140.8 L764.8,171.7 L765.0,140.3 L765.3,105.6 L765.6,141.5 L765.8,161.0 L766.1,175.8 L766.4,160.6 L766.6,133.3 L766.9,158.0 L767.2,129.0 L767.4,152.3 L767.7,133.6 L767.9,106.3 L768.2,138.6 L768.5,109.5 L768.7,117.6 L769.0,113.6 L769.3,166.5 L769.5,128.8 L769.8,158.3 L770.1,128.6 L770.3,113.2 L770.6,183.1 L770.9,167.0 L771.1,112.4 L771.4,183.9 L771.6,172.1 L771.9,122.7 L772.2,155.5 L772.4,113.6 L772.7,171.5 L773.0,125.2 L773.2,170.0 L773.5,182.1 L773.8,177.0 L774.0,136.7 L774.3,125.1 L774.6,114.2 L774.8,114.6 L775.1,140.8 L775.3,123.0 L775.6,135.9 L775.9,127.9 L776.1,174.8 L776.4,129.9 L776.7,168.0 L776.9,144.3 L777.2,164.9 L777.5,124.4 L777.7,168.1 L778.0,122.3 L778.3,172.0 L778.5,179.3 L778.8,136.9 L779.0,122.8 L779.3,167.4 L779.6,120.0 L779.8,167.9 L780.1,116.0 L780.4,164.4 L780.6,146.3 L780.9,163.3 L781.2,168.5 L781.4,176.1 L781.7,160.6 L782.0,194.1 L782.2,134.4 L782.5,181.1 L782.7,122.4 L783.0,159.2 L783.3,164.8 L783.5,157.5 L783.8,135.0 L784.1,121.7 L784.3,144.7 L784.6,137.2 L784.9,180.9 L785.1,175.6 L785.4,143.5 L785.7,194.7 L785.9,185.1 L786.2,190.6 L786.4,183.1 L786.7,135.6 L787.0,168.7 L787.2,158.2 L787.5,176.5 L787.8,194.6 L788.0,157.9 L788.3,181.1 L788.6,155.4 L788.8,187.0 L789.1,155.2 L789.4,196.5 L789.6,125.5 L789.9,139.3 L790.1,182.5 L790.4,168.0 L790.7,131.4 L790.9,181.1 L791.2,126.4 L791.5,135.7 L791.7,161.5 L792.0,154.3 L792.3,162.2 L792.5,186.6 L792.8,168.9 L793.1,137.5 L793.3,181.5 L793.6,166.9 L793.8,187.3 L794.1,184.7 L794.4,163.3 L794.6,152.6 L794.9,181.9 L795.2,175.0 L795.4,175.8 L795.7,192.5 L796.0,130.6 L796.2,139.4 L796.5,136.4 L796.8,191.0 L797.0,132.2 L797.3,204.2 L797.5,169.9 L797.8,194.0 L798.1,145.9 L798.3,145.5 L798.6,160.6 L798.9,203.6 L799.1,195.3 L799.4,196.1 L799.7,141.6 L799.9,151.5 L800.2,166.7 L800.5,168.3 L800.7,190.5 L801.0,198.3 L801.2,134.7 L801.5,142.8 L801.8,203.7 L802.0,183.9 L802.3,167.9 L802.6,139.8 L802.8,200.2 L803.1,171.9 L803.4,163.9 L803.6,189.2 L803.9,190.6 L804.2,195.0 L804.4,150.4 L804.7,156.0 L804.9,205.3 L805.2,167.1 L805.5,166.5 L805.7,202.4 L806.0,159.4 L806.3,208.8 L806.5,188.0 L806.8,204.2 L807.1,213.4 L807.3,181.5 L807.6,201.9 L807.9,189.9 L808.1,162.8 L808.4,204.0 L808.6,156.7 L808.9,199.6 L809.2,190.3 L809.4,204.3 L809.7,169.8 L810.0,148.0 L810.2,170.4 L810.5,154.9 L810.8,162.9 L811.0,199.9 L811.3,187.8 L811.6,187.4 L811.8,154.0 L812.1,160.0 L812.3,177.3 L812.6,188.9 L812.9,181.7 L813.1,206.2 L813.4,214.5 L813.7,215.7 L813.9,213.6 L814.2,218.0 L814.5,190.2 L814.7,180.0 L815.0,203.1 L815.3,155.4 L815.5,160.5 L815.8,212.2 L816.0,175.9 L816.3,199.4 L816.6,152.4 L816.8,184.0 L817.1,162.6 L817.4,154.7 L817.6,175.4 L817.9,175.0 L818.2,183.3 L818.4,220.3 L818.7,197.0 L818.9,168.4 L819.2,154.8 L819.5,200.9 L819.7,218.4 L820.0,167.2 L820.3,190.6 L820.5,213.9 L820.8,176.4 L821.1,192.7 L821.3,156.7 L821.6,217.1 L821.9,172.6 L822.1,181.0 L822.4,176.7 L822.6,187.1 L822.9,170.0 L823.2,198.0 L823.4,180.9 L823.7,199.1 L824.0,169.6 L824.2,218.2 L824.5,177.5 L824.8,164.9 L825.0,195.7 L825.3,189.7 L825.6,176.0 L825.8,176.8 L826.1,186.5 L826.3,213.0 L826.6,184.6 L826.9,229.4 L827.1,180.5 L827.4,166.1 L827.7,218.1 L827.9,202.7 L828.2,212.4 L828.5,199.4 L828.7,231.6 L829.0,198.3 L829.3,177.1 L829.5,194.4 L829.8,179.5 L830.0,211.2 L830.3,205.0 L830.6,169.9 L830.8,204.1 L831.1,167.8 L831.4,191.9 L831.6,231.1 L831.9,167.7 L832.2,207.0 L832.4,220.8 L832.7,206.3 L833.0,182.4 L833.2,205.9 L833.5,172.5 L833.7,204.4 L834.0,189.0 L834.3,226.3 L834.5,171.9 L834.8,194.6 L835.1,232.6 L835.3,178.3 L835.6,218.9 L835.9,172.0 L836.1,217.6 L836.4,215.6 L836.7,220.0 L836.9,238.3 L837.2,200.8 L837.4,179.1 L837.7,223.9 L838.0,214.7 L838.2,217.2 L838.5,215.6 L838.8,179.1 L839.0,222.5 L839.3,194.9 L839.6,190.4 L839.8,217.4 L840.1,190.7 L840.4,211.5 L840.6,190.4 L840.9,177.7 L841.1,207.8 L841.4,230.2 L841.7,236.6 L841.9,225.3 L842.2,181.0 L842.5,226.1 L842.7,209.4 L843.0,190.7 L843.3,227.2 L843.5,197.4 L843.8,212.7 L844.1,207.1 L844.3,219.3 L844.6,222.3 L844.8,231.4 L845.1,189.7 L845.4,196.4 L845.6,181.7 L845.9,211.2 L846.2,188.7 L846.4,243.0 L846.7,216.6 L847.0,184.5 L847.2,192.9 L847.5,228.6 L847.8,198.8 L848.0,226.0 L848.3,242.2 L848.5,239.7 L848.8,190.5 L849.1,231.5 L849.3,223.8 L849.6,199.3 L849.9,235.4 L850.1,218.5 L850.4,244.7 L850.7,203.5 L850.9,201.7 L851.2,240.4 L851.5,226.9 L851.7,199.1 L852.0,195.8 L852.2,248.7 L852.5,234.3 L852.8,200.3 L853.0,244.8 L853.3,229.9 L853.6,236.4 L853.8,249.4 L854.1,243.6 L854.4,198.9 L854.6,206.6 L854.9,204.9 L855.2,235.2 L855.4,237.2 L855.7,195.9 L855.9,214.0 L856.2,212.6 L856.5,201.5 L856.7,196.4 L857.0,257.4 L857.3,201.6 L857.5,218.9 L857.8,227.6 L858.1,238.8 L858.3,247.7 L858.6,209.1 L858.9,219.8 L859.1,207.2 L859.4,223.8 L859.6,222.4 L859.9,210.2 L860.2,245.9 L860.4,224.3 L860.7,247.9 L861.0,218.4 L861.2,254.3 L861.5,248.2 L861.8,244.6 L862.0,258.8 L862.3,245.2 L862.6,226.5 L862.8,228.2 L863.1,257.5 L863.3,242.9 L863.6,214.2 L863.9,222.3 L864.1,258.4 L864.4,241.6 L864.7,224.9 L864.9,257.1 L865.2,205.8 L865.5,245.5 L865.7,252.9 L866.0,218.1 L866.3,237.4 L866.5,208.2 L866.8,218.3 L867.0,233.0 L867.3,241.2 L867.6,226.7 L867.8,229.0 L868.1,222.3 L868.4,262.4 L868.6,235.8 L868.9,239.3 L869.2,224.0 L869.4,211.5 L869.7,223.2 L870.0,237.1 L870.2,216.3 L870.5,241.1 L870.7,257.2 L871.0,224.3 L871.3,234.4 L871.5,221.6 L871.8,226.6 L872.1,218.2 L872.3,216.4 L872.6,231.6 L872.9,218.2 L873.1,224.9 L873.4,224.9 L873.7,241.5 L873.9,234.7 L874.2,222.2 L874.4,256.0 L874.7,232.0 L875.0,246.9 L875.2,267.6 L875.5,241.1 L875.8,228.2 L876.0,240.9 L876.3,259.9 L876.6,272.7 L876.8,243.7 L877.1,233.1 L877.4,236.5 L877.6,243.9 L877.9,222.5 L878.1,273.2 L878.4,276.4 L878.7,230.6 L878.9,254.6 L879.2,278.3 L879.5,264.9 L879.7,262.3 L880.0,252.5 L880.3,261.9 L880.5,235.8 L880.8,236.6 L881.1,251.4 L881.3,234.8 L881.6,271.3 L881.8,254.9 L882.1,239.0 L882.4,284.8 L882.6,258.5 L882.9,252.0 L883.2,259.0 L883.4,251.5 L883.7,277.5 L884.0,267.3 L884.2,246.2 L884.5,251.3 L884.7,265.8 L885.0,282.0 L885.3,238.1 L885.5,245.8 L885.8,243.4 L886.1,278.8 L886.3,254.7 L886.6,269.8 L886.9,275.4 L887.1,290.2 L887.4,264.4 L887.7,263.0 L887.9,249.4 L888.2,240.0 L888.4,291.5 L888.7,269.1 L889.0,266.0 L889.2,239.4 L889.5,269.3 L889.8,242.9 L890.0,267.7 L890.3,289.0 L890.6,275.8 L890.8,275.7 L891.1,270.1 L891.4,243.7 L891.6,266.6 L891.9,277.7 L892.1,284.4 L892.4,293.5 L892.7,272.2 L892.9,243.9 L893.2,251.8 L893.5,246.3 L893.7,273.9 L894.0,252.1 L894.3,295.2 L894.5,277.8 L894.8,299.7 L895.1,296.0 L895.3,289.2 L895.6,288.1 L895.8,268.6 L896.1,298.3 L896.4,274.8 L896.6,261.3 L896.9,294.2 L897.2,291.3 L897.4,251.0 L897.7,268.9 L898.0,253.1 L898.2,252.3 L898.5,289.9 L898.8,262.9 L899.0,288.9 L899.3,270.9 L899.5,275.7 L899.8,283.5 L900.1,276.8 L900.3,298.3 L900.6,255.0 L900.9,306.3 L901.1,288.5 L901.4,289.6 L901.7,296.2 L901.9,271.7 L902.2,282.3 L902.5,263.5 L902.7,255.8 L903.0,303.7 L903.2,269.6 L903.5,306.9 L903.8,262.3 L904.0,262.8 L904.3,273.7 L904.6,296.4 L904.8,310.2 L905.1,291.5 L905.4,289.0 L905.6,289.9 L905.9,299.8 L906.2,282.9 L906.4,270.5 L906.7,277.9 L906.9,301.6 L907.2,277.2 L907.5,270.5 L907.7,269.8 L908.0,272.5 L908.3,298.7 L908.5,299.9 L908.8,301.8 L909.1,277.4 L909.3,306.7 L909.6,294.9 L909.9,313.9 L910.1,293.7 L910.4,267.9 L910.6,313.3 L910.9,312.6 L911.2,271.5 L911.4,303.4 L911.7,295.2 L912.0,290.8 L912.2,286.0 L912.5,296.0 L912.8,292.6 L913.0,295.6 L913.3,297.9 L913.6,294.6 L913.8,315.9 L914.1,288.2 L914.3,307.4 L914.6,290.4 L914.9,278.4 L915.1,277.8 L915.4,298.5 L915.7,302.0 L915.9,278.2 L916.2,291.8 L916.5,307.3 L916.7,288.7 L917.0,287.4 L917.3,306.9 L917.5,308.4 L917.8,288.2 L918.0,313.4 L918.3,326.6 L918.6,320.7 L918.8,313.9 L919.1,279.9 L919.4,299.9 L919.6,297.0 L919.9,324.6 L920.2,320.2 L920.4,326.1 L920.7,324.8 L921.0,311.1 L921.2,284.6 L921.5,310.3 L921.7,305.7 L922.0,308.5 L922.3,311.1 L922.5,307.4 L922.8,312.7 L923.1,323.8 L923.3,306.2 L923.6,318.2 L923.9,301.7 L924.1,332.8 L924.4,300.3 L924.7,325.6 L924.9,332.9 L925.2,332.1 L925.4,326.2 L925.7,322.9 L926.0,310.8 L926.2,313.3 L926.5,332.8 L926.8,314.8 L927.0,297.5 L927.3,326.4 L927.6,325.3 L927.8,334.1 L928.1,326.5 L928.4,310.6 L928.6,310.8 L928.9,337.3 L929.1,339.7 L929.4,309.8 L929.7,334.6 L929.9,324.2 L930.2,335.8 L930.5,307.5 L930.7,338.8 L931.0,330.9 L931.3,338.3 L931.5,336.9 L931.8,343.0 L932.1,301.9 L932.3,331.3 L932.6,299.7 L932.8,312.9 L933.1,335.4 L933.4,324.4 L933.6,342.3 L933.9,331.5 L934.2,341.1 L934.4,314.8 L934.7,336.6 L935.0,327.9 L935.2,327.4 L935.5,306.6 L935.8,321.4 L936.0,339.6 L936.3,331.5 L936.5,317.9 L936.8,320.9 L937.1,323.8 L937.3,337.6 L937.6,341.3 L937.9,334.7 L938.1,323.5 L938.4,321.5 L938.7,317.4 L938.9,344.0 L939.2,328.9 L939.5,340.0 L939.7,316.9 L940.0,312.1 L940.2,347.2 L940.5,333.0 L940.8,311.0 L941.0,317.1 L941.3,347.6 L941.6,339.9 L941.8,349.8 L942.1,337.5 L942.4,340.7 L942.6,328.6 L942.9,334.8 L943.2,337.4 L943.4,353.8 L943.7,353.4 L943.9,330.8 L944.2,358.0 L944.5,343.1 L944.7,335.0 L945.0,330.4 L945.3,348.6 L945.5,328.2 L945.8,327.9 L946.1,333.3 L946.3,331.4 L946.6,340.0 L946.9,329.6 L947.1,328.0 L947.4,361.6 L947.6,355.3 L947.9,347.0 L948.2,340.1 L948.4,363.3 L948.7,323.1 L949.0,337.9 L949.2,363.7 L949.5,351.7 L949.8,326.9 L950.0,331.8 L950.3,343.6 L950.5,349.3 L950.8,341.7 L951.1,326.9 L951.3,351.4 L951.6,360.9 L951.9,332.4 L952.1,358.5 L952.4,340.3 L952.7,347.2 L952.9,330.4 L953.2,369.2 L953.5,356.9 L953.7,342.5 L954.0,341.5 L954.2,354.6 L954.5,365.1 L954.8,364.2 L955.0,353.6 L955.3,352.4 L955.6,355.7 L955.8,346.7 L956.1,372.1 L956.4,337.9 L956.6,363.4 L956.9,350.2 L957.2,352.0 L957.4,366.4 L957.7,351.7 L957.9,374.8 L958.2,340.2 L958.5,339.2 L958.7,372.7 L959.0,355.9 L959.3,361.8 L959.5,368.9 L959.8,369.2 L960.1,340.8 L960.3,363.2 L960.6,353.6 L960.9,357.7 L961.1,370.7 L961.4,349.7 L961.6,361.7 L961.9,348.9 L962.2,364.3 L962.4,369.5 L962.7,361.5 L963.0,380.7 L963.2,346.0 L963.5,358.1 L963.8,358.8 L964.0,365.7 L964.3,369.0 L964.6,366.5 L964.8,363.0 L965.1,358.7 L965.3,365.5 L965.6,372.0 L965.9,354.8 L966.1,359.6 L966.4,352.4 L966.7,375.2 L966.9,386.8 L967.2,385.4 L967.5,373.6 L967.7,385.1 L968.0,382.9 L968.3,375.0 L968.5,375.5 L968.8,382.5 L969.0,362.4 L969.3,365.0 L969.6,378.8 L969.8,372.5 L970.1,373.6 L970.4,364.2 L970.6,382.1 L970.9,365.0 L971.2,369.1 L971.4,377.7 L971.7,370.6 L972.0,359.2 L972.2,369.8 L972.5,371.8 L972.7,378.7 L973.0,373.1 L973.3,362.4 L973.5,365.4 L973.8,384.7 L974.1,368.0 L974.3,366.2 L974.6,380.5 L974.9,388.1 L975.1,383.7 L975.4,372.6 L975.7,393.5 L975.9,392.2 L976.2,381.5 L976.4,382.7 L976.7,398.2 L977.0,372.1 L977.2,373.2 L977.5,376.1 L977.8,378.2 L978.0,371.5 L978.3,388.7 L978.6,372.6 L978.8,371.6 L979.1,375.7 L979.4,392.5 L979.6,379.6 L979.9,373.2 L980.1,400.4 L980.4,393.9 L980.7,385.5 L980.9,374.4 L981.2,393.9 L981.5,378.2 L981.7,392.6 L982.0,385.0 L982.3,400.3 L982.5,397.9 L982.8,396.4 L983.1,382.2 L983.3,403.5 L983.6,406.3 L983.8,393.2 L984.1,383.4 L984.4,402.9 L984.6,405.1 L984.9,398.5 L985.2,392.6 L985.4,401.6 L985.7,382.8 L986.0,395.8 L986.2,403.3 L986.5,384.6 L986.8,384.1 L987.0,412.4 L987.3,387.7 L987.5,386.3 L987.8,399.8 L988.1,410.5 L988.3,411.9 L988.6,385.9 L988.9,392.1 L989.1,391.3 L989.4,411.4 L989.7,393.3 L989.9,390.6 L990.2,401.6 L990.5,402.3 L990.7,395.5 L991.0,393.6 L991.2,405.6 L991.5,412.8 L991.8,406.7 L992.0,413.0 L992.3,417.3 L992.6,399.0 L992.8,411.7 L993.1,399.4 L993.4,393.1 L993.6,421.2 L993.9,401.3 L994.2,415.1 L994.4,421.9 L994.7,408.0 L994.9,406.8 L995.2,407.5 L995.5,423.4 L995.7,398.7 L996.0,409.2 L996.3,418.5 L996.5,416.6 L996.8,420.8 L997.1,422.8 L997.3,425.1 L997.6,416.3 L997.9,406.5 L998.1,414.4 L998.4,404.5 L998.6,416.3 L998.9,422.5 L999.2,403.4 L999.4,410.0 L999.7,405.7 L1000.0,418.3 L1000.2,407.2 L1000.5,427.9 L1000.8,429.0 L1001.0,430.6 L1001.3,427.1 L1001.6,408.9 L1001.8,430.8 L1002.1,426.6 L1002.3,418.1 L1002.6,416.7 L1002.9,428.2 L1003.1,424.0 L1003.4,416.0 L1003.7,428.6 L1003.9,420.2 L1004.2,418.5 L1004.5,426.0 L1004.7,424.5 L1005.0,435.8 L1005.3,421.1 L1005.5,421.9 L1005.8,426.2 L1006.0,425.3 L1006.3,425.4 L1006.6,433.8 L1006.8,430.6 L1007.1,417.8 L1007.4,429.3 L1007.6,435.4 L1007.9,426.9 L1008.2,426.5 L1008.4,434.3 L1008.7,424.3 L1009.0,425.5 L1009.2,425.8 L1009.5,421.7 L1009.7,437.0 L1010.0,437.5 L1010.3,438.7 L1010.5,435.6 L1010.8,440.6 L1011.1,434.3 L1011.3,422.4 L1011.6,430.4 L1011.9,425.5 L1012.1,442.4 L1012.4,429.7 L1012.7,445.3 L1012.9,431.9 L1013.2,445.9 L1013.4,427.2 L1013.7,441.4 L1014.0,443.6 L1014.2,428.1 L1014.5,445.8 L1014.8,432.0 L1015.0,436.9 L1015.3,444.5 L1015.6,437.8 L1015.8,447.4 L1016.1,437.1 L1016.4,435.6 L1016.6,441.4 L1016.9,431.9 L1017.1,440.3 L1017.4,448.0 L1017.7,442.2 L1017.9,439.0 L1018.2,453.4 L1018.5,441.6 L1018.7,437.3 L1019.0,440.0 L1019.3,448.0 L1019.5,447.7 L1019.8,440.1 L1020.0,439.3 L1020.3,450.7 L1020.6,449.1 L1020.8,455.5 L1021.1,446.0 L1021.4,441.2 L1021.6,440.8 L1021.9,454.9 L1022.2,449.7 L1022.4,448.9 L1022.7,440.9 L1023.0,443.4 L1023.2,452.7 L1023.5,441.8 L1023.7,452.3 L1024.0,448.1 L1024.3,457.8 L1024.5,453.2 L1024.8,444.8 L1025.1,450.6 L1025.3,460.7 L1025.6,449.6 L1025.9,462.5 L1026.1,447.0 L1026.4,448.2 L1026.7,448.6 L1026.9,448.7 L1027.2,460.5 L1027.4,456.2 L1027.7,457.5 L1028.0,455.4 L1028.2,463.6 L1028.5,452.6 L1028.8,453.9 L1029.0,459.6 L1029.3,460.4 L1029.6,458.8 L1029.8,454.2 L1030.1,455.4 L1030.4,464.5 L1030.6,470.2 L1030.9,462.5 L1031.1,468.8 L1031.4,463.1 L1031.7,464.0 L1031.9,459.6 L1032.2,468.1 L1032.5,466.7 L1032.7,470.9 L1033.0,470.3 L1033.3,458.7 L1033.5,464.1 L1033.8,473.5 L1034.1,467.0 L1034.3,471.8 L1034.6,464.5 L1034.8,471.2 L1035.1,466.3 L1035.4,462.0 L1035.6,477.3 L1035.9,475.6 L1036.2,476.3 L1036.4,476.7 L1036.7,472.1 L1037.0,466.0 L1037.2,469.1 L1037.5,475.6 L1037.8,470.6 L1038.0,470.6 L1038.3,468.3 L1038.5,480.8 L1038.8,472.4 L1039.1,472.3 L1039.3,481.6 L1039.6,472.9 L1039.9,469.5 L1040.1,482.3 L1040.4,482.2 L1040.7,477.9 L1040.9,478.1 L1041.2,482.3 L1041.5,479.0 L1041.7,478.7 L1042.0,479.7 L1042.2,483.3 L1042.5,474.8 L1042.8,485.1 L1043.0,479.0 L1043.3,483.1 L1043.6,480.9 L1043.8,479.6 L1044.1,484.5 L1044.4,481.1 L1044.6,482.9 L1044.9,483.0 L1045.2,488.3 L1045.4,482.2 L1045.7,480.5 L1045.9,487.3 L1046.2,489.0 L1046.5,481.9 L1046.7,490.1 L1047.0,484.2 L1047.3,487.2 L1047.5,483.3 L1047.8,487.6 L1048.1,487.0 L1048.3,488.6 L1048.6,488.1 L1048.9,486.3 L1049.1,491.5 L1049.4,494.0 L1049.6,487.7 L1049.9,488.9 L1050.2,489.1 L1050.4,496.6 L1050.7,488.8 L1051.0,491.0 L1051.2,488.1 L1051.5,497.9 L1051.8,489.4 L1052.0,496.9 L1052.3,493.5 L1052.6,490.3 L1052.8,491.0 L1053.1,497.9 L1053.3,495.9 L1053.6,495.7 L1053.9,492.6 L1054.1,496.0 L1054.4,495.3 L1054.7,501.7 L1054.9,503.6 L1055.2,497.4 L1055.5,494.9 L1055.7,497.4 L1056.0,500.6 L1056.3,499.3 L1056.5,498.1 L1056.8,501.4 L1057.0,498.2 L1057.3,506.5 L1057.6,500.6 L1057.8,499.8 L1058.1,502.3 L1058.4,507.6 L1058.6,505.1 L1058.9,508.8 L1059.2,504.4 L1059.4,504.4 L1059.7,509.7 L1060.0,503.5 L1060.2,507.0 L1060.5,507.3 L1060.7,509.0 L1061.0,508.0 L1061.3,506.2 L1061.5,512.7 L1061.8,511.0 L1062.1,508.1 L1062.3,509.0 L1062.6,511.9 L1062.9,514.6 L1063.1,514.0 L1063.4,515.1 L1063.7,509.6 L1063.9,509.9 L1064.2,513.5 L1064.4,516.5 L1064.7,515.8 L1065.0,515.5 L1065.2,511.4 L1065.5,512.9 L1065.8,514.1 L1066.0,513.5 L1066.3,514.1 L1066.6,517.2 L1066.8,517.6 L1067.1,516.8 L1067.4,518.6 L1067.6,518.2 L1067.9,518.2 L1068.1,520.1 L1068.4,521.5 L1068.7,517.5 L1068.9,518.3 L1069.2,518.5 L1069.5,523.3 L1069.7,522.5 L1070.0,521.0 L1070.3,521.9 L1070.5,520.3 L1070.8,521.3 L1071.1,524.6 L1071.3,523.0 L1071.6,524.7 L1071.8,524.9 L1072.1,527.3 L1072.4,526.4 L1072.6,524.2 L1072.9,524.3 L1073.2,525.0 L1073.4,529.2 L1073.7,529.5 L1074.0,528.0 L1074.2,528.9 L1074.5,530.7 L1074.8,529.9 L1075.0,528.8 L1075.3,528.4 L1075.5,529.7 L1075.8,530.8 L1076.1,532.7 L1076.3,532.7 L1076.6,531.2 L1076.9,532.0 L1077.1,533.2 L1077.4,532.7 L1077.7,532.7 L1077.9,533.5 L1078.2,534.6 L1078.5,535.3 L1078.7,536.3 L1079.0,535.4 L1079.2,535.2 L1079.5,537.1 L1079.8,538.0 L1080.0,536.5 L1080.3,538.1 L1080.6,538.2 L1080.8,539.1 L1081.1,538.2 L1081.4,539.9 L1081.6,539.7 L1081.9,540.7 L1082.2,541.0 L1082.4,540.5 L1082.7,540.8 L1082.9,542.2 L1083.2,542.7 L1083.5,542.4 L1083.7,543.0 L1084.0,543.1" fill="none" stroke="#1f77b4" stroke-width="1.4" opacity="0.85"/><text x="1040" y="54" fill="#ff7f0e" font-size="11">roll 18</text><text x="1090" y="558" fill="#ff7f0e" font-size="11">-18</text><path d="M616.0,313.3 L616.3,312.0 L616.5,312.0 L616.8,310.7 L617.1,312.0 L617.3,310.7 L617.6,313.3 L617.8,310.7 L618.1,310.7 L618.4,312.0 L618.6,310.7 L618.9,312.0 L619.2,312.0 L619.4,310.7 L619.7,312.0 L620.0,312.0 L620.2,312.0 L620.5,310.7 L620.8,312.0 L621.0,312.0 L621.3,312.0 L621.5,312.0 L621.8,310.7 L622.1,310.7 L622.3,310.7 L622.6,310.7 L622.9,312.0 L623.1,310.7 L623.4,313.3 L623.7,312.0 L623.9,312.0 L624.2,312.0 L624.5,312.0 L624.7,312.0 L625.0,313.3 L625.2,313.3 L625.5,310.7 L625.8,313.3 L626.0,312.0 L626.3,312.0 L626.6,313.3 L626.8,312.0 L627.1,310.7 L627.4,312.0 L627.6,312.0 L627.9,312.0 L628.2,313.3 L628.4,312.0 L628.7,312.0 L628.9,310.7 L629.2,310.7 L629.5,312.0 L629.7,310.7 L630.0,312.0 L630.3,312.0 L630.5,312.0 L630.8,310.7 L631.1,313.3 L631.3,312.0 L631.6,312.0 L631.9,313.3 L632.1,312.0 L632.4,313.3 L632.6,313.3 L632.9,313.3 L633.2,310.7 L633.4,313.3 L633.7,312.0 L634.0,312.0 L634.2,312.0 L634.5,312.0 L634.8,310.7 L635.0,312.0 L635.3,312.0 L635.6,313.3 L635.8,312.0 L636.1,312.0 L636.3,312.0 L636.6,312.0 L636.9,313.3 L637.1,310.7 L637.4,313.3 L637.7,313.3 L637.9,312.0 L638.2,313.3 L638.5,310.7 L638.7,313.3 L639.0,313.3 L639.3,312.0 L639.5,312.0 L639.8,312.0 L640.0,310.7 L640.3,313.3 L640.6,312.0 L640.8,312.0 L641.1,313.3 L641.4,312.0 L641.6,313.3 L641.9,312.0 L642.2,313.3 L642.4,313.3 L642.7,310.7 L643.0,312.0 L643.2,310.7 L643.5,310.7 L643.7,312.0 L644.0,313.3 L644.3,312.0 L644.5,312.0 L644.8,310.7 L645.1,312.0 L645.3,312.0 L645.6,312.0 L645.9,313.3 L646.1,313.3 L646.4,312.0 L646.7,312.0 L646.9,312.0 L647.2,310.7 L647.4,312.0 L647.7,310.7 L648.0,312.0 L648.2,312.0 L648.5,310.7 L648.8,312.0 L649.0,312.0 L649.3,312.0 L649.6,310.7 L649.8,312.0 L650.1,313.3 L650.4,312.0 L650.6,312.0 L650.9,312.0 L651.1,312.0 L651.4,312.0 L651.7,312.0 L651.9,313.3 L652.2,312.0 L652.5,312.0 L652.7,310.7 L653.0,312.0 L653.3,313.3 L653.5,310.7 L653.8,310.7 L654.1,312.0 L654.3,313.3 L654.6,310.7 L654.8,310.7 L655.1,313.3 L655.4,312.0 L655.6,312.0 L655.9,310.7 L656.2,313.3 L656.4,312.0 L656.7,312.0 L657.0,310.7 L657.2,312.0 L657.5,312.0 L657.8,312.0 L658.0,312.0 L658.3,312.0 L658.5,312.0 L658.8,312.0 L659.1,312.0 L659.3,312.0 L659.6,312.0 L659.9,313.3 L660.1,310.7 L660.4,312.0 L660.7,313.3 L660.9,312.0 L661.2,312.0 L661.5,310.7 L661.7,312.0 L662.0,313.3 L662.2,313.3 L662.5,310.7 L662.8,312.0 L663.0,310.7 L663.3,310.7 L663.6,313.3 L663.8,313.3 L664.1,312.0 L664.4,312.0 L664.6,312.0 L664.9,312.0 L665.2,312.0 L665.4,312.0 L665.7,312.0 L665.9,312.0 L666.2,310.7 L666.5,310.7 L666.7,313.3 L667.0,310.7 L667.3,310.7 L667.5,310.7 L667.8,312.0 L668.1,312.0 L668.3,313.3 L668.6,310.7 L668.9,312.0 L669.1,310.7 L669.4,312.0 L669.6,312.0 L669.9,312.0 L670.2,313.3 L670.4,313.3 L670.7,312.0 L671.0,312.0 L671.2,312.0 L671.5,310.7 L671.8,310.7 L672.0,310.7 L672.3,312.0 L672.6,310.7 L672.8,312.0 L673.1,313.3 L673.3,313.3 L673.6,310.7 L673.9,312.0 L674.1,310.7 L674.4,313.3 L674.7,312.0 L674.9,313.3 L675.2,312.0 L675.5,313.3 L675.7,313.3 L676.0,313.3 L676.3,310.7 L676.5,313.3 L676.8,312.0 L677.0,312.0 L677.3,312.0 L677.6,313.3 L677.8,312.0 L678.1,312.0 L678.4,312.0 L678.6,313.3 L678.9,310.7 L679.2,312.0 L679.4,312.0 L679.7,310.7 L680.0,310.7 L680.2,312.0 L680.5,312.0 L680.7,310.7 L681.0,310.7 L681.3,313.3 L681.5,313.3 L681.8,312.0 L682.1,312.0 L682.3,313.3 L682.6,313.3 L682.9,312.0 L683.1,312.0 L683.4,313.3 L683.6,312.0 L683.9,312.0 L684.2,312.0 L684.4,312.0 L684.7,312.0 L685.0,313.3 L685.2,313.3 L685.5,312.0 L685.8,312.0 L686.0,312.0 L686.3,310.7 L686.6,313.3 L686.8,310.7 L687.1,310.7 L687.3,313.3 L687.6,312.0 L687.9,310.7 L688.1,310.7 L688.4,313.3 L688.7,310.7 L688.9,313.3 L689.2,313.3 L689.5,312.0 L689.7,310.7 L690.0,310.7 L690.3,313.3 L690.5,312.0 L690.8,312.0 L691.0,312.0 L691.3,312.0 L691.6,313.3 L691.8,312.0 L692.1,313.3 L692.4,310.7 L692.6,313.3 L692.9,310.7 L693.2,312.0 L693.4,312.0 L693.7,310.7 L694.0,312.0 L694.2,310.7 L694.5,312.0 L694.7,312.0 L695.0,312.0 L695.3,310.7 L695.5,313.3 L695.8,312.0 L696.1,312.0 L696.3,313.3 L696.6,312.0 L696.9,312.0 L697.1,306.7 L697.4,295.0 L697.7,283.3 L697.9,272.8 L698.2,253.3 L698.4,249.4 L698.7,232.4 L699.0,239.0 L699.2,212.9 L699.5,211.6 L699.8,211.6 L700.0,211.6 L700.3,203.8 L700.6,193.3 L700.8,171.2 L701.1,171.2 L701.4,173.8 L701.6,164.6 L701.9,167.3 L702.1,171.2 L702.4,150.3 L702.7,134.7 L702.9,158.1 L703.2,158.1 L703.5,121.6 L703.7,145.1 L704.0,134.7 L704.3,142.5 L704.5,116.4 L704.8,137.3 L705.1,147.7 L705.3,129.4 L705.6,119.0 L705.8,126.8 L706.1,103.4 L706.4,128.1 L706.6,122.9 L706.9,120.3 L707.2,111.2 L707.4,119.0 L707.7,119.0 L708.0,119.0 L708.2,120.3 L708.5,115.1 L708.8,103.4 L709.0,122.9 L709.3,89.0 L709.5,109.9 L709.8,126.8 L710.1,120.3 L710.3,115.1 L710.6,115.1 L710.9,125.5 L711.1,126.8 L711.4,104.7 L711.7,115.1 L711.9,119.0 L712.2,111.2 L712.5,132.1 L712.7,120.3 L713.0,98.2 L713.2,122.9 L713.5,126.8 L713.8,130.8 L714.0,112.5 L714.3,103.4 L714.6,125.5 L714.8,136.0 L715.1,95.6 L715.4,136.0 L715.6,113.8 L715.9,155.5 L716.2,139.9 L716.4,138.6 L716.7,121.6 L716.9,128.1 L717.2,159.4 L717.5,159.4 L717.7,138.6 L718.0,158.1 L718.3,156.8 L718.5,134.7 L718.8,169.9 L719.1,147.7 L719.3,160.7 L719.6,162.0 L719.9,156.8 L720.1,169.9 L720.4,169.9 L720.6,165.9 L720.9,155.5 L721.2,175.1 L721.4,163.3 L721.7,172.5 L722.0,171.2 L722.2,168.6 L722.5,173.8 L722.8,182.9 L723.0,164.6 L723.3,165.9 L723.6,167.3 L723.8,181.6 L724.1,172.5 L724.3,177.7 L724.6,163.3 L724.9,176.4 L725.1,171.2 L725.4,168.6 L725.7,186.8 L725.9,198.5 L726.2,228.5 L726.5,244.2 L726.7,262.4 L727.0,270.2 L727.3,291.1 L727.5,304.1 L727.8,317.2 L728.0,328.9 L728.3,344.5 L728.6,348.5 L728.8,369.3 L729.1,378.4 L729.4,390.2 L729.6,387.6 L729.9,396.7 L730.2,401.9 L730.4,424.1 L730.7,437.1 L731.0,418.9 L731.2,426.7 L731.5,458.0 L731.7,439.7 L732.0,446.2 L732.3,460.6 L732.5,464.5 L732.8,450.1 L733.1,486.6 L733.3,461.9 L733.6,469.7 L733.9,478.8 L734.1,480.1 L734.4,468.4 L734.7,476.2 L734.9,504.9 L735.2,489.2 L735.4,499.7 L735.7,482.7 L736.0,515.3 L736.2,498.4 L736.5,508.8 L736.8,480.1 L737.0,504.9 L737.3,495.8 L737.6,508.8 L737.8,517.9 L738.1,507.5 L738.4,514.0 L738.6,501.0 L738.9,495.8 L739.1,499.7 L739.4,516.6 L739.7,499.7 L739.9,536.2 L740.2,491.9 L740.5,515.3 L740.7,512.7 L741.0,506.2 L741.3,527.1 L741.5,494.5 L741.8,511.4 L742.1,519.2 L742.3,503.6 L742.6,493.2 L742.8,503.6 L743.1,517.9 L743.4,511.4 L743.6,536.2 L743.9,517.9 L744.2,519.2 L744.4,495.8 L744.7,532.3 L745.0,508.8 L745.2,515.3 L745.5,532.3 L745.8,503.6 L746.0,501.0 L746.3,516.6 L746.5,504.9 L746.8,520.5 L747.1,506.2 L747.3,528.4 L747.6,497.1 L747.9,515.3 L748.1,504.9 L748.4,511.4 L748.7,504.9 L748.9,536.2 L749.2,534.9 L749.5,515.3 L749.7,531.0 L750.0,501.0 L750.2,537.5 L750.5,503.6 L750.8,517.9 L751.0,516.6 L751.3,520.5 L751.6,517.9 L751.8,527.1 L752.1,503.6 L752.4,521.8 L752.6,517.9 L752.9,517.9 L753.1,527.1 L753.4,514.0 L753.7,532.3 L753.9,532.3 L754.2,506.2 L754.5,499.7 L754.7,531.0 L755.0,532.3 L755.3,498.4 L755.5,516.6 L755.8,538.8 L756.1,515.3 L756.3,525.7 L756.6,499.7 L756.8,528.4 L757.1,501.0 L757.4,525.7 L757.6,523.1 L757.9,523.1 L758.2,525.7 L758.4,510.1 L758.7,517.9 L759.0,516.6 L759.2,529.7 L759.5,523.1 L759.8,521.8 L760.0,538.8 L760.3,516.6 L760.5,536.2 L760.8,528.4 L761.1,525.7 L761.3,502.3 L761.6,520.5 L761.9,502.3 L762.1,521.8 L762.4,528.4 L762.7,504.9 L762.9,508.8 L763.2,506.2 L763.5,544.0 L763.7,512.7 L764.0,510.1 L764.2,541.4 L764.5,491.9 L764.8,515.3 L765.0,533.6 L765.3,521.8 L765.6,523.1 L765.8,528.4 L766.1,531.0 L766.4,503.6 L766.6,523.1 L766.9,510.1 L767.2,528.4 L767.4,516.6 L767.7,520.5 L767.9,527.1 L768.2,517.9 L768.5,501.0 L768.7,532.3 L769.0,511.4 L769.3,523.1 L769.5,502.3 L769.8,536.2 L770.1,511.4 L770.3,506.2 L770.6,520.5 L770.9,534.9 L771.1,511.4 L771.4,502.3 L771.6,524.4 L771.9,524.4 L772.2,507.5 L772.4,461.9 L772.7,455.4 L773.0,433.2 L773.2,425.4 L773.5,395.4 L773.8,382.4 L774.0,368.0 L774.3,351.1 L774.6,338.0 L774.8,325.0 L775.1,310.7 L775.3,296.3 L775.6,285.9 L775.9,268.9 L776.1,259.8 L776.4,246.8 L776.7,237.6 L776.9,227.2 L777.2,211.6 L777.5,210.3 L777.7,215.5 L778.0,194.6 L778.3,199.8 L778.5,177.7 L778.8,181.6 L779.0,160.7 L779.3,167.3 L779.6,160.7 L779.8,168.6 L780.1,149.0 L780.4,158.1 L780.6,145.1 L780.9,134.7 L781.2,159.4 L781.4,137.3 L781.7,154.2 L782.0,117.7 L782.2,150.3 L782.5,130.8 L782.7,121.6 L783.0,150.3 L783.3,134.7 L783.5,147.7 L783.8,122.9 L784.1,147.7 L784.3,104.7 L784.6,149.0 L784.9,119.0 L785.1,122.9 L785.4,145.1 L785.7,104.7 L785.9,126.8 L786.2,133.4 L786.4,136.0 L786.7,137.3 L787.0,134.7 L787.2,128.1 L787.5,121.6 L787.8,92.9 L788.0,107.3 L788.3,117.7 L788.6,89.0 L788.8,134.7 L789.1,98.2 L789.4,128.1 L789.6,130.8 L789.9,122.9 L790.1,99.5 L790.4,129.4 L790.7,94.3 L790.9,112.5 L791.2,113.8 L791.5,99.5 L791.7,120.3 L792.0,104.7 L792.3,132.1 L792.5,111.2 L792.8,115.1 L793.1,113.8 L793.3,104.7 L793.6,89.0 L793.8,128.1 L794.1,115.1 L794.4,98.2 L794.6,126.8 L794.9,96.9 L795.2,106.0 L795.4,125.5 L795.7,91.6 L796.0,129.4 L796.2,121.6 L796.5,119.0 L796.8,90.3 L797.0,111.2 L797.3,104.7 L797.5,102.1 L797.8,121.6 L798.1,99.5 L798.3,109.9 L798.6,89.0 L798.9,113.8 L799.1,99.5 L799.4,125.5 L799.7,126.8 L799.9,113.8 L800.2,95.6 L800.5,107.3 L800.7,125.5 L801.0,103.4 L801.2,108.6 L801.5,96.9 L801.8,120.3 L802.0,107.3 L802.3,125.5 L802.6,104.7 L802.8,85.1 L803.1,109.9 L803.4,125.5 L803.6,86.4 L803.9,103.4 L804.2,91.6 L804.4,124.2 L804.7,111.2 L804.9,96.9 L805.2,122.9 L805.5,92.9 L805.7,91.6 L806.0,95.6 L806.3,98.2 L806.5,90.3 L806.8,126.8 L807.1,120.3 L807.3,95.6 L807.6,111.2 L807.9,86.4 L808.1,128.1 L808.4,122.9 L808.6,111.2 L808.9,121.6 L809.2,125.5 L809.4,100.8 L809.7,100.8 L810.0,100.8 L810.2,128.1 L810.5,79.9 L810.8,132.1 L811.0,102.1 L811.3,100.8 L811.6,103.4 L811.8,117.7 L812.1,126.8 L812.3,125.5 L812.6,113.8 L812.9,94.3 L813.1,124.2 L813.4,92.9 L813.7,128.1 L813.9,106.0 L814.2,130.8 L814.5,104.7 L814.7,107.3 L815.0,115.1 L815.3,98.2 L815.5,117.7 L815.8,107.3 L816.0,99.5 L816.3,94.3 L816.6,109.9 L816.8,87.7 L817.1,99.5 L817.4,125.5 L817.6,124.2 L817.9,108.6 L818.2,126.8 L818.4,116.4 L818.7,83.8 L818.9,106.0 L819.2,98.2 L819.5,102.1 L819.7,85.1 L820.0,89.0 L820.3,126.8 L820.5,92.9 L820.8,107.3 L821.1,116.4 L821.3,106.0 L821.6,112.5 L821.9,117.7 L822.1,100.8 L822.4,112.5 L822.6,106.0 L822.9,115.1 L823.2,85.1 L823.4,108.6 L823.7,119.0 L824.0,89.0 L824.2,117.7 L824.5,89.0 L824.8,102.1 L825.0,111.2 L825.3,104.7 L825.6,103.4 L825.8,111.2 L826.1,109.9 L826.3,112.5 L826.6,92.9 L826.9,116.4 L827.1,77.3 L827.4,98.2 L827.7,87.7 L827.9,108.6 L828.2,90.3 L828.5,92.9 L828.7,85.1 L829.0,121.6 L829.3,116.4 L829.5,102.1 L829.8,95.6 L830.0,103.4 L830.3,103.4 L830.6,90.3 L830.8,112.5 L831.1,124.2 L831.4,96.9 L831.6,91.6 L831.9,126.8 L832.2,89.0 L832.4,103.4 L832.7,102.1 L833.0,95.6 L833.2,109.9 L833.5,111.2 L833.7,81.2 L834.0,129.4 L834.3,108.6 L834.5,99.5 L834.8,132.1 L835.1,99.5 L835.3,111.2 L835.6,116.4 L835.9,90.3 L836.1,106.0 L836.4,115.1 L836.7,90.3 L836.9,106.0 L837.2,91.6 L837.4,126.8 L837.7,117.7 L838.0,92.9 L838.2,130.8 L838.5,102.1 L838.8,132.1 L839.0,112.5 L839.3,90.3 L839.6,126.8 L839.8,129.4 L840.1,92.9 L840.4,120.3 L840.6,129.4 L840.9,107.3 L841.1,124.2 L841.4,94.3 L841.7,130.8 L841.9,129.4 L842.2,99.5 L842.5,129.4 L842.7,129.4 L843.0,112.5 L843.3,89.0 L843.5,133.4 L843.8,117.7 L844.1,128.1 L844.3,113.8 L844.6,115.1 L844.8,106.0 L845.1,112.5 L845.4,87.7 L845.6,132.1 L845.9,111.2 L846.2,111.2 L846.4,112.5 L846.7,130.8 L847.0,125.5 L847.2,83.8 L847.5,124.2 L847.8,112.5 L848.0,94.3 L848.3,104.7 L848.5,94.3 L848.8,106.0 L849.1,122.9 L849.3,100.8 L849.6,112.5 L849.9,126.8 L850.1,108.6 L850.4,96.9 L850.7,104.7 L850.9,102.1 L851.2,89.0 L851.5,116.4 L851.7,103.4 L852.0,99.5 L852.2,126.8 L852.5,119.0 L852.8,100.8 L853.0,98.2 L853.3,111.2 L853.6,98.2 L853.8,122.9 L854.1,108.6 L854.4,125.5 L854.6,119.0 L854.9,106.0 L855.2,99.5 L855.4,122.9 L855.7,113.8 L855.9,108.6 L856.2,98.2 L856.5,108.6 L856.7,106.0 L857.0,103.4 L857.3,87.7 L857.5,94.3 L857.8,116.4 L858.1,79.9 L858.3,121.6 L858.6,109.9 L858.9,117.7 L859.1,113.8 L859.4,92.9 L859.6,102.1 L859.9,94.3 L860.2,125.5 L860.4,100.8 L860.7,113.8 L861.0,99.5 L861.2,95.6 L861.5,91.6 L861.8,91.6 L862.0,86.4 L862.3,116.4 L862.6,117.7 L862.8,104.7 L863.1,92.9 L863.3,92.9 L863.6,111.2 L863.9,92.9 L864.1,86.4 L864.4,128.1 L864.7,86.4 L864.9,111.2 L865.2,109.9 L865.5,111.2 L865.7,119.0 L866.0,102.1 L866.3,104.7 L866.5,106.0 L866.8,121.6 L867.0,103.4 L867.3,113.8 L867.6,122.9 L867.8,117.7 L868.1,87.7 L868.4,90.3 L868.6,86.4 L868.9,128.1 L869.2,85.1 L869.4,95.6 L869.7,94.3 L870.0,113.8 L870.2,91.6 L870.5,103.4 L870.7,121.6 L871.0,109.9 L871.3,85.1 L871.5,104.7 L871.8,86.4 L872.1,98.2 L872.3,91.6 L872.6,104.7 L872.9,115.1 L873.1,103.4 L873.4,85.1 L873.7,94.3 L873.9,91.6 L874.2,85.1 L874.4,106.0 L874.7,99.5 L875.0,115.1 L875.2,87.7 L875.5,120.3 L875.8,85.1 L876.0,119.0 L876.3,119.0 L876.6,90.3 L876.8,102.1 L877.1,117.7 L877.4,82.5 L877.6,95.6 L877.9,111.2 L878.1,100.8 L878.4,122.9 L878.7,109.9 L878.9,120.3 L879.2,83.8 L879.5,121.6 L879.7,86.4 L880.0,119.0 L880.3,113.8 L880.5,119.0 L880.8,122.9 L881.1,90.3 L881.3,108.6 L881.6,117.7 L881.8,112.5 L882.1,104.7 L882.4,117.7 L882.6,104.7 L882.9,112.5 L883.2,91.6 L883.4,115.1 L883.7,113.8 L884.0,90.3 L884.2,117.7 L884.5,115.1 L884.7,89.0 L885.0,109.9 L885.3,86.4 L885.5,98.2 L885.8,122.9 L886.1,96.9 L886.3,111.2 L886.6,111.2 L886.9,78.6 L887.1,128.1 L887.4,117.7 L887.7,125.5 L887.9,115.1 L888.2,116.4 L888.4,124.2 L888.7,107.3 L889.0,103.4 L889.2,120.3 L889.5,117.7 L889.8,89.0 L890.0,124.2 L890.3,109.9 L890.6,98.2 L890.8,96.9 L891.1,87.7 L891.4,121.6 L891.6,98.2 L891.9,109.9 L892.1,86.4 L892.4,115.1 L892.7,90.3 L892.9,107.3 L893.2,120.3 L893.5,83.8 L893.7,112.5 L894.0,124.2 L894.3,103.4 L894.5,96.9 L894.8,107.3 L895.1,108.6 L895.3,116.4 L895.6,96.9 L895.8,109.9 L896.1,89.0 L896.4,96.9 L896.6,95.6 L896.9,91.6 L897.2,86.4 L897.4,109.9 L897.7,120.3 L898.0,109.9 L898.2,98.2 L898.5,99.5 L898.8,85.1 L899.0,116.4 L899.3,92.9 L899.5,99.5 L899.8,103.4 L900.1,94.3 L900.3,92.9 L900.6,103.4 L900.9,106.0 L901.1,91.6 L901.4,83.8 L901.7,125.5 L901.9,99.5 L902.2,112.5 L902.5,95.6 L902.7,102.1 L903.0,119.0 L903.2,109.9 L903.5,96.9 L903.8,94.3 L904.0,128.1 L904.3,83.8 L904.6,103.4 L904.8,104.7 L905.1,96.9 L905.4,129.4 L905.6,109.9 L905.9,98.2 L906.2,103.4 L906.4,122.9 L906.7,124.2 L906.9,117.7 L907.2,90.3 L907.5,103.4 L907.7,91.6 L908.0,94.3 L908.3,108.6 L908.5,99.5 L908.8,120.3 L909.1,112.5 L909.3,79.9 L909.6,115.1 L909.9,94.3 L910.1,117.7 L910.4,122.9 L910.6,111.2 L910.9,85.1 L911.2,98.2 L911.4,95.6 L911.7,100.8 L912.0,126.8 L912.2,117.7 L912.5,122.9 L912.8,115.1 L913.0,85.1 L913.3,100.8 L913.6,102.1 L913.8,104.7 L914.1,109.9 L914.3,102.1 L914.6,108.6 L914.9,104.7 L915.1,108.6 L915.4,91.6 L915.7,102.1 L915.9,104.7 L916.2,112.5 L916.5,108.6 L916.7,107.3 L917.0,87.7 L917.3,91.6 L917.5,92.9 L917.8,103.4 L918.0,83.8 L918.3,126.8 L918.6,107.3 L918.8,98.2 L919.1,117.7 L919.4,86.4 L919.6,107.3 L919.9,100.8 L920.2,115.1 L920.4,112.5 L920.7,92.9 L921.0,119.0 L921.2,87.7 L921.5,98.2 L921.7,95.6 L922.0,109.9 L922.3,94.3 L922.5,95.6 L922.8,100.8 L923.1,91.6 L923.3,94.3 L923.6,92.9 L923.9,124.2 L924.1,107.3 L924.4,100.8 L924.7,89.0 L924.9,108.6 L925.2,108.6 L925.4,116.4 L925.7,82.5 L926.0,99.5 L926.2,107.3 L926.5,99.5 L926.8,121.6 L927.0,107.3 L927.3,113.8 L927.6,120.3 L927.8,89.0 L928.1,111.2 L928.4,92.9 L928.6,117.7 L928.9,90.3 L929.1,124.2 L929.4,103.4 L929.7,120.3 L929.9,98.2 L930.2,121.6 L930.5,79.9 L930.7,119.0 L931.0,112.5 L931.3,102.1 L931.5,124.2 L931.8,116.4 L932.1,126.8 L932.3,99.5 L932.6,113.8 L932.8,91.6 L933.1,99.5 L933.4,96.9 L933.6,98.2 L933.9,87.7 L934.2,92.9 L934.4,89.0 L934.7,128.1 L935.0,109.9 L935.2,108.6 L935.5,86.4 L935.8,103.4 L936.0,98.2 L936.3,91.6 L936.5,122.9 L936.8,124.2 L937.1,85.1 L937.3,99.5 L937.6,129.4 L937.9,119.0 L938.1,104.7 L938.4,100.8 L938.7,109.9 L938.9,96.9 L939.2,121.6 L939.5,89.0 L939.7,109.9 L940.0,108.6 L940.2,109.9 L940.5,104.7 L940.8,120.3 L941.0,107.3 L941.3,124.2 L941.6,76.0 L941.8,125.5 L942.1,125.5 L942.4,108.6 L942.6,89.0 L942.9,128.1 L943.2,126.8 L943.4,95.6 L943.7,125.5 L943.9,106.0 L944.2,98.2 L944.5,113.8 L944.7,91.6 L945.0,128.1 L945.3,95.6 L945.5,122.9 L945.8,125.5 L946.1,104.7 L946.3,100.8 L946.6,111.2 L946.9,126.8 L947.1,106.0 L947.4,112.5 L947.6,120.3 L947.9,82.5 L948.2,92.9 L948.4,102.1 L948.7,86.4 L949.0,130.8 L949.2,90.3 L949.5,95.6 L949.8,121.6 L950.0,112.5 L950.3,96.9 L950.5,92.9 L950.8,129.4 L951.1,119.0 L951.3,89.0 L951.6,100.8 L951.9,130.8 L952.1,119.0 L952.4,115.1 L952.7,94.3 L952.9,111.2 L953.2,99.5 L953.5,119.0 L953.7,108.6 L954.0,111.2 L954.2,103.4 L954.5,113.8 L954.8,95.6 L955.0,99.5 L955.3,111.2 L955.6,120.3 L955.8,119.0 L956.1,111.2 L956.4,108.6 L956.6,96.9 L956.9,86.4 L957.2,117.7 L957.4,111.2 L957.7,115.1 L957.9,107.3 L958.2,82.5 L958.5,128.1 L958.7,108.6 L959.0,106.0 L959.3,92.9 L959.5,111.2 L959.8,99.5 L960.1,102.1 L960.3,102.1 L960.6,121.6 L960.9,92.9 L961.1,104.7 L961.4,117.7 L961.6,120.3 L961.9,113.8 L962.2,90.3 L962.4,96.9 L962.7,119.0 L963.0,120.3 L963.2,108.6 L963.5,121.6 L963.8,104.7 L964.0,81.2 L964.3,107.3 L964.6,89.0 L964.8,87.7 L965.1,103.4 L965.3,98.2 L965.6,98.2 L965.9,94.3 L966.1,121.6 L966.4,85.1 L966.7,128.1 L966.9,124.2 L967.2,116.4 L967.5,103.4 L967.7,104.7 L968.0,104.7 L968.3,83.8 L968.5,116.4 L968.8,100.8 L969.0,111.2 L969.3,126.8 L969.6,104.7 L969.8,94.3 L970.1,96.9 L970.4,109.9 L970.6,95.6 L970.9,94.3 L971.2,103.4 L971.4,120.3 L971.7,109.9 L972.0,82.5 L972.2,91.6 L972.5,117.7 L972.7,106.0 L973.0,86.4 L973.3,87.7 L973.5,111.2 L973.8,83.8 L974.1,103.4 L974.3,86.4 L974.6,119.0 L974.9,120.3 L975.1,85.1 L975.4,96.9 L975.7,98.2 L975.9,117.7 L976.2,108.6 L976.4,95.6 L976.7,117.7 L977.0,106.0 L977.2,124.2 L977.5,90.3 L977.8,124.2 L978.0,107.3 L978.3,90.3 L978.6,102.1 L978.8,102.1 L979.1,89.0 L979.4,113.8 L979.6,85.1 L979.9,96.9 L980.1,98.2 L980.4,90.3 L980.7,130.8 L980.9,102.1 L981.2,113.8 L981.5,124.2 L981.7,104.7 L982.0,122.9 L982.3,100.8 L982.5,121.6 L982.8,81.2 L983.1,132.1 L983.3,109.9 L983.6,103.4 L983.8,102.1 L984.1,106.0 L984.4,106.0 L984.6,104.7 L984.9,119.0 L985.2,119.0 L985.4,120.3 L985.7,109.9 L986.0,99.5 L986.2,90.3 L986.5,125.5 L986.8,116.4 L987.0,113.8 L987.3,82.5 L987.5,119.0 L987.8,113.8 L988.1,112.5 L988.3,122.9 L988.6,79.9 L988.9,103.4 L989.1,111.2 L989.4,109.9 L989.7,104.7 L989.9,100.8 L990.2,115.1 L990.5,82.5 L990.7,128.1 L991.0,102.1 L991.2,129.4 L991.5,96.9 L991.8,116.4 L992.0,95.6 L992.3,107.3 L992.6,89.0 L992.8,98.2 L993.1,125.5 L993.4,85.1 L993.6,125.5 L993.9,121.6 L994.2,95.6 L994.4,129.4 L994.7,102.1 L994.9,106.0 L995.2,113.8 L995.5,112.5 L995.7,111.2 L996.0,98.2 L996.3,99.5 L996.5,91.6 L996.8,99.5 L997.1,130.8 L997.3,119.0 L997.6,112.5 L997.9,87.7 L998.1,104.7 L998.4,89.0 L998.6,117.7 L998.9,121.6 L999.2,86.4 L999.4,121.6 L999.7,107.3 L1000.0,122.9 L1000.2,96.9 L1000.5,113.8 L1000.8,92.9 L1001.0,108.6 L1001.3,99.5 L1001.6,94.3 L1001.8,130.8 L1002.1,91.6 L1002.3,103.4 L1002.6,92.9 L1002.9,129.4 L1003.1,128.1 L1003.4,115.1 L1003.7,121.6 L1003.9,115.1 L1004.2,126.8 L1004.5,124.2 L1004.7,116.4 L1005.0,115.1 L1005.3,107.3 L1005.5,92.9 L1005.8,112.5 L1006.0,122.9 L1006.3,112.5 L1006.6,104.7 L1006.8,111.2 L1007.1,79.9 L1007.4,116.4 L1007.6,109.9 L1007.9,117.7 L1008.2,98.2 L1008.4,102.1 L1008.7,99.5 L1009.0,115.1 L1009.2,78.6 L1009.5,92.9 L1009.7,103.4 L1010.0,111.2 L1010.3,83.8 L1010.5,102.1 L1010.8,112.5 L1011.1,91.6 L1011.3,119.0 L1011.6,94.3 L1011.9,113.8 L1012.1,96.9 L1012.4,104.7 L1012.7,122.9 L1012.9,85.1 L1013.2,106.0 L1013.4,83.8 L1013.7,107.3 L1014.0,102.1 L1014.2,125.5 L1014.5,106.0 L1014.8,94.3 L1015.0,87.7 L1015.3,95.6 L1015.6,100.8 L1015.8,85.1 L1016.1,124.2 L1016.4,122.9 L1016.6,113.8 L1016.9,121.6 L1017.1,120.3 L1017.4,98.2 L1017.7,92.9 L1017.9,99.5 L1018.2,92.9 L1018.5,100.8 L1018.7,120.3 L1019.0,109.9 L1019.3,112.5 L1019.5,96.9 L1019.8,94.3 L1020.0,87.7 L1020.3,122.9 L1020.6,91.6 L1020.8,99.5 L1021.1,102.1 L1021.4,100.8 L1021.6,87.7 L1021.9,120.3 L1022.2,112.5 L1022.4,99.5 L1022.7,100.8 L1023.0,125.5 L1023.2,92.9 L1023.5,115.1 L1023.7,108.6 L1024.0,120.3 L1024.3,91.6 L1024.5,92.9 L1024.8,91.6 L1025.1,116.4 L1025.3,113.8 L1025.6,102.1 L1025.9,116.4 L1026.1,95.6 L1026.4,91.6 L1026.7,113.8 L1026.9,122.9 L1027.2,106.0 L1027.4,115.1 L1027.7,92.9 L1028.0,109.9 L1028.2,108.6 L1028.5,77.3 L1028.8,95.6 L1029.0,90.3 L1029.3,104.7 L1029.6,96.9 L1029.8,98.2 L1030.1,102.1 L1030.4,106.0 L1030.6,115.1 L1030.9,116.4 L1031.1,95.6 L1031.4,107.3 L1031.7,92.9 L1031.9,107.3 L1032.2,82.5 L1032.5,108.6 L1032.7,91.6 L1033.0,111.2 L1033.3,111.2 L1033.5,83.8 L1033.8,90.3 L1034.1,87.7 L1034.3,121.6 L1034.6,82.5 L1034.8,107.3 L1035.1,117.7 L1035.4,86.4 L1035.6,96.9 L1035.9,106.0 L1036.2,102.1 L1036.4,102.1 L1036.7,99.5 L1037.0,95.6 L1037.2,100.8 L1037.5,104.7 L1037.8,86.4 L1038.0,104.7 L1038.3,119.0 L1038.5,102.1 L1038.8,81.2 L1039.1,112.5 L1039.3,89.0 L1039.6,104.7 L1039.9,85.1 L1040.1,125.5 L1040.4,120.3 L1040.7,108.6 L1040.9,104.7 L1041.2,90.3 L1041.5,112.5 L1041.7,121.6 L1042.0,119.0 L1042.2,119.0 L1042.5,81.2 L1042.8,108.6 L1043.0,91.6 L1043.3,115.1 L1043.6,83.8 L1043.8,109.9 L1044.1,90.3 L1044.4,111.2 L1044.6,86.4 L1044.9,122.9 L1045.2,89.0 L1045.4,103.4 L1045.7,107.3 L1045.9,107.3 L1046.2,94.3 L1046.5,100.8 L1046.7,128.1 L1047.0,99.5 L1047.3,91.6 L1047.5,129.4 L1047.8,108.6 L1048.1,94.3 L1048.3,103.4 L1048.6,91.6 L1048.9,100.8 L1049.1,104.7 L1049.4,87.7 L1049.6,132.1 L1049.9,108.6 L1050.2,111.2 L1050.4,107.3 L1050.7,103.4 L1051.0,103.4 L1051.2,122.9 L1051.5,85.1 L1051.8,104.7 L1052.0,94.3 L1052.3,112.5 L1052.6,95.6 L1052.8,108.6 L1053.1,116.4 L1053.3,124.2 L1053.6,96.9 L1053.9,121.6 L1054.1,99.5 L1054.4,121.6 L1054.7,98.2 L1054.9,119.0 L1055.2,121.6 L1055.5,99.5 L1055.7,117.7 L1056.0,120.3 L1056.3,113.8 L1056.5,86.4 L1056.8,86.4 L1057.0,106.0 L1057.3,121.6 L1057.6,95.6 L1057.8,106.0 L1058.1,87.7 L1058.4,108.6 L1058.6,100.8 L1058.9,89.0 L1059.2,96.9 L1059.4,119.0 L1059.7,113.8 L1060.0,115.1 L1060.2,107.3 L1060.5,115.1 L1060.7,86.4 L1061.0,92.9 L1061.3,112.5 L1061.5,106.0 L1061.8,89.0 L1062.1,83.8 L1062.3,106.0 L1062.6,119.0 L1062.9,100.8 L1063.1,102.1 L1063.4,86.4 L1063.7,117.7 L1063.9,91.6 L1064.2,85.1 L1064.4,102.1 L1064.7,82.5 L1065.0,125.5 L1065.2,87.7 L1065.5,96.9 L1065.8,109.9 L1066.0,89.0 L1066.3,104.7 L1066.6,126.8 L1066.8,103.4 L1067.1,104.7 L1067.4,115.1 L1067.6,103.4 L1067.9,85.1 L1068.1,106.0 L1068.4,104.7 L1068.7,99.5 L1068.9,86.4 L1069.2,98.2 L1069.5,125.5 L1069.7,92.9 L1070.0,125.5 L1070.3,109.9 L1070.5,99.5 L1070.8,90.3 L1071.1,117.7 L1071.3,126.8 L1071.6,81.2 L1071.8,117.7 L1072.1,128.1 L1072.4,99.5 L1072.6,102.1 L1072.9,90.3 L1073.2,124.2 L1073.4,126.8 L1073.7,96.9 L1074.0,126.8 L1074.2,108.6 L1074.5,128.1 L1074.8,83.8 L1075.0,125.5 L1075.3,100.8 L1075.5,120.3 L1075.8,108.6 L1076.1,124.2 L1076.3,126.8 L1076.6,126.8 L1076.9,87.7 L1077.1,92.9 L1077.4,94.3 L1077.7,102.1 L1077.9,120.3 L1078.2,117.7 L1078.5,103.4 L1078.7,109.9 L1079.0,102.1 L1079.2,89.0 L1079.5,130.8 L1079.8,106.0 L1080.0,125.5 L1080.3,94.3 L1080.6,94.3 L1080.8,102.1 L1081.1,116.4 L1081.4,125.5 L1081.6,99.5 L1081.9,116.4 L1082.2,82.5 L1082.4,126.8 L1082.7,122.9 L1082.9,100.8 L1083.2,120.3 L1083.5,122.9 L1083.7,151.6 L1084.0,150.3" fill="none" stroke="#ff7f0e" stroke-width="1.1" opacity="0.85"/><text x="616" y="572" font-size="11" fill="#888">time 0..35 s — altitude (blue) &amp; roll (orange)</text></svg>