<svg xmlns="http://www.w3.org/2000/svg" width="1140" height="600" font-family="sans-serif" font-size="13"><rect width="1140" height="600" fill="white"/><text x="20" y="26" font-size="15" fill="#333">TMS-7 F15 — cross-wind 9 m/s (10% noise)</text><rect x="20" y="40" width="540" height="540" fill="#fbfbfb" stroke="#ddd"/><rect x="50" y="364" width="356" height="6" fill="#cde" stroke="#369" opacity="0.7"/><text x="50" y="359" fill="#369" font-size="12">landing zone</text><circle cx="274" cy="427" r="5" fill="black"/><text x="282" y="431" font-size="12">pad</text><path d="M273.8,427.4 L273.8,427.4 L273.8,427.4 L273.8,427.4 L273.8,427.4 L273.8,427.4 L273.8,427.4 L273.8,427.4 L273.8,427.4 L273.8,427.4 L273.8,427.4 L273.8,427.4 L273.8,427.4 L273.8,427.4 L273.8,427.4 L273.8,427.4 L273.8,427.4 L273.8,427.4 L273.8,427.4 L273.8,427.4 L273.8,427.4 L273.8,427.4 L273.8,427.4 L273.8,427.4 L273.8,427.4 L273.8,427.4 L273.8,427.4 L273.8,427.4 L273.8,427.4 L273.8,427.4 L273.8,427.4 L273.8,427.4 L273.8,427.4 L273.8,427.4 L273.8,427.4 L273.8,427.4 L273.8,427.4 L273.8,427.4 L273.8,427.4 L273.8,427.4 L273.8,427.4 L273.8,427.4 L273.8,427.4 L273.8,427.4 L273.8,427.4 L273.8,427.4 L273.8,427.4 L273.8,427.4 L273.8,427.4 L273.8,427.4 L273.8,427.4 L273.8,427.4 L273.8,427.4 L273.8,427.4 L273.8,427.4 L273.8,427.4 L273.8,427.4 L273.8,427.4 L274.4,426.5 L275.0,425.5 L275.7,424.4 L276.3,423.3 L276.9,422.3 L277.7,421.2 L278.3,420.3 L279.0,419.1 L279.8,418.2 L280.4,417.3 L281.2,416.2 L282.1,415.3 L282.7,414.3 L283.5,413.4 L284.3,412.5 L285.2,411.4 L286.0,410.5 L286.8,409.5 L287.6,408.6 L288.5,407.7 L289.5,406.8 L290.3,405.9 L291.1,405.0 L292.2,404.3 L293.0,403.4 L294.0,402.5 L294.8,401.5 L295.9,400.9 L296.9,399.9 L297.7,399.0 L298.8,398.3 L299.8,397.4 L300.8,396.7 L301.9,395.8 L302.9,395.1 L303.9,394.5 L305.0,393.5 L306.0,392.9 L307.2,392.2 L308.3,391.3 L309.3,390.6 L310.5,389.9 L311.6,389.2 L312.8,388.5 L313.8,387.8 L315.1,387.1 L316.3,386.5 L317.3,385.8 L318.6,385.1 L319.8,384.6 L321.0,383.9 L322.3,383.3 L323.5,382.8 L324.8,382.1 L326.0,381.4 L327.2,381.0 L328.5,380.3 L329.9,379.8 L331.2,379.4 L332.4,378.7 L333.8,378.2 L335.1,377.8 L336.5,377.3 L337.8,376.6 L339.2,376.2 L340.6,375.7 L341.9,375.3 L343.3,374.8 L344.8,374.3 L346.2,374.1 L347.7,373.7 L349.1,373.2 L350.5,372.7 L352.0,372.3 L353.4,372.1 L354.9,371.6 L356.3,371.4 L358.0,370.9 L359.4,370.7 L360.9,370.2 L362.3,370.0 L363.9,369.5 L365.4,369.3 L366.8,369.1 L368.5,368.6 L369.9,368.2 L371.4,367.9 L372.8,367.5 L374.3,367.0 L375.7,366.8 L377.2,366.3 L378.6,365.9 L379.8,365.4 L381.3,365.0 L382.7,364.5 L384.0,364.1 L385.4,363.6 L386.8,362.9 L388.1,362.5 L389.5,362.2 L391.0,361.8 L392.4,361.3 L393.9,360.9 L395.3,360.4 L396.7,360.2 L398.2,359.7 L399.6,359.3 L401.3,359.0 L402.7,358.6 L404.2,358.3 L405.8,358.1 L407.3,357.7 L408.9,357.4 L410.4,357.2 L412.0,357.0 L413.5,356.7 L415.1,356.5 L416.8,356.3 L418.4,356.1 L419.8,355.8 L421.5,355.6 L423.1,355.4 L424.8,355.1 L426.5,355.1 L427.9,354.9 L429.5,354.5 L431.2,354.2 L432.6,354.0 L434.3,353.8 L435.7,353.5 L437.4,353.1 L438.8,352.9 L440.3,352.6 L441.7,352.2 L443.4,351.9 L444.8,351.5 L446.3,351.0 L447.7,350.8 L449.1,350.3 L450.6,349.9 L452.0,349.4 L453.5,349.0 L454.7,348.5 L456.2,348.1 L457.6,347.6 L458.8,347.1 L460.3,346.7 L461.5,346.2 L463.0,345.5 L464.2,345.1 L465.6,344.6 L466.9,343.9 L468.1,343.5 L469.4,342.8 L470.6,342.3 L471.8,341.7 L473.1,341.2 L474.3,340.5 L475.5,339.8 L476.8,339.1 L478.0,338.5 L479.3,337.8 L480.3,337.3 L481.5,336.6 L482.6,335.9 L483.8,335.0 L484.8,334.3 L486.1,333.7 L487.1,333.0 L488.1,332.3 L489.2,331.4 L490.2,330.7 L491.2,330.0 L492.3,329.1 L493.3,328.4 L494.3,327.5 L495.3,326.6 L496.4,325.9 L497.2,325.0 L498.2,324.1 L499.3,323.4 L500.1,322.5 L500.9,321.5 L501.9,320.6 L502.8,319.7 L503.6,318.8 L504.4,317.9 L505.2,317.0 L506.3,316.1 L506.9,315.1 L507.7,314.2 L508.5,313.3 L509.4,312.4 L510.2,311.3 L510.8,310.3 L511.6,309.4 L512.3,308.3 L513.1,307.4 L513.7,306.2 L514.3,305.3 L515.1,304.2 L515.8,303.3 L516.4,302.1 L517.0,301.0 L517.6,300.1 L518.2,298.9 L518.9,297.8 L519.3,296.6 L519.9,295.7 L520.5,294.6 L520.9,293.4 L521.5,292.3 L522.0,291.1 L522.4,290.0 L523.0,288.9 L523.4,287.7 L523.8,286.8 L524.0,285.7 L524.4,284.7 L524.8,283.8 L525.0,282.9 L525.5,281.8 L525.7,280.9 L526.1,279.7 L526.3,278.8 L526.5,277.9 L526.9,276.7 L527.1,275.8 L527.3,274.7 L527.5,273.8 L527.7,272.6 L527.9,271.7 L528.1,270.6 L528.3,269.4 L528.6,268.5 L528.8,267.4 L529.0,266.5 L529.0,265.3 L529.2,264.2 L529.4,263.0 L529.4,262.1 L529.6,261.0 L529.6,259.8 L529.8,258.7 L529.8,257.8 L529.8,256.6 L530.0,255.5 L530.0,254.3 L530.0,253.2 L530.0,252.3 L530.0,251.1 L530.0,250.0 L530.0,248.9 L530.0,247.7 L530.0,246.6 L530.0,245.4 L529.8,244.3 L529.8,243.1 L529.8,242.0 L529.6,240.9 L529.6,239.7 L529.4,238.6 L529.4,237.4 L529.2,236.3 L529.2,235.1 L529.0,233.8 L528.8,232.6 L528.6,231.5 L528.3,230.3 L528.1,229.2 L527.9,228.1 L527.7,226.9 L527.5,225.5 L527.3,224.4 L527.1,223.3 L526.9,222.1 L526.5,220.7 L526.3,219.6 L526.1,218.5 L525.7,217.3 L525.5,215.9 L525.0,214.8 L524.6,213.7 L524.4,212.3 L524.0,211.1 L523.6,210.0 L523.2,208.6 L522.8,207.5 L522.4,206.3 L522.0,205.0 L521.5,203.8 L521.1,202.7 L520.7,201.3 L520.3,200.2 L519.9,198.8 L519.3,197.7 L518.9,196.3 L518.2,195.1 L517.8,194.0 L517.2,192.6" fill="none" stroke="#1f77b4" stroke-width="1.7" opacity="0.85"/><circle cx="517" cy="193" r="4.5" fill="#1f77b4"/><text x="28" y="572" font-size="11" fill="#888">ground track — m from pad (N up)</text><rect x="580" y="40" width="540" height="540" fill="#fbfbfb" stroke="#ddd"/><text x="586" y="54" fill="#1f77b4" font-size="11">alt 301</text><text x="586" y="558" fill="#1f77b4" font-size="11">2</text><path d="M616.0,543.3 L616.2,543.9 L616.5,544.0 L616.7,543.2 L616.9,543.9 L617.2,543.2 L617.4,543.0 L617.6,542.8 L617.9,543.4 L618.1,542.8 L618.3,542.6 L618.5,542.7 L618.8,542.3 L619.0,542.5 L619.2,542.4 L619.5,541.5 L619.7,540.9 L619.9,540.7 L620.2,540.4 L620.4,540.5 L620.6,540.9 L620.9,541.0 L621.1,540.2 L621.3,539.2 L621.6,538.7 L621.8,538.0 L622.0,539.3 L622.2,538.0 L622.5,536.8 L622.7,536.1 L622.9,537.5 L623.2,537.3 L623.4,536.9 L623.6,535.0 L623.9,534.0 L624.1,533.9 L624.3,534.1 L624.6,534.3 L624.8,534.1 L625.0,531.5 L625.3,530.8 L625.5,532.0 L625.7,528.6 L625.9,529.0 L626.2,530.0 L626.4,530.2 L626.6,525.7 L626.9,526.4 L627.1,528.4 L627.3,527.7 L627.6,524.1 L627.8,524.7 L628.0,523.3 L628.3,523.6 L628.5,520.0 L628.7,519.0 L629.0,521.8 L629.2,519.5 L629.4,521.3 L629.6,520.0 L629.9,518.5 L630.1,518.4 L630.3,516.0 L630.6,516.2 L630.8,513.2 L631.0,515.7 L631.3,510.2 L631.5,513.7 L631.7,507.6 L632.0,508.0 L632.2,507.6 L632.4,509.1 L632.7,502.8 L632.9,506.1 L633.1,504.1 L633.4,505.6 L633.6,504.2 L633.8,501.6 L634.0,494.2 L634.3,497.1 L634.5,492.5 L634.7,499.2 L635.0,491.8 L635.2,490.1 L635.4,486.8 L635.7,487.6 L635.9,484.2 L636.1,485.7 L636.4,483.3 L636.6,481.0 L636.8,486.6 L637.1,480.7 L637.3,477.2 L637.5,481.4 L637.7,478.0 L638.0,483.2 L638.2,474.8 L638.4,472.8 L638.7,466.4 L638.9,474.8 L639.1,465.0 L639.4,469.6 L639.6,459.8 L639.8,471.0 L640.1,472.5 L640.3,467.4 L640.5,458.8 L640.8,467.1 L641.0,457.4 L641.2,460.2 L641.4,457.6 L641.7,462.6 L641.9,458.3 L642.1,451.2 L642.4,439.5 L642.6,445.5 L642.8,449.1 L643.1,441.1 L643.3,451.2 L643.5,451.6 L643.8,445.0 L644.0,437.3 L644.2,443.1 L644.5,433.4 L644.7,429.1 L644.9,421.3 L645.1,420.0 L645.4,427.7 L645.6,419.8 L645.8,417.8 L646.1,418.0 L646.3,409.6 L646.5,426.9 L646.8,404.0 L647.0,412.7 L647.2,403.3 L647.5,408.7 L647.7,411.4 L647.9,404.7 L648.2,407.9 L648.4,402.1 L648.6,408.8 L648.9,412.5 L649.1,388.8 L649.3,398.4 L649.5,407.5 L649.8,394.0 L650.0,403.0 L650.2,395.8 L650.5,395.4 L650.7,368.5 L650.9,395.4 L651.2,387.0 L651.4,368.2 L651.6,365.7 L651.9,363.3 L652.1,361.7 L652.3,384.1 L652.6,365.3 L652.8,379.1 L653.0,369.8 L653.2,348.2 L653.5,342.9 L653.7,356.1 L653.9,365.0 L654.2,341.7 L654.4,332.7 L654.6,365.0 L654.9,328.1 L655.1,337.4 L655.3,341.6 L655.6,340.4 L655.8,320.1 L656.0,316.2 L656.3,329.0 L656.5,308.6 L656.7,331.9 L656.9,309.4 L657.2,319.1 L657.4,299.3 L657.6,311.7 L657.9,319.7 L658.1,322.8 L658.3,317.5 L658.6,328.3 L658.8,298.8 L659.0,328.4 L659.3,289.0 L659.5,296.5 L659.7,288.9 L660.0,305.5 L660.2,270.8 L660.4,294.6 L660.6,281.5 L660.9,313.8 L661.1,310.2 L661.3,275.9 L661.6,290.7 L661.8,268.2 L662.0,257.7 L662.3,287.1 L662.5,283.0 L662.7,265.5 L663.0,259.8 L663.2,252.0 L663.4,286.0 L663.7,290.3 L663.9,237.4 L664.1,250.8 L664.3,280.6 L664.6,268.3 L664.8,259.9 L665.0,244.3 L665.3,280.7 L665.5,257.2 L665.7,222.1 L666.0,231.3 L666.2,269.1 L666.4,246.2 L666.7,262.7 L666.9,245.9 L667.1,260.5 L667.4,220.6 L667.6,247.9 L667.8,205.5 L668.1,212.7 L668.3,218.5 L668.5,223.1 L668.7,221.8 L669.0,250.5 L669.2,243.9 L669.4,201.1 L669.7,220.6 L669.9,205.8 L670.1,197.9 L670.4,228.9 L670.6,188.5 L670.8,229.6 L671.1,194.7 L671.3,180.1 L671.5,194.6 L671.8,184.7 L672.0,208.3 L672.2,200.8 L672.4,214.8 L672.7,225.5 L672.9,227.5 L673.1,179.2 L673.4,208.4 L673.6,226.4 L673.8,174.2 L674.1,189.3 L674.3,193.1 L674.5,193.7 L674.8,210.6 L675.0,156.3 L675.2,213.5 L675.5,215.0 L675.7,143.2 L675.9,153.9 L676.1,190.5 L676.4,168.8 L676.6,153.2 L676.8,147.1 L677.1,156.6 L677.3,163.2 L677.5,200.8 L677.8,136.4 L678.0,199.7 L678.2,149.7 L678.5,191.5 L678.7,128.0 L678.9,170.3 L679.2,153.2 L679.4,192.8 L679.6,174.8 L679.8,173.8 L680.1,131.8 L680.3,175.0 L680.5,165.1 L680.8,171.4 L681.0,149.1 L681.2,131.1 L681.5,118.5 L681.7,102.6 L681.9,119.4 L682.2,141.8 L682.4,129.8 L682.6,151.8 L682.9,157.4 L683.1,174.4 L683.3,154.8 L683.6,107.2 L683.8,149.3 L684.0,119.3 L684.2,88.7 L684.5,130.5 L684.7,112.3 L684.9,136.6 L685.2,141.9 L685.4,149.5 L685.6,141.5 L685.9,89.7 L686.1,95.9 L686.3,77.3 L686.6,86.7 L686.8,135.6 L687.0,129.3 L687.3,87.4 L687.5,83.3 L687.7,79.4 L687.9,80.9 L688.2,111.7 L688.4,99.0 L688.6,83.2 L688.9,103.6 L689.1,112.5 L689.3,79.9 L689.6,147.7 L689.8,155.8 L690.0,95.2 L690.3,81.9 L690.5,146.7 L690.7,136.2 L691.0,114.6 L691.2,84.1 L691.4,151.0 L691.6,158.3 L691.9,141.5 L692.1,140.2 L692.3,143.3 L692.6,152.2 L692.8,158.7 L693.0,108.5 L693.3,88.7 L693.5,139.8 L693.7,150.4 L694.0,79.6 L694.2,106.4 L694.4,141.0 L694.7,115.7 L694.9,125.5 L695.1,126.1 L695.3,76.4 L695.6,102.7 L695.8,132.7 L696.0,133.5 L696.3,147.6 L696.5,76.0 L696.7,125.1 L697.0,156.6 L697.2,93.3 L697.4,154.3 L697.7,115.3 L697.9,125.0 L698.1,90.1 L698.4,91.2 L698.6,85.7 L698.8,114.9 L699.1,137.0 L699.3,146.3 L699.5,136.2 L699.7,87.0 L700.0,108.8 L700.2,125.1 L700.4,157.3 L700.7,151.0 L700.9,134.3 L701.1,144.4 L701.4,129.6 L701.6,153.3 L701.8,159.9 L702.1,93.7 L702.3,110.5 L702.5,117.4 L702.8,84.2 L703.0,140.4 L703.2,142.3 L703.4,144.7 L703.7,100.9 L703.9,149.8 L704.1,85.9 L704.4,161.7 L704.6,114.6 L704.8,117.2 L705.1,114.9 L705.3,95.0 L705.5,81.4 L705.8,114.1 L706.0,90.7 L706.2,100.0 L706.5,133.9 L706.7,87.7 L706.9,94.0 L707.1,82.9 L707.4,122.9 L707.6,102.4 L707.8,141.9 L708.1,106.6 L708.3,113.8 L708.5,124.1 L708.8,110.0 L709.0,146.0 L709.2,164.0 L709.5,105.0 L709.7,126.5 L709.9,148.9 L710.2,104.6 L710.4,81.3 L710.6,137.9 L710.8,98.8 L711.1,129.2 L711.3,161.0 L711.5,121.2 L711.8,85.0 L712.0,161.4 L712.2,103.4 L712.5,148.7 L712.7,142.7 L712.9,98.4 L713.2,81.6 L713.4,165.6 L713.6,157.9 L713.9,112.7 L714.1,123.4 L714.3,150.2 L714.6,150.0 L714.8,93.2 L715.0,100.4 L715.2,153.0 L715.5,151.5 L715.7,83.0 L715.9,115.2 L716.2,155.5 L716.4,115.6 L716.6,132.0 L716.9,87.2 L717.1,164.3 L717.3,150.6 L717.6,126.5 L717.8,158.7 L718.0,134.7 L718.3,132.8 L718.5,90.4 L718.7,138.4 L718.9,150.3 L719.2,158.7 L719.4,94.6 L719.6,151.6 L719.9,137.6 L720.1,106.8 L720.3,131.8 L720.6,85.4 L720.8,103.0 L721.0,168.7 L721.3,127.0 L721.5,124.4 L721.7,110.1 L722.0,165.8 L722.2,161.4 L722.4,169.2 L722.6,160.2 L722.9,90.9 L723.1,152.8 L723.3,104.4 L723.6,144.7 L723.8,123.1 L724.0,132.6 L724.3,119.0 L724.5,99.9 L724.7,168.1 L725.0,126.7 L725.2,124.9 L725.4,126.2 L725.7,168.7 L725.9,99.3 L726.1,100.2 L726.3,117.6 L726.6,149.8 L726.8,149.6 L727.0,149.0 L727.3,166.1 L727.5,170.5 L727.7,145.0 L728.0,137.7 L728.2,111.2 L728.4,131.4 L728.7,111.5 L728.9,133.4 L729.1,122.4 L729.4,127.6 L729.6,134.1 L729.8,141.7 L730.1,160.6 L730.3,106.3 L730.5,162.8 L730.7,94.3 L731.0,165.0 L731.2,165.8 L731.4,124.5 L731.7,114.0 L731.9,110.1 L732.1,154.8 L732.4,111.4 L732.6,172.8 L732.8,123.9 L733.1,120.4 L733.3,131.3 L733.5,130.1 L733.8,141.4 L734.0,133.5 L734.2,151.6 L734.4,168.1 L734.7,142.0 L734.9,117.8 L735.1,175.0 L735.4,174.6 L735.6,112.6 L735.8,117.4 L736.1,113.7 L736.3,116.4 L736.5,96.9 L736.8,122.6 L737.0,165.5 L737.2,168.7 L737.5,103.2 L737.7,173.6 L737.9,139.3 L738.1,157.9 L738.4,156.4 L738.6,169.3 L738.8,134.0 L739.1,145.2 L739.3,165.2 L739.5,165.2 L739.8,121.0 L740.0,139.1 L740.2,138.2 L740.5,98.5 L740.7,114.5 L740.9,113.4 L741.2,147.0 L741.4,149.0 L741.6,120.0 L741.8,125.9 L742.1,100.6 L742.3,114.6 L742.5,166.4 L742.8,175.3 L743.0,166.5 L743.2,136.9 L743.5,163.8 L743.7,153.7 L743.9,125.7 L744.2,108.9 L744.4,144.9 L744.6,100.6 L744.9,106.6 L745.1,138.4 L745.3,160.9 L745.6,101.3 L745.8,104.3 L746.0,130.8 L746.2,119.1 L746.5,139.4 L746.7,173.2 L746.9,120.6 L747.2,180.2 L747.4,118.7 L747.6,128.3 L747.9,124.2 L748.1,175.3 L748.3,133.3 L748.6,148.8 L748.8,167.9 L749.0,143.9 L749.3,141.7 L749.5,131.5 L749.7,105.6 L749.9,148.2 L750.2,177.4 L750.4,151.0 L750.6,127.2 L750.9,125.6 L751.1,166.7 L751.3,119.9 L751.6,182.1 L751.8,158.2 L752.0,165.2 L752.3,137.7 L752.5,145.2 L752.7,112.1 L753.0,140.0 L753.2,152.5 L753.4,171.2 L753.6,137.0 L753.9,127.3 L754.1,156.8 L754.3,156.5 L754.6,174.2 L754.8,169.6 L755.0,129.6 L755.3,171.1 L755.5,180.9 L755.7,134.9 L756.0,157.5 L756.2,114.2 L756.4,171.3 L756.7,117.4 L756.9,111.9 L757.1,152.4 L757.3,183.2 L757.6,115.2 L757.8,184.0 L758.0,173.4 L758.3,134.7 L758.5,138.9 L758.7,122.5 L759.0,145.7 L759.2,139.8 L759.4,184.5 L759.7,159.1 L759.9,121.6 L760.1,123.3 L760.4,172.6 L760.6,138.1 L760.8,112.7 L761.0,146.3 L761.3,125.0 L761.5,157.4 L761.7,146.1 L762.0,125.7 L762.2,190.5 L762.4,126.9 L762.7,129.0 L762.9,153.3 L763.1,188.1 L763.4,142.8 L763.6,192.8 L763.8,132.6 L764.1,168.8 L764.3,166.5 L764.5,126.0 L764.8,162.8 L765.0,166.9 L765.2,186.6 L765.4,190.5 L765.7,192.2 L765.9,125.4 L766.1,120.1 L766.4,154.1 L766.6,184.3 L766.8,176.1 L767.1,129.6 L767.3,131.5 L767.5,126.6 L767.8,170.6 L768.0,184.7 L768.2,143.9 L768.5,187.6 L768.7,158.6 L768.9,134.4 L769.1,143.7 L769.4,193.8 L769.6,120.3 L769.8,178.8 L770.1,179.4 L770.3,135.2 L770.5,178.6 L770.8,130.1 L771.0,188.0 L771.2,178.8 L771.5,138.0 L771.7,125.8 L771.9,126.9 L772.2,176.6 L772.4,129.7 L772.6,155.2 L772.8,141.9 L773.1,191.6 L773.3,133.5 L773.5,146.3 L773.8,186.6 L774.0,200.4 L774.2,141.6 L774.5,175.5 L774.7,146.8 L774.9,183.2 L775.2,167.6 L775.4,134.9 L775.6,132.1 L775.9,172.6 L776.1,151.4 L776.3,145.6 L776.5,136.7 L776.8,193.4 L777.0,151.6 L777.2,134.9 L777.5,176.2 L777.7,179.8 L777.9,143.6 L778.2,170.8 L778.4,187.5 L778.6,178.2 L778.9,163.3 L779.1,191.4 L779.3,165.0 L779.6,158.2 L779.8,186.0 L780.0,130.5 L780.3,133.1 L780.5,162.3 L780.7,170.8 L780.9,140.8 L781.2,141.7 L781.4,170.7 L781.6,194.3 L781.9,206.0 L782.1,155.9 L782.3,143.3 L782.6,179.2 L782.8,179.1 L783.0,178.8 L783.3,150.2 L783.5,204.5 L783.7,156.9 L784.0,206.2 L784.2,162.7 L784.4,165.3 L784.6,187.9 L784.9,150.7 L785.1,192.4 L785.3,207.3 L785.6,187.8 L785.8,177.8 L786.0,167.0 L786.3,183.1 L786.5,153.4 L786.7,150.8 L787.0,154.3 L787.2,206.4 L787.4,203.3 L787.7,140.1 L787.9,170.7 L788.1,204.4 L788.3,192.0 L788.6,198.2 L788.8,191.5 L789.0,178.9 L789.3,173.0 L789.5,140.4 L789.7,195.6 L790.0,158.2 L790.2,166.0 L790.4,171.0 L790.7,167.0 L790.9,153.6 L791.1,149.6 L791.4,212.1 L791.6,155.1 L791.8,154.0 L792.0,175.1 L792.3,208.3 L792.5,208.4 L792.7,203.8 L793.0,201.2 L793.2,212.8 L793.4,147.5 L793.7,205.1 L793.9,161.2 L794.1,193.8 L794.4,189.9 L794.6,208.6 L794.8,193.9 L795.1,202.8 L795.3,207.1 L795.5,193.4 L795.8,163.9 L796.0,216.5 L796.2,160.6 L796.4,202.9 L796.7,215.9 L796.9,182.5 L797.1,202.7 L797.4,185.9 L797.6,163.8 L797.8,151.5 L798.1,167.5 L798.3,149.2 L798.5,151.2 L798.8,177.7 L799.0,162.2 L799.2,204.2 L799.5,190.5 L799.7,188.0 L799.9,158.9 L800.1,201.3 L800.4,165.7 L800.6,175.0 L800.8,159.8 L801.1,169.9 L801.3,218.2 L801.5,199.0 L801.8,182.1 L802.0,197.3 L802.2,165.3 L802.5,153.6 L802.7,214.2 L802.9,210.2 L803.2,206.7 L803.4,195.4 L803.6,197.7 L803.8,166.1 L804.1,182.7 L804.3,182.4 L804.5,202.1 L804.8,157.8 L805.0,210.5 L805.2,221.4 L805.5,211.0 L805.7,191.3 L805.9,166.1 L806.2,220.3 L806.4,185.3 L806.6,183.9 L806.9,226.8 L807.1,169.9 L807.3,209.4 L807.5,202.6 L807.8,179.9 L808.0,196.9 L808.2,180.0 L808.5,162.7 L808.7,189.9 L808.9,172.2 L809.2,197.6 L809.4,199.3 L809.6,177.2 L809.9,215.0 L810.1,186.6 L810.3,224.7 L810.6,192.0 L810.8,164.9 L811.0,196.1 L811.3,177.3 L811.5,189.2 L811.7,166.2 L811.9,181.0 L812.2,205.0 L812.4,176.1 L812.6,230.7 L812.9,230.2 L813.1,200.4 L813.3,164.3 L813.6,178.0 L813.8,167.0 L814.0,181.7 L814.3,184.1 L814.5,209.5 L814.7,214.2 L815.0,195.3 L815.2,226.2 L815.4,213.1 L815.6,228.4 L815.9,212.7 L816.1,218.2 L816.3,183.6 L816.6,227.1 L816.8,180.7 L817.0,212.6 L817.3,230.4 L817.5,197.4 L817.7,232.3 L818.0,220.5 L818.2,194.1 L818.4,217.4 L818.7,188.1 L818.9,218.6 L819.1,181.7 L819.3,192.6 L819.6,218.4 L819.8,197.7 L820.0,199.1 L820.3,200.8 L820.5,238.3 L820.7,190.6 L821.0,174.9 L821.2,211.2 L821.4,184.1 L821.7,211.9 L821.9,187.0 L822.1,241.2 L822.4,228.0 L822.6,205.9 L822.8,205.3 L823.0,240.5 L823.3,196.5 L823.5,202.8 L823.7,227.3 L824.0,221.3 L824.2,243.6 L824.4,242.8 L824.7,210.2 L824.9,229.9 L825.1,215.0 L825.4,231.1 L825.6,224.6 L825.8,202.1 L826.1,218.3 L826.3,200.6 L826.5,183.9 L826.8,205.7 L827.0,196.9 L827.2,202.5 L827.4,208.5 L827.7,180.8 L827.9,235.5 L828.1,203.5 L828.4,199.2 L828.6,192.0 L828.8,184.8 L829.1,197.6 L829.3,224.6 L829.5,220.8 L829.8,209.1 L830.0,183.8 L830.2,220.5 L830.5,211.2 L830.7,220.7 L830.9,187.3 L831.1,200.7 L831.4,225.4 L831.6,196.9 L831.8,215.9 L832.1,213.6 L832.3,239.3 L832.5,242.0 L832.8,235.1 L833.0,192.7 L833.2,249.9 L833.5,235.5 L833.7,218.5 L833.9,225.5 L834.2,223.1 L834.4,210.4 L834.6,193.4 L834.8,221.0 L835.1,222.8 L835.3,201.7 L835.5,228.3 L835.8,220.0 L836.0,207.7 L836.2,227.2 L836.5,215.5 L836.7,222.2 L836.9,238.5 L837.2,250.6 L837.4,237.6 L837.6,253.8 L837.9,215.5 L838.1,219.8 L838.3,221.0 L838.5,200.9 L838.8,227.0 L839.0,250.7 L839.2,238.2 L839.5,212.4 L839.7,216.5 L839.9,234.7 L840.2,258.4 L840.4,228.8 L840.6,254.5 L840.9,204.9 L841.1,201.2 L841.3,210.7 L841.6,213.4 L841.8,260.6 L842.0,247.6 L842.3,247.7 L842.5,229.5 L842.7,229.0 L842.9,220.3 L843.2,204.7 L843.4,237.0 L843.6,229.9 L843.9,215.3 L844.1,204.8 L844.3,227.5 L844.6,260.0 L844.8,232.8 L845.0,224.9 L845.3,256.9 L845.5,213.8 L845.7,241.5 L846.0,218.3 L846.2,211.5 L846.4,255.7 L846.6,258.4 L846.9,231.3 L847.1,251.2 L847.3,223.1 L847.6,246.6 L847.8,266.5 L848.0,240.3 L848.3,205.6 L848.5,223.4 L848.7,232.7 L849.0,206.4 L849.2,237.7 L849.4,231.9 L849.7,241.0 L849.9,256.0 L850.1,255.0 L850.3,256.2 L850.6,269.3 L850.8,245.1 L851.0,239.2 L851.3,215.9 L851.5,229.0 L851.7,267.5 L852.0,219.9 L852.2,213.5 L852.4,215.8 L852.7,249.0 L852.9,268.2 L853.1,252.4 L853.4,262.8 L853.6,252.3 L853.8,213.9 L854.0,229.7 L854.3,236.3 L854.5,245.0 L854.7,217.4 L855.0,270.3 L855.2,270.3 L855.4,264.8 L855.7,272.9 L855.9,249.9 L856.1,214.5 L856.4,244.5 L856.6,272.6 L856.8,252.1 L857.1,260.2 L857.3,230.7 L857.5,258.3 L857.7,224.5 L858.0,255.5 L858.2,253.2 L858.4,251.2 L858.7,266.6 L858.9,257.4 L859.1,221.6 L859.4,219.0 L859.6,265.5 L859.8,228.7 L860.1,227.4 L860.3,273.9 L860.5,246.1 L860.8,278.4 L861.0,247.1 L861.2,230.5 L861.5,272.2 L861.7,234.6 L861.9,251.3 L862.1,228.6 L862.4,257.3 L862.6,242.7 L862.8,262.2 L863.1,269.6 L863.3,251.4 L863.5,252.6 L863.8,235.0 L864.0,239.1 L864.2,241.8 L864.5,277.3 L864.7,246.6 L864.9,247.7 L865.2,244.8 L865.4,244.5 L865.6,273.3 L865.8,281.8 L866.1,285.0 L866.3,250.0 L866.5,229.2 L866.8,240.3 L867.0,263.9 L867.2,244.7 L867.5,248.9 L867.7,257.4 L867.9,229.6 L868.2,256.4 L868.4,264.0 L868.6,286.7 L868.9,235.4 L869.1,241.3 L869.3,254.0 L869.5,272.3 L869.8,255.5 L870.0,248.2 L870.2,270.9 L870.5,247.6 L870.7,265.5 L870.9,247.4 L871.2,285.3 L871.4,279.9 L871.6,270.1 L871.9,276.1 L872.1,275.4 L872.3,266.4 L872.6,281.0 L872.8,244.8 L873.0,261.6 L873.2,266.8 L873.5,248.7 L873.7,281.7 L873.9,252.3 L874.2,289.4 L874.4,244.5 L874.6,267.9 L874.9,270.5 L875.1,240.8 L875.3,277.4 L875.6,286.7 L875.8,280.7 L876.0,265.6 L876.3,288.9 L876.5,279.4 L876.7,247.4 L877.0,267.3 L877.2,268.9 L877.4,262.2 L877.6,279.8 L877.9,259.5 L878.1,244.9 L878.3,286.7 L878.6,246.9 L878.8,243.6 L879.0,298.1 L879.3,294.2 L879.5,259.8 L879.7,258.8 L880.0,288.5 L880.2,252.1 L880.4,260.0 L880.7,269.8 L880.9,266.6 L881.1,249.6 L881.3,294.3 L881.6,271.4 L881.8,291.7 L882.0,300.1 L882.3,280.8 L882.5,285.9 L882.7,288.4 L883.0,288.8 L883.2,280.6 L883.4,263.6 L883.7,281.4 L883.9,299.3 L884.1,264.9 L884.4,271.2 L884.6,266.0 L884.8,296.8 L885.0,289.3 L885.3,281.3 L885.5,288.6 L885.7,258.1 L886.0,263.7 L886.2,298.2 L886.4,277.9 L886.7,279.2 L886.9,296.3 L887.1,304.2 L887.4,284.0 L887.6,267.2 L887.8,265.5 L888.1,296.1 L888.3,285.3 L888.5,303.2 L888.7,270.1 L889.0,297.4 L889.2,289.7 L889.4,280.6 L889.7,264.8 L889.9,279.4 L890.1,262.7 L890.4,266.8 L890.6,286.7 L890.8,263.5 L891.1,288.3 L891.3,311.2 L891.5,312.4 L891.8,294.1 L892.0,277.9 L892.2,297.7 L892.5,290.8 L892.7,269.8 L892.9,276.3 L893.1,273.4 L893.4,287.6 L893.6,272.3 L893.8,300.5 L894.1,267.8 L894.3,296.5 L894.5,288.1 L894.8,267.9 L895.0,269.0 L895.2,279.8 L895.5,303.9 L895.7,295.8 L895.9,303.8 L896.2,289.9 L896.4,286.6 L896.6,294.8 L896.8,284.2 L897.1,276.3 L897.3,318.0 L897.5,279.5 L897.8,317.7 L898.0,318.3 L898.2,279.1 L898.5,308.7 L898.7,297.1 L898.9,296.9 L899.2,271.5 L899.4,303.8 L899.6,275.8 L899.9,319.6 L900.1,292.0 L900.3,275.2 L900.5,291.1 L900.8,322.8 L901.0,289.0 L901.2,313.6 L901.5,276.2 L901.7,279.9 L901.9,320.4 L902.2,309.7 L902.4,290.6 L902.6,284.6 L902.9,307.2 L903.1,301.1 L903.3,314.3 L903.6,288.0 L903.8,309.1 L904.0,290.0 L904.2,326.8 L904.5,292.3 L904.7,312.2 L904.9,318.5 L905.2,317.8 L905.4,305.1 L905.6,315.9 L905.9,285.2 L906.1,328.3 L906.3,281.2 L906.6,309.6 L906.8,300.2 L907.0,290.8 L907.3,324.5 L907.5,307.6 L907.7,311.2 L908.0,317.6 L908.2,324.7 L908.4,302.8 L908.6,331.0 L908.9,291.1 L909.1,330.6 L909.3,284.9 L909.6,300.2 L909.8,308.9 L910.0,289.5 L910.3,287.2 L910.5,310.8 L910.7,307.4 L911.0,289.9 L911.2,330.0 L911.4,305.6 L911.7,327.8 L911.9,318.5 L912.1,302.8 L912.3,290.6 L912.6,329.5 L912.8,295.8 L913.0,293.8 L913.3,303.7 L913.5,331.2 L913.7,314.5 L914.0,321.9 L914.2,325.5 L914.4,299.7 L914.7,327.8 L914.9,335.7 L915.1,329.9 L915.4,318.3 L915.6,296.9 L915.8,328.0 L916.0,304.6 L916.3,312.6 L916.5,323.4 L916.7,336.3 L917.0,299.6 L917.2,326.2 L917.4,338.2 L917.7,322.6 L917.9,326.5 L918.1,301.1 L918.4,323.6 L918.6,321.3 L918.8,341.7 L919.1,316.1 L919.3,314.5 L919.5,329.9 L919.7,318.1 L920.0,328.9 L920.2,342.8 L920.4,342.2 L920.7,327.6 L920.9,321.0 L921.1,336.0 L921.4,310.6 L921.6,331.0 L921.8,341.5 L922.1,314.7 L922.3,306.0 L922.5,323.5 L922.8,316.6 L923.0,338.3 L923.2,336.5 L923.5,335.3 L923.7,308.1 L923.9,322.1 L924.1,320.8 L924.4,313.0 L924.6,309.0 L924.8,310.5 L925.1,313.1 L925.3,349.0 L925.5,323.1 L925.8,308.6 L926.0,333.8 L926.2,337.7 L926.5,318.1 L926.7,326.1 L926.9,313.8 L927.2,339.5 L927.4,349.8 L927.6,315.2 L927.8,334.0 L928.1,341.0 L928.3,335.6 L928.5,330.8 L928.8,353.6 L929.0,316.0 L929.2,333.0 L929.5,335.1 L929.7,327.2 L929.9,343.0 L930.2,336.8 L930.4,341.0 L930.6,347.9 L930.9,333.2 L931.1,329.7 L931.3,319.8 L931.5,331.3 L931.8,356.2 L932.0,350.9 L932.2,321.7 L932.5,321.6 L932.7,343.4 L932.9,359.6 L933.2,357.2 L933.4,339.3 L933.6,345.2 L933.9,321.6 L934.1,343.1 L934.3,324.1 L934.6,343.5 L934.8,355.6 L935.0,359.2 L935.2,348.1 L935.5,356.3 L935.7,357.4 L935.9,362.6 L936.2,350.0 L936.4,360.6 L936.6,326.9 L936.9,351.3 L937.1,356.5 L937.3,327.8 L937.6,354.3 L937.8,356.6 L938.0,334.3 L938.3,358.2 L938.5,330.4 L938.7,348.5 L939.0,342.7 L939.2,343.7 L939.4,351.7 L939.6,362.2 L939.9,346.2 L940.1,335.2 L940.3,337.9 L940.6,346.9 L940.8,352.7 L941.0,357.3 L941.3,359.6 L941.5,334.8 L941.7,365.7 L942.0,364.9 L942.2,350.9 L942.4,362.1 L942.7,345.9 L942.9,353.9 L943.1,356.4 L943.3,339.2 L943.6,369.5 L943.8,357.8 L944.0,352.4 L944.3,348.4 L944.5,354.7 L944.7,354.0 L945.0,360.6 L945.2,350.7 L945.4,366.5 L945.7,348.1 L945.9,342.3 L946.1,351.0 L946.4,353.5 L946.6,361.7 L946.8,365.1 L947.0,353.7 L947.3,359.3 L947.5,354.3 L947.7,342.8 L948.0,359.3 L948.2,373.8 L948.4,364.1 L948.7,348.4 L948.9,364.6 L949.1,344.1 L949.4,374.5 L949.6,361.6 L949.8,369.2 L950.1,373.9 L950.3,355.5 L950.5,375.6 L950.7,379.4 L951.0,356.4 L951.2,353.2 L951.4,381.2 L951.7,359.9 L951.9,359.2 L952.1,364.2 L952.4,349.1 L952.6,372.2 L952.8,355.9 L953.1,354.4 L953.3,369.9 L953.5,367.5 L953.8,350.3 L954.0,373.3 L954.2,373.0 L954.4,349.5 L954.7,357.2 L954.9,383.1 L955.1,354.5 L955.4,383.1 L955.6,377.6 L955.8,366.0 L956.1,351.6 L956.3,357.3 L956.5,365.1 L956.8,358.6 L957.0,353.6 L957.2,356.3 L957.5,358.3 L957.7,355.5 L957.9,378.8 L958.2,362.0 L958.4,387.4 L958.6,378.9 L958.8,377.7 L959.1,356.0 L959.3,382.1 L959.5,357.2 L959.8,388.8 L960.0,372.7 L960.2,368.1 L960.5,357.5 L960.7,365.9 L960.9,366.3 L961.2,375.5 L961.4,363.8 L961.6,381.5 L961.9,391.2 L962.1,388.9 L962.3,363.9 L962.5,380.4 L962.8,385.2 L963.0,370.4 L963.2,362.7 L963.5,366.6 L963.7,383.1 L963.9,371.5 L964.2,369.9 L964.4,367.6 L964.6,374.0 L964.9,393.4 L965.1,388.9 L965.3,381.7 L965.6,369.3 L965.8,374.7 L966.0,387.9 L966.2,372.0 L966.5,380.8 L966.7,375.4 L966.9,384.4 L967.2,391.4 L967.4,375.4 L967.6,376.5 L967.9,378.7 L968.1,373.8 L968.3,396.1 L968.6,395.8 L968.8,398.9 L969.0,396.3 L969.3,392.5 L969.5,395.6 L969.7,379.6 L969.9,371.2 L970.2,373.8 L970.4,400.8 L970.6,377.1 L970.9,397.9 L971.1,380.1 L971.3,385.3 L971.6,382.4 L971.8,385.0 L972.0,403.3 L972.3,391.4 L972.5,404.7 L972.7,376.4 L973.0,404.9 L973.2,382.9 L973.4,380.5 L973.7,397.7 L973.9,386.0 L974.1,390.8 L974.3,390.0 L974.6,390.4 L974.8,393.8 L975.0,400.2 L975.3,399.8 L975.5,395.5 L975.7,405.6 L976.0,399.4 L976.2,391.9 L976.4,387.4 L976.7,385.4 L976.9,394.8 L977.1,382.1 L977.4,403.2 L977.6,400.6 L977.8,396.5 L978.0,407.3 L978.3,404.3 L978.5,389.2 L978.7,406.3 L979.0,411.3 L979.2,391.2 L979.4,402.0 L979.7,388.9 L979.9,404.6 L980.1,390.7 L980.4,409.4 L980.6,408.2 L980.8,395.8 L981.1,388.7 L981.3,397.7 L981.5,411.9 L981.7,408.9 L982.0,397.5 L982.2,401.7 L982.4,391.3 L982.7,414.3 L982.9,406.7 L983.1,416.0 L983.4,406.5 L983.6,391.6 L983.8,398.5 L984.1,394.9 L984.3,412.2 L984.5,416.7 L984.8,403.9 L985.0,413.7 L985.2,419.5 L985.4,399.0 L985.7,412.6 L985.9,415.6 L986.1,396.2 L986.4,405.3 L986.6,415.4 L986.8,418.9 L987.1,407.6 L987.3,399.3 L987.5,424.5 L987.8,403.5 L988.0,424.5 L988.2,411.6 L988.5,419.0 L988.7,409.8 L988.9,403.1 L989.2,417.3 L989.4,406.9 L989.6,423.4 L989.8,424.2 L990.1,415.5 L990.3,421.9 L990.5,422.4 L990.8,420.9 L991.0,410.9 L991.2,419.3 L991.5,421.8 L991.7,425.9 L991.9,404.4 L992.2,421.9 L992.4,424.1 L992.6,419.6 L992.9,421.8 L993.1,408.0 L993.3,416.2 L993.5,406.3 L993.8,422.6 L994.0,428.2 L994.2,409.5 L994.5,407.9 L994.7,430.7 L994.9,417.6 L995.2,420.8 L995.4,423.9 L995.6,433.7 L995.9,426.2 L996.1,427.5 L996.3,434.3 L996.6,435.0 L996.8,427.8 L997.0,416.1 L997.2,411.9 L997.5,426.7 L997.7,426.2 L997.9,430.4 L998.2,422.5 L998.4,430.1 L998.6,419.9 L998.9,421.8 L999.1,419.0 L999.3,431.9 L999.6,426.1 L999.8,429.0 L1000.0,435.5 L1000.3,419.3 L1000.5,431.6 L1000.7,421.4 L1000.9,429.4 L1001.2,424.3 L1001.4,419.3 L1001.6,436.5 L1001.9,423.5 L1002.1,420.8 L1002.3,428.2 L1002.6,421.1 L1002.8,435.9 L1003.0,430.3 L1003.3,420.6 L1003.5,426.3 L1003.7,424.3 L1004.0,428.2 L1004.2,439.9 L1004.4,428.6 L1004.7,425.8 L1004.9,427.8 L1005.1,431.9 L1005.3,432.5 L1005.6,428.8 L1005.8,443.3 L1006.0,432.5 L1006.3,438.2 L1006.5,427.2 L1006.7,446.7 L1007.0,430.6 L1007.2,437.1 L1007.4,436.1 L1007.7,445.8 L1007.9,438.0 L1008.1,437.3 L1008.4,444.0 L1008.6,441.9 L1008.8,435.1 L1009.0,449.1 L1009.3,433.0 L1009.5,446.1 L1009.7,432.8 L1010.0,447.4 L1010.2,431.4 L1010.4,438.4 L1010.7,447.7 L1010.9,441.2 L1011.1,434.1 L1011.4,449.7 L1011.6,450.5 L1011.8,444.9 L1012.1,445.5 L1012.3,454.2 L1012.5,452.1 L1012.7,448.4 L1013.0,440.5 L1013.2,453.7 L1013.4,455.0 L1013.7,449.1 L1013.9,450.8 L1014.1,456.5 L1014.4,450.3 L1014.6,451.7 L1014.8,446.5 L1015.1,452.7 L1015.3,457.5 L1015.5,456.1 L1015.8,449.9 L1016.0,457.6 L1016.2,455.8 L1016.4,446.8 L1016.7,452.8 L1016.9,446.4 L1017.1,457.6 L1017.4,455.7 L1017.6,442.2 L1017.8,454.2 L1018.1,458.4 L1018.3,459.1 L1018.5,456.5 L1018.8,450.1 L1019.0,448.4 L1019.2,455.6 L1019.5,460.2 L1019.7,457.3 L1019.9,458.3 L1020.2,458.6 L1020.4,450.6 L1020.6,463.9 L1020.8,462.9 L1021.1,451.8 L1021.3,455.7 L1021.5,448.6 L1021.8,461.2 L1022.0,460.9 L1022.2,456.3 L1022.5,459.7 L1022.7,462.3 L1022.9,465.1 L1023.2,458.0 L1023.4,455.9 L1023.6,461.4 L1023.9,468.6 L1024.1,459.5 L1024.3,462.1 L1024.5,467.4 L1024.8,463.4 L1025.0,469.5 L1025.2,458.5 L1025.5,469.1 L1025.7,456.1 L1025.9,459.6 L1026.2,458.5 L1026.4,458.9 L1026.6,466.8 L1026.9,461.2 L1027.1,467.0 L1027.3,458.6 L1027.6,463.0 L1027.8,460.5 L1028.0,466.9 L1028.2,464.2 L1028.5,474.4 L1028.7,466.3 L1028.9,465.3 L1029.2,465.3 L1029.4,473.9 L1029.6,463.4 L1029.9,471.7 L1030.1,469.3 L1030.3,473.2 L1030.6,464.2 L1030.8,463.3 L1031.0,463.5 L1031.3,468.3 L1031.5,468.9 L1031.7,471.5 L1031.9,471.8 L1032.2,468.9 L1032.4,474.9 L1032.6,471.1 L1032.9,468.5 L1033.1,466.9 L1033.3,473.4 L1033.6,479.8 L1033.8,471.6 L1034.0,472.8 L1034.3,473.3 L1034.5,474.1 L1034.7,479.8 L1035.0,474.6 L1035.2,479.5 L1035.4,474.5 L1035.7,472.8 L1035.9,473.2 L1036.1,482.1 L1036.3,473.8 L1036.6,478.6 L1036.8,480.7 L1037.0,484.3 L1037.3,471.9 L1037.5,482.5 L1037.7,476.8 L1038.0,484.7 L1038.2,482.6 L1038.4,485.2 L1038.7,477.5 L1038.9,478.6 L1039.1,484.1 L1039.4,480.7 L1039.6,483.8 L1039.8,480.5 L1040.0,485.7 L1040.3,485.7 L1040.5,489.1 L1040.7,488.0 L1041.0,483.7 L1041.2,489.0 L1041.4,478.7 L1041.7,486.3 L1041.9,487.3 L1042.1,484.1 L1042.4,489.9 L1042.6,481.6 L1042.8,482.6 L1043.1,481.5 L1043.3,487.7 L1043.5,483.8 L1043.7,487.6 L1044.0,492.8 L1044.2,488.9 L1044.4,493.5 L1044.7,493.5 L1044.9,485.3 L1045.1,488.3 L1045.4,488.2 L1045.6,489.1 L1045.8,492.3 L1046.1,496.3 L1046.3,489.1 L1046.5,486.2 L1046.8,490.7 L1047.0,495.5 L1047.2,492.4 L1047.4,497.6 L1047.7,495.7 L1047.9,489.1 L1048.1,498.9 L1048.4,496.7 L1048.6,489.6 L1048.8,494.6 L1049.1,493.9 L1049.3,498.4 L1049.5,494.3 L1049.8,495.2 L1050.0,498.7 L1050.2,498.0 L1050.5,494.2 L1050.7,498.5 L1050.9,494.8 L1051.1,501.2 L1051.4,498.4 L1051.6,502.1 L1051.8,501.7 L1052.1,499.1 L1052.3,495.5 L1052.5,503.6 L1052.8,502.8 L1053.0,501.9 L1053.2,503.1 L1053.5,500.7 L1053.7,500.3 L1053.9,505.9 L1054.2,505.1 L1054.4,500.6 L1054.6,504.6 L1054.9,500.3 L1055.1,502.5 L1055.3,506.7 L1055.5,507.1 L1055.8,500.8 L1056.0,506.8 L1056.2,505.8 L1056.5,502.2 L1056.7,506.7 L1056.9,507.0 L1057.2,509.8 L1057.4,509.7 L1057.6,503.7 L1057.9,510.6 L1058.1,510.9 L1058.3,509.3 L1058.6,505.6 L1058.8,511.5 L1059.0,505.8 L1059.2,512.9 L1059.5,508.8 L1059.7,513.4 L1059.9,512.6 L1060.2,507.0 L1060.4,512.3 L1060.6,513.5 L1060.9,510.9 L1061.1,514.5 L1061.3,512.7 L1061.6,510.7 L1061.8,512.5 L1062.0,515.9 L1062.3,516.1 L1062.5,513.0 L1062.7,512.6 L1062.9,512.1 L1063.2,515.4 L1063.4,512.7 L1063.6,512.6 L1063.9,518.3 L1064.1,517.7 L1064.3,517.0 L1064.6,516.0 L1064.8,516.7 L1065.0,518.3 L1065.3,519.6 L1065.5,515.0 L1065.7,520.3 L1066.0,519.3 L1066.2,518.6 L1066.4,518.6 L1066.6,521.1 L1066.9,520.5 L1067.1,518.1 L1067.3,521.9 L1067.6,519.9 L1067.8,522.9 L1068.0,521.2 L1068.3,520.4 L1068.5,524.4 L1068.7,524.6 L1069.0,524.5 L1069.2,523.4 L1069.4,524.9 L1069.7,523.5 L1069.9,526.3 L1070.1,523.5 L1070.4,524.0 L1070.6,522.5 L1070.8,524.3 L1071.0,526.4 L1071.3,524.9 L1071.5,525.3 L1071.7,525.1 L1072.0,526.4 L1072.2,528.8 L1072.4,529.5 L1072.7,528.5 L1072.9,526.7 L1073.1,530.1 L1073.4,527.1 L1073.6,529.2 L1073.8,530.4 L1074.1,530.7 L1074.3,528.8 L1074.5,531.8 L1074.7,532.3 L1075.0,529.8 L1075.2,531.0 L1075.4,532.3 L1075.7,533.2 L1075.9,532.7 L1076.1,532.7 L1076.4,533.7 L1076.6,533.2 L1076.8,533.7 L1077.1,533.1 L1077.3,533.2 L1077.5,533.4 L1077.8,535.3 L1078.0,536.1 L1078.2,536.7 L1078.4,536.9 L1078.7,536.2 L1078.9,535.4 L1079.1,537.4 L1079.4,537.5 L1079.6,537.5 L1079.8,538.3 L1080.1,539.1 L1080.3,539.2 L1080.5,538.2 L1080.8,539.4 L1081.0,538.9 L1081.2,539.3 L1081.5,540.4 L1081.7,540.0 L1081.9,540.0 L1082.1,540.8 L1082.4,542.0 L1082.6,541.3 L1082.8,541.6 L1083.1,542.8 L1083.3,543.0 L1083.5,543.0 L1083.8,543.2 L1084.0,543.6" fill="none" stroke="#1f77b4" stroke-width="1.4" opacity="0.85"/><text x="1040" y="54" fill="#ff7f0e" font-size="11">roll 0</text><text x="1090" y="558" fill="#ff7f0e" font-size="11">-0</text><path d="M616.0,388.0 L616.2,388.0 L616.5,388.0 L616.7,388.0 L616.9,232.0 L617.2,388.0 L617.4,544.0 L617.6,388.0 L617.9,544.0 L618.1,232.0 L618.3,388.0 L618.5,544.0 L618.8,232.0 L619.0,388.0 L619.2,388.0 L619.5,232.0 L619.7,544.0 L619.9,388.0 L620.2,388.0 L620.4,232.0 L620.6,388.0 L620.9,388.0 L621.1,388.0 L621.3,544.0 L621.6,388.0 L621.8,388.0 L622.0,388.0 L622.2,388.0 L622.5,232.0 L622.7,388.0 L622.9,388.0 L623.2,388.0 L623.4,232.0 L623.6,544.0 L623.9,544.0 L624.1,232.0 L624.3,388.0 L624.6,388.0 L624.8,232.0 L625.0,388.0 L625.3,232.0 L625.5,232.0 L625.7,544.0 L625.9,232.0 L626.2,232.0 L626.4,544.0 L626.6,388.0 L626.9,388.0 L627.1,388.0 L627.3,544.0 L627.6,388.0 L627.8,232.0 L628.0,388.0 L628.3,232.0 L628.5,232.0 L628.7,232.0 L629.0,544.0 L629.2,388.0 L629.4,232.0 L629.6,544.0 L629.9,388.0 L630.1,388.0 L630.3,388.0 L630.6,232.0 L630.8,388.0 L631.0,388.0 L631.3,388.0 L631.5,388.0 L631.7,388.0 L632.0,232.0 L632.2,388.0 L632.4,544.0 L632.7,232.0 L632.9,232.0 L633.1,388.0 L633.4,544.0 L633.6,388.0 L633.8,544.0 L634.0,232.0 L634.3,388.0 L634.5,388.0 L634.7,232.0 L635.0,544.0 L635.2,388.0 L635.4,388.0 L635.7,388.0 L635.9,388.0 L636.1,388.0 L636.4,544.0 L636.6,388.0 L636.8,544.0 L637.1,232.0 L637.3,544.0 L637.5,388.0 L637.7,388.0 L638.0,388.0 L638.2,388.0 L638.4,544.0 L638.7,388.0 L638.9,388.0 L639.1,544.0 L639.4,544.0 L639.6,232.0 L639.8,544.0 L640.1,388.0 L640.3,232.0 L640.5,388.0 L640.8,232.0 L641.0,232.0 L641.2,544.0 L641.4,232.0 L641.7,388.0 L641.9,232.0 L642.1,388.0 L642.4,232.0 L642.6,388.0 L642.8,544.0 L643.1,544.0 L643.3,388.0 L643.5,544.0 L643.8,388.0 L644.0,388.0 L644.2,544.0 L644.5,232.0 L644.7,388.0 L644.9,388.0 L645.1,544.0 L645.4,232.0 L645.6,232.0 L645.8,232.0 L646.1,544.0 L646.3,544.0 L646.5,388.0 L646.8,544.0 L647.0,388.0 L647.2,544.0 L647.5,544.0 L647.7,388.0 L647.9,544.0 L648.2,232.0 L648.4,388.0 L648.6,232.0 L648.9,232.0 L649.1,544.0 L649.3,388.0 L649.5,544.0 L649.8,232.0 L650.0,388.0 L650.2,232.0 L650.5,388.0 L650.7,388.0 L650.9,388.0 L651.2,544.0 L651.4,388.0 L651.6,544.0 L651.9,544.0 L652.1,544.0 L652.3,388.0 L652.6,388.0 L652.8,544.0 L653.0,388.0 L653.2,388.0 L653.5,388.0 L653.7,232.0 L653.9,544.0 L654.2,388.0 L654.4,388.0 L654.6,388.0 L654.9,388.0 L655.1,388.0 L655.3,388.0 L655.6,232.0 L655.8,388.0 L656.0,388.0 L656.3,388.0 L656.5,388.0 L656.7,388.0 L656.9,388.0 L657.2,388.0 L657.4,388.0 L657.6,388.0 L657.9,388.0 L658.1,544.0 L658.3,388.0 L658.6,388.0 L658.8,544.0 L659.0,388.0 L659.3,232.0 L659.5,232.0 L659.7,544.0 L660.0,388.0 L660.2,388.0 L660.4,232.0 L660.6,544.0 L660.9,544.0 L661.1,388.0 L661.3,232.0 L661.6,388.0 L661.8,232.0 L662.0,388.0 L662.3,388.0 L662.5,388.0 L662.7,232.0 L663.0,388.0 L663.2,388.0 L663.4,232.0 L663.7,232.0 L663.9,544.0 L664.1,544.0 L664.3,232.0 L664.6,388.0 L664.8,388.0 L665.0,232.0 L665.3,388.0 L665.5,388.0 L665.7,388.0 L666.0,388.0 L666.2,388.0 L666.4,544.0 L666.7,544.0 L666.9,544.0 L667.1,388.0 L667.4,388.0 L667.6,544.0 L667.8,388.0 L668.1,388.0 L668.3,388.0 L668.5,544.0 L668.7,388.0 L669.0,388.0 L669.2,232.0 L669.4,544.0 L669.7,388.0 L669.9,388.0 L670.1,544.0 L670.4,388.0 L670.6,388.0 L670.8,232.0 L671.1,232.0 L671.3,544.0 L671.5,544.0 L671.8,388.0 L672.0,232.0 L672.2,388.0 L672.4,232.0 L672.7,232.0 L672.9,388.0 L673.1,232.0 L673.4,232.0 L673.6,232.0 L673.8,388.0 L674.1,232.0 L674.3,544.0 L674.5,232.0 L674.8,388.0 L675.0,388.0 L675.2,388.0 L675.5,388.0 L675.7,388.0 L675.9,388.0 L676.1,388.0 L676.4,544.0 L676.6,388.0 L676.8,544.0 L677.1,544.0 L677.3,388.0 L677.5,232.0 L677.8,388.0 L678.0,544.0 L678.2,232.0 L678.5,232.0 L678.7,232.0 L678.9,232.0 L679.2,388.0 L679.4,544.0 L679.6,232.0 L679.8,232.0 L680.1,388.0 L680.3,388.0 L680.5,388.0 L680.8,232.0 L681.0,544.0 L681.2,232.0 L681.5,232.0 L681.7,388.0 L681.9,544.0 L682.2,544.0 L682.4,544.0 L682.6,544.0 L682.9,232.0 L683.1,388.0 L683.3,544.0 L683.6,544.0 L683.8,544.0 L684.0,388.0 L684.2,388.0 L684.5,388.0 L684.7,388.0 L684.9,232.0 L685.2,232.0 L685.4,544.0 L685.6,544.0 L685.9,388.0 L686.1,388.0 L686.3,388.0 L686.6,388.0 L686.8,544.0 L687.0,388.0 L687.3,388.0 L687.5,544.0 L687.7,388.0 L687.9,388.0 L688.2,388.0 L688.4,232.0 L688.6,388.0 L688.9,388.0 L689.1,544.0 L689.3,388.0 L689.6,544.0 L689.8,232.0 L690.0,544.0 L690.3,232.0 L690.5,544.0 L690.7,544.0 L691.0,232.0 L691.2,232.0 L691.4,388.0 L691.6,388.0 L691.9,388.0 L692.1,232.0 L692.3,544.0 L692.6,388.0 L692.8,388.0 L693.0,388.0 L693.3,232.0 L693.5,388.0 L693.7,232.0 L694.0,388.0 L694.2,544.0 L694.4,544.0 L694.7,388.0 L694.9,388.0 L695.1,388.0 L695.3,388.0 L695.6,388.0 L695.8,544.0 L696.0,388.0 L696.3,388.0 L696.5,232.0 L696.7,544.0 L697.0,388.0 L697.2,388.0 L697.4,232.0 L697.7,232.0 L697.9,388.0 L698.1,232.0 L698.4,232.0 L698.6,544.0 L698.8,388.0 L699.1,232.0 L699.3,544.0 L699.5,232.0 L699.7,232.0 L700.0,232.0 L700.2,388.0 L700.4,388.0 L700.7,388.0 L700.9,388.0 L701.1,388.0 L701.4,388.0 L701.6,388.0 L701.8,232.0 L702.1,388.0 L702.3,544.0 L702.5,388.0 L702.8,232.0 L703.0,232.0 L703.2,388.0 L703.4,544.0 L703.7,388.0 L703.9,232.0 L704.1,388.0 L704.4,388.0 L704.6,544.0 L704.8,388.0 L705.1,232.0 L705.3,388.0 L705.5,544.0 L705.8,388.0 L706.0,388.0 L706.2,388.0 L706.5,232.0 L706.7,544.0 L706.9,388.0 L707.1,232.0 L707.4,388.0 L707.6,232.0 L707.8,388.0 L708.1,388.0 L708.3,232.0 L708.5,388.0 L708.8,544.0 L709.0,388.0 L709.2,232.0 L709.5,388.0 L709.7,388.0 L709.9,388.0 L710.2,388.0 L710.4,232.0 L710.6,388.0 L710.8,388.0 L711.1,388.0 L711.3,388.0 L711.5,544.0 L711.8,232.0 L712.0,388.0 L712.2,544.0 L712.5,388.0 L712.7,388.0 L712.9,388.0 L713.2,544.0 L713.4,388.0 L713.6,544.0 L713.9,232.0 L714.1,388.0 L714.3,388.0 L714.6,232.0 L714.8,388.0 L715.0,232.0 L715.2,544.0 L715.5,232.0 L715.7,388.0 L715.9,232.0 L716.2,388.0 L716.4,388.0 L716.6,388.0 L716.9,232.0 L717.1,388.0 L717.3,544.0 L717.6,544.0 L717.8,232.0 L718.0,388.0 L718.3,232.0 L718.5,544.0 L718.7,232.0 L718.9,388.0 L719.2,544.0 L719.4,388.0 L719.6,232.0 L719.9,388.0 L720.1,232.0 L720.3,388.0 L720.6,544.0 L720.8,388.0 L721.0,232.0 L721.3,388.0 L721.5,388.0 L721.7,544.0 L722.0,388.0 L722.2,232.0 L722.4,232.0 L722.6,388.0 L722.9,388.0 L723.1,544.0 L723.3,232.0 L723.6,544.0 L723.8,232.0 L724.0,544.0 L724.3,232.0 L724.5,544.0 L724.7,544.0 L725.0,232.0 L725.2,388.0 L725.4,388.0 L725.7,232.0 L725.9,544.0 L726.1,388.0 L726.3,388.0 L726.6,388.0 L726.8,232.0 L727.0,388.0 L727.3,388.0 L727.5,388.0 L727.7,544.0 L728.0,388.0 L728.2,388.0 L728.4,388.0 L728.7,544.0 L728.9,388.0 L729.1,388.0 L729.4,388.0 L729.6,544.0 L729.8,232.0 L730.1,232.0 L730.3,544.0 L730.5,388.0 L730.7,388.0 L731.0,388.0 L731.2,232.0 L731.4,388.0 L731.7,388.0 L731.9,388.0 L732.1,388.0 L732.4,388.0 L732.6,388.0 L732.8,544.0 L733.1,388.0 L733.3,388.0 L733.5,544.0 L733.8,232.0 L734.0,388.0 L734.2,544.0 L734.4,232.0 L734.7,544.0 L734.9,388.0 L735.1,388.0 L735.4,544.0 L735.6,544.0 L735.8,388.0 L736.1,232.0 L736.3,388.0 L736.5,388.0 L736.8,388.0 L737.0,232.0 L737.2,388.0 L737.5,544.0 L737.7,388.0 L737.9,388.0 L738.1,388.0 L738.4,232.0 L738.6,388.0 L738.8,388.0 L739.1,544.0 L739.3,232.0 L739.5,388.0 L739.8,544.0 L740.0,232.0 L740.2,388.0 L740.5,232.0 L740.7,232.0 L740.9,232.0 L741.2,544.0 L741.4,388.0 L741.6,388.0 L741.8,388.0 L742.1,388.0 L742.3,388.0 L742.5,388.0 L742.8,388.0 L743.0,232.0 L743.2,544.0 L743.5,232.0 L743.7,388.0 L743.9,232.0 L744.2,232.0 L744.4,388.0 L744.6,232.0 L744.9,388.0 L745.1,232.0 L745.3,388.0 L745.6,388.0 L745.8,544.0 L746.0,232.0 L746.2,388.0 L746.5,388.0 L746.7,388.0 L746.9,388.0 L747.2,232.0 L747.4,388.0 L747.6,232.0 L747.9,388.0 L748.1,232.0 L748.3,544.0 L748.6,388.0 L748.8,544.0 L749.0,388.0 L749.3,544.0 L749.5,232.0 L749.7,388.0 L749.9,544.0 L750.2,388.0 L750.4,232.0 L750.6,232.0 L750.9,544.0 L751.1,232.0 L751.3,388.0 L751.6,544.0 L751.8,544.0 L752.0,544.0 L752.3,232.0 L752.5,544.0 L752.7,232.0 L753.0,388.0 L753.2,388.0 L753.4,388.0 L753.6,232.0 L753.9,232.0 L754.1,388.0 L754.3,388.0 L754.6,232.0 L754.8,388.0 L755.0,388.0 L755.3,388.0 L755.5,388.0 L755.7,232.0 L756.0,388.0 L756.2,544.0 L756.4,76.0 L756.7,388.0 L756.9,388.0 L757.1,388.0 L757.3,232.0 L757.6,544.0 L757.8,232.0 L758.0,232.0 L758.3,388.0 L758.5,232.0 L758.7,544.0 L759.0,388.0 L759.2,388.0 L759.4,232.0 L759.7,544.0 L759.9,388.0 L760.1,388.0 L760.4,232.0 L760.6,544.0 L760.8,544.0 L761.0,232.0 L761.3,388.0 L761.5,544.0 L761.7,232.0 L762.0,388.0 L762.2,232.0 L762.4,388.0 L762.7,544.0 L762.9,388.0 L763.1,388.0 L763.4,388.0 L763.6,232.0 L763.8,544.0 L764.1,76.0 L764.3,388.0 L764.5,388.0 L764.8,232.0 L765.0,232.0 L765.2,232.0 L765.4,232.0 L765.7,388.0 L765.9,232.0 L766.1,388.0 L766.4,232.0 L766.6,232.0 L766.8,232.0 L767.1,232.0 L767.3,388.0 L767.5,388.0 L767.8,232.0 L768.0,232.0 L768.2,232.0 L768.5,388.0 L768.7,232.0 L768.9,232.0 L769.1,232.0 L769.4,544.0 L769.6,388.0 L769.8,388.0 L770.1,232.0 L770.3,388.0 L770.5,232.0 L770.8,388.0 L771.0,388.0 L771.2,232.0 L771.5,544.0 L771.7,388.0 L771.9,388.0 L772.2,388.0 L772.4,388.0 L772.6,232.0 L772.8,388.0 L773.1,232.0 L773.3,232.0 L773.5,544.0 L773.8,232.0 L774.0,544.0 L774.2,544.0 L774.5,388.0 L774.7,232.0 L774.9,388.0 L775.2,388.0 L775.4,232.0 L775.6,388.0 L775.9,388.0 L776.1,232.0 L776.3,388.0 L776.5,388.0 L776.8,232.0 L777.0,232.0 L777.2,388.0 L777.5,388.0 L777.7,544.0 L777.9,232.0 L778.2,544.0 L778.4,388.0 L778.6,388.0 L778.9,388.0 L779.1,388.0 L779.3,388.0 L779.6,544.0 L779.8,232.0 L780.0,232.0 L780.3,388.0 L780.5,232.0 L780.7,544.0 L780.9,232.0 L781.2,388.0 L781.4,388.0 L781.6,388.0 L781.9,232.0 L782.1,232.0 L782.3,232.0 L782.6,232.0 L782.8,232.0 L783.0,544.0 L783.3,388.0 L783.5,388.0 L783.7,388.0 L784.0,232.0 L784.2,388.0 L784.4,544.0 L784.6,388.0 L784.9,388.0 L785.1,232.0 L785.3,388.0 L785.6,388.0 L785.8,388.0 L786.0,544.0 L786.3,232.0 L786.5,388.0 L786.7,388.0 L787.0,388.0 L787.2,232.0 L787.4,388.0 L787.7,544.0 L787.9,388.0 L788.1,388.0 L788.3,544.0 L788.6,232.0 L788.8,544.0 L789.0,388.0 L789.3,388.0 L789.5,232.0 L789.7,544.0 L790.0,388.0 L790.2,388.0 L790.4,388.0 L790.7,232.0 L790.9,544.0 L791.1,388.0 L791.4,232.0 L791.6,544.0 L791.8,388.0 L792.0,388.0 L792.3,388.0 L792.5,388.0 L792.7,544.0 L793.0,232.0 L793.2,544.0 L793.4,232.0 L793.7,544.0 L793.9,232.0 L794.1,544.0 L794.4,232.0 L794.6,544.0 L794.8,388.0 L795.1,388.0 L795.3,388.0 L795.5,232.0 L795.8,544.0 L796.0,232.0 L796.2,388.0 L796.4,232.0 L796.7,232.0 L796.9,388.0 L797.1,232.0 L797.4,388.0 L797.6,388.0 L797.8,388.0 L798.1,388.0 L798.3,232.0 L798.5,388.0 L798.8,388.0 L799.0,388.0 L799.2,388.0 L799.5,544.0 L799.7,388.0 L799.9,232.0 L800.1,388.0 L800.4,388.0 L800.6,544.0 L800.8,388.0 L801.1,388.0 L801.3,232.0 L801.5,388.0 L801.8,544.0 L802.0,388.0 L802.2,388.0 L802.5,544.0 L802.7,232.0 L802.9,388.0 L803.2,544.0 L803.4,544.0 L803.6,232.0 L803.8,388.0 L804.1,232.0 L804.3,544.0 L804.5,544.0 L804.8,232.0 L805.0,544.0 L805.2,544.0 L805.5,388.0 L805.7,232.0 L805.9,544.0 L806.2,544.0 L806.4,388.0 L806.6,232.0 L806.9,232.0 L807.1,388.0 L807.3,544.0 L807.5,388.0 L807.8,388.0 L808.0,544.0 L808.2,388.0 L808.5,232.0 L808.7,544.0 L808.9,232.0 L809.2,544.0 L809.4,232.0 L809.6,388.0 L809.9,388.0 L810.1,232.0 L810.3,232.0 L810.6,388.0 L810.8,388.0 L811.0,388.0 L811.3,544.0 L811.5,388.0 L811.7,544.0 L811.9,232.0 L812.2,232.0 L812.4,388.0 L812.6,544.0 L812.9,388.0 L813.1,232.0 L813.3,388.0 L813.6,544.0 L813.8,232.0 L814.0,388.0 L814.3,388.0 L814.5,544.0 L814.7,544.0 L815.0,232.0 L815.2,388.0 L815.4,388.0 L815.6,232.0 L815.9,388.0 L816.1,388.0 L816.3,388.0 L816.6,388.0 L816.8,544.0 L817.0,388.0 L817.3,388.0 L817.5,388.0 L817.7,544.0 L818.0,388.0 L818.2,544.0 L818.4,544.0 L818.7,544.0 L818.9,388.0 L819.1,232.0 L819.3,544.0 L819.6,232.0 L819.8,388.0 L820.0,544.0 L820.3,388.0 L820.5,544.0 L820.7,388.0 L821.0,388.0 L821.2,388.0 L821.4,232.0 L821.7,544.0 L821.9,388.0 L822.1,388.0 L822.4,544.0 L822.6,232.0 L822.8,388.0 L823.0,544.0 L823.3,388.0 L823.5,544.0 L823.7,388.0 L824.0,544.0 L824.2,232.0 L824.4,544.0 L824.7,388.0 L824.9,388.0 L825.1,388.0 L825.4,388.0 L825.6,232.0 L825.8,388.0 L826.1,388.0 L826.3,388.0 L826.5,388.0 L826.8,232.0 L827.0,232.0 L827.2,388.0 L827.4,232.0 L827.7,388.0 L827.9,388.0 L828.1,232.0 L828.4,388.0 L828.6,232.0 L828.8,388.0 L829.1,388.0 L829.3,388.0 L829.5,388.0 L829.8,388.0 L830.0,388.0 L830.2,388.0 L830.5,388.0 L830.7,388.0 L830.9,544.0 L831.1,544.0 L831.4,388.0 L831.6,232.0 L831.8,544.0 L832.1,388.0 L832.3,232.0 L832.5,544.0 L832.8,388.0 L833.0,544.0 L833.2,232.0 L833.5,388.0 L833.7,388.0 L833.9,388.0 L834.2,544.0 L834.4,388.0 L834.6,232.0 L834.8,232.0 L835.1,388.0 L835.3,388.0 L835.5,232.0 L835.8,388.0 L836.0,232.0 L836.2,544.0 L836.5,388.0 L836.7,232.0 L836.9,544.0 L837.2,544.0 L837.4,232.0 L837.6,388.0 L837.9,544.0 L838.1,544.0 L838.3,544.0 L838.5,232.0 L838.8,544.0 L839.0,388.0 L839.2,388.0 L839.5,544.0 L839.7,232.0 L839.9,232.0 L840.2,388.0 L840.4,388.0 L840.6,388.0 L840.9,388.0 L841.1,388.0 L841.3,544.0 L841.6,232.0 L841.8,232.0 L842.0,232.0 L842.3,544.0 L842.5,544.0 L842.7,388.0 L842.9,388.0 L843.2,232.0 L843.4,232.0 L843.6,388.0 L843.9,232.0 L844.1,232.0 L844.3,232.0 L844.6,388.0 L844.8,232.0 L845.0,232.0 L845.3,388.0 L845.5,388.0 L845.7,388.0 L846.0,388.0 L846.2,232.0 L846.4,388.0 L846.6,388.0 L846.9,544.0 L847.1,232.0 L847.3,388.0 L847.6,388.0 L847.8,388.0 L848.0,388.0 L848.3,388.0 L848.5,388.0 L848.7,388.0 L849.0,232.0 L849.2,388.0 L849.4,388.0 L849.7,388.0 L849.9,388.0 L850.1,232.0 L850.3,232.0 L850.6,388.0 L850.8,544.0 L851.0,388.0 L851.3,388.0 L851.5,232.0 L851.7,388.0 L852.0,388.0 L852.2,388.0 L852.4,388.0 L852.7,232.0 L852.9,544.0 L853.1,388.0 L853.4,388.0 L853.6,544.0 L853.8,388.0 L854.0,544.0 L854.3,388.0 L854.5,544.0 L854.7,544.0 L855.0,232.0 L855.2,232.0 L855.4,232.0 L855.7,544.0 L855.9,232.0 L856.1,388.0 L856.4,388.0 L856.6,232.0 L856.8,388.0 L857.1,388.0 L857.3,388.0 L857.5,388.0 L857.7,388.0 L858.0,388.0 L858.2,388.0 L858.4,388.0 L858.7,544.0 L858.9,388.0 L859.1,544.0 L859.4,232.0 L859.6,388.0 L859.8,388.0 L860.1,544.0 L860.3,544.0 L860.5,232.0 L860.8,388.0 L861.0,388.0 L861.2,388.0 L861.5,544.0 L861.7,544.0 L861.9,388.0 L862.1,388.0 L862.4,232.0 L862.6,232.0 L862.8,544.0 L863.1,388.0 L863.3,232.0 L863.5,388.0 L863.8,388.0 L864.0,388.0 L864.2,232.0 L864.5,388.0 L864.7,388.0 L864.9,388.0 L865.2,388.0 L865.4,388.0 L865.6,388.0 L865.8,388.0 L866.1,232.0 L866.3,388.0 L866.5,388.0 L866.8,232.0 L867.0,232.0 L867.2,232.0 L867.5,232.0 L867.7,544.0 L867.9,388.0 L868.2,388.0 L868.4,388.0 L868.6,388.0 L868.9,388.0 L869.1,388.0 L869.3,388.0 L869.5,544.0 L869.8,232.0 L870.0,388.0 L870.2,388.0 L870.5,388.0 L870.7,388.0 L870.9,388.0 L871.2,232.0 L871.4,388.0 L871.6,388.0 L871.9,388.0 L872.1,232.0 L872.3,232.0 L872.6,232.0 L872.8,388.0 L873.0,232.0 L873.2,544.0 L873.5,388.0 L873.7,232.0 L873.9,232.0 L874.2,388.0 L874.4,232.0 L874.6,388.0 L874.9,544.0 L875.1,232.0 L875.3,544.0 L875.6,388.0 L875.8,544.0 L876.0,232.0 L876.3,388.0 L876.5,544.0 L876.7,544.0 L877.0,544.0 L877.2,388.0 L877.4,388.0 L877.6,232.0 L877.9,544.0 L878.1,388.0 L878.3,388.0 L878.6,388.0 L878.8,388.0 L879.0,232.0 L879.3,388.0 L879.5,232.0 L879.7,232.0 L880.0,388.0 L880.2,544.0 L880.4,544.0 L880.7,544.0 L880.9,544.0 L881.1,232.0 L881.3,388.0 L881.6,388.0 L881.8,388.0 L882.0,388.0 L882.3,388.0 L882.5,232.0 L882.7,232.0 L883.0,388.0 L883.2,388.0 L883.4,388.0 L883.7,388.0 L883.9,232.0 L884.1,544.0 L884.4,232.0 L884.6,544.0 L884.8,232.0 L885.0,388.0 L885.3,544.0 L885.5,232.0 L885.7,388.0 L886.0,388.0 L886.2,232.0 L886.4,544.0 L886.7,232.0 L886.9,544.0 L887.1,388.0 L887.4,544.0 L887.6,544.0 L887.8,232.0 L888.1,388.0 L888.3,544.0 L888.5,388.0 L888.7,388.0 L889.0,544.0 L889.2,388.0 L889.4,232.0 L889.7,544.0 L889.9,388.0 L890.1,388.0 L890.4,388.0 L890.6,388.0 L890.8,544.0 L891.1,388.0 L891.3,388.0 L891.5,232.0 L891.8,232.0 L892.0,544.0 L892.2,544.0 L892.5,388.0 L892.7,544.0 L892.9,232.0 L893.1,544.0 L893.4,232.0 L893.6,388.0 L893.8,232.0 L894.1,388.0 L894.3,388.0 L894.5,544.0 L894.8,544.0 L895.0,388.0 L895.2,544.0 L895.5,232.0 L895.7,388.0 L895.9,232.0 L896.2,232.0 L896.4,544.0 L896.6,388.0 L896.8,388.0 L897.1,388.0 L897.3,232.0 L897.5,232.0 L897.8,544.0 L898.0,232.0 L898.2,544.0 L898.5,232.0 L898.7,544.0 L898.9,232.0 L899.2,544.0 L899.4,232.0 L899.6,388.0 L899.9,388.0 L900.1,388.0 L900.3,232.0 L900.5,388.0 L900.8,544.0 L901.0,388.0 L901.2,388.0 L901.5,232.0 L901.7,544.0 L901.9,232.0 L902.2,388.0 L902.4,388.0 L902.6,388.0 L902.9,388.0 L903.1,388.0 L903.3,232.0 L903.6,544.0 L903.8,388.0 L904.0,544.0 L904.2,388.0 L904.5,544.0 L904.7,232.0 L904.9,388.0 L905.2,232.0 L905.4,544.0 L905.6,232.0 L905.9,232.0 L906.1,388.0 L906.3,388.0 L906.6,388.0 L906.8,388.0 L907.0,232.0 L907.3,388.0 L907.5,232.0 L907.7,388.0 L908.0,388.0 L908.2,388.0 L908.4,388.0 L908.6,388.0 L908.9,388.0 L909.1,388.0 L909.3,232.0 L909.6,388.0 L909.8,544.0 L910.0,388.0 L910.3,544.0 L910.5,388.0 L910.7,388.0 L911.0,388.0 L911.2,544.0 L911.4,232.0 L911.7,388.0 L911.9,232.0 L912.1,544.0 L912.3,232.0 L912.6,388.0 L912.8,388.0 L913.0,388.0 L913.3,232.0 L913.5,544.0 L913.7,388.0 L914.0,388.0 L914.2,388.0 L914.4,544.0 L914.7,232.0 L914.9,388.0 L915.1,388.0 L915.4,388.0 L915.6,544.0 L915.8,544.0 L916.0,388.0 L916.3,544.0 L916.5,544.0 L916.7,544.0 L917.0,388.0 L917.2,388.0 L917.4,232.0 L917.7,544.0 L917.9,544.0 L918.1,388.0 L918.4,388.0 L918.6,544.0 L918.8,232.0 L919.1,388.0 L919.3,232.0 L919.5,388.0 L919.7,388.0 L920.0,232.0 L920.2,388.0 L920.4,232.0 L920.7,544.0 L920.9,232.0 L921.1,544.0 L921.4,388.0 L921.6,388.0 L921.8,388.0 L922.1,232.0 L922.3,388.0 L922.5,388.0 L922.8,388.0 L923.0,544.0 L923.2,388.0 L923.5,388.0 L923.7,232.0 L923.9,544.0 L924.1,388.0 L924.4,388.0 L924.6,388.0 L924.8,388.0 L925.1,544.0 L925.3,388.0 L925.5,232.0 L925.8,388.0 L926.0,544.0 L926.2,544.0 L926.5,388.0 L926.7,544.0 L926.9,388.0 L927.2,544.0 L927.4,388.0 L927.6,544.0 L927.8,232.0 L928.1,388.0 L928.3,388.0 L928.5,544.0 L928.8,388.0 L929.0,544.0 L929.2,388.0 L929.5,388.0 L929.7,388.0 L929.9,544.0 L930.2,388.0 L930.4,544.0 L930.6,388.0 L930.9,388.0 L931.1,388.0 L931.3,388.0 L931.5,544.0 L931.8,388.0 L932.0,544.0 L932.2,232.0 L932.5,388.0 L932.7,232.0 L932.9,544.0 L933.2,388.0 L933.4,388.0 L933.6,388.0 L933.9,388.0 L934.1,388.0 L934.3,388.0 L934.6,388.0 L934.8,388.0 L935.0,388.0 L935.2,388.0 L935.5,388.0 L935.7,232.0 L935.9,544.0 L936.2,232.0 L936.4,232.0 L936.6,544.0 L936.9,388.0 L937.1,232.0 L937.3,388.0 L937.6,232.0 L937.8,544.0 L938.0,388.0 L938.3,388.0 L938.5,388.0 L938.7,544.0 L939.0,232.0 L939.2,388.0 L939.4,388.0 L939.6,544.0 L939.9,388.0 L940.1,388.0 L940.3,388.0 L940.6,388.0 L940.8,232.0 L941.0,544.0 L941.3,388.0 L941.5,388.0 L941.7,232.0 L942.0,388.0 L942.2,388.0 L942.4,544.0 L942.7,544.0 L942.9,388.0 L943.1,388.0 L943.3,232.0 L943.6,388.0 L943.8,544.0 L944.0,232.0 L944.3,232.0 L944.5,544.0 L944.7,232.0 L945.0,388.0 L945.2,544.0 L945.4,388.0 L945.7,388.0 L945.9,232.0 L946.1,544.0 L946.4,544.0 L946.6,232.0 L946.8,544.0 L947.0,388.0 L947.3,388.0 L947.5,388.0 L947.7,544.0 L948.0,232.0 L948.2,388.0 L948.4,544.0 L948.7,544.0 L948.9,388.0 L949.1,388.0 L949.4,388.0 L949.6,388.0 L949.8,388.0 L950.1,388.0 L950.3,232.0 L950.5,544.0 L950.7,388.0 L951.0,388.0 L951.2,232.0 L951.4,544.0 L951.7,388.0 L951.9,544.0 L952.1,232.0 L952.4,232.0 L952.6,388.0 L952.8,388.0 L953.1,544.0 L953.3,388.0 L953.5,232.0 L953.8,544.0 L954.0,388.0 L954.2,232.0 L954.4,544.0 L954.7,232.0 L954.9,388.0 L955.1,388.0 L955.4,544.0 L955.6,232.0 L955.8,544.0 L956.1,232.0 L956.3,388.0 L956.5,388.0 L956.8,232.0 L957.0,544.0 L957.2,388.0 L957.5,388.0 L957.7,232.0 L957.9,232.0 L958.2,232.0 L958.4,232.0 L958.6,388.0 L958.8,388.0 L959.1,388.0 L959.3,388.0 L959.5,388.0 L959.8,388.0 L960.0,388.0 L960.2,388.0 L960.5,232.0 L960.7,388.0 L960.9,388.0 L961.2,544.0 L961.4,544.0 L961.6,544.0 L961.9,232.0 L962.1,544.0 L962.3,388.0 L962.5,388.0 L962.8,544.0 L963.0,232.0 L963.2,544.0 L963.5,388.0 L963.7,388.0 L963.9,388.0 L964.2,232.0 L964.4,388.0 L964.6,388.0 L964.9,388.0 L965.1,232.0 L965.3,232.0 L965.6,544.0 L965.8,388.0 L966.0,388.0 L966.2,544.0 L966.5,388.0 L966.7,388.0 L966.9,232.0 L967.2,544.0 L967.4,232.0 L967.6,544.0 L967.9,388.0 L968.1,232.0 L968.3,388.0 L968.6,232.0 L968.8,544.0 L969.0,388.0 L969.3,232.0 L969.5,232.0 L969.7,388.0 L969.9,388.0 L970.2,232.0 L970.4,388.0 L970.6,544.0 L970.9,388.0 L971.1,544.0 L971.3,388.0 L971.6,544.0 L971.8,388.0 L972.0,388.0 L972.3,544.0 L972.5,388.0 L972.7,232.0 L973.0,544.0 L973.2,232.0 L973.4,388.0 L973.7,388.0 L973.9,232.0 L974.1,544.0 L974.3,388.0 L974.6,544.0 L974.8,232.0 L975.0,388.0 L975.3,232.0 L975.5,388.0 L975.7,388.0 L976.0,544.0 L976.2,388.0 L976.4,544.0 L976.7,232.0 L976.9,388.0 L977.1,232.0 L977.4,388.0 L977.6,388.0 L977.8,232.0 L978.0,388.0 L978.3,388.0 L978.5,388.0 L978.7,388.0 L979.0,388.0 L979.2,388.0 L979.4,544.0 L979.7,388.0 L979.9,388.0 L980.1,388.0 L980.4,232.0 L980.6,388.0 L980.8,232.0 L981.1,388.0 L981.3,388.0 L981.5,232.0 L981.7,388.0 L982.0,544.0 L982.2,388.0 L982.4,232.0 L982.7,544.0 L982.9,544.0 L983.1,232.0 L983.4,232.0 L983.6,388.0 L983.8,388.0 L984.1,388.0 L984.3,388.0 L984.5,232.0 L984.8,388.0 L985.0,388.0 L985.2,544.0 L985.4,232.0 L985.7,388.0 L985.9,388.0 L986.1,388.0 L986.4,232.0 L986.6,388.0 L986.8,544.0 L987.1,232.0 L987.3,388.0 L987.5,232.0 L987.8,544.0 L988.0,388.0 L988.2,232.0 L988.5,388.0 L988.7,232.0 L988.9,388.0 L989.2,388.0 L989.4,388.0 L989.6,388.0 L989.8,232.0 L990.1,388.0 L990.3,544.0 L990.5,232.0 L990.8,232.0 L991.0,388.0 L991.2,232.0 L991.5,388.0 L991.7,388.0 L991.9,544.0 L992.2,388.0 L992.4,232.0 L992.6,388.0 L992.9,232.0 L993.1,544.0 L993.3,388.0 L993.5,388.0 L993.8,388.0 L994.0,388.0 L994.2,388.0 L994.5,232.0 L994.7,544.0 L994.9,232.0 L995.2,388.0 L995.4,544.0 L995.6,388.0 L995.9,544.0 L996.1,388.0 L996.3,544.0 L996.6,232.0 L996.8,544.0 L997.0,544.0 L997.2,388.0 L997.5,388.0 L997.7,388.0 L997.9,388.0 L998.2,388.0 L998.4,388.0 L998.6,232.0 L998.9,388.0 L999.1,388.0 L999.3,388.0 L999.6,388.0 L999.8,544.0 L1000.0,388.0 L1000.3,544.0 L1000.5,232.0 L1000.7,388.0 L1000.9,388.0 L1001.2,388.0 L1001.4,388.0 L1001.6,544.0 L1001.9,232.0 L1002.1,544.0 L1002.3,232.0 L1002.6,232.0 L1002.8,388.0 L1003.0,388.0 L1003.3,544.0 L1003.5,388.0 L1003.7,388.0 L1004.0,232.0 L1004.2,388.0 L1004.4,388.0 L1004.7,232.0 L1004.9,388.0 L1005.1,388.0 L1005.3,388.0 L1005.6,544.0 L1005.8,388.0 L1006.0,388.0 L1006.3,388.0 L1006.5,388.0 L1006.7,388.0 L1007.0,544.0 L1007.2,388.0 L1007.4,388.0 L1007.7,232.0 L1007.9,544.0 L1008.1,388.0 L1008.4,388.0 L1008.6,544.0 L1008.8,388.0 L1009.0,388.0 L1009.3,232.0 L1009.5,232.0 L1009.7,232.0 L1010.0,232.0 L1010.2,388.0 L1010.4,232.0 L1010.7,544.0 L1010.9,232.0 L1011.1,388.0 L1011.4,388.0 L1011.6,544.0 L1011.8,232.0 L1012.1,544.0 L1012.3,388.0 L1012.5,388.0 L1012.7,544.0 L1013.0,388.0 L1013.2,388.0 L1013.4,388.0 L1013.7,232.0 L1013.9,544.0 L1014.1,388.0 L1014.4,544.0 L1014.6,232.0 L1014.8,544.0 L1015.1,544.0 L1015.3,232.0 L1015.5,388.0 L1015.8,232.0 L1016.0,388.0 L1016.2,544.0 L1016.4,388.0 L1016.7,388.0 L1016.9,388.0 L1017.1,544.0 L1017.4,388.0 L1017.6,232.0 L1017.8,544.0 L1018.1,388.0 L1018.3,388.0 L1018.5,232.0 L1018.8,388.0 L1019.0,544.0 L1019.2,232.0 L1019.5,544.0 L1019.7,544.0 L1019.9,388.0 L1020.2,544.0 L1020.4,232.0 L1020.6,388.0 L1020.8,388.0 L1021.1,388.0 L1021.3,232.0 L1021.5,544.0 L1021.8,232.0 L1022.0,544.0 L1022.2,388.0 L1022.5,388.0 L1022.7,232.0 L1022.9,388.0 L1023.2,232.0 L1023.4,544.0 L1023.6,232.0 L1023.9,544.0 L1024.1,388.0 L1024.3,232.0 L1024.5,388.0 L1024.8,388.0 L1025.0,388.0 L1025.2,544.0 L1025.5,232.0 L1025.7,544.0 L1025.9,388.0 L1026.2,232.0 L1026.4,232.0 L1026.6,388.0 L1026.9,388.0 L1027.1,232.0 L1027.3,544.0 L1027.6,232.0 L1027.8,388.0 L1028.0,388.0 L1028.2,388.0 L1028.5,388.0 L1028.7,544.0 L1028.9,388.0 L1029.2,232.0 L1029.4,544.0 L1029.6,232.0 L1029.9,544.0 L1030.1,544.0 L1030.3,232.0 L1030.6,232.0 L1030.8,388.0 L1031.0,388.0 L1031.3,232.0 L1031.5,388.0 L1031.7,388.0 L1031.9,232.0 L1032.2,388.0 L1032.4,232.0 L1032.6,544.0 L1032.9,388.0 L1033.1,232.0 L1033.3,388.0 L1033.6,388.0 L1033.8,388.0 L1034.0,388.0 L1034.3,388.0 L1034.5,232.0 L1034.7,544.0 L1035.0,232.0 L1035.2,388.0 L1035.4,232.0 L1035.7,544.0 L1035.9,388.0 L1036.1,388.0 L1036.3,232.0 L1036.6,544.0 L1036.8,232.0 L1037.0,388.0 L1037.3,232.0 L1037.5,544.0 L1037.7,232.0 L1038.0,388.0 L1038.2,388.0 L1038.4,544.0 L1038.7,388.0 L1038.9,544.0 L1039.1,232.0 L1039.4,388.0 L1039.6,388.0 L1039.8,388.0 L1040.0,388.0 L1040.3,388.0 L1040.5,232.0 L1040.7,232.0 L1041.0,544.0 L1041.2,232.0 L1041.4,232.0 L1041.7,544.0 L1041.9,388.0 L1042.1,388.0 L1042.4,544.0 L1042.6,388.0 L1042.8,388.0 L1043.1,388.0 L1043.3,544.0 L1043.5,544.0 L1043.7,544.0 L1044.0,388.0 L1044.2,232.0 L1044.4,388.0 L1044.7,232.0 L1044.9,544.0 L1045.1,388.0 L1045.4,544.0 L1045.6,388.0 L1045.8,544.0 L1046.1,388.0 L1046.3,232.0 L1046.5,544.0 L1046.8,232.0 L1047.0,388.0 L1047.2,388.0 L1047.4,388.0 L1047.7,544.0 L1047.9,388.0 L1048.1,388.0 L1048.4,232.0 L1048.6,544.0 L1048.8,388.0 L1049.1,544.0 L1049.3,388.0 L1049.5,388.0 L1049.8,388.0 L1050.0,388.0 L1050.2,544.0 L1050.5,388.0 L1050.7,388.0 L1050.9,388.0 L1051.1,388.0 L1051.4,388.0 L1051.6,544.0 L1051.8,388.0 L1052.1,388.0 L1052.3,544.0 L1052.5,388.0 L1052.8,388.0 L1053.0,388.0 L1053.2,544.0 L1053.5,388.0 L1053.7,388.0 L1053.9,544.0 L1054.2,544.0 L1054.4,544.0 L1054.6,232.0 L1054.9,544.0 L1055.1,232.0 L1055.3,388.0 L1055.5,544.0 L1055.8,388.0 L1056.0,388.0 L1056.2,544.0 L1056.5,388.0 L1056.7,388.0 L1056.9,544.0 L1057.2,388.0 L1057.4,388.0 L1057.6,388.0 L1057.9,544.0 L1058.1,388.0 L1058.3,544.0 L1058.6,544.0 L1058.8,232.0 L1059.0,388.0 L1059.2,544.0 L1059.5,232.0 L1059.7,388.0 L1059.9,544.0 L1060.2,388.0 L1060.4,232.0 L1060.6,544.0 L1060.9,388.0 L1061.1,388.0 L1061.3,544.0 L1061.6,544.0 L1061.8,388.0 L1062.0,232.0 L1062.3,232.0 L1062.5,388.0 L1062.7,388.0 L1062.9,544.0 L1063.2,232.0 L1063.4,544.0 L1063.6,232.0 L1063.9,388.0 L1064.1,388.0 L1064.3,388.0 L1064.6,544.0 L1064.8,544.0 L1065.0,232.0 L1065.3,232.0 L1065.5,388.0 L1065.7,388.0 L1066.0,544.0 L1066.2,388.0 L1066.4,544.0 L1066.6,232.0 L1066.9,544.0 L1067.1,388.0 L1067.3,232.0 L1067.6,544.0 L1067.8,388.0 L1068.0,388.0 L1068.3,544.0 L1068.5,388.0 L1068.7,232.0 L1069.0,388.0 L1069.2,388.0 L1069.4,388.0 L1069.7,232.0 L1069.9,544.0 L1070.1,388.0 L1070.4,388.0 L1070.6,388.0 L1070.8,232.0 L1071.0,388.0 L1071.3,388.0 L1071.5,232.0 L1071.7,544.0 L1072.0,232.0 L1072.2,388.0 L1072.4,544.0 L1072.7,388.0 L1072.9,232.0 L1073.1,388.0 L1073.4,232.0 L1073.6,544.0 L1073.8,232.0 L1074.1,388.0 L1074.3,544.0 L1074.5,388.0 L1074.7,544.0 L1075.0,232.0 L1075.2,544.0 L1075.4,388.0 L1075.7,232.0 L1075.9,544.0 L1076.1,388.0 L1076.4,232.0 L1076.6,388.0 L1076.8,544.0 L1077.1,232.0 L1077.3,544.0 L1077.5,388.0 L1077.8,544.0 L1078.0,388.0 L1078.2,388.0 L1078.4,544.0 L1078.7,232.0 L1078.9,544.0 L1079.1,544.0 L1079.4,388.0 L1079.6,388.0 L1079.8,544.0 L1080.1,388.0 L1080.3,388.0 L1080.5,388.0 L1080.8,232.0 L1081.0,388.0 L1081.2,388.0 L1081.5,388.0 L1081.7,388.0 L1081.9,544.0 L1082.1,544.0 L1082.4,232.0 L1082.6,232.0 L1082.8,544.0 L1083.1,388.0 L1083.3,388.0 L1083.5,232.0 L1083.8,544.0 L1084.0,232.0" fill="none" stroke="#ff7f0e" stroke-width="1.1" opacity="0.85"/><text x="616" y="572" font-size="11" fill="#888">time 0..40 s — altitude (blue) &amp; roll (orange)</text></svg>