<svg xmlns="http://www.w3.org/2000/svg" width="1140" height="600" font-family="sans-serif" font-size="13"><rect width="1140" height="600" fill="white"/><text x="20" y="26" font-size="15" fill="#333">TMS-7 F15 — sensor noise 100%</text><rect x="20" y="40" width="540" height="540" fill="#fbfbfb" stroke="#ddd"/><rect x="50" y="295" width="170" height="36" fill="#cde" stroke="#369" opacity="0.7"/><text x="50" y="290" fill="#369" font-size="12">landing zone</text><circle cx="157" cy="352" r="5" fill="black"/><text x="165" y="356" font-size="12">pad</text><path d="M157.2,351.6 L157.2,351.6 L157.2,351.6 L157.2,351.6 L157.2,351.6 L157.2,351.6 L157.2,351.6 L157.2,351.6 L157.2,351.6 L157.2,351.6 L157.2,351.6 L157.2,351.6 L157.2,351.6 L157.2,351.6 L157.2,351.6 L157.2,351.6 L157.2,351.6 L157.2,351.6 L157.2,351.6 L157.2,351.6 L157.2,351.6 L157.2,351.6 L157.2,351.6 L157.2,351.6 L157.2,351.6 L157.2,351.6 L157.2,351.6 L157.2,351.6 L157.2,351.6 L157.2,351.6 L157.2,351.6 L157.2,351.6 L157.2,351.6 L157.2,351.6 L157.2,351.6 L157.2,351.6 L157.2,351.6 L157.2,351.6 L157.2,351.6 L157.2,351.6 L157.2,351.6 L157.2,351.6 L157.2,351.6 L157.2,351.6 L157.2,351.6 L157.2,351.6 L157.2,351.6 L157.2,351.6 L157.2,351.6 L157.2,351.6 L157.2,351.6 L157.2,351.6 L157.2,351.6 L157.2,351.6 L157.2,351.6 L157.2,351.6 L157.2,351.6 L157.2,351.6 L157.2,351.6 L157.2,351.6 L157.5,351.2 L158.2,349.9 L159.0,348.6 L159.8,347.2 L160.6,345.9 L161.3,344.6 L162.1,343.3 L162.9,342.0 L163.8,340.7 L164.7,339.5 L165.5,338.2 L166.3,336.9 L167.2,335.7 L168.1,334.4 L169.0,333.2 L170.0,332.0 L170.9,330.8 L171.8,329.6 L172.7,328.4 L173.6,327.2 L174.5,325.9 L175.4,324.7 L176.2,323.4 L177.1,322.1 L177.9,320.9 L178.7,319.6 L179.4,318.3 L180.2,317.0 L181.0,315.7 L181.7,314.2 L182.3,312.9 L183.1,311.5 L183.7,310.2 L184.3,308.8 L184.9,307.4 L185.5,306.0 L186.1,304.6 L186.6,303.1 L187.1,301.7 L187.6,300.2 L188.1,298.8 L188.4,297.3 L188.9,295.9 L189.3,294.4 L189.6,292.9 L190.0,291.4 L190.4,289.9 L190.7,288.5 L191.2,287.0 L191.6,285.6 L192.1,284.1 L192.5,282.6 L193.1,281.2 L193.6,279.8 L194.2,278.4 L194.8,277.0 L195.4,275.6 L196.0,274.2 L196.7,272.9 L197.4,271.4 L198.1,270.1 L198.8,268.8 L199.6,267.4 L200.3,266.1 L201.1,264.8 L201.8,263.6 L202.7,262.3 L203.6,261.0 L204.4,259.7 L205.3,258.5 L206.2,257.3 L207.1,256.1 L208.1,254.9 L209.1,253.7 L210.0,252.6 L211.1,251.5 L212.1,250.3 L213.1,249.1 L214.2,248.1 L215.3,247.0 L216.4,245.9 L217.5,244.9 L218.6,243.9 L219.8,242.9 L220.9,241.9 L222.1,240.9 L223.2,240.0 L224.4,239.1 L225.7,238.0 L226.9,237.1 L228.2,236.3 L229.3,235.4 L230.6,234.5 L231.9,233.7 L233.2,232.9 L234.4,232.1 L235.8,231.3 L237.1,230.5 L238.4,229.8 L239.7,229.0 L241.1,228.3 L242.4,227.5 L243.7,226.8 L245.1,226.1 L246.5,225.4 L247.8,224.8 L249.2,224.2 L250.7,223.5 L252.0,223.0 L253.5,222.4 L254.8,221.8 L256.3,221.3 L257.7,220.8 L259.1,220.3 L260.6,219.8 L262.0,219.3 L263.5,218.8 L265.0,218.4 L266.4,218.0 L267.9,217.6 L269.3,217.1 L270.8,216.7 L272.3,216.3 L273.8,216.0 L275.2,215.7 L276.8,215.4 L278.3,215.1 L279.7,214.8 L281.3,214.6 L282.7,214.3 L284.3,214.1 L285.8,213.9 L287.3,213.7 L288.8,213.5 L290.3,213.4 L291.8,213.2 L293.4,213.1 L294.8,213.0 L296.4,212.9 L297.9,212.9 L299.4,212.8 L300.9,212.8 L302.5,212.8 L304.0,212.8 L305.5,212.8 L307.0,212.9 L308.6,212.9 L310.1,213.0 L311.6,213.0 L313.1,213.1 L314.7,213.2 L316.1,213.3 L317.7,213.4 L319.2,213.6 L320.7,213.7 L322.2,213.9 L323.7,214.1 L325.2,214.3 L326.7,214.6 L328.3,214.9 L329.7,215.1 L331.3,215.4 L332.7,215.7 L334.3,216.0 L335.7,216.4 L337.2,216.7 L338.6,217.1 L340.1,217.6 L341.6,218.0 L343.1,218.4 L344.6,218.8 L346.0,219.2 L347.5,219.6 L348.9,220.1 L350.4,220.5 L351.8,221.0 L353.3,221.4 L354.8,221.9 L356.2,222.4 L357.6,222.8 L359.0,223.3 L360.5,223.8 L362.0,224.3 L363.4,224.8 L364.8,225.4 L366.2,225.9 L367.6,226.4 L369.1,227.0 L370.4,227.6 L371.9,228.3 L373.2,228.8 L374.7,229.4 L376.1,230.0 L377.4,230.6 L378.9,231.2 L380.3,231.8 L381.6,232.4 L383.1,233.1 L384.5,233.7 L385.8,234.4 L387.2,235.0 L388.6,235.7 L389.9,236.4 L391.2,237.1 L392.6,237.8 L393.9,238.5 L395.3,239.3 L396.6,240.1 L397.9,240.8 L399.3,241.5 L400.6,242.3 L401.9,243.0 L403.2,243.8 L404.5,244.6 L405.6,245.2 L406.7,245.9 L407.8,246.5 L408.9,247.2 L409.9,247.9 L411.0,248.6 L412.0,249.3 L413.1,250.1 L414.1,250.8 L415.1,251.5 L416.1,252.3 L417.2,253.0 L418.2,253.8 L419.2,254.5 L420.2,255.3 L421.2,256.0 L422.3,256.8 L423.3,257.6 L424.3,258.3 L425.3,259.1 L426.3,259.9 L427.3,260.7 L428.3,261.5 L429.3,262.3 L430.3,263.1 L431.3,263.9 L432.3,264.7 L433.3,265.5 L434.2,266.2 L435.2,267.0 L436.2,267.8 L437.2,268.6 L438.2,269.4 L439.2,270.2 L440.1,271.0 L441.1,271.9 L442.1,272.7 L443.0,273.6 L444.0,274.4 L444.9,275.2 L445.8,276.1 L446.8,276.9 L447.8,277.8 L448.7,278.6 L449.6,279.5 L450.5,280.4 L451.4,281.2 L452.3,282.1 L453.2,283.1 L454.1,284.0 L455.0,284.9 L456.0,285.8 L456.8,286.7 L457.7,287.6 L458.6,288.5 L459.4,289.4 L460.3,290.3 L461.1,291.2 L462.0,292.2 L462.9,293.1 L463.7,294.2 L464.5,295.1 L465.3,296.0 L466.2,297.0 L467.1,297.9 L467.9,298.9 L468.7,299.8 L469.5,300.8 L470.3,301.8 L471.2,302.7 L472.0,303.7 L472.8,304.7 L473.6,305.7 L474.4,306.7 L475.3,307.6 L476.1,308.6 L476.9,309.6 L477.6,310.6 L478.4,311.5 L479.3,312.5 L480.1,313.5 L480.9,314.5 L481.6,315.4 L482.5,316.5 L483.2,317.5 L484.0,318.5 L484.7,319.5 L485.5,320.5 L486.3,321.6 L487.0,322.6 L487.7,323.6 L488.4,324.7 L489.1,325.7 L489.8,326.8 L490.6,327.9 L491.3,328.9 L491.9,330.0 L492.7,331.0 L493.4,332.1 L494.0,333.1 L494.8,334.2 L495.4,335.3 L496.1,336.3 L496.8,337.5 L497.4,338.6 L498.1,339.6 L498.8,340.7 L499.4,341.8 L500.0,342.9 L500.7,343.9 L501.4,345.0 L502.0,346.1 L502.7,347.2 L503.3,348.4 L504.0,349.4 L504.6,350.5 L505.2,351.6 L505.8,352.7 L506.4,353.8 L507.0,354.9 L507.6,356.0 L508.2,357.2 L508.8,358.3 L509.4,359.5 L510.0,360.6 L510.5,361.7 L511.1,362.9 L511.7,364.0 L512.2,365.1 L512.8,366.3 L513.3,367.4 L513.9,368.5 L514.4,369.7 L515.0,370.9 L515.5,372.0 L516.1,373.2 L516.6,374.3 L517.2,375.4 L517.6,376.6 L518.2,377.7 L518.7,378.9 L519.2,380.0 L519.7,381.3 L520.2,382.5 L520.7,383.6 L521.2,384.8 L521.6,385.9 L522.1,387.1 L522.6,388.3 L523.1,389.4 L523.5,390.6 L524.0,391.8 L524.4,393.0 L525.0,394.2 L525.4,395.4 L525.9,396.5 L526.4,397.7 L526.8,398.9 L527.3,400.1 L527.7,401.2 L528.2,402.4 L528.6,403.7 L529.1,404.9 L529.5,406.0 L530.0,407.2" fill="none" stroke="#1f77b4" stroke-width="1.7" opacity="0.85"/><circle cx="530" cy="407" r="4.5" fill="#1f77b4"/><text x="28" y="572" font-size="11" fill="#888">ground track — m from pad (N up)</text><rect x="580" y="40" width="540" height="540" fill="#fbfbfb" stroke="#ddd"/><text x="586" y="54" fill="#1f77b4" font-size="11">alt 563</text><text x="586" y="558" fill="#1f77b4" font-size="11">-1</text><path d="M616.0,543.1 L616.2,539.2 L616.4,542.5 L616.6,540.1 L616.8,542.3 L617.0,543.5 L617.2,538.9 L617.4,541.2 L617.5,542.7 L617.7,543.1 L617.9,538.7 L618.1,543.7 L618.3,540.3 L618.5,538.2 L618.7,539.7 L618.9,543.6 L619.1,541.7 L619.3,542.6 L619.5,541.1 L619.7,539.0 L619.9,538.1 L620.1,538.0 L620.2,537.7 L620.4,541.1 L620.6,542.1 L620.8,540.4 L621.0,540.7 L621.2,534.6 L621.4,536.6 L621.6,535.0 L621.8,539.9 L622.0,533.8 L622.2,531.0 L622.4,533.6 L622.6,534.2 L622.8,533.5 L622.9,540.1 L623.1,542.7 L623.3,532.9 L623.5,536.7 L623.7,535.6 L623.9,526.8 L624.1,529.2 L624.3,533.9 L624.5,535.7 L624.7,531.0 L624.9,541.1 L625.1,524.5 L625.3,522.5 L625.5,534.2 L625.6,537.3 L625.8,532.7 L626.0,531.5 L626.2,538.0 L626.4,534.0 L626.6,543.2 L626.8,541.4 L627.0,519.8 L627.2,515.3 L627.4,541.5 L627.6,535.4 L627.8,542.4 L628.0,519.0 L628.2,510.5 L628.3,526.7 L628.5,528.4 L628.7,542.8 L628.9,526.0 L629.1,542.3 L629.3,512.6 L629.5,523.2 L629.7,531.4 L629.9,514.1 L630.1,518.7 L630.3,522.5 L630.5,516.8 L630.7,502.4 L630.9,501.9 L631.0,519.9 L631.2,513.0 L631.4,504.2 L631.6,510.4 L631.8,530.3 L632.0,526.2 L632.2,522.1 L632.4,539.6 L632.6,498.5 L632.8,514.1 L633.0,538.4 L633.2,497.0 L633.4,511.6 L633.6,475.4 L633.7,494.7 L633.9,513.9 L634.1,533.6 L634.3,519.2 L634.5,523.7 L634.7,503.4 L634.9,536.6 L635.1,504.2 L635.3,480.3 L635.5,510.7 L635.7,513.6 L635.9,459.2 L636.1,543.0 L636.3,453.9 L636.4,524.5 L636.6,453.9 L636.8,495.7 L637.0,541.2 L637.2,469.2 L637.4,493.3 L637.6,462.9 L637.8,471.8 L638.0,457.0 L638.2,487.5 L638.4,539.1 L638.6,489.7 L638.8,494.9 L639.0,456.3 L639.1,505.4 L639.3,509.8 L639.5,443.9 L639.7,516.6 L639.9,491.8 L640.1,471.6 L640.3,451.1 L640.5,440.8 L640.7,486.6 L640.9,531.1 L641.1,523.9 L641.3,495.4 L641.5,484.0 L641.7,490.6 L641.8,480.2 L642.0,448.5 L642.2,484.1 L642.4,409.2 L642.6,508.2 L642.8,395.2 L643.0,447.6 L643.2,510.9 L643.4,503.8 L643.6,421.9 L643.8,495.4 L644.0,505.9 L644.2,482.9 L644.4,452.7 L644.6,495.8 L644.7,485.2 L644.9,373.6 L645.1,370.0 L645.3,522.8 L645.5,439.4 L645.7,426.1 L645.9,433.2 L646.1,486.8 L646.3,360.6 L646.5,490.8 L646.7,362.7 L646.9,516.6 L647.1,415.8 L647.3,357.9 L647.4,421.7 L647.6,524.6 L647.8,378.1 L648.0,405.2 L648.2,406.8 L648.4,352.3 L648.6,435.9 L648.8,521.2 L649.0,508.7 L649.2,519.3 L649.4,367.4 L649.6,314.8 L649.8,338.4 L650.0,422.4 L650.1,515.8 L650.3,351.6 L650.5,385.2 L650.7,479.0 L650.9,517.4 L651.1,399.5 L651.3,310.9 L651.5,477.1 L651.7,492.8 L651.9,414.4 L652.1,299.7 L652.3,289.0 L652.5,360.4 L652.7,359.9 L652.8,497.0 L653.0,422.1 L653.2,349.8 L653.4,504.4 L653.6,524.0 L653.8,512.2 L654.0,364.0 L654.2,531.7 L654.4,307.0 L654.6,288.3 L654.8,435.8 L655.0,521.0 L655.2,462.0 L655.4,346.1 L655.5,487.1 L655.7,372.6 L655.9,537.2 L656.1,413.9 L656.3,328.8 L656.5,540.1 L656.7,302.9 L656.9,308.4 L657.1,532.1 L657.3,245.8 L657.5,330.9 L657.7,499.6 L657.9,383.4 L658.1,248.0 L658.2,234.6 L658.4,474.5 L658.6,459.6 L658.8,496.2 L659.0,393.3 L659.2,428.9 L659.4,279.5 L659.6,293.6 L659.8,428.8 L660.0,347.2 L660.2,512.8 L660.4,311.3 L660.6,534.6 L660.8,320.5 L660.9,522.7 L661.1,482.8 L661.3,287.7 L661.5,251.1 L661.7,214.8 L661.9,310.9 L662.1,401.7 L662.3,437.5 L662.5,311.7 L662.7,190.4 L662.9,385.5 L663.1,298.0 L663.3,453.1 L663.5,398.4 L663.6,474.5 L663.8,304.1 L664.0,225.4 L664.2,407.2 L664.4,523.8 L664.6,208.7 L664.8,205.9 L665.0,374.7 L665.2,242.5 L665.4,224.7 L665.6,435.9 L665.8,437.6 L666.0,334.6 L666.2,387.9 L666.3,354.5 L666.5,286.5 L666.7,466.6 L666.9,229.7 L667.1,539.2 L667.3,382.7 L667.5,534.4 L667.7,474.6 L667.9,383.5 L668.1,396.5 L668.3,166.2 L668.5,452.4 L668.7,333.7 L668.9,225.7 L669.1,146.6 L669.2,455.2 L669.4,169.3 L669.6,350.5 L669.8,365.4 L670.0,425.5 L670.2,124.3 L670.4,529.3 L670.6,543.3 L670.8,479.8 L671.0,119.5 L671.2,216.0 L671.4,265.1 L671.6,468.2 L671.8,434.7 L671.9,192.3 L672.1,130.9 L672.3,316.2 L672.5,475.7 L672.7,291.2 L672.9,271.4 L673.1,110.7 L673.3,516.6 L673.5,303.6 L673.7,309.5 L673.9,188.3 L674.1,292.1 L674.3,252.5 L674.5,477.8 L674.6,132.2 L674.8,273.4 L675.0,119.2 L675.2,529.7 L675.4,430.5 L675.6,521.6 L675.8,350.9 L676.0,291.1 L676.2,94.4 L676.4,185.0 L676.6,254.6 L676.8,484.7 L677.0,85.2 L677.2,161.2 L677.3,193.2 L677.5,440.7 L677.7,108.3 L677.9,304.0 L678.1,384.6 L678.3,131.9 L678.5,400.0 L678.7,163.9 L678.9,527.4 L679.1,415.0 L679.3,311.7 L679.5,482.8 L679.7,350.8 L679.9,464.9 L680.0,174.8 L680.2,140.7 L680.4,509.9 L680.6,523.5 L680.8,401.5 L681.0,209.1 L681.2,512.8 L681.4,82.0 L681.6,95.5 L681.8,366.0 L682.0,524.6 L682.2,87.7 L682.4,279.3 L682.6,487.4 L682.7,335.3 L682.9,353.0 L683.1,455.2 L683.3,450.4 L683.5,190.8 L683.7,255.0 L683.9,498.8 L684.1,462.7 L684.3,408.7 L684.5,346.0 L684.7,454.3 L684.9,189.1 L685.1,76.0 L685.3,172.4 L685.4,398.0 L685.6,133.8 L685.8,204.2 L686.0,300.3 L686.2,510.9 L686.4,147.5 L686.6,349.6 L686.8,122.2 L687.0,150.7 L687.2,428.6 L687.4,329.4 L687.6,484.0 L687.8,276.4 L688.0,457.7 L688.1,256.4 L688.3,297.4 L688.5,478.5 L688.7,408.9 L688.9,101.6 L689.1,307.6 L689.3,82.9 L689.5,542.4 L689.7,464.6 L689.9,389.7 L690.1,241.0 L690.3,147.8 L690.5,453.3 L690.7,113.0 L690.8,536.0 L691.0,392.0 L691.2,509.3 L691.4,108.1 L691.6,295.9 L691.8,439.0 L692.0,403.0 L692.2,202.2 L692.4,190.8 L692.6,159.8 L692.8,490.4 L693.0,493.1 L693.2,491.0 L693.4,259.0 L693.5,87.5 L693.7,133.8 L693.9,83.7 L694.1,452.0 L694.3,381.0 L694.5,370.7 L694.7,380.1 L694.9,421.2 L695.1,466.0 L695.3,257.7 L695.5,513.5 L695.7,86.3 L695.9,461.5 L696.1,503.5 L696.3,350.7 L696.4,94.1 L696.6,259.0 L696.8,481.8 L697.0,369.3 L697.2,449.6 L697.4,136.8 L697.6,497.5 L697.8,294.4 L698.0,218.0 L698.2,396.3 L698.4,101.0 L698.6,468.0 L698.8,223.5 L699.0,339.4 L699.1,439.2 L699.3,414.7 L699.5,91.0 L699.7,116.2 L699.9,393.0 L700.1,114.4 L700.3,154.2 L700.5,524.4 L700.7,111.5 L700.9,357.1 L701.1,93.3 L701.3,207.6 L701.5,195.5 L701.7,532.1 L701.8,369.2 L702.0,525.0 L702.2,349.1 L702.4,373.9 L702.6,291.4 L702.8,427.5 L703.0,225.4 L703.2,273.4 L703.4,515.6 L703.6,98.6 L703.8,298.8 L704.0,194.8 L704.2,500.1 L704.4,430.4 L704.5,536.4 L704.7,501.5 L704.9,506.9 L705.1,159.8 L705.3,471.0 L705.5,239.7 L705.7,117.3 L705.9,540.6 L706.1,499.9 L706.3,149.1 L706.5,357.2 L706.7,449.0 L706.9,445.3 L707.1,507.0 L707.2,155.9 L707.4,496.7 L707.6,149.5 L707.8,488.4 L708.0,275.0 L708.2,273.5 L708.4,255.4 L708.6,406.5 L708.8,418.9 L709.0,249.2 L709.2,452.3 L709.4,356.7 L709.6,390.1 L709.8,479.4 L709.9,99.7 L710.1,169.2 L710.3,534.4 L710.5,137.5 L710.7,404.8 L710.9,406.3 L711.1,118.4 L711.3,430.4 L711.5,343.0 L711.7,456.3 L711.9,164.1 L712.1,280.4 L712.3,423.7 L712.5,534.7 L712.6,307.4 L712.8,137.4 L713.0,401.1 L713.2,234.8 L713.4,225.3 L713.6,391.8 L713.8,153.6 L714.0,328.5 L714.2,243.2 L714.4,124.1 L714.6,207.5 L714.8,516.0 L715.0,265.7 L715.2,293.3 L715.3,372.2 L715.5,339.4 L715.7,265.3 L715.9,191.0 L716.1,266.6 L716.3,137.2 L716.5,543.6 L716.7,112.0 L716.9,128.9 L717.1,177.3 L717.3,500.8 L717.5,297.3 L717.7,221.1 L717.9,97.3 L718.0,471.6 L718.2,254.9 L718.4,193.7 L718.6,249.2 L718.8,91.4 L719.0,531.0 L719.2,223.6 L719.4,114.9 L719.6,92.1 L719.8,112.6 L720.0,339.5 L720.2,400.7 L720.4,113.4 L720.6,150.1 L720.8,444.5 L720.9,106.1 L721.1,228.4 L721.3,506.0 L721.5,339.2 L721.7,149.2 L721.9,120.0 L722.1,330.1 L722.3,141.3 L722.5,541.6 L722.7,271.9 L722.9,300.9 L723.1,114.9 L723.3,252.7 L723.5,466.4 L723.6,253.7 L723.8,399.1 L724.0,112.8 L724.2,282.3 L724.4,281.2 L724.6,321.9 L724.8,459.9 L725.0,274.3 L725.2,504.1 L725.4,447.0 L725.6,152.8 L725.8,322.3 L726.0,130.5 L726.2,402.0 L726.3,438.9 L726.5,516.8 L726.7,323.7 L726.9,212.9 L727.1,484.9 L727.3,456.3 L727.5,374.0 L727.7,323.6 L727.9,414.4 L728.1,208.7 L728.3,202.7 L728.5,472.2 L728.7,218.1 L728.9,158.4 L729.0,122.1 L729.2,247.2 L729.4,510.1 L729.6,494.6 L729.8,129.2 L730.0,180.6 L730.2,192.4 L730.4,227.6 L730.6,456.9 L730.8,203.1 L731.0,273.0 L731.2,188.2 L731.4,334.8 L731.6,379.2 L731.7,371.4 L731.9,148.9 L732.1,435.4 L732.3,177.0 L732.5,353.7 L732.7,206.8 L732.9,355.1 L733.1,453.6 L733.3,515.5 L733.5,302.4 L733.7,389.0 L733.9,305.8 L734.1,364.0 L734.3,330.7 L734.4,362.1 L734.6,464.6 L734.8,493.5 L735.0,152.0 L735.2,315.0 L735.4,254.7 L735.6,394.5 L735.8,524.5 L736.0,175.2 L736.2,372.4 L736.4,450.4 L736.6,495.0 L736.8,322.3 L737.0,256.7 L737.1,518.9 L737.3,407.7 L737.5,118.7 L737.7,105.6 L737.9,361.2 L738.1,231.3 L738.3,498.3 L738.5,106.3 L738.7,216.7 L738.9,374.6 L739.1,445.9 L739.3,158.2 L739.5,458.4 L739.7,381.9 L739.8,289.8 L740.0,276.8 L740.2,190.7 L740.4,281.7 L740.6,346.4 L740.8,120.3 L741.0,187.7 L741.2,106.0 L741.4,279.9 L741.6,502.7 L741.8,222.9 L742.0,330.4 L742.2,409.4 L742.4,292.1 L742.5,155.9 L742.7,200.9 L742.9,398.6 L743.1,105.1 L743.3,469.2 L743.5,126.9 L743.7,434.1 L743.9,415.4 L744.1,194.3 L744.3,202.1 L744.5,199.4 L744.7,155.6 L744.9,323.8 L745.1,258.3 L745.2,181.6 L745.4,259.0 L745.6,134.1 L745.8,398.4 L746.0,521.5 L746.2,128.1 L746.4,473.1 L746.6,242.2 L746.8,429.1 L747.0,200.7 L747.2,227.3 L747.4,262.2 L747.6,201.4 L747.8,423.3 L748.0,265.0 L748.1,264.5 L748.3,223.8 L748.5,523.2 L748.7,425.0 L748.9,156.7 L749.1,123.2 L749.3,314.3 L749.5,241.4 L749.7,367.6 L749.9,304.7 L750.1,306.1 L750.3,373.3 L750.5,493.6 L750.7,250.9 L750.8,123.1 L751.0,258.5 L751.2,239.9 L751.4,474.6 L751.6,168.0 L751.8,169.1 L752.0,149.3 L752.2,384.5 L752.4,457.8 L752.6,126.9 L752.8,384.4 L753.0,333.8 L753.2,530.9 L753.4,148.2 L753.5,383.6 L753.7,181.1 L753.9,328.7 L754.1,351.9 L754.3,303.1 L754.5,335.2 L754.7,235.3 L754.9,432.8 L755.1,347.9 L755.3,381.1 L755.5,131.2 L755.7,158.4 L755.9,257.8 L756.1,164.9 L756.2,492.3 L756.4,251.5 L756.6,417.1 L756.8,223.9 L757.0,146.1 L757.2,457.9 L757.4,369.1 L757.6,393.6 L757.8,269.7 L758.0,542.4 L758.2,535.3 L758.4,292.0 L758.6,339.7 L758.8,421.1 L758.9,510.9 L759.1,171.9 L759.3,366.2 L759.5,313.6 L759.7,523.6 L759.9,127.4 L760.1,380.0 L760.3,219.3 L760.5,471.5 L760.7,153.8 L760.9,364.7 L761.1,201.2 L761.3,453.1 L761.5,176.1 L761.6,543.8 L761.8,324.1 L762.0,322.4 L762.2,262.1 L762.4,286.3 L762.6,381.4 L762.8,447.6 L763.0,167.4 L763.2,413.3 L763.4,303.2 L763.6,534.5 L763.8,264.8 L764.0,535.8 L764.2,444.5 L764.3,312.8 L764.5,283.7 L764.7,499.8 L764.9,526.0 L765.1,404.4 L765.3,491.8 L765.5,451.9 L765.7,197.0 L765.9,139.2 L766.1,150.3 L766.3,285.2 L766.5,520.2 L766.7,517.1 L766.9,463.0 L767.0,266.4 L767.2,290.1 L767.4,148.2 L767.6,377.2 L767.8,470.6 L768.0,269.1 L768.2,257.5 L768.4,433.5 L768.6,507.6 L768.8,310.5 L769.0,250.9 L769.2,438.4 L769.4,386.1 L769.6,300.5 L769.7,248.9 L769.9,150.6 L770.1,510.8 L770.3,522.0 L770.5,405.1 L770.7,481.7 L770.9,452.8 L771.1,397.3 L771.3,460.8 L771.5,430.6 L771.7,279.1 L771.9,451.5 L772.1,507.6 L772.3,363.9 L772.5,213.6 L772.6,251.0 L772.8,430.5 L773.0,442.3 L773.2,310.1 L773.4,423.8 L773.6,459.1 L773.8,407.8 L774.0,148.1 L774.2,376.3 L774.4,270.0 L774.6,157.3 L774.8,423.2 L775.0,441.9 L775.2,538.8 L775.3,252.3 L775.5,412.8 L775.7,245.4 L775.9,186.5 L776.1,279.2 L776.3,408.2 L776.5,291.1 L776.7,403.8 L776.9,272.5 L777.1,350.0 L777.3,292.7 L777.5,244.3 L777.7,265.0 L777.9,154.1 L778.0,454.6 L778.2,357.8 L778.4,235.1 L778.6,227.8 L778.8,287.5 L779.0,325.2 L779.2,413.7 L779.4,327.0 L779.6,540.7 L779.8,204.8 L780.0,264.9 L780.2,280.3 L780.4,393.3 L780.6,542.3 L780.7,533.1 L780.9,352.6 L781.1,211.0 L781.3,380.9 L781.5,160.2 L781.7,543.5 L781.9,184.0 L782.1,424.3 L782.3,510.6 L782.5,191.6 L782.7,404.3 L782.9,233.5 L783.1,214.7 L783.3,177.6 L783.4,296.7 L783.6,331.5 L783.8,235.3 L784.0,435.5 L784.2,183.9 L784.4,488.1 L784.6,260.1 L784.8,513.5 L785.0,333.8 L785.2,346.7 L785.4,317.8 L785.6,160.4 L785.8,346.0 L786.0,389.0 L786.1,432.6 L786.3,518.1 L786.5,519.6 L786.7,376.3 L786.9,490.2 L787.1,426.9 L787.3,477.7 L787.5,327.9 L787.7,542.6 L787.9,361.9 L788.1,536.8 L788.3,427.9 L788.5,376.1 L788.7,492.9 L788.8,536.2 L789.0,394.3 L789.2,238.4 L789.4,409.2 L789.6,157.9 L789.8,400.7 L790.0,525.9 L790.2,190.7 L790.4,352.7 L790.6,233.2 L790.8,289.5 L791.0,330.6 L791.2,437.7 L791.4,463.0 L791.5,465.7 L791.7,307.9 L791.9,371.6 L792.1,298.5 L792.3,157.7 L792.5,330.1 L792.7,236.0 L792.9,157.2 L793.1,486.5 L793.3,496.2 L793.5,463.9 L793.7,208.6 L793.9,203.8 L794.1,190.4 L794.2,423.1 L794.4,157.2 L794.6,474.5 L794.8,252.2 L795.0,448.2 L795.2,442.3 L795.4,362.7 L795.6,221.8 L795.8,531.6 L796.0,279.0 L796.2,167.5 L796.4,206.7 L796.6,189.0 L796.8,386.5 L796.9,517.2 L797.1,508.0 L797.3,443.3 L797.5,539.8 L797.7,421.0 L797.9,520.9 L798.1,478.1 L798.3,412.5 L798.5,485.7 L798.7,223.0 L798.9,354.7 L799.1,269.5 L799.3,485.8 L799.5,533.9 L799.7,528.8 L799.8,473.6 L800.0,324.8 L800.2,275.5 L800.4,368.0 L800.6,379.6 L800.8,402.3 L801.0,294.5 L801.2,365.5 L801.4,195.0 L801.6,531.5 L801.8,202.1 L802.0,345.6 L802.2,195.1 L802.4,295.7 L802.5,299.0 L802.7,225.0 L802.9,206.3 L803.1,455.5 L803.3,216.0 L803.5,231.2 L803.7,221.7 L803.9,425.9 L804.1,391.4 L804.3,289.8 L804.5,297.0 L804.7,367.0 L804.9,495.9 L805.1,377.3 L805.2,413.9 L805.4,467.8 L805.6,369.6 L805.8,438.3 L806.0,422.0 L806.2,225.9 L806.4,180.8 L806.6,462.9 L806.8,522.0 L807.0,463.6 L807.2,532.0 L807.4,269.6 L807.6,260.4 L807.8,410.4 L807.9,376.0 L808.1,366.4 L808.3,258.2 L808.5,317.1 L808.7,414.0 L808.9,488.1 L809.1,198.5 L809.3,431.3 L809.5,212.6 L809.7,387.2 L809.9,194.7 L810.1,240.6 L810.3,433.4 L810.5,313.1 L810.6,304.0 L810.8,405.0 L811.0,517.1 L811.2,445.8 L811.4,411.0 L811.6,292.7 L811.8,201.4 L812.0,208.3 L812.2,534.7 L812.4,195.0 L812.6,266.4 L812.8,371.4 L813.0,375.1 L813.2,453.2 L813.3,292.6 L813.5,378.8 L813.7,348.6 L813.9,224.2 L814.1,534.4 L814.3,354.1 L814.5,388.2 L814.7,503.8 L814.9,324.4 L815.1,402.8 L815.3,383.9 L815.5,215.0 L815.7,484.0 L815.9,433.4 L816.0,324.9 L816.2,230.4 L816.4,230.1 L816.6,303.3 L816.8,306.7 L817.0,283.3 L817.2,215.9 L817.4,311.0 L817.6,296.7 L817.8,242.0 L818.0,406.2 L818.2,439.3 L818.4,305.1 L818.6,525.7 L818.7,498.4 L818.9,187.2 L819.1,187.3 L819.3,452.7 L819.5,246.5 L819.7,265.1 L819.9,291.3 L820.1,220.8 L820.3,226.5 L820.5,322.4 L820.7,350.4 L820.9,439.4 L821.1,441.6 L821.3,317.6 L821.4,400.6 L821.6,273.4 L821.8,303.0 L822.0,462.4 L822.2,461.5 L822.4,407.7 L822.6,521.7 L822.8,338.2 L823.0,521.3 L823.2,450.0 L823.4,447.7 L823.6,455.1 L823.8,321.9 L824.0,359.4 L824.2,532.0 L824.3,525.3 L824.5,456.3 L824.7,240.1 L824.9,425.3 L825.1,328.5 L825.3,366.8 L825.5,346.4 L825.7,423.7 L825.9,486.9 L826.1,262.0 L826.3,460.2 L826.5,475.2 L826.7,357.7 L826.9,216.2 L827.0,516.3 L827.2,331.7 L827.4,382.6 L827.6,490.0 L827.8,308.2 L828.0,305.8 L828.2,248.1 L828.4,400.1 L828.6,332.6 L828.8,514.3 L829.0,519.7 L829.2,471.5 L829.4,528.7 L829.6,461.5 L829.7,392.0 L829.9,200.1 L830.1,488.7 L830.3,333.5 L830.5,436.1 L830.7,275.5 L830.9,363.6 L831.1,221.4 L831.3,281.7 L831.5,424.7 L831.7,467.9 L831.9,258.2 L832.1,482.4 L832.3,289.5 L832.4,280.1 L832.6,428.1 L832.8,325.8 L833.0,356.2 L833.2,484.4 L833.4,303.2 L833.6,213.1 L833.8,419.7 L834.0,433.6 L834.2,368.9 L834.4,317.3 L834.6,521.7 L834.8,376.5 L835.0,253.8 L835.1,376.3 L835.3,387.7 L835.5,225.2 L835.7,383.8 L835.9,542.6 L836.1,374.6 L836.3,318.2 L836.5,236.8 L836.7,496.8 L836.9,430.5 L837.1,246.8 L837.3,498.1 L837.5,373.5 L837.7,364.7 L837.8,264.5 L838.0,397.2 L838.2,262.4 L838.4,521.2 L838.6,320.8 L838.8,256.1 L839.0,523.5 L839.2,396.0 L839.4,451.3 L839.6,292.2 L839.8,464.9 L840.0,341.9 L840.2,509.3 L840.4,271.8 L840.5,217.3 L840.7,232.4 L840.9,304.1 L841.1,434.4 L841.3,520.2 L841.5,260.4 L841.7,378.2 L841.9,538.0 L842.1,498.7 L842.3,377.1 L842.5,405.0 L842.7,375.8 L842.9,353.1 L843.1,266.9 L843.2,249.9 L843.4,466.6 L843.6,306.6 L843.8,340.9 L844.0,374.7 L844.2,439.8 L844.4,491.6 L844.6,254.2 L844.8,266.5 L845.0,412.8 L845.2,343.0 L845.4,344.3 L845.6,303.8 L845.8,489.9 L845.9,236.2 L846.1,443.4 L846.3,423.9 L846.5,326.4 L846.7,259.6 L846.9,312.1 L847.1,486.6 L847.3,404.0 L847.5,237.1 L847.7,429.8 L847.9,280.9 L848.1,266.6 L848.3,542.3 L848.5,441.1 L848.6,238.3 L848.8,468.8 L849.0,446.7 L849.2,334.9 L849.4,290.5 L849.6,457.3 L849.8,488.1 L850.0,355.9 L850.2,454.3 L850.4,341.3 L850.6,529.3 L850.8,266.6 L851.0,389.2 L851.2,423.8 L851.4,313.5 L851.5,275.6 L851.7,323.7 L851.9,538.2 L852.1,488.9 L852.3,523.6 L852.5,252.9 L852.7,530.8 L852.9,542.6 L853.1,299.4 L853.3,282.0 L853.5,450.1 L853.7,449.3 L853.9,339.5 L854.1,469.2 L854.2,495.6 L854.4,349.4 L854.6,516.6 L854.8,517.2 L855.0,365.1 L855.2,317.6 L855.4,400.1 L855.6,349.4 L855.8,460.7 L856.0,422.3 L856.2,493.3 L856.4,358.9 L856.6,467.3 L856.8,298.2 L856.9,243.8 L857.1,496.9 L857.3,495.2 L857.5,311.2 L857.7,512.0 L857.9,246.7 L858.1,246.1 L858.3,333.6 L858.5,284.4 L858.7,389.5 L858.9,522.4 L859.1,492.2 L859.3,279.4 L859.5,265.2 L859.6,482.2 L859.8,430.9 L860.0,541.6 L860.2,366.8 L860.4,493.4 L860.6,504.5 L860.8,340.1 L861.0,340.3 L861.2,259.7 L861.4,241.0 L861.6,394.2 L861.8,339.1 L862.0,441.4 L862.2,480.6 L862.3,414.4 L862.5,538.0 L862.7,499.2 L862.9,317.6 L863.1,479.1 L863.3,325.3 L863.5,288.5 L863.7,345.9 L863.9,411.3 L864.1,461.0 L864.3,542.1 L864.5,537.6 L864.7,497.2 L864.9,380.0 L865.0,319.7 L865.2,516.8 L865.4,418.7 L865.6,305.5 L865.8,403.8 L866.0,256.7 L866.2,436.7 L866.4,504.5 L866.6,523.8 L866.8,511.5 L867.0,257.6 L867.2,281.3 L867.4,371.8 L867.6,529.7 L867.7,523.1 L867.9,345.5 L868.1,318.9 L868.3,405.1 L868.5,333.5 L868.7,398.6 L868.9,286.0 L869.1,417.6 L869.3,254.7 L869.5,252.3 L869.7,467.3 L869.9,518.9 L870.1,436.9 L870.3,495.3 L870.4,298.7 L870.6,517.9 L870.8,515.9 L871.0,274.3 L871.2,524.7 L871.4,253.6 L871.6,399.9 L871.8,532.1 L872.0,451.8 L872.2,271.3 L872.4,316.9 L872.6,508.6 L872.8,394.2 L873.0,411.6 L873.1,277.4 L873.3,268.5 L873.5,469.1 L873.7,468.1 L873.9,352.0 L874.1,367.7 L874.3,370.9 L874.5,305.5 L874.7,270.0 L874.9,534.9 L875.1,351.8 L875.3,277.8 L875.5,351.4 L875.7,525.5 L875.8,442.9 L876.0,499.1 L876.2,512.3 L876.4,450.8 L876.6,314.3 L876.8,513.7 L877.0,518.6 L877.2,350.7 L877.4,532.3 L877.6,393.0 L877.8,462.8 L878.0,347.2 L878.2,387.4 L878.4,275.1 L878.6,491.2 L878.7,300.0 L878.9,270.9 L879.1,291.1 L879.3,289.0 L879.5,536.2 L879.7,310.3 L879.9,470.4 L880.1,279.1 L880.3,299.2 L880.5,332.2 L880.7,374.5 L880.9,446.2 L881.1,377.6 L881.3,476.5 L881.4,473.0 L881.6,396.3 L881.8,541.9 L882.0,390.4 L882.2,542.3 L882.4,304.2 L882.6,435.1 L882.8,418.8 L883.0,340.9 L883.2,398.4 L883.4,280.0 L883.6,304.8 L883.8,434.2 L884.0,306.8 L884.1,516.0 L884.3,287.9 L884.5,462.8 L884.7,536.7 L884.9,476.8 L885.1,323.3 L885.3,349.1 L885.5,381.3 L885.7,292.0 L885.9,284.3 L886.1,440.8 L886.3,471.1 L886.5,282.5 L886.7,422.7 L886.8,488.1 L887.0,404.0 L887.2,540.8 L887.4,339.6 L887.6,518.2 L887.8,333.4 L888.0,381.6 L888.2,350.2 L888.4,411.5 L888.6,341.1 L888.8,467.8 L889.0,515.3 L889.2,490.8 L889.4,463.9 L889.5,337.7 L889.7,335.8 L889.9,417.9 L890.1,435.4 L890.3,453.6 L890.5,342.9 L890.7,387.9 L890.9,331.3 L891.1,373.0 L891.3,505.0 L891.5,390.7 L891.7,381.0 L891.9,441.2 L892.1,389.5 L892.2,376.4 L892.4,316.3 L892.6,451.3 L892.8,289.5 L893.0,396.7 L893.2,487.9 L893.4,285.5 L893.6,543.0 L893.8,364.7 L894.0,401.0 L894.2,284.5 L894.4,328.5 L894.6,339.1 L894.8,409.7 L894.9,432.0 L895.1,292.6 L895.3,309.5 L895.5,307.8 L895.7,483.2 L895.9,508.5 L896.1,525.2 L896.3,461.8 L896.5,307.5 L896.7,515.1 L896.9,429.1 L897.1,423.8 L897.3,318.9 L897.5,350.7 L897.6,469.1 L897.8,377.5 L898.0,330.5 L898.2,448.2 L898.4,328.4 L898.6,523.2 L898.8,447.0 L899.0,351.2 L899.2,497.6 L899.4,476.1 L899.6,347.7 L899.8,538.0 L900.0,538.2 L900.2,474.2 L900.3,413.7 L900.5,518.7 L900.7,418.1 L900.9,509.1 L901.1,314.5 L901.3,415.1 L901.5,508.7 L901.7,369.1 L901.9,451.2 L902.1,444.9 L902.3,491.2 L902.5,479.4 L902.7,488.3 L902.9,542.9 L903.1,451.3 L903.2,470.6 L903.4,510.9 L903.6,534.8 L903.8,349.1 L904.0,362.9 L904.2,430.9 L904.4,485.5 L904.6,386.0 L904.8,396.8 L905.0,542.9 L905.2,365.8 L905.4,522.1 L905.6,306.2 L905.8,355.5 L905.9,484.8 L906.1,416.3 L906.3,530.6 L906.5,347.5 L906.7,496.2 L906.9,387.3 L907.1,478.3 L907.3,307.9 L907.5,509.3 L907.7,384.1 L907.9,450.3 L908.1,314.9 L908.3,480.5 L908.5,305.5 L908.6,493.1 L908.8,519.9 L909.0,327.8 L909.2,422.4 L909.4,523.0 L909.6,417.4 L909.8,389.6 L910.0,357.5 L910.2,321.8 L910.4,452.5 L910.6,448.6 L910.8,389.9 L911.0,495.6 L911.2,362.8 L911.3,530.7 L911.5,507.3 L911.7,475.2 L911.9,360.4 L912.1,322.6 L912.3,325.9 L912.5,415.1 L912.7,434.5 L912.9,409.2 L913.1,513.0 L913.3,405.8 L913.5,525.1 L913.7,343.7 L913.9,341.5 L914.0,372.7 L914.2,434.9 L914.4,380.7 L914.6,455.2 L914.8,503.3 L915.0,371.3 L915.2,377.2 L915.4,427.0 L915.6,415.6 L915.8,350.5 L916.0,430.5 L916.2,430.7 L916.4,316.0 L916.6,529.3 L916.7,361.3 L916.9,427.3 L917.1,321.5 L917.3,389.7 L917.5,451.7 L917.7,326.6 L917.9,353.5 L918.1,453.1 L918.3,532.1 L918.5,536.5 L918.7,458.1 L918.9,452.0 L919.1,415.8 L919.3,460.6 L919.4,318.0 L919.6,342.0 L919.8,512.9 L920.0,407.9 L920.2,422.7 L920.4,522.8 L920.6,333.3 L920.8,406.9 L921.0,503.4 L921.2,396.4 L921.4,454.9 L921.6,371.2 L921.8,381.1 L922.0,471.5 L922.1,479.8 L922.3,514.3 L922.5,391.2 L922.7,509.7 L922.9,478.6 L923.1,377.8 L923.3,482.0 L923.5,513.9 L923.7,520.5 L923.9,520.1 L924.1,478.7 L924.3,527.1 L924.5,361.8 L924.7,488.1 L924.8,347.3 L925.0,445.4 L925.2,526.4 L925.4,459.5 L925.6,512.7 L925.8,435.1 L926.0,451.2 L926.2,365.1 L926.4,424.6 L926.6,539.7 L926.8,535.0 L927.0,375.9 L927.2,365.1 L927.4,420.2 L927.5,409.8 L927.7,389.1 L927.9,513.8 L928.1,398.6 L928.3,479.7 L928.5,445.5 L928.7,356.1 L928.9,351.8 L929.1,521.9 L929.3,442.7 L929.5,401.3 L929.7,389.2 L929.9,368.5 L930.1,524.1 L930.3,398.5 L930.4,350.8 L930.6,420.8 L930.8,370.3 L931.0,481.0 L931.2,445.7 L931.4,506.8 L931.6,347.3 L931.8,433.4 L932.0,494.0 L932.2,357.6 L932.4,373.9 L932.6,383.3 L932.8,515.3 L933.0,345.0 L933.1,387.4 L933.3,488.6 L933.5,368.0 L933.7,481.7 L933.9,389.3 L934.1,445.3 L934.3,498.3 L934.5,407.7 L934.7,527.6 L934.9,391.1 L935.1,401.8 L935.3,515.1 L935.5,397.4 L935.7,404.2 L935.8,446.6 L936.0,435.5 L936.2,431.5 L936.4,377.5 L936.6,369.1 L936.8,371.8 L937.0,462.9 L937.2,496.3 L937.4,380.1 L937.6,503.1 L937.8,370.1 L938.0,456.5 L938.2,535.7 L938.4,389.0 L938.5,365.8 L938.7,459.1 L938.9,412.0 L939.1,506.7 L939.3,364.3 L939.5,523.5 L939.7,416.3 L939.9,421.3 L940.1,457.4 L940.3,384.8 L940.5,477.7 L940.7,510.6 L940.9,531.0 L941.1,486.9 L941.2,484.2 L941.4,348.4 L941.6,410.1 L941.8,347.6 L942.0,435.3 L942.2,541.4 L942.4,440.8 L942.6,463.8 L942.8,383.7 L943.0,411.9 L943.2,378.3 L943.4,505.0 L943.6,387.1 L943.8,481.7 L943.9,363.9 L944.1,416.7 L944.3,366.4 L944.5,421.0 L944.7,389.0 L944.9,513.1 L945.1,450.5 L945.3,508.8 L945.5,369.0 L945.7,514.3 L945.9,486.7 L946.1,428.3 L946.3,433.1 L946.5,391.0 L946.6,389.8 L946.8,403.9 L947.0,504.2 L947.2,532.8 L947.4,447.3 L947.6,385.5 L947.8,473.0 L948.0,392.5 L948.2,474.8 L948.4,478.7 L948.6,525.3 L948.8,485.3 L949.0,425.7 L949.2,434.7 L949.3,389.7 L949.5,452.7 L949.7,475.6 L949.9,399.7 L950.1,486.3 L950.3,438.0 L950.5,418.2 L950.7,478.1 L950.9,362.5 L951.1,502.8 L951.3,500.6 L951.5,400.0 L951.7,526.1 L951.9,366.4 L952.0,398.3 L952.2,453.0 L952.4,509.1 L952.6,479.2 L952.8,485.2 L953.0,406.6 L953.2,395.0 L953.4,373.9 L953.6,435.3 L953.8,508.2 L954.0,488.8 L954.2,538.1 L954.4,539.5 L954.6,489.2 L954.8,396.7 L954.9,534.1 L955.1,470.2 L955.3,403.1 L955.5,445.1 L955.7,469.7 L955.9,407.4 L956.1,495.5 L956.3,424.1 L956.5,378.9 L956.7,462.2 L956.9,493.2 L957.1,446.4 L957.3,473.6 L957.5,397.5 L957.6,465.6 L957.8,406.6 L958.0,531.8 L958.2,521.1 L958.4,427.6 L958.6,525.6 L958.8,382.5 L959.0,441.4 L959.2,403.4 L959.4,427.5 L959.6,469.2 L959.8,519.4 L960.0,434.0 L960.2,498.2 L960.3,543.5 L960.5,471.9 L960.7,445.5 L960.9,458.6 L961.1,424.0 L961.3,469.6 L961.5,409.7 L961.7,439.0 L961.9,519.5 L962.1,529.7 L962.3,518.5 L962.5,396.2 L962.7,388.1 L962.9,534.3 L963.0,420.4 L963.2,484.4 L963.4,495.5 L963.6,466.3 L963.8,525.4 L964.0,424.2 L964.2,439.0 L964.4,415.8 L964.6,526.6 L964.8,473.8 L965.0,476.5 L965.2,383.7 L965.4,457.5 L965.6,473.6 L965.7,495.2 L965.9,504.9 L966.1,429.7 L966.3,463.5 L966.5,419.3 L966.7,533.0 L966.9,501.7 L967.1,441.0 L967.3,386.7 L967.5,424.4 L967.7,454.1 L967.9,518.6 L968.1,415.7 L968.3,526.4 L968.4,501.8 L968.6,397.9 L968.8,512.2 L969.0,426.6 L969.2,388.7 L969.4,519.1 L969.6,531.2 L969.8,402.9 L970.0,485.9 L970.2,395.6 L970.4,400.0 L970.6,417.3 L970.8,504.2 L971.0,506.6 L971.1,444.5 L971.3,467.7 L971.5,492.0 L971.7,536.3 L971.9,434.0 L972.1,509.3 L972.3,496.0 L972.5,469.1 L972.7,496.4 L972.9,434.3 L973.1,431.7 L973.3,519.7 L973.5,442.3 L973.7,441.9 L973.8,437.9 L974.0,401.1 L974.2,425.1 L974.4,521.7 L974.6,410.0 L974.8,495.4 L975.0,466.0 L975.2,524.0 L975.4,425.4 L975.6,523.9 L975.8,405.1 L976.0,407.4 L976.2,419.7 L976.4,396.7 L976.5,502.1 L976.7,442.0 L976.9,495.5 L977.1,445.2 L977.3,428.0 L977.5,542.4 L977.7,539.1 L977.9,406.9 L978.1,467.0 L978.3,523.7 L978.5,482.6 L978.7,500.7 L978.9,454.2 L979.1,470.4 L979.2,509.6 L979.4,492.1 L979.6,451.9 L979.8,511.2 L980.0,405.5 L980.2,541.9 L980.4,489.0 L980.6,505.7 L980.8,481.0 L981.0,542.5 L981.2,457.4 L981.4,423.2 L981.6,525.0 L981.8,442.5 L982.0,494.7 L982.1,469.2 L982.3,525.3 L982.5,424.6 L982.7,418.7 L982.9,450.3 L983.1,539.8 L983.3,437.6 L983.5,439.6 L983.7,460.0 L983.9,408.6 L984.1,411.6 L984.3,476.7 L984.5,522.6 L984.7,414.7 L984.8,439.5 L985.0,421.0 L985.2,418.9 L985.4,490.7 L985.6,501.4 L985.8,411.1 L986.0,463.5 L986.2,470.0 L986.4,499.7 L986.6,512.8 L986.8,521.4 L987.0,408.9 L987.2,513.4 L987.4,539.2 L987.5,410.1 L987.7,502.3 L987.9,411.6 L988.1,494.2 L988.3,443.1 L988.5,504.5 L988.7,431.3 L988.9,501.7 L989.1,445.8 L989.3,457.0 L989.5,434.3 L989.7,499.2 L989.9,438.2 L990.1,468.0 L990.2,440.5 L990.4,526.4 L990.6,466.3 L990.8,507.4 L991.0,526.2 L991.2,434.6 L991.4,487.7 L991.6,483.1 L991.8,517.9 L992.0,520.4 L992.2,459.0 L992.4,430.8 L992.6,425.8 L992.8,450.5 L992.9,464.3 L993.1,503.6 L993.3,472.8 L993.5,500.1 L993.7,498.1 L993.9,485.1 L994.1,484.3 L994.3,457.7 L994.5,445.0 L994.7,436.0 L994.9,440.3 L995.1,522.0 L995.3,450.3 L995.5,520.3 L995.6,460.0 L995.8,511.9 L996.0,525.9 L996.2,520.4 L996.4,508.9 L996.6,528.1 L996.8,528.6 L997.0,453.9 L997.2,483.7 L997.4,461.2 L997.6,529.9 L997.8,514.0 L998.0,516.1 L998.2,460.5 L998.3,536.6 L998.5,501.0 L998.7,513.5 L998.9,444.4 L999.1,485.8 L999.3,490.4 L999.5,524.3 L999.7,493.9 L999.9,458.1 L1000.1,433.0 L1000.3,495.5 L1000.5,527.5 L1000.7,476.8 L1000.9,470.4 L1001.0,528.7 L1001.2,443.0 L1001.4,508.4 L1001.6,441.0 L1001.8,527.6 L1002.0,525.3 L1002.2,491.7 L1002.4,471.7 L1002.6,462.8 L1002.8,540.4 L1003.0,457.0 L1003.2,440.9 L1003.4,490.7 L1003.6,497.6 L1003.7,531.5 L1003.9,537.5 L1004.1,441.4 L1004.3,526.8 L1004.5,471.5 L1004.7,502.1 L1004.9,461.5 L1005.1,523.1 L1005.3,446.3 L1005.5,472.1 L1005.7,438.7 L1005.9,529.7 L1006.1,439.9 L1006.3,514.6 L1006.5,511.0 L1006.6,437.3 L1006.8,469.9 L1007.0,509.5 L1007.2,507.0 L1007.4,540.4 L1007.6,436.7 L1007.8,450.7 L1008.0,481.9 L1008.2,526.4 L1008.4,518.4 L1008.6,519.5 L1008.8,538.6 L1009.0,472.8 L1009.2,514.9 L1009.3,466.6 L1009.5,453.9 L1009.7,446.5 L1009.9,468.0 L1010.1,496.1 L1010.3,496.2 L1010.5,537.5 L1010.7,516.2 L1010.9,527.0 L1011.1,459.5 L1011.3,541.7 L1011.5,523.1 L1011.7,536.5 L1011.9,468.3 L1012.0,499.0 L1012.2,526.4 L1012.4,448.8 L1012.6,499.9 L1012.8,486.0 L1013.0,468.2 L1013.2,480.7 L1013.4,521.0 L1013.6,466.8 L1013.8,469.7 L1014.0,491.6 L1014.2,464.8 L1014.4,517.5 L1014.6,453.8 L1014.7,517.3 L1014.9,483.2 L1015.1,519.9 L1015.3,480.0 L1015.5,462.2 L1015.7,467.6 L1015.9,534.2 L1016.1,456.2 L1016.3,459.7 L1016.5,501.5 L1016.7,476.2 L1016.9,505.0 L1017.1,455.6 L1017.3,487.9 L1017.4,456.1 L1017.6,538.3 L1017.8,487.3 L1018.0,478.5 L1018.2,521.0 L1018.4,498.0 L1018.6,454.5 L1018.8,498.4 L1019.0,508.9 L1019.2,497.5 L1019.4,519.8 L1019.6,537.1 L1019.8,539.7 L1020.0,509.2 L1020.1,504.3 L1020.3,526.3 L1020.5,541.8 L1020.7,483.0 L1020.9,486.9 L1021.1,489.1 L1021.3,490.3 L1021.5,515.5 L1021.7,506.6 L1021.9,514.8 L1022.1,465.1 L1022.3,459.3 L1022.5,515.4 L1022.7,469.9 L1022.8,536.6 L1023.0,529.8 L1023.2,510.1 L1023.4,519.2 L1023.6,462.2 L1023.8,529.9 L1024.0,528.8 L1024.2,486.6 L1024.4,510.2 L1024.6,502.3 L1024.8,512.8 L1025.0,474.5 L1025.2,472.8 L1025.4,523.2 L1025.5,527.9 L1025.7,461.6 L1025.9,526.3 L1026.1,464.9 L1026.3,483.7 L1026.5,514.5 L1026.7,486.5 L1026.9,489.8 L1027.1,500.9 L1027.3,512.9 L1027.5,497.9 L1027.7,490.2 L1027.9,515.3 L1028.1,509.2 L1028.2,506.5 L1028.4,476.3 L1028.6,465.2 L1028.8,540.3 L1029.0,505.4 L1029.2,489.5 L1029.4,487.3 L1029.6,466.6 L1029.8,507.1 L1030.0,495.3 L1030.2,498.9 L1030.4,466.8 L1030.6,519.6 L1030.8,496.9 L1030.9,522.6 L1031.1,508.5 L1031.3,505.1 L1031.5,496.1 L1031.7,518.9 L1031.9,522.2 L1032.1,539.1 L1032.3,472.5 L1032.5,499.9 L1032.7,509.5 L1032.9,484.5 L1033.1,508.4 L1033.3,490.4 L1033.5,495.5 L1033.7,509.6 L1033.8,492.6 L1034.0,472.9 L1034.2,499.3 L1034.4,478.2 L1034.6,521.5 L1034.8,503.8 L1035.0,493.0 L1035.2,513.1 L1035.4,520.1 L1035.6,527.6 L1035.8,500.2 L1036.0,543.5 L1036.2,498.4 L1036.4,536.6 L1036.5,480.7 L1036.7,488.3 L1036.9,501.0 L1037.1,520.4 L1037.3,528.0 L1037.5,488.3 L1037.7,486.6 L1037.9,500.6 L1038.1,478.5 L1038.3,492.9 L1038.5,523.6 L1038.7,501.8 L1038.9,493.4 L1039.1,515.5 L1039.2,499.1 L1039.4,527.0 L1039.6,506.3 L1039.8,495.4 L1040.0,542.8 L1040.2,488.1 L1040.4,490.1 L1040.6,542.9 L1040.8,520.2 L1041.0,515.7 L1041.2,525.1 L1041.4,542.3 L1041.6,481.9 L1041.8,543.2 L1041.9,486.0 L1042.1,511.6 L1042.3,497.4 L1042.5,498.1 L1042.7,519.2 L1042.9,528.4 L1043.1,523.2 L1043.3,525.8 L1043.5,493.9 L1043.7,520.6 L1043.9,522.4 L1044.1,515.4 L1044.3,539.8 L1044.5,494.0 L1044.6,531.1 L1044.8,503.6 L1045.0,488.9 L1045.2,513.6 L1045.4,522.3 L1045.6,505.5 L1045.8,541.2 L1046.0,527.7 L1046.2,501.1 L1046.4,510.8 L1046.6,503.7 L1046.8,537.9 L1047.0,501.5 L1047.2,522.8 L1047.3,529.1 L1047.5,527.7 L1047.7,492.8 L1047.9,493.7 L1048.1,504.6 L1048.3,496.7 L1048.5,513.0 L1048.7,497.8 L1048.9,498.3 L1049.1,495.5 L1049.3,504.6 L1049.5,504.4 L1049.7,522.2 L1049.9,523.2 L1050.0,543.4 L1050.2,537.5 L1050.4,523.2 L1050.6,526.4 L1050.8,533.4 L1051.0,513.6 L1051.2,501.5 L1051.4,527.8 L1051.6,532.1 L1051.8,522.2 L1052.0,502.8 L1052.2,511.8 L1052.4,532.6 L1052.6,514.5 L1052.7,520.3 L1052.9,536.1 L1053.1,504.7 L1053.3,504.6 L1053.5,508.9 L1053.7,509.9 L1053.9,516.2 L1054.1,522.8 L1054.3,519.4 L1054.5,515.0 L1054.7,511.1 L1054.9,502.3 L1055.1,514.7 L1055.3,509.3 L1055.4,521.3 L1055.6,514.7 L1055.8,505.0 L1056.0,507.6 L1056.2,537.5 L1056.4,520.6 L1056.6,525.6 L1056.8,502.9 L1057.0,516.3 L1057.2,540.3 L1057.4,521.1 L1057.6,537.4 L1057.8,527.7 L1058.0,536.4 L1058.2,542.2 L1058.3,528.6 L1058.5,521.1 L1058.7,524.2 L1058.9,531.2 L1059.1,518.5 L1059.3,524.4 L1059.5,518.2 L1059.7,538.6 L1059.9,507.1 L1060.1,517.1 L1060.3,513.0 L1060.5,527.3 L1060.7,541.6 L1060.9,509.6 L1061.0,537.0 L1061.2,536.8 L1061.4,521.6 L1061.6,517.3 L1061.8,509.9 L1062.0,529.2 L1062.2,539.3 L1062.4,542.7 L1062.6,514.8 L1062.8,529.0 L1063.0,512.9 L1063.2,543.0 L1063.4,535.2 L1063.6,535.9 L1063.7,529.5 L1063.9,541.1 L1064.1,536.6 L1064.3,520.7 L1064.5,533.8 L1064.7,540.6 L1064.9,532.1 L1065.1,514.5 L1065.3,543.9 L1065.5,525.5 L1065.7,534.5 L1065.9,520.1 L1066.1,541.6 L1066.3,524.3 L1066.4,522.3 L1066.6,519.5 L1066.8,533.8 L1067.0,540.6 L1067.2,542.0 L1067.4,517.9 L1067.6,529.9 L1067.8,523.6 L1068.0,521.7 L1068.2,534.4 L1068.4,535.1 L1068.6,525.6 L1068.8,533.1 L1069.0,537.6 L1069.1,535.3 L1069.3,539.3 L1069.5,540.6 L1069.7,533.1 L1069.9,540.2 L1070.1,524.5 L1070.3,527.2 L1070.5,533.4 L1070.7,537.4 L1070.9,530.9 L1071.1,537.6 L1071.3,527.8 L1071.5,536.7 L1071.7,542.1 L1071.8,523.6 L1072.0,534.5 L1072.2,543.8 L1072.4,529.2 L1072.6,534.9 L1072.8,543.3 L1073.0,530.9 L1073.2,542.1 L1073.4,543.8 L1073.6,535.5 L1073.8,525.9 L1074.0,529.9 L1074.2,527.8 L1074.4,530.4 L1074.5,530.2 L1074.7,526.8 L1074.9,527.3 L1075.1,537.9 L1075.3,531.1 L1075.5,544.0 L1075.7,537.0 L1075.9,532.7 L1076.1,529.9 L1076.3,540.6 L1076.5,542.9 L1076.7,534.1 L1076.9,536.2 L1077.1,538.3 L1077.2,530.2 L1077.4,535.2 L1077.6,531.1 L1077.8,533.0 L1078.0,540.0 L1078.2,540.2 L1078.4,538.8 L1078.6,540.5 L1078.8,535.8 L1079.0,539.0 L1079.2,537.0 L1079.4,538.5 L1079.6,542.2 L1079.8,542.0 L1079.9,537.2 L1080.1,541.7 L1080.3,541.0 L1080.5,538.3 L1080.7,535.1 L1080.9,540.4 L1081.1,539.9 L1081.3,542.4 L1081.5,538.5 L1081.7,544.0 L1081.9,541.1 L1082.1,536.9 L1082.3,543.6 L1082.5,539.1 L1082.6,542.3 L1082.8,543.9 L1083.0,539.2 L1083.2,541.5 L1083.4,541.9 L1083.6,538.5 L1083.8,539.5 L1084.0,543.0" fill="none" stroke="#1f77b4" stroke-width="1.4" opacity="0.85"/><text x="1040" y="54" fill="#ff7f0e" font-size="11">roll 21</text><text x="1090" y="558" fill="#ff7f0e" font-size="11">-21</text><path d="M616.0,307.8 L616.2,310.0 L616.4,302.2 L616.6,319.0 L616.8,306.6 L617.0,314.5 L617.2,305.5 L617.4,305.5 L617.5,319.0 L617.7,308.9 L617.9,313.4 L618.1,297.7 L618.3,304.4 L618.5,316.7 L618.7,298.8 L618.9,316.7 L619.1,308.9 L619.3,305.5 L619.5,315.6 L619.7,302.2 L619.9,301.0 L620.1,310.0 L620.2,304.4 L620.4,317.8 L620.6,313.4 L620.8,303.3 L621.0,307.8 L621.2,305.5 L621.4,312.2 L621.6,304.4 L621.8,317.8 L622.0,306.6 L622.2,319.0 L622.4,320.1 L622.6,310.0 L622.8,306.6 L622.9,315.6 L623.1,303.3 L623.3,303.3 L623.5,316.7 L623.7,316.7 L623.9,311.1 L624.1,319.0 L624.3,301.0 L624.5,319.0 L624.7,307.8 L624.9,311.1 L625.1,312.2 L625.3,319.0 L625.5,317.8 L625.6,299.9 L625.8,313.4 L626.0,304.4 L626.2,316.7 L626.4,315.6 L626.6,314.5 L626.8,316.7 L627.0,302.2 L627.2,315.6 L627.4,301.0 L627.6,306.6 L627.8,298.8 L628.0,303.3 L628.2,302.2 L628.3,315.6 L628.5,301.0 L628.7,306.6 L628.9,319.0 L629.1,307.8 L629.3,299.9 L629.5,320.1 L629.7,319.0 L629.9,306.6 L630.1,302.2 L630.3,303.3 L630.5,316.7 L630.7,302.2 L630.9,306.6 L631.0,314.5 L631.2,303.3 L631.4,303.3 L631.6,305.5 L631.8,306.6 L632.0,306.6 L632.2,305.5 L632.4,316.7 L632.6,297.7 L632.8,308.9 L633.0,317.8 L633.2,308.9 L633.4,317.8 L633.6,303.3 L633.7,311.1 L633.9,298.8 L634.1,312.2 L634.3,299.9 L634.5,303.3 L634.7,305.5 L634.9,308.9 L635.1,302.2 L635.3,314.5 L635.5,301.0 L635.7,302.2 L635.9,299.9 L636.1,298.8 L636.3,303.3 L636.4,310.0 L636.6,302.2 L636.8,306.6 L637.0,307.8 L637.2,312.2 L637.4,305.5 L637.6,298.8 L637.8,304.4 L638.0,303.3 L638.2,307.8 L638.4,313.4 L638.6,314.5 L638.8,320.1 L639.0,307.8 L639.1,304.4 L639.3,315.6 L639.5,304.4 L639.7,313.4 L639.9,308.9 L640.1,312.2 L640.3,311.1 L640.5,297.7 L640.7,304.4 L640.9,313.4 L641.1,316.7 L641.3,303.3 L641.5,316.7 L641.7,312.2 L641.8,306.6 L642.0,308.9 L642.2,311.1 L642.4,311.1 L642.6,308.9 L642.8,297.7 L643.0,312.2 L643.2,308.9 L643.4,302.2 L643.6,316.7 L643.8,305.5 L644.0,305.5 L644.2,317.8 L644.4,315.6 L644.6,307.8 L644.7,305.5 L644.9,298.8 L645.1,299.9 L645.3,311.1 L645.5,320.1 L645.7,312.2 L645.9,316.7 L646.1,310.0 L646.3,306.6 L646.5,315.6 L646.7,316.7 L646.9,299.9 L647.1,310.0 L647.3,305.5 L647.4,320.1 L647.6,302.2 L647.8,319.0 L648.0,305.5 L648.2,317.8 L648.4,299.9 L648.6,302.2 L648.8,299.9 L649.0,311.1 L649.2,312.2 L649.4,301.0 L649.6,319.0 L649.8,301.0 L650.0,310.0 L650.1,303.3 L650.3,317.8 L650.5,303.3 L650.7,306.6 L650.9,306.6 L651.1,319.0 L651.3,317.8 L651.5,304.4 L651.7,308.9 L651.9,301.0 L652.1,312.2 L652.3,311.1 L652.5,307.8 L652.7,302.2 L652.8,301.0 L653.0,316.7 L653.2,298.8 L653.4,302.2 L653.6,314.5 L653.8,305.5 L654.0,301.0 L654.2,302.2 L654.4,307.8 L654.6,319.0 L654.8,306.6 L655.0,298.8 L655.2,301.0 L655.4,314.5 L655.5,314.5 L655.7,319.0 L655.9,297.7 L656.1,297.7 L656.3,304.4 L656.5,305.5 L656.7,315.6 L656.9,299.9 L657.1,316.7 L657.3,307.8 L657.5,317.8 L657.7,311.1 L657.9,306.6 L658.1,316.7 L658.2,304.4 L658.4,313.4 L658.6,312.2 L658.8,305.5 L659.0,315.6 L659.2,312.2 L659.4,302.2 L659.6,307.8 L659.8,304.4 L660.0,303.3 L660.2,307.8 L660.4,317.8 L660.6,301.0 L660.8,308.9 L660.9,301.0 L661.1,320.1 L661.3,317.8 L661.5,312.2 L661.7,306.6 L661.9,305.5 L662.1,317.8 L662.3,314.5 L662.5,301.0 L662.7,317.8 L662.9,312.2 L663.1,301.0 L663.3,317.8 L663.5,302.2 L663.6,317.8 L663.8,314.5 L664.0,312.2 L664.2,312.2 L664.4,298.8 L664.6,311.1 L664.8,311.1 L665.0,304.4 L665.2,301.0 L665.4,313.4 L665.6,307.8 L665.8,306.6 L666.0,302.2 L666.2,314.5 L666.3,316.7 L666.5,299.9 L666.7,319.0 L666.9,313.4 L667.1,310.0 L667.3,315.6 L667.5,314.5 L667.7,320.1 L667.9,314.5 L668.1,305.5 L668.3,316.7 L668.5,319.0 L668.7,315.6 L668.9,316.7 L669.1,306.6 L669.2,304.4 L669.4,308.9 L669.6,311.1 L669.8,314.5 L670.0,307.8 L670.2,316.7 L670.4,312.2 L670.6,317.8 L670.8,303.3 L671.0,306.6 L671.2,308.9 L671.4,312.2 L671.6,301.0 L671.8,304.4 L671.9,315.6 L672.1,303.3 L672.3,312.2 L672.5,313.4 L672.7,306.6 L672.9,312.2 L673.1,314.5 L673.3,299.9 L673.5,304.4 L673.7,313.4 L673.9,317.8 L674.1,306.6 L674.3,303.3 L674.5,304.4 L674.6,298.8 L674.8,304.4 L675.0,303.3 L675.2,298.8 L675.4,315.6 L675.6,312.2 L675.8,298.8 L676.0,298.8 L676.2,316.7 L676.4,313.4 L676.6,311.1 L676.8,317.8 L677.0,308.9 L677.2,298.8 L677.3,298.8 L677.5,303.3 L677.7,302.2 L677.9,306.6 L678.1,302.2 L678.3,320.1 L678.5,303.3 L678.7,275.3 L678.9,315.6 L679.1,297.7 L679.3,304.4 L679.5,279.8 L679.7,303.3 L679.9,307.8 L680.0,276.4 L680.2,310.0 L680.4,269.7 L680.6,251.8 L680.8,238.3 L681.0,265.2 L681.2,311.1 L681.4,276.4 L681.6,274.2 L681.8,313.4 L682.0,299.9 L682.2,250.7 L682.4,259.6 L682.6,288.7 L682.7,202.5 L682.9,235.0 L683.1,254.0 L683.3,185.7 L683.5,314.5 L683.7,270.8 L683.9,302.2 L684.1,287.6 L684.3,306.6 L684.5,303.3 L684.7,221.6 L684.9,182.4 L685.1,250.7 L685.3,269.7 L685.4,317.8 L685.6,305.5 L685.8,255.1 L686.0,212.6 L686.2,319.0 L686.4,285.4 L686.6,310.0 L686.8,267.5 L687.0,219.3 L687.2,185.7 L687.4,231.6 L687.6,134.2 L687.8,235.0 L688.0,241.7 L688.1,186.8 L688.3,177.9 L688.5,194.7 L688.7,294.3 L688.9,201.4 L689.1,280.9 L689.3,151.0 L689.5,303.3 L689.7,259.6 L689.9,320.1 L690.1,157.7 L690.3,319.0 L690.5,172.3 L690.7,275.3 L690.8,238.3 L691.0,217.1 L691.2,320.1 L691.4,255.1 L691.6,236.1 L691.8,212.6 L692.0,177.9 L692.2,185.7 L692.4,221.6 L692.6,265.2 L692.8,216.0 L693.0,259.6 L693.2,243.9 L693.4,194.7 L693.5,204.8 L693.7,176.8 L693.9,268.6 L694.1,231.6 L694.3,255.1 L694.5,154.4 L694.7,183.5 L694.9,186.8 L695.1,256.3 L695.3,241.7 L695.5,175.6 L695.7,288.7 L695.9,303.3 L696.1,254.0 L696.3,177.9 L696.4,250.7 L696.6,193.6 L696.8,223.8 L697.0,217.1 L697.2,239.5 L697.4,279.8 L697.6,310.0 L697.8,320.1 L698.0,336.9 L698.2,343.6 L698.4,299.9 L698.6,312.2 L698.8,334.6 L699.0,372.7 L699.1,430.9 L699.3,422.0 L699.5,446.6 L699.7,420.8 L699.9,351.4 L700.1,469.0 L700.3,390.6 L700.5,307.8 L700.7,353.7 L700.9,360.4 L701.1,308.9 L701.3,355.9 L701.5,462.3 L701.7,398.4 L701.8,302.2 L702.0,335.8 L702.2,297.7 L702.4,422.0 L702.6,338.0 L702.8,493.6 L703.0,465.6 L703.2,452.2 L703.4,330.2 L703.6,519.4 L703.8,394.0 L704.0,408.5 L704.2,317.8 L704.4,539.5 L704.5,418.6 L704.7,407.4 L704.9,523.8 L705.1,339.1 L705.3,373.8 L705.5,416.4 L705.7,453.3 L705.9,504.8 L706.1,407.4 L706.3,469.0 L706.5,334.6 L706.7,471.2 L706.9,378.3 L707.1,479.1 L707.2,348.1 L707.4,298.8 L707.6,436.5 L707.8,409.6 L708.0,377.2 L708.2,433.2 L708.4,314.5 L708.6,385.0 L708.8,361.5 L709.0,482.4 L709.2,418.6 L709.4,442.1 L709.6,311.1 L709.8,404.0 L709.9,350.3 L710.1,348.1 L710.3,416.4 L710.5,454.4 L710.7,385.0 L710.9,407.4 L711.1,411.9 L711.3,355.9 L711.5,467.9 L711.7,402.9 L711.9,513.8 L712.1,329.0 L712.3,500.3 L712.5,341.3 L712.6,323.4 L712.8,435.4 L713.0,381.7 L713.2,386.1 L713.4,443.2 L713.6,361.5 L713.8,379.4 L714.0,386.1 L714.2,522.7 L714.4,434.3 L714.6,379.4 L714.8,340.2 L715.0,297.7 L715.2,498.1 L715.3,480.2 L715.5,354.8 L715.7,339.1 L715.9,456.7 L716.1,359.3 L716.3,544.0 L716.5,397.3 L716.7,343.6 L716.9,398.4 L717.1,331.3 L717.3,408.5 L717.5,502.6 L717.7,450.0 L717.9,493.6 L718.0,355.9 L718.2,495.9 L718.4,429.8 L718.6,333.5 L718.8,400.7 L719.0,382.8 L719.2,458.9 L719.4,446.6 L719.6,448.8 L719.8,466.7 L720.0,471.2 L720.2,399.6 L720.4,465.6 L720.6,320.1 L720.8,317.8 L720.9,406.3 L721.1,315.6 L721.3,409.6 L721.5,349.2 L721.7,370.5 L721.9,359.3 L722.1,344.7 L722.3,415.2 L722.5,428.7 L722.7,423.1 L722.9,380.5 L723.1,415.2 L723.3,477.9 L723.5,416.4 L723.6,541.8 L723.8,394.0 L724.0,338.0 L724.2,479.1 L724.4,448.8 L724.6,343.6 L724.8,490.3 L725.0,402.9 L725.2,364.9 L725.4,519.4 L725.6,359.3 L725.8,481.3 L726.0,312.2 L726.2,415.2 L726.3,312.2 L726.5,484.7 L726.7,461.1 L726.9,369.3 L727.1,359.3 L727.3,494.7 L727.5,464.5 L727.7,362.6 L727.9,451.1 L728.1,392.9 L728.3,340.2 L728.5,430.9 L728.7,339.1 L728.9,344.7 L729.0,355.9 L729.2,342.5 L729.4,331.3 L729.6,297.7 L729.8,289.8 L730.0,260.7 L730.2,313.4 L730.4,307.8 L730.6,258.5 L730.8,212.6 L731.0,216.0 L731.2,297.7 L731.4,239.5 L731.6,303.3 L731.7,183.5 L731.9,263.0 L732.1,243.9 L732.3,243.9 L732.5,193.6 L732.7,224.9 L732.9,136.5 L733.1,315.6 L733.3,192.4 L733.5,304.4 L733.7,230.5 L733.9,273.1 L734.1,264.1 L734.3,288.7 L734.4,270.8 L734.6,233.9 L734.8,172.3 L735.0,158.9 L735.2,189.1 L735.4,248.4 L735.6,183.5 L735.8,294.3 L736.0,265.2 L736.2,166.7 L736.4,195.8 L736.6,186.8 L736.8,251.8 L737.0,310.0 L737.1,137.6 L737.3,126.4 L737.5,125.3 L737.7,258.5 L737.9,222.7 L738.1,148.8 L738.3,261.9 L738.5,291.0 L738.7,212.6 L738.9,192.4 L739.1,149.9 L739.3,293.2 L739.5,204.8 L739.7,233.9 L739.8,238.3 L740.0,204.8 L740.2,188.0 L740.4,107.3 L740.6,199.2 L740.8,218.2 L741.0,148.8 L741.2,277.5 L741.4,170.0 L741.6,166.7 L741.8,161.1 L742.0,209.2 L742.2,155.5 L742.4,222.7 L742.5,189.1 L742.7,116.3 L742.9,224.9 L743.1,161.1 L743.3,252.9 L743.5,205.9 L743.7,267.5 L743.9,114.1 L744.1,248.4 L744.3,242.8 L744.5,200.3 L744.7,161.1 L744.9,293.2 L745.1,232.7 L745.2,148.8 L745.4,220.4 L745.6,179.0 L745.8,265.2 L746.0,213.7 L746.2,175.6 L746.4,257.4 L746.6,179.0 L746.8,161.1 L747.0,314.5 L747.2,315.6 L747.4,189.1 L747.6,265.2 L747.8,287.6 L748.0,132.0 L748.1,273.1 L748.3,186.8 L748.5,165.6 L748.7,216.0 L748.9,200.3 L749.1,307.8 L749.3,167.8 L749.5,172.3 L749.7,164.4 L749.9,202.5 L750.1,236.1 L750.3,180.1 L750.5,261.9 L750.7,246.2 L750.8,198.0 L751.0,238.3 L751.2,217.1 L751.4,181.2 L751.6,247.3 L751.8,162.2 L752.0,174.5 L752.2,243.9 L752.4,264.1 L752.6,115.2 L752.8,297.7 L753.0,176.8 L753.2,258.5 L753.4,151.0 L753.5,242.8 L753.7,263.0 L753.9,181.2 L754.1,171.2 L754.3,223.8 L754.5,232.7 L754.7,277.5 L754.9,308.9 L755.1,177.9 L755.3,240.6 L755.5,76.0 L755.7,310.0 L755.9,194.7 L756.1,221.6 L756.2,147.7 L756.4,256.3 L756.6,292.1 L756.8,285.4 L757.0,207.0 L757.2,205.9 L757.4,297.7 L757.6,105.1 L757.8,291.0 L758.0,142.1 L758.2,314.5 L758.4,256.3 L758.6,243.9 L758.8,176.8 L758.9,283.1 L759.1,269.7 L759.3,239.5 L759.5,132.0 L759.7,185.7 L759.9,232.7 L760.1,115.2 L760.3,130.9 L760.5,115.2 L760.7,154.4 L760.9,138.7 L761.1,284.2 L761.3,263.0 L761.5,209.2 L761.6,200.3 L761.8,87.2 L762.0,147.7 L762.2,227.1 L762.4,162.2 L762.6,127.5 L762.8,226.0 L763.0,183.5 L763.2,283.1 L763.4,249.5 L763.6,267.5 L763.8,304.4 L764.0,207.0 L764.2,307.8 L764.3,95.0 L764.5,313.4 L764.7,133.1 L764.9,240.6 L765.1,115.2 L765.3,248.4 L765.5,230.5 L765.7,317.8 L765.9,233.9 L766.1,227.1 L766.3,140.9 L766.5,308.9 L766.7,231.6 L766.9,166.7 L767.0,243.9 L767.2,264.1 L767.4,235.0 L767.6,313.4 L767.8,205.9 L768.0,162.2 L768.2,152.1 L768.4,221.6 L768.6,237.2 L768.8,116.3 L769.0,274.2 L769.2,211.5 L769.4,283.1 L769.6,297.7 L769.7,155.5 L769.9,217.1 L770.1,255.1 L770.3,227.1 L770.5,142.1 L770.7,263.0 L770.9,275.3 L771.1,232.7 L771.3,288.7 L771.5,252.9 L771.7,202.5 L771.9,132.0 L772.1,219.3 L772.3,207.0 L772.5,111.8 L772.6,172.3 L772.8,175.6 L773.0,171.2 L773.2,111.8 L773.4,191.3 L773.6,207.0 L773.8,133.1 L774.0,140.9 L774.2,177.9 L774.4,315.6 L774.6,239.5 L774.8,185.7 L775.0,263.0 L775.2,271.9 L775.3,164.4 L775.5,312.2 L775.7,252.9 L775.9,292.1 L776.1,219.3 L776.3,277.5 L776.5,276.4 L776.7,181.2 L776.9,239.5 L777.1,247.3 L777.3,95.0 L777.5,292.1 L777.7,186.8 L777.9,274.2 L778.0,248.4 L778.2,130.9 L778.4,250.7 L778.6,275.3 L778.8,219.3 L779.0,270.8 L779.2,190.2 L779.4,174.5 L779.6,177.9 L779.8,254.0 L780.0,179.0 L780.2,314.5 L780.4,139.8 L780.6,276.4 L780.7,226.0 L780.9,135.3 L781.1,264.1 L781.3,303.3 L781.5,183.5 L781.7,188.0 L781.9,148.8 L782.1,228.3 L782.3,236.1 L782.5,147.7 L782.7,283.1 L782.9,145.4 L783.1,315.6 L783.3,172.3 L783.4,260.7 L783.6,164.4 L783.8,254.0 L784.0,170.0 L784.2,261.9 L784.4,203.6 L784.6,210.4 L784.8,278.7 L785.0,286.5 L785.2,239.5 L785.4,184.6 L785.6,243.9 L785.8,287.6 L786.0,115.2 L786.1,201.4 L786.3,181.2 L786.5,312.2 L786.7,261.9 L786.9,283.1 L787.1,135.3 L787.3,193.6 L787.5,259.6 L787.7,251.8 L787.9,194.7 L788.1,183.5 L788.3,304.4 L788.5,280.9 L788.7,297.7 L788.8,241.7 L789.0,232.7 L789.2,126.4 L789.4,184.6 L789.6,219.3 L789.8,283.1 L790.0,120.8 L790.2,123.0 L790.4,153.3 L790.6,230.5 L790.8,223.8 L791.0,204.8 L791.2,110.7 L791.4,284.2 L791.5,310.0 L791.7,301.0 L791.9,174.5 L792.1,252.9 L792.3,135.3 L792.5,274.2 L792.7,221.6 L792.9,266.3 L793.1,170.0 L793.3,167.8 L793.5,167.8 L793.7,279.8 L793.9,208.1 L794.1,313.4 L794.2,177.9 L794.4,241.7 L794.6,296.6 L794.8,229.4 L795.0,305.5 L795.2,186.8 L795.4,202.5 L795.6,317.8 L795.8,305.5 L796.0,157.7 L796.2,213.7 L796.4,232.7 L796.6,239.5 L796.8,286.5 L796.9,199.2 L797.1,220.4 L797.3,284.2 L797.5,301.0 L797.7,153.3 L797.9,145.4 L798.1,275.3 L798.3,310.0 L798.5,199.2 L798.7,307.8 L798.9,220.4 L799.1,207.0 L799.3,305.5 L799.5,146.5 L799.7,248.4 L799.8,154.4 L800.0,161.1 L800.2,207.0 L800.4,312.2 L800.6,288.7 L800.8,249.5 L801.0,283.1 L801.2,211.5 L801.4,173.4 L801.6,229.4 L801.8,181.2 L802.0,241.7 L802.2,132.0 L802.4,174.5 L802.5,226.0 L802.7,127.5 L802.9,224.9 L803.1,210.4 L803.3,233.9 L803.5,174.5 L803.7,202.5 L803.9,233.9 L804.1,166.7 L804.3,228.3 L804.5,299.9 L804.7,245.1 L804.9,199.2 L805.1,143.2 L805.2,303.3 L805.4,171.2 L805.6,231.6 L805.8,311.1 L806.0,261.9 L806.2,165.6 L806.4,230.5 L806.6,212.6 L806.8,196.9 L807.0,154.4 L807.2,152.1 L807.4,208.1 L807.6,279.8 L807.8,210.4 L807.9,233.9 L808.1,276.4 L808.3,153.3 L808.5,305.5 L808.7,315.6 L808.9,293.2 L809.1,258.5 L809.3,202.5 L809.5,214.8 L809.7,192.4 L809.9,239.5 L810.1,149.9 L810.3,311.1 L810.5,229.4 L810.6,207.0 L810.8,170.0 L811.0,248.4 L811.2,217.1 L811.4,161.1 L811.6,312.2 L811.8,292.1 L812.0,250.7 L812.2,211.5 L812.4,224.9 L812.6,182.4 L812.8,304.4 L813.0,165.6 L813.2,249.5 L813.3,238.3 L813.5,286.5 L813.7,305.5 L813.9,269.7 L814.1,204.8 L814.3,192.4 L814.5,195.8 L814.7,245.1 L814.9,259.6 L815.1,267.5 L815.3,255.1 L815.5,119.7 L815.7,125.3 L815.9,177.9 L816.0,130.9 L816.2,235.0 L816.4,183.5 L816.6,261.9 L816.8,218.2 L817.0,186.8 L817.2,304.4 L817.4,195.8 L817.6,233.9 L817.8,146.5 L818.0,304.4 L818.2,227.1 L818.4,189.1 L818.6,267.5 L818.7,276.4 L818.9,237.2 L819.1,238.3 L819.3,199.2 L819.5,293.2 L819.7,287.6 L819.9,270.8 L820.1,282.0 L820.3,270.8 L820.5,142.1 L820.7,198.0 L820.9,207.0 L821.1,269.7 L821.3,264.1 L821.4,201.4 L821.6,132.0 L821.8,214.8 L822.0,277.5 L822.2,183.5 L822.4,158.9 L822.6,202.5 L822.8,279.8 L823.0,193.6 L823.2,212.6 L823.4,228.3 L823.6,282.0 L823.8,235.0 L824.0,204.8 L824.2,256.3 L824.3,273.1 L824.5,286.5 L824.7,314.5 L824.9,250.7 L825.1,189.1 L825.3,216.0 L825.5,255.1 L825.7,212.6 L825.9,227.1 L826.1,256.3 L826.3,282.0 L826.5,271.9 L826.7,199.2 L826.9,186.8 L827.0,231.6 L827.2,130.9 L827.4,173.4 L827.6,214.8 L827.8,180.1 L828.0,296.6 L828.2,267.5 L828.4,155.5 L828.6,208.1 L828.8,311.1 L829.0,176.8 L829.2,294.3 L829.4,264.1 L829.6,311.1 L829.7,251.8 L829.9,297.7 L830.1,211.5 L830.3,217.1 L830.5,161.1 L830.7,186.8 L830.9,230.5 L831.1,278.7 L831.3,243.9 L831.5,316.7 L831.7,190.2 L831.9,239.5 L832.1,248.4 L832.3,135.3 L832.4,267.5 L832.6,239.5 L832.8,191.3 L833.0,232.7 L833.2,216.0 L833.4,202.5 L833.6,191.3 L833.8,201.4 L834.0,147.7 L834.2,179.0 L834.4,252.9 L834.6,217.1 L834.8,214.8 L835.0,284.2 L835.1,209.2 L835.3,211.5 L835.5,133.1 L835.7,194.7 L835.9,183.5 L836.1,200.3 L836.3,292.1 L836.5,311.1 L836.7,275.3 L836.9,176.8 L837.1,99.5 L837.3,164.4 L837.5,200.3 L837.7,292.1 L837.8,166.7 L838.0,170.0 L838.2,138.7 L838.4,181.2 L838.6,250.7 L838.8,137.6 L839.0,142.1 L839.2,171.2 L839.4,210.4 L839.6,308.9 L839.8,186.8 L840.0,208.1 L840.2,156.6 L840.4,149.9 L840.5,239.5 L840.7,219.3 L840.9,205.9 L841.1,252.9 L841.3,167.8 L841.5,248.4 L841.7,220.4 L841.9,190.2 L842.1,218.2 L842.3,314.5 L842.5,269.7 L842.7,307.8 L842.9,149.9 L843.1,191.3 L843.2,249.5 L843.4,183.5 L843.6,251.8 L843.8,268.6 L844.0,188.0 L844.2,258.5 L844.4,275.3 L844.6,231.6 L844.8,293.2 L845.0,218.2 L845.2,242.8 L845.4,161.1 L845.6,307.8 L845.8,201.4 L845.9,278.7 L846.1,305.5 L846.3,219.3 L846.5,251.8 L846.7,269.7 L846.9,285.4 L847.1,237.2 L847.3,313.4 L847.5,249.5 L847.7,306.6 L847.9,275.3 L848.1,241.7 L848.3,270.8 L848.5,248.4 L848.6,301.0 L848.8,261.9 L849.0,304.4 L849.2,250.7 L849.4,265.2 L849.6,293.2 L849.8,240.6 L850.0,302.2 L850.2,258.5 L850.4,284.2 L850.6,305.5 L850.8,307.8 L851.0,259.6 L851.2,192.4 L851.4,280.9 L851.5,259.6 L851.7,149.9 L851.9,249.5 L852.1,245.1 L852.3,288.7 L852.5,252.9 L852.7,263.0 L852.9,99.5 L853.1,238.3 L853.3,277.5 L853.5,134.2 L853.7,192.4 L853.9,147.7 L854.1,186.8 L854.2,166.7 L854.4,157.7 L854.6,188.0 L854.8,186.8 L855.0,312.2 L855.2,308.9 L855.4,308.9 L855.6,295.4 L855.8,112.9 L856.0,284.2 L856.2,217.1 L856.4,295.4 L856.6,140.9 L856.8,127.5 L856.9,112.9 L857.1,223.8 L857.3,236.1 L857.5,284.2 L857.7,227.1 L857.9,233.9 L858.1,251.8 L858.3,149.9 L858.5,219.3 L858.7,161.1 L858.9,241.7 L859.1,242.8 L859.3,292.1 L859.5,227.1 L859.6,185.7 L859.8,179.0 L860.0,286.5 L860.2,307.8 L860.4,165.6 L860.6,226.0 L860.8,265.2 L861.0,221.6 L861.2,142.1 L861.4,296.6 L861.6,199.2 L861.8,259.6 L862.0,310.0 L862.2,270.8 L862.3,235.0 L862.5,250.7 L862.7,191.3 L862.9,200.3 L863.1,252.9 L863.3,240.6 L863.5,198.0 L863.7,282.0 L863.9,233.9 L864.1,199.2 L864.3,204.8 L864.5,258.5 L864.7,257.4 L864.9,203.6 L865.0,284.2 L865.2,221.6 L865.4,311.1 L865.6,173.4 L865.8,201.4 L866.0,265.2 L866.2,166.7 L866.4,195.8 L866.6,314.5 L866.8,294.3 L867.0,247.3 L867.2,246.2 L867.4,137.6 L867.6,190.2 L867.7,299.9 L867.9,217.1 L868.1,236.1 L868.3,152.1 L868.5,296.6 L868.7,238.3 L868.9,230.5 L869.1,261.9 L869.3,161.1 L869.5,233.9 L869.7,292.1 L869.9,274.2 L870.1,283.1 L870.3,156.6 L870.4,145.4 L870.6,123.0 L870.8,320.1 L871.0,257.4 L871.2,294.3 L871.4,284.2 L871.6,214.8 L871.8,217.1 L872.0,214.8 L872.2,265.2 L872.4,223.8 L872.6,319.0 L872.8,263.0 L873.0,258.5 L873.1,282.0 L873.3,307.8 L873.5,284.2 L873.7,303.3 L873.9,299.9 L874.1,259.6 L874.3,282.0 L874.5,314.5 L874.7,282.0 L874.9,310.0 L875.1,255.1 L875.3,249.5 L875.5,308.9 L875.7,248.4 L875.8,320.1 L876.0,293.2 L876.2,270.8 L876.4,267.5 L876.6,291.0 L876.8,319.0 L877.0,295.4 L877.2,288.7 L877.4,280.9 L877.6,256.3 L877.8,214.8 L878.0,252.9 L878.2,274.2 L878.4,277.5 L878.6,302.2 L878.7,227.1 L878.9,250.7 L879.1,184.6 L879.3,184.6 L879.5,242.8 L879.7,201.4 L879.9,274.2 L880.1,285.4 L880.3,289.8 L880.5,257.4 L880.7,311.1 L880.9,278.7 L881.1,249.5 L881.3,319.0 L881.4,302.2 L881.6,230.5 L881.8,287.6 L882.0,302.2 L882.2,255.1 L882.4,285.4 L882.6,246.2 L882.8,294.3 L883.0,282.0 L883.2,294.3 L883.4,291.0 L883.6,278.7 L883.8,306.6 L884.0,271.9 L884.1,214.8 L884.3,254.0 L884.5,279.8 L884.7,288.7 L884.9,287.6 L885.1,286.5 L885.3,311.1 L885.5,243.9 L885.7,298.8 L885.9,316.7 L886.1,283.1 L886.3,283.1 L886.5,266.3 L886.7,204.8 L886.8,274.2 L887.0,278.7 L887.2,313.4 L887.4,238.3 L887.6,230.5 L887.8,248.4 L888.0,242.8 L888.2,256.3 L888.4,172.3 L888.6,223.8 L888.8,289.8 L889.0,231.6 L889.2,315.6 L889.4,280.9 L889.5,298.8 L889.7,250.7 L889.9,291.0 L890.1,251.8 L890.3,211.5 L890.5,251.8 L890.7,240.6 L890.9,229.4 L891.1,288.7 L891.3,186.8 L891.5,245.1 L891.7,292.1 L891.9,166.7 L892.1,289.8 L892.2,241.7 L892.4,256.3 L892.6,286.5 L892.8,195.8 L893.0,284.2 L893.2,310.0 L893.4,208.1 L893.6,254.0 L893.8,269.7 L894.0,261.9 L894.2,269.7 L894.4,195.8 L894.6,200.3 L894.8,223.8 L894.9,271.9 L895.1,228.3 L895.3,216.0 L895.5,265.2 L895.7,288.7 L895.9,230.5 L896.1,319.0 L896.3,230.5 L896.5,276.4 L896.7,223.8 L896.9,267.5 L897.1,292.1 L897.3,295.4 L897.5,301.0 L897.6,283.1 L897.8,316.7 L898.0,319.0 L898.2,252.9 L898.4,266.3 L898.6,237.2 L898.8,226.0 L899.0,245.1 L899.2,243.9 L899.4,236.1 L899.6,315.6 L899.8,271.9 L900.0,304.4 L900.2,287.6 L900.3,297.7 L900.5,231.6 L900.7,287.6 L900.9,277.5 L901.1,317.8 L901.3,308.9 L901.5,315.6 L901.7,283.1 L901.9,313.4 L902.1,317.8 L902.3,270.8 L902.5,228.3 L902.7,243.9 L902.9,247.3 L903.1,242.8 L903.2,259.6 L903.4,312.2 L903.6,212.6 L903.8,273.1 L904.0,267.5 L904.2,267.5 L904.4,301.0 L904.6,217.1 L904.8,242.8 L905.0,304.4 L905.2,252.9 L905.4,246.2 L905.6,282.0 L905.8,289.8 L905.9,273.1 L906.1,224.9 L906.3,276.4 L906.5,247.3 L906.7,254.0 L906.9,284.2 L907.1,217.1 L907.3,219.3 L907.5,198.0 L907.7,179.0 L907.9,279.8 L908.1,242.8 L908.3,188.0 L908.5,266.3 L908.6,266.3 L908.8,291.0 L909.0,311.1 L909.2,261.9 L909.4,229.4 L909.6,276.4 L909.8,266.3 L910.0,280.9 L910.2,174.5 L910.4,258.5 L910.6,210.4 L910.8,285.4 L911.0,265.2 L911.2,312.2 L911.3,221.6 L911.5,292.1 L911.7,196.9 L911.9,275.3 L912.1,192.4 L912.3,203.6 L912.5,243.9 L912.7,301.0 L912.9,293.2 L913.1,239.5 L913.3,217.1 L913.5,242.8 L913.7,249.5 L913.9,310.0 L914.0,277.5 L914.2,247.3 L914.4,299.9 L914.6,282.0 L914.8,302.2 L915.0,223.8 L915.2,294.3 L915.4,296.6 L915.6,239.5 L915.8,274.2 L916.0,246.2 L916.2,250.7 L916.4,310.0 L916.6,254.0 L916.7,311.1 L916.9,275.3 L917.1,271.9 L917.3,261.9 L917.5,308.9 L917.7,287.6 L917.9,192.4 L918.1,221.6 L918.3,316.7 L918.5,255.1 L918.7,299.9 L918.9,299.9 L919.1,227.1 L919.3,232.7 L919.4,298.8 L919.6,210.4 L919.8,306.6 L920.0,312.2 L920.2,278.7 L920.4,295.4 L920.6,263.0 L920.8,295.4 L921.0,315.6 L921.2,289.8 L921.4,267.5 L921.6,267.5 L921.8,286.5 L922.0,247.3 L922.1,301.0 L922.3,221.6 L922.5,241.7 L922.7,247.3 L922.9,291.0 L923.1,183.5 L923.3,199.2 L923.5,239.5 L923.7,149.9 L923.9,203.6 L924.1,249.5 L924.3,277.5 L924.5,175.6 L924.7,163.3 L924.8,220.4 L925.0,241.7 L925.2,210.4 L925.4,174.5 L925.6,212.6 L925.8,249.5 L926.0,220.4 L926.2,241.7 L926.4,142.1 L926.6,250.7 L926.8,224.9 L927.0,278.7 L927.2,235.0 L927.4,226.0 L927.5,280.9 L927.7,311.1 L927.9,224.9 L928.1,258.5 L928.3,316.7 L928.5,303.3 L928.7,220.4 L928.9,294.3 L929.1,173.4 L929.3,254.0 L929.5,261.9 L929.7,273.1 L929.9,231.6 L930.1,285.4 L930.3,269.7 L930.4,224.9 L930.6,172.3 L930.8,271.9 L931.0,235.0 L931.2,263.0 L931.4,287.6 L931.6,146.5 L931.8,317.8 L932.0,276.4 L932.2,303.3 L932.4,132.0 L932.6,165.6 L932.8,250.7 L933.0,283.1 L933.1,160.0 L933.3,140.9 L933.5,299.9 L933.7,304.4 L933.9,286.5 L934.1,292.1 L934.3,172.3 L934.5,282.0 L934.7,311.1 L934.9,210.4 L935.1,278.7 L935.3,208.1 L935.5,263.0 L935.7,186.8 L935.8,293.2 L936.0,199.2 L936.2,216.0 L936.4,258.5 L936.6,252.9 L936.8,286.5 L937.0,228.3 L937.2,219.3 L937.4,212.6 L937.6,246.2 L937.8,252.9 L938.0,242.8 L938.2,268.6 L938.4,291.0 L938.5,302.2 L938.7,284.2 L938.9,270.8 L939.1,265.2 L939.3,250.7 L939.5,316.7 L939.7,310.0 L939.9,305.5 L940.1,219.3 L940.3,231.6 L940.5,288.7 L940.7,210.4 L940.9,218.2 L941.1,279.8 L941.2,222.7 L941.4,311.1 L941.6,263.0 L941.8,267.5 L942.0,264.1 L942.2,307.8 L942.4,302.2 L942.6,269.7 L942.8,296.6 L943.0,307.8 L943.2,306.6 L943.4,329.0 L943.6,353.7 L943.8,311.1 L943.9,304.4 L944.1,317.8 L944.3,286.5 L944.5,308.9 L944.7,296.6 L944.9,251.8 L945.1,260.7 L945.3,226.0 L945.5,250.7 L945.7,270.8 L945.9,266.3 L946.1,263.0 L946.3,228.3 L946.5,298.8 L946.6,249.5 L946.8,251.8 L947.0,296.6 L947.2,248.4 L947.4,266.3 L947.6,270.8 L947.8,245.1 L948.0,302.2 L948.2,293.2 L948.4,286.5 L948.6,292.1 L948.8,313.4 L949.0,291.0 L949.2,296.6 L949.3,291.0 L949.5,314.5 L949.7,321.2 L949.9,348.1 L950.1,319.0 L950.3,336.9 L950.5,324.6 L950.7,310.0 L950.9,331.3 L951.1,306.6 L951.3,299.9 L951.5,313.4 L951.7,285.4 L951.9,240.6 L952.0,267.5 L952.2,256.3 L952.4,271.9 L952.6,319.0 L952.8,243.9 L953.0,291.0 L953.2,275.3 L953.4,312.2 L953.6,302.2 L953.8,283.1 L954.0,265.2 L954.2,305.5 L954.4,303.3 L954.6,293.2 L954.8,285.4 L954.9,282.0 L955.1,276.4 L955.3,297.7 L955.5,297.7 L955.7,265.2 L955.9,296.6 L956.1,298.8 L956.3,315.6 L956.5,319.0 L956.7,264.1 L956.9,266.3 L957.1,240.6 L957.3,307.8 L957.5,222.7 L957.6,230.5 L957.8,283.1 L958.0,196.9 L958.2,298.8 L958.4,312.2 L958.6,224.9 L958.8,260.7 L959.0,304.4 L959.2,165.6 L959.4,316.7 L959.6,239.5 L959.8,294.3 L960.0,270.8 L960.2,242.8 L960.3,207.0 L960.5,289.8 L960.7,288.7 L960.9,151.0 L961.1,311.1 L961.3,235.0 L961.5,275.3 L961.7,276.4 L961.9,264.1 L962.1,250.7 L962.3,194.7 L962.5,231.6 L962.7,208.1 L962.9,186.8 L963.0,266.3 L963.2,158.9 L963.4,229.4 L963.6,313.4 L963.8,289.8 L964.0,171.2 L964.2,302.2 L964.4,254.0 L964.6,289.8 L964.8,180.1 L965.0,319.0 L965.2,236.1 L965.4,245.1 L965.6,263.0 L965.7,270.8 L965.9,305.5 L966.1,314.5 L966.3,264.1 L966.5,258.5 L966.7,238.3 L966.9,282.0 L967.1,284.2 L967.3,273.1 L967.5,199.2 L967.7,287.6 L967.9,239.5 L968.1,214.8 L968.3,263.0 L968.4,301.0 L968.6,259.6 L968.8,235.0 L969.0,216.0 L969.2,208.1 L969.4,292.1 L969.6,160.0 L969.8,279.8 L970.0,171.2 L970.2,246.2 L970.4,260.7 L970.6,146.5 L970.8,218.2 L971.0,205.9 L971.1,158.9 L971.3,188.0 L971.5,279.8 L971.7,252.9 L971.9,170.0 L972.1,193.6 L972.3,212.6 L972.5,283.1 L972.7,267.5 L972.9,294.3 L973.1,224.9 L973.3,257.4 L973.5,269.7 L973.7,288.7 L973.8,260.7 L974.0,260.7 L974.2,286.5 L974.4,298.8 L974.6,279.8 L974.8,268.6 L975.0,231.6 L975.2,265.2 L975.4,287.6 L975.6,254.0 L975.8,293.2 L976.0,287.6 L976.2,303.3 L976.4,307.8 L976.5,301.0 L976.7,288.7 L976.9,265.2 L977.1,270.8 L977.3,311.1 L977.5,273.1 L977.7,305.5 L977.9,282.0 L978.1,254.0 L978.3,266.3 L978.5,223.8 L978.7,261.9 L978.9,287.6 L979.1,165.6 L979.2,254.0 L979.4,296.6 L979.6,191.3 L979.8,168.9 L980.0,205.9 L980.2,298.8 L980.4,249.5 L980.6,233.9 L980.8,276.4 L981.0,288.7 L981.2,210.4 L981.4,303.3 L981.6,228.3 L981.8,254.0 L982.0,271.9 L982.1,201.4 L982.3,261.9 L982.5,317.8 L982.7,289.8 L982.9,223.8 L983.1,228.3 L983.3,232.7 L983.5,289.8 L983.7,311.1 L983.9,260.7 L984.1,280.9 L984.3,296.6 L984.5,283.1 L984.7,304.4 L984.8,299.9 L985.0,280.9 L985.2,289.8 L985.4,298.8 L985.6,288.7 L985.8,319.0 L986.0,241.7 L986.2,274.2 L986.4,256.3 L986.6,313.4 L986.8,316.7 L987.0,229.4 L987.2,231.6 L987.4,221.6 L987.5,205.9 L987.7,267.5 L987.9,229.4 L988.1,250.7 L988.3,231.6 L988.5,298.8 L988.7,283.1 L988.9,264.1 L989.1,282.0 L989.3,247.3 L989.5,264.1 L989.7,243.9 L989.9,313.4 L990.1,250.7 L990.2,283.1 L990.4,287.6 L990.6,284.2 L990.8,295.4 L991.0,294.3 L991.2,266.3 L991.4,251.8 L991.6,270.8 L991.8,303.3 L992.0,322.3 L992.2,292.1 L992.4,284.2 L992.6,292.1 L992.8,287.6 L992.9,313.4 L993.1,315.6 L993.3,258.5 L993.5,303.3 L993.7,273.1 L993.9,295.4 L994.1,259.6 L994.3,310.0 L994.5,283.1 L994.7,304.4 L994.9,295.4 L995.1,305.5 L995.3,308.9 L995.5,305.5 L995.6,308.9 L995.8,320.1 L996.0,306.6 L996.2,267.5 L996.4,320.1 L996.6,295.4 L996.8,298.8 L997.0,295.4 L997.2,265.2 L997.4,317.8 L997.6,254.0 L997.8,296.6 L998.0,292.1 L998.2,303.3 L998.3,312.2 L998.5,291.0 L998.7,270.8 L998.9,292.1 L999.1,299.9 L999.3,285.4 L999.5,317.8 L999.7,280.9 L999.9,296.6 L1000.1,317.8 L1000.3,315.6 L1000.5,303.3 L1000.7,316.7 L1000.9,296.6 L1001.0,297.7 L1001.2,241.7 L1001.4,279.8 L1001.6,247.3 L1001.8,248.4 L1002.0,306.6 L1002.2,269.7 L1002.4,226.0 L1002.6,247.3 L1002.8,294.3 L1003.0,195.8 L1003.2,237.2 L1003.4,202.5 L1003.6,319.0 L1003.7,259.6 L1003.9,252.9 L1004.1,310.0 L1004.3,219.3 L1004.5,280.9 L1004.7,217.1 L1004.9,224.9 L1005.1,293.2 L1005.3,208.1 L1005.5,314.5 L1005.7,231.6 L1005.9,237.2 L1006.1,246.2 L1006.3,208.1 L1006.5,250.7 L1006.6,314.5 L1006.8,235.0 L1007.0,202.5 L1007.2,314.5 L1007.4,243.9 L1007.6,208.1 L1007.8,203.6 L1008.0,287.6 L1008.2,263.0 L1008.4,168.9 L1008.6,254.0 L1008.8,189.1 L1009.0,198.0 L1009.2,284.2 L1009.3,275.3 L1009.5,236.1 L1009.7,155.5 L1009.9,282.0 L1010.1,167.8 L1010.3,181.2 L1010.5,223.8 L1010.7,228.3 L1010.9,249.5 L1011.1,137.6 L1011.3,170.0 L1011.5,278.7 L1011.7,213.7 L1011.9,228.3 L1012.0,250.7 L1012.2,298.8 L1012.4,291.0 L1012.6,163.3 L1012.8,246.2 L1013.0,250.7 L1013.2,218.2 L1013.4,258.5 L1013.6,305.5 L1013.8,289.8 L1014.0,307.8 L1014.2,274.2 L1014.4,219.3 L1014.6,295.4 L1014.7,218.2 L1014.9,297.7 L1015.1,295.4 L1015.3,258.5 L1015.5,268.6 L1015.7,286.5 L1015.9,299.9 L1016.1,302.2 L1016.3,279.8 L1016.5,263.0 L1016.7,316.7 L1016.9,306.6 L1017.1,293.2 L1017.3,276.4 L1017.4,319.0 L1017.6,304.4 L1017.8,276.4 L1018.0,298.8 L1018.2,241.7 L1018.4,264.1 L1018.6,261.9 L1018.8,265.2 L1019.0,297.7 L1019.2,291.0 L1019.4,284.2 L1019.6,287.6 L1019.8,315.6 L1020.0,316.7 L1020.1,293.2 L1020.3,274.2 L1020.5,259.6 L1020.7,230.5 L1020.9,316.7 L1021.1,301.0 L1021.3,231.6 L1021.5,283.1 L1021.7,267.5 L1021.9,315.6 L1022.1,317.8 L1022.3,282.0 L1022.5,310.0 L1022.7,265.2 L1022.8,302.2 L1023.0,289.8 L1023.2,277.5 L1023.4,308.9 L1023.6,297.7 L1023.8,275.3 L1024.0,270.8 L1024.2,271.9 L1024.4,301.0 L1024.6,268.6 L1024.8,219.3 L1025.0,247.3 L1025.2,267.5 L1025.4,220.4 L1025.5,301.0 L1025.7,271.9 L1025.9,293.2 L1026.1,144.3 L1026.3,271.9 L1026.5,200.3 L1026.7,267.5 L1026.9,166.7 L1027.1,182.4 L1027.3,294.3 L1027.5,317.8 L1027.7,320.1 L1027.9,289.8 L1028.1,232.7 L1028.2,249.5 L1028.4,316.7 L1028.6,263.0 L1028.8,264.1 L1029.0,311.1 L1029.2,306.6 L1029.4,335.8 L1029.6,303.3 L1029.8,302.2 L1030.0,294.3 L1030.2,259.6 L1030.4,251.8 L1030.6,265.2 L1030.8,298.8 L1030.9,305.5 L1031.1,302.2 L1031.3,320.1 L1031.5,317.8 L1031.7,285.4 L1031.9,311.1 L1032.1,284.2 L1032.3,299.9 L1032.5,286.5 L1032.7,258.5 L1032.9,306.6 L1033.1,280.9 L1033.3,280.9 L1033.5,304.4 L1033.7,319.0 L1033.8,301.0 L1034.0,298.8 L1034.2,268.6 L1034.4,252.9 L1034.6,250.7 L1034.8,239.5 L1035.0,319.0 L1035.2,279.8 L1035.4,269.7 L1035.6,292.1 L1035.8,229.4 L1036.0,317.8 L1036.2,192.4 L1036.4,288.7 L1036.5,222.7 L1036.7,238.3 L1036.9,312.2 L1037.1,239.5 L1037.3,267.5 L1037.5,274.2 L1037.7,264.1 L1037.9,249.5 L1038.1,249.5 L1038.3,307.8 L1038.5,251.8 L1038.7,217.1 L1038.9,250.7 L1039.1,229.4 L1039.2,236.1 L1039.4,263.0 L1039.6,231.6 L1039.8,287.6 L1040.0,220.4 L1040.2,216.0 L1040.4,241.7 L1040.6,258.5 L1040.8,203.6 L1041.0,278.7 L1041.2,224.9 L1041.4,233.9 L1041.6,229.4 L1041.8,312.2 L1041.9,181.2 L1042.1,275.3 L1042.3,317.8 L1042.5,240.6 L1042.7,229.4 L1042.9,275.3 L1043.1,299.9 L1043.3,238.3 L1043.5,238.3 L1043.7,291.0 L1043.9,235.0 L1044.1,289.8 L1044.3,188.0 L1044.5,305.5 L1044.6,263.0 L1044.8,312.2 L1045.0,249.5 L1045.2,228.3 L1045.4,307.8 L1045.6,211.5 L1045.8,231.6 L1046.0,310.0 L1046.2,254.0 L1046.4,220.4 L1046.6,275.3 L1046.8,251.8 L1047.0,311.1 L1047.2,249.5 L1047.3,258.5 L1047.5,279.8 L1047.7,319.0 L1047.9,314.5 L1048.1,271.9 L1048.3,291.0 L1048.5,305.5 L1048.7,260.7 L1048.9,311.1 L1049.1,299.9 L1049.3,222.7 L1049.5,280.9 L1049.7,320.1 L1049.9,292.1 L1050.0,268.6 L1050.2,298.8 L1050.4,251.8 L1050.6,268.6 L1050.8,294.3 L1051.0,315.6 L1051.2,323.4 L1051.4,302.2 L1051.6,308.9 L1051.8,301.0 L1052.0,292.1 L1052.2,299.9 L1052.4,277.5 L1052.6,312.2 L1052.7,278.7 L1052.9,292.1 L1053.1,312.2 L1053.3,310.0 L1053.5,276.4 L1053.7,316.7 L1053.9,310.0 L1054.1,287.6 L1054.3,299.9 L1054.5,284.2 L1054.7,320.1 L1054.9,317.8 L1055.1,287.6 L1055.3,293.2 L1055.4,288.7 L1055.6,242.8 L1055.8,266.3 L1056.0,265.2 L1056.2,280.9 L1056.4,238.3 L1056.6,243.9 L1056.8,208.1 L1057.0,299.9 L1057.2,296.6 L1057.4,306.6 L1057.6,270.8 L1057.8,270.8 L1058.0,250.7 L1058.2,306.6 L1058.3,239.5 L1058.5,277.5 L1058.7,267.5 L1058.9,217.1 L1059.1,200.3 L1059.3,236.1 L1059.5,201.4 L1059.7,229.4 L1059.9,270.8 L1060.1,312.2 L1060.3,271.9 L1060.5,241.7 L1060.7,305.5 L1060.9,261.9 L1061.0,233.9 L1061.2,276.4 L1061.4,251.8 L1061.6,190.2 L1061.8,240.6 L1062.0,223.8 L1062.2,296.6 L1062.4,316.7 L1062.6,285.4 L1062.8,245.1 L1063.0,210.4 L1063.2,248.4 L1063.4,161.1 L1063.6,196.9 L1063.7,216.0 L1063.9,306.6 L1064.1,236.1 L1064.3,271.9 L1064.5,311.1 L1064.7,257.4 L1064.9,214.8 L1065.1,306.6 L1065.3,296.6 L1065.5,311.1 L1065.7,319.0 L1065.9,271.9 L1066.1,278.7 L1066.3,303.3 L1066.4,297.7 L1066.6,314.5 L1066.8,315.6 L1067.0,297.7 L1067.2,270.8 L1067.4,305.5 L1067.6,278.7 L1067.8,315.6 L1068.0,270.8 L1068.2,294.3 L1068.4,294.3 L1068.6,276.4 L1068.8,307.8 L1069.0,316.7 L1069.1,287.6 L1069.3,299.9 L1069.5,297.7 L1069.7,321.2 L1069.9,289.8 L1070.1,308.9 L1070.3,299.9 L1070.5,304.4 L1070.7,286.5 L1070.9,323.4 L1071.1,293.2 L1071.3,313.4 L1071.5,319.0 L1071.7,294.3 L1071.8,314.5 L1072.0,291.0 L1072.2,259.6 L1072.4,264.1 L1072.6,315.6 L1072.8,276.4 L1073.0,316.7 L1073.2,293.2 L1073.4,310.0 L1073.6,288.7 L1073.8,303.3 L1074.0,299.9 L1074.2,302.2 L1074.4,307.8 L1074.5,298.8 L1074.7,296.6 L1074.9,282.0 L1075.1,245.1 L1075.3,236.1 L1075.5,241.7 L1075.7,264.1 L1075.9,229.4 L1076.1,291.0 L1076.3,286.5 L1076.5,312.2 L1076.7,293.2 L1076.9,306.6 L1077.1,249.5 L1077.2,314.5 L1077.4,302.2 L1077.6,297.7 L1077.8,310.0 L1078.0,307.8 L1078.2,322.3 L1078.4,345.8 L1078.6,320.1 L1078.8,348.1 L1079.0,301.0 L1079.2,335.8 L1079.4,311.1 L1079.6,306.6 L1079.8,304.4 L1079.9,323.4 L1080.1,320.1 L1080.3,283.1 L1080.5,301.0 L1080.7,303.3 L1080.9,307.8 L1081.1,288.7 L1081.3,294.3 L1081.5,307.8 L1081.7,304.4 L1081.9,292.1 L1082.1,312.2 L1082.3,282.0 L1082.5,314.5 L1082.6,311.1 L1082.8,298.8 L1083.0,320.1 L1083.2,282.0 L1083.4,302.2 L1083.6,317.8 L1083.8,320.1 L1084.0,306.6" fill="none" stroke="#ff7f0e" stroke-width="1.1" opacity="0.85"/><text x="616" y="572" font-size="11" fill="#888">time 0..49 s — altitude (blue) &amp; roll (orange)</text></svg>