<svg xmlns="http://www.w3.org/2000/svg" width="1140" height="600" font-family="sans-serif" font-size="13"><rect width="1140" height="600" fill="white"/><text x="20" y="26" font-size="15" fill="#333">TMS-7 F15 — cross-wind 6 m/s (10% noise)</text><rect x="20" y="40" width="540" height="540" fill="#fbfbfb" stroke="#ddd"/><rect x="50" y="315" width="198" height="3" fill="#cde" stroke="#369" opacity="0.7"/><text x="50" y="310" fill="#369" font-size="12">landing zone</text><circle cx="175" cy="351" r="5" fill="black"/><text x="183" y="355" font-size="12">pad</text><path d="M174.7,350.8 L174.7,350.8 L174.7,350.8 L174.7,350.8 L174.7,350.8 L174.7,350.8 L174.7,350.8 L174.7,350.8 L174.7,350.8 L174.7,350.8 L174.7,350.8 L174.7,350.8 L174.7,350.8 L174.7,350.8 L174.7,350.8 L174.7,350.8 L174.7,350.8 L174.7,350.8 L174.7,350.8 L174.7,350.8 L174.7,350.8 L174.7,350.8 L174.7,350.8 L174.7,350.8 L174.7,350.8 L174.7,350.8 L174.7,350.8 L174.7,350.8 L174.7,350.8 L174.7,350.8 L174.7,350.8 L174.7,350.8 L174.7,350.8 L174.7,350.8 L174.7,350.8 L174.7,350.8 L174.7,350.8 L174.7,350.8 L174.7,350.8 L174.7,350.8 L174.7,350.8 L174.7,350.8 L174.7,350.8 L174.7,350.8 L174.7,350.8 L174.7,350.8 L174.7,350.8 L174.7,350.8 L174.7,350.8 L174.7,350.8 L174.7,350.8 L174.7,350.8 L174.7,350.8 L174.7,350.8 L174.7,350.8 L174.7,350.8 L174.7,350.8 L174.7,350.8 L174.7,350.8 L175.2,350.0 L175.8,349.0 L176.4,348.1 L176.9,347.2 L177.5,346.2 L178.1,345.3 L178.7,344.4 L179.2,343.5 L179.9,342.5 L180.5,341.6 L181.2,340.7 L181.8,339.8 L182.4,338.9 L183.0,338.0 L183.7,337.1 L184.4,336.2 L185.0,335.4 L185.7,334.5 L186.4,333.7 L187.0,332.8 L187.7,331.9 L188.5,331.0 L189.2,330.3 L189.9,329.4 L190.6,328.6 L191.4,327.7 L192.1,326.9 L192.9,326.1 L193.6,325.3 L194.4,324.4 L195.1,323.6 L195.9,322.9 L196.7,322.1 L197.5,321.2 L198.3,320.4 L199.1,319.7 L199.9,318.9 L200.7,318.2 L201.5,317.4 L202.3,316.6 L203.1,315.9 L203.8,315.0 L204.6,314.2 L205.4,313.4 L206.2,312.7 L207.0,311.9 L208.0,311.1 L208.8,310.4 L209.6,309.6 L210.4,308.9 L211.3,308.2 L212.1,307.5 L213.0,306.7 L213.8,306.1 L214.8,305.3 L215.6,304.5 L216.5,303.9 L217.4,303.1 L218.3,302.5 L219.2,301.8 L220.2,301.1 L221.1,300.4 L222.0,299.8 L222.9,299.2 L223.8,298.5 L224.8,297.9 L225.8,297.3 L226.7,296.6 L227.6,296.0 L228.7,295.3 L229.6,294.7 L230.6,294.1 L231.7,293.4 L232.6,292.9 L233.6,292.3 L234.6,291.8 L235.7,291.1 L236.7,290.6 L237.7,290.0 L238.8,289.5 L239.8,289.0 L240.9,288.3 L241.9,287.8 L242.9,287.3 L244.0,286.8 L245.1,286.3 L246.1,285.8 L247.2,285.3 L248.3,284.8 L249.4,284.4 L250.5,283.9 L251.5,283.4 L252.7,283.0 L253.8,282.5 L255.0,282.0 L256.0,281.6 L257.2,281.2 L258.3,280.7 L259.5,280.3 L260.6,279.9 L261.8,279.6 L262.9,279.2 L264.1,278.7 L265.2,278.3 L266.5,278.0 L267.6,277.6 L268.8,277.3 L269.9,276.9 L271.2,276.5 L272.4,276.2 L273.6,275.9 L274.8,275.6 L276.0,275.2 L277.2,275.0 L278.4,274.6 L279.7,274.3 L280.9,274.1 L282.1,273.8 L283.4,273.6 L284.7,273.3 L285.9,273.1 L287.2,272.8 L288.4,272.5 L289.7,272.3 L291.0,272.0 L292.2,271.9 L293.5,271.7 L294.8,271.5 L296.0,271.3 L297.3,271.1 L298.7,270.9 L299.9,270.8 L301.2,270.6 L302.6,270.5 L303.9,270.4 L305.1,270.1 L306.5,270.1 L307.8,270.0 L309.1,269.9 L310.4,269.7 L311.8,269.6 L313.2,269.6 L314.4,269.5 L315.8,269.4 L317.2,269.4 L318.6,269.4 L319.8,269.2 L321.2,269.2 L322.6,269.2 L324.0,269.2 L325.4,269.2 L326.7,269.2 L328.1,269.2 L329.5,269.2 L330.9,269.2 L332.3,269.2 L333.6,269.4 L335.0,269.4 L336.4,269.5 L337.8,269.5 L339.3,269.6 L340.6,269.6 L342.0,269.7 L343.4,269.9 L344.9,270.0 L346.3,270.1 L347.7,270.3 L349.2,270.4 L350.5,270.5 L351.9,270.6 L353.4,270.8 L354.8,271.0 L356.3,271.1 L357.7,271.4 L359.2,271.5 L360.5,271.8 L362.0,271.9 L363.5,272.2 L364.9,272.4 L366.4,272.7 L367.8,272.9 L369.3,273.2 L370.8,273.4 L372.1,273.7 L373.6,273.9 L375.1,274.3 L376.6,274.6 L378.0,274.8 L379.5,275.2 L381.0,275.5 L382.5,275.9 L384.0,276.2 L385.4,276.5 L386.9,276.9 L388.4,277.3 L389.9,277.6 L391.3,278.0 L392.8,278.4 L394.3,278.8 L395.8,279.2 L397.3,279.6 L398.7,280.1 L400.2,280.4 L401.7,280.8 L403.2,281.3 L404.7,281.7 L406.2,282.1 L407.7,282.6 L409.2,283.1 L410.7,283.5 L412.2,284.0 L413.7,284.5 L415.1,284.9 L416.6,285.4 L418.1,285.9 L419.4,286.3 L420.7,286.8 L421.9,287.2 L423.2,287.6 L424.5,288.1 L425.7,288.5 L426.9,289.0 L428.1,289.4 L429.4,289.9 L430.7,290.3 L431.9,290.8 L433.2,291.1 L434.5,291.7 L435.7,292.0 L437.0,292.5 L438.1,293.1 L439.4,293.4 L440.7,293.9 L441.9,294.5 L443.2,295.0 L444.5,295.3 L445.7,295.9 L447.0,296.4 L448.3,296.9 L449.5,297.4 L450.8,297.9 L452.1,298.4 L453.2,298.9 L454.5,299.4 L455.7,299.9 L457.0,300.4 L458.3,301.0 L459.5,301.5 L460.8,302.0 L462.1,302.5 L463.3,303.0 L464.6,303.5 L465.8,304.0 L467.1,304.5 L468.4,305.0 L469.6,305.7 L470.9,306.2 L472.1,306.7 L473.3,307.2 L474.6,307.7 L475.8,308.3 L477.1,308.9 L478.4,309.4 L479.6,309.9 L480.9,310.5 L482.2,311.0 L483.4,311.5 L484.7,312.2 L486.0,312.7 L487.2,313.3 L488.5,313.8 L489.8,314.5 L491.0,315.0 L492.3,315.6 L493.6,316.1 L494.8,316.6 L496.0,317.3 L497.2,317.8 L498.5,318.4 L499.8,318.9 L501.0,319.6 L502.3,320.1 L503.6,320.7 L504.8,321.2 L506.1,321.8 L507.4,322.4 L508.6,323.0 L509.9,323.5 L511.1,324.1 L512.4,324.7 L513.7,325.3 L514.9,325.8 L516.2,326.4 L517.5,326.9 L518.7,327.6 L519.9,328.1 L521.1,328.6 L522.4,329.2 L523.7,329.7 L524.9,330.4 L526.2,330.9 L527.5,331.4 L528.7,332.0 L530.0,332.5" fill="none" stroke="#1f77b4" stroke-width="1.7" opacity="0.85"/><circle cx="530" cy="333" r="4.5" fill="#1f77b4"/><text x="28" y="572" font-size="11" fill="#888">ground track — m from pad (N up)</text><rect x="580" y="40" width="540" height="540" fill="#fbfbfb" stroke="#ddd"/><text x="586" y="54" fill="#1f77b4" font-size="11">alt 305</text><text x="586" y="558" fill="#1f77b4" font-size="11">2</text><path d="M616.0,543.4 L616.2,543.2 L616.5,543.4 L616.7,544.0 L616.9,543.7 L617.1,543.1 L617.4,543.7 L617.6,543.2 L617.8,542.7 L618.1,543.5 L618.3,543.3 L618.5,542.7 L618.7,542.4 L619.0,542.6 L619.2,542.0 L619.4,542.2 L619.7,542.0 L619.9,541.3 L620.1,540.8 L620.3,540.7 L620.6,540.2 L620.8,540.3 L621.0,540.0 L621.3,540.3 L621.5,539.9 L621.7,539.8 L621.9,538.0 L622.2,538.0 L622.4,536.8 L622.6,537.2 L622.9,537.1 L623.1,537.0 L623.3,535.9 L623.5,536.5 L623.8,533.9 L624.0,534.2 L624.2,534.8 L624.5,532.1 L624.7,533.7 L624.9,532.7 L625.1,531.0 L625.4,531.5 L625.6,529.0 L625.8,531.6 L626.1,528.6 L626.3,530.2 L626.5,529.2 L626.7,527.6 L627.0,524.9 L627.2,524.4 L627.4,524.9 L627.7,526.0 L627.9,523.7 L628.1,524.8 L628.3,520.3 L628.6,520.2 L628.8,521.9 L629.0,521.6 L629.3,516.8 L629.5,516.0 L629.7,516.3 L629.9,514.9 L630.2,512.2 L630.4,511.7 L630.6,515.3 L630.9,513.0 L631.1,513.3 L631.3,509.9 L631.5,513.0 L631.8,510.1 L632.0,508.1 L632.2,510.5 L632.5,504.7 L632.7,500.7 L632.9,499.8 L633.1,501.7 L633.4,497.2 L633.6,496.2 L633.8,497.6 L634.1,494.9 L634.3,501.6 L634.5,491.3 L634.7,498.4 L635.0,494.8 L635.2,488.7 L635.4,489.3 L635.7,494.5 L635.9,487.0 L636.1,492.7 L636.3,484.9 L636.6,490.7 L636.8,482.9 L637.0,480.4 L637.3,484.3 L637.5,486.5 L637.7,472.0 L637.9,479.2 L638.2,472.2 L638.4,481.1 L638.6,471.0 L638.9,472.4 L639.1,468.5 L639.3,469.2 L639.5,472.7 L639.8,469.0 L640.0,467.2 L640.2,462.9 L640.5,463.6 L640.7,467.3 L640.9,466.8 L641.1,460.3 L641.4,460.0 L641.6,446.3 L641.8,443.6 L642.1,457.9 L642.3,444.9 L642.5,442.7 L642.7,454.9 L643.0,450.7 L643.2,450.3 L643.4,441.7 L643.7,448.9 L643.9,439.8 L644.1,436.1 L644.3,438.5 L644.6,437.9 L644.8,439.4 L645.0,423.5 L645.3,438.6 L645.5,424.9 L645.7,418.1 L646.0,413.8 L646.2,432.2 L646.4,431.2 L646.6,413.3 L646.9,417.2 L647.1,404.6 L647.3,414.1 L647.6,409.3 L647.8,405.0 L648.0,409.4 L648.2,399.5 L648.5,410.7 L648.7,390.9 L648.9,412.8 L649.2,382.3 L649.4,379.6 L649.6,392.9 L649.8,397.2 L650.1,390.6 L650.3,382.7 L650.5,380.1 L650.8,385.5 L651.0,371.8 L651.2,391.8 L651.4,388.3 L651.7,382.2 L651.9,358.5 L652.1,370.5 L652.4,354.2 L652.6,370.5 L652.8,372.7 L653.0,376.6 L653.3,350.2 L653.5,349.7 L653.7,340.3 L654.0,351.7 L654.2,341.9 L654.4,349.3 L654.6,364.3 L654.9,346.3 L655.1,336.6 L655.3,321.5 L655.6,355.5 L655.8,317.1 L656.0,345.7 L656.2,317.8 L656.5,348.9 L656.7,339.5 L656.9,333.4 L657.2,314.2 L657.4,299.0 L657.6,327.4 L657.8,318.0 L658.1,332.2 L658.3,328.3 L658.5,286.3 L658.8,323.3 L659.0,281.9 L659.2,314.9 L659.4,320.5 L659.7,298.4 L659.9,318.9 L660.1,319.2 L660.4,300.0 L660.6,269.7 L660.8,297.7 L661.0,276.4 L661.3,268.9 L661.5,301.2 L661.7,270.5 L662.0,256.7 L662.2,255.9 L662.4,271.9 L662.6,268.3 L662.9,290.8 L663.1,257.3 L663.3,244.6 L663.6,256.9 L663.8,249.7 L664.0,271.4 L664.2,261.3 L664.5,241.6 L664.7,246.9 L664.9,281.7 L665.2,246.3 L665.4,228.3 L665.6,237.7 L665.8,255.5 L666.1,237.0 L666.3,241.9 L666.5,222.1 L666.8,257.8 L667.0,228.7 L667.2,227.3 L667.4,261.9 L667.7,221.5 L667.9,250.4 L668.1,207.6 L668.4,233.9 L668.6,229.5 L668.8,247.6 L669.0,222.8 L669.3,193.8 L669.5,228.4 L669.7,215.5 L670.0,242.2 L670.2,196.1 L670.4,186.2 L670.6,179.8 L670.9,226.5 L671.1,228.2 L671.3,197.2 L671.6,186.5 L671.8,174.4 L672.0,206.8 L672.2,215.8 L672.5,212.8 L672.7,178.7 L672.9,201.4 L673.2,179.4 L673.4,214.5 L673.6,208.9 L673.8,165.6 L674.1,159.0 L674.3,209.3 L674.5,168.9 L674.8,148.4 L675.0,176.1 L675.2,156.6 L675.4,148.5 L675.7,209.3 L675.9,200.5 L676.1,146.5 L676.4,160.4 L676.6,185.9 L676.8,146.3 L677.0,138.0 L677.3,188.9 L677.5,175.7 L677.7,171.3 L678.0,192.8 L678.2,140.5 L678.4,147.9 L678.6,123.8 L678.9,180.1 L679.1,154.4 L679.3,125.0 L679.6,155.7 L679.8,137.8 L680.0,119.1 L680.2,138.4 L680.5,149.7 L680.7,147.3 L680.9,109.2 L681.2,114.6 L681.4,130.5 L681.6,143.1 L681.8,134.4 L682.1,155.1 L682.3,158.0 L682.5,133.7 L682.8,115.0 L683.0,106.8 L683.2,96.2 L683.4,173.5 L683.7,124.2 L683.9,129.5 L684.1,141.1 L684.4,133.8 L684.6,163.4 L684.8,148.7 L685.0,149.5 L685.3,119.6 L685.5,156.7 L685.7,102.6 L686.0,155.8 L686.2,94.5 L686.4,132.6 L686.6,126.2 L686.9,79.9 L687.1,84.9 L687.3,103.4 L687.6,87.3 L687.8,153.5 L688.0,110.0 L688.2,130.6 L688.5,105.2 L688.7,157.0 L688.9,147.5 L689.2,115.2 L689.4,115.0 L689.6,149.5 L689.8,126.3 L690.1,112.7 L690.3,153.5 L690.5,92.6 L690.8,119.3 L691.0,114.1 L691.2,143.2 L691.4,96.3 L691.7,156.8 L691.9,90.8 L692.1,133.2 L692.4,98.4 L692.6,144.7 L692.8,126.9 L693.0,80.8 L693.3,135.3 L693.5,97.3 L693.7,125.6 L694.0,116.5 L694.2,100.6 L694.4,76.0 L694.6,94.0 L694.9,138.1 L695.1,85.5 L695.3,101.2 L695.6,143.3 L695.8,152.9 L696.0,109.8 L696.2,84.7 L696.5,135.7 L696.7,158.9 L696.9,127.6 L697.2,116.7 L697.4,91.7 L697.6,77.9 L697.8,83.2 L698.1,131.2 L698.3,91.9 L698.5,120.0 L698.8,104.0 L699.0,135.5 L699.2,105.6 L699.4,102.5 L699.7,144.0 L699.9,112.7 L700.1,96.5 L700.4,152.7 L700.6,80.2 L700.8,137.7 L701.0,117.6 L701.3,135.9 L701.5,123.7 L701.7,80.5 L702.0,156.7 L702.2,121.2 L702.4,142.8 L702.6,91.2 L702.9,89.9 L703.1,152.4 L703.3,128.9 L703.6,88.4 L703.8,113.2 L704.0,79.5 L704.3,100.7 L704.5,104.2 L704.7,99.7 L704.9,139.2 L705.2,123.9 L705.4,79.0 L705.6,105.8 L705.9,132.4 L706.1,142.1 L706.3,105.6 L706.5,103.4 L706.8,136.9 L707.0,106.2 L707.2,149.1 L707.5,88.6 L707.7,88.6 L707.9,145.9 L708.1,88.8 L708.4,110.1 L708.6,121.8 L708.8,156.1 L709.1,115.2 L709.3,143.4 L709.5,87.0 L709.7,153.1 L710.0,91.8 L710.2,108.3 L710.4,106.0 L710.7,126.6 L710.9,129.3 L711.1,143.9 L711.3,109.3 L711.6,83.4 L711.8,152.7 L712.0,117.2 L712.3,95.4 L712.5,85.7 L712.7,89.9 L712.9,95.7 L713.2,131.6 L713.4,145.5 L713.6,148.3 L713.9,104.4 L714.1,91.9 L714.3,83.6 L714.5,143.2 L714.8,140.9 L715.0,163.0 L715.2,117.7 L715.5,131.3 L715.7,93.3 L715.9,165.3 L716.1,166.0 L716.4,133.4 L716.6,164.5 L716.8,161.6 L717.1,124.0 L717.3,152.5 L717.5,113.7 L717.7,99.4 L718.0,148.2 L718.2,141.4 L718.4,85.7 L718.7,113.4 L718.9,131.8 L719.1,154.4 L719.3,109.4 L719.6,160.3 L719.8,135.4 L720.0,90.8 L720.3,105.2 L720.5,126.1 L720.7,103.2 L720.9,99.8 L721.2,130.7 L721.4,147.0 L721.6,98.3 L721.9,140.5 L722.1,105.2 L722.3,160.7 L722.5,148.6 L722.8,133.9 L723.0,160.5 L723.2,94.5 L723.5,106.2 L723.7,89.9 L723.9,109.6 L724.1,145.7 L724.4,142.2 L724.6,90.0 L724.8,134.5 L725.1,157.2 L725.3,127.5 L725.5,111.1 L725.7,126.3 L726.0,148.4 L726.2,147.0 L726.4,158.5 L726.7,139.3 L726.9,168.0 L727.1,161.2 L727.3,121.1 L727.6,145.1 L727.8,115.8 L728.0,125.2 L728.3,164.0 L728.5,115.7 L728.7,146.5 L728.9,158.3 L729.2,127.8 L729.4,126.2 L729.6,106.1 L729.9,167.3 L730.1,143.1 L730.3,104.1 L730.5,147.6 L730.8,142.6 L731.0,135.7 L731.2,162.0 L731.5,155.6 L731.7,156.0 L731.9,93.6 L732.1,117.4 L732.4,91.5 L732.6,162.3 L732.8,113.9 L733.1,108.9 L733.3,96.1 L733.5,117.3 L733.7,130.6 L734.0,157.7 L734.2,153.5 L734.4,161.2 L734.7,133.2 L734.9,122.6 L735.1,139.7 L735.3,149.1 L735.6,160.8 L735.8,154.6 L736.0,116.5 L736.3,162.1 L736.5,156.9 L736.7,135.9 L736.9,109.6 L737.2,108.0 L737.4,143.3 L737.6,110.0 L737.9,129.3 L738.1,148.8 L738.3,146.6 L738.5,140.8 L738.8,113.7 L739.0,113.9 L739.2,107.2 L739.5,118.5 L739.7,107.7 L739.9,129.4 L740.1,108.0 L740.4,156.9 L740.6,119.2 L740.8,135.6 L741.1,118.3 L741.3,172.7 L741.5,157.5 L741.7,142.5 L742.0,103.8 L742.2,128.4 L742.4,149.0 L742.7,138.0 L742.9,122.7 L743.1,152.3 L743.3,98.8 L743.6,120.1 L743.8,146.4 L744.0,165.2 L744.3,173.1 L744.5,138.8 L744.7,113.3 L744.9,101.9 L745.2,117.6 L745.4,105.0 L745.6,140.2 L745.9,139.3 L746.1,138.7 L746.3,154.7 L746.5,180.6 L746.8,113.1 L747.0,132.7 L747.2,123.8 L747.5,122.5 L747.7,167.4 L747.9,148.8 L748.1,122.6 L748.4,146.0 L748.6,122.4 L748.8,124.5 L749.1,163.1 L749.3,137.0 L749.5,175.4 L749.7,158.4 L750.0,109.7 L750.2,133.8 L750.4,125.6 L750.7,160.7 L750.9,114.6 L751.1,139.1 L751.3,142.5 L751.6,174.3 L751.8,147.4 L752.0,113.7 L752.3,124.4 L752.5,123.0 L752.7,161.6 L752.9,145.4 L753.2,130.0 L753.4,146.0 L753.6,120.8 L753.9,159.3 L754.1,121.6 L754.3,182.2 L754.5,158.0 L754.8,157.2 L755.0,145.0 L755.2,140.4 L755.5,115.5 L755.7,170.1 L755.9,172.7 L756.1,154.4 L756.4,170.4 L756.6,108.9 L756.8,120.9 L757.1,155.9 L757.3,123.8 L757.5,142.8 L757.7,138.1 L758.0,140.6 L758.2,173.1 L758.4,189.7 L758.7,138.7 L758.9,141.6 L759.1,133.2 L759.3,133.2 L759.6,179.8 L759.8,189.7 L760.0,146.1 L760.3,115.5 L760.5,177.4 L760.7,152.2 L760.9,159.5 L761.2,180.9 L761.4,114.5 L761.6,135.6 L761.9,153.3 L762.1,148.3 L762.3,116.2 L762.6,119.8 L762.8,138.2 L763.0,187.6 L763.2,159.7 L763.5,139.4 L763.7,161.2 L763.9,152.6 L764.2,182.5 L764.4,139.8 L764.6,125.7 L764.8,116.4 L765.1,120.7 L765.3,161.2 L765.5,140.4 L765.8,127.3 L766.0,119.8 L766.2,170.6 L766.4,168.8 L766.7,189.6 L766.9,189.6 L767.1,147.1 L767.4,168.1 L767.6,123.3 L767.8,161.6 L768.0,191.5 L768.3,185.8 L768.5,172.4 L768.7,136.6 L769.0,155.9 L769.2,164.9 L769.4,128.6 L769.6,174.3 L769.9,172.2 L770.1,141.1 L770.3,126.5 L770.6,162.7 L770.8,125.7 L771.0,128.6 L771.2,143.9 L771.5,129.5 L771.7,134.1 L771.9,186.2 L772.2,197.1 L772.4,152.1 L772.6,143.3 L772.8,181.9 L773.1,179.0 L773.3,160.4 L773.5,137.1 L773.8,161.1 L774.0,125.0 L774.2,178.2 L774.4,146.2 L774.7,191.2 L774.9,166.9 L775.1,193.5 L775.4,140.5 L775.6,127.8 L775.8,192.2 L776.0,167.9 L776.3,170.1 L776.5,194.2 L776.7,196.2 L777.0,152.7 L777.2,170.5 L777.4,182.7 L777.6,166.9 L777.9,177.1 L778.1,175.4 L778.3,164.7 L778.6,191.2 L778.8,135.5 L779.0,159.0 L779.2,141.6 L779.5,189.0 L779.7,158.9 L779.9,138.6 L780.2,160.6 L780.4,151.8 L780.6,183.2 L780.8,158.6 L781.1,137.8 L781.3,193.9 L781.5,197.1 L781.8,147.9 L782.0,196.3 L782.2,182.3 L782.4,146.6 L782.7,174.1 L782.9,148.0 L783.1,202.5 L783.4,142.6 L783.6,154.8 L783.8,157.9 L784.0,158.7 L784.3,140.4 L784.5,145.0 L784.7,137.4 L785.0,200.3 L785.2,164.2 L785.4,168.7 L785.6,175.2 L785.9,177.5 L786.1,187.1 L786.3,189.8 L786.6,157.8 L786.8,184.8 L787.0,159.2 L787.2,141.1 L787.5,207.8 L787.7,161.8 L787.9,189.1 L788.2,145.3 L788.4,157.2 L788.6,189.5 L788.8,154.1 L789.1,148.0 L789.3,168.8 L789.5,205.3 L789.8,207.8 L790.0,194.8 L790.2,193.6 L790.4,174.9 L790.7,165.8 L790.9,211.5 L791.1,213.0 L791.4,212.5 L791.6,184.2 L791.8,163.7 L792.0,162.9 L792.3,214.7 L792.5,203.8 L792.7,142.7 L793.0,171.9 L793.2,191.2 L793.4,160.6 L793.6,172.8 L793.9,163.2 L794.1,178.6 L794.3,207.0 L794.6,147.4 L794.8,186.9 L795.0,170.2 L795.2,177.9 L795.5,147.2 L795.7,158.4 L795.9,158.8 L796.2,195.4 L796.4,204.1 L796.6,192.5 L796.8,157.6 L797.1,166.9 L797.3,196.0 L797.5,190.8 L797.8,202.9 L798.0,203.1 L798.2,219.1 L798.4,168.7 L798.7,179.0 L798.9,161.9 L799.1,194.7 L799.4,184.6 L799.6,195.5 L799.8,172.5 L800.0,210.4 L800.3,193.6 L800.5,200.4 L800.7,174.7 L801.0,194.6 L801.2,180.1 L801.4,161.4 L801.6,197.3 L801.9,164.5 L802.1,154.8 L802.3,210.2 L802.6,158.5 L802.8,217.5 L803.0,204.5 L803.2,154.1 L803.5,199.9 L803.7,208.1 L803.9,176.7 L804.2,158.2 L804.4,156.5 L804.6,191.9 L804.8,170.8 L805.1,161.0 L805.3,190.7 L805.5,208.1 L805.8,217.9 L806.0,171.9 L806.2,165.7 L806.4,181.3 L806.7,161.8 L806.9,189.6 L807.1,190.5 L807.4,194.7 L807.6,202.9 L807.8,207.0 L808.0,158.1 L808.3,220.9 L808.5,196.1 L808.7,210.2 L809.0,174.0 L809.2,216.3 L809.4,179.0 L809.6,161.8 L809.9,214.1 L810.1,215.7 L810.3,221.9 L810.6,197.1 L810.8,191.5 L811.0,191.5 L811.2,189.1 L811.5,209.4 L811.7,179.4 L811.9,225.5 L812.2,231.5 L812.4,203.5 L812.6,166.0 L812.8,216.7 L813.1,186.3 L813.3,209.9 L813.5,212.3 L813.8,215.3 L814.0,223.5 L814.2,190.1 L814.4,182.2 L814.7,196.9 L814.9,195.7 L815.1,173.2 L815.4,224.0 L815.6,196.1 L815.8,186.1 L816.0,232.3 L816.3,207.7 L816.5,208.5 L816.7,227.2 L817.0,202.4 L817.2,218.4 L817.4,205.5 L817.6,205.0 L817.9,179.1 L818.1,236.2 L818.3,195.6 L818.6,217.1 L818.8,233.1 L819.0,183.9 L819.2,206.7 L819.5,187.9 L819.7,185.6 L819.9,201.7 L820.2,215.3 L820.4,209.8 L820.6,228.3 L820.9,218.9 L821.1,238.7 L821.3,188.0 L821.5,215.1 L821.8,206.7 L822.0,236.5 L822.2,187.3 L822.5,238.7 L822.7,208.4 L822.9,190.5 L823.1,194.0 L823.4,210.3 L823.6,232.0 L823.8,188.2 L824.1,211.5 L824.3,196.4 L824.5,188.6 L824.7,237.9 L825.0,177.9 L825.2,212.7 L825.4,233.2 L825.7,240.5 L825.9,235.1 L826.1,223.3 L826.3,200.4 L826.6,198.2 L826.8,213.1 L827.0,198.3 L827.3,187.4 L827.5,198.7 L827.7,226.3 L827.9,215.3 L828.2,245.1 L828.4,205.5 L828.6,210.4 L828.9,194.2 L829.1,246.4 L829.3,187.0 L829.5,227.3 L829.8,226.9 L830.0,188.1 L830.2,237.3 L830.5,218.4 L830.7,194.2 L830.9,223.6 L831.1,241.7 L831.4,202.2 L831.6,222.0 L831.8,234.4 L832.1,227.4 L832.3,213.5 L832.5,208.4 L832.7,206.0 L833.0,221.2 L833.2,245.4 L833.4,221.4 L833.7,211.5 L833.9,245.2 L834.1,244.5 L834.3,246.9 L834.6,192.7 L834.8,239.3 L835.0,236.8 L835.3,215.7 L835.5,207.9 L835.7,239.5 L835.9,245.2 L836.2,247.6 L836.4,224.0 L836.6,194.1 L836.9,210.9 L837.1,201.9 L837.3,242.2 L837.5,204.1 L837.8,222.4 L838.0,199.1 L838.2,224.4 L838.5,231.0 L838.7,247.6 L838.9,212.1 L839.1,197.1 L839.4,252.2 L839.6,223.9 L839.8,219.9 L840.1,246.6 L840.3,245.1 L840.5,198.7 L840.7,226.8 L841.0,199.1 L841.2,200.6 L841.4,200.8 L841.7,257.1 L841.9,196.8 L842.1,240.6 L842.3,242.7 L842.6,251.5 L842.8,214.9 L843.0,226.0 L843.3,231.5 L843.5,246.9 L843.7,248.1 L843.9,232.9 L844.2,224.7 L844.4,231.1 L844.6,220.1 L844.9,217.4 L845.1,221.9 L845.3,233.8 L845.5,263.0 L845.8,202.4 L846.0,254.5 L846.2,213.9 L846.5,228.1 L846.7,241.5 L846.9,215.5 L847.1,211.4 L847.4,230.7 L847.6,214.5 L847.8,216.7 L848.1,238.6 L848.3,263.1 L848.5,254.1 L848.7,255.6 L849.0,223.4 L849.2,219.1 L849.4,229.0 L849.7,227.1 L849.9,243.8 L850.1,264.7 L850.3,266.3 L850.6,268.4 L850.8,243.2 L851.0,219.1 L851.3,209.0 L851.5,257.7 L851.7,263.1 L851.9,234.6 L852.2,229.7 L852.4,261.6 L852.6,236.6 L852.9,256.7 L853.1,245.8 L853.3,263.3 L853.5,234.3 L853.8,229.3 L854.0,236.9 L854.2,237.1 L854.5,251.0 L854.7,239.2 L854.9,264.3 L855.1,267.1 L855.4,257.8 L855.6,236.3 L855.8,223.8 L856.1,251.5 L856.3,271.5 L856.5,234.2 L856.7,239.9 L857.0,217.7 L857.2,229.5 L857.4,245.1 L857.7,267.1 L857.9,266.6 L858.1,219.0 L858.3,239.6 L858.6,236.9 L858.8,260.0 L859.0,251.5 L859.3,236.6 L859.5,256.1 L859.7,220.1 L859.9,260.0 L860.2,272.8 L860.4,229.6 L860.6,253.7 L860.9,267.6 L861.1,223.1 L861.3,222.5 L861.5,277.4 L861.8,263.2 L862.0,278.0 L862.2,254.3 L862.5,277.0 L862.7,224.5 L862.9,270.6 L863.1,261.0 L863.4,237.2 L863.6,265.1 L863.8,282.9 L864.1,273.9 L864.3,278.1 L864.5,274.9 L864.7,225.3 L865.0,281.9 L865.2,272.4 L865.4,275.2 L865.7,241.1 L865.9,255.9 L866.1,233.3 L866.3,233.0 L866.6,235.8 L866.8,256.6 L867.0,278.1 L867.3,232.1 L867.5,235.8 L867.7,260.9 L867.9,247.3 L868.2,236.0 L868.4,274.9 L868.6,288.0 L868.9,238.7 L869.1,265.8 L869.3,269.7 L869.5,250.5 L869.8,249.7 L870.0,260.3 L870.2,259.8 L870.5,261.5 L870.7,276.9 L870.9,240.5 L871.1,274.1 L871.4,287.8 L871.6,245.3 L871.8,239.7 L872.1,290.8 L872.3,287.9 L872.5,237.5 L872.7,241.1 L873.0,249.1 L873.2,251.0 L873.4,244.4 L873.7,256.1 L873.9,252.6 L874.1,268.7 L874.3,266.9 L874.6,248.4 L874.8,273.8 L875.0,248.1 L875.3,241.1 L875.5,294.8 L875.7,271.0 L875.9,286.8 L876.2,266.3 L876.4,289.7 L876.6,267.7 L876.9,257.6 L877.1,254.1 L877.3,261.7 L877.5,255.9 L877.8,247.5 L878.0,289.2 L878.2,271.4 L878.5,256.2 L878.7,297.9 L878.9,266.7 L879.1,246.3 L879.4,285.6 L879.6,250.9 L879.8,264.0 L880.1,291.9 L880.3,276.2 L880.5,283.3 L880.8,268.7 L881.0,283.7 L881.2,291.7 L881.4,300.3 L881.7,297.1 L881.9,296.8 L882.1,250.0 L882.4,282.6 L882.6,252.2 L882.8,252.0 L883.0,296.2 L883.3,292.4 L883.5,287.9 L883.7,302.0 L884.0,268.4 L884.2,288.2 L884.4,256.1 L884.6,273.6 L884.9,282.9 L885.1,279.1 L885.3,279.7 L885.6,274.1 L885.8,293.9 L886.0,279.5 L886.2,273.0 L886.5,286.6 L886.7,260.4 L886.9,279.6 L887.2,307.0 L887.4,271.0 L887.6,291.9 L887.8,303.6 L888.1,283.0 L888.3,305.3 L888.5,305.1 L888.8,269.8 L889.0,284.2 L889.2,269.7 L889.4,282.7 L889.7,296.8 L889.9,277.9 L890.1,258.9 L890.4,261.9 L890.6,286.1 L890.8,271.0 L891.0,262.7 L891.3,302.5 L891.5,260.5 L891.7,292.1 L892.0,282.8 L892.2,273.5 L892.4,269.3 L892.6,306.9 L892.9,286.5 L893.1,300.6 L893.3,298.2 L893.6,296.4 L893.8,291.1 L894.0,296.9 L894.2,314.9 L894.5,298.6 L894.7,297.4 L894.9,271.8 L895.2,312.0 L895.4,270.6 L895.6,303.0 L895.8,267.1 L896.1,309.2 L896.3,313.4 L896.5,279.1 L896.8,294.5 L897.0,313.8 L897.2,307.6 L897.4,315.4 L897.7,281.7 L897.9,272.7 L898.1,279.7 L898.4,298.0 L898.6,273.7 L898.8,270.9 L899.0,275.1 L899.3,281.9 L899.5,311.5 L899.7,290.6 L900.0,307.6 L900.2,278.7 L900.4,276.9 L900.6,316.6 L900.9,282.2 L901.1,273.6 L901.3,278.3 L901.6,313.1 L901.8,283.3 L902.0,293.6 L902.2,281.8 L902.5,282.4 L902.7,284.1 L902.9,311.3 L903.2,319.9 L903.4,279.1 L903.6,296.6 L903.8,298.8 L904.1,298.5 L904.3,302.2 L904.5,300.6 L904.8,287.6 L905.0,312.1 L905.2,304.7 L905.4,281.3 L905.7,309.9 L905.9,290.0 L906.1,282.1 L906.4,285.5 L906.6,309.7 L906.8,308.3 L907.0,318.2 L907.3,292.6 L907.5,298.9 L907.7,320.1 L908.0,319.4 L908.2,328.9 L908.4,286.1 L908.6,301.6 L908.9,314.4 L909.1,304.7 L909.3,288.8 L909.6,310.5 L909.8,323.6 L910.0,294.0 L910.2,294.4 L910.5,331.0 L910.7,319.4 L910.9,330.9 L911.2,302.8 L911.4,328.2 L911.6,324.8 L911.8,319.5 L912.1,318.5 L912.3,331.8 L912.5,301.1 L912.8,307.2 L913.0,335.1 L913.2,328.5 L913.4,318.7 L913.7,294.1 L913.9,317.1 L914.1,333.2 L914.4,332.6 L914.6,327.5 L914.8,324.6 L915.0,314.8 L915.3,321.7 L915.5,324.6 L915.7,320.5 L916.0,300.4 L916.2,310.6 L916.4,332.2 L916.6,328.9 L916.9,333.4 L917.1,312.9 L917.3,318.3 L917.6,330.7 L917.8,319.2 L918.0,316.8 L918.2,332.0 L918.5,329.7 L918.7,327.1 L918.9,321.2 L919.2,306.7 L919.4,328.0 L919.6,301.1 L919.8,300.8 L920.1,328.5 L920.3,336.5 L920.5,319.8 L920.8,327.4 L921.0,307.5 L921.2,315.1 L921.4,333.5 L921.7,344.7 L921.9,308.5 L922.1,335.6 L922.4,324.3 L922.6,327.7 L922.8,332.4 L923.0,342.3 L923.3,323.4 L923.5,326.7 L923.7,316.1 L924.0,318.7 L924.2,310.6 L924.4,332.3 L924.6,313.4 L924.9,316.6 L925.1,320.5 L925.3,314.0 L925.6,324.1 L925.8,324.8 L926.0,344.8 L926.2,336.9 L926.5,319.7 L926.7,332.3 L926.9,328.6 L927.2,340.7 L927.4,334.5 L927.6,347.4 L927.8,315.2 L928.1,336.0 L928.3,335.5 L928.5,345.0 L928.8,316.9 L929.0,318.1 L929.2,336.8 L929.4,347.3 L929.7,319.7 L929.9,330.6 L930.1,315.1 L930.4,317.1 L930.6,340.6 L930.8,338.0 L931.0,333.4 L931.3,344.2 L931.5,330.5 L931.7,350.1 L932.0,347.0 L932.2,333.3 L932.4,341.8 L932.6,321.8 L932.9,331.0 L933.1,349.2 L933.3,358.7 L933.6,359.2 L933.8,359.5 L934.0,346.3 L934.2,355.8 L934.5,338.2 L934.7,323.7 L934.9,334.0 L935.2,344.2 L935.4,338.6 L935.6,333.8 L935.8,351.1 L936.1,327.1 L936.3,356.1 L936.5,341.3 L936.8,327.6 L937.0,342.9 L937.2,346.2 L937.4,354.7 L937.7,344.8 L937.9,353.5 L938.1,357.2 L938.4,365.6 L938.6,334.7 L938.8,344.5 L939.1,333.2 L939.3,337.9 L939.5,361.5 L939.7,331.2 L940.0,360.8 L940.2,352.8 L940.4,339.1 L940.7,348.5 L940.9,360.3 L941.1,339.7 L941.3,333.5 L941.6,338.1 L941.8,331.4 L942.0,368.0 L942.3,362.7 L942.5,337.7 L942.7,363.1 L942.9,357.9 L943.2,337.3 L943.4,340.7 L943.6,351.6 L943.9,334.6 L944.1,350.7 L944.3,338.6 L944.5,340.1 L944.8,363.2 L945.0,368.7 L945.2,340.7 L945.5,362.7 L945.7,335.8 L945.9,359.4 L946.1,360.6 L946.4,358.1 L946.6,352.3 L946.8,361.6 L947.1,360.2 L947.3,348.1 L947.5,350.4 L947.7,349.7 L948.0,374.4 L948.2,346.1 L948.4,356.7 L948.7,368.5 L948.9,375.9 L949.1,355.8 L949.3,343.8 L949.6,357.2 L949.8,370.8 L950.0,355.7 L950.3,374.7 L950.5,350.1 L950.7,346.1 L950.9,365.5 L951.2,357.7 L951.4,370.5 L951.6,370.4 L951.9,347.8 L952.1,351.8 L952.3,350.0 L952.5,369.4 L952.8,356.5 L953.0,346.9 L953.2,350.5 L953.5,358.4 L953.7,352.4 L953.9,358.7 L954.1,361.2 L954.4,384.3 L954.6,368.1 L954.8,365.2 L955.1,370.5 L955.3,357.6 L955.5,379.6 L955.7,355.0 L956.0,374.7 L956.2,385.5 L956.4,371.8 L956.7,370.7 L956.9,360.2 L957.1,384.2 L957.3,374.3 L957.6,355.7 L957.8,378.9 L958.0,362.8 L958.3,385.4 L958.5,358.3 L958.7,380.6 L958.9,360.7 L959.2,382.6 L959.4,384.5 L959.6,371.1 L959.9,371.9 L960.1,387.7 L960.3,366.3 L960.5,367.2 L960.8,381.3 L961.0,369.9 L961.2,370.0 L961.5,390.7 L961.7,374.1 L961.9,379.7 L962.1,360.7 L962.4,386.6 L962.6,366.7 L962.8,367.0 L963.1,362.7 L963.3,380.5 L963.5,395.0 L963.7,362.4 L964.0,376.3 L964.2,385.0 L964.4,380.9 L964.7,372.9 L964.9,380.6 L965.1,371.6 L965.3,371.3 L965.6,388.2 L965.8,369.8 L966.0,378.6 L966.3,366.7 L966.5,382.9 L966.7,384.5 L966.9,395.3 L967.2,369.9 L967.4,379.7 L967.6,377.3 L967.9,398.2 L968.1,394.9 L968.3,372.9 L968.5,390.0 L968.8,373.0 L969.0,375.1 L969.2,396.0 L969.5,370.7 L969.7,375.0 L969.9,383.3 L970.1,387.7 L970.4,403.6 L970.6,383.5 L970.8,379.4 L971.1,399.8 L971.3,373.6 L971.5,390.5 L971.7,374.3 L972.0,389.6 L972.2,402.2 L972.4,394.4 L972.7,387.7 L972.9,389.6 L973.1,387.7 L973.3,405.6 L973.6,397.8 L973.8,381.7 L974.0,399.3 L974.3,401.8 L974.5,392.2 L974.7,389.8 L974.9,404.9 L975.2,393.9 L975.4,402.9 L975.6,393.5 L975.9,401.0 L976.1,380.3 L976.3,393.7 L976.5,392.4 L976.8,382.1 L977.0,407.8 L977.2,405.2 L977.5,391.6 L977.7,412.4 L977.9,409.6 L978.1,400.2 L978.4,409.6 L978.6,407.9 L978.8,410.3 L979.1,412.4 L979.3,406.3 L979.5,410.5 L979.7,414.9 L980.0,387.8 L980.2,390.7 L980.4,386.6 L980.7,408.5 L980.9,406.6 L981.1,416.4 L981.3,401.9 L981.6,409.1 L981.8,403.7 L982.0,404.2 L982.3,415.9 L982.5,399.7 L982.7,409.5 L982.9,409.4 L983.2,395.7 L983.4,414.7 L983.6,398.7 L983.9,397.2 L984.1,397.5 L984.3,409.6 L984.5,415.0 L984.8,417.5 L985.0,415.3 L985.2,398.9 L985.5,416.9 L985.7,397.2 L985.9,417.0 L986.1,396.6 L986.4,401.0 L986.6,418.5 L986.8,402.0 L987.1,423.6 L987.3,424.1 L987.5,399.8 L987.7,398.1 L988.0,414.1 L988.2,416.7 L988.4,419.1 L988.7,423.3 L988.9,422.3 L989.1,418.3 L989.3,400.4 L989.6,425.1 L989.8,408.8 L990.0,409.0 L990.3,408.2 L990.5,423.8 L990.7,413.3 L990.9,417.3 L991.2,420.3 L991.4,414.5 L991.6,429.1 L991.9,417.2 L992.1,407.4 L992.3,412.5 L992.5,405.2 L992.8,407.1 L993.0,415.0 L993.2,426.4 L993.5,419.9 L993.7,412.2 L993.9,413.3 L994.1,410.8 L994.4,416.4 L994.6,410.1 L994.8,408.4 L995.1,428.4 L995.3,429.6 L995.5,422.2 L995.7,414.4 L996.0,410.6 L996.2,416.1 L996.4,424.4 L996.7,411.4 L996.9,427.3 L997.1,431.1 L997.4,432.0 L997.6,429.7 L997.8,422.5 L998.0,436.9 L998.3,424.4 L998.5,432.1 L998.7,416.4 L999.0,426.9 L999.2,436.4 L999.4,426.2 L999.6,422.4 L999.9,415.5 L1000.1,434.1 L1000.3,433.9 L1000.6,423.7 L1000.8,425.1 L1001.0,419.8 L1001.2,440.9 L1001.5,432.2 L1001.7,424.4 L1001.9,435.5 L1002.2,419.5 L1002.4,437.3 L1002.6,440.9 L1002.8,435.3 L1003.1,435.2 L1003.3,434.7 L1003.5,436.9 L1003.8,423.5 L1004.0,444.4 L1004.2,423.6 L1004.4,440.6 L1004.7,434.3 L1004.9,429.9 L1005.1,433.0 L1005.4,435.4 L1005.6,444.4 L1005.8,442.2 L1006.0,431.7 L1006.3,434.3 L1006.5,440.6 L1006.7,432.1 L1007.0,430.6 L1007.2,448.2 L1007.4,442.0 L1007.6,442.1 L1007.9,445.6 L1008.1,445.5 L1008.3,445.7 L1008.6,437.0 L1008.8,439.0 L1009.0,438.9 L1009.2,440.5 L1009.5,431.9 L1009.7,444.8 L1009.9,435.8 L1010.2,437.6 L1010.4,438.1 L1010.6,440.7 L1010.8,446.1 L1011.1,449.2 L1011.3,450.1 L1011.5,449.6 L1011.8,439.6 L1012.0,449.8 L1012.2,444.8 L1012.4,437.6 L1012.7,454.9 L1012.9,453.1 L1013.1,448.3 L1013.4,445.3 L1013.6,441.8 L1013.8,451.3 L1014.0,456.0 L1014.3,445.5 L1014.5,456.7 L1014.7,448.6 L1015.0,442.2 L1015.2,452.6 L1015.4,453.1 L1015.6,442.9 L1015.9,455.0 L1016.1,445.3 L1016.3,440.4 L1016.6,459.3 L1016.8,453.9 L1017.0,458.9 L1017.2,460.3 L1017.5,456.8 L1017.7,454.4 L1017.9,449.5 L1018.2,455.2 L1018.4,448.6 L1018.6,454.8 L1018.8,457.1 L1019.1,447.7 L1019.3,450.6 L1019.5,459.4 L1019.8,446.8 L1020.0,459.3 L1020.2,456.4 L1020.4,463.0 L1020.7,453.7 L1020.9,455.8 L1021.1,463.0 L1021.4,459.9 L1021.6,465.5 L1021.8,457.0 L1022.0,455.6 L1022.3,453.9 L1022.5,460.1 L1022.7,459.1 L1023.0,450.2 L1023.2,465.6 L1023.4,452.6 L1023.6,458.1 L1023.9,452.9 L1024.1,452.8 L1024.3,468.9 L1024.6,464.8 L1024.8,460.1 L1025.0,456.1 L1025.2,461.3 L1025.5,464.5 L1025.7,458.5 L1025.9,455.0 L1026.2,467.3 L1026.4,471.5 L1026.6,468.9 L1026.8,458.4 L1027.1,468.5 L1027.3,464.2 L1027.5,459.2 L1027.8,472.7 L1028.0,464.3 L1028.2,468.3 L1028.4,468.6 L1028.7,468.9 L1028.9,462.8 L1029.1,461.5 L1029.4,460.9 L1029.6,474.4 L1029.8,464.8 L1030.0,474.1 L1030.3,472.6 L1030.5,465.8 L1030.7,467.8 L1031.0,471.6 L1031.2,462.5 L1031.4,476.1 L1031.6,476.0 L1031.9,469.3 L1032.1,464.3 L1032.3,475.4 L1032.6,469.8 L1032.8,471.8 L1033.0,467.2 L1033.2,467.3 L1033.5,479.1 L1033.7,475.3 L1033.9,476.3 L1034.2,479.5 L1034.4,478.0 L1034.6,472.4 L1034.8,475.1 L1035.1,472.0 L1035.3,481.5 L1035.5,478.4 L1035.8,472.3 L1036.0,476.1 L1036.2,482.9 L1036.4,480.3 L1036.7,479.8 L1036.9,471.8 L1037.1,482.4 L1037.4,479.2 L1037.6,476.9 L1037.8,479.2 L1038.0,485.6 L1038.3,486.2 L1038.5,478.9 L1038.7,479.9 L1039.0,479.8 L1039.2,485.5 L1039.4,483.3 L1039.6,480.7 L1039.9,478.9 L1040.1,489.0 L1040.3,486.3 L1040.6,489.2 L1040.8,485.7 L1041.0,483.8 L1041.2,482.0 L1041.5,484.5 L1041.7,489.2 L1041.9,481.9 L1042.2,488.8 L1042.4,489.9 L1042.6,484.6 L1042.8,483.8 L1043.1,487.6 L1043.3,484.6 L1043.5,486.4 L1043.8,488.8 L1044.0,487.6 L1044.2,486.8 L1044.4,483.1 L1044.7,487.5 L1044.9,486.6 L1045.1,487.5 L1045.4,489.8 L1045.6,490.8 L1045.8,493.1 L1046.0,490.4 L1046.3,486.3 L1046.5,486.0 L1046.7,494.5 L1047.0,489.9 L1047.2,495.9 L1047.4,487.2 L1047.6,495.9 L1047.9,488.3 L1048.1,489.1 L1048.3,495.9 L1048.6,492.2 L1048.8,497.8 L1049.0,495.1 L1049.2,495.3 L1049.5,497.5 L1049.7,493.7 L1049.9,496.6 L1050.2,491.6 L1050.4,498.3 L1050.6,492.9 L1050.8,495.6 L1051.1,496.9 L1051.3,502.6 L1051.5,496.1 L1051.8,495.5 L1052.0,501.7 L1052.2,495.9 L1052.4,501.3 L1052.7,499.7 L1052.9,497.7 L1053.1,498.7 L1053.4,500.7 L1053.6,504.7 L1053.8,500.0 L1054.0,501.4 L1054.3,497.8 L1054.5,501.7 L1054.7,504.2 L1055.0,502.8 L1055.2,507.8 L1055.4,506.3 L1055.7,508.3 L1055.9,507.9 L1056.1,500.6 L1056.3,508.9 L1056.6,502.0 L1056.8,503.7 L1057.0,506.1 L1057.3,502.7 L1057.5,509.8 L1057.7,506.7 L1057.9,504.9 L1058.2,511.3 L1058.4,511.4 L1058.6,511.2 L1058.9,505.8 L1059.1,506.1 L1059.3,510.7 L1059.5,510.5 L1059.8,506.8 L1060.0,509.3 L1060.2,511.0 L1060.5,509.8 L1060.7,512.1 L1060.9,513.2 L1061.1,508.9 L1061.4,511.6 L1061.6,512.8 L1061.8,510.6 L1062.1,512.3 L1062.3,511.8 L1062.5,517.0 L1062.7,512.3 L1063.0,512.2 L1063.2,513.0 L1063.4,514.7 L1063.7,512.4 L1063.9,514.0 L1064.1,514.3 L1064.3,514.3 L1064.6,514.9 L1064.8,518.3 L1065.0,514.2 L1065.3,515.3 L1065.5,516.0 L1065.7,515.4 L1065.9,517.8 L1066.2,519.9 L1066.4,520.6 L1066.6,520.8 L1066.9,521.6 L1067.1,518.4 L1067.3,522.9 L1067.5,522.0 L1067.8,523.5 L1068.0,523.9 L1068.2,519.8 L1068.5,520.2 L1068.7,519.6 L1068.9,522.4 L1069.1,524.7 L1069.4,523.9 L1069.6,522.1 L1069.8,522.2 L1070.1,522.3 L1070.3,526.1 L1070.5,522.6 L1070.7,523.5 L1071.0,527.5 L1071.2,525.1 L1071.4,524.7 L1071.7,527.5 L1071.9,526.0 L1072.1,526.1 L1072.3,528.4 L1072.6,526.4 L1072.8,526.1 L1073.0,526.5 L1073.3,527.5 L1073.5,529.5 L1073.7,528.6 L1073.9,529.7 L1074.2,528.1 L1074.4,530.3 L1074.6,530.0 L1074.9,531.0 L1075.1,531.3 L1075.3,529.7 L1075.5,531.6 L1075.8,531.2 L1076.0,533.1 L1076.2,532.7 L1076.5,532.5 L1076.7,531.9 L1076.9,534.9 L1077.1,533.1 L1077.4,533.2 L1077.6,535.8 L1077.8,535.0 L1078.1,534.5 L1078.3,535.8 L1078.5,534.7 L1078.7,537.0 L1079.0,536.3 L1079.2,537.9 L1079.4,536.7 L1079.7,536.5 L1079.9,536.9 L1080.1,538.4 L1080.3,539.4 L1080.6,538.9 L1080.8,538.3 L1081.0,538.8 L1081.3,539.0 L1081.5,539.3 L1081.7,539.7 L1081.9,541.1 L1082.2,541.7 L1082.4,540.7 L1082.6,541.0 L1082.9,542.3 L1083.1,542.0 L1083.3,543.1 L1083.5,542.5 L1083.8,543.5 L1084.0,543.9" fill="none" stroke="#1f77b4" stroke-width="1.4" opacity="0.85"/><text x="1040" y="54" fill="#ff7f0e" font-size="11">roll 0</text><text x="1090" y="558" fill="#ff7f0e" font-size="11">-0</text><path d="M616.0,310.0 L616.2,310.0 L616.5,310.0 L616.7,310.0 L616.9,193.0 L617.1,310.0 L617.4,310.0 L617.6,193.0 L617.8,310.0 L618.1,310.0 L618.3,310.0 L618.5,193.0 L618.7,193.0 L619.0,310.0 L619.2,310.0 L619.4,427.0 L619.7,193.0 L619.9,310.0 L620.1,193.0 L620.3,310.0 L620.6,427.0 L620.8,310.0 L621.0,310.0 L621.3,427.0 L621.5,193.0 L621.7,193.0 L621.9,310.0 L622.2,310.0 L622.4,193.0 L622.6,310.0 L622.9,427.0 L623.1,427.0 L623.3,427.0 L623.5,310.0 L623.8,310.0 L624.0,310.0 L624.2,310.0 L624.5,427.0 L624.7,310.0 L624.9,310.0 L625.1,427.0 L625.4,427.0 L625.6,310.0 L625.8,310.0 L626.1,310.0 L626.3,310.0 L626.5,310.0 L626.7,310.0 L627.0,427.0 L627.2,427.0 L627.4,427.0 L627.7,193.0 L627.9,310.0 L628.1,427.0 L628.3,193.0 L628.6,193.0 L628.8,310.0 L629.0,310.0 L629.3,193.0 L629.5,193.0 L629.7,310.0 L629.9,310.0 L630.2,310.0 L630.4,310.0 L630.6,427.0 L630.9,193.0 L631.1,310.0 L631.3,310.0 L631.5,427.0 L631.8,310.0 L632.0,310.0 L632.2,310.0 L632.5,427.0 L632.7,427.0 L632.9,193.0 L633.1,310.0 L633.4,310.0 L633.6,310.0 L633.8,310.0 L634.1,427.0 L634.3,193.0 L634.5,193.0 L634.7,310.0 L635.0,427.0 L635.2,310.0 L635.4,427.0 L635.7,427.0 L635.9,193.0 L636.1,310.0 L636.3,310.0 L636.6,193.0 L636.8,427.0 L637.0,193.0 L637.3,427.0 L637.5,310.0 L637.7,310.0 L637.9,310.0 L638.2,310.0 L638.4,427.0 L638.6,427.0 L638.9,310.0 L639.1,310.0 L639.3,310.0 L639.5,310.0 L639.8,310.0 L640.0,310.0 L640.2,427.0 L640.5,427.0 L640.7,310.0 L640.9,310.0 L641.1,310.0 L641.4,310.0 L641.6,193.0 L641.8,193.0 L642.1,193.0 L642.3,310.0 L642.5,310.0 L642.7,193.0 L643.0,427.0 L643.2,310.0 L643.4,427.0 L643.7,310.0 L643.9,427.0 L644.1,427.0 L644.3,193.0 L644.6,193.0 L644.8,310.0 L645.0,427.0 L645.3,427.0 L645.5,193.0 L645.7,427.0 L646.0,310.0 L646.2,310.0 L646.4,193.0 L646.6,310.0 L646.9,193.0 L647.1,310.0 L647.3,193.0 L647.6,193.0 L647.8,193.0 L648.0,427.0 L648.2,427.0 L648.5,310.0 L648.7,193.0 L648.9,310.0 L649.2,427.0 L649.4,310.0 L649.6,193.0 L649.8,427.0 L650.1,193.0 L650.3,427.0 L650.5,427.0 L650.8,427.0 L651.0,310.0 L651.2,310.0 L651.4,310.0 L651.7,310.0 L651.9,310.0 L652.1,310.0 L652.4,193.0 L652.6,310.0 L652.8,310.0 L653.0,310.0 L653.3,427.0 L653.5,193.0 L653.7,310.0 L654.0,310.0 L654.2,193.0 L654.4,193.0 L654.6,310.0 L654.9,193.0 L655.1,427.0 L655.3,427.0 L655.6,310.0 L655.8,193.0 L656.0,310.0 L656.2,310.0 L656.5,310.0 L656.7,310.0 L656.9,427.0 L657.2,427.0 L657.4,310.0 L657.6,193.0 L657.8,193.0 L658.1,427.0 L658.3,193.0 L658.5,310.0 L658.8,427.0 L659.0,193.0 L659.2,310.0 L659.4,310.0 L659.7,310.0 L659.9,193.0 L660.1,427.0 L660.4,427.0 L660.6,193.0 L660.8,193.0 L661.0,427.0 L661.3,310.0 L661.5,310.0 L661.7,310.0 L662.0,310.0 L662.2,310.0 L662.4,427.0 L662.6,310.0 L662.9,193.0 L663.1,193.0 L663.3,310.0 L663.6,310.0 L663.8,193.0 L664.0,310.0 L664.2,427.0 L664.5,427.0 L664.7,427.0 L664.9,310.0 L665.2,310.0 L665.4,193.0 L665.6,427.0 L665.8,310.0 L666.1,193.0 L666.3,427.0 L666.5,193.0 L666.8,427.0 L667.0,310.0 L667.2,310.0 L667.4,310.0 L667.7,310.0 L667.9,310.0 L668.1,427.0 L668.4,310.0 L668.6,310.0 L668.8,193.0 L669.0,310.0 L669.3,310.0 L669.5,193.0 L669.7,310.0 L670.0,310.0 L670.2,310.0 L670.4,310.0 L670.6,310.0 L670.9,310.0 L671.1,310.0 L671.3,193.0 L671.6,427.0 L671.8,310.0 L672.0,310.0 L672.2,310.0 L672.5,193.0 L672.7,310.0 L672.9,193.0 L673.2,310.0 L673.4,310.0 L673.6,310.0 L673.8,310.0 L674.1,427.0 L674.3,310.0 L674.5,310.0 L674.8,427.0 L675.0,310.0 L675.2,427.0 L675.4,310.0 L675.7,310.0 L675.9,310.0 L676.1,310.0 L676.4,310.0 L676.6,310.0 L676.8,193.0 L677.0,427.0 L677.3,310.0 L677.5,310.0 L677.7,193.0 L678.0,193.0 L678.2,427.0 L678.4,310.0 L678.6,310.0 L678.9,310.0 L679.1,310.0 L679.3,193.0 L679.6,310.0 L679.8,427.0 L680.0,310.0 L680.2,427.0 L680.5,427.0 L680.7,427.0 L680.9,193.0 L681.2,427.0 L681.4,310.0 L681.6,310.0 L681.8,310.0 L682.1,310.0 L682.3,310.0 L682.5,427.0 L682.8,427.0 L683.0,427.0 L683.2,310.0 L683.4,310.0 L683.7,310.0 L683.9,193.0 L684.1,427.0 L684.4,310.0 L684.6,427.0 L684.8,310.0 L685.0,427.0 L685.3,310.0 L685.5,310.0 L685.7,310.0 L686.0,193.0 L686.2,310.0 L686.4,193.0 L686.6,310.0 L686.9,427.0 L687.1,193.0 L687.3,193.0 L687.6,193.0 L687.8,310.0 L688.0,310.0 L688.2,310.0 L688.5,310.0 L688.7,193.0 L688.9,427.0 L689.2,193.0 L689.4,427.0 L689.6,310.0 L689.8,310.0 L690.1,427.0 L690.3,193.0 L690.5,427.0 L690.8,310.0 L691.0,193.0 L691.2,310.0 L691.4,310.0 L691.7,427.0 L691.9,427.0 L692.1,310.0 L692.4,310.0 L692.6,427.0 L692.8,310.0 L693.0,193.0 L693.3,427.0 L693.5,193.0 L693.7,427.0 L694.0,310.0 L694.2,427.0 L694.4,193.0 L694.6,427.0 L694.9,310.0 L695.1,427.0 L695.3,310.0 L695.6,193.0 L695.8,427.0 L696.0,310.0 L696.2,310.0 L696.5,310.0 L696.7,310.0 L696.9,427.0 L697.2,310.0 L697.4,193.0 L697.6,427.0 L697.8,310.0 L698.1,193.0 L698.3,193.0 L698.5,310.0 L698.8,310.0 L699.0,310.0 L699.2,310.0 L699.4,310.0 L699.7,193.0 L699.9,310.0 L700.1,193.0 L700.4,427.0 L700.6,310.0 L700.8,193.0 L701.0,427.0 L701.3,193.0 L701.5,427.0 L701.7,193.0 L702.0,193.0 L702.2,310.0 L702.4,193.0 L702.6,310.0 L702.9,193.0 L703.1,427.0 L703.3,193.0 L703.6,310.0 L703.8,76.0 L704.0,427.0 L704.3,193.0 L704.5,310.0 L704.7,310.0 L704.9,310.0 L705.2,193.0 L705.4,310.0 L705.6,310.0 L705.9,310.0 L706.1,310.0 L706.3,310.0 L706.5,310.0 L706.8,310.0 L707.0,193.0 L707.2,310.0 L707.5,427.0 L707.7,310.0 L707.9,310.0 L708.1,193.0 L708.4,310.0 L708.6,310.0 L708.8,310.0 L709.1,310.0 L709.3,193.0 L709.5,193.0 L709.7,193.0 L710.0,193.0 L710.2,193.0 L710.4,427.0 L710.7,310.0 L710.9,427.0 L711.1,310.0 L711.3,427.0 L711.6,310.0 L711.8,310.0 L712.0,310.0 L712.3,310.0 L712.5,193.0 L712.7,427.0 L712.9,427.0 L713.2,310.0 L713.4,310.0 L713.6,310.0 L713.9,193.0 L714.1,310.0 L714.3,427.0 L714.5,193.0 L714.8,427.0 L715.0,310.0 L715.2,310.0 L715.5,193.0 L715.7,310.0 L715.9,310.0 L716.1,193.0 L716.4,310.0 L716.6,310.0 L716.8,310.0 L717.1,193.0 L717.3,427.0 L717.5,310.0 L717.7,310.0 L718.0,310.0 L718.2,310.0 L718.4,427.0 L718.7,310.0 L718.9,193.0 L719.1,427.0 L719.3,310.0 L719.6,427.0 L719.8,310.0 L720.0,310.0 L720.3,310.0 L720.5,310.0 L720.7,310.0 L720.9,193.0 L721.2,193.0 L721.4,427.0 L721.6,427.0 L721.9,193.0 L722.1,427.0 L722.3,193.0 L722.5,310.0 L722.8,427.0 L723.0,310.0 L723.2,193.0 L723.5,427.0 L723.7,427.0 L723.9,310.0 L724.1,310.0 L724.4,310.0 L724.6,193.0 L724.8,310.0 L725.1,310.0 L725.3,427.0 L725.5,427.0 L725.7,310.0 L726.0,310.0 L726.2,310.0 L726.4,193.0 L726.7,310.0 L726.9,310.0 L727.1,427.0 L727.3,310.0 L727.6,193.0 L727.8,310.0 L728.0,310.0 L728.3,193.0 L728.5,310.0 L728.7,310.0 L728.9,310.0 L729.2,193.0 L729.4,193.0 L729.6,310.0 L729.9,310.0 L730.1,310.0 L730.3,193.0 L730.5,427.0 L730.8,193.0 L731.0,310.0 L731.2,427.0 L731.5,193.0 L731.7,193.0 L731.9,310.0 L732.1,193.0 L732.4,310.0 L732.6,427.0 L732.8,310.0 L733.1,193.0 L733.3,427.0 L733.5,193.0 L733.7,193.0 L734.0,427.0 L734.2,310.0 L734.4,193.0 L734.7,310.0 L734.9,310.0 L735.1,310.0 L735.3,427.0 L735.6,427.0 L735.8,193.0 L736.0,427.0 L736.3,310.0 L736.5,193.0 L736.7,193.0 L736.9,427.0 L737.2,310.0 L737.4,193.0 L737.6,427.0 L737.9,310.0 L738.1,427.0 L738.3,193.0 L738.5,310.0 L738.8,310.0 L739.0,310.0 L739.2,193.0 L739.5,310.0 L739.7,310.0 L739.9,310.0 L740.1,193.0 L740.4,310.0 L740.6,193.0 L740.8,193.0 L741.1,310.0 L741.3,310.0 L741.5,310.0 L741.7,193.0 L742.0,310.0 L742.2,310.0 L742.4,193.0 L742.7,427.0 L742.9,193.0 L743.1,310.0 L743.3,310.0 L743.6,193.0 L743.8,193.0 L744.0,193.0 L744.3,193.0 L744.5,310.0 L744.7,310.0 L744.9,310.0 L745.2,310.0 L745.4,427.0 L745.6,310.0 L745.9,310.0 L746.1,310.0 L746.3,310.0 L746.5,427.0 L746.8,193.0 L747.0,427.0 L747.2,310.0 L747.5,310.0 L747.7,427.0 L747.9,310.0 L748.1,310.0 L748.4,310.0 L748.6,310.0 L748.8,193.0 L749.1,310.0 L749.3,310.0 L749.5,427.0 L749.7,193.0 L750.0,310.0 L750.2,427.0 L750.4,310.0 L750.7,193.0 L750.9,193.0 L751.1,310.0 L751.3,193.0 L751.6,427.0 L751.8,193.0 L752.0,193.0 L752.3,193.0 L752.5,310.0 L752.7,193.0 L752.9,310.0 L753.2,310.0 L753.4,310.0 L753.6,193.0 L753.9,193.0 L754.1,310.0 L754.3,193.0 L754.5,427.0 L754.8,310.0 L755.0,427.0 L755.2,310.0 L755.5,310.0 L755.7,193.0 L755.9,310.0 L756.1,310.0 L756.4,310.0 L756.6,310.0 L756.8,427.0 L757.1,310.0 L757.3,310.0 L757.5,193.0 L757.7,427.0 L758.0,310.0 L758.2,193.0 L758.4,310.0 L758.7,427.0 L758.9,310.0 L759.1,310.0 L759.3,310.0 L759.6,193.0 L759.8,427.0 L760.0,310.0 L760.3,310.0 L760.5,193.0 L760.7,310.0 L760.9,427.0 L761.2,193.0 L761.4,193.0 L761.6,310.0 L761.9,310.0 L762.1,310.0 L762.3,427.0 L762.6,310.0 L762.8,310.0 L763.0,310.0 L763.2,310.0 L763.5,193.0 L763.7,427.0 L763.9,310.0 L764.2,193.0 L764.4,310.0 L764.6,193.0 L764.8,427.0 L765.1,193.0 L765.3,310.0 L765.5,427.0 L765.8,193.0 L766.0,427.0 L766.2,310.0 L766.4,427.0 L766.7,193.0 L766.9,427.0 L767.1,193.0 L767.4,310.0 L767.6,310.0 L767.8,193.0 L768.0,193.0 L768.3,427.0 L768.5,427.0 L768.7,310.0 L769.0,310.0 L769.2,193.0 L769.4,310.0 L769.6,193.0 L769.9,427.0 L770.1,310.0 L770.3,193.0 L770.6,310.0 L770.8,427.0 L771.0,193.0 L771.2,310.0 L771.5,310.0 L771.7,310.0 L771.9,427.0 L772.2,310.0 L772.4,427.0 L772.6,193.0 L772.8,193.0 L773.1,310.0 L773.3,310.0 L773.5,427.0 L773.8,310.0 L774.0,193.0 L774.2,310.0 L774.4,427.0 L774.7,193.0 L774.9,310.0 L775.1,193.0 L775.4,310.0 L775.6,193.0 L775.8,310.0 L776.0,310.0 L776.3,310.0 L776.5,193.0 L776.7,193.0 L777.0,310.0 L777.2,193.0 L777.4,427.0 L777.6,193.0 L777.9,193.0 L778.1,427.0 L778.3,310.0 L778.6,310.0 L778.8,310.0 L779.0,193.0 L779.2,193.0 L779.5,427.0 L779.7,193.0 L779.9,310.0 L780.2,193.0 L780.4,310.0 L780.6,193.0 L780.8,427.0 L781.1,193.0 L781.3,193.0 L781.5,427.0 L781.8,310.0 L782.0,310.0 L782.2,310.0 L782.4,427.0 L782.7,310.0 L782.9,193.0 L783.1,310.0 L783.4,193.0 L783.6,310.0 L783.8,427.0 L784.0,310.0 L784.3,193.0 L784.5,427.0 L784.7,310.0 L785.0,193.0 L785.2,193.0 L785.4,310.0 L785.6,193.0 L785.9,427.0 L786.1,310.0 L786.3,193.0 L786.6,193.0 L786.8,310.0 L787.0,193.0 L787.2,193.0 L787.5,310.0 L787.7,193.0 L787.9,310.0 L788.2,193.0 L788.4,193.0 L788.6,193.0 L788.8,310.0 L789.1,193.0 L789.3,427.0 L789.5,427.0 L789.8,310.0 L790.0,310.0 L790.2,310.0 L790.4,193.0 L790.7,310.0 L790.9,427.0 L791.1,310.0 L791.4,193.0 L791.6,427.0 L791.8,193.0 L792.0,310.0 L792.3,427.0 L792.5,310.0 L792.7,310.0 L793.0,310.0 L793.2,310.0 L793.4,193.0 L793.6,193.0 L793.9,310.0 L794.1,310.0 L794.3,310.0 L794.6,310.0 L794.8,193.0 L795.0,310.0 L795.2,310.0 L795.5,310.0 L795.7,427.0 L795.9,310.0 L796.2,427.0 L796.4,427.0 L796.6,310.0 L796.8,427.0 L797.1,193.0 L797.3,310.0 L797.5,310.0 L797.8,427.0 L798.0,193.0 L798.2,427.0 L798.4,310.0 L798.7,310.0 L798.9,193.0 L799.1,427.0 L799.4,193.0 L799.6,427.0 L799.8,193.0 L800.0,193.0 L800.3,193.0 L800.5,310.0 L800.7,310.0 L801.0,310.0 L801.2,310.0 L801.4,193.0 L801.6,310.0 L801.9,310.0 L802.1,193.0 L802.3,310.0 L802.6,310.0 L802.8,310.0 L803.0,310.0 L803.2,310.0 L803.5,310.0 L803.7,310.0 L803.9,310.0 L804.2,193.0 L804.4,427.0 L804.6,193.0 L804.8,310.0 L805.1,427.0 L805.3,193.0 L805.5,427.0 L805.8,427.0 L806.0,310.0 L806.2,310.0 L806.4,193.0 L806.7,193.0 L806.9,427.0 L807.1,310.0 L807.4,310.0 L807.6,427.0 L807.8,310.0 L808.0,310.0 L808.3,193.0 L808.5,310.0 L808.7,427.0 L809.0,427.0 L809.2,193.0 L809.4,427.0 L809.6,193.0 L809.9,310.0 L810.1,427.0 L810.3,427.0 L810.6,310.0 L810.8,310.0 L811.0,310.0 L811.2,310.0 L811.5,310.0 L811.7,427.0 L811.9,193.0 L812.2,427.0 L812.4,193.0 L812.6,310.0 L812.8,310.0 L813.1,310.0 L813.3,310.0 L813.5,310.0 L813.8,193.0 L814.0,193.0 L814.2,427.0 L814.4,310.0 L814.7,193.0 L814.9,427.0 L815.1,193.0 L815.4,427.0 L815.6,193.0 L815.8,310.0 L816.0,310.0 L816.3,193.0 L816.5,193.0 L816.7,310.0 L817.0,310.0 L817.2,193.0 L817.4,310.0 L817.6,310.0 L817.9,310.0 L818.1,310.0 L818.3,427.0 L818.6,193.0 L818.8,310.0 L819.0,427.0 L819.2,193.0 L819.5,310.0 L819.7,310.0 L819.9,427.0 L820.2,310.0 L820.4,310.0 L820.6,427.0 L820.9,427.0 L821.1,310.0 L821.3,310.0 L821.5,193.0 L821.8,310.0 L822.0,427.0 L822.2,193.0 L822.5,427.0 L822.7,310.0 L822.9,427.0 L823.1,193.0 L823.4,310.0 L823.6,310.0 L823.8,193.0 L824.1,310.0 L824.3,193.0 L824.5,427.0 L824.7,310.0 L825.0,193.0 L825.2,193.0 L825.4,193.0 L825.7,310.0 L825.9,310.0 L826.1,193.0 L826.3,427.0 L826.6,310.0 L826.8,310.0 L827.0,427.0 L827.3,193.0 L827.5,427.0 L827.7,427.0 L827.9,310.0 L828.2,310.0 L828.4,427.0 L828.6,310.0 L828.9,310.0 L829.1,310.0 L829.3,427.0 L829.5,427.0 L829.8,193.0 L830.0,310.0 L830.2,193.0 L830.5,310.0 L830.7,310.0 L830.9,193.0 L831.1,310.0 L831.4,193.0 L831.6,427.0 L831.8,310.0 L832.1,310.0 L832.3,427.0 L832.5,193.0 L832.7,427.0 L833.0,427.0 L833.2,310.0 L833.4,427.0 L833.7,427.0 L833.9,310.0 L834.1,193.0 L834.3,310.0 L834.6,310.0 L834.8,193.0 L835.0,310.0 L835.3,310.0 L835.5,427.0 L835.7,193.0 L835.9,310.0 L836.2,310.0 L836.4,310.0 L836.6,427.0 L836.9,310.0 L837.1,193.0 L837.3,427.0 L837.5,193.0 L837.8,193.0 L838.0,310.0 L838.2,193.0 L838.5,310.0 L838.7,193.0 L838.9,310.0 L839.1,310.0 L839.4,193.0 L839.6,310.0 L839.8,310.0 L840.1,310.0 L840.3,310.0 L840.5,310.0 L840.7,310.0 L841.0,427.0 L841.2,193.0 L841.4,310.0 L841.7,310.0 L841.9,427.0 L842.1,193.0 L842.3,310.0 L842.6,193.0 L842.8,193.0 L843.0,427.0 L843.3,310.0 L843.5,193.0 L843.7,310.0 L843.9,310.0 L844.2,193.0 L844.4,193.0 L844.6,427.0 L844.9,310.0 L845.1,310.0 L845.3,310.0 L845.5,310.0 L845.8,310.0 L846.0,310.0 L846.2,427.0 L846.5,310.0 L846.7,310.0 L846.9,427.0 L847.1,427.0 L847.4,427.0 L847.6,427.0 L847.8,427.0 L848.1,193.0 L848.3,310.0 L848.5,310.0 L848.7,427.0 L849.0,310.0 L849.2,193.0 L849.4,310.0 L849.7,427.0 L849.9,193.0 L850.1,310.0 L850.3,193.0 L850.6,427.0 L850.8,310.0 L851.0,427.0 L851.3,193.0 L851.5,193.0 L851.7,310.0 L851.9,310.0 L852.2,310.0 L852.4,310.0 L852.6,427.0 L852.9,427.0 L853.1,310.0 L853.3,310.0 L853.5,193.0 L853.8,427.0 L854.0,427.0 L854.2,193.0 L854.5,310.0 L854.7,193.0 L854.9,310.0 L855.1,193.0 L855.4,427.0 L855.6,310.0 L855.8,427.0 L856.1,310.0 L856.3,310.0 L856.5,427.0 L856.7,310.0 L857.0,193.0 L857.2,427.0 L857.4,427.0 L857.7,310.0 L857.9,310.0 L858.1,427.0 L858.3,427.0 L858.6,310.0 L858.8,310.0 L859.0,427.0 L859.3,310.0 L859.5,310.0 L859.7,310.0 L859.9,310.0 L860.2,193.0 L860.4,310.0 L860.6,193.0 L860.9,310.0 L861.1,427.0 L861.3,193.0 L861.5,427.0 L861.8,310.0 L862.0,427.0 L862.2,310.0 L862.5,193.0 L862.7,310.0 L862.9,310.0 L863.1,427.0 L863.4,193.0 L863.6,310.0 L863.8,427.0 L864.1,427.0 L864.3,193.0 L864.5,310.0 L864.7,310.0 L865.0,427.0 L865.2,310.0 L865.4,427.0 L865.7,193.0 L865.9,427.0 L866.1,427.0 L866.3,427.0 L866.6,427.0 L866.8,427.0 L867.0,310.0 L867.3,427.0 L867.5,310.0 L867.7,193.0 L867.9,310.0 L868.2,427.0 L868.4,193.0 L868.6,427.0 L868.9,310.0 L869.1,427.0 L869.3,310.0 L869.5,310.0 L869.8,427.0 L870.0,310.0 L870.2,427.0 L870.5,310.0 L870.7,427.0 L870.9,310.0 L871.1,310.0 L871.4,193.0 L871.6,310.0 L871.8,310.0 L872.1,193.0 L872.3,310.0 L872.5,193.0 L872.7,310.0 L873.0,310.0 L873.2,310.0 L873.4,427.0 L873.7,310.0 L873.9,193.0 L874.1,310.0 L874.3,427.0 L874.6,310.0 L874.8,193.0 L875.0,427.0 L875.3,193.0 L875.5,310.0 L875.7,193.0 L875.9,310.0 L876.2,310.0 L876.4,310.0 L876.6,310.0 L876.9,310.0 L877.1,193.0 L877.3,310.0 L877.5,427.0 L877.8,310.0 L878.0,310.0 L878.2,310.0 L878.5,427.0 L878.7,193.0 L878.9,427.0 L879.1,193.0 L879.4,193.0 L879.6,310.0 L879.8,310.0 L880.1,193.0 L880.3,310.0 L880.5,310.0 L880.8,427.0 L881.0,310.0 L881.2,310.0 L881.4,310.0 L881.7,310.0 L881.9,310.0 L882.1,310.0 L882.4,427.0 L882.6,310.0 L882.8,310.0 L883.0,193.0 L883.3,310.0 L883.5,310.0 L883.7,193.0 L884.0,193.0 L884.2,427.0 L884.4,310.0 L884.6,193.0 L884.9,427.0 L885.1,310.0 L885.3,310.0 L885.6,310.0 L885.8,310.0 L886.0,310.0 L886.2,310.0 L886.5,427.0 L886.7,193.0 L886.9,310.0 L887.2,427.0 L887.4,193.0 L887.6,193.0 L887.8,427.0 L888.1,193.0 L888.3,427.0 L888.5,193.0 L888.8,310.0 L889.0,310.0 L889.2,310.0 L889.4,193.0 L889.7,310.0 L889.9,427.0 L890.1,310.0 L890.4,193.0 L890.6,193.0 L890.8,310.0 L891.0,310.0 L891.3,193.0 L891.5,427.0 L891.7,310.0 L892.0,193.0 L892.2,427.0 L892.4,193.0 L892.6,427.0 L892.9,310.0 L893.1,427.0 L893.3,193.0 L893.6,310.0 L893.8,310.0 L894.0,310.0 L894.2,193.0 L894.5,427.0 L894.7,193.0 L894.9,310.0 L895.2,427.0 L895.4,193.0 L895.6,310.0 L895.8,310.0 L896.1,193.0 L896.3,427.0 L896.5,193.0 L896.8,427.0 L897.0,193.0 L897.2,193.0 L897.4,310.0 L897.7,310.0 L897.9,193.0 L898.1,427.0 L898.4,310.0 L898.6,310.0 L898.8,427.0 L899.0,193.0 L899.3,310.0 L899.5,427.0 L899.7,310.0 L900.0,193.0 L900.2,310.0 L900.4,193.0 L900.6,427.0 L900.9,310.0 L901.1,310.0 L901.3,193.0 L901.6,427.0 L901.8,193.0 L902.0,310.0 L902.2,310.0 L902.5,427.0 L902.7,310.0 L902.9,310.0 L903.2,310.0 L903.4,193.0 L903.6,193.0 L903.8,427.0 L904.1,193.0 L904.3,310.0 L904.5,310.0 L904.8,427.0 L905.0,310.0 L905.2,427.0 L905.4,193.0 L905.7,310.0 L905.9,427.0 L906.1,310.0 L906.4,310.0 L906.6,310.0 L906.8,310.0 L907.0,310.0 L907.3,193.0 L907.5,427.0 L907.7,193.0 L908.0,310.0 L908.2,193.0 L908.4,310.0 L908.6,427.0 L908.9,310.0 L909.1,310.0 L909.3,427.0 L909.6,310.0 L909.8,427.0 L910.0,310.0 L910.2,310.0 L910.5,310.0 L910.7,310.0 L910.9,427.0 L911.2,310.0 L911.4,310.0 L911.6,310.0 L911.8,310.0 L912.1,310.0 L912.3,310.0 L912.5,310.0 L912.8,310.0 L913.0,310.0 L913.2,193.0 L913.4,193.0 L913.7,310.0 L913.9,310.0 L914.1,310.0 L914.4,427.0 L914.6,193.0 L914.8,310.0 L915.0,310.0 L915.3,193.0 L915.5,310.0 L915.7,310.0 L916.0,427.0 L916.2,193.0 L916.4,310.0 L916.6,193.0 L916.9,427.0 L917.1,310.0 L917.3,310.0 L917.6,310.0 L917.8,427.0 L918.0,193.0 L918.2,427.0 L918.5,310.0 L918.7,310.0 L918.9,193.0 L919.2,310.0 L919.4,310.0 L919.6,310.0 L919.8,427.0 L920.1,193.0 L920.3,310.0 L920.5,310.0 L920.8,310.0 L921.0,310.0 L921.2,310.0 L921.4,427.0 L921.7,193.0 L921.9,310.0 L922.1,193.0 L922.4,310.0 L922.6,310.0 L922.8,427.0 L923.0,193.0 L923.3,310.0 L923.5,427.0 L923.7,193.0 L924.0,193.0 L924.2,193.0 L924.4,310.0 L924.6,427.0 L924.9,193.0 L925.1,427.0 L925.3,310.0 L925.6,427.0 L925.8,193.0 L926.0,310.0 L926.2,310.0 L926.5,427.0 L926.7,193.0 L926.9,544.0 L927.2,427.0 L927.4,193.0 L927.6,427.0 L927.8,310.0 L928.1,310.0 L928.3,310.0 L928.5,310.0 L928.8,310.0 L929.0,427.0 L929.2,427.0 L929.4,310.0 L929.7,310.0 L929.9,193.0 L930.1,310.0 L930.4,310.0 L930.6,427.0 L930.8,310.0 L931.0,427.0 L931.3,310.0 L931.5,427.0 L931.7,310.0 L932.0,427.0 L932.2,427.0 L932.4,310.0 L932.6,427.0 L932.9,310.0 L933.1,427.0 L933.3,310.0 L933.6,427.0 L933.8,310.0 L934.0,310.0 L934.2,310.0 L934.5,427.0 L934.7,193.0 L934.9,310.0 L935.2,193.0 L935.4,310.0 L935.6,310.0 L935.8,427.0 L936.1,310.0 L936.3,310.0 L936.5,310.0 L936.8,310.0 L937.0,427.0 L937.2,310.0 L937.4,310.0 L937.7,193.0 L937.9,427.0 L938.1,310.0 L938.4,427.0 L938.6,310.0 L938.8,193.0 L939.1,310.0 L939.3,193.0 L939.5,427.0 L939.7,427.0 L940.0,310.0 L940.2,427.0 L940.4,310.0 L940.7,193.0 L940.9,427.0 L941.1,193.0 L941.3,310.0 L941.6,310.0 L941.8,310.0 L942.0,193.0 L942.3,310.0 L942.5,310.0 L942.7,427.0 L942.9,193.0 L943.2,310.0 L943.4,193.0 L943.6,193.0 L943.9,193.0 L944.1,310.0 L944.3,193.0 L944.5,310.0 L944.8,310.0 L945.0,310.0 L945.2,193.0 L945.5,310.0 L945.7,310.0 L945.9,310.0 L946.1,310.0 L946.4,193.0 L946.6,310.0 L946.8,193.0 L947.1,310.0 L947.3,193.0 L947.5,427.0 L947.7,193.0 L948.0,310.0 L948.2,193.0 L948.4,427.0 L948.7,310.0 L948.9,193.0 L949.1,193.0 L949.3,310.0 L949.6,310.0 L949.8,193.0 L950.0,193.0 L950.3,193.0 L950.5,427.0 L950.7,193.0 L950.9,427.0 L951.2,310.0 L951.4,193.0 L951.6,427.0 L951.9,310.0 L952.1,193.0 L952.3,193.0 L952.5,310.0 L952.8,427.0 L953.0,193.0 L953.2,310.0 L953.5,310.0 L953.7,310.0 L953.9,310.0 L954.1,310.0 L954.4,310.0 L954.6,193.0 L954.8,427.0 L955.1,193.0 L955.3,427.0 L955.5,193.0 L955.7,310.0 L956.0,193.0 L956.2,427.0 L956.4,310.0 L956.7,310.0 L956.9,310.0 L957.1,310.0 L957.3,427.0 L957.6,193.0 L957.8,310.0 L958.0,310.0 L958.3,310.0 L958.5,427.0 L958.7,193.0 L958.9,427.0 L959.2,310.0 L959.4,310.0 L959.6,310.0 L959.9,427.0 L960.1,427.0 L960.3,427.0 L960.5,310.0 L960.8,310.0 L961.0,193.0 L961.2,310.0 L961.5,193.0 L961.7,310.0 L961.9,427.0 L962.1,310.0 L962.4,427.0 L962.6,310.0 L962.8,310.0 L963.1,193.0 L963.3,427.0 L963.5,193.0 L963.7,310.0 L964.0,310.0 L964.2,193.0 L964.4,193.0 L964.7,310.0 L964.9,310.0 L965.1,310.0 L965.3,193.0 L965.6,193.0 L965.8,427.0 L966.0,76.0 L966.3,193.0 L966.5,310.0 L966.7,310.0 L966.9,193.0 L967.2,310.0 L967.4,193.0 L967.6,427.0 L967.9,310.0 L968.1,310.0 L968.3,310.0 L968.5,310.0 L968.8,427.0 L969.0,193.0 L969.2,427.0 L969.5,310.0 L969.7,427.0 L969.9,310.0 L970.1,310.0 L970.4,310.0 L970.6,193.0 L970.8,310.0 L971.1,427.0 L971.3,310.0 L971.5,310.0 L971.7,310.0 L972.0,427.0 L972.2,310.0 L972.4,193.0 L972.7,310.0 L972.9,310.0 L973.1,310.0 L973.3,310.0 L973.6,310.0 L973.8,310.0 L974.0,193.0 L974.3,310.0 L974.5,310.0 L974.7,427.0 L974.9,427.0 L975.2,310.0 L975.4,427.0 L975.6,193.0 L975.9,310.0 L976.1,427.0 L976.3,310.0 L976.5,310.0 L976.8,427.0 L977.0,310.0 L977.2,310.0 L977.5,310.0 L977.7,310.0 L977.9,193.0 L978.1,193.0 L978.4,310.0 L978.6,193.0 L978.8,427.0 L979.1,427.0 L979.3,427.0 L979.5,427.0 L979.7,310.0 L980.0,310.0 L980.2,310.0 L980.4,427.0 L980.7,193.0 L980.9,310.0 L981.1,193.0 L981.3,310.0 L981.6,310.0 L981.8,427.0 L982.0,310.0 L982.3,193.0 L982.5,310.0 L982.7,310.0 L982.9,193.0 L983.2,193.0 L983.4,310.0 L983.6,193.0 L983.9,310.0 L984.1,310.0 L984.3,310.0 L984.5,193.0 L984.8,310.0 L985.0,427.0 L985.2,427.0 L985.5,310.0 L985.7,310.0 L985.9,193.0 L986.1,427.0 L986.4,310.0 L986.6,310.0 L986.8,310.0 L987.1,193.0 L987.3,427.0 L987.5,193.0 L987.7,427.0 L988.0,310.0 L988.2,310.0 L988.4,310.0 L988.7,310.0 L988.9,310.0 L989.1,310.0 L989.3,310.0 L989.6,193.0 L989.8,310.0 L990.0,310.0 L990.3,427.0 L990.5,310.0 L990.7,310.0 L990.9,310.0 L991.2,310.0 L991.4,427.0 L991.6,193.0 L991.9,193.0 L992.1,427.0 L992.3,193.0 L992.5,193.0 L992.8,310.0 L993.0,310.0 L993.2,310.0 L993.5,427.0 L993.7,193.0 L993.9,310.0 L994.1,193.0 L994.4,193.0 L994.6,310.0 L994.8,310.0 L995.1,427.0 L995.3,310.0 L995.5,193.0 L995.7,427.0 L996.0,310.0 L996.2,310.0 L996.4,310.0 L996.7,310.0 L996.9,193.0 L997.1,310.0 L997.4,310.0 L997.6,193.0 L997.8,427.0 L998.0,310.0 L998.3,310.0 L998.5,193.0 L998.7,310.0 L999.0,310.0 L999.2,310.0 L999.4,193.0 L999.6,427.0 L999.9,193.0 L1000.1,193.0 L1000.3,427.0 L1000.6,427.0 L1000.8,310.0 L1001.0,427.0 L1001.2,310.0 L1001.5,310.0 L1001.7,310.0 L1001.9,310.0 L1002.2,193.0 L1002.4,310.0 L1002.6,427.0 L1002.8,193.0 L1003.1,427.0 L1003.3,193.0 L1003.5,193.0 L1003.8,310.0 L1004.0,310.0 L1004.2,310.0 L1004.4,427.0 L1004.7,427.0 L1004.9,427.0 L1005.1,427.0 L1005.4,193.0 L1005.6,427.0 L1005.8,310.0 L1006.0,310.0 L1006.3,310.0 L1006.5,310.0 L1006.7,427.0 L1007.0,310.0 L1007.2,427.0 L1007.4,310.0 L1007.6,310.0 L1007.9,310.0 L1008.1,427.0 L1008.3,193.0 L1008.6,427.0 L1008.8,193.0 L1009.0,427.0 L1009.2,427.0 L1009.5,193.0 L1009.7,310.0 L1009.9,310.0 L1010.2,193.0 L1010.4,427.0 L1010.6,310.0 L1010.8,193.0 L1011.1,427.0 L1011.3,310.0 L1011.5,310.0 L1011.8,310.0 L1012.0,310.0 L1012.2,310.0 L1012.4,310.0 L1012.7,310.0 L1012.9,310.0 L1013.1,310.0 L1013.4,427.0 L1013.6,193.0 L1013.8,310.0 L1014.0,427.0 L1014.3,193.0 L1014.5,310.0 L1014.7,310.0 L1015.0,193.0 L1015.2,310.0 L1015.4,310.0 L1015.6,427.0 L1015.9,310.0 L1016.1,310.0 L1016.3,310.0 L1016.6,193.0 L1016.8,310.0 L1017.0,310.0 L1017.2,310.0 L1017.5,310.0 L1017.7,193.0 L1017.9,193.0 L1018.2,310.0 L1018.4,193.0 L1018.6,310.0 L1018.8,310.0 L1019.1,193.0 L1019.3,310.0 L1019.5,427.0 L1019.8,310.0 L1020.0,310.0 L1020.2,427.0 L1020.4,193.0 L1020.7,310.0 L1020.9,310.0 L1021.1,310.0 L1021.4,193.0 L1021.6,310.0 L1021.8,193.0 L1022.0,427.0 L1022.3,310.0 L1022.5,310.0 L1022.7,427.0 L1023.0,193.0 L1023.2,427.0 L1023.4,193.0 L1023.6,427.0 L1023.9,310.0 L1024.1,310.0 L1024.3,427.0 L1024.6,310.0 L1024.8,427.0 L1025.0,310.0 L1025.2,427.0 L1025.5,193.0 L1025.7,310.0 L1025.9,427.0 L1026.2,193.0 L1026.4,310.0 L1026.6,310.0 L1026.8,193.0 L1027.1,427.0 L1027.3,427.0 L1027.5,310.0 L1027.8,310.0 L1028.0,427.0 L1028.2,193.0 L1028.4,427.0 L1028.7,427.0 L1028.9,310.0 L1029.1,310.0 L1029.4,310.0 L1029.6,427.0 L1029.8,427.0 L1030.0,427.0 L1030.3,427.0 L1030.5,310.0 L1030.7,427.0 L1031.0,310.0 L1031.2,427.0 L1031.4,193.0 L1031.6,427.0 L1031.9,193.0 L1032.1,310.0 L1032.3,310.0 L1032.6,193.0 L1032.8,427.0 L1033.0,427.0 L1033.2,193.0 L1033.5,310.0 L1033.7,427.0 L1033.9,427.0 L1034.2,310.0 L1034.4,193.0 L1034.6,427.0 L1034.8,427.0 L1035.1,193.0 L1035.3,310.0 L1035.5,427.0 L1035.8,310.0 L1036.0,427.0 L1036.2,193.0 L1036.4,427.0 L1036.7,310.0 L1036.9,310.0 L1037.1,427.0 L1037.4,427.0 L1037.6,310.0 L1037.8,310.0 L1038.0,427.0 L1038.3,427.0 L1038.5,310.0 L1038.7,310.0 L1039.0,427.0 L1039.2,310.0 L1039.4,310.0 L1039.6,193.0 L1039.9,427.0 L1040.1,427.0 L1040.3,427.0 L1040.6,193.0 L1040.8,310.0 L1041.0,310.0 L1041.2,310.0 L1041.5,193.0 L1041.7,427.0 L1041.9,310.0 L1042.2,193.0 L1042.4,427.0 L1042.6,193.0 L1042.8,427.0 L1043.1,310.0 L1043.3,310.0 L1043.5,310.0 L1043.8,310.0 L1044.0,427.0 L1044.2,310.0 L1044.4,310.0 L1044.7,193.0 L1044.9,427.0 L1045.1,310.0 L1045.4,310.0 L1045.6,310.0 L1045.8,310.0 L1046.0,427.0 L1046.3,193.0 L1046.5,310.0 L1046.7,310.0 L1047.0,193.0 L1047.2,427.0 L1047.4,310.0 L1047.6,193.0 L1047.9,193.0 L1048.1,193.0 L1048.3,427.0 L1048.6,427.0 L1048.8,310.0 L1049.0,310.0 L1049.2,427.0 L1049.5,193.0 L1049.7,193.0 L1049.9,310.0 L1050.2,310.0 L1050.4,193.0 L1050.6,427.0 L1050.8,427.0 L1051.1,310.0 L1051.3,193.0 L1051.5,310.0 L1051.8,310.0 L1052.0,310.0 L1052.2,427.0 L1052.4,310.0 L1052.7,193.0 L1052.9,310.0 L1053.1,193.0 L1053.4,427.0 L1053.6,310.0 L1053.8,310.0 L1054.0,427.0 L1054.3,193.0 L1054.5,310.0 L1054.7,427.0 L1055.0,310.0 L1055.2,310.0 L1055.4,427.0 L1055.7,193.0 L1055.9,310.0 L1056.1,310.0 L1056.3,193.0 L1056.6,310.0 L1056.8,193.0 L1057.0,193.0 L1057.3,427.0 L1057.5,310.0 L1057.7,427.0 L1057.9,193.0 L1058.2,427.0 L1058.4,193.0 L1058.6,310.0 L1058.9,310.0 L1059.1,427.0 L1059.3,193.0 L1059.5,310.0 L1059.8,193.0 L1060.0,427.0 L1060.2,427.0 L1060.5,193.0 L1060.7,310.0 L1060.9,310.0 L1061.1,427.0 L1061.4,310.0 L1061.6,310.0 L1061.8,427.0 L1062.1,310.0 L1062.3,310.0 L1062.5,193.0 L1062.7,193.0 L1063.0,427.0 L1063.2,193.0 L1063.4,310.0 L1063.7,310.0 L1063.9,193.0 L1064.1,310.0 L1064.3,310.0 L1064.6,310.0 L1064.8,310.0 L1065.0,310.0 L1065.3,193.0 L1065.5,310.0 L1065.7,310.0 L1065.9,193.0 L1066.2,310.0 L1066.4,193.0 L1066.6,427.0 L1066.9,193.0 L1067.1,310.0 L1067.3,310.0 L1067.5,427.0 L1067.8,310.0 L1068.0,427.0 L1068.2,193.0 L1068.5,310.0 L1068.7,310.0 L1068.9,310.0 L1069.1,310.0 L1069.4,310.0 L1069.6,193.0 L1069.8,193.0 L1070.1,310.0 L1070.3,310.0 L1070.5,310.0 L1070.7,193.0 L1071.0,427.0 L1071.2,310.0 L1071.4,310.0 L1071.7,193.0 L1071.9,310.0 L1072.1,310.0 L1072.3,427.0 L1072.6,310.0 L1072.8,193.0 L1073.0,310.0 L1073.3,193.0 L1073.5,427.0 L1073.7,310.0 L1073.9,310.0 L1074.2,310.0 L1074.4,427.0 L1074.6,310.0 L1074.9,427.0 L1075.1,310.0 L1075.3,427.0 L1075.5,193.0 L1075.8,310.0 L1076.0,427.0 L1076.2,310.0 L1076.5,427.0 L1076.7,193.0 L1076.9,193.0 L1077.1,193.0 L1077.4,310.0 L1077.6,310.0 L1077.8,310.0 L1078.1,310.0 L1078.3,310.0 L1078.5,310.0 L1078.7,193.0 L1079.0,310.0 L1079.2,193.0 L1079.4,427.0 L1079.7,193.0 L1079.9,310.0 L1080.1,310.0 L1080.3,427.0 L1080.6,310.0 L1080.8,193.0 L1081.0,193.0 L1081.3,427.0 L1081.5,310.0 L1081.7,310.0 L1081.9,427.0 L1082.2,310.0 L1082.4,310.0 L1082.6,310.0 L1082.9,310.0 L1083.1,193.0 L1083.3,427.0 L1083.5,427.0 L1083.8,310.0 L1084.0,193.0" fill="none" stroke="#ff7f0e" stroke-width="1.1" opacity="0.85"/><text x="616" y="572" font-size="11" fill="#888">time 0..41 s — altitude (blue) &amp; roll (orange)</text></svg>