<svg xmlns="http://www.w3.org/2000/svg" width="1140" height="600" font-family="sans-serif" font-size="13"><rect width="1140" height="600" fill="white"/><text x="20" y="26" font-size="15" fill="#333">TMS-7 F15 — cross-wind 3 m/s (10% noise)</text><rect x="20" y="40" width="540" height="540" fill="#fbfbfb" stroke="#ddd"/><rect x="50" y="341" width="178" height="3" fill="#cde" stroke="#369" opacity="0.7"/><text x="50" y="336" fill="#369" font-size="12">landing zone</text><circle cx="162" cy="373" r="5" fill="black"/><text x="170" y="377" font-size="12">pad</text><path d="M161.9,372.6 L161.9,372.6 L161.9,372.6 L161.9,372.6 L161.9,372.6 L161.9,372.6 L161.9,372.6 L161.9,372.6 L161.9,372.6 L161.9,372.6 L161.9,372.6 L161.9,372.6 L161.9,372.6 L161.9,372.6 L161.9,372.6 L161.9,372.6 L161.9,372.6 L161.9,372.6 L161.9,372.6 L161.9,372.6 L161.9,372.6 L161.9,372.6 L161.9,372.6 L161.9,372.6 L161.9,372.6 L161.9,372.6 L161.9,372.6 L161.9,372.6 L161.9,372.6 L161.9,372.6 L161.9,372.6 L161.9,372.6 L161.9,372.6 L161.9,372.6 L161.9,372.6 L161.9,372.6 L161.9,372.6 L161.9,372.6 L161.9,372.6 L161.9,372.6 L161.9,372.6 L161.9,372.6 L161.9,372.6 L161.9,372.6 L161.9,372.6 L161.9,372.6 L161.9,372.6 L161.9,372.6 L161.9,372.6 L161.9,372.6 L161.9,372.6 L161.9,372.6 L161.9,372.6 L161.9,372.6 L161.9,372.6 L161.9,372.6 L161.9,372.6 L161.9,372.6 L162.5,371.5 L163.1,370.4 L163.9,369.3 L164.6,368.1 L165.3,367.0 L165.9,365.8 L166.6,364.7 L167.4,363.5 L168.2,362.4 L168.9,361.3 L169.6,360.1 L170.4,359.0 L171.2,357.8 L171.9,356.7 L172.7,355.7 L173.5,354.5 L174.3,353.4 L175.0,352.3 L175.8,351.2 L176.7,350.1 L177.5,349.0 L178.3,347.9 L179.1,346.9 L180.0,345.8 L180.8,344.7 L181.6,343.7 L182.4,342.6 L183.3,341.5 L184.2,340.5 L185.0,339.3 L185.8,338.3 L186.7,337.3 L187.5,336.2 L188.4,335.1 L189.2,334.1 L190.1,333.0 L191.0,332.0 L191.9,331.0 L192.7,329.9 L193.7,328.9 L194.6,327.9 L195.4,326.9 L196.4,325.8 L197.3,324.9 L198.2,323.9 L199.1,322.9 L200.2,321.9 L201.1,320.9 L202.0,320.0 L203.0,319.0 L204.0,318.1 L204.9,317.0 L205.9,316.1 L206.9,315.2 L207.9,314.2 L208.8,313.3 L209.9,312.3 L210.9,311.4 L211.9,310.5 L212.9,309.6 L213.9,308.7 L214.9,307.8 L215.9,306.9 L217.1,305.9 L218.1,305.1 L219.1,304.2 L220.2,303.3 L221.3,302.5 L222.3,301.6 L223.4,300.8 L224.5,299.9 L225.5,299.1 L226.7,298.2 L227.8,297.4 L228.8,296.6 L230.0,295.8 L231.1,295.0 L232.2,294.1 L233.4,293.3 L234.5,292.5 L235.6,291.8 L236.8,291.0 L237.9,290.2 L239.1,289.4 L240.2,288.6 L241.3,287.9 L242.6,287.1 L243.7,286.4 L244.8,285.6 L246.1,284.9 L247.2,284.1 L248.4,283.4 L249.7,282.7 L250.8,282.1 L252.0,281.4 L253.3,280.7 L254.4,280.0 L255.7,279.3 L256.9,278.6 L258.1,277.9 L259.4,277.3 L260.6,276.6 L261.8,276.0 L263.1,275.3 L264.3,274.7 L265.6,274.1 L266.9,273.5 L268.1,272.8 L269.4,272.2 L270.7,271.7 L272.0,271.0 L273.2,270.4 L274.5,269.8 L275.8,269.3 L277.1,268.7 L278.4,268.1 L279.7,267.7 L281.0,267.1 L282.4,266.5 L283.6,266.1 L284.9,265.5 L286.3,264.9 L287.6,264.5 L289.0,264.0 L290.3,263.4 L291.7,263.0 L293.0,262.5 L294.3,262.1 L295.7,261.6 L297.0,261.1 L298.4,260.7 L299.7,260.2 L301.1,259.8 L302.5,259.3 L303.8,259.0 L305.3,258.5 L306.6,258.1 L307.9,257.7 L309.4,257.3 L310.7,256.9 L312.2,256.6 L313.5,256.1 L315.0,255.8 L316.3,255.4 L317.7,255.1 L319.2,254.7 L320.5,254.4 L322.0,254.1 L323.4,253.8 L324.9,253.5 L326.2,253.1 L327.6,252.9 L329.1,252.6 L330.5,252.3 L332.0,252.0 L333.4,251.8 L334.9,251.5 L336.3,251.3 L337.8,251.0 L339.2,250.7 L340.6,250.5 L342.1,250.4 L343.5,250.2 L345.0,249.9 L346.5,249.7 L348.0,249.6 L349.4,249.4 L350.9,249.1 L352.3,249.0 L353.8,248.9 L355.3,248.7 L356.7,248.6 L358.3,248.5 L359.7,248.3 L361.2,248.2 L362.7,248.1 L364.2,248.0 L365.7,247.9 L367.1,247.8 L368.7,247.8 L370.1,247.7 L371.7,247.7 L373.1,247.5 L374.7,247.5 L376.1,247.4 L377.7,247.4 L379.1,247.4 L380.7,247.4 L382.2,247.4 L383.6,247.4 L385.2,247.4 L386.7,247.4 L388.2,247.4 L389.7,247.5 L391.3,247.5 L392.8,247.5 L394.3,247.7 L395.8,247.8 L397.4,247.8 L398.9,247.9 L400.4,248.0 L401.9,248.1 L403.5,248.1 L405.0,248.2 L406.5,248.5 L408.0,248.6 L409.5,248.7 L411.1,248.8 L412.6,249.0 L414.2,249.1 L415.7,249.4 L417.3,249.5 L418.7,249.7 L420.3,249.8 L421.8,250.1 L423.4,250.3 L424.7,250.5 L425.9,250.6 L427.2,250.9 L428.5,251.1 L429.8,251.3 L431.1,251.4 L432.3,251.7 L433.7,251.9 L434.9,252.1 L436.1,252.3 L437.5,252.6 L438.7,252.9 L440.1,253.1 L441.3,253.4 L442.6,253.6 L443.9,253.9 L445.1,254.2 L446.5,254.4 L447.7,254.7 L449.0,255.0 L450.3,255.3 L451.6,255.7 L452.9,255.9 L454.2,256.2 L455.4,256.6 L456.7,256.9 L458.0,257.3 L459.2,257.6 L460.6,257.9 L461.8,258.3 L463.2,258.6 L464.4,259.0 L465.6,259.3 L467.0,259.7 L468.2,260.0 L469.6,260.5 L470.8,260.8 L472.0,261.3 L473.4,261.6 L474.6,262.1 L475.9,262.4 L477.2,262.9 L478.4,263.2 L479.8,263.7 L481.0,264.1 L482.2,264.6 L483.6,265.0 L484.8,265.5 L486.1,265.9 L487.4,266.4 L488.6,266.9 L489.9,267.3 L491.1,267.8 L492.5,268.2 L493.7,268.7 L494.9,269.3 L496.3,269.7 L497.5,270.2 L498.7,270.7 L500.0,271.2 L501.3,271.8 L502.6,272.3 L503.8,272.8 L505.0,273.4 L506.3,273.9 L507.6,274.4 L508.9,275.0 L510.1,275.5 L511.3,276.1 L512.6,276.7 L513.8,277.3 L515.0,277.8 L516.3,278.4 L517.5,279.1 L518.9,279.7 L520.1,280.2 L521.3,280.8 L522.6,281.5 L523.8,282.1 L525.0,282.7 L526.3,283.3 L527.5,284.0 L528.8,284.6 L530.0,285.3" fill="none" stroke="#1f77b4" stroke-width="1.7" opacity="0.85"/><circle cx="530" cy="285" r="4.5" fill="#1f77b4"/><text x="28" y="572" font-size="11" fill="#888">ground track — m from pad (N up)</text><rect x="580" y="40" width="540" height="540" fill="#fbfbfb" stroke="#ddd"/><text x="586" y="54" fill="#1f77b4" font-size="11">alt 301</text><text x="586" y="558" fill="#1f77b4" font-size="11">2</text><path d="M616.0,543.7 L616.2,543.4 L616.5,544.0 L616.7,543.9 L616.9,543.5 L617.2,544.0 L617.4,543.5 L617.6,543.7 L617.9,542.9 L618.1,543.5 L618.3,543.3 L618.5,543.4 L618.8,542.6 L619.0,542.3 L619.2,542.2 L619.5,541.6 L619.7,542.0 L619.9,541.8 L620.2,541.7 L620.4,541.2 L620.6,540.1 L620.9,540.5 L621.1,540.1 L621.3,540.2 L621.6,538.6 L621.8,539.9 L622.0,539.1 L622.2,538.3 L622.5,538.6 L622.7,538.0 L622.9,536.4 L623.2,537.3 L623.4,535.6 L623.6,536.3 L623.9,535.0 L624.1,534.5 L624.3,534.6 L624.6,533.1 L624.8,532.6 L625.0,531.9 L625.3,531.2 L625.5,531.6 L625.7,528.9 L626.0,531.2 L626.2,529.7 L626.4,528.3 L626.6,526.2 L626.9,527.0 L627.1,527.9 L627.3,524.4 L627.6,525.1 L627.8,524.8 L628.0,525.1 L628.3,522.2 L628.5,523.8 L628.7,522.1 L629.0,520.6 L629.2,517.7 L629.4,517.9 L629.7,515.3 L629.9,516.8 L630.1,513.6 L630.4,514.1 L630.6,511.0 L630.8,514.2 L631.0,515.9 L631.3,509.1 L631.5,513.5 L631.7,512.4 L632.0,509.8 L632.2,509.0 L632.4,509.4 L632.7,503.6 L632.9,506.7 L633.1,506.4 L633.4,500.1 L633.6,504.9 L633.8,504.5 L634.1,500.5 L634.3,500.3 L634.5,495.3 L634.7,492.1 L635.0,493.4 L635.2,497.8 L635.4,488.5 L635.7,493.3 L635.9,483.7 L636.1,482.6 L636.4,483.9 L636.6,490.5 L636.8,483.2 L637.1,482.9 L637.3,481.9 L637.5,478.6 L637.8,481.1 L638.0,472.3 L638.2,482.1 L638.5,481.5 L638.7,470.4 L638.9,470.5 L639.1,474.8 L639.4,467.8 L639.6,472.3 L639.8,467.1 L640.1,472.1 L640.3,455.2 L640.5,458.1 L640.8,451.8 L641.0,462.1 L641.2,458.5 L641.5,462.9 L641.7,453.6 L641.9,445.0 L642.2,441.5 L642.4,452.2 L642.6,451.5 L642.8,452.8 L643.1,451.5 L643.3,439.5 L643.5,441.6 L643.8,442.0 L644.0,437.5 L644.2,426.6 L644.5,426.6 L644.7,429.5 L644.9,438.8 L645.2,433.1 L645.4,432.7 L645.6,430.2 L645.9,415.5 L646.1,433.1 L646.3,407.7 L646.6,420.7 L646.8,410.1 L647.0,408.3 L647.2,415.0 L647.5,412.2 L647.7,400.6 L647.9,421.3 L648.2,418.2 L648.4,407.4 L648.6,410.2 L648.9,409.2 L649.1,409.0 L649.3,395.4 L649.6,382.6 L649.8,404.4 L650.0,386.3 L650.3,383.0 L650.5,394.0 L650.7,388.7 L650.9,368.6 L651.2,395.7 L651.4,362.1 L651.6,372.4 L651.9,382.2 L652.1,379.4 L652.3,352.6 L652.6,375.5 L652.8,347.0 L653.0,380.1 L653.3,352.7 L653.5,360.7 L653.7,349.7 L654.0,354.0 L654.2,335.7 L654.4,335.2 L654.7,335.5 L654.9,348.4 L655.1,362.0 L655.3,324.5 L655.6,348.7 L655.8,343.0 L656.0,323.0 L656.3,348.5 L656.5,347.4 L656.7,313.9 L657.0,341.5 L657.2,320.6 L657.4,336.9 L657.7,329.9 L657.9,302.3 L658.1,328.1 L658.4,332.5 L658.6,307.8 L658.8,331.7 L659.1,319.3 L659.3,320.1 L659.5,312.1 L659.7,314.4 L660.0,293.8 L660.2,283.2 L660.4,279.5 L660.7,287.5 L660.9,285.6 L661.1,287.1 L661.4,285.4 L661.6,287.0 L661.8,256.1 L662.1,274.3 L662.3,282.4 L662.5,287.6 L662.8,293.0 L663.0,280.2 L663.2,290.9 L663.4,282.7 L663.7,267.5 L663.9,281.7 L664.1,249.3 L664.4,286.1 L664.6,272.8 L664.8,259.7 L665.1,251.8 L665.3,266.9 L665.5,225.4 L665.8,224.7 L666.0,218.6 L666.2,270.8 L666.5,253.2 L666.7,269.0 L666.9,262.0 L667.2,229.5 L667.4,235.3 L667.6,234.3 L667.8,237.7 L668.1,211.3 L668.3,236.3 L668.5,255.9 L668.8,244.6 L669.0,232.1 L669.2,251.0 L669.5,189.1 L669.7,224.8 L669.9,214.5 L670.2,234.1 L670.4,241.7 L670.6,237.1 L670.9,207.4 L671.1,210.6 L671.3,180.6 L671.5,183.7 L671.8,215.0 L672.0,186.9 L672.2,232.4 L672.5,221.5 L672.7,201.0 L672.9,201.7 L673.2,210.1 L673.4,216.9 L673.6,181.5 L673.9,172.4 L674.1,155.5 L674.3,156.7 L674.6,154.1 L674.8,214.4 L675.0,177.2 L675.3,148.2 L675.5,208.6 L675.7,199.3 L675.9,169.6 L676.2,177.5 L676.4,147.8 L676.6,145.2 L676.9,152.5 L677.1,197.3 L677.3,192.7 L677.6,157.9 L677.8,176.3 L678.0,135.8 L678.3,158.7 L678.5,180.1 L678.7,176.3 L679.0,147.5 L679.2,188.3 L679.4,185.3 L679.6,117.5 L679.9,148.9 L680.1,187.4 L680.3,112.2 L680.6,186.5 L680.8,146.5 L681.0,122.3 L681.3,152.3 L681.5,174.7 L681.7,156.3 L682.0,133.2 L682.2,118.7 L682.4,135.6 L682.7,164.3 L682.9,137.4 L683.1,121.8 L683.4,131.8 L683.6,167.6 L683.8,131.2 L684.0,109.4 L684.3,94.6 L684.5,150.4 L684.7,98.1 L685.0,93.0 L685.2,147.2 L685.4,106.6 L685.7,126.6 L685.9,146.8 L686.1,132.3 L686.4,145.6 L686.6,118.2 L686.8,120.0 L687.1,158.0 L687.3,76.0 L687.5,108.1 L687.8,149.7 L688.0,117.4 L688.2,98.6 L688.4,138.1 L688.7,95.5 L688.9,141.1 L689.1,96.5 L689.4,143.3 L689.6,110.3 L689.8,158.8 L690.1,77.8 L690.3,158.5 L690.5,116.4 L690.8,78.5 L691.0,96.5 L691.2,77.0 L691.5,141.2 L691.7,78.3 L691.9,139.3 L692.1,93.1 L692.4,142.8 L692.6,152.9 L692.8,159.3 L693.1,109.5 L693.3,117.9 L693.5,129.6 L693.8,89.3 L694.0,78.3 L694.2,115.6 L694.5,113.6 L694.7,137.9 L694.9,156.9 L695.2,131.8 L695.4,123.8 L695.6,147.2 L695.9,139.1 L696.1,96.3 L696.3,147.5 L696.5,77.3 L696.8,116.3 L697.0,120.3 L697.2,137.9 L697.5,99.6 L697.7,139.5 L697.9,77.5 L698.2,91.1 L698.4,79.8 L698.6,152.3 L698.9,114.4 L699.1,140.5 L699.3,139.5 L699.6,143.1 L699.8,104.2 L700.0,130.1 L700.2,91.0 L700.5,152.8 L700.7,160.5 L700.9,129.2 L701.2,145.9 L701.4,80.7 L701.6,77.8 L701.9,77.5 L702.1,132.0 L702.3,137.2 L702.6,110.0 L702.8,102.3 L703.0,131.7 L703.3,91.5 L703.5,142.5 L703.7,160.2 L704.0,147.0 L704.2,82.3 L704.4,116.5 L704.6,150.8 L704.9,153.1 L705.1,81.8 L705.3,141.4 L705.6,89.3 L705.8,146.3 L706.0,150.6 L706.3,131.5 L706.5,135.3 L706.7,162.0 L707.0,161.7 L707.2,121.2 L707.4,118.9 L707.7,102.4 L707.9,127.4 L708.1,139.8 L708.4,146.4 L708.6,162.9 L708.8,139.7 L709.0,102.1 L709.3,117.3 L709.5,158.8 L709.7,140.9 L710.0,156.5 L710.2,155.5 L710.4,116.9 L710.7,131.5 L710.9,131.3 L711.1,117.4 L711.4,85.6 L711.6,160.8 L711.8,141.8 L712.1,101.8 L712.3,165.8 L712.5,82.4 L712.7,91.9 L713.0,118.9 L713.2,92.9 L713.4,148.5 L713.7,90.7 L713.9,121.7 L714.1,154.2 L714.4,127.0 L714.6,121.2 L714.8,139.2 L715.1,157.3 L715.3,123.1 L715.5,131.8 L715.8,149.3 L716.0,88.4 L716.2,124.0 L716.5,129.7 L716.7,120.2 L716.9,105.2 L717.1,138.1 L717.4,163.7 L717.6,109.9 L717.8,124.6 L718.1,164.7 L718.3,100.7 L718.5,119.7 L718.8,109.5 L719.0,91.8 L719.2,112.4 L719.5,111.1 L719.7,111.6 L719.9,131.2 L720.2,147.8 L720.4,167.1 L720.6,136.7 L720.8,137.2 L721.1,162.7 L721.3,100.2 L721.5,131.0 L721.8,142.2 L722.0,104.9 L722.2,95.5 L722.5,124.0 L722.7,91.8 L722.9,161.2 L723.2,145.0 L723.4,102.2 L723.6,99.3 L723.9,151.5 L724.1,116.0 L724.3,113.7 L724.6,124.5 L724.8,169.8 L725.0,116.5 L725.2,135.8 L725.5,90.4 L725.7,112.3 L725.9,120.7 L726.2,151.8 L726.4,119.3 L726.6,107.4 L726.9,125.5 L727.1,165.3 L727.3,128.8 L727.6,159.9 L727.8,115.9 L728.0,92.1 L728.3,120.0 L728.5,156.0 L728.7,135.1 L728.9,153.1 L729.2,167.0 L729.4,155.0 L729.6,93.2 L729.9,161.8 L730.1,100.2 L730.3,144.3 L730.6,158.2 L730.8,118.2 L731.0,159.9 L731.3,169.9 L731.5,108.5 L731.7,101.8 L732.0,153.5 L732.2,112.1 L732.4,136.5 L732.7,112.9 L732.9,101.1 L733.1,109.6 L733.3,102.9 L733.6,97.1 L733.8,156.6 L734.0,166.8 L734.3,152.6 L734.5,132.9 L734.7,132.9 L735.0,161.6 L735.2,113.8 L735.4,105.1 L735.7,167.7 L735.9,95.6 L736.1,161.6 L736.4,153.4 L736.6,115.8 L736.8,142.6 L737.1,124.4 L737.3,168.6 L737.5,139.6 L737.7,169.2 L738.0,105.0 L738.2,123.3 L738.4,135.8 L738.7,175.6 L738.9,146.3 L739.1,133.3 L739.4,105.7 L739.6,100.0 L739.8,174.6 L740.1,124.7 L740.3,178.2 L740.5,151.2 L740.8,101.7 L741.0,169.5 L741.2,112.8 L741.4,113.2 L741.7,121.5 L741.9,154.9 L742.1,112.2 L742.4,133.9 L742.6,133.0 L742.8,166.1 L743.1,139.5 L743.3,141.3 L743.5,122.2 L743.8,146.3 L744.0,116.6 L744.2,163.4 L744.5,169.9 L744.7,104.8 L744.9,105.7 L745.2,141.9 L745.4,166.3 L745.6,122.5 L745.8,175.3 L746.1,126.9 L746.3,117.8 L746.5,173.0 L746.8,155.1 L747.0,149.6 L747.2,132.5 L747.5,176.9 L747.7,163.7 L747.9,148.4 L748.2,163.8 L748.4,170.7 L748.6,121.1 L748.9,115.5 L749.1,141.6 L749.3,112.6 L749.5,164.0 L749.8,173.3 L750.0,152.3 L750.2,152.1 L750.5,178.0 L750.7,140.5 L750.9,164.4 L751.2,150.2 L751.4,167.8 L751.6,144.8 L751.9,163.7 L752.1,168.5 L752.3,124.8 L752.6,175.7 L752.8,128.0 L753.0,123.4 L753.3,125.1 L753.5,131.9 L753.7,179.9 L753.9,185.3 L754.2,147.5 L754.4,130.8 L754.6,115.3 L754.9,137.3 L755.1,120.7 L755.3,136.8 L755.6,111.9 L755.8,145.9 L756.0,112.4 L756.3,161.8 L756.5,172.7 L756.7,138.5 L757.0,115.6 L757.2,110.7 L757.4,177.9 L757.6,111.6 L757.9,187.2 L758.1,187.0 L758.3,158.3 L758.6,125.2 L758.8,183.5 L759.0,173.8 L759.3,186.4 L759.5,159.1 L759.7,173.3 L760.0,156.5 L760.2,154.3 L760.4,185.5 L760.7,181.1 L760.9,175.2 L761.1,117.1 L761.4,141.3 L761.6,182.6 L761.8,128.9 L762.0,164.5 L762.3,114.7 L762.5,121.6 L762.7,155.8 L763.0,158.8 L763.2,151.6 L763.4,145.8 L763.7,122.3 L763.9,179.1 L764.1,183.9 L764.4,138.8 L764.6,118.5 L764.8,163.9 L765.1,139.6 L765.3,190.5 L765.5,142.6 L765.8,148.3 L766.0,121.6 L766.2,176.3 L766.4,156.7 L766.7,192.8 L766.9,172.0 L767.1,162.0 L767.4,153.4 L767.6,137.5 L767.8,120.8 L768.1,190.8 L768.3,141.9 L768.5,148.5 L768.8,172.5 L769.0,184.7 L769.2,142.8 L769.5,123.1 L769.7,185.3 L769.9,164.2 L770.1,122.9 L770.4,172.5 L770.6,192.0 L770.8,162.4 L771.1,174.4 L771.3,153.1 L771.5,193.1 L771.8,144.8 L772.0,176.1 L772.2,165.3 L772.5,138.3 L772.7,157.2 L772.9,135.2 L773.2,124.7 L773.4,152.7 L773.6,190.6 L773.9,127.2 L774.1,150.4 L774.3,194.5 L774.5,142.4 L774.8,125.4 L775.0,143.5 L775.2,148.2 L775.5,185.3 L775.7,156.4 L775.9,202.2 L776.2,140.9 L776.4,154.4 L776.6,189.8 L776.9,154.6 L777.1,146.1 L777.3,184.5 L777.6,197.6 L777.8,196.9 L778.0,175.9 L778.2,202.8 L778.5,188.5 L778.7,160.7 L778.9,149.7 L779.2,159.9 L779.4,182.9 L779.6,136.4 L779.9,186.0 L780.1,193.2 L780.3,149.4 L780.6,149.6 L780.8,136.9 L781.0,193.3 L781.3,157.0 L781.5,180.6 L781.7,196.1 L782.0,182.6 L782.2,137.1 L782.4,153.2 L782.6,156.5 L782.9,148.6 L783.1,139.0 L783.3,202.5 L783.6,193.6 L783.8,203.3 L784.0,141.6 L784.3,169.0 L784.5,190.9 L784.7,167.1 L785.0,142.0 L785.2,146.9 L785.4,152.9 L785.7,206.1 L785.9,149.3 L786.1,200.7 L786.4,151.0 L786.6,180.9 L786.8,174.5 L787.0,184.8 L787.3,173.6 L787.5,146.8 L787.7,174.5 L788.0,192.7 L788.2,145.3 L788.4,183.6 L788.7,191.2 L788.9,171.1 L789.1,193.9 L789.4,183.4 L789.6,179.1 L789.8,200.1 L790.1,141.7 L790.3,179.6 L790.5,152.3 L790.7,148.8 L791.0,208.8 L791.2,154.3 L791.4,186.2 L791.7,176.4 L791.9,210.0 L792.1,189.5 L792.4,188.8 L792.6,168.7 L792.8,209.2 L793.1,153.3 L793.3,156.6 L793.5,213.6 L793.8,194.5 L794.0,188.1 L794.2,160.2 L794.5,176.4 L794.7,175.5 L794.9,144.8 L795.1,176.9 L795.4,212.3 L795.6,146.1 L795.8,160.7 L796.1,161.3 L796.3,146.6 L796.5,180.3 L796.8,187.6 L797.0,169.1 L797.2,162.1 L797.5,209.4 L797.7,199.3 L797.9,177.0 L798.2,169.5 L798.4,187.4 L798.6,217.7 L798.8,182.8 L799.1,159.2 L799.3,153.9 L799.5,160.0 L799.8,217.0 L800.0,170.8 L800.2,206.5 L800.5,213.9 L800.7,196.3 L800.9,161.5 L801.2,222.2 L801.4,183.6 L801.6,185.4 L801.9,206.9 L802.1,198.6 L802.3,163.6 L802.6,214.6 L802.8,198.8 L803.0,183.6 L803.2,163.1 L803.5,221.0 L803.7,176.4 L803.9,164.0 L804.2,208.8 L804.4,166.2 L804.6,210.2 L804.9,183.1 L805.1,225.9 L805.3,224.7 L805.6,177.6 L805.8,218.7 L806.0,172.8 L806.3,185.8 L806.5,183.8 L806.7,221.1 L806.9,183.1 L807.2,213.1 L807.4,161.3 L807.6,181.9 L807.9,187.8 L808.1,222.7 L808.3,224.9 L808.6,179.9 L808.8,170.9 L809.0,201.2 L809.3,179.5 L809.5,175.2 L809.7,218.5 L810.0,214.5 L810.2,188.8 L810.4,230.0 L810.7,219.4 L810.9,210.1 L811.1,167.0 L811.3,173.6 L811.6,189.0 L811.8,206.1 L812.0,170.7 L812.3,227.4 L812.5,185.6 L812.7,175.5 L813.0,169.0 L813.2,182.4 L813.4,214.6 L813.7,223.2 L813.9,214.4 L814.1,215.5 L814.4,165.6 L814.6,213.7 L814.8,185.7 L815.1,182.2 L815.3,180.5 L815.5,194.7 L815.7,211.9 L816.0,222.7 L816.2,194.9 L816.4,218.4 L816.7,179.0 L816.9,182.8 L817.1,214.5 L817.4,212.5 L817.6,228.8 L817.8,216.5 L818.1,220.0 L818.3,208.0 L818.5,237.4 L818.8,188.1 L819.0,178.1 L819.2,232.3 L819.4,236.2 L819.7,175.0 L819.9,176.2 L820.1,220.1 L820.4,215.6 L820.6,184.2 L820.8,182.3 L821.1,187.0 L821.3,197.3 L821.5,179.3 L821.8,238.0 L822.0,213.6 L822.2,181.6 L822.5,215.5 L822.7,230.8 L822.9,231.0 L823.2,193.8 L823.4,207.7 L823.6,228.2 L823.8,195.2 L824.1,233.8 L824.3,210.4 L824.5,242.9 L824.8,211.1 L825.0,183.6 L825.2,225.2 L825.5,200.9 L825.7,217.2 L825.9,191.2 L826.2,197.7 L826.4,182.5 L826.6,218.4 L826.9,180.4 L827.1,181.1 L827.3,193.2 L827.5,227.6 L827.8,242.0 L828.0,190.2 L828.2,199.1 L828.5,233.6 L828.7,232.7 L828.9,184.5 L829.2,216.0 L829.4,192.9 L829.6,208.9 L829.9,241.0 L830.1,192.0 L830.3,188.2 L830.6,199.5 L830.8,214.1 L831.0,247.7 L831.3,234.9 L831.5,184.2 L831.7,250.2 L831.9,219.9 L832.2,223.0 L832.4,189.6 L832.6,242.5 L832.9,250.9 L833.1,213.4 L833.3,228.6 L833.6,201.8 L833.8,212.4 L834.0,213.0 L834.3,252.8 L834.5,231.7 L834.7,202.0 L835.0,237.3 L835.2,243.4 L835.4,233.1 L835.6,247.1 L835.9,194.0 L836.1,225.0 L836.3,243.5 L836.6,205.7 L836.8,195.0 L837.0,212.4 L837.3,237.1 L837.5,249.3 L837.7,239.1 L838.0,224.6 L838.2,200.6 L838.4,252.4 L838.7,195.3 L838.9,247.8 L839.1,204.3 L839.4,215.5 L839.6,239.1 L839.8,229.0 L840.0,214.5 L840.3,256.0 L840.5,226.1 L840.7,235.3 L841.0,212.5 L841.2,253.1 L841.4,247.1 L841.7,204.6 L841.9,257.1 L842.1,215.9 L842.4,229.6 L842.6,208.0 L842.8,220.0 L843.1,248.1 L843.3,209.1 L843.5,233.7 L843.8,206.7 L844.0,221.4 L844.2,225.9 L844.4,248.8 L844.7,222.3 L844.9,215.6 L845.1,246.8 L845.4,222.2 L845.6,262.1 L845.8,253.2 L846.1,259.9 L846.3,256.4 L846.5,263.7 L846.8,260.9 L847.0,252.7 L847.2,219.5 L847.5,242.8 L847.7,239.9 L847.9,227.3 L848.1,237.9 L848.4,218.6 L848.6,232.2 L848.8,223.9 L849.1,240.9 L849.3,233.2 L849.5,237.2 L849.8,234.6 L850.0,228.6 L850.2,209.3 L850.5,264.5 L850.7,230.9 L850.9,266.1 L851.2,232.7 L851.4,253.4 L851.6,235.3 L851.9,243.0 L852.1,233.4 L852.3,212.7 L852.5,258.8 L852.8,231.4 L853.0,265.7 L853.2,266.6 L853.5,249.7 L853.7,244.5 L853.9,217.8 L854.2,242.1 L854.4,222.6 L854.6,250.7 L854.9,247.4 L855.1,256.6 L855.3,247.3 L855.6,267.5 L855.8,272.2 L856.0,246.2 L856.2,234.5 L856.5,235.8 L856.7,260.3 L856.9,270.8 L857.2,260.6 L857.4,232.9 L857.6,220.2 L857.9,266.6 L858.1,276.2 L858.3,231.9 L858.6,266.8 L858.8,236.0 L859.0,244.7 L859.3,240.8 L859.5,251.9 L859.7,231.1 L860.0,275.0 L860.2,267.2 L860.4,220.2 L860.6,258.2 L860.9,234.8 L861.1,267.9 L861.3,262.7 L861.6,239.5 L861.8,271.2 L862.0,265.6 L862.3,275.4 L862.5,270.9 L862.7,257.8 L863.0,227.0 L863.2,279.0 L863.4,225.5 L863.7,248.1 L863.9,256.3 L864.1,230.0 L864.4,273.5 L864.6,277.4 L864.8,238.7 L865.0,273.4 L865.3,231.5 L865.5,261.8 L865.7,231.0 L866.0,243.7 L866.2,270.3 L866.4,280.4 L866.7,242.2 L866.9,264.2 L867.1,286.2 L867.4,243.3 L867.6,230.8 L867.8,285.3 L868.1,271.2 L868.3,274.3 L868.5,233.6 L868.7,237.6 L869.0,265.8 L869.2,262.6 L869.4,260.9 L869.7,280.0 L869.9,243.0 L870.1,254.7 L870.4,257.5 L870.6,237.8 L870.8,276.6 L871.1,252.1 L871.3,234.0 L871.5,277.7 L871.8,290.6 L872.0,238.8 L872.2,268.4 L872.5,288.0 L872.7,238.6 L872.9,268.7 L873.1,274.9 L873.4,292.2 L873.6,276.4 L873.8,243.3 L874.1,290.6 L874.3,269.8 L874.5,274.0 L874.8,276.4 L875.0,268.2 L875.2,238.5 L875.5,262.7 L875.7,280.6 L875.9,268.0 L876.2,257.5 L876.4,285.6 L876.6,270.0 L876.8,258.6 L877.1,295.3 L877.3,285.6 L877.5,288.3 L877.8,242.9 L878.0,275.1 L878.2,268.4 L878.5,258.8 L878.7,262.8 L878.9,244.1 L879.2,295.9 L879.4,259.2 L879.6,260.6 L879.9,273.5 L880.1,260.4 L880.3,298.7 L880.6,252.8 L880.8,294.5 L881.0,279.9 L881.2,280.2 L881.5,272.1 L881.7,287.2 L881.9,282.4 L882.2,294.2 L882.4,253.4 L882.6,290.3 L882.9,257.4 L883.1,277.9 L883.3,299.8 L883.6,250.0 L883.8,252.2 L884.0,286.4 L884.3,275.2 L884.5,269.2 L884.7,294.4 L884.9,288.0 L885.2,293.0 L885.4,253.2 L885.6,266.1 L885.9,291.4 L886.1,287.7 L886.3,267.3 L886.6,297.2 L886.8,299.7 L887.0,292.8 L887.3,306.9 L887.5,257.8 L887.7,295.5 L888.0,276.0 L888.2,277.1 L888.4,284.1 L888.7,263.1 L888.9,285.0 L889.1,307.8 L889.3,275.7 L889.6,289.2 L889.8,262.8 L890.0,273.7 L890.3,259.5 L890.5,294.5 L890.7,288.9 L891.0,299.0 L891.2,297.7 L891.4,295.8 L891.7,265.8 L891.9,281.8 L892.1,293.7 L892.4,304.3 L892.6,301.9 L892.8,275.7 L893.1,275.1 L893.3,310.6 L893.5,284.3 L893.7,314.1 L894.0,307.2 L894.2,299.4 L894.4,289.7 L894.7,270.0 L894.9,305.9 L895.1,277.1 L895.4,279.5 L895.6,306.7 L895.8,300.5 L896.1,283.6 L896.3,277.3 L896.5,290.2 L896.8,287.2 L897.0,289.8 L897.2,275.5 L897.4,273.3 L897.7,285.0 L897.9,306.1 L898.1,314.3 L898.4,271.0 L898.6,289.0 L898.8,281.4 L899.1,302.0 L899.3,302.8 L899.5,281.8 L899.8,318.4 L900.0,320.5 L900.2,314.9 L900.5,307.3 L900.7,286.9 L900.9,315.1 L901.2,289.7 L901.4,283.9 L901.6,320.9 L901.8,282.0 L902.1,274.9 L902.3,280.7 L902.5,286.8 L902.8,323.5 L903.0,291.5 L903.2,302.1 L903.5,280.3 L903.7,292.1 L903.9,321.0 L904.2,308.5 L904.4,280.0 L904.6,326.5 L904.9,320.1 L905.1,290.1 L905.3,298.3 L905.5,301.2 L905.8,304.5 L906.0,289.7 L906.2,290.3 L906.5,291.6 L906.7,283.9 L906.9,283.9 L907.2,284.3 L907.4,309.7 L907.6,297.3 L907.9,305.6 L908.1,293.3 L908.3,310.2 L908.6,288.1 L908.8,311.1 L909.0,305.7 L909.3,300.7 L909.5,287.1 L909.7,328.2 L909.9,306.1 L910.2,289.9 L910.4,307.3 L910.6,291.9 L910.9,318.6 L911.1,302.4 L911.3,307.4 L911.6,317.1 L911.8,301.8 L912.0,290.7 L912.3,323.7 L912.5,295.1 L912.7,289.7 L913.0,299.3 L913.2,297.0 L913.4,292.5 L913.6,324.5 L913.9,330.3 L914.1,298.9 L914.3,313.3 L914.6,301.6 L914.8,296.4 L915.0,334.6 L915.3,329.0 L915.5,317.1 L915.7,305.8 L916.0,336.0 L916.2,321.3 L916.4,330.1 L916.7,332.9 L916.9,325.0 L917.1,330.5 L917.4,330.4 L917.6,321.8 L917.8,340.1 L918.0,315.2 L918.3,320.3 L918.5,306.1 L918.7,331.0 L919.0,339.3 L919.2,329.3 L919.4,326.1 L919.7,299.6 L919.9,326.3 L920.1,332.8 L920.4,323.7 L920.6,340.6 L920.8,330.0 L921.1,333.6 L921.3,344.0 L921.5,338.5 L921.8,334.3 L922.0,309.7 L922.2,316.3 L922.4,337.2 L922.7,326.9 L922.9,327.4 L923.1,311.7 L923.4,329.9 L923.6,314.8 L923.8,335.4 L924.1,337.4 L924.3,306.2 L924.5,319.7 L924.8,320.3 L925.0,330.6 L925.2,333.5 L925.5,322.9 L925.7,329.9 L925.9,344.5 L926.1,328.8 L926.4,312.8 L926.6,318.4 L926.8,348.4 L927.1,349.2 L927.3,332.6 L927.5,316.6 L927.8,332.3 L928.0,311.9 L928.2,352.2 L928.5,339.0 L928.7,318.3 L928.9,346.1 L929.2,354.8 L929.4,318.8 L929.6,333.9 L929.9,325.5 L930.1,313.9 L930.3,344.1 L930.5,322.6 L930.8,348.7 L931.0,314.9 L931.2,317.6 L931.5,356.0 L931.7,349.9 L931.9,323.9 L932.2,334.3 L932.4,358.1 L932.6,347.8 L932.9,340.3 L933.1,328.1 L933.3,323.7 L933.6,335.3 L933.8,324.5 L934.0,358.9 L934.2,324.4 L934.5,331.3 L934.7,326.6 L934.9,360.4 L935.2,357.4 L935.4,350.3 L935.6,329.6 L935.9,346.2 L936.1,332.5 L936.3,363.0 L936.6,322.5 L936.8,327.1 L937.0,357.3 L937.3,346.3 L937.5,344.4 L937.7,329.9 L938.0,342.3 L938.2,330.2 L938.4,332.4 L938.6,350.8 L938.9,348.5 L939.1,336.3 L939.3,327.7 L939.6,340.1 L939.8,333.6 L940.0,349.2 L940.3,353.4 L940.5,340.6 L940.7,361.2 L941.0,343.0 L941.2,357.2 L941.4,343.4 L941.7,350.5 L941.9,348.3 L942.1,364.7 L942.4,364.9 L942.6,335.2 L942.8,347.7 L943.0,361.1 L943.3,342.4 L943.5,357.3 L943.7,364.3 L944.0,355.1 L944.2,368.0 L944.4,349.3 L944.7,336.2 L944.9,350.3 L945.1,339.1 L945.4,336.6 L945.6,366.8 L945.8,336.9 L946.1,372.6 L946.3,338.3 L946.5,357.7 L946.7,350.0 L947.0,338.2 L947.2,374.6 L947.4,365.3 L947.7,372.9 L947.9,372.5 L948.1,372.4 L948.4,346.0 L948.6,371.8 L948.8,349.2 L949.1,346.9 L949.3,361.9 L949.5,363.3 L949.8,365.5 L950.0,350.2 L950.2,353.4 L950.5,358.8 L950.7,370.6 L950.9,351.2 L951.1,377.0 L951.4,363.4 L951.6,370.4 L951.8,357.3 L952.1,368.0 L952.3,358.2 L952.5,379.6 L952.8,377.2 L953.0,350.1 L953.2,376.6 L953.5,361.8 L953.7,366.3 L953.9,372.6 L954.2,347.7 L954.4,354.9 L954.6,383.0 L954.8,356.4 L955.1,349.4 L955.3,382.1 L955.5,377.4 L955.8,374.2 L956.0,371.8 L956.2,383.2 L956.5,368.3 L956.7,351.6 L956.9,367.2 L957.2,377.8 L957.4,360.4 L957.6,380.2 L957.9,362.4 L958.1,355.8 L958.3,382.1 L958.6,364.5 L958.8,367.0 L959.0,365.2 L959.2,385.7 L959.5,388.1 L959.7,380.4 L959.9,361.1 L960.2,372.8 L960.4,369.9 L960.6,360.1 L960.9,375.2 L961.1,358.1 L961.3,387.8 L961.6,378.3 L961.8,389.1 L962.0,386.7 L962.3,385.0 L962.5,382.9 L962.7,363.0 L962.9,380.6 L963.2,375.2 L963.4,362.7 L963.6,379.4 L963.9,374.3 L964.1,374.7 L964.3,378.3 L964.6,371.0 L964.8,389.9 L965.0,365.3 L965.3,396.2 L965.5,381.9 L965.7,394.7 L966.0,369.4 L966.2,382.5 L966.4,397.1 L966.7,370.5 L966.9,385.5 L967.1,386.1 L967.3,398.9 L967.6,394.6 L967.8,369.5 L968.0,378.8 L968.3,376.2 L968.5,399.9 L968.7,399.6 L969.0,372.5 L969.2,374.2 L969.4,383.3 L969.7,375.3 L969.9,383.2 L970.1,399.8 L970.4,373.2 L970.6,384.8 L970.8,402.8 L971.1,391.2 L971.3,391.8 L971.5,382.5 L971.7,403.5 L972.0,394.0 L972.2,379.7 L972.4,385.4 L972.7,393.4 L972.9,400.9 L973.1,394.6 L973.4,382.1 L973.6,386.2 L973.8,380.0 L974.1,389.8 L974.3,400.5 L974.5,390.6 L974.8,385.1 L975.0,388.8 L975.2,405.8 L975.4,383.0 L975.7,405.2 L975.9,384.1 L976.1,383.0 L976.4,399.7 L976.6,406.6 L976.8,382.5 L977.1,406.2 L977.3,401.7 L977.5,398.4 L977.8,396.7 L978.0,407.4 L978.2,389.0 L978.5,388.3 L978.7,403.4 L978.9,384.5 L979.2,392.3 L979.4,387.0 L979.6,390.4 L979.8,386.9 L980.1,402.3 L980.3,404.7 L980.5,400.6 L980.8,396.7 L981.0,399.6 L981.2,403.2 L981.5,393.1 L981.7,411.3 L981.9,402.1 L982.2,403.0 L982.4,415.5 L982.6,407.3 L982.9,395.1 L983.1,394.8 L983.3,412.6 L983.5,408.0 L983.8,394.1 L984.0,413.6 L984.2,412.8 L984.5,401.9 L984.7,400.3 L984.9,403.5 L985.2,413.9 L985.4,408.9 L985.6,420.8 L985.9,402.4 L986.1,410.7 L986.3,408.9 L986.6,418.6 L986.8,422.1 L987.0,400.2 L987.3,399.7 L987.5,401.1 L987.7,399.0 L987.9,405.7 L988.2,397.8 L988.4,417.1 L988.6,405.1 L988.9,424.5 L989.1,421.3 L989.3,399.5 L989.6,412.7 L989.8,421.6 L990.0,422.8 L990.3,426.0 L990.5,404.9 L990.7,411.1 L991.0,401.6 L991.2,423.3 L991.4,405.5 L991.6,421.4 L991.9,428.0 L992.1,428.2 L992.3,422.3 L992.6,418.4 L992.8,421.2 L993.0,407.4 L993.3,419.8 L993.5,406.1 L993.7,429.3 L994.0,415.2 L994.2,424.8 L994.4,408.3 L994.7,430.1 L994.9,410.0 L995.1,422.2 L995.4,410.1 L995.6,427.4 L995.8,423.1 L996.0,421.9 L996.3,416.6 L996.5,423.2 L996.7,417.3 L997.0,419.6 L997.2,423.3 L997.4,424.5 L997.7,434.6 L997.9,432.5 L998.1,424.7 L998.4,418.6 L998.6,428.7 L998.8,428.3 L999.1,417.0 L999.3,435.2 L999.5,436.8 L999.8,421.1 L1000.0,434.7 L1000.2,415.5 L1000.4,435.6 L1000.7,430.8 L1000.9,434.9 L1001.1,434.5 L1001.4,434.5 L1001.6,417.7 L1001.8,426.0 L1002.1,428.3 L1002.3,432.5 L1002.5,424.0 L1002.8,424.2 L1003.0,426.4 L1003.2,426.9 L1003.5,427.1 L1003.7,441.7 L1003.9,421.1 L1004.1,429.1 L1004.4,440.7 L1004.6,427.7 L1004.8,425.2 L1005.1,433.2 L1005.3,442.8 L1005.5,433.7 L1005.8,440.3 L1006.0,428.1 L1006.2,429.2 L1006.5,430.8 L1006.7,445.4 L1006.9,431.4 L1007.2,430.3 L1007.4,437.2 L1007.6,441.3 L1007.9,427.5 L1008.1,434.2 L1008.3,441.1 L1008.5,447.9 L1008.8,444.9 L1009.0,435.1 L1009.2,440.2 L1009.5,446.1 L1009.7,443.3 L1009.9,437.7 L1010.2,451.6 L1010.4,435.9 L1010.6,442.4 L1010.9,432.0 L1011.1,445.7 L1011.3,449.6 L1011.6,433.7 L1011.8,450.9 L1012.0,450.1 L1012.2,438.9 L1012.5,444.6 L1012.7,445.6 L1012.9,454.4 L1013.2,450.4 L1013.4,442.6 L1013.6,450.8 L1013.9,455.2 L1014.1,446.1 L1014.3,449.9 L1014.6,453.5 L1014.8,438.3 L1015.0,453.6 L1015.3,447.4 L1015.5,451.9 L1015.7,457.7 L1016.0,457.4 L1016.2,450.5 L1016.4,452.2 L1016.6,453.0 L1016.9,445.9 L1017.1,460.1 L1017.3,444.4 L1017.6,460.5 L1017.8,447.7 L1018.0,450.1 L1018.3,460.2 L1018.5,460.7 L1018.7,453.5 L1019.0,446.1 L1019.2,460.6 L1019.4,449.6 L1019.7,462.3 L1019.9,452.2 L1020.1,457.5 L1020.4,454.0 L1020.6,463.8 L1020.8,458.5 L1021.0,454.9 L1021.3,455.2 L1021.5,456.2 L1021.7,453.1 L1022.0,454.5 L1022.2,450.9 L1022.4,461.6 L1022.7,452.0 L1022.9,452.7 L1023.1,465.4 L1023.4,455.6 L1023.6,458.5 L1023.8,452.2 L1024.1,468.6 L1024.3,468.7 L1024.5,469.1 L1024.7,462.7 L1025.0,469.0 L1025.2,462.4 L1025.4,468.7 L1025.7,465.1 L1025.9,469.9 L1026.1,456.4 L1026.4,463.7 L1026.6,461.1 L1026.8,472.3 L1027.1,468.5 L1027.3,466.5 L1027.5,472.6 L1027.8,463.8 L1028.0,464.4 L1028.2,472.4 L1028.5,460.9 L1028.7,462.2 L1028.9,463.5 L1029.1,459.4 L1029.4,460.1 L1029.6,472.3 L1029.8,463.7 L1030.1,464.3 L1030.3,464.7 L1030.5,468.2 L1030.8,464.1 L1031.0,466.5 L1031.2,469.5 L1031.5,477.2 L1031.7,464.8 L1031.9,464.6 L1032.2,476.7 L1032.4,467.8 L1032.6,465.1 L1032.8,477.7 L1033.1,468.9 L1033.3,476.4 L1033.5,469.3 L1033.8,474.9 L1034.0,475.5 L1034.2,468.1 L1034.5,479.0 L1034.7,470.0 L1034.9,472.9 L1035.2,478.4 L1035.4,476.9 L1035.6,473.6 L1035.9,483.5 L1036.1,472.9 L1036.3,473.4 L1036.6,473.4 L1036.8,484.0 L1037.0,473.1 L1037.2,483.7 L1037.5,473.7 L1037.7,475.6 L1037.9,476.2 L1038.2,474.2 L1038.4,485.4 L1038.6,484.8 L1038.9,480.1 L1039.1,481.1 L1039.3,480.1 L1039.6,481.0 L1039.8,488.2 L1040.0,482.6 L1040.3,484.3 L1040.5,476.4 L1040.7,487.3 L1040.9,478.0 L1041.2,480.0 L1041.4,483.0 L1041.6,479.1 L1041.9,479.8 L1042.1,483.3 L1042.3,489.8 L1042.6,487.1 L1042.8,489.6 L1043.0,484.9 L1043.3,487.2 L1043.5,491.8 L1043.7,483.5 L1044.0,482.2 L1044.2,484.7 L1044.4,483.8 L1044.7,490.9 L1044.9,483.9 L1045.1,491.7 L1045.3,493.3 L1045.6,486.6 L1045.8,488.6 L1046.0,491.7 L1046.3,485.5 L1046.5,495.5 L1046.7,491.1 L1047.0,493.1 L1047.2,494.8 L1047.4,497.4 L1047.7,493.5 L1047.9,493.9 L1048.1,489.4 L1048.4,496.7 L1048.6,496.0 L1048.8,492.4 L1049.1,499.5 L1049.3,498.6 L1049.5,494.2 L1049.7,499.6 L1050.0,492.7 L1050.2,495.9 L1050.4,495.4 L1050.7,494.1 L1050.9,494.4 L1051.1,494.1 L1051.4,496.5 L1051.6,502.5 L1051.8,497.7 L1052.1,500.8 L1052.3,503.3 L1052.5,496.0 L1052.8,500.9 L1053.0,502.8 L1053.2,496.9 L1053.4,503.7 L1053.7,500.1 L1053.9,500.3 L1054.1,505.8 L1054.4,499.3 L1054.6,506.1 L1054.8,502.5 L1055.1,502.4 L1055.3,499.7 L1055.5,506.7 L1055.8,500.6 L1056.0,504.9 L1056.2,508.3 L1056.5,507.1 L1056.7,506.6 L1056.9,502.3 L1057.2,507.2 L1057.4,502.8 L1057.6,506.7 L1057.8,507.5 L1058.1,509.7 L1058.3,506.6 L1058.5,510.4 L1058.8,511.2 L1059.0,509.5 L1059.2,512.3 L1059.5,509.1 L1059.7,506.8 L1059.9,507.8 L1060.2,510.8 L1060.4,508.1 L1060.6,513.9 L1060.9,514.8 L1061.1,512.9 L1061.3,514.5 L1061.5,511.2 L1061.8,514.1 L1062.0,515.7 L1062.2,510.8 L1062.5,510.6 L1062.7,514.0 L1062.9,511.7 L1063.2,511.8 L1063.4,517.0 L1063.6,511.7 L1063.9,513.5 L1064.1,517.5 L1064.3,516.1 L1064.6,515.2 L1064.8,515.3 L1065.0,517.6 L1065.3,516.4 L1065.5,516.0 L1065.7,520.0 L1065.9,517.4 L1066.2,517.6 L1066.4,519.4 L1066.6,519.1 L1066.9,517.4 L1067.1,520.0 L1067.3,518.2 L1067.6,520.1 L1067.8,522.2 L1068.0,518.6 L1068.3,522.6 L1068.5,522.5 L1068.7,522.7 L1069.0,523.1 L1069.2,522.1 L1069.4,523.7 L1069.6,521.9 L1069.9,525.2 L1070.1,522.6 L1070.3,522.7 L1070.6,522.3 L1070.8,523.2 L1071.0,527.5 L1071.3,525.0 L1071.5,526.8 L1071.7,528.4 L1072.0,526.9 L1072.2,528.6 L1072.4,528.6 L1072.7,528.1 L1072.9,526.6 L1073.1,527.4 L1073.4,529.5 L1073.6,528.0 L1073.8,530.3 L1074.0,528.4 L1074.3,530.7 L1074.5,528.9 L1074.7,530.1 L1075.0,532.0 L1075.2,531.0 L1075.4,531.2 L1075.7,532.2 L1075.9,530.7 L1076.1,533.7 L1076.4,531.9 L1076.6,534.1 L1076.8,534.3 L1077.1,533.8 L1077.3,533.7 L1077.5,535.0 L1077.8,535.3 L1078.0,534.9 L1078.2,534.8 L1078.4,536.5 L1078.7,536.2 L1078.9,536.0 L1079.1,536.2 L1079.4,537.7 L1079.6,537.9 L1079.8,538.1 L1080.1,539.0 L1080.3,538.7 L1080.5,539.4 L1080.8,538.9 L1081.0,538.5 L1081.2,538.8 L1081.5,539.6 L1081.7,540.9 L1081.9,540.8 L1082.1,540.5 L1082.4,541.0 L1082.6,541.7 L1082.8,541.6 L1083.1,541.8 L1083.3,542.4 L1083.5,542.4 L1083.8,543.3 L1084.0,543.2" fill="none" stroke="#1f77b4" stroke-width="1.4" opacity="0.85"/><text x="1040" y="54" fill="#ff7f0e" font-size="11">roll 0</text><text x="1090" y="558" fill="#ff7f0e" font-size="11">-0</text><path d="M616.0,388.0 L616.2,232.0 L616.5,388.0 L616.7,388.0 L616.9,388.0 L617.2,544.0 L617.4,544.0 L617.6,232.0 L617.9,388.0 L618.1,388.0 L618.3,544.0 L618.5,388.0 L618.8,232.0 L619.0,388.0 L619.2,388.0 L619.5,232.0 L619.7,232.0 L619.9,388.0 L620.2,388.0 L620.4,388.0 L620.6,544.0 L620.9,388.0 L621.1,232.0 L621.3,232.0 L621.6,388.0 L621.8,388.0 L622.0,388.0 L622.2,388.0 L622.5,388.0 L622.7,388.0 L622.9,388.0 L623.2,544.0 L623.4,388.0 L623.6,232.0 L623.9,388.0 L624.1,544.0 L624.3,388.0 L624.6,232.0 L624.8,544.0 L625.0,388.0 L625.3,388.0 L625.5,544.0 L625.7,544.0 L626.0,232.0 L626.2,544.0 L626.4,388.0 L626.6,232.0 L626.9,388.0 L627.1,544.0 L627.3,232.0 L627.6,388.0 L627.8,388.0 L628.0,232.0 L628.3,544.0 L628.5,544.0 L628.7,388.0 L629.0,544.0 L629.2,544.0 L629.4,544.0 L629.7,232.0 L629.9,388.0 L630.1,388.0 L630.4,388.0 L630.6,388.0 L630.8,544.0 L631.0,544.0 L631.3,544.0 L631.5,232.0 L631.7,388.0 L632.0,544.0 L632.2,544.0 L632.4,232.0 L632.7,388.0 L632.9,544.0 L633.1,232.0 L633.4,388.0 L633.6,388.0 L633.8,232.0 L634.1,232.0 L634.3,232.0 L634.5,388.0 L634.7,544.0 L635.0,388.0 L635.2,544.0 L635.4,544.0 L635.7,388.0 L635.9,544.0 L636.1,388.0 L636.4,232.0 L636.6,544.0 L636.8,232.0 L637.1,388.0 L637.3,388.0 L637.5,544.0 L637.8,388.0 L638.0,388.0 L638.2,388.0 L638.5,388.0 L638.7,388.0 L638.9,544.0 L639.1,232.0 L639.4,544.0 L639.6,388.0 L639.8,232.0 L640.1,232.0 L640.3,232.0 L640.5,388.0 L640.8,388.0 L641.0,388.0 L641.2,388.0 L641.5,388.0 L641.7,544.0 L641.9,232.0 L642.2,388.0 L642.4,232.0 L642.6,544.0 L642.8,388.0 L643.1,388.0 L643.3,388.0 L643.5,388.0 L643.8,232.0 L644.0,232.0 L644.2,544.0 L644.5,544.0 L644.7,232.0 L644.9,388.0 L645.2,388.0 L645.4,544.0 L645.6,544.0 L645.9,232.0 L646.1,232.0 L646.3,388.0 L646.6,232.0 L646.8,388.0 L647.0,388.0 L647.2,388.0 L647.5,388.0 L647.7,544.0 L647.9,388.0 L648.2,388.0 L648.4,544.0 L648.6,232.0 L648.9,544.0 L649.1,388.0 L649.3,232.0 L649.6,388.0 L649.8,388.0 L650.0,388.0 L650.3,388.0 L650.5,232.0 L650.7,388.0 L650.9,544.0 L651.2,388.0 L651.4,388.0 L651.6,388.0 L651.9,388.0 L652.1,388.0 L652.3,388.0 L652.6,232.0 L652.8,232.0 L653.0,388.0 L653.3,544.0 L653.5,232.0 L653.7,388.0 L654.0,388.0 L654.2,232.0 L654.4,544.0 L654.7,388.0 L654.9,232.0 L655.1,544.0 L655.3,388.0 L655.6,544.0 L655.8,544.0 L656.0,232.0 L656.3,388.0 L656.5,232.0 L656.7,232.0 L657.0,388.0 L657.2,232.0 L657.4,388.0 L657.7,388.0 L657.9,544.0 L658.1,544.0 L658.4,232.0 L658.6,388.0 L658.8,544.0 L659.1,544.0 L659.3,544.0 L659.5,544.0 L659.7,232.0 L660.0,232.0 L660.2,232.0 L660.4,388.0 L660.7,544.0 L660.9,544.0 L661.1,388.0 L661.4,544.0 L661.6,232.0 L661.8,388.0 L662.1,388.0 L662.3,544.0 L662.5,388.0 L662.8,388.0 L663.0,544.0 L663.2,544.0 L663.4,388.0 L663.7,544.0 L663.9,544.0 L664.1,388.0 L664.4,388.0 L664.6,232.0 L664.8,388.0 L665.1,544.0 L665.3,232.0 L665.5,388.0 L665.8,544.0 L666.0,232.0 L666.2,232.0 L666.5,544.0 L666.7,232.0 L666.9,388.0 L667.2,388.0 L667.4,232.0 L667.6,232.0 L667.8,388.0 L668.1,388.0 L668.3,232.0 L668.5,544.0 L668.8,388.0 L669.0,388.0 L669.2,388.0 L669.5,388.0 L669.7,544.0 L669.9,544.0 L670.2,232.0 L670.4,544.0 L670.6,388.0 L670.9,544.0 L671.1,388.0 L671.3,232.0 L671.5,388.0 L671.8,544.0 L672.0,544.0 L672.2,232.0 L672.5,388.0 L672.7,388.0 L672.9,388.0 L673.2,544.0 L673.4,544.0 L673.6,388.0 L673.9,388.0 L674.1,232.0 L674.3,232.0 L674.6,232.0 L674.8,544.0 L675.0,544.0 L675.3,232.0 L675.5,388.0 L675.7,544.0 L675.9,232.0 L676.2,544.0 L676.4,544.0 L676.6,232.0 L676.9,544.0 L677.1,388.0 L677.3,388.0 L677.6,388.0 L677.8,544.0 L678.0,544.0 L678.3,388.0 L678.5,388.0 L678.7,388.0 L679.0,544.0 L679.2,544.0 L679.4,232.0 L679.6,232.0 L679.9,388.0 L680.1,388.0 L680.3,388.0 L680.6,544.0 L680.8,232.0 L681.0,388.0 L681.3,388.0 L681.5,232.0 L681.7,232.0 L682.0,388.0 L682.2,388.0 L682.4,388.0 L682.7,544.0 L682.9,544.0 L683.1,388.0 L683.4,388.0 L683.6,544.0 L683.8,388.0 L684.0,232.0 L684.3,388.0 L684.5,388.0 L684.7,388.0 L685.0,388.0 L685.2,232.0 L685.4,388.0 L685.7,388.0 L685.9,388.0 L686.1,388.0 L686.4,232.0 L686.6,544.0 L686.8,388.0 L687.1,544.0 L687.3,232.0 L687.5,232.0 L687.8,388.0 L688.0,388.0 L688.2,388.0 L688.4,388.0 L688.7,388.0 L688.9,388.0 L689.1,544.0 L689.4,388.0 L689.6,232.0 L689.8,544.0 L690.1,232.0 L690.3,544.0 L690.5,544.0 L690.8,232.0 L691.0,388.0 L691.2,388.0 L691.5,544.0 L691.7,544.0 L691.9,232.0 L692.1,232.0 L692.4,388.0 L692.6,232.0 L692.8,388.0 L693.1,388.0 L693.3,544.0 L693.5,232.0 L693.8,388.0 L694.0,388.0 L694.2,388.0 L694.5,388.0 L694.7,544.0 L694.9,544.0 L695.2,388.0 L695.4,388.0 L695.6,388.0 L695.9,388.0 L696.1,388.0 L696.3,388.0 L696.5,544.0 L696.8,232.0 L697.0,388.0 L697.2,388.0 L697.5,544.0 L697.7,388.0 L697.9,544.0 L698.2,544.0 L698.4,388.0 L698.6,544.0 L698.9,388.0 L699.1,544.0 L699.3,232.0 L699.6,388.0 L699.8,232.0 L700.0,388.0 L700.2,388.0 L700.5,388.0 L700.7,232.0 L700.9,544.0 L701.2,388.0 L701.4,388.0 L701.6,232.0 L701.9,388.0 L702.1,388.0 L702.3,544.0 L702.6,544.0 L702.8,544.0 L703.0,232.0 L703.3,388.0 L703.5,544.0 L703.7,388.0 L704.0,388.0 L704.2,232.0 L704.4,388.0 L704.6,544.0 L704.9,232.0 L705.1,544.0 L705.3,232.0 L705.6,544.0 L705.8,388.0 L706.0,388.0 L706.3,388.0 L706.5,232.0 L706.7,388.0 L707.0,388.0 L707.2,388.0 L707.4,544.0 L707.7,388.0 L707.9,388.0 L708.1,232.0 L708.4,232.0 L708.6,388.0 L708.8,232.0 L709.0,388.0 L709.3,388.0 L709.5,544.0 L709.7,232.0 L710.0,544.0 L710.2,388.0 L710.4,388.0 L710.7,388.0 L710.9,544.0 L711.1,388.0 L711.4,388.0 L711.6,388.0 L711.8,388.0 L712.1,388.0 L712.3,232.0 L712.5,388.0 L712.7,388.0 L713.0,544.0 L713.2,232.0 L713.4,544.0 L713.7,388.0 L713.9,388.0 L714.1,232.0 L714.4,388.0 L714.6,388.0 L714.8,544.0 L715.1,388.0 L715.3,544.0 L715.5,544.0 L715.8,388.0 L716.0,388.0 L716.2,388.0 L716.5,544.0 L716.7,388.0 L716.9,388.0 L717.1,388.0 L717.4,388.0 L717.6,388.0 L717.8,388.0 L718.1,388.0 L718.3,232.0 L718.5,388.0 L718.8,388.0 L719.0,388.0 L719.2,388.0 L719.5,388.0 L719.7,232.0 L719.9,544.0 L720.2,388.0 L720.4,388.0 L720.6,544.0 L720.8,232.0 L721.1,388.0 L721.3,388.0 L721.5,388.0 L721.8,388.0 L722.0,544.0 L722.2,232.0 L722.5,544.0 L722.7,232.0 L722.9,232.0 L723.2,544.0 L723.4,232.0 L723.6,388.0 L723.9,232.0 L724.1,388.0 L724.3,232.0 L724.6,388.0 L724.8,232.0 L725.0,388.0 L725.2,544.0 L725.5,232.0 L725.7,544.0 L725.9,388.0 L726.2,232.0 L726.4,388.0 L726.6,388.0 L726.9,232.0 L727.1,232.0 L727.3,232.0 L727.6,544.0 L727.8,388.0 L728.0,232.0 L728.3,388.0 L728.5,388.0 L728.7,232.0 L728.9,388.0 L729.2,232.0 L729.4,388.0 L729.6,388.0 L729.9,388.0 L730.1,388.0 L730.3,388.0 L730.6,232.0 L730.8,544.0 L731.0,388.0 L731.3,388.0 L731.5,388.0 L731.7,232.0 L732.0,544.0 L732.2,388.0 L732.4,388.0 L732.7,388.0 L732.9,544.0 L733.1,232.0 L733.3,544.0 L733.6,232.0 L733.8,388.0 L734.0,388.0 L734.3,388.0 L734.5,544.0 L734.7,388.0 L735.0,388.0 L735.2,388.0 L735.4,388.0 L735.7,388.0 L735.9,388.0 L736.1,544.0 L736.4,388.0 L736.6,388.0 L736.8,388.0 L737.1,388.0 L737.3,388.0 L737.5,388.0 L737.7,388.0 L738.0,544.0 L738.2,544.0 L738.4,388.0 L738.7,544.0 L738.9,388.0 L739.1,388.0 L739.4,388.0 L739.6,232.0 L739.8,388.0 L740.1,544.0 L740.3,232.0 L740.5,388.0 L740.8,544.0 L741.0,232.0 L741.2,544.0 L741.4,544.0 L741.7,388.0 L741.9,388.0 L742.1,388.0 L742.4,544.0 L742.6,388.0 L742.8,388.0 L743.1,388.0 L743.3,388.0 L743.5,544.0 L743.8,388.0 L744.0,544.0 L744.2,388.0 L744.5,544.0 L744.7,388.0 L744.9,544.0 L745.2,232.0 L745.4,388.0 L745.6,388.0 L745.8,388.0 L746.1,544.0 L746.3,544.0 L746.5,388.0 L746.8,388.0 L747.0,388.0 L747.2,388.0 L747.5,544.0 L747.7,544.0 L747.9,388.0 L748.2,544.0 L748.4,232.0 L748.6,544.0 L748.9,388.0 L749.1,388.0 L749.3,544.0 L749.5,388.0 L749.8,544.0 L750.0,544.0 L750.2,388.0 L750.5,388.0 L750.7,544.0 L750.9,544.0 L751.2,232.0 L751.4,388.0 L751.6,544.0 L751.9,388.0 L752.1,388.0 L752.3,388.0 L752.6,232.0 L752.8,388.0 L753.0,388.0 L753.3,544.0 L753.5,388.0 L753.7,544.0 L753.9,232.0 L754.2,388.0 L754.4,388.0 L754.6,388.0 L754.9,388.0 L755.1,388.0 L755.3,388.0 L755.6,388.0 L755.8,232.0 L756.0,232.0 L756.3,388.0 L756.5,388.0 L756.7,544.0 L757.0,388.0 L757.2,388.0 L757.4,544.0 L757.6,232.0 L757.9,232.0 L758.1,544.0 L758.3,388.0 L758.6,232.0 L758.8,232.0 L759.0,544.0 L759.3,388.0 L759.5,544.0 L759.7,544.0 L760.0,232.0 L760.2,544.0 L760.4,388.0 L760.7,544.0 L760.9,232.0 L761.1,388.0 L761.4,544.0 L761.6,388.0 L761.8,232.0 L762.0,388.0 L762.3,232.0 L762.5,544.0 L762.7,544.0 L763.0,388.0 L763.2,544.0 L763.4,232.0 L763.7,388.0 L763.9,388.0 L764.1,388.0 L764.4,544.0 L764.6,388.0 L764.8,232.0 L765.1,232.0 L765.3,232.0 L765.5,388.0 L765.8,232.0 L766.0,544.0 L766.2,232.0 L766.4,544.0 L766.7,388.0 L766.9,232.0 L767.1,232.0 L767.4,232.0 L767.6,232.0 L767.8,544.0 L768.1,232.0 L768.3,544.0 L768.5,388.0 L768.8,232.0 L769.0,232.0 L769.2,388.0 L769.5,388.0 L769.7,232.0 L769.9,388.0 L770.1,388.0 L770.4,232.0 L770.6,388.0 L770.8,544.0 L771.1,232.0 L771.3,232.0 L771.5,544.0 L771.8,232.0 L772.0,388.0 L772.2,232.0 L772.5,544.0 L772.7,232.0 L772.9,544.0 L773.2,232.0 L773.4,544.0 L773.6,388.0 L773.9,232.0 L774.1,388.0 L774.3,388.0 L774.5,232.0 L774.8,388.0 L775.0,544.0 L775.2,388.0 L775.5,388.0 L775.7,388.0 L775.9,388.0 L776.2,388.0 L776.4,544.0 L776.6,232.0 L776.9,544.0 L777.1,232.0 L777.3,388.0 L777.6,544.0 L777.8,388.0 L778.0,232.0 L778.2,388.0 L778.5,388.0 L778.7,388.0 L778.9,544.0 L779.2,388.0 L779.4,388.0 L779.6,544.0 L779.9,388.0 L780.1,388.0 L780.3,544.0 L780.6,388.0 L780.8,232.0 L781.0,388.0 L781.3,232.0 L781.5,544.0 L781.7,388.0 L782.0,388.0 L782.2,388.0 L782.4,232.0 L782.6,232.0 L782.9,232.0 L783.1,544.0 L783.3,232.0 L783.6,544.0 L783.8,388.0 L784.0,232.0 L784.3,388.0 L784.5,232.0 L784.7,544.0 L785.0,232.0 L785.2,544.0 L785.4,388.0 L785.7,232.0 L785.9,544.0 L786.1,232.0 L786.4,388.0 L786.6,232.0 L786.8,544.0 L787.0,388.0 L787.3,544.0 L787.5,544.0 L787.7,388.0 L788.0,232.0 L788.2,544.0 L788.4,544.0 L788.7,544.0 L788.9,544.0 L789.1,544.0 L789.4,388.0 L789.6,544.0 L789.8,232.0 L790.1,232.0 L790.3,544.0 L790.5,388.0 L790.7,388.0 L791.0,232.0 L791.2,388.0 L791.4,388.0 L791.7,388.0 L791.9,232.0 L792.1,388.0 L792.4,388.0 L792.6,232.0 L792.8,232.0 L793.1,232.0 L793.3,232.0 L793.5,388.0 L793.8,232.0 L794.0,544.0 L794.2,232.0 L794.5,544.0 L794.7,232.0 L794.9,544.0 L795.1,388.0 L795.4,232.0 L795.6,388.0 L795.8,544.0 L796.1,232.0 L796.3,388.0 L796.5,544.0 L796.8,232.0 L797.0,544.0 L797.2,232.0 L797.5,388.0 L797.7,388.0 L797.9,388.0 L798.2,388.0 L798.4,388.0 L798.6,232.0 L798.8,388.0 L799.1,544.0 L799.3,544.0 L799.5,388.0 L799.8,232.0 L800.0,388.0 L800.2,232.0 L800.5,388.0 L800.7,232.0 L800.9,388.0 L801.2,232.0 L801.4,544.0 L801.6,388.0 L801.9,388.0 L802.1,232.0 L802.3,388.0 L802.6,388.0 L802.8,232.0 L803.0,544.0 L803.2,388.0 L803.5,544.0 L803.7,388.0 L803.9,544.0 L804.2,232.0 L804.4,388.0 L804.6,232.0 L804.9,388.0 L805.1,388.0 L805.3,388.0 L805.6,232.0 L805.8,388.0 L806.0,232.0 L806.3,232.0 L806.5,388.0 L806.7,388.0 L806.9,232.0 L807.2,388.0 L807.4,388.0 L807.6,388.0 L807.9,232.0 L808.1,544.0 L808.3,388.0 L808.6,544.0 L808.8,388.0 L809.0,388.0 L809.3,544.0 L809.5,232.0 L809.7,544.0 L810.0,232.0 L810.2,388.0 L810.4,388.0 L810.7,232.0 L810.9,388.0 L811.1,232.0 L811.3,388.0 L811.6,232.0 L811.8,388.0 L812.0,544.0 L812.3,232.0 L812.5,544.0 L812.7,232.0 L813.0,544.0 L813.2,388.0 L813.4,544.0 L813.7,388.0 L813.9,388.0 L814.1,388.0 L814.4,232.0 L814.6,388.0 L814.8,544.0 L815.1,388.0 L815.3,544.0 L815.5,388.0 L815.7,232.0 L816.0,388.0 L816.2,388.0 L816.4,388.0 L816.7,388.0 L816.9,232.0 L817.1,388.0 L817.4,232.0 L817.6,388.0 L817.8,388.0 L818.1,388.0 L818.3,388.0 L818.5,388.0 L818.8,388.0 L819.0,388.0 L819.2,232.0 L819.4,388.0 L819.7,232.0 L819.9,544.0 L820.1,388.0 L820.4,388.0 L820.6,232.0 L820.8,388.0 L821.1,388.0 L821.3,232.0 L821.5,388.0 L821.8,544.0 L822.0,388.0 L822.2,232.0 L822.5,232.0 L822.7,388.0 L822.9,544.0 L823.2,232.0 L823.4,232.0 L823.6,388.0 L823.8,544.0 L824.1,388.0 L824.3,232.0 L824.5,388.0 L824.8,232.0 L825.0,388.0 L825.2,232.0 L825.5,232.0 L825.7,544.0 L825.9,388.0 L826.2,388.0 L826.4,544.0 L826.6,388.0 L826.9,232.0 L827.1,388.0 L827.3,388.0 L827.5,232.0 L827.8,388.0 L828.0,232.0 L828.2,544.0 L828.5,232.0 L828.7,544.0 L828.9,544.0 L829.2,388.0 L829.4,388.0 L829.6,232.0 L829.9,388.0 L830.1,232.0 L830.3,388.0 L830.6,544.0 L830.8,544.0 L831.0,388.0 L831.3,388.0 L831.5,544.0 L831.7,232.0 L831.9,388.0 L832.2,544.0 L832.4,232.0 L832.6,388.0 L832.9,232.0 L833.1,544.0 L833.3,388.0 L833.6,388.0 L833.8,388.0 L834.0,388.0 L834.3,232.0 L834.5,388.0 L834.7,388.0 L835.0,232.0 L835.2,544.0 L835.4,232.0 L835.6,544.0 L835.9,232.0 L836.1,388.0 L836.3,388.0 L836.6,388.0 L836.8,388.0 L837.0,544.0 L837.3,388.0 L837.5,544.0 L837.7,232.0 L838.0,388.0 L838.2,388.0 L838.4,388.0 L838.7,544.0 L838.9,232.0 L839.1,544.0 L839.4,388.0 L839.6,388.0 L839.8,388.0 L840.0,388.0 L840.3,388.0 L840.5,544.0 L840.7,388.0 L841.0,388.0 L841.2,388.0 L841.4,544.0 L841.7,232.0 L841.9,388.0 L842.1,388.0 L842.4,544.0 L842.6,232.0 L842.8,544.0 L843.1,388.0 L843.3,544.0 L843.5,232.0 L843.8,544.0 L844.0,232.0 L844.2,232.0 L844.4,544.0 L844.7,388.0 L844.9,388.0 L845.1,388.0 L845.4,388.0 L845.6,544.0 L845.8,388.0 L846.1,232.0 L846.3,388.0 L846.5,388.0 L846.8,544.0 L847.0,388.0 L847.2,232.0 L847.5,388.0 L847.7,232.0 L847.9,544.0 L848.1,388.0 L848.4,544.0 L848.6,388.0 L848.8,544.0 L849.1,388.0 L849.3,544.0 L849.5,232.0 L849.8,544.0 L850.0,388.0 L850.2,544.0 L850.5,232.0 L850.7,388.0 L850.9,544.0 L851.2,388.0 L851.4,388.0 L851.6,388.0 L851.9,388.0 L852.1,232.0 L852.3,232.0 L852.5,544.0 L852.8,388.0 L853.0,544.0 L853.2,388.0 L853.5,544.0 L853.7,232.0 L853.9,388.0 L854.2,388.0 L854.4,388.0 L854.6,388.0 L854.9,544.0 L855.1,388.0 L855.3,232.0 L855.6,388.0 L855.8,232.0 L856.0,388.0 L856.2,232.0 L856.5,388.0 L856.7,388.0 L856.9,388.0 L857.2,388.0 L857.4,232.0 L857.6,232.0 L857.9,544.0 L858.1,232.0 L858.3,232.0 L858.6,388.0 L858.8,388.0 L859.0,388.0 L859.3,388.0 L859.5,388.0 L859.7,232.0 L860.0,232.0 L860.2,544.0 L860.4,388.0 L860.6,232.0 L860.9,232.0 L861.1,544.0 L861.3,544.0 L861.6,232.0 L861.8,232.0 L862.0,388.0 L862.3,232.0 L862.5,232.0 L862.7,388.0 L863.0,232.0 L863.2,544.0 L863.4,388.0 L863.7,388.0 L863.9,232.0 L864.1,388.0 L864.4,544.0 L864.6,544.0 L864.8,388.0 L865.0,544.0 L865.3,232.0 L865.5,544.0 L865.7,388.0 L866.0,388.0 L866.2,232.0 L866.4,544.0 L866.7,232.0 L866.9,388.0 L867.1,388.0 L867.4,544.0 L867.6,232.0 L867.8,388.0 L868.1,388.0 L868.3,544.0 L868.5,232.0 L868.7,388.0 L869.0,388.0 L869.2,388.0 L869.4,388.0 L869.7,544.0 L869.9,388.0 L870.1,388.0 L870.4,544.0 L870.6,544.0 L870.8,544.0 L871.1,232.0 L871.3,544.0 L871.5,388.0 L871.8,388.0 L872.0,232.0 L872.2,232.0 L872.5,388.0 L872.7,388.0 L872.9,388.0 L873.1,544.0 L873.4,388.0 L873.6,388.0 L873.8,232.0 L874.1,544.0 L874.3,544.0 L874.5,232.0 L874.8,388.0 L875.0,232.0 L875.2,388.0 L875.5,544.0 L875.7,232.0 L875.9,388.0 L876.2,544.0 L876.4,232.0 L876.6,388.0 L876.8,544.0 L877.1,544.0 L877.3,388.0 L877.5,544.0 L877.8,232.0 L878.0,232.0 L878.2,388.0 L878.5,544.0 L878.7,544.0 L878.9,388.0 L879.2,388.0 L879.4,232.0 L879.6,388.0 L879.9,232.0 L880.1,544.0 L880.3,232.0 L880.6,388.0 L880.8,388.0 L881.0,388.0 L881.2,232.0 L881.5,388.0 L881.7,388.0 L881.9,232.0 L882.2,544.0 L882.4,232.0 L882.6,388.0 L882.9,388.0 L883.1,232.0 L883.3,388.0 L883.6,232.0 L883.8,388.0 L884.0,232.0 L884.3,388.0 L884.5,232.0 L884.7,388.0 L884.9,388.0 L885.2,388.0 L885.4,232.0 L885.6,544.0 L885.9,544.0 L886.1,544.0 L886.3,388.0 L886.6,388.0 L886.8,544.0 L887.0,388.0 L887.3,232.0 L887.5,388.0 L887.7,544.0 L888.0,388.0 L888.2,232.0 L888.4,388.0 L888.7,544.0 L888.9,232.0 L889.1,544.0 L889.3,388.0 L889.6,232.0 L889.8,544.0 L890.0,544.0 L890.3,544.0 L890.5,232.0 L890.7,388.0 L891.0,388.0 L891.2,388.0 L891.4,388.0 L891.7,544.0 L891.9,388.0 L892.1,388.0 L892.4,388.0 L892.6,544.0 L892.8,388.0 L893.1,544.0 L893.3,388.0 L893.5,388.0 L893.7,544.0 L894.0,388.0 L894.2,544.0 L894.4,544.0 L894.7,544.0 L894.9,388.0 L895.1,388.0 L895.4,388.0 L895.6,388.0 L895.8,544.0 L896.1,388.0 L896.3,388.0 L896.5,232.0 L896.8,544.0 L897.0,232.0 L897.2,544.0 L897.4,232.0 L897.7,544.0 L897.9,232.0 L898.1,544.0 L898.4,232.0 L898.6,388.0 L898.8,544.0 L899.1,544.0 L899.3,388.0 L899.5,388.0 L899.8,544.0 L900.0,388.0 L900.2,388.0 L900.5,388.0 L900.7,388.0 L900.9,388.0 L901.2,232.0 L901.4,232.0 L901.6,544.0 L901.8,388.0 L902.1,232.0 L902.3,544.0 L902.5,388.0 L902.8,388.0 L903.0,544.0 L903.2,388.0 L903.5,544.0 L903.7,388.0 L903.9,232.0 L904.2,544.0 L904.4,232.0 L904.6,232.0 L904.9,388.0 L905.1,232.0 L905.3,232.0 L905.5,388.0 L905.8,388.0 L906.0,544.0 L906.2,544.0 L906.5,232.0 L906.7,232.0 L906.9,232.0 L907.2,232.0 L907.4,544.0 L907.6,232.0 L907.9,388.0 L908.1,388.0 L908.3,232.0 L908.6,232.0 L908.8,388.0 L909.0,388.0 L909.3,544.0 L909.5,544.0 L909.7,388.0 L909.9,544.0 L910.2,388.0 L910.4,388.0 L910.6,388.0 L910.9,388.0 L911.1,388.0 L911.3,388.0 L911.6,388.0 L911.8,544.0 L912.0,388.0 L912.3,232.0 L912.5,388.0 L912.7,388.0 L913.0,388.0 L913.2,232.0 L913.4,388.0 L913.6,544.0 L913.9,232.0 L914.1,544.0 L914.3,388.0 L914.6,388.0 L914.8,544.0 L915.0,544.0 L915.3,388.0 L915.5,544.0 L915.7,232.0 L916.0,388.0 L916.2,544.0 L916.4,544.0 L916.7,544.0 L916.9,232.0 L917.1,388.0 L917.4,232.0 L917.6,388.0 L917.8,544.0 L918.0,232.0 L918.3,388.0 L918.5,388.0 L918.7,388.0 L919.0,232.0 L919.2,388.0 L919.4,544.0 L919.7,388.0 L919.9,232.0 L920.1,544.0 L920.4,388.0 L920.6,388.0 L920.8,388.0 L921.1,544.0 L921.3,388.0 L921.5,544.0 L921.8,388.0 L922.0,388.0 L922.2,388.0 L922.4,388.0 L922.7,388.0 L922.9,388.0 L923.1,388.0 L923.4,232.0 L923.6,388.0 L923.8,232.0 L924.1,232.0 L924.3,232.0 L924.5,544.0 L924.8,388.0 L925.0,544.0 L925.2,232.0 L925.5,388.0 L925.7,232.0 L925.9,388.0 L926.1,388.0 L926.4,232.0 L926.6,232.0 L926.8,232.0 L927.1,544.0 L927.3,76.0 L927.5,388.0 L927.8,388.0 L928.0,388.0 L928.2,544.0 L928.5,388.0 L928.7,232.0 L928.9,232.0 L929.2,232.0 L929.4,544.0 L929.6,232.0 L929.9,388.0 L930.1,388.0 L930.3,388.0 L930.5,388.0 L930.8,388.0 L931.0,232.0 L931.2,232.0 L931.5,388.0 L931.7,388.0 L931.9,232.0 L932.2,232.0 L932.4,544.0 L932.6,388.0 L932.9,544.0 L933.1,232.0 L933.3,544.0 L933.6,388.0 L933.8,388.0 L934.0,544.0 L934.2,232.0 L934.5,544.0 L934.7,232.0 L934.9,388.0 L935.2,388.0 L935.4,388.0 L935.6,544.0 L935.9,388.0 L936.1,388.0 L936.3,232.0 L936.6,544.0 L936.8,544.0 L937.0,388.0 L937.3,544.0 L937.5,232.0 L937.7,388.0 L938.0,544.0 L938.2,388.0 L938.4,388.0 L938.6,388.0 L938.9,388.0 L939.1,388.0 L939.3,544.0 L939.6,232.0 L939.8,232.0 L940.0,232.0 L940.3,232.0 L940.5,544.0 L940.7,388.0 L941.0,232.0 L941.2,388.0 L941.4,388.0 L941.7,388.0 L941.9,388.0 L942.1,388.0 L942.4,232.0 L942.6,388.0 L942.8,388.0 L943.0,388.0 L943.3,388.0 L943.5,232.0 L943.7,388.0 L944.0,544.0 L944.2,388.0 L944.4,388.0 L944.7,544.0 L944.9,232.0 L945.1,388.0 L945.4,232.0 L945.6,544.0 L945.8,232.0 L946.1,388.0 L946.3,388.0 L946.5,544.0 L946.7,232.0 L947.0,544.0 L947.2,388.0 L947.4,388.0 L947.7,232.0 L947.9,388.0 L948.1,388.0 L948.4,232.0 L948.6,388.0 L948.8,544.0 L949.1,388.0 L949.3,388.0 L949.5,544.0 L949.8,388.0 L950.0,232.0 L950.2,544.0 L950.5,388.0 L950.7,544.0 L950.9,232.0 L951.1,232.0 L951.4,232.0 L951.6,388.0 L951.8,388.0 L952.1,544.0 L952.3,388.0 L952.5,232.0 L952.8,388.0 L953.0,388.0 L953.2,388.0 L953.5,388.0 L953.7,544.0 L953.9,232.0 L954.2,544.0 L954.4,232.0 L954.6,544.0 L954.8,544.0 L955.1,388.0 L955.3,544.0 L955.5,388.0 L955.8,388.0 L956.0,388.0 L956.2,388.0 L956.5,388.0 L956.7,388.0 L956.9,232.0 L957.2,544.0 L957.4,388.0 L957.6,388.0 L957.9,388.0 L958.1,232.0 L958.3,232.0 L958.6,388.0 L958.8,388.0 L959.0,388.0 L959.2,388.0 L959.5,388.0 L959.7,388.0 L959.9,388.0 L960.2,388.0 L960.4,388.0 L960.6,388.0 L960.9,388.0 L961.1,232.0 L961.3,232.0 L961.6,388.0 L961.8,388.0 L962.0,388.0 L962.3,388.0 L962.5,544.0 L962.7,232.0 L962.9,388.0 L963.2,388.0 L963.4,232.0 L963.6,544.0 L963.9,232.0 L964.1,388.0 L964.3,388.0 L964.6,388.0 L964.8,388.0 L965.0,544.0 L965.3,232.0 L965.5,388.0 L965.7,232.0 L966.0,544.0 L966.2,544.0 L966.4,232.0 L966.7,544.0 L966.9,232.0 L967.1,544.0 L967.3,232.0 L967.6,388.0 L967.8,232.0 L968.0,388.0 L968.3,388.0 L968.5,388.0 L968.7,544.0 L969.0,388.0 L969.2,232.0 L969.4,232.0 L969.7,544.0 L969.9,232.0 L970.1,232.0 L970.4,232.0 L970.6,544.0 L970.8,232.0 L971.1,388.0 L971.3,388.0 L971.5,388.0 L971.7,388.0 L972.0,388.0 L972.2,388.0 L972.4,388.0 L972.7,232.0 L972.9,388.0 L973.1,388.0 L973.4,388.0 L973.6,388.0 L973.8,388.0 L974.1,544.0 L974.3,232.0 L974.5,544.0 L974.8,232.0 L975.0,388.0 L975.2,232.0 L975.4,544.0 L975.7,544.0 L975.9,388.0 L976.1,544.0 L976.4,232.0 L976.6,232.0 L976.8,388.0 L977.1,544.0 L977.3,388.0 L977.5,388.0 L977.8,388.0 L978.0,388.0 L978.2,388.0 L978.5,388.0 L978.7,388.0 L978.9,388.0 L979.2,232.0 L979.4,388.0 L979.6,544.0 L979.8,232.0 L980.1,388.0 L980.3,232.0 L980.5,544.0 L980.8,544.0 L981.0,388.0 L981.2,388.0 L981.5,544.0 L981.7,388.0 L981.9,388.0 L982.2,388.0 L982.4,388.0 L982.6,544.0 L982.9,388.0 L983.1,388.0 L983.3,388.0 L983.5,388.0 L983.8,388.0 L984.0,388.0 L984.2,232.0 L984.5,544.0 L984.7,544.0 L984.9,544.0 L985.2,388.0 L985.4,544.0 L985.6,544.0 L985.9,232.0 L986.1,544.0 L986.3,232.0 L986.6,388.0 L986.8,388.0 L987.0,544.0 L987.3,544.0 L987.5,388.0 L987.7,388.0 L987.9,544.0 L988.2,388.0 L988.4,388.0 L988.6,544.0 L988.9,388.0 L989.1,388.0 L989.3,232.0 L989.6,544.0 L989.8,388.0 L990.0,388.0 L990.3,388.0 L990.5,544.0 L990.7,232.0 L991.0,388.0 L991.2,388.0 L991.4,232.0 L991.6,544.0 L991.9,388.0 L992.1,232.0 L992.3,388.0 L992.6,388.0 L992.8,232.0 L993.0,544.0 L993.3,388.0 L993.5,388.0 L993.7,388.0 L994.0,388.0 L994.2,388.0 L994.4,232.0 L994.7,388.0 L994.9,544.0 L995.1,388.0 L995.4,544.0 L995.6,544.0 L995.8,544.0 L996.0,232.0 L996.3,388.0 L996.5,388.0 L996.7,232.0 L997.0,544.0 L997.2,232.0 L997.4,544.0 L997.7,232.0 L997.9,388.0 L998.1,388.0 L998.4,544.0 L998.6,388.0 L998.8,388.0 L999.1,544.0 L999.3,388.0 L999.5,544.0 L999.8,388.0 L1000.0,232.0 L1000.2,388.0 L1000.4,232.0 L1000.7,388.0 L1000.9,544.0 L1001.1,544.0 L1001.4,388.0 L1001.6,544.0 L1001.8,388.0 L1002.1,388.0 L1002.3,544.0 L1002.5,388.0 L1002.8,388.0 L1003.0,544.0 L1003.2,232.0 L1003.5,388.0 L1003.7,544.0 L1003.9,388.0 L1004.1,544.0 L1004.4,544.0 L1004.6,388.0 L1004.8,388.0 L1005.1,388.0 L1005.3,388.0 L1005.5,232.0 L1005.8,232.0 L1006.0,544.0 L1006.2,544.0 L1006.5,388.0 L1006.7,388.0 L1006.9,388.0 L1007.2,388.0 L1007.4,232.0 L1007.6,388.0 L1007.9,388.0 L1008.1,232.0 L1008.3,388.0 L1008.5,232.0 L1008.8,388.0 L1009.0,544.0 L1009.2,544.0 L1009.5,232.0 L1009.7,544.0 L1009.9,388.0 L1010.2,388.0 L1010.4,388.0 L1010.6,232.0 L1010.9,388.0 L1011.1,388.0 L1011.3,232.0 L1011.6,388.0 L1011.8,544.0 L1012.0,232.0 L1012.2,232.0 L1012.5,544.0 L1012.7,232.0 L1012.9,388.0 L1013.2,544.0 L1013.4,232.0 L1013.6,388.0 L1013.9,388.0 L1014.1,388.0 L1014.3,544.0 L1014.6,232.0 L1014.8,388.0 L1015.0,232.0 L1015.3,232.0 L1015.5,232.0 L1015.7,544.0 L1016.0,388.0 L1016.2,232.0 L1016.4,232.0 L1016.6,544.0 L1016.9,388.0 L1017.1,388.0 L1017.3,388.0 L1017.6,388.0 L1017.8,544.0 L1018.0,388.0 L1018.3,388.0 L1018.5,544.0 L1018.7,232.0 L1019.0,544.0 L1019.2,388.0 L1019.4,232.0 L1019.7,388.0 L1019.9,544.0 L1020.1,232.0 L1020.4,544.0 L1020.6,544.0 L1020.8,388.0 L1021.0,232.0 L1021.3,544.0 L1021.5,544.0 L1021.7,232.0 L1022.0,388.0 L1022.2,232.0 L1022.4,544.0 L1022.7,388.0 L1022.9,388.0 L1023.1,544.0 L1023.4,232.0 L1023.6,388.0 L1023.8,544.0 L1024.1,232.0 L1024.3,388.0 L1024.5,388.0 L1024.7,388.0 L1025.0,544.0 L1025.2,388.0 L1025.4,388.0 L1025.7,388.0 L1025.9,544.0 L1026.1,232.0 L1026.4,544.0 L1026.6,544.0 L1026.8,388.0 L1027.1,388.0 L1027.3,232.0 L1027.5,388.0 L1027.8,388.0 L1028.0,232.0 L1028.2,544.0 L1028.5,388.0 L1028.7,544.0 L1028.9,232.0 L1029.1,388.0 L1029.4,388.0 L1029.6,544.0 L1029.8,544.0 L1030.1,388.0 L1030.3,544.0 L1030.5,232.0 L1030.8,388.0 L1031.0,232.0 L1031.2,544.0 L1031.5,388.0 L1031.7,388.0 L1031.9,544.0 L1032.2,388.0 L1032.4,544.0 L1032.6,232.0 L1032.8,544.0 L1033.1,544.0 L1033.3,388.0 L1033.5,232.0 L1033.8,544.0 L1034.0,544.0 L1034.2,388.0 L1034.5,232.0 L1034.7,388.0 L1034.9,388.0 L1035.2,544.0 L1035.4,544.0 L1035.6,232.0 L1035.9,544.0 L1036.1,544.0 L1036.3,544.0 L1036.6,388.0 L1036.8,388.0 L1037.0,544.0 L1037.2,388.0 L1037.5,388.0 L1037.7,388.0 L1037.9,544.0 L1038.2,388.0 L1038.4,388.0 L1038.6,232.0 L1038.9,388.0 L1039.1,544.0 L1039.3,544.0 L1039.6,388.0 L1039.8,388.0 L1040.0,388.0 L1040.3,388.0 L1040.5,388.0 L1040.7,232.0 L1040.9,544.0 L1041.2,232.0 L1041.4,388.0 L1041.6,544.0 L1041.9,388.0 L1042.1,388.0 L1042.3,388.0 L1042.6,388.0 L1042.8,232.0 L1043.0,388.0 L1043.3,232.0 L1043.5,544.0 L1043.7,232.0 L1044.0,544.0 L1044.2,232.0 L1044.4,544.0 L1044.7,544.0 L1044.9,232.0 L1045.1,544.0 L1045.3,232.0 L1045.6,232.0 L1045.8,232.0 L1046.0,388.0 L1046.3,544.0 L1046.5,544.0 L1046.7,232.0 L1047.0,232.0 L1047.2,388.0 L1047.4,388.0 L1047.7,388.0 L1047.9,232.0 L1048.1,232.0 L1048.4,388.0 L1048.6,388.0 L1048.8,232.0 L1049.1,388.0 L1049.3,388.0 L1049.5,388.0 L1049.7,232.0 L1050.0,388.0 L1050.2,388.0 L1050.4,388.0 L1050.7,544.0 L1050.9,388.0 L1051.1,544.0 L1051.4,388.0 L1051.6,232.0 L1051.8,388.0 L1052.1,232.0 L1052.3,544.0 L1052.5,388.0 L1052.8,388.0 L1053.0,388.0 L1053.2,388.0 L1053.4,544.0 L1053.7,232.0 L1053.9,232.0 L1054.1,388.0 L1054.4,544.0 L1054.6,388.0 L1054.8,232.0 L1055.1,388.0 L1055.3,232.0 L1055.5,388.0 L1055.8,544.0 L1056.0,388.0 L1056.2,544.0 L1056.5,388.0 L1056.7,388.0 L1056.9,544.0 L1057.2,232.0 L1057.4,388.0 L1057.6,544.0 L1057.8,232.0 L1058.1,232.0 L1058.3,232.0 L1058.5,388.0 L1058.8,544.0 L1059.0,232.0 L1059.2,388.0 L1059.5,388.0 L1059.7,388.0 L1059.9,544.0 L1060.2,388.0 L1060.4,388.0 L1060.6,544.0 L1060.9,388.0 L1061.1,232.0 L1061.3,388.0 L1061.5,232.0 L1061.8,232.0 L1062.0,388.0 L1062.2,544.0 L1062.5,388.0 L1062.7,388.0 L1062.9,232.0 L1063.2,388.0 L1063.4,544.0 L1063.6,544.0 L1063.9,232.0 L1064.1,232.0 L1064.3,544.0 L1064.6,232.0 L1064.8,544.0 L1065.0,232.0 L1065.3,544.0 L1065.5,232.0 L1065.7,388.0 L1065.9,388.0 L1066.2,232.0 L1066.4,544.0 L1066.6,232.0 L1066.9,388.0 L1067.1,388.0 L1067.3,232.0 L1067.6,544.0 L1067.8,544.0 L1068.0,232.0 L1068.3,232.0 L1068.5,544.0 L1068.7,232.0 L1069.0,544.0 L1069.2,232.0 L1069.4,388.0 L1069.6,544.0 L1069.9,388.0 L1070.1,388.0 L1070.3,544.0 L1070.6,232.0 L1070.8,544.0 L1071.0,544.0 L1071.3,232.0 L1071.5,544.0 L1071.7,388.0 L1072.0,544.0 L1072.2,388.0 L1072.4,544.0 L1072.7,388.0 L1072.9,388.0 L1073.1,388.0 L1073.4,232.0 L1073.6,232.0 L1073.8,544.0 L1074.0,232.0 L1074.3,232.0 L1074.5,544.0 L1074.7,232.0 L1075.0,544.0 L1075.2,232.0 L1075.4,544.0 L1075.7,388.0 L1075.9,388.0 L1076.1,388.0 L1076.4,232.0 L1076.6,232.0 L1076.8,388.0 L1077.1,388.0 L1077.3,544.0 L1077.5,232.0 L1077.8,544.0 L1078.0,388.0 L1078.2,544.0 L1078.4,544.0 L1078.7,388.0 L1078.9,232.0 L1079.1,544.0 L1079.4,76.0 L1079.6,544.0 L1079.8,388.0 L1080.1,388.0 L1080.3,388.0 L1080.5,544.0 L1080.8,388.0 L1081.0,388.0 L1081.2,544.0 L1081.5,388.0 L1081.7,544.0 L1081.9,388.0 L1082.1,232.0 L1082.4,388.0 L1082.6,232.0 L1082.8,388.0 L1083.1,232.0 L1083.3,388.0 L1083.5,544.0 L1083.8,388.0 L1084.0,232.0" fill="none" stroke="#ff7f0e" stroke-width="1.1" opacity="0.85"/><text x="616" y="572" font-size="11" fill="#888">time 0..40 s — altitude (blue) &amp; roll (orange)</text></svg>