<svg xmlns="http://www.w3.org/2000/svg" width="1140" height="600" font-family="sans-serif" font-size="13"><rect width="1140" height="600" fill="white"/><text x="20" y="26" font-size="15" fill="#333">TMS-7 F15 — cross-wind 9 m/s (10% noise)</text><rect x="20" y="40" width="540" height="540" fill="#fbfbfb" stroke="#ddd"/><rect x="169" y="249" width="361" height="78" fill="#cde" stroke="#369" opacity="0.7"/><text x="169" y="244" fill="#369" font-size="12">landing zone</text><circle cx="397" cy="371" r="5" fill="black"/><text x="405" y="375" font-size="12">pad</text><path d="M397.2,370.8 L397.2,370.8 L397.2,370.8 L397.2,370.8 L397.2,370.8 L397.2,370.8 L397.2,370.8 L397.2,370.8 L397.2,370.8 L397.2,370.8 L397.2,370.8 L397.2,370.8 L397.2,370.8 L397.2,370.8 L397.2,370.8 L397.2,370.8 L397.2,370.8 L397.2,370.8 L397.2,370.8 L397.2,370.8 L397.2,370.8 L397.2,370.8 L397.2,370.8 L397.2,370.8 L397.2,370.8 L397.2,370.8 L397.2,370.8 L397.2,370.8 L397.2,370.8 L397.2,370.8 L397.2,370.8 L397.2,370.8 L397.2,370.8 L397.2,370.8 L397.2,370.8 L397.2,370.8 L397.2,370.8 L397.2,370.8 L397.2,370.8 L397.2,370.8 L397.2,370.8 L397.2,370.8 L397.2,370.8 L397.2,370.8 L397.2,370.8 L397.2,370.8 L397.2,370.8 L397.2,370.8 L397.2,370.8 L397.2,370.8 L397.2,370.8 L397.2,370.8 L397.2,370.8 L397.2,370.8 L397.2,370.8 L397.2,370.8 L397.2,370.8 L397.2,370.8 L397.8,369.9 L398.4,369.0 L399.0,368.0 L399.8,367.1 L400.5,366.2 L401.3,365.4 L402.3,364.5 L403.3,363.9 L404.2,363.2 L405.4,362.6 L406.6,361.9 L407.7,361.3 L408.9,360.9 L410.0,360.4 L411.4,359.8 L412.8,359.6 L414.1,359.1 L415.5,358.7 L416.8,358.3 L418.2,358.1 L419.8,357.9 L421.1,357.4 L422.7,357.2 L424.0,357.0 L425.6,356.8 L426.9,356.6 L428.5,356.3 L430.0,356.1 L431.6,355.9 L433.1,355.7 L434.5,355.5 L436.1,355.3 L437.6,355.3 L439.2,355.1 L440.7,354.8 L442.3,354.8 L443.8,354.6 L445.4,354.4 L446.9,354.4 L448.5,354.2 L450.0,354.2 L451.6,354.0 L453.1,353.8 L454.7,353.8 L456.2,353.6 L457.8,353.3 L459.3,353.1 L460.9,352.9 L462.5,352.9 L463.8,352.7 L465.4,352.5 L466.9,352.3 L468.3,352.0 L469.8,351.6 L471.2,351.4 L472.7,351.2 L474.1,350.8 L475.7,350.5 L477.0,350.3 L478.4,349.9 L479.7,349.5 L481.1,349.0 L482.4,348.8 L483.8,348.4 L485.0,347.7 L486.3,347.3 L487.5,346.9 L488.9,346.5 L490.0,345.8 L491.2,345.4 L492.3,344.7 L493.5,344.1 L494.7,343.4 L495.8,343.0 L496.8,342.4 L498.0,341.7 L498.9,341.1 L500.1,340.2 L501.1,339.6 L502.1,338.9 L503.0,338.1 L504.0,337.4 L505.0,336.6 L505.7,335.9 L506.7,335.1 L507.5,334.2 L508.3,333.3 L509.2,332.5 L510.0,331.6 L510.6,330.8 L511.4,329.9 L512.1,328.8 L512.7,328.0 L513.5,326.9 L514.1,326.0 L514.7,324.9 L515.1,323.9 L515.4,322.8 L515.8,321.7 L516.2,320.6 L516.4,319.4 L516.4,318.1 L516.6,316.8 L516.4,315.5 L516.4,314.2 L516.0,312.9 L515.8,311.6 L515.4,310.1 L514.9,308.8 L514.3,307.3 L513.7,306.0 L512.9,304.5 L511.9,303.2 L511.0,301.7 L510.0,300.2 L508.8,298.9 L507.5,297.4 L506.3,295.9 L504.8,294.6 L503.2,293.1 L501.7,291.8 L500.1,290.3 L498.2,289.0 L496.4,287.7 L494.5,286.4 L492.5,285.2 L490.4,283.9 L488.3,282.6 L485.9,281.3 L483.6,280.2 L481.3,279.1 L478.8,277.8 L476.2,277.0 L473.5,275.9 L470.8,274.8 L468.1,274.0 L465.2,273.1 L462.3,272.3 L459.3,271.4 L456.4,270.5 L453.3,269.9 L450.0,269.2 L446.9,268.6 L443.6,268.2 L440.3,267.7 L436.8,267.3 L433.3,266.9 L429.8,266.7 L426.4,266.2 L422.7,266.2 L419.0,266.0 L415.3,266.0 L411.6,266.0 L407.7,266.0 L403.8,266.2 L400.0,266.4 L396.1,266.9 L392.2,267.3 L388.1,267.7 L384.0,268.2 L380.0,268.8 L375.9,269.5 L371.8,270.3 L367.7,271.2 L363.5,272.0 L359.4,273.1 L355.1,274.2 L350.8,275.5 L346.6,276.6 L342.3,278.1 L338.0,279.6 L333.8,281.1 L329.5,282.6 L325.2,284.3 L321.0,286.0 L316.7,288.0 L312.4,289.9 L308.1,291.8 L303.9,293.8 L299.6,295.7 L295.3,297.8 L291.1,299.8 L286.6,301.9 L282.3,303.9 L278.1,305.8 L273.8,307.7 L269.5,309.7 L265.3,311.6 L261.0,313.5 L256.7,315.3 L252.4,317.0 L248.2,318.7 L243.9,320.4 L239.6,322.2 L235.4,323.7 L231.1,324.9 L226.8,326.5 L222.6,327.7 L218.3,329.0 L214.0,330.1 L209.7,331.2 L205.7,332.3 L201.4,333.3 L197.3,334.2 L193.0,335.1 L189.0,335.9 L184.9,336.6 L180.8,337.2 L176.7,337.9 L172.9,338.3 L168.8,338.7 L164.9,338.9 L161.0,339.4 L157.1,339.4 L153.3,339.6 L149.6,339.6 L146.5,339.6 L143.4,339.6 L140.3,339.4 L137.3,339.4 L134.4,339.1 L131.5,338.7 L128.6,338.5 L125.7,338.3 L122.8,337.9 L120.1,337.4 L117.4,337.0 L114.6,336.3 L112.1,335.9 L109.4,335.3 L106.9,334.6 L104.3,334.0 L102.0,333.3 L99.5,332.7 L97.2,331.8 L94.8,331.2 L92.5,330.3 L90.4,329.5 L88.2,328.6 L86.1,327.7 L84.2,326.7 L82.0,325.8 L80.1,324.7 L78.3,323.9 L76.4,322.8 L74.7,321.7 L72.9,320.6 L71.4,319.6 L69.8,318.5 L68.2,317.4 L66.7,316.3 L65.3,315.1 L64.0,314.0 L62.6,312.9 L61.5,311.6 L60.3,310.5 L59.1,309.2 L58.2,308.0 L57.2,306.9 L56.2,305.6 L55.4,304.5 L54.5,303.2 L53.9,302.1 L53.1,300.9 L52.5,299.8 L51.9,298.5 L51.6,297.4 L51.2,296.1 L50.8,295.1 L50.4,294.0 L50.2,292.7 L50.0,291.6 L50.0,290.5 L50.0,289.5 L50.0,288.4 L50.0,287.5 L50.2,286.4 L50.4,285.4 L50.6,284.5 L51.0,283.7 L51.4,282.6 L51.7,281.7 L52.1,281.1 L52.7,280.2 L53.3,279.4" fill="none" stroke="#1f77b4" stroke-width="1.7" opacity="0.85"/><circle cx="53" cy="279" r="4.5" fill="#1f77b4"/><text x="28" y="572" font-size="11" fill="#888">ground track — m from pad (N up)</text><rect x="580" y="40" width="540" height="540" fill="#fbfbfb" stroke="#ddd"/><text x="586" y="54" fill="#1f77b4" font-size="11">alt 301</text><text x="586" y="558" fill="#1f77b4" font-size="11">2</text><path d="M616.0,543.4 L616.2,543.7 L616.5,543.7 L616.7,544.0 L617.0,544.0 L617.2,543.4 L617.4,543.8 L617.7,543.7 L617.9,543.6 L618.2,542.9 L618.4,543.4 L618.6,542.9 L618.9,543.0 L619.1,542.0 L619.4,541.8 L619.6,541.4 L619.8,542.3 L620.1,540.9 L620.3,541.0 L620.6,540.8 L620.8,539.9 L621.0,540.6 L621.3,539.9 L621.5,538.7 L621.8,539.1 L622.0,538.1 L622.2,537.8 L622.5,538.2 L622.7,537.9 L623.0,538.0 L623.2,536.9 L623.5,535.8 L623.7,536.7 L623.9,535.6 L624.2,533.8 L624.4,534.1 L624.7,534.7 L624.9,531.8 L625.1,533.8 L625.4,533.8 L625.6,530.6 L625.9,529.8 L626.1,530.8 L626.3,528.2 L626.6,527.9 L626.8,528.3 L627.1,527.2 L627.3,526.0 L627.5,526.0 L627.8,525.1 L628.0,527.1 L628.3,523.4 L628.5,521.6 L628.7,521.3 L629.0,521.6 L629.2,522.0 L629.5,522.3 L629.7,519.0 L629.9,518.0 L630.2,516.1 L630.4,518.4 L630.7,515.8 L630.9,515.3 L631.1,510.9 L631.4,511.0 L631.6,514.3 L631.9,513.6 L632.1,510.7 L632.3,509.6 L632.6,511.9 L632.8,507.0 L633.1,509.2 L633.3,505.8 L633.5,504.0 L633.8,501.2 L634.0,498.3 L634.3,497.1 L634.5,495.4 L634.7,502.8 L635.0,494.0 L635.2,499.7 L635.5,490.2 L635.7,489.8 L636.0,496.1 L636.2,490.7 L636.4,488.7 L636.7,487.8 L636.9,489.4 L637.2,491.5 L637.4,489.2 L637.6,485.7 L637.9,477.3 L638.1,483.5 L638.4,473.9 L638.6,485.1 L638.8,480.4 L639.1,471.8 L639.3,472.5 L639.6,473.4 L639.8,472.4 L640.0,463.2 L640.3,466.0 L640.5,475.1 L640.8,472.2 L641.0,460.2 L641.2,462.5 L641.5,467.6 L641.7,466.4 L642.0,466.5 L642.2,449.1 L642.4,458.4 L642.7,456.1 L642.9,459.5 L643.2,444.3 L643.4,448.8 L643.6,440.4 L643.9,441.0 L644.1,451.5 L644.4,433.2 L644.6,446.3 L644.8,444.8 L645.1,431.7 L645.3,437.6 L645.6,445.3 L645.8,430.3 L646.0,431.4 L646.3,417.4 L646.5,416.5 L646.8,435.0 L647.0,428.5 L647.2,425.4 L647.5,431.7 L647.7,417.0 L648.0,414.9 L648.2,407.9 L648.4,404.8 L648.7,422.4 L648.9,415.5 L649.2,397.8 L649.4,407.3 L649.7,416.2 L649.9,394.6 L650.1,408.4 L650.4,410.0 L650.6,405.0 L650.9,387.8 L651.1,381.7 L651.3,396.2 L651.6,382.3 L651.8,387.2 L652.1,370.4 L652.3,372.7 L652.5,372.2 L652.8,376.6 L653.0,387.3 L653.3,361.2 L653.5,375.3 L653.7,386.7 L654.0,375.6 L654.2,359.1 L654.5,364.8 L654.7,351.1 L654.9,362.4 L655.2,340.2 L655.4,351.3 L655.7,365.0 L655.9,343.6 L656.1,350.3 L656.4,337.0 L656.6,339.1 L656.9,354.5 L657.1,332.2 L657.3,342.6 L657.6,351.0 L657.8,349.4 L658.1,312.9 L658.3,313.0 L658.5,331.6 L658.8,340.9 L659.0,332.9 L659.3,311.9 L659.5,338.6 L659.7,330.0 L660.0,301.1 L660.2,325.9 L660.5,295.5 L660.7,294.2 L660.9,316.5 L661.2,320.3 L661.4,286.9 L661.7,283.5 L661.9,301.3 L662.2,283.9 L662.4,300.0 L662.6,302.5 L662.9,290.9 L663.1,285.3 L663.4,308.4 L663.6,300.1 L663.8,263.7 L664.1,257.5 L664.3,291.9 L664.6,246.4 L664.8,270.3 L665.0,292.2 L665.3,287.6 L665.5,278.6 L665.8,272.1 L666.0,240.7 L666.2,233.2 L666.5,246.4 L666.7,257.2 L667.0,274.0 L667.2,244.3 L667.4,241.4 L667.7,260.1 L667.9,250.3 L668.2,230.9 L668.4,245.5 L668.6,254.0 L668.9,227.1 L669.1,235.0 L669.4,211.7 L669.6,262.3 L669.8,210.5 L670.1,212.6 L670.3,222.8 L670.6,240.1 L670.8,215.6 L671.0,212.3 L671.3,207.0 L671.5,245.2 L671.8,234.6 L672.0,246.4 L672.2,200.5 L672.5,210.6 L672.7,190.2 L673.0,232.2 L673.2,180.2 L673.4,205.9 L673.7,213.8 L673.9,220.4 L674.2,180.1 L674.4,173.3 L674.7,200.8 L674.9,204.8 L675.1,163.5 L675.4,183.3 L675.6,197.9 L675.9,180.5 L676.1,165.8 L676.3,199.3 L676.6,177.6 L676.8,186.6 L677.1,218.3 L677.3,195.4 L677.5,213.1 L677.8,148.1 L678.0,195.5 L678.3,145.9 L678.5,193.6 L678.7,166.4 L679.0,209.1 L679.2,181.9 L679.5,169.4 L679.7,173.8 L679.9,147.1 L680.2,160.2 L680.4,151.6 L680.7,190.6 L680.9,143.8 L681.1,139.1 L681.4,178.5 L681.6,144.9 L681.9,139.3 L682.1,155.2 L682.3,171.3 L682.6,167.4 L682.8,150.0 L683.1,158.2 L683.3,110.8 L683.5,154.2 L683.8,185.1 L684.0,162.2 L684.3,152.4 L684.5,125.0 L684.7,113.3 L685.0,132.0 L685.2,159.1 L685.5,120.1 L685.7,134.5 L685.9,106.4 L686.2,123.5 L686.4,143.1 L686.7,118.6 L686.9,156.3 L687.1,146.5 L687.4,122.7 L687.6,167.8 L687.9,138.7 L688.1,137.9 L688.4,124.8 L688.6,101.4 L688.8,151.3 L689.1,100.8 L689.3,147.7 L689.6,144.0 L689.8,136.5 L690.0,149.2 L690.3,148.5 L690.5,77.9 L690.8,99.8 L691.0,83.1 L691.2,79.3 L691.5,76.0 L691.7,79.3 L692.0,129.7 L692.2,76.0 L692.4,150.5 L692.7,112.7 L692.9,87.9 L693.2,114.4 L693.4,123.4 L693.6,100.3 L693.9,98.6 L694.1,79.8 L694.4,80.0 L694.6,137.7 L694.8,103.4 L695.1,93.9 L695.3,112.8 L695.6,152.2 L695.8,105.5 L696.0,98.5 L696.3,160.5 L696.5,156.7 L696.8,96.0 L697.0,130.3 L697.2,119.3 L697.5,108.3 L697.7,160.9 L698.0,115.0 L698.2,89.7 L698.4,140.5 L698.7,121.2 L698.9,100.4 L699.2,119.8 L699.4,102.8 L699.6,93.2 L699.9,97.5 L700.1,151.0 L700.4,86.8 L700.6,77.4 L700.9,112.0 L701.1,149.3 L701.3,140.9 L701.6,97.6 L701.8,92.6 L702.1,126.6 L702.3,125.5 L702.5,106.2 L702.8,98.9 L703.0,132.6 L703.3,86.4 L703.5,84.0 L703.7,106.7 L704.0,155.2 L704.2,96.7 L704.5,124.2 L704.7,97.8 L704.9,83.4 L705.2,131.2 L705.4,143.7 L705.7,110.5 L705.9,82.8 L706.1,111.1 L706.4,126.9 L706.6,149.1 L706.9,113.2 L707.1,157.9 L707.3,139.9 L707.6,104.3 L707.8,94.2 L708.1,111.1 L708.3,136.3 L708.5,156.7 L708.8,101.3 L709.0,96.6 L709.3,155.0 L709.5,136.5 L709.7,128.8 L710.0,97.8 L710.2,158.7 L710.5,119.5 L710.7,143.4 L710.9,128.8 L711.2,156.4 L711.4,126.9 L711.7,91.0 L711.9,97.8 L712.1,147.8 L712.4,126.0 L712.6,163.2 L712.9,136.7 L713.1,135.0 L713.3,117.7 L713.6,88.4 L713.8,118.3 L714.1,85.7 L714.3,146.9 L714.6,89.5 L714.8,156.4 L715.0,82.8 L715.3,148.6 L715.5,95.0 L715.8,101.9 L716.0,93.8 L716.2,95.0 L716.5,105.2 L716.7,121.5 L717.0,98.1 L717.2,160.0 L717.4,101.5 L717.7,135.9 L717.9,108.1 L718.2,130.0 L718.4,85.4 L718.6,116.7 L718.9,98.1 L719.1,94.2 L719.4,162.3 L719.6,147.5 L719.8,146.6 L720.1,99.7 L720.3,96.8 L720.6,98.5 L720.8,131.1 L721.0,104.8 L721.3,165.7 L721.5,126.2 L721.8,138.2 L722.0,130.3 L722.2,135.3 L722.5,164.2 L722.7,131.2 L723.0,144.9 L723.2,107.9 L723.4,158.5 L723.7,164.6 L723.9,146.7 L724.2,106.3 L724.4,141.2 L724.6,92.6 L724.9,158.0 L725.1,165.4 L725.4,86.7 L725.6,148.4 L725.8,86.0 L726.1,162.6 L726.3,150.5 L726.6,88.5 L726.8,111.3 L727.1,122.9 L727.3,121.1 L727.5,98.7 L727.8,129.1 L728.0,129.2 L728.3,125.7 L728.5,105.4 L728.7,143.6 L729.0,150.5 L729.2,156.4 L729.5,133.4 L729.7,162.1 L729.9,106.1 L730.2,117.0 L730.4,93.3 L730.7,95.0 L730.9,96.0 L731.1,131.3 L731.4,163.9 L731.6,114.2 L731.9,161.0 L732.1,139.3 L732.3,133.7 L732.6,107.4 L732.8,166.4 L733.1,143.6 L733.3,161.9 L733.5,129.5 L733.8,101.6 L734.0,108.1 L734.3,153.3 L734.5,150.4 L734.7,142.1 L735.0,172.3 L735.2,137.0 L735.5,124.5 L735.7,139.1 L735.9,144.3 L736.2,125.7 L736.4,146.1 L736.7,99.3 L736.9,143.1 L737.1,132.3 L737.4,145.4 L737.6,118.9 L737.9,121.2 L738.1,94.1 L738.3,134.7 L738.6,137.2 L738.8,114.1 L739.1,113.0 L739.3,146.8 L739.6,170.5 L739.8,143.7 L740.0,132.4 L740.3,106.3 L740.5,144.6 L740.8,99.4 L741.0,100.2 L741.2,111.1 L741.5,175.8 L741.7,133.3 L742.0,117.4 L742.2,162.5 L742.4,139.3 L742.7,115.7 L742.9,174.5 L743.2,105.1 L743.4,160.6 L743.6,164.4 L743.9,133.3 L744.1,139.2 L744.4,149.3 L744.6,165.3 L744.8,152.4 L745.1,137.5 L745.3,109.3 L745.6,121.0 L745.8,98.7 L746.0,135.6 L746.3,156.1 L746.5,153.6 L746.8,104.3 L747.0,109.7 L747.2,167.8 L747.5,130.1 L747.7,174.7 L748.0,154.1 L748.2,140.0 L748.4,121.9 L748.7,127.5 L748.9,165.6 L749.2,163.0 L749.4,99.2 L749.6,134.4 L749.9,175.7 L750.1,149.8 L750.4,148.7 L750.6,155.4 L750.8,181.1 L751.1,168.7 L751.3,158.2 L751.6,163.5 L751.8,150.1 L752.0,147.3 L752.3,158.8 L752.5,171.4 L752.8,106.6 L753.0,156.8 L753.3,162.9 L753.5,160.3 L753.7,170.3 L754.0,146.5 L754.2,153.2 L754.5,112.6 L754.7,134.4 L754.9,107.8 L755.2,158.5 L755.4,183.3 L755.7,119.6 L755.9,170.9 L756.1,115.7 L756.4,126.8 L756.6,176.9 L756.9,164.1 L757.1,138.4 L757.3,183.9 L757.6,111.5 L757.8,173.6 L758.1,106.2 L758.3,122.4 L758.5,120.9 L758.8,181.3 L759.0,108.3 L759.3,140.4 L759.5,173.8 L759.7,117.9 L760.0,184.3 L760.2,180.9 L760.5,182.0 L760.7,154.4 L760.9,123.5 L761.2,170.9 L761.4,107.5 L761.7,116.3 L761.9,165.4 L762.1,125.0 L762.4,122.0 L762.6,110.4 L762.9,110.9 L763.1,115.7 L763.3,124.5 L763.6,110.8 L763.8,142.1 L764.1,131.1 L764.3,166.9 L764.5,135.9 L764.8,151.4 L765.0,180.7 L765.3,141.6 L765.5,178.5 L765.8,171.3 L766.0,119.8 L766.2,179.5 L766.5,115.0 L766.7,117.8 L767.0,162.0 L767.2,116.6 L767.4,130.4 L767.7,163.8 L767.9,160.8 L768.2,189.0 L768.4,121.8 L768.6,113.6 L768.9,158.8 L769.1,125.1 L769.4,139.4 L769.6,117.2 L769.8,164.3 L770.1,132.4 L770.3,166.8 L770.6,150.6 L770.8,150.9 L771.0,167.5 L771.3,163.8 L771.5,146.8 L771.8,190.6 L772.0,128.2 L772.2,124.7 L772.5,144.2 L772.7,128.5 L773.0,163.0 L773.2,156.2 L773.4,126.7 L773.7,131.9 L773.9,136.3 L774.2,120.9 L774.4,132.6 L774.6,118.0 L774.9,133.4 L775.1,133.5 L775.4,148.8 L775.6,188.2 L775.8,185.1 L776.1,151.4 L776.3,135.9 L776.6,126.3 L776.8,184.8 L777.0,177.3 L777.3,170.8 L777.5,173.5 L777.8,135.5 L778.0,164.9 L778.2,122.9 L778.5,147.9 L778.7,189.0 L779.0,189.8 L779.2,144.7 L779.5,137.4 L779.7,171.7 L779.9,165.4 L780.2,181.0 L780.4,182.1 L780.7,142.2 L780.9,135.3 L781.1,133.4 L781.4,141.0 L781.6,172.2 L781.9,176.4 L782.1,144.6 L782.3,165.2 L782.6,189.6 L782.8,129.5 L783.1,181.7 L783.3,151.2 L783.5,189.9 L783.8,123.9 L784.0,193.7 L784.3,165.0 L784.5,126.7 L784.7,162.1 L785.0,194.5 L785.2,174.6 L785.5,129.8 L785.7,128.8 L785.9,125.6 L786.2,137.4 L786.4,151.1 L786.7,134.1 L786.9,199.0 L787.1,136.5 L787.4,131.6 L787.6,169.9 L787.9,179.5 L788.1,185.2 L788.3,174.3 L788.6,176.7 L788.8,168.9 L789.1,158.9 L789.3,152.5 L789.5,133.2 L789.8,192.9 L790.0,129.8 L790.3,168.6 L790.5,189.3 L790.7,164.8 L791.0,163.7 L791.2,201.1 L791.5,149.5 L791.7,156.3 L792.0,157.6 L792.2,175.1 L792.4,158.1 L792.7,204.9 L792.9,148.8 L793.2,156.7 L793.4,143.6 L793.6,196.4 L793.9,185.1 L794.1,189.9 L794.4,151.6 L794.6,189.9 L794.8,179.7 L795.1,202.7 L795.3,183.5 L795.6,175.2 L795.8,203.9 L796.0,202.9 L796.3,169.9 L796.5,161.3 L796.8,148.2 L797.0,143.4 L797.2,138.4 L797.5,165.1 L797.7,135.8 L798.0,187.3 L798.2,185.5 L798.4,159.5 L798.7,187.4 L798.9,148.2 L799.2,206.3 L799.4,209.2 L799.6,182.1 L799.9,193.3 L800.1,159.1 L800.4,205.3 L800.6,167.3 L800.8,174.9 L801.1,210.5 L801.3,154.2 L801.6,179.3 L801.8,166.1 L802.0,203.1 L802.3,155.8 L802.5,164.6 L802.8,160.2 L803.0,187.8 L803.2,201.0 L803.5,206.6 L803.7,140.6 L804.0,161.3 L804.2,201.7 L804.4,207.0 L804.7,162.8 L804.9,155.9 L805.2,161.0 L805.4,166.9 L805.7,166.7 L805.9,201.7 L806.1,179.4 L806.4,191.6 L806.6,155.1 L806.9,163.0 L807.1,145.7 L807.3,186.3 L807.6,205.4 L807.8,153.0 L808.1,196.3 L808.3,160.3 L808.5,169.5 L808.8,213.2 L809.0,209.5 L809.3,187.3 L809.5,163.8 L809.7,156.8 L810.0,184.8 L810.2,165.3 L810.5,195.7 L810.7,159.0 L810.9,200.0 L811.2,156.1 L811.4,179.4 L811.7,157.3 L811.9,205.2 L812.1,178.6 L812.4,205.2 L812.6,151.4 L812.9,177.3 L813.1,159.8 L813.3,206.0 L813.6,156.9 L813.8,220.3 L814.1,152.9 L814.3,217.4 L814.5,171.6 L814.8,192.9 L815.0,153.8 L815.3,200.2 L815.5,179.9 L815.7,218.9 L816.0,196.8 L816.2,185.4 L816.5,195.8 L816.7,206.5 L816.9,169.4 L817.2,170.2 L817.4,154.7 L817.7,165.7 L817.9,182.4 L818.2,215.8 L818.4,155.5 L818.6,153.1 L818.9,156.6 L819.1,167.9 L819.4,185.0 L819.6,204.8 L819.8,216.7 L820.1,155.3 L820.3,196.7 L820.6,186.6 L820.8,192.8 L821.0,176.2 L821.3,181.8 L821.5,219.7 L821.8,178.7 L822.0,164.1 L822.2,156.3 L822.5,226.3 L822.7,226.2 L823.0,200.8 L823.2,212.6 L823.4,213.0 L823.7,228.2 L823.9,205.6 L824.2,220.1 L824.4,168.0 L824.6,229.1 L824.9,165.9 L825.1,171.5 L825.4,229.2 L825.6,218.3 L825.8,183.8 L826.1,190.9 L826.3,179.7 L826.6,209.4 L826.8,191.3 L827.0,178.3 L827.3,208.7 L827.5,228.6 L827.8,223.9 L828.0,193.6 L828.2,191.1 L828.5,230.0 L828.7,228.8 L829.0,177.9 L829.2,221.6 L829.4,217.2 L829.7,223.6 L829.9,192.1 L830.2,231.1 L830.4,218.1 L830.7,181.6 L830.9,231.6 L831.1,231.9 L831.4,170.4 L831.6,221.4 L831.9,173.3 L832.1,202.3 L832.3,218.6 L832.6,221.7 L832.8,226.2 L833.1,229.2 L833.3,205.1 L833.5,230.7 L833.8,195.4 L834.0,190.5 L834.3,229.2 L834.5,232.9 L834.7,214.7 L835.0,184.7 L835.2,234.8 L835.5,188.2 L835.7,213.4 L835.9,227.9 L836.2,221.8 L836.4,181.8 L836.7,217.4 L836.9,174.0 L837.1,209.7 L837.4,188.5 L837.6,177.7 L837.9,214.0 L838.1,182.3 L838.3,202.9 L838.6,190.5 L838.8,220.5 L839.1,213.8 L839.3,232.4 L839.5,210.1 L839.8,219.8 L840.0,231.8 L840.3,174.5 L840.5,202.0 L840.7,231.1 L841.0,180.5 L841.2,211.5 L841.5,200.0 L841.7,226.1 L841.9,219.4 L842.2,223.4 L842.4,202.2 L842.7,213.4 L842.9,202.7 L843.1,234.6 L843.4,196.4 L843.6,216.2 L843.9,224.2 L844.1,193.5 L844.4,179.2 L844.6,210.5 L844.8,218.3 L845.1,210.2 L845.3,181.2 L845.6,246.6 L845.8,202.6 L846.0,190.1 L846.3,192.3 L846.5,201.1 L846.8,192.1 L847.0,204.6 L847.2,185.7 L847.5,212.8 L847.7,213.0 L848.0,218.3 L848.2,184.0 L848.4,216.2 L848.7,247.0 L848.9,242.9 L849.2,226.4 L849.4,185.4 L849.6,232.2 L849.9,200.1 L850.1,243.7 L850.4,216.4 L850.6,236.8 L850.8,224.8 L851.1,230.8 L851.3,212.2 L851.6,219.8 L851.8,198.0 L852.0,232.4 L852.3,221.9 L852.5,251.9 L852.8,198.0 L853.0,237.8 L853.2,193.2 L853.5,200.4 L853.7,226.0 L854.0,231.4 L854.2,210.3 L854.4,213.3 L854.7,230.9 L854.9,233.7 L855.2,246.4 L855.4,253.0 L855.6,241.0 L855.9,197.4 L856.1,236.0 L856.4,195.2 L856.6,241.6 L856.9,201.0 L857.1,218.2 L857.3,199.6 L857.6,214.0 L857.8,250.9 L858.1,237.0 L858.3,208.5 L858.5,235.7 L858.8,201.6 L859.0,255.2 L859.3,222.8 L859.5,210.0 L859.7,226.6 L860.0,206.6 L860.2,198.6 L860.5,256.9 L860.7,232.7 L860.9,230.9 L861.2,199.2 L861.4,255.1 L861.7,219.0 L861.9,224.0 L862.1,225.5 L862.4,239.5 L862.6,222.8 L862.9,236.7 L863.1,255.6 L863.3,224.7 L863.6,228.3 L863.8,223.0 L864.1,206.2 L864.3,256.8 L864.5,248.0 L864.8,220.4 L865.0,231.9 L865.3,216.4 L865.5,211.3 L865.7,257.0 L866.0,224.2 L866.2,262.1 L866.5,211.4 L866.7,228.8 L866.9,237.8 L867.2,207.4 L867.4,247.3 L867.7,244.7 L867.9,214.2 L868.1,265.2 L868.4,245.0 L868.6,263.7 L868.9,253.3 L869.1,226.3 L869.3,262.1 L869.6,267.8 L869.8,234.1 L870.1,233.4 L870.3,225.2 L870.6,263.3 L870.8,264.1 L871.0,228.7 L871.3,253.0 L871.5,255.6 L871.8,225.2 L872.0,256.2 L872.2,248.1 L872.5,223.8 L872.7,264.2 L873.0,269.7 L873.2,225.4 L873.4,263.5 L873.7,214.1 L873.9,220.1 L874.2,264.4 L874.4,269.4 L874.6,232.8 L874.9,237.4 L875.1,269.3 L875.4,274.3 L875.6,260.5 L875.8,264.8 L876.1,219.8 L876.3,221.2 L876.6,229.8 L876.8,219.2 L877.0,276.3 L877.3,228.1 L877.5,244.8 L877.8,253.5 L878.0,257.2 L878.2,235.2 L878.5,266.0 L878.7,275.0 L879.0,271.1 L879.2,253.4 L879.4,249.7 L879.7,275.9 L879.9,278.1 L880.2,258.2 L880.4,247.4 L880.6,247.8 L880.9,222.9 L881.1,271.5 L881.4,276.3 L881.6,237.3 L881.8,250.6 L882.1,274.2 L882.3,248.9 L882.6,273.2 L882.8,282.2 L883.1,232.4 L883.3,275.1 L883.5,256.9 L883.8,270.2 L884.0,246.6 L884.3,232.7 L884.5,284.9 L884.7,257.0 L885.0,250.3 L885.2,245.1 L885.5,265.1 L885.7,238.8 L885.9,253.1 L886.2,267.8 L886.4,270.3 L886.7,235.5 L886.9,251.2 L887.1,254.6 L887.4,260.3 L887.6,246.6 L887.9,245.8 L888.1,262.4 L888.3,285.1 L888.6,249.4 L888.8,237.7 L889.1,280.6 L889.3,239.2 L889.5,257.6 L889.8,284.3 L890.0,277.3 L890.3,282.9 L890.5,283.4 L890.7,237.7 L891.0,274.3 L891.2,256.4 L891.5,267.0 L891.7,277.2 L891.9,237.9 L892.2,258.6 L892.4,256.9 L892.7,274.3 L892.9,246.0 L893.1,246.6 L893.4,255.6 L893.6,258.7 L893.9,274.2 L894.1,241.2 L894.3,274.0 L894.6,288.3 L894.8,248.4 L895.1,286.8 L895.3,277.4 L895.6,283.2 L895.8,253.8 L896.0,256.1 L896.3,269.2 L896.5,251.6 L896.8,278.1 L897.0,270.0 L897.2,255.0 L897.5,248.2 L897.7,291.4 L898.0,274.3 L898.2,280.6 L898.4,271.2 L898.7,252.2 L898.9,267.3 L899.2,299.1 L899.4,282.7 L899.6,258.0 L899.9,268.5 L900.1,300.1 L900.4,261.9 L900.6,261.5 L900.8,287.0 L901.1,269.8 L901.3,276.2 L901.6,272.9 L901.8,266.1 L902.0,272.6 L902.3,263.9 L902.5,254.1 L902.8,266.1 L903.0,264.5 L903.2,267.0 L903.5,299.2 L903.7,274.3 L904.0,281.2 L904.2,298.8 L904.4,289.5 L904.7,257.7 L904.9,301.7 L905.2,296.7 L905.4,306.2 L905.6,262.4 L905.9,278.9 L906.1,258.7 L906.4,280.8 L906.6,270.3 L906.8,292.3 L907.1,276.8 L907.3,303.7 L907.6,298.8 L907.8,260.4 L908.0,261.7 L908.3,271.8 L908.5,276.3 L908.8,272.8 L909.0,296.8 L909.3,267.9 L909.5,298.7 L909.7,310.8 L910.0,275.5 L910.2,266.7 L910.5,296.5 L910.7,303.8 L910.9,289.0 L911.2,299.3 L911.4,277.4 L911.7,304.9 L911.9,286.8 L912.1,275.9 L912.4,309.6 L912.6,314.0 L912.9,314.0 L913.1,318.8 L913.3,292.9 L913.6,275.0 L913.8,289.5 L914.1,296.9 L914.3,293.9 L914.5,302.8 L914.8,273.1 L915.0,284.8 L915.3,313.7 L915.5,291.0 L915.7,287.5 L916.0,272.4 L916.2,280.6 L916.5,306.4 L916.7,310.4 L916.9,279.9 L917.2,292.4 L917.4,304.6 L917.7,310.0 L917.9,307.6 L918.1,283.1 L918.4,309.1 L918.6,301.5 L918.9,312.0 L919.1,323.9 L919.3,303.8 L919.6,301.6 L919.8,286.3 L920.1,305.1 L920.3,295.7 L920.5,325.7 L920.8,323.8 L921.0,280.5 L921.3,319.1 L921.5,310.2 L921.8,295.8 L922.0,294.6 L922.2,285.9 L922.5,308.1 L922.7,308.2 L923.0,310.5 L923.2,302.0 L923.4,284.7 L923.7,292.8 L923.9,305.7 L924.2,323.8 L924.4,327.0 L924.6,290.4 L924.9,330.4 L925.1,305.1 L925.4,306.8 L925.6,309.2 L925.8,303.0 L926.1,298.4 L926.3,326.4 L926.6,319.1 L926.8,335.0 L927.0,295.3 L927.3,316.0 L927.5,310.5 L927.8,317.3 L928.0,320.7 L928.2,297.2 L928.5,328.1 L928.7,298.4 L929.0,302.8 L929.2,316.2 L929.4,320.4 L929.7,331.1 L929.9,297.0 L930.2,328.8 L930.4,335.9 L930.6,328.0 L930.9,300.2 L931.1,303.6 L931.4,330.2 L931.6,335.4 L931.8,317.2 L932.1,321.2 L932.3,339.3 L932.6,321.4 L932.8,340.5 L933.0,330.0 L933.3,321.3 L933.5,310.5 L933.8,334.3 L934.0,321.7 L934.2,319.2 L934.5,327.4 L934.7,313.7 L935.0,344.6 L935.2,318.3 L935.5,305.8 L935.7,313.1 L935.9,324.2 L936.2,311.6 L936.4,343.6 L936.7,330.5 L936.9,313.3 L937.1,329.0 L937.4,319.9 L937.6,310.4 L937.9,328.0 L938.1,329.4 L938.3,338.5 L938.6,346.0 L938.8,347.5 L939.1,313.2 L939.3,323.7 L939.5,336.8 L939.8,317.3 L940.0,335.6 L940.3,319.9 L940.5,315.4 L940.7,343.0 L941.0,333.7 L941.2,336.1 L941.5,340.8 L941.7,329.1 L941.9,314.9 L942.2,330.2 L942.4,316.7 L942.7,355.3 L942.9,315.4 L943.1,321.5 L943.4,346.1 L943.6,343.7 L943.9,334.4 L944.1,318.1 L944.3,325.8 L944.6,357.6 L944.8,334.6 L945.1,326.8 L945.3,356.9 L945.5,328.3 L945.8,357.7 L946.0,349.8 L946.3,336.7 L946.5,355.5 L946.7,331.1 L947.0,330.8 L947.2,343.4 L947.5,351.2 L947.7,346.5 L948.0,333.5 L948.2,336.0 L948.4,335.5 L948.7,354.6 L948.9,331.1 L949.2,356.5 L949.4,354.5 L949.6,337.0 L949.9,327.4 L950.1,350.8 L950.4,343.0 L950.6,338.1 L950.8,327.6 L951.1,364.7 L951.3,346.9 L951.6,351.8 L951.8,354.1 L952.0,334.5 L952.3,332.2 L952.5,360.8 L952.8,362.5 L953.0,357.4 L953.2,365.8 L953.5,361.9 L953.7,348.6 L954.0,365.1 L954.2,340.1 L954.4,342.9 L954.7,344.1 L954.9,340.6 L955.2,336.9 L955.4,336.9 L955.6,345.9 L955.9,356.0 L956.1,348.8 L956.4,352.4 L956.6,355.2 L956.8,343.6 L957.1,361.8 L957.3,369.0 L957.6,361.8 L957.8,341.4 L958.0,371.1 L958.3,371.1 L958.5,356.0 L958.8,359.9 L959.0,376.3 L959.2,347.3 L959.5,344.8 L959.7,348.9 L960.0,351.7 L960.2,367.8 L960.4,364.0 L960.7,374.4 L960.9,371.7 L961.2,367.2 L961.4,353.9 L961.7,369.2 L961.9,361.5 L962.1,370.0 L962.4,344.3 L962.6,357.1 L962.9,354.4 L963.1,358.0 L963.3,364.0 L963.6,353.4 L963.8,372.0 L964.1,375.4 L964.3,352.1 L964.5,369.1 L964.8,373.0 L965.0,374.0 L965.3,364.7 L965.5,381.1 L965.7,355.1 L966.0,352.6 L966.2,380.8 L966.5,375.8 L966.7,364.9 L966.9,370.7 L967.2,370.2 L967.4,356.2 L967.7,377.6 L967.9,359.2 L968.1,362.8 L968.4,357.2 L968.6,387.4 L968.9,374.0 L969.1,364.7 L969.3,365.7 L969.6,374.8 L969.8,362.5 L970.1,370.1 L970.3,386.1 L970.5,384.4 L970.8,373.6 L971.0,374.7 L971.3,378.3 L971.5,376.5 L971.7,365.8 L972.0,369.8 L972.2,372.1 L972.5,380.5 L972.7,385.2 L972.9,393.2 L973.2,361.3 L973.4,387.0 L973.7,373.7 L973.9,369.8 L974.2,378.5 L974.4,384.1 L974.6,385.9 L974.9,386.7 L975.1,374.8 L975.4,369.5 L975.6,369.1 L975.8,390.0 L976.1,365.8 L976.3,373.7 L976.6,380.7 L976.8,396.0 L977.0,375.3 L977.3,384.2 L977.5,397.1 L977.8,399.3 L978.0,400.3 L978.2,395.6 L978.5,399.0 L978.7,391.9 L979.0,378.7 L979.2,378.7 L979.4,378.3 L979.7,398.8 L979.9,392.5 L980.2,384.5 L980.4,398.1 L980.6,401.3 L980.9,393.7 L981.1,374.6 L981.4,403.5 L981.6,384.2 L981.8,376.2 L982.1,376.1 L982.3,384.7 L982.6,397.6 L982.8,378.5 L983.0,396.9 L983.3,376.9 L983.5,405.0 L983.8,388.0 L984.0,392.1 L984.2,406.2 L984.5,385.4 L984.7,405.4 L985.0,406.4 L985.2,392.1 L985.4,396.8 L985.7,406.3 L985.9,408.1 L986.2,383.8 L986.4,411.0 L986.7,400.3 L986.9,400.8 L987.1,408.5 L987.4,397.2 L987.6,412.1 L987.9,401.7 L988.1,390.2 L988.3,396.9 L988.6,386.3 L988.8,388.4 L989.1,407.2 L989.3,400.6 L989.5,407.7 L989.8,402.6 L990.0,407.3 L990.3,394.2 L990.5,394.3 L990.7,405.5 L991.0,395.5 L991.2,388.4 L991.5,414.9 L991.7,404.6 L991.9,411.5 L992.2,396.7 L992.4,401.6 L992.7,415.5 L992.9,410.5 L993.1,407.0 L993.4,419.7 L993.6,395.3 L993.9,411.0 L994.1,402.9 L994.3,407.7 L994.6,420.1 L994.8,420.4 L995.1,412.2 L995.3,412.7 L995.5,410.8 L995.8,410.2 L996.0,409.9 L996.3,419.0 L996.5,405.4 L996.7,410.8 L997.0,424.0 L997.2,413.1 L997.5,410.5 L997.7,407.8 L997.9,419.9 L998.2,407.8 L998.4,399.6 L998.7,426.2 L998.9,402.2 L999.1,412.5 L999.4,425.5 L999.6,403.9 L999.9,415.0 L1000.1,407.3 L1000.4,404.2 L1000.6,407.9 L1000.8,411.4 L1001.1,419.3 L1001.3,404.1 L1001.6,427.1 L1001.8,412.9 L1002.0,416.7 L1002.3,424.7 L1002.5,418.4 L1002.8,425.5 L1003.0,427.7 L1003.2,412.5 L1003.5,426.4 L1003.7,431.5 L1004.0,423.1 L1004.2,413.9 L1004.4,424.0 L1004.7,409.2 L1004.9,411.1 L1005.2,414.1 L1005.4,430.9 L1005.6,417.6 L1005.9,414.3 L1006.1,426.7 L1006.4,423.9 L1006.6,429.0 L1006.8,427.8 L1007.1,417.2 L1007.3,414.3 L1007.6,426.8 L1007.8,437.5 L1008.0,430.8 L1008.3,415.9 L1008.5,418.8 L1008.8,426.2 L1009.0,422.3 L1009.2,424.3 L1009.5,439.0 L1009.7,417.7 L1010.0,434.6 L1010.2,427.1 L1010.4,429.7 L1010.7,421.7 L1010.9,423.2 L1011.2,423.2 L1011.4,438.2 L1011.6,428.5 L1011.9,426.0 L1012.1,430.0 L1012.4,429.8 L1012.6,429.9 L1012.9,445.0 L1013.1,426.7 L1013.3,438.3 L1013.6,425.7 L1013.8,435.8 L1014.1,441.9 L1014.3,445.5 L1014.5,437.2 L1014.8,439.1 L1015.0,431.6 L1015.3,436.8 L1015.5,435.5 L1015.7,437.5 L1016.0,437.6 L1016.2,428.6 L1016.5,447.9 L1016.7,438.8 L1016.9,436.6 L1017.2,438.3 L1017.4,443.5 L1017.7,430.9 L1017.9,437.1 L1018.1,435.4 L1018.4,450.5 L1018.6,440.9 L1018.9,437.3 L1019.1,435.0 L1019.3,444.7 L1019.6,445.7 L1019.8,434.4 L1020.1,454.1 L1020.3,449.5 L1020.5,437.4 L1020.8,448.3 L1021.0,442.9 L1021.3,450.8 L1021.5,455.4 L1021.7,451.8 L1022.0,449.1 L1022.2,455.8 L1022.5,455.4 L1022.7,441.2 L1022.9,441.0 L1023.2,458.7 L1023.4,450.5 L1023.7,444.8 L1023.9,456.5 L1024.1,446.3 L1024.4,445.8 L1024.6,450.1 L1024.9,453.1 L1025.1,455.2 L1025.3,446.8 L1025.6,459.3 L1025.8,451.6 L1026.1,456.3 L1026.3,454.5 L1026.6,446.3 L1026.8,455.3 L1027.0,458.5 L1027.3,461.0 L1027.5,456.9 L1027.8,458.9 L1028.0,459.0 L1028.2,455.2 L1028.5,453.3 L1028.7,455.3 L1029.0,456.9 L1029.2,449.2 L1029.4,451.2 L1029.7,455.2 L1029.9,454.2 L1030.2,467.2 L1030.4,455.2 L1030.6,459.0 L1030.9,463.2 L1031.1,467.8 L1031.4,458.4 L1031.6,462.0 L1031.8,454.5 L1032.1,460.6 L1032.3,468.5 L1032.6,470.6 L1032.8,462.6 L1033.0,461.6 L1033.3,456.5 L1033.5,461.4 L1033.8,467.5 L1034.0,472.2 L1034.2,463.4 L1034.5,468.6 L1034.7,466.4 L1035.0,469.7 L1035.2,466.0 L1035.4,468.9 L1035.7,472.8 L1035.9,466.1 L1036.2,463.9 L1036.4,466.5 L1036.6,474.9 L1036.9,477.0 L1037.1,465.0 L1037.4,475.3 L1037.6,473.3 L1037.8,466.0 L1038.1,470.1 L1038.3,470.8 L1038.6,469.2 L1038.8,467.0 L1039.1,480.3 L1039.3,480.1 L1039.5,475.7 L1039.8,476.5 L1040.0,469.0 L1040.3,476.9 L1040.5,480.6 L1040.7,473.2 L1041.0,478.3 L1041.2,472.6 L1041.5,482.7 L1041.7,473.5 L1041.9,483.2 L1042.2,473.3 L1042.4,472.7 L1042.7,481.3 L1042.9,476.6 L1043.1,473.0 L1043.4,481.3 L1043.6,483.7 L1043.9,485.0 L1044.1,480.3 L1044.3,477.4 L1044.6,478.7 L1044.8,487.9 L1045.1,484.4 L1045.3,478.2 L1045.5,485.6 L1045.8,489.5 L1046.0,479.1 L1046.3,480.7 L1046.5,489.6 L1046.7,488.1 L1047.0,480.0 L1047.2,484.6 L1047.5,481.4 L1047.7,482.8 L1047.9,485.0 L1048.2,487.8 L1048.4,487.9 L1048.7,487.3 L1048.9,487.4 L1049.1,485.9 L1049.4,490.4 L1049.6,484.1 L1049.9,487.1 L1050.1,493.3 L1050.3,492.7 L1050.6,485.6 L1050.8,494.6 L1051.1,486.9 L1051.3,497.1 L1051.6,491.4 L1051.8,491.7 L1052.0,489.4 L1052.3,493.9 L1052.5,499.1 L1052.8,492.0 L1053.0,490.1 L1053.2,498.0 L1053.5,491.5 L1053.7,497.1 L1054.0,492.1 L1054.2,498.5 L1054.4,496.9 L1054.7,500.8 L1054.9,496.5 L1055.2,494.1 L1055.4,495.4 L1055.6,499.2 L1055.9,503.3 L1056.1,496.1 L1056.4,495.0 L1056.6,503.3 L1056.8,504.7 L1057.1,497.4 L1057.3,497.7 L1057.6,501.6 L1057.8,500.0 L1058.0,504.7 L1058.3,501.3 L1058.5,500.5 L1058.8,504.4 L1059.0,503.0 L1059.2,506.5 L1059.5,507.8 L1059.7,508.5 L1060.0,507.5 L1060.2,503.1 L1060.4,502.5 L1060.7,505.2 L1060.9,504.9 L1061.2,508.7 L1061.4,510.4 L1061.6,511.5 L1061.9,510.0 L1062.1,507.8 L1062.4,509.2 L1062.6,507.2 L1062.8,509.1 L1063.1,513.8 L1063.3,507.3 L1063.6,513.2 L1063.8,510.5 L1064.0,508.3 L1064.3,511.7 L1064.5,515.0 L1064.8,514.7 L1065.0,510.7 L1065.3,515.3 L1065.5,515.4 L1065.7,514.5 L1066.0,517.5 L1066.2,512.0 L1066.5,513.0 L1066.7,515.2 L1066.9,515.4 L1067.2,518.5 L1067.4,515.4 L1067.7,520.0 L1067.9,519.0 L1068.1,516.8 L1068.4,517.7 L1068.6,517.6 L1068.9,516.7 L1069.1,520.1 L1069.3,517.9 L1069.6,522.7 L1069.8,520.7 L1070.1,520.0 L1070.3,523.8 L1070.5,519.9 L1070.8,523.3 L1071.0,520.2 L1071.3,523.1 L1071.5,525.1 L1071.7,525.9 L1072.0,526.1 L1072.2,522.8 L1072.5,525.8 L1072.7,523.8 L1072.9,527.4 L1073.2,525.8 L1073.4,525.0 L1073.7,527.0 L1073.9,527.7 L1074.1,528.9 L1074.4,526.1 L1074.6,530.1 L1074.9,527.3 L1075.1,531.1 L1075.3,527.7 L1075.6,531.7 L1075.8,528.9 L1076.1,530.6 L1076.3,531.1 L1076.5,530.4 L1076.8,533.0 L1077.0,532.9 L1077.3,531.7 L1077.5,534.1 L1077.8,532.8 L1078.0,535.0 L1078.2,534.9 L1078.5,534.0 L1078.7,534.7 L1079.0,534.6 L1079.2,536.0 L1079.4,535.1 L1079.7,536.8 L1079.9,536.3 L1080.2,537.6 L1080.4,537.3 L1080.6,537.8 L1080.9,539.3 L1081.1,538.9 L1081.4,539.3 L1081.6,539.2 L1081.8,540.4 L1082.1,540.8 L1082.3,540.7 L1082.6,540.9 L1082.8,541.2 L1083.0,541.2 L1083.3,542.4 L1083.5,543.0 L1083.8,543.4 L1084.0,543.1" fill="none" stroke="#1f77b4" stroke-width="1.4" opacity="0.85"/><text x="1040" y="54" fill="#ff7f0e" font-size="11">roll 18</text><text x="1090" y="558" fill="#ff7f0e" font-size="11">-18</text><path d="M616.0,310.7 L616.2,310.7 L616.5,310.7 L616.7,309.3 L617.0,309.3 L617.2,310.7 L617.4,310.7 L617.7,309.3 L617.9,310.7 L618.2,310.7 L618.4,312.0 L618.6,310.7 L618.9,312.0 L619.1,309.3 L619.4,312.0 L619.6,309.3 L619.8,309.3 L620.1,310.7 L620.3,310.7 L620.6,310.7 L620.8,310.7 L621.0,309.3 L621.3,309.3 L621.5,312.0 L621.8,312.0 L622.0,310.7 L622.2,309.3 L622.5,309.3 L622.7,309.3 L623.0,309.3 L623.2,309.3 L623.5,310.7 L623.7,312.0 L623.9,310.7 L624.2,310.7 L624.4,310.7 L624.7,309.3 L624.9,310.7 L625.1,312.0 L625.4,309.3 L625.6,312.0 L625.9,312.0 L626.1,312.0 L626.3,312.0 L626.6,310.7 L626.8,312.0 L627.1,309.3 L627.3,312.0 L627.5,310.7 L627.8,312.0 L628.0,310.7 L628.3,312.0 L628.5,312.0 L628.7,312.0 L629.0,310.7 L629.2,312.0 L629.5,310.7 L629.7,312.0 L629.9,310.7 L630.2,309.3 L630.4,310.7 L630.7,309.3 L630.9,312.0 L631.1,310.7 L631.4,310.7 L631.6,310.7 L631.9,310.7 L632.1,309.3 L632.3,310.7 L632.6,310.7 L632.8,309.3 L633.1,309.3 L633.3,309.3 L633.5,310.7 L633.8,312.0 L634.0,312.0 L634.3,310.7 L634.5,310.7 L634.7,310.7 L635.0,309.3 L635.2,309.3 L635.5,310.7 L635.7,309.3 L636.0,310.7 L636.2,309.3 L636.4,309.3 L636.7,309.3 L636.9,310.7 L637.2,309.3 L637.4,309.3 L637.6,312.0 L637.9,310.7 L638.1,310.7 L638.4,310.7 L638.6,310.7 L638.8,310.7 L639.1,309.3 L639.3,310.7 L639.6,309.3 L639.8,310.7 L640.0,309.3 L640.3,312.0 L640.5,312.0 L640.8,310.7 L641.0,310.7 L641.2,310.7 L641.5,310.7 L641.7,312.0 L642.0,310.7 L642.2,310.7 L642.4,310.7 L642.7,309.3 L642.9,310.7 L643.2,310.7 L643.4,309.3 L643.6,310.7 L643.9,310.7 L644.1,312.0 L644.4,310.7 L644.6,310.7 L644.8,312.0 L645.1,309.3 L645.3,309.3 L645.6,309.3 L645.8,310.7 L646.0,310.7 L646.3,310.7 L646.5,312.0 L646.8,310.7 L647.0,310.7 L647.2,310.7 L647.5,312.0 L647.7,310.7 L648.0,310.7 L648.2,312.0 L648.4,310.7 L648.7,309.3 L648.9,309.3 L649.2,310.7 L649.4,312.0 L649.7,310.7 L649.9,309.3 L650.1,312.0 L650.4,312.0 L650.6,309.3 L650.9,312.0 L651.1,310.7 L651.3,309.3 L651.6,312.0 L651.8,309.3 L652.1,310.7 L652.3,310.7 L652.5,310.7 L652.8,309.3 L653.0,309.3 L653.3,309.3 L653.5,310.7 L653.7,310.7 L654.0,312.0 L654.2,310.7 L654.5,310.7 L654.7,309.3 L654.9,309.3 L655.2,309.3 L655.4,310.7 L655.7,310.7 L655.9,309.3 L656.1,310.7 L656.4,310.7 L656.6,312.0 L656.9,310.7 L657.1,310.7 L657.3,310.7 L657.6,310.7 L657.8,309.3 L658.1,309.3 L658.3,309.3 L658.5,310.7 L658.8,309.3 L659.0,310.7 L659.3,309.3 L659.5,310.7 L659.7,310.7 L660.0,309.3 L660.2,310.7 L660.5,309.3 L660.7,312.0 L660.9,309.3 L661.2,309.3 L661.4,310.7 L661.7,310.7 L661.9,310.7 L662.2,310.7 L662.4,309.3 L662.6,312.0 L662.9,309.3 L663.1,310.7 L663.4,310.7 L663.6,309.3 L663.8,310.7 L664.1,309.3 L664.3,310.7 L664.6,310.7 L664.8,310.7 L665.0,312.0 L665.3,309.3 L665.5,309.3 L665.8,309.3 L666.0,309.3 L666.2,309.3 L666.5,310.7 L666.7,310.7 L667.0,310.7 L667.2,310.7 L667.4,310.7 L667.7,309.3 L667.9,310.7 L668.2,309.3 L668.4,310.7 L668.6,310.7 L668.9,309.3 L669.1,312.0 L669.4,312.0 L669.6,310.7 L669.8,310.7 L670.1,309.3 L670.3,310.7 L670.6,310.7 L670.8,310.7 L671.0,310.7 L671.3,310.7 L671.5,309.3 L671.8,312.0 L672.0,310.7 L672.2,310.7 L672.5,312.0 L672.7,310.7 L673.0,310.7 L673.2,310.7 L673.4,312.0 L673.7,312.0 L673.9,310.7 L674.2,312.0 L674.4,310.7 L674.7,310.7 L674.9,310.7 L675.1,310.7 L675.4,310.7 L675.6,310.7 L675.9,309.3 L676.1,310.7 L676.3,310.7 L676.6,310.7 L676.8,312.0 L677.1,310.7 L677.3,310.7 L677.5,309.3 L677.8,310.7 L678.0,309.3 L678.3,310.7 L678.5,310.7 L678.7,310.7 L679.0,309.3 L679.2,312.0 L679.5,310.7 L679.7,309.3 L679.9,310.7 L680.2,312.0 L680.4,310.7 L680.7,309.3 L680.9,309.3 L681.1,310.7 L681.4,309.3 L681.6,310.7 L681.9,312.0 L682.1,310.7 L682.3,310.7 L682.6,309.3 L682.8,312.0 L683.1,312.0 L683.3,310.7 L683.5,310.7 L683.8,309.3 L684.0,310.7 L684.3,310.7 L684.5,312.0 L684.7,312.0 L685.0,309.3 L685.2,309.3 L685.5,312.0 L685.7,310.7 L685.9,310.7 L686.2,309.3 L686.4,310.7 L686.7,310.7 L686.9,310.7 L687.1,312.0 L687.4,309.3 L687.6,310.7 L687.9,310.7 L688.1,310.7 L688.4,310.7 L688.6,310.7 L688.8,310.7 L689.1,310.7 L689.3,312.0 L689.6,312.0 L689.8,305.4 L690.0,289.8 L690.3,283.3 L690.5,266.3 L690.8,259.8 L691.0,254.6 L691.2,242.9 L691.5,223.3 L691.7,228.5 L692.0,212.9 L692.2,197.2 L692.4,203.8 L692.7,203.8 L692.9,190.7 L693.2,193.3 L693.4,182.9 L693.6,162.0 L693.9,172.5 L694.1,163.3 L694.4,163.3 L694.6,163.3 L694.8,158.1 L695.1,158.1 L695.3,126.8 L695.6,122.9 L695.8,129.4 L696.0,136.0 L696.3,124.2 L696.5,129.4 L696.8,121.6 L697.0,107.3 L697.2,124.2 L697.5,122.9 L697.7,112.5 L698.0,142.5 L698.2,133.4 L698.4,126.8 L698.7,102.1 L698.9,141.2 L699.2,120.3 L699.4,125.5 L699.6,141.2 L699.9,130.8 L700.1,139.9 L700.4,129.4 L700.6,117.7 L700.9,137.3 L701.1,158.1 L701.3,120.3 L701.6,152.9 L701.8,159.4 L702.1,134.7 L702.3,156.8 L702.5,133.4 L702.8,139.9 L703.0,145.1 L703.3,136.0 L703.5,158.1 L703.7,147.7 L704.0,152.9 L704.2,150.3 L704.5,139.9 L704.7,129.4 L704.9,132.1 L705.2,151.6 L705.4,163.3 L705.7,141.2 L705.9,171.2 L706.1,156.8 L706.4,184.2 L706.6,176.4 L706.9,184.2 L707.1,189.4 L707.3,195.9 L707.6,193.3 L707.8,173.8 L708.1,180.3 L708.3,171.2 L708.5,164.6 L708.8,193.3 L709.0,190.7 L709.3,209.0 L709.5,207.7 L709.7,210.3 L710.0,199.8 L710.2,220.7 L710.5,189.4 L710.7,228.5 L710.9,214.2 L711.2,223.3 L711.4,218.1 L711.7,223.3 L711.9,219.4 L712.1,236.3 L712.4,227.2 L712.6,235.0 L712.9,241.6 L713.1,227.2 L713.3,244.2 L713.6,219.4 L713.8,245.5 L714.1,235.0 L714.3,223.3 L714.6,235.0 L714.8,225.9 L715.0,207.7 L715.3,215.5 L715.5,229.8 L715.8,225.9 L716.0,240.3 L716.2,233.7 L716.5,227.2 L716.7,237.6 L717.0,233.7 L717.2,239.0 L717.4,229.8 L717.7,232.4 L717.9,245.5 L718.2,241.6 L718.4,253.3 L718.6,239.0 L718.9,242.9 L719.1,241.6 L719.4,244.2 L719.6,266.3 L719.8,255.9 L720.1,265.0 L720.3,253.3 L720.6,274.2 L720.8,261.1 L721.0,248.1 L721.3,258.5 L721.5,275.5 L721.8,259.8 L722.0,263.7 L722.2,275.5 L722.5,282.0 L722.7,279.4 L723.0,261.1 L723.2,254.6 L723.4,274.2 L723.7,254.6 L723.9,265.0 L724.2,259.8 L724.4,275.5 L724.6,268.9 L724.9,255.9 L725.1,272.8 L725.4,255.9 L725.6,262.4 L725.8,270.2 L726.1,265.0 L726.3,263.7 L726.6,272.8 L726.8,262.4 L727.1,267.6 L727.3,266.3 L727.5,278.1 L727.8,272.8 L728.0,282.0 L728.3,271.5 L728.5,262.4 L728.7,278.1 L729.0,272.8 L729.2,282.0 L729.5,291.1 L729.7,279.4 L729.9,279.4 L730.2,271.5 L730.4,284.6 L730.7,298.9 L730.9,284.6 L731.1,270.2 L731.4,285.9 L731.6,288.5 L731.9,278.1 L732.1,289.8 L732.3,300.2 L732.6,289.8 L732.8,272.8 L733.1,291.1 L733.3,276.8 L733.5,292.4 L733.8,291.1 L734.0,282.0 L734.3,288.5 L734.5,288.5 L734.7,305.4 L735.0,288.5 L735.2,300.2 L735.5,287.2 L735.7,301.5 L735.9,285.9 L736.2,293.7 L736.4,280.7 L736.7,297.6 L736.9,283.3 L737.1,275.5 L737.4,274.2 L737.6,278.1 L737.9,292.4 L738.1,275.5 L738.3,293.7 L738.6,278.1 L738.8,280.7 L739.1,292.4 L739.3,282.0 L739.6,296.3 L739.8,298.9 L740.0,284.6 L740.3,278.1 L740.5,279.4 L740.8,297.6 L741.0,295.0 L741.2,288.5 L741.5,298.9 L741.7,309.3 L742.0,297.6 L742.2,312.0 L742.4,313.3 L742.7,298.9 L742.9,313.3 L743.2,327.6 L743.4,310.7 L743.6,322.4 L743.9,317.2 L744.1,328.9 L744.4,314.6 L744.6,327.6 L744.8,314.6 L745.1,327.6 L745.3,317.2 L745.6,304.1 L745.8,317.2 L746.0,305.4 L746.3,317.2 L746.5,305.4 L746.8,313.3 L747.0,302.8 L747.2,288.5 L747.5,304.1 L747.7,292.4 L748.0,305.4 L748.2,318.5 L748.4,317.2 L748.7,319.8 L748.9,306.7 L749.2,309.3 L749.4,321.1 L749.6,331.5 L749.9,328.9 L750.1,313.3 L750.4,327.6 L750.6,314.6 L750.8,325.0 L751.1,334.1 L751.3,331.5 L751.6,328.9 L751.8,317.2 L752.0,330.2 L752.3,321.1 L752.5,332.8 L752.8,322.4 L753.0,334.1 L753.3,322.4 L753.5,334.1 L753.7,323.7 L754.0,313.3 L754.2,325.0 L754.5,335.4 L754.7,323.7 L754.9,334.1 L755.2,321.1 L755.4,334.1 L755.7,322.4 L755.9,330.2 L756.1,341.9 L756.4,326.3 L756.6,338.0 L756.9,339.3 L757.1,328.9 L757.3,327.6 L757.6,341.9 L757.8,334.1 L758.1,314.6 L758.3,327.6 L758.5,336.7 L758.8,355.0 L759.0,332.8 L759.3,349.8 L759.5,332.8 L759.7,344.5 L760.0,339.3 L760.2,328.9 L760.5,336.7 L760.7,331.5 L760.9,341.9 L761.2,341.9 L761.4,328.9 L761.7,344.5 L761.9,327.6 L762.1,336.7 L762.4,352.4 L762.6,336.7 L762.9,348.5 L763.1,334.1 L763.3,349.8 L763.6,339.3 L763.8,358.9 L764.1,345.8 L764.3,362.8 L764.5,345.8 L764.8,357.6 L765.0,348.5 L765.3,360.2 L765.5,351.1 L765.8,356.3 L766.0,370.6 L766.2,353.7 L766.5,361.5 L766.7,375.8 L767.0,366.7 L767.2,355.0 L767.4,348.5 L767.7,364.1 L767.9,364.1 L768.2,347.2 L768.4,332.8 L768.6,344.5 L768.9,336.7 L769.1,344.5 L769.4,330.2 L769.6,343.2 L769.8,336.7 L770.1,325.0 L770.3,338.0 L770.6,345.8 L770.8,357.6 L771.0,338.0 L771.3,345.8 L771.5,352.4 L771.8,356.3 L772.0,366.7 L772.2,368.0 L772.5,369.3 L772.7,381.0 L773.0,373.2 L773.2,355.0 L773.4,370.6 L773.7,374.5 L773.9,364.1 L774.2,382.4 L774.4,375.8 L774.6,365.4 L774.9,358.9 L775.1,370.6 L775.4,362.8 L775.6,368.0 L775.8,357.6 L776.1,365.4 L776.3,386.3 L776.6,361.5 L776.8,371.9 L777.0,368.0 L777.3,379.7 L777.5,365.4 L777.8,374.5 L778.0,373.2 L778.2,394.1 L778.5,391.5 L778.7,374.5 L779.0,387.6 L779.2,373.2 L779.5,385.0 L779.7,391.5 L779.9,403.2 L780.2,382.4 L780.4,395.4 L780.7,390.2 L780.9,374.5 L781.1,378.4 L781.4,385.0 L781.6,379.7 L781.9,387.6 L782.1,383.7 L782.3,377.1 L782.6,375.8 L782.8,391.5 L783.1,392.8 L783.3,368.0 L783.5,383.7 L783.8,395.4 L784.0,396.7 L784.3,371.9 L784.5,378.4 L784.7,378.4 L785.0,374.5 L785.2,358.9 L785.5,364.1 L785.7,373.2 L785.9,369.3 L786.2,370.6 L786.4,357.6 L786.7,366.7 L786.9,362.8 L787.1,353.7 L787.4,360.2 L787.6,364.1 L787.9,362.8 L788.1,356.3 L788.3,364.1 L788.6,370.6 L788.8,378.4 L789.1,385.0 L789.3,366.7 L789.5,378.4 L789.8,364.1 L790.0,365.4 L790.3,357.6 L790.5,364.1 L790.7,377.1 L791.0,364.1 L791.2,385.0 L791.5,366.7 L791.7,381.0 L792.0,368.0 L792.2,366.7 L792.4,381.0 L792.7,364.1 L792.9,370.6 L793.2,356.3 L793.4,362.8 L793.6,351.1 L793.9,365.4 L794.1,353.7 L794.4,362.8 L794.6,348.5 L794.8,356.3 L795.1,344.5 L795.3,347.2 L795.6,366.7 L795.8,373.2 L796.0,353.7 L796.3,364.1 L796.5,366.7 L796.8,383.7 L797.0,358.9 L797.2,374.5 L797.5,357.6 L797.7,370.6 L798.0,383.7 L798.2,382.4 L798.4,368.0 L798.7,385.0 L798.9,395.4 L799.2,373.2 L799.4,382.4 L799.6,369.3 L799.9,368.0 L800.1,377.1 L800.4,378.4 L800.6,387.6 L800.8,383.7 L801.1,377.1 L801.3,382.4 L801.6,379.7 L801.8,364.1 L802.0,386.3 L802.3,386.3 L802.5,370.6 L802.8,353.7 L803.0,368.0 L803.2,365.4 L803.5,382.4 L803.7,381.0 L804.0,378.4 L804.2,375.8 L804.4,398.0 L804.7,378.4 L804.9,391.5 L805.2,375.8 L805.4,394.1 L805.7,388.9 L805.9,386.3 L806.1,381.0 L806.4,379.7 L806.6,396.7 L806.9,368.0 L807.1,375.8 L807.3,360.2 L807.6,378.4 L807.8,361.5 L808.1,369.3 L808.3,385.0 L808.5,362.8 L808.8,374.5 L809.0,378.4 L809.3,396.7 L809.5,377.1 L809.7,392.8 L810.0,394.1 L810.2,368.0 L810.5,371.9 L810.7,374.5 L810.9,378.4 L811.2,375.8 L811.4,394.1 L811.7,381.0 L811.9,371.9 L812.1,387.6 L812.4,373.2 L812.6,370.6 L812.9,366.7 L813.1,368.0 L813.3,361.5 L813.6,375.8 L813.8,381.0 L814.1,377.1 L814.3,370.6 L814.5,378.4 L814.8,378.4 L815.0,381.0 L815.3,374.5 L815.5,378.4 L815.7,383.7 L816.0,392.8 L816.2,385.0 L816.5,392.8 L816.7,394.1 L816.9,394.1 L817.2,387.6 L817.4,403.2 L817.7,382.4 L817.9,374.5 L818.2,382.4 L818.4,388.9 L818.6,392.8 L818.9,385.0 L819.1,391.5 L819.4,398.0 L819.6,379.7 L819.8,390.2 L820.1,373.2 L820.3,375.8 L820.6,383.7 L820.8,392.8 L821.0,401.9 L821.3,383.7 L821.5,373.2 L821.8,377.1 L822.0,391.5 L822.2,394.1 L822.5,382.4 L822.7,386.3 L823.0,375.8 L823.2,396.7 L823.4,382.4 L823.7,388.9 L823.9,370.6 L824.2,368.0 L824.4,383.7 L824.6,377.1 L824.9,368.0 L825.1,375.8 L825.4,388.9 L825.6,394.1 L825.8,401.9 L826.1,413.6 L826.3,434.5 L826.6,413.6 L826.8,447.5 L827.0,443.6 L827.3,435.8 L827.5,439.7 L827.8,448.8 L828.0,446.2 L828.2,458.0 L828.5,456.7 L828.7,461.9 L829.0,477.5 L829.2,482.7 L829.4,494.5 L829.7,464.5 L829.9,497.1 L830.2,474.9 L830.4,486.6 L830.7,486.6 L830.9,511.4 L831.1,478.8 L831.4,508.8 L831.6,506.2 L831.9,489.2 L832.1,503.6 L832.3,510.1 L832.6,491.9 L832.8,519.2 L833.1,493.2 L833.3,521.8 L833.5,486.6 L833.8,491.9 L834.0,519.2 L834.3,487.9 L834.5,499.7 L834.7,494.5 L835.0,486.6 L835.2,527.1 L835.5,511.4 L835.7,521.8 L835.9,502.3 L836.2,520.5 L836.4,490.6 L836.7,503.6 L836.9,520.5 L837.1,508.8 L837.4,510.1 L837.6,521.8 L837.9,519.2 L838.1,531.0 L838.3,499.7 L838.6,510.1 L838.8,497.1 L839.1,528.4 L839.3,529.7 L839.5,517.9 L839.8,531.0 L840.0,517.9 L840.3,514.0 L840.5,527.1 L840.7,494.5 L841.0,515.3 L841.2,531.0 L841.5,508.8 L841.7,517.9 L841.9,507.5 L842.2,511.4 L842.4,511.4 L842.7,528.4 L842.9,521.8 L843.1,521.8 L843.4,498.4 L843.6,511.4 L843.9,536.2 L844.1,524.4 L844.4,516.6 L844.6,515.3 L844.8,501.0 L845.1,515.3 L845.3,533.6 L845.6,498.4 L845.8,502.3 L846.0,510.1 L846.3,510.1 L846.5,517.9 L846.8,508.8 L847.0,521.8 L847.2,512.7 L847.5,525.7 L847.7,540.1 L848.0,531.0 L848.2,531.0 L848.4,525.7 L848.7,538.8 L848.9,494.5 L849.2,540.1 L849.4,516.6 L849.6,493.2 L849.9,527.1 L850.1,523.1 L850.4,514.0 L850.6,536.2 L850.8,528.4 L851.1,515.3 L851.3,517.9 L851.6,506.2 L851.8,510.1 L852.0,511.4 L852.3,512.7 L852.5,499.7 L852.8,521.8 L853.0,532.3 L853.2,527.1 L853.5,519.2 L853.7,528.4 L854.0,523.1 L854.2,527.1 L854.4,507.5 L854.7,506.2 L854.9,523.1 L855.2,508.8 L855.4,511.4 L855.6,503.6 L855.9,529.7 L856.1,519.2 L856.4,515.3 L856.6,517.9 L856.9,538.8 L857.1,498.4 L857.3,506.2 L857.6,540.1 L857.8,527.1 L858.1,528.4 L858.3,507.5 L858.5,529.7 L858.8,531.0 L859.0,510.1 L859.3,501.0 L859.5,542.7 L859.7,532.3 L860.0,503.6 L860.2,538.8 L860.5,497.1 L860.7,498.4 L860.9,499.7 L861.2,511.4 L861.4,533.6 L861.7,519.2 L861.9,507.5 L862.1,512.7 L862.4,517.9 L862.6,503.6 L862.9,540.1 L863.1,512.7 L863.3,519.2 L863.6,521.8 L863.8,516.6 L864.1,538.8 L864.3,511.4 L864.5,525.7 L864.8,519.2 L865.0,516.6 L865.3,502.3 L865.5,520.5 L865.7,528.4 L866.0,524.4 L866.2,506.2 L866.5,503.6 L866.7,542.7 L866.9,524.4 L867.2,538.8 L867.4,515.3 L867.7,512.7 L867.9,506.2 L868.1,521.8 L868.4,511.4 L868.6,504.9 L868.9,515.3 L869.1,520.5 L869.3,519.2 L869.6,508.8 L869.8,532.3 L870.1,540.1 L870.3,503.6 L870.6,520.5 L870.8,532.3 L871.0,525.7 L871.3,533.6 L871.5,537.5 L871.8,529.7 L872.0,499.7 L872.2,531.0 L872.5,524.4 L872.7,537.5 L873.0,490.6 L873.2,508.8 L873.4,498.4 L873.7,528.4 L873.9,527.1 L874.2,531.0 L874.4,519.2 L874.6,497.1 L874.9,516.6 L875.1,521.8 L875.4,523.1 L875.6,525.7 L875.8,516.6 L876.1,511.4 L876.3,533.6 L876.6,517.9 L876.8,523.1 L877.0,538.8 L877.3,499.7 L877.5,534.9 L877.8,493.2 L878.0,524.4 L878.2,499.7 L878.5,508.8 L878.7,510.1 L879.0,531.0 L879.2,486.6 L879.4,511.4 L879.7,503.6 L879.9,503.6 L880.2,514.0 L880.4,519.2 L880.6,511.4 L880.9,494.5 L881.1,506.2 L881.4,523.1 L881.6,511.4 L881.8,511.4 L882.1,528.4 L882.3,524.4 L882.6,536.2 L882.8,501.0 L883.1,531.0 L883.3,495.8 L883.5,511.4 L883.8,497.1 L884.0,538.8 L884.3,524.4 L884.5,493.2 L884.7,527.1 L885.0,491.9 L885.2,503.6 L885.5,504.9 L885.7,525.7 L885.9,529.7 L886.2,498.4 L886.4,529.7 L886.7,503.6 L886.9,498.4 L887.1,504.9 L887.4,523.1 L887.6,531.0 L887.9,490.6 L888.1,504.9 L888.3,510.1 L888.6,507.5 L888.8,504.9 L889.1,528.4 L889.3,504.9 L889.5,533.6 L889.8,502.3 L890.0,515.3 L890.3,508.8 L890.5,523.1 L890.7,503.6 L891.0,503.6 L891.2,512.7 L891.5,494.5 L891.7,504.9 L891.9,515.3 L892.2,532.3 L892.4,521.8 L892.7,516.6 L892.9,514.0 L893.1,525.7 L893.4,527.1 L893.6,507.5 L893.9,538.8 L894.1,520.5 L894.3,525.7 L894.6,523.1 L894.8,503.6 L895.1,524.4 L895.3,528.4 L895.6,517.9 L895.8,523.1 L896.0,516.6 L896.3,501.0 L896.5,508.8 L896.8,514.0 L897.0,511.4 L897.2,524.4 L897.5,506.2 L897.7,529.7 L898.0,536.2 L898.2,529.7 L898.4,538.8 L898.7,497.1 L898.9,532.3 L899.2,520.5 L899.4,498.4 L899.6,540.1 L899.9,497.1 L900.1,536.2 L900.4,502.3 L900.6,532.3 L900.8,487.9 L901.1,507.5 L901.3,493.2 L901.6,512.7 L901.8,520.5 L902.0,515.3 L902.3,525.7 L902.5,511.4 L902.8,523.1 L903.0,524.4 L903.2,501.0 L903.5,510.1 L903.7,519.2 L904.0,519.2 L904.2,525.7 L904.4,502.3 L904.7,512.7 L904.9,515.3 L905.2,502.3 L905.4,540.1 L905.6,524.4 L905.9,523.1 L906.1,516.6 L906.4,512.7 L906.6,517.9 L906.8,525.7 L907.1,502.3 L907.3,502.3 L907.6,501.0 L907.8,533.6 L908.0,495.8 L908.3,541.4 L908.5,519.2 L908.8,507.5 L909.0,498.4 L909.3,523.1 L909.5,511.4 L909.7,514.0 L910.0,511.4 L910.2,523.1 L910.5,529.7 L910.7,525.7 L910.9,510.1 L911.2,510.1 L911.4,508.8 L911.7,537.5 L911.9,525.7 L912.1,524.4 L912.4,536.2 L912.6,503.6 L912.9,532.3 L913.1,525.7 L913.3,521.8 L913.6,528.4 L913.8,508.8 L914.1,534.9 L914.3,536.2 L914.5,508.8 L914.8,501.0 L915.0,517.9 L915.3,508.8 L915.5,501.0 L915.7,527.1 L916.0,528.4 L916.2,515.3 L916.5,508.8 L916.7,536.2 L916.9,498.4 L917.2,527.1 L917.4,515.3 L917.7,523.1 L917.9,503.6 L918.1,537.5 L918.4,515.3 L918.6,506.2 L918.9,534.9 L919.1,520.5 L919.3,536.2 L919.6,514.0 L919.8,540.1 L920.1,525.7 L920.3,531.0 L920.5,516.6 L920.8,529.7 L921.0,519.2 L921.3,517.9 L921.5,503.6 L921.8,544.0 L922.0,514.0 L922.2,517.9 L922.5,524.4 L922.7,499.7 L923.0,540.1 L923.2,491.9 L923.4,532.3 L923.7,512.7 L923.9,501.0 L924.2,514.0 L924.4,534.9 L924.6,523.1 L924.9,531.0 L925.1,527.1 L925.4,493.2 L925.6,497.1 L925.8,524.4 L926.1,497.1 L926.3,527.1 L926.6,527.1 L926.8,516.6 L927.0,525.7 L927.3,502.3 L927.5,525.7 L927.8,498.4 L928.0,497.1 L928.2,506.2 L928.5,536.2 L928.7,490.6 L929.0,523.1 L929.2,528.4 L929.4,520.5 L929.7,507.5 L929.9,516.6 L930.2,517.9 L930.4,503.6 L930.6,499.7 L930.9,516.6 L931.1,515.3 L931.4,532.3 L931.6,508.8 L931.8,524.4 L932.1,531.0 L932.3,531.0 L932.6,531.0 L932.8,510.1 L933.0,520.5 L933.3,529.7 L933.5,493.2 L933.8,519.2 L934.0,506.2 L934.2,520.5 L934.5,514.0 L934.7,525.7 L935.0,514.0 L935.2,497.1 L935.5,517.9 L935.7,515.3 L935.9,540.1 L936.2,503.6 L936.4,540.1 L936.7,495.8 L936.9,497.1 L937.1,521.8 L937.4,508.8 L937.6,508.8 L937.9,506.2 L938.1,510.1 L938.3,489.2 L938.6,516.6 L938.8,494.5 L939.1,497.1 L939.3,515.3 L939.5,502.3 L939.8,495.8 L940.0,478.8 L940.3,499.7 L940.5,507.5 L940.7,455.4 L941.0,487.9 L941.2,460.6 L941.5,464.5 L941.7,465.8 L941.9,501.0 L942.2,493.2 L942.4,444.9 L942.7,430.6 L942.9,442.3 L943.1,441.0 L943.4,469.7 L943.6,448.8 L943.9,461.9 L944.1,434.5 L944.3,426.7 L944.6,446.2 L944.8,434.5 L945.1,428.0 L945.3,401.9 L945.5,414.9 L945.8,404.5 L946.0,377.1 L946.3,365.4 L946.5,378.4 L946.7,382.4 L947.0,387.6 L947.2,395.4 L947.5,404.5 L947.7,387.6 L948.0,375.8 L948.2,368.0 L948.4,370.6 L948.7,383.7 L948.9,399.3 L949.2,373.2 L949.4,360.2 L949.6,347.2 L949.9,328.9 L950.1,318.5 L950.4,302.8 L950.6,291.1 L950.8,274.2 L951.1,293.7 L951.3,305.4 L951.6,293.7 L951.8,309.3 L952.0,322.4 L952.3,332.8 L952.5,317.2 L952.8,305.4 L953.0,296.3 L953.2,308.0 L953.5,296.3 L953.7,280.7 L954.0,265.0 L954.2,259.8 L954.4,250.7 L954.7,228.5 L954.9,224.6 L955.2,254.6 L955.4,263.7 L955.6,279.4 L955.9,270.2 L956.1,252.0 L956.4,266.3 L956.6,284.6 L956.8,301.5 L957.1,312.0 L957.3,297.6 L957.6,312.0 L957.8,298.9 L958.0,284.6 L958.3,274.2 L958.5,265.0 L958.8,258.5 L959.0,246.8 L959.2,240.3 L959.5,232.4 L959.7,219.4 L960.0,209.0 L960.2,223.3 L960.4,216.8 L960.7,194.6 L960.9,190.7 L961.2,190.7 L961.4,210.3 L961.7,203.8 L961.9,203.8 L962.1,188.1 L962.4,181.6 L962.6,168.6 L962.9,207.7 L963.1,188.1 L963.3,197.2 L963.6,185.5 L963.8,179.0 L964.1,198.5 L964.3,202.5 L964.5,180.3 L964.8,185.5 L965.0,214.2 L965.3,199.8 L965.5,209.0 L965.7,206.4 L966.0,224.6 L966.2,212.9 L966.5,212.9 L966.7,194.6 L966.9,190.7 L967.2,188.1 L967.4,176.4 L967.7,184.2 L967.9,180.3 L968.1,156.8 L968.4,156.8 L968.6,156.8 L968.9,167.3 L969.1,143.8 L969.3,137.3 L969.6,130.8 L969.8,130.8 L970.1,151.6 L970.3,132.1 L970.5,142.5 L970.8,143.8 L971.0,107.3 L971.3,126.8 L971.5,119.0 L971.7,154.2 L972.0,132.1 L972.2,121.6 L972.5,119.0 L972.7,129.4 L972.9,108.6 L973.2,111.2 L973.4,133.4 L973.7,108.6 L973.9,133.4 L974.2,147.7 L974.4,113.8 L974.6,141.2 L974.9,124.2 L975.1,147.7 L975.4,145.1 L975.6,168.6 L975.8,179.0 L976.1,151.6 L976.3,188.1 L976.6,177.7 L976.8,169.9 L977.0,175.1 L977.3,194.6 L977.5,214.2 L977.8,205.1 L978.0,198.5 L978.2,179.0 L978.5,190.7 L978.7,182.9 L979.0,154.2 L979.2,180.3 L979.4,172.5 L979.7,171.2 L979.9,163.3 L980.2,163.3 L980.4,154.2 L980.6,154.2 L980.9,147.7 L981.1,158.1 L981.4,122.9 L981.6,141.2 L981.8,124.2 L982.1,162.0 L982.3,133.4 L982.6,137.3 L982.8,130.8 L983.0,126.8 L983.3,151.6 L983.5,147.7 L983.8,147.7 L984.0,116.4 L984.2,133.4 L984.5,124.2 L984.7,125.5 L985.0,134.7 L985.2,128.1 L985.4,122.9 L985.7,128.1 L985.9,129.4 L986.2,111.2 L986.4,128.1 L986.7,125.5 L986.9,126.8 L987.1,113.8 L987.4,121.6 L987.6,121.6 L987.9,106.0 L988.1,96.9 L988.3,92.9 L988.6,122.9 L988.8,121.6 L989.1,90.3 L989.3,122.9 L989.5,117.7 L989.8,124.2 L990.0,117.7 L990.3,79.9 L990.5,96.9 L990.7,104.7 L991.0,122.9 L991.2,77.3 L991.5,125.5 L991.7,108.6 L991.9,98.2 L992.2,129.4 L992.4,107.3 L992.7,122.9 L992.9,122.9 L993.1,100.8 L993.4,109.9 L993.6,112.5 L993.9,98.2 L994.1,102.1 L994.3,112.5 L994.6,95.6 L994.8,113.8 L995.1,100.8 L995.3,122.9 L995.5,95.6 L995.8,104.7 L996.0,119.0 L996.3,86.4 L996.5,106.0 L996.7,87.7 L997.0,115.1 L997.2,98.2 L997.5,107.3 L997.7,98.2 L997.9,89.0 L998.2,117.7 L998.4,94.3 L998.7,98.2 L998.9,108.6 L999.1,102.1 L999.4,115.1 L999.6,86.4 L999.9,120.3 L1000.1,83.8 L1000.4,116.4 L1000.6,86.4 L1000.8,124.2 L1001.1,121.6 L1001.3,119.0 L1001.6,124.2 L1001.8,100.8 L1002.0,102.1 L1002.3,86.4 L1002.5,100.8 L1002.8,119.0 L1003.0,81.2 L1003.2,100.8 L1003.5,102.1 L1003.7,120.3 L1004.0,89.0 L1004.2,124.2 L1004.4,82.5 L1004.7,134.7 L1004.9,126.8 L1005.2,109.9 L1005.4,120.3 L1005.6,115.1 L1005.9,109.9 L1006.1,120.3 L1006.4,85.1 L1006.6,113.8 L1006.8,111.2 L1007.1,87.7 L1007.3,120.3 L1007.6,94.3 L1007.8,107.3 L1008.0,106.0 L1008.3,121.6 L1008.5,104.7 L1008.8,98.2 L1009.0,90.3 L1009.2,89.0 L1009.5,92.9 L1009.7,122.9 L1010.0,107.3 L1010.2,115.1 L1010.4,100.8 L1010.7,87.7 L1010.9,130.8 L1011.2,90.3 L1011.4,111.2 L1011.6,95.6 L1011.9,112.5 L1012.1,107.3 L1012.4,87.7 L1012.6,104.7 L1012.9,125.5 L1013.1,124.2 L1013.3,92.9 L1013.6,99.5 L1013.8,95.6 L1014.1,111.2 L1014.3,83.8 L1014.5,107.3 L1014.8,91.6 L1015.0,126.8 L1015.3,106.0 L1015.5,129.4 L1015.7,96.9 L1016.0,107.3 L1016.2,95.6 L1016.5,99.5 L1016.7,96.9 L1016.9,121.6 L1017.2,90.3 L1017.4,112.5 L1017.7,117.7 L1017.9,104.7 L1018.1,121.6 L1018.4,82.5 L1018.6,122.9 L1018.9,117.7 L1019.1,125.5 L1019.3,81.2 L1019.6,117.7 L1019.8,86.4 L1020.1,125.5 L1020.3,116.4 L1020.5,124.2 L1020.8,108.6 L1021.0,96.9 L1021.3,98.2 L1021.5,113.8 L1021.7,91.6 L1022.0,129.4 L1022.2,120.3 L1022.5,121.6 L1022.7,91.6 L1022.9,132.1 L1023.2,119.0 L1023.4,95.6 L1023.7,109.9 L1023.9,126.8 L1024.1,91.6 L1024.4,116.4 L1024.6,90.3 L1024.9,95.6 L1025.1,108.6 L1025.3,117.7 L1025.6,102.1 L1025.8,116.4 L1026.1,104.7 L1026.3,92.9 L1026.6,115.1 L1026.8,98.2 L1027.0,87.7 L1027.3,112.5 L1027.5,94.3 L1027.8,87.7 L1028.0,89.0 L1028.2,116.4 L1028.5,122.9 L1028.7,120.3 L1029.0,107.3 L1029.2,122.9 L1029.4,106.0 L1029.7,111.2 L1029.9,115.1 L1030.2,79.9 L1030.4,90.3 L1030.6,111.2 L1030.9,102.1 L1031.1,98.2 L1031.4,99.5 L1031.6,117.7 L1031.8,90.3 L1032.1,106.0 L1032.3,95.6 L1032.6,115.1 L1032.8,94.3 L1033.0,83.8 L1033.3,116.4 L1033.5,100.8 L1033.8,125.5 L1034.0,107.3 L1034.2,107.3 L1034.5,85.1 L1034.7,119.0 L1035.0,104.7 L1035.2,106.0 L1035.4,108.6 L1035.7,91.6 L1035.9,107.3 L1036.2,107.3 L1036.4,122.9 L1036.6,76.0 L1036.9,111.2 L1037.1,92.9 L1037.4,111.2 L1037.6,91.6 L1037.8,103.4 L1038.1,109.9 L1038.3,96.9 L1038.6,87.7 L1038.8,102.1 L1039.1,95.6 L1039.3,98.2 L1039.5,125.5 L1039.8,102.1 L1040.0,102.1 L1040.3,83.8 L1040.5,108.6 L1040.7,107.3 L1041.0,113.8 L1041.2,89.0 L1041.5,121.6 L1041.7,100.8 L1041.9,89.0 L1042.2,109.9 L1042.4,113.8 L1042.7,85.1 L1042.9,120.3 L1043.1,95.6 L1043.4,100.8 L1043.6,115.1 L1043.9,124.2 L1044.1,85.1 L1044.3,126.8 L1044.6,83.8 L1044.8,115.1 L1045.1,126.8 L1045.3,107.3 L1045.5,98.2 L1045.8,117.7 L1046.0,121.6 L1046.3,87.7 L1046.5,108.6 L1046.7,107.3 L1047.0,89.0 L1047.2,90.3 L1047.5,124.2 L1047.7,94.3 L1047.9,94.3 L1048.2,107.3 L1048.4,108.6 L1048.7,90.3 L1048.9,117.7 L1049.1,94.3 L1049.4,92.9 L1049.6,100.8 L1049.9,103.4 L1050.1,87.7 L1050.3,115.1 L1050.6,119.0 L1050.8,108.6 L1051.1,112.5 L1051.3,91.6 L1051.6,111.2 L1051.8,82.5 L1052.0,103.4 L1052.3,124.2 L1052.5,103.4 L1052.8,124.2 L1053.0,87.7 L1053.2,96.9 L1053.5,103.4 L1053.7,112.5 L1054.0,83.8 L1054.2,122.9 L1054.4,91.6 L1054.7,95.6 L1054.9,90.3 L1055.2,99.5 L1055.4,120.3 L1055.6,115.1 L1055.9,115.1 L1056.1,85.1 L1056.4,90.3 L1056.6,116.4 L1056.8,87.7 L1057.1,108.6 L1057.3,106.0 L1057.6,126.8 L1057.8,89.0 L1058.0,113.8 L1058.3,109.9 L1058.5,122.9 L1058.8,87.7 L1059.0,115.1 L1059.2,112.5 L1059.5,112.5 L1059.7,113.8 L1060.0,106.0 L1060.2,96.9 L1060.4,83.8 L1060.7,122.9 L1060.9,96.9 L1061.2,89.0 L1061.4,95.6 L1061.6,96.9 L1061.9,111.2 L1062.1,99.5 L1062.4,107.3 L1062.6,113.8 L1062.8,89.0 L1063.1,94.3 L1063.3,92.9 L1063.6,112.5 L1063.8,111.2 L1064.0,78.6 L1064.3,130.8 L1064.5,99.5 L1064.8,104.7 L1065.0,125.5 L1065.3,87.7 L1065.5,108.6 L1065.7,119.0 L1066.0,90.3 L1066.2,94.3 L1066.5,100.8 L1066.7,86.4 L1066.9,94.3 L1067.2,120.3 L1067.4,83.8 L1067.7,106.0 L1067.9,125.5 L1068.1,112.5 L1068.4,113.8 L1068.6,107.3 L1068.9,99.5 L1069.1,103.4 L1069.3,111.2 L1069.6,109.9 L1069.8,99.5 L1070.1,83.8 L1070.3,124.2 L1070.5,87.7 L1070.8,122.9 L1071.0,83.8 L1071.3,117.7 L1071.5,99.5 L1071.7,92.9 L1072.0,98.2 L1072.2,106.0 L1072.5,113.8 L1072.7,109.9 L1072.9,113.8 L1073.2,115.1 L1073.4,85.1 L1073.7,108.6 L1073.9,90.3 L1074.1,112.5 L1074.4,99.5 L1074.6,109.9 L1074.9,108.6 L1075.1,124.2 L1075.3,98.2 L1075.6,98.2 L1075.8,111.2 L1076.1,115.1 L1076.3,100.8 L1076.5,99.5 L1076.8,96.9 L1077.0,87.7 L1077.3,124.2 L1077.5,86.4 L1077.8,104.7 L1078.0,119.0 L1078.2,111.2 L1078.5,109.9 L1078.7,103.4 L1079.0,103.4 L1079.2,100.8 L1079.4,109.9 L1079.7,107.3 L1079.9,89.0 L1080.2,102.1 L1080.4,117.7 L1080.6,108.6 L1080.9,86.4 L1081.1,109.9 L1081.4,109.9 L1081.6,94.3 L1081.8,115.1 L1082.1,91.6 L1082.3,111.2 L1082.6,107.3 L1082.8,107.3 L1083.0,108.6 L1083.3,151.6 L1083.5,124.2 L1083.8,168.6 L1084.0,150.3" fill="none" stroke="#ff7f0e" stroke-width="1.1" opacity="0.85"/><text x="616" y="572" font-size="11" fill="#888">time 0..39 s — altitude (blue) &amp; roll (orange)</text></svg>