<svg xmlns="http://www.w3.org/2000/svg" width="1140" height="600" font-family="sans-serif" font-size="13"><rect width="1140" height="600" fill="white"/><text x="20" y="26" font-size="15" fill="#333">Coludo flight</text><rect x="20" y="40" width="540" height="540" fill="#fbfbfb" stroke="#ddd"/><rect x="153" y="277" width="304" height="65" fill="#cde" stroke="#369" opacity="0.7"/><text x="153" y="272" fill="#369" font-size="12">landing zone</text><circle cx="345" cy="379" r="5" fill="black"/><text x="353" y="383" font-size="12">pad</text><path d="M345.5,379.1 L345.5,379.1 L345.5,379.1 L345.5,379.1 L345.5,379.1 L345.5,379.1 L345.5,379.1 L345.5,379.1 L345.5,379.1 L345.5,379.1 L345.5,379.1 L345.5,379.1 L345.5,379.1 L345.5,379.1 L345.5,379.1 L345.5,379.1 L345.5,379.1 L345.5,379.1 L345.5,379.1 L345.5,379.1 L345.5,379.1 L345.5,379.1 L345.5,379.1 L345.5,379.1 L345.5,379.1 L345.5,379.1 L345.5,379.1 L345.5,379.1 L345.5,379.1 L345.5,379.1 L345.5,379.1 L345.5,379.1 L345.5,379.1 L345.5,379.1 L345.5,379.1 L345.5,379.1 L345.5,379.1 L345.5,379.1 L345.5,379.1 L345.5,379.1 L345.5,379.1 L345.5,379.1 L345.5,379.1 L345.5,379.1 L345.5,379.1 L345.5,379.1 L345.5,379.1 L345.5,379.1 L345.5,379.1 L345.5,379.1 L345.5,379.1 L345.5,379.1 L345.5,379.1 L345.5,379.1 L345.5,379.1 L345.5,379.1 L345.5,379.1 L345.5,379.1 L345.5,379.1 L345.5,379.1 L345.5,379.1 L345.5,379.1 L345.5,379.1 L345.5,379.1 L345.5,379.1 L345.5,379.1 L345.5,379.1 L345.5,379.1 L345.5,379.1 L345.5,379.1 L345.5,379.1 L345.5,379.1 L345.5,379.1 L345.5,379.1 L345.5,379.1 L345.5,379.1 L345.5,379.1 L345.5,379.1 L345.5,379.1 L345.5,379.1 L345.5,379.1 L345.5,379.1 L345.5,379.1 L345.5,379.1 L345.5,379.1 L345.5,379.1 L345.5,379.1 L345.5,379.1 L345.5,379.1 L345.5,379.1 L345.5,379.1 L345.5,379.1 L345.5,379.1 L345.5,379.1 L345.5,379.1 L345.5,379.1 L345.5,378.4 L346.5,376.2 L348.8,373.7 L350.4,371.5 L351.7,369.7 L352.0,367.2 L353.7,365.0 L355.3,362.8 L356.9,361.0 L358.6,358.8 L360.2,356.7 L361.8,355.2 L362.2,353.1 L363.5,350.9 L366.7,348.7 L367.4,347.3 L368.4,345.5 L371.6,343.3 L372.6,341.1 L373.3,339.3 L376.5,337.5 L377.8,335.3 L378.2,333.5 L381.4,331.7 L383.1,329.9 L384.4,327.7 L386.3,325.9 L388.0,324.5 L389.6,322.3 L391.2,320.5 L392.9,319.0 L393.5,317.6 L396.1,315.8 L398.7,314.3 L399.4,312.5 L402.7,311.1 L404.3,310.0 L405.9,308.6 L409.2,307.5 L410.5,306.4 L412.4,305.3 L414.4,303.8 L417.3,303.1 L419.6,302.4 L422.2,301.7 L424.9,301.0 L427.1,300.2 L428.8,299.5 L432.0,299.1 L433.7,298.8 L436.9,298.4 L438.6,298.1 L440.5,298.1 L445.1,297.7 L446.7,297.7 L450.0,298.1 L452.9,298.1 L453.3,298.4 L456.9,298.4 L458.2,298.8 L463.4,299.1 L463.1,299.9 L466.3,300.2 L468.0,301.0 L471.2,301.7 L472.9,302.8 L476.1,303.1 L478.4,304.2 L481.0,305.3 L483.0,306.7 L484.3,307.8 L487.6,309.3 L489.2,310.4 L490.8,312.2 L492.8,313.6 L495.7,315.4 L497.3,316.9 L498.0,318.7 L500.6,320.5 L502.2,322.3 L503.9,324.5 L504.5,325.9 L507.1,328.5 L508.8,330.3 L509.8,332.8 L510.4,334.6 L510.4,337.1 L512.0,339.3 L513.7,342.9 L515.0,345.5 L515.0,347.6 L515.3,350.2 L515.3,352.7 L516.9,355.2 L516.9,357.8 L516.9,360.7 L516.9,363.2 L516.9,365.7 L516.9,368.3 L516.9,370.8 L516.9,373.0 L515.3,375.9 L515.3,378.0 L515.0,380.6 L515.0,383.1 L513.7,385.3 L512.0,387.4 L510.4,390.3 L510.4,392.1 L509.8,394.7 L508.8,396.5 L507.1,399.0 L505.5,400.8 L503.9,403.0 L502.2,404.8 L500.6,407.0 L499.0,408.4 L497.3,410.2 L495.7,412.0 L492.8,413.8 L492.4,414.9 L489.2,416.7 L487.6,417.8 L484.3,419.6 L483.0,420.7 L481.0,421.8 L478.4,422.5 L476.1,423.6 L472.9,424.7 L471.2,425.4 L469.6,426.1 L466.3,426.9 L464.7,427.2 L463.4,428.0 L456.9,428.3 L454.9,428.7 L453.3,428.7 L450.0,428.7 L448.4,428.7 L445.1,428.3 L443.5,428.0 L440.2,427.6 L438.6,427.2 L436.6,426.5 L432.0,425.8 L430.4,425.1 L428.8,424.0 L425.5,422.9 L423.9,421.8 L420.6,421.1 L419.0,420.0 L415.7,418.5 L414.1,417.5 L412.4,416.0 L410.5,414.6 L409.2,413.5 L405.9,412.0 L404.3,410.6 L401.0,408.8 L399.4,407.3 L397.8,406.2 L396.1,404.4 L393.5,402.6 L392.9,401.2 L389.6,399.4 L388.3,398.3 L386.3,396.8 L384.7,395.0 L383.1,393.2 L381.4,391.8 L378.2,390.3 L377.8,388.5 L374.9,386.3 L373.3,384.5 L371.6,383.1 L370.0,381.6 L367.4,379.8 L366.7,378.0 L363.5,376.6 L362.2,374.8 L360.2,373.0 L358.6,371.1 L356.9,369.7 L355.3,367.9 L353.7,366.1 L351.7,364.6 L350.4,362.5 L347.1,361.4 L346.5,359.2 L345.5,357.8 L342.2,356.0 L341.3,354.5 L339.0,352.7 L337.3,350.9 L335.7,349.1 L334.1,347.3 L332.4,345.8 L330.8,343.6 L329.2,342.2 L325.9,340.0 L325.6,338.9 L322.7,336.8 L321.0,335.0 L319.4,333.2 L317.8,332.1 L315.1,329.9 L314.5,328.1 L312.9,326.3 L309.9,324.8 L309.6,323.0 L306.3,321.2 L304.7,319.4 L303.1,317.6 L299.8,316.2 L298.2,314.7 L296.5,313.3 L294.2,311.8 L293.3,310.4 L290.0,309.3 L288.4,307.8 L285.1,306.7 L283.5,305.7 L280.2,304.9 L277.3,303.8 L276.9,303.1 L273.7,302.4 L272.0,302.0 L268.1,301.3 L265.5,301.0 L263.9,300.6 L260.6,300.2 L259.0,300.2 L255.7,299.9 L254.1,299.9 L250.8,299.9 L249.2,300.2 L245.9,300.2 L244.3,300.6 L242.0,300.6 L239.4,301.0 L236.8,301.3 L234.5,301.7 L231.2,302.0 L229.6,302.8 L226.3,303.1 L224.7,303.1 L221.4,303.5 L218.2,304.2 L216.5,304.6 L213.3,304.9 L211.6,305.3 L208.4,306.0 L206.7,306.4 L204.8,306.7 L201.8,307.1 L199.6,307.5 L196.9,307.8 L195.0,308.2 L192.0,308.9 L189.8,309.3 L185.5,309.6 L183.9,309.6 L180.6,310.0 L178.0,310.4 L175.7,310.4 L172.8,310.4 L170.8,310.7 L168.9,311.1 L165.9,311.1 L162.7,311.4 L161.0,311.4 L157.8,311.8 L156.1,311.8 L151.9,312.2 L149.6,312.2 L146.7,312.2 L144.7,312.2 L141.4,312.5 L139.8,312.5 L136.5,312.5 L134.9,312.5 L131.6,312.2 L130.0,312.2 L126.7,312.2 L125.1,312.2 L121.8,311.8 L120.2,311.8 L116.9,311.8 L115.3,311.4 L112.0,311.1 L110.1,311.1 L107.1,310.7 L104.2,310.4 L102.2,310.0 L100.3,309.6 L97.3,308.6 L93.8,308.2 L92.4,307.1 L90.8,306.0 L89.2,304.9 L85.9,303.8 L84.0,303.1 L81.0,301.7 L79.4,300.2 L77.8,299.1 L74.5,297.3 L74.2,295.9 L71.2,294.4 L69.6,292.6 L68.0,290.5 L66.3,289.0 L64.7,287.2 L63.1,285.0 L61.4,282.9 L59.8,280.7 L58.2,278.9 L57.8,276.7 L56.5,274.2 L56.5,272.4 L54.9,269.8 L53.3,267.3 L52.6,265.1 L52.6,262.2 L51.6,260.1 L51.6,257.5 L51.6,255.4 L50.0,252.5 L50.0,250.3 L50.0,247.4 L50.0,244.5 L50.0,242.3 L50.0,239.8 L50.0,236.9 L51.6,235.1 L51.6,232.2 L51.6,229.7 L52.6,227.5 L53.3,225.0 L53.3,222.4 L54.9,220.6 L56.5,217.7 L57.8,215.9 L58.2,213.4 L59.8,211.6 L61.4,209.1 L63.7,207.2 L63.1,205.1 L64.7,203.3 L68.0,201.1 L68.9,199.6 L71.2,197.8 L72.9,196.4 L74.5,194.6 L76.1,193.1 L78.7,191.3 L79.4,190.6 L82.7,189.2 L84.3,187.7 L87.6,186.6 L89.2,185.5 L92.4,184.4 L94.1,183.7 L95.7,183.4 L99.0,182.6 L100.6,181.9 L103.9,181.6 L105.5,181.2 L108.8,180.8 L110.4,180.5 L113.7,180.5 L115.3,180.5 L118.6,180.8 L120.5,180.8 L123.5,181.2 L126.7,181.6 L130.0,182.3 L131.6,183.0 L134.9,183.7 L136.5,184.4 L138.2,185.2 L141.4,186.3 L143.1,187.3 L146.3,188.4 L148.0,189.9 L151.2,191.3 L152.9,192.8 L154.5,194.2 L156.1,195.7 L157.8,197.1 L161.0,198.9 L161.7,200.4 L164.3,202.2 L165.9,203.6 L167.6,205.4 L169.2,206.9 L170.8,209.1 L172.8,210.9 L174.1,212.3 L177.3,214.1 L178.0,215.6 L180.6,217.7 L182.2,219.2 L183.9,220.6 L187.1,223.9 L189.8,225.3 L190.4,227.5 L193.7,228.6 L195.0,230.8 L195.3,232.2 L198.6,234.4 L199.6,235.8 L201.8,237.6 L204.8,239.8 L205.1,242.0 L208.4,243.4 L209.3,245.2 L211.6,246.7 L213.3,248.9 L214.9,250.7 L216.5,252.1 L218.2,253.9 L221.1,255.7 L221.4,257.9 L224.7,259.3 L226.3,261.5 L228.0,263.0 L229.6,265.1 L231.2,266.9 L232.9,268.4 L236.1,270.6 L236.8,272.0 L239.4,273.8 L241.0,275.6 L242.7,277.4 L244.3,279.2 L245.9,280.7 L247.6,282.5 L249.2,284.7 L251.1,286.1 L252.4,287.9 L254.1,289.7 L257.0,291.5 L259.0,293.7 L260.6,295.2 L262.2,296.6 L263.9,298.8 L267.1,300.2 L268.1,301.7 L270.4,303.1 L272.0,304.6 L273.7,306.0 L276.9,307.5 L278.6,308.9 L281.8,310.4 L283.5,311.1 L285.1,312.2 L288.4,313.3 L290.0,314.0 L293.3,315.1 L294.9,315.8 L298.2,316.5 L299.8,317.2 L303.1,317.6 L304.7,317.6 L308.0,318.0 L309.9,318.0 L312.9,318.0 L315.1,318.3 L317.8,318.0 L321.0,318.0 L324.3,318.0 L325.9,317.6 L329.2,317.6 L330.8,317.6 L334.1,317.2 L336.0,316.9 L339.0,316.5 L340.6,316.2 L343.9,315.4 L345.5,315.1 L347.1,314.7 L350.4,314.0 L353.7,313.6 L355.3,313.3 L356.9,312.5 L360.2,312.2 L362.2,311.4 L365.1,311.1 L367.4,310.7 L370.0,310.4 L372.6,310.4 L374.9,310.0 L377.8,309.3 L379.8,308.9 L383.1,308.6 L386.3,308.2 L388.3,307.8 L391.2,307.5 L393.5,307.5 L396.1,307.1 L398.7,306.7 L401.0,306.7 L404.3,306.7 L405.9,306.4 L410.5,306.4 L412.4,306.4 L414.4,306.4 L417.3,306.4 L419.6,306.4 L422.2,306.4 L424.9,306.4 L427.1,306.4 L430.4,306.7 L432.0,306.7 L435.3,307.1 L436.9,307.1 L440.2,307.1 L441.8,307.5 L445.1,307.5 L446.7,307.8 L450.0,307.8 L452.9,308.2 L454.9,308.2 L458.2,308.6 L461.4,308.6 L463.1,308.9 L466.3,308.9 L468.0,309.3 L471.2,309.6 L472.9,310.0 L476.1,310.4 L478.4,310.7 L479.4,311.1 L483.0,312.2 L485.9,313.3 L488.2,314.0 L490.8,315.1 L492.4,316.2 L494.1,317.2 L497.3,318.3 L499.0,319.8 L500.6,321.2 L503.9,322.7 L505.5,324.1 L507.1,325.6 L509.8,327.4 L510.4,329.5 L512.0,331.0 L515.0,332.8 L515.3,335.0 L516.9,337.1 L518.6,338.9 L520.2,341.5 L520.2,343.6 L521.8,346.2 L523.5,348.4 L525.1,351.2 L526.1,353.4 L526.1,355.6 L526.7,358.1 L526.7,360.7 L528.4,362.8 L528.4,365.7 L528.4,367.9 L530.0,370.4 L530.0,373.0 L530.0,375.9 L530.0,377.7 L528.4,380.6 L528.4,383.1 L528.4,385.3 L528.4,388.2 L526.7,391.0 L526.7,392.9 L526.1,395.8 L525.1,398.3 L523.5,400.8 L523.5,403.0 L521.8,405.5 L520.2,407.3 L520.9,409.5 L518.6,411.7 L515.3,413.8 L515.0,415.3 L513.7,417.8 L512.0,419.3 L509.8,421.4 L508.8,422.9 L505.5,424.7 L504.5,426.1 L502.2,428.0 L499.0,429.4 L498.0,430.5 L495.7,431.6 L492.8,433.0 L490.8,434.1 L488.2,435.2 L487.6,435.9 L484.3,437.0 L481.0,437.4 L478.4,438.1 L476.1,438.4 L472.9,438.8 L471.2,439.2 L468.0,439.5 L466.3,439.5 L463.1,439.5 L461.4,439.5 L458.2,439.2 L456.5,438.8 L453.3,438.4 L451.6,437.7 L448.4,437.4 L445.8,436.6 L443.5,435.9 L440.5,435.2 L438.6,434.1 L436.6,433.0 L433.7,431.6 L430.7,430.5 L430.4,429.4 L427.1,428.0 L424.9,426.9 L422.2,425.4 L420.6,423.6 L419.0,422.2 L415.7,421.1 L412.4,417.8 L410.8,416.4 L409.2,414.6 L405.9,413.1 L405.3,411.7 L402.7,409.9 L401.0,408.4 L398.7,407.0 L397.8,405.2 L392.9,401.5 L391.2,399.7 L389.6,398.6 L388.0,396.8 L386.3,395.0 L384.4,393.2 L383.1,391.8 L379.8,390.0 L378.2,388.5 L376.5,386.3 L373.3,384.5 L372.6,382.7 L370.0,380.9 L368.4,379.1 L367.4,377.3 L365.1,375.5 L362.2,373.7 L361.8,371.9 L358.6,370.1 L356.9,366.8 L353.7,364.6 L351.7,362.8 L350.4,361.4 L348.8,359.6 L346.5,357.8 L345.5,356.0 L342.2,354.5 L341.3,352.7 L337.3,349.1 L335.7,347.3 L334.1,345.5 L330.8,343.6 L330.8,341.8 L329.2,340.0 L325.9,338.2 L325.6,336.8 L322.7,334.6 L319.4,331.3 L317.8,329.9 L315.1,327.7 L314.5,325.9 L311.2,324.5 L309.9,323.0 L308.0,320.9 L306.3,319.4 L304.7,317.6 L303.1,316.5 L299.8,314.3 L298.2,313.3 L294.9,311.4 L294.2,310.4 L291.6,308.9 L289.0,307.8 L286.7,306.7 L283.8,305.7 L283.5,304.9 L280.2,303.8 L277.3,303.1 L275.3,302.8 L273.3,302.0 L270.4,301.7 L268.1,301.0 L265.5,300.6 L262.9,300.6 L260.6,300.2 L257.3,300.2 L255.7,300.2 L251.1,300.2 L249.2,300.2 L247.2,300.6 L244.3,301.0 L242.0,301.0 L239.4,301.3 L236.8,301.7 L234.5,302.0 L231.2,302.8 L226.3,303.1 L224.7,303.5 L221.4,304.2 L219.8,304.6 L218.2,305.3 L214.9,305.7 L213.3,306.0 L210.0,306.7 L208.4,307.1 L205.1,307.8 L201.8,308.6 L199.6,308.9 L198.6,309.3 L195.0,310.0 L192.0,310.4 L189.8,310.4 L187.1,310.7 L183.9,311.1 L182.2,311.4 L177.3,311.8 L174.1,312.2 L172.4,312.2 L169.2,312.5 L167.6,312.5 L164.3,312.9 L161.7,312.9 L159.4,312.9 L156.4,312.9 L154.5,312.9 L151.2,312.9 L148.0,312.9 L146.3,312.9 L143.1,312.9 L141.4,312.5 L138.2,312.5 L136.9,312.2 L133.3,311.8 L130.3,311.4 L128.4,311.1 L126.4,310.4 L123.5,310.0 L120.5,309.3 L118.6,308.2 L115.3,307.5 L113.7,306.4 L112.0,305.3 L110.1,303.8 L107.1,303.1 L104.2,301.7 L102.2,299.5 L100.6,298.1 L100.3,296.6 L97.3,295.2 L95.7,293.4 L94.1,291.5 L92.4,289.7 L89.2,287.9 L89.2,285.8 L87.6,283.6 L85.9,280.7 L84.3,278.9 L84.0,276.4 L82.7,274.2 L81.0,272.0 L81.0,269.8 L79.4,266.9 L78.7,265.1 L78.7,262.2 L78.7,260.1 L77.8,257.2 L77.8,254.6 L77.8,251.7 L77.8,249.9 L77.8,247.0 L77.8,244.5 L77.8,242.0 L78.7,239.1 L78.7,236.9 L79.4,235.1 L79.4,231.8 L81.0,229.0 L82.7,227.1 L82.7,224.6 L84.0,222.4 L84.3,220.3 L85.9,218.1 L87.6,215.6 L89.2,213.8 L90.8,211.9 L92.4,209.4 L93.8,207.6 L95.7,206.2 L97.3,204.3 L100.3,202.5 L102.2,200.7 L103.9,199.6 L105.5,198.2 L107.1,197.1 L110.1,195.7 L113.7,194.2 L115.3,193.5 L116.9,192.4 L120.2,191.7 L121.8,191.0 L125.1,191.0 L126.7,190.2 L130.0,189.9 L131.6,189.5 L134.9,189.5 L138.2,189.5 L141.4,189.5 L143.1,189.9 L146.3,190.2 L148.0,190.6 L151.2,191.0 L152.9,191.7 L156.1,192.4 L157.8,193.1 L161.0,194.2 L162.7,195.7 L165.9,196.8 L168.9,198.2 L169.2,199.3 L172.4,200.7 L174.1,202.5 L175.7,204.3 L178.0,205.8 L179.0,206.9 L183.2,210.9 L185.5,212.3 L187.1,213.8 L189.8,215.6 L190.4,217.4 L192.0,218.8 L195.0,220.6 L195.3,222.4 L196.9,223.9 L199.6,226.1 L201.8,228.6 L204.8,230.4 L205.1,232.2 L206.7,234.0 L209.3,235.8 L210.0,237.3 L213.3,239.1 L214.9,241.3 L216.5,243.1 L221.1,246.7 L221.4,248.5 L224.7,250.7 L224.4,252.5 L228.0,254.3 L229.6,256.5 L231.2,257.9 L232.9,259.7 L236.1,261.5 L239.4,265.9 L241.0,267.3 L242.7,269.5 L244.3,271.3 L247.2,272.7 L247.6,274.5 L249.2,276.7 L251.1,278.2 L252.4,280.3 L255.7,281.8 L257.3,285.0 L259.0,286.8 L262.2,288.3 L262.9,290.1 L265.5,291.5 L267.1,293.7 L268.8,295.2 L270.4,296.6 L272.0,298.4 L273.7,300.2 L277.3,303.1 L278.6,304.6 L283.5,306.4 L283.8,307.8 L286.7,308.9 L289.0,310.4 L291.6,311.1 L294.2,312.2 L296.5,312.9 L301.4,314.7 L301.4,314.7 L301.4,314.7 L301.4,314.7 L301.4,314.7 L301.4,314.7 L301.4,314.7 L303.1,314.7 L303.1,314.7 L303.1,314.7 L303.1,314.7 L303.1,314.7 L303.1,314.7 L303.1,314.7 L303.1,314.7 L303.1,314.7 L303.1,314.7 L303.1,314.7 L303.1,314.7 L303.1,314.7 L303.1,314.7 L303.1,314.7 L303.1,314.7 L303.1,314.7 L303.1,314.7 L303.1,314.7 L303.1,314.7 L303.1,314.7 L303.1,314.3 L304.7,314.3 L304.7,314.3 L304.7,314.3 L304.7,314.3 L304.7,314.3 L304.7,314.3 L304.7,314.3 L304.7,314.3 L304.7,314.3 L304.7,314.3 L304.7,314.3 L304.7,314.3 L304.7,314.3 L304.7,314.3 L304.7,314.3 L304.7,314.3 L304.7,314.3 L304.7,314.3 L304.7,314.3 L304.7,314.3 L304.7,314.3 L304.7,314.3 L304.7,314.3 L304.7,314.3 L304.7,314.3 L304.7,314.0 L304.7,314.0 L304.7,314.0 L304.7,314.0 L304.7,314.0 L304.7,314.0 L304.7,314.0 L304.7,314.0 L304.7,314.0 L304.7,314.0 L304.7,314.0 L304.7,314.0 L304.7,314.0 L304.7,314.0 L304.7,314.0 L304.7,314.0 L304.7,314.0 L304.7,314.0 L304.7,314.0 L306.3,314.0 L306.3,314.0 L306.3,314.0 L306.3,314.0 L306.3,314.0 L306.3,314.0 L306.3,313.6 L306.3,313.6 L306.3,313.6 L306.3,313.6 L306.3,313.6 L306.3,313.6 L306.3,313.6 L306.3,313.6 L306.3,313.6 L306.3,313.6 L306.3,313.6 L306.3,313.6 L306.3,313.6 L306.3,313.6 L306.3,313.6 L308.0,313.6 L308.0,313.6 L308.0,313.6 L308.0,313.6 L308.0,313.6 L308.0,313.6 L308.0,313.6 L308.0,313.6 L308.0,313.6 L308.0,313.6 L308.0,313.6 L308.0,313.3 L308.0,313.3 L308.0,313.3 L308.0,313.3 L308.0,313.3 L308.0,313.3 L308.0,313.3 L308.0,313.3 L308.0,313.3 L308.0,313.3 L308.0,313.3 L308.0,313.3 L309.6,313.3 L309.6,313.3 L309.6,313.3 L309.6,313.3 L309.6,313.3 L309.6,313.3 L309.6,313.3 L309.6,313.3 L309.6,313.3 L309.6,313.3 L309.6,313.3 L309.6,313.3 L309.6,313.3 L309.6,313.3 L309.6,313.3 L309.6,313.3 L309.6,313.3 L309.6,313.3 L309.6,313.3 L309.6,312.9 L309.6,312.9 L309.6,312.9 L309.6,312.9 L309.6,312.9 L309.9,312.9 L309.9,312.9 L309.9,312.9 L309.9,312.9 L309.9,312.9 L309.9,312.9 L309.9,312.9 L309.9,312.9 L309.9,312.9 L309.9,312.9 L309.9,312.9 L309.9,312.9 L309.9,312.9 L309.9,312.9 L309.9,312.9 L309.9,312.9 L309.9,312.9 L309.9,312.9 L309.9,312.9 L309.9,312.9 L309.9,312.9 L311.2,312.9 L311.2,312.9 L311.2,312.9 L311.2,312.9 L311.2,312.5 L311.2,312.5 L311.2,312.5 L311.2,312.5 L311.2,312.5 L311.2,312.5 L311.2,312.5 L311.2,312.5 L311.2,312.5 L311.2,312.5 L311.2,312.5 L311.2,312.5 L311.2,312.5 L311.2,312.5 L311.2,312.5 L311.2,312.5 L311.2,312.5 L311.2,312.5 L311.2,312.5 L312.9,312.5 L312.9,312.5 L312.9,312.5 L312.9,312.5 L312.9,312.5 L312.9,312.5 L312.9,312.5 L312.9,312.5 L312.9,312.5 L312.9,312.5 L312.9,312.5 L312.9,312.2 L312.9,312.2 L312.9,312.2 L312.9,312.2 L312.9,312.2 L312.9,312.2 L312.9,312.2 L312.9,312.2 L314.5,312.2 L314.5,312.2 L314.5,312.2 L314.5,312.2 L314.5,312.2 L314.5,312.2 L314.5,312.2 L314.5,312.2 L314.5,312.2 L314.5,312.2 L314.5,312.2 L314.5,312.2 L314.5,312.2 L314.5,312.2 L314.5,312.2 L314.5,312.2 L314.5,312.2 L314.5,312.2 L314.5,312.2 L314.5,312.2 L314.5,312.2 L314.5,312.2 L315.1,312.2 L315.1,312.2 L315.1,311.8 L315.1,311.8 L315.1,311.8 L315.1,311.8 L315.1,311.8 L315.1,311.8 L315.1,311.8 L315.1,311.8 L315.1,311.8 L315.1,311.8 L315.1,311.8 L315.1,311.8 L315.1,311.8 L315.1,311.8 L315.1,311.8 L315.1,311.8 L315.1,311.8 L316.1,311.8 L316.1,311.8 L316.1,311.8 L316.1,311.8" fill="none" stroke="#1f77b4" stroke-width="1.7" opacity="0.85"/><circle cx="316" cy="312" r="4.5" fill="#1f77b4"/><text x="28" y="572" font-size="11" fill="#888">ground track — m from pad (N up)</text><rect x="580" y="40" width="540" height="540" fill="#fbfbfb" stroke="#ddd"/><text x="586" y="54" fill="#1f77b4" font-size="11">alt 329</text><text x="586" y="558" fill="#1f77b4" font-size="11">2</text><path d="M958.4,543.9 L958.4,543.8 L958.5,543.6 L958.5,543.4 L958.6,542.9 L958.6,542.3 L958.7,541.7 L958.7,540.8 L958.7,540.2 L958.8,539.3 L958.8,538.1 L958.9,536.9 L958.9,535.6 L959.0,534.2 L959.1,532.5 L959.1,531.4 L959.1,529.8 L959.2,527.8 L959.2,525.7 L959.3,523.5 L959.3,522.2 L959.4,519.9 L959.4,517.7 L959.5,514.6 L959.5,511.8 L959.6,510.7 L959.6,507.9 L959.7,504.8 L959.7,501.2 L959.8,499.5 L959.8,496.6 L959.9,492.8 L959.9,489.8 L960.0,487.0 L960.0,482.5 L960.1,479.4 L960.1,475.3 L960.2,473.7 L960.2,469.5 L960.2,464.1 L960.3,461.2 L960.3,457.0 L960.4,454.5 L960.4,449.5 L960.5,444.1 L960.5,442.3 L960.6,437.2 L960.6,432.7 L960.7,427.7 L960.7,422.0 L960.8,419.2 L960.8,411.3 L960.9,406.6 L960.9,404.5 L961.0,397.2 L961.0,392.1 L961.1,385.8 L961.1,380.6 L961.2,375.4 L961.2,368.0 L961.3,361.8 L961.3,361.0 L961.4,352.9 L961.4,346.9 L961.5,340.9 L961.5,336.6 L961.6,330.8 L961.6,328.7 L961.7,322.8 L961.7,316.7 L961.8,312.7 L961.8,301.5 L961.9,301.1 L961.9,295.5 L961.9,291.1 L962.0,287.7 L962.0,280.7 L962.1,276.3 L962.1,271.0 L962.2,264.5 L962.2,262.2 L962.3,261.3 L962.3,256.7 L962.4,246.7 L962.4,246.3 L962.5,245.8 L962.5,237.7 L962.6,232.3 L962.6,229.3 L962.7,228.4 L962.7,224.2 L962.8,216.0 L962.8,218.3 L962.9,215.9 L962.9,210.9 L963.0,207.8 L963.0,201.5 L963.0,199.3 L963.1,193.2 L963.1,195.2 L963.2,188.3 L963.2,185.3 L963.3,178.5 L963.3,182.1 L963.4,175.7 L963.4,174.5 L963.5,172.9 L963.5,166.5 L963.6,160.1 L963.6,157.0 L963.7,157.6 L963.7,157.7 L963.8,153.8 L963.8,154.0 L963.9,145.9 L963.9,144.8 L964.0,143.6 L964.0,141.7 L964.1,140.5 L964.1,134.7 L964.2,135.0 L964.2,125.9 L964.3,127.4 L964.3,127.9 L964.4,129.4 L964.4,122.8 L964.5,123.1 L964.5,118.5 L964.6,118.1 L964.6,118.2 L964.7,113.9 L964.7,113.3 L964.8,114.0 L964.8,103.2 L964.9,108.5 L964.9,103.3 L965.0,98.6 L965.0,102.0 L965.1,96.9 L965.1,100.4 L965.2,101.0 L965.2,95.6 L965.3,98.9 L965.3,98.8 L965.4,92.0 L965.4,86.8 L965.5,95.3 L965.5,92.5 L965.6,92.1 L965.6,84.2 L965.7,84.9 L965.7,87.5 L965.8,85.5 L965.8,86.9 L965.9,83.5 L965.9,82.8 L966.0,87.6 L966.0,87.7 L966.1,76.5 L966.1,79.6 L966.2,82.1 L966.2,82.2 L966.3,86.5 L966.3,84.2 L966.4,80.4 L966.4,86.2 L966.5,76.4 L966.5,78.0 L966.6,82.8 L966.6,76.0 L966.7,83.4 L966.7,78.1 L966.7,86.0 L966.8,84.7 L966.8,81.0 L966.9,82.5 L966.9,80.7 L967.0,88.0 L967.0,87.8 L967.1,82.3 L967.1,79.1 L967.2,87.6 L967.3,85.4 L967.3,85.1 L967.4,88.7 L967.4,91.9 L967.5,90.6 L967.5,94.7 L967.6,91.9 L967.6,91.0 L967.7,90.5 L967.7,95.8 L967.7,88.4 L967.8,93.1 L967.8,92.0 L967.9,97.0 L967.9,97.0 L968.0,97.7 L968.0,92.7 L968.1,90.5 L968.1,94.9 L968.2,98.5 L968.2,93.5 L968.3,96.0 L968.3,90.0 L968.4,95.2 L968.4,99.9 L968.5,97.0 L968.5,93.7 L968.6,101.0 L968.6,90.9 L968.7,93.7 L968.7,97.9 L968.7,95.9 L968.8,93.5 L968.8,96.8 L968.9,94.8 L968.9,100.0 L969.0,94.0 L969.0,96.0 L969.1,102.3 L969.1,93.7 L969.2,100.4 L969.2,100.6 L969.3,96.7 L969.3,98.5 L969.3,98.2 L969.4,100.8 L969.4,97.8 L969.5,96.2 L969.5,96.6 L969.6,101.2 L969.6,103.9 L969.7,96.2 L969.7,101.0 L969.8,101.2 L969.8,102.8 L969.9,96.0 L969.9,101.5 L970.0,103.1 L970.0,97.0 L970.1,94.7 L970.1,103.0 L970.2,101.7 L970.2,98.5 L970.3,105.4 L970.3,105.2 L970.4,104.6 L970.4,98.3 L970.5,100.5 L970.5,103.8 L970.6,100.7 L970.6,105.5 L970.6,100.5 L970.7,97.4 L970.7,101.3 L970.8,105.2 L970.8,102.5 L970.9,98.0 L970.9,105.8 L971.0,106.3 L971.0,104.3 L971.1,107.6 L971.1,103.7 L971.2,107.9 L971.2,100.1 L971.2,100.9 L971.3,108.8 L971.3,101.0 L971.4,106.9 L971.4,99.8 L971.5,101.0 L971.5,101.0 L971.6,110.0 L971.6,106.4 L971.7,107.6 L971.7,104.7 L971.8,102.7 L971.8,105.0 L971.9,104.6 L971.9,101.6 L972.0,110.2 L972.0,103.6 L972.1,107.4 L972.1,103.0 L972.2,103.0 L972.2,105.8 L972.3,105.5 L972.3,107.2 L972.3,112.2 L972.4,104.7 L972.5,108.8 L972.5,108.9 L972.5,108.6 L972.6,107.2 L972.6,109.9 L972.7,110.2 L972.7,111.3 L972.8,105.8 L972.8,113.6 L972.9,108.1 L972.9,108.8 L973.0,108.2 L973.0,110.5 L973.1,113.3 L973.1,114.4 L973.1,112.0 L973.2,111.7 L973.2,112.0 L973.3,107.2 L973.3,111.2 L973.4,110.3 L973.4,110.0 L973.5,107.1 L973.5,113.7 L973.6,109.8 L973.6,109.6 L973.7,112.3 L973.7,111.7 L973.8,115.4 L973.8,115.7 L973.9,117.8 L973.9,109.8 L974.0,113.7 L974.0,111.2 L974.1,111.3 L974.1,111.4 L974.1,112.2 L974.2,113.0 L974.2,119.5 L974.3,116.5 L974.3,111.7 L974.4,116.0 L974.4,119.6 L974.5,121.1 L974.5,114.8 L974.6,112.0 L974.6,112.8 L974.7,111.8 L974.7,117.1 L974.8,114.0 L974.8,121.3 L974.9,120.8 L974.9,115.5 L975.0,118.8 L975.0,119.1 L975.1,123.6 L975.1,117.0 L975.1,120.3 L975.2,123.2 L975.2,117.7 L975.3,114.3 L975.3,121.8 L975.4,123.5 L975.4,123.5 L975.5,121.9 L975.5,115.5 L975.6,117.3 L975.6,116.4 L975.7,116.1 L975.7,118.6 L975.8,124.7 L975.8,117.0 L975.9,120.6 L975.9,125.7 L976.0,118.4 L976.0,121.0 L976.0,118.4 L976.1,122.4 L976.2,127.6 L976.2,120.0 L976.3,123.4 L976.3,119.4 L976.4,129.2 L976.4,122.5 L976.5,125.6 L976.5,126.3 L976.6,128.0 L976.6,128.6 L976.7,127.5 L976.7,130.5 L976.8,123.1 L976.8,130.0 L976.9,127.9 L976.9,131.0 L977.0,123.8 L977.0,130.9 L977.1,125.9 L977.1,132.5 L977.2,124.0 L977.2,132.4 L977.3,127.9 L977.3,127.5 L977.4,124.5 L977.4,128.5 L977.5,124.4 L977.5,130.1 L977.6,134.3 L977.6,133.8 L977.7,132.4 L977.7,125.1 L977.7,132.9 L977.8,129.4 L977.8,132.1 L977.9,130.9 L977.9,135.0 L978.0,136.0 L978.0,134.6 L978.1,134.6 L978.1,134.1 L978.2,128.2 L978.2,131.1 L978.3,131.9 L978.3,129.6 L978.4,134.3 L978.4,138.5 L978.5,136.1 L978.5,132.5 L978.6,136.2 L978.6,130.3 L978.7,130.4 L978.7,134.9 L978.8,132.9 L978.8,135.8 L978.8,132.7 L978.9,136.9 L978.9,139.5 L979.0,139.7 L979.0,133.7 L979.1,138.8 L979.1,134.5 L979.2,141.6 L979.2,140.3 L979.3,138.9 L979.3,142.0 L979.4,137.0 L979.4,133.9 L979.5,139.1 L979.5,136.7 L979.6,142.0 L979.6,139.5 L979.7,135.0 L979.7,144.1 L979.7,143.9 L979.8,145.2 L979.8,138.8 L979.9,141.6 L979.9,143.9 L980.0,143.4 L980.0,136.2 L980.1,144.7 L980.1,137.2 L980.2,143.2 L980.2,141.2 L980.3,140.7 L980.3,146.4 L980.4,146.0 L980.4,145.5 L980.5,143.8 L980.5,138.6 L980.6,140.9 L980.7,147.3 L980.7,146.3 L980.8,142.2 L980.8,145.1 L980.9,148.4 L980.9,146.1 L980.9,148.2 L981.0,147.5 L981.0,144.6 L981.1,147.2 L981.1,144.8 L981.2,144.4 L981.2,151.6 L981.3,149.4 L981.3,151.2 L981.4,143.7 L981.4,148.7 L981.5,147.5 L981.5,152.5 L981.6,149.4 L981.6,147.2 L981.7,147.6 L981.7,148.3 L981.8,150.1 L981.8,150.6 L981.8,147.4 L981.9,152.9 L981.9,154.9 L982.0,146.4 L982.0,153.0 L982.1,152.9 L982.1,150.6 L982.2,148.4 L982.2,151.0 L982.3,151.9 L982.3,152.3 L982.4,156.3 L982.4,149.4 L982.5,155.5 L982.5,148.4 L982.5,149.4 L982.6,155.2 L982.6,153.0 L982.7,157.9 L982.7,154.7 L982.8,150.7 L982.8,152.8 L982.9,158.8 L982.9,157.7 L983.0,159.6 L983.0,159.3 L983.1,160.7 L983.1,160.9 L983.2,156.3 L983.2,153.0 L983.3,156.5 L983.3,153.3 L983.4,154.4 L983.4,154.8 L983.4,158.6 L983.5,154.3 L983.5,159.2 L983.6,159.5 L983.6,157.1 L983.7,157.0 L983.7,155.9 L983.8,155.0 L983.8,160.9 L983.9,162.0 L983.9,164.9 L984.0,162.5 L984.0,158.8 L984.1,160.3 L984.1,165.7 L984.2,157.2 L984.2,161.0 L984.2,161.2 L984.3,160.1 L984.3,164.0 L984.4,166.4 L984.4,161.8 L984.5,160.3 L984.5,167.2 L984.6,163.9 L984.6,164.0 L984.7,164.4 L984.7,165.7 L984.8,165.8 L984.8,169.6 L984.8,161.0 L984.9,162.0 L984.9,162.5 L985.0,163.5 L985.0,168.1 L985.1,168.6 L985.2,169.8 L985.2,167.6 L985.3,167.7 L985.3,163.2 L985.3,172.1 L985.4,171.0 L985.4,169.4 L985.5,166.8 L985.5,172.7 L985.6,164.1 L985.6,168.7 L985.7,168.1 L985.7,167.1 L985.8,174.4 L985.8,169.8 L985.9,170.0 L985.9,167.8 L986.0,171.2 L986.0,169.7 L986.1,167.4 L986.1,176.0 L986.1,175.3 L986.2,171.2 L986.2,175.6 L986.3,168.3 L986.3,177.2 L986.4,174.9 L986.4,176.6 L986.5,170.4 L986.5,171.8 L986.6,171.7 L986.6,172.8 L986.7,171.9 L986.7,173.1 L986.8,173.3 L986.8,178.6 L986.9,176.6 L986.9,177.3 L987.0,176.7 L987.0,174.1 L987.1,173.9 L987.1,175.7 L987.2,173.7 L987.2,178.4 L987.2,179.6 L987.3,175.0 L987.3,174.8 L987.4,177.8 L987.4,179.3 L987.5,181.4 L987.5,182.9 L987.6,177.7 L987.6,180.3 L987.7,182.7 L987.7,181.8 L987.8,176.8 L987.8,182.3 L987.9,180.0 L987.9,185.2 L988.0,181.3 L988.0,180.9 L988.1,180.0 L988.1,177.7 L988.1,178.7 L988.2,184.4 L988.2,182.9 L988.3,179.6 L988.3,185.2 L988.4,187.5 L988.4,179.4 L988.5,185.2 L988.5,185.0 L988.6,180.2 L988.6,180.2 L988.7,185.3 L988.7,180.9 L988.8,180.9 L988.8,182.8 L988.9,182.6 L988.9,183.1 L989.0,182.5 L989.0,186.9 L989.1,184.3 L989.1,188.7 L989.2,188.7 L989.2,183.3 L989.2,190.7 L989.3,189.4 L989.3,191.9 L989.4,188.5 L989.4,191.0 L989.5,191.8 L989.6,185.0 L989.6,187.3 L989.7,185.8 L989.7,186.4 L989.8,188.9 L989.8,186.7 L989.9,192.6 L989.9,190.1 L990.0,190.6 L990.0,195.4 L990.0,190.4 L990.1,189.9 L990.1,189.5 L990.2,194.7 L990.2,196.8 L990.3,189.5 L990.3,192.0 L990.4,194.7 L990.4,190.4 L990.5,190.7 L990.5,197.5 L990.6,194.9 L990.6,194.5 L990.7,194.5 L990.7,193.2 L990.7,191.2 L990.8,194.3 L990.9,194.9 L990.9,192.9 L990.9,194.2 L991.0,201.0 L991.0,201.2 L991.1,195.6 L991.1,198.0 L991.2,201.2 L991.2,198.0 L991.3,194.5 L991.3,201.9 L991.4,197.5 L991.4,202.4 L991.5,200.0 L991.5,199.6 L991.6,198.0 L991.6,201.3 L991.7,195.7 L991.7,200.1 L991.7,198.0 L991.8,202.5 L991.8,201.7 L991.9,200.2 L991.9,204.3 L992.0,198.8 L992.0,197.9 L992.1,200.0 L992.1,205.7 L992.2,205.3 L992.2,200.8 L992.3,204.6 L992.3,202.1 L992.4,201.2 L992.4,204.7 L992.5,202.8 L992.5,207.2 L992.6,204.0 L992.6,203.8 L992.6,206.7 L992.7,201.8 L992.7,209.8 L992.8,203.5 L992.8,206.9 L992.9,204.7 L992.9,207.3 L993.0,208.3 L993.0,203.7 L993.1,207.9 L993.1,211.3 L993.2,206.3 L993.2,207.2 L993.2,206.8 L993.3,210.9 L993.3,206.3 L993.4,210.8 L993.4,211.3 L993.5,211.8 L993.5,206.3 L993.6,207.2 L993.6,212.2 L993.7,212.8 L993.7,209.2 L993.7,210.4 L993.8,214.2 L993.8,212.2 L993.9,208.7 L993.9,208.3 L994.0,213.7 L994.1,209.4 L994.1,213.0 L994.2,209.4 L994.2,216.7 L994.3,214.4 L994.3,212.3 L994.4,217.8 L994.4,217.9 L994.5,213.6 L994.5,211.1 L994.6,213.0 L994.6,214.8 L994.7,217.6 L994.7,213.6 L994.8,214.1 L994.8,217.1 L994.8,213.3 L994.9,220.7 L994.9,214.1 L995.0,215.2 L995.0,218.5 L995.1,216.8 L995.1,217.7 L995.2,215.1 L995.2,216.9 L995.3,215.0 L995.3,217.5 L995.4,222.6 L995.4,219.7 L995.5,217.9 L995.5,223.2 L995.6,220.8 L995.6,216.8 L995.7,216.9 L995.7,224.0 L995.7,218.4 L995.8,221.9 L995.8,224.3 L995.9,219.5 L995.9,225.5 L996.0,223.5 L996.0,223.8 L996.1,218.7 L996.1,219.2 L996.2,224.0 L996.2,219.7 L996.3,223.3 L996.3,222.0 L996.4,227.1 L996.4,222.4 L996.5,222.8 L996.5,226.0 L996.6,222.4 L996.6,228.4 L996.7,228.2 L996.7,225.5 L996.8,229.3 L996.8,224.3 L996.8,228.7 L996.9,230.2 L996.9,231.0 L997.0,225.3 L997.0,226.5 L997.1,227.9 L997.1,226.3 L997.2,227.6 L997.2,227.0 L997.3,230.4 L997.3,232.5 L997.4,231.1 L997.4,226.1 L997.5,231.3 L997.5,228.8 L997.6,227.6 L997.6,232.0 L997.7,229.6 L997.7,232.7 L997.8,232.6 L997.8,229.3 L997.8,228.7 L997.9,233.2 L997.9,232.4 L998.0,231.8 L998.0,232.0 L998.1,231.9 L998.1,230.1 L998.2,230.7 L998.2,232.4 L998.3,232.1 L998.3,237.5 L998.4,238.1 L998.4,234.8 L998.5,237.7 L998.5,233.5 L998.6,233.3 L998.6,234.9 L998.7,234.1 L998.7,239.0 L998.8,233.6 L998.8,238.5 L998.9,236.8 L998.9,234.1 L999.0,234.6 L999.0,239.2 L999.1,241.2 L999.1,239.3 L999.2,238.2 L999.2,237.4 L999.3,236.5 L999.3,241.9 L999.4,241.2 L999.4,242.7 L999.5,243.4 L999.5,241.6 L999.6,241.5 L999.6,240.2 L999.7,237.5 L999.7,244.5 L999.8,240.1 L999.8,244.5 L999.8,239.8 L999.9,244.7 L999.9,244.3 L1000.0,246.3 L1000.0,243.6 L1000.1,240.8 L1000.1,247.4 L1000.2,242.5 L1000.2,244.1 L1000.3,246.0 L1000.3,248.4 L1000.4,242.4 L1000.4,243.0 L1000.5,246.2 L1000.5,242.3 L1000.6,245.1 L1000.6,247.1 L1000.7,245.5 L1000.7,246.9 L1000.8,247.6 L1000.8,249.4 L1000.9,244.4 L1000.9,247.9 L1000.9,249.5 L1001.0,245.9 L1001.0,251.3 L1001.1,245.0 L1001.1,246.8 L1001.2,251.2 L1001.2,252.6 L1001.3,246.0 L1001.3,253.1 L1001.4,247.1 L1001.4,253.9 L1001.5,247.8 L1001.5,251.2 L1001.6,248.3 L1001.6,252.8 L1001.7,253.7 L1001.7,251.3 L1001.8,255.5 L1001.8,252.1 L1001.9,254.9 L1001.9,254.2 L1001.9,251.4 L1002.0,251.0 L1002.0,251.3 L1002.1,256.5 L1002.1,257.4 L1002.2,256.8 L1002.2,256.8 L1002.3,254.0 L1002.3,257.0 L1002.4,255.9 L1002.4,259.2 L1002.5,254.4 L1002.5,256.8 L1002.6,253.6 L1002.6,254.0 L1002.7,257.6 L1002.7,256.9 L1002.8,254.3 L1002.8,259.5 L1002.9,256.6 L1002.9,256.8 L1003.0,258.0 L1003.0,256.3 L1003.0,259.0 L1003.1,260.4 L1003.1,259.1 L1003.2,262.8 L1003.2,262.7 L1003.3,260.4 L1003.3,259.0 L1003.4,261.1 L1003.4,262.9 L1003.5,264.8 L1003.5,261.8 L1003.6,264.9 L1003.6,260.7 L1003.7,265.3 L1003.7,263.8 L1003.8,263.4 L1003.8,265.2 L1003.9,260.3 L1003.9,261.1 L1004.0,261.9 L1004.0,264.3 L1004.1,266.3 L1004.1,268.6 L1004.2,267.9 L1004.2,267.6 L1004.3,268.8 L1004.3,266.1 L1004.4,268.1 L1004.4,264.3 L1004.5,268.6 L1004.5,264.1 L1004.6,267.3 L1004.6,269.2 L1004.7,270.4 L1004.7,270.7 L1004.8,269.1 L1004.8,268.0 L1004.8,266.2 L1004.9,269.2 L1004.9,266.8 L1005.0,268.1 L1005.0,272.4 L1005.1,271.9 L1005.1,273.5 L1005.2,273.4 L1005.2,273.6 L1005.3,268.2 L1005.3,274.5 L1005.4,268.9 L1005.4,273.3 L1005.4,271.7 L1005.5,271.6 L1005.5,272.8 L1005.6,274.7 L1005.6,272.6 L1005.7,273.0 L1005.7,276.1 L1005.8,277.7 L1005.8,273.0 L1005.9,274.8 L1005.9,272.2 L1006.0,278.3 L1006.0,275.3 L1006.1,273.7 L1006.1,277.2 L1006.2,276.4 L1006.2,278.5 L1006.3,274.0 L1006.3,274.8 L1006.4,276.8 L1006.4,279.0 L1006.5,276.5 L1006.6,280.9 L1006.6,278.3 L1006.7,280.9 L1006.7,281.7 L1006.8,281.3 L1006.8,279.4 L1006.9,281.8 L1006.9,283.2 L1006.9,281.7 L1007.0,279.9 L1007.0,278.5 L1007.1,280.9 L1007.1,282.7 L1007.2,284.8 L1007.2,285.1 L1007.3,283.3 L1007.3,286.2 L1007.4,283.5 L1007.5,286.0 L1007.5,284.1 L1007.6,287.2 L1007.6,283.7 L1007.6,282.4 L1007.7,282.9 L1007.7,283.9 L1007.8,284.2 L1007.8,283.7 L1007.9,285.0 L1007.9,288.9 L1008.0,287.6 L1008.0,287.6 L1008.1,286.6 L1008.1,289.6 L1008.2,286.7 L1008.2,288.1 L1008.3,289.7 L1008.3,291.2 L1008.4,286.7 L1008.4,286.6 L1008.5,288.5 L1008.5,289.9 L1008.6,290.5 L1008.6,289.2 L1008.7,291.1 L1008.7,288.8 L1008.8,289.9 L1008.8,291.9 L1008.9,292.1 L1008.9,291.8 L1009.0,291.5 L1009.0,290.8 L1009.1,292.6 L1009.1,295.1 L1009.2,295.8 L1009.2,292.1 L1009.3,291.9 L1009.3,292.5 L1009.4,293.4 L1009.4,292.8 L1009.5,296.2 L1009.5,293.1 L1009.5,295.4 L1009.6,297.3 L1009.6,294.3 L1009.7,296.3 L1009.7,297.1 L1009.8,293.6 L1009.8,293.9 L1009.9,296.9 L1009.9,297.8 L1010.0,294.5 L1010.0,295.2 L1010.1,295.3 L1010.1,295.9 L1010.2,296.8 L1010.2,298.4 L1010.3,297.0 L1010.3,298.7 L1010.4,296.8 L1010.4,297.7 L1010.5,299.1 L1010.5,299.9 L1010.6,298.2 L1010.6,303.8 L1010.7,301.7 L1010.7,303.4 L1010.8,300.2 L1010.8,301.7 L1010.8,304.1 L1010.9,301.8 L1010.9,302.4 L1011.0,304.1 L1011.0,302.4 L1011.1,301.3 L1011.1,304.5 L1011.2,306.3 L1011.2,305.0 L1011.3,303.0 L1011.3,303.0 L1011.4,305.0 L1011.4,307.5 L1011.5,305.9 L1011.5,305.2 L1011.6,303.7 L1011.6,303.1 L1011.7,306.4 L1011.7,305.0 L1011.7,309.8 L1011.8,307.0 L1011.8,305.4 L1011.9,308.9 L1011.9,309.6 L1012.0,309.8 L1012.0,311.1 L1012.1,310.2 L1012.1,311.4 L1012.2,310.0 L1012.2,307.5 L1012.3,312.6 L1012.3,310.9 L1012.4,309.7 L1012.4,312.2 L1012.5,311.8 L1012.5,310.6 L1012.6,309.5 L1012.6,309.6 L1012.7,309.9 L1012.7,310.3 L1012.7,311.8 L1012.8,314.8 L1012.8,311.5 L1012.9,312.9 L1012.9,314.7 L1013.0,310.8 L1013.0,314.1 L1013.1,315.1 L1013.1,312.7 L1013.2,315.5 L1013.2,315.7 L1013.2,314.2 L1013.3,312.7 L1013.4,314.9 L1013.4,314.5 L1013.4,317.7 L1013.5,316.4 L1013.5,313.7 L1013.6,318.2 L1013.6,315.2 L1013.7,319.0 L1013.7,320.3 L1013.8,318.2 L1013.8,316.8 L1013.9,319.3 L1013.9,320.8 L1014.0,316.6 L1014.0,318.3 L1014.0,316.5 L1014.1,318.6 L1014.1,317.5 L1014.2,317.7 L1014.2,317.5 L1014.3,320.8 L1014.3,321.0 L1014.4,321.9 L1014.4,318.6 L1014.5,319.5 L1014.5,319.5 L1014.6,321.1 L1014.6,321.8 L1014.7,324.5 L1014.7,322.5 L1014.8,324.0 L1014.8,321.2 L1014.9,321.7 L1014.9,326.0 L1015.0,325.6 L1015.0,326.5 L1015.1,326.6 L1015.1,325.5 L1015.2,326.5 L1015.2,322.9 L1015.2,323.9 L1015.3,323.9 L1015.3,327.1 L1015.4,324.1 L1015.4,327.8 L1015.5,324.4 L1015.6,326.5 L1015.6,328.7 L1015.7,325.3 L1015.7,325.8 L1015.8,327.0 L1015.8,326.7 L1015.9,328.6 L1015.9,331.4 L1016.0,330.9 L1016.0,331.5 L1016.1,329.2 L1016.1,328.4 L1016.2,331.2 L1016.2,331.5 L1016.2,330.8 L1016.3,331.1 L1016.4,329.2 L1016.4,333.4 L1016.5,332.5 L1016.5,333.0 L1016.6,333.5 L1016.6,331.4 L1016.7,333.5 L1016.7,333.7 L1016.8,332.8 L1016.8,331.8 L1016.9,332.0 L1016.9,335.1 L1016.9,334.2 L1017.0,333.8 L1017.0,335.2 L1017.1,337.9 L1017.1,333.4 L1017.2,336.1 L1017.2,335.2 L1017.3,336.4 L1017.3,336.2 L1017.4,334.9 L1017.4,336.6 L1017.5,338.1 L1017.5,335.8 L1017.6,340.0 L1017.6,338.5 L1017.7,336.8 L1017.7,340.6 L1017.8,339.9 L1017.8,337.8 L1017.9,339.9 L1017.9,337.4 L1018.0,338.9 L1018.0,341.0 L1018.1,341.8 L1018.1,342.4 L1018.2,343.5 L1018.2,343.7 L1018.3,342.9 L1018.3,343.3 L1018.4,340.3 L1018.4,343.0 L1018.5,343.3 L1018.5,343.8 L1018.6,343.0 L1018.6,342.7 L1018.7,344.8 L1018.7,344.3 L1018.7,344.3 L1018.8,345.4 L1018.8,346.0 L1018.9,345.3 L1018.9,347.4 L1019.0,345.0 L1019.0,348.1 L1019.1,346.4 L1019.1,345.4 L1019.2,346.4 L1019.2,346.7 L1019.3,348.3 L1019.3,345.6 L1019.4,349.2 L1019.4,347.3 L1019.5,348.0 L1019.5,346.1 L1019.6,350.0 L1019.6,349.2 L1019.7,350.4 L1019.7,349.7 L1019.8,347.1 L1019.8,348.0 L1019.9,351.2 L1019.9,352.4 L1020.0,352.9 L1020.0,348.6 L1020.1,352.1 L1020.2,350.9 L1020.2,351.0 L1020.3,353.8 L1020.3,350.8 L1020.3,354.8 L1020.4,351.5 L1020.4,353.5 L1020.5,353.0 L1020.5,353.0 L1020.6,352.6 L1020.6,353.1 L1020.7,354.7 L1020.7,357.0 L1020.8,354.0 L1020.8,354.2 L1020.9,356.7 L1020.9,353.8 L1021.0,354.5 L1021.0,358.4 L1021.1,354.8 L1021.1,354.7 L1021.2,358.3 L1021.2,356.2 L1021.3,358.1 L1021.3,356.4 L1021.4,360.1 L1021.4,358.3 L1021.5,357.2 L1021.5,359.2 L1021.6,361.4 L1021.6,360.1 L1021.7,361.5 L1021.7,358.8 L1021.8,361.9 L1021.8,361.9 L1021.9,360.2 L1022.0,360.1 L1022.0,359.4 L1022.0,362.6 L1022.1,362.4 L1022.1,364.4 L1022.2,361.1 L1022.2,365.0 L1022.3,364.4 L1022.3,363.3 L1022.4,365.3 L1022.4,364.5 L1022.5,362.9 L1022.5,365.7 L1022.6,364.0 L1022.6,365.4 L1022.7,365.7 L1022.7,364.0 L1022.8,364.6 L1022.8,367.9 L1022.9,364.5 L1022.9,367.4 L1023.0,367.7 L1023.0,364.8 L1023.1,368.8 L1023.1,365.4 L1023.2,367.8 L1023.2,368.2 L1023.3,366.4 L1023.3,367.0 L1023.4,369.7 L1023.4,368.4 L1023.5,367.7 L1023.5,371.5 L1023.6,369.4 L1023.6,371.0 L1023.7,369.5 L1023.7,369.5 L1023.8,369.4 L1023.8,372.4 L1023.9,373.5 L1023.9,373.1 L1024.0,371.7 L1024.0,370.3 L1024.1,372.3 L1024.1,372.3 L1024.2,373.4 L1024.2,375.4 L1024.3,375.9 L1024.3,373.2 L1024.4,375.5 L1024.4,372.6 L1024.5,372.7 L1024.5,373.0 L1024.6,376.5 L1024.6,374.4 L1024.7,374.4 L1024.7,377.6 L1024.8,376.6 L1024.8,378.7 L1024.9,379.1 L1024.9,376.8 L1025.0,378.6 L1025.0,377.8 L1025.1,379.7 L1025.1,376.4 L1025.2,379.0 L1025.2,377.7 L1025.3,378.4 L1025.3,380.8 L1025.3,379.8 L1025.4,378.7 L1025.4,382.2 L1025.5,381.5 L1025.5,382.3 L1025.6,381.7 L1025.6,379.9 L1025.7,381.1 L1025.7,381.4 L1025.8,381.4 L1025.8,381.3 L1025.9,382.6 L1025.9,383.7 L1026.0,382.9 L1026.0,384.9 L1026.1,383.4 L1026.1,385.6 L1026.2,384.6 L1026.2,382.7 L1026.3,386.7 L1026.3,385.3 L1026.4,385.3 L1026.4,383.7 L1026.5,385.0 L1026.5,384.0 L1026.6,387.9 L1026.6,388.3 L1026.7,386.9 L1026.7,386.2 L1026.8,389.2 L1026.8,387.5 L1026.9,386.1 L1026.9,390.1 L1027.0,388.0 L1027.0,389.2 L1027.0,389.9 L1027.1,388.0 L1027.1,390.0 L1027.2,390.0 L1027.2,390.9 L1027.3,392.2 L1027.3,390.4 L1027.4,389.8 L1027.5,390.5 L1027.5,393.1 L1027.6,392.0 L1027.6,393.0 L1027.7,392.5 L1027.7,391.5 L1027.8,393.5 L1027.8,394.5 L1027.9,394.1 L1027.9,392.3 L1028.0,392.1 L1028.0,393.3 L1028.1,394.1 L1028.1,394.2 L1028.2,392.9 L1028.2,393.8 L1028.3,393.5 L1028.3,395.4 L1028.4,397.2 L1028.5,394.9 L1028.5,398.3 L1028.6,396.2 L1028.6,395.7 L1028.7,397.6 L1028.7,398.4 L1028.8,399.9 L1028.8,397.5 L1028.9,397.1 L1028.9,397.3 L1028.9,398.2 L1029.0,399.6 L1029.0,399.7 L1029.1,399.2 L1029.1,401.2 L1029.2,401.0 L1029.2,399.4 L1029.3,401.5 L1029.4,401.5 L1029.5,401.2 L1029.5,403.1 L1029.6,403.8 L1029.6,402.1 L1029.7,403.5 L1029.7,401.4 L1029.8,403.8 L1029.8,403.7 L1029.9,405.2 L1029.9,404.9 L1029.9,403.6 L1030.0,403.5 L1030.0,403.3 L1030.1,404.2 L1030.1,404.1 L1030.2,405.2 L1030.2,405.7 L1030.3,405.0 L1030.4,407.4 L1030.5,408.4 L1030.5,405.5 L1030.5,407.1 L1030.6,406.1 L1030.6,409.8 L1030.7,408.1 L1030.7,409.2 L1030.8,408.2 L1030.8,410.3 L1030.9,407.9 L1030.9,409.1 L1031.0,409.9 L1031.0,411.6 L1031.1,410.2 L1031.1,409.5 L1031.2,411.1 L1031.2,411.6 L1031.4,412.5 L1031.4,411.5 L1031.5,413.5 L1031.5,412.8 L1031.6,413.7 L1031.6,411.4 L1031.7,412.8 L1031.7,412.5 L1031.7,413.0 L1031.8,413.8 L1031.8,414.9 L1031.9,414.1 L1031.9,416.3 L1032.0,415.0 L1032.0,416.5 L1032.1,415.2 L1032.1,414.2 L1032.2,415.4 L1032.2,416.3 L1032.3,416.1 L1032.4,417.6 L1032.4,415.8 L1032.5,419.0 L1032.5,416.6 L1032.6,416.5 L1032.6,417.4 L1032.7,419.4 L1032.7,417.9 L1032.8,420.7 L1032.8,418.7 L1032.9,419.0 L1032.9,421.4 L1033.0,421.4 L1033.0,420.5 L1033.1,419.4 L1033.1,420.5 L1033.2,421.1 L1033.3,422.8 L1033.4,422.1 L1033.4,422.5 L1033.5,423.0 L1033.5,422.9 L1033.5,422.6 L1033.6,424.1 L1033.7,422.7 L1033.7,424.3 L1033.7,422.8 L1033.8,425.5 L1033.8,425.6 L1033.9,423.9 L1033.9,425.0 L1034.0,426.3 L1034.0,425.5 L1034.1,426.0 L1034.1,426.4 L1034.2,427.1 L1034.3,426.8 L1034.3,426.8 L1034.4,427.2 L1034.4,428.6 L1034.5,429.1 L1034.5,428.0 L1034.6,427.4 L1034.6,427.9 L1034.7,427.8 L1034.7,429.7 L1034.8,428.4 L1034.8,428.7 L1034.8,428.5 L1034.9,429.2 L1034.9,430.4 L1035.0,431.3 L1035.0,431.3 L1035.1,432.1 L1035.1,432.6 L1035.3,431.9 L1035.3,433.1 L1035.4,434.1 L1035.4,433.6 L1035.4,434.0 L1035.5,433.8 L1035.5,434.2 L1035.6,432.5 L1035.6,433.6 L1035.7,434.7 L1035.7,434.5 L1035.8,435.1 L1035.8,434.9 L1035.9,436.5 L1035.9,436.8 L1036.0,434.8 L1036.0,435.4 L1036.1,436.7 L1036.1,438.0 L1036.2,437.8 L1036.3,436.8 L1036.3,439.1 L1036.4,436.9 L1036.4,437.1 L1036.5,438.9 L1036.5,438.3 L1036.6,438.0 L1036.6,438.4 L1036.7,439.0 L1036.7,440.2 L1036.8,438.9 L1036.8,441.6 L1036.8,440.3 L1036.9,442.1 L1036.9,439.9 L1037.0,441.9 L1037.0,441.6 L1037.1,442.9 L1037.2,443.5 L1037.2,441.8 L1037.3,443.2 L1037.3,443.9 L1037.4,443.2 L1037.4,443.3 L1037.5,444.0 L1037.5,444.8 L1037.6,443.6 L1037.6,444.6 L1037.7,444.1 L1037.7,445.7 L1037.8,446.4 L1037.8,446.0 L1037.9,447.3 L1037.9,446.1 L1038.0,446.6 L1038.0,446.2 L1038.0,447.1 L1038.2,447.9 L1038.2,448.0 L1038.3,448.6 L1038.3,448.1 L1038.3,447.9 L1038.4,449.7 L1038.4,448.5 L1038.5,449.9 L1038.5,449.5 L1038.6,450.5 L1038.6,450.3 L1038.7,451.8 L1038.7,451.5 L1038.8,450.6 L1038.8,450.4 L1038.9,452.7 L1038.9,451.1 L1039.0,452.3 L1039.0,452.7 L1039.1,452.8 L1039.2,453.4 L1039.2,453.8 L1039.3,453.7 L1039.3,455.0 L1039.4,454.2 L1039.4,453.6 L1039.5,454.2 L1039.5,455.1 L1039.6,454.9 L1039.6,455.1 L1039.6,455.0 L1039.7,455.4 L1039.7,457.0 L1039.8,456.7 L1039.8,457.0 L1039.9,457.1 L1039.9,456.9 L1040.0,457.9 L1040.1,459.2 L1040.2,458.4 L1040.2,459.0 L1040.3,459.8 L1040.3,458.5 L1040.4,460.6 L1040.4,460.9 L1040.5,461.0 L1040.5,461.2 L1040.5,461.3 L1040.6,460.5 L1040.6,461.1 L1040.7,462.4 L1040.7,461.2 L1040.8,461.1 L1040.8,461.8 L1040.9,463.0 L1040.9,463.0 L1041.0,462.2 L1041.1,463.1 L1041.1,463.3 L1041.2,464.8 L1041.2,465.3 L1041.3,464.7 L1041.3,464.1 L1041.4,465.1 L1041.4,464.9 L1041.5,464.9 L1041.5,466.3 L1041.6,465.3 L1041.6,466.4 L1041.7,465.8 L1041.7,467.4 L1041.8,467.1 L1041.8,467.6 L1041.9,466.8 L1041.9,468.1 L1041.9,468.8 L1042.1,468.5 L1042.1,468.2 L1042.2,469.1 L1042.2,469.7 L1042.3,469.8 L1042.3,470.4 L1042.3,471.0 L1042.4,469.6 L1042.4,469.9 L1042.5,471.9 L1042.5,470.3 L1042.6,470.9 L1042.6,470.9 L1042.7,471.2 L1042.7,472.9 L1042.8,472.0 L1042.8,472.1 L1042.9,473.4 L1042.9,473.6 L1043.0,473.1 L1043.1,473.5 L1043.1,474.1 L1043.2,474.8 L1043.2,475.7 L1043.3,474.8 L1043.3,474.7 L1043.4,476.3 L1043.4,475.9 L1043.5,476.9 L1043.5,476.3 L1043.6,476.4 L1043.6,477.6 L1043.7,477.8 L1043.7,477.0 L1043.8,477.9 L1043.8,478.7 L1043.9,478.5 L1043.9,477.7 L1044.0,479.0 L1044.1,480.1 L1044.1,479.6 L1044.2,480.0 L1044.2,480.3 L1044.3,480.7 L1044.3,480.7 L1044.3,480.9 L1044.4,481.6 L1044.4,481.5 L1044.5,482.1 L1044.5,481.9 L1044.6,482.2 L1044.6,482.6 L1044.7,482.3 L1044.7,482.6 L1044.8,482.9 L1044.8,484.0 L1044.9,483.5 L1045.0,484.1 L1045.0,484.6 L1045.1,484.2 L1045.1,485.6 L1045.2,486.0 L1045.2,485.9 L1045.3,485.8 L1045.3,486.2 L1045.4,486.6 L1045.4,487.2 L1045.5,487.3 L1045.5,487.5 L1045.6,486.8 L1045.6,487.7 L1045.7,487.3 L1045.7,487.8 L1045.8,487.7 L1045.8,489.1 L1045.8,489.0 L1046.0,490.1 L1046.0,489.6 L1046.1,490.5 L1046.1,490.2 L1046.2,491.0 L1046.2,490.9 L1046.2,490.4 L1046.3,491.8 L1046.3,492.0 L1046.4,491.3 L1046.4,491.5 L1046.5,491.8 L1046.5,492.6 L1046.6,493.3 L1046.6,492.8 L1046.7,493.2 L1046.7,493.7 L1046.8,494.4 L1046.8,493.7 L1046.9,495.0 L1047.0,494.6 L1047.0,494.9 L1047.1,495.2 L1047.1,496.2 L1047.2,496.3 L1047.2,496.2 L1047.3,496.7 L1047.3,497.1 L1047.4,496.6 L1047.4,497.2 L1047.5,497.4 L1047.5,497.8 L1047.6,497.7 L1047.6,499.0 L1047.7,498.6 L1047.7,498.6 L1047.8,499.8 L1047.8,499.2 L1047.9,500.1 L1048.0,500.4 L1048.0,500.2 L1048.1,501.4 L1048.1,501.8 L1048.2,501.2 L1048.2,502.1 L1048.3,501.5 L1048.3,502.3 L1048.4,502.1 L1048.4,502.6 L1048.4,502.7 L1048.5,503.0 L1048.5,503.5 L1048.6,504.0 L1048.6,504.6 L1048.7,504.5 L1048.7,504.9 L1048.8,505.0 L1048.9,505.2 L1049.0,505.9 L1049.0,506.2 L1049.1,506.6 L1049.1,506.3 L1049.2,507.3 L1049.2,506.8 L1049.3,507.4 L1049.3,508.0 L1049.3,508.4 L1049.4,508.3 L1049.5,508.2 L1049.5,508.3 L1049.5,509.5 L1049.6,509.5 L1049.6,509.3 L1049.7,509.6 L1049.7,510.4 L1049.9,510.9 L1049.9,510.7 L1050.0,511.8 L1050.0,511.4 L1050.1,511.7 L1050.1,511.9 L1050.2,512.3 L1050.2,512.4 L1050.3,512.9 L1050.3,512.8 L1050.3,513.1 L1050.4,513.3 L1050.4,514.3 L1050.5,514.1 L1050.5,514.7 L1050.6,514.7 L1050.6,514.6 L1050.7,515.4 L1050.7,515.3 L1050.9,516.2 L1050.9,516.5 L1051.0,517.0 L1051.0,516.8 L1051.1,517.5 L1051.1,517.2 L1051.2,517.9 L1051.2,518.4 L1051.2,518.4 L1051.3,518.4 L1051.3,518.6 L1051.4,519.3 L1051.4,519.6 L1051.5,519.3 L1051.5,520.0 L1051.6,520.3 L1051.6,520.6 L1051.7,520.5 L1051.8,521.6 L1051.9,521.8 L1052.0,522.0 L1052.0,522.2 L1052.0,522.5 L1052.1,522.7 L1052.1,523.0 L1052.2,523.3 L1052.2,523.9 L1052.3,523.9 L1052.3,523.9 L1052.4,524.5 L1052.4,524.6 L1052.5,524.9 L1052.5,525.1 L1052.6,525.5 L1052.6,525.6 L1052.7,526.2 L1052.9,527.4 L1052.9,527.2 L1053.0,527.7 L1053.0,528.0 L1053.1,528.2 L1053.1,528.4 L1053.2,528.4 L1053.2,529.1 L1053.2,529.2 L1053.3,529.5 L1053.3,529.5 L1053.4,530.1 L1053.4,530.1 L1053.5,530.5 L1053.5,530.5 L1053.6,531.2 L1053.6,531.5 L1053.7,531.5 L1053.7,531.6 L1053.9,532.7 L1053.9,532.8 L1054.0,533.3 L1054.0,533.5 L1054.1,533.6 L1054.1,534.1 L1054.2,534.3 L1054.2,534.4 L1054.3,534.8 L1054.3,535.0 L1054.4,535.2 L1054.4,535.5 L1054.5,535.8 L1054.5,536.0 L1054.5,536.3 L1054.6,536.6 L1054.6,537.0 L1054.7,537.2 L1054.7,537.2 L1054.9,538.3 L1055.0,538.7 L1055.0,538.8 L1055.1,539.2 L1055.1,539.4 L1055.1,539.6 L1055.2,539.9 L1055.2,540.3 L1055.3,540.6 L1055.3,540.9 L1055.4,541.1 L1055.4,541.3 L1055.5,541.6 L1055.5,541.9 L1055.6,542.1 L1055.6,542.4 L1055.7,542.7 L1055.7,543.0 L1055.8,543.2 L1056.0,544.0 L1056.0,543.9 L1056.0,543.9 L1056.1,544.0 L1056.1,544.0 L1056.2,544.0 L1056.2,543.9 L1056.3,543.9 L1056.3,543.9 L1056.4,543.9 L1056.4,543.9 L1056.5,543.9 L1056.5,544.0 L1056.6,543.9 L1056.6,543.9 L1056.7,543.9 L1056.7,544.0 L1056.8,543.9 L1056.8,543.9 L1057.0,544.0 L1057.0,544.0 L1057.1,543.9 L1057.1,543.9 L1057.2,544.0 L1057.2,544.0 L1057.3,543.9 L1057.3,544.0 L1057.3,543.9 L1057.4,544.0 L1057.4,543.9 L1057.5,543.9 L1057.5,543.9 L1057.6,543.9 L1057.6,543.9 L1057.7,544.0 L1057.7,544.0 L1057.8,544.0 L1057.8,543.9 L1058.0,544.0 L1058.0,544.0 L1058.1,544.0 L1058.1,544.0 L1058.2,543.9 L1058.2,543.9 L1058.3,544.0 L1058.3,544.0 L1058.4,543.9 L1058.4,543.9 L1058.5,544.0 L1058.5,544.0 L1058.6,544.0 L1058.6,543.9 L1058.7,543.9 L1058.7,543.9 L1058.8,543.9 L1058.8,543.9 L1058.8,544.0 L1059.0,544.0 L1059.1,544.0 L1059.1,543.9 L1059.2,543.9 L1059.2,544.0 L1059.3,544.0 L1059.3,543.9 L1059.4,543.9 L1059.4,543.9 L1059.5,544.0 L1059.5,544.0 L1059.5,544.0 L1059.6,544.0 L1059.6,543.9 L1059.7,543.9 L1059.7,543.9 L1059.8,544.0 L1059.9,543.9 L1060.1,544.0 L1060.1,543.9 L1060.1,543.9 L1060.2,543.9 L1060.2,543.9 L1060.3,543.9 L1060.3,544.0 L1060.4,544.0 L1060.4,544.0 L1060.5,543.9 L1060.5,543.9 L1060.6,544.0 L1060.6,543.9 L1060.7,543.9 L1060.7,543.9 L1060.8,544.0 L1060.8,543.9 L1060.9,543.9 L1060.9,543.9 L1061.1,544.0 L1061.1,543.9 L1061.2,543.9 L1061.2,544.0 L1061.3,543.9 L1061.3,543.9 L1061.4,543.9 L1061.4,543.9 L1061.5,543.9 L1061.5,543.9 L1061.6,543.9 L1061.6,544.0 L1061.6,544.0 L1061.7,544.0 L1061.7,543.9 L1061.8,543.9 L1061.8,544.0 L1061.9,543.9 L1061.9,543.9 L1062.1,543.9 L1062.2,544.0 L1062.2,544.0 L1062.3,543.9 L1062.3,544.0 L1062.4,544.0 L1062.4,543.9 L1062.5,543.9 L1062.5,543.9 L1062.6,544.0 L1062.6,544.0 L1062.7,543.9 L1062.7,543.9 L1062.7,544.0 L1062.8,543.9 L1062.8,544.0 L1062.9,543.9 L1062.9,544.0 L1063.0,543.9 L1063.1,543.9 L1063.2,543.9 L1063.2,544.0 L1063.3,544.0 L1063.3,544.0 L1063.4,544.0 L1063.4,543.9 L1063.5,544.0 L1063.5,543.9 L1063.6,543.9 L1063.6,544.0 L1063.7,543.9 L1063.7,544.0 L1063.8,543.9 L1063.8,543.9 L1063.9,544.0 L1063.9,543.9 L1064.0,543.9 L1064.0,543.9 L1064.2,543.9 L1064.2,544.0 L1064.3,543.9 L1064.3,543.9 L1064.4,544.0 L1064.4,543.9 L1064.5,543.9 L1064.5,544.0 L1064.6,544.0 L1064.6,543.9 L1064.7,543.9 L1064.7,544.0 L1064.8,543.9 L1064.8,544.0 L1064.9,543.9 L1064.9,544.0 L1064.9,543.9 L1065.0,543.9 L1065.2,543.9 L1065.3,543.9 L1065.3,544.0 L1065.3,543.9 L1065.4,543.9 L1065.4,544.0 L1065.5,543.9 L1065.5,544.0 L1065.6,543.9 L1065.6,544.0 L1065.7,543.9 L1065.7,543.9 L1065.8,543.9 L1065.8,543.9 L1065.9,543.9 L1065.9,544.0 L1066.0,544.0 L1066.0,543.9 L1066.1,544.0 L1066.2,544.0 L1066.3,543.9 L1066.3,544.0 L1066.4,543.9 L1066.4,543.9 L1066.5,543.9 L1066.5,543.9 L1066.6,543.9 L1066.6,544.0 L1066.7,543.9 L1066.7,543.9 L1066.8,543.9 L1066.8,544.0 L1066.9,544.0 L1066.9,543.9 L1067.0,544.0 L1067.0,543.9 L1067.0,544.0 L1067.1,544.0 L1067.3,543.9 L1067.3,544.0 L1067.4,543.9 L1067.4,544.0 L1067.5,544.0 L1067.5,544.0 L1067.6,543.9 L1067.6,543.9 L1067.7,544.0 L1067.7,544.0 L1067.7,543.9 L1067.8,543.9 L1067.8,543.9 L1067.9,543.9 L1067.9,543.9 L1068.0,543.9 L1068.0,544.0 L1068.1,544.0 L1068.1,543.9 L1068.3,544.0 L1068.3,543.9 L1068.4,543.9 L1068.4,544.0 L1068.5,543.9 L1068.5,543.9 L1068.6,544.0 L1068.6,544.0 L1068.7,543.9 L1068.7,543.9 L1068.8,543.9 L1068.8,543.9 L1068.9,543.9 L1068.9,543.9 L1069.0,544.0 L1069.0,544.0 L1069.1,543.9 L1069.1,544.0 L1069.1,543.9 L1069.3,544.0 L1069.4,543.9 L1069.4,544.0 L1069.5,544.0 L1069.5,543.9 L1069.6,543.9 L1069.6,543.9 L1069.7,544.0 L1069.7,544.0 L1069.8,544.0 L1069.8,544.0 L1069.8,544.0 L1069.9,544.0 L1069.9,543.9 L1070.0,544.0 L1070.0,544.0 L1070.1,543.9 L1070.1,543.9 L1070.2,543.9 L1070.4,544.0 L1070.4,543.9 L1070.4,543.9 L1070.5,543.9 L1070.5,543.9 L1070.6,544.0 L1070.6,544.0 L1070.7,544.0 L1070.7,544.0 L1070.8,543.9 L1070.8,544.0 L1070.9,544.0 L1070.9,544.0 L1071.0,543.9 L1071.0,543.9 L1071.1,543.9 L1071.1,543.9 L1071.2,543.9 L1071.2,543.9 L1071.4,543.9 L1071.4,544.0 L1071.5,544.0 L1071.5,544.0 L1071.6,544.0 L1071.6,544.0 L1071.7,544.0 L1071.7,543.9 L1071.8,543.9 L1071.8,543.9 L1071.9,543.9 L1071.9,543.9 L1072.0,544.0 L1072.0,543.9 L1072.1,543.9 L1072.1,543.9 L1072.2,544.0 L1072.2,543.9 L1072.4,543.9 L1072.5,543.9 L1072.5,544.0 L1072.6,544.0 L1072.6,543.9 L1072.7,544.0 L1072.7,544.0 L1072.7,543.9 L1072.8,544.0 L1072.8,543.9 L1072.9,544.0 L1072.9,544.0 L1073.0,543.9 L1073.0,543.9 L1073.1,543.9 L1073.1,544.0 L1073.2,543.9 L1073.2,543.9 L1073.3,544.0 L1073.5,544.0 L1073.5,543.9 L1073.5,543.9 L1073.6,543.9 L1073.6,544.0 L1073.7,544.0 L1073.7,543.9 L1073.8,544.0 L1073.8,543.9 L1073.9,544.0 L1073.9,543.9 L1074.0,543.9 L1074.0,544.0 L1074.1,544.0 L1074.1,544.0 L1074.2,543.9 L1074.2,544.0 L1074.3,544.0 L1074.3,544.0 L1074.5,544.0 L1074.5,544.0 L1074.6,544.0 L1074.6,544.0 L1074.7,543.9 L1074.7,543.9 L1074.8,543.9 L1074.8,543.9 L1074.9,543.9 L1074.9,544.0 L1075.0,543.9 L1075.0,544.0 L1075.1,544.0 L1075.1,544.0 L1075.2,543.9 L1075.2,544.0 L1075.3,543.9 L1075.3,543.9 L1075.5,543.9 L1075.6,544.0 L1075.6,544.0 L1075.7,543.9 L1075.7,543.9 L1075.8,544.0 L1075.8,543.9 L1075.9,543.9 L1075.9,543.9 L1075.9,543.9 L1076.0,543.9 L1076.0,544.0 L1076.1,543.9 L1076.1,543.9 L1076.2,544.0 L1076.2,544.0 L1076.3,544.0 L1076.3,543.9 L1076.4,543.9 L1076.6,543.9 L1076.6,544.0 L1076.7,543.9 L1076.7,543.9 L1076.8,543.9 L1076.8,543.9 L1076.8,543.9 L1076.9,543.9 L1076.9,544.0 L1077.0,543.9 L1077.0,544.0 L1077.1,544.0 L1077.1,544.0 L1077.2,543.9 L1077.2,543.9 L1077.3,543.9 L1077.3,543.9 L1077.4,544.0 L1077.6,543.9 L1077.6,544.0 L1077.7,543.9 L1077.7,543.9 L1077.8,544.0 L1077.8,544.0 L1077.9,544.0 L1077.9,543.9 L1078.1,543.9 L1078.1,544.0 L1078.2,544.0 L1078.2,543.9 L1078.3,543.9 L1078.3,543.9 L1078.4,544.0 L1078.4,544.0 L1078.6,543.9 L1078.7,543.9 L1078.7,543.9 L1078.8,543.9 L1078.8,543.9 L1078.9,544.0 L1078.9,543.9 L1079.0,543.9 L1079.0,543.9 L1079.0,543.9 L1079.1,544.0 L1079.1,543.9 L1079.2,544.0 L1079.2,543.9 L1079.3,544.0 L1079.3,544.0 L1079.4,543.9 L1079.4,544.0 L1079.7,544.0 L1079.7,543.9 L1079.8,544.0 L1079.8,544.0 L1079.9,543.9 L1079.9,544.0 L1079.9,544.0 L1080.0,544.0 L1080.0,543.9 L1080.1,543.9 L1080.1,543.9 L1080.2,543.9 L1080.2,543.9 L1080.3,544.0 L1080.3,543.9 L1080.4,544.0 L1080.4,543.9 L1080.5,543.9 L1080.7,543.9 L1080.8,543.9 L1080.8,543.9 L1080.8,544.0 L1080.9,543.9 L1080.9,544.0 L1081.0,544.0 L1081.0,544.0 L1081.1,544.0 L1081.1,543.9 L1081.2,544.0 L1081.2,543.9 L1081.3,543.9 L1081.3,543.9 L1081.4,543.9 L1081.4,544.0 L1081.5,543.9 L1081.5,543.9 L1081.6,543.9 L1081.7,543.9 L1081.8,543.9 L1081.8,544.0 L1081.9,543.9 L1081.9,543.9 L1082.0,543.9 L1082.1,543.9 L1082.1,544.0 L1082.2,543.9 L1082.2,544.0 L1082.3,543.9 L1082.3,544.0 L1082.4,543.9 L1082.4,543.9 L1082.5,544.0 L1082.5,544.0 L1082.5,543.9 L1082.6,543.9 L1082.8,544.0 L1082.8,543.9 L1083.2,544.0 L1083.3,543.9 L1083.3,543.9 L1083.3,543.9 L1083.4,544.0 L1083.4,543.9 L1083.5,543.9 L1083.5,543.9 L1083.6,543.9 L1083.6,543.9 L1083.9,544.0 L1084.0,543.9 L1084.0,543.9" fill="none" stroke="#1f77b4" stroke-width="1.4" opacity="0.85"/><text x="1040" y="54" fill="#ff7f0e" font-size="11">roll 33</text><text x="1090" y="558" fill="#ff7f0e" font-size="11">-29</text><path d="M958.4,324.1 L958.4,324.8 L958.5,326.2 L958.5,326.4 L958.6,324.4 L958.6,327.5 L958.7,326.6 L958.7,325.6 L958.7,325.1 L958.8,326.7 L958.8,325.7 L958.9,327.2 L958.9,323.9 L959.0,324.2 L959.1,326.6 L959.1,326.0 L959.1,325.1 L959.2,324.5 L959.2,326.5 L959.3,327.5 L959.3,327.2 L959.4,325.4 L959.4,326.4 L959.5,326.0 L959.5,324.9 L959.6,326.3 L959.6,327.2 L959.7,327.4 L959.7,324.5 L959.8,324.5 L959.8,324.7 L959.9,327.6 L959.9,327.7 L960.0,325.3 L960.0,328.1 L960.1,326.4 L960.1,326.2 L960.2,326.7 L960.2,328.8 L960.2,327.9 L960.3,326.9 L960.3,327.8 L960.4,325.2 L960.4,328.5 L960.5,329.6 L960.5,327.6 L960.6,326.8 L960.6,327.3 L960.7,330.0 L960.7,329.9 L960.8,326.9 L960.8,325.7 L960.9,327.5 L960.9,329.6 L961.0,330.0 L961.0,327.8 L961.1,327.8 L961.1,326.3 L961.2,329.9 L961.2,326.3 L961.3,330.0 L961.3,329.1 L961.4,331.3 L961.4,327.4 L961.5,326.6 L961.5,330.9 L961.6,330.5 L961.6,329.0 L961.7,326.6 L961.7,328.7 L961.8,328.1 L961.8,329.0 L961.8,328.1 L961.9,329.8 L961.9,326.9 L962.0,327.3 L962.0,328.8 L962.1,325.7 L962.1,326.5 L962.2,327.5 L962.2,325.5 L962.3,330.3 L962.3,326.8 L962.4,329.1 L962.4,328.8 L962.5,328.9 L962.5,329.2 L962.6,328.0 L962.6,328.9 L962.7,325.7 L962.7,326.2 L962.8,327.2 L962.8,326.8 L962.9,328.7 L962.9,330.5 L963.0,330.0 L963.0,327.0 L963.0,330.6 L963.1,329.6 L963.1,328.1 L963.2,327.2 L963.2,330.0 L963.3,328.2 L963.3,329.7 L963.4,330.1 L963.4,328.1 L963.5,330.1 L963.5,330.3 L963.6,328.2 L963.6,327.0 L963.7,330.7 L963.7,328.5 L963.8,330.5 L963.8,329.8 L963.9,327.2 L963.9,325.9 L964.0,329.9 L964.0,329.5 L964.1,329.4 L964.1,327.3 L964.2,328.1 L964.2,328.1 L964.3,326.6 L964.3,328.4 L964.4,327.7 L964.4,328.1 L964.5,327.0 L964.5,326.2 L964.6,326.0 L964.6,328.5 L964.7,329.4 L964.7,330.5 L964.8,328.5 L964.8,327.8 L964.9,327.8 L964.9,329.8 L965.0,330.2 L965.0,329.8 L965.1,327.5 L965.1,326.7 L965.2,326.9 L965.2,330.3 L965.3,327.7 L965.3,326.3 L965.4,326.7 L965.4,327.0 L965.5,330.8 L965.5,330.8 L965.6,327.6 L965.6,326.3 L965.7,328.0 L965.7,329.6 L965.8,326.6 L965.8,327.5 L965.9,328.3 L965.9,328.3 L966.0,330.9 L966.0,329.7 L966.1,326.9 L966.1,328.0 L966.2,326.3 L966.2,330.6 L966.3,327.2 L966.3,327.9 L966.4,328.2 L966.4,326.3 L966.5,328.2 L966.5,330.9 L966.6,327.7 L966.6,326.3 L966.7,328.3 L966.7,329.5 L966.7,327.1 L966.8,327.2 L966.8,328.4 L966.9,326.4 L966.9,330.9 L967.0,328.2 L967.0,327.8 L967.1,326.2 L967.1,326.6 L967.2,328.8 L967.3,330.1 L967.3,329.8 L967.4,329.4 L967.4,327.5 L967.5,326.4 L967.5,331.1 L967.6,329.1 L967.6,326.9 L967.7,329.7 L967.7,328.2 L967.7,313.5 L967.8,301.2 L967.8,283.2 L967.9,279.4 L967.9,284.5 L968.0,278.5 L968.0,256.5 L968.1,252.4 L968.1,259.5 L968.2,275.4 L968.2,270.8 L968.3,247.1 L968.3,241.2 L968.4,276.9 L968.4,278.4 L968.5,278.2 L968.5,264.6 L968.6,249.9 L968.6,259.1 L968.7,283.9 L968.7,278.3 L968.7,265.9 L968.8,267.7 L968.8,279.3 L968.9,288.2 L968.9,294.6 L969.0,281.6 L969.0,292.5 L969.1,280.9 L969.1,282.3 L969.2,290.6 L969.2,276.0 L969.3,282.4 L969.3,282.4 L969.3,302.7 L969.4,301.7 L969.4,304.4 L969.5,297.5 L969.5,309.3 L969.6,295.1 L969.6,297.5 L969.7,307.9 L969.7,306.2 L969.8,304.4 L969.8,313.8 L969.9,304.8 L969.9,310.2 L970.0,307.1 L970.0,301.7 L970.1,305.0 L970.1,300.8 L970.2,301.8 L970.2,296.6 L970.3,278.7 L970.3,266.0 L970.4,273.6 L970.4,272.1 L970.5,261.1 L970.5,218.6 L970.6,256.1 L970.6,229.4 L970.6,193.2 L970.7,193.1 L970.7,233.7 L970.8,206.6 L970.8,161.2 L970.9,183.5 L970.9,143.9 L971.0,150.4 L971.0,196.7 L971.1,136.0 L971.1,195.6 L971.2,187.9 L971.2,126.8 L971.2,145.3 L971.3,192.7 L971.3,196.1 L971.4,149.4 L971.4,144.7 L971.5,180.9 L971.5,120.3 L971.6,159.2 L971.6,193.1 L971.7,139.4 L971.7,137.1 L971.8,195.5 L971.8,178.7 L971.9,160.6 L971.9,164.9 L972.0,165.7 L972.0,155.2 L972.1,179.1 L972.1,163.2 L972.2,151.3 L972.2,138.4 L972.3,145.3 L972.3,211.0 L972.3,190.6 L972.4,198.2 L972.5,146.3 L972.5,148.8 L972.5,196.2 L972.6,177.1 L972.6,169.2 L972.7,182.3 L972.7,190.3 L972.8,191.2 L972.8,144.8 L972.9,198.2 L972.9,202.7 L973.0,193.6 L973.0,213.2 L973.1,180.9 L973.1,201.2 L973.1,221.8 L973.2,217.0 L973.2,176.9 L973.3,195.6 L973.3,227.9 L973.4,178.8 L973.4,187.5 L973.5,182.4 L973.5,167.8 L973.6,211.0 L973.6,205.1 L973.7,131.7 L973.7,166.1 L973.8,189.3 L973.8,119.1 L973.9,173.7 L973.9,176.7 L974.0,194.5 L974.0,124.9 L974.1,192.8 L974.1,168.3 L974.1,185.4 L974.2,120.2 L974.2,159.6 L974.3,106.2 L974.3,147.0 L974.4,191.4 L974.4,169.0 L974.5,179.3 L974.5,159.7 L974.6,180.0 L974.6,122.5 L974.7,188.7 L974.7,166.8 L974.8,119.9 L974.8,180.2 L974.9,109.1 L974.9,109.0 L975.0,109.4 L975.0,108.5 L975.1,117.0 L975.1,133.1 L975.1,193.3 L975.2,169.8 L975.2,139.6 L975.3,151.2 L975.3,191.1 L975.4,129.4 L975.4,138.8 L975.5,142.0 L975.5,128.4 L975.6,125.5 L975.6,165.5 L975.7,174.7 L975.7,182.1 L975.8,112.2 L975.8,105.7 L975.9,118.4 L975.9,172.1 L976.0,115.8 L976.0,158.5 L976.0,161.0 L976.1,173.4 L976.2,146.6 L976.2,132.0 L976.3,180.4 L976.3,166.6 L976.4,102.4 L976.4,189.9 L976.5,132.6 L976.5,150.5 L976.6,117.3 L976.6,149.7 L976.7,181.1 L976.7,135.3 L976.8,189.6 L976.8,162.4 L976.9,145.1 L976.9,185.3 L977.0,115.8 L977.0,105.1 L977.1,183.4 L977.1,182.4 L977.2,155.3 L977.2,156.0 L977.3,162.7 L977.3,140.8 L977.4,160.7 L977.4,95.1 L977.5,108.8 L977.5,143.6 L977.6,133.7 L977.6,101.0 L977.7,194.1 L977.7,188.7 L977.7,105.2 L977.8,174.4 L977.8,104.5 L977.9,123.9 L977.9,149.3 L978.0,146.0 L978.0,127.8 L978.1,185.7 L978.1,182.0 L978.2,117.5 L978.2,115.1 L978.3,139.3 L978.3,192.4 L978.4,148.1 L978.4,180.1 L978.5,167.1 L978.5,184.7 L978.6,166.3 L978.6,150.6 L978.6,160.1 L978.7,108.5 L978.8,132.0 L978.8,128.6 L978.8,120.1 L978.9,183.2 L978.9,106.4 L979.0,117.9 L979.0,127.5 L979.1,125.9 L979.1,152.1 L979.2,139.0 L979.2,127.6 L979.3,132.0 L979.3,145.3 L979.4,158.1 L979.4,122.6 L979.5,172.9 L979.5,100.3 L979.6,188.4 L979.6,105.4 L979.7,129.6 L979.7,131.4 L979.7,177.5 L979.8,171.9 L979.8,173.4 L979.9,117.3 L979.9,155.1 L980.0,108.2 L980.0,158.5 L980.1,126.0 L980.1,107.3 L980.2,131.2 L980.2,168.0 L980.3,143.9 L980.3,109.4 L980.4,112.5 L980.4,146.6 L980.5,151.5 L980.5,112.0 L980.6,116.6 L980.7,105.3 L980.7,190.3 L980.8,139.3 L980.8,120.1 L980.9,167.7 L980.9,135.3 L980.9,142.8 L981.0,144.7 L981.0,144.5 L981.1,139.3 L981.1,128.5 L981.2,125.6 L981.2,189.5 L981.3,112.5 L981.3,180.7 L981.4,174.5 L981.4,100.6 L981.5,187.8 L981.5,159.2 L981.6,140.6 L981.6,162.4 L981.7,172.9 L981.7,111.5 L981.8,139.0 L981.8,147.5 L981.8,121.5 L981.9,176.0 L981.9,171.2 L982.0,159.7 L982.0,204.8 L982.1,192.5 L982.1,192.7 L982.2,206.1 L982.2,173.5 L982.3,197.3 L982.3,222.1 L982.4,219.3 L982.4,184.8 L982.5,240.1 L982.5,222.3 L982.5,250.4 L982.6,241.7 L982.6,248.8 L982.7,243.5 L982.7,239.0 L982.8,258.6 L982.8,255.2 L982.9,266.1 L982.9,248.3 L983.0,255.4 L983.0,266.8 L983.1,282.8 L983.1,260.8 L983.2,264.1 L983.2,284.2 L983.3,271.7 L983.3,288.5 L983.4,286.3 L983.4,271.4 L983.4,285.9 L983.5,290.8 L983.5,288.2 L983.6,295.8 L983.6,297.4 L983.7,299.0 L983.7,285.4 L983.8,284.7 L983.8,291.1 L983.9,299.8 L983.9,307.3 L984.0,296.1 L984.0,308.7 L984.1,308.3 L984.1,310.5 L984.2,298.9 L984.2,302.0 L984.2,313.3 L984.3,308.3 L984.3,304.7 L984.4,311.7 L984.4,311.7 L984.5,310.4 L984.5,310.7 L984.6,304.4 L984.6,312.9 L984.7,307.0 L984.7,314.7 L984.8,310.5 L984.8,315.0 L984.8,319.7 L984.9,319.3 L984.9,321.7 L985.0,322.4 L985.0,317.6 L985.1,320.6 L985.2,319.5 L985.2,318.3 L985.3,322.9 L985.3,317.1 L985.3,318.8 L985.4,318.1 L985.4,315.0 L985.5,317.2 L985.5,319.3 L985.6,320.3 L985.6,320.2 L985.7,320.0 L985.7,319.9 L985.8,318.1 L985.8,322.3 L985.9,321.9 L985.9,322.5 L986.0,322.5 L986.0,321.5 L986.1,324.5 L986.1,324.5 L986.1,325.1 L986.2,320.2 L986.2,321.6 L986.3,324.2 L986.3,323.1 L986.4,322.3 L986.4,327.3 L986.5,325.7 L986.5,325.4 L986.6,323.6 L986.6,323.0 L986.7,324.6 L986.7,326.1 L986.8,324.1 L986.8,323.1 L986.9,326.6 L986.9,327.3 L987.0,328.2 L987.0,326.2 L987.1,324.5 L987.1,324.6 L987.2,327.8 L987.2,326.3 L987.2,326.7 L987.3,328.4 L987.3,329.7 L987.4,330.0 L987.4,329.3 L987.5,334.3 L987.5,346.0 L987.6,343.1 L987.6,350.1 L987.7,368.0 L987.7,360.4 L987.8,374.2 L987.8,376.7 L987.9,387.9 L987.9,403.4 L988.0,399.0 L988.0,399.7 L988.1,429.1 L988.1,431.8 L988.1,418.3 L988.2,455.7 L988.2,441.6 L988.3,419.1 L988.3,437.4 L988.4,463.3 L988.4,446.2 L988.5,491.3 L988.5,499.7 L988.6,496.2 L988.6,473.6 L988.7,476.4 L988.7,464.5 L988.8,464.9 L988.8,440.0 L988.9,470.1 L988.9,441.7 L989.0,443.5 L989.0,515.5 L989.1,447.2 L989.1,520.1 L989.2,467.3 L989.2,496.1 L989.2,488.6 L989.3,541.4 L989.3,522.7 L989.4,520.4 L989.4,459.7 L989.5,492.9 L989.6,509.7 L989.6,476.1 L989.7,481.6 L989.7,493.0 L989.8,542.0 L989.8,511.0 L989.9,456.2 L989.9,508.9 L990.0,483.0 L990.0,448.4 L990.0,461.5 L990.1,453.9 L990.1,433.1 L990.2,442.2 L990.2,421.6 L990.3,461.9 L990.3,462.8 L990.4,455.6 L990.4,409.6 L990.5,410.7 L990.5,444.6 L990.6,424.8 L990.6,431.4 L990.7,400.2 L990.7,395.0 L990.7,380.7 L990.8,400.3 L990.9,368.4 L990.9,377.5 L990.9,368.3 L991.0,350.4 L991.0,346.2 L991.1,355.4 L991.1,343.5 L991.2,341.0 L991.2,333.9 L991.3,336.7 L991.3,333.9 L991.4,334.4 L991.4,337.9 L991.5,332.6 L991.5,333.8 L991.6,327.5 L991.6,331.9 L991.6,331.8 L991.7,326.9 L991.7,326.6 L991.8,322.1 L991.8,324.2 L991.9,324.8 L991.9,323.3 L992.0,322.2 L992.0,320.2 L992.1,316.1 L992.1,303.6 L992.2,307.4 L992.2,306.5 L992.3,295.5 L992.3,285.4 L992.4,277.0 L992.4,276.3 L992.5,275.7 L992.5,285.9 L992.5,275.1 L992.6,275.4 L992.6,273.9 L992.7,297.9 L992.7,290.9 L992.8,290.0 L992.8,294.3 L992.9,297.6 L992.9,304.3 L993.0,311.1 L993.0,304.8 L993.1,303.1 L993.1,298.6 L993.1,306.2 L993.2,311.1 L993.2,299.9 L993.3,306.4 L993.3,297.9 L993.4,285.6 L993.4,281.9 L993.5,282.2 L993.5,302.2 L993.6,297.3 L993.6,307.1 L993.7,293.8 L993.7,302.2 L993.7,295.5 L993.8,306.5 L993.8,297.2 L993.9,306.8 L993.9,310.2 L994.0,305.0 L994.1,310.1 L994.1,303.2 L994.2,284.4 L994.2,258.9 L994.3,251.0 L994.3,263.5 L994.4,280.2 L994.4,305.3 L994.5,308.4 L994.5,289.8 L994.6,299.6 L994.6,274.8 L994.7,280.6 L994.7,285.8 L994.8,259.8 L994.8,267.7 L994.8,274.1 L994.9,308.6 L994.9,279.3 L995.0,282.7 L995.0,298.6 L995.1,304.7 L995.1,273.9 L995.2,304.9 L995.2,333.5 L995.3,332.0 L995.3,306.4 L995.4,275.7 L995.4,256.0 L995.5,255.0 L995.5,233.7 L995.6,207.6 L995.6,245.5 L995.7,210.8 L995.7,171.8 L995.7,216.9 L995.8,205.5 L995.8,204.6 L995.9,173.9 L995.9,195.8 L996.0,171.9 L996.0,186.3 L996.1,130.8 L996.1,160.7 L996.2,183.7 L996.2,166.2 L996.3,117.5 L996.3,163.6 L996.4,125.7 L996.4,158.8 L996.5,109.3 L996.5,187.9 L996.6,181.4 L996.6,171.5 L996.7,165.4 L996.7,158.4 L996.8,191.6 L996.8,105.2 L996.8,117.4 L996.9,157.6 L996.9,167.2 L997.0,140.9 L997.0,115.5 L997.1,193.8 L997.1,181.3 L997.2,148.0 L997.2,131.6 L997.3,142.1 L997.3,150.0 L997.4,133.7 L997.4,132.7 L997.5,131.7 L997.5,152.8 L997.6,162.8 L997.6,124.7 L997.7,174.5 L997.7,160.8 L997.8,167.1 L997.8,111.1 L997.8,115.8 L997.9,162.1 L997.9,183.2 L998.0,110.9 L998.0,100.1 L998.1,154.8 L998.1,149.7 L998.2,159.0 L998.2,165.8 L998.3,138.9 L998.3,126.9 L998.4,167.0 L998.4,153.3 L998.5,112.2 L998.5,179.6 L998.6,132.1 L998.6,109.4 L998.7,102.7 L998.7,128.0 L998.8,110.7 L998.8,126.7 L998.9,105.7 L998.9,122.9 L999.0,155.1 L999.0,117.8 L999.1,123.7 L999.1,121.2 L999.2,122.2 L999.2,113.5 L999.3,158.9 L999.3,141.9 L999.4,118.2 L999.4,191.4 L999.5,136.2 L999.5,168.4 L999.6,166.1 L999.6,160.7 L999.7,108.2 L999.7,134.4 L999.8,182.0 L999.8,118.6 L999.8,190.9 L999.9,149.7 L999.9,103.0 L1000.0,140.9 L1000.0,150.3 L1000.1,152.2 L1000.1,123.4 L1000.2,145.6 L1000.2,190.2 L1000.3,185.8 L1000.3,124.1 L1000.4,139.6 L1000.4,152.4 L1000.5,177.1 L1000.5,185.3 L1000.6,143.8 L1000.6,160.2 L1000.7,153.3 L1000.7,96.1 L1000.8,120.7 L1000.8,184.8 L1000.9,139.6 L1000.9,112.4 L1000.9,183.2 L1001.0,120.8 L1001.0,169.4 L1001.1,111.5 L1001.1,139.6 L1001.2,132.5 L1001.2,188.7 L1001.3,176.5 L1001.3,151.7 L1001.4,138.5 L1001.4,151.5 L1001.5,145.2 L1001.5,118.4 L1001.6,185.1 L1001.6,181.4 L1001.7,124.1 L1001.7,160.7 L1001.8,110.0 L1001.8,134.7 L1001.9,172.1 L1001.9,137.8 L1001.9,146.5 L1002.0,112.7 L1002.0,113.0 L1002.1,124.6 L1002.1,109.8 L1002.2,143.2 L1002.2,171.0 L1002.3,191.4 L1002.3,189.0 L1002.4,134.4 L1002.4,121.6 L1002.5,112.3 L1002.5,116.4 L1002.6,158.8 L1002.6,180.5 L1002.7,177.9 L1002.7,167.4 L1002.8,123.4 L1002.8,145.4 L1002.9,172.7 L1002.9,144.0 L1003.0,179.2 L1003.0,111.7 L1003.0,132.6 L1003.1,145.0 L1003.1,169.8 L1003.2,189.2 L1003.2,150.3 L1003.3,160.9 L1003.3,103.0 L1003.4,130.1 L1003.4,157.0 L1003.5,146.1 L1003.5,104.2 L1003.6,116.9 L1003.6,133.5 L1003.7,138.1 L1003.7,123.2 L1003.8,192.7 L1003.8,170.3 L1003.9,182.2 L1003.9,117.3 L1004.0,160.5 L1004.0,105.6 L1004.1,126.0 L1004.1,116.5 L1004.2,147.8 L1004.2,178.4 L1004.3,144.4 L1004.3,143.2 L1004.4,186.3 L1004.4,131.3 L1004.5,131.0 L1004.5,106.8 L1004.6,162.8 L1004.6,103.6 L1004.7,117.9 L1004.7,164.2 L1004.8,126.2 L1004.8,123.6 L1004.8,169.2 L1004.9,166.5 L1004.9,195.8 L1005.0,241.6 L1005.0,213.8 L1005.1,249.3 L1005.1,243.5 L1005.2,273.9 L1005.2,258.8 L1005.3,276.3 L1005.3,288.6 L1005.4,273.1 L1005.4,293.1 L1005.4,290.6 L1005.5,297.5 L1005.5,303.4 L1005.6,303.8 L1005.6,302.5 L1005.7,310.2 L1005.7,304.6 L1005.8,313.1 L1005.8,314.7 L1005.9,315.5 L1005.9,312.9 L1006.0,318.1 L1006.0,321.9 L1006.1,322.1 L1006.1,324.1 L1006.2,318.9 L1006.2,318.7 L1006.3,320.4 L1006.3,317.0 L1006.4,319.7 L1006.4,318.1 L1006.5,317.9 L1006.6,313.5 L1006.6,318.7 L1006.7,316.3 L1006.7,318.4 L1006.8,318.1 L1006.8,317.2 L1006.9,323.6 L1006.9,321.8 L1006.9,322.9 L1007.0,320.5 L1007.0,321.3 L1007.1,321.8 L1007.1,320.8 L1007.2,325.6 L1007.2,324.0 L1007.3,321.7 L1007.3,324.5 L1007.4,323.0 L1007.5,319.7 L1007.5,321.7 L1007.6,319.9 L1007.6,320.1 L1007.6,322.4 L1007.7,319.3 L1007.7,323.3 L1007.8,320.8 L1007.8,322.6 L1007.9,324.9 L1007.9,319.3 L1008.0,320.6 L1008.0,323.6 L1008.1,321.5 L1008.1,321.9 L1008.2,321.8 L1008.2,322.5 L1008.3,320.4 L1008.3,317.7 L1008.4,322.1 L1008.4,322.6 L1008.5,318.6 L1008.5,322.1 L1008.6,324.2 L1008.6,322.5 L1008.7,322.1 L1008.7,320.8 L1008.8,322.0 L1008.8,324.9 L1008.9,322.7 L1008.9,323.1 L1009.0,315.3 L1009.0,318.8 L1009.1,319.6 L1009.1,321.5 L1009.2,319.0 L1009.2,319.9 L1009.3,323.3 L1009.3,319.4 L1009.4,322.6 L1009.4,325.4 L1009.5,324.0 L1009.5,322.6 L1009.5,323.8 L1009.6,325.7 L1009.6,325.8 L1009.7,326.2 L1009.7,327.2 L1009.8,324.8 L1009.8,323.9 L1009.9,325.7 L1009.9,326.7 L1010.0,325.7 L1010.0,329.6 L1010.1,332.0 L1010.1,332.7 L1010.2,340.7 L1010.2,351.9 L1010.3,365.3 L1010.3,367.8 L1010.4,365.3 L1010.4,397.9 L1010.5,393.2 L1010.5,372.2 L1010.6,406.3 L1010.6,430.1 L1010.7,402.4 L1010.7,435.9 L1010.8,413.6 L1010.8,423.3 L1010.8,421.8 L1010.9,454.2 L1010.9,441.7 L1011.0,456.0 L1011.0,483.9 L1011.1,468.0 L1011.1,486.8 L1011.2,463.5 L1011.2,516.7 L1011.3,472.9 L1011.3,446.9 L1011.4,456.0 L1011.4,441.9 L1011.5,459.5 L1011.5,519.7 L1011.6,478.7 L1011.6,460.1 L1011.7,518.3 L1011.7,528.6 L1011.7,481.0 L1011.8,517.2 L1011.8,478.5 L1011.9,476.9 L1011.9,460.8 L1012.0,508.0 L1012.0,518.4 L1012.1,483.4 L1012.1,513.7 L1012.2,500.6 L1012.2,481.4 L1012.3,495.5 L1012.3,464.3 L1012.4,519.3 L1012.4,487.2 L1012.5,467.0 L1012.5,448.8 L1012.6,507.7 L1012.6,462.1 L1012.7,457.8 L1012.7,459.0 L1012.7,487.0 L1012.8,430.5 L1012.8,462.5 L1012.9,468.7 L1012.9,420.2 L1013.0,423.0 L1013.0,407.3 L1013.1,418.2 L1013.1,422.0 L1013.2,432.3 L1013.2,401.5 L1013.2,436.5 L1013.3,422.5 L1013.4,396.1 L1013.4,422.4 L1013.4,405.6 L1013.5,401.0 L1013.5,407.8 L1013.6,394.4 L1013.6,381.6 L1013.7,385.2 L1013.7,373.9 L1013.8,356.5 L1013.8,357.3 L1013.9,354.0 L1013.9,355.7 L1014.0,344.6 L1014.0,344.2 L1014.0,348.4 L1014.1,355.3 L1014.1,347.8 L1014.2,351.3 L1014.2,345.3 L1014.3,336.4 L1014.3,341.6 L1014.4,339.4 L1014.4,330.0 L1014.5,315.3 L1014.5,306.6 L1014.6,292.4 L1014.6,279.8 L1014.7,283.9 L1014.7,277.2 L1014.8,283.2 L1014.8,285.4 L1014.9,303.1 L1014.9,303.4 L1015.0,288.6 L1015.0,297.3 L1015.1,307.0 L1015.1,298.7 L1015.2,295.1 L1015.2,291.7 L1015.2,288.7 L1015.3,297.7 L1015.3,305.9 L1015.4,304.4 L1015.4,305.0 L1015.5,293.1 L1015.6,283.5 L1015.6,290.9 L1015.7,290.8 L1015.7,280.3 L1015.8,277.1 L1015.8,279.4 L1015.9,287.0 L1015.9,279.8 L1016.0,258.2 L1016.0,255.2 L1016.1,270.8 L1016.1,250.7 L1016.2,249.9 L1016.2,241.9 L1016.2,272.0 L1016.3,265.7 L1016.4,265.9 L1016.4,289.6 L1016.5,297.9 L1016.5,284.6 L1016.6,276.1 L1016.6,266.7 L1016.7,266.7 L1016.7,273.5 L1016.8,265.5 L1016.8,259.5 L1016.9,280.6 L1016.9,267.3 L1016.9,285.8 L1017.0,269.0 L1017.0,290.9 L1017.1,286.1 L1017.1,296.7 L1017.2,291.4 L1017.2,304.3 L1017.3,307.5 L1017.3,305.1 L1017.4,314.7 L1017.4,315.7 L1017.5,319.7 L1017.5,321.9 L1017.6,321.7 L1017.6,319.7 L1017.7,323.9 L1017.7,325.3 L1017.8,330.9 L1017.8,327.6 L1017.9,331.5 L1017.9,331.8 L1018.0,328.3 L1018.0,328.8 L1018.1,328.5 L1018.1,331.5 L1018.2,329.6 L1018.2,330.3 L1018.3,325.2 L1018.3,302.8 L1018.4,285.8 L1018.4,273.9 L1018.5,252.0 L1018.5,268.3 L1018.6,252.8 L1018.6,221.3 L1018.6,223.7 L1018.7,223.2 L1018.7,234.2 L1018.8,175.4 L1018.8,191.6 L1018.9,165.4 L1018.9,208.6 L1019.0,175.9 L1019.0,204.6 L1019.1,142.1 L1019.1,198.8 L1019.2,121.6 L1019.2,153.9 L1019.3,122.3 L1019.3,132.5 L1019.4,158.5 L1019.4,179.6 L1019.5,157.5 L1019.5,187.5 L1019.6,111.8 L1019.6,168.0 L1019.7,176.9 L1019.7,180.5 L1019.8,140.2 L1019.8,159.5 L1019.9,165.3 L1019.9,111.8 L1020.0,156.4 L1020.0,117.8 L1020.1,148.9 L1020.2,156.7 L1020.2,128.3 L1020.3,169.1 L1020.3,184.5 L1020.3,170.5 L1020.4,107.0 L1020.4,134.7 L1020.5,183.2 L1020.5,124.2 L1020.6,189.6 L1020.6,117.9 L1020.7,164.9 L1020.7,113.7 L1020.8,169.9 L1020.8,165.7 L1020.9,96.0 L1020.9,155.3 L1021.0,103.1 L1021.0,194.3 L1021.1,118.6 L1021.1,111.6 L1021.2,149.8 L1021.2,189.5 L1021.3,142.0 L1021.3,135.4 L1021.4,190.9 L1021.4,108.7 L1021.5,171.9 L1021.5,134.4 L1021.6,167.1 L1021.6,177.1 L1021.7,161.6 L1021.7,147.1 L1021.8,113.4 L1021.8,152.6 L1021.9,136.9 L1022.0,137.8 L1022.0,99.7 L1022.0,151.8 L1022.1,137.0 L1022.1,182.1 L1022.2,131.1 L1022.2,154.8 L1022.3,159.6 L1022.3,144.2 L1022.4,179.6 L1022.4,157.3 L1022.5,130.4 L1022.5,131.4 L1022.6,121.6 L1022.6,174.4 L1022.7,111.7 L1022.7,122.4 L1022.8,103.2 L1022.8,103.8 L1022.9,121.2 L1022.9,117.4 L1023.0,172.4 L1023.0,163.6 L1023.1,182.3 L1023.1,122.4 L1023.2,129.8 L1023.2,146.0 L1023.3,186.9 L1023.3,187.0 L1023.4,137.5 L1023.4,165.5 L1023.5,127.8 L1023.5,155.8 L1023.6,134.1 L1023.6,188.1 L1023.7,112.7 L1023.7,178.1 L1023.8,182.1 L1023.8,170.0 L1023.9,162.5 L1023.9,135.0 L1024.0,98.0 L1024.0,166.4 L1024.1,141.6 L1024.1,189.2 L1024.2,153.9 L1024.2,146.9 L1024.3,138.6 L1024.3,158.9 L1024.4,154.6 L1024.4,104.8 L1024.5,109.4 L1024.5,110.5 L1024.6,104.3 L1024.6,158.1 L1024.7,159.1 L1024.7,100.9 L1024.8,165.4 L1024.8,124.9 L1024.9,178.2 L1024.9,174.6 L1025.0,172.9 L1025.0,184.8 L1025.1,124.0 L1025.1,181.6 L1025.2,138.3 L1025.2,106.6 L1025.3,142.7 L1025.3,116.6 L1025.3,169.3 L1025.4,138.1 L1025.4,151.3 L1025.5,138.3 L1025.5,154.6 L1025.6,165.6 L1025.6,159.5 L1025.7,146.4 L1025.7,166.5 L1025.8,157.5 L1025.8,164.4 L1025.9,179.6 L1025.9,120.1 L1026.0,126.5 L1026.0,175.2 L1026.1,98.9 L1026.1,175.6 L1026.2,183.6 L1026.2,158.2 L1026.3,125.0 L1026.3,188.1 L1026.4,170.1 L1026.4,130.9 L1026.5,170.7 L1026.5,154.1 L1026.6,98.0 L1026.6,122.3 L1026.7,131.1 L1026.7,140.5 L1026.8,185.9 L1026.8,94.5 L1026.9,152.5 L1026.9,123.5 L1027.0,183.7 L1027.0,159.1 L1027.0,177.9 L1027.1,123.7 L1027.1,138.4 L1027.2,162.3 L1027.2,188.4 L1027.3,171.1 L1027.3,207.9 L1027.4,169.4 L1027.5,224.9 L1027.5,170.4 L1027.6,204.9 L1027.6,179.1 L1027.7,198.4 L1027.7,234.8 L1027.8,206.3 L1027.8,203.4 L1027.9,235.7 L1027.9,246.7 L1028.0,236.1 L1028.0,241.2 L1028.1,246.7 L1028.1,240.3 L1028.2,228.6 L1028.2,273.9 L1028.3,253.2 L1028.3,243.0 L1028.4,264.1 L1028.5,277.2 L1028.5,254.7 L1028.6,263.5 L1028.6,264.2 L1028.7,282.1 L1028.7,266.2 L1028.8,284.7 L1028.8,291.5 L1028.9,282.8 L1028.9,273.6 L1028.9,280.4 L1029.0,276.8 L1029.0,286.7 L1029.1,300.6 L1029.1,292.7 L1029.2,297.6 L1029.2,293.2 L1029.3,300.8 L1029.4,314.7 L1029.5,304.4 L1029.5,312.9 L1029.6,313.8 L1029.6,315.9 L1029.7,312.5 L1029.7,310.1 L1029.8,316.9 L1029.8,311.1 L1029.9,309.9 L1029.9,312.2 L1029.9,307.4 L1030.0,313.6 L1030.0,313.3 L1030.1,316.2 L1030.1,319.7 L1030.2,318.1 L1030.2,314.6 L1030.3,312.7 L1030.4,307.0 L1030.5,307.4 L1030.5,315.0 L1030.5,310.2 L1030.6,311.1 L1030.6,310.2 L1030.7,312.4 L1030.7,313.5 L1030.8,316.3 L1030.8,319.5 L1030.9,320.7 L1030.9,324.0 L1031.0,320.6 L1031.0,321.5 L1031.1,320.9 L1031.1,325.7 L1031.2,325.0 L1031.2,323.1 L1031.4,320.8 L1031.4,317.9 L1031.5,316.8 L1031.5,323.9 L1031.6,319.1 L1031.6,324.8 L1031.7,323.7 L1031.7,321.8 L1031.7,319.6 L1031.8,324.9 L1031.8,323.0 L1031.9,323.7 L1031.9,323.2 L1032.0,326.0 L1032.0,323.1 L1032.1,323.5 L1032.1,321.6 L1032.2,324.9 L1032.2,324.7 L1032.3,324.8 L1032.4,325.4 L1032.4,323.5 L1032.5,326.6 L1032.5,326.0 L1032.6,324.8 L1032.6,326.7 L1032.7,325.7 L1032.7,326.7 L1032.8,325.7 L1032.8,323.6 L1032.9,324.6 L1032.9,326.1 L1033.0,323.9 L1033.0,322.1 L1033.1,323.4 L1033.1,322.8 L1033.2,325.5 L1033.3,331.5 L1033.4,335.2 L1033.4,335.9 L1033.5,333.3 L1033.5,338.2 L1033.5,335.2 L1033.6,356.2 L1033.7,353.1 L1033.7,381.5 L1033.7,377.9 L1033.8,378.3 L1033.8,413.4 L1033.9,398.9 L1033.9,448.4 L1034.0,419.1 L1034.0,420.4 L1034.1,455.0 L1034.1,423.9 L1034.2,451.4 L1034.3,464.5 L1034.3,479.8 L1034.4,422.6 L1034.4,449.3 L1034.5,443.6 L1034.5,477.3 L1034.6,461.5 L1034.6,488.4 L1034.7,455.4 L1034.7,449.5 L1034.8,465.8 L1034.8,486.5 L1034.8,452.8 L1034.9,452.6 L1034.9,445.0 L1035.0,522.8 L1035.0,462.1 L1035.1,447.2 L1035.1,477.6 L1035.3,540.4 L1035.3,457.9 L1035.4,458.3 L1035.4,513.2 L1035.4,449.6 L1035.5,487.6 L1035.5,466.0 L1035.6,459.2 L1035.6,532.2 L1035.7,463.3 L1035.7,518.8 L1035.8,517.0 L1035.8,446.0 L1035.9,451.2 L1035.9,445.9 L1036.0,498.2 L1036.0,431.4 L1036.1,444.9 L1036.1,458.6 L1036.2,416.9 L1036.3,455.5 L1036.3,422.9 L1036.4,450.8 L1036.4,444.5 L1036.5,409.8 L1036.5,450.6 L1036.6,403.9 L1036.6,429.2 L1036.7,411.1 L1036.7,391.8 L1036.8,393.3 L1036.8,399.8 L1036.8,390.6 L1036.9,373.3 L1036.9,367.3 L1037.0,360.8 L1037.0,353.4 L1037.1,351.3 L1037.2,378.2 L1037.2,354.5 L1037.3,370.4 L1037.3,348.8 L1037.4,358.2 L1037.4,346.0 L1037.5,350.8 L1037.5,341.3 L1037.6,344.7 L1037.6,332.7 L1037.7,335.8 L1037.7,328.8 L1037.8,327.1 L1037.8,324.1 L1037.9,321.9 L1037.9,320.0 L1038.0,318.9 L1038.0,309.4 L1038.0,311.3 L1038.2,290.6 L1038.2,299.8 L1038.3,277.8 L1038.3,274.7 L1038.3,274.1 L1038.4,278.7 L1038.4,274.5 L1038.5,276.9 L1038.5,259.4 L1038.6,273.8 L1038.6,271.4 L1038.7,270.2 L1038.7,275.7 L1038.8,284.0 L1038.8,278.3 L1038.9,279.6 L1038.9,280.8 L1039.0,288.5 L1039.0,281.2 L1039.1,266.4 L1039.2,260.6 L1039.2,291.0 L1039.3,285.1 L1039.3,282.5 L1039.4,277.1 L1039.4,277.8 L1039.5,264.1 L1039.5,268.8 L1039.6,277.8 L1039.6,285.1 L1039.6,282.9 L1039.7,297.3 L1039.7,289.8 L1039.8,283.3 L1039.8,297.0 L1039.9,283.6 L1039.9,281.4 L1040.0,299.9 L1040.1,279.1 L1040.2,263.8 L1040.2,262.9 L1040.3,241.0 L1040.3,238.3 L1040.4,251.6 L1040.4,267.8 L1040.5,256.2 L1040.5,255.3 L1040.5,226.9 L1040.6,202.6 L1040.6,216.1 L1040.7,182.7 L1040.7,216.2 L1040.8,167.5 L1040.8,202.7 L1040.9,140.7 L1040.9,142.8 L1041.0,138.7 L1041.1,146.0 L1041.1,154.6 L1041.2,197.6 L1041.2,122.8 L1041.3,151.3 L1041.3,189.3 L1041.4,155.1 L1041.4,177.2 L1041.5,160.1 L1041.5,179.6 L1041.6,135.6 L1041.6,186.5 L1041.7,106.4 L1041.7,183.5 L1041.8,174.9 L1041.8,159.3 L1041.9,139.2 L1041.9,183.1 L1041.9,117.3 L1042.1,195.5 L1042.1,168.9 L1042.2,149.9 L1042.2,189.1 L1042.3,168.8 L1042.3,184.7 L1042.3,157.3 L1042.4,159.7 L1042.4,115.8 L1042.5,126.2 L1042.5,176.8 L1042.6,152.0 L1042.6,157.8 L1042.7,177.2 L1042.7,185.8 L1042.8,104.4 L1042.8,188.1 L1042.9,149.9 L1042.9,157.9 L1043.0,161.2 L1043.1,144.2 L1043.1,148.3 L1043.2,155.3 L1043.2,179.6 L1043.3,160.7 L1043.3,160.1 L1043.4,138.1 L1043.4,161.6 L1043.5,178.9 L1043.5,157.7 L1043.6,102.9 L1043.6,124.0 L1043.7,131.1 L1043.7,165.8 L1043.8,155.9 L1043.8,82.7 L1043.9,162.5 L1043.9,166.6 L1044.0,174.5 L1044.1,102.5 L1044.1,128.9 L1044.2,173.3 L1044.2,119.9 L1044.3,99.7 L1044.3,151.8 L1044.3,101.1 L1044.4,106.6 L1044.4,147.9 L1044.5,187.5 L1044.5,127.4 L1044.6,95.1 L1044.6,169.8 L1044.7,168.6 L1044.7,104.4 L1044.8,140.0 L1044.8,164.1 L1044.9,168.3 L1045.0,176.8 L1045.0,137.5 L1045.1,176.8 L1045.1,153.4 L1045.2,131.4 L1045.2,128.4 L1045.3,153.1 L1045.3,149.6 L1045.4,132.4 L1045.4,117.0 L1045.5,121.4 L1045.5,94.5 L1045.6,105.5 L1045.6,99.8 L1045.7,132.0 L1045.7,145.8 L1045.8,116.2 L1045.8,170.3 L1045.8,137.5 L1046.0,137.8 L1046.0,169.8 L1046.1,176.5 L1046.1,106.0 L1046.2,111.4 L1046.2,126.5 L1046.2,120.9 L1046.3,117.2 L1046.3,85.1 L1046.4,84.3 L1046.4,148.0 L1046.5,83.0 L1046.5,76.0 L1046.6,115.7 L1046.6,161.7 L1046.7,116.4 L1046.7,102.7 L1046.8,173.5 L1046.8,112.4 L1046.9,109.5 L1047.0,109.6 L1047.0,95.7 L1047.1,114.0 L1047.1,166.5 L1047.2,86.5 L1047.2,151.3 L1047.3,82.7 L1047.3,156.7 L1047.4,92.3 L1047.4,152.8 L1047.5,119.5 L1047.5,117.3 L1047.6,104.8 L1047.6,88.4 L1047.7,178.3 L1047.7,151.5 L1047.8,171.0 L1047.8,109.9 L1047.9,175.3 L1048.0,114.4 L1048.0,157.3 L1048.1,130.6 L1048.1,148.6 L1048.2,160.4 L1048.2,163.0 L1048.3,154.8 L1048.3,104.2 L1048.4,127.1 L1048.4,177.5 L1048.4,90.0 L1048.5,154.7 L1048.5,150.5 L1048.6,139.0 L1048.6,109.6 L1048.7,90.1 L1048.7,164.3 L1048.8,138.7 L1048.9,101.0 L1049.0,159.6 L1049.0,78.1 L1049.1,123.7 L1049.1,185.5 L1049.2,165.2 L1049.2,106.5 L1049.3,187.3 L1049.3,189.4 L1049.3,132.7 L1049.4,141.4 L1049.5,209.2 L1049.5,204.7 L1049.5,179.3 L1049.6,192.1 L1049.6,213.4 L1049.7,231.7 L1049.7,259.3 L1049.9,260.4 L1049.9,271.1 L1050.0,281.0 L1050.0,276.2 L1050.1,277.9 L1050.1,296.2 L1050.2,287.4 L1050.2,302.3 L1050.3,297.8 L1050.3,308.6 L1050.3,300.2 L1050.4,312.1 L1050.4,309.1 L1050.5,315.0 L1050.5,317.8 L1050.6,312.2 L1050.6,318.6 L1050.7,322.2 L1050.7,325.5 L1050.9,324.8 L1050.9,326.6 L1051.0,326.3 L1051.0,324.6 L1051.1,323.9 L1051.1,329.5 L1051.2,327.8 L1051.2,330.9 L1051.2,329.8 L1051.3,329.3 L1051.3,327.1 L1051.4,325.7 L1051.4,325.0 L1051.5,325.1 L1051.5,322.3 L1051.6,322.4 L1051.6,323.6 L1051.7,324.8 L1051.8,325.7 L1051.9,324.2 L1052.0,324.1 L1052.0,327.5 L1052.0,327.1 L1052.1,327.5 L1052.1,328.2 L1052.2,327.8 L1052.2,326.7 L1052.3,325.4 L1052.3,322.6 L1052.4,322.7 L1052.4,321.2 L1052.5,325.3 L1052.5,322.5 L1052.6,317.9 L1052.6,318.9 L1052.7,322.3 L1052.9,322.8 L1052.9,324.2 L1053.0,319.9 L1053.0,322.7 L1053.1,324.8 L1053.1,325.7 L1053.2,325.6 L1053.2,326.1 L1053.2,325.2 L1053.3,324.8 L1053.3,324.9 L1053.4,330.1 L1053.4,330.0 L1053.5,330.1 L1053.5,329.4 L1053.6,330.0 L1053.6,329.4 L1053.7,330.5 L1053.7,328.9 L1053.9,329.4 L1053.9,330.5 L1054.0,328.3 L1054.0,328.5 L1054.1,329.3 L1054.1,344.3 L1054.2,355.0 L1054.2,366.7 L1054.3,363.3 L1054.3,359.9 L1054.4,372.9 L1054.4,364.5 L1054.5,385.2 L1054.5,392.2 L1054.5,409.6 L1054.6,423.6 L1054.6,405.5 L1054.7,416.2 L1054.7,420.7 L1054.9,459.1 L1055.0,510.2 L1055.0,448.1 L1055.1,447.1 L1055.1,461.2 L1055.1,501.7 L1055.2,544.0 L1055.2,532.7 L1055.3,480.3 L1055.3,518.5 L1055.4,524.9 L1055.4,526.3 L1055.5,533.9 L1055.5,492.3 L1055.6,515.5 L1055.6,479.3 L1055.7,494.9 L1055.7,527.3 L1055.8,524.9 L1056.0,474.1 L1056.0,535.9 L1056.0,510.6 L1056.1,518.8 L1056.1,517.0 L1056.2,451.6 L1056.2,440.4 L1056.3,434.8 L1056.3,453.6 L1056.4,426.4 L1056.4,419.4 L1056.5,382.7 L1056.5,384.3 L1056.6,365.6 L1056.6,375.4 L1056.7,366.1 L1056.7,356.1 L1056.8,355.2 L1056.8,338.6 L1057.0,340.4 L1057.0,335.1 L1057.1,337.3 L1057.1,330.9 L1057.2,333.0 L1057.2,334.3 L1057.3,330.7 L1057.3,328.7 L1057.3,327.8 L1057.4,331.5 L1057.4,330.4 L1057.5,327.8 L1057.5,329.9 L1057.6,328.4 L1057.6,329.1 L1057.7,327.2 L1057.7,328.8 L1057.8,328.5 L1057.8,328.6 L1058.0,327.2 L1058.0,324.8 L1058.1,327.2 L1058.1,325.2 L1058.2,326.6 L1058.2,326.9 L1058.3,327.1 L1058.3,328.4 L1058.4,325.8 L1058.4,324.6 L1058.5,325.8 L1058.5,326.3 L1058.6,325.6 L1058.6,324.8 L1058.7,327.5 L1058.7,327.5 L1058.8,328.3 L1058.8,324.9 L1058.8,326.9 L1059.0,324.9 L1059.1,328.0 L1059.1,325.1 L1059.2,325.0 L1059.2,328.2 L1059.3,326.9 L1059.3,327.1 L1059.4,325.8 L1059.4,325.1 L1059.5,325.1 L1059.5,327.6 L1059.5,327.1 L1059.6,325.7 L1059.6,326.1 L1059.7,324.5 L1059.7,325.0 L1059.8,327.8 L1059.9,326.9 L1060.1,326.1 L1060.1,324.7 L1060.1,324.3 L1060.2,325.5 L1060.2,324.8 L1060.3,327.5 L1060.3,326.7 L1060.4,325.2 L1060.4,326.5 L1060.5,326.0 L1060.5,326.3 L1060.6,326.1 L1060.6,327.2 L1060.7,326.7 L1060.7,327.8 L1060.8,326.0 L1060.8,325.4 L1060.9,326.7 L1060.9,327.5 L1061.1,327.6 L1061.1,325.6 L1061.2,324.5 L1061.2,327.2 L1061.3,328.3 L1061.3,325.0 L1061.4,326.3 L1061.4,326.0 L1061.5,327.9 L1061.5,325.3 L1061.6,325.1 L1061.6,324.8 L1061.6,328.8 L1061.7,327.8 L1061.7,327.2 L1061.8,325.0 L1061.8,326.3 L1061.9,325.1 L1061.9,324.5 L1062.1,325.0 L1062.2,329.0 L1062.2,325.2 L1062.3,327.1 L1062.3,328.5 L1062.4,325.5 L1062.4,328.1 L1062.5,327.2 L1062.5,327.6 L1062.6,326.2 L1062.6,327.6 L1062.7,327.8 L1062.7,326.2 L1062.7,325.6 L1062.8,325.2 L1062.8,325.4 L1062.9,324.8 L1062.9,326.4 L1063.0,324.5 L1063.1,325.7 L1063.2,325.2 L1063.2,325.1 L1063.3,327.1 L1063.3,325.9 L1063.4,328.6 L1063.4,327.1 L1063.5,325.1 L1063.5,326.0 L1063.6,327.8 L1063.6,326.9 L1063.7,328.2 L1063.7,327.4 L1063.8,326.9 L1063.8,325.6 L1063.9,326.7 L1063.9,325.9 L1064.0,328.2 L1064.0,328.2 L1064.2,324.5 L1064.2,325.2 L1064.3,326.4 L1064.3,324.7 L1064.4,328.1 L1064.4,327.7 L1064.5,324.4 L1064.5,325.5 L1064.6,325.9 L1064.6,325.7 L1064.7,324.9 L1064.7,328.1 L1064.8,328.2 L1064.8,327.1 L1064.9,324.9 L1064.9,327.2 L1064.9,327.5 L1065.0,326.9 L1065.2,326.3 L1065.3,325.2 L1065.3,324.5 L1065.3,326.8 L1065.4,327.5 L1065.4,326.2 L1065.5,326.0 L1065.5,326.3 L1065.6,326.9 L1065.6,326.2 L1065.7,327.9 L1065.7,326.6 L1065.8,326.5 L1065.8,324.8 L1065.9,326.0 L1065.9,325.4 L1066.0,326.0 L1066.0,327.5 L1066.0,325.6 L1066.2,327.1 L1066.3,325.7 L1066.3,325.1 L1066.4,327.8 L1066.4,328.0 L1066.5,328.2 L1066.5,325.9 L1066.6,328.2 L1066.6,328.2 L1066.7,324.8 L1066.7,324.8 L1066.8,327.6 L1066.8,326.4 L1066.9,326.9 L1066.9,326.6 L1067.0,325.4 L1067.0,327.9 L1067.0,328.4 L1067.1,328.2 L1067.3,325.0 L1067.3,326.8 L1067.4,325.7 L1067.4,325.7 L1067.5,325.7 L1067.5,327.6 L1067.6,326.0 L1067.6,327.5 L1067.7,324.9 L1067.7,328.3 L1067.7,327.5 L1067.8,328.2 L1067.8,325.5 L1067.9,325.5 L1067.9,325.5 L1068.0,324.9 L1068.0,324.8 L1068.1,326.0 L1068.1,326.7 L1068.3,326.4 L1068.3,327.5 L1068.4,326.0 L1068.4,327.5 L1068.5,327.8 L1068.5,327.4 L1068.6,327.2 L1068.6,327.3 L1068.7,324.5 L1068.7,324.8 L1068.8,326.3 L1068.8,328.2 L1068.9,326.6 L1068.9,328.1 L1069.0,325.7 L1069.0,326.0 L1069.0,326.0 L1069.1,325.7 L1069.1,325.1 L1069.3,326.4 L1069.4,328.2 L1069.4,325.9 L1069.5,326.2 L1069.5,325.4 L1069.6,326.8 L1069.6,326.3 L1069.7,327.8 L1069.7,324.9 L1069.8,324.8 L1069.8,324.9 L1069.8,328.2 L1069.9,326.9 L1069.9,325.6 L1070.0,324.5 L1070.0,325.3 L1070.1,326.9 L1070.1,326.9 L1070.2,327.6 L1070.4,325.4 L1070.4,326.7 L1070.4,326.6 L1070.5,326.1 L1070.5,327.4 L1070.6,327.8 L1070.6,324.4 L1070.7,327.3 L1070.7,328.1 L1070.8,327.6 L1070.8,324.8 L1070.9,327.5 L1070.9,326.9 L1071.0,326.3 L1071.0,325.8 L1071.1,327.0 L1071.1,324.2 L1071.2,328.0 L1071.2,327.2 L1071.4,325.7 L1071.4,325.4 L1071.5,326.6 L1071.5,327.2 L1071.6,328.2 L1071.6,325.6 L1071.7,325.2 L1071.7,325.7 L1071.8,325.1 L1071.8,326.7 L1071.9,326.0 L1071.9,326.6 L1072.0,327.6 L1072.0,327.1 L1072.1,324.5 L1072.1,325.1 L1072.2,326.3 L1072.2,324.5 L1072.4,327.5 L1072.5,326.4 L1072.5,325.7 L1072.6,326.3 L1072.6,324.8 L1072.7,327.6 L1072.7,326.2 L1072.7,328.8 L1072.8,325.8 L1072.8,328.7 L1072.9,328.3 L1072.9,327.2 L1073.0,326.2 L1073.0,326.3 L1073.1,325.2 L1073.1,326.0 L1073.2,325.6 L1073.2,328.6 L1073.3,327.2 L1073.5,326.3 L1073.5,326.6 L1073.5,325.7 L1073.6,327.0 L1073.6,326.3 L1073.7,325.1 L1073.7,327.8 L1073.8,325.7 L1073.8,327.3 L1073.9,326.6 L1073.9,327.5 L1074.0,327.6 L1074.0,325.4 L1074.1,324.7 L1074.1,328.4 L1074.2,326.6 L1074.2,327.8 L1074.3,327.3 L1074.3,327.8 L1074.5,325.1 L1074.5,325.4 L1074.6,327.2 L1074.6,327.3 L1074.7,328.2 L1074.7,328.0 L1074.8,328.0 L1074.8,325.7 L1074.9,325.6 L1074.9,325.2 L1075.0,327.5 L1075.0,328.5 L1075.1,327.2 L1075.1,327.4 L1075.2,328.1 L1075.2,325.6 L1075.3,326.1 L1075.3,324.5 L1075.5,327.7 L1075.6,327.0 L1075.6,326.8 L1075.7,324.8 L1075.7,326.0 L1075.8,325.9 L1075.8,326.3 L1075.9,324.6 L1075.9,324.8 L1075.9,325.5 L1076.0,325.7 L1076.0,327.0 L1076.1,327.5 L1076.1,324.5 L1076.2,325.6 L1076.2,326.1 L1076.3,328.7 L1076.3,326.9 L1076.4,326.6 L1076.6,325.0 L1076.6,324.8 L1076.7,325.9 L1076.7,327.9 L1076.8,325.7 L1076.8,327.1 L1076.8,327.6 L1076.9,326.6 L1076.9,324.8 L1077.0,328.4 L1077.0,326.0 L1077.1,327.3 L1077.1,325.0 L1077.2,326.0 L1077.2,324.5 L1077.3,324.4 L1077.3,325.4 L1077.4,328.6 L1077.6,328.9 L1077.6,328.2 L1077.7,326.9 L1077.7,325.4 L1077.8,328.6 L1077.8,324.8 L1077.9,327.4 L1077.9,327.9 L1078.1,324.5 L1078.1,328.1 L1078.2,328.4 L1078.2,325.6 L1078.3,326.7 L1078.3,325.5 L1078.4,327.5 L1078.4,327.6 L1078.6,324.4 L1078.7,327.7 L1078.7,325.9 L1078.8,326.0 L1078.8,326.4 L1078.9,325.5 L1078.9,324.5 L1079.0,327.2 L1079.0,326.9 L1079.0,326.1 L1079.1,328.2 L1079.1,327.8 L1079.2,328.0 L1079.2,324.7 L1079.3,326.2 L1079.3,327.8 L1079.4,326.7 L1079.4,327.6 L1079.7,325.2 L1079.7,325.5 L1079.8,324.8 L1079.8,326.0 L1079.8,325.5 L1079.9,325.9 L1079.9,324.7 L1080.0,326.1 L1080.0,324.7 L1080.1,325.0 L1080.1,328.9 L1080.2,326.6 L1080.2,328.8 L1080.3,327.9 L1080.3,326.6 L1080.4,325.7 L1080.4,326.9 L1080.5,326.4 L1080.7,324.5 L1080.8,326.9 L1080.8,328.1 L1080.8,326.6 L1080.9,327.1 L1080.9,325.4 L1081.0,325.8 L1081.0,326.3 L1081.1,327.7 L1081.1,328.2 L1081.2,326.0 L1081.2,328.1 L1081.3,327.5 L1081.3,325.7 L1081.4,327.0 L1081.4,326.9 L1081.5,324.8 L1081.5,326.3 L1081.6,326.9 L1081.7,327.0 L1081.8,326.3 L1081.8,325.2 L1081.9,326.6 L1081.9,327.2 L1082.0,324.9 L1082.1,327.1 L1082.1,326.0 L1082.2,328.0 L1082.2,325.7 L1082.3,324.5 L1082.3,325.7 L1082.4,325.1 L1082.4,327.0 L1082.4,326.9 L1082.5,328.3 L1082.5,327.8 L1082.6,325.9 L1082.8,326.1 L1082.8,326.2 L1083.2,324.3 L1083.3,325.5 L1083.3,325.8 L1083.3,326.9 L1083.4,327.5 L1083.4,327.2 L1083.5,327.2 L1083.5,325.8 L1083.6,326.8 L1083.6,324.5 L1083.9,325.7 L1084.0,328.2 L1084.0,326.0" fill="none" stroke="#ff7f0e" stroke-width="1.1" opacity="0.85"/><text x="616" y="572" font-size="11" fill="#888">time 0..540 s — altitude (blue) &amp; roll (orange)</text></svg>