M48
METRIC,LZ,000.000
;FILE_FORMAT=3:3
;TYPE=PLATED
;Layer: PTH_Through
;EasyEDA v6.5.57, 2026-09-05 19:11:18
;eb698d3fd55c42babd26508227ba8a7e,8bd660a998cf4db6934d2697710aec2e,10
;Gerber Generator version 0.2
;Holesize 1 = 0.306 mm
T01C0.306
;Holesize 2 = 0.889 mm
T02C0.889
;Holesize 3 = 0.901 mm
T03C0.901
;Holesize 4 = 0.914 mm
T04C0.914
;Holesize 5 = 0.915 mm
T05C0.915
;Holesize 6 = 1.000 mm
T06C1.000
;Holesize 7 = 1.001 mm
T07C1.001
;Holesize 8 = 1.101 mm
T08C1.101
;Holesize 9 = 2.000 mm
T09C2.000
;Holesize 10 = 3.000 mm
T10C3.000
%
G05
G90
T01
X014685Y113847
X011038Y018944
T02
X018669Y002921
X013970Y002921
X036449Y003302
X033909Y003302
X039878Y126111
X039878Y128651
X039878Y131191
X039878Y133731
X039878Y136271
X040640Y087249
X038100Y087249
X017399Y093853
X019939Y093853
X022479Y093853
X025019Y093853
X035433Y092837
X037973Y092837
X040513Y092837
X043053Y092837
X013335Y013462
X015875Y013462
X034036Y013462
X036576Y013462
X024130Y013462
X026670Y013462
T03
X021463Y067564
X011303Y067564
X034330Y019812
X039330Y019812
T04
X012319Y132715
X012319Y120015
X012319Y107315
X012319Y094615
X030099Y094615
X030099Y107315
X030099Y120015
X030099Y132715
X012319Y135255
X012319Y130175
X012319Y127635
X012319Y125095
X012319Y122555
X012319Y117475
X012319Y114935
X012319Y112395
X012319Y109855
X012319Y104775
X012319Y102235
X012319Y099695
X012319Y097155
X012319Y092075
X012319Y089535
X030099Y089535
X030099Y092075
X030099Y097155
X030099Y099695
X030099Y102235
X030099Y104775
X030099Y109855
X030099Y112395
X030099Y114935
X030099Y117475
X030099Y122555
X030099Y125095
X030099Y127635
X030099Y130175
X030099Y135255
X030099Y137795
X017399Y099060
X019949Y099060
X025049Y099060
X022499Y099060
T05
X031369Y003302
X012319Y137795
X018415Y013462
X039116Y013462
X029210Y013462
X036576Y101346
X036576Y103886
X036576Y106426
X036576Y108966
X036576Y111506
X036576Y114046
X036576Y116586
X036576Y119126
X036576Y121666
X023876Y106426
X023876Y108966
X023876Y111506
X023876Y114046
X023876Y116586
X027686Y127762
X025146Y127762
X022606Y127762
X020066Y127762
X017526Y127762
T06
X032749Y049340
X032749Y053340
X014749Y049340
X014749Y057340
X038707Y031242
X035207Y031242
T07
X025019Y042385
X022479Y042385
X019939Y042385
X017399Y042385
X030099Y042385
X027559Y042385
X014859Y042385
X012319Y042385
T08
X038608Y140208
X036068Y140208
T09
X023495Y026637
X018415Y026637
T10
X013335Y026637
X028575Y026637
M30
