G04 Layer: TopSilkscreenLayer*
G04 EasyEDA v6.5.57, 2026-09-05 19:11:18*
G04 eb698d3fd55c42babd26508227ba8a7e,8bd660a998cf4db6934d2697710aec2e,10*
G04 Gerber Generator version 0.2*
G04 Scale: 100 percent, Rotated: No, Reflected: No *
G04 Dimensions in millimeters *
G04 leading zeros omitted , absolute positions ,4 integer and 5 decimal *
%FSLAX45Y45*%
%MOMM*%

%ADD10C,0.2032*%
%ADD11C,0.1524*%
%ADD12C,0.2030*%
%ADD13C,0.2540*%
%ADD14C,0.2000*%
%ADD15C,0.0136*%

%LPD*%
D10*
X4298950Y4532629D02*
G01*
X4280408Y4523486D01*
X4261865Y4504944D01*
X4252722Y4486655D01*
X4252722Y4449571D01*
X4261865Y4431029D01*
X4280408Y4412742D01*
X4298950Y4403344D01*
X4326636Y4394200D01*
X4372609Y4394200D01*
X4400550Y4403344D01*
X4418838Y4412742D01*
X4437379Y4431029D01*
X4446524Y4449571D01*
X4446524Y4486655D01*
X4437379Y4504944D01*
X4418838Y4523486D01*
X4400550Y4532629D01*
X4317238Y4639818D02*
G01*
X4326636Y4621529D01*
X4344924Y4602987D01*
X4372609Y4593589D01*
X4391152Y4593589D01*
X4418838Y4602987D01*
X4437379Y4621529D01*
X4446524Y4639818D01*
X4446524Y4667504D01*
X4437379Y4686045D01*
X4418838Y4704587D01*
X4391152Y4713731D01*
X4372609Y4713731D01*
X4344924Y4704587D01*
X4326636Y4686045D01*
X4317238Y4667504D01*
X4317238Y4639818D01*
X4252722Y4774692D02*
G01*
X4446524Y4774692D01*
X4317238Y4835652D02*
G01*
X4409693Y4835652D01*
X4437379Y4845050D01*
X4446524Y4863337D01*
X4446524Y4891023D01*
X4437379Y4909565D01*
X4409693Y4937252D01*
X4317238Y4937252D02*
G01*
X4446524Y4937252D01*
X4252722Y5109210D02*
G01*
X4446524Y5109210D01*
X4344924Y5109210D02*
G01*
X4326636Y5090668D01*
X4317238Y5072126D01*
X4317238Y5044439D01*
X4326636Y5025897D01*
X4344924Y5007610D01*
X4372609Y4998212D01*
X4391152Y4998212D01*
X4418838Y5007610D01*
X4437379Y5025897D01*
X4446524Y5044439D01*
X4446524Y5072126D01*
X4437379Y5090668D01*
X4418838Y5109210D01*
X4317238Y5216144D02*
G01*
X4326636Y5197855D01*
X4344924Y5179313D01*
X4372609Y5170170D01*
X4391152Y5170170D01*
X4418838Y5179313D01*
X4437379Y5197855D01*
X4446524Y5216144D01*
X4446524Y5243829D01*
X4437379Y5262371D01*
X4418838Y5280913D01*
X4391152Y5290057D01*
X4372609Y5290057D01*
X4344924Y5280913D01*
X4326636Y5262371D01*
X4317238Y5243829D01*
X4317238Y5216144D01*
X4252722Y5493257D02*
G01*
X4446524Y5493257D01*
X4252722Y5493257D02*
G01*
X4446524Y5567171D01*
X4252722Y5641086D02*
G01*
X4446524Y5567171D01*
X4252722Y5641086D02*
G01*
X4446524Y5641086D01*
X4317238Y5812789D02*
G01*
X4446524Y5812789D01*
X4344924Y5812789D02*
G01*
X4326636Y5794502D01*
X4317238Y5775960D01*
X4317238Y5748273D01*
X4326636Y5729731D01*
X4344924Y5711189D01*
X4372609Y5702045D01*
X4391152Y5702045D01*
X4418838Y5711189D01*
X4437379Y5729731D01*
X4446524Y5748273D01*
X4446524Y5775960D01*
X4437379Y5794502D01*
X4418838Y5812789D01*
X4252722Y5873750D02*
G01*
X4261865Y5883147D01*
X4252722Y5892292D01*
X4243324Y5883147D01*
X4252722Y5873750D01*
X4317238Y5883147D02*
G01*
X4446524Y5883147D01*
X4317238Y5953252D02*
G01*
X4446524Y5953252D01*
X4354322Y5953252D02*
G01*
X4326636Y5980937D01*
X4317238Y5999479D01*
X4317238Y6027165D01*
X4326636Y6045707D01*
X4354322Y6054852D01*
X4446524Y6054852D01*
X4252722Y6258052D02*
G01*
X4446524Y6258052D01*
X4252722Y6258052D02*
G01*
X4252722Y6341110D01*
X4261865Y6369050D01*
X4271009Y6378194D01*
X4289552Y6387337D01*
X4308093Y6387337D01*
X4326636Y6378194D01*
X4335779Y6369050D01*
X4344924Y6341110D01*
X4344924Y6258052D02*
G01*
X4344924Y6341110D01*
X4354322Y6369050D01*
X4363465Y6378194D01*
X4382008Y6387337D01*
X4409693Y6387337D01*
X4428236Y6378194D01*
X4437379Y6369050D01*
X4446524Y6341110D01*
X4446524Y6258052D01*
X4317238Y6494526D02*
G01*
X4326636Y6475984D01*
X4344924Y6457695D01*
X4372609Y6448297D01*
X4391152Y6448297D01*
X4418838Y6457695D01*
X4437379Y6475984D01*
X4446524Y6494526D01*
X4446524Y6522212D01*
X4437379Y6540754D01*
X4418838Y6559295D01*
X4391152Y6568439D01*
X4372609Y6568439D01*
X4344924Y6559295D01*
X4326636Y6540754D01*
X4317238Y6522212D01*
X4317238Y6494526D01*
X4317238Y6740144D02*
G01*
X4446524Y6740144D01*
X4344924Y6740144D02*
G01*
X4326636Y6721855D01*
X4317238Y6703313D01*
X4317238Y6675628D01*
X4326636Y6657086D01*
X4344924Y6638544D01*
X4372609Y6629400D01*
X4391152Y6629400D01*
X4418838Y6638544D01*
X4437379Y6657086D01*
X4446524Y6675628D01*
X4446524Y6703313D01*
X4437379Y6721855D01*
X4418838Y6740144D01*
X4317238Y6801104D02*
G01*
X4446524Y6801104D01*
X4372609Y6801104D02*
G01*
X4344924Y6810502D01*
X4326636Y6828789D01*
X4317238Y6847331D01*
X4317238Y6875018D01*
X4252722Y7046976D02*
G01*
X4446524Y7046976D01*
X4344924Y7046976D02*
G01*
X4326636Y7028434D01*
X4317238Y7009892D01*
X4317238Y6982205D01*
X4326636Y6963663D01*
X4344924Y6945376D01*
X4372609Y6935978D01*
X4391152Y6935978D01*
X4418838Y6945376D01*
X4437379Y6963663D01*
X4446524Y6982205D01*
X4446524Y7009892D01*
X4437379Y7028434D01*
X4418838Y7046976D01*
X4317238Y7250176D02*
G01*
X4446524Y7305547D01*
X4317238Y7360920D02*
G01*
X4446524Y7305547D01*
X4289552Y7421879D02*
G01*
X4280408Y7440421D01*
X4252722Y7468108D01*
X4446524Y7468108D01*
X4400550Y7538212D02*
G01*
X4409693Y7529068D01*
X4418838Y7538212D01*
X4409693Y7547610D01*
X4400550Y7538212D01*
X4252722Y7663942D02*
G01*
X4261865Y7636255D01*
X4289552Y7617713D01*
X4335779Y7608570D01*
X4363465Y7608570D01*
X4409693Y7617713D01*
X4437379Y7636255D01*
X4446524Y7663942D01*
X4446524Y7682229D01*
X4437379Y7710170D01*
X4409693Y7728458D01*
X4363465Y7737855D01*
X4335779Y7737855D01*
X4289552Y7728458D01*
X4261865Y7710170D01*
X4252722Y7682229D01*
X4252722Y7663942D01*
D11*
X2095500Y9653015D02*
G01*
X2095500Y9544050D01*
X2095500Y9653015D02*
G01*
X2142236Y9653015D01*
X2157729Y9647936D01*
X2163063Y9642602D01*
X2168143Y9632187D01*
X2168143Y9621774D01*
X2163063Y9611360D01*
X2157729Y9606279D01*
X2142236Y9601200D01*
X2095500Y9601200D02*
G01*
X2142236Y9601200D01*
X2157729Y9595865D01*
X2163063Y9590786D01*
X2168143Y9580371D01*
X2168143Y9564624D01*
X2163063Y9554210D01*
X2157729Y9549129D01*
X2142236Y9544050D01*
X2095500Y9544050D01*
X2202434Y9653015D02*
G01*
X2202434Y9544050D01*
X2202434Y9653015D02*
G01*
X2244090Y9544050D01*
X2285745Y9653015D02*
G01*
X2244090Y9544050D01*
X2285745Y9653015D02*
G01*
X2285745Y9544050D01*
X2320036Y9653015D02*
G01*
X2320036Y9544050D01*
X2320036Y9653015D02*
G01*
X2366772Y9653015D01*
X2382265Y9647936D01*
X2387600Y9642602D01*
X2392679Y9632187D01*
X2392679Y9616694D01*
X2387600Y9606279D01*
X2382265Y9601200D01*
X2366772Y9595865D01*
X2320036Y9595865D01*
X3670300Y9564115D02*
G01*
X3670300Y9455150D01*
X3670300Y9564115D02*
G01*
X3717036Y9564115D01*
X3732529Y9559036D01*
X3737863Y9553702D01*
X3742943Y9543287D01*
X3742943Y9527794D01*
X3737863Y9517379D01*
X3732529Y9512300D01*
X3717036Y9506965D01*
X3670300Y9506965D01*
X3777234Y9564115D02*
G01*
X3777234Y9455150D01*
X3777234Y9564115D02*
G01*
X3823970Y9564115D01*
X3839718Y9559036D01*
X3844797Y9553702D01*
X3850131Y9543287D01*
X3850131Y9532874D01*
X3844797Y9522460D01*
X3839718Y9517379D01*
X3823970Y9512300D01*
X3777234Y9512300D01*
X3813809Y9512300D02*
G01*
X3850131Y9455150D01*
X3884422Y9564115D02*
G01*
X3884422Y9455150D01*
X3884422Y9564115D02*
G01*
X3951986Y9564115D01*
X3884422Y9512300D02*
G01*
X3925824Y9512300D01*
X3884422Y9455150D02*
G01*
X3951986Y9455150D01*
X4058920Y9548621D02*
G01*
X4048506Y9559036D01*
X4033011Y9564115D01*
X4012184Y9564115D01*
X3996690Y9559036D01*
X3986275Y9548621D01*
X3986275Y9538208D01*
X3991356Y9527794D01*
X3996690Y9522460D01*
X4006850Y9517379D01*
X4038091Y9506965D01*
X4048506Y9501886D01*
X4053840Y9496552D01*
X4058920Y9486137D01*
X4058920Y9470644D01*
X4048506Y9460229D01*
X4033011Y9455150D01*
X4012184Y9455150D01*
X3996690Y9460229D01*
X3986275Y9470644D01*
X4165854Y9548621D02*
G01*
X4155440Y9559036D01*
X4139945Y9564115D01*
X4119118Y9564115D01*
X4103624Y9559036D01*
X4093209Y9548621D01*
X4093209Y9538208D01*
X4098290Y9527794D01*
X4103624Y9522460D01*
X4114038Y9517379D01*
X4145279Y9506965D01*
X4155440Y9501886D01*
X4160774Y9496552D01*
X4165854Y9486137D01*
X4165854Y9470644D01*
X4155440Y9460229D01*
X4139945Y9455150D01*
X4119118Y9455150D01*
X4103624Y9460229D01*
X4093209Y9470644D01*
X4200143Y9564115D02*
G01*
X4200143Y9486137D01*
X4205477Y9470644D01*
X4215891Y9460229D01*
X4231386Y9455150D01*
X4241800Y9455150D01*
X4257293Y9460229D01*
X4267708Y9470644D01*
X4273041Y9486137D01*
X4273041Y9564115D01*
X4307331Y9564115D02*
G01*
X4307331Y9455150D01*
X4307331Y9564115D02*
G01*
X4354068Y9564115D01*
X4369561Y9559036D01*
X4374895Y9553702D01*
X4379975Y9543287D01*
X4379975Y9532874D01*
X4374895Y9522460D01*
X4369561Y9517379D01*
X4354068Y9512300D01*
X4307331Y9512300D01*
X4343654Y9512300D02*
G01*
X4379975Y9455150D01*
X4414265Y9564115D02*
G01*
X4414265Y9455150D01*
X4414265Y9564115D02*
G01*
X4481829Y9564115D01*
X4414265Y9512300D02*
G01*
X4455922Y9512300D01*
X4414265Y9455150D02*
G01*
X4481829Y9455150D01*
X3773677Y3620007D02*
G01*
X3768343Y3630421D01*
X3757929Y3640836D01*
X3747770Y3645915D01*
X3726941Y3645915D01*
X3716527Y3640836D01*
X3706113Y3630421D01*
X3700779Y3620007D01*
X3695700Y3604260D01*
X3695700Y3578352D01*
X3700779Y3562857D01*
X3706113Y3552444D01*
X3716527Y3542029D01*
X3726941Y3536950D01*
X3747770Y3536950D01*
X3757929Y3542029D01*
X3768343Y3552444D01*
X3773677Y3562857D01*
X3807968Y3625087D02*
G01*
X3818381Y3630421D01*
X3833875Y3645915D01*
X3833875Y3536950D01*
X3760965Y2223007D02*
G01*
X3755631Y2233421D01*
X3745217Y2243836D01*
X3735057Y2248915D01*
X3714229Y2248915D01*
X3703815Y2243836D01*
X3693401Y2233421D01*
X3688067Y2223007D01*
X3682987Y2207260D01*
X3682987Y2181352D01*
X3688067Y2165857D01*
X3693401Y2155444D01*
X3703815Y2145029D01*
X3714229Y2139950D01*
X3735057Y2139950D01*
X3745217Y2145029D01*
X3755631Y2155444D01*
X3760965Y2165857D01*
X3805669Y2248915D02*
G01*
X3862819Y2248915D01*
X3831577Y2207260D01*
X3847071Y2207260D01*
X3857485Y2202179D01*
X3862819Y2197100D01*
X3867899Y2181352D01*
X3867899Y2170937D01*
X3862819Y2155444D01*
X3852405Y2145029D01*
X3836657Y2139950D01*
X3821163Y2139950D01*
X3805669Y2145029D01*
X3800335Y2150110D01*
X3795255Y2160523D01*
X1257300Y1652015D02*
G01*
X1257300Y1543050D01*
X1257300Y1652015D02*
G01*
X1324863Y1652015D01*
X1257300Y1600200D02*
G01*
X1298955Y1600200D01*
X1257300Y1543050D02*
G01*
X1324863Y1543050D01*
X1359154Y1652015D02*
G01*
X1359154Y1543050D01*
X1359154Y1652015D02*
G01*
X1431797Y1543050D01*
X1431797Y1652015D02*
G01*
X1431797Y1543050D01*
X1544065Y1626107D02*
G01*
X1538986Y1636521D01*
X1528571Y1646936D01*
X1518157Y1652015D01*
X1497329Y1652015D01*
X1486915Y1646936D01*
X1476502Y1636521D01*
X1471421Y1626107D01*
X1466087Y1610360D01*
X1466087Y1584452D01*
X1471421Y1568957D01*
X1476502Y1558544D01*
X1486915Y1548129D01*
X1497329Y1543050D01*
X1518157Y1543050D01*
X1528571Y1548129D01*
X1538986Y1558544D01*
X1544065Y1568957D01*
X1544065Y1584452D01*
X1518157Y1584452D02*
G01*
X1544065Y1584452D01*
X1578355Y1506473D02*
G01*
X1671828Y1506473D01*
X1784095Y1626107D02*
G01*
X1779015Y1636521D01*
X1768602Y1646936D01*
X1758187Y1652015D01*
X1737360Y1652015D01*
X1726945Y1646936D01*
X1716531Y1636521D01*
X1711452Y1626107D01*
X1706118Y1610360D01*
X1706118Y1584452D01*
X1711452Y1568957D01*
X1716531Y1558544D01*
X1726945Y1548129D01*
X1737360Y1543050D01*
X1758187Y1543050D01*
X1768602Y1548129D01*
X1779015Y1558544D01*
X1784095Y1568957D01*
X1854707Y1652015D02*
G01*
X1854707Y1543050D01*
X1818386Y1652015D02*
G01*
X1891029Y1652015D01*
X1925320Y1652015D02*
G01*
X1925320Y1543050D01*
X1925320Y1543050D02*
G01*
X1987804Y1543050D01*
X3632200Y1613915D02*
G01*
X3632200Y1504950D01*
X3632200Y1613915D02*
G01*
X3699763Y1613915D01*
X3632200Y1562100D02*
G01*
X3673856Y1562100D01*
X3632200Y1504950D02*
G01*
X3699763Y1504950D01*
X3734054Y1613915D02*
G01*
X3734054Y1504950D01*
X3734054Y1613915D02*
G01*
X3806697Y1504950D01*
X3806697Y1613915D02*
G01*
X3806697Y1504950D01*
X3918965Y1588007D02*
G01*
X3913886Y1598421D01*
X3903472Y1608836D01*
X3893058Y1613915D01*
X3872229Y1613915D01*
X3861815Y1608836D01*
X3851402Y1598421D01*
X3846322Y1588007D01*
X3840988Y1572260D01*
X3840988Y1546352D01*
X3846322Y1530857D01*
X3851402Y1520444D01*
X3861815Y1510029D01*
X3872229Y1504950D01*
X3893058Y1504950D01*
X3903472Y1510029D01*
X3913886Y1520444D01*
X3918965Y1530857D01*
X3918965Y1546352D01*
X3893058Y1546352D02*
G01*
X3918965Y1546352D01*
X3953256Y1468373D02*
G01*
X4046727Y1468373D01*
X4158995Y1588007D02*
G01*
X4153915Y1598421D01*
X4143502Y1608836D01*
X4133088Y1613915D01*
X4112259Y1613915D01*
X4101845Y1608836D01*
X4091431Y1598421D01*
X4086352Y1588007D01*
X4081018Y1572260D01*
X4081018Y1546352D01*
X4086352Y1530857D01*
X4091431Y1520444D01*
X4101845Y1510029D01*
X4112259Y1504950D01*
X4133088Y1504950D01*
X4143502Y1510029D01*
X4153915Y1520444D01*
X4158995Y1530857D01*
X4158995Y1546352D01*
X4133088Y1546352D02*
G01*
X4158995Y1546352D01*
X4193286Y1613915D02*
G01*
X4193286Y1504950D01*
X4193286Y1613915D02*
G01*
X4265929Y1504950D01*
X4265929Y1613915D02*
G01*
X4265929Y1504950D01*
X4300220Y1613915D02*
G01*
X4300220Y1504950D01*
X4300220Y1613915D02*
G01*
X4336795Y1613915D01*
X4352290Y1608836D01*
X4362704Y1598421D01*
X4367784Y1588007D01*
X4373118Y1572260D01*
X4373118Y1546352D01*
X4367784Y1530857D01*
X4362704Y1520444D01*
X4352290Y1510029D01*
X4336795Y1504950D01*
X4300220Y1504950D01*
X2336800Y1639315D02*
G01*
X2336800Y1530350D01*
X2336800Y1639315D02*
G01*
X2404363Y1639315D01*
X2336800Y1587500D02*
G01*
X2378456Y1587500D01*
X2336800Y1530350D02*
G01*
X2404363Y1530350D01*
X2438654Y1639315D02*
G01*
X2438654Y1530350D01*
X2438654Y1639315D02*
G01*
X2511297Y1530350D01*
X2511297Y1639315D02*
G01*
X2511297Y1530350D01*
X2623565Y1613407D02*
G01*
X2618486Y1623821D01*
X2608072Y1634236D01*
X2597658Y1639315D01*
X2576829Y1639315D01*
X2566415Y1634236D01*
X2556002Y1623821D01*
X2550922Y1613407D01*
X2545588Y1597660D01*
X2545588Y1571752D01*
X2550922Y1556257D01*
X2556002Y1545844D01*
X2566415Y1535429D01*
X2576829Y1530350D01*
X2597658Y1530350D01*
X2608072Y1535429D01*
X2618486Y1545844D01*
X2623565Y1556257D01*
X2623565Y1571752D01*
X2597658Y1571752D02*
G01*
X2623565Y1571752D01*
X2657856Y1493773D02*
G01*
X2751327Y1493773D01*
X2785618Y1639315D02*
G01*
X2785618Y1530350D01*
X2785618Y1639315D02*
G01*
X2832354Y1639315D01*
X2848102Y1634236D01*
X2853181Y1628902D01*
X2858515Y1618487D01*
X2858515Y1602994D01*
X2853181Y1592579D01*
X2848102Y1587500D01*
X2832354Y1582165D01*
X2785618Y1582165D01*
X2892806Y1639315D02*
G01*
X2918713Y1530350D01*
X2944622Y1639315D02*
G01*
X2918713Y1530350D01*
X2944622Y1639315D02*
G01*
X2970529Y1530350D01*
X2996691Y1639315D02*
G01*
X2970529Y1530350D01*
X3030981Y1639315D02*
G01*
X3030981Y1530350D01*
X3030981Y1639315D02*
G01*
X3077718Y1639315D01*
X3093211Y1634236D01*
X3098545Y1628902D01*
X3103625Y1618487D01*
X3103625Y1608073D01*
X3098545Y1597660D01*
X3093211Y1592579D01*
X3077718Y1587500D01*
X3030981Y1587500D01*
X3067304Y1587500D02*
G01*
X3103625Y1530350D01*
X3022600Y9739884D02*
G01*
X3022600Y9848850D01*
X3022600Y9848850D02*
G01*
X2960370Y9848850D01*
D10*
X2935477Y11938000D02*
G01*
X2741675Y11938000D01*
X2741675Y11938000D02*
G01*
X2741675Y11827255D01*
X2907791Y11637010D02*
G01*
X2926334Y11655297D01*
X2935477Y11682984D01*
X2935477Y11720068D01*
X2926334Y11747754D01*
X2907791Y11766295D01*
X2889250Y11766295D01*
X2870961Y11756897D01*
X2861563Y11747754D01*
X2852420Y11729212D01*
X2833877Y11673839D01*
X2824734Y11655297D01*
X2815590Y11646154D01*
X2797047Y11637010D01*
X2769361Y11637010D01*
X2750820Y11655297D01*
X2741675Y11682984D01*
X2741675Y11720068D01*
X2750820Y11747754D01*
X2769361Y11766295D01*
X2935477Y11576050D02*
G01*
X2741675Y11576050D01*
X2935477Y11576050D02*
G01*
X2741675Y11502136D01*
X2935477Y11428221D02*
G01*
X2741675Y11502136D01*
X2935477Y11428221D02*
G01*
X2741675Y11428221D01*
X2907791Y11256263D02*
G01*
X2926334Y11265662D01*
X2935477Y11293347D01*
X2935477Y11311889D01*
X2926334Y11339576D01*
X2898647Y11357863D01*
X2852420Y11367262D01*
X2806191Y11367262D01*
X2769361Y11357863D01*
X2750820Y11339576D01*
X2741675Y11311889D01*
X2741675Y11302492D01*
X2750820Y11274805D01*
X2769361Y11256263D01*
X2797047Y11247120D01*
X2806191Y11247120D01*
X2833877Y11256263D01*
X2852420Y11274805D01*
X2861563Y11302492D01*
X2861563Y11311889D01*
X2852420Y11339576D01*
X2833877Y11357863D01*
X2806191Y11367262D01*
X2935477Y11186160D02*
G01*
X2741675Y11186160D01*
X2935477Y11186160D02*
G01*
X2935477Y11121389D01*
X2926334Y11093704D01*
X2907791Y11075415D01*
X2889250Y11066018D01*
X2861563Y11056874D01*
X2815590Y11056874D01*
X2787650Y11066018D01*
X2769361Y11075415D01*
X2750820Y11093704D01*
X2741675Y11121389D01*
X2741675Y11186160D01*
X2907791Y10866628D02*
G01*
X2926334Y10885170D01*
X2935477Y10912855D01*
X2935477Y10949686D01*
X2926334Y10977371D01*
X2907791Y10995913D01*
X2889250Y10995913D01*
X2870961Y10986770D01*
X2861563Y10977371D01*
X2852420Y10958829D01*
X2833877Y10903458D01*
X2824734Y10885170D01*
X2815590Y10875771D01*
X2797047Y10866628D01*
X2769361Y10866628D01*
X2750820Y10885170D01*
X2741675Y10912855D01*
X2741675Y10949686D01*
X2750820Y10977371D01*
X2769361Y10995913D01*
X2935477Y10750295D02*
G01*
X2926334Y10768584D01*
X2907791Y10787126D01*
X2889250Y10796270D01*
X2861563Y10805668D01*
X2815590Y10805668D01*
X2787650Y10796270D01*
X2769361Y10787126D01*
X2750820Y10768584D01*
X2741675Y10750295D01*
X2741675Y10713212D01*
X2750820Y10694670D01*
X2769361Y10676381D01*
X2787650Y10666984D01*
X2815590Y10657839D01*
X2861563Y10657839D01*
X2889250Y10666984D01*
X2907791Y10676381D01*
X2926334Y10694670D01*
X2935477Y10713212D01*
X2935477Y10750295D01*
X2935477Y10578337D02*
G01*
X2935477Y10476737D01*
X2861563Y10532110D01*
X2861563Y10504424D01*
X2852420Y10486136D01*
X2843275Y10476737D01*
X2815590Y10467594D01*
X2797047Y10467594D01*
X2769361Y10476737D01*
X2750820Y10495279D01*
X2741675Y10522965D01*
X2741675Y10550652D01*
X2750820Y10578337D01*
X2759963Y10587736D01*
X2778506Y10596879D01*
X2935477Y10388092D02*
G01*
X2935477Y10286492D01*
X2861563Y10341863D01*
X2861563Y10314178D01*
X2852420Y10295889D01*
X2843275Y10286492D01*
X2815590Y10277347D01*
X2797047Y10277347D01*
X2769361Y10286492D01*
X2750820Y10305034D01*
X2741675Y10332720D01*
X2741675Y10360405D01*
X2750820Y10388092D01*
X2759963Y10397489D01*
X2778506Y10406634D01*
D11*
X2260600Y12432284D02*
G01*
X2260600Y12510262D01*
X2255520Y12525755D01*
X2245106Y12536170D01*
X2229358Y12541250D01*
X2218943Y12541250D01*
X2203450Y12536170D01*
X2193036Y12525755D01*
X2187956Y12510262D01*
X2187956Y12432284D01*
X2148331Y12458192D02*
G01*
X2148331Y12453112D01*
X2143252Y12442697D01*
X2137918Y12437363D01*
X2127504Y12432284D01*
X2106929Y12432284D01*
X2096515Y12437363D01*
X2091181Y12442697D01*
X2086102Y12453112D01*
X2086102Y12463526D01*
X2091181Y12473939D01*
X2101595Y12489434D01*
X2153665Y12541250D01*
X2080768Y12541250D01*
D10*
X1706374Y12979400D02*
G01*
X1803402Y12979400D01*
X1706374Y12979400D02*
G01*
X1706374Y13021055D01*
X1710946Y13034771D01*
X1715518Y13039344D01*
X1724916Y13044170D01*
X1738632Y13044170D01*
X1747776Y13039344D01*
X1752602Y13034771D01*
X1757174Y13021055D01*
X1757174Y12979400D01*
X1706374Y13074650D02*
G01*
X1803402Y13074650D01*
X1706374Y13074650D02*
G01*
X1706374Y13116052D01*
X1710946Y13130021D01*
X1715518Y13134594D01*
X1724916Y13139166D01*
X1738632Y13139166D01*
X1747776Y13134594D01*
X1752602Y13130021D01*
X1757174Y13116052D01*
X1757174Y13074650D01*
X1720090Y13234416D02*
G01*
X1710946Y13225018D01*
X1706374Y13211302D01*
X1706374Y13192760D01*
X1710946Y13178789D01*
X1720090Y13169645D01*
X1729488Y13169645D01*
X1738632Y13174218D01*
X1743204Y13178789D01*
X1747776Y13188187D01*
X1757174Y13215874D01*
X1761746Y13225018D01*
X1766318Y13229589D01*
X1775716Y13234416D01*
X1789432Y13234416D01*
X1798576Y13225018D01*
X1803402Y13211302D01*
X1803402Y13192760D01*
X1798576Y13178789D01*
X1789432Y13169645D01*
X1960374Y12979400D02*
G01*
X2057402Y12979400D01*
X1960374Y12979400D02*
G01*
X1960374Y13021055D01*
X1964946Y13034771D01*
X1969518Y13039344D01*
X1978916Y13044170D01*
X1988060Y13044170D01*
X1997204Y13039344D01*
X2001776Y13034771D01*
X2006602Y13021055D01*
X2006602Y12979400D01*
X2006602Y13011658D02*
G01*
X2057402Y13044170D01*
X1960374Y13074650D02*
G01*
X2057402Y13139166D01*
X1960374Y13139166D02*
G01*
X2057402Y13074650D01*
X2205227Y13011658D02*
G01*
X2302256Y13011658D01*
X2205227Y12979400D02*
G01*
X2205227Y13044170D01*
X2205227Y13074650D02*
G01*
X2302256Y13139166D01*
X2205227Y13139166D02*
G01*
X2302256Y13074650D01*
X2491488Y12997942D02*
G01*
X2482090Y12993370D01*
X2472946Y12983971D01*
X2468374Y12974828D01*
X2468374Y12956286D01*
X2472946Y12947142D01*
X2482090Y12937744D01*
X2491488Y12933171D01*
X2505204Y12928600D01*
X2528318Y12928600D01*
X2542288Y12933171D01*
X2551432Y12937744D01*
X2560576Y12947142D01*
X2565402Y12956286D01*
X2565402Y12974828D01*
X2560576Y12983971D01*
X2551432Y12993370D01*
X2542288Y12997942D01*
X2528318Y12997942D01*
X2528318Y12974828D02*
G01*
X2528318Y12997942D01*
X2468374Y13028421D02*
G01*
X2565402Y13028421D01*
X2468374Y13028421D02*
G01*
X2565402Y13092937D01*
X2468374Y13092937D02*
G01*
X2565402Y13092937D01*
X2468374Y13123418D02*
G01*
X2565402Y13123418D01*
X2468374Y13123418D02*
G01*
X2468374Y13155929D01*
X2472946Y13169645D01*
X2482090Y13178789D01*
X2491488Y13183616D01*
X2505204Y13188187D01*
X2528318Y13188187D01*
X2542288Y13183616D01*
X2551432Y13178789D01*
X2560576Y13169645D01*
X2565402Y13155929D01*
X2565402Y13123418D01*
X2722374Y12928600D02*
G01*
X2819402Y12965429D01*
X2722374Y13002513D02*
G01*
X2819402Y12965429D01*
X2745488Y13102336D02*
G01*
X2736090Y13097510D01*
X2726946Y13088365D01*
X2722374Y13079221D01*
X2722374Y13060679D01*
X2726946Y13051536D01*
X2736090Y13042137D01*
X2745488Y13037565D01*
X2759204Y13032994D01*
X2782318Y13032994D01*
X2796288Y13037565D01*
X2805432Y13042137D01*
X2814576Y13051536D01*
X2819402Y13060679D01*
X2819402Y13079221D01*
X2814576Y13088365D01*
X2805432Y13097510D01*
X2796288Y13102336D01*
X2745488Y13201904D02*
G01*
X2736090Y13197331D01*
X2726946Y13188187D01*
X2722374Y13178789D01*
X2722374Y13160502D01*
X2726946Y13151104D01*
X2736090Y13141960D01*
X2745488Y13137387D01*
X2759204Y13132816D01*
X2782318Y13132816D01*
X2796288Y13137387D01*
X2805432Y13141960D01*
X2814576Y13151104D01*
X2819402Y13160502D01*
X2819402Y13178789D01*
X2814576Y13188187D01*
X2805432Y13197331D01*
X2796288Y13201904D01*
G36*
X3970680Y3424224D02*
G01*
X3970680Y2824175D01*
X3983431Y2838196D01*
X3995572Y2852674D01*
X4007053Y2867710D01*
X4017873Y2883255D01*
X4027982Y2899206D01*
X4037431Y2915615D01*
X4046118Y2932430D01*
X4054094Y2949549D01*
X4061307Y2967024D01*
X4067759Y2984804D01*
X4073448Y3002889D01*
X4078325Y3021126D01*
X4082389Y3039618D01*
X4085691Y3058261D01*
X4088129Y3077006D01*
X4089755Y3095853D01*
X4090619Y3114751D01*
X4090619Y3133648D01*
X4089755Y3152546D01*
X4088129Y3171393D01*
X4085691Y3190138D01*
X4082389Y3208782D01*
X4078325Y3227273D01*
X4073448Y3245510D01*
X4067759Y3263595D01*
X4061307Y3281375D01*
X4054094Y3298850D01*
X4046118Y3315970D01*
X4037431Y3332784D01*
X4027982Y3349193D01*
X4017873Y3365144D01*
X4007053Y3380689D01*
X3995572Y3395726D01*
X3983431Y3410204D01*
G37*
X2628900Y9512300D02*
G01*
X2628900Y9258300D01*
X1612900Y9258300D01*
X1612900Y9512300D01*
X1803400Y9512300D01*
D12*
X2628900Y9512300D02*
G01*
X1803400Y9512300D01*
D10*
X4432300Y9410700D02*
G01*
X4432300Y9156700D01*
X3416300Y9156700D01*
X3416300Y9410700D01*
X3606800Y9410700D01*
D12*
X4432300Y9410700D02*
G01*
X3606800Y9410700D01*
D13*
X3475700Y3244199D02*
G01*
X3351240Y3244199D01*
X3413470Y3176889D02*
G01*
X3413470Y3311509D01*
D14*
X3712999Y1981268D02*
G01*
X3797300Y1981268D01*
X3653000Y1981131D02*
G01*
X3568700Y1981131D01*
X3712999Y1906198D02*
G01*
X3712999Y2056196D01*
X3653000Y2056201D02*
G01*
X3653000Y1906203D01*
X3482987Y2106203D02*
G01*
X3882986Y2106201D01*
X3882986Y1856196D02*
G01*
X3482987Y1856198D01*
X3482987Y2106203D02*
G01*
X3482987Y2071344D01*
X3482987Y1891055D02*
G01*
X3482987Y1856198D01*
X3882986Y2106201D02*
G01*
X3882986Y2071344D01*
X3882986Y1891055D02*
G01*
X3882986Y1856196D01*
D10*
X1714500Y1473200D02*
G01*
X1968500Y1473200D01*
X1968500Y1221739D01*
X1206500Y1221739D01*
X1206500Y1473200D01*
X1714500Y1473200D01*
X3784600Y1473200D02*
G01*
X4038600Y1473200D01*
X4038600Y1221739D01*
X3276600Y1221739D01*
X3276600Y1473200D01*
X3784600Y1473200D01*
X2794000Y1473200D02*
G01*
X3048000Y1473200D01*
X3048000Y1221739D01*
X2286000Y1221739D01*
X2286000Y1473200D01*
X2794000Y1473200D01*
D13*
X3911600Y9880600D02*
G01*
X2120900Y9880600D01*
X2120900Y12433300D01*
X3911600Y12433300D01*
X3911600Y9880600D01*
X1600200Y12573000D02*
G01*
X1600200Y14198600D01*
X2819400Y14198600D01*
X2921000Y14198600D01*
X2921000Y14097000D01*
X2921000Y12776200D01*
X2921000Y12776200D02*
G01*
X2921000Y12573000D01*
X1600200Y12573000D01*
G75*
G01*
X3695954Y3524250D02*
G03*
X3703066Y3524250I3556J-399984D01*
M02*
