G04 Layer: BottomSilkscreenLayer*
G04 EasyEDA v6.5.57, 2026-09-05 19:11:18*
G04 eb698d3fd55c42babd26508227ba8a7e,8bd660a998cf4db6934d2697710aec2e,10*
G04 Gerber Generator version 0.2*
G04 Scale: 100 percent, Rotated: No, Reflected: No *
G04 Dimensions in millimeters *
G04 leading zeros omitted , absolute positions ,4 integer and 5 decimal *
%FSLAX45Y45*%
%MOMM*%

%ADD10C,0.1524*%
%ADD11C,0.2032*%
%ADD12C,0.1500*%
%ADD13C,0.2030*%
%ADD14C,0.2540*%
%ADD15C,0.1270*%
%ADD16C,0.0137*%

%LPD*%
G36*
X2512720Y5664352D02*
G01*
X2575458Y5467248D01*
X2587650Y5467248D01*
X2524912Y5664352D01*
G37*
G36*
X2321458Y5664352D02*
G01*
X2384196Y5467248D01*
X2396388Y5467248D01*
X2333650Y5664352D01*
G37*
G36*
X2130196Y5664352D02*
G01*
X2192934Y5467248D01*
X2205126Y5467248D01*
X2142388Y5664352D01*
G37*
G36*
X3202330Y5654700D02*
G01*
X3196386Y5654395D01*
X3190748Y5653582D01*
X3185414Y5652211D01*
X3180486Y5650331D01*
X3176016Y5647944D01*
X3172002Y5645048D01*
X3168446Y5641644D01*
X3165500Y5637784D01*
X3163112Y5633466D01*
X3161385Y5628690D01*
X3160268Y5623509D01*
X3159912Y5617870D01*
X3160420Y5611215D01*
X3161893Y5605170D01*
X3164179Y5599785D01*
X3167329Y5594959D01*
X3171240Y5590794D01*
X3175762Y5587187D01*
X3180943Y5584190D01*
X3186582Y5581802D01*
X3186582Y5581040D01*
X3180181Y5579059D01*
X3174238Y5576265D01*
X3168853Y5572607D01*
X3164128Y5568188D01*
X3160268Y5562955D01*
X3157321Y5557012D01*
X3155492Y5550306D01*
X3154832Y5542940D01*
X3155238Y5536539D01*
X3156508Y5530646D01*
X3158490Y5525211D01*
X3161182Y5520283D01*
X3164535Y5515813D01*
X3168497Y5511952D01*
X3172968Y5508599D01*
X3177946Y5505805D01*
X3183331Y5503621D01*
X3189122Y5502046D01*
X3195218Y5501081D01*
X3201568Y5500776D01*
X3209899Y5501233D01*
X3217468Y5502452D01*
X3224225Y5504434D01*
X3230321Y5507024D01*
X3235807Y5510072D01*
X3240633Y5513527D01*
X3244951Y5517235D01*
X3248812Y5521096D01*
X3240176Y5531764D01*
X3236823Y5528462D01*
X3233166Y5525312D01*
X3229203Y5522366D01*
X3224834Y5519775D01*
X3220008Y5517591D01*
X3214725Y5515914D01*
X3208934Y5514848D01*
X3202584Y5514492D01*
X3196082Y5515000D01*
X3190138Y5516524D01*
X3184855Y5518962D01*
X3180334Y5522315D01*
X3176676Y5526481D01*
X3173882Y5531408D01*
X3172206Y5537098D01*
X3171596Y5543448D01*
X3171850Y5547868D01*
X3172714Y5552084D01*
X3174136Y5555945D01*
X3176168Y5559552D01*
X3178860Y5562803D01*
X3182264Y5565648D01*
X3186379Y5568188D01*
X3191256Y5570270D01*
X3196894Y5571947D01*
X3203346Y5573166D01*
X3210661Y5573928D01*
X3218840Y5574182D01*
X3218840Y5587136D01*
X3211474Y5587390D01*
X3204870Y5588152D01*
X3199130Y5589422D01*
X3194100Y5591098D01*
X3189782Y5593181D01*
X3186176Y5595670D01*
X3183229Y5598464D01*
X3180842Y5601614D01*
X3179114Y5605018D01*
X3177895Y5608675D01*
X3177184Y5612536D01*
X3176930Y5616600D01*
X3177387Y5621883D01*
X3178708Y5626608D01*
X3180892Y5630773D01*
X3183890Y5634329D01*
X3187598Y5637225D01*
X3192068Y5639358D01*
X3197148Y5640679D01*
X3202838Y5641238D01*
X3211728Y5640019D01*
X3220008Y5636920D01*
X3227476Y5632297D01*
X3234080Y5626506D01*
X3243224Y5637174D01*
X3239058Y5640781D01*
X3234639Y5644083D01*
X3229965Y5647080D01*
X3225088Y5649620D01*
X3219856Y5651754D01*
X3214370Y5653328D01*
X3208528Y5654344D01*
G37*
G36*
X2267864Y5654700D02*
G01*
X2262632Y5654395D01*
X2257602Y5653582D01*
X2252776Y5652211D01*
X2248154Y5650280D01*
X2243836Y5647791D01*
X2239772Y5644743D01*
X2236012Y5641187D01*
X2232558Y5637072D01*
X2229459Y5632399D01*
X2226665Y5627217D01*
X2224278Y5621426D01*
X2222296Y5615127D01*
X2220722Y5608320D01*
X2219553Y5600954D01*
X2218840Y5592978D01*
X2234336Y5592978D01*
X2235047Y5600496D01*
X2236114Y5607405D01*
X2237638Y5613755D01*
X2239467Y5619496D01*
X2241702Y5624576D01*
X2244344Y5629046D01*
X2247341Y5632907D01*
X2250694Y5636056D01*
X2254453Y5638495D01*
X2258568Y5640273D01*
X2263038Y5641390D01*
X2267864Y5641746D01*
X2273300Y5641086D01*
X2278278Y5639206D01*
X2282748Y5636158D01*
X2286558Y5632043D01*
X2289708Y5626912D01*
X2292045Y5620969D01*
X2293518Y5614162D01*
X2294026Y5606694D01*
X2293620Y5599328D01*
X2292350Y5592622D01*
X2290216Y5586780D01*
X2287270Y5581802D01*
X2283409Y5577840D01*
X2278684Y5574842D01*
X2273096Y5573014D01*
X2266594Y5572404D01*
X2262632Y5572709D01*
X2258618Y5573572D01*
X2254504Y5575096D01*
X2250389Y5577230D01*
X2246274Y5580075D01*
X2242210Y5583631D01*
X2238197Y5587949D01*
X2234336Y5592978D01*
X2218840Y5592978D01*
X2218588Y5584596D01*
X2218791Y5575706D01*
X2219350Y5567426D01*
X2220264Y5559653D01*
X2221484Y5552440D01*
X2223058Y5545785D01*
X2224938Y5539587D01*
X2227072Y5533948D01*
X2229459Y5528767D01*
X2232101Y5524042D01*
X2234996Y5519826D01*
X2238044Y5516067D01*
X2241296Y5512714D01*
X2244750Y5509818D01*
X2248306Y5507329D01*
X2252014Y5505297D01*
X2255875Y5503621D01*
X2259787Y5502351D01*
X2263749Y5501487D01*
X2267813Y5500928D01*
X2271928Y5500776D01*
X2277618Y5501030D01*
X2282901Y5501843D01*
X2287778Y5503164D01*
X2292299Y5504891D01*
X2296464Y5507024D01*
X2300274Y5509564D01*
X2303780Y5512409D01*
X2306980Y5515508D01*
X2297582Y5526176D01*
X2292350Y5521248D01*
X2286254Y5517540D01*
X2279548Y5515254D01*
X2272436Y5514492D01*
X2268829Y5514695D01*
X2265222Y5515305D01*
X2261768Y5516321D01*
X2258415Y5517794D01*
X2255215Y5519775D01*
X2252116Y5522214D01*
X2249220Y5525211D01*
X2246528Y5528716D01*
X2244039Y5532831D01*
X2241804Y5537504D01*
X2239822Y5542788D01*
X2238095Y5548680D01*
X2236673Y5555234D01*
X2235555Y5562447D01*
X2234742Y5570372D01*
X2234336Y5579008D01*
X2237943Y5574893D01*
X2241804Y5571185D01*
X2245969Y5567934D01*
X2250287Y5565190D01*
X2254859Y5562955D01*
X2259533Y5561330D01*
X2264308Y5560314D01*
X2269134Y5559958D01*
X2275179Y5560263D01*
X2280767Y5561279D01*
X2286000Y5562904D01*
X2290724Y5565241D01*
X2294991Y5568188D01*
X2298801Y5571794D01*
X2302052Y5576011D01*
X2304796Y5580888D01*
X2306929Y5586425D01*
X2308504Y5592572D01*
X2309469Y5599328D01*
X2309774Y5606694D01*
X2309368Y5613603D01*
X2308250Y5620105D01*
X2306421Y5626201D01*
X2303983Y5631789D01*
X2300935Y5636818D01*
X2297379Y5641340D01*
X2293366Y5645251D01*
X2288895Y5648553D01*
X2284069Y5651195D01*
X2278888Y5653125D01*
X2273503Y5654294D01*
G37*
G36*
X1964842Y5654700D02*
G01*
X1958441Y5654344D01*
X1952498Y5653328D01*
X1947011Y5651601D01*
X1942033Y5649315D01*
X1937562Y5646369D01*
X1933600Y5642864D01*
X1930196Y5638850D01*
X1927352Y5634278D01*
X1925116Y5629198D01*
X1923491Y5623661D01*
X1922525Y5617667D01*
X1922170Y5611266D01*
X1922373Y5606745D01*
X1922881Y5602173D01*
X1923745Y5597601D01*
X1924913Y5593080D01*
X1926437Y5588508D01*
X1928266Y5583885D01*
X1930400Y5579262D01*
X1935530Y5569966D01*
X1941779Y5560568D01*
X1949094Y5551017D01*
X1957425Y5541314D01*
X1966671Y5531459D01*
X1982114Y5516270D01*
X1969719Y5517184D01*
X1957730Y5517540D01*
X1915058Y5517540D01*
X1915058Y5503316D01*
X2007006Y5503316D01*
X2007006Y5513222D01*
X1993544Y5525312D01*
X1981657Y5536742D01*
X1971243Y5547614D01*
X1962353Y5557977D01*
X1954885Y5567781D01*
X1948891Y5577078D01*
X1944268Y5585968D01*
X1941017Y5594502D01*
X1939848Y5598617D01*
X1938578Y5606592D01*
X1938426Y5610504D01*
X1938832Y5616854D01*
X1940102Y5622696D01*
X1942287Y5627928D01*
X1945284Y5632450D01*
X1949246Y5636107D01*
X1954072Y5638901D01*
X1959864Y5640628D01*
X1966620Y5641238D01*
X1971192Y5640882D01*
X1975612Y5639866D01*
X1979879Y5638292D01*
X1983943Y5636158D01*
X1987804Y5633618D01*
X1991512Y5630621D01*
X1995017Y5627319D01*
X1998370Y5623712D01*
X2008022Y5632856D01*
X2003501Y5637580D01*
X1998827Y5641848D01*
X1994001Y5645556D01*
X1988921Y5648706D01*
X1983486Y5651246D01*
X1977745Y5653125D01*
X1971548Y5654294D01*
G37*
G36*
X2453538Y5654192D02*
G01*
X2447442Y5653836D01*
X2441803Y5652871D01*
X2436622Y5651296D01*
X2431897Y5649112D01*
X2427681Y5646420D01*
X2423922Y5643219D01*
X2420721Y5639511D01*
X2418029Y5635345D01*
X2415946Y5630824D01*
X2414422Y5625896D01*
X2413457Y5620613D01*
X2413219Y5614314D01*
X2427376Y5614314D01*
X2427833Y5619800D01*
X2429154Y5624931D01*
X2431338Y5629554D01*
X2434285Y5633618D01*
X2438095Y5637022D01*
X2442616Y5639562D01*
X2447848Y5641187D01*
X2453792Y5641746D01*
X2458923Y5641289D01*
X2463596Y5639917D01*
X2467762Y5637733D01*
X2471318Y5634786D01*
X2474214Y5631129D01*
X2476347Y5626862D01*
X2477719Y5621985D01*
X2478176Y5616600D01*
X2477414Y5610199D01*
X2475280Y5604662D01*
X2471928Y5599836D01*
X2467559Y5595670D01*
X2462377Y5592013D01*
X2456535Y5588812D01*
X2450236Y5585968D01*
X2443632Y5583326D01*
X2436723Y5590286D01*
X2431592Y5597855D01*
X2428443Y5605881D01*
X2427376Y5614314D01*
X2413219Y5614314D01*
X2413660Y5609285D01*
X2415032Y5603748D01*
X2417165Y5598566D01*
X2419858Y5593689D01*
X2422956Y5589270D01*
X2426360Y5585307D01*
X2429814Y5581853D01*
X2433218Y5579008D01*
X2433218Y5577992D01*
X2428443Y5574944D01*
X2423820Y5571490D01*
X2419553Y5567629D01*
X2415794Y5563209D01*
X2412593Y5558180D01*
X2410206Y5552490D01*
X2408631Y5546090D01*
X2408111Y5539384D01*
X2423820Y5539384D01*
X2424226Y5544261D01*
X2425344Y5548680D01*
X2427122Y5552643D01*
X2429560Y5556199D01*
X2432558Y5559450D01*
X2436063Y5562396D01*
X2439974Y5565089D01*
X2444343Y5567578D01*
X2453944Y5572150D01*
X2464460Y5576468D01*
X2469032Y5573318D01*
X2473198Y5569762D01*
X2476855Y5565851D01*
X2480005Y5561584D01*
X2482596Y5557012D01*
X2484475Y5552084D01*
X2485644Y5546902D01*
X2486050Y5541416D01*
X2485440Y5535523D01*
X2483612Y5530088D01*
X2480665Y5525262D01*
X2476804Y5521096D01*
X2472029Y5517692D01*
X2466543Y5515102D01*
X2460447Y5513527D01*
X2453792Y5512968D01*
X2447340Y5513476D01*
X2441498Y5514949D01*
X2436368Y5517286D01*
X2432050Y5520436D01*
X2428544Y5524296D01*
X2425954Y5528818D01*
X2424379Y5533847D01*
X2423820Y5539384D01*
X2408111Y5539384D01*
X2408428Y5533644D01*
X2409545Y5528614D01*
X2411374Y5523890D01*
X2413812Y5519521D01*
X2416962Y5515457D01*
X2420670Y5511800D01*
X2424938Y5508599D01*
X2429764Y5505907D01*
X2435098Y5503722D01*
X2440889Y5502097D01*
X2447137Y5501132D01*
X2453792Y5500776D01*
X2460498Y5501081D01*
X2466797Y5502097D01*
X2472740Y5503722D01*
X2478227Y5505907D01*
X2483256Y5508650D01*
X2487726Y5511901D01*
X2491587Y5515660D01*
X2494889Y5519826D01*
X2497531Y5524449D01*
X2499461Y5529427D01*
X2500630Y5534761D01*
X2501036Y5540400D01*
X2500426Y5547614D01*
X2498648Y5554268D01*
X2495905Y5560364D01*
X2492349Y5565851D01*
X2488133Y5570728D01*
X2483459Y5575046D01*
X2478481Y5578703D01*
X2473350Y5581802D01*
X2473350Y5582564D01*
X2477363Y5585510D01*
X2481122Y5588812D01*
X2484526Y5592470D01*
X2487472Y5596534D01*
X2489962Y5600954D01*
X2491841Y5605780D01*
X2493010Y5610961D01*
X2493416Y5616600D01*
X2493060Y5622036D01*
X2492044Y5627116D01*
X2490368Y5631891D01*
X2488082Y5636260D01*
X2485288Y5640222D01*
X2481935Y5643778D01*
X2478176Y5646826D01*
X2473909Y5649417D01*
X2469286Y5651449D01*
X2464358Y5652973D01*
X2459075Y5653887D01*
G37*
G36*
X2986430Y5652160D02*
G01*
X2986430Y5642000D01*
X2994660Y5630926D01*
X3001772Y5620156D01*
X3007868Y5609539D01*
X3012998Y5598972D01*
X3015284Y5593689D01*
X3019145Y5583021D01*
X3022295Y5572099D01*
X3024835Y5560872D01*
X3026816Y5549239D01*
X3028340Y5536996D01*
X3029458Y5524144D01*
X3030626Y5503316D01*
X3047898Y5503316D01*
X3047085Y5517235D01*
X3045917Y5530392D01*
X3044342Y5542838D01*
X3042310Y5554675D01*
X3039821Y5566003D01*
X3036773Y5576925D01*
X3033217Y5587441D01*
X3029000Y5597702D01*
X3024174Y5607812D01*
X3018688Y5617819D01*
X3012440Y5627827D01*
X3005480Y5637936D01*
X3078632Y5637936D01*
X3078632Y5652160D01*
G37*
G36*
X2861970Y5652160D02*
G01*
X2909468Y5503316D01*
X2928772Y5503316D01*
X2976524Y5652160D01*
X2958744Y5652160D01*
X2931922Y5563412D01*
X2924962Y5539435D01*
X2919120Y5520842D01*
X2918358Y5520842D01*
X2878988Y5652160D01*
G37*
G36*
X2607970Y5652160D02*
G01*
X2607970Y5637936D01*
X2664358Y5637936D01*
X2668422Y5592724D01*
X2663240Y5595315D01*
X2657805Y5597296D01*
X2651912Y5598617D01*
X2645308Y5599074D01*
X2639263Y5598769D01*
X2633472Y5597804D01*
X2627985Y5596229D01*
X2622854Y5594045D01*
X2618130Y5591149D01*
X2613863Y5587593D01*
X2610104Y5583377D01*
X2606903Y5578449D01*
X2604363Y5572810D01*
X2602433Y5566460D01*
X2601264Y5559399D01*
X2600858Y5551576D01*
X2601315Y5543753D01*
X2602687Y5536539D01*
X2604922Y5529935D01*
X2607818Y5523941D01*
X2611424Y5518607D01*
X2615641Y5513984D01*
X2620314Y5510022D01*
X2625496Y5506720D01*
X2630982Y5504129D01*
X2636774Y5502249D01*
X2642768Y5501132D01*
X2648864Y5500776D01*
X2657094Y5501182D01*
X2664510Y5502452D01*
X2671216Y5504332D01*
X2677210Y5506821D01*
X2682544Y5509768D01*
X2687370Y5513070D01*
X2691688Y5516626D01*
X2695600Y5520334D01*
X2687472Y5531256D01*
X2684119Y5528056D01*
X2680512Y5525008D01*
X2676550Y5522163D01*
X2672232Y5519623D01*
X2667508Y5517489D01*
X2662275Y5515864D01*
X2656484Y5514848D01*
X2650134Y5514492D01*
X2643632Y5515152D01*
X2637536Y5517032D01*
X2631948Y5520182D01*
X2627071Y5524398D01*
X2623058Y5529681D01*
X2620010Y5535930D01*
X2618028Y5543092D01*
X2617368Y5551068D01*
X2617978Y5558840D01*
X2619654Y5565749D01*
X2622397Y5571744D01*
X2626156Y5576773D01*
X2630779Y5580786D01*
X2636215Y5583682D01*
X2642463Y5585510D01*
X2649372Y5586120D01*
X2656433Y5585561D01*
X2662631Y5583834D01*
X2668473Y5581091D01*
X2674518Y5577230D01*
X2683662Y5583072D01*
X2679090Y5652160D01*
G37*
G36*
X2059838Y5652160D02*
G01*
X2059838Y5517032D01*
X2029612Y5517032D01*
X2029612Y5503316D01*
X2109622Y5503316D01*
X2109622Y5517032D01*
X2076348Y5517032D01*
X2076348Y5631078D01*
X2102510Y5631078D01*
X2102510Y5642000D01*
X2093569Y5643778D01*
X2085644Y5646013D01*
X2078634Y5648807D01*
X2072538Y5652160D01*
G37*
G36*
X1789582Y5652160D02*
G01*
X1837080Y5503316D01*
X1856384Y5503316D01*
X1904136Y5652160D01*
X1886610Y5652160D01*
X1859635Y5563412D01*
X1852675Y5539435D01*
X1846986Y5520842D01*
X1846224Y5520842D01*
X1831238Y5569864D01*
X1806600Y5652160D01*
G37*
G36*
X2755544Y5566562D02*
G01*
X2755544Y5553608D01*
X2807106Y5553608D01*
X2807106Y5566562D01*
G37*
G36*
X3116224Y5527192D02*
G01*
X3111246Y5526227D01*
X3107232Y5523484D01*
X3104489Y5519267D01*
X3103524Y5513730D01*
X3104489Y5508396D01*
X3107232Y5504281D01*
X3111246Y5501690D01*
X3116224Y5500776D01*
X3120898Y5501690D01*
X3124809Y5504281D01*
X3127451Y5508396D01*
X3128416Y5513730D01*
X3127451Y5519267D01*
X3124809Y5523484D01*
X3120898Y5526227D01*
G37*
G36*
X1822043Y5599074D02*
G01*
X1816557Y5598871D01*
X1811274Y5598210D01*
X1806143Y5597144D01*
X1801215Y5595670D01*
X1796542Y5593842D01*
X1792071Y5591556D01*
X1787804Y5588914D01*
X1783842Y5585866D01*
X1780082Y5582462D01*
X1776628Y5578652D01*
X1773428Y5574538D01*
X1770532Y5570067D01*
X1767941Y5565241D01*
X1765655Y5560110D01*
X1763674Y5554624D01*
X1762048Y5548833D01*
X1760728Y5542737D01*
X1759813Y5536336D01*
X1759204Y5529630D01*
X1759051Y5522620D01*
X1776323Y5522620D01*
X1776526Y5529580D01*
X1777136Y5536234D01*
X1778152Y5542483D01*
X1779574Y5548325D01*
X1781352Y5553811D01*
X1783486Y5558891D01*
X1785975Y5563565D01*
X1788769Y5567781D01*
X1791919Y5571540D01*
X1795373Y5574893D01*
X1799132Y5577687D01*
X1803196Y5580075D01*
X1807514Y5581904D01*
X1812137Y5583275D01*
X1816963Y5584088D01*
X1822043Y5584342D01*
X1827072Y5584088D01*
X1831848Y5583275D01*
X1836420Y5581904D01*
X1840687Y5580075D01*
X1844751Y5577687D01*
X1848459Y5574893D01*
X1851914Y5571540D01*
X1855063Y5567781D01*
X1857857Y5563565D01*
X1860346Y5558891D01*
X1862480Y5553811D01*
X1864258Y5548325D01*
X1865630Y5542483D01*
X1866646Y5536234D01*
X1867306Y5529580D01*
X1867509Y5522620D01*
X1867306Y5515660D01*
X1866646Y5509006D01*
X1865630Y5502706D01*
X1864258Y5496763D01*
X1862480Y5491175D01*
X1860346Y5486044D01*
X1857857Y5481269D01*
X1855063Y5476951D01*
X1851914Y5473090D01*
X1848459Y5469686D01*
X1844751Y5466791D01*
X1840687Y5464352D01*
X1836420Y5462422D01*
X1831848Y5461050D01*
X1827072Y5460187D01*
X1822043Y5459882D01*
X1816963Y5460187D01*
X1812137Y5461050D01*
X1807514Y5462422D01*
X1803196Y5464352D01*
X1799132Y5466791D01*
X1795373Y5469686D01*
X1791919Y5473090D01*
X1788769Y5476951D01*
X1785975Y5481269D01*
X1783486Y5486044D01*
X1781352Y5491175D01*
X1779574Y5496763D01*
X1778152Y5502706D01*
X1777136Y5509006D01*
X1776526Y5515660D01*
X1776323Y5522620D01*
X1759051Y5522620D01*
X1759204Y5515660D01*
X1759813Y5508904D01*
X1760728Y5502503D01*
X1762048Y5496356D01*
X1763674Y5490464D01*
X1765655Y5484926D01*
X1767941Y5479745D01*
X1770532Y5474817D01*
X1773428Y5470296D01*
X1776628Y5466080D01*
X1780082Y5462219D01*
X1783842Y5458764D01*
X1787804Y5455666D01*
X1792071Y5452922D01*
X1796542Y5450586D01*
X1801215Y5448655D01*
X1806143Y5447131D01*
X1811274Y5446064D01*
X1816557Y5445404D01*
X1822043Y5445150D01*
X1827428Y5445404D01*
X1832660Y5446064D01*
X1837740Y5447131D01*
X1842617Y5448655D01*
X1847240Y5450586D01*
X1851710Y5452922D01*
X1855927Y5455666D01*
X1859889Y5458764D01*
X1863648Y5462219D01*
X1867103Y5466080D01*
X1870303Y5470296D01*
X1873199Y5474817D01*
X1875840Y5479745D01*
X1878126Y5484926D01*
X1880107Y5490464D01*
X1881733Y5496356D01*
X1883054Y5502503D01*
X1884019Y5508904D01*
X1884578Y5515660D01*
X1884781Y5522620D01*
X1884578Y5529630D01*
X1884019Y5536336D01*
X1883054Y5542737D01*
X1881733Y5548833D01*
X1880107Y5554624D01*
X1878126Y5560110D01*
X1875840Y5565241D01*
X1873199Y5570067D01*
X1870303Y5574538D01*
X1867103Y5578652D01*
X1863648Y5582462D01*
X1859889Y5585866D01*
X1855927Y5588914D01*
X1851710Y5591556D01*
X1847240Y5593842D01*
X1842617Y5595670D01*
X1837740Y5597144D01*
X1832660Y5598210D01*
X1827428Y5598871D01*
G37*
G36*
X1621637Y5596534D02*
G01*
X1621637Y5508142D01*
X1621891Y5499608D01*
X1622704Y5491784D01*
X1623974Y5484723D01*
X1625752Y5478272D01*
X1627936Y5472480D01*
X1630578Y5467350D01*
X1633575Y5462828D01*
X1636979Y5458866D01*
X1640687Y5455462D01*
X1644700Y5452567D01*
X1649069Y5450179D01*
X1653641Y5448300D01*
X1658518Y5446928D01*
X1663547Y5445912D01*
X1668780Y5445353D01*
X1674215Y5445150D01*
X1679600Y5445353D01*
X1684832Y5445912D01*
X1689912Y5446928D01*
X1694738Y5448300D01*
X1699310Y5450179D01*
X1703679Y5452567D01*
X1707692Y5455462D01*
X1711452Y5458866D01*
X1714804Y5462828D01*
X1717852Y5467350D01*
X1720443Y5472480D01*
X1722678Y5478272D01*
X1724406Y5484723D01*
X1725726Y5491784D01*
X1726488Y5499608D01*
X1726793Y5508142D01*
X1726793Y5596534D01*
X1710029Y5596534D01*
X1710029Y5507888D01*
X1709674Y5499252D01*
X1708759Y5491632D01*
X1707184Y5484977D01*
X1705152Y5479186D01*
X1702562Y5474258D01*
X1699514Y5470194D01*
X1696110Y5466842D01*
X1692300Y5464200D01*
X1688134Y5462270D01*
X1683715Y5460898D01*
X1679041Y5460136D01*
X1674215Y5459882D01*
X1669288Y5460136D01*
X1664512Y5460898D01*
X1660042Y5462270D01*
X1655775Y5464200D01*
X1651914Y5466842D01*
X1648409Y5470194D01*
X1645259Y5474258D01*
X1642668Y5479186D01*
X1640535Y5484977D01*
X1638960Y5491632D01*
X1637944Y5499252D01*
X1637639Y5507888D01*
X1637639Y5596534D01*
G37*
G36*
X1487017Y5596534D02*
G01*
X1487017Y5582310D01*
X1532483Y5582310D01*
X1532483Y5447690D01*
X1549755Y5447690D01*
X1549755Y5582310D01*
X1594967Y5582310D01*
X1594967Y5596534D01*
G37*
G36*
X1418183Y5573166D02*
G01*
X1418183Y5528716D01*
X1377035Y5528716D01*
X1377035Y5516270D01*
X1418183Y5516270D01*
X1418183Y5471566D01*
X1431899Y5471566D01*
X1431899Y5516270D01*
X1473047Y5516270D01*
X1473047Y5528716D01*
X1431899Y5528716D01*
X1431899Y5573166D01*
G37*
G36*
X1809546Y5230571D02*
G01*
X1804060Y5230368D01*
X1798726Y5229707D01*
X1793646Y5228640D01*
X1788718Y5227167D01*
X1784045Y5225338D01*
X1779574Y5223052D01*
X1775307Y5220411D01*
X1771345Y5217363D01*
X1767586Y5213959D01*
X1764131Y5210149D01*
X1760931Y5206034D01*
X1758035Y5201564D01*
X1755444Y5196738D01*
X1753107Y5191607D01*
X1751177Y5186121D01*
X1749501Y5180330D01*
X1748231Y5174234D01*
X1747316Y5167833D01*
X1746707Y5161127D01*
X1746554Y5154117D01*
X1763826Y5154117D01*
X1764030Y5161076D01*
X1764639Y5167731D01*
X1765655Y5173980D01*
X1767078Y5179872D01*
X1768856Y5185308D01*
X1770989Y5190388D01*
X1773478Y5195062D01*
X1776272Y5199278D01*
X1779422Y5203037D01*
X1782876Y5206390D01*
X1786636Y5209235D01*
X1790700Y5211572D01*
X1795018Y5213400D01*
X1799589Y5214772D01*
X1804466Y5215585D01*
X1809546Y5215839D01*
X1814575Y5215585D01*
X1819351Y5214772D01*
X1823923Y5213400D01*
X1828190Y5211572D01*
X1832203Y5209235D01*
X1835962Y5206390D01*
X1839417Y5203037D01*
X1842566Y5199278D01*
X1845360Y5195062D01*
X1847850Y5190388D01*
X1849983Y5185308D01*
X1851761Y5179872D01*
X1853133Y5173980D01*
X1854149Y5167731D01*
X1854758Y5161076D01*
X1855012Y5154117D01*
X1854758Y5147157D01*
X1854149Y5140502D01*
X1853133Y5134203D01*
X1851761Y5128260D01*
X1849983Y5122672D01*
X1847850Y5117541D01*
X1845360Y5112766D01*
X1842566Y5108498D01*
X1839417Y5104587D01*
X1835962Y5101183D01*
X1832203Y5098288D01*
X1828190Y5095849D01*
X1823923Y5093919D01*
X1819351Y5092547D01*
X1814575Y5091684D01*
X1809546Y5091379D01*
X1804466Y5091684D01*
X1799589Y5092547D01*
X1795018Y5093919D01*
X1790700Y5095849D01*
X1786636Y5098288D01*
X1782876Y5101183D01*
X1779422Y5104587D01*
X1776272Y5108498D01*
X1773478Y5112766D01*
X1770989Y5117541D01*
X1768856Y5122672D01*
X1767078Y5128260D01*
X1765655Y5134203D01*
X1764639Y5140502D01*
X1764030Y5147157D01*
X1763826Y5154117D01*
X1746554Y5154117D01*
X1746707Y5147157D01*
X1747316Y5140401D01*
X1748231Y5134000D01*
X1749501Y5127853D01*
X1751177Y5122011D01*
X1753107Y5116474D01*
X1755444Y5111242D01*
X1758035Y5106365D01*
X1760931Y5101793D01*
X1764131Y5097576D01*
X1767586Y5093716D01*
X1771345Y5090261D01*
X1775307Y5087162D01*
X1779574Y5084419D01*
X1784045Y5082082D01*
X1788718Y5080152D01*
X1793646Y5078628D01*
X1798726Y5077561D01*
X1804060Y5076901D01*
X1809546Y5076647D01*
X1814931Y5076901D01*
X1820164Y5077561D01*
X1825243Y5078628D01*
X1830070Y5080152D01*
X1834743Y5082082D01*
X1839214Y5084419D01*
X1843430Y5087162D01*
X1847392Y5090261D01*
X1851152Y5093716D01*
X1854606Y5097576D01*
X1857806Y5101793D01*
X1860702Y5106365D01*
X1863343Y5111242D01*
X1865630Y5116474D01*
X1867611Y5122011D01*
X1869236Y5127853D01*
X1870557Y5134000D01*
X1871472Y5140401D01*
X1872081Y5147157D01*
X1872284Y5154117D01*
X1872081Y5161127D01*
X1871472Y5167833D01*
X1870557Y5174234D01*
X1869236Y5180330D01*
X1867611Y5186121D01*
X1865630Y5191607D01*
X1863343Y5196738D01*
X1860702Y5201564D01*
X1857806Y5206034D01*
X1854606Y5210149D01*
X1851152Y5213959D01*
X1847392Y5217363D01*
X1843430Y5220411D01*
X1839214Y5223052D01*
X1834743Y5225338D01*
X1830070Y5227167D01*
X1825243Y5228640D01*
X1820164Y5229707D01*
X1814931Y5230368D01*
G37*
G36*
X1609140Y5228031D02*
G01*
X1609140Y5139639D01*
X1609394Y5131104D01*
X1610156Y5123332D01*
X1611477Y5116220D01*
X1613204Y5109768D01*
X1615440Y5103977D01*
X1618030Y5098846D01*
X1621078Y5094325D01*
X1624431Y5090363D01*
X1628190Y5086959D01*
X1632204Y5084064D01*
X1636572Y5081727D01*
X1641144Y5079847D01*
X1646021Y5078425D01*
X1651050Y5077409D01*
X1656283Y5076850D01*
X1661718Y5076647D01*
X1667103Y5076850D01*
X1672336Y5077409D01*
X1677416Y5078425D01*
X1682242Y5079847D01*
X1686814Y5081727D01*
X1691182Y5084064D01*
X1695196Y5086959D01*
X1698955Y5090363D01*
X1702307Y5094325D01*
X1705356Y5098846D01*
X1707946Y5103977D01*
X1710182Y5109768D01*
X1711909Y5116220D01*
X1713230Y5123332D01*
X1713992Y5131104D01*
X1714296Y5139639D01*
X1714296Y5228031D01*
X1697532Y5228031D01*
X1697532Y5139385D01*
X1697177Y5130749D01*
X1696212Y5123129D01*
X1694688Y5116474D01*
X1692605Y5110683D01*
X1690065Y5105806D01*
X1687017Y5101691D01*
X1683613Y5098338D01*
X1679803Y5095697D01*
X1675638Y5093766D01*
X1671218Y5092395D01*
X1666544Y5091633D01*
X1661718Y5091379D01*
X1656740Y5091633D01*
X1652016Y5092395D01*
X1647494Y5093766D01*
X1643278Y5095697D01*
X1639417Y5098338D01*
X1635861Y5101691D01*
X1632762Y5105806D01*
X1630121Y5110683D01*
X1628038Y5116474D01*
X1626412Y5123129D01*
X1625447Y5130749D01*
X1625142Y5139385D01*
X1625142Y5228031D01*
G37*
G36*
X1474520Y5228031D02*
G01*
X1474520Y5213807D01*
X1519986Y5213807D01*
X1519986Y5079187D01*
X1537258Y5079187D01*
X1537258Y5213807D01*
X1582470Y5213807D01*
X1582470Y5228031D01*
G37*
G36*
X1424228Y5142433D02*
G01*
X1424228Y5129479D01*
X1475536Y5129479D01*
X1475536Y5142433D01*
G37*
G36*
X2937002Y5013147D02*
G01*
X2937002Y4864303D01*
X2953766Y4864303D01*
X2953766Y5013147D01*
G37*
G36*
X2790952Y5013147D02*
G01*
X2790952Y4864303D01*
X2808478Y4864303D01*
X2864358Y4960569D01*
X2880614Y4991049D01*
X2881630Y4991049D01*
X2880309Y4968748D01*
X2879648Y4951628D01*
X2879598Y4864303D01*
X2895600Y4864303D01*
X2895600Y5013147D01*
X2878328Y5013147D01*
X2821940Y4916627D01*
X2805938Y4886147D01*
X2804922Y4886147D01*
X2806446Y4909312D01*
X2807004Y4921046D01*
X2807208Y4932629D01*
X2807208Y5013147D01*
G37*
G36*
X3023616Y4989779D02*
G01*
X3023616Y4945329D01*
X2982214Y4945329D01*
X2982214Y4932883D01*
X3023616Y4932883D01*
X3023616Y4888179D01*
X3037078Y4888179D01*
X3037078Y4932883D01*
X3078480Y4932883D01*
X3078480Y4945329D01*
X3037078Y4945329D01*
X3037078Y4989779D01*
G37*
G36*
X2978912Y5418734D02*
G01*
X2978912Y5269890D01*
X2995676Y5269890D01*
X2995676Y5418734D01*
G37*
G36*
X2832862Y5418734D02*
G01*
X2832862Y5269890D01*
X2850388Y5269890D01*
X2906268Y5366156D01*
X2922524Y5396636D01*
X2923540Y5396636D01*
X2922219Y5374335D01*
X2921558Y5357215D01*
X2921508Y5269890D01*
X2937256Y5269890D01*
X2937256Y5418734D01*
X2919984Y5418734D01*
X2863850Y5322214D01*
X2847848Y5291734D01*
X2846832Y5291734D01*
X2848254Y5314899D01*
X2848711Y5326634D01*
X2848864Y5338216D01*
X2848864Y5418734D01*
G37*
G36*
X3025394Y5333136D02*
G01*
X3025394Y5320182D01*
X3076702Y5320182D01*
X3076702Y5333136D01*
G37*
D10*
X2146300Y597915D02*
G01*
X2146300Y488950D01*
X2146300Y597915D02*
G01*
X2099563Y597915D01*
X2084070Y592836D01*
X2078736Y587502D01*
X2073656Y577087D01*
X2073656Y566673D01*
X2078736Y556260D01*
X2084070Y551179D01*
X2099563Y546100D01*
X2146300Y546100D02*
G01*
X2099563Y546100D01*
X2084070Y540765D01*
X2078736Y535686D01*
X2073656Y525271D01*
X2073656Y509523D01*
X2078736Y499110D01*
X2084070Y494029D01*
X2099563Y488950D01*
X2146300Y488950D01*
X1997709Y597915D02*
G01*
X2039365Y488950D01*
X1997709Y597915D02*
G01*
X1956054Y488950D01*
X2023618Y525271D02*
G01*
X1971802Y525271D01*
X1885442Y597915D02*
G01*
X1885442Y488950D01*
X1921763Y597915D02*
G01*
X1849120Y597915D01*
X1768094Y582421D02*
G01*
X1768094Y488950D01*
X1814829Y535686D02*
G01*
X1721357Y535686D01*
X1600200Y597915D02*
G01*
X1600200Y488950D01*
X1600200Y597915D02*
G01*
X1553463Y597915D01*
X1537970Y592836D01*
X1532636Y587502D01*
X1527555Y577087D01*
X1527555Y566673D01*
X1532636Y556260D01*
X1537970Y551179D01*
X1553463Y546100D01*
X1600200Y546100D02*
G01*
X1553463Y546100D01*
X1537970Y540765D01*
X1532636Y535686D01*
X1527555Y525271D01*
X1527555Y509523D01*
X1532636Y499110D01*
X1537970Y494029D01*
X1553463Y488950D01*
X1600200Y488950D01*
X1451610Y597915D02*
G01*
X1493265Y488950D01*
X1451610Y597915D02*
G01*
X1409954Y488950D01*
X1477518Y525271D02*
G01*
X1425702Y525271D01*
X1339342Y597915D02*
G01*
X1339342Y488950D01*
X1375663Y597915D02*
G01*
X1303020Y597915D01*
X1268729Y535686D02*
G01*
X1175257Y535686D01*
X3338322Y572007D02*
G01*
X3343656Y582421D01*
X3354070Y592836D01*
X3364229Y597915D01*
X3385058Y597915D01*
X3395472Y592836D01*
X3405886Y582421D01*
X3411220Y572007D01*
X3416300Y556260D01*
X3416300Y530352D01*
X3411220Y514857D01*
X3405886Y504444D01*
X3395472Y494029D01*
X3385058Y488950D01*
X3364229Y488950D01*
X3354070Y494029D01*
X3343656Y504444D01*
X3338322Y514857D01*
X3304031Y597915D02*
G01*
X3304031Y488950D01*
X3304031Y597915D02*
G01*
X3231388Y488950D01*
X3231388Y597915D02*
G01*
X3231388Y488950D01*
X3197097Y597915D02*
G01*
X3155441Y488950D01*
X3114040Y597915D02*
G01*
X3155441Y488950D01*
X3043174Y597915D02*
G01*
X3043174Y488950D01*
X3079750Y597915D02*
G01*
X3006852Y597915D01*
X2972561Y597915D02*
G01*
X2972561Y488950D01*
X2972561Y597915D02*
G01*
X2925825Y597915D01*
X2910331Y592836D01*
X2904997Y587502D01*
X2899918Y577087D01*
X2899918Y566673D01*
X2904997Y556260D01*
X2910331Y551179D01*
X2925825Y546100D01*
X2972561Y546100D01*
X2936240Y546100D02*
G01*
X2899918Y488950D01*
X2865627Y577087D02*
G01*
X2855213Y582421D01*
X2839720Y597915D01*
X2839720Y488950D01*
X2082291Y3566921D02*
G01*
X2071877Y3572255D01*
X2061463Y3582670D01*
X2056384Y3592829D01*
X2056384Y3613657D01*
X2061463Y3624071D01*
X2071877Y3634486D01*
X2082291Y3639820D01*
X2098040Y3644900D01*
X2123947Y3644900D01*
X2139441Y3639820D01*
X2149856Y3634486D01*
X2160270Y3624071D01*
X2165350Y3613657D01*
X2165350Y3592829D01*
X2160270Y3582670D01*
X2149856Y3572255D01*
X2139441Y3566921D01*
X2056384Y3501389D02*
G01*
X2061463Y3511804D01*
X2071877Y3522218D01*
X2082291Y3527552D01*
X2098040Y3532631D01*
X2123947Y3532631D01*
X2139441Y3527552D01*
X2149856Y3522218D01*
X2160270Y3511804D01*
X2165350Y3501389D01*
X2165350Y3480815D01*
X2160270Y3470402D01*
X2149856Y3459987D01*
X2139441Y3454654D01*
X2123947Y3449573D01*
X2098040Y3449573D01*
X2082291Y3454654D01*
X2071877Y3459987D01*
X2061463Y3470402D01*
X2056384Y3480815D01*
X2056384Y3501389D01*
X2056384Y3415284D02*
G01*
X2165350Y3415284D01*
X2056384Y3415284D02*
G01*
X2165350Y3342639D01*
X2056384Y3342639D02*
G01*
X2165350Y3342639D01*
X2056384Y3308350D02*
G01*
X2165350Y3266694D01*
X2056384Y3225037D02*
G01*
X2165350Y3266694D01*
X2056384Y3190747D02*
G01*
X2134361Y3190747D01*
X2149856Y3185668D01*
X2160270Y3175254D01*
X2165350Y3159760D01*
X2165350Y3149345D01*
X2160270Y3133597D01*
X2149856Y3123184D01*
X2134361Y3118104D01*
X2056384Y3118104D01*
X2077211Y3083813D02*
G01*
X2071877Y3073400D01*
X2056384Y3057905D01*
X2165350Y3057905D01*
D11*
X2604261Y3603497D02*
G01*
X2699765Y3603497D01*
X2604261Y3573526D02*
G01*
X2699765Y3573526D01*
X2604261Y3573526D02*
G01*
X2699765Y3509771D01*
X2604261Y3509771D02*
G01*
X2699765Y3509771D01*
X2604261Y3443478D02*
G01*
X2699765Y3479800D01*
X2604261Y3443478D02*
G01*
X2699765Y3407155D01*
X2667761Y3466337D02*
G01*
X2667761Y3420871D01*
X2626868Y3372612D02*
G01*
X2622295Y3372612D01*
X2613406Y3368039D01*
X2608834Y3363468D01*
X2604261Y3354323D01*
X2604261Y3336289D01*
X2608834Y3327145D01*
X2613406Y3322573D01*
X2622295Y3318002D01*
X2631440Y3318002D01*
X2640584Y3322573D01*
X2654300Y3331718D01*
X2699765Y3377184D01*
X2699765Y3313429D01*
X2626868Y3278886D02*
G01*
X2622295Y3278886D01*
X2613406Y3274313D01*
X2608834Y3269742D01*
X2604261Y3260852D01*
X2604261Y3242563D01*
X2608834Y3233420D01*
X2613406Y3228847D01*
X2622295Y3224529D01*
X2631440Y3224529D01*
X2640584Y3228847D01*
X2654300Y3237992D01*
X2699765Y3283457D01*
X2699765Y3219957D01*
X2617724Y3135376D02*
G01*
X2608834Y3139947D01*
X2604261Y3153410D01*
X2604261Y3162554D01*
X2608834Y3176270D01*
X2622295Y3185413D01*
X2645156Y3189986D01*
X2667761Y3189986D01*
X2686050Y3185413D01*
X2695193Y3176270D01*
X2699765Y3162554D01*
X2699765Y3157981D01*
X2695193Y3144520D01*
X2686050Y3135376D01*
X2672334Y3130804D01*
X2667761Y3130804D01*
X2654300Y3135376D01*
X2645156Y3144520D01*
X2640584Y3157981D01*
X2640584Y3162554D01*
X2645156Y3176270D01*
X2654300Y3185413D01*
X2667761Y3189986D01*
X2955543Y4111497D02*
G01*
X3050793Y4074921D01*
X2955543Y4038345D02*
G01*
X3050793Y4074921D01*
X2978150Y3940047D02*
G01*
X2969006Y3944873D01*
X2960115Y3954271D01*
X2955543Y3963923D01*
X2955543Y3981195D01*
X2960115Y3990847D01*
X2969006Y3998721D01*
X2978150Y4003547D01*
X2991865Y4008373D01*
X3014472Y4008373D01*
X3028188Y4003547D01*
X3037331Y3998721D01*
X3046475Y3990847D01*
X3050793Y3981195D01*
X3050793Y3963923D01*
X3046475Y3954271D01*
X3037331Y3944873D01*
X3028188Y3940047D01*
X2978150Y3841495D02*
G01*
X2969006Y3846321D01*
X2960115Y3855973D01*
X2955543Y3865371D01*
X2955543Y3882897D01*
X2960115Y3892295D01*
X2969006Y3901947D01*
X2978150Y3904995D01*
X2991865Y3909821D01*
X3014472Y3909821D01*
X3028188Y3904995D01*
X3037331Y3901947D01*
X3046475Y3892295D01*
X3050793Y3882897D01*
X3050793Y3865371D01*
X3046475Y3855973D01*
X3037331Y3846321D01*
X3028188Y3841495D01*
X2724150Y4043426D02*
G01*
X2715006Y4047744D01*
X2705861Y4056887D01*
X2701290Y4066031D01*
X2701290Y4084320D01*
X2705861Y4093210D01*
X2715006Y4102354D01*
X2724150Y4106926D01*
X2737611Y4111497D01*
X2760472Y4111497D01*
X2774188Y4106926D01*
X2783077Y4102354D01*
X2792222Y4093210D01*
X2796793Y4084320D01*
X2796793Y4066031D01*
X2792222Y4056887D01*
X2783077Y4047744D01*
X2774188Y4043426D01*
X2760472Y4043426D01*
X2760472Y4066031D02*
G01*
X2760472Y4043426D01*
X2701290Y4013200D02*
G01*
X2796793Y4013200D01*
X2701290Y4013200D02*
G01*
X2796793Y3949700D01*
X2701290Y3949700D02*
G01*
X2796793Y3949700D01*
X2701290Y3919728D02*
G01*
X2796793Y3919728D01*
X2701290Y3919728D02*
G01*
X2701290Y3887978D01*
X2705861Y3874262D01*
X2715006Y3865118D01*
X2724150Y3860545D01*
X2737611Y3855973D01*
X2760472Y3855973D01*
X2774188Y3860545D01*
X2783077Y3865118D01*
X2792222Y3874262D01*
X2796793Y3887978D01*
X2796793Y3919728D01*
X2207006Y4047744D02*
G01*
X2197861Y4056887D01*
X2193290Y4070604D01*
X2193290Y4088892D01*
X2197861Y4102354D01*
X2207006Y4111497D01*
X2216150Y4111497D01*
X2225293Y4106926D01*
X2229611Y4102354D01*
X2234184Y4093210D01*
X2243327Y4066031D01*
X2247900Y4056887D01*
X2252472Y4052315D01*
X2261615Y4047744D01*
X2275077Y4047744D01*
X2284222Y4056887D01*
X2288793Y4070604D01*
X2288793Y4088892D01*
X2284222Y4102354D01*
X2275077Y4111497D01*
X2216150Y3949700D02*
G01*
X2207006Y3954271D01*
X2197861Y3963415D01*
X2193290Y3972305D01*
X2193290Y3990594D01*
X2197861Y3999737D01*
X2207006Y4008881D01*
X2216150Y4013200D01*
X2229611Y4017771D01*
X2252472Y4017771D01*
X2266188Y4013200D01*
X2275077Y4008881D01*
X2284222Y3999737D01*
X2288793Y3990594D01*
X2288793Y3972305D01*
X2284222Y3963415D01*
X2275077Y3954271D01*
X2266188Y3949700D01*
X2193290Y3919728D02*
G01*
X2288793Y3919728D01*
X2288793Y3919728D02*
G01*
X2288793Y3865118D01*
X2461006Y4047744D02*
G01*
X2451861Y4056887D01*
X2447290Y4070604D01*
X2447290Y4088892D01*
X2451861Y4102354D01*
X2461006Y4111497D01*
X2470150Y4111497D01*
X2479293Y4106926D01*
X2483611Y4102354D01*
X2488184Y4093210D01*
X2497327Y4066031D01*
X2501900Y4056887D01*
X2506472Y4052315D01*
X2515615Y4047744D01*
X2529077Y4047744D01*
X2538222Y4056887D01*
X2542793Y4070604D01*
X2542793Y4088892D01*
X2538222Y4102354D01*
X2529077Y4111497D01*
X2447290Y4017771D02*
G01*
X2542793Y4017771D01*
X2447290Y4017771D02*
G01*
X2447290Y3986021D01*
X2451861Y3972305D01*
X2461006Y3963415D01*
X2470150Y3958844D01*
X2483611Y3954271D01*
X2506472Y3954271D01*
X2520188Y3958844D01*
X2529077Y3963415D01*
X2538222Y3972305D01*
X2542793Y3986021D01*
X2542793Y4017771D01*
X2447290Y3887978D02*
G01*
X2542793Y3924300D01*
X2447290Y3887978D02*
G01*
X2542793Y3851402D01*
X2511043Y3910584D02*
G01*
X2511043Y3865118D01*
X1435862Y4111497D02*
G01*
X1531365Y4111497D01*
X1435862Y4081526D02*
G01*
X1531365Y4081526D01*
X1435862Y4081526D02*
G01*
X1531365Y4017771D01*
X1435862Y4017771D02*
G01*
X1531365Y4017771D01*
X1490218Y3987800D02*
G01*
X1490218Y3906012D01*
X1181862Y4111497D02*
G01*
X1277365Y4111497D01*
X1181862Y4081526D02*
G01*
X1277365Y4081526D01*
X1181862Y4081526D02*
G01*
X1277365Y4017771D01*
X1181862Y4017771D02*
G01*
X1277365Y4017771D01*
X1195323Y3946905D02*
G01*
X1277365Y3946905D01*
X1236218Y3987800D02*
G01*
X1236218Y3906012D01*
X1791462Y3120897D02*
G01*
X1886965Y3120897D01*
X1791462Y3090926D02*
G01*
X1886965Y3090926D01*
X1791462Y3090926D02*
G01*
X1886965Y3027171D01*
X1791462Y3027171D02*
G01*
X1886965Y3027171D01*
X1804923Y2956305D02*
G01*
X1886965Y2956305D01*
X1845818Y2997200D02*
G01*
X1845818Y2915412D01*
X2299461Y3120897D02*
G01*
X2394965Y3120897D01*
X2299461Y3090926D02*
G01*
X2394965Y3090926D01*
X2299461Y3090926D02*
G01*
X2394965Y3027171D01*
X2299461Y3027171D02*
G01*
X2394965Y3027171D01*
X2353818Y2997200D02*
G01*
X2353818Y2915412D01*
X1689862Y4111497D02*
G01*
X1785365Y4075176D01*
X1689862Y4038854D02*
G01*
X1785365Y4075176D01*
X1689862Y4008881D02*
G01*
X1785365Y4008881D01*
X1689862Y4008881D02*
G01*
X1689862Y3967987D01*
X1694434Y3954271D01*
X1699005Y3949700D01*
X1707895Y3945128D01*
X1717039Y3945128D01*
X1726184Y3949700D01*
X1730755Y3954271D01*
X1735328Y3967987D01*
X1735328Y4008881D02*
G01*
X1735328Y3967987D01*
X1739900Y3954271D01*
X1744218Y3949700D01*
X1753362Y3945128D01*
X1767078Y3945128D01*
X1776221Y3949700D01*
X1780794Y3954271D01*
X1785365Y3967987D01*
X1785365Y4008881D01*
X1703323Y3851402D02*
G01*
X1694434Y3860545D01*
X1689862Y3874262D01*
X1689862Y3892295D01*
X1694434Y3906012D01*
X1703323Y3915155D01*
X1712468Y3915155D01*
X1721612Y3910584D01*
X1726184Y3906012D01*
X1730755Y3896868D01*
X1739900Y3869689D01*
X1744218Y3860545D01*
X1748789Y3855973D01*
X1757934Y3851402D01*
X1771650Y3851402D01*
X1780794Y3860545D01*
X1785365Y3874262D01*
X1785365Y3892295D01*
X1780794Y3906012D01*
X1771650Y3915155D01*
X1943861Y4075176D02*
G01*
X2039365Y4111497D01*
X1943861Y4075176D02*
G01*
X2039365Y4038854D01*
X2007361Y4097781D02*
G01*
X2007361Y4052315D01*
X1943861Y4008881D02*
G01*
X2039365Y4008881D01*
X2039365Y4008881D02*
G01*
X2039365Y3954271D01*
X1943861Y3924300D02*
G01*
X2039365Y3924300D01*
X1943861Y3924300D02*
G01*
X1943861Y3865118D01*
X1989327Y3924300D02*
G01*
X1989327Y3887978D01*
X2039365Y3924300D02*
G01*
X2039365Y3865118D01*
X1560068Y3687826D02*
G01*
X1550923Y3692144D01*
X1542034Y3701287D01*
X1537462Y3710431D01*
X1537462Y3728720D01*
X1542034Y3737610D01*
X1550923Y3746754D01*
X1560068Y3751326D01*
X1573784Y3755897D01*
X1596389Y3755897D01*
X1610105Y3751326D01*
X1619250Y3746754D01*
X1628394Y3737610D01*
X1632965Y3728720D01*
X1632965Y3710431D01*
X1628394Y3701287D01*
X1619250Y3692144D01*
X1610105Y3687826D01*
X1537462Y3612387D02*
G01*
X1610105Y3612387D01*
X1623821Y3616705D01*
X1628394Y3621278D01*
X1632965Y3630421D01*
X1632965Y3639565D01*
X1628394Y3648710D01*
X1623821Y3653281D01*
X1610105Y3657600D01*
X1600962Y3657600D01*
X1537462Y3582162D02*
G01*
X1632965Y3582162D01*
X1537462Y3582162D02*
G01*
X1632965Y3545839D01*
X1537462Y3509518D02*
G01*
X1632965Y3545839D01*
X1537462Y3509518D02*
G01*
X1632965Y3509518D01*
X1560068Y3411473D02*
G01*
X1550923Y3415792D01*
X1542034Y3424936D01*
X1537462Y3434079D01*
X1537462Y3452368D01*
X1542034Y3461257D01*
X1550923Y3470402D01*
X1560068Y3474973D01*
X1573784Y3479545D01*
X1596389Y3479545D01*
X1610105Y3474973D01*
X1619250Y3470402D01*
X1628394Y3461257D01*
X1632965Y3452368D01*
X1632965Y3434079D01*
X1628394Y3424936D01*
X1619250Y3415792D01*
X1610105Y3411473D01*
X1537462Y3381247D02*
G01*
X1605534Y3381247D01*
X1619250Y3376929D01*
X1628394Y3367786D01*
X1632965Y3354070D01*
X1632965Y3344926D01*
X1628394Y3331463D01*
X1619250Y3322320D01*
X1605534Y3317747D01*
X1537462Y3317747D01*
X1591818Y3287776D02*
G01*
X1591818Y3205987D01*
X1560068Y3171444D02*
G01*
X1555495Y3171444D01*
X1546605Y3166871D01*
X1542034Y3162300D01*
X1537462Y3153155D01*
X1537462Y3134868D01*
X1542034Y3125978D01*
X1546605Y3121405D01*
X1555495Y3116834D01*
X1564639Y3116834D01*
X1573784Y3121405D01*
X1587500Y3130550D01*
X1632965Y3176015D01*
X1632965Y3112262D01*
X1560068Y3077718D02*
G01*
X1555495Y3077718D01*
X1546605Y3073145D01*
X1542034Y3068573D01*
X1537462Y3059429D01*
X1537462Y3041395D01*
X1542034Y3032252D01*
X1546605Y3027679D01*
X1555495Y3023107D01*
X1564639Y3023107D01*
X1573784Y3027679D01*
X1587500Y3036823D01*
X1632965Y3082289D01*
X1632965Y3018536D01*
X1550923Y2934207D02*
G01*
X1542034Y2938526D01*
X1537462Y2952242D01*
X1537462Y2961386D01*
X1542034Y2975102D01*
X1555495Y2983992D01*
X1578355Y2988563D01*
X1600962Y2988563D01*
X1619250Y2983992D01*
X1628394Y2975102D01*
X1632965Y2961386D01*
X1632965Y2956813D01*
X1628394Y2943097D01*
X1619250Y2934207D01*
X1605534Y2929636D01*
X1600962Y2929636D01*
X1587500Y2934207D01*
X1578355Y2943097D01*
X1573784Y2956813D01*
X1573784Y2961386D01*
X1578355Y2975102D01*
X1587500Y2983992D01*
X1600962Y2988563D01*
D10*
X1653539Y7049515D02*
G01*
X1653539Y6940550D01*
X1653539Y7049515D02*
G01*
X1617218Y7049515D01*
X1601470Y7044436D01*
X1591310Y7034021D01*
X1585976Y7023608D01*
X1580895Y7007860D01*
X1580895Y6981952D01*
X1585976Y6966458D01*
X1591310Y6956044D01*
X1601470Y6945629D01*
X1617218Y6940550D01*
X1653539Y6940550D01*
X1546605Y7028687D02*
G01*
X1536192Y7034021D01*
X1520444Y7049515D01*
X1520444Y6940550D01*
X3669284Y13436600D02*
G01*
X3778250Y13436600D01*
X3669284Y13436600D02*
G01*
X3669284Y13369036D01*
X3721100Y13436600D02*
G01*
X3721100Y13394944D01*
X3669284Y13334745D02*
G01*
X3778250Y13334745D01*
X3669284Y13334745D02*
G01*
X3669284Y13288010D01*
X3674363Y13272516D01*
X3679697Y13267181D01*
X3690111Y13262102D01*
X3700525Y13262102D01*
X3710940Y13267181D01*
X3716020Y13272516D01*
X3721100Y13288010D01*
X3721100Y13334745D01*
X3721100Y13298424D02*
G01*
X3778250Y13262102D01*
X3669284Y13196570D02*
G01*
X3674363Y13206984D01*
X3684777Y13217397D01*
X3695191Y13222478D01*
X3710940Y13227812D01*
X3736847Y13227812D01*
X3752341Y13222478D01*
X3762756Y13217397D01*
X3773170Y13206984D01*
X3778250Y13196570D01*
X3778250Y13175742D01*
X3773170Y13165328D01*
X3762756Y13154913D01*
X3752341Y13149834D01*
X3736847Y13144500D01*
X3710940Y13144500D01*
X3695191Y13149834D01*
X3684777Y13154913D01*
X3674363Y13165328D01*
X3669284Y13175742D01*
X3669284Y13196570D01*
X3669284Y13110210D02*
G01*
X3778250Y13110210D01*
X3669284Y13110210D02*
G01*
X3778250Y13037565D01*
X3669284Y13037565D02*
G01*
X3778250Y13037565D01*
X3669284Y12966954D02*
G01*
X3778250Y12966954D01*
X3669284Y13003276D02*
G01*
X3669284Y12930631D01*
X3752341Y12891008D02*
G01*
X3757675Y12896342D01*
X3762756Y12891008D01*
X3757675Y12885928D01*
X3752341Y12891008D01*
X3669284Y12851637D02*
G01*
X3778250Y12851637D01*
X3669284Y12851637D02*
G01*
X3669284Y12784074D01*
X3721100Y12851637D02*
G01*
X3721100Y12809981D01*
X3778250Y12851637D02*
G01*
X3778250Y12784074D01*
X3669284Y12749784D02*
G01*
X3778250Y12677139D01*
X3669284Y12677139D02*
G01*
X3778250Y12749784D01*
X3669284Y12606274D02*
G01*
X3778250Y12606274D01*
X3669284Y12642850D02*
G01*
X3669284Y12569952D01*
X3546856Y8773921D02*
G01*
X3557270Y8784336D01*
X3572763Y8789415D01*
X3593591Y8789415D01*
X3609086Y8784336D01*
X3619500Y8773921D01*
X3619500Y8763508D01*
X3614420Y8753094D01*
X3609086Y8747760D01*
X3598672Y8742679D01*
X3567429Y8732265D01*
X3557270Y8727186D01*
X3551936Y8721852D01*
X3546856Y8711437D01*
X3546856Y8695944D01*
X3557270Y8685529D01*
X3572763Y8680450D01*
X3593591Y8680450D01*
X3609086Y8685529D01*
X3619500Y8695944D01*
X3512565Y8789415D02*
G01*
X3512565Y8680450D01*
X3512565Y8789415D02*
G01*
X3445002Y8789415D01*
X3512565Y8737600D02*
G01*
X3470909Y8737600D01*
X3512565Y8680450D02*
G01*
X3445002Y8680450D01*
X3410711Y8789415D02*
G01*
X3410711Y8680450D01*
X3410711Y8789415D02*
G01*
X3363975Y8789415D01*
X3348227Y8784336D01*
X3343147Y8779002D01*
X3337813Y8768587D01*
X3337813Y8753094D01*
X3343147Y8742679D01*
X3348227Y8737600D01*
X3363975Y8732265D01*
X3410711Y8732265D01*
X2123734Y14584771D02*
G01*
X2123734Y14506793D01*
X2118654Y14491299D01*
X2108240Y14480885D01*
X2092492Y14475805D01*
X2082078Y14475805D01*
X2066584Y14480885D01*
X2056170Y14491299D01*
X2051090Y14506793D01*
X2051090Y14584771D01*
X2016800Y14563943D02*
G01*
X2006386Y14569277D01*
X1990638Y14584771D01*
X1990638Y14475805D01*
D12*
X2444882Y10864385D02*
G01*
X2451740Y10878101D01*
X2465456Y10891817D01*
X2478918Y10898675D01*
X2506350Y10898675D01*
X2519812Y10891817D01*
X2533528Y10878101D01*
X2540386Y10864385D01*
X2547244Y10844065D01*
X2547244Y10810029D01*
X2540386Y10789455D01*
X2533528Y10775739D01*
X2519812Y10762277D01*
X2506350Y10755419D01*
X2478918Y10755419D01*
X2465456Y10762277D01*
X2451740Y10775739D01*
X2444882Y10789455D01*
X2345314Y10898675D02*
G01*
X2399924Y10755419D01*
X2345314Y10898675D02*
G01*
X2290958Y10755419D01*
X2379350Y10803171D02*
G01*
X2311278Y10803171D01*
X2245746Y10898675D02*
G01*
X2245746Y10755419D01*
X2245746Y10898675D02*
G01*
X2191390Y10755419D01*
X2136780Y10898675D02*
G01*
X2191390Y10755419D01*
X2136780Y10898675D02*
G01*
X2136780Y10755419D01*
X2091822Y10898675D02*
G01*
X2091822Y10755419D01*
X2091822Y10898675D02*
G01*
X2003176Y10898675D01*
X2091822Y10830349D02*
G01*
X2037212Y10830349D01*
X2091822Y10755419D02*
G01*
X2003176Y10755419D01*
X1958218Y10898675D02*
G01*
X1958218Y10755419D01*
X1958218Y10898675D02*
G01*
X1896750Y10898675D01*
X1876176Y10891817D01*
X1869572Y10884959D01*
X1862714Y10871243D01*
X1862714Y10857527D01*
X1869572Y10844065D01*
X1876176Y10837207D01*
X1896750Y10830349D01*
X1958218Y10830349D01*
X1910466Y10830349D02*
G01*
X1862714Y10755419D01*
X1763146Y10898675D02*
G01*
X1817756Y10755419D01*
X1763146Y10898675D02*
G01*
X1708536Y10755419D01*
X1797182Y10803171D02*
G01*
X1729110Y10803171D01*
X2527249Y11873463D02*
G01*
X2527249Y11730207D01*
X2527249Y11873463D02*
G01*
X2479497Y11873463D01*
X2459177Y11866605D01*
X2445461Y11852889D01*
X2438603Y11839427D01*
X2431745Y11818853D01*
X2431745Y11784817D01*
X2438603Y11764497D01*
X2445461Y11750781D01*
X2459177Y11737065D01*
X2479497Y11730207D01*
X2527249Y11730207D01*
X2386787Y11873463D02*
G01*
X2386787Y11730207D01*
X2246325Y11852889D02*
G01*
X2260041Y11866605D01*
X2280361Y11873463D01*
X2307793Y11873463D01*
X2328113Y11866605D01*
X2341829Y11852889D01*
X2341829Y11839427D01*
X2334971Y11825711D01*
X2328113Y11818853D01*
X2314651Y11811995D01*
X2273757Y11798533D01*
X2260041Y11791675D01*
X2253183Y11784817D01*
X2246325Y11771101D01*
X2246325Y11750781D01*
X2260041Y11737065D01*
X2280361Y11730207D01*
X2307793Y11730207D01*
X2328113Y11737065D01*
X2341829Y11750781D01*
X2201367Y11873463D02*
G01*
X2201367Y11730207D01*
X2201367Y11873463D02*
G01*
X2140153Y11873463D01*
X2119579Y11866605D01*
X2112721Y11859747D01*
X2105863Y11846285D01*
X2105863Y11825711D01*
X2112721Y11811995D01*
X2119579Y11805391D01*
X2140153Y11798533D01*
X2201367Y11798533D01*
X2060905Y11873463D02*
G01*
X2060905Y11730207D01*
X2060905Y11730207D02*
G01*
X1979117Y11730207D01*
X1879549Y11873463D02*
G01*
X1934159Y11730207D01*
X1879549Y11873463D02*
G01*
X1824939Y11730207D01*
X1913585Y11777959D02*
G01*
X1845513Y11777959D01*
X1779981Y11873463D02*
G01*
X1725371Y11805391D01*
X1725371Y11730207D01*
X1671015Y11873463D02*
G01*
X1725371Y11805391D01*
X2450975Y14057985D02*
G01*
X2450975Y13955623D01*
X2444371Y13935049D01*
X2430655Y13921587D01*
X2410081Y13914729D01*
X2396619Y13914729D01*
X2376045Y13921587D01*
X2362583Y13935049D01*
X2355725Y13955623D01*
X2355725Y14057985D01*
X2215263Y14037411D02*
G01*
X2228725Y14051127D01*
X2249299Y14057985D01*
X2276477Y14057985D01*
X2297051Y14051127D01*
X2310767Y14037411D01*
X2310767Y14023695D01*
X2303909Y14010233D01*
X2297051Y14003375D01*
X2283335Y13996517D01*
X2242441Y13982801D01*
X2228725Y13975943D01*
X2222121Y13969339D01*
X2215263Y13955623D01*
X2215263Y13935049D01*
X2228725Y13921587D01*
X2249299Y13914729D01*
X2276477Y13914729D01*
X2297051Y13921587D01*
X2310767Y13935049D01*
X2170305Y14057985D02*
G01*
X2170305Y13914729D01*
X2170305Y14057985D02*
G01*
X2108837Y14057985D01*
X2088263Y14051127D01*
X2081659Y14044269D01*
X2074801Y14030553D01*
X2074801Y14016837D01*
X2081659Y14003375D01*
X2088263Y13996517D01*
X2108837Y13989659D01*
X2170305Y13989659D02*
G01*
X2108837Y13989659D01*
X2088263Y13982801D01*
X2081659Y13975943D01*
X2074801Y13962481D01*
X2074801Y13941907D01*
X2081659Y13928191D01*
X2088263Y13921587D01*
X2108837Y13914729D01*
X2170305Y13914729D01*
X2029843Y13975943D02*
G01*
X1906907Y13975943D01*
X1759841Y14023695D02*
G01*
X1766445Y14037411D01*
X1780161Y14051127D01*
X1793877Y14057985D01*
X1821055Y14057985D01*
X1834771Y14051127D01*
X1848487Y14037411D01*
X1855091Y14023695D01*
X1861949Y14003375D01*
X1861949Y13969339D01*
X1855091Y13948765D01*
X1848487Y13935049D01*
X1834771Y13921587D01*
X1821055Y13914729D01*
X1793877Y13914729D01*
X1780161Y13921587D01*
X1766445Y13935049D01*
X1759841Y13948765D01*
X2654424Y8279381D02*
G01*
X2654424Y8136125D01*
X2654424Y8279381D02*
G01*
X2565778Y8279381D01*
X2654424Y8211055D02*
G01*
X2599814Y8211055D01*
X2654424Y8136125D02*
G01*
X2565778Y8136125D01*
X2425316Y8258807D02*
G01*
X2438778Y8272523D01*
X2459352Y8279381D01*
X2486530Y8279381D01*
X2507104Y8272523D01*
X2520566Y8258807D01*
X2520566Y8245345D01*
X2513962Y8231629D01*
X2507104Y8224771D01*
X2493388Y8217913D01*
X2452494Y8204451D01*
X2438778Y8197593D01*
X2431920Y8190735D01*
X2425316Y8177019D01*
X2425316Y8156699D01*
X2438778Y8142983D01*
X2459352Y8136125D01*
X2486530Y8136125D01*
X2507104Y8142983D01*
X2520566Y8156699D01*
X2380104Y8279381D02*
G01*
X2380104Y8136125D01*
X2380104Y8279381D02*
G01*
X2318890Y8279381D01*
X2298316Y8272523D01*
X2291458Y8265665D01*
X2284854Y8252203D01*
X2284854Y8231629D01*
X2291458Y8217913D01*
X2298316Y8211055D01*
X2318890Y8204451D01*
X2380104Y8204451D01*
X2226180Y8279381D02*
G01*
X2150996Y8279381D01*
X2192144Y8224771D01*
X2171570Y8224771D01*
X2157854Y8217913D01*
X2150996Y8211055D01*
X2144392Y8190735D01*
X2144392Y8177019D01*
X2150996Y8156699D01*
X2164712Y8142983D01*
X2185286Y8136125D01*
X2205606Y8136125D01*
X2226180Y8142983D01*
X2233038Y8149841D01*
X2239642Y8163557D01*
X2092576Y8245345D02*
G01*
X2092576Y8252203D01*
X2085718Y8265665D01*
X2078860Y8272523D01*
X2065144Y8279381D01*
X2037966Y8279381D01*
X2024250Y8272523D01*
X2017392Y8265665D01*
X2010788Y8252203D01*
X2010788Y8238487D01*
X2017392Y8224771D01*
X2031108Y8204451D01*
X2099180Y8136125D01*
X2003930Y8136125D01*
X1958972Y8197593D02*
G01*
X1836036Y8197593D01*
X1791078Y8279381D02*
G01*
X1791078Y8136125D01*
X1791078Y8279381D02*
G01*
X1729864Y8279381D01*
X1709290Y8272523D01*
X1702432Y8265665D01*
X1695574Y8252203D01*
X1695574Y8231629D01*
X1702432Y8217913D01*
X1709290Y8211055D01*
X1729864Y8204451D01*
X1791078Y8204451D01*
X1582544Y8279381D02*
G01*
X1650616Y8183877D01*
X1548508Y8183877D01*
X1582544Y8279381D02*
G01*
X1582544Y8136125D01*
D10*
X2286000Y5373115D02*
G01*
X2286000Y5295137D01*
X2280920Y5279644D01*
X2270506Y5269229D01*
X2254758Y5264150D01*
X2244343Y5264150D01*
X2228850Y5269229D01*
X2218436Y5279644D01*
X2213356Y5295137D01*
X2213356Y5373115D01*
X2168652Y5373115D02*
G01*
X2111502Y5373115D01*
X2142490Y5331460D01*
X2126995Y5331460D01*
X2116581Y5326379D01*
X2111502Y5321300D01*
X2106168Y5305552D01*
X2106168Y5295137D01*
X2111502Y5279644D01*
X2121915Y5269229D01*
X2137409Y5264150D01*
X2152904Y5264150D01*
X2168652Y5269229D01*
X2173731Y5274310D01*
X2179065Y5284723D01*
X3924300Y13856716D02*
G01*
X3924300Y13778737D01*
X3919220Y13763244D01*
X3908806Y13752829D01*
X3893058Y13747750D01*
X3882643Y13747750D01*
X3867150Y13752829D01*
X3856736Y13763244D01*
X3851656Y13778737D01*
X3851656Y13856716D01*
X3744468Y13841221D02*
G01*
X3754881Y13851636D01*
X3770629Y13856716D01*
X3791204Y13856716D01*
X3806952Y13851636D01*
X3817365Y13841221D01*
X3817365Y13830807D01*
X3812031Y13820394D01*
X3806952Y13815060D01*
X3796538Y13809979D01*
X3765295Y13799566D01*
X3754881Y13794486D01*
X3749802Y13789152D01*
X3744468Y13778737D01*
X3744468Y13763244D01*
X3754881Y13752829D01*
X3770629Y13747750D01*
X3791204Y13747750D01*
X3806952Y13752829D01*
X3817365Y13763244D01*
X3710177Y13856716D02*
G01*
X3710177Y13747750D01*
X3710177Y13856716D02*
G01*
X3663441Y13856716D01*
X3647947Y13851636D01*
X3642613Y13846302D01*
X3637534Y13835887D01*
X3637534Y13825474D01*
X3642613Y13815060D01*
X3647947Y13809979D01*
X3663441Y13804900D01*
X3710177Y13804900D02*
G01*
X3663441Y13804900D01*
X3647947Y13799566D01*
X3642613Y13794486D01*
X3637534Y13784071D01*
X3637534Y13768324D01*
X3642613Y13757910D01*
X3647947Y13752829D01*
X3663441Y13747750D01*
X3710177Y13747750D01*
X3603243Y13711174D02*
G01*
X3509772Y13711174D01*
X3444240Y13856716D02*
G01*
X3454654Y13851636D01*
X3465068Y13841221D01*
X3470147Y13830807D01*
X3475481Y13815060D01*
X3475481Y13789152D01*
X3470147Y13773657D01*
X3465068Y13763244D01*
X3454654Y13752829D01*
X3444240Y13747750D01*
X3423411Y13747750D01*
X3412997Y13752829D01*
X3402584Y13763244D01*
X3397504Y13773657D01*
X3392170Y13789152D01*
X3392170Y13815060D01*
X3397504Y13830807D01*
X3402584Y13841221D01*
X3412997Y13851636D01*
X3423411Y13856716D01*
X3444240Y13856716D01*
X3357879Y13856716D02*
G01*
X3357879Y13778737D01*
X3352800Y13763244D01*
X3342386Y13752829D01*
X3326891Y13747750D01*
X3316477Y13747750D01*
X3300729Y13752829D01*
X3290570Y13763244D01*
X3285236Y13778737D01*
X3285236Y13856716D01*
X3214624Y13856716D02*
G01*
X3214624Y13747750D01*
X3250945Y13856716D02*
G01*
X3178302Y13856716D01*
D11*
X1739900Y165100D02*
G01*
X1993900Y165100D01*
X1993900Y419100D01*
X1739900Y419100D01*
X1739900Y228600D01*
D13*
X1739900Y165100D02*
G01*
X1739900Y228600D01*
D11*
X1270000Y165100D02*
G01*
X1524000Y165100D01*
X1524000Y419100D01*
X1270000Y419100D01*
X1270000Y228600D01*
D13*
X1270000Y165100D02*
G01*
X1270000Y228600D01*
D11*
X3263900Y457200D02*
G01*
X3009900Y457200D01*
X3009900Y205739D01*
X3771900Y205739D01*
X3771900Y457200D01*
X3263900Y457200D01*
D14*
X1054100Y2384297D02*
G01*
X3154095Y2384297D01*
X3162300Y2384297D02*
G01*
X3162300Y4384294D01*
X1054100Y4390897D02*
G01*
X1054100Y2390902D01*
X3162300Y4390897D02*
G01*
X1062304Y4390897D01*
D15*
X1701037Y6756400D02*
G01*
X1574037Y6756400D01*
X1675637Y6756400D02*
G01*
X1675637Y6718300D01*
X1675637Y6718300D02*
G01*
X1599437Y6756400D01*
X1599437Y6756400D02*
G01*
X1599437Y6718300D01*
X1675637Y6756400D02*
G01*
X1675637Y6794500D01*
X1675637Y6794500D02*
G01*
X1599437Y6756400D01*
X1599437Y6756400D02*
G01*
X1599437Y6794500D01*
D14*
X1933498Y6891705D02*
G01*
X1333500Y6891705D01*
X1333500Y6591706D01*
X1933498Y6591706D01*
X1933498Y6891705D01*
X1412595Y6891705D02*
G01*
X1338783Y6891705D01*
X1338783Y6591706D01*
X1412595Y6591706D01*
X1412595Y6891705D01*
D11*
X3860800Y13563600D02*
G01*
X3860800Y13754100D01*
X4114800Y13754100D01*
X4114800Y12484100D01*
X3860800Y12484100D01*
D13*
X3860800Y12484100D02*
G01*
X3860800Y13563600D01*
D11*
X3683000Y8851900D02*
G01*
X3683000Y8600439D01*
X4191000Y8600439D01*
X4191000Y8851900D01*
X3683000Y8851900D01*
D14*
X3170900Y14231508D02*
G01*
X1070904Y14231508D01*
X1070904Y7126518D01*
X3170900Y7126518D01*
X3170900Y14231508D01*
X2542885Y14425589D02*
G01*
X1680479Y14425589D01*
X1680479Y13625489D01*
X2542885Y13625489D01*
X2542885Y14425589D01*
X2761884Y8807008D02*
G01*
X1486880Y8807008D01*
X1486880Y7659512D01*
X2761884Y7659512D01*
X2761884Y8807008D01*
X2832089Y7658089D02*
G01*
X1409689Y7658089D01*
X1409689Y7148083D01*
X2832089Y7148083D01*
X2832089Y7658089D01*
X2616189Y10020289D02*
G01*
X1625589Y10020289D01*
X1625589Y9791689D01*
X2616189Y9791689D01*
X2616189Y10020289D01*
X2616189Y10020289D02*
G01*
X2387589Y10020289D01*
X2387589Y9791689D01*
X2616189Y9791689D01*
X2616189Y10020289D01*
X2761884Y10719501D02*
G01*
X1486880Y10719501D01*
X1486880Y10591993D01*
X2761884Y10591993D01*
X2761884Y10719501D01*
X2761884Y12058258D02*
G01*
X1486880Y12058258D01*
X1486880Y11930750D01*
X2761884Y11930750D01*
X2761884Y12058258D01*
X2634401Y13046369D02*
G01*
X2124395Y13046369D01*
X2124395Y12727625D01*
X2634401Y12727625D01*
X2634401Y13046369D01*
X1996912Y13046369D02*
G01*
X1486905Y13046369D01*
X1486905Y12727625D01*
X1996912Y12727625D01*
X1996912Y13046369D01*
X2506893Y11612006D02*
G01*
X1741896Y11612006D01*
X1741896Y11101999D01*
X2506893Y11101999D01*
X2506893Y11612006D01*
X3474897Y5883986D02*
G01*
X1274902Y5883986D01*
X1274902Y4783988D01*
X3474897Y4783988D01*
X3474897Y5883986D01*
D13*
X3479800Y14147800D02*
G01*
X3797300Y14147800D01*
D11*
X3479800Y14147800D02*
G01*
X3479800Y13893800D01*
X3987800Y13893800D01*
X3987800Y14147800D01*
X3797300Y14147800D01*
D14*
G75*
G01
X2479396Y12887020D02*
G03X2479396Y12887020I-100000J0D01*
G75*
G01
X1841906Y12887020D02*
G03X1841906Y12887020I-100000J0D01*
M02*
