G04 Layer: BottomSolderMaskLayer*
G04 EasyEDA v6.5.57, 2026-09-05 19:11:18*
G04 eb698d3fd55c42babd26508227ba8a7e,8bd660a998cf4db6934d2697710aec2e,10*
G04 Gerber Generator version 0.2*
G04 Scale: 100 percent, Rotated: No, Reflected: No *
G04 Dimensions in millimeters *
G04 leading zeros omitted , absolute positions ,4 integer and 5 decimal *
%FSLAX45Y45*%
%MOMM*%

%AMMACRO1*4,1,8,-0.8085,-0.8382,-0.8382,-0.8082,-0.8382,0.8085,-0.8085,0.8382,0.8082,0.8382,0.8382,0.8085,0.8382,-0.8082,0.8082,-0.8382,-0.8085,-0.8382,0*%
%AMMACRO2*4,1,8,-0.7831,-0.8128,-0.8128,-0.7828,-0.8128,0.7831,-0.7831,0.8128,0.7828,0.8128,0.8128,0.7831,0.8128,-0.7828,0.7828,-0.8128,-0.7831,-0.8128,0*%
%AMMACRO3*4,1,8,-0.871,-0.8382,-0.9007,-0.8082,-0.9007,0.8085,-0.871,0.8382,0.8707,0.8382,0.9007,0.8085,0.9007,-0.8082,0.8707,-0.8382,-0.871,-0.8382,0*%
%AMMACRO4*4,1,8,-0.9101,-1.1938,-0.9398,-1.1638,-0.9398,1.1641,-0.9101,1.1938,0.9098,1.1938,0.9398,1.1641,0.9398,-1.1638,0.9098,-1.1938,-0.9101,-1.1938,0*%
%ADD10MACRO1*%
%ADD11C,1.6764*%
%ADD12C,1.9812*%
%ADD13C,4.2032*%
%ADD14C,1.6256*%
%ADD15MACRO2*%
%ADD16C,0.0128*%
%ADD17O,2.7432X1.7272*%
%ADD18MACRO3*%
%ADD19C,1.8016*%
%ADD20C,1.7016*%
%ADD21MACRO4*%

%LPD*%
D10*
G01*
X1866900Y292100D03*
G01*
X1397000Y292100D03*
G01*
X3644900Y330200D03*
D11*
G01*
X3390900Y330200D03*
G01*
X3136900Y330200D03*
D12*
G01*
X2501900Y4238497D03*
G01*
X2247900Y4238497D03*
G01*
X1993900Y4238497D03*
G01*
X1739900Y4238497D03*
D13*
G01*
X2349500Y2663697D03*
G01*
X1841500Y2663697D03*
D12*
G01*
X3009900Y4238497D03*
G01*
X2755900Y4238497D03*
G01*
X1485900Y4238497D03*
G01*
X1231900Y4238497D03*
D13*
G01*
X1333500Y2663697D03*
G01*
X2857500Y2663697D03*
D14*
G01*
X2146300Y6756400D03*
G01*
X1130300Y6756400D03*
D11*
G01*
X3987800Y12611100D03*
G01*
X3987800Y12865100D03*
G01*
X3987800Y13119100D03*
G01*
X3987800Y13373100D03*
D10*
G01*
X3987800Y13627100D03*
G01*
X4064000Y8724900D03*
D11*
G01*
X3810000Y8724900D03*
D15*
G01*
X1231900Y13271500D03*
G01*
X1231900Y12001500D03*
G01*
X1231900Y10731500D03*
G01*
X1231900Y9461500D03*
G01*
X3009900Y9461500D03*
G01*
X3009900Y10731500D03*
G01*
X3009900Y12001500D03*
G01*
X3009900Y13271500D03*
D14*
G01*
X1231900Y13779500D03*
G01*
X1231900Y13525500D03*
G01*
X1231900Y13017500D03*
G01*
X1231900Y12763500D03*
G01*
X1231900Y12509500D03*
G01*
X1231900Y12255500D03*
G01*
X1231900Y11747525D03*
G01*
X1231900Y11493525D03*
G01*
X1231900Y11239525D03*
G01*
X1231900Y10985525D03*
G01*
X1231900Y10477525D03*
G01*
X1231900Y10223525D03*
G01*
X1231900Y9969525D03*
G01*
X1231900Y9715525D03*
G01*
X1231900Y9207525D03*
G01*
X1231900Y8953525D03*
G01*
X3009900Y8953525D03*
G01*
X3009900Y9207525D03*
G01*
X3009900Y9715525D03*
G01*
X3009900Y9969525D03*
G01*
X3009900Y10223525D03*
G01*
X3009900Y10477525D03*
G01*
X3009900Y10985525D03*
G01*
X3009900Y11239525D03*
G01*
X3009900Y11493525D03*
G01*
X3009900Y11747525D03*
G01*
X3009900Y12255500D03*
G01*
X3009900Y12509500D03*
G01*
X3009900Y12763500D03*
G01*
X3009900Y13017500D03*
G01*
X3009900Y13525500D03*
G01*
X3009900Y13779500D03*
G01*
X1739900Y9906000D03*
G01*
X1994915Y9906000D03*
G01*
X2504897Y9906000D03*
D15*
G01*
X2249906Y9906000D03*
D17*
G01*
X3274898Y4934000D03*
G01*
X3274898Y5334000D03*
G01*
X1474901Y4934000D03*
G01*
X1474901Y5733999D03*
D18*
G01*
X3860800Y14020800D03*
D19*
G01*
X3606800Y14020800D03*
D10*
G01*
X1739900Y9385300D03*
D11*
G01*
X1993900Y9385300D03*
G01*
X2247900Y9385300D03*
G01*
X2501900Y9385300D03*
D10*
G01*
X3543300Y9283700D03*
D11*
G01*
X3797300Y9283700D03*
G01*
X4051300Y9283700D03*
G01*
X4305300Y9283700D03*
D20*
G01*
X3870706Y3124200D03*
G01*
X3520693Y3124200D03*
D19*
G01*
X3433013Y1981200D03*
G01*
X3933012Y1981200D03*
D10*
G01*
X1333500Y1346200D03*
D11*
G01*
X1587500Y1346200D03*
G01*
X1841500Y1346200D03*
D10*
G01*
X3403600Y1346200D03*
D11*
G01*
X3657600Y1346200D03*
G01*
X3911600Y1346200D03*
D10*
G01*
X2413000Y1346200D03*
D11*
G01*
X2667000Y1346200D03*
G01*
X2921000Y1346200D03*
D14*
G01*
X3657600Y10134600D03*
G01*
X3657600Y10388600D03*
G01*
X3657600Y10642600D03*
G01*
X3657600Y10896600D03*
G01*
X3657600Y11150600D03*
G01*
X3657600Y11404600D03*
G01*
X3657600Y11658600D03*
G01*
X3657600Y11912600D03*
G01*
X3657600Y12166600D03*
G01*
X2387600Y10642600D03*
G01*
X2387600Y10896600D03*
G01*
X2387600Y11150600D03*
G01*
X2387600Y11404600D03*
G01*
X2387600Y11658600D03*
D21*
G01*
X2768600Y12776200D03*
G01*
X2514600Y12776200D03*
G01*
X2260600Y12776200D03*
G01*
X2006600Y12776200D03*
G01*
X1752600Y12776200D03*
M02*
