solid Mesh
  facet normal 0.178148 0 0.984004
    outer loop
      vertex 23.2947 -26 60
      vertex 23.2947 -28 60
      vertex 189 -26 30
    endloop
  endfacet
  facet normal 0.178148 0 0.984004
    outer loop
      vertex 23.2947 -28 60
      vertex 189 -28 30
      vertex 189 -26 30
    endloop
  endfacet
  facet normal 0 0 -1
    outer loop
      vertex -20 -28 33.5
      vertex -29.7951 -28 33.5
      vertex -20 -26 33.5
    endloop
  endfacet
  facet normal 0 0 -1
    outer loop
      vertex -29.7951 -28 33.5
      vertex -29.7951 -26 33.5
      vertex -20 -26 33.5
    endloop
  endfacet
  facet normal 0 -1 0
    outer loop
      vertex -29.2718 -28 36.5697
      vertex -29.7951 -28 33.5
      vertex -20 -28 33.5
    endloop
  endfacet
  facet normal 0 -1 0
    outer loop
      vertex -24.1313 -28 47.8236
      vertex -25.8489 -28 45.2261
      vertex -20 -28 33.5
    endloop
  endfacet
  facet normal 0 -1 0
    outer loop
      vertex 80.4689 -28 3.28629
      vertex 80.2897 -28 3.40781
      vertex 0 -28 -1.22337e-14
    endloop
  endfacet
  facet normal 0 -1 0
    outer loop
      vertex -28.4331 -28 20.4313
      vertex -20 -28 26.5
      vertex -29.2718 -28 23.4303
    endloop
  endfacet
  facet normal 0 -1 0
    outer loop
      vertex -20 -28 26.5
      vertex -29.7951 -28 26.5
      vertex -29.2718 -28 23.4303
    endloop
  endfacet
  facet normal 0 -1 0
    outer loop
      vertex -28.4331 -28 20.4313
      vertex -27.288 -28 17.5355
      vertex -20 -28 26.5
    endloop
  endfacet
  facet normal 0 -1 0
    outer loop
      vertex -27.288 -28 17.5355
      vertex -25.8489 -28 14.7739
      vertex -20 -28 26.5
    endloop
  endfacet
  facet normal 0 -1 0
    outer loop
      vertex -20 -28 26.5
      vertex -25.8489 -28 14.7739
      vertex -24.1313 -28 12.1764
    endloop
  endfacet
  facet normal 0 -1 0
    outer loop
      vertex -24.1313 -28 12.1764
      vertex -22.1537 -28 9.77098
      vertex -20 -28 26.5
    endloop
  endfacet
  facet normal 0 -1 0
    outer loop
      vertex -22.1537 -28 9.77098
      vertex -19.9374 -28 7.58349
      vertex -20 -28 26.5
    endloop
  endfacet
  facet normal 0 -1 0
    outer loop
      vertex -20 -28 26.5
      vertex -19.9374 -28 7.58349
      vertex -17.5063 -28 5.63753
    endloop
  endfacet
  facet normal 0 -1 0
    outer loop
      vertex -25.8489 -28 45.2261
      vertex -27.288 -28 42.4645
      vertex -20 -28 33.5
    endloop
  endfacet
  facet normal 0 -1 0
    outer loop
      vertex -27.288 -28 42.4645
      vertex -28.4331 -28 39.5687
      vertex -20 -28 33.5
    endloop
  endfacet
  facet normal 0 -1 0
    outer loop
      vertex -20 -28 33.5
      vertex -28.4331 -28 39.5687
      vertex -29.2718 -28 36.5697
    endloop
  endfacet
  facet normal 0 -1 0
    outer loop
      vertex 79.5263 -28 4.67644
      vertex 79.5029 -28 4.89172
      vertex 0.878079 -28 32.606
    endloop
  endfacet
  facet normal 0 -1 0
    outer loop
      vertex 83.267 -28 5.93682
      vertex 83.358 -28 5.74028
      vertex 189 -28 30
    endloop
  endfacet
  facet normal 0 -1 0
    outer loop
      vertex -17.5063 -28 5.63753
      vertex -14.8865 -28 3.95406
      vertex -20 -28 26.5
    endloop
  endfacet
  facet normal 0 -1 0
    outer loop
      vertex -14.8865 -28 3.95406
      vertex -12.1064 -28 2.55122
      vertex -20 -28 26.5
    endloop
  endfacet
  facet normal 0 -1 0
    outer loop
      vertex -20 -28 26.5
      vertex -12.1064 -28 2.55122
      vertex -9.19581 -28 1.44414
    endloop
  endfacet
  facet normal 0 -1 0
    outer loop
      vertex -9.19581 -28 1.44414
      vertex -6.18614 -28 0.644734
      vertex -20 -28 26.5
    endloop
  endfacet
  facet normal 0 -1 0
    outer loop
      vertex -6.18614 -28 0.644734
      vertex -3.10982 -28 0.161619
      vertex -20 -28 26.5
    endloop
  endfacet
  facet normal 0 -1 0
    outer loop
      vertex -20 -28 26.5
      vertex -3.10982 -28 0.161619
      vertex 0 -28 -1.22337e-14
    endloop
  endfacet
  facet normal 0 -1 0
    outer loop
      vertex -3.67394e-15 -28 60
      vertex -3.10982 -28 59.8384
      vertex -20 -28 33.5
    endloop
  endfacet
  facet normal 0 -1 0
    outer loop
      vertex -3.10982 -28 59.8384
      vertex -6.18614 -28 59.3553
      vertex -20 -28 33.5
    endloop
  endfacet
  facet normal 0 -1 0
    outer loop
      vertex -20 -28 33.5
      vertex -6.18614 -28 59.3553
      vertex -9.19581 -28 58.5559
    endloop
  endfacet
  facet normal 0 -1 0
    outer loop
      vertex 80.2897 -28 3.40781
      vertex 80.1246 -28 3.54801
      vertex 0 -28 -1.22337e-14
    endloop
  endfacet
  facet normal 0 -1 0
    outer loop
      vertex 80.1246 -28 3.54801
      vertex 79.9757 -28 3.70523
      vertex 0 -28 -1.22337e-14
    endloop
  endfacet
  facet normal 0 -1 0
    outer loop
      vertex 0 -28 -1.22337e-14
      vertex 79.9757 -28 3.70523
      vertex 79.8446 -28 3.87763
    endloop
  endfacet
  facet normal 0 -1 0
    outer loop
      vertex 1.1547 -28 32.4958
      vertex 1.41777 -28 32.3564
      vertex 79.642 -28 4.25972
    endloop
  endfacet
  facet normal 0 -1 0
    outer loop
      vertex 2.09595 -28 31.7803
      vertex 2.27614 -28 31.5433
      vertex 79.642 -28 4.25972
    endloop
  endfacet
  facet normal 0 -1 0
    outer loop
      vertex 2.27614 -28 31.5433
      vertex 2.42966 -28 31.2881
      vertex 79.642 -28 4.25972
    endloop
  endfacet
  facet normal 0 -1 0
    outer loop
      vertex 83.4971 -28 5.10828
      vertex 83.4971 -28 4.89172
      vertex 189 -28 -3.46945e-14
    endloop
  endfacet
  facet normal 0 -1 0
    outer loop
      vertex 83.1554 -28 3.87763
      vertex 189 -28 -3.46945e-14
      vertex 83.267 -28 4.06318
    endloop
  endfacet
  facet normal 0 -1 0
    outer loop
      vertex 189 -28 -3.46945e-14
      vertex 83.358 -28 4.25972
      vertex 83.267 -28 4.06318
    endloop
  endfacet
  facet normal 0 -1 0
    outer loop
      vertex 82.1386 -28 3.10469
      vertex 81.9299 -28 3.04676
      vertex 189 -28 -3.46945e-14
    endloop
  endfacet
  facet normal 0 -1 0
    outer loop
      vertex -9.19581 -28 58.5559
      vertex -12.1064 -28 57.4488
      vertex -20 -28 33.5
    endloop
  endfacet
  facet normal 0 -1 0
    outer loop
      vertex -12.1064 -28 57.4488
      vertex -14.8865 -28 56.0459
      vertex -20 -28 33.5
    endloop
  endfacet
  facet normal 0 -1 0
    outer loop
      vertex -20 -28 33.5
      vertex -14.8865 -28 56.0459
      vertex -17.5063 -28 54.3625
    endloop
  endfacet
  facet normal 0 -1 0
    outer loop
      vertex 81.0701 -28 3.04676
      vertex 80.8614 -28 3.10469
      vertex 0 -28 -1.22337e-14
    endloop
  endfacet
  facet normal 0 -1 0
    outer loop
      vertex 80.8614 -28 3.10469
      vertex 80.6602 -28 3.18485
      vertex 0 -28 -1.22337e-14
    endloop
  endfacet
  facet normal 0 -1 0
    outer loop
      vertex 0 -28 -1.22337e-14
      vertex 80.6602 -28 3.18485
      vertex 80.4689 -28 3.28629
    endloop
  endfacet
  facet normal 0 -1 0
    outer loop
      vertex 2.42966 -28 31.2881
      vertex 2.55469 -28 31.0179
      vertex 79.642 -28 4.25972
    endloop
  endfacet
  facet normal 0 -1 0
    outer loop
      vertex 2.55469 -28 31.0179
      vertex 2.64976 -28 30.7357
      vertex 79.642 -28 4.25972
    endloop
  endfacet
  facet normal 0 -1 0
    outer loop
      vertex 79.642 -28 4.25972
      vertex 2.64976 -28 30.7357
      vertex 2.71377 -28 30.4449
    endloop
  endfacet
  facet normal 0 -1 0
    outer loop
      vertex 1.1547 -28 32.4958
      vertex 79.642 -28 4.25972
      vertex 0.878079 -28 32.606
    endloop
  endfacet
  facet normal 0 -1 0
    outer loop
      vertex 79.642 -28 4.25972
      vertex 79.5729 -28 4.46494
      vertex 0.878079 -28 32.606
    endloop
  endfacet
  facet normal 0 -1 0
    outer loop
      vertex 0.878079 -28 32.606
      vertex 79.5729 -28 4.46494
      vertex 79.5263 -28 4.67644
    endloop
  endfacet
  facet normal 0 -1 0
    outer loop
      vertex 83.4971 -28 5.10828
      vertex 189 -28 -3.46945e-14
      vertex 83.4737 -28 5.32356
    endloop
  endfacet
  facet normal 0 -1 0
    outer loop
      vertex 83.1554 -28 3.87763
      vertex 83.0243 -28 3.70523
      vertex 189 -28 -3.46945e-14
    endloop
  endfacet
  facet normal 0 -1 0
    outer loop
      vertex 83.0243 -28 3.70523
      vertex 82.8754 -28 3.54801
      vertex 189 -28 -3.46945e-14
    endloop
  endfacet
  facet normal 0 -1 0
    outer loop
      vertex 189 -28 -3.46945e-14
      vertex 82.8754 -28 3.54801
      vertex 82.7103 -28 3.40781
    endloop
  endfacet
  facet normal 0 -1 0
    outer loop
      vertex -17.5063 -28 54.3625
      vertex -19.9374 -28 52.4165
      vertex -20 -28 33.5
    endloop
  endfacet
  facet normal 0 -1 0
    outer loop
      vertex -19.9374 -28 52.4165
      vertex -22.1537 -28 50.229
      vertex -20 -28 33.5
    endloop
  endfacet
  facet normal 0 -1 0
    outer loop
      vertex -20 -28 33.5
      vertex -22.1537 -28 50.229
      vertex -24.1313 -28 47.8236
    endloop
  endfacet
  facet normal 0 -1 0
    outer loop
      vertex 2.64976 -28 29.2643
      vertex 2.55469 -28 28.9821
      vertex 79.8446 -28 3.87763
    endloop
  endfacet
  facet normal 0 -1 0
    outer loop
      vertex 2.55469 -28 28.9821
      vertex 2.42966 -28 28.7119
      vertex 79.8446 -28 3.87763
    endloop
  endfacet
  facet normal 0 -1 0
    outer loop
      vertex 79.5029 -28 4.89172
      vertex 79.5029 -28 5.10828
      vertex 0.878079 -28 32.606
    endloop
  endfacet
  facet normal 0 -1 0
    outer loop
      vertex 79.5029 -28 5.10828
      vertex 79.5263 -28 5.32356
      vertex 0.878079 -28 32.606
    endloop
  endfacet
  facet normal 0 -1 0
    outer loop
      vertex 0.878079 -28 32.606
      vertex 79.5263 -28 5.32356
      vertex 79.5729 -28 5.53506
    endloop
  endfacet
  facet normal 0 -1 0
    outer loop
      vertex 83.4971 -28 4.89172
      vertex 83.4737 -28 4.67644
      vertex 189 -28 -3.46945e-14
    endloop
  endfacet
  facet normal 0 -1 0
    outer loop
      vertex 83.4737 -28 4.67644
      vertex 83.4271 -28 4.46494
      vertex 189 -28 -3.46945e-14
    endloop
  endfacet
  facet normal 0 -1 0
    outer loop
      vertex 189 -28 -3.46945e-14
      vertex 83.4271 -28 4.46494
      vertex 83.358 -28 4.25972
    endloop
  endfacet
  facet normal 0 -1 0
    outer loop
      vertex 82.7103 -28 3.40781
      vertex 82.5311 -28 3.28629
      vertex 189 -28 -3.46945e-14
    endloop
  endfacet
  facet normal 0 -1 0
    outer loop
      vertex 82.5311 -28 3.28629
      vertex 82.3398 -28 3.18485
      vertex 189 -28 -3.46945e-14
    endloop
  endfacet
  facet normal 0 -1 0
    outer loop
      vertex 189 -28 -3.46945e-14
      vertex 82.3398 -28 3.18485
      vertex 82.1386 -28 3.10469
    endloop
  endfacet
  facet normal 0 -1 0
    outer loop
      vertex 81.9299 -28 3.04676
      vertex 81.7162 -28 3.01172
      vertex 189 -28 -3.46945e-14
    endloop
  endfacet
  facet normal 0 -1 0
    outer loop
      vertex 81.7162 -28 3.01172
      vertex 81.5 -28 3
      vertex 189 -28 -3.46945e-14
    endloop
  endfacet
  facet normal 0 -1 0
    outer loop
      vertex 189 -28 -3.46945e-14
      vertex 81.5 -28 3
      vertex 0 -28 -1.22337e-14
    endloop
  endfacet
  facet normal 0 -1 0
    outer loop
      vertex 81.5 -28 3
      vertex 81.2838 -28 3.01172
      vertex 0 -28 -1.22337e-14
    endloop
  endfacet
  facet normal 0 -1 0
    outer loop
      vertex 0 -28 -1.22337e-14
      vertex 81.2838 -28 3.01172
      vertex 81.0701 -28 3.04676
    endloop
  endfacet
  facet normal 0 -1 0
    outer loop
      vertex 1.41777 -28 32.3564
      vertex 1.66423 -28 32.1893
      vertex 79.642 -28 4.25972
    endloop
  endfacet
  facet normal 0 -1 0
    outer loop
      vertex 1.66423 -28 32.1893
      vertex 1.89117 -28 31.9965
      vertex 79.642 -28 4.25972
    endloop
  endfacet
  facet normal 0 -1 0
    outer loop
      vertex 79.642 -28 4.25972
      vertex 1.89117 -28 31.9965
      vertex 2.09595 -28 31.7803
    endloop
  endfacet
  facet normal 0 -1 0
    outer loop
      vertex 2.71377 -28 30.4449
      vertex 2.74597 -28 30.1489
      vertex 79.642 -28 4.25972
    endloop
  endfacet
  facet normal 0 -1 0
    outer loop
      vertex 2.74597 -28 30.1489
      vertex 2.74597 -28 29.8511
      vertex 79.642 -28 4.25972
    endloop
  endfacet
  facet normal 0 -1 0
    outer loop
      vertex 79.642 -28 4.25972
      vertex 2.74597 -28 29.8511
      vertex 2.71377 -28 29.5551
    endloop
  endfacet
  facet normal 0 -1 0
    outer loop
      vertex 2.42966 -28 28.7119
      vertex 2.27614 -28 28.4567
      vertex 79.8446 -28 3.87763
    endloop
  endfacet
  facet normal 0 -1 0
    outer loop
      vertex 2.27614 -28 28.4567
      vertex 2.09595 -28 28.2197
      vertex 79.8446 -28 3.87763
    endloop
  endfacet
  facet normal 0 -1 0
    outer loop
      vertex 79.8446 -28 3.87763
      vertex 2.09595 -28 28.2197
      vertex 0 -28 -1.22337e-14
    endloop
  endfacet
  facet normal 0 -1 0
    outer loop
      vertex 2.09595 -28 28.2197
      vertex 1.89117 -28 28.0035
      vertex 0 -28 -1.22337e-14
    endloop
  endfacet
  facet normal 0 -1 0
    outer loop
      vertex 0 -28 -1.22337e-14
      vertex 1.89117 -28 28.0035
      vertex 1.66423 -28 27.8107
    endloop
  endfacet
  facet normal 0 -1 0
    outer loop
      vertex 0 -28 -1.22337e-14
      vertex -0.878079 -28 27.394
      vertex -1.1547 -28 27.5042
    endloop
  endfacet
  facet normal 0 -1 0
    outer loop
      vertex 189 -28 30
      vertex 83.358 -28 5.74028
      vertex 189 -28 -3.46945e-14
    endloop
  endfacet
  facet normal 0 -1 0
    outer loop
      vertex 83.358 -28 5.74028
      vertex 83.4271 -28 5.53506
      vertex 189 -28 -3.46945e-14
    endloop
  endfacet
  facet normal 0 -1 0
    outer loop
      vertex 189 -28 -3.46945e-14
      vertex 83.4271 -28 5.53506
      vertex 83.4737 -28 5.32356
    endloop
  endfacet
  facet normal 0 -1 0
    outer loop
      vertex 2.64976 -28 29.2643
      vertex 79.8446 -28 3.87763
      vertex 2.71377 -28 29.5551
    endloop
  endfacet
  facet normal 0 -1 0
    outer loop
      vertex 79.8446 -28 3.87763
      vertex 79.733 -28 4.06318
      vertex 2.71377 -28 29.5551
    endloop
  endfacet
  facet normal 0 -1 0
    outer loop
      vertex 2.71377 -28 29.5551
      vertex 79.733 -28 4.06318
      vertex 79.642 -28 4.25972
    endloop
  endfacet
  facet normal 0 -1 0
    outer loop
      vertex 1.66423 -28 27.8107
      vertex 1.41777 -28 27.6436
      vertex 0 -28 -1.22337e-14
    endloop
  endfacet
  facet normal 0 -1 0
    outer loop
      vertex 1.41777 -28 27.6436
      vertex 1.1547 -28 27.5042
      vertex 0 -28 -1.22337e-14
    endloop
  endfacet
  facet normal 0 -1 0
    outer loop
      vertex 0 -28 -1.22337e-14
      vertex 1.1547 -28 27.5042
      vertex 0.878079 -28 27.394
    endloop
  endfacet
  facet normal 0 -1 0
    outer loop
      vertex 0.878079 -28 27.394
      vertex 0.591169 -28 27.3143
      vertex 0 -28 -1.22337e-14
    endloop
  endfacet
  facet normal 0 -1 0
    outer loop
      vertex 0.591169 -28 27.3143
      vertex 0.297327 -28 27.2661
      vertex 0 -28 -1.22337e-14
    endloop
  endfacet
  facet normal 0 -1 0
    outer loop
      vertex 0 -28 -1.22337e-14
      vertex 0.297327 -28 27.2661
      vertex 3.36778e-16 -28 27.25
    endloop
  endfacet
  facet normal 0 -1 0
    outer loop
      vertex 3.36778e-16 -28 27.25
      vertex -0.297327 -28 27.2661
      vertex 0 -28 -1.22337e-14
    endloop
  endfacet
  facet normal 0 -1 0
    outer loop
      vertex -0.297327 -28 27.2661
      vertex -0.591169 -28 27.3143
      vertex 0 -28 -1.22337e-14
    endloop
  endfacet
  facet normal 0 -1 0
    outer loop
      vertex 0 -28 -1.22337e-14
      vertex -0.591169 -28 27.3143
      vertex -0.878079 -28 27.394
    endloop
  endfacet
  facet normal 0 -1 0
    outer loop
      vertex 82.8754 -28 6.45199
      vertex 83.0243 -28 6.29477
      vertex 189 -28 30
    endloop
  endfacet
  facet normal 0 -1 0
    outer loop
      vertex 83.0243 -28 6.29477
      vertex 83.1554 -28 6.12237
      vertex 189 -28 30
    endloop
  endfacet
  facet normal 0 -1 0
    outer loop
      vertex 189 -28 30
      vertex 83.1554 -28 6.12237
      vertex 83.267 -28 5.93682
    endloop
  endfacet
  facet normal 0 -1 0
    outer loop
      vertex -20 -28 26.5
      vertex -2.09595 -28 28.2197
      vertex -2.27614 -28 28.4567
    endloop
  endfacet
  facet normal 0 -1 0
    outer loop
      vertex -2.27614 -28 28.4567
      vertex -2.42966 -28 28.7119
      vertex -20 -28 26.5
    endloop
  endfacet
  facet normal 0 -1 0
    outer loop
      vertex -2.42966 -28 28.7119
      vertex -2.55469 -28 28.9821
      vertex -20 -28 26.5
    endloop
  endfacet
  facet normal 0 -1 0
    outer loop
      vertex -20 -28 26.5
      vertex -2.55469 -28 28.9821
      vertex -2.64976 -28 29.2643
    endloop
  endfacet
  facet normal 0 -1 0
    outer loop
      vertex 80.1246 -28 6.45199
      vertex 80.2897 -28 6.59219
      vertex 23.2947 -28 60
    endloop
  endfacet
  facet normal 0 -1 0
    outer loop
      vertex 80.2897 -28 6.59219
      vertex 80.4689 -28 6.71371
      vertex 23.2947 -28 60
    endloop
  endfacet
  facet normal 0 -1 0
    outer loop
      vertex 23.2947 -28 60
      vertex 80.4689 -28 6.71371
      vertex 80.6602 -28 6.81515
    endloop
  endfacet
  facet normal 0 -1 0
    outer loop
      vertex -1.1547 -28 27.5042
      vertex -1.41777 -28 27.6436
      vertex 0 -28 -1.22337e-14
    endloop
  endfacet
  facet normal 0 -1 0
    outer loop
      vertex -1.41777 -28 27.6436
      vertex -1.66423 -28 27.8107
      vertex 0 -28 -1.22337e-14
    endloop
  endfacet
  facet normal 0 -1 0
    outer loop
      vertex 0 -28 -1.22337e-14
      vertex -1.66423 -28 27.8107
      vertex -20 -28 26.5
    endloop
  endfacet
  facet normal 0 -1 0
    outer loop
      vertex -1.66423 -28 27.8107
      vertex -1.89117 -28 28.0035
      vertex -20 -28 26.5
    endloop
  endfacet
  facet normal 0 -1 0
    outer loop
      vertex -20 -28 26.5
      vertex -1.89117 -28 28.0035
      vertex -2.09595 -28 28.2197
    endloop
  endfacet
  facet normal 0 -1 0
    outer loop
      vertex 23.2947 -28 60
      vertex 81.2838 -28 6.98828
      vertex 81.5 -28 7
    endloop
  endfacet
  facet normal 0 -1 0
    outer loop
      vertex -20 -28 33.5
      vertex -2.71377 -28 30.4449
      vertex -2.64976 -28 30.7357
    endloop
  endfacet
  facet normal 0 -1 0
    outer loop
      vertex -0.878079 -28 32.606
      vertex -3.67394e-15 -28 60
      vertex -1.1547 -28 32.4958
    endloop
  endfacet
  facet normal 0 -1 0
    outer loop
      vertex -3.67394e-15 -28 60
      vertex -1.41777 -28 32.3564
      vertex -1.1547 -28 32.4958
    endloop
  endfacet
  facet normal 0 -1 0
    outer loop
      vertex -0.878079 -28 32.606
      vertex -0.591169 -28 32.6857
      vertex -3.67394e-15 -28 60
    endloop
  endfacet
  facet normal 0 -1 0
    outer loop
      vertex -0.591169 -28 32.6857
      vertex -0.297327 -28 32.7339
      vertex -3.67394e-15 -28 60
    endloop
  endfacet
  facet normal 0 -1 0
    outer loop
      vertex -3.67394e-15 -28 60
      vertex -0.297327 -28 32.7339
      vertex 0 -28 32.75
    endloop
  endfacet
  facet normal 0 -1 0
    outer loop
      vertex 0 -28 32.75
      vertex 0.297327 -28 32.7339
      vertex -3.67394e-15 -28 60
    endloop
  endfacet
  facet normal 0 -1 0
    outer loop
      vertex 0.297327 -28 32.7339
      vertex 0.591169 -28 32.6857
      vertex -3.67394e-15 -28 60
    endloop
  endfacet
  facet normal 0 -1 0
    outer loop
      vertex -3.67394e-15 -28 60
      vertex 0.591169 -28 32.6857
      vertex 0.878079 -28 32.606
    endloop
  endfacet
  facet normal 0 -1 0
    outer loop
      vertex 80.6602 -28 6.81515
      vertex 80.8614 -28 6.89531
      vertex 23.2947 -28 60
    endloop
  endfacet
  facet normal 0 -1 0
    outer loop
      vertex 80.8614 -28 6.89531
      vertex 81.0701 -28 6.95324
      vertex 23.2947 -28 60
    endloop
  endfacet
  facet normal 0 -1 0
    outer loop
      vertex 23.2947 -28 60
      vertex 81.0701 -28 6.95324
      vertex 81.2838 -28 6.98828
    endloop
  endfacet
  facet normal 0 -1 0
    outer loop
      vertex 81.5 -28 7
      vertex 81.7162 -28 6.98828
      vertex 23.2947 -28 60
    endloop
  endfacet
  facet normal 0 -1 0
    outer loop
      vertex 81.7162 -28 6.98828
      vertex 81.9299 -28 6.95324
      vertex 23.2947 -28 60
    endloop
  endfacet
  facet normal 0 -1 0
    outer loop
      vertex 23.2947 -28 60
      vertex 81.9299 -28 6.95324
      vertex 189 -28 30
    endloop
  endfacet
  facet normal 0 -1 0
    outer loop
      vertex 81.9299 -28 6.95324
      vertex 82.1386 -28 6.89531
      vertex 189 -28 30
    endloop
  endfacet
  facet normal 0 -1 0
    outer loop
      vertex 189 -28 30
      vertex 82.1386 -28 6.89531
      vertex 82.3398 -28 6.81515
    endloop
  endfacet
  facet normal 0 -1 0
    outer loop
      vertex 82.3398 -28 6.81515
      vertex 82.5311 -28 6.71371
      vertex 189 -28 30
    endloop
  endfacet
  facet normal 0 -1 0
    outer loop
      vertex 82.5311 -28 6.71371
      vertex 82.7103 -28 6.59219
      vertex 189 -28 30
    endloop
  endfacet
  facet normal 0 -1 0
    outer loop
      vertex 189 -28 30
      vertex 82.7103 -28 6.59219
      vertex 82.8754 -28 6.45199
    endloop
  endfacet
  facet normal 0 -1 0
    outer loop
      vertex -2.64976 -28 29.2643
      vertex -2.71377 -28 29.5551
      vertex -20 -28 26.5
    endloop
  endfacet
  facet normal 0 -1 0
    outer loop
      vertex -2.71377 -28 29.5551
      vertex -2.74597 -28 29.8511
      vertex -20 -28 26.5
    endloop
  endfacet
  facet normal 0 -1 0
    outer loop
      vertex -20 -28 26.5
      vertex -2.74597 -28 29.8511
      vertex -20 -28 33.5
    endloop
  endfacet
  facet normal 0 -1 0
    outer loop
      vertex -2.74597 -28 29.8511
      vertex -2.74597 -28 30.1489
      vertex -20 -28 33.5
    endloop
  endfacet
  facet normal 0 -1 0
    outer loop
      vertex -20 -28 33.5
      vertex -2.74597 -28 30.1489
      vertex -2.71377 -28 30.4449
    endloop
  endfacet
  facet normal 0 -1 0
    outer loop
      vertex 79.5729 -28 5.53506
      vertex 79.642 -28 5.74028
      vertex 0.878079 -28 32.606
    endloop
  endfacet
  facet normal 0 -1 0
    outer loop
      vertex 79.642 -28 5.74028
      vertex 79.733 -28 5.93682
      vertex 0.878079 -28 32.606
    endloop
  endfacet
  facet normal 0 -1 0
    outer loop
      vertex 0.878079 -28 32.606
      vertex 79.733 -28 5.93682
      vertex -3.67394e-15 -28 60
    endloop
  endfacet
  facet normal 0 -1 0
    outer loop
      vertex 79.733 -28 5.93682
      vertex 79.8446 -28 6.12237
      vertex -3.67394e-15 -28 60
    endloop
  endfacet
  facet normal 0 -1 0
    outer loop
      vertex -3.67394e-15 -28 60
      vertex 79.8446 -28 6.12237
      vertex 23.2947 -28 60
    endloop
  endfacet
  facet normal 0 -1 0
    outer loop
      vertex 79.8446 -28 6.12237
      vertex 79.9757 -28 6.29477
      vertex 23.2947 -28 60
    endloop
  endfacet
  facet normal 0 -1 0
    outer loop
      vertex 23.2947 -28 60
      vertex 79.9757 -28 6.29477
      vertex 80.1246 -28 6.45199
    endloop
  endfacet
  facet normal 0 -1 0
    outer loop
      vertex -2.64976 -28 30.7357
      vertex -2.55469 -28 31.0179
      vertex -20 -28 33.5
    endloop
  endfacet
  facet normal 0 -1 0
    outer loop
      vertex -2.55469 -28 31.0179
      vertex -2.42966 -28 31.2881
      vertex -20 -28 33.5
    endloop
  endfacet
  facet normal 0 -1 0
    outer loop
      vertex -20 -28 33.5
      vertex -2.42966 -28 31.2881
      vertex -2.27614 -28 31.5433
    endloop
  endfacet
  facet normal 0 -1 0
    outer loop
      vertex -2.27614 -28 31.5433
      vertex -2.09595 -28 31.7803
      vertex -20 -28 33.5
    endloop
  endfacet
  facet normal 0 -1 0
    outer loop
      vertex -2.09595 -28 31.7803
      vertex -1.89117 -28 31.9965
      vertex -20 -28 33.5
    endloop
  endfacet
  facet normal 0 -1 0
    outer loop
      vertex -20 -28 33.5
      vertex -1.89117 -28 31.9965
      vertex -3.67394e-15 -28 60
    endloop
  endfacet
  facet normal 0 -1 0
    outer loop
      vertex -1.89117 -28 31.9965
      vertex -1.66423 -28 32.1893
      vertex -3.67394e-15 -28 60
    endloop
  endfacet
  facet normal 0 -1 0
    outer loop
      vertex -3.67394e-15 -28 60
      vertex -1.66423 -28 32.1893
      vertex -1.41777 -28 32.3564
    endloop
  endfacet
  facet normal -0.985778 0 0.168056
    outer loop
      vertex -29.7951 -26 33.5
      vertex -29.7951 -28 33.5
      vertex -29.2718 -28 36.5697
    endloop
  endfacet
  facet normal -0.985778 0 0.168056
    outer loop
      vertex -29.7951 -26 33.5
      vertex -29.2718 -28 36.5697
      vertex -29.2718 -26 36.5697
    endloop
  endfacet
  facet normal -0.963046 0 0.269337
    outer loop
      vertex -29.2718 -28 36.5697
      vertex -28.4331 -28 39.5687
      vertex -29.2718 -26 36.5697
    endloop
  endfacet
  facet normal -0.963046 0 0.269337
    outer loop
      vertex -29.2718 -26 36.5697
      vertex -28.4331 -28 39.5687
      vertex -28.4331 -26 39.5687
    endloop
  endfacet
  facet normal -0.929938 0 0.367716
    outer loop
      vertex -28.4331 -28 39.5687
      vertex -27.288 -28 42.4645
      vertex -28.4331 -26 39.5687
    endloop
  endfacet
  facet normal -0.929938 0 0.367716
    outer loop
      vertex -28.4331 -26 39.5687
      vertex -27.288 -28 42.4645
      vertex -27.288 -26 42.4645
    endloop
  endfacet
  facet normal -0.886811 0 0.462133
    outer loop
      vertex -27.288 -28 42.4645
      vertex -25.8489 -28 45.2261
      vertex -27.288 -26 42.4645
    endloop
  endfacet
  facet normal -0.886811 0 0.462133
    outer loop
      vertex -27.288 -26 42.4645
      vertex -25.8489 -28 45.2261
      vertex -25.8489 -26 45.2261
    endloop
  endfacet
  facet normal -0.834128 0 0.551571
    outer loop
      vertex -25.8489 -28 45.2261
      vertex -24.1313 -28 47.8236
      vertex -25.8489 -26 45.2261
    endloop
  endfacet
  facet normal -0.834128 0 0.551571
    outer loop
      vertex -25.8489 -26 45.2261
      vertex -24.1313 -28 47.8236
      vertex -24.1313 -26 47.8236
    endloop
  endfacet
  facet normal -0.772458 0 0.635066
    outer loop
      vertex -24.1313 -28 47.8236
      vertex -22.1537 -28 50.229
      vertex -24.1313 -26 47.8236
    endloop
  endfacet
  facet normal -0.772458 0 0.635066
    outer loop
      vertex -24.1313 -26 47.8236
      vertex -22.1537 -28 50.229
      vertex -22.1537 -26 50.229
    endloop
  endfacet
  facet normal -0.702465 0 0.711718
    outer loop
      vertex -22.1537 -28 50.229
      vertex -19.9374 -28 52.4165
      vertex -22.1537 -26 50.229
    endloop
  endfacet
  facet normal -0.702465 0 0.711718
    outer loop
      vertex -22.1537 -26 50.229
      vertex -19.9374 -28 52.4165
      vertex -19.9374 -26 52.4165
    endloop
  endfacet
  facet normal -0.624904 0 0.780702
    outer loop
      vertex -19.9374 -28 52.4165
      vertex -17.5063 -28 54.3625
      vertex -19.9374 -26 52.4165
    endloop
  endfacet
  facet normal -0.624904 0 0.780702
    outer loop
      vertex -19.9374 -26 52.4165
      vertex -17.5063 -28 54.3625
      vertex -17.5063 -26 54.3625
    endloop
  endfacet
  facet normal -0.540608 0 0.841274
    outer loop
      vertex -17.5063 -28 54.3625
      vertex -14.8865 -28 56.0459
      vertex -17.5063 -26 54.3625
    endloop
  endfacet
  facet normal -0.540608 0 0.841274
    outer loop
      vertex -17.5063 -26 54.3625
      vertex -14.8865 -28 56.0459
      vertex -14.8865 -26 56.0459
    endloop
  endfacet
  facet normal -0.450489 0 0.892782
    outer loop
      vertex -14.8865 -28 56.0459
      vertex -12.1064 -28 57.4488
      vertex -14.8865 -26 56.0459
    endloop
  endfacet
  facet normal -0.450489 0 0.892782
    outer loop
      vertex -14.8865 -26 56.0459
      vertex -12.1064 -28 57.4488
      vertex -12.1064 -26 57.4488
    endloop
  endfacet
  facet normal -0.355516 0 0.93467
    outer loop
      vertex -12.1064 -28 57.4488
      vertex -9.19581 -28 58.5559
      vertex -12.1064 -26 57.4488
    endloop
  endfacet
  facet normal -0.355516 0 0.93467
    outer loop
      vertex -12.1064 -26 57.4488
      vertex -9.19581 -28 58.5559
      vertex -9.19581 -26 58.5559
    endloop
  endfacet
  facet normal -0.256712 0 0.966488
    outer loop
      vertex -9.19581 -28 58.5559
      vertex -6.18614 -28 59.3553
      vertex -9.19581 -26 58.5559
    endloop
  endfacet
  facet normal -0.256712 0 0.966488
    outer loop
      vertex -9.19581 -26 58.5559
      vertex -6.18614 -28 59.3553
      vertex -6.18614 -26 59.3553
    endloop
  endfacet
  facet normal -0.155142 0 0.987892
    outer loop
      vertex -6.18614 -28 59.3553
      vertex -3.10982 -28 59.8384
      vertex -6.18614 -26 59.3553
    endloop
  endfacet
  facet normal -0.155142 0 0.987892
    outer loop
      vertex -6.18614 -26 59.3553
      vertex -3.10982 -28 59.8384
      vertex -3.10982 -26 59.8384
    endloop
  endfacet
  facet normal -0.0519001 0 0.998652
    outer loop
      vertex -3.10982 -28 59.8384
      vertex -3.67394e-15 -28 60
      vertex -3.10982 -26 59.8384
    endloop
  endfacet
  facet normal -0.0519001 0 0.998652
    outer loop
      vertex -3.10982 -26 59.8384
      vertex -3.67394e-15 -28 60
      vertex -3.67394e-15 -26 60
    endloop
  endfacet
  facet normal 0 0 1
    outer loop
      vertex -20 -28 26.5
      vertex -20 -26 26.5
      vertex -29.7951 -28 26.5
    endloop
  endfacet
  facet normal 0 0 1
    outer loop
      vertex -20 -26 26.5
      vertex -29.7951 -26 26.5
      vertex -29.7951 -28 26.5
    endloop
  endfacet
  facet normal -1.1884e-16 0 -1
    outer loop
      vertex 0 -26 -1.22337e-14
      vertex 189 -26 -3.46945e-14
      vertex 0 -28 -1.22337e-14
    endloop
  endfacet
  facet normal -1.1884e-16 0 -1
    outer loop
      vertex 189 -26 -3.46945e-14
      vertex 189 -28 -3.46945e-14
      vertex 0 -28 -1.22337e-14
    endloop
  endfacet
  facet normal 0 0 1
    outer loop
      vertex -3.67394e-15 -26 60
      vertex -3.67394e-15 -28 60
      vertex 23.2947 -26 60
    endloop
  endfacet
  facet normal 0 0 1
    outer loop
      vertex -3.67394e-15 -28 60
      vertex 23.2947 -28 60
      vertex 23.2947 -26 60
    endloop
  endfacet
  facet normal -0.0541404 0 -0.998533
    outer loop
      vertex 81.5 -28 7
      vertex 81.5 -26 7
      vertex 81.7162 -28 6.98828
    endloop
  endfacet
  facet normal -0.0541404 0 -0.998533
    outer loop
      vertex 81.5 -26 7
      vertex 81.7162 -26 6.98828
      vertex 81.7162 -28 6.98828
    endloop
  endfacet
  facet normal -0.161779 0 -0.986827
    outer loop
      vertex 81.7162 -28 6.98828
      vertex 81.7162 -26 6.98828
      vertex 81.9299 -28 6.95324
    endloop
  endfacet
  facet normal -0.161779 0 -0.986827
    outer loop
      vertex 81.7162 -26 6.98828
      vertex 81.9299 -26 6.95324
      vertex 81.9299 -28 6.95324
    endloop
  endfacet
  facet normal -0.26753 0 -0.96355
    outer loop
      vertex 81.9299 -28 6.95324
      vertex 81.9299 -26 6.95324
      vertex 82.1386 -28 6.89531
    endloop
  endfacet
  facet normal -0.26753 0 -0.96355
    outer loop
      vertex 81.9299 -26 6.95324
      vertex 82.1386 -26 6.89531
      vertex 82.1386 -28 6.89531
    endloop
  endfacet
  facet normal -0.370142 0 -0.928975
    outer loop
      vertex 82.1386 -28 6.89531
      vertex 82.1386 -26 6.89531
      vertex 82.3398 -28 6.81515
    endloop
  endfacet
  facet normal -0.370142 0 -0.928975
    outer loop
      vertex 82.1386 -26 6.89531
      vertex 82.3398 -26 6.81515
      vertex 82.3398 -28 6.81515
    endloop
  endfacet
  facet normal -0.468405 0 -0.883514
    outer loop
      vertex 82.3398 -28 6.81515
      vertex 82.3398 -26 6.81515
      vertex 82.5311 -28 6.71371
    endloop
  endfacet
  facet normal -0.468405 0 -0.883514
    outer loop
      vertex 82.3398 -26 6.81515
      vertex 82.5311 -26 6.71371
      vertex 82.5311 -28 6.71371
    endloop
  endfacet
  facet normal -0.561192 0 -0.827686
    outer loop
      vertex 82.5311 -28 6.71371
      vertex 82.5311 -26 6.71371
      vertex 82.7103 -28 6.59219
    endloop
  endfacet
  facet normal -0.561192 0 -0.827686
    outer loop
      vertex 82.5311 -26 6.71371
      vertex 82.7103 -26 6.59219
      vertex 82.7103 -28 6.59219
    endloop
  endfacet
  facet normal -0.647381 0 -0.762166
    outer loop
      vertex 82.7103 -28 6.59219
      vertex 82.7103 -26 6.59219
      vertex 82.8754 -28 6.45199
    endloop
  endfacet
  facet normal -0.647381 0 -0.762166
    outer loop
      vertex 82.7103 -26 6.59219
      vertex 82.8754 -26 6.45199
      vertex 82.8754 -28 6.45199
    endloop
  endfacet
  facet normal -0.726002 0 -0.687692
    outer loop
      vertex 82.8754 -28 6.45199
      vertex 82.8754 -26 6.45199
      vertex 83.0243 -28 6.29477
    endloop
  endfacet
  facet normal -0.726002 0 -0.687692
    outer loop
      vertex 82.8754 -26 6.45199
      vertex 83.0243 -26 6.29477
      vertex 83.0243 -28 6.29477
    endloop
  endfacet
  facet normal -0.796089 0 -0.605179
    outer loop
      vertex 83.0243 -28 6.29477
      vertex 83.0243 -26 6.29477
      vertex 83.1554 -28 6.12237
    endloop
  endfacet
  facet normal -0.796089 0 -0.605179
    outer loop
      vertex 83.0243 -26 6.29477
      vertex 83.1554 -26 6.12237
      vertex 83.1554 -28 6.12237
    endloop
  endfacet
  facet normal -0.856855 0 -0.515557
    outer loop
      vertex 83.1554 -28 6.12237
      vertex 83.1554 -26 6.12237
      vertex 83.267 -28 5.93682
    endloop
  endfacet
  facet normal -0.856855 0 -0.515557
    outer loop
      vertex 83.1554 -26 6.12237
      vertex 83.267 -26 5.93682
      vertex 83.267 -28 5.93682
    endloop
  endfacet
  facet normal -0.90758 0 -0.41988
    outer loop
      vertex 83.267 -28 5.93682
      vertex 83.267 -26 5.93682
      vertex 83.358 -28 5.74028
    endloop
  endfacet
  facet normal -0.90758 0 -0.41988
    outer loop
      vertex 83.267 -26 5.93682
      vertex 83.358 -26 5.74028
      vertex 83.358 -28 5.74028
    endloop
  endfacet
  facet normal -0.94765 0 -0.319311
    outer loop
      vertex 83.358 -28 5.74028
      vertex 83.358 -26 5.74028
      vertex 83.4271 -28 5.53506
    endloop
  endfacet
  facet normal -0.94765 0 -0.319311
    outer loop
      vertex 83.358 -26 5.74028
      vertex 83.4271 -26 5.53506
      vertex 83.4271 -28 5.53506
    endloop
  endfacet
  facet normal -0.976622 0 -0.214962
    outer loop
      vertex 83.4271 -28 5.53506
      vertex 83.4271 -26 5.53506
      vertex 83.4737 -28 5.32356
    endloop
  endfacet
  facet normal -0.976622 0 -0.214962
    outer loop
      vertex 83.4271 -26 5.53506
      vertex 83.4737 -26 5.32356
      vertex 83.4737 -28 5.32356
    endloop
  endfacet
  facet normal -0.994136 0 -0.108134
    outer loop
      vertex 83.4737 -28 5.32356
      vertex 83.4737 -26 5.32356
      vertex 83.4971 -28 5.10828
    endloop
  endfacet
  facet normal -0.994136 0 -0.108134
    outer loop
      vertex 83.4737 -26 5.32356
      vertex 83.4971 -26 5.10828
      vertex 83.4971 -28 5.10828
    endloop
  endfacet
  facet normal -1 0 0
    outer loop
      vertex 83.4971 -28 5.10828
      vertex 83.4971 -26 5.10828
      vertex 83.4971 -28 4.89172
    endloop
  endfacet
  facet normal -1 0 0
    outer loop
      vertex 83.4971 -26 5.10828
      vertex 83.4971 -26 4.89172
      vertex 83.4971 -28 4.89172
    endloop
  endfacet
  facet normal -0.994136 0 0.108135
    outer loop
      vertex 83.4971 -28 4.89172
      vertex 83.4971 -26 4.89172
      vertex 83.4737 -28 4.67644
    endloop
  endfacet
  facet normal -0.994136 0 0.108135
    outer loop
      vertex 83.4971 -26 4.89172
      vertex 83.4737 -26 4.67644
      vertex 83.4737 -28 4.67644
    endloop
  endfacet
  facet normal -0.976622 0 0.214962
    outer loop
      vertex 83.4737 -28 4.67644
      vertex 83.4737 -26 4.67644
      vertex 83.4271 -28 4.46494
    endloop
  endfacet
  facet normal -0.976622 0 0.214962
    outer loop
      vertex 83.4737 -26 4.67644
      vertex 83.4271 -26 4.46494
      vertex 83.4271 -28 4.46494
    endloop
  endfacet
  facet normal -0.94765 0 0.319311
    outer loop
      vertex 83.4271 -28 4.46494
      vertex 83.4271 -26 4.46494
      vertex 83.358 -28 4.25972
    endloop
  endfacet
  facet normal -0.94765 0 0.319311
    outer loop
      vertex 83.4271 -26 4.46494
      vertex 83.358 -26 4.25972
      vertex 83.358 -28 4.25972
    endloop
  endfacet
  facet normal -0.90758 0 0.419879
    outer loop
      vertex 83.358 -28 4.25972
      vertex 83.358 -26 4.25972
      vertex 83.267 -28 4.06318
    endloop
  endfacet
  facet normal -0.90758 0 0.419879
    outer loop
      vertex 83.358 -26 4.25972
      vertex 83.267 -26 4.06318
      vertex 83.267 -28 4.06318
    endloop
  endfacet
  facet normal -0.856855 0 0.515557
    outer loop
      vertex 83.267 -28 4.06318
      vertex 83.267 -26 4.06318
      vertex 83.1554 -28 3.87763
    endloop
  endfacet
  facet normal -0.856855 0 0.515557
    outer loop
      vertex 83.267 -26 4.06318
      vertex 83.1554 -26 3.87763
      vertex 83.1554 -28 3.87763
    endloop
  endfacet
  facet normal -0.796089 0 0.60518
    outer loop
      vertex 83.1554 -28 3.87763
      vertex 83.1554 -26 3.87763
      vertex 83.0243 -28 3.70523
    endloop
  endfacet
  facet normal -0.796089 0 0.60518
    outer loop
      vertex 83.1554 -26 3.87763
      vertex 83.0243 -26 3.70523
      vertex 83.0243 -28 3.70523
    endloop
  endfacet
  facet normal -0.726002 0 0.687692
    outer loop
      vertex 83.0243 -28 3.70523
      vertex 83.0243 -26 3.70523
      vertex 82.8754 -28 3.54801
    endloop
  endfacet
  facet normal -0.726002 0 0.687692
    outer loop
      vertex 83.0243 -26 3.70523
      vertex 82.8754 -26 3.54801
      vertex 82.8754 -28 3.54801
    endloop
  endfacet
  facet normal -0.647381 0 0.762166
    outer loop
      vertex 82.8754 -28 3.54801
      vertex 82.8754 -26 3.54801
      vertex 82.7103 -28 3.40781
    endloop
  endfacet
  facet normal -0.647381 0 0.762166
    outer loop
      vertex 82.8754 -26 3.54801
      vertex 82.7103 -26 3.40781
      vertex 82.7103 -28 3.40781
    endloop
  endfacet
  facet normal -0.561192 0 0.827686
    outer loop
      vertex 82.7103 -28 3.40781
      vertex 82.7103 -26 3.40781
      vertex 82.5311 -28 3.28629
    endloop
  endfacet
  facet normal -0.561192 0 0.827686
    outer loop
      vertex 82.7103 -26 3.40781
      vertex 82.5311 -26 3.28629
      vertex 82.5311 -28 3.28629
    endloop
  endfacet
  facet normal -0.468405 0 0.883514
    outer loop
      vertex 82.5311 -28 3.28629
      vertex 82.5311 -26 3.28629
      vertex 82.3398 -28 3.18485
    endloop
  endfacet
  facet normal -0.468405 0 0.883514
    outer loop
      vertex 82.5311 -26 3.28629
      vertex 82.3398 -26 3.18485
      vertex 82.3398 -28 3.18485
    endloop
  endfacet
  facet normal -0.370141 0 0.928976
    outer loop
      vertex 82.3398 -28 3.18485
      vertex 82.3398 -26 3.18485
      vertex 82.1386 -28 3.10469
    endloop
  endfacet
  facet normal -0.370141 0 0.928976
    outer loop
      vertex 82.3398 -26 3.18485
      vertex 82.1386 -26 3.10469
      vertex 82.1386 -28 3.10469
    endloop
  endfacet
  facet normal -0.26753 0 0.96355
    outer loop
      vertex 82.1386 -28 3.10469
      vertex 82.1386 -26 3.10469
      vertex 81.9299 -28 3.04676
    endloop
  endfacet
  facet normal -0.26753 0 0.96355
    outer loop
      vertex 82.1386 -26 3.10469
      vertex 81.9299 -26 3.04676
      vertex 81.9299 -28 3.04676
    endloop
  endfacet
  facet normal -0.161781 0 0.986827
    outer loop
      vertex 81.9299 -28 3.04676
      vertex 81.9299 -26 3.04676
      vertex 81.7162 -28 3.01172
    endloop
  endfacet
  facet normal -0.161781 0 0.986827
    outer loop
      vertex 81.9299 -26 3.04676
      vertex 81.7162 -26 3.01172
      vertex 81.7162 -28 3.01172
    endloop
  endfacet
  facet normal -0.0541383 0 0.998533
    outer loop
      vertex 81.7162 -28 3.01172
      vertex 81.7162 -26 3.01172
      vertex 81.5 -28 3
    endloop
  endfacet
  facet normal -0.0541383 0 0.998533
    outer loop
      vertex 81.7162 -26 3.01172
      vertex 81.5 -26 3
      vertex 81.5 -28 3
    endloop
  endfacet
  facet normal 0.0541383 0 0.998533
    outer loop
      vertex 81.5 -28 3
      vertex 81.5 -26 3
      vertex 81.2838 -28 3.01172
    endloop
  endfacet
  facet normal 0.0541383 0 0.998533
    outer loop
      vertex 81.5 -26 3
      vertex 81.2838 -26 3.01172
      vertex 81.2838 -28 3.01172
    endloop
  endfacet
  facet normal 0.161781 0 0.986827
    outer loop
      vertex 81.2838 -28 3.01172
      vertex 81.2838 -26 3.01172
      vertex 81.0701 -28 3.04676
    endloop
  endfacet
  facet normal 0.161781 0 0.986827
    outer loop
      vertex 81.2838 -26 3.01172
      vertex 81.0701 -26 3.04676
      vertex 81.0701 -28 3.04676
    endloop
  endfacet
  facet normal 0.26753 0 0.96355
    outer loop
      vertex 81.0701 -28 3.04676
      vertex 81.0701 -26 3.04676
      vertex 80.8614 -28 3.10469
    endloop
  endfacet
  facet normal 0.26753 0 0.96355
    outer loop
      vertex 81.0701 -26 3.04676
      vertex 80.8614 -26 3.10469
      vertex 80.8614 -28 3.10469
    endloop
  endfacet
  facet normal 0.370141 0 0.928976
    outer loop
      vertex 80.8614 -28 3.10469
      vertex 80.8614 -26 3.10469
      vertex 80.6602 -28 3.18485
    endloop
  endfacet
  facet normal 0.370141 0 0.928976
    outer loop
      vertex 80.8614 -26 3.10469
      vertex 80.6602 -26 3.18485
      vertex 80.6602 -28 3.18485
    endloop
  endfacet
  facet normal 0.468405 0 0.883514
    outer loop
      vertex 80.6602 -28 3.18485
      vertex 80.6602 -26 3.18485
      vertex 80.4689 -28 3.28629
    endloop
  endfacet
  facet normal 0.468405 0 0.883514
    outer loop
      vertex 80.6602 -26 3.18485
      vertex 80.4689 -26 3.28629
      vertex 80.4689 -28 3.28629
    endloop
  endfacet
  facet normal 0.561192 0 0.827686
    outer loop
      vertex 80.4689 -28 3.28629
      vertex 80.4689 -26 3.28629
      vertex 80.2897 -28 3.40781
    endloop
  endfacet
  facet normal 0.561192 0 0.827686
    outer loop
      vertex 80.4689 -26 3.28629
      vertex 80.2897 -26 3.40781
      vertex 80.2897 -28 3.40781
    endloop
  endfacet
  facet normal 0.647381 0 0.762166
    outer loop
      vertex 80.2897 -28 3.40781
      vertex 80.2897 -26 3.40781
      vertex 80.1246 -28 3.54801
    endloop
  endfacet
  facet normal 0.647381 0 0.762166
    outer loop
      vertex 80.2897 -26 3.40781
      vertex 80.1246 -26 3.54801
      vertex 80.1246 -28 3.54801
    endloop
  endfacet
  facet normal 0.726002 0 0.687692
    outer loop
      vertex 80.1246 -28 3.54801
      vertex 80.1246 -26 3.54801
      vertex 79.9757 -28 3.70523
    endloop
  endfacet
  facet normal 0.726002 0 0.687692
    outer loop
      vertex 80.1246 -26 3.54801
      vertex 79.9757 -26 3.70523
      vertex 79.9757 -28 3.70523
    endloop
  endfacet
  facet normal 0.796089 0 0.60518
    outer loop
      vertex 79.9757 -28 3.70523
      vertex 79.9757 -26 3.70523
      vertex 79.8446 -28 3.87763
    endloop
  endfacet
  facet normal 0.796089 0 0.60518
    outer loop
      vertex 79.9757 -26 3.70523
      vertex 79.8446 -26 3.87763
      vertex 79.8446 -28 3.87763
    endloop
  endfacet
  facet normal 0.856855 0 0.515557
    outer loop
      vertex 79.8446 -28 3.87763
      vertex 79.8446 -26 3.87763
      vertex 79.733 -28 4.06318
    endloop
  endfacet
  facet normal 0.856855 0 0.515557
    outer loop
      vertex 79.8446 -26 3.87763
      vertex 79.733 -26 4.06318
      vertex 79.733 -28 4.06318
    endloop
  endfacet
  facet normal 0.90758 0 0.419879
    outer loop
      vertex 79.733 -28 4.06318
      vertex 79.733 -26 4.06318
      vertex 79.642 -28 4.25972
    endloop
  endfacet
  facet normal 0.90758 0 0.419879
    outer loop
      vertex 79.733 -26 4.06318
      vertex 79.642 -26 4.25972
      vertex 79.642 -28 4.25972
    endloop
  endfacet
  facet normal 0.94765 0 0.319311
    outer loop
      vertex 79.642 -28 4.25972
      vertex 79.642 -26 4.25972
      vertex 79.5729 -28 4.46494
    endloop
  endfacet
  facet normal 0.94765 0 0.319311
    outer loop
      vertex 79.642 -26 4.25972
      vertex 79.5729 -26 4.46494
      vertex 79.5729 -28 4.46494
    endloop
  endfacet
  facet normal 0.976622 0 0.214962
    outer loop
      vertex 79.5729 -28 4.46494
      vertex 79.5729 -26 4.46494
      vertex 79.5263 -28 4.67644
    endloop
  endfacet
  facet normal 0.976622 0 0.214962
    outer loop
      vertex 79.5729 -26 4.46494
      vertex 79.5263 -26 4.67644
      vertex 79.5263 -28 4.67644
    endloop
  endfacet
  facet normal 0.994136 0 0.108135
    outer loop
      vertex 79.5263 -28 4.67644
      vertex 79.5263 -26 4.67644
      vertex 79.5029 -28 4.89172
    endloop
  endfacet
  facet normal 0.994136 0 0.108135
    outer loop
      vertex 79.5263 -26 4.67644
      vertex 79.5029 -26 4.89172
      vertex 79.5029 -28 4.89172
    endloop
  endfacet
  facet normal 1 0 0
    outer loop
      vertex 79.5029 -28 4.89172
      vertex 79.5029 -26 4.89172
      vertex 79.5029 -28 5.10828
    endloop
  endfacet
  facet normal 1 0 0
    outer loop
      vertex 79.5029 -26 4.89172
      vertex 79.5029 -26 5.10828
      vertex 79.5029 -28 5.10828
    endloop
  endfacet
  facet normal 0.994136 0 -0.108134
    outer loop
      vertex 79.5029 -28 5.10828
      vertex 79.5029 -26 5.10828
      vertex 79.5263 -28 5.32356
    endloop
  endfacet
  facet normal 0.994136 0 -0.108134
    outer loop
      vertex 79.5029 -26 5.10828
      vertex 79.5263 -26 5.32356
      vertex 79.5263 -28 5.32356
    endloop
  endfacet
  facet normal 0.976622 0 -0.214962
    outer loop
      vertex 79.5263 -28 5.32356
      vertex 79.5263 -26 5.32356
      vertex 79.5729 -28 5.53506
    endloop
  endfacet
  facet normal 0.976622 0 -0.214962
    outer loop
      vertex 79.5263 -26 5.32356
      vertex 79.5729 -26 5.53506
      vertex 79.5729 -28 5.53506
    endloop
  endfacet
  facet normal 0.94765 0 -0.319311
    outer loop
      vertex 79.5729 -28 5.53506
      vertex 79.5729 -26 5.53506
      vertex 79.642 -28 5.74028
    endloop
  endfacet
  facet normal 0.94765 0 -0.319311
    outer loop
      vertex 79.5729 -26 5.53506
      vertex 79.642 -26 5.74028
      vertex 79.642 -28 5.74028
    endloop
  endfacet
  facet normal 0.90758 0 -0.41988
    outer loop
      vertex 79.642 -28 5.74028
      vertex 79.642 -26 5.74028
      vertex 79.733 -28 5.93682
    endloop
  endfacet
  facet normal 0.90758 0 -0.41988
    outer loop
      vertex 79.642 -26 5.74028
      vertex 79.733 -26 5.93682
      vertex 79.733 -28 5.93682
    endloop
  endfacet
  facet normal 0.856855 0 -0.515557
    outer loop
      vertex 79.733 -28 5.93682
      vertex 79.733 -26 5.93682
      vertex 79.8446 -28 6.12237
    endloop
  endfacet
  facet normal 0.856855 0 -0.515557
    outer loop
      vertex 79.733 -26 5.93682
      vertex 79.8446 -26 6.12237
      vertex 79.8446 -28 6.12237
    endloop
  endfacet
  facet normal 0.796089 0 -0.605179
    outer loop
      vertex 79.8446 -28 6.12237
      vertex 79.8446 -26 6.12237
      vertex 79.9757 -28 6.29477
    endloop
  endfacet
  facet normal 0.796089 0 -0.605179
    outer loop
      vertex 79.8446 -26 6.12237
      vertex 79.9757 -26 6.29477
      vertex 79.9757 -28 6.29477
    endloop
  endfacet
  facet normal 0.726002 0 -0.687692
    outer loop
      vertex 79.9757 -28 6.29477
      vertex 79.9757 -26 6.29477
      vertex 80.1246 -28 6.45199
    endloop
  endfacet
  facet normal 0.726002 0 -0.687692
    outer loop
      vertex 79.9757 -26 6.29477
      vertex 80.1246 -26 6.45199
      vertex 80.1246 -28 6.45199
    endloop
  endfacet
  facet normal 0.647381 0 -0.762166
    outer loop
      vertex 80.1246 -28 6.45199
      vertex 80.1246 -26 6.45199
      vertex 80.2897 -28 6.59219
    endloop
  endfacet
  facet normal 0.647381 0 -0.762166
    outer loop
      vertex 80.1246 -26 6.45199
      vertex 80.2897 -26 6.59219
      vertex 80.2897 -28 6.59219
    endloop
  endfacet
  facet normal 0.561192 0 -0.827686
    outer loop
      vertex 80.2897 -28 6.59219
      vertex 80.2897 -26 6.59219
      vertex 80.4689 -28 6.71371
    endloop
  endfacet
  facet normal 0.561192 0 -0.827686
    outer loop
      vertex 80.2897 -26 6.59219
      vertex 80.4689 -26 6.71371
      vertex 80.4689 -28 6.71371
    endloop
  endfacet
  facet normal 0.468405 0 -0.883514
    outer loop
      vertex 80.4689 -28 6.71371
      vertex 80.4689 -26 6.71371
      vertex 80.6602 -28 6.81515
    endloop
  endfacet
  facet normal 0.468405 0 -0.883514
    outer loop
      vertex 80.4689 -26 6.71371
      vertex 80.6602 -26 6.81515
      vertex 80.6602 -28 6.81515
    endloop
  endfacet
  facet normal 0.370142 0 -0.928975
    outer loop
      vertex 80.6602 -28 6.81515
      vertex 80.6602 -26 6.81515
      vertex 80.8614 -28 6.89531
    endloop
  endfacet
  facet normal 0.370142 0 -0.928975
    outer loop
      vertex 80.6602 -26 6.81515
      vertex 80.8614 -26 6.89531
      vertex 80.8614 -28 6.89531
    endloop
  endfacet
  facet normal 0.26753 0 -0.96355
    outer loop
      vertex 80.8614 -28 6.89531
      vertex 80.8614 -26 6.89531
      vertex 81.0701 -28 6.95324
    endloop
  endfacet
  facet normal 0.26753 0 -0.96355
    outer loop
      vertex 80.8614 -26 6.89531
      vertex 81.0701 -26 6.95324
      vertex 81.0701 -28 6.95324
    endloop
  endfacet
  facet normal 0.161779 0 -0.986827
    outer loop
      vertex 81.0701 -28 6.95324
      vertex 81.0701 -26 6.95324
      vertex 81.2838 -28 6.98828
    endloop
  endfacet
  facet normal 0.161779 0 -0.986827
    outer loop
      vertex 81.0701 -26 6.95324
      vertex 81.2838 -26 6.98828
      vertex 81.2838 -28 6.98828
    endloop
  endfacet
  facet normal 0.0541404 0 -0.998533
    outer loop
      vertex 81.2838 -28 6.98828
      vertex 81.2838 -26 6.98828
      vertex 81.5 -28 7
    endloop
  endfacet
  facet normal 0.0541404 0 -0.998533
    outer loop
      vertex 81.2838 -26 6.98828
      vertex 81.5 -26 7
      vertex 81.5 -28 7
    endloop
  endfacet
  facet normal -1 0 0
    outer loop
      vertex -20 -28 26.5
      vertex -20 -28 33.5
      vertex -20 -26 26.5
    endloop
  endfacet
  facet normal -1 0 0
    outer loop
      vertex -20 -28 33.5
      vertex -20 -26 33.5
      vertex -20 -26 26.5
    endloop
  endfacet
  facet normal 1 0 0
    outer loop
      vertex 189 -26 -3.46945e-14
      vertex 189 -26 30
      vertex 189 -28 -3.46945e-14
    endloop
  endfacet
  facet normal 1 0 0
    outer loop
      vertex 189 -26 30
      vertex 189 -28 30
      vertex 189 -28 -3.46945e-14
    endloop
  endfacet
  facet normal 0 1 0
    outer loop
      vertex -3.10982 -26 59.8384
      vertex -3.67394e-15 -26 60
      vertex -20 -26 33.5
    endloop
  endfacet
  facet normal 0 1 0
    outer loop
      vertex -24.1313 -26 47.8236
      vertex -22.1537 -26 50.229
      vertex -20 -26 33.5
    endloop
  endfacet
  facet normal 0 1 0
    outer loop
      vertex -6.18614 -26 0.644734
      vertex -20 -26 26.5
      vertex -3.10982 -26 0.161619
    endloop
  endfacet
  facet normal 0 1 0
    outer loop
      vertex -20 -26 26.5
      vertex 0 -26 -1.22337e-14
      vertex -3.10982 -26 0.161619
    endloop
  endfacet
  facet normal 0 1 0
    outer loop
      vertex -6.18614 -26 0.644734
      vertex -9.19581 -26 1.44414
      vertex -20 -26 26.5
    endloop
  endfacet
  facet normal 0 1 0
    outer loop
      vertex -9.19581 -26 1.44414
      vertex -12.1064 -26 2.55122
      vertex -20 -26 26.5
    endloop
  endfacet
  facet normal 0 1 0
    outer loop
      vertex -20 -26 26.5
      vertex -12.1064 -26 2.55122
      vertex -14.8865 -26 3.95406
    endloop
  endfacet
  facet normal 0 1 0
    outer loop
      vertex -22.1537 -26 9.77098
      vertex -24.1313 -26 12.1764
      vertex -20 -26 26.5
    endloop
  endfacet
  facet normal 0 1 0
    outer loop
      vertex -24.1313 -26 12.1764
      vertex -25.8489 -26 14.7739
      vertex -20 -26 26.5
    endloop
  endfacet
  facet normal 0 1 0
    outer loop
      vertex -20 -26 26.5
      vertex -25.8489 -26 14.7739
      vertex -27.288 -26 17.5355
    endloop
  endfacet
  facet normal 0 1 0
    outer loop
      vertex -27.288 -26 17.5355
      vertex -28.4331 -26 20.4313
      vertex -20 -26 26.5
    endloop
  endfacet
  facet normal 0 1 0
    outer loop
      vertex -28.4331 -26 20.4313
      vertex -29.2718 -26 23.4303
      vertex -20 -26 26.5
    endloop
  endfacet
  facet normal 0 1 0
    outer loop
      vertex -20 -26 26.5
      vertex -29.2718 -26 23.4303
      vertex -29.7951 -26 26.5
    endloop
  endfacet
  facet normal 0 1 0
    outer loop
      vertex 79.5029 -26 5.10828
      vertex 79.5029 -26 4.89172
      vertex 0 -26 -1.22337e-14
    endloop
  endfacet
  facet normal 0 1 0
    outer loop
      vertex -29.7951 -26 33.5
      vertex -29.2718 -26 36.5697
      vertex -20 -26 33.5
    endloop
  endfacet
  facet normal 0 1 0
    outer loop
      vertex -29.2718 -26 36.5697
      vertex -28.4331 -26 39.5687
      vertex -20 -26 33.5
    endloop
  endfacet
  facet normal 0 1 0
    outer loop
      vertex -14.8865 -26 3.95406
      vertex -17.5063 -26 5.63753
      vertex -20 -26 26.5
    endloop
  endfacet
  facet normal 0 1 0
    outer loop
      vertex -17.5063 -26 5.63753
      vertex -19.9374 -26 7.58349
      vertex -20 -26 26.5
    endloop
  endfacet
  facet normal 0 1 0
    outer loop
      vertex -20 -26 26.5
      vertex -19.9374 -26 7.58349
      vertex -22.1537 -26 9.77098
    endloop
  endfacet
  facet normal 0 1 0
    outer loop
      vertex 83.0243 -26 3.70523
      vertex 83.1554 -26 3.87763
      vertex 189 -26 -3.46945e-14
    endloop
  endfacet
  facet normal 0 1 0
    outer loop
      vertex -28.4331 -26 39.5687
      vertex -27.288 -26 42.4645
      vertex -20 -26 33.5
    endloop
  endfacet
  facet normal 0 1 0
    outer loop
      vertex -27.288 -26 42.4645
      vertex -25.8489 -26 45.2261
      vertex -20 -26 33.5
    endloop
  endfacet
  facet normal 0 1 0
    outer loop
      vertex -20 -26 33.5
      vertex -25.8489 -26 45.2261
      vertex -24.1313 -26 47.8236
    endloop
  endfacet
  facet normal 0 1 0
    outer loop
      vertex -14.8865 -26 56.0459
      vertex -12.1064 -26 57.4488
      vertex -20 -26 33.5
    endloop
  endfacet
  facet normal 0 1 0
    outer loop
      vertex 0.878079 -26 32.606
      vertex 0.591169 -26 32.6857
      vertex -3.67394e-15 -26 60
    endloop
  endfacet
  facet normal 0 1 0
    outer loop
      vertex 79.5029 -26 4.89172
      vertex 79.5263 -26 4.67644
      vertex 0 -26 -1.22337e-14
    endloop
  endfacet
  facet normal 0 1 0
    outer loop
      vertex 79.5263 -26 4.67644
      vertex 79.5729 -26 4.46494
      vertex 0 -26 -1.22337e-14
    endloop
  endfacet
  facet normal 0 1 0
    outer loop
      vertex 0 -26 -1.22337e-14
      vertex 79.5729 -26 4.46494
      vertex 79.642 -26 4.25972
    endloop
  endfacet
  facet normal 0 1 0
    outer loop
      vertex 79.642 -26 4.25972
      vertex 79.733 -26 4.06318
      vertex 0 -26 -1.22337e-14
    endloop
  endfacet
  facet normal 0 1 0
    outer loop
      vertex 79.733 -26 4.06318
      vertex 79.8446 -26 3.87763
      vertex 0 -26 -1.22337e-14
    endloop
  endfacet
  facet normal 0 1 0
    outer loop
      vertex 0 -26 -1.22337e-14
      vertex 79.8446 -26 3.87763
      vertex 79.9757 -26 3.70523
    endloop
  endfacet
  facet normal 0 1 0
    outer loop
      vertex 83.1554 -26 3.87763
      vertex 83.267 -26 4.06318
      vertex 189 -26 -3.46945e-14
    endloop
  endfacet
  facet normal 0 1 0
    outer loop
      vertex 83.267 -26 4.06318
      vertex 83.358 -26 4.25972
      vertex 189 -26 -3.46945e-14
    endloop
  endfacet
  facet normal 0 1 0
    outer loop
      vertex 189 -26 -3.46945e-14
      vertex 83.358 -26 4.25972
      vertex 83.4271 -26 4.46494
    endloop
  endfacet
  facet normal 0 1 0
    outer loop
      vertex -12.1064 -26 57.4488
      vertex -9.19581 -26 58.5559
      vertex -20 -26 33.5
    endloop
  endfacet
  facet normal 0 1 0
    outer loop
      vertex -9.19581 -26 58.5559
      vertex -6.18614 -26 59.3553
      vertex -20 -26 33.5
    endloop
  endfacet
  facet normal 0 1 0
    outer loop
      vertex -20 -26 33.5
      vertex -6.18614 -26 59.3553
      vertex -3.10982 -26 59.8384
    endloop
  endfacet
  facet normal 0 1 0
    outer loop
      vertex 83.4737 -26 5.32356
      vertex 83.4271 -26 5.53506
      vertex 189 -26 30
    endloop
  endfacet
  facet normal 0 1 0
    outer loop
      vertex 83.4271 -26 5.53506
      vertex 83.358 -26 5.74028
      vertex 189 -26 30
    endloop
  endfacet
  facet normal 0 1 0
    outer loop
      vertex 83.358 -26 5.74028
      vertex 83.267 -26 5.93682
      vertex 189 -26 30
    endloop
  endfacet
  facet normal 0 1 0
    outer loop
      vertex 189 -26 30
      vertex 83.267 -26 5.93682
      vertex 83.1554 -26 6.12237
    endloop
  endfacet
  facet normal 0 1 0
    outer loop
      vertex 81.7162 -26 6.98828
      vertex 81.5 -26 7
      vertex 23.2947 -26 60
    endloop
  endfacet
  facet normal 0 1 0
    outer loop
      vertex 81.5 -26 7
      vertex 81.2838 -26 6.98828
      vertex 23.2947 -26 60
    endloop
  endfacet
  facet normal 0 1 0
    outer loop
      vertex 23.2947 -26 60
      vertex 81.2838 -26 6.98828
      vertex 81.0701 -26 6.95324
    endloop
  endfacet
  facet normal 0 1 0
    outer loop
      vertex 81.0701 -26 6.95324
      vertex 80.8614 -26 6.89531
      vertex 23.2947 -26 60
    endloop
  endfacet
  facet normal 0 1 0
    outer loop
      vertex 80.8614 -26 6.89531
      vertex 80.6602 -26 6.81515
      vertex 23.2947 -26 60
    endloop
  endfacet
  facet normal 0 1 0
    outer loop
      vertex 23.2947 -26 60
      vertex 80.6602 -26 6.81515
      vertex 80.4689 -26 6.71371
    endloop
  endfacet
  facet normal 0 1 0
    outer loop
      vertex 80.4689 -26 6.71371
      vertex 80.2897 -26 6.59219
      vertex 23.2947 -26 60
    endloop
  endfacet
  facet normal 0 1 0
    outer loop
      vertex 80.2897 -26 6.59219
      vertex 80.1246 -26 6.45199
      vertex 23.2947 -26 60
    endloop
  endfacet
  facet normal 0 1 0
    outer loop
      vertex 23.2947 -26 60
      vertex 80.1246 -26 6.45199
      vertex -3.67394e-15 -26 60
    endloop
  endfacet
  facet normal 0 1 0
    outer loop
      vertex 80.1246 -26 6.45199
      vertex 79.9757 -26 6.29477
      vertex -3.67394e-15 -26 60
    endloop
  endfacet
  facet normal 0 1 0
    outer loop
      vertex 83.4271 -26 4.46494
      vertex 83.4737 -26 4.67644
      vertex 189 -26 -3.46945e-14
    endloop
  endfacet
  facet normal 0 1 0
    outer loop
      vertex 83.4737 -26 4.67644
      vertex 83.4971 -26 4.89172
      vertex 189 -26 -3.46945e-14
    endloop
  endfacet
  facet normal 0 1 0
    outer loop
      vertex 189 -26 -3.46945e-14
      vertex 83.4971 -26 4.89172
      vertex 189 -26 30
    endloop
  endfacet
  facet normal 0 1 0
    outer loop
      vertex 83.4971 -26 4.89172
      vertex 83.4971 -26 5.10828
      vertex 189 -26 30
    endloop
  endfacet
  facet normal 0 1 0
    outer loop
      vertex 189 -26 30
      vertex 83.4971 -26 5.10828
      vertex 83.4737 -26 5.32356
    endloop
  endfacet
  facet normal 0 1 0
    outer loop
      vertex 82.5311 -26 6.71371
      vertex 82.3398 -26 6.81515
      vertex 23.2947 -26 60
    endloop
  endfacet
  facet normal 0 1 0
    outer loop
      vertex -22.1537 -26 50.229
      vertex -19.9374 -26 52.4165
      vertex -20 -26 33.5
    endloop
  endfacet
  facet normal 0 1 0
    outer loop
      vertex -19.9374 -26 52.4165
      vertex -17.5063 -26 54.3625
      vertex -20 -26 33.5
    endloop
  endfacet
  facet normal 0 1 0
    outer loop
      vertex -20 -26 33.5
      vertex -17.5063 -26 54.3625
      vertex -14.8865 -26 56.0459
    endloop
  endfacet
  facet normal 0 1 0
    outer loop
      vertex 1.1547 -26 27.5042
      vertex 1.41777 -26 27.6436
      vertex 79.5729 -26 5.53506
    endloop
  endfacet
  facet normal 0 1 0
    outer loop
      vertex 82.5311 -26 3.28629
      vertex 82.7103 -26 3.40781
      vertex 189 -26 -3.46945e-14
    endloop
  endfacet
  facet normal 0 1 0
    outer loop
      vertex 82.7103 -26 3.40781
      vertex 82.8754 -26 3.54801
      vertex 189 -26 -3.46945e-14
    endloop
  endfacet
  facet normal 0 1 0
    outer loop
      vertex 189 -26 -3.46945e-14
      vertex 82.8754 -26 3.54801
      vertex 83.0243 -26 3.70523
    endloop
  endfacet
  facet normal 0 1 0
    outer loop
      vertex 82.3398 -26 6.81515
      vertex 82.1386 -26 6.89531
      vertex 23.2947 -26 60
    endloop
  endfacet
  facet normal 0 1 0
    outer loop
      vertex 82.1386 -26 6.89531
      vertex 81.9299 -26 6.95324
      vertex 23.2947 -26 60
    endloop
  endfacet
  facet normal 0 1 0
    outer loop
      vertex 23.2947 -26 60
      vertex 81.9299 -26 6.95324
      vertex 81.7162 -26 6.98828
    endloop
  endfacet
  facet normal 0 1 0
    outer loop
      vertex 1.1547 -26 27.5042
      vertex 79.5729 -26 5.53506
      vertex 0.878079 -26 27.394
    endloop
  endfacet
  facet normal 0 1 0
    outer loop
      vertex 79.5729 -26 5.53506
      vertex 2.09595 -26 28.2197
      vertex 2.27614 -26 28.4567
    endloop
  endfacet
  facet normal 0 1 0
    outer loop
      vertex 79.9757 -26 6.29477
      vertex 79.8446 -26 6.12237
      vertex -3.67394e-15 -26 60
    endloop
  endfacet
  facet normal 0 1 0
    outer loop
      vertex 79.8446 -26 6.12237
      vertex 79.733 -26 5.93682
      vertex -3.67394e-15 -26 60
    endloop
  endfacet
  facet normal 0 1 0
    outer loop
      vertex -3.67394e-15 -26 60
      vertex 79.733 -26 5.93682
      vertex 0.878079 -26 32.606
    endloop
  endfacet
  facet normal 0 1 0
    outer loop
      vertex 79.733 -26 5.93682
      vertex 79.642 -26 5.74028
      vertex 0.878079 -26 32.606
    endloop
  endfacet
  facet normal 0 1 0
    outer loop
      vertex 0.878079 -26 32.606
      vertex 79.642 -26 5.74028
      vertex 1.1547 -26 32.4958
    endloop
  endfacet
  facet normal 0 1 0
    outer loop
      vertex 79.642 -26 5.74028
      vertex 1.41777 -26 32.3564
      vertex 1.1547 -26 32.4958
    endloop
  endfacet
  facet normal 0 1 0
    outer loop
      vertex -1.41777 -26 27.6436
      vertex -1.1547 -26 27.5042
      vertex 0 -26 -1.22337e-14
    endloop
  endfacet
  facet normal 0 1 0
    outer loop
      vertex -1.1547 -26 27.5042
      vertex -0.878079 -26 27.394
      vertex 0 -26 -1.22337e-14
    endloop
  endfacet
  facet normal 0 1 0
    outer loop
      vertex 0 -26 -1.22337e-14
      vertex -0.878079 -26 27.394
      vertex -0.591169 -26 27.3143
    endloop
  endfacet
  facet normal 0 1 0
    outer loop
      vertex 79.9757 -26 3.70523
      vertex 80.1246 -26 3.54801
      vertex 0 -26 -1.22337e-14
    endloop
  endfacet
  facet normal 0 1 0
    outer loop
      vertex 80.1246 -26 3.54801
      vertex 80.2897 -26 3.40781
      vertex 0 -26 -1.22337e-14
    endloop
  endfacet
  facet normal 0 1 0
    outer loop
      vertex 0 -26 -1.22337e-14
      vertex 80.2897 -26 3.40781
      vertex 80.4689 -26 3.28629
    endloop
  endfacet
  facet normal 0 1 0
    outer loop
      vertex 83.1554 -26 6.12237
      vertex 83.0243 -26 6.29477
      vertex 189 -26 30
    endloop
  endfacet
  facet normal 0 1 0
    outer loop
      vertex 83.0243 -26 6.29477
      vertex 82.8754 -26 6.45199
      vertex 189 -26 30
    endloop
  endfacet
  facet normal 0 1 0
    outer loop
      vertex 189 -26 30
      vertex 82.8754 -26 6.45199
      vertex 23.2947 -26 60
    endloop
  endfacet
  facet normal 0 1 0
    outer loop
      vertex 82.8754 -26 6.45199
      vertex 82.7103 -26 6.59219
      vertex 23.2947 -26 60
    endloop
  endfacet
  facet normal 0 1 0
    outer loop
      vertex 23.2947 -26 60
      vertex 82.7103 -26 6.59219
      vertex 82.5311 -26 6.71371
    endloop
  endfacet
  facet normal 0 1 0
    outer loop
      vertex 1.41777 -26 27.6436
      vertex 1.66423 -26 27.8107
      vertex 79.5729 -26 5.53506
    endloop
  endfacet
  facet normal 0 1 0
    outer loop
      vertex 1.66423 -26 27.8107
      vertex 1.89117 -26 28.0035
      vertex 79.5729 -26 5.53506
    endloop
  endfacet
  facet normal 0 1 0
    outer loop
      vertex 79.5729 -26 5.53506
      vertex 1.89117 -26 28.0035
      vertex 2.09595 -26 28.2197
    endloop
  endfacet
  facet normal 0 1 0
    outer loop
      vertex 2.27614 -26 28.4567
      vertex 2.42966 -26 28.7119
      vertex 79.5729 -26 5.53506
    endloop
  endfacet
  facet normal 0 1 0
    outer loop
      vertex 2.42966 -26 28.7119
      vertex 2.55469 -26 28.9821
      vertex 79.5729 -26 5.53506
    endloop
  endfacet
  facet normal 0 1 0
    outer loop
      vertex 79.5729 -26 5.53506
      vertex 2.55469 -26 28.9821
      vertex 79.642 -26 5.74028
    endloop
  endfacet
  facet normal 0 1 0
    outer loop
      vertex 2.55469 -26 28.9821
      vertex 2.64976 -26 29.2643
      vertex 79.642 -26 5.74028
    endloop
  endfacet
  facet normal 0 1 0
    outer loop
      vertex 79.642 -26 5.74028
      vertex 2.64976 -26 29.2643
      vertex 2.71377 -26 29.5551
    endloop
  endfacet
  facet normal 0 1 0
    outer loop
      vertex 2.55469 -26 31.0179
      vertex 79.642 -26 5.74028
      vertex 2.64976 -26 30.7357
    endloop
  endfacet
  facet normal 0 1 0
    outer loop
      vertex 79.642 -26 5.74028
      vertex 2.71377 -26 30.4449
      vertex 2.64976 -26 30.7357
    endloop
  endfacet
  facet normal 0 1 0
    outer loop
      vertex 0.591169 -26 32.6857
      vertex 0.297327 -26 32.7339
      vertex -3.67394e-15 -26 60
    endloop
  endfacet
  facet normal 0 1 0
    outer loop
      vertex 0.297327 -26 32.7339
      vertex 0 -26 32.75
      vertex -3.67394e-15 -26 60
    endloop
  endfacet
  facet normal 0 1 0
    outer loop
      vertex -3.67394e-15 -26 60
      vertex 0 -26 32.75
      vertex -0.297327 -26 32.7339
    endloop
  endfacet
  facet normal 0 1 0
    outer loop
      vertex -20 -26 26.5
      vertex -2.42966 -26 28.7119
      vertex -2.27614 -26 28.4567
    endloop
  endfacet
  facet normal 0 1 0
    outer loop
      vertex 80.4689 -26 3.28629
      vertex 80.6602 -26 3.18485
      vertex 0 -26 -1.22337e-14
    endloop
  endfacet
  facet normal 0 1 0
    outer loop
      vertex 80.6602 -26 3.18485
      vertex 80.8614 -26 3.10469
      vertex 0 -26 -1.22337e-14
    endloop
  endfacet
  facet normal 0 1 0
    outer loop
      vertex 0 -26 -1.22337e-14
      vertex 80.8614 -26 3.10469
      vertex 81.0701 -26 3.04676
    endloop
  endfacet
  facet normal 0 1 0
    outer loop
      vertex 81.9299 -26 3.04676
      vertex 82.1386 -26 3.10469
      vertex 189 -26 -3.46945e-14
    endloop
  endfacet
  facet normal 0 1 0
    outer loop
      vertex 82.1386 -26 3.10469
      vertex 82.3398 -26 3.18485
      vertex 189 -26 -3.46945e-14
    endloop
  endfacet
  facet normal 0 1 0
    outer loop
      vertex 189 -26 -3.46945e-14
      vertex 82.3398 -26 3.18485
      vertex 82.5311 -26 3.28629
    endloop
  endfacet
  facet normal 0 1 0
    outer loop
      vertex 2.71377 -26 29.5551
      vertex 2.74597 -26 29.8511
      vertex 79.642 -26 5.74028
    endloop
  endfacet
  facet normal 0 1 0
    outer loop
      vertex 2.74597 -26 29.8511
      vertex 2.74597 -26 30.1489
      vertex 79.642 -26 5.74028
    endloop
  endfacet
  facet normal 0 1 0
    outer loop
      vertex 79.642 -26 5.74028
      vertex 2.74597 -26 30.1489
      vertex 2.71377 -26 30.4449
    endloop
  endfacet
  facet normal 0 1 0
    outer loop
      vertex 2.55469 -26 31.0179
      vertex 2.42966 -26 31.2881
      vertex 79.642 -26 5.74028
    endloop
  endfacet
  facet normal 0 1 0
    outer loop
      vertex 2.42966 -26 31.2881
      vertex 2.27614 -26 31.5433
      vertex 79.642 -26 5.74028
    endloop
  endfacet
  facet normal 0 1 0
    outer loop
      vertex 79.642 -26 5.74028
      vertex 2.27614 -26 31.5433
      vertex 2.09595 -26 31.7803
    endloop
  endfacet
  facet normal 0 1 0
    outer loop
      vertex -20 -26 33.5
      vertex -2.55469 -26 31.0179
      vertex -2.64976 -26 30.7357
    endloop
  endfacet
  facet normal 0 1 0
    outer loop
      vertex -2.71377 -26 29.5551
      vertex -2.64976 -26 29.2643
      vertex -20 -26 26.5
    endloop
  endfacet
  facet normal 0 1 0
    outer loop
      vertex -2.64976 -26 29.2643
      vertex -2.55469 -26 28.9821
      vertex -20 -26 26.5
    endloop
  endfacet
  facet normal 0 1 0
    outer loop
      vertex -20 -26 26.5
      vertex -2.55469 -26 28.9821
      vertex -2.42966 -26 28.7119
    endloop
  endfacet
  facet normal 0 1 0
    outer loop
      vertex -2.27614 -26 28.4567
      vertex -2.09595 -26 28.2197
      vertex -20 -26 26.5
    endloop
  endfacet
  facet normal 0 1 0
    outer loop
      vertex -2.09595 -26 28.2197
      vertex -1.89117 -26 28.0035
      vertex -20 -26 26.5
    endloop
  endfacet
  facet normal 0 1 0
    outer loop
      vertex -20 -26 26.5
      vertex -1.89117 -26 28.0035
      vertex 0 -26 -1.22337e-14
    endloop
  endfacet
  facet normal 0 1 0
    outer loop
      vertex -1.89117 -26 28.0035
      vertex -1.66423 -26 27.8107
      vertex 0 -26 -1.22337e-14
    endloop
  endfacet
  facet normal 0 1 0
    outer loop
      vertex 0 -26 -1.22337e-14
      vertex -1.66423 -26 27.8107
      vertex -1.41777 -26 27.6436
    endloop
  endfacet
  facet normal 0 1 0
    outer loop
      vertex 81.0701 -26 3.04676
      vertex 81.2838 -26 3.01172
      vertex 0 -26 -1.22337e-14
    endloop
  endfacet
  facet normal 0 1 0
    outer loop
      vertex 81.2838 -26 3.01172
      vertex 81.5 -26 3
      vertex 0 -26 -1.22337e-14
    endloop
  endfacet
  facet normal 0 1 0
    outer loop
      vertex 0 -26 -1.22337e-14
      vertex 81.5 -26 3
      vertex 189 -26 -3.46945e-14
    endloop
  endfacet
  facet normal 0 1 0
    outer loop
      vertex 81.5 -26 3
      vertex 81.7162 -26 3.01172
      vertex 189 -26 -3.46945e-14
    endloop
  endfacet
  facet normal 0 1 0
    outer loop
      vertex 189 -26 -3.46945e-14
      vertex 81.7162 -26 3.01172
      vertex 81.9299 -26 3.04676
    endloop
  endfacet
  facet normal 0 1 0
    outer loop
      vertex 2.09595 -26 31.7803
      vertex 1.89117 -26 31.9965
      vertex 79.642 -26 5.74028
    endloop
  endfacet
  facet normal 0 1 0
    outer loop
      vertex 1.89117 -26 31.9965
      vertex 1.66423 -26 32.1893
      vertex 79.642 -26 5.74028
    endloop
  endfacet
  facet normal 0 1 0
    outer loop
      vertex 79.642 -26 5.74028
      vertex 1.66423 -26 32.1893
      vertex 1.41777 -26 32.3564
    endloop
  endfacet
  facet normal 0 1 0
    outer loop
      vertex -0.297327 -26 32.7339
      vertex -0.591169 -26 32.6857
      vertex -3.67394e-15 -26 60
    endloop
  endfacet
  facet normal 0 1 0
    outer loop
      vertex -0.591169 -26 32.6857
      vertex -0.878079 -26 32.606
      vertex -3.67394e-15 -26 60
    endloop
  endfacet
  facet normal 0 1 0
    outer loop
      vertex -3.67394e-15 -26 60
      vertex -0.878079 -26 32.606
      vertex -1.1547 -26 32.4958
    endloop
  endfacet
  facet normal 0 1 0
    outer loop
      vertex 79.5029 -26 5.10828
      vertex 0 -26 -1.22337e-14
      vertex 79.5263 -26 5.32356
    endloop
  endfacet
  facet normal 0 1 0
    outer loop
      vertex 0 -26 -1.22337e-14
      vertex -0.591169 -26 27.3143
      vertex 79.5263 -26 5.32356
    endloop
  endfacet
  facet normal 0 1 0
    outer loop
      vertex 79.5263 -26 5.32356
      vertex -0.591169 -26 27.3143
      vertex 79.5729 -26 5.53506
    endloop
  endfacet
  facet normal 0 1 0
    outer loop
      vertex -0.591169 -26 27.3143
      vertex -0.297327 -26 27.2661
      vertex 79.5729 -26 5.53506
    endloop
  endfacet
  facet normal 0 1 0
    outer loop
      vertex 79.5729 -26 5.53506
      vertex -0.297327 -26 27.2661
      vertex 1.01033e-15 -26 27.25
    endloop
  endfacet
  facet normal 0 1 0
    outer loop
      vertex 1.01033e-15 -26 27.25
      vertex 0.297327 -26 27.2661
      vertex 79.5729 -26 5.53506
    endloop
  endfacet
  facet normal 0 1 0
    outer loop
      vertex 0.297327 -26 27.2661
      vertex 0.591169 -26 27.3143
      vertex 79.5729 -26 5.53506
    endloop
  endfacet
  facet normal 0 1 0
    outer loop
      vertex 79.5729 -26 5.53506
      vertex 0.591169 -26 27.3143
      vertex 0.878079 -26 27.394
    endloop
  endfacet
  facet normal 0 1 0
    outer loop
      vertex -2.09595 -26 31.7803
      vertex -2.27614 -26 31.5433
      vertex -20 -26 33.5
    endloop
  endfacet
  facet normal 0 1 0
    outer loop
      vertex -2.27614 -26 31.5433
      vertex -2.42966 -26 31.2881
      vertex -20 -26 33.5
    endloop
  endfacet
  facet normal 0 1 0
    outer loop
      vertex -20 -26 33.5
      vertex -2.42966 -26 31.2881
      vertex -2.55469 -26 31.0179
    endloop
  endfacet
  facet normal 0 1 0
    outer loop
      vertex -2.64976 -26 30.7357
      vertex -2.71377 -26 30.4449
      vertex -20 -26 33.5
    endloop
  endfacet
  facet normal 0 1 0
    outer loop
      vertex -2.71377 -26 30.4449
      vertex -2.74597 -26 30.1489
      vertex -20 -26 33.5
    endloop
  endfacet
  facet normal 0 1 0
    outer loop
      vertex -20 -26 33.5
      vertex -2.74597 -26 30.1489
      vertex -20 -26 26.5
    endloop
  endfacet
  facet normal 0 1 0
    outer loop
      vertex -2.74597 -26 30.1489
      vertex -2.74597 -26 29.8511
      vertex -20 -26 26.5
    endloop
  endfacet
  facet normal 0 1 0
    outer loop
      vertex -20 -26 26.5
      vertex -2.74597 -26 29.8511
      vertex -2.71377 -26 29.5551
    endloop
  endfacet
  facet normal 0 1 0
    outer loop
      vertex -1.1547 -26 32.4958
      vertex -1.41777 -26 32.3564
      vertex -3.67394e-15 -26 60
    endloop
  endfacet
  facet normal 0 1 0
    outer loop
      vertex -1.41777 -26 32.3564
      vertex -1.66423 -26 32.1893
      vertex -3.67394e-15 -26 60
    endloop
  endfacet
  facet normal 0 1 0
    outer loop
      vertex -3.67394e-15 -26 60
      vertex -1.66423 -26 32.1893
      vertex -20 -26 33.5
    endloop
  endfacet
  facet normal 0 1 0
    outer loop
      vertex -1.66423 -26 32.1893
      vertex -1.89117 -26 31.9965
      vertex -20 -26 33.5
    endloop
  endfacet
  facet normal 0 1 0
    outer loop
      vertex -20 -26 33.5
      vertex -1.89117 -26 31.9965
      vertex -2.09595 -26 31.7803
    endloop
  endfacet
  facet normal -0.0541346 0 -0.998534
    outer loop
      vertex 0 -28 32.75
      vertex 0 -26 32.75
      vertex 0.297327 -28 32.7339
    endloop
  endfacet
  facet normal -0.0541346 0 -0.998534
    outer loop
      vertex 0 -26 32.75
      vertex 0.297327 -26 32.7339
      vertex 0.297327 -28 32.7339
    endloop
  endfacet
  facet normal -0.161778 0 -0.986827
    outer loop
      vertex 0.297327 -28 32.7339
      vertex 0.297327 -26 32.7339
      vertex 0.591169 -28 32.6857
    endloop
  endfacet
  facet normal -0.161778 0 -0.986827
    outer loop
      vertex 0.297327 -26 32.7339
      vertex 0.591169 -26 32.6857
      vertex 0.591169 -28 32.6857
    endloop
  endfacet
  facet normal -0.267532 0 -0.963549
    outer loop
      vertex 0.591169 -28 32.6857
      vertex 0.591169 -26 32.6857
      vertex 0.878079 -28 32.606
    endloop
  endfacet
  facet normal -0.267532 0 -0.963549
    outer loop
      vertex 0.591169 -26 32.6857
      vertex 0.878079 -26 32.606
      vertex 0.878079 -28 32.606
    endloop
  endfacet
  facet normal -0.370135 0 -0.928978
    outer loop
      vertex 0.878079 -28 32.606
      vertex 0.878079 -26 32.606
      vertex 1.1547 -28 32.4958
    endloop
  endfacet
  facet normal -0.370135 0 -0.928978
    outer loop
      vertex 0.878079 -26 32.606
      vertex 1.1547 -26 32.4958
      vertex 1.1547 -28 32.4958
    endloop
  endfacet
  facet normal -0.468408 0 -0.883512
    outer loop
      vertex 1.1547 -28 32.4958
      vertex 1.1547 -26 32.4958
      vertex 1.41777 -28 32.3564
    endloop
  endfacet
  facet normal -0.468408 0 -0.883512
    outer loop
      vertex 1.1547 -26 32.4958
      vertex 1.41777 -26 32.3564
      vertex 1.41777 -28 32.3564
    endloop
  endfacet
  facet normal -0.561188 0 -0.827689
    outer loop
      vertex 1.41777 -28 32.3564
      vertex 1.41777 -26 32.3564
      vertex 1.66423 -28 32.1893
    endloop
  endfacet
  facet normal -0.561188 0 -0.827689
    outer loop
      vertex 1.41777 -26 32.3564
      vertex 1.66423 -26 32.1893
      vertex 1.66423 -28 32.1893
    endloop
  endfacet
  facet normal -0.647387 0 -0.762161
    outer loop
      vertex 1.66423 -28 32.1893
      vertex 1.66423 -26 32.1893
      vertex 1.89117 -28 31.9965
    endloop
  endfacet
  facet normal -0.647387 0 -0.762161
    outer loop
      vertex 1.66423 -26 32.1893
      vertex 1.89117 -26 31.9965
      vertex 1.89117 -28 31.9965
    endloop
  endfacet
  facet normal -0.725995 0 -0.6877
    outer loop
      vertex 1.89117 -28 31.9965
      vertex 1.89117 -26 31.9965
      vertex 2.09595 -28 31.7803
    endloop
  endfacet
  facet normal -0.725995 0 -0.6877
    outer loop
      vertex 1.89117 -26 31.9965
      vertex 2.09595 -26 31.7803
      vertex 2.09595 -28 31.7803
    endloop
  endfacet
  facet normal -0.796093 0 -0.605174
    outer loop
      vertex 2.09595 -28 31.7803
      vertex 2.09595 -26 31.7803
      vertex 2.27614 -28 31.5433
    endloop
  endfacet
  facet normal -0.796093 0 -0.605174
    outer loop
      vertex 2.09595 -26 31.7803
      vertex 2.27614 -26 31.5433
      vertex 2.27614 -28 31.5433
    endloop
  endfacet
  facet normal -0.856857 0 -0.515554
    outer loop
      vertex 2.27614 -28 31.5433
      vertex 2.27614 -26 31.5433
      vertex 2.42966 -28 31.2881
    endloop
  endfacet
  facet normal -0.856857 0 -0.515554
    outer loop
      vertex 2.27614 -26 31.5433
      vertex 2.42966 -26 31.2881
      vertex 2.42966 -28 31.2881
    endloop
  endfacet
  facet normal -0.907577 0 -0.419886
    outer loop
      vertex 2.42966 -28 31.2881
      vertex 2.42966 -26 31.2881
      vertex 2.55469 -28 31.0179
    endloop
  endfacet
  facet normal -0.907577 0 -0.419886
    outer loop
      vertex 2.42966 -26 31.2881
      vertex 2.55469 -26 31.0179
      vertex 2.55469 -28 31.0179
    endloop
  endfacet
  facet normal -0.947653 0 -0.319302
    outer loop
      vertex 2.55469 -28 31.0179
      vertex 2.55469 -26 31.0179
      vertex 2.64976 -28 30.7357
    endloop
  endfacet
  facet normal -0.947653 0 -0.319302
    outer loop
      vertex 2.55469 -26 31.0179
      vertex 2.64976 -26 30.7357
      vertex 2.64976 -28 30.7357
    endloop
  endfacet
  facet normal -0.976621 0 -0.21497
    outer loop
      vertex 2.64976 -28 30.7357
      vertex 2.64976 -26 30.7357
      vertex 2.71377 -28 30.4449
    endloop
  endfacet
  facet normal -0.976621 0 -0.21497
    outer loop
      vertex 2.64976 -26 30.7357
      vertex 2.71377 -26 30.4449
      vertex 2.71377 -28 30.4449
    endloop
  endfacet
  facet normal -0.994138 0 -0.10812
    outer loop
      vertex 2.71377 -28 30.4449
      vertex 2.71377 -26 30.4449
      vertex 2.74597 -28 30.1489
    endloop
  endfacet
  facet normal -0.994138 0 -0.10812
    outer loop
      vertex 2.71377 -26 30.4449
      vertex 2.74597 -26 30.1489
      vertex 2.74597 -28 30.1489
    endloop
  endfacet
  facet normal -1 0 0
    outer loop
      vertex 2.74597 -28 30.1489
      vertex 2.74597 -26 30.1489
      vertex 2.74597 -28 29.8511
    endloop
  endfacet
  facet normal -1 0 0
    outer loop
      vertex 2.74597 -26 30.1489
      vertex 2.74597 -26 29.8511
      vertex 2.74597 -28 29.8511
    endloop
  endfacet
  facet normal -0.994138 0 0.108119
    outer loop
      vertex 2.74597 -28 29.8511
      vertex 2.74597 -26 29.8511
      vertex 2.71377 -28 29.5551
    endloop
  endfacet
  facet normal -0.994138 0 0.108119
    outer loop
      vertex 2.74597 -26 29.8511
      vertex 2.71377 -26 29.5551
      vertex 2.71377 -28 29.5551
    endloop
  endfacet
  facet normal -0.97662 0 0.214971
    outer loop
      vertex 2.71377 -28 29.5551
      vertex 2.71377 -26 29.5551
      vertex 2.64976 -28 29.2643
    endloop
  endfacet
  facet normal -0.97662 0 0.214971
    outer loop
      vertex 2.71377 -26 29.5551
      vertex 2.64976 -26 29.2643
      vertex 2.64976 -28 29.2643
    endloop
  endfacet
  facet normal -0.947654 0 0.3193
    outer loop
      vertex 2.64976 -28 29.2643
      vertex 2.64976 -26 29.2643
      vertex 2.55469 -28 28.9821
    endloop
  endfacet
  facet normal -0.947654 0 0.3193
    outer loop
      vertex 2.64976 -26 29.2643
      vertex 2.55469 -26 28.9821
      vertex 2.55469 -28 28.9821
    endloop
  endfacet
  facet normal -0.907576 0 0.419889
    outer loop
      vertex 2.55469 -28 28.9821
      vertex 2.55469 -26 28.9821
      vertex 2.42966 -28 28.7119
    endloop
  endfacet
  facet normal -0.907576 0 0.419889
    outer loop
      vertex 2.55469 -26 28.9821
      vertex 2.42966 -26 28.7119
      vertex 2.42966 -28 28.7119
    endloop
  endfacet
  facet normal -0.856856 0 0.515556
    outer loop
      vertex 2.42966 -28 28.7119
      vertex 2.42966 -26 28.7119
      vertex 2.27614 -28 28.4567
    endloop
  endfacet
  facet normal -0.856856 0 0.515556
    outer loop
      vertex 2.42966 -26 28.7119
      vertex 2.27614 -26 28.4567
      vertex 2.27614 -28 28.4567
    endloop
  endfacet
  facet normal -0.796095 0 0.605171
    outer loop
      vertex 2.27614 -28 28.4567
      vertex 2.27614 -26 28.4567
      vertex 2.09595 -28 28.2197
    endloop
  endfacet
  facet normal -0.796095 0 0.605171
    outer loop
      vertex 2.27614 -26 28.4567
      vertex 2.09595 -26 28.2197
      vertex 2.09595 -28 28.2197
    endloop
  endfacet
  facet normal -0.725995 0 0.6877
    outer loop
      vertex 2.09595 -28 28.2197
      vertex 2.09595 -26 28.2197
      vertex 1.89117 -28 28.0035
    endloop
  endfacet
  facet normal -0.725995 0 0.6877
    outer loop
      vertex 2.09595 -26 28.2197
      vertex 1.89117 -26 28.0035
      vertex 1.89117 -28 28.0035
    endloop
  endfacet
  facet normal -0.647384 0 0.762164
    outer loop
      vertex 1.89117 -28 28.0035
      vertex 1.89117 -26 28.0035
      vertex 1.66423 -28 27.8107
    endloop
  endfacet
  facet normal -0.647384 0 0.762164
    outer loop
      vertex 1.89117 -26 28.0035
      vertex 1.66423 -26 27.8107
      vertex 1.66423 -28 27.8107
    endloop
  endfacet
  facet normal -0.561188 0 0.827689
    outer loop
      vertex 1.66423 -28 27.8107
      vertex 1.66423 -26 27.8107
      vertex 1.41777 -28 27.6436
    endloop
  endfacet
  facet normal -0.561188 0 0.827689
    outer loop
      vertex 1.66423 -26 27.8107
      vertex 1.41777 -26 27.6436
      vertex 1.41777 -28 27.6436
    endloop
  endfacet
  facet normal -0.468408 0 0.883512
    outer loop
      vertex 1.41777 -28 27.6436
      vertex 1.41777 -26 27.6436
      vertex 1.1547 -28 27.5042
    endloop
  endfacet
  facet normal -0.468408 0 0.883512
    outer loop
      vertex 1.41777 -26 27.6436
      vertex 1.1547 -26 27.5042
      vertex 1.1547 -28 27.5042
    endloop
  endfacet
  facet normal -0.37014 0 0.928976
    outer loop
      vertex 1.1547 -28 27.5042
      vertex 1.1547 -26 27.5042
      vertex 0.878079 -28 27.394
    endloop
  endfacet
  facet normal -0.37014 0 0.928976
    outer loop
      vertex 1.1547 -26 27.5042
      vertex 0.878079 -26 27.394
      vertex 0.878079 -28 27.394
    endloop
  endfacet
  facet normal -0.267527 0 0.96355
    outer loop
      vertex 0.878079 -28 27.394
      vertex 0.878079 -26 27.394
      vertex 0.591169 -28 27.3143
    endloop
  endfacet
  facet normal -0.267527 0 0.96355
    outer loop
      vertex 0.878079 -26 27.394
      vertex 0.591169 -26 27.3143
      vertex 0.591169 -28 27.3143
    endloop
  endfacet
  facet normal -0.161784 0 0.986826
    outer loop
      vertex 0.591169 -28 27.3143
      vertex 0.591169 -26 27.3143
      vertex 0.297327 -28 27.2661
    endloop
  endfacet
  facet normal -0.161784 0 0.986826
    outer loop
      vertex 0.591169 -26 27.3143
      vertex 0.297327 -26 27.2661
      vertex 0.297327 -28 27.2661
    endloop
  endfacet
  facet normal -0.0541408 0 0.998533
    outer loop
      vertex 0.297327 -28 27.2661
      vertex 0.297327 -26 27.2661
      vertex 3.36778e-16 -28 27.25
    endloop
  endfacet
  facet normal -0.0541408 1.94458e-17 0.998533
    outer loop
      vertex 0.297327 -26 27.2661
      vertex 1.01033e-15 -26 27.25
      vertex 3.36778e-16 -28 27.25
    endloop
  endfacet
  facet normal 0.0541408 -1.82334e-17 0.998533
    outer loop
      vertex 3.36778e-16 -28 27.25
      vertex 1.01033e-15 -26 27.25
      vertex -0.297327 -28 27.2661
    endloop
  endfacet
  facet normal 0.0541408 0 0.998533
    outer loop
      vertex 1.01033e-15 -26 27.25
      vertex -0.297327 -26 27.2661
      vertex -0.297327 -28 27.2661
    endloop
  endfacet
  facet normal 0.161784 0 0.986826
    outer loop
      vertex -0.297327 -28 27.2661
      vertex -0.297327 -26 27.2661
      vertex -0.591169 -28 27.3143
    endloop
  endfacet
  facet normal 0.161784 0 0.986826
    outer loop
      vertex -0.297327 -26 27.2661
      vertex -0.591169 -26 27.3143
      vertex -0.591169 -28 27.3143
    endloop
  endfacet
  facet normal 0.267527 0 0.96355
    outer loop
      vertex -0.591169 -28 27.3143
      vertex -0.591169 -26 27.3143
      vertex -0.878079 -28 27.394
    endloop
  endfacet
  facet normal 0.267527 0 0.96355
    outer loop
      vertex -0.591169 -26 27.3143
      vertex -0.878079 -26 27.394
      vertex -0.878079 -28 27.394
    endloop
  endfacet
  facet normal 0.37014 0 0.928976
    outer loop
      vertex -0.878079 -28 27.394
      vertex -0.878079 -26 27.394
      vertex -1.1547 -28 27.5042
    endloop
  endfacet
  facet normal 0.37014 0 0.928976
    outer loop
      vertex -0.878079 -26 27.394
      vertex -1.1547 -26 27.5042
      vertex -1.1547 -28 27.5042
    endloop
  endfacet
  facet normal 0.468408 0 0.883512
    outer loop
      vertex -1.1547 -28 27.5042
      vertex -1.1547 -26 27.5042
      vertex -1.41777 -28 27.6436
    endloop
  endfacet
  facet normal 0.468408 0 0.883512
    outer loop
      vertex -1.1547 -26 27.5042
      vertex -1.41777 -26 27.6436
      vertex -1.41777 -28 27.6436
    endloop
  endfacet
  facet normal 0.561188 0 0.827689
    outer loop
      vertex -1.41777 -28 27.6436
      vertex -1.41777 -26 27.6436
      vertex -1.66423 -28 27.8107
    endloop
  endfacet
  facet normal 0.561188 0 0.827689
    outer loop
      vertex -1.41777 -26 27.6436
      vertex -1.66423 -26 27.8107
      vertex -1.66423 -28 27.8107
    endloop
  endfacet
  facet normal 0.647384 0 0.762164
    outer loop
      vertex -1.66423 -28 27.8107
      vertex -1.66423 -26 27.8107
      vertex -1.89117 -28 28.0035
    endloop
  endfacet
  facet normal 0.647384 0 0.762164
    outer loop
      vertex -1.66423 -26 27.8107
      vertex -1.89117 -26 28.0035
      vertex -1.89117 -28 28.0035
    endloop
  endfacet
  facet normal 0.725995 0 0.6877
    outer loop
      vertex -1.89117 -28 28.0035
      vertex -1.89117 -26 28.0035
      vertex -2.09595 -28 28.2197
    endloop
  endfacet
  facet normal 0.725995 0 0.6877
    outer loop
      vertex -1.89117 -26 28.0035
      vertex -2.09595 -26 28.2197
      vertex -2.09595 -28 28.2197
    endloop
  endfacet
  facet normal 0.796095 0 0.605171
    outer loop
      vertex -2.09595 -28 28.2197
      vertex -2.09595 -26 28.2197
      vertex -2.27614 -28 28.4567
    endloop
  endfacet
  facet normal 0.796095 0 0.605171
    outer loop
      vertex -2.09595 -26 28.2197
      vertex -2.27614 -26 28.4567
      vertex -2.27614 -28 28.4567
    endloop
  endfacet
  facet normal 0.856856 0 0.515556
    outer loop
      vertex -2.27614 -28 28.4567
      vertex -2.27614 -26 28.4567
      vertex -2.42966 -28 28.7119
    endloop
  endfacet
  facet normal 0.856856 0 0.515556
    outer loop
      vertex -2.27614 -26 28.4567
      vertex -2.42966 -26 28.7119
      vertex -2.42966 -28 28.7119
    endloop
  endfacet
  facet normal 0.907576 0 0.419889
    outer loop
      vertex -2.42966 -28 28.7119
      vertex -2.42966 -26 28.7119
      vertex -2.55469 -28 28.9821
    endloop
  endfacet
  facet normal 0.907576 0 0.419889
    outer loop
      vertex -2.42966 -26 28.7119
      vertex -2.55469 -26 28.9821
      vertex -2.55469 -28 28.9821
    endloop
  endfacet
  facet normal 0.947654 0 0.3193
    outer loop
      vertex -2.55469 -28 28.9821
      vertex -2.55469 -26 28.9821
      vertex -2.64976 -28 29.2643
    endloop
  endfacet
  facet normal 0.947654 0 0.3193
    outer loop
      vertex -2.55469 -26 28.9821
      vertex -2.64976 -26 29.2643
      vertex -2.64976 -28 29.2643
    endloop
  endfacet
  facet normal 0.97662 0 0.214971
    outer loop
      vertex -2.64976 -28 29.2643
      vertex -2.64976 -26 29.2643
      vertex -2.71377 -28 29.5551
    endloop
  endfacet
  facet normal 0.97662 0 0.214971
    outer loop
      vertex -2.64976 -26 29.2643
      vertex -2.71377 -26 29.5551
      vertex -2.71377 -28 29.5551
    endloop
  endfacet
  facet normal 0.994138 0 0.108119
    outer loop
      vertex -2.71377 -28 29.5551
      vertex -2.71377 -26 29.5551
      vertex -2.74597 -28 29.8511
    endloop
  endfacet
  facet normal 0.994138 0 0.108119
    outer loop
      vertex -2.71377 -26 29.5551
      vertex -2.74597 -26 29.8511
      vertex -2.74597 -28 29.8511
    endloop
  endfacet
  facet normal 1 0 0
    outer loop
      vertex -2.74597 -28 29.8511
      vertex -2.74597 -26 29.8511
      vertex -2.74597 -28 30.1489
    endloop
  endfacet
  facet normal 1 0 0
    outer loop
      vertex -2.74597 -26 29.8511
      vertex -2.74597 -26 30.1489
      vertex -2.74597 -28 30.1489
    endloop
  endfacet
  facet normal 0.994138 0 -0.10812
    outer loop
      vertex -2.74597 -28 30.1489
      vertex -2.74597 -26 30.1489
      vertex -2.71377 -28 30.4449
    endloop
  endfacet
  facet normal 0.994138 0 -0.10812
    outer loop
      vertex -2.74597 -26 30.1489
      vertex -2.71377 -26 30.4449
      vertex -2.71377 -28 30.4449
    endloop
  endfacet
  facet normal 0.976621 0 -0.21497
    outer loop
      vertex -2.71377 -28 30.4449
      vertex -2.71377 -26 30.4449
      vertex -2.64976 -28 30.7357
    endloop
  endfacet
  facet normal 0.976621 0 -0.21497
    outer loop
      vertex -2.71377 -26 30.4449
      vertex -2.64976 -26 30.7357
      vertex -2.64976 -28 30.7357
    endloop
  endfacet
  facet normal 0.947653 0 -0.319302
    outer loop
      vertex -2.64976 -28 30.7357
      vertex -2.64976 -26 30.7357
      vertex -2.55469 -28 31.0179
    endloop
  endfacet
  facet normal 0.947653 0 -0.319302
    outer loop
      vertex -2.64976 -26 30.7357
      vertex -2.55469 -26 31.0179
      vertex -2.55469 -28 31.0179
    endloop
  endfacet
  facet normal 0.907577 0 -0.419886
    outer loop
      vertex -2.55469 -28 31.0179
      vertex -2.55469 -26 31.0179
      vertex -2.42966 -28 31.2881
    endloop
  endfacet
  facet normal 0.907577 0 -0.419886
    outer loop
      vertex -2.55469 -26 31.0179
      vertex -2.42966 -26 31.2881
      vertex -2.42966 -28 31.2881
    endloop
  endfacet
  facet normal 0.856857 0 -0.515554
    outer loop
      vertex -2.42966 -28 31.2881
      vertex -2.42966 -26 31.2881
      vertex -2.27614 -28 31.5433
    endloop
  endfacet
  facet normal 0.856857 0 -0.515554
    outer loop
      vertex -2.42966 -26 31.2881
      vertex -2.27614 -26 31.5433
      vertex -2.27614 -28 31.5433
    endloop
  endfacet
  facet normal 0.796093 0 -0.605174
    outer loop
      vertex -2.27614 -28 31.5433
      vertex -2.27614 -26 31.5433
      vertex -2.09595 -28 31.7803
    endloop
  endfacet
  facet normal 0.796093 0 -0.605174
    outer loop
      vertex -2.27614 -26 31.5433
      vertex -2.09595 -26 31.7803
      vertex -2.09595 -28 31.7803
    endloop
  endfacet
  facet normal 0.725995 0 -0.6877
    outer loop
      vertex -2.09595 -28 31.7803
      vertex -2.09595 -26 31.7803
      vertex -1.89117 -28 31.9965
    endloop
  endfacet
  facet normal 0.725995 0 -0.6877
    outer loop
      vertex -2.09595 -26 31.7803
      vertex -1.89117 -26 31.9965
      vertex -1.89117 -28 31.9965
    endloop
  endfacet
  facet normal 0.647387 0 -0.762161
    outer loop
      vertex -1.89117 -28 31.9965
      vertex -1.89117 -26 31.9965
      vertex -1.66423 -28 32.1893
    endloop
  endfacet
  facet normal 0.647387 0 -0.762161
    outer loop
      vertex -1.89117 -26 31.9965
      vertex -1.66423 -26 32.1893
      vertex -1.66423 -28 32.1893
    endloop
  endfacet
  facet normal 0.561188 0 -0.827689
    outer loop
      vertex -1.66423 -28 32.1893
      vertex -1.66423 -26 32.1893
      vertex -1.41777 -28 32.3564
    endloop
  endfacet
  facet normal 0.561188 0 -0.827689
    outer loop
      vertex -1.66423 -26 32.1893
      vertex -1.41777 -26 32.3564
      vertex -1.41777 -28 32.3564
    endloop
  endfacet
  facet normal 0.468408 0 -0.883512
    outer loop
      vertex -1.41777 -28 32.3564
      vertex -1.41777 -26 32.3564
      vertex -1.1547 -28 32.4958
    endloop
  endfacet
  facet normal 0.468408 0 -0.883512
    outer loop
      vertex -1.41777 -26 32.3564
      vertex -1.1547 -26 32.4958
      vertex -1.1547 -28 32.4958
    endloop
  endfacet
  facet normal 0.370135 0 -0.928978
    outer loop
      vertex -1.1547 -28 32.4958
      vertex -1.1547 -26 32.4958
      vertex -0.878079 -28 32.606
    endloop
  endfacet
  facet normal 0.370135 0 -0.928978
    outer loop
      vertex -1.1547 -26 32.4958
      vertex -0.878079 -26 32.606
      vertex -0.878079 -28 32.606
    endloop
  endfacet
  facet normal 0.267532 0 -0.963549
    outer loop
      vertex -0.878079 -28 32.606
      vertex -0.878079 -26 32.606
      vertex -0.591169 -28 32.6857
    endloop
  endfacet
  facet normal 0.267532 0 -0.963549
    outer loop
      vertex -0.878079 -26 32.606
      vertex -0.591169 -26 32.6857
      vertex -0.591169 -28 32.6857
    endloop
  endfacet
  facet normal 0.161778 0 -0.986827
    outer loop
      vertex -0.591169 -28 32.6857
      vertex -0.591169 -26 32.6857
      vertex -0.297327 -28 32.7339
    endloop
  endfacet
  facet normal 0.161778 0 -0.986827
    outer loop
      vertex -0.591169 -26 32.6857
      vertex -0.297327 -26 32.7339
      vertex -0.297327 -28 32.7339
    endloop
  endfacet
  facet normal 0.0541346 0 -0.998534
    outer loop
      vertex -0.297327 -28 32.7339
      vertex -0.297327 -26 32.7339
      vertex 0 -28 32.75
    endloop
  endfacet
  facet normal 0.0541346 0 -0.998534
    outer loop
      vertex -0.297327 -26 32.7339
      vertex 0 -26 32.75
      vertex 0 -28 32.75
    endloop
  endfacet
  facet normal -0.0519004 0 -0.998652
    outer loop
      vertex 0 -26 -1.22337e-14
      vertex 0 -28 -1.22337e-14
      vertex -3.10982 -28 0.161619
    endloop
  endfacet
  facet normal -0.0519004 0 -0.998652
    outer loop
      vertex 0 -26 -1.22337e-14
      vertex -3.10982 -28 0.161619
      vertex -3.10982 -26 0.161619
    endloop
  endfacet
  facet normal -0.155142 0 -0.987892
    outer loop
      vertex -3.10982 -28 0.161619
      vertex -6.18614 -28 0.644734
      vertex -3.10982 -26 0.161619
    endloop
  endfacet
  facet normal -0.155142 0 -0.987892
    outer loop
      vertex -3.10982 -26 0.161619
      vertex -6.18614 -28 0.644734
      vertex -6.18614 -26 0.644734
    endloop
  endfacet
  facet normal -0.256712 0 -0.966488
    outer loop
      vertex -6.18614 -28 0.644734
      vertex -9.19581 -28 1.44414
      vertex -6.18614 -26 0.644734
    endloop
  endfacet
  facet normal -0.256712 0 -0.966488
    outer loop
      vertex -6.18614 -26 0.644734
      vertex -9.19581 -28 1.44414
      vertex -9.19581 -26 1.44414
    endloop
  endfacet
  facet normal -0.355516 0 -0.93467
    outer loop
      vertex -9.19581 -28 1.44414
      vertex -12.1064 -28 2.55122
      vertex -9.19581 -26 1.44414
    endloop
  endfacet
  facet normal -0.355516 0 -0.93467
    outer loop
      vertex -9.19581 -26 1.44414
      vertex -12.1064 -28 2.55122
      vertex -12.1064 -26 2.55122
    endloop
  endfacet
  facet normal -0.450489 0 -0.892782
    outer loop
      vertex -12.1064 -28 2.55122
      vertex -14.8865 -28 3.95406
      vertex -12.1064 -26 2.55122
    endloop
  endfacet
  facet normal -0.450489 0 -0.892782
    outer loop
      vertex -12.1064 -26 2.55122
      vertex -14.8865 -28 3.95406
      vertex -14.8865 -26 3.95406
    endloop
  endfacet
  facet normal -0.540609 0 -0.841274
    outer loop
      vertex -14.8865 -28 3.95406
      vertex -17.5063 -28 5.63753
      vertex -14.8865 -26 3.95406
    endloop
  endfacet
  facet normal -0.540609 0 -0.841274
    outer loop
      vertex -14.8865 -26 3.95406
      vertex -17.5063 -28 5.63753
      vertex -17.5063 -26 5.63753
    endloop
  endfacet
  facet normal -0.624904 0 -0.780702
    outer loop
      vertex -17.5063 -28 5.63753
      vertex -19.9374 -28 7.58349
      vertex -17.5063 -26 5.63753
    endloop
  endfacet
  facet normal -0.624904 0 -0.780702
    outer loop
      vertex -17.5063 -26 5.63753
      vertex -19.9374 -28 7.58349
      vertex -19.9374 -26 7.58349
    endloop
  endfacet
  facet normal -0.702465 0 -0.711718
    outer loop
      vertex -19.9374 -28 7.58349
      vertex -22.1537 -28 9.77098
      vertex -19.9374 -26 7.58349
    endloop
  endfacet
  facet normal -0.702465 0 -0.711718
    outer loop
      vertex -19.9374 -26 7.58349
      vertex -22.1537 -28 9.77098
      vertex -22.1537 -26 9.77098
    endloop
  endfacet
  facet normal -0.772458 0 -0.635066
    outer loop
      vertex -22.1537 -28 9.77098
      vertex -24.1313 -28 12.1764
      vertex -22.1537 -26 9.77098
    endloop
  endfacet
  facet normal -0.772458 0 -0.635066
    outer loop
      vertex -22.1537 -26 9.77098
      vertex -24.1313 -28 12.1764
      vertex -24.1313 -26 12.1764
    endloop
  endfacet
  facet normal -0.834128 0 -0.551571
    outer loop
      vertex -24.1313 -28 12.1764
      vertex -25.8489 -28 14.7739
      vertex -24.1313 -26 12.1764
    endloop
  endfacet
  facet normal -0.834128 0 -0.551571
    outer loop
      vertex -24.1313 -26 12.1764
      vertex -25.8489 -28 14.7739
      vertex -25.8489 -26 14.7739
    endloop
  endfacet
  facet normal -0.886811 0 -0.462133
    outer loop
      vertex -25.8489 -28 14.7739
      vertex -27.288 -28 17.5355
      vertex -25.8489 -26 14.7739
    endloop
  endfacet
  facet normal -0.886811 0 -0.462133
    outer loop
      vertex -25.8489 -26 14.7739
      vertex -27.288 -28 17.5355
      vertex -27.288 -26 17.5355
    endloop
  endfacet
  facet normal -0.929938 0 -0.367716
    outer loop
      vertex -27.288 -28 17.5355
      vertex -28.4331 -28 20.4313
      vertex -27.288 -26 17.5355
    endloop
  endfacet
  facet normal -0.929938 0 -0.367716
    outer loop
      vertex -27.288 -26 17.5355
      vertex -28.4331 -28 20.4313
      vertex -28.4331 -26 20.4313
    endloop
  endfacet
  facet normal -0.963046 0 -0.269336
    outer loop
      vertex -28.4331 -28 20.4313
      vertex -29.2718 -28 23.4303
      vertex -28.4331 -26 20.4313
    endloop
  endfacet
  facet normal -0.963046 0 -0.269336
    outer loop
      vertex -28.4331 -26 20.4313
      vertex -29.2718 -28 23.4303
      vertex -29.2718 -26 23.4303
    endloop
  endfacet
  facet normal -0.985778 0 -0.168056
    outer loop
      vertex -29.2718 -28 23.4303
      vertex -29.7951 -28 26.5
      vertex -29.2718 -26 23.4303
    endloop
  endfacet
  facet normal -0.985778 0 -0.168056
    outer loop
      vertex -29.2718 -26 23.4303
      vertex -29.7951 -28 26.5
      vertex -29.7951 -26 26.5
    endloop
  endfacet
endsolid Mesh
