<svg xmlns="http://www.w3.org/2000/svg" width="840" height="860" font-family="sans-serif" font-size="13"><rect width="840" height="860" fill="white"/><text x="20" y="26" font-size="15" fill="#333">Coludo flight</text><rect x="20" y="40" width="800" height="800" fill="#fbfbfb" stroke="#ddd"/><rect x="191" y="394" width="311" height="67" fill="#cde" stroke="#369" opacity="0.7"/><text x="191" y="389" fill="#369" font-size="12">landing zone</text><circle cx="388" cy="498" r="5" fill="black"/><text x="396" y="502" font-size="12">pad</text><path d="M388.7,498.2 L388.7,498.2 L388.7,498.2 L388.7,498.2 L388.7,498.2 L388.7,498.2 L388.7,498.2 L388.7,498.2 L388.7,498.2 L388.7,498.2 L388.7,498.2 L388.7,498.2 L388.7,498.2 L388.7,498.2 L388.7,498.2 L388.7,498.2 L388.7,498.2 L388.7,498.2 L388.7,498.2 L388.7,498.2 L388.7,498.2 L388.7,498.2 L388.7,498.2 L388.7,498.2 L388.7,498.2 L388.7,498.2 L388.7,498.2 L388.7,498.2 L388.7,498.2 L388.7,498.2 L388.7,498.2 L388.7,498.2 L388.7,498.2 L388.7,498.2 L388.7,498.2 L388.7,498.2 L388.7,498.2 L388.7,498.2 L388.7,498.2 L388.7,498.2 L388.7,498.2 L388.7,498.2 L388.7,498.2 L388.7,498.2 L388.7,498.2 L388.7,498.2 L388.7,498.2 L388.7,498.2 L388.7,498.2 L388.7,498.2 L388.7,498.2 L388.7,498.2 L388.7,498.2 L388.7,498.2 L388.7,498.2 L388.7,498.2 L388.7,498.2 L388.7,498.2 L388.7,498.2 L388.7,498.2 L388.7,498.2 L388.7,498.2 L388.7,498.2 L388.7,498.2 L388.7,498.2 L388.7,498.2 L388.7,498.2 L388.7,498.2 L388.7,498.2 L388.7,498.2 L388.7,498.2 L388.7,498.2 L388.7,498.2 L388.7,498.2 L388.7,498.2 L388.7,498.2 L388.7,498.2 L388.7,498.2 L388.7,498.2 L388.7,498.2 L388.7,498.2 L388.7,498.2 L388.7,498.2 L388.7,498.2 L388.7,498.2 L388.7,498.2 L388.7,498.2 L388.7,498.2 L388.7,498.2 L388.7,498.2 L388.7,497.8 L389.7,495.6 L390.4,493.4 L392.1,491.5 L393.8,488.9 L395.1,487.1 L395.4,485.2 L397.1,483.0 L398.8,481.1 L400.4,479.3 L402.1,476.3 L403.8,474.5 L405.8,472.6 L407.1,470.4 L408.8,468.5 L410.5,466.7 L411.1,464.8 L413.8,462.6 L415.5,460.4 L417.2,458.2 L418.8,456.7 L420.5,454.5 L421.8,452.6 L423.8,450.7 L425.5,448.9 L428.5,446.3 L428.9,444.1 L432.2,442.6 L432.5,440.7 L435.5,438.5 L437.2,437.0 L437.9,435.2 L440.6,434.1 L442.2,432.2 L443.9,430.4 L445.6,428.9 L448.9,427.4 L450.6,426.3 L453.9,424.8 L455.3,423.7 L457.3,422.6 L459.3,421.1 L462.3,420.4 L464.6,419.6 L467.3,418.9 L470.7,417.8 L474.0,417.4 L476.0,417.0 L479.0,416.7 L482.0,416.3 L484.0,416.3 L486.0,416.3 L489.1,416.3 L491.4,416.3 L494.1,416.3 L497.4,416.7 L500.8,417.0 L502.8,417.4 L505.8,417.8 L507.4,418.1 L509.1,418.5 L512.8,419.3 L515.8,420.0 L517.5,420.4 L519.1,421.1 L522.5,421.8 L524.8,423.0 L527.5,424.1 L529.2,425.2 L532.5,426.7 L534.2,427.8 L535.9,429.3 L539.2,431.1 L539.5,432.6 L542.6,434.4 L544.2,435.6 L544.9,437.4 L547.6,440.0 L550.9,442.2 L551.6,444.1 L552.6,445.9 L554.3,448.5 L555.9,450.7 L556.9,452.2 L557.6,454.8 L559.3,457.0 L559.3,459.3 L560.9,461.9 L562.3,464.5 L562.3,466.7 L562.6,469.6 L562.6,472.2 L564.3,474.8 L564.3,477.4 L564.3,480.4 L564.3,483.4 L564.3,485.6 L564.3,488.5 L564.3,491.1 L562.6,493.7 L562.6,495.9 L562.6,498.5 L562.3,500.8 L562.3,503.4 L560.9,505.6 L559.3,508.2 L557.6,511.1 L556.9,513.4 L555.9,516.0 L554.3,517.8 L552.6,520.0 L551.6,522.3 L550.9,524.5 L547.6,526.7 L545.9,528.2 L544.2,530.4 L542.6,532.3 L539.5,534.1 L537.5,535.2 L535.9,537.1 L534.2,538.6 L530.8,540.0 L529.2,541.2 L527.5,541.9 L524.8,543.0 L522.5,544.1 L519.1,545.2 L515.8,546.0 L514.1,546.7 L512.5,547.5 L509.1,547.8 L507.4,548.2 L504.1,548.2 L502.4,548.6 L499.1,548.6 L497.4,548.6 L494.1,548.2 L491.4,547.8 L487.4,547.5 L485.7,547.1 L482.4,546.3 L480.7,545.6 L477.3,544.9 L476.0,544.1 L472.3,543.0 L470.0,541.9 L469.0,540.8 L465.6,539.3 L464.0,537.8 L460.6,536.7 L459.0,535.2 L457.3,534.1 L455.3,532.6 L452.3,530.8 L449.9,529.3 L448.9,527.8 L445.6,526.0 L443.2,524.1 L440.6,522.6 L438.9,520.8 L437.2,518.9 L435.5,517.4 L432.5,515.6 L430.5,514.1 L428.9,511.9 L427.2,510.8 L423.8,508.5 L422.2,506.7 L420.5,504.8 L418.8,503.4 L416.5,501.9 L415.5,500.4 L413.8,498.2 L411.1,496.3 L408.8,494.8 L407.1,492.6 L405.5,491.1 L402.1,488.9 L400.4,487.4 L400.4,485.9 L397.1,483.4 L395.4,481.9 L393.8,480.0 L390.4,478.2 L389.7,476.3 L387.1,474.5 L385.4,473.0 L384.4,471.1 L382.0,469.3 L380.4,467.4 L378.7,465.9 L375.4,463.7 L373.7,461.9 L372.0,459.6 L370.3,458.2 L368.3,456.3 L367.0,454.8 L363.7,452.6 L363.0,451.1 L362.0,449.6 L358.6,447.8 L357.6,445.9 L357.0,444.4 L353.6,442.6 L352.3,441.1 L350.3,439.3 L348.6,437.4 L346.9,435.9 L343.6,434.1 L341.6,432.2 L338.6,430.4 L336.2,428.9 L335.2,427.8 L331.9,426.7 L330.2,425.2 L326.9,424.1 L325.2,423.0 L321.9,421.8 L318.8,421.1 L318.5,420.4 L315.2,420.0 L313.5,419.6 L309.5,418.9 L306.8,418.5 L304.1,418.5 L301.8,418.1 L298.5,418.1 L296.8,418.1 L293.4,418.1 L292.1,418.1 L290.1,418.5 L288.1,418.5 L285.1,418.9 L282.7,419.3 L278.4,419.6 L277.4,420.0 L273.4,420.4 L271.4,420.7 L268.4,421.1 L264.7,421.5 L263.3,422.2 L261.3,422.6 L258.3,423.3 L256.0,423.7 L253.3,424.4 L249.3,424.8 L246.6,425.5 L244.6,426.3 L241.6,426.7 L239.3,427.0 L236.6,427.4 L234.6,427.8 L231.6,427.8 L229.2,428.1 L226.6,428.5 L223.2,428.9 L221.5,429.3 L218.2,429.6 L216.5,429.6 L213.2,430.0 L209.8,430.4 L207.8,430.4 L204.8,430.4 L201.5,430.7 L199.8,430.7 L196.5,430.7 L194.8,430.7 L191.4,430.7 L189.8,430.7 L186.4,430.7 L184.8,430.4 L181.4,430.4 L179.7,430.0 L176.4,430.0 L175.1,429.3 L171.4,428.9 L168.4,428.1 L164.7,427.8 L164.4,427.0 L161.4,425.9 L158.3,424.8 L156.3,423.7 L153.0,422.2 L149.6,420.7 L148.0,419.6 L146.3,418.1 L143.0,416.3 L141.6,414.4 L139.6,412.6 L137.6,410.4 L136.3,408.9 L132.9,406.3 L130.9,404.1 L131.3,402.2 L129.6,399.6 L127.9,397.8 L126.2,395.5 L126.2,392.9 L124.6,389.6 L122.9,387.0 L121.2,384.4 L121.2,381.8 L120.9,379.2 L120.9,375.9 L119.6,373.3 L119.6,371.1 L119.6,368.5 L119.6,365.5 L119.6,362.6 L119.6,359.6 L119.6,357.7 L119.6,354.8 L120.9,351.4 L120.9,349.2 L121.2,347.0 L121.2,344.0 L122.9,341.4 L124.6,339.2 L126.2,336.3 L126.2,333.7 L127.9,331.4 L129.6,329.2 L131.3,327.4 L130.9,325.1 L134.6,323.3 L137.6,320.7 L137.9,318.8 L139.6,317.0 L141.6,315.1 L143.0,313.7 L146.3,312.2 L148.0,310.7 L149.6,309.2 L153.0,307.7 L156.3,305.9 L158.3,305.1 L159.7,304.4 L163.0,303.3 L166.4,302.5 L168.4,301.8 L171.4,301.1 L175.1,300.7 L176.4,299.9 L179.7,299.6 L183.1,299.6 L185.1,299.6 L188.1,299.9 L190.4,299.9 L193.1,300.3 L195.1,300.7 L198.1,301.4 L200.5,301.8 L203.1,302.5 L206.5,303.3 L208.2,304.4 L211.5,305.5 L213.2,306.6 L216.5,307.7 L218.2,309.2 L221.5,310.7 L222.5,311.8 L224.9,313.3 L226.6,314.0 L229.2,315.5 L231.6,317.0 L233.2,318.8 L234.9,320.7 L238.3,322.2 L239.3,323.7 L241.6,325.5 L244.6,327.4 L246.6,328.8 L248.3,330.7 L250.0,332.9 L253.3,334.8 L255.0,336.3 L256.7,337.7 L258.3,339.6 L261.3,341.1 L261.7,342.6 L263.3,344.0 L264.7,345.9 L266.7,347.7 L270.0,349.6 L271.4,351.4 L273.4,353.3 L276.7,355.5 L277.4,357.0 L280.1,359.2 L281.7,360.3 L283.4,362.6 L285.1,364.4 L288.1,366.6 L290.1,368.1 L291.8,370.0 L293.4,371.8 L295.1,373.3 L296.8,375.2 L298.5,377.0 L301.8,379.6 L304.1,381.5 L305.1,382.9 L306.8,384.8 L309.5,387.0 L311.8,388.9 L313.5,390.4 L315.2,392.2 L316.8,394.1 L320.2,397.4 L321.9,399.2 L325.2,401.1 L326.9,403.7 L328.5,405.2 L330.9,407.4 L331.9,408.9 L335.2,411.1 L336.2,412.2 L340.2,415.2 L341.6,417.0 L343.6,419.3 L346.9,420.4 L346.9,421.8 L350.3,423.3 L352.0,425.2 L355.3,426.7 L357.6,427.8 L360.3,430.0 L363.0,431.1 L365.3,431.8 L368.3,433.0 L370.3,433.7 L373.7,434.4 L375.4,435.2 L378.7,435.2 L380.4,435.6 L385.4,436.3 L388.7,436.3 L390.4,436.7 L393.8,436.7 L397.1,436.3 L400.4,436.3 L402.1,435.9 L405.5,435.9 L407.1,435.6 L412.1,435.2 L415.5,434.8 L417.2,434.4 L420.5,433.7 L422.2,433.3 L425.5,433.0 L428.5,432.2 L430.5,431.5 L432.5,431.1 L437.9,430.4 L438.9,429.6 L442.2,429.3 L445.6,428.5 L448.9,428.1 L450.6,427.8 L453.9,427.4 L455.6,427.0 L457.3,426.7 L464.0,425.9 L465.6,425.5 L469.0,425.2 L470.7,424.8 L474.0,424.4 L476.0,424.4 L479.0,424.1 L482.0,424.1 L484.0,423.7 L486.0,423.7 L489.1,423.7 L491.4,423.3 L494.1,423.3 L498.7,423.3 L500.8,423.3 L502.8,423.7 L505.8,423.7 L509.4,423.7 L510.8,424.1 L515.8,424.4 L517.5,424.8 L519.1,425.2 L522.5,425.5 L524.8,426.3 L527.5,427.0 L529.5,427.8 L532.5,428.5 L534.9,429.6 L535.9,430.7 L539.5,432.6 L542.6,433.7 L544.2,435.2 L545.9,436.7 L549.2,438.1 L550.9,440.0 L552.6,441.9 L555.9,443.3 L556.9,445.6 L559.3,449.3 L560.9,451.1 L562.6,453.0 L564.3,454.8 L564.3,457.0 L568.3,459.3 L568.3,461.9 L567.6,465.2 L569.3,467.0 L571.0,472.6 L572.6,474.5 L572.6,477.1 L573.7,480.0 L573.7,481.9 L573.7,485.2 L573.7,487.8 L573.7,489.6 L573.7,492.2 L573.7,494.8 L573.7,498.2 L572.6,500.8 L572.6,503.4 L572.6,505.6 L571.0,508.9 L569.3,511.1 L569.3,513.4 L567.6,516.3 L568.3,518.6 L564.3,522.6 L562.6,524.8 L562.3,526.7 L560.9,528.9 L557.6,531.1 L556.9,533.4 L555.9,534.9 L552.6,536.7 L550.9,538.9 L545.9,541.9 L544.9,543.0 L542.6,544.9 L539.5,546.0 L537.5,547.5 L534.9,548.6 L534.2,549.7 L530.8,550.4 L529.2,551.2 L524.2,552.6 L519.1,553.4 L518.1,553.8 L514.1,554.1 L512.8,554.5 L509.1,554.5 L507.4,554.5 L504.1,554.5 L502.4,554.5 L497.4,553.8 L494.1,553.0 L491.4,552.3 L489.1,551.5 L486.0,550.8 L484.0,550.0 L482.0,548.9 L479.0,547.8 L476.0,546.3 L472.3,544.5 L470.0,543.0 L467.3,541.5 L465.6,540.0 L464.0,538.6 L460.6,536.7 L459.0,535.2 L457.3,534.1 L455.3,532.6 L450.6,529.7 L449.9,528.2 L447.3,526.7 L445.6,524.8 L443.2,522.6 L440.6,521.1 L438.9,519.7 L437.9,518.6 L435.5,516.7 L433.9,514.8 L432.2,512.6 L428.9,511.1 L427.2,508.9 L425.5,507.1 L422.2,505.6 L421.8,503.7 L418.8,501.9 L417.2,499.7 L415.5,497.8 L411.1,494.8 L410.5,493.4 L407.1,491.1 L405.8,489.3 L403.8,487.4 L402.1,485.9 L400.4,484.1 L398.8,481.9 L395.4,480.4 L395.1,478.9 L392.1,476.3 L390.4,474.8 L389.7,473.3 L387.1,471.5 L384.4,469.3 L383.7,467.8 L382.0,465.6 L379.0,464.1 L377.0,461.9 L373.7,458.2 L372.0,456.7 L368.7,454.8 L368.3,452.6 L365.3,450.7 L363.7,448.9 L362.0,447.0 L358.6,444.8 L357.6,443.3 L353.6,440.4 L352.3,438.5 L350.3,437.0 L346.9,435.2 L346.9,433.7 L343.6,432.2 L341.6,431.1 L338.6,429.3 L336.2,428.1 L331.9,426.7 L330.2,425.9 L326.9,425.2 L325.2,424.1 L321.9,423.7 L318.5,423.0 L316.8,422.6 L313.5,422.6 L310.2,422.2 L305.1,422.2 L303.5,422.6 L298.5,423.0 L296.8,423.0 L293.4,423.3 L291.8,424.1 L288.4,424.4 L286.7,424.8 L282.7,425.2 L277.4,425.9 L276.7,426.3 L273.4,426.7 L271.4,427.0 L268.4,427.4 L265.0,427.8 L261.7,427.8 L260.0,427.8 L256.7,428.1 L250.0,429.3 L248.3,429.6 L244.9,430.0 L243.3,431.1 L239.9,431.5 L238.3,432.6 L234.9,433.3 L233.2,434.4 L229.9,435.2 L224.9,438.5 L222.5,440.0 L221.5,441.5 L218.2,442.6 L217.2,444.8 L214.9,447.0 L211.8,448.9 L211.5,450.7 L209.8,452.6 L206.5,458.2 L204.8,460.4 L203.1,463.0 L201.5,465.6 L200.5,467.4 L200.5,470.4 L199.8,472.6 L198.1,475.2 L198.1,477.8 L196.5,483.7 L196.5,486.7 L196.5,489.3 L196.5,492.2 L196.5,494.8 L198.1,496.7 L198.1,500.0 L198.1,503.0 L199.8,505.6 L201.5,511.1 L201.5,513.0 L203.1,515.2 L204.8,517.8 L206.5,519.7 L208.2,522.6 L209.8,524.8 L211.5,527.1 L211.8,528.9 L217.2,533.0 L218.2,534.5 L221.5,536.0 L223.2,537.8 L226.6,539.3 L228.2,540.8 L229.9,541.9 L233.2,543.0 L234.9,544.1 L241.6,546.0 L244.6,546.7 L244.9,546.7 L244.9,546.7 L244.9,546.7 L244.9,546.7 L244.9,546.7 L244.9,546.7 L244.9,546.7 L244.9,546.7 L244.9,546.7 L244.9,546.7 L244.9,546.7 L244.9,546.7 L244.9,546.7 L244.9,546.7 L246.6,546.7 L246.6,546.7 L246.6,546.7" fill="none" stroke="#1f77b4" stroke-width="1.7" opacity="0.85"/><circle cx="247" cy="547" r="4.5" fill="#1f77b4"/><rect x="28" y="48" width="13" height="13" fill="#1f77b4"/><text x="46" y="59" font-size="12">5%</text><path d="M388.7,498.2 L388.7,498.2 L388.7,498.2 L388.7,498.2 L388.7,498.2 L388.7,498.2 L388.7,498.2 L388.7,498.2 L388.7,498.2 L388.7,498.2 L388.7,498.2 L388.7,498.2 L388.7,498.2 L388.7,498.2 L388.7,498.2 L388.7,498.2 L388.7,498.2 L388.7,498.2 L388.7,498.2 L388.7,498.2 L388.7,498.2 L388.7,498.2 L388.7,498.2 L388.7,498.2 L388.7,498.2 L388.7,498.2 L388.7,498.2 L388.7,498.2 L388.7,498.2 L388.7,498.2 L388.7,498.2 L388.7,498.2 L388.7,498.2 L388.7,498.2 L388.7,498.2 L388.7,498.2 L388.7,498.2 L388.7,498.2 L388.7,498.2 L388.7,498.2 L388.7,498.2 L388.7,498.2 L388.7,498.2 L388.7,498.2 L388.7,498.2 L388.7,498.2 L388.7,498.2 L388.7,498.2 L388.7,498.2 L388.7,498.2 L388.7,498.2 L388.7,498.2 L388.7,498.2 L388.7,498.2 L388.7,498.2 L388.7,498.2 L388.7,498.2 L388.7,498.2 L388.7,498.2 L388.7,498.2 L388.7,498.2 L388.7,498.2 L388.7,498.2 L388.7,498.2 L388.7,498.2 L388.7,498.2 L388.7,498.2 L388.7,498.2 L388.7,498.2 L388.7,498.2 L388.7,498.2 L388.7,498.2 L388.7,498.2 L388.7,498.2 L388.7,498.2 L388.7,498.2 L388.7,498.2 L388.7,498.2 L388.7,498.2 L388.7,498.2 L388.7,498.2 L388.7,498.2 L388.7,498.2 L388.7,498.2 L388.7,498.2 L388.7,498.2 L388.7,498.2 L388.7,498.2 L388.7,498.2 L388.7,498.2 L388.7,498.2 L388.7,498.2 L388.7,498.2 L389.7,496.3 L390.4,494.5 L392.1,492.2 L393.8,489.6 L395.1,487.8 L395.4,485.2 L397.1,483.0 L400.4,481.1 L400.4,479.3 L402.1,476.7 L403.8,474.8 L405.5,473.0 L405.8,470.8 L408.8,468.5 L410.5,466.7 L411.1,464.8 L413.8,462.6 L415.5,460.4 L416.5,458.5 L418.8,456.7 L420.5,454.8 L421.8,452.6 L423.8,450.7 L425.5,448.9 L427.2,447.0 L428.9,444.8 L430.5,443.0 L432.5,441.5 L433.9,439.3 L437.2,437.4 L437.9,435.6 L440.6,434.1 L442.2,432.2 L443.9,430.7 L445.6,429.3 L448.9,427.8 L450.6,426.3 L452.3,424.8 L455.3,423.7 L459.0,422.2 L460.6,420.7 L462.3,420.4 L464.6,419.3 L469.0,418.5 L470.0,417.8 L472.3,417.4 L475.7,417.0 L477.3,416.7 L480.7,416.3 L482.4,415.9 L485.7,415.9 L487.4,415.9 L490.7,415.9 L492.4,415.9 L497.4,416.3 L498.7,416.3 L500.8,416.7 L502.8,417.0 L505.8,417.4 L509.4,417.8 L512.5,418.5 L512.8,418.9 L515.8,420.0 L519.1,420.4 L522.5,421.5 L524.2,422.2 L525.8,423.3 L529.2,424.4 L530.8,425.9 L534.2,427.4 L535.9,428.5 L537.5,430.4 L539.5,432.2 L540.9,433.7 L544.2,435.2 L545.9,437.4 L547.6,439.6 L549.2,441.5 L551.6,443.3 L552.6,445.2 L554.3,447.4 L555.9,450.0 L556.9,451.5 L557.6,454.1 L559.3,456.3 L559.3,458.9 L560.9,461.5 L562.3,463.7 L562.3,466.3 L562.6,468.5 L562.6,471.5 L562.6,473.7 L564.3,476.3 L564.3,479.3 L564.3,481.5 L564.3,484.5 L564.3,486.7 L564.3,489.3 L562.6,492.2 L562.6,495.2 L562.6,497.1 L562.3,500.0 L562.3,503.0 L560.9,505.2 L559.3,508.2 L557.6,510.8 L556.9,512.6 L555.9,515.2 L554.3,517.1 L552.6,519.3 L551.6,521.5 L550.9,524.1 L547.6,526.3 L545.9,527.8 L544.2,530.0 L540.9,531.9 L539.5,533.7 L537.5,534.9 L535.9,536.7 L534.2,538.2 L530.8,539.7 L529.2,540.8 L527.5,541.9 L524.8,542.6 L522.5,543.7 L519.1,544.9 L517.5,545.6 L514.1,546.3 L512.5,546.7 L509.1,547.1 L507.4,547.5 L504.1,547.8 L500.8,548.2 L498.7,548.2 L495.7,547.8 L490.7,547.5 L489.1,547.1 L486.0,546.7 L484.0,546.0 L482.0,545.6 L479.0,544.5 L476.0,543.7 L474.0,542.6 L470.7,541.5 L469.0,540.8 L465.6,539.7 L464.6,538.6 L462.3,537.1 L459.3,535.6 L457.3,534.5 L455.6,533.0 L453.9,531.9 L452.3,530.0 L449.9,528.6 L447.3,527.1 L445.6,526.0 L443.2,524.5 L442.2,523.0 L438.9,521.1 L437.9,519.7 L435.5,518.2 L433.9,516.0 L432.2,514.1 L428.9,512.6 L428.5,511.1 L425.5,509.3 L423.8,507.4 L421.8,505.6 L420.5,503.7 L417.2,502.2 L416.5,500.8 L413.8,499.3 L412.1,497.1 L410.5,495.6 L408.8,493.4 L405.8,491.9 L405.5,490.0 L402.1,488.2 L400.4,486.7 L398.8,484.8 L397.1,482.6 L395.1,480.8 L392.1,478.5 L389.7,476.7 L388.7,474.8 L387.1,473.3 L384.4,471.5 L383.7,469.6 L380.4,467.8 L379.0,465.9 L377.0,464.1 L375.4,462.2 L373.7,460.0 L370.3,458.2 L368.7,455.9 L367.0,454.5 L365.3,452.2 L363.0,450.7 L362.0,448.9 L358.6,447.4 L357.6,445.2 L357.0,443.7 L353.6,442.2 L352.3,440.4 L350.3,438.1 L346.9,436.3 L346.9,434.8 L343.6,433.3 L341.6,431.8 L340.2,430.4 L336.9,428.9 L335.2,427.8 L333.6,426.3 L330.9,425.2 L328.5,424.1 L325.5,423.0 L323.5,421.8 L320.2,421.1 L318.5,420.4 L315.2,420.0 L313.5,419.3 L310.2,418.9 L308.5,418.5 L305.1,418.1 L301.8,418.1 L300.1,418.1 L296.8,417.8 L293.4,418.1 L291.8,418.1 L288.4,418.1 L286.7,418.5 L283.4,418.9 L281.7,419.3 L278.4,419.6 L276.7,420.0 L273.4,420.4 L270.0,420.7 L268.4,421.1 L265.0,421.8 L261.7,422.2 L260.0,423.0 L256.7,423.3 L255.0,424.1 L251.6,424.4 L249.3,425.2 L246.6,425.5 L244.6,426.3 L241.6,426.7 L239.3,427.0 L236.6,427.4 L234.6,427.8 L231.6,428.1 L229.2,428.5 L226.6,428.9 L223.2,428.9 L221.5,429.3 L217.2,429.6 L216.5,430.0 L211.8,430.0 L211.5,430.4 L207.8,430.4 L206.5,430.4 L201.5,430.7 L199.8,430.7 L196.5,430.7 L194.8,430.7 L191.4,430.7 L189.8,430.7 L186.4,430.7 L184.8,430.7 L181.4,430.4 L179.7,430.4 L178.1,430.0 L175.1,429.6 L171.4,428.9 L169.7,428.5 L168.0,427.8 L164.7,427.4 L163.0,426.7 L159.7,425.5 L158.0,424.4 L154.7,423.3 L153.0,422.2 L151.3,421.1 L148.0,420.0 L147.6,418.5 L144.6,417.0 L141.6,415.5 L141.3,413.7 L137.9,412.2 L137.6,410.4 L136.3,408.5 L132.9,406.7 L130.9,404.4 L131.3,402.6 L129.6,400.0 L127.9,397.8 L126.2,395.9 L126.2,393.3 L124.6,391.1 L122.9,387.4 L121.2,385.2 L121.2,382.2 L120.9,379.6 L120.9,377.0 L119.6,374.4 L119.6,371.8 L119.6,368.9 L119.6,366.6 L119.6,363.7 L119.6,360.7 L119.6,358.1 L119.6,355.2 L120.9,352.6 L120.9,350.3 L121.2,347.7 L121.2,345.1 L122.9,343.3 L124.6,339.2 L126.2,337.0 L126.2,334.4 L127.9,332.2 L129.6,330.0 L131.3,327.7 L130.9,325.5 L134.6,323.7 L136.3,321.4 L137.9,318.8 L141.3,317.0 L141.6,315.1 L144.6,313.7 L146.3,312.2 L148.0,310.7 L151.3,309.2 L153.0,308.1 L154.7,306.6 L158.3,305.1 L161.4,304.4 L164.4,303.3 L164.7,302.5 L168.0,302.2 L169.7,301.4 L173.1,300.7 L174.7,300.3 L178.1,299.9 L179.7,299.9 L183.1,299.9 L185.1,299.9 L188.1,299.9 L190.4,300.3 L194.8,300.7 L195.1,301.1 L198.1,301.4 L201.5,302.2 L204.8,302.9 L207.8,304.0 L208.2,304.8 L211.8,305.5 L214.9,307.0 L216.5,308.1 L218.2,309.2 L221.5,310.7 L223.2,312.2 L224.9,313.7 L229.2,315.5 L231.6,317.0 L233.2,318.8 L234.9,320.3 L238.3,321.4 L239.3,322.9 L241.6,324.4 L243.3,326.2 L244.9,328.1 L246.6,329.6 L249.3,331.4 L251.6,333.3 L253.3,335.1 L256.0,336.6 L258.3,338.5 L260.0,340.7 L261.7,342.2 L263.3,344.0 L264.7,345.9 L266.7,347.4 L270.0,349.2 L271.4,351.1 L273.4,352.6 L275.0,354.4 L277.4,356.3 L278.4,357.7 L281.7,359.6 L282.7,361.4 L286.7,364.0 L288.1,365.9 L288.4,367.4 L291.8,369.6 L292.1,371.1 L295.1,373.3 L296.8,374.4 L298.5,376.6 L300.1,378.1 L303.5,380.0 L304.1,381.5 L305.1,383.3 L308.5,385.2 L309.5,387.0 L311.8,388.9 L313.5,390.4 L315.2,392.2 L316.8,394.4 L318.8,395.9 L321.9,398.1 L323.5,400.0 L325.5,402.2 L328.5,404.4 L330.2,405.5 L330.9,407.4 L333.6,409.2 L335.2,411.1 L336.9,412.2 L341.6,415.9 L341.9,417.8 L345.3,419.6 L346.9,420.7 L348.6,422.2 L352.0,424.1 L352.3,425.5 L355.3,427.0 L357.6,428.1 L362.0,430.4 L363.7,431.5 L367.0,432.6 L368.7,433.3 L372.0,434.1 L373.7,434.8 L377.0,435.2 L379.0,435.6 L382.0,435.9 L387.1,436.3 L389.7,436.7 L392.1,436.7 L395.1,436.7 L397.1,436.3 L400.4,436.3 L402.1,435.9 L405.5,435.9 L408.8,435.6 L413.8,435.2 L416.5,434.4 L418.8,434.1 L421.8,433.7 L423.8,433.0 L427.2,432.6 L428.9,432.2 L432.2,431.5 L433.9,431.1 L437.9,430.0 L440.6,429.6 L443.9,428.9 L447.3,428.5 L449.9,427.8 L452.3,427.8 L455.3,427.4 L457.3,427.0 L459.3,426.7 L464.6,425.9 L467.3,425.5 L470.0,425.2 L472.3,424.8 L475.7,424.8 L477.3,424.4 L480.7,424.1 L482.4,424.1 L485.7,423.7 L490.7,423.7 L492.4,423.3 L495.7,423.3 L498.7,423.3 L500.8,423.3 L502.8,423.3 L505.8,423.3 L509.4,423.3 L510.8,423.7 L515.8,424.1 L518.1,424.4 L522.5,425.2 L524.8,425.9 L527.5,426.3 L529.5,427.4 L530.8,427.8 L534.2,428.9 L535.9,430.0 L540.9,432.6 L544.2,433.7 L544.9,435.2 L547.6,436.7 L550.9,438.1 L552.6,440.4 L554.3,442.2 L555.9,443.7 L557.6,445.9 L560.9,449.3 L562.3,451.5 L562.6,453.7 L566.0,456.3 L568.3,458.2 L568.3,460.7 L567.6,463.0 L569.3,465.6 L571.0,468.2 L572.6,473.0 L572.6,475.2 L573.7,478.2 L573.7,480.8 L573.7,483.0 L573.7,485.9 L573.7,488.5 L573.7,490.8 L573.7,493.7 L573.7,498.9 L572.6,501.9 L572.6,504.1 L572.6,506.7 L571.0,509.3 L569.3,511.5 L567.6,514.1 L567.6,516.3 L568.3,518.9 L564.3,523.4 L562.6,525.2 L562.3,527.4 L559.3,529.3 L557.6,531.5 L556.9,533.7 L554.3,535.2 L552.6,537.1 L550.9,538.6 L545.9,541.9 L544.2,543.4 L542.6,544.9 L539.5,546.0 L537.5,547.5 L534.9,548.6 L532.5,549.7 L529.5,550.4 L529.2,551.2 L522.5,552.6 L520.8,553.0 L517.5,553.4 L515.8,553.8 L512.5,554.1 L509.1,554.1 L507.4,554.1 L504.1,554.1 L502.4,553.8 L497.4,553.0 L494.1,552.6 L491.4,551.9 L489.1,551.2 L486.0,550.4 L484.0,549.7 L482.0,548.6 L480.7,547.5 L477.3,546.3 L475.7,545.2 L472.3,543.7 L470.0,542.3 L469.0,541.2 L465.6,539.7 L464.0,538.2 L460.6,536.7 L459.3,534.9 L457.3,533.7 L455.3,532.3 L450.6,528.6 L449.9,527.1 L447.3,525.6 L443.9,523.7 L442.2,521.9 L440.6,520.0 L437.9,518.6 L435.5,516.3 L433.9,514.5 L430.5,511.5 L428.9,510.4 L428.5,508.5 L425.5,506.7 L423.8,505.2 L421.8,503.7 L420.5,501.9 L417.2,500.0 L415.5,497.8 L413.8,496.3 L411.1,494.5 L410.5,492.6 L407.1,490.8 L405.8,488.9 L403.8,487.4 L402.1,485.2 L400.4,483.7 L398.8,481.9 L395.4,480.4 L392.1,476.3 L390.4,474.5 L388.7,472.6 L387.1,471.1 L384.4,468.9 L383.7,467.4 L380.4,465.6 L379.0,463.7 L377.0,461.9 L373.7,458.2 L372.0,456.7 L370.3,454.8 L368.3,453.3 L367.0,451.1 L363.7,449.6 L363.0,447.8 L360.3,445.9 L358.6,444.1 L357.0,442.6 L353.6,440.0 L352.3,438.1 L350.3,436.7 L346.9,435.2 L346.9,433.7 L343.6,432.6 L341.6,431.1 L340.2,430.0 L336.9,428.5 L331.9,427.0 L330.2,425.9 L326.9,425.2 L325.2,424.8 L321.9,424.1 L318.8,423.7 L316.8,423.3 L314.8,423.0 L311.8,423.0 L305.1,423.0 L304.1,423.0 L300.1,423.0 L298.1,423.3 L295.1,423.7 L292.1,424.1 L290.1,424.4 L288.1,424.4 L285.1,424.8 L278.4,425.9 L276.7,426.3 L273.4,426.7 L270.0,427.0 L268.4,427.4 L265.0,427.4 L263.3,427.8 L260.0,427.8 L258.3,427.8 L251.6,428.5 L249.3,428.5 L246.6,428.5 L244.6,428.5 L241.6,428.5 L238.3,428.5 L236.6,428.5 L233.2,428.5 L231.6,428.5 L223.2,427.8 L221.5,427.8 L218.2,427.0 L216.5,426.7 L213.2,425.9 L211.5,425.2 L208.2,424.1 L206.5,423.0 L204.8,422.2 L198.1,418.9 L195.1,417.8 L194.8,415.9 L191.4,414.4 L189.8,412.6 L188.1,411.1 L186.4,409.2 L184.8,407.0 L183.1,405.2 L179.7,399.6 L178.1,397.4 L176.4,395.2 L174.7,392.6 L175.1,390.0 L173.1,388.1 L173.1,385.2 L171.4,382.9 L171.4,380.3 L169.7,374.0 L169.7,371.1 L169.7,368.5 L169.7,366.6 L169.7,364.0 L169.7,361.1 L169.7,358.5 L171.4,355.9 L171.4,353.3 L173.1,351.1 L175.1,346.6 L174.7,344.0 L176.4,342.2 L178.1,339.6 L179.7,337.0 L179.7,335.5 L181.4,332.9 L183.1,331.1 L185.1,328.8 L189.8,324.4 L191.4,322.5 L194.8,321.1 L195.1,319.2 L198.1,318.1 L200.5,316.6 L201.5,315.5 L204.8,314.0 L207.8,313.3 L213.2,311.4 L216.5,310.7 L219.9,309.9 L221.5,309.6 L222.5,309.6 L222.5,309.6 L222.5,309.6 L222.5,309.6 L222.5,309.6 L222.5,309.6 L222.5,309.6 L222.5,309.6 L222.5,309.9 L222.5,309.9 L222.5,309.9 L222.5,309.9 L222.5,309.9 L222.5,309.9 L222.5,309.9 L222.5,309.9" fill="none" stroke="#17becf" stroke-width="1.7" opacity="0.85"/><circle cx="223" cy="310" r="4.5" fill="#17becf"/><rect x="28" y="68" width="13" height="13" fill="#17becf"/><text x="46" y="79" font-size="12">10%</text><path d="M388.7,498.2 L388.7,498.2 L388.7,498.2 L388.7,498.2 L388.7,498.2 L388.7,498.2 L388.7,498.2 L388.7,498.2 L388.7,498.2 L388.7,498.2 L388.7,498.2 L388.7,498.2 L388.7,498.2 L388.7,498.2 L388.7,498.2 L388.7,498.2 L388.7,498.2 L388.7,498.2 L388.7,498.2 L388.7,498.2 L388.7,498.2 L388.7,498.2 L388.7,498.2 L388.7,498.2 L388.7,498.2 L388.7,498.2 L388.7,498.2 L388.7,498.2 L388.7,498.2 L388.7,498.2 L388.7,498.2 L388.7,498.2 L388.7,498.2 L388.7,498.2 L388.7,498.2 L388.7,498.2 L388.7,498.2 L388.7,498.2 L388.7,498.2 L388.7,498.2 L388.7,498.2 L388.7,498.2 L388.7,498.2 L388.7,498.2 L388.7,498.2 L388.7,498.2 L388.7,498.2 L388.7,498.2 L388.7,498.2 L388.7,498.2 L388.7,498.2 L388.7,498.2 L388.7,498.2 L388.7,498.2 L388.7,498.2 L388.7,498.2 L388.7,498.2 L388.7,498.2 L388.7,498.2 L388.7,498.2 L388.7,498.2 L388.7,498.2 L388.7,498.2 L388.7,498.2 L388.7,498.2 L388.7,498.2 L388.7,498.2 L388.7,498.2 L388.7,498.2 L388.7,498.2 L388.7,498.2 L388.7,498.2 L388.7,498.2 L388.7,498.2 L388.7,498.2 L388.7,498.2 L388.7,498.2 L388.7,498.2 L388.7,498.2 L388.7,498.2 L388.7,498.2 L388.7,498.2 L388.7,498.2 L388.7,498.2 L388.7,498.2 L388.7,498.2 L388.7,498.2 L388.7,498.2 L388.7,498.2 L388.7,498.2 L388.7,498.2 L388.7,498.2 L389.7,495.9 L390.4,493.7 L392.1,491.5 L393.8,488.9 L395.1,487.4 L397.1,484.8 L398.8,483.0 L400.4,480.8 L400.4,478.5 L402.1,476.3 L405.5,474.1 L405.8,472.6 L407.1,470.8 L408.8,468.5 L410.5,466.3 L412.1,464.5 L413.8,462.2 L415.5,460.4 L417.2,458.2 L418.8,456.3 L421.8,454.1 L422.2,452.2 L423.8,450.4 L427.2,448.5 L428.5,446.3 L430.5,444.4 L432.2,442.2 L433.9,440.4 L435.5,438.9 L437.2,436.7 L438.9,435.2 L440.6,433.3 L443.2,431.5 L445.6,429.6 L447.3,428.1 L449.9,426.7 L452.3,425.2 L455.3,424.1 L457.3,422.6 L459.3,421.5 L462.3,420.4 L464.6,419.6 L465.6,418.9 L470.0,418.1 L472.3,417.0 L475.7,416.7 L477.3,416.3 L480.7,415.9 L482.4,415.5 L485.7,415.5 L487.4,415.5 L491.4,415.5 L492.4,415.9 L495.7,415.9 L498.7,416.3 L500.8,416.7 L502.8,417.0 L505.8,417.4 L509.4,418.1 L510.8,418.5 L512.8,419.3 L515.8,420.4 L518.1,420.7 L520.8,421.5 L524.2,422.6 L525.8,424.1 L529.2,425.2 L530.8,426.7 L532.5,427.8 L534.9,428.9 L537.5,430.7 L539.2,432.2 L540.9,434.1 L542.6,435.6 L544.9,437.4 L545.9,439.3 L547.6,441.1 L550.9,443.3 L551.6,445.2 L552.6,447.8 L554.3,449.6 L555.9,451.9 L556.9,454.5 L557.6,456.7 L557.6,458.9 L559.3,461.9 L560.9,464.5 L560.9,466.7 L562.3,469.3 L562.3,471.9 L562.6,474.8 L562.6,477.8 L562.6,480.0 L562.6,482.6 L562.6,485.6 L562.6,488.2 L562.6,490.8 L562.6,493.7 L562.3,495.9 L562.3,498.5 L560.9,500.8 L560.9,503.4 L559.3,505.6 L559.3,507.8 L557.6,510.8 L556.9,513.0 L555.9,515.6 L554.3,518.2 L552.6,520.0 L550.9,522.3 L549.2,524.5 L547.6,526.3 L545.9,528.2 L544.2,530.0 L542.6,532.3 L539.5,534.1 L537.5,535.6 L535.9,537.1 L534.2,538.9 L532.5,540.0 L529.5,541.5 L527.5,542.6 L524.8,543.7 L524.2,544.9 L520.8,546.0 L518.1,546.7 L515.8,547.5 L512.8,548.6 L510.8,548.9 L507.4,549.7 L504.1,550.0 L502.4,550.0 L499.1,550.0 L497.4,550.0 L494.1,550.0 L491.4,550.0 L490.7,550.0 L486.0,550.0 L484.0,549.3 L482.0,548.9 L479.0,548.2 L476.0,547.5 L474.0,546.7 L470.7,545.6 L470.0,544.9 L467.3,543.7 L464.6,542.6 L462.3,541.9 L459.3,540.4 L459.0,538.9 L455.6,537.4 L453.9,536.3 L450.6,534.5 L449.9,533.7 L447.3,531.9 L445.6,530.4 L443.2,528.6 L440.6,527.1 L438.9,525.6 L437.2,523.7 L435.5,522.3 L432.5,520.4 L430.5,518.9 L428.9,517.4 L427.2,516.0 L425.5,513.7 L422.2,512.3 L421.8,510.8 L418.8,508.9 L417.2,507.1 L415.5,505.2 L413.8,503.7 L411.1,501.9 L408.8,500.0 L407.1,498.2 L405.5,496.3 L403.8,494.8 L400.4,493.0 L400.4,491.1 L397.1,489.3 L395.4,487.4 L393.8,485.9 L392.1,483.7 L389.7,481.9 L388.7,480.8 L385.4,478.5 L384.4,477.1 L382.0,474.8 L380.4,473.7 L379.0,471.9 L377.0,470.0 L373.7,467.4 L373.7,465.9 L370.3,464.5 L368.7,462.6 L367.0,460.4 L365.3,458.9 L363.7,457.4 L362.0,455.6 L358.6,453.7 L357.6,451.9 L357.0,450.4 L353.6,448.5 L352.3,446.7 L350.3,444.1 L346.9,442.6 L346.9,441.1 L343.6,438.9 L341.9,437.4 L340.2,435.9 L338.6,434.4 L336.2,432.2 L333.6,430.7 L330.9,429.3 L330.2,428.1 L326.9,427.0 L325.2,425.5 L321.9,424.4 L318.8,423.3 L316.8,422.6 L314.8,421.5 L311.8,420.7 L309.5,420.4 L306.8,420.0 L304.1,419.3 L301.8,418.9 L298.5,418.5 L295.1,418.5 L292.1,418.1 L290.1,418.1 L288.1,418.5 L285.1,418.5 L282.7,418.5 L280.1,418.9 L276.7,419.3 L273.4,419.6 L271.4,420.0 L268.4,420.4 L264.7,420.4 L263.3,421.1 L261.3,421.5 L258.3,421.8 L256.0,422.2 L253.3,423.0 L250.0,423.3 L246.6,424.1 L243.3,424.4 L241.6,425.2 L238.3,425.5 L234.9,425.9 L234.6,426.3 L229.9,426.7 L228.2,427.0 L224.9,427.4 L222.5,427.8 L219.9,427.8 L217.2,428.1 L214.9,428.5 L211.8,428.9 L209.8,428.9 L207.8,429.3 L204.8,429.3 L200.5,429.6 L198.1,429.6 L195.1,429.6 L193.1,429.6 L190.4,430.0 L188.1,430.0 L185.1,430.0 L183.1,430.0 L179.7,429.6 L178.1,429.6 L175.1,429.3 L171.4,429.3 L169.7,428.9 L166.4,428.5 L164.4,428.1 L161.4,427.8 L158.3,427.4 L156.3,426.7 L153.0,425.9 L151.3,424.8 L148.0,424.1 L146.3,422.6 L143.0,421.5 L141.3,420.4 L139.6,419.3 L137.6,417.8 L134.6,416.3 L132.9,414.8 L129.6,411.8 L126.2,410.0 L126.2,407.8 L124.6,405.9 L121.2,404.1 L120.9,401.8 L119.6,399.2 L117.9,397.4 L116.2,395.2 L115.5,392.9 L114.5,390.4 L112.9,388.5 L111.2,385.9 L110.9,382.9 L110.9,380.3 L109.5,377.8 L109.5,374.8 L109.5,372.9 L107.8,370.0 L107.8,367.0 L107.8,364.8 L107.8,362.6 L107.8,359.6 L107.8,357.0 L107.8,354.4 L109.5,351.4 L109.5,349.2 L109.5,346.3 L110.9,343.7 L111.2,341.1 L111.2,338.1 L112.9,335.9 L114.5,333.3 L115.5,330.7 L116.2,328.5 L117.9,326.2 L119.6,324.4 L121.2,322.2 L122.9,320.3 L124.6,318.1 L126.2,316.6 L127.9,314.4 L129.6,313.3 L130.9,311.1 L134.6,309.6 L137.6,307.4 L137.9,306.2 L141.3,305.1 L143.0,303.6 L146.3,302.5 L148.0,301.4 L151.3,300.3 L153.0,299.6 L156.3,298.5 L158.3,298.1 L159.7,297.7 L164.4,297.3 L164.7,297.0 L168.4,296.6 L169.7,296.2 L175.1,296.2 L174.7,296.2 L179.7,296.6 L179.7,296.6 L184.8,297.3 L186.4,297.7 L189.8,298.1 L191.4,298.8 L194.8,299.6 L196.5,300.3 L199.8,301.4 L201.5,302.5 L203.1,303.6 L206.5,304.8 L208.2,305.9 L211.5,307.4 L213.2,308.8 L216.5,310.7 L217.2,311.8 L219.9,313.7 L222.5,314.8 L223.2,316.2 L226.6,318.1 L228.2,319.6 L229.9,321.1 L233.2,322.9 L234.6,324.4 L236.6,326.2 L238.3,328.1 L239.9,329.6 L243.3,331.4 L244.6,332.9 L244.9,334.8 L248.3,336.3 L249.3,337.7 L251.6,340.0 L255.0,341.8 L256.0,343.3 L258.3,345.1 L260.0,346.6 L261.7,348.5 L263.3,350.7 L264.7,351.8 L266.7,354.0 L270.0,355.9 L271.4,357.7 L273.4,359.6 L275.0,361.1 L277.4,362.9 L278.4,365.2 L281.7,367.0 L282.7,368.5 L285.1,370.3 L286.7,372.2 L288.4,374.0 L290.1,375.9 L292.1,378.1 L295.1,380.0 L296.8,382.2 L298.5,384.1 L301.8,386.3 L303.5,387.8 L304.1,389.6 L306.8,391.1 L308.5,393.3 L310.2,395.2 L311.8,397.0 L315.2,399.6 L316.8,401.5 L318.5,403.3 L320.2,405.2 L321.9,406.7 L325.2,408.5 L325.5,410.4 L328.5,412.2 L330.9,414.1 L333.6,416.7 L335.2,418.1 L336.9,420.0 L338.6,421.1 L341.6,423.0 L343.6,424.4 L345.3,425.9 L346.9,427.4 L350.3,428.5 L353.6,430.0 L355.3,431.1 L358.6,432.2 L362.0,433.3 L363.7,434.1 L367.0,434.8 L368.7,435.2 L372.0,435.6 L373.7,435.9 L377.0,436.3 L379.0,436.3 L382.0,436.7 L384.4,436.7 L387.1,436.7 L390.4,436.3 L392.1,436.3 L395.4,435.9 L398.8,435.6 L402.1,435.2 L405.5,434.8 L407.1,434.4 L410.5,434.1 L412.1,433.7 L415.5,433.0 L417.2,432.6 L420.5,432.2 L422.2,431.5 L427.2,430.7 L428.9,430.4 L432.2,430.0 L433.9,429.3 L437.2,428.9 L438.9,428.1 L442.2,427.8 L443.9,427.8 L447.3,427.4 L450.6,426.7 L453.9,426.3 L455.6,426.3 L459.0,425.9 L460.6,425.5 L464.0,425.5 L465.6,425.2 L469.0,425.2 L470.7,424.8 L474.0,424.8 L476.0,424.8 L479.0,424.8 L482.0,424.8 L484.0,424.8 L486.0,424.8 L490.7,424.8 L491.4,424.8 L494.1,425.2 L497.4,425.2 L500.8,425.2 L502.8,425.5 L505.8,425.9 L509.4,425.9 L510.8,426.3 L512.8,426.7 L515.8,427.4 L518.1,427.8 L520.8,428.5 L524.8,429.6 L527.5,430.7 L529.5,431.8 L532.5,433.3 L534.2,434.4 L535.9,435.6 L539.2,436.7 L540.9,438.5 L542.6,440.0 L545.9,442.6 L547.6,444.4 L550.9,446.3 L551.6,448.5 L554.3,450.4 L555.9,452.2 L556.9,454.5 L557.6,456.7 L559.3,458.5 L562.3,463.3 L562.6,465.6 L564.3,467.8 L564.3,470.0 L566.0,473.0 L566.0,474.8 L568.3,477.8 L568.3,480.0 L567.6,482.6 L567.6,485.2 L567.6,488.2 L567.6,490.4 L567.6,493.0 L567.6,495.9 L567.6,498.5 L567.6,501.5 L568.3,503.7 L568.3,506.3 L568.3,508.5 L564.3,513.4 L564.3,516.3 L562.6,518.6 L562.3,520.8 L560.9,523.0 L559.3,525.6 L557.6,527.4 L556.9,529.7 L555.9,531.9 L554.3,534.1 L551.6,536.0 L550.9,538.2 L549.2,540.0 L545.9,541.9 L544.9,543.0 L542.6,544.9 L539.5,546.3 L539.2,548.2 L535.9,549.3 L534.2,550.4 L530.8,551.9 L529.2,553.0 L527.5,554.1 L524.2,554.9 L522.5,555.6 L519.1,556.7 L517.5,557.1 L514.1,557.5 L512.5,557.8 L509.1,558.2 L507.4,558.6 L502.8,558.6 L502.4,558.6 L498.7,558.6 L497.4,558.2 L492.4,557.8 L491.4,557.8 L487.4,557.5 L486.0,557.1 L482.4,556.3 L480.7,555.2 L477.3,554.5 L476.0,553.4 L474.0,552.3 L470.7,551.2 L469.0,550.0 L465.6,548.9 L464.0,547.5 L460.6,546.0 L457.3,543.0 L455.3,541.9 L453.9,540.4 L450.6,538.9 L448.9,537.1 L447.3,535.6 L443.9,534.1 L443.2,532.6 L440.6,530.8 L437.2,527.1 L433.9,526.0 L432.5,524.1 L430.5,522.3 L428.9,520.4 L427.2,518.9 L423.8,517.1 L422.2,515.2 L420.5,513.4 L416.5,510.0 L415.5,508.5 L412.1,506.7 L411.1,504.5 L408.8,503.0 L407.1,501.1 L405.5,498.5 L402.1,496.7 L400.4,495.2 L397.1,492.2 L395.4,490.8 L393.8,488.9 L392.1,487.4 L390.4,485.2 L388.7,483.4 L387.1,481.5 L384.4,479.6 L383.7,478.2 L379.0,474.1 L377.0,472.6 L375.4,470.8 L373.7,468.9 L372.0,466.7 L370.3,465.6 L368.3,463.7 L367.0,461.9 L363.7,459.6 L360.3,455.9 L357.6,454.1 L357.0,452.2 L355.3,450.7 L352.3,448.5 L350.3,446.7 L348.6,444.8 L346.9,443.0 L345.3,441.5 L341.6,438.1 L338.6,436.3 L336.9,435.2 L335.2,433.7 L333.6,432.2 L330.9,430.7 L328.5,429.3 L326.9,428.1 L325.2,427.4 L318.5,425.2 L315.2,424.4 L314.8,423.7 L311.8,423.0 L309.5,422.6 L306.8,421.8 L304.1,421.5 L301.8,421.5 L298.5,421.1 L296.8,421.1 L292.1,421.1 L290.1,421.5 L288.1,421.8 L285.1,421.8 L282.7,422.6 L280.1,423.0 L277.4,423.3 L275.0,423.7 L271.7,424.4 L266.7,425.2 L265.0,425.9 L261.7,426.3 L260.0,427.0 L256.7,427.8 L255.0,428.1 L251.6,428.9 L249.3,430.0 L246.6,431.1 L244.9,431.8 L241.6,433.3 L239.9,434.8 L238.3,435.9 L234.9,437.0 L234.6,438.9 L231.6,440.4 L229.9,441.9 L228.2,443.3 L226.6,445.2 L223.2,447.4 L222.5,450.0 L219.9,451.9 L218.2,453.7 L217.2,455.9 L216.5,458.2 L214.9,460.4 L213.2,462.6 L211.8,465.2 L211.5,467.0 L209.8,469.6 L209.8,473.0 L208.2,474.8 L208.2,477.4 L207.8,480.0 L207.8,482.6 L207.8,485.6 L207.8,488.5 L207.8,490.8 L207.8,493.7 L207.8,498.5 L207.8,501.5 L208.2,503.7 L208.2,506.3 L209.8,508.5 L209.8,511.5 L211.5,513.7 L211.8,516.7 L213.2,518.6 L216.5,523.0 L217.2,525.6 L218.2,527.4 L219.9,529.3 L222.5,531.9 L223.2,533.4 L224.9,535.2 L228.2,537.1 L229.2,538.9 L234.6,541.9 L236.6,543.7 L238.3,544.9 L238.3,544.9 L238.3,544.9 L238.3,544.9 L238.3,544.9 L239.3,544.9 L239.3,544.9 L239.3,544.9 L239.3,544.9 L239.3,544.9 L239.3,544.9 L239.3,544.9 L239.3,544.9 L239.3,544.9 L239.3,544.9 L239.3,544.9 L239.3,545.2 L239.3,545.2 L239.3,545.2 L239.3,545.2 L239.3,545.2 L239.3,545.2 L239.3,545.2 L239.3,545.2 L239.3,545.2 L239.3,545.2 L239.3,545.2 L239.3,545.2 L239.3,545.2 L239.9,545.2 L239.9,545.2 L239.9,545.2 L239.9,545.2 L239.9,545.2 L239.9,545.2 L239.9,545.2 L239.9,545.2 L239.9,545.2 L239.9,545.2 L239.9,545.2 L239.9,545.2 L239.9,545.2 L239.9,545.2 L239.9,545.2 L239.9,545.2 L239.9,545.2 L239.9,545.2 L239.9,545.2 L239.9,545.2 L239.9,545.2 L239.9,545.2 L241.6,545.2 L241.6,545.2 L241.6,545.2 L241.6,545.2 L241.6,545.2 L241.6,545.2 L241.6,545.2 L241.6,545.2 L241.6,545.2 L241.6,545.2 L241.6,545.2 L241.6,545.2 L241.6,545.2 L241.6,545.2 L241.6,545.2 L241.6,545.2 L241.6,545.2 L241.6,545.2 L241.6,545.2 L241.6,545.2 L241.6,545.2 L241.6,545.2 L243.3,545.2 L243.3,545.2 L243.3,545.2 L243.3,545.2 L243.3,544.9 L243.3,544.9 L243.3,544.9 L243.3,544.9 L243.3,544.9 L243.3,544.9 L243.3,544.9 L243.3,544.9 L243.3,544.9 L243.3,544.9 L243.3,544.9 L243.3,544.9 L243.3,544.9 L243.3,544.9 L243.3,544.9 L243.3,544.9 L243.3,544.9 L244.6,544.9 L244.6,544.9 L244.6,544.9 L244.6,544.9 L244.6,544.9 L244.6,544.9 L244.6,544.9 L244.6,544.9 L244.6,544.5 L244.6,544.5 L244.6,544.5 L244.6,544.5 L244.6,544.5 L244.6,544.5 L244.6,544.5 L244.6,544.5 L244.6,544.5 L244.6,544.5 L244.6,544.5 L244.6,544.5 L244.6,544.5 L244.6,544.5 L244.6,544.5 L244.9,544.5 L244.9,544.5 L244.9,544.1 L244.9,544.1 L244.9,544.1 L244.9,544.1 L244.9,544.1 L244.9,544.1 L244.9,544.1 L244.9,544.1 L244.9,544.1 L244.9,544.1 L244.9,544.1 L244.9,544.1 L244.9,544.1 L244.9,544.1 L244.9,544.1 L244.9,543.7 L244.9,543.7 L244.9,543.7 L244.9,543.7 L244.9,543.7 L246.6,543.7 L246.6,543.7 L246.6,543.7 L246.6,543.7 L246.6,543.7 L246.6,543.7 L246.6,543.7 L246.6,543.4 L246.6,543.4 L246.6,543.4 L246.6,543.4 L246.6,543.4 L246.6,543.4 L246.6,543.4 L246.6,543.4 L246.6,543.4 L246.6,543.4 L246.6,543.4 L246.6,543.4 L246.6,543.4 L246.6,543.0 L246.6,543.0 L246.6,543.0 L246.6,543.0 L248.3,543.0 L248.3,543.0 L248.3,543.0 L248.3,543.0 L248.3,543.0 L248.3,543.0 L248.3,543.0 L248.3,542.6 L248.3,542.6 L248.3,542.6 L248.3,542.6 L248.3,542.6 L248.3,542.6 L248.3,542.6 L248.3,542.6 L248.3,542.6 L248.3,542.6 L248.3,542.6 L248.3,542.3 L248.3,542.3 L248.3,542.3 L248.3,542.3 L248.3,542.3 L248.3,542.3 L248.3,542.3 L248.3,542.3 L248.3,542.3 L249.3,542.3 L249.3,541.9 L249.3,541.9 L249.3,541.9 L249.3,541.9 L249.3,541.9 L249.3,541.9 L249.3,541.9 L249.3,541.9 L249.3,541.9 L249.3,541.9 L249.3,541.9 L249.3,541.9 L249.3,541.9 L249.3,541.9 L249.3,541.9 L249.3,541.9 L249.3,541.9 L249.3,541.9 L249.3,541.9 L249.3,541.9 L249.3,541.5 L249.3,541.5 L249.3,541.5 L249.3,541.5 L250.0,541.5 L250.0,541.5 L250.0,541.5 L250.0,541.5 L250.0,541.5 L250.0,541.5 L250.0,541.5 L250.0,541.2 L250.0,541.2 L250.0,541.2 L250.0,541.2 L250.0,541.2 L250.0,541.2 L250.0,541.2 L250.0,541.2 L250.0,541.2 L250.0,540.8 L250.0,540.8 L250.0,540.8 L250.0,540.8 L250.0,540.8 L250.0,540.8 L250.0,540.8 L250.0,540.8 L250.0,540.8 L250.0,540.4 L250.0,540.4 L250.0,540.4 L251.6,540.4 L251.6,540.4 L251.6,540.4 L251.6,540.4 L251.6,540.4 L251.6,540.4 L251.6,540.0 L251.6,540.0 L251.6,540.0 L251.6,540.0 L251.6,540.0 L251.6,540.0 L251.6,540.0 L251.6,540.0 L251.6,540.0 L251.6,539.7 L251.6,539.7 L251.6,539.7 L251.6,539.7 L251.6,539.7 L251.6,539.7 L251.6,539.7 L251.6,539.7 L251.6,539.3 L251.6,539.3 L251.6,539.3 L251.6,539.3 L251.6,539.3 L253.3,539.3 L253.3,539.3 L253.3,539.3 L253.3,539.3 L253.3,538.9 L253.3,538.9 L253.3,538.9 L253.3,538.9 L253.3,538.9 L253.3,538.9 L253.3,538.9 L253.3,538.9 L253.3,538.6 L253.3,538.6 L253.3,538.6 L253.3,538.6 L253.3,538.6 L253.3,538.6 L253.3,538.6 L253.3,538.6 L253.3,538.6 L253.3,538.2 L253.3,538.2 L253.3,538.2 L253.3,538.2 L253.3,538.2 L253.3,538.2 L253.3,538.2 L253.3,538.2 L255.0,537.8 L255.0,537.8 L255.0,537.8 L255.0,537.8 L255.0,537.8 L255.0,537.8 L255.0,537.8 L255.0,537.8 L255.0,537.8 L255.0,537.4 L255.0,537.4 L255.0,537.4 L255.0,537.4 L255.0,537.4 L255.0,537.1 L255.0,537.1 L255.0,537.1 L255.0,537.1 L255.0,537.1 L255.0,537.1 L255.0,537.1 L255.0,537.1 L255.0,536.7 L255.0,536.7 L256.0,536.7 L256.0,536.7 L256.0,536.7" fill="none" stroke="#2ca02c" stroke-width="1.7" opacity="0.85"/><circle cx="256" cy="537" r="4.5" fill="#2ca02c"/><rect x="28" y="88" width="13" height="13" fill="#2ca02c"/><text x="46" y="99" font-size="12">25%</text><path d="M388.7,498.2 L388.7,498.2 L388.7,498.2 L388.7,498.2 L388.7,498.2 L388.7,498.2 L388.7,498.2 L388.7,498.2 L388.7,498.2 L388.7,498.2 L388.7,498.2 L388.7,498.2 L388.7,498.2 L388.7,498.2 L388.7,498.2 L388.7,498.2 L388.7,498.2 L388.7,498.2 L388.7,498.2 L388.7,498.2 L388.7,498.2 L388.7,498.2 L388.7,498.2 L388.7,498.2 L388.7,498.2 L388.7,498.2 L388.7,498.2 L388.7,498.2 L388.7,498.2 L388.7,498.2 L388.7,498.2 L388.7,498.2 L388.7,498.2 L388.7,498.2 L388.7,498.2 L388.7,498.2 L388.7,498.2 L388.7,498.2 L388.7,498.2 L388.7,498.2 L388.7,498.2 L388.7,498.2 L388.7,498.2 L388.7,498.2 L388.7,498.2 L388.7,498.2 L388.7,498.2 L388.7,498.2 L388.7,498.2 L388.7,498.2 L388.7,498.2 L388.7,498.2 L388.7,498.2 L388.7,498.2 L388.7,498.2 L388.7,498.2 L388.7,498.2 L388.7,498.2 L388.7,498.2 L388.7,498.2 L388.7,498.2 L388.7,498.2 L388.7,498.2 L388.7,498.2 L388.7,498.2 L388.7,498.2 L388.7,498.2 L388.7,498.2 L388.7,498.2 L388.7,498.2 L388.7,498.2 L388.7,498.2 L388.7,498.2 L388.7,498.2 L388.7,498.2 L388.7,498.2 L388.7,498.2 L388.7,498.2 L388.7,498.2 L388.7,498.2 L388.7,498.2 L388.7,498.2 L388.7,498.2 L388.7,498.2 L388.7,498.2 L388.7,498.2 L388.7,498.2 L388.7,498.2 L388.7,498.2 L389.7,497.1 L390.4,493.7 L392.1,491.5 L393.8,488.9 L395.1,486.7 L397.1,484.1 L398.8,481.9 L400.4,480.4 L400.4,477.8 L403.8,475.6 L405.5,473.7 L405.8,471.1 L408.8,468.9 L410.5,466.7 L411.1,465.2 L413.8,463.0 L415.5,460.7 L416.5,458.9 L418.8,457.0 L420.5,454.8 L421.8,453.0 L423.8,450.7 L425.5,449.6 L427.2,447.8 L428.9,445.2 L432.2,443.0 L432.5,441.5 L435.5,438.9 L437.2,437.4 L438.9,435.2 L440.6,433.7 L443.2,431.8 L445.6,430.0 L448.9,428.1 L449.9,427.4 L452.3,425.5 L455.3,424.4 L455.6,423.3 L459.0,421.8 L460.6,420.4 L464.0,419.6 L465.6,418.9 L469.0,418.1 L470.7,417.0 L475.7,416.7 L477.3,415.5 L482.0,415.2 L484.0,414.8 L486.0,414.4 L489.1,414.4 L491.4,414.4 L494.1,414.4 L498.7,414.4 L500.8,414.4 L502.8,414.8 L505.8,415.2 L509.4,415.5 L510.8,415.9 L512.8,416.7 L515.8,417.0 L518.1,417.8 L520.8,418.9 L524.2,419.6 L524.8,420.4 L529.2,421.5 L530.8,422.6 L534.2,424.1 L534.9,425.5 L537.5,427.4 L539.5,428.5 L542.6,430.4 L544.9,432.6 L545.9,434.4 L549.2,435.9 L550.9,437.4 L551.6,439.3 L554.3,441.5 L555.9,443.7 L556.9,445.9 L559.3,448.9 L560.9,451.1 L562.3,453.7 L562.6,456.3 L562.6,458.2 L564.3,460.4 L566.0,462.6 L566.0,465.6 L568.3,467.8 L568.3,470.4 L567.6,472.6 L567.6,475.9 L569.3,478.5 L569.3,481.1 L569.3,484.1 L569.3,486.3 L569.3,488.9 L569.3,491.5 L567.6,493.7 L567.6,496.3 L567.6,498.9 L568.3,501.5 L568.3,503.7 L566.0,506.3 L566.0,509.3 L564.3,512.3 L562.6,514.8 L562.3,517.4 L560.9,519.7 L559.3,522.3 L556.9,524.5 L555.9,526.7 L554.3,528.6 L552.6,530.8 L550.9,533.0 L549.2,534.5 L547.6,536.0 L544.9,538.2 L542.6,540.0 L539.5,541.5 L539.2,542.6 L535.9,544.1 L534.2,545.6 L530.8,547.5 L529.2,548.6 L525.8,549.7 L524.2,550.4 L520.8,551.2 L518.1,552.3 L515.8,553.0 L512.8,553.4 L510.8,553.8 L509.4,554.5 L505.8,554.5 L502.8,554.9 L500.8,554.9 L497.4,554.9 L494.1,554.5 L492.4,554.5 L490.7,554.1 L487.4,553.8 L485.7,553.0 L482.0,552.3 L479.0,551.5 L476.0,550.8 L474.0,550.0 L470.7,548.9 L469.0,547.8 L465.6,546.7 L464.0,545.2 L462.3,543.7 L459.3,542.3 L457.3,541.2 L455.3,539.7 L452.3,538.2 L450.6,536.7 L448.9,535.2 L445.6,533.7 L443.9,532.3 L442.2,530.8 L440.6,529.3 L437.9,527.4 L435.5,525.6 L433.9,523.7 L432.2,521.9 L430.5,520.4 L428.5,518.9 L427.2,517.1 L423.8,515.2 L421.8,513.4 L418.8,511.1 L417.2,509.7 L415.5,507.4 L413.8,505.6 L411.1,503.7 L410.5,502.2 L408.8,500.8 L405.8,498.9 L403.8,496.7 L402.1,495.2 L400.4,493.7 L398.8,490.8 L395.4,489.3 L395.1,487.8 L392.1,485.9 L390.4,484.1 L389.7,482.2 L387.1,480.8 L385.4,479.3 L384.4,477.4 L382.0,475.6 L379.0,473.7 L378.7,471.9 L375.4,469.6 L373.7,468.2 L372.0,465.9 L370.3,464.8 L368.3,463.0 L365.3,460.4 L363.7,458.5 L362.0,456.7 L360.3,455.2 L357.6,452.6 L357.0,450.7 L353.6,448.9 L352.3,447.4 L350.3,445.6 L348.6,444.1 L346.9,441.9 L345.3,440.0 L341.9,438.5 L340.2,436.7 L338.6,435.2 L336.2,433.7 L333.6,431.8 L330.9,430.0 L330.2,428.5 L326.9,427.4 L325.2,426.3 L321.9,425.2 L320.2,424.1 L318.5,423.0 L315.2,421.8 L313.5,421.1 L310.2,420.4 L308.5,420.0 L305.1,419.3 L303.5,418.5 L300.1,418.1 L296.8,417.8 L295.1,417.4 L291.8,417.4 L290.1,417.4 L288.1,417.4 L285.1,417.4 L281.7,417.4 L278.4,417.8 L276.7,418.1 L271.7,418.5 L270.0,419.3 L266.7,419.6 L265.0,420.0 L261.7,420.4 L260.0,420.7 L256.7,421.5 L255.0,421.8 L251.6,422.6 L249.3,423.0 L246.6,423.7 L244.6,424.1 L241.6,424.8 L239.3,425.2 L236.6,425.5 L234.6,426.3 L231.6,426.7 L229.2,427.0 L226.6,427.4 L222.5,427.8 L219.9,428.1 L217.2,428.1 L214.9,428.5 L211.5,428.9 L208.2,429.3 L206.5,429.3 L201.5,429.6 L199.8,429.6 L196.5,429.6 L194.8,430.0 L191.4,430.0 L188.1,430.0 L185.1,430.0 L181.4,430.0 L179.7,430.0 L176.4,430.0 L175.1,430.0 L171.4,430.0 L168.4,429.6 L166.4,429.6 L164.4,429.3 L161.4,428.9 L158.3,428.1 L156.3,427.8 L153.0,427.4 L151.3,426.7 L148.0,425.5 L146.3,424.4 L143.0,423.3 L141.3,422.2 L137.9,421.1 L136.3,419.6 L132.9,417.8 L131.3,415.9 L129.6,414.4 L126.2,413.0 L126.2,411.5 L122.9,410.0 L121.2,407.4 L119.6,405.5 L117.9,403.3 L115.5,401.1 L114.5,398.9 L112.9,396.6 L111.2,394.4 L110.9,392.6 L109.5,390.4 L107.8,388.1 L106.2,384.8 L106.2,382.6 L105.5,380.7 L104.5,378.5 L104.5,375.9 L104.5,374.0 L102.8,371.1 L102.8,368.5 L102.8,366.3 L101.2,363.7 L101.2,360.7 L101.2,358.1 L101.2,355.2 L102.8,352.9 L102.8,350.7 L102.8,348.5 L102.8,345.5 L104.5,342.9 L104.5,340.7 L105.5,337.7 L106.2,334.0 L107.8,331.4 L107.8,329.2 L109.5,326.6 L110.9,324.0 L112.9,321.8 L114.5,319.6 L115.5,317.0 L116.2,314.8 L117.9,313.3 L120.9,310.7 L122.9,308.5 L124.6,307.0 L126.2,305.1 L127.9,303.3 L131.3,301.4 L132.9,299.9 L136.3,298.1 L137.9,297.0 L139.6,295.9 L141.6,294.4 L144.6,293.3 L147.6,292.2 L149.6,291.4 L153.0,290.7 L154.7,289.9 L158.0,289.2 L159.7,288.8 L163.0,288.5 L166.4,288.1 L168.4,287.7 L171.4,287.7 L175.1,287.7 L176.4,287.7 L179.7,288.1 L183.1,288.5 L184.8,288.8 L188.1,289.2 L189.8,289.9 L193.1,290.7 L194.8,291.1 L196.5,292.2 L199.8,292.9 L201.5,294.0 L204.8,295.1 L207.8,296.6 L208.2,297.7 L211.5,298.8 L213.2,300.3 L216.5,302.2 L217.2,303.6 L219.9,305.1 L221.5,306.2 L223.2,308.5 L226.6,310.3 L229.2,311.8 L229.9,313.7 L233.2,315.1 L234.6,316.6 L236.6,318.5 L238.3,320.3 L239.9,321.8 L241.6,323.7 L244.6,325.5 L244.9,327.0 L248.3,328.8 L249.3,330.3 L251.6,332.5 L255.0,334.8 L256.0,335.9 L258.3,338.1 L260.0,339.6 L261.7,342.2 L265.0,344.0 L264.7,345.5 L268.4,347.7 L270.0,349.6 L271.7,351.4 L273.4,353.3 L275.0,354.8 L277.4,356.6 L278.4,358.5 L281.7,360.0 L282.7,361.8 L283.4,364.0 L286.7,365.9 L288.1,367.7 L290.1,369.6 L291.8,371.1 L293.4,373.3 L295.1,374.8 L296.8,376.6 L298.5,378.5 L300.1,380.7 L303.5,382.6 L304.1,384.4 L306.8,386.3 L308.5,388.1 L310.2,390.0 L311.8,391.8 L314.8,394.1 L315.2,396.3 L318.5,397.4 L318.8,399.2 L320.2,401.5 L323.5,402.9 L325.2,404.8 L325.5,406.7 L328.5,408.5 L330.2,410.4 L331.9,411.8 L333.6,413.3 L336.2,415.2 L338.6,417.4 L340.2,419.3 L341.9,420.7 L345.3,422.6 L346.9,424.4 L348.6,425.9 L352.0,427.0 L352.3,428.1 L357.0,429.6 L358.6,430.7 L360.3,431.8 L363.0,433.0 L365.3,433.7 L368.3,434.4 L370.3,435.2 L373.7,435.6 L377.0,436.3 L379.0,437.0 L382.0,437.0 L383.7,437.4 L385.4,437.4 L388.7,437.8 L392.1,437.8 L395.1,437.8 L397.1,437.4 L398.8,437.4 L400.4,437.0 L403.8,436.7 L405.8,436.3 L410.5,435.6 L412.1,435.2 L415.5,435.2 L416.5,434.8 L420.5,434.1 L422.2,433.3 L425.5,433.0 L428.5,432.2 L428.9,431.8 L432.5,431.1 L435.5,430.4 L437.9,430.0 L438.9,429.3 L442.2,428.9 L445.6,428.1 L448.9,427.8 L450.6,427.0 L453.9,426.7 L455.6,426.3 L459.0,425.5 L462.3,425.2 L464.6,424.4 L469.0,424.1 L470.0,424.1 L472.3,423.7 L475.7,423.7 L477.3,423.7 L480.7,423.3 L484.0,423.3 L486.0,423.3 L489.1,423.3 L492.4,423.7 L495.7,423.7 L498.7,423.7 L500.8,423.7 L502.8,424.1 L505.8,424.1 L509.4,424.1 L512.5,424.1 L514.1,424.1 L517.5,424.4 L519.1,424.4 L522.5,424.4 L524.8,424.8 L527.5,425.2 L529.5,425.5 L534.2,425.9 L534.9,426.3 L539.2,427.0 L540.9,427.8 L544.2,428.1 L545.9,428.9 L549.2,430.0 L551.6,431.1 L554.3,432.2 L556.9,433.7 L557.6,434.8 L562.3,436.7 L564.3,438.1 L566.0,439.6 L567.6,441.5 L571.0,443.0 L572.6,444.8 L574.3,447.0 L576.0,449.3 L579.0,451.1 L579.3,453.3 L581.0,455.6 L582.7,457.8 L583.7,460.0 L584.4,462.2 L586.0,464.1 L587.7,465.9 L589.0,468.2 L589.0,470.8 L589.4,473.3 L591.0,475.2 L591.0,478.2 L592.7,481.1 L592.7,483.4 L592.7,485.9 L594.4,488.9 L594.4,491.5 L594.4,494.5 L594.4,496.7 L594.4,500.4 L594.4,502.6 L592.7,505.2 L592.7,508.2 L592.7,510.4 L591.0,512.6 L591.0,515.2 L589.4,518.2 L589.0,520.4 L587.7,524.1 L586.0,526.7 L584.4,528.9 L583.7,531.1 L583.7,533.4 L582.7,534.9 L581.0,537.1 L579.0,539.3 L577.7,541.5 L574.3,544.5 L572.6,546.3 L571.0,548.2 L567.6,550.0 L568.3,551.2 L564.3,553.4 L562.3,554.9 L560.9,556.3 L557.6,557.5 L555.9,558.2 L554.3,559.3 L550.9,560.8 L547.6,561.9 L544.9,562.6 L544.2,563.4 L540.9,564.1 L539.2,564.9 L535.9,564.9 L532.5,565.6 L529.5,566.0 L527.5,566.0 L525.8,566.0 L524.2,566.0 L520.8,566.0 L518.1,566.0 L515.8,565.6 L512.5,565.2 L510.8,564.9 L509.4,564.5 L505.8,564.1 L502.8,563.4 L500.8,562.3 L498.7,561.5 L495.7,560.4 L494.1,559.7 L491.4,558.2 L489.1,557.1 L486.0,555.6 L482.4,552.6 L480.7,551.5 L477.3,550.0 L476.0,548.2 L474.0,546.3 L472.3,544.9 L470.0,543.4 L467.3,541.5 L465.6,539.7 L464.0,538.2 L462.3,536.3 L459.3,534.5 L459.0,533.0 L455.6,531.1 L455.3,529.3 L452.3,527.4 L450.6,526.0 L448.9,524.1 L447.3,521.9 L443.2,518.6 L442.2,517.1 L438.9,514.8 L437.2,513.0 L435.5,511.1 L432.5,509.3 L430.5,506.7 L428.9,505.2 L427.2,503.4 L423.8,500.4 L422.2,498.5 L420.5,496.3 L417.2,494.5 L416.5,492.6 L413.8,490.4 L412.1,488.9 L411.1,487.4 L408.8,484.8 L405.8,481.9 L403.8,480.4 L400.4,478.2 L400.4,476.3 L398.8,474.8 L395.4,473.0 L395.1,471.5 L392.1,469.3 L390.4,467.0 L387.1,464.1 L384.4,461.9 L383.7,460.4 L380.4,458.2 L379.0,456.7 L377.0,454.8 L375.4,453.0 L373.7,451.1 L372.0,449.6 L368.3,445.9 L365.3,444.1 L363.7,442.6 L362.0,440.7 L360.3,438.5 L357.6,436.3 L357.0,435.2 L353.6,433.3 L352.0,431.8 L346.9,428.9 L346.9,427.8 L341.9,425.9 L341.6,424.8 L338.6,423.7 L336.2,422.2 L335.2,421.5 L331.9,420.4 L330.2,420.0 L325.2,418.5 L321.9,417.8 L318.8,417.4 L316.8,416.7 L314.8,416.7 L311.8,416.3 L309.5,415.9 L306.8,415.9 L304.1,415.9 L301.8,415.9 L298.5,415.9 L295.1,416.3 L293.4,416.7 L291.8,417.0 L288.4,417.4 L286.7,418.1 L283.4,418.5 L281.7,419.6 L278.4,420.4 L276.7,420.7 L273.4,422.2 L271.4,423.0 L268.4,424.4 L264.7,426.3 L265.0,427.4 L261.7,428.5 L260.0,429.6 L258.3,431.1 L256.0,432.6 L255.0,433.7 L251.6,435.9 L249.3,437.4 L248.3,439.3 L244.9,441.1 L243.3,443.0 L241.6,444.8 L239.9,447.0 L238.3,449.3 L236.6,450.7 L234.9,452.6 L234.6,455.6 L233.2,457.4 L231.6,459.3 L229.9,461.1 L229.2,463.3 L226.6,465.6 L224.9,468.2 L222.5,470.4 L221.5,472.6 L219.9,474.1 L219.9,474.1 L219.9,474.1 L219.9,474.1 L219.9,474.1 L219.9,474.1 L219.9,474.5 L219.9,474.5 L218.2,474.5 L218.2,474.5 L218.2,474.5 L218.2,474.5 L218.2,474.5 L218.2,474.5 L218.2,474.5 L218.2,474.5 L218.2,474.5 L218.2,474.5 L218.2,474.5 L218.2,474.8 L218.2,474.8 L218.2,474.8 L218.2,474.8 L218.2,474.8 L218.2,474.8 L218.2,474.8 L218.2,474.8 L218.2,474.8 L218.2,474.8 L218.2,474.8 L218.2,474.8 L218.2,474.8 L218.2,474.8 L217.2,475.2 L217.2,475.2 L217.2,475.2 L217.2,475.2 L217.2,475.2 L217.2,475.2 L217.2,475.2 L217.2,475.2 L217.2,475.2 L217.2,475.2 L217.2,475.2 L217.2,475.2 L217.2,475.2 L217.2,475.2 L217.2,475.2 L217.2,475.2 L217.2,475.6 L217.2,475.6 L217.2,475.6 L217.2,475.6 L217.2,475.6 L217.2,475.6 L217.2,475.6 L217.2,475.6 L217.2,475.6 L216.5,475.6 L216.5,475.6 L216.5,475.6 L216.5,475.6 L216.5,475.6 L216.5,475.6 L216.5,475.6 L216.5,475.6 L216.5,475.6 L216.5,475.6 L216.5,475.6 L216.5,475.6 L216.5,475.9 L216.5,475.9 L216.5,475.9 L216.5,475.9 L216.5,475.9 L216.5,475.9 L216.5,475.9 L216.5,475.9 L216.5,475.9 L216.5,475.9 L216.5,475.9 L216.5,475.9 L214.9,475.9 L214.9,475.9 L214.9,475.9 L214.9,475.9 L214.9,475.9 L214.9,475.9 L214.9,475.9 L214.9,475.9 L214.9,475.9 L214.9,475.9 L214.9,475.9 L214.9,475.9 L214.9,475.9 L214.9,475.9 L214.9,475.9 L214.9,475.9 L214.9,475.9 L214.9,475.9 L214.9,475.9 L214.9,475.9 L214.9,476.3 L214.9,476.3 L213.2,476.3 L213.2,476.3 L213.2,476.3 L213.2,476.3 L213.2,476.3 L213.2,476.3 L213.2,476.3 L213.2,476.3 L213.2,476.3 L213.2,476.3 L213.2,476.3 L213.2,476.3 L213.2,476.3 L213.2,476.3 L213.2,476.3 L213.2,476.3 L213.2,476.3 L213.2,476.3 L213.2,476.3 L213.2,476.3 L213.2,476.3 L213.2,476.3 L213.2,476.3 L211.8,476.3 L211.8,476.3 L211.8,476.3 L211.8,476.3 L211.8,476.3 L211.8,476.3 L211.8,476.3 L211.8,476.3 L211.8,476.3 L211.8,476.3 L211.8,476.3 L211.8,476.3 L211.8,476.3 L211.8,476.3 L211.8,476.3 L211.8,476.3 L211.8,476.3 L211.8,476.3 L211.8,476.3 L211.8,476.3 L211.8,476.3 L211.8,476.3 L211.8,476.3 L211.5,476.3 L211.5,476.3 L211.5,476.3 L211.5,476.3 L211.5,476.3 L211.5,476.3 L211.5,476.3 L211.5,476.3 L211.5,475.9 L211.5,475.9 L211.5,475.9 L211.5,475.9 L211.5,475.9 L211.5,475.9 L211.5,475.9 L211.5,475.9 L211.5,475.9 L211.5,475.9 L211.5,475.9 L211.5,475.9 L209.8,475.9 L209.8,475.9 L209.8,475.9 L209.8,475.9 L209.8,475.9 L209.8,475.9 L209.8,475.9 L209.8,475.9 L209.8,475.9 L209.8,475.9 L209.8,475.9 L209.8,475.9 L209.8,475.9 L209.8,475.9 L209.8,475.9 L209.8,475.9 L209.8,475.9 L209.8,475.6 L209.8,475.6 L209.8,475.6 L209.8,475.6 L209.8,475.6 L208.2,475.6 L208.2,475.6 L208.2,475.6 L208.2,475.6 L208.2,475.6 L208.2,475.6 L208.2,475.6 L208.2,475.6 L208.2,475.6 L208.2,475.6 L208.2,475.6 L208.2,475.6 L208.2,475.6 L208.2,475.6 L208.2,475.6 L208.2,475.2 L208.2,475.2 L208.2,475.2 L208.2,475.2 L208.2,475.2 L208.2,475.2 L208.2,475.2 L208.2,475.2 L207.8,475.2 L207.8,475.2 L207.8,475.2 L207.8,475.2 L207.8,475.2 L207.8,475.2 L207.8,475.2 L207.8,475.2 L207.8,475.2 L207.8,475.2 L207.8,474.8 L207.8,474.8 L207.8,474.8 L207.8,474.8 L207.8,474.8 L207.8,474.8 L207.8,474.8 L207.8,474.8 L207.8,474.8 L207.8,474.8 L207.8,474.8 L207.8,474.8 L207.8,474.8 L207.8,474.8 L206.5,474.8 L206.5,474.8 L206.5,474.5 L206.5,474.5 L206.5,474.5 L206.5,474.5 L206.5,474.5 L206.5,474.5 L206.5,474.5 L206.5,474.5 L206.5,474.5 L206.5,474.5 L206.5,474.5 L206.5,474.5 L206.5,474.5 L206.5,474.1 L206.5,474.1 L206.5,474.1 L206.5,474.1 L206.5,474.1 L206.5,474.1 L206.5,474.1 L206.5,474.1 L206.5,474.1 L204.8,474.1 L204.8,474.1 L204.8,474.1 L204.8,474.1 L204.8,473.7 L204.8,473.7 L204.8,473.7 L204.8,473.7 L204.8,473.7 L204.8,473.7 L204.8,473.7 L204.8,473.7 L204.8,473.7 L204.8,473.7 L204.8,473.7 L204.8,473.7 L204.8,473.7 L204.8,473.7 L204.8,473.7 L204.8,473.7 L204.8,473.7 L204.8,473.7 L204.8,473.7 L204.8,473.7 L204.8,473.7 L204.8,473.7 L203.1,473.7 L203.1,473.3 L203.1,473.3 L203.1,473.3 L203.1,473.3 L203.1,473.3 L203.1,473.3 L203.1,473.3 L203.1,473.3 L203.1,473.3 L203.1,473.3 L203.1,473.3 L203.1,473.3 L203.1,473.0 L203.1,473.0 L203.1,473.0 L203.1,473.0 L203.1,473.0 L203.1,473.0 L203.1,473.0 L203.1,473.0 L203.1,473.0 L203.1,473.0 L203.1,473.0 L203.1,472.6 L201.5,472.6 L201.5,472.6 L201.5,472.6 L201.5,472.6 L201.5,472.6 L201.5,472.6 L201.5,472.6 L201.5,472.6 L201.5,472.6 L201.5,472.6 L201.5,472.2 L201.5,472.2 L201.5,472.2 L201.5,472.2 L201.5,472.2 L201.5,472.2 L201.5,472.2 L201.5,472.2 L201.5,472.2 L201.5,472.2 L201.5,471.9 L201.5,471.9 L201.5,471.9 L201.5,471.9 L200.5,471.9 L200.5,471.9 L200.5,471.9 L200.5,471.9 L200.5,471.9 L200.5,471.9 L200.5,471.5 L200.5,471.5 L200.5,471.5 L200.5,471.5 L200.5,471.5 L200.5,471.5 L200.5,471.5 L200.5,471.5 L200.5,471.5 L200.5,471.5 L200.5,471.1 L200.5,471.1 L200.5,471.1 L200.5,471.1 L200.5,471.1 L200.5,471.1 L200.5,471.1 L200.5,471.1 L200.5,471.1 L200.5,471.1 L199.8,470.8 L199.8,470.8 L199.8,470.8 L199.8,470.8 L199.8,470.8 L199.8,470.8" fill="none" stroke="#bcbd22" stroke-width="1.7" opacity="0.85"/><circle cx="200" cy="471" r="4.5" fill="#bcbd22"/><rect x="28" y="108" width="13" height="13" fill="#bcbd22"/><text x="46" y="119" font-size="12">50%</text><path d="M388.7,498.2 L388.7,498.2 L388.7,498.2 L388.7,498.2 L388.7,498.2 L388.7,498.2 L388.7,498.2 L388.7,498.2 L388.7,498.2 L388.7,498.2 L388.7,498.2 L388.7,498.2 L388.7,498.2 L388.7,498.2 L388.7,498.2 L388.7,498.2 L388.7,498.2 L388.7,498.2 L388.7,498.2 L388.7,498.2 L388.7,498.2 L388.7,498.2 L388.7,498.2 L388.7,498.2 L388.7,498.2 L388.7,498.2 L388.7,498.2 L388.7,498.2 L388.7,498.2 L388.7,498.2 L388.7,498.2 L388.7,498.2 L388.7,498.2 L388.7,498.2 L388.7,498.2 L388.7,498.2 L388.7,498.2 L388.7,498.2 L388.7,498.2 L388.7,498.2 L388.7,498.2 L388.7,498.2 L388.7,498.2 L388.7,498.2 L388.7,498.2 L388.7,498.2 L388.7,498.2 L388.7,498.2 L388.7,498.2 L388.7,498.2 L388.7,498.2 L388.7,498.2 L388.7,498.2 L388.7,498.2 L388.7,498.2 L388.7,498.2 L388.7,498.2 L388.7,498.2 L388.7,498.2 L388.7,498.2 L388.7,498.2 L388.7,498.2 L388.7,498.2 L388.7,498.2 L388.7,498.2 L388.7,498.2 L388.7,498.2 L388.7,498.2 L388.7,498.2 L388.7,498.2 L388.7,498.2 L388.7,498.2 L388.7,498.2 L388.7,498.2 L388.7,498.2 L388.7,498.2 L388.7,498.2 L388.7,498.2 L388.7,498.2 L389.7,497.1 L390.4,494.8 L392.1,492.6 L393.8,490.4 L395.1,488.9 L395.4,486.3 L397.1,484.5 L398.8,481.9 L400.4,480.0 L400.4,477.4 L403.8,475.2 L405.5,473.7 L405.8,471.1 L407.1,469.3 L410.5,466.7 L411.1,465.2 L413.8,463.0 L415.5,460.7 L416.5,458.9 L417.2,457.4 L420.5,454.8 L421.8,453.0 L423.8,450.7 L425.5,449.3 L427.2,447.4 L428.9,445.6 L430.5,443.7 L432.2,442.2 L433.9,440.4 L435.5,438.1 L437.9,436.7 L438.9,435.2 L442.2,433.7 L443.9,431.8 L445.6,430.4 L448.9,429.3 L450.6,427.8 L452.3,426.7 L455.3,425.2 L457.3,424.1 L459.0,423.0 L460.6,421.5 L464.0,420.7 L465.6,419.6 L469.0,418.9 L470.7,417.8 L474.0,417.0 L476.0,415.9 L479.0,415.5 L482.0,414.8 L484.0,414.4 L486.0,414.1 L489.1,413.7 L491.4,413.3 L494.1,413.3 L497.4,413.0 L499.1,413.0 L502.4,413.0 L504.1,413.0 L507.4,413.0 L509.1,413.3 L512.5,413.7 L514.1,414.1 L517.5,414.4 L519.1,414.8 L522.5,415.2 L524.8,415.9 L527.5,416.7 L529.5,417.4 L532.5,418.1 L534.9,419.3 L537.5,420.0 L539.5,421.1 L542.6,422.2 L544.9,423.7 L547.6,425.2 L550.9,426.7 L551.6,427.8 L554.3,429.3 L555.9,430.4 L557.6,432.2 L560.9,433.7 L562.3,435.2 L564.3,437.0 L566.0,438.9 L567.6,441.1 L569.3,443.0 L571.0,444.8 L572.6,446.7 L574.3,449.3 L576.0,450.7 L577.7,453.3 L579.0,455.9 L579.3,458.2 L581.0,460.4 L582.7,463.0 L583.7,465.2 L583.7,467.4 L584.4,470.0 L586.0,472.6 L586.0,474.5 L587.7,477.4 L587.7,480.0 L587.7,482.2 L589.0,484.8 L589.0,487.1 L589.0,489.6 L589.0,492.2 L589.0,494.8 L589.0,497.1 L589.0,500.0 L589.0,503.0 L589.0,505.6 L587.7,508.5 L587.7,510.8 L586.0,513.4 L586.0,516.0 L584.4,518.6 L584.4,520.4 L583.7,523.4 L582.7,525.6 L582.7,527.8 L581.0,530.4 L579.3,533.0 L579.0,535.2 L577.7,537.4 L574.3,540.0 L573.7,541.9 L572.6,543.7 L571.0,545.6 L567.6,547.8 L566.0,551.5 L562.6,553.0 L562.3,555.2 L559.3,556.7 L557.6,558.2 L555.9,559.7 L552.6,561.5 L550.9,562.6 L549.2,564.1 L545.9,565.2 L544.2,566.3 L540.9,567.5 L539.2,568.6 L535.9,569.3 L534.2,570.1 L530.8,570.8 L529.2,571.5 L525.8,572.3 L524.2,572.3 L520.8,572.6 L518.1,573.0 L514.1,573.4 L512.5,573.4 L509.1,573.4 L507.4,573.4 L504.1,573.0 L502.4,573.0 L499.1,572.6 L497.4,572.3 L494.1,571.9 L491.4,571.2 L489.1,570.8 L486.0,569.7 L484.0,568.9 L482.0,567.8 L479.0,566.7 L476.0,565.6 L474.0,564.5 L472.3,563.4 L469.0,561.9 L467.3,560.4 L464.6,558.9 L464.0,557.5 L460.6,556.3 L459.0,554.9 L457.3,553.4 L455.3,551.9 L452.3,550.0 L450.6,548.9 L448.9,547.1 L445.6,545.2 L443.9,543.7 L442.2,541.9 L440.6,540.4 L437.9,538.2 L437.2,536.7 L433.9,534.5 L432.5,533.4 L430.5,531.1 L428.9,529.7 L427.2,527.1 L425.5,525.6 L422.2,524.1 L421.8,521.9 L418.8,520.0 L417.2,518.6 L415.5,516.3 L413.8,514.5 L411.1,512.3 L410.5,510.4 L407.1,508.5 L405.8,506.7 L403.8,504.8 L402.1,503.0 L400.4,501.1 L398.8,499.3 L397.1,497.4 L395.1,495.9 L393.8,493.7 L390.4,492.2 L389.7,490.4 L388.7,488.5 L385.4,486.7 L384.4,485.2 L383.7,483.0 L380.4,481.1 L379.0,479.3 L377.0,477.1 L375.4,475.6 L373.7,473.7 L372.0,471.5 L370.3,469.3 L368.3,467.0 L367.0,465.6 L363.7,463.7 L363.0,461.9 L362.0,459.6 L358.6,458.2 L357.6,456.7 L355.3,454.8 L353.6,453.0 L352.0,451.1 L350.3,449.6 L348.6,448.2 L346.9,446.3 L345.3,444.4 L341.9,442.6 L341.6,441.5 L338.6,440.0 L336.9,438.5 L335.2,436.7 L333.6,435.2 L330.9,434.1 L328.5,432.2 L326.9,430.7 L325.2,428.9 L321.9,427.8 L318.8,426.7 L318.5,425.5 L315.2,424.1 L313.5,423.0 L310.2,421.8 L308.5,420.7 L305.1,420.0 L303.5,419.3 L301.8,418.5 L298.5,417.8 L296.8,417.0 L293.4,416.3 L290.1,415.5 L288.1,415.2 L285.1,414.8 L282.7,414.4 L280.1,414.1 L277.4,414.1 L275.0,413.7 L271.7,413.7 L270.0,413.7 L265.0,414.1 L261.7,414.1 L260.0,414.1 L256.7,414.4 L255.0,414.4 L251.6,414.8 L249.3,415.2 L246.6,415.5 L244.6,415.5 L241.6,415.9 L239.3,416.3 L236.6,416.7 L234.6,417.0 L231.6,417.8 L229.2,418.1 L226.6,418.9 L224.9,419.3 L221.5,420.0 L218.2,420.4 L216.5,421.1 L213.2,421.5 L211.5,422.2 L208.2,422.6 L206.5,423.3 L203.1,423.7 L200.5,424.1 L198.1,424.4 L195.1,424.8 L193.1,425.2 L190.4,425.2 L188.1,425.5 L185.1,425.9 L183.1,425.9 L179.7,426.3 L176.4,426.3 L174.7,426.7 L171.4,426.7 L168.4,427.0 L166.4,427.4 L164.4,427.8 L161.4,427.8 L158.3,428.1 L156.3,428.5 L153.0,428.9 L151.3,429.3 L148.0,429.6 L146.3,430.0 L143.0,430.4 L141.3,430.7 L137.9,431.5 L136.3,431.8 L132.9,432.2 L131.3,432.6 L127.9,433.3 L126.2,433.7 L122.9,434.4 L120.9,435.2 L117.9,435.6 L115.5,436.3 L112.9,437.0 L110.9,437.8 L107.8,438.9 L105.5,440.0 L102.8,440.7 L99.5,441.9 L97.8,442.6 L96.1,443.7 L94.1,444.8 L91.1,446.3 L88.8,447.8 L86.1,448.9 L84.4,450.4 L82.8,451.5 L79.4,453.3 L77.8,454.8 L76.8,456.3 L74.4,458.2 L72.7,459.6 L71.1,461.9 L69.4,463.7 L66.7,465.6 L66.1,467.4 L64.4,469.6 L62.7,472.6 L61.0,474.8 L61.0,477.1 L59.4,479.6 L57.7,481.5 L56.7,484.1 L56.0,486.3 L54.3,488.9 L54.3,491.1 L52.7,493.7 L52.7,496.3 L51.0,498.5 L51.0,501.1 L51.0,503.7 L51.0,506.0 L50.0,508.9 L50.0,511.5 L50.0,514.1 L50.0,516.3 L50.0,518.9 L51.0,521.5 L51.0,524.5 L51.0,526.7 L51.0,529.3 L52.7,531.5 L52.7,534.1 L54.3,536.3 L54.3,538.9 L56.7,545.2 L57.7,547.8 L59.4,550.0 L61.0,552.3 L61.4,554.9 L62.7,557.1 L64.4,558.9 L66.7,561.2 L67.7,563.4 L71.1,566.0 L71.4,567.8 L74.4,569.7 L76.1,571.5 L77.8,573.4 L79.4,575.2 L82.8,577.1 L84.4,578.6 L87.8,580.1 L89.5,581.5 L91.1,582.7 L94.1,583.8 L96.1,585.2 L100.2,586.4 L101.2,587.1 L104.5,587.8 L106.2,588.6 L109.5,589.3 L112.9,590.4 L114.5,590.8 L117.9,591.2 L120.9,591.5 L122.9,591.9 L126.2,592.3 L127.9,592.3 L130.9,592.3 L132.9,592.3 L137.6,591.9 L139.6,591.5 L141.6,591.2 L144.6,590.8 L147.6,590.1 L149.6,589.7 L153.0,588.6 L154.7,587.8 L158.0,587.5 L161.4,586.0 L164.4,584.9 L166.4,583.8 L168.0,582.7 L169.7,581.2 L173.1,580.4 L174.7,578.6 L176.4,577.1 L179.7,575.6 L181.4,573.0 L184.8,571.5 L185.1,570.1 L188.1,567.8 L189.8,566.0 L190.4,564.5 L193.1,562.3 L194.8,560.0 L195.1,558.2 L196.5,556.0 L199.8,553.8 L200.5,551.2 L201.5,548.9 L203.1,546.3 L204.8,544.5 L206.5,541.9 L207.8,540.0 L208.2,537.4 L209.8,535.2 L211.5,533.4 L211.8,530.8 L213.2,528.9 L214.9,527.1 L216.5,525.2 L217.2,523.4 L219.9,520.8 L221.5,518.9 L222.5,516.7 L224.9,513.7 L228.2,511.5 L229.2,509.3 L229.9,507.1 L233.2,504.8 L234.9,502.6 L236.6,501.1 L238.3,498.9 L239.9,497.1 L241.6,495.2 L244.6,493.0 L244.9,491.5 L246.6,489.6 L249.3,487.8 L250.0,485.9 L251.6,484.1 L255.0,481.9 L256.0,480.4 L258.3,478.5 L260.0,476.3 L261.7,474.8 L263.3,473.0 L265.0,471.1 L266.7,469.3 L268.4,467.4 L271.4,465.6 L271.7,464.1 L273.4,462.2 L276.7,459.6 L278.4,458.2 L280.1,455.9 L281.7,454.1 L283.4,452.2 L285.1,450.7 L288.1,448.9 L288.4,446.7 L291.8,444.4 L293.4,442.2 L295.1,440.7 L298.1,438.9 L300.1,437.0 L301.8,435.2 L304.1,434.1 L305.1,432.6 L308.5,431.1 L310.2,429.6 L314.8,427.4 L315.2,426.3 L318.5,424.8 L320.2,423.3 L323.5,421.8 L325.5,420.4 L328.5,419.6 L330.9,418.5 L333.6,417.4 L336.2,416.3 L338.6,415.5 L341.6,414.8 L341.9,414.1 L346.9,413.7 L346.9,413.0 L352.0,412.6 L353.6,412.2 L357.0,412.2 L360.3,411.8 L363.0,411.8 L365.3,411.8 L368.3,411.8 L370.3,412.2 L373.7,412.2 L375.4,412.2 L378.7,412.6 L380.4,413.0 L384.4,413.3 L387.1,414.1 L389.7,414.4 L390.4,414.8 L395.1,415.5 L395.4,415.9 L400.4,416.3 L402.1,417.0 L403.8,417.8 L408.8,418.5 L411.1,419.3 L413.8,419.6 L417.2,420.4 L418.8,420.4 L421.8,421.1 L425.5,421.8 L428.5,422.2 L430.5,423.0 L432.5,423.7 L435.5,424.1 L437.9,424.4 L440.6,425.2 L443.2,425.5 L445.6,425.9 L448.9,426.7 L450.6,427.0 L453.9,427.4 L457.3,427.8 L459.3,427.8 L462.3,428.1 L464.6,428.1 L467.3,428.5 L470.0,428.5 L472.3,428.5 L475.7,428.9 L477.3,429.3 L480.7,429.3 L482.0,429.6 L485.7,429.6 L486.0,430.0 L490.7,430.4 L491.4,430.4 L495.7,430.7 L497.4,431.1 L500.8,431.1 L502.8,431.5 L507.4,431.8 L509.1,431.8 L512.5,431.8 L514.1,431.8 L517.5,431.8 L520.8,431.8 L522.5,431.8 L525.8,431.5 L527.5,431.5 L534.2,431.1 L535.9,430.7 L539.2,430.4 L540.9,430.4 L544.2,430.0 L545.9,430.0 L549.2,429.6 L551.6,429.3 L554.3,429.3 L559.3,428.5 L562.3,428.1 L564.3,427.8 L568.3,427.8 L569.3,427.4 L572.6,427.4 L574.3,427.0 L577.7,426.7 L579.3,426.3 L584.4,425.5 L587.7,425.2 L589.4,425.2 L592.7,424.8 L594.4,424.4 L597.7,424.4 L599.1,424.1 L602.7,423.7 L605.8,423.3 L607.8,423.0 L611.1,422.6 L614.4,422.2 L616.1,421.8 L619.5,421.8 L621.1,421.5 L624.5,421.1 L626.5,420.7 L629.5,420.4 L632.5,420.4 L636.5,420.4 L639.5,420.0 L643.2,420.0 L644.5,420.0 L647.9,420.4 L649.6,420.4 L652.9,420.4 L654.6,420.4 L657.9,420.7 L659.6,420.7 L663.3,421.5 L664.6,421.8 L668.6,422.6 L669.6,423.0 L673.0,423.7 L676.0,424.4 L678.0,425.2 L680.0,425.5 L683.0,426.7 L685.3,427.0 L688.0,427.8 L691.4,428.9 L693.0,429.6 L696.4,430.4 L698.0,431.1 L702.7,432.2 L703.1,433.0 L706.4,434.1 L708.1,434.8 L712.8,435.9 L716.4,437.0 L718.1,438.1 L719.8,438.9 L723.1,439.6 L724.8,440.7 L728.1,441.5 L729.8,442.6 L733.2,443.0 L738.2,444.8 L739.8,445.9 L743.2,447.0 L745.5,447.8 L748.2,448.9 L749.9,450.0 L751.5,450.7 L754.9,451.5 L756.6,452.6 L761.6,454.1 L764.9,454.8 L766.6,455.6 L769.9,455.9 L769.9,455.9 L769.9,455.9 L769.9,455.9 L769.9,455.9 L769.9,455.9 L769.9,455.9 L769.9,455.9 L769.9,455.9 L769.9,455.9 L769.9,455.9 L769.9,455.9 L769.9,455.9 L769.9,455.9 L771.6,455.9 L771.6,455.9 L771.6,455.9 L771.6,455.9 L771.6,455.9 L771.6,455.9 L771.6,455.9 L771.6,455.9 L771.6,455.9 L771.6,455.9 L771.6,455.9 L771.6,455.9 L771.6,455.9 L771.6,455.9 L771.6,455.9 L771.6,455.9 L771.6,455.9 L771.6,455.9 L771.6,455.9 L771.6,455.9 L771.6,455.9 L771.6,455.9 L772.3,455.9 L772.3,455.9 L772.3,455.6 L772.3,455.6 L772.3,455.6 L772.3,455.6 L772.3,455.6 L772.3,455.6 L772.3,455.6 L772.3,455.6 L772.3,455.6 L772.3,455.6 L772.3,455.6 L772.3,455.6 L772.3,455.6 L772.3,455.6 L772.3,455.6 L772.3,455.6 L772.3,455.6 L772.3,455.6 L772.3,455.6 L772.3,455.6 L772.3,455.6 L772.3,455.6 L773.3,455.2 L773.3,455.2 L773.3,455.2 L773.3,455.2 L773.3,455.2 L773.3,455.2 L773.3,455.2 L773.3,455.2 L773.3,455.2 L773.3,455.2 L773.3,455.2 L773.3,455.2 L773.3,455.2 L773.3,455.2 L773.3,455.2 L773.3,455.2 L773.3,455.2 L773.3,455.2 L773.3,455.2 L773.3,454.8 L773.3,454.8 L773.3,454.8 L773.3,454.8 L773.3,454.8 L773.3,454.8 L775.0,454.8 L775.0,454.8 L775.0,454.8 L775.0,454.8 L775.0,454.8 L775.0,454.8 L775.0,454.8 L775.0,454.8 L775.0,454.8 L775.0,454.8 L775.0,454.5 L775.0,454.5 L775.0,454.5 L775.0,454.5 L775.0,454.5 L775.0,454.5 L775.0,454.5 L775.0,454.5 L775.0,454.5 L775.0,454.5 L775.0,454.5 L775.0,454.5 L775.0,454.5 L775.0,454.5 L775.0,454.5 L775.0,454.1 L776.6,454.1 L776.6,454.1 L776.6,454.1 L776.6,454.1 L776.6,454.1 L776.6,454.1 L776.6,454.1 L776.6,454.1 L776.6,454.1 L776.6,454.1 L776.6,454.1 L776.6,454.1 L776.6,453.7 L776.6,453.7 L776.6,453.7 L776.6,453.7 L776.6,453.7 L776.6,453.7 L776.6,453.7 L776.6,453.7 L776.6,453.7 L776.6,453.7 L776.6,453.7 L776.6,453.7 L776.6,453.7 L777.6,453.3 L777.6,453.3 L777.6,453.3 L777.6,453.3 L777.6,453.3 L777.6,453.3 L777.6,453.3 L777.6,453.3 L777.6,453.3 L777.6,453.3 L777.6,453.3 L777.6,453.0 L777.6,453.0 L777.6,453.0 L777.6,453.0 L777.6,453.0 L777.6,453.0 L777.6,453.0 L777.6,453.0 L777.6,453.0 L777.6,453.0 L777.6,453.0 L777.6,453.0 L777.6,452.6 L777.6,452.6 L777.6,452.6 L777.6,452.6 L778.3,452.6 L778.3,452.6 L778.3,452.6 L778.3,452.6 L778.3,452.6 L778.3,452.6 L778.3,452.6 L778.3,452.2 L778.3,452.2 L778.3,452.2 L778.3,452.2 L778.3,452.2 L778.3,452.2 L778.3,452.2 L778.3,452.2 L778.3,452.2 L778.3,452.2 L778.3,452.2 L778.3,451.9 L778.3,451.9 L778.3,451.9 L778.3,451.9 L778.3,451.9 L778.3,451.9 L778.3,451.9 L778.3,451.9 L780.0,451.9 L780.0,451.9 L780.0,451.9 L780.0,451.5 L780.0,451.5 L780.0,451.5 L780.0,451.5 L780.0,451.5 L780.0,451.5 L780.0,451.5 L780.0,451.5 L780.0,451.5 L780.0,451.5 L780.0,451.1 L780.0,451.1 L780.0,451.1 L780.0,451.1 L780.0,451.1 L780.0,451.1 L780.0,451.1 L780.0,451.1 L780.0,451.1 L780.0,451.1 L780.0,450.7 L780.0,450.7 L780.0,450.7 L780.0,450.7 L780.0,450.7 L781.6,450.7 L781.6,450.7 L781.6,450.7 L781.6,450.7 L781.6,450.7 L781.6,450.7 L781.6,450.7 L781.6,450.7 L781.6,450.7 L781.6,450.7 L781.6,450.7 L781.6,450.7 L781.6,450.7 L781.6,450.7 L781.6,450.7 L781.6,450.4 L781.6,450.4 L781.6,450.4 L781.6,450.4 L781.6,450.4 L781.6,450.4 L781.6,450.4 L781.6,450.4 L781.6,450.4 L781.6,450.4 L781.6,450.4 L781.6,450.0 L783.0,450.0 L783.0,450.0 L783.0,450.0 L783.0,450.0 L783.0,450.0 L783.0,450.0 L783.0,450.0 L783.0,450.0 L783.0,450.0 L783.0,449.6 L783.0,449.6 L783.0,449.6 L783.0,449.6 L783.0,449.6 L783.0,449.6 L783.0,449.6 L783.0,449.6 L783.0,449.6 L783.0,449.6 L783.0,449.3 L783.0,449.3 L783.0,449.3 L783.0,449.3 L783.0,449.3 L783.0,449.3 L783.0,449.3 L783.3,449.3 L783.3,449.3 L783.3,449.3 L783.3,448.9 L783.3,448.9 L783.3,448.9 L783.3,448.9 L783.3,448.9 L783.3,448.9 L783.3,448.9 L783.3,448.9 L783.3,448.9 L783.3,448.9 L783.3,448.5 L783.3,448.5 L783.3,448.5 L783.3,448.5 L783.3,448.5 L783.3,448.5 L783.3,448.5 L783.3,448.5 L783.3,448.5 L783.3,448.5 L783.3,448.2 L783.3,448.2 L783.3,448.2 L783.3,448.2 L783.3,448.2 L785.0,448.2 L785.0,448.2 L785.0,448.2 L785.0,448.2 L785.0,448.2 L785.0,447.8 L785.0,447.8 L785.0,447.8 L785.0,447.8 L785.0,447.8 L785.0,447.8 L785.0,447.8 L785.0,447.8 L785.0,447.8 L785.0,447.8 L785.0,447.4 L785.0,447.4 L785.0,447.4 L785.0,447.4 L785.0,447.4 L785.0,447.4 L785.0,447.4 L785.0,447.4 L785.0,447.4 L785.0,447.4 L785.0,447.0 L785.0,447.0 L785.0,447.0 L786.7,447.0 L786.7,447.0 L786.7,447.0 L786.7,447.0 L786.7,447.0 L786.7,447.0 L786.7,446.7 L786.7,446.7 L786.7,446.7 L786.7,446.7 L786.7,446.7 L786.7,446.7 L786.7,446.7 L786.7,446.7 L786.7,446.7 L786.7,446.3 L786.7,446.3 L786.7,446.3 L786.7,446.3 L786.7,446.3 L786.7,446.3 L786.7,446.3 L786.7,446.3 L786.7,446.3 L786.7,446.3 L786.7,445.9 L787.0,445.9 L787.0,445.9 L787.0,445.9 L787.0,445.9 L787.0,445.9 L787.0,445.9 L787.0,445.9 L787.0,445.9 L787.0,445.9 L787.0,445.6 L787.0,445.6 L787.0,445.6 L787.0,445.6 L787.0,445.6 L787.0,445.6 L787.0,445.6 L787.0,445.6 L787.0,445.6 L787.0,445.6 L787.0,445.2 L787.0,445.2 L787.0,445.2 L787.0,445.2 L787.0,445.2 L787.0,445.2 L787.0,445.2 L788.3,445.2 L788.3,445.2 L788.3,444.8 L788.3,444.8 L788.3,444.8 L788.3,444.8 L788.3,444.8 L788.3,444.8 L788.3,444.8 L788.3,444.8 L788.3,444.8 L788.3,444.8 L788.3,444.4 L788.3,444.4 L788.3,444.4 L788.3,444.4 L788.3,444.4 L788.3,444.4 L788.3,444.4 L788.3,444.4 L788.3,444.4 L788.3,444.1 L788.3,444.1 L788.3,444.1 L788.3,444.1 L788.3,444.1 L790.0,444.1 L790.0,444.1 L790.0,444.1 L790.0,444.1 L790.0,444.1 L790.0,443.7 L790.0,443.7 L790.0,443.7 L790.0,443.7 L790.0,443.7 L790.0,443.7 L790.0,443.7 L790.0,443.7 L790.0,443.7 L790.0,443.3 L790.0,443.3 L790.0,443.3 L790.0,443.3 L790.0,443.3" fill="none" stroke="#ff7f0e" stroke-width="1.7" opacity="0.85"/><circle cx="790" cy="443" r="4.5" fill="#ff7f0e"/><rect x="28" y="128" width="13" height="13" fill="#ff7f0e"/><text x="46" y="139" font-size="12">100%</text><text x="28" y="832" font-size="11" fill="#888">ground track — m from pad (N up)</text></svg>