<svg xmlns="http://www.w3.org/2000/svg" width="1140" height="600" font-family="sans-serif" font-size="13"><rect width="1140" height="600" fill="white"/><text x="20" y="26" font-size="15" fill="#333">Coludo flight</text><rect x="20" y="40" width="540" height="540" fill="#fbfbfb" stroke="#ddd"/><rect x="50" y="305" width="317" height="68" fill="#cde" stroke="#369" opacity="0.7"/><text x="50" y="300" fill="#369" font-size="12">landing zone</text><circle cx="250" cy="411" r="5" fill="black"/><text x="258" y="415" font-size="12">pad</text><path d="M251.0,410.9 L251.0,410.9 L251.0,410.9 L251.0,410.9 L251.0,410.9 L251.0,410.9 L251.0,410.9 L251.0,410.9 L251.0,410.9 L251.0,410.9 L251.0,410.9 L251.0,410.9 L251.0,410.9 L251.0,410.9 L251.0,410.9 L251.0,410.9 L251.0,410.9 L251.0,410.9 L251.0,410.9 L251.0,410.9 L251.0,410.9 L251.0,410.9 L251.0,410.9 L251.0,410.9 L251.0,410.9 L251.0,410.9 L251.0,410.9 L251.0,410.9 L251.0,410.9 L251.0,410.9 L251.0,410.9 L251.0,410.9 L251.0,410.9 L251.0,410.9 L251.0,410.9 L251.0,410.9 L251.0,410.9 L251.0,410.9 L251.0,410.9 L251.0,410.9 L251.0,410.9 L251.0,410.9 L251.0,410.9 L251.0,410.9 L251.0,410.9 L251.0,410.9 L251.0,410.9 L251.0,410.9 L251.0,410.9 L251.0,410.9 L251.0,410.9 L251.0,410.9 L251.0,410.9 L251.0,410.9 L251.0,410.9 L251.0,410.9 L251.0,410.9 L251.0,410.9 L251.0,410.9 L251.0,410.9 L251.0,410.9 L251.0,410.9 L252.1,409.0 L252.7,406.0 L254.5,404.1 L256.2,401.9 L257.9,399.6 L259.6,397.4 L261.3,394.3 L263.0,392.8 L264.7,390.2 L268.1,387.6 L268.4,386.0 L271.5,384.2 L273.8,381.5 L274.9,379.6 L279.3,377.4 L281.7,375.1 L283.4,373.6 L284.7,372.5 L288.5,370.2 L290.2,369.1 L291.9,366.8 L295.3,365.3 L297.0,363.4 L298.7,362.3 L301.1,360.4 L303.8,358.2 L305.5,356.3 L307.2,354.4 L308.9,352.9 L312.3,350.6 L313.3,348.7 L314.0,346.1 L315.7,344.2 L318.7,341.2 L319.1,339.3 L320.8,336.3 L322.8,333.3 L324.2,331.4 L325.9,328.0 L327.6,325.7 L328.3,322.7 L329.3,319.7 L329.3,317.1 L331.0,314.4 L331.0,311.8 L332.7,308.4 L333.7,305.0 L333.7,302.7 L333.7,299.4 L334.4,297.1 L334.4,292.9 L334.4,289.9 L336.1,286.2 L337.8,283.1 L337.8,279.8 L339.5,276.4 L339.8,273.0 L341.2,270.3 L342.9,268.4 L342.9,266.2 L344.6,263.2 L346.0,261.3 L346.3,259.0 L349.7,255.6 L350.0,253.7 L351.4,251.1 L353.1,248.5 L355.5,245.8 L356.5,244.3 L359.9,241.3 L361.6,239.4 L363.3,237.2 L366.7,234.9 L368.4,232.3 L370.1,230.7 L373.9,228.9 L375.2,227.0 L378.6,224.7 L380.3,223.2 L382.7,222.5 L385.4,220.6 L388.8,219.1 L392.2,217.6 L394.3,216.4 L399.0,214.9 L400.7,214.2 L404.5,213.0 L405.8,212.3 L409.9,211.5 L414.3,210.8 L416.7,210.4 L419.4,210.0 L422.2,209.6 L424.5,209.3 L427.9,208.9 L431.3,208.9 L433.0,208.9 L436.4,209.3 L439.9,209.3 L444.6,209.6 L446.7,210.0 L448.4,210.4 L451.8,211.1 L454.8,211.9 L456.9,212.7 L460.3,213.4 L463.7,214.2 L465.0,214.9 L468.8,216.0 L471.8,217.2 L473.9,218.7 L475.9,219.8 L479.0,221.7 L482.0,222.8 L484.1,224.3 L487.5,225.5 L487.5,227.4 L490.9,228.9 L492.9,230.7 L494.3,232.3 L497.7,234.5 L499.4,236.0 L502.8,238.7 L503.1,240.9 L506.2,243.2 L507.9,245.1 L509.9,246.6 L509.6,248.8 L513.0,251.5 L514.7,253.7 L514.7,255.2 L516.4,258.3 L518.1,260.5 L519.8,262.8 L520.1,265.8 L521.5,268.8 L523.2,271.1 L524.9,273.3 L525.6,277.1 L525.6,279.0 L526.6,281.3 L526.6,284.7 L528.3,287.3 L528.3,290.7 L530.0,294.1 L530.0,296.7 L530.0,300.1 L530.0,302.4 L530.0,305.8 L530.0,308.0 L530.0,310.7 L530.0,314.4 L530.0,317.8 L530.0,320.5 L530.0,322.7 L528.3,325.7 L528.3,328.4 L526.6,331.8 L525.6,335.5 L525.6,338.9 L524.9,342.3 L523.2,344.6 L521.5,347.6 L520.1,351.0 L519.8,354.4 L518.1,355.9 L516.4,358.2 L514.7,361.5 L513.0,364.2 L511.3,366.1 L509.9,368.7 L506.2,371.7 L504.5,374.4 L502.8,377.0 L501.1,378.5 L499.0,380.4 L497.7,381.9 L496.0,383.4 L492.9,385.7 L490.9,386.8 L487.5,389.1 L485.8,390.9 L482.4,392.1 L480.7,393.6 L475.9,395.1 L473.9,396.6 L470.5,398.1 L467.1,399.2 L463.7,400.0 L460.3,401.1 L458.6,401.5 L455.2,401.5 L451.8,401.9 L450.1,401.9 L446.7,402.3 L444.6,402.3 L439.9,401.9 L439.2,401.9 L434.7,401.5 L433.7,401.1 L429.6,400.7 L427.6,400.0 L424.5,399.2 L419.4,397.4 L416.7,396.6 L414.3,395.1 L410.9,394.3 L409.2,393.6 L405.8,392.1 L402.4,390.6 L399.7,389.8 L397.3,387.9 L393.9,386.4" fill="none" stroke="#1f77b4" stroke-width="1.7" opacity="0.85"/><circle cx="394" cy="386" r="4.5" fill="#1f77b4"/><text x="28" y="572" font-size="11" fill="#888">ground track — m from pad (N up)</text><rect x="580" y="40" width="540" height="540" fill="#fbfbfb" stroke="#ddd"/><text x="586" y="54" fill="#1f77b4" font-size="11">alt 200</text><text x="586" y="558" fill="#1f77b4" font-size="11">-50</text><path d="M616.6,446.3 L617.2,446.1 L617.9,445.7 L618.6,445.2 L619.2,444.3 L619.9,443.6 L620.5,442.7 L621.1,441.3 L621.8,440.2 L622.4,438.3 L623.1,437.0 L623.8,434.7 L624.4,433.0 L625.1,430.4 L625.8,428.5 L626.4,425.5 L627.1,423.4 L627.8,419.8 L628.5,417.4 L629.0,414.9 L629.7,411.0 L630.3,408.2 L631.0,403.8 L631.7,400.7 L632.3,396.0 L633.0,392.6 L633.7,387.6 L634.3,384.1 L635.0,378.5 L635.7,374.9 L636.3,371.2 L636.9,365.1 L637.6,361.2 L638.2,354.6 L638.9,350.6 L639.6,343.8 L640.2,339.3 L640.9,332.7 L641.6,328.0 L642.2,321.9 L642.9,317.5 L643.5,313.5 L644.1,307.0 L644.8,302.9 L645.5,296.8 L646.1,292.7 L646.8,286.7 L647.5,282.7 L648.1,277.0 L648.8,273.2 L649.5,267.8 L650.1,264.2 L650.8,258.7 L651.5,255.6 L652.1,252.2 L652.7,246.9 L653.3,242.9 L654.0,238.0 L654.7,235.2 L655.4,229.7 L656.0,227.1 L656.7,223.7 L657.2,218.7 L657.9,215.4 L658.6,211.1 L659.2,208.4 L659.9,203.5 L660.6,200.7 L661.2,196.6 L661.9,194.3 L662.6,190.2 L663.3,186.8 L663.9,182.6 L664.6,180.1 L665.3,176.2 L665.9,174.3 L666.6,170.1 L667.3,167.8 L667.9,163.9 L668.6,162.0 L669.3,158.1 L669.9,155.7 L670.5,154.6 L671.2,150.0 L671.8,148.3 L672.5,145.7 L673.2,142.8 L673.8,140.8 L674.5,138.6 L675.2,135.8 L675.8,133.6 L676.5,130.6 L677.2,128.9 L677.8,125.7 L678.5,124.5 L679.1,122.9 L679.7,120.3 L680.4,119.3 L681.1,116.3 L681.7,115.1 L682.4,111.8 L683.1,111.8 L683.8,108.7 L684.4,106.9 L685.1,105.1 L685.7,104.5 L686.4,102.9 L687.1,101.6 L687.8,99.4 L688.4,97.9 L689.0,96.5 L689.6,96.1 L690.3,94.0 L691.0,92.1 L691.6,92.2 L692.3,89.6 L693.0,88.8 L693.6,89.0 L694.3,86.7 L695.0,85.9 L695.6,84.6 L696.3,84.1 L697.0,83.3 L697.7,82.4 L698.3,82.7 L698.9,82.1 L699.5,80.0 L700.2,80.3 L700.9,78.9 L701.5,80.1 L702.2,78.2 L702.9,78.7 L703.5,77.5 L704.2,77.8 L704.9,76.6 L705.6,76.2 L706.2,76.2 L706.9,76.3 L707.5,76.0 L708.1,76.8 L708.8,76.5 L709.4,76.1 L710.1,76.9 L710.8,76.0 L711.4,76.1 L712.1,76.7 L712.8,77.6 L713.5,77.3 L714.1,77.8 L714.8,77.8 L715.5,77.9 L716.0,78.1 L716.7,80.0 L717.3,80.8 L718.0,80.2 L718.7,81.0 L719.3,81.7 L720.0,82.3 L720.7,82.7 L721.3,84.7 L722.0,85.9 L722.7,85.4 L723.4,88.0 L723.9,87.1 L724.8,88.0 L725.4,87.0 L726.0,87.3 L726.7,87.3 L727.4,88.4 L728.0,88.9 L728.7,89.0 L729.4,88.9 L730.1,88.4 L730.6,89.4 L731.3,89.4 L731.9,88.3 L732.6,90.0 L733.3,89.9 L733.9,88.8 L734.6,90.1 L735.3,90.5 L735.9,90.7 L736.6,90.0 L737.3,90.7 L737.9,91.0 L738.6,89.9 L739.2,90.9 L739.8,91.1 L740.5,90.9 L741.2,90.9 L741.8,92.7 L742.5,92.1 L743.2,91.9 L743.8,91.8 L744.5,93.3 L745.1,93.2 L745.7,92.8 L746.3,94.0 L746.9,93.6 L747.6,93.5 L748.3,93.8 L748.9,94.3 L749.6,94.3 L750.3,94.3 L750.9,96.2 L751.6,96.2 L752.4,95.1 L753.0,96.8 L753.6,96.8 L754.3,96.8 L754.9,96.9 L755.6,97.8 L756.3,98.6 L757.0,98.3 L757.5,97.6 L758.2,99.5 L758.8,98.4 L759.5,99.6 L760.2,99.1 L760.8,99.7 L761.5,101.0 L762.2,101.1 L762.8,100.8 L763.5,101.0 L764.2,101.2 L764.9,102.5 L765.5,103.1 L766.2,103.6 L766.9,103.5 L767.5,104.3 L768.2,104.8 L768.9,103.8 L769.5,104.8 L770.2,105.9 L770.9,106.2 L771.5,106.8 L772.2,105.9 L772.9,107.1 L773.6,107.8 L774.2,107.4 L774.8,107.9 L775.4,108.6 L776.1,108.7 L776.8,109.2 L777.4,109.6 L778.1,110.2 L778.8,110.8 L779.4,110.5 L780.1,111.1 L780.8,111.6 L781.5,113.2 L782.1,112.7 L782.8,112.8 L783.4,114.8 L784.0,114.8 L784.7,115.5 L785.3,114.9 L786.0,116.3 L786.7,115.7 L787.3,116.3 L788.0,117.0 L788.7,118.5 L789.3,118.9 L790.0,119.9 L790.7,119.0 L791.4,119.4 L791.9,120.7 L792.6,120.7 L793.2,122.1 L793.9,121.8 L794.6,122.1 L795.1,123.6 L795.8,123.8 L796.4,123.9 L797.1,125.3 L797.8,125.5 L798.5,126.1 L799.1,126.9 L799.8,126.6 L800.5,127.1 L801.1,128.6 L801.8,129.1 L802.5,129.3 L803.0,129.2 L803.7,130.3 L804.3,131.7 L805.0,131.7 L805.7,133.0 L806.4,133.7 L807.0,133.5 L807.7,134.8 L808.4,135.4 L809.0,135.5 L809.7,135.5 L810.4,137.4 L811.0,137.5 L811.7,137.3 L812.4,138.4 L813.0,139.3 L813.6,140.5 L814.2,140.3 L814.9,141.1 L815.6,142.2 L816.3,142.0 L816.9,143.2 L817.6,144.0 L818.3,143.9 L818.9,145.3 L819.6,145.2 L820.3,146.1 L821.2,146.9 L821.9,147.8 L822.5,148.8 L823.3,148.6 L823.9,149.4 L824.6,151.0 L825.1,151.4 L825.8,151.9 L826.4,152.4 L827.1,153.7 L827.8,154.5 L828.4,154.1 L829.1,155.5 L829.8,155.4 L830.4,156.2 L831.1,157.3 L831.8,157.4 L832.5,158.9 L833.1,159.7 L833.7,159.9 L834.3,160.7 L835.3,162.3 L835.9,162.7 L836.6,163.5 L837.3,164.2 L837.9,165.0 L838.6,164.6 L839.3,165.8 L839.9,167.2 L840.6,168.4 L841.3,168.2 L842.0,169.2 L842.5,169.2 L843.2,170.5 L843.8,171.7 L844.5,172.3 L845.2,173.5 L845.8,174.0 L846.5,174.7 L847.2,175.1 L847.8,175.9 L848.5,176.4 L849.3,177.8 L849.9,178.8 L850.5,179.0 L851.1,179.7 L851.7,181.0 L852.4,181.5 L853.1,182.3 L853.7,182.4 L854.4,183.4 L855.1,184.7 L855.7,185.5 L856.4,185.8 L857.1,186.3 L857.8,188.3 L858.4,188.7 L859.1,188.9 L859.8,190.1 L860.4,191.0 L861.0,192.0 L861.6,192.4 L862.3,193.8 L863.4,194.6 L864.0,195.1 L864.7,196.6 L865.3,197.8 L865.9,197.9 L866.6,199.3 L867.3,199.3 L867.9,200.3 L868.6,201.4 L869.3,201.7 L869.9,203.3 L870.6,204.6 L871.3,205.0 L871.9,205.5 L872.6,206.1 L873.3,207.2 L873.9,208.6 L874.6,209.5 L875.2,210.0 L875.8,210.9 L876.5,212.0 L877.5,212.8 L878.1,214.1 L878.8,215.0 L879.5,215.3 L880.1,216.5 L880.8,217.8 L881.4,217.6 L882.1,218.9 L882.8,219.7 L883.5,221.5 L884.1,221.4 L884.8,223.3 L885.5,224.0 L886.1,224.2 L886.8,225.1 L887.5,226.2 L888.0,226.9 L888.7,227.7 L889.3,228.7 L890.0,230.0 L890.7,231.3 L891.5,231.6 L892.1,232.7 L892.8,233.5 L893.5,234.3 L894.2,236.3 L894.8,236.8 L895.5,237.3 L896.2,238.4 L896.8,239.4 L897.5,240.8 L898.2,241.1 L898.8,242.2 L899.5,243.3 L900.2,244.2 L900.8,244.7 L901.4,245.9 L902.1,246.5 L902.7,247.6 L903.4,248.3 L904.1,249.4 L904.7,250.2 L905.6,251.8 L906.2,252.9 L906.9,253.6 L907.5,254.7 L908.2,255.5 L908.9,256.9 L909.6,257.3 L910.2,258.7 L910.9,259.2 L911.6,260.9 L912.2,261.5 L912.9,262.8 L913.6,263.2 L914.1,263.8 L914.8,265.5 L915.4,266.5 L916.1,267.2 L916.8,268.5 L917.5,269.5 L918.1,270.0 L918.8,271.8 L919.6,272.0 L920.3,273.7 L920.9,274.6 L921.6,275.4 L922.3,276.2 L922.9,277.0 L923.6,278.3 L924.3,279.8 L924.9,280.7 L925.6,281.8 L926.3,283.0 L926.9,283.7 L927.5,284.4 L928.2,285.6 L928.8,286.2 L929.5,287.4 L930.2,288.1 L930.8,289.4 L931.5,290.8 L932.2,291.7 L932.8,292.5 L933.7,294.1 L934.3,295.0 L935.0,295.8 L935.7,297.4 L936.3,297.6 L937.0,299.5 L937.7,300.1 L938.3,301.2 L939.0,302.4 L939.6,302.8 L940.2,304.2 L940.9,305.3 L941.5,306.3 L942.2,306.8 L942.9,308.1 L943.6,309.1 L944.2,310.5 L944.9,311.2 L945.6,312.6 L946.2,313.6 L946.9,314.6 L947.8,316.3 L948.4,317.2 L949.0,318.1 L949.6,318.7 L950.2,319.6 L950.9,320.9 L951.6,321.9 L952.3,323.1 L952.9,324.0 L953.6,325.6 L954.3,326.0 L954.9,327.5 L955.6,328.5 L956.3,329.6 L956.9,330.7 L957.6,331.7 L958.3,332.8 L958.9,333.9 L959.6,335.0 L960.3,335.9 L961.0,336.8 L961.8,338.6 L962.5,339.7 L963.1,340.3 L963.8,341.8 L964.4,342.5 L965.1,343.8 L965.8,345.1 L966.4,346.3 L967.1,347.1 L967.8,348.3 L968.5,349.1 L969.1,350.5 L969.8,351.2 L970.5,352.9 L971.1,353.4 L971.8,354.9 L972.4,356.0 L973.0,356.6 L973.7,358.2 L974.3,358.8 L975.0,360.1 L975.9,361.7 L976.5,362.6 L977.2,364.0 L977.8,364.8 L978.5,366.1 L979.2,366.9 L979.8,368.1 L980.5,369.1 L981.2,370.4 L981.8,371.3 L982.5,372.7 L983.2,373.6 L983.7,374.5 L984.4,375.8 L985.0,377.0 L985.7,378.1 L986.4,379.1 L987.1,380.5 L987.7,381.3 L988.4,382.7 L989.1,383.4 L990.1,385.5 L990.7,386.2 L991.3,387.5 L992.0,388.4 L992.7,389.9 L993.3,390.7 L994.0,392.1 L994.7,392.9 L995.4,394.3 L996.0,395.4 L996.7,396.6 L997.4,397.6 L998.0,398.9 L998.7,399.9 L999.4,401.2 L999.9,402.2 L1000.6,403.0 L1001.2,404.3 L1001.9,405.4 L1002.6,406.8 L1003.3,407.6 L1004.1,409.1 L1004.7,410.4 L1005.4,411.3 L1006.1,412.6 L1006.7,413.7 L1007.4,415.1 L1008.1,415.9 L1008.7,417.3 L1009.4,418.2 L1010.1,419.5 L1010.7,420.6 L1011.3,421.4 L1012.0,422.8 L1012.6,423.8 L1013.3,425.1 L1014.0,426.1 L1014.6,427.5 L1015.3,428.3 L1016.0,429.7 L1016.6,430.8 L1017.3,432.1 L1018.2,433.5 L1018.8,434.4 L1019.5,435.8 L1020.1,436.8 L1020.8,438.2 L1021.5,439.1 L1022.1,440.5 L1022.8,441.4 L1023.5,442.8 L1024.0,443.8 L1024.7,444.7 L1025.3,446.1 L1026.0,447.0 L1026.7,448.4 L1027.3,449.4 L1027.9,450.3 L1028.6,451.7 L1029.2,452.6 L1029.9,454.0 L1030.6,455.0 L1031.2,455.9 L1033.0,459.1 L1033.6,460.5 L1034.3,461.5 L1035.0,462.8 L1035.6,463.8 L1036.3,465.2 L1037.0,466.0 L1037.7,467.5 L1038.3,468.4 L1039.0,469.7 L1039.7,470.7 L1040.2,471.6 L1040.9,472.9 L1041.6,473.8 L1042.2,475.2 L1042.9,476.1 L1043.5,477.5 L1044.2,478.4 L1044.9,479.8 L1045.6,480.7 L1046.2,482.0 L1047.6,484.4 L1048.2,485.2 L1048.9,486.5 L1049.6,487.3 L1050.2,488.8 L1050.9,489.7 L1051.6,491.1 L1052.2,492.0 L1052.9,493.3 L1053.6,494.1 L1054.3,495.6 L1054.8,496.5 L1055.5,497.4 L1056.1,498.6 L1056.8,499.6 L1057.5,500.9 L1058.1,501.7 L1058.8,503.0 L1059.5,503.8 L1060.1,505.4 L1060.8,506.0 L1062.2,508.5 L1062.8,509.7 L1063.5,510.5 L1064.2,512.1 L1064.8,512.7 L1065.5,514.0 L1066.2,515.2 L1066.7,516.1 L1068.6,519.0 L1069.2,520.4 L1069.9,521.1 L1070.6,522.6 L1071.2,523.5 L1071.9,524.8 L1072.6,525.6 L1073.3,527.1 L1073.9,527.7 L1074.6,529.2 L1075.3,529.8 L1076.8,532.7 L1077.4,533.5 L1078.1,534.7 L1078.7,535.5 L1079.4,536.9 L1080.1,537.6 L1080.8,538.8 L1081.4,539.5 L1082.1,540.9 L1082.8,541.7 L1083.4,542.9 L1084.0,544.0" fill="none" stroke="#1f77b4" stroke-width="1.4" opacity="0.85"/><text x="1040" y="54" fill="#ff7f0e" font-size="11">roll 24</text><text x="1090" y="558" fill="#ff7f0e" font-size="11">-17</text><path d="M616.5,345.4 L617.2,345.4 L617.9,345.4 L618.6,345.4 L619.2,345.4 L619.9,345.4 L620.5,345.4 L621.1,345.4 L621.8,345.4 L622.4,345.4 L623.1,345.4 L623.8,345.4 L624.4,345.4 L625.1,345.4 L625.8,345.4 L626.4,345.4 L627.1,345.4 L627.8,345.4 L628.4,345.4 L629.0,345.4 L629.7,345.4 L630.3,345.4 L631.0,345.4 L631.7,345.4 L632.3,345.4 L633.0,346.5 L633.7,346.5 L634.3,345.4 L635.0,345.4 L635.7,346.5 L636.2,345.4 L636.9,345.4 L637.5,345.4 L638.2,345.4 L638.9,345.4 L639.6,345.4 L640.2,345.4 L640.9,345.4 L641.6,346.5 L642.2,346.5 L642.9,345.4 L643.5,345.4 L644.1,345.4 L644.8,346.5 L645.4,345.4 L646.1,346.5 L646.8,345.4 L647.5,345.4 L648.1,345.4 L648.8,346.5 L649.5,346.5 L650.1,345.4 L650.8,345.4 L651.5,345.4 L652.0,345.4 L652.7,345.4 L653.3,345.4 L654.0,346.5 L654.7,345.4 L655.4,345.4 L656.0,345.4 L656.7,345.4 L657.2,345.4 L657.9,345.4 L658.6,345.4 L659.2,345.4 L659.9,345.4 L660.6,345.4 L661.2,345.4 L661.9,345.4 L662.6,345.4 L663.2,346.5 L663.9,345.4 L664.6,345.4 L665.3,345.4 L665.9,345.4 L666.6,345.4 L667.3,345.4 L667.9,345.4 L668.6,346.5 L669.3,345.4 L669.9,345.4 L670.5,345.4 L671.1,345.4 L671.8,345.4 L672.5,345.4 L673.2,345.4 L673.8,345.4 L674.5,345.4 L675.2,345.4 L675.8,345.4 L676.5,345.4 L677.2,345.4 L677.8,346.5 L678.5,346.5 L679.1,346.5 L679.7,345.4 L680.4,345.4 L681.1,345.4 L681.7,345.4 L682.4,345.4 L683.1,345.4 L683.8,346.5 L684.4,345.4 L685.1,345.4 L685.7,345.4 L686.4,345.4 L687.1,346.5 L687.7,346.5 L688.4,346.5 L689.0,345.4 L689.6,345.4 L690.3,345.4 L691.0,345.4 L691.6,345.4 L692.3,346.5 L693.0,345.4 L693.6,345.4 L694.3,345.4 L695.0,346.5 L695.6,345.4 L696.3,346.5 L697.0,345.4 L697.7,346.5 L698.3,345.4 L698.9,345.4 L699.5,346.5 L700.2,345.4 L700.9,345.4 L701.5,345.4 L702.2,345.4 L702.9,346.5 L703.5,345.4 L704.2,345.4 L704.9,345.4 L705.5,345.4 L706.2,346.5 L706.9,345.4 L707.5,346.5 L708.1,346.5 L708.8,346.5 L709.4,345.4 L710.1,345.4 L710.8,345.4 L711.4,345.4 L712.1,346.5 L712.8,345.4 L713.4,345.4 L714.1,345.4 L714.8,345.4 L715.5,345.4 L716.0,346.5 L716.7,345.4 L717.3,346.5 L718.0,345.4 L718.7,345.4 L719.3,346.5 L720.0,345.4 L720.7,345.4 L721.3,345.4 L722.0,345.4 L722.7,345.4 L723.4,345.4 L723.9,331.7 L724.8,303.2 L725.4,281.5 L726.0,259.8 L726.7,248.4 L727.4,236.9 L728.0,219.8 L728.7,207.3 L729.4,208.4 L730.0,187.9 L730.6,189.0 L731.2,191.3 L731.9,181.0 L732.6,184.4 L733.3,166.2 L733.9,168.5 L734.6,165.0 L735.3,171.9 L735.9,159.3 L736.6,162.8 L737.3,157.0 L737.9,165.0 L738.6,160.5 L739.2,170.7 L739.8,159.3 L740.5,162.8 L741.2,169.6 L741.8,175.3 L742.5,159.3 L743.2,159.3 L743.8,177.6 L744.5,177.6 L745.1,166.2 L745.7,182.2 L746.3,171.9 L746.9,185.6 L747.6,191.3 L748.2,179.9 L748.9,181.0 L749.6,185.6 L750.3,195.9 L750.9,199.3 L751.6,199.3 L752.4,211.8 L752.9,211.8 L753.6,211.8 L754.3,255.2 L754.9,294.0 L755.6,322.6 L756.3,357.9 L756.9,378.5 L757.5,396.8 L758.2,426.4 L758.8,434.4 L759.5,457.2 L760.2,467.5 L760.8,485.8 L761.5,484.6 L762.2,506.3 L762.8,494.9 L763.5,516.6 L764.2,506.3 L764.8,520.0 L765.5,521.2 L766.2,513.2 L766.9,531.4 L767.5,521.2 L768.2,530.3 L768.9,524.6 L769.5,522.3 L770.2,536.0 L770.9,522.3 L771.5,537.2 L772.2,529.2 L772.9,533.7 L773.5,540.6 L774.2,537.2 L774.8,529.2 L775.4,539.4 L776.1,523.5 L776.8,529.2 L777.4,540.6 L778.1,540.6 L778.8,540.6 L779.4,526.9 L780.1,538.3 L780.8,528.0 L781.4,531.4 L782.1,537.2 L782.8,542.9 L783.4,530.3 L784.0,529.2 L784.7,537.2 L785.3,540.6 L786.0,522.3 L786.7,539.4 L787.3,540.6 L788.0,537.2 L788.7,538.3 L789.3,539.4 L790.0,525.7 L790.7,524.6 L791.3,528.0 L791.9,537.2 L792.6,528.0 L793.2,533.7 L793.9,530.3 L794.6,544.0 L795.1,530.3 L795.8,533.7 L796.4,531.4 L797.1,541.7 L797.8,532.6 L798.4,534.9 L799.1,523.5 L799.8,526.9 L800.5,526.9 L801.1,526.9 L801.8,540.6 L802.5,534.9 L803.0,504.0 L803.7,450.4 L804.3,418.4 L805.0,371.6 L805.7,348.8 L806.3,315.7 L807.0,295.2 L807.7,272.3 L808.3,249.5 L809.0,239.2 L809.7,221.0 L810.4,215.3 L811.0,205.0 L811.7,200.4 L812.4,198.1 L813.0,189.0 L813.6,185.6 L814.2,182.2 L814.9,171.9 L815.6,170.7 L816.2,161.6 L816.9,169.6 L817.6,175.3 L818.3,157.0 L818.9,168.5 L819.6,158.2 L820.3,159.3 L821.2,166.2 L821.9,154.8 L822.5,162.8 L823.3,158.2 L823.9,166.2 L824.5,155.9 L825.1,169.6 L825.7,154.8 L826.4,170.7 L827.1,161.6 L827.8,155.9 L828.4,155.9 L829.1,170.7 L829.8,153.6 L830.4,154.8 L831.1,167.3 L831.8,154.8 L832.4,159.3 L833.1,167.3 L833.7,151.3 L834.3,161.6 L835.3,157.0 L835.9,162.8 L836.6,154.8 L837.3,160.5 L837.9,151.3 L838.6,165.0 L839.3,158.2 L839.9,166.2 L840.6,155.9 L841.3,168.5 L841.9,163.9 L842.5,153.6 L843.2,169.6 L843.8,161.6 L844.5,162.8 L845.2,154.8 L845.8,159.3 L846.5,167.3 L847.2,153.6 L847.8,154.8 L848.5,158.2 L849.3,167.3 L849.9,162.8 L850.5,166.2 L851.1,167.3 L851.7,154.8 L852.4,162.8 L853.1,159.3 L853.7,160.5 L854.4,160.5 L855.1,152.5 L855.7,153.6 L856.4,169.6 L857.1,157.0 L857.7,163.9 L858.4,166.2 L859.1,150.2 L859.8,160.5 L860.4,157.0 L861.0,155.9 L861.6,161.6 L862.3,168.5 L863.4,162.8 L864.0,157.0 L864.7,158.2 L865.3,157.0 L865.9,166.2 L866.6,168.5 L867.2,149.1 L867.9,152.5 L868.6,167.3 L869.3,160.5 L869.9,155.9 L870.6,163.9 L871.3,151.3 L871.9,165.0 L872.6,161.6 L873.3,154.8 L873.9,155.9 L874.6,165.0 L875.2,153.6 L875.8,152.5 L876.5,171.9 L877.4,161.6 L878.1,169.6 L878.8,162.8 L879.5,159.3 L880.1,154.8 L880.8,158.2 L881.4,158.2 L882.1,167.3 L882.8,166.2 L883.4,151.3 L884.1,169.6 L884.8,154.8 L885.5,162.8 L886.1,167.3 L886.8,152.5 L887.5,168.5 L888.0,162.8 L888.7,163.9 L889.3,162.8 L890.0,158.2 L890.7,167.3 L891.5,167.3 L892.1,163.9 L892.8,163.9 L893.5,165.0 L894.2,149.1 L894.8,155.9 L895.5,153.6 L896.2,154.8 L896.8,161.6 L897.5,165.0 L898.2,160.5 L898.8,165.0 L899.5,160.5 L900.2,151.3 L900.7,155.9 L901.4,158.2 L902.0,166.2 L902.7,160.5 L903.4,162.8 L904.1,161.6 L904.7,166.2 L905.6,150.2 L906.2,165.0 L906.9,149.1 L907.5,153.6 L908.2,154.8 L908.9,157.0 L909.5,159.3 L910.2,162.8 L910.9,159.3 L911.6,152.5 L912.2,157.0 L912.9,167.3 L913.6,167.3 L914.1,155.9 L914.8,152.5 L915.4,167.3 L916.1,161.6 L916.8,158.2 L917.4,160.5 L918.1,159.3 L918.8,165.0 L919.6,161.6 L920.3,158.2 L920.9,154.8 L921.6,160.5 L922.3,155.9 L922.9,163.9 L923.6,158.2 L924.3,158.2 L924.9,152.5 L925.6,157.0 L926.3,152.5 L926.9,163.9 L927.5,163.9 L928.2,154.8 L928.8,155.9 L929.5,162.8 L930.2,154.8 L930.8,157.0 L931.5,161.6 L932.2,171.9 L932.8,169.6 L933.7,166.2 L934.3,158.2 L935.0,161.6 L935.6,165.0 L936.3,150.2 L937.0,168.5 L937.7,157.0 L938.3,154.8 L939.0,168.5 L939.6,163.9 L940.2,165.0 L940.9,158.2 L941.5,158.2 L942.2,168.5 L942.9,150.2 L943.5,158.2 L944.2,155.9 L944.9,159.3 L945.6,160.5 L946.2,163.9 L946.9,165.0 L947.7,165.0 L948.4,163.9 L949.0,149.1 L949.6,160.5 L950.2,161.6 L950.9,166.2 L951.6,153.6 L952.2,163.9 L952.9,157.0 L953.6,158.2 L954.3,157.0 L954.9,170.7 L955.6,157.0 L956.3,159.3 L956.9,155.9 L957.6,168.5 L958.3,168.5 L958.9,160.5 L959.6,161.6 L960.3,162.8 L960.9,157.0 L961.8,166.2 L962.4,157.0 L963.1,161.6 L963.8,162.8 L964.4,155.9 L965.1,159.3 L965.8,168.5 L966.4,163.9 L967.1,159.3 L967.8,165.0 L968.4,153.6 L969.1,158.2 L969.8,161.6 L970.5,159.3 L971.1,151.3 L971.8,153.6 L972.4,162.8 L973.0,165.0 L973.7,159.3 L974.3,165.0 L975.0,166.2 L975.9,152.5 L976.5,154.8 L977.1,154.8 L977.8,168.5 L978.5,162.8 L979.2,165.0 L979.8,154.8 L980.5,167.3 L981.2,165.0 L981.8,150.2 L982.5,150.2 L983.2,157.0 L983.7,163.9 L984.4,157.0 L985.0,152.5 L985.7,167.3 L986.4,161.6 L987.0,160.5 L987.7,161.6 L988.4,168.5 L989.1,155.9 L990.1,154.8 L990.7,162.8 L991.3,160.5 L992.0,157.0 L992.7,160.5 L993.3,165.0 L994.0,168.5 L994.7,168.5 L995.3,167.3 L996.0,155.9 L996.7,165.0 L997.4,163.9 L998.0,155.9 L998.7,151.3 L999.4,158.2 L999.9,152.5 L1000.6,159.3 L1001.2,152.5 L1001.9,159.3 L1002.6,157.0 L1003.2,153.6 L1004.1,171.9 L1004.7,167.3 L1005.4,162.8 L1006.1,154.8 L1006.7,163.9 L1007.4,154.8 L1008.1,152.5 L1008.7,162.8 L1009.4,168.5 L1010.1,167.3 L1010.7,157.0 L1011.3,154.8 L1011.9,153.6 L1012.6,161.6 L1013.3,165.0 L1014.0,152.5 L1014.6,163.9 L1015.3,155.9 L1016.0,155.9 L1016.6,169.6 L1017.3,158.2 L1018.2,155.9 L1018.8,167.3 L1019.4,158.2 L1020.1,163.9 L1020.8,158.2 L1021.4,165.0 L1022.1,149.1 L1022.8,147.9 L1023.5,142.2 L1024.0,125.1 L1024.7,138.8 L1025.3,129.6 L1026.0,108.0 L1026.7,126.2 L1027.3,106.8 L1027.9,112.5 L1028.5,100.0 L1029.2,108.0 L1029.9,96.5 L1030.5,104.5 L1031.2,95.4 L1033.0,100.0 L1033.6,93.1 L1034.3,104.5 L1035.0,110.2 L1035.6,88.6 L1036.3,92.0 L1037.0,93.1 L1037.6,100.0 L1038.3,86.3 L1039.0,102.3 L1039.7,90.8 L1040.2,100.0 L1040.9,95.4 L1041.5,87.4 L1042.2,86.3 L1042.9,93.1 L1043.5,101.1 L1044.2,88.6 L1044.9,87.4 L1045.5,95.4 L1046.2,92.0 L1047.6,89.7 L1048.2,100.0 L1048.9,89.7 L1049.6,84.0 L1050.2,80.6 L1050.9,95.4 L1051.6,76.0 L1052.2,97.7 L1052.9,96.5 L1053.6,80.6 L1054.2,102.3 L1054.8,95.4 L1055.4,100.0 L1056.1,101.1 L1056.8,85.1 L1057.5,101.1 L1058.1,96.5 L1058.8,84.0 L1059.5,80.6 L1060.1,76.0 L1060.8,101.1 L1062.2,104.5 L1062.8,94.3 L1063.5,101.1 L1064.1,85.1 L1064.8,103.4 L1065.5,98.8 L1066.2,96.5 L1066.7,109.1 L1068.6,179.9 L1069.2,193.6 L1069.9,206.1 L1070.6,226.7 L1071.2,226.7 L1071.9,247.2 L1072.6,249.5 L1073.3,257.5 L1073.9,273.5 L1074.6,275.8 L1075.3,286.0 L1076.8,295.2 L1077.4,299.7 L1078.1,304.3 L1078.7,306.6 L1079.4,314.6 L1080.1,314.6 L1080.7,319.1 L1081.4,322.6 L1082.1,323.7 L1082.8,324.8 L1083.4,327.1 L1084.0,328.3" fill="none" stroke="#ff7f0e" stroke-width="1.1" opacity="0.85"/><text x="616" y="572" font-size="11" fill="#888">time 0..35 s — altitude (blue) &amp; roll (orange)</text></svg>