<svg xmlns="http://www.w3.org/2000/svg" width="1140" height="600" font-family="sans-serif" font-size="13"><rect width="1140" height="600" fill="white"/><text x="20" y="26" font-size="15" fill="#333">Coludo flight</text><rect x="20" y="40" width="540" height="540" fill="#fbfbfb" stroke="#ddd"/><rect x="50" y="305" width="298" height="64" fill="#cde" stroke="#369" opacity="0.7"/><text x="50" y="300" fill="#369" font-size="12">landing zone</text><circle cx="238" cy="405" r="5" fill="black"/><text x="246" y="409" font-size="12">pad</text><path d="M239.0,405.2 L239.0,405.2 L239.0,405.2 L239.0,405.2 L239.0,405.2 L239.0,405.2 L239.0,405.2 L239.0,405.2 L239.0,405.2 L239.0,405.2 L239.0,405.2 L239.0,405.2 L239.0,405.2 L239.0,405.2 L239.0,405.2 L239.0,405.2 L239.0,405.2 L239.0,405.2 L239.0,405.2 L239.0,405.2 L239.0,405.2 L239.0,405.2 L239.0,405.2 L239.0,405.2 L239.0,405.2 L239.0,405.2 L239.0,405.2 L239.0,405.2 L239.0,405.2 L239.0,405.2 L239.0,405.2 L239.0,405.2 L239.0,405.2 L239.0,405.2 L239.0,405.2 L239.0,405.2 L239.0,405.2 L239.0,405.2 L239.0,405.2 L239.0,405.2 L239.0,405.2 L239.0,405.2 L239.0,405.2 L239.0,405.2 L239.0,405.2 L239.0,405.2 L239.0,405.2 L239.0,405.2 L239.0,405.2 L239.0,405.2 L239.0,405.2 L239.0,405.2 L239.0,405.2 L240.0,403.5 L240.6,401.7 L242.2,398.5 L243.8,396.4 L245.4,393.9 L247.0,391.4 L250.2,388.9 L250.2,387.2 L253.4,384.7 L255.0,382.9 L256.6,380.8 L258.2,379.4 L260.4,376.5 L263.0,375.1 L265.5,373.3 L267.8,371.2 L269.4,369.8 L271.0,368.7 L274.2,367.0 L277.0,365.5 L279.0,363.1 L280.6,361.6 L282.2,359.9 L285.4,358.5 L286.0,357.0 L288.6,354.9 L291.1,352.1 L293.4,350.3 L296.6,347.8 L297.5,346.1 L298.2,343.2 L301.4,341.4 L302.6,339.3 L303.0,337.2 L304.6,335.1 L306.1,332.2 L306.5,329.8 L307.7,326.6 L309.3,324.4 L310.9,322.7 L311.6,319.1 L312.5,316.3 L312.5,313.5 L314.1,311.0 L314.1,308.8 L315.7,305.7 L315.7,303.2 L315.7,300.3 L316.7,297.2 L316.7,294.7 L317.3,291.5 L317.3,289.0 L318.9,286.2 L318.9,283.0 L320.5,280.9 L320.5,279.1 L322.1,275.5 L322.5,273.4 L323.7,270.6 L323.7,268.5 L325.3,265.6 L326.9,263.8 L328.2,261.7 L328.5,258.9 L330.1,257.1 L331.7,255.3 L333.3,252.2 L334.9,250.4 L337.2,248.3 L338.1,245.8 L341.3,243.6 L344.2,241.5 L344.5,240.1 L347.7,237.6 L348.0,236.2 L352.5,234.1 L354.4,232.7 L354.1,231.2 L357.3,230.2 L358.9,228.8 L362.1,227.3 L363.7,225.6 L366.9,224.5 L368.5,223.5 L371.7,222.0 L373.6,221.0 L376.5,220.3 L378.7,219.6 L381.3,218.5 L384.5,217.8 L387.7,217.1 L389.3,216.4 L392.5,216.0 L395.7,215.3 L398.9,215.3 L400.5,214.9 L403.7,214.6 L406.9,214.6 L410.7,214.6 L411.7,214.6 L414.9,214.9 L418.1,215.3 L421.0,215.3 L422.9,216.0 L426.1,216.4 L429.3,217.1 L430.9,217.8 L434.1,218.5 L435.7,219.6 L438.9,220.3 L440.1,221.0 L443.7,221.7 L446.5,223.1 L448.5,223.8 L450.4,225.6 L453.3,226.6 L456.1,228.4 L458.0,229.5 L461.2,231.2 L461.2,232.3 L464.4,233.7 L466.0,235.1 L469.2,236.9 L470.8,238.3 L472.4,239.8 L475.6,241.9 L476.0,242.9 L478.8,245.4 L482.4,246.8 L483.6,249.3 L485.2,250.4 L486.8,251.8 L490.0,254.3 L491.9,256.8 L494.8,258.5 L497.1,261.0 L498.0,262.4 L501.2,264.9 L502.8,266.7 L506.0,269.2 L507.6,271.6 L510.8,273.8 L513.7,275.9 L514.0,277.7 L517.2,279.4 L517.5,281.2 L520.4,283.3 L522.6,286.2 L525.2,287.9 L527.8,290.4 L530.0,292.2" fill="none" stroke="#1f77b4" stroke-width="1.7" opacity="0.85"/><circle cx="530" cy="292" r="4.5" fill="#1f77b4"/><text x="28" y="572" font-size="11" fill="#888">ground track — m from pad (N up)</text><rect x="580" y="40" width="540" height="540" fill="#fbfbfb" stroke="#ddd"/><text x="586" y="54" fill="#1f77b4" font-size="11">alt 107</text><text x="586" y="558" fill="#1f77b4" font-size="11">-44</text><path d="M616.8,401.3 L617.6,401.1 L618.6,400.6 L619.5,400.2 L620.4,399.3 L621.3,398.5 L622.1,397.6 L623.0,396.1 L623.9,395.0 L624.8,393.1 L625.7,391.6 L626.6,389.3 L627.5,387.7 L628.4,384.9 L629.3,383.0 L630.3,379.9 L631.2,377.6 L632.1,374.0 L633.0,371.6 L633.8,369.0 L634.6,366.3 L635.4,361.9 L636.3,359.0 L637.2,354.1 L638.1,350.9 L639.0,346.0 L639.8,342.3 L640.7,338.9 L641.6,333.0 L642.5,329.1 L643.4,323.0 L644.3,319.1 L645.2,312.7 L646.2,308.4 L647.1,301.2 L648.0,296.5 L648.9,289.7 L649.8,284.9 L650.7,277.8 L651.6,273.2 L652.6,266.1 L653.3,262.3 L654.2,257.3 L655.1,251.5 L656.0,247.2 L656.9,240.3 L657.8,236.4 L658.8,230.3 L659.7,226.9 L660.6,221.0 L661.5,217.1 L662.4,211.6 L663.3,207.4 L664.2,201.7 L665.2,198.1 L666.1,193.0 L666.9,189.4 L667.7,186.3 L668.6,181.7 L669.5,178.5 L670.5,173.3 L671.4,170.7 L672.3,166.3 L673.2,163.1 L674.1,159.0 L675.0,155.3 L675.9,151.5 L676.9,149.1 L677.8,144.5 L678.6,142.7 L679.4,139.6 L680.3,136.5 L681.2,133.1 L682.2,130.5 L683.1,127.4 L684.0,123.8 L684.9,121.6 L685.8,118.6 L686.7,117.3 L687.6,114.5 L688.5,111.6 L689.5,108.8 L690.4,108.2 L691.3,105.6 L692.1,103.0 L692.9,101.8 L693.8,98.8 L694.8,98.1 L695.7,96.1 L696.6,94.4 L697.5,92.7 L698.4,90.7 L699.3,89.1 L700.2,88.6 L701.2,87.0 L702.1,85.5 L703.0,84.1 L703.8,83.5 L704.6,82.5 L705.5,82.1 L706.5,81.2 L707.4,80.2 L708.3,80.0 L709.2,79.6 L710.1,78.5 L711.0,78.2 L711.9,77.4 L712.8,76.7 L713.8,77.0 L714.7,77.2 L715.5,76.9 L716.3,76.0 L717.2,76.9 L718.1,76.2 L719.1,77.1 L720.0,77.3 L720.9,78.0 L721.8,76.9 L722.7,79.1 L723.6,79.0 L724.5,79.3 L725.5,79.4 L726.4,81.0 L727.2,81.2 L728.0,83.0 L728.9,82.9 L729.8,84.0 L730.8,86.2 L731.7,87.0 L732.6,88.2 L733.5,90.3 L734.4,91.7 L735.3,92.9 L736.2,94.0 L737.0,96.6 L737.9,98.0 L738.8,96.9 L739.7,97.6 L740.6,97.5 L741.5,97.7 L742.5,97.7 L743.4,98.8 L744.3,98.8 L745.2,99.3 L746.1,99.7 L747.0,99.3 L747.8,99.2 L748.7,100.3 L749.6,100.7 L750.5,100.9 L751.4,99.9 L752.3,101.0 L753.2,101.4 L754.1,100.7 L755.1,102.2 L756.0,101.3 L756.9,101.8 L757.8,103.0 L758.7,103.3 L759.6,102.9 L760.5,103.4 L761.5,104.6 L762.2,103.5 L763.1,104.4 L764.0,105.1 L764.9,104.8 L765.8,106.4 L766.8,106.8 L767.7,106.0 L768.6,107.2 L769.5,107.1 L770.4,107.3 L771.3,108.9 L772.2,109.0 L773.2,109.6 L773.9,109.4 L774.8,109.5 L775.7,110.3 L776.6,110.8 L777.5,111.1 L778.4,111.3 L779.4,113.1 L780.3,112.9 L781.2,113.0 L782.1,114.3 L783.3,114.1 L784.1,114.6 L785.0,115.8 L785.9,116.5 L786.9,116.1 L787.8,117.8 L788.7,117.2 L789.5,118.2 L790.3,119.2 L791.2,119.5 L792.2,120.8 L793.1,119.9 L794.0,121.7 L794.9,121.3 L795.8,122.1 L796.7,122.4 L797.6,123.3 L798.5,124.1 L799.5,125.6 L800.4,125.9 L801.2,126.0 L802.2,126.1 L802.9,127.8 L803.8,128.8 L804.8,128.1 L805.7,128.9 L806.6,129.9 L807.5,131.4 L808.4,131.1 L809.3,133.0 L810.2,132.4 L811.2,133.3 L812.1,134.1 L813.0,135.8 L813.9,136.4 L814.7,136.1 L815.5,137.7 L816.5,137.8 L817.4,138.8 L818.3,139.9 L819.2,140.4 L820.1,141.0 L821.0,141.9 L821.8,142.9 L822.7,143.8 L823.6,143.9 L824.4,145.5 L825.2,146.2 L826.1,147.3 L827.1,148.0 L828.0,148.8 L828.9,149.0 L829.8,150.1 L830.7,151.0 L831.6,152.6 L832.5,153.0 L833.4,154.4 L834.4,154.5 L835.3,155.9 L836.1,155.9 L836.9,157.3 L837.8,158.6 L838.7,159.3 L839.8,160.1 L840.6,161.2 L841.5,162.6 L842.4,162.7 L843.3,163.4 L844.2,165.2 L845.1,165.6 L845.9,166.6 L846.8,167.8 L847.7,169.4 L848.6,169.3 L849.5,170.5 L850.4,172.0 L851.4,173.3 L852.3,173.5 L853.2,174.7 L854.1,175.3 L855.0,176.7 L855.9,177.7 L856.8,178.6 L857.8,179.8 L858.6,180.3 L859.5,181.7 L860.3,182.2 L861.2,184.1 L862.1,185.1 L863.0,185.7 L864.0,186.9 L864.9,187.7 L865.8,189.3 L866.7,189.9 L867.6,191.0 L868.5,192.7 L869.4,192.8 L870.4,195.0 L871.2,195.7 L872.0,196.0 L872.9,197.3 L873.8,198.2 L874.7,200.2 L875.7,200.4 L876.6,202.2 L877.5,203.3 L878.4,204.3 L879.3,204.8 L880.2,206.9 L881.1,207.9 L882.1,209.3 L882.8,209.5 L883.7,210.3 L884.6,211.8 L885.5,213.5 L886.4,214.2 L887.4,215.7 L888.3,216.5 L889.2,217.8 L890.1,219.5 L891.0,220.4 L891.9,221.7 L892.8,222.8 L893.7,224.4 L894.5,224.8 L895.4,226.0 L896.3,227.4 L897.2,228.3 L898.3,230.5 L899.2,231.1 L900.1,232.5 L901.1,233.9 L902.0,235.4 L902.9,237.0 L903.8,237.9 L904.6,239.0 L905.4,240.3 L906.4,240.9 L907.3,242.5 L908.2,243.5 L909.1,245.6 L910.0,246.4 L910.9,248.2 L911.8,249.1 L912.8,250.4 L913.7,251.3 L914.6,252.8 L915.7,254.3 L916.6,255.5 L917.5,257.5 L918.3,258.8 L919.1,259.5 L920.1,261.4 L921.0,262.5 L921.9,263.7 L922.8,264.7 L923.7,266.8 L924.6,267.7 L925.5,269.7 L926.5,270.2 L927.4,272.5 L928.3,273.2 L929.2,275.2 L930.1,276.0 L931.0,277.7 L931.8,278.8 L932.7,279.8 L933.6,281.8 L934.7,283.6 L935.6,284.6 L936.5,286.2 L937.4,287.4 L938.3,289.2 L939.1,290.4 L940.0,291.5 L940.9,293.3 L941.8,294.4 L942.7,295.9 L943.6,297.4 L944.5,298.8 L945.3,299.8 L946.2,301.0 L947.1,302.8 L948.0,304.2 L948.9,305.9 L949.8,307.0 L950.8,308.5 L951.7,310.1 L952.6,311.9 L953.9,313.6 L954.8,315.1 L955.7,316.5 L956.6,318.3 L957.5,319.4 L958.4,321.4 L959.3,322.5 L960.3,324.3 L961.2,325.5 L962.1,327.6 L963.0,328.5 L963.9,330.5 L964.8,331.5 L965.7,333.4 L966.7,334.6 L967.6,336.7 L968.4,337.9 L969.2,339.2 L970.1,340.8 L971.0,342.0 L972.0,344.1 L973.1,345.9 L974.0,347.3 L974.9,349.0 L975.8,350.2 L976.7,352.2 L977.6,353.4 L978.5,355.3 L979.4,356.6 L980.4,358.5 L981.3,359.6 L982.2,361.7 L983.1,362.8 L983.9,364.1 L984.7,366.2 L985.7,367.4 L986.6,369.2 L987.5,370.7 L988.4,372.6 L989.3,373.9 L990.2,375.7 L991.1,377.1 L992.3,379.0 L993.1,381.0 L994.1,382.2 L995.0,384.1 L995.9,385.4 L996.8,387.4 L997.7,388.8 L998.6,390.7 L999.5,392.0 L1000.5,394.0 L1001.4,395.3 L1002.3,397.3 L1003.2,398.6 L1004.1,400.6 L1005.0,401.9 L1005.8,403.2 L1006.7,405.2 L1007.6,406.5 L1008.5,408.6 L1009.4,409.9 L1010.3,411.9 L1011.5,413.9 L1012.3,415.2 L1013.2,417.2 L1014.2,418.5 L1015.1,420.5 L1016.0,421.8 L1016.9,423.8 L1017.8,425.2 L1018.7,427.1 L1019.6,428.5 L1020.6,430.5 L1021.5,431.8 L1022.4,433.8 L1023.3,435.2 L1024.2,437.2 L1025.1,438.4 L1026.0,440.6 L1026.9,441.8 L1027.9,443.8 L1028.8,445.1 L1029.7,447.0 L1030.8,449.1 L1031.7,450.5 L1032.6,452.5 L1033.5,453.8 L1034.4,455.8 L1035.4,457.1 L1036.3,459.1 L1037.2,460.5 L1038.1,462.3 L1039.0,463.6 L1039.9,465.9 L1040.9,467.1 L1041.8,469.0 L1042.7,470.4 L1043.6,472.5 L1044.5,473.6 L1045.4,475.8 L1046.3,477.1 L1047.2,479.1 L1048.1,480.2 L1050.0,483.6 L1050.9,485.6 L1051.8,487.0 L1052.6,488.2 L1053.4,490.1 L1054.4,491.4 L1055.3,493.6 L1056.2,494.7 L1057.1,496.9 L1058.0,498.1 L1058.9,500.4 L1059.8,501.5 L1060.8,503.3 L1062.4,506.4 L1063.3,508.0 L1064.2,509.4 L1065.1,511.3 L1066.0,513.0 L1067.0,515.0 L1067.9,515.8 L1068.9,518.1 L1069.7,519.4 L1070.6,521.0 L1071.5,522.7 L1072.3,523.5 L1073.2,525.8 L1074.1,526.9 L1075.0,528.8 L1075.9,530.1 L1076.8,532.4 L1077.7,533.2 L1078.7,535.0 L1079.6,536.5 L1080.5,538.5 L1081.4,539.8 L1082.3,541.4 L1083.2,543.0 L1084.0,544.0" fill="none" stroke="#1f77b4" stroke-width="1.4" opacity="0.85"/><text x="1040" y="54" fill="#ff7f0e" font-size="11">roll 17</text><text x="1090" y="558" fill="#ff7f0e" font-size="11">-17</text><path d="M616.7,309.3 L617.6,309.3 L618.6,309.3 L619.5,309.3 L620.4,309.3 L621.3,309.3 L622.1,309.3 L622.9,309.3 L623.8,309.3 L624.8,309.3 L625.7,309.3 L626.6,309.3 L627.5,309.3 L628.4,309.3 L629.3,309.3 L630.2,309.3 L631.2,309.3 L632.1,309.3 L633.0,309.3 L633.8,310.7 L634.5,309.3 L635.4,309.3 L636.3,309.3 L637.2,309.3 L638.1,310.7 L639.0,310.7 L639.8,309.3 L640.7,310.7 L641.6,310.7 L642.5,309.3 L643.4,310.7 L644.3,310.7 L645.2,310.7 L646.1,309.3 L647.1,310.7 L648.0,309.3 L648.9,310.7 L649.8,310.7 L650.7,312.0 L651.6,310.7 L652.5,310.7 L653.3,310.7 L654.2,310.7 L655.1,310.7 L656.0,312.0 L656.9,310.7 L657.8,312.0 L658.8,310.7 L659.7,310.7 L660.6,310.7 L661.5,312.0 L662.4,310.7 L663.3,310.7 L664.2,310.7 L665.1,310.7 L666.1,310.7 L666.8,310.7 L667.7,310.7 L668.6,310.7 L669.5,312.0 L670.4,310.7 L671.4,310.7 L672.3,310.7 L673.2,310.7 L674.1,310.7 L675.0,312.0 L675.9,310.7 L676.8,310.7 L677.8,310.7 L678.5,312.0 L679.4,310.7 L680.3,312.0 L681.2,312.0 L682.1,310.7 L683.1,310.7 L684.0,312.0 L684.9,312.0 L685.8,310.7 L686.7,310.7 L687.6,312.0 L688.5,310.7 L689.5,310.7 L690.4,310.7 L691.3,310.7 L692.1,310.7 L692.9,310.7 L693.8,310.7 L694.7,310.7 L695.7,310.7 L696.6,310.7 L697.5,312.0 L698.4,312.0 L699.3,310.7 L700.2,310.7 L701.1,310.7 L702.1,310.7 L703.0,310.7 L703.7,312.0 L704.6,310.7 L705.5,310.7 L706.4,312.0 L707.4,310.7 L708.3,312.0 L709.2,310.7 L710.1,310.7 L711.0,310.7 L711.9,310.7 L712.8,310.7 L713.8,310.7 L714.7,310.7 L715.4,310.7 L716.3,312.0 L717.2,312.0 L718.1,312.0 L719.0,312.0 L720.0,310.7 L720.9,310.7 L721.8,310.7 L722.7,310.7 L723.6,312.0 L724.5,312.0 L725.4,310.7 L726.4,312.0 L727.2,312.0 L728.0,310.7 L728.9,310.7 L729.8,310.7 L730.7,310.7 L731.7,310.7 L732.6,312.0 L733.5,312.0 L734.4,310.7 L735.3,310.7 L736.2,310.7 L737.0,310.7 L737.9,310.7 L738.8,286.3 L739.7,261.8 L740.6,229.3 L741.5,213.0 L742.4,184.5 L743.4,181.8 L744.3,164.2 L745.2,153.3 L746.1,127.5 L747.0,137.0 L747.8,128.9 L748.7,126.2 L749.6,119.4 L750.5,96.3 L751.4,95.0 L752.3,107.2 L753.2,99.1 L754.1,92.3 L755.0,93.6 L756.0,101.8 L756.9,92.3 L757.8,93.6 L758.7,104.5 L759.6,99.1 L760.5,84.1 L761.4,97.7 L762.2,89.6 L763.1,86.9 L764.0,84.1 L764.9,92.3 L765.8,105.8 L766.7,108.6 L767.7,107.2 L768.6,115.3 L769.5,108.6 L770.4,124.8 L771.3,112.6 L772.2,127.5 L773.1,119.4 L773.9,124.8 L774.8,126.2 L775.7,141.1 L776.6,145.2 L777.5,146.5 L778.4,150.6 L779.4,198.1 L780.3,236.1 L781.2,286.3 L782.1,314.7 L783.3,351.4 L784.1,392.1 L785.0,402.9 L785.9,434.1 L786.8,453.1 L787.8,455.8 L788.7,483.0 L789.5,472.1 L790.3,488.4 L791.2,497.9 L792.1,508.7 L793.1,515.5 L794.0,523.7 L794.9,511.4 L795.8,515.5 L796.7,512.8 L797.6,514.2 L798.5,538.6 L799.5,523.7 L800.4,527.7 L801.2,529.1 L802.1,533.1 L802.9,529.1 L803.8,519.6 L804.7,537.2 L805.7,522.3 L806.6,542.6 L807.5,537.2 L808.4,535.9 L809.3,533.1 L810.2,530.4 L811.1,525.0 L812.1,531.8 L813.0,535.9 L813.9,530.4 L814.7,534.5 L815.5,530.4 L816.4,527.7 L817.4,534.5 L818.3,522.3 L819.2,535.9 L820.1,534.5 L821.0,526.4 L821.7,544.0 L822.7,544.0 L823.6,538.6 L824.4,533.1 L825.2,534.5 L826.1,537.2 L827.0,522.3 L828.0,526.4 L828.9,544.0 L829.8,529.1 L830.7,522.3 L831.6,527.7 L832.5,533.1 L833.4,544.0 L834.4,526.4 L835.3,525.0 L836.1,542.6 L836.9,525.0 L837.8,539.9 L838.7,541.3 L839.8,538.6 L840.6,534.5 L841.5,522.3 L842.4,539.9 L843.3,542.6 L844.2,522.3 L845.1,533.1 L845.9,481.6 L846.8,439.5 L847.7,388.0 L848.6,355.4 L849.5,312.0 L850.4,283.5 L851.3,251.0 L852.3,222.5 L853.2,204.9 L854.1,180.5 L855.0,160.1 L855.9,161.5 L856.8,147.9 L857.7,134.3 L858.6,120.8 L859.4,114.0 L860.3,109.9 L861.2,107.2 L862.1,105.8 L863.0,96.3 L864.0,103.1 L864.9,99.1 L865.8,101.8 L866.7,105.8 L867.6,89.6 L868.5,89.6 L869.4,97.7 L870.3,92.3 L871.1,101.8 L872.0,101.8 L872.9,101.8 L873.8,78.7 L874.7,85.5 L875.6,92.3 L876.6,90.9 L877.4,89.6 L878.4,99.1 L879.3,78.7 L880.2,80.1 L881.1,103.1 L882.0,81.4 L882.8,86.9 L883.7,95.0 L884.6,95.0 L885.5,99.1 L886.4,81.4 L887.3,96.3 L888.3,84.1 L889.2,80.1 L890.1,89.6 L891.0,97.7 L891.9,95.0 L892.8,93.6 L893.7,89.6 L894.5,95.0 L895.4,96.3 L896.3,95.0 L897.2,82.8 L898.1,78.7 L899.2,78.7 L900.1,92.3 L901.0,97.7 L902.0,99.1 L902.9,82.8 L903.8,99.1 L904.6,82.8 L905.4,95.0 L906.3,80.1 L907.3,77.4 L908.2,88.2 L909.1,81.4 L910.0,93.6 L910.9,78.7 L911.8,99.1 L912.7,89.6 L913.7,90.9 L914.6,99.1 L915.7,90.9 L916.6,92.3 L917.5,95.0 L918.3,90.9 L919.1,78.7 L920.0,90.9 L921.0,92.3 L921.9,81.4 L922.8,81.4 L923.7,100.4 L924.6,92.3 L925.5,77.4 L926.4,88.2 L927.4,89.6 L928.3,88.2 L929.2,92.3 L930.1,95.0 L931.0,86.9 L931.8,97.7 L932.7,78.7 L933.6,85.5 L934.7,89.6 L935.6,96.3 L936.5,93.6 L937.4,89.6 L938.3,90.9 L939.1,100.4 L940.0,96.3 L940.9,90.9 L941.8,76.0 L942.7,92.3 L943.6,84.1 L944.5,89.6 L945.3,92.3 L946.2,85.5 L947.1,84.1 L948.0,84.1 L948.9,96.3 L949.8,100.4 L950.7,77.4 L951.7,90.9 L952.6,93.6 L953.9,92.3 L954.8,95.0 L955.7,97.7 L956.6,77.4 L957.5,90.9 L958.4,86.9 L959.3,93.6 L960.2,84.1 L961.2,76.0 L962.1,86.9 L963.0,78.7 L963.9,86.9 L964.8,92.3 L965.7,93.6 L966.6,99.1 L967.6,90.9 L968.4,95.0 L969.2,97.7 L970.1,96.3 L971.0,90.9 L971.9,93.6 L973.0,76.0 L973.9,93.6 L974.9,86.9 L975.8,89.6 L976.7,81.4 L977.6,82.8 L978.5,81.4 L979.4,86.9 L980.3,78.7 L981.3,80.1 L982.2,84.1 L983.1,95.0 L983.9,93.6 L984.7,97.7 L985.6,89.6 L986.6,90.9 L987.5,95.0 L988.4,85.5 L989.3,84.1 L990.2,78.7 L991.1,90.9 L992.3,78.7 L993.1,101.8 L994.0,80.1 L995.0,95.0 L995.9,97.7 L996.8,80.1 L997.7,84.1 L998.6,80.1 L999.5,82.8 L1000.4,97.7 L1001.4,93.6 L1002.3,95.0 L1003.2,99.1 L1004.1,104.5 L1005.0,134.3 L1005.8,131.6 L1006.7,149.3 L1007.6,154.7 L1008.5,164.2 L1009.4,179.1 L1010.3,177.7 L1011.5,191.3 L1012.3,195.4 L1013.2,211.7 L1014.1,203.5 L1015.1,195.4 L1016.0,207.6 L1016.9,210.3 L1017.8,213.0 L1018.7,230.6 L1019.6,222.5 L1020.5,230.6 L1021.5,242.9 L1022.4,242.9 L1023.3,246.9 L1024.2,253.7 L1025.1,257.8 L1026.0,237.4 L1026.9,233.4 L1027.9,236.1 L1028.8,236.1 L1029.7,252.3 L1030.8,263.2 L1031.7,268.6 L1032.6,267.3 L1033.5,260.5 L1034.4,245.6 L1035.3,256.4 L1036.3,251.0 L1037.2,248.3 L1038.1,246.9 L1039.0,253.7 L1039.9,259.1 L1040.9,264.6 L1041.7,260.5 L1042.7,271.3 L1043.6,257.8 L1044.5,260.5 L1045.4,272.7 L1046.3,268.6 L1047.2,290.3 L1048.1,282.2 L1050.0,299.8 L1050.9,286.3 L1051.8,298.5 L1052.6,297.1 L1053.4,308.0 L1054.3,305.3 L1055.3,301.2 L1056.2,299.8 L1057.1,305.3 L1058.0,295.8 L1058.9,283.5 L1059.8,278.1 L1060.7,276.8 L1062.4,280.8 L1063.3,283.5 L1064.2,287.6 L1065.1,289.0 L1066.0,290.3 L1067.0,293.0 L1067.9,293.0 L1068.9,294.4 L1069.7,297.1 L1070.6,299.8 L1071.5,298.5 L1072.3,299.8 L1073.2,301.2 L1074.1,302.5 L1075.0,302.5 L1075.9,302.5 L1076.8,303.9 L1077.7,303.9 L1078.7,305.3 L1079.6,305.3 L1080.5,306.6 L1081.4,305.3 L1082.3,306.6 L1083.2,306.6 L1084.0,306.6" fill="none" stroke="#ff7f0e" stroke-width="1.1" opacity="0.85"/><text x="616" y="572" font-size="11" fill="#888">time 0..26 s — altitude (blue) &amp; roll (orange)</text></svg>