<svg xmlns="http://www.w3.org/2000/svg" width="1140" height="600" font-family="sans-serif" font-size="13"><rect width="1140" height="600" fill="white"/><text x="20" y="26" font-size="15" fill="#333">Coludo flight</text><rect x="20" y="40" width="540" height="540" fill="#fbfbfb" stroke="#ddd"/><rect x="50" y="303" width="317" height="68" fill="#cde" stroke="#369" opacity="0.7"/><text x="50" y="298" fill="#369" font-size="12">landing zone</text><circle cx="250" cy="410" r="5" fill="black"/><text x="258" y="414" font-size="12">pad</text><path d="M251.0,409.8 L251.0,409.8 L251.0,409.8 L251.0,409.8 L251.0,409.8 L251.0,409.8 L251.0,409.8 L251.0,409.8 L251.0,409.8 L251.0,409.8 L251.0,409.8 L251.0,409.8 L251.0,409.8 L251.0,409.8 L251.0,409.8 L251.0,409.8 L251.0,409.8 L251.0,409.8 L251.0,409.8 L251.0,409.8 L251.0,409.8 L251.0,409.8 L251.0,409.8 L251.0,409.8 L251.0,409.8 L251.0,409.8 L251.0,409.8 L251.0,409.8 L251.0,409.8 L251.0,409.8 L251.0,409.8 L251.0,409.8 L251.0,409.8 L251.0,409.8 L251.0,409.8 L251.0,409.8 L251.0,409.8 L251.0,409.8 L251.0,409.8 L251.0,409.8 L251.0,409.8 L251.0,409.8 L251.0,409.8 L251.0,409.8 L251.0,409.8 L251.0,409.8 L251.0,409.8 L251.0,409.8 L251.0,409.8 L251.0,409.8 L251.0,409.8 L251.0,409.8 L251.0,409.8 L251.0,409.8 L251.0,409.8 L251.0,409.8 L251.0,409.8 L251.0,409.8 L251.0,409.8 L251.0,409.8 L251.0,409.8 L251.0,409.8 L251.0,409.8 L251.0,409.8 L251.0,409.8 L251.0,409.8 L251.0,409.8 L251.0,409.8 L251.0,409.8 L251.0,409.8 L251.0,409.8 L251.0,409.8 L251.0,409.8 L251.0,409.8 L251.0,409.8 L251.0,409.8 L251.0,409.8 L251.0,409.8 L251.0,409.8 L251.0,409.8 L251.0,409.8 L251.0,409.8 L251.0,409.8 L251.0,409.8 L251.0,409.8 L251.0,409.8 L252.1,407.2 L254.5,404.1 L256.2,400.7 L257.5,399.2 L257.9,397.0 L261.3,394.3 L263.0,392.1 L264.7,389.1 L268.1,386.4 L269.8,384.2 L273.2,381.5 L273.8,379.6 L276.6,377.4 L279.3,375.5 L281.7,373.2 L284.7,371.0 L288.5,369.1 L291.5,367.6 L293.6,365.3 L295.3,363.8 L297.0,361.5 L300.4,360.4 L302.1,357.8 L305.5,355.1 L306.5,353.6 L308.9,351.4 L310.6,349.5 L313.3,346.5 L314.0,345.0 L317.4,341.9 L318.7,340.1 L319.1,337.4 L320.8,334.4 L322.5,332.1 L324.2,329.1 L324.2,326.9 L325.9,323.9 L327.6,322.0 L328.3,318.6 L329.3,315.6 L331.0,312.2 L331.0,308.8 L332.7,306.9 L332.7,303.1 L332.7,300.5 L333.7,297.5 L333.7,294.1 L334.4,291.4 L334.4,288.0 L336.1,285.8 L336.1,282.0 L337.8,278.6 L339.5,275.2 L339.8,272.2 L341.2,268.8 L342.9,266.6 L344.6,263.5 L346.0,260.1 L346.3,258.3 L348.0,255.2 L349.7,253.0 L351.4,250.3 L354.8,247.3 L355.5,245.4 L358.2,242.8 L359.9,240.9 L361.6,239.4 L363.3,237.2 L365.0,235.6 L368.4,233.0 L371.8,230.7 L373.9,229.6 L375.2,227.4 L378.6,225.5 L380.3,224.0 L382.7,222.8 L383.7,222.1 L388.8,220.2 L390.5,219.1 L393.9,217.6 L395.6,216.4 L399.0,215.3 L400.7,214.5 L404.5,213.8 L407.5,213.0 L410.9,212.3 L416.0,211.5 L417.7,211.1 L421.1,210.8 L424.5,210.4 L427.6,210.4 L429.6,210.0 L433.7,210.0 L436.4,210.4 L439.2,210.4 L441.6,210.8 L445.0,211.1 L448.4,211.9 L450.1,212.3 L453.5,213.0 L455.2,213.8 L458.6,213.8 L462.0,214.9 L465.4,216.4 L467.1,217.2 L470.5,218.3 L472.2,219.8 L475.9,221.3 L477.3,222.1 L482.0,224.0 L484.1,225.8 L487.5,228.1 L489.2,229.6 L490.9,230.7 L492.9,232.6 L496.0,234.5 L499.0,237.2 L499.4,238.3 L502.8,240.9 L503.1,242.8 L506.2,245.4 L507.9,247.3 L509.6,250.3 L511.3,253.0 L514.7,255.6 L514.7,257.9 L516.4,260.9 L518.1,263.2 L519.8,265.4 L520.1,267.7 L521.5,270.7 L523.2,274.1 L524.9,277.1 L525.6,280.9 L525.6,283.1 L526.6,286.2 L526.6,289.9 L528.3,292.2 L528.3,294.5 L528.3,298.6 L530.0,300.5 L530.0,304.3 L530.0,306.5 L530.0,309.5 L530.0,313.7 L530.0,315.9 L528.3,319.7 L528.3,322.3 L528.3,325.4 L526.6,328.8 L526.6,330.6 L525.6,334.8 L525.6,337.0 L524.9,340.4 L523.2,343.8 L521.5,345.7 L521.5,348.0 L520.1,351.0 L519.8,353.3 L518.1,356.6 L514.7,359.7 L514.7,361.5 L513.0,363.4 L511.3,366.8 L509.6,368.7 L507.9,371.0 L506.2,372.9 L503.1,375.9 L501.1,378.1 L499.4,380.0 L499.0,381.9 L496.0,383.4 L492.9,385.7 L490.9,387.9 L487.5,390.2 L485.8,392.1 L482.4,393.2 L482.0,394.7 L479.0,396.2 L475.6,398.1 L471.8,400.0 L468.8,401.1 L465.4,402.6 L462.0,403.8 L460.3,404.9 L456.9,405.6 L453.5,406.4 L450.1,407.2 L446.7,407.9 L444.6,408.3 L441.6,408.3 L438.2,408.7 L434.7,409.0 L433.7,409.4 L427.9,409.4 L424.5,409.0 L421.1,409.0 L419.4,408.7 L416.0,408.3 L410.9,407.9 L409.2,407.5 L404.5,406.8 L400.7,405.6 L399.7,404.9 L395.6,403.8 L392.2,402.6 L390.5,401.5 L387.1,400.4 L383.7,398.9 L382.0,397.7 L378.6,396.6 L375.2,394.0 L373.9,392.1 L370.1,390.6 L367.1,388.7 L365.0,386.4 L363.3,384.9 L361.6,382.7 L358.2,380.8 L355.5,377.4 L353.1,374.7 L351.4,372.9 L349.7,370.2 L348.0,367.6 L346.0,364.6 L344.6,362.7 L341.2,360.0 L339.5,357.0 L336.1,354.0 L334.4,351.7 L332.7,349.1 L329.3,346.5 L327.6,344.6 L324.2,342.3 L320.8,339.3 L318.7,337.8 L315.7,335.9 L313.3,334.8 L312.3,333.3 L307.2,331.4 L305.5,330.6 L301.1,328.8 L297.0,326.9 L295.3,326.1 L291.9,325.0 L290.2,324.2 L286.8,323.5 L283.4,322.3 L280.0,322.3 L278.3,321.6 L273.8,321.2 L273.2,320.8 L268.4,320.5 L264.7,320.1 L263.0,319.7 L257.9,319.7 L256.2,319.7 L252.7,319.7 L251.0,319.7 L246.6,320.1 L242.5,320.1 L241.2,320.5 L237.4,320.8 L235.7,321.2 L230.6,322.0 L230.3,322.3 L225.5,323.1 L223.8,324.2 L220.4,325.0 L217.0,326.1 L214.0,327.2 L211.9,328.4 L208.5,329.5 L206.8,330.6 L203.4,332.5 L200.0,334.0 L197.6,336.7 L194.9,337.8 L193.2,338.9 L191.5,341.2 L188.1,342.7 L186.8,344.2 L184.7,346.5 L181.3,349.1 L179.6,350.6 L177.9,353.3 L175.9,355.9 L172.8,358.5 L171.1,360.8 L169.4,363.4 L167.7,366.4 L166.0,368.3 L165.0,370.2 L164.3,372.1 L160.9,374.4 L159.2,376.6 L157.5,379.6 L155.8,381.5 L152.7,383.8 L150.7,385.3 L148.7,387.6 L147.3,389.1 L143.2,392.1 L140.5,394.0 L137.1,395.5 L133.7,397.4 L131.6,398.9 L128.6,400.0 L124.8,400.4 L123.5,401.5 L120.1,402.6 L116.0,403.4 L111.6,404.1 L109.2,404.5 L106.5,404.9 L104.4,404.9 L99.7,405.3 L98.0,405.3 L94.2,405.3 L89.5,405.3 L86.1,405.6 L82.7,405.6 L81.0,405.6 L76.5,405.3" fill="none" stroke="#1f77b4" stroke-width="1.7" opacity="0.85"/><circle cx="77" cy="405" r="4.5" fill="#1f77b4"/><text x="28" y="572" font-size="11" fill="#888">ground track — m from pad (N up)</text><rect x="580" y="40" width="540" height="540" fill="#fbfbfb" stroke="#ddd"/><text x="586" y="54" fill="#1f77b4" font-size="11">alt 404</text><text x="586" y="558" fill="#1f77b4" font-size="11">-52</text><path d="M616.4,489.0 L616.8,488.9 L617.2,488.6 L617.7,488.4 L618.1,488.1 L618.5,487.7 L618.9,487.4 L619.3,486.7 L619.7,486.2 L620.2,485.4 L620.6,484.8 L621.0,483.8 L621.5,483.0 L621.9,481.8 L622.4,481.0 L622.8,479.6 L623.2,478.6 L623.7,477.1 L624.1,476.0 L624.5,474.3 L625.0,473.1 L625.4,471.1 L625.8,469.9 L626.3,467.9 L626.7,466.4 L627.1,464.9 L627.5,462.6 L627.9,461.0 L628.4,458.6 L628.8,456.9 L629.2,454.3 L629.7,452.4 L630.1,449.6 L630.5,447.7 L631.0,444.8 L631.4,442.7 L631.8,439.7 L632.3,437.6 L632.7,434.2 L633.1,432.2 L633.6,428.5 L634.0,426.5 L634.4,422.7 L634.9,420.3 L635.3,417.8 L635.7,414.2 L636.1,411.4 L636.5,407.7 L637.0,405.0 L637.4,401.2 L637.8,398.4 L638.3,394.2 L638.7,391.3 L639.1,387.2 L639.6,383.9 L640.0,379.4 L640.4,376.6 L640.9,372.2 L641.3,369.1 L641.8,364.2 L642.2,360.8 L642.6,356.6 L643.1,353.0 L643.5,348.2 L643.9,344.8 L644.4,339.6 L644.8,336.7 L645.2,332.6 L645.6,327.9 L646.0,324.2 L646.4,318.9 L646.9,315.3 L647.3,310.9 L647.8,307.6 L648.2,302.0 L648.6,299.3 L649.1,294.3 L649.5,291.1 L649.9,286.4 L650.4,282.6 L650.8,277.9 L651.3,275.8 L651.7,271.3 L652.1,268.1 L652.5,263.2 L653.0,260.6 L653.3,257.5 L653.8,253.2 L654.2,251.4 L654.6,247.3 L655.1,243.7 L655.5,240.3 L655.9,236.9 L656.4,232.9 L656.8,231.5 L657.2,226.8 L657.7,225.0 L658.1,221.6 L658.5,219.2 L659.0,214.4 L659.4,212.8 L659.8,209.5 L660.3,206.8 L660.7,203.0 L661.1,201.8 L661.6,198.0 L662.0,196.2 L662.4,192.9 L662.8,189.9 L663.2,188.7 L663.7,184.7 L664.1,182.4 L664.5,180.4 L665.0,178.1 L665.4,175.2 L665.8,172.4 L666.3,170.4 L666.7,168.7 L667.2,166.3 L667.6,163.2 L668.0,161.1 L668.5,159.5 L669.0,157.1 L669.4,153.7 L669.8,153.2 L670.3,150.9 L670.7,148.8 L671.2,145.8 L671.6,144.6 L672.0,141.8 L672.4,141.5 L672.8,140.0 L673.2,136.4 L673.7,135.6 L674.1,133.3 L674.5,131.6 L675.0,129.9 L675.4,128.6 L675.8,126.0 L676.3,124.5 L676.7,122.7 L677.2,122.6 L677.6,121.0 L678.0,118.2 L678.5,117.3 L678.8,116.4 L679.2,114.7 L679.7,113.0 L680.1,111.2 L680.5,110.8 L681.0,108.3 L681.4,107.4 L681.9,107.5 L682.3,104.3 L682.7,104.4 L683.2,102.2 L683.6,101.3 L684.0,99.9 L684.5,99.0 L684.9,97.9 L685.3,97.0 L685.8,96.5 L686.2,94.9 L686.9,94.5 L687.2,92.3 L687.7,91.6 L688.1,91.2 L688.6,89.6 L689.0,89.6 L689.4,89.7 L689.9,88.3 L690.3,87.8 L690.7,87.0 L691.2,85.8 L691.5,85.5 L691.9,84.5 L692.4,84.8 L692.8,84.5 L693.2,82.2 L693.7,81.4 L694.1,82.6 L694.6,80.7 L695.0,80.9 L695.4,81.2 L695.8,79.4 L696.2,79.1 L696.6,79.9 L697.1,78.1 L697.5,78.7 L697.9,79.2 L698.4,77.3 L698.8,76.9 L699.2,77.3 L699.7,77.5 L700.1,76.4 L700.6,77.1 L701.0,76.0 L701.4,77.3 L701.9,76.5 L702.3,76.9 L702.7,76.2 L703.2,77.3 L703.5,76.5 L703.9,77.6 L704.4,76.5 L704.8,76.9 L705.2,76.4 L705.6,76.8 L706.0,77.2 L706.5,76.6 L706.9,78.7 L707.3,78.4 L707.7,77.6 L708.1,78.2 L708.6,78.3 L709.0,78.6 L709.4,80.2 L709.9,79.7 L710.3,81.2 L710.7,79.9 L711.2,81.9 L711.6,81.6 L712.0,82.7 L712.5,83.7 L712.9,82.8 L713.3,83.9 L713.8,83.2 L714.1,83.1 L714.6,84.7 L715.0,83.8 L715.4,84.6 L715.9,83.5 L716.3,84.9 L716.7,84.1 L717.2,83.7 L717.6,83.5 L718.0,83.7 L718.5,84.8 L718.9,84.3 L719.3,84.2 L719.8,84.6 L720.2,85.5 L720.6,85.8 L721.0,85.1 L721.4,84.9 L721.9,86.1 L722.3,84.5 L722.7,84.5 L723.1,85.4 L723.5,85.8 L724.0,86.2 L724.4,85.4 L724.8,86.5 L725.3,85.5 L725.7,86.0 L726.1,86.4 L726.6,86.6 L727.0,85.7 L727.4,87.3 L727.8,86.4 L728.2,87.8 L728.7,86.6 L729.1,86.6 L729.5,87.4 L730.0,88.1 L730.4,87.7 L730.8,87.8 L731.3,87.6 L731.7,87.6 L732.1,88.4 L732.5,88.9 L732.9,89.0 L733.3,89.2 L733.7,89.3 L734.1,88.4 L734.6,89.1 L735.0,89.7 L735.4,89.3 L735.9,89.2 L736.3,89.7 L736.7,89.7 L737.2,91.1 L737.6,90.5 L738.0,91.4 L738.5,90.5 L738.9,90.4 L739.4,91.1 L739.8,91.3 L740.2,91.4 L740.6,91.2 L741.0,92.9 L741.4,92.5 L741.9,92.6 L742.3,93.4 L742.7,92.1 L743.2,93.4 L743.6,92.7 L744.1,94.3 L744.5,93.0 L744.9,93.4 L745.4,93.9 L745.8,94.2 L746.2,95.4 L746.7,95.5 L747.1,96.2 L747.5,95.7 L748.0,95.3 L748.4,95.1 L748.8,95.9 L749.2,96.7 L749.6,95.9 L750.0,97.6 L750.4,98.1 L750.8,97.8 L751.3,97.2 L751.7,97.5 L752.1,97.5 L752.6,97.6 L753.0,99.6 L753.4,99.7 L753.9,98.6 L754.3,100.0 L754.7,99.5 L755.1,99.6 L755.5,99.5 L756.0,100.3 L756.4,101.0 L756.8,101.8 L757.3,100.8 L757.7,101.5 L758.1,101.7 L758.8,103.0 L759.2,102.7 L759.6,103.0 L760.1,103.2 L760.5,104.4 L760.9,103.4 L761.4,103.8 L761.8,104.7 L762.2,104.7 L762.7,106.3 L763.1,105.2 L763.5,106.0 L764.0,105.8 L764.4,105.9 L764.8,106.6 L765.3,107.6 L765.7,107.3 L766.1,107.6 L766.5,108.0 L766.9,108.2 L767.4,109.9 L767.9,109.3 L768.3,110.2 L768.8,110.9 L769.2,111.0 L769.6,110.7 L770.1,111.4 L770.5,111.7 L770.9,112.0 L771.4,112.5 L771.8,113.1 L772.2,112.6 L772.7,113.4 L773.1,113.6 L773.5,113.6 L774.0,114.5 L774.4,113.8 L774.8,115.8 L775.3,114.8 L775.7,114.8 L776.1,115.1 L776.5,116.9 L777.0,116.0 L777.5,117.7 L777.9,117.1 L778.3,117.4 L778.8,117.9 L779.2,119.4 L779.6,119.0 L780.1,119.0 L780.5,118.9 L780.9,119.8 L781.4,119.7 L781.8,120.7 L782.2,121.1 L782.7,122.0 L783.1,121.4 L783.5,122.8 L784.0,122.1 L784.4,122.5 L784.8,123.0 L785.2,123.1 L785.6,124.1 L786.2,125.2 L786.6,125.4 L787.0,125.4 L787.5,126.2 L787.9,126.5 L788.3,126.9 L788.8,127.7 L789.2,128.4 L789.6,128.1 L790.1,128.8 L790.5,129.6 L790.9,129.7 L791.4,129.1 L791.8,130.2 L792.2,130.7 L792.7,130.8 L793.1,130.8 L793.5,132.7 L794.0,131.7 L794.4,133.3 L794.8,132.3 L795.3,133.9 L795.7,134.8 L796.2,134.3 L796.6,134.5 L797.0,135.8 L797.5,135.8 L797.9,135.4 L798.3,136.3 L798.8,137.0 L799.2,137.9 L799.6,137.5 L800.1,138.8 L800.5,138.2 L800.9,138.6 L801.4,138.9 L801.8,139.5 L802.2,140.9 L802.7,141.2 L803.1,141.2 L803.5,141.7 L804.0,141.6 L804.5,143.3 L804.9,143.9 L805.4,144.3 L805.7,144.0 L806.2,145.7 L806.6,144.9 L807.0,146.1 L807.5,147.0 L807.9,146.3 L808.3,147.8 L808.8,148.0 L809.2,148.8 L809.6,149.1 L810.1,149.8 L810.5,148.8 L810.9,149.5 L811.4,151.1 L811.8,151.5 L812.3,151.9 L812.7,152.4 L813.1,151.9 L813.6,153.5 L814.1,153.3 L814.5,154.3 L814.9,154.5 L815.3,155.7 L815.7,155.1 L816.2,155.1 L816.6,156.2 L817.0,156.2 L817.5,157.0 L817.9,158.7 L818.3,157.9 L818.8,158.9 L819.2,159.6 L819.6,159.9 L820.1,159.9 L820.5,160.3 L820.9,161.4 L821.4,161.7 L821.8,163.1 L822.3,163.0 L822.8,163.4 L823.2,164.9 L823.6,163.8 L824.0,165.6 L824.4,165.9 L824.9,166.7 L825.3,166.6 L825.7,167.5 L826.2,167.2 L826.6,167.6 L827.0,169.3 L827.5,169.1 L827.9,170.5 L828.3,170.6 L828.8,170.2 L829.2,170.4 L829.6,171.3 L830.1,171.7 L830.5,172.6 L831.0,173.2 L831.4,174.5 L831.9,174.4 L832.3,175.6 L832.8,175.1 L833.2,175.8 L833.6,175.8 L834.0,177.8 L834.4,177.3 L834.9,178.9 L835.3,178.2 L835.7,179.2 L836.2,180.0 L836.6,180.3 L837.0,181.3 L837.5,181.6 L837.9,181.3 L838.3,183.3 L838.8,183.8 L839.2,183.1 L839.6,183.8 L840.1,184.8 L840.5,185.5 L841.0,185.7 L841.5,186.1 L841.9,187.0 L842.3,188.2 L842.7,187.8 L843.1,188.3 L843.6,189.3 L844.0,189.5 L844.4,191.0 L844.9,190.2 L845.3,191.2 L845.7,192.5 L846.2,192.9 L846.6,193.1 L847.0,194.3 L847.5,194.8 L847.9,194.8 L848.3,195.2 L848.8,195.2 L849.2,195.8 L849.7,196.4 L850.2,197.1 L850.6,198.6 L851.0,198.2 L851.5,198.7 L851.9,200.1 L852.4,201.0 L852.8,200.8 L853.2,200.9 L853.6,202.5 L854.0,202.4 L854.4,203.9 L854.9,203.7 L855.3,204.2 L855.7,205.7 L856.2,205.4 L856.6,206.4 L857.0,206.5 L857.5,207.2 L857.9,207.7 L858.4,208.4 L858.8,208.5 L859.3,210.1 L859.7,210.2 L860.2,211.2 L860.6,211.9 L861.0,212.0 L861.5,212.8 L861.9,213.6 L862.3,213.0 L862.7,214.2 L863.1,214.8 L863.6,216.2 L864.0,215.8 L864.4,216.2 L864.9,216.7 L865.3,218.4 L865.7,218.4 L866.2,218.6 L866.6,219.7 L867.1,220.4 L867.5,220.7 L867.9,221.7 L868.5,222.5 L868.9,223.1 L869.3,222.9 L869.7,224.0 L870.2,224.6 L870.6,225.7 L871.1,226.4 L871.5,226.6 L871.9,226.8 L872.3,228.2 L872.7,227.5 L873.1,229.2 L873.6,228.7 L874.0,230.5 L874.4,229.8 L874.9,231.0 L875.3,231.9 L875.8,232.7 L876.2,232.7 L876.6,234.2 L877.1,234.4 L877.6,235.4 L878.0,235.8 L878.4,236.4 L878.9,236.9 L879.3,237.4 L879.8,238.1 L880.2,239.0 L880.6,238.8 L881.1,240.3 L881.4,240.2 L881.8,240.9 L882.3,241.9 L882.7,242.1 L883.1,242.1 L883.6,242.9 L884.0,243.7 L884.4,244.7 L884.9,245.0 L885.3,245.4 L885.8,246.5 L886.2,246.5 L886.8,247.4 L887.1,248.4 L887.6,248.7 L888.0,249.6 L888.5,250.4 L888.9,250.3 L889.3,251.8 L889.8,252.0 L890.2,252.6 L890.6,253.4 L891.0,253.3 L891.4,255.2 L891.8,255.3 L892.3,256.3 L892.7,255.9 L893.1,256.9 L893.6,257.6 L894.0,257.9 L894.5,258.4 L894.9,259.7 L895.3,260.5 L896.2,261.7 L896.6,262.3 L897.1,262.4 L897.5,263.2 L897.9,263.6 L898.4,264.2 L898.8,265.4 L899.2,266.1 L899.7,266.3 L900.1,267.5 L900.5,267.2 L901.0,268.8 L901.4,269.0 L901.8,269.7 L902.3,269.9 L902.7,271.2 L903.1,271.4 L903.5,272.1 L903.9,273.2 L904.4,273.3 L904.8,274.2 L905.8,275.1 L906.2,275.7 L906.6,276.6 L907.1,277.0 L907.5,277.7 L907.9,278.9 L908.4,279.3 L908.8,279.7 L909.2,280.3 L909.7,281.3 L910.1,281.9 L910.5,282.4 L910.9,283.2 L911.3,283.2 L911.8,284.1 L912.2,285.4 L912.6,285.5 L913.1,286.1 L913.5,287.4 L913.9,287.4 L914.4,288.1 L915.4,289.7 L915.8,290.4 L916.2,290.6 L916.6,291.4 L917.1,292.5 L917.5,293.3 L917.9,293.4 L918.4,294.5 L918.8,294.6 L919.2,296.1 L919.7,295.9 L920.1,296.9 L920.5,297.1 L920.9,297.9 L921.3,299.3 L921.8,298.9 L922.2,300.6 L922.6,300.9 L923.1,301.4 L923.5,301.6 L923.9,302.4 L925.0,304.4 L925.3,304.5 L925.8,305.6 L926.2,306.1 L926.6,307.1 L927.1,307.5 L927.5,308.4 L927.9,309.1 L928.4,309.4 L928.8,310.3 L929.2,310.4 L929.6,311.5 L930.0,311.6 L930.5,312.4 L930.9,312.9 L931.3,313.9 L931.8,315.0 L932.2,315.2 L932.6,315.6 L933.1,316.5 L933.5,317.6 L934.5,319.1 L934.9,319.4 L935.3,319.9 L935.8,320.7 L936.2,321.0 L936.6,321.8 L937.1,322.6 L937.5,323.3 L937.9,323.6 L938.3,324.5 L938.7,325.6 L939.2,325.5 L939.6,326.3 L940.0,327.5 L940.5,328.0 L940.9,328.9 L941.3,329.3 L941.8,329.7 L942.2,330.4 L942.6,331.0 L943.1,331.9 L944.1,333.0 L944.5,334.1 L944.9,334.3 L945.3,335.1 L945.8,335.9 L946.2,337.0 L946.6,337.6 L947.1,338.2 L947.5,338.4 L948.0,339.4 L948.4,340.1 L948.8,340.9 L949.3,341.4 L949.6,341.6 L950.0,343.0 L950.5,343.0 L950.9,344.4 L951.3,344.6 L951.8,345.4 L952.2,345.8 L952.6,347.0 L953.7,348.3 L954.0,348.8 L954.5,349.6 L954.9,350.3 L955.3,351.0 L955.8,351.5 L956.2,352.0 L956.6,352.9 L957.1,353.7 L957.5,353.9 L957.9,355.3 L958.3,355.5 L958.7,356.6 L959.2,357.0 L959.6,357.4 L960.0,358.4 L960.5,359.3 L960.9,359.3 L961.3,360.3 L961.8,360.7 L962.2,361.6 L963.2,363.3 L963.6,363.6 L964.0,364.3 L964.5,365.6 L964.9,365.7 L965.4,366.4 L965.8,367.1 L966.2,368.2 L966.7,368.4 L967.1,369.5 L967.5,369.7 L967.9,370.2 L968.3,371.4 L968.7,371.6 L969.2,372.6 L969.6,373.5 L970.0,374.0 L970.5,374.3 L970.9,375.2 L971.3,375.7 L971.8,377.0 L972.8,378.2 L973.2,378.8 L973.6,379.4 L974.0,380.1 L974.5,380.6 L974.9,381.6 L975.4,381.8 L975.8,382.6 L976.2,383.3 L976.7,384.1 L977.1,384.5 L977.5,385.3 L978.0,385.9 L978.3,386.6 L978.7,387.3 L979.2,387.6 L979.6,388.5 L980.0,388.9 L980.5,390.1 L980.9,390.2 L981.4,391.3 L982.4,392.6 L982.8,393.3 L983.3,394.3 L983.7,394.8 L984.1,395.2 L984.6,395.8 L985.0,396.5 L985.4,397.3 L985.9,398.1 L986.3,398.4 L986.7,399.3 L987.2,400.1 L987.6,400.5 L988.0,401.3 L988.4,401.7 L988.8,402.5 L989.2,403.3 L989.6,403.8 L990.1,404.3 L990.5,404.8 L990.9,405.9 L992.0,407.0 L992.4,407.9 L992.8,408.9 L993.3,409.2 L993.7,410.1 L994.1,410.5 L994.6,411.4 L995.0,411.8 L995.4,412.5 L995.9,413.2 L996.3,414.1 L996.8,414.5 L997.2,415.4 L997.6,415.9 L998.1,416.8 L998.4,417.2 L998.8,417.7 L999.3,418.5 L999.7,419.1 L1000.1,419.8 L1000.6,420.4 L1001.5,421.9 L1001.9,422.7 L1002.3,423.2 L1002.8,423.9 L1003.2,424.6 L1003.6,425.4 L1004.1,425.6 L1004.5,426.6 L1004.9,427.1 L1005.4,427.8 L1005.8,428.5 L1006.2,429.3 L1006.7,429.7 L1007.0,430.3 L1007.5,431.2 L1007.9,431.8 L1008.3,432.3 L1008.8,433.0 L1009.2,433.9 L1009.6,434.3 L1010.1,435.1 L1011.1,436.4 L1011.5,437.2 L1012.0,438.1 L1012.4,438.6 L1012.8,439.4 L1013.3,439.9 L1013.7,440.6 L1014.1,441.3 L1014.6,442.0 L1015.0,442.6 L1015.5,443.3 L1015.9,444.0 L1016.3,444.7 L1016.8,445.2 L1017.2,446.0 L1017.6,446.4 L1018.1,447.3 L1018.4,447.9 L1018.8,448.4 L1019.3,449.3 L1019.7,449.8 L1020.6,451.1 L1021.0,451.8 L1021.5,452.4 L1021.9,453.2 L1022.3,453.7 L1022.8,454.6 L1023.2,455.1 L1023.6,455.9 L1024.1,456.3 L1024.5,457.1 L1024.9,457.7 L1025.4,458.4 L1025.8,459.0 L1026.2,459.6 L1026.6,460.3 L1027.0,460.8 L1027.5,461.7 L1027.9,462.2 L1028.3,463.0 L1028.8,463.6 L1029.2,464.4 L1030.2,466.0 L1030.7,466.4 L1031.1,467.3 L1031.5,467.8 L1032.0,468.7 L1032.4,469.2 L1032.9,470.0 L1033.3,470.5 L1033.7,471.3 L1034.2,471.9 L1034.6,472.6 L1035.0,473.1 L1035.5,474.0 L1035.9,474.5 L1036.3,475.4 L1036.7,475.9 L1037.1,476.4 L1037.5,477.2 L1038.0,477.8 L1038.4,478.6 L1038.9,479.2 L1039.8,480.5 L1040.2,481.3 L1040.6,481.9 L1041.0,482.7 L1041.5,483.2 L1041.9,484.0 L1042.3,484.5 L1042.8,485.4 L1043.2,485.9 L1043.6,486.7 L1044.1,487.2 L1044.5,488.1 L1044.9,488.6 L1045.3,489.1 L1045.7,489.9 L1046.2,490.5 L1046.6,491.3 L1047.0,491.8 L1047.5,492.6 L1047.9,493.1 L1048.3,493.9 L1049.4,495.5 L1049.8,496.0 L1050.2,496.8 L1050.7,497.3 L1051.1,498.1 L1051.6,498.6 L1052.0,499.4 L1052.4,499.9 L1052.9,500.7 L1053.3,501.2 L1053.7,502.0 L1054.2,502.4 L1054.6,503.3 L1055.0,503.7 L1055.5,504.5 L1055.8,505.0 L1056.3,505.6 L1056.7,506.3 L1057.1,506.8 L1057.6,507.6 L1058.0,508.1 L1058.9,509.3 L1059.3,510.1 L1059.7,510.6 L1060.2,511.4 L1060.6,511.9 L1061.0,512.5 L1061.5,513.0 L1061.9,513.9 L1062.3,514.3 L1062.8,515.1 L1063.2,515.6 L1063.6,516.0 L1064.0,516.7 L1064.4,517.4 L1064.9,518.1 L1065.3,518.6 L1065.7,519.3 L1066.2,519.7 L1066.6,520.5 L1067.0,521.0 L1067.5,521.7 L1068.5,523.3 L1069.0,523.8 L1069.4,524.4 L1069.8,525.0 L1070.3,525.7 L1070.7,526.1 L1071.1,526.9 L1071.6,527.4 L1072.0,528.1 L1073.2,529.5 L1073.7,530.4 L1074.1,530.9 L1074.5,531.5 L1075.0,532.2 L1075.4,532.7 L1075.8,533.5 L1076.3,533.9 L1076.7,534.6 L1077.1,535.0 L1077.9,536.2 L1078.3,536.8 L1078.8,537.3 L1079.2,537.9 L1079.6,538.5 L1080.1,539.0 L1080.5,539.6 L1081.0,540.2 L1081.4,540.7 L1081.8,541.1 L1082.3,541.9 L1082.7,542.4 L1083.1,543.1 L1083.6,543.5 L1084.0,544.0" fill="none" stroke="#1f77b4" stroke-width="1.4" opacity="0.85"/><text x="1040" y="54" fill="#ff7f0e" font-size="11">roll 23</text><text x="1090" y="558" fill="#ff7f0e" font-size="11">-18</text><path d="M616.4,343.8 L616.8,343.8 L617.2,343.8 L617.7,343.8 L618.1,343.8 L618.5,343.8 L618.9,343.8 L619.3,343.8 L619.7,343.8 L620.2,343.8 L620.6,343.8 L621.0,343.8 L621.5,343.8 L621.9,343.8 L622.3,343.8 L622.8,343.8 L623.2,343.8 L623.7,343.8 L624.1,344.9 L624.5,343.8 L625.0,343.8 L625.4,343.8 L625.8,343.8 L626.3,343.8 L626.7,344.9 L627.1,344.9 L627.5,344.9 L627.9,344.9 L628.3,343.8 L628.8,344.9 L629.2,344.9 L629.7,343.8 L630.1,344.9 L630.5,343.8 L631.0,343.8 L631.4,344.9 L631.8,344.9 L632.3,343.8 L632.7,344.9 L633.1,344.9 L633.6,344.9 L634.0,344.9 L634.4,344.9 L634.9,344.9 L635.2,343.8 L635.7,344.9 L636.1,343.8 L636.5,343.8 L637.0,344.9 L637.4,344.9 L637.8,344.9 L638.3,344.9 L638.7,344.9 L639.1,344.9 L639.6,344.9 L640.0,344.9 L640.4,344.9 L640.9,344.9 L641.3,344.9 L641.7,344.9 L642.2,343.8 L642.6,344.9 L643.1,343.8 L643.5,344.9 L643.9,344.9 L644.4,343.8 L644.8,344.9 L645.2,343.8 L645.6,344.9 L646.0,344.9 L646.4,343.8 L646.9,343.8 L647.3,343.8 L647.7,343.8 L648.2,343.8 L648.6,344.9 L649.1,344.9 L649.5,343.8 L649.9,343.8 L650.4,344.9 L650.8,343.8 L651.3,344.9 L651.7,343.8 L652.1,344.9 L652.5,344.9 L653.0,344.9 L653.3,343.8 L653.8,344.9 L654.2,344.9 L654.6,344.9 L655.1,344.9 L655.5,343.8 L655.9,344.9 L656.4,343.8 L656.8,343.8 L657.2,343.8 L657.7,343.8 L658.1,343.8 L658.5,344.9 L659.0,343.8 L659.4,344.9 L659.8,343.8 L660.3,344.9 L660.7,344.9 L661.1,344.9 L661.6,344.9 L662.0,343.8 L662.4,344.9 L662.8,344.9 L663.2,344.9 L663.7,344.9 L664.1,344.9 L664.5,344.9 L665.0,343.8 L665.4,344.9 L665.8,343.8 L666.3,344.9 L666.7,344.9 L667.1,343.8 L667.6,343.8 L668.0,344.9 L668.5,344.9 L669.0,343.8 L669.4,344.9 L669.8,343.8 L670.3,343.8 L670.7,343.8 L671.1,343.8 L671.6,344.9 L672.0,344.9 L672.4,343.8 L672.8,343.8 L673.2,343.8 L673.7,343.8 L674.1,344.9 L674.5,344.9 L675.0,344.9 L675.4,344.9 L675.8,344.9 L676.3,343.8 L676.7,344.9 L677.1,343.8 L677.6,343.8 L678.0,344.9 L678.5,344.9 L678.8,343.8 L679.2,344.9 L679.7,343.8 L680.1,343.8 L680.5,344.9 L681.0,343.8 L681.4,343.8 L681.8,344.9 L682.3,344.9 L682.7,343.8 L683.2,343.8 L683.6,344.9 L684.0,344.9 L684.5,344.9 L684.9,344.9 L685.3,343.8 L685.8,344.9 L686.2,344.9 L686.8,344.9 L687.2,343.8 L687.7,344.9 L688.1,344.9 L688.5,344.9 L689.0,344.9 L689.4,344.9 L689.9,344.9 L690.3,343.8 L690.7,344.9 L691.2,344.9 L691.5,343.8 L691.9,344.9 L692.4,344.9 L692.8,343.8 L693.2,344.9 L693.7,344.9 L694.1,344.9 L694.5,344.9 L695.0,343.8 L695.4,344.9 L695.8,343.8 L696.2,344.9 L696.6,344.9 L697.1,343.8 L697.5,343.8 L697.9,344.9 L698.4,344.9 L698.8,344.9 L699.2,344.9 L699.7,343.8 L700.1,344.9 L700.5,343.8 L701.0,343.8 L701.4,343.8 L701.9,344.9 L702.3,343.8 L702.7,344.9 L703.2,343.8 L703.5,344.9 L703.9,343.8 L704.4,344.9 L704.8,343.8 L705.2,344.9 L705.6,344.9 L706.0,343.8 L706.5,344.9 L706.9,344.9 L707.3,344.9 L707.7,344.9 L708.1,344.9 L708.6,344.9 L709.0,343.8 L709.4,344.9 L709.9,344.9 L710.3,344.9 L710.7,344.9 L711.2,344.9 L711.6,344.9 L712.0,344.9 L712.5,343.8 L712.9,344.9 L713.3,331.2 L713.8,310.6 L714.1,282.0 L714.6,265.9 L715.0,244.2 L715.4,237.3 L715.9,217.9 L716.3,212.2 L716.7,193.9 L717.2,187.0 L717.6,184.7 L718.0,191.6 L718.5,180.1 L718.9,169.8 L719.3,168.7 L719.8,167.5 L720.2,174.4 L720.6,158.4 L721.0,174.4 L721.4,155.0 L721.9,158.4 L722.3,159.5 L722.7,167.5 L723.1,159.5 L723.5,168.7 L724.0,163.0 L724.4,159.5 L724.8,168.7 L725.3,167.5 L725.7,168.7 L726.1,168.7 L726.6,177.8 L727.0,165.3 L727.4,161.8 L727.8,166.4 L728.2,177.8 L728.6,183.6 L729.1,191.6 L729.5,191.6 L730.0,183.6 L730.4,193.9 L730.8,197.3 L731.3,209.9 L731.7,203.0 L732.0,204.2 L732.5,214.5 L732.9,239.6 L733.3,288.8 L733.7,314.0 L734.1,350.6 L734.6,372.4 L735.0,406.7 L735.4,419.3 L735.9,442.2 L736.3,455.9 L736.7,469.6 L737.2,475.3 L737.6,486.8 L738.0,495.9 L738.5,499.4 L738.9,501.7 L739.3,507.4 L739.8,521.1 L740.2,513.1 L740.6,522.3 L741.0,516.5 L741.4,522.3 L741.9,531.4 L742.3,517.7 L742.7,521.1 L743.2,525.7 L743.6,528.0 L744.0,534.8 L744.5,528.0 L744.9,522.3 L745.3,534.8 L745.8,529.1 L746.2,524.5 L746.7,533.7 L747.1,524.5 L747.5,530.3 L748.0,537.1 L748.4,525.7 L748.8,525.7 L749.2,533.7 L749.6,540.6 L750.0,537.1 L750.4,529.1 L750.8,534.8 L751.3,529.1 L751.7,524.5 L752.1,526.8 L752.6,529.1 L753.0,528.0 L753.4,538.3 L753.9,540.6 L754.3,529.1 L754.7,529.1 L755.1,541.7 L755.5,528.0 L756.0,534.8 L756.4,528.0 L756.8,533.7 L757.3,537.1 L757.7,536.0 L758.1,533.7 L758.8,537.1 L759.2,524.5 L759.6,528.0 L760.1,537.1 L760.5,529.1 L760.9,540.6 L761.4,525.7 L761.8,538.3 L762.2,538.3 L762.7,536.0 L763.1,522.3 L763.5,542.9 L764.0,499.4 L764.4,439.9 L764.8,414.7 L765.3,373.5 L765.7,346.0 L766.1,315.1 L766.5,292.3 L766.9,272.8 L767.4,254.5 L767.9,229.3 L768.3,219.0 L768.8,211.0 L769.2,205.3 L769.6,187.0 L770.1,196.1 L770.5,175.6 L770.9,173.3 L771.4,171.0 L771.8,172.1 L772.2,164.1 L772.7,174.4 L773.1,158.4 L773.5,169.8 L774.0,160.7 L774.4,165.3 L774.8,156.1 L775.3,166.4 L775.6,158.4 L776.1,160.7 L776.5,159.5 L777.0,168.7 L777.4,167.5 L777.9,160.7 L778.3,164.1 L778.8,149.2 L779.2,167.5 L779.6,166.4 L780.1,163.0 L780.5,149.2 L780.9,152.7 L781.4,159.5 L781.8,164.1 L782.2,155.0 L782.7,155.0 L783.1,160.7 L783.5,159.5 L784.0,156.1 L784.4,153.8 L784.8,151.5 L785.2,165.3 L785.6,148.1 L786.2,153.8 L786.6,167.5 L787.0,159.5 L787.5,158.4 L787.9,163.0 L788.3,153.8 L788.8,159.5 L789.2,165.3 L789.6,151.5 L790.1,157.2 L790.5,153.8 L790.9,150.4 L791.4,167.5 L791.8,152.7 L792.2,153.8 L792.7,157.2 L793.1,166.4 L793.5,158.4 L794.0,167.5 L794.4,153.8 L794.8,155.0 L795.3,161.8 L795.7,160.7 L796.2,156.1 L796.6,150.4 L797.0,167.5 L797.5,155.0 L797.9,156.1 L798.3,150.4 L798.8,151.5 L799.2,159.5 L799.6,153.8 L800.1,164.1 L800.5,156.1 L800.9,155.0 L801.4,164.1 L801.8,153.8 L802.2,151.5 L802.7,168.7 L803.1,159.5 L803.5,164.1 L804.0,149.2 L804.5,153.8 L804.9,152.7 L805.4,150.4 L805.7,163.0 L806.2,157.2 L806.6,164.1 L807.0,150.4 L807.5,161.8 L807.9,150.4 L808.3,160.7 L808.8,149.2 L809.2,163.0 L809.6,151.5 L810.1,160.7 L810.5,166.4 L810.9,158.4 L811.4,167.5 L811.8,153.8 L812.2,161.8 L812.7,157.2 L813.1,150.4 L813.6,153.8 L814.1,159.5 L814.5,164.1 L814.9,167.5 L815.3,152.7 L815.7,161.8 L816.2,167.5 L816.6,158.4 L817.0,152.7 L817.5,167.5 L817.9,151.5 L818.3,165.3 L818.8,151.5 L819.2,152.7 L819.6,159.5 L820.1,161.8 L820.5,165.3 L820.9,152.7 L821.4,165.3 L821.8,157.2 L822.2,161.8 L822.8,158.4 L823.2,156.1 L823.6,153.8 L824.0,156.1 L824.4,166.4 L824.9,157.2 L825.3,151.5 L825.7,156.1 L826.2,166.4 L826.6,165.3 L827.0,148.1 L827.5,149.2 L827.9,158.4 L828.3,151.5 L828.8,168.7 L829.2,153.8 L829.6,157.2 L830.1,164.1 L830.5,156.1 L830.9,153.8 L831.4,159.5 L831.9,161.8 L832.3,159.5 L832.8,149.2 L833.1,160.7 L833.6,156.1 L834.0,158.4 L834.4,149.2 L834.9,158.4 L835.3,156.1 L835.7,156.1 L836.2,168.7 L836.6,164.1 L837.0,153.8 L837.5,151.5 L837.9,151.5 L838.3,152.7 L838.8,151.5 L839.2,151.5 L839.6,157.2 L840.1,161.8 L840.5,163.0 L841.0,159.5 L841.5,168.7 L841.9,159.5 L842.3,158.4 L842.7,156.1 L843.1,156.1 L843.6,158.4 L844.0,159.5 L844.4,157.2 L844.9,159.5 L845.3,159.5 L845.7,152.7 L846.2,152.7 L846.6,151.5 L847.0,158.4 L847.5,156.1 L847.9,157.2 L848.3,163.0 L848.8,166.4 L849.2,163.0 L849.6,151.5 L850.2,157.2 L850.6,167.5 L851.0,146.9 L851.5,164.1 L851.9,156.1 L852.3,148.1 L852.8,159.5 L853.2,161.8 L853.6,157.2 L854.0,161.8 L854.4,161.8 L854.9,165.3 L855.3,152.7 L855.7,153.8 L856.2,151.5 L856.6,160.7 L857.0,149.2 L857.5,158.4 L857.9,160.7 L858.3,155.0 L858.8,151.5 L859.3,159.5 L859.7,153.8 L860.2,161.8 L860.6,165.3 L861.0,157.2 L861.5,156.1 L861.9,160.7 L862.3,148.1 L862.7,158.4 L863.1,164.1 L863.6,159.5 L864.0,156.1 L864.4,158.4 L864.9,152.7 L865.3,150.4 L865.7,159.5 L866.2,152.7 L866.6,161.8 L867.0,164.1 L867.5,161.8 L867.9,152.7 L868.5,161.8 L868.9,150.4 L869.3,168.7 L869.7,153.8 L870.2,165.3 L870.6,153.8 L871.0,164.1 L871.5,155.0 L871.9,160.7 L872.3,157.2 L872.7,150.4 L873.1,158.4 L873.6,153.8 L874.0,165.3 L874.4,166.4 L874.9,157.2 L875.3,167.5 L875.7,166.4 L876.2,151.5 L876.6,152.7 L877.0,163.0 L877.6,163.0 L878.0,158.4 L878.4,156.1 L878.9,150.4 L879.3,166.4 L879.7,161.8 L880.2,165.3 L880.6,160.7 L881.1,163.0 L881.4,160.7 L881.8,151.5 L882.3,150.4 L882.7,166.4 L883.1,157.2 L883.6,156.1 L884.0,158.4 L884.4,153.8 L884.9,156.1 L885.3,155.0 L885.7,161.8 L886.2,161.8 L886.7,164.1 L887.1,149.2 L887.6,157.2 L888.0,153.8 L888.4,157.2 L888.9,152.7 L889.3,155.0 L889.8,152.7 L890.2,167.5 L890.6,158.4 L891.0,164.1 L891.4,159.5 L891.8,150.4 L892.3,165.3 L892.7,151.5 L893.1,163.0 L893.6,151.5 L894.0,151.5 L894.4,160.7 L894.9,156.1 L895.3,150.4 L896.2,157.2 L896.6,159.5 L897.1,161.8 L897.5,166.4 L897.9,149.2 L898.4,167.5 L898.8,149.2 L899.2,167.5 L899.7,161.8 L900.1,149.2 L900.5,160.7 L901.0,150.4 L901.4,151.5 L901.8,156.1 L902.3,153.8 L902.7,165.3 L903.1,152.7 L903.5,153.8 L903.9,150.4 L904.4,160.7 L904.8,163.0 L905.8,148.1 L906.2,165.3 L906.6,163.0 L907.1,163.0 L907.5,149.2 L907.9,166.4 L908.4,152.7 L908.8,152.7 L909.2,160.7 L909.7,157.2 L910.1,166.4 L910.5,161.8 L910.9,148.1 L911.3,156.1 L911.8,165.3 L912.2,149.2 L912.6,163.0 L913.1,160.7 L913.5,155.0 L913.9,164.1 L914.4,156.1 L915.4,160.7 L915.8,168.7 L916.2,148.1 L916.6,160.7 L917.1,152.7 L917.5,165.3 L917.9,152.7 L918.4,155.0 L918.8,159.5 L919.2,151.5 L919.7,161.8 L920.1,167.5 L920.5,151.5 L920.9,167.5 L921.3,148.1 L921.8,160.7 L922.2,151.5 L922.6,164.1 L923.1,159.5 L923.5,151.5 L923.9,159.5 L925.0,157.2 L925.3,150.4 L925.8,152.7 L926.2,163.0 L926.6,150.4 L927.1,160.7 L927.5,167.5 L927.9,165.3 L928.4,150.4 L928.8,152.7 L929.2,160.7 L929.6,151.5 L930.0,167.5 L930.5,163.0 L930.9,167.5 L931.3,148.1 L931.8,166.4 L932.2,167.5 L932.6,160.7 L933.1,156.1 L933.5,157.2 L934.5,159.5 L934.9,152.7 L935.3,160.7 L935.8,158.4 L936.2,161.8 L936.6,166.4 L937.1,166.4 L937.5,146.9 L937.9,155.0 L938.3,165.3 L938.7,163.0 L939.2,155.0 L939.6,156.1 L940.0,157.2 L940.5,152.7 L940.9,158.4 L941.3,149.2 L941.8,149.2 L942.2,159.5 L942.6,152.7 L943.1,166.4 L944.1,159.5 L944.5,164.1 L944.9,156.1 L945.3,157.2 L945.8,157.2 L946.2,163.0 L946.6,160.7 L947.1,161.8 L947.5,157.2 L947.9,157.2 L948.4,148.1 L948.8,158.4 L949.2,153.8 L949.6,167.5 L950.0,150.4 L950.5,159.5 L950.9,160.7 L951.3,149.2 L951.8,163.0 L952.2,151.5 L952.6,165.3 L953.7,150.4 L954.0,155.0 L954.5,151.5 L954.9,164.1 L955.3,163.0 L955.8,161.8 L956.2,156.1 L956.6,148.1 L957.1,164.1 L957.5,152.7 L957.9,156.1 L958.3,149.2 L958.7,167.5 L959.2,153.8 L959.6,163.0 L960.0,160.7 L960.5,157.2 L960.9,166.4 L961.3,167.5 L961.8,159.5 L962.2,164.1 L963.2,152.7 L963.6,163.0 L964.0,165.3 L964.5,159.5 L964.9,165.3 L965.3,159.5 L965.8,165.3 L966.2,163.0 L966.6,158.4 L967.1,203.0 L967.5,235.1 L967.9,264.8 L968.3,302.6 L968.7,324.3 L969.2,354.1 L969.6,375.8 L970.0,399.8 L970.5,412.4 L970.9,436.4 L971.3,442.2 L971.8,459.3 L972.8,482.2 L973.2,494.8 L973.6,500.5 L974.0,501.7 L974.5,514.2 L974.9,517.7 L975.3,510.8 L975.8,524.5 L976.2,512.0 L976.7,516.5 L977.1,517.7 L977.5,525.7 L978.0,534.8 L978.3,530.3 L978.7,538.3 L979.2,525.7 L979.6,538.3 L980.0,528.0 L980.5,540.6 L980.9,532.6 L981.3,528.0 L982.4,533.7 L982.8,526.8 L983.3,528.0 L983.7,528.0 L984.1,532.6 L984.6,538.3 L985.0,541.7 L985.4,532.6 L985.9,517.7 L986.3,532.6 L986.7,521.1 L987.2,537.1 L987.6,523.4 L988.0,528.0 L988.4,529.1 L988.8,534.8 L989.2,524.5 L989.6,528.0 L990.0,531.4 L990.5,536.0 L990.9,525.7 L991.9,523.4 L992.4,541.7 L992.8,523.4 L993.3,534.8 L993.7,510.8 L994.1,518.8 L994.6,510.8 L995.0,517.7 L995.4,520.0 L995.9,515.4 L996.3,523.4 L996.7,518.8 L997.2,526.8 L997.6,513.1 L998.1,528.0 L998.4,526.8 L998.8,521.1 L999.3,508.5 L999.7,512.0 L1000.1,514.2 L1000.6,486.8 L1001.5,473.1 L1001.9,476.5 L1002.3,473.1 L1002.7,468.5 L1003.2,471.9 L1003.6,490.2 L1004.1,471.9 L1004.5,482.2 L1004.9,491.4 L1005.4,505.1 L1005.8,500.5 L1006.2,506.2 L1006.7,502.8 L1007.0,505.1 L1007.4,505.1 L1007.9,514.2 L1008.3,510.8 L1008.7,506.2 L1009.2,513.1 L1009.6,508.5 L1010.1,501.7 L1011.1,501.7 L1011.5,522.3 L1012.0,501.7 L1012.4,494.8 L1012.8,500.5 L1013.3,491.4 L1013.7,505.1 L1014.1,495.9 L1014.6,504.0 L1015.0,504.0 L1015.4,515.4 L1015.9,513.1 L1016.3,522.3 L1016.8,529.1 L1017.2,525.7 L1017.6,522.3 L1018.1,523.4 L1018.4,515.4 L1018.8,526.8 L1019.3,518.8 L1019.7,517.7 L1020.6,534.8 L1021.0,526.8 L1021.4,520.0 L1021.9,523.4 L1022.3,534.8 L1022.8,531.4 L1023.2,526.8 L1023.6,537.1 L1024.1,525.7 L1024.5,532.6 L1024.9,528.0 L1025.4,542.9 L1025.8,531.4 L1026.2,523.4 L1026.6,537.1 L1027.0,525.7 L1027.5,541.7 L1027.9,536.0 L1028.3,530.3 L1028.8,524.5 L1029.2,544.0 L1030.2,529.1 L1030.7,533.7 L1031.1,533.7 L1031.5,525.7 L1032.0,532.6 L1032.4,524.5 L1032.8,530.3 L1033.3,542.9 L1033.7,523.4 L1034.2,524.5 L1034.6,526.8 L1035.0,536.0 L1035.5,523.4 L1035.9,541.7 L1036.3,530.3 L1036.7,531.4 L1037.1,524.5 L1037.5,530.3 L1038.0,529.1 L1038.4,533.7 L1038.8,539.4 L1039.8,534.8 L1040.2,522.3 L1040.6,532.6 L1041.0,525.7 L1041.5,536.0 L1041.9,541.7 L1042.3,538.3 L1042.8,540.6 L1043.2,530.3 L1043.6,492.5 L1044.1,458.2 L1044.5,413.6 L1044.9,388.4 L1045.3,367.8 L1045.7,335.7 L1046.2,318.6 L1046.6,291.1 L1047.0,272.8 L1047.5,260.2 L1047.9,243.1 L1048.3,220.2 L1049.4,206.4 L1049.8,190.4 L1050.2,172.1 L1050.7,180.1 L1051.1,164.1 L1051.5,157.2 L1052.0,141.2 L1052.4,135.5 L1052.9,138.9 L1053.3,143.5 L1053.7,135.5 L1054.2,135.5 L1054.6,117.2 L1055.0,112.6 L1055.5,113.8 L1055.8,103.5 L1056.2,114.9 L1056.7,97.7 L1057.1,98.9 L1057.6,109.2 L1058.0,93.2 L1058.9,88.6 L1059.3,104.6 L1059.7,94.3 L1060.2,104.6 L1060.6,87.4 L1061.0,92.0 L1061.5,80.6 L1061.9,82.9 L1062.3,103.5 L1062.8,87.4 L1063.2,78.3 L1063.6,85.2 L1064.0,98.9 L1064.4,87.4 L1064.9,77.1 L1065.3,92.0 L1065.7,90.9 L1066.2,85.2 L1066.6,93.2 L1067.0,79.4 L1067.5,79.4 L1068.5,84.0 L1068.9,76.0 L1069.4,95.5 L1069.8,96.6 L1070.3,84.0 L1070.7,79.4 L1071.1,77.1 L1071.6,100.0 L1072.0,87.4 L1073.2,140.1 L1073.6,174.4 L1074.1,182.4 L1074.5,190.4 L1074.9,214.5 L1075.4,220.2 L1075.8,235.1 L1076.3,252.2 L1076.7,259.1 L1077.1,267.1 L1077.9,283.1 L1078.3,283.1 L1078.8,288.8 L1079.2,295.7 L1079.6,301.4 L1080.1,302.6 L1080.5,307.1 L1080.9,310.6 L1081.4,314.0 L1081.8,317.4 L1082.3,322.0 L1082.7,320.9 L1083.1,325.4 L1083.6,325.4 L1084.0,328.9" fill="none" stroke="#ff7f0e" stroke-width="1.1" opacity="0.85"/><text x="616" y="572" font-size="11" fill="#888">time 0..54 s — altitude (blue) &amp; roll (orange)</text></svg>