<svg xmlns="http://www.w3.org/2000/svg" width="1140" height="600" font-family="sans-serif" font-size="13"><rect width="1140" height="600" fill="white"/><text x="20" y="26" font-size="15" fill="#333">Coludo flight</text><rect x="20" y="40" width="540" height="540" fill="#fbfbfb" stroke="#ddd"/><rect x="50" y="304" width="317" height="68" fill="#cde" stroke="#369" opacity="0.7"/><text x="50" y="299" fill="#369" font-size="12">landing zone</text><circle cx="250" cy="410" r="5" fill="black"/><text x="258" y="414" font-size="12">pad</text><path d="M251.0,410.0 L251.0,410.0 L251.0,410.0 L251.0,410.0 L251.0,410.0 L251.0,410.0 L251.0,410.0 L251.0,410.0 L251.0,410.0 L251.0,410.0 L251.0,410.0 L251.0,410.0 L251.0,410.0 L251.0,410.0 L251.0,410.0 L251.0,410.0 L251.0,410.0 L251.0,410.0 L251.0,410.0 L251.0,410.0 L251.0,410.0 L251.0,410.0 L251.0,410.0 L251.0,410.0 L251.0,410.0 L251.0,410.0 L251.0,410.0 L251.0,410.0 L251.0,410.0 L251.0,410.0 L251.0,410.0 L251.0,410.0 L251.0,410.0 L251.0,410.0 L251.0,410.0 L251.0,410.0 L251.0,410.0 L251.0,410.0 L251.0,410.0 L251.0,410.0 L251.0,410.0 L251.0,410.0 L251.0,410.0 L251.0,410.0 L251.0,410.0 L251.0,410.0 L251.0,410.0 L251.0,410.0 L251.0,410.0 L251.0,410.0 L251.0,410.0 L251.0,410.0 L251.0,410.0 L251.0,410.0 L251.0,410.0 L251.0,410.0 L251.0,410.0 L251.0,410.0 L251.0,410.0 L251.0,410.0 L251.0,410.0 L251.0,410.0 L251.0,410.0 L251.0,410.0 L251.0,410.0 L251.0,410.0 L251.0,410.0 L251.0,410.0 L251.0,410.0 L251.0,410.0 L251.0,410.0 L251.0,410.0 L251.0,410.0 L252.1,408.1 L252.7,405.8 L254.5,403.2 L257.5,400.6 L257.9,397.5 L261.3,394.9 L263.0,392.6 L264.7,390.4 L266.4,387.7 L268.4,385.1 L271.5,382.8 L273.2,381.0 L274.9,378.7 L278.3,376.8 L280.0,374.9 L283.4,372.7 L285.1,370.8 L288.5,369.3 L291.5,367.4 L293.6,365.5 L295.6,363.6 L298.7,361.7 L301.1,359.9 L303.8,357.2 L305.5,355.3 L307.2,353.1 L310.6,350.8 L313.3,348.2 L314.0,345.9 L315.7,343.3 L318.7,340.6 L319.1,338.0 L320.8,335.3 L322.8,332.3 L324.2,329.7 L325.9,327.1 L327.6,324.0 L328.3,321.0 L329.3,317.6 L329.3,315.0 L331.0,312.0 L332.7,308.6 L332.7,305.9 L333.7,302.6 L333.7,299.2 L334.4,296.5 L334.4,293.1 L334.4,290.1 L336.1,287.1 L336.1,284.5 L337.8,281.4 L339.5,278.1 L339.5,275.4 L339.8,272.4 L341.2,269.0 L342.9,266.4 L344.6,263.7 L346.0,261.1 L348.0,258.5 L349.7,255.8 L350.0,253.2 L353.1,250.2 L354.8,247.5 L355.5,245.3 L358.2,243.0 L359.9,241.1 L363.0,238.5 L365.0,236.6 L367.1,234.7 L370.1,232.4 L373.9,230.2 L373.5,228.7 L376.9,226.8 L378.6,224.9 L382.0,223.4 L383.7,222.3 L388.8,220.4 L390.5,218.9 L393.9,217.7 L395.6,216.6 L399.7,215.5 L402.4,214.4 L404.5,214.0 L407.5,212.8 L410.9,212.1 L414.3,211.7 L416.7,211.0 L421.1,210.6 L424.5,210.2 L427.6,210.2 L429.6,209.8 L433.7,209.8 L436.4,210.2 L439.9,210.2 L443.3,210.6 L445.0,211.0 L449.4,211.7 L451.8,212.1 L454.8,212.8 L456.9,213.6 L460.3,214.4 L463.7,215.1 L465.0,216.6 L470.5,217.7 L472.2,218.9 L475.6,220.0 L477.3,221.5 L480.7,223.0 L482.4,224.5 L485.8,226.4 L487.5,228.3 L490.9,229.8 L492.9,231.7 L496.0,234.0 L499.0,236.2 L499.4,238.1 L502.8,240.4 L504.5,242.6 L506.2,244.9 L509.9,247.9 L511.3,251.3 L513.0,253.9 L514.7,256.9 L516.4,259.6 L518.1,261.8 L519.8,265.2 L520.1,268.3 L521.5,270.9 L523.2,273.5 L524.9,276.2 L525.6,279.2 L525.6,282.6 L526.6,285.6 L528.3,289.0 L528.3,291.6 L528.3,294.6 L530.0,297.3 L530.0,300.3 L530.0,303.7 L530.0,307.5 L530.0,310.1 L530.0,313.5 L530.0,316.5 L530.0,319.5 L528.3,322.5 L528.3,325.5 L528.3,328.9 L526.6,331.6 L525.6,335.0 L525.6,337.6 L524.9,339.5 L523.2,342.9 L521.5,347.0 L520.1,350.4 L519.8,353.4 L518.1,356.1 L516.4,358.7 L514.7,361.7 L513.0,364.4 L511.3,366.6 L509.9,369.7 L506.2,372.3 L504.5,374.6 L502.8,376.8 L499.4,379.1 L499.0,381.7 L496.0,383.6 L492.9,385.5 L490.9,387.7 L487.5,389.6 L485.8,391.9 L482.4,393.0 L480.7,394.9 L477.3,396.4 L473.9,398.3 L471.8,399.4 L468.8,400.6 L465.4,402.1 L462.0,403.2 L460.3,404.0 L455.2,405.1 L453.5,405.8 L450.1,406.6 L446.7,407.3 L443.3,407.7 L439.9,408.1 L438.2,408.1 L433.0,408.5 L431.3,408.5 L427.6,408.5 L422.8,408.1 L421.1,408.1 L416.7,408.1 L414.3,407.7 L410.9,407.0 L407.5,406.2 L404.5,405.5 L402.4,404.7 L399.0,403.6 L395.6,402.4 L392.2,401.3 L389.5,400.2 L387.1,398.7 L382.7,397.2 L380.3,395.3 L377.3,393.8 L375.2,392.3 L373.9,390.4 L370.1,388.5 L367.1,386.6 L365.0,385.1 L363.0,382.8 L359.9,381.0 L356.5,378.7 L354.8,376.8 L351.4,374.9 L349.7,372.7 L346.3,370.4 L342.9,367.0 L339.8,364.4 L337.8,362.1 L334.4,360.2 L332.7,358.3 L329.3,355.3 L327.6,353.4 L325.9,351.6 L322.8,348.9" fill="none" stroke="#1f77b4" stroke-width="1.7" opacity="0.85"/><circle cx="323" cy="349" r="4.5" fill="#1f77b4"/><text x="28" y="572" font-size="11" fill="#888">ground track — m from pad (N up)</text><rect x="580" y="40" width="540" height="540" fill="#fbfbfb" stroke="#ddd"/><text x="586" y="54" fill="#1f77b4" font-size="11">alt 247</text><text x="586" y="558" fill="#1f77b4" font-size="11">-53</text><path d="M616.5,458.5 L617.0,458.4 L617.5,458.3 L618.1,458.0 L618.6,457.7 L619.1,457.5 L619.7,457.0 L620.2,456.6 L620.7,456.1 L621.2,455.6 L621.8,455.1 L622.3,454.2 L622.8,453.6 L623.3,452.9 L623.8,452.2 L624.3,451.0 L624.9,450.2 L625.4,449.3 L625.9,448.3 L626.4,446.9 L626.9,445.8 L627.4,444.7 L627.9,443.7 L628.5,442.5 L629.0,440.6 L629.5,439.3 L630.0,438.0 L630.6,436.6 L631.1,434.5 L631.6,433.0 L632.1,431.5 L632.6,429.9 L633.1,427.5 L633.7,425.9 L634.2,424.1 L634.7,422.4 L635.2,420.6 L635.7,417.8 L636.2,415.9 L636.7,414.0 L637.3,412.0 L637.8,409.0 L638.3,406.7 L638.8,404.7 L639.4,402.3 L639.9,399.2 L640.4,397.0 L640.9,394.6 L641.4,392.3 L641.9,388.6 L642.5,386.0 L643.0,383.8 L643.5,381.0 L644.0,377.1 L644.6,374.4 L645.1,372.1 L645.6,369.3 L646.1,365.2 L646.6,361.9 L647.1,359.5 L647.7,356.4 L648.2,351.8 L648.7,348.9 L649.2,345.8 L649.8,342.9 L650.3,338.4 L650.8,335.2 L651.3,332.1 L651.9,328.8 L652.4,323.7 L652.9,320.6 L653.4,317.2 L653.9,313.4 L654.5,308.3 L655.0,305.1 L655.5,301.8 L656.0,297.8 L656.5,292.5 L657.1,289.3 L657.6,285.1 L658.1,282.5 L658.6,278.6 L659.1,274.0 L659.6,270.3 L660.1,267.3 L660.7,264.0 L661.2,259.1 L661.7,255.8 L662.2,252.6 L662.8,248.2 L663.3,244.8 L663.8,241.7 L664.4,238.3 L664.9,234.6 L665.4,231.3 L665.9,227.9 L666.5,225.4 L667.0,221.7 L667.5,218.5 L668.0,216.0 L668.5,212.2 L669.0,209.0 L669.6,206.0 L670.1,203.6 L670.6,200.5 L671.1,197.1 L671.7,195.0 L672.2,192.3 L672.7,189.2 L673.2,185.5 L673.7,183.7 L674.2,180.5 L674.8,179.1 L675.3,175.4 L675.8,172.6 L676.3,170.8 L676.9,168.2 L677.4,165.1 L677.9,162.9 L678.4,160.5 L678.9,158.4 L679.5,156.2 L680.0,153.1 L680.5,152.4 L681.0,149.6 L681.5,147.1 L682.1,145.1 L682.6,143.7 L683.1,141.7 L683.6,138.3 L684.2,137.2 L684.7,135.0 L685.2,132.7 L685.7,131.2 L686.3,129.3 L686.8,127.8 L687.3,124.9 L687.9,123.6 L688.4,121.7 L688.9,120.4 L689.4,118.7 L689.9,117.0 L690.5,116.0 L691.0,114.2 L691.5,112.6 L692.0,110.6 L692.5,109.1 L693.1,108.2 L693.6,107.0 L694.1,105.1 L694.6,103.9 L695.1,102.2 L695.6,101.8 L696.1,100.4 L696.7,99.9 L697.2,97.9 L697.7,97.0 L698.2,95.9 L698.8,94.3 L699.3,92.8 L699.8,92.0 L700.4,91.6 L700.9,91.2 L701.4,89.2 L701.9,88.3 L702.5,87.6 L703.0,86.4 L703.5,85.7 L704.1,85.6 L704.6,85.0 L705.1,84.6 L705.6,83.9 L706.2,82.2 L706.7,81.7 L707.2,82.2 L707.7,81.9 L708.2,79.9 L708.7,80.7 L709.2,79.4 L709.9,79.2 L710.4,79.6 L710.9,78.3 L711.5,78.8 L712.0,78.7 L712.5,77.6 L713.0,76.4 L713.6,77.1 L714.1,76.9 L714.6,76.5 L715.1,77.3 L715.6,77.4 L716.1,76.8 L716.6,77.4 L717.2,77.2 L717.7,76.0 L718.2,76.9 L718.7,77.4 L719.2,77.0 L719.7,77.4 L720.2,76.8 L720.7,78.1 L721.2,77.2 L721.8,78.4 L722.4,78.1 L722.9,79.9 L723.4,80.1 L723.9,80.4 L724.5,80.6 L725.0,80.2 L725.4,81.1 L726.0,81.9 L726.5,82.5 L727.0,82.9 L727.5,84.5 L728.0,84.9 L728.5,85.7 L729.0,84.9 L729.5,86.5 L730.1,85.7 L730.6,86.4 L731.1,86.0 L731.6,86.3 L732.1,86.7 L732.6,87.0 L733.1,86.1 L733.7,86.8 L734.2,87.4 L734.7,86.1 L735.2,86.2 L735.7,86.4 L736.2,87.6 L736.8,87.7 L737.3,87.2 L737.8,86.7 L738.3,86.9 L738.9,88.2 L739.4,87.2 L739.9,88.0 L740.4,88.6 L740.9,88.2 L741.5,87.5 L742.0,88.1 L742.5,88.9 L743.0,89.1 L743.6,88.4 L744.1,89.1 L744.6,88.9 L745.1,88.7 L745.7,89.1 L746.2,89.0 L746.7,90.5 L747.3,91.1 L747.8,91.0 L748.3,90.9 L748.8,91.7 L749.3,91.9 L749.8,91.4 L750.3,91.9 L750.9,91.7 L751.4,92.6 L751.9,92.2 L752.4,92.9 L752.9,92.3 L753.4,92.3 L753.9,93.0 L754.4,93.2 L754.9,93.6 L755.4,94.3 L755.9,93.9 L756.4,94.6 L757.0,94.9 L757.5,93.8 L758.0,95.3 L758.5,94.3 L759.1,94.6 L759.6,95.5 L760.1,96.2 L760.6,96.4 L761.2,96.5 L761.7,96.3 L762.2,96.6 L762.7,97.7 L763.2,97.9 L763.7,97.2 L764.3,97.4 L764.8,98.9 L765.3,99.0 L765.8,99.2 L766.4,98.1 L766.9,99.9 L767.4,99.5 L767.9,100.6 L768.4,100.4 L769.0,101.1 L769.5,99.9 L770.0,101.7 L770.5,102.1 L771.0,101.3 L771.6,101.6 L772.1,102.1 L772.6,103.2 L773.1,102.1 L773.7,103.1 L774.2,102.7 L774.7,104.6 L775.2,103.3 L775.8,103.8 L776.3,104.2 L776.8,105.9 L777.3,105.6 L777.8,105.1 L778.3,105.9 L778.9,106.7 L779.4,106.2 L779.8,107.4 L780.4,108.4 L780.9,107.8 L781.4,109.2 L781.9,108.7 L782.5,109.8 L782.9,109.0 L783.5,109.8 L784.0,109.9 L784.5,111.1 L785.0,110.7 L785.6,111.0 L786.1,112.4 L786.6,111.5 L787.1,112.6 L787.7,113.8 L788.2,113.8 L788.7,112.9 L789.2,114.9 L789.8,114.8 L790.3,115.3 L790.8,114.5 L791.3,115.8 L791.8,115.6 L792.3,116.0 L793.4,117.1 L793.9,118.0 L794.4,119.1 L794.9,118.9 L795.4,119.2 L795.9,119.6 L796.5,119.4 L797.0,119.9 L797.5,121.5 L798.0,121.5 L798.5,121.3 L799.0,121.8 L799.5,122.1 L800.1,123.2 L800.6,124.5 L801.1,123.7 L801.6,124.2 L802.1,124.4 L802.6,124.9 L803.1,126.4 L803.6,126.8 L804.2,127.4 L804.7,128.0 L805.6,128.2 L806.1,128.1 L806.6,129.3 L807.1,128.8 L807.6,130.8 L808.1,130.8 L808.6,131.3 L809.1,131.8 L809.7,131.4 L810.2,132.1 L810.7,133.2 L811.2,134.2 L811.8,133.2 L812.3,135.0 L812.8,134.2 L813.4,134.7 L813.9,136.1 L814.4,136.6 L814.9,137.8 L815.4,137.1 L815.9,138.5 L816.4,138.7 L817.0,138.3 L817.7,140.3 L818.2,140.4 L818.7,140.9 L819.3,140.8 L819.8,141.5 L820.3,143.0 L820.8,142.3 L821.4,143.5 L821.9,144.7 L822.4,144.0 L822.9,145.2 L823.4,146.0 L824.0,146.6 L824.5,147.1 L825.0,147.1 L825.5,146.9 L826.0,148.8 L826.6,148.1 L827.1,149.4 L827.6,150.2 L828.1,150.7 L828.6,150.9 L829.1,151.8 L829.9,151.9 L830.4,153.2 L830.9,153.3 L831.4,153.4 L831.9,153.8 L832.5,154.9 L833.0,156.1 L833.5,156.6 L834.0,156.2 L834.5,157.7 L835.0,157.7 L835.5,158.2 L836.1,159.1 L836.6,159.9 L837.1,160.0 L837.6,160.1 L838.1,161.4 L838.6,162.2 L839.1,162.0 L839.7,163.0 L840.2,163.9 L840.7,164.1 L841.2,165.3 L842.0,165.5 L842.6,166.8 L843.1,167.6 L843.6,168.2 L844.1,168.9 L844.6,168.9 L845.1,169.0 L845.7,169.6 L846.2,171.0 L846.7,171.0 L847.2,172.1 L847.8,173.0 L848.3,174.1 L848.8,174.0 L849.3,175.2 L849.8,174.6 L850.4,176.2 L850.9,176.3 L851.4,176.6 L851.9,178.3 L852.4,178.9 L853.0,178.7 L853.5,179.2 L854.2,180.9 L854.8,180.9 L855.3,182.1 L855.8,182.3 L856.3,183.0 L856.8,184.4 L857.4,184.6 L857.9,184.7 L858.4,185.6 L858.9,186.8 L859.5,187.4 L860.0,187.4 L860.5,188.1 L861.0,189.9 L861.5,189.8 L862.0,190.6 L862.6,191.3 L863.1,192.1 L863.6,192.8 L864.1,193.2 L864.7,193.2 L865.2,194.6 L865.7,195.6 L866.5,196.1 L867.0,196.6 L867.6,197.8 L868.1,198.8 L868.6,198.5 L869.1,200.1 L869.6,200.7 L870.1,200.7 L870.7,201.8 L871.2,202.2 L871.7,203.6 L872.2,204.3 L872.8,204.8 L873.3,205.5 L873.8,206.0 L874.3,206.7 L874.8,207.5 L875.3,208.3 L875.8,209.2 L876.4,208.9 L876.9,210.1 L877.4,210.1 L877.9,211.4 L878.6,211.9 L879.1,212.6 L879.6,214.0 L880.2,214.2 L880.7,215.3 L881.2,216.0 L881.7,216.0 L882.2,217.8 L882.7,218.0 L883.2,218.5 L883.8,219.2 L884.3,219.8 L884.9,221.5 L885.4,222.0 L885.9,222.9 L886.4,222.7 L886.9,224.5 L887.5,224.5 L888.0,225.6 L888.5,225.5 L889.0,227.4 L889.6,227.4 L890.1,228.0 L890.8,229.3 L891.3,229.9 L891.8,230.8 L892.3,231.4 L892.8,232.5 L893.4,233.2 L893.9,233.9 L894.4,234.4 L894.9,235.4 L895.4,236.4 L895.9,237.0 L896.4,237.1 L897.0,237.7 L897.5,238.8 L898.0,240.0 L898.5,239.6 L899.0,241.4 L899.5,242.3 L900.0,242.0 L900.6,242.8 L901.1,244.4 L901.6,244.7 L902.1,245.7 L903.0,246.4 L903.5,247.4 L904.0,248.5 L904.5,249.0 L905.0,250.4 L905.6,250.9 L906.1,250.9 L906.6,252.8 L907.2,252.5 L907.7,254.2 L908.2,254.3 L908.7,255.1 L909.2,256.3 L909.7,256.8 L910.3,257.4 L910.9,259.0 L911.4,258.7 L911.9,259.4 L912.4,260.8 L912.9,261.8 L913.5,262.0 L914.0,263.2 L915.1,265.0 L915.6,265.3 L916.1,266.8 L916.7,266.8 L917.2,267.4 L917.7,269.2 L918.3,270.0 L918.8,270.5 L919.3,270.9 L919.8,272.3 L920.4,272.5 L920.9,273.1 L921.4,273.9 L921.9,274.9 L922.4,276.3 L922.9,277.0 L923.5,277.1 L924.0,278.4 L924.5,279.2 L925.0,280.1 L925.6,280.1 L926.1,281.5 L926.6,282.1 L927.3,283.6 L927.8,283.9 L928.3,284.6 L928.9,285.6 L929.4,286.4 L929.9,287.8 L930.4,287.8 L930.9,289.1 L931.5,289.6 L932.0,290.7 L932.5,291.4 L933.0,292.2 L933.6,293.0 L934.1,293.5 L934.6,294.9 L935.1,296.0 L935.6,296.4 L936.1,297.4 L936.7,298.2 L937.2,299.0 L937.7,299.6 L938.2,300.1 L938.8,301.2 L939.5,301.9 L940.0,303.4 L940.5,303.8 L941.1,304.7 L941.6,306.1 L942.1,306.9 L942.6,307.0 L943.1,308.2 L943.6,308.8 L944.1,310.1 L944.7,310.6 L945.2,311.5 L945.7,312.0 L946.2,313.5 L946.7,314.1 L947.2,315.0 L947.7,315.4 L948.3,316.3 L948.8,317.4 L949.3,318.4 L949.8,318.9 L950.3,319.7 L950.8,320.6 L951.6,321.5 L952.2,322.3 L952.7,323.7 L953.2,324.4 L953.7,325.0 L954.3,326.0 L954.8,326.7 L955.3,327.7 L955.8,328.5 L956.3,329.5 L956.8,330.2 L957.3,331.1 L957.9,332.2 L958.4,333.0 L958.9,333.6 L959.4,333.9 L959.9,335.5 L960.5,336.0 L961.0,337.1 L961.5,337.9 L962.0,338.6 L962.5,339.5 L963.1,340.5 L964.3,342.4 L964.9,343.1 L965.4,344.3 L966.0,345.4 L966.6,346.1 L967.1,347.2 L967.6,348.2 L968.1,348.6 L968.6,349.4 L969.2,350.6 L969.7,351.5 L970.2,352.0 L970.7,353.1 L971.2,354.3 L971.8,354.7 L972.3,355.6 L972.8,356.2 L973.3,357.2 L973.8,358.5 L974.3,359.1 L974.8,359.8 L975.4,360.3 L975.9,361.7 L977.1,363.5 L977.6,364.6 L978.1,365.2 L978.6,366.3 L979.2,367.2 L979.7,368.1 L980.2,368.6 L980.7,370.0 L981.3,370.4 L981.8,371.4 L982.3,372.4 L982.8,373.2 L983.3,374.1 L983.8,375.0 L984.4,375.5 L984.9,376.7 L985.4,377.7 L985.9,378.6 L986.5,379.4 L987.0,380.3 L987.5,381.1 L988.0,382.0 L988.6,382.8 L989.7,384.8 L990.2,386.0 L990.8,386.5 L991.3,387.5 L991.8,388.3 L992.3,389.3 L992.8,390.0 L993.3,390.8 L993.8,391.8 L994.3,392.6 L994.8,393.5 L995.4,394.4 L996.0,395.3 L996.5,396.3 L997.0,397.3 L997.5,398.2 L998.0,398.6 L998.5,399.5 L999.0,400.9 L999.6,401.7 L1000.1,402.3 L1000.6,403.2 L1001.1,403.9 L1002.4,406.3 L1002.9,407.0 L1003.4,408.4 L1004.0,409.1 L1004.5,410.0 L1005.0,410.6 L1005.5,411.9 L1006.0,412.7 L1006.5,413.4 L1007.0,414.3 L1007.5,415.0 L1008.0,416.2 L1008.6,417.1 L1009.1,417.8 L1009.6,418.7 L1010.1,419.4 L1010.6,420.5 L1011.1,421.4 L1011.6,422.2 L1012.2,423.0 L1012.7,424.2 L1013.2,425.0 L1013.7,425.8 L1015.1,428.3 L1015.6,429.1 L1016.1,429.9 L1016.6,431.1 L1017.2,431.8 L1017.7,432.5 L1018.2,433.4 L1018.7,434.5 L1019.2,435.4 L1019.7,436.2 L1020.3,437.0 L1020.8,438.2 L1021.4,439.0 L1021.9,439.8 L1022.4,441.0 L1022.9,441.9 L1023.4,442.6 L1024.0,443.4 L1024.5,444.7 L1025.0,445.5 L1025.5,446.3 L1026.1,447.5 L1027.8,450.3 L1028.3,451.1 L1028.8,451.9 L1029.3,452.8 L1029.8,454.0 L1030.3,454.8 L1030.8,455.6 L1031.3,456.4 L1031.9,457.6 L1032.4,458.4 L1032.9,459.2 L1033.5,460.0 L1034.0,461.2 L1034.5,462.1 L1035.0,462.9 L1035.6,463.7 L1036.1,464.9 L1036.6,465.7 L1037.1,466.5 L1037.6,467.3 L1038.2,468.5 L1038.7,469.3 L1039.2,470.1 L1040.4,472.1 L1041.0,473.3 L1041.5,474.1 L1042.0,474.9 L1042.6,476.1 L1043.1,476.9 L1043.6,477.7 L1044.1,478.5 L1044.6,479.7 L1045.2,480.4 L1045.7,481.3 L1046.2,482.0 L1046.7,483.3 L1047.3,484.0 L1047.8,484.8 L1048.3,485.6 L1048.8,486.8 L1049.3,487.5 L1049.8,488.3 L1050.4,489.1 L1050.9,490.3 L1051.4,491.1 L1051.9,492.0 L1053.2,493.8 L1053.7,495.0 L1054.2,495.8 L1054.7,496.5 L1055.3,497.7 L1055.8,498.5 L1056.3,499.3 L1056.9,500.2 L1057.4,501.1 L1057.9,502.0 L1058.4,502.8 L1058.9,503.5 L1059.5,504.7 L1060.0,505.4 L1060.6,506.2 L1061.1,507.3 L1061.6,508.2 L1062.1,508.8 L1062.6,509.8 L1063.1,510.4 L1063.6,511.5 L1064.2,512.2 L1065.8,515.0 L1066.3,515.8 L1066.8,516.6 L1067.3,517.6 L1067.9,518.4 L1068.4,519.3 L1070.2,522.2 L1070.8,522.8 L1071.3,523.9 L1071.8,524.8 L1072.3,525.5 L1072.8,526.2 L1073.3,527.3 L1073.9,528.0 L1074.5,529.1 L1075.0,530.1 L1075.5,530.7 L1076.0,531.6 L1076.5,532.1 L1077.1,533.2 L1078.3,535.1 L1078.8,535.7 L1079.3,536.6 L1079.8,537.5 L1080.4,538.5 L1080.9,539.2 L1081.4,539.7 L1081.9,540.9 L1082.5,541.4 L1083.0,542.1 L1083.5,542.8 L1084.0,544.0" fill="none" stroke="#1f77b4" stroke-width="1.4" opacity="0.85"/><text x="1040" y="54" fill="#ff7f0e" font-size="11">roll 20</text><text x="1090" y="558" fill="#ff7f0e" font-size="11">-17</text><path d="M616.5,328.7 L617.0,328.7 L617.5,328.7 L618.1,328.7 L618.6,328.7 L619.1,328.7 L619.7,328.7 L620.2,328.7 L620.7,328.7 L621.2,328.7 L621.7,328.7 L622.2,328.7 L622.8,328.7 L623.3,328.7 L623.8,328.7 L624.3,328.7 L624.9,328.7 L625.4,328.7 L625.9,328.7 L626.4,328.7 L626.9,328.7 L627.4,328.7 L627.9,328.7 L628.5,328.7 L629.0,328.7 L629.5,328.7 L630.0,328.7 L630.6,328.7 L631.1,328.7 L631.6,328.7 L632.1,328.7 L632.6,328.7 L633.1,328.7 L633.7,328.7 L634.2,328.7 L634.6,328.7 L635.2,328.7 L635.7,328.7 L636.2,328.7 L636.7,328.7 L637.3,328.7 L637.8,328.7 L638.3,328.7 L638.8,328.7 L639.4,328.7 L639.8,328.7 L640.4,328.7 L640.9,328.7 L641.4,328.7 L641.9,328.7 L642.5,328.7 L643.0,328.7 L643.5,328.7 L644.0,328.7 L644.6,328.7 L645.1,328.7 L645.6,329.9 L646.1,328.7 L646.6,328.7 L647.1,328.7 L647.7,328.7 L648.2,328.7 L648.7,328.7 L649.2,328.7 L649.8,328.7 L650.3,328.7 L650.8,328.7 L651.3,329.9 L651.8,328.7 L652.4,328.7 L652.9,329.9 L653.4,329.9 L653.9,328.7 L654.5,328.7 L655.0,328.7 L655.5,328.7 L656.0,329.9 L656.5,328.7 L657.1,328.7 L657.6,328.7 L658.1,328.7 L658.6,328.7 L659.1,328.7 L659.6,328.7 L660.1,329.9 L660.6,328.7 L661.2,328.7 L661.6,329.9 L662.2,328.7 L662.8,328.7 L663.3,328.7 L663.8,328.7 L664.4,328.7 L664.9,328.7 L665.4,328.7 L665.9,328.7 L666.5,329.9 L667.0,328.7 L667.5,328.7 L668.0,328.7 L668.5,328.7 L669.0,329.9 L669.6,328.7 L670.1,328.7 L670.6,328.7 L671.1,329.9 L671.6,328.7 L672.1,328.7 L672.7,328.7 L673.2,328.7 L673.7,328.7 L674.2,329.9 L674.8,328.7 L675.3,328.7 L675.8,329.9 L676.3,329.9 L676.9,329.9 L677.4,328.7 L677.9,328.7 L678.4,329.9 L678.9,328.7 L679.4,328.7 L680.0,328.7 L680.5,328.7 L681.0,328.7 L681.5,329.9 L682.1,329.9 L682.6,328.7 L683.1,329.9 L683.6,329.9 L684.2,329.9 L684.7,329.9 L685.2,328.7 L685.7,328.7 L686.3,328.7 L686.8,328.7 L687.3,329.9 L687.9,328.7 L688.4,328.7 L688.9,328.7 L689.4,328.7 L689.9,328.7 L690.4,328.7 L691.0,328.7 L691.5,328.7 L692.0,328.7 L692.5,328.7 L693.1,328.7 L693.6,328.7 L694.1,328.7 L694.6,328.7 L695.1,328.7 L695.6,328.7 L696.1,328.7 L696.7,328.7 L697.2,329.9 L697.7,328.7 L698.2,328.7 L698.8,329.9 L699.3,328.7 L699.8,329.9 L700.4,328.7 L700.9,328.7 L701.4,328.7 L701.9,328.7 L702.4,329.9 L702.9,328.7 L703.5,328.7 L704.1,328.7 L704.6,328.7 L705.1,329.9 L705.6,328.7 L706.2,328.7 L706.7,328.7 L707.1,328.7 L707.7,329.9 L708.2,328.7 L708.7,329.9 L709.2,328.7 L709.9,329.9 L710.4,328.7 L710.9,328.7 L711.5,329.9 L712.0,328.7 L712.5,328.7 L713.0,329.9 L713.6,328.7 L714.1,329.9 L714.6,328.7 L715.1,328.7 L715.6,329.9 L716.1,329.9 L716.6,328.7 L717.2,328.7 L717.7,328.7 L718.2,328.7 L718.7,328.7 L719.2,328.7 L719.7,328.7 L720.2,328.7 L720.7,328.7 L721.2,329.9 L721.8,328.7 L722.4,328.7 L722.9,329.9 L723.4,328.7 L723.9,328.7 L724.4,328.7 L724.9,328.7 L725.4,329.9 L725.9,328.7 L726.5,328.7 L727.0,328.7 L727.5,328.7 L728.0,328.7 L728.5,328.7 L729.0,328.7 L729.5,315.0 L730.0,293.8 L730.6,268.9 L731.1,249.0 L731.6,229.1 L732.1,209.2 L732.6,204.2 L733.1,188.0 L733.7,176.8 L734.2,176.8 L734.7,169.4 L735.2,155.7 L735.7,151.9 L736.2,143.2 L736.8,150.7 L737.3,143.2 L737.8,132.0 L738.3,145.7 L738.8,135.7 L739.4,142.0 L739.9,134.5 L740.4,143.2 L740.9,123.3 L741.5,138.2 L742.0,129.5 L742.5,132.0 L743.0,127.0 L743.6,139.5 L744.1,124.5 L744.6,132.0 L745.1,135.7 L745.7,130.8 L746.2,122.1 L746.7,130.8 L747.3,137.0 L747.8,142.0 L748.3,140.7 L748.8,140.7 L749.3,137.0 L749.8,143.2 L750.3,149.4 L750.8,165.6 L751.3,158.1 L751.8,158.1 L752.3,161.9 L752.9,160.6 L753.4,164.4 L753.9,180.6 L754.4,166.9 L754.9,178.1 L755.4,214.2 L755.9,250.3 L756.4,275.1 L757.0,307.5 L757.5,346.1 L758.0,367.3 L758.5,389.7 L759.1,414.6 L759.6,432.0 L760.1,448.2 L760.6,466.8 L761.1,475.5 L761.7,480.5 L762.2,484.3 L762.7,501.7 L763.2,497.9 L763.7,507.9 L764.3,506.7 L764.8,525.3 L765.3,521.6 L765.8,516.6 L766.4,530.3 L766.9,514.1 L767.4,515.4 L767.9,521.6 L768.4,529.1 L768.9,539.0 L769.5,535.3 L770.0,539.0 L770.5,526.6 L771.0,524.1 L771.6,542.8 L772.1,525.3 L772.6,526.6 L773.1,530.3 L773.7,527.8 L774.2,541.5 L774.7,535.3 L775.2,527.8 L775.8,526.6 L776.3,525.3 L776.8,531.6 L777.3,532.8 L777.8,540.3 L778.3,531.6 L778.9,539.0 L779.4,542.8 L779.8,524.1 L780.4,542.8 L780.9,532.8 L781.4,526.6 L781.9,529.1 L782.5,534.0 L782.9,537.8 L783.5,525.3 L784.0,532.8 L784.5,544.0 L785.0,534.0 L785.6,544.0 L786.1,524.1 L786.6,542.8 L787.1,522.8 L787.7,536.5 L788.2,539.0 L788.7,540.3 L789.2,539.0 L789.7,536.5 L790.3,524.1 L790.8,531.6 L791.3,531.6 L791.8,535.3 L792.3,527.8 L793.4,535.3 L793.9,529.1 L794.4,532.8 L794.9,536.5 L795.4,527.8 L795.9,532.8 L796.5,530.3 L797.0,535.3 L797.5,489.2 L798.0,433.2 L798.5,409.6 L799.0,374.7 L799.5,344.9 L800.1,320.0 L800.6,281.4 L801.1,261.5 L801.6,250.3 L802.1,227.9 L802.6,209.2 L803.1,193.0 L803.6,194.2 L804.1,188.0 L804.7,169.4 L805.5,169.4 L806.1,154.4 L806.6,146.9 L807.1,150.7 L807.6,148.2 L808.1,140.7 L808.6,134.5 L809.1,133.3 L809.7,130.8 L810.2,138.2 L810.7,144.5 L811.2,127.0 L811.8,137.0 L812.3,134.5 L812.8,137.0 L813.4,138.2 L813.9,122.1 L814.4,124.5 L814.9,132.0 L815.4,118.3 L815.9,125.8 L816.4,130.8 L817.0,120.8 L817.7,119.6 L818.2,120.8 L818.7,123.3 L819.3,122.1 L819.8,139.5 L820.3,134.5 L820.8,133.3 L821.4,122.1 L821.9,137.0 L822.4,128.3 L822.9,130.8 L823.4,132.0 L823.9,128.3 L824.5,115.8 L825.0,135.7 L825.5,133.3 L826.0,118.3 L826.6,133.3 L827.1,118.3 L827.6,134.5 L828.1,115.8 L828.6,118.3 L829.1,132.0 L829.9,134.5 L830.4,119.6 L830.9,137.0 L831.4,125.8 L831.9,133.3 L832.5,129.5 L833.0,118.3 L833.5,134.5 L834.0,120.8 L834.5,120.8 L835.0,122.1 L835.5,132.0 L836.1,128.3 L836.6,117.1 L837.1,130.8 L837.6,123.3 L838.1,119.6 L838.6,134.5 L839.1,134.5 L839.7,125.8 L840.2,127.0 L840.6,119.6 L841.2,134.5 L842.0,117.1 L842.5,134.5 L843.0,134.5 L843.6,132.0 L844.1,134.5 L844.6,118.3 L845.1,117.1 L845.7,129.5 L846.2,120.8 L846.7,133.3 L847.2,129.5 L847.8,132.0 L848.3,133.3 L848.8,117.1 L849.3,122.1 L849.8,117.1 L850.3,130.8 L850.9,122.1 L851.4,127.0 L851.9,135.7 L852.4,124.5 L853.0,133.3 L853.5,117.1 L854.2,132.0 L854.7,120.8 L855.3,135.7 L855.8,115.8 L856.3,127.0 L856.8,128.3 L857.4,128.3 L857.9,127.0 L858.4,128.3 L858.9,137.0 L859.4,123.3 L860.0,130.8 L860.5,135.7 L861.0,132.0 L861.5,124.5 L862.0,117.1 L862.6,125.8 L863.1,132.0 L863.6,127.0 L864.1,127.0 L864.7,124.5 L865.2,129.5 L865.7,127.0 L866.5,134.5 L867.0,122.1 L867.6,130.8 L868.1,124.5 L868.6,124.5 L869.1,135.7 L869.6,128.3 L870.1,133.3 L870.7,127.0 L871.2,129.5 L871.7,123.3 L872.2,117.1 L872.8,115.8 L873.3,135.7 L873.8,115.8 L874.3,133.3 L874.8,135.7 L875.3,122.1 L875.8,134.5 L876.4,129.5 L876.9,130.8 L877.4,128.3 L877.9,130.8 L878.6,118.3 L879.1,118.3 L879.6,135.7 L880.2,134.5 L880.7,124.5 L881.2,123.3 L881.7,119.6 L882.2,134.5 L882.7,125.8 L883.2,115.8 L883.8,120.8 L884.3,130.8 L884.8,127.0 L885.4,134.5 L885.9,120.8 L886.4,120.8 L886.9,119.6 L887.5,118.3 L888.0,135.7 L888.5,118.3 L889.0,137.0 L889.6,134.5 L890.1,129.5 L890.8,129.5 L891.3,132.0 L891.8,119.6 L892.3,123.3 L892.8,137.0 L893.4,128.3 L893.9,118.3 L894.4,125.8 L894.9,134.5 L895.4,124.5 L895.9,125.8 L896.4,115.8 L897.0,135.7 L897.5,122.1 L898.0,135.7 L898.5,134.5 L899.0,118.3 L899.5,134.5 L900.0,128.3 L900.6,119.6 L901.1,134.5 L901.5,125.8 L902.1,114.6 L902.9,125.8 L903.4,123.3 L903.9,122.1 L904.5,137.0 L905.0,128.3 L905.6,118.3 L906.1,134.5 L906.6,129.5 L907.2,118.3 L907.7,118.3 L908.2,128.3 L908.7,127.0 L909.2,124.5 L909.7,135.7 L910.3,124.5 L910.9,130.8 L911.4,122.1 L911.9,124.5 L912.4,124.5 L912.9,128.3 L913.4,135.7 L914.0,127.0 L915.1,127.0 L915.6,119.6 L916.1,119.6 L916.6,123.3 L917.1,128.3 L917.7,127.0 L918.3,125.8 L918.8,130.8 L919.3,124.5 L919.8,124.5 L920.4,130.8 L920.9,122.1 L921.4,118.3 L921.9,122.1 L922.4,133.3 L922.9,135.7 L923.5,122.1 L924.0,119.6 L924.5,120.8 L925.0,125.8 L925.6,137.0 L926.1,125.8 L926.6,119.6 L927.3,128.3 L927.8,134.5 L928.3,124.5 L928.8,123.3 L929.4,124.5 L929.9,124.5 L930.4,122.1 L930.9,135.7 L931.5,122.1 L932.0,128.3 L932.5,120.8 L933.0,133.3 L933.6,132.0 L934.1,134.5 L934.6,132.0 L935.1,115.8 L935.6,133.3 L936.1,137.0 L936.7,130.8 L937.2,119.6 L937.7,130.8 L938.2,134.5 L938.8,128.3 L939.5,130.8 L940.0,120.8 L940.5,117.1 L941.1,132.0 L941.6,127.0 L942.1,119.6 L942.6,134.5 L943.1,124.5 L943.6,120.8 L944.1,129.5 L944.7,135.7 L945.2,130.8 L945.7,120.8 L946.2,118.3 L946.7,125.8 L947.2,128.3 L947.7,123.3 L948.3,130.8 L948.8,120.8 L949.3,120.8 L949.8,133.3 L950.3,120.8 L950.8,127.0 L951.6,137.0 L952.2,134.5 L952.7,133.3 L953.2,133.3 L953.7,128.3 L954.3,118.3 L954.8,125.8 L955.3,125.8 L955.8,134.5 L956.3,115.8 L956.8,134.5 L957.3,127.0 L957.9,129.5 L958.4,114.6 L958.9,123.3 L959.4,130.8 L959.9,114.6 L960.5,132.0 L961.0,119.6 L961.5,134.5 L962.0,115.8 L962.5,122.1 L963.1,135.7 L964.3,120.8 L964.9,130.8 L965.4,118.3 L966.0,125.8 L966.5,122.1 L967.1,120.8 L967.6,128.3 L968.1,118.3 L968.6,129.5 L969.2,128.3 L969.7,123.3 L970.2,120.8 L970.7,128.3 L971.2,123.3 L971.8,127.0 L972.3,120.8 L972.8,127.0 L973.3,135.7 L973.8,133.3 L974.3,129.5 L974.8,127.0 L975.3,137.0 L975.9,114.6 L977.1,119.6 L977.6,127.0 L978.1,124.5 L978.6,118.3 L979.2,133.3 L979.7,124.5 L980.2,125.8 L980.7,135.7 L981.3,122.1 L981.8,119.6 L982.3,123.3 L982.8,122.1 L983.3,135.7 L983.8,129.5 L984.4,124.5 L984.9,128.3 L985.4,130.8 L985.9,119.6 L986.5,119.6 L987.0,125.8 L987.5,128.3 L988.0,132.0 L988.5,120.8 L989.7,130.8 L990.2,117.1 L990.7,134.5 L991.3,129.5 L991.8,115.8 L992.3,124.5 L992.8,123.3 L993.3,127.0 L993.8,117.1 L994.3,118.3 L994.8,122.1 L995.4,123.3 L996.0,122.1 L996.5,124.5 L997.0,128.3 L997.5,119.6 L998.0,133.3 L998.5,122.1 L999.0,122.1 L999.5,128.3 L1000.0,128.3 L1000.5,125.8 L1001.1,134.5 L1002.4,130.8 L1002.9,127.0 L1003.4,135.7 L1003.9,122.1 L1004.4,125.8 L1005.0,133.3 L1005.5,118.3 L1006.0,133.3 L1006.5,134.5 L1007.0,122.1 L1007.5,134.5 L1008.0,118.3 L1008.6,122.1 L1009.1,132.0 L1009.6,123.3 L1010.1,133.3 L1010.6,129.5 L1011.1,135.7 L1011.6,120.8 L1012.2,133.3 L1012.7,114.6 L1013.2,134.5 L1013.7,115.8 L1015.1,119.6 L1015.6,133.3 L1016.1,138.2 L1016.6,123.3 L1017.1,128.3 L1017.6,124.5 L1018.2,119.6 L1018.7,138.2 L1019.2,132.0 L1019.7,135.7 L1020.3,123.3 L1020.8,119.6 L1021.4,127.0 L1021.9,132.0 L1022.4,132.0 L1022.9,123.3 L1023.4,117.1 L1024.0,130.8 L1024.5,128.3 L1025.0,118.3 L1025.5,124.5 L1026.1,119.6 L1027.8,127.0 L1028.3,127.0 L1028.8,122.1 L1029.3,134.5 L1029.8,110.9 L1030.3,127.0 L1030.8,104.6 L1031.3,110.9 L1031.9,93.4 L1032.4,98.4 L1032.9,109.6 L1033.5,107.1 L1034.0,95.9 L1034.5,100.9 L1035.0,99.6 L1035.6,94.7 L1036.1,94.7 L1036.6,93.4 L1037.1,76.0 L1037.6,76.0 L1038.1,86.0 L1038.7,81.0 L1039.2,87.2 L1040.4,142.0 L1041.0,133.3 L1041.5,127.0 L1042.0,125.8 L1042.5,150.7 L1043.1,144.5 L1043.6,140.7 L1044.1,134.5 L1044.6,164.4 L1045.2,184.3 L1045.7,175.6 L1046.2,175.6 L1046.7,163.1 L1047.2,168.1 L1047.8,183.0 L1048.3,169.4 L1048.8,164.4 L1049.3,163.1 L1049.8,160.6 L1050.4,185.5 L1050.9,215.4 L1051.4,229.1 L1051.9,216.6 L1053.2,204.2 L1053.7,196.7 L1054.2,219.1 L1054.7,237.8 L1055.3,207.9 L1055.8,201.7 L1056.3,207.9 L1056.9,236.6 L1057.4,207.9 L1057.9,231.6 L1058.4,216.6 L1058.9,196.7 L1059.5,204.2 L1060.0,234.1 L1060.6,240.3 L1061.1,273.9 L1061.6,256.5 L1062.1,249.0 L1062.6,277.6 L1063.1,260.2 L1063.6,273.9 L1064.2,285.1 L1065.8,288.8 L1066.3,301.3 L1066.8,298.8 L1067.3,291.3 L1067.9,278.9 L1068.4,273.9 L1070.2,252.7 L1070.8,255.2 L1071.3,267.7 L1071.8,268.9 L1072.3,276.4 L1072.8,278.9 L1073.3,281.4 L1073.9,286.4 L1074.5,292.6 L1075.0,296.3 L1075.5,296.3 L1076.0,298.8 L1076.5,303.8 L1077.0,307.5 L1078.3,311.2 L1078.8,311.2 L1079.3,313.7 L1079.8,315.0 L1080.4,315.0 L1080.9,317.5 L1081.4,317.5 L1081.9,318.7 L1082.4,320.0 L1082.9,320.0 L1083.5,321.2 L1084.0,322.4" fill="none" stroke="#ff7f0e" stroke-width="1.1" opacity="0.85"/><text x="616" y="572" font-size="11" fill="#888">time 0..40 s — altitude (blue) &amp; roll (orange)</text></svg>